<?xml version="1.0" encoding="UTF-8"?>
<xmeml version="5">
  <project>
    <name>2024-07-15_CASINO_NONAME_EDL</name>
    <children>
      <bin>
        <name>Sources</name>
        <children>
          <clip id="clip-1">
            <duration>82856</duration>
            <rate>
              <ntsc>false</ntsc>
              <timebase>25</timebase>
            </rate>
            <name>2024-07-15_CASINO_NONAME_CAM01.mxf</name>
            <defaultangle>1</defaultangle>
            <media>
              <video>
                <track>
                  <clipitem id="clipv-1">
                    <duration>82856</duration>
                    <rate>
                      <ntsc>false</ntsc>
                      <timebase>25</timebase>
                    </rate>
                    <file id="src-1">
                      <name>2024-07-15_CASINO_NONAME_CAM01.mxf</name>
                      <timecode>
                        <string>08:32:39:18</string>
                        <source>source</source>
                        <frame>768993</frame>
                      </timecode>
                      <pathurl>./2024-07-15_CASINO_NONAME_CAM01.mxf</pathurl>
                      <media>
                        <audio>
                          <channelcount>2</channelcount>
                        </audio>
                        <video>
                          <samplecharacteristics>
                            <width>3840</width>
                            <height>2160</height>
                            <anamorphic>false</anamorphic>
                            <pixelaspectratio>square</pixelaspectratio>
                          </samplecharacteristics>
                        </video>
                      </media>
                    </file>
                    <sourcetrack>
                      <mediatype>video</mediatype>
                    </sourcetrack>
                    <link>
                      <linkclipref>clipv-1</linkclipref>
                      <mediatype>video</mediatype>
                      <trackindex>1</trackindex>
                    </link>
                    <link>
                      <linkclipref>clipa1-1</linkclipref>
                      <mediatype>audio</mediatype>
                      <trackindex>1</trackindex>
                      <groupindex>1</groupindex>
                    </link>
                    <link>
                      <linkclipref>clipa2-1</linkclipref>
                      <mediatype>audio</mediatype>
                      <trackindex>2</trackindex>
                      <groupindex>1</groupindex>
                    </link>
                  </clipitem>
                </track>
              </video>
              <audio>
                <track>
                  <clipitem id="clipa1-1">
                    <rate>
                      <ntsc>false</ntsc>
                      <timebase>25</timebase>
                    </rate>
                    <name>2024-07-15_CASINO_NONAME_CAM01.mxf</name>
                    <file id="src-1"/>
                    <filter>
                      <effect>
                        <name>Audio Pan</name>
                        <effectid>audiopan</effectid>
                        <effectcategory>audiopan</effectcategory>
                        <effecttype>audiopan</effecttype>
                        <mediatype>audio</mediatype>
                        <parameter>
                          <name>Pan</name>
                          <parameterid>pan</parameterid>
                          <valuemin>-1</valuemin>
                          <valuemax>1</valuemax>
                          <value>-1</value>
                        </parameter>
                      </effect>
                    </filter>
                    <sourcetrack>
                      <mediatype>audio</mediatype>
                      <trackindex>1</trackindex>
                    </sourcetrack>
                    <link>
                      <linkclipref>clipv-1</linkclipref>
                      <mediatype>video</mediatype>
                      <trackindex>1</trackindex>
                    </link>
                    <link>
                      <linkclipref>clipa1-1</linkclipref>
                      <mediatype>audio</mediatype>
                      <trackindex>1</trackindex>
                      <groupindex>1</groupindex>
                    </link>
                    <link>
                      <linkclipref>clipa2-1</linkclipref>
                      <mediatype>audio</mediatype>
                      <trackindex>2</trackindex>
                      <groupindex>1</groupindex>
                    </link>
                  </clipitem>
                </track>
                <track>
                  <clipitem id="clipa2-1">
                    <rate>
                      <ntsc>false</ntsc>
                      <timebase>25</timebase>
                    </rate>
                    <name>2024-07-15_CASINO_NONAME_CAM01.mxf</name>
                    <file id="src-1"/>
                    <filter>
                      <effect>
                        <name>Audio Pan</name>
                        <effectid>audiopan</effectid>
                        <effectcategory>audiopan</effectcategory>
                        <effecttype>audiopan</effecttype>
                        <mediatype>audio</mediatype>
                        <parameter>
                          <name>Pan</name>
                          <parameterid>pan</parameterid>
                          <valuemin>-1</valuemin>
                          <valuemax>1</valuemax>
                          <value>1</value>
                        </parameter>
                      </effect>
                    </filter>
                    <sourcetrack>
                      <mediatype>audio</mediatype>
                      <trackindex>2</trackindex>
                    </sourcetrack>
                    <link>
                      <linkclipref>clipv-1</linkclipref>
                      <mediatype>video</mediatype>
                      <trackindex>1</trackindex>
                    </link>
                    <link>
                      <linkclipref>clipa1-1</linkclipref>
                      <mediatype>audio</mediatype>
                      <trackindex>1</trackindex>
                      <groupindex>1</groupindex>
                    </link>
                    <link>
                      <linkclipref>clipa2-1</linkclipref>
                      <mediatype>audio</mediatype>
                      <trackindex>2</trackindex>
                      <groupindex>1</groupindex>
                    </link>
                  </clipitem>
                </track>
              </audio>
            </media>
          </clip>
          <clip id="clip-2">
            <duration>82856</duration>
            <rate>
              <ntsc>false</ntsc>
              <timebase>25</timebase>
            </rate>
            <name>2024-07-15_CASINO_NONAME_CAM02.mxf</name>
            <defaultangle>2</defaultangle>
            <media>
              <video>
                <track>
                  <clipitem id="clipv-2">
                    <duration>82856</duration>
                    <rate>
                      <ntsc>false</ntsc>
                      <timebase>25</timebase>
                    </rate>
                    <file id="src-2">
                      <name>2024-07-15_CASINO_NONAME_CAM02.mxf</name>
                      <timecode>
                        <string>08:32:39:18</string>
                        <source>source</source>
                        <frame>768993</frame>
                      </timecode>
                      <pathurl>./2024-07-15_CASINO_NONAME_CAM02.mxf</pathurl>
                      <media>
                        <audio>
                          <channelcount>2</channelcount>
                        </audio>
                        <video>
                          <samplecharacteristics>
                            <width>3840</width>
                            <height>2160</height>
                            <anamorphic>false</anamorphic>
                            <pixelaspectratio>square</pixelaspectratio>
                          </samplecharacteristics>
                        </video>
                      </media>
                    </file>
                    <sourcetrack>
                      <mediatype>video</mediatype>
                    </sourcetrack>
                    <link>
                      <linkclipref>clipv-2</linkclipref>
                      <mediatype>video</mediatype>
                      <trackindex>1</trackindex>
                    </link>
                    <link>
                      <linkclipref>clipa1-2</linkclipref>
                      <mediatype>audio</mediatype>
                      <trackindex>1</trackindex>
                      <groupindex>1</groupindex>
                    </link>
                    <link>
                      <linkclipref>clipa2-2</linkclipref>
                      <mediatype>audio</mediatype>
                      <trackindex>2</trackindex>
                      <groupindex>1</groupindex>
                    </link>
                  </clipitem>
                </track>
              </video>
              <audio>
                <track>
                  <clipitem id="clipa1-2">
                    <rate>
                      <ntsc>false</ntsc>
                      <timebase>25</timebase>
                    </rate>
                    <name>2024-07-15_CASINO_NONAME_CAM02.mxf</name>
                    <file id="src-2"/>
                    <filter>
                      <effect>
                        <name>Audio Pan</name>
                        <effectid>audiopan</effectid>
                        <effectcategory>audiopan</effectcategory>
                        <effecttype>audiopan</effecttype>
                        <mediatype>audio</mediatype>
                        <parameter>
                          <name>Pan</name>
                          <parameterid>pan</parameterid>
                          <valuemin>-1</valuemin>
                          <valuemax>1</valuemax>
                          <value>-1</value>
                        </parameter>
                      </effect>
                    </filter>
                    <sourcetrack>
                      <mediatype>audio</mediatype>
                      <trackindex>1</trackindex>
                    </sourcetrack>
                    <link>
                      <linkclipref>clipv-2</linkclipref>
                      <mediatype>video</mediatype>
                      <trackindex>1</trackindex>
                    </link>
                    <link>
                      <linkclipref>clipa1-2</linkclipref>
                      <mediatype>audio</mediatype>
                      <trackindex>1</trackindex>
                      <groupindex>1</groupindex>
                    </link>
                    <link>
                      <linkclipref>clipa2-2</linkclipref>
                      <mediatype>audio</mediatype>
                      <trackindex>2</trackindex>
                      <groupindex>1</groupindex>
                    </link>
                  </clipitem>
                </track>
                <track>
                  <clipitem id="clipa2-2">
                    <rate>
                      <ntsc>false</ntsc>
                      <timebase>25</timebase>
                    </rate>
                    <name>2024-07-15_CASINO_NONAME_CAM02.mxf</name>
                    <file id="src-2"/>
                    <filter>
                      <effect>
                        <name>Audio Pan</name>
                        <effectid>audiopan</effectid>
                        <effectcategory>audiopan</effectcategory>
                        <effecttype>audiopan</effecttype>
                        <mediatype>audio</mediatype>
                        <parameter>
                          <name>Pan</name>
                          <parameterid>pan</parameterid>
                          <valuemin>-1</valuemin>
                          <valuemax>1</valuemax>
                          <value>1</value>
                        </parameter>
                      </effect>
                    </filter>
                    <sourcetrack>
                      <mediatype>audio</mediatype>
                      <trackindex>2</trackindex>
                    </sourcetrack>
                    <link>
                      <linkclipref>clipv-2</linkclipref>
                      <mediatype>video</mediatype>
                      <trackindex>1</trackindex>
                    </link>
                    <link>
                      <linkclipref>clipa1-2</linkclipref>
                      <mediatype>audio</mediatype>
                      <trackindex>1</trackindex>
                      <groupindex>1</groupindex>
                    </link>
                    <link>
                      <linkclipref>clipa2-2</linkclipref>
                      <mediatype>audio</mediatype>
                      <trackindex>2</trackindex>
                      <groupindex>1</groupindex>
                    </link>
                  </clipitem>
                </track>
              </audio>
            </media>
          </clip>
          <clip id="clip-3">
            <duration>82856</duration>
            <rate>
              <ntsc>false</ntsc>
              <timebase>25</timebase>
            </rate>
            <name>2024-07-15_CASINO_NONAME_CAM03.mxf</name>
            <defaultangle>3</defaultangle>
            <media>
              <video>
                <track>
                  <clipitem id="clipv-3">
                    <duration>82856</duration>
                    <rate>
                      <ntsc>false</ntsc>
                      <timebase>25</timebase>
                    </rate>
                    <file id="src-3">
                      <name>2024-07-15_CASINO_NONAME_CAM03.mxf</name>
                      <timecode>
                        <string>08:32:39:18</string>
                        <source>source</source>
                        <frame>768993</frame>
                      </timecode>
                      <pathurl>./2024-07-15_CASINO_NONAME_CAM03.mxf</pathurl>
                      <media>
                        <audio>
                          <channelcount>2</channelcount>
                        </audio>
                        <video>
                          <samplecharacteristics>
                            <width>3840</width>
                            <height>2160</height>
                            <anamorphic>false</anamorphic>
                            <pixelaspectratio>square</pixelaspectratio>
                          </samplecharacteristics>
                        </video>
                      </media>
                    </file>
                    <sourcetrack>
                      <mediatype>video</mediatype>
                    </sourcetrack>
                    <link>
                      <linkclipref>clipv-3</linkclipref>
                      <mediatype>video</mediatype>
                      <trackindex>1</trackindex>
                    </link>
                    <link>
                      <linkclipref>clipa1-3</linkclipref>
                      <mediatype>audio</mediatype>
                      <trackindex>1</trackindex>
                      <groupindex>1</groupindex>
                    </link>
                    <link>
                      <linkclipref>clipa2-3</linkclipref>
                      <mediatype>audio</mediatype>
                      <trackindex>2</trackindex>
                      <groupindex>1</groupindex>
                    </link>
                  </clipitem>
                </track>
              </video>
              <audio>
                <track>
                  <clipitem id="clipa1-3">
                    <rate>
                      <ntsc>false</ntsc>
                      <timebase>25</timebase>
                    </rate>
                    <name>2024-07-15_CASINO_NONAME_CAM03.mxf</name>
                    <file id="src-3"/>
                    <filter>
                      <effect>
                        <name>Audio Pan</name>
                        <effectid>audiopan</effectid>
                        <effectcategory>audiopan</effectcategory>
                        <effecttype>audiopan</effecttype>
                        <mediatype>audio</mediatype>
                        <parameter>
                          <name>Pan</name>
                          <parameterid>pan</parameterid>
                          <valuemin>-1</valuemin>
                          <valuemax>1</valuemax>
                          <value>-1</value>
                        </parameter>
                      </effect>
                    </filter>
                    <sourcetrack>
                      <mediatype>audio</mediatype>
                      <trackindex>1</trackindex>
                    </sourcetrack>
                    <link>
                      <linkclipref>clipv-3</linkclipref>
                      <mediatype>video</mediatype>
                      <trackindex>1</trackindex>
                    </link>
                    <link>
                      <linkclipref>clipa1-3</linkclipref>
                      <mediatype>audio</mediatype>
                      <trackindex>1</trackindex>
                      <groupindex>1</groupindex>
                    </link>
                    <link>
                      <linkclipref>clipa2-3</linkclipref>
                      <mediatype>audio</mediatype>
                      <trackindex>2</trackindex>
                      <groupindex>1</groupindex>
                    </link>
                  </clipitem>
                </track>
                <track>
                  <clipitem id="clipa2-3">
                    <rate>
                      <ntsc>false</ntsc>
                      <timebase>25</timebase>
                    </rate>
                    <name>2024-07-15_CASINO_NONAME_CAM03.mxf</name>
                    <file id="src-3"/>
                    <filter>
                      <effect>
                        <name>Audio Pan</name>
                        <effectid>audiopan</effectid>
                        <effectcategory>audiopan</effectcategory>
                        <effecttype>audiopan</effecttype>
                        <mediatype>audio</mediatype>
                        <parameter>
                          <name>Pan</name>
                          <parameterid>pan</parameterid>
                          <valuemin>-1</valuemin>
                          <valuemax>1</valuemax>
                          <value>1</value>
                        </parameter>
                      </effect>
                    </filter>
                    <sourcetrack>
                      <mediatype>audio</mediatype>
                      <trackindex>2</trackindex>
                    </sourcetrack>
                    <link>
                      <linkclipref>clipv-3</linkclipref>
                      <mediatype>video</mediatype>
                      <trackindex>1</trackindex>
                    </link>
                    <link>
                      <linkclipref>clipa1-3</linkclipref>
                      <mediatype>audio</mediatype>
                      <trackindex>1</trackindex>
                      <groupindex>1</groupindex>
                    </link>
                    <link>
                      <linkclipref>clipa2-3</linkclipref>
                      <mediatype>audio</mediatype>
                      <trackindex>2</trackindex>
                      <groupindex>1</groupindex>
                    </link>
                  </clipitem>
                </track>
              </audio>
            </media>
          </clip>
          <clip id="clip-4">
            <duration>82856</duration>
            <rate>
              <ntsc>false</ntsc>
              <timebase>25</timebase>
            </rate>
            <name>2024-07-15_CASINO_NONAME_CAM04.mxf</name>
            <defaultangle>4</defaultangle>
            <media>
              <video>
                <track>
                  <clipitem id="clipv-4">
                    <duration>82856</duration>
                    <rate>
                      <ntsc>false</ntsc>
                      <timebase>25</timebase>
                    </rate>
                    <file id="src-4">
                      <name>2024-07-15_CASINO_NONAME_CAM04.mxf</name>
                      <timecode>
                        <string>08:32:39:18</string>
                        <source>source</source>
                        <frame>768993</frame>
                      </timecode>
                      <pathurl>./2024-07-15_CASINO_NONAME_CAM04.mxf</pathurl>
                      <media>
                        <audio>
                          <channelcount>2</channelcount>
                        </audio>
                        <video>
                          <samplecharacteristics>
                            <width>3840</width>
                            <height>2160</height>
                            <anamorphic>false</anamorphic>
                            <pixelaspectratio>square</pixelaspectratio>
                          </samplecharacteristics>
                        </video>
                      </media>
                    </file>
                    <sourcetrack>
                      <mediatype>video</mediatype>
                    </sourcetrack>
                    <link>
                      <linkclipref>clipv-4</linkclipref>
                      <mediatype>video</mediatype>
                      <trackindex>1</trackindex>
                    </link>
                    <link>
                      <linkclipref>clipa1-4</linkclipref>
                      <mediatype>audio</mediatype>
                      <trackindex>1</trackindex>
                      <groupindex>1</groupindex>
                    </link>
                    <link>
                      <linkclipref>clipa2-4</linkclipref>
                      <mediatype>audio</mediatype>
                      <trackindex>2</trackindex>
                      <groupindex>1</groupindex>
                    </link>
                  </clipitem>
                </track>
              </video>
              <audio>
                <track>
                  <clipitem id="clipa1-4">
                    <rate>
                      <ntsc>false</ntsc>
                      <timebase>25</timebase>
                    </rate>
                    <name>2024-07-15_CASINO_NONAME_CAM04.mxf</name>
                    <file id="src-4"/>
                    <filter>
                      <effect>
                        <name>Audio Pan</name>
                        <effectid>audiopan</effectid>
                        <effectcategory>audiopan</effectcategory>
                        <effecttype>audiopan</effecttype>
                        <mediatype>audio</mediatype>
                        <parameter>
                          <name>Pan</name>
                          <parameterid>pan</parameterid>
                          <valuemin>-1</valuemin>
                          <valuemax>1</valuemax>
                          <value>-1</value>
                        </parameter>
                      </effect>
                    </filter>
                    <sourcetrack>
                      <mediatype>audio</mediatype>
                      <trackindex>1</trackindex>
                    </sourcetrack>
                    <link>
                      <linkclipref>clipv-4</linkclipref>
                      <mediatype>video</mediatype>
                      <trackindex>1</trackindex>
                    </link>
                    <link>
                      <linkclipref>clipa1-4</linkclipref>
                      <mediatype>audio</mediatype>
                      <trackindex>1</trackindex>
                      <groupindex>1</groupindex>
                    </link>
                    <link>
                      <linkclipref>clipa2-4</linkclipref>
                      <mediatype>audio</mediatype>
                      <trackindex>2</trackindex>
                      <groupindex>1</groupindex>
                    </link>
                  </clipitem>
                </track>
                <track>
                  <clipitem id="clipa2-4">
                    <rate>
                      <ntsc>false</ntsc>
                      <timebase>25</timebase>
                    </rate>
                    <name>2024-07-15_CASINO_NONAME_CAM04.mxf</name>
                    <file id="src-4"/>
                    <filter>
                      <effect>
                        <name>Audio Pan</name>
                        <effectid>audiopan</effectid>
                        <effectcategory>audiopan</effectcategory>
                        <effecttype>audiopan</effecttype>
                        <mediatype>audio</mediatype>
                        <parameter>
                          <name>Pan</name>
                          <parameterid>pan</parameterid>
                          <valuemin>-1</valuemin>
                          <valuemax>1</valuemax>
                          <value>1</value>
                        </parameter>
                      </effect>
                    </filter>
                    <sourcetrack>
                      <mediatype>audio</mediatype>
                      <trackindex>2</trackindex>
                    </sourcetrack>
                    <link>
                      <linkclipref>clipv-4</linkclipref>
                      <mediatype>video</mediatype>
                      <trackindex>1</trackindex>
                    </link>
                    <link>
                      <linkclipref>clipa1-4</linkclipref>
                      <mediatype>audio</mediatype>
                      <trackindex>1</trackindex>
                      <groupindex>1</groupindex>
                    </link>
                    <link>
                      <linkclipref>clipa2-4</linkclipref>
                      <mediatype>audio</mediatype>
                      <trackindex>2</trackindex>
                      <groupindex>1</groupindex>
                    </link>
                  </clipitem>
                </track>
              </audio>
            </media>
          </clip>
          <clip id="clip-5">
            <duration>82856</duration>
            <rate>
              <ntsc>false</ntsc>
              <timebase>25</timebase>
            </rate>
            <name>2024-07-15_CASINO_NONAME_CAM05.mxf</name>
            <defaultangle>5</defaultangle>
            <media>
              <video>
                <track>
                  <clipitem id="clipv-5">
                    <duration>82856</duration>
                    <rate>
                      <ntsc>false</ntsc>
                      <timebase>25</timebase>
                    </rate>
                    <file id="src-5">
                      <name>2024-07-15_CASINO_NONAME_CAM05.mxf</name>
                      <timecode>
                        <string>08:32:39:18</string>
                        <source>source</source>
                        <frame>768993</frame>
                      </timecode>
                      <pathurl>./2024-07-15_CASINO_NONAME_CAM05.mxf</pathurl>
                      <media>
                        <audio>
                          <channelcount>2</channelcount>
                        </audio>
                        <video>
                          <samplecharacteristics>
                            <width>3840</width>
                            <height>2160</height>
                            <anamorphic>false</anamorphic>
                            <pixelaspectratio>square</pixelaspectratio>
                          </samplecharacteristics>
                        </video>
                      </media>
                    </file>
                    <sourcetrack>
                      <mediatype>video</mediatype>
                    </sourcetrack>
                    <link>
                      <linkclipref>clipv-5</linkclipref>
                      <mediatype>video</mediatype>
                      <trackindex>1</trackindex>
                    </link>
                    <link>
                      <linkclipref>clipa1-5</linkclipref>
                      <mediatype>audio</mediatype>
                      <trackindex>1</trackindex>
                      <groupindex>1</groupindex>
                    </link>
                    <link>
                      <linkclipref>clipa2-5</linkclipref>
                      <mediatype>audio</mediatype>
                      <trackindex>2</trackindex>
                      <groupindex>1</groupindex>
                    </link>
                  </clipitem>
                </track>
              </video>
              <audio>
                <track>
                  <clipitem id="clipa1-5">
                    <rate>
                      <ntsc>false</ntsc>
                      <timebase>25</timebase>
                    </rate>
                    <name>2024-07-15_CASINO_NONAME_CAM05.mxf</name>
                    <file id="src-5"/>
                    <filter>
                      <effect>
                        <name>Audio Pan</name>
                        <effectid>audiopan</effectid>
                        <effectcategory>audiopan</effectcategory>
                        <effecttype>audiopan</effecttype>
                        <mediatype>audio</mediatype>
                        <parameter>
                          <name>Pan</name>
                          <parameterid>pan</parameterid>
                          <valuemin>-1</valuemin>
                          <valuemax>1</valuemax>
                          <value>-1</value>
                        </parameter>
                      </effect>
                    </filter>
                    <sourcetrack>
                      <mediatype>audio</mediatype>
                      <trackindex>1</trackindex>
                    </sourcetrack>
                    <link>
                      <linkclipref>clipv-5</linkclipref>
                      <mediatype>video</mediatype>
                      <trackindex>1</trackindex>
                    </link>
                    <link>
                      <linkclipref>clipa1-5</linkclipref>
                      <mediatype>audio</mediatype>
                      <trackindex>1</trackindex>
                      <groupindex>1</groupindex>
                    </link>
                    <link>
                      <linkclipref>clipa2-5</linkclipref>
                      <mediatype>audio</mediatype>
                      <trackindex>2</trackindex>
                      <groupindex>1</groupindex>
                    </link>
                  </clipitem>
                </track>
                <track>
                  <clipitem id="clipa2-5">
                    <rate>
                      <ntsc>false</ntsc>
                      <timebase>25</timebase>
                    </rate>
                    <name>2024-07-15_CASINO_NONAME_CAM05.mxf</name>
                    <file id="src-5"/>
                    <filter>
                      <effect>
                        <name>Audio Pan</name>
                        <effectid>audiopan</effectid>
                        <effectcategory>audiopan</effectcategory>
                        <effecttype>audiopan</effecttype>
                        <mediatype>audio</mediatype>
                        <parameter>
                          <name>Pan</name>
                          <parameterid>pan</parameterid>
                          <valuemin>-1</valuemin>
                          <valuemax>1</valuemax>
                          <value>1</value>
                        </parameter>
                      </effect>
                    </filter>
                    <sourcetrack>
                      <mediatype>audio</mediatype>
                      <trackindex>2</trackindex>
                    </sourcetrack>
                    <link>
                      <linkclipref>clipv-5</linkclipref>
                      <mediatype>video</mediatype>
                      <trackindex>1</trackindex>
                    </link>
                    <link>
                      <linkclipref>clipa1-5</linkclipref>
                      <mediatype>audio</mediatype>
                      <trackindex>1</trackindex>
                      <groupindex>1</groupindex>
                    </link>
                    <link>
                      <linkclipref>clipa2-5</linkclipref>
                      <mediatype>audio</mediatype>
                      <trackindex>2</trackindex>
                      <groupindex>1</groupindex>
                    </link>
                  </clipitem>
                </track>
              </audio>
            </media>
          </clip>
          <clip id="clip-6">
            <duration>82856</duration>
            <rate>
              <ntsc>false</ntsc>
              <timebase>25</timebase>
            </rate>
            <name>2024-07-15_CASINO_NONAME_CAM06.mxf</name>
            <defaultangle>6</defaultangle>
            <media>
              <video>
                <track>
                  <clipitem id="clipv-6">
                    <duration>82856</duration>
                    <rate>
                      <ntsc>false</ntsc>
                      <timebase>25</timebase>
                    </rate>
                    <file id="src-6">
                      <name>2024-07-15_CASINO_NONAME_CAM06.mxf</name>
                      <timecode>
                        <string>08:32:39:18</string>
                        <source>source</source>
                        <frame>768993</frame>
                      </timecode>
                      <pathurl>./2024-07-15_CASINO_NONAME_CAM06.mxf</pathurl>
                      <media>
                        <audio>
                          <channelcount>2</channelcount>
                        </audio>
                        <video>
                          <samplecharacteristics>
                            <width>3840</width>
                            <height>2160</height>
                            <anamorphic>false</anamorphic>
                            <pixelaspectratio>square</pixelaspectratio>
                          </samplecharacteristics>
                        </video>
                      </media>
                    </file>
                    <sourcetrack>
                      <mediatype>video</mediatype>
                    </sourcetrack>
                    <link>
                      <linkclipref>clipv-6</linkclipref>
                      <mediatype>video</mediatype>
                      <trackindex>1</trackindex>
                    </link>
                    <link>
                      <linkclipref>clipa1-6</linkclipref>
                      <mediatype>audio</mediatype>
                      <trackindex>1</trackindex>
                      <groupindex>1</groupindex>
                    </link>
                    <link>
                      <linkclipref>clipa2-6</linkclipref>
                      <mediatype>audio</mediatype>
                      <trackindex>2</trackindex>
                      <groupindex>1</groupindex>
                    </link>
                  </clipitem>
                </track>
              </video>
              <audio>
                <track>
                  <clipitem id="clipa1-6">
                    <rate>
                      <ntsc>false</ntsc>
                      <timebase>25</timebase>
                    </rate>
                    <name>2024-07-15_CASINO_NONAME_CAM06.mxf</name>
                    <file id="src-6"/>
                    <filter>
                      <effect>
                        <name>Audio Pan</name>
                        <effectid>audiopan</effectid>
                        <effectcategory>audiopan</effectcategory>
                        <effecttype>audiopan</effecttype>
                        <mediatype>audio</mediatype>
                        <parameter>
                          <name>Pan</name>
                          <parameterid>pan</parameterid>
                          <valuemin>-1</valuemin>
                          <valuemax>1</valuemax>
                          <value>-1</value>
                        </parameter>
                      </effect>
                    </filter>
                    <sourcetrack>
                      <mediatype>audio</mediatype>
                      <trackindex>1</trackindex>
                    </sourcetrack>
                    <link>
                      <linkclipref>clipv-6</linkclipref>
                      <mediatype>video</mediatype>
                      <trackindex>1</trackindex>
                    </link>
                    <link>
                      <linkclipref>clipa1-6</linkclipref>
                      <mediatype>audio</mediatype>
                      <trackindex>1</trackindex>
                      <groupindex>1</groupindex>
                    </link>
                    <link>
                      <linkclipref>clipa2-6</linkclipref>
                      <mediatype>audio</mediatype>
                      <trackindex>2</trackindex>
                      <groupindex>1</groupindex>
                    </link>
                  </clipitem>
                </track>
                <track>
                  <clipitem id="clipa2-6">
                    <rate>
                      <ntsc>false</ntsc>
                      <timebase>25</timebase>
                    </rate>
                    <name>2024-07-15_CASINO_NONAME_CAM06.mxf</name>
                    <file id="src-6"/>
                    <filter>
                      <effect>
                        <name>Audio Pan</name>
                        <effectid>audiopan</effectid>
                        <effectcategory>audiopan</effectcategory>
                        <effecttype>audiopan</effecttype>
                        <mediatype>audio</mediatype>
                        <parameter>
                          <name>Pan</name>
                          <parameterid>pan</parameterid>
                          <valuemin>-1</valuemin>
                          <valuemax>1</valuemax>
                          <value>1</value>
                        </parameter>
                      </effect>
                    </filter>
                    <sourcetrack>
                      <mediatype>audio</mediatype>
                      <trackindex>2</trackindex>
                    </sourcetrack>
                    <link>
                      <linkclipref>clipv-6</linkclipref>
                      <mediatype>video</mediatype>
                      <trackindex>1</trackindex>
                    </link>
                    <link>
                      <linkclipref>clipa1-6</linkclipref>
                      <mediatype>audio</mediatype>
                      <trackindex>1</trackindex>
                      <groupindex>1</groupindex>
                    </link>
                    <link>
                      <linkclipref>clipa2-6</linkclipref>
                      <mediatype>audio</mediatype>
                      <trackindex>2</trackindex>
                      <groupindex>1</groupindex>
                    </link>
                  </clipitem>
                </track>
              </audio>
            </media>
          </clip>
          <clip id="clip-7">
            <duration>82856</duration>
            <rate>
              <ntsc>false</ntsc>
              <timebase>25</timebase>
            </rate>
            <name>2024-07-15_CASINO_NONAME_PGM.mxf</name>
            <defaultangle>7</defaultangle>
            <media>
              <video>
                <track>
                  <clipitem id="clipv-7">
                    <duration>82856</duration>
                    <rate>
                      <ntsc>false</ntsc>
                      <timebase>25</timebase>
                    </rate>
                    <file id="src-7">
                      <name>2024-07-15_CASINO_NONAME_PGM.mxf</name>
                      <timecode>
                        <string>08:32:39:17</string>
                        <source>source</source>
                        <frame>768992</frame>
                      </timecode>
                      <pathurl>./2024-07-15_CASINO_NONAME_PGM.mxf</pathurl>
                      <media>
                        <audio>
                          <channelcount>2</channelcount>
                        </audio>
                        <video>
                          <samplecharacteristics>
                            <width>3840</width>
                            <height>2160</height>
                            <anamorphic>false</anamorphic>
                            <pixelaspectratio>square</pixelaspectratio>
                          </samplecharacteristics>
                        </video>
                      </media>
                    </file>
                    <sourcetrack>
                      <mediatype>video</mediatype>
                    </sourcetrack>
                    <link>
                      <linkclipref>clipv-7</linkclipref>
                      <mediatype>video</mediatype>
                      <trackindex>1</trackindex>
                    </link>
                    <link>
                      <linkclipref>clipa1-7</linkclipref>
                      <mediatype>audio</mediatype>
                      <trackindex>1</trackindex>
                      <groupindex>1</groupindex>
                    </link>
                    <link>
                      <linkclipref>clipa2-7</linkclipref>
                      <mediatype>audio</mediatype>
                      <trackindex>2</trackindex>
                      <groupindex>1</groupindex>
                    </link>
                  </clipitem>
                </track>
              </video>
              <audio>
                <track>
                  <clipitem id="clipa1-7">
                    <rate>
                      <ntsc>false</ntsc>
                      <timebase>25</timebase>
                    </rate>
                    <name>2024-07-15_CASINO_NONAME_PGM.mxf</name>
                    <file id="src-7"/>
                    <filter>
                      <effect>
                        <name>Audio Pan</name>
                        <effectid>audiopan</effectid>
                        <effectcategory>audiopan</effectcategory>
                        <effecttype>audiopan</effecttype>
                        <mediatype>audio</mediatype>
                        <parameter>
                          <name>Pan</name>
                          <parameterid>pan</parameterid>
                          <valuemin>-1</valuemin>
                          <valuemax>1</valuemax>
                          <value>-1</value>
                        </parameter>
                      </effect>
                    </filter>
                    <sourcetrack>
                      <mediatype>audio</mediatype>
                      <trackindex>1</trackindex>
                    </sourcetrack>
                    <link>
                      <linkclipref>clipv-7</linkclipref>
                      <mediatype>video</mediatype>
                      <trackindex>1</trackindex>
                    </link>
                    <link>
                      <linkclipref>clipa1-7</linkclipref>
                      <mediatype>audio</mediatype>
                      <trackindex>1</trackindex>
                      <groupindex>1</groupindex>
                    </link>
                    <link>
                      <linkclipref>clipa2-7</linkclipref>
                      <mediatype>audio</mediatype>
                      <trackindex>2</trackindex>
                      <groupindex>1</groupindex>
                    </link>
                  </clipitem>
                </track>
                <track>
                  <clipitem id="clipa2-7">
                    <rate>
                      <ntsc>false</ntsc>
                      <timebase>25</timebase>
                    </rate>
                    <name>2024-07-15_CASINO_NONAME_PGM.mxf</name>
                    <file id="src-7"/>
                    <filter>
                      <effect>
                        <name>Audio Pan</name>
                        <effectid>audiopan</effectid>
                        <effectcategory>audiopan</effectcategory>
                        <effecttype>audiopan</effecttype>
                        <mediatype>audio</mediatype>
                        <parameter>
                          <name>Pan</name>
                          <parameterid>pan</parameterid>
                          <valuemin>-1</valuemin>
                          <valuemax>1</valuemax>
                          <value>1</value>
                        </parameter>
                      </effect>
                    </filter>
                    <sourcetrack>
                      <mediatype>audio</mediatype>
                      <trackindex>2</trackindex>
                    </sourcetrack>
                    <link>
                      <linkclipref>clipv-7</linkclipref>
                      <mediatype>video</mediatype>
                      <trackindex>1</trackindex>
                    </link>
                    <link>
                      <linkclipref>clipa1-7</linkclipref>
                      <mediatype>audio</mediatype>
                      <trackindex>1</trackindex>
                      <groupindex>1</groupindex>
                    </link>
                    <link>
                      <linkclipref>clipa2-7</linkclipref>
                      <mediatype>audio</mediatype>
                      <trackindex>2</trackindex>
                      <groupindex>1</groupindex>
                    </link>
                  </clipitem>
                </track>
              </audio>
            </media>
          </clip>
        </children>
      </bin>
      <bin>
        <name>Bin</name>
        <children>
          <clip id="clip-master">
            <duration>82856</duration>
            <rate>
              <ntsc>false</ntsc>
              <timebase>25</timebase>
            </rate>
            <anamorphic>false</anamorphic>
            <ismasterclip>true</ismasterclip>
            <media>
              <video>
                <track>
                  <enabled>true</enabled>
                  <locked>false</locked>
                  <clipitem id="clip-multi">
                    <duration>82856</duration>
                    <rate>
                      <ntsc>false</ntsc>
                      <timebase>25</timebase>
                    </rate>
                    <name>Multiclip</name>
                    <sourcetrack>
                      <mediatype>video</mediatype>
                      <trackindex>1</trackindex>
                    </sourcetrack>
                    <anamorphic>false</anamorphic>
                    <multiclip id="multiclip-bin">
                      <name>MultiClip</name>
                      <collapsed>false</collapsed>
                      <masterclipid>clip-master</masterclipid>
                      <angle>
                        <clip id="clip-1"/>
                      </angle>
                      <angle>
                        <clip id="clip-2"/>
                      </angle>
                      <angle>
                        <clip id="clip-3"/>
                      </angle>
                      <angle>
                        <clip id="clip-4"/>
                      </angle>
                      <angle>
                        <clip id="clip-5"/>
                      </angle>
                      <angle>
                        <clip id="clip-6"/>
                      </angle>
                      <angle>
                        <clip id="clip-7"/>
                      </angle>
                    </multiclip>
                  </clipitem>
                </track>
              </video>
              <audio>
                <track>
                  <clipitem id="clipa1-multi">
                    <name>Multiclip</name>
                    <file id="src-1"/>
                    <sourcetrack>
                      <mediatype>audio</mediatype>
                      <trackindex>1</trackindex>
                    </sourcetrack>
                    <link>
                      <linkclipref>clip-multi</linkclipref>
                      <mediatype>video</mediatype>
                      <trackindex>1</trackindex>
                    </link>
                    <link>
                      <linkclipref>clipa1-multi</linkclipref>
                      <mediatype>audio</mediatype>
                      <trackindex>1</trackindex>
                      <groupindex>1</groupindex>
                    </link>
                    <link>
                      <linkclipref>clipa2-multi</linkclipref>
                      <mediatype>audio</mediatype>
                      <trackindex>2</trackindex>
                      <groupindex>1</groupindex>
                    </link>
                    <multiclip id="multiclip-bin"/>
                  </clipitem>
                </track>
                <track>
                  <clipitem id="clipa2-multi">
                    <name>Multiclip</name>
                    <file id="src-1"/>
                    <sourcetrack>
                      <mediatype>audio</mediatype>
                      <trackindex>2</trackindex>
                    </sourcetrack>
                    <link>
                      <linkclipref>clip-multi</linkclipref>
                      <mediatype>video</mediatype>
                      <trackindex>1</trackindex>
                    </link>
                    <link>
                      <linkclipref>clipa1-multi</linkclipref>
                      <mediatype>audio</mediatype>
                      <trackindex>1</trackindex>
                      <groupindex>1</groupindex>
                    </link>
                    <link>
                      <linkclipref>clipa2-multi</linkclipref>
                      <mediatype>audio</mediatype>
                      <trackindex>2</trackindex>
                      <groupindex>1</groupindex>
                    </link>
                    <multiclip id="multiclip-bin"/>
                  </clipitem>
                </track>
              </audio>
            </media>
          </clip>
        </children>
      </bin>
      <sequence>
        <name>Sequence</name>
        <duration>82856</duration>
        <rate>
          <ntsc>false</ntsc>
          <timebase>25</timebase>
        </rate>
        <timecode>
          <string>08:32:39:18</string>
          <frame>768993</frame>
        </timecode>
        <media>
          <video>
            <format>
              <samplecharacteristics>
                <width>3840</width>
                <height>2160</height>
                <anamorphic>false</anamorphic>
                <pixelaspectratio>square</pixelaspectratio>
                <rate>
                  <ntsc>false</ntsc>
                  <timebase>25</timebase>
                </rate>
              </samplecharacteristics>
            </format>
            <track>
              <clipitem id="cs-22">
                <duration>180</duration>
                <rate>
                  <ntsc>false</ntsc>
                  <timebase>25</timebase>
                </rate>
                <in>0</in>
                <out>179</out>
                <start>0</start>
                <end>179</end>
                <file id="src-3"/>
                <sourcetrack>
                  <mediatype>video</mediatype>
                  <trackindex>1</trackindex>
                </sourcetrack>
                <multiclip id="mcs-22">
                  <name>MCS-22</name>
                  <masterclipid>clip-master</masterclipid>
                  <collapsed>false</collapsed>
                  <angle>
                    <activevideoangle>false</activevideoangle>
                    <activeaudioangle>false</activeaudioangle>
                    <clip id="clip-1"/>
                  </angle>
                  <angle>
                    <activevideoangle>false</activevideoangle>
                    <activeaudioangle>false</activeaudioangle>
                    <clip id="clip-2"/>
                  </angle>
                  <angle>
                    <activevideoangle>true</activevideoangle>
                    <activeaudioangle>true</activeaudioangle>
                    <clip id="clip-3"/>
                  </angle>
                  <angle>
                    <activevideoangle>false</activevideoangle>
                    <activeaudioangle>false</activeaudioangle>
                    <clip id="clip-4"/>
                  </angle>
                  <angle>
                    <activevideoangle>false</activevideoangle>
                    <activeaudioangle>false</activeaudioangle>
                    <clip id="clip-5"/>
                  </angle>
                  <angle>
                    <activevideoangle>false</activevideoangle>
                    <activeaudioangle>false</activeaudioangle>
                    <clip id="clip-6"/>
                  </angle>
                  <angle>
                    <activevideoangle>false</activevideoangle>
                    <activeaudioangle>false</activeaudioangle>
                    <clip id="clip-7"/>
                  </angle>
                  <masterclipid>clip-master</masterclipid>
                </multiclip>
              </clipitem>
              <clipitem id="cs-23">
                <duration>90</duration>
                <rate>
                  <ntsc>false</ntsc>
                  <timebase>25</timebase>
                </rate>
                <in>179</in>
                <out>268</out>
                <start>179</start>
                <end>268</end>
                <file id="src-6"/>
                <sourcetrack>
                  <mediatype>video</mediatype>
                  <trackindex>1</trackindex>
                </sourcetrack>
                <multiclip id="mcs-23">
                  <name>MCS-23</name>
                  <masterclipid>clip-master</masterclipid>
                  <collapsed>false</collapsed>
                  <angle>
                    <activevideoangle>false</activevideoangle>
                    <activeaudioangle>false</activeaudioangle>
                    <clip id="clip-1"/>
                  </angle>
                  <angle>
                    <activevideoangle>false</activevideoangle>
                    <activeaudioangle>false</activeaudioangle>
                    <clip id="clip-2"/>
                  </angle>
                  <angle>
                    <activevideoangle>false</activevideoangle>
                    <activeaudioangle>false</activeaudioangle>
                    <clip id="clip-3"/>
                  </angle>
                  <angle>
                    <activevideoangle>false</activevideoangle>
                    <activeaudioangle>false</activeaudioangle>
                    <clip id="clip-4"/>
                  </angle>
                  <angle>
                    <activevideoangle>false</activevideoangle>
                    <activeaudioangle>false</activeaudioangle>
                    <clip id="clip-5"/>
                  </angle>
                  <angle>
                    <activevideoangle>true</activevideoangle>
                    <activeaudioangle>true</activeaudioangle>
                    <clip id="clip-6"/>
                  </angle>
                  <angle>
                    <activevideoangle>false</activevideoangle>
                    <activeaudioangle>false</activeaudioangle>
                    <clip id="clip-7"/>
                  </angle>
                  <masterclipid>clip-master</masterclipid>
                </multiclip>
              </clipitem>
              <clipitem id="cs-24">
                <duration>71</duration>
                <rate>
                  <ntsc>false</ntsc>
                  <timebase>25</timebase>
                </rate>
                <in>268</in>
                <out>338</out>
                <start>268</start>
                <end>338</end>
                <file id="src-4"/>
                <sourcetrack>
                  <mediatype>video</mediatype>
                  <trackindex>1</trackindex>
                </sourcetrack>
                <multiclip id="mcs-24">
                  <name>MCS-24</name>
                  <masterclipid>clip-master</masterclipid>
                  <collapsed>false</collapsed>
                  <angle>
                    <activevideoangle>false</activevideoangle>
                    <activeaudioangle>false</activeaudioangle>
                    <clip id="clip-1"/>
                  </angle>
                  <angle>
                    <activevideoangle>false</activevideoangle>
                    <activeaudioangle>false</activeaudioangle>
                    <clip id="clip-2"/>
                  </angle>
                  <angle>
                    <activevideoangle>false</activevideoangle>
                    <activeaudioangle>false</activeaudioangle>
                    <clip id="clip-3"/>
                  </angle>
                  <angle>
                    <activevideoangle>true</activevideoangle>
                    <activeaudioangle>true</activeaudioangle>
                    <clip id="clip-4"/>
                  </angle>
                  <angle>
                    <activevideoangle>false</activevideoangle>
                    <activeaudioangle>false</activeaudioangle>
                    <clip id="clip-5"/>
                  </angle>
                  <angle>
                    <activevideoangle>false</activevideoangle>
                    <activeaudioangle>false</activeaudioangle>
                    <clip id="clip-6"/>
                  </angle>
                  <angle>
                    <activevideoangle>false</activevideoangle>
                    <activeaudioangle>false</activeaudioangle>
                    <clip id="clip-7"/>
                  </angle>
                  <masterclipid>clip-master</masterclipid>
                </multiclip>
              </clipitem>
              <clipitem id="cs-25">
                <duration>118</duration>
                <rate>
                  <ntsc>false</ntsc>
                  <timebase>25</timebase>
                </rate>
                <in>338</in>
                <out>455</out>
                <start>338</start>
                <end>455</end>
                <file id="src-1"/>
                <sourcetrack>
                  <mediatype>video</mediatype>
                  <trackindex>1</trackindex>
                </sourcetrack>
                <multiclip id="mcs-25">
                  <name>MCS-25</name>
                  <masterclipid>clip-master</masterclipid>
                  <collapsed>false</collapsed>
                  <angle>
                    <activevideoangle>true</activevideoangle>
                    <activeaudioangle>true</activeaudioangle>
                    <clip id="clip-1"/>
                  </angle>
                  <angle>
                    <activevideoangle>false</activevideoangle>
                    <activeaudioangle>false</activeaudioangle>
                    <clip id="clip-2"/>
                  </angle>
                  <angle>
                    <activevideoangle>false</activevideoangle>
                    <activeaudioangle>false</activeaudioangle>
                    <clip id="clip-3"/>
                  </angle>
                  <angle>
                    <activevideoangle>false</activevideoangle>
                    <activeaudioangle>false</activeaudioangle>
                    <clip id="clip-4"/>
                  </angle>
                  <angle>
                    <activevideoangle>false</activevideoangle>
                    <activeaudioangle>false</activeaudioangle>
                    <clip id="clip-5"/>
                  </angle>
                  <angle>
                    <activevideoangle>false</activevideoangle>
                    <activeaudioangle>false</activeaudioangle>
                    <clip id="clip-6"/>
                  </angle>
                  <angle>
                    <activevideoangle>false</activevideoangle>
                    <activeaudioangle>false</activeaudioangle>
                    <clip id="clip-7"/>
                  </angle>
                  <masterclipid>clip-master</masterclipid>
                </multiclip>
              </clipitem>
              <clipitem id="cs-26">
                <duration>116</duration>
                <rate>
                  <ntsc>false</ntsc>
                  <timebase>25</timebase>
                </rate>
                <in>455</in>
                <out>570</out>
                <start>455</start>
                <end>570</end>
                <file id="src-2"/>
                <sourcetrack>
                  <mediatype>video</mediatype>
                  <trackindex>1</trackindex>
                </sourcetrack>
                <multiclip id="mcs-26">
                  <name>MCS-26</name>
                  <masterclipid>clip-master</masterclipid>
                  <collapsed>false</collapsed>
                  <angle>
                    <activevideoangle>false</activevideoangle>
                    <activeaudioangle>false</activeaudioangle>
                    <clip id="clip-1"/>
                  </angle>
                  <angle>
                    <activevideoangle>true</activevideoangle>
                    <activeaudioangle>true</activeaudioangle>
                    <clip id="clip-2"/>
                  </angle>
                  <angle>
                    <activevideoangle>false</activevideoangle>
                    <activeaudioangle>false</activeaudioangle>
                    <clip id="clip-3"/>
                  </angle>
                  <angle>
                    <activevideoangle>false</activevideoangle>
                    <activeaudioangle>false</activeaudioangle>
                    <clip id="clip-4"/>
                  </angle>
                  <angle>
                    <activevideoangle>false</activevideoangle>
                    <activeaudioangle>false</activeaudioangle>
                    <clip id="clip-5"/>
                  </angle>
                  <angle>
                    <activevideoangle>false</activevideoangle>
                    <activeaudioangle>false</activeaudioangle>
                    <clip id="clip-6"/>
                  </angle>
                  <angle>
                    <activevideoangle>false</activevideoangle>
                    <activeaudioangle>false</activeaudioangle>
                    <clip id="clip-7"/>
                  </angle>
                  <masterclipid>clip-master</masterclipid>
                </multiclip>
              </clipitem>
              <clipitem id="cs-27">
                <duration>80</duration>
                <rate>
                  <ntsc>false</ntsc>
                  <timebase>25</timebase>
                </rate>
                <in>570</in>
                <out>649</out>
                <start>570</start>
                <end>649</end>
                <file id="src-3"/>
                <sourcetrack>
                  <mediatype>video</mediatype>
                  <trackindex>1</trackindex>
                </sourcetrack>
                <multiclip id="mcs-27">
                  <name>MCS-27</name>
                  <masterclipid>clip-master</masterclipid>
                  <collapsed>false</collapsed>
                  <angle>
                    <activevideoangle>false</activevideoangle>
                    <activeaudioangle>false</activeaudioangle>
                    <clip id="clip-1"/>
                  </angle>
                  <angle>
                    <activevideoangle>false</activevideoangle>
                    <activeaudioangle>false</activeaudioangle>
                    <clip id="clip-2"/>
                  </angle>
                  <angle>
                    <activevideoangle>true</activevideoangle>
                    <activeaudioangle>true</activeaudioangle>
                    <clip id="clip-3"/>
                  </angle>
                  <angle>
                    <activevideoangle>false</activevideoangle>
                    <activeaudioangle>false</activeaudioangle>
                    <clip id="clip-4"/>
                  </angle>
                  <angle>
                    <activevideoangle>false</activevideoangle>
                    <activeaudioangle>false</activeaudioangle>
                    <clip id="clip-5"/>
                  </angle>
                  <angle>
                    <activevideoangle>false</activevideoangle>
                    <activeaudioangle>false</activeaudioangle>
                    <clip id="clip-6"/>
                  </angle>
                  <angle>
                    <activevideoangle>false</activevideoangle>
                    <activeaudioangle>false</activeaudioangle>
                    <clip id="clip-7"/>
                  </angle>
                  <masterclipid>clip-master</masterclipid>
                </multiclip>
              </clipitem>
              <clipitem id="cs-28">
                <duration>66</duration>
                <rate>
                  <ntsc>false</ntsc>
                  <timebase>25</timebase>
                </rate>
                <in>649</in>
                <out>714</out>
                <start>649</start>
                <end>714</end>
                <file id="src-4"/>
                <sourcetrack>
                  <mediatype>video</mediatype>
                  <trackindex>1</trackindex>
                </sourcetrack>
                <multiclip id="mcs-28">
                  <name>MCS-28</name>
                  <masterclipid>clip-master</masterclipid>
                  <collapsed>false</collapsed>
                  <angle>
                    <activevideoangle>false</activevideoangle>
                    <activeaudioangle>false</activeaudioangle>
                    <clip id="clip-1"/>
                  </angle>
                  <angle>
                    <activevideoangle>false</activevideoangle>
                    <activeaudioangle>false</activeaudioangle>
                    <clip id="clip-2"/>
                  </angle>
                  <angle>
                    <activevideoangle>false</activevideoangle>
                    <activeaudioangle>false</activeaudioangle>
                    <clip id="clip-3"/>
                  </angle>
                  <angle>
                    <activevideoangle>true</activevideoangle>
                    <activeaudioangle>true</activeaudioangle>
                    <clip id="clip-4"/>
                  </angle>
                  <angle>
                    <activevideoangle>false</activevideoangle>
                    <activeaudioangle>false</activeaudioangle>
                    <clip id="clip-5"/>
                  </angle>
                  <angle>
                    <activevideoangle>false</activevideoangle>
                    <activeaudioangle>false</activeaudioangle>
                    <clip id="clip-6"/>
                  </angle>
                  <angle>
                    <activevideoangle>false</activevideoangle>
                    <activeaudioangle>false</activeaudioangle>
                    <clip id="clip-7"/>
                  </angle>
                  <masterclipid>clip-master</masterclipid>
                </multiclip>
              </clipitem>
              <clipitem id="cs-29">
                <duration>100</duration>
                <rate>
                  <ntsc>false</ntsc>
                  <timebase>25</timebase>
                </rate>
                <in>714</in>
                <out>813</out>
                <start>714</start>
                <end>813</end>
                <file id="src-2"/>
                <sourcetrack>
                  <mediatype>video</mediatype>
                  <trackindex>1</trackindex>
                </sourcetrack>
                <multiclip id="mcs-29">
                  <name>MCS-29</name>
                  <masterclipid>clip-master</masterclipid>
                  <collapsed>false</collapsed>
                  <angle>
                    <activevideoangle>false</activevideoangle>
                    <activeaudioangle>false</activeaudioangle>
                    <clip id="clip-1"/>
                  </angle>
                  <angle>
                    <activevideoangle>true</activevideoangle>
                    <activeaudioangle>true</activeaudioangle>
                    <clip id="clip-2"/>
                  </angle>
                  <angle>
                    <activevideoangle>false</activevideoangle>
                    <activeaudioangle>false</activeaudioangle>
                    <clip id="clip-3"/>
                  </angle>
                  <angle>
                    <activevideoangle>false</activevideoangle>
                    <activeaudioangle>false</activeaudioangle>
                    <clip id="clip-4"/>
                  </angle>
                  <angle>
                    <activevideoangle>false</activevideoangle>
                    <activeaudioangle>false</activeaudioangle>
                    <clip id="clip-5"/>
                  </angle>
                  <angle>
                    <activevideoangle>false</activevideoangle>
                    <activeaudioangle>false</activeaudioangle>
                    <clip id="clip-6"/>
                  </angle>
                  <angle>
                    <activevideoangle>false</activevideoangle>
                    <activeaudioangle>false</activeaudioangle>
                    <clip id="clip-7"/>
                  </angle>
                  <masterclipid>clip-master</masterclipid>
                </multiclip>
              </clipitem>
              <clipitem id="cs-30">
                <duration>123</duration>
                <rate>
                  <ntsc>false</ntsc>
                  <timebase>25</timebase>
                </rate>
                <in>813</in>
                <out>935</out>
                <start>813</start>
                <end>935</end>
                <file id="src-3"/>
                <sourcetrack>
                  <mediatype>video</mediatype>
                  <trackindex>1</trackindex>
                </sourcetrack>
                <multiclip id="mcs-30">
                  <name>MCS-30</name>
                  <masterclipid>clip-master</masterclipid>
                  <collapsed>false</collapsed>
                  <angle>
                    <activevideoangle>false</activevideoangle>
                    <activeaudioangle>false</activeaudioangle>
                    <clip id="clip-1"/>
                  </angle>
                  <angle>
                    <activevideoangle>false</activevideoangle>
                    <activeaudioangle>false</activeaudioangle>
                    <clip id="clip-2"/>
                  </angle>
                  <angle>
                    <activevideoangle>true</activevideoangle>
                    <activeaudioangle>true</activeaudioangle>
                    <clip id="clip-3"/>
                  </angle>
                  <angle>
                    <activevideoangle>false</activevideoangle>
                    <activeaudioangle>false</activeaudioangle>
                    <clip id="clip-4"/>
                  </angle>
                  <angle>
                    <activevideoangle>false</activevideoangle>
                    <activeaudioangle>false</activeaudioangle>
                    <clip id="clip-5"/>
                  </angle>
                  <angle>
                    <activevideoangle>false</activevideoangle>
                    <activeaudioangle>false</activeaudioangle>
                    <clip id="clip-6"/>
                  </angle>
                  <angle>
                    <activevideoangle>false</activevideoangle>
                    <activeaudioangle>false</activeaudioangle>
                    <clip id="clip-7"/>
                  </angle>
                  <masterclipid>clip-master</masterclipid>
                </multiclip>
              </clipitem>
              <clipitem id="cs-31">
                <duration>64</duration>
                <rate>
                  <ntsc>false</ntsc>
                  <timebase>25</timebase>
                </rate>
                <in>935</in>
                <out>998</out>
                <start>935</start>
                <end>998</end>
                <file id="src-4"/>
                <sourcetrack>
                  <mediatype>video</mediatype>
                  <trackindex>1</trackindex>
                </sourcetrack>
                <multiclip id="mcs-31">
                  <name>MCS-31</name>
                  <masterclipid>clip-master</masterclipid>
                  <collapsed>false</collapsed>
                  <angle>
                    <activevideoangle>false</activevideoangle>
                    <activeaudioangle>false</activeaudioangle>
                    <clip id="clip-1"/>
                  </angle>
                  <angle>
                    <activevideoangle>false</activevideoangle>
                    <activeaudioangle>false</activeaudioangle>
                    <clip id="clip-2"/>
                  </angle>
                  <angle>
                    <activevideoangle>false</activevideoangle>
                    <activeaudioangle>false</activeaudioangle>
                    <clip id="clip-3"/>
                  </angle>
                  <angle>
                    <activevideoangle>true</activevideoangle>
                    <activeaudioangle>true</activeaudioangle>
                    <clip id="clip-4"/>
                  </angle>
                  <angle>
                    <activevideoangle>false</activevideoangle>
                    <activeaudioangle>false</activeaudioangle>
                    <clip id="clip-5"/>
                  </angle>
                  <angle>
                    <activevideoangle>false</activevideoangle>
                    <activeaudioangle>false</activeaudioangle>
                    <clip id="clip-6"/>
                  </angle>
                  <angle>
                    <activevideoangle>false</activevideoangle>
                    <activeaudioangle>false</activeaudioangle>
                    <clip id="clip-7"/>
                  </angle>
                  <masterclipid>clip-master</masterclipid>
                </multiclip>
              </clipitem>
              <clipitem id="cs-32">
                <duration>59</duration>
                <rate>
                  <ntsc>false</ntsc>
                  <timebase>25</timebase>
                </rate>
                <in>998</in>
                <out>1056</out>
                <start>998</start>
                <end>1056</end>
                <file id="src-3"/>
                <sourcetrack>
                  <mediatype>video</mediatype>
                  <trackindex>1</trackindex>
                </sourcetrack>
                <multiclip id="mcs-32">
                  <name>MCS-32</name>
                  <masterclipid>clip-master</masterclipid>
                  <collapsed>false</collapsed>
                  <angle>
                    <activevideoangle>false</activevideoangle>
                    <activeaudioangle>false</activeaudioangle>
                    <clip id="clip-1"/>
                  </angle>
                  <angle>
                    <activevideoangle>false</activevideoangle>
                    <activeaudioangle>false</activeaudioangle>
                    <clip id="clip-2"/>
                  </angle>
                  <angle>
                    <activevideoangle>true</activevideoangle>
                    <activeaudioangle>true</activeaudioangle>
                    <clip id="clip-3"/>
                  </angle>
                  <angle>
                    <activevideoangle>false</activevideoangle>
                    <activeaudioangle>false</activeaudioangle>
                    <clip id="clip-4"/>
                  </angle>
                  <angle>
                    <activevideoangle>false</activevideoangle>
                    <activeaudioangle>false</activeaudioangle>
                    <clip id="clip-5"/>
                  </angle>
                  <angle>
                    <activevideoangle>false</activevideoangle>
                    <activeaudioangle>false</activeaudioangle>
                    <clip id="clip-6"/>
                  </angle>
                  <angle>
                    <activevideoangle>false</activevideoangle>
                    <activeaudioangle>false</activeaudioangle>
                    <clip id="clip-7"/>
                  </angle>
                  <masterclipid>clip-master</masterclipid>
                </multiclip>
              </clipitem>
              <clipitem id="cs-33">
                <duration>20</duration>
                <rate>
                  <ntsc>false</ntsc>
                  <timebase>25</timebase>
                </rate>
                <in>1056</in>
                <out>1075</out>
                <start>1056</start>
                <end>1075</end>
                <file id="src-2"/>
                <sourcetrack>
                  <mediatype>video</mediatype>
                  <trackindex>1</trackindex>
                </sourcetrack>
                <multiclip id="mcs-33">
                  <name>MCS-33</name>
                  <masterclipid>clip-master</masterclipid>
                  <collapsed>false</collapsed>
                  <angle>
                    <activevideoangle>false</activevideoangle>
                    <activeaudioangle>false</activeaudioangle>
                    <clip id="clip-1"/>
                  </angle>
                  <angle>
                    <activevideoangle>true</activevideoangle>
                    <activeaudioangle>true</activeaudioangle>
                    <clip id="clip-2"/>
                  </angle>
                  <angle>
                    <activevideoangle>false</activevideoangle>
                    <activeaudioangle>false</activeaudioangle>
                    <clip id="clip-3"/>
                  </angle>
                  <angle>
                    <activevideoangle>false</activevideoangle>
                    <activeaudioangle>false</activeaudioangle>
                    <clip id="clip-4"/>
                  </angle>
                  <angle>
                    <activevideoangle>false</activevideoangle>
                    <activeaudioangle>false</activeaudioangle>
                    <clip id="clip-5"/>
                  </angle>
                  <angle>
                    <activevideoangle>false</activevideoangle>
                    <activeaudioangle>false</activeaudioangle>
                    <clip id="clip-6"/>
                  </angle>
                  <angle>
                    <activevideoangle>false</activevideoangle>
                    <activeaudioangle>false</activeaudioangle>
                    <clip id="clip-7"/>
                  </angle>
                  <masterclipid>clip-master</masterclipid>
                </multiclip>
              </clipitem>
              <clipitem id="cs-34">
                <duration>53</duration>
                <rate>
                  <ntsc>false</ntsc>
                  <timebase>25</timebase>
                </rate>
                <in>1075</in>
                <out>1127</out>
                <start>1075</start>
                <end>1127</end>
                <file id="src-6"/>
                <sourcetrack>
                  <mediatype>video</mediatype>
                  <trackindex>1</trackindex>
                </sourcetrack>
                <multiclip id="mcs-34">
                  <name>MCS-34</name>
                  <masterclipid>clip-master</masterclipid>
                  <collapsed>false</collapsed>
                  <angle>
                    <activevideoangle>false</activevideoangle>
                    <activeaudioangle>false</activeaudioangle>
                    <clip id="clip-1"/>
                  </angle>
                  <angle>
                    <activevideoangle>false</activevideoangle>
                    <activeaudioangle>false</activeaudioangle>
                    <clip id="clip-2"/>
                  </angle>
                  <angle>
                    <activevideoangle>false</activevideoangle>
                    <activeaudioangle>false</activeaudioangle>
                    <clip id="clip-3"/>
                  </angle>
                  <angle>
                    <activevideoangle>false</activevideoangle>
                    <activeaudioangle>false</activeaudioangle>
                    <clip id="clip-4"/>
                  </angle>
                  <angle>
                    <activevideoangle>false</activevideoangle>
                    <activeaudioangle>false</activeaudioangle>
                    <clip id="clip-5"/>
                  </angle>
                  <angle>
                    <activevideoangle>true</activevideoangle>
                    <activeaudioangle>true</activeaudioangle>
                    <clip id="clip-6"/>
                  </angle>
                  <angle>
                    <activevideoangle>false</activevideoangle>
                    <activeaudioangle>false</activeaudioangle>
                    <clip id="clip-7"/>
                  </angle>
                  <masterclipid>clip-master</masterclipid>
                </multiclip>
              </clipitem>
              <clipitem id="cs-35">
                <duration>95</duration>
                <rate>
                  <ntsc>false</ntsc>
                  <timebase>25</timebase>
                </rate>
                <in>1127</in>
                <out>1221</out>
                <start>1127</start>
                <end>1221</end>
                <file id="src-3"/>
                <sourcetrack>
                  <mediatype>video</mediatype>
                  <trackindex>1</trackindex>
                </sourcetrack>
                <multiclip id="mcs-35">
                  <name>MCS-35</name>
                  <masterclipid>clip-master</masterclipid>
                  <collapsed>false</collapsed>
                  <angle>
                    <activevideoangle>false</activevideoangle>
                    <activeaudioangle>false</activeaudioangle>
                    <clip id="clip-1"/>
                  </angle>
                  <angle>
                    <activevideoangle>false</activevideoangle>
                    <activeaudioangle>false</activeaudioangle>
                    <clip id="clip-2"/>
                  </angle>
                  <angle>
                    <activevideoangle>true</activevideoangle>
                    <activeaudioangle>true</activeaudioangle>
                    <clip id="clip-3"/>
                  </angle>
                  <angle>
                    <activevideoangle>false</activevideoangle>
                    <activeaudioangle>false</activeaudioangle>
                    <clip id="clip-4"/>
                  </angle>
                  <angle>
                    <activevideoangle>false</activevideoangle>
                    <activeaudioangle>false</activeaudioangle>
                    <clip id="clip-5"/>
                  </angle>
                  <angle>
                    <activevideoangle>false</activevideoangle>
                    <activeaudioangle>false</activeaudioangle>
                    <clip id="clip-6"/>
                  </angle>
                  <angle>
                    <activevideoangle>false</activevideoangle>
                    <activeaudioangle>false</activeaudioangle>
                    <clip id="clip-7"/>
                  </angle>
                  <masterclipid>clip-master</masterclipid>
                </multiclip>
              </clipitem>
              <clipitem id="cs-36">
                <duration>74</duration>
                <rate>
                  <ntsc>false</ntsc>
                  <timebase>25</timebase>
                </rate>
                <in>1221</in>
                <out>1294</out>
                <start>1221</start>
                <end>1294</end>
                <file id="src-4"/>
                <sourcetrack>
                  <mediatype>video</mediatype>
                  <trackindex>1</trackindex>
                </sourcetrack>
                <multiclip id="mcs-36">
                  <name>MCS-36</name>
                  <masterclipid>clip-master</masterclipid>
                  <collapsed>false</collapsed>
                  <angle>
                    <activevideoangle>false</activevideoangle>
                    <activeaudioangle>false</activeaudioangle>
                    <clip id="clip-1"/>
                  </angle>
                  <angle>
                    <activevideoangle>false</activevideoangle>
                    <activeaudioangle>false</activeaudioangle>
                    <clip id="clip-2"/>
                  </angle>
                  <angle>
                    <activevideoangle>false</activevideoangle>
                    <activeaudioangle>false</activeaudioangle>
                    <clip id="clip-3"/>
                  </angle>
                  <angle>
                    <activevideoangle>true</activevideoangle>
                    <activeaudioangle>true</activeaudioangle>
                    <clip id="clip-4"/>
                  </angle>
                  <angle>
                    <activevideoangle>false</activevideoangle>
                    <activeaudioangle>false</activeaudioangle>
                    <clip id="clip-5"/>
                  </angle>
                  <angle>
                    <activevideoangle>false</activevideoangle>
                    <activeaudioangle>false</activeaudioangle>
                    <clip id="clip-6"/>
                  </angle>
                  <angle>
                    <activevideoangle>false</activevideoangle>
                    <activeaudioangle>false</activeaudioangle>
                    <clip id="clip-7"/>
                  </angle>
                  <masterclipid>clip-master</masterclipid>
                </multiclip>
              </clipitem>
              <clipitem id="cs-37">
                <duration>48</duration>
                <rate>
                  <ntsc>false</ntsc>
                  <timebase>25</timebase>
                </rate>
                <in>1294</in>
                <out>1341</out>
                <start>1294</start>
                <end>1341</end>
                <file id="src-1"/>
                <sourcetrack>
                  <mediatype>video</mediatype>
                  <trackindex>1</trackindex>
                </sourcetrack>
                <multiclip id="mcs-37">
                  <name>MCS-37</name>
                  <masterclipid>clip-master</masterclipid>
                  <collapsed>false</collapsed>
                  <angle>
                    <activevideoangle>true</activevideoangle>
                    <activeaudioangle>true</activeaudioangle>
                    <clip id="clip-1"/>
                  </angle>
                  <angle>
                    <activevideoangle>false</activevideoangle>
                    <activeaudioangle>false</activeaudioangle>
                    <clip id="clip-2"/>
                  </angle>
                  <angle>
                    <activevideoangle>false</activevideoangle>
                    <activeaudioangle>false</activeaudioangle>
                    <clip id="clip-3"/>
                  </angle>
                  <angle>
                    <activevideoangle>false</activevideoangle>
                    <activeaudioangle>false</activeaudioangle>
                    <clip id="clip-4"/>
                  </angle>
                  <angle>
                    <activevideoangle>false</activevideoangle>
                    <activeaudioangle>false</activeaudioangle>
                    <clip id="clip-5"/>
                  </angle>
                  <angle>
                    <activevideoangle>false</activevideoangle>
                    <activeaudioangle>false</activeaudioangle>
                    <clip id="clip-6"/>
                  </angle>
                  <angle>
                    <activevideoangle>false</activevideoangle>
                    <activeaudioangle>false</activeaudioangle>
                    <clip id="clip-7"/>
                  </angle>
                  <masterclipid>clip-master</masterclipid>
                </multiclip>
              </clipitem>
              <clipitem id="cs-38">
                <duration>113</duration>
                <rate>
                  <ntsc>false</ntsc>
                  <timebase>25</timebase>
                </rate>
                <in>1341</in>
                <out>1453</out>
                <start>1341</start>
                <end>1453</end>
                <file id="src-3"/>
                <sourcetrack>
                  <mediatype>video</mediatype>
                  <trackindex>1</trackindex>
                </sourcetrack>
                <multiclip id="mcs-38">
                  <name>MCS-38</name>
                  <masterclipid>clip-master</masterclipid>
                  <collapsed>false</collapsed>
                  <angle>
                    <activevideoangle>false</activevideoangle>
                    <activeaudioangle>false</activeaudioangle>
                    <clip id="clip-1"/>
                  </angle>
                  <angle>
                    <activevideoangle>false</activevideoangle>
                    <activeaudioangle>false</activeaudioangle>
                    <clip id="clip-2"/>
                  </angle>
                  <angle>
                    <activevideoangle>true</activevideoangle>
                    <activeaudioangle>true</activeaudioangle>
                    <clip id="clip-3"/>
                  </angle>
                  <angle>
                    <activevideoangle>false</activevideoangle>
                    <activeaudioangle>false</activeaudioangle>
                    <clip id="clip-4"/>
                  </angle>
                  <angle>
                    <activevideoangle>false</activevideoangle>
                    <activeaudioangle>false</activeaudioangle>
                    <clip id="clip-5"/>
                  </angle>
                  <angle>
                    <activevideoangle>false</activevideoangle>
                    <activeaudioangle>false</activeaudioangle>
                    <clip id="clip-6"/>
                  </angle>
                  <angle>
                    <activevideoangle>false</activevideoangle>
                    <activeaudioangle>false</activeaudioangle>
                    <clip id="clip-7"/>
                  </angle>
                  <masterclipid>clip-master</masterclipid>
                </multiclip>
              </clipitem>
              <clipitem id="cs-39">
                <duration>48</duration>
                <rate>
                  <ntsc>false</ntsc>
                  <timebase>25</timebase>
                </rate>
                <in>1453</in>
                <out>1500</out>
                <start>1453</start>
                <end>1500</end>
                <file id="src-6"/>
                <sourcetrack>
                  <mediatype>video</mediatype>
                  <trackindex>1</trackindex>
                </sourcetrack>
                <multiclip id="mcs-39">
                  <name>MCS-39</name>
                  <masterclipid>clip-master</masterclipid>
                  <collapsed>false</collapsed>
                  <angle>
                    <activevideoangle>false</activevideoangle>
                    <activeaudioangle>false</activeaudioangle>
                    <clip id="clip-1"/>
                  </angle>
                  <angle>
                    <activevideoangle>false</activevideoangle>
                    <activeaudioangle>false</activeaudioangle>
                    <clip id="clip-2"/>
                  </angle>
                  <angle>
                    <activevideoangle>false</activevideoangle>
                    <activeaudioangle>false</activeaudioangle>
                    <clip id="clip-3"/>
                  </angle>
                  <angle>
                    <activevideoangle>false</activevideoangle>
                    <activeaudioangle>false</activeaudioangle>
                    <clip id="clip-4"/>
                  </angle>
                  <angle>
                    <activevideoangle>false</activevideoangle>
                    <activeaudioangle>false</activeaudioangle>
                    <clip id="clip-5"/>
                  </angle>
                  <angle>
                    <activevideoangle>true</activevideoangle>
                    <activeaudioangle>true</activeaudioangle>
                    <clip id="clip-6"/>
                  </angle>
                  <angle>
                    <activevideoangle>false</activevideoangle>
                    <activeaudioangle>false</activeaudioangle>
                    <clip id="clip-7"/>
                  </angle>
                  <masterclipid>clip-master</masterclipid>
                </multiclip>
              </clipitem>
              <clipitem id="cs-40">
                <duration>211</duration>
                <rate>
                  <ntsc>false</ntsc>
                  <timebase>25</timebase>
                </rate>
                <in>1500</in>
                <out>1710</out>
                <start>1500</start>
                <end>1710</end>
                <file id="src-2"/>
                <sourcetrack>
                  <mediatype>video</mediatype>
                  <trackindex>1</trackindex>
                </sourcetrack>
                <multiclip id="mcs-40">
                  <name>MCS-40</name>
                  <masterclipid>clip-master</masterclipid>
                  <collapsed>false</collapsed>
                  <angle>
                    <activevideoangle>false</activevideoangle>
                    <activeaudioangle>false</activeaudioangle>
                    <clip id="clip-1"/>
                  </angle>
                  <angle>
                    <activevideoangle>true</activevideoangle>
                    <activeaudioangle>true</activeaudioangle>
                    <clip id="clip-2"/>
                  </angle>
                  <angle>
                    <activevideoangle>false</activevideoangle>
                    <activeaudioangle>false</activeaudioangle>
                    <clip id="clip-3"/>
                  </angle>
                  <angle>
                    <activevideoangle>false</activevideoangle>
                    <activeaudioangle>false</activeaudioangle>
                    <clip id="clip-4"/>
                  </angle>
                  <angle>
                    <activevideoangle>false</activevideoangle>
                    <activeaudioangle>false</activeaudioangle>
                    <clip id="clip-5"/>
                  </angle>
                  <angle>
                    <activevideoangle>false</activevideoangle>
                    <activeaudioangle>false</activeaudioangle>
                    <clip id="clip-6"/>
                  </angle>
                  <angle>
                    <activevideoangle>false</activevideoangle>
                    <activeaudioangle>false</activeaudioangle>
                    <clip id="clip-7"/>
                  </angle>
                  <masterclipid>clip-master</masterclipid>
                </multiclip>
              </clipitem>
              <clipitem id="cs-41">
                <duration>75</duration>
                <rate>
                  <ntsc>false</ntsc>
                  <timebase>25</timebase>
                </rate>
                <in>1710</in>
                <out>1784</out>
                <start>1710</start>
                <end>1784</end>
                <file id="src-3"/>
                <sourcetrack>
                  <mediatype>video</mediatype>
                  <trackindex>1</trackindex>
                </sourcetrack>
                <multiclip id="mcs-41">
                  <name>MCS-41</name>
                  <masterclipid>clip-master</masterclipid>
                  <collapsed>false</collapsed>
                  <angle>
                    <activevideoangle>false</activevideoangle>
                    <activeaudioangle>false</activeaudioangle>
                    <clip id="clip-1"/>
                  </angle>
                  <angle>
                    <activevideoangle>false</activevideoangle>
                    <activeaudioangle>false</activeaudioangle>
                    <clip id="clip-2"/>
                  </angle>
                  <angle>
                    <activevideoangle>true</activevideoangle>
                    <activeaudioangle>true</activeaudioangle>
                    <clip id="clip-3"/>
                  </angle>
                  <angle>
                    <activevideoangle>false</activevideoangle>
                    <activeaudioangle>false</activeaudioangle>
                    <clip id="clip-4"/>
                  </angle>
                  <angle>
                    <activevideoangle>false</activevideoangle>
                    <activeaudioangle>false</activeaudioangle>
                    <clip id="clip-5"/>
                  </angle>
                  <angle>
                    <activevideoangle>false</activevideoangle>
                    <activeaudioangle>false</activeaudioangle>
                    <clip id="clip-6"/>
                  </angle>
                  <angle>
                    <activevideoangle>false</activevideoangle>
                    <activeaudioangle>false</activeaudioangle>
                    <clip id="clip-7"/>
                  </angle>
                  <masterclipid>clip-master</masterclipid>
                </multiclip>
              </clipitem>
              <clipitem id="cs-42">
                <duration>230</duration>
                <rate>
                  <ntsc>false</ntsc>
                  <timebase>25</timebase>
                </rate>
                <in>1784</in>
                <out>2013</out>
                <start>1784</start>
                <end>2013</end>
                <file id="src-4"/>
                <sourcetrack>
                  <mediatype>video</mediatype>
                  <trackindex>1</trackindex>
                </sourcetrack>
                <multiclip id="mcs-42">
                  <name>MCS-42</name>
                  <masterclipid>clip-master</masterclipid>
                  <collapsed>false</collapsed>
                  <angle>
                    <activevideoangle>false</activevideoangle>
                    <activeaudioangle>false</activeaudioangle>
                    <clip id="clip-1"/>
                  </angle>
                  <angle>
                    <activevideoangle>false</activevideoangle>
                    <activeaudioangle>false</activeaudioangle>
                    <clip id="clip-2"/>
                  </angle>
                  <angle>
                    <activevideoangle>false</activevideoangle>
                    <activeaudioangle>false</activeaudioangle>
                    <clip id="clip-3"/>
                  </angle>
                  <angle>
                    <activevideoangle>true</activevideoangle>
                    <activeaudioangle>true</activeaudioangle>
                    <clip id="clip-4"/>
                  </angle>
                  <angle>
                    <activevideoangle>false</activevideoangle>
                    <activeaudioangle>false</activeaudioangle>
                    <clip id="clip-5"/>
                  </angle>
                  <angle>
                    <activevideoangle>false</activevideoangle>
                    <activeaudioangle>false</activeaudioangle>
                    <clip id="clip-6"/>
                  </angle>
                  <angle>
                    <activevideoangle>false</activevideoangle>
                    <activeaudioangle>false</activeaudioangle>
                    <clip id="clip-7"/>
                  </angle>
                  <masterclipid>clip-master</masterclipid>
                </multiclip>
              </clipitem>
              <clipitem id="cs-43">
                <duration>151</duration>
                <rate>
                  <ntsc>false</ntsc>
                  <timebase>25</timebase>
                </rate>
                <in>2013</in>
                <out>2163</out>
                <start>2013</start>
                <end>2163</end>
                <file id="src-2"/>
                <sourcetrack>
                  <mediatype>video</mediatype>
                  <trackindex>1</trackindex>
                </sourcetrack>
                <multiclip id="mcs-43">
                  <name>MCS-43</name>
                  <masterclipid>clip-master</masterclipid>
                  <collapsed>false</collapsed>
                  <angle>
                    <activevideoangle>false</activevideoangle>
                    <activeaudioangle>false</activeaudioangle>
                    <clip id="clip-1"/>
                  </angle>
                  <angle>
                    <activevideoangle>true</activevideoangle>
                    <activeaudioangle>true</activeaudioangle>
                    <clip id="clip-2"/>
                  </angle>
                  <angle>
                    <activevideoangle>false</activevideoangle>
                    <activeaudioangle>false</activeaudioangle>
                    <clip id="clip-3"/>
                  </angle>
                  <angle>
                    <activevideoangle>false</activevideoangle>
                    <activeaudioangle>false</activeaudioangle>
                    <clip id="clip-4"/>
                  </angle>
                  <angle>
                    <activevideoangle>false</activevideoangle>
                    <activeaudioangle>false</activeaudioangle>
                    <clip id="clip-5"/>
                  </angle>
                  <angle>
                    <activevideoangle>false</activevideoangle>
                    <activeaudioangle>false</activeaudioangle>
                    <clip id="clip-6"/>
                  </angle>
                  <angle>
                    <activevideoangle>false</activevideoangle>
                    <activeaudioangle>false</activeaudioangle>
                    <clip id="clip-7"/>
                  </angle>
                  <masterclipid>clip-master</masterclipid>
                </multiclip>
              </clipitem>
              <clipitem id="cs-44">
                <duration>36</duration>
                <rate>
                  <ntsc>false</ntsc>
                  <timebase>25</timebase>
                </rate>
                <in>2163</in>
                <out>2198</out>
                <start>2163</start>
                <end>2198</end>
                <file id="src-3"/>
                <sourcetrack>
                  <mediatype>video</mediatype>
                  <trackindex>1</trackindex>
                </sourcetrack>
                <multiclip id="mcs-44">
                  <name>MCS-44</name>
                  <masterclipid>clip-master</masterclipid>
                  <collapsed>false</collapsed>
                  <angle>
                    <activevideoangle>false</activevideoangle>
                    <activeaudioangle>false</activeaudioangle>
                    <clip id="clip-1"/>
                  </angle>
                  <angle>
                    <activevideoangle>false</activevideoangle>
                    <activeaudioangle>false</activeaudioangle>
                    <clip id="clip-2"/>
                  </angle>
                  <angle>
                    <activevideoangle>true</activevideoangle>
                    <activeaudioangle>true</activeaudioangle>
                    <clip id="clip-3"/>
                  </angle>
                  <angle>
                    <activevideoangle>false</activevideoangle>
                    <activeaudioangle>false</activeaudioangle>
                    <clip id="clip-4"/>
                  </angle>
                  <angle>
                    <activevideoangle>false</activevideoangle>
                    <activeaudioangle>false</activeaudioangle>
                    <clip id="clip-5"/>
                  </angle>
                  <angle>
                    <activevideoangle>false</activevideoangle>
                    <activeaudioangle>false</activeaudioangle>
                    <clip id="clip-6"/>
                  </angle>
                  <angle>
                    <activevideoangle>false</activevideoangle>
                    <activeaudioangle>false</activeaudioangle>
                    <clip id="clip-7"/>
                  </angle>
                  <masterclipid>clip-master</masterclipid>
                </multiclip>
              </clipitem>
              <clipitem id="cs-45">
                <duration>143</duration>
                <rate>
                  <ntsc>false</ntsc>
                  <timebase>25</timebase>
                </rate>
                <in>2198</in>
                <out>2340</out>
                <start>2198</start>
                <end>2340</end>
                <file id="src-1"/>
                <sourcetrack>
                  <mediatype>video</mediatype>
                  <trackindex>1</trackindex>
                </sourcetrack>
                <multiclip id="mcs-45">
                  <name>MCS-45</name>
                  <masterclipid>clip-master</masterclipid>
                  <collapsed>false</collapsed>
                  <angle>
                    <activevideoangle>true</activevideoangle>
                    <activeaudioangle>true</activeaudioangle>
                    <clip id="clip-1"/>
                  </angle>
                  <angle>
                    <activevideoangle>false</activevideoangle>
                    <activeaudioangle>false</activeaudioangle>
                    <clip id="clip-2"/>
                  </angle>
                  <angle>
                    <activevideoangle>false</activevideoangle>
                    <activeaudioangle>false</activeaudioangle>
                    <clip id="clip-3"/>
                  </angle>
                  <angle>
                    <activevideoangle>false</activevideoangle>
                    <activeaudioangle>false</activeaudioangle>
                    <clip id="clip-4"/>
                  </angle>
                  <angle>
                    <activevideoangle>false</activevideoangle>
                    <activeaudioangle>false</activeaudioangle>
                    <clip id="clip-5"/>
                  </angle>
                  <angle>
                    <activevideoangle>false</activevideoangle>
                    <activeaudioangle>false</activeaudioangle>
                    <clip id="clip-6"/>
                  </angle>
                  <angle>
                    <activevideoangle>false</activevideoangle>
                    <activeaudioangle>false</activeaudioangle>
                    <clip id="clip-7"/>
                  </angle>
                  <masterclipid>clip-master</masterclipid>
                </multiclip>
              </clipitem>
              <clipitem id="cs-46">
                <duration>59</duration>
                <rate>
                  <ntsc>false</ntsc>
                  <timebase>25</timebase>
                </rate>
                <in>2340</in>
                <out>2398</out>
                <start>2340</start>
                <end>2398</end>
                <file id="src-6"/>
                <sourcetrack>
                  <mediatype>video</mediatype>
                  <trackindex>1</trackindex>
                </sourcetrack>
                <multiclip id="mcs-46">
                  <name>MCS-46</name>
                  <masterclipid>clip-master</masterclipid>
                  <collapsed>false</collapsed>
                  <angle>
                    <activevideoangle>false</activevideoangle>
                    <activeaudioangle>false</activeaudioangle>
                    <clip id="clip-1"/>
                  </angle>
                  <angle>
                    <activevideoangle>false</activevideoangle>
                    <activeaudioangle>false</activeaudioangle>
                    <clip id="clip-2"/>
                  </angle>
                  <angle>
                    <activevideoangle>false</activevideoangle>
                    <activeaudioangle>false</activeaudioangle>
                    <clip id="clip-3"/>
                  </angle>
                  <angle>
                    <activevideoangle>false</activevideoangle>
                    <activeaudioangle>false</activeaudioangle>
                    <clip id="clip-4"/>
                  </angle>
                  <angle>
                    <activevideoangle>false</activevideoangle>
                    <activeaudioangle>false</activeaudioangle>
                    <clip id="clip-5"/>
                  </angle>
                  <angle>
                    <activevideoangle>true</activevideoangle>
                    <activeaudioangle>true</activeaudioangle>
                    <clip id="clip-6"/>
                  </angle>
                  <angle>
                    <activevideoangle>false</activevideoangle>
                    <activeaudioangle>false</activeaudioangle>
                    <clip id="clip-7"/>
                  </angle>
                  <masterclipid>clip-master</masterclipid>
                </multiclip>
              </clipitem>
              <clipitem id="cs-47">
                <duration>62</duration>
                <rate>
                  <ntsc>false</ntsc>
                  <timebase>25</timebase>
                </rate>
                <in>2398</in>
                <out>2459</out>
                <start>2398</start>
                <end>2459</end>
                <file id="src-2"/>
                <sourcetrack>
                  <mediatype>video</mediatype>
                  <trackindex>1</trackindex>
                </sourcetrack>
                <multiclip id="mcs-47">
                  <name>MCS-47</name>
                  <masterclipid>clip-master</masterclipid>
                  <collapsed>false</collapsed>
                  <angle>
                    <activevideoangle>false</activevideoangle>
                    <activeaudioangle>false</activeaudioangle>
                    <clip id="clip-1"/>
                  </angle>
                  <angle>
                    <activevideoangle>true</activevideoangle>
                    <activeaudioangle>true</activeaudioangle>
                    <clip id="clip-2"/>
                  </angle>
                  <angle>
                    <activevideoangle>false</activevideoangle>
                    <activeaudioangle>false</activeaudioangle>
                    <clip id="clip-3"/>
                  </angle>
                  <angle>
                    <activevideoangle>false</activevideoangle>
                    <activeaudioangle>false</activeaudioangle>
                    <clip id="clip-4"/>
                  </angle>
                  <angle>
                    <activevideoangle>false</activevideoangle>
                    <activeaudioangle>false</activeaudioangle>
                    <clip id="clip-5"/>
                  </angle>
                  <angle>
                    <activevideoangle>false</activevideoangle>
                    <activeaudioangle>false</activeaudioangle>
                    <clip id="clip-6"/>
                  </angle>
                  <angle>
                    <activevideoangle>false</activevideoangle>
                    <activeaudioangle>false</activeaudioangle>
                    <clip id="clip-7"/>
                  </angle>
                  <masterclipid>clip-master</masterclipid>
                </multiclip>
              </clipitem>
              <clipitem id="cs-48">
                <duration>53</duration>
                <rate>
                  <ntsc>false</ntsc>
                  <timebase>25</timebase>
                </rate>
                <in>2459</in>
                <out>2511</out>
                <start>2459</start>
                <end>2511</end>
                <file id="src-3"/>
                <sourcetrack>
                  <mediatype>video</mediatype>
                  <trackindex>1</trackindex>
                </sourcetrack>
                <multiclip id="mcs-48">
                  <name>MCS-48</name>
                  <masterclipid>clip-master</masterclipid>
                  <collapsed>false</collapsed>
                  <angle>
                    <activevideoangle>false</activevideoangle>
                    <activeaudioangle>false</activeaudioangle>
                    <clip id="clip-1"/>
                  </angle>
                  <angle>
                    <activevideoangle>false</activevideoangle>
                    <activeaudioangle>false</activeaudioangle>
                    <clip id="clip-2"/>
                  </angle>
                  <angle>
                    <activevideoangle>true</activevideoangle>
                    <activeaudioangle>true</activeaudioangle>
                    <clip id="clip-3"/>
                  </angle>
                  <angle>
                    <activevideoangle>false</activevideoangle>
                    <activeaudioangle>false</activeaudioangle>
                    <clip id="clip-4"/>
                  </angle>
                  <angle>
                    <activevideoangle>false</activevideoangle>
                    <activeaudioangle>false</activeaudioangle>
                    <clip id="clip-5"/>
                  </angle>
                  <angle>
                    <activevideoangle>false</activevideoangle>
                    <activeaudioangle>false</activeaudioangle>
                    <clip id="clip-6"/>
                  </angle>
                  <angle>
                    <activevideoangle>false</activevideoangle>
                    <activeaudioangle>false</activeaudioangle>
                    <clip id="clip-7"/>
                  </angle>
                  <masterclipid>clip-master</masterclipid>
                </multiclip>
              </clipitem>
              <clipitem id="cs-49">
                <duration>75</duration>
                <rate>
                  <ntsc>false</ntsc>
                  <timebase>25</timebase>
                </rate>
                <in>2511</in>
                <out>2585</out>
                <start>2511</start>
                <end>2585</end>
                <file id="src-2"/>
                <sourcetrack>
                  <mediatype>video</mediatype>
                  <trackindex>1</trackindex>
                </sourcetrack>
                <multiclip id="mcs-49">
                  <name>MCS-49</name>
                  <masterclipid>clip-master</masterclipid>
                  <collapsed>false</collapsed>
                  <angle>
                    <activevideoangle>false</activevideoangle>
                    <activeaudioangle>false</activeaudioangle>
                    <clip id="clip-1"/>
                  </angle>
                  <angle>
                    <activevideoangle>true</activevideoangle>
                    <activeaudioangle>true</activeaudioangle>
                    <clip id="clip-2"/>
                  </angle>
                  <angle>
                    <activevideoangle>false</activevideoangle>
                    <activeaudioangle>false</activeaudioangle>
                    <clip id="clip-3"/>
                  </angle>
                  <angle>
                    <activevideoangle>false</activevideoangle>
                    <activeaudioangle>false</activeaudioangle>
                    <clip id="clip-4"/>
                  </angle>
                  <angle>
                    <activevideoangle>false</activevideoangle>
                    <activeaudioangle>false</activeaudioangle>
                    <clip id="clip-5"/>
                  </angle>
                  <angle>
                    <activevideoangle>false</activevideoangle>
                    <activeaudioangle>false</activeaudioangle>
                    <clip id="clip-6"/>
                  </angle>
                  <angle>
                    <activevideoangle>false</activevideoangle>
                    <activeaudioangle>false</activeaudioangle>
                    <clip id="clip-7"/>
                  </angle>
                  <masterclipid>clip-master</masterclipid>
                </multiclip>
              </clipitem>
              <clipitem id="cs-50">
                <duration>123</duration>
                <rate>
                  <ntsc>false</ntsc>
                  <timebase>25</timebase>
                </rate>
                <in>2585</in>
                <out>2707</out>
                <start>2585</start>
                <end>2707</end>
                <file id="src-4"/>
                <sourcetrack>
                  <mediatype>video</mediatype>
                  <trackindex>1</trackindex>
                </sourcetrack>
                <multiclip id="mcs-50">
                  <name>MCS-50</name>
                  <masterclipid>clip-master</masterclipid>
                  <collapsed>false</collapsed>
                  <angle>
                    <activevideoangle>false</activevideoangle>
                    <activeaudioangle>false</activeaudioangle>
                    <clip id="clip-1"/>
                  </angle>
                  <angle>
                    <activevideoangle>false</activevideoangle>
                    <activeaudioangle>false</activeaudioangle>
                    <clip id="clip-2"/>
                  </angle>
                  <angle>
                    <activevideoangle>false</activevideoangle>
                    <activeaudioangle>false</activeaudioangle>
                    <clip id="clip-3"/>
                  </angle>
                  <angle>
                    <activevideoangle>true</activevideoangle>
                    <activeaudioangle>true</activeaudioangle>
                    <clip id="clip-4"/>
                  </angle>
                  <angle>
                    <activevideoangle>false</activevideoangle>
                    <activeaudioangle>false</activeaudioangle>
                    <clip id="clip-5"/>
                  </angle>
                  <angle>
                    <activevideoangle>false</activevideoangle>
                    <activeaudioangle>false</activeaudioangle>
                    <clip id="clip-6"/>
                  </angle>
                  <angle>
                    <activevideoangle>false</activevideoangle>
                    <activeaudioangle>false</activeaudioangle>
                    <clip id="clip-7"/>
                  </angle>
                  <masterclipid>clip-master</masterclipid>
                </multiclip>
              </clipitem>
              <clipitem id="cs-51">
                <duration>43</duration>
                <rate>
                  <ntsc>false</ntsc>
                  <timebase>25</timebase>
                </rate>
                <in>2707</in>
                <out>2749</out>
                <start>2707</start>
                <end>2749</end>
                <file id="src-3"/>
                <sourcetrack>
                  <mediatype>video</mediatype>
                  <trackindex>1</trackindex>
                </sourcetrack>
                <multiclip id="mcs-51">
                  <name>MCS-51</name>
                  <masterclipid>clip-master</masterclipid>
                  <collapsed>false</collapsed>
                  <angle>
                    <activevideoangle>false</activevideoangle>
                    <activeaudioangle>false</activeaudioangle>
                    <clip id="clip-1"/>
                  </angle>
                  <angle>
                    <activevideoangle>false</activevideoangle>
                    <activeaudioangle>false</activeaudioangle>
                    <clip id="clip-2"/>
                  </angle>
                  <angle>
                    <activevideoangle>true</activevideoangle>
                    <activeaudioangle>true</activeaudioangle>
                    <clip id="clip-3"/>
                  </angle>
                  <angle>
                    <activevideoangle>false</activevideoangle>
                    <activeaudioangle>false</activeaudioangle>
                    <clip id="clip-4"/>
                  </angle>
                  <angle>
                    <activevideoangle>false</activevideoangle>
                    <activeaudioangle>false</activeaudioangle>
                    <clip id="clip-5"/>
                  </angle>
                  <angle>
                    <activevideoangle>false</activevideoangle>
                    <activeaudioangle>false</activeaudioangle>
                    <clip id="clip-6"/>
                  </angle>
                  <angle>
                    <activevideoangle>false</activevideoangle>
                    <activeaudioangle>false</activeaudioangle>
                    <clip id="clip-7"/>
                  </angle>
                  <masterclipid>clip-master</masterclipid>
                </multiclip>
              </clipitem>
              <clipitem id="cs-52">
                <duration>80</duration>
                <rate>
                  <ntsc>false</ntsc>
                  <timebase>25</timebase>
                </rate>
                <in>2749</in>
                <out>2828</out>
                <start>2749</start>
                <end>2828</end>
                <file id="src-2"/>
                <sourcetrack>
                  <mediatype>video</mediatype>
                  <trackindex>1</trackindex>
                </sourcetrack>
                <multiclip id="mcs-52">
                  <name>MCS-52</name>
                  <masterclipid>clip-master</masterclipid>
                  <collapsed>false</collapsed>
                  <angle>
                    <activevideoangle>false</activevideoangle>
                    <activeaudioangle>false</activeaudioangle>
                    <clip id="clip-1"/>
                  </angle>
                  <angle>
                    <activevideoangle>true</activevideoangle>
                    <activeaudioangle>true</activeaudioangle>
                    <clip id="clip-2"/>
                  </angle>
                  <angle>
                    <activevideoangle>false</activevideoangle>
                    <activeaudioangle>false</activeaudioangle>
                    <clip id="clip-3"/>
                  </angle>
                  <angle>
                    <activevideoangle>false</activevideoangle>
                    <activeaudioangle>false</activeaudioangle>
                    <clip id="clip-4"/>
                  </angle>
                  <angle>
                    <activevideoangle>false</activevideoangle>
                    <activeaudioangle>false</activeaudioangle>
                    <clip id="clip-5"/>
                  </angle>
                  <angle>
                    <activevideoangle>false</activevideoangle>
                    <activeaudioangle>false</activeaudioangle>
                    <clip id="clip-6"/>
                  </angle>
                  <angle>
                    <activevideoangle>false</activevideoangle>
                    <activeaudioangle>false</activeaudioangle>
                    <clip id="clip-7"/>
                  </angle>
                  <masterclipid>clip-master</masterclipid>
                </multiclip>
              </clipitem>
              <clipitem id="cs-53">
                <duration>64</duration>
                <rate>
                  <ntsc>false</ntsc>
                  <timebase>25</timebase>
                </rate>
                <in>2828</in>
                <out>2891</out>
                <start>2828</start>
                <end>2891</end>
                <file id="src-5"/>
                <sourcetrack>
                  <mediatype>video</mediatype>
                  <trackindex>1</trackindex>
                </sourcetrack>
                <multiclip id="mcs-53">
                  <name>MCS-53</name>
                  <masterclipid>clip-master</masterclipid>
                  <collapsed>false</collapsed>
                  <angle>
                    <activevideoangle>false</activevideoangle>
                    <activeaudioangle>false</activeaudioangle>
                    <clip id="clip-1"/>
                  </angle>
                  <angle>
                    <activevideoangle>false</activevideoangle>
                    <activeaudioangle>false</activeaudioangle>
                    <clip id="clip-2"/>
                  </angle>
                  <angle>
                    <activevideoangle>false</activevideoangle>
                    <activeaudioangle>false</activeaudioangle>
                    <clip id="clip-3"/>
                  </angle>
                  <angle>
                    <activevideoangle>false</activevideoangle>
                    <activeaudioangle>false</activeaudioangle>
                    <clip id="clip-4"/>
                  </angle>
                  <angle>
                    <activevideoangle>true</activevideoangle>
                    <activeaudioangle>true</activeaudioangle>
                    <clip id="clip-5"/>
                  </angle>
                  <angle>
                    <activevideoangle>false</activevideoangle>
                    <activeaudioangle>false</activeaudioangle>
                    <clip id="clip-6"/>
                  </angle>
                  <angle>
                    <activevideoangle>false</activevideoangle>
                    <activeaudioangle>false</activeaudioangle>
                    <clip id="clip-7"/>
                  </angle>
                  <masterclipid>clip-master</masterclipid>
                </multiclip>
              </clipitem>
              <clipitem id="cs-54">
                <duration>57</duration>
                <rate>
                  <ntsc>false</ntsc>
                  <timebase>25</timebase>
                </rate>
                <in>2891</in>
                <out>2947</out>
                <start>2891</start>
                <end>2947</end>
                <file id="src-1"/>
                <sourcetrack>
                  <mediatype>video</mediatype>
                  <trackindex>1</trackindex>
                </sourcetrack>
                <multiclip id="mcs-54">
                  <name>MCS-54</name>
                  <masterclipid>clip-master</masterclipid>
                  <collapsed>false</collapsed>
                  <angle>
                    <activevideoangle>true</activevideoangle>
                    <activeaudioangle>true</activeaudioangle>
                    <clip id="clip-1"/>
                  </angle>
                  <angle>
                    <activevideoangle>false</activevideoangle>
                    <activeaudioangle>false</activeaudioangle>
                    <clip id="clip-2"/>
                  </angle>
                  <angle>
                    <activevideoangle>false</activevideoangle>
                    <activeaudioangle>false</activeaudioangle>
                    <clip id="clip-3"/>
                  </angle>
                  <angle>
                    <activevideoangle>false</activevideoangle>
                    <activeaudioangle>false</activeaudioangle>
                    <clip id="clip-4"/>
                  </angle>
                  <angle>
                    <activevideoangle>false</activevideoangle>
                    <activeaudioangle>false</activeaudioangle>
                    <clip id="clip-5"/>
                  </angle>
                  <angle>
                    <activevideoangle>false</activevideoangle>
                    <activeaudioangle>false</activeaudioangle>
                    <clip id="clip-6"/>
                  </angle>
                  <angle>
                    <activevideoangle>false</activevideoangle>
                    <activeaudioangle>false</activeaudioangle>
                    <clip id="clip-7"/>
                  </angle>
                  <masterclipid>clip-master</masterclipid>
                </multiclip>
              </clipitem>
              <clipitem id="cs-55">
                <duration>103</duration>
                <rate>
                  <ntsc>false</ntsc>
                  <timebase>25</timebase>
                </rate>
                <in>2947</in>
                <out>3049</out>
                <start>2947</start>
                <end>3049</end>
                <file id="src-2"/>
                <sourcetrack>
                  <mediatype>video</mediatype>
                  <trackindex>1</trackindex>
                </sourcetrack>
                <multiclip id="mcs-55">
                  <name>MCS-55</name>
                  <masterclipid>clip-master</masterclipid>
                  <collapsed>false</collapsed>
                  <angle>
                    <activevideoangle>false</activevideoangle>
                    <activeaudioangle>false</activeaudioangle>
                    <clip id="clip-1"/>
                  </angle>
                  <angle>
                    <activevideoangle>true</activevideoangle>
                    <activeaudioangle>true</activeaudioangle>
                    <clip id="clip-2"/>
                  </angle>
                  <angle>
                    <activevideoangle>false</activevideoangle>
                    <activeaudioangle>false</activeaudioangle>
                    <clip id="clip-3"/>
                  </angle>
                  <angle>
                    <activevideoangle>false</activevideoangle>
                    <activeaudioangle>false</activeaudioangle>
                    <clip id="clip-4"/>
                  </angle>
                  <angle>
                    <activevideoangle>false</activevideoangle>
                    <activeaudioangle>false</activeaudioangle>
                    <clip id="clip-5"/>
                  </angle>
                  <angle>
                    <activevideoangle>false</activevideoangle>
                    <activeaudioangle>false</activeaudioangle>
                    <clip id="clip-6"/>
                  </angle>
                  <angle>
                    <activevideoangle>false</activevideoangle>
                    <activeaudioangle>false</activeaudioangle>
                    <clip id="clip-7"/>
                  </angle>
                  <masterclipid>clip-master</masterclipid>
                </multiclip>
              </clipitem>
              <clipitem id="cs-56">
                <duration>62</duration>
                <rate>
                  <ntsc>false</ntsc>
                  <timebase>25</timebase>
                </rate>
                <in>3049</in>
                <out>3110</out>
                <start>3049</start>
                <end>3110</end>
                <file id="src-3"/>
                <sourcetrack>
                  <mediatype>video</mediatype>
                  <trackindex>1</trackindex>
                </sourcetrack>
                <multiclip id="mcs-56">
                  <name>MCS-56</name>
                  <masterclipid>clip-master</masterclipid>
                  <collapsed>false</collapsed>
                  <angle>
                    <activevideoangle>false</activevideoangle>
                    <activeaudioangle>false</activeaudioangle>
                    <clip id="clip-1"/>
                  </angle>
                  <angle>
                    <activevideoangle>false</activevideoangle>
                    <activeaudioangle>false</activeaudioangle>
                    <clip id="clip-2"/>
                  </angle>
                  <angle>
                    <activevideoangle>true</activevideoangle>
                    <activeaudioangle>true</activeaudioangle>
                    <clip id="clip-3"/>
                  </angle>
                  <angle>
                    <activevideoangle>false</activevideoangle>
                    <activeaudioangle>false</activeaudioangle>
                    <clip id="clip-4"/>
                  </angle>
                  <angle>
                    <activevideoangle>false</activevideoangle>
                    <activeaudioangle>false</activeaudioangle>
                    <clip id="clip-5"/>
                  </angle>
                  <angle>
                    <activevideoangle>false</activevideoangle>
                    <activeaudioangle>false</activeaudioangle>
                    <clip id="clip-6"/>
                  </angle>
                  <angle>
                    <activevideoangle>false</activevideoangle>
                    <activeaudioangle>false</activeaudioangle>
                    <clip id="clip-7"/>
                  </angle>
                  <masterclipid>clip-master</masterclipid>
                </multiclip>
              </clipitem>
              <clipitem id="cs-57">
                <duration>139</duration>
                <rate>
                  <ntsc>false</ntsc>
                  <timebase>25</timebase>
                </rate>
                <in>3110</in>
                <out>3248</out>
                <start>3110</start>
                <end>3248</end>
                <file id="src-2"/>
                <sourcetrack>
                  <mediatype>video</mediatype>
                  <trackindex>1</trackindex>
                </sourcetrack>
                <multiclip id="mcs-57">
                  <name>MCS-57</name>
                  <masterclipid>clip-master</masterclipid>
                  <collapsed>false</collapsed>
                  <angle>
                    <activevideoangle>false</activevideoangle>
                    <activeaudioangle>false</activeaudioangle>
                    <clip id="clip-1"/>
                  </angle>
                  <angle>
                    <activevideoangle>true</activevideoangle>
                    <activeaudioangle>true</activeaudioangle>
                    <clip id="clip-2"/>
                  </angle>
                  <angle>
                    <activevideoangle>false</activevideoangle>
                    <activeaudioangle>false</activeaudioangle>
                    <clip id="clip-3"/>
                  </angle>
                  <angle>
                    <activevideoangle>false</activevideoangle>
                    <activeaudioangle>false</activeaudioangle>
                    <clip id="clip-4"/>
                  </angle>
                  <angle>
                    <activevideoangle>false</activevideoangle>
                    <activeaudioangle>false</activeaudioangle>
                    <clip id="clip-5"/>
                  </angle>
                  <angle>
                    <activevideoangle>false</activevideoangle>
                    <activeaudioangle>false</activeaudioangle>
                    <clip id="clip-6"/>
                  </angle>
                  <angle>
                    <activevideoangle>false</activevideoangle>
                    <activeaudioangle>false</activeaudioangle>
                    <clip id="clip-7"/>
                  </angle>
                  <masterclipid>clip-master</masterclipid>
                </multiclip>
              </clipitem>
              <clipitem id="cs-58">
                <duration>82</duration>
                <rate>
                  <ntsc>false</ntsc>
                  <timebase>25</timebase>
                </rate>
                <in>3248</in>
                <out>3329</out>
                <start>3248</start>
                <end>3329</end>
                <file id="src-6"/>
                <sourcetrack>
                  <mediatype>video</mediatype>
                  <trackindex>1</trackindex>
                </sourcetrack>
                <multiclip id="mcs-58">
                  <name>MCS-58</name>
                  <masterclipid>clip-master</masterclipid>
                  <collapsed>false</collapsed>
                  <angle>
                    <activevideoangle>false</activevideoangle>
                    <activeaudioangle>false</activeaudioangle>
                    <clip id="clip-1"/>
                  </angle>
                  <angle>
                    <activevideoangle>false</activevideoangle>
                    <activeaudioangle>false</activeaudioangle>
                    <clip id="clip-2"/>
                  </angle>
                  <angle>
                    <activevideoangle>false</activevideoangle>
                    <activeaudioangle>false</activeaudioangle>
                    <clip id="clip-3"/>
                  </angle>
                  <angle>
                    <activevideoangle>false</activevideoangle>
                    <activeaudioangle>false</activeaudioangle>
                    <clip id="clip-4"/>
                  </angle>
                  <angle>
                    <activevideoangle>false</activevideoangle>
                    <activeaudioangle>false</activeaudioangle>
                    <clip id="clip-5"/>
                  </angle>
                  <angle>
                    <activevideoangle>true</activevideoangle>
                    <activeaudioangle>true</activeaudioangle>
                    <clip id="clip-6"/>
                  </angle>
                  <angle>
                    <activevideoangle>false</activevideoangle>
                    <activeaudioangle>false</activeaudioangle>
                    <clip id="clip-7"/>
                  </angle>
                  <masterclipid>clip-master</masterclipid>
                </multiclip>
              </clipitem>
              <clipitem id="cs-59">
                <duration>122</duration>
                <rate>
                  <ntsc>false</ntsc>
                  <timebase>25</timebase>
                </rate>
                <in>3329</in>
                <out>3450</out>
                <start>3329</start>
                <end>3450</end>
                <file id="src-2"/>
                <sourcetrack>
                  <mediatype>video</mediatype>
                  <trackindex>1</trackindex>
                </sourcetrack>
                <multiclip id="mcs-59">
                  <name>MCS-59</name>
                  <masterclipid>clip-master</masterclipid>
                  <collapsed>false</collapsed>
                  <angle>
                    <activevideoangle>false</activevideoangle>
                    <activeaudioangle>false</activeaudioangle>
                    <clip id="clip-1"/>
                  </angle>
                  <angle>
                    <activevideoangle>true</activevideoangle>
                    <activeaudioangle>true</activeaudioangle>
                    <clip id="clip-2"/>
                  </angle>
                  <angle>
                    <activevideoangle>false</activevideoangle>
                    <activeaudioangle>false</activeaudioangle>
                    <clip id="clip-3"/>
                  </angle>
                  <angle>
                    <activevideoangle>false</activevideoangle>
                    <activeaudioangle>false</activeaudioangle>
                    <clip id="clip-4"/>
                  </angle>
                  <angle>
                    <activevideoangle>false</activevideoangle>
                    <activeaudioangle>false</activeaudioangle>
                    <clip id="clip-5"/>
                  </angle>
                  <angle>
                    <activevideoangle>false</activevideoangle>
                    <activeaudioangle>false</activeaudioangle>
                    <clip id="clip-6"/>
                  </angle>
                  <angle>
                    <activevideoangle>false</activevideoangle>
                    <activeaudioangle>false</activeaudioangle>
                    <clip id="clip-7"/>
                  </angle>
                  <masterclipid>clip-master</masterclipid>
                </multiclip>
              </clipitem>
              <clipitem id="cs-60">
                <duration>118</duration>
                <rate>
                  <ntsc>false</ntsc>
                  <timebase>25</timebase>
                </rate>
                <in>3450</in>
                <out>3567</out>
                <start>3450</start>
                <end>3567</end>
                <file id="src-1"/>
                <sourcetrack>
                  <mediatype>video</mediatype>
                  <trackindex>1</trackindex>
                </sourcetrack>
                <multiclip id="mcs-60">
                  <name>MCS-60</name>
                  <masterclipid>clip-master</masterclipid>
                  <collapsed>false</collapsed>
                  <angle>
                    <activevideoangle>true</activevideoangle>
                    <activeaudioangle>true</activeaudioangle>
                    <clip id="clip-1"/>
                  </angle>
                  <angle>
                    <activevideoangle>false</activevideoangle>
                    <activeaudioangle>false</activeaudioangle>
                    <clip id="clip-2"/>
                  </angle>
                  <angle>
                    <activevideoangle>false</activevideoangle>
                    <activeaudioangle>false</activeaudioangle>
                    <clip id="clip-3"/>
                  </angle>
                  <angle>
                    <activevideoangle>false</activevideoangle>
                    <activeaudioangle>false</activeaudioangle>
                    <clip id="clip-4"/>
                  </angle>
                  <angle>
                    <activevideoangle>false</activevideoangle>
                    <activeaudioangle>false</activeaudioangle>
                    <clip id="clip-5"/>
                  </angle>
                  <angle>
                    <activevideoangle>false</activevideoangle>
                    <activeaudioangle>false</activeaudioangle>
                    <clip id="clip-6"/>
                  </angle>
                  <angle>
                    <activevideoangle>false</activevideoangle>
                    <activeaudioangle>false</activeaudioangle>
                    <clip id="clip-7"/>
                  </angle>
                  <masterclipid>clip-master</masterclipid>
                </multiclip>
              </clipitem>
              <clipitem id="cs-61">
                <duration>162</duration>
                <rate>
                  <ntsc>false</ntsc>
                  <timebase>25</timebase>
                </rate>
                <in>3567</in>
                <out>3728</out>
                <start>3567</start>
                <end>3728</end>
                <file id="src-6"/>
                <sourcetrack>
                  <mediatype>video</mediatype>
                  <trackindex>1</trackindex>
                </sourcetrack>
                <multiclip id="mcs-61">
                  <name>MCS-61</name>
                  <masterclipid>clip-master</masterclipid>
                  <collapsed>false</collapsed>
                  <angle>
                    <activevideoangle>false</activevideoangle>
                    <activeaudioangle>false</activeaudioangle>
                    <clip id="clip-1"/>
                  </angle>
                  <angle>
                    <activevideoangle>false</activevideoangle>
                    <activeaudioangle>false</activeaudioangle>
                    <clip id="clip-2"/>
                  </angle>
                  <angle>
                    <activevideoangle>false</activevideoangle>
                    <activeaudioangle>false</activeaudioangle>
                    <clip id="clip-3"/>
                  </angle>
                  <angle>
                    <activevideoangle>false</activevideoangle>
                    <activeaudioangle>false</activeaudioangle>
                    <clip id="clip-4"/>
                  </angle>
                  <angle>
                    <activevideoangle>false</activevideoangle>
                    <activeaudioangle>false</activeaudioangle>
                    <clip id="clip-5"/>
                  </angle>
                  <angle>
                    <activevideoangle>true</activevideoangle>
                    <activeaudioangle>true</activeaudioangle>
                    <clip id="clip-6"/>
                  </angle>
                  <angle>
                    <activevideoangle>false</activevideoangle>
                    <activeaudioangle>false</activeaudioangle>
                    <clip id="clip-7"/>
                  </angle>
                  <masterclipid>clip-master</masterclipid>
                </multiclip>
              </clipitem>
              <clipitem id="cs-62">
                <duration>222</duration>
                <rate>
                  <ntsc>false</ntsc>
                  <timebase>25</timebase>
                </rate>
                <in>3728</in>
                <out>3949</out>
                <start>3728</start>
                <end>3949</end>
                <file id="src-1"/>
                <sourcetrack>
                  <mediatype>video</mediatype>
                  <trackindex>1</trackindex>
                </sourcetrack>
                <multiclip id="mcs-62">
                  <name>MCS-62</name>
                  <masterclipid>clip-master</masterclipid>
                  <collapsed>false</collapsed>
                  <angle>
                    <activevideoangle>true</activevideoangle>
                    <activeaudioangle>true</activeaudioangle>
                    <clip id="clip-1"/>
                  </angle>
                  <angle>
                    <activevideoangle>false</activevideoangle>
                    <activeaudioangle>false</activeaudioangle>
                    <clip id="clip-2"/>
                  </angle>
                  <angle>
                    <activevideoangle>false</activevideoangle>
                    <activeaudioangle>false</activeaudioangle>
                    <clip id="clip-3"/>
                  </angle>
                  <angle>
                    <activevideoangle>false</activevideoangle>
                    <activeaudioangle>false</activeaudioangle>
                    <clip id="clip-4"/>
                  </angle>
                  <angle>
                    <activevideoangle>false</activevideoangle>
                    <activeaudioangle>false</activeaudioangle>
                    <clip id="clip-5"/>
                  </angle>
                  <angle>
                    <activevideoangle>false</activevideoangle>
                    <activeaudioangle>false</activeaudioangle>
                    <clip id="clip-6"/>
                  </angle>
                  <angle>
                    <activevideoangle>false</activevideoangle>
                    <activeaudioangle>false</activeaudioangle>
                    <clip id="clip-7"/>
                  </angle>
                  <masterclipid>clip-master</masterclipid>
                </multiclip>
              </clipitem>
              <clipitem id="cs-63">
                <duration>78</duration>
                <rate>
                  <ntsc>false</ntsc>
                  <timebase>25</timebase>
                </rate>
                <in>3949</in>
                <out>4026</out>
                <start>3949</start>
                <end>4026</end>
                <file id="src-3"/>
                <sourcetrack>
                  <mediatype>video</mediatype>
                  <trackindex>1</trackindex>
                </sourcetrack>
                <multiclip id="mcs-63">
                  <name>MCS-63</name>
                  <masterclipid>clip-master</masterclipid>
                  <collapsed>false</collapsed>
                  <angle>
                    <activevideoangle>false</activevideoangle>
                    <activeaudioangle>false</activeaudioangle>
                    <clip id="clip-1"/>
                  </angle>
                  <angle>
                    <activevideoangle>false</activevideoangle>
                    <activeaudioangle>false</activeaudioangle>
                    <clip id="clip-2"/>
                  </angle>
                  <angle>
                    <activevideoangle>true</activevideoangle>
                    <activeaudioangle>true</activeaudioangle>
                    <clip id="clip-3"/>
                  </angle>
                  <angle>
                    <activevideoangle>false</activevideoangle>
                    <activeaudioangle>false</activeaudioangle>
                    <clip id="clip-4"/>
                  </angle>
                  <angle>
                    <activevideoangle>false</activevideoangle>
                    <activeaudioangle>false</activeaudioangle>
                    <clip id="clip-5"/>
                  </angle>
                  <angle>
                    <activevideoangle>false</activevideoangle>
                    <activeaudioangle>false</activeaudioangle>
                    <clip id="clip-6"/>
                  </angle>
                  <angle>
                    <activevideoangle>false</activevideoangle>
                    <activeaudioangle>false</activeaudioangle>
                    <clip id="clip-7"/>
                  </angle>
                  <masterclipid>clip-master</masterclipid>
                </multiclip>
              </clipitem>
              <clipitem id="cs-64">
                <duration>283</duration>
                <rate>
                  <ntsc>false</ntsc>
                  <timebase>25</timebase>
                </rate>
                <in>4026</in>
                <out>4308</out>
                <start>4026</start>
                <end>4308</end>
                <file id="src-2"/>
                <sourcetrack>
                  <mediatype>video</mediatype>
                  <trackindex>1</trackindex>
                </sourcetrack>
                <multiclip id="mcs-64">
                  <name>MCS-64</name>
                  <masterclipid>clip-master</masterclipid>
                  <collapsed>false</collapsed>
                  <angle>
                    <activevideoangle>false</activevideoangle>
                    <activeaudioangle>false</activeaudioangle>
                    <clip id="clip-1"/>
                  </angle>
                  <angle>
                    <activevideoangle>true</activevideoangle>
                    <activeaudioangle>true</activeaudioangle>
                    <clip id="clip-2"/>
                  </angle>
                  <angle>
                    <activevideoangle>false</activevideoangle>
                    <activeaudioangle>false</activeaudioangle>
                    <clip id="clip-3"/>
                  </angle>
                  <angle>
                    <activevideoangle>false</activevideoangle>
                    <activeaudioangle>false</activeaudioangle>
                    <clip id="clip-4"/>
                  </angle>
                  <angle>
                    <activevideoangle>false</activevideoangle>
                    <activeaudioangle>false</activeaudioangle>
                    <clip id="clip-5"/>
                  </angle>
                  <angle>
                    <activevideoangle>false</activevideoangle>
                    <activeaudioangle>false</activeaudioangle>
                    <clip id="clip-6"/>
                  </angle>
                  <angle>
                    <activevideoangle>false</activevideoangle>
                    <activeaudioangle>false</activeaudioangle>
                    <clip id="clip-7"/>
                  </angle>
                  <masterclipid>clip-master</masterclipid>
                </multiclip>
              </clipitem>
              <clipitem id="cs-65">
                <duration>164</duration>
                <rate>
                  <ntsc>false</ntsc>
                  <timebase>25</timebase>
                </rate>
                <in>4308</in>
                <out>4471</out>
                <start>4308</start>
                <end>4471</end>
                <file id="src-3"/>
                <sourcetrack>
                  <mediatype>video</mediatype>
                  <trackindex>1</trackindex>
                </sourcetrack>
                <multiclip id="mcs-65">
                  <name>MCS-65</name>
                  <masterclipid>clip-master</masterclipid>
                  <collapsed>false</collapsed>
                  <angle>
                    <activevideoangle>false</activevideoangle>
                    <activeaudioangle>false</activeaudioangle>
                    <clip id="clip-1"/>
                  </angle>
                  <angle>
                    <activevideoangle>false</activevideoangle>
                    <activeaudioangle>false</activeaudioangle>
                    <clip id="clip-2"/>
                  </angle>
                  <angle>
                    <activevideoangle>true</activevideoangle>
                    <activeaudioangle>true</activeaudioangle>
                    <clip id="clip-3"/>
                  </angle>
                  <angle>
                    <activevideoangle>false</activevideoangle>
                    <activeaudioangle>false</activeaudioangle>
                    <clip id="clip-4"/>
                  </angle>
                  <angle>
                    <activevideoangle>false</activevideoangle>
                    <activeaudioangle>false</activeaudioangle>
                    <clip id="clip-5"/>
                  </angle>
                  <angle>
                    <activevideoangle>false</activevideoangle>
                    <activeaudioangle>false</activeaudioangle>
                    <clip id="clip-6"/>
                  </angle>
                  <angle>
                    <activevideoangle>false</activevideoangle>
                    <activeaudioangle>false</activeaudioangle>
                    <clip id="clip-7"/>
                  </angle>
                  <masterclipid>clip-master</masterclipid>
                </multiclip>
              </clipitem>
              <clipitem id="cs-66">
                <duration>100</duration>
                <rate>
                  <ntsc>false</ntsc>
                  <timebase>25</timebase>
                </rate>
                <in>4471</in>
                <out>4570</out>
                <start>4471</start>
                <end>4570</end>
                <file id="src-4"/>
                <sourcetrack>
                  <mediatype>video</mediatype>
                  <trackindex>1</trackindex>
                </sourcetrack>
                <multiclip id="mcs-66">
                  <name>MCS-66</name>
                  <masterclipid>clip-master</masterclipid>
                  <collapsed>false</collapsed>
                  <angle>
                    <activevideoangle>false</activevideoangle>
                    <activeaudioangle>false</activeaudioangle>
                    <clip id="clip-1"/>
                  </angle>
                  <angle>
                    <activevideoangle>false</activevideoangle>
                    <activeaudioangle>false</activeaudioangle>
                    <clip id="clip-2"/>
                  </angle>
                  <angle>
                    <activevideoangle>false</activevideoangle>
                    <activeaudioangle>false</activeaudioangle>
                    <clip id="clip-3"/>
                  </angle>
                  <angle>
                    <activevideoangle>true</activevideoangle>
                    <activeaudioangle>true</activeaudioangle>
                    <clip id="clip-4"/>
                  </angle>
                  <angle>
                    <activevideoangle>false</activevideoangle>
                    <activeaudioangle>false</activeaudioangle>
                    <clip id="clip-5"/>
                  </angle>
                  <angle>
                    <activevideoangle>false</activevideoangle>
                    <activeaudioangle>false</activeaudioangle>
                    <clip id="clip-6"/>
                  </angle>
                  <angle>
                    <activevideoangle>false</activevideoangle>
                    <activeaudioangle>false</activeaudioangle>
                    <clip id="clip-7"/>
                  </angle>
                  <masterclipid>clip-master</masterclipid>
                </multiclip>
              </clipitem>
              <clipitem id="cs-67">
                <duration>195</duration>
                <rate>
                  <ntsc>false</ntsc>
                  <timebase>25</timebase>
                </rate>
                <in>4570</in>
                <out>4764</out>
                <start>4570</start>
                <end>4764</end>
                <file id="src-3"/>
                <sourcetrack>
                  <mediatype>video</mediatype>
                  <trackindex>1</trackindex>
                </sourcetrack>
                <multiclip id="mcs-67">
                  <name>MCS-67</name>
                  <masterclipid>clip-master</masterclipid>
                  <collapsed>false</collapsed>
                  <angle>
                    <activevideoangle>false</activevideoangle>
                    <activeaudioangle>false</activeaudioangle>
                    <clip id="clip-1"/>
                  </angle>
                  <angle>
                    <activevideoangle>false</activevideoangle>
                    <activeaudioangle>false</activeaudioangle>
                    <clip id="clip-2"/>
                  </angle>
                  <angle>
                    <activevideoangle>true</activevideoangle>
                    <activeaudioangle>true</activeaudioangle>
                    <clip id="clip-3"/>
                  </angle>
                  <angle>
                    <activevideoangle>false</activevideoangle>
                    <activeaudioangle>false</activeaudioangle>
                    <clip id="clip-4"/>
                  </angle>
                  <angle>
                    <activevideoangle>false</activevideoangle>
                    <activeaudioangle>false</activeaudioangle>
                    <clip id="clip-5"/>
                  </angle>
                  <angle>
                    <activevideoangle>false</activevideoangle>
                    <activeaudioangle>false</activeaudioangle>
                    <clip id="clip-6"/>
                  </angle>
                  <angle>
                    <activevideoangle>false</activevideoangle>
                    <activeaudioangle>false</activeaudioangle>
                    <clip id="clip-7"/>
                  </angle>
                  <masterclipid>clip-master</masterclipid>
                </multiclip>
              </clipitem>
              <clipitem id="cs-68">
                <duration>90</duration>
                <rate>
                  <ntsc>false</ntsc>
                  <timebase>25</timebase>
                </rate>
                <in>4764</in>
                <out>4853</out>
                <start>4764</start>
                <end>4853</end>
                <file id="src-5"/>
                <sourcetrack>
                  <mediatype>video</mediatype>
                  <trackindex>1</trackindex>
                </sourcetrack>
                <multiclip id="mcs-68">
                  <name>MCS-68</name>
                  <masterclipid>clip-master</masterclipid>
                  <collapsed>false</collapsed>
                  <angle>
                    <activevideoangle>false</activevideoangle>
                    <activeaudioangle>false</activeaudioangle>
                    <clip id="clip-1"/>
                  </angle>
                  <angle>
                    <activevideoangle>false</activevideoangle>
                    <activeaudioangle>false</activeaudioangle>
                    <clip id="clip-2"/>
                  </angle>
                  <angle>
                    <activevideoangle>false</activevideoangle>
                    <activeaudioangle>false</activeaudioangle>
                    <clip id="clip-3"/>
                  </angle>
                  <angle>
                    <activevideoangle>false</activevideoangle>
                    <activeaudioangle>false</activeaudioangle>
                    <clip id="clip-4"/>
                  </angle>
                  <angle>
                    <activevideoangle>true</activevideoangle>
                    <activeaudioangle>true</activeaudioangle>
                    <clip id="clip-5"/>
                  </angle>
                  <angle>
                    <activevideoangle>false</activevideoangle>
                    <activeaudioangle>false</activeaudioangle>
                    <clip id="clip-6"/>
                  </angle>
                  <angle>
                    <activevideoangle>false</activevideoangle>
                    <activeaudioangle>false</activeaudioangle>
                    <clip id="clip-7"/>
                  </angle>
                  <masterclipid>clip-master</masterclipid>
                </multiclip>
              </clipitem>
              <clipitem id="cs-69">
                <duration>120</duration>
                <rate>
                  <ntsc>false</ntsc>
                  <timebase>25</timebase>
                </rate>
                <in>4853</in>
                <out>4972</out>
                <start>4853</start>
                <end>4972</end>
                <file id="src-3"/>
                <sourcetrack>
                  <mediatype>video</mediatype>
                  <trackindex>1</trackindex>
                </sourcetrack>
                <multiclip id="mcs-69">
                  <name>MCS-69</name>
                  <masterclipid>clip-master</masterclipid>
                  <collapsed>false</collapsed>
                  <angle>
                    <activevideoangle>false</activevideoangle>
                    <activeaudioangle>false</activeaudioangle>
                    <clip id="clip-1"/>
                  </angle>
                  <angle>
                    <activevideoangle>false</activevideoangle>
                    <activeaudioangle>false</activeaudioangle>
                    <clip id="clip-2"/>
                  </angle>
                  <angle>
                    <activevideoangle>true</activevideoangle>
                    <activeaudioangle>true</activeaudioangle>
                    <clip id="clip-3"/>
                  </angle>
                  <angle>
                    <activevideoangle>false</activevideoangle>
                    <activeaudioangle>false</activeaudioangle>
                    <clip id="clip-4"/>
                  </angle>
                  <angle>
                    <activevideoangle>false</activevideoangle>
                    <activeaudioangle>false</activeaudioangle>
                    <clip id="clip-5"/>
                  </angle>
                  <angle>
                    <activevideoangle>false</activevideoangle>
                    <activeaudioangle>false</activeaudioangle>
                    <clip id="clip-6"/>
                  </angle>
                  <angle>
                    <activevideoangle>false</activevideoangle>
                    <activeaudioangle>false</activeaudioangle>
                    <clip id="clip-7"/>
                  </angle>
                  <masterclipid>clip-master</masterclipid>
                </multiclip>
              </clipitem>
              <clipitem id="cs-70">
                <duration>308</duration>
                <rate>
                  <ntsc>false</ntsc>
                  <timebase>25</timebase>
                </rate>
                <in>4972</in>
                <out>5279</out>
                <start>4972</start>
                <end>5279</end>
                <file id="src-2"/>
                <sourcetrack>
                  <mediatype>video</mediatype>
                  <trackindex>1</trackindex>
                </sourcetrack>
                <multiclip id="mcs-70">
                  <name>MCS-70</name>
                  <masterclipid>clip-master</masterclipid>
                  <collapsed>false</collapsed>
                  <angle>
                    <activevideoangle>false</activevideoangle>
                    <activeaudioangle>false</activeaudioangle>
                    <clip id="clip-1"/>
                  </angle>
                  <angle>
                    <activevideoangle>true</activevideoangle>
                    <activeaudioangle>true</activeaudioangle>
                    <clip id="clip-2"/>
                  </angle>
                  <angle>
                    <activevideoangle>false</activevideoangle>
                    <activeaudioangle>false</activeaudioangle>
                    <clip id="clip-3"/>
                  </angle>
                  <angle>
                    <activevideoangle>false</activevideoangle>
                    <activeaudioangle>false</activeaudioangle>
                    <clip id="clip-4"/>
                  </angle>
                  <angle>
                    <activevideoangle>false</activevideoangle>
                    <activeaudioangle>false</activeaudioangle>
                    <clip id="clip-5"/>
                  </angle>
                  <angle>
                    <activevideoangle>false</activevideoangle>
                    <activeaudioangle>false</activeaudioangle>
                    <clip id="clip-6"/>
                  </angle>
                  <angle>
                    <activevideoangle>false</activevideoangle>
                    <activeaudioangle>false</activeaudioangle>
                    <clip id="clip-7"/>
                  </angle>
                  <masterclipid>clip-master</masterclipid>
                </multiclip>
              </clipitem>
              <clipitem id="cs-71">
                <duration>98</duration>
                <rate>
                  <ntsc>false</ntsc>
                  <timebase>25</timebase>
                </rate>
                <in>5279</in>
                <out>5376</out>
                <start>5279</start>
                <end>5376</end>
                <file id="src-4"/>
                <sourcetrack>
                  <mediatype>video</mediatype>
                  <trackindex>1</trackindex>
                </sourcetrack>
                <multiclip id="mcs-71">
                  <name>MCS-71</name>
                  <masterclipid>clip-master</masterclipid>
                  <collapsed>false</collapsed>
                  <angle>
                    <activevideoangle>false</activevideoangle>
                    <activeaudioangle>false</activeaudioangle>
                    <clip id="clip-1"/>
                  </angle>
                  <angle>
                    <activevideoangle>false</activevideoangle>
                    <activeaudioangle>false</activeaudioangle>
                    <clip id="clip-2"/>
                  </angle>
                  <angle>
                    <activevideoangle>false</activevideoangle>
                    <activeaudioangle>false</activeaudioangle>
                    <clip id="clip-3"/>
                  </angle>
                  <angle>
                    <activevideoangle>true</activevideoangle>
                    <activeaudioangle>true</activeaudioangle>
                    <clip id="clip-4"/>
                  </angle>
                  <angle>
                    <activevideoangle>false</activevideoangle>
                    <activeaudioangle>false</activeaudioangle>
                    <clip id="clip-5"/>
                  </angle>
                  <angle>
                    <activevideoangle>false</activevideoangle>
                    <activeaudioangle>false</activeaudioangle>
                    <clip id="clip-6"/>
                  </angle>
                  <angle>
                    <activevideoangle>false</activevideoangle>
                    <activeaudioangle>false</activeaudioangle>
                    <clip id="clip-7"/>
                  </angle>
                  <masterclipid>clip-master</masterclipid>
                </multiclip>
              </clipitem>
              <clipitem id="cs-72">
                <duration>78</duration>
                <rate>
                  <ntsc>false</ntsc>
                  <timebase>25</timebase>
                </rate>
                <in>5376</in>
                <out>5453</out>
                <start>5376</start>
                <end>5453</end>
                <file id="src-1"/>
                <sourcetrack>
                  <mediatype>video</mediatype>
                  <trackindex>1</trackindex>
                </sourcetrack>
                <multiclip id="mcs-72">
                  <name>MCS-72</name>
                  <masterclipid>clip-master</masterclipid>
                  <collapsed>false</collapsed>
                  <angle>
                    <activevideoangle>true</activevideoangle>
                    <activeaudioangle>true</activeaudioangle>
                    <clip id="clip-1"/>
                  </angle>
                  <angle>
                    <activevideoangle>false</activevideoangle>
                    <activeaudioangle>false</activeaudioangle>
                    <clip id="clip-2"/>
                  </angle>
                  <angle>
                    <activevideoangle>false</activevideoangle>
                    <activeaudioangle>false</activeaudioangle>
                    <clip id="clip-3"/>
                  </angle>
                  <angle>
                    <activevideoangle>false</activevideoangle>
                    <activeaudioangle>false</activeaudioangle>
                    <clip id="clip-4"/>
                  </angle>
                  <angle>
                    <activevideoangle>false</activevideoangle>
                    <activeaudioangle>false</activeaudioangle>
                    <clip id="clip-5"/>
                  </angle>
                  <angle>
                    <activevideoangle>false</activevideoangle>
                    <activeaudioangle>false</activeaudioangle>
                    <clip id="clip-6"/>
                  </angle>
                  <angle>
                    <activevideoangle>false</activevideoangle>
                    <activeaudioangle>false</activeaudioangle>
                    <clip id="clip-7"/>
                  </angle>
                  <masterclipid>clip-master</masterclipid>
                </multiclip>
              </clipitem>
              <clipitem id="cs-73">
                <duration>78</duration>
                <rate>
                  <ntsc>false</ntsc>
                  <timebase>25</timebase>
                </rate>
                <in>5453</in>
                <out>5530</out>
                <start>5453</start>
                <end>5530</end>
                <file id="src-5"/>
                <sourcetrack>
                  <mediatype>video</mediatype>
                  <trackindex>1</trackindex>
                </sourcetrack>
                <multiclip id="mcs-73">
                  <name>MCS-73</name>
                  <masterclipid>clip-master</masterclipid>
                  <collapsed>false</collapsed>
                  <angle>
                    <activevideoangle>false</activevideoangle>
                    <activeaudioangle>false</activeaudioangle>
                    <clip id="clip-1"/>
                  </angle>
                  <angle>
                    <activevideoangle>false</activevideoangle>
                    <activeaudioangle>false</activeaudioangle>
                    <clip id="clip-2"/>
                  </angle>
                  <angle>
                    <activevideoangle>false</activevideoangle>
                    <activeaudioangle>false</activeaudioangle>
                    <clip id="clip-3"/>
                  </angle>
                  <angle>
                    <activevideoangle>false</activevideoangle>
                    <activeaudioangle>false</activeaudioangle>
                    <clip id="clip-4"/>
                  </angle>
                  <angle>
                    <activevideoangle>true</activevideoangle>
                    <activeaudioangle>true</activeaudioangle>
                    <clip id="clip-5"/>
                  </angle>
                  <angle>
                    <activevideoangle>false</activevideoangle>
                    <activeaudioangle>false</activeaudioangle>
                    <clip id="clip-6"/>
                  </angle>
                  <angle>
                    <activevideoangle>false</activevideoangle>
                    <activeaudioangle>false</activeaudioangle>
                    <clip id="clip-7"/>
                  </angle>
                  <masterclipid>clip-master</masterclipid>
                </multiclip>
              </clipitem>
              <clipitem id="cs-74">
                <duration>181</duration>
                <rate>
                  <ntsc>false</ntsc>
                  <timebase>25</timebase>
                </rate>
                <in>5530</in>
                <out>5710</out>
                <start>5530</start>
                <end>5710</end>
                <file id="src-3"/>
                <sourcetrack>
                  <mediatype>video</mediatype>
                  <trackindex>1</trackindex>
                </sourcetrack>
                <multiclip id="mcs-74">
                  <name>MCS-74</name>
                  <masterclipid>clip-master</masterclipid>
                  <collapsed>false</collapsed>
                  <angle>
                    <activevideoangle>false</activevideoangle>
                    <activeaudioangle>false</activeaudioangle>
                    <clip id="clip-1"/>
                  </angle>
                  <angle>
                    <activevideoangle>false</activevideoangle>
                    <activeaudioangle>false</activeaudioangle>
                    <clip id="clip-2"/>
                  </angle>
                  <angle>
                    <activevideoangle>true</activevideoangle>
                    <activeaudioangle>true</activeaudioangle>
                    <clip id="clip-3"/>
                  </angle>
                  <angle>
                    <activevideoangle>false</activevideoangle>
                    <activeaudioangle>false</activeaudioangle>
                    <clip id="clip-4"/>
                  </angle>
                  <angle>
                    <activevideoangle>false</activevideoangle>
                    <activeaudioangle>false</activeaudioangle>
                    <clip id="clip-5"/>
                  </angle>
                  <angle>
                    <activevideoangle>false</activevideoangle>
                    <activeaudioangle>false</activeaudioangle>
                    <clip id="clip-6"/>
                  </angle>
                  <angle>
                    <activevideoangle>false</activevideoangle>
                    <activeaudioangle>false</activeaudioangle>
                    <clip id="clip-7"/>
                  </angle>
                  <masterclipid>clip-master</masterclipid>
                </multiclip>
              </clipitem>
              <clipitem id="cs-75">
                <duration>107</duration>
                <rate>
                  <ntsc>false</ntsc>
                  <timebase>25</timebase>
                </rate>
                <in>5710</in>
                <out>5816</out>
                <start>5710</start>
                <end>5816</end>
                <file id="src-4"/>
                <sourcetrack>
                  <mediatype>video</mediatype>
                  <trackindex>1</trackindex>
                </sourcetrack>
                <multiclip id="mcs-75">
                  <name>MCS-75</name>
                  <masterclipid>clip-master</masterclipid>
                  <collapsed>false</collapsed>
                  <angle>
                    <activevideoangle>false</activevideoangle>
                    <activeaudioangle>false</activeaudioangle>
                    <clip id="clip-1"/>
                  </angle>
                  <angle>
                    <activevideoangle>false</activevideoangle>
                    <activeaudioangle>false</activeaudioangle>
                    <clip id="clip-2"/>
                  </angle>
                  <angle>
                    <activevideoangle>false</activevideoangle>
                    <activeaudioangle>false</activeaudioangle>
                    <clip id="clip-3"/>
                  </angle>
                  <angle>
                    <activevideoangle>true</activevideoangle>
                    <activeaudioangle>true</activeaudioangle>
                    <clip id="clip-4"/>
                  </angle>
                  <angle>
                    <activevideoangle>false</activevideoangle>
                    <activeaudioangle>false</activeaudioangle>
                    <clip id="clip-5"/>
                  </angle>
                  <angle>
                    <activevideoangle>false</activevideoangle>
                    <activeaudioangle>false</activeaudioangle>
                    <clip id="clip-6"/>
                  </angle>
                  <angle>
                    <activevideoangle>false</activevideoangle>
                    <activeaudioangle>false</activeaudioangle>
                    <clip id="clip-7"/>
                  </angle>
                  <masterclipid>clip-master</masterclipid>
                </multiclip>
              </clipitem>
              <clipitem id="cs-76">
                <duration>93</duration>
                <rate>
                  <ntsc>false</ntsc>
                  <timebase>25</timebase>
                </rate>
                <in>5816</in>
                <out>5908</out>
                <start>5816</start>
                <end>5908</end>
                <file id="src-2"/>
                <sourcetrack>
                  <mediatype>video</mediatype>
                  <trackindex>1</trackindex>
                </sourcetrack>
                <multiclip id="mcs-76">
                  <name>MCS-76</name>
                  <masterclipid>clip-master</masterclipid>
                  <collapsed>false</collapsed>
                  <angle>
                    <activevideoangle>false</activevideoangle>
                    <activeaudioangle>false</activeaudioangle>
                    <clip id="clip-1"/>
                  </angle>
                  <angle>
                    <activevideoangle>true</activevideoangle>
                    <activeaudioangle>true</activeaudioangle>
                    <clip id="clip-2"/>
                  </angle>
                  <angle>
                    <activevideoangle>false</activevideoangle>
                    <activeaudioangle>false</activeaudioangle>
                    <clip id="clip-3"/>
                  </angle>
                  <angle>
                    <activevideoangle>false</activevideoangle>
                    <activeaudioangle>false</activeaudioangle>
                    <clip id="clip-4"/>
                  </angle>
                  <angle>
                    <activevideoangle>false</activevideoangle>
                    <activeaudioangle>false</activeaudioangle>
                    <clip id="clip-5"/>
                  </angle>
                  <angle>
                    <activevideoangle>false</activevideoangle>
                    <activeaudioangle>false</activeaudioangle>
                    <clip id="clip-6"/>
                  </angle>
                  <angle>
                    <activevideoangle>false</activevideoangle>
                    <activeaudioangle>false</activeaudioangle>
                    <clip id="clip-7"/>
                  </angle>
                  <masterclipid>clip-master</masterclipid>
                </multiclip>
              </clipitem>
              <clipitem id="cs-77">
                <duration>63</duration>
                <rate>
                  <ntsc>false</ntsc>
                  <timebase>25</timebase>
                </rate>
                <in>5908</in>
                <out>5970</out>
                <start>5908</start>
                <end>5970</end>
                <file id="src-3"/>
                <sourcetrack>
                  <mediatype>video</mediatype>
                  <trackindex>1</trackindex>
                </sourcetrack>
                <multiclip id="mcs-77">
                  <name>MCS-77</name>
                  <masterclipid>clip-master</masterclipid>
                  <collapsed>false</collapsed>
                  <angle>
                    <activevideoangle>false</activevideoangle>
                    <activeaudioangle>false</activeaudioangle>
                    <clip id="clip-1"/>
                  </angle>
                  <angle>
                    <activevideoangle>false</activevideoangle>
                    <activeaudioangle>false</activeaudioangle>
                    <clip id="clip-2"/>
                  </angle>
                  <angle>
                    <activevideoangle>true</activevideoangle>
                    <activeaudioangle>true</activeaudioangle>
                    <clip id="clip-3"/>
                  </angle>
                  <angle>
                    <activevideoangle>false</activevideoangle>
                    <activeaudioangle>false</activeaudioangle>
                    <clip id="clip-4"/>
                  </angle>
                  <angle>
                    <activevideoangle>false</activevideoangle>
                    <activeaudioangle>false</activeaudioangle>
                    <clip id="clip-5"/>
                  </angle>
                  <angle>
                    <activevideoangle>false</activevideoangle>
                    <activeaudioangle>false</activeaudioangle>
                    <clip id="clip-6"/>
                  </angle>
                  <angle>
                    <activevideoangle>false</activevideoangle>
                    <activeaudioangle>false</activeaudioangle>
                    <clip id="clip-7"/>
                  </angle>
                  <masterclipid>clip-master</masterclipid>
                </multiclip>
              </clipitem>
              <clipitem id="cs-78">
                <duration>55</duration>
                <rate>
                  <ntsc>false</ntsc>
                  <timebase>25</timebase>
                </rate>
                <in>5970</in>
                <out>6024</out>
                <start>5970</start>
                <end>6024</end>
                <file id="src-5"/>
                <sourcetrack>
                  <mediatype>video</mediatype>
                  <trackindex>1</trackindex>
                </sourcetrack>
                <multiclip id="mcs-78">
                  <name>MCS-78</name>
                  <masterclipid>clip-master</masterclipid>
                  <collapsed>false</collapsed>
                  <angle>
                    <activevideoangle>false</activevideoangle>
                    <activeaudioangle>false</activeaudioangle>
                    <clip id="clip-1"/>
                  </angle>
                  <angle>
                    <activevideoangle>false</activevideoangle>
                    <activeaudioangle>false</activeaudioangle>
                    <clip id="clip-2"/>
                  </angle>
                  <angle>
                    <activevideoangle>false</activevideoangle>
                    <activeaudioangle>false</activeaudioangle>
                    <clip id="clip-3"/>
                  </angle>
                  <angle>
                    <activevideoangle>false</activevideoangle>
                    <activeaudioangle>false</activeaudioangle>
                    <clip id="clip-4"/>
                  </angle>
                  <angle>
                    <activevideoangle>true</activevideoangle>
                    <activeaudioangle>true</activeaudioangle>
                    <clip id="clip-5"/>
                  </angle>
                  <angle>
                    <activevideoangle>false</activevideoangle>
                    <activeaudioangle>false</activeaudioangle>
                    <clip id="clip-6"/>
                  </angle>
                  <angle>
                    <activevideoangle>false</activevideoangle>
                    <activeaudioangle>false</activeaudioangle>
                    <clip id="clip-7"/>
                  </angle>
                  <masterclipid>clip-master</masterclipid>
                </multiclip>
              </clipitem>
              <clipitem id="cs-79">
                <duration>51</duration>
                <rate>
                  <ntsc>false</ntsc>
                  <timebase>25</timebase>
                </rate>
                <in>6024</in>
                <out>6074</out>
                <start>6024</start>
                <end>6074</end>
                <file id="src-1"/>
                <sourcetrack>
                  <mediatype>video</mediatype>
                  <trackindex>1</trackindex>
                </sourcetrack>
                <multiclip id="mcs-79">
                  <name>MCS-79</name>
                  <masterclipid>clip-master</masterclipid>
                  <collapsed>false</collapsed>
                  <angle>
                    <activevideoangle>true</activevideoangle>
                    <activeaudioangle>true</activeaudioangle>
                    <clip id="clip-1"/>
                  </angle>
                  <angle>
                    <activevideoangle>false</activevideoangle>
                    <activeaudioangle>false</activeaudioangle>
                    <clip id="clip-2"/>
                  </angle>
                  <angle>
                    <activevideoangle>false</activevideoangle>
                    <activeaudioangle>false</activeaudioangle>
                    <clip id="clip-3"/>
                  </angle>
                  <angle>
                    <activevideoangle>false</activevideoangle>
                    <activeaudioangle>false</activeaudioangle>
                    <clip id="clip-4"/>
                  </angle>
                  <angle>
                    <activevideoangle>false</activevideoangle>
                    <activeaudioangle>false</activeaudioangle>
                    <clip id="clip-5"/>
                  </angle>
                  <angle>
                    <activevideoangle>false</activevideoangle>
                    <activeaudioangle>false</activeaudioangle>
                    <clip id="clip-6"/>
                  </angle>
                  <angle>
                    <activevideoangle>false</activevideoangle>
                    <activeaudioangle>false</activeaudioangle>
                    <clip id="clip-7"/>
                  </angle>
                  <masterclipid>clip-master</masterclipid>
                </multiclip>
              </clipitem>
              <clipitem id="cs-80">
                <duration>90</duration>
                <rate>
                  <ntsc>false</ntsc>
                  <timebase>25</timebase>
                </rate>
                <in>6074</in>
                <out>6163</out>
                <start>6074</start>
                <end>6163</end>
                <file id="src-2"/>
                <sourcetrack>
                  <mediatype>video</mediatype>
                  <trackindex>1</trackindex>
                </sourcetrack>
                <multiclip id="mcs-80">
                  <name>MCS-80</name>
                  <masterclipid>clip-master</masterclipid>
                  <collapsed>false</collapsed>
                  <angle>
                    <activevideoangle>false</activevideoangle>
                    <activeaudioangle>false</activeaudioangle>
                    <clip id="clip-1"/>
                  </angle>
                  <angle>
                    <activevideoangle>true</activevideoangle>
                    <activeaudioangle>true</activeaudioangle>
                    <clip id="clip-2"/>
                  </angle>
                  <angle>
                    <activevideoangle>false</activevideoangle>
                    <activeaudioangle>false</activeaudioangle>
                    <clip id="clip-3"/>
                  </angle>
                  <angle>
                    <activevideoangle>false</activevideoangle>
                    <activeaudioangle>false</activeaudioangle>
                    <clip id="clip-4"/>
                  </angle>
                  <angle>
                    <activevideoangle>false</activevideoangle>
                    <activeaudioangle>false</activeaudioangle>
                    <clip id="clip-5"/>
                  </angle>
                  <angle>
                    <activevideoangle>false</activevideoangle>
                    <activeaudioangle>false</activeaudioangle>
                    <clip id="clip-6"/>
                  </angle>
                  <angle>
                    <activevideoangle>false</activevideoangle>
                    <activeaudioangle>false</activeaudioangle>
                    <clip id="clip-7"/>
                  </angle>
                  <masterclipid>clip-master</masterclipid>
                </multiclip>
              </clipitem>
              <clipitem id="cs-81">
                <duration>136</duration>
                <rate>
                  <ntsc>false</ntsc>
                  <timebase>25</timebase>
                </rate>
                <in>6163</in>
                <out>6298</out>
                <start>6163</start>
                <end>6298</end>
                <file id="src-4"/>
                <sourcetrack>
                  <mediatype>video</mediatype>
                  <trackindex>1</trackindex>
                </sourcetrack>
                <multiclip id="mcs-81">
                  <name>MCS-81</name>
                  <masterclipid>clip-master</masterclipid>
                  <collapsed>false</collapsed>
                  <angle>
                    <activevideoangle>false</activevideoangle>
                    <activeaudioangle>false</activeaudioangle>
                    <clip id="clip-1"/>
                  </angle>
                  <angle>
                    <activevideoangle>false</activevideoangle>
                    <activeaudioangle>false</activeaudioangle>
                    <clip id="clip-2"/>
                  </angle>
                  <angle>
                    <activevideoangle>false</activevideoangle>
                    <activeaudioangle>false</activeaudioangle>
                    <clip id="clip-3"/>
                  </angle>
                  <angle>
                    <activevideoangle>true</activevideoangle>
                    <activeaudioangle>true</activeaudioangle>
                    <clip id="clip-4"/>
                  </angle>
                  <angle>
                    <activevideoangle>false</activevideoangle>
                    <activeaudioangle>false</activeaudioangle>
                    <clip id="clip-5"/>
                  </angle>
                  <angle>
                    <activevideoangle>false</activevideoangle>
                    <activeaudioangle>false</activeaudioangle>
                    <clip id="clip-6"/>
                  </angle>
                  <angle>
                    <activevideoangle>false</activevideoangle>
                    <activeaudioangle>false</activeaudioangle>
                    <clip id="clip-7"/>
                  </angle>
                  <masterclipid>clip-master</masterclipid>
                </multiclip>
              </clipitem>
              <clipitem id="cs-82">
                <duration>66</duration>
                <rate>
                  <ntsc>false</ntsc>
                  <timebase>25</timebase>
                </rate>
                <in>6298</in>
                <out>6363</out>
                <start>6298</start>
                <end>6363</end>
                <file id="src-3"/>
                <sourcetrack>
                  <mediatype>video</mediatype>
                  <trackindex>1</trackindex>
                </sourcetrack>
                <multiclip id="mcs-82">
                  <name>MCS-82</name>
                  <masterclipid>clip-master</masterclipid>
                  <collapsed>false</collapsed>
                  <angle>
                    <activevideoangle>false</activevideoangle>
                    <activeaudioangle>false</activeaudioangle>
                    <clip id="clip-1"/>
                  </angle>
                  <angle>
                    <activevideoangle>false</activevideoangle>
                    <activeaudioangle>false</activeaudioangle>
                    <clip id="clip-2"/>
                  </angle>
                  <angle>
                    <activevideoangle>true</activevideoangle>
                    <activeaudioangle>true</activeaudioangle>
                    <clip id="clip-3"/>
                  </angle>
                  <angle>
                    <activevideoangle>false</activevideoangle>
                    <activeaudioangle>false</activeaudioangle>
                    <clip id="clip-4"/>
                  </angle>
                  <angle>
                    <activevideoangle>false</activevideoangle>
                    <activeaudioangle>false</activeaudioangle>
                    <clip id="clip-5"/>
                  </angle>
                  <angle>
                    <activevideoangle>false</activevideoangle>
                    <activeaudioangle>false</activeaudioangle>
                    <clip id="clip-6"/>
                  </angle>
                  <angle>
                    <activevideoangle>false</activevideoangle>
                    <activeaudioangle>false</activeaudioangle>
                    <clip id="clip-7"/>
                  </angle>
                  <masterclipid>clip-master</masterclipid>
                </multiclip>
              </clipitem>
              <clipitem id="cs-83">
                <duration>108</duration>
                <rate>
                  <ntsc>false</ntsc>
                  <timebase>25</timebase>
                </rate>
                <in>6363</in>
                <out>6470</out>
                <start>6363</start>
                <end>6470</end>
                <file id="src-2"/>
                <sourcetrack>
                  <mediatype>video</mediatype>
                  <trackindex>1</trackindex>
                </sourcetrack>
                <multiclip id="mcs-83">
                  <name>MCS-83</name>
                  <masterclipid>clip-master</masterclipid>
                  <collapsed>false</collapsed>
                  <angle>
                    <activevideoangle>false</activevideoangle>
                    <activeaudioangle>false</activeaudioangle>
                    <clip id="clip-1"/>
                  </angle>
                  <angle>
                    <activevideoangle>true</activevideoangle>
                    <activeaudioangle>true</activeaudioangle>
                    <clip id="clip-2"/>
                  </angle>
                  <angle>
                    <activevideoangle>false</activevideoangle>
                    <activeaudioangle>false</activeaudioangle>
                    <clip id="clip-3"/>
                  </angle>
                  <angle>
                    <activevideoangle>false</activevideoangle>
                    <activeaudioangle>false</activeaudioangle>
                    <clip id="clip-4"/>
                  </angle>
                  <angle>
                    <activevideoangle>false</activevideoangle>
                    <activeaudioangle>false</activeaudioangle>
                    <clip id="clip-5"/>
                  </angle>
                  <angle>
                    <activevideoangle>false</activevideoangle>
                    <activeaudioangle>false</activeaudioangle>
                    <clip id="clip-6"/>
                  </angle>
                  <angle>
                    <activevideoangle>false</activevideoangle>
                    <activeaudioangle>false</activeaudioangle>
                    <clip id="clip-7"/>
                  </angle>
                  <masterclipid>clip-master</masterclipid>
                </multiclip>
              </clipitem>
              <clipitem id="cs-84">
                <duration>68</duration>
                <rate>
                  <ntsc>false</ntsc>
                  <timebase>25</timebase>
                </rate>
                <in>6470</in>
                <out>6537</out>
                <start>6470</start>
                <end>6537</end>
                <file id="src-6"/>
                <sourcetrack>
                  <mediatype>video</mediatype>
                  <trackindex>1</trackindex>
                </sourcetrack>
                <multiclip id="mcs-84">
                  <name>MCS-84</name>
                  <masterclipid>clip-master</masterclipid>
                  <collapsed>false</collapsed>
                  <angle>
                    <activevideoangle>false</activevideoangle>
                    <activeaudioangle>false</activeaudioangle>
                    <clip id="clip-1"/>
                  </angle>
                  <angle>
                    <activevideoangle>false</activevideoangle>
                    <activeaudioangle>false</activeaudioangle>
                    <clip id="clip-2"/>
                  </angle>
                  <angle>
                    <activevideoangle>false</activevideoangle>
                    <activeaudioangle>false</activeaudioangle>
                    <clip id="clip-3"/>
                  </angle>
                  <angle>
                    <activevideoangle>false</activevideoangle>
                    <activeaudioangle>false</activeaudioangle>
                    <clip id="clip-4"/>
                  </angle>
                  <angle>
                    <activevideoangle>false</activevideoangle>
                    <activeaudioangle>false</activeaudioangle>
                    <clip id="clip-5"/>
                  </angle>
                  <angle>
                    <activevideoangle>true</activevideoangle>
                    <activeaudioangle>true</activeaudioangle>
                    <clip id="clip-6"/>
                  </angle>
                  <angle>
                    <activevideoangle>false</activevideoangle>
                    <activeaudioangle>false</activeaudioangle>
                    <clip id="clip-7"/>
                  </angle>
                  <masterclipid>clip-master</masterclipid>
                </multiclip>
              </clipitem>
              <clipitem id="cs-85">
                <duration>70</duration>
                <rate>
                  <ntsc>false</ntsc>
                  <timebase>25</timebase>
                </rate>
                <in>6537</in>
                <out>6606</out>
                <start>6537</start>
                <end>6606</end>
                <file id="src-4"/>
                <sourcetrack>
                  <mediatype>video</mediatype>
                  <trackindex>1</trackindex>
                </sourcetrack>
                <multiclip id="mcs-85">
                  <name>MCS-85</name>
                  <masterclipid>clip-master</masterclipid>
                  <collapsed>false</collapsed>
                  <angle>
                    <activevideoangle>false</activevideoangle>
                    <activeaudioangle>false</activeaudioangle>
                    <clip id="clip-1"/>
                  </angle>
                  <angle>
                    <activevideoangle>false</activevideoangle>
                    <activeaudioangle>false</activeaudioangle>
                    <clip id="clip-2"/>
                  </angle>
                  <angle>
                    <activevideoangle>false</activevideoangle>
                    <activeaudioangle>false</activeaudioangle>
                    <clip id="clip-3"/>
                  </angle>
                  <angle>
                    <activevideoangle>true</activevideoangle>
                    <activeaudioangle>true</activeaudioangle>
                    <clip id="clip-4"/>
                  </angle>
                  <angle>
                    <activevideoangle>false</activevideoangle>
                    <activeaudioangle>false</activeaudioangle>
                    <clip id="clip-5"/>
                  </angle>
                  <angle>
                    <activevideoangle>false</activevideoangle>
                    <activeaudioangle>false</activeaudioangle>
                    <clip id="clip-6"/>
                  </angle>
                  <angle>
                    <activevideoangle>false</activevideoangle>
                    <activeaudioangle>false</activeaudioangle>
                    <clip id="clip-7"/>
                  </angle>
                  <masterclipid>clip-master</masterclipid>
                </multiclip>
              </clipitem>
              <clipitem id="cs-86">
                <duration>60</duration>
                <rate>
                  <ntsc>false</ntsc>
                  <timebase>25</timebase>
                </rate>
                <in>6606</in>
                <out>6665</out>
                <start>6606</start>
                <end>6665</end>
                <file id="src-3"/>
                <sourcetrack>
                  <mediatype>video</mediatype>
                  <trackindex>1</trackindex>
                </sourcetrack>
                <multiclip id="mcs-86">
                  <name>MCS-86</name>
                  <masterclipid>clip-master</masterclipid>
                  <collapsed>false</collapsed>
                  <angle>
                    <activevideoangle>false</activevideoangle>
                    <activeaudioangle>false</activeaudioangle>
                    <clip id="clip-1"/>
                  </angle>
                  <angle>
                    <activevideoangle>false</activevideoangle>
                    <activeaudioangle>false</activeaudioangle>
                    <clip id="clip-2"/>
                  </angle>
                  <angle>
                    <activevideoangle>true</activevideoangle>
                    <activeaudioangle>true</activeaudioangle>
                    <clip id="clip-3"/>
                  </angle>
                  <angle>
                    <activevideoangle>false</activevideoangle>
                    <activeaudioangle>false</activeaudioangle>
                    <clip id="clip-4"/>
                  </angle>
                  <angle>
                    <activevideoangle>false</activevideoangle>
                    <activeaudioangle>false</activeaudioangle>
                    <clip id="clip-5"/>
                  </angle>
                  <angle>
                    <activevideoangle>false</activevideoangle>
                    <activeaudioangle>false</activeaudioangle>
                    <clip id="clip-6"/>
                  </angle>
                  <angle>
                    <activevideoangle>false</activevideoangle>
                    <activeaudioangle>false</activeaudioangle>
                    <clip id="clip-7"/>
                  </angle>
                  <masterclipid>clip-master</masterclipid>
                </multiclip>
              </clipitem>
              <clipitem id="cs-87">
                <duration>110</duration>
                <rate>
                  <ntsc>false</ntsc>
                  <timebase>25</timebase>
                </rate>
                <in>6665</in>
                <out>6774</out>
                <start>6665</start>
                <end>6774</end>
                <file id="src-2"/>
                <sourcetrack>
                  <mediatype>video</mediatype>
                  <trackindex>1</trackindex>
                </sourcetrack>
                <multiclip id="mcs-87">
                  <name>MCS-87</name>
                  <masterclipid>clip-master</masterclipid>
                  <collapsed>false</collapsed>
                  <angle>
                    <activevideoangle>false</activevideoangle>
                    <activeaudioangle>false</activeaudioangle>
                    <clip id="clip-1"/>
                  </angle>
                  <angle>
                    <activevideoangle>true</activevideoangle>
                    <activeaudioangle>true</activeaudioangle>
                    <clip id="clip-2"/>
                  </angle>
                  <angle>
                    <activevideoangle>false</activevideoangle>
                    <activeaudioangle>false</activeaudioangle>
                    <clip id="clip-3"/>
                  </angle>
                  <angle>
                    <activevideoangle>false</activevideoangle>
                    <activeaudioangle>false</activeaudioangle>
                    <clip id="clip-4"/>
                  </angle>
                  <angle>
                    <activevideoangle>false</activevideoangle>
                    <activeaudioangle>false</activeaudioangle>
                    <clip id="clip-5"/>
                  </angle>
                  <angle>
                    <activevideoangle>false</activevideoangle>
                    <activeaudioangle>false</activeaudioangle>
                    <clip id="clip-6"/>
                  </angle>
                  <angle>
                    <activevideoangle>false</activevideoangle>
                    <activeaudioangle>false</activeaudioangle>
                    <clip id="clip-7"/>
                  </angle>
                  <masterclipid>clip-master</masterclipid>
                </multiclip>
              </clipitem>
              <clipitem id="cs-88">
                <duration>80</duration>
                <rate>
                  <ntsc>false</ntsc>
                  <timebase>25</timebase>
                </rate>
                <in>6774</in>
                <out>6853</out>
                <start>6774</start>
                <end>6853</end>
                <file id="src-3"/>
                <sourcetrack>
                  <mediatype>video</mediatype>
                  <trackindex>1</trackindex>
                </sourcetrack>
                <multiclip id="mcs-88">
                  <name>MCS-88</name>
                  <masterclipid>clip-master</masterclipid>
                  <collapsed>false</collapsed>
                  <angle>
                    <activevideoangle>false</activevideoangle>
                    <activeaudioangle>false</activeaudioangle>
                    <clip id="clip-1"/>
                  </angle>
                  <angle>
                    <activevideoangle>false</activevideoangle>
                    <activeaudioangle>false</activeaudioangle>
                    <clip id="clip-2"/>
                  </angle>
                  <angle>
                    <activevideoangle>true</activevideoangle>
                    <activeaudioangle>true</activeaudioangle>
                    <clip id="clip-3"/>
                  </angle>
                  <angle>
                    <activevideoangle>false</activevideoangle>
                    <activeaudioangle>false</activeaudioangle>
                    <clip id="clip-4"/>
                  </angle>
                  <angle>
                    <activevideoangle>false</activevideoangle>
                    <activeaudioangle>false</activeaudioangle>
                    <clip id="clip-5"/>
                  </angle>
                  <angle>
                    <activevideoangle>false</activevideoangle>
                    <activeaudioangle>false</activeaudioangle>
                    <clip id="clip-6"/>
                  </angle>
                  <angle>
                    <activevideoangle>false</activevideoangle>
                    <activeaudioangle>false</activeaudioangle>
                    <clip id="clip-7"/>
                  </angle>
                  <masterclipid>clip-master</masterclipid>
                </multiclip>
              </clipitem>
              <clipitem id="cs-89">
                <duration>50</duration>
                <rate>
                  <ntsc>false</ntsc>
                  <timebase>25</timebase>
                </rate>
                <in>6853</in>
                <out>6902</out>
                <start>6853</start>
                <end>6902</end>
                <file id="src-1"/>
                <sourcetrack>
                  <mediatype>video</mediatype>
                  <trackindex>1</trackindex>
                </sourcetrack>
                <multiclip id="mcs-89">
                  <name>MCS-89</name>
                  <masterclipid>clip-master</masterclipid>
                  <collapsed>false</collapsed>
                  <angle>
                    <activevideoangle>true</activevideoangle>
                    <activeaudioangle>true</activeaudioangle>
                    <clip id="clip-1"/>
                  </angle>
                  <angle>
                    <activevideoangle>false</activevideoangle>
                    <activeaudioangle>false</activeaudioangle>
                    <clip id="clip-2"/>
                  </angle>
                  <angle>
                    <activevideoangle>false</activevideoangle>
                    <activeaudioangle>false</activeaudioangle>
                    <clip id="clip-3"/>
                  </angle>
                  <angle>
                    <activevideoangle>false</activevideoangle>
                    <activeaudioangle>false</activeaudioangle>
                    <clip id="clip-4"/>
                  </angle>
                  <angle>
                    <activevideoangle>false</activevideoangle>
                    <activeaudioangle>false</activeaudioangle>
                    <clip id="clip-5"/>
                  </angle>
                  <angle>
                    <activevideoangle>false</activevideoangle>
                    <activeaudioangle>false</activeaudioangle>
                    <clip id="clip-6"/>
                  </angle>
                  <angle>
                    <activevideoangle>false</activevideoangle>
                    <activeaudioangle>false</activeaudioangle>
                    <clip id="clip-7"/>
                  </angle>
                  <masterclipid>clip-master</masterclipid>
                </multiclip>
              </clipitem>
              <clipitem id="cs-90">
                <duration>99</duration>
                <rate>
                  <ntsc>false</ntsc>
                  <timebase>25</timebase>
                </rate>
                <in>6902</in>
                <out>7000</out>
                <start>6902</start>
                <end>7000</end>
                <file id="src-3"/>
                <sourcetrack>
                  <mediatype>video</mediatype>
                  <trackindex>1</trackindex>
                </sourcetrack>
                <multiclip id="mcs-90">
                  <name>MCS-90</name>
                  <masterclipid>clip-master</masterclipid>
                  <collapsed>false</collapsed>
                  <angle>
                    <activevideoangle>false</activevideoangle>
                    <activeaudioangle>false</activeaudioangle>
                    <clip id="clip-1"/>
                  </angle>
                  <angle>
                    <activevideoangle>false</activevideoangle>
                    <activeaudioangle>false</activeaudioangle>
                    <clip id="clip-2"/>
                  </angle>
                  <angle>
                    <activevideoangle>true</activevideoangle>
                    <activeaudioangle>true</activeaudioangle>
                    <clip id="clip-3"/>
                  </angle>
                  <angle>
                    <activevideoangle>false</activevideoangle>
                    <activeaudioangle>false</activeaudioangle>
                    <clip id="clip-4"/>
                  </angle>
                  <angle>
                    <activevideoangle>false</activevideoangle>
                    <activeaudioangle>false</activeaudioangle>
                    <clip id="clip-5"/>
                  </angle>
                  <angle>
                    <activevideoangle>false</activevideoangle>
                    <activeaudioangle>false</activeaudioangle>
                    <clip id="clip-6"/>
                  </angle>
                  <angle>
                    <activevideoangle>false</activevideoangle>
                    <activeaudioangle>false</activeaudioangle>
                    <clip id="clip-7"/>
                  </angle>
                  <masterclipid>clip-master</masterclipid>
                </multiclip>
              </clipitem>
              <clipitem id="cs-91">
                <duration>166</duration>
                <rate>
                  <ntsc>false</ntsc>
                  <timebase>25</timebase>
                </rate>
                <in>7000</in>
                <out>7165</out>
                <start>7000</start>
                <end>7165</end>
                <file id="src-4"/>
                <sourcetrack>
                  <mediatype>video</mediatype>
                  <trackindex>1</trackindex>
                </sourcetrack>
                <multiclip id="mcs-91">
                  <name>MCS-91</name>
                  <masterclipid>clip-master</masterclipid>
                  <collapsed>false</collapsed>
                  <angle>
                    <activevideoangle>false</activevideoangle>
                    <activeaudioangle>false</activeaudioangle>
                    <clip id="clip-1"/>
                  </angle>
                  <angle>
                    <activevideoangle>false</activevideoangle>
                    <activeaudioangle>false</activeaudioangle>
                    <clip id="clip-2"/>
                  </angle>
                  <angle>
                    <activevideoangle>false</activevideoangle>
                    <activeaudioangle>false</activeaudioangle>
                    <clip id="clip-3"/>
                  </angle>
                  <angle>
                    <activevideoangle>true</activevideoangle>
                    <activeaudioangle>true</activeaudioangle>
                    <clip id="clip-4"/>
                  </angle>
                  <angle>
                    <activevideoangle>false</activevideoangle>
                    <activeaudioangle>false</activeaudioangle>
                    <clip id="clip-5"/>
                  </angle>
                  <angle>
                    <activevideoangle>false</activevideoangle>
                    <activeaudioangle>false</activeaudioangle>
                    <clip id="clip-6"/>
                  </angle>
                  <angle>
                    <activevideoangle>false</activevideoangle>
                    <activeaudioangle>false</activeaudioangle>
                    <clip id="clip-7"/>
                  </angle>
                  <masterclipid>clip-master</masterclipid>
                </multiclip>
              </clipitem>
              <clipitem id="cs-92">
                <duration>92</duration>
                <rate>
                  <ntsc>false</ntsc>
                  <timebase>25</timebase>
                </rate>
                <in>7165</in>
                <out>7256</out>
                <start>7165</start>
                <end>7256</end>
                <file id="src-3"/>
                <sourcetrack>
                  <mediatype>video</mediatype>
                  <trackindex>1</trackindex>
                </sourcetrack>
                <multiclip id="mcs-92">
                  <name>MCS-92</name>
                  <masterclipid>clip-master</masterclipid>
                  <collapsed>false</collapsed>
                  <angle>
                    <activevideoangle>false</activevideoangle>
                    <activeaudioangle>false</activeaudioangle>
                    <clip id="clip-1"/>
                  </angle>
                  <angle>
                    <activevideoangle>false</activevideoangle>
                    <activeaudioangle>false</activeaudioangle>
                    <clip id="clip-2"/>
                  </angle>
                  <angle>
                    <activevideoangle>true</activevideoangle>
                    <activeaudioangle>true</activeaudioangle>
                    <clip id="clip-3"/>
                  </angle>
                  <angle>
                    <activevideoangle>false</activevideoangle>
                    <activeaudioangle>false</activeaudioangle>
                    <clip id="clip-4"/>
                  </angle>
                  <angle>
                    <activevideoangle>false</activevideoangle>
                    <activeaudioangle>false</activeaudioangle>
                    <clip id="clip-5"/>
                  </angle>
                  <angle>
                    <activevideoangle>false</activevideoangle>
                    <activeaudioangle>false</activeaudioangle>
                    <clip id="clip-6"/>
                  </angle>
                  <angle>
                    <activevideoangle>false</activevideoangle>
                    <activeaudioangle>false</activeaudioangle>
                    <clip id="clip-7"/>
                  </angle>
                  <masterclipid>clip-master</masterclipid>
                </multiclip>
              </clipitem>
              <clipitem id="cs-93">
                <duration>104</duration>
                <rate>
                  <ntsc>false</ntsc>
                  <timebase>25</timebase>
                </rate>
                <in>7256</in>
                <out>7359</out>
                <start>7256</start>
                <end>7359</end>
                <file id="src-2"/>
                <sourcetrack>
                  <mediatype>video</mediatype>
                  <trackindex>1</trackindex>
                </sourcetrack>
                <multiclip id="mcs-93">
                  <name>MCS-93</name>
                  <masterclipid>clip-master</masterclipid>
                  <collapsed>false</collapsed>
                  <angle>
                    <activevideoangle>false</activevideoangle>
                    <activeaudioangle>false</activeaudioangle>
                    <clip id="clip-1"/>
                  </angle>
                  <angle>
                    <activevideoangle>true</activevideoangle>
                    <activeaudioangle>true</activeaudioangle>
                    <clip id="clip-2"/>
                  </angle>
                  <angle>
                    <activevideoangle>false</activevideoangle>
                    <activeaudioangle>false</activeaudioangle>
                    <clip id="clip-3"/>
                  </angle>
                  <angle>
                    <activevideoangle>false</activevideoangle>
                    <activeaudioangle>false</activeaudioangle>
                    <clip id="clip-4"/>
                  </angle>
                  <angle>
                    <activevideoangle>false</activevideoangle>
                    <activeaudioangle>false</activeaudioangle>
                    <clip id="clip-5"/>
                  </angle>
                  <angle>
                    <activevideoangle>false</activevideoangle>
                    <activeaudioangle>false</activeaudioangle>
                    <clip id="clip-6"/>
                  </angle>
                  <angle>
                    <activevideoangle>false</activevideoangle>
                    <activeaudioangle>false</activeaudioangle>
                    <clip id="clip-7"/>
                  </angle>
                  <masterclipid>clip-master</masterclipid>
                </multiclip>
              </clipitem>
              <clipitem id="cs-94">
                <duration>66</duration>
                <rate>
                  <ntsc>false</ntsc>
                  <timebase>25</timebase>
                </rate>
                <in>7359</in>
                <out>7424</out>
                <start>7359</start>
                <end>7424</end>
                <file id="src-4"/>
                <sourcetrack>
                  <mediatype>video</mediatype>
                  <trackindex>1</trackindex>
                </sourcetrack>
                <multiclip id="mcs-94">
                  <name>MCS-94</name>
                  <masterclipid>clip-master</masterclipid>
                  <collapsed>false</collapsed>
                  <angle>
                    <activevideoangle>false</activevideoangle>
                    <activeaudioangle>false</activeaudioangle>
                    <clip id="clip-1"/>
                  </angle>
                  <angle>
                    <activevideoangle>false</activevideoangle>
                    <activeaudioangle>false</activeaudioangle>
                    <clip id="clip-2"/>
                  </angle>
                  <angle>
                    <activevideoangle>false</activevideoangle>
                    <activeaudioangle>false</activeaudioangle>
                    <clip id="clip-3"/>
                  </angle>
                  <angle>
                    <activevideoangle>true</activevideoangle>
                    <activeaudioangle>true</activeaudioangle>
                    <clip id="clip-4"/>
                  </angle>
                  <angle>
                    <activevideoangle>false</activevideoangle>
                    <activeaudioangle>false</activeaudioangle>
                    <clip id="clip-5"/>
                  </angle>
                  <angle>
                    <activevideoangle>false</activevideoangle>
                    <activeaudioangle>false</activeaudioangle>
                    <clip id="clip-6"/>
                  </angle>
                  <angle>
                    <activevideoangle>false</activevideoangle>
                    <activeaudioangle>false</activeaudioangle>
                    <clip id="clip-7"/>
                  </angle>
                  <masterclipid>clip-master</masterclipid>
                </multiclip>
              </clipitem>
              <clipitem id="cs-95">
                <duration>50</duration>
                <rate>
                  <ntsc>false</ntsc>
                  <timebase>25</timebase>
                </rate>
                <in>7424</in>
                <out>7473</out>
                <start>7424</start>
                <end>7473</end>
                <file id="src-6"/>
                <sourcetrack>
                  <mediatype>video</mediatype>
                  <trackindex>1</trackindex>
                </sourcetrack>
                <multiclip id="mcs-95">
                  <name>MCS-95</name>
                  <masterclipid>clip-master</masterclipid>
                  <collapsed>false</collapsed>
                  <angle>
                    <activevideoangle>false</activevideoangle>
                    <activeaudioangle>false</activeaudioangle>
                    <clip id="clip-1"/>
                  </angle>
                  <angle>
                    <activevideoangle>false</activevideoangle>
                    <activeaudioangle>false</activeaudioangle>
                    <clip id="clip-2"/>
                  </angle>
                  <angle>
                    <activevideoangle>false</activevideoangle>
                    <activeaudioangle>false</activeaudioangle>
                    <clip id="clip-3"/>
                  </angle>
                  <angle>
                    <activevideoangle>false</activevideoangle>
                    <activeaudioangle>false</activeaudioangle>
                    <clip id="clip-4"/>
                  </angle>
                  <angle>
                    <activevideoangle>false</activevideoangle>
                    <activeaudioangle>false</activeaudioangle>
                    <clip id="clip-5"/>
                  </angle>
                  <angle>
                    <activevideoangle>true</activevideoangle>
                    <activeaudioangle>true</activeaudioangle>
                    <clip id="clip-6"/>
                  </angle>
                  <angle>
                    <activevideoangle>false</activevideoangle>
                    <activeaudioangle>false</activeaudioangle>
                    <clip id="clip-7"/>
                  </angle>
                  <masterclipid>clip-master</masterclipid>
                </multiclip>
              </clipitem>
              <clipitem id="cs-96">
                <duration>211</duration>
                <rate>
                  <ntsc>false</ntsc>
                  <timebase>25</timebase>
                </rate>
                <in>7473</in>
                <out>7683</out>
                <start>7473</start>
                <end>7683</end>
                <file id="src-3"/>
                <sourcetrack>
                  <mediatype>video</mediatype>
                  <trackindex>1</trackindex>
                </sourcetrack>
                <multiclip id="mcs-96">
                  <name>MCS-96</name>
                  <masterclipid>clip-master</masterclipid>
                  <collapsed>false</collapsed>
                  <angle>
                    <activevideoangle>false</activevideoangle>
                    <activeaudioangle>false</activeaudioangle>
                    <clip id="clip-1"/>
                  </angle>
                  <angle>
                    <activevideoangle>false</activevideoangle>
                    <activeaudioangle>false</activeaudioangle>
                    <clip id="clip-2"/>
                  </angle>
                  <angle>
                    <activevideoangle>true</activevideoangle>
                    <activeaudioangle>true</activeaudioangle>
                    <clip id="clip-3"/>
                  </angle>
                  <angle>
                    <activevideoangle>false</activevideoangle>
                    <activeaudioangle>false</activeaudioangle>
                    <clip id="clip-4"/>
                  </angle>
                  <angle>
                    <activevideoangle>false</activevideoangle>
                    <activeaudioangle>false</activeaudioangle>
                    <clip id="clip-5"/>
                  </angle>
                  <angle>
                    <activevideoangle>false</activevideoangle>
                    <activeaudioangle>false</activeaudioangle>
                    <clip id="clip-6"/>
                  </angle>
                  <angle>
                    <activevideoangle>false</activevideoangle>
                    <activeaudioangle>false</activeaudioangle>
                    <clip id="clip-7"/>
                  </angle>
                  <masterclipid>clip-master</masterclipid>
                </multiclip>
              </clipitem>
              <clipitem id="cs-97">
                <duration>65</duration>
                <rate>
                  <ntsc>false</ntsc>
                  <timebase>25</timebase>
                </rate>
                <in>7683</in>
                <out>7747</out>
                <start>7683</start>
                <end>7747</end>
                <file id="src-4"/>
                <sourcetrack>
                  <mediatype>video</mediatype>
                  <trackindex>1</trackindex>
                </sourcetrack>
                <multiclip id="mcs-97">
                  <name>MCS-97</name>
                  <masterclipid>clip-master</masterclipid>
                  <collapsed>false</collapsed>
                  <angle>
                    <activevideoangle>false</activevideoangle>
                    <activeaudioangle>false</activeaudioangle>
                    <clip id="clip-1"/>
                  </angle>
                  <angle>
                    <activevideoangle>false</activevideoangle>
                    <activeaudioangle>false</activeaudioangle>
                    <clip id="clip-2"/>
                  </angle>
                  <angle>
                    <activevideoangle>false</activevideoangle>
                    <activeaudioangle>false</activeaudioangle>
                    <clip id="clip-3"/>
                  </angle>
                  <angle>
                    <activevideoangle>true</activevideoangle>
                    <activeaudioangle>true</activeaudioangle>
                    <clip id="clip-4"/>
                  </angle>
                  <angle>
                    <activevideoangle>false</activevideoangle>
                    <activeaudioangle>false</activeaudioangle>
                    <clip id="clip-5"/>
                  </angle>
                  <angle>
                    <activevideoangle>false</activevideoangle>
                    <activeaudioangle>false</activeaudioangle>
                    <clip id="clip-6"/>
                  </angle>
                  <angle>
                    <activevideoangle>false</activevideoangle>
                    <activeaudioangle>false</activeaudioangle>
                    <clip id="clip-7"/>
                  </angle>
                  <masterclipid>clip-master</masterclipid>
                </multiclip>
              </clipitem>
              <clipitem id="cs-98">
                <duration>134</duration>
                <rate>
                  <ntsc>false</ntsc>
                  <timebase>25</timebase>
                </rate>
                <in>7747</in>
                <out>7880</out>
                <start>7747</start>
                <end>7880</end>
                <file id="src-2"/>
                <sourcetrack>
                  <mediatype>video</mediatype>
                  <trackindex>1</trackindex>
                </sourcetrack>
                <multiclip id="mcs-98">
                  <name>MCS-98</name>
                  <masterclipid>clip-master</masterclipid>
                  <collapsed>false</collapsed>
                  <angle>
                    <activevideoangle>false</activevideoangle>
                    <activeaudioangle>false</activeaudioangle>
                    <clip id="clip-1"/>
                  </angle>
                  <angle>
                    <activevideoangle>true</activevideoangle>
                    <activeaudioangle>true</activeaudioangle>
                    <clip id="clip-2"/>
                  </angle>
                  <angle>
                    <activevideoangle>false</activevideoangle>
                    <activeaudioangle>false</activeaudioangle>
                    <clip id="clip-3"/>
                  </angle>
                  <angle>
                    <activevideoangle>false</activevideoangle>
                    <activeaudioangle>false</activeaudioangle>
                    <clip id="clip-4"/>
                  </angle>
                  <angle>
                    <activevideoangle>false</activevideoangle>
                    <activeaudioangle>false</activeaudioangle>
                    <clip id="clip-5"/>
                  </angle>
                  <angle>
                    <activevideoangle>false</activevideoangle>
                    <activeaudioangle>false</activeaudioangle>
                    <clip id="clip-6"/>
                  </angle>
                  <angle>
                    <activevideoangle>false</activevideoangle>
                    <activeaudioangle>false</activeaudioangle>
                    <clip id="clip-7"/>
                  </angle>
                  <masterclipid>clip-master</masterclipid>
                </multiclip>
              </clipitem>
              <clipitem id="cs-99">
                <duration>73</duration>
                <rate>
                  <ntsc>false</ntsc>
                  <timebase>25</timebase>
                </rate>
                <in>7880</in>
                <out>7952</out>
                <start>7880</start>
                <end>7952</end>
                <file id="src-3"/>
                <sourcetrack>
                  <mediatype>video</mediatype>
                  <trackindex>1</trackindex>
                </sourcetrack>
                <multiclip id="mcs-99">
                  <name>MCS-99</name>
                  <masterclipid>clip-master</masterclipid>
                  <collapsed>false</collapsed>
                  <angle>
                    <activevideoangle>false</activevideoangle>
                    <activeaudioangle>false</activeaudioangle>
                    <clip id="clip-1"/>
                  </angle>
                  <angle>
                    <activevideoangle>false</activevideoangle>
                    <activeaudioangle>false</activeaudioangle>
                    <clip id="clip-2"/>
                  </angle>
                  <angle>
                    <activevideoangle>true</activevideoangle>
                    <activeaudioangle>true</activeaudioangle>
                    <clip id="clip-3"/>
                  </angle>
                  <angle>
                    <activevideoangle>false</activevideoangle>
                    <activeaudioangle>false</activeaudioangle>
                    <clip id="clip-4"/>
                  </angle>
                  <angle>
                    <activevideoangle>false</activevideoangle>
                    <activeaudioangle>false</activeaudioangle>
                    <clip id="clip-5"/>
                  </angle>
                  <angle>
                    <activevideoangle>false</activevideoangle>
                    <activeaudioangle>false</activeaudioangle>
                    <clip id="clip-6"/>
                  </angle>
                  <angle>
                    <activevideoangle>false</activevideoangle>
                    <activeaudioangle>false</activeaudioangle>
                    <clip id="clip-7"/>
                  </angle>
                  <masterclipid>clip-master</masterclipid>
                </multiclip>
              </clipitem>
              <clipitem id="cs-100">
                <duration>74</duration>
                <rate>
                  <ntsc>false</ntsc>
                  <timebase>25</timebase>
                </rate>
                <in>7952</in>
                <out>8025</out>
                <start>7952</start>
                <end>8025</end>
                <file id="src-5"/>
                <sourcetrack>
                  <mediatype>video</mediatype>
                  <trackindex>1</trackindex>
                </sourcetrack>
                <multiclip id="mcs-100">
                  <name>MCS-100</name>
                  <masterclipid>clip-master</masterclipid>
                  <collapsed>false</collapsed>
                  <angle>
                    <activevideoangle>false</activevideoangle>
                    <activeaudioangle>false</activeaudioangle>
                    <clip id="clip-1"/>
                  </angle>
                  <angle>
                    <activevideoangle>false</activevideoangle>
                    <activeaudioangle>false</activeaudioangle>
                    <clip id="clip-2"/>
                  </angle>
                  <angle>
                    <activevideoangle>false</activevideoangle>
                    <activeaudioangle>false</activeaudioangle>
                    <clip id="clip-3"/>
                  </angle>
                  <angle>
                    <activevideoangle>false</activevideoangle>
                    <activeaudioangle>false</activeaudioangle>
                    <clip id="clip-4"/>
                  </angle>
                  <angle>
                    <activevideoangle>true</activevideoangle>
                    <activeaudioangle>true</activeaudioangle>
                    <clip id="clip-5"/>
                  </angle>
                  <angle>
                    <activevideoangle>false</activevideoangle>
                    <activeaudioangle>false</activeaudioangle>
                    <clip id="clip-6"/>
                  </angle>
                  <angle>
                    <activevideoangle>false</activevideoangle>
                    <activeaudioangle>false</activeaudioangle>
                    <clip id="clip-7"/>
                  </angle>
                  <masterclipid>clip-master</masterclipid>
                </multiclip>
              </clipitem>
              <clipitem id="cs-101">
                <duration>168</duration>
                <rate>
                  <ntsc>false</ntsc>
                  <timebase>25</timebase>
                </rate>
                <in>8025</in>
                <out>8192</out>
                <start>8025</start>
                <end>8192</end>
                <file id="src-2"/>
                <sourcetrack>
                  <mediatype>video</mediatype>
                  <trackindex>1</trackindex>
                </sourcetrack>
                <multiclip id="mcs-101">
                  <name>MCS-101</name>
                  <masterclipid>clip-master</masterclipid>
                  <collapsed>false</collapsed>
                  <angle>
                    <activevideoangle>false</activevideoangle>
                    <activeaudioangle>false</activeaudioangle>
                    <clip id="clip-1"/>
                  </angle>
                  <angle>
                    <activevideoangle>true</activevideoangle>
                    <activeaudioangle>true</activeaudioangle>
                    <clip id="clip-2"/>
                  </angle>
                  <angle>
                    <activevideoangle>false</activevideoangle>
                    <activeaudioangle>false</activeaudioangle>
                    <clip id="clip-3"/>
                  </angle>
                  <angle>
                    <activevideoangle>false</activevideoangle>
                    <activeaudioangle>false</activeaudioangle>
                    <clip id="clip-4"/>
                  </angle>
                  <angle>
                    <activevideoangle>false</activevideoangle>
                    <activeaudioangle>false</activeaudioangle>
                    <clip id="clip-5"/>
                  </angle>
                  <angle>
                    <activevideoangle>false</activevideoangle>
                    <activeaudioangle>false</activeaudioangle>
                    <clip id="clip-6"/>
                  </angle>
                  <angle>
                    <activevideoangle>false</activevideoangle>
                    <activeaudioangle>false</activeaudioangle>
                    <clip id="clip-7"/>
                  </angle>
                  <masterclipid>clip-master</masterclipid>
                </multiclip>
              </clipitem>
              <clipitem id="cs-102">
                <duration>80</duration>
                <rate>
                  <ntsc>false</ntsc>
                  <timebase>25</timebase>
                </rate>
                <in>8192</in>
                <out>8271</out>
                <start>8192</start>
                <end>8271</end>
                <file id="src-3"/>
                <sourcetrack>
                  <mediatype>video</mediatype>
                  <trackindex>1</trackindex>
                </sourcetrack>
                <multiclip id="mcs-102">
                  <name>MCS-102</name>
                  <masterclipid>clip-master</masterclipid>
                  <collapsed>false</collapsed>
                  <angle>
                    <activevideoangle>false</activevideoangle>
                    <activeaudioangle>false</activeaudioangle>
                    <clip id="clip-1"/>
                  </angle>
                  <angle>
                    <activevideoangle>false</activevideoangle>
                    <activeaudioangle>false</activeaudioangle>
                    <clip id="clip-2"/>
                  </angle>
                  <angle>
                    <activevideoangle>true</activevideoangle>
                    <activeaudioangle>true</activeaudioangle>
                    <clip id="clip-3"/>
                  </angle>
                  <angle>
                    <activevideoangle>false</activevideoangle>
                    <activeaudioangle>false</activeaudioangle>
                    <clip id="clip-4"/>
                  </angle>
                  <angle>
                    <activevideoangle>false</activevideoangle>
                    <activeaudioangle>false</activeaudioangle>
                    <clip id="clip-5"/>
                  </angle>
                  <angle>
                    <activevideoangle>false</activevideoangle>
                    <activeaudioangle>false</activeaudioangle>
                    <clip id="clip-6"/>
                  </angle>
                  <angle>
                    <activevideoangle>false</activevideoangle>
                    <activeaudioangle>false</activeaudioangle>
                    <clip id="clip-7"/>
                  </angle>
                  <masterclipid>clip-master</masterclipid>
                </multiclip>
              </clipitem>
              <clipitem id="cs-103">
                <duration>65</duration>
                <rate>
                  <ntsc>false</ntsc>
                  <timebase>25</timebase>
                </rate>
                <in>8271</in>
                <out>8335</out>
                <start>8271</start>
                <end>8335</end>
                <file id="src-1"/>
                <sourcetrack>
                  <mediatype>video</mediatype>
                  <trackindex>1</trackindex>
                </sourcetrack>
                <multiclip id="mcs-103">
                  <name>MCS-103</name>
                  <masterclipid>clip-master</masterclipid>
                  <collapsed>false</collapsed>
                  <angle>
                    <activevideoangle>true</activevideoangle>
                    <activeaudioangle>true</activeaudioangle>
                    <clip id="clip-1"/>
                  </angle>
                  <angle>
                    <activevideoangle>false</activevideoangle>
                    <activeaudioangle>false</activeaudioangle>
                    <clip id="clip-2"/>
                  </angle>
                  <angle>
                    <activevideoangle>false</activevideoangle>
                    <activeaudioangle>false</activeaudioangle>
                    <clip id="clip-3"/>
                  </angle>
                  <angle>
                    <activevideoangle>false</activevideoangle>
                    <activeaudioangle>false</activeaudioangle>
                    <clip id="clip-4"/>
                  </angle>
                  <angle>
                    <activevideoangle>false</activevideoangle>
                    <activeaudioangle>false</activeaudioangle>
                    <clip id="clip-5"/>
                  </angle>
                  <angle>
                    <activevideoangle>false</activevideoangle>
                    <activeaudioangle>false</activeaudioangle>
                    <clip id="clip-6"/>
                  </angle>
                  <angle>
                    <activevideoangle>false</activevideoangle>
                    <activeaudioangle>false</activeaudioangle>
                    <clip id="clip-7"/>
                  </angle>
                  <masterclipid>clip-master</masterclipid>
                </multiclip>
              </clipitem>
              <clipitem id="cs-104">
                <duration>185</duration>
                <rate>
                  <ntsc>false</ntsc>
                  <timebase>25</timebase>
                </rate>
                <in>8335</in>
                <out>8519</out>
                <start>8335</start>
                <end>8519</end>
                <file id="src-2"/>
                <sourcetrack>
                  <mediatype>video</mediatype>
                  <trackindex>1</trackindex>
                </sourcetrack>
                <multiclip id="mcs-104">
                  <name>MCS-104</name>
                  <masterclipid>clip-master</masterclipid>
                  <collapsed>false</collapsed>
                  <angle>
                    <activevideoangle>false</activevideoangle>
                    <activeaudioangle>false</activeaudioangle>
                    <clip id="clip-1"/>
                  </angle>
                  <angle>
                    <activevideoangle>true</activevideoangle>
                    <activeaudioangle>true</activeaudioangle>
                    <clip id="clip-2"/>
                  </angle>
                  <angle>
                    <activevideoangle>false</activevideoangle>
                    <activeaudioangle>false</activeaudioangle>
                    <clip id="clip-3"/>
                  </angle>
                  <angle>
                    <activevideoangle>false</activevideoangle>
                    <activeaudioangle>false</activeaudioangle>
                    <clip id="clip-4"/>
                  </angle>
                  <angle>
                    <activevideoangle>false</activevideoangle>
                    <activeaudioangle>false</activeaudioangle>
                    <clip id="clip-5"/>
                  </angle>
                  <angle>
                    <activevideoangle>false</activevideoangle>
                    <activeaudioangle>false</activeaudioangle>
                    <clip id="clip-6"/>
                  </angle>
                  <angle>
                    <activevideoangle>false</activevideoangle>
                    <activeaudioangle>false</activeaudioangle>
                    <clip id="clip-7"/>
                  </angle>
                  <masterclipid>clip-master</masterclipid>
                </multiclip>
              </clipitem>
              <clipitem id="cs-105">
                <duration>169</duration>
                <rate>
                  <ntsc>false</ntsc>
                  <timebase>25</timebase>
                </rate>
                <in>8519</in>
                <out>8687</out>
                <start>8519</start>
                <end>8687</end>
                <file id="src-4"/>
                <sourcetrack>
                  <mediatype>video</mediatype>
                  <trackindex>1</trackindex>
                </sourcetrack>
                <multiclip id="mcs-105">
                  <name>MCS-105</name>
                  <masterclipid>clip-master</masterclipid>
                  <collapsed>false</collapsed>
                  <angle>
                    <activevideoangle>false</activevideoangle>
                    <activeaudioangle>false</activeaudioangle>
                    <clip id="clip-1"/>
                  </angle>
                  <angle>
                    <activevideoangle>false</activevideoangle>
                    <activeaudioangle>false</activeaudioangle>
                    <clip id="clip-2"/>
                  </angle>
                  <angle>
                    <activevideoangle>false</activevideoangle>
                    <activeaudioangle>false</activeaudioangle>
                    <clip id="clip-3"/>
                  </angle>
                  <angle>
                    <activevideoangle>true</activevideoangle>
                    <activeaudioangle>true</activeaudioangle>
                    <clip id="clip-4"/>
                  </angle>
                  <angle>
                    <activevideoangle>false</activevideoangle>
                    <activeaudioangle>false</activeaudioangle>
                    <clip id="clip-5"/>
                  </angle>
                  <angle>
                    <activevideoangle>false</activevideoangle>
                    <activeaudioangle>false</activeaudioangle>
                    <clip id="clip-6"/>
                  </angle>
                  <angle>
                    <activevideoangle>false</activevideoangle>
                    <activeaudioangle>false</activeaudioangle>
                    <clip id="clip-7"/>
                  </angle>
                  <masterclipid>clip-master</masterclipid>
                </multiclip>
              </clipitem>
              <clipitem id="cs-106">
                <duration>68</duration>
                <rate>
                  <ntsc>false</ntsc>
                  <timebase>25</timebase>
                </rate>
                <in>8687</in>
                <out>8754</out>
                <start>8687</start>
                <end>8754</end>
                <file id="src-3"/>
                <sourcetrack>
                  <mediatype>video</mediatype>
                  <trackindex>1</trackindex>
                </sourcetrack>
                <multiclip id="mcs-106">
                  <name>MCS-106</name>
                  <masterclipid>clip-master</masterclipid>
                  <collapsed>false</collapsed>
                  <angle>
                    <activevideoangle>false</activevideoangle>
                    <activeaudioangle>false</activeaudioangle>
                    <clip id="clip-1"/>
                  </angle>
                  <angle>
                    <activevideoangle>false</activevideoangle>
                    <activeaudioangle>false</activeaudioangle>
                    <clip id="clip-2"/>
                  </angle>
                  <angle>
                    <activevideoangle>true</activevideoangle>
                    <activeaudioangle>true</activeaudioangle>
                    <clip id="clip-3"/>
                  </angle>
                  <angle>
                    <activevideoangle>false</activevideoangle>
                    <activeaudioangle>false</activeaudioangle>
                    <clip id="clip-4"/>
                  </angle>
                  <angle>
                    <activevideoangle>false</activevideoangle>
                    <activeaudioangle>false</activeaudioangle>
                    <clip id="clip-5"/>
                  </angle>
                  <angle>
                    <activevideoangle>false</activevideoangle>
                    <activeaudioangle>false</activeaudioangle>
                    <clip id="clip-6"/>
                  </angle>
                  <angle>
                    <activevideoangle>false</activevideoangle>
                    <activeaudioangle>false</activeaudioangle>
                    <clip id="clip-7"/>
                  </angle>
                  <masterclipid>clip-master</masterclipid>
                </multiclip>
              </clipitem>
              <clipitem id="cs-107">
                <duration>64</duration>
                <rate>
                  <ntsc>false</ntsc>
                  <timebase>25</timebase>
                </rate>
                <in>8754</in>
                <out>8817</out>
                <start>8754</start>
                <end>8817</end>
                <file id="src-6"/>
                <sourcetrack>
                  <mediatype>video</mediatype>
                  <trackindex>1</trackindex>
                </sourcetrack>
                <multiclip id="mcs-107">
                  <name>MCS-107</name>
                  <masterclipid>clip-master</masterclipid>
                  <collapsed>false</collapsed>
                  <angle>
                    <activevideoangle>false</activevideoangle>
                    <activeaudioangle>false</activeaudioangle>
                    <clip id="clip-1"/>
                  </angle>
                  <angle>
                    <activevideoangle>false</activevideoangle>
                    <activeaudioangle>false</activeaudioangle>
                    <clip id="clip-2"/>
                  </angle>
                  <angle>
                    <activevideoangle>false</activevideoangle>
                    <activeaudioangle>false</activeaudioangle>
                    <clip id="clip-3"/>
                  </angle>
                  <angle>
                    <activevideoangle>false</activevideoangle>
                    <activeaudioangle>false</activeaudioangle>
                    <clip id="clip-4"/>
                  </angle>
                  <angle>
                    <activevideoangle>false</activevideoangle>
                    <activeaudioangle>false</activeaudioangle>
                    <clip id="clip-5"/>
                  </angle>
                  <angle>
                    <activevideoangle>true</activevideoangle>
                    <activeaudioangle>true</activeaudioangle>
                    <clip id="clip-6"/>
                  </angle>
                  <angle>
                    <activevideoangle>false</activevideoangle>
                    <activeaudioangle>false</activeaudioangle>
                    <clip id="clip-7"/>
                  </angle>
                  <masterclipid>clip-master</masterclipid>
                </multiclip>
              </clipitem>
              <clipitem id="cs-108">
                <duration>73</duration>
                <rate>
                  <ntsc>false</ntsc>
                  <timebase>25</timebase>
                </rate>
                <in>8817</in>
                <out>8889</out>
                <start>8817</start>
                <end>8889</end>
                <file id="src-5"/>
                <sourcetrack>
                  <mediatype>video</mediatype>
                  <trackindex>1</trackindex>
                </sourcetrack>
                <multiclip id="mcs-108">
                  <name>MCS-108</name>
                  <masterclipid>clip-master</masterclipid>
                  <collapsed>false</collapsed>
                  <angle>
                    <activevideoangle>false</activevideoangle>
                    <activeaudioangle>false</activeaudioangle>
                    <clip id="clip-1"/>
                  </angle>
                  <angle>
                    <activevideoangle>false</activevideoangle>
                    <activeaudioangle>false</activeaudioangle>
                    <clip id="clip-2"/>
                  </angle>
                  <angle>
                    <activevideoangle>false</activevideoangle>
                    <activeaudioangle>false</activeaudioangle>
                    <clip id="clip-3"/>
                  </angle>
                  <angle>
                    <activevideoangle>false</activevideoangle>
                    <activeaudioangle>false</activeaudioangle>
                    <clip id="clip-4"/>
                  </angle>
                  <angle>
                    <activevideoangle>true</activevideoangle>
                    <activeaudioangle>true</activeaudioangle>
                    <clip id="clip-5"/>
                  </angle>
                  <angle>
                    <activevideoangle>false</activevideoangle>
                    <activeaudioangle>false</activeaudioangle>
                    <clip id="clip-6"/>
                  </angle>
                  <angle>
                    <activevideoangle>false</activevideoangle>
                    <activeaudioangle>false</activeaudioangle>
                    <clip id="clip-7"/>
                  </angle>
                  <masterclipid>clip-master</masterclipid>
                </multiclip>
              </clipitem>
              <clipitem id="cs-109">
                <duration>86</duration>
                <rate>
                  <ntsc>false</ntsc>
                  <timebase>25</timebase>
                </rate>
                <in>8889</in>
                <out>8974</out>
                <start>8889</start>
                <end>8974</end>
                <file id="src-3"/>
                <sourcetrack>
                  <mediatype>video</mediatype>
                  <trackindex>1</trackindex>
                </sourcetrack>
                <multiclip id="mcs-109">
                  <name>MCS-109</name>
                  <masterclipid>clip-master</masterclipid>
                  <collapsed>false</collapsed>
                  <angle>
                    <activevideoangle>false</activevideoangle>
                    <activeaudioangle>false</activeaudioangle>
                    <clip id="clip-1"/>
                  </angle>
                  <angle>
                    <activevideoangle>false</activevideoangle>
                    <activeaudioangle>false</activeaudioangle>
                    <clip id="clip-2"/>
                  </angle>
                  <angle>
                    <activevideoangle>true</activevideoangle>
                    <activeaudioangle>true</activeaudioangle>
                    <clip id="clip-3"/>
                  </angle>
                  <angle>
                    <activevideoangle>false</activevideoangle>
                    <activeaudioangle>false</activeaudioangle>
                    <clip id="clip-4"/>
                  </angle>
                  <angle>
                    <activevideoangle>false</activevideoangle>
                    <activeaudioangle>false</activeaudioangle>
                    <clip id="clip-5"/>
                  </angle>
                  <angle>
                    <activevideoangle>false</activevideoangle>
                    <activeaudioangle>false</activeaudioangle>
                    <clip id="clip-6"/>
                  </angle>
                  <angle>
                    <activevideoangle>false</activevideoangle>
                    <activeaudioangle>false</activeaudioangle>
                    <clip id="clip-7"/>
                  </angle>
                  <masterclipid>clip-master</masterclipid>
                </multiclip>
              </clipitem>
              <clipitem id="cs-110">
                <duration>147</duration>
                <rate>
                  <ntsc>false</ntsc>
                  <timebase>25</timebase>
                </rate>
                <in>8974</in>
                <out>9120</out>
                <start>8974</start>
                <end>9120</end>
                <file id="src-2"/>
                <sourcetrack>
                  <mediatype>video</mediatype>
                  <trackindex>1</trackindex>
                </sourcetrack>
                <multiclip id="mcs-110">
                  <name>MCS-110</name>
                  <masterclipid>clip-master</masterclipid>
                  <collapsed>false</collapsed>
                  <angle>
                    <activevideoangle>false</activevideoangle>
                    <activeaudioangle>false</activeaudioangle>
                    <clip id="clip-1"/>
                  </angle>
                  <angle>
                    <activevideoangle>true</activevideoangle>
                    <activeaudioangle>true</activeaudioangle>
                    <clip id="clip-2"/>
                  </angle>
                  <angle>
                    <activevideoangle>false</activevideoangle>
                    <activeaudioangle>false</activeaudioangle>
                    <clip id="clip-3"/>
                  </angle>
                  <angle>
                    <activevideoangle>false</activevideoangle>
                    <activeaudioangle>false</activeaudioangle>
                    <clip id="clip-4"/>
                  </angle>
                  <angle>
                    <activevideoangle>false</activevideoangle>
                    <activeaudioangle>false</activeaudioangle>
                    <clip id="clip-5"/>
                  </angle>
                  <angle>
                    <activevideoangle>false</activevideoangle>
                    <activeaudioangle>false</activeaudioangle>
                    <clip id="clip-6"/>
                  </angle>
                  <angle>
                    <activevideoangle>false</activevideoangle>
                    <activeaudioangle>false</activeaudioangle>
                    <clip id="clip-7"/>
                  </angle>
                  <masterclipid>clip-master</masterclipid>
                </multiclip>
              </clipitem>
              <clipitem id="cs-111">
                <duration>62</duration>
                <rate>
                  <ntsc>false</ntsc>
                  <timebase>25</timebase>
                </rate>
                <in>9120</in>
                <out>9181</out>
                <start>9120</start>
                <end>9181</end>
                <file id="src-3"/>
                <sourcetrack>
                  <mediatype>video</mediatype>
                  <trackindex>1</trackindex>
                </sourcetrack>
                <multiclip id="mcs-111">
                  <name>MCS-111</name>
                  <masterclipid>clip-master</masterclipid>
                  <collapsed>false</collapsed>
                  <angle>
                    <activevideoangle>false</activevideoangle>
                    <activeaudioangle>false</activeaudioangle>
                    <clip id="clip-1"/>
                  </angle>
                  <angle>
                    <activevideoangle>false</activevideoangle>
                    <activeaudioangle>false</activeaudioangle>
                    <clip id="clip-2"/>
                  </angle>
                  <angle>
                    <activevideoangle>true</activevideoangle>
                    <activeaudioangle>true</activeaudioangle>
                    <clip id="clip-3"/>
                  </angle>
                  <angle>
                    <activevideoangle>false</activevideoangle>
                    <activeaudioangle>false</activeaudioangle>
                    <clip id="clip-4"/>
                  </angle>
                  <angle>
                    <activevideoangle>false</activevideoangle>
                    <activeaudioangle>false</activeaudioangle>
                    <clip id="clip-5"/>
                  </angle>
                  <angle>
                    <activevideoangle>false</activevideoangle>
                    <activeaudioangle>false</activeaudioangle>
                    <clip id="clip-6"/>
                  </angle>
                  <angle>
                    <activevideoangle>false</activevideoangle>
                    <activeaudioangle>false</activeaudioangle>
                    <clip id="clip-7"/>
                  </angle>
                  <masterclipid>clip-master</masterclipid>
                </multiclip>
              </clipitem>
              <clipitem id="cs-112">
                <duration>75</duration>
                <rate>
                  <ntsc>false</ntsc>
                  <timebase>25</timebase>
                </rate>
                <in>9181</in>
                <out>9255</out>
                <start>9181</start>
                <end>9255</end>
                <file id="src-4"/>
                <sourcetrack>
                  <mediatype>video</mediatype>
                  <trackindex>1</trackindex>
                </sourcetrack>
                <multiclip id="mcs-112">
                  <name>MCS-112</name>
                  <masterclipid>clip-master</masterclipid>
                  <collapsed>false</collapsed>
                  <angle>
                    <activevideoangle>false</activevideoangle>
                    <activeaudioangle>false</activeaudioangle>
                    <clip id="clip-1"/>
                  </angle>
                  <angle>
                    <activevideoangle>false</activevideoangle>
                    <activeaudioangle>false</activeaudioangle>
                    <clip id="clip-2"/>
                  </angle>
                  <angle>
                    <activevideoangle>false</activevideoangle>
                    <activeaudioangle>false</activeaudioangle>
                    <clip id="clip-3"/>
                  </angle>
                  <angle>
                    <activevideoangle>true</activevideoangle>
                    <activeaudioangle>true</activeaudioangle>
                    <clip id="clip-4"/>
                  </angle>
                  <angle>
                    <activevideoangle>false</activevideoangle>
                    <activeaudioangle>false</activeaudioangle>
                    <clip id="clip-5"/>
                  </angle>
                  <angle>
                    <activevideoangle>false</activevideoangle>
                    <activeaudioangle>false</activeaudioangle>
                    <clip id="clip-6"/>
                  </angle>
                  <angle>
                    <activevideoangle>false</activevideoangle>
                    <activeaudioangle>false</activeaudioangle>
                    <clip id="clip-7"/>
                  </angle>
                  <masterclipid>clip-master</masterclipid>
                </multiclip>
              </clipitem>
              <clipitem id="cs-113">
                <duration>47</duration>
                <rate>
                  <ntsc>false</ntsc>
                  <timebase>25</timebase>
                </rate>
                <in>9255</in>
                <out>9301</out>
                <start>9255</start>
                <end>9301</end>
                <file id="src-1"/>
                <sourcetrack>
                  <mediatype>video</mediatype>
                  <trackindex>1</trackindex>
                </sourcetrack>
                <multiclip id="mcs-113">
                  <name>MCS-113</name>
                  <masterclipid>clip-master</masterclipid>
                  <collapsed>false</collapsed>
                  <angle>
                    <activevideoangle>true</activevideoangle>
                    <activeaudioangle>true</activeaudioangle>
                    <clip id="clip-1"/>
                  </angle>
                  <angle>
                    <activevideoangle>false</activevideoangle>
                    <activeaudioangle>false</activeaudioangle>
                    <clip id="clip-2"/>
                  </angle>
                  <angle>
                    <activevideoangle>false</activevideoangle>
                    <activeaudioangle>false</activeaudioangle>
                    <clip id="clip-3"/>
                  </angle>
                  <angle>
                    <activevideoangle>false</activevideoangle>
                    <activeaudioangle>false</activeaudioangle>
                    <clip id="clip-4"/>
                  </angle>
                  <angle>
                    <activevideoangle>false</activevideoangle>
                    <activeaudioangle>false</activeaudioangle>
                    <clip id="clip-5"/>
                  </angle>
                  <angle>
                    <activevideoangle>false</activevideoangle>
                    <activeaudioangle>false</activeaudioangle>
                    <clip id="clip-6"/>
                  </angle>
                  <angle>
                    <activevideoangle>false</activevideoangle>
                    <activeaudioangle>false</activeaudioangle>
                    <clip id="clip-7"/>
                  </angle>
                  <masterclipid>clip-master</masterclipid>
                </multiclip>
              </clipitem>
              <clipitem id="cs-114">
                <duration>127</duration>
                <rate>
                  <ntsc>false</ntsc>
                  <timebase>25</timebase>
                </rate>
                <in>9301</in>
                <out>9427</out>
                <start>9301</start>
                <end>9427</end>
                <file id="src-3"/>
                <sourcetrack>
                  <mediatype>video</mediatype>
                  <trackindex>1</trackindex>
                </sourcetrack>
                <multiclip id="mcs-114">
                  <name>MCS-114</name>
                  <masterclipid>clip-master</masterclipid>
                  <collapsed>false</collapsed>
                  <angle>
                    <activevideoangle>false</activevideoangle>
                    <activeaudioangle>false</activeaudioangle>
                    <clip id="clip-1"/>
                  </angle>
                  <angle>
                    <activevideoangle>false</activevideoangle>
                    <activeaudioangle>false</activeaudioangle>
                    <clip id="clip-2"/>
                  </angle>
                  <angle>
                    <activevideoangle>true</activevideoangle>
                    <activeaudioangle>true</activeaudioangle>
                    <clip id="clip-3"/>
                  </angle>
                  <angle>
                    <activevideoangle>false</activevideoangle>
                    <activeaudioangle>false</activeaudioangle>
                    <clip id="clip-4"/>
                  </angle>
                  <angle>
                    <activevideoangle>false</activevideoangle>
                    <activeaudioangle>false</activeaudioangle>
                    <clip id="clip-5"/>
                  </angle>
                  <angle>
                    <activevideoangle>false</activevideoangle>
                    <activeaudioangle>false</activeaudioangle>
                    <clip id="clip-6"/>
                  </angle>
                  <angle>
                    <activevideoangle>false</activevideoangle>
                    <activeaudioangle>false</activeaudioangle>
                    <clip id="clip-7"/>
                  </angle>
                  <masterclipid>clip-master</masterclipid>
                </multiclip>
              </clipitem>
              <clipitem id="cs-115">
                <duration>62</duration>
                <rate>
                  <ntsc>false</ntsc>
                  <timebase>25</timebase>
                </rate>
                <in>9427</in>
                <out>9488</out>
                <start>9427</start>
                <end>9488</end>
                <file id="src-2"/>
                <sourcetrack>
                  <mediatype>video</mediatype>
                  <trackindex>1</trackindex>
                </sourcetrack>
                <multiclip id="mcs-115">
                  <name>MCS-115</name>
                  <masterclipid>clip-master</masterclipid>
                  <collapsed>false</collapsed>
                  <angle>
                    <activevideoangle>false</activevideoangle>
                    <activeaudioangle>false</activeaudioangle>
                    <clip id="clip-1"/>
                  </angle>
                  <angle>
                    <activevideoangle>true</activevideoangle>
                    <activeaudioangle>true</activeaudioangle>
                    <clip id="clip-2"/>
                  </angle>
                  <angle>
                    <activevideoangle>false</activevideoangle>
                    <activeaudioangle>false</activeaudioangle>
                    <clip id="clip-3"/>
                  </angle>
                  <angle>
                    <activevideoangle>false</activevideoangle>
                    <activeaudioangle>false</activeaudioangle>
                    <clip id="clip-4"/>
                  </angle>
                  <angle>
                    <activevideoangle>false</activevideoangle>
                    <activeaudioangle>false</activeaudioangle>
                    <clip id="clip-5"/>
                  </angle>
                  <angle>
                    <activevideoangle>false</activevideoangle>
                    <activeaudioangle>false</activeaudioangle>
                    <clip id="clip-6"/>
                  </angle>
                  <angle>
                    <activevideoangle>false</activevideoangle>
                    <activeaudioangle>false</activeaudioangle>
                    <clip id="clip-7"/>
                  </angle>
                  <masterclipid>clip-master</masterclipid>
                </multiclip>
              </clipitem>
              <clipitem id="cs-116">
                <duration>91</duration>
                <rate>
                  <ntsc>false</ntsc>
                  <timebase>25</timebase>
                </rate>
                <in>9488</in>
                <out>9578</out>
                <start>9488</start>
                <end>9578</end>
                <file id="src-3"/>
                <sourcetrack>
                  <mediatype>video</mediatype>
                  <trackindex>1</trackindex>
                </sourcetrack>
                <multiclip id="mcs-116">
                  <name>MCS-116</name>
                  <masterclipid>clip-master</masterclipid>
                  <collapsed>false</collapsed>
                  <angle>
                    <activevideoangle>false</activevideoangle>
                    <activeaudioangle>false</activeaudioangle>
                    <clip id="clip-1"/>
                  </angle>
                  <angle>
                    <activevideoangle>false</activevideoangle>
                    <activeaudioangle>false</activeaudioangle>
                    <clip id="clip-2"/>
                  </angle>
                  <angle>
                    <activevideoangle>true</activevideoangle>
                    <activeaudioangle>true</activeaudioangle>
                    <clip id="clip-3"/>
                  </angle>
                  <angle>
                    <activevideoangle>false</activevideoangle>
                    <activeaudioangle>false</activeaudioangle>
                    <clip id="clip-4"/>
                  </angle>
                  <angle>
                    <activevideoangle>false</activevideoangle>
                    <activeaudioangle>false</activeaudioangle>
                    <clip id="clip-5"/>
                  </angle>
                  <angle>
                    <activevideoangle>false</activevideoangle>
                    <activeaudioangle>false</activeaudioangle>
                    <clip id="clip-6"/>
                  </angle>
                  <angle>
                    <activevideoangle>false</activevideoangle>
                    <activeaudioangle>false</activeaudioangle>
                    <clip id="clip-7"/>
                  </angle>
                  <masterclipid>clip-master</masterclipid>
                </multiclip>
              </clipitem>
              <clipitem id="cs-117">
                <duration>146</duration>
                <rate>
                  <ntsc>false</ntsc>
                  <timebase>25</timebase>
                </rate>
                <in>9578</in>
                <out>9723</out>
                <start>9578</start>
                <end>9723</end>
                <file id="src-4"/>
                <sourcetrack>
                  <mediatype>video</mediatype>
                  <trackindex>1</trackindex>
                </sourcetrack>
                <multiclip id="mcs-117">
                  <name>MCS-117</name>
                  <masterclipid>clip-master</masterclipid>
                  <collapsed>false</collapsed>
                  <angle>
                    <activevideoangle>false</activevideoangle>
                    <activeaudioangle>false</activeaudioangle>
                    <clip id="clip-1"/>
                  </angle>
                  <angle>
                    <activevideoangle>false</activevideoangle>
                    <activeaudioangle>false</activeaudioangle>
                    <clip id="clip-2"/>
                  </angle>
                  <angle>
                    <activevideoangle>false</activevideoangle>
                    <activeaudioangle>false</activeaudioangle>
                    <clip id="clip-3"/>
                  </angle>
                  <angle>
                    <activevideoangle>true</activevideoangle>
                    <activeaudioangle>true</activeaudioangle>
                    <clip id="clip-4"/>
                  </angle>
                  <angle>
                    <activevideoangle>false</activevideoangle>
                    <activeaudioangle>false</activeaudioangle>
                    <clip id="clip-5"/>
                  </angle>
                  <angle>
                    <activevideoangle>false</activevideoangle>
                    <activeaudioangle>false</activeaudioangle>
                    <clip id="clip-6"/>
                  </angle>
                  <angle>
                    <activevideoangle>false</activevideoangle>
                    <activeaudioangle>false</activeaudioangle>
                    <clip id="clip-7"/>
                  </angle>
                  <masterclipid>clip-master</masterclipid>
                </multiclip>
              </clipitem>
              <clipitem id="cs-118">
                <duration>48</duration>
                <rate>
                  <ntsc>false</ntsc>
                  <timebase>25</timebase>
                </rate>
                <in>9723</in>
                <out>9770</out>
                <start>9723</start>
                <end>9770</end>
                <file id="src-2"/>
                <sourcetrack>
                  <mediatype>video</mediatype>
                  <trackindex>1</trackindex>
                </sourcetrack>
                <multiclip id="mcs-118">
                  <name>MCS-118</name>
                  <masterclipid>clip-master</masterclipid>
                  <collapsed>false</collapsed>
                  <angle>
                    <activevideoangle>false</activevideoangle>
                    <activeaudioangle>false</activeaudioangle>
                    <clip id="clip-1"/>
                  </angle>
                  <angle>
                    <activevideoangle>true</activevideoangle>
                    <activeaudioangle>true</activeaudioangle>
                    <clip id="clip-2"/>
                  </angle>
                  <angle>
                    <activevideoangle>false</activevideoangle>
                    <activeaudioangle>false</activeaudioangle>
                    <clip id="clip-3"/>
                  </angle>
                  <angle>
                    <activevideoangle>false</activevideoangle>
                    <activeaudioangle>false</activeaudioangle>
                    <clip id="clip-4"/>
                  </angle>
                  <angle>
                    <activevideoangle>false</activevideoangle>
                    <activeaudioangle>false</activeaudioangle>
                    <clip id="clip-5"/>
                  </angle>
                  <angle>
                    <activevideoangle>false</activevideoangle>
                    <activeaudioangle>false</activeaudioangle>
                    <clip id="clip-6"/>
                  </angle>
                  <angle>
                    <activevideoangle>false</activevideoangle>
                    <activeaudioangle>false</activeaudioangle>
                    <clip id="clip-7"/>
                  </angle>
                  <masterclipid>clip-master</masterclipid>
                </multiclip>
              </clipitem>
              <clipitem id="cs-119">
                <duration>148</duration>
                <rate>
                  <ntsc>false</ntsc>
                  <timebase>25</timebase>
                </rate>
                <in>9770</in>
                <out>9917</out>
                <start>9770</start>
                <end>9917</end>
                <file id="src-3"/>
                <sourcetrack>
                  <mediatype>video</mediatype>
                  <trackindex>1</trackindex>
                </sourcetrack>
                <multiclip id="mcs-119">
                  <name>MCS-119</name>
                  <masterclipid>clip-master</masterclipid>
                  <collapsed>false</collapsed>
                  <angle>
                    <activevideoangle>false</activevideoangle>
                    <activeaudioangle>false</activeaudioangle>
                    <clip id="clip-1"/>
                  </angle>
                  <angle>
                    <activevideoangle>false</activevideoangle>
                    <activeaudioangle>false</activeaudioangle>
                    <clip id="clip-2"/>
                  </angle>
                  <angle>
                    <activevideoangle>true</activevideoangle>
                    <activeaudioangle>true</activeaudioangle>
                    <clip id="clip-3"/>
                  </angle>
                  <angle>
                    <activevideoangle>false</activevideoangle>
                    <activeaudioangle>false</activeaudioangle>
                    <clip id="clip-4"/>
                  </angle>
                  <angle>
                    <activevideoangle>false</activevideoangle>
                    <activeaudioangle>false</activeaudioangle>
                    <clip id="clip-5"/>
                  </angle>
                  <angle>
                    <activevideoangle>false</activevideoangle>
                    <activeaudioangle>false</activeaudioangle>
                    <clip id="clip-6"/>
                  </angle>
                  <angle>
                    <activevideoangle>false</activevideoangle>
                    <activeaudioangle>false</activeaudioangle>
                    <clip id="clip-7"/>
                  </angle>
                  <masterclipid>clip-master</masterclipid>
                </multiclip>
              </clipitem>
              <clipitem id="cs-120">
                <duration>102</duration>
                <rate>
                  <ntsc>false</ntsc>
                  <timebase>25</timebase>
                </rate>
                <in>9917</in>
                <out>10018</out>
                <start>9917</start>
                <end>10018</end>
                <file id="src-5"/>
                <sourcetrack>
                  <mediatype>video</mediatype>
                  <trackindex>1</trackindex>
                </sourcetrack>
                <multiclip id="mcs-120">
                  <name>MCS-120</name>
                  <masterclipid>clip-master</masterclipid>
                  <collapsed>false</collapsed>
                  <angle>
                    <activevideoangle>false</activevideoangle>
                    <activeaudioangle>false</activeaudioangle>
                    <clip id="clip-1"/>
                  </angle>
                  <angle>
                    <activevideoangle>false</activevideoangle>
                    <activeaudioangle>false</activeaudioangle>
                    <clip id="clip-2"/>
                  </angle>
                  <angle>
                    <activevideoangle>false</activevideoangle>
                    <activeaudioangle>false</activeaudioangle>
                    <clip id="clip-3"/>
                  </angle>
                  <angle>
                    <activevideoangle>false</activevideoangle>
                    <activeaudioangle>false</activeaudioangle>
                    <clip id="clip-4"/>
                  </angle>
                  <angle>
                    <activevideoangle>true</activevideoangle>
                    <activeaudioangle>true</activeaudioangle>
                    <clip id="clip-5"/>
                  </angle>
                  <angle>
                    <activevideoangle>false</activevideoangle>
                    <activeaudioangle>false</activeaudioangle>
                    <clip id="clip-6"/>
                  </angle>
                  <angle>
                    <activevideoangle>false</activevideoangle>
                    <activeaudioangle>false</activeaudioangle>
                    <clip id="clip-7"/>
                  </angle>
                  <masterclipid>clip-master</masterclipid>
                </multiclip>
              </clipitem>
              <clipitem id="cs-121">
                <duration>47</duration>
                <rate>
                  <ntsc>false</ntsc>
                  <timebase>25</timebase>
                </rate>
                <in>10018</in>
                <out>10064</out>
                <start>10018</start>
                <end>10064</end>
                <file id="src-2"/>
                <sourcetrack>
                  <mediatype>video</mediatype>
                  <trackindex>1</trackindex>
                </sourcetrack>
                <multiclip id="mcs-121">
                  <name>MCS-121</name>
                  <masterclipid>clip-master</masterclipid>
                  <collapsed>false</collapsed>
                  <angle>
                    <activevideoangle>false</activevideoangle>
                    <activeaudioangle>false</activeaudioangle>
                    <clip id="clip-1"/>
                  </angle>
                  <angle>
                    <activevideoangle>true</activevideoangle>
                    <activeaudioangle>true</activeaudioangle>
                    <clip id="clip-2"/>
                  </angle>
                  <angle>
                    <activevideoangle>false</activevideoangle>
                    <activeaudioangle>false</activeaudioangle>
                    <clip id="clip-3"/>
                  </angle>
                  <angle>
                    <activevideoangle>false</activevideoangle>
                    <activeaudioangle>false</activeaudioangle>
                    <clip id="clip-4"/>
                  </angle>
                  <angle>
                    <activevideoangle>false</activevideoangle>
                    <activeaudioangle>false</activeaudioangle>
                    <clip id="clip-5"/>
                  </angle>
                  <angle>
                    <activevideoangle>false</activevideoangle>
                    <activeaudioangle>false</activeaudioangle>
                    <clip id="clip-6"/>
                  </angle>
                  <angle>
                    <activevideoangle>false</activevideoangle>
                    <activeaudioangle>false</activeaudioangle>
                    <clip id="clip-7"/>
                  </angle>
                  <masterclipid>clip-master</masterclipid>
                </multiclip>
              </clipitem>
              <clipitem id="cs-122">
                <duration>58</duration>
                <rate>
                  <ntsc>false</ntsc>
                  <timebase>25</timebase>
                </rate>
                <in>10064</in>
                <out>10121</out>
                <start>10064</start>
                <end>10121</end>
                <file id="src-1"/>
                <sourcetrack>
                  <mediatype>video</mediatype>
                  <trackindex>1</trackindex>
                </sourcetrack>
                <multiclip id="mcs-122">
                  <name>MCS-122</name>
                  <masterclipid>clip-master</masterclipid>
                  <collapsed>false</collapsed>
                  <angle>
                    <activevideoangle>true</activevideoangle>
                    <activeaudioangle>true</activeaudioangle>
                    <clip id="clip-1"/>
                  </angle>
                  <angle>
                    <activevideoangle>false</activevideoangle>
                    <activeaudioangle>false</activeaudioangle>
                    <clip id="clip-2"/>
                  </angle>
                  <angle>
                    <activevideoangle>false</activevideoangle>
                    <activeaudioangle>false</activeaudioangle>
                    <clip id="clip-3"/>
                  </angle>
                  <angle>
                    <activevideoangle>false</activevideoangle>
                    <activeaudioangle>false</activeaudioangle>
                    <clip id="clip-4"/>
                  </angle>
                  <angle>
                    <activevideoangle>false</activevideoangle>
                    <activeaudioangle>false</activeaudioangle>
                    <clip id="clip-5"/>
                  </angle>
                  <angle>
                    <activevideoangle>false</activevideoangle>
                    <activeaudioangle>false</activeaudioangle>
                    <clip id="clip-6"/>
                  </angle>
                  <angle>
                    <activevideoangle>false</activevideoangle>
                    <activeaudioangle>false</activeaudioangle>
                    <clip id="clip-7"/>
                  </angle>
                  <masterclipid>clip-master</masterclipid>
                </multiclip>
              </clipitem>
              <clipitem id="cs-123">
                <duration>60</duration>
                <rate>
                  <ntsc>false</ntsc>
                  <timebase>25</timebase>
                </rate>
                <in>10121</in>
                <out>10180</out>
                <start>10121</start>
                <end>10180</end>
                <file id="src-4"/>
                <sourcetrack>
                  <mediatype>video</mediatype>
                  <trackindex>1</trackindex>
                </sourcetrack>
                <multiclip id="mcs-123">
                  <name>MCS-123</name>
                  <masterclipid>clip-master</masterclipid>
                  <collapsed>false</collapsed>
                  <angle>
                    <activevideoangle>false</activevideoangle>
                    <activeaudioangle>false</activeaudioangle>
                    <clip id="clip-1"/>
                  </angle>
                  <angle>
                    <activevideoangle>false</activevideoangle>
                    <activeaudioangle>false</activeaudioangle>
                    <clip id="clip-2"/>
                  </angle>
                  <angle>
                    <activevideoangle>false</activevideoangle>
                    <activeaudioangle>false</activeaudioangle>
                    <clip id="clip-3"/>
                  </angle>
                  <angle>
                    <activevideoangle>true</activevideoangle>
                    <activeaudioangle>true</activeaudioangle>
                    <clip id="clip-4"/>
                  </angle>
                  <angle>
                    <activevideoangle>false</activevideoangle>
                    <activeaudioangle>false</activeaudioangle>
                    <clip id="clip-5"/>
                  </angle>
                  <angle>
                    <activevideoangle>false</activevideoangle>
                    <activeaudioangle>false</activeaudioangle>
                    <clip id="clip-6"/>
                  </angle>
                  <angle>
                    <activevideoangle>false</activevideoangle>
                    <activeaudioangle>false</activeaudioangle>
                    <clip id="clip-7"/>
                  </angle>
                  <masterclipid>clip-master</masterclipid>
                </multiclip>
              </clipitem>
              <clipitem id="cs-124">
                <duration>112</duration>
                <rate>
                  <ntsc>false</ntsc>
                  <timebase>25</timebase>
                </rate>
                <in>10180</in>
                <out>10291</out>
                <start>10180</start>
                <end>10291</end>
                <file id="src-3"/>
                <sourcetrack>
                  <mediatype>video</mediatype>
                  <trackindex>1</trackindex>
                </sourcetrack>
                <multiclip id="mcs-124">
                  <name>MCS-124</name>
                  <masterclipid>clip-master</masterclipid>
                  <collapsed>false</collapsed>
                  <angle>
                    <activevideoangle>false</activevideoangle>
                    <activeaudioangle>false</activeaudioangle>
                    <clip id="clip-1"/>
                  </angle>
                  <angle>
                    <activevideoangle>false</activevideoangle>
                    <activeaudioangle>false</activeaudioangle>
                    <clip id="clip-2"/>
                  </angle>
                  <angle>
                    <activevideoangle>true</activevideoangle>
                    <activeaudioangle>true</activeaudioangle>
                    <clip id="clip-3"/>
                  </angle>
                  <angle>
                    <activevideoangle>false</activevideoangle>
                    <activeaudioangle>false</activeaudioangle>
                    <clip id="clip-4"/>
                  </angle>
                  <angle>
                    <activevideoangle>false</activevideoangle>
                    <activeaudioangle>false</activeaudioangle>
                    <clip id="clip-5"/>
                  </angle>
                  <angle>
                    <activevideoangle>false</activevideoangle>
                    <activeaudioangle>false</activeaudioangle>
                    <clip id="clip-6"/>
                  </angle>
                  <angle>
                    <activevideoangle>false</activevideoangle>
                    <activeaudioangle>false</activeaudioangle>
                    <clip id="clip-7"/>
                  </angle>
                  <masterclipid>clip-master</masterclipid>
                </multiclip>
              </clipitem>
              <clipitem id="cs-125">
                <duration>51</duration>
                <rate>
                  <ntsc>false</ntsc>
                  <timebase>25</timebase>
                </rate>
                <in>10291</in>
                <out>10341</out>
                <start>10291</start>
                <end>10341</end>
                <file id="src-6"/>
                <sourcetrack>
                  <mediatype>video</mediatype>
                  <trackindex>1</trackindex>
                </sourcetrack>
                <multiclip id="mcs-125">
                  <name>MCS-125</name>
                  <masterclipid>clip-master</masterclipid>
                  <collapsed>false</collapsed>
                  <angle>
                    <activevideoangle>false</activevideoangle>
                    <activeaudioangle>false</activeaudioangle>
                    <clip id="clip-1"/>
                  </angle>
                  <angle>
                    <activevideoangle>false</activevideoangle>
                    <activeaudioangle>false</activeaudioangle>
                    <clip id="clip-2"/>
                  </angle>
                  <angle>
                    <activevideoangle>false</activevideoangle>
                    <activeaudioangle>false</activeaudioangle>
                    <clip id="clip-3"/>
                  </angle>
                  <angle>
                    <activevideoangle>false</activevideoangle>
                    <activeaudioangle>false</activeaudioangle>
                    <clip id="clip-4"/>
                  </angle>
                  <angle>
                    <activevideoangle>false</activevideoangle>
                    <activeaudioangle>false</activeaudioangle>
                    <clip id="clip-5"/>
                  </angle>
                  <angle>
                    <activevideoangle>true</activevideoangle>
                    <activeaudioangle>true</activeaudioangle>
                    <clip id="clip-6"/>
                  </angle>
                  <angle>
                    <activevideoangle>false</activevideoangle>
                    <activeaudioangle>false</activeaudioangle>
                    <clip id="clip-7"/>
                  </angle>
                  <masterclipid>clip-master</masterclipid>
                </multiclip>
              </clipitem>
              <clipitem id="cs-126">
                <duration>83</duration>
                <rate>
                  <ntsc>false</ntsc>
                  <timebase>25</timebase>
                </rate>
                <in>10341</in>
                <out>10423</out>
                <start>10341</start>
                <end>10423</end>
                <file id="src-2"/>
                <sourcetrack>
                  <mediatype>video</mediatype>
                  <trackindex>1</trackindex>
                </sourcetrack>
                <multiclip id="mcs-126">
                  <name>MCS-126</name>
                  <masterclipid>clip-master</masterclipid>
                  <collapsed>false</collapsed>
                  <angle>
                    <activevideoangle>false</activevideoangle>
                    <activeaudioangle>false</activeaudioangle>
                    <clip id="clip-1"/>
                  </angle>
                  <angle>
                    <activevideoangle>true</activevideoangle>
                    <activeaudioangle>true</activeaudioangle>
                    <clip id="clip-2"/>
                  </angle>
                  <angle>
                    <activevideoangle>false</activevideoangle>
                    <activeaudioangle>false</activeaudioangle>
                    <clip id="clip-3"/>
                  </angle>
                  <angle>
                    <activevideoangle>false</activevideoangle>
                    <activeaudioangle>false</activeaudioangle>
                    <clip id="clip-4"/>
                  </angle>
                  <angle>
                    <activevideoangle>false</activevideoangle>
                    <activeaudioangle>false</activeaudioangle>
                    <clip id="clip-5"/>
                  </angle>
                  <angle>
                    <activevideoangle>false</activevideoangle>
                    <activeaudioangle>false</activeaudioangle>
                    <clip id="clip-6"/>
                  </angle>
                  <angle>
                    <activevideoangle>false</activevideoangle>
                    <activeaudioangle>false</activeaudioangle>
                    <clip id="clip-7"/>
                  </angle>
                  <masterclipid>clip-master</masterclipid>
                </multiclip>
              </clipitem>
              <clipitem id="cs-127">
                <duration>84</duration>
                <rate>
                  <ntsc>false</ntsc>
                  <timebase>25</timebase>
                </rate>
                <in>10423</in>
                <out>10506</out>
                <start>10423</start>
                <end>10506</end>
                <file id="src-4"/>
                <sourcetrack>
                  <mediatype>video</mediatype>
                  <trackindex>1</trackindex>
                </sourcetrack>
                <multiclip id="mcs-127">
                  <name>MCS-127</name>
                  <masterclipid>clip-master</masterclipid>
                  <collapsed>false</collapsed>
                  <angle>
                    <activevideoangle>false</activevideoangle>
                    <activeaudioangle>false</activeaudioangle>
                    <clip id="clip-1"/>
                  </angle>
                  <angle>
                    <activevideoangle>false</activevideoangle>
                    <activeaudioangle>false</activeaudioangle>
                    <clip id="clip-2"/>
                  </angle>
                  <angle>
                    <activevideoangle>false</activevideoangle>
                    <activeaudioangle>false</activeaudioangle>
                    <clip id="clip-3"/>
                  </angle>
                  <angle>
                    <activevideoangle>true</activevideoangle>
                    <activeaudioangle>true</activeaudioangle>
                    <clip id="clip-4"/>
                  </angle>
                  <angle>
                    <activevideoangle>false</activevideoangle>
                    <activeaudioangle>false</activeaudioangle>
                    <clip id="clip-5"/>
                  </angle>
                  <angle>
                    <activevideoangle>false</activevideoangle>
                    <activeaudioangle>false</activeaudioangle>
                    <clip id="clip-6"/>
                  </angle>
                  <angle>
                    <activevideoangle>false</activevideoangle>
                    <activeaudioangle>false</activeaudioangle>
                    <clip id="clip-7"/>
                  </angle>
                  <masterclipid>clip-master</masterclipid>
                </multiclip>
              </clipitem>
              <clipitem id="cs-128">
                <duration>58</duration>
                <rate>
                  <ntsc>false</ntsc>
                  <timebase>25</timebase>
                </rate>
                <in>10506</in>
                <out>10563</out>
                <start>10506</start>
                <end>10563</end>
                <file id="src-6"/>
                <sourcetrack>
                  <mediatype>video</mediatype>
                  <trackindex>1</trackindex>
                </sourcetrack>
                <multiclip id="mcs-128">
                  <name>MCS-128</name>
                  <masterclipid>clip-master</masterclipid>
                  <collapsed>false</collapsed>
                  <angle>
                    <activevideoangle>false</activevideoangle>
                    <activeaudioangle>false</activeaudioangle>
                    <clip id="clip-1"/>
                  </angle>
                  <angle>
                    <activevideoangle>false</activevideoangle>
                    <activeaudioangle>false</activeaudioangle>
                    <clip id="clip-2"/>
                  </angle>
                  <angle>
                    <activevideoangle>false</activevideoangle>
                    <activeaudioangle>false</activeaudioangle>
                    <clip id="clip-3"/>
                  </angle>
                  <angle>
                    <activevideoangle>false</activevideoangle>
                    <activeaudioangle>false</activeaudioangle>
                    <clip id="clip-4"/>
                  </angle>
                  <angle>
                    <activevideoangle>false</activevideoangle>
                    <activeaudioangle>false</activeaudioangle>
                    <clip id="clip-5"/>
                  </angle>
                  <angle>
                    <activevideoangle>true</activevideoangle>
                    <activeaudioangle>true</activeaudioangle>
                    <clip id="clip-6"/>
                  </angle>
                  <angle>
                    <activevideoangle>false</activevideoangle>
                    <activeaudioangle>false</activeaudioangle>
                    <clip id="clip-7"/>
                  </angle>
                  <masterclipid>clip-master</masterclipid>
                </multiclip>
              </clipitem>
              <clipitem id="cs-129">
                <duration>120</duration>
                <rate>
                  <ntsc>false</ntsc>
                  <timebase>25</timebase>
                </rate>
                <in>10563</in>
                <out>10682</out>
                <start>10563</start>
                <end>10682</end>
                <file id="src-2"/>
                <sourcetrack>
                  <mediatype>video</mediatype>
                  <trackindex>1</trackindex>
                </sourcetrack>
                <multiclip id="mcs-129">
                  <name>MCS-129</name>
                  <masterclipid>clip-master</masterclipid>
                  <collapsed>false</collapsed>
                  <angle>
                    <activevideoangle>false</activevideoangle>
                    <activeaudioangle>false</activeaudioangle>
                    <clip id="clip-1"/>
                  </angle>
                  <angle>
                    <activevideoangle>true</activevideoangle>
                    <activeaudioangle>true</activeaudioangle>
                    <clip id="clip-2"/>
                  </angle>
                  <angle>
                    <activevideoangle>false</activevideoangle>
                    <activeaudioangle>false</activeaudioangle>
                    <clip id="clip-3"/>
                  </angle>
                  <angle>
                    <activevideoangle>false</activevideoangle>
                    <activeaudioangle>false</activeaudioangle>
                    <clip id="clip-4"/>
                  </angle>
                  <angle>
                    <activevideoangle>false</activevideoangle>
                    <activeaudioangle>false</activeaudioangle>
                    <clip id="clip-5"/>
                  </angle>
                  <angle>
                    <activevideoangle>false</activevideoangle>
                    <activeaudioangle>false</activeaudioangle>
                    <clip id="clip-6"/>
                  </angle>
                  <angle>
                    <activevideoangle>false</activevideoangle>
                    <activeaudioangle>false</activeaudioangle>
                    <clip id="clip-7"/>
                  </angle>
                  <masterclipid>clip-master</masterclipid>
                </multiclip>
              </clipitem>
              <clipitem id="cs-130">
                <duration>97</duration>
                <rate>
                  <ntsc>false</ntsc>
                  <timebase>25</timebase>
                </rate>
                <in>10682</in>
                <out>10778</out>
                <start>10682</start>
                <end>10778</end>
                <file id="src-6"/>
                <sourcetrack>
                  <mediatype>video</mediatype>
                  <trackindex>1</trackindex>
                </sourcetrack>
                <multiclip id="mcs-130">
                  <name>MCS-130</name>
                  <masterclipid>clip-master</masterclipid>
                  <collapsed>false</collapsed>
                  <angle>
                    <activevideoangle>false</activevideoangle>
                    <activeaudioangle>false</activeaudioangle>
                    <clip id="clip-1"/>
                  </angle>
                  <angle>
                    <activevideoangle>false</activevideoangle>
                    <activeaudioangle>false</activeaudioangle>
                    <clip id="clip-2"/>
                  </angle>
                  <angle>
                    <activevideoangle>false</activevideoangle>
                    <activeaudioangle>false</activeaudioangle>
                    <clip id="clip-3"/>
                  </angle>
                  <angle>
                    <activevideoangle>false</activevideoangle>
                    <activeaudioangle>false</activeaudioangle>
                    <clip id="clip-4"/>
                  </angle>
                  <angle>
                    <activevideoangle>false</activevideoangle>
                    <activeaudioangle>false</activeaudioangle>
                    <clip id="clip-5"/>
                  </angle>
                  <angle>
                    <activevideoangle>true</activevideoangle>
                    <activeaudioangle>true</activeaudioangle>
                    <clip id="clip-6"/>
                  </angle>
                  <angle>
                    <activevideoangle>false</activevideoangle>
                    <activeaudioangle>false</activeaudioangle>
                    <clip id="clip-7"/>
                  </angle>
                  <masterclipid>clip-master</masterclipid>
                </multiclip>
              </clipitem>
              <clipitem id="cs-131">
                <duration>150</duration>
                <rate>
                  <ntsc>false</ntsc>
                  <timebase>25</timebase>
                </rate>
                <in>10778</in>
                <out>10927</out>
                <start>10778</start>
                <end>10927</end>
                <file id="src-4"/>
                <sourcetrack>
                  <mediatype>video</mediatype>
                  <trackindex>1</trackindex>
                </sourcetrack>
                <multiclip id="mcs-131">
                  <name>MCS-131</name>
                  <masterclipid>clip-master</masterclipid>
                  <collapsed>false</collapsed>
                  <angle>
                    <activevideoangle>false</activevideoangle>
                    <activeaudioangle>false</activeaudioangle>
                    <clip id="clip-1"/>
                  </angle>
                  <angle>
                    <activevideoangle>false</activevideoangle>
                    <activeaudioangle>false</activeaudioangle>
                    <clip id="clip-2"/>
                  </angle>
                  <angle>
                    <activevideoangle>false</activevideoangle>
                    <activeaudioangle>false</activeaudioangle>
                    <clip id="clip-3"/>
                  </angle>
                  <angle>
                    <activevideoangle>true</activevideoangle>
                    <activeaudioangle>true</activeaudioangle>
                    <clip id="clip-4"/>
                  </angle>
                  <angle>
                    <activevideoangle>false</activevideoangle>
                    <activeaudioangle>false</activeaudioangle>
                    <clip id="clip-5"/>
                  </angle>
                  <angle>
                    <activevideoangle>false</activevideoangle>
                    <activeaudioangle>false</activeaudioangle>
                    <clip id="clip-6"/>
                  </angle>
                  <angle>
                    <activevideoangle>false</activevideoangle>
                    <activeaudioangle>false</activeaudioangle>
                    <clip id="clip-7"/>
                  </angle>
                  <masterclipid>clip-master</masterclipid>
                </multiclip>
              </clipitem>
              <clipitem id="cs-132">
                <duration>184</duration>
                <rate>
                  <ntsc>false</ntsc>
                  <timebase>25</timebase>
                </rate>
                <in>10927</in>
                <out>11110</out>
                <start>10927</start>
                <end>11110</end>
                <file id="src-2"/>
                <sourcetrack>
                  <mediatype>video</mediatype>
                  <trackindex>1</trackindex>
                </sourcetrack>
                <multiclip id="mcs-132">
                  <name>MCS-132</name>
                  <masterclipid>clip-master</masterclipid>
                  <collapsed>false</collapsed>
                  <angle>
                    <activevideoangle>false</activevideoangle>
                    <activeaudioangle>false</activeaudioangle>
                    <clip id="clip-1"/>
                  </angle>
                  <angle>
                    <activevideoangle>true</activevideoangle>
                    <activeaudioangle>true</activeaudioangle>
                    <clip id="clip-2"/>
                  </angle>
                  <angle>
                    <activevideoangle>false</activevideoangle>
                    <activeaudioangle>false</activeaudioangle>
                    <clip id="clip-3"/>
                  </angle>
                  <angle>
                    <activevideoangle>false</activevideoangle>
                    <activeaudioangle>false</activeaudioangle>
                    <clip id="clip-4"/>
                  </angle>
                  <angle>
                    <activevideoangle>false</activevideoangle>
                    <activeaudioangle>false</activeaudioangle>
                    <clip id="clip-5"/>
                  </angle>
                  <angle>
                    <activevideoangle>false</activevideoangle>
                    <activeaudioangle>false</activeaudioangle>
                    <clip id="clip-6"/>
                  </angle>
                  <angle>
                    <activevideoangle>false</activevideoangle>
                    <activeaudioangle>false</activeaudioangle>
                    <clip id="clip-7"/>
                  </angle>
                  <masterclipid>clip-master</masterclipid>
                </multiclip>
              </clipitem>
              <clipitem id="cs-133">
                <duration>65</duration>
                <rate>
                  <ntsc>false</ntsc>
                  <timebase>25</timebase>
                </rate>
                <in>11110</in>
                <out>11174</out>
                <start>11110</start>
                <end>11174</end>
                <file id="src-3"/>
                <sourcetrack>
                  <mediatype>video</mediatype>
                  <trackindex>1</trackindex>
                </sourcetrack>
                <multiclip id="mcs-133">
                  <name>MCS-133</name>
                  <masterclipid>clip-master</masterclipid>
                  <collapsed>false</collapsed>
                  <angle>
                    <activevideoangle>false</activevideoangle>
                    <activeaudioangle>false</activeaudioangle>
                    <clip id="clip-1"/>
                  </angle>
                  <angle>
                    <activevideoangle>false</activevideoangle>
                    <activeaudioangle>false</activeaudioangle>
                    <clip id="clip-2"/>
                  </angle>
                  <angle>
                    <activevideoangle>true</activevideoangle>
                    <activeaudioangle>true</activeaudioangle>
                    <clip id="clip-3"/>
                  </angle>
                  <angle>
                    <activevideoangle>false</activevideoangle>
                    <activeaudioangle>false</activeaudioangle>
                    <clip id="clip-4"/>
                  </angle>
                  <angle>
                    <activevideoangle>false</activevideoangle>
                    <activeaudioangle>false</activeaudioangle>
                    <clip id="clip-5"/>
                  </angle>
                  <angle>
                    <activevideoangle>false</activevideoangle>
                    <activeaudioangle>false</activeaudioangle>
                    <clip id="clip-6"/>
                  </angle>
                  <angle>
                    <activevideoangle>false</activevideoangle>
                    <activeaudioangle>false</activeaudioangle>
                    <clip id="clip-7"/>
                  </angle>
                  <masterclipid>clip-master</masterclipid>
                </multiclip>
              </clipitem>
              <clipitem id="cs-134">
                <duration>48</duration>
                <rate>
                  <ntsc>false</ntsc>
                  <timebase>25</timebase>
                </rate>
                <in>11174</in>
                <out>11221</out>
                <start>11174</start>
                <end>11221</end>
                <file id="src-4"/>
                <sourcetrack>
                  <mediatype>video</mediatype>
                  <trackindex>1</trackindex>
                </sourcetrack>
                <multiclip id="mcs-134">
                  <name>MCS-134</name>
                  <masterclipid>clip-master</masterclipid>
                  <collapsed>false</collapsed>
                  <angle>
                    <activevideoangle>false</activevideoangle>
                    <activeaudioangle>false</activeaudioangle>
                    <clip id="clip-1"/>
                  </angle>
                  <angle>
                    <activevideoangle>false</activevideoangle>
                    <activeaudioangle>false</activeaudioangle>
                    <clip id="clip-2"/>
                  </angle>
                  <angle>
                    <activevideoangle>false</activevideoangle>
                    <activeaudioangle>false</activeaudioangle>
                    <clip id="clip-3"/>
                  </angle>
                  <angle>
                    <activevideoangle>true</activevideoangle>
                    <activeaudioangle>true</activeaudioangle>
                    <clip id="clip-4"/>
                  </angle>
                  <angle>
                    <activevideoangle>false</activevideoangle>
                    <activeaudioangle>false</activeaudioangle>
                    <clip id="clip-5"/>
                  </angle>
                  <angle>
                    <activevideoangle>false</activevideoangle>
                    <activeaudioangle>false</activeaudioangle>
                    <clip id="clip-6"/>
                  </angle>
                  <angle>
                    <activevideoangle>false</activevideoangle>
                    <activeaudioangle>false</activeaudioangle>
                    <clip id="clip-7"/>
                  </angle>
                  <masterclipid>clip-master</masterclipid>
                </multiclip>
              </clipitem>
              <clipitem id="cs-135">
                <duration>139</duration>
                <rate>
                  <ntsc>false</ntsc>
                  <timebase>25</timebase>
                </rate>
                <in>11221</in>
                <out>11359</out>
                <start>11221</start>
                <end>11359</end>
                <file id="src-1"/>
                <sourcetrack>
                  <mediatype>video</mediatype>
                  <trackindex>1</trackindex>
                </sourcetrack>
                <multiclip id="mcs-135">
                  <name>MCS-135</name>
                  <masterclipid>clip-master</masterclipid>
                  <collapsed>false</collapsed>
                  <angle>
                    <activevideoangle>true</activevideoangle>
                    <activeaudioangle>true</activeaudioangle>
                    <clip id="clip-1"/>
                  </angle>
                  <angle>
                    <activevideoangle>false</activevideoangle>
                    <activeaudioangle>false</activeaudioangle>
                    <clip id="clip-2"/>
                  </angle>
                  <angle>
                    <activevideoangle>false</activevideoangle>
                    <activeaudioangle>false</activeaudioangle>
                    <clip id="clip-3"/>
                  </angle>
                  <angle>
                    <activevideoangle>false</activevideoangle>
                    <activeaudioangle>false</activeaudioangle>
                    <clip id="clip-4"/>
                  </angle>
                  <angle>
                    <activevideoangle>false</activevideoangle>
                    <activeaudioangle>false</activeaudioangle>
                    <clip id="clip-5"/>
                  </angle>
                  <angle>
                    <activevideoangle>false</activevideoangle>
                    <activeaudioangle>false</activeaudioangle>
                    <clip id="clip-6"/>
                  </angle>
                  <angle>
                    <activevideoangle>false</activevideoangle>
                    <activeaudioangle>false</activeaudioangle>
                    <clip id="clip-7"/>
                  </angle>
                  <masterclipid>clip-master</masterclipid>
                </multiclip>
              </clipitem>
              <clipitem id="cs-136">
                <duration>203</duration>
                <rate>
                  <ntsc>false</ntsc>
                  <timebase>25</timebase>
                </rate>
                <in>11359</in>
                <out>11561</out>
                <start>11359</start>
                <end>11561</end>
                <file id="src-2"/>
                <sourcetrack>
                  <mediatype>video</mediatype>
                  <trackindex>1</trackindex>
                </sourcetrack>
                <multiclip id="mcs-136">
                  <name>MCS-136</name>
                  <masterclipid>clip-master</masterclipid>
                  <collapsed>false</collapsed>
                  <angle>
                    <activevideoangle>false</activevideoangle>
                    <activeaudioangle>false</activeaudioangle>
                    <clip id="clip-1"/>
                  </angle>
                  <angle>
                    <activevideoangle>true</activevideoangle>
                    <activeaudioangle>true</activeaudioangle>
                    <clip id="clip-2"/>
                  </angle>
                  <angle>
                    <activevideoangle>false</activevideoangle>
                    <activeaudioangle>false</activeaudioangle>
                    <clip id="clip-3"/>
                  </angle>
                  <angle>
                    <activevideoangle>false</activevideoangle>
                    <activeaudioangle>false</activeaudioangle>
                    <clip id="clip-4"/>
                  </angle>
                  <angle>
                    <activevideoangle>false</activevideoangle>
                    <activeaudioangle>false</activeaudioangle>
                    <clip id="clip-5"/>
                  </angle>
                  <angle>
                    <activevideoangle>false</activevideoangle>
                    <activeaudioangle>false</activeaudioangle>
                    <clip id="clip-6"/>
                  </angle>
                  <angle>
                    <activevideoangle>false</activevideoangle>
                    <activeaudioangle>false</activeaudioangle>
                    <clip id="clip-7"/>
                  </angle>
                  <masterclipid>clip-master</masterclipid>
                </multiclip>
              </clipitem>
              <clipitem id="cs-137">
                <duration>204</duration>
                <rate>
                  <ntsc>false</ntsc>
                  <timebase>25</timebase>
                </rate>
                <in>11561</in>
                <out>11764</out>
                <start>11561</start>
                <end>11764</end>
                <file id="src-3"/>
                <sourcetrack>
                  <mediatype>video</mediatype>
                  <trackindex>1</trackindex>
                </sourcetrack>
                <multiclip id="mcs-137">
                  <name>MCS-137</name>
                  <masterclipid>clip-master</masterclipid>
                  <collapsed>false</collapsed>
                  <angle>
                    <activevideoangle>false</activevideoangle>
                    <activeaudioangle>false</activeaudioangle>
                    <clip id="clip-1"/>
                  </angle>
                  <angle>
                    <activevideoangle>false</activevideoangle>
                    <activeaudioangle>false</activeaudioangle>
                    <clip id="clip-2"/>
                  </angle>
                  <angle>
                    <activevideoangle>true</activevideoangle>
                    <activeaudioangle>true</activeaudioangle>
                    <clip id="clip-3"/>
                  </angle>
                  <angle>
                    <activevideoangle>false</activevideoangle>
                    <activeaudioangle>false</activeaudioangle>
                    <clip id="clip-4"/>
                  </angle>
                  <angle>
                    <activevideoangle>false</activevideoangle>
                    <activeaudioangle>false</activeaudioangle>
                    <clip id="clip-5"/>
                  </angle>
                  <angle>
                    <activevideoangle>false</activevideoangle>
                    <activeaudioangle>false</activeaudioangle>
                    <clip id="clip-6"/>
                  </angle>
                  <angle>
                    <activevideoangle>false</activevideoangle>
                    <activeaudioangle>false</activeaudioangle>
                    <clip id="clip-7"/>
                  </angle>
                  <masterclipid>clip-master</masterclipid>
                </multiclip>
              </clipitem>
              <clipitem id="cs-138">
                <duration>128</duration>
                <rate>
                  <ntsc>false</ntsc>
                  <timebase>25</timebase>
                </rate>
                <in>11764</in>
                <out>11891</out>
                <start>11764</start>
                <end>11891</end>
                <file id="src-4"/>
                <sourcetrack>
                  <mediatype>video</mediatype>
                  <trackindex>1</trackindex>
                </sourcetrack>
                <multiclip id="mcs-138">
                  <name>MCS-138</name>
                  <masterclipid>clip-master</masterclipid>
                  <collapsed>false</collapsed>
                  <angle>
                    <activevideoangle>false</activevideoangle>
                    <activeaudioangle>false</activeaudioangle>
                    <clip id="clip-1"/>
                  </angle>
                  <angle>
                    <activevideoangle>false</activevideoangle>
                    <activeaudioangle>false</activeaudioangle>
                    <clip id="clip-2"/>
                  </angle>
                  <angle>
                    <activevideoangle>false</activevideoangle>
                    <activeaudioangle>false</activeaudioangle>
                    <clip id="clip-3"/>
                  </angle>
                  <angle>
                    <activevideoangle>true</activevideoangle>
                    <activeaudioangle>true</activeaudioangle>
                    <clip id="clip-4"/>
                  </angle>
                  <angle>
                    <activevideoangle>false</activevideoangle>
                    <activeaudioangle>false</activeaudioangle>
                    <clip id="clip-5"/>
                  </angle>
                  <angle>
                    <activevideoangle>false</activevideoangle>
                    <activeaudioangle>false</activeaudioangle>
                    <clip id="clip-6"/>
                  </angle>
                  <angle>
                    <activevideoangle>false</activevideoangle>
                    <activeaudioangle>false</activeaudioangle>
                    <clip id="clip-7"/>
                  </angle>
                  <masterclipid>clip-master</masterclipid>
                </multiclip>
              </clipitem>
              <clipitem id="cs-139">
                <duration>110</duration>
                <rate>
                  <ntsc>false</ntsc>
                  <timebase>25</timebase>
                </rate>
                <in>11891</in>
                <out>12000</out>
                <start>11891</start>
                <end>12000</end>
                <file id="src-3"/>
                <sourcetrack>
                  <mediatype>video</mediatype>
                  <trackindex>1</trackindex>
                </sourcetrack>
                <multiclip id="mcs-139">
                  <name>MCS-139</name>
                  <masterclipid>clip-master</masterclipid>
                  <collapsed>false</collapsed>
                  <angle>
                    <activevideoangle>false</activevideoangle>
                    <activeaudioangle>false</activeaudioangle>
                    <clip id="clip-1"/>
                  </angle>
                  <angle>
                    <activevideoangle>false</activevideoangle>
                    <activeaudioangle>false</activeaudioangle>
                    <clip id="clip-2"/>
                  </angle>
                  <angle>
                    <activevideoangle>true</activevideoangle>
                    <activeaudioangle>true</activeaudioangle>
                    <clip id="clip-3"/>
                  </angle>
                  <angle>
                    <activevideoangle>false</activevideoangle>
                    <activeaudioangle>false</activeaudioangle>
                    <clip id="clip-4"/>
                  </angle>
                  <angle>
                    <activevideoangle>false</activevideoangle>
                    <activeaudioangle>false</activeaudioangle>
                    <clip id="clip-5"/>
                  </angle>
                  <angle>
                    <activevideoangle>false</activevideoangle>
                    <activeaudioangle>false</activeaudioangle>
                    <clip id="clip-6"/>
                  </angle>
                  <angle>
                    <activevideoangle>false</activevideoangle>
                    <activeaudioangle>false</activeaudioangle>
                    <clip id="clip-7"/>
                  </angle>
                  <masterclipid>clip-master</masterclipid>
                </multiclip>
              </clipitem>
              <clipitem id="cs-140">
                <duration>211</duration>
                <rate>
                  <ntsc>false</ntsc>
                  <timebase>25</timebase>
                </rate>
                <in>12000</in>
                <out>12210</out>
                <start>12000</start>
                <end>12210</end>
                <file id="src-4"/>
                <sourcetrack>
                  <mediatype>video</mediatype>
                  <trackindex>1</trackindex>
                </sourcetrack>
                <multiclip id="mcs-140">
                  <name>MCS-140</name>
                  <masterclipid>clip-master</masterclipid>
                  <collapsed>false</collapsed>
                  <angle>
                    <activevideoangle>false</activevideoangle>
                    <activeaudioangle>false</activeaudioangle>
                    <clip id="clip-1"/>
                  </angle>
                  <angle>
                    <activevideoangle>false</activevideoangle>
                    <activeaudioangle>false</activeaudioangle>
                    <clip id="clip-2"/>
                  </angle>
                  <angle>
                    <activevideoangle>false</activevideoangle>
                    <activeaudioangle>false</activeaudioangle>
                    <clip id="clip-3"/>
                  </angle>
                  <angle>
                    <activevideoangle>true</activevideoangle>
                    <activeaudioangle>true</activeaudioangle>
                    <clip id="clip-4"/>
                  </angle>
                  <angle>
                    <activevideoangle>false</activevideoangle>
                    <activeaudioangle>false</activeaudioangle>
                    <clip id="clip-5"/>
                  </angle>
                  <angle>
                    <activevideoangle>false</activevideoangle>
                    <activeaudioangle>false</activeaudioangle>
                    <clip id="clip-6"/>
                  </angle>
                  <angle>
                    <activevideoangle>false</activevideoangle>
                    <activeaudioangle>false</activeaudioangle>
                    <clip id="clip-7"/>
                  </angle>
                  <masterclipid>clip-master</masterclipid>
                </multiclip>
              </clipitem>
              <clipitem id="cs-141">
                <duration>147</duration>
                <rate>
                  <ntsc>false</ntsc>
                  <timebase>25</timebase>
                </rate>
                <in>12210</in>
                <out>12356</out>
                <start>12210</start>
                <end>12356</end>
                <file id="src-3"/>
                <sourcetrack>
                  <mediatype>video</mediatype>
                  <trackindex>1</trackindex>
                </sourcetrack>
                <multiclip id="mcs-141">
                  <name>MCS-141</name>
                  <masterclipid>clip-master</masterclipid>
                  <collapsed>false</collapsed>
                  <angle>
                    <activevideoangle>false</activevideoangle>
                    <activeaudioangle>false</activeaudioangle>
                    <clip id="clip-1"/>
                  </angle>
                  <angle>
                    <activevideoangle>false</activevideoangle>
                    <activeaudioangle>false</activeaudioangle>
                    <clip id="clip-2"/>
                  </angle>
                  <angle>
                    <activevideoangle>true</activevideoangle>
                    <activeaudioangle>true</activeaudioangle>
                    <clip id="clip-3"/>
                  </angle>
                  <angle>
                    <activevideoangle>false</activevideoangle>
                    <activeaudioangle>false</activeaudioangle>
                    <clip id="clip-4"/>
                  </angle>
                  <angle>
                    <activevideoangle>false</activevideoangle>
                    <activeaudioangle>false</activeaudioangle>
                    <clip id="clip-5"/>
                  </angle>
                  <angle>
                    <activevideoangle>false</activevideoangle>
                    <activeaudioangle>false</activeaudioangle>
                    <clip id="clip-6"/>
                  </angle>
                  <angle>
                    <activevideoangle>false</activevideoangle>
                    <activeaudioangle>false</activeaudioangle>
                    <clip id="clip-7"/>
                  </angle>
                  <masterclipid>clip-master</masterclipid>
                </multiclip>
              </clipitem>
              <clipitem id="cs-142">
                <duration>140</duration>
                <rate>
                  <ntsc>false</ntsc>
                  <timebase>25</timebase>
                </rate>
                <in>12356</in>
                <out>12495</out>
                <start>12356</start>
                <end>12495</end>
                <file id="src-1"/>
                <sourcetrack>
                  <mediatype>video</mediatype>
                  <trackindex>1</trackindex>
                </sourcetrack>
                <multiclip id="mcs-142">
                  <name>MCS-142</name>
                  <masterclipid>clip-master</masterclipid>
                  <collapsed>false</collapsed>
                  <angle>
                    <activevideoangle>true</activevideoangle>
                    <activeaudioangle>true</activeaudioangle>
                    <clip id="clip-1"/>
                  </angle>
                  <angle>
                    <activevideoangle>false</activevideoangle>
                    <activeaudioangle>false</activeaudioangle>
                    <clip id="clip-2"/>
                  </angle>
                  <angle>
                    <activevideoangle>false</activevideoangle>
                    <activeaudioangle>false</activeaudioangle>
                    <clip id="clip-3"/>
                  </angle>
                  <angle>
                    <activevideoangle>false</activevideoangle>
                    <activeaudioangle>false</activeaudioangle>
                    <clip id="clip-4"/>
                  </angle>
                  <angle>
                    <activevideoangle>false</activevideoangle>
                    <activeaudioangle>false</activeaudioangle>
                    <clip id="clip-5"/>
                  </angle>
                  <angle>
                    <activevideoangle>false</activevideoangle>
                    <activeaudioangle>false</activeaudioangle>
                    <clip id="clip-6"/>
                  </angle>
                  <angle>
                    <activevideoangle>false</activevideoangle>
                    <activeaudioangle>false</activeaudioangle>
                    <clip id="clip-7"/>
                  </angle>
                  <masterclipid>clip-master</masterclipid>
                </multiclip>
              </clipitem>
              <clipitem id="cs-143">
                <duration>64</duration>
                <rate>
                  <ntsc>false</ntsc>
                  <timebase>25</timebase>
                </rate>
                <in>12495</in>
                <out>12558</out>
                <start>12495</start>
                <end>12558</end>
                <file id="src-5"/>
                <sourcetrack>
                  <mediatype>video</mediatype>
                  <trackindex>1</trackindex>
                </sourcetrack>
                <multiclip id="mcs-143">
                  <name>MCS-143</name>
                  <masterclipid>clip-master</masterclipid>
                  <collapsed>false</collapsed>
                  <angle>
                    <activevideoangle>false</activevideoangle>
                    <activeaudioangle>false</activeaudioangle>
                    <clip id="clip-1"/>
                  </angle>
                  <angle>
                    <activevideoangle>false</activevideoangle>
                    <activeaudioangle>false</activeaudioangle>
                    <clip id="clip-2"/>
                  </angle>
                  <angle>
                    <activevideoangle>false</activevideoangle>
                    <activeaudioangle>false</activeaudioangle>
                    <clip id="clip-3"/>
                  </angle>
                  <angle>
                    <activevideoangle>false</activevideoangle>
                    <activeaudioangle>false</activeaudioangle>
                    <clip id="clip-4"/>
                  </angle>
                  <angle>
                    <activevideoangle>true</activevideoangle>
                    <activeaudioangle>true</activeaudioangle>
                    <clip id="clip-5"/>
                  </angle>
                  <angle>
                    <activevideoangle>false</activevideoangle>
                    <activeaudioangle>false</activeaudioangle>
                    <clip id="clip-6"/>
                  </angle>
                  <angle>
                    <activevideoangle>false</activevideoangle>
                    <activeaudioangle>false</activeaudioangle>
                    <clip id="clip-7"/>
                  </angle>
                  <masterclipid>clip-master</masterclipid>
                </multiclip>
              </clipitem>
              <clipitem id="cs-144">
                <duration>174</duration>
                <rate>
                  <ntsc>false</ntsc>
                  <timebase>25</timebase>
                </rate>
                <in>12558</in>
                <out>12731</out>
                <start>12558</start>
                <end>12731</end>
                <file id="src-2"/>
                <sourcetrack>
                  <mediatype>video</mediatype>
                  <trackindex>1</trackindex>
                </sourcetrack>
                <multiclip id="mcs-144">
                  <name>MCS-144</name>
                  <masterclipid>clip-master</masterclipid>
                  <collapsed>false</collapsed>
                  <angle>
                    <activevideoangle>false</activevideoangle>
                    <activeaudioangle>false</activeaudioangle>
                    <clip id="clip-1"/>
                  </angle>
                  <angle>
                    <activevideoangle>true</activevideoangle>
                    <activeaudioangle>true</activeaudioangle>
                    <clip id="clip-2"/>
                  </angle>
                  <angle>
                    <activevideoangle>false</activevideoangle>
                    <activeaudioangle>false</activeaudioangle>
                    <clip id="clip-3"/>
                  </angle>
                  <angle>
                    <activevideoangle>false</activevideoangle>
                    <activeaudioangle>false</activeaudioangle>
                    <clip id="clip-4"/>
                  </angle>
                  <angle>
                    <activevideoangle>false</activevideoangle>
                    <activeaudioangle>false</activeaudioangle>
                    <clip id="clip-5"/>
                  </angle>
                  <angle>
                    <activevideoangle>false</activevideoangle>
                    <activeaudioangle>false</activeaudioangle>
                    <clip id="clip-6"/>
                  </angle>
                  <angle>
                    <activevideoangle>false</activevideoangle>
                    <activeaudioangle>false</activeaudioangle>
                    <clip id="clip-7"/>
                  </angle>
                  <masterclipid>clip-master</masterclipid>
                </multiclip>
              </clipitem>
              <clipitem id="cs-145">
                <duration>54</duration>
                <rate>
                  <ntsc>false</ntsc>
                  <timebase>25</timebase>
                </rate>
                <in>12731</in>
                <out>12784</out>
                <start>12731</start>
                <end>12784</end>
                <file id="src-3"/>
                <sourcetrack>
                  <mediatype>video</mediatype>
                  <trackindex>1</trackindex>
                </sourcetrack>
                <multiclip id="mcs-145">
                  <name>MCS-145</name>
                  <masterclipid>clip-master</masterclipid>
                  <collapsed>false</collapsed>
                  <angle>
                    <activevideoangle>false</activevideoangle>
                    <activeaudioangle>false</activeaudioangle>
                    <clip id="clip-1"/>
                  </angle>
                  <angle>
                    <activevideoangle>false</activevideoangle>
                    <activeaudioangle>false</activeaudioangle>
                    <clip id="clip-2"/>
                  </angle>
                  <angle>
                    <activevideoangle>true</activevideoangle>
                    <activeaudioangle>true</activeaudioangle>
                    <clip id="clip-3"/>
                  </angle>
                  <angle>
                    <activevideoangle>false</activevideoangle>
                    <activeaudioangle>false</activeaudioangle>
                    <clip id="clip-4"/>
                  </angle>
                  <angle>
                    <activevideoangle>false</activevideoangle>
                    <activeaudioangle>false</activeaudioangle>
                    <clip id="clip-5"/>
                  </angle>
                  <angle>
                    <activevideoangle>false</activevideoangle>
                    <activeaudioangle>false</activeaudioangle>
                    <clip id="clip-6"/>
                  </angle>
                  <angle>
                    <activevideoangle>false</activevideoangle>
                    <activeaudioangle>false</activeaudioangle>
                    <clip id="clip-7"/>
                  </angle>
                  <masterclipid>clip-master</masterclipid>
                </multiclip>
              </clipitem>
              <clipitem id="cs-146">
                <duration>117</duration>
                <rate>
                  <ntsc>false</ntsc>
                  <timebase>25</timebase>
                </rate>
                <in>12784</in>
                <out>12900</out>
                <start>12784</start>
                <end>12900</end>
                <file id="src-4"/>
                <sourcetrack>
                  <mediatype>video</mediatype>
                  <trackindex>1</trackindex>
                </sourcetrack>
                <multiclip id="mcs-146">
                  <name>MCS-146</name>
                  <masterclipid>clip-master</masterclipid>
                  <collapsed>false</collapsed>
                  <angle>
                    <activevideoangle>false</activevideoangle>
                    <activeaudioangle>false</activeaudioangle>
                    <clip id="clip-1"/>
                  </angle>
                  <angle>
                    <activevideoangle>false</activevideoangle>
                    <activeaudioangle>false</activeaudioangle>
                    <clip id="clip-2"/>
                  </angle>
                  <angle>
                    <activevideoangle>false</activevideoangle>
                    <activeaudioangle>false</activeaudioangle>
                    <clip id="clip-3"/>
                  </angle>
                  <angle>
                    <activevideoangle>true</activevideoangle>
                    <activeaudioangle>true</activeaudioangle>
                    <clip id="clip-4"/>
                  </angle>
                  <angle>
                    <activevideoangle>false</activevideoangle>
                    <activeaudioangle>false</activeaudioangle>
                    <clip id="clip-5"/>
                  </angle>
                  <angle>
                    <activevideoangle>false</activevideoangle>
                    <activeaudioangle>false</activeaudioangle>
                    <clip id="clip-6"/>
                  </angle>
                  <angle>
                    <activevideoangle>false</activevideoangle>
                    <activeaudioangle>false</activeaudioangle>
                    <clip id="clip-7"/>
                  </angle>
                  <masterclipid>clip-master</masterclipid>
                </multiclip>
              </clipitem>
              <clipitem id="cs-147">
                <duration>129</duration>
                <rate>
                  <ntsc>false</ntsc>
                  <timebase>25</timebase>
                </rate>
                <in>12900</in>
                <out>13028</out>
                <start>12900</start>
                <end>13028</end>
                <file id="src-2"/>
                <sourcetrack>
                  <mediatype>video</mediatype>
                  <trackindex>1</trackindex>
                </sourcetrack>
                <multiclip id="mcs-147">
                  <name>MCS-147</name>
                  <masterclipid>clip-master</masterclipid>
                  <collapsed>false</collapsed>
                  <angle>
                    <activevideoangle>false</activevideoangle>
                    <activeaudioangle>false</activeaudioangle>
                    <clip id="clip-1"/>
                  </angle>
                  <angle>
                    <activevideoangle>true</activevideoangle>
                    <activeaudioangle>true</activeaudioangle>
                    <clip id="clip-2"/>
                  </angle>
                  <angle>
                    <activevideoangle>false</activevideoangle>
                    <activeaudioangle>false</activeaudioangle>
                    <clip id="clip-3"/>
                  </angle>
                  <angle>
                    <activevideoangle>false</activevideoangle>
                    <activeaudioangle>false</activeaudioangle>
                    <clip id="clip-4"/>
                  </angle>
                  <angle>
                    <activevideoangle>false</activevideoangle>
                    <activeaudioangle>false</activeaudioangle>
                    <clip id="clip-5"/>
                  </angle>
                  <angle>
                    <activevideoangle>false</activevideoangle>
                    <activeaudioangle>false</activeaudioangle>
                    <clip id="clip-6"/>
                  </angle>
                  <angle>
                    <activevideoangle>false</activevideoangle>
                    <activeaudioangle>false</activeaudioangle>
                    <clip id="clip-7"/>
                  </angle>
                  <masterclipid>clip-master</masterclipid>
                </multiclip>
              </clipitem>
              <clipitem id="cs-148">
                <duration>58</duration>
                <rate>
                  <ntsc>false</ntsc>
                  <timebase>25</timebase>
                </rate>
                <in>13028</in>
                <out>13085</out>
                <start>13028</start>
                <end>13085</end>
                <file id="src-3"/>
                <sourcetrack>
                  <mediatype>video</mediatype>
                  <trackindex>1</trackindex>
                </sourcetrack>
                <multiclip id="mcs-148">
                  <name>MCS-148</name>
                  <masterclipid>clip-master</masterclipid>
                  <collapsed>false</collapsed>
                  <angle>
                    <activevideoangle>false</activevideoangle>
                    <activeaudioangle>false</activeaudioangle>
                    <clip id="clip-1"/>
                  </angle>
                  <angle>
                    <activevideoangle>false</activevideoangle>
                    <activeaudioangle>false</activeaudioangle>
                    <clip id="clip-2"/>
                  </angle>
                  <angle>
                    <activevideoangle>true</activevideoangle>
                    <activeaudioangle>true</activeaudioangle>
                    <clip id="clip-3"/>
                  </angle>
                  <angle>
                    <activevideoangle>false</activevideoangle>
                    <activeaudioangle>false</activeaudioangle>
                    <clip id="clip-4"/>
                  </angle>
                  <angle>
                    <activevideoangle>false</activevideoangle>
                    <activeaudioangle>false</activeaudioangle>
                    <clip id="clip-5"/>
                  </angle>
                  <angle>
                    <activevideoangle>false</activevideoangle>
                    <activeaudioangle>false</activeaudioangle>
                    <clip id="clip-6"/>
                  </angle>
                  <angle>
                    <activevideoangle>false</activevideoangle>
                    <activeaudioangle>false</activeaudioangle>
                    <clip id="clip-7"/>
                  </angle>
                  <masterclipid>clip-master</masterclipid>
                </multiclip>
              </clipitem>
              <clipitem id="cs-149">
                <duration>34</duration>
                <rate>
                  <ntsc>false</ntsc>
                  <timebase>25</timebase>
                </rate>
                <in>13085</in>
                <out>13118</out>
                <start>13085</start>
                <end>13118</end>
                <file id="src-5"/>
                <sourcetrack>
                  <mediatype>video</mediatype>
                  <trackindex>1</trackindex>
                </sourcetrack>
                <multiclip id="mcs-149">
                  <name>MCS-149</name>
                  <masterclipid>clip-master</masterclipid>
                  <collapsed>false</collapsed>
                  <angle>
                    <activevideoangle>false</activevideoangle>
                    <activeaudioangle>false</activeaudioangle>
                    <clip id="clip-1"/>
                  </angle>
                  <angle>
                    <activevideoangle>false</activevideoangle>
                    <activeaudioangle>false</activeaudioangle>
                    <clip id="clip-2"/>
                  </angle>
                  <angle>
                    <activevideoangle>false</activevideoangle>
                    <activeaudioangle>false</activeaudioangle>
                    <clip id="clip-3"/>
                  </angle>
                  <angle>
                    <activevideoangle>false</activevideoangle>
                    <activeaudioangle>false</activeaudioangle>
                    <clip id="clip-4"/>
                  </angle>
                  <angle>
                    <activevideoangle>true</activevideoangle>
                    <activeaudioangle>true</activeaudioangle>
                    <clip id="clip-5"/>
                  </angle>
                  <angle>
                    <activevideoangle>false</activevideoangle>
                    <activeaudioangle>false</activeaudioangle>
                    <clip id="clip-6"/>
                  </angle>
                  <angle>
                    <activevideoangle>false</activevideoangle>
                    <activeaudioangle>false</activeaudioangle>
                    <clip id="clip-7"/>
                  </angle>
                  <masterclipid>clip-master</masterclipid>
                </multiclip>
              </clipitem>
              <clipitem id="cs-150">
                <duration>63</duration>
                <rate>
                  <ntsc>false</ntsc>
                  <timebase>25</timebase>
                </rate>
                <in>13118</in>
                <out>13180</out>
                <start>13118</start>
                <end>13180</end>
                <file id="src-1"/>
                <sourcetrack>
                  <mediatype>video</mediatype>
                  <trackindex>1</trackindex>
                </sourcetrack>
                <multiclip id="mcs-150">
                  <name>MCS-150</name>
                  <masterclipid>clip-master</masterclipid>
                  <collapsed>false</collapsed>
                  <angle>
                    <activevideoangle>true</activevideoangle>
                    <activeaudioangle>true</activeaudioangle>
                    <clip id="clip-1"/>
                  </angle>
                  <angle>
                    <activevideoangle>false</activevideoangle>
                    <activeaudioangle>false</activeaudioangle>
                    <clip id="clip-2"/>
                  </angle>
                  <angle>
                    <activevideoangle>false</activevideoangle>
                    <activeaudioangle>false</activeaudioangle>
                    <clip id="clip-3"/>
                  </angle>
                  <angle>
                    <activevideoangle>false</activevideoangle>
                    <activeaudioangle>false</activeaudioangle>
                    <clip id="clip-4"/>
                  </angle>
                  <angle>
                    <activevideoangle>false</activevideoangle>
                    <activeaudioangle>false</activeaudioangle>
                    <clip id="clip-5"/>
                  </angle>
                  <angle>
                    <activevideoangle>false</activevideoangle>
                    <activeaudioangle>false</activeaudioangle>
                    <clip id="clip-6"/>
                  </angle>
                  <angle>
                    <activevideoangle>false</activevideoangle>
                    <activeaudioangle>false</activeaudioangle>
                    <clip id="clip-7"/>
                  </angle>
                  <masterclipid>clip-master</masterclipid>
                </multiclip>
              </clipitem>
              <clipitem id="cs-151">
                <duration>174</duration>
                <rate>
                  <ntsc>false</ntsc>
                  <timebase>25</timebase>
                </rate>
                <in>13180</in>
                <out>13353</out>
                <start>13180</start>
                <end>13353</end>
                <file id="src-2"/>
                <sourcetrack>
                  <mediatype>video</mediatype>
                  <trackindex>1</trackindex>
                </sourcetrack>
                <multiclip id="mcs-151">
                  <name>MCS-151</name>
                  <masterclipid>clip-master</masterclipid>
                  <collapsed>false</collapsed>
                  <angle>
                    <activevideoangle>false</activevideoangle>
                    <activeaudioangle>false</activeaudioangle>
                    <clip id="clip-1"/>
                  </angle>
                  <angle>
                    <activevideoangle>true</activevideoangle>
                    <activeaudioangle>true</activeaudioangle>
                    <clip id="clip-2"/>
                  </angle>
                  <angle>
                    <activevideoangle>false</activevideoangle>
                    <activeaudioangle>false</activeaudioangle>
                    <clip id="clip-3"/>
                  </angle>
                  <angle>
                    <activevideoangle>false</activevideoangle>
                    <activeaudioangle>false</activeaudioangle>
                    <clip id="clip-4"/>
                  </angle>
                  <angle>
                    <activevideoangle>false</activevideoangle>
                    <activeaudioangle>false</activeaudioangle>
                    <clip id="clip-5"/>
                  </angle>
                  <angle>
                    <activevideoangle>false</activevideoangle>
                    <activeaudioangle>false</activeaudioangle>
                    <clip id="clip-6"/>
                  </angle>
                  <angle>
                    <activevideoangle>false</activevideoangle>
                    <activeaudioangle>false</activeaudioangle>
                    <clip id="clip-7"/>
                  </angle>
                  <masterclipid>clip-master</masterclipid>
                </multiclip>
              </clipitem>
              <clipitem id="cs-152">
                <duration>57</duration>
                <rate>
                  <ntsc>false</ntsc>
                  <timebase>25</timebase>
                </rate>
                <in>13353</in>
                <out>13409</out>
                <start>13353</start>
                <end>13409</end>
                <file id="src-3"/>
                <sourcetrack>
                  <mediatype>video</mediatype>
                  <trackindex>1</trackindex>
                </sourcetrack>
                <multiclip id="mcs-152">
                  <name>MCS-152</name>
                  <masterclipid>clip-master</masterclipid>
                  <collapsed>false</collapsed>
                  <angle>
                    <activevideoangle>false</activevideoangle>
                    <activeaudioangle>false</activeaudioangle>
                    <clip id="clip-1"/>
                  </angle>
                  <angle>
                    <activevideoangle>false</activevideoangle>
                    <activeaudioangle>false</activeaudioangle>
                    <clip id="clip-2"/>
                  </angle>
                  <angle>
                    <activevideoangle>true</activevideoangle>
                    <activeaudioangle>true</activeaudioangle>
                    <clip id="clip-3"/>
                  </angle>
                  <angle>
                    <activevideoangle>false</activevideoangle>
                    <activeaudioangle>false</activeaudioangle>
                    <clip id="clip-4"/>
                  </angle>
                  <angle>
                    <activevideoangle>false</activevideoangle>
                    <activeaudioangle>false</activeaudioangle>
                    <clip id="clip-5"/>
                  </angle>
                  <angle>
                    <activevideoangle>false</activevideoangle>
                    <activeaudioangle>false</activeaudioangle>
                    <clip id="clip-6"/>
                  </angle>
                  <angle>
                    <activevideoangle>false</activevideoangle>
                    <activeaudioangle>false</activeaudioangle>
                    <clip id="clip-7"/>
                  </angle>
                  <masterclipid>clip-master</masterclipid>
                </multiclip>
              </clipitem>
              <clipitem id="cs-153">
                <duration>74</duration>
                <rate>
                  <ntsc>false</ntsc>
                  <timebase>25</timebase>
                </rate>
                <in>13409</in>
                <out>13482</out>
                <start>13409</start>
                <end>13482</end>
                <file id="src-1"/>
                <sourcetrack>
                  <mediatype>video</mediatype>
                  <trackindex>1</trackindex>
                </sourcetrack>
                <multiclip id="mcs-153">
                  <name>MCS-153</name>
                  <masterclipid>clip-master</masterclipid>
                  <collapsed>false</collapsed>
                  <angle>
                    <activevideoangle>true</activevideoangle>
                    <activeaudioangle>true</activeaudioangle>
                    <clip id="clip-1"/>
                  </angle>
                  <angle>
                    <activevideoangle>false</activevideoangle>
                    <activeaudioangle>false</activeaudioangle>
                    <clip id="clip-2"/>
                  </angle>
                  <angle>
                    <activevideoangle>false</activevideoangle>
                    <activeaudioangle>false</activeaudioangle>
                    <clip id="clip-3"/>
                  </angle>
                  <angle>
                    <activevideoangle>false</activevideoangle>
                    <activeaudioangle>false</activeaudioangle>
                    <clip id="clip-4"/>
                  </angle>
                  <angle>
                    <activevideoangle>false</activevideoangle>
                    <activeaudioangle>false</activeaudioangle>
                    <clip id="clip-5"/>
                  </angle>
                  <angle>
                    <activevideoangle>false</activevideoangle>
                    <activeaudioangle>false</activeaudioangle>
                    <clip id="clip-6"/>
                  </angle>
                  <angle>
                    <activevideoangle>false</activevideoangle>
                    <activeaudioangle>false</activeaudioangle>
                    <clip id="clip-7"/>
                  </angle>
                  <masterclipid>clip-master</masterclipid>
                </multiclip>
              </clipitem>
              <clipitem id="cs-154">
                <duration>159</duration>
                <rate>
                  <ntsc>false</ntsc>
                  <timebase>25</timebase>
                </rate>
                <in>13482</in>
                <out>13640</out>
                <start>13482</start>
                <end>13640</end>
                <file id="src-2"/>
                <sourcetrack>
                  <mediatype>video</mediatype>
                  <trackindex>1</trackindex>
                </sourcetrack>
                <multiclip id="mcs-154">
                  <name>MCS-154</name>
                  <masterclipid>clip-master</masterclipid>
                  <collapsed>false</collapsed>
                  <angle>
                    <activevideoangle>false</activevideoangle>
                    <activeaudioangle>false</activeaudioangle>
                    <clip id="clip-1"/>
                  </angle>
                  <angle>
                    <activevideoangle>true</activevideoangle>
                    <activeaudioangle>true</activeaudioangle>
                    <clip id="clip-2"/>
                  </angle>
                  <angle>
                    <activevideoangle>false</activevideoangle>
                    <activeaudioangle>false</activeaudioangle>
                    <clip id="clip-3"/>
                  </angle>
                  <angle>
                    <activevideoangle>false</activevideoangle>
                    <activeaudioangle>false</activeaudioangle>
                    <clip id="clip-4"/>
                  </angle>
                  <angle>
                    <activevideoangle>false</activevideoangle>
                    <activeaudioangle>false</activeaudioangle>
                    <clip id="clip-5"/>
                  </angle>
                  <angle>
                    <activevideoangle>false</activevideoangle>
                    <activeaudioangle>false</activeaudioangle>
                    <clip id="clip-6"/>
                  </angle>
                  <angle>
                    <activevideoangle>false</activevideoangle>
                    <activeaudioangle>false</activeaudioangle>
                    <clip id="clip-7"/>
                  </angle>
                  <masterclipid>clip-master</masterclipid>
                </multiclip>
              </clipitem>
              <clipitem id="cs-155">
                <duration>26</duration>
                <rate>
                  <ntsc>false</ntsc>
                  <timebase>25</timebase>
                </rate>
                <in>13640</in>
                <out>13665</out>
                <start>13640</start>
                <end>13665</end>
                <file id="src-5"/>
                <sourcetrack>
                  <mediatype>video</mediatype>
                  <trackindex>1</trackindex>
                </sourcetrack>
                <multiclip id="mcs-155">
                  <name>MCS-155</name>
                  <masterclipid>clip-master</masterclipid>
                  <collapsed>false</collapsed>
                  <angle>
                    <activevideoangle>false</activevideoangle>
                    <activeaudioangle>false</activeaudioangle>
                    <clip id="clip-1"/>
                  </angle>
                  <angle>
                    <activevideoangle>false</activevideoangle>
                    <activeaudioangle>false</activeaudioangle>
                    <clip id="clip-2"/>
                  </angle>
                  <angle>
                    <activevideoangle>false</activevideoangle>
                    <activeaudioangle>false</activeaudioangle>
                    <clip id="clip-3"/>
                  </angle>
                  <angle>
                    <activevideoangle>false</activevideoangle>
                    <activeaudioangle>false</activeaudioangle>
                    <clip id="clip-4"/>
                  </angle>
                  <angle>
                    <activevideoangle>true</activevideoangle>
                    <activeaudioangle>true</activeaudioangle>
                    <clip id="clip-5"/>
                  </angle>
                  <angle>
                    <activevideoangle>false</activevideoangle>
                    <activeaudioangle>false</activeaudioangle>
                    <clip id="clip-6"/>
                  </angle>
                  <angle>
                    <activevideoangle>false</activevideoangle>
                    <activeaudioangle>false</activeaudioangle>
                    <clip id="clip-7"/>
                  </angle>
                  <masterclipid>clip-master</masterclipid>
                </multiclip>
              </clipitem>
              <clipitem id="cs-156">
                <duration>274</duration>
                <rate>
                  <ntsc>false</ntsc>
                  <timebase>25</timebase>
                </rate>
                <in>13665</in>
                <out>13938</out>
                <start>13665</start>
                <end>13938</end>
                <file id="src-1"/>
                <sourcetrack>
                  <mediatype>video</mediatype>
                  <trackindex>1</trackindex>
                </sourcetrack>
                <multiclip id="mcs-156">
                  <name>MCS-156</name>
                  <masterclipid>clip-master</masterclipid>
                  <collapsed>false</collapsed>
                  <angle>
                    <activevideoangle>true</activevideoangle>
                    <activeaudioangle>true</activeaudioangle>
                    <clip id="clip-1"/>
                  </angle>
                  <angle>
                    <activevideoangle>false</activevideoangle>
                    <activeaudioangle>false</activeaudioangle>
                    <clip id="clip-2"/>
                  </angle>
                  <angle>
                    <activevideoangle>false</activevideoangle>
                    <activeaudioangle>false</activeaudioangle>
                    <clip id="clip-3"/>
                  </angle>
                  <angle>
                    <activevideoangle>false</activevideoangle>
                    <activeaudioangle>false</activeaudioangle>
                    <clip id="clip-4"/>
                  </angle>
                  <angle>
                    <activevideoangle>false</activevideoangle>
                    <activeaudioangle>false</activeaudioangle>
                    <clip id="clip-5"/>
                  </angle>
                  <angle>
                    <activevideoangle>false</activevideoangle>
                    <activeaudioangle>false</activeaudioangle>
                    <clip id="clip-6"/>
                  </angle>
                  <angle>
                    <activevideoangle>false</activevideoangle>
                    <activeaudioangle>false</activeaudioangle>
                    <clip id="clip-7"/>
                  </angle>
                  <masterclipid>clip-master</masterclipid>
                </multiclip>
              </clipitem>
              <clipitem id="cs-157">
                <duration>143</duration>
                <rate>
                  <ntsc>false</ntsc>
                  <timebase>25</timebase>
                </rate>
                <in>13938</in>
                <out>14080</out>
                <start>13938</start>
                <end>14080</end>
                <file id="src-3"/>
                <sourcetrack>
                  <mediatype>video</mediatype>
                  <trackindex>1</trackindex>
                </sourcetrack>
                <multiclip id="mcs-157">
                  <name>MCS-157</name>
                  <masterclipid>clip-master</masterclipid>
                  <collapsed>false</collapsed>
                  <angle>
                    <activevideoangle>false</activevideoangle>
                    <activeaudioangle>false</activeaudioangle>
                    <clip id="clip-1"/>
                  </angle>
                  <angle>
                    <activevideoangle>false</activevideoangle>
                    <activeaudioangle>false</activeaudioangle>
                    <clip id="clip-2"/>
                  </angle>
                  <angle>
                    <activevideoangle>true</activevideoangle>
                    <activeaudioangle>true</activeaudioangle>
                    <clip id="clip-3"/>
                  </angle>
                  <angle>
                    <activevideoangle>false</activevideoangle>
                    <activeaudioangle>false</activeaudioangle>
                    <clip id="clip-4"/>
                  </angle>
                  <angle>
                    <activevideoangle>false</activevideoangle>
                    <activeaudioangle>false</activeaudioangle>
                    <clip id="clip-5"/>
                  </angle>
                  <angle>
                    <activevideoangle>false</activevideoangle>
                    <activeaudioangle>false</activeaudioangle>
                    <clip id="clip-6"/>
                  </angle>
                  <angle>
                    <activevideoangle>false</activevideoangle>
                    <activeaudioangle>false</activeaudioangle>
                    <clip id="clip-7"/>
                  </angle>
                  <masterclipid>clip-master</masterclipid>
                </multiclip>
              </clipitem>
              <clipitem id="cs-158">
                <duration>181</duration>
                <rate>
                  <ntsc>false</ntsc>
                  <timebase>25</timebase>
                </rate>
                <in>14080</in>
                <out>14260</out>
                <start>14080</start>
                <end>14260</end>
                <file id="src-4"/>
                <sourcetrack>
                  <mediatype>video</mediatype>
                  <trackindex>1</trackindex>
                </sourcetrack>
                <multiclip id="mcs-158">
                  <name>MCS-158</name>
                  <masterclipid>clip-master</masterclipid>
                  <collapsed>false</collapsed>
                  <angle>
                    <activevideoangle>false</activevideoangle>
                    <activeaudioangle>false</activeaudioangle>
                    <clip id="clip-1"/>
                  </angle>
                  <angle>
                    <activevideoangle>false</activevideoangle>
                    <activeaudioangle>false</activeaudioangle>
                    <clip id="clip-2"/>
                  </angle>
                  <angle>
                    <activevideoangle>false</activevideoangle>
                    <activeaudioangle>false</activeaudioangle>
                    <clip id="clip-3"/>
                  </angle>
                  <angle>
                    <activevideoangle>true</activevideoangle>
                    <activeaudioangle>true</activeaudioangle>
                    <clip id="clip-4"/>
                  </angle>
                  <angle>
                    <activevideoangle>false</activevideoangle>
                    <activeaudioangle>false</activeaudioangle>
                    <clip id="clip-5"/>
                  </angle>
                  <angle>
                    <activevideoangle>false</activevideoangle>
                    <activeaudioangle>false</activeaudioangle>
                    <clip id="clip-6"/>
                  </angle>
                  <angle>
                    <activevideoangle>false</activevideoangle>
                    <activeaudioangle>false</activeaudioangle>
                    <clip id="clip-7"/>
                  </angle>
                  <masterclipid>clip-master</masterclipid>
                </multiclip>
              </clipitem>
              <clipitem id="cs-159">
                <duration>144</duration>
                <rate>
                  <ntsc>false</ntsc>
                  <timebase>25</timebase>
                </rate>
                <in>14260</in>
                <out>14403</out>
                <start>14260</start>
                <end>14403</end>
                <file id="src-2"/>
                <sourcetrack>
                  <mediatype>video</mediatype>
                  <trackindex>1</trackindex>
                </sourcetrack>
                <multiclip id="mcs-159">
                  <name>MCS-159</name>
                  <masterclipid>clip-master</masterclipid>
                  <collapsed>false</collapsed>
                  <angle>
                    <activevideoangle>false</activevideoangle>
                    <activeaudioangle>false</activeaudioangle>
                    <clip id="clip-1"/>
                  </angle>
                  <angle>
                    <activevideoangle>true</activevideoangle>
                    <activeaudioangle>true</activeaudioangle>
                    <clip id="clip-2"/>
                  </angle>
                  <angle>
                    <activevideoangle>false</activevideoangle>
                    <activeaudioangle>false</activeaudioangle>
                    <clip id="clip-3"/>
                  </angle>
                  <angle>
                    <activevideoangle>false</activevideoangle>
                    <activeaudioangle>false</activeaudioangle>
                    <clip id="clip-4"/>
                  </angle>
                  <angle>
                    <activevideoangle>false</activevideoangle>
                    <activeaudioangle>false</activeaudioangle>
                    <clip id="clip-5"/>
                  </angle>
                  <angle>
                    <activevideoangle>false</activevideoangle>
                    <activeaudioangle>false</activeaudioangle>
                    <clip id="clip-6"/>
                  </angle>
                  <angle>
                    <activevideoangle>false</activevideoangle>
                    <activeaudioangle>false</activeaudioangle>
                    <clip id="clip-7"/>
                  </angle>
                  <masterclipid>clip-master</masterclipid>
                </multiclip>
              </clipitem>
              <clipitem id="cs-160">
                <duration>50</duration>
                <rate>
                  <ntsc>false</ntsc>
                  <timebase>25</timebase>
                </rate>
                <in>14403</in>
                <out>14452</out>
                <start>14403</start>
                <end>14452</end>
                <file id="src-3"/>
                <sourcetrack>
                  <mediatype>video</mediatype>
                  <trackindex>1</trackindex>
                </sourcetrack>
                <multiclip id="mcs-160">
                  <name>MCS-160</name>
                  <masterclipid>clip-master</masterclipid>
                  <collapsed>false</collapsed>
                  <angle>
                    <activevideoangle>false</activevideoangle>
                    <activeaudioangle>false</activeaudioangle>
                    <clip id="clip-1"/>
                  </angle>
                  <angle>
                    <activevideoangle>false</activevideoangle>
                    <activeaudioangle>false</activeaudioangle>
                    <clip id="clip-2"/>
                  </angle>
                  <angle>
                    <activevideoangle>true</activevideoangle>
                    <activeaudioangle>true</activeaudioangle>
                    <clip id="clip-3"/>
                  </angle>
                  <angle>
                    <activevideoangle>false</activevideoangle>
                    <activeaudioangle>false</activeaudioangle>
                    <clip id="clip-4"/>
                  </angle>
                  <angle>
                    <activevideoangle>false</activevideoangle>
                    <activeaudioangle>false</activeaudioangle>
                    <clip id="clip-5"/>
                  </angle>
                  <angle>
                    <activevideoangle>false</activevideoangle>
                    <activeaudioangle>false</activeaudioangle>
                    <clip id="clip-6"/>
                  </angle>
                  <angle>
                    <activevideoangle>false</activevideoangle>
                    <activeaudioangle>false</activeaudioangle>
                    <clip id="clip-7"/>
                  </angle>
                  <masterclipid>clip-master</masterclipid>
                </multiclip>
              </clipitem>
              <clipitem id="cs-161">
                <duration>58</duration>
                <rate>
                  <ntsc>false</ntsc>
                  <timebase>25</timebase>
                </rate>
                <in>14452</in>
                <out>14509</out>
                <start>14452</start>
                <end>14509</end>
                <file id="src-4"/>
                <sourcetrack>
                  <mediatype>video</mediatype>
                  <trackindex>1</trackindex>
                </sourcetrack>
                <multiclip id="mcs-161">
                  <name>MCS-161</name>
                  <masterclipid>clip-master</masterclipid>
                  <collapsed>false</collapsed>
                  <angle>
                    <activevideoangle>false</activevideoangle>
                    <activeaudioangle>false</activeaudioangle>
                    <clip id="clip-1"/>
                  </angle>
                  <angle>
                    <activevideoangle>false</activevideoangle>
                    <activeaudioangle>false</activeaudioangle>
                    <clip id="clip-2"/>
                  </angle>
                  <angle>
                    <activevideoangle>false</activevideoangle>
                    <activeaudioangle>false</activeaudioangle>
                    <clip id="clip-3"/>
                  </angle>
                  <angle>
                    <activevideoangle>true</activevideoangle>
                    <activeaudioangle>true</activeaudioangle>
                    <clip id="clip-4"/>
                  </angle>
                  <angle>
                    <activevideoangle>false</activevideoangle>
                    <activeaudioangle>false</activeaudioangle>
                    <clip id="clip-5"/>
                  </angle>
                  <angle>
                    <activevideoangle>false</activevideoangle>
                    <activeaudioangle>false</activeaudioangle>
                    <clip id="clip-6"/>
                  </angle>
                  <angle>
                    <activevideoangle>false</activevideoangle>
                    <activeaudioangle>false</activeaudioangle>
                    <clip id="clip-7"/>
                  </angle>
                  <masterclipid>clip-master</masterclipid>
                </multiclip>
              </clipitem>
              <clipitem id="cs-162">
                <duration>56</duration>
                <rate>
                  <ntsc>false</ntsc>
                  <timebase>25</timebase>
                </rate>
                <in>14509</in>
                <out>14564</out>
                <start>14509</start>
                <end>14564</end>
                <file id="src-1"/>
                <sourcetrack>
                  <mediatype>video</mediatype>
                  <trackindex>1</trackindex>
                </sourcetrack>
                <multiclip id="mcs-162">
                  <name>MCS-162</name>
                  <masterclipid>clip-master</masterclipid>
                  <collapsed>false</collapsed>
                  <angle>
                    <activevideoangle>true</activevideoangle>
                    <activeaudioangle>true</activeaudioangle>
                    <clip id="clip-1"/>
                  </angle>
                  <angle>
                    <activevideoangle>false</activevideoangle>
                    <activeaudioangle>false</activeaudioangle>
                    <clip id="clip-2"/>
                  </angle>
                  <angle>
                    <activevideoangle>false</activevideoangle>
                    <activeaudioangle>false</activeaudioangle>
                    <clip id="clip-3"/>
                  </angle>
                  <angle>
                    <activevideoangle>false</activevideoangle>
                    <activeaudioangle>false</activeaudioangle>
                    <clip id="clip-4"/>
                  </angle>
                  <angle>
                    <activevideoangle>false</activevideoangle>
                    <activeaudioangle>false</activeaudioangle>
                    <clip id="clip-5"/>
                  </angle>
                  <angle>
                    <activevideoangle>false</activevideoangle>
                    <activeaudioangle>false</activeaudioangle>
                    <clip id="clip-6"/>
                  </angle>
                  <angle>
                    <activevideoangle>false</activevideoangle>
                    <activeaudioangle>false</activeaudioangle>
                    <clip id="clip-7"/>
                  </angle>
                  <masterclipid>clip-master</masterclipid>
                </multiclip>
              </clipitem>
              <clipitem id="cs-163">
                <duration>109</duration>
                <rate>
                  <ntsc>false</ntsc>
                  <timebase>25</timebase>
                </rate>
                <in>14564</in>
                <out>14672</out>
                <start>14564</start>
                <end>14672</end>
                <file id="src-2"/>
                <sourcetrack>
                  <mediatype>video</mediatype>
                  <trackindex>1</trackindex>
                </sourcetrack>
                <multiclip id="mcs-163">
                  <name>MCS-163</name>
                  <masterclipid>clip-master</masterclipid>
                  <collapsed>false</collapsed>
                  <angle>
                    <activevideoangle>false</activevideoangle>
                    <activeaudioangle>false</activeaudioangle>
                    <clip id="clip-1"/>
                  </angle>
                  <angle>
                    <activevideoangle>true</activevideoangle>
                    <activeaudioangle>true</activeaudioangle>
                    <clip id="clip-2"/>
                  </angle>
                  <angle>
                    <activevideoangle>false</activevideoangle>
                    <activeaudioangle>false</activeaudioangle>
                    <clip id="clip-3"/>
                  </angle>
                  <angle>
                    <activevideoangle>false</activevideoangle>
                    <activeaudioangle>false</activeaudioangle>
                    <clip id="clip-4"/>
                  </angle>
                  <angle>
                    <activevideoangle>false</activevideoangle>
                    <activeaudioangle>false</activeaudioangle>
                    <clip id="clip-5"/>
                  </angle>
                  <angle>
                    <activevideoangle>false</activevideoangle>
                    <activeaudioangle>false</activeaudioangle>
                    <clip id="clip-6"/>
                  </angle>
                  <angle>
                    <activevideoangle>false</activevideoangle>
                    <activeaudioangle>false</activeaudioangle>
                    <clip id="clip-7"/>
                  </angle>
                  <masterclipid>clip-master</masterclipid>
                </multiclip>
              </clipitem>
              <clipitem id="cs-164">
                <duration>66</duration>
                <rate>
                  <ntsc>false</ntsc>
                  <timebase>25</timebase>
                </rate>
                <in>14672</in>
                <out>14737</out>
                <start>14672</start>
                <end>14737</end>
                <file id="src-4"/>
                <sourcetrack>
                  <mediatype>video</mediatype>
                  <trackindex>1</trackindex>
                </sourcetrack>
                <multiclip id="mcs-164">
                  <name>MCS-164</name>
                  <masterclipid>clip-master</masterclipid>
                  <collapsed>false</collapsed>
                  <angle>
                    <activevideoangle>false</activevideoangle>
                    <activeaudioangle>false</activeaudioangle>
                    <clip id="clip-1"/>
                  </angle>
                  <angle>
                    <activevideoangle>false</activevideoangle>
                    <activeaudioangle>false</activeaudioangle>
                    <clip id="clip-2"/>
                  </angle>
                  <angle>
                    <activevideoangle>false</activevideoangle>
                    <activeaudioangle>false</activeaudioangle>
                    <clip id="clip-3"/>
                  </angle>
                  <angle>
                    <activevideoangle>true</activevideoangle>
                    <activeaudioangle>true</activeaudioangle>
                    <clip id="clip-4"/>
                  </angle>
                  <angle>
                    <activevideoangle>false</activevideoangle>
                    <activeaudioangle>false</activeaudioangle>
                    <clip id="clip-5"/>
                  </angle>
                  <angle>
                    <activevideoangle>false</activevideoangle>
                    <activeaudioangle>false</activeaudioangle>
                    <clip id="clip-6"/>
                  </angle>
                  <angle>
                    <activevideoangle>false</activevideoangle>
                    <activeaudioangle>false</activeaudioangle>
                    <clip id="clip-7"/>
                  </angle>
                  <masterclipid>clip-master</masterclipid>
                </multiclip>
              </clipitem>
              <clipitem id="cs-165">
                <duration>95</duration>
                <rate>
                  <ntsc>false</ntsc>
                  <timebase>25</timebase>
                </rate>
                <in>14737</in>
                <out>14831</out>
                <start>14737</start>
                <end>14831</end>
                <file id="src-3"/>
                <sourcetrack>
                  <mediatype>video</mediatype>
                  <trackindex>1</trackindex>
                </sourcetrack>
                <multiclip id="mcs-165">
                  <name>MCS-165</name>
                  <masterclipid>clip-master</masterclipid>
                  <collapsed>false</collapsed>
                  <angle>
                    <activevideoangle>false</activevideoangle>
                    <activeaudioangle>false</activeaudioangle>
                    <clip id="clip-1"/>
                  </angle>
                  <angle>
                    <activevideoangle>false</activevideoangle>
                    <activeaudioangle>false</activeaudioangle>
                    <clip id="clip-2"/>
                  </angle>
                  <angle>
                    <activevideoangle>true</activevideoangle>
                    <activeaudioangle>true</activeaudioangle>
                    <clip id="clip-3"/>
                  </angle>
                  <angle>
                    <activevideoangle>false</activevideoangle>
                    <activeaudioangle>false</activeaudioangle>
                    <clip id="clip-4"/>
                  </angle>
                  <angle>
                    <activevideoangle>false</activevideoangle>
                    <activeaudioangle>false</activeaudioangle>
                    <clip id="clip-5"/>
                  </angle>
                  <angle>
                    <activevideoangle>false</activevideoangle>
                    <activeaudioangle>false</activeaudioangle>
                    <clip id="clip-6"/>
                  </angle>
                  <angle>
                    <activevideoangle>false</activevideoangle>
                    <activeaudioangle>false</activeaudioangle>
                    <clip id="clip-7"/>
                  </angle>
                  <masterclipid>clip-master</masterclipid>
                </multiclip>
              </clipitem>
              <clipitem id="cs-166">
                <duration>141</duration>
                <rate>
                  <ntsc>false</ntsc>
                  <timebase>25</timebase>
                </rate>
                <in>14831</in>
                <out>14971</out>
                <start>14831</start>
                <end>14971</end>
                <file id="src-2"/>
                <sourcetrack>
                  <mediatype>video</mediatype>
                  <trackindex>1</trackindex>
                </sourcetrack>
                <multiclip id="mcs-166">
                  <name>MCS-166</name>
                  <masterclipid>clip-master</masterclipid>
                  <collapsed>false</collapsed>
                  <angle>
                    <activevideoangle>false</activevideoangle>
                    <activeaudioangle>false</activeaudioangle>
                    <clip id="clip-1"/>
                  </angle>
                  <angle>
                    <activevideoangle>true</activevideoangle>
                    <activeaudioangle>true</activeaudioangle>
                    <clip id="clip-2"/>
                  </angle>
                  <angle>
                    <activevideoangle>false</activevideoangle>
                    <activeaudioangle>false</activeaudioangle>
                    <clip id="clip-3"/>
                  </angle>
                  <angle>
                    <activevideoangle>false</activevideoangle>
                    <activeaudioangle>false</activeaudioangle>
                    <clip id="clip-4"/>
                  </angle>
                  <angle>
                    <activevideoangle>false</activevideoangle>
                    <activeaudioangle>false</activeaudioangle>
                    <clip id="clip-5"/>
                  </angle>
                  <angle>
                    <activevideoangle>false</activevideoangle>
                    <activeaudioangle>false</activeaudioangle>
                    <clip id="clip-6"/>
                  </angle>
                  <angle>
                    <activevideoangle>false</activevideoangle>
                    <activeaudioangle>false</activeaudioangle>
                    <clip id="clip-7"/>
                  </angle>
                  <masterclipid>clip-master</masterclipid>
                </multiclip>
              </clipitem>
              <clipitem id="cs-167">
                <duration>92</duration>
                <rate>
                  <ntsc>false</ntsc>
                  <timebase>25</timebase>
                </rate>
                <in>14971</in>
                <out>15062</out>
                <start>14971</start>
                <end>15062</end>
                <file id="src-4"/>
                <sourcetrack>
                  <mediatype>video</mediatype>
                  <trackindex>1</trackindex>
                </sourcetrack>
                <multiclip id="mcs-167">
                  <name>MCS-167</name>
                  <masterclipid>clip-master</masterclipid>
                  <collapsed>false</collapsed>
                  <angle>
                    <activevideoangle>false</activevideoangle>
                    <activeaudioangle>false</activeaudioangle>
                    <clip id="clip-1"/>
                  </angle>
                  <angle>
                    <activevideoangle>false</activevideoangle>
                    <activeaudioangle>false</activeaudioangle>
                    <clip id="clip-2"/>
                  </angle>
                  <angle>
                    <activevideoangle>false</activevideoangle>
                    <activeaudioangle>false</activeaudioangle>
                    <clip id="clip-3"/>
                  </angle>
                  <angle>
                    <activevideoangle>true</activevideoangle>
                    <activeaudioangle>true</activeaudioangle>
                    <clip id="clip-4"/>
                  </angle>
                  <angle>
                    <activevideoangle>false</activevideoangle>
                    <activeaudioangle>false</activeaudioangle>
                    <clip id="clip-5"/>
                  </angle>
                  <angle>
                    <activevideoangle>false</activevideoangle>
                    <activeaudioangle>false</activeaudioangle>
                    <clip id="clip-6"/>
                  </angle>
                  <angle>
                    <activevideoangle>false</activevideoangle>
                    <activeaudioangle>false</activeaudioangle>
                    <clip id="clip-7"/>
                  </angle>
                  <masterclipid>clip-master</masterclipid>
                </multiclip>
              </clipitem>
              <clipitem id="cs-168">
                <duration>267</duration>
                <rate>
                  <ntsc>false</ntsc>
                  <timebase>25</timebase>
                </rate>
                <in>15062</in>
                <out>15328</out>
                <start>15062</start>
                <end>15328</end>
                <file id="src-2"/>
                <sourcetrack>
                  <mediatype>video</mediatype>
                  <trackindex>1</trackindex>
                </sourcetrack>
                <multiclip id="mcs-168">
                  <name>MCS-168</name>
                  <masterclipid>clip-master</masterclipid>
                  <collapsed>false</collapsed>
                  <angle>
                    <activevideoangle>false</activevideoangle>
                    <activeaudioangle>false</activeaudioangle>
                    <clip id="clip-1"/>
                  </angle>
                  <angle>
                    <activevideoangle>true</activevideoangle>
                    <activeaudioangle>true</activeaudioangle>
                    <clip id="clip-2"/>
                  </angle>
                  <angle>
                    <activevideoangle>false</activevideoangle>
                    <activeaudioangle>false</activeaudioangle>
                    <clip id="clip-3"/>
                  </angle>
                  <angle>
                    <activevideoangle>false</activevideoangle>
                    <activeaudioangle>false</activeaudioangle>
                    <clip id="clip-4"/>
                  </angle>
                  <angle>
                    <activevideoangle>false</activevideoangle>
                    <activeaudioangle>false</activeaudioangle>
                    <clip id="clip-5"/>
                  </angle>
                  <angle>
                    <activevideoangle>false</activevideoangle>
                    <activeaudioangle>false</activeaudioangle>
                    <clip id="clip-6"/>
                  </angle>
                  <angle>
                    <activevideoangle>false</activevideoangle>
                    <activeaudioangle>false</activeaudioangle>
                    <clip id="clip-7"/>
                  </angle>
                  <masterclipid>clip-master</masterclipid>
                </multiclip>
              </clipitem>
              <clipitem id="cs-169">
                <duration>112</duration>
                <rate>
                  <ntsc>false</ntsc>
                  <timebase>25</timebase>
                </rate>
                <in>15328</in>
                <out>15439</out>
                <start>15328</start>
                <end>15439</end>
                <file id="src-3"/>
                <sourcetrack>
                  <mediatype>video</mediatype>
                  <trackindex>1</trackindex>
                </sourcetrack>
                <multiclip id="mcs-169">
                  <name>MCS-169</name>
                  <masterclipid>clip-master</masterclipid>
                  <collapsed>false</collapsed>
                  <angle>
                    <activevideoangle>false</activevideoangle>
                    <activeaudioangle>false</activeaudioangle>
                    <clip id="clip-1"/>
                  </angle>
                  <angle>
                    <activevideoangle>false</activevideoangle>
                    <activeaudioangle>false</activeaudioangle>
                    <clip id="clip-2"/>
                  </angle>
                  <angle>
                    <activevideoangle>true</activevideoangle>
                    <activeaudioangle>true</activeaudioangle>
                    <clip id="clip-3"/>
                  </angle>
                  <angle>
                    <activevideoangle>false</activevideoangle>
                    <activeaudioangle>false</activeaudioangle>
                    <clip id="clip-4"/>
                  </angle>
                  <angle>
                    <activevideoangle>false</activevideoangle>
                    <activeaudioangle>false</activeaudioangle>
                    <clip id="clip-5"/>
                  </angle>
                  <angle>
                    <activevideoangle>false</activevideoangle>
                    <activeaudioangle>false</activeaudioangle>
                    <clip id="clip-6"/>
                  </angle>
                  <angle>
                    <activevideoangle>false</activevideoangle>
                    <activeaudioangle>false</activeaudioangle>
                    <clip id="clip-7"/>
                  </angle>
                  <masterclipid>clip-master</masterclipid>
                </multiclip>
              </clipitem>
              <clipitem id="cs-170">
                <duration>195</duration>
                <rate>
                  <ntsc>false</ntsc>
                  <timebase>25</timebase>
                </rate>
                <in>15439</in>
                <out>15633</out>
                <start>15439</start>
                <end>15633</end>
                <file id="src-2"/>
                <sourcetrack>
                  <mediatype>video</mediatype>
                  <trackindex>1</trackindex>
                </sourcetrack>
                <multiclip id="mcs-170">
                  <name>MCS-170</name>
                  <masterclipid>clip-master</masterclipid>
                  <collapsed>false</collapsed>
                  <angle>
                    <activevideoangle>false</activevideoangle>
                    <activeaudioangle>false</activeaudioangle>
                    <clip id="clip-1"/>
                  </angle>
                  <angle>
                    <activevideoangle>true</activevideoangle>
                    <activeaudioangle>true</activeaudioangle>
                    <clip id="clip-2"/>
                  </angle>
                  <angle>
                    <activevideoangle>false</activevideoangle>
                    <activeaudioangle>false</activeaudioangle>
                    <clip id="clip-3"/>
                  </angle>
                  <angle>
                    <activevideoangle>false</activevideoangle>
                    <activeaudioangle>false</activeaudioangle>
                    <clip id="clip-4"/>
                  </angle>
                  <angle>
                    <activevideoangle>false</activevideoangle>
                    <activeaudioangle>false</activeaudioangle>
                    <clip id="clip-5"/>
                  </angle>
                  <angle>
                    <activevideoangle>false</activevideoangle>
                    <activeaudioangle>false</activeaudioangle>
                    <clip id="clip-6"/>
                  </angle>
                  <angle>
                    <activevideoangle>false</activevideoangle>
                    <activeaudioangle>false</activeaudioangle>
                    <clip id="clip-7"/>
                  </angle>
                  <masterclipid>clip-master</masterclipid>
                </multiclip>
              </clipitem>
              <clipitem id="cs-171">
                <duration>176</duration>
                <rate>
                  <ntsc>false</ntsc>
                  <timebase>25</timebase>
                </rate>
                <in>15633</in>
                <out>15808</out>
                <start>15633</start>
                <end>15808</end>
                <file id="src-4"/>
                <sourcetrack>
                  <mediatype>video</mediatype>
                  <trackindex>1</trackindex>
                </sourcetrack>
                <multiclip id="mcs-171">
                  <name>MCS-171</name>
                  <masterclipid>clip-master</masterclipid>
                  <collapsed>false</collapsed>
                  <angle>
                    <activevideoangle>false</activevideoangle>
                    <activeaudioangle>false</activeaudioangle>
                    <clip id="clip-1"/>
                  </angle>
                  <angle>
                    <activevideoangle>false</activevideoangle>
                    <activeaudioangle>false</activeaudioangle>
                    <clip id="clip-2"/>
                  </angle>
                  <angle>
                    <activevideoangle>false</activevideoangle>
                    <activeaudioangle>false</activeaudioangle>
                    <clip id="clip-3"/>
                  </angle>
                  <angle>
                    <activevideoangle>true</activevideoangle>
                    <activeaudioangle>true</activeaudioangle>
                    <clip id="clip-4"/>
                  </angle>
                  <angle>
                    <activevideoangle>false</activevideoangle>
                    <activeaudioangle>false</activeaudioangle>
                    <clip id="clip-5"/>
                  </angle>
                  <angle>
                    <activevideoangle>false</activevideoangle>
                    <activeaudioangle>false</activeaudioangle>
                    <clip id="clip-6"/>
                  </angle>
                  <angle>
                    <activevideoangle>false</activevideoangle>
                    <activeaudioangle>false</activeaudioangle>
                    <clip id="clip-7"/>
                  </angle>
                  <masterclipid>clip-master</masterclipid>
                </multiclip>
              </clipitem>
              <clipitem id="cs-172">
                <duration>97</duration>
                <rate>
                  <ntsc>false</ntsc>
                  <timebase>25</timebase>
                </rate>
                <in>15808</in>
                <out>15904</out>
                <start>15808</start>
                <end>15904</end>
                <file id="src-2"/>
                <sourcetrack>
                  <mediatype>video</mediatype>
                  <trackindex>1</trackindex>
                </sourcetrack>
                <multiclip id="mcs-172">
                  <name>MCS-172</name>
                  <masterclipid>clip-master</masterclipid>
                  <collapsed>false</collapsed>
                  <angle>
                    <activevideoangle>false</activevideoangle>
                    <activeaudioangle>false</activeaudioangle>
                    <clip id="clip-1"/>
                  </angle>
                  <angle>
                    <activevideoangle>true</activevideoangle>
                    <activeaudioangle>true</activeaudioangle>
                    <clip id="clip-2"/>
                  </angle>
                  <angle>
                    <activevideoangle>false</activevideoangle>
                    <activeaudioangle>false</activeaudioangle>
                    <clip id="clip-3"/>
                  </angle>
                  <angle>
                    <activevideoangle>false</activevideoangle>
                    <activeaudioangle>false</activeaudioangle>
                    <clip id="clip-4"/>
                  </angle>
                  <angle>
                    <activevideoangle>false</activevideoangle>
                    <activeaudioangle>false</activeaudioangle>
                    <clip id="clip-5"/>
                  </angle>
                  <angle>
                    <activevideoangle>false</activevideoangle>
                    <activeaudioangle>false</activeaudioangle>
                    <clip id="clip-6"/>
                  </angle>
                  <angle>
                    <activevideoangle>false</activevideoangle>
                    <activeaudioangle>false</activeaudioangle>
                    <clip id="clip-7"/>
                  </angle>
                  <masterclipid>clip-master</masterclipid>
                </multiclip>
              </clipitem>
              <clipitem id="cs-173">
                <duration>71</duration>
                <rate>
                  <ntsc>false</ntsc>
                  <timebase>25</timebase>
                </rate>
                <in>15904</in>
                <out>15974</out>
                <start>15904</start>
                <end>15974</end>
                <file id="src-3"/>
                <sourcetrack>
                  <mediatype>video</mediatype>
                  <trackindex>1</trackindex>
                </sourcetrack>
                <multiclip id="mcs-173">
                  <name>MCS-173</name>
                  <masterclipid>clip-master</masterclipid>
                  <collapsed>false</collapsed>
                  <angle>
                    <activevideoangle>false</activevideoangle>
                    <activeaudioangle>false</activeaudioangle>
                    <clip id="clip-1"/>
                  </angle>
                  <angle>
                    <activevideoangle>false</activevideoangle>
                    <activeaudioangle>false</activeaudioangle>
                    <clip id="clip-2"/>
                  </angle>
                  <angle>
                    <activevideoangle>true</activevideoangle>
                    <activeaudioangle>true</activeaudioangle>
                    <clip id="clip-3"/>
                  </angle>
                  <angle>
                    <activevideoangle>false</activevideoangle>
                    <activeaudioangle>false</activeaudioangle>
                    <clip id="clip-4"/>
                  </angle>
                  <angle>
                    <activevideoangle>false</activevideoangle>
                    <activeaudioangle>false</activeaudioangle>
                    <clip id="clip-5"/>
                  </angle>
                  <angle>
                    <activevideoangle>false</activevideoangle>
                    <activeaudioangle>false</activeaudioangle>
                    <clip id="clip-6"/>
                  </angle>
                  <angle>
                    <activevideoangle>false</activevideoangle>
                    <activeaudioangle>false</activeaudioangle>
                    <clip id="clip-7"/>
                  </angle>
                  <masterclipid>clip-master</masterclipid>
                </multiclip>
              </clipitem>
              <clipitem id="cs-174">
                <duration>73</duration>
                <rate>
                  <ntsc>false</ntsc>
                  <timebase>25</timebase>
                </rate>
                <in>15974</in>
                <out>16046</out>
                <start>15974</start>
                <end>16046</end>
                <file id="src-1"/>
                <sourcetrack>
                  <mediatype>video</mediatype>
                  <trackindex>1</trackindex>
                </sourcetrack>
                <multiclip id="mcs-174">
                  <name>MCS-174</name>
                  <masterclipid>clip-master</masterclipid>
                  <collapsed>false</collapsed>
                  <angle>
                    <activevideoangle>true</activevideoangle>
                    <activeaudioangle>true</activeaudioangle>
                    <clip id="clip-1"/>
                  </angle>
                  <angle>
                    <activevideoangle>false</activevideoangle>
                    <activeaudioangle>false</activeaudioangle>
                    <clip id="clip-2"/>
                  </angle>
                  <angle>
                    <activevideoangle>false</activevideoangle>
                    <activeaudioangle>false</activeaudioangle>
                    <clip id="clip-3"/>
                  </angle>
                  <angle>
                    <activevideoangle>false</activevideoangle>
                    <activeaudioangle>false</activeaudioangle>
                    <clip id="clip-4"/>
                  </angle>
                  <angle>
                    <activevideoangle>false</activevideoangle>
                    <activeaudioangle>false</activeaudioangle>
                    <clip id="clip-5"/>
                  </angle>
                  <angle>
                    <activevideoangle>false</activevideoangle>
                    <activeaudioangle>false</activeaudioangle>
                    <clip id="clip-6"/>
                  </angle>
                  <angle>
                    <activevideoangle>false</activevideoangle>
                    <activeaudioangle>false</activeaudioangle>
                    <clip id="clip-7"/>
                  </angle>
                  <masterclipid>clip-master</masterclipid>
                </multiclip>
              </clipitem>
              <clipitem id="cs-175">
                <duration>106</duration>
                <rate>
                  <ntsc>false</ntsc>
                  <timebase>25</timebase>
                </rate>
                <in>16046</in>
                <out>16151</out>
                <start>16046</start>
                <end>16151</end>
                <file id="src-4"/>
                <sourcetrack>
                  <mediatype>video</mediatype>
                  <trackindex>1</trackindex>
                </sourcetrack>
                <multiclip id="mcs-175">
                  <name>MCS-175</name>
                  <masterclipid>clip-master</masterclipid>
                  <collapsed>false</collapsed>
                  <angle>
                    <activevideoangle>false</activevideoangle>
                    <activeaudioangle>false</activeaudioangle>
                    <clip id="clip-1"/>
                  </angle>
                  <angle>
                    <activevideoangle>false</activevideoangle>
                    <activeaudioangle>false</activeaudioangle>
                    <clip id="clip-2"/>
                  </angle>
                  <angle>
                    <activevideoangle>false</activevideoangle>
                    <activeaudioangle>false</activeaudioangle>
                    <clip id="clip-3"/>
                  </angle>
                  <angle>
                    <activevideoangle>true</activevideoangle>
                    <activeaudioangle>true</activeaudioangle>
                    <clip id="clip-4"/>
                  </angle>
                  <angle>
                    <activevideoangle>false</activevideoangle>
                    <activeaudioangle>false</activeaudioangle>
                    <clip id="clip-5"/>
                  </angle>
                  <angle>
                    <activevideoangle>false</activevideoangle>
                    <activeaudioangle>false</activeaudioangle>
                    <clip id="clip-6"/>
                  </angle>
                  <angle>
                    <activevideoangle>false</activevideoangle>
                    <activeaudioangle>false</activeaudioangle>
                    <clip id="clip-7"/>
                  </angle>
                  <masterclipid>clip-master</masterclipid>
                </multiclip>
              </clipitem>
              <clipitem id="cs-176">
                <duration>45</duration>
                <rate>
                  <ntsc>false</ntsc>
                  <timebase>25</timebase>
                </rate>
                <in>16151</in>
                <out>16195</out>
                <start>16151</start>
                <end>16195</end>
                <file id="src-3"/>
                <sourcetrack>
                  <mediatype>video</mediatype>
                  <trackindex>1</trackindex>
                </sourcetrack>
                <multiclip id="mcs-176">
                  <name>MCS-176</name>
                  <masterclipid>clip-master</masterclipid>
                  <collapsed>false</collapsed>
                  <angle>
                    <activevideoangle>false</activevideoangle>
                    <activeaudioangle>false</activeaudioangle>
                    <clip id="clip-1"/>
                  </angle>
                  <angle>
                    <activevideoangle>false</activevideoangle>
                    <activeaudioangle>false</activeaudioangle>
                    <clip id="clip-2"/>
                  </angle>
                  <angle>
                    <activevideoangle>true</activevideoangle>
                    <activeaudioangle>true</activeaudioangle>
                    <clip id="clip-3"/>
                  </angle>
                  <angle>
                    <activevideoangle>false</activevideoangle>
                    <activeaudioangle>false</activeaudioangle>
                    <clip id="clip-4"/>
                  </angle>
                  <angle>
                    <activevideoangle>false</activevideoangle>
                    <activeaudioangle>false</activeaudioangle>
                    <clip id="clip-5"/>
                  </angle>
                  <angle>
                    <activevideoangle>false</activevideoangle>
                    <activeaudioangle>false</activeaudioangle>
                    <clip id="clip-6"/>
                  </angle>
                  <angle>
                    <activevideoangle>false</activevideoangle>
                    <activeaudioangle>false</activeaudioangle>
                    <clip id="clip-7"/>
                  </angle>
                  <masterclipid>clip-master</masterclipid>
                </multiclip>
              </clipitem>
              <clipitem id="cs-177">
                <duration>57</duration>
                <rate>
                  <ntsc>false</ntsc>
                  <timebase>25</timebase>
                </rate>
                <in>16195</in>
                <out>16251</out>
                <start>16195</start>
                <end>16251</end>
                <file id="src-5"/>
                <sourcetrack>
                  <mediatype>video</mediatype>
                  <trackindex>1</trackindex>
                </sourcetrack>
                <multiclip id="mcs-177">
                  <name>MCS-177</name>
                  <masterclipid>clip-master</masterclipid>
                  <collapsed>false</collapsed>
                  <angle>
                    <activevideoangle>false</activevideoangle>
                    <activeaudioangle>false</activeaudioangle>
                    <clip id="clip-1"/>
                  </angle>
                  <angle>
                    <activevideoangle>false</activevideoangle>
                    <activeaudioangle>false</activeaudioangle>
                    <clip id="clip-2"/>
                  </angle>
                  <angle>
                    <activevideoangle>false</activevideoangle>
                    <activeaudioangle>false</activeaudioangle>
                    <clip id="clip-3"/>
                  </angle>
                  <angle>
                    <activevideoangle>false</activevideoangle>
                    <activeaudioangle>false</activeaudioangle>
                    <clip id="clip-4"/>
                  </angle>
                  <angle>
                    <activevideoangle>true</activevideoangle>
                    <activeaudioangle>true</activeaudioangle>
                    <clip id="clip-5"/>
                  </angle>
                  <angle>
                    <activevideoangle>false</activevideoangle>
                    <activeaudioangle>false</activeaudioangle>
                    <clip id="clip-6"/>
                  </angle>
                  <angle>
                    <activevideoangle>false</activevideoangle>
                    <activeaudioangle>false</activeaudioangle>
                    <clip id="clip-7"/>
                  </angle>
                  <masterclipid>clip-master</masterclipid>
                </multiclip>
              </clipitem>
              <clipitem id="cs-178">
                <duration>127</duration>
                <rate>
                  <ntsc>false</ntsc>
                  <timebase>25</timebase>
                </rate>
                <in>16251</in>
                <out>16377</out>
                <start>16251</start>
                <end>16377</end>
                <file id="src-2"/>
                <sourcetrack>
                  <mediatype>video</mediatype>
                  <trackindex>1</trackindex>
                </sourcetrack>
                <multiclip id="mcs-178">
                  <name>MCS-178</name>
                  <masterclipid>clip-master</masterclipid>
                  <collapsed>false</collapsed>
                  <angle>
                    <activevideoangle>false</activevideoangle>
                    <activeaudioangle>false</activeaudioangle>
                    <clip id="clip-1"/>
                  </angle>
                  <angle>
                    <activevideoangle>true</activevideoangle>
                    <activeaudioangle>true</activeaudioangle>
                    <clip id="clip-2"/>
                  </angle>
                  <angle>
                    <activevideoangle>false</activevideoangle>
                    <activeaudioangle>false</activeaudioangle>
                    <clip id="clip-3"/>
                  </angle>
                  <angle>
                    <activevideoangle>false</activevideoangle>
                    <activeaudioangle>false</activeaudioangle>
                    <clip id="clip-4"/>
                  </angle>
                  <angle>
                    <activevideoangle>false</activevideoangle>
                    <activeaudioangle>false</activeaudioangle>
                    <clip id="clip-5"/>
                  </angle>
                  <angle>
                    <activevideoangle>false</activevideoangle>
                    <activeaudioangle>false</activeaudioangle>
                    <clip id="clip-6"/>
                  </angle>
                  <angle>
                    <activevideoangle>false</activevideoangle>
                    <activeaudioangle>false</activeaudioangle>
                    <clip id="clip-7"/>
                  </angle>
                  <masterclipid>clip-master</masterclipid>
                </multiclip>
              </clipitem>
              <clipitem id="cs-179">
                <duration>64</duration>
                <rate>
                  <ntsc>false</ntsc>
                  <timebase>25</timebase>
                </rate>
                <in>16377</in>
                <out>16440</out>
                <start>16377</start>
                <end>16440</end>
                <file id="src-3"/>
                <sourcetrack>
                  <mediatype>video</mediatype>
                  <trackindex>1</trackindex>
                </sourcetrack>
                <multiclip id="mcs-179">
                  <name>MCS-179</name>
                  <masterclipid>clip-master</masterclipid>
                  <collapsed>false</collapsed>
                  <angle>
                    <activevideoangle>false</activevideoangle>
                    <activeaudioangle>false</activeaudioangle>
                    <clip id="clip-1"/>
                  </angle>
                  <angle>
                    <activevideoangle>false</activevideoangle>
                    <activeaudioangle>false</activeaudioangle>
                    <clip id="clip-2"/>
                  </angle>
                  <angle>
                    <activevideoangle>true</activevideoangle>
                    <activeaudioangle>true</activeaudioangle>
                    <clip id="clip-3"/>
                  </angle>
                  <angle>
                    <activevideoangle>false</activevideoangle>
                    <activeaudioangle>false</activeaudioangle>
                    <clip id="clip-4"/>
                  </angle>
                  <angle>
                    <activevideoangle>false</activevideoangle>
                    <activeaudioangle>false</activeaudioangle>
                    <clip id="clip-5"/>
                  </angle>
                  <angle>
                    <activevideoangle>false</activevideoangle>
                    <activeaudioangle>false</activeaudioangle>
                    <clip id="clip-6"/>
                  </angle>
                  <angle>
                    <activevideoangle>false</activevideoangle>
                    <activeaudioangle>false</activeaudioangle>
                    <clip id="clip-7"/>
                  </angle>
                  <masterclipid>clip-master</masterclipid>
                </multiclip>
              </clipitem>
              <clipitem id="cs-180">
                <duration>51</duration>
                <rate>
                  <ntsc>false</ntsc>
                  <timebase>25</timebase>
                </rate>
                <in>16440</in>
                <out>16490</out>
                <start>16440</start>
                <end>16490</end>
                <file id="src-4"/>
                <sourcetrack>
                  <mediatype>video</mediatype>
                  <trackindex>1</trackindex>
                </sourcetrack>
                <multiclip id="mcs-180">
                  <name>MCS-180</name>
                  <masterclipid>clip-master</masterclipid>
                  <collapsed>false</collapsed>
                  <angle>
                    <activevideoangle>false</activevideoangle>
                    <activeaudioangle>false</activeaudioangle>
                    <clip id="clip-1"/>
                  </angle>
                  <angle>
                    <activevideoangle>false</activevideoangle>
                    <activeaudioangle>false</activeaudioangle>
                    <clip id="clip-2"/>
                  </angle>
                  <angle>
                    <activevideoangle>false</activevideoangle>
                    <activeaudioangle>false</activeaudioangle>
                    <clip id="clip-3"/>
                  </angle>
                  <angle>
                    <activevideoangle>true</activevideoangle>
                    <activeaudioangle>true</activeaudioangle>
                    <clip id="clip-4"/>
                  </angle>
                  <angle>
                    <activevideoangle>false</activevideoangle>
                    <activeaudioangle>false</activeaudioangle>
                    <clip id="clip-5"/>
                  </angle>
                  <angle>
                    <activevideoangle>false</activevideoangle>
                    <activeaudioangle>false</activeaudioangle>
                    <clip id="clip-6"/>
                  </angle>
                  <angle>
                    <activevideoangle>false</activevideoangle>
                    <activeaudioangle>false</activeaudioangle>
                    <clip id="clip-7"/>
                  </angle>
                  <masterclipid>clip-master</masterclipid>
                </multiclip>
              </clipitem>
              <clipitem id="cs-181">
                <duration>54</duration>
                <rate>
                  <ntsc>false</ntsc>
                  <timebase>25</timebase>
                </rate>
                <in>16490</in>
                <out>16543</out>
                <start>16490</start>
                <end>16543</end>
                <file id="src-1"/>
                <sourcetrack>
                  <mediatype>video</mediatype>
                  <trackindex>1</trackindex>
                </sourcetrack>
                <multiclip id="mcs-181">
                  <name>MCS-181</name>
                  <masterclipid>clip-master</masterclipid>
                  <collapsed>false</collapsed>
                  <angle>
                    <activevideoangle>true</activevideoangle>
                    <activeaudioangle>true</activeaudioangle>
                    <clip id="clip-1"/>
                  </angle>
                  <angle>
                    <activevideoangle>false</activevideoangle>
                    <activeaudioangle>false</activeaudioangle>
                    <clip id="clip-2"/>
                  </angle>
                  <angle>
                    <activevideoangle>false</activevideoangle>
                    <activeaudioangle>false</activeaudioangle>
                    <clip id="clip-3"/>
                  </angle>
                  <angle>
                    <activevideoangle>false</activevideoangle>
                    <activeaudioangle>false</activeaudioangle>
                    <clip id="clip-4"/>
                  </angle>
                  <angle>
                    <activevideoangle>false</activevideoangle>
                    <activeaudioangle>false</activeaudioangle>
                    <clip id="clip-5"/>
                  </angle>
                  <angle>
                    <activevideoangle>false</activevideoangle>
                    <activeaudioangle>false</activeaudioangle>
                    <clip id="clip-6"/>
                  </angle>
                  <angle>
                    <activevideoangle>false</activevideoangle>
                    <activeaudioangle>false</activeaudioangle>
                    <clip id="clip-7"/>
                  </angle>
                  <masterclipid>clip-master</masterclipid>
                </multiclip>
              </clipitem>
              <clipitem id="cs-182">
                <duration>75</duration>
                <rate>
                  <ntsc>false</ntsc>
                  <timebase>25</timebase>
                </rate>
                <in>16543</in>
                <out>16617</out>
                <start>16543</start>
                <end>16617</end>
                <file id="src-3"/>
                <sourcetrack>
                  <mediatype>video</mediatype>
                  <trackindex>1</trackindex>
                </sourcetrack>
                <multiclip id="mcs-182">
                  <name>MCS-182</name>
                  <masterclipid>clip-master</masterclipid>
                  <collapsed>false</collapsed>
                  <angle>
                    <activevideoangle>false</activevideoangle>
                    <activeaudioangle>false</activeaudioangle>
                    <clip id="clip-1"/>
                  </angle>
                  <angle>
                    <activevideoangle>false</activevideoangle>
                    <activeaudioangle>false</activeaudioangle>
                    <clip id="clip-2"/>
                  </angle>
                  <angle>
                    <activevideoangle>true</activevideoangle>
                    <activeaudioangle>true</activeaudioangle>
                    <clip id="clip-3"/>
                  </angle>
                  <angle>
                    <activevideoangle>false</activevideoangle>
                    <activeaudioangle>false</activeaudioangle>
                    <clip id="clip-4"/>
                  </angle>
                  <angle>
                    <activevideoangle>false</activevideoangle>
                    <activeaudioangle>false</activeaudioangle>
                    <clip id="clip-5"/>
                  </angle>
                  <angle>
                    <activevideoangle>false</activevideoangle>
                    <activeaudioangle>false</activeaudioangle>
                    <clip id="clip-6"/>
                  </angle>
                  <angle>
                    <activevideoangle>false</activevideoangle>
                    <activeaudioangle>false</activeaudioangle>
                    <clip id="clip-7"/>
                  </angle>
                  <masterclipid>clip-master</masterclipid>
                </multiclip>
              </clipitem>
              <clipitem id="cs-183">
                <duration>125</duration>
                <rate>
                  <ntsc>false</ntsc>
                  <timebase>25</timebase>
                </rate>
                <in>16617</in>
                <out>16741</out>
                <start>16617</start>
                <end>16741</end>
                <file id="src-2"/>
                <sourcetrack>
                  <mediatype>video</mediatype>
                  <trackindex>1</trackindex>
                </sourcetrack>
                <multiclip id="mcs-183">
                  <name>MCS-183</name>
                  <masterclipid>clip-master</masterclipid>
                  <collapsed>false</collapsed>
                  <angle>
                    <activevideoangle>false</activevideoangle>
                    <activeaudioangle>false</activeaudioangle>
                    <clip id="clip-1"/>
                  </angle>
                  <angle>
                    <activevideoangle>true</activevideoangle>
                    <activeaudioangle>true</activeaudioangle>
                    <clip id="clip-2"/>
                  </angle>
                  <angle>
                    <activevideoangle>false</activevideoangle>
                    <activeaudioangle>false</activeaudioangle>
                    <clip id="clip-3"/>
                  </angle>
                  <angle>
                    <activevideoangle>false</activevideoangle>
                    <activeaudioangle>false</activeaudioangle>
                    <clip id="clip-4"/>
                  </angle>
                  <angle>
                    <activevideoangle>false</activevideoangle>
                    <activeaudioangle>false</activeaudioangle>
                    <clip id="clip-5"/>
                  </angle>
                  <angle>
                    <activevideoangle>false</activevideoangle>
                    <activeaudioangle>false</activeaudioangle>
                    <clip id="clip-6"/>
                  </angle>
                  <angle>
                    <activevideoangle>false</activevideoangle>
                    <activeaudioangle>false</activeaudioangle>
                    <clip id="clip-7"/>
                  </angle>
                  <masterclipid>clip-master</masterclipid>
                </multiclip>
              </clipitem>
              <clipitem id="cs-184">
                <duration>38</duration>
                <rate>
                  <ntsc>false</ntsc>
                  <timebase>25</timebase>
                </rate>
                <in>16741</in>
                <out>16778</out>
                <start>16741</start>
                <end>16778</end>
                <file id="src-1"/>
                <sourcetrack>
                  <mediatype>video</mediatype>
                  <trackindex>1</trackindex>
                </sourcetrack>
                <multiclip id="mcs-184">
                  <name>MCS-184</name>
                  <masterclipid>clip-master</masterclipid>
                  <collapsed>false</collapsed>
                  <angle>
                    <activevideoangle>true</activevideoangle>
                    <activeaudioangle>true</activeaudioangle>
                    <clip id="clip-1"/>
                  </angle>
                  <angle>
                    <activevideoangle>false</activevideoangle>
                    <activeaudioangle>false</activeaudioangle>
                    <clip id="clip-2"/>
                  </angle>
                  <angle>
                    <activevideoangle>false</activevideoangle>
                    <activeaudioangle>false</activeaudioangle>
                    <clip id="clip-3"/>
                  </angle>
                  <angle>
                    <activevideoangle>false</activevideoangle>
                    <activeaudioangle>false</activeaudioangle>
                    <clip id="clip-4"/>
                  </angle>
                  <angle>
                    <activevideoangle>false</activevideoangle>
                    <activeaudioangle>false</activeaudioangle>
                    <clip id="clip-5"/>
                  </angle>
                  <angle>
                    <activevideoangle>false</activevideoangle>
                    <activeaudioangle>false</activeaudioangle>
                    <clip id="clip-6"/>
                  </angle>
                  <angle>
                    <activevideoangle>false</activevideoangle>
                    <activeaudioangle>false</activeaudioangle>
                    <clip id="clip-7"/>
                  </angle>
                  <masterclipid>clip-master</masterclipid>
                </multiclip>
              </clipitem>
              <clipitem id="cs-185">
                <duration>102</duration>
                <rate>
                  <ntsc>false</ntsc>
                  <timebase>25</timebase>
                </rate>
                <in>16778</in>
                <out>16879</out>
                <start>16778</start>
                <end>16879</end>
                <file id="src-3"/>
                <sourcetrack>
                  <mediatype>video</mediatype>
                  <trackindex>1</trackindex>
                </sourcetrack>
                <multiclip id="mcs-185">
                  <name>MCS-185</name>
                  <masterclipid>clip-master</masterclipid>
                  <collapsed>false</collapsed>
                  <angle>
                    <activevideoangle>false</activevideoangle>
                    <activeaudioangle>false</activeaudioangle>
                    <clip id="clip-1"/>
                  </angle>
                  <angle>
                    <activevideoangle>false</activevideoangle>
                    <activeaudioangle>false</activeaudioangle>
                    <clip id="clip-2"/>
                  </angle>
                  <angle>
                    <activevideoangle>true</activevideoangle>
                    <activeaudioangle>true</activeaudioangle>
                    <clip id="clip-3"/>
                  </angle>
                  <angle>
                    <activevideoangle>false</activevideoangle>
                    <activeaudioangle>false</activeaudioangle>
                    <clip id="clip-4"/>
                  </angle>
                  <angle>
                    <activevideoangle>false</activevideoangle>
                    <activeaudioangle>false</activeaudioangle>
                    <clip id="clip-5"/>
                  </angle>
                  <angle>
                    <activevideoangle>false</activevideoangle>
                    <activeaudioangle>false</activeaudioangle>
                    <clip id="clip-6"/>
                  </angle>
                  <angle>
                    <activevideoangle>false</activevideoangle>
                    <activeaudioangle>false</activeaudioangle>
                    <clip id="clip-7"/>
                  </angle>
                  <masterclipid>clip-master</masterclipid>
                </multiclip>
              </clipitem>
              <clipitem id="cs-186">
                <duration>140</duration>
                <rate>
                  <ntsc>false</ntsc>
                  <timebase>25</timebase>
                </rate>
                <in>16879</in>
                <out>17018</out>
                <start>16879</start>
                <end>17018</end>
                <file id="src-2"/>
                <sourcetrack>
                  <mediatype>video</mediatype>
                  <trackindex>1</trackindex>
                </sourcetrack>
                <multiclip id="mcs-186">
                  <name>MCS-186</name>
                  <masterclipid>clip-master</masterclipid>
                  <collapsed>false</collapsed>
                  <angle>
                    <activevideoangle>false</activevideoangle>
                    <activeaudioangle>false</activeaudioangle>
                    <clip id="clip-1"/>
                  </angle>
                  <angle>
                    <activevideoangle>true</activevideoangle>
                    <activeaudioangle>true</activeaudioangle>
                    <clip id="clip-2"/>
                  </angle>
                  <angle>
                    <activevideoangle>false</activevideoangle>
                    <activeaudioangle>false</activeaudioangle>
                    <clip id="clip-3"/>
                  </angle>
                  <angle>
                    <activevideoangle>false</activevideoangle>
                    <activeaudioangle>false</activeaudioangle>
                    <clip id="clip-4"/>
                  </angle>
                  <angle>
                    <activevideoangle>false</activevideoangle>
                    <activeaudioangle>false</activeaudioangle>
                    <clip id="clip-5"/>
                  </angle>
                  <angle>
                    <activevideoangle>false</activevideoangle>
                    <activeaudioangle>false</activeaudioangle>
                    <clip id="clip-6"/>
                  </angle>
                  <angle>
                    <activevideoangle>false</activevideoangle>
                    <activeaudioangle>false</activeaudioangle>
                    <clip id="clip-7"/>
                  </angle>
                  <masterclipid>clip-master</masterclipid>
                </multiclip>
              </clipitem>
              <clipitem id="cs-187">
                <duration>80</duration>
                <rate>
                  <ntsc>false</ntsc>
                  <timebase>25</timebase>
                </rate>
                <in>17018</in>
                <out>17097</out>
                <start>17018</start>
                <end>17097</end>
                <file id="src-3"/>
                <sourcetrack>
                  <mediatype>video</mediatype>
                  <trackindex>1</trackindex>
                </sourcetrack>
                <multiclip id="mcs-187">
                  <name>MCS-187</name>
                  <masterclipid>clip-master</masterclipid>
                  <collapsed>false</collapsed>
                  <angle>
                    <activevideoangle>false</activevideoangle>
                    <activeaudioangle>false</activeaudioangle>
                    <clip id="clip-1"/>
                  </angle>
                  <angle>
                    <activevideoangle>false</activevideoangle>
                    <activeaudioangle>false</activeaudioangle>
                    <clip id="clip-2"/>
                  </angle>
                  <angle>
                    <activevideoangle>true</activevideoangle>
                    <activeaudioangle>true</activeaudioangle>
                    <clip id="clip-3"/>
                  </angle>
                  <angle>
                    <activevideoangle>false</activevideoangle>
                    <activeaudioangle>false</activeaudioangle>
                    <clip id="clip-4"/>
                  </angle>
                  <angle>
                    <activevideoangle>false</activevideoangle>
                    <activeaudioangle>false</activeaudioangle>
                    <clip id="clip-5"/>
                  </angle>
                  <angle>
                    <activevideoangle>false</activevideoangle>
                    <activeaudioangle>false</activeaudioangle>
                    <clip id="clip-6"/>
                  </angle>
                  <angle>
                    <activevideoangle>false</activevideoangle>
                    <activeaudioangle>false</activeaudioangle>
                    <clip id="clip-7"/>
                  </angle>
                  <masterclipid>clip-master</masterclipid>
                </multiclip>
              </clipitem>
              <clipitem id="cs-188">
                <duration>77</duration>
                <rate>
                  <ntsc>false</ntsc>
                  <timebase>25</timebase>
                </rate>
                <in>17097</in>
                <out>17173</out>
                <start>17097</start>
                <end>17173</end>
                <file id="src-2"/>
                <sourcetrack>
                  <mediatype>video</mediatype>
                  <trackindex>1</trackindex>
                </sourcetrack>
                <multiclip id="mcs-188">
                  <name>MCS-188</name>
                  <masterclipid>clip-master</masterclipid>
                  <collapsed>false</collapsed>
                  <angle>
                    <activevideoangle>false</activevideoangle>
                    <activeaudioangle>false</activeaudioangle>
                    <clip id="clip-1"/>
                  </angle>
                  <angle>
                    <activevideoangle>true</activevideoangle>
                    <activeaudioangle>true</activeaudioangle>
                    <clip id="clip-2"/>
                  </angle>
                  <angle>
                    <activevideoangle>false</activevideoangle>
                    <activeaudioangle>false</activeaudioangle>
                    <clip id="clip-3"/>
                  </angle>
                  <angle>
                    <activevideoangle>false</activevideoangle>
                    <activeaudioangle>false</activeaudioangle>
                    <clip id="clip-4"/>
                  </angle>
                  <angle>
                    <activevideoangle>false</activevideoangle>
                    <activeaudioangle>false</activeaudioangle>
                    <clip id="clip-5"/>
                  </angle>
                  <angle>
                    <activevideoangle>false</activevideoangle>
                    <activeaudioangle>false</activeaudioangle>
                    <clip id="clip-6"/>
                  </angle>
                  <angle>
                    <activevideoangle>false</activevideoangle>
                    <activeaudioangle>false</activeaudioangle>
                    <clip id="clip-7"/>
                  </angle>
                  <masterclipid>clip-master</masterclipid>
                </multiclip>
              </clipitem>
              <clipitem id="cs-189">
                <duration>78</duration>
                <rate>
                  <ntsc>false</ntsc>
                  <timebase>25</timebase>
                </rate>
                <in>17173</in>
                <out>17250</out>
                <start>17173</start>
                <end>17250</end>
                <file id="src-4"/>
                <sourcetrack>
                  <mediatype>video</mediatype>
                  <trackindex>1</trackindex>
                </sourcetrack>
                <multiclip id="mcs-189">
                  <name>MCS-189</name>
                  <masterclipid>clip-master</masterclipid>
                  <collapsed>false</collapsed>
                  <angle>
                    <activevideoangle>false</activevideoangle>
                    <activeaudioangle>false</activeaudioangle>
                    <clip id="clip-1"/>
                  </angle>
                  <angle>
                    <activevideoangle>false</activevideoangle>
                    <activeaudioangle>false</activeaudioangle>
                    <clip id="clip-2"/>
                  </angle>
                  <angle>
                    <activevideoangle>false</activevideoangle>
                    <activeaudioangle>false</activeaudioangle>
                    <clip id="clip-3"/>
                  </angle>
                  <angle>
                    <activevideoangle>true</activevideoangle>
                    <activeaudioangle>true</activeaudioangle>
                    <clip id="clip-4"/>
                  </angle>
                  <angle>
                    <activevideoangle>false</activevideoangle>
                    <activeaudioangle>false</activeaudioangle>
                    <clip id="clip-5"/>
                  </angle>
                  <angle>
                    <activevideoangle>false</activevideoangle>
                    <activeaudioangle>false</activeaudioangle>
                    <clip id="clip-6"/>
                  </angle>
                  <angle>
                    <activevideoangle>false</activevideoangle>
                    <activeaudioangle>false</activeaudioangle>
                    <clip id="clip-7"/>
                  </angle>
                  <masterclipid>clip-master</masterclipid>
                </multiclip>
              </clipitem>
              <clipitem id="cs-190">
                <duration>96</duration>
                <rate>
                  <ntsc>false</ntsc>
                  <timebase>25</timebase>
                </rate>
                <in>17250</in>
                <out>17345</out>
                <start>17250</start>
                <end>17345</end>
                <file id="src-2"/>
                <sourcetrack>
                  <mediatype>video</mediatype>
                  <trackindex>1</trackindex>
                </sourcetrack>
                <multiclip id="mcs-190">
                  <name>MCS-190</name>
                  <masterclipid>clip-master</masterclipid>
                  <collapsed>false</collapsed>
                  <angle>
                    <activevideoangle>false</activevideoangle>
                    <activeaudioangle>false</activeaudioangle>
                    <clip id="clip-1"/>
                  </angle>
                  <angle>
                    <activevideoangle>true</activevideoangle>
                    <activeaudioangle>true</activeaudioangle>
                    <clip id="clip-2"/>
                  </angle>
                  <angle>
                    <activevideoangle>false</activevideoangle>
                    <activeaudioangle>false</activeaudioangle>
                    <clip id="clip-3"/>
                  </angle>
                  <angle>
                    <activevideoangle>false</activevideoangle>
                    <activeaudioangle>false</activeaudioangle>
                    <clip id="clip-4"/>
                  </angle>
                  <angle>
                    <activevideoangle>false</activevideoangle>
                    <activeaudioangle>false</activeaudioangle>
                    <clip id="clip-5"/>
                  </angle>
                  <angle>
                    <activevideoangle>false</activevideoangle>
                    <activeaudioangle>false</activeaudioangle>
                    <clip id="clip-6"/>
                  </angle>
                  <angle>
                    <activevideoangle>false</activevideoangle>
                    <activeaudioangle>false</activeaudioangle>
                    <clip id="clip-7"/>
                  </angle>
                  <masterclipid>clip-master</masterclipid>
                </multiclip>
              </clipitem>
              <clipitem id="cs-191">
                <duration>142</duration>
                <rate>
                  <ntsc>false</ntsc>
                  <timebase>25</timebase>
                </rate>
                <in>17345</in>
                <out>17486</out>
                <start>17345</start>
                <end>17486</end>
                <file id="src-1"/>
                <sourcetrack>
                  <mediatype>video</mediatype>
                  <trackindex>1</trackindex>
                </sourcetrack>
                <multiclip id="mcs-191">
                  <name>MCS-191</name>
                  <masterclipid>clip-master</masterclipid>
                  <collapsed>false</collapsed>
                  <angle>
                    <activevideoangle>true</activevideoangle>
                    <activeaudioangle>true</activeaudioangle>
                    <clip id="clip-1"/>
                  </angle>
                  <angle>
                    <activevideoangle>false</activevideoangle>
                    <activeaudioangle>false</activeaudioangle>
                    <clip id="clip-2"/>
                  </angle>
                  <angle>
                    <activevideoangle>false</activevideoangle>
                    <activeaudioangle>false</activeaudioangle>
                    <clip id="clip-3"/>
                  </angle>
                  <angle>
                    <activevideoangle>false</activevideoangle>
                    <activeaudioangle>false</activeaudioangle>
                    <clip id="clip-4"/>
                  </angle>
                  <angle>
                    <activevideoangle>false</activevideoangle>
                    <activeaudioangle>false</activeaudioangle>
                    <clip id="clip-5"/>
                  </angle>
                  <angle>
                    <activevideoangle>false</activevideoangle>
                    <activeaudioangle>false</activeaudioangle>
                    <clip id="clip-6"/>
                  </angle>
                  <angle>
                    <activevideoangle>false</activevideoangle>
                    <activeaudioangle>false</activeaudioangle>
                    <clip id="clip-7"/>
                  </angle>
                  <masterclipid>clip-master</masterclipid>
                </multiclip>
              </clipitem>
              <clipitem id="cs-192">
                <duration>304</duration>
                <rate>
                  <ntsc>false</ntsc>
                  <timebase>25</timebase>
                </rate>
                <in>17486</in>
                <out>17789</out>
                <start>17486</start>
                <end>17789</end>
                <file id="src-2"/>
                <sourcetrack>
                  <mediatype>video</mediatype>
                  <trackindex>1</trackindex>
                </sourcetrack>
                <multiclip id="mcs-192">
                  <name>MCS-192</name>
                  <masterclipid>clip-master</masterclipid>
                  <collapsed>false</collapsed>
                  <angle>
                    <activevideoangle>false</activevideoangle>
                    <activeaudioangle>false</activeaudioangle>
                    <clip id="clip-1"/>
                  </angle>
                  <angle>
                    <activevideoangle>true</activevideoangle>
                    <activeaudioangle>true</activeaudioangle>
                    <clip id="clip-2"/>
                  </angle>
                  <angle>
                    <activevideoangle>false</activevideoangle>
                    <activeaudioangle>false</activeaudioangle>
                    <clip id="clip-3"/>
                  </angle>
                  <angle>
                    <activevideoangle>false</activevideoangle>
                    <activeaudioangle>false</activeaudioangle>
                    <clip id="clip-4"/>
                  </angle>
                  <angle>
                    <activevideoangle>false</activevideoangle>
                    <activeaudioangle>false</activeaudioangle>
                    <clip id="clip-5"/>
                  </angle>
                  <angle>
                    <activevideoangle>false</activevideoangle>
                    <activeaudioangle>false</activeaudioangle>
                    <clip id="clip-6"/>
                  </angle>
                  <angle>
                    <activevideoangle>false</activevideoangle>
                    <activeaudioangle>false</activeaudioangle>
                    <clip id="clip-7"/>
                  </angle>
                  <masterclipid>clip-master</masterclipid>
                </multiclip>
              </clipitem>
              <clipitem id="cs-193">
                <duration>217</duration>
                <rate>
                  <ntsc>false</ntsc>
                  <timebase>25</timebase>
                </rate>
                <in>17789</in>
                <out>18005</out>
                <start>17789</start>
                <end>18005</end>
                <file id="src-3"/>
                <sourcetrack>
                  <mediatype>video</mediatype>
                  <trackindex>1</trackindex>
                </sourcetrack>
                <multiclip id="mcs-193">
                  <name>MCS-193</name>
                  <masterclipid>clip-master</masterclipid>
                  <collapsed>false</collapsed>
                  <angle>
                    <activevideoangle>false</activevideoangle>
                    <activeaudioangle>false</activeaudioangle>
                    <clip id="clip-1"/>
                  </angle>
                  <angle>
                    <activevideoangle>false</activevideoangle>
                    <activeaudioangle>false</activeaudioangle>
                    <clip id="clip-2"/>
                  </angle>
                  <angle>
                    <activevideoangle>true</activevideoangle>
                    <activeaudioangle>true</activeaudioangle>
                    <clip id="clip-3"/>
                  </angle>
                  <angle>
                    <activevideoangle>false</activevideoangle>
                    <activeaudioangle>false</activeaudioangle>
                    <clip id="clip-4"/>
                  </angle>
                  <angle>
                    <activevideoangle>false</activevideoangle>
                    <activeaudioangle>false</activeaudioangle>
                    <clip id="clip-5"/>
                  </angle>
                  <angle>
                    <activevideoangle>false</activevideoangle>
                    <activeaudioangle>false</activeaudioangle>
                    <clip id="clip-6"/>
                  </angle>
                  <angle>
                    <activevideoangle>false</activevideoangle>
                    <activeaudioangle>false</activeaudioangle>
                    <clip id="clip-7"/>
                  </angle>
                  <masterclipid>clip-master</masterclipid>
                </multiclip>
              </clipitem>
              <clipitem id="cs-194">
                <duration>93</duration>
                <rate>
                  <ntsc>false</ntsc>
                  <timebase>25</timebase>
                </rate>
                <in>18005</in>
                <out>18097</out>
                <start>18005</start>
                <end>18097</end>
                <file id="src-2"/>
                <sourcetrack>
                  <mediatype>video</mediatype>
                  <trackindex>1</trackindex>
                </sourcetrack>
                <multiclip id="mcs-194">
                  <name>MCS-194</name>
                  <masterclipid>clip-master</masterclipid>
                  <collapsed>false</collapsed>
                  <angle>
                    <activevideoangle>false</activevideoangle>
                    <activeaudioangle>false</activeaudioangle>
                    <clip id="clip-1"/>
                  </angle>
                  <angle>
                    <activevideoangle>true</activevideoangle>
                    <activeaudioangle>true</activeaudioangle>
                    <clip id="clip-2"/>
                  </angle>
                  <angle>
                    <activevideoangle>false</activevideoangle>
                    <activeaudioangle>false</activeaudioangle>
                    <clip id="clip-3"/>
                  </angle>
                  <angle>
                    <activevideoangle>false</activevideoangle>
                    <activeaudioangle>false</activeaudioangle>
                    <clip id="clip-4"/>
                  </angle>
                  <angle>
                    <activevideoangle>false</activevideoangle>
                    <activeaudioangle>false</activeaudioangle>
                    <clip id="clip-5"/>
                  </angle>
                  <angle>
                    <activevideoangle>false</activevideoangle>
                    <activeaudioangle>false</activeaudioangle>
                    <clip id="clip-6"/>
                  </angle>
                  <angle>
                    <activevideoangle>false</activevideoangle>
                    <activeaudioangle>false</activeaudioangle>
                    <clip id="clip-7"/>
                  </angle>
                  <masterclipid>clip-master</masterclipid>
                </multiclip>
              </clipitem>
              <clipitem id="cs-195">
                <duration>141</duration>
                <rate>
                  <ntsc>false</ntsc>
                  <timebase>25</timebase>
                </rate>
                <in>18097</in>
                <out>18237</out>
                <start>18097</start>
                <end>18237</end>
                <file id="src-4"/>
                <sourcetrack>
                  <mediatype>video</mediatype>
                  <trackindex>1</trackindex>
                </sourcetrack>
                <multiclip id="mcs-195">
                  <name>MCS-195</name>
                  <masterclipid>clip-master</masterclipid>
                  <collapsed>false</collapsed>
                  <angle>
                    <activevideoangle>false</activevideoangle>
                    <activeaudioangle>false</activeaudioangle>
                    <clip id="clip-1"/>
                  </angle>
                  <angle>
                    <activevideoangle>false</activevideoangle>
                    <activeaudioangle>false</activeaudioangle>
                    <clip id="clip-2"/>
                  </angle>
                  <angle>
                    <activevideoangle>false</activevideoangle>
                    <activeaudioangle>false</activeaudioangle>
                    <clip id="clip-3"/>
                  </angle>
                  <angle>
                    <activevideoangle>true</activevideoangle>
                    <activeaudioangle>true</activeaudioangle>
                    <clip id="clip-4"/>
                  </angle>
                  <angle>
                    <activevideoangle>false</activevideoangle>
                    <activeaudioangle>false</activeaudioangle>
                    <clip id="clip-5"/>
                  </angle>
                  <angle>
                    <activevideoangle>false</activevideoangle>
                    <activeaudioangle>false</activeaudioangle>
                    <clip id="clip-6"/>
                  </angle>
                  <angle>
                    <activevideoangle>false</activevideoangle>
                    <activeaudioangle>false</activeaudioangle>
                    <clip id="clip-7"/>
                  </angle>
                  <masterclipid>clip-master</masterclipid>
                </multiclip>
              </clipitem>
              <clipitem id="cs-196">
                <duration>85</duration>
                <rate>
                  <ntsc>false</ntsc>
                  <timebase>25</timebase>
                </rate>
                <in>18237</in>
                <out>18321</out>
                <start>18237</start>
                <end>18321</end>
                <file id="src-1"/>
                <sourcetrack>
                  <mediatype>video</mediatype>
                  <trackindex>1</trackindex>
                </sourcetrack>
                <multiclip id="mcs-196">
                  <name>MCS-196</name>
                  <masterclipid>clip-master</masterclipid>
                  <collapsed>false</collapsed>
                  <angle>
                    <activevideoangle>true</activevideoangle>
                    <activeaudioangle>true</activeaudioangle>
                    <clip id="clip-1"/>
                  </angle>
                  <angle>
                    <activevideoangle>false</activevideoangle>
                    <activeaudioangle>false</activeaudioangle>
                    <clip id="clip-2"/>
                  </angle>
                  <angle>
                    <activevideoangle>false</activevideoangle>
                    <activeaudioangle>false</activeaudioangle>
                    <clip id="clip-3"/>
                  </angle>
                  <angle>
                    <activevideoangle>false</activevideoangle>
                    <activeaudioangle>false</activeaudioangle>
                    <clip id="clip-4"/>
                  </angle>
                  <angle>
                    <activevideoangle>false</activevideoangle>
                    <activeaudioangle>false</activeaudioangle>
                    <clip id="clip-5"/>
                  </angle>
                  <angle>
                    <activevideoangle>false</activevideoangle>
                    <activeaudioangle>false</activeaudioangle>
                    <clip id="clip-6"/>
                  </angle>
                  <angle>
                    <activevideoangle>false</activevideoangle>
                    <activeaudioangle>false</activeaudioangle>
                    <clip id="clip-7"/>
                  </angle>
                  <masterclipid>clip-master</masterclipid>
                </multiclip>
              </clipitem>
              <clipitem id="cs-197">
                <duration>149</duration>
                <rate>
                  <ntsc>false</ntsc>
                  <timebase>25</timebase>
                </rate>
                <in>18321</in>
                <out>18469</out>
                <start>18321</start>
                <end>18469</end>
                <file id="src-3"/>
                <sourcetrack>
                  <mediatype>video</mediatype>
                  <trackindex>1</trackindex>
                </sourcetrack>
                <multiclip id="mcs-197">
                  <name>MCS-197</name>
                  <masterclipid>clip-master</masterclipid>
                  <collapsed>false</collapsed>
                  <angle>
                    <activevideoangle>false</activevideoangle>
                    <activeaudioangle>false</activeaudioangle>
                    <clip id="clip-1"/>
                  </angle>
                  <angle>
                    <activevideoangle>false</activevideoangle>
                    <activeaudioangle>false</activeaudioangle>
                    <clip id="clip-2"/>
                  </angle>
                  <angle>
                    <activevideoangle>true</activevideoangle>
                    <activeaudioangle>true</activeaudioangle>
                    <clip id="clip-3"/>
                  </angle>
                  <angle>
                    <activevideoangle>false</activevideoangle>
                    <activeaudioangle>false</activeaudioangle>
                    <clip id="clip-4"/>
                  </angle>
                  <angle>
                    <activevideoangle>false</activevideoangle>
                    <activeaudioangle>false</activeaudioangle>
                    <clip id="clip-5"/>
                  </angle>
                  <angle>
                    <activevideoangle>false</activevideoangle>
                    <activeaudioangle>false</activeaudioangle>
                    <clip id="clip-6"/>
                  </angle>
                  <angle>
                    <activevideoangle>false</activevideoangle>
                    <activeaudioangle>false</activeaudioangle>
                    <clip id="clip-7"/>
                  </angle>
                  <masterclipid>clip-master</masterclipid>
                </multiclip>
              </clipitem>
              <clipitem id="cs-198">
                <duration>337</duration>
                <rate>
                  <ntsc>false</ntsc>
                  <timebase>25</timebase>
                </rate>
                <in>18469</in>
                <out>18805</out>
                <start>18469</start>
                <end>18805</end>
                <file id="src-2"/>
                <sourcetrack>
                  <mediatype>video</mediatype>
                  <trackindex>1</trackindex>
                </sourcetrack>
                <multiclip id="mcs-198">
                  <name>MCS-198</name>
                  <masterclipid>clip-master</masterclipid>
                  <collapsed>false</collapsed>
                  <angle>
                    <activevideoangle>false</activevideoangle>
                    <activeaudioangle>false</activeaudioangle>
                    <clip id="clip-1"/>
                  </angle>
                  <angle>
                    <activevideoangle>true</activevideoangle>
                    <activeaudioangle>true</activeaudioangle>
                    <clip id="clip-2"/>
                  </angle>
                  <angle>
                    <activevideoangle>false</activevideoangle>
                    <activeaudioangle>false</activeaudioangle>
                    <clip id="clip-3"/>
                  </angle>
                  <angle>
                    <activevideoangle>false</activevideoangle>
                    <activeaudioangle>false</activeaudioangle>
                    <clip id="clip-4"/>
                  </angle>
                  <angle>
                    <activevideoangle>false</activevideoangle>
                    <activeaudioangle>false</activeaudioangle>
                    <clip id="clip-5"/>
                  </angle>
                  <angle>
                    <activevideoangle>false</activevideoangle>
                    <activeaudioangle>false</activeaudioangle>
                    <clip id="clip-6"/>
                  </angle>
                  <angle>
                    <activevideoangle>false</activevideoangle>
                    <activeaudioangle>false</activeaudioangle>
                    <clip id="clip-7"/>
                  </angle>
                  <masterclipid>clip-master</masterclipid>
                </multiclip>
              </clipitem>
              <clipitem id="cs-199">
                <duration>306</duration>
                <rate>
                  <ntsc>false</ntsc>
                  <timebase>25</timebase>
                </rate>
                <in>18805</in>
                <out>19110</out>
                <start>18805</start>
                <end>19110</end>
                <file id="src-3"/>
                <sourcetrack>
                  <mediatype>video</mediatype>
                  <trackindex>1</trackindex>
                </sourcetrack>
                <multiclip id="mcs-199">
                  <name>MCS-199</name>
                  <masterclipid>clip-master</masterclipid>
                  <collapsed>false</collapsed>
                  <angle>
                    <activevideoangle>false</activevideoangle>
                    <activeaudioangle>false</activeaudioangle>
                    <clip id="clip-1"/>
                  </angle>
                  <angle>
                    <activevideoangle>false</activevideoangle>
                    <activeaudioangle>false</activeaudioangle>
                    <clip id="clip-2"/>
                  </angle>
                  <angle>
                    <activevideoangle>true</activevideoangle>
                    <activeaudioangle>true</activeaudioangle>
                    <clip id="clip-3"/>
                  </angle>
                  <angle>
                    <activevideoangle>false</activevideoangle>
                    <activeaudioangle>false</activeaudioangle>
                    <clip id="clip-4"/>
                  </angle>
                  <angle>
                    <activevideoangle>false</activevideoangle>
                    <activeaudioangle>false</activeaudioangle>
                    <clip id="clip-5"/>
                  </angle>
                  <angle>
                    <activevideoangle>false</activevideoangle>
                    <activeaudioangle>false</activeaudioangle>
                    <clip id="clip-6"/>
                  </angle>
                  <angle>
                    <activevideoangle>false</activevideoangle>
                    <activeaudioangle>false</activeaudioangle>
                    <clip id="clip-7"/>
                  </angle>
                  <masterclipid>clip-master</masterclipid>
                </multiclip>
              </clipitem>
              <clipitem id="cs-200">
                <duration>146</duration>
                <rate>
                  <ntsc>false</ntsc>
                  <timebase>25</timebase>
                </rate>
                <in>19110</in>
                <out>19255</out>
                <start>19110</start>
                <end>19255</end>
                <file id="src-2"/>
                <sourcetrack>
                  <mediatype>video</mediatype>
                  <trackindex>1</trackindex>
                </sourcetrack>
                <multiclip id="mcs-200">
                  <name>MCS-200</name>
                  <masterclipid>clip-master</masterclipid>
                  <collapsed>false</collapsed>
                  <angle>
                    <activevideoangle>false</activevideoangle>
                    <activeaudioangle>false</activeaudioangle>
                    <clip id="clip-1"/>
                  </angle>
                  <angle>
                    <activevideoangle>true</activevideoangle>
                    <activeaudioangle>true</activeaudioangle>
                    <clip id="clip-2"/>
                  </angle>
                  <angle>
                    <activevideoangle>false</activevideoangle>
                    <activeaudioangle>false</activeaudioangle>
                    <clip id="clip-3"/>
                  </angle>
                  <angle>
                    <activevideoangle>false</activevideoangle>
                    <activeaudioangle>false</activeaudioangle>
                    <clip id="clip-4"/>
                  </angle>
                  <angle>
                    <activevideoangle>false</activevideoangle>
                    <activeaudioangle>false</activeaudioangle>
                    <clip id="clip-5"/>
                  </angle>
                  <angle>
                    <activevideoangle>false</activevideoangle>
                    <activeaudioangle>false</activeaudioangle>
                    <clip id="clip-6"/>
                  </angle>
                  <angle>
                    <activevideoangle>false</activevideoangle>
                    <activeaudioangle>false</activeaudioangle>
                    <clip id="clip-7"/>
                  </angle>
                  <masterclipid>clip-master</masterclipid>
                </multiclip>
              </clipitem>
              <clipitem id="cs-201">
                <duration>163</duration>
                <rate>
                  <ntsc>false</ntsc>
                  <timebase>25</timebase>
                </rate>
                <in>19255</in>
                <out>19417</out>
                <start>19255</start>
                <end>19417</end>
                <file id="src-3"/>
                <sourcetrack>
                  <mediatype>video</mediatype>
                  <trackindex>1</trackindex>
                </sourcetrack>
                <multiclip id="mcs-201">
                  <name>MCS-201</name>
                  <masterclipid>clip-master</masterclipid>
                  <collapsed>false</collapsed>
                  <angle>
                    <activevideoangle>false</activevideoangle>
                    <activeaudioangle>false</activeaudioangle>
                    <clip id="clip-1"/>
                  </angle>
                  <angle>
                    <activevideoangle>false</activevideoangle>
                    <activeaudioangle>false</activeaudioangle>
                    <clip id="clip-2"/>
                  </angle>
                  <angle>
                    <activevideoangle>true</activevideoangle>
                    <activeaudioangle>true</activeaudioangle>
                    <clip id="clip-3"/>
                  </angle>
                  <angle>
                    <activevideoangle>false</activevideoangle>
                    <activeaudioangle>false</activeaudioangle>
                    <clip id="clip-4"/>
                  </angle>
                  <angle>
                    <activevideoangle>false</activevideoangle>
                    <activeaudioangle>false</activeaudioangle>
                    <clip id="clip-5"/>
                  </angle>
                  <angle>
                    <activevideoangle>false</activevideoangle>
                    <activeaudioangle>false</activeaudioangle>
                    <clip id="clip-6"/>
                  </angle>
                  <angle>
                    <activevideoangle>false</activevideoangle>
                    <activeaudioangle>false</activeaudioangle>
                    <clip id="clip-7"/>
                  </angle>
                  <masterclipid>clip-master</masterclipid>
                </multiclip>
              </clipitem>
              <clipitem id="cs-202">
                <duration>149</duration>
                <rate>
                  <ntsc>false</ntsc>
                  <timebase>25</timebase>
                </rate>
                <in>19417</in>
                <out>19565</out>
                <start>19417</start>
                <end>19565</end>
                <file id="src-1"/>
                <sourcetrack>
                  <mediatype>video</mediatype>
                  <trackindex>1</trackindex>
                </sourcetrack>
                <multiclip id="mcs-202">
                  <name>MCS-202</name>
                  <masterclipid>clip-master</masterclipid>
                  <collapsed>false</collapsed>
                  <angle>
                    <activevideoangle>true</activevideoangle>
                    <activeaudioangle>true</activeaudioangle>
                    <clip id="clip-1"/>
                  </angle>
                  <angle>
                    <activevideoangle>false</activevideoangle>
                    <activeaudioangle>false</activeaudioangle>
                    <clip id="clip-2"/>
                  </angle>
                  <angle>
                    <activevideoangle>false</activevideoangle>
                    <activeaudioangle>false</activeaudioangle>
                    <clip id="clip-3"/>
                  </angle>
                  <angle>
                    <activevideoangle>false</activevideoangle>
                    <activeaudioangle>false</activeaudioangle>
                    <clip id="clip-4"/>
                  </angle>
                  <angle>
                    <activevideoangle>false</activevideoangle>
                    <activeaudioangle>false</activeaudioangle>
                    <clip id="clip-5"/>
                  </angle>
                  <angle>
                    <activevideoangle>false</activevideoangle>
                    <activeaudioangle>false</activeaudioangle>
                    <clip id="clip-6"/>
                  </angle>
                  <angle>
                    <activevideoangle>false</activevideoangle>
                    <activeaudioangle>false</activeaudioangle>
                    <clip id="clip-7"/>
                  </angle>
                  <masterclipid>clip-master</masterclipid>
                </multiclip>
              </clipitem>
              <clipitem id="cs-203">
                <duration>212</duration>
                <rate>
                  <ntsc>false</ntsc>
                  <timebase>25</timebase>
                </rate>
                <in>19565</in>
                <out>19776</out>
                <start>19565</start>
                <end>19776</end>
                <file id="src-3"/>
                <sourcetrack>
                  <mediatype>video</mediatype>
                  <trackindex>1</trackindex>
                </sourcetrack>
                <multiclip id="mcs-203">
                  <name>MCS-203</name>
                  <masterclipid>clip-master</masterclipid>
                  <collapsed>false</collapsed>
                  <angle>
                    <activevideoangle>false</activevideoangle>
                    <activeaudioangle>false</activeaudioangle>
                    <clip id="clip-1"/>
                  </angle>
                  <angle>
                    <activevideoangle>false</activevideoangle>
                    <activeaudioangle>false</activeaudioangle>
                    <clip id="clip-2"/>
                  </angle>
                  <angle>
                    <activevideoangle>true</activevideoangle>
                    <activeaudioangle>true</activeaudioangle>
                    <clip id="clip-3"/>
                  </angle>
                  <angle>
                    <activevideoangle>false</activevideoangle>
                    <activeaudioangle>false</activeaudioangle>
                    <clip id="clip-4"/>
                  </angle>
                  <angle>
                    <activevideoangle>false</activevideoangle>
                    <activeaudioangle>false</activeaudioangle>
                    <clip id="clip-5"/>
                  </angle>
                  <angle>
                    <activevideoangle>false</activevideoangle>
                    <activeaudioangle>false</activeaudioangle>
                    <clip id="clip-6"/>
                  </angle>
                  <angle>
                    <activevideoangle>false</activevideoangle>
                    <activeaudioangle>false</activeaudioangle>
                    <clip id="clip-7"/>
                  </angle>
                  <masterclipid>clip-master</masterclipid>
                </multiclip>
              </clipitem>
              <clipitem id="cs-204">
                <duration>221</duration>
                <rate>
                  <ntsc>false</ntsc>
                  <timebase>25</timebase>
                </rate>
                <in>19776</in>
                <out>19996</out>
                <start>19776</start>
                <end>19996</end>
                <file id="src-2"/>
                <sourcetrack>
                  <mediatype>video</mediatype>
                  <trackindex>1</trackindex>
                </sourcetrack>
                <multiclip id="mcs-204">
                  <name>MCS-204</name>
                  <masterclipid>clip-master</masterclipid>
                  <collapsed>false</collapsed>
                  <angle>
                    <activevideoangle>false</activevideoangle>
                    <activeaudioangle>false</activeaudioangle>
                    <clip id="clip-1"/>
                  </angle>
                  <angle>
                    <activevideoangle>true</activevideoangle>
                    <activeaudioangle>true</activeaudioangle>
                    <clip id="clip-2"/>
                  </angle>
                  <angle>
                    <activevideoangle>false</activevideoangle>
                    <activeaudioangle>false</activeaudioangle>
                    <clip id="clip-3"/>
                  </angle>
                  <angle>
                    <activevideoangle>false</activevideoangle>
                    <activeaudioangle>false</activeaudioangle>
                    <clip id="clip-4"/>
                  </angle>
                  <angle>
                    <activevideoangle>false</activevideoangle>
                    <activeaudioangle>false</activeaudioangle>
                    <clip id="clip-5"/>
                  </angle>
                  <angle>
                    <activevideoangle>false</activevideoangle>
                    <activeaudioangle>false</activeaudioangle>
                    <clip id="clip-6"/>
                  </angle>
                  <angle>
                    <activevideoangle>false</activevideoangle>
                    <activeaudioangle>false</activeaudioangle>
                    <clip id="clip-7"/>
                  </angle>
                  <masterclipid>clip-master</masterclipid>
                </multiclip>
              </clipitem>
              <clipitem id="cs-205">
                <duration>99</duration>
                <rate>
                  <ntsc>false</ntsc>
                  <timebase>25</timebase>
                </rate>
                <in>19996</in>
                <out>20094</out>
                <start>19996</start>
                <end>20094</end>
                <file id="src-1"/>
                <sourcetrack>
                  <mediatype>video</mediatype>
                  <trackindex>1</trackindex>
                </sourcetrack>
                <multiclip id="mcs-205">
                  <name>MCS-205</name>
                  <masterclipid>clip-master</masterclipid>
                  <collapsed>false</collapsed>
                  <angle>
                    <activevideoangle>true</activevideoangle>
                    <activeaudioangle>true</activeaudioangle>
                    <clip id="clip-1"/>
                  </angle>
                  <angle>
                    <activevideoangle>false</activevideoangle>
                    <activeaudioangle>false</activeaudioangle>
                    <clip id="clip-2"/>
                  </angle>
                  <angle>
                    <activevideoangle>false</activevideoangle>
                    <activeaudioangle>false</activeaudioangle>
                    <clip id="clip-3"/>
                  </angle>
                  <angle>
                    <activevideoangle>false</activevideoangle>
                    <activeaudioangle>false</activeaudioangle>
                    <clip id="clip-4"/>
                  </angle>
                  <angle>
                    <activevideoangle>false</activevideoangle>
                    <activeaudioangle>false</activeaudioangle>
                    <clip id="clip-5"/>
                  </angle>
                  <angle>
                    <activevideoangle>false</activevideoangle>
                    <activeaudioangle>false</activeaudioangle>
                    <clip id="clip-6"/>
                  </angle>
                  <angle>
                    <activevideoangle>false</activevideoangle>
                    <activeaudioangle>false</activeaudioangle>
                    <clip id="clip-7"/>
                  </angle>
                  <masterclipid>clip-master</masterclipid>
                </multiclip>
              </clipitem>
              <clipitem id="cs-206">
                <duration>122</duration>
                <rate>
                  <ntsc>false</ntsc>
                  <timebase>25</timebase>
                </rate>
                <in>20094</in>
                <out>20215</out>
                <start>20094</start>
                <end>20215</end>
                <file id="src-3"/>
                <sourcetrack>
                  <mediatype>video</mediatype>
                  <trackindex>1</trackindex>
                </sourcetrack>
                <multiclip id="mcs-206">
                  <name>MCS-206</name>
                  <masterclipid>clip-master</masterclipid>
                  <collapsed>false</collapsed>
                  <angle>
                    <activevideoangle>false</activevideoangle>
                    <activeaudioangle>false</activeaudioangle>
                    <clip id="clip-1"/>
                  </angle>
                  <angle>
                    <activevideoangle>false</activevideoangle>
                    <activeaudioangle>false</activeaudioangle>
                    <clip id="clip-2"/>
                  </angle>
                  <angle>
                    <activevideoangle>true</activevideoangle>
                    <activeaudioangle>true</activeaudioangle>
                    <clip id="clip-3"/>
                  </angle>
                  <angle>
                    <activevideoangle>false</activevideoangle>
                    <activeaudioangle>false</activeaudioangle>
                    <clip id="clip-4"/>
                  </angle>
                  <angle>
                    <activevideoangle>false</activevideoangle>
                    <activeaudioangle>false</activeaudioangle>
                    <clip id="clip-5"/>
                  </angle>
                  <angle>
                    <activevideoangle>false</activevideoangle>
                    <activeaudioangle>false</activeaudioangle>
                    <clip id="clip-6"/>
                  </angle>
                  <angle>
                    <activevideoangle>false</activevideoangle>
                    <activeaudioangle>false</activeaudioangle>
                    <clip id="clip-7"/>
                  </angle>
                  <masterclipid>clip-master</masterclipid>
                </multiclip>
              </clipitem>
              <clipitem id="cs-207">
                <duration>196</duration>
                <rate>
                  <ntsc>false</ntsc>
                  <timebase>25</timebase>
                </rate>
                <in>20215</in>
                <out>20410</out>
                <start>20215</start>
                <end>20410</end>
                <file id="src-2"/>
                <sourcetrack>
                  <mediatype>video</mediatype>
                  <trackindex>1</trackindex>
                </sourcetrack>
                <multiclip id="mcs-207">
                  <name>MCS-207</name>
                  <masterclipid>clip-master</masterclipid>
                  <collapsed>false</collapsed>
                  <angle>
                    <activevideoangle>false</activevideoangle>
                    <activeaudioangle>false</activeaudioangle>
                    <clip id="clip-1"/>
                  </angle>
                  <angle>
                    <activevideoangle>true</activevideoangle>
                    <activeaudioangle>true</activeaudioangle>
                    <clip id="clip-2"/>
                  </angle>
                  <angle>
                    <activevideoangle>false</activevideoangle>
                    <activeaudioangle>false</activeaudioangle>
                    <clip id="clip-3"/>
                  </angle>
                  <angle>
                    <activevideoangle>false</activevideoangle>
                    <activeaudioangle>false</activeaudioangle>
                    <clip id="clip-4"/>
                  </angle>
                  <angle>
                    <activevideoangle>false</activevideoangle>
                    <activeaudioangle>false</activeaudioangle>
                    <clip id="clip-5"/>
                  </angle>
                  <angle>
                    <activevideoangle>false</activevideoangle>
                    <activeaudioangle>false</activeaudioangle>
                    <clip id="clip-6"/>
                  </angle>
                  <angle>
                    <activevideoangle>false</activevideoangle>
                    <activeaudioangle>false</activeaudioangle>
                    <clip id="clip-7"/>
                  </angle>
                  <masterclipid>clip-master</masterclipid>
                </multiclip>
              </clipitem>
              <clipitem id="cs-208">
                <duration>83</duration>
                <rate>
                  <ntsc>false</ntsc>
                  <timebase>25</timebase>
                </rate>
                <in>20410</in>
                <out>20492</out>
                <start>20410</start>
                <end>20492</end>
                <file id="src-4"/>
                <sourcetrack>
                  <mediatype>video</mediatype>
                  <trackindex>1</trackindex>
                </sourcetrack>
                <multiclip id="mcs-208">
                  <name>MCS-208</name>
                  <masterclipid>clip-master</masterclipid>
                  <collapsed>false</collapsed>
                  <angle>
                    <activevideoangle>false</activevideoangle>
                    <activeaudioangle>false</activeaudioangle>
                    <clip id="clip-1"/>
                  </angle>
                  <angle>
                    <activevideoangle>false</activevideoangle>
                    <activeaudioangle>false</activeaudioangle>
                    <clip id="clip-2"/>
                  </angle>
                  <angle>
                    <activevideoangle>false</activevideoangle>
                    <activeaudioangle>false</activeaudioangle>
                    <clip id="clip-3"/>
                  </angle>
                  <angle>
                    <activevideoangle>true</activevideoangle>
                    <activeaudioangle>true</activeaudioangle>
                    <clip id="clip-4"/>
                  </angle>
                  <angle>
                    <activevideoangle>false</activevideoangle>
                    <activeaudioangle>false</activeaudioangle>
                    <clip id="clip-5"/>
                  </angle>
                  <angle>
                    <activevideoangle>false</activevideoangle>
                    <activeaudioangle>false</activeaudioangle>
                    <clip id="clip-6"/>
                  </angle>
                  <angle>
                    <activevideoangle>false</activevideoangle>
                    <activeaudioangle>false</activeaudioangle>
                    <clip id="clip-7"/>
                  </angle>
                  <masterclipid>clip-master</masterclipid>
                </multiclip>
              </clipitem>
              <clipitem id="cs-209">
                <duration>82</duration>
                <rate>
                  <ntsc>false</ntsc>
                  <timebase>25</timebase>
                </rate>
                <in>20492</in>
                <out>20573</out>
                <start>20492</start>
                <end>20573</end>
                <file id="src-3"/>
                <sourcetrack>
                  <mediatype>video</mediatype>
                  <trackindex>1</trackindex>
                </sourcetrack>
                <multiclip id="mcs-209">
                  <name>MCS-209</name>
                  <masterclipid>clip-master</masterclipid>
                  <collapsed>false</collapsed>
                  <angle>
                    <activevideoangle>false</activevideoangle>
                    <activeaudioangle>false</activeaudioangle>
                    <clip id="clip-1"/>
                  </angle>
                  <angle>
                    <activevideoangle>false</activevideoangle>
                    <activeaudioangle>false</activeaudioangle>
                    <clip id="clip-2"/>
                  </angle>
                  <angle>
                    <activevideoangle>true</activevideoangle>
                    <activeaudioangle>true</activeaudioangle>
                    <clip id="clip-3"/>
                  </angle>
                  <angle>
                    <activevideoangle>false</activevideoangle>
                    <activeaudioangle>false</activeaudioangle>
                    <clip id="clip-4"/>
                  </angle>
                  <angle>
                    <activevideoangle>false</activevideoangle>
                    <activeaudioangle>false</activeaudioangle>
                    <clip id="clip-5"/>
                  </angle>
                  <angle>
                    <activevideoangle>false</activevideoangle>
                    <activeaudioangle>false</activeaudioangle>
                    <clip id="clip-6"/>
                  </angle>
                  <angle>
                    <activevideoangle>false</activevideoangle>
                    <activeaudioangle>false</activeaudioangle>
                    <clip id="clip-7"/>
                  </angle>
                  <masterclipid>clip-master</masterclipid>
                </multiclip>
              </clipitem>
              <clipitem id="cs-210">
                <duration>170</duration>
                <rate>
                  <ntsc>false</ntsc>
                  <timebase>25</timebase>
                </rate>
                <in>20573</in>
                <out>20742</out>
                <start>20573</start>
                <end>20742</end>
                <file id="src-2"/>
                <sourcetrack>
                  <mediatype>video</mediatype>
                  <trackindex>1</trackindex>
                </sourcetrack>
                <multiclip id="mcs-210">
                  <name>MCS-210</name>
                  <masterclipid>clip-master</masterclipid>
                  <collapsed>false</collapsed>
                  <angle>
                    <activevideoangle>false</activevideoangle>
                    <activeaudioangle>false</activeaudioangle>
                    <clip id="clip-1"/>
                  </angle>
                  <angle>
                    <activevideoangle>true</activevideoangle>
                    <activeaudioangle>true</activeaudioangle>
                    <clip id="clip-2"/>
                  </angle>
                  <angle>
                    <activevideoangle>false</activevideoangle>
                    <activeaudioangle>false</activeaudioangle>
                    <clip id="clip-3"/>
                  </angle>
                  <angle>
                    <activevideoangle>false</activevideoangle>
                    <activeaudioangle>false</activeaudioangle>
                    <clip id="clip-4"/>
                  </angle>
                  <angle>
                    <activevideoangle>false</activevideoangle>
                    <activeaudioangle>false</activeaudioangle>
                    <clip id="clip-5"/>
                  </angle>
                  <angle>
                    <activevideoangle>false</activevideoangle>
                    <activeaudioangle>false</activeaudioangle>
                    <clip id="clip-6"/>
                  </angle>
                  <angle>
                    <activevideoangle>false</activevideoangle>
                    <activeaudioangle>false</activeaudioangle>
                    <clip id="clip-7"/>
                  </angle>
                  <masterclipid>clip-master</masterclipid>
                </multiclip>
              </clipitem>
              <clipitem id="cs-211">
                <duration>50</duration>
                <rate>
                  <ntsc>false</ntsc>
                  <timebase>25</timebase>
                </rate>
                <in>20742</in>
                <out>20791</out>
                <start>20742</start>
                <end>20791</end>
                <file id="src-3"/>
                <sourcetrack>
                  <mediatype>video</mediatype>
                  <trackindex>1</trackindex>
                </sourcetrack>
                <multiclip id="mcs-211">
                  <name>MCS-211</name>
                  <masterclipid>clip-master</masterclipid>
                  <collapsed>false</collapsed>
                  <angle>
                    <activevideoangle>false</activevideoangle>
                    <activeaudioangle>false</activeaudioangle>
                    <clip id="clip-1"/>
                  </angle>
                  <angle>
                    <activevideoangle>false</activevideoangle>
                    <activeaudioangle>false</activeaudioangle>
                    <clip id="clip-2"/>
                  </angle>
                  <angle>
                    <activevideoangle>true</activevideoangle>
                    <activeaudioangle>true</activeaudioangle>
                    <clip id="clip-3"/>
                  </angle>
                  <angle>
                    <activevideoangle>false</activevideoangle>
                    <activeaudioangle>false</activeaudioangle>
                    <clip id="clip-4"/>
                  </angle>
                  <angle>
                    <activevideoangle>false</activevideoangle>
                    <activeaudioangle>false</activeaudioangle>
                    <clip id="clip-5"/>
                  </angle>
                  <angle>
                    <activevideoangle>false</activevideoangle>
                    <activeaudioangle>false</activeaudioangle>
                    <clip id="clip-6"/>
                  </angle>
                  <angle>
                    <activevideoangle>false</activevideoangle>
                    <activeaudioangle>false</activeaudioangle>
                    <clip id="clip-7"/>
                  </angle>
                  <masterclipid>clip-master</masterclipid>
                </multiclip>
              </clipitem>
              <clipitem id="cs-212">
                <duration>98</duration>
                <rate>
                  <ntsc>false</ntsc>
                  <timebase>25</timebase>
                </rate>
                <in>20791</in>
                <out>20888</out>
                <start>20791</start>
                <end>20888</end>
                <file id="src-4"/>
                <sourcetrack>
                  <mediatype>video</mediatype>
                  <trackindex>1</trackindex>
                </sourcetrack>
                <multiclip id="mcs-212">
                  <name>MCS-212</name>
                  <masterclipid>clip-master</masterclipid>
                  <collapsed>false</collapsed>
                  <angle>
                    <activevideoangle>false</activevideoangle>
                    <activeaudioangle>false</activeaudioangle>
                    <clip id="clip-1"/>
                  </angle>
                  <angle>
                    <activevideoangle>false</activevideoangle>
                    <activeaudioangle>false</activeaudioangle>
                    <clip id="clip-2"/>
                  </angle>
                  <angle>
                    <activevideoangle>false</activevideoangle>
                    <activeaudioangle>false</activeaudioangle>
                    <clip id="clip-3"/>
                  </angle>
                  <angle>
                    <activevideoangle>true</activevideoangle>
                    <activeaudioangle>true</activeaudioangle>
                    <clip id="clip-4"/>
                  </angle>
                  <angle>
                    <activevideoangle>false</activevideoangle>
                    <activeaudioangle>false</activeaudioangle>
                    <clip id="clip-5"/>
                  </angle>
                  <angle>
                    <activevideoangle>false</activevideoangle>
                    <activeaudioangle>false</activeaudioangle>
                    <clip id="clip-6"/>
                  </angle>
                  <angle>
                    <activevideoangle>false</activevideoangle>
                    <activeaudioangle>false</activeaudioangle>
                    <clip id="clip-7"/>
                  </angle>
                  <masterclipid>clip-master</masterclipid>
                </multiclip>
              </clipitem>
              <clipitem id="cs-213">
                <duration>614</duration>
                <rate>
                  <ntsc>false</ntsc>
                  <timebase>25</timebase>
                </rate>
                <in>20888</in>
                <out>21501</out>
                <start>20888</start>
                <end>21501</end>
                <file id="src-2"/>
                <sourcetrack>
                  <mediatype>video</mediatype>
                  <trackindex>1</trackindex>
                </sourcetrack>
                <multiclip id="mcs-213">
                  <name>MCS-213</name>
                  <masterclipid>clip-master</masterclipid>
                  <collapsed>false</collapsed>
                  <angle>
                    <activevideoangle>false</activevideoangle>
                    <activeaudioangle>false</activeaudioangle>
                    <clip id="clip-1"/>
                  </angle>
                  <angle>
                    <activevideoangle>true</activevideoangle>
                    <activeaudioangle>true</activeaudioangle>
                    <clip id="clip-2"/>
                  </angle>
                  <angle>
                    <activevideoangle>false</activevideoangle>
                    <activeaudioangle>false</activeaudioangle>
                    <clip id="clip-3"/>
                  </angle>
                  <angle>
                    <activevideoangle>false</activevideoangle>
                    <activeaudioangle>false</activeaudioangle>
                    <clip id="clip-4"/>
                  </angle>
                  <angle>
                    <activevideoangle>false</activevideoangle>
                    <activeaudioangle>false</activeaudioangle>
                    <clip id="clip-5"/>
                  </angle>
                  <angle>
                    <activevideoangle>false</activevideoangle>
                    <activeaudioangle>false</activeaudioangle>
                    <clip id="clip-6"/>
                  </angle>
                  <angle>
                    <activevideoangle>false</activevideoangle>
                    <activeaudioangle>false</activeaudioangle>
                    <clip id="clip-7"/>
                  </angle>
                  <masterclipid>clip-master</masterclipid>
                </multiclip>
              </clipitem>
              <clipitem id="cs-214">
                <duration>220</duration>
                <rate>
                  <ntsc>false</ntsc>
                  <timebase>25</timebase>
                </rate>
                <in>21501</in>
                <out>21720</out>
                <start>21501</start>
                <end>21720</end>
                <file id="src-3"/>
                <sourcetrack>
                  <mediatype>video</mediatype>
                  <trackindex>1</trackindex>
                </sourcetrack>
                <multiclip id="mcs-214">
                  <name>MCS-214</name>
                  <masterclipid>clip-master</masterclipid>
                  <collapsed>false</collapsed>
                  <angle>
                    <activevideoangle>false</activevideoangle>
                    <activeaudioangle>false</activeaudioangle>
                    <clip id="clip-1"/>
                  </angle>
                  <angle>
                    <activevideoangle>false</activevideoangle>
                    <activeaudioangle>false</activeaudioangle>
                    <clip id="clip-2"/>
                  </angle>
                  <angle>
                    <activevideoangle>true</activevideoangle>
                    <activeaudioangle>true</activeaudioangle>
                    <clip id="clip-3"/>
                  </angle>
                  <angle>
                    <activevideoangle>false</activevideoangle>
                    <activeaudioangle>false</activeaudioangle>
                    <clip id="clip-4"/>
                  </angle>
                  <angle>
                    <activevideoangle>false</activevideoangle>
                    <activeaudioangle>false</activeaudioangle>
                    <clip id="clip-5"/>
                  </angle>
                  <angle>
                    <activevideoangle>false</activevideoangle>
                    <activeaudioangle>false</activeaudioangle>
                    <clip id="clip-6"/>
                  </angle>
                  <angle>
                    <activevideoangle>false</activevideoangle>
                    <activeaudioangle>false</activeaudioangle>
                    <clip id="clip-7"/>
                  </angle>
                  <masterclipid>clip-master</masterclipid>
                </multiclip>
              </clipitem>
              <clipitem id="cs-215">
                <duration>67</duration>
                <rate>
                  <ntsc>false</ntsc>
                  <timebase>25</timebase>
                </rate>
                <in>21720</in>
                <out>21786</out>
                <start>21720</start>
                <end>21786</end>
                <file id="src-1"/>
                <sourcetrack>
                  <mediatype>video</mediatype>
                  <trackindex>1</trackindex>
                </sourcetrack>
                <multiclip id="mcs-215">
                  <name>MCS-215</name>
                  <masterclipid>clip-master</masterclipid>
                  <collapsed>false</collapsed>
                  <angle>
                    <activevideoangle>true</activevideoangle>
                    <activeaudioangle>true</activeaudioangle>
                    <clip id="clip-1"/>
                  </angle>
                  <angle>
                    <activevideoangle>false</activevideoangle>
                    <activeaudioangle>false</activeaudioangle>
                    <clip id="clip-2"/>
                  </angle>
                  <angle>
                    <activevideoangle>false</activevideoangle>
                    <activeaudioangle>false</activeaudioangle>
                    <clip id="clip-3"/>
                  </angle>
                  <angle>
                    <activevideoangle>false</activevideoangle>
                    <activeaudioangle>false</activeaudioangle>
                    <clip id="clip-4"/>
                  </angle>
                  <angle>
                    <activevideoangle>false</activevideoangle>
                    <activeaudioangle>false</activeaudioangle>
                    <clip id="clip-5"/>
                  </angle>
                  <angle>
                    <activevideoangle>false</activevideoangle>
                    <activeaudioangle>false</activeaudioangle>
                    <clip id="clip-6"/>
                  </angle>
                  <angle>
                    <activevideoangle>false</activevideoangle>
                    <activeaudioangle>false</activeaudioangle>
                    <clip id="clip-7"/>
                  </angle>
                  <masterclipid>clip-master</masterclipid>
                </multiclip>
              </clipitem>
              <clipitem id="cs-216">
                <duration>148</duration>
                <rate>
                  <ntsc>false</ntsc>
                  <timebase>25</timebase>
                </rate>
                <in>21786</in>
                <out>21933</out>
                <start>21786</start>
                <end>21933</end>
                <file id="src-3"/>
                <sourcetrack>
                  <mediatype>video</mediatype>
                  <trackindex>1</trackindex>
                </sourcetrack>
                <multiclip id="mcs-216">
                  <name>MCS-216</name>
                  <masterclipid>clip-master</masterclipid>
                  <collapsed>false</collapsed>
                  <angle>
                    <activevideoangle>false</activevideoangle>
                    <activeaudioangle>false</activeaudioangle>
                    <clip id="clip-1"/>
                  </angle>
                  <angle>
                    <activevideoangle>false</activevideoangle>
                    <activeaudioangle>false</activeaudioangle>
                    <clip id="clip-2"/>
                  </angle>
                  <angle>
                    <activevideoangle>true</activevideoangle>
                    <activeaudioangle>true</activeaudioangle>
                    <clip id="clip-3"/>
                  </angle>
                  <angle>
                    <activevideoangle>false</activevideoangle>
                    <activeaudioangle>false</activeaudioangle>
                    <clip id="clip-4"/>
                  </angle>
                  <angle>
                    <activevideoangle>false</activevideoangle>
                    <activeaudioangle>false</activeaudioangle>
                    <clip id="clip-5"/>
                  </angle>
                  <angle>
                    <activevideoangle>false</activevideoangle>
                    <activeaudioangle>false</activeaudioangle>
                    <clip id="clip-6"/>
                  </angle>
                  <angle>
                    <activevideoangle>false</activevideoangle>
                    <activeaudioangle>false</activeaudioangle>
                    <clip id="clip-7"/>
                  </angle>
                  <masterclipid>clip-master</masterclipid>
                </multiclip>
              </clipitem>
              <clipitem id="cs-217">
                <duration>120</duration>
                <rate>
                  <ntsc>false</ntsc>
                  <timebase>25</timebase>
                </rate>
                <in>21933</in>
                <out>22052</out>
                <start>21933</start>
                <end>22052</end>
                <file id="src-2"/>
                <sourcetrack>
                  <mediatype>video</mediatype>
                  <trackindex>1</trackindex>
                </sourcetrack>
                <multiclip id="mcs-217">
                  <name>MCS-217</name>
                  <masterclipid>clip-master</masterclipid>
                  <collapsed>false</collapsed>
                  <angle>
                    <activevideoangle>false</activevideoangle>
                    <activeaudioangle>false</activeaudioangle>
                    <clip id="clip-1"/>
                  </angle>
                  <angle>
                    <activevideoangle>true</activevideoangle>
                    <activeaudioangle>true</activeaudioangle>
                    <clip id="clip-2"/>
                  </angle>
                  <angle>
                    <activevideoangle>false</activevideoangle>
                    <activeaudioangle>false</activeaudioangle>
                    <clip id="clip-3"/>
                  </angle>
                  <angle>
                    <activevideoangle>false</activevideoangle>
                    <activeaudioangle>false</activeaudioangle>
                    <clip id="clip-4"/>
                  </angle>
                  <angle>
                    <activevideoangle>false</activevideoangle>
                    <activeaudioangle>false</activeaudioangle>
                    <clip id="clip-5"/>
                  </angle>
                  <angle>
                    <activevideoangle>false</activevideoangle>
                    <activeaudioangle>false</activeaudioangle>
                    <clip id="clip-6"/>
                  </angle>
                  <angle>
                    <activevideoangle>false</activevideoangle>
                    <activeaudioangle>false</activeaudioangle>
                    <clip id="clip-7"/>
                  </angle>
                  <masterclipid>clip-master</masterclipid>
                </multiclip>
              </clipitem>
              <clipitem id="cs-218">
                <duration>278</duration>
                <rate>
                  <ntsc>false</ntsc>
                  <timebase>25</timebase>
                </rate>
                <in>22052</in>
                <out>22329</out>
                <start>22052</start>
                <end>22329</end>
                <file id="src-3"/>
                <sourcetrack>
                  <mediatype>video</mediatype>
                  <trackindex>1</trackindex>
                </sourcetrack>
                <multiclip id="mcs-218">
                  <name>MCS-218</name>
                  <masterclipid>clip-master</masterclipid>
                  <collapsed>false</collapsed>
                  <angle>
                    <activevideoangle>false</activevideoangle>
                    <activeaudioangle>false</activeaudioangle>
                    <clip id="clip-1"/>
                  </angle>
                  <angle>
                    <activevideoangle>false</activevideoangle>
                    <activeaudioangle>false</activeaudioangle>
                    <clip id="clip-2"/>
                  </angle>
                  <angle>
                    <activevideoangle>true</activevideoangle>
                    <activeaudioangle>true</activeaudioangle>
                    <clip id="clip-3"/>
                  </angle>
                  <angle>
                    <activevideoangle>false</activevideoangle>
                    <activeaudioangle>false</activeaudioangle>
                    <clip id="clip-4"/>
                  </angle>
                  <angle>
                    <activevideoangle>false</activevideoangle>
                    <activeaudioangle>false</activeaudioangle>
                    <clip id="clip-5"/>
                  </angle>
                  <angle>
                    <activevideoangle>false</activevideoangle>
                    <activeaudioangle>false</activeaudioangle>
                    <clip id="clip-6"/>
                  </angle>
                  <angle>
                    <activevideoangle>false</activevideoangle>
                    <activeaudioangle>false</activeaudioangle>
                    <clip id="clip-7"/>
                  </angle>
                  <masterclipid>clip-master</masterclipid>
                </multiclip>
              </clipitem>
              <clipitem id="cs-219">
                <duration>65</duration>
                <rate>
                  <ntsc>false</ntsc>
                  <timebase>25</timebase>
                </rate>
                <in>22329</in>
                <out>22393</out>
                <start>22329</start>
                <end>22393</end>
                <file id="src-4"/>
                <sourcetrack>
                  <mediatype>video</mediatype>
                  <trackindex>1</trackindex>
                </sourcetrack>
                <multiclip id="mcs-219">
                  <name>MCS-219</name>
                  <masterclipid>clip-master</masterclipid>
                  <collapsed>false</collapsed>
                  <angle>
                    <activevideoangle>false</activevideoangle>
                    <activeaudioangle>false</activeaudioangle>
                    <clip id="clip-1"/>
                  </angle>
                  <angle>
                    <activevideoangle>false</activevideoangle>
                    <activeaudioangle>false</activeaudioangle>
                    <clip id="clip-2"/>
                  </angle>
                  <angle>
                    <activevideoangle>false</activevideoangle>
                    <activeaudioangle>false</activeaudioangle>
                    <clip id="clip-3"/>
                  </angle>
                  <angle>
                    <activevideoangle>true</activevideoangle>
                    <activeaudioangle>true</activeaudioangle>
                    <clip id="clip-4"/>
                  </angle>
                  <angle>
                    <activevideoangle>false</activevideoangle>
                    <activeaudioangle>false</activeaudioangle>
                    <clip id="clip-5"/>
                  </angle>
                  <angle>
                    <activevideoangle>false</activevideoangle>
                    <activeaudioangle>false</activeaudioangle>
                    <clip id="clip-6"/>
                  </angle>
                  <angle>
                    <activevideoangle>false</activevideoangle>
                    <activeaudioangle>false</activeaudioangle>
                    <clip id="clip-7"/>
                  </angle>
                  <masterclipid>clip-master</masterclipid>
                </multiclip>
              </clipitem>
              <clipitem id="cs-220">
                <duration>165</duration>
                <rate>
                  <ntsc>false</ntsc>
                  <timebase>25</timebase>
                </rate>
                <in>22393</in>
                <out>22557</out>
                <start>22393</start>
                <end>22557</end>
                <file id="src-2"/>
                <sourcetrack>
                  <mediatype>video</mediatype>
                  <trackindex>1</trackindex>
                </sourcetrack>
                <multiclip id="mcs-220">
                  <name>MCS-220</name>
                  <masterclipid>clip-master</masterclipid>
                  <collapsed>false</collapsed>
                  <angle>
                    <activevideoangle>false</activevideoangle>
                    <activeaudioangle>false</activeaudioangle>
                    <clip id="clip-1"/>
                  </angle>
                  <angle>
                    <activevideoangle>true</activevideoangle>
                    <activeaudioangle>true</activeaudioangle>
                    <clip id="clip-2"/>
                  </angle>
                  <angle>
                    <activevideoangle>false</activevideoangle>
                    <activeaudioangle>false</activeaudioangle>
                    <clip id="clip-3"/>
                  </angle>
                  <angle>
                    <activevideoangle>false</activevideoangle>
                    <activeaudioangle>false</activeaudioangle>
                    <clip id="clip-4"/>
                  </angle>
                  <angle>
                    <activevideoangle>false</activevideoangle>
                    <activeaudioangle>false</activeaudioangle>
                    <clip id="clip-5"/>
                  </angle>
                  <angle>
                    <activevideoangle>false</activevideoangle>
                    <activeaudioangle>false</activeaudioangle>
                    <clip id="clip-6"/>
                  </angle>
                  <angle>
                    <activevideoangle>false</activevideoangle>
                    <activeaudioangle>false</activeaudioangle>
                    <clip id="clip-7"/>
                  </angle>
                  <masterclipid>clip-master</masterclipid>
                </multiclip>
              </clipitem>
              <clipitem id="cs-221">
                <duration>34</duration>
                <rate>
                  <ntsc>false</ntsc>
                  <timebase>25</timebase>
                </rate>
                <in>22557</in>
                <out>22590</out>
                <start>22557</start>
                <end>22590</end>
                <file id="src-3"/>
                <sourcetrack>
                  <mediatype>video</mediatype>
                  <trackindex>1</trackindex>
                </sourcetrack>
                <multiclip id="mcs-221">
                  <name>MCS-221</name>
                  <masterclipid>clip-master</masterclipid>
                  <collapsed>false</collapsed>
                  <angle>
                    <activevideoangle>false</activevideoangle>
                    <activeaudioangle>false</activeaudioangle>
                    <clip id="clip-1"/>
                  </angle>
                  <angle>
                    <activevideoangle>false</activevideoangle>
                    <activeaudioangle>false</activeaudioangle>
                    <clip id="clip-2"/>
                  </angle>
                  <angle>
                    <activevideoangle>true</activevideoangle>
                    <activeaudioangle>true</activeaudioangle>
                    <clip id="clip-3"/>
                  </angle>
                  <angle>
                    <activevideoangle>false</activevideoangle>
                    <activeaudioangle>false</activeaudioangle>
                    <clip id="clip-4"/>
                  </angle>
                  <angle>
                    <activevideoangle>false</activevideoangle>
                    <activeaudioangle>false</activeaudioangle>
                    <clip id="clip-5"/>
                  </angle>
                  <angle>
                    <activevideoangle>false</activevideoangle>
                    <activeaudioangle>false</activeaudioangle>
                    <clip id="clip-6"/>
                  </angle>
                  <angle>
                    <activevideoangle>false</activevideoangle>
                    <activeaudioangle>false</activeaudioangle>
                    <clip id="clip-7"/>
                  </angle>
                  <masterclipid>clip-master</masterclipid>
                </multiclip>
              </clipitem>
              <clipitem id="cs-222">
                <duration>53</duration>
                <rate>
                  <ntsc>false</ntsc>
                  <timebase>25</timebase>
                </rate>
                <in>22590</in>
                <out>22642</out>
                <start>22590</start>
                <end>22642</end>
                <file id="src-4"/>
                <sourcetrack>
                  <mediatype>video</mediatype>
                  <trackindex>1</trackindex>
                </sourcetrack>
                <multiclip id="mcs-222">
                  <name>MCS-222</name>
                  <masterclipid>clip-master</masterclipid>
                  <collapsed>false</collapsed>
                  <angle>
                    <activevideoangle>false</activevideoangle>
                    <activeaudioangle>false</activeaudioangle>
                    <clip id="clip-1"/>
                  </angle>
                  <angle>
                    <activevideoangle>false</activevideoangle>
                    <activeaudioangle>false</activeaudioangle>
                    <clip id="clip-2"/>
                  </angle>
                  <angle>
                    <activevideoangle>false</activevideoangle>
                    <activeaudioangle>false</activeaudioangle>
                    <clip id="clip-3"/>
                  </angle>
                  <angle>
                    <activevideoangle>true</activevideoangle>
                    <activeaudioangle>true</activeaudioangle>
                    <clip id="clip-4"/>
                  </angle>
                  <angle>
                    <activevideoangle>false</activevideoangle>
                    <activeaudioangle>false</activeaudioangle>
                    <clip id="clip-5"/>
                  </angle>
                  <angle>
                    <activevideoangle>false</activevideoangle>
                    <activeaudioangle>false</activeaudioangle>
                    <clip id="clip-6"/>
                  </angle>
                  <angle>
                    <activevideoangle>false</activevideoangle>
                    <activeaudioangle>false</activeaudioangle>
                    <clip id="clip-7"/>
                  </angle>
                  <masterclipid>clip-master</masterclipid>
                </multiclip>
              </clipitem>
              <clipitem id="cs-223">
                <duration>31</duration>
                <rate>
                  <ntsc>false</ntsc>
                  <timebase>25</timebase>
                </rate>
                <in>22642</in>
                <out>22672</out>
                <start>22642</start>
                <end>22672</end>
                <file id="src-5"/>
                <sourcetrack>
                  <mediatype>video</mediatype>
                  <trackindex>1</trackindex>
                </sourcetrack>
                <multiclip id="mcs-223">
                  <name>MCS-223</name>
                  <masterclipid>clip-master</masterclipid>
                  <collapsed>false</collapsed>
                  <angle>
                    <activevideoangle>false</activevideoangle>
                    <activeaudioangle>false</activeaudioangle>
                    <clip id="clip-1"/>
                  </angle>
                  <angle>
                    <activevideoangle>false</activevideoangle>
                    <activeaudioangle>false</activeaudioangle>
                    <clip id="clip-2"/>
                  </angle>
                  <angle>
                    <activevideoangle>false</activevideoangle>
                    <activeaudioangle>false</activeaudioangle>
                    <clip id="clip-3"/>
                  </angle>
                  <angle>
                    <activevideoangle>false</activevideoangle>
                    <activeaudioangle>false</activeaudioangle>
                    <clip id="clip-4"/>
                  </angle>
                  <angle>
                    <activevideoangle>true</activevideoangle>
                    <activeaudioangle>true</activeaudioangle>
                    <clip id="clip-5"/>
                  </angle>
                  <angle>
                    <activevideoangle>false</activevideoangle>
                    <activeaudioangle>false</activeaudioangle>
                    <clip id="clip-6"/>
                  </angle>
                  <angle>
                    <activevideoangle>false</activevideoangle>
                    <activeaudioangle>false</activeaudioangle>
                    <clip id="clip-7"/>
                  </angle>
                  <masterclipid>clip-master</masterclipid>
                </multiclip>
              </clipitem>
              <clipitem id="cs-224">
                <duration>53</duration>
                <rate>
                  <ntsc>false</ntsc>
                  <timebase>25</timebase>
                </rate>
                <in>22672</in>
                <out>22724</out>
                <start>22672</start>
                <end>22724</end>
                <file id="src-1"/>
                <sourcetrack>
                  <mediatype>video</mediatype>
                  <trackindex>1</trackindex>
                </sourcetrack>
                <multiclip id="mcs-224">
                  <name>MCS-224</name>
                  <masterclipid>clip-master</masterclipid>
                  <collapsed>false</collapsed>
                  <angle>
                    <activevideoangle>true</activevideoangle>
                    <activeaudioangle>true</activeaudioangle>
                    <clip id="clip-1"/>
                  </angle>
                  <angle>
                    <activevideoangle>false</activevideoangle>
                    <activeaudioangle>false</activeaudioangle>
                    <clip id="clip-2"/>
                  </angle>
                  <angle>
                    <activevideoangle>false</activevideoangle>
                    <activeaudioangle>false</activeaudioangle>
                    <clip id="clip-3"/>
                  </angle>
                  <angle>
                    <activevideoangle>false</activevideoangle>
                    <activeaudioangle>false</activeaudioangle>
                    <clip id="clip-4"/>
                  </angle>
                  <angle>
                    <activevideoangle>false</activevideoangle>
                    <activeaudioangle>false</activeaudioangle>
                    <clip id="clip-5"/>
                  </angle>
                  <angle>
                    <activevideoangle>false</activevideoangle>
                    <activeaudioangle>false</activeaudioangle>
                    <clip id="clip-6"/>
                  </angle>
                  <angle>
                    <activevideoangle>false</activevideoangle>
                    <activeaudioangle>false</activeaudioangle>
                    <clip id="clip-7"/>
                  </angle>
                  <masterclipid>clip-master</masterclipid>
                </multiclip>
              </clipitem>
              <clipitem id="cs-225">
                <duration>129</duration>
                <rate>
                  <ntsc>false</ntsc>
                  <timebase>25</timebase>
                </rate>
                <in>22724</in>
                <out>22852</out>
                <start>22724</start>
                <end>22852</end>
                <file id="src-3"/>
                <sourcetrack>
                  <mediatype>video</mediatype>
                  <trackindex>1</trackindex>
                </sourcetrack>
                <multiclip id="mcs-225">
                  <name>MCS-225</name>
                  <masterclipid>clip-master</masterclipid>
                  <collapsed>false</collapsed>
                  <angle>
                    <activevideoangle>false</activevideoangle>
                    <activeaudioangle>false</activeaudioangle>
                    <clip id="clip-1"/>
                  </angle>
                  <angle>
                    <activevideoangle>false</activevideoangle>
                    <activeaudioangle>false</activeaudioangle>
                    <clip id="clip-2"/>
                  </angle>
                  <angle>
                    <activevideoangle>true</activevideoangle>
                    <activeaudioangle>true</activeaudioangle>
                    <clip id="clip-3"/>
                  </angle>
                  <angle>
                    <activevideoangle>false</activevideoangle>
                    <activeaudioangle>false</activeaudioangle>
                    <clip id="clip-4"/>
                  </angle>
                  <angle>
                    <activevideoangle>false</activevideoangle>
                    <activeaudioangle>false</activeaudioangle>
                    <clip id="clip-5"/>
                  </angle>
                  <angle>
                    <activevideoangle>false</activevideoangle>
                    <activeaudioangle>false</activeaudioangle>
                    <clip id="clip-6"/>
                  </angle>
                  <angle>
                    <activevideoangle>false</activevideoangle>
                    <activeaudioangle>false</activeaudioangle>
                    <clip id="clip-7"/>
                  </angle>
                  <masterclipid>clip-master</masterclipid>
                </multiclip>
              </clipitem>
              <clipitem id="cs-226">
                <duration>47</duration>
                <rate>
                  <ntsc>false</ntsc>
                  <timebase>25</timebase>
                </rate>
                <in>22852</in>
                <out>22898</out>
                <start>22852</start>
                <end>22898</end>
                <file id="src-2"/>
                <sourcetrack>
                  <mediatype>video</mediatype>
                  <trackindex>1</trackindex>
                </sourcetrack>
                <multiclip id="mcs-226">
                  <name>MCS-226</name>
                  <masterclipid>clip-master</masterclipid>
                  <collapsed>false</collapsed>
                  <angle>
                    <activevideoangle>false</activevideoangle>
                    <activeaudioangle>false</activeaudioangle>
                    <clip id="clip-1"/>
                  </angle>
                  <angle>
                    <activevideoangle>true</activevideoangle>
                    <activeaudioangle>true</activeaudioangle>
                    <clip id="clip-2"/>
                  </angle>
                  <angle>
                    <activevideoangle>false</activevideoangle>
                    <activeaudioangle>false</activeaudioangle>
                    <clip id="clip-3"/>
                  </angle>
                  <angle>
                    <activevideoangle>false</activevideoangle>
                    <activeaudioangle>false</activeaudioangle>
                    <clip id="clip-4"/>
                  </angle>
                  <angle>
                    <activevideoangle>false</activevideoangle>
                    <activeaudioangle>false</activeaudioangle>
                    <clip id="clip-5"/>
                  </angle>
                  <angle>
                    <activevideoangle>false</activevideoangle>
                    <activeaudioangle>false</activeaudioangle>
                    <clip id="clip-6"/>
                  </angle>
                  <angle>
                    <activevideoangle>false</activevideoangle>
                    <activeaudioangle>false</activeaudioangle>
                    <clip id="clip-7"/>
                  </angle>
                  <masterclipid>clip-master</masterclipid>
                </multiclip>
              </clipitem>
              <clipitem id="cs-227">
                <duration>104</duration>
                <rate>
                  <ntsc>false</ntsc>
                  <timebase>25</timebase>
                </rate>
                <in>22898</in>
                <out>23001</out>
                <start>22898</start>
                <end>23001</end>
                <file id="src-3"/>
                <sourcetrack>
                  <mediatype>video</mediatype>
                  <trackindex>1</trackindex>
                </sourcetrack>
                <multiclip id="mcs-227">
                  <name>MCS-227</name>
                  <masterclipid>clip-master</masterclipid>
                  <collapsed>false</collapsed>
                  <angle>
                    <activevideoangle>false</activevideoangle>
                    <activeaudioangle>false</activeaudioangle>
                    <clip id="clip-1"/>
                  </angle>
                  <angle>
                    <activevideoangle>false</activevideoangle>
                    <activeaudioangle>false</activeaudioangle>
                    <clip id="clip-2"/>
                  </angle>
                  <angle>
                    <activevideoangle>true</activevideoangle>
                    <activeaudioangle>true</activeaudioangle>
                    <clip id="clip-3"/>
                  </angle>
                  <angle>
                    <activevideoangle>false</activevideoangle>
                    <activeaudioangle>false</activeaudioangle>
                    <clip id="clip-4"/>
                  </angle>
                  <angle>
                    <activevideoangle>false</activevideoangle>
                    <activeaudioangle>false</activeaudioangle>
                    <clip id="clip-5"/>
                  </angle>
                  <angle>
                    <activevideoangle>false</activevideoangle>
                    <activeaudioangle>false</activeaudioangle>
                    <clip id="clip-6"/>
                  </angle>
                  <angle>
                    <activevideoangle>false</activevideoangle>
                    <activeaudioangle>false</activeaudioangle>
                    <clip id="clip-7"/>
                  </angle>
                  <masterclipid>clip-master</masterclipid>
                </multiclip>
              </clipitem>
              <clipitem id="cs-228">
                <duration>47</duration>
                <rate>
                  <ntsc>false</ntsc>
                  <timebase>25</timebase>
                </rate>
                <in>23001</in>
                <out>23047</out>
                <start>23001</start>
                <end>23047</end>
                <file id="src-2"/>
                <sourcetrack>
                  <mediatype>video</mediatype>
                  <trackindex>1</trackindex>
                </sourcetrack>
                <multiclip id="mcs-228">
                  <name>MCS-228</name>
                  <masterclipid>clip-master</masterclipid>
                  <collapsed>false</collapsed>
                  <angle>
                    <activevideoangle>false</activevideoangle>
                    <activeaudioangle>false</activeaudioangle>
                    <clip id="clip-1"/>
                  </angle>
                  <angle>
                    <activevideoangle>true</activevideoangle>
                    <activeaudioangle>true</activeaudioangle>
                    <clip id="clip-2"/>
                  </angle>
                  <angle>
                    <activevideoangle>false</activevideoangle>
                    <activeaudioangle>false</activeaudioangle>
                    <clip id="clip-3"/>
                  </angle>
                  <angle>
                    <activevideoangle>false</activevideoangle>
                    <activeaudioangle>false</activeaudioangle>
                    <clip id="clip-4"/>
                  </angle>
                  <angle>
                    <activevideoangle>false</activevideoangle>
                    <activeaudioangle>false</activeaudioangle>
                    <clip id="clip-5"/>
                  </angle>
                  <angle>
                    <activevideoangle>false</activevideoangle>
                    <activeaudioangle>false</activeaudioangle>
                    <clip id="clip-6"/>
                  </angle>
                  <angle>
                    <activevideoangle>false</activevideoangle>
                    <activeaudioangle>false</activeaudioangle>
                    <clip id="clip-7"/>
                  </angle>
                  <masterclipid>clip-master</masterclipid>
                </multiclip>
              </clipitem>
              <clipitem id="cs-229">
                <duration>49</duration>
                <rate>
                  <ntsc>false</ntsc>
                  <timebase>25</timebase>
                </rate>
                <in>23047</in>
                <out>23095</out>
                <start>23047</start>
                <end>23095</end>
                <file id="src-4"/>
                <sourcetrack>
                  <mediatype>video</mediatype>
                  <trackindex>1</trackindex>
                </sourcetrack>
                <multiclip id="mcs-229">
                  <name>MCS-229</name>
                  <masterclipid>clip-master</masterclipid>
                  <collapsed>false</collapsed>
                  <angle>
                    <activevideoangle>false</activevideoangle>
                    <activeaudioangle>false</activeaudioangle>
                    <clip id="clip-1"/>
                  </angle>
                  <angle>
                    <activevideoangle>false</activevideoangle>
                    <activeaudioangle>false</activeaudioangle>
                    <clip id="clip-2"/>
                  </angle>
                  <angle>
                    <activevideoangle>false</activevideoangle>
                    <activeaudioangle>false</activeaudioangle>
                    <clip id="clip-3"/>
                  </angle>
                  <angle>
                    <activevideoangle>true</activevideoangle>
                    <activeaudioangle>true</activeaudioangle>
                    <clip id="clip-4"/>
                  </angle>
                  <angle>
                    <activevideoangle>false</activevideoangle>
                    <activeaudioangle>false</activeaudioangle>
                    <clip id="clip-5"/>
                  </angle>
                  <angle>
                    <activevideoangle>false</activevideoangle>
                    <activeaudioangle>false</activeaudioangle>
                    <clip id="clip-6"/>
                  </angle>
                  <angle>
                    <activevideoangle>false</activevideoangle>
                    <activeaudioangle>false</activeaudioangle>
                    <clip id="clip-7"/>
                  </angle>
                  <masterclipid>clip-master</masterclipid>
                </multiclip>
              </clipitem>
              <clipitem id="cs-230">
                <duration>104</duration>
                <rate>
                  <ntsc>false</ntsc>
                  <timebase>25</timebase>
                </rate>
                <in>23095</in>
                <out>23198</out>
                <start>23095</start>
                <end>23198</end>
                <file id="src-3"/>
                <sourcetrack>
                  <mediatype>video</mediatype>
                  <trackindex>1</trackindex>
                </sourcetrack>
                <multiclip id="mcs-230">
                  <name>MCS-230</name>
                  <masterclipid>clip-master</masterclipid>
                  <collapsed>false</collapsed>
                  <angle>
                    <activevideoangle>false</activevideoangle>
                    <activeaudioangle>false</activeaudioangle>
                    <clip id="clip-1"/>
                  </angle>
                  <angle>
                    <activevideoangle>false</activevideoangle>
                    <activeaudioangle>false</activeaudioangle>
                    <clip id="clip-2"/>
                  </angle>
                  <angle>
                    <activevideoangle>true</activevideoangle>
                    <activeaudioangle>true</activeaudioangle>
                    <clip id="clip-3"/>
                  </angle>
                  <angle>
                    <activevideoangle>false</activevideoangle>
                    <activeaudioangle>false</activeaudioangle>
                    <clip id="clip-4"/>
                  </angle>
                  <angle>
                    <activevideoangle>false</activevideoangle>
                    <activeaudioangle>false</activeaudioangle>
                    <clip id="clip-5"/>
                  </angle>
                  <angle>
                    <activevideoangle>false</activevideoangle>
                    <activeaudioangle>false</activeaudioangle>
                    <clip id="clip-6"/>
                  </angle>
                  <angle>
                    <activevideoangle>false</activevideoangle>
                    <activeaudioangle>false</activeaudioangle>
                    <clip id="clip-7"/>
                  </angle>
                  <masterclipid>clip-master</masterclipid>
                </multiclip>
              </clipitem>
              <clipitem id="cs-231">
                <duration>83</duration>
                <rate>
                  <ntsc>false</ntsc>
                  <timebase>25</timebase>
                </rate>
                <in>23198</in>
                <out>23280</out>
                <start>23198</start>
                <end>23280</end>
                <file id="src-2"/>
                <sourcetrack>
                  <mediatype>video</mediatype>
                  <trackindex>1</trackindex>
                </sourcetrack>
                <multiclip id="mcs-231">
                  <name>MCS-231</name>
                  <masterclipid>clip-master</masterclipid>
                  <collapsed>false</collapsed>
                  <angle>
                    <activevideoangle>false</activevideoangle>
                    <activeaudioangle>false</activeaudioangle>
                    <clip id="clip-1"/>
                  </angle>
                  <angle>
                    <activevideoangle>true</activevideoangle>
                    <activeaudioangle>true</activeaudioangle>
                    <clip id="clip-2"/>
                  </angle>
                  <angle>
                    <activevideoangle>false</activevideoangle>
                    <activeaudioangle>false</activeaudioangle>
                    <clip id="clip-3"/>
                  </angle>
                  <angle>
                    <activevideoangle>false</activevideoangle>
                    <activeaudioangle>false</activeaudioangle>
                    <clip id="clip-4"/>
                  </angle>
                  <angle>
                    <activevideoangle>false</activevideoangle>
                    <activeaudioangle>false</activeaudioangle>
                    <clip id="clip-5"/>
                  </angle>
                  <angle>
                    <activevideoangle>false</activevideoangle>
                    <activeaudioangle>false</activeaudioangle>
                    <clip id="clip-6"/>
                  </angle>
                  <angle>
                    <activevideoangle>false</activevideoangle>
                    <activeaudioangle>false</activeaudioangle>
                    <clip id="clip-7"/>
                  </angle>
                  <masterclipid>clip-master</masterclipid>
                </multiclip>
              </clipitem>
              <clipitem id="cs-232">
                <duration>105</duration>
                <rate>
                  <ntsc>false</ntsc>
                  <timebase>25</timebase>
                </rate>
                <in>23280</in>
                <out>23384</out>
                <start>23280</start>
                <end>23384</end>
                <file id="src-4"/>
                <sourcetrack>
                  <mediatype>video</mediatype>
                  <trackindex>1</trackindex>
                </sourcetrack>
                <multiclip id="mcs-232">
                  <name>MCS-232</name>
                  <masterclipid>clip-master</masterclipid>
                  <collapsed>false</collapsed>
                  <angle>
                    <activevideoangle>false</activevideoangle>
                    <activeaudioangle>false</activeaudioangle>
                    <clip id="clip-1"/>
                  </angle>
                  <angle>
                    <activevideoangle>false</activevideoangle>
                    <activeaudioangle>false</activeaudioangle>
                    <clip id="clip-2"/>
                  </angle>
                  <angle>
                    <activevideoangle>false</activevideoangle>
                    <activeaudioangle>false</activeaudioangle>
                    <clip id="clip-3"/>
                  </angle>
                  <angle>
                    <activevideoangle>true</activevideoangle>
                    <activeaudioangle>true</activeaudioangle>
                    <clip id="clip-4"/>
                  </angle>
                  <angle>
                    <activevideoangle>false</activevideoangle>
                    <activeaudioangle>false</activeaudioangle>
                    <clip id="clip-5"/>
                  </angle>
                  <angle>
                    <activevideoangle>false</activevideoangle>
                    <activeaudioangle>false</activeaudioangle>
                    <clip id="clip-6"/>
                  </angle>
                  <angle>
                    <activevideoangle>false</activevideoangle>
                    <activeaudioangle>false</activeaudioangle>
                    <clip id="clip-7"/>
                  </angle>
                  <masterclipid>clip-master</masterclipid>
                </multiclip>
              </clipitem>
              <clipitem id="cs-233">
                <duration>38</duration>
                <rate>
                  <ntsc>false</ntsc>
                  <timebase>25</timebase>
                </rate>
                <in>23384</in>
                <out>23421</out>
                <start>23384</start>
                <end>23421</end>
                <file id="src-1"/>
                <sourcetrack>
                  <mediatype>video</mediatype>
                  <trackindex>1</trackindex>
                </sourcetrack>
                <multiclip id="mcs-233">
                  <name>MCS-233</name>
                  <masterclipid>clip-master</masterclipid>
                  <collapsed>false</collapsed>
                  <angle>
                    <activevideoangle>true</activevideoangle>
                    <activeaudioangle>true</activeaudioangle>
                    <clip id="clip-1"/>
                  </angle>
                  <angle>
                    <activevideoangle>false</activevideoangle>
                    <activeaudioangle>false</activeaudioangle>
                    <clip id="clip-2"/>
                  </angle>
                  <angle>
                    <activevideoangle>false</activevideoangle>
                    <activeaudioangle>false</activeaudioangle>
                    <clip id="clip-3"/>
                  </angle>
                  <angle>
                    <activevideoangle>false</activevideoangle>
                    <activeaudioangle>false</activeaudioangle>
                    <clip id="clip-4"/>
                  </angle>
                  <angle>
                    <activevideoangle>false</activevideoangle>
                    <activeaudioangle>false</activeaudioangle>
                    <clip id="clip-5"/>
                  </angle>
                  <angle>
                    <activevideoangle>false</activevideoangle>
                    <activeaudioangle>false</activeaudioangle>
                    <clip id="clip-6"/>
                  </angle>
                  <angle>
                    <activevideoangle>false</activevideoangle>
                    <activeaudioangle>false</activeaudioangle>
                    <clip id="clip-7"/>
                  </angle>
                  <masterclipid>clip-master</masterclipid>
                </multiclip>
              </clipitem>
              <clipitem id="cs-234">
                <duration>97</duration>
                <rate>
                  <ntsc>false</ntsc>
                  <timebase>25</timebase>
                </rate>
                <in>23421</in>
                <out>23517</out>
                <start>23421</start>
                <end>23517</end>
                <file id="src-3"/>
                <sourcetrack>
                  <mediatype>video</mediatype>
                  <trackindex>1</trackindex>
                </sourcetrack>
                <multiclip id="mcs-234">
                  <name>MCS-234</name>
                  <masterclipid>clip-master</masterclipid>
                  <collapsed>false</collapsed>
                  <angle>
                    <activevideoangle>false</activevideoangle>
                    <activeaudioangle>false</activeaudioangle>
                    <clip id="clip-1"/>
                  </angle>
                  <angle>
                    <activevideoangle>false</activevideoangle>
                    <activeaudioangle>false</activeaudioangle>
                    <clip id="clip-2"/>
                  </angle>
                  <angle>
                    <activevideoangle>true</activevideoangle>
                    <activeaudioangle>true</activeaudioangle>
                    <clip id="clip-3"/>
                  </angle>
                  <angle>
                    <activevideoangle>false</activevideoangle>
                    <activeaudioangle>false</activeaudioangle>
                    <clip id="clip-4"/>
                  </angle>
                  <angle>
                    <activevideoangle>false</activevideoangle>
                    <activeaudioangle>false</activeaudioangle>
                    <clip id="clip-5"/>
                  </angle>
                  <angle>
                    <activevideoangle>false</activevideoangle>
                    <activeaudioangle>false</activeaudioangle>
                    <clip id="clip-6"/>
                  </angle>
                  <angle>
                    <activevideoangle>false</activevideoangle>
                    <activeaudioangle>false</activeaudioangle>
                    <clip id="clip-7"/>
                  </angle>
                  <masterclipid>clip-master</masterclipid>
                </multiclip>
              </clipitem>
              <clipitem id="cs-235">
                <duration>45</duration>
                <rate>
                  <ntsc>false</ntsc>
                  <timebase>25</timebase>
                </rate>
                <in>23517</in>
                <out>23561</out>
                <start>23517</start>
                <end>23561</end>
                <file id="src-5"/>
                <sourcetrack>
                  <mediatype>video</mediatype>
                  <trackindex>1</trackindex>
                </sourcetrack>
                <multiclip id="mcs-235">
                  <name>MCS-235</name>
                  <masterclipid>clip-master</masterclipid>
                  <collapsed>false</collapsed>
                  <angle>
                    <activevideoangle>false</activevideoangle>
                    <activeaudioangle>false</activeaudioangle>
                    <clip id="clip-1"/>
                  </angle>
                  <angle>
                    <activevideoangle>false</activevideoangle>
                    <activeaudioangle>false</activeaudioangle>
                    <clip id="clip-2"/>
                  </angle>
                  <angle>
                    <activevideoangle>false</activevideoangle>
                    <activeaudioangle>false</activeaudioangle>
                    <clip id="clip-3"/>
                  </angle>
                  <angle>
                    <activevideoangle>false</activevideoangle>
                    <activeaudioangle>false</activeaudioangle>
                    <clip id="clip-4"/>
                  </angle>
                  <angle>
                    <activevideoangle>true</activevideoangle>
                    <activeaudioangle>true</activeaudioangle>
                    <clip id="clip-5"/>
                  </angle>
                  <angle>
                    <activevideoangle>false</activevideoangle>
                    <activeaudioangle>false</activeaudioangle>
                    <clip id="clip-6"/>
                  </angle>
                  <angle>
                    <activevideoangle>false</activevideoangle>
                    <activeaudioangle>false</activeaudioangle>
                    <clip id="clip-7"/>
                  </angle>
                  <masterclipid>clip-master</masterclipid>
                </multiclip>
              </clipitem>
              <clipitem id="cs-236">
                <duration>54</duration>
                <rate>
                  <ntsc>false</ntsc>
                  <timebase>25</timebase>
                </rate>
                <in>23561</in>
                <out>23614</out>
                <start>23561</start>
                <end>23614</end>
                <file id="src-3"/>
                <sourcetrack>
                  <mediatype>video</mediatype>
                  <trackindex>1</trackindex>
                </sourcetrack>
                <multiclip id="mcs-236">
                  <name>MCS-236</name>
                  <masterclipid>clip-master</masterclipid>
                  <collapsed>false</collapsed>
                  <angle>
                    <activevideoangle>false</activevideoangle>
                    <activeaudioangle>false</activeaudioangle>
                    <clip id="clip-1"/>
                  </angle>
                  <angle>
                    <activevideoangle>false</activevideoangle>
                    <activeaudioangle>false</activeaudioangle>
                    <clip id="clip-2"/>
                  </angle>
                  <angle>
                    <activevideoangle>true</activevideoangle>
                    <activeaudioangle>true</activeaudioangle>
                    <clip id="clip-3"/>
                  </angle>
                  <angle>
                    <activevideoangle>false</activevideoangle>
                    <activeaudioangle>false</activeaudioangle>
                    <clip id="clip-4"/>
                  </angle>
                  <angle>
                    <activevideoangle>false</activevideoangle>
                    <activeaudioangle>false</activeaudioangle>
                    <clip id="clip-5"/>
                  </angle>
                  <angle>
                    <activevideoangle>false</activevideoangle>
                    <activeaudioangle>false</activeaudioangle>
                    <clip id="clip-6"/>
                  </angle>
                  <angle>
                    <activevideoangle>false</activevideoangle>
                    <activeaudioangle>false</activeaudioangle>
                    <clip id="clip-7"/>
                  </angle>
                  <masterclipid>clip-master</masterclipid>
                </multiclip>
              </clipitem>
              <clipitem id="cs-237">
                <duration>79</duration>
                <rate>
                  <ntsc>false</ntsc>
                  <timebase>25</timebase>
                </rate>
                <in>23614</in>
                <out>23692</out>
                <start>23614</start>
                <end>23692</end>
                <file id="src-2"/>
                <sourcetrack>
                  <mediatype>video</mediatype>
                  <trackindex>1</trackindex>
                </sourcetrack>
                <multiclip id="mcs-237">
                  <name>MCS-237</name>
                  <masterclipid>clip-master</masterclipid>
                  <collapsed>false</collapsed>
                  <angle>
                    <activevideoangle>false</activevideoangle>
                    <activeaudioangle>false</activeaudioangle>
                    <clip id="clip-1"/>
                  </angle>
                  <angle>
                    <activevideoangle>true</activevideoangle>
                    <activeaudioangle>true</activeaudioangle>
                    <clip id="clip-2"/>
                  </angle>
                  <angle>
                    <activevideoangle>false</activevideoangle>
                    <activeaudioangle>false</activeaudioangle>
                    <clip id="clip-3"/>
                  </angle>
                  <angle>
                    <activevideoangle>false</activevideoangle>
                    <activeaudioangle>false</activeaudioangle>
                    <clip id="clip-4"/>
                  </angle>
                  <angle>
                    <activevideoangle>false</activevideoangle>
                    <activeaudioangle>false</activeaudioangle>
                    <clip id="clip-5"/>
                  </angle>
                  <angle>
                    <activevideoangle>false</activevideoangle>
                    <activeaudioangle>false</activeaudioangle>
                    <clip id="clip-6"/>
                  </angle>
                  <angle>
                    <activevideoangle>false</activevideoangle>
                    <activeaudioangle>false</activeaudioangle>
                    <clip id="clip-7"/>
                  </angle>
                  <masterclipid>clip-master</masterclipid>
                </multiclip>
              </clipitem>
              <clipitem id="cs-238">
                <duration>58</duration>
                <rate>
                  <ntsc>false</ntsc>
                  <timebase>25</timebase>
                </rate>
                <in>23692</in>
                <out>23749</out>
                <start>23692</start>
                <end>23749</end>
                <file id="src-3"/>
                <sourcetrack>
                  <mediatype>video</mediatype>
                  <trackindex>1</trackindex>
                </sourcetrack>
                <multiclip id="mcs-238">
                  <name>MCS-238</name>
                  <masterclipid>clip-master</masterclipid>
                  <collapsed>false</collapsed>
                  <angle>
                    <activevideoangle>false</activevideoangle>
                    <activeaudioangle>false</activeaudioangle>
                    <clip id="clip-1"/>
                  </angle>
                  <angle>
                    <activevideoangle>false</activevideoangle>
                    <activeaudioangle>false</activeaudioangle>
                    <clip id="clip-2"/>
                  </angle>
                  <angle>
                    <activevideoangle>true</activevideoangle>
                    <activeaudioangle>true</activeaudioangle>
                    <clip id="clip-3"/>
                  </angle>
                  <angle>
                    <activevideoangle>false</activevideoangle>
                    <activeaudioangle>false</activeaudioangle>
                    <clip id="clip-4"/>
                  </angle>
                  <angle>
                    <activevideoangle>false</activevideoangle>
                    <activeaudioangle>false</activeaudioangle>
                    <clip id="clip-5"/>
                  </angle>
                  <angle>
                    <activevideoangle>false</activevideoangle>
                    <activeaudioangle>false</activeaudioangle>
                    <clip id="clip-6"/>
                  </angle>
                  <angle>
                    <activevideoangle>false</activevideoangle>
                    <activeaudioangle>false</activeaudioangle>
                    <clip id="clip-7"/>
                  </angle>
                  <masterclipid>clip-master</masterclipid>
                </multiclip>
              </clipitem>
              <clipitem id="cs-239">
                <duration>353</duration>
                <rate>
                  <ntsc>false</ntsc>
                  <timebase>25</timebase>
                </rate>
                <in>23749</in>
                <out>24101</out>
                <start>23749</start>
                <end>24101</end>
                <file id="src-1"/>
                <sourcetrack>
                  <mediatype>video</mediatype>
                  <trackindex>1</trackindex>
                </sourcetrack>
                <multiclip id="mcs-239">
                  <name>MCS-239</name>
                  <masterclipid>clip-master</masterclipid>
                  <collapsed>false</collapsed>
                  <angle>
                    <activevideoangle>true</activevideoangle>
                    <activeaudioangle>true</activeaudioangle>
                    <clip id="clip-1"/>
                  </angle>
                  <angle>
                    <activevideoangle>false</activevideoangle>
                    <activeaudioangle>false</activeaudioangle>
                    <clip id="clip-2"/>
                  </angle>
                  <angle>
                    <activevideoangle>false</activevideoangle>
                    <activeaudioangle>false</activeaudioangle>
                    <clip id="clip-3"/>
                  </angle>
                  <angle>
                    <activevideoangle>false</activevideoangle>
                    <activeaudioangle>false</activeaudioangle>
                    <clip id="clip-4"/>
                  </angle>
                  <angle>
                    <activevideoangle>false</activevideoangle>
                    <activeaudioangle>false</activeaudioangle>
                    <clip id="clip-5"/>
                  </angle>
                  <angle>
                    <activevideoangle>false</activevideoangle>
                    <activeaudioangle>false</activeaudioangle>
                    <clip id="clip-6"/>
                  </angle>
                  <angle>
                    <activevideoangle>false</activevideoangle>
                    <activeaudioangle>false</activeaudioangle>
                    <clip id="clip-7"/>
                  </angle>
                  <masterclipid>clip-master</masterclipid>
                </multiclip>
              </clipitem>
              <clipitem id="cs-240">
                <duration>62</duration>
                <rate>
                  <ntsc>false</ntsc>
                  <timebase>25</timebase>
                </rate>
                <in>24101</in>
                <out>24162</out>
                <start>24101</start>
                <end>24162</end>
                <file id="src-6"/>
                <sourcetrack>
                  <mediatype>video</mediatype>
                  <trackindex>1</trackindex>
                </sourcetrack>
                <multiclip id="mcs-240">
                  <name>MCS-240</name>
                  <masterclipid>clip-master</masterclipid>
                  <collapsed>false</collapsed>
                  <angle>
                    <activevideoangle>false</activevideoangle>
                    <activeaudioangle>false</activeaudioangle>
                    <clip id="clip-1"/>
                  </angle>
                  <angle>
                    <activevideoangle>false</activevideoangle>
                    <activeaudioangle>false</activeaudioangle>
                    <clip id="clip-2"/>
                  </angle>
                  <angle>
                    <activevideoangle>false</activevideoangle>
                    <activeaudioangle>false</activeaudioangle>
                    <clip id="clip-3"/>
                  </angle>
                  <angle>
                    <activevideoangle>false</activevideoangle>
                    <activeaudioangle>false</activeaudioangle>
                    <clip id="clip-4"/>
                  </angle>
                  <angle>
                    <activevideoangle>false</activevideoangle>
                    <activeaudioangle>false</activeaudioangle>
                    <clip id="clip-5"/>
                  </angle>
                  <angle>
                    <activevideoangle>true</activevideoangle>
                    <activeaudioangle>true</activeaudioangle>
                    <clip id="clip-6"/>
                  </angle>
                  <angle>
                    <activevideoangle>false</activevideoangle>
                    <activeaudioangle>false</activeaudioangle>
                    <clip id="clip-7"/>
                  </angle>
                  <masterclipid>clip-master</masterclipid>
                </multiclip>
              </clipitem>
              <clipitem id="cs-241">
                <duration>85</duration>
                <rate>
                  <ntsc>false</ntsc>
                  <timebase>25</timebase>
                </rate>
                <in>24162</in>
                <out>24246</out>
                <start>24162</start>
                <end>24246</end>
                <file id="src-1"/>
                <sourcetrack>
                  <mediatype>video</mediatype>
                  <trackindex>1</trackindex>
                </sourcetrack>
                <multiclip id="mcs-241">
                  <name>MCS-241</name>
                  <masterclipid>clip-master</masterclipid>
                  <collapsed>false</collapsed>
                  <angle>
                    <activevideoangle>true</activevideoangle>
                    <activeaudioangle>true</activeaudioangle>
                    <clip id="clip-1"/>
                  </angle>
                  <angle>
                    <activevideoangle>false</activevideoangle>
                    <activeaudioangle>false</activeaudioangle>
                    <clip id="clip-2"/>
                  </angle>
                  <angle>
                    <activevideoangle>false</activevideoangle>
                    <activeaudioangle>false</activeaudioangle>
                    <clip id="clip-3"/>
                  </angle>
                  <angle>
                    <activevideoangle>false</activevideoangle>
                    <activeaudioangle>false</activeaudioangle>
                    <clip id="clip-4"/>
                  </angle>
                  <angle>
                    <activevideoangle>false</activevideoangle>
                    <activeaudioangle>false</activeaudioangle>
                    <clip id="clip-5"/>
                  </angle>
                  <angle>
                    <activevideoangle>false</activevideoangle>
                    <activeaudioangle>false</activeaudioangle>
                    <clip id="clip-6"/>
                  </angle>
                  <angle>
                    <activevideoangle>false</activevideoangle>
                    <activeaudioangle>false</activeaudioangle>
                    <clip id="clip-7"/>
                  </angle>
                  <masterclipid>clip-master</masterclipid>
                </multiclip>
              </clipitem>
              <clipitem id="cs-242">
                <duration>171</duration>
                <rate>
                  <ntsc>false</ntsc>
                  <timebase>25</timebase>
                </rate>
                <in>24246</in>
                <out>24416</out>
                <start>24246</start>
                <end>24416</end>
                <file id="src-2"/>
                <sourcetrack>
                  <mediatype>video</mediatype>
                  <trackindex>1</trackindex>
                </sourcetrack>
                <multiclip id="mcs-242">
                  <name>MCS-242</name>
                  <masterclipid>clip-master</masterclipid>
                  <collapsed>false</collapsed>
                  <angle>
                    <activevideoangle>false</activevideoangle>
                    <activeaudioangle>false</activeaudioangle>
                    <clip id="clip-1"/>
                  </angle>
                  <angle>
                    <activevideoangle>true</activevideoangle>
                    <activeaudioangle>true</activeaudioangle>
                    <clip id="clip-2"/>
                  </angle>
                  <angle>
                    <activevideoangle>false</activevideoangle>
                    <activeaudioangle>false</activeaudioangle>
                    <clip id="clip-3"/>
                  </angle>
                  <angle>
                    <activevideoangle>false</activevideoangle>
                    <activeaudioangle>false</activeaudioangle>
                    <clip id="clip-4"/>
                  </angle>
                  <angle>
                    <activevideoangle>false</activevideoangle>
                    <activeaudioangle>false</activeaudioangle>
                    <clip id="clip-5"/>
                  </angle>
                  <angle>
                    <activevideoangle>false</activevideoangle>
                    <activeaudioangle>false</activeaudioangle>
                    <clip id="clip-6"/>
                  </angle>
                  <angle>
                    <activevideoangle>false</activevideoangle>
                    <activeaudioangle>false</activeaudioangle>
                    <clip id="clip-7"/>
                  </angle>
                  <masterclipid>clip-master</masterclipid>
                </multiclip>
              </clipitem>
              <clipitem id="cs-243">
                <duration>114</duration>
                <rate>
                  <ntsc>false</ntsc>
                  <timebase>25</timebase>
                </rate>
                <in>24416</in>
                <out>24529</out>
                <start>24416</start>
                <end>24529</end>
                <file id="src-3"/>
                <sourcetrack>
                  <mediatype>video</mediatype>
                  <trackindex>1</trackindex>
                </sourcetrack>
                <multiclip id="mcs-243">
                  <name>MCS-243</name>
                  <masterclipid>clip-master</masterclipid>
                  <collapsed>false</collapsed>
                  <angle>
                    <activevideoangle>false</activevideoangle>
                    <activeaudioangle>false</activeaudioangle>
                    <clip id="clip-1"/>
                  </angle>
                  <angle>
                    <activevideoangle>false</activevideoangle>
                    <activeaudioangle>false</activeaudioangle>
                    <clip id="clip-2"/>
                  </angle>
                  <angle>
                    <activevideoangle>true</activevideoangle>
                    <activeaudioangle>true</activeaudioangle>
                    <clip id="clip-3"/>
                  </angle>
                  <angle>
                    <activevideoangle>false</activevideoangle>
                    <activeaudioangle>false</activeaudioangle>
                    <clip id="clip-4"/>
                  </angle>
                  <angle>
                    <activevideoangle>false</activevideoangle>
                    <activeaudioangle>false</activeaudioangle>
                    <clip id="clip-5"/>
                  </angle>
                  <angle>
                    <activevideoangle>false</activevideoangle>
                    <activeaudioangle>false</activeaudioangle>
                    <clip id="clip-6"/>
                  </angle>
                  <angle>
                    <activevideoangle>false</activevideoangle>
                    <activeaudioangle>false</activeaudioangle>
                    <clip id="clip-7"/>
                  </angle>
                  <masterclipid>clip-master</masterclipid>
                </multiclip>
              </clipitem>
              <clipitem id="cs-244">
                <duration>77</duration>
                <rate>
                  <ntsc>false</ntsc>
                  <timebase>25</timebase>
                </rate>
                <in>24529</in>
                <out>24605</out>
                <start>24529</start>
                <end>24605</end>
                <file id="src-4"/>
                <sourcetrack>
                  <mediatype>video</mediatype>
                  <trackindex>1</trackindex>
                </sourcetrack>
                <multiclip id="mcs-244">
                  <name>MCS-244</name>
                  <masterclipid>clip-master</masterclipid>
                  <collapsed>false</collapsed>
                  <angle>
                    <activevideoangle>false</activevideoangle>
                    <activeaudioangle>false</activeaudioangle>
                    <clip id="clip-1"/>
                  </angle>
                  <angle>
                    <activevideoangle>false</activevideoangle>
                    <activeaudioangle>false</activeaudioangle>
                    <clip id="clip-2"/>
                  </angle>
                  <angle>
                    <activevideoangle>false</activevideoangle>
                    <activeaudioangle>false</activeaudioangle>
                    <clip id="clip-3"/>
                  </angle>
                  <angle>
                    <activevideoangle>true</activevideoangle>
                    <activeaudioangle>true</activeaudioangle>
                    <clip id="clip-4"/>
                  </angle>
                  <angle>
                    <activevideoangle>false</activevideoangle>
                    <activeaudioangle>false</activeaudioangle>
                    <clip id="clip-5"/>
                  </angle>
                  <angle>
                    <activevideoangle>false</activevideoangle>
                    <activeaudioangle>false</activeaudioangle>
                    <clip id="clip-6"/>
                  </angle>
                  <angle>
                    <activevideoangle>false</activevideoangle>
                    <activeaudioangle>false</activeaudioangle>
                    <clip id="clip-7"/>
                  </angle>
                  <masterclipid>clip-master</masterclipid>
                </multiclip>
              </clipitem>
              <clipitem id="cs-245">
                <duration>70</duration>
                <rate>
                  <ntsc>false</ntsc>
                  <timebase>25</timebase>
                </rate>
                <in>24605</in>
                <out>24674</out>
                <start>24605</start>
                <end>24674</end>
                <file id="src-3"/>
                <sourcetrack>
                  <mediatype>video</mediatype>
                  <trackindex>1</trackindex>
                </sourcetrack>
                <multiclip id="mcs-245">
                  <name>MCS-245</name>
                  <masterclipid>clip-master</masterclipid>
                  <collapsed>false</collapsed>
                  <angle>
                    <activevideoangle>false</activevideoangle>
                    <activeaudioangle>false</activeaudioangle>
                    <clip id="clip-1"/>
                  </angle>
                  <angle>
                    <activevideoangle>false</activevideoangle>
                    <activeaudioangle>false</activeaudioangle>
                    <clip id="clip-2"/>
                  </angle>
                  <angle>
                    <activevideoangle>true</activevideoangle>
                    <activeaudioangle>true</activeaudioangle>
                    <clip id="clip-3"/>
                  </angle>
                  <angle>
                    <activevideoangle>false</activevideoangle>
                    <activeaudioangle>false</activeaudioangle>
                    <clip id="clip-4"/>
                  </angle>
                  <angle>
                    <activevideoangle>false</activevideoangle>
                    <activeaudioangle>false</activeaudioangle>
                    <clip id="clip-5"/>
                  </angle>
                  <angle>
                    <activevideoangle>false</activevideoangle>
                    <activeaudioangle>false</activeaudioangle>
                    <clip id="clip-6"/>
                  </angle>
                  <angle>
                    <activevideoangle>false</activevideoangle>
                    <activeaudioangle>false</activeaudioangle>
                    <clip id="clip-7"/>
                  </angle>
                  <masterclipid>clip-master</masterclipid>
                </multiclip>
              </clipitem>
              <clipitem id="cs-246">
                <duration>229</duration>
                <rate>
                  <ntsc>false</ntsc>
                  <timebase>25</timebase>
                </rate>
                <in>24674</in>
                <out>24902</out>
                <start>24674</start>
                <end>24902</end>
                <file id="src-2"/>
                <sourcetrack>
                  <mediatype>video</mediatype>
                  <trackindex>1</trackindex>
                </sourcetrack>
                <multiclip id="mcs-246">
                  <name>MCS-246</name>
                  <masterclipid>clip-master</masterclipid>
                  <collapsed>false</collapsed>
                  <angle>
                    <activevideoangle>false</activevideoangle>
                    <activeaudioangle>false</activeaudioangle>
                    <clip id="clip-1"/>
                  </angle>
                  <angle>
                    <activevideoangle>true</activevideoangle>
                    <activeaudioangle>true</activeaudioangle>
                    <clip id="clip-2"/>
                  </angle>
                  <angle>
                    <activevideoangle>false</activevideoangle>
                    <activeaudioangle>false</activeaudioangle>
                    <clip id="clip-3"/>
                  </angle>
                  <angle>
                    <activevideoangle>false</activevideoangle>
                    <activeaudioangle>false</activeaudioangle>
                    <clip id="clip-4"/>
                  </angle>
                  <angle>
                    <activevideoangle>false</activevideoangle>
                    <activeaudioangle>false</activeaudioangle>
                    <clip id="clip-5"/>
                  </angle>
                  <angle>
                    <activevideoangle>false</activevideoangle>
                    <activeaudioangle>false</activeaudioangle>
                    <clip id="clip-6"/>
                  </angle>
                  <angle>
                    <activevideoangle>false</activevideoangle>
                    <activeaudioangle>false</activeaudioangle>
                    <clip id="clip-7"/>
                  </angle>
                  <masterclipid>clip-master</masterclipid>
                </multiclip>
              </clipitem>
              <clipitem id="cs-247">
                <duration>37</duration>
                <rate>
                  <ntsc>false</ntsc>
                  <timebase>25</timebase>
                </rate>
                <in>24902</in>
                <out>24938</out>
                <start>24902</start>
                <end>24938</end>
                <file id="src-6"/>
                <sourcetrack>
                  <mediatype>video</mediatype>
                  <trackindex>1</trackindex>
                </sourcetrack>
                <multiclip id="mcs-247">
                  <name>MCS-247</name>
                  <masterclipid>clip-master</masterclipid>
                  <collapsed>false</collapsed>
                  <angle>
                    <activevideoangle>false</activevideoangle>
                    <activeaudioangle>false</activeaudioangle>
                    <clip id="clip-1"/>
                  </angle>
                  <angle>
                    <activevideoangle>false</activevideoangle>
                    <activeaudioangle>false</activeaudioangle>
                    <clip id="clip-2"/>
                  </angle>
                  <angle>
                    <activevideoangle>false</activevideoangle>
                    <activeaudioangle>false</activeaudioangle>
                    <clip id="clip-3"/>
                  </angle>
                  <angle>
                    <activevideoangle>false</activevideoangle>
                    <activeaudioangle>false</activeaudioangle>
                    <clip id="clip-4"/>
                  </angle>
                  <angle>
                    <activevideoangle>false</activevideoangle>
                    <activeaudioangle>false</activeaudioangle>
                    <clip id="clip-5"/>
                  </angle>
                  <angle>
                    <activevideoangle>true</activevideoangle>
                    <activeaudioangle>true</activeaudioangle>
                    <clip id="clip-6"/>
                  </angle>
                  <angle>
                    <activevideoangle>false</activevideoangle>
                    <activeaudioangle>false</activeaudioangle>
                    <clip id="clip-7"/>
                  </angle>
                  <masterclipid>clip-master</masterclipid>
                </multiclip>
              </clipitem>
              <clipitem id="cs-248">
                <duration>33</duration>
                <rate>
                  <ntsc>false</ntsc>
                  <timebase>25</timebase>
                </rate>
                <in>24938</in>
                <out>24970</out>
                <start>24938</start>
                <end>24970</end>
                <file id="src-1"/>
                <sourcetrack>
                  <mediatype>video</mediatype>
                  <trackindex>1</trackindex>
                </sourcetrack>
                <multiclip id="mcs-248">
                  <name>MCS-248</name>
                  <masterclipid>clip-master</masterclipid>
                  <collapsed>false</collapsed>
                  <angle>
                    <activevideoangle>true</activevideoangle>
                    <activeaudioangle>true</activeaudioangle>
                    <clip id="clip-1"/>
                  </angle>
                  <angle>
                    <activevideoangle>false</activevideoangle>
                    <activeaudioangle>false</activeaudioangle>
                    <clip id="clip-2"/>
                  </angle>
                  <angle>
                    <activevideoangle>false</activevideoangle>
                    <activeaudioangle>false</activeaudioangle>
                    <clip id="clip-3"/>
                  </angle>
                  <angle>
                    <activevideoangle>false</activevideoangle>
                    <activeaudioangle>false</activeaudioangle>
                    <clip id="clip-4"/>
                  </angle>
                  <angle>
                    <activevideoangle>false</activevideoangle>
                    <activeaudioangle>false</activeaudioangle>
                    <clip id="clip-5"/>
                  </angle>
                  <angle>
                    <activevideoangle>false</activevideoangle>
                    <activeaudioangle>false</activeaudioangle>
                    <clip id="clip-6"/>
                  </angle>
                  <angle>
                    <activevideoangle>false</activevideoangle>
                    <activeaudioangle>false</activeaudioangle>
                    <clip id="clip-7"/>
                  </angle>
                  <masterclipid>clip-master</masterclipid>
                </multiclip>
              </clipitem>
              <clipitem id="cs-249">
                <duration>94</duration>
                <rate>
                  <ntsc>false</ntsc>
                  <timebase>25</timebase>
                </rate>
                <in>24970</in>
                <out>25063</out>
                <start>24970</start>
                <end>25063</end>
                <file id="src-3"/>
                <sourcetrack>
                  <mediatype>video</mediatype>
                  <trackindex>1</trackindex>
                </sourcetrack>
                <multiclip id="mcs-249">
                  <name>MCS-249</name>
                  <masterclipid>clip-master</masterclipid>
                  <collapsed>false</collapsed>
                  <angle>
                    <activevideoangle>false</activevideoangle>
                    <activeaudioangle>false</activeaudioangle>
                    <clip id="clip-1"/>
                  </angle>
                  <angle>
                    <activevideoangle>false</activevideoangle>
                    <activeaudioangle>false</activeaudioangle>
                    <clip id="clip-2"/>
                  </angle>
                  <angle>
                    <activevideoangle>true</activevideoangle>
                    <activeaudioangle>true</activeaudioangle>
                    <clip id="clip-3"/>
                  </angle>
                  <angle>
                    <activevideoangle>false</activevideoangle>
                    <activeaudioangle>false</activeaudioangle>
                    <clip id="clip-4"/>
                  </angle>
                  <angle>
                    <activevideoangle>false</activevideoangle>
                    <activeaudioangle>false</activeaudioangle>
                    <clip id="clip-5"/>
                  </angle>
                  <angle>
                    <activevideoangle>false</activevideoangle>
                    <activeaudioangle>false</activeaudioangle>
                    <clip id="clip-6"/>
                  </angle>
                  <angle>
                    <activevideoangle>false</activevideoangle>
                    <activeaudioangle>false</activeaudioangle>
                    <clip id="clip-7"/>
                  </angle>
                  <masterclipid>clip-master</masterclipid>
                </multiclip>
              </clipitem>
              <clipitem id="cs-250">
                <duration>97</duration>
                <rate>
                  <ntsc>false</ntsc>
                  <timebase>25</timebase>
                </rate>
                <in>25063</in>
                <out>25159</out>
                <start>25063</start>
                <end>25159</end>
                <file id="src-2"/>
                <sourcetrack>
                  <mediatype>video</mediatype>
                  <trackindex>1</trackindex>
                </sourcetrack>
                <multiclip id="mcs-250">
                  <name>MCS-250</name>
                  <masterclipid>clip-master</masterclipid>
                  <collapsed>false</collapsed>
                  <angle>
                    <activevideoangle>false</activevideoangle>
                    <activeaudioangle>false</activeaudioangle>
                    <clip id="clip-1"/>
                  </angle>
                  <angle>
                    <activevideoangle>true</activevideoangle>
                    <activeaudioangle>true</activeaudioangle>
                    <clip id="clip-2"/>
                  </angle>
                  <angle>
                    <activevideoangle>false</activevideoangle>
                    <activeaudioangle>false</activeaudioangle>
                    <clip id="clip-3"/>
                  </angle>
                  <angle>
                    <activevideoangle>false</activevideoangle>
                    <activeaudioangle>false</activeaudioangle>
                    <clip id="clip-4"/>
                  </angle>
                  <angle>
                    <activevideoangle>false</activevideoangle>
                    <activeaudioangle>false</activeaudioangle>
                    <clip id="clip-5"/>
                  </angle>
                  <angle>
                    <activevideoangle>false</activevideoangle>
                    <activeaudioangle>false</activeaudioangle>
                    <clip id="clip-6"/>
                  </angle>
                  <angle>
                    <activevideoangle>false</activevideoangle>
                    <activeaudioangle>false</activeaudioangle>
                    <clip id="clip-7"/>
                  </angle>
                  <masterclipid>clip-master</masterclipid>
                </multiclip>
              </clipitem>
              <clipitem id="cs-251">
                <duration>44</duration>
                <rate>
                  <ntsc>false</ntsc>
                  <timebase>25</timebase>
                </rate>
                <in>25159</in>
                <out>25202</out>
                <start>25159</start>
                <end>25202</end>
                <file id="src-3"/>
                <sourcetrack>
                  <mediatype>video</mediatype>
                  <trackindex>1</trackindex>
                </sourcetrack>
                <multiclip id="mcs-251">
                  <name>MCS-251</name>
                  <masterclipid>clip-master</masterclipid>
                  <collapsed>false</collapsed>
                  <angle>
                    <activevideoangle>false</activevideoangle>
                    <activeaudioangle>false</activeaudioangle>
                    <clip id="clip-1"/>
                  </angle>
                  <angle>
                    <activevideoangle>false</activevideoangle>
                    <activeaudioangle>false</activeaudioangle>
                    <clip id="clip-2"/>
                  </angle>
                  <angle>
                    <activevideoangle>true</activevideoangle>
                    <activeaudioangle>true</activeaudioangle>
                    <clip id="clip-3"/>
                  </angle>
                  <angle>
                    <activevideoangle>false</activevideoangle>
                    <activeaudioangle>false</activeaudioangle>
                    <clip id="clip-4"/>
                  </angle>
                  <angle>
                    <activevideoangle>false</activevideoangle>
                    <activeaudioangle>false</activeaudioangle>
                    <clip id="clip-5"/>
                  </angle>
                  <angle>
                    <activevideoangle>false</activevideoangle>
                    <activeaudioangle>false</activeaudioangle>
                    <clip id="clip-6"/>
                  </angle>
                  <angle>
                    <activevideoangle>false</activevideoangle>
                    <activeaudioangle>false</activeaudioangle>
                    <clip id="clip-7"/>
                  </angle>
                  <masterclipid>clip-master</masterclipid>
                </multiclip>
              </clipitem>
              <clipitem id="cs-252">
                <duration>62</duration>
                <rate>
                  <ntsc>false</ntsc>
                  <timebase>25</timebase>
                </rate>
                <in>25202</in>
                <out>25263</out>
                <start>25202</start>
                <end>25263</end>
                <file id="src-1"/>
                <sourcetrack>
                  <mediatype>video</mediatype>
                  <trackindex>1</trackindex>
                </sourcetrack>
                <multiclip id="mcs-252">
                  <name>MCS-252</name>
                  <masterclipid>clip-master</masterclipid>
                  <collapsed>false</collapsed>
                  <angle>
                    <activevideoangle>true</activevideoangle>
                    <activeaudioangle>true</activeaudioangle>
                    <clip id="clip-1"/>
                  </angle>
                  <angle>
                    <activevideoangle>false</activevideoangle>
                    <activeaudioangle>false</activeaudioangle>
                    <clip id="clip-2"/>
                  </angle>
                  <angle>
                    <activevideoangle>false</activevideoangle>
                    <activeaudioangle>false</activeaudioangle>
                    <clip id="clip-3"/>
                  </angle>
                  <angle>
                    <activevideoangle>false</activevideoangle>
                    <activeaudioangle>false</activeaudioangle>
                    <clip id="clip-4"/>
                  </angle>
                  <angle>
                    <activevideoangle>false</activevideoangle>
                    <activeaudioangle>false</activeaudioangle>
                    <clip id="clip-5"/>
                  </angle>
                  <angle>
                    <activevideoangle>false</activevideoangle>
                    <activeaudioangle>false</activeaudioangle>
                    <clip id="clip-6"/>
                  </angle>
                  <angle>
                    <activevideoangle>false</activevideoangle>
                    <activeaudioangle>false</activeaudioangle>
                    <clip id="clip-7"/>
                  </angle>
                  <masterclipid>clip-master</masterclipid>
                </multiclip>
              </clipitem>
              <clipitem id="cs-253">
                <duration>66</duration>
                <rate>
                  <ntsc>false</ntsc>
                  <timebase>25</timebase>
                </rate>
                <in>25263</in>
                <out>25328</out>
                <start>25263</start>
                <end>25328</end>
                <file id="src-6"/>
                <sourcetrack>
                  <mediatype>video</mediatype>
                  <trackindex>1</trackindex>
                </sourcetrack>
                <multiclip id="mcs-253">
                  <name>MCS-253</name>
                  <masterclipid>clip-master</masterclipid>
                  <collapsed>false</collapsed>
                  <angle>
                    <activevideoangle>false</activevideoangle>
                    <activeaudioangle>false</activeaudioangle>
                    <clip id="clip-1"/>
                  </angle>
                  <angle>
                    <activevideoangle>false</activevideoangle>
                    <activeaudioangle>false</activeaudioangle>
                    <clip id="clip-2"/>
                  </angle>
                  <angle>
                    <activevideoangle>false</activevideoangle>
                    <activeaudioangle>false</activeaudioangle>
                    <clip id="clip-3"/>
                  </angle>
                  <angle>
                    <activevideoangle>false</activevideoangle>
                    <activeaudioangle>false</activeaudioangle>
                    <clip id="clip-4"/>
                  </angle>
                  <angle>
                    <activevideoangle>false</activevideoangle>
                    <activeaudioangle>false</activeaudioangle>
                    <clip id="clip-5"/>
                  </angle>
                  <angle>
                    <activevideoangle>true</activevideoangle>
                    <activeaudioangle>true</activeaudioangle>
                    <clip id="clip-6"/>
                  </angle>
                  <angle>
                    <activevideoangle>false</activevideoangle>
                    <activeaudioangle>false</activeaudioangle>
                    <clip id="clip-7"/>
                  </angle>
                  <masterclipid>clip-master</masterclipid>
                </multiclip>
              </clipitem>
              <clipitem id="cs-254">
                <duration>47</duration>
                <rate>
                  <ntsc>false</ntsc>
                  <timebase>25</timebase>
                </rate>
                <in>25328</in>
                <out>25374</out>
                <start>25328</start>
                <end>25374</end>
                <file id="src-2"/>
                <sourcetrack>
                  <mediatype>video</mediatype>
                  <trackindex>1</trackindex>
                </sourcetrack>
                <multiclip id="mcs-254">
                  <name>MCS-254</name>
                  <masterclipid>clip-master</masterclipid>
                  <collapsed>false</collapsed>
                  <angle>
                    <activevideoangle>false</activevideoangle>
                    <activeaudioangle>false</activeaudioangle>
                    <clip id="clip-1"/>
                  </angle>
                  <angle>
                    <activevideoangle>true</activevideoangle>
                    <activeaudioangle>true</activeaudioangle>
                    <clip id="clip-2"/>
                  </angle>
                  <angle>
                    <activevideoangle>false</activevideoangle>
                    <activeaudioangle>false</activeaudioangle>
                    <clip id="clip-3"/>
                  </angle>
                  <angle>
                    <activevideoangle>false</activevideoangle>
                    <activeaudioangle>false</activeaudioangle>
                    <clip id="clip-4"/>
                  </angle>
                  <angle>
                    <activevideoangle>false</activevideoangle>
                    <activeaudioangle>false</activeaudioangle>
                    <clip id="clip-5"/>
                  </angle>
                  <angle>
                    <activevideoangle>false</activevideoangle>
                    <activeaudioangle>false</activeaudioangle>
                    <clip id="clip-6"/>
                  </angle>
                  <angle>
                    <activevideoangle>false</activevideoangle>
                    <activeaudioangle>false</activeaudioangle>
                    <clip id="clip-7"/>
                  </angle>
                  <masterclipid>clip-master</masterclipid>
                </multiclip>
              </clipitem>
              <clipitem id="cs-255">
                <duration>39</duration>
                <rate>
                  <ntsc>false</ntsc>
                  <timebase>25</timebase>
                </rate>
                <in>25374</in>
                <out>25412</out>
                <start>25374</start>
                <end>25412</end>
                <file id="src-4"/>
                <sourcetrack>
                  <mediatype>video</mediatype>
                  <trackindex>1</trackindex>
                </sourcetrack>
                <multiclip id="mcs-255">
                  <name>MCS-255</name>
                  <masterclipid>clip-master</masterclipid>
                  <collapsed>false</collapsed>
                  <angle>
                    <activevideoangle>false</activevideoangle>
                    <activeaudioangle>false</activeaudioangle>
                    <clip id="clip-1"/>
                  </angle>
                  <angle>
                    <activevideoangle>false</activevideoangle>
                    <activeaudioangle>false</activeaudioangle>
                    <clip id="clip-2"/>
                  </angle>
                  <angle>
                    <activevideoangle>false</activevideoangle>
                    <activeaudioangle>false</activeaudioangle>
                    <clip id="clip-3"/>
                  </angle>
                  <angle>
                    <activevideoangle>true</activevideoangle>
                    <activeaudioangle>true</activeaudioangle>
                    <clip id="clip-4"/>
                  </angle>
                  <angle>
                    <activevideoangle>false</activevideoangle>
                    <activeaudioangle>false</activeaudioangle>
                    <clip id="clip-5"/>
                  </angle>
                  <angle>
                    <activevideoangle>false</activevideoangle>
                    <activeaudioangle>false</activeaudioangle>
                    <clip id="clip-6"/>
                  </angle>
                  <angle>
                    <activevideoangle>false</activevideoangle>
                    <activeaudioangle>false</activeaudioangle>
                    <clip id="clip-7"/>
                  </angle>
                  <masterclipid>clip-master</masterclipid>
                </multiclip>
              </clipitem>
              <clipitem id="cs-256">
                <duration>70</duration>
                <rate>
                  <ntsc>false</ntsc>
                  <timebase>25</timebase>
                </rate>
                <in>25412</in>
                <out>25481</out>
                <start>25412</start>
                <end>25481</end>
                <file id="src-3"/>
                <sourcetrack>
                  <mediatype>video</mediatype>
                  <trackindex>1</trackindex>
                </sourcetrack>
                <multiclip id="mcs-256">
                  <name>MCS-256</name>
                  <masterclipid>clip-master</masterclipid>
                  <collapsed>false</collapsed>
                  <angle>
                    <activevideoangle>false</activevideoangle>
                    <activeaudioangle>false</activeaudioangle>
                    <clip id="clip-1"/>
                  </angle>
                  <angle>
                    <activevideoangle>false</activevideoangle>
                    <activeaudioangle>false</activeaudioangle>
                    <clip id="clip-2"/>
                  </angle>
                  <angle>
                    <activevideoangle>true</activevideoangle>
                    <activeaudioangle>true</activeaudioangle>
                    <clip id="clip-3"/>
                  </angle>
                  <angle>
                    <activevideoangle>false</activevideoangle>
                    <activeaudioangle>false</activeaudioangle>
                    <clip id="clip-4"/>
                  </angle>
                  <angle>
                    <activevideoangle>false</activevideoangle>
                    <activeaudioangle>false</activeaudioangle>
                    <clip id="clip-5"/>
                  </angle>
                  <angle>
                    <activevideoangle>false</activevideoangle>
                    <activeaudioangle>false</activeaudioangle>
                    <clip id="clip-6"/>
                  </angle>
                  <angle>
                    <activevideoangle>false</activevideoangle>
                    <activeaudioangle>false</activeaudioangle>
                    <clip id="clip-7"/>
                  </angle>
                  <masterclipid>clip-master</masterclipid>
                </multiclip>
              </clipitem>
              <clipitem id="cs-257">
                <duration>98</duration>
                <rate>
                  <ntsc>false</ntsc>
                  <timebase>25</timebase>
                </rate>
                <in>25481</in>
                <out>25578</out>
                <start>25481</start>
                <end>25578</end>
                <file id="src-4"/>
                <sourcetrack>
                  <mediatype>video</mediatype>
                  <trackindex>1</trackindex>
                </sourcetrack>
                <multiclip id="mcs-257">
                  <name>MCS-257</name>
                  <masterclipid>clip-master</masterclipid>
                  <collapsed>false</collapsed>
                  <angle>
                    <activevideoangle>false</activevideoangle>
                    <activeaudioangle>false</activeaudioangle>
                    <clip id="clip-1"/>
                  </angle>
                  <angle>
                    <activevideoangle>false</activevideoangle>
                    <activeaudioangle>false</activeaudioangle>
                    <clip id="clip-2"/>
                  </angle>
                  <angle>
                    <activevideoangle>false</activevideoangle>
                    <activeaudioangle>false</activeaudioangle>
                    <clip id="clip-3"/>
                  </angle>
                  <angle>
                    <activevideoangle>true</activevideoangle>
                    <activeaudioangle>true</activeaudioangle>
                    <clip id="clip-4"/>
                  </angle>
                  <angle>
                    <activevideoangle>false</activevideoangle>
                    <activeaudioangle>false</activeaudioangle>
                    <clip id="clip-5"/>
                  </angle>
                  <angle>
                    <activevideoangle>false</activevideoangle>
                    <activeaudioangle>false</activeaudioangle>
                    <clip id="clip-6"/>
                  </angle>
                  <angle>
                    <activevideoangle>false</activevideoangle>
                    <activeaudioangle>false</activeaudioangle>
                    <clip id="clip-7"/>
                  </angle>
                  <masterclipid>clip-master</masterclipid>
                </multiclip>
              </clipitem>
              <clipitem id="cs-258">
                <duration>123</duration>
                <rate>
                  <ntsc>false</ntsc>
                  <timebase>25</timebase>
                </rate>
                <in>25578</in>
                <out>25700</out>
                <start>25578</start>
                <end>25700</end>
                <file id="src-3"/>
                <sourcetrack>
                  <mediatype>video</mediatype>
                  <trackindex>1</trackindex>
                </sourcetrack>
                <multiclip id="mcs-258">
                  <name>MCS-258</name>
                  <masterclipid>clip-master</masterclipid>
                  <collapsed>false</collapsed>
                  <angle>
                    <activevideoangle>false</activevideoangle>
                    <activeaudioangle>false</activeaudioangle>
                    <clip id="clip-1"/>
                  </angle>
                  <angle>
                    <activevideoangle>false</activevideoangle>
                    <activeaudioangle>false</activeaudioangle>
                    <clip id="clip-2"/>
                  </angle>
                  <angle>
                    <activevideoangle>true</activevideoangle>
                    <activeaudioangle>true</activeaudioangle>
                    <clip id="clip-3"/>
                  </angle>
                  <angle>
                    <activevideoangle>false</activevideoangle>
                    <activeaudioangle>false</activeaudioangle>
                    <clip id="clip-4"/>
                  </angle>
                  <angle>
                    <activevideoangle>false</activevideoangle>
                    <activeaudioangle>false</activeaudioangle>
                    <clip id="clip-5"/>
                  </angle>
                  <angle>
                    <activevideoangle>false</activevideoangle>
                    <activeaudioangle>false</activeaudioangle>
                    <clip id="clip-6"/>
                  </angle>
                  <angle>
                    <activevideoangle>false</activevideoangle>
                    <activeaudioangle>false</activeaudioangle>
                    <clip id="clip-7"/>
                  </angle>
                  <masterclipid>clip-master</masterclipid>
                </multiclip>
              </clipitem>
              <clipitem id="cs-259">
                <duration>45</duration>
                <rate>
                  <ntsc>false</ntsc>
                  <timebase>25</timebase>
                </rate>
                <in>25700</in>
                <out>25744</out>
                <start>25700</start>
                <end>25744</end>
                <file id="src-4"/>
                <sourcetrack>
                  <mediatype>video</mediatype>
                  <trackindex>1</trackindex>
                </sourcetrack>
                <multiclip id="mcs-259">
                  <name>MCS-259</name>
                  <masterclipid>clip-master</masterclipid>
                  <collapsed>false</collapsed>
                  <angle>
                    <activevideoangle>false</activevideoangle>
                    <activeaudioangle>false</activeaudioangle>
                    <clip id="clip-1"/>
                  </angle>
                  <angle>
                    <activevideoangle>false</activevideoangle>
                    <activeaudioangle>false</activeaudioangle>
                    <clip id="clip-2"/>
                  </angle>
                  <angle>
                    <activevideoangle>false</activevideoangle>
                    <activeaudioangle>false</activeaudioangle>
                    <clip id="clip-3"/>
                  </angle>
                  <angle>
                    <activevideoangle>true</activevideoangle>
                    <activeaudioangle>true</activeaudioangle>
                    <clip id="clip-4"/>
                  </angle>
                  <angle>
                    <activevideoangle>false</activevideoangle>
                    <activeaudioangle>false</activeaudioangle>
                    <clip id="clip-5"/>
                  </angle>
                  <angle>
                    <activevideoangle>false</activevideoangle>
                    <activeaudioangle>false</activeaudioangle>
                    <clip id="clip-6"/>
                  </angle>
                  <angle>
                    <activevideoangle>false</activevideoangle>
                    <activeaudioangle>false</activeaudioangle>
                    <clip id="clip-7"/>
                  </angle>
                  <masterclipid>clip-master</masterclipid>
                </multiclip>
              </clipitem>
              <clipitem id="cs-260">
                <duration>172</duration>
                <rate>
                  <ntsc>false</ntsc>
                  <timebase>25</timebase>
                </rate>
                <in>25744</in>
                <out>25915</out>
                <start>25744</start>
                <end>25915</end>
                <file id="src-3"/>
                <sourcetrack>
                  <mediatype>video</mediatype>
                  <trackindex>1</trackindex>
                </sourcetrack>
                <multiclip id="mcs-260">
                  <name>MCS-260</name>
                  <masterclipid>clip-master</masterclipid>
                  <collapsed>false</collapsed>
                  <angle>
                    <activevideoangle>false</activevideoangle>
                    <activeaudioangle>false</activeaudioangle>
                    <clip id="clip-1"/>
                  </angle>
                  <angle>
                    <activevideoangle>false</activevideoangle>
                    <activeaudioangle>false</activeaudioangle>
                    <clip id="clip-2"/>
                  </angle>
                  <angle>
                    <activevideoangle>true</activevideoangle>
                    <activeaudioangle>true</activeaudioangle>
                    <clip id="clip-3"/>
                  </angle>
                  <angle>
                    <activevideoangle>false</activevideoangle>
                    <activeaudioangle>false</activeaudioangle>
                    <clip id="clip-4"/>
                  </angle>
                  <angle>
                    <activevideoangle>false</activevideoangle>
                    <activeaudioangle>false</activeaudioangle>
                    <clip id="clip-5"/>
                  </angle>
                  <angle>
                    <activevideoangle>false</activevideoangle>
                    <activeaudioangle>false</activeaudioangle>
                    <clip id="clip-6"/>
                  </angle>
                  <angle>
                    <activevideoangle>false</activevideoangle>
                    <activeaudioangle>false</activeaudioangle>
                    <clip id="clip-7"/>
                  </angle>
                  <masterclipid>clip-master</masterclipid>
                </multiclip>
              </clipitem>
              <clipitem id="cs-261">
                <duration>45</duration>
                <rate>
                  <ntsc>false</ntsc>
                  <timebase>25</timebase>
                </rate>
                <in>25915</in>
                <out>25959</out>
                <start>25915</start>
                <end>25959</end>
                <file id="src-6"/>
                <sourcetrack>
                  <mediatype>video</mediatype>
                  <trackindex>1</trackindex>
                </sourcetrack>
                <multiclip id="mcs-261">
                  <name>MCS-261</name>
                  <masterclipid>clip-master</masterclipid>
                  <collapsed>false</collapsed>
                  <angle>
                    <activevideoangle>false</activevideoangle>
                    <activeaudioangle>false</activeaudioangle>
                    <clip id="clip-1"/>
                  </angle>
                  <angle>
                    <activevideoangle>false</activevideoangle>
                    <activeaudioangle>false</activeaudioangle>
                    <clip id="clip-2"/>
                  </angle>
                  <angle>
                    <activevideoangle>false</activevideoangle>
                    <activeaudioangle>false</activeaudioangle>
                    <clip id="clip-3"/>
                  </angle>
                  <angle>
                    <activevideoangle>false</activevideoangle>
                    <activeaudioangle>false</activeaudioangle>
                    <clip id="clip-4"/>
                  </angle>
                  <angle>
                    <activevideoangle>false</activevideoangle>
                    <activeaudioangle>false</activeaudioangle>
                    <clip id="clip-5"/>
                  </angle>
                  <angle>
                    <activevideoangle>true</activevideoangle>
                    <activeaudioangle>true</activeaudioangle>
                    <clip id="clip-6"/>
                  </angle>
                  <angle>
                    <activevideoangle>false</activevideoangle>
                    <activeaudioangle>false</activeaudioangle>
                    <clip id="clip-7"/>
                  </angle>
                  <masterclipid>clip-master</masterclipid>
                </multiclip>
              </clipitem>
              <clipitem id="cs-262">
                <duration>40</duration>
                <rate>
                  <ntsc>false</ntsc>
                  <timebase>25</timebase>
                </rate>
                <in>25959</in>
                <out>25998</out>
                <start>25959</start>
                <end>25998</end>
                <file id="src-1"/>
                <sourcetrack>
                  <mediatype>video</mediatype>
                  <trackindex>1</trackindex>
                </sourcetrack>
                <multiclip id="mcs-262">
                  <name>MCS-262</name>
                  <masterclipid>clip-master</masterclipid>
                  <collapsed>false</collapsed>
                  <angle>
                    <activevideoangle>true</activevideoangle>
                    <activeaudioangle>true</activeaudioangle>
                    <clip id="clip-1"/>
                  </angle>
                  <angle>
                    <activevideoangle>false</activevideoangle>
                    <activeaudioangle>false</activeaudioangle>
                    <clip id="clip-2"/>
                  </angle>
                  <angle>
                    <activevideoangle>false</activevideoangle>
                    <activeaudioangle>false</activeaudioangle>
                    <clip id="clip-3"/>
                  </angle>
                  <angle>
                    <activevideoangle>false</activevideoangle>
                    <activeaudioangle>false</activeaudioangle>
                    <clip id="clip-4"/>
                  </angle>
                  <angle>
                    <activevideoangle>false</activevideoangle>
                    <activeaudioangle>false</activeaudioangle>
                    <clip id="clip-5"/>
                  </angle>
                  <angle>
                    <activevideoangle>false</activevideoangle>
                    <activeaudioangle>false</activeaudioangle>
                    <clip id="clip-6"/>
                  </angle>
                  <angle>
                    <activevideoangle>false</activevideoangle>
                    <activeaudioangle>false</activeaudioangle>
                    <clip id="clip-7"/>
                  </angle>
                  <masterclipid>clip-master</masterclipid>
                </multiclip>
              </clipitem>
              <clipitem id="cs-263">
                <duration>113</duration>
                <rate>
                  <ntsc>false</ntsc>
                  <timebase>25</timebase>
                </rate>
                <in>25998</in>
                <out>26110</out>
                <start>25998</start>
                <end>26110</end>
                <file id="src-3"/>
                <sourcetrack>
                  <mediatype>video</mediatype>
                  <trackindex>1</trackindex>
                </sourcetrack>
                <multiclip id="mcs-263">
                  <name>MCS-263</name>
                  <masterclipid>clip-master</masterclipid>
                  <collapsed>false</collapsed>
                  <angle>
                    <activevideoangle>false</activevideoangle>
                    <activeaudioangle>false</activeaudioangle>
                    <clip id="clip-1"/>
                  </angle>
                  <angle>
                    <activevideoangle>false</activevideoangle>
                    <activeaudioangle>false</activeaudioangle>
                    <clip id="clip-2"/>
                  </angle>
                  <angle>
                    <activevideoangle>true</activevideoangle>
                    <activeaudioangle>true</activeaudioangle>
                    <clip id="clip-3"/>
                  </angle>
                  <angle>
                    <activevideoangle>false</activevideoangle>
                    <activeaudioangle>false</activeaudioangle>
                    <clip id="clip-4"/>
                  </angle>
                  <angle>
                    <activevideoangle>false</activevideoangle>
                    <activeaudioangle>false</activeaudioangle>
                    <clip id="clip-5"/>
                  </angle>
                  <angle>
                    <activevideoangle>false</activevideoangle>
                    <activeaudioangle>false</activeaudioangle>
                    <clip id="clip-6"/>
                  </angle>
                  <angle>
                    <activevideoangle>false</activevideoangle>
                    <activeaudioangle>false</activeaudioangle>
                    <clip id="clip-7"/>
                  </angle>
                  <masterclipid>clip-master</masterclipid>
                </multiclip>
              </clipitem>
              <clipitem id="cs-264">
                <duration>133</duration>
                <rate>
                  <ntsc>false</ntsc>
                  <timebase>25</timebase>
                </rate>
                <in>26110</in>
                <out>26242</out>
                <start>26110</start>
                <end>26242</end>
                <file id="src-2"/>
                <sourcetrack>
                  <mediatype>video</mediatype>
                  <trackindex>1</trackindex>
                </sourcetrack>
                <multiclip id="mcs-264">
                  <name>MCS-264</name>
                  <masterclipid>clip-master</masterclipid>
                  <collapsed>false</collapsed>
                  <angle>
                    <activevideoangle>false</activevideoangle>
                    <activeaudioangle>false</activeaudioangle>
                    <clip id="clip-1"/>
                  </angle>
                  <angle>
                    <activevideoangle>true</activevideoangle>
                    <activeaudioangle>true</activeaudioangle>
                    <clip id="clip-2"/>
                  </angle>
                  <angle>
                    <activevideoangle>false</activevideoangle>
                    <activeaudioangle>false</activeaudioangle>
                    <clip id="clip-3"/>
                  </angle>
                  <angle>
                    <activevideoangle>false</activevideoangle>
                    <activeaudioangle>false</activeaudioangle>
                    <clip id="clip-4"/>
                  </angle>
                  <angle>
                    <activevideoangle>false</activevideoangle>
                    <activeaudioangle>false</activeaudioangle>
                    <clip id="clip-5"/>
                  </angle>
                  <angle>
                    <activevideoangle>false</activevideoangle>
                    <activeaudioangle>false</activeaudioangle>
                    <clip id="clip-6"/>
                  </angle>
                  <angle>
                    <activevideoangle>false</activevideoangle>
                    <activeaudioangle>false</activeaudioangle>
                    <clip id="clip-7"/>
                  </angle>
                  <masterclipid>clip-master</masterclipid>
                </multiclip>
              </clipitem>
              <clipitem id="cs-265">
                <duration>194</duration>
                <rate>
                  <ntsc>false</ntsc>
                  <timebase>25</timebase>
                </rate>
                <in>26242</in>
                <out>26435</out>
                <start>26242</start>
                <end>26435</end>
                <file id="src-4"/>
                <sourcetrack>
                  <mediatype>video</mediatype>
                  <trackindex>1</trackindex>
                </sourcetrack>
                <multiclip id="mcs-265">
                  <name>MCS-265</name>
                  <masterclipid>clip-master</masterclipid>
                  <collapsed>false</collapsed>
                  <angle>
                    <activevideoangle>false</activevideoangle>
                    <activeaudioangle>false</activeaudioangle>
                    <clip id="clip-1"/>
                  </angle>
                  <angle>
                    <activevideoangle>false</activevideoangle>
                    <activeaudioangle>false</activeaudioangle>
                    <clip id="clip-2"/>
                  </angle>
                  <angle>
                    <activevideoangle>false</activevideoangle>
                    <activeaudioangle>false</activeaudioangle>
                    <clip id="clip-3"/>
                  </angle>
                  <angle>
                    <activevideoangle>true</activevideoangle>
                    <activeaudioangle>true</activeaudioangle>
                    <clip id="clip-4"/>
                  </angle>
                  <angle>
                    <activevideoangle>false</activevideoangle>
                    <activeaudioangle>false</activeaudioangle>
                    <clip id="clip-5"/>
                  </angle>
                  <angle>
                    <activevideoangle>false</activevideoangle>
                    <activeaudioangle>false</activeaudioangle>
                    <clip id="clip-6"/>
                  </angle>
                  <angle>
                    <activevideoangle>false</activevideoangle>
                    <activeaudioangle>false</activeaudioangle>
                    <clip id="clip-7"/>
                  </angle>
                  <masterclipid>clip-master</masterclipid>
                </multiclip>
              </clipitem>
              <clipitem id="cs-266">
                <duration>100</duration>
                <rate>
                  <ntsc>false</ntsc>
                  <timebase>25</timebase>
                </rate>
                <in>26435</in>
                <out>26534</out>
                <start>26435</start>
                <end>26534</end>
                <file id="src-3"/>
                <sourcetrack>
                  <mediatype>video</mediatype>
                  <trackindex>1</trackindex>
                </sourcetrack>
                <multiclip id="mcs-266">
                  <name>MCS-266</name>
                  <masterclipid>clip-master</masterclipid>
                  <collapsed>false</collapsed>
                  <angle>
                    <activevideoangle>false</activevideoangle>
                    <activeaudioangle>false</activeaudioangle>
                    <clip id="clip-1"/>
                  </angle>
                  <angle>
                    <activevideoangle>false</activevideoangle>
                    <activeaudioangle>false</activeaudioangle>
                    <clip id="clip-2"/>
                  </angle>
                  <angle>
                    <activevideoangle>true</activevideoangle>
                    <activeaudioangle>true</activeaudioangle>
                    <clip id="clip-3"/>
                  </angle>
                  <angle>
                    <activevideoangle>false</activevideoangle>
                    <activeaudioangle>false</activeaudioangle>
                    <clip id="clip-4"/>
                  </angle>
                  <angle>
                    <activevideoangle>false</activevideoangle>
                    <activeaudioangle>false</activeaudioangle>
                    <clip id="clip-5"/>
                  </angle>
                  <angle>
                    <activevideoangle>false</activevideoangle>
                    <activeaudioangle>false</activeaudioangle>
                    <clip id="clip-6"/>
                  </angle>
                  <angle>
                    <activevideoangle>false</activevideoangle>
                    <activeaudioangle>false</activeaudioangle>
                    <clip id="clip-7"/>
                  </angle>
                  <masterclipid>clip-master</masterclipid>
                </multiclip>
              </clipitem>
              <clipitem id="cs-267">
                <duration>145</duration>
                <rate>
                  <ntsc>false</ntsc>
                  <timebase>25</timebase>
                </rate>
                <in>26534</in>
                <out>26678</out>
                <start>26534</start>
                <end>26678</end>
                <file id="src-2"/>
                <sourcetrack>
                  <mediatype>video</mediatype>
                  <trackindex>1</trackindex>
                </sourcetrack>
                <multiclip id="mcs-267">
                  <name>MCS-267</name>
                  <masterclipid>clip-master</masterclipid>
                  <collapsed>false</collapsed>
                  <angle>
                    <activevideoangle>false</activevideoangle>
                    <activeaudioangle>false</activeaudioangle>
                    <clip id="clip-1"/>
                  </angle>
                  <angle>
                    <activevideoangle>true</activevideoangle>
                    <activeaudioangle>true</activeaudioangle>
                    <clip id="clip-2"/>
                  </angle>
                  <angle>
                    <activevideoangle>false</activevideoangle>
                    <activeaudioangle>false</activeaudioangle>
                    <clip id="clip-3"/>
                  </angle>
                  <angle>
                    <activevideoangle>false</activevideoangle>
                    <activeaudioangle>false</activeaudioangle>
                    <clip id="clip-4"/>
                  </angle>
                  <angle>
                    <activevideoangle>false</activevideoangle>
                    <activeaudioangle>false</activeaudioangle>
                    <clip id="clip-5"/>
                  </angle>
                  <angle>
                    <activevideoangle>false</activevideoangle>
                    <activeaudioangle>false</activeaudioangle>
                    <clip id="clip-6"/>
                  </angle>
                  <angle>
                    <activevideoangle>false</activevideoangle>
                    <activeaudioangle>false</activeaudioangle>
                    <clip id="clip-7"/>
                  </angle>
                  <masterclipid>clip-master</masterclipid>
                </multiclip>
              </clipitem>
              <clipitem id="cs-268">
                <duration>85</duration>
                <rate>
                  <ntsc>false</ntsc>
                  <timebase>25</timebase>
                </rate>
                <in>26678</in>
                <out>26762</out>
                <start>26678</start>
                <end>26762</end>
                <file id="src-3"/>
                <sourcetrack>
                  <mediatype>video</mediatype>
                  <trackindex>1</trackindex>
                </sourcetrack>
                <multiclip id="mcs-268">
                  <name>MCS-268</name>
                  <masterclipid>clip-master</masterclipid>
                  <collapsed>false</collapsed>
                  <angle>
                    <activevideoangle>false</activevideoangle>
                    <activeaudioangle>false</activeaudioangle>
                    <clip id="clip-1"/>
                  </angle>
                  <angle>
                    <activevideoangle>false</activevideoangle>
                    <activeaudioangle>false</activeaudioangle>
                    <clip id="clip-2"/>
                  </angle>
                  <angle>
                    <activevideoangle>true</activevideoangle>
                    <activeaudioangle>true</activeaudioangle>
                    <clip id="clip-3"/>
                  </angle>
                  <angle>
                    <activevideoangle>false</activevideoangle>
                    <activeaudioangle>false</activeaudioangle>
                    <clip id="clip-4"/>
                  </angle>
                  <angle>
                    <activevideoangle>false</activevideoangle>
                    <activeaudioangle>false</activeaudioangle>
                    <clip id="clip-5"/>
                  </angle>
                  <angle>
                    <activevideoangle>false</activevideoangle>
                    <activeaudioangle>false</activeaudioangle>
                    <clip id="clip-6"/>
                  </angle>
                  <angle>
                    <activevideoangle>false</activevideoangle>
                    <activeaudioangle>false</activeaudioangle>
                    <clip id="clip-7"/>
                  </angle>
                  <masterclipid>clip-master</masterclipid>
                </multiclip>
              </clipitem>
              <clipitem id="cs-269">
                <duration>53</duration>
                <rate>
                  <ntsc>false</ntsc>
                  <timebase>25</timebase>
                </rate>
                <in>26762</in>
                <out>26814</out>
                <start>26762</start>
                <end>26814</end>
                <file id="src-2"/>
                <sourcetrack>
                  <mediatype>video</mediatype>
                  <trackindex>1</trackindex>
                </sourcetrack>
                <multiclip id="mcs-269">
                  <name>MCS-269</name>
                  <masterclipid>clip-master</masterclipid>
                  <collapsed>false</collapsed>
                  <angle>
                    <activevideoangle>false</activevideoangle>
                    <activeaudioangle>false</activeaudioangle>
                    <clip id="clip-1"/>
                  </angle>
                  <angle>
                    <activevideoangle>true</activevideoangle>
                    <activeaudioangle>true</activeaudioangle>
                    <clip id="clip-2"/>
                  </angle>
                  <angle>
                    <activevideoangle>false</activevideoangle>
                    <activeaudioangle>false</activeaudioangle>
                    <clip id="clip-3"/>
                  </angle>
                  <angle>
                    <activevideoangle>false</activevideoangle>
                    <activeaudioangle>false</activeaudioangle>
                    <clip id="clip-4"/>
                  </angle>
                  <angle>
                    <activevideoangle>false</activevideoangle>
                    <activeaudioangle>false</activeaudioangle>
                    <clip id="clip-5"/>
                  </angle>
                  <angle>
                    <activevideoangle>false</activevideoangle>
                    <activeaudioangle>false</activeaudioangle>
                    <clip id="clip-6"/>
                  </angle>
                  <angle>
                    <activevideoangle>false</activevideoangle>
                    <activeaudioangle>false</activeaudioangle>
                    <clip id="clip-7"/>
                  </angle>
                  <masterclipid>clip-master</masterclipid>
                </multiclip>
              </clipitem>
              <clipitem id="cs-270">
                <duration>47</duration>
                <rate>
                  <ntsc>false</ntsc>
                  <timebase>25</timebase>
                </rate>
                <in>26814</in>
                <out>26860</out>
                <start>26814</start>
                <end>26860</end>
                <file id="src-4"/>
                <sourcetrack>
                  <mediatype>video</mediatype>
                  <trackindex>1</trackindex>
                </sourcetrack>
                <multiclip id="mcs-270">
                  <name>MCS-270</name>
                  <masterclipid>clip-master</masterclipid>
                  <collapsed>false</collapsed>
                  <angle>
                    <activevideoangle>false</activevideoangle>
                    <activeaudioangle>false</activeaudioangle>
                    <clip id="clip-1"/>
                  </angle>
                  <angle>
                    <activevideoangle>false</activevideoangle>
                    <activeaudioangle>false</activeaudioangle>
                    <clip id="clip-2"/>
                  </angle>
                  <angle>
                    <activevideoangle>false</activevideoangle>
                    <activeaudioangle>false</activeaudioangle>
                    <clip id="clip-3"/>
                  </angle>
                  <angle>
                    <activevideoangle>true</activevideoangle>
                    <activeaudioangle>true</activeaudioangle>
                    <clip id="clip-4"/>
                  </angle>
                  <angle>
                    <activevideoangle>false</activevideoangle>
                    <activeaudioangle>false</activeaudioangle>
                    <clip id="clip-5"/>
                  </angle>
                  <angle>
                    <activevideoangle>false</activevideoangle>
                    <activeaudioangle>false</activeaudioangle>
                    <clip id="clip-6"/>
                  </angle>
                  <angle>
                    <activevideoangle>false</activevideoangle>
                    <activeaudioangle>false</activeaudioangle>
                    <clip id="clip-7"/>
                  </angle>
                  <masterclipid>clip-master</masterclipid>
                </multiclip>
              </clipitem>
              <clipitem id="cs-271">
                <duration>34</duration>
                <rate>
                  <ntsc>false</ntsc>
                  <timebase>25</timebase>
                </rate>
                <in>26860</in>
                <out>26893</out>
                <start>26860</start>
                <end>26893</end>
                <file id="src-5"/>
                <sourcetrack>
                  <mediatype>video</mediatype>
                  <trackindex>1</trackindex>
                </sourcetrack>
                <multiclip id="mcs-271">
                  <name>MCS-271</name>
                  <masterclipid>clip-master</masterclipid>
                  <collapsed>false</collapsed>
                  <angle>
                    <activevideoangle>false</activevideoangle>
                    <activeaudioangle>false</activeaudioangle>
                    <clip id="clip-1"/>
                  </angle>
                  <angle>
                    <activevideoangle>false</activevideoangle>
                    <activeaudioangle>false</activeaudioangle>
                    <clip id="clip-2"/>
                  </angle>
                  <angle>
                    <activevideoangle>false</activevideoangle>
                    <activeaudioangle>false</activeaudioangle>
                    <clip id="clip-3"/>
                  </angle>
                  <angle>
                    <activevideoangle>false</activevideoangle>
                    <activeaudioangle>false</activeaudioangle>
                    <clip id="clip-4"/>
                  </angle>
                  <angle>
                    <activevideoangle>true</activevideoangle>
                    <activeaudioangle>true</activeaudioangle>
                    <clip id="clip-5"/>
                  </angle>
                  <angle>
                    <activevideoangle>false</activevideoangle>
                    <activeaudioangle>false</activeaudioangle>
                    <clip id="clip-6"/>
                  </angle>
                  <angle>
                    <activevideoangle>false</activevideoangle>
                    <activeaudioangle>false</activeaudioangle>
                    <clip id="clip-7"/>
                  </angle>
                  <masterclipid>clip-master</masterclipid>
                </multiclip>
              </clipitem>
              <clipitem id="cs-272">
                <duration>45</duration>
                <rate>
                  <ntsc>false</ntsc>
                  <timebase>25</timebase>
                </rate>
                <in>26893</in>
                <out>26937</out>
                <start>26893</start>
                <end>26937</end>
                <file id="src-1"/>
                <sourcetrack>
                  <mediatype>video</mediatype>
                  <trackindex>1</trackindex>
                </sourcetrack>
                <multiclip id="mcs-272">
                  <name>MCS-272</name>
                  <masterclipid>clip-master</masterclipid>
                  <collapsed>false</collapsed>
                  <angle>
                    <activevideoangle>true</activevideoangle>
                    <activeaudioangle>true</activeaudioangle>
                    <clip id="clip-1"/>
                  </angle>
                  <angle>
                    <activevideoangle>false</activevideoangle>
                    <activeaudioangle>false</activeaudioangle>
                    <clip id="clip-2"/>
                  </angle>
                  <angle>
                    <activevideoangle>false</activevideoangle>
                    <activeaudioangle>false</activeaudioangle>
                    <clip id="clip-3"/>
                  </angle>
                  <angle>
                    <activevideoangle>false</activevideoangle>
                    <activeaudioangle>false</activeaudioangle>
                    <clip id="clip-4"/>
                  </angle>
                  <angle>
                    <activevideoangle>false</activevideoangle>
                    <activeaudioangle>false</activeaudioangle>
                    <clip id="clip-5"/>
                  </angle>
                  <angle>
                    <activevideoangle>false</activevideoangle>
                    <activeaudioangle>false</activeaudioangle>
                    <clip id="clip-6"/>
                  </angle>
                  <angle>
                    <activevideoangle>false</activevideoangle>
                    <activeaudioangle>false</activeaudioangle>
                    <clip id="clip-7"/>
                  </angle>
                  <masterclipid>clip-master</masterclipid>
                </multiclip>
              </clipitem>
              <clipitem id="cs-273">
                <duration>55</duration>
                <rate>
                  <ntsc>false</ntsc>
                  <timebase>25</timebase>
                </rate>
                <in>26937</in>
                <out>26991</out>
                <start>26937</start>
                <end>26991</end>
                <file id="src-3"/>
                <sourcetrack>
                  <mediatype>video</mediatype>
                  <trackindex>1</trackindex>
                </sourcetrack>
                <multiclip id="mcs-273">
                  <name>MCS-273</name>
                  <masterclipid>clip-master</masterclipid>
                  <collapsed>false</collapsed>
                  <angle>
                    <activevideoangle>false</activevideoangle>
                    <activeaudioangle>false</activeaudioangle>
                    <clip id="clip-1"/>
                  </angle>
                  <angle>
                    <activevideoangle>false</activevideoangle>
                    <activeaudioangle>false</activeaudioangle>
                    <clip id="clip-2"/>
                  </angle>
                  <angle>
                    <activevideoangle>true</activevideoangle>
                    <activeaudioangle>true</activeaudioangle>
                    <clip id="clip-3"/>
                  </angle>
                  <angle>
                    <activevideoangle>false</activevideoangle>
                    <activeaudioangle>false</activeaudioangle>
                    <clip id="clip-4"/>
                  </angle>
                  <angle>
                    <activevideoangle>false</activevideoangle>
                    <activeaudioangle>false</activeaudioangle>
                    <clip id="clip-5"/>
                  </angle>
                  <angle>
                    <activevideoangle>false</activevideoangle>
                    <activeaudioangle>false</activeaudioangle>
                    <clip id="clip-6"/>
                  </angle>
                  <angle>
                    <activevideoangle>false</activevideoangle>
                    <activeaudioangle>false</activeaudioangle>
                    <clip id="clip-7"/>
                  </angle>
                  <masterclipid>clip-master</masterclipid>
                </multiclip>
              </clipitem>
              <clipitem id="cs-274">
                <duration>57</duration>
                <rate>
                  <ntsc>false</ntsc>
                  <timebase>25</timebase>
                </rate>
                <in>26991</in>
                <out>27047</out>
                <start>26991</start>
                <end>27047</end>
                <file id="src-2"/>
                <sourcetrack>
                  <mediatype>video</mediatype>
                  <trackindex>1</trackindex>
                </sourcetrack>
                <multiclip id="mcs-274">
                  <name>MCS-274</name>
                  <masterclipid>clip-master</masterclipid>
                  <collapsed>false</collapsed>
                  <angle>
                    <activevideoangle>false</activevideoangle>
                    <activeaudioangle>false</activeaudioangle>
                    <clip id="clip-1"/>
                  </angle>
                  <angle>
                    <activevideoangle>true</activevideoangle>
                    <activeaudioangle>true</activeaudioangle>
                    <clip id="clip-2"/>
                  </angle>
                  <angle>
                    <activevideoangle>false</activevideoangle>
                    <activeaudioangle>false</activeaudioangle>
                    <clip id="clip-3"/>
                  </angle>
                  <angle>
                    <activevideoangle>false</activevideoangle>
                    <activeaudioangle>false</activeaudioangle>
                    <clip id="clip-4"/>
                  </angle>
                  <angle>
                    <activevideoangle>false</activevideoangle>
                    <activeaudioangle>false</activeaudioangle>
                    <clip id="clip-5"/>
                  </angle>
                  <angle>
                    <activevideoangle>false</activevideoangle>
                    <activeaudioangle>false</activeaudioangle>
                    <clip id="clip-6"/>
                  </angle>
                  <angle>
                    <activevideoangle>false</activevideoangle>
                    <activeaudioangle>false</activeaudioangle>
                    <clip id="clip-7"/>
                  </angle>
                  <masterclipid>clip-master</masterclipid>
                </multiclip>
              </clipitem>
              <clipitem id="cs-275">
                <duration>150</duration>
                <rate>
                  <ntsc>false</ntsc>
                  <timebase>25</timebase>
                </rate>
                <in>27047</in>
                <out>27196</out>
                <start>27047</start>
                <end>27196</end>
                <file id="src-4"/>
                <sourcetrack>
                  <mediatype>video</mediatype>
                  <trackindex>1</trackindex>
                </sourcetrack>
                <multiclip id="mcs-275">
                  <name>MCS-275</name>
                  <masterclipid>clip-master</masterclipid>
                  <collapsed>false</collapsed>
                  <angle>
                    <activevideoangle>false</activevideoangle>
                    <activeaudioangle>false</activeaudioangle>
                    <clip id="clip-1"/>
                  </angle>
                  <angle>
                    <activevideoangle>false</activevideoangle>
                    <activeaudioangle>false</activeaudioangle>
                    <clip id="clip-2"/>
                  </angle>
                  <angle>
                    <activevideoangle>false</activevideoangle>
                    <activeaudioangle>false</activeaudioangle>
                    <clip id="clip-3"/>
                  </angle>
                  <angle>
                    <activevideoangle>true</activevideoangle>
                    <activeaudioangle>true</activeaudioangle>
                    <clip id="clip-4"/>
                  </angle>
                  <angle>
                    <activevideoangle>false</activevideoangle>
                    <activeaudioangle>false</activeaudioangle>
                    <clip id="clip-5"/>
                  </angle>
                  <angle>
                    <activevideoangle>false</activevideoangle>
                    <activeaudioangle>false</activeaudioangle>
                    <clip id="clip-6"/>
                  </angle>
                  <angle>
                    <activevideoangle>false</activevideoangle>
                    <activeaudioangle>false</activeaudioangle>
                    <clip id="clip-7"/>
                  </angle>
                  <masterclipid>clip-master</masterclipid>
                </multiclip>
              </clipitem>
              <clipitem id="cs-276">
                <duration>97</duration>
                <rate>
                  <ntsc>false</ntsc>
                  <timebase>25</timebase>
                </rate>
                <in>27196</in>
                <out>27292</out>
                <start>27196</start>
                <end>27292</end>
                <file id="src-2"/>
                <sourcetrack>
                  <mediatype>video</mediatype>
                  <trackindex>1</trackindex>
                </sourcetrack>
                <multiclip id="mcs-276">
                  <name>MCS-276</name>
                  <masterclipid>clip-master</masterclipid>
                  <collapsed>false</collapsed>
                  <angle>
                    <activevideoangle>false</activevideoangle>
                    <activeaudioangle>false</activeaudioangle>
                    <clip id="clip-1"/>
                  </angle>
                  <angle>
                    <activevideoangle>true</activevideoangle>
                    <activeaudioangle>true</activeaudioangle>
                    <clip id="clip-2"/>
                  </angle>
                  <angle>
                    <activevideoangle>false</activevideoangle>
                    <activeaudioangle>false</activeaudioangle>
                    <clip id="clip-3"/>
                  </angle>
                  <angle>
                    <activevideoangle>false</activevideoangle>
                    <activeaudioangle>false</activeaudioangle>
                    <clip id="clip-4"/>
                  </angle>
                  <angle>
                    <activevideoangle>false</activevideoangle>
                    <activeaudioangle>false</activeaudioangle>
                    <clip id="clip-5"/>
                  </angle>
                  <angle>
                    <activevideoangle>false</activevideoangle>
                    <activeaudioangle>false</activeaudioangle>
                    <clip id="clip-6"/>
                  </angle>
                  <angle>
                    <activevideoangle>false</activevideoangle>
                    <activeaudioangle>false</activeaudioangle>
                    <clip id="clip-7"/>
                  </angle>
                  <masterclipid>clip-master</masterclipid>
                </multiclip>
              </clipitem>
              <clipitem id="cs-277">
                <duration>83</duration>
                <rate>
                  <ntsc>false</ntsc>
                  <timebase>25</timebase>
                </rate>
                <in>27292</in>
                <out>27374</out>
                <start>27292</start>
                <end>27374</end>
                <file id="src-6"/>
                <sourcetrack>
                  <mediatype>video</mediatype>
                  <trackindex>1</trackindex>
                </sourcetrack>
                <multiclip id="mcs-277">
                  <name>MCS-277</name>
                  <masterclipid>clip-master</masterclipid>
                  <collapsed>false</collapsed>
                  <angle>
                    <activevideoangle>false</activevideoangle>
                    <activeaudioangle>false</activeaudioangle>
                    <clip id="clip-1"/>
                  </angle>
                  <angle>
                    <activevideoangle>false</activevideoangle>
                    <activeaudioangle>false</activeaudioangle>
                    <clip id="clip-2"/>
                  </angle>
                  <angle>
                    <activevideoangle>false</activevideoangle>
                    <activeaudioangle>false</activeaudioangle>
                    <clip id="clip-3"/>
                  </angle>
                  <angle>
                    <activevideoangle>false</activevideoangle>
                    <activeaudioangle>false</activeaudioangle>
                    <clip id="clip-4"/>
                  </angle>
                  <angle>
                    <activevideoangle>false</activevideoangle>
                    <activeaudioangle>false</activeaudioangle>
                    <clip id="clip-5"/>
                  </angle>
                  <angle>
                    <activevideoangle>true</activevideoangle>
                    <activeaudioangle>true</activeaudioangle>
                    <clip id="clip-6"/>
                  </angle>
                  <angle>
                    <activevideoangle>false</activevideoangle>
                    <activeaudioangle>false</activeaudioangle>
                    <clip id="clip-7"/>
                  </angle>
                  <masterclipid>clip-master</masterclipid>
                </multiclip>
              </clipitem>
              <clipitem id="cs-278">
                <duration>57</duration>
                <rate>
                  <ntsc>false</ntsc>
                  <timebase>25</timebase>
                </rate>
                <in>27374</in>
                <out>27430</out>
                <start>27374</start>
                <end>27430</end>
                <file id="src-3"/>
                <sourcetrack>
                  <mediatype>video</mediatype>
                  <trackindex>1</trackindex>
                </sourcetrack>
                <multiclip id="mcs-278">
                  <name>MCS-278</name>
                  <masterclipid>clip-master</masterclipid>
                  <collapsed>false</collapsed>
                  <angle>
                    <activevideoangle>false</activevideoangle>
                    <activeaudioangle>false</activeaudioangle>
                    <clip id="clip-1"/>
                  </angle>
                  <angle>
                    <activevideoangle>false</activevideoangle>
                    <activeaudioangle>false</activeaudioangle>
                    <clip id="clip-2"/>
                  </angle>
                  <angle>
                    <activevideoangle>true</activevideoangle>
                    <activeaudioangle>true</activeaudioangle>
                    <clip id="clip-3"/>
                  </angle>
                  <angle>
                    <activevideoangle>false</activevideoangle>
                    <activeaudioangle>false</activeaudioangle>
                    <clip id="clip-4"/>
                  </angle>
                  <angle>
                    <activevideoangle>false</activevideoangle>
                    <activeaudioangle>false</activeaudioangle>
                    <clip id="clip-5"/>
                  </angle>
                  <angle>
                    <activevideoangle>false</activevideoangle>
                    <activeaudioangle>false</activeaudioangle>
                    <clip id="clip-6"/>
                  </angle>
                  <angle>
                    <activevideoangle>false</activevideoangle>
                    <activeaudioangle>false</activeaudioangle>
                    <clip id="clip-7"/>
                  </angle>
                  <masterclipid>clip-master</masterclipid>
                </multiclip>
              </clipitem>
              <clipitem id="cs-279">
                <duration>117</duration>
                <rate>
                  <ntsc>false</ntsc>
                  <timebase>25</timebase>
                </rate>
                <in>27430</in>
                <out>27546</out>
                <start>27430</start>
                <end>27546</end>
                <file id="src-2"/>
                <sourcetrack>
                  <mediatype>video</mediatype>
                  <trackindex>1</trackindex>
                </sourcetrack>
                <multiclip id="mcs-279">
                  <name>MCS-279</name>
                  <masterclipid>clip-master</masterclipid>
                  <collapsed>false</collapsed>
                  <angle>
                    <activevideoangle>false</activevideoangle>
                    <activeaudioangle>false</activeaudioangle>
                    <clip id="clip-1"/>
                  </angle>
                  <angle>
                    <activevideoangle>true</activevideoangle>
                    <activeaudioangle>true</activeaudioangle>
                    <clip id="clip-2"/>
                  </angle>
                  <angle>
                    <activevideoangle>false</activevideoangle>
                    <activeaudioangle>false</activeaudioangle>
                    <clip id="clip-3"/>
                  </angle>
                  <angle>
                    <activevideoangle>false</activevideoangle>
                    <activeaudioangle>false</activeaudioangle>
                    <clip id="clip-4"/>
                  </angle>
                  <angle>
                    <activevideoangle>false</activevideoangle>
                    <activeaudioangle>false</activeaudioangle>
                    <clip id="clip-5"/>
                  </angle>
                  <angle>
                    <activevideoangle>false</activevideoangle>
                    <activeaudioangle>false</activeaudioangle>
                    <clip id="clip-6"/>
                  </angle>
                  <angle>
                    <activevideoangle>false</activevideoangle>
                    <activeaudioangle>false</activeaudioangle>
                    <clip id="clip-7"/>
                  </angle>
                  <masterclipid>clip-master</masterclipid>
                </multiclip>
              </clipitem>
              <clipitem id="cs-280">
                <duration>87</duration>
                <rate>
                  <ntsc>false</ntsc>
                  <timebase>25</timebase>
                </rate>
                <in>27546</in>
                <out>27632</out>
                <start>27546</start>
                <end>27632</end>
                <file id="src-4"/>
                <sourcetrack>
                  <mediatype>video</mediatype>
                  <trackindex>1</trackindex>
                </sourcetrack>
                <multiclip id="mcs-280">
                  <name>MCS-280</name>
                  <masterclipid>clip-master</masterclipid>
                  <collapsed>false</collapsed>
                  <angle>
                    <activevideoangle>false</activevideoangle>
                    <activeaudioangle>false</activeaudioangle>
                    <clip id="clip-1"/>
                  </angle>
                  <angle>
                    <activevideoangle>false</activevideoangle>
                    <activeaudioangle>false</activeaudioangle>
                    <clip id="clip-2"/>
                  </angle>
                  <angle>
                    <activevideoangle>false</activevideoangle>
                    <activeaudioangle>false</activeaudioangle>
                    <clip id="clip-3"/>
                  </angle>
                  <angle>
                    <activevideoangle>true</activevideoangle>
                    <activeaudioangle>true</activeaudioangle>
                    <clip id="clip-4"/>
                  </angle>
                  <angle>
                    <activevideoangle>false</activevideoangle>
                    <activeaudioangle>false</activeaudioangle>
                    <clip id="clip-5"/>
                  </angle>
                  <angle>
                    <activevideoangle>false</activevideoangle>
                    <activeaudioangle>false</activeaudioangle>
                    <clip id="clip-6"/>
                  </angle>
                  <angle>
                    <activevideoangle>false</activevideoangle>
                    <activeaudioangle>false</activeaudioangle>
                    <clip id="clip-7"/>
                  </angle>
                  <masterclipid>clip-master</masterclipid>
                </multiclip>
              </clipitem>
              <clipitem id="cs-281">
                <duration>158</duration>
                <rate>
                  <ntsc>false</ntsc>
                  <timebase>25</timebase>
                </rate>
                <in>27632</in>
                <out>27789</out>
                <start>27632</start>
                <end>27789</end>
                <file id="src-2"/>
                <sourcetrack>
                  <mediatype>video</mediatype>
                  <trackindex>1</trackindex>
                </sourcetrack>
                <multiclip id="mcs-281">
                  <name>MCS-281</name>
                  <masterclipid>clip-master</masterclipid>
                  <collapsed>false</collapsed>
                  <angle>
                    <activevideoangle>false</activevideoangle>
                    <activeaudioangle>false</activeaudioangle>
                    <clip id="clip-1"/>
                  </angle>
                  <angle>
                    <activevideoangle>true</activevideoangle>
                    <activeaudioangle>true</activeaudioangle>
                    <clip id="clip-2"/>
                  </angle>
                  <angle>
                    <activevideoangle>false</activevideoangle>
                    <activeaudioangle>false</activeaudioangle>
                    <clip id="clip-3"/>
                  </angle>
                  <angle>
                    <activevideoangle>false</activevideoangle>
                    <activeaudioangle>false</activeaudioangle>
                    <clip id="clip-4"/>
                  </angle>
                  <angle>
                    <activevideoangle>false</activevideoangle>
                    <activeaudioangle>false</activeaudioangle>
                    <clip id="clip-5"/>
                  </angle>
                  <angle>
                    <activevideoangle>false</activevideoangle>
                    <activeaudioangle>false</activeaudioangle>
                    <clip id="clip-6"/>
                  </angle>
                  <angle>
                    <activevideoangle>false</activevideoangle>
                    <activeaudioangle>false</activeaudioangle>
                    <clip id="clip-7"/>
                  </angle>
                  <masterclipid>clip-master</masterclipid>
                </multiclip>
              </clipitem>
              <clipitem id="cs-282">
                <duration>49</duration>
                <rate>
                  <ntsc>false</ntsc>
                  <timebase>25</timebase>
                </rate>
                <in>27789</in>
                <out>27837</out>
                <start>27789</start>
                <end>27837</end>
                <file id="src-4"/>
                <sourcetrack>
                  <mediatype>video</mediatype>
                  <trackindex>1</trackindex>
                </sourcetrack>
                <multiclip id="mcs-282">
                  <name>MCS-282</name>
                  <masterclipid>clip-master</masterclipid>
                  <collapsed>false</collapsed>
                  <angle>
                    <activevideoangle>false</activevideoangle>
                    <activeaudioangle>false</activeaudioangle>
                    <clip id="clip-1"/>
                  </angle>
                  <angle>
                    <activevideoangle>false</activevideoangle>
                    <activeaudioangle>false</activeaudioangle>
                    <clip id="clip-2"/>
                  </angle>
                  <angle>
                    <activevideoangle>false</activevideoangle>
                    <activeaudioangle>false</activeaudioangle>
                    <clip id="clip-3"/>
                  </angle>
                  <angle>
                    <activevideoangle>true</activevideoangle>
                    <activeaudioangle>true</activeaudioangle>
                    <clip id="clip-4"/>
                  </angle>
                  <angle>
                    <activevideoangle>false</activevideoangle>
                    <activeaudioangle>false</activeaudioangle>
                    <clip id="clip-5"/>
                  </angle>
                  <angle>
                    <activevideoangle>false</activevideoangle>
                    <activeaudioangle>false</activeaudioangle>
                    <clip id="clip-6"/>
                  </angle>
                  <angle>
                    <activevideoangle>false</activevideoangle>
                    <activeaudioangle>false</activeaudioangle>
                    <clip id="clip-7"/>
                  </angle>
                  <masterclipid>clip-master</masterclipid>
                </multiclip>
              </clipitem>
              <clipitem id="cs-283">
                <duration>50</duration>
                <rate>
                  <ntsc>false</ntsc>
                  <timebase>25</timebase>
                </rate>
                <in>27837</in>
                <out>27886</out>
                <start>27837</start>
                <end>27886</end>
                <file id="src-1"/>
                <sourcetrack>
                  <mediatype>video</mediatype>
                  <trackindex>1</trackindex>
                </sourcetrack>
                <multiclip id="mcs-283">
                  <name>MCS-283</name>
                  <masterclipid>clip-master</masterclipid>
                  <collapsed>false</collapsed>
                  <angle>
                    <activevideoangle>true</activevideoangle>
                    <activeaudioangle>true</activeaudioangle>
                    <clip id="clip-1"/>
                  </angle>
                  <angle>
                    <activevideoangle>false</activevideoangle>
                    <activeaudioangle>false</activeaudioangle>
                    <clip id="clip-2"/>
                  </angle>
                  <angle>
                    <activevideoangle>false</activevideoangle>
                    <activeaudioangle>false</activeaudioangle>
                    <clip id="clip-3"/>
                  </angle>
                  <angle>
                    <activevideoangle>false</activevideoangle>
                    <activeaudioangle>false</activeaudioangle>
                    <clip id="clip-4"/>
                  </angle>
                  <angle>
                    <activevideoangle>false</activevideoangle>
                    <activeaudioangle>false</activeaudioangle>
                    <clip id="clip-5"/>
                  </angle>
                  <angle>
                    <activevideoangle>false</activevideoangle>
                    <activeaudioangle>false</activeaudioangle>
                    <clip id="clip-6"/>
                  </angle>
                  <angle>
                    <activevideoangle>false</activevideoangle>
                    <activeaudioangle>false</activeaudioangle>
                    <clip id="clip-7"/>
                  </angle>
                  <masterclipid>clip-master</masterclipid>
                </multiclip>
              </clipitem>
              <clipitem id="cs-284">
                <duration>133</duration>
                <rate>
                  <ntsc>false</ntsc>
                  <timebase>25</timebase>
                </rate>
                <in>27886</in>
                <out>28018</out>
                <start>27886</start>
                <end>28018</end>
                <file id="src-3"/>
                <sourcetrack>
                  <mediatype>video</mediatype>
                  <trackindex>1</trackindex>
                </sourcetrack>
                <multiclip id="mcs-284">
                  <name>MCS-284</name>
                  <masterclipid>clip-master</masterclipid>
                  <collapsed>false</collapsed>
                  <angle>
                    <activevideoangle>false</activevideoangle>
                    <activeaudioangle>false</activeaudioangle>
                    <clip id="clip-1"/>
                  </angle>
                  <angle>
                    <activevideoangle>false</activevideoangle>
                    <activeaudioangle>false</activeaudioangle>
                    <clip id="clip-2"/>
                  </angle>
                  <angle>
                    <activevideoangle>true</activevideoangle>
                    <activeaudioangle>true</activeaudioangle>
                    <clip id="clip-3"/>
                  </angle>
                  <angle>
                    <activevideoangle>false</activevideoangle>
                    <activeaudioangle>false</activeaudioangle>
                    <clip id="clip-4"/>
                  </angle>
                  <angle>
                    <activevideoangle>false</activevideoangle>
                    <activeaudioangle>false</activeaudioangle>
                    <clip id="clip-5"/>
                  </angle>
                  <angle>
                    <activevideoangle>false</activevideoangle>
                    <activeaudioangle>false</activeaudioangle>
                    <clip id="clip-6"/>
                  </angle>
                  <angle>
                    <activevideoangle>false</activevideoangle>
                    <activeaudioangle>false</activeaudioangle>
                    <clip id="clip-7"/>
                  </angle>
                  <masterclipid>clip-master</masterclipid>
                </multiclip>
              </clipitem>
              <clipitem id="cs-285">
                <duration>50</duration>
                <rate>
                  <ntsc>false</ntsc>
                  <timebase>25</timebase>
                </rate>
                <in>28018</in>
                <out>28067</out>
                <start>28018</start>
                <end>28067</end>
                <file id="src-6"/>
                <sourcetrack>
                  <mediatype>video</mediatype>
                  <trackindex>1</trackindex>
                </sourcetrack>
                <multiclip id="mcs-285">
                  <name>MCS-285</name>
                  <masterclipid>clip-master</masterclipid>
                  <collapsed>false</collapsed>
                  <angle>
                    <activevideoangle>false</activevideoangle>
                    <activeaudioangle>false</activeaudioangle>
                    <clip id="clip-1"/>
                  </angle>
                  <angle>
                    <activevideoangle>false</activevideoangle>
                    <activeaudioangle>false</activeaudioangle>
                    <clip id="clip-2"/>
                  </angle>
                  <angle>
                    <activevideoangle>false</activevideoangle>
                    <activeaudioangle>false</activeaudioangle>
                    <clip id="clip-3"/>
                  </angle>
                  <angle>
                    <activevideoangle>false</activevideoangle>
                    <activeaudioangle>false</activeaudioangle>
                    <clip id="clip-4"/>
                  </angle>
                  <angle>
                    <activevideoangle>false</activevideoangle>
                    <activeaudioangle>false</activeaudioangle>
                    <clip id="clip-5"/>
                  </angle>
                  <angle>
                    <activevideoangle>true</activevideoangle>
                    <activeaudioangle>true</activeaudioangle>
                    <clip id="clip-6"/>
                  </angle>
                  <angle>
                    <activevideoangle>false</activevideoangle>
                    <activeaudioangle>false</activeaudioangle>
                    <clip id="clip-7"/>
                  </angle>
                  <masterclipid>clip-master</masterclipid>
                </multiclip>
              </clipitem>
              <clipitem id="cs-286">
                <duration>77</duration>
                <rate>
                  <ntsc>false</ntsc>
                  <timebase>25</timebase>
                </rate>
                <in>28067</in>
                <out>28143</out>
                <start>28067</start>
                <end>28143</end>
                <file id="src-1"/>
                <sourcetrack>
                  <mediatype>video</mediatype>
                  <trackindex>1</trackindex>
                </sourcetrack>
                <multiclip id="mcs-286">
                  <name>MCS-286</name>
                  <masterclipid>clip-master</masterclipid>
                  <collapsed>false</collapsed>
                  <angle>
                    <activevideoangle>true</activevideoangle>
                    <activeaudioangle>true</activeaudioangle>
                    <clip id="clip-1"/>
                  </angle>
                  <angle>
                    <activevideoangle>false</activevideoangle>
                    <activeaudioangle>false</activeaudioangle>
                    <clip id="clip-2"/>
                  </angle>
                  <angle>
                    <activevideoangle>false</activevideoangle>
                    <activeaudioangle>false</activeaudioangle>
                    <clip id="clip-3"/>
                  </angle>
                  <angle>
                    <activevideoangle>false</activevideoangle>
                    <activeaudioangle>false</activeaudioangle>
                    <clip id="clip-4"/>
                  </angle>
                  <angle>
                    <activevideoangle>false</activevideoangle>
                    <activeaudioangle>false</activeaudioangle>
                    <clip id="clip-5"/>
                  </angle>
                  <angle>
                    <activevideoangle>false</activevideoangle>
                    <activeaudioangle>false</activeaudioangle>
                    <clip id="clip-6"/>
                  </angle>
                  <angle>
                    <activevideoangle>false</activevideoangle>
                    <activeaudioangle>false</activeaudioangle>
                    <clip id="clip-7"/>
                  </angle>
                  <masterclipid>clip-master</masterclipid>
                </multiclip>
              </clipitem>
              <clipitem id="cs-287">
                <duration>55</duration>
                <rate>
                  <ntsc>false</ntsc>
                  <timebase>25</timebase>
                </rate>
                <in>28143</in>
                <out>28197</out>
                <start>28143</start>
                <end>28197</end>
                <file id="src-2"/>
                <sourcetrack>
                  <mediatype>video</mediatype>
                  <trackindex>1</trackindex>
                </sourcetrack>
                <multiclip id="mcs-287">
                  <name>MCS-287</name>
                  <masterclipid>clip-master</masterclipid>
                  <collapsed>false</collapsed>
                  <angle>
                    <activevideoangle>false</activevideoangle>
                    <activeaudioangle>false</activeaudioangle>
                    <clip id="clip-1"/>
                  </angle>
                  <angle>
                    <activevideoangle>true</activevideoangle>
                    <activeaudioangle>true</activeaudioangle>
                    <clip id="clip-2"/>
                  </angle>
                  <angle>
                    <activevideoangle>false</activevideoangle>
                    <activeaudioangle>false</activeaudioangle>
                    <clip id="clip-3"/>
                  </angle>
                  <angle>
                    <activevideoangle>false</activevideoangle>
                    <activeaudioangle>false</activeaudioangle>
                    <clip id="clip-4"/>
                  </angle>
                  <angle>
                    <activevideoangle>false</activevideoangle>
                    <activeaudioangle>false</activeaudioangle>
                    <clip id="clip-5"/>
                  </angle>
                  <angle>
                    <activevideoangle>false</activevideoangle>
                    <activeaudioangle>false</activeaudioangle>
                    <clip id="clip-6"/>
                  </angle>
                  <angle>
                    <activevideoangle>false</activevideoangle>
                    <activeaudioangle>false</activeaudioangle>
                    <clip id="clip-7"/>
                  </angle>
                  <masterclipid>clip-master</masterclipid>
                </multiclip>
              </clipitem>
              <clipitem id="cs-288">
                <duration>87</duration>
                <rate>
                  <ntsc>false</ntsc>
                  <timebase>25</timebase>
                </rate>
                <in>28197</in>
                <out>28283</out>
                <start>28197</start>
                <end>28283</end>
                <file id="src-3"/>
                <sourcetrack>
                  <mediatype>video</mediatype>
                  <trackindex>1</trackindex>
                </sourcetrack>
                <multiclip id="mcs-288">
                  <name>MCS-288</name>
                  <masterclipid>clip-master</masterclipid>
                  <collapsed>false</collapsed>
                  <angle>
                    <activevideoangle>false</activevideoangle>
                    <activeaudioangle>false</activeaudioangle>
                    <clip id="clip-1"/>
                  </angle>
                  <angle>
                    <activevideoangle>false</activevideoangle>
                    <activeaudioangle>false</activeaudioangle>
                    <clip id="clip-2"/>
                  </angle>
                  <angle>
                    <activevideoangle>true</activevideoangle>
                    <activeaudioangle>true</activeaudioangle>
                    <clip id="clip-3"/>
                  </angle>
                  <angle>
                    <activevideoangle>false</activevideoangle>
                    <activeaudioangle>false</activeaudioangle>
                    <clip id="clip-4"/>
                  </angle>
                  <angle>
                    <activevideoangle>false</activevideoangle>
                    <activeaudioangle>false</activeaudioangle>
                    <clip id="clip-5"/>
                  </angle>
                  <angle>
                    <activevideoangle>false</activevideoangle>
                    <activeaudioangle>false</activeaudioangle>
                    <clip id="clip-6"/>
                  </angle>
                  <angle>
                    <activevideoangle>false</activevideoangle>
                    <activeaudioangle>false</activeaudioangle>
                    <clip id="clip-7"/>
                  </angle>
                  <masterclipid>clip-master</masterclipid>
                </multiclip>
              </clipitem>
              <clipitem id="cs-289">
                <duration>35</duration>
                <rate>
                  <ntsc>false</ntsc>
                  <timebase>25</timebase>
                </rate>
                <in>28283</in>
                <out>28317</out>
                <start>28283</start>
                <end>28317</end>
                <file id="src-4"/>
                <sourcetrack>
                  <mediatype>video</mediatype>
                  <trackindex>1</trackindex>
                </sourcetrack>
                <multiclip id="mcs-289">
                  <name>MCS-289</name>
                  <masterclipid>clip-master</masterclipid>
                  <collapsed>false</collapsed>
                  <angle>
                    <activevideoangle>false</activevideoangle>
                    <activeaudioangle>false</activeaudioangle>
                    <clip id="clip-1"/>
                  </angle>
                  <angle>
                    <activevideoangle>false</activevideoangle>
                    <activeaudioangle>false</activeaudioangle>
                    <clip id="clip-2"/>
                  </angle>
                  <angle>
                    <activevideoangle>false</activevideoangle>
                    <activeaudioangle>false</activeaudioangle>
                    <clip id="clip-3"/>
                  </angle>
                  <angle>
                    <activevideoangle>true</activevideoangle>
                    <activeaudioangle>true</activeaudioangle>
                    <clip id="clip-4"/>
                  </angle>
                  <angle>
                    <activevideoangle>false</activevideoangle>
                    <activeaudioangle>false</activeaudioangle>
                    <clip id="clip-5"/>
                  </angle>
                  <angle>
                    <activevideoangle>false</activevideoangle>
                    <activeaudioangle>false</activeaudioangle>
                    <clip id="clip-6"/>
                  </angle>
                  <angle>
                    <activevideoangle>false</activevideoangle>
                    <activeaudioangle>false</activeaudioangle>
                    <clip id="clip-7"/>
                  </angle>
                  <masterclipid>clip-master</masterclipid>
                </multiclip>
              </clipitem>
              <clipitem id="cs-290">
                <duration>173</duration>
                <rate>
                  <ntsc>false</ntsc>
                  <timebase>25</timebase>
                </rate>
                <in>28317</in>
                <out>28489</out>
                <start>28317</start>
                <end>28489</end>
                <file id="src-1"/>
                <sourcetrack>
                  <mediatype>video</mediatype>
                  <trackindex>1</trackindex>
                </sourcetrack>
                <multiclip id="mcs-290">
                  <name>MCS-290</name>
                  <masterclipid>clip-master</masterclipid>
                  <collapsed>false</collapsed>
                  <angle>
                    <activevideoangle>true</activevideoangle>
                    <activeaudioangle>true</activeaudioangle>
                    <clip id="clip-1"/>
                  </angle>
                  <angle>
                    <activevideoangle>false</activevideoangle>
                    <activeaudioangle>false</activeaudioangle>
                    <clip id="clip-2"/>
                  </angle>
                  <angle>
                    <activevideoangle>false</activevideoangle>
                    <activeaudioangle>false</activeaudioangle>
                    <clip id="clip-3"/>
                  </angle>
                  <angle>
                    <activevideoangle>false</activevideoangle>
                    <activeaudioangle>false</activeaudioangle>
                    <clip id="clip-4"/>
                  </angle>
                  <angle>
                    <activevideoangle>false</activevideoangle>
                    <activeaudioangle>false</activeaudioangle>
                    <clip id="clip-5"/>
                  </angle>
                  <angle>
                    <activevideoangle>false</activevideoangle>
                    <activeaudioangle>false</activeaudioangle>
                    <clip id="clip-6"/>
                  </angle>
                  <angle>
                    <activevideoangle>false</activevideoangle>
                    <activeaudioangle>false</activeaudioangle>
                    <clip id="clip-7"/>
                  </angle>
                  <masterclipid>clip-master</masterclipid>
                </multiclip>
              </clipitem>
              <clipitem id="cs-291">
                <duration>416</duration>
                <rate>
                  <ntsc>false</ntsc>
                  <timebase>25</timebase>
                </rate>
                <in>28489</in>
                <out>28904</out>
                <start>28489</start>
                <end>28904</end>
                <file id="src-2"/>
                <sourcetrack>
                  <mediatype>video</mediatype>
                  <trackindex>1</trackindex>
                </sourcetrack>
                <multiclip id="mcs-291">
                  <name>MCS-291</name>
                  <masterclipid>clip-master</masterclipid>
                  <collapsed>false</collapsed>
                  <angle>
                    <activevideoangle>false</activevideoangle>
                    <activeaudioangle>false</activeaudioangle>
                    <clip id="clip-1"/>
                  </angle>
                  <angle>
                    <activevideoangle>true</activevideoangle>
                    <activeaudioangle>true</activeaudioangle>
                    <clip id="clip-2"/>
                  </angle>
                  <angle>
                    <activevideoangle>false</activevideoangle>
                    <activeaudioangle>false</activeaudioangle>
                    <clip id="clip-3"/>
                  </angle>
                  <angle>
                    <activevideoangle>false</activevideoangle>
                    <activeaudioangle>false</activeaudioangle>
                    <clip id="clip-4"/>
                  </angle>
                  <angle>
                    <activevideoangle>false</activevideoangle>
                    <activeaudioangle>false</activeaudioangle>
                    <clip id="clip-5"/>
                  </angle>
                  <angle>
                    <activevideoangle>false</activevideoangle>
                    <activeaudioangle>false</activeaudioangle>
                    <clip id="clip-6"/>
                  </angle>
                  <angle>
                    <activevideoangle>false</activevideoangle>
                    <activeaudioangle>false</activeaudioangle>
                    <clip id="clip-7"/>
                  </angle>
                  <masterclipid>clip-master</masterclipid>
                </multiclip>
              </clipitem>
              <clipitem id="cs-292">
                <duration>166</duration>
                <rate>
                  <ntsc>false</ntsc>
                  <timebase>25</timebase>
                </rate>
                <in>28904</in>
                <out>29069</out>
                <start>28904</start>
                <end>29069</end>
                <file id="src-4"/>
                <sourcetrack>
                  <mediatype>video</mediatype>
                  <trackindex>1</trackindex>
                </sourcetrack>
                <multiclip id="mcs-292">
                  <name>MCS-292</name>
                  <masterclipid>clip-master</masterclipid>
                  <collapsed>false</collapsed>
                  <angle>
                    <activevideoangle>false</activevideoangle>
                    <activeaudioangle>false</activeaudioangle>
                    <clip id="clip-1"/>
                  </angle>
                  <angle>
                    <activevideoangle>false</activevideoangle>
                    <activeaudioangle>false</activeaudioangle>
                    <clip id="clip-2"/>
                  </angle>
                  <angle>
                    <activevideoangle>false</activevideoangle>
                    <activeaudioangle>false</activeaudioangle>
                    <clip id="clip-3"/>
                  </angle>
                  <angle>
                    <activevideoangle>true</activevideoangle>
                    <activeaudioangle>true</activeaudioangle>
                    <clip id="clip-4"/>
                  </angle>
                  <angle>
                    <activevideoangle>false</activevideoangle>
                    <activeaudioangle>false</activeaudioangle>
                    <clip id="clip-5"/>
                  </angle>
                  <angle>
                    <activevideoangle>false</activevideoangle>
                    <activeaudioangle>false</activeaudioangle>
                    <clip id="clip-6"/>
                  </angle>
                  <angle>
                    <activevideoangle>false</activevideoangle>
                    <activeaudioangle>false</activeaudioangle>
                    <clip id="clip-7"/>
                  </angle>
                  <masterclipid>clip-master</masterclipid>
                </multiclip>
              </clipitem>
              <clipitem id="cs-293">
                <duration>161</duration>
                <rate>
                  <ntsc>false</ntsc>
                  <timebase>25</timebase>
                </rate>
                <in>29069</in>
                <out>29229</out>
                <start>29069</start>
                <end>29229</end>
                <file id="src-2"/>
                <sourcetrack>
                  <mediatype>video</mediatype>
                  <trackindex>1</trackindex>
                </sourcetrack>
                <multiclip id="mcs-293">
                  <name>MCS-293</name>
                  <masterclipid>clip-master</masterclipid>
                  <collapsed>false</collapsed>
                  <angle>
                    <activevideoangle>false</activevideoangle>
                    <activeaudioangle>false</activeaudioangle>
                    <clip id="clip-1"/>
                  </angle>
                  <angle>
                    <activevideoangle>true</activevideoangle>
                    <activeaudioangle>true</activeaudioangle>
                    <clip id="clip-2"/>
                  </angle>
                  <angle>
                    <activevideoangle>false</activevideoangle>
                    <activeaudioangle>false</activeaudioangle>
                    <clip id="clip-3"/>
                  </angle>
                  <angle>
                    <activevideoangle>false</activevideoangle>
                    <activeaudioangle>false</activeaudioangle>
                    <clip id="clip-4"/>
                  </angle>
                  <angle>
                    <activevideoangle>false</activevideoangle>
                    <activeaudioangle>false</activeaudioangle>
                    <clip id="clip-5"/>
                  </angle>
                  <angle>
                    <activevideoangle>false</activevideoangle>
                    <activeaudioangle>false</activeaudioangle>
                    <clip id="clip-6"/>
                  </angle>
                  <angle>
                    <activevideoangle>false</activevideoangle>
                    <activeaudioangle>false</activeaudioangle>
                    <clip id="clip-7"/>
                  </angle>
                  <masterclipid>clip-master</masterclipid>
                </multiclip>
              </clipitem>
              <clipitem id="cs-294">
                <duration>61</duration>
                <rate>
                  <ntsc>false</ntsc>
                  <timebase>25</timebase>
                </rate>
                <in>29229</in>
                <out>29289</out>
                <start>29229</start>
                <end>29289</end>
                <file id="src-4"/>
                <sourcetrack>
                  <mediatype>video</mediatype>
                  <trackindex>1</trackindex>
                </sourcetrack>
                <multiclip id="mcs-294">
                  <name>MCS-294</name>
                  <masterclipid>clip-master</masterclipid>
                  <collapsed>false</collapsed>
                  <angle>
                    <activevideoangle>false</activevideoangle>
                    <activeaudioangle>false</activeaudioangle>
                    <clip id="clip-1"/>
                  </angle>
                  <angle>
                    <activevideoangle>false</activevideoangle>
                    <activeaudioangle>false</activeaudioangle>
                    <clip id="clip-2"/>
                  </angle>
                  <angle>
                    <activevideoangle>false</activevideoangle>
                    <activeaudioangle>false</activeaudioangle>
                    <clip id="clip-3"/>
                  </angle>
                  <angle>
                    <activevideoangle>true</activevideoangle>
                    <activeaudioangle>true</activeaudioangle>
                    <clip id="clip-4"/>
                  </angle>
                  <angle>
                    <activevideoangle>false</activevideoangle>
                    <activeaudioangle>false</activeaudioangle>
                    <clip id="clip-5"/>
                  </angle>
                  <angle>
                    <activevideoangle>false</activevideoangle>
                    <activeaudioangle>false</activeaudioangle>
                    <clip id="clip-6"/>
                  </angle>
                  <angle>
                    <activevideoangle>false</activevideoangle>
                    <activeaudioangle>false</activeaudioangle>
                    <clip id="clip-7"/>
                  </angle>
                  <masterclipid>clip-master</masterclipid>
                </multiclip>
              </clipitem>
              <clipitem id="cs-295">
                <duration>149</duration>
                <rate>
                  <ntsc>false</ntsc>
                  <timebase>25</timebase>
                </rate>
                <in>29289</in>
                <out>29437</out>
                <start>29289</start>
                <end>29437</end>
                <file id="src-3"/>
                <sourcetrack>
                  <mediatype>video</mediatype>
                  <trackindex>1</trackindex>
                </sourcetrack>
                <multiclip id="mcs-295">
                  <name>MCS-295</name>
                  <masterclipid>clip-master</masterclipid>
                  <collapsed>false</collapsed>
                  <angle>
                    <activevideoangle>false</activevideoangle>
                    <activeaudioangle>false</activeaudioangle>
                    <clip id="clip-1"/>
                  </angle>
                  <angle>
                    <activevideoangle>false</activevideoangle>
                    <activeaudioangle>false</activeaudioangle>
                    <clip id="clip-2"/>
                  </angle>
                  <angle>
                    <activevideoangle>true</activevideoangle>
                    <activeaudioangle>true</activeaudioangle>
                    <clip id="clip-3"/>
                  </angle>
                  <angle>
                    <activevideoangle>false</activevideoangle>
                    <activeaudioangle>false</activeaudioangle>
                    <clip id="clip-4"/>
                  </angle>
                  <angle>
                    <activevideoangle>false</activevideoangle>
                    <activeaudioangle>false</activeaudioangle>
                    <clip id="clip-5"/>
                  </angle>
                  <angle>
                    <activevideoangle>false</activevideoangle>
                    <activeaudioangle>false</activeaudioangle>
                    <clip id="clip-6"/>
                  </angle>
                  <angle>
                    <activevideoangle>false</activevideoangle>
                    <activeaudioangle>false</activeaudioangle>
                    <clip id="clip-7"/>
                  </angle>
                  <masterclipid>clip-master</masterclipid>
                </multiclip>
              </clipitem>
              <clipitem id="cs-296">
                <duration>68</duration>
                <rate>
                  <ntsc>false</ntsc>
                  <timebase>25</timebase>
                </rate>
                <in>29437</in>
                <out>29504</out>
                <start>29437</start>
                <end>29504</end>
                <file id="src-2"/>
                <sourcetrack>
                  <mediatype>video</mediatype>
                  <trackindex>1</trackindex>
                </sourcetrack>
                <multiclip id="mcs-296">
                  <name>MCS-296</name>
                  <masterclipid>clip-master</masterclipid>
                  <collapsed>false</collapsed>
                  <angle>
                    <activevideoangle>false</activevideoangle>
                    <activeaudioangle>false</activeaudioangle>
                    <clip id="clip-1"/>
                  </angle>
                  <angle>
                    <activevideoangle>true</activevideoangle>
                    <activeaudioangle>true</activeaudioangle>
                    <clip id="clip-2"/>
                  </angle>
                  <angle>
                    <activevideoangle>false</activevideoangle>
                    <activeaudioangle>false</activeaudioangle>
                    <clip id="clip-3"/>
                  </angle>
                  <angle>
                    <activevideoangle>false</activevideoangle>
                    <activeaudioangle>false</activeaudioangle>
                    <clip id="clip-4"/>
                  </angle>
                  <angle>
                    <activevideoangle>false</activevideoangle>
                    <activeaudioangle>false</activeaudioangle>
                    <clip id="clip-5"/>
                  </angle>
                  <angle>
                    <activevideoangle>false</activevideoangle>
                    <activeaudioangle>false</activeaudioangle>
                    <clip id="clip-6"/>
                  </angle>
                  <angle>
                    <activevideoangle>false</activevideoangle>
                    <activeaudioangle>false</activeaudioangle>
                    <clip id="clip-7"/>
                  </angle>
                  <masterclipid>clip-master</masterclipid>
                </multiclip>
              </clipitem>
              <clipitem id="cs-297">
                <duration>122</duration>
                <rate>
                  <ntsc>false</ntsc>
                  <timebase>25</timebase>
                </rate>
                <in>29504</in>
                <out>29625</out>
                <start>29504</start>
                <end>29625</end>
                <file id="src-3"/>
                <sourcetrack>
                  <mediatype>video</mediatype>
                  <trackindex>1</trackindex>
                </sourcetrack>
                <multiclip id="mcs-297">
                  <name>MCS-297</name>
                  <masterclipid>clip-master</masterclipid>
                  <collapsed>false</collapsed>
                  <angle>
                    <activevideoangle>false</activevideoangle>
                    <activeaudioangle>false</activeaudioangle>
                    <clip id="clip-1"/>
                  </angle>
                  <angle>
                    <activevideoangle>false</activevideoangle>
                    <activeaudioangle>false</activeaudioangle>
                    <clip id="clip-2"/>
                  </angle>
                  <angle>
                    <activevideoangle>true</activevideoangle>
                    <activeaudioangle>true</activeaudioangle>
                    <clip id="clip-3"/>
                  </angle>
                  <angle>
                    <activevideoangle>false</activevideoangle>
                    <activeaudioangle>false</activeaudioangle>
                    <clip id="clip-4"/>
                  </angle>
                  <angle>
                    <activevideoangle>false</activevideoangle>
                    <activeaudioangle>false</activeaudioangle>
                    <clip id="clip-5"/>
                  </angle>
                  <angle>
                    <activevideoangle>false</activevideoangle>
                    <activeaudioangle>false</activeaudioangle>
                    <clip id="clip-6"/>
                  </angle>
                  <angle>
                    <activevideoangle>false</activevideoangle>
                    <activeaudioangle>false</activeaudioangle>
                    <clip id="clip-7"/>
                  </angle>
                  <masterclipid>clip-master</masterclipid>
                </multiclip>
              </clipitem>
              <clipitem id="cs-298">
                <duration>227</duration>
                <rate>
                  <ntsc>false</ntsc>
                  <timebase>25</timebase>
                </rate>
                <in>29625</in>
                <out>29851</out>
                <start>29625</start>
                <end>29851</end>
                <file id="src-2"/>
                <sourcetrack>
                  <mediatype>video</mediatype>
                  <trackindex>1</trackindex>
                </sourcetrack>
                <multiclip id="mcs-298">
                  <name>MCS-298</name>
                  <masterclipid>clip-master</masterclipid>
                  <collapsed>false</collapsed>
                  <angle>
                    <activevideoangle>false</activevideoangle>
                    <activeaudioangle>false</activeaudioangle>
                    <clip id="clip-1"/>
                  </angle>
                  <angle>
                    <activevideoangle>true</activevideoangle>
                    <activeaudioangle>true</activeaudioangle>
                    <clip id="clip-2"/>
                  </angle>
                  <angle>
                    <activevideoangle>false</activevideoangle>
                    <activeaudioangle>false</activeaudioangle>
                    <clip id="clip-3"/>
                  </angle>
                  <angle>
                    <activevideoangle>false</activevideoangle>
                    <activeaudioangle>false</activeaudioangle>
                    <clip id="clip-4"/>
                  </angle>
                  <angle>
                    <activevideoangle>false</activevideoangle>
                    <activeaudioangle>false</activeaudioangle>
                    <clip id="clip-5"/>
                  </angle>
                  <angle>
                    <activevideoangle>false</activevideoangle>
                    <activeaudioangle>false</activeaudioangle>
                    <clip id="clip-6"/>
                  </angle>
                  <angle>
                    <activevideoangle>false</activevideoangle>
                    <activeaudioangle>false</activeaudioangle>
                    <clip id="clip-7"/>
                  </angle>
                  <masterclipid>clip-master</masterclipid>
                </multiclip>
              </clipitem>
              <clipitem id="cs-299">
                <duration>186</duration>
                <rate>
                  <ntsc>false</ntsc>
                  <timebase>25</timebase>
                </rate>
                <in>29851</in>
                <out>30036</out>
                <start>29851</start>
                <end>30036</end>
                <file id="src-3"/>
                <sourcetrack>
                  <mediatype>video</mediatype>
                  <trackindex>1</trackindex>
                </sourcetrack>
                <multiclip id="mcs-299">
                  <name>MCS-299</name>
                  <masterclipid>clip-master</masterclipid>
                  <collapsed>false</collapsed>
                  <angle>
                    <activevideoangle>false</activevideoangle>
                    <activeaudioangle>false</activeaudioangle>
                    <clip id="clip-1"/>
                  </angle>
                  <angle>
                    <activevideoangle>false</activevideoangle>
                    <activeaudioangle>false</activeaudioangle>
                    <clip id="clip-2"/>
                  </angle>
                  <angle>
                    <activevideoangle>true</activevideoangle>
                    <activeaudioangle>true</activeaudioangle>
                    <clip id="clip-3"/>
                  </angle>
                  <angle>
                    <activevideoangle>false</activevideoangle>
                    <activeaudioangle>false</activeaudioangle>
                    <clip id="clip-4"/>
                  </angle>
                  <angle>
                    <activevideoangle>false</activevideoangle>
                    <activeaudioangle>false</activeaudioangle>
                    <clip id="clip-5"/>
                  </angle>
                  <angle>
                    <activevideoangle>false</activevideoangle>
                    <activeaudioangle>false</activeaudioangle>
                    <clip id="clip-6"/>
                  </angle>
                  <angle>
                    <activevideoangle>false</activevideoangle>
                    <activeaudioangle>false</activeaudioangle>
                    <clip id="clip-7"/>
                  </angle>
                  <masterclipid>clip-master</masterclipid>
                </multiclip>
              </clipitem>
              <clipitem id="cs-300">
                <duration>177</duration>
                <rate>
                  <ntsc>false</ntsc>
                  <timebase>25</timebase>
                </rate>
                <in>30036</in>
                <out>30212</out>
                <start>30036</start>
                <end>30212</end>
                <file id="src-2"/>
                <sourcetrack>
                  <mediatype>video</mediatype>
                  <trackindex>1</trackindex>
                </sourcetrack>
                <multiclip id="mcs-300">
                  <name>MCS-300</name>
                  <masterclipid>clip-master</masterclipid>
                  <collapsed>false</collapsed>
                  <angle>
                    <activevideoangle>false</activevideoangle>
                    <activeaudioangle>false</activeaudioangle>
                    <clip id="clip-1"/>
                  </angle>
                  <angle>
                    <activevideoangle>true</activevideoangle>
                    <activeaudioangle>true</activeaudioangle>
                    <clip id="clip-2"/>
                  </angle>
                  <angle>
                    <activevideoangle>false</activevideoangle>
                    <activeaudioangle>false</activeaudioangle>
                    <clip id="clip-3"/>
                  </angle>
                  <angle>
                    <activevideoangle>false</activevideoangle>
                    <activeaudioangle>false</activeaudioangle>
                    <clip id="clip-4"/>
                  </angle>
                  <angle>
                    <activevideoangle>false</activevideoangle>
                    <activeaudioangle>false</activeaudioangle>
                    <clip id="clip-5"/>
                  </angle>
                  <angle>
                    <activevideoangle>false</activevideoangle>
                    <activeaudioangle>false</activeaudioangle>
                    <clip id="clip-6"/>
                  </angle>
                  <angle>
                    <activevideoangle>false</activevideoangle>
                    <activeaudioangle>false</activeaudioangle>
                    <clip id="clip-7"/>
                  </angle>
                  <masterclipid>clip-master</masterclipid>
                </multiclip>
              </clipitem>
              <clipitem id="cs-301">
                <duration>65</duration>
                <rate>
                  <ntsc>false</ntsc>
                  <timebase>25</timebase>
                </rate>
                <in>30212</in>
                <out>30276</out>
                <start>30212</start>
                <end>30276</end>
                <file id="src-3"/>
                <sourcetrack>
                  <mediatype>video</mediatype>
                  <trackindex>1</trackindex>
                </sourcetrack>
                <multiclip id="mcs-301">
                  <name>MCS-301</name>
                  <masterclipid>clip-master</masterclipid>
                  <collapsed>false</collapsed>
                  <angle>
                    <activevideoangle>false</activevideoangle>
                    <activeaudioangle>false</activeaudioangle>
                    <clip id="clip-1"/>
                  </angle>
                  <angle>
                    <activevideoangle>false</activevideoangle>
                    <activeaudioangle>false</activeaudioangle>
                    <clip id="clip-2"/>
                  </angle>
                  <angle>
                    <activevideoangle>true</activevideoangle>
                    <activeaudioangle>true</activeaudioangle>
                    <clip id="clip-3"/>
                  </angle>
                  <angle>
                    <activevideoangle>false</activevideoangle>
                    <activeaudioangle>false</activeaudioangle>
                    <clip id="clip-4"/>
                  </angle>
                  <angle>
                    <activevideoangle>false</activevideoangle>
                    <activeaudioangle>false</activeaudioangle>
                    <clip id="clip-5"/>
                  </angle>
                  <angle>
                    <activevideoangle>false</activevideoangle>
                    <activeaudioangle>false</activeaudioangle>
                    <clip id="clip-6"/>
                  </angle>
                  <angle>
                    <activevideoangle>false</activevideoangle>
                    <activeaudioangle>false</activeaudioangle>
                    <clip id="clip-7"/>
                  </angle>
                  <masterclipid>clip-master</masterclipid>
                </multiclip>
              </clipitem>
              <clipitem id="cs-302">
                <duration>131</duration>
                <rate>
                  <ntsc>false</ntsc>
                  <timebase>25</timebase>
                </rate>
                <in>30276</in>
                <out>30406</out>
                <start>30276</start>
                <end>30406</end>
                <file id="src-2"/>
                <sourcetrack>
                  <mediatype>video</mediatype>
                  <trackindex>1</trackindex>
                </sourcetrack>
                <multiclip id="mcs-302">
                  <name>MCS-302</name>
                  <masterclipid>clip-master</masterclipid>
                  <collapsed>false</collapsed>
                  <angle>
                    <activevideoangle>false</activevideoangle>
                    <activeaudioangle>false</activeaudioangle>
                    <clip id="clip-1"/>
                  </angle>
                  <angle>
                    <activevideoangle>true</activevideoangle>
                    <activeaudioangle>true</activeaudioangle>
                    <clip id="clip-2"/>
                  </angle>
                  <angle>
                    <activevideoangle>false</activevideoangle>
                    <activeaudioangle>false</activeaudioangle>
                    <clip id="clip-3"/>
                  </angle>
                  <angle>
                    <activevideoangle>false</activevideoangle>
                    <activeaudioangle>false</activeaudioangle>
                    <clip id="clip-4"/>
                  </angle>
                  <angle>
                    <activevideoangle>false</activevideoangle>
                    <activeaudioangle>false</activeaudioangle>
                    <clip id="clip-5"/>
                  </angle>
                  <angle>
                    <activevideoangle>false</activevideoangle>
                    <activeaudioangle>false</activeaudioangle>
                    <clip id="clip-6"/>
                  </angle>
                  <angle>
                    <activevideoangle>false</activevideoangle>
                    <activeaudioangle>false</activeaudioangle>
                    <clip id="clip-7"/>
                  </angle>
                  <masterclipid>clip-master</masterclipid>
                </multiclip>
              </clipitem>
              <clipitem id="cs-303">
                <duration>38</duration>
                <rate>
                  <ntsc>false</ntsc>
                  <timebase>25</timebase>
                </rate>
                <in>30406</in>
                <out>30443</out>
                <start>30406</start>
                <end>30443</end>
                <file id="src-3"/>
                <sourcetrack>
                  <mediatype>video</mediatype>
                  <trackindex>1</trackindex>
                </sourcetrack>
                <multiclip id="mcs-303">
                  <name>MCS-303</name>
                  <masterclipid>clip-master</masterclipid>
                  <collapsed>false</collapsed>
                  <angle>
                    <activevideoangle>false</activevideoangle>
                    <activeaudioangle>false</activeaudioangle>
                    <clip id="clip-1"/>
                  </angle>
                  <angle>
                    <activevideoangle>false</activevideoangle>
                    <activeaudioangle>false</activeaudioangle>
                    <clip id="clip-2"/>
                  </angle>
                  <angle>
                    <activevideoangle>true</activevideoangle>
                    <activeaudioangle>true</activeaudioangle>
                    <clip id="clip-3"/>
                  </angle>
                  <angle>
                    <activevideoangle>false</activevideoangle>
                    <activeaudioangle>false</activeaudioangle>
                    <clip id="clip-4"/>
                  </angle>
                  <angle>
                    <activevideoangle>false</activevideoangle>
                    <activeaudioangle>false</activeaudioangle>
                    <clip id="clip-5"/>
                  </angle>
                  <angle>
                    <activevideoangle>false</activevideoangle>
                    <activeaudioangle>false</activeaudioangle>
                    <clip id="clip-6"/>
                  </angle>
                  <angle>
                    <activevideoangle>false</activevideoangle>
                    <activeaudioangle>false</activeaudioangle>
                    <clip id="clip-7"/>
                  </angle>
                  <masterclipid>clip-master</masterclipid>
                </multiclip>
              </clipitem>
              <clipitem id="cs-304">
                <duration>53</duration>
                <rate>
                  <ntsc>false</ntsc>
                  <timebase>25</timebase>
                </rate>
                <in>30443</in>
                <out>30495</out>
                <start>30443</start>
                <end>30495</end>
                <file id="src-1"/>
                <sourcetrack>
                  <mediatype>video</mediatype>
                  <trackindex>1</trackindex>
                </sourcetrack>
                <multiclip id="mcs-304">
                  <name>MCS-304</name>
                  <masterclipid>clip-master</masterclipid>
                  <collapsed>false</collapsed>
                  <angle>
                    <activevideoangle>true</activevideoangle>
                    <activeaudioangle>true</activeaudioangle>
                    <clip id="clip-1"/>
                  </angle>
                  <angle>
                    <activevideoangle>false</activevideoangle>
                    <activeaudioangle>false</activeaudioangle>
                    <clip id="clip-2"/>
                  </angle>
                  <angle>
                    <activevideoangle>false</activevideoangle>
                    <activeaudioangle>false</activeaudioangle>
                    <clip id="clip-3"/>
                  </angle>
                  <angle>
                    <activevideoangle>false</activevideoangle>
                    <activeaudioangle>false</activeaudioangle>
                    <clip id="clip-4"/>
                  </angle>
                  <angle>
                    <activevideoangle>false</activevideoangle>
                    <activeaudioangle>false</activeaudioangle>
                    <clip id="clip-5"/>
                  </angle>
                  <angle>
                    <activevideoangle>false</activevideoangle>
                    <activeaudioangle>false</activeaudioangle>
                    <clip id="clip-6"/>
                  </angle>
                  <angle>
                    <activevideoangle>false</activevideoangle>
                    <activeaudioangle>false</activeaudioangle>
                    <clip id="clip-7"/>
                  </angle>
                  <masterclipid>clip-master</masterclipid>
                </multiclip>
              </clipitem>
              <clipitem id="cs-305">
                <duration>181</duration>
                <rate>
                  <ntsc>false</ntsc>
                  <timebase>25</timebase>
                </rate>
                <in>30495</in>
                <out>30675</out>
                <start>30495</start>
                <end>30675</end>
                <file id="src-2"/>
                <sourcetrack>
                  <mediatype>video</mediatype>
                  <trackindex>1</trackindex>
                </sourcetrack>
                <multiclip id="mcs-305">
                  <name>MCS-305</name>
                  <masterclipid>clip-master</masterclipid>
                  <collapsed>false</collapsed>
                  <angle>
                    <activevideoangle>false</activevideoangle>
                    <activeaudioangle>false</activeaudioangle>
                    <clip id="clip-1"/>
                  </angle>
                  <angle>
                    <activevideoangle>true</activevideoangle>
                    <activeaudioangle>true</activeaudioangle>
                    <clip id="clip-2"/>
                  </angle>
                  <angle>
                    <activevideoangle>false</activevideoangle>
                    <activeaudioangle>false</activeaudioangle>
                    <clip id="clip-3"/>
                  </angle>
                  <angle>
                    <activevideoangle>false</activevideoangle>
                    <activeaudioangle>false</activeaudioangle>
                    <clip id="clip-4"/>
                  </angle>
                  <angle>
                    <activevideoangle>false</activevideoangle>
                    <activeaudioangle>false</activeaudioangle>
                    <clip id="clip-5"/>
                  </angle>
                  <angle>
                    <activevideoangle>false</activevideoangle>
                    <activeaudioangle>false</activeaudioangle>
                    <clip id="clip-6"/>
                  </angle>
                  <angle>
                    <activevideoangle>false</activevideoangle>
                    <activeaudioangle>false</activeaudioangle>
                    <clip id="clip-7"/>
                  </angle>
                  <masterclipid>clip-master</masterclipid>
                </multiclip>
              </clipitem>
              <clipitem id="cs-306">
                <duration>138</duration>
                <rate>
                  <ntsc>false</ntsc>
                  <timebase>25</timebase>
                </rate>
                <in>30675</in>
                <out>30812</out>
                <start>30675</start>
                <end>30812</end>
                <file id="src-3"/>
                <sourcetrack>
                  <mediatype>video</mediatype>
                  <trackindex>1</trackindex>
                </sourcetrack>
                <multiclip id="mcs-306">
                  <name>MCS-306</name>
                  <masterclipid>clip-master</masterclipid>
                  <collapsed>false</collapsed>
                  <angle>
                    <activevideoangle>false</activevideoangle>
                    <activeaudioangle>false</activeaudioangle>
                    <clip id="clip-1"/>
                  </angle>
                  <angle>
                    <activevideoangle>false</activevideoangle>
                    <activeaudioangle>false</activeaudioangle>
                    <clip id="clip-2"/>
                  </angle>
                  <angle>
                    <activevideoangle>true</activevideoangle>
                    <activeaudioangle>true</activeaudioangle>
                    <clip id="clip-3"/>
                  </angle>
                  <angle>
                    <activevideoangle>false</activevideoangle>
                    <activeaudioangle>false</activeaudioangle>
                    <clip id="clip-4"/>
                  </angle>
                  <angle>
                    <activevideoangle>false</activevideoangle>
                    <activeaudioangle>false</activeaudioangle>
                    <clip id="clip-5"/>
                  </angle>
                  <angle>
                    <activevideoangle>false</activevideoangle>
                    <activeaudioangle>false</activeaudioangle>
                    <clip id="clip-6"/>
                  </angle>
                  <angle>
                    <activevideoangle>false</activevideoangle>
                    <activeaudioangle>false</activeaudioangle>
                    <clip id="clip-7"/>
                  </angle>
                  <masterclipid>clip-master</masterclipid>
                </multiclip>
              </clipitem>
              <clipitem id="cs-307">
                <duration>80</duration>
                <rate>
                  <ntsc>false</ntsc>
                  <timebase>25</timebase>
                </rate>
                <in>30812</in>
                <out>30891</out>
                <start>30812</start>
                <end>30891</end>
                <file id="src-4"/>
                <sourcetrack>
                  <mediatype>video</mediatype>
                  <trackindex>1</trackindex>
                </sourcetrack>
                <multiclip id="mcs-307">
                  <name>MCS-307</name>
                  <masterclipid>clip-master</masterclipid>
                  <collapsed>false</collapsed>
                  <angle>
                    <activevideoangle>false</activevideoangle>
                    <activeaudioangle>false</activeaudioangle>
                    <clip id="clip-1"/>
                  </angle>
                  <angle>
                    <activevideoangle>false</activevideoangle>
                    <activeaudioangle>false</activeaudioangle>
                    <clip id="clip-2"/>
                  </angle>
                  <angle>
                    <activevideoangle>false</activevideoangle>
                    <activeaudioangle>false</activeaudioangle>
                    <clip id="clip-3"/>
                  </angle>
                  <angle>
                    <activevideoangle>true</activevideoangle>
                    <activeaudioangle>true</activeaudioangle>
                    <clip id="clip-4"/>
                  </angle>
                  <angle>
                    <activevideoangle>false</activevideoangle>
                    <activeaudioangle>false</activeaudioangle>
                    <clip id="clip-5"/>
                  </angle>
                  <angle>
                    <activevideoangle>false</activevideoangle>
                    <activeaudioangle>false</activeaudioangle>
                    <clip id="clip-6"/>
                  </angle>
                  <angle>
                    <activevideoangle>false</activevideoangle>
                    <activeaudioangle>false</activeaudioangle>
                    <clip id="clip-7"/>
                  </angle>
                  <masterclipid>clip-master</masterclipid>
                </multiclip>
              </clipitem>
              <clipitem id="cs-308">
                <duration>38</duration>
                <rate>
                  <ntsc>false</ntsc>
                  <timebase>25</timebase>
                </rate>
                <in>30891</in>
                <out>30928</out>
                <start>30891</start>
                <end>30928</end>
                <file id="src-2"/>
                <sourcetrack>
                  <mediatype>video</mediatype>
                  <trackindex>1</trackindex>
                </sourcetrack>
                <multiclip id="mcs-308">
                  <name>MCS-308</name>
                  <masterclipid>clip-master</masterclipid>
                  <collapsed>false</collapsed>
                  <angle>
                    <activevideoangle>false</activevideoangle>
                    <activeaudioangle>false</activeaudioangle>
                    <clip id="clip-1"/>
                  </angle>
                  <angle>
                    <activevideoangle>true</activevideoangle>
                    <activeaudioangle>true</activeaudioangle>
                    <clip id="clip-2"/>
                  </angle>
                  <angle>
                    <activevideoangle>false</activevideoangle>
                    <activeaudioangle>false</activeaudioangle>
                    <clip id="clip-3"/>
                  </angle>
                  <angle>
                    <activevideoangle>false</activevideoangle>
                    <activeaudioangle>false</activeaudioangle>
                    <clip id="clip-4"/>
                  </angle>
                  <angle>
                    <activevideoangle>false</activevideoangle>
                    <activeaudioangle>false</activeaudioangle>
                    <clip id="clip-5"/>
                  </angle>
                  <angle>
                    <activevideoangle>false</activevideoangle>
                    <activeaudioangle>false</activeaudioangle>
                    <clip id="clip-6"/>
                  </angle>
                  <angle>
                    <activevideoangle>false</activevideoangle>
                    <activeaudioangle>false</activeaudioangle>
                    <clip id="clip-7"/>
                  </angle>
                  <masterclipid>clip-master</masterclipid>
                </multiclip>
              </clipitem>
              <clipitem id="cs-309">
                <duration>114</duration>
                <rate>
                  <ntsc>false</ntsc>
                  <timebase>25</timebase>
                </rate>
                <in>30928</in>
                <out>31041</out>
                <start>30928</start>
                <end>31041</end>
                <file id="src-6"/>
                <sourcetrack>
                  <mediatype>video</mediatype>
                  <trackindex>1</trackindex>
                </sourcetrack>
                <multiclip id="mcs-309">
                  <name>MCS-309</name>
                  <masterclipid>clip-master</masterclipid>
                  <collapsed>false</collapsed>
                  <angle>
                    <activevideoangle>false</activevideoangle>
                    <activeaudioangle>false</activeaudioangle>
                    <clip id="clip-1"/>
                  </angle>
                  <angle>
                    <activevideoangle>false</activevideoangle>
                    <activeaudioangle>false</activeaudioangle>
                    <clip id="clip-2"/>
                  </angle>
                  <angle>
                    <activevideoangle>false</activevideoangle>
                    <activeaudioangle>false</activeaudioangle>
                    <clip id="clip-3"/>
                  </angle>
                  <angle>
                    <activevideoangle>false</activevideoangle>
                    <activeaudioangle>false</activeaudioangle>
                    <clip id="clip-4"/>
                  </angle>
                  <angle>
                    <activevideoangle>false</activevideoangle>
                    <activeaudioangle>false</activeaudioangle>
                    <clip id="clip-5"/>
                  </angle>
                  <angle>
                    <activevideoangle>true</activevideoangle>
                    <activeaudioangle>true</activeaudioangle>
                    <clip id="clip-6"/>
                  </angle>
                  <angle>
                    <activevideoangle>false</activevideoangle>
                    <activeaudioangle>false</activeaudioangle>
                    <clip id="clip-7"/>
                  </angle>
                  <masterclipid>clip-master</masterclipid>
                </multiclip>
              </clipitem>
              <clipitem id="cs-310">
                <duration>71</duration>
                <rate>
                  <ntsc>false</ntsc>
                  <timebase>25</timebase>
                </rate>
                <in>31041</in>
                <out>31111</out>
                <start>31041</start>
                <end>31111</end>
                <file id="src-2"/>
                <sourcetrack>
                  <mediatype>video</mediatype>
                  <trackindex>1</trackindex>
                </sourcetrack>
                <multiclip id="mcs-310">
                  <name>MCS-310</name>
                  <masterclipid>clip-master</masterclipid>
                  <collapsed>false</collapsed>
                  <angle>
                    <activevideoangle>false</activevideoangle>
                    <activeaudioangle>false</activeaudioangle>
                    <clip id="clip-1"/>
                  </angle>
                  <angle>
                    <activevideoangle>true</activevideoangle>
                    <activeaudioangle>true</activeaudioangle>
                    <clip id="clip-2"/>
                  </angle>
                  <angle>
                    <activevideoangle>false</activevideoangle>
                    <activeaudioangle>false</activeaudioangle>
                    <clip id="clip-3"/>
                  </angle>
                  <angle>
                    <activevideoangle>false</activevideoangle>
                    <activeaudioangle>false</activeaudioangle>
                    <clip id="clip-4"/>
                  </angle>
                  <angle>
                    <activevideoangle>false</activevideoangle>
                    <activeaudioangle>false</activeaudioangle>
                    <clip id="clip-5"/>
                  </angle>
                  <angle>
                    <activevideoangle>false</activevideoangle>
                    <activeaudioangle>false</activeaudioangle>
                    <clip id="clip-6"/>
                  </angle>
                  <angle>
                    <activevideoangle>false</activevideoangle>
                    <activeaudioangle>false</activeaudioangle>
                    <clip id="clip-7"/>
                  </angle>
                  <masterclipid>clip-master</masterclipid>
                </multiclip>
              </clipitem>
              <clipitem id="cs-311">
                <duration>77</duration>
                <rate>
                  <ntsc>false</ntsc>
                  <timebase>25</timebase>
                </rate>
                <in>31111</in>
                <out>31187</out>
                <start>31111</start>
                <end>31187</end>
                <file id="src-3"/>
                <sourcetrack>
                  <mediatype>video</mediatype>
                  <trackindex>1</trackindex>
                </sourcetrack>
                <multiclip id="mcs-311">
                  <name>MCS-311</name>
                  <masterclipid>clip-master</masterclipid>
                  <collapsed>false</collapsed>
                  <angle>
                    <activevideoangle>false</activevideoangle>
                    <activeaudioangle>false</activeaudioangle>
                    <clip id="clip-1"/>
                  </angle>
                  <angle>
                    <activevideoangle>false</activevideoangle>
                    <activeaudioangle>false</activeaudioangle>
                    <clip id="clip-2"/>
                  </angle>
                  <angle>
                    <activevideoangle>true</activevideoangle>
                    <activeaudioangle>true</activeaudioangle>
                    <clip id="clip-3"/>
                  </angle>
                  <angle>
                    <activevideoangle>false</activevideoangle>
                    <activeaudioangle>false</activeaudioangle>
                    <clip id="clip-4"/>
                  </angle>
                  <angle>
                    <activevideoangle>false</activevideoangle>
                    <activeaudioangle>false</activeaudioangle>
                    <clip id="clip-5"/>
                  </angle>
                  <angle>
                    <activevideoangle>false</activevideoangle>
                    <activeaudioangle>false</activeaudioangle>
                    <clip id="clip-6"/>
                  </angle>
                  <angle>
                    <activevideoangle>false</activevideoangle>
                    <activeaudioangle>false</activeaudioangle>
                    <clip id="clip-7"/>
                  </angle>
                  <masterclipid>clip-master</masterclipid>
                </multiclip>
              </clipitem>
              <clipitem id="cs-312">
                <duration>102</duration>
                <rate>
                  <ntsc>false</ntsc>
                  <timebase>25</timebase>
                </rate>
                <in>31187</in>
                <out>31288</out>
                <start>31187</start>
                <end>31288</end>
                <file id="src-4"/>
                <sourcetrack>
                  <mediatype>video</mediatype>
                  <trackindex>1</trackindex>
                </sourcetrack>
                <multiclip id="mcs-312">
                  <name>MCS-312</name>
                  <masterclipid>clip-master</masterclipid>
                  <collapsed>false</collapsed>
                  <angle>
                    <activevideoangle>false</activevideoangle>
                    <activeaudioangle>false</activeaudioangle>
                    <clip id="clip-1"/>
                  </angle>
                  <angle>
                    <activevideoangle>false</activevideoangle>
                    <activeaudioangle>false</activeaudioangle>
                    <clip id="clip-2"/>
                  </angle>
                  <angle>
                    <activevideoangle>false</activevideoangle>
                    <activeaudioangle>false</activeaudioangle>
                    <clip id="clip-3"/>
                  </angle>
                  <angle>
                    <activevideoangle>true</activevideoangle>
                    <activeaudioangle>true</activeaudioangle>
                    <clip id="clip-4"/>
                  </angle>
                  <angle>
                    <activevideoangle>false</activevideoangle>
                    <activeaudioangle>false</activeaudioangle>
                    <clip id="clip-5"/>
                  </angle>
                  <angle>
                    <activevideoangle>false</activevideoangle>
                    <activeaudioangle>false</activeaudioangle>
                    <clip id="clip-6"/>
                  </angle>
                  <angle>
                    <activevideoangle>false</activevideoangle>
                    <activeaudioangle>false</activeaudioangle>
                    <clip id="clip-7"/>
                  </angle>
                  <masterclipid>clip-master</masterclipid>
                </multiclip>
              </clipitem>
              <clipitem id="cs-313">
                <duration>97</duration>
                <rate>
                  <ntsc>false</ntsc>
                  <timebase>25</timebase>
                </rate>
                <in>31288</in>
                <out>31384</out>
                <start>31288</start>
                <end>31384</end>
                <file id="src-2"/>
                <sourcetrack>
                  <mediatype>video</mediatype>
                  <trackindex>1</trackindex>
                </sourcetrack>
                <multiclip id="mcs-313">
                  <name>MCS-313</name>
                  <masterclipid>clip-master</masterclipid>
                  <collapsed>false</collapsed>
                  <angle>
                    <activevideoangle>false</activevideoangle>
                    <activeaudioangle>false</activeaudioangle>
                    <clip id="clip-1"/>
                  </angle>
                  <angle>
                    <activevideoangle>true</activevideoangle>
                    <activeaudioangle>true</activeaudioangle>
                    <clip id="clip-2"/>
                  </angle>
                  <angle>
                    <activevideoangle>false</activevideoangle>
                    <activeaudioangle>false</activeaudioangle>
                    <clip id="clip-3"/>
                  </angle>
                  <angle>
                    <activevideoangle>false</activevideoangle>
                    <activeaudioangle>false</activeaudioangle>
                    <clip id="clip-4"/>
                  </angle>
                  <angle>
                    <activevideoangle>false</activevideoangle>
                    <activeaudioangle>false</activeaudioangle>
                    <clip id="clip-5"/>
                  </angle>
                  <angle>
                    <activevideoangle>false</activevideoangle>
                    <activeaudioangle>false</activeaudioangle>
                    <clip id="clip-6"/>
                  </angle>
                  <angle>
                    <activevideoangle>false</activevideoangle>
                    <activeaudioangle>false</activeaudioangle>
                    <clip id="clip-7"/>
                  </angle>
                  <masterclipid>clip-master</masterclipid>
                </multiclip>
              </clipitem>
              <clipitem id="cs-314">
                <duration>40</duration>
                <rate>
                  <ntsc>false</ntsc>
                  <timebase>25</timebase>
                </rate>
                <in>31384</in>
                <out>31423</out>
                <start>31384</start>
                <end>31423</end>
                <file id="src-6"/>
                <sourcetrack>
                  <mediatype>video</mediatype>
                  <trackindex>1</trackindex>
                </sourcetrack>
                <multiclip id="mcs-314">
                  <name>MCS-314</name>
                  <masterclipid>clip-master</masterclipid>
                  <collapsed>false</collapsed>
                  <angle>
                    <activevideoangle>false</activevideoangle>
                    <activeaudioangle>false</activeaudioangle>
                    <clip id="clip-1"/>
                  </angle>
                  <angle>
                    <activevideoangle>false</activevideoangle>
                    <activeaudioangle>false</activeaudioangle>
                    <clip id="clip-2"/>
                  </angle>
                  <angle>
                    <activevideoangle>false</activevideoangle>
                    <activeaudioangle>false</activeaudioangle>
                    <clip id="clip-3"/>
                  </angle>
                  <angle>
                    <activevideoangle>false</activevideoangle>
                    <activeaudioangle>false</activeaudioangle>
                    <clip id="clip-4"/>
                  </angle>
                  <angle>
                    <activevideoangle>false</activevideoangle>
                    <activeaudioangle>false</activeaudioangle>
                    <clip id="clip-5"/>
                  </angle>
                  <angle>
                    <activevideoangle>true</activevideoangle>
                    <activeaudioangle>true</activeaudioangle>
                    <clip id="clip-6"/>
                  </angle>
                  <angle>
                    <activevideoangle>false</activevideoangle>
                    <activeaudioangle>false</activeaudioangle>
                    <clip id="clip-7"/>
                  </angle>
                  <masterclipid>clip-master</masterclipid>
                </multiclip>
              </clipitem>
              <clipitem id="cs-315">
                <duration>122</duration>
                <rate>
                  <ntsc>false</ntsc>
                  <timebase>25</timebase>
                </rate>
                <in>31423</in>
                <out>31544</out>
                <start>31423</start>
                <end>31544</end>
                <file id="src-3"/>
                <sourcetrack>
                  <mediatype>video</mediatype>
                  <trackindex>1</trackindex>
                </sourcetrack>
                <multiclip id="mcs-315">
                  <name>MCS-315</name>
                  <masterclipid>clip-master</masterclipid>
                  <collapsed>false</collapsed>
                  <angle>
                    <activevideoangle>false</activevideoangle>
                    <activeaudioangle>false</activeaudioangle>
                    <clip id="clip-1"/>
                  </angle>
                  <angle>
                    <activevideoangle>false</activevideoangle>
                    <activeaudioangle>false</activeaudioangle>
                    <clip id="clip-2"/>
                  </angle>
                  <angle>
                    <activevideoangle>true</activevideoangle>
                    <activeaudioangle>true</activeaudioangle>
                    <clip id="clip-3"/>
                  </angle>
                  <angle>
                    <activevideoangle>false</activevideoangle>
                    <activeaudioangle>false</activeaudioangle>
                    <clip id="clip-4"/>
                  </angle>
                  <angle>
                    <activevideoangle>false</activevideoangle>
                    <activeaudioangle>false</activeaudioangle>
                    <clip id="clip-5"/>
                  </angle>
                  <angle>
                    <activevideoangle>false</activevideoangle>
                    <activeaudioangle>false</activeaudioangle>
                    <clip id="clip-6"/>
                  </angle>
                  <angle>
                    <activevideoangle>false</activevideoangle>
                    <activeaudioangle>false</activeaudioangle>
                    <clip id="clip-7"/>
                  </angle>
                  <masterclipid>clip-master</masterclipid>
                </multiclip>
              </clipitem>
              <clipitem id="cs-316">
                <duration>115</duration>
                <rate>
                  <ntsc>false</ntsc>
                  <timebase>25</timebase>
                </rate>
                <in>31544</in>
                <out>31658</out>
                <start>31544</start>
                <end>31658</end>
                <file id="src-2"/>
                <sourcetrack>
                  <mediatype>video</mediatype>
                  <trackindex>1</trackindex>
                </sourcetrack>
                <multiclip id="mcs-316">
                  <name>MCS-316</name>
                  <masterclipid>clip-master</masterclipid>
                  <collapsed>false</collapsed>
                  <angle>
                    <activevideoangle>false</activevideoangle>
                    <activeaudioangle>false</activeaudioangle>
                    <clip id="clip-1"/>
                  </angle>
                  <angle>
                    <activevideoangle>true</activevideoangle>
                    <activeaudioangle>true</activeaudioangle>
                    <clip id="clip-2"/>
                  </angle>
                  <angle>
                    <activevideoangle>false</activevideoangle>
                    <activeaudioangle>false</activeaudioangle>
                    <clip id="clip-3"/>
                  </angle>
                  <angle>
                    <activevideoangle>false</activevideoangle>
                    <activeaudioangle>false</activeaudioangle>
                    <clip id="clip-4"/>
                  </angle>
                  <angle>
                    <activevideoangle>false</activevideoangle>
                    <activeaudioangle>false</activeaudioangle>
                    <clip id="clip-5"/>
                  </angle>
                  <angle>
                    <activevideoangle>false</activevideoangle>
                    <activeaudioangle>false</activeaudioangle>
                    <clip id="clip-6"/>
                  </angle>
                  <angle>
                    <activevideoangle>false</activevideoangle>
                    <activeaudioangle>false</activeaudioangle>
                    <clip id="clip-7"/>
                  </angle>
                  <masterclipid>clip-master</masterclipid>
                </multiclip>
              </clipitem>
              <clipitem id="cs-317">
                <duration>72</duration>
                <rate>
                  <ntsc>false</ntsc>
                  <timebase>25</timebase>
                </rate>
                <in>31658</in>
                <out>31729</out>
                <start>31658</start>
                <end>31729</end>
                <file id="src-4"/>
                <sourcetrack>
                  <mediatype>video</mediatype>
                  <trackindex>1</trackindex>
                </sourcetrack>
                <multiclip id="mcs-317">
                  <name>MCS-317</name>
                  <masterclipid>clip-master</masterclipid>
                  <collapsed>false</collapsed>
                  <angle>
                    <activevideoangle>false</activevideoangle>
                    <activeaudioangle>false</activeaudioangle>
                    <clip id="clip-1"/>
                  </angle>
                  <angle>
                    <activevideoangle>false</activevideoangle>
                    <activeaudioangle>false</activeaudioangle>
                    <clip id="clip-2"/>
                  </angle>
                  <angle>
                    <activevideoangle>false</activevideoangle>
                    <activeaudioangle>false</activeaudioangle>
                    <clip id="clip-3"/>
                  </angle>
                  <angle>
                    <activevideoangle>true</activevideoangle>
                    <activeaudioangle>true</activeaudioangle>
                    <clip id="clip-4"/>
                  </angle>
                  <angle>
                    <activevideoangle>false</activevideoangle>
                    <activeaudioangle>false</activeaudioangle>
                    <clip id="clip-5"/>
                  </angle>
                  <angle>
                    <activevideoangle>false</activevideoangle>
                    <activeaudioangle>false</activeaudioangle>
                    <clip id="clip-6"/>
                  </angle>
                  <angle>
                    <activevideoangle>false</activevideoangle>
                    <activeaudioangle>false</activeaudioangle>
                    <clip id="clip-7"/>
                  </angle>
                  <masterclipid>clip-master</masterclipid>
                </multiclip>
              </clipitem>
              <clipitem id="cs-318">
                <duration>61</duration>
                <rate>
                  <ntsc>false</ntsc>
                  <timebase>25</timebase>
                </rate>
                <in>31729</in>
                <out>31789</out>
                <start>31729</start>
                <end>31789</end>
                <file id="src-3"/>
                <sourcetrack>
                  <mediatype>video</mediatype>
                  <trackindex>1</trackindex>
                </sourcetrack>
                <multiclip id="mcs-318">
                  <name>MCS-318</name>
                  <masterclipid>clip-master</masterclipid>
                  <collapsed>false</collapsed>
                  <angle>
                    <activevideoangle>false</activevideoangle>
                    <activeaudioangle>false</activeaudioangle>
                    <clip id="clip-1"/>
                  </angle>
                  <angle>
                    <activevideoangle>false</activevideoangle>
                    <activeaudioangle>false</activeaudioangle>
                    <clip id="clip-2"/>
                  </angle>
                  <angle>
                    <activevideoangle>true</activevideoangle>
                    <activeaudioangle>true</activeaudioangle>
                    <clip id="clip-3"/>
                  </angle>
                  <angle>
                    <activevideoangle>false</activevideoangle>
                    <activeaudioangle>false</activeaudioangle>
                    <clip id="clip-4"/>
                  </angle>
                  <angle>
                    <activevideoangle>false</activevideoangle>
                    <activeaudioangle>false</activeaudioangle>
                    <clip id="clip-5"/>
                  </angle>
                  <angle>
                    <activevideoangle>false</activevideoangle>
                    <activeaudioangle>false</activeaudioangle>
                    <clip id="clip-6"/>
                  </angle>
                  <angle>
                    <activevideoangle>false</activevideoangle>
                    <activeaudioangle>false</activeaudioangle>
                    <clip id="clip-7"/>
                  </angle>
                  <masterclipid>clip-master</masterclipid>
                </multiclip>
              </clipitem>
              <clipitem id="cs-319">
                <duration>92</duration>
                <rate>
                  <ntsc>false</ntsc>
                  <timebase>25</timebase>
                </rate>
                <in>31789</in>
                <out>31880</out>
                <start>31789</start>
                <end>31880</end>
                <file id="src-2"/>
                <sourcetrack>
                  <mediatype>video</mediatype>
                  <trackindex>1</trackindex>
                </sourcetrack>
                <multiclip id="mcs-319">
                  <name>MCS-319</name>
                  <masterclipid>clip-master</masterclipid>
                  <collapsed>false</collapsed>
                  <angle>
                    <activevideoangle>false</activevideoangle>
                    <activeaudioangle>false</activeaudioangle>
                    <clip id="clip-1"/>
                  </angle>
                  <angle>
                    <activevideoangle>true</activevideoangle>
                    <activeaudioangle>true</activeaudioangle>
                    <clip id="clip-2"/>
                  </angle>
                  <angle>
                    <activevideoangle>false</activevideoangle>
                    <activeaudioangle>false</activeaudioangle>
                    <clip id="clip-3"/>
                  </angle>
                  <angle>
                    <activevideoangle>false</activevideoangle>
                    <activeaudioangle>false</activeaudioangle>
                    <clip id="clip-4"/>
                  </angle>
                  <angle>
                    <activevideoangle>false</activevideoangle>
                    <activeaudioangle>false</activeaudioangle>
                    <clip id="clip-5"/>
                  </angle>
                  <angle>
                    <activevideoangle>false</activevideoangle>
                    <activeaudioangle>false</activeaudioangle>
                    <clip id="clip-6"/>
                  </angle>
                  <angle>
                    <activevideoangle>false</activevideoangle>
                    <activeaudioangle>false</activeaudioangle>
                    <clip id="clip-7"/>
                  </angle>
                  <masterclipid>clip-master</masterclipid>
                </multiclip>
              </clipitem>
              <clipitem id="cs-320">
                <duration>66</duration>
                <rate>
                  <ntsc>false</ntsc>
                  <timebase>25</timebase>
                </rate>
                <in>31880</in>
                <out>31945</out>
                <start>31880</start>
                <end>31945</end>
                <file id="src-6"/>
                <sourcetrack>
                  <mediatype>video</mediatype>
                  <trackindex>1</trackindex>
                </sourcetrack>
                <multiclip id="mcs-320">
                  <name>MCS-320</name>
                  <masterclipid>clip-master</masterclipid>
                  <collapsed>false</collapsed>
                  <angle>
                    <activevideoangle>false</activevideoangle>
                    <activeaudioangle>false</activeaudioangle>
                    <clip id="clip-1"/>
                  </angle>
                  <angle>
                    <activevideoangle>false</activevideoangle>
                    <activeaudioangle>false</activeaudioangle>
                    <clip id="clip-2"/>
                  </angle>
                  <angle>
                    <activevideoangle>false</activevideoangle>
                    <activeaudioangle>false</activeaudioangle>
                    <clip id="clip-3"/>
                  </angle>
                  <angle>
                    <activevideoangle>false</activevideoangle>
                    <activeaudioangle>false</activeaudioangle>
                    <clip id="clip-4"/>
                  </angle>
                  <angle>
                    <activevideoangle>false</activevideoangle>
                    <activeaudioangle>false</activeaudioangle>
                    <clip id="clip-5"/>
                  </angle>
                  <angle>
                    <activevideoangle>true</activevideoangle>
                    <activeaudioangle>true</activeaudioangle>
                    <clip id="clip-6"/>
                  </angle>
                  <angle>
                    <activevideoangle>false</activevideoangle>
                    <activeaudioangle>false</activeaudioangle>
                    <clip id="clip-7"/>
                  </angle>
                  <masterclipid>clip-master</masterclipid>
                </multiclip>
              </clipitem>
              <clipitem id="cs-321">
                <duration>47</duration>
                <rate>
                  <ntsc>false</ntsc>
                  <timebase>25</timebase>
                </rate>
                <in>31945</in>
                <out>31991</out>
                <start>31945</start>
                <end>31991</end>
                <file id="src-1"/>
                <sourcetrack>
                  <mediatype>video</mediatype>
                  <trackindex>1</trackindex>
                </sourcetrack>
                <multiclip id="mcs-321">
                  <name>MCS-321</name>
                  <masterclipid>clip-master</masterclipid>
                  <collapsed>false</collapsed>
                  <angle>
                    <activevideoangle>true</activevideoangle>
                    <activeaudioangle>true</activeaudioangle>
                    <clip id="clip-1"/>
                  </angle>
                  <angle>
                    <activevideoangle>false</activevideoangle>
                    <activeaudioangle>false</activeaudioangle>
                    <clip id="clip-2"/>
                  </angle>
                  <angle>
                    <activevideoangle>false</activevideoangle>
                    <activeaudioangle>false</activeaudioangle>
                    <clip id="clip-3"/>
                  </angle>
                  <angle>
                    <activevideoangle>false</activevideoangle>
                    <activeaudioangle>false</activeaudioangle>
                    <clip id="clip-4"/>
                  </angle>
                  <angle>
                    <activevideoangle>false</activevideoangle>
                    <activeaudioangle>false</activeaudioangle>
                    <clip id="clip-5"/>
                  </angle>
                  <angle>
                    <activevideoangle>false</activevideoangle>
                    <activeaudioangle>false</activeaudioangle>
                    <clip id="clip-6"/>
                  </angle>
                  <angle>
                    <activevideoangle>false</activevideoangle>
                    <activeaudioangle>false</activeaudioangle>
                    <clip id="clip-7"/>
                  </angle>
                  <masterclipid>clip-master</masterclipid>
                </multiclip>
              </clipitem>
              <clipitem id="cs-322">
                <duration>115</duration>
                <rate>
                  <ntsc>false</ntsc>
                  <timebase>25</timebase>
                </rate>
                <in>31991</in>
                <out>32105</out>
                <start>31991</start>
                <end>32105</end>
                <file id="src-3"/>
                <sourcetrack>
                  <mediatype>video</mediatype>
                  <trackindex>1</trackindex>
                </sourcetrack>
                <multiclip id="mcs-322">
                  <name>MCS-322</name>
                  <masterclipid>clip-master</masterclipid>
                  <collapsed>false</collapsed>
                  <angle>
                    <activevideoangle>false</activevideoangle>
                    <activeaudioangle>false</activeaudioangle>
                    <clip id="clip-1"/>
                  </angle>
                  <angle>
                    <activevideoangle>false</activevideoangle>
                    <activeaudioangle>false</activeaudioangle>
                    <clip id="clip-2"/>
                  </angle>
                  <angle>
                    <activevideoangle>true</activevideoangle>
                    <activeaudioangle>true</activeaudioangle>
                    <clip id="clip-3"/>
                  </angle>
                  <angle>
                    <activevideoangle>false</activevideoangle>
                    <activeaudioangle>false</activeaudioangle>
                    <clip id="clip-4"/>
                  </angle>
                  <angle>
                    <activevideoangle>false</activevideoangle>
                    <activeaudioangle>false</activeaudioangle>
                    <clip id="clip-5"/>
                  </angle>
                  <angle>
                    <activevideoangle>false</activevideoangle>
                    <activeaudioangle>false</activeaudioangle>
                    <clip id="clip-6"/>
                  </angle>
                  <angle>
                    <activevideoangle>false</activevideoangle>
                    <activeaudioangle>false</activeaudioangle>
                    <clip id="clip-7"/>
                  </angle>
                  <masterclipid>clip-master</masterclipid>
                </multiclip>
              </clipitem>
              <clipitem id="cs-323">
                <duration>180</duration>
                <rate>
                  <ntsc>false</ntsc>
                  <timebase>25</timebase>
                </rate>
                <in>32105</in>
                <out>32284</out>
                <start>32105</start>
                <end>32284</end>
                <file id="src-2"/>
                <sourcetrack>
                  <mediatype>video</mediatype>
                  <trackindex>1</trackindex>
                </sourcetrack>
                <multiclip id="mcs-323">
                  <name>MCS-323</name>
                  <masterclipid>clip-master</masterclipid>
                  <collapsed>false</collapsed>
                  <angle>
                    <activevideoangle>false</activevideoangle>
                    <activeaudioangle>false</activeaudioangle>
                    <clip id="clip-1"/>
                  </angle>
                  <angle>
                    <activevideoangle>true</activevideoangle>
                    <activeaudioangle>true</activeaudioangle>
                    <clip id="clip-2"/>
                  </angle>
                  <angle>
                    <activevideoangle>false</activevideoangle>
                    <activeaudioangle>false</activeaudioangle>
                    <clip id="clip-3"/>
                  </angle>
                  <angle>
                    <activevideoangle>false</activevideoangle>
                    <activeaudioangle>false</activeaudioangle>
                    <clip id="clip-4"/>
                  </angle>
                  <angle>
                    <activevideoangle>false</activevideoangle>
                    <activeaudioangle>false</activeaudioangle>
                    <clip id="clip-5"/>
                  </angle>
                  <angle>
                    <activevideoangle>false</activevideoangle>
                    <activeaudioangle>false</activeaudioangle>
                    <clip id="clip-6"/>
                  </angle>
                  <angle>
                    <activevideoangle>false</activevideoangle>
                    <activeaudioangle>false</activeaudioangle>
                    <clip id="clip-7"/>
                  </angle>
                  <masterclipid>clip-master</masterclipid>
                </multiclip>
              </clipitem>
              <clipitem id="cs-324">
                <duration>58</duration>
                <rate>
                  <ntsc>false</ntsc>
                  <timebase>25</timebase>
                </rate>
                <in>32284</in>
                <out>32341</out>
                <start>32284</start>
                <end>32341</end>
                <file id="src-1"/>
                <sourcetrack>
                  <mediatype>video</mediatype>
                  <trackindex>1</trackindex>
                </sourcetrack>
                <multiclip id="mcs-324">
                  <name>MCS-324</name>
                  <masterclipid>clip-master</masterclipid>
                  <collapsed>false</collapsed>
                  <angle>
                    <activevideoangle>true</activevideoangle>
                    <activeaudioangle>true</activeaudioangle>
                    <clip id="clip-1"/>
                  </angle>
                  <angle>
                    <activevideoangle>false</activevideoangle>
                    <activeaudioangle>false</activeaudioangle>
                    <clip id="clip-2"/>
                  </angle>
                  <angle>
                    <activevideoangle>false</activevideoangle>
                    <activeaudioangle>false</activeaudioangle>
                    <clip id="clip-3"/>
                  </angle>
                  <angle>
                    <activevideoangle>false</activevideoangle>
                    <activeaudioangle>false</activeaudioangle>
                    <clip id="clip-4"/>
                  </angle>
                  <angle>
                    <activevideoangle>false</activevideoangle>
                    <activeaudioangle>false</activeaudioangle>
                    <clip id="clip-5"/>
                  </angle>
                  <angle>
                    <activevideoangle>false</activevideoangle>
                    <activeaudioangle>false</activeaudioangle>
                    <clip id="clip-6"/>
                  </angle>
                  <angle>
                    <activevideoangle>false</activevideoangle>
                    <activeaudioangle>false</activeaudioangle>
                    <clip id="clip-7"/>
                  </angle>
                  <masterclipid>clip-master</masterclipid>
                </multiclip>
              </clipitem>
              <clipitem id="cs-325">
                <duration>98</duration>
                <rate>
                  <ntsc>false</ntsc>
                  <timebase>25</timebase>
                </rate>
                <in>32341</in>
                <out>32438</out>
                <start>32341</start>
                <end>32438</end>
                <file id="src-4"/>
                <sourcetrack>
                  <mediatype>video</mediatype>
                  <trackindex>1</trackindex>
                </sourcetrack>
                <multiclip id="mcs-325">
                  <name>MCS-325</name>
                  <masterclipid>clip-master</masterclipid>
                  <collapsed>false</collapsed>
                  <angle>
                    <activevideoangle>false</activevideoangle>
                    <activeaudioangle>false</activeaudioangle>
                    <clip id="clip-1"/>
                  </angle>
                  <angle>
                    <activevideoangle>false</activevideoangle>
                    <activeaudioangle>false</activeaudioangle>
                    <clip id="clip-2"/>
                  </angle>
                  <angle>
                    <activevideoangle>false</activevideoangle>
                    <activeaudioangle>false</activeaudioangle>
                    <clip id="clip-3"/>
                  </angle>
                  <angle>
                    <activevideoangle>true</activevideoangle>
                    <activeaudioangle>true</activeaudioangle>
                    <clip id="clip-4"/>
                  </angle>
                  <angle>
                    <activevideoangle>false</activevideoangle>
                    <activeaudioangle>false</activeaudioangle>
                    <clip id="clip-5"/>
                  </angle>
                  <angle>
                    <activevideoangle>false</activevideoangle>
                    <activeaudioangle>false</activeaudioangle>
                    <clip id="clip-6"/>
                  </angle>
                  <angle>
                    <activevideoangle>false</activevideoangle>
                    <activeaudioangle>false</activeaudioangle>
                    <clip id="clip-7"/>
                  </angle>
                  <masterclipid>clip-master</masterclipid>
                </multiclip>
              </clipitem>
              <clipitem id="cs-326">
                <duration>87</duration>
                <rate>
                  <ntsc>false</ntsc>
                  <timebase>25</timebase>
                </rate>
                <in>32438</in>
                <out>32524</out>
                <start>32438</start>
                <end>32524</end>
                <file id="src-1"/>
                <sourcetrack>
                  <mediatype>video</mediatype>
                  <trackindex>1</trackindex>
                </sourcetrack>
                <multiclip id="mcs-326">
                  <name>MCS-326</name>
                  <masterclipid>clip-master</masterclipid>
                  <collapsed>false</collapsed>
                  <angle>
                    <activevideoangle>true</activevideoangle>
                    <activeaudioangle>true</activeaudioangle>
                    <clip id="clip-1"/>
                  </angle>
                  <angle>
                    <activevideoangle>false</activevideoangle>
                    <activeaudioangle>false</activeaudioangle>
                    <clip id="clip-2"/>
                  </angle>
                  <angle>
                    <activevideoangle>false</activevideoangle>
                    <activeaudioangle>false</activeaudioangle>
                    <clip id="clip-3"/>
                  </angle>
                  <angle>
                    <activevideoangle>false</activevideoangle>
                    <activeaudioangle>false</activeaudioangle>
                    <clip id="clip-4"/>
                  </angle>
                  <angle>
                    <activevideoangle>false</activevideoangle>
                    <activeaudioangle>false</activeaudioangle>
                    <clip id="clip-5"/>
                  </angle>
                  <angle>
                    <activevideoangle>false</activevideoangle>
                    <activeaudioangle>false</activeaudioangle>
                    <clip id="clip-6"/>
                  </angle>
                  <angle>
                    <activevideoangle>false</activevideoangle>
                    <activeaudioangle>false</activeaudioangle>
                    <clip id="clip-7"/>
                  </angle>
                  <masterclipid>clip-master</masterclipid>
                </multiclip>
              </clipitem>
              <clipitem id="cs-327">
                <duration>308</duration>
                <rate>
                  <ntsc>false</ntsc>
                  <timebase>25</timebase>
                </rate>
                <in>32524</in>
                <out>32831</out>
                <start>32524</start>
                <end>32831</end>
                <file id="src-2"/>
                <sourcetrack>
                  <mediatype>video</mediatype>
                  <trackindex>1</trackindex>
                </sourcetrack>
                <multiclip id="mcs-327">
                  <name>MCS-327</name>
                  <masterclipid>clip-master</masterclipid>
                  <collapsed>false</collapsed>
                  <angle>
                    <activevideoangle>false</activevideoangle>
                    <activeaudioangle>false</activeaudioangle>
                    <clip id="clip-1"/>
                  </angle>
                  <angle>
                    <activevideoangle>true</activevideoangle>
                    <activeaudioangle>true</activeaudioangle>
                    <clip id="clip-2"/>
                  </angle>
                  <angle>
                    <activevideoangle>false</activevideoangle>
                    <activeaudioangle>false</activeaudioangle>
                    <clip id="clip-3"/>
                  </angle>
                  <angle>
                    <activevideoangle>false</activevideoangle>
                    <activeaudioangle>false</activeaudioangle>
                    <clip id="clip-4"/>
                  </angle>
                  <angle>
                    <activevideoangle>false</activevideoangle>
                    <activeaudioangle>false</activeaudioangle>
                    <clip id="clip-5"/>
                  </angle>
                  <angle>
                    <activevideoangle>false</activevideoangle>
                    <activeaudioangle>false</activeaudioangle>
                    <clip id="clip-6"/>
                  </angle>
                  <angle>
                    <activevideoangle>false</activevideoangle>
                    <activeaudioangle>false</activeaudioangle>
                    <clip id="clip-7"/>
                  </angle>
                  <masterclipid>clip-master</masterclipid>
                </multiclip>
              </clipitem>
              <clipitem id="cs-328">
                <duration>61</duration>
                <rate>
                  <ntsc>false</ntsc>
                  <timebase>25</timebase>
                </rate>
                <in>32831</in>
                <out>32891</out>
                <start>32831</start>
                <end>32891</end>
                <file id="src-3"/>
                <sourcetrack>
                  <mediatype>video</mediatype>
                  <trackindex>1</trackindex>
                </sourcetrack>
                <multiclip id="mcs-328">
                  <name>MCS-328</name>
                  <masterclipid>clip-master</masterclipid>
                  <collapsed>false</collapsed>
                  <angle>
                    <activevideoangle>false</activevideoangle>
                    <activeaudioangle>false</activeaudioangle>
                    <clip id="clip-1"/>
                  </angle>
                  <angle>
                    <activevideoangle>false</activevideoangle>
                    <activeaudioangle>false</activeaudioangle>
                    <clip id="clip-2"/>
                  </angle>
                  <angle>
                    <activevideoangle>true</activevideoangle>
                    <activeaudioangle>true</activeaudioangle>
                    <clip id="clip-3"/>
                  </angle>
                  <angle>
                    <activevideoangle>false</activevideoangle>
                    <activeaudioangle>false</activeaudioangle>
                    <clip id="clip-4"/>
                  </angle>
                  <angle>
                    <activevideoangle>false</activevideoangle>
                    <activeaudioangle>false</activeaudioangle>
                    <clip id="clip-5"/>
                  </angle>
                  <angle>
                    <activevideoangle>false</activevideoangle>
                    <activeaudioangle>false</activeaudioangle>
                    <clip id="clip-6"/>
                  </angle>
                  <angle>
                    <activevideoangle>false</activevideoangle>
                    <activeaudioangle>false</activeaudioangle>
                    <clip id="clip-7"/>
                  </angle>
                  <masterclipid>clip-master</masterclipid>
                </multiclip>
              </clipitem>
              <clipitem id="cs-329">
                <duration>134</duration>
                <rate>
                  <ntsc>false</ntsc>
                  <timebase>25</timebase>
                </rate>
                <in>32891</in>
                <out>33024</out>
                <start>32891</start>
                <end>33024</end>
                <file id="src-4"/>
                <sourcetrack>
                  <mediatype>video</mediatype>
                  <trackindex>1</trackindex>
                </sourcetrack>
                <multiclip id="mcs-329">
                  <name>MCS-329</name>
                  <masterclipid>clip-master</masterclipid>
                  <collapsed>false</collapsed>
                  <angle>
                    <activevideoangle>false</activevideoangle>
                    <activeaudioangle>false</activeaudioangle>
                    <clip id="clip-1"/>
                  </angle>
                  <angle>
                    <activevideoangle>false</activevideoangle>
                    <activeaudioangle>false</activeaudioangle>
                    <clip id="clip-2"/>
                  </angle>
                  <angle>
                    <activevideoangle>false</activevideoangle>
                    <activeaudioangle>false</activeaudioangle>
                    <clip id="clip-3"/>
                  </angle>
                  <angle>
                    <activevideoangle>true</activevideoangle>
                    <activeaudioangle>true</activeaudioangle>
                    <clip id="clip-4"/>
                  </angle>
                  <angle>
                    <activevideoangle>false</activevideoangle>
                    <activeaudioangle>false</activeaudioangle>
                    <clip id="clip-5"/>
                  </angle>
                  <angle>
                    <activevideoangle>false</activevideoangle>
                    <activeaudioangle>false</activeaudioangle>
                    <clip id="clip-6"/>
                  </angle>
                  <angle>
                    <activevideoangle>false</activevideoangle>
                    <activeaudioangle>false</activeaudioangle>
                    <clip id="clip-7"/>
                  </angle>
                  <masterclipid>clip-master</masterclipid>
                </multiclip>
              </clipitem>
              <clipitem id="cs-330">
                <duration>124</duration>
                <rate>
                  <ntsc>false</ntsc>
                  <timebase>25</timebase>
                </rate>
                <in>33024</in>
                <out>33147</out>
                <start>33024</start>
                <end>33147</end>
                <file id="src-2"/>
                <sourcetrack>
                  <mediatype>video</mediatype>
                  <trackindex>1</trackindex>
                </sourcetrack>
                <multiclip id="mcs-330">
                  <name>MCS-330</name>
                  <masterclipid>clip-master</masterclipid>
                  <collapsed>false</collapsed>
                  <angle>
                    <activevideoangle>false</activevideoangle>
                    <activeaudioangle>false</activeaudioangle>
                    <clip id="clip-1"/>
                  </angle>
                  <angle>
                    <activevideoangle>true</activevideoangle>
                    <activeaudioangle>true</activeaudioangle>
                    <clip id="clip-2"/>
                  </angle>
                  <angle>
                    <activevideoangle>false</activevideoangle>
                    <activeaudioangle>false</activeaudioangle>
                    <clip id="clip-3"/>
                  </angle>
                  <angle>
                    <activevideoangle>false</activevideoangle>
                    <activeaudioangle>false</activeaudioangle>
                    <clip id="clip-4"/>
                  </angle>
                  <angle>
                    <activevideoangle>false</activevideoangle>
                    <activeaudioangle>false</activeaudioangle>
                    <clip id="clip-5"/>
                  </angle>
                  <angle>
                    <activevideoangle>false</activevideoangle>
                    <activeaudioangle>false</activeaudioangle>
                    <clip id="clip-6"/>
                  </angle>
                  <angle>
                    <activevideoangle>false</activevideoangle>
                    <activeaudioangle>false</activeaudioangle>
                    <clip id="clip-7"/>
                  </angle>
                  <masterclipid>clip-master</masterclipid>
                </multiclip>
              </clipitem>
              <clipitem id="cs-331">
                <duration>65</duration>
                <rate>
                  <ntsc>false</ntsc>
                  <timebase>25</timebase>
                </rate>
                <in>33147</in>
                <out>33211</out>
                <start>33147</start>
                <end>33211</end>
                <file id="src-3"/>
                <sourcetrack>
                  <mediatype>video</mediatype>
                  <trackindex>1</trackindex>
                </sourcetrack>
                <multiclip id="mcs-331">
                  <name>MCS-331</name>
                  <masterclipid>clip-master</masterclipid>
                  <collapsed>false</collapsed>
                  <angle>
                    <activevideoangle>false</activevideoangle>
                    <activeaudioangle>false</activeaudioangle>
                    <clip id="clip-1"/>
                  </angle>
                  <angle>
                    <activevideoangle>false</activevideoangle>
                    <activeaudioangle>false</activeaudioangle>
                    <clip id="clip-2"/>
                  </angle>
                  <angle>
                    <activevideoangle>true</activevideoangle>
                    <activeaudioangle>true</activeaudioangle>
                    <clip id="clip-3"/>
                  </angle>
                  <angle>
                    <activevideoangle>false</activevideoangle>
                    <activeaudioangle>false</activeaudioangle>
                    <clip id="clip-4"/>
                  </angle>
                  <angle>
                    <activevideoangle>false</activevideoangle>
                    <activeaudioangle>false</activeaudioangle>
                    <clip id="clip-5"/>
                  </angle>
                  <angle>
                    <activevideoangle>false</activevideoangle>
                    <activeaudioangle>false</activeaudioangle>
                    <clip id="clip-6"/>
                  </angle>
                  <angle>
                    <activevideoangle>false</activevideoangle>
                    <activeaudioangle>false</activeaudioangle>
                    <clip id="clip-7"/>
                  </angle>
                  <masterclipid>clip-master</masterclipid>
                </multiclip>
              </clipitem>
              <clipitem id="cs-332">
                <duration>96</duration>
                <rate>
                  <ntsc>false</ntsc>
                  <timebase>25</timebase>
                </rate>
                <in>33211</in>
                <out>33306</out>
                <start>33211</start>
                <end>33306</end>
                <file id="src-2"/>
                <sourcetrack>
                  <mediatype>video</mediatype>
                  <trackindex>1</trackindex>
                </sourcetrack>
                <multiclip id="mcs-332">
                  <name>MCS-332</name>
                  <masterclipid>clip-master</masterclipid>
                  <collapsed>false</collapsed>
                  <angle>
                    <activevideoangle>false</activevideoangle>
                    <activeaudioangle>false</activeaudioangle>
                    <clip id="clip-1"/>
                  </angle>
                  <angle>
                    <activevideoangle>true</activevideoangle>
                    <activeaudioangle>true</activeaudioangle>
                    <clip id="clip-2"/>
                  </angle>
                  <angle>
                    <activevideoangle>false</activevideoangle>
                    <activeaudioangle>false</activeaudioangle>
                    <clip id="clip-3"/>
                  </angle>
                  <angle>
                    <activevideoangle>false</activevideoangle>
                    <activeaudioangle>false</activeaudioangle>
                    <clip id="clip-4"/>
                  </angle>
                  <angle>
                    <activevideoangle>false</activevideoangle>
                    <activeaudioangle>false</activeaudioangle>
                    <clip id="clip-5"/>
                  </angle>
                  <angle>
                    <activevideoangle>false</activevideoangle>
                    <activeaudioangle>false</activeaudioangle>
                    <clip id="clip-6"/>
                  </angle>
                  <angle>
                    <activevideoangle>false</activevideoangle>
                    <activeaudioangle>false</activeaudioangle>
                    <clip id="clip-7"/>
                  </angle>
                  <masterclipid>clip-master</masterclipid>
                </multiclip>
              </clipitem>
              <clipitem id="cs-333">
                <duration>84</duration>
                <rate>
                  <ntsc>false</ntsc>
                  <timebase>25</timebase>
                </rate>
                <in>33306</in>
                <out>33389</out>
                <start>33306</start>
                <end>33389</end>
                <file id="src-4"/>
                <sourcetrack>
                  <mediatype>video</mediatype>
                  <trackindex>1</trackindex>
                </sourcetrack>
                <multiclip id="mcs-333">
                  <name>MCS-333</name>
                  <masterclipid>clip-master</masterclipid>
                  <collapsed>false</collapsed>
                  <angle>
                    <activevideoangle>false</activevideoangle>
                    <activeaudioangle>false</activeaudioangle>
                    <clip id="clip-1"/>
                  </angle>
                  <angle>
                    <activevideoangle>false</activevideoangle>
                    <activeaudioangle>false</activeaudioangle>
                    <clip id="clip-2"/>
                  </angle>
                  <angle>
                    <activevideoangle>false</activevideoangle>
                    <activeaudioangle>false</activeaudioangle>
                    <clip id="clip-3"/>
                  </angle>
                  <angle>
                    <activevideoangle>true</activevideoangle>
                    <activeaudioangle>true</activeaudioangle>
                    <clip id="clip-4"/>
                  </angle>
                  <angle>
                    <activevideoangle>false</activevideoangle>
                    <activeaudioangle>false</activeaudioangle>
                    <clip id="clip-5"/>
                  </angle>
                  <angle>
                    <activevideoangle>false</activevideoangle>
                    <activeaudioangle>false</activeaudioangle>
                    <clip id="clip-6"/>
                  </angle>
                  <angle>
                    <activevideoangle>false</activevideoangle>
                    <activeaudioangle>false</activeaudioangle>
                    <clip id="clip-7"/>
                  </angle>
                  <masterclipid>clip-master</masterclipid>
                </multiclip>
              </clipitem>
              <clipitem id="cs-334">
                <duration>104</duration>
                <rate>
                  <ntsc>false</ntsc>
                  <timebase>25</timebase>
                </rate>
                <in>33389</in>
                <out>33492</out>
                <start>33389</start>
                <end>33492</end>
                <file id="src-2"/>
                <sourcetrack>
                  <mediatype>video</mediatype>
                  <trackindex>1</trackindex>
                </sourcetrack>
                <multiclip id="mcs-334">
                  <name>MCS-334</name>
                  <masterclipid>clip-master</masterclipid>
                  <collapsed>false</collapsed>
                  <angle>
                    <activevideoangle>false</activevideoangle>
                    <activeaudioangle>false</activeaudioangle>
                    <clip id="clip-1"/>
                  </angle>
                  <angle>
                    <activevideoangle>true</activevideoangle>
                    <activeaudioangle>true</activeaudioangle>
                    <clip id="clip-2"/>
                  </angle>
                  <angle>
                    <activevideoangle>false</activevideoangle>
                    <activeaudioangle>false</activeaudioangle>
                    <clip id="clip-3"/>
                  </angle>
                  <angle>
                    <activevideoangle>false</activevideoangle>
                    <activeaudioangle>false</activeaudioangle>
                    <clip id="clip-4"/>
                  </angle>
                  <angle>
                    <activevideoangle>false</activevideoangle>
                    <activeaudioangle>false</activeaudioangle>
                    <clip id="clip-5"/>
                  </angle>
                  <angle>
                    <activevideoangle>false</activevideoangle>
                    <activeaudioangle>false</activeaudioangle>
                    <clip id="clip-6"/>
                  </angle>
                  <angle>
                    <activevideoangle>false</activevideoangle>
                    <activeaudioangle>false</activeaudioangle>
                    <clip id="clip-7"/>
                  </angle>
                  <masterclipid>clip-master</masterclipid>
                </multiclip>
              </clipitem>
              <clipitem id="cs-335">
                <duration>97</duration>
                <rate>
                  <ntsc>false</ntsc>
                  <timebase>25</timebase>
                </rate>
                <in>33492</in>
                <out>33588</out>
                <start>33492</start>
                <end>33588</end>
                <file id="src-3"/>
                <sourcetrack>
                  <mediatype>video</mediatype>
                  <trackindex>1</trackindex>
                </sourcetrack>
                <multiclip id="mcs-335">
                  <name>MCS-335</name>
                  <masterclipid>clip-master</masterclipid>
                  <collapsed>false</collapsed>
                  <angle>
                    <activevideoangle>false</activevideoangle>
                    <activeaudioangle>false</activeaudioangle>
                    <clip id="clip-1"/>
                  </angle>
                  <angle>
                    <activevideoangle>false</activevideoangle>
                    <activeaudioangle>false</activeaudioangle>
                    <clip id="clip-2"/>
                  </angle>
                  <angle>
                    <activevideoangle>true</activevideoangle>
                    <activeaudioangle>true</activeaudioangle>
                    <clip id="clip-3"/>
                  </angle>
                  <angle>
                    <activevideoangle>false</activevideoangle>
                    <activeaudioangle>false</activeaudioangle>
                    <clip id="clip-4"/>
                  </angle>
                  <angle>
                    <activevideoangle>false</activevideoangle>
                    <activeaudioangle>false</activeaudioangle>
                    <clip id="clip-5"/>
                  </angle>
                  <angle>
                    <activevideoangle>false</activevideoangle>
                    <activeaudioangle>false</activeaudioangle>
                    <clip id="clip-6"/>
                  </angle>
                  <angle>
                    <activevideoangle>false</activevideoangle>
                    <activeaudioangle>false</activeaudioangle>
                    <clip id="clip-7"/>
                  </angle>
                  <masterclipid>clip-master</masterclipid>
                </multiclip>
              </clipitem>
              <clipitem id="cs-336">
                <duration>60</duration>
                <rate>
                  <ntsc>false</ntsc>
                  <timebase>25</timebase>
                </rate>
                <in>33588</in>
                <out>33647</out>
                <start>33588</start>
                <end>33647</end>
                <file id="src-6"/>
                <sourcetrack>
                  <mediatype>video</mediatype>
                  <trackindex>1</trackindex>
                </sourcetrack>
                <multiclip id="mcs-336">
                  <name>MCS-336</name>
                  <masterclipid>clip-master</masterclipid>
                  <collapsed>false</collapsed>
                  <angle>
                    <activevideoangle>false</activevideoangle>
                    <activeaudioangle>false</activeaudioangle>
                    <clip id="clip-1"/>
                  </angle>
                  <angle>
                    <activevideoangle>false</activevideoangle>
                    <activeaudioangle>false</activeaudioangle>
                    <clip id="clip-2"/>
                  </angle>
                  <angle>
                    <activevideoangle>false</activevideoangle>
                    <activeaudioangle>false</activeaudioangle>
                    <clip id="clip-3"/>
                  </angle>
                  <angle>
                    <activevideoangle>false</activevideoangle>
                    <activeaudioangle>false</activeaudioangle>
                    <clip id="clip-4"/>
                  </angle>
                  <angle>
                    <activevideoangle>false</activevideoangle>
                    <activeaudioangle>false</activeaudioangle>
                    <clip id="clip-5"/>
                  </angle>
                  <angle>
                    <activevideoangle>true</activevideoangle>
                    <activeaudioangle>true</activeaudioangle>
                    <clip id="clip-6"/>
                  </angle>
                  <angle>
                    <activevideoangle>false</activevideoangle>
                    <activeaudioangle>false</activeaudioangle>
                    <clip id="clip-7"/>
                  </angle>
                  <masterclipid>clip-master</masterclipid>
                </multiclip>
              </clipitem>
              <clipitem id="cs-337">
                <duration>62</duration>
                <rate>
                  <ntsc>false</ntsc>
                  <timebase>25</timebase>
                </rate>
                <in>33647</in>
                <out>33708</out>
                <start>33647</start>
                <end>33708</end>
                <file id="src-1"/>
                <sourcetrack>
                  <mediatype>video</mediatype>
                  <trackindex>1</trackindex>
                </sourcetrack>
                <multiclip id="mcs-337">
                  <name>MCS-337</name>
                  <masterclipid>clip-master</masterclipid>
                  <collapsed>false</collapsed>
                  <angle>
                    <activevideoangle>true</activevideoangle>
                    <activeaudioangle>true</activeaudioangle>
                    <clip id="clip-1"/>
                  </angle>
                  <angle>
                    <activevideoangle>false</activevideoangle>
                    <activeaudioangle>false</activeaudioangle>
                    <clip id="clip-2"/>
                  </angle>
                  <angle>
                    <activevideoangle>false</activevideoangle>
                    <activeaudioangle>false</activeaudioangle>
                    <clip id="clip-3"/>
                  </angle>
                  <angle>
                    <activevideoangle>false</activevideoangle>
                    <activeaudioangle>false</activeaudioangle>
                    <clip id="clip-4"/>
                  </angle>
                  <angle>
                    <activevideoangle>false</activevideoangle>
                    <activeaudioangle>false</activeaudioangle>
                    <clip id="clip-5"/>
                  </angle>
                  <angle>
                    <activevideoangle>false</activevideoangle>
                    <activeaudioangle>false</activeaudioangle>
                    <clip id="clip-6"/>
                  </angle>
                  <angle>
                    <activevideoangle>false</activevideoangle>
                    <activeaudioangle>false</activeaudioangle>
                    <clip id="clip-7"/>
                  </angle>
                  <masterclipid>clip-master</masterclipid>
                </multiclip>
              </clipitem>
              <clipitem id="cs-338">
                <duration>91</duration>
                <rate>
                  <ntsc>false</ntsc>
                  <timebase>25</timebase>
                </rate>
                <in>33708</in>
                <out>33798</out>
                <start>33708</start>
                <end>33798</end>
                <file id="src-2"/>
                <sourcetrack>
                  <mediatype>video</mediatype>
                  <trackindex>1</trackindex>
                </sourcetrack>
                <multiclip id="mcs-338">
                  <name>MCS-338</name>
                  <masterclipid>clip-master</masterclipid>
                  <collapsed>false</collapsed>
                  <angle>
                    <activevideoangle>false</activevideoangle>
                    <activeaudioangle>false</activeaudioangle>
                    <clip id="clip-1"/>
                  </angle>
                  <angle>
                    <activevideoangle>true</activevideoangle>
                    <activeaudioangle>true</activeaudioangle>
                    <clip id="clip-2"/>
                  </angle>
                  <angle>
                    <activevideoangle>false</activevideoangle>
                    <activeaudioangle>false</activeaudioangle>
                    <clip id="clip-3"/>
                  </angle>
                  <angle>
                    <activevideoangle>false</activevideoangle>
                    <activeaudioangle>false</activeaudioangle>
                    <clip id="clip-4"/>
                  </angle>
                  <angle>
                    <activevideoangle>false</activevideoangle>
                    <activeaudioangle>false</activeaudioangle>
                    <clip id="clip-5"/>
                  </angle>
                  <angle>
                    <activevideoangle>false</activevideoangle>
                    <activeaudioangle>false</activeaudioangle>
                    <clip id="clip-6"/>
                  </angle>
                  <angle>
                    <activevideoangle>false</activevideoangle>
                    <activeaudioangle>false</activeaudioangle>
                    <clip id="clip-7"/>
                  </angle>
                  <masterclipid>clip-master</masterclipid>
                </multiclip>
              </clipitem>
              <clipitem id="cs-339">
                <duration>115</duration>
                <rate>
                  <ntsc>false</ntsc>
                  <timebase>25</timebase>
                </rate>
                <in>33798</in>
                <out>33912</out>
                <start>33798</start>
                <end>33912</end>
                <file id="src-4"/>
                <sourcetrack>
                  <mediatype>video</mediatype>
                  <trackindex>1</trackindex>
                </sourcetrack>
                <multiclip id="mcs-339">
                  <name>MCS-339</name>
                  <masterclipid>clip-master</masterclipid>
                  <collapsed>false</collapsed>
                  <angle>
                    <activevideoangle>false</activevideoangle>
                    <activeaudioangle>false</activeaudioangle>
                    <clip id="clip-1"/>
                  </angle>
                  <angle>
                    <activevideoangle>false</activevideoangle>
                    <activeaudioangle>false</activeaudioangle>
                    <clip id="clip-2"/>
                  </angle>
                  <angle>
                    <activevideoangle>false</activevideoangle>
                    <activeaudioangle>false</activeaudioangle>
                    <clip id="clip-3"/>
                  </angle>
                  <angle>
                    <activevideoangle>true</activevideoangle>
                    <activeaudioangle>true</activeaudioangle>
                    <clip id="clip-4"/>
                  </angle>
                  <angle>
                    <activevideoangle>false</activevideoangle>
                    <activeaudioangle>false</activeaudioangle>
                    <clip id="clip-5"/>
                  </angle>
                  <angle>
                    <activevideoangle>false</activevideoangle>
                    <activeaudioangle>false</activeaudioangle>
                    <clip id="clip-6"/>
                  </angle>
                  <angle>
                    <activevideoangle>false</activevideoangle>
                    <activeaudioangle>false</activeaudioangle>
                    <clip id="clip-7"/>
                  </angle>
                  <masterclipid>clip-master</masterclipid>
                </multiclip>
              </clipitem>
              <clipitem id="cs-340">
                <duration>113</duration>
                <rate>
                  <ntsc>false</ntsc>
                  <timebase>25</timebase>
                </rate>
                <in>33912</in>
                <out>34024</out>
                <start>33912</start>
                <end>34024</end>
                <file id="src-2"/>
                <sourcetrack>
                  <mediatype>video</mediatype>
                  <trackindex>1</trackindex>
                </sourcetrack>
                <multiclip id="mcs-340">
                  <name>MCS-340</name>
                  <masterclipid>clip-master</masterclipid>
                  <collapsed>false</collapsed>
                  <angle>
                    <activevideoangle>false</activevideoangle>
                    <activeaudioangle>false</activeaudioangle>
                    <clip id="clip-1"/>
                  </angle>
                  <angle>
                    <activevideoangle>true</activevideoangle>
                    <activeaudioangle>true</activeaudioangle>
                    <clip id="clip-2"/>
                  </angle>
                  <angle>
                    <activevideoangle>false</activevideoangle>
                    <activeaudioangle>false</activeaudioangle>
                    <clip id="clip-3"/>
                  </angle>
                  <angle>
                    <activevideoangle>false</activevideoangle>
                    <activeaudioangle>false</activeaudioangle>
                    <clip id="clip-4"/>
                  </angle>
                  <angle>
                    <activevideoangle>false</activevideoangle>
                    <activeaudioangle>false</activeaudioangle>
                    <clip id="clip-5"/>
                  </angle>
                  <angle>
                    <activevideoangle>false</activevideoangle>
                    <activeaudioangle>false</activeaudioangle>
                    <clip id="clip-6"/>
                  </angle>
                  <angle>
                    <activevideoangle>false</activevideoangle>
                    <activeaudioangle>false</activeaudioangle>
                    <clip id="clip-7"/>
                  </angle>
                  <masterclipid>clip-master</masterclipid>
                </multiclip>
              </clipitem>
              <clipitem id="cs-341">
                <duration>168</duration>
                <rate>
                  <ntsc>false</ntsc>
                  <timebase>25</timebase>
                </rate>
                <in>34024</in>
                <out>34191</out>
                <start>34024</start>
                <end>34191</end>
                <file id="src-3"/>
                <sourcetrack>
                  <mediatype>video</mediatype>
                  <trackindex>1</trackindex>
                </sourcetrack>
                <multiclip id="mcs-341">
                  <name>MCS-341</name>
                  <masterclipid>clip-master</masterclipid>
                  <collapsed>false</collapsed>
                  <angle>
                    <activevideoangle>false</activevideoangle>
                    <activeaudioangle>false</activeaudioangle>
                    <clip id="clip-1"/>
                  </angle>
                  <angle>
                    <activevideoangle>false</activevideoangle>
                    <activeaudioangle>false</activeaudioangle>
                    <clip id="clip-2"/>
                  </angle>
                  <angle>
                    <activevideoangle>true</activevideoangle>
                    <activeaudioangle>true</activeaudioangle>
                    <clip id="clip-3"/>
                  </angle>
                  <angle>
                    <activevideoangle>false</activevideoangle>
                    <activeaudioangle>false</activeaudioangle>
                    <clip id="clip-4"/>
                  </angle>
                  <angle>
                    <activevideoangle>false</activevideoangle>
                    <activeaudioangle>false</activeaudioangle>
                    <clip id="clip-5"/>
                  </angle>
                  <angle>
                    <activevideoangle>false</activevideoangle>
                    <activeaudioangle>false</activeaudioangle>
                    <clip id="clip-6"/>
                  </angle>
                  <angle>
                    <activevideoangle>false</activevideoangle>
                    <activeaudioangle>false</activeaudioangle>
                    <clip id="clip-7"/>
                  </angle>
                  <masterclipid>clip-master</masterclipid>
                </multiclip>
              </clipitem>
              <clipitem id="cs-342">
                <duration>88</duration>
                <rate>
                  <ntsc>false</ntsc>
                  <timebase>25</timebase>
                </rate>
                <in>34191</in>
                <out>34278</out>
                <start>34191</start>
                <end>34278</end>
                <file id="src-4"/>
                <sourcetrack>
                  <mediatype>video</mediatype>
                  <trackindex>1</trackindex>
                </sourcetrack>
                <multiclip id="mcs-342">
                  <name>MCS-342</name>
                  <masterclipid>clip-master</masterclipid>
                  <collapsed>false</collapsed>
                  <angle>
                    <activevideoangle>false</activevideoangle>
                    <activeaudioangle>false</activeaudioangle>
                    <clip id="clip-1"/>
                  </angle>
                  <angle>
                    <activevideoangle>false</activevideoangle>
                    <activeaudioangle>false</activeaudioangle>
                    <clip id="clip-2"/>
                  </angle>
                  <angle>
                    <activevideoangle>false</activevideoangle>
                    <activeaudioangle>false</activeaudioangle>
                    <clip id="clip-3"/>
                  </angle>
                  <angle>
                    <activevideoangle>true</activevideoangle>
                    <activeaudioangle>true</activeaudioangle>
                    <clip id="clip-4"/>
                  </angle>
                  <angle>
                    <activevideoangle>false</activevideoangle>
                    <activeaudioangle>false</activeaudioangle>
                    <clip id="clip-5"/>
                  </angle>
                  <angle>
                    <activevideoangle>false</activevideoangle>
                    <activeaudioangle>false</activeaudioangle>
                    <clip id="clip-6"/>
                  </angle>
                  <angle>
                    <activevideoangle>false</activevideoangle>
                    <activeaudioangle>false</activeaudioangle>
                    <clip id="clip-7"/>
                  </angle>
                  <masterclipid>clip-master</masterclipid>
                </multiclip>
              </clipitem>
              <clipitem id="cs-343">
                <duration>150</duration>
                <rate>
                  <ntsc>false</ntsc>
                  <timebase>25</timebase>
                </rate>
                <in>34278</in>
                <out>34427</out>
                <start>34278</start>
                <end>34427</end>
                <file id="src-3"/>
                <sourcetrack>
                  <mediatype>video</mediatype>
                  <trackindex>1</trackindex>
                </sourcetrack>
                <multiclip id="mcs-343">
                  <name>MCS-343</name>
                  <masterclipid>clip-master</masterclipid>
                  <collapsed>false</collapsed>
                  <angle>
                    <activevideoangle>false</activevideoangle>
                    <activeaudioangle>false</activeaudioangle>
                    <clip id="clip-1"/>
                  </angle>
                  <angle>
                    <activevideoangle>false</activevideoangle>
                    <activeaudioangle>false</activeaudioangle>
                    <clip id="clip-2"/>
                  </angle>
                  <angle>
                    <activevideoangle>true</activevideoangle>
                    <activeaudioangle>true</activeaudioangle>
                    <clip id="clip-3"/>
                  </angle>
                  <angle>
                    <activevideoangle>false</activevideoangle>
                    <activeaudioangle>false</activeaudioangle>
                    <clip id="clip-4"/>
                  </angle>
                  <angle>
                    <activevideoangle>false</activevideoangle>
                    <activeaudioangle>false</activeaudioangle>
                    <clip id="clip-5"/>
                  </angle>
                  <angle>
                    <activevideoangle>false</activevideoangle>
                    <activeaudioangle>false</activeaudioangle>
                    <clip id="clip-6"/>
                  </angle>
                  <angle>
                    <activevideoangle>false</activevideoangle>
                    <activeaudioangle>false</activeaudioangle>
                    <clip id="clip-7"/>
                  </angle>
                  <masterclipid>clip-master</masterclipid>
                </multiclip>
              </clipitem>
              <clipitem id="cs-344">
                <duration>83</duration>
                <rate>
                  <ntsc>false</ntsc>
                  <timebase>25</timebase>
                </rate>
                <in>34427</in>
                <out>34509</out>
                <start>34427</start>
                <end>34509</end>
                <file id="src-2"/>
                <sourcetrack>
                  <mediatype>video</mediatype>
                  <trackindex>1</trackindex>
                </sourcetrack>
                <multiclip id="mcs-344">
                  <name>MCS-344</name>
                  <masterclipid>clip-master</masterclipid>
                  <collapsed>false</collapsed>
                  <angle>
                    <activevideoangle>false</activevideoangle>
                    <activeaudioangle>false</activeaudioangle>
                    <clip id="clip-1"/>
                  </angle>
                  <angle>
                    <activevideoangle>true</activevideoangle>
                    <activeaudioangle>true</activeaudioangle>
                    <clip id="clip-2"/>
                  </angle>
                  <angle>
                    <activevideoangle>false</activevideoangle>
                    <activeaudioangle>false</activeaudioangle>
                    <clip id="clip-3"/>
                  </angle>
                  <angle>
                    <activevideoangle>false</activevideoangle>
                    <activeaudioangle>false</activeaudioangle>
                    <clip id="clip-4"/>
                  </angle>
                  <angle>
                    <activevideoangle>false</activevideoangle>
                    <activeaudioangle>false</activeaudioangle>
                    <clip id="clip-5"/>
                  </angle>
                  <angle>
                    <activevideoangle>false</activevideoangle>
                    <activeaudioangle>false</activeaudioangle>
                    <clip id="clip-6"/>
                  </angle>
                  <angle>
                    <activevideoangle>false</activevideoangle>
                    <activeaudioangle>false</activeaudioangle>
                    <clip id="clip-7"/>
                  </angle>
                  <masterclipid>clip-master</masterclipid>
                </multiclip>
              </clipitem>
              <clipitem id="cs-345">
                <duration>142</duration>
                <rate>
                  <ntsc>false</ntsc>
                  <timebase>25</timebase>
                </rate>
                <in>34509</in>
                <out>34650</out>
                <start>34509</start>
                <end>34650</end>
                <file id="src-3"/>
                <sourcetrack>
                  <mediatype>video</mediatype>
                  <trackindex>1</trackindex>
                </sourcetrack>
                <multiclip id="mcs-345">
                  <name>MCS-345</name>
                  <masterclipid>clip-master</masterclipid>
                  <collapsed>false</collapsed>
                  <angle>
                    <activevideoangle>false</activevideoangle>
                    <activeaudioangle>false</activeaudioangle>
                    <clip id="clip-1"/>
                  </angle>
                  <angle>
                    <activevideoangle>false</activevideoangle>
                    <activeaudioangle>false</activeaudioangle>
                    <clip id="clip-2"/>
                  </angle>
                  <angle>
                    <activevideoangle>true</activevideoangle>
                    <activeaudioangle>true</activeaudioangle>
                    <clip id="clip-3"/>
                  </angle>
                  <angle>
                    <activevideoangle>false</activevideoangle>
                    <activeaudioangle>false</activeaudioangle>
                    <clip id="clip-4"/>
                  </angle>
                  <angle>
                    <activevideoangle>false</activevideoangle>
                    <activeaudioangle>false</activeaudioangle>
                    <clip id="clip-5"/>
                  </angle>
                  <angle>
                    <activevideoangle>false</activevideoangle>
                    <activeaudioangle>false</activeaudioangle>
                    <clip id="clip-6"/>
                  </angle>
                  <angle>
                    <activevideoangle>false</activevideoangle>
                    <activeaudioangle>false</activeaudioangle>
                    <clip id="clip-7"/>
                  </angle>
                  <masterclipid>clip-master</masterclipid>
                </multiclip>
              </clipitem>
              <clipitem id="cs-346">
                <duration>80</duration>
                <rate>
                  <ntsc>false</ntsc>
                  <timebase>25</timebase>
                </rate>
                <in>34650</in>
                <out>34729</out>
                <start>34650</start>
                <end>34729</end>
                <file id="src-5"/>
                <sourcetrack>
                  <mediatype>video</mediatype>
                  <trackindex>1</trackindex>
                </sourcetrack>
                <multiclip id="mcs-346">
                  <name>MCS-346</name>
                  <masterclipid>clip-master</masterclipid>
                  <collapsed>false</collapsed>
                  <angle>
                    <activevideoangle>false</activevideoangle>
                    <activeaudioangle>false</activeaudioangle>
                    <clip id="clip-1"/>
                  </angle>
                  <angle>
                    <activevideoangle>false</activevideoangle>
                    <activeaudioangle>false</activeaudioangle>
                    <clip id="clip-2"/>
                  </angle>
                  <angle>
                    <activevideoangle>false</activevideoangle>
                    <activeaudioangle>false</activeaudioangle>
                    <clip id="clip-3"/>
                  </angle>
                  <angle>
                    <activevideoangle>false</activevideoangle>
                    <activeaudioangle>false</activeaudioangle>
                    <clip id="clip-4"/>
                  </angle>
                  <angle>
                    <activevideoangle>true</activevideoangle>
                    <activeaudioangle>true</activeaudioangle>
                    <clip id="clip-5"/>
                  </angle>
                  <angle>
                    <activevideoangle>false</activevideoangle>
                    <activeaudioangle>false</activeaudioangle>
                    <clip id="clip-6"/>
                  </angle>
                  <angle>
                    <activevideoangle>false</activevideoangle>
                    <activeaudioangle>false</activeaudioangle>
                    <clip id="clip-7"/>
                  </angle>
                  <masterclipid>clip-master</masterclipid>
                </multiclip>
              </clipitem>
              <clipitem id="cs-347">
                <duration>98</duration>
                <rate>
                  <ntsc>false</ntsc>
                  <timebase>25</timebase>
                </rate>
                <in>34729</in>
                <out>34826</out>
                <start>34729</start>
                <end>34826</end>
                <file id="src-2"/>
                <sourcetrack>
                  <mediatype>video</mediatype>
                  <trackindex>1</trackindex>
                </sourcetrack>
                <multiclip id="mcs-347">
                  <name>MCS-347</name>
                  <masterclipid>clip-master</masterclipid>
                  <collapsed>false</collapsed>
                  <angle>
                    <activevideoangle>false</activevideoangle>
                    <activeaudioangle>false</activeaudioangle>
                    <clip id="clip-1"/>
                  </angle>
                  <angle>
                    <activevideoangle>true</activevideoangle>
                    <activeaudioangle>true</activeaudioangle>
                    <clip id="clip-2"/>
                  </angle>
                  <angle>
                    <activevideoangle>false</activevideoangle>
                    <activeaudioangle>false</activeaudioangle>
                    <clip id="clip-3"/>
                  </angle>
                  <angle>
                    <activevideoangle>false</activevideoangle>
                    <activeaudioangle>false</activeaudioangle>
                    <clip id="clip-4"/>
                  </angle>
                  <angle>
                    <activevideoangle>false</activevideoangle>
                    <activeaudioangle>false</activeaudioangle>
                    <clip id="clip-5"/>
                  </angle>
                  <angle>
                    <activevideoangle>false</activevideoangle>
                    <activeaudioangle>false</activeaudioangle>
                    <clip id="clip-6"/>
                  </angle>
                  <angle>
                    <activevideoangle>false</activevideoangle>
                    <activeaudioangle>false</activeaudioangle>
                    <clip id="clip-7"/>
                  </angle>
                  <masterclipid>clip-master</masterclipid>
                </multiclip>
              </clipitem>
              <clipitem id="cs-348">
                <duration>72</duration>
                <rate>
                  <ntsc>false</ntsc>
                  <timebase>25</timebase>
                </rate>
                <in>34826</in>
                <out>34897</out>
                <start>34826</start>
                <end>34897</end>
                <file id="src-4"/>
                <sourcetrack>
                  <mediatype>video</mediatype>
                  <trackindex>1</trackindex>
                </sourcetrack>
                <multiclip id="mcs-348">
                  <name>MCS-348</name>
                  <masterclipid>clip-master</masterclipid>
                  <collapsed>false</collapsed>
                  <angle>
                    <activevideoangle>false</activevideoangle>
                    <activeaudioangle>false</activeaudioangle>
                    <clip id="clip-1"/>
                  </angle>
                  <angle>
                    <activevideoangle>false</activevideoangle>
                    <activeaudioangle>false</activeaudioangle>
                    <clip id="clip-2"/>
                  </angle>
                  <angle>
                    <activevideoangle>false</activevideoangle>
                    <activeaudioangle>false</activeaudioangle>
                    <clip id="clip-3"/>
                  </angle>
                  <angle>
                    <activevideoangle>true</activevideoangle>
                    <activeaudioangle>true</activeaudioangle>
                    <clip id="clip-4"/>
                  </angle>
                  <angle>
                    <activevideoangle>false</activevideoangle>
                    <activeaudioangle>false</activeaudioangle>
                    <clip id="clip-5"/>
                  </angle>
                  <angle>
                    <activevideoangle>false</activevideoangle>
                    <activeaudioangle>false</activeaudioangle>
                    <clip id="clip-6"/>
                  </angle>
                  <angle>
                    <activevideoangle>false</activevideoangle>
                    <activeaudioangle>false</activeaudioangle>
                    <clip id="clip-7"/>
                  </angle>
                  <masterclipid>clip-master</masterclipid>
                </multiclip>
              </clipitem>
              <clipitem id="cs-349">
                <duration>112</duration>
                <rate>
                  <ntsc>false</ntsc>
                  <timebase>25</timebase>
                </rate>
                <in>34897</in>
                <out>35008</out>
                <start>34897</start>
                <end>35008</end>
                <file id="src-3"/>
                <sourcetrack>
                  <mediatype>video</mediatype>
                  <trackindex>1</trackindex>
                </sourcetrack>
                <multiclip id="mcs-349">
                  <name>MCS-349</name>
                  <masterclipid>clip-master</masterclipid>
                  <collapsed>false</collapsed>
                  <angle>
                    <activevideoangle>false</activevideoangle>
                    <activeaudioangle>false</activeaudioangle>
                    <clip id="clip-1"/>
                  </angle>
                  <angle>
                    <activevideoangle>false</activevideoangle>
                    <activeaudioangle>false</activeaudioangle>
                    <clip id="clip-2"/>
                  </angle>
                  <angle>
                    <activevideoangle>true</activevideoangle>
                    <activeaudioangle>true</activeaudioangle>
                    <clip id="clip-3"/>
                  </angle>
                  <angle>
                    <activevideoangle>false</activevideoangle>
                    <activeaudioangle>false</activeaudioangle>
                    <clip id="clip-4"/>
                  </angle>
                  <angle>
                    <activevideoangle>false</activevideoangle>
                    <activeaudioangle>false</activeaudioangle>
                    <clip id="clip-5"/>
                  </angle>
                  <angle>
                    <activevideoangle>false</activevideoangle>
                    <activeaudioangle>false</activeaudioangle>
                    <clip id="clip-6"/>
                  </angle>
                  <angle>
                    <activevideoangle>false</activevideoangle>
                    <activeaudioangle>false</activeaudioangle>
                    <clip id="clip-7"/>
                  </angle>
                  <masterclipid>clip-master</masterclipid>
                </multiclip>
              </clipitem>
              <clipitem id="cs-350">
                <duration>96</duration>
                <rate>
                  <ntsc>false</ntsc>
                  <timebase>25</timebase>
                </rate>
                <in>35008</in>
                <out>35103</out>
                <start>35008</start>
                <end>35103</end>
                <file id="src-2"/>
                <sourcetrack>
                  <mediatype>video</mediatype>
                  <trackindex>1</trackindex>
                </sourcetrack>
                <multiclip id="mcs-350">
                  <name>MCS-350</name>
                  <masterclipid>clip-master</masterclipid>
                  <collapsed>false</collapsed>
                  <angle>
                    <activevideoangle>false</activevideoangle>
                    <activeaudioangle>false</activeaudioangle>
                    <clip id="clip-1"/>
                  </angle>
                  <angle>
                    <activevideoangle>true</activevideoangle>
                    <activeaudioangle>true</activeaudioangle>
                    <clip id="clip-2"/>
                  </angle>
                  <angle>
                    <activevideoangle>false</activevideoangle>
                    <activeaudioangle>false</activeaudioangle>
                    <clip id="clip-3"/>
                  </angle>
                  <angle>
                    <activevideoangle>false</activevideoangle>
                    <activeaudioangle>false</activeaudioangle>
                    <clip id="clip-4"/>
                  </angle>
                  <angle>
                    <activevideoangle>false</activevideoangle>
                    <activeaudioangle>false</activeaudioangle>
                    <clip id="clip-5"/>
                  </angle>
                  <angle>
                    <activevideoangle>false</activevideoangle>
                    <activeaudioangle>false</activeaudioangle>
                    <clip id="clip-6"/>
                  </angle>
                  <angle>
                    <activevideoangle>false</activevideoangle>
                    <activeaudioangle>false</activeaudioangle>
                    <clip id="clip-7"/>
                  </angle>
                  <masterclipid>clip-master</masterclipid>
                </multiclip>
              </clipitem>
              <clipitem id="cs-351">
                <duration>108</duration>
                <rate>
                  <ntsc>false</ntsc>
                  <timebase>25</timebase>
                </rate>
                <in>35103</in>
                <out>35210</out>
                <start>35103</start>
                <end>35210</end>
                <file id="src-3"/>
                <sourcetrack>
                  <mediatype>video</mediatype>
                  <trackindex>1</trackindex>
                </sourcetrack>
                <multiclip id="mcs-351">
                  <name>MCS-351</name>
                  <masterclipid>clip-master</masterclipid>
                  <collapsed>false</collapsed>
                  <angle>
                    <activevideoangle>false</activevideoangle>
                    <activeaudioangle>false</activeaudioangle>
                    <clip id="clip-1"/>
                  </angle>
                  <angle>
                    <activevideoangle>false</activevideoangle>
                    <activeaudioangle>false</activeaudioangle>
                    <clip id="clip-2"/>
                  </angle>
                  <angle>
                    <activevideoangle>true</activevideoangle>
                    <activeaudioangle>true</activeaudioangle>
                    <clip id="clip-3"/>
                  </angle>
                  <angle>
                    <activevideoangle>false</activevideoangle>
                    <activeaudioangle>false</activeaudioangle>
                    <clip id="clip-4"/>
                  </angle>
                  <angle>
                    <activevideoangle>false</activevideoangle>
                    <activeaudioangle>false</activeaudioangle>
                    <clip id="clip-5"/>
                  </angle>
                  <angle>
                    <activevideoangle>false</activevideoangle>
                    <activeaudioangle>false</activeaudioangle>
                    <clip id="clip-6"/>
                  </angle>
                  <angle>
                    <activevideoangle>false</activevideoangle>
                    <activeaudioangle>false</activeaudioangle>
                    <clip id="clip-7"/>
                  </angle>
                  <masterclipid>clip-master</masterclipid>
                </multiclip>
              </clipitem>
              <clipitem id="cs-352">
                <duration>106</duration>
                <rate>
                  <ntsc>false</ntsc>
                  <timebase>25</timebase>
                </rate>
                <in>35210</in>
                <out>35315</out>
                <start>35210</start>
                <end>35315</end>
                <file id="src-2"/>
                <sourcetrack>
                  <mediatype>video</mediatype>
                  <trackindex>1</trackindex>
                </sourcetrack>
                <multiclip id="mcs-352">
                  <name>MCS-352</name>
                  <masterclipid>clip-master</masterclipid>
                  <collapsed>false</collapsed>
                  <angle>
                    <activevideoangle>false</activevideoangle>
                    <activeaudioangle>false</activeaudioangle>
                    <clip id="clip-1"/>
                  </angle>
                  <angle>
                    <activevideoangle>true</activevideoangle>
                    <activeaudioangle>true</activeaudioangle>
                    <clip id="clip-2"/>
                  </angle>
                  <angle>
                    <activevideoangle>false</activevideoangle>
                    <activeaudioangle>false</activeaudioangle>
                    <clip id="clip-3"/>
                  </angle>
                  <angle>
                    <activevideoangle>false</activevideoangle>
                    <activeaudioangle>false</activeaudioangle>
                    <clip id="clip-4"/>
                  </angle>
                  <angle>
                    <activevideoangle>false</activevideoangle>
                    <activeaudioangle>false</activeaudioangle>
                    <clip id="clip-5"/>
                  </angle>
                  <angle>
                    <activevideoangle>false</activevideoangle>
                    <activeaudioangle>false</activeaudioangle>
                    <clip id="clip-6"/>
                  </angle>
                  <angle>
                    <activevideoangle>false</activevideoangle>
                    <activeaudioangle>false</activeaudioangle>
                    <clip id="clip-7"/>
                  </angle>
                  <masterclipid>clip-master</masterclipid>
                </multiclip>
              </clipitem>
              <clipitem id="cs-353">
                <duration>86</duration>
                <rate>
                  <ntsc>false</ntsc>
                  <timebase>25</timebase>
                </rate>
                <in>35315</in>
                <out>35400</out>
                <start>35315</start>
                <end>35400</end>
                <file id="src-3"/>
                <sourcetrack>
                  <mediatype>video</mediatype>
                  <trackindex>1</trackindex>
                </sourcetrack>
                <multiclip id="mcs-353">
                  <name>MCS-353</name>
                  <masterclipid>clip-master</masterclipid>
                  <collapsed>false</collapsed>
                  <angle>
                    <activevideoangle>false</activevideoangle>
                    <activeaudioangle>false</activeaudioangle>
                    <clip id="clip-1"/>
                  </angle>
                  <angle>
                    <activevideoangle>false</activevideoangle>
                    <activeaudioangle>false</activeaudioangle>
                    <clip id="clip-2"/>
                  </angle>
                  <angle>
                    <activevideoangle>true</activevideoangle>
                    <activeaudioangle>true</activeaudioangle>
                    <clip id="clip-3"/>
                  </angle>
                  <angle>
                    <activevideoangle>false</activevideoangle>
                    <activeaudioangle>false</activeaudioangle>
                    <clip id="clip-4"/>
                  </angle>
                  <angle>
                    <activevideoangle>false</activevideoangle>
                    <activeaudioangle>false</activeaudioangle>
                    <clip id="clip-5"/>
                  </angle>
                  <angle>
                    <activevideoangle>false</activevideoangle>
                    <activeaudioangle>false</activeaudioangle>
                    <clip id="clip-6"/>
                  </angle>
                  <angle>
                    <activevideoangle>false</activevideoangle>
                    <activeaudioangle>false</activeaudioangle>
                    <clip id="clip-7"/>
                  </angle>
                  <masterclipid>clip-master</masterclipid>
                </multiclip>
              </clipitem>
              <clipitem id="cs-354">
                <duration>48</duration>
                <rate>
                  <ntsc>false</ntsc>
                  <timebase>25</timebase>
                </rate>
                <in>35400</in>
                <out>35447</out>
                <start>35400</start>
                <end>35447</end>
                <file id="src-4"/>
                <sourcetrack>
                  <mediatype>video</mediatype>
                  <trackindex>1</trackindex>
                </sourcetrack>
                <multiclip id="mcs-354">
                  <name>MCS-354</name>
                  <masterclipid>clip-master</masterclipid>
                  <collapsed>false</collapsed>
                  <angle>
                    <activevideoangle>false</activevideoangle>
                    <activeaudioangle>false</activeaudioangle>
                    <clip id="clip-1"/>
                  </angle>
                  <angle>
                    <activevideoangle>false</activevideoangle>
                    <activeaudioangle>false</activeaudioangle>
                    <clip id="clip-2"/>
                  </angle>
                  <angle>
                    <activevideoangle>false</activevideoangle>
                    <activeaudioangle>false</activeaudioangle>
                    <clip id="clip-3"/>
                  </angle>
                  <angle>
                    <activevideoangle>true</activevideoangle>
                    <activeaudioangle>true</activeaudioangle>
                    <clip id="clip-4"/>
                  </angle>
                  <angle>
                    <activevideoangle>false</activevideoangle>
                    <activeaudioangle>false</activeaudioangle>
                    <clip id="clip-5"/>
                  </angle>
                  <angle>
                    <activevideoangle>false</activevideoangle>
                    <activeaudioangle>false</activeaudioangle>
                    <clip id="clip-6"/>
                  </angle>
                  <angle>
                    <activevideoangle>false</activevideoangle>
                    <activeaudioangle>false</activeaudioangle>
                    <clip id="clip-7"/>
                  </angle>
                  <masterclipid>clip-master</masterclipid>
                </multiclip>
              </clipitem>
              <clipitem id="cs-355">
                <duration>94</duration>
                <rate>
                  <ntsc>false</ntsc>
                  <timebase>25</timebase>
                </rate>
                <in>35447</in>
                <out>35540</out>
                <start>35447</start>
                <end>35540</end>
                <file id="src-3"/>
                <sourcetrack>
                  <mediatype>video</mediatype>
                  <trackindex>1</trackindex>
                </sourcetrack>
                <multiclip id="mcs-355">
                  <name>MCS-355</name>
                  <masterclipid>clip-master</masterclipid>
                  <collapsed>false</collapsed>
                  <angle>
                    <activevideoangle>false</activevideoangle>
                    <activeaudioangle>false</activeaudioangle>
                    <clip id="clip-1"/>
                  </angle>
                  <angle>
                    <activevideoangle>false</activevideoangle>
                    <activeaudioangle>false</activeaudioangle>
                    <clip id="clip-2"/>
                  </angle>
                  <angle>
                    <activevideoangle>true</activevideoangle>
                    <activeaudioangle>true</activeaudioangle>
                    <clip id="clip-3"/>
                  </angle>
                  <angle>
                    <activevideoangle>false</activevideoangle>
                    <activeaudioangle>false</activeaudioangle>
                    <clip id="clip-4"/>
                  </angle>
                  <angle>
                    <activevideoangle>false</activevideoangle>
                    <activeaudioangle>false</activeaudioangle>
                    <clip id="clip-5"/>
                  </angle>
                  <angle>
                    <activevideoangle>false</activevideoangle>
                    <activeaudioangle>false</activeaudioangle>
                    <clip id="clip-6"/>
                  </angle>
                  <angle>
                    <activevideoangle>false</activevideoangle>
                    <activeaudioangle>false</activeaudioangle>
                    <clip id="clip-7"/>
                  </angle>
                  <masterclipid>clip-master</masterclipid>
                </multiclip>
              </clipitem>
              <clipitem id="cs-356">
                <duration>126</duration>
                <rate>
                  <ntsc>false</ntsc>
                  <timebase>25</timebase>
                </rate>
                <in>35540</in>
                <out>35665</out>
                <start>35540</start>
                <end>35665</end>
                <file id="src-2"/>
                <sourcetrack>
                  <mediatype>video</mediatype>
                  <trackindex>1</trackindex>
                </sourcetrack>
                <multiclip id="mcs-356">
                  <name>MCS-356</name>
                  <masterclipid>clip-master</masterclipid>
                  <collapsed>false</collapsed>
                  <angle>
                    <activevideoangle>false</activevideoangle>
                    <activeaudioangle>false</activeaudioangle>
                    <clip id="clip-1"/>
                  </angle>
                  <angle>
                    <activevideoangle>true</activevideoangle>
                    <activeaudioangle>true</activeaudioangle>
                    <clip id="clip-2"/>
                  </angle>
                  <angle>
                    <activevideoangle>false</activevideoangle>
                    <activeaudioangle>false</activeaudioangle>
                    <clip id="clip-3"/>
                  </angle>
                  <angle>
                    <activevideoangle>false</activevideoangle>
                    <activeaudioangle>false</activeaudioangle>
                    <clip id="clip-4"/>
                  </angle>
                  <angle>
                    <activevideoangle>false</activevideoangle>
                    <activeaudioangle>false</activeaudioangle>
                    <clip id="clip-5"/>
                  </angle>
                  <angle>
                    <activevideoangle>false</activevideoangle>
                    <activeaudioangle>false</activeaudioangle>
                    <clip id="clip-6"/>
                  </angle>
                  <angle>
                    <activevideoangle>false</activevideoangle>
                    <activeaudioangle>false</activeaudioangle>
                    <clip id="clip-7"/>
                  </angle>
                  <masterclipid>clip-master</masterclipid>
                </multiclip>
              </clipitem>
              <clipitem id="cs-357">
                <duration>48</duration>
                <rate>
                  <ntsc>false</ntsc>
                  <timebase>25</timebase>
                </rate>
                <in>35665</in>
                <out>35712</out>
                <start>35665</start>
                <end>35712</end>
                <file id="src-4"/>
                <sourcetrack>
                  <mediatype>video</mediatype>
                  <trackindex>1</trackindex>
                </sourcetrack>
                <multiclip id="mcs-357">
                  <name>MCS-357</name>
                  <masterclipid>clip-master</masterclipid>
                  <collapsed>false</collapsed>
                  <angle>
                    <activevideoangle>false</activevideoangle>
                    <activeaudioangle>false</activeaudioangle>
                    <clip id="clip-1"/>
                  </angle>
                  <angle>
                    <activevideoangle>false</activevideoangle>
                    <activeaudioangle>false</activeaudioangle>
                    <clip id="clip-2"/>
                  </angle>
                  <angle>
                    <activevideoangle>false</activevideoangle>
                    <activeaudioangle>false</activeaudioangle>
                    <clip id="clip-3"/>
                  </angle>
                  <angle>
                    <activevideoangle>true</activevideoangle>
                    <activeaudioangle>true</activeaudioangle>
                    <clip id="clip-4"/>
                  </angle>
                  <angle>
                    <activevideoangle>false</activevideoangle>
                    <activeaudioangle>false</activeaudioangle>
                    <clip id="clip-5"/>
                  </angle>
                  <angle>
                    <activevideoangle>false</activevideoangle>
                    <activeaudioangle>false</activeaudioangle>
                    <clip id="clip-6"/>
                  </angle>
                  <angle>
                    <activevideoangle>false</activevideoangle>
                    <activeaudioangle>false</activeaudioangle>
                    <clip id="clip-7"/>
                  </angle>
                  <masterclipid>clip-master</masterclipid>
                </multiclip>
              </clipitem>
              <clipitem id="cs-358">
                <duration>65</duration>
                <rate>
                  <ntsc>false</ntsc>
                  <timebase>25</timebase>
                </rate>
                <in>35712</in>
                <out>35776</out>
                <start>35712</start>
                <end>35776</end>
                <file id="src-3"/>
                <sourcetrack>
                  <mediatype>video</mediatype>
                  <trackindex>1</trackindex>
                </sourcetrack>
                <multiclip id="mcs-358">
                  <name>MCS-358</name>
                  <masterclipid>clip-master</masterclipid>
                  <collapsed>false</collapsed>
                  <angle>
                    <activevideoangle>false</activevideoangle>
                    <activeaudioangle>false</activeaudioangle>
                    <clip id="clip-1"/>
                  </angle>
                  <angle>
                    <activevideoangle>false</activevideoangle>
                    <activeaudioangle>false</activeaudioangle>
                    <clip id="clip-2"/>
                  </angle>
                  <angle>
                    <activevideoangle>true</activevideoangle>
                    <activeaudioangle>true</activeaudioangle>
                    <clip id="clip-3"/>
                  </angle>
                  <angle>
                    <activevideoangle>false</activevideoangle>
                    <activeaudioangle>false</activeaudioangle>
                    <clip id="clip-4"/>
                  </angle>
                  <angle>
                    <activevideoangle>false</activevideoangle>
                    <activeaudioangle>false</activeaudioangle>
                    <clip id="clip-5"/>
                  </angle>
                  <angle>
                    <activevideoangle>false</activevideoangle>
                    <activeaudioangle>false</activeaudioangle>
                    <clip id="clip-6"/>
                  </angle>
                  <angle>
                    <activevideoangle>false</activevideoangle>
                    <activeaudioangle>false</activeaudioangle>
                    <clip id="clip-7"/>
                  </angle>
                  <masterclipid>clip-master</masterclipid>
                </multiclip>
              </clipitem>
              <clipitem id="cs-359">
                <duration>119</duration>
                <rate>
                  <ntsc>false</ntsc>
                  <timebase>25</timebase>
                </rate>
                <in>35776</in>
                <out>35894</out>
                <start>35776</start>
                <end>35894</end>
                <file id="src-2"/>
                <sourcetrack>
                  <mediatype>video</mediatype>
                  <trackindex>1</trackindex>
                </sourcetrack>
                <multiclip id="mcs-359">
                  <name>MCS-359</name>
                  <masterclipid>clip-master</masterclipid>
                  <collapsed>false</collapsed>
                  <angle>
                    <activevideoangle>false</activevideoangle>
                    <activeaudioangle>false</activeaudioangle>
                    <clip id="clip-1"/>
                  </angle>
                  <angle>
                    <activevideoangle>true</activevideoangle>
                    <activeaudioangle>true</activeaudioangle>
                    <clip id="clip-2"/>
                  </angle>
                  <angle>
                    <activevideoangle>false</activevideoangle>
                    <activeaudioangle>false</activeaudioangle>
                    <clip id="clip-3"/>
                  </angle>
                  <angle>
                    <activevideoangle>false</activevideoangle>
                    <activeaudioangle>false</activeaudioangle>
                    <clip id="clip-4"/>
                  </angle>
                  <angle>
                    <activevideoangle>false</activevideoangle>
                    <activeaudioangle>false</activeaudioangle>
                    <clip id="clip-5"/>
                  </angle>
                  <angle>
                    <activevideoangle>false</activevideoangle>
                    <activeaudioangle>false</activeaudioangle>
                    <clip id="clip-6"/>
                  </angle>
                  <angle>
                    <activevideoangle>false</activevideoangle>
                    <activeaudioangle>false</activeaudioangle>
                    <clip id="clip-7"/>
                  </angle>
                  <masterclipid>clip-master</masterclipid>
                </multiclip>
              </clipitem>
              <clipitem id="cs-360">
                <duration>98</duration>
                <rate>
                  <ntsc>false</ntsc>
                  <timebase>25</timebase>
                </rate>
                <in>35894</in>
                <out>35991</out>
                <start>35894</start>
                <end>35991</end>
                <file id="src-4"/>
                <sourcetrack>
                  <mediatype>video</mediatype>
                  <trackindex>1</trackindex>
                </sourcetrack>
                <multiclip id="mcs-360">
                  <name>MCS-360</name>
                  <masterclipid>clip-master</masterclipid>
                  <collapsed>false</collapsed>
                  <angle>
                    <activevideoangle>false</activevideoangle>
                    <activeaudioangle>false</activeaudioangle>
                    <clip id="clip-1"/>
                  </angle>
                  <angle>
                    <activevideoangle>false</activevideoangle>
                    <activeaudioangle>false</activeaudioangle>
                    <clip id="clip-2"/>
                  </angle>
                  <angle>
                    <activevideoangle>false</activevideoangle>
                    <activeaudioangle>false</activeaudioangle>
                    <clip id="clip-3"/>
                  </angle>
                  <angle>
                    <activevideoangle>true</activevideoangle>
                    <activeaudioangle>true</activeaudioangle>
                    <clip id="clip-4"/>
                  </angle>
                  <angle>
                    <activevideoangle>false</activevideoangle>
                    <activeaudioangle>false</activeaudioangle>
                    <clip id="clip-5"/>
                  </angle>
                  <angle>
                    <activevideoangle>false</activevideoangle>
                    <activeaudioangle>false</activeaudioangle>
                    <clip id="clip-6"/>
                  </angle>
                  <angle>
                    <activevideoangle>false</activevideoangle>
                    <activeaudioangle>false</activeaudioangle>
                    <clip id="clip-7"/>
                  </angle>
                  <masterclipid>clip-master</masterclipid>
                </multiclip>
              </clipitem>
              <clipitem id="cs-361">
                <duration>50</duration>
                <rate>
                  <ntsc>false</ntsc>
                  <timebase>25</timebase>
                </rate>
                <in>35991</in>
                <out>36040</out>
                <start>35991</start>
                <end>36040</end>
                <file id="src-2"/>
                <sourcetrack>
                  <mediatype>video</mediatype>
                  <trackindex>1</trackindex>
                </sourcetrack>
                <multiclip id="mcs-361">
                  <name>MCS-361</name>
                  <masterclipid>clip-master</masterclipid>
                  <collapsed>false</collapsed>
                  <angle>
                    <activevideoangle>false</activevideoangle>
                    <activeaudioangle>false</activeaudioangle>
                    <clip id="clip-1"/>
                  </angle>
                  <angle>
                    <activevideoangle>true</activevideoangle>
                    <activeaudioangle>true</activeaudioangle>
                    <clip id="clip-2"/>
                  </angle>
                  <angle>
                    <activevideoangle>false</activevideoangle>
                    <activeaudioangle>false</activeaudioangle>
                    <clip id="clip-3"/>
                  </angle>
                  <angle>
                    <activevideoangle>false</activevideoangle>
                    <activeaudioangle>false</activeaudioangle>
                    <clip id="clip-4"/>
                  </angle>
                  <angle>
                    <activevideoangle>false</activevideoangle>
                    <activeaudioangle>false</activeaudioangle>
                    <clip id="clip-5"/>
                  </angle>
                  <angle>
                    <activevideoangle>false</activevideoangle>
                    <activeaudioangle>false</activeaudioangle>
                    <clip id="clip-6"/>
                  </angle>
                  <angle>
                    <activevideoangle>false</activevideoangle>
                    <activeaudioangle>false</activeaudioangle>
                    <clip id="clip-7"/>
                  </angle>
                  <masterclipid>clip-master</masterclipid>
                </multiclip>
              </clipitem>
              <clipitem id="cs-362">
                <duration>49</duration>
                <rate>
                  <ntsc>false</ntsc>
                  <timebase>25</timebase>
                </rate>
                <in>36040</in>
                <out>36088</out>
                <start>36040</start>
                <end>36088</end>
                <file id="src-3"/>
                <sourcetrack>
                  <mediatype>video</mediatype>
                  <trackindex>1</trackindex>
                </sourcetrack>
                <multiclip id="mcs-362">
                  <name>MCS-362</name>
                  <masterclipid>clip-master</masterclipid>
                  <collapsed>false</collapsed>
                  <angle>
                    <activevideoangle>false</activevideoangle>
                    <activeaudioangle>false</activeaudioangle>
                    <clip id="clip-1"/>
                  </angle>
                  <angle>
                    <activevideoangle>false</activevideoangle>
                    <activeaudioangle>false</activeaudioangle>
                    <clip id="clip-2"/>
                  </angle>
                  <angle>
                    <activevideoangle>true</activevideoangle>
                    <activeaudioangle>true</activeaudioangle>
                    <clip id="clip-3"/>
                  </angle>
                  <angle>
                    <activevideoangle>false</activevideoangle>
                    <activeaudioangle>false</activeaudioangle>
                    <clip id="clip-4"/>
                  </angle>
                  <angle>
                    <activevideoangle>false</activevideoangle>
                    <activeaudioangle>false</activeaudioangle>
                    <clip id="clip-5"/>
                  </angle>
                  <angle>
                    <activevideoangle>false</activevideoangle>
                    <activeaudioangle>false</activeaudioangle>
                    <clip id="clip-6"/>
                  </angle>
                  <angle>
                    <activevideoangle>false</activevideoangle>
                    <activeaudioangle>false</activeaudioangle>
                    <clip id="clip-7"/>
                  </angle>
                  <masterclipid>clip-master</masterclipid>
                </multiclip>
              </clipitem>
              <clipitem id="cs-363">
                <duration>65</duration>
                <rate>
                  <ntsc>false</ntsc>
                  <timebase>25</timebase>
                </rate>
                <in>36088</in>
                <out>36152</out>
                <start>36088</start>
                <end>36152</end>
                <file id="src-2"/>
                <sourcetrack>
                  <mediatype>video</mediatype>
                  <trackindex>1</trackindex>
                </sourcetrack>
                <multiclip id="mcs-363">
                  <name>MCS-363</name>
                  <masterclipid>clip-master</masterclipid>
                  <collapsed>false</collapsed>
                  <angle>
                    <activevideoangle>false</activevideoangle>
                    <activeaudioangle>false</activeaudioangle>
                    <clip id="clip-1"/>
                  </angle>
                  <angle>
                    <activevideoangle>true</activevideoangle>
                    <activeaudioangle>true</activeaudioangle>
                    <clip id="clip-2"/>
                  </angle>
                  <angle>
                    <activevideoangle>false</activevideoangle>
                    <activeaudioangle>false</activeaudioangle>
                    <clip id="clip-3"/>
                  </angle>
                  <angle>
                    <activevideoangle>false</activevideoangle>
                    <activeaudioangle>false</activeaudioangle>
                    <clip id="clip-4"/>
                  </angle>
                  <angle>
                    <activevideoangle>false</activevideoangle>
                    <activeaudioangle>false</activeaudioangle>
                    <clip id="clip-5"/>
                  </angle>
                  <angle>
                    <activevideoangle>false</activevideoangle>
                    <activeaudioangle>false</activeaudioangle>
                    <clip id="clip-6"/>
                  </angle>
                  <angle>
                    <activevideoangle>false</activevideoangle>
                    <activeaudioangle>false</activeaudioangle>
                    <clip id="clip-7"/>
                  </angle>
                  <masterclipid>clip-master</masterclipid>
                </multiclip>
              </clipitem>
              <clipitem id="cs-364">
                <duration>63</duration>
                <rate>
                  <ntsc>false</ntsc>
                  <timebase>25</timebase>
                </rate>
                <in>36152</in>
                <out>36214</out>
                <start>36152</start>
                <end>36214</end>
                <file id="src-4"/>
                <sourcetrack>
                  <mediatype>video</mediatype>
                  <trackindex>1</trackindex>
                </sourcetrack>
                <multiclip id="mcs-364">
                  <name>MCS-364</name>
                  <masterclipid>clip-master</masterclipid>
                  <collapsed>false</collapsed>
                  <angle>
                    <activevideoangle>false</activevideoangle>
                    <activeaudioangle>false</activeaudioangle>
                    <clip id="clip-1"/>
                  </angle>
                  <angle>
                    <activevideoangle>false</activevideoangle>
                    <activeaudioangle>false</activeaudioangle>
                    <clip id="clip-2"/>
                  </angle>
                  <angle>
                    <activevideoangle>false</activevideoangle>
                    <activeaudioangle>false</activeaudioangle>
                    <clip id="clip-3"/>
                  </angle>
                  <angle>
                    <activevideoangle>true</activevideoangle>
                    <activeaudioangle>true</activeaudioangle>
                    <clip id="clip-4"/>
                  </angle>
                  <angle>
                    <activevideoangle>false</activevideoangle>
                    <activeaudioangle>false</activeaudioangle>
                    <clip id="clip-5"/>
                  </angle>
                  <angle>
                    <activevideoangle>false</activevideoangle>
                    <activeaudioangle>false</activeaudioangle>
                    <clip id="clip-6"/>
                  </angle>
                  <angle>
                    <activevideoangle>false</activevideoangle>
                    <activeaudioangle>false</activeaudioangle>
                    <clip id="clip-7"/>
                  </angle>
                  <masterclipid>clip-master</masterclipid>
                </multiclip>
              </clipitem>
              <clipitem id="cs-365">
                <duration>48</duration>
                <rate>
                  <ntsc>false</ntsc>
                  <timebase>25</timebase>
                </rate>
                <in>36214</in>
                <out>36261</out>
                <start>36214</start>
                <end>36261</end>
                <file id="src-3"/>
                <sourcetrack>
                  <mediatype>video</mediatype>
                  <trackindex>1</trackindex>
                </sourcetrack>
                <multiclip id="mcs-365">
                  <name>MCS-365</name>
                  <masterclipid>clip-master</masterclipid>
                  <collapsed>false</collapsed>
                  <angle>
                    <activevideoangle>false</activevideoangle>
                    <activeaudioangle>false</activeaudioangle>
                    <clip id="clip-1"/>
                  </angle>
                  <angle>
                    <activevideoangle>false</activevideoangle>
                    <activeaudioangle>false</activeaudioangle>
                    <clip id="clip-2"/>
                  </angle>
                  <angle>
                    <activevideoangle>true</activevideoangle>
                    <activeaudioangle>true</activeaudioangle>
                    <clip id="clip-3"/>
                  </angle>
                  <angle>
                    <activevideoangle>false</activevideoangle>
                    <activeaudioangle>false</activeaudioangle>
                    <clip id="clip-4"/>
                  </angle>
                  <angle>
                    <activevideoangle>false</activevideoangle>
                    <activeaudioangle>false</activeaudioangle>
                    <clip id="clip-5"/>
                  </angle>
                  <angle>
                    <activevideoangle>false</activevideoangle>
                    <activeaudioangle>false</activeaudioangle>
                    <clip id="clip-6"/>
                  </angle>
                  <angle>
                    <activevideoangle>false</activevideoangle>
                    <activeaudioangle>false</activeaudioangle>
                    <clip id="clip-7"/>
                  </angle>
                  <masterclipid>clip-master</masterclipid>
                </multiclip>
              </clipitem>
              <clipitem id="cs-366">
                <duration>18</duration>
                <rate>
                  <ntsc>false</ntsc>
                  <timebase>25</timebase>
                </rate>
                <in>36261</in>
                <out>36278</out>
                <start>36261</start>
                <end>36278</end>
                <file id="src-2"/>
                <sourcetrack>
                  <mediatype>video</mediatype>
                  <trackindex>1</trackindex>
                </sourcetrack>
                <multiclip id="mcs-366">
                  <name>MCS-366</name>
                  <masterclipid>clip-master</masterclipid>
                  <collapsed>false</collapsed>
                  <angle>
                    <activevideoangle>false</activevideoangle>
                    <activeaudioangle>false</activeaudioangle>
                    <clip id="clip-1"/>
                  </angle>
                  <angle>
                    <activevideoangle>true</activevideoangle>
                    <activeaudioangle>true</activeaudioangle>
                    <clip id="clip-2"/>
                  </angle>
                  <angle>
                    <activevideoangle>false</activevideoangle>
                    <activeaudioangle>false</activeaudioangle>
                    <clip id="clip-3"/>
                  </angle>
                  <angle>
                    <activevideoangle>false</activevideoangle>
                    <activeaudioangle>false</activeaudioangle>
                    <clip id="clip-4"/>
                  </angle>
                  <angle>
                    <activevideoangle>false</activevideoangle>
                    <activeaudioangle>false</activeaudioangle>
                    <clip id="clip-5"/>
                  </angle>
                  <angle>
                    <activevideoangle>false</activevideoangle>
                    <activeaudioangle>false</activeaudioangle>
                    <clip id="clip-6"/>
                  </angle>
                  <angle>
                    <activevideoangle>false</activevideoangle>
                    <activeaudioangle>false</activeaudioangle>
                    <clip id="clip-7"/>
                  </angle>
                  <masterclipid>clip-master</masterclipid>
                </multiclip>
              </clipitem>
              <clipitem id="cs-367">
                <duration>45</duration>
                <rate>
                  <ntsc>false</ntsc>
                  <timebase>25</timebase>
                </rate>
                <in>36278</in>
                <out>36322</out>
                <start>36278</start>
                <end>36322</end>
                <file id="src-1"/>
                <sourcetrack>
                  <mediatype>video</mediatype>
                  <trackindex>1</trackindex>
                </sourcetrack>
                <multiclip id="mcs-367">
                  <name>MCS-367</name>
                  <masterclipid>clip-master</masterclipid>
                  <collapsed>false</collapsed>
                  <angle>
                    <activevideoangle>true</activevideoangle>
                    <activeaudioangle>true</activeaudioangle>
                    <clip id="clip-1"/>
                  </angle>
                  <angle>
                    <activevideoangle>false</activevideoangle>
                    <activeaudioangle>false</activeaudioangle>
                    <clip id="clip-2"/>
                  </angle>
                  <angle>
                    <activevideoangle>false</activevideoangle>
                    <activeaudioangle>false</activeaudioangle>
                    <clip id="clip-3"/>
                  </angle>
                  <angle>
                    <activevideoangle>false</activevideoangle>
                    <activeaudioangle>false</activeaudioangle>
                    <clip id="clip-4"/>
                  </angle>
                  <angle>
                    <activevideoangle>false</activevideoangle>
                    <activeaudioangle>false</activeaudioangle>
                    <clip id="clip-5"/>
                  </angle>
                  <angle>
                    <activevideoangle>false</activevideoangle>
                    <activeaudioangle>false</activeaudioangle>
                    <clip id="clip-6"/>
                  </angle>
                  <angle>
                    <activevideoangle>false</activevideoangle>
                    <activeaudioangle>false</activeaudioangle>
                    <clip id="clip-7"/>
                  </angle>
                  <masterclipid>clip-master</masterclipid>
                </multiclip>
              </clipitem>
              <clipitem id="cs-368">
                <duration>76</duration>
                <rate>
                  <ntsc>false</ntsc>
                  <timebase>25</timebase>
                </rate>
                <in>36322</in>
                <out>36397</out>
                <start>36322</start>
                <end>36397</end>
                <file id="src-2"/>
                <sourcetrack>
                  <mediatype>video</mediatype>
                  <trackindex>1</trackindex>
                </sourcetrack>
                <multiclip id="mcs-368">
                  <name>MCS-368</name>
                  <masterclipid>clip-master</masterclipid>
                  <collapsed>false</collapsed>
                  <angle>
                    <activevideoangle>false</activevideoangle>
                    <activeaudioangle>false</activeaudioangle>
                    <clip id="clip-1"/>
                  </angle>
                  <angle>
                    <activevideoangle>true</activevideoangle>
                    <activeaudioangle>true</activeaudioangle>
                    <clip id="clip-2"/>
                  </angle>
                  <angle>
                    <activevideoangle>false</activevideoangle>
                    <activeaudioangle>false</activeaudioangle>
                    <clip id="clip-3"/>
                  </angle>
                  <angle>
                    <activevideoangle>false</activevideoangle>
                    <activeaudioangle>false</activeaudioangle>
                    <clip id="clip-4"/>
                  </angle>
                  <angle>
                    <activevideoangle>false</activevideoangle>
                    <activeaudioangle>false</activeaudioangle>
                    <clip id="clip-5"/>
                  </angle>
                  <angle>
                    <activevideoangle>false</activevideoangle>
                    <activeaudioangle>false</activeaudioangle>
                    <clip id="clip-6"/>
                  </angle>
                  <angle>
                    <activevideoangle>false</activevideoangle>
                    <activeaudioangle>false</activeaudioangle>
                    <clip id="clip-7"/>
                  </angle>
                  <masterclipid>clip-master</masterclipid>
                </multiclip>
              </clipitem>
              <clipitem id="cs-369">
                <duration>114</duration>
                <rate>
                  <ntsc>false</ntsc>
                  <timebase>25</timebase>
                </rate>
                <in>36397</in>
                <out>36510</out>
                <start>36397</start>
                <end>36510</end>
                <file id="src-3"/>
                <sourcetrack>
                  <mediatype>video</mediatype>
                  <trackindex>1</trackindex>
                </sourcetrack>
                <multiclip id="mcs-369">
                  <name>MCS-369</name>
                  <masterclipid>clip-master</masterclipid>
                  <collapsed>false</collapsed>
                  <angle>
                    <activevideoangle>false</activevideoangle>
                    <activeaudioangle>false</activeaudioangle>
                    <clip id="clip-1"/>
                  </angle>
                  <angle>
                    <activevideoangle>false</activevideoangle>
                    <activeaudioangle>false</activeaudioangle>
                    <clip id="clip-2"/>
                  </angle>
                  <angle>
                    <activevideoangle>true</activevideoangle>
                    <activeaudioangle>true</activeaudioangle>
                    <clip id="clip-3"/>
                  </angle>
                  <angle>
                    <activevideoangle>false</activevideoangle>
                    <activeaudioangle>false</activeaudioangle>
                    <clip id="clip-4"/>
                  </angle>
                  <angle>
                    <activevideoangle>false</activevideoangle>
                    <activeaudioangle>false</activeaudioangle>
                    <clip id="clip-5"/>
                  </angle>
                  <angle>
                    <activevideoangle>false</activevideoangle>
                    <activeaudioangle>false</activeaudioangle>
                    <clip id="clip-6"/>
                  </angle>
                  <angle>
                    <activevideoangle>false</activevideoangle>
                    <activeaudioangle>false</activeaudioangle>
                    <clip id="clip-7"/>
                  </angle>
                  <masterclipid>clip-master</masterclipid>
                </multiclip>
              </clipitem>
              <clipitem id="cs-370">
                <duration>75</duration>
                <rate>
                  <ntsc>false</ntsc>
                  <timebase>25</timebase>
                </rate>
                <in>36510</in>
                <out>36584</out>
                <start>36510</start>
                <end>36584</end>
                <file id="src-5"/>
                <sourcetrack>
                  <mediatype>video</mediatype>
                  <trackindex>1</trackindex>
                </sourcetrack>
                <multiclip id="mcs-370">
                  <name>MCS-370</name>
                  <masterclipid>clip-master</masterclipid>
                  <collapsed>false</collapsed>
                  <angle>
                    <activevideoangle>false</activevideoangle>
                    <activeaudioangle>false</activeaudioangle>
                    <clip id="clip-1"/>
                  </angle>
                  <angle>
                    <activevideoangle>false</activevideoangle>
                    <activeaudioangle>false</activeaudioangle>
                    <clip id="clip-2"/>
                  </angle>
                  <angle>
                    <activevideoangle>false</activevideoangle>
                    <activeaudioangle>false</activeaudioangle>
                    <clip id="clip-3"/>
                  </angle>
                  <angle>
                    <activevideoangle>false</activevideoangle>
                    <activeaudioangle>false</activeaudioangle>
                    <clip id="clip-4"/>
                  </angle>
                  <angle>
                    <activevideoangle>true</activevideoangle>
                    <activeaudioangle>true</activeaudioangle>
                    <clip id="clip-5"/>
                  </angle>
                  <angle>
                    <activevideoangle>false</activevideoangle>
                    <activeaudioangle>false</activeaudioangle>
                    <clip id="clip-6"/>
                  </angle>
                  <angle>
                    <activevideoangle>false</activevideoangle>
                    <activeaudioangle>false</activeaudioangle>
                    <clip id="clip-7"/>
                  </angle>
                  <masterclipid>clip-master</masterclipid>
                </multiclip>
              </clipitem>
              <clipitem id="cs-371">
                <duration>229</duration>
                <rate>
                  <ntsc>false</ntsc>
                  <timebase>25</timebase>
                </rate>
                <in>36584</in>
                <out>36812</out>
                <start>36584</start>
                <end>36812</end>
                <file id="src-3"/>
                <sourcetrack>
                  <mediatype>video</mediatype>
                  <trackindex>1</trackindex>
                </sourcetrack>
                <multiclip id="mcs-371">
                  <name>MCS-371</name>
                  <masterclipid>clip-master</masterclipid>
                  <collapsed>false</collapsed>
                  <angle>
                    <activevideoangle>false</activevideoangle>
                    <activeaudioangle>false</activeaudioangle>
                    <clip id="clip-1"/>
                  </angle>
                  <angle>
                    <activevideoangle>false</activevideoangle>
                    <activeaudioangle>false</activeaudioangle>
                    <clip id="clip-2"/>
                  </angle>
                  <angle>
                    <activevideoangle>true</activevideoangle>
                    <activeaudioangle>true</activeaudioangle>
                    <clip id="clip-3"/>
                  </angle>
                  <angle>
                    <activevideoangle>false</activevideoangle>
                    <activeaudioangle>false</activeaudioangle>
                    <clip id="clip-4"/>
                  </angle>
                  <angle>
                    <activevideoangle>false</activevideoangle>
                    <activeaudioangle>false</activeaudioangle>
                    <clip id="clip-5"/>
                  </angle>
                  <angle>
                    <activevideoangle>false</activevideoangle>
                    <activeaudioangle>false</activeaudioangle>
                    <clip id="clip-6"/>
                  </angle>
                  <angle>
                    <activevideoangle>false</activevideoangle>
                    <activeaudioangle>false</activeaudioangle>
                    <clip id="clip-7"/>
                  </angle>
                  <masterclipid>clip-master</masterclipid>
                </multiclip>
              </clipitem>
              <clipitem id="cs-372">
                <duration>110</duration>
                <rate>
                  <ntsc>false</ntsc>
                  <timebase>25</timebase>
                </rate>
                <in>36812</in>
                <out>36921</out>
                <start>36812</start>
                <end>36921</end>
                <file id="src-1"/>
                <sourcetrack>
                  <mediatype>video</mediatype>
                  <trackindex>1</trackindex>
                </sourcetrack>
                <multiclip id="mcs-372">
                  <name>MCS-372</name>
                  <masterclipid>clip-master</masterclipid>
                  <collapsed>false</collapsed>
                  <angle>
                    <activevideoangle>true</activevideoangle>
                    <activeaudioangle>true</activeaudioangle>
                    <clip id="clip-1"/>
                  </angle>
                  <angle>
                    <activevideoangle>false</activevideoangle>
                    <activeaudioangle>false</activeaudioangle>
                    <clip id="clip-2"/>
                  </angle>
                  <angle>
                    <activevideoangle>false</activevideoangle>
                    <activeaudioangle>false</activeaudioangle>
                    <clip id="clip-3"/>
                  </angle>
                  <angle>
                    <activevideoangle>false</activevideoangle>
                    <activeaudioangle>false</activeaudioangle>
                    <clip id="clip-4"/>
                  </angle>
                  <angle>
                    <activevideoangle>false</activevideoangle>
                    <activeaudioangle>false</activeaudioangle>
                    <clip id="clip-5"/>
                  </angle>
                  <angle>
                    <activevideoangle>false</activevideoangle>
                    <activeaudioangle>false</activeaudioangle>
                    <clip id="clip-6"/>
                  </angle>
                  <angle>
                    <activevideoangle>false</activevideoangle>
                    <activeaudioangle>false</activeaudioangle>
                    <clip id="clip-7"/>
                  </angle>
                  <masterclipid>clip-master</masterclipid>
                </multiclip>
              </clipitem>
              <clipitem id="cs-373">
                <duration>86</duration>
                <rate>
                  <ntsc>false</ntsc>
                  <timebase>25</timebase>
                </rate>
                <in>36921</in>
                <out>37006</out>
                <start>36921</start>
                <end>37006</end>
                <file id="src-2"/>
                <sourcetrack>
                  <mediatype>video</mediatype>
                  <trackindex>1</trackindex>
                </sourcetrack>
                <multiclip id="mcs-373">
                  <name>MCS-373</name>
                  <masterclipid>clip-master</masterclipid>
                  <collapsed>false</collapsed>
                  <angle>
                    <activevideoangle>false</activevideoangle>
                    <activeaudioangle>false</activeaudioangle>
                    <clip id="clip-1"/>
                  </angle>
                  <angle>
                    <activevideoangle>true</activevideoangle>
                    <activeaudioangle>true</activeaudioangle>
                    <clip id="clip-2"/>
                  </angle>
                  <angle>
                    <activevideoangle>false</activevideoangle>
                    <activeaudioangle>false</activeaudioangle>
                    <clip id="clip-3"/>
                  </angle>
                  <angle>
                    <activevideoangle>false</activevideoangle>
                    <activeaudioangle>false</activeaudioangle>
                    <clip id="clip-4"/>
                  </angle>
                  <angle>
                    <activevideoangle>false</activevideoangle>
                    <activeaudioangle>false</activeaudioangle>
                    <clip id="clip-5"/>
                  </angle>
                  <angle>
                    <activevideoangle>false</activevideoangle>
                    <activeaudioangle>false</activeaudioangle>
                    <clip id="clip-6"/>
                  </angle>
                  <angle>
                    <activevideoangle>false</activevideoangle>
                    <activeaudioangle>false</activeaudioangle>
                    <clip id="clip-7"/>
                  </angle>
                  <masterclipid>clip-master</masterclipid>
                </multiclip>
              </clipitem>
              <clipitem id="cs-374">
                <duration>98</duration>
                <rate>
                  <ntsc>false</ntsc>
                  <timebase>25</timebase>
                </rate>
                <in>37006</in>
                <out>37103</out>
                <start>37006</start>
                <end>37103</end>
                <file id="src-5"/>
                <sourcetrack>
                  <mediatype>video</mediatype>
                  <trackindex>1</trackindex>
                </sourcetrack>
                <multiclip id="mcs-374">
                  <name>MCS-374</name>
                  <masterclipid>clip-master</masterclipid>
                  <collapsed>false</collapsed>
                  <angle>
                    <activevideoangle>false</activevideoangle>
                    <activeaudioangle>false</activeaudioangle>
                    <clip id="clip-1"/>
                  </angle>
                  <angle>
                    <activevideoangle>false</activevideoangle>
                    <activeaudioangle>false</activeaudioangle>
                    <clip id="clip-2"/>
                  </angle>
                  <angle>
                    <activevideoangle>false</activevideoangle>
                    <activeaudioangle>false</activeaudioangle>
                    <clip id="clip-3"/>
                  </angle>
                  <angle>
                    <activevideoangle>false</activevideoangle>
                    <activeaudioangle>false</activeaudioangle>
                    <clip id="clip-4"/>
                  </angle>
                  <angle>
                    <activevideoangle>true</activevideoangle>
                    <activeaudioangle>true</activeaudioangle>
                    <clip id="clip-5"/>
                  </angle>
                  <angle>
                    <activevideoangle>false</activevideoangle>
                    <activeaudioangle>false</activeaudioangle>
                    <clip id="clip-6"/>
                  </angle>
                  <angle>
                    <activevideoangle>false</activevideoangle>
                    <activeaudioangle>false</activeaudioangle>
                    <clip id="clip-7"/>
                  </angle>
                  <masterclipid>clip-master</masterclipid>
                </multiclip>
              </clipitem>
              <clipitem id="cs-375">
                <duration>105</duration>
                <rate>
                  <ntsc>false</ntsc>
                  <timebase>25</timebase>
                </rate>
                <in>37103</in>
                <out>37207</out>
                <start>37103</start>
                <end>37207</end>
                <file id="src-2"/>
                <sourcetrack>
                  <mediatype>video</mediatype>
                  <trackindex>1</trackindex>
                </sourcetrack>
                <multiclip id="mcs-375">
                  <name>MCS-375</name>
                  <masterclipid>clip-master</masterclipid>
                  <collapsed>false</collapsed>
                  <angle>
                    <activevideoangle>false</activevideoangle>
                    <activeaudioangle>false</activeaudioangle>
                    <clip id="clip-1"/>
                  </angle>
                  <angle>
                    <activevideoangle>true</activevideoangle>
                    <activeaudioangle>true</activeaudioangle>
                    <clip id="clip-2"/>
                  </angle>
                  <angle>
                    <activevideoangle>false</activevideoangle>
                    <activeaudioangle>false</activeaudioangle>
                    <clip id="clip-3"/>
                  </angle>
                  <angle>
                    <activevideoangle>false</activevideoangle>
                    <activeaudioangle>false</activeaudioangle>
                    <clip id="clip-4"/>
                  </angle>
                  <angle>
                    <activevideoangle>false</activevideoangle>
                    <activeaudioangle>false</activeaudioangle>
                    <clip id="clip-5"/>
                  </angle>
                  <angle>
                    <activevideoangle>false</activevideoangle>
                    <activeaudioangle>false</activeaudioangle>
                    <clip id="clip-6"/>
                  </angle>
                  <angle>
                    <activevideoangle>false</activevideoangle>
                    <activeaudioangle>false</activeaudioangle>
                    <clip id="clip-7"/>
                  </angle>
                  <masterclipid>clip-master</masterclipid>
                </multiclip>
              </clipitem>
              <clipitem id="cs-376">
                <duration>73</duration>
                <rate>
                  <ntsc>false</ntsc>
                  <timebase>25</timebase>
                </rate>
                <in>37207</in>
                <out>37279</out>
                <start>37207</start>
                <end>37279</end>
                <file id="src-4"/>
                <sourcetrack>
                  <mediatype>video</mediatype>
                  <trackindex>1</trackindex>
                </sourcetrack>
                <multiclip id="mcs-376">
                  <name>MCS-376</name>
                  <masterclipid>clip-master</masterclipid>
                  <collapsed>false</collapsed>
                  <angle>
                    <activevideoangle>false</activevideoangle>
                    <activeaudioangle>false</activeaudioangle>
                    <clip id="clip-1"/>
                  </angle>
                  <angle>
                    <activevideoangle>false</activevideoangle>
                    <activeaudioangle>false</activeaudioangle>
                    <clip id="clip-2"/>
                  </angle>
                  <angle>
                    <activevideoangle>false</activevideoangle>
                    <activeaudioangle>false</activeaudioangle>
                    <clip id="clip-3"/>
                  </angle>
                  <angle>
                    <activevideoangle>true</activevideoangle>
                    <activeaudioangle>true</activeaudioangle>
                    <clip id="clip-4"/>
                  </angle>
                  <angle>
                    <activevideoangle>false</activevideoangle>
                    <activeaudioangle>false</activeaudioangle>
                    <clip id="clip-5"/>
                  </angle>
                  <angle>
                    <activevideoangle>false</activevideoangle>
                    <activeaudioangle>false</activeaudioangle>
                    <clip id="clip-6"/>
                  </angle>
                  <angle>
                    <activevideoangle>false</activevideoangle>
                    <activeaudioangle>false</activeaudioangle>
                    <clip id="clip-7"/>
                  </angle>
                  <masterclipid>clip-master</masterclipid>
                </multiclip>
              </clipitem>
              <clipitem id="cs-377">
                <duration>26</duration>
                <rate>
                  <ntsc>false</ntsc>
                  <timebase>25</timebase>
                </rate>
                <in>37279</in>
                <out>37304</out>
                <start>37279</start>
                <end>37304</end>
                <file id="src-5"/>
                <sourcetrack>
                  <mediatype>video</mediatype>
                  <trackindex>1</trackindex>
                </sourcetrack>
                <multiclip id="mcs-377">
                  <name>MCS-377</name>
                  <masterclipid>clip-master</masterclipid>
                  <collapsed>false</collapsed>
                  <angle>
                    <activevideoangle>false</activevideoangle>
                    <activeaudioangle>false</activeaudioangle>
                    <clip id="clip-1"/>
                  </angle>
                  <angle>
                    <activevideoangle>false</activevideoangle>
                    <activeaudioangle>false</activeaudioangle>
                    <clip id="clip-2"/>
                  </angle>
                  <angle>
                    <activevideoangle>false</activevideoangle>
                    <activeaudioangle>false</activeaudioangle>
                    <clip id="clip-3"/>
                  </angle>
                  <angle>
                    <activevideoangle>false</activevideoangle>
                    <activeaudioangle>false</activeaudioangle>
                    <clip id="clip-4"/>
                  </angle>
                  <angle>
                    <activevideoangle>true</activevideoangle>
                    <activeaudioangle>true</activeaudioangle>
                    <clip id="clip-5"/>
                  </angle>
                  <angle>
                    <activevideoangle>false</activevideoangle>
                    <activeaudioangle>false</activeaudioangle>
                    <clip id="clip-6"/>
                  </angle>
                  <angle>
                    <activevideoangle>false</activevideoangle>
                    <activeaudioangle>false</activeaudioangle>
                    <clip id="clip-7"/>
                  </angle>
                  <masterclipid>clip-master</masterclipid>
                </multiclip>
              </clipitem>
              <clipitem id="cs-378">
                <duration>81</duration>
                <rate>
                  <ntsc>false</ntsc>
                  <timebase>25</timebase>
                </rate>
                <in>37304</in>
                <out>37384</out>
                <start>37304</start>
                <end>37384</end>
                <file id="src-1"/>
                <sourcetrack>
                  <mediatype>video</mediatype>
                  <trackindex>1</trackindex>
                </sourcetrack>
                <multiclip id="mcs-378">
                  <name>MCS-378</name>
                  <masterclipid>clip-master</masterclipid>
                  <collapsed>false</collapsed>
                  <angle>
                    <activevideoangle>true</activevideoangle>
                    <activeaudioangle>true</activeaudioangle>
                    <clip id="clip-1"/>
                  </angle>
                  <angle>
                    <activevideoangle>false</activevideoangle>
                    <activeaudioangle>false</activeaudioangle>
                    <clip id="clip-2"/>
                  </angle>
                  <angle>
                    <activevideoangle>false</activevideoangle>
                    <activeaudioangle>false</activeaudioangle>
                    <clip id="clip-3"/>
                  </angle>
                  <angle>
                    <activevideoangle>false</activevideoangle>
                    <activeaudioangle>false</activeaudioangle>
                    <clip id="clip-4"/>
                  </angle>
                  <angle>
                    <activevideoangle>false</activevideoangle>
                    <activeaudioangle>false</activeaudioangle>
                    <clip id="clip-5"/>
                  </angle>
                  <angle>
                    <activevideoangle>false</activevideoangle>
                    <activeaudioangle>false</activeaudioangle>
                    <clip id="clip-6"/>
                  </angle>
                  <angle>
                    <activevideoangle>false</activevideoangle>
                    <activeaudioangle>false</activeaudioangle>
                    <clip id="clip-7"/>
                  </angle>
                  <masterclipid>clip-master</masterclipid>
                </multiclip>
              </clipitem>
              <clipitem id="cs-379">
                <duration>107</duration>
                <rate>
                  <ntsc>false</ntsc>
                  <timebase>25</timebase>
                </rate>
                <in>37384</in>
                <out>37490</out>
                <start>37384</start>
                <end>37490</end>
                <file id="src-2"/>
                <sourcetrack>
                  <mediatype>video</mediatype>
                  <trackindex>1</trackindex>
                </sourcetrack>
                <multiclip id="mcs-379">
                  <name>MCS-379</name>
                  <masterclipid>clip-master</masterclipid>
                  <collapsed>false</collapsed>
                  <angle>
                    <activevideoangle>false</activevideoangle>
                    <activeaudioangle>false</activeaudioangle>
                    <clip id="clip-1"/>
                  </angle>
                  <angle>
                    <activevideoangle>true</activevideoangle>
                    <activeaudioangle>true</activeaudioangle>
                    <clip id="clip-2"/>
                  </angle>
                  <angle>
                    <activevideoangle>false</activevideoangle>
                    <activeaudioangle>false</activeaudioangle>
                    <clip id="clip-3"/>
                  </angle>
                  <angle>
                    <activevideoangle>false</activevideoangle>
                    <activeaudioangle>false</activeaudioangle>
                    <clip id="clip-4"/>
                  </angle>
                  <angle>
                    <activevideoangle>false</activevideoangle>
                    <activeaudioangle>false</activeaudioangle>
                    <clip id="clip-5"/>
                  </angle>
                  <angle>
                    <activevideoangle>false</activevideoangle>
                    <activeaudioangle>false</activeaudioangle>
                    <clip id="clip-6"/>
                  </angle>
                  <angle>
                    <activevideoangle>false</activevideoangle>
                    <activeaudioangle>false</activeaudioangle>
                    <clip id="clip-7"/>
                  </angle>
                  <masterclipid>clip-master</masterclipid>
                </multiclip>
              </clipitem>
              <clipitem id="cs-380">
                <duration>82</duration>
                <rate>
                  <ntsc>false</ntsc>
                  <timebase>25</timebase>
                </rate>
                <in>37490</in>
                <out>37571</out>
                <start>37490</start>
                <end>37571</end>
                <file id="src-3"/>
                <sourcetrack>
                  <mediatype>video</mediatype>
                  <trackindex>1</trackindex>
                </sourcetrack>
                <multiclip id="mcs-380">
                  <name>MCS-380</name>
                  <masterclipid>clip-master</masterclipid>
                  <collapsed>false</collapsed>
                  <angle>
                    <activevideoangle>false</activevideoangle>
                    <activeaudioangle>false</activeaudioangle>
                    <clip id="clip-1"/>
                  </angle>
                  <angle>
                    <activevideoangle>false</activevideoangle>
                    <activeaudioangle>false</activeaudioangle>
                    <clip id="clip-2"/>
                  </angle>
                  <angle>
                    <activevideoangle>true</activevideoangle>
                    <activeaudioangle>true</activeaudioangle>
                    <clip id="clip-3"/>
                  </angle>
                  <angle>
                    <activevideoangle>false</activevideoangle>
                    <activeaudioangle>false</activeaudioangle>
                    <clip id="clip-4"/>
                  </angle>
                  <angle>
                    <activevideoangle>false</activevideoangle>
                    <activeaudioangle>false</activeaudioangle>
                    <clip id="clip-5"/>
                  </angle>
                  <angle>
                    <activevideoangle>false</activevideoangle>
                    <activeaudioangle>false</activeaudioangle>
                    <clip id="clip-6"/>
                  </angle>
                  <angle>
                    <activevideoangle>false</activevideoangle>
                    <activeaudioangle>false</activeaudioangle>
                    <clip id="clip-7"/>
                  </angle>
                  <masterclipid>clip-master</masterclipid>
                </multiclip>
              </clipitem>
              <clipitem id="cs-381">
                <duration>75</duration>
                <rate>
                  <ntsc>false</ntsc>
                  <timebase>25</timebase>
                </rate>
                <in>37571</in>
                <out>37645</out>
                <start>37571</start>
                <end>37645</end>
                <file id="src-4"/>
                <sourcetrack>
                  <mediatype>video</mediatype>
                  <trackindex>1</trackindex>
                </sourcetrack>
                <multiclip id="mcs-381">
                  <name>MCS-381</name>
                  <masterclipid>clip-master</masterclipid>
                  <collapsed>false</collapsed>
                  <angle>
                    <activevideoangle>false</activevideoangle>
                    <activeaudioangle>false</activeaudioangle>
                    <clip id="clip-1"/>
                  </angle>
                  <angle>
                    <activevideoangle>false</activevideoangle>
                    <activeaudioangle>false</activeaudioangle>
                    <clip id="clip-2"/>
                  </angle>
                  <angle>
                    <activevideoangle>false</activevideoangle>
                    <activeaudioangle>false</activeaudioangle>
                    <clip id="clip-3"/>
                  </angle>
                  <angle>
                    <activevideoangle>true</activevideoangle>
                    <activeaudioangle>true</activeaudioangle>
                    <clip id="clip-4"/>
                  </angle>
                  <angle>
                    <activevideoangle>false</activevideoangle>
                    <activeaudioangle>false</activeaudioangle>
                    <clip id="clip-5"/>
                  </angle>
                  <angle>
                    <activevideoangle>false</activevideoangle>
                    <activeaudioangle>false</activeaudioangle>
                    <clip id="clip-6"/>
                  </angle>
                  <angle>
                    <activevideoangle>false</activevideoangle>
                    <activeaudioangle>false</activeaudioangle>
                    <clip id="clip-7"/>
                  </angle>
                  <masterclipid>clip-master</masterclipid>
                </multiclip>
              </clipitem>
              <clipitem id="cs-382">
                <duration>82</duration>
                <rate>
                  <ntsc>false</ntsc>
                  <timebase>25</timebase>
                </rate>
                <in>37645</in>
                <out>37726</out>
                <start>37645</start>
                <end>37726</end>
                <file id="src-3"/>
                <sourcetrack>
                  <mediatype>video</mediatype>
                  <trackindex>1</trackindex>
                </sourcetrack>
                <multiclip id="mcs-382">
                  <name>MCS-382</name>
                  <masterclipid>clip-master</masterclipid>
                  <collapsed>false</collapsed>
                  <angle>
                    <activevideoangle>false</activevideoangle>
                    <activeaudioangle>false</activeaudioangle>
                    <clip id="clip-1"/>
                  </angle>
                  <angle>
                    <activevideoangle>false</activevideoangle>
                    <activeaudioangle>false</activeaudioangle>
                    <clip id="clip-2"/>
                  </angle>
                  <angle>
                    <activevideoangle>true</activevideoangle>
                    <activeaudioangle>true</activeaudioangle>
                    <clip id="clip-3"/>
                  </angle>
                  <angle>
                    <activevideoangle>false</activevideoangle>
                    <activeaudioangle>false</activeaudioangle>
                    <clip id="clip-4"/>
                  </angle>
                  <angle>
                    <activevideoangle>false</activevideoangle>
                    <activeaudioangle>false</activeaudioangle>
                    <clip id="clip-5"/>
                  </angle>
                  <angle>
                    <activevideoangle>false</activevideoangle>
                    <activeaudioangle>false</activeaudioangle>
                    <clip id="clip-6"/>
                  </angle>
                  <angle>
                    <activevideoangle>false</activevideoangle>
                    <activeaudioangle>false</activeaudioangle>
                    <clip id="clip-7"/>
                  </angle>
                  <masterclipid>clip-master</masterclipid>
                </multiclip>
              </clipitem>
              <clipitem id="cs-383">
                <duration>262</duration>
                <rate>
                  <ntsc>false</ntsc>
                  <timebase>25</timebase>
                </rate>
                <in>37726</in>
                <out>37987</out>
                <start>37726</start>
                <end>37987</end>
                <file id="src-2"/>
                <sourcetrack>
                  <mediatype>video</mediatype>
                  <trackindex>1</trackindex>
                </sourcetrack>
                <multiclip id="mcs-383">
                  <name>MCS-383</name>
                  <masterclipid>clip-master</masterclipid>
                  <collapsed>false</collapsed>
                  <angle>
                    <activevideoangle>false</activevideoangle>
                    <activeaudioangle>false</activeaudioangle>
                    <clip id="clip-1"/>
                  </angle>
                  <angle>
                    <activevideoangle>true</activevideoangle>
                    <activeaudioangle>true</activeaudioangle>
                    <clip id="clip-2"/>
                  </angle>
                  <angle>
                    <activevideoangle>false</activevideoangle>
                    <activeaudioangle>false</activeaudioangle>
                    <clip id="clip-3"/>
                  </angle>
                  <angle>
                    <activevideoangle>false</activevideoangle>
                    <activeaudioangle>false</activeaudioangle>
                    <clip id="clip-4"/>
                  </angle>
                  <angle>
                    <activevideoangle>false</activevideoangle>
                    <activeaudioangle>false</activeaudioangle>
                    <clip id="clip-5"/>
                  </angle>
                  <angle>
                    <activevideoangle>false</activevideoangle>
                    <activeaudioangle>false</activeaudioangle>
                    <clip id="clip-6"/>
                  </angle>
                  <angle>
                    <activevideoangle>false</activevideoangle>
                    <activeaudioangle>false</activeaudioangle>
                    <clip id="clip-7"/>
                  </angle>
                  <masterclipid>clip-master</masterclipid>
                </multiclip>
              </clipitem>
              <clipitem id="cs-384">
                <duration>179</duration>
                <rate>
                  <ntsc>false</ntsc>
                  <timebase>25</timebase>
                </rate>
                <in>37987</in>
                <out>38165</out>
                <start>37987</start>
                <end>38165</end>
                <file id="src-3"/>
                <sourcetrack>
                  <mediatype>video</mediatype>
                  <trackindex>1</trackindex>
                </sourcetrack>
                <multiclip id="mcs-384">
                  <name>MCS-384</name>
                  <masterclipid>clip-master</masterclipid>
                  <collapsed>false</collapsed>
                  <angle>
                    <activevideoangle>false</activevideoangle>
                    <activeaudioangle>false</activeaudioangle>
                    <clip id="clip-1"/>
                  </angle>
                  <angle>
                    <activevideoangle>false</activevideoangle>
                    <activeaudioangle>false</activeaudioangle>
                    <clip id="clip-2"/>
                  </angle>
                  <angle>
                    <activevideoangle>true</activevideoangle>
                    <activeaudioangle>true</activeaudioangle>
                    <clip id="clip-3"/>
                  </angle>
                  <angle>
                    <activevideoangle>false</activevideoangle>
                    <activeaudioangle>false</activeaudioangle>
                    <clip id="clip-4"/>
                  </angle>
                  <angle>
                    <activevideoangle>false</activevideoangle>
                    <activeaudioangle>false</activeaudioangle>
                    <clip id="clip-5"/>
                  </angle>
                  <angle>
                    <activevideoangle>false</activevideoangle>
                    <activeaudioangle>false</activeaudioangle>
                    <clip id="clip-6"/>
                  </angle>
                  <angle>
                    <activevideoangle>false</activevideoangle>
                    <activeaudioangle>false</activeaudioangle>
                    <clip id="clip-7"/>
                  </angle>
                  <masterclipid>clip-master</masterclipid>
                </multiclip>
              </clipitem>
              <clipitem id="cs-385">
                <duration>72</duration>
                <rate>
                  <ntsc>false</ntsc>
                  <timebase>25</timebase>
                </rate>
                <in>38165</in>
                <out>38236</out>
                <start>38165</start>
                <end>38236</end>
                <file id="src-4"/>
                <sourcetrack>
                  <mediatype>video</mediatype>
                  <trackindex>1</trackindex>
                </sourcetrack>
                <multiclip id="mcs-385">
                  <name>MCS-385</name>
                  <masterclipid>clip-master</masterclipid>
                  <collapsed>false</collapsed>
                  <angle>
                    <activevideoangle>false</activevideoangle>
                    <activeaudioangle>false</activeaudioangle>
                    <clip id="clip-1"/>
                  </angle>
                  <angle>
                    <activevideoangle>false</activevideoangle>
                    <activeaudioangle>false</activeaudioangle>
                    <clip id="clip-2"/>
                  </angle>
                  <angle>
                    <activevideoangle>false</activevideoangle>
                    <activeaudioangle>false</activeaudioangle>
                    <clip id="clip-3"/>
                  </angle>
                  <angle>
                    <activevideoangle>true</activevideoangle>
                    <activeaudioangle>true</activeaudioangle>
                    <clip id="clip-4"/>
                  </angle>
                  <angle>
                    <activevideoangle>false</activevideoangle>
                    <activeaudioangle>false</activeaudioangle>
                    <clip id="clip-5"/>
                  </angle>
                  <angle>
                    <activevideoangle>false</activevideoangle>
                    <activeaudioangle>false</activeaudioangle>
                    <clip id="clip-6"/>
                  </angle>
                  <angle>
                    <activevideoangle>false</activevideoangle>
                    <activeaudioangle>false</activeaudioangle>
                    <clip id="clip-7"/>
                  </angle>
                  <masterclipid>clip-master</masterclipid>
                </multiclip>
              </clipitem>
              <clipitem id="cs-386">
                <duration>134</duration>
                <rate>
                  <ntsc>false</ntsc>
                  <timebase>25</timebase>
                </rate>
                <in>38236</in>
                <out>38369</out>
                <start>38236</start>
                <end>38369</end>
                <file id="src-3"/>
                <sourcetrack>
                  <mediatype>video</mediatype>
                  <trackindex>1</trackindex>
                </sourcetrack>
                <multiclip id="mcs-386">
                  <name>MCS-386</name>
                  <masterclipid>clip-master</masterclipid>
                  <collapsed>false</collapsed>
                  <angle>
                    <activevideoangle>false</activevideoangle>
                    <activeaudioangle>false</activeaudioangle>
                    <clip id="clip-1"/>
                  </angle>
                  <angle>
                    <activevideoangle>false</activevideoangle>
                    <activeaudioangle>false</activeaudioangle>
                    <clip id="clip-2"/>
                  </angle>
                  <angle>
                    <activevideoangle>true</activevideoangle>
                    <activeaudioangle>true</activeaudioangle>
                    <clip id="clip-3"/>
                  </angle>
                  <angle>
                    <activevideoangle>false</activevideoangle>
                    <activeaudioangle>false</activeaudioangle>
                    <clip id="clip-4"/>
                  </angle>
                  <angle>
                    <activevideoangle>false</activevideoangle>
                    <activeaudioangle>false</activeaudioangle>
                    <clip id="clip-5"/>
                  </angle>
                  <angle>
                    <activevideoangle>false</activevideoangle>
                    <activeaudioangle>false</activeaudioangle>
                    <clip id="clip-6"/>
                  </angle>
                  <angle>
                    <activevideoangle>false</activevideoangle>
                    <activeaudioangle>false</activeaudioangle>
                    <clip id="clip-7"/>
                  </angle>
                  <masterclipid>clip-master</masterclipid>
                </multiclip>
              </clipitem>
              <clipitem id="cs-387">
                <duration>87</duration>
                <rate>
                  <ntsc>false</ntsc>
                  <timebase>25</timebase>
                </rate>
                <in>38369</in>
                <out>38455</out>
                <start>38369</start>
                <end>38455</end>
                <file id="src-2"/>
                <sourcetrack>
                  <mediatype>video</mediatype>
                  <trackindex>1</trackindex>
                </sourcetrack>
                <multiclip id="mcs-387">
                  <name>MCS-387</name>
                  <masterclipid>clip-master</masterclipid>
                  <collapsed>false</collapsed>
                  <angle>
                    <activevideoangle>false</activevideoangle>
                    <activeaudioangle>false</activeaudioangle>
                    <clip id="clip-1"/>
                  </angle>
                  <angle>
                    <activevideoangle>true</activevideoangle>
                    <activeaudioangle>true</activeaudioangle>
                    <clip id="clip-2"/>
                  </angle>
                  <angle>
                    <activevideoangle>false</activevideoangle>
                    <activeaudioangle>false</activeaudioangle>
                    <clip id="clip-3"/>
                  </angle>
                  <angle>
                    <activevideoangle>false</activevideoangle>
                    <activeaudioangle>false</activeaudioangle>
                    <clip id="clip-4"/>
                  </angle>
                  <angle>
                    <activevideoangle>false</activevideoangle>
                    <activeaudioangle>false</activeaudioangle>
                    <clip id="clip-5"/>
                  </angle>
                  <angle>
                    <activevideoangle>false</activevideoangle>
                    <activeaudioangle>false</activeaudioangle>
                    <clip id="clip-6"/>
                  </angle>
                  <angle>
                    <activevideoangle>false</activevideoangle>
                    <activeaudioangle>false</activeaudioangle>
                    <clip id="clip-7"/>
                  </angle>
                  <masterclipid>clip-master</masterclipid>
                </multiclip>
              </clipitem>
              <clipitem id="cs-388">
                <duration>151</duration>
                <rate>
                  <ntsc>false</ntsc>
                  <timebase>25</timebase>
                </rate>
                <in>38455</in>
                <out>38605</out>
                <start>38455</start>
                <end>38605</end>
                <file id="src-3"/>
                <sourcetrack>
                  <mediatype>video</mediatype>
                  <trackindex>1</trackindex>
                </sourcetrack>
                <multiclip id="mcs-388">
                  <name>MCS-388</name>
                  <masterclipid>clip-master</masterclipid>
                  <collapsed>false</collapsed>
                  <angle>
                    <activevideoangle>false</activevideoangle>
                    <activeaudioangle>false</activeaudioangle>
                    <clip id="clip-1"/>
                  </angle>
                  <angle>
                    <activevideoangle>false</activevideoangle>
                    <activeaudioangle>false</activeaudioangle>
                    <clip id="clip-2"/>
                  </angle>
                  <angle>
                    <activevideoangle>true</activevideoangle>
                    <activeaudioangle>true</activeaudioangle>
                    <clip id="clip-3"/>
                  </angle>
                  <angle>
                    <activevideoangle>false</activevideoangle>
                    <activeaudioangle>false</activeaudioangle>
                    <clip id="clip-4"/>
                  </angle>
                  <angle>
                    <activevideoangle>false</activevideoangle>
                    <activeaudioangle>false</activeaudioangle>
                    <clip id="clip-5"/>
                  </angle>
                  <angle>
                    <activevideoangle>false</activevideoangle>
                    <activeaudioangle>false</activeaudioangle>
                    <clip id="clip-6"/>
                  </angle>
                  <angle>
                    <activevideoangle>false</activevideoangle>
                    <activeaudioangle>false</activeaudioangle>
                    <clip id="clip-7"/>
                  </angle>
                  <masterclipid>clip-master</masterclipid>
                </multiclip>
              </clipitem>
              <clipitem id="cs-389">
                <duration>74</duration>
                <rate>
                  <ntsc>false</ntsc>
                  <timebase>25</timebase>
                </rate>
                <in>38605</in>
                <out>38678</out>
                <start>38605</start>
                <end>38678</end>
                <file id="src-2"/>
                <sourcetrack>
                  <mediatype>video</mediatype>
                  <trackindex>1</trackindex>
                </sourcetrack>
                <multiclip id="mcs-389">
                  <name>MCS-389</name>
                  <masterclipid>clip-master</masterclipid>
                  <collapsed>false</collapsed>
                  <angle>
                    <activevideoangle>false</activevideoangle>
                    <activeaudioangle>false</activeaudioangle>
                    <clip id="clip-1"/>
                  </angle>
                  <angle>
                    <activevideoangle>true</activevideoangle>
                    <activeaudioangle>true</activeaudioangle>
                    <clip id="clip-2"/>
                  </angle>
                  <angle>
                    <activevideoangle>false</activevideoangle>
                    <activeaudioangle>false</activeaudioangle>
                    <clip id="clip-3"/>
                  </angle>
                  <angle>
                    <activevideoangle>false</activevideoangle>
                    <activeaudioangle>false</activeaudioangle>
                    <clip id="clip-4"/>
                  </angle>
                  <angle>
                    <activevideoangle>false</activevideoangle>
                    <activeaudioangle>false</activeaudioangle>
                    <clip id="clip-5"/>
                  </angle>
                  <angle>
                    <activevideoangle>false</activevideoangle>
                    <activeaudioangle>false</activeaudioangle>
                    <clip id="clip-6"/>
                  </angle>
                  <angle>
                    <activevideoangle>false</activevideoangle>
                    <activeaudioangle>false</activeaudioangle>
                    <clip id="clip-7"/>
                  </angle>
                  <masterclipid>clip-master</masterclipid>
                </multiclip>
              </clipitem>
              <clipitem id="cs-390">
                <duration>166</duration>
                <rate>
                  <ntsc>false</ntsc>
                  <timebase>25</timebase>
                </rate>
                <in>38678</in>
                <out>38843</out>
                <start>38678</start>
                <end>38843</end>
                <file id="src-4"/>
                <sourcetrack>
                  <mediatype>video</mediatype>
                  <trackindex>1</trackindex>
                </sourcetrack>
                <multiclip id="mcs-390">
                  <name>MCS-390</name>
                  <masterclipid>clip-master</masterclipid>
                  <collapsed>false</collapsed>
                  <angle>
                    <activevideoangle>false</activevideoangle>
                    <activeaudioangle>false</activeaudioangle>
                    <clip id="clip-1"/>
                  </angle>
                  <angle>
                    <activevideoangle>false</activevideoangle>
                    <activeaudioangle>false</activeaudioangle>
                    <clip id="clip-2"/>
                  </angle>
                  <angle>
                    <activevideoangle>false</activevideoangle>
                    <activeaudioangle>false</activeaudioangle>
                    <clip id="clip-3"/>
                  </angle>
                  <angle>
                    <activevideoangle>true</activevideoangle>
                    <activeaudioangle>true</activeaudioangle>
                    <clip id="clip-4"/>
                  </angle>
                  <angle>
                    <activevideoangle>false</activevideoangle>
                    <activeaudioangle>false</activeaudioangle>
                    <clip id="clip-5"/>
                  </angle>
                  <angle>
                    <activevideoangle>false</activevideoangle>
                    <activeaudioangle>false</activeaudioangle>
                    <clip id="clip-6"/>
                  </angle>
                  <angle>
                    <activevideoangle>false</activevideoangle>
                    <activeaudioangle>false</activeaudioangle>
                    <clip id="clip-7"/>
                  </angle>
                  <masterclipid>clip-master</masterclipid>
                </multiclip>
              </clipitem>
              <clipitem id="cs-391">
                <duration>128</duration>
                <rate>
                  <ntsc>false</ntsc>
                  <timebase>25</timebase>
                </rate>
                <in>38843</in>
                <out>38970</out>
                <start>38843</start>
                <end>38970</end>
                <file id="src-2"/>
                <sourcetrack>
                  <mediatype>video</mediatype>
                  <trackindex>1</trackindex>
                </sourcetrack>
                <multiclip id="mcs-391">
                  <name>MCS-391</name>
                  <masterclipid>clip-master</masterclipid>
                  <collapsed>false</collapsed>
                  <angle>
                    <activevideoangle>false</activevideoangle>
                    <activeaudioangle>false</activeaudioangle>
                    <clip id="clip-1"/>
                  </angle>
                  <angle>
                    <activevideoangle>true</activevideoangle>
                    <activeaudioangle>true</activeaudioangle>
                    <clip id="clip-2"/>
                  </angle>
                  <angle>
                    <activevideoangle>false</activevideoangle>
                    <activeaudioangle>false</activeaudioangle>
                    <clip id="clip-3"/>
                  </angle>
                  <angle>
                    <activevideoangle>false</activevideoangle>
                    <activeaudioangle>false</activeaudioangle>
                    <clip id="clip-4"/>
                  </angle>
                  <angle>
                    <activevideoangle>false</activevideoangle>
                    <activeaudioangle>false</activeaudioangle>
                    <clip id="clip-5"/>
                  </angle>
                  <angle>
                    <activevideoangle>false</activevideoangle>
                    <activeaudioangle>false</activeaudioangle>
                    <clip id="clip-6"/>
                  </angle>
                  <angle>
                    <activevideoangle>false</activevideoangle>
                    <activeaudioangle>false</activeaudioangle>
                    <clip id="clip-7"/>
                  </angle>
                  <masterclipid>clip-master</masterclipid>
                </multiclip>
              </clipitem>
              <clipitem id="cs-392">
                <duration>346</duration>
                <rate>
                  <ntsc>false</ntsc>
                  <timebase>25</timebase>
                </rate>
                <in>38970</in>
                <out>39315</out>
                <start>38970</start>
                <end>39315</end>
                <file id="src-3"/>
                <sourcetrack>
                  <mediatype>video</mediatype>
                  <trackindex>1</trackindex>
                </sourcetrack>
                <multiclip id="mcs-392">
                  <name>MCS-392</name>
                  <masterclipid>clip-master</masterclipid>
                  <collapsed>false</collapsed>
                  <angle>
                    <activevideoangle>false</activevideoangle>
                    <activeaudioangle>false</activeaudioangle>
                    <clip id="clip-1"/>
                  </angle>
                  <angle>
                    <activevideoangle>false</activevideoangle>
                    <activeaudioangle>false</activeaudioangle>
                    <clip id="clip-2"/>
                  </angle>
                  <angle>
                    <activevideoangle>true</activevideoangle>
                    <activeaudioangle>true</activeaudioangle>
                    <clip id="clip-3"/>
                  </angle>
                  <angle>
                    <activevideoangle>false</activevideoangle>
                    <activeaudioangle>false</activeaudioangle>
                    <clip id="clip-4"/>
                  </angle>
                  <angle>
                    <activevideoangle>false</activevideoangle>
                    <activeaudioangle>false</activeaudioangle>
                    <clip id="clip-5"/>
                  </angle>
                  <angle>
                    <activevideoangle>false</activevideoangle>
                    <activeaudioangle>false</activeaudioangle>
                    <clip id="clip-6"/>
                  </angle>
                  <angle>
                    <activevideoangle>false</activevideoangle>
                    <activeaudioangle>false</activeaudioangle>
                    <clip id="clip-7"/>
                  </angle>
                  <masterclipid>clip-master</masterclipid>
                </multiclip>
              </clipitem>
              <clipitem id="cs-393">
                <duration>150</duration>
                <rate>
                  <ntsc>false</ntsc>
                  <timebase>25</timebase>
                </rate>
                <in>39315</in>
                <out>39464</out>
                <start>39315</start>
                <end>39464</end>
                <file id="src-2"/>
                <sourcetrack>
                  <mediatype>video</mediatype>
                  <trackindex>1</trackindex>
                </sourcetrack>
                <multiclip id="mcs-393">
                  <name>MCS-393</name>
                  <masterclipid>clip-master</masterclipid>
                  <collapsed>false</collapsed>
                  <angle>
                    <activevideoangle>false</activevideoangle>
                    <activeaudioangle>false</activeaudioangle>
                    <clip id="clip-1"/>
                  </angle>
                  <angle>
                    <activevideoangle>true</activevideoangle>
                    <activeaudioangle>true</activeaudioangle>
                    <clip id="clip-2"/>
                  </angle>
                  <angle>
                    <activevideoangle>false</activevideoangle>
                    <activeaudioangle>false</activeaudioangle>
                    <clip id="clip-3"/>
                  </angle>
                  <angle>
                    <activevideoangle>false</activevideoangle>
                    <activeaudioangle>false</activeaudioangle>
                    <clip id="clip-4"/>
                  </angle>
                  <angle>
                    <activevideoangle>false</activevideoangle>
                    <activeaudioangle>false</activeaudioangle>
                    <clip id="clip-5"/>
                  </angle>
                  <angle>
                    <activevideoangle>false</activevideoangle>
                    <activeaudioangle>false</activeaudioangle>
                    <clip id="clip-6"/>
                  </angle>
                  <angle>
                    <activevideoangle>false</activevideoangle>
                    <activeaudioangle>false</activeaudioangle>
                    <clip id="clip-7"/>
                  </angle>
                  <masterclipid>clip-master</masterclipid>
                </multiclip>
              </clipitem>
              <clipitem id="cs-394">
                <duration>382</duration>
                <rate>
                  <ntsc>false</ntsc>
                  <timebase>25</timebase>
                </rate>
                <in>39464</in>
                <out>39845</out>
                <start>39464</start>
                <end>39845</end>
                <file id="src-1"/>
                <sourcetrack>
                  <mediatype>video</mediatype>
                  <trackindex>1</trackindex>
                </sourcetrack>
                <multiclip id="mcs-394">
                  <name>MCS-394</name>
                  <masterclipid>clip-master</masterclipid>
                  <collapsed>false</collapsed>
                  <angle>
                    <activevideoangle>true</activevideoangle>
                    <activeaudioangle>true</activeaudioangle>
                    <clip id="clip-1"/>
                  </angle>
                  <angle>
                    <activevideoangle>false</activevideoangle>
                    <activeaudioangle>false</activeaudioangle>
                    <clip id="clip-2"/>
                  </angle>
                  <angle>
                    <activevideoangle>false</activevideoangle>
                    <activeaudioangle>false</activeaudioangle>
                    <clip id="clip-3"/>
                  </angle>
                  <angle>
                    <activevideoangle>false</activevideoangle>
                    <activeaudioangle>false</activeaudioangle>
                    <clip id="clip-4"/>
                  </angle>
                  <angle>
                    <activevideoangle>false</activevideoangle>
                    <activeaudioangle>false</activeaudioangle>
                    <clip id="clip-5"/>
                  </angle>
                  <angle>
                    <activevideoangle>false</activevideoangle>
                    <activeaudioangle>false</activeaudioangle>
                    <clip id="clip-6"/>
                  </angle>
                  <angle>
                    <activevideoangle>false</activevideoangle>
                    <activeaudioangle>false</activeaudioangle>
                    <clip id="clip-7"/>
                  </angle>
                  <masterclipid>clip-master</masterclipid>
                </multiclip>
              </clipitem>
              <clipitem id="cs-395">
                <duration>125</duration>
                <rate>
                  <ntsc>false</ntsc>
                  <timebase>25</timebase>
                </rate>
                <in>39845</in>
                <out>39969</out>
                <start>39845</start>
                <end>39969</end>
                <file id="src-4"/>
                <sourcetrack>
                  <mediatype>video</mediatype>
                  <trackindex>1</trackindex>
                </sourcetrack>
                <multiclip id="mcs-395">
                  <name>MCS-395</name>
                  <masterclipid>clip-master</masterclipid>
                  <collapsed>false</collapsed>
                  <angle>
                    <activevideoangle>false</activevideoangle>
                    <activeaudioangle>false</activeaudioangle>
                    <clip id="clip-1"/>
                  </angle>
                  <angle>
                    <activevideoangle>false</activevideoangle>
                    <activeaudioangle>false</activeaudioangle>
                    <clip id="clip-2"/>
                  </angle>
                  <angle>
                    <activevideoangle>false</activevideoangle>
                    <activeaudioangle>false</activeaudioangle>
                    <clip id="clip-3"/>
                  </angle>
                  <angle>
                    <activevideoangle>true</activevideoangle>
                    <activeaudioangle>true</activeaudioangle>
                    <clip id="clip-4"/>
                  </angle>
                  <angle>
                    <activevideoangle>false</activevideoangle>
                    <activeaudioangle>false</activeaudioangle>
                    <clip id="clip-5"/>
                  </angle>
                  <angle>
                    <activevideoangle>false</activevideoangle>
                    <activeaudioangle>false</activeaudioangle>
                    <clip id="clip-6"/>
                  </angle>
                  <angle>
                    <activevideoangle>false</activevideoangle>
                    <activeaudioangle>false</activeaudioangle>
                    <clip id="clip-7"/>
                  </angle>
                  <masterclipid>clip-master</masterclipid>
                </multiclip>
              </clipitem>
              <clipitem id="cs-396">
                <duration>199</duration>
                <rate>
                  <ntsc>false</ntsc>
                  <timebase>25</timebase>
                </rate>
                <in>39969</in>
                <out>40167</out>
                <start>39969</start>
                <end>40167</end>
                <file id="src-2"/>
                <sourcetrack>
                  <mediatype>video</mediatype>
                  <trackindex>1</trackindex>
                </sourcetrack>
                <multiclip id="mcs-396">
                  <name>MCS-396</name>
                  <masterclipid>clip-master</masterclipid>
                  <collapsed>false</collapsed>
                  <angle>
                    <activevideoangle>false</activevideoangle>
                    <activeaudioangle>false</activeaudioangle>
                    <clip id="clip-1"/>
                  </angle>
                  <angle>
                    <activevideoangle>true</activevideoangle>
                    <activeaudioangle>true</activeaudioangle>
                    <clip id="clip-2"/>
                  </angle>
                  <angle>
                    <activevideoangle>false</activevideoangle>
                    <activeaudioangle>false</activeaudioangle>
                    <clip id="clip-3"/>
                  </angle>
                  <angle>
                    <activevideoangle>false</activevideoangle>
                    <activeaudioangle>false</activeaudioangle>
                    <clip id="clip-4"/>
                  </angle>
                  <angle>
                    <activevideoangle>false</activevideoangle>
                    <activeaudioangle>false</activeaudioangle>
                    <clip id="clip-5"/>
                  </angle>
                  <angle>
                    <activevideoangle>false</activevideoangle>
                    <activeaudioangle>false</activeaudioangle>
                    <clip id="clip-6"/>
                  </angle>
                  <angle>
                    <activevideoangle>false</activevideoangle>
                    <activeaudioangle>false</activeaudioangle>
                    <clip id="clip-7"/>
                  </angle>
                  <masterclipid>clip-master</masterclipid>
                </multiclip>
              </clipitem>
              <clipitem id="cs-397">
                <duration>203</duration>
                <rate>
                  <ntsc>false</ntsc>
                  <timebase>25</timebase>
                </rate>
                <in>40167</in>
                <out>40369</out>
                <start>40167</start>
                <end>40369</end>
                <file id="src-3"/>
                <sourcetrack>
                  <mediatype>video</mediatype>
                  <trackindex>1</trackindex>
                </sourcetrack>
                <multiclip id="mcs-397">
                  <name>MCS-397</name>
                  <masterclipid>clip-master</masterclipid>
                  <collapsed>false</collapsed>
                  <angle>
                    <activevideoangle>false</activevideoangle>
                    <activeaudioangle>false</activeaudioangle>
                    <clip id="clip-1"/>
                  </angle>
                  <angle>
                    <activevideoangle>false</activevideoangle>
                    <activeaudioangle>false</activeaudioangle>
                    <clip id="clip-2"/>
                  </angle>
                  <angle>
                    <activevideoangle>true</activevideoangle>
                    <activeaudioangle>true</activeaudioangle>
                    <clip id="clip-3"/>
                  </angle>
                  <angle>
                    <activevideoangle>false</activevideoangle>
                    <activeaudioangle>false</activeaudioangle>
                    <clip id="clip-4"/>
                  </angle>
                  <angle>
                    <activevideoangle>false</activevideoangle>
                    <activeaudioangle>false</activeaudioangle>
                    <clip id="clip-5"/>
                  </angle>
                  <angle>
                    <activevideoangle>false</activevideoangle>
                    <activeaudioangle>false</activeaudioangle>
                    <clip id="clip-6"/>
                  </angle>
                  <angle>
                    <activevideoangle>false</activevideoangle>
                    <activeaudioangle>false</activeaudioangle>
                    <clip id="clip-7"/>
                  </angle>
                  <masterclipid>clip-master</masterclipid>
                </multiclip>
              </clipitem>
              <clipitem id="cs-398">
                <duration>102</duration>
                <rate>
                  <ntsc>false</ntsc>
                  <timebase>25</timebase>
                </rate>
                <in>40369</in>
                <out>40470</out>
                <start>40369</start>
                <end>40470</end>
                <file id="src-1"/>
                <sourcetrack>
                  <mediatype>video</mediatype>
                  <trackindex>1</trackindex>
                </sourcetrack>
                <multiclip id="mcs-398">
                  <name>MCS-398</name>
                  <masterclipid>clip-master</masterclipid>
                  <collapsed>false</collapsed>
                  <angle>
                    <activevideoangle>true</activevideoangle>
                    <activeaudioangle>true</activeaudioangle>
                    <clip id="clip-1"/>
                  </angle>
                  <angle>
                    <activevideoangle>false</activevideoangle>
                    <activeaudioangle>false</activeaudioangle>
                    <clip id="clip-2"/>
                  </angle>
                  <angle>
                    <activevideoangle>false</activevideoangle>
                    <activeaudioangle>false</activeaudioangle>
                    <clip id="clip-3"/>
                  </angle>
                  <angle>
                    <activevideoangle>false</activevideoangle>
                    <activeaudioangle>false</activeaudioangle>
                    <clip id="clip-4"/>
                  </angle>
                  <angle>
                    <activevideoangle>false</activevideoangle>
                    <activeaudioangle>false</activeaudioangle>
                    <clip id="clip-5"/>
                  </angle>
                  <angle>
                    <activevideoangle>false</activevideoangle>
                    <activeaudioangle>false</activeaudioangle>
                    <clip id="clip-6"/>
                  </angle>
                  <angle>
                    <activevideoangle>false</activevideoangle>
                    <activeaudioangle>false</activeaudioangle>
                    <clip id="clip-7"/>
                  </angle>
                  <masterclipid>clip-master</masterclipid>
                </multiclip>
              </clipitem>
              <clipitem id="cs-399">
                <duration>478</duration>
                <rate>
                  <ntsc>false</ntsc>
                  <timebase>25</timebase>
                </rate>
                <in>40470</in>
                <out>40947</out>
                <start>40470</start>
                <end>40947</end>
                <file id="src-2"/>
                <sourcetrack>
                  <mediatype>video</mediatype>
                  <trackindex>1</trackindex>
                </sourcetrack>
                <multiclip id="mcs-399">
                  <name>MCS-399</name>
                  <masterclipid>clip-master</masterclipid>
                  <collapsed>false</collapsed>
                  <angle>
                    <activevideoangle>false</activevideoangle>
                    <activeaudioangle>false</activeaudioangle>
                    <clip id="clip-1"/>
                  </angle>
                  <angle>
                    <activevideoangle>true</activevideoangle>
                    <activeaudioangle>true</activeaudioangle>
                    <clip id="clip-2"/>
                  </angle>
                  <angle>
                    <activevideoangle>false</activevideoangle>
                    <activeaudioangle>false</activeaudioangle>
                    <clip id="clip-3"/>
                  </angle>
                  <angle>
                    <activevideoangle>false</activevideoangle>
                    <activeaudioangle>false</activeaudioangle>
                    <clip id="clip-4"/>
                  </angle>
                  <angle>
                    <activevideoangle>false</activevideoangle>
                    <activeaudioangle>false</activeaudioangle>
                    <clip id="clip-5"/>
                  </angle>
                  <angle>
                    <activevideoangle>false</activevideoangle>
                    <activeaudioangle>false</activeaudioangle>
                    <clip id="clip-6"/>
                  </angle>
                  <angle>
                    <activevideoangle>false</activevideoangle>
                    <activeaudioangle>false</activeaudioangle>
                    <clip id="clip-7"/>
                  </angle>
                  <masterclipid>clip-master</masterclipid>
                </multiclip>
              </clipitem>
              <clipitem id="cs-400">
                <duration>66</duration>
                <rate>
                  <ntsc>false</ntsc>
                  <timebase>25</timebase>
                </rate>
                <in>40947</in>
                <out>41012</out>
                <start>40947</start>
                <end>41012</end>
                <file id="src-1"/>
                <sourcetrack>
                  <mediatype>video</mediatype>
                  <trackindex>1</trackindex>
                </sourcetrack>
                <multiclip id="mcs-400">
                  <name>MCS-400</name>
                  <masterclipid>clip-master</masterclipid>
                  <collapsed>false</collapsed>
                  <angle>
                    <activevideoangle>true</activevideoangle>
                    <activeaudioangle>true</activeaudioangle>
                    <clip id="clip-1"/>
                  </angle>
                  <angle>
                    <activevideoangle>false</activevideoangle>
                    <activeaudioangle>false</activeaudioangle>
                    <clip id="clip-2"/>
                  </angle>
                  <angle>
                    <activevideoangle>false</activevideoangle>
                    <activeaudioangle>false</activeaudioangle>
                    <clip id="clip-3"/>
                  </angle>
                  <angle>
                    <activevideoangle>false</activevideoangle>
                    <activeaudioangle>false</activeaudioangle>
                    <clip id="clip-4"/>
                  </angle>
                  <angle>
                    <activevideoangle>false</activevideoangle>
                    <activeaudioangle>false</activeaudioangle>
                    <clip id="clip-5"/>
                  </angle>
                  <angle>
                    <activevideoangle>false</activevideoangle>
                    <activeaudioangle>false</activeaudioangle>
                    <clip id="clip-6"/>
                  </angle>
                  <angle>
                    <activevideoangle>false</activevideoangle>
                    <activeaudioangle>false</activeaudioangle>
                    <clip id="clip-7"/>
                  </angle>
                  <masterclipid>clip-master</masterclipid>
                </multiclip>
              </clipitem>
              <clipitem id="cs-401">
                <duration>148</duration>
                <rate>
                  <ntsc>false</ntsc>
                  <timebase>25</timebase>
                </rate>
                <in>41012</in>
                <out>41159</out>
                <start>41012</start>
                <end>41159</end>
                <file id="src-3"/>
                <sourcetrack>
                  <mediatype>video</mediatype>
                  <trackindex>1</trackindex>
                </sourcetrack>
                <multiclip id="mcs-401">
                  <name>MCS-401</name>
                  <masterclipid>clip-master</masterclipid>
                  <collapsed>false</collapsed>
                  <angle>
                    <activevideoangle>false</activevideoangle>
                    <activeaudioangle>false</activeaudioangle>
                    <clip id="clip-1"/>
                  </angle>
                  <angle>
                    <activevideoangle>false</activevideoangle>
                    <activeaudioangle>false</activeaudioangle>
                    <clip id="clip-2"/>
                  </angle>
                  <angle>
                    <activevideoangle>true</activevideoangle>
                    <activeaudioangle>true</activeaudioangle>
                    <clip id="clip-3"/>
                  </angle>
                  <angle>
                    <activevideoangle>false</activevideoangle>
                    <activeaudioangle>false</activeaudioangle>
                    <clip id="clip-4"/>
                  </angle>
                  <angle>
                    <activevideoangle>false</activevideoangle>
                    <activeaudioangle>false</activeaudioangle>
                    <clip id="clip-5"/>
                  </angle>
                  <angle>
                    <activevideoangle>false</activevideoangle>
                    <activeaudioangle>false</activeaudioangle>
                    <clip id="clip-6"/>
                  </angle>
                  <angle>
                    <activevideoangle>false</activevideoangle>
                    <activeaudioangle>false</activeaudioangle>
                    <clip id="clip-7"/>
                  </angle>
                  <masterclipid>clip-master</masterclipid>
                </multiclip>
              </clipitem>
              <clipitem id="cs-402">
                <duration>195</duration>
                <rate>
                  <ntsc>false</ntsc>
                  <timebase>25</timebase>
                </rate>
                <in>41159</in>
                <out>41353</out>
                <start>41159</start>
                <end>41353</end>
                <file id="src-2"/>
                <sourcetrack>
                  <mediatype>video</mediatype>
                  <trackindex>1</trackindex>
                </sourcetrack>
                <multiclip id="mcs-402">
                  <name>MCS-402</name>
                  <masterclipid>clip-master</masterclipid>
                  <collapsed>false</collapsed>
                  <angle>
                    <activevideoangle>false</activevideoangle>
                    <activeaudioangle>false</activeaudioangle>
                    <clip id="clip-1"/>
                  </angle>
                  <angle>
                    <activevideoangle>true</activevideoangle>
                    <activeaudioangle>true</activeaudioangle>
                    <clip id="clip-2"/>
                  </angle>
                  <angle>
                    <activevideoangle>false</activevideoangle>
                    <activeaudioangle>false</activeaudioangle>
                    <clip id="clip-3"/>
                  </angle>
                  <angle>
                    <activevideoangle>false</activevideoangle>
                    <activeaudioangle>false</activeaudioangle>
                    <clip id="clip-4"/>
                  </angle>
                  <angle>
                    <activevideoangle>false</activevideoangle>
                    <activeaudioangle>false</activeaudioangle>
                    <clip id="clip-5"/>
                  </angle>
                  <angle>
                    <activevideoangle>false</activevideoangle>
                    <activeaudioangle>false</activeaudioangle>
                    <clip id="clip-6"/>
                  </angle>
                  <angle>
                    <activevideoangle>false</activevideoangle>
                    <activeaudioangle>false</activeaudioangle>
                    <clip id="clip-7"/>
                  </angle>
                  <masterclipid>clip-master</masterclipid>
                </multiclip>
              </clipitem>
              <clipitem id="cs-403">
                <duration>397</duration>
                <rate>
                  <ntsc>false</ntsc>
                  <timebase>25</timebase>
                </rate>
                <in>41353</in>
                <out>41749</out>
                <start>41353</start>
                <end>41749</end>
                <file id="src-3"/>
                <sourcetrack>
                  <mediatype>video</mediatype>
                  <trackindex>1</trackindex>
                </sourcetrack>
                <multiclip id="mcs-403">
                  <name>MCS-403</name>
                  <masterclipid>clip-master</masterclipid>
                  <collapsed>false</collapsed>
                  <angle>
                    <activevideoangle>false</activevideoangle>
                    <activeaudioangle>false</activeaudioangle>
                    <clip id="clip-1"/>
                  </angle>
                  <angle>
                    <activevideoangle>false</activevideoangle>
                    <activeaudioangle>false</activeaudioangle>
                    <clip id="clip-2"/>
                  </angle>
                  <angle>
                    <activevideoangle>true</activevideoangle>
                    <activeaudioangle>true</activeaudioangle>
                    <clip id="clip-3"/>
                  </angle>
                  <angle>
                    <activevideoangle>false</activevideoangle>
                    <activeaudioangle>false</activeaudioangle>
                    <clip id="clip-4"/>
                  </angle>
                  <angle>
                    <activevideoangle>false</activevideoangle>
                    <activeaudioangle>false</activeaudioangle>
                    <clip id="clip-5"/>
                  </angle>
                  <angle>
                    <activevideoangle>false</activevideoangle>
                    <activeaudioangle>false</activeaudioangle>
                    <clip id="clip-6"/>
                  </angle>
                  <angle>
                    <activevideoangle>false</activevideoangle>
                    <activeaudioangle>false</activeaudioangle>
                    <clip id="clip-7"/>
                  </angle>
                  <masterclipid>clip-master</masterclipid>
                </multiclip>
              </clipitem>
              <clipitem id="cs-404">
                <duration>251</duration>
                <rate>
                  <ntsc>false</ntsc>
                  <timebase>25</timebase>
                </rate>
                <in>41749</in>
                <out>41999</out>
                <start>41749</start>
                <end>41999</end>
                <file id="src-2"/>
                <sourcetrack>
                  <mediatype>video</mediatype>
                  <trackindex>1</trackindex>
                </sourcetrack>
                <multiclip id="mcs-404">
                  <name>MCS-404</name>
                  <masterclipid>clip-master</masterclipid>
                  <collapsed>false</collapsed>
                  <angle>
                    <activevideoangle>false</activevideoangle>
                    <activeaudioangle>false</activeaudioangle>
                    <clip id="clip-1"/>
                  </angle>
                  <angle>
                    <activevideoangle>true</activevideoangle>
                    <activeaudioangle>true</activeaudioangle>
                    <clip id="clip-2"/>
                  </angle>
                  <angle>
                    <activevideoangle>false</activevideoangle>
                    <activeaudioangle>false</activeaudioangle>
                    <clip id="clip-3"/>
                  </angle>
                  <angle>
                    <activevideoangle>false</activevideoangle>
                    <activeaudioangle>false</activeaudioangle>
                    <clip id="clip-4"/>
                  </angle>
                  <angle>
                    <activevideoangle>false</activevideoangle>
                    <activeaudioangle>false</activeaudioangle>
                    <clip id="clip-5"/>
                  </angle>
                  <angle>
                    <activevideoangle>false</activevideoangle>
                    <activeaudioangle>false</activeaudioangle>
                    <clip id="clip-6"/>
                  </angle>
                  <angle>
                    <activevideoangle>false</activevideoangle>
                    <activeaudioangle>false</activeaudioangle>
                    <clip id="clip-7"/>
                  </angle>
                  <masterclipid>clip-master</masterclipid>
                </multiclip>
              </clipitem>
              <clipitem id="cs-405">
                <duration>170</duration>
                <rate>
                  <ntsc>false</ntsc>
                  <timebase>25</timebase>
                </rate>
                <in>41999</in>
                <out>42168</out>
                <start>41999</start>
                <end>42168</end>
                <file id="src-3"/>
                <sourcetrack>
                  <mediatype>video</mediatype>
                  <trackindex>1</trackindex>
                </sourcetrack>
                <multiclip id="mcs-405">
                  <name>MCS-405</name>
                  <masterclipid>clip-master</masterclipid>
                  <collapsed>false</collapsed>
                  <angle>
                    <activevideoangle>false</activevideoangle>
                    <activeaudioangle>false</activeaudioangle>
                    <clip id="clip-1"/>
                  </angle>
                  <angle>
                    <activevideoangle>false</activevideoangle>
                    <activeaudioangle>false</activeaudioangle>
                    <clip id="clip-2"/>
                  </angle>
                  <angle>
                    <activevideoangle>true</activevideoangle>
                    <activeaudioangle>true</activeaudioangle>
                    <clip id="clip-3"/>
                  </angle>
                  <angle>
                    <activevideoangle>false</activevideoangle>
                    <activeaudioangle>false</activeaudioangle>
                    <clip id="clip-4"/>
                  </angle>
                  <angle>
                    <activevideoangle>false</activevideoangle>
                    <activeaudioangle>false</activeaudioangle>
                    <clip id="clip-5"/>
                  </angle>
                  <angle>
                    <activevideoangle>false</activevideoangle>
                    <activeaudioangle>false</activeaudioangle>
                    <clip id="clip-6"/>
                  </angle>
                  <angle>
                    <activevideoangle>false</activevideoangle>
                    <activeaudioangle>false</activeaudioangle>
                    <clip id="clip-7"/>
                  </angle>
                  <masterclipid>clip-master</masterclipid>
                </multiclip>
              </clipitem>
              <clipitem id="cs-406">
                <duration>225</duration>
                <rate>
                  <ntsc>false</ntsc>
                  <timebase>25</timebase>
                </rate>
                <in>42168</in>
                <out>42392</out>
                <start>42168</start>
                <end>42392</end>
                <file id="src-2"/>
                <sourcetrack>
                  <mediatype>video</mediatype>
                  <trackindex>1</trackindex>
                </sourcetrack>
                <multiclip id="mcs-406">
                  <name>MCS-406</name>
                  <masterclipid>clip-master</masterclipid>
                  <collapsed>false</collapsed>
                  <angle>
                    <activevideoangle>false</activevideoangle>
                    <activeaudioangle>false</activeaudioangle>
                    <clip id="clip-1"/>
                  </angle>
                  <angle>
                    <activevideoangle>true</activevideoangle>
                    <activeaudioangle>true</activeaudioangle>
                    <clip id="clip-2"/>
                  </angle>
                  <angle>
                    <activevideoangle>false</activevideoangle>
                    <activeaudioangle>false</activeaudioangle>
                    <clip id="clip-3"/>
                  </angle>
                  <angle>
                    <activevideoangle>false</activevideoangle>
                    <activeaudioangle>false</activeaudioangle>
                    <clip id="clip-4"/>
                  </angle>
                  <angle>
                    <activevideoangle>false</activevideoangle>
                    <activeaudioangle>false</activeaudioangle>
                    <clip id="clip-5"/>
                  </angle>
                  <angle>
                    <activevideoangle>false</activevideoangle>
                    <activeaudioangle>false</activeaudioangle>
                    <clip id="clip-6"/>
                  </angle>
                  <angle>
                    <activevideoangle>false</activevideoangle>
                    <activeaudioangle>false</activeaudioangle>
                    <clip id="clip-7"/>
                  </angle>
                  <masterclipid>clip-master</masterclipid>
                </multiclip>
              </clipitem>
              <clipitem id="cs-407">
                <duration>344</duration>
                <rate>
                  <ntsc>false</ntsc>
                  <timebase>25</timebase>
                </rate>
                <in>42392</in>
                <out>42735</out>
                <start>42392</start>
                <end>42735</end>
                <file id="src-3"/>
                <sourcetrack>
                  <mediatype>video</mediatype>
                  <trackindex>1</trackindex>
                </sourcetrack>
                <multiclip id="mcs-407">
                  <name>MCS-407</name>
                  <masterclipid>clip-master</masterclipid>
                  <collapsed>false</collapsed>
                  <angle>
                    <activevideoangle>false</activevideoangle>
                    <activeaudioangle>false</activeaudioangle>
                    <clip id="clip-1"/>
                  </angle>
                  <angle>
                    <activevideoangle>false</activevideoangle>
                    <activeaudioangle>false</activeaudioangle>
                    <clip id="clip-2"/>
                  </angle>
                  <angle>
                    <activevideoangle>true</activevideoangle>
                    <activeaudioangle>true</activeaudioangle>
                    <clip id="clip-3"/>
                  </angle>
                  <angle>
                    <activevideoangle>false</activevideoangle>
                    <activeaudioangle>false</activeaudioangle>
                    <clip id="clip-4"/>
                  </angle>
                  <angle>
                    <activevideoangle>false</activevideoangle>
                    <activeaudioangle>false</activeaudioangle>
                    <clip id="clip-5"/>
                  </angle>
                  <angle>
                    <activevideoangle>false</activevideoangle>
                    <activeaudioangle>false</activeaudioangle>
                    <clip id="clip-6"/>
                  </angle>
                  <angle>
                    <activevideoangle>false</activevideoangle>
                    <activeaudioangle>false</activeaudioangle>
                    <clip id="clip-7"/>
                  </angle>
                  <masterclipid>clip-master</masterclipid>
                </multiclip>
              </clipitem>
              <clipitem id="cs-408">
                <duration>296</duration>
                <rate>
                  <ntsc>false</ntsc>
                  <timebase>25</timebase>
                </rate>
                <in>42735</in>
                <out>43030</out>
                <start>42735</start>
                <end>43030</end>
                <file id="src-2"/>
                <sourcetrack>
                  <mediatype>video</mediatype>
                  <trackindex>1</trackindex>
                </sourcetrack>
                <multiclip id="mcs-408">
                  <name>MCS-408</name>
                  <masterclipid>clip-master</masterclipid>
                  <collapsed>false</collapsed>
                  <angle>
                    <activevideoangle>false</activevideoangle>
                    <activeaudioangle>false</activeaudioangle>
                    <clip id="clip-1"/>
                  </angle>
                  <angle>
                    <activevideoangle>true</activevideoangle>
                    <activeaudioangle>true</activeaudioangle>
                    <clip id="clip-2"/>
                  </angle>
                  <angle>
                    <activevideoangle>false</activevideoangle>
                    <activeaudioangle>false</activeaudioangle>
                    <clip id="clip-3"/>
                  </angle>
                  <angle>
                    <activevideoangle>false</activevideoangle>
                    <activeaudioangle>false</activeaudioangle>
                    <clip id="clip-4"/>
                  </angle>
                  <angle>
                    <activevideoangle>false</activevideoangle>
                    <activeaudioangle>false</activeaudioangle>
                    <clip id="clip-5"/>
                  </angle>
                  <angle>
                    <activevideoangle>false</activevideoangle>
                    <activeaudioangle>false</activeaudioangle>
                    <clip id="clip-6"/>
                  </angle>
                  <angle>
                    <activevideoangle>false</activevideoangle>
                    <activeaudioangle>false</activeaudioangle>
                    <clip id="clip-7"/>
                  </angle>
                  <masterclipid>clip-master</masterclipid>
                </multiclip>
              </clipitem>
              <clipitem id="cs-409">
                <duration>100</duration>
                <rate>
                  <ntsc>false</ntsc>
                  <timebase>25</timebase>
                </rate>
                <in>43030</in>
                <out>43129</out>
                <start>43030</start>
                <end>43129</end>
                <file id="src-3"/>
                <sourcetrack>
                  <mediatype>video</mediatype>
                  <trackindex>1</trackindex>
                </sourcetrack>
                <multiclip id="mcs-409">
                  <name>MCS-409</name>
                  <masterclipid>clip-master</masterclipid>
                  <collapsed>false</collapsed>
                  <angle>
                    <activevideoangle>false</activevideoangle>
                    <activeaudioangle>false</activeaudioangle>
                    <clip id="clip-1"/>
                  </angle>
                  <angle>
                    <activevideoangle>false</activevideoangle>
                    <activeaudioangle>false</activeaudioangle>
                    <clip id="clip-2"/>
                  </angle>
                  <angle>
                    <activevideoangle>true</activevideoangle>
                    <activeaudioangle>true</activeaudioangle>
                    <clip id="clip-3"/>
                  </angle>
                  <angle>
                    <activevideoangle>false</activevideoangle>
                    <activeaudioangle>false</activeaudioangle>
                    <clip id="clip-4"/>
                  </angle>
                  <angle>
                    <activevideoangle>false</activevideoangle>
                    <activeaudioangle>false</activeaudioangle>
                    <clip id="clip-5"/>
                  </angle>
                  <angle>
                    <activevideoangle>false</activevideoangle>
                    <activeaudioangle>false</activeaudioangle>
                    <clip id="clip-6"/>
                  </angle>
                  <angle>
                    <activevideoangle>false</activevideoangle>
                    <activeaudioangle>false</activeaudioangle>
                    <clip id="clip-7"/>
                  </angle>
                  <masterclipid>clip-master</masterclipid>
                </multiclip>
              </clipitem>
              <clipitem id="cs-410">
                <duration>171</duration>
                <rate>
                  <ntsc>false</ntsc>
                  <timebase>25</timebase>
                </rate>
                <in>43129</in>
                <out>43299</out>
                <start>43129</start>
                <end>43299</end>
                <file id="src-2"/>
                <sourcetrack>
                  <mediatype>video</mediatype>
                  <trackindex>1</trackindex>
                </sourcetrack>
                <multiclip id="mcs-410">
                  <name>MCS-410</name>
                  <masterclipid>clip-master</masterclipid>
                  <collapsed>false</collapsed>
                  <angle>
                    <activevideoangle>false</activevideoangle>
                    <activeaudioangle>false</activeaudioangle>
                    <clip id="clip-1"/>
                  </angle>
                  <angle>
                    <activevideoangle>true</activevideoangle>
                    <activeaudioangle>true</activeaudioangle>
                    <clip id="clip-2"/>
                  </angle>
                  <angle>
                    <activevideoangle>false</activevideoangle>
                    <activeaudioangle>false</activeaudioangle>
                    <clip id="clip-3"/>
                  </angle>
                  <angle>
                    <activevideoangle>false</activevideoangle>
                    <activeaudioangle>false</activeaudioangle>
                    <clip id="clip-4"/>
                  </angle>
                  <angle>
                    <activevideoangle>false</activevideoangle>
                    <activeaudioangle>false</activeaudioangle>
                    <clip id="clip-5"/>
                  </angle>
                  <angle>
                    <activevideoangle>false</activevideoangle>
                    <activeaudioangle>false</activeaudioangle>
                    <clip id="clip-6"/>
                  </angle>
                  <angle>
                    <activevideoangle>false</activevideoangle>
                    <activeaudioangle>false</activeaudioangle>
                    <clip id="clip-7"/>
                  </angle>
                  <masterclipid>clip-master</masterclipid>
                </multiclip>
              </clipitem>
              <clipitem id="cs-411">
                <duration>98</duration>
                <rate>
                  <ntsc>false</ntsc>
                  <timebase>25</timebase>
                </rate>
                <in>43299</in>
                <out>43396</out>
                <start>43299</start>
                <end>43396</end>
                <file id="src-1"/>
                <sourcetrack>
                  <mediatype>video</mediatype>
                  <trackindex>1</trackindex>
                </sourcetrack>
                <multiclip id="mcs-411">
                  <name>MCS-411</name>
                  <masterclipid>clip-master</masterclipid>
                  <collapsed>false</collapsed>
                  <angle>
                    <activevideoangle>true</activevideoangle>
                    <activeaudioangle>true</activeaudioangle>
                    <clip id="clip-1"/>
                  </angle>
                  <angle>
                    <activevideoangle>false</activevideoangle>
                    <activeaudioangle>false</activeaudioangle>
                    <clip id="clip-2"/>
                  </angle>
                  <angle>
                    <activevideoangle>false</activevideoangle>
                    <activeaudioangle>false</activeaudioangle>
                    <clip id="clip-3"/>
                  </angle>
                  <angle>
                    <activevideoangle>false</activevideoangle>
                    <activeaudioangle>false</activeaudioangle>
                    <clip id="clip-4"/>
                  </angle>
                  <angle>
                    <activevideoangle>false</activevideoangle>
                    <activeaudioangle>false</activeaudioangle>
                    <clip id="clip-5"/>
                  </angle>
                  <angle>
                    <activevideoangle>false</activevideoangle>
                    <activeaudioangle>false</activeaudioangle>
                    <clip id="clip-6"/>
                  </angle>
                  <angle>
                    <activevideoangle>false</activevideoangle>
                    <activeaudioangle>false</activeaudioangle>
                    <clip id="clip-7"/>
                  </angle>
                  <masterclipid>clip-master</masterclipid>
                </multiclip>
              </clipitem>
              <clipitem id="cs-412">
                <duration>384</duration>
                <rate>
                  <ntsc>false</ntsc>
                  <timebase>25</timebase>
                </rate>
                <in>43396</in>
                <out>43779</out>
                <start>43396</start>
                <end>43779</end>
                <file id="src-2"/>
                <sourcetrack>
                  <mediatype>video</mediatype>
                  <trackindex>1</trackindex>
                </sourcetrack>
                <multiclip id="mcs-412">
                  <name>MCS-412</name>
                  <masterclipid>clip-master</masterclipid>
                  <collapsed>false</collapsed>
                  <angle>
                    <activevideoangle>false</activevideoangle>
                    <activeaudioangle>false</activeaudioangle>
                    <clip id="clip-1"/>
                  </angle>
                  <angle>
                    <activevideoangle>true</activevideoangle>
                    <activeaudioangle>true</activeaudioangle>
                    <clip id="clip-2"/>
                  </angle>
                  <angle>
                    <activevideoangle>false</activevideoangle>
                    <activeaudioangle>false</activeaudioangle>
                    <clip id="clip-3"/>
                  </angle>
                  <angle>
                    <activevideoangle>false</activevideoangle>
                    <activeaudioangle>false</activeaudioangle>
                    <clip id="clip-4"/>
                  </angle>
                  <angle>
                    <activevideoangle>false</activevideoangle>
                    <activeaudioangle>false</activeaudioangle>
                    <clip id="clip-5"/>
                  </angle>
                  <angle>
                    <activevideoangle>false</activevideoangle>
                    <activeaudioangle>false</activeaudioangle>
                    <clip id="clip-6"/>
                  </angle>
                  <angle>
                    <activevideoangle>false</activevideoangle>
                    <activeaudioangle>false</activeaudioangle>
                    <clip id="clip-7"/>
                  </angle>
                  <masterclipid>clip-master</masterclipid>
                </multiclip>
              </clipitem>
              <clipitem id="cs-413">
                <duration>169</duration>
                <rate>
                  <ntsc>false</ntsc>
                  <timebase>25</timebase>
                </rate>
                <in>43779</in>
                <out>43947</out>
                <start>43779</start>
                <end>43947</end>
                <file id="src-3"/>
                <sourcetrack>
                  <mediatype>video</mediatype>
                  <trackindex>1</trackindex>
                </sourcetrack>
                <multiclip id="mcs-413">
                  <name>MCS-413</name>
                  <masterclipid>clip-master</masterclipid>
                  <collapsed>false</collapsed>
                  <angle>
                    <activevideoangle>false</activevideoangle>
                    <activeaudioangle>false</activeaudioangle>
                    <clip id="clip-1"/>
                  </angle>
                  <angle>
                    <activevideoangle>false</activevideoangle>
                    <activeaudioangle>false</activeaudioangle>
                    <clip id="clip-2"/>
                  </angle>
                  <angle>
                    <activevideoangle>true</activevideoangle>
                    <activeaudioangle>true</activeaudioangle>
                    <clip id="clip-3"/>
                  </angle>
                  <angle>
                    <activevideoangle>false</activevideoangle>
                    <activeaudioangle>false</activeaudioangle>
                    <clip id="clip-4"/>
                  </angle>
                  <angle>
                    <activevideoangle>false</activevideoangle>
                    <activeaudioangle>false</activeaudioangle>
                    <clip id="clip-5"/>
                  </angle>
                  <angle>
                    <activevideoangle>false</activevideoangle>
                    <activeaudioangle>false</activeaudioangle>
                    <clip id="clip-6"/>
                  </angle>
                  <angle>
                    <activevideoangle>false</activevideoangle>
                    <activeaudioangle>false</activeaudioangle>
                    <clip id="clip-7"/>
                  </angle>
                  <masterclipid>clip-master</masterclipid>
                </multiclip>
              </clipitem>
              <clipitem id="cs-414">
                <duration>107</duration>
                <rate>
                  <ntsc>false</ntsc>
                  <timebase>25</timebase>
                </rate>
                <in>43947</in>
                <out>44053</out>
                <start>43947</start>
                <end>44053</end>
                <file id="src-2"/>
                <sourcetrack>
                  <mediatype>video</mediatype>
                  <trackindex>1</trackindex>
                </sourcetrack>
                <multiclip id="mcs-414">
                  <name>MCS-414</name>
                  <masterclipid>clip-master</masterclipid>
                  <collapsed>false</collapsed>
                  <angle>
                    <activevideoangle>false</activevideoangle>
                    <activeaudioangle>false</activeaudioangle>
                    <clip id="clip-1"/>
                  </angle>
                  <angle>
                    <activevideoangle>true</activevideoangle>
                    <activeaudioangle>true</activeaudioangle>
                    <clip id="clip-2"/>
                  </angle>
                  <angle>
                    <activevideoangle>false</activevideoangle>
                    <activeaudioangle>false</activeaudioangle>
                    <clip id="clip-3"/>
                  </angle>
                  <angle>
                    <activevideoangle>false</activevideoangle>
                    <activeaudioangle>false</activeaudioangle>
                    <clip id="clip-4"/>
                  </angle>
                  <angle>
                    <activevideoangle>false</activevideoangle>
                    <activeaudioangle>false</activeaudioangle>
                    <clip id="clip-5"/>
                  </angle>
                  <angle>
                    <activevideoangle>false</activevideoangle>
                    <activeaudioangle>false</activeaudioangle>
                    <clip id="clip-6"/>
                  </angle>
                  <angle>
                    <activevideoangle>false</activevideoangle>
                    <activeaudioangle>false</activeaudioangle>
                    <clip id="clip-7"/>
                  </angle>
                  <masterclipid>clip-master</masterclipid>
                </multiclip>
              </clipitem>
              <clipitem id="cs-415">
                <duration>182</duration>
                <rate>
                  <ntsc>false</ntsc>
                  <timebase>25</timebase>
                </rate>
                <in>44053</in>
                <out>44234</out>
                <start>44053</start>
                <end>44234</end>
                <file id="src-4"/>
                <sourcetrack>
                  <mediatype>video</mediatype>
                  <trackindex>1</trackindex>
                </sourcetrack>
                <multiclip id="mcs-415">
                  <name>MCS-415</name>
                  <masterclipid>clip-master</masterclipid>
                  <collapsed>false</collapsed>
                  <angle>
                    <activevideoangle>false</activevideoangle>
                    <activeaudioangle>false</activeaudioangle>
                    <clip id="clip-1"/>
                  </angle>
                  <angle>
                    <activevideoangle>false</activevideoangle>
                    <activeaudioangle>false</activeaudioangle>
                    <clip id="clip-2"/>
                  </angle>
                  <angle>
                    <activevideoangle>false</activevideoangle>
                    <activeaudioangle>false</activeaudioangle>
                    <clip id="clip-3"/>
                  </angle>
                  <angle>
                    <activevideoangle>true</activevideoangle>
                    <activeaudioangle>true</activeaudioangle>
                    <clip id="clip-4"/>
                  </angle>
                  <angle>
                    <activevideoangle>false</activevideoangle>
                    <activeaudioangle>false</activeaudioangle>
                    <clip id="clip-5"/>
                  </angle>
                  <angle>
                    <activevideoangle>false</activevideoangle>
                    <activeaudioangle>false</activeaudioangle>
                    <clip id="clip-6"/>
                  </angle>
                  <angle>
                    <activevideoangle>false</activevideoangle>
                    <activeaudioangle>false</activeaudioangle>
                    <clip id="clip-7"/>
                  </angle>
                  <masterclipid>clip-master</masterclipid>
                </multiclip>
              </clipitem>
              <clipitem id="cs-416">
                <duration>126</duration>
                <rate>
                  <ntsc>false</ntsc>
                  <timebase>25</timebase>
                </rate>
                <in>44234</in>
                <out>44359</out>
                <start>44234</start>
                <end>44359</end>
                <file id="src-3"/>
                <sourcetrack>
                  <mediatype>video</mediatype>
                  <trackindex>1</trackindex>
                </sourcetrack>
                <multiclip id="mcs-416">
                  <name>MCS-416</name>
                  <masterclipid>clip-master</masterclipid>
                  <collapsed>false</collapsed>
                  <angle>
                    <activevideoangle>false</activevideoangle>
                    <activeaudioangle>false</activeaudioangle>
                    <clip id="clip-1"/>
                  </angle>
                  <angle>
                    <activevideoangle>false</activevideoangle>
                    <activeaudioangle>false</activeaudioangle>
                    <clip id="clip-2"/>
                  </angle>
                  <angle>
                    <activevideoangle>true</activevideoangle>
                    <activeaudioangle>true</activeaudioangle>
                    <clip id="clip-3"/>
                  </angle>
                  <angle>
                    <activevideoangle>false</activevideoangle>
                    <activeaudioangle>false</activeaudioangle>
                    <clip id="clip-4"/>
                  </angle>
                  <angle>
                    <activevideoangle>false</activevideoangle>
                    <activeaudioangle>false</activeaudioangle>
                    <clip id="clip-5"/>
                  </angle>
                  <angle>
                    <activevideoangle>false</activevideoangle>
                    <activeaudioangle>false</activeaudioangle>
                    <clip id="clip-6"/>
                  </angle>
                  <angle>
                    <activevideoangle>false</activevideoangle>
                    <activeaudioangle>false</activeaudioangle>
                    <clip id="clip-7"/>
                  </angle>
                  <masterclipid>clip-master</masterclipid>
                </multiclip>
              </clipitem>
              <clipitem id="cs-417">
                <duration>39</duration>
                <rate>
                  <ntsc>false</ntsc>
                  <timebase>25</timebase>
                </rate>
                <in>44359</in>
                <out>44397</out>
                <start>44359</start>
                <end>44397</end>
                <file id="src-2"/>
                <sourcetrack>
                  <mediatype>video</mediatype>
                  <trackindex>1</trackindex>
                </sourcetrack>
                <multiclip id="mcs-417">
                  <name>MCS-417</name>
                  <masterclipid>clip-master</masterclipid>
                  <collapsed>false</collapsed>
                  <angle>
                    <activevideoangle>false</activevideoangle>
                    <activeaudioangle>false</activeaudioangle>
                    <clip id="clip-1"/>
                  </angle>
                  <angle>
                    <activevideoangle>true</activevideoangle>
                    <activeaudioangle>true</activeaudioangle>
                    <clip id="clip-2"/>
                  </angle>
                  <angle>
                    <activevideoangle>false</activevideoangle>
                    <activeaudioangle>false</activeaudioangle>
                    <clip id="clip-3"/>
                  </angle>
                  <angle>
                    <activevideoangle>false</activevideoangle>
                    <activeaudioangle>false</activeaudioangle>
                    <clip id="clip-4"/>
                  </angle>
                  <angle>
                    <activevideoangle>false</activevideoangle>
                    <activeaudioangle>false</activeaudioangle>
                    <clip id="clip-5"/>
                  </angle>
                  <angle>
                    <activevideoangle>false</activevideoangle>
                    <activeaudioangle>false</activeaudioangle>
                    <clip id="clip-6"/>
                  </angle>
                  <angle>
                    <activevideoangle>false</activevideoangle>
                    <activeaudioangle>false</activeaudioangle>
                    <clip id="clip-7"/>
                  </angle>
                  <masterclipid>clip-master</masterclipid>
                </multiclip>
              </clipitem>
              <clipitem id="cs-418">
                <duration>130</duration>
                <rate>
                  <ntsc>false</ntsc>
                  <timebase>25</timebase>
                </rate>
                <in>44397</in>
                <out>44526</out>
                <start>44397</start>
                <end>44526</end>
                <file id="src-4"/>
                <sourcetrack>
                  <mediatype>video</mediatype>
                  <trackindex>1</trackindex>
                </sourcetrack>
                <multiclip id="mcs-418">
                  <name>MCS-418</name>
                  <masterclipid>clip-master</masterclipid>
                  <collapsed>false</collapsed>
                  <angle>
                    <activevideoangle>false</activevideoangle>
                    <activeaudioangle>false</activeaudioangle>
                    <clip id="clip-1"/>
                  </angle>
                  <angle>
                    <activevideoangle>false</activevideoangle>
                    <activeaudioangle>false</activeaudioangle>
                    <clip id="clip-2"/>
                  </angle>
                  <angle>
                    <activevideoangle>false</activevideoangle>
                    <activeaudioangle>false</activeaudioangle>
                    <clip id="clip-3"/>
                  </angle>
                  <angle>
                    <activevideoangle>true</activevideoangle>
                    <activeaudioangle>true</activeaudioangle>
                    <clip id="clip-4"/>
                  </angle>
                  <angle>
                    <activevideoangle>false</activevideoangle>
                    <activeaudioangle>false</activeaudioangle>
                    <clip id="clip-5"/>
                  </angle>
                  <angle>
                    <activevideoangle>false</activevideoangle>
                    <activeaudioangle>false</activeaudioangle>
                    <clip id="clip-6"/>
                  </angle>
                  <angle>
                    <activevideoangle>false</activevideoangle>
                    <activeaudioangle>false</activeaudioangle>
                    <clip id="clip-7"/>
                  </angle>
                  <masterclipid>clip-master</masterclipid>
                </multiclip>
              </clipitem>
              <clipitem id="cs-419">
                <duration>74</duration>
                <rate>
                  <ntsc>false</ntsc>
                  <timebase>25</timebase>
                </rate>
                <in>44526</in>
                <out>44599</out>
                <start>44526</start>
                <end>44599</end>
                <file id="src-3"/>
                <sourcetrack>
                  <mediatype>video</mediatype>
                  <trackindex>1</trackindex>
                </sourcetrack>
                <multiclip id="mcs-419">
                  <name>MCS-419</name>
                  <masterclipid>clip-master</masterclipid>
                  <collapsed>false</collapsed>
                  <angle>
                    <activevideoangle>false</activevideoangle>
                    <activeaudioangle>false</activeaudioangle>
                    <clip id="clip-1"/>
                  </angle>
                  <angle>
                    <activevideoangle>false</activevideoangle>
                    <activeaudioangle>false</activeaudioangle>
                    <clip id="clip-2"/>
                  </angle>
                  <angle>
                    <activevideoangle>true</activevideoangle>
                    <activeaudioangle>true</activeaudioangle>
                    <clip id="clip-3"/>
                  </angle>
                  <angle>
                    <activevideoangle>false</activevideoangle>
                    <activeaudioangle>false</activeaudioangle>
                    <clip id="clip-4"/>
                  </angle>
                  <angle>
                    <activevideoangle>false</activevideoangle>
                    <activeaudioangle>false</activeaudioangle>
                    <clip id="clip-5"/>
                  </angle>
                  <angle>
                    <activevideoangle>false</activevideoangle>
                    <activeaudioangle>false</activeaudioangle>
                    <clip id="clip-6"/>
                  </angle>
                  <angle>
                    <activevideoangle>false</activevideoangle>
                    <activeaudioangle>false</activeaudioangle>
                    <clip id="clip-7"/>
                  </angle>
                  <masterclipid>clip-master</masterclipid>
                </multiclip>
              </clipitem>
              <clipitem id="cs-420">
                <duration>96</duration>
                <rate>
                  <ntsc>false</ntsc>
                  <timebase>25</timebase>
                </rate>
                <in>44599</in>
                <out>44694</out>
                <start>44599</start>
                <end>44694</end>
                <file id="src-2"/>
                <sourcetrack>
                  <mediatype>video</mediatype>
                  <trackindex>1</trackindex>
                </sourcetrack>
                <multiclip id="mcs-420">
                  <name>MCS-420</name>
                  <masterclipid>clip-master</masterclipid>
                  <collapsed>false</collapsed>
                  <angle>
                    <activevideoangle>false</activevideoangle>
                    <activeaudioangle>false</activeaudioangle>
                    <clip id="clip-1"/>
                  </angle>
                  <angle>
                    <activevideoangle>true</activevideoangle>
                    <activeaudioangle>true</activeaudioangle>
                    <clip id="clip-2"/>
                  </angle>
                  <angle>
                    <activevideoangle>false</activevideoangle>
                    <activeaudioangle>false</activeaudioangle>
                    <clip id="clip-3"/>
                  </angle>
                  <angle>
                    <activevideoangle>false</activevideoangle>
                    <activeaudioangle>false</activeaudioangle>
                    <clip id="clip-4"/>
                  </angle>
                  <angle>
                    <activevideoangle>false</activevideoangle>
                    <activeaudioangle>false</activeaudioangle>
                    <clip id="clip-5"/>
                  </angle>
                  <angle>
                    <activevideoangle>false</activevideoangle>
                    <activeaudioangle>false</activeaudioangle>
                    <clip id="clip-6"/>
                  </angle>
                  <angle>
                    <activevideoangle>false</activevideoangle>
                    <activeaudioangle>false</activeaudioangle>
                    <clip id="clip-7"/>
                  </angle>
                  <masterclipid>clip-master</masterclipid>
                </multiclip>
              </clipitem>
              <clipitem id="cs-421">
                <duration>47</duration>
                <rate>
                  <ntsc>false</ntsc>
                  <timebase>25</timebase>
                </rate>
                <in>44694</in>
                <out>44740</out>
                <start>44694</start>
                <end>44740</end>
                <file id="src-3"/>
                <sourcetrack>
                  <mediatype>video</mediatype>
                  <trackindex>1</trackindex>
                </sourcetrack>
                <multiclip id="mcs-421">
                  <name>MCS-421</name>
                  <masterclipid>clip-master</masterclipid>
                  <collapsed>false</collapsed>
                  <angle>
                    <activevideoangle>false</activevideoangle>
                    <activeaudioangle>false</activeaudioangle>
                    <clip id="clip-1"/>
                  </angle>
                  <angle>
                    <activevideoangle>false</activevideoangle>
                    <activeaudioangle>false</activeaudioangle>
                    <clip id="clip-2"/>
                  </angle>
                  <angle>
                    <activevideoangle>true</activevideoangle>
                    <activeaudioangle>true</activeaudioangle>
                    <clip id="clip-3"/>
                  </angle>
                  <angle>
                    <activevideoangle>false</activevideoangle>
                    <activeaudioangle>false</activeaudioangle>
                    <clip id="clip-4"/>
                  </angle>
                  <angle>
                    <activevideoangle>false</activevideoangle>
                    <activeaudioangle>false</activeaudioangle>
                    <clip id="clip-5"/>
                  </angle>
                  <angle>
                    <activevideoangle>false</activevideoangle>
                    <activeaudioangle>false</activeaudioangle>
                    <clip id="clip-6"/>
                  </angle>
                  <angle>
                    <activevideoangle>false</activevideoangle>
                    <activeaudioangle>false</activeaudioangle>
                    <clip id="clip-7"/>
                  </angle>
                  <masterclipid>clip-master</masterclipid>
                </multiclip>
              </clipitem>
              <clipitem id="cs-422">
                <duration>63</duration>
                <rate>
                  <ntsc>false</ntsc>
                  <timebase>25</timebase>
                </rate>
                <in>44740</in>
                <out>44802</out>
                <start>44740</start>
                <end>44802</end>
                <file id="src-1"/>
                <sourcetrack>
                  <mediatype>video</mediatype>
                  <trackindex>1</trackindex>
                </sourcetrack>
                <multiclip id="mcs-422">
                  <name>MCS-422</name>
                  <masterclipid>clip-master</masterclipid>
                  <collapsed>false</collapsed>
                  <angle>
                    <activevideoangle>true</activevideoangle>
                    <activeaudioangle>true</activeaudioangle>
                    <clip id="clip-1"/>
                  </angle>
                  <angle>
                    <activevideoangle>false</activevideoangle>
                    <activeaudioangle>false</activeaudioangle>
                    <clip id="clip-2"/>
                  </angle>
                  <angle>
                    <activevideoangle>false</activevideoangle>
                    <activeaudioangle>false</activeaudioangle>
                    <clip id="clip-3"/>
                  </angle>
                  <angle>
                    <activevideoangle>false</activevideoangle>
                    <activeaudioangle>false</activeaudioangle>
                    <clip id="clip-4"/>
                  </angle>
                  <angle>
                    <activevideoangle>false</activevideoangle>
                    <activeaudioangle>false</activeaudioangle>
                    <clip id="clip-5"/>
                  </angle>
                  <angle>
                    <activevideoangle>false</activevideoangle>
                    <activeaudioangle>false</activeaudioangle>
                    <clip id="clip-6"/>
                  </angle>
                  <angle>
                    <activevideoangle>false</activevideoangle>
                    <activeaudioangle>false</activeaudioangle>
                    <clip id="clip-7"/>
                  </angle>
                  <masterclipid>clip-master</masterclipid>
                </multiclip>
              </clipitem>
              <clipitem id="cs-423">
                <duration>75</duration>
                <rate>
                  <ntsc>false</ntsc>
                  <timebase>25</timebase>
                </rate>
                <in>44802</in>
                <out>44876</out>
                <start>44802</start>
                <end>44876</end>
                <file id="src-4"/>
                <sourcetrack>
                  <mediatype>video</mediatype>
                  <trackindex>1</trackindex>
                </sourcetrack>
                <multiclip id="mcs-423">
                  <name>MCS-423</name>
                  <masterclipid>clip-master</masterclipid>
                  <collapsed>false</collapsed>
                  <angle>
                    <activevideoangle>false</activevideoangle>
                    <activeaudioangle>false</activeaudioangle>
                    <clip id="clip-1"/>
                  </angle>
                  <angle>
                    <activevideoangle>false</activevideoangle>
                    <activeaudioangle>false</activeaudioangle>
                    <clip id="clip-2"/>
                  </angle>
                  <angle>
                    <activevideoangle>false</activevideoangle>
                    <activeaudioangle>false</activeaudioangle>
                    <clip id="clip-3"/>
                  </angle>
                  <angle>
                    <activevideoangle>true</activevideoangle>
                    <activeaudioangle>true</activeaudioangle>
                    <clip id="clip-4"/>
                  </angle>
                  <angle>
                    <activevideoangle>false</activevideoangle>
                    <activeaudioangle>false</activeaudioangle>
                    <clip id="clip-5"/>
                  </angle>
                  <angle>
                    <activevideoangle>false</activevideoangle>
                    <activeaudioangle>false</activeaudioangle>
                    <clip id="clip-6"/>
                  </angle>
                  <angle>
                    <activevideoangle>false</activevideoangle>
                    <activeaudioangle>false</activeaudioangle>
                    <clip id="clip-7"/>
                  </angle>
                  <masterclipid>clip-master</masterclipid>
                </multiclip>
              </clipitem>
              <clipitem id="cs-424">
                <duration>45</duration>
                <rate>
                  <ntsc>false</ntsc>
                  <timebase>25</timebase>
                </rate>
                <in>44876</in>
                <out>44920</out>
                <start>44876</start>
                <end>44920</end>
                <file id="src-5"/>
                <sourcetrack>
                  <mediatype>video</mediatype>
                  <trackindex>1</trackindex>
                </sourcetrack>
                <multiclip id="mcs-424">
                  <name>MCS-424</name>
                  <masterclipid>clip-master</masterclipid>
                  <collapsed>false</collapsed>
                  <angle>
                    <activevideoangle>false</activevideoangle>
                    <activeaudioangle>false</activeaudioangle>
                    <clip id="clip-1"/>
                  </angle>
                  <angle>
                    <activevideoangle>false</activevideoangle>
                    <activeaudioangle>false</activeaudioangle>
                    <clip id="clip-2"/>
                  </angle>
                  <angle>
                    <activevideoangle>false</activevideoangle>
                    <activeaudioangle>false</activeaudioangle>
                    <clip id="clip-3"/>
                  </angle>
                  <angle>
                    <activevideoangle>false</activevideoangle>
                    <activeaudioangle>false</activeaudioangle>
                    <clip id="clip-4"/>
                  </angle>
                  <angle>
                    <activevideoangle>true</activevideoangle>
                    <activeaudioangle>true</activeaudioangle>
                    <clip id="clip-5"/>
                  </angle>
                  <angle>
                    <activevideoangle>false</activevideoangle>
                    <activeaudioangle>false</activeaudioangle>
                    <clip id="clip-6"/>
                  </angle>
                  <angle>
                    <activevideoangle>false</activevideoangle>
                    <activeaudioangle>false</activeaudioangle>
                    <clip id="clip-7"/>
                  </angle>
                  <masterclipid>clip-master</masterclipid>
                </multiclip>
              </clipitem>
              <clipitem id="cs-425">
                <duration>72</duration>
                <rate>
                  <ntsc>false</ntsc>
                  <timebase>25</timebase>
                </rate>
                <in>44920</in>
                <out>44991</out>
                <start>44920</start>
                <end>44991</end>
                <file id="src-3"/>
                <sourcetrack>
                  <mediatype>video</mediatype>
                  <trackindex>1</trackindex>
                </sourcetrack>
                <multiclip id="mcs-425">
                  <name>MCS-425</name>
                  <masterclipid>clip-master</masterclipid>
                  <collapsed>false</collapsed>
                  <angle>
                    <activevideoangle>false</activevideoangle>
                    <activeaudioangle>false</activeaudioangle>
                    <clip id="clip-1"/>
                  </angle>
                  <angle>
                    <activevideoangle>false</activevideoangle>
                    <activeaudioangle>false</activeaudioangle>
                    <clip id="clip-2"/>
                  </angle>
                  <angle>
                    <activevideoangle>true</activevideoangle>
                    <activeaudioangle>true</activeaudioangle>
                    <clip id="clip-3"/>
                  </angle>
                  <angle>
                    <activevideoangle>false</activevideoangle>
                    <activeaudioangle>false</activeaudioangle>
                    <clip id="clip-4"/>
                  </angle>
                  <angle>
                    <activevideoangle>false</activevideoangle>
                    <activeaudioangle>false</activeaudioangle>
                    <clip id="clip-5"/>
                  </angle>
                  <angle>
                    <activevideoangle>false</activevideoangle>
                    <activeaudioangle>false</activeaudioangle>
                    <clip id="clip-6"/>
                  </angle>
                  <angle>
                    <activevideoangle>false</activevideoangle>
                    <activeaudioangle>false</activeaudioangle>
                    <clip id="clip-7"/>
                  </angle>
                  <masterclipid>clip-master</masterclipid>
                </multiclip>
              </clipitem>
              <clipitem id="cs-426">
                <duration>103</duration>
                <rate>
                  <ntsc>false</ntsc>
                  <timebase>25</timebase>
                </rate>
                <in>44991</in>
                <out>45093</out>
                <start>44991</start>
                <end>45093</end>
                <file id="src-2"/>
                <sourcetrack>
                  <mediatype>video</mediatype>
                  <trackindex>1</trackindex>
                </sourcetrack>
                <multiclip id="mcs-426">
                  <name>MCS-426</name>
                  <masterclipid>clip-master</masterclipid>
                  <collapsed>false</collapsed>
                  <angle>
                    <activevideoangle>false</activevideoangle>
                    <activeaudioangle>false</activeaudioangle>
                    <clip id="clip-1"/>
                  </angle>
                  <angle>
                    <activevideoangle>true</activevideoangle>
                    <activeaudioangle>true</activeaudioangle>
                    <clip id="clip-2"/>
                  </angle>
                  <angle>
                    <activevideoangle>false</activevideoangle>
                    <activeaudioangle>false</activeaudioangle>
                    <clip id="clip-3"/>
                  </angle>
                  <angle>
                    <activevideoangle>false</activevideoangle>
                    <activeaudioangle>false</activeaudioangle>
                    <clip id="clip-4"/>
                  </angle>
                  <angle>
                    <activevideoangle>false</activevideoangle>
                    <activeaudioangle>false</activeaudioangle>
                    <clip id="clip-5"/>
                  </angle>
                  <angle>
                    <activevideoangle>false</activevideoangle>
                    <activeaudioangle>false</activeaudioangle>
                    <clip id="clip-6"/>
                  </angle>
                  <angle>
                    <activevideoangle>false</activevideoangle>
                    <activeaudioangle>false</activeaudioangle>
                    <clip id="clip-7"/>
                  </angle>
                  <masterclipid>clip-master</masterclipid>
                </multiclip>
              </clipitem>
              <clipitem id="cs-427">
                <duration>31</duration>
                <rate>
                  <ntsc>false</ntsc>
                  <timebase>25</timebase>
                </rate>
                <in>45093</in>
                <out>45123</out>
                <start>45093</start>
                <end>45123</end>
                <file id="src-3"/>
                <sourcetrack>
                  <mediatype>video</mediatype>
                  <trackindex>1</trackindex>
                </sourcetrack>
                <multiclip id="mcs-427">
                  <name>MCS-427</name>
                  <masterclipid>clip-master</masterclipid>
                  <collapsed>false</collapsed>
                  <angle>
                    <activevideoangle>false</activevideoangle>
                    <activeaudioangle>false</activeaudioangle>
                    <clip id="clip-1"/>
                  </angle>
                  <angle>
                    <activevideoangle>false</activevideoangle>
                    <activeaudioangle>false</activeaudioangle>
                    <clip id="clip-2"/>
                  </angle>
                  <angle>
                    <activevideoangle>true</activevideoangle>
                    <activeaudioangle>true</activeaudioangle>
                    <clip id="clip-3"/>
                  </angle>
                  <angle>
                    <activevideoangle>false</activevideoangle>
                    <activeaudioangle>false</activeaudioangle>
                    <clip id="clip-4"/>
                  </angle>
                  <angle>
                    <activevideoangle>false</activevideoangle>
                    <activeaudioangle>false</activeaudioangle>
                    <clip id="clip-5"/>
                  </angle>
                  <angle>
                    <activevideoangle>false</activevideoangle>
                    <activeaudioangle>false</activeaudioangle>
                    <clip id="clip-6"/>
                  </angle>
                  <angle>
                    <activevideoangle>false</activevideoangle>
                    <activeaudioangle>false</activeaudioangle>
                    <clip id="clip-7"/>
                  </angle>
                  <masterclipid>clip-master</masterclipid>
                </multiclip>
              </clipitem>
              <clipitem id="cs-428">
                <duration>200</duration>
                <rate>
                  <ntsc>false</ntsc>
                  <timebase>25</timebase>
                </rate>
                <in>45123</in>
                <out>45322</out>
                <start>45123</start>
                <end>45322</end>
                <file id="src-1"/>
                <sourcetrack>
                  <mediatype>video</mediatype>
                  <trackindex>1</trackindex>
                </sourcetrack>
                <multiclip id="mcs-428">
                  <name>MCS-428</name>
                  <masterclipid>clip-master</masterclipid>
                  <collapsed>false</collapsed>
                  <angle>
                    <activevideoangle>true</activevideoangle>
                    <activeaudioangle>true</activeaudioangle>
                    <clip id="clip-1"/>
                  </angle>
                  <angle>
                    <activevideoangle>false</activevideoangle>
                    <activeaudioangle>false</activeaudioangle>
                    <clip id="clip-2"/>
                  </angle>
                  <angle>
                    <activevideoangle>false</activevideoangle>
                    <activeaudioangle>false</activeaudioangle>
                    <clip id="clip-3"/>
                  </angle>
                  <angle>
                    <activevideoangle>false</activevideoangle>
                    <activeaudioangle>false</activeaudioangle>
                    <clip id="clip-4"/>
                  </angle>
                  <angle>
                    <activevideoangle>false</activevideoangle>
                    <activeaudioangle>false</activeaudioangle>
                    <clip id="clip-5"/>
                  </angle>
                  <angle>
                    <activevideoangle>false</activevideoangle>
                    <activeaudioangle>false</activeaudioangle>
                    <clip id="clip-6"/>
                  </angle>
                  <angle>
                    <activevideoangle>false</activevideoangle>
                    <activeaudioangle>false</activeaudioangle>
                    <clip id="clip-7"/>
                  </angle>
                  <masterclipid>clip-master</masterclipid>
                </multiclip>
              </clipitem>
              <clipitem id="cs-429">
                <duration>66</duration>
                <rate>
                  <ntsc>false</ntsc>
                  <timebase>25</timebase>
                </rate>
                <in>45322</in>
                <out>45387</out>
                <start>45322</start>
                <end>45387</end>
                <file id="src-3"/>
                <sourcetrack>
                  <mediatype>video</mediatype>
                  <trackindex>1</trackindex>
                </sourcetrack>
                <multiclip id="mcs-429">
                  <name>MCS-429</name>
                  <masterclipid>clip-master</masterclipid>
                  <collapsed>false</collapsed>
                  <angle>
                    <activevideoangle>false</activevideoangle>
                    <activeaudioangle>false</activeaudioangle>
                    <clip id="clip-1"/>
                  </angle>
                  <angle>
                    <activevideoangle>false</activevideoangle>
                    <activeaudioangle>false</activeaudioangle>
                    <clip id="clip-2"/>
                  </angle>
                  <angle>
                    <activevideoangle>true</activevideoangle>
                    <activeaudioangle>true</activeaudioangle>
                    <clip id="clip-3"/>
                  </angle>
                  <angle>
                    <activevideoangle>false</activevideoangle>
                    <activeaudioangle>false</activeaudioangle>
                    <clip id="clip-4"/>
                  </angle>
                  <angle>
                    <activevideoangle>false</activevideoangle>
                    <activeaudioangle>false</activeaudioangle>
                    <clip id="clip-5"/>
                  </angle>
                  <angle>
                    <activevideoangle>false</activevideoangle>
                    <activeaudioangle>false</activeaudioangle>
                    <clip id="clip-6"/>
                  </angle>
                  <angle>
                    <activevideoangle>false</activevideoangle>
                    <activeaudioangle>false</activeaudioangle>
                    <clip id="clip-7"/>
                  </angle>
                  <masterclipid>clip-master</masterclipid>
                </multiclip>
              </clipitem>
              <clipitem id="cs-430">
                <duration>57</duration>
                <rate>
                  <ntsc>false</ntsc>
                  <timebase>25</timebase>
                </rate>
                <in>45387</in>
                <out>45443</out>
                <start>45387</start>
                <end>45443</end>
                <file id="src-6"/>
                <sourcetrack>
                  <mediatype>video</mediatype>
                  <trackindex>1</trackindex>
                </sourcetrack>
                <multiclip id="mcs-430">
                  <name>MCS-430</name>
                  <masterclipid>clip-master</masterclipid>
                  <collapsed>false</collapsed>
                  <angle>
                    <activevideoangle>false</activevideoangle>
                    <activeaudioangle>false</activeaudioangle>
                    <clip id="clip-1"/>
                  </angle>
                  <angle>
                    <activevideoangle>false</activevideoangle>
                    <activeaudioangle>false</activeaudioangle>
                    <clip id="clip-2"/>
                  </angle>
                  <angle>
                    <activevideoangle>false</activevideoangle>
                    <activeaudioangle>false</activeaudioangle>
                    <clip id="clip-3"/>
                  </angle>
                  <angle>
                    <activevideoangle>false</activevideoangle>
                    <activeaudioangle>false</activeaudioangle>
                    <clip id="clip-4"/>
                  </angle>
                  <angle>
                    <activevideoangle>false</activevideoangle>
                    <activeaudioangle>false</activeaudioangle>
                    <clip id="clip-5"/>
                  </angle>
                  <angle>
                    <activevideoangle>true</activevideoangle>
                    <activeaudioangle>true</activeaudioangle>
                    <clip id="clip-6"/>
                  </angle>
                  <angle>
                    <activevideoangle>false</activevideoangle>
                    <activeaudioangle>false</activeaudioangle>
                    <clip id="clip-7"/>
                  </angle>
                  <masterclipid>clip-master</masterclipid>
                </multiclip>
              </clipitem>
              <clipitem id="cs-431">
                <duration>38</duration>
                <rate>
                  <ntsc>false</ntsc>
                  <timebase>25</timebase>
                </rate>
                <in>45443</in>
                <out>45480</out>
                <start>45443</start>
                <end>45480</end>
                <file id="src-4"/>
                <sourcetrack>
                  <mediatype>video</mediatype>
                  <trackindex>1</trackindex>
                </sourcetrack>
                <multiclip id="mcs-431">
                  <name>MCS-431</name>
                  <masterclipid>clip-master</masterclipid>
                  <collapsed>false</collapsed>
                  <angle>
                    <activevideoangle>false</activevideoangle>
                    <activeaudioangle>false</activeaudioangle>
                    <clip id="clip-1"/>
                  </angle>
                  <angle>
                    <activevideoangle>false</activevideoangle>
                    <activeaudioangle>false</activeaudioangle>
                    <clip id="clip-2"/>
                  </angle>
                  <angle>
                    <activevideoangle>false</activevideoangle>
                    <activeaudioangle>false</activeaudioangle>
                    <clip id="clip-3"/>
                  </angle>
                  <angle>
                    <activevideoangle>true</activevideoangle>
                    <activeaudioangle>true</activeaudioangle>
                    <clip id="clip-4"/>
                  </angle>
                  <angle>
                    <activevideoangle>false</activevideoangle>
                    <activeaudioangle>false</activeaudioangle>
                    <clip id="clip-5"/>
                  </angle>
                  <angle>
                    <activevideoangle>false</activevideoangle>
                    <activeaudioangle>false</activeaudioangle>
                    <clip id="clip-6"/>
                  </angle>
                  <angle>
                    <activevideoangle>false</activevideoangle>
                    <activeaudioangle>false</activeaudioangle>
                    <clip id="clip-7"/>
                  </angle>
                  <masterclipid>clip-master</masterclipid>
                </multiclip>
              </clipitem>
              <clipitem id="cs-432">
                <duration>210</duration>
                <rate>
                  <ntsc>false</ntsc>
                  <timebase>25</timebase>
                </rate>
                <in>45480</in>
                <out>45689</out>
                <start>45480</start>
                <end>45689</end>
                <file id="src-1"/>
                <sourcetrack>
                  <mediatype>video</mediatype>
                  <trackindex>1</trackindex>
                </sourcetrack>
                <multiclip id="mcs-432">
                  <name>MCS-432</name>
                  <masterclipid>clip-master</masterclipid>
                  <collapsed>false</collapsed>
                  <angle>
                    <activevideoangle>true</activevideoangle>
                    <activeaudioangle>true</activeaudioangle>
                    <clip id="clip-1"/>
                  </angle>
                  <angle>
                    <activevideoangle>false</activevideoangle>
                    <activeaudioangle>false</activeaudioangle>
                    <clip id="clip-2"/>
                  </angle>
                  <angle>
                    <activevideoangle>false</activevideoangle>
                    <activeaudioangle>false</activeaudioangle>
                    <clip id="clip-3"/>
                  </angle>
                  <angle>
                    <activevideoangle>false</activevideoangle>
                    <activeaudioangle>false</activeaudioangle>
                    <clip id="clip-4"/>
                  </angle>
                  <angle>
                    <activevideoangle>false</activevideoangle>
                    <activeaudioangle>false</activeaudioangle>
                    <clip id="clip-5"/>
                  </angle>
                  <angle>
                    <activevideoangle>false</activevideoangle>
                    <activeaudioangle>false</activeaudioangle>
                    <clip id="clip-6"/>
                  </angle>
                  <angle>
                    <activevideoangle>false</activevideoangle>
                    <activeaudioangle>false</activeaudioangle>
                    <clip id="clip-7"/>
                  </angle>
                  <masterclipid>clip-master</masterclipid>
                </multiclip>
              </clipitem>
              <clipitem id="cs-433">
                <duration>189</duration>
                <rate>
                  <ntsc>false</ntsc>
                  <timebase>25</timebase>
                </rate>
                <in>45689</in>
                <out>45877</out>
                <start>45689</start>
                <end>45877</end>
                <file id="src-3"/>
                <sourcetrack>
                  <mediatype>video</mediatype>
                  <trackindex>1</trackindex>
                </sourcetrack>
                <multiclip id="mcs-433">
                  <name>MCS-433</name>
                  <masterclipid>clip-master</masterclipid>
                  <collapsed>false</collapsed>
                  <angle>
                    <activevideoangle>false</activevideoangle>
                    <activeaudioangle>false</activeaudioangle>
                    <clip id="clip-1"/>
                  </angle>
                  <angle>
                    <activevideoangle>false</activevideoangle>
                    <activeaudioangle>false</activeaudioangle>
                    <clip id="clip-2"/>
                  </angle>
                  <angle>
                    <activevideoangle>true</activevideoangle>
                    <activeaudioangle>true</activeaudioangle>
                    <clip id="clip-3"/>
                  </angle>
                  <angle>
                    <activevideoangle>false</activevideoangle>
                    <activeaudioangle>false</activeaudioangle>
                    <clip id="clip-4"/>
                  </angle>
                  <angle>
                    <activevideoangle>false</activevideoangle>
                    <activeaudioangle>false</activeaudioangle>
                    <clip id="clip-5"/>
                  </angle>
                  <angle>
                    <activevideoangle>false</activevideoangle>
                    <activeaudioangle>false</activeaudioangle>
                    <clip id="clip-6"/>
                  </angle>
                  <angle>
                    <activevideoangle>false</activevideoangle>
                    <activeaudioangle>false</activeaudioangle>
                    <clip id="clip-7"/>
                  </angle>
                  <masterclipid>clip-master</masterclipid>
                </multiclip>
              </clipitem>
              <clipitem id="cs-434">
                <duration>85</duration>
                <rate>
                  <ntsc>false</ntsc>
                  <timebase>25</timebase>
                </rate>
                <in>45877</in>
                <out>45961</out>
                <start>45877</start>
                <end>45961</end>
                <file id="src-4"/>
                <sourcetrack>
                  <mediatype>video</mediatype>
                  <trackindex>1</trackindex>
                </sourcetrack>
                <multiclip id="mcs-434">
                  <name>MCS-434</name>
                  <masterclipid>clip-master</masterclipid>
                  <collapsed>false</collapsed>
                  <angle>
                    <activevideoangle>false</activevideoangle>
                    <activeaudioangle>false</activeaudioangle>
                    <clip id="clip-1"/>
                  </angle>
                  <angle>
                    <activevideoangle>false</activevideoangle>
                    <activeaudioangle>false</activeaudioangle>
                    <clip id="clip-2"/>
                  </angle>
                  <angle>
                    <activevideoangle>false</activevideoangle>
                    <activeaudioangle>false</activeaudioangle>
                    <clip id="clip-3"/>
                  </angle>
                  <angle>
                    <activevideoangle>true</activevideoangle>
                    <activeaudioangle>true</activeaudioangle>
                    <clip id="clip-4"/>
                  </angle>
                  <angle>
                    <activevideoangle>false</activevideoangle>
                    <activeaudioangle>false</activeaudioangle>
                    <clip id="clip-5"/>
                  </angle>
                  <angle>
                    <activevideoangle>false</activevideoangle>
                    <activeaudioangle>false</activeaudioangle>
                    <clip id="clip-6"/>
                  </angle>
                  <angle>
                    <activevideoangle>false</activevideoangle>
                    <activeaudioangle>false</activeaudioangle>
                    <clip id="clip-7"/>
                  </angle>
                  <masterclipid>clip-master</masterclipid>
                </multiclip>
              </clipitem>
              <clipitem id="cs-435">
                <duration>133</duration>
                <rate>
                  <ntsc>false</ntsc>
                  <timebase>25</timebase>
                </rate>
                <in>45961</in>
                <out>46093</out>
                <start>45961</start>
                <end>46093</end>
                <file id="src-2"/>
                <sourcetrack>
                  <mediatype>video</mediatype>
                  <trackindex>1</trackindex>
                </sourcetrack>
                <multiclip id="mcs-435">
                  <name>MCS-435</name>
                  <masterclipid>clip-master</masterclipid>
                  <collapsed>false</collapsed>
                  <angle>
                    <activevideoangle>false</activevideoangle>
                    <activeaudioangle>false</activeaudioangle>
                    <clip id="clip-1"/>
                  </angle>
                  <angle>
                    <activevideoangle>true</activevideoangle>
                    <activeaudioangle>true</activeaudioangle>
                    <clip id="clip-2"/>
                  </angle>
                  <angle>
                    <activevideoangle>false</activevideoangle>
                    <activeaudioangle>false</activeaudioangle>
                    <clip id="clip-3"/>
                  </angle>
                  <angle>
                    <activevideoangle>false</activevideoangle>
                    <activeaudioangle>false</activeaudioangle>
                    <clip id="clip-4"/>
                  </angle>
                  <angle>
                    <activevideoangle>false</activevideoangle>
                    <activeaudioangle>false</activeaudioangle>
                    <clip id="clip-5"/>
                  </angle>
                  <angle>
                    <activevideoangle>false</activevideoangle>
                    <activeaudioangle>false</activeaudioangle>
                    <clip id="clip-6"/>
                  </angle>
                  <angle>
                    <activevideoangle>false</activevideoangle>
                    <activeaudioangle>false</activeaudioangle>
                    <clip id="clip-7"/>
                  </angle>
                  <masterclipid>clip-master</masterclipid>
                </multiclip>
              </clipitem>
              <clipitem id="cs-436">
                <duration>128</duration>
                <rate>
                  <ntsc>false</ntsc>
                  <timebase>25</timebase>
                </rate>
                <in>46093</in>
                <out>46220</out>
                <start>46093</start>
                <end>46220</end>
                <file id="src-3"/>
                <sourcetrack>
                  <mediatype>video</mediatype>
                  <trackindex>1</trackindex>
                </sourcetrack>
                <multiclip id="mcs-436">
                  <name>MCS-436</name>
                  <masterclipid>clip-master</masterclipid>
                  <collapsed>false</collapsed>
                  <angle>
                    <activevideoangle>false</activevideoangle>
                    <activeaudioangle>false</activeaudioangle>
                    <clip id="clip-1"/>
                  </angle>
                  <angle>
                    <activevideoangle>false</activevideoangle>
                    <activeaudioangle>false</activeaudioangle>
                    <clip id="clip-2"/>
                  </angle>
                  <angle>
                    <activevideoangle>true</activevideoangle>
                    <activeaudioangle>true</activeaudioangle>
                    <clip id="clip-3"/>
                  </angle>
                  <angle>
                    <activevideoangle>false</activevideoangle>
                    <activeaudioangle>false</activeaudioangle>
                    <clip id="clip-4"/>
                  </angle>
                  <angle>
                    <activevideoangle>false</activevideoangle>
                    <activeaudioangle>false</activeaudioangle>
                    <clip id="clip-5"/>
                  </angle>
                  <angle>
                    <activevideoangle>false</activevideoangle>
                    <activeaudioangle>false</activeaudioangle>
                    <clip id="clip-6"/>
                  </angle>
                  <angle>
                    <activevideoangle>false</activevideoangle>
                    <activeaudioangle>false</activeaudioangle>
                    <clip id="clip-7"/>
                  </angle>
                  <masterclipid>clip-master</masterclipid>
                </multiclip>
              </clipitem>
              <clipitem id="cs-437">
                <duration>122</duration>
                <rate>
                  <ntsc>false</ntsc>
                  <timebase>25</timebase>
                </rate>
                <in>46220</in>
                <out>46341</out>
                <start>46220</start>
                <end>46341</end>
                <file id="src-2"/>
                <sourcetrack>
                  <mediatype>video</mediatype>
                  <trackindex>1</trackindex>
                </sourcetrack>
                <multiclip id="mcs-437">
                  <name>MCS-437</name>
                  <masterclipid>clip-master</masterclipid>
                  <collapsed>false</collapsed>
                  <angle>
                    <activevideoangle>false</activevideoangle>
                    <activeaudioangle>false</activeaudioangle>
                    <clip id="clip-1"/>
                  </angle>
                  <angle>
                    <activevideoangle>true</activevideoangle>
                    <activeaudioangle>true</activeaudioangle>
                    <clip id="clip-2"/>
                  </angle>
                  <angle>
                    <activevideoangle>false</activevideoangle>
                    <activeaudioangle>false</activeaudioangle>
                    <clip id="clip-3"/>
                  </angle>
                  <angle>
                    <activevideoangle>false</activevideoangle>
                    <activeaudioangle>false</activeaudioangle>
                    <clip id="clip-4"/>
                  </angle>
                  <angle>
                    <activevideoangle>false</activevideoangle>
                    <activeaudioangle>false</activeaudioangle>
                    <clip id="clip-5"/>
                  </angle>
                  <angle>
                    <activevideoangle>false</activevideoangle>
                    <activeaudioangle>false</activeaudioangle>
                    <clip id="clip-6"/>
                  </angle>
                  <angle>
                    <activevideoangle>false</activevideoangle>
                    <activeaudioangle>false</activeaudioangle>
                    <clip id="clip-7"/>
                  </angle>
                  <masterclipid>clip-master</masterclipid>
                </multiclip>
              </clipitem>
              <clipitem id="cs-438">
                <duration>216</duration>
                <rate>
                  <ntsc>false</ntsc>
                  <timebase>25</timebase>
                </rate>
                <in>46341</in>
                <out>46556</out>
                <start>46341</start>
                <end>46556</end>
                <file id="src-3"/>
                <sourcetrack>
                  <mediatype>video</mediatype>
                  <trackindex>1</trackindex>
                </sourcetrack>
                <multiclip id="mcs-438">
                  <name>MCS-438</name>
                  <masterclipid>clip-master</masterclipid>
                  <collapsed>false</collapsed>
                  <angle>
                    <activevideoangle>false</activevideoangle>
                    <activeaudioangle>false</activeaudioangle>
                    <clip id="clip-1"/>
                  </angle>
                  <angle>
                    <activevideoangle>false</activevideoangle>
                    <activeaudioangle>false</activeaudioangle>
                    <clip id="clip-2"/>
                  </angle>
                  <angle>
                    <activevideoangle>true</activevideoangle>
                    <activeaudioangle>true</activeaudioangle>
                    <clip id="clip-3"/>
                  </angle>
                  <angle>
                    <activevideoangle>false</activevideoangle>
                    <activeaudioangle>false</activeaudioangle>
                    <clip id="clip-4"/>
                  </angle>
                  <angle>
                    <activevideoangle>false</activevideoangle>
                    <activeaudioangle>false</activeaudioangle>
                    <clip id="clip-5"/>
                  </angle>
                  <angle>
                    <activevideoangle>false</activevideoangle>
                    <activeaudioangle>false</activeaudioangle>
                    <clip id="clip-6"/>
                  </angle>
                  <angle>
                    <activevideoangle>false</activevideoangle>
                    <activeaudioangle>false</activeaudioangle>
                    <clip id="clip-7"/>
                  </angle>
                  <masterclipid>clip-master</masterclipid>
                </multiclip>
              </clipitem>
              <clipitem id="cs-439">
                <duration>121</duration>
                <rate>
                  <ntsc>false</ntsc>
                  <timebase>25</timebase>
                </rate>
                <in>46556</in>
                <out>46676</out>
                <start>46556</start>
                <end>46676</end>
                <file id="src-6"/>
                <sourcetrack>
                  <mediatype>video</mediatype>
                  <trackindex>1</trackindex>
                </sourcetrack>
                <multiclip id="mcs-439">
                  <name>MCS-439</name>
                  <masterclipid>clip-master</masterclipid>
                  <collapsed>false</collapsed>
                  <angle>
                    <activevideoangle>false</activevideoangle>
                    <activeaudioangle>false</activeaudioangle>
                    <clip id="clip-1"/>
                  </angle>
                  <angle>
                    <activevideoangle>false</activevideoangle>
                    <activeaudioangle>false</activeaudioangle>
                    <clip id="clip-2"/>
                  </angle>
                  <angle>
                    <activevideoangle>false</activevideoangle>
                    <activeaudioangle>false</activeaudioangle>
                    <clip id="clip-3"/>
                  </angle>
                  <angle>
                    <activevideoangle>false</activevideoangle>
                    <activeaudioangle>false</activeaudioangle>
                    <clip id="clip-4"/>
                  </angle>
                  <angle>
                    <activevideoangle>false</activevideoangle>
                    <activeaudioangle>false</activeaudioangle>
                    <clip id="clip-5"/>
                  </angle>
                  <angle>
                    <activevideoangle>true</activevideoangle>
                    <activeaudioangle>true</activeaudioangle>
                    <clip id="clip-6"/>
                  </angle>
                  <angle>
                    <activevideoangle>false</activevideoangle>
                    <activeaudioangle>false</activeaudioangle>
                    <clip id="clip-7"/>
                  </angle>
                  <masterclipid>clip-master</masterclipid>
                </multiclip>
              </clipitem>
              <clipitem id="cs-440">
                <duration>51</duration>
                <rate>
                  <ntsc>false</ntsc>
                  <timebase>25</timebase>
                </rate>
                <in>46676</in>
                <out>46726</out>
                <start>46676</start>
                <end>46726</end>
                <file id="src-1"/>
                <sourcetrack>
                  <mediatype>video</mediatype>
                  <trackindex>1</trackindex>
                </sourcetrack>
                <multiclip id="mcs-440">
                  <name>MCS-440</name>
                  <masterclipid>clip-master</masterclipid>
                  <collapsed>false</collapsed>
                  <angle>
                    <activevideoangle>true</activevideoangle>
                    <activeaudioangle>true</activeaudioangle>
                    <clip id="clip-1"/>
                  </angle>
                  <angle>
                    <activevideoangle>false</activevideoangle>
                    <activeaudioangle>false</activeaudioangle>
                    <clip id="clip-2"/>
                  </angle>
                  <angle>
                    <activevideoangle>false</activevideoangle>
                    <activeaudioangle>false</activeaudioangle>
                    <clip id="clip-3"/>
                  </angle>
                  <angle>
                    <activevideoangle>false</activevideoangle>
                    <activeaudioangle>false</activeaudioangle>
                    <clip id="clip-4"/>
                  </angle>
                  <angle>
                    <activevideoangle>false</activevideoangle>
                    <activeaudioangle>false</activeaudioangle>
                    <clip id="clip-5"/>
                  </angle>
                  <angle>
                    <activevideoangle>false</activevideoangle>
                    <activeaudioangle>false</activeaudioangle>
                    <clip id="clip-6"/>
                  </angle>
                  <angle>
                    <activevideoangle>false</activevideoangle>
                    <activeaudioangle>false</activeaudioangle>
                    <clip id="clip-7"/>
                  </angle>
                  <masterclipid>clip-master</masterclipid>
                </multiclip>
              </clipitem>
              <clipitem id="cs-441">
                <duration>103</duration>
                <rate>
                  <ntsc>false</ntsc>
                  <timebase>25</timebase>
                </rate>
                <in>46726</in>
                <out>46828</out>
                <start>46726</start>
                <end>46828</end>
                <file id="src-3"/>
                <sourcetrack>
                  <mediatype>video</mediatype>
                  <trackindex>1</trackindex>
                </sourcetrack>
                <multiclip id="mcs-441">
                  <name>MCS-441</name>
                  <masterclipid>clip-master</masterclipid>
                  <collapsed>false</collapsed>
                  <angle>
                    <activevideoangle>false</activevideoangle>
                    <activeaudioangle>false</activeaudioangle>
                    <clip id="clip-1"/>
                  </angle>
                  <angle>
                    <activevideoangle>false</activevideoangle>
                    <activeaudioangle>false</activeaudioangle>
                    <clip id="clip-2"/>
                  </angle>
                  <angle>
                    <activevideoangle>true</activevideoangle>
                    <activeaudioangle>true</activeaudioangle>
                    <clip id="clip-3"/>
                  </angle>
                  <angle>
                    <activevideoangle>false</activevideoangle>
                    <activeaudioangle>false</activeaudioangle>
                    <clip id="clip-4"/>
                  </angle>
                  <angle>
                    <activevideoangle>false</activevideoangle>
                    <activeaudioangle>false</activeaudioangle>
                    <clip id="clip-5"/>
                  </angle>
                  <angle>
                    <activevideoangle>false</activevideoangle>
                    <activeaudioangle>false</activeaudioangle>
                    <clip id="clip-6"/>
                  </angle>
                  <angle>
                    <activevideoangle>false</activevideoangle>
                    <activeaudioangle>false</activeaudioangle>
                    <clip id="clip-7"/>
                  </angle>
                  <masterclipid>clip-master</masterclipid>
                </multiclip>
              </clipitem>
              <clipitem id="cs-442">
                <duration>107</duration>
                <rate>
                  <ntsc>false</ntsc>
                  <timebase>25</timebase>
                </rate>
                <in>46828</in>
                <out>46934</out>
                <start>46828</start>
                <end>46934</end>
                <file id="src-4"/>
                <sourcetrack>
                  <mediatype>video</mediatype>
                  <trackindex>1</trackindex>
                </sourcetrack>
                <multiclip id="mcs-442">
                  <name>MCS-442</name>
                  <masterclipid>clip-master</masterclipid>
                  <collapsed>false</collapsed>
                  <angle>
                    <activevideoangle>false</activevideoangle>
                    <activeaudioangle>false</activeaudioangle>
                    <clip id="clip-1"/>
                  </angle>
                  <angle>
                    <activevideoangle>false</activevideoangle>
                    <activeaudioangle>false</activeaudioangle>
                    <clip id="clip-2"/>
                  </angle>
                  <angle>
                    <activevideoangle>false</activevideoangle>
                    <activeaudioangle>false</activeaudioangle>
                    <clip id="clip-3"/>
                  </angle>
                  <angle>
                    <activevideoangle>true</activevideoangle>
                    <activeaudioangle>true</activeaudioangle>
                    <clip id="clip-4"/>
                  </angle>
                  <angle>
                    <activevideoangle>false</activevideoangle>
                    <activeaudioangle>false</activeaudioangle>
                    <clip id="clip-5"/>
                  </angle>
                  <angle>
                    <activevideoangle>false</activevideoangle>
                    <activeaudioangle>false</activeaudioangle>
                    <clip id="clip-6"/>
                  </angle>
                  <angle>
                    <activevideoangle>false</activevideoangle>
                    <activeaudioangle>false</activeaudioangle>
                    <clip id="clip-7"/>
                  </angle>
                  <masterclipid>clip-master</masterclipid>
                </multiclip>
              </clipitem>
              <clipitem id="cs-443">
                <duration>144</duration>
                <rate>
                  <ntsc>false</ntsc>
                  <timebase>25</timebase>
                </rate>
                <in>46934</in>
                <out>47077</out>
                <start>46934</start>
                <end>47077</end>
                <file id="src-3"/>
                <sourcetrack>
                  <mediatype>video</mediatype>
                  <trackindex>1</trackindex>
                </sourcetrack>
                <multiclip id="mcs-443">
                  <name>MCS-443</name>
                  <masterclipid>clip-master</masterclipid>
                  <collapsed>false</collapsed>
                  <angle>
                    <activevideoangle>false</activevideoangle>
                    <activeaudioangle>false</activeaudioangle>
                    <clip id="clip-1"/>
                  </angle>
                  <angle>
                    <activevideoangle>false</activevideoangle>
                    <activeaudioangle>false</activeaudioangle>
                    <clip id="clip-2"/>
                  </angle>
                  <angle>
                    <activevideoangle>true</activevideoangle>
                    <activeaudioangle>true</activeaudioangle>
                    <clip id="clip-3"/>
                  </angle>
                  <angle>
                    <activevideoangle>false</activevideoangle>
                    <activeaudioangle>false</activeaudioangle>
                    <clip id="clip-4"/>
                  </angle>
                  <angle>
                    <activevideoangle>false</activevideoangle>
                    <activeaudioangle>false</activeaudioangle>
                    <clip id="clip-5"/>
                  </angle>
                  <angle>
                    <activevideoangle>false</activevideoangle>
                    <activeaudioangle>false</activeaudioangle>
                    <clip id="clip-6"/>
                  </angle>
                  <angle>
                    <activevideoangle>false</activevideoangle>
                    <activeaudioangle>false</activeaudioangle>
                    <clip id="clip-7"/>
                  </angle>
                  <masterclipid>clip-master</masterclipid>
                </multiclip>
              </clipitem>
              <clipitem id="cs-444">
                <duration>119</duration>
                <rate>
                  <ntsc>false</ntsc>
                  <timebase>25</timebase>
                </rate>
                <in>47077</in>
                <out>47195</out>
                <start>47077</start>
                <end>47195</end>
                <file id="src-2"/>
                <sourcetrack>
                  <mediatype>video</mediatype>
                  <trackindex>1</trackindex>
                </sourcetrack>
                <multiclip id="mcs-444">
                  <name>MCS-444</name>
                  <masterclipid>clip-master</masterclipid>
                  <collapsed>false</collapsed>
                  <angle>
                    <activevideoangle>false</activevideoangle>
                    <activeaudioangle>false</activeaudioangle>
                    <clip id="clip-1"/>
                  </angle>
                  <angle>
                    <activevideoangle>true</activevideoangle>
                    <activeaudioangle>true</activeaudioangle>
                    <clip id="clip-2"/>
                  </angle>
                  <angle>
                    <activevideoangle>false</activevideoangle>
                    <activeaudioangle>false</activeaudioangle>
                    <clip id="clip-3"/>
                  </angle>
                  <angle>
                    <activevideoangle>false</activevideoangle>
                    <activeaudioangle>false</activeaudioangle>
                    <clip id="clip-4"/>
                  </angle>
                  <angle>
                    <activevideoangle>false</activevideoangle>
                    <activeaudioangle>false</activeaudioangle>
                    <clip id="clip-5"/>
                  </angle>
                  <angle>
                    <activevideoangle>false</activevideoangle>
                    <activeaudioangle>false</activeaudioangle>
                    <clip id="clip-6"/>
                  </angle>
                  <angle>
                    <activevideoangle>false</activevideoangle>
                    <activeaudioangle>false</activeaudioangle>
                    <clip id="clip-7"/>
                  </angle>
                  <masterclipid>clip-master</masterclipid>
                </multiclip>
              </clipitem>
              <clipitem id="cs-445">
                <duration>50</duration>
                <rate>
                  <ntsc>false</ntsc>
                  <timebase>25</timebase>
                </rate>
                <in>47195</in>
                <out>47244</out>
                <start>47195</start>
                <end>47244</end>
                <file id="src-6"/>
                <sourcetrack>
                  <mediatype>video</mediatype>
                  <trackindex>1</trackindex>
                </sourcetrack>
                <multiclip id="mcs-445">
                  <name>MCS-445</name>
                  <masterclipid>clip-master</masterclipid>
                  <collapsed>false</collapsed>
                  <angle>
                    <activevideoangle>false</activevideoangle>
                    <activeaudioangle>false</activeaudioangle>
                    <clip id="clip-1"/>
                  </angle>
                  <angle>
                    <activevideoangle>false</activevideoangle>
                    <activeaudioangle>false</activeaudioangle>
                    <clip id="clip-2"/>
                  </angle>
                  <angle>
                    <activevideoangle>false</activevideoangle>
                    <activeaudioangle>false</activeaudioangle>
                    <clip id="clip-3"/>
                  </angle>
                  <angle>
                    <activevideoangle>false</activevideoangle>
                    <activeaudioangle>false</activeaudioangle>
                    <clip id="clip-4"/>
                  </angle>
                  <angle>
                    <activevideoangle>false</activevideoangle>
                    <activeaudioangle>false</activeaudioangle>
                    <clip id="clip-5"/>
                  </angle>
                  <angle>
                    <activevideoangle>true</activevideoangle>
                    <activeaudioangle>true</activeaudioangle>
                    <clip id="clip-6"/>
                  </angle>
                  <angle>
                    <activevideoangle>false</activevideoangle>
                    <activeaudioangle>false</activeaudioangle>
                    <clip id="clip-7"/>
                  </angle>
                  <masterclipid>clip-master</masterclipid>
                </multiclip>
              </clipitem>
              <clipitem id="cs-446">
                <duration>243</duration>
                <rate>
                  <ntsc>false</ntsc>
                  <timebase>25</timebase>
                </rate>
                <in>47244</in>
                <out>47486</out>
                <start>47244</start>
                <end>47486</end>
                <file id="src-3"/>
                <sourcetrack>
                  <mediatype>video</mediatype>
                  <trackindex>1</trackindex>
                </sourcetrack>
                <multiclip id="mcs-446">
                  <name>MCS-446</name>
                  <masterclipid>clip-master</masterclipid>
                  <collapsed>false</collapsed>
                  <angle>
                    <activevideoangle>false</activevideoangle>
                    <activeaudioangle>false</activeaudioangle>
                    <clip id="clip-1"/>
                  </angle>
                  <angle>
                    <activevideoangle>false</activevideoangle>
                    <activeaudioangle>false</activeaudioangle>
                    <clip id="clip-2"/>
                  </angle>
                  <angle>
                    <activevideoangle>true</activevideoangle>
                    <activeaudioangle>true</activeaudioangle>
                    <clip id="clip-3"/>
                  </angle>
                  <angle>
                    <activevideoangle>false</activevideoangle>
                    <activeaudioangle>false</activeaudioangle>
                    <clip id="clip-4"/>
                  </angle>
                  <angle>
                    <activevideoangle>false</activevideoangle>
                    <activeaudioangle>false</activeaudioangle>
                    <clip id="clip-5"/>
                  </angle>
                  <angle>
                    <activevideoangle>false</activevideoangle>
                    <activeaudioangle>false</activeaudioangle>
                    <clip id="clip-6"/>
                  </angle>
                  <angle>
                    <activevideoangle>false</activevideoangle>
                    <activeaudioangle>false</activeaudioangle>
                    <clip id="clip-7"/>
                  </angle>
                  <masterclipid>clip-master</masterclipid>
                </multiclip>
              </clipitem>
              <clipitem id="cs-447">
                <duration>159</duration>
                <rate>
                  <ntsc>false</ntsc>
                  <timebase>25</timebase>
                </rate>
                <in>47486</in>
                <out>47644</out>
                <start>47486</start>
                <end>47644</end>
                <file id="src-2"/>
                <sourcetrack>
                  <mediatype>video</mediatype>
                  <trackindex>1</trackindex>
                </sourcetrack>
                <multiclip id="mcs-447">
                  <name>MCS-447</name>
                  <masterclipid>clip-master</masterclipid>
                  <collapsed>false</collapsed>
                  <angle>
                    <activevideoangle>false</activevideoangle>
                    <activeaudioangle>false</activeaudioangle>
                    <clip id="clip-1"/>
                  </angle>
                  <angle>
                    <activevideoangle>true</activevideoangle>
                    <activeaudioangle>true</activeaudioangle>
                    <clip id="clip-2"/>
                  </angle>
                  <angle>
                    <activevideoangle>false</activevideoangle>
                    <activeaudioangle>false</activeaudioangle>
                    <clip id="clip-3"/>
                  </angle>
                  <angle>
                    <activevideoangle>false</activevideoangle>
                    <activeaudioangle>false</activeaudioangle>
                    <clip id="clip-4"/>
                  </angle>
                  <angle>
                    <activevideoangle>false</activevideoangle>
                    <activeaudioangle>false</activeaudioangle>
                    <clip id="clip-5"/>
                  </angle>
                  <angle>
                    <activevideoangle>false</activevideoangle>
                    <activeaudioangle>false</activeaudioangle>
                    <clip id="clip-6"/>
                  </angle>
                  <angle>
                    <activevideoangle>false</activevideoangle>
                    <activeaudioangle>false</activeaudioangle>
                    <clip id="clip-7"/>
                  </angle>
                  <masterclipid>clip-master</masterclipid>
                </multiclip>
              </clipitem>
              <clipitem id="cs-448">
                <duration>108</duration>
                <rate>
                  <ntsc>false</ntsc>
                  <timebase>25</timebase>
                </rate>
                <in>47644</in>
                <out>47751</out>
                <start>47644</start>
                <end>47751</end>
                <file id="src-3"/>
                <sourcetrack>
                  <mediatype>video</mediatype>
                  <trackindex>1</trackindex>
                </sourcetrack>
                <multiclip id="mcs-448">
                  <name>MCS-448</name>
                  <masterclipid>clip-master</masterclipid>
                  <collapsed>false</collapsed>
                  <angle>
                    <activevideoangle>false</activevideoangle>
                    <activeaudioangle>false</activeaudioangle>
                    <clip id="clip-1"/>
                  </angle>
                  <angle>
                    <activevideoangle>false</activevideoangle>
                    <activeaudioangle>false</activeaudioangle>
                    <clip id="clip-2"/>
                  </angle>
                  <angle>
                    <activevideoangle>true</activevideoangle>
                    <activeaudioangle>true</activeaudioangle>
                    <clip id="clip-3"/>
                  </angle>
                  <angle>
                    <activevideoangle>false</activevideoangle>
                    <activeaudioangle>false</activeaudioangle>
                    <clip id="clip-4"/>
                  </angle>
                  <angle>
                    <activevideoangle>false</activevideoangle>
                    <activeaudioangle>false</activeaudioangle>
                    <clip id="clip-5"/>
                  </angle>
                  <angle>
                    <activevideoangle>false</activevideoangle>
                    <activeaudioangle>false</activeaudioangle>
                    <clip id="clip-6"/>
                  </angle>
                  <angle>
                    <activevideoangle>false</activevideoangle>
                    <activeaudioangle>false</activeaudioangle>
                    <clip id="clip-7"/>
                  </angle>
                  <masterclipid>clip-master</masterclipid>
                </multiclip>
              </clipitem>
              <clipitem id="cs-449">
                <duration>144</duration>
                <rate>
                  <ntsc>false</ntsc>
                  <timebase>25</timebase>
                </rate>
                <in>47751</in>
                <out>47894</out>
                <start>47751</start>
                <end>47894</end>
                <file id="src-4"/>
                <sourcetrack>
                  <mediatype>video</mediatype>
                  <trackindex>1</trackindex>
                </sourcetrack>
                <multiclip id="mcs-449">
                  <name>MCS-449</name>
                  <masterclipid>clip-master</masterclipid>
                  <collapsed>false</collapsed>
                  <angle>
                    <activevideoangle>false</activevideoangle>
                    <activeaudioangle>false</activeaudioangle>
                    <clip id="clip-1"/>
                  </angle>
                  <angle>
                    <activevideoangle>false</activevideoangle>
                    <activeaudioangle>false</activeaudioangle>
                    <clip id="clip-2"/>
                  </angle>
                  <angle>
                    <activevideoangle>false</activevideoangle>
                    <activeaudioangle>false</activeaudioangle>
                    <clip id="clip-3"/>
                  </angle>
                  <angle>
                    <activevideoangle>true</activevideoangle>
                    <activeaudioangle>true</activeaudioangle>
                    <clip id="clip-4"/>
                  </angle>
                  <angle>
                    <activevideoangle>false</activevideoangle>
                    <activeaudioangle>false</activeaudioangle>
                    <clip id="clip-5"/>
                  </angle>
                  <angle>
                    <activevideoangle>false</activevideoangle>
                    <activeaudioangle>false</activeaudioangle>
                    <clip id="clip-6"/>
                  </angle>
                  <angle>
                    <activevideoangle>false</activevideoangle>
                    <activeaudioangle>false</activeaudioangle>
                    <clip id="clip-7"/>
                  </angle>
                  <masterclipid>clip-master</masterclipid>
                </multiclip>
              </clipitem>
              <clipitem id="cs-450">
                <duration>115</duration>
                <rate>
                  <ntsc>false</ntsc>
                  <timebase>25</timebase>
                </rate>
                <in>47894</in>
                <out>48008</out>
                <start>47894</start>
                <end>48008</end>
                <file id="src-3"/>
                <sourcetrack>
                  <mediatype>video</mediatype>
                  <trackindex>1</trackindex>
                </sourcetrack>
                <multiclip id="mcs-450">
                  <name>MCS-450</name>
                  <masterclipid>clip-master</masterclipid>
                  <collapsed>false</collapsed>
                  <angle>
                    <activevideoangle>false</activevideoangle>
                    <activeaudioangle>false</activeaudioangle>
                    <clip id="clip-1"/>
                  </angle>
                  <angle>
                    <activevideoangle>false</activevideoangle>
                    <activeaudioangle>false</activeaudioangle>
                    <clip id="clip-2"/>
                  </angle>
                  <angle>
                    <activevideoangle>true</activevideoangle>
                    <activeaudioangle>true</activeaudioangle>
                    <clip id="clip-3"/>
                  </angle>
                  <angle>
                    <activevideoangle>false</activevideoangle>
                    <activeaudioangle>false</activeaudioangle>
                    <clip id="clip-4"/>
                  </angle>
                  <angle>
                    <activevideoangle>false</activevideoangle>
                    <activeaudioangle>false</activeaudioangle>
                    <clip id="clip-5"/>
                  </angle>
                  <angle>
                    <activevideoangle>false</activevideoangle>
                    <activeaudioangle>false</activeaudioangle>
                    <clip id="clip-6"/>
                  </angle>
                  <angle>
                    <activevideoangle>false</activevideoangle>
                    <activeaudioangle>false</activeaudioangle>
                    <clip id="clip-7"/>
                  </angle>
                  <masterclipid>clip-master</masterclipid>
                </multiclip>
              </clipitem>
              <clipitem id="cs-451">
                <duration>51</duration>
                <rate>
                  <ntsc>false</ntsc>
                  <timebase>25</timebase>
                </rate>
                <in>48008</in>
                <out>48058</out>
                <start>48008</start>
                <end>48058</end>
                <file id="src-6"/>
                <sourcetrack>
                  <mediatype>video</mediatype>
                  <trackindex>1</trackindex>
                </sourcetrack>
                <multiclip id="mcs-451">
                  <name>MCS-451</name>
                  <masterclipid>clip-master</masterclipid>
                  <collapsed>false</collapsed>
                  <angle>
                    <activevideoangle>false</activevideoangle>
                    <activeaudioangle>false</activeaudioangle>
                    <clip id="clip-1"/>
                  </angle>
                  <angle>
                    <activevideoangle>false</activevideoangle>
                    <activeaudioangle>false</activeaudioangle>
                    <clip id="clip-2"/>
                  </angle>
                  <angle>
                    <activevideoangle>false</activevideoangle>
                    <activeaudioangle>false</activeaudioangle>
                    <clip id="clip-3"/>
                  </angle>
                  <angle>
                    <activevideoangle>false</activevideoangle>
                    <activeaudioangle>false</activeaudioangle>
                    <clip id="clip-4"/>
                  </angle>
                  <angle>
                    <activevideoangle>false</activevideoangle>
                    <activeaudioangle>false</activeaudioangle>
                    <clip id="clip-5"/>
                  </angle>
                  <angle>
                    <activevideoangle>true</activevideoangle>
                    <activeaudioangle>true</activeaudioangle>
                    <clip id="clip-6"/>
                  </angle>
                  <angle>
                    <activevideoangle>false</activevideoangle>
                    <activeaudioangle>false</activeaudioangle>
                    <clip id="clip-7"/>
                  </angle>
                  <masterclipid>clip-master</masterclipid>
                </multiclip>
              </clipitem>
              <clipitem id="cs-452">
                <duration>154</duration>
                <rate>
                  <ntsc>false</ntsc>
                  <timebase>25</timebase>
                </rate>
                <in>48058</in>
                <out>48211</out>
                <start>48058</start>
                <end>48211</end>
                <file id="src-3"/>
                <sourcetrack>
                  <mediatype>video</mediatype>
                  <trackindex>1</trackindex>
                </sourcetrack>
                <multiclip id="mcs-452">
                  <name>MCS-452</name>
                  <masterclipid>clip-master</masterclipid>
                  <collapsed>false</collapsed>
                  <angle>
                    <activevideoangle>false</activevideoangle>
                    <activeaudioangle>false</activeaudioangle>
                    <clip id="clip-1"/>
                  </angle>
                  <angle>
                    <activevideoangle>false</activevideoangle>
                    <activeaudioangle>false</activeaudioangle>
                    <clip id="clip-2"/>
                  </angle>
                  <angle>
                    <activevideoangle>true</activevideoangle>
                    <activeaudioangle>true</activeaudioangle>
                    <clip id="clip-3"/>
                  </angle>
                  <angle>
                    <activevideoangle>false</activevideoangle>
                    <activeaudioangle>false</activeaudioangle>
                    <clip id="clip-4"/>
                  </angle>
                  <angle>
                    <activevideoangle>false</activevideoangle>
                    <activeaudioangle>false</activeaudioangle>
                    <clip id="clip-5"/>
                  </angle>
                  <angle>
                    <activevideoangle>false</activevideoangle>
                    <activeaudioangle>false</activeaudioangle>
                    <clip id="clip-6"/>
                  </angle>
                  <angle>
                    <activevideoangle>false</activevideoangle>
                    <activeaudioangle>false</activeaudioangle>
                    <clip id="clip-7"/>
                  </angle>
                  <masterclipid>clip-master</masterclipid>
                </multiclip>
              </clipitem>
              <clipitem id="cs-453">
                <duration>94</duration>
                <rate>
                  <ntsc>false</ntsc>
                  <timebase>25</timebase>
                </rate>
                <in>48211</in>
                <out>48304</out>
                <start>48211</start>
                <end>48304</end>
                <file id="src-2"/>
                <sourcetrack>
                  <mediatype>video</mediatype>
                  <trackindex>1</trackindex>
                </sourcetrack>
                <multiclip id="mcs-453">
                  <name>MCS-453</name>
                  <masterclipid>clip-master</masterclipid>
                  <collapsed>false</collapsed>
                  <angle>
                    <activevideoangle>false</activevideoangle>
                    <activeaudioangle>false</activeaudioangle>
                    <clip id="clip-1"/>
                  </angle>
                  <angle>
                    <activevideoangle>true</activevideoangle>
                    <activeaudioangle>true</activeaudioangle>
                    <clip id="clip-2"/>
                  </angle>
                  <angle>
                    <activevideoangle>false</activevideoangle>
                    <activeaudioangle>false</activeaudioangle>
                    <clip id="clip-3"/>
                  </angle>
                  <angle>
                    <activevideoangle>false</activevideoangle>
                    <activeaudioangle>false</activeaudioangle>
                    <clip id="clip-4"/>
                  </angle>
                  <angle>
                    <activevideoangle>false</activevideoangle>
                    <activeaudioangle>false</activeaudioangle>
                    <clip id="clip-5"/>
                  </angle>
                  <angle>
                    <activevideoangle>false</activevideoangle>
                    <activeaudioangle>false</activeaudioangle>
                    <clip id="clip-6"/>
                  </angle>
                  <angle>
                    <activevideoangle>false</activevideoangle>
                    <activeaudioangle>false</activeaudioangle>
                    <clip id="clip-7"/>
                  </angle>
                  <masterclipid>clip-master</masterclipid>
                </multiclip>
              </clipitem>
              <clipitem id="cs-454">
                <duration>75</duration>
                <rate>
                  <ntsc>false</ntsc>
                  <timebase>25</timebase>
                </rate>
                <in>48304</in>
                <out>48378</out>
                <start>48304</start>
                <end>48378</end>
                <file id="src-4"/>
                <sourcetrack>
                  <mediatype>video</mediatype>
                  <trackindex>1</trackindex>
                </sourcetrack>
                <multiclip id="mcs-454">
                  <name>MCS-454</name>
                  <masterclipid>clip-master</masterclipid>
                  <collapsed>false</collapsed>
                  <angle>
                    <activevideoangle>false</activevideoangle>
                    <activeaudioangle>false</activeaudioangle>
                    <clip id="clip-1"/>
                  </angle>
                  <angle>
                    <activevideoangle>false</activevideoangle>
                    <activeaudioangle>false</activeaudioangle>
                    <clip id="clip-2"/>
                  </angle>
                  <angle>
                    <activevideoangle>false</activevideoangle>
                    <activeaudioangle>false</activeaudioangle>
                    <clip id="clip-3"/>
                  </angle>
                  <angle>
                    <activevideoangle>true</activevideoangle>
                    <activeaudioangle>true</activeaudioangle>
                    <clip id="clip-4"/>
                  </angle>
                  <angle>
                    <activevideoangle>false</activevideoangle>
                    <activeaudioangle>false</activeaudioangle>
                    <clip id="clip-5"/>
                  </angle>
                  <angle>
                    <activevideoangle>false</activevideoangle>
                    <activeaudioangle>false</activeaudioangle>
                    <clip id="clip-6"/>
                  </angle>
                  <angle>
                    <activevideoangle>false</activevideoangle>
                    <activeaudioangle>false</activeaudioangle>
                    <clip id="clip-7"/>
                  </angle>
                  <masterclipid>clip-master</masterclipid>
                </multiclip>
              </clipitem>
              <clipitem id="cs-455">
                <duration>136</duration>
                <rate>
                  <ntsc>false</ntsc>
                  <timebase>25</timebase>
                </rate>
                <in>48378</in>
                <out>48513</out>
                <start>48378</start>
                <end>48513</end>
                <file id="src-3"/>
                <sourcetrack>
                  <mediatype>video</mediatype>
                  <trackindex>1</trackindex>
                </sourcetrack>
                <multiclip id="mcs-455">
                  <name>MCS-455</name>
                  <masterclipid>clip-master</masterclipid>
                  <collapsed>false</collapsed>
                  <angle>
                    <activevideoangle>false</activevideoangle>
                    <activeaudioangle>false</activeaudioangle>
                    <clip id="clip-1"/>
                  </angle>
                  <angle>
                    <activevideoangle>false</activevideoangle>
                    <activeaudioangle>false</activeaudioangle>
                    <clip id="clip-2"/>
                  </angle>
                  <angle>
                    <activevideoangle>true</activevideoangle>
                    <activeaudioangle>true</activeaudioangle>
                    <clip id="clip-3"/>
                  </angle>
                  <angle>
                    <activevideoangle>false</activevideoangle>
                    <activeaudioangle>false</activeaudioangle>
                    <clip id="clip-4"/>
                  </angle>
                  <angle>
                    <activevideoangle>false</activevideoangle>
                    <activeaudioangle>false</activeaudioangle>
                    <clip id="clip-5"/>
                  </angle>
                  <angle>
                    <activevideoangle>false</activevideoangle>
                    <activeaudioangle>false</activeaudioangle>
                    <clip id="clip-6"/>
                  </angle>
                  <angle>
                    <activevideoangle>false</activevideoangle>
                    <activeaudioangle>false</activeaudioangle>
                    <clip id="clip-7"/>
                  </angle>
                  <masterclipid>clip-master</masterclipid>
                </multiclip>
              </clipitem>
              <clipitem id="cs-456">
                <duration>62</duration>
                <rate>
                  <ntsc>false</ntsc>
                  <timebase>25</timebase>
                </rate>
                <in>48513</in>
                <out>48574</out>
                <start>48513</start>
                <end>48574</end>
                <file id="src-4"/>
                <sourcetrack>
                  <mediatype>video</mediatype>
                  <trackindex>1</trackindex>
                </sourcetrack>
                <multiclip id="mcs-456">
                  <name>MCS-456</name>
                  <masterclipid>clip-master</masterclipid>
                  <collapsed>false</collapsed>
                  <angle>
                    <activevideoangle>false</activevideoangle>
                    <activeaudioangle>false</activeaudioangle>
                    <clip id="clip-1"/>
                  </angle>
                  <angle>
                    <activevideoangle>false</activevideoangle>
                    <activeaudioangle>false</activeaudioangle>
                    <clip id="clip-2"/>
                  </angle>
                  <angle>
                    <activevideoangle>false</activevideoangle>
                    <activeaudioangle>false</activeaudioangle>
                    <clip id="clip-3"/>
                  </angle>
                  <angle>
                    <activevideoangle>true</activevideoangle>
                    <activeaudioangle>true</activeaudioangle>
                    <clip id="clip-4"/>
                  </angle>
                  <angle>
                    <activevideoangle>false</activevideoangle>
                    <activeaudioangle>false</activeaudioangle>
                    <clip id="clip-5"/>
                  </angle>
                  <angle>
                    <activevideoangle>false</activevideoangle>
                    <activeaudioangle>false</activeaudioangle>
                    <clip id="clip-6"/>
                  </angle>
                  <angle>
                    <activevideoangle>false</activevideoangle>
                    <activeaudioangle>false</activeaudioangle>
                    <clip id="clip-7"/>
                  </angle>
                  <masterclipid>clip-master</masterclipid>
                </multiclip>
              </clipitem>
              <clipitem id="cs-457">
                <duration>121</duration>
                <rate>
                  <ntsc>false</ntsc>
                  <timebase>25</timebase>
                </rate>
                <in>48574</in>
                <out>48694</out>
                <start>48574</start>
                <end>48694</end>
                <file id="src-2"/>
                <sourcetrack>
                  <mediatype>video</mediatype>
                  <trackindex>1</trackindex>
                </sourcetrack>
                <multiclip id="mcs-457">
                  <name>MCS-457</name>
                  <masterclipid>clip-master</masterclipid>
                  <collapsed>false</collapsed>
                  <angle>
                    <activevideoangle>false</activevideoangle>
                    <activeaudioangle>false</activeaudioangle>
                    <clip id="clip-1"/>
                  </angle>
                  <angle>
                    <activevideoangle>true</activevideoangle>
                    <activeaudioangle>true</activeaudioangle>
                    <clip id="clip-2"/>
                  </angle>
                  <angle>
                    <activevideoangle>false</activevideoangle>
                    <activeaudioangle>false</activeaudioangle>
                    <clip id="clip-3"/>
                  </angle>
                  <angle>
                    <activevideoangle>false</activevideoangle>
                    <activeaudioangle>false</activeaudioangle>
                    <clip id="clip-4"/>
                  </angle>
                  <angle>
                    <activevideoangle>false</activevideoangle>
                    <activeaudioangle>false</activeaudioangle>
                    <clip id="clip-5"/>
                  </angle>
                  <angle>
                    <activevideoangle>false</activevideoangle>
                    <activeaudioangle>false</activeaudioangle>
                    <clip id="clip-6"/>
                  </angle>
                  <angle>
                    <activevideoangle>false</activevideoangle>
                    <activeaudioangle>false</activeaudioangle>
                    <clip id="clip-7"/>
                  </angle>
                  <masterclipid>clip-master</masterclipid>
                </multiclip>
              </clipitem>
              <clipitem id="cs-458">
                <duration>100</duration>
                <rate>
                  <ntsc>false</ntsc>
                  <timebase>25</timebase>
                </rate>
                <in>48694</in>
                <out>48793</out>
                <start>48694</start>
                <end>48793</end>
                <file id="src-4"/>
                <sourcetrack>
                  <mediatype>video</mediatype>
                  <trackindex>1</trackindex>
                </sourcetrack>
                <multiclip id="mcs-458">
                  <name>MCS-458</name>
                  <masterclipid>clip-master</masterclipid>
                  <collapsed>false</collapsed>
                  <angle>
                    <activevideoangle>false</activevideoangle>
                    <activeaudioangle>false</activeaudioangle>
                    <clip id="clip-1"/>
                  </angle>
                  <angle>
                    <activevideoangle>false</activevideoangle>
                    <activeaudioangle>false</activeaudioangle>
                    <clip id="clip-2"/>
                  </angle>
                  <angle>
                    <activevideoangle>false</activevideoangle>
                    <activeaudioangle>false</activeaudioangle>
                    <clip id="clip-3"/>
                  </angle>
                  <angle>
                    <activevideoangle>true</activevideoangle>
                    <activeaudioangle>true</activeaudioangle>
                    <clip id="clip-4"/>
                  </angle>
                  <angle>
                    <activevideoangle>false</activevideoangle>
                    <activeaudioangle>false</activeaudioangle>
                    <clip id="clip-5"/>
                  </angle>
                  <angle>
                    <activevideoangle>false</activevideoangle>
                    <activeaudioangle>false</activeaudioangle>
                    <clip id="clip-6"/>
                  </angle>
                  <angle>
                    <activevideoangle>false</activevideoangle>
                    <activeaudioangle>false</activeaudioangle>
                    <clip id="clip-7"/>
                  </angle>
                  <masterclipid>clip-master</masterclipid>
                </multiclip>
              </clipitem>
              <clipitem id="cs-459">
                <duration>37</duration>
                <rate>
                  <ntsc>false</ntsc>
                  <timebase>25</timebase>
                </rate>
                <in>48793</in>
                <out>48829</out>
                <start>48793</start>
                <end>48829</end>
                <file id="src-2"/>
                <sourcetrack>
                  <mediatype>video</mediatype>
                  <trackindex>1</trackindex>
                </sourcetrack>
                <multiclip id="mcs-459">
                  <name>MCS-459</name>
                  <masterclipid>clip-master</masterclipid>
                  <collapsed>false</collapsed>
                  <angle>
                    <activevideoangle>false</activevideoangle>
                    <activeaudioangle>false</activeaudioangle>
                    <clip id="clip-1"/>
                  </angle>
                  <angle>
                    <activevideoangle>true</activevideoangle>
                    <activeaudioangle>true</activeaudioangle>
                    <clip id="clip-2"/>
                  </angle>
                  <angle>
                    <activevideoangle>false</activevideoangle>
                    <activeaudioangle>false</activeaudioangle>
                    <clip id="clip-3"/>
                  </angle>
                  <angle>
                    <activevideoangle>false</activevideoangle>
                    <activeaudioangle>false</activeaudioangle>
                    <clip id="clip-4"/>
                  </angle>
                  <angle>
                    <activevideoangle>false</activevideoangle>
                    <activeaudioangle>false</activeaudioangle>
                    <clip id="clip-5"/>
                  </angle>
                  <angle>
                    <activevideoangle>false</activevideoangle>
                    <activeaudioangle>false</activeaudioangle>
                    <clip id="clip-6"/>
                  </angle>
                  <angle>
                    <activevideoangle>false</activevideoangle>
                    <activeaudioangle>false</activeaudioangle>
                    <clip id="clip-7"/>
                  </angle>
                  <masterclipid>clip-master</masterclipid>
                </multiclip>
              </clipitem>
              <clipitem id="cs-460">
                <duration>54</duration>
                <rate>
                  <ntsc>false</ntsc>
                  <timebase>25</timebase>
                </rate>
                <in>48829</in>
                <out>48882</out>
                <start>48829</start>
                <end>48882</end>
                <file id="src-3"/>
                <sourcetrack>
                  <mediatype>video</mediatype>
                  <trackindex>1</trackindex>
                </sourcetrack>
                <multiclip id="mcs-460">
                  <name>MCS-460</name>
                  <masterclipid>clip-master</masterclipid>
                  <collapsed>false</collapsed>
                  <angle>
                    <activevideoangle>false</activevideoangle>
                    <activeaudioangle>false</activeaudioangle>
                    <clip id="clip-1"/>
                  </angle>
                  <angle>
                    <activevideoangle>false</activevideoangle>
                    <activeaudioangle>false</activeaudioangle>
                    <clip id="clip-2"/>
                  </angle>
                  <angle>
                    <activevideoangle>true</activevideoangle>
                    <activeaudioangle>true</activeaudioangle>
                    <clip id="clip-3"/>
                  </angle>
                  <angle>
                    <activevideoangle>false</activevideoangle>
                    <activeaudioangle>false</activeaudioangle>
                    <clip id="clip-4"/>
                  </angle>
                  <angle>
                    <activevideoangle>false</activevideoangle>
                    <activeaudioangle>false</activeaudioangle>
                    <clip id="clip-5"/>
                  </angle>
                  <angle>
                    <activevideoangle>false</activevideoangle>
                    <activeaudioangle>false</activeaudioangle>
                    <clip id="clip-6"/>
                  </angle>
                  <angle>
                    <activevideoangle>false</activevideoangle>
                    <activeaudioangle>false</activeaudioangle>
                    <clip id="clip-7"/>
                  </angle>
                  <masterclipid>clip-master</masterclipid>
                </multiclip>
              </clipitem>
              <clipitem id="cs-461">
                <duration>70</duration>
                <rate>
                  <ntsc>false</ntsc>
                  <timebase>25</timebase>
                </rate>
                <in>48882</in>
                <out>48951</out>
                <start>48882</start>
                <end>48951</end>
                <file id="src-5"/>
                <sourcetrack>
                  <mediatype>video</mediatype>
                  <trackindex>1</trackindex>
                </sourcetrack>
                <multiclip id="mcs-461">
                  <name>MCS-461</name>
                  <masterclipid>clip-master</masterclipid>
                  <collapsed>false</collapsed>
                  <angle>
                    <activevideoangle>false</activevideoangle>
                    <activeaudioangle>false</activeaudioangle>
                    <clip id="clip-1"/>
                  </angle>
                  <angle>
                    <activevideoangle>false</activevideoangle>
                    <activeaudioangle>false</activeaudioangle>
                    <clip id="clip-2"/>
                  </angle>
                  <angle>
                    <activevideoangle>false</activevideoangle>
                    <activeaudioangle>false</activeaudioangle>
                    <clip id="clip-3"/>
                  </angle>
                  <angle>
                    <activevideoangle>false</activevideoangle>
                    <activeaudioangle>false</activeaudioangle>
                    <clip id="clip-4"/>
                  </angle>
                  <angle>
                    <activevideoangle>true</activevideoangle>
                    <activeaudioangle>true</activeaudioangle>
                    <clip id="clip-5"/>
                  </angle>
                  <angle>
                    <activevideoangle>false</activevideoangle>
                    <activeaudioangle>false</activeaudioangle>
                    <clip id="clip-6"/>
                  </angle>
                  <angle>
                    <activevideoangle>false</activevideoangle>
                    <activeaudioangle>false</activeaudioangle>
                    <clip id="clip-7"/>
                  </angle>
                  <masterclipid>clip-master</masterclipid>
                </multiclip>
              </clipitem>
              <clipitem id="cs-462">
                <duration>61</duration>
                <rate>
                  <ntsc>false</ntsc>
                  <timebase>25</timebase>
                </rate>
                <in>48951</in>
                <out>49011</out>
                <start>48951</start>
                <end>49011</end>
                <file id="src-4"/>
                <sourcetrack>
                  <mediatype>video</mediatype>
                  <trackindex>1</trackindex>
                </sourcetrack>
                <multiclip id="mcs-462">
                  <name>MCS-462</name>
                  <masterclipid>clip-master</masterclipid>
                  <collapsed>false</collapsed>
                  <angle>
                    <activevideoangle>false</activevideoangle>
                    <activeaudioangle>false</activeaudioangle>
                    <clip id="clip-1"/>
                  </angle>
                  <angle>
                    <activevideoangle>false</activevideoangle>
                    <activeaudioangle>false</activeaudioangle>
                    <clip id="clip-2"/>
                  </angle>
                  <angle>
                    <activevideoangle>false</activevideoangle>
                    <activeaudioangle>false</activeaudioangle>
                    <clip id="clip-3"/>
                  </angle>
                  <angle>
                    <activevideoangle>true</activevideoangle>
                    <activeaudioangle>true</activeaudioangle>
                    <clip id="clip-4"/>
                  </angle>
                  <angle>
                    <activevideoangle>false</activevideoangle>
                    <activeaudioangle>false</activeaudioangle>
                    <clip id="clip-5"/>
                  </angle>
                  <angle>
                    <activevideoangle>false</activevideoangle>
                    <activeaudioangle>false</activeaudioangle>
                    <clip id="clip-6"/>
                  </angle>
                  <angle>
                    <activevideoangle>false</activevideoangle>
                    <activeaudioangle>false</activeaudioangle>
                    <clip id="clip-7"/>
                  </angle>
                  <masterclipid>clip-master</masterclipid>
                </multiclip>
              </clipitem>
              <clipitem id="cs-463">
                <duration>66</duration>
                <rate>
                  <ntsc>false</ntsc>
                  <timebase>25</timebase>
                </rate>
                <in>49011</in>
                <out>49076</out>
                <start>49011</start>
                <end>49076</end>
                <file id="src-2"/>
                <sourcetrack>
                  <mediatype>video</mediatype>
                  <trackindex>1</trackindex>
                </sourcetrack>
                <multiclip id="mcs-463">
                  <name>MCS-463</name>
                  <masterclipid>clip-master</masterclipid>
                  <collapsed>false</collapsed>
                  <angle>
                    <activevideoangle>false</activevideoangle>
                    <activeaudioangle>false</activeaudioangle>
                    <clip id="clip-1"/>
                  </angle>
                  <angle>
                    <activevideoangle>true</activevideoangle>
                    <activeaudioangle>true</activeaudioangle>
                    <clip id="clip-2"/>
                  </angle>
                  <angle>
                    <activevideoangle>false</activevideoangle>
                    <activeaudioangle>false</activeaudioangle>
                    <clip id="clip-3"/>
                  </angle>
                  <angle>
                    <activevideoangle>false</activevideoangle>
                    <activeaudioangle>false</activeaudioangle>
                    <clip id="clip-4"/>
                  </angle>
                  <angle>
                    <activevideoangle>false</activevideoangle>
                    <activeaudioangle>false</activeaudioangle>
                    <clip id="clip-5"/>
                  </angle>
                  <angle>
                    <activevideoangle>false</activevideoangle>
                    <activeaudioangle>false</activeaudioangle>
                    <clip id="clip-6"/>
                  </angle>
                  <angle>
                    <activevideoangle>false</activevideoangle>
                    <activeaudioangle>false</activeaudioangle>
                    <clip id="clip-7"/>
                  </angle>
                  <masterclipid>clip-master</masterclipid>
                </multiclip>
              </clipitem>
              <clipitem id="cs-464">
                <duration>32</duration>
                <rate>
                  <ntsc>false</ntsc>
                  <timebase>25</timebase>
                </rate>
                <in>49076</in>
                <out>49107</out>
                <start>49076</start>
                <end>49107</end>
                <file id="src-3"/>
                <sourcetrack>
                  <mediatype>video</mediatype>
                  <trackindex>1</trackindex>
                </sourcetrack>
                <multiclip id="mcs-464">
                  <name>MCS-464</name>
                  <masterclipid>clip-master</masterclipid>
                  <collapsed>false</collapsed>
                  <angle>
                    <activevideoangle>false</activevideoangle>
                    <activeaudioangle>false</activeaudioangle>
                    <clip id="clip-1"/>
                  </angle>
                  <angle>
                    <activevideoangle>false</activevideoangle>
                    <activeaudioangle>false</activeaudioangle>
                    <clip id="clip-2"/>
                  </angle>
                  <angle>
                    <activevideoangle>true</activevideoangle>
                    <activeaudioangle>true</activeaudioangle>
                    <clip id="clip-3"/>
                  </angle>
                  <angle>
                    <activevideoangle>false</activevideoangle>
                    <activeaudioangle>false</activeaudioangle>
                    <clip id="clip-4"/>
                  </angle>
                  <angle>
                    <activevideoangle>false</activevideoangle>
                    <activeaudioangle>false</activeaudioangle>
                    <clip id="clip-5"/>
                  </angle>
                  <angle>
                    <activevideoangle>false</activevideoangle>
                    <activeaudioangle>false</activeaudioangle>
                    <clip id="clip-6"/>
                  </angle>
                  <angle>
                    <activevideoangle>false</activevideoangle>
                    <activeaudioangle>false</activeaudioangle>
                    <clip id="clip-7"/>
                  </angle>
                  <masterclipid>clip-master</masterclipid>
                </multiclip>
              </clipitem>
              <clipitem id="cs-465">
                <duration>139</duration>
                <rate>
                  <ntsc>false</ntsc>
                  <timebase>25</timebase>
                </rate>
                <in>49107</in>
                <out>49245</out>
                <start>49107</start>
                <end>49245</end>
                <file id="src-1"/>
                <sourcetrack>
                  <mediatype>video</mediatype>
                  <trackindex>1</trackindex>
                </sourcetrack>
                <multiclip id="mcs-465">
                  <name>MCS-465</name>
                  <masterclipid>clip-master</masterclipid>
                  <collapsed>false</collapsed>
                  <angle>
                    <activevideoangle>true</activevideoangle>
                    <activeaudioangle>true</activeaudioangle>
                    <clip id="clip-1"/>
                  </angle>
                  <angle>
                    <activevideoangle>false</activevideoangle>
                    <activeaudioangle>false</activeaudioangle>
                    <clip id="clip-2"/>
                  </angle>
                  <angle>
                    <activevideoangle>false</activevideoangle>
                    <activeaudioangle>false</activeaudioangle>
                    <clip id="clip-3"/>
                  </angle>
                  <angle>
                    <activevideoangle>false</activevideoangle>
                    <activeaudioangle>false</activeaudioangle>
                    <clip id="clip-4"/>
                  </angle>
                  <angle>
                    <activevideoangle>false</activevideoangle>
                    <activeaudioangle>false</activeaudioangle>
                    <clip id="clip-5"/>
                  </angle>
                  <angle>
                    <activevideoangle>false</activevideoangle>
                    <activeaudioangle>false</activeaudioangle>
                    <clip id="clip-6"/>
                  </angle>
                  <angle>
                    <activevideoangle>false</activevideoangle>
                    <activeaudioangle>false</activeaudioangle>
                    <clip id="clip-7"/>
                  </angle>
                  <masterclipid>clip-master</masterclipid>
                </multiclip>
              </clipitem>
              <clipitem id="cs-466">
                <duration>88</duration>
                <rate>
                  <ntsc>false</ntsc>
                  <timebase>25</timebase>
                </rate>
                <in>49245</in>
                <out>49332</out>
                <start>49245</start>
                <end>49332</end>
                <file id="src-2"/>
                <sourcetrack>
                  <mediatype>video</mediatype>
                  <trackindex>1</trackindex>
                </sourcetrack>
                <multiclip id="mcs-466">
                  <name>MCS-466</name>
                  <masterclipid>clip-master</masterclipid>
                  <collapsed>false</collapsed>
                  <angle>
                    <activevideoangle>false</activevideoangle>
                    <activeaudioangle>false</activeaudioangle>
                    <clip id="clip-1"/>
                  </angle>
                  <angle>
                    <activevideoangle>true</activevideoangle>
                    <activeaudioangle>true</activeaudioangle>
                    <clip id="clip-2"/>
                  </angle>
                  <angle>
                    <activevideoangle>false</activevideoangle>
                    <activeaudioangle>false</activeaudioangle>
                    <clip id="clip-3"/>
                  </angle>
                  <angle>
                    <activevideoangle>false</activevideoangle>
                    <activeaudioangle>false</activeaudioangle>
                    <clip id="clip-4"/>
                  </angle>
                  <angle>
                    <activevideoangle>false</activevideoangle>
                    <activeaudioangle>false</activeaudioangle>
                    <clip id="clip-5"/>
                  </angle>
                  <angle>
                    <activevideoangle>false</activevideoangle>
                    <activeaudioangle>false</activeaudioangle>
                    <clip id="clip-6"/>
                  </angle>
                  <angle>
                    <activevideoangle>false</activevideoangle>
                    <activeaudioangle>false</activeaudioangle>
                    <clip id="clip-7"/>
                  </angle>
                  <masterclipid>clip-master</masterclipid>
                </multiclip>
              </clipitem>
              <clipitem id="cs-467">
                <duration>123</duration>
                <rate>
                  <ntsc>false</ntsc>
                  <timebase>25</timebase>
                </rate>
                <in>49332</in>
                <out>49454</out>
                <start>49332</start>
                <end>49454</end>
                <file id="src-4"/>
                <sourcetrack>
                  <mediatype>video</mediatype>
                  <trackindex>1</trackindex>
                </sourcetrack>
                <multiclip id="mcs-467">
                  <name>MCS-467</name>
                  <masterclipid>clip-master</masterclipid>
                  <collapsed>false</collapsed>
                  <angle>
                    <activevideoangle>false</activevideoangle>
                    <activeaudioangle>false</activeaudioangle>
                    <clip id="clip-1"/>
                  </angle>
                  <angle>
                    <activevideoangle>false</activevideoangle>
                    <activeaudioangle>false</activeaudioangle>
                    <clip id="clip-2"/>
                  </angle>
                  <angle>
                    <activevideoangle>false</activevideoangle>
                    <activeaudioangle>false</activeaudioangle>
                    <clip id="clip-3"/>
                  </angle>
                  <angle>
                    <activevideoangle>true</activevideoangle>
                    <activeaudioangle>true</activeaudioangle>
                    <clip id="clip-4"/>
                  </angle>
                  <angle>
                    <activevideoangle>false</activevideoangle>
                    <activeaudioangle>false</activeaudioangle>
                    <clip id="clip-5"/>
                  </angle>
                  <angle>
                    <activevideoangle>false</activevideoangle>
                    <activeaudioangle>false</activeaudioangle>
                    <clip id="clip-6"/>
                  </angle>
                  <angle>
                    <activevideoangle>false</activevideoangle>
                    <activeaudioangle>false</activeaudioangle>
                    <clip id="clip-7"/>
                  </angle>
                  <masterclipid>clip-master</masterclipid>
                </multiclip>
              </clipitem>
              <clipitem id="cs-468">
                <duration>121</duration>
                <rate>
                  <ntsc>false</ntsc>
                  <timebase>25</timebase>
                </rate>
                <in>49454</in>
                <out>49574</out>
                <start>49454</start>
                <end>49574</end>
                <file id="src-2"/>
                <sourcetrack>
                  <mediatype>video</mediatype>
                  <trackindex>1</trackindex>
                </sourcetrack>
                <multiclip id="mcs-468">
                  <name>MCS-468</name>
                  <masterclipid>clip-master</masterclipid>
                  <collapsed>false</collapsed>
                  <angle>
                    <activevideoangle>false</activevideoangle>
                    <activeaudioangle>false</activeaudioangle>
                    <clip id="clip-1"/>
                  </angle>
                  <angle>
                    <activevideoangle>true</activevideoangle>
                    <activeaudioangle>true</activeaudioangle>
                    <clip id="clip-2"/>
                  </angle>
                  <angle>
                    <activevideoangle>false</activevideoangle>
                    <activeaudioangle>false</activeaudioangle>
                    <clip id="clip-3"/>
                  </angle>
                  <angle>
                    <activevideoangle>false</activevideoangle>
                    <activeaudioangle>false</activeaudioangle>
                    <clip id="clip-4"/>
                  </angle>
                  <angle>
                    <activevideoangle>false</activevideoangle>
                    <activeaudioangle>false</activeaudioangle>
                    <clip id="clip-5"/>
                  </angle>
                  <angle>
                    <activevideoangle>false</activevideoangle>
                    <activeaudioangle>false</activeaudioangle>
                    <clip id="clip-6"/>
                  </angle>
                  <angle>
                    <activevideoangle>false</activevideoangle>
                    <activeaudioangle>false</activeaudioangle>
                    <clip id="clip-7"/>
                  </angle>
                  <masterclipid>clip-master</masterclipid>
                </multiclip>
              </clipitem>
              <clipitem id="cs-469">
                <duration>100</duration>
                <rate>
                  <ntsc>false</ntsc>
                  <timebase>25</timebase>
                </rate>
                <in>49574</in>
                <out>49673</out>
                <start>49574</start>
                <end>49673</end>
                <file id="src-3"/>
                <sourcetrack>
                  <mediatype>video</mediatype>
                  <trackindex>1</trackindex>
                </sourcetrack>
                <multiclip id="mcs-469">
                  <name>MCS-469</name>
                  <masterclipid>clip-master</masterclipid>
                  <collapsed>false</collapsed>
                  <angle>
                    <activevideoangle>false</activevideoangle>
                    <activeaudioangle>false</activeaudioangle>
                    <clip id="clip-1"/>
                  </angle>
                  <angle>
                    <activevideoangle>false</activevideoangle>
                    <activeaudioangle>false</activeaudioangle>
                    <clip id="clip-2"/>
                  </angle>
                  <angle>
                    <activevideoangle>true</activevideoangle>
                    <activeaudioangle>true</activeaudioangle>
                    <clip id="clip-3"/>
                  </angle>
                  <angle>
                    <activevideoangle>false</activevideoangle>
                    <activeaudioangle>false</activeaudioangle>
                    <clip id="clip-4"/>
                  </angle>
                  <angle>
                    <activevideoangle>false</activevideoangle>
                    <activeaudioangle>false</activeaudioangle>
                    <clip id="clip-5"/>
                  </angle>
                  <angle>
                    <activevideoangle>false</activevideoangle>
                    <activeaudioangle>false</activeaudioangle>
                    <clip id="clip-6"/>
                  </angle>
                  <angle>
                    <activevideoangle>false</activevideoangle>
                    <activeaudioangle>false</activeaudioangle>
                    <clip id="clip-7"/>
                  </angle>
                  <masterclipid>clip-master</masterclipid>
                </multiclip>
              </clipitem>
              <clipitem id="cs-470">
                <duration>106</duration>
                <rate>
                  <ntsc>false</ntsc>
                  <timebase>25</timebase>
                </rate>
                <in>49673</in>
                <out>49778</out>
                <start>49673</start>
                <end>49778</end>
                <file id="src-2"/>
                <sourcetrack>
                  <mediatype>video</mediatype>
                  <trackindex>1</trackindex>
                </sourcetrack>
                <multiclip id="mcs-470">
                  <name>MCS-470</name>
                  <masterclipid>clip-master</masterclipid>
                  <collapsed>false</collapsed>
                  <angle>
                    <activevideoangle>false</activevideoangle>
                    <activeaudioangle>false</activeaudioangle>
                    <clip id="clip-1"/>
                  </angle>
                  <angle>
                    <activevideoangle>true</activevideoangle>
                    <activeaudioangle>true</activeaudioangle>
                    <clip id="clip-2"/>
                  </angle>
                  <angle>
                    <activevideoangle>false</activevideoangle>
                    <activeaudioangle>false</activeaudioangle>
                    <clip id="clip-3"/>
                  </angle>
                  <angle>
                    <activevideoangle>false</activevideoangle>
                    <activeaudioangle>false</activeaudioangle>
                    <clip id="clip-4"/>
                  </angle>
                  <angle>
                    <activevideoangle>false</activevideoangle>
                    <activeaudioangle>false</activeaudioangle>
                    <clip id="clip-5"/>
                  </angle>
                  <angle>
                    <activevideoangle>false</activevideoangle>
                    <activeaudioangle>false</activeaudioangle>
                    <clip id="clip-6"/>
                  </angle>
                  <angle>
                    <activevideoangle>false</activevideoangle>
                    <activeaudioangle>false</activeaudioangle>
                    <clip id="clip-7"/>
                  </angle>
                  <masterclipid>clip-master</masterclipid>
                </multiclip>
              </clipitem>
              <clipitem id="cs-471">
                <duration>187</duration>
                <rate>
                  <ntsc>false</ntsc>
                  <timebase>25</timebase>
                </rate>
                <in>49778</in>
                <out>49964</out>
                <start>49778</start>
                <end>49964</end>
                <file id="src-1"/>
                <sourcetrack>
                  <mediatype>video</mediatype>
                  <trackindex>1</trackindex>
                </sourcetrack>
                <multiclip id="mcs-471">
                  <name>MCS-471</name>
                  <masterclipid>clip-master</masterclipid>
                  <collapsed>false</collapsed>
                  <angle>
                    <activevideoangle>true</activevideoangle>
                    <activeaudioangle>true</activeaudioangle>
                    <clip id="clip-1"/>
                  </angle>
                  <angle>
                    <activevideoangle>false</activevideoangle>
                    <activeaudioangle>false</activeaudioangle>
                    <clip id="clip-2"/>
                  </angle>
                  <angle>
                    <activevideoangle>false</activevideoangle>
                    <activeaudioangle>false</activeaudioangle>
                    <clip id="clip-3"/>
                  </angle>
                  <angle>
                    <activevideoangle>false</activevideoangle>
                    <activeaudioangle>false</activeaudioangle>
                    <clip id="clip-4"/>
                  </angle>
                  <angle>
                    <activevideoangle>false</activevideoangle>
                    <activeaudioangle>false</activeaudioangle>
                    <clip id="clip-5"/>
                  </angle>
                  <angle>
                    <activevideoangle>false</activevideoangle>
                    <activeaudioangle>false</activeaudioangle>
                    <clip id="clip-6"/>
                  </angle>
                  <angle>
                    <activevideoangle>false</activevideoangle>
                    <activeaudioangle>false</activeaudioangle>
                    <clip id="clip-7"/>
                  </angle>
                  <masterclipid>clip-master</masterclipid>
                </multiclip>
              </clipitem>
              <clipitem id="cs-472">
                <duration>123</duration>
                <rate>
                  <ntsc>false</ntsc>
                  <timebase>25</timebase>
                </rate>
                <in>49964</in>
                <out>50086</out>
                <start>49964</start>
                <end>50086</end>
                <file id="src-2"/>
                <sourcetrack>
                  <mediatype>video</mediatype>
                  <trackindex>1</trackindex>
                </sourcetrack>
                <multiclip id="mcs-472">
                  <name>MCS-472</name>
                  <masterclipid>clip-master</masterclipid>
                  <collapsed>false</collapsed>
                  <angle>
                    <activevideoangle>false</activevideoangle>
                    <activeaudioangle>false</activeaudioangle>
                    <clip id="clip-1"/>
                  </angle>
                  <angle>
                    <activevideoangle>true</activevideoangle>
                    <activeaudioangle>true</activeaudioangle>
                    <clip id="clip-2"/>
                  </angle>
                  <angle>
                    <activevideoangle>false</activevideoangle>
                    <activeaudioangle>false</activeaudioangle>
                    <clip id="clip-3"/>
                  </angle>
                  <angle>
                    <activevideoangle>false</activevideoangle>
                    <activeaudioangle>false</activeaudioangle>
                    <clip id="clip-4"/>
                  </angle>
                  <angle>
                    <activevideoangle>false</activevideoangle>
                    <activeaudioangle>false</activeaudioangle>
                    <clip id="clip-5"/>
                  </angle>
                  <angle>
                    <activevideoangle>false</activevideoangle>
                    <activeaudioangle>false</activeaudioangle>
                    <clip id="clip-6"/>
                  </angle>
                  <angle>
                    <activevideoangle>false</activevideoangle>
                    <activeaudioangle>false</activeaudioangle>
                    <clip id="clip-7"/>
                  </angle>
                  <masterclipid>clip-master</masterclipid>
                </multiclip>
              </clipitem>
              <clipitem id="cs-473">
                <duration>70</duration>
                <rate>
                  <ntsc>false</ntsc>
                  <timebase>25</timebase>
                </rate>
                <in>50086</in>
                <out>50155</out>
                <start>50086</start>
                <end>50155</end>
                <file id="src-4"/>
                <sourcetrack>
                  <mediatype>video</mediatype>
                  <trackindex>1</trackindex>
                </sourcetrack>
                <multiclip id="mcs-473">
                  <name>MCS-473</name>
                  <masterclipid>clip-master</masterclipid>
                  <collapsed>false</collapsed>
                  <angle>
                    <activevideoangle>false</activevideoangle>
                    <activeaudioangle>false</activeaudioangle>
                    <clip id="clip-1"/>
                  </angle>
                  <angle>
                    <activevideoangle>false</activevideoangle>
                    <activeaudioangle>false</activeaudioangle>
                    <clip id="clip-2"/>
                  </angle>
                  <angle>
                    <activevideoangle>false</activevideoangle>
                    <activeaudioangle>false</activeaudioangle>
                    <clip id="clip-3"/>
                  </angle>
                  <angle>
                    <activevideoangle>true</activevideoangle>
                    <activeaudioangle>true</activeaudioangle>
                    <clip id="clip-4"/>
                  </angle>
                  <angle>
                    <activevideoangle>false</activevideoangle>
                    <activeaudioangle>false</activeaudioangle>
                    <clip id="clip-5"/>
                  </angle>
                  <angle>
                    <activevideoangle>false</activevideoangle>
                    <activeaudioangle>false</activeaudioangle>
                    <clip id="clip-6"/>
                  </angle>
                  <angle>
                    <activevideoangle>false</activevideoangle>
                    <activeaudioangle>false</activeaudioangle>
                    <clip id="clip-7"/>
                  </angle>
                  <masterclipid>clip-master</masterclipid>
                </multiclip>
              </clipitem>
              <clipitem id="cs-474">
                <duration>68</duration>
                <rate>
                  <ntsc>false</ntsc>
                  <timebase>25</timebase>
                </rate>
                <in>50155</in>
                <out>50222</out>
                <start>50155</start>
                <end>50222</end>
                <file id="src-3"/>
                <sourcetrack>
                  <mediatype>video</mediatype>
                  <trackindex>1</trackindex>
                </sourcetrack>
                <multiclip id="mcs-474">
                  <name>MCS-474</name>
                  <masterclipid>clip-master</masterclipid>
                  <collapsed>false</collapsed>
                  <angle>
                    <activevideoangle>false</activevideoangle>
                    <activeaudioangle>false</activeaudioangle>
                    <clip id="clip-1"/>
                  </angle>
                  <angle>
                    <activevideoangle>false</activevideoangle>
                    <activeaudioangle>false</activeaudioangle>
                    <clip id="clip-2"/>
                  </angle>
                  <angle>
                    <activevideoangle>true</activevideoangle>
                    <activeaudioangle>true</activeaudioangle>
                    <clip id="clip-3"/>
                  </angle>
                  <angle>
                    <activevideoangle>false</activevideoangle>
                    <activeaudioangle>false</activeaudioangle>
                    <clip id="clip-4"/>
                  </angle>
                  <angle>
                    <activevideoangle>false</activevideoangle>
                    <activeaudioangle>false</activeaudioangle>
                    <clip id="clip-5"/>
                  </angle>
                  <angle>
                    <activevideoangle>false</activevideoangle>
                    <activeaudioangle>false</activeaudioangle>
                    <clip id="clip-6"/>
                  </angle>
                  <angle>
                    <activevideoangle>false</activevideoangle>
                    <activeaudioangle>false</activeaudioangle>
                    <clip id="clip-7"/>
                  </angle>
                  <masterclipid>clip-master</masterclipid>
                </multiclip>
              </clipitem>
              <clipitem id="cs-475">
                <duration>183</duration>
                <rate>
                  <ntsc>false</ntsc>
                  <timebase>25</timebase>
                </rate>
                <in>50222</in>
                <out>50404</out>
                <start>50222</start>
                <end>50404</end>
                <file id="src-2"/>
                <sourcetrack>
                  <mediatype>video</mediatype>
                  <trackindex>1</trackindex>
                </sourcetrack>
                <multiclip id="mcs-475">
                  <name>MCS-475</name>
                  <masterclipid>clip-master</masterclipid>
                  <collapsed>false</collapsed>
                  <angle>
                    <activevideoangle>false</activevideoangle>
                    <activeaudioangle>false</activeaudioangle>
                    <clip id="clip-1"/>
                  </angle>
                  <angle>
                    <activevideoangle>true</activevideoangle>
                    <activeaudioangle>true</activeaudioangle>
                    <clip id="clip-2"/>
                  </angle>
                  <angle>
                    <activevideoangle>false</activevideoangle>
                    <activeaudioangle>false</activeaudioangle>
                    <clip id="clip-3"/>
                  </angle>
                  <angle>
                    <activevideoangle>false</activevideoangle>
                    <activeaudioangle>false</activeaudioangle>
                    <clip id="clip-4"/>
                  </angle>
                  <angle>
                    <activevideoangle>false</activevideoangle>
                    <activeaudioangle>false</activeaudioangle>
                    <clip id="clip-5"/>
                  </angle>
                  <angle>
                    <activevideoangle>false</activevideoangle>
                    <activeaudioangle>false</activeaudioangle>
                    <clip id="clip-6"/>
                  </angle>
                  <angle>
                    <activevideoangle>false</activevideoangle>
                    <activeaudioangle>false</activeaudioangle>
                    <clip id="clip-7"/>
                  </angle>
                  <masterclipid>clip-master</masterclipid>
                </multiclip>
              </clipitem>
              <clipitem id="cs-476">
                <duration>104</duration>
                <rate>
                  <ntsc>false</ntsc>
                  <timebase>25</timebase>
                </rate>
                <in>50404</in>
                <out>50507</out>
                <start>50404</start>
                <end>50507</end>
                <file id="src-5"/>
                <sourcetrack>
                  <mediatype>video</mediatype>
                  <trackindex>1</trackindex>
                </sourcetrack>
                <multiclip id="mcs-476">
                  <name>MCS-476</name>
                  <masterclipid>clip-master</masterclipid>
                  <collapsed>false</collapsed>
                  <angle>
                    <activevideoangle>false</activevideoangle>
                    <activeaudioangle>false</activeaudioangle>
                    <clip id="clip-1"/>
                  </angle>
                  <angle>
                    <activevideoangle>false</activevideoangle>
                    <activeaudioangle>false</activeaudioangle>
                    <clip id="clip-2"/>
                  </angle>
                  <angle>
                    <activevideoangle>false</activevideoangle>
                    <activeaudioangle>false</activeaudioangle>
                    <clip id="clip-3"/>
                  </angle>
                  <angle>
                    <activevideoangle>false</activevideoangle>
                    <activeaudioangle>false</activeaudioangle>
                    <clip id="clip-4"/>
                  </angle>
                  <angle>
                    <activevideoangle>true</activevideoangle>
                    <activeaudioangle>true</activeaudioangle>
                    <clip id="clip-5"/>
                  </angle>
                  <angle>
                    <activevideoangle>false</activevideoangle>
                    <activeaudioangle>false</activeaudioangle>
                    <clip id="clip-6"/>
                  </angle>
                  <angle>
                    <activevideoangle>false</activevideoangle>
                    <activeaudioangle>false</activeaudioangle>
                    <clip id="clip-7"/>
                  </angle>
                  <masterclipid>clip-master</masterclipid>
                </multiclip>
              </clipitem>
              <clipitem id="cs-477">
                <duration>74</duration>
                <rate>
                  <ntsc>false</ntsc>
                  <timebase>25</timebase>
                </rate>
                <in>50507</in>
                <out>50580</out>
                <start>50507</start>
                <end>50580</end>
                <file id="src-4"/>
                <sourcetrack>
                  <mediatype>video</mediatype>
                  <trackindex>1</trackindex>
                </sourcetrack>
                <multiclip id="mcs-477">
                  <name>MCS-477</name>
                  <masterclipid>clip-master</masterclipid>
                  <collapsed>false</collapsed>
                  <angle>
                    <activevideoangle>false</activevideoangle>
                    <activeaudioangle>false</activeaudioangle>
                    <clip id="clip-1"/>
                  </angle>
                  <angle>
                    <activevideoangle>false</activevideoangle>
                    <activeaudioangle>false</activeaudioangle>
                    <clip id="clip-2"/>
                  </angle>
                  <angle>
                    <activevideoangle>false</activevideoangle>
                    <activeaudioangle>false</activeaudioangle>
                    <clip id="clip-3"/>
                  </angle>
                  <angle>
                    <activevideoangle>true</activevideoangle>
                    <activeaudioangle>true</activeaudioangle>
                    <clip id="clip-4"/>
                  </angle>
                  <angle>
                    <activevideoangle>false</activevideoangle>
                    <activeaudioangle>false</activeaudioangle>
                    <clip id="clip-5"/>
                  </angle>
                  <angle>
                    <activevideoangle>false</activevideoangle>
                    <activeaudioangle>false</activeaudioangle>
                    <clip id="clip-6"/>
                  </angle>
                  <angle>
                    <activevideoangle>false</activevideoangle>
                    <activeaudioangle>false</activeaudioangle>
                    <clip id="clip-7"/>
                  </angle>
                  <masterclipid>clip-master</masterclipid>
                </multiclip>
              </clipitem>
              <clipitem id="cs-478">
                <duration>157</duration>
                <rate>
                  <ntsc>false</ntsc>
                  <timebase>25</timebase>
                </rate>
                <in>50580</in>
                <out>50736</out>
                <start>50580</start>
                <end>50736</end>
                <file id="src-3"/>
                <sourcetrack>
                  <mediatype>video</mediatype>
                  <trackindex>1</trackindex>
                </sourcetrack>
                <multiclip id="mcs-478">
                  <name>MCS-478</name>
                  <masterclipid>clip-master</masterclipid>
                  <collapsed>false</collapsed>
                  <angle>
                    <activevideoangle>false</activevideoangle>
                    <activeaudioangle>false</activeaudioangle>
                    <clip id="clip-1"/>
                  </angle>
                  <angle>
                    <activevideoangle>false</activevideoangle>
                    <activeaudioangle>false</activeaudioangle>
                    <clip id="clip-2"/>
                  </angle>
                  <angle>
                    <activevideoangle>true</activevideoangle>
                    <activeaudioangle>true</activeaudioangle>
                    <clip id="clip-3"/>
                  </angle>
                  <angle>
                    <activevideoangle>false</activevideoangle>
                    <activeaudioangle>false</activeaudioangle>
                    <clip id="clip-4"/>
                  </angle>
                  <angle>
                    <activevideoangle>false</activevideoangle>
                    <activeaudioangle>false</activeaudioangle>
                    <clip id="clip-5"/>
                  </angle>
                  <angle>
                    <activevideoangle>false</activevideoangle>
                    <activeaudioangle>false</activeaudioangle>
                    <clip id="clip-6"/>
                  </angle>
                  <angle>
                    <activevideoangle>false</activevideoangle>
                    <activeaudioangle>false</activeaudioangle>
                    <clip id="clip-7"/>
                  </angle>
                  <masterclipid>clip-master</masterclipid>
                </multiclip>
              </clipitem>
              <clipitem id="cs-479">
                <duration>193</duration>
                <rate>
                  <ntsc>false</ntsc>
                  <timebase>25</timebase>
                </rate>
                <in>50736</in>
                <out>50928</out>
                <start>50736</start>
                <end>50928</end>
                <file id="src-2"/>
                <sourcetrack>
                  <mediatype>video</mediatype>
                  <trackindex>1</trackindex>
                </sourcetrack>
                <multiclip id="mcs-479">
                  <name>MCS-479</name>
                  <masterclipid>clip-master</masterclipid>
                  <collapsed>false</collapsed>
                  <angle>
                    <activevideoangle>false</activevideoangle>
                    <activeaudioangle>false</activeaudioangle>
                    <clip id="clip-1"/>
                  </angle>
                  <angle>
                    <activevideoangle>true</activevideoangle>
                    <activeaudioangle>true</activeaudioangle>
                    <clip id="clip-2"/>
                  </angle>
                  <angle>
                    <activevideoangle>false</activevideoangle>
                    <activeaudioangle>false</activeaudioangle>
                    <clip id="clip-3"/>
                  </angle>
                  <angle>
                    <activevideoangle>false</activevideoangle>
                    <activeaudioangle>false</activeaudioangle>
                    <clip id="clip-4"/>
                  </angle>
                  <angle>
                    <activevideoangle>false</activevideoangle>
                    <activeaudioangle>false</activeaudioangle>
                    <clip id="clip-5"/>
                  </angle>
                  <angle>
                    <activevideoangle>false</activevideoangle>
                    <activeaudioangle>false</activeaudioangle>
                    <clip id="clip-6"/>
                  </angle>
                  <angle>
                    <activevideoangle>false</activevideoangle>
                    <activeaudioangle>false</activeaudioangle>
                    <clip id="clip-7"/>
                  </angle>
                  <masterclipid>clip-master</masterclipid>
                </multiclip>
              </clipitem>
              <clipitem id="cs-480">
                <duration>109</duration>
                <rate>
                  <ntsc>false</ntsc>
                  <timebase>25</timebase>
                </rate>
                <in>50928</in>
                <out>51036</out>
                <start>50928</start>
                <end>51036</end>
                <file id="src-4"/>
                <sourcetrack>
                  <mediatype>video</mediatype>
                  <trackindex>1</trackindex>
                </sourcetrack>
                <multiclip id="mcs-480">
                  <name>MCS-480</name>
                  <masterclipid>clip-master</masterclipid>
                  <collapsed>false</collapsed>
                  <angle>
                    <activevideoangle>false</activevideoangle>
                    <activeaudioangle>false</activeaudioangle>
                    <clip id="clip-1"/>
                  </angle>
                  <angle>
                    <activevideoangle>false</activevideoangle>
                    <activeaudioangle>false</activeaudioangle>
                    <clip id="clip-2"/>
                  </angle>
                  <angle>
                    <activevideoangle>false</activevideoangle>
                    <activeaudioangle>false</activeaudioangle>
                    <clip id="clip-3"/>
                  </angle>
                  <angle>
                    <activevideoangle>true</activevideoangle>
                    <activeaudioangle>true</activeaudioangle>
                    <clip id="clip-4"/>
                  </angle>
                  <angle>
                    <activevideoangle>false</activevideoangle>
                    <activeaudioangle>false</activeaudioangle>
                    <clip id="clip-5"/>
                  </angle>
                  <angle>
                    <activevideoangle>false</activevideoangle>
                    <activeaudioangle>false</activeaudioangle>
                    <clip id="clip-6"/>
                  </angle>
                  <angle>
                    <activevideoangle>false</activevideoangle>
                    <activeaudioangle>false</activeaudioangle>
                    <clip id="clip-7"/>
                  </angle>
                  <masterclipid>clip-master</masterclipid>
                </multiclip>
              </clipitem>
              <clipitem id="cs-481">
                <duration>91</duration>
                <rate>
                  <ntsc>false</ntsc>
                  <timebase>25</timebase>
                </rate>
                <in>51036</in>
                <out>51126</out>
                <start>51036</start>
                <end>51126</end>
                <file id="src-2"/>
                <sourcetrack>
                  <mediatype>video</mediatype>
                  <trackindex>1</trackindex>
                </sourcetrack>
                <multiclip id="mcs-481">
                  <name>MCS-481</name>
                  <masterclipid>clip-master</masterclipid>
                  <collapsed>false</collapsed>
                  <angle>
                    <activevideoangle>false</activevideoangle>
                    <activeaudioangle>false</activeaudioangle>
                    <clip id="clip-1"/>
                  </angle>
                  <angle>
                    <activevideoangle>true</activevideoangle>
                    <activeaudioangle>true</activeaudioangle>
                    <clip id="clip-2"/>
                  </angle>
                  <angle>
                    <activevideoangle>false</activevideoangle>
                    <activeaudioangle>false</activeaudioangle>
                    <clip id="clip-3"/>
                  </angle>
                  <angle>
                    <activevideoangle>false</activevideoangle>
                    <activeaudioangle>false</activeaudioangle>
                    <clip id="clip-4"/>
                  </angle>
                  <angle>
                    <activevideoangle>false</activevideoangle>
                    <activeaudioangle>false</activeaudioangle>
                    <clip id="clip-5"/>
                  </angle>
                  <angle>
                    <activevideoangle>false</activevideoangle>
                    <activeaudioangle>false</activeaudioangle>
                    <clip id="clip-6"/>
                  </angle>
                  <angle>
                    <activevideoangle>false</activevideoangle>
                    <activeaudioangle>false</activeaudioangle>
                    <clip id="clip-7"/>
                  </angle>
                  <masterclipid>clip-master</masterclipid>
                </multiclip>
              </clipitem>
              <clipitem id="cs-482">
                <duration>80</duration>
                <rate>
                  <ntsc>false</ntsc>
                  <timebase>25</timebase>
                </rate>
                <in>51126</in>
                <out>51205</out>
                <start>51126</start>
                <end>51205</end>
                <file id="src-3"/>
                <sourcetrack>
                  <mediatype>video</mediatype>
                  <trackindex>1</trackindex>
                </sourcetrack>
                <multiclip id="mcs-482">
                  <name>MCS-482</name>
                  <masterclipid>clip-master</masterclipid>
                  <collapsed>false</collapsed>
                  <angle>
                    <activevideoangle>false</activevideoangle>
                    <activeaudioangle>false</activeaudioangle>
                    <clip id="clip-1"/>
                  </angle>
                  <angle>
                    <activevideoangle>false</activevideoangle>
                    <activeaudioangle>false</activeaudioangle>
                    <clip id="clip-2"/>
                  </angle>
                  <angle>
                    <activevideoangle>true</activevideoangle>
                    <activeaudioangle>true</activeaudioangle>
                    <clip id="clip-3"/>
                  </angle>
                  <angle>
                    <activevideoangle>false</activevideoangle>
                    <activeaudioangle>false</activeaudioangle>
                    <clip id="clip-4"/>
                  </angle>
                  <angle>
                    <activevideoangle>false</activevideoangle>
                    <activeaudioangle>false</activeaudioangle>
                    <clip id="clip-5"/>
                  </angle>
                  <angle>
                    <activevideoangle>false</activevideoangle>
                    <activeaudioangle>false</activeaudioangle>
                    <clip id="clip-6"/>
                  </angle>
                  <angle>
                    <activevideoangle>false</activevideoangle>
                    <activeaudioangle>false</activeaudioangle>
                    <clip id="clip-7"/>
                  </angle>
                  <masterclipid>clip-master</masterclipid>
                </multiclip>
              </clipitem>
              <clipitem id="cs-483">
                <duration>100</duration>
                <rate>
                  <ntsc>false</ntsc>
                  <timebase>25</timebase>
                </rate>
                <in>51205</in>
                <out>51304</out>
                <start>51205</start>
                <end>51304</end>
                <file id="src-4"/>
                <sourcetrack>
                  <mediatype>video</mediatype>
                  <trackindex>1</trackindex>
                </sourcetrack>
                <multiclip id="mcs-483">
                  <name>MCS-483</name>
                  <masterclipid>clip-master</masterclipid>
                  <collapsed>false</collapsed>
                  <angle>
                    <activevideoangle>false</activevideoangle>
                    <activeaudioangle>false</activeaudioangle>
                    <clip id="clip-1"/>
                  </angle>
                  <angle>
                    <activevideoangle>false</activevideoangle>
                    <activeaudioangle>false</activeaudioangle>
                    <clip id="clip-2"/>
                  </angle>
                  <angle>
                    <activevideoangle>false</activevideoangle>
                    <activeaudioangle>false</activeaudioangle>
                    <clip id="clip-3"/>
                  </angle>
                  <angle>
                    <activevideoangle>true</activevideoangle>
                    <activeaudioangle>true</activeaudioangle>
                    <clip id="clip-4"/>
                  </angle>
                  <angle>
                    <activevideoangle>false</activevideoangle>
                    <activeaudioangle>false</activeaudioangle>
                    <clip id="clip-5"/>
                  </angle>
                  <angle>
                    <activevideoangle>false</activevideoangle>
                    <activeaudioangle>false</activeaudioangle>
                    <clip id="clip-6"/>
                  </angle>
                  <angle>
                    <activevideoangle>false</activevideoangle>
                    <activeaudioangle>false</activeaudioangle>
                    <clip id="clip-7"/>
                  </angle>
                  <masterclipid>clip-master</masterclipid>
                </multiclip>
              </clipitem>
              <clipitem id="cs-484">
                <duration>84</duration>
                <rate>
                  <ntsc>false</ntsc>
                  <timebase>25</timebase>
                </rate>
                <in>51304</in>
                <out>51387</out>
                <start>51304</start>
                <end>51387</end>
                <file id="src-2"/>
                <sourcetrack>
                  <mediatype>video</mediatype>
                  <trackindex>1</trackindex>
                </sourcetrack>
                <multiclip id="mcs-484">
                  <name>MCS-484</name>
                  <masterclipid>clip-master</masterclipid>
                  <collapsed>false</collapsed>
                  <angle>
                    <activevideoangle>false</activevideoangle>
                    <activeaudioangle>false</activeaudioangle>
                    <clip id="clip-1"/>
                  </angle>
                  <angle>
                    <activevideoangle>true</activevideoangle>
                    <activeaudioangle>true</activeaudioangle>
                    <clip id="clip-2"/>
                  </angle>
                  <angle>
                    <activevideoangle>false</activevideoangle>
                    <activeaudioangle>false</activeaudioangle>
                    <clip id="clip-3"/>
                  </angle>
                  <angle>
                    <activevideoangle>false</activevideoangle>
                    <activeaudioangle>false</activeaudioangle>
                    <clip id="clip-4"/>
                  </angle>
                  <angle>
                    <activevideoangle>false</activevideoangle>
                    <activeaudioangle>false</activeaudioangle>
                    <clip id="clip-5"/>
                  </angle>
                  <angle>
                    <activevideoangle>false</activevideoangle>
                    <activeaudioangle>false</activeaudioangle>
                    <clip id="clip-6"/>
                  </angle>
                  <angle>
                    <activevideoangle>false</activevideoangle>
                    <activeaudioangle>false</activeaudioangle>
                    <clip id="clip-7"/>
                  </angle>
                  <masterclipid>clip-master</masterclipid>
                </multiclip>
              </clipitem>
              <clipitem id="cs-485">
                <duration>102</duration>
                <rate>
                  <ntsc>false</ntsc>
                  <timebase>25</timebase>
                </rate>
                <in>51387</in>
                <out>51488</out>
                <start>51387</start>
                <end>51488</end>
                <file id="src-3"/>
                <sourcetrack>
                  <mediatype>video</mediatype>
                  <trackindex>1</trackindex>
                </sourcetrack>
                <multiclip id="mcs-485">
                  <name>MCS-485</name>
                  <masterclipid>clip-master</masterclipid>
                  <collapsed>false</collapsed>
                  <angle>
                    <activevideoangle>false</activevideoangle>
                    <activeaudioangle>false</activeaudioangle>
                    <clip id="clip-1"/>
                  </angle>
                  <angle>
                    <activevideoangle>false</activevideoangle>
                    <activeaudioangle>false</activeaudioangle>
                    <clip id="clip-2"/>
                  </angle>
                  <angle>
                    <activevideoangle>true</activevideoangle>
                    <activeaudioangle>true</activeaudioangle>
                    <clip id="clip-3"/>
                  </angle>
                  <angle>
                    <activevideoangle>false</activevideoangle>
                    <activeaudioangle>false</activeaudioangle>
                    <clip id="clip-4"/>
                  </angle>
                  <angle>
                    <activevideoangle>false</activevideoangle>
                    <activeaudioangle>false</activeaudioangle>
                    <clip id="clip-5"/>
                  </angle>
                  <angle>
                    <activevideoangle>false</activevideoangle>
                    <activeaudioangle>false</activeaudioangle>
                    <clip id="clip-6"/>
                  </angle>
                  <angle>
                    <activevideoangle>false</activevideoangle>
                    <activeaudioangle>false</activeaudioangle>
                    <clip id="clip-7"/>
                  </angle>
                  <masterclipid>clip-master</masterclipid>
                </multiclip>
              </clipitem>
              <clipitem id="cs-486">
                <duration>72</duration>
                <rate>
                  <ntsc>false</ntsc>
                  <timebase>25</timebase>
                </rate>
                <in>51488</in>
                <out>51559</out>
                <start>51488</start>
                <end>51559</end>
                <file id="src-4"/>
                <sourcetrack>
                  <mediatype>video</mediatype>
                  <trackindex>1</trackindex>
                </sourcetrack>
                <multiclip id="mcs-486">
                  <name>MCS-486</name>
                  <masterclipid>clip-master</masterclipid>
                  <collapsed>false</collapsed>
                  <angle>
                    <activevideoangle>false</activevideoangle>
                    <activeaudioangle>false</activeaudioangle>
                    <clip id="clip-1"/>
                  </angle>
                  <angle>
                    <activevideoangle>false</activevideoangle>
                    <activeaudioangle>false</activeaudioangle>
                    <clip id="clip-2"/>
                  </angle>
                  <angle>
                    <activevideoangle>false</activevideoangle>
                    <activeaudioangle>false</activeaudioangle>
                    <clip id="clip-3"/>
                  </angle>
                  <angle>
                    <activevideoangle>true</activevideoangle>
                    <activeaudioangle>true</activeaudioangle>
                    <clip id="clip-4"/>
                  </angle>
                  <angle>
                    <activevideoangle>false</activevideoangle>
                    <activeaudioangle>false</activeaudioangle>
                    <clip id="clip-5"/>
                  </angle>
                  <angle>
                    <activevideoangle>false</activevideoangle>
                    <activeaudioangle>false</activeaudioangle>
                    <clip id="clip-6"/>
                  </angle>
                  <angle>
                    <activevideoangle>false</activevideoangle>
                    <activeaudioangle>false</activeaudioangle>
                    <clip id="clip-7"/>
                  </angle>
                  <masterclipid>clip-master</masterclipid>
                </multiclip>
              </clipitem>
              <clipitem id="cs-487">
                <duration>80</duration>
                <rate>
                  <ntsc>false</ntsc>
                  <timebase>25</timebase>
                </rate>
                <in>51559</in>
                <out>51638</out>
                <start>51559</start>
                <end>51638</end>
                <file id="src-2"/>
                <sourcetrack>
                  <mediatype>video</mediatype>
                  <trackindex>1</trackindex>
                </sourcetrack>
                <multiclip id="mcs-487">
                  <name>MCS-487</name>
                  <masterclipid>clip-master</masterclipid>
                  <collapsed>false</collapsed>
                  <angle>
                    <activevideoangle>false</activevideoangle>
                    <activeaudioangle>false</activeaudioangle>
                    <clip id="clip-1"/>
                  </angle>
                  <angle>
                    <activevideoangle>true</activevideoangle>
                    <activeaudioangle>true</activeaudioangle>
                    <clip id="clip-2"/>
                  </angle>
                  <angle>
                    <activevideoangle>false</activevideoangle>
                    <activeaudioangle>false</activeaudioangle>
                    <clip id="clip-3"/>
                  </angle>
                  <angle>
                    <activevideoangle>false</activevideoangle>
                    <activeaudioangle>false</activeaudioangle>
                    <clip id="clip-4"/>
                  </angle>
                  <angle>
                    <activevideoangle>false</activevideoangle>
                    <activeaudioangle>false</activeaudioangle>
                    <clip id="clip-5"/>
                  </angle>
                  <angle>
                    <activevideoangle>false</activevideoangle>
                    <activeaudioangle>false</activeaudioangle>
                    <clip id="clip-6"/>
                  </angle>
                  <angle>
                    <activevideoangle>false</activevideoangle>
                    <activeaudioangle>false</activeaudioangle>
                    <clip id="clip-7"/>
                  </angle>
                  <masterclipid>clip-master</masterclipid>
                </multiclip>
              </clipitem>
              <clipitem id="cs-488">
                <duration>48</duration>
                <rate>
                  <ntsc>false</ntsc>
                  <timebase>25</timebase>
                </rate>
                <in>51638</in>
                <out>51685</out>
                <start>51638</start>
                <end>51685</end>
                <file id="src-4"/>
                <sourcetrack>
                  <mediatype>video</mediatype>
                  <trackindex>1</trackindex>
                </sourcetrack>
                <multiclip id="mcs-488">
                  <name>MCS-488</name>
                  <masterclipid>clip-master</masterclipid>
                  <collapsed>false</collapsed>
                  <angle>
                    <activevideoangle>false</activevideoangle>
                    <activeaudioangle>false</activeaudioangle>
                    <clip id="clip-1"/>
                  </angle>
                  <angle>
                    <activevideoangle>false</activevideoangle>
                    <activeaudioangle>false</activeaudioangle>
                    <clip id="clip-2"/>
                  </angle>
                  <angle>
                    <activevideoangle>false</activevideoangle>
                    <activeaudioangle>false</activeaudioangle>
                    <clip id="clip-3"/>
                  </angle>
                  <angle>
                    <activevideoangle>true</activevideoangle>
                    <activeaudioangle>true</activeaudioangle>
                    <clip id="clip-4"/>
                  </angle>
                  <angle>
                    <activevideoangle>false</activevideoangle>
                    <activeaudioangle>false</activeaudioangle>
                    <clip id="clip-5"/>
                  </angle>
                  <angle>
                    <activevideoangle>false</activevideoangle>
                    <activeaudioangle>false</activeaudioangle>
                    <clip id="clip-6"/>
                  </angle>
                  <angle>
                    <activevideoangle>false</activevideoangle>
                    <activeaudioangle>false</activeaudioangle>
                    <clip id="clip-7"/>
                  </angle>
                  <masterclipid>clip-master</masterclipid>
                </multiclip>
              </clipitem>
              <clipitem id="cs-489">
                <duration>56</duration>
                <rate>
                  <ntsc>false</ntsc>
                  <timebase>25</timebase>
                </rate>
                <in>51685</in>
                <out>51740</out>
                <start>51685</start>
                <end>51740</end>
                <file id="src-1"/>
                <sourcetrack>
                  <mediatype>video</mediatype>
                  <trackindex>1</trackindex>
                </sourcetrack>
                <multiclip id="mcs-489">
                  <name>MCS-489</name>
                  <masterclipid>clip-master</masterclipid>
                  <collapsed>false</collapsed>
                  <angle>
                    <activevideoangle>true</activevideoangle>
                    <activeaudioangle>true</activeaudioangle>
                    <clip id="clip-1"/>
                  </angle>
                  <angle>
                    <activevideoangle>false</activevideoangle>
                    <activeaudioangle>false</activeaudioangle>
                    <clip id="clip-2"/>
                  </angle>
                  <angle>
                    <activevideoangle>false</activevideoangle>
                    <activeaudioangle>false</activeaudioangle>
                    <clip id="clip-3"/>
                  </angle>
                  <angle>
                    <activevideoangle>false</activevideoangle>
                    <activeaudioangle>false</activeaudioangle>
                    <clip id="clip-4"/>
                  </angle>
                  <angle>
                    <activevideoangle>false</activevideoangle>
                    <activeaudioangle>false</activeaudioangle>
                    <clip id="clip-5"/>
                  </angle>
                  <angle>
                    <activevideoangle>false</activevideoangle>
                    <activeaudioangle>false</activeaudioangle>
                    <clip id="clip-6"/>
                  </angle>
                  <angle>
                    <activevideoangle>false</activevideoangle>
                    <activeaudioangle>false</activeaudioangle>
                    <clip id="clip-7"/>
                  </angle>
                  <masterclipid>clip-master</masterclipid>
                </multiclip>
              </clipitem>
              <clipitem id="cs-490">
                <duration>279</duration>
                <rate>
                  <ntsc>false</ntsc>
                  <timebase>25</timebase>
                </rate>
                <in>51740</in>
                <out>52018</out>
                <start>51740</start>
                <end>52018</end>
                <file id="src-2"/>
                <sourcetrack>
                  <mediatype>video</mediatype>
                  <trackindex>1</trackindex>
                </sourcetrack>
                <multiclip id="mcs-490">
                  <name>MCS-490</name>
                  <masterclipid>clip-master</masterclipid>
                  <collapsed>false</collapsed>
                  <angle>
                    <activevideoangle>false</activevideoangle>
                    <activeaudioangle>false</activeaudioangle>
                    <clip id="clip-1"/>
                  </angle>
                  <angle>
                    <activevideoangle>true</activevideoangle>
                    <activeaudioangle>true</activeaudioangle>
                    <clip id="clip-2"/>
                  </angle>
                  <angle>
                    <activevideoangle>false</activevideoangle>
                    <activeaudioangle>false</activeaudioangle>
                    <clip id="clip-3"/>
                  </angle>
                  <angle>
                    <activevideoangle>false</activevideoangle>
                    <activeaudioangle>false</activeaudioangle>
                    <clip id="clip-4"/>
                  </angle>
                  <angle>
                    <activevideoangle>false</activevideoangle>
                    <activeaudioangle>false</activeaudioangle>
                    <clip id="clip-5"/>
                  </angle>
                  <angle>
                    <activevideoangle>false</activevideoangle>
                    <activeaudioangle>false</activeaudioangle>
                    <clip id="clip-6"/>
                  </angle>
                  <angle>
                    <activevideoangle>false</activevideoangle>
                    <activeaudioangle>false</activeaudioangle>
                    <clip id="clip-7"/>
                  </angle>
                  <masterclipid>clip-master</masterclipid>
                </multiclip>
              </clipitem>
              <clipitem id="cs-491">
                <duration>80</duration>
                <rate>
                  <ntsc>false</ntsc>
                  <timebase>25</timebase>
                </rate>
                <in>52018</in>
                <out>52097</out>
                <start>52018</start>
                <end>52097</end>
                <file id="src-3"/>
                <sourcetrack>
                  <mediatype>video</mediatype>
                  <trackindex>1</trackindex>
                </sourcetrack>
                <multiclip id="mcs-491">
                  <name>MCS-491</name>
                  <masterclipid>clip-master</masterclipid>
                  <collapsed>false</collapsed>
                  <angle>
                    <activevideoangle>false</activevideoangle>
                    <activeaudioangle>false</activeaudioangle>
                    <clip id="clip-1"/>
                  </angle>
                  <angle>
                    <activevideoangle>false</activevideoangle>
                    <activeaudioangle>false</activeaudioangle>
                    <clip id="clip-2"/>
                  </angle>
                  <angle>
                    <activevideoangle>true</activevideoangle>
                    <activeaudioangle>true</activeaudioangle>
                    <clip id="clip-3"/>
                  </angle>
                  <angle>
                    <activevideoangle>false</activevideoangle>
                    <activeaudioangle>false</activeaudioangle>
                    <clip id="clip-4"/>
                  </angle>
                  <angle>
                    <activevideoangle>false</activevideoangle>
                    <activeaudioangle>false</activeaudioangle>
                    <clip id="clip-5"/>
                  </angle>
                  <angle>
                    <activevideoangle>false</activevideoangle>
                    <activeaudioangle>false</activeaudioangle>
                    <clip id="clip-6"/>
                  </angle>
                  <angle>
                    <activevideoangle>false</activevideoangle>
                    <activeaudioangle>false</activeaudioangle>
                    <clip id="clip-7"/>
                  </angle>
                  <masterclipid>clip-master</masterclipid>
                </multiclip>
              </clipitem>
              <clipitem id="cs-492">
                <duration>72</duration>
                <rate>
                  <ntsc>false</ntsc>
                  <timebase>25</timebase>
                </rate>
                <in>52097</in>
                <out>52168</out>
                <start>52097</start>
                <end>52168</end>
                <file id="src-4"/>
                <sourcetrack>
                  <mediatype>video</mediatype>
                  <trackindex>1</trackindex>
                </sourcetrack>
                <multiclip id="mcs-492">
                  <name>MCS-492</name>
                  <masterclipid>clip-master</masterclipid>
                  <collapsed>false</collapsed>
                  <angle>
                    <activevideoangle>false</activevideoangle>
                    <activeaudioangle>false</activeaudioangle>
                    <clip id="clip-1"/>
                  </angle>
                  <angle>
                    <activevideoangle>false</activevideoangle>
                    <activeaudioangle>false</activeaudioangle>
                    <clip id="clip-2"/>
                  </angle>
                  <angle>
                    <activevideoangle>false</activevideoangle>
                    <activeaudioangle>false</activeaudioangle>
                    <clip id="clip-3"/>
                  </angle>
                  <angle>
                    <activevideoangle>true</activevideoangle>
                    <activeaudioangle>true</activeaudioangle>
                    <clip id="clip-4"/>
                  </angle>
                  <angle>
                    <activevideoangle>false</activevideoangle>
                    <activeaudioangle>false</activeaudioangle>
                    <clip id="clip-5"/>
                  </angle>
                  <angle>
                    <activevideoangle>false</activevideoangle>
                    <activeaudioangle>false</activeaudioangle>
                    <clip id="clip-6"/>
                  </angle>
                  <angle>
                    <activevideoangle>false</activevideoangle>
                    <activeaudioangle>false</activeaudioangle>
                    <clip id="clip-7"/>
                  </angle>
                  <masterclipid>clip-master</masterclipid>
                </multiclip>
              </clipitem>
              <clipitem id="cs-493">
                <duration>67</duration>
                <rate>
                  <ntsc>false</ntsc>
                  <timebase>25</timebase>
                </rate>
                <in>52168</in>
                <out>52234</out>
                <start>52168</start>
                <end>52234</end>
                <file id="src-3"/>
                <sourcetrack>
                  <mediatype>video</mediatype>
                  <trackindex>1</trackindex>
                </sourcetrack>
                <multiclip id="mcs-493">
                  <name>MCS-493</name>
                  <masterclipid>clip-master</masterclipid>
                  <collapsed>false</collapsed>
                  <angle>
                    <activevideoangle>false</activevideoangle>
                    <activeaudioangle>false</activeaudioangle>
                    <clip id="clip-1"/>
                  </angle>
                  <angle>
                    <activevideoangle>false</activevideoangle>
                    <activeaudioangle>false</activeaudioangle>
                    <clip id="clip-2"/>
                  </angle>
                  <angle>
                    <activevideoangle>true</activevideoangle>
                    <activeaudioangle>true</activeaudioangle>
                    <clip id="clip-3"/>
                  </angle>
                  <angle>
                    <activevideoangle>false</activevideoangle>
                    <activeaudioangle>false</activeaudioangle>
                    <clip id="clip-4"/>
                  </angle>
                  <angle>
                    <activevideoangle>false</activevideoangle>
                    <activeaudioangle>false</activeaudioangle>
                    <clip id="clip-5"/>
                  </angle>
                  <angle>
                    <activevideoangle>false</activevideoangle>
                    <activeaudioangle>false</activeaudioangle>
                    <clip id="clip-6"/>
                  </angle>
                  <angle>
                    <activevideoangle>false</activevideoangle>
                    <activeaudioangle>false</activeaudioangle>
                    <clip id="clip-7"/>
                  </angle>
                  <masterclipid>clip-master</masterclipid>
                </multiclip>
              </clipitem>
              <clipitem id="cs-494">
                <duration>33</duration>
                <rate>
                  <ntsc>false</ntsc>
                  <timebase>25</timebase>
                </rate>
                <in>52234</in>
                <out>52266</out>
                <start>52234</start>
                <end>52266</end>
                <file id="src-6"/>
                <sourcetrack>
                  <mediatype>video</mediatype>
                  <trackindex>1</trackindex>
                </sourcetrack>
                <multiclip id="mcs-494">
                  <name>MCS-494</name>
                  <masterclipid>clip-master</masterclipid>
                  <collapsed>false</collapsed>
                  <angle>
                    <activevideoangle>false</activevideoangle>
                    <activeaudioangle>false</activeaudioangle>
                    <clip id="clip-1"/>
                  </angle>
                  <angle>
                    <activevideoangle>false</activevideoangle>
                    <activeaudioangle>false</activeaudioangle>
                    <clip id="clip-2"/>
                  </angle>
                  <angle>
                    <activevideoangle>false</activevideoangle>
                    <activeaudioangle>false</activeaudioangle>
                    <clip id="clip-3"/>
                  </angle>
                  <angle>
                    <activevideoangle>false</activevideoangle>
                    <activeaudioangle>false</activeaudioangle>
                    <clip id="clip-4"/>
                  </angle>
                  <angle>
                    <activevideoangle>false</activevideoangle>
                    <activeaudioangle>false</activeaudioangle>
                    <clip id="clip-5"/>
                  </angle>
                  <angle>
                    <activevideoangle>true</activevideoangle>
                    <activeaudioangle>true</activeaudioangle>
                    <clip id="clip-6"/>
                  </angle>
                  <angle>
                    <activevideoangle>false</activevideoangle>
                    <activeaudioangle>false</activeaudioangle>
                    <clip id="clip-7"/>
                  </angle>
                  <masterclipid>clip-master</masterclipid>
                </multiclip>
              </clipitem>
              <clipitem id="cs-495">
                <duration>110</duration>
                <rate>
                  <ntsc>false</ntsc>
                  <timebase>25</timebase>
                </rate>
                <in>52266</in>
                <out>52375</out>
                <start>52266</start>
                <end>52375</end>
                <file id="src-1"/>
                <sourcetrack>
                  <mediatype>video</mediatype>
                  <trackindex>1</trackindex>
                </sourcetrack>
                <multiclip id="mcs-495">
                  <name>MCS-495</name>
                  <masterclipid>clip-master</masterclipid>
                  <collapsed>false</collapsed>
                  <angle>
                    <activevideoangle>true</activevideoangle>
                    <activeaudioangle>true</activeaudioangle>
                    <clip id="clip-1"/>
                  </angle>
                  <angle>
                    <activevideoangle>false</activevideoangle>
                    <activeaudioangle>false</activeaudioangle>
                    <clip id="clip-2"/>
                  </angle>
                  <angle>
                    <activevideoangle>false</activevideoangle>
                    <activeaudioangle>false</activeaudioangle>
                    <clip id="clip-3"/>
                  </angle>
                  <angle>
                    <activevideoangle>false</activevideoangle>
                    <activeaudioangle>false</activeaudioangle>
                    <clip id="clip-4"/>
                  </angle>
                  <angle>
                    <activevideoangle>false</activevideoangle>
                    <activeaudioangle>false</activeaudioangle>
                    <clip id="clip-5"/>
                  </angle>
                  <angle>
                    <activevideoangle>false</activevideoangle>
                    <activeaudioangle>false</activeaudioangle>
                    <clip id="clip-6"/>
                  </angle>
                  <angle>
                    <activevideoangle>false</activevideoangle>
                    <activeaudioangle>false</activeaudioangle>
                    <clip id="clip-7"/>
                  </angle>
                  <masterclipid>clip-master</masterclipid>
                </multiclip>
              </clipitem>
              <clipitem id="cs-496">
                <duration>130</duration>
                <rate>
                  <ntsc>false</ntsc>
                  <timebase>25</timebase>
                </rate>
                <in>52375</in>
                <out>52504</out>
                <start>52375</start>
                <end>52504</end>
                <file id="src-3"/>
                <sourcetrack>
                  <mediatype>video</mediatype>
                  <trackindex>1</trackindex>
                </sourcetrack>
                <multiclip id="mcs-496">
                  <name>MCS-496</name>
                  <masterclipid>clip-master</masterclipid>
                  <collapsed>false</collapsed>
                  <angle>
                    <activevideoangle>false</activevideoangle>
                    <activeaudioangle>false</activeaudioangle>
                    <clip id="clip-1"/>
                  </angle>
                  <angle>
                    <activevideoangle>false</activevideoangle>
                    <activeaudioangle>false</activeaudioangle>
                    <clip id="clip-2"/>
                  </angle>
                  <angle>
                    <activevideoangle>true</activevideoangle>
                    <activeaudioangle>true</activeaudioangle>
                    <clip id="clip-3"/>
                  </angle>
                  <angle>
                    <activevideoangle>false</activevideoangle>
                    <activeaudioangle>false</activeaudioangle>
                    <clip id="clip-4"/>
                  </angle>
                  <angle>
                    <activevideoangle>false</activevideoangle>
                    <activeaudioangle>false</activeaudioangle>
                    <clip id="clip-5"/>
                  </angle>
                  <angle>
                    <activevideoangle>false</activevideoangle>
                    <activeaudioangle>false</activeaudioangle>
                    <clip id="clip-6"/>
                  </angle>
                  <angle>
                    <activevideoangle>false</activevideoangle>
                    <activeaudioangle>false</activeaudioangle>
                    <clip id="clip-7"/>
                  </angle>
                  <masterclipid>clip-master</masterclipid>
                </multiclip>
              </clipitem>
              <clipitem id="cs-497">
                <duration>104</duration>
                <rate>
                  <ntsc>false</ntsc>
                  <timebase>25</timebase>
                </rate>
                <in>52504</in>
                <out>52607</out>
                <start>52504</start>
                <end>52607</end>
                <file id="src-2"/>
                <sourcetrack>
                  <mediatype>video</mediatype>
                  <trackindex>1</trackindex>
                </sourcetrack>
                <multiclip id="mcs-497">
                  <name>MCS-497</name>
                  <masterclipid>clip-master</masterclipid>
                  <collapsed>false</collapsed>
                  <angle>
                    <activevideoangle>false</activevideoangle>
                    <activeaudioangle>false</activeaudioangle>
                    <clip id="clip-1"/>
                  </angle>
                  <angle>
                    <activevideoangle>true</activevideoangle>
                    <activeaudioangle>true</activeaudioangle>
                    <clip id="clip-2"/>
                  </angle>
                  <angle>
                    <activevideoangle>false</activevideoangle>
                    <activeaudioangle>false</activeaudioangle>
                    <clip id="clip-3"/>
                  </angle>
                  <angle>
                    <activevideoangle>false</activevideoangle>
                    <activeaudioangle>false</activeaudioangle>
                    <clip id="clip-4"/>
                  </angle>
                  <angle>
                    <activevideoangle>false</activevideoangle>
                    <activeaudioangle>false</activeaudioangle>
                    <clip id="clip-5"/>
                  </angle>
                  <angle>
                    <activevideoangle>false</activevideoangle>
                    <activeaudioangle>false</activeaudioangle>
                    <clip id="clip-6"/>
                  </angle>
                  <angle>
                    <activevideoangle>false</activevideoangle>
                    <activeaudioangle>false</activeaudioangle>
                    <clip id="clip-7"/>
                  </angle>
                  <masterclipid>clip-master</masterclipid>
                </multiclip>
              </clipitem>
              <clipitem id="cs-498">
                <duration>126</duration>
                <rate>
                  <ntsc>false</ntsc>
                  <timebase>25</timebase>
                </rate>
                <in>52607</in>
                <out>52732</out>
                <start>52607</start>
                <end>52732</end>
                <file id="src-3"/>
                <sourcetrack>
                  <mediatype>video</mediatype>
                  <trackindex>1</trackindex>
                </sourcetrack>
                <multiclip id="mcs-498">
                  <name>MCS-498</name>
                  <masterclipid>clip-master</masterclipid>
                  <collapsed>false</collapsed>
                  <angle>
                    <activevideoangle>false</activevideoangle>
                    <activeaudioangle>false</activeaudioangle>
                    <clip id="clip-1"/>
                  </angle>
                  <angle>
                    <activevideoangle>false</activevideoangle>
                    <activeaudioangle>false</activeaudioangle>
                    <clip id="clip-2"/>
                  </angle>
                  <angle>
                    <activevideoangle>true</activevideoangle>
                    <activeaudioangle>true</activeaudioangle>
                    <clip id="clip-3"/>
                  </angle>
                  <angle>
                    <activevideoangle>false</activevideoangle>
                    <activeaudioangle>false</activeaudioangle>
                    <clip id="clip-4"/>
                  </angle>
                  <angle>
                    <activevideoangle>false</activevideoangle>
                    <activeaudioangle>false</activeaudioangle>
                    <clip id="clip-5"/>
                  </angle>
                  <angle>
                    <activevideoangle>false</activevideoangle>
                    <activeaudioangle>false</activeaudioangle>
                    <clip id="clip-6"/>
                  </angle>
                  <angle>
                    <activevideoangle>false</activevideoangle>
                    <activeaudioangle>false</activeaudioangle>
                    <clip id="clip-7"/>
                  </angle>
                  <masterclipid>clip-master</masterclipid>
                </multiclip>
              </clipitem>
              <clipitem id="cs-499">
                <duration>115</duration>
                <rate>
                  <ntsc>false</ntsc>
                  <timebase>25</timebase>
                </rate>
                <in>52732</in>
                <out>52846</out>
                <start>52732</start>
                <end>52846</end>
                <file id="src-4"/>
                <sourcetrack>
                  <mediatype>video</mediatype>
                  <trackindex>1</trackindex>
                </sourcetrack>
                <multiclip id="mcs-499">
                  <name>MCS-499</name>
                  <masterclipid>clip-master</masterclipid>
                  <collapsed>false</collapsed>
                  <angle>
                    <activevideoangle>false</activevideoangle>
                    <activeaudioangle>false</activeaudioangle>
                    <clip id="clip-1"/>
                  </angle>
                  <angle>
                    <activevideoangle>false</activevideoangle>
                    <activeaudioangle>false</activeaudioangle>
                    <clip id="clip-2"/>
                  </angle>
                  <angle>
                    <activevideoangle>false</activevideoangle>
                    <activeaudioangle>false</activeaudioangle>
                    <clip id="clip-3"/>
                  </angle>
                  <angle>
                    <activevideoangle>true</activevideoangle>
                    <activeaudioangle>true</activeaudioangle>
                    <clip id="clip-4"/>
                  </angle>
                  <angle>
                    <activevideoangle>false</activevideoangle>
                    <activeaudioangle>false</activeaudioangle>
                    <clip id="clip-5"/>
                  </angle>
                  <angle>
                    <activevideoangle>false</activevideoangle>
                    <activeaudioangle>false</activeaudioangle>
                    <clip id="clip-6"/>
                  </angle>
                  <angle>
                    <activevideoangle>false</activevideoangle>
                    <activeaudioangle>false</activeaudioangle>
                    <clip id="clip-7"/>
                  </angle>
                  <masterclipid>clip-master</masterclipid>
                </multiclip>
              </clipitem>
              <clipitem id="cs-500">
                <duration>238</duration>
                <rate>
                  <ntsc>false</ntsc>
                  <timebase>25</timebase>
                </rate>
                <in>52846</in>
                <out>53083</out>
                <start>52846</start>
                <end>53083</end>
                <file id="src-2"/>
                <sourcetrack>
                  <mediatype>video</mediatype>
                  <trackindex>1</trackindex>
                </sourcetrack>
                <multiclip id="mcs-500">
                  <name>MCS-500</name>
                  <masterclipid>clip-master</masterclipid>
                  <collapsed>false</collapsed>
                  <angle>
                    <activevideoangle>false</activevideoangle>
                    <activeaudioangle>false</activeaudioangle>
                    <clip id="clip-1"/>
                  </angle>
                  <angle>
                    <activevideoangle>true</activevideoangle>
                    <activeaudioangle>true</activeaudioangle>
                    <clip id="clip-2"/>
                  </angle>
                  <angle>
                    <activevideoangle>false</activevideoangle>
                    <activeaudioangle>false</activeaudioangle>
                    <clip id="clip-3"/>
                  </angle>
                  <angle>
                    <activevideoangle>false</activevideoangle>
                    <activeaudioangle>false</activeaudioangle>
                    <clip id="clip-4"/>
                  </angle>
                  <angle>
                    <activevideoangle>false</activevideoangle>
                    <activeaudioangle>false</activeaudioangle>
                    <clip id="clip-5"/>
                  </angle>
                  <angle>
                    <activevideoangle>false</activevideoangle>
                    <activeaudioangle>false</activeaudioangle>
                    <clip id="clip-6"/>
                  </angle>
                  <angle>
                    <activevideoangle>false</activevideoangle>
                    <activeaudioangle>false</activeaudioangle>
                    <clip id="clip-7"/>
                  </angle>
                  <masterclipid>clip-master</masterclipid>
                </multiclip>
              </clipitem>
              <clipitem id="cs-501">
                <duration>109</duration>
                <rate>
                  <ntsc>false</ntsc>
                  <timebase>25</timebase>
                </rate>
                <in>53083</in>
                <out>53191</out>
                <start>53083</start>
                <end>53191</end>
                <file id="src-3"/>
                <sourcetrack>
                  <mediatype>video</mediatype>
                  <trackindex>1</trackindex>
                </sourcetrack>
                <multiclip id="mcs-501">
                  <name>MCS-501</name>
                  <masterclipid>clip-master</masterclipid>
                  <collapsed>false</collapsed>
                  <angle>
                    <activevideoangle>false</activevideoangle>
                    <activeaudioangle>false</activeaudioangle>
                    <clip id="clip-1"/>
                  </angle>
                  <angle>
                    <activevideoangle>false</activevideoangle>
                    <activeaudioangle>false</activeaudioangle>
                    <clip id="clip-2"/>
                  </angle>
                  <angle>
                    <activevideoangle>true</activevideoangle>
                    <activeaudioangle>true</activeaudioangle>
                    <clip id="clip-3"/>
                  </angle>
                  <angle>
                    <activevideoangle>false</activevideoangle>
                    <activeaudioangle>false</activeaudioangle>
                    <clip id="clip-4"/>
                  </angle>
                  <angle>
                    <activevideoangle>false</activevideoangle>
                    <activeaudioangle>false</activeaudioangle>
                    <clip id="clip-5"/>
                  </angle>
                  <angle>
                    <activevideoangle>false</activevideoangle>
                    <activeaudioangle>false</activeaudioangle>
                    <clip id="clip-6"/>
                  </angle>
                  <angle>
                    <activevideoangle>false</activevideoangle>
                    <activeaudioangle>false</activeaudioangle>
                    <clip id="clip-7"/>
                  </angle>
                  <masterclipid>clip-master</masterclipid>
                </multiclip>
              </clipitem>
              <clipitem id="cs-502">
                <duration>115</duration>
                <rate>
                  <ntsc>false</ntsc>
                  <timebase>25</timebase>
                </rate>
                <in>53191</in>
                <out>53305</out>
                <start>53191</start>
                <end>53305</end>
                <file id="src-4"/>
                <sourcetrack>
                  <mediatype>video</mediatype>
                  <trackindex>1</trackindex>
                </sourcetrack>
                <multiclip id="mcs-502">
                  <name>MCS-502</name>
                  <masterclipid>clip-master</masterclipid>
                  <collapsed>false</collapsed>
                  <angle>
                    <activevideoangle>false</activevideoangle>
                    <activeaudioangle>false</activeaudioangle>
                    <clip id="clip-1"/>
                  </angle>
                  <angle>
                    <activevideoangle>false</activevideoangle>
                    <activeaudioangle>false</activeaudioangle>
                    <clip id="clip-2"/>
                  </angle>
                  <angle>
                    <activevideoangle>false</activevideoangle>
                    <activeaudioangle>false</activeaudioangle>
                    <clip id="clip-3"/>
                  </angle>
                  <angle>
                    <activevideoangle>true</activevideoangle>
                    <activeaudioangle>true</activeaudioangle>
                    <clip id="clip-4"/>
                  </angle>
                  <angle>
                    <activevideoangle>false</activevideoangle>
                    <activeaudioangle>false</activeaudioangle>
                    <clip id="clip-5"/>
                  </angle>
                  <angle>
                    <activevideoangle>false</activevideoangle>
                    <activeaudioangle>false</activeaudioangle>
                    <clip id="clip-6"/>
                  </angle>
                  <angle>
                    <activevideoangle>false</activevideoangle>
                    <activeaudioangle>false</activeaudioangle>
                    <clip id="clip-7"/>
                  </angle>
                  <masterclipid>clip-master</masterclipid>
                </multiclip>
              </clipitem>
              <clipitem id="cs-503">
                <duration>40</duration>
                <rate>
                  <ntsc>false</ntsc>
                  <timebase>25</timebase>
                </rate>
                <in>53305</in>
                <out>53344</out>
                <start>53305</start>
                <end>53344</end>
                <file id="src-1"/>
                <sourcetrack>
                  <mediatype>video</mediatype>
                  <trackindex>1</trackindex>
                </sourcetrack>
                <multiclip id="mcs-503">
                  <name>MCS-503</name>
                  <masterclipid>clip-master</masterclipid>
                  <collapsed>false</collapsed>
                  <angle>
                    <activevideoangle>true</activevideoangle>
                    <activeaudioangle>true</activeaudioangle>
                    <clip id="clip-1"/>
                  </angle>
                  <angle>
                    <activevideoangle>false</activevideoangle>
                    <activeaudioangle>false</activeaudioangle>
                    <clip id="clip-2"/>
                  </angle>
                  <angle>
                    <activevideoangle>false</activevideoangle>
                    <activeaudioangle>false</activeaudioangle>
                    <clip id="clip-3"/>
                  </angle>
                  <angle>
                    <activevideoangle>false</activevideoangle>
                    <activeaudioangle>false</activeaudioangle>
                    <clip id="clip-4"/>
                  </angle>
                  <angle>
                    <activevideoangle>false</activevideoangle>
                    <activeaudioangle>false</activeaudioangle>
                    <clip id="clip-5"/>
                  </angle>
                  <angle>
                    <activevideoangle>false</activevideoangle>
                    <activeaudioangle>false</activeaudioangle>
                    <clip id="clip-6"/>
                  </angle>
                  <angle>
                    <activevideoangle>false</activevideoangle>
                    <activeaudioangle>false</activeaudioangle>
                    <clip id="clip-7"/>
                  </angle>
                  <masterclipid>clip-master</masterclipid>
                </multiclip>
              </clipitem>
              <clipitem id="cs-504">
                <duration>70</duration>
                <rate>
                  <ntsc>false</ntsc>
                  <timebase>25</timebase>
                </rate>
                <in>53344</in>
                <out>53413</out>
                <start>53344</start>
                <end>53413</end>
                <file id="src-2"/>
                <sourcetrack>
                  <mediatype>video</mediatype>
                  <trackindex>1</trackindex>
                </sourcetrack>
                <multiclip id="mcs-504">
                  <name>MCS-504</name>
                  <masterclipid>clip-master</masterclipid>
                  <collapsed>false</collapsed>
                  <angle>
                    <activevideoangle>false</activevideoangle>
                    <activeaudioangle>false</activeaudioangle>
                    <clip id="clip-1"/>
                  </angle>
                  <angle>
                    <activevideoangle>true</activevideoangle>
                    <activeaudioangle>true</activeaudioangle>
                    <clip id="clip-2"/>
                  </angle>
                  <angle>
                    <activevideoangle>false</activevideoangle>
                    <activeaudioangle>false</activeaudioangle>
                    <clip id="clip-3"/>
                  </angle>
                  <angle>
                    <activevideoangle>false</activevideoangle>
                    <activeaudioangle>false</activeaudioangle>
                    <clip id="clip-4"/>
                  </angle>
                  <angle>
                    <activevideoangle>false</activevideoangle>
                    <activeaudioangle>false</activeaudioangle>
                    <clip id="clip-5"/>
                  </angle>
                  <angle>
                    <activevideoangle>false</activevideoangle>
                    <activeaudioangle>false</activeaudioangle>
                    <clip id="clip-6"/>
                  </angle>
                  <angle>
                    <activevideoangle>false</activevideoangle>
                    <activeaudioangle>false</activeaudioangle>
                    <clip id="clip-7"/>
                  </angle>
                  <masterclipid>clip-master</masterclipid>
                </multiclip>
              </clipitem>
              <clipitem id="cs-505">
                <duration>171</duration>
                <rate>
                  <ntsc>false</ntsc>
                  <timebase>25</timebase>
                </rate>
                <in>53413</in>
                <out>53583</out>
                <start>53413</start>
                <end>53583</end>
                <file id="src-3"/>
                <sourcetrack>
                  <mediatype>video</mediatype>
                  <trackindex>1</trackindex>
                </sourcetrack>
                <multiclip id="mcs-505">
                  <name>MCS-505</name>
                  <masterclipid>clip-master</masterclipid>
                  <collapsed>false</collapsed>
                  <angle>
                    <activevideoangle>false</activevideoangle>
                    <activeaudioangle>false</activeaudioangle>
                    <clip id="clip-1"/>
                  </angle>
                  <angle>
                    <activevideoangle>false</activevideoangle>
                    <activeaudioangle>false</activeaudioangle>
                    <clip id="clip-2"/>
                  </angle>
                  <angle>
                    <activevideoangle>true</activevideoangle>
                    <activeaudioangle>true</activeaudioangle>
                    <clip id="clip-3"/>
                  </angle>
                  <angle>
                    <activevideoangle>false</activevideoangle>
                    <activeaudioangle>false</activeaudioangle>
                    <clip id="clip-4"/>
                  </angle>
                  <angle>
                    <activevideoangle>false</activevideoangle>
                    <activeaudioangle>false</activeaudioangle>
                    <clip id="clip-5"/>
                  </angle>
                  <angle>
                    <activevideoangle>false</activevideoangle>
                    <activeaudioangle>false</activeaudioangle>
                    <clip id="clip-6"/>
                  </angle>
                  <angle>
                    <activevideoangle>false</activevideoangle>
                    <activeaudioangle>false</activeaudioangle>
                    <clip id="clip-7"/>
                  </angle>
                  <masterclipid>clip-master</masterclipid>
                </multiclip>
              </clipitem>
              <clipitem id="cs-506">
                <duration>92</duration>
                <rate>
                  <ntsc>false</ntsc>
                  <timebase>25</timebase>
                </rate>
                <in>53583</in>
                <out>53674</out>
                <start>53583</start>
                <end>53674</end>
                <file id="src-4"/>
                <sourcetrack>
                  <mediatype>video</mediatype>
                  <trackindex>1</trackindex>
                </sourcetrack>
                <multiclip id="mcs-506">
                  <name>MCS-506</name>
                  <masterclipid>clip-master</masterclipid>
                  <collapsed>false</collapsed>
                  <angle>
                    <activevideoangle>false</activevideoangle>
                    <activeaudioangle>false</activeaudioangle>
                    <clip id="clip-1"/>
                  </angle>
                  <angle>
                    <activevideoangle>false</activevideoangle>
                    <activeaudioangle>false</activeaudioangle>
                    <clip id="clip-2"/>
                  </angle>
                  <angle>
                    <activevideoangle>false</activevideoangle>
                    <activeaudioangle>false</activeaudioangle>
                    <clip id="clip-3"/>
                  </angle>
                  <angle>
                    <activevideoangle>true</activevideoangle>
                    <activeaudioangle>true</activeaudioangle>
                    <clip id="clip-4"/>
                  </angle>
                  <angle>
                    <activevideoangle>false</activevideoangle>
                    <activeaudioangle>false</activeaudioangle>
                    <clip id="clip-5"/>
                  </angle>
                  <angle>
                    <activevideoangle>false</activevideoangle>
                    <activeaudioangle>false</activeaudioangle>
                    <clip id="clip-6"/>
                  </angle>
                  <angle>
                    <activevideoangle>false</activevideoangle>
                    <activeaudioangle>false</activeaudioangle>
                    <clip id="clip-7"/>
                  </angle>
                  <masterclipid>clip-master</masterclipid>
                </multiclip>
              </clipitem>
              <clipitem id="cs-507">
                <duration>133</duration>
                <rate>
                  <ntsc>false</ntsc>
                  <timebase>25</timebase>
                </rate>
                <in>53674</in>
                <out>53806</out>
                <start>53674</start>
                <end>53806</end>
                <file id="src-1"/>
                <sourcetrack>
                  <mediatype>video</mediatype>
                  <trackindex>1</trackindex>
                </sourcetrack>
                <multiclip id="mcs-507">
                  <name>MCS-507</name>
                  <masterclipid>clip-master</masterclipid>
                  <collapsed>false</collapsed>
                  <angle>
                    <activevideoangle>true</activevideoangle>
                    <activeaudioangle>true</activeaudioangle>
                    <clip id="clip-1"/>
                  </angle>
                  <angle>
                    <activevideoangle>false</activevideoangle>
                    <activeaudioangle>false</activeaudioangle>
                    <clip id="clip-2"/>
                  </angle>
                  <angle>
                    <activevideoangle>false</activevideoangle>
                    <activeaudioangle>false</activeaudioangle>
                    <clip id="clip-3"/>
                  </angle>
                  <angle>
                    <activevideoangle>false</activevideoangle>
                    <activeaudioangle>false</activeaudioangle>
                    <clip id="clip-4"/>
                  </angle>
                  <angle>
                    <activevideoangle>false</activevideoangle>
                    <activeaudioangle>false</activeaudioangle>
                    <clip id="clip-5"/>
                  </angle>
                  <angle>
                    <activevideoangle>false</activevideoangle>
                    <activeaudioangle>false</activeaudioangle>
                    <clip id="clip-6"/>
                  </angle>
                  <angle>
                    <activevideoangle>false</activevideoangle>
                    <activeaudioangle>false</activeaudioangle>
                    <clip id="clip-7"/>
                  </angle>
                  <masterclipid>clip-master</masterclipid>
                </multiclip>
              </clipitem>
              <clipitem id="cs-508">
                <duration>92</duration>
                <rate>
                  <ntsc>false</ntsc>
                  <timebase>25</timebase>
                </rate>
                <in>53806</in>
                <out>53897</out>
                <start>53806</start>
                <end>53897</end>
                <file id="src-2"/>
                <sourcetrack>
                  <mediatype>video</mediatype>
                  <trackindex>1</trackindex>
                </sourcetrack>
                <multiclip id="mcs-508">
                  <name>MCS-508</name>
                  <masterclipid>clip-master</masterclipid>
                  <collapsed>false</collapsed>
                  <angle>
                    <activevideoangle>false</activevideoangle>
                    <activeaudioangle>false</activeaudioangle>
                    <clip id="clip-1"/>
                  </angle>
                  <angle>
                    <activevideoangle>true</activevideoangle>
                    <activeaudioangle>true</activeaudioangle>
                    <clip id="clip-2"/>
                  </angle>
                  <angle>
                    <activevideoangle>false</activevideoangle>
                    <activeaudioangle>false</activeaudioangle>
                    <clip id="clip-3"/>
                  </angle>
                  <angle>
                    <activevideoangle>false</activevideoangle>
                    <activeaudioangle>false</activeaudioangle>
                    <clip id="clip-4"/>
                  </angle>
                  <angle>
                    <activevideoangle>false</activevideoangle>
                    <activeaudioangle>false</activeaudioangle>
                    <clip id="clip-5"/>
                  </angle>
                  <angle>
                    <activevideoangle>false</activevideoangle>
                    <activeaudioangle>false</activeaudioangle>
                    <clip id="clip-6"/>
                  </angle>
                  <angle>
                    <activevideoangle>false</activevideoangle>
                    <activeaudioangle>false</activeaudioangle>
                    <clip id="clip-7"/>
                  </angle>
                  <masterclipid>clip-master</masterclipid>
                </multiclip>
              </clipitem>
              <clipitem id="cs-509">
                <duration>89</duration>
                <rate>
                  <ntsc>false</ntsc>
                  <timebase>25</timebase>
                </rate>
                <in>53897</in>
                <out>53985</out>
                <start>53897</start>
                <end>53985</end>
                <file id="src-4"/>
                <sourcetrack>
                  <mediatype>video</mediatype>
                  <trackindex>1</trackindex>
                </sourcetrack>
                <multiclip id="mcs-509">
                  <name>MCS-509</name>
                  <masterclipid>clip-master</masterclipid>
                  <collapsed>false</collapsed>
                  <angle>
                    <activevideoangle>false</activevideoangle>
                    <activeaudioangle>false</activeaudioangle>
                    <clip id="clip-1"/>
                  </angle>
                  <angle>
                    <activevideoangle>false</activevideoangle>
                    <activeaudioangle>false</activeaudioangle>
                    <clip id="clip-2"/>
                  </angle>
                  <angle>
                    <activevideoangle>false</activevideoangle>
                    <activeaudioangle>false</activeaudioangle>
                    <clip id="clip-3"/>
                  </angle>
                  <angle>
                    <activevideoangle>true</activevideoangle>
                    <activeaudioangle>true</activeaudioangle>
                    <clip id="clip-4"/>
                  </angle>
                  <angle>
                    <activevideoangle>false</activevideoangle>
                    <activeaudioangle>false</activeaudioangle>
                    <clip id="clip-5"/>
                  </angle>
                  <angle>
                    <activevideoangle>false</activevideoangle>
                    <activeaudioangle>false</activeaudioangle>
                    <clip id="clip-6"/>
                  </angle>
                  <angle>
                    <activevideoangle>false</activevideoangle>
                    <activeaudioangle>false</activeaudioangle>
                    <clip id="clip-7"/>
                  </angle>
                  <masterclipid>clip-master</masterclipid>
                </multiclip>
              </clipitem>
              <clipitem id="cs-510">
                <duration>269</duration>
                <rate>
                  <ntsc>false</ntsc>
                  <timebase>25</timebase>
                </rate>
                <in>53985</in>
                <out>54253</out>
                <start>53985</start>
                <end>54253</end>
                <file id="src-2"/>
                <sourcetrack>
                  <mediatype>video</mediatype>
                  <trackindex>1</trackindex>
                </sourcetrack>
                <multiclip id="mcs-510">
                  <name>MCS-510</name>
                  <masterclipid>clip-master</masterclipid>
                  <collapsed>false</collapsed>
                  <angle>
                    <activevideoangle>false</activevideoangle>
                    <activeaudioangle>false</activeaudioangle>
                    <clip id="clip-1"/>
                  </angle>
                  <angle>
                    <activevideoangle>true</activevideoangle>
                    <activeaudioangle>true</activeaudioangle>
                    <clip id="clip-2"/>
                  </angle>
                  <angle>
                    <activevideoangle>false</activevideoangle>
                    <activeaudioangle>false</activeaudioangle>
                    <clip id="clip-3"/>
                  </angle>
                  <angle>
                    <activevideoangle>false</activevideoangle>
                    <activeaudioangle>false</activeaudioangle>
                    <clip id="clip-4"/>
                  </angle>
                  <angle>
                    <activevideoangle>false</activevideoangle>
                    <activeaudioangle>false</activeaudioangle>
                    <clip id="clip-5"/>
                  </angle>
                  <angle>
                    <activevideoangle>false</activevideoangle>
                    <activeaudioangle>false</activeaudioangle>
                    <clip id="clip-6"/>
                  </angle>
                  <angle>
                    <activevideoangle>false</activevideoangle>
                    <activeaudioangle>false</activeaudioangle>
                    <clip id="clip-7"/>
                  </angle>
                  <masterclipid>clip-master</masterclipid>
                </multiclip>
              </clipitem>
              <clipitem id="cs-511">
                <duration>74</duration>
                <rate>
                  <ntsc>false</ntsc>
                  <timebase>25</timebase>
                </rate>
                <in>54253</in>
                <out>54326</out>
                <start>54253</start>
                <end>54326</end>
                <file id="src-3"/>
                <sourcetrack>
                  <mediatype>video</mediatype>
                  <trackindex>1</trackindex>
                </sourcetrack>
                <multiclip id="mcs-511">
                  <name>MCS-511</name>
                  <masterclipid>clip-master</masterclipid>
                  <collapsed>false</collapsed>
                  <angle>
                    <activevideoangle>false</activevideoangle>
                    <activeaudioangle>false</activeaudioangle>
                    <clip id="clip-1"/>
                  </angle>
                  <angle>
                    <activevideoangle>false</activevideoangle>
                    <activeaudioangle>false</activeaudioangle>
                    <clip id="clip-2"/>
                  </angle>
                  <angle>
                    <activevideoangle>true</activevideoangle>
                    <activeaudioangle>true</activeaudioangle>
                    <clip id="clip-3"/>
                  </angle>
                  <angle>
                    <activevideoangle>false</activevideoangle>
                    <activeaudioangle>false</activeaudioangle>
                    <clip id="clip-4"/>
                  </angle>
                  <angle>
                    <activevideoangle>false</activevideoangle>
                    <activeaudioangle>false</activeaudioangle>
                    <clip id="clip-5"/>
                  </angle>
                  <angle>
                    <activevideoangle>false</activevideoangle>
                    <activeaudioangle>false</activeaudioangle>
                    <clip id="clip-6"/>
                  </angle>
                  <angle>
                    <activevideoangle>false</activevideoangle>
                    <activeaudioangle>false</activeaudioangle>
                    <clip id="clip-7"/>
                  </angle>
                  <masterclipid>clip-master</masterclipid>
                </multiclip>
              </clipitem>
              <clipitem id="cs-512">
                <duration>131</duration>
                <rate>
                  <ntsc>false</ntsc>
                  <timebase>25</timebase>
                </rate>
                <in>54326</in>
                <out>54456</out>
                <start>54326</start>
                <end>54456</end>
                <file id="src-2"/>
                <sourcetrack>
                  <mediatype>video</mediatype>
                  <trackindex>1</trackindex>
                </sourcetrack>
                <multiclip id="mcs-512">
                  <name>MCS-512</name>
                  <masterclipid>clip-master</masterclipid>
                  <collapsed>false</collapsed>
                  <angle>
                    <activevideoangle>false</activevideoangle>
                    <activeaudioangle>false</activeaudioangle>
                    <clip id="clip-1"/>
                  </angle>
                  <angle>
                    <activevideoangle>true</activevideoangle>
                    <activeaudioangle>true</activeaudioangle>
                    <clip id="clip-2"/>
                  </angle>
                  <angle>
                    <activevideoangle>false</activevideoangle>
                    <activeaudioangle>false</activeaudioangle>
                    <clip id="clip-3"/>
                  </angle>
                  <angle>
                    <activevideoangle>false</activevideoangle>
                    <activeaudioangle>false</activeaudioangle>
                    <clip id="clip-4"/>
                  </angle>
                  <angle>
                    <activevideoangle>false</activevideoangle>
                    <activeaudioangle>false</activeaudioangle>
                    <clip id="clip-5"/>
                  </angle>
                  <angle>
                    <activevideoangle>false</activevideoangle>
                    <activeaudioangle>false</activeaudioangle>
                    <clip id="clip-6"/>
                  </angle>
                  <angle>
                    <activevideoangle>false</activevideoangle>
                    <activeaudioangle>false</activeaudioangle>
                    <clip id="clip-7"/>
                  </angle>
                  <masterclipid>clip-master</masterclipid>
                </multiclip>
              </clipitem>
              <clipitem id="cs-513">
                <duration>72</duration>
                <rate>
                  <ntsc>false</ntsc>
                  <timebase>25</timebase>
                </rate>
                <in>54456</in>
                <out>54527</out>
                <start>54456</start>
                <end>54527</end>
                <file id="src-4"/>
                <sourcetrack>
                  <mediatype>video</mediatype>
                  <trackindex>1</trackindex>
                </sourcetrack>
                <multiclip id="mcs-513">
                  <name>MCS-513</name>
                  <masterclipid>clip-master</masterclipid>
                  <collapsed>false</collapsed>
                  <angle>
                    <activevideoangle>false</activevideoangle>
                    <activeaudioangle>false</activeaudioangle>
                    <clip id="clip-1"/>
                  </angle>
                  <angle>
                    <activevideoangle>false</activevideoangle>
                    <activeaudioangle>false</activeaudioangle>
                    <clip id="clip-2"/>
                  </angle>
                  <angle>
                    <activevideoangle>false</activevideoangle>
                    <activeaudioangle>false</activeaudioangle>
                    <clip id="clip-3"/>
                  </angle>
                  <angle>
                    <activevideoangle>true</activevideoangle>
                    <activeaudioangle>true</activeaudioangle>
                    <clip id="clip-4"/>
                  </angle>
                  <angle>
                    <activevideoangle>false</activevideoangle>
                    <activeaudioangle>false</activeaudioangle>
                    <clip id="clip-5"/>
                  </angle>
                  <angle>
                    <activevideoangle>false</activevideoangle>
                    <activeaudioangle>false</activeaudioangle>
                    <clip id="clip-6"/>
                  </angle>
                  <angle>
                    <activevideoangle>false</activevideoangle>
                    <activeaudioangle>false</activeaudioangle>
                    <clip id="clip-7"/>
                  </angle>
                  <masterclipid>clip-master</masterclipid>
                </multiclip>
              </clipitem>
              <clipitem id="cs-514">
                <duration>137</duration>
                <rate>
                  <ntsc>false</ntsc>
                  <timebase>25</timebase>
                </rate>
                <in>54527</in>
                <out>54663</out>
                <start>54527</start>
                <end>54663</end>
                <file id="src-2"/>
                <sourcetrack>
                  <mediatype>video</mediatype>
                  <trackindex>1</trackindex>
                </sourcetrack>
                <multiclip id="mcs-514">
                  <name>MCS-514</name>
                  <masterclipid>clip-master</masterclipid>
                  <collapsed>false</collapsed>
                  <angle>
                    <activevideoangle>false</activevideoangle>
                    <activeaudioangle>false</activeaudioangle>
                    <clip id="clip-1"/>
                  </angle>
                  <angle>
                    <activevideoangle>true</activevideoangle>
                    <activeaudioangle>true</activeaudioangle>
                    <clip id="clip-2"/>
                  </angle>
                  <angle>
                    <activevideoangle>false</activevideoangle>
                    <activeaudioangle>false</activeaudioangle>
                    <clip id="clip-3"/>
                  </angle>
                  <angle>
                    <activevideoangle>false</activevideoangle>
                    <activeaudioangle>false</activeaudioangle>
                    <clip id="clip-4"/>
                  </angle>
                  <angle>
                    <activevideoangle>false</activevideoangle>
                    <activeaudioangle>false</activeaudioangle>
                    <clip id="clip-5"/>
                  </angle>
                  <angle>
                    <activevideoangle>false</activevideoangle>
                    <activeaudioangle>false</activeaudioangle>
                    <clip id="clip-6"/>
                  </angle>
                  <angle>
                    <activevideoangle>false</activevideoangle>
                    <activeaudioangle>false</activeaudioangle>
                    <clip id="clip-7"/>
                  </angle>
                  <masterclipid>clip-master</masterclipid>
                </multiclip>
              </clipitem>
              <clipitem id="cs-515">
                <duration>93</duration>
                <rate>
                  <ntsc>false</ntsc>
                  <timebase>25</timebase>
                </rate>
                <in>54663</in>
                <out>54755</out>
                <start>54663</start>
                <end>54755</end>
                <file id="src-3"/>
                <sourcetrack>
                  <mediatype>video</mediatype>
                  <trackindex>1</trackindex>
                </sourcetrack>
                <multiclip id="mcs-515">
                  <name>MCS-515</name>
                  <masterclipid>clip-master</masterclipid>
                  <collapsed>false</collapsed>
                  <angle>
                    <activevideoangle>false</activevideoangle>
                    <activeaudioangle>false</activeaudioangle>
                    <clip id="clip-1"/>
                  </angle>
                  <angle>
                    <activevideoangle>false</activevideoangle>
                    <activeaudioangle>false</activeaudioangle>
                    <clip id="clip-2"/>
                  </angle>
                  <angle>
                    <activevideoangle>true</activevideoangle>
                    <activeaudioangle>true</activeaudioangle>
                    <clip id="clip-3"/>
                  </angle>
                  <angle>
                    <activevideoangle>false</activevideoangle>
                    <activeaudioangle>false</activeaudioangle>
                    <clip id="clip-4"/>
                  </angle>
                  <angle>
                    <activevideoangle>false</activevideoangle>
                    <activeaudioangle>false</activeaudioangle>
                    <clip id="clip-5"/>
                  </angle>
                  <angle>
                    <activevideoangle>false</activevideoangle>
                    <activeaudioangle>false</activeaudioangle>
                    <clip id="clip-6"/>
                  </angle>
                  <angle>
                    <activevideoangle>false</activevideoangle>
                    <activeaudioangle>false</activeaudioangle>
                    <clip id="clip-7"/>
                  </angle>
                  <masterclipid>clip-master</masterclipid>
                </multiclip>
              </clipitem>
              <clipitem id="cs-516">
                <duration>114</duration>
                <rate>
                  <ntsc>false</ntsc>
                  <timebase>25</timebase>
                </rate>
                <in>54755</in>
                <out>54868</out>
                <start>54755</start>
                <end>54868</end>
                <file id="src-2"/>
                <sourcetrack>
                  <mediatype>video</mediatype>
                  <trackindex>1</trackindex>
                </sourcetrack>
                <multiclip id="mcs-516">
                  <name>MCS-516</name>
                  <masterclipid>clip-master</masterclipid>
                  <collapsed>false</collapsed>
                  <angle>
                    <activevideoangle>false</activevideoangle>
                    <activeaudioangle>false</activeaudioangle>
                    <clip id="clip-1"/>
                  </angle>
                  <angle>
                    <activevideoangle>true</activevideoangle>
                    <activeaudioangle>true</activeaudioangle>
                    <clip id="clip-2"/>
                  </angle>
                  <angle>
                    <activevideoangle>false</activevideoangle>
                    <activeaudioangle>false</activeaudioangle>
                    <clip id="clip-3"/>
                  </angle>
                  <angle>
                    <activevideoangle>false</activevideoangle>
                    <activeaudioangle>false</activeaudioangle>
                    <clip id="clip-4"/>
                  </angle>
                  <angle>
                    <activevideoangle>false</activevideoangle>
                    <activeaudioangle>false</activeaudioangle>
                    <clip id="clip-5"/>
                  </angle>
                  <angle>
                    <activevideoangle>false</activevideoangle>
                    <activeaudioangle>false</activeaudioangle>
                    <clip id="clip-6"/>
                  </angle>
                  <angle>
                    <activevideoangle>false</activevideoangle>
                    <activeaudioangle>false</activeaudioangle>
                    <clip id="clip-7"/>
                  </angle>
                  <masterclipid>clip-master</masterclipid>
                </multiclip>
              </clipitem>
              <clipitem id="cs-517">
                <duration>206</duration>
                <rate>
                  <ntsc>false</ntsc>
                  <timebase>25</timebase>
                </rate>
                <in>54868</in>
                <out>55073</out>
                <start>54868</start>
                <end>55073</end>
                <file id="src-3"/>
                <sourcetrack>
                  <mediatype>video</mediatype>
                  <trackindex>1</trackindex>
                </sourcetrack>
                <multiclip id="mcs-517">
                  <name>MCS-517</name>
                  <masterclipid>clip-master</masterclipid>
                  <collapsed>false</collapsed>
                  <angle>
                    <activevideoangle>false</activevideoangle>
                    <activeaudioangle>false</activeaudioangle>
                    <clip id="clip-1"/>
                  </angle>
                  <angle>
                    <activevideoangle>false</activevideoangle>
                    <activeaudioangle>false</activeaudioangle>
                    <clip id="clip-2"/>
                  </angle>
                  <angle>
                    <activevideoangle>true</activevideoangle>
                    <activeaudioangle>true</activeaudioangle>
                    <clip id="clip-3"/>
                  </angle>
                  <angle>
                    <activevideoangle>false</activevideoangle>
                    <activeaudioangle>false</activeaudioangle>
                    <clip id="clip-4"/>
                  </angle>
                  <angle>
                    <activevideoangle>false</activevideoangle>
                    <activeaudioangle>false</activeaudioangle>
                    <clip id="clip-5"/>
                  </angle>
                  <angle>
                    <activevideoangle>false</activevideoangle>
                    <activeaudioangle>false</activeaudioangle>
                    <clip id="clip-6"/>
                  </angle>
                  <angle>
                    <activevideoangle>false</activevideoangle>
                    <activeaudioangle>false</activeaudioangle>
                    <clip id="clip-7"/>
                  </angle>
                  <masterclipid>clip-master</masterclipid>
                </multiclip>
              </clipitem>
              <clipitem id="cs-518">
                <duration>102</duration>
                <rate>
                  <ntsc>false</ntsc>
                  <timebase>25</timebase>
                </rate>
                <in>55073</in>
                <out>55174</out>
                <start>55073</start>
                <end>55174</end>
                <file id="src-2"/>
                <sourcetrack>
                  <mediatype>video</mediatype>
                  <trackindex>1</trackindex>
                </sourcetrack>
                <multiclip id="mcs-518">
                  <name>MCS-518</name>
                  <masterclipid>clip-master</masterclipid>
                  <collapsed>false</collapsed>
                  <angle>
                    <activevideoangle>false</activevideoangle>
                    <activeaudioangle>false</activeaudioangle>
                    <clip id="clip-1"/>
                  </angle>
                  <angle>
                    <activevideoangle>true</activevideoangle>
                    <activeaudioangle>true</activeaudioangle>
                    <clip id="clip-2"/>
                  </angle>
                  <angle>
                    <activevideoangle>false</activevideoangle>
                    <activeaudioangle>false</activeaudioangle>
                    <clip id="clip-3"/>
                  </angle>
                  <angle>
                    <activevideoangle>false</activevideoangle>
                    <activeaudioangle>false</activeaudioangle>
                    <clip id="clip-4"/>
                  </angle>
                  <angle>
                    <activevideoangle>false</activevideoangle>
                    <activeaudioangle>false</activeaudioangle>
                    <clip id="clip-5"/>
                  </angle>
                  <angle>
                    <activevideoangle>false</activevideoangle>
                    <activeaudioangle>false</activeaudioangle>
                    <clip id="clip-6"/>
                  </angle>
                  <angle>
                    <activevideoangle>false</activevideoangle>
                    <activeaudioangle>false</activeaudioangle>
                    <clip id="clip-7"/>
                  </angle>
                  <masterclipid>clip-master</masterclipid>
                </multiclip>
              </clipitem>
              <clipitem id="cs-519">
                <duration>165</duration>
                <rate>
                  <ntsc>false</ntsc>
                  <timebase>25</timebase>
                </rate>
                <in>55174</in>
                <out>55338</out>
                <start>55174</start>
                <end>55338</end>
                <file id="src-4"/>
                <sourcetrack>
                  <mediatype>video</mediatype>
                  <trackindex>1</trackindex>
                </sourcetrack>
                <multiclip id="mcs-519">
                  <name>MCS-519</name>
                  <masterclipid>clip-master</masterclipid>
                  <collapsed>false</collapsed>
                  <angle>
                    <activevideoangle>false</activevideoangle>
                    <activeaudioangle>false</activeaudioangle>
                    <clip id="clip-1"/>
                  </angle>
                  <angle>
                    <activevideoangle>false</activevideoangle>
                    <activeaudioangle>false</activeaudioangle>
                    <clip id="clip-2"/>
                  </angle>
                  <angle>
                    <activevideoangle>false</activevideoangle>
                    <activeaudioangle>false</activeaudioangle>
                    <clip id="clip-3"/>
                  </angle>
                  <angle>
                    <activevideoangle>true</activevideoangle>
                    <activeaudioangle>true</activeaudioangle>
                    <clip id="clip-4"/>
                  </angle>
                  <angle>
                    <activevideoangle>false</activevideoangle>
                    <activeaudioangle>false</activeaudioangle>
                    <clip id="clip-5"/>
                  </angle>
                  <angle>
                    <activevideoangle>false</activevideoangle>
                    <activeaudioangle>false</activeaudioangle>
                    <clip id="clip-6"/>
                  </angle>
                  <angle>
                    <activevideoangle>false</activevideoangle>
                    <activeaudioangle>false</activeaudioangle>
                    <clip id="clip-7"/>
                  </angle>
                  <masterclipid>clip-master</masterclipid>
                </multiclip>
              </clipitem>
              <clipitem id="cs-520">
                <duration>97</duration>
                <rate>
                  <ntsc>false</ntsc>
                  <timebase>25</timebase>
                </rate>
                <in>55338</in>
                <out>55434</out>
                <start>55338</start>
                <end>55434</end>
                <file id="src-3"/>
                <sourcetrack>
                  <mediatype>video</mediatype>
                  <trackindex>1</trackindex>
                </sourcetrack>
                <multiclip id="mcs-520">
                  <name>MCS-520</name>
                  <masterclipid>clip-master</masterclipid>
                  <collapsed>false</collapsed>
                  <angle>
                    <activevideoangle>false</activevideoangle>
                    <activeaudioangle>false</activeaudioangle>
                    <clip id="clip-1"/>
                  </angle>
                  <angle>
                    <activevideoangle>false</activevideoangle>
                    <activeaudioangle>false</activeaudioangle>
                    <clip id="clip-2"/>
                  </angle>
                  <angle>
                    <activevideoangle>true</activevideoangle>
                    <activeaudioangle>true</activeaudioangle>
                    <clip id="clip-3"/>
                  </angle>
                  <angle>
                    <activevideoangle>false</activevideoangle>
                    <activeaudioangle>false</activeaudioangle>
                    <clip id="clip-4"/>
                  </angle>
                  <angle>
                    <activevideoangle>false</activevideoangle>
                    <activeaudioangle>false</activeaudioangle>
                    <clip id="clip-5"/>
                  </angle>
                  <angle>
                    <activevideoangle>false</activevideoangle>
                    <activeaudioangle>false</activeaudioangle>
                    <clip id="clip-6"/>
                  </angle>
                  <angle>
                    <activevideoangle>false</activevideoangle>
                    <activeaudioangle>false</activeaudioangle>
                    <clip id="clip-7"/>
                  </angle>
                  <masterclipid>clip-master</masterclipid>
                </multiclip>
              </clipitem>
              <clipitem id="cs-521">
                <duration>30</duration>
                <rate>
                  <ntsc>false</ntsc>
                  <timebase>25</timebase>
                </rate>
                <in>55434</in>
                <out>55463</out>
                <start>55434</start>
                <end>55463</end>
                <file id="src-2"/>
                <sourcetrack>
                  <mediatype>video</mediatype>
                  <trackindex>1</trackindex>
                </sourcetrack>
                <multiclip id="mcs-521">
                  <name>MCS-521</name>
                  <masterclipid>clip-master</masterclipid>
                  <collapsed>false</collapsed>
                  <angle>
                    <activevideoangle>false</activevideoangle>
                    <activeaudioangle>false</activeaudioangle>
                    <clip id="clip-1"/>
                  </angle>
                  <angle>
                    <activevideoangle>true</activevideoangle>
                    <activeaudioangle>true</activeaudioangle>
                    <clip id="clip-2"/>
                  </angle>
                  <angle>
                    <activevideoangle>false</activevideoangle>
                    <activeaudioangle>false</activeaudioangle>
                    <clip id="clip-3"/>
                  </angle>
                  <angle>
                    <activevideoangle>false</activevideoangle>
                    <activeaudioangle>false</activeaudioangle>
                    <clip id="clip-4"/>
                  </angle>
                  <angle>
                    <activevideoangle>false</activevideoangle>
                    <activeaudioangle>false</activeaudioangle>
                    <clip id="clip-5"/>
                  </angle>
                  <angle>
                    <activevideoangle>false</activevideoangle>
                    <activeaudioangle>false</activeaudioangle>
                    <clip id="clip-6"/>
                  </angle>
                  <angle>
                    <activevideoangle>false</activevideoangle>
                    <activeaudioangle>false</activeaudioangle>
                    <clip id="clip-7"/>
                  </angle>
                  <masterclipid>clip-master</masterclipid>
                </multiclip>
              </clipitem>
              <clipitem id="cs-522">
                <duration>93</duration>
                <rate>
                  <ntsc>false</ntsc>
                  <timebase>25</timebase>
                </rate>
                <in>55463</in>
                <out>55555</out>
                <start>55463</start>
                <end>55555</end>
                <file id="src-1"/>
                <sourcetrack>
                  <mediatype>video</mediatype>
                  <trackindex>1</trackindex>
                </sourcetrack>
                <multiclip id="mcs-522">
                  <name>MCS-522</name>
                  <masterclipid>clip-master</masterclipid>
                  <collapsed>false</collapsed>
                  <angle>
                    <activevideoangle>true</activevideoangle>
                    <activeaudioangle>true</activeaudioangle>
                    <clip id="clip-1"/>
                  </angle>
                  <angle>
                    <activevideoangle>false</activevideoangle>
                    <activeaudioangle>false</activeaudioangle>
                    <clip id="clip-2"/>
                  </angle>
                  <angle>
                    <activevideoangle>false</activevideoangle>
                    <activeaudioangle>false</activeaudioangle>
                    <clip id="clip-3"/>
                  </angle>
                  <angle>
                    <activevideoangle>false</activevideoangle>
                    <activeaudioangle>false</activeaudioangle>
                    <clip id="clip-4"/>
                  </angle>
                  <angle>
                    <activevideoangle>false</activevideoangle>
                    <activeaudioangle>false</activeaudioangle>
                    <clip id="clip-5"/>
                  </angle>
                  <angle>
                    <activevideoangle>false</activevideoangle>
                    <activeaudioangle>false</activeaudioangle>
                    <clip id="clip-6"/>
                  </angle>
                  <angle>
                    <activevideoangle>false</activevideoangle>
                    <activeaudioangle>false</activeaudioangle>
                    <clip id="clip-7"/>
                  </angle>
                  <masterclipid>clip-master</masterclipid>
                </multiclip>
              </clipitem>
              <clipitem id="cs-523">
                <duration>57</duration>
                <rate>
                  <ntsc>false</ntsc>
                  <timebase>25</timebase>
                </rate>
                <in>55555</in>
                <out>55611</out>
                <start>55555</start>
                <end>55611</end>
                <file id="src-2"/>
                <sourcetrack>
                  <mediatype>video</mediatype>
                  <trackindex>1</trackindex>
                </sourcetrack>
                <multiclip id="mcs-523">
                  <name>MCS-523</name>
                  <masterclipid>clip-master</masterclipid>
                  <collapsed>false</collapsed>
                  <angle>
                    <activevideoangle>false</activevideoangle>
                    <activeaudioangle>false</activeaudioangle>
                    <clip id="clip-1"/>
                  </angle>
                  <angle>
                    <activevideoangle>true</activevideoangle>
                    <activeaudioangle>true</activeaudioangle>
                    <clip id="clip-2"/>
                  </angle>
                  <angle>
                    <activevideoangle>false</activevideoangle>
                    <activeaudioangle>false</activeaudioangle>
                    <clip id="clip-3"/>
                  </angle>
                  <angle>
                    <activevideoangle>false</activevideoangle>
                    <activeaudioangle>false</activeaudioangle>
                    <clip id="clip-4"/>
                  </angle>
                  <angle>
                    <activevideoangle>false</activevideoangle>
                    <activeaudioangle>false</activeaudioangle>
                    <clip id="clip-5"/>
                  </angle>
                  <angle>
                    <activevideoangle>false</activevideoangle>
                    <activeaudioangle>false</activeaudioangle>
                    <clip id="clip-6"/>
                  </angle>
                  <angle>
                    <activevideoangle>false</activevideoangle>
                    <activeaudioangle>false</activeaudioangle>
                    <clip id="clip-7"/>
                  </angle>
                  <masterclipid>clip-master</masterclipid>
                </multiclip>
              </clipitem>
              <clipitem id="cs-524">
                <duration>96</duration>
                <rate>
                  <ntsc>false</ntsc>
                  <timebase>25</timebase>
                </rate>
                <in>55611</in>
                <out>55706</out>
                <start>55611</start>
                <end>55706</end>
                <file id="src-3"/>
                <sourcetrack>
                  <mediatype>video</mediatype>
                  <trackindex>1</trackindex>
                </sourcetrack>
                <multiclip id="mcs-524">
                  <name>MCS-524</name>
                  <masterclipid>clip-master</masterclipid>
                  <collapsed>false</collapsed>
                  <angle>
                    <activevideoangle>false</activevideoangle>
                    <activeaudioangle>false</activeaudioangle>
                    <clip id="clip-1"/>
                  </angle>
                  <angle>
                    <activevideoangle>false</activevideoangle>
                    <activeaudioangle>false</activeaudioangle>
                    <clip id="clip-2"/>
                  </angle>
                  <angle>
                    <activevideoangle>true</activevideoangle>
                    <activeaudioangle>true</activeaudioangle>
                    <clip id="clip-3"/>
                  </angle>
                  <angle>
                    <activevideoangle>false</activevideoangle>
                    <activeaudioangle>false</activeaudioangle>
                    <clip id="clip-4"/>
                  </angle>
                  <angle>
                    <activevideoangle>false</activevideoangle>
                    <activeaudioangle>false</activeaudioangle>
                    <clip id="clip-5"/>
                  </angle>
                  <angle>
                    <activevideoangle>false</activevideoangle>
                    <activeaudioangle>false</activeaudioangle>
                    <clip id="clip-6"/>
                  </angle>
                  <angle>
                    <activevideoangle>false</activevideoangle>
                    <activeaudioangle>false</activeaudioangle>
                    <clip id="clip-7"/>
                  </angle>
                  <masterclipid>clip-master</masterclipid>
                </multiclip>
              </clipitem>
              <clipitem id="cs-525">
                <duration>47</duration>
                <rate>
                  <ntsc>false</ntsc>
                  <timebase>25</timebase>
                </rate>
                <in>55706</in>
                <out>55752</out>
                <start>55706</start>
                <end>55752</end>
                <file id="src-2"/>
                <sourcetrack>
                  <mediatype>video</mediatype>
                  <trackindex>1</trackindex>
                </sourcetrack>
                <multiclip id="mcs-525">
                  <name>MCS-525</name>
                  <masterclipid>clip-master</masterclipid>
                  <collapsed>false</collapsed>
                  <angle>
                    <activevideoangle>false</activevideoangle>
                    <activeaudioangle>false</activeaudioangle>
                    <clip id="clip-1"/>
                  </angle>
                  <angle>
                    <activevideoangle>true</activevideoangle>
                    <activeaudioangle>true</activeaudioangle>
                    <clip id="clip-2"/>
                  </angle>
                  <angle>
                    <activevideoangle>false</activevideoangle>
                    <activeaudioangle>false</activeaudioangle>
                    <clip id="clip-3"/>
                  </angle>
                  <angle>
                    <activevideoangle>false</activevideoangle>
                    <activeaudioangle>false</activeaudioangle>
                    <clip id="clip-4"/>
                  </angle>
                  <angle>
                    <activevideoangle>false</activevideoangle>
                    <activeaudioangle>false</activeaudioangle>
                    <clip id="clip-5"/>
                  </angle>
                  <angle>
                    <activevideoangle>false</activevideoangle>
                    <activeaudioangle>false</activeaudioangle>
                    <clip id="clip-6"/>
                  </angle>
                  <angle>
                    <activevideoangle>false</activevideoangle>
                    <activeaudioangle>false</activeaudioangle>
                    <clip id="clip-7"/>
                  </angle>
                  <masterclipid>clip-master</masterclipid>
                </multiclip>
              </clipitem>
              <clipitem id="cs-526">
                <duration>74</duration>
                <rate>
                  <ntsc>false</ntsc>
                  <timebase>25</timebase>
                </rate>
                <in>55752</in>
                <out>55825</out>
                <start>55752</start>
                <end>55825</end>
                <file id="src-3"/>
                <sourcetrack>
                  <mediatype>video</mediatype>
                  <trackindex>1</trackindex>
                </sourcetrack>
                <multiclip id="mcs-526">
                  <name>MCS-526</name>
                  <masterclipid>clip-master</masterclipid>
                  <collapsed>false</collapsed>
                  <angle>
                    <activevideoangle>false</activevideoangle>
                    <activeaudioangle>false</activeaudioangle>
                    <clip id="clip-1"/>
                  </angle>
                  <angle>
                    <activevideoangle>false</activevideoangle>
                    <activeaudioangle>false</activeaudioangle>
                    <clip id="clip-2"/>
                  </angle>
                  <angle>
                    <activevideoangle>true</activevideoangle>
                    <activeaudioangle>true</activeaudioangle>
                    <clip id="clip-3"/>
                  </angle>
                  <angle>
                    <activevideoangle>false</activevideoangle>
                    <activeaudioangle>false</activeaudioangle>
                    <clip id="clip-4"/>
                  </angle>
                  <angle>
                    <activevideoangle>false</activevideoangle>
                    <activeaudioangle>false</activeaudioangle>
                    <clip id="clip-5"/>
                  </angle>
                  <angle>
                    <activevideoangle>false</activevideoangle>
                    <activeaudioangle>false</activeaudioangle>
                    <clip id="clip-6"/>
                  </angle>
                  <angle>
                    <activevideoangle>false</activevideoangle>
                    <activeaudioangle>false</activeaudioangle>
                    <clip id="clip-7"/>
                  </angle>
                  <masterclipid>clip-master</masterclipid>
                </multiclip>
              </clipitem>
              <clipitem id="cs-527">
                <duration>39</duration>
                <rate>
                  <ntsc>false</ntsc>
                  <timebase>25</timebase>
                </rate>
                <in>55825</in>
                <out>55863</out>
                <start>55825</start>
                <end>55863</end>
                <file id="src-5"/>
                <sourcetrack>
                  <mediatype>video</mediatype>
                  <trackindex>1</trackindex>
                </sourcetrack>
                <multiclip id="mcs-527">
                  <name>MCS-527</name>
                  <masterclipid>clip-master</masterclipid>
                  <collapsed>false</collapsed>
                  <angle>
                    <activevideoangle>false</activevideoangle>
                    <activeaudioangle>false</activeaudioangle>
                    <clip id="clip-1"/>
                  </angle>
                  <angle>
                    <activevideoangle>false</activevideoangle>
                    <activeaudioangle>false</activeaudioangle>
                    <clip id="clip-2"/>
                  </angle>
                  <angle>
                    <activevideoangle>false</activevideoangle>
                    <activeaudioangle>false</activeaudioangle>
                    <clip id="clip-3"/>
                  </angle>
                  <angle>
                    <activevideoangle>false</activevideoangle>
                    <activeaudioangle>false</activeaudioangle>
                    <clip id="clip-4"/>
                  </angle>
                  <angle>
                    <activevideoangle>true</activevideoangle>
                    <activeaudioangle>true</activeaudioangle>
                    <clip id="clip-5"/>
                  </angle>
                  <angle>
                    <activevideoangle>false</activevideoangle>
                    <activeaudioangle>false</activeaudioangle>
                    <clip id="clip-6"/>
                  </angle>
                  <angle>
                    <activevideoangle>false</activevideoangle>
                    <activeaudioangle>false</activeaudioangle>
                    <clip id="clip-7"/>
                  </angle>
                  <masterclipid>clip-master</masterclipid>
                </multiclip>
              </clipitem>
              <clipitem id="cs-528">
                <duration>39</duration>
                <rate>
                  <ntsc>false</ntsc>
                  <timebase>25</timebase>
                </rate>
                <in>55863</in>
                <out>55901</out>
                <start>55863</start>
                <end>55901</end>
                <file id="src-3"/>
                <sourcetrack>
                  <mediatype>video</mediatype>
                  <trackindex>1</trackindex>
                </sourcetrack>
                <multiclip id="mcs-528">
                  <name>MCS-528</name>
                  <masterclipid>clip-master</masterclipid>
                  <collapsed>false</collapsed>
                  <angle>
                    <activevideoangle>false</activevideoangle>
                    <activeaudioangle>false</activeaudioangle>
                    <clip id="clip-1"/>
                  </angle>
                  <angle>
                    <activevideoangle>false</activevideoangle>
                    <activeaudioangle>false</activeaudioangle>
                    <clip id="clip-2"/>
                  </angle>
                  <angle>
                    <activevideoangle>true</activevideoangle>
                    <activeaudioangle>true</activeaudioangle>
                    <clip id="clip-3"/>
                  </angle>
                  <angle>
                    <activevideoangle>false</activevideoangle>
                    <activeaudioangle>false</activeaudioangle>
                    <clip id="clip-4"/>
                  </angle>
                  <angle>
                    <activevideoangle>false</activevideoangle>
                    <activeaudioangle>false</activeaudioangle>
                    <clip id="clip-5"/>
                  </angle>
                  <angle>
                    <activevideoangle>false</activevideoangle>
                    <activeaudioangle>false</activeaudioangle>
                    <clip id="clip-6"/>
                  </angle>
                  <angle>
                    <activevideoangle>false</activevideoangle>
                    <activeaudioangle>false</activeaudioangle>
                    <clip id="clip-7"/>
                  </angle>
                  <masterclipid>clip-master</masterclipid>
                </multiclip>
              </clipitem>
              <clipitem id="cs-529">
                <duration>101</duration>
                <rate>
                  <ntsc>false</ntsc>
                  <timebase>25</timebase>
                </rate>
                <in>55901</in>
                <out>56001</out>
                <start>55901</start>
                <end>56001</end>
                <file id="src-2"/>
                <sourcetrack>
                  <mediatype>video</mediatype>
                  <trackindex>1</trackindex>
                </sourcetrack>
                <multiclip id="mcs-529">
                  <name>MCS-529</name>
                  <masterclipid>clip-master</masterclipid>
                  <collapsed>false</collapsed>
                  <angle>
                    <activevideoangle>false</activevideoangle>
                    <activeaudioangle>false</activeaudioangle>
                    <clip id="clip-1"/>
                  </angle>
                  <angle>
                    <activevideoangle>true</activevideoangle>
                    <activeaudioangle>true</activeaudioangle>
                    <clip id="clip-2"/>
                  </angle>
                  <angle>
                    <activevideoangle>false</activevideoangle>
                    <activeaudioangle>false</activeaudioangle>
                    <clip id="clip-3"/>
                  </angle>
                  <angle>
                    <activevideoangle>false</activevideoangle>
                    <activeaudioangle>false</activeaudioangle>
                    <clip id="clip-4"/>
                  </angle>
                  <angle>
                    <activevideoangle>false</activevideoangle>
                    <activeaudioangle>false</activeaudioangle>
                    <clip id="clip-5"/>
                  </angle>
                  <angle>
                    <activevideoangle>false</activevideoangle>
                    <activeaudioangle>false</activeaudioangle>
                    <clip id="clip-6"/>
                  </angle>
                  <angle>
                    <activevideoangle>false</activevideoangle>
                    <activeaudioangle>false</activeaudioangle>
                    <clip id="clip-7"/>
                  </angle>
                  <masterclipid>clip-master</masterclipid>
                </multiclip>
              </clipitem>
              <clipitem id="cs-530">
                <duration>39</duration>
                <rate>
                  <ntsc>false</ntsc>
                  <timebase>25</timebase>
                </rate>
                <in>56001</in>
                <out>56039</out>
                <start>56001</start>
                <end>56039</end>
                <file id="src-4"/>
                <sourcetrack>
                  <mediatype>video</mediatype>
                  <trackindex>1</trackindex>
                </sourcetrack>
                <multiclip id="mcs-530">
                  <name>MCS-530</name>
                  <masterclipid>clip-master</masterclipid>
                  <collapsed>false</collapsed>
                  <angle>
                    <activevideoangle>false</activevideoangle>
                    <activeaudioangle>false</activeaudioangle>
                    <clip id="clip-1"/>
                  </angle>
                  <angle>
                    <activevideoangle>false</activevideoangle>
                    <activeaudioangle>false</activeaudioangle>
                    <clip id="clip-2"/>
                  </angle>
                  <angle>
                    <activevideoangle>false</activevideoangle>
                    <activeaudioangle>false</activeaudioangle>
                    <clip id="clip-3"/>
                  </angle>
                  <angle>
                    <activevideoangle>true</activevideoangle>
                    <activeaudioangle>true</activeaudioangle>
                    <clip id="clip-4"/>
                  </angle>
                  <angle>
                    <activevideoangle>false</activevideoangle>
                    <activeaudioangle>false</activeaudioangle>
                    <clip id="clip-5"/>
                  </angle>
                  <angle>
                    <activevideoangle>false</activevideoangle>
                    <activeaudioangle>false</activeaudioangle>
                    <clip id="clip-6"/>
                  </angle>
                  <angle>
                    <activevideoangle>false</activevideoangle>
                    <activeaudioangle>false</activeaudioangle>
                    <clip id="clip-7"/>
                  </angle>
                  <masterclipid>clip-master</masterclipid>
                </multiclip>
              </clipitem>
              <clipitem id="cs-531">
                <duration>98</duration>
                <rate>
                  <ntsc>false</ntsc>
                  <timebase>25</timebase>
                </rate>
                <in>56039</in>
                <out>56136</out>
                <start>56039</start>
                <end>56136</end>
                <file id="src-1"/>
                <sourcetrack>
                  <mediatype>video</mediatype>
                  <trackindex>1</trackindex>
                </sourcetrack>
                <multiclip id="mcs-531">
                  <name>MCS-531</name>
                  <masterclipid>clip-master</masterclipid>
                  <collapsed>false</collapsed>
                  <angle>
                    <activevideoangle>true</activevideoangle>
                    <activeaudioangle>true</activeaudioangle>
                    <clip id="clip-1"/>
                  </angle>
                  <angle>
                    <activevideoangle>false</activevideoangle>
                    <activeaudioangle>false</activeaudioangle>
                    <clip id="clip-2"/>
                  </angle>
                  <angle>
                    <activevideoangle>false</activevideoangle>
                    <activeaudioangle>false</activeaudioangle>
                    <clip id="clip-3"/>
                  </angle>
                  <angle>
                    <activevideoangle>false</activevideoangle>
                    <activeaudioangle>false</activeaudioangle>
                    <clip id="clip-4"/>
                  </angle>
                  <angle>
                    <activevideoangle>false</activevideoangle>
                    <activeaudioangle>false</activeaudioangle>
                    <clip id="clip-5"/>
                  </angle>
                  <angle>
                    <activevideoangle>false</activevideoangle>
                    <activeaudioangle>false</activeaudioangle>
                    <clip id="clip-6"/>
                  </angle>
                  <angle>
                    <activevideoangle>false</activevideoangle>
                    <activeaudioangle>false</activeaudioangle>
                    <clip id="clip-7"/>
                  </angle>
                  <masterclipid>clip-master</masterclipid>
                </multiclip>
              </clipitem>
              <clipitem id="cs-532">
                <duration>102</duration>
                <rate>
                  <ntsc>false</ntsc>
                  <timebase>25</timebase>
                </rate>
                <in>56136</in>
                <out>56237</out>
                <start>56136</start>
                <end>56237</end>
                <file id="src-3"/>
                <sourcetrack>
                  <mediatype>video</mediatype>
                  <trackindex>1</trackindex>
                </sourcetrack>
                <multiclip id="mcs-532">
                  <name>MCS-532</name>
                  <masterclipid>clip-master</masterclipid>
                  <collapsed>false</collapsed>
                  <angle>
                    <activevideoangle>false</activevideoangle>
                    <activeaudioangle>false</activeaudioangle>
                    <clip id="clip-1"/>
                  </angle>
                  <angle>
                    <activevideoangle>false</activevideoangle>
                    <activeaudioangle>false</activeaudioangle>
                    <clip id="clip-2"/>
                  </angle>
                  <angle>
                    <activevideoangle>true</activevideoangle>
                    <activeaudioangle>true</activeaudioangle>
                    <clip id="clip-3"/>
                  </angle>
                  <angle>
                    <activevideoangle>false</activevideoangle>
                    <activeaudioangle>false</activeaudioangle>
                    <clip id="clip-4"/>
                  </angle>
                  <angle>
                    <activevideoangle>false</activevideoangle>
                    <activeaudioangle>false</activeaudioangle>
                    <clip id="clip-5"/>
                  </angle>
                  <angle>
                    <activevideoangle>false</activevideoangle>
                    <activeaudioangle>false</activeaudioangle>
                    <clip id="clip-6"/>
                  </angle>
                  <angle>
                    <activevideoangle>false</activevideoangle>
                    <activeaudioangle>false</activeaudioangle>
                    <clip id="clip-7"/>
                  </angle>
                  <masterclipid>clip-master</masterclipid>
                </multiclip>
              </clipitem>
              <clipitem id="cs-533">
                <duration>61</duration>
                <rate>
                  <ntsc>false</ntsc>
                  <timebase>25</timebase>
                </rate>
                <in>56237</in>
                <out>56297</out>
                <start>56237</start>
                <end>56297</end>
                <file id="src-5"/>
                <sourcetrack>
                  <mediatype>video</mediatype>
                  <trackindex>1</trackindex>
                </sourcetrack>
                <multiclip id="mcs-533">
                  <name>MCS-533</name>
                  <masterclipid>clip-master</masterclipid>
                  <collapsed>false</collapsed>
                  <angle>
                    <activevideoangle>false</activevideoangle>
                    <activeaudioangle>false</activeaudioangle>
                    <clip id="clip-1"/>
                  </angle>
                  <angle>
                    <activevideoangle>false</activevideoangle>
                    <activeaudioangle>false</activeaudioangle>
                    <clip id="clip-2"/>
                  </angle>
                  <angle>
                    <activevideoangle>false</activevideoangle>
                    <activeaudioangle>false</activeaudioangle>
                    <clip id="clip-3"/>
                  </angle>
                  <angle>
                    <activevideoangle>false</activevideoangle>
                    <activeaudioangle>false</activeaudioangle>
                    <clip id="clip-4"/>
                  </angle>
                  <angle>
                    <activevideoangle>true</activevideoangle>
                    <activeaudioangle>true</activeaudioangle>
                    <clip id="clip-5"/>
                  </angle>
                  <angle>
                    <activevideoangle>false</activevideoangle>
                    <activeaudioangle>false</activeaudioangle>
                    <clip id="clip-6"/>
                  </angle>
                  <angle>
                    <activevideoangle>false</activevideoangle>
                    <activeaudioangle>false</activeaudioangle>
                    <clip id="clip-7"/>
                  </angle>
                  <masterclipid>clip-master</masterclipid>
                </multiclip>
              </clipitem>
              <clipitem id="cs-534">
                <duration>99</duration>
                <rate>
                  <ntsc>false</ntsc>
                  <timebase>25</timebase>
                </rate>
                <in>56297</in>
                <out>56395</out>
                <start>56297</start>
                <end>56395</end>
                <file id="src-2"/>
                <sourcetrack>
                  <mediatype>video</mediatype>
                  <trackindex>1</trackindex>
                </sourcetrack>
                <multiclip id="mcs-534">
                  <name>MCS-534</name>
                  <masterclipid>clip-master</masterclipid>
                  <collapsed>false</collapsed>
                  <angle>
                    <activevideoangle>false</activevideoangle>
                    <activeaudioangle>false</activeaudioangle>
                    <clip id="clip-1"/>
                  </angle>
                  <angle>
                    <activevideoangle>true</activevideoangle>
                    <activeaudioangle>true</activeaudioangle>
                    <clip id="clip-2"/>
                  </angle>
                  <angle>
                    <activevideoangle>false</activevideoangle>
                    <activeaudioangle>false</activeaudioangle>
                    <clip id="clip-3"/>
                  </angle>
                  <angle>
                    <activevideoangle>false</activevideoangle>
                    <activeaudioangle>false</activeaudioangle>
                    <clip id="clip-4"/>
                  </angle>
                  <angle>
                    <activevideoangle>false</activevideoangle>
                    <activeaudioangle>false</activeaudioangle>
                    <clip id="clip-5"/>
                  </angle>
                  <angle>
                    <activevideoangle>false</activevideoangle>
                    <activeaudioangle>false</activeaudioangle>
                    <clip id="clip-6"/>
                  </angle>
                  <angle>
                    <activevideoangle>false</activevideoangle>
                    <activeaudioangle>false</activeaudioangle>
                    <clip id="clip-7"/>
                  </angle>
                  <masterclipid>clip-master</masterclipid>
                </multiclip>
              </clipitem>
              <clipitem id="cs-535">
                <duration>219</duration>
                <rate>
                  <ntsc>false</ntsc>
                  <timebase>25</timebase>
                </rate>
                <in>56395</in>
                <out>56613</out>
                <start>56395</start>
                <end>56613</end>
                <file id="src-3"/>
                <sourcetrack>
                  <mediatype>video</mediatype>
                  <trackindex>1</trackindex>
                </sourcetrack>
                <multiclip id="mcs-535">
                  <name>MCS-535</name>
                  <masterclipid>clip-master</masterclipid>
                  <collapsed>false</collapsed>
                  <angle>
                    <activevideoangle>false</activevideoangle>
                    <activeaudioangle>false</activeaudioangle>
                    <clip id="clip-1"/>
                  </angle>
                  <angle>
                    <activevideoangle>false</activevideoangle>
                    <activeaudioangle>false</activeaudioangle>
                    <clip id="clip-2"/>
                  </angle>
                  <angle>
                    <activevideoangle>true</activevideoangle>
                    <activeaudioangle>true</activeaudioangle>
                    <clip id="clip-3"/>
                  </angle>
                  <angle>
                    <activevideoangle>false</activevideoangle>
                    <activeaudioangle>false</activeaudioangle>
                    <clip id="clip-4"/>
                  </angle>
                  <angle>
                    <activevideoangle>false</activevideoangle>
                    <activeaudioangle>false</activeaudioangle>
                    <clip id="clip-5"/>
                  </angle>
                  <angle>
                    <activevideoangle>false</activevideoangle>
                    <activeaudioangle>false</activeaudioangle>
                    <clip id="clip-6"/>
                  </angle>
                  <angle>
                    <activevideoangle>false</activevideoangle>
                    <activeaudioangle>false</activeaudioangle>
                    <clip id="clip-7"/>
                  </angle>
                  <masterclipid>clip-master</masterclipid>
                </multiclip>
              </clipitem>
              <clipitem id="cs-536">
                <duration>65</duration>
                <rate>
                  <ntsc>false</ntsc>
                  <timebase>25</timebase>
                </rate>
                <in>56613</in>
                <out>56677</out>
                <start>56613</start>
                <end>56677</end>
                <file id="src-2"/>
                <sourcetrack>
                  <mediatype>video</mediatype>
                  <trackindex>1</trackindex>
                </sourcetrack>
                <multiclip id="mcs-536">
                  <name>MCS-536</name>
                  <masterclipid>clip-master</masterclipid>
                  <collapsed>false</collapsed>
                  <angle>
                    <activevideoangle>false</activevideoangle>
                    <activeaudioangle>false</activeaudioangle>
                    <clip id="clip-1"/>
                  </angle>
                  <angle>
                    <activevideoangle>true</activevideoangle>
                    <activeaudioangle>true</activeaudioangle>
                    <clip id="clip-2"/>
                  </angle>
                  <angle>
                    <activevideoangle>false</activevideoangle>
                    <activeaudioangle>false</activeaudioangle>
                    <clip id="clip-3"/>
                  </angle>
                  <angle>
                    <activevideoangle>false</activevideoangle>
                    <activeaudioangle>false</activeaudioangle>
                    <clip id="clip-4"/>
                  </angle>
                  <angle>
                    <activevideoangle>false</activevideoangle>
                    <activeaudioangle>false</activeaudioangle>
                    <clip id="clip-5"/>
                  </angle>
                  <angle>
                    <activevideoangle>false</activevideoangle>
                    <activeaudioangle>false</activeaudioangle>
                    <clip id="clip-6"/>
                  </angle>
                  <angle>
                    <activevideoangle>false</activevideoangle>
                    <activeaudioangle>false</activeaudioangle>
                    <clip id="clip-7"/>
                  </angle>
                  <masterclipid>clip-master</masterclipid>
                </multiclip>
              </clipitem>
              <clipitem id="cs-537">
                <duration>127</duration>
                <rate>
                  <ntsc>false</ntsc>
                  <timebase>25</timebase>
                </rate>
                <in>56677</in>
                <out>56803</out>
                <start>56677</start>
                <end>56803</end>
                <file id="src-3"/>
                <sourcetrack>
                  <mediatype>video</mediatype>
                  <trackindex>1</trackindex>
                </sourcetrack>
                <multiclip id="mcs-537">
                  <name>MCS-537</name>
                  <masterclipid>clip-master</masterclipid>
                  <collapsed>false</collapsed>
                  <angle>
                    <activevideoangle>false</activevideoangle>
                    <activeaudioangle>false</activeaudioangle>
                    <clip id="clip-1"/>
                  </angle>
                  <angle>
                    <activevideoangle>false</activevideoangle>
                    <activeaudioangle>false</activeaudioangle>
                    <clip id="clip-2"/>
                  </angle>
                  <angle>
                    <activevideoangle>true</activevideoangle>
                    <activeaudioangle>true</activeaudioangle>
                    <clip id="clip-3"/>
                  </angle>
                  <angle>
                    <activevideoangle>false</activevideoangle>
                    <activeaudioangle>false</activeaudioangle>
                    <clip id="clip-4"/>
                  </angle>
                  <angle>
                    <activevideoangle>false</activevideoangle>
                    <activeaudioangle>false</activeaudioangle>
                    <clip id="clip-5"/>
                  </angle>
                  <angle>
                    <activevideoangle>false</activevideoangle>
                    <activeaudioangle>false</activeaudioangle>
                    <clip id="clip-6"/>
                  </angle>
                  <angle>
                    <activevideoangle>false</activevideoangle>
                    <activeaudioangle>false</activeaudioangle>
                    <clip id="clip-7"/>
                  </angle>
                  <masterclipid>clip-master</masterclipid>
                </multiclip>
              </clipitem>
              <clipitem id="cs-538">
                <duration>106</duration>
                <rate>
                  <ntsc>false</ntsc>
                  <timebase>25</timebase>
                </rate>
                <in>56803</in>
                <out>56908</out>
                <start>56803</start>
                <end>56908</end>
                <file id="src-4"/>
                <sourcetrack>
                  <mediatype>video</mediatype>
                  <trackindex>1</trackindex>
                </sourcetrack>
                <multiclip id="mcs-538">
                  <name>MCS-538</name>
                  <masterclipid>clip-master</masterclipid>
                  <collapsed>false</collapsed>
                  <angle>
                    <activevideoangle>false</activevideoangle>
                    <activeaudioangle>false</activeaudioangle>
                    <clip id="clip-1"/>
                  </angle>
                  <angle>
                    <activevideoangle>false</activevideoangle>
                    <activeaudioangle>false</activeaudioangle>
                    <clip id="clip-2"/>
                  </angle>
                  <angle>
                    <activevideoangle>false</activevideoangle>
                    <activeaudioangle>false</activeaudioangle>
                    <clip id="clip-3"/>
                  </angle>
                  <angle>
                    <activevideoangle>true</activevideoangle>
                    <activeaudioangle>true</activeaudioangle>
                    <clip id="clip-4"/>
                  </angle>
                  <angle>
                    <activevideoangle>false</activevideoangle>
                    <activeaudioangle>false</activeaudioangle>
                    <clip id="clip-5"/>
                  </angle>
                  <angle>
                    <activevideoangle>false</activevideoangle>
                    <activeaudioangle>false</activeaudioangle>
                    <clip id="clip-6"/>
                  </angle>
                  <angle>
                    <activevideoangle>false</activevideoangle>
                    <activeaudioangle>false</activeaudioangle>
                    <clip id="clip-7"/>
                  </angle>
                  <masterclipid>clip-master</masterclipid>
                </multiclip>
              </clipitem>
              <clipitem id="cs-539">
                <duration>132</duration>
                <rate>
                  <ntsc>false</ntsc>
                  <timebase>25</timebase>
                </rate>
                <in>56908</in>
                <out>57039</out>
                <start>56908</start>
                <end>57039</end>
                <file id="src-3"/>
                <sourcetrack>
                  <mediatype>video</mediatype>
                  <trackindex>1</trackindex>
                </sourcetrack>
                <multiclip id="mcs-539">
                  <name>MCS-539</name>
                  <masterclipid>clip-master</masterclipid>
                  <collapsed>false</collapsed>
                  <angle>
                    <activevideoangle>false</activevideoangle>
                    <activeaudioangle>false</activeaudioangle>
                    <clip id="clip-1"/>
                  </angle>
                  <angle>
                    <activevideoangle>false</activevideoangle>
                    <activeaudioangle>false</activeaudioangle>
                    <clip id="clip-2"/>
                  </angle>
                  <angle>
                    <activevideoangle>true</activevideoangle>
                    <activeaudioangle>true</activeaudioangle>
                    <clip id="clip-3"/>
                  </angle>
                  <angle>
                    <activevideoangle>false</activevideoangle>
                    <activeaudioangle>false</activeaudioangle>
                    <clip id="clip-4"/>
                  </angle>
                  <angle>
                    <activevideoangle>false</activevideoangle>
                    <activeaudioangle>false</activeaudioangle>
                    <clip id="clip-5"/>
                  </angle>
                  <angle>
                    <activevideoangle>false</activevideoangle>
                    <activeaudioangle>false</activeaudioangle>
                    <clip id="clip-6"/>
                  </angle>
                  <angle>
                    <activevideoangle>false</activevideoangle>
                    <activeaudioangle>false</activeaudioangle>
                    <clip id="clip-7"/>
                  </angle>
                  <masterclipid>clip-master</masterclipid>
                </multiclip>
              </clipitem>
              <clipitem id="cs-540">
                <duration>81</duration>
                <rate>
                  <ntsc>false</ntsc>
                  <timebase>25</timebase>
                </rate>
                <in>57039</in>
                <out>57119</out>
                <start>57039</start>
                <end>57119</end>
                <file id="src-2"/>
                <sourcetrack>
                  <mediatype>video</mediatype>
                  <trackindex>1</trackindex>
                </sourcetrack>
                <multiclip id="mcs-540">
                  <name>MCS-540</name>
                  <masterclipid>clip-master</masterclipid>
                  <collapsed>false</collapsed>
                  <angle>
                    <activevideoangle>false</activevideoangle>
                    <activeaudioangle>false</activeaudioangle>
                    <clip id="clip-1"/>
                  </angle>
                  <angle>
                    <activevideoangle>true</activevideoangle>
                    <activeaudioangle>true</activeaudioangle>
                    <clip id="clip-2"/>
                  </angle>
                  <angle>
                    <activevideoangle>false</activevideoangle>
                    <activeaudioangle>false</activeaudioangle>
                    <clip id="clip-3"/>
                  </angle>
                  <angle>
                    <activevideoangle>false</activevideoangle>
                    <activeaudioangle>false</activeaudioangle>
                    <clip id="clip-4"/>
                  </angle>
                  <angle>
                    <activevideoangle>false</activevideoangle>
                    <activeaudioangle>false</activeaudioangle>
                    <clip id="clip-5"/>
                  </angle>
                  <angle>
                    <activevideoangle>false</activevideoangle>
                    <activeaudioangle>false</activeaudioangle>
                    <clip id="clip-6"/>
                  </angle>
                  <angle>
                    <activevideoangle>false</activevideoangle>
                    <activeaudioangle>false</activeaudioangle>
                    <clip id="clip-7"/>
                  </angle>
                  <masterclipid>clip-master</masterclipid>
                </multiclip>
              </clipitem>
              <clipitem id="cs-541">
                <duration>110</duration>
                <rate>
                  <ntsc>false</ntsc>
                  <timebase>25</timebase>
                </rate>
                <in>57119</in>
                <out>57228</out>
                <start>57119</start>
                <end>57228</end>
                <file id="src-4"/>
                <sourcetrack>
                  <mediatype>video</mediatype>
                  <trackindex>1</trackindex>
                </sourcetrack>
                <multiclip id="mcs-541">
                  <name>MCS-541</name>
                  <masterclipid>clip-master</masterclipid>
                  <collapsed>false</collapsed>
                  <angle>
                    <activevideoangle>false</activevideoangle>
                    <activeaudioangle>false</activeaudioangle>
                    <clip id="clip-1"/>
                  </angle>
                  <angle>
                    <activevideoangle>false</activevideoangle>
                    <activeaudioangle>false</activeaudioangle>
                    <clip id="clip-2"/>
                  </angle>
                  <angle>
                    <activevideoangle>false</activevideoangle>
                    <activeaudioangle>false</activeaudioangle>
                    <clip id="clip-3"/>
                  </angle>
                  <angle>
                    <activevideoangle>true</activevideoangle>
                    <activeaudioangle>true</activeaudioangle>
                    <clip id="clip-4"/>
                  </angle>
                  <angle>
                    <activevideoangle>false</activevideoangle>
                    <activeaudioangle>false</activeaudioangle>
                    <clip id="clip-5"/>
                  </angle>
                  <angle>
                    <activevideoangle>false</activevideoangle>
                    <activeaudioangle>false</activeaudioangle>
                    <clip id="clip-6"/>
                  </angle>
                  <angle>
                    <activevideoangle>false</activevideoangle>
                    <activeaudioangle>false</activeaudioangle>
                    <clip id="clip-7"/>
                  </angle>
                  <masterclipid>clip-master</masterclipid>
                </multiclip>
              </clipitem>
              <clipitem id="cs-542">
                <duration>78</duration>
                <rate>
                  <ntsc>false</ntsc>
                  <timebase>25</timebase>
                </rate>
                <in>57228</in>
                <out>57305</out>
                <start>57228</start>
                <end>57305</end>
                <file id="src-3"/>
                <sourcetrack>
                  <mediatype>video</mediatype>
                  <trackindex>1</trackindex>
                </sourcetrack>
                <multiclip id="mcs-542">
                  <name>MCS-542</name>
                  <masterclipid>clip-master</masterclipid>
                  <collapsed>false</collapsed>
                  <angle>
                    <activevideoangle>false</activevideoangle>
                    <activeaudioangle>false</activeaudioangle>
                    <clip id="clip-1"/>
                  </angle>
                  <angle>
                    <activevideoangle>false</activevideoangle>
                    <activeaudioangle>false</activeaudioangle>
                    <clip id="clip-2"/>
                  </angle>
                  <angle>
                    <activevideoangle>true</activevideoangle>
                    <activeaudioangle>true</activeaudioangle>
                    <clip id="clip-3"/>
                  </angle>
                  <angle>
                    <activevideoangle>false</activevideoangle>
                    <activeaudioangle>false</activeaudioangle>
                    <clip id="clip-4"/>
                  </angle>
                  <angle>
                    <activevideoangle>false</activevideoangle>
                    <activeaudioangle>false</activeaudioangle>
                    <clip id="clip-5"/>
                  </angle>
                  <angle>
                    <activevideoangle>false</activevideoangle>
                    <activeaudioangle>false</activeaudioangle>
                    <clip id="clip-6"/>
                  </angle>
                  <angle>
                    <activevideoangle>false</activevideoangle>
                    <activeaudioangle>false</activeaudioangle>
                    <clip id="clip-7"/>
                  </angle>
                  <masterclipid>clip-master</masterclipid>
                </multiclip>
              </clipitem>
              <clipitem id="cs-543">
                <duration>129</duration>
                <rate>
                  <ntsc>false</ntsc>
                  <timebase>25</timebase>
                </rate>
                <in>57305</in>
                <out>57433</out>
                <start>57305</start>
                <end>57433</end>
                <file id="src-2"/>
                <sourcetrack>
                  <mediatype>video</mediatype>
                  <trackindex>1</trackindex>
                </sourcetrack>
                <multiclip id="mcs-543">
                  <name>MCS-543</name>
                  <masterclipid>clip-master</masterclipid>
                  <collapsed>false</collapsed>
                  <angle>
                    <activevideoangle>false</activevideoangle>
                    <activeaudioangle>false</activeaudioangle>
                    <clip id="clip-1"/>
                  </angle>
                  <angle>
                    <activevideoangle>true</activevideoangle>
                    <activeaudioangle>true</activeaudioangle>
                    <clip id="clip-2"/>
                  </angle>
                  <angle>
                    <activevideoangle>false</activevideoangle>
                    <activeaudioangle>false</activeaudioangle>
                    <clip id="clip-3"/>
                  </angle>
                  <angle>
                    <activevideoangle>false</activevideoangle>
                    <activeaudioangle>false</activeaudioangle>
                    <clip id="clip-4"/>
                  </angle>
                  <angle>
                    <activevideoangle>false</activevideoangle>
                    <activeaudioangle>false</activeaudioangle>
                    <clip id="clip-5"/>
                  </angle>
                  <angle>
                    <activevideoangle>false</activevideoangle>
                    <activeaudioangle>false</activeaudioangle>
                    <clip id="clip-6"/>
                  </angle>
                  <angle>
                    <activevideoangle>false</activevideoangle>
                    <activeaudioangle>false</activeaudioangle>
                    <clip id="clip-7"/>
                  </angle>
                  <masterclipid>clip-master</masterclipid>
                </multiclip>
              </clipitem>
              <clipitem id="cs-544">
                <duration>116</duration>
                <rate>
                  <ntsc>false</ntsc>
                  <timebase>25</timebase>
                </rate>
                <in>57433</in>
                <out>57548</out>
                <start>57433</start>
                <end>57548</end>
                <file id="src-3"/>
                <sourcetrack>
                  <mediatype>video</mediatype>
                  <trackindex>1</trackindex>
                </sourcetrack>
                <multiclip id="mcs-544">
                  <name>MCS-544</name>
                  <masterclipid>clip-master</masterclipid>
                  <collapsed>false</collapsed>
                  <angle>
                    <activevideoangle>false</activevideoangle>
                    <activeaudioangle>false</activeaudioangle>
                    <clip id="clip-1"/>
                  </angle>
                  <angle>
                    <activevideoangle>false</activevideoangle>
                    <activeaudioangle>false</activeaudioangle>
                    <clip id="clip-2"/>
                  </angle>
                  <angle>
                    <activevideoangle>true</activevideoangle>
                    <activeaudioangle>true</activeaudioangle>
                    <clip id="clip-3"/>
                  </angle>
                  <angle>
                    <activevideoangle>false</activevideoangle>
                    <activeaudioangle>false</activeaudioangle>
                    <clip id="clip-4"/>
                  </angle>
                  <angle>
                    <activevideoangle>false</activevideoangle>
                    <activeaudioangle>false</activeaudioangle>
                    <clip id="clip-5"/>
                  </angle>
                  <angle>
                    <activevideoangle>false</activevideoangle>
                    <activeaudioangle>false</activeaudioangle>
                    <clip id="clip-6"/>
                  </angle>
                  <angle>
                    <activevideoangle>false</activevideoangle>
                    <activeaudioangle>false</activeaudioangle>
                    <clip id="clip-7"/>
                  </angle>
                  <masterclipid>clip-master</masterclipid>
                </multiclip>
              </clipitem>
              <clipitem id="cs-545">
                <duration>127</duration>
                <rate>
                  <ntsc>false</ntsc>
                  <timebase>25</timebase>
                </rate>
                <in>57548</in>
                <out>57674</out>
                <start>57548</start>
                <end>57674</end>
                <file id="src-2"/>
                <sourcetrack>
                  <mediatype>video</mediatype>
                  <trackindex>1</trackindex>
                </sourcetrack>
                <multiclip id="mcs-545">
                  <name>MCS-545</name>
                  <masterclipid>clip-master</masterclipid>
                  <collapsed>false</collapsed>
                  <angle>
                    <activevideoangle>false</activevideoangle>
                    <activeaudioangle>false</activeaudioangle>
                    <clip id="clip-1"/>
                  </angle>
                  <angle>
                    <activevideoangle>true</activevideoangle>
                    <activeaudioangle>true</activeaudioangle>
                    <clip id="clip-2"/>
                  </angle>
                  <angle>
                    <activevideoangle>false</activevideoangle>
                    <activeaudioangle>false</activeaudioangle>
                    <clip id="clip-3"/>
                  </angle>
                  <angle>
                    <activevideoangle>false</activevideoangle>
                    <activeaudioangle>false</activeaudioangle>
                    <clip id="clip-4"/>
                  </angle>
                  <angle>
                    <activevideoangle>false</activevideoangle>
                    <activeaudioangle>false</activeaudioangle>
                    <clip id="clip-5"/>
                  </angle>
                  <angle>
                    <activevideoangle>false</activevideoangle>
                    <activeaudioangle>false</activeaudioangle>
                    <clip id="clip-6"/>
                  </angle>
                  <angle>
                    <activevideoangle>false</activevideoangle>
                    <activeaudioangle>false</activeaudioangle>
                    <clip id="clip-7"/>
                  </angle>
                  <masterclipid>clip-master</masterclipid>
                </multiclip>
              </clipitem>
              <clipitem id="cs-546">
                <duration>120</duration>
                <rate>
                  <ntsc>false</ntsc>
                  <timebase>25</timebase>
                </rate>
                <in>57674</in>
                <out>57793</out>
                <start>57674</start>
                <end>57793</end>
                <file id="src-4"/>
                <sourcetrack>
                  <mediatype>video</mediatype>
                  <trackindex>1</trackindex>
                </sourcetrack>
                <multiclip id="mcs-546">
                  <name>MCS-546</name>
                  <masterclipid>clip-master</masterclipid>
                  <collapsed>false</collapsed>
                  <angle>
                    <activevideoangle>false</activevideoangle>
                    <activeaudioangle>false</activeaudioangle>
                    <clip id="clip-1"/>
                  </angle>
                  <angle>
                    <activevideoangle>false</activevideoangle>
                    <activeaudioangle>false</activeaudioangle>
                    <clip id="clip-2"/>
                  </angle>
                  <angle>
                    <activevideoangle>false</activevideoangle>
                    <activeaudioangle>false</activeaudioangle>
                    <clip id="clip-3"/>
                  </angle>
                  <angle>
                    <activevideoangle>true</activevideoangle>
                    <activeaudioangle>true</activeaudioangle>
                    <clip id="clip-4"/>
                  </angle>
                  <angle>
                    <activevideoangle>false</activevideoangle>
                    <activeaudioangle>false</activeaudioangle>
                    <clip id="clip-5"/>
                  </angle>
                  <angle>
                    <activevideoangle>false</activevideoangle>
                    <activeaudioangle>false</activeaudioangle>
                    <clip id="clip-6"/>
                  </angle>
                  <angle>
                    <activevideoangle>false</activevideoangle>
                    <activeaudioangle>false</activeaudioangle>
                    <clip id="clip-7"/>
                  </angle>
                  <masterclipid>clip-master</masterclipid>
                </multiclip>
              </clipitem>
              <clipitem id="cs-547">
                <duration>210</duration>
                <rate>
                  <ntsc>false</ntsc>
                  <timebase>25</timebase>
                </rate>
                <in>57793</in>
                <out>58002</out>
                <start>57793</start>
                <end>58002</end>
                <file id="src-3"/>
                <sourcetrack>
                  <mediatype>video</mediatype>
                  <trackindex>1</trackindex>
                </sourcetrack>
                <multiclip id="mcs-547">
                  <name>MCS-547</name>
                  <masterclipid>clip-master</masterclipid>
                  <collapsed>false</collapsed>
                  <angle>
                    <activevideoangle>false</activevideoangle>
                    <activeaudioangle>false</activeaudioangle>
                    <clip id="clip-1"/>
                  </angle>
                  <angle>
                    <activevideoangle>false</activevideoangle>
                    <activeaudioangle>false</activeaudioangle>
                    <clip id="clip-2"/>
                  </angle>
                  <angle>
                    <activevideoangle>true</activevideoangle>
                    <activeaudioangle>true</activeaudioangle>
                    <clip id="clip-3"/>
                  </angle>
                  <angle>
                    <activevideoangle>false</activevideoangle>
                    <activeaudioangle>false</activeaudioangle>
                    <clip id="clip-4"/>
                  </angle>
                  <angle>
                    <activevideoangle>false</activevideoangle>
                    <activeaudioangle>false</activeaudioangle>
                    <clip id="clip-5"/>
                  </angle>
                  <angle>
                    <activevideoangle>false</activevideoangle>
                    <activeaudioangle>false</activeaudioangle>
                    <clip id="clip-6"/>
                  </angle>
                  <angle>
                    <activevideoangle>false</activevideoangle>
                    <activeaudioangle>false</activeaudioangle>
                    <clip id="clip-7"/>
                  </angle>
                  <masterclipid>clip-master</masterclipid>
                </multiclip>
              </clipitem>
              <clipitem id="cs-548">
                <duration>61</duration>
                <rate>
                  <ntsc>false</ntsc>
                  <timebase>25</timebase>
                </rate>
                <in>58002</in>
                <out>58062</out>
                <start>58002</start>
                <end>58062</end>
                <file id="src-4"/>
                <sourcetrack>
                  <mediatype>video</mediatype>
                  <trackindex>1</trackindex>
                </sourcetrack>
                <multiclip id="mcs-548">
                  <name>MCS-548</name>
                  <masterclipid>clip-master</masterclipid>
                  <collapsed>false</collapsed>
                  <angle>
                    <activevideoangle>false</activevideoangle>
                    <activeaudioangle>false</activeaudioangle>
                    <clip id="clip-1"/>
                  </angle>
                  <angle>
                    <activevideoangle>false</activevideoangle>
                    <activeaudioangle>false</activeaudioangle>
                    <clip id="clip-2"/>
                  </angle>
                  <angle>
                    <activevideoangle>false</activevideoangle>
                    <activeaudioangle>false</activeaudioangle>
                    <clip id="clip-3"/>
                  </angle>
                  <angle>
                    <activevideoangle>true</activevideoangle>
                    <activeaudioangle>true</activeaudioangle>
                    <clip id="clip-4"/>
                  </angle>
                  <angle>
                    <activevideoangle>false</activevideoangle>
                    <activeaudioangle>false</activeaudioangle>
                    <clip id="clip-5"/>
                  </angle>
                  <angle>
                    <activevideoangle>false</activevideoangle>
                    <activeaudioangle>false</activeaudioangle>
                    <clip id="clip-6"/>
                  </angle>
                  <angle>
                    <activevideoangle>false</activevideoangle>
                    <activeaudioangle>false</activeaudioangle>
                    <clip id="clip-7"/>
                  </angle>
                  <masterclipid>clip-master</masterclipid>
                </multiclip>
              </clipitem>
              <clipitem id="cs-549">
                <duration>192</duration>
                <rate>
                  <ntsc>false</ntsc>
                  <timebase>25</timebase>
                </rate>
                <in>58062</in>
                <out>58253</out>
                <start>58062</start>
                <end>58253</end>
                <file id="src-3"/>
                <sourcetrack>
                  <mediatype>video</mediatype>
                  <trackindex>1</trackindex>
                </sourcetrack>
                <multiclip id="mcs-549">
                  <name>MCS-549</name>
                  <masterclipid>clip-master</masterclipid>
                  <collapsed>false</collapsed>
                  <angle>
                    <activevideoangle>false</activevideoangle>
                    <activeaudioangle>false</activeaudioangle>
                    <clip id="clip-1"/>
                  </angle>
                  <angle>
                    <activevideoangle>false</activevideoangle>
                    <activeaudioangle>false</activeaudioangle>
                    <clip id="clip-2"/>
                  </angle>
                  <angle>
                    <activevideoangle>true</activevideoangle>
                    <activeaudioangle>true</activeaudioangle>
                    <clip id="clip-3"/>
                  </angle>
                  <angle>
                    <activevideoangle>false</activevideoangle>
                    <activeaudioangle>false</activeaudioangle>
                    <clip id="clip-4"/>
                  </angle>
                  <angle>
                    <activevideoangle>false</activevideoangle>
                    <activeaudioangle>false</activeaudioangle>
                    <clip id="clip-5"/>
                  </angle>
                  <angle>
                    <activevideoangle>false</activevideoangle>
                    <activeaudioangle>false</activeaudioangle>
                    <clip id="clip-6"/>
                  </angle>
                  <angle>
                    <activevideoangle>false</activevideoangle>
                    <activeaudioangle>false</activeaudioangle>
                    <clip id="clip-7"/>
                  </angle>
                  <masterclipid>clip-master</masterclipid>
                </multiclip>
              </clipitem>
              <clipitem id="cs-550">
                <duration>64</duration>
                <rate>
                  <ntsc>false</ntsc>
                  <timebase>25</timebase>
                </rate>
                <in>58253</in>
                <out>58316</out>
                <start>58253</start>
                <end>58316</end>
                <file id="src-5"/>
                <sourcetrack>
                  <mediatype>video</mediatype>
                  <trackindex>1</trackindex>
                </sourcetrack>
                <multiclip id="mcs-550">
                  <name>MCS-550</name>
                  <masterclipid>clip-master</masterclipid>
                  <collapsed>false</collapsed>
                  <angle>
                    <activevideoangle>false</activevideoangle>
                    <activeaudioangle>false</activeaudioangle>
                    <clip id="clip-1"/>
                  </angle>
                  <angle>
                    <activevideoangle>false</activevideoangle>
                    <activeaudioangle>false</activeaudioangle>
                    <clip id="clip-2"/>
                  </angle>
                  <angle>
                    <activevideoangle>false</activevideoangle>
                    <activeaudioangle>false</activeaudioangle>
                    <clip id="clip-3"/>
                  </angle>
                  <angle>
                    <activevideoangle>false</activevideoangle>
                    <activeaudioangle>false</activeaudioangle>
                    <clip id="clip-4"/>
                  </angle>
                  <angle>
                    <activevideoangle>true</activevideoangle>
                    <activeaudioangle>true</activeaudioangle>
                    <clip id="clip-5"/>
                  </angle>
                  <angle>
                    <activevideoangle>false</activevideoangle>
                    <activeaudioangle>false</activeaudioangle>
                    <clip id="clip-6"/>
                  </angle>
                  <angle>
                    <activevideoangle>false</activevideoangle>
                    <activeaudioangle>false</activeaudioangle>
                    <clip id="clip-7"/>
                  </angle>
                  <masterclipid>clip-master</masterclipid>
                </multiclip>
              </clipitem>
              <clipitem id="cs-551">
                <duration>80</duration>
                <rate>
                  <ntsc>false</ntsc>
                  <timebase>25</timebase>
                </rate>
                <in>58316</in>
                <out>58395</out>
                <start>58316</start>
                <end>58395</end>
                <file id="src-1"/>
                <sourcetrack>
                  <mediatype>video</mediatype>
                  <trackindex>1</trackindex>
                </sourcetrack>
                <multiclip id="mcs-551">
                  <name>MCS-551</name>
                  <masterclipid>clip-master</masterclipid>
                  <collapsed>false</collapsed>
                  <angle>
                    <activevideoangle>true</activevideoangle>
                    <activeaudioangle>true</activeaudioangle>
                    <clip id="clip-1"/>
                  </angle>
                  <angle>
                    <activevideoangle>false</activevideoangle>
                    <activeaudioangle>false</activeaudioangle>
                    <clip id="clip-2"/>
                  </angle>
                  <angle>
                    <activevideoangle>false</activevideoangle>
                    <activeaudioangle>false</activeaudioangle>
                    <clip id="clip-3"/>
                  </angle>
                  <angle>
                    <activevideoangle>false</activevideoangle>
                    <activeaudioangle>false</activeaudioangle>
                    <clip id="clip-4"/>
                  </angle>
                  <angle>
                    <activevideoangle>false</activevideoangle>
                    <activeaudioangle>false</activeaudioangle>
                    <clip id="clip-5"/>
                  </angle>
                  <angle>
                    <activevideoangle>false</activevideoangle>
                    <activeaudioangle>false</activeaudioangle>
                    <clip id="clip-6"/>
                  </angle>
                  <angle>
                    <activevideoangle>false</activevideoangle>
                    <activeaudioangle>false</activeaudioangle>
                    <clip id="clip-7"/>
                  </angle>
                  <masterclipid>clip-master</masterclipid>
                </multiclip>
              </clipitem>
              <clipitem id="cs-552">
                <duration>96</duration>
                <rate>
                  <ntsc>false</ntsc>
                  <timebase>25</timebase>
                </rate>
                <in>58395</in>
                <out>58490</out>
                <start>58395</start>
                <end>58490</end>
                <file id="src-2"/>
                <sourcetrack>
                  <mediatype>video</mediatype>
                  <trackindex>1</trackindex>
                </sourcetrack>
                <multiclip id="mcs-552">
                  <name>MCS-552</name>
                  <masterclipid>clip-master</masterclipid>
                  <collapsed>false</collapsed>
                  <angle>
                    <activevideoangle>false</activevideoangle>
                    <activeaudioangle>false</activeaudioangle>
                    <clip id="clip-1"/>
                  </angle>
                  <angle>
                    <activevideoangle>true</activevideoangle>
                    <activeaudioangle>true</activeaudioangle>
                    <clip id="clip-2"/>
                  </angle>
                  <angle>
                    <activevideoangle>false</activevideoangle>
                    <activeaudioangle>false</activeaudioangle>
                    <clip id="clip-3"/>
                  </angle>
                  <angle>
                    <activevideoangle>false</activevideoangle>
                    <activeaudioangle>false</activeaudioangle>
                    <clip id="clip-4"/>
                  </angle>
                  <angle>
                    <activevideoangle>false</activevideoangle>
                    <activeaudioangle>false</activeaudioangle>
                    <clip id="clip-5"/>
                  </angle>
                  <angle>
                    <activevideoangle>false</activevideoangle>
                    <activeaudioangle>false</activeaudioangle>
                    <clip id="clip-6"/>
                  </angle>
                  <angle>
                    <activevideoangle>false</activevideoangle>
                    <activeaudioangle>false</activeaudioangle>
                    <clip id="clip-7"/>
                  </angle>
                  <masterclipid>clip-master</masterclipid>
                </multiclip>
              </clipitem>
              <clipitem id="cs-553">
                <duration>55</duration>
                <rate>
                  <ntsc>false</ntsc>
                  <timebase>25</timebase>
                </rate>
                <in>58490</in>
                <out>58544</out>
                <start>58490</start>
                <end>58544</end>
                <file id="src-3"/>
                <sourcetrack>
                  <mediatype>video</mediatype>
                  <trackindex>1</trackindex>
                </sourcetrack>
                <multiclip id="mcs-553">
                  <name>MCS-553</name>
                  <masterclipid>clip-master</masterclipid>
                  <collapsed>false</collapsed>
                  <angle>
                    <activevideoangle>false</activevideoangle>
                    <activeaudioangle>false</activeaudioangle>
                    <clip id="clip-1"/>
                  </angle>
                  <angle>
                    <activevideoangle>false</activevideoangle>
                    <activeaudioangle>false</activeaudioangle>
                    <clip id="clip-2"/>
                  </angle>
                  <angle>
                    <activevideoangle>true</activevideoangle>
                    <activeaudioangle>true</activeaudioangle>
                    <clip id="clip-3"/>
                  </angle>
                  <angle>
                    <activevideoangle>false</activevideoangle>
                    <activeaudioangle>false</activeaudioangle>
                    <clip id="clip-4"/>
                  </angle>
                  <angle>
                    <activevideoangle>false</activevideoangle>
                    <activeaudioangle>false</activeaudioangle>
                    <clip id="clip-5"/>
                  </angle>
                  <angle>
                    <activevideoangle>false</activevideoangle>
                    <activeaudioangle>false</activeaudioangle>
                    <clip id="clip-6"/>
                  </angle>
                  <angle>
                    <activevideoangle>false</activevideoangle>
                    <activeaudioangle>false</activeaudioangle>
                    <clip id="clip-7"/>
                  </angle>
                  <masterclipid>clip-master</masterclipid>
                </multiclip>
              </clipitem>
              <clipitem id="cs-554">
                <duration>60</duration>
                <rate>
                  <ntsc>false</ntsc>
                  <timebase>25</timebase>
                </rate>
                <in>58544</in>
                <out>58603</out>
                <start>58544</start>
                <end>58603</end>
                <file id="src-6"/>
                <sourcetrack>
                  <mediatype>video</mediatype>
                  <trackindex>1</trackindex>
                </sourcetrack>
                <multiclip id="mcs-554">
                  <name>MCS-554</name>
                  <masterclipid>clip-master</masterclipid>
                  <collapsed>false</collapsed>
                  <angle>
                    <activevideoangle>false</activevideoangle>
                    <activeaudioangle>false</activeaudioangle>
                    <clip id="clip-1"/>
                  </angle>
                  <angle>
                    <activevideoangle>false</activevideoangle>
                    <activeaudioangle>false</activeaudioangle>
                    <clip id="clip-2"/>
                  </angle>
                  <angle>
                    <activevideoangle>false</activevideoangle>
                    <activeaudioangle>false</activeaudioangle>
                    <clip id="clip-3"/>
                  </angle>
                  <angle>
                    <activevideoangle>false</activevideoangle>
                    <activeaudioangle>false</activeaudioangle>
                    <clip id="clip-4"/>
                  </angle>
                  <angle>
                    <activevideoangle>false</activevideoangle>
                    <activeaudioangle>false</activeaudioangle>
                    <clip id="clip-5"/>
                  </angle>
                  <angle>
                    <activevideoangle>true</activevideoangle>
                    <activeaudioangle>true</activeaudioangle>
                    <clip id="clip-6"/>
                  </angle>
                  <angle>
                    <activevideoangle>false</activevideoangle>
                    <activeaudioangle>false</activeaudioangle>
                    <clip id="clip-7"/>
                  </angle>
                  <masterclipid>clip-master</masterclipid>
                </multiclip>
              </clipitem>
              <clipitem id="cs-555">
                <duration>96</duration>
                <rate>
                  <ntsc>false</ntsc>
                  <timebase>25</timebase>
                </rate>
                <in>58603</in>
                <out>58698</out>
                <start>58603</start>
                <end>58698</end>
                <file id="src-2"/>
                <sourcetrack>
                  <mediatype>video</mediatype>
                  <trackindex>1</trackindex>
                </sourcetrack>
                <multiclip id="mcs-555">
                  <name>MCS-555</name>
                  <masterclipid>clip-master</masterclipid>
                  <collapsed>false</collapsed>
                  <angle>
                    <activevideoangle>false</activevideoangle>
                    <activeaudioangle>false</activeaudioangle>
                    <clip id="clip-1"/>
                  </angle>
                  <angle>
                    <activevideoangle>true</activevideoangle>
                    <activeaudioangle>true</activeaudioangle>
                    <clip id="clip-2"/>
                  </angle>
                  <angle>
                    <activevideoangle>false</activevideoangle>
                    <activeaudioangle>false</activeaudioangle>
                    <clip id="clip-3"/>
                  </angle>
                  <angle>
                    <activevideoangle>false</activevideoangle>
                    <activeaudioangle>false</activeaudioangle>
                    <clip id="clip-4"/>
                  </angle>
                  <angle>
                    <activevideoangle>false</activevideoangle>
                    <activeaudioangle>false</activeaudioangle>
                    <clip id="clip-5"/>
                  </angle>
                  <angle>
                    <activevideoangle>false</activevideoangle>
                    <activeaudioangle>false</activeaudioangle>
                    <clip id="clip-6"/>
                  </angle>
                  <angle>
                    <activevideoangle>false</activevideoangle>
                    <activeaudioangle>false</activeaudioangle>
                    <clip id="clip-7"/>
                  </angle>
                  <masterclipid>clip-master</masterclipid>
                </multiclip>
              </clipitem>
              <clipitem id="cs-556">
                <duration>122</duration>
                <rate>
                  <ntsc>false</ntsc>
                  <timebase>25</timebase>
                </rate>
                <in>58698</in>
                <out>58819</out>
                <start>58698</start>
                <end>58819</end>
                <file id="src-3"/>
                <sourcetrack>
                  <mediatype>video</mediatype>
                  <trackindex>1</trackindex>
                </sourcetrack>
                <multiclip id="mcs-556">
                  <name>MCS-556</name>
                  <masterclipid>clip-master</masterclipid>
                  <collapsed>false</collapsed>
                  <angle>
                    <activevideoangle>false</activevideoangle>
                    <activeaudioangle>false</activeaudioangle>
                    <clip id="clip-1"/>
                  </angle>
                  <angle>
                    <activevideoangle>false</activevideoangle>
                    <activeaudioangle>false</activeaudioangle>
                    <clip id="clip-2"/>
                  </angle>
                  <angle>
                    <activevideoangle>true</activevideoangle>
                    <activeaudioangle>true</activeaudioangle>
                    <clip id="clip-3"/>
                  </angle>
                  <angle>
                    <activevideoangle>false</activevideoangle>
                    <activeaudioangle>false</activeaudioangle>
                    <clip id="clip-4"/>
                  </angle>
                  <angle>
                    <activevideoangle>false</activevideoangle>
                    <activeaudioangle>false</activeaudioangle>
                    <clip id="clip-5"/>
                  </angle>
                  <angle>
                    <activevideoangle>false</activevideoangle>
                    <activeaudioangle>false</activeaudioangle>
                    <clip id="clip-6"/>
                  </angle>
                  <angle>
                    <activevideoangle>false</activevideoangle>
                    <activeaudioangle>false</activeaudioangle>
                    <clip id="clip-7"/>
                  </angle>
                  <masterclipid>clip-master</masterclipid>
                </multiclip>
              </clipitem>
              <clipitem id="cs-557">
                <duration>114</duration>
                <rate>
                  <ntsc>false</ntsc>
                  <timebase>25</timebase>
                </rate>
                <in>58819</in>
                <out>58932</out>
                <start>58819</start>
                <end>58932</end>
                <file id="src-2"/>
                <sourcetrack>
                  <mediatype>video</mediatype>
                  <trackindex>1</trackindex>
                </sourcetrack>
                <multiclip id="mcs-557">
                  <name>MCS-557</name>
                  <masterclipid>clip-master</masterclipid>
                  <collapsed>false</collapsed>
                  <angle>
                    <activevideoangle>false</activevideoangle>
                    <activeaudioangle>false</activeaudioangle>
                    <clip id="clip-1"/>
                  </angle>
                  <angle>
                    <activevideoangle>true</activevideoangle>
                    <activeaudioangle>true</activeaudioangle>
                    <clip id="clip-2"/>
                  </angle>
                  <angle>
                    <activevideoangle>false</activevideoangle>
                    <activeaudioangle>false</activeaudioangle>
                    <clip id="clip-3"/>
                  </angle>
                  <angle>
                    <activevideoangle>false</activevideoangle>
                    <activeaudioangle>false</activeaudioangle>
                    <clip id="clip-4"/>
                  </angle>
                  <angle>
                    <activevideoangle>false</activevideoangle>
                    <activeaudioangle>false</activeaudioangle>
                    <clip id="clip-5"/>
                  </angle>
                  <angle>
                    <activevideoangle>false</activevideoangle>
                    <activeaudioangle>false</activeaudioangle>
                    <clip id="clip-6"/>
                  </angle>
                  <angle>
                    <activevideoangle>false</activevideoangle>
                    <activeaudioangle>false</activeaudioangle>
                    <clip id="clip-7"/>
                  </angle>
                  <masterclipid>clip-master</masterclipid>
                </multiclip>
              </clipitem>
              <clipitem id="cs-558">
                <duration>144</duration>
                <rate>
                  <ntsc>false</ntsc>
                  <timebase>25</timebase>
                </rate>
                <in>58932</in>
                <out>59075</out>
                <start>58932</start>
                <end>59075</end>
                <file id="src-3"/>
                <sourcetrack>
                  <mediatype>video</mediatype>
                  <trackindex>1</trackindex>
                </sourcetrack>
                <multiclip id="mcs-558">
                  <name>MCS-558</name>
                  <masterclipid>clip-master</masterclipid>
                  <collapsed>false</collapsed>
                  <angle>
                    <activevideoangle>false</activevideoangle>
                    <activeaudioangle>false</activeaudioangle>
                    <clip id="clip-1"/>
                  </angle>
                  <angle>
                    <activevideoangle>false</activevideoangle>
                    <activeaudioangle>false</activeaudioangle>
                    <clip id="clip-2"/>
                  </angle>
                  <angle>
                    <activevideoangle>true</activevideoangle>
                    <activeaudioangle>true</activeaudioangle>
                    <clip id="clip-3"/>
                  </angle>
                  <angle>
                    <activevideoangle>false</activevideoangle>
                    <activeaudioangle>false</activeaudioangle>
                    <clip id="clip-4"/>
                  </angle>
                  <angle>
                    <activevideoangle>false</activevideoangle>
                    <activeaudioangle>false</activeaudioangle>
                    <clip id="clip-5"/>
                  </angle>
                  <angle>
                    <activevideoangle>false</activevideoangle>
                    <activeaudioangle>false</activeaudioangle>
                    <clip id="clip-6"/>
                  </angle>
                  <angle>
                    <activevideoangle>false</activevideoangle>
                    <activeaudioangle>false</activeaudioangle>
                    <clip id="clip-7"/>
                  </angle>
                  <masterclipid>clip-master</masterclipid>
                </multiclip>
              </clipitem>
              <clipitem id="cs-559">
                <duration>61</duration>
                <rate>
                  <ntsc>false</ntsc>
                  <timebase>25</timebase>
                </rate>
                <in>59075</in>
                <out>59135</out>
                <start>59075</start>
                <end>59135</end>
                <file id="src-6"/>
                <sourcetrack>
                  <mediatype>video</mediatype>
                  <trackindex>1</trackindex>
                </sourcetrack>
                <multiclip id="mcs-559">
                  <name>MCS-559</name>
                  <masterclipid>clip-master</masterclipid>
                  <collapsed>false</collapsed>
                  <angle>
                    <activevideoangle>false</activevideoangle>
                    <activeaudioangle>false</activeaudioangle>
                    <clip id="clip-1"/>
                  </angle>
                  <angle>
                    <activevideoangle>false</activevideoangle>
                    <activeaudioangle>false</activeaudioangle>
                    <clip id="clip-2"/>
                  </angle>
                  <angle>
                    <activevideoangle>false</activevideoangle>
                    <activeaudioangle>false</activeaudioangle>
                    <clip id="clip-3"/>
                  </angle>
                  <angle>
                    <activevideoangle>false</activevideoangle>
                    <activeaudioangle>false</activeaudioangle>
                    <clip id="clip-4"/>
                  </angle>
                  <angle>
                    <activevideoangle>false</activevideoangle>
                    <activeaudioangle>false</activeaudioangle>
                    <clip id="clip-5"/>
                  </angle>
                  <angle>
                    <activevideoangle>true</activevideoangle>
                    <activeaudioangle>true</activeaudioangle>
                    <clip id="clip-6"/>
                  </angle>
                  <angle>
                    <activevideoangle>false</activevideoangle>
                    <activeaudioangle>false</activeaudioangle>
                    <clip id="clip-7"/>
                  </angle>
                  <masterclipid>clip-master</masterclipid>
                </multiclip>
              </clipitem>
              <clipitem id="cs-560">
                <duration>128</duration>
                <rate>
                  <ntsc>false</ntsc>
                  <timebase>25</timebase>
                </rate>
                <in>59135</in>
                <out>59262</out>
                <start>59135</start>
                <end>59262</end>
                <file id="src-4"/>
                <sourcetrack>
                  <mediatype>video</mediatype>
                  <trackindex>1</trackindex>
                </sourcetrack>
                <multiclip id="mcs-560">
                  <name>MCS-560</name>
                  <masterclipid>clip-master</masterclipid>
                  <collapsed>false</collapsed>
                  <angle>
                    <activevideoangle>false</activevideoangle>
                    <activeaudioangle>false</activeaudioangle>
                    <clip id="clip-1"/>
                  </angle>
                  <angle>
                    <activevideoangle>false</activevideoangle>
                    <activeaudioangle>false</activeaudioangle>
                    <clip id="clip-2"/>
                  </angle>
                  <angle>
                    <activevideoangle>false</activevideoangle>
                    <activeaudioangle>false</activeaudioangle>
                    <clip id="clip-3"/>
                  </angle>
                  <angle>
                    <activevideoangle>true</activevideoangle>
                    <activeaudioangle>true</activeaudioangle>
                    <clip id="clip-4"/>
                  </angle>
                  <angle>
                    <activevideoangle>false</activevideoangle>
                    <activeaudioangle>false</activeaudioangle>
                    <clip id="clip-5"/>
                  </angle>
                  <angle>
                    <activevideoangle>false</activevideoangle>
                    <activeaudioangle>false</activeaudioangle>
                    <clip id="clip-6"/>
                  </angle>
                  <angle>
                    <activevideoangle>false</activevideoangle>
                    <activeaudioangle>false</activeaudioangle>
                    <clip id="clip-7"/>
                  </angle>
                  <masterclipid>clip-master</masterclipid>
                </multiclip>
              </clipitem>
              <clipitem id="cs-561">
                <duration>67</duration>
                <rate>
                  <ntsc>false</ntsc>
                  <timebase>25</timebase>
                </rate>
                <in>59262</in>
                <out>59328</out>
                <start>59262</start>
                <end>59328</end>
                <file id="src-3"/>
                <sourcetrack>
                  <mediatype>video</mediatype>
                  <trackindex>1</trackindex>
                </sourcetrack>
                <multiclip id="mcs-561">
                  <name>MCS-561</name>
                  <masterclipid>clip-master</masterclipid>
                  <collapsed>false</collapsed>
                  <angle>
                    <activevideoangle>false</activevideoangle>
                    <activeaudioangle>false</activeaudioangle>
                    <clip id="clip-1"/>
                  </angle>
                  <angle>
                    <activevideoangle>false</activevideoangle>
                    <activeaudioangle>false</activeaudioangle>
                    <clip id="clip-2"/>
                  </angle>
                  <angle>
                    <activevideoangle>true</activevideoangle>
                    <activeaudioangle>true</activeaudioangle>
                    <clip id="clip-3"/>
                  </angle>
                  <angle>
                    <activevideoangle>false</activevideoangle>
                    <activeaudioangle>false</activeaudioangle>
                    <clip id="clip-4"/>
                  </angle>
                  <angle>
                    <activevideoangle>false</activevideoangle>
                    <activeaudioangle>false</activeaudioangle>
                    <clip id="clip-5"/>
                  </angle>
                  <angle>
                    <activevideoangle>false</activevideoangle>
                    <activeaudioangle>false</activeaudioangle>
                    <clip id="clip-6"/>
                  </angle>
                  <angle>
                    <activevideoangle>false</activevideoangle>
                    <activeaudioangle>false</activeaudioangle>
                    <clip id="clip-7"/>
                  </angle>
                  <masterclipid>clip-master</masterclipid>
                </multiclip>
              </clipitem>
              <clipitem id="cs-562">
                <duration>128</duration>
                <rate>
                  <ntsc>false</ntsc>
                  <timebase>25</timebase>
                </rate>
                <in>59328</in>
                <out>59455</out>
                <start>59328</start>
                <end>59455</end>
                <file id="src-2"/>
                <sourcetrack>
                  <mediatype>video</mediatype>
                  <trackindex>1</trackindex>
                </sourcetrack>
                <multiclip id="mcs-562">
                  <name>MCS-562</name>
                  <masterclipid>clip-master</masterclipid>
                  <collapsed>false</collapsed>
                  <angle>
                    <activevideoangle>false</activevideoangle>
                    <activeaudioangle>false</activeaudioangle>
                    <clip id="clip-1"/>
                  </angle>
                  <angle>
                    <activevideoangle>true</activevideoangle>
                    <activeaudioangle>true</activeaudioangle>
                    <clip id="clip-2"/>
                  </angle>
                  <angle>
                    <activevideoangle>false</activevideoangle>
                    <activeaudioangle>false</activeaudioangle>
                    <clip id="clip-3"/>
                  </angle>
                  <angle>
                    <activevideoangle>false</activevideoangle>
                    <activeaudioangle>false</activeaudioangle>
                    <clip id="clip-4"/>
                  </angle>
                  <angle>
                    <activevideoangle>false</activevideoangle>
                    <activeaudioangle>false</activeaudioangle>
                    <clip id="clip-5"/>
                  </angle>
                  <angle>
                    <activevideoangle>false</activevideoangle>
                    <activeaudioangle>false</activeaudioangle>
                    <clip id="clip-6"/>
                  </angle>
                  <angle>
                    <activevideoangle>false</activevideoangle>
                    <activeaudioangle>false</activeaudioangle>
                    <clip id="clip-7"/>
                  </angle>
                  <masterclipid>clip-master</masterclipid>
                </multiclip>
              </clipitem>
              <clipitem id="cs-563">
                <duration>126</duration>
                <rate>
                  <ntsc>false</ntsc>
                  <timebase>25</timebase>
                </rate>
                <in>59455</in>
                <out>59580</out>
                <start>59455</start>
                <end>59580</end>
                <file id="src-4"/>
                <sourcetrack>
                  <mediatype>video</mediatype>
                  <trackindex>1</trackindex>
                </sourcetrack>
                <multiclip id="mcs-563">
                  <name>MCS-563</name>
                  <masterclipid>clip-master</masterclipid>
                  <collapsed>false</collapsed>
                  <angle>
                    <activevideoangle>false</activevideoangle>
                    <activeaudioangle>false</activeaudioangle>
                    <clip id="clip-1"/>
                  </angle>
                  <angle>
                    <activevideoangle>false</activevideoangle>
                    <activeaudioangle>false</activeaudioangle>
                    <clip id="clip-2"/>
                  </angle>
                  <angle>
                    <activevideoangle>false</activevideoangle>
                    <activeaudioangle>false</activeaudioangle>
                    <clip id="clip-3"/>
                  </angle>
                  <angle>
                    <activevideoangle>true</activevideoangle>
                    <activeaudioangle>true</activeaudioangle>
                    <clip id="clip-4"/>
                  </angle>
                  <angle>
                    <activevideoangle>false</activevideoangle>
                    <activeaudioangle>false</activeaudioangle>
                    <clip id="clip-5"/>
                  </angle>
                  <angle>
                    <activevideoangle>false</activevideoangle>
                    <activeaudioangle>false</activeaudioangle>
                    <clip id="clip-6"/>
                  </angle>
                  <angle>
                    <activevideoangle>false</activevideoangle>
                    <activeaudioangle>false</activeaudioangle>
                    <clip id="clip-7"/>
                  </angle>
                  <masterclipid>clip-master</masterclipid>
                </multiclip>
              </clipitem>
              <clipitem id="cs-564">
                <duration>60</duration>
                <rate>
                  <ntsc>false</ntsc>
                  <timebase>25</timebase>
                </rate>
                <in>59580</in>
                <out>59639</out>
                <start>59580</start>
                <end>59639</end>
                <file id="src-2"/>
                <sourcetrack>
                  <mediatype>video</mediatype>
                  <trackindex>1</trackindex>
                </sourcetrack>
                <multiclip id="mcs-564">
                  <name>MCS-564</name>
                  <masterclipid>clip-master</masterclipid>
                  <collapsed>false</collapsed>
                  <angle>
                    <activevideoangle>false</activevideoangle>
                    <activeaudioangle>false</activeaudioangle>
                    <clip id="clip-1"/>
                  </angle>
                  <angle>
                    <activevideoangle>true</activevideoangle>
                    <activeaudioangle>true</activeaudioangle>
                    <clip id="clip-2"/>
                  </angle>
                  <angle>
                    <activevideoangle>false</activevideoangle>
                    <activeaudioangle>false</activeaudioangle>
                    <clip id="clip-3"/>
                  </angle>
                  <angle>
                    <activevideoangle>false</activevideoangle>
                    <activeaudioangle>false</activeaudioangle>
                    <clip id="clip-4"/>
                  </angle>
                  <angle>
                    <activevideoangle>false</activevideoangle>
                    <activeaudioangle>false</activeaudioangle>
                    <clip id="clip-5"/>
                  </angle>
                  <angle>
                    <activevideoangle>false</activevideoangle>
                    <activeaudioangle>false</activeaudioangle>
                    <clip id="clip-6"/>
                  </angle>
                  <angle>
                    <activevideoangle>false</activevideoangle>
                    <activeaudioangle>false</activeaudioangle>
                    <clip id="clip-7"/>
                  </angle>
                  <masterclipid>clip-master</masterclipid>
                </multiclip>
              </clipitem>
              <clipitem id="cs-565">
                <duration>199</duration>
                <rate>
                  <ntsc>false</ntsc>
                  <timebase>25</timebase>
                </rate>
                <in>59639</in>
                <out>59837</out>
                <start>59639</start>
                <end>59837</end>
                <file id="src-3"/>
                <sourcetrack>
                  <mediatype>video</mediatype>
                  <trackindex>1</trackindex>
                </sourcetrack>
                <multiclip id="mcs-565">
                  <name>MCS-565</name>
                  <masterclipid>clip-master</masterclipid>
                  <collapsed>false</collapsed>
                  <angle>
                    <activevideoangle>false</activevideoangle>
                    <activeaudioangle>false</activeaudioangle>
                    <clip id="clip-1"/>
                  </angle>
                  <angle>
                    <activevideoangle>false</activevideoangle>
                    <activeaudioangle>false</activeaudioangle>
                    <clip id="clip-2"/>
                  </angle>
                  <angle>
                    <activevideoangle>true</activevideoangle>
                    <activeaudioangle>true</activeaudioangle>
                    <clip id="clip-3"/>
                  </angle>
                  <angle>
                    <activevideoangle>false</activevideoangle>
                    <activeaudioangle>false</activeaudioangle>
                    <clip id="clip-4"/>
                  </angle>
                  <angle>
                    <activevideoangle>false</activevideoangle>
                    <activeaudioangle>false</activeaudioangle>
                    <clip id="clip-5"/>
                  </angle>
                  <angle>
                    <activevideoangle>false</activevideoangle>
                    <activeaudioangle>false</activeaudioangle>
                    <clip id="clip-6"/>
                  </angle>
                  <angle>
                    <activevideoangle>false</activevideoangle>
                    <activeaudioangle>false</activeaudioangle>
                    <clip id="clip-7"/>
                  </angle>
                  <masterclipid>clip-master</masterclipid>
                </multiclip>
              </clipitem>
              <clipitem id="cs-566">
                <duration>89</duration>
                <rate>
                  <ntsc>false</ntsc>
                  <timebase>25</timebase>
                </rate>
                <in>59837</in>
                <out>59925</out>
                <start>59837</start>
                <end>59925</end>
                <file id="src-4"/>
                <sourcetrack>
                  <mediatype>video</mediatype>
                  <trackindex>1</trackindex>
                </sourcetrack>
                <multiclip id="mcs-566">
                  <name>MCS-566</name>
                  <masterclipid>clip-master</masterclipid>
                  <collapsed>false</collapsed>
                  <angle>
                    <activevideoangle>false</activevideoangle>
                    <activeaudioangle>false</activeaudioangle>
                    <clip id="clip-1"/>
                  </angle>
                  <angle>
                    <activevideoangle>false</activevideoangle>
                    <activeaudioangle>false</activeaudioangle>
                    <clip id="clip-2"/>
                  </angle>
                  <angle>
                    <activevideoangle>false</activevideoangle>
                    <activeaudioangle>false</activeaudioangle>
                    <clip id="clip-3"/>
                  </angle>
                  <angle>
                    <activevideoangle>true</activevideoangle>
                    <activeaudioangle>true</activeaudioangle>
                    <clip id="clip-4"/>
                  </angle>
                  <angle>
                    <activevideoangle>false</activevideoangle>
                    <activeaudioangle>false</activeaudioangle>
                    <clip id="clip-5"/>
                  </angle>
                  <angle>
                    <activevideoangle>false</activevideoangle>
                    <activeaudioangle>false</activeaudioangle>
                    <clip id="clip-6"/>
                  </angle>
                  <angle>
                    <activevideoangle>false</activevideoangle>
                    <activeaudioangle>false</activeaudioangle>
                    <clip id="clip-7"/>
                  </angle>
                  <masterclipid>clip-master</masterclipid>
                </multiclip>
              </clipitem>
              <clipitem id="cs-567">
                <duration>112</duration>
                <rate>
                  <ntsc>false</ntsc>
                  <timebase>25</timebase>
                </rate>
                <in>59925</in>
                <out>60036</out>
                <start>59925</start>
                <end>60036</end>
                <file id="src-2"/>
                <sourcetrack>
                  <mediatype>video</mediatype>
                  <trackindex>1</trackindex>
                </sourcetrack>
                <multiclip id="mcs-567">
                  <name>MCS-567</name>
                  <masterclipid>clip-master</masterclipid>
                  <collapsed>false</collapsed>
                  <angle>
                    <activevideoangle>false</activevideoangle>
                    <activeaudioangle>false</activeaudioangle>
                    <clip id="clip-1"/>
                  </angle>
                  <angle>
                    <activevideoangle>true</activevideoangle>
                    <activeaudioangle>true</activeaudioangle>
                    <clip id="clip-2"/>
                  </angle>
                  <angle>
                    <activevideoangle>false</activevideoangle>
                    <activeaudioangle>false</activeaudioangle>
                    <clip id="clip-3"/>
                  </angle>
                  <angle>
                    <activevideoangle>false</activevideoangle>
                    <activeaudioangle>false</activeaudioangle>
                    <clip id="clip-4"/>
                  </angle>
                  <angle>
                    <activevideoangle>false</activevideoangle>
                    <activeaudioangle>false</activeaudioangle>
                    <clip id="clip-5"/>
                  </angle>
                  <angle>
                    <activevideoangle>false</activevideoangle>
                    <activeaudioangle>false</activeaudioangle>
                    <clip id="clip-6"/>
                  </angle>
                  <angle>
                    <activevideoangle>false</activevideoangle>
                    <activeaudioangle>false</activeaudioangle>
                    <clip id="clip-7"/>
                  </angle>
                  <masterclipid>clip-master</masterclipid>
                </multiclip>
              </clipitem>
              <clipitem id="cs-568">
                <duration>56</duration>
                <rate>
                  <ntsc>false</ntsc>
                  <timebase>25</timebase>
                </rate>
                <in>60036</in>
                <out>60091</out>
                <start>60036</start>
                <end>60091</end>
                <file id="src-3"/>
                <sourcetrack>
                  <mediatype>video</mediatype>
                  <trackindex>1</trackindex>
                </sourcetrack>
                <multiclip id="mcs-568">
                  <name>MCS-568</name>
                  <masterclipid>clip-master</masterclipid>
                  <collapsed>false</collapsed>
                  <angle>
                    <activevideoangle>false</activevideoangle>
                    <activeaudioangle>false</activeaudioangle>
                    <clip id="clip-1"/>
                  </angle>
                  <angle>
                    <activevideoangle>false</activevideoangle>
                    <activeaudioangle>false</activeaudioangle>
                    <clip id="clip-2"/>
                  </angle>
                  <angle>
                    <activevideoangle>true</activevideoangle>
                    <activeaudioangle>true</activeaudioangle>
                    <clip id="clip-3"/>
                  </angle>
                  <angle>
                    <activevideoangle>false</activevideoangle>
                    <activeaudioangle>false</activeaudioangle>
                    <clip id="clip-4"/>
                  </angle>
                  <angle>
                    <activevideoangle>false</activevideoangle>
                    <activeaudioangle>false</activeaudioangle>
                    <clip id="clip-5"/>
                  </angle>
                  <angle>
                    <activevideoangle>false</activevideoangle>
                    <activeaudioangle>false</activeaudioangle>
                    <clip id="clip-6"/>
                  </angle>
                  <angle>
                    <activevideoangle>false</activevideoangle>
                    <activeaudioangle>false</activeaudioangle>
                    <clip id="clip-7"/>
                  </angle>
                  <masterclipid>clip-master</masterclipid>
                </multiclip>
              </clipitem>
              <clipitem id="cs-569">
                <duration>58</duration>
                <rate>
                  <ntsc>false</ntsc>
                  <timebase>25</timebase>
                </rate>
                <in>60091</in>
                <out>60148</out>
                <start>60091</start>
                <end>60148</end>
                <file id="src-6"/>
                <sourcetrack>
                  <mediatype>video</mediatype>
                  <trackindex>1</trackindex>
                </sourcetrack>
                <multiclip id="mcs-569">
                  <name>MCS-569</name>
                  <masterclipid>clip-master</masterclipid>
                  <collapsed>false</collapsed>
                  <angle>
                    <activevideoangle>false</activevideoangle>
                    <activeaudioangle>false</activeaudioangle>
                    <clip id="clip-1"/>
                  </angle>
                  <angle>
                    <activevideoangle>false</activevideoangle>
                    <activeaudioangle>false</activeaudioangle>
                    <clip id="clip-2"/>
                  </angle>
                  <angle>
                    <activevideoangle>false</activevideoangle>
                    <activeaudioangle>false</activeaudioangle>
                    <clip id="clip-3"/>
                  </angle>
                  <angle>
                    <activevideoangle>false</activevideoangle>
                    <activeaudioangle>false</activeaudioangle>
                    <clip id="clip-4"/>
                  </angle>
                  <angle>
                    <activevideoangle>false</activevideoangle>
                    <activeaudioangle>false</activeaudioangle>
                    <clip id="clip-5"/>
                  </angle>
                  <angle>
                    <activevideoangle>true</activevideoangle>
                    <activeaudioangle>true</activeaudioangle>
                    <clip id="clip-6"/>
                  </angle>
                  <angle>
                    <activevideoangle>false</activevideoangle>
                    <activeaudioangle>false</activeaudioangle>
                    <clip id="clip-7"/>
                  </angle>
                  <masterclipid>clip-master</masterclipid>
                </multiclip>
              </clipitem>
              <clipitem id="cs-570">
                <duration>126</duration>
                <rate>
                  <ntsc>false</ntsc>
                  <timebase>25</timebase>
                </rate>
                <in>60148</in>
                <out>60273</out>
                <start>60148</start>
                <end>60273</end>
                <file id="src-2"/>
                <sourcetrack>
                  <mediatype>video</mediatype>
                  <trackindex>1</trackindex>
                </sourcetrack>
                <multiclip id="mcs-570">
                  <name>MCS-570</name>
                  <masterclipid>clip-master</masterclipid>
                  <collapsed>false</collapsed>
                  <angle>
                    <activevideoangle>false</activevideoangle>
                    <activeaudioangle>false</activeaudioangle>
                    <clip id="clip-1"/>
                  </angle>
                  <angle>
                    <activevideoangle>true</activevideoangle>
                    <activeaudioangle>true</activeaudioangle>
                    <clip id="clip-2"/>
                  </angle>
                  <angle>
                    <activevideoangle>false</activevideoangle>
                    <activeaudioangle>false</activeaudioangle>
                    <clip id="clip-3"/>
                  </angle>
                  <angle>
                    <activevideoangle>false</activevideoangle>
                    <activeaudioangle>false</activeaudioangle>
                    <clip id="clip-4"/>
                  </angle>
                  <angle>
                    <activevideoangle>false</activevideoangle>
                    <activeaudioangle>false</activeaudioangle>
                    <clip id="clip-5"/>
                  </angle>
                  <angle>
                    <activevideoangle>false</activevideoangle>
                    <activeaudioangle>false</activeaudioangle>
                    <clip id="clip-6"/>
                  </angle>
                  <angle>
                    <activevideoangle>false</activevideoangle>
                    <activeaudioangle>false</activeaudioangle>
                    <clip id="clip-7"/>
                  </angle>
                  <masterclipid>clip-master</masterclipid>
                </multiclip>
              </clipitem>
              <clipitem id="cs-571">
                <duration>101</duration>
                <rate>
                  <ntsc>false</ntsc>
                  <timebase>25</timebase>
                </rate>
                <in>60273</in>
                <out>60373</out>
                <start>60273</start>
                <end>60373</end>
                <file id="src-3"/>
                <sourcetrack>
                  <mediatype>video</mediatype>
                  <trackindex>1</trackindex>
                </sourcetrack>
                <multiclip id="mcs-571">
                  <name>MCS-571</name>
                  <masterclipid>clip-master</masterclipid>
                  <collapsed>false</collapsed>
                  <angle>
                    <activevideoangle>false</activevideoangle>
                    <activeaudioangle>false</activeaudioangle>
                    <clip id="clip-1"/>
                  </angle>
                  <angle>
                    <activevideoangle>false</activevideoangle>
                    <activeaudioangle>false</activeaudioangle>
                    <clip id="clip-2"/>
                  </angle>
                  <angle>
                    <activevideoangle>true</activevideoangle>
                    <activeaudioangle>true</activeaudioangle>
                    <clip id="clip-3"/>
                  </angle>
                  <angle>
                    <activevideoangle>false</activevideoangle>
                    <activeaudioangle>false</activeaudioangle>
                    <clip id="clip-4"/>
                  </angle>
                  <angle>
                    <activevideoangle>false</activevideoangle>
                    <activeaudioangle>false</activeaudioangle>
                    <clip id="clip-5"/>
                  </angle>
                  <angle>
                    <activevideoangle>false</activevideoangle>
                    <activeaudioangle>false</activeaudioangle>
                    <clip id="clip-6"/>
                  </angle>
                  <angle>
                    <activevideoangle>false</activevideoangle>
                    <activeaudioangle>false</activeaudioangle>
                    <clip id="clip-7"/>
                  </angle>
                  <masterclipid>clip-master</masterclipid>
                </multiclip>
              </clipitem>
              <clipitem id="cs-572">
                <duration>58</duration>
                <rate>
                  <ntsc>false</ntsc>
                  <timebase>25</timebase>
                </rate>
                <in>60373</in>
                <out>60430</out>
                <start>60373</start>
                <end>60430</end>
                <file id="src-2"/>
                <sourcetrack>
                  <mediatype>video</mediatype>
                  <trackindex>1</trackindex>
                </sourcetrack>
                <multiclip id="mcs-572">
                  <name>MCS-572</name>
                  <masterclipid>clip-master</masterclipid>
                  <collapsed>false</collapsed>
                  <angle>
                    <activevideoangle>false</activevideoangle>
                    <activeaudioangle>false</activeaudioangle>
                    <clip id="clip-1"/>
                  </angle>
                  <angle>
                    <activevideoangle>true</activevideoangle>
                    <activeaudioangle>true</activeaudioangle>
                    <clip id="clip-2"/>
                  </angle>
                  <angle>
                    <activevideoangle>false</activevideoangle>
                    <activeaudioangle>false</activeaudioangle>
                    <clip id="clip-3"/>
                  </angle>
                  <angle>
                    <activevideoangle>false</activevideoangle>
                    <activeaudioangle>false</activeaudioangle>
                    <clip id="clip-4"/>
                  </angle>
                  <angle>
                    <activevideoangle>false</activevideoangle>
                    <activeaudioangle>false</activeaudioangle>
                    <clip id="clip-5"/>
                  </angle>
                  <angle>
                    <activevideoangle>false</activevideoangle>
                    <activeaudioangle>false</activeaudioangle>
                    <clip id="clip-6"/>
                  </angle>
                  <angle>
                    <activevideoangle>false</activevideoangle>
                    <activeaudioangle>false</activeaudioangle>
                    <clip id="clip-7"/>
                  </angle>
                  <masterclipid>clip-master</masterclipid>
                </multiclip>
              </clipitem>
              <clipitem id="cs-573">
                <duration>127</duration>
                <rate>
                  <ntsc>false</ntsc>
                  <timebase>25</timebase>
                </rate>
                <in>60430</in>
                <out>60556</out>
                <start>60430</start>
                <end>60556</end>
                <file id="src-1"/>
                <sourcetrack>
                  <mediatype>video</mediatype>
                  <trackindex>1</trackindex>
                </sourcetrack>
                <multiclip id="mcs-573">
                  <name>MCS-573</name>
                  <masterclipid>clip-master</masterclipid>
                  <collapsed>false</collapsed>
                  <angle>
                    <activevideoangle>true</activevideoangle>
                    <activeaudioangle>true</activeaudioangle>
                    <clip id="clip-1"/>
                  </angle>
                  <angle>
                    <activevideoangle>false</activevideoangle>
                    <activeaudioangle>false</activeaudioangle>
                    <clip id="clip-2"/>
                  </angle>
                  <angle>
                    <activevideoangle>false</activevideoangle>
                    <activeaudioangle>false</activeaudioangle>
                    <clip id="clip-3"/>
                  </angle>
                  <angle>
                    <activevideoangle>false</activevideoangle>
                    <activeaudioangle>false</activeaudioangle>
                    <clip id="clip-4"/>
                  </angle>
                  <angle>
                    <activevideoangle>false</activevideoangle>
                    <activeaudioangle>false</activeaudioangle>
                    <clip id="clip-5"/>
                  </angle>
                  <angle>
                    <activevideoangle>false</activevideoangle>
                    <activeaudioangle>false</activeaudioangle>
                    <clip id="clip-6"/>
                  </angle>
                  <angle>
                    <activevideoangle>false</activevideoangle>
                    <activeaudioangle>false</activeaudioangle>
                    <clip id="clip-7"/>
                  </angle>
                  <masterclipid>clip-master</masterclipid>
                </multiclip>
              </clipitem>
              <clipitem id="cs-574">
                <duration>117</duration>
                <rate>
                  <ntsc>false</ntsc>
                  <timebase>25</timebase>
                </rate>
                <in>60556</in>
                <out>60672</out>
                <start>60556</start>
                <end>60672</end>
                <file id="src-3"/>
                <sourcetrack>
                  <mediatype>video</mediatype>
                  <trackindex>1</trackindex>
                </sourcetrack>
                <multiclip id="mcs-574">
                  <name>MCS-574</name>
                  <masterclipid>clip-master</masterclipid>
                  <collapsed>false</collapsed>
                  <angle>
                    <activevideoangle>false</activevideoangle>
                    <activeaudioangle>false</activeaudioangle>
                    <clip id="clip-1"/>
                  </angle>
                  <angle>
                    <activevideoangle>false</activevideoangle>
                    <activeaudioangle>false</activeaudioangle>
                    <clip id="clip-2"/>
                  </angle>
                  <angle>
                    <activevideoangle>true</activevideoangle>
                    <activeaudioangle>true</activeaudioangle>
                    <clip id="clip-3"/>
                  </angle>
                  <angle>
                    <activevideoangle>false</activevideoangle>
                    <activeaudioangle>false</activeaudioangle>
                    <clip id="clip-4"/>
                  </angle>
                  <angle>
                    <activevideoangle>false</activevideoangle>
                    <activeaudioangle>false</activeaudioangle>
                    <clip id="clip-5"/>
                  </angle>
                  <angle>
                    <activevideoangle>false</activevideoangle>
                    <activeaudioangle>false</activeaudioangle>
                    <clip id="clip-6"/>
                  </angle>
                  <angle>
                    <activevideoangle>false</activevideoangle>
                    <activeaudioangle>false</activeaudioangle>
                    <clip id="clip-7"/>
                  </angle>
                  <masterclipid>clip-master</masterclipid>
                </multiclip>
              </clipitem>
              <clipitem id="cs-575">
                <duration>82</duration>
                <rate>
                  <ntsc>false</ntsc>
                  <timebase>25</timebase>
                </rate>
                <in>60672</in>
                <out>60753</out>
                <start>60672</start>
                <end>60753</end>
                <file id="src-2"/>
                <sourcetrack>
                  <mediatype>video</mediatype>
                  <trackindex>1</trackindex>
                </sourcetrack>
                <multiclip id="mcs-575">
                  <name>MCS-575</name>
                  <masterclipid>clip-master</masterclipid>
                  <collapsed>false</collapsed>
                  <angle>
                    <activevideoangle>false</activevideoangle>
                    <activeaudioangle>false</activeaudioangle>
                    <clip id="clip-1"/>
                  </angle>
                  <angle>
                    <activevideoangle>true</activevideoangle>
                    <activeaudioangle>true</activeaudioangle>
                    <clip id="clip-2"/>
                  </angle>
                  <angle>
                    <activevideoangle>false</activevideoangle>
                    <activeaudioangle>false</activeaudioangle>
                    <clip id="clip-3"/>
                  </angle>
                  <angle>
                    <activevideoangle>false</activevideoangle>
                    <activeaudioangle>false</activeaudioangle>
                    <clip id="clip-4"/>
                  </angle>
                  <angle>
                    <activevideoangle>false</activevideoangle>
                    <activeaudioangle>false</activeaudioangle>
                    <clip id="clip-5"/>
                  </angle>
                  <angle>
                    <activevideoangle>false</activevideoangle>
                    <activeaudioangle>false</activeaudioangle>
                    <clip id="clip-6"/>
                  </angle>
                  <angle>
                    <activevideoangle>false</activevideoangle>
                    <activeaudioangle>false</activeaudioangle>
                    <clip id="clip-7"/>
                  </angle>
                  <masterclipid>clip-master</masterclipid>
                </multiclip>
              </clipitem>
              <clipitem id="cs-576">
                <duration>127</duration>
                <rate>
                  <ntsc>false</ntsc>
                  <timebase>25</timebase>
                </rate>
                <in>60753</in>
                <out>60879</out>
                <start>60753</start>
                <end>60879</end>
                <file id="src-4"/>
                <sourcetrack>
                  <mediatype>video</mediatype>
                  <trackindex>1</trackindex>
                </sourcetrack>
                <multiclip id="mcs-576">
                  <name>MCS-576</name>
                  <masterclipid>clip-master</masterclipid>
                  <collapsed>false</collapsed>
                  <angle>
                    <activevideoangle>false</activevideoangle>
                    <activeaudioangle>false</activeaudioangle>
                    <clip id="clip-1"/>
                  </angle>
                  <angle>
                    <activevideoangle>false</activevideoangle>
                    <activeaudioangle>false</activeaudioangle>
                    <clip id="clip-2"/>
                  </angle>
                  <angle>
                    <activevideoangle>false</activevideoangle>
                    <activeaudioangle>false</activeaudioangle>
                    <clip id="clip-3"/>
                  </angle>
                  <angle>
                    <activevideoangle>true</activevideoangle>
                    <activeaudioangle>true</activeaudioangle>
                    <clip id="clip-4"/>
                  </angle>
                  <angle>
                    <activevideoangle>false</activevideoangle>
                    <activeaudioangle>false</activeaudioangle>
                    <clip id="clip-5"/>
                  </angle>
                  <angle>
                    <activevideoangle>false</activevideoangle>
                    <activeaudioangle>false</activeaudioangle>
                    <clip id="clip-6"/>
                  </angle>
                  <angle>
                    <activevideoangle>false</activevideoangle>
                    <activeaudioangle>false</activeaudioangle>
                    <clip id="clip-7"/>
                  </angle>
                  <masterclipid>clip-master</masterclipid>
                </multiclip>
              </clipitem>
              <clipitem id="cs-577">
                <duration>61</duration>
                <rate>
                  <ntsc>false</ntsc>
                  <timebase>25</timebase>
                </rate>
                <in>60879</in>
                <out>60939</out>
                <start>60879</start>
                <end>60939</end>
                <file id="src-1"/>
                <sourcetrack>
                  <mediatype>video</mediatype>
                  <trackindex>1</trackindex>
                </sourcetrack>
                <multiclip id="mcs-577">
                  <name>MCS-577</name>
                  <masterclipid>clip-master</masterclipid>
                  <collapsed>false</collapsed>
                  <angle>
                    <activevideoangle>true</activevideoangle>
                    <activeaudioangle>true</activeaudioangle>
                    <clip id="clip-1"/>
                  </angle>
                  <angle>
                    <activevideoangle>false</activevideoangle>
                    <activeaudioangle>false</activeaudioangle>
                    <clip id="clip-2"/>
                  </angle>
                  <angle>
                    <activevideoangle>false</activevideoangle>
                    <activeaudioangle>false</activeaudioangle>
                    <clip id="clip-3"/>
                  </angle>
                  <angle>
                    <activevideoangle>false</activevideoangle>
                    <activeaudioangle>false</activeaudioangle>
                    <clip id="clip-4"/>
                  </angle>
                  <angle>
                    <activevideoangle>false</activevideoangle>
                    <activeaudioangle>false</activeaudioangle>
                    <clip id="clip-5"/>
                  </angle>
                  <angle>
                    <activevideoangle>false</activevideoangle>
                    <activeaudioangle>false</activeaudioangle>
                    <clip id="clip-6"/>
                  </angle>
                  <angle>
                    <activevideoangle>false</activevideoangle>
                    <activeaudioangle>false</activeaudioangle>
                    <clip id="clip-7"/>
                  </angle>
                  <masterclipid>clip-master</masterclipid>
                </multiclip>
              </clipitem>
              <clipitem id="cs-578">
                <duration>46</duration>
                <rate>
                  <ntsc>false</ntsc>
                  <timebase>25</timebase>
                </rate>
                <in>60939</in>
                <out>60984</out>
                <start>60939</start>
                <end>60984</end>
                <file id="src-3"/>
                <sourcetrack>
                  <mediatype>video</mediatype>
                  <trackindex>1</trackindex>
                </sourcetrack>
                <multiclip id="mcs-578">
                  <name>MCS-578</name>
                  <masterclipid>clip-master</masterclipid>
                  <collapsed>false</collapsed>
                  <angle>
                    <activevideoangle>false</activevideoangle>
                    <activeaudioangle>false</activeaudioangle>
                    <clip id="clip-1"/>
                  </angle>
                  <angle>
                    <activevideoangle>false</activevideoangle>
                    <activeaudioangle>false</activeaudioangle>
                    <clip id="clip-2"/>
                  </angle>
                  <angle>
                    <activevideoangle>true</activevideoangle>
                    <activeaudioangle>true</activeaudioangle>
                    <clip id="clip-3"/>
                  </angle>
                  <angle>
                    <activevideoangle>false</activevideoangle>
                    <activeaudioangle>false</activeaudioangle>
                    <clip id="clip-4"/>
                  </angle>
                  <angle>
                    <activevideoangle>false</activevideoangle>
                    <activeaudioangle>false</activeaudioangle>
                    <clip id="clip-5"/>
                  </angle>
                  <angle>
                    <activevideoangle>false</activevideoangle>
                    <activeaudioangle>false</activeaudioangle>
                    <clip id="clip-6"/>
                  </angle>
                  <angle>
                    <activevideoangle>false</activevideoangle>
                    <activeaudioangle>false</activeaudioangle>
                    <clip id="clip-7"/>
                  </angle>
                  <masterclipid>clip-master</masterclipid>
                </multiclip>
              </clipitem>
              <clipitem id="cs-579">
                <duration>233</duration>
                <rate>
                  <ntsc>false</ntsc>
                  <timebase>25</timebase>
                </rate>
                <in>60984</in>
                <out>61216</out>
                <start>60984</start>
                <end>61216</end>
                <file id="src-2"/>
                <sourcetrack>
                  <mediatype>video</mediatype>
                  <trackindex>1</trackindex>
                </sourcetrack>
                <multiclip id="mcs-579">
                  <name>MCS-579</name>
                  <masterclipid>clip-master</masterclipid>
                  <collapsed>false</collapsed>
                  <angle>
                    <activevideoangle>false</activevideoangle>
                    <activeaudioangle>false</activeaudioangle>
                    <clip id="clip-1"/>
                  </angle>
                  <angle>
                    <activevideoangle>true</activevideoangle>
                    <activeaudioangle>true</activeaudioangle>
                    <clip id="clip-2"/>
                  </angle>
                  <angle>
                    <activevideoangle>false</activevideoangle>
                    <activeaudioangle>false</activeaudioangle>
                    <clip id="clip-3"/>
                  </angle>
                  <angle>
                    <activevideoangle>false</activevideoangle>
                    <activeaudioangle>false</activeaudioangle>
                    <clip id="clip-4"/>
                  </angle>
                  <angle>
                    <activevideoangle>false</activevideoangle>
                    <activeaudioangle>false</activeaudioangle>
                    <clip id="clip-5"/>
                  </angle>
                  <angle>
                    <activevideoangle>false</activevideoangle>
                    <activeaudioangle>false</activeaudioangle>
                    <clip id="clip-6"/>
                  </angle>
                  <angle>
                    <activevideoangle>false</activevideoangle>
                    <activeaudioangle>false</activeaudioangle>
                    <clip id="clip-7"/>
                  </angle>
                  <masterclipid>clip-master</masterclipid>
                </multiclip>
              </clipitem>
              <clipitem id="cs-580">
                <duration>113</duration>
                <rate>
                  <ntsc>false</ntsc>
                  <timebase>25</timebase>
                </rate>
                <in>61216</in>
                <out>61328</out>
                <start>61216</start>
                <end>61328</end>
                <file id="src-4"/>
                <sourcetrack>
                  <mediatype>video</mediatype>
                  <trackindex>1</trackindex>
                </sourcetrack>
                <multiclip id="mcs-580">
                  <name>MCS-580</name>
                  <masterclipid>clip-master</masterclipid>
                  <collapsed>false</collapsed>
                  <angle>
                    <activevideoangle>false</activevideoangle>
                    <activeaudioangle>false</activeaudioangle>
                    <clip id="clip-1"/>
                  </angle>
                  <angle>
                    <activevideoangle>false</activevideoangle>
                    <activeaudioangle>false</activeaudioangle>
                    <clip id="clip-2"/>
                  </angle>
                  <angle>
                    <activevideoangle>false</activevideoangle>
                    <activeaudioangle>false</activeaudioangle>
                    <clip id="clip-3"/>
                  </angle>
                  <angle>
                    <activevideoangle>true</activevideoangle>
                    <activeaudioangle>true</activeaudioangle>
                    <clip id="clip-4"/>
                  </angle>
                  <angle>
                    <activevideoangle>false</activevideoangle>
                    <activeaudioangle>false</activeaudioangle>
                    <clip id="clip-5"/>
                  </angle>
                  <angle>
                    <activevideoangle>false</activevideoangle>
                    <activeaudioangle>false</activeaudioangle>
                    <clip id="clip-6"/>
                  </angle>
                  <angle>
                    <activevideoangle>false</activevideoangle>
                    <activeaudioangle>false</activeaudioangle>
                    <clip id="clip-7"/>
                  </angle>
                  <masterclipid>clip-master</masterclipid>
                </multiclip>
              </clipitem>
              <clipitem id="cs-581">
                <duration>69</duration>
                <rate>
                  <ntsc>false</ntsc>
                  <timebase>25</timebase>
                </rate>
                <in>61328</in>
                <out>61396</out>
                <start>61328</start>
                <end>61396</end>
                <file id="src-2"/>
                <sourcetrack>
                  <mediatype>video</mediatype>
                  <trackindex>1</trackindex>
                </sourcetrack>
                <multiclip id="mcs-581">
                  <name>MCS-581</name>
                  <masterclipid>clip-master</masterclipid>
                  <collapsed>false</collapsed>
                  <angle>
                    <activevideoangle>false</activevideoangle>
                    <activeaudioangle>false</activeaudioangle>
                    <clip id="clip-1"/>
                  </angle>
                  <angle>
                    <activevideoangle>true</activevideoangle>
                    <activeaudioangle>true</activeaudioangle>
                    <clip id="clip-2"/>
                  </angle>
                  <angle>
                    <activevideoangle>false</activevideoangle>
                    <activeaudioangle>false</activeaudioangle>
                    <clip id="clip-3"/>
                  </angle>
                  <angle>
                    <activevideoangle>false</activevideoangle>
                    <activeaudioangle>false</activeaudioangle>
                    <clip id="clip-4"/>
                  </angle>
                  <angle>
                    <activevideoangle>false</activevideoangle>
                    <activeaudioangle>false</activeaudioangle>
                    <clip id="clip-5"/>
                  </angle>
                  <angle>
                    <activevideoangle>false</activevideoangle>
                    <activeaudioangle>false</activeaudioangle>
                    <clip id="clip-6"/>
                  </angle>
                  <angle>
                    <activevideoangle>false</activevideoangle>
                    <activeaudioangle>false</activeaudioangle>
                    <clip id="clip-7"/>
                  </angle>
                  <masterclipid>clip-master</masterclipid>
                </multiclip>
              </clipitem>
              <clipitem id="cs-582">
                <duration>96</duration>
                <rate>
                  <ntsc>false</ntsc>
                  <timebase>25</timebase>
                </rate>
                <in>61396</in>
                <out>61491</out>
                <start>61396</start>
                <end>61491</end>
                <file id="src-1"/>
                <sourcetrack>
                  <mediatype>video</mediatype>
                  <trackindex>1</trackindex>
                </sourcetrack>
                <multiclip id="mcs-582">
                  <name>MCS-582</name>
                  <masterclipid>clip-master</masterclipid>
                  <collapsed>false</collapsed>
                  <angle>
                    <activevideoangle>true</activevideoangle>
                    <activeaudioangle>true</activeaudioangle>
                    <clip id="clip-1"/>
                  </angle>
                  <angle>
                    <activevideoangle>false</activevideoangle>
                    <activeaudioangle>false</activeaudioangle>
                    <clip id="clip-2"/>
                  </angle>
                  <angle>
                    <activevideoangle>false</activevideoangle>
                    <activeaudioangle>false</activeaudioangle>
                    <clip id="clip-3"/>
                  </angle>
                  <angle>
                    <activevideoangle>false</activevideoangle>
                    <activeaudioangle>false</activeaudioangle>
                    <clip id="clip-4"/>
                  </angle>
                  <angle>
                    <activevideoangle>false</activevideoangle>
                    <activeaudioangle>false</activeaudioangle>
                    <clip id="clip-5"/>
                  </angle>
                  <angle>
                    <activevideoangle>false</activevideoangle>
                    <activeaudioangle>false</activeaudioangle>
                    <clip id="clip-6"/>
                  </angle>
                  <angle>
                    <activevideoangle>false</activevideoangle>
                    <activeaudioangle>false</activeaudioangle>
                    <clip id="clip-7"/>
                  </angle>
                  <masterclipid>clip-master</masterclipid>
                </multiclip>
              </clipitem>
              <clipitem id="cs-583">
                <duration>146</duration>
                <rate>
                  <ntsc>false</ntsc>
                  <timebase>25</timebase>
                </rate>
                <in>61491</in>
                <out>61636</out>
                <start>61491</start>
                <end>61636</end>
                <file id="src-2"/>
                <sourcetrack>
                  <mediatype>video</mediatype>
                  <trackindex>1</trackindex>
                </sourcetrack>
                <multiclip id="mcs-583">
                  <name>MCS-583</name>
                  <masterclipid>clip-master</masterclipid>
                  <collapsed>false</collapsed>
                  <angle>
                    <activevideoangle>false</activevideoangle>
                    <activeaudioangle>false</activeaudioangle>
                    <clip id="clip-1"/>
                  </angle>
                  <angle>
                    <activevideoangle>true</activevideoangle>
                    <activeaudioangle>true</activeaudioangle>
                    <clip id="clip-2"/>
                  </angle>
                  <angle>
                    <activevideoangle>false</activevideoangle>
                    <activeaudioangle>false</activeaudioangle>
                    <clip id="clip-3"/>
                  </angle>
                  <angle>
                    <activevideoangle>false</activevideoangle>
                    <activeaudioangle>false</activeaudioangle>
                    <clip id="clip-4"/>
                  </angle>
                  <angle>
                    <activevideoangle>false</activevideoangle>
                    <activeaudioangle>false</activeaudioangle>
                    <clip id="clip-5"/>
                  </angle>
                  <angle>
                    <activevideoangle>false</activevideoangle>
                    <activeaudioangle>false</activeaudioangle>
                    <clip id="clip-6"/>
                  </angle>
                  <angle>
                    <activevideoangle>false</activevideoangle>
                    <activeaudioangle>false</activeaudioangle>
                    <clip id="clip-7"/>
                  </angle>
                  <masterclipid>clip-master</masterclipid>
                </multiclip>
              </clipitem>
              <clipitem id="cs-584">
                <duration>85</duration>
                <rate>
                  <ntsc>false</ntsc>
                  <timebase>25</timebase>
                </rate>
                <in>61636</in>
                <out>61720</out>
                <start>61636</start>
                <end>61720</end>
                <file id="src-3"/>
                <sourcetrack>
                  <mediatype>video</mediatype>
                  <trackindex>1</trackindex>
                </sourcetrack>
                <multiclip id="mcs-584">
                  <name>MCS-584</name>
                  <masterclipid>clip-master</masterclipid>
                  <collapsed>false</collapsed>
                  <angle>
                    <activevideoangle>false</activevideoangle>
                    <activeaudioangle>false</activeaudioangle>
                    <clip id="clip-1"/>
                  </angle>
                  <angle>
                    <activevideoangle>false</activevideoangle>
                    <activeaudioangle>false</activeaudioangle>
                    <clip id="clip-2"/>
                  </angle>
                  <angle>
                    <activevideoangle>true</activevideoangle>
                    <activeaudioangle>true</activeaudioangle>
                    <clip id="clip-3"/>
                  </angle>
                  <angle>
                    <activevideoangle>false</activevideoangle>
                    <activeaudioangle>false</activeaudioangle>
                    <clip id="clip-4"/>
                  </angle>
                  <angle>
                    <activevideoangle>false</activevideoangle>
                    <activeaudioangle>false</activeaudioangle>
                    <clip id="clip-5"/>
                  </angle>
                  <angle>
                    <activevideoangle>false</activevideoangle>
                    <activeaudioangle>false</activeaudioangle>
                    <clip id="clip-6"/>
                  </angle>
                  <angle>
                    <activevideoangle>false</activevideoangle>
                    <activeaudioangle>false</activeaudioangle>
                    <clip id="clip-7"/>
                  </angle>
                  <masterclipid>clip-master</masterclipid>
                </multiclip>
              </clipitem>
              <clipitem id="cs-585">
                <duration>63</duration>
                <rate>
                  <ntsc>false</ntsc>
                  <timebase>25</timebase>
                </rate>
                <in>61720</in>
                <out>61782</out>
                <start>61720</start>
                <end>61782</end>
                <file id="src-1"/>
                <sourcetrack>
                  <mediatype>video</mediatype>
                  <trackindex>1</trackindex>
                </sourcetrack>
                <multiclip id="mcs-585">
                  <name>MCS-585</name>
                  <masterclipid>clip-master</masterclipid>
                  <collapsed>false</collapsed>
                  <angle>
                    <activevideoangle>true</activevideoangle>
                    <activeaudioangle>true</activeaudioangle>
                    <clip id="clip-1"/>
                  </angle>
                  <angle>
                    <activevideoangle>false</activevideoangle>
                    <activeaudioangle>false</activeaudioangle>
                    <clip id="clip-2"/>
                  </angle>
                  <angle>
                    <activevideoangle>false</activevideoangle>
                    <activeaudioangle>false</activeaudioangle>
                    <clip id="clip-3"/>
                  </angle>
                  <angle>
                    <activevideoangle>false</activevideoangle>
                    <activeaudioangle>false</activeaudioangle>
                    <clip id="clip-4"/>
                  </angle>
                  <angle>
                    <activevideoangle>false</activevideoangle>
                    <activeaudioangle>false</activeaudioangle>
                    <clip id="clip-5"/>
                  </angle>
                  <angle>
                    <activevideoangle>false</activevideoangle>
                    <activeaudioangle>false</activeaudioangle>
                    <clip id="clip-6"/>
                  </angle>
                  <angle>
                    <activevideoangle>false</activevideoangle>
                    <activeaudioangle>false</activeaudioangle>
                    <clip id="clip-7"/>
                  </angle>
                  <masterclipid>clip-master</masterclipid>
                </multiclip>
              </clipitem>
              <clipitem id="cs-586">
                <duration>58</duration>
                <rate>
                  <ntsc>false</ntsc>
                  <timebase>25</timebase>
                </rate>
                <in>61782</in>
                <out>61839</out>
                <start>61782</start>
                <end>61839</end>
                <file id="src-4"/>
                <sourcetrack>
                  <mediatype>video</mediatype>
                  <trackindex>1</trackindex>
                </sourcetrack>
                <multiclip id="mcs-586">
                  <name>MCS-586</name>
                  <masterclipid>clip-master</masterclipid>
                  <collapsed>false</collapsed>
                  <angle>
                    <activevideoangle>false</activevideoangle>
                    <activeaudioangle>false</activeaudioangle>
                    <clip id="clip-1"/>
                  </angle>
                  <angle>
                    <activevideoangle>false</activevideoangle>
                    <activeaudioangle>false</activeaudioangle>
                    <clip id="clip-2"/>
                  </angle>
                  <angle>
                    <activevideoangle>false</activevideoangle>
                    <activeaudioangle>false</activeaudioangle>
                    <clip id="clip-3"/>
                  </angle>
                  <angle>
                    <activevideoangle>true</activevideoangle>
                    <activeaudioangle>true</activeaudioangle>
                    <clip id="clip-4"/>
                  </angle>
                  <angle>
                    <activevideoangle>false</activevideoangle>
                    <activeaudioangle>false</activeaudioangle>
                    <clip id="clip-5"/>
                  </angle>
                  <angle>
                    <activevideoangle>false</activevideoangle>
                    <activeaudioangle>false</activeaudioangle>
                    <clip id="clip-6"/>
                  </angle>
                  <angle>
                    <activevideoangle>false</activevideoangle>
                    <activeaudioangle>false</activeaudioangle>
                    <clip id="clip-7"/>
                  </angle>
                  <masterclipid>clip-master</masterclipid>
                </multiclip>
              </clipitem>
              <clipitem id="cs-587">
                <duration>119</duration>
                <rate>
                  <ntsc>false</ntsc>
                  <timebase>25</timebase>
                </rate>
                <in>61839</in>
                <out>61957</out>
                <start>61839</start>
                <end>61957</end>
                <file id="src-3"/>
                <sourcetrack>
                  <mediatype>video</mediatype>
                  <trackindex>1</trackindex>
                </sourcetrack>
                <multiclip id="mcs-587">
                  <name>MCS-587</name>
                  <masterclipid>clip-master</masterclipid>
                  <collapsed>false</collapsed>
                  <angle>
                    <activevideoangle>false</activevideoangle>
                    <activeaudioangle>false</activeaudioangle>
                    <clip id="clip-1"/>
                  </angle>
                  <angle>
                    <activevideoangle>false</activevideoangle>
                    <activeaudioangle>false</activeaudioangle>
                    <clip id="clip-2"/>
                  </angle>
                  <angle>
                    <activevideoangle>true</activevideoangle>
                    <activeaudioangle>true</activeaudioangle>
                    <clip id="clip-3"/>
                  </angle>
                  <angle>
                    <activevideoangle>false</activevideoangle>
                    <activeaudioangle>false</activeaudioangle>
                    <clip id="clip-4"/>
                  </angle>
                  <angle>
                    <activevideoangle>false</activevideoangle>
                    <activeaudioangle>false</activeaudioangle>
                    <clip id="clip-5"/>
                  </angle>
                  <angle>
                    <activevideoangle>false</activevideoangle>
                    <activeaudioangle>false</activeaudioangle>
                    <clip id="clip-6"/>
                  </angle>
                  <angle>
                    <activevideoangle>false</activevideoangle>
                    <activeaudioangle>false</activeaudioangle>
                    <clip id="clip-7"/>
                  </angle>
                  <masterclipid>clip-master</masterclipid>
                </multiclip>
              </clipitem>
              <clipitem id="cs-588">
                <duration>193</duration>
                <rate>
                  <ntsc>false</ntsc>
                  <timebase>25</timebase>
                </rate>
                <in>61957</in>
                <out>62149</out>
                <start>61957</start>
                <end>62149</end>
                <file id="src-2"/>
                <sourcetrack>
                  <mediatype>video</mediatype>
                  <trackindex>1</trackindex>
                </sourcetrack>
                <multiclip id="mcs-588">
                  <name>MCS-588</name>
                  <masterclipid>clip-master</masterclipid>
                  <collapsed>false</collapsed>
                  <angle>
                    <activevideoangle>false</activevideoangle>
                    <activeaudioangle>false</activeaudioangle>
                    <clip id="clip-1"/>
                  </angle>
                  <angle>
                    <activevideoangle>true</activevideoangle>
                    <activeaudioangle>true</activeaudioangle>
                    <clip id="clip-2"/>
                  </angle>
                  <angle>
                    <activevideoangle>false</activevideoangle>
                    <activeaudioangle>false</activeaudioangle>
                    <clip id="clip-3"/>
                  </angle>
                  <angle>
                    <activevideoangle>false</activevideoangle>
                    <activeaudioangle>false</activeaudioangle>
                    <clip id="clip-4"/>
                  </angle>
                  <angle>
                    <activevideoangle>false</activevideoangle>
                    <activeaudioangle>false</activeaudioangle>
                    <clip id="clip-5"/>
                  </angle>
                  <angle>
                    <activevideoangle>false</activevideoangle>
                    <activeaudioangle>false</activeaudioangle>
                    <clip id="clip-6"/>
                  </angle>
                  <angle>
                    <activevideoangle>false</activevideoangle>
                    <activeaudioangle>false</activeaudioangle>
                    <clip id="clip-7"/>
                  </angle>
                  <masterclipid>clip-master</masterclipid>
                </multiclip>
              </clipitem>
              <clipitem id="cs-589">
                <duration>100</duration>
                <rate>
                  <ntsc>false</ntsc>
                  <timebase>25</timebase>
                </rate>
                <in>62149</in>
                <out>62248</out>
                <start>62149</start>
                <end>62248</end>
                <file id="src-3"/>
                <sourcetrack>
                  <mediatype>video</mediatype>
                  <trackindex>1</trackindex>
                </sourcetrack>
                <multiclip id="mcs-589">
                  <name>MCS-589</name>
                  <masterclipid>clip-master</masterclipid>
                  <collapsed>false</collapsed>
                  <angle>
                    <activevideoangle>false</activevideoangle>
                    <activeaudioangle>false</activeaudioangle>
                    <clip id="clip-1"/>
                  </angle>
                  <angle>
                    <activevideoangle>false</activevideoangle>
                    <activeaudioangle>false</activeaudioangle>
                    <clip id="clip-2"/>
                  </angle>
                  <angle>
                    <activevideoangle>true</activevideoangle>
                    <activeaudioangle>true</activeaudioangle>
                    <clip id="clip-3"/>
                  </angle>
                  <angle>
                    <activevideoangle>false</activevideoangle>
                    <activeaudioangle>false</activeaudioangle>
                    <clip id="clip-4"/>
                  </angle>
                  <angle>
                    <activevideoangle>false</activevideoangle>
                    <activeaudioangle>false</activeaudioangle>
                    <clip id="clip-5"/>
                  </angle>
                  <angle>
                    <activevideoangle>false</activevideoangle>
                    <activeaudioangle>false</activeaudioangle>
                    <clip id="clip-6"/>
                  </angle>
                  <angle>
                    <activevideoangle>false</activevideoangle>
                    <activeaudioangle>false</activeaudioangle>
                    <clip id="clip-7"/>
                  </angle>
                  <masterclipid>clip-master</masterclipid>
                </multiclip>
              </clipitem>
              <clipitem id="cs-590">
                <duration>217</duration>
                <rate>
                  <ntsc>false</ntsc>
                  <timebase>25</timebase>
                </rate>
                <in>62248</in>
                <out>62464</out>
                <start>62248</start>
                <end>62464</end>
                <file id="src-2"/>
                <sourcetrack>
                  <mediatype>video</mediatype>
                  <trackindex>1</trackindex>
                </sourcetrack>
                <multiclip id="mcs-590">
                  <name>MCS-590</name>
                  <masterclipid>clip-master</masterclipid>
                  <collapsed>false</collapsed>
                  <angle>
                    <activevideoangle>false</activevideoangle>
                    <activeaudioangle>false</activeaudioangle>
                    <clip id="clip-1"/>
                  </angle>
                  <angle>
                    <activevideoangle>true</activevideoangle>
                    <activeaudioangle>true</activeaudioangle>
                    <clip id="clip-2"/>
                  </angle>
                  <angle>
                    <activevideoangle>false</activevideoangle>
                    <activeaudioangle>false</activeaudioangle>
                    <clip id="clip-3"/>
                  </angle>
                  <angle>
                    <activevideoangle>false</activevideoangle>
                    <activeaudioangle>false</activeaudioangle>
                    <clip id="clip-4"/>
                  </angle>
                  <angle>
                    <activevideoangle>false</activevideoangle>
                    <activeaudioangle>false</activeaudioangle>
                    <clip id="clip-5"/>
                  </angle>
                  <angle>
                    <activevideoangle>false</activevideoangle>
                    <activeaudioangle>false</activeaudioangle>
                    <clip id="clip-6"/>
                  </angle>
                  <angle>
                    <activevideoangle>false</activevideoangle>
                    <activeaudioangle>false</activeaudioangle>
                    <clip id="clip-7"/>
                  </angle>
                  <masterclipid>clip-master</masterclipid>
                </multiclip>
              </clipitem>
              <clipitem id="cs-591">
                <duration>138</duration>
                <rate>
                  <ntsc>false</ntsc>
                  <timebase>25</timebase>
                </rate>
                <in>62464</in>
                <out>62601</out>
                <start>62464</start>
                <end>62601</end>
                <file id="src-4"/>
                <sourcetrack>
                  <mediatype>video</mediatype>
                  <trackindex>1</trackindex>
                </sourcetrack>
                <multiclip id="mcs-591">
                  <name>MCS-591</name>
                  <masterclipid>clip-master</masterclipid>
                  <collapsed>false</collapsed>
                  <angle>
                    <activevideoangle>false</activevideoangle>
                    <activeaudioangle>false</activeaudioangle>
                    <clip id="clip-1"/>
                  </angle>
                  <angle>
                    <activevideoangle>false</activevideoangle>
                    <activeaudioangle>false</activeaudioangle>
                    <clip id="clip-2"/>
                  </angle>
                  <angle>
                    <activevideoangle>false</activevideoangle>
                    <activeaudioangle>false</activeaudioangle>
                    <clip id="clip-3"/>
                  </angle>
                  <angle>
                    <activevideoangle>true</activevideoangle>
                    <activeaudioangle>true</activeaudioangle>
                    <clip id="clip-4"/>
                  </angle>
                  <angle>
                    <activevideoangle>false</activevideoangle>
                    <activeaudioangle>false</activeaudioangle>
                    <clip id="clip-5"/>
                  </angle>
                  <angle>
                    <activevideoangle>false</activevideoangle>
                    <activeaudioangle>false</activeaudioangle>
                    <clip id="clip-6"/>
                  </angle>
                  <angle>
                    <activevideoangle>false</activevideoangle>
                    <activeaudioangle>false</activeaudioangle>
                    <clip id="clip-7"/>
                  </angle>
                  <masterclipid>clip-master</masterclipid>
                </multiclip>
              </clipitem>
              <clipitem id="cs-592">
                <duration>210</duration>
                <rate>
                  <ntsc>false</ntsc>
                  <timebase>25</timebase>
                </rate>
                <in>62601</in>
                <out>62810</out>
                <start>62601</start>
                <end>62810</end>
                <file id="src-2"/>
                <sourcetrack>
                  <mediatype>video</mediatype>
                  <trackindex>1</trackindex>
                </sourcetrack>
                <multiclip id="mcs-592">
                  <name>MCS-592</name>
                  <masterclipid>clip-master</masterclipid>
                  <collapsed>false</collapsed>
                  <angle>
                    <activevideoangle>false</activevideoangle>
                    <activeaudioangle>false</activeaudioangle>
                    <clip id="clip-1"/>
                  </angle>
                  <angle>
                    <activevideoangle>true</activevideoangle>
                    <activeaudioangle>true</activeaudioangle>
                    <clip id="clip-2"/>
                  </angle>
                  <angle>
                    <activevideoangle>false</activevideoangle>
                    <activeaudioangle>false</activeaudioangle>
                    <clip id="clip-3"/>
                  </angle>
                  <angle>
                    <activevideoangle>false</activevideoangle>
                    <activeaudioangle>false</activeaudioangle>
                    <clip id="clip-4"/>
                  </angle>
                  <angle>
                    <activevideoangle>false</activevideoangle>
                    <activeaudioangle>false</activeaudioangle>
                    <clip id="clip-5"/>
                  </angle>
                  <angle>
                    <activevideoangle>false</activevideoangle>
                    <activeaudioangle>false</activeaudioangle>
                    <clip id="clip-6"/>
                  </angle>
                  <angle>
                    <activevideoangle>false</activevideoangle>
                    <activeaudioangle>false</activeaudioangle>
                    <clip id="clip-7"/>
                  </angle>
                  <masterclipid>clip-master</masterclipid>
                </multiclip>
              </clipitem>
              <clipitem id="cs-593">
                <duration>101</duration>
                <rate>
                  <ntsc>false</ntsc>
                  <timebase>25</timebase>
                </rate>
                <in>62810</in>
                <out>62910</out>
                <start>62810</start>
                <end>62910</end>
                <file id="src-3"/>
                <sourcetrack>
                  <mediatype>video</mediatype>
                  <trackindex>1</trackindex>
                </sourcetrack>
                <multiclip id="mcs-593">
                  <name>MCS-593</name>
                  <masterclipid>clip-master</masterclipid>
                  <collapsed>false</collapsed>
                  <angle>
                    <activevideoangle>false</activevideoangle>
                    <activeaudioangle>false</activeaudioangle>
                    <clip id="clip-1"/>
                  </angle>
                  <angle>
                    <activevideoangle>false</activevideoangle>
                    <activeaudioangle>false</activeaudioangle>
                    <clip id="clip-2"/>
                  </angle>
                  <angle>
                    <activevideoangle>true</activevideoangle>
                    <activeaudioangle>true</activeaudioangle>
                    <clip id="clip-3"/>
                  </angle>
                  <angle>
                    <activevideoangle>false</activevideoangle>
                    <activeaudioangle>false</activeaudioangle>
                    <clip id="clip-4"/>
                  </angle>
                  <angle>
                    <activevideoangle>false</activevideoangle>
                    <activeaudioangle>false</activeaudioangle>
                    <clip id="clip-5"/>
                  </angle>
                  <angle>
                    <activevideoangle>false</activevideoangle>
                    <activeaudioangle>false</activeaudioangle>
                    <clip id="clip-6"/>
                  </angle>
                  <angle>
                    <activevideoangle>false</activevideoangle>
                    <activeaudioangle>false</activeaudioangle>
                    <clip id="clip-7"/>
                  </angle>
                  <masterclipid>clip-master</masterclipid>
                </multiclip>
              </clipitem>
              <clipitem id="cs-594">
                <duration>176</duration>
                <rate>
                  <ntsc>false</ntsc>
                  <timebase>25</timebase>
                </rate>
                <in>62910</in>
                <out>63085</out>
                <start>62910</start>
                <end>63085</end>
                <file id="src-2"/>
                <sourcetrack>
                  <mediatype>video</mediatype>
                  <trackindex>1</trackindex>
                </sourcetrack>
                <multiclip id="mcs-594">
                  <name>MCS-594</name>
                  <masterclipid>clip-master</masterclipid>
                  <collapsed>false</collapsed>
                  <angle>
                    <activevideoangle>false</activevideoangle>
                    <activeaudioangle>false</activeaudioangle>
                    <clip id="clip-1"/>
                  </angle>
                  <angle>
                    <activevideoangle>true</activevideoangle>
                    <activeaudioangle>true</activeaudioangle>
                    <clip id="clip-2"/>
                  </angle>
                  <angle>
                    <activevideoangle>false</activevideoangle>
                    <activeaudioangle>false</activeaudioangle>
                    <clip id="clip-3"/>
                  </angle>
                  <angle>
                    <activevideoangle>false</activevideoangle>
                    <activeaudioangle>false</activeaudioangle>
                    <clip id="clip-4"/>
                  </angle>
                  <angle>
                    <activevideoangle>false</activevideoangle>
                    <activeaudioangle>false</activeaudioangle>
                    <clip id="clip-5"/>
                  </angle>
                  <angle>
                    <activevideoangle>false</activevideoangle>
                    <activeaudioangle>false</activeaudioangle>
                    <clip id="clip-6"/>
                  </angle>
                  <angle>
                    <activevideoangle>false</activevideoangle>
                    <activeaudioangle>false</activeaudioangle>
                    <clip id="clip-7"/>
                  </angle>
                  <masterclipid>clip-master</masterclipid>
                </multiclip>
              </clipitem>
              <clipitem id="cs-595">
                <duration>139</duration>
                <rate>
                  <ntsc>false</ntsc>
                  <timebase>25</timebase>
                </rate>
                <in>63085</in>
                <out>63223</out>
                <start>63085</start>
                <end>63223</end>
                <file id="src-4"/>
                <sourcetrack>
                  <mediatype>video</mediatype>
                  <trackindex>1</trackindex>
                </sourcetrack>
                <multiclip id="mcs-595">
                  <name>MCS-595</name>
                  <masterclipid>clip-master</masterclipid>
                  <collapsed>false</collapsed>
                  <angle>
                    <activevideoangle>false</activevideoangle>
                    <activeaudioangle>false</activeaudioangle>
                    <clip id="clip-1"/>
                  </angle>
                  <angle>
                    <activevideoangle>false</activevideoangle>
                    <activeaudioangle>false</activeaudioangle>
                    <clip id="clip-2"/>
                  </angle>
                  <angle>
                    <activevideoangle>false</activevideoangle>
                    <activeaudioangle>false</activeaudioangle>
                    <clip id="clip-3"/>
                  </angle>
                  <angle>
                    <activevideoangle>true</activevideoangle>
                    <activeaudioangle>true</activeaudioangle>
                    <clip id="clip-4"/>
                  </angle>
                  <angle>
                    <activevideoangle>false</activevideoangle>
                    <activeaudioangle>false</activeaudioangle>
                    <clip id="clip-5"/>
                  </angle>
                  <angle>
                    <activevideoangle>false</activevideoangle>
                    <activeaudioangle>false</activeaudioangle>
                    <clip id="clip-6"/>
                  </angle>
                  <angle>
                    <activevideoangle>false</activevideoangle>
                    <activeaudioangle>false</activeaudioangle>
                    <clip id="clip-7"/>
                  </angle>
                  <masterclipid>clip-master</masterclipid>
                </multiclip>
              </clipitem>
              <clipitem id="cs-596">
                <duration>105</duration>
                <rate>
                  <ntsc>false</ntsc>
                  <timebase>25</timebase>
                </rate>
                <in>63223</in>
                <out>63327</out>
                <start>63223</start>
                <end>63327</end>
                <file id="src-2"/>
                <sourcetrack>
                  <mediatype>video</mediatype>
                  <trackindex>1</trackindex>
                </sourcetrack>
                <multiclip id="mcs-596">
                  <name>MCS-596</name>
                  <masterclipid>clip-master</masterclipid>
                  <collapsed>false</collapsed>
                  <angle>
                    <activevideoangle>false</activevideoangle>
                    <activeaudioangle>false</activeaudioangle>
                    <clip id="clip-1"/>
                  </angle>
                  <angle>
                    <activevideoangle>true</activevideoangle>
                    <activeaudioangle>true</activeaudioangle>
                    <clip id="clip-2"/>
                  </angle>
                  <angle>
                    <activevideoangle>false</activevideoangle>
                    <activeaudioangle>false</activeaudioangle>
                    <clip id="clip-3"/>
                  </angle>
                  <angle>
                    <activevideoangle>false</activevideoangle>
                    <activeaudioangle>false</activeaudioangle>
                    <clip id="clip-4"/>
                  </angle>
                  <angle>
                    <activevideoangle>false</activevideoangle>
                    <activeaudioangle>false</activeaudioangle>
                    <clip id="clip-5"/>
                  </angle>
                  <angle>
                    <activevideoangle>false</activevideoangle>
                    <activeaudioangle>false</activeaudioangle>
                    <clip id="clip-6"/>
                  </angle>
                  <angle>
                    <activevideoangle>false</activevideoangle>
                    <activeaudioangle>false</activeaudioangle>
                    <clip id="clip-7"/>
                  </angle>
                  <masterclipid>clip-master</masterclipid>
                </multiclip>
              </clipitem>
              <clipitem id="cs-597">
                <duration>130</duration>
                <rate>
                  <ntsc>false</ntsc>
                  <timebase>25</timebase>
                </rate>
                <in>63327</in>
                <out>63456</out>
                <start>63327</start>
                <end>63456</end>
                <file id="src-3"/>
                <sourcetrack>
                  <mediatype>video</mediatype>
                  <trackindex>1</trackindex>
                </sourcetrack>
                <multiclip id="mcs-597">
                  <name>MCS-597</name>
                  <masterclipid>clip-master</masterclipid>
                  <collapsed>false</collapsed>
                  <angle>
                    <activevideoangle>false</activevideoangle>
                    <activeaudioangle>false</activeaudioangle>
                    <clip id="clip-1"/>
                  </angle>
                  <angle>
                    <activevideoangle>false</activevideoangle>
                    <activeaudioangle>false</activeaudioangle>
                    <clip id="clip-2"/>
                  </angle>
                  <angle>
                    <activevideoangle>true</activevideoangle>
                    <activeaudioangle>true</activeaudioangle>
                    <clip id="clip-3"/>
                  </angle>
                  <angle>
                    <activevideoangle>false</activevideoangle>
                    <activeaudioangle>false</activeaudioangle>
                    <clip id="clip-4"/>
                  </angle>
                  <angle>
                    <activevideoangle>false</activevideoangle>
                    <activeaudioangle>false</activeaudioangle>
                    <clip id="clip-5"/>
                  </angle>
                  <angle>
                    <activevideoangle>false</activevideoangle>
                    <activeaudioangle>false</activeaudioangle>
                    <clip id="clip-6"/>
                  </angle>
                  <angle>
                    <activevideoangle>false</activevideoangle>
                    <activeaudioangle>false</activeaudioangle>
                    <clip id="clip-7"/>
                  </angle>
                  <masterclipid>clip-master</masterclipid>
                </multiclip>
              </clipitem>
              <clipitem id="cs-598">
                <duration>137</duration>
                <rate>
                  <ntsc>false</ntsc>
                  <timebase>25</timebase>
                </rate>
                <in>63456</in>
                <out>63592</out>
                <start>63456</start>
                <end>63592</end>
                <file id="src-2"/>
                <sourcetrack>
                  <mediatype>video</mediatype>
                  <trackindex>1</trackindex>
                </sourcetrack>
                <multiclip id="mcs-598">
                  <name>MCS-598</name>
                  <masterclipid>clip-master</masterclipid>
                  <collapsed>false</collapsed>
                  <angle>
                    <activevideoangle>false</activevideoangle>
                    <activeaudioangle>false</activeaudioangle>
                    <clip id="clip-1"/>
                  </angle>
                  <angle>
                    <activevideoangle>true</activevideoangle>
                    <activeaudioangle>true</activeaudioangle>
                    <clip id="clip-2"/>
                  </angle>
                  <angle>
                    <activevideoangle>false</activevideoangle>
                    <activeaudioangle>false</activeaudioangle>
                    <clip id="clip-3"/>
                  </angle>
                  <angle>
                    <activevideoangle>false</activevideoangle>
                    <activeaudioangle>false</activeaudioangle>
                    <clip id="clip-4"/>
                  </angle>
                  <angle>
                    <activevideoangle>false</activevideoangle>
                    <activeaudioangle>false</activeaudioangle>
                    <clip id="clip-5"/>
                  </angle>
                  <angle>
                    <activevideoangle>false</activevideoangle>
                    <activeaudioangle>false</activeaudioangle>
                    <clip id="clip-6"/>
                  </angle>
                  <angle>
                    <activevideoangle>false</activevideoangle>
                    <activeaudioangle>false</activeaudioangle>
                    <clip id="clip-7"/>
                  </angle>
                  <masterclipid>clip-master</masterclipid>
                </multiclip>
              </clipitem>
              <clipitem id="cs-599">
                <duration>60</duration>
                <rate>
                  <ntsc>false</ntsc>
                  <timebase>25</timebase>
                </rate>
                <in>63592</in>
                <out>63651</out>
                <start>63592</start>
                <end>63651</end>
                <file id="src-4"/>
                <sourcetrack>
                  <mediatype>video</mediatype>
                  <trackindex>1</trackindex>
                </sourcetrack>
                <multiclip id="mcs-599">
                  <name>MCS-599</name>
                  <masterclipid>clip-master</masterclipid>
                  <collapsed>false</collapsed>
                  <angle>
                    <activevideoangle>false</activevideoangle>
                    <activeaudioangle>false</activeaudioangle>
                    <clip id="clip-1"/>
                  </angle>
                  <angle>
                    <activevideoangle>false</activevideoangle>
                    <activeaudioangle>false</activeaudioangle>
                    <clip id="clip-2"/>
                  </angle>
                  <angle>
                    <activevideoangle>false</activevideoangle>
                    <activeaudioangle>false</activeaudioangle>
                    <clip id="clip-3"/>
                  </angle>
                  <angle>
                    <activevideoangle>true</activevideoangle>
                    <activeaudioangle>true</activeaudioangle>
                    <clip id="clip-4"/>
                  </angle>
                  <angle>
                    <activevideoangle>false</activevideoangle>
                    <activeaudioangle>false</activeaudioangle>
                    <clip id="clip-5"/>
                  </angle>
                  <angle>
                    <activevideoangle>false</activevideoangle>
                    <activeaudioangle>false</activeaudioangle>
                    <clip id="clip-6"/>
                  </angle>
                  <angle>
                    <activevideoangle>false</activevideoangle>
                    <activeaudioangle>false</activeaudioangle>
                    <clip id="clip-7"/>
                  </angle>
                  <masterclipid>clip-master</masterclipid>
                </multiclip>
              </clipitem>
              <clipitem id="cs-600">
                <duration>59</duration>
                <rate>
                  <ntsc>false</ntsc>
                  <timebase>25</timebase>
                </rate>
                <in>63651</in>
                <out>63709</out>
                <start>63651</start>
                <end>63709</end>
                <file id="src-3"/>
                <sourcetrack>
                  <mediatype>video</mediatype>
                  <trackindex>1</trackindex>
                </sourcetrack>
                <multiclip id="mcs-600">
                  <name>MCS-600</name>
                  <masterclipid>clip-master</masterclipid>
                  <collapsed>false</collapsed>
                  <angle>
                    <activevideoangle>false</activevideoangle>
                    <activeaudioangle>false</activeaudioangle>
                    <clip id="clip-1"/>
                  </angle>
                  <angle>
                    <activevideoangle>false</activevideoangle>
                    <activeaudioangle>false</activeaudioangle>
                    <clip id="clip-2"/>
                  </angle>
                  <angle>
                    <activevideoangle>true</activevideoangle>
                    <activeaudioangle>true</activeaudioangle>
                    <clip id="clip-3"/>
                  </angle>
                  <angle>
                    <activevideoangle>false</activevideoangle>
                    <activeaudioangle>false</activeaudioangle>
                    <clip id="clip-4"/>
                  </angle>
                  <angle>
                    <activevideoangle>false</activevideoangle>
                    <activeaudioangle>false</activeaudioangle>
                    <clip id="clip-5"/>
                  </angle>
                  <angle>
                    <activevideoangle>false</activevideoangle>
                    <activeaudioangle>false</activeaudioangle>
                    <clip id="clip-6"/>
                  </angle>
                  <angle>
                    <activevideoangle>false</activevideoangle>
                    <activeaudioangle>false</activeaudioangle>
                    <clip id="clip-7"/>
                  </angle>
                  <masterclipid>clip-master</masterclipid>
                </multiclip>
              </clipitem>
              <clipitem id="cs-601">
                <duration>200</duration>
                <rate>
                  <ntsc>false</ntsc>
                  <timebase>25</timebase>
                </rate>
                <in>63709</in>
                <out>63908</out>
                <start>63709</start>
                <end>63908</end>
                <file id="src-2"/>
                <sourcetrack>
                  <mediatype>video</mediatype>
                  <trackindex>1</trackindex>
                </sourcetrack>
                <multiclip id="mcs-601">
                  <name>MCS-601</name>
                  <masterclipid>clip-master</masterclipid>
                  <collapsed>false</collapsed>
                  <angle>
                    <activevideoangle>false</activevideoangle>
                    <activeaudioangle>false</activeaudioangle>
                    <clip id="clip-1"/>
                  </angle>
                  <angle>
                    <activevideoangle>true</activevideoangle>
                    <activeaudioangle>true</activeaudioangle>
                    <clip id="clip-2"/>
                  </angle>
                  <angle>
                    <activevideoangle>false</activevideoangle>
                    <activeaudioangle>false</activeaudioangle>
                    <clip id="clip-3"/>
                  </angle>
                  <angle>
                    <activevideoangle>false</activevideoangle>
                    <activeaudioangle>false</activeaudioangle>
                    <clip id="clip-4"/>
                  </angle>
                  <angle>
                    <activevideoangle>false</activevideoangle>
                    <activeaudioangle>false</activeaudioangle>
                    <clip id="clip-5"/>
                  </angle>
                  <angle>
                    <activevideoangle>false</activevideoangle>
                    <activeaudioangle>false</activeaudioangle>
                    <clip id="clip-6"/>
                  </angle>
                  <angle>
                    <activevideoangle>false</activevideoangle>
                    <activeaudioangle>false</activeaudioangle>
                    <clip id="clip-7"/>
                  </angle>
                  <masterclipid>clip-master</masterclipid>
                </multiclip>
              </clipitem>
              <clipitem id="cs-602">
                <duration>151</duration>
                <rate>
                  <ntsc>false</ntsc>
                  <timebase>25</timebase>
                </rate>
                <in>63908</in>
                <out>64058</out>
                <start>63908</start>
                <end>64058</end>
                <file id="src-4"/>
                <sourcetrack>
                  <mediatype>video</mediatype>
                  <trackindex>1</trackindex>
                </sourcetrack>
                <multiclip id="mcs-602">
                  <name>MCS-602</name>
                  <masterclipid>clip-master</masterclipid>
                  <collapsed>false</collapsed>
                  <angle>
                    <activevideoangle>false</activevideoangle>
                    <activeaudioangle>false</activeaudioangle>
                    <clip id="clip-1"/>
                  </angle>
                  <angle>
                    <activevideoangle>false</activevideoangle>
                    <activeaudioangle>false</activeaudioangle>
                    <clip id="clip-2"/>
                  </angle>
                  <angle>
                    <activevideoangle>false</activevideoangle>
                    <activeaudioangle>false</activeaudioangle>
                    <clip id="clip-3"/>
                  </angle>
                  <angle>
                    <activevideoangle>true</activevideoangle>
                    <activeaudioangle>true</activeaudioangle>
                    <clip id="clip-4"/>
                  </angle>
                  <angle>
                    <activevideoangle>false</activevideoangle>
                    <activeaudioangle>false</activeaudioangle>
                    <clip id="clip-5"/>
                  </angle>
                  <angle>
                    <activevideoangle>false</activevideoangle>
                    <activeaudioangle>false</activeaudioangle>
                    <clip id="clip-6"/>
                  </angle>
                  <angle>
                    <activevideoangle>false</activevideoangle>
                    <activeaudioangle>false</activeaudioangle>
                    <clip id="clip-7"/>
                  </angle>
                  <masterclipid>clip-master</masterclipid>
                </multiclip>
              </clipitem>
              <clipitem id="cs-603">
                <duration>200</duration>
                <rate>
                  <ntsc>false</ntsc>
                  <timebase>25</timebase>
                </rate>
                <in>64058</in>
                <out>64257</out>
                <start>64058</start>
                <end>64257</end>
                <file id="src-2"/>
                <sourcetrack>
                  <mediatype>video</mediatype>
                  <trackindex>1</trackindex>
                </sourcetrack>
                <multiclip id="mcs-603">
                  <name>MCS-603</name>
                  <masterclipid>clip-master</masterclipid>
                  <collapsed>false</collapsed>
                  <angle>
                    <activevideoangle>false</activevideoangle>
                    <activeaudioangle>false</activeaudioangle>
                    <clip id="clip-1"/>
                  </angle>
                  <angle>
                    <activevideoangle>true</activevideoangle>
                    <activeaudioangle>true</activeaudioangle>
                    <clip id="clip-2"/>
                  </angle>
                  <angle>
                    <activevideoangle>false</activevideoangle>
                    <activeaudioangle>false</activeaudioangle>
                    <clip id="clip-3"/>
                  </angle>
                  <angle>
                    <activevideoangle>false</activevideoangle>
                    <activeaudioangle>false</activeaudioangle>
                    <clip id="clip-4"/>
                  </angle>
                  <angle>
                    <activevideoangle>false</activevideoangle>
                    <activeaudioangle>false</activeaudioangle>
                    <clip id="clip-5"/>
                  </angle>
                  <angle>
                    <activevideoangle>false</activevideoangle>
                    <activeaudioangle>false</activeaudioangle>
                    <clip id="clip-6"/>
                  </angle>
                  <angle>
                    <activevideoangle>false</activevideoangle>
                    <activeaudioangle>false</activeaudioangle>
                    <clip id="clip-7"/>
                  </angle>
                  <masterclipid>clip-master</masterclipid>
                </multiclip>
              </clipitem>
              <clipitem id="cs-604">
                <duration>230</duration>
                <rate>
                  <ntsc>false</ntsc>
                  <timebase>25</timebase>
                </rate>
                <in>64257</in>
                <out>64486</out>
                <start>64257</start>
                <end>64486</end>
                <file id="src-3"/>
                <sourcetrack>
                  <mediatype>video</mediatype>
                  <trackindex>1</trackindex>
                </sourcetrack>
                <multiclip id="mcs-604">
                  <name>MCS-604</name>
                  <masterclipid>clip-master</masterclipid>
                  <collapsed>false</collapsed>
                  <angle>
                    <activevideoangle>false</activevideoangle>
                    <activeaudioangle>false</activeaudioangle>
                    <clip id="clip-1"/>
                  </angle>
                  <angle>
                    <activevideoangle>false</activevideoangle>
                    <activeaudioangle>false</activeaudioangle>
                    <clip id="clip-2"/>
                  </angle>
                  <angle>
                    <activevideoangle>true</activevideoangle>
                    <activeaudioangle>true</activeaudioangle>
                    <clip id="clip-3"/>
                  </angle>
                  <angle>
                    <activevideoangle>false</activevideoangle>
                    <activeaudioangle>false</activeaudioangle>
                    <clip id="clip-4"/>
                  </angle>
                  <angle>
                    <activevideoangle>false</activevideoangle>
                    <activeaudioangle>false</activeaudioangle>
                    <clip id="clip-5"/>
                  </angle>
                  <angle>
                    <activevideoangle>false</activevideoangle>
                    <activeaudioangle>false</activeaudioangle>
                    <clip id="clip-6"/>
                  </angle>
                  <angle>
                    <activevideoangle>false</activevideoangle>
                    <activeaudioangle>false</activeaudioangle>
                    <clip id="clip-7"/>
                  </angle>
                  <masterclipid>clip-master</masterclipid>
                </multiclip>
              </clipitem>
              <clipitem id="cs-605">
                <duration>121</duration>
                <rate>
                  <ntsc>false</ntsc>
                  <timebase>25</timebase>
                </rate>
                <in>64486</in>
                <out>64606</out>
                <start>64486</start>
                <end>64606</end>
                <file id="src-2"/>
                <sourcetrack>
                  <mediatype>video</mediatype>
                  <trackindex>1</trackindex>
                </sourcetrack>
                <multiclip id="mcs-605">
                  <name>MCS-605</name>
                  <masterclipid>clip-master</masterclipid>
                  <collapsed>false</collapsed>
                  <angle>
                    <activevideoangle>false</activevideoangle>
                    <activeaudioangle>false</activeaudioangle>
                    <clip id="clip-1"/>
                  </angle>
                  <angle>
                    <activevideoangle>true</activevideoangle>
                    <activeaudioangle>true</activeaudioangle>
                    <clip id="clip-2"/>
                  </angle>
                  <angle>
                    <activevideoangle>false</activevideoangle>
                    <activeaudioangle>false</activeaudioangle>
                    <clip id="clip-3"/>
                  </angle>
                  <angle>
                    <activevideoangle>false</activevideoangle>
                    <activeaudioangle>false</activeaudioangle>
                    <clip id="clip-4"/>
                  </angle>
                  <angle>
                    <activevideoangle>false</activevideoangle>
                    <activeaudioangle>false</activeaudioangle>
                    <clip id="clip-5"/>
                  </angle>
                  <angle>
                    <activevideoangle>false</activevideoangle>
                    <activeaudioangle>false</activeaudioangle>
                    <clip id="clip-6"/>
                  </angle>
                  <angle>
                    <activevideoangle>false</activevideoangle>
                    <activeaudioangle>false</activeaudioangle>
                    <clip id="clip-7"/>
                  </angle>
                  <masterclipid>clip-master</masterclipid>
                </multiclip>
              </clipitem>
              <clipitem id="cs-606">
                <duration>55</duration>
                <rate>
                  <ntsc>false</ntsc>
                  <timebase>25</timebase>
                </rate>
                <in>64606</in>
                <out>64660</out>
                <start>64606</start>
                <end>64660</end>
                <file id="src-3"/>
                <sourcetrack>
                  <mediatype>video</mediatype>
                  <trackindex>1</trackindex>
                </sourcetrack>
                <multiclip id="mcs-606">
                  <name>MCS-606</name>
                  <masterclipid>clip-master</masterclipid>
                  <collapsed>false</collapsed>
                  <angle>
                    <activevideoangle>false</activevideoangle>
                    <activeaudioangle>false</activeaudioangle>
                    <clip id="clip-1"/>
                  </angle>
                  <angle>
                    <activevideoangle>false</activevideoangle>
                    <activeaudioangle>false</activeaudioangle>
                    <clip id="clip-2"/>
                  </angle>
                  <angle>
                    <activevideoangle>true</activevideoangle>
                    <activeaudioangle>true</activeaudioangle>
                    <clip id="clip-3"/>
                  </angle>
                  <angle>
                    <activevideoangle>false</activevideoangle>
                    <activeaudioangle>false</activeaudioangle>
                    <clip id="clip-4"/>
                  </angle>
                  <angle>
                    <activevideoangle>false</activevideoangle>
                    <activeaudioangle>false</activeaudioangle>
                    <clip id="clip-5"/>
                  </angle>
                  <angle>
                    <activevideoangle>false</activevideoangle>
                    <activeaudioangle>false</activeaudioangle>
                    <clip id="clip-6"/>
                  </angle>
                  <angle>
                    <activevideoangle>false</activevideoangle>
                    <activeaudioangle>false</activeaudioangle>
                    <clip id="clip-7"/>
                  </angle>
                  <masterclipid>clip-master</masterclipid>
                </multiclip>
              </clipitem>
              <clipitem id="cs-607">
                <duration>64</duration>
                <rate>
                  <ntsc>false</ntsc>
                  <timebase>25</timebase>
                </rate>
                <in>64660</in>
                <out>64723</out>
                <start>64660</start>
                <end>64723</end>
                <file id="src-4"/>
                <sourcetrack>
                  <mediatype>video</mediatype>
                  <trackindex>1</trackindex>
                </sourcetrack>
                <multiclip id="mcs-607">
                  <name>MCS-607</name>
                  <masterclipid>clip-master</masterclipid>
                  <collapsed>false</collapsed>
                  <angle>
                    <activevideoangle>false</activevideoangle>
                    <activeaudioangle>false</activeaudioangle>
                    <clip id="clip-1"/>
                  </angle>
                  <angle>
                    <activevideoangle>false</activevideoangle>
                    <activeaudioangle>false</activeaudioangle>
                    <clip id="clip-2"/>
                  </angle>
                  <angle>
                    <activevideoangle>false</activevideoangle>
                    <activeaudioangle>false</activeaudioangle>
                    <clip id="clip-3"/>
                  </angle>
                  <angle>
                    <activevideoangle>true</activevideoangle>
                    <activeaudioangle>true</activeaudioangle>
                    <clip id="clip-4"/>
                  </angle>
                  <angle>
                    <activevideoangle>false</activevideoangle>
                    <activeaudioangle>false</activeaudioangle>
                    <clip id="clip-5"/>
                  </angle>
                  <angle>
                    <activevideoangle>false</activevideoangle>
                    <activeaudioangle>false</activeaudioangle>
                    <clip id="clip-6"/>
                  </angle>
                  <angle>
                    <activevideoangle>false</activevideoangle>
                    <activeaudioangle>false</activeaudioangle>
                    <clip id="clip-7"/>
                  </angle>
                  <masterclipid>clip-master</masterclipid>
                </multiclip>
              </clipitem>
              <clipitem id="cs-608">
                <duration>271</duration>
                <rate>
                  <ntsc>false</ntsc>
                  <timebase>25</timebase>
                </rate>
                <in>64723</in>
                <out>64993</out>
                <start>64723</start>
                <end>64993</end>
                <file id="src-2"/>
                <sourcetrack>
                  <mediatype>video</mediatype>
                  <trackindex>1</trackindex>
                </sourcetrack>
                <multiclip id="mcs-608">
                  <name>MCS-608</name>
                  <masterclipid>clip-master</masterclipid>
                  <collapsed>false</collapsed>
                  <angle>
                    <activevideoangle>false</activevideoangle>
                    <activeaudioangle>false</activeaudioangle>
                    <clip id="clip-1"/>
                  </angle>
                  <angle>
                    <activevideoangle>true</activevideoangle>
                    <activeaudioangle>true</activeaudioangle>
                    <clip id="clip-2"/>
                  </angle>
                  <angle>
                    <activevideoangle>false</activevideoangle>
                    <activeaudioangle>false</activeaudioangle>
                    <clip id="clip-3"/>
                  </angle>
                  <angle>
                    <activevideoangle>false</activevideoangle>
                    <activeaudioangle>false</activeaudioangle>
                    <clip id="clip-4"/>
                  </angle>
                  <angle>
                    <activevideoangle>false</activevideoangle>
                    <activeaudioangle>false</activeaudioangle>
                    <clip id="clip-5"/>
                  </angle>
                  <angle>
                    <activevideoangle>false</activevideoangle>
                    <activeaudioangle>false</activeaudioangle>
                    <clip id="clip-6"/>
                  </angle>
                  <angle>
                    <activevideoangle>false</activevideoangle>
                    <activeaudioangle>false</activeaudioangle>
                    <clip id="clip-7"/>
                  </angle>
                  <masterclipid>clip-master</masterclipid>
                </multiclip>
              </clipitem>
              <clipitem id="cs-609">
                <duration>77</duration>
                <rate>
                  <ntsc>false</ntsc>
                  <timebase>25</timebase>
                </rate>
                <in>64993</in>
                <out>65069</out>
                <start>64993</start>
                <end>65069</end>
                <file id="src-1"/>
                <sourcetrack>
                  <mediatype>video</mediatype>
                  <trackindex>1</trackindex>
                </sourcetrack>
                <multiclip id="mcs-609">
                  <name>MCS-609</name>
                  <masterclipid>clip-master</masterclipid>
                  <collapsed>false</collapsed>
                  <angle>
                    <activevideoangle>true</activevideoangle>
                    <activeaudioangle>true</activeaudioangle>
                    <clip id="clip-1"/>
                  </angle>
                  <angle>
                    <activevideoangle>false</activevideoangle>
                    <activeaudioangle>false</activeaudioangle>
                    <clip id="clip-2"/>
                  </angle>
                  <angle>
                    <activevideoangle>false</activevideoangle>
                    <activeaudioangle>false</activeaudioangle>
                    <clip id="clip-3"/>
                  </angle>
                  <angle>
                    <activevideoangle>false</activevideoangle>
                    <activeaudioangle>false</activeaudioangle>
                    <clip id="clip-4"/>
                  </angle>
                  <angle>
                    <activevideoangle>false</activevideoangle>
                    <activeaudioangle>false</activeaudioangle>
                    <clip id="clip-5"/>
                  </angle>
                  <angle>
                    <activevideoangle>false</activevideoangle>
                    <activeaudioangle>false</activeaudioangle>
                    <clip id="clip-6"/>
                  </angle>
                  <angle>
                    <activevideoangle>false</activevideoangle>
                    <activeaudioangle>false</activeaudioangle>
                    <clip id="clip-7"/>
                  </angle>
                  <masterclipid>clip-master</masterclipid>
                </multiclip>
              </clipitem>
              <clipitem id="cs-610">
                <duration>175</duration>
                <rate>
                  <ntsc>false</ntsc>
                  <timebase>25</timebase>
                </rate>
                <in>65069</in>
                <out>65243</out>
                <start>65069</start>
                <end>65243</end>
                <file id="src-2"/>
                <sourcetrack>
                  <mediatype>video</mediatype>
                  <trackindex>1</trackindex>
                </sourcetrack>
                <multiclip id="mcs-610">
                  <name>MCS-610</name>
                  <masterclipid>clip-master</masterclipid>
                  <collapsed>false</collapsed>
                  <angle>
                    <activevideoangle>false</activevideoangle>
                    <activeaudioangle>false</activeaudioangle>
                    <clip id="clip-1"/>
                  </angle>
                  <angle>
                    <activevideoangle>true</activevideoangle>
                    <activeaudioangle>true</activeaudioangle>
                    <clip id="clip-2"/>
                  </angle>
                  <angle>
                    <activevideoangle>false</activevideoangle>
                    <activeaudioangle>false</activeaudioangle>
                    <clip id="clip-3"/>
                  </angle>
                  <angle>
                    <activevideoangle>false</activevideoangle>
                    <activeaudioangle>false</activeaudioangle>
                    <clip id="clip-4"/>
                  </angle>
                  <angle>
                    <activevideoangle>false</activevideoangle>
                    <activeaudioangle>false</activeaudioangle>
                    <clip id="clip-5"/>
                  </angle>
                  <angle>
                    <activevideoangle>false</activevideoangle>
                    <activeaudioangle>false</activeaudioangle>
                    <clip id="clip-6"/>
                  </angle>
                  <angle>
                    <activevideoangle>false</activevideoangle>
                    <activeaudioangle>false</activeaudioangle>
                    <clip id="clip-7"/>
                  </angle>
                  <masterclipid>clip-master</masterclipid>
                </multiclip>
              </clipitem>
              <clipitem id="cs-611">
                <duration>106</duration>
                <rate>
                  <ntsc>false</ntsc>
                  <timebase>25</timebase>
                </rate>
                <in>65243</in>
                <out>65348</out>
                <start>65243</start>
                <end>65348</end>
                <file id="src-5"/>
                <sourcetrack>
                  <mediatype>video</mediatype>
                  <trackindex>1</trackindex>
                </sourcetrack>
                <multiclip id="mcs-611">
                  <name>MCS-611</name>
                  <masterclipid>clip-master</masterclipid>
                  <collapsed>false</collapsed>
                  <angle>
                    <activevideoangle>false</activevideoangle>
                    <activeaudioangle>false</activeaudioangle>
                    <clip id="clip-1"/>
                  </angle>
                  <angle>
                    <activevideoangle>false</activevideoangle>
                    <activeaudioangle>false</activeaudioangle>
                    <clip id="clip-2"/>
                  </angle>
                  <angle>
                    <activevideoangle>false</activevideoangle>
                    <activeaudioangle>false</activeaudioangle>
                    <clip id="clip-3"/>
                  </angle>
                  <angle>
                    <activevideoangle>false</activevideoangle>
                    <activeaudioangle>false</activeaudioangle>
                    <clip id="clip-4"/>
                  </angle>
                  <angle>
                    <activevideoangle>true</activevideoangle>
                    <activeaudioangle>true</activeaudioangle>
                    <clip id="clip-5"/>
                  </angle>
                  <angle>
                    <activevideoangle>false</activevideoangle>
                    <activeaudioangle>false</activeaudioangle>
                    <clip id="clip-6"/>
                  </angle>
                  <angle>
                    <activevideoangle>false</activevideoangle>
                    <activeaudioangle>false</activeaudioangle>
                    <clip id="clip-7"/>
                  </angle>
                  <masterclipid>clip-master</masterclipid>
                </multiclip>
              </clipitem>
              <clipitem id="cs-612">
                <duration>94</duration>
                <rate>
                  <ntsc>false</ntsc>
                  <timebase>25</timebase>
                </rate>
                <in>65348</in>
                <out>65441</out>
                <start>65348</start>
                <end>65441</end>
                <file id="src-2"/>
                <sourcetrack>
                  <mediatype>video</mediatype>
                  <trackindex>1</trackindex>
                </sourcetrack>
                <multiclip id="mcs-612">
                  <name>MCS-612</name>
                  <masterclipid>clip-master</masterclipid>
                  <collapsed>false</collapsed>
                  <angle>
                    <activevideoangle>false</activevideoangle>
                    <activeaudioangle>false</activeaudioangle>
                    <clip id="clip-1"/>
                  </angle>
                  <angle>
                    <activevideoangle>true</activevideoangle>
                    <activeaudioangle>true</activeaudioangle>
                    <clip id="clip-2"/>
                  </angle>
                  <angle>
                    <activevideoangle>false</activevideoangle>
                    <activeaudioangle>false</activeaudioangle>
                    <clip id="clip-3"/>
                  </angle>
                  <angle>
                    <activevideoangle>false</activevideoangle>
                    <activeaudioangle>false</activeaudioangle>
                    <clip id="clip-4"/>
                  </angle>
                  <angle>
                    <activevideoangle>false</activevideoangle>
                    <activeaudioangle>false</activeaudioangle>
                    <clip id="clip-5"/>
                  </angle>
                  <angle>
                    <activevideoangle>false</activevideoangle>
                    <activeaudioangle>false</activeaudioangle>
                    <clip id="clip-6"/>
                  </angle>
                  <angle>
                    <activevideoangle>false</activevideoangle>
                    <activeaudioangle>false</activeaudioangle>
                    <clip id="clip-7"/>
                  </angle>
                  <masterclipid>clip-master</masterclipid>
                </multiclip>
              </clipitem>
              <clipitem id="cs-613">
                <duration>180</duration>
                <rate>
                  <ntsc>false</ntsc>
                  <timebase>25</timebase>
                </rate>
                <in>65441</in>
                <out>65620</out>
                <start>65441</start>
                <end>65620</end>
                <file id="src-3"/>
                <sourcetrack>
                  <mediatype>video</mediatype>
                  <trackindex>1</trackindex>
                </sourcetrack>
                <multiclip id="mcs-613">
                  <name>MCS-613</name>
                  <masterclipid>clip-master</masterclipid>
                  <collapsed>false</collapsed>
                  <angle>
                    <activevideoangle>false</activevideoangle>
                    <activeaudioangle>false</activeaudioangle>
                    <clip id="clip-1"/>
                  </angle>
                  <angle>
                    <activevideoangle>false</activevideoangle>
                    <activeaudioangle>false</activeaudioangle>
                    <clip id="clip-2"/>
                  </angle>
                  <angle>
                    <activevideoangle>true</activevideoangle>
                    <activeaudioangle>true</activeaudioangle>
                    <clip id="clip-3"/>
                  </angle>
                  <angle>
                    <activevideoangle>false</activevideoangle>
                    <activeaudioangle>false</activeaudioangle>
                    <clip id="clip-4"/>
                  </angle>
                  <angle>
                    <activevideoangle>false</activevideoangle>
                    <activeaudioangle>false</activeaudioangle>
                    <clip id="clip-5"/>
                  </angle>
                  <angle>
                    <activevideoangle>false</activevideoangle>
                    <activeaudioangle>false</activeaudioangle>
                    <clip id="clip-6"/>
                  </angle>
                  <angle>
                    <activevideoangle>false</activevideoangle>
                    <activeaudioangle>false</activeaudioangle>
                    <clip id="clip-7"/>
                  </angle>
                  <masterclipid>clip-master</masterclipid>
                </multiclip>
              </clipitem>
              <clipitem id="cs-614">
                <duration>274</duration>
                <rate>
                  <ntsc>false</ntsc>
                  <timebase>25</timebase>
                </rate>
                <in>65620</in>
                <out>65893</out>
                <start>65620</start>
                <end>65893</end>
                <file id="src-2"/>
                <sourcetrack>
                  <mediatype>video</mediatype>
                  <trackindex>1</trackindex>
                </sourcetrack>
                <multiclip id="mcs-614">
                  <name>MCS-614</name>
                  <masterclipid>clip-master</masterclipid>
                  <collapsed>false</collapsed>
                  <angle>
                    <activevideoangle>false</activevideoangle>
                    <activeaudioangle>false</activeaudioangle>
                    <clip id="clip-1"/>
                  </angle>
                  <angle>
                    <activevideoangle>true</activevideoangle>
                    <activeaudioangle>true</activeaudioangle>
                    <clip id="clip-2"/>
                  </angle>
                  <angle>
                    <activevideoangle>false</activevideoangle>
                    <activeaudioangle>false</activeaudioangle>
                    <clip id="clip-3"/>
                  </angle>
                  <angle>
                    <activevideoangle>false</activevideoangle>
                    <activeaudioangle>false</activeaudioangle>
                    <clip id="clip-4"/>
                  </angle>
                  <angle>
                    <activevideoangle>false</activevideoangle>
                    <activeaudioangle>false</activeaudioangle>
                    <clip id="clip-5"/>
                  </angle>
                  <angle>
                    <activevideoangle>false</activevideoangle>
                    <activeaudioangle>false</activeaudioangle>
                    <clip id="clip-6"/>
                  </angle>
                  <angle>
                    <activevideoangle>false</activevideoangle>
                    <activeaudioangle>false</activeaudioangle>
                    <clip id="clip-7"/>
                  </angle>
                  <masterclipid>clip-master</masterclipid>
                </multiclip>
              </clipitem>
              <clipitem id="cs-615">
                <duration>167</duration>
                <rate>
                  <ntsc>false</ntsc>
                  <timebase>25</timebase>
                </rate>
                <in>65893</in>
                <out>66059</out>
                <start>65893</start>
                <end>66059</end>
                <file id="src-4"/>
                <sourcetrack>
                  <mediatype>video</mediatype>
                  <trackindex>1</trackindex>
                </sourcetrack>
                <multiclip id="mcs-615">
                  <name>MCS-615</name>
                  <masterclipid>clip-master</masterclipid>
                  <collapsed>false</collapsed>
                  <angle>
                    <activevideoangle>false</activevideoangle>
                    <activeaudioangle>false</activeaudioangle>
                    <clip id="clip-1"/>
                  </angle>
                  <angle>
                    <activevideoangle>false</activevideoangle>
                    <activeaudioangle>false</activeaudioangle>
                    <clip id="clip-2"/>
                  </angle>
                  <angle>
                    <activevideoangle>false</activevideoangle>
                    <activeaudioangle>false</activeaudioangle>
                    <clip id="clip-3"/>
                  </angle>
                  <angle>
                    <activevideoangle>true</activevideoangle>
                    <activeaudioangle>true</activeaudioangle>
                    <clip id="clip-4"/>
                  </angle>
                  <angle>
                    <activevideoangle>false</activevideoangle>
                    <activeaudioangle>false</activeaudioangle>
                    <clip id="clip-5"/>
                  </angle>
                  <angle>
                    <activevideoangle>false</activevideoangle>
                    <activeaudioangle>false</activeaudioangle>
                    <clip id="clip-6"/>
                  </angle>
                  <angle>
                    <activevideoangle>false</activevideoangle>
                    <activeaudioangle>false</activeaudioangle>
                    <clip id="clip-7"/>
                  </angle>
                  <masterclipid>clip-master</masterclipid>
                </multiclip>
              </clipitem>
              <clipitem id="cs-616">
                <duration>66</duration>
                <rate>
                  <ntsc>false</ntsc>
                  <timebase>25</timebase>
                </rate>
                <in>66059</in>
                <out>66124</out>
                <start>66059</start>
                <end>66124</end>
                <file id="src-2"/>
                <sourcetrack>
                  <mediatype>video</mediatype>
                  <trackindex>1</trackindex>
                </sourcetrack>
                <multiclip id="mcs-616">
                  <name>MCS-616</name>
                  <masterclipid>clip-master</masterclipid>
                  <collapsed>false</collapsed>
                  <angle>
                    <activevideoangle>false</activevideoangle>
                    <activeaudioangle>false</activeaudioangle>
                    <clip id="clip-1"/>
                  </angle>
                  <angle>
                    <activevideoangle>true</activevideoangle>
                    <activeaudioangle>true</activeaudioangle>
                    <clip id="clip-2"/>
                  </angle>
                  <angle>
                    <activevideoangle>false</activevideoangle>
                    <activeaudioangle>false</activeaudioangle>
                    <clip id="clip-3"/>
                  </angle>
                  <angle>
                    <activevideoangle>false</activevideoangle>
                    <activeaudioangle>false</activeaudioangle>
                    <clip id="clip-4"/>
                  </angle>
                  <angle>
                    <activevideoangle>false</activevideoangle>
                    <activeaudioangle>false</activeaudioangle>
                    <clip id="clip-5"/>
                  </angle>
                  <angle>
                    <activevideoangle>false</activevideoangle>
                    <activeaudioangle>false</activeaudioangle>
                    <clip id="clip-6"/>
                  </angle>
                  <angle>
                    <activevideoangle>false</activevideoangle>
                    <activeaudioangle>false</activeaudioangle>
                    <clip id="clip-7"/>
                  </angle>
                  <masterclipid>clip-master</masterclipid>
                </multiclip>
              </clipitem>
              <clipitem id="cs-617">
                <duration>178</duration>
                <rate>
                  <ntsc>false</ntsc>
                  <timebase>25</timebase>
                </rate>
                <in>66124</in>
                <out>66301</out>
                <start>66124</start>
                <end>66301</end>
                <file id="src-3"/>
                <sourcetrack>
                  <mediatype>video</mediatype>
                  <trackindex>1</trackindex>
                </sourcetrack>
                <multiclip id="mcs-617">
                  <name>MCS-617</name>
                  <masterclipid>clip-master</masterclipid>
                  <collapsed>false</collapsed>
                  <angle>
                    <activevideoangle>false</activevideoangle>
                    <activeaudioangle>false</activeaudioangle>
                    <clip id="clip-1"/>
                  </angle>
                  <angle>
                    <activevideoangle>false</activevideoangle>
                    <activeaudioangle>false</activeaudioangle>
                    <clip id="clip-2"/>
                  </angle>
                  <angle>
                    <activevideoangle>true</activevideoangle>
                    <activeaudioangle>true</activeaudioangle>
                    <clip id="clip-3"/>
                  </angle>
                  <angle>
                    <activevideoangle>false</activevideoangle>
                    <activeaudioangle>false</activeaudioangle>
                    <clip id="clip-4"/>
                  </angle>
                  <angle>
                    <activevideoangle>false</activevideoangle>
                    <activeaudioangle>false</activeaudioangle>
                    <clip id="clip-5"/>
                  </angle>
                  <angle>
                    <activevideoangle>false</activevideoangle>
                    <activeaudioangle>false</activeaudioangle>
                    <clip id="clip-6"/>
                  </angle>
                  <angle>
                    <activevideoangle>false</activevideoangle>
                    <activeaudioangle>false</activeaudioangle>
                    <clip id="clip-7"/>
                  </angle>
                  <masterclipid>clip-master</masterclipid>
                </multiclip>
              </clipitem>
              <clipitem id="cs-618">
                <duration>60</duration>
                <rate>
                  <ntsc>false</ntsc>
                  <timebase>25</timebase>
                </rate>
                <in>66301</in>
                <out>66360</out>
                <start>66301</start>
                <end>66360</end>
                <file id="src-2"/>
                <sourcetrack>
                  <mediatype>video</mediatype>
                  <trackindex>1</trackindex>
                </sourcetrack>
                <multiclip id="mcs-618">
                  <name>MCS-618</name>
                  <masterclipid>clip-master</masterclipid>
                  <collapsed>false</collapsed>
                  <angle>
                    <activevideoangle>false</activevideoangle>
                    <activeaudioangle>false</activeaudioangle>
                    <clip id="clip-1"/>
                  </angle>
                  <angle>
                    <activevideoangle>true</activevideoangle>
                    <activeaudioangle>true</activeaudioangle>
                    <clip id="clip-2"/>
                  </angle>
                  <angle>
                    <activevideoangle>false</activevideoangle>
                    <activeaudioangle>false</activeaudioangle>
                    <clip id="clip-3"/>
                  </angle>
                  <angle>
                    <activevideoangle>false</activevideoangle>
                    <activeaudioangle>false</activeaudioangle>
                    <clip id="clip-4"/>
                  </angle>
                  <angle>
                    <activevideoangle>false</activevideoangle>
                    <activeaudioangle>false</activeaudioangle>
                    <clip id="clip-5"/>
                  </angle>
                  <angle>
                    <activevideoangle>false</activevideoangle>
                    <activeaudioangle>false</activeaudioangle>
                    <clip id="clip-6"/>
                  </angle>
                  <angle>
                    <activevideoangle>false</activevideoangle>
                    <activeaudioangle>false</activeaudioangle>
                    <clip id="clip-7"/>
                  </angle>
                  <masterclipid>clip-master</masterclipid>
                </multiclip>
              </clipitem>
              <clipitem id="cs-619">
                <duration>60</duration>
                <rate>
                  <ntsc>false</ntsc>
                  <timebase>25</timebase>
                </rate>
                <in>66360</in>
                <out>66419</out>
                <start>66360</start>
                <end>66419</end>
                <file id="src-1"/>
                <sourcetrack>
                  <mediatype>video</mediatype>
                  <trackindex>1</trackindex>
                </sourcetrack>
                <multiclip id="mcs-619">
                  <name>MCS-619</name>
                  <masterclipid>clip-master</masterclipid>
                  <collapsed>false</collapsed>
                  <angle>
                    <activevideoangle>true</activevideoangle>
                    <activeaudioangle>true</activeaudioangle>
                    <clip id="clip-1"/>
                  </angle>
                  <angle>
                    <activevideoangle>false</activevideoangle>
                    <activeaudioangle>false</activeaudioangle>
                    <clip id="clip-2"/>
                  </angle>
                  <angle>
                    <activevideoangle>false</activevideoangle>
                    <activeaudioangle>false</activeaudioangle>
                    <clip id="clip-3"/>
                  </angle>
                  <angle>
                    <activevideoangle>false</activevideoangle>
                    <activeaudioangle>false</activeaudioangle>
                    <clip id="clip-4"/>
                  </angle>
                  <angle>
                    <activevideoangle>false</activevideoangle>
                    <activeaudioangle>false</activeaudioangle>
                    <clip id="clip-5"/>
                  </angle>
                  <angle>
                    <activevideoangle>false</activevideoangle>
                    <activeaudioangle>false</activeaudioangle>
                    <clip id="clip-6"/>
                  </angle>
                  <angle>
                    <activevideoangle>false</activevideoangle>
                    <activeaudioangle>false</activeaudioangle>
                    <clip id="clip-7"/>
                  </angle>
                  <masterclipid>clip-master</masterclipid>
                </multiclip>
              </clipitem>
              <clipitem id="cs-620">
                <duration>149</duration>
                <rate>
                  <ntsc>false</ntsc>
                  <timebase>25</timebase>
                </rate>
                <in>66419</in>
                <out>66567</out>
                <start>66419</start>
                <end>66567</end>
                <file id="src-4"/>
                <sourcetrack>
                  <mediatype>video</mediatype>
                  <trackindex>1</trackindex>
                </sourcetrack>
                <multiclip id="mcs-620">
                  <name>MCS-620</name>
                  <masterclipid>clip-master</masterclipid>
                  <collapsed>false</collapsed>
                  <angle>
                    <activevideoangle>false</activevideoangle>
                    <activeaudioangle>false</activeaudioangle>
                    <clip id="clip-1"/>
                  </angle>
                  <angle>
                    <activevideoangle>false</activevideoangle>
                    <activeaudioangle>false</activeaudioangle>
                    <clip id="clip-2"/>
                  </angle>
                  <angle>
                    <activevideoangle>false</activevideoangle>
                    <activeaudioangle>false</activeaudioangle>
                    <clip id="clip-3"/>
                  </angle>
                  <angle>
                    <activevideoangle>true</activevideoangle>
                    <activeaudioangle>true</activeaudioangle>
                    <clip id="clip-4"/>
                  </angle>
                  <angle>
                    <activevideoangle>false</activevideoangle>
                    <activeaudioangle>false</activeaudioangle>
                    <clip id="clip-5"/>
                  </angle>
                  <angle>
                    <activevideoangle>false</activevideoangle>
                    <activeaudioangle>false</activeaudioangle>
                    <clip id="clip-6"/>
                  </angle>
                  <angle>
                    <activevideoangle>false</activevideoangle>
                    <activeaudioangle>false</activeaudioangle>
                    <clip id="clip-7"/>
                  </angle>
                  <masterclipid>clip-master</masterclipid>
                </multiclip>
              </clipitem>
              <clipitem id="cs-621">
                <duration>74</duration>
                <rate>
                  <ntsc>false</ntsc>
                  <timebase>25</timebase>
                </rate>
                <in>66567</in>
                <out>66640</out>
                <start>66567</start>
                <end>66640</end>
                <file id="src-2"/>
                <sourcetrack>
                  <mediatype>video</mediatype>
                  <trackindex>1</trackindex>
                </sourcetrack>
                <multiclip id="mcs-621">
                  <name>MCS-621</name>
                  <masterclipid>clip-master</masterclipid>
                  <collapsed>false</collapsed>
                  <angle>
                    <activevideoangle>false</activevideoangle>
                    <activeaudioangle>false</activeaudioangle>
                    <clip id="clip-1"/>
                  </angle>
                  <angle>
                    <activevideoangle>true</activevideoangle>
                    <activeaudioangle>true</activeaudioangle>
                    <clip id="clip-2"/>
                  </angle>
                  <angle>
                    <activevideoangle>false</activevideoangle>
                    <activeaudioangle>false</activeaudioangle>
                    <clip id="clip-3"/>
                  </angle>
                  <angle>
                    <activevideoangle>false</activevideoangle>
                    <activeaudioangle>false</activeaudioangle>
                    <clip id="clip-4"/>
                  </angle>
                  <angle>
                    <activevideoangle>false</activevideoangle>
                    <activeaudioangle>false</activeaudioangle>
                    <clip id="clip-5"/>
                  </angle>
                  <angle>
                    <activevideoangle>false</activevideoangle>
                    <activeaudioangle>false</activeaudioangle>
                    <clip id="clip-6"/>
                  </angle>
                  <angle>
                    <activevideoangle>false</activevideoangle>
                    <activeaudioangle>false</activeaudioangle>
                    <clip id="clip-7"/>
                  </angle>
                  <masterclipid>clip-master</masterclipid>
                </multiclip>
              </clipitem>
              <clipitem id="cs-622">
                <duration>139</duration>
                <rate>
                  <ntsc>false</ntsc>
                  <timebase>25</timebase>
                </rate>
                <in>66640</in>
                <out>66778</out>
                <start>66640</start>
                <end>66778</end>
                <file id="src-3"/>
                <sourcetrack>
                  <mediatype>video</mediatype>
                  <trackindex>1</trackindex>
                </sourcetrack>
                <multiclip id="mcs-622">
                  <name>MCS-622</name>
                  <masterclipid>clip-master</masterclipid>
                  <collapsed>false</collapsed>
                  <angle>
                    <activevideoangle>false</activevideoangle>
                    <activeaudioangle>false</activeaudioangle>
                    <clip id="clip-1"/>
                  </angle>
                  <angle>
                    <activevideoangle>false</activevideoangle>
                    <activeaudioangle>false</activeaudioangle>
                    <clip id="clip-2"/>
                  </angle>
                  <angle>
                    <activevideoangle>true</activevideoangle>
                    <activeaudioangle>true</activeaudioangle>
                    <clip id="clip-3"/>
                  </angle>
                  <angle>
                    <activevideoangle>false</activevideoangle>
                    <activeaudioangle>false</activeaudioangle>
                    <clip id="clip-4"/>
                  </angle>
                  <angle>
                    <activevideoangle>false</activevideoangle>
                    <activeaudioangle>false</activeaudioangle>
                    <clip id="clip-5"/>
                  </angle>
                  <angle>
                    <activevideoangle>false</activevideoangle>
                    <activeaudioangle>false</activeaudioangle>
                    <clip id="clip-6"/>
                  </angle>
                  <angle>
                    <activevideoangle>false</activevideoangle>
                    <activeaudioangle>false</activeaudioangle>
                    <clip id="clip-7"/>
                  </angle>
                  <masterclipid>clip-master</masterclipid>
                </multiclip>
              </clipitem>
              <clipitem id="cs-623">
                <duration>217</duration>
                <rate>
                  <ntsc>false</ntsc>
                  <timebase>25</timebase>
                </rate>
                <in>66778</in>
                <out>66994</out>
                <start>66778</start>
                <end>66994</end>
                <file id="src-2"/>
                <sourcetrack>
                  <mediatype>video</mediatype>
                  <trackindex>1</trackindex>
                </sourcetrack>
                <multiclip id="mcs-623">
                  <name>MCS-623</name>
                  <masterclipid>clip-master</masterclipid>
                  <collapsed>false</collapsed>
                  <angle>
                    <activevideoangle>false</activevideoangle>
                    <activeaudioangle>false</activeaudioangle>
                    <clip id="clip-1"/>
                  </angle>
                  <angle>
                    <activevideoangle>true</activevideoangle>
                    <activeaudioangle>true</activeaudioangle>
                    <clip id="clip-2"/>
                  </angle>
                  <angle>
                    <activevideoangle>false</activevideoangle>
                    <activeaudioangle>false</activeaudioangle>
                    <clip id="clip-3"/>
                  </angle>
                  <angle>
                    <activevideoangle>false</activevideoangle>
                    <activeaudioangle>false</activeaudioangle>
                    <clip id="clip-4"/>
                  </angle>
                  <angle>
                    <activevideoangle>false</activevideoangle>
                    <activeaudioangle>false</activeaudioangle>
                    <clip id="clip-5"/>
                  </angle>
                  <angle>
                    <activevideoangle>false</activevideoangle>
                    <activeaudioangle>false</activeaudioangle>
                    <clip id="clip-6"/>
                  </angle>
                  <angle>
                    <activevideoangle>false</activevideoangle>
                    <activeaudioangle>false</activeaudioangle>
                    <clip id="clip-7"/>
                  </angle>
                  <masterclipid>clip-master</masterclipid>
                </multiclip>
              </clipitem>
              <clipitem id="cs-624">
                <duration>61</duration>
                <rate>
                  <ntsc>false</ntsc>
                  <timebase>25</timebase>
                </rate>
                <in>66994</in>
                <out>67054</out>
                <start>66994</start>
                <end>67054</end>
                <file id="src-1"/>
                <sourcetrack>
                  <mediatype>video</mediatype>
                  <trackindex>1</trackindex>
                </sourcetrack>
                <multiclip id="mcs-624">
                  <name>MCS-624</name>
                  <masterclipid>clip-master</masterclipid>
                  <collapsed>false</collapsed>
                  <angle>
                    <activevideoangle>true</activevideoangle>
                    <activeaudioangle>true</activeaudioangle>
                    <clip id="clip-1"/>
                  </angle>
                  <angle>
                    <activevideoangle>false</activevideoangle>
                    <activeaudioangle>false</activeaudioangle>
                    <clip id="clip-2"/>
                  </angle>
                  <angle>
                    <activevideoangle>false</activevideoangle>
                    <activeaudioangle>false</activeaudioangle>
                    <clip id="clip-3"/>
                  </angle>
                  <angle>
                    <activevideoangle>false</activevideoangle>
                    <activeaudioangle>false</activeaudioangle>
                    <clip id="clip-4"/>
                  </angle>
                  <angle>
                    <activevideoangle>false</activevideoangle>
                    <activeaudioangle>false</activeaudioangle>
                    <clip id="clip-5"/>
                  </angle>
                  <angle>
                    <activevideoangle>false</activevideoangle>
                    <activeaudioangle>false</activeaudioangle>
                    <clip id="clip-6"/>
                  </angle>
                  <angle>
                    <activevideoangle>false</activevideoangle>
                    <activeaudioangle>false</activeaudioangle>
                    <clip id="clip-7"/>
                  </angle>
                  <masterclipid>clip-master</masterclipid>
                </multiclip>
              </clipitem>
              <clipitem id="cs-625">
                <duration>287</duration>
                <rate>
                  <ntsc>false</ntsc>
                  <timebase>25</timebase>
                </rate>
                <in>67054</in>
                <out>67340</out>
                <start>67054</start>
                <end>67340</end>
                <file id="src-3"/>
                <sourcetrack>
                  <mediatype>video</mediatype>
                  <trackindex>1</trackindex>
                </sourcetrack>
                <multiclip id="mcs-625">
                  <name>MCS-625</name>
                  <masterclipid>clip-master</masterclipid>
                  <collapsed>false</collapsed>
                  <angle>
                    <activevideoangle>false</activevideoangle>
                    <activeaudioangle>false</activeaudioangle>
                    <clip id="clip-1"/>
                  </angle>
                  <angle>
                    <activevideoangle>false</activevideoangle>
                    <activeaudioangle>false</activeaudioangle>
                    <clip id="clip-2"/>
                  </angle>
                  <angle>
                    <activevideoangle>true</activevideoangle>
                    <activeaudioangle>true</activeaudioangle>
                    <clip id="clip-3"/>
                  </angle>
                  <angle>
                    <activevideoangle>false</activevideoangle>
                    <activeaudioangle>false</activeaudioangle>
                    <clip id="clip-4"/>
                  </angle>
                  <angle>
                    <activevideoangle>false</activevideoangle>
                    <activeaudioangle>false</activeaudioangle>
                    <clip id="clip-5"/>
                  </angle>
                  <angle>
                    <activevideoangle>false</activevideoangle>
                    <activeaudioangle>false</activeaudioangle>
                    <clip id="clip-6"/>
                  </angle>
                  <angle>
                    <activevideoangle>false</activevideoangle>
                    <activeaudioangle>false</activeaudioangle>
                    <clip id="clip-7"/>
                  </angle>
                  <masterclipid>clip-master</masterclipid>
                </multiclip>
              </clipitem>
              <clipitem id="cs-626">
                <duration>213</duration>
                <rate>
                  <ntsc>false</ntsc>
                  <timebase>25</timebase>
                </rate>
                <in>67340</in>
                <out>67552</out>
                <start>67340</start>
                <end>67552</end>
                <file id="src-2"/>
                <sourcetrack>
                  <mediatype>video</mediatype>
                  <trackindex>1</trackindex>
                </sourcetrack>
                <multiclip id="mcs-626">
                  <name>MCS-626</name>
                  <masterclipid>clip-master</masterclipid>
                  <collapsed>false</collapsed>
                  <angle>
                    <activevideoangle>false</activevideoangle>
                    <activeaudioangle>false</activeaudioangle>
                    <clip id="clip-1"/>
                  </angle>
                  <angle>
                    <activevideoangle>true</activevideoangle>
                    <activeaudioangle>true</activeaudioangle>
                    <clip id="clip-2"/>
                  </angle>
                  <angle>
                    <activevideoangle>false</activevideoangle>
                    <activeaudioangle>false</activeaudioangle>
                    <clip id="clip-3"/>
                  </angle>
                  <angle>
                    <activevideoangle>false</activevideoangle>
                    <activeaudioangle>false</activeaudioangle>
                    <clip id="clip-4"/>
                  </angle>
                  <angle>
                    <activevideoangle>false</activevideoangle>
                    <activeaudioangle>false</activeaudioangle>
                    <clip id="clip-5"/>
                  </angle>
                  <angle>
                    <activevideoangle>false</activevideoangle>
                    <activeaudioangle>false</activeaudioangle>
                    <clip id="clip-6"/>
                  </angle>
                  <angle>
                    <activevideoangle>false</activevideoangle>
                    <activeaudioangle>false</activeaudioangle>
                    <clip id="clip-7"/>
                  </angle>
                  <masterclipid>clip-master</masterclipid>
                </multiclip>
              </clipitem>
              <clipitem id="cs-627">
                <duration>112</duration>
                <rate>
                  <ntsc>false</ntsc>
                  <timebase>25</timebase>
                </rate>
                <in>67552</in>
                <out>67663</out>
                <start>67552</start>
                <end>67663</end>
                <file id="src-4"/>
                <sourcetrack>
                  <mediatype>video</mediatype>
                  <trackindex>1</trackindex>
                </sourcetrack>
                <multiclip id="mcs-627">
                  <name>MCS-627</name>
                  <masterclipid>clip-master</masterclipid>
                  <collapsed>false</collapsed>
                  <angle>
                    <activevideoangle>false</activevideoangle>
                    <activeaudioangle>false</activeaudioangle>
                    <clip id="clip-1"/>
                  </angle>
                  <angle>
                    <activevideoangle>false</activevideoangle>
                    <activeaudioangle>false</activeaudioangle>
                    <clip id="clip-2"/>
                  </angle>
                  <angle>
                    <activevideoangle>false</activevideoangle>
                    <activeaudioangle>false</activeaudioangle>
                    <clip id="clip-3"/>
                  </angle>
                  <angle>
                    <activevideoangle>true</activevideoangle>
                    <activeaudioangle>true</activeaudioangle>
                    <clip id="clip-4"/>
                  </angle>
                  <angle>
                    <activevideoangle>false</activevideoangle>
                    <activeaudioangle>false</activeaudioangle>
                    <clip id="clip-5"/>
                  </angle>
                  <angle>
                    <activevideoangle>false</activevideoangle>
                    <activeaudioangle>false</activeaudioangle>
                    <clip id="clip-6"/>
                  </angle>
                  <angle>
                    <activevideoangle>false</activevideoangle>
                    <activeaudioangle>false</activeaudioangle>
                    <clip id="clip-7"/>
                  </angle>
                  <masterclipid>clip-master</masterclipid>
                </multiclip>
              </clipitem>
              <clipitem id="cs-628">
                <duration>75</duration>
                <rate>
                  <ntsc>false</ntsc>
                  <timebase>25</timebase>
                </rate>
                <in>67663</in>
                <out>67737</out>
                <start>67663</start>
                <end>67737</end>
                <file id="src-2"/>
                <sourcetrack>
                  <mediatype>video</mediatype>
                  <trackindex>1</trackindex>
                </sourcetrack>
                <multiclip id="mcs-628">
                  <name>MCS-628</name>
                  <masterclipid>clip-master</masterclipid>
                  <collapsed>false</collapsed>
                  <angle>
                    <activevideoangle>false</activevideoangle>
                    <activeaudioangle>false</activeaudioangle>
                    <clip id="clip-1"/>
                  </angle>
                  <angle>
                    <activevideoangle>true</activevideoangle>
                    <activeaudioangle>true</activeaudioangle>
                    <clip id="clip-2"/>
                  </angle>
                  <angle>
                    <activevideoangle>false</activevideoangle>
                    <activeaudioangle>false</activeaudioangle>
                    <clip id="clip-3"/>
                  </angle>
                  <angle>
                    <activevideoangle>false</activevideoangle>
                    <activeaudioangle>false</activeaudioangle>
                    <clip id="clip-4"/>
                  </angle>
                  <angle>
                    <activevideoangle>false</activevideoangle>
                    <activeaudioangle>false</activeaudioangle>
                    <clip id="clip-5"/>
                  </angle>
                  <angle>
                    <activevideoangle>false</activevideoangle>
                    <activeaudioangle>false</activeaudioangle>
                    <clip id="clip-6"/>
                  </angle>
                  <angle>
                    <activevideoangle>false</activevideoangle>
                    <activeaudioangle>false</activeaudioangle>
                    <clip id="clip-7"/>
                  </angle>
                  <masterclipid>clip-master</masterclipid>
                </multiclip>
              </clipitem>
              <clipitem id="cs-629">
                <duration>90</duration>
                <rate>
                  <ntsc>false</ntsc>
                  <timebase>25</timebase>
                </rate>
                <in>67737</in>
                <out>67826</out>
                <start>67737</start>
                <end>67826</end>
                <file id="src-3"/>
                <sourcetrack>
                  <mediatype>video</mediatype>
                  <trackindex>1</trackindex>
                </sourcetrack>
                <multiclip id="mcs-629">
                  <name>MCS-629</name>
                  <masterclipid>clip-master</masterclipid>
                  <collapsed>false</collapsed>
                  <angle>
                    <activevideoangle>false</activevideoangle>
                    <activeaudioangle>false</activeaudioangle>
                    <clip id="clip-1"/>
                  </angle>
                  <angle>
                    <activevideoangle>false</activevideoangle>
                    <activeaudioangle>false</activeaudioangle>
                    <clip id="clip-2"/>
                  </angle>
                  <angle>
                    <activevideoangle>true</activevideoangle>
                    <activeaudioangle>true</activeaudioangle>
                    <clip id="clip-3"/>
                  </angle>
                  <angle>
                    <activevideoangle>false</activevideoangle>
                    <activeaudioangle>false</activeaudioangle>
                    <clip id="clip-4"/>
                  </angle>
                  <angle>
                    <activevideoangle>false</activevideoangle>
                    <activeaudioangle>false</activeaudioangle>
                    <clip id="clip-5"/>
                  </angle>
                  <angle>
                    <activevideoangle>false</activevideoangle>
                    <activeaudioangle>false</activeaudioangle>
                    <clip id="clip-6"/>
                  </angle>
                  <angle>
                    <activevideoangle>false</activevideoangle>
                    <activeaudioangle>false</activeaudioangle>
                    <clip id="clip-7"/>
                  </angle>
                  <masterclipid>clip-master</masterclipid>
                </multiclip>
              </clipitem>
              <clipitem id="cs-630">
                <duration>96</duration>
                <rate>
                  <ntsc>false</ntsc>
                  <timebase>25</timebase>
                </rate>
                <in>67826</in>
                <out>67921</out>
                <start>67826</start>
                <end>67921</end>
                <file id="src-1"/>
                <sourcetrack>
                  <mediatype>video</mediatype>
                  <trackindex>1</trackindex>
                </sourcetrack>
                <multiclip id="mcs-630">
                  <name>MCS-630</name>
                  <masterclipid>clip-master</masterclipid>
                  <collapsed>false</collapsed>
                  <angle>
                    <activevideoangle>true</activevideoangle>
                    <activeaudioangle>true</activeaudioangle>
                    <clip id="clip-1"/>
                  </angle>
                  <angle>
                    <activevideoangle>false</activevideoangle>
                    <activeaudioangle>false</activeaudioangle>
                    <clip id="clip-2"/>
                  </angle>
                  <angle>
                    <activevideoangle>false</activevideoangle>
                    <activeaudioangle>false</activeaudioangle>
                    <clip id="clip-3"/>
                  </angle>
                  <angle>
                    <activevideoangle>false</activevideoangle>
                    <activeaudioangle>false</activeaudioangle>
                    <clip id="clip-4"/>
                  </angle>
                  <angle>
                    <activevideoangle>false</activevideoangle>
                    <activeaudioangle>false</activeaudioangle>
                    <clip id="clip-5"/>
                  </angle>
                  <angle>
                    <activevideoangle>false</activevideoangle>
                    <activeaudioangle>false</activeaudioangle>
                    <clip id="clip-6"/>
                  </angle>
                  <angle>
                    <activevideoangle>false</activevideoangle>
                    <activeaudioangle>false</activeaudioangle>
                    <clip id="clip-7"/>
                  </angle>
                  <masterclipid>clip-master</masterclipid>
                </multiclip>
              </clipitem>
              <clipitem id="cs-631">
                <duration>143</duration>
                <rate>
                  <ntsc>false</ntsc>
                  <timebase>25</timebase>
                </rate>
                <in>67921</in>
                <out>68063</out>
                <start>67921</start>
                <end>68063</end>
                <file id="src-3"/>
                <sourcetrack>
                  <mediatype>video</mediatype>
                  <trackindex>1</trackindex>
                </sourcetrack>
                <multiclip id="mcs-631">
                  <name>MCS-631</name>
                  <masterclipid>clip-master</masterclipid>
                  <collapsed>false</collapsed>
                  <angle>
                    <activevideoangle>false</activevideoangle>
                    <activeaudioangle>false</activeaudioangle>
                    <clip id="clip-1"/>
                  </angle>
                  <angle>
                    <activevideoangle>false</activevideoangle>
                    <activeaudioangle>false</activeaudioangle>
                    <clip id="clip-2"/>
                  </angle>
                  <angle>
                    <activevideoangle>true</activevideoangle>
                    <activeaudioangle>true</activeaudioangle>
                    <clip id="clip-3"/>
                  </angle>
                  <angle>
                    <activevideoangle>false</activevideoangle>
                    <activeaudioangle>false</activeaudioangle>
                    <clip id="clip-4"/>
                  </angle>
                  <angle>
                    <activevideoangle>false</activevideoangle>
                    <activeaudioangle>false</activeaudioangle>
                    <clip id="clip-5"/>
                  </angle>
                  <angle>
                    <activevideoangle>false</activevideoangle>
                    <activeaudioangle>false</activeaudioangle>
                    <clip id="clip-6"/>
                  </angle>
                  <angle>
                    <activevideoangle>false</activevideoangle>
                    <activeaudioangle>false</activeaudioangle>
                    <clip id="clip-7"/>
                  </angle>
                  <masterclipid>clip-master</masterclipid>
                </multiclip>
              </clipitem>
              <clipitem id="cs-632">
                <duration>56</duration>
                <rate>
                  <ntsc>false</ntsc>
                  <timebase>25</timebase>
                </rate>
                <in>68063</in>
                <out>68118</out>
                <start>68063</start>
                <end>68118</end>
                <file id="src-1"/>
                <sourcetrack>
                  <mediatype>video</mediatype>
                  <trackindex>1</trackindex>
                </sourcetrack>
                <multiclip id="mcs-632">
                  <name>MCS-632</name>
                  <masterclipid>clip-master</masterclipid>
                  <collapsed>false</collapsed>
                  <angle>
                    <activevideoangle>true</activevideoangle>
                    <activeaudioangle>true</activeaudioangle>
                    <clip id="clip-1"/>
                  </angle>
                  <angle>
                    <activevideoangle>false</activevideoangle>
                    <activeaudioangle>false</activeaudioangle>
                    <clip id="clip-2"/>
                  </angle>
                  <angle>
                    <activevideoangle>false</activevideoangle>
                    <activeaudioangle>false</activeaudioangle>
                    <clip id="clip-3"/>
                  </angle>
                  <angle>
                    <activevideoangle>false</activevideoangle>
                    <activeaudioangle>false</activeaudioangle>
                    <clip id="clip-4"/>
                  </angle>
                  <angle>
                    <activevideoangle>false</activevideoangle>
                    <activeaudioangle>false</activeaudioangle>
                    <clip id="clip-5"/>
                  </angle>
                  <angle>
                    <activevideoangle>false</activevideoangle>
                    <activeaudioangle>false</activeaudioangle>
                    <clip id="clip-6"/>
                  </angle>
                  <angle>
                    <activevideoangle>false</activevideoangle>
                    <activeaudioangle>false</activeaudioangle>
                    <clip id="clip-7"/>
                  </angle>
                  <masterclipid>clip-master</masterclipid>
                </multiclip>
              </clipitem>
              <clipitem id="cs-633">
                <duration>102</duration>
                <rate>
                  <ntsc>false</ntsc>
                  <timebase>25</timebase>
                </rate>
                <in>68118</in>
                <out>68219</out>
                <start>68118</start>
                <end>68219</end>
                <file id="src-3"/>
                <sourcetrack>
                  <mediatype>video</mediatype>
                  <trackindex>1</trackindex>
                </sourcetrack>
                <multiclip id="mcs-633">
                  <name>MCS-633</name>
                  <masterclipid>clip-master</masterclipid>
                  <collapsed>false</collapsed>
                  <angle>
                    <activevideoangle>false</activevideoangle>
                    <activeaudioangle>false</activeaudioangle>
                    <clip id="clip-1"/>
                  </angle>
                  <angle>
                    <activevideoangle>false</activevideoangle>
                    <activeaudioangle>false</activeaudioangle>
                    <clip id="clip-2"/>
                  </angle>
                  <angle>
                    <activevideoangle>true</activevideoangle>
                    <activeaudioangle>true</activeaudioangle>
                    <clip id="clip-3"/>
                  </angle>
                  <angle>
                    <activevideoangle>false</activevideoangle>
                    <activeaudioangle>false</activeaudioangle>
                    <clip id="clip-4"/>
                  </angle>
                  <angle>
                    <activevideoangle>false</activevideoangle>
                    <activeaudioangle>false</activeaudioangle>
                    <clip id="clip-5"/>
                  </angle>
                  <angle>
                    <activevideoangle>false</activevideoangle>
                    <activeaudioangle>false</activeaudioangle>
                    <clip id="clip-6"/>
                  </angle>
                  <angle>
                    <activevideoangle>false</activevideoangle>
                    <activeaudioangle>false</activeaudioangle>
                    <clip id="clip-7"/>
                  </angle>
                  <masterclipid>clip-master</masterclipid>
                </multiclip>
              </clipitem>
              <clipitem id="cs-634">
                <duration>154</duration>
                <rate>
                  <ntsc>false</ntsc>
                  <timebase>25</timebase>
                </rate>
                <in>68219</in>
                <out>68372</out>
                <start>68219</start>
                <end>68372</end>
                <file id="src-2"/>
                <sourcetrack>
                  <mediatype>video</mediatype>
                  <trackindex>1</trackindex>
                </sourcetrack>
                <multiclip id="mcs-634">
                  <name>MCS-634</name>
                  <masterclipid>clip-master</masterclipid>
                  <collapsed>false</collapsed>
                  <angle>
                    <activevideoangle>false</activevideoangle>
                    <activeaudioangle>false</activeaudioangle>
                    <clip id="clip-1"/>
                  </angle>
                  <angle>
                    <activevideoangle>true</activevideoangle>
                    <activeaudioangle>true</activeaudioangle>
                    <clip id="clip-2"/>
                  </angle>
                  <angle>
                    <activevideoangle>false</activevideoangle>
                    <activeaudioangle>false</activeaudioangle>
                    <clip id="clip-3"/>
                  </angle>
                  <angle>
                    <activevideoangle>false</activevideoangle>
                    <activeaudioangle>false</activeaudioangle>
                    <clip id="clip-4"/>
                  </angle>
                  <angle>
                    <activevideoangle>false</activevideoangle>
                    <activeaudioangle>false</activeaudioangle>
                    <clip id="clip-5"/>
                  </angle>
                  <angle>
                    <activevideoangle>false</activevideoangle>
                    <activeaudioangle>false</activeaudioangle>
                    <clip id="clip-6"/>
                  </angle>
                  <angle>
                    <activevideoangle>false</activevideoangle>
                    <activeaudioangle>false</activeaudioangle>
                    <clip id="clip-7"/>
                  </angle>
                  <masterclipid>clip-master</masterclipid>
                </multiclip>
              </clipitem>
              <clipitem id="cs-635">
                <duration>87</duration>
                <rate>
                  <ntsc>false</ntsc>
                  <timebase>25</timebase>
                </rate>
                <in>68372</in>
                <out>68458</out>
                <start>68372</start>
                <end>68458</end>
                <file id="src-3"/>
                <sourcetrack>
                  <mediatype>video</mediatype>
                  <trackindex>1</trackindex>
                </sourcetrack>
                <multiclip id="mcs-635">
                  <name>MCS-635</name>
                  <masterclipid>clip-master</masterclipid>
                  <collapsed>false</collapsed>
                  <angle>
                    <activevideoangle>false</activevideoangle>
                    <activeaudioangle>false</activeaudioangle>
                    <clip id="clip-1"/>
                  </angle>
                  <angle>
                    <activevideoangle>false</activevideoangle>
                    <activeaudioangle>false</activeaudioangle>
                    <clip id="clip-2"/>
                  </angle>
                  <angle>
                    <activevideoangle>true</activevideoangle>
                    <activeaudioangle>true</activeaudioangle>
                    <clip id="clip-3"/>
                  </angle>
                  <angle>
                    <activevideoangle>false</activevideoangle>
                    <activeaudioangle>false</activeaudioangle>
                    <clip id="clip-4"/>
                  </angle>
                  <angle>
                    <activevideoangle>false</activevideoangle>
                    <activeaudioangle>false</activeaudioangle>
                    <clip id="clip-5"/>
                  </angle>
                  <angle>
                    <activevideoangle>false</activevideoangle>
                    <activeaudioangle>false</activeaudioangle>
                    <clip id="clip-6"/>
                  </angle>
                  <angle>
                    <activevideoangle>false</activevideoangle>
                    <activeaudioangle>false</activeaudioangle>
                    <clip id="clip-7"/>
                  </angle>
                  <masterclipid>clip-master</masterclipid>
                </multiclip>
              </clipitem>
              <clipitem id="cs-636">
                <duration>202</duration>
                <rate>
                  <ntsc>false</ntsc>
                  <timebase>25</timebase>
                </rate>
                <in>68458</in>
                <out>68659</out>
                <start>68458</start>
                <end>68659</end>
                <file id="src-1"/>
                <sourcetrack>
                  <mediatype>video</mediatype>
                  <trackindex>1</trackindex>
                </sourcetrack>
                <multiclip id="mcs-636">
                  <name>MCS-636</name>
                  <masterclipid>clip-master</masterclipid>
                  <collapsed>false</collapsed>
                  <angle>
                    <activevideoangle>true</activevideoangle>
                    <activeaudioangle>true</activeaudioangle>
                    <clip id="clip-1"/>
                  </angle>
                  <angle>
                    <activevideoangle>false</activevideoangle>
                    <activeaudioangle>false</activeaudioangle>
                    <clip id="clip-2"/>
                  </angle>
                  <angle>
                    <activevideoangle>false</activevideoangle>
                    <activeaudioangle>false</activeaudioangle>
                    <clip id="clip-3"/>
                  </angle>
                  <angle>
                    <activevideoangle>false</activevideoangle>
                    <activeaudioangle>false</activeaudioangle>
                    <clip id="clip-4"/>
                  </angle>
                  <angle>
                    <activevideoangle>false</activevideoangle>
                    <activeaudioangle>false</activeaudioangle>
                    <clip id="clip-5"/>
                  </angle>
                  <angle>
                    <activevideoangle>false</activevideoangle>
                    <activeaudioangle>false</activeaudioangle>
                    <clip id="clip-6"/>
                  </angle>
                  <angle>
                    <activevideoangle>false</activevideoangle>
                    <activeaudioangle>false</activeaudioangle>
                    <clip id="clip-7"/>
                  </angle>
                  <masterclipid>clip-master</masterclipid>
                </multiclip>
              </clipitem>
              <clipitem id="cs-637">
                <duration>78</duration>
                <rate>
                  <ntsc>false</ntsc>
                  <timebase>25</timebase>
                </rate>
                <in>68659</in>
                <out>68736</out>
                <start>68659</start>
                <end>68736</end>
                <file id="src-2"/>
                <sourcetrack>
                  <mediatype>video</mediatype>
                  <trackindex>1</trackindex>
                </sourcetrack>
                <multiclip id="mcs-637">
                  <name>MCS-637</name>
                  <masterclipid>clip-master</masterclipid>
                  <collapsed>false</collapsed>
                  <angle>
                    <activevideoangle>false</activevideoangle>
                    <activeaudioangle>false</activeaudioangle>
                    <clip id="clip-1"/>
                  </angle>
                  <angle>
                    <activevideoangle>true</activevideoangle>
                    <activeaudioangle>true</activeaudioangle>
                    <clip id="clip-2"/>
                  </angle>
                  <angle>
                    <activevideoangle>false</activevideoangle>
                    <activeaudioangle>false</activeaudioangle>
                    <clip id="clip-3"/>
                  </angle>
                  <angle>
                    <activevideoangle>false</activevideoangle>
                    <activeaudioangle>false</activeaudioangle>
                    <clip id="clip-4"/>
                  </angle>
                  <angle>
                    <activevideoangle>false</activevideoangle>
                    <activeaudioangle>false</activeaudioangle>
                    <clip id="clip-5"/>
                  </angle>
                  <angle>
                    <activevideoangle>false</activevideoangle>
                    <activeaudioangle>false</activeaudioangle>
                    <clip id="clip-6"/>
                  </angle>
                  <angle>
                    <activevideoangle>false</activevideoangle>
                    <activeaudioangle>false</activeaudioangle>
                    <clip id="clip-7"/>
                  </angle>
                  <masterclipid>clip-master</masterclipid>
                </multiclip>
              </clipitem>
              <clipitem id="cs-638">
                <duration>263</duration>
                <rate>
                  <ntsc>false</ntsc>
                  <timebase>25</timebase>
                </rate>
                <in>68736</in>
                <out>68998</out>
                <start>68736</start>
                <end>68998</end>
                <file id="src-3"/>
                <sourcetrack>
                  <mediatype>video</mediatype>
                  <trackindex>1</trackindex>
                </sourcetrack>
                <multiclip id="mcs-638">
                  <name>MCS-638</name>
                  <masterclipid>clip-master</masterclipid>
                  <collapsed>false</collapsed>
                  <angle>
                    <activevideoangle>false</activevideoangle>
                    <activeaudioangle>false</activeaudioangle>
                    <clip id="clip-1"/>
                  </angle>
                  <angle>
                    <activevideoangle>false</activevideoangle>
                    <activeaudioangle>false</activeaudioangle>
                    <clip id="clip-2"/>
                  </angle>
                  <angle>
                    <activevideoangle>true</activevideoangle>
                    <activeaudioangle>true</activeaudioangle>
                    <clip id="clip-3"/>
                  </angle>
                  <angle>
                    <activevideoangle>false</activevideoangle>
                    <activeaudioangle>false</activeaudioangle>
                    <clip id="clip-4"/>
                  </angle>
                  <angle>
                    <activevideoangle>false</activevideoangle>
                    <activeaudioangle>false</activeaudioangle>
                    <clip id="clip-5"/>
                  </angle>
                  <angle>
                    <activevideoangle>false</activevideoangle>
                    <activeaudioangle>false</activeaudioangle>
                    <clip id="clip-6"/>
                  </angle>
                  <angle>
                    <activevideoangle>false</activevideoangle>
                    <activeaudioangle>false</activeaudioangle>
                    <clip id="clip-7"/>
                  </angle>
                  <masterclipid>clip-master</masterclipid>
                </multiclip>
              </clipitem>
              <clipitem id="cs-639">
                <duration>85</duration>
                <rate>
                  <ntsc>false</ntsc>
                  <timebase>25</timebase>
                </rate>
                <in>68998</in>
                <out>69082</out>
                <start>68998</start>
                <end>69082</end>
                <file id="src-2"/>
                <sourcetrack>
                  <mediatype>video</mediatype>
                  <trackindex>1</trackindex>
                </sourcetrack>
                <multiclip id="mcs-639">
                  <name>MCS-639</name>
                  <masterclipid>clip-master</masterclipid>
                  <collapsed>false</collapsed>
                  <angle>
                    <activevideoangle>false</activevideoangle>
                    <activeaudioangle>false</activeaudioangle>
                    <clip id="clip-1"/>
                  </angle>
                  <angle>
                    <activevideoangle>true</activevideoangle>
                    <activeaudioangle>true</activeaudioangle>
                    <clip id="clip-2"/>
                  </angle>
                  <angle>
                    <activevideoangle>false</activevideoangle>
                    <activeaudioangle>false</activeaudioangle>
                    <clip id="clip-3"/>
                  </angle>
                  <angle>
                    <activevideoangle>false</activevideoangle>
                    <activeaudioangle>false</activeaudioangle>
                    <clip id="clip-4"/>
                  </angle>
                  <angle>
                    <activevideoangle>false</activevideoangle>
                    <activeaudioangle>false</activeaudioangle>
                    <clip id="clip-5"/>
                  </angle>
                  <angle>
                    <activevideoangle>false</activevideoangle>
                    <activeaudioangle>false</activeaudioangle>
                    <clip id="clip-6"/>
                  </angle>
                  <angle>
                    <activevideoangle>false</activevideoangle>
                    <activeaudioangle>false</activeaudioangle>
                    <clip id="clip-7"/>
                  </angle>
                  <masterclipid>clip-master</masterclipid>
                </multiclip>
              </clipitem>
              <clipitem id="cs-640">
                <duration>347</duration>
                <rate>
                  <ntsc>false</ntsc>
                  <timebase>25</timebase>
                </rate>
                <in>69082</in>
                <out>69428</out>
                <start>69082</start>
                <end>69428</end>
                <file id="src-3"/>
                <sourcetrack>
                  <mediatype>video</mediatype>
                  <trackindex>1</trackindex>
                </sourcetrack>
                <multiclip id="mcs-640">
                  <name>MCS-640</name>
                  <masterclipid>clip-master</masterclipid>
                  <collapsed>false</collapsed>
                  <angle>
                    <activevideoangle>false</activevideoangle>
                    <activeaudioangle>false</activeaudioangle>
                    <clip id="clip-1"/>
                  </angle>
                  <angle>
                    <activevideoangle>false</activevideoangle>
                    <activeaudioangle>false</activeaudioangle>
                    <clip id="clip-2"/>
                  </angle>
                  <angle>
                    <activevideoangle>true</activevideoangle>
                    <activeaudioangle>true</activeaudioangle>
                    <clip id="clip-3"/>
                  </angle>
                  <angle>
                    <activevideoangle>false</activevideoangle>
                    <activeaudioangle>false</activeaudioangle>
                    <clip id="clip-4"/>
                  </angle>
                  <angle>
                    <activevideoangle>false</activevideoangle>
                    <activeaudioangle>false</activeaudioangle>
                    <clip id="clip-5"/>
                  </angle>
                  <angle>
                    <activevideoangle>false</activevideoangle>
                    <activeaudioangle>false</activeaudioangle>
                    <clip id="clip-6"/>
                  </angle>
                  <angle>
                    <activevideoangle>false</activevideoangle>
                    <activeaudioangle>false</activeaudioangle>
                    <clip id="clip-7"/>
                  </angle>
                  <masterclipid>clip-master</masterclipid>
                </multiclip>
              </clipitem>
              <clipitem id="cs-641">
                <duration>68</duration>
                <rate>
                  <ntsc>false</ntsc>
                  <timebase>25</timebase>
                </rate>
                <in>69428</in>
                <out>69495</out>
                <start>69428</start>
                <end>69495</end>
                <file id="src-4"/>
                <sourcetrack>
                  <mediatype>video</mediatype>
                  <trackindex>1</trackindex>
                </sourcetrack>
                <multiclip id="mcs-641">
                  <name>MCS-641</name>
                  <masterclipid>clip-master</masterclipid>
                  <collapsed>false</collapsed>
                  <angle>
                    <activevideoangle>false</activevideoangle>
                    <activeaudioangle>false</activeaudioangle>
                    <clip id="clip-1"/>
                  </angle>
                  <angle>
                    <activevideoangle>false</activevideoangle>
                    <activeaudioangle>false</activeaudioangle>
                    <clip id="clip-2"/>
                  </angle>
                  <angle>
                    <activevideoangle>false</activevideoangle>
                    <activeaudioangle>false</activeaudioangle>
                    <clip id="clip-3"/>
                  </angle>
                  <angle>
                    <activevideoangle>true</activevideoangle>
                    <activeaudioangle>true</activeaudioangle>
                    <clip id="clip-4"/>
                  </angle>
                  <angle>
                    <activevideoangle>false</activevideoangle>
                    <activeaudioangle>false</activeaudioangle>
                    <clip id="clip-5"/>
                  </angle>
                  <angle>
                    <activevideoangle>false</activevideoangle>
                    <activeaudioangle>false</activeaudioangle>
                    <clip id="clip-6"/>
                  </angle>
                  <angle>
                    <activevideoangle>false</activevideoangle>
                    <activeaudioangle>false</activeaudioangle>
                    <clip id="clip-7"/>
                  </angle>
                  <masterclipid>clip-master</masterclipid>
                </multiclip>
              </clipitem>
              <clipitem id="cs-642">
                <duration>206</duration>
                <rate>
                  <ntsc>false</ntsc>
                  <timebase>25</timebase>
                </rate>
                <in>69495</in>
                <out>69700</out>
                <start>69495</start>
                <end>69700</end>
                <file id="src-3"/>
                <sourcetrack>
                  <mediatype>video</mediatype>
                  <trackindex>1</trackindex>
                </sourcetrack>
                <multiclip id="mcs-642">
                  <name>MCS-642</name>
                  <masterclipid>clip-master</masterclipid>
                  <collapsed>false</collapsed>
                  <angle>
                    <activevideoangle>false</activevideoangle>
                    <activeaudioangle>false</activeaudioangle>
                    <clip id="clip-1"/>
                  </angle>
                  <angle>
                    <activevideoangle>false</activevideoangle>
                    <activeaudioangle>false</activeaudioangle>
                    <clip id="clip-2"/>
                  </angle>
                  <angle>
                    <activevideoangle>true</activevideoangle>
                    <activeaudioangle>true</activeaudioangle>
                    <clip id="clip-3"/>
                  </angle>
                  <angle>
                    <activevideoangle>false</activevideoangle>
                    <activeaudioangle>false</activeaudioangle>
                    <clip id="clip-4"/>
                  </angle>
                  <angle>
                    <activevideoangle>false</activevideoangle>
                    <activeaudioangle>false</activeaudioangle>
                    <clip id="clip-5"/>
                  </angle>
                  <angle>
                    <activevideoangle>false</activevideoangle>
                    <activeaudioangle>false</activeaudioangle>
                    <clip id="clip-6"/>
                  </angle>
                  <angle>
                    <activevideoangle>false</activevideoangle>
                    <activeaudioangle>false</activeaudioangle>
                    <clip id="clip-7"/>
                  </angle>
                  <masterclipid>clip-master</masterclipid>
                </multiclip>
              </clipitem>
              <clipitem id="cs-643">
                <duration>138</duration>
                <rate>
                  <ntsc>false</ntsc>
                  <timebase>25</timebase>
                </rate>
                <in>69700</in>
                <out>69837</out>
                <start>69700</start>
                <end>69837</end>
                <file id="src-2"/>
                <sourcetrack>
                  <mediatype>video</mediatype>
                  <trackindex>1</trackindex>
                </sourcetrack>
                <multiclip id="mcs-643">
                  <name>MCS-643</name>
                  <masterclipid>clip-master</masterclipid>
                  <collapsed>false</collapsed>
                  <angle>
                    <activevideoangle>false</activevideoangle>
                    <activeaudioangle>false</activeaudioangle>
                    <clip id="clip-1"/>
                  </angle>
                  <angle>
                    <activevideoangle>true</activevideoangle>
                    <activeaudioangle>true</activeaudioangle>
                    <clip id="clip-2"/>
                  </angle>
                  <angle>
                    <activevideoangle>false</activevideoangle>
                    <activeaudioangle>false</activeaudioangle>
                    <clip id="clip-3"/>
                  </angle>
                  <angle>
                    <activevideoangle>false</activevideoangle>
                    <activeaudioangle>false</activeaudioangle>
                    <clip id="clip-4"/>
                  </angle>
                  <angle>
                    <activevideoangle>false</activevideoangle>
                    <activeaudioangle>false</activeaudioangle>
                    <clip id="clip-5"/>
                  </angle>
                  <angle>
                    <activevideoangle>false</activevideoangle>
                    <activeaudioangle>false</activeaudioangle>
                    <clip id="clip-6"/>
                  </angle>
                  <angle>
                    <activevideoangle>false</activevideoangle>
                    <activeaudioangle>false</activeaudioangle>
                    <clip id="clip-7"/>
                  </angle>
                  <masterclipid>clip-master</masterclipid>
                </multiclip>
              </clipitem>
              <clipitem id="cs-644">
                <duration>135</duration>
                <rate>
                  <ntsc>false</ntsc>
                  <timebase>25</timebase>
                </rate>
                <in>69837</in>
                <out>69971</out>
                <start>69837</start>
                <end>69971</end>
                <file id="src-3"/>
                <sourcetrack>
                  <mediatype>video</mediatype>
                  <trackindex>1</trackindex>
                </sourcetrack>
                <multiclip id="mcs-644">
                  <name>MCS-644</name>
                  <masterclipid>clip-master</masterclipid>
                  <collapsed>false</collapsed>
                  <angle>
                    <activevideoangle>false</activevideoangle>
                    <activeaudioangle>false</activeaudioangle>
                    <clip id="clip-1"/>
                  </angle>
                  <angle>
                    <activevideoangle>false</activevideoangle>
                    <activeaudioangle>false</activeaudioangle>
                    <clip id="clip-2"/>
                  </angle>
                  <angle>
                    <activevideoangle>true</activevideoangle>
                    <activeaudioangle>true</activeaudioangle>
                    <clip id="clip-3"/>
                  </angle>
                  <angle>
                    <activevideoangle>false</activevideoangle>
                    <activeaudioangle>false</activeaudioangle>
                    <clip id="clip-4"/>
                  </angle>
                  <angle>
                    <activevideoangle>false</activevideoangle>
                    <activeaudioangle>false</activeaudioangle>
                    <clip id="clip-5"/>
                  </angle>
                  <angle>
                    <activevideoangle>false</activevideoangle>
                    <activeaudioangle>false</activeaudioangle>
                    <clip id="clip-6"/>
                  </angle>
                  <angle>
                    <activevideoangle>false</activevideoangle>
                    <activeaudioangle>false</activeaudioangle>
                    <clip id="clip-7"/>
                  </angle>
                  <masterclipid>clip-master</masterclipid>
                </multiclip>
              </clipitem>
              <clipitem id="cs-645">
                <duration>57</duration>
                <rate>
                  <ntsc>false</ntsc>
                  <timebase>25</timebase>
                </rate>
                <in>69971</in>
                <out>70027</out>
                <start>69971</start>
                <end>70027</end>
                <file id="src-2"/>
                <sourcetrack>
                  <mediatype>video</mediatype>
                  <trackindex>1</trackindex>
                </sourcetrack>
                <multiclip id="mcs-645">
                  <name>MCS-645</name>
                  <masterclipid>clip-master</masterclipid>
                  <collapsed>false</collapsed>
                  <angle>
                    <activevideoangle>false</activevideoangle>
                    <activeaudioangle>false</activeaudioangle>
                    <clip id="clip-1"/>
                  </angle>
                  <angle>
                    <activevideoangle>true</activevideoangle>
                    <activeaudioangle>true</activeaudioangle>
                    <clip id="clip-2"/>
                  </angle>
                  <angle>
                    <activevideoangle>false</activevideoangle>
                    <activeaudioangle>false</activeaudioangle>
                    <clip id="clip-3"/>
                  </angle>
                  <angle>
                    <activevideoangle>false</activevideoangle>
                    <activeaudioangle>false</activeaudioangle>
                    <clip id="clip-4"/>
                  </angle>
                  <angle>
                    <activevideoangle>false</activevideoangle>
                    <activeaudioangle>false</activeaudioangle>
                    <clip id="clip-5"/>
                  </angle>
                  <angle>
                    <activevideoangle>false</activevideoangle>
                    <activeaudioangle>false</activeaudioangle>
                    <clip id="clip-6"/>
                  </angle>
                  <angle>
                    <activevideoangle>false</activevideoangle>
                    <activeaudioangle>false</activeaudioangle>
                    <clip id="clip-7"/>
                  </angle>
                  <masterclipid>clip-master</masterclipid>
                </multiclip>
              </clipitem>
              <clipitem id="cs-646">
                <duration>76</duration>
                <rate>
                  <ntsc>false</ntsc>
                  <timebase>25</timebase>
                </rate>
                <in>70027</in>
                <out>70102</out>
                <start>70027</start>
                <end>70102</end>
                <file id="src-3"/>
                <sourcetrack>
                  <mediatype>video</mediatype>
                  <trackindex>1</trackindex>
                </sourcetrack>
                <multiclip id="mcs-646">
                  <name>MCS-646</name>
                  <masterclipid>clip-master</masterclipid>
                  <collapsed>false</collapsed>
                  <angle>
                    <activevideoangle>false</activevideoangle>
                    <activeaudioangle>false</activeaudioangle>
                    <clip id="clip-1"/>
                  </angle>
                  <angle>
                    <activevideoangle>false</activevideoangle>
                    <activeaudioangle>false</activeaudioangle>
                    <clip id="clip-2"/>
                  </angle>
                  <angle>
                    <activevideoangle>true</activevideoangle>
                    <activeaudioangle>true</activeaudioangle>
                    <clip id="clip-3"/>
                  </angle>
                  <angle>
                    <activevideoangle>false</activevideoangle>
                    <activeaudioangle>false</activeaudioangle>
                    <clip id="clip-4"/>
                  </angle>
                  <angle>
                    <activevideoangle>false</activevideoangle>
                    <activeaudioangle>false</activeaudioangle>
                    <clip id="clip-5"/>
                  </angle>
                  <angle>
                    <activevideoangle>false</activevideoangle>
                    <activeaudioangle>false</activeaudioangle>
                    <clip id="clip-6"/>
                  </angle>
                  <angle>
                    <activevideoangle>false</activevideoangle>
                    <activeaudioangle>false</activeaudioangle>
                    <clip id="clip-7"/>
                  </angle>
                  <masterclipid>clip-master</masterclipid>
                </multiclip>
              </clipitem>
              <clipitem id="cs-647">
                <duration>119</duration>
                <rate>
                  <ntsc>false</ntsc>
                  <timebase>25</timebase>
                </rate>
                <in>70102</in>
                <out>70220</out>
                <start>70102</start>
                <end>70220</end>
                <file id="src-4"/>
                <sourcetrack>
                  <mediatype>video</mediatype>
                  <trackindex>1</trackindex>
                </sourcetrack>
                <multiclip id="mcs-647">
                  <name>MCS-647</name>
                  <masterclipid>clip-master</masterclipid>
                  <collapsed>false</collapsed>
                  <angle>
                    <activevideoangle>false</activevideoangle>
                    <activeaudioangle>false</activeaudioangle>
                    <clip id="clip-1"/>
                  </angle>
                  <angle>
                    <activevideoangle>false</activevideoangle>
                    <activeaudioangle>false</activeaudioangle>
                    <clip id="clip-2"/>
                  </angle>
                  <angle>
                    <activevideoangle>false</activevideoangle>
                    <activeaudioangle>false</activeaudioangle>
                    <clip id="clip-3"/>
                  </angle>
                  <angle>
                    <activevideoangle>true</activevideoangle>
                    <activeaudioangle>true</activeaudioangle>
                    <clip id="clip-4"/>
                  </angle>
                  <angle>
                    <activevideoangle>false</activevideoangle>
                    <activeaudioangle>false</activeaudioangle>
                    <clip id="clip-5"/>
                  </angle>
                  <angle>
                    <activevideoangle>false</activevideoangle>
                    <activeaudioangle>false</activeaudioangle>
                    <clip id="clip-6"/>
                  </angle>
                  <angle>
                    <activevideoangle>false</activevideoangle>
                    <activeaudioangle>false</activeaudioangle>
                    <clip id="clip-7"/>
                  </angle>
                  <masterclipid>clip-master</masterclipid>
                </multiclip>
              </clipitem>
              <clipitem id="cs-648">
                <duration>87</duration>
                <rate>
                  <ntsc>false</ntsc>
                  <timebase>25</timebase>
                </rate>
                <in>70220</in>
                <out>70306</out>
                <start>70220</start>
                <end>70306</end>
                <file id="src-2"/>
                <sourcetrack>
                  <mediatype>video</mediatype>
                  <trackindex>1</trackindex>
                </sourcetrack>
                <multiclip id="mcs-648">
                  <name>MCS-648</name>
                  <masterclipid>clip-master</masterclipid>
                  <collapsed>false</collapsed>
                  <angle>
                    <activevideoangle>false</activevideoangle>
                    <activeaudioangle>false</activeaudioangle>
                    <clip id="clip-1"/>
                  </angle>
                  <angle>
                    <activevideoangle>true</activevideoangle>
                    <activeaudioangle>true</activeaudioangle>
                    <clip id="clip-2"/>
                  </angle>
                  <angle>
                    <activevideoangle>false</activevideoangle>
                    <activeaudioangle>false</activeaudioangle>
                    <clip id="clip-3"/>
                  </angle>
                  <angle>
                    <activevideoangle>false</activevideoangle>
                    <activeaudioangle>false</activeaudioangle>
                    <clip id="clip-4"/>
                  </angle>
                  <angle>
                    <activevideoangle>false</activevideoangle>
                    <activeaudioangle>false</activeaudioangle>
                    <clip id="clip-5"/>
                  </angle>
                  <angle>
                    <activevideoangle>false</activevideoangle>
                    <activeaudioangle>false</activeaudioangle>
                    <clip id="clip-6"/>
                  </angle>
                  <angle>
                    <activevideoangle>false</activevideoangle>
                    <activeaudioangle>false</activeaudioangle>
                    <clip id="clip-7"/>
                  </angle>
                  <masterclipid>clip-master</masterclipid>
                </multiclip>
              </clipitem>
              <clipitem id="cs-649">
                <duration>73</duration>
                <rate>
                  <ntsc>false</ntsc>
                  <timebase>25</timebase>
                </rate>
                <in>70306</in>
                <out>70378</out>
                <start>70306</start>
                <end>70378</end>
                <file id="src-3"/>
                <sourcetrack>
                  <mediatype>video</mediatype>
                  <trackindex>1</trackindex>
                </sourcetrack>
                <multiclip id="mcs-649">
                  <name>MCS-649</name>
                  <masterclipid>clip-master</masterclipid>
                  <collapsed>false</collapsed>
                  <angle>
                    <activevideoangle>false</activevideoangle>
                    <activeaudioangle>false</activeaudioangle>
                    <clip id="clip-1"/>
                  </angle>
                  <angle>
                    <activevideoangle>false</activevideoangle>
                    <activeaudioangle>false</activeaudioangle>
                    <clip id="clip-2"/>
                  </angle>
                  <angle>
                    <activevideoangle>true</activevideoangle>
                    <activeaudioangle>true</activeaudioangle>
                    <clip id="clip-3"/>
                  </angle>
                  <angle>
                    <activevideoangle>false</activevideoangle>
                    <activeaudioangle>false</activeaudioangle>
                    <clip id="clip-4"/>
                  </angle>
                  <angle>
                    <activevideoangle>false</activevideoangle>
                    <activeaudioangle>false</activeaudioangle>
                    <clip id="clip-5"/>
                  </angle>
                  <angle>
                    <activevideoangle>false</activevideoangle>
                    <activeaudioangle>false</activeaudioangle>
                    <clip id="clip-6"/>
                  </angle>
                  <angle>
                    <activevideoangle>false</activevideoangle>
                    <activeaudioangle>false</activeaudioangle>
                    <clip id="clip-7"/>
                  </angle>
                  <masterclipid>clip-master</masterclipid>
                </multiclip>
              </clipitem>
              <clipitem id="cs-650">
                <duration>82</duration>
                <rate>
                  <ntsc>false</ntsc>
                  <timebase>25</timebase>
                </rate>
                <in>70378</in>
                <out>70459</out>
                <start>70378</start>
                <end>70459</end>
                <file id="src-1"/>
                <sourcetrack>
                  <mediatype>video</mediatype>
                  <trackindex>1</trackindex>
                </sourcetrack>
                <multiclip id="mcs-650">
                  <name>MCS-650</name>
                  <masterclipid>clip-master</masterclipid>
                  <collapsed>false</collapsed>
                  <angle>
                    <activevideoangle>true</activevideoangle>
                    <activeaudioangle>true</activeaudioangle>
                    <clip id="clip-1"/>
                  </angle>
                  <angle>
                    <activevideoangle>false</activevideoangle>
                    <activeaudioangle>false</activeaudioangle>
                    <clip id="clip-2"/>
                  </angle>
                  <angle>
                    <activevideoangle>false</activevideoangle>
                    <activeaudioangle>false</activeaudioangle>
                    <clip id="clip-3"/>
                  </angle>
                  <angle>
                    <activevideoangle>false</activevideoangle>
                    <activeaudioangle>false</activeaudioangle>
                    <clip id="clip-4"/>
                  </angle>
                  <angle>
                    <activevideoangle>false</activevideoangle>
                    <activeaudioangle>false</activeaudioangle>
                    <clip id="clip-5"/>
                  </angle>
                  <angle>
                    <activevideoangle>false</activevideoangle>
                    <activeaudioangle>false</activeaudioangle>
                    <clip id="clip-6"/>
                  </angle>
                  <angle>
                    <activevideoangle>false</activevideoangle>
                    <activeaudioangle>false</activeaudioangle>
                    <clip id="clip-7"/>
                  </angle>
                  <masterclipid>clip-master</masterclipid>
                </multiclip>
              </clipitem>
              <clipitem id="cs-651">
                <duration>209</duration>
                <rate>
                  <ntsc>false</ntsc>
                  <timebase>25</timebase>
                </rate>
                <in>70459</in>
                <out>70667</out>
                <start>70459</start>
                <end>70667</end>
                <file id="src-2"/>
                <sourcetrack>
                  <mediatype>video</mediatype>
                  <trackindex>1</trackindex>
                </sourcetrack>
                <multiclip id="mcs-651">
                  <name>MCS-651</name>
                  <masterclipid>clip-master</masterclipid>
                  <collapsed>false</collapsed>
                  <angle>
                    <activevideoangle>false</activevideoangle>
                    <activeaudioangle>false</activeaudioangle>
                    <clip id="clip-1"/>
                  </angle>
                  <angle>
                    <activevideoangle>true</activevideoangle>
                    <activeaudioangle>true</activeaudioangle>
                    <clip id="clip-2"/>
                  </angle>
                  <angle>
                    <activevideoangle>false</activevideoangle>
                    <activeaudioangle>false</activeaudioangle>
                    <clip id="clip-3"/>
                  </angle>
                  <angle>
                    <activevideoangle>false</activevideoangle>
                    <activeaudioangle>false</activeaudioangle>
                    <clip id="clip-4"/>
                  </angle>
                  <angle>
                    <activevideoangle>false</activevideoangle>
                    <activeaudioangle>false</activeaudioangle>
                    <clip id="clip-5"/>
                  </angle>
                  <angle>
                    <activevideoangle>false</activevideoangle>
                    <activeaudioangle>false</activeaudioangle>
                    <clip id="clip-6"/>
                  </angle>
                  <angle>
                    <activevideoangle>false</activevideoangle>
                    <activeaudioangle>false</activeaudioangle>
                    <clip id="clip-7"/>
                  </angle>
                  <masterclipid>clip-master</masterclipid>
                </multiclip>
              </clipitem>
              <clipitem id="cs-652">
                <duration>75</duration>
                <rate>
                  <ntsc>false</ntsc>
                  <timebase>25</timebase>
                </rate>
                <in>70667</in>
                <out>70741</out>
                <start>70667</start>
                <end>70741</end>
                <file id="src-5"/>
                <sourcetrack>
                  <mediatype>video</mediatype>
                  <trackindex>1</trackindex>
                </sourcetrack>
                <multiclip id="mcs-652">
                  <name>MCS-652</name>
                  <masterclipid>clip-master</masterclipid>
                  <collapsed>false</collapsed>
                  <angle>
                    <activevideoangle>false</activevideoangle>
                    <activeaudioangle>false</activeaudioangle>
                    <clip id="clip-1"/>
                  </angle>
                  <angle>
                    <activevideoangle>false</activevideoangle>
                    <activeaudioangle>false</activeaudioangle>
                    <clip id="clip-2"/>
                  </angle>
                  <angle>
                    <activevideoangle>false</activevideoangle>
                    <activeaudioangle>false</activeaudioangle>
                    <clip id="clip-3"/>
                  </angle>
                  <angle>
                    <activevideoangle>false</activevideoangle>
                    <activeaudioangle>false</activeaudioangle>
                    <clip id="clip-4"/>
                  </angle>
                  <angle>
                    <activevideoangle>true</activevideoangle>
                    <activeaudioangle>true</activeaudioangle>
                    <clip id="clip-5"/>
                  </angle>
                  <angle>
                    <activevideoangle>false</activevideoangle>
                    <activeaudioangle>false</activeaudioangle>
                    <clip id="clip-6"/>
                  </angle>
                  <angle>
                    <activevideoangle>false</activevideoangle>
                    <activeaudioangle>false</activeaudioangle>
                    <clip id="clip-7"/>
                  </angle>
                  <masterclipid>clip-master</masterclipid>
                </multiclip>
              </clipitem>
              <clipitem id="cs-653">
                <duration>133</duration>
                <rate>
                  <ntsc>false</ntsc>
                  <timebase>25</timebase>
                </rate>
                <in>70741</in>
                <out>70873</out>
                <start>70741</start>
                <end>70873</end>
                <file id="src-2"/>
                <sourcetrack>
                  <mediatype>video</mediatype>
                  <trackindex>1</trackindex>
                </sourcetrack>
                <multiclip id="mcs-653">
                  <name>MCS-653</name>
                  <masterclipid>clip-master</masterclipid>
                  <collapsed>false</collapsed>
                  <angle>
                    <activevideoangle>false</activevideoangle>
                    <activeaudioangle>false</activeaudioangle>
                    <clip id="clip-1"/>
                  </angle>
                  <angle>
                    <activevideoangle>true</activevideoangle>
                    <activeaudioangle>true</activeaudioangle>
                    <clip id="clip-2"/>
                  </angle>
                  <angle>
                    <activevideoangle>false</activevideoangle>
                    <activeaudioangle>false</activeaudioangle>
                    <clip id="clip-3"/>
                  </angle>
                  <angle>
                    <activevideoangle>false</activevideoangle>
                    <activeaudioangle>false</activeaudioangle>
                    <clip id="clip-4"/>
                  </angle>
                  <angle>
                    <activevideoangle>false</activevideoangle>
                    <activeaudioangle>false</activeaudioangle>
                    <clip id="clip-5"/>
                  </angle>
                  <angle>
                    <activevideoangle>false</activevideoangle>
                    <activeaudioangle>false</activeaudioangle>
                    <clip id="clip-6"/>
                  </angle>
                  <angle>
                    <activevideoangle>false</activevideoangle>
                    <activeaudioangle>false</activeaudioangle>
                    <clip id="clip-7"/>
                  </angle>
                  <masterclipid>clip-master</masterclipid>
                </multiclip>
              </clipitem>
              <clipitem id="cs-654">
                <duration>72</duration>
                <rate>
                  <ntsc>false</ntsc>
                  <timebase>25</timebase>
                </rate>
                <in>70873</in>
                <out>70944</out>
                <start>70873</start>
                <end>70944</end>
                <file id="src-3"/>
                <sourcetrack>
                  <mediatype>video</mediatype>
                  <trackindex>1</trackindex>
                </sourcetrack>
                <multiclip id="mcs-654">
                  <name>MCS-654</name>
                  <masterclipid>clip-master</masterclipid>
                  <collapsed>false</collapsed>
                  <angle>
                    <activevideoangle>false</activevideoangle>
                    <activeaudioangle>false</activeaudioangle>
                    <clip id="clip-1"/>
                  </angle>
                  <angle>
                    <activevideoangle>false</activevideoangle>
                    <activeaudioangle>false</activeaudioangle>
                    <clip id="clip-2"/>
                  </angle>
                  <angle>
                    <activevideoangle>true</activevideoangle>
                    <activeaudioangle>true</activeaudioangle>
                    <clip id="clip-3"/>
                  </angle>
                  <angle>
                    <activevideoangle>false</activevideoangle>
                    <activeaudioangle>false</activeaudioangle>
                    <clip id="clip-4"/>
                  </angle>
                  <angle>
                    <activevideoangle>false</activevideoangle>
                    <activeaudioangle>false</activeaudioangle>
                    <clip id="clip-5"/>
                  </angle>
                  <angle>
                    <activevideoangle>false</activevideoangle>
                    <activeaudioangle>false</activeaudioangle>
                    <clip id="clip-6"/>
                  </angle>
                  <angle>
                    <activevideoangle>false</activevideoangle>
                    <activeaudioangle>false</activeaudioangle>
                    <clip id="clip-7"/>
                  </angle>
                  <masterclipid>clip-master</masterclipid>
                </multiclip>
              </clipitem>
              <clipitem id="cs-655">
                <duration>68</duration>
                <rate>
                  <ntsc>false</ntsc>
                  <timebase>25</timebase>
                </rate>
                <in>70944</in>
                <out>71011</out>
                <start>70944</start>
                <end>71011</end>
                <file id="src-6"/>
                <sourcetrack>
                  <mediatype>video</mediatype>
                  <trackindex>1</trackindex>
                </sourcetrack>
                <multiclip id="mcs-655">
                  <name>MCS-655</name>
                  <masterclipid>clip-master</masterclipid>
                  <collapsed>false</collapsed>
                  <angle>
                    <activevideoangle>false</activevideoangle>
                    <activeaudioangle>false</activeaudioangle>
                    <clip id="clip-1"/>
                  </angle>
                  <angle>
                    <activevideoangle>false</activevideoangle>
                    <activeaudioangle>false</activeaudioangle>
                    <clip id="clip-2"/>
                  </angle>
                  <angle>
                    <activevideoangle>false</activevideoangle>
                    <activeaudioangle>false</activeaudioangle>
                    <clip id="clip-3"/>
                  </angle>
                  <angle>
                    <activevideoangle>false</activevideoangle>
                    <activeaudioangle>false</activeaudioangle>
                    <clip id="clip-4"/>
                  </angle>
                  <angle>
                    <activevideoangle>false</activevideoangle>
                    <activeaudioangle>false</activeaudioangle>
                    <clip id="clip-5"/>
                  </angle>
                  <angle>
                    <activevideoangle>true</activevideoangle>
                    <activeaudioangle>true</activeaudioangle>
                    <clip id="clip-6"/>
                  </angle>
                  <angle>
                    <activevideoangle>false</activevideoangle>
                    <activeaudioangle>false</activeaudioangle>
                    <clip id="clip-7"/>
                  </angle>
                  <masterclipid>clip-master</masterclipid>
                </multiclip>
              </clipitem>
              <clipitem id="cs-656">
                <duration>124</duration>
                <rate>
                  <ntsc>false</ntsc>
                  <timebase>25</timebase>
                </rate>
                <in>71011</in>
                <out>71134</out>
                <start>71011</start>
                <end>71134</end>
                <file id="src-2"/>
                <sourcetrack>
                  <mediatype>video</mediatype>
                  <trackindex>1</trackindex>
                </sourcetrack>
                <multiclip id="mcs-656">
                  <name>MCS-656</name>
                  <masterclipid>clip-master</masterclipid>
                  <collapsed>false</collapsed>
                  <angle>
                    <activevideoangle>false</activevideoangle>
                    <activeaudioangle>false</activeaudioangle>
                    <clip id="clip-1"/>
                  </angle>
                  <angle>
                    <activevideoangle>true</activevideoangle>
                    <activeaudioangle>true</activeaudioangle>
                    <clip id="clip-2"/>
                  </angle>
                  <angle>
                    <activevideoangle>false</activevideoangle>
                    <activeaudioangle>false</activeaudioangle>
                    <clip id="clip-3"/>
                  </angle>
                  <angle>
                    <activevideoangle>false</activevideoangle>
                    <activeaudioangle>false</activeaudioangle>
                    <clip id="clip-4"/>
                  </angle>
                  <angle>
                    <activevideoangle>false</activevideoangle>
                    <activeaudioangle>false</activeaudioangle>
                    <clip id="clip-5"/>
                  </angle>
                  <angle>
                    <activevideoangle>false</activevideoangle>
                    <activeaudioangle>false</activeaudioangle>
                    <clip id="clip-6"/>
                  </angle>
                  <angle>
                    <activevideoangle>false</activevideoangle>
                    <activeaudioangle>false</activeaudioangle>
                    <clip id="clip-7"/>
                  </angle>
                  <masterclipid>clip-master</masterclipid>
                </multiclip>
              </clipitem>
              <clipitem id="cs-657">
                <duration>66</duration>
                <rate>
                  <ntsc>false</ntsc>
                  <timebase>25</timebase>
                </rate>
                <in>71134</in>
                <out>71199</out>
                <start>71134</start>
                <end>71199</end>
                <file id="src-3"/>
                <sourcetrack>
                  <mediatype>video</mediatype>
                  <trackindex>1</trackindex>
                </sourcetrack>
                <multiclip id="mcs-657">
                  <name>MCS-657</name>
                  <masterclipid>clip-master</masterclipid>
                  <collapsed>false</collapsed>
                  <angle>
                    <activevideoangle>false</activevideoangle>
                    <activeaudioangle>false</activeaudioangle>
                    <clip id="clip-1"/>
                  </angle>
                  <angle>
                    <activevideoangle>false</activevideoangle>
                    <activeaudioangle>false</activeaudioangle>
                    <clip id="clip-2"/>
                  </angle>
                  <angle>
                    <activevideoangle>true</activevideoangle>
                    <activeaudioangle>true</activeaudioangle>
                    <clip id="clip-3"/>
                  </angle>
                  <angle>
                    <activevideoangle>false</activevideoangle>
                    <activeaudioangle>false</activeaudioangle>
                    <clip id="clip-4"/>
                  </angle>
                  <angle>
                    <activevideoangle>false</activevideoangle>
                    <activeaudioangle>false</activeaudioangle>
                    <clip id="clip-5"/>
                  </angle>
                  <angle>
                    <activevideoangle>false</activevideoangle>
                    <activeaudioangle>false</activeaudioangle>
                    <clip id="clip-6"/>
                  </angle>
                  <angle>
                    <activevideoangle>false</activevideoangle>
                    <activeaudioangle>false</activeaudioangle>
                    <clip id="clip-7"/>
                  </angle>
                  <masterclipid>clip-master</masterclipid>
                </multiclip>
              </clipitem>
              <clipitem id="cs-658">
                <duration>173</duration>
                <rate>
                  <ntsc>false</ntsc>
                  <timebase>25</timebase>
                </rate>
                <in>71199</in>
                <out>71371</out>
                <start>71199</start>
                <end>71371</end>
                <file id="src-4"/>
                <sourcetrack>
                  <mediatype>video</mediatype>
                  <trackindex>1</trackindex>
                </sourcetrack>
                <multiclip id="mcs-658">
                  <name>MCS-658</name>
                  <masterclipid>clip-master</masterclipid>
                  <collapsed>false</collapsed>
                  <angle>
                    <activevideoangle>false</activevideoangle>
                    <activeaudioangle>false</activeaudioangle>
                    <clip id="clip-1"/>
                  </angle>
                  <angle>
                    <activevideoangle>false</activevideoangle>
                    <activeaudioangle>false</activeaudioangle>
                    <clip id="clip-2"/>
                  </angle>
                  <angle>
                    <activevideoangle>false</activevideoangle>
                    <activeaudioangle>false</activeaudioangle>
                    <clip id="clip-3"/>
                  </angle>
                  <angle>
                    <activevideoangle>true</activevideoangle>
                    <activeaudioangle>true</activeaudioangle>
                    <clip id="clip-4"/>
                  </angle>
                  <angle>
                    <activevideoangle>false</activevideoangle>
                    <activeaudioangle>false</activeaudioangle>
                    <clip id="clip-5"/>
                  </angle>
                  <angle>
                    <activevideoangle>false</activevideoangle>
                    <activeaudioangle>false</activeaudioangle>
                    <clip id="clip-6"/>
                  </angle>
                  <angle>
                    <activevideoangle>false</activevideoangle>
                    <activeaudioangle>false</activeaudioangle>
                    <clip id="clip-7"/>
                  </angle>
                  <masterclipid>clip-master</masterclipid>
                </multiclip>
              </clipitem>
              <clipitem id="cs-659">
                <duration>538</duration>
                <rate>
                  <ntsc>false</ntsc>
                  <timebase>25</timebase>
                </rate>
                <in>71371</in>
                <out>71908</out>
                <start>71371</start>
                <end>71908</end>
                <file id="src-3"/>
                <sourcetrack>
                  <mediatype>video</mediatype>
                  <trackindex>1</trackindex>
                </sourcetrack>
                <multiclip id="mcs-659">
                  <name>MCS-659</name>
                  <masterclipid>clip-master</masterclipid>
                  <collapsed>false</collapsed>
                  <angle>
                    <activevideoangle>false</activevideoangle>
                    <activeaudioangle>false</activeaudioangle>
                    <clip id="clip-1"/>
                  </angle>
                  <angle>
                    <activevideoangle>false</activevideoangle>
                    <activeaudioangle>false</activeaudioangle>
                    <clip id="clip-2"/>
                  </angle>
                  <angle>
                    <activevideoangle>true</activevideoangle>
                    <activeaudioangle>true</activeaudioangle>
                    <clip id="clip-3"/>
                  </angle>
                  <angle>
                    <activevideoangle>false</activevideoangle>
                    <activeaudioangle>false</activeaudioangle>
                    <clip id="clip-4"/>
                  </angle>
                  <angle>
                    <activevideoangle>false</activevideoangle>
                    <activeaudioangle>false</activeaudioangle>
                    <clip id="clip-5"/>
                  </angle>
                  <angle>
                    <activevideoangle>false</activevideoangle>
                    <activeaudioangle>false</activeaudioangle>
                    <clip id="clip-6"/>
                  </angle>
                  <angle>
                    <activevideoangle>false</activevideoangle>
                    <activeaudioangle>false</activeaudioangle>
                    <clip id="clip-7"/>
                  </angle>
                  <masterclipid>clip-master</masterclipid>
                </multiclip>
              </clipitem>
              <clipitem id="cs-660">
                <duration>133</duration>
                <rate>
                  <ntsc>false</ntsc>
                  <timebase>25</timebase>
                </rate>
                <in>71908</in>
                <out>72040</out>
                <start>71908</start>
                <end>72040</end>
                <file id="src-4"/>
                <sourcetrack>
                  <mediatype>video</mediatype>
                  <trackindex>1</trackindex>
                </sourcetrack>
                <multiclip id="mcs-660">
                  <name>MCS-660</name>
                  <masterclipid>clip-master</masterclipid>
                  <collapsed>false</collapsed>
                  <angle>
                    <activevideoangle>false</activevideoangle>
                    <activeaudioangle>false</activeaudioangle>
                    <clip id="clip-1"/>
                  </angle>
                  <angle>
                    <activevideoangle>false</activevideoangle>
                    <activeaudioangle>false</activeaudioangle>
                    <clip id="clip-2"/>
                  </angle>
                  <angle>
                    <activevideoangle>false</activevideoangle>
                    <activeaudioangle>false</activeaudioangle>
                    <clip id="clip-3"/>
                  </angle>
                  <angle>
                    <activevideoangle>true</activevideoangle>
                    <activeaudioangle>true</activeaudioangle>
                    <clip id="clip-4"/>
                  </angle>
                  <angle>
                    <activevideoangle>false</activevideoangle>
                    <activeaudioangle>false</activeaudioangle>
                    <clip id="clip-5"/>
                  </angle>
                  <angle>
                    <activevideoangle>false</activevideoangle>
                    <activeaudioangle>false</activeaudioangle>
                    <clip id="clip-6"/>
                  </angle>
                  <angle>
                    <activevideoangle>false</activevideoangle>
                    <activeaudioangle>false</activeaudioangle>
                    <clip id="clip-7"/>
                  </angle>
                  <masterclipid>clip-master</masterclipid>
                </multiclip>
              </clipitem>
              <clipitem id="cs-661">
                <duration>63</duration>
                <rate>
                  <ntsc>false</ntsc>
                  <timebase>25</timebase>
                </rate>
                <in>72040</in>
                <out>72102</out>
                <start>72040</start>
                <end>72102</end>
                <file id="src-2"/>
                <sourcetrack>
                  <mediatype>video</mediatype>
                  <trackindex>1</trackindex>
                </sourcetrack>
                <multiclip id="mcs-661">
                  <name>MCS-661</name>
                  <masterclipid>clip-master</masterclipid>
                  <collapsed>false</collapsed>
                  <angle>
                    <activevideoangle>false</activevideoangle>
                    <activeaudioangle>false</activeaudioangle>
                    <clip id="clip-1"/>
                  </angle>
                  <angle>
                    <activevideoangle>true</activevideoangle>
                    <activeaudioangle>true</activeaudioangle>
                    <clip id="clip-2"/>
                  </angle>
                  <angle>
                    <activevideoangle>false</activevideoangle>
                    <activeaudioangle>false</activeaudioangle>
                    <clip id="clip-3"/>
                  </angle>
                  <angle>
                    <activevideoangle>false</activevideoangle>
                    <activeaudioangle>false</activeaudioangle>
                    <clip id="clip-4"/>
                  </angle>
                  <angle>
                    <activevideoangle>false</activevideoangle>
                    <activeaudioangle>false</activeaudioangle>
                    <clip id="clip-5"/>
                  </angle>
                  <angle>
                    <activevideoangle>false</activevideoangle>
                    <activeaudioangle>false</activeaudioangle>
                    <clip id="clip-6"/>
                  </angle>
                  <angle>
                    <activevideoangle>false</activevideoangle>
                    <activeaudioangle>false</activeaudioangle>
                    <clip id="clip-7"/>
                  </angle>
                  <masterclipid>clip-master</masterclipid>
                </multiclip>
              </clipitem>
              <clipitem id="cs-662">
                <duration>326</duration>
                <rate>
                  <ntsc>false</ntsc>
                  <timebase>25</timebase>
                </rate>
                <in>72102</in>
                <out>72427</out>
                <start>72102</start>
                <end>72427</end>
                <file id="src-3"/>
                <sourcetrack>
                  <mediatype>video</mediatype>
                  <trackindex>1</trackindex>
                </sourcetrack>
                <multiclip id="mcs-662">
                  <name>MCS-662</name>
                  <masterclipid>clip-master</masterclipid>
                  <collapsed>false</collapsed>
                  <angle>
                    <activevideoangle>false</activevideoangle>
                    <activeaudioangle>false</activeaudioangle>
                    <clip id="clip-1"/>
                  </angle>
                  <angle>
                    <activevideoangle>false</activevideoangle>
                    <activeaudioangle>false</activeaudioangle>
                    <clip id="clip-2"/>
                  </angle>
                  <angle>
                    <activevideoangle>true</activevideoangle>
                    <activeaudioangle>true</activeaudioangle>
                    <clip id="clip-3"/>
                  </angle>
                  <angle>
                    <activevideoangle>false</activevideoangle>
                    <activeaudioangle>false</activeaudioangle>
                    <clip id="clip-4"/>
                  </angle>
                  <angle>
                    <activevideoangle>false</activevideoangle>
                    <activeaudioangle>false</activeaudioangle>
                    <clip id="clip-5"/>
                  </angle>
                  <angle>
                    <activevideoangle>false</activevideoangle>
                    <activeaudioangle>false</activeaudioangle>
                    <clip id="clip-6"/>
                  </angle>
                  <angle>
                    <activevideoangle>false</activevideoangle>
                    <activeaudioangle>false</activeaudioangle>
                    <clip id="clip-7"/>
                  </angle>
                  <masterclipid>clip-master</masterclipid>
                </multiclip>
              </clipitem>
              <clipitem id="cs-663">
                <duration>167</duration>
                <rate>
                  <ntsc>false</ntsc>
                  <timebase>25</timebase>
                </rate>
                <in>72427</in>
                <out>72593</out>
                <start>72427</start>
                <end>72593</end>
                <file id="src-2"/>
                <sourcetrack>
                  <mediatype>video</mediatype>
                  <trackindex>1</trackindex>
                </sourcetrack>
                <multiclip id="mcs-663">
                  <name>MCS-663</name>
                  <masterclipid>clip-master</masterclipid>
                  <collapsed>false</collapsed>
                  <angle>
                    <activevideoangle>false</activevideoangle>
                    <activeaudioangle>false</activeaudioangle>
                    <clip id="clip-1"/>
                  </angle>
                  <angle>
                    <activevideoangle>true</activevideoangle>
                    <activeaudioangle>true</activeaudioangle>
                    <clip id="clip-2"/>
                  </angle>
                  <angle>
                    <activevideoangle>false</activevideoangle>
                    <activeaudioangle>false</activeaudioangle>
                    <clip id="clip-3"/>
                  </angle>
                  <angle>
                    <activevideoangle>false</activevideoangle>
                    <activeaudioangle>false</activeaudioangle>
                    <clip id="clip-4"/>
                  </angle>
                  <angle>
                    <activevideoangle>false</activevideoangle>
                    <activeaudioangle>false</activeaudioangle>
                    <clip id="clip-5"/>
                  </angle>
                  <angle>
                    <activevideoangle>false</activevideoangle>
                    <activeaudioangle>false</activeaudioangle>
                    <clip id="clip-6"/>
                  </angle>
                  <angle>
                    <activevideoangle>false</activevideoangle>
                    <activeaudioangle>false</activeaudioangle>
                    <clip id="clip-7"/>
                  </angle>
                  <masterclipid>clip-master</masterclipid>
                </multiclip>
              </clipitem>
              <clipitem id="cs-664">
                <duration>225</duration>
                <rate>
                  <ntsc>false</ntsc>
                  <timebase>25</timebase>
                </rate>
                <in>72593</in>
                <out>72817</out>
                <start>72593</start>
                <end>72817</end>
                <file id="src-3"/>
                <sourcetrack>
                  <mediatype>video</mediatype>
                  <trackindex>1</trackindex>
                </sourcetrack>
                <multiclip id="mcs-664">
                  <name>MCS-664</name>
                  <masterclipid>clip-master</masterclipid>
                  <collapsed>false</collapsed>
                  <angle>
                    <activevideoangle>false</activevideoangle>
                    <activeaudioangle>false</activeaudioangle>
                    <clip id="clip-1"/>
                  </angle>
                  <angle>
                    <activevideoangle>false</activevideoangle>
                    <activeaudioangle>false</activeaudioangle>
                    <clip id="clip-2"/>
                  </angle>
                  <angle>
                    <activevideoangle>true</activevideoangle>
                    <activeaudioangle>true</activeaudioangle>
                    <clip id="clip-3"/>
                  </angle>
                  <angle>
                    <activevideoangle>false</activevideoangle>
                    <activeaudioangle>false</activeaudioangle>
                    <clip id="clip-4"/>
                  </angle>
                  <angle>
                    <activevideoangle>false</activevideoangle>
                    <activeaudioangle>false</activeaudioangle>
                    <clip id="clip-5"/>
                  </angle>
                  <angle>
                    <activevideoangle>false</activevideoangle>
                    <activeaudioangle>false</activeaudioangle>
                    <clip id="clip-6"/>
                  </angle>
                  <angle>
                    <activevideoangle>false</activevideoangle>
                    <activeaudioangle>false</activeaudioangle>
                    <clip id="clip-7"/>
                  </angle>
                  <masterclipid>clip-master</masterclipid>
                </multiclip>
              </clipitem>
              <clipitem id="cs-665">
                <duration>62</duration>
                <rate>
                  <ntsc>false</ntsc>
                  <timebase>25</timebase>
                </rate>
                <in>72817</in>
                <out>72878</out>
                <start>72817</start>
                <end>72878</end>
                <file id="src-1"/>
                <sourcetrack>
                  <mediatype>video</mediatype>
                  <trackindex>1</trackindex>
                </sourcetrack>
                <multiclip id="mcs-665">
                  <name>MCS-665</name>
                  <masterclipid>clip-master</masterclipid>
                  <collapsed>false</collapsed>
                  <angle>
                    <activevideoangle>true</activevideoangle>
                    <activeaudioangle>true</activeaudioangle>
                    <clip id="clip-1"/>
                  </angle>
                  <angle>
                    <activevideoangle>false</activevideoangle>
                    <activeaudioangle>false</activeaudioangle>
                    <clip id="clip-2"/>
                  </angle>
                  <angle>
                    <activevideoangle>false</activevideoangle>
                    <activeaudioangle>false</activeaudioangle>
                    <clip id="clip-3"/>
                  </angle>
                  <angle>
                    <activevideoangle>false</activevideoangle>
                    <activeaudioangle>false</activeaudioangle>
                    <clip id="clip-4"/>
                  </angle>
                  <angle>
                    <activevideoangle>false</activevideoangle>
                    <activeaudioangle>false</activeaudioangle>
                    <clip id="clip-5"/>
                  </angle>
                  <angle>
                    <activevideoangle>false</activevideoangle>
                    <activeaudioangle>false</activeaudioangle>
                    <clip id="clip-6"/>
                  </angle>
                  <angle>
                    <activevideoangle>false</activevideoangle>
                    <activeaudioangle>false</activeaudioangle>
                    <clip id="clip-7"/>
                  </angle>
                  <masterclipid>clip-master</masterclipid>
                </multiclip>
              </clipitem>
              <clipitem id="cs-666">
                <duration>238</duration>
                <rate>
                  <ntsc>false</ntsc>
                  <timebase>25</timebase>
                </rate>
                <in>72878</in>
                <out>73115</out>
                <start>72878</start>
                <end>73115</end>
                <file id="src-3"/>
                <sourcetrack>
                  <mediatype>video</mediatype>
                  <trackindex>1</trackindex>
                </sourcetrack>
                <multiclip id="mcs-666">
                  <name>MCS-666</name>
                  <masterclipid>clip-master</masterclipid>
                  <collapsed>false</collapsed>
                  <angle>
                    <activevideoangle>false</activevideoangle>
                    <activeaudioangle>false</activeaudioangle>
                    <clip id="clip-1"/>
                  </angle>
                  <angle>
                    <activevideoangle>false</activevideoangle>
                    <activeaudioangle>false</activeaudioangle>
                    <clip id="clip-2"/>
                  </angle>
                  <angle>
                    <activevideoangle>true</activevideoangle>
                    <activeaudioangle>true</activeaudioangle>
                    <clip id="clip-3"/>
                  </angle>
                  <angle>
                    <activevideoangle>false</activevideoangle>
                    <activeaudioangle>false</activeaudioangle>
                    <clip id="clip-4"/>
                  </angle>
                  <angle>
                    <activevideoangle>false</activevideoangle>
                    <activeaudioangle>false</activeaudioangle>
                    <clip id="clip-5"/>
                  </angle>
                  <angle>
                    <activevideoangle>false</activevideoangle>
                    <activeaudioangle>false</activeaudioangle>
                    <clip id="clip-6"/>
                  </angle>
                  <angle>
                    <activevideoangle>false</activevideoangle>
                    <activeaudioangle>false</activeaudioangle>
                    <clip id="clip-7"/>
                  </angle>
                  <masterclipid>clip-master</masterclipid>
                </multiclip>
              </clipitem>
              <clipitem id="cs-667">
                <duration>216</duration>
                <rate>
                  <ntsc>false</ntsc>
                  <timebase>25</timebase>
                </rate>
                <in>73115</in>
                <out>73330</out>
                <start>73115</start>
                <end>73330</end>
                <file id="src-2"/>
                <sourcetrack>
                  <mediatype>video</mediatype>
                  <trackindex>1</trackindex>
                </sourcetrack>
                <multiclip id="mcs-667">
                  <name>MCS-667</name>
                  <masterclipid>clip-master</masterclipid>
                  <collapsed>false</collapsed>
                  <angle>
                    <activevideoangle>false</activevideoangle>
                    <activeaudioangle>false</activeaudioangle>
                    <clip id="clip-1"/>
                  </angle>
                  <angle>
                    <activevideoangle>true</activevideoangle>
                    <activeaudioangle>true</activeaudioangle>
                    <clip id="clip-2"/>
                  </angle>
                  <angle>
                    <activevideoangle>false</activevideoangle>
                    <activeaudioangle>false</activeaudioangle>
                    <clip id="clip-3"/>
                  </angle>
                  <angle>
                    <activevideoangle>false</activevideoangle>
                    <activeaudioangle>false</activeaudioangle>
                    <clip id="clip-4"/>
                  </angle>
                  <angle>
                    <activevideoangle>false</activevideoangle>
                    <activeaudioangle>false</activeaudioangle>
                    <clip id="clip-5"/>
                  </angle>
                  <angle>
                    <activevideoangle>false</activevideoangle>
                    <activeaudioangle>false</activeaudioangle>
                    <clip id="clip-6"/>
                  </angle>
                  <angle>
                    <activevideoangle>false</activevideoangle>
                    <activeaudioangle>false</activeaudioangle>
                    <clip id="clip-7"/>
                  </angle>
                  <masterclipid>clip-master</masterclipid>
                </multiclip>
              </clipitem>
              <clipitem id="cs-668">
                <duration>84</duration>
                <rate>
                  <ntsc>false</ntsc>
                  <timebase>25</timebase>
                </rate>
                <in>73330</in>
                <out>73413</out>
                <start>73330</start>
                <end>73413</end>
                <file id="src-4"/>
                <sourcetrack>
                  <mediatype>video</mediatype>
                  <trackindex>1</trackindex>
                </sourcetrack>
                <multiclip id="mcs-668">
                  <name>MCS-668</name>
                  <masterclipid>clip-master</masterclipid>
                  <collapsed>false</collapsed>
                  <angle>
                    <activevideoangle>false</activevideoangle>
                    <activeaudioangle>false</activeaudioangle>
                    <clip id="clip-1"/>
                  </angle>
                  <angle>
                    <activevideoangle>false</activevideoangle>
                    <activeaudioangle>false</activeaudioangle>
                    <clip id="clip-2"/>
                  </angle>
                  <angle>
                    <activevideoangle>false</activevideoangle>
                    <activeaudioangle>false</activeaudioangle>
                    <clip id="clip-3"/>
                  </angle>
                  <angle>
                    <activevideoangle>true</activevideoangle>
                    <activeaudioangle>true</activeaudioangle>
                    <clip id="clip-4"/>
                  </angle>
                  <angle>
                    <activevideoangle>false</activevideoangle>
                    <activeaudioangle>false</activeaudioangle>
                    <clip id="clip-5"/>
                  </angle>
                  <angle>
                    <activevideoangle>false</activevideoangle>
                    <activeaudioangle>false</activeaudioangle>
                    <clip id="clip-6"/>
                  </angle>
                  <angle>
                    <activevideoangle>false</activevideoangle>
                    <activeaudioangle>false</activeaudioangle>
                    <clip id="clip-7"/>
                  </angle>
                  <masterclipid>clip-master</masterclipid>
                </multiclip>
              </clipitem>
              <clipitem id="cs-669">
                <duration>153</duration>
                <rate>
                  <ntsc>false</ntsc>
                  <timebase>25</timebase>
                </rate>
                <in>73413</in>
                <out>73565</out>
                <start>73413</start>
                <end>73565</end>
                <file id="src-2"/>
                <sourcetrack>
                  <mediatype>video</mediatype>
                  <trackindex>1</trackindex>
                </sourcetrack>
                <multiclip id="mcs-669">
                  <name>MCS-669</name>
                  <masterclipid>clip-master</masterclipid>
                  <collapsed>false</collapsed>
                  <angle>
                    <activevideoangle>false</activevideoangle>
                    <activeaudioangle>false</activeaudioangle>
                    <clip id="clip-1"/>
                  </angle>
                  <angle>
                    <activevideoangle>true</activevideoangle>
                    <activeaudioangle>true</activeaudioangle>
                    <clip id="clip-2"/>
                  </angle>
                  <angle>
                    <activevideoangle>false</activevideoangle>
                    <activeaudioangle>false</activeaudioangle>
                    <clip id="clip-3"/>
                  </angle>
                  <angle>
                    <activevideoangle>false</activevideoangle>
                    <activeaudioangle>false</activeaudioangle>
                    <clip id="clip-4"/>
                  </angle>
                  <angle>
                    <activevideoangle>false</activevideoangle>
                    <activeaudioangle>false</activeaudioangle>
                    <clip id="clip-5"/>
                  </angle>
                  <angle>
                    <activevideoangle>false</activevideoangle>
                    <activeaudioangle>false</activeaudioangle>
                    <clip id="clip-6"/>
                  </angle>
                  <angle>
                    <activevideoangle>false</activevideoangle>
                    <activeaudioangle>false</activeaudioangle>
                    <clip id="clip-7"/>
                  </angle>
                  <masterclipid>clip-master</masterclipid>
                </multiclip>
              </clipitem>
              <clipitem id="cs-670">
                <duration>73</duration>
                <rate>
                  <ntsc>false</ntsc>
                  <timebase>25</timebase>
                </rate>
                <in>73565</in>
                <out>73637</out>
                <start>73565</start>
                <end>73637</end>
                <file id="src-3"/>
                <sourcetrack>
                  <mediatype>video</mediatype>
                  <trackindex>1</trackindex>
                </sourcetrack>
                <multiclip id="mcs-670">
                  <name>MCS-670</name>
                  <masterclipid>clip-master</masterclipid>
                  <collapsed>false</collapsed>
                  <angle>
                    <activevideoangle>false</activevideoangle>
                    <activeaudioangle>false</activeaudioangle>
                    <clip id="clip-1"/>
                  </angle>
                  <angle>
                    <activevideoangle>false</activevideoangle>
                    <activeaudioangle>false</activeaudioangle>
                    <clip id="clip-2"/>
                  </angle>
                  <angle>
                    <activevideoangle>true</activevideoangle>
                    <activeaudioangle>true</activeaudioangle>
                    <clip id="clip-3"/>
                  </angle>
                  <angle>
                    <activevideoangle>false</activevideoangle>
                    <activeaudioangle>false</activeaudioangle>
                    <clip id="clip-4"/>
                  </angle>
                  <angle>
                    <activevideoangle>false</activevideoangle>
                    <activeaudioangle>false</activeaudioangle>
                    <clip id="clip-5"/>
                  </angle>
                  <angle>
                    <activevideoangle>false</activevideoangle>
                    <activeaudioangle>false</activeaudioangle>
                    <clip id="clip-6"/>
                  </angle>
                  <angle>
                    <activevideoangle>false</activevideoangle>
                    <activeaudioangle>false</activeaudioangle>
                    <clip id="clip-7"/>
                  </angle>
                  <masterclipid>clip-master</masterclipid>
                </multiclip>
              </clipitem>
              <clipitem id="cs-671">
                <duration>209</duration>
                <rate>
                  <ntsc>false</ntsc>
                  <timebase>25</timebase>
                </rate>
                <in>73637</in>
                <out>73845</out>
                <start>73637</start>
                <end>73845</end>
                <file id="src-2"/>
                <sourcetrack>
                  <mediatype>video</mediatype>
                  <trackindex>1</trackindex>
                </sourcetrack>
                <multiclip id="mcs-671">
                  <name>MCS-671</name>
                  <masterclipid>clip-master</masterclipid>
                  <collapsed>false</collapsed>
                  <angle>
                    <activevideoangle>false</activevideoangle>
                    <activeaudioangle>false</activeaudioangle>
                    <clip id="clip-1"/>
                  </angle>
                  <angle>
                    <activevideoangle>true</activevideoangle>
                    <activeaudioangle>true</activeaudioangle>
                    <clip id="clip-2"/>
                  </angle>
                  <angle>
                    <activevideoangle>false</activevideoangle>
                    <activeaudioangle>false</activeaudioangle>
                    <clip id="clip-3"/>
                  </angle>
                  <angle>
                    <activevideoangle>false</activevideoangle>
                    <activeaudioangle>false</activeaudioangle>
                    <clip id="clip-4"/>
                  </angle>
                  <angle>
                    <activevideoangle>false</activevideoangle>
                    <activeaudioangle>false</activeaudioangle>
                    <clip id="clip-5"/>
                  </angle>
                  <angle>
                    <activevideoangle>false</activevideoangle>
                    <activeaudioangle>false</activeaudioangle>
                    <clip id="clip-6"/>
                  </angle>
                  <angle>
                    <activevideoangle>false</activevideoangle>
                    <activeaudioangle>false</activeaudioangle>
                    <clip id="clip-7"/>
                  </angle>
                  <masterclipid>clip-master</masterclipid>
                </multiclip>
              </clipitem>
              <clipitem id="cs-672">
                <duration>76</duration>
                <rate>
                  <ntsc>false</ntsc>
                  <timebase>25</timebase>
                </rate>
                <in>73845</in>
                <out>73920</out>
                <start>73845</start>
                <end>73920</end>
                <file id="src-4"/>
                <sourcetrack>
                  <mediatype>video</mediatype>
                  <trackindex>1</trackindex>
                </sourcetrack>
                <multiclip id="mcs-672">
                  <name>MCS-672</name>
                  <masterclipid>clip-master</masterclipid>
                  <collapsed>false</collapsed>
                  <angle>
                    <activevideoangle>false</activevideoangle>
                    <activeaudioangle>false</activeaudioangle>
                    <clip id="clip-1"/>
                  </angle>
                  <angle>
                    <activevideoangle>false</activevideoangle>
                    <activeaudioangle>false</activeaudioangle>
                    <clip id="clip-2"/>
                  </angle>
                  <angle>
                    <activevideoangle>false</activevideoangle>
                    <activeaudioangle>false</activeaudioangle>
                    <clip id="clip-3"/>
                  </angle>
                  <angle>
                    <activevideoangle>true</activevideoangle>
                    <activeaudioangle>true</activeaudioangle>
                    <clip id="clip-4"/>
                  </angle>
                  <angle>
                    <activevideoangle>false</activevideoangle>
                    <activeaudioangle>false</activeaudioangle>
                    <clip id="clip-5"/>
                  </angle>
                  <angle>
                    <activevideoangle>false</activevideoangle>
                    <activeaudioangle>false</activeaudioangle>
                    <clip id="clip-6"/>
                  </angle>
                  <angle>
                    <activevideoangle>false</activevideoangle>
                    <activeaudioangle>false</activeaudioangle>
                    <clip id="clip-7"/>
                  </angle>
                  <masterclipid>clip-master</masterclipid>
                </multiclip>
              </clipitem>
              <clipitem id="cs-673">
                <duration>122</duration>
                <rate>
                  <ntsc>false</ntsc>
                  <timebase>25</timebase>
                </rate>
                <in>73920</in>
                <out>74041</out>
                <start>73920</start>
                <end>74041</end>
                <file id="src-2"/>
                <sourcetrack>
                  <mediatype>video</mediatype>
                  <trackindex>1</trackindex>
                </sourcetrack>
                <multiclip id="mcs-673">
                  <name>MCS-673</name>
                  <masterclipid>clip-master</masterclipid>
                  <collapsed>false</collapsed>
                  <angle>
                    <activevideoangle>false</activevideoangle>
                    <activeaudioangle>false</activeaudioangle>
                    <clip id="clip-1"/>
                  </angle>
                  <angle>
                    <activevideoangle>true</activevideoangle>
                    <activeaudioangle>true</activeaudioangle>
                    <clip id="clip-2"/>
                  </angle>
                  <angle>
                    <activevideoangle>false</activevideoangle>
                    <activeaudioangle>false</activeaudioangle>
                    <clip id="clip-3"/>
                  </angle>
                  <angle>
                    <activevideoangle>false</activevideoangle>
                    <activeaudioangle>false</activeaudioangle>
                    <clip id="clip-4"/>
                  </angle>
                  <angle>
                    <activevideoangle>false</activevideoangle>
                    <activeaudioangle>false</activeaudioangle>
                    <clip id="clip-5"/>
                  </angle>
                  <angle>
                    <activevideoangle>false</activevideoangle>
                    <activeaudioangle>false</activeaudioangle>
                    <clip id="clip-6"/>
                  </angle>
                  <angle>
                    <activevideoangle>false</activevideoangle>
                    <activeaudioangle>false</activeaudioangle>
                    <clip id="clip-7"/>
                  </angle>
                  <masterclipid>clip-master</masterclipid>
                </multiclip>
              </clipitem>
              <clipitem id="cs-674">
                <duration>163</duration>
                <rate>
                  <ntsc>false</ntsc>
                  <timebase>25</timebase>
                </rate>
                <in>74041</in>
                <out>74203</out>
                <start>74041</start>
                <end>74203</end>
                <file id="src-3"/>
                <sourcetrack>
                  <mediatype>video</mediatype>
                  <trackindex>1</trackindex>
                </sourcetrack>
                <multiclip id="mcs-674">
                  <name>MCS-674</name>
                  <masterclipid>clip-master</masterclipid>
                  <collapsed>false</collapsed>
                  <angle>
                    <activevideoangle>false</activevideoangle>
                    <activeaudioangle>false</activeaudioangle>
                    <clip id="clip-1"/>
                  </angle>
                  <angle>
                    <activevideoangle>false</activevideoangle>
                    <activeaudioangle>false</activeaudioangle>
                    <clip id="clip-2"/>
                  </angle>
                  <angle>
                    <activevideoangle>true</activevideoangle>
                    <activeaudioangle>true</activeaudioangle>
                    <clip id="clip-3"/>
                  </angle>
                  <angle>
                    <activevideoangle>false</activevideoangle>
                    <activeaudioangle>false</activeaudioangle>
                    <clip id="clip-4"/>
                  </angle>
                  <angle>
                    <activevideoangle>false</activevideoangle>
                    <activeaudioangle>false</activeaudioangle>
                    <clip id="clip-5"/>
                  </angle>
                  <angle>
                    <activevideoangle>false</activevideoangle>
                    <activeaudioangle>false</activeaudioangle>
                    <clip id="clip-6"/>
                  </angle>
                  <angle>
                    <activevideoangle>false</activevideoangle>
                    <activeaudioangle>false</activeaudioangle>
                    <clip id="clip-7"/>
                  </angle>
                  <masterclipid>clip-master</masterclipid>
                </multiclip>
              </clipitem>
              <clipitem id="cs-675">
                <duration>88</duration>
                <rate>
                  <ntsc>false</ntsc>
                  <timebase>25</timebase>
                </rate>
                <in>74203</in>
                <out>74290</out>
                <start>74203</start>
                <end>74290</end>
                <file id="src-1"/>
                <sourcetrack>
                  <mediatype>video</mediatype>
                  <trackindex>1</trackindex>
                </sourcetrack>
                <multiclip id="mcs-675">
                  <name>MCS-675</name>
                  <masterclipid>clip-master</masterclipid>
                  <collapsed>false</collapsed>
                  <angle>
                    <activevideoangle>true</activevideoangle>
                    <activeaudioangle>true</activeaudioangle>
                    <clip id="clip-1"/>
                  </angle>
                  <angle>
                    <activevideoangle>false</activevideoangle>
                    <activeaudioangle>false</activeaudioangle>
                    <clip id="clip-2"/>
                  </angle>
                  <angle>
                    <activevideoangle>false</activevideoangle>
                    <activeaudioangle>false</activeaudioangle>
                    <clip id="clip-3"/>
                  </angle>
                  <angle>
                    <activevideoangle>false</activevideoangle>
                    <activeaudioangle>false</activeaudioangle>
                    <clip id="clip-4"/>
                  </angle>
                  <angle>
                    <activevideoangle>false</activevideoangle>
                    <activeaudioangle>false</activeaudioangle>
                    <clip id="clip-5"/>
                  </angle>
                  <angle>
                    <activevideoangle>false</activevideoangle>
                    <activeaudioangle>false</activeaudioangle>
                    <clip id="clip-6"/>
                  </angle>
                  <angle>
                    <activevideoangle>false</activevideoangle>
                    <activeaudioangle>false</activeaudioangle>
                    <clip id="clip-7"/>
                  </angle>
                  <masterclipid>clip-master</masterclipid>
                </multiclip>
              </clipitem>
              <clipitem id="cs-676">
                <duration>188</duration>
                <rate>
                  <ntsc>false</ntsc>
                  <timebase>25</timebase>
                </rate>
                <in>74290</in>
                <out>74477</out>
                <start>74290</start>
                <end>74477</end>
                <file id="src-3"/>
                <sourcetrack>
                  <mediatype>video</mediatype>
                  <trackindex>1</trackindex>
                </sourcetrack>
                <multiclip id="mcs-676">
                  <name>MCS-676</name>
                  <masterclipid>clip-master</masterclipid>
                  <collapsed>false</collapsed>
                  <angle>
                    <activevideoangle>false</activevideoangle>
                    <activeaudioangle>false</activeaudioangle>
                    <clip id="clip-1"/>
                  </angle>
                  <angle>
                    <activevideoangle>false</activevideoangle>
                    <activeaudioangle>false</activeaudioangle>
                    <clip id="clip-2"/>
                  </angle>
                  <angle>
                    <activevideoangle>true</activevideoangle>
                    <activeaudioangle>true</activeaudioangle>
                    <clip id="clip-3"/>
                  </angle>
                  <angle>
                    <activevideoangle>false</activevideoangle>
                    <activeaudioangle>false</activeaudioangle>
                    <clip id="clip-4"/>
                  </angle>
                  <angle>
                    <activevideoangle>false</activevideoangle>
                    <activeaudioangle>false</activeaudioangle>
                    <clip id="clip-5"/>
                  </angle>
                  <angle>
                    <activevideoangle>false</activevideoangle>
                    <activeaudioangle>false</activeaudioangle>
                    <clip id="clip-6"/>
                  </angle>
                  <angle>
                    <activevideoangle>false</activevideoangle>
                    <activeaudioangle>false</activeaudioangle>
                    <clip id="clip-7"/>
                  </angle>
                  <masterclipid>clip-master</masterclipid>
                </multiclip>
              </clipitem>
              <clipitem id="cs-677">
                <duration>70</duration>
                <rate>
                  <ntsc>false</ntsc>
                  <timebase>25</timebase>
                </rate>
                <in>74477</in>
                <out>74546</out>
                <start>74477</start>
                <end>74546</end>
                <file id="src-2"/>
                <sourcetrack>
                  <mediatype>video</mediatype>
                  <trackindex>1</trackindex>
                </sourcetrack>
                <multiclip id="mcs-677">
                  <name>MCS-677</name>
                  <masterclipid>clip-master</masterclipid>
                  <collapsed>false</collapsed>
                  <angle>
                    <activevideoangle>false</activevideoangle>
                    <activeaudioangle>false</activeaudioangle>
                    <clip id="clip-1"/>
                  </angle>
                  <angle>
                    <activevideoangle>true</activevideoangle>
                    <activeaudioangle>true</activeaudioangle>
                    <clip id="clip-2"/>
                  </angle>
                  <angle>
                    <activevideoangle>false</activevideoangle>
                    <activeaudioangle>false</activeaudioangle>
                    <clip id="clip-3"/>
                  </angle>
                  <angle>
                    <activevideoangle>false</activevideoangle>
                    <activeaudioangle>false</activeaudioangle>
                    <clip id="clip-4"/>
                  </angle>
                  <angle>
                    <activevideoangle>false</activevideoangle>
                    <activeaudioangle>false</activeaudioangle>
                    <clip id="clip-5"/>
                  </angle>
                  <angle>
                    <activevideoangle>false</activevideoangle>
                    <activeaudioangle>false</activeaudioangle>
                    <clip id="clip-6"/>
                  </angle>
                  <angle>
                    <activevideoangle>false</activevideoangle>
                    <activeaudioangle>false</activeaudioangle>
                    <clip id="clip-7"/>
                  </angle>
                  <masterclipid>clip-master</masterclipid>
                </multiclip>
              </clipitem>
              <clipitem id="cs-678">
                <duration>149</duration>
                <rate>
                  <ntsc>false</ntsc>
                  <timebase>25</timebase>
                </rate>
                <in>74546</in>
                <out>74694</out>
                <start>74546</start>
                <end>74694</end>
                <file id="src-4"/>
                <sourcetrack>
                  <mediatype>video</mediatype>
                  <trackindex>1</trackindex>
                </sourcetrack>
                <multiclip id="mcs-678">
                  <name>MCS-678</name>
                  <masterclipid>clip-master</masterclipid>
                  <collapsed>false</collapsed>
                  <angle>
                    <activevideoangle>false</activevideoangle>
                    <activeaudioangle>false</activeaudioangle>
                    <clip id="clip-1"/>
                  </angle>
                  <angle>
                    <activevideoangle>false</activevideoangle>
                    <activeaudioangle>false</activeaudioangle>
                    <clip id="clip-2"/>
                  </angle>
                  <angle>
                    <activevideoangle>false</activevideoangle>
                    <activeaudioangle>false</activeaudioangle>
                    <clip id="clip-3"/>
                  </angle>
                  <angle>
                    <activevideoangle>true</activevideoangle>
                    <activeaudioangle>true</activeaudioangle>
                    <clip id="clip-4"/>
                  </angle>
                  <angle>
                    <activevideoangle>false</activevideoangle>
                    <activeaudioangle>false</activeaudioangle>
                    <clip id="clip-5"/>
                  </angle>
                  <angle>
                    <activevideoangle>false</activevideoangle>
                    <activeaudioangle>false</activeaudioangle>
                    <clip id="clip-6"/>
                  </angle>
                  <angle>
                    <activevideoangle>false</activevideoangle>
                    <activeaudioangle>false</activeaudioangle>
                    <clip id="clip-7"/>
                  </angle>
                  <masterclipid>clip-master</masterclipid>
                </multiclip>
              </clipitem>
              <clipitem id="cs-679">
                <duration>99</duration>
                <rate>
                  <ntsc>false</ntsc>
                  <timebase>25</timebase>
                </rate>
                <in>74694</in>
                <out>74792</out>
                <start>74694</start>
                <end>74792</end>
                <file id="src-2"/>
                <sourcetrack>
                  <mediatype>video</mediatype>
                  <trackindex>1</trackindex>
                </sourcetrack>
                <multiclip id="mcs-679">
                  <name>MCS-679</name>
                  <masterclipid>clip-master</masterclipid>
                  <collapsed>false</collapsed>
                  <angle>
                    <activevideoangle>false</activevideoangle>
                    <activeaudioangle>false</activeaudioangle>
                    <clip id="clip-1"/>
                  </angle>
                  <angle>
                    <activevideoangle>true</activevideoangle>
                    <activeaudioangle>true</activeaudioangle>
                    <clip id="clip-2"/>
                  </angle>
                  <angle>
                    <activevideoangle>false</activevideoangle>
                    <activeaudioangle>false</activeaudioangle>
                    <clip id="clip-3"/>
                  </angle>
                  <angle>
                    <activevideoangle>false</activevideoangle>
                    <activeaudioangle>false</activeaudioangle>
                    <clip id="clip-4"/>
                  </angle>
                  <angle>
                    <activevideoangle>false</activevideoangle>
                    <activeaudioangle>false</activeaudioangle>
                    <clip id="clip-5"/>
                  </angle>
                  <angle>
                    <activevideoangle>false</activevideoangle>
                    <activeaudioangle>false</activeaudioangle>
                    <clip id="clip-6"/>
                  </angle>
                  <angle>
                    <activevideoangle>false</activevideoangle>
                    <activeaudioangle>false</activeaudioangle>
                    <clip id="clip-7"/>
                  </angle>
                  <masterclipid>clip-master</masterclipid>
                </multiclip>
              </clipitem>
              <clipitem id="cs-680">
                <duration>71</duration>
                <rate>
                  <ntsc>false</ntsc>
                  <timebase>25</timebase>
                </rate>
                <in>74792</in>
                <out>74862</out>
                <start>74792</start>
                <end>74862</end>
                <file id="src-5"/>
                <sourcetrack>
                  <mediatype>video</mediatype>
                  <trackindex>1</trackindex>
                </sourcetrack>
                <multiclip id="mcs-680">
                  <name>MCS-680</name>
                  <masterclipid>clip-master</masterclipid>
                  <collapsed>false</collapsed>
                  <angle>
                    <activevideoangle>false</activevideoangle>
                    <activeaudioangle>false</activeaudioangle>
                    <clip id="clip-1"/>
                  </angle>
                  <angle>
                    <activevideoangle>false</activevideoangle>
                    <activeaudioangle>false</activeaudioangle>
                    <clip id="clip-2"/>
                  </angle>
                  <angle>
                    <activevideoangle>false</activevideoangle>
                    <activeaudioangle>false</activeaudioangle>
                    <clip id="clip-3"/>
                  </angle>
                  <angle>
                    <activevideoangle>false</activevideoangle>
                    <activeaudioangle>false</activeaudioangle>
                    <clip id="clip-4"/>
                  </angle>
                  <angle>
                    <activevideoangle>true</activevideoangle>
                    <activeaudioangle>true</activeaudioangle>
                    <clip id="clip-5"/>
                  </angle>
                  <angle>
                    <activevideoangle>false</activevideoangle>
                    <activeaudioangle>false</activeaudioangle>
                    <clip id="clip-6"/>
                  </angle>
                  <angle>
                    <activevideoangle>false</activevideoangle>
                    <activeaudioangle>false</activeaudioangle>
                    <clip id="clip-7"/>
                  </angle>
                  <masterclipid>clip-master</masterclipid>
                </multiclip>
              </clipitem>
              <clipitem id="cs-681">
                <duration>114</duration>
                <rate>
                  <ntsc>false</ntsc>
                  <timebase>25</timebase>
                </rate>
                <in>74862</in>
                <out>74975</out>
                <start>74862</start>
                <end>74975</end>
                <file id="src-3"/>
                <sourcetrack>
                  <mediatype>video</mediatype>
                  <trackindex>1</trackindex>
                </sourcetrack>
                <multiclip id="mcs-681">
                  <name>MCS-681</name>
                  <masterclipid>clip-master</masterclipid>
                  <collapsed>false</collapsed>
                  <angle>
                    <activevideoangle>false</activevideoangle>
                    <activeaudioangle>false</activeaudioangle>
                    <clip id="clip-1"/>
                  </angle>
                  <angle>
                    <activevideoangle>false</activevideoangle>
                    <activeaudioangle>false</activeaudioangle>
                    <clip id="clip-2"/>
                  </angle>
                  <angle>
                    <activevideoangle>true</activevideoangle>
                    <activeaudioangle>true</activeaudioangle>
                    <clip id="clip-3"/>
                  </angle>
                  <angle>
                    <activevideoangle>false</activevideoangle>
                    <activeaudioangle>false</activeaudioangle>
                    <clip id="clip-4"/>
                  </angle>
                  <angle>
                    <activevideoangle>false</activevideoangle>
                    <activeaudioangle>false</activeaudioangle>
                    <clip id="clip-5"/>
                  </angle>
                  <angle>
                    <activevideoangle>false</activevideoangle>
                    <activeaudioangle>false</activeaudioangle>
                    <clip id="clip-6"/>
                  </angle>
                  <angle>
                    <activevideoangle>false</activevideoangle>
                    <activeaudioangle>false</activeaudioangle>
                    <clip id="clip-7"/>
                  </angle>
                  <masterclipid>clip-master</masterclipid>
                </multiclip>
              </clipitem>
              <clipitem id="cs-682">
                <duration>58</duration>
                <rate>
                  <ntsc>false</ntsc>
                  <timebase>25</timebase>
                </rate>
                <in>74975</in>
                <out>75032</out>
                <start>74975</start>
                <end>75032</end>
                <file id="src-2"/>
                <sourcetrack>
                  <mediatype>video</mediatype>
                  <trackindex>1</trackindex>
                </sourcetrack>
                <multiclip id="mcs-682">
                  <name>MCS-682</name>
                  <masterclipid>clip-master</masterclipid>
                  <collapsed>false</collapsed>
                  <angle>
                    <activevideoangle>false</activevideoangle>
                    <activeaudioangle>false</activeaudioangle>
                    <clip id="clip-1"/>
                  </angle>
                  <angle>
                    <activevideoangle>true</activevideoangle>
                    <activeaudioangle>true</activeaudioangle>
                    <clip id="clip-2"/>
                  </angle>
                  <angle>
                    <activevideoangle>false</activevideoangle>
                    <activeaudioangle>false</activeaudioangle>
                    <clip id="clip-3"/>
                  </angle>
                  <angle>
                    <activevideoangle>false</activevideoangle>
                    <activeaudioangle>false</activeaudioangle>
                    <clip id="clip-4"/>
                  </angle>
                  <angle>
                    <activevideoangle>false</activevideoangle>
                    <activeaudioangle>false</activeaudioangle>
                    <clip id="clip-5"/>
                  </angle>
                  <angle>
                    <activevideoangle>false</activevideoangle>
                    <activeaudioangle>false</activeaudioangle>
                    <clip id="clip-6"/>
                  </angle>
                  <angle>
                    <activevideoangle>false</activevideoangle>
                    <activeaudioangle>false</activeaudioangle>
                    <clip id="clip-7"/>
                  </angle>
                  <masterclipid>clip-master</masterclipid>
                </multiclip>
              </clipitem>
              <clipitem id="cs-683">
                <duration>67</duration>
                <rate>
                  <ntsc>false</ntsc>
                  <timebase>25</timebase>
                </rate>
                <in>75032</in>
                <out>75098</out>
                <start>75032</start>
                <end>75098</end>
                <file id="src-1"/>
                <sourcetrack>
                  <mediatype>video</mediatype>
                  <trackindex>1</trackindex>
                </sourcetrack>
                <multiclip id="mcs-683">
                  <name>MCS-683</name>
                  <masterclipid>clip-master</masterclipid>
                  <collapsed>false</collapsed>
                  <angle>
                    <activevideoangle>true</activevideoangle>
                    <activeaudioangle>true</activeaudioangle>
                    <clip id="clip-1"/>
                  </angle>
                  <angle>
                    <activevideoangle>false</activevideoangle>
                    <activeaudioangle>false</activeaudioangle>
                    <clip id="clip-2"/>
                  </angle>
                  <angle>
                    <activevideoangle>false</activevideoangle>
                    <activeaudioangle>false</activeaudioangle>
                    <clip id="clip-3"/>
                  </angle>
                  <angle>
                    <activevideoangle>false</activevideoangle>
                    <activeaudioangle>false</activeaudioangle>
                    <clip id="clip-4"/>
                  </angle>
                  <angle>
                    <activevideoangle>false</activevideoangle>
                    <activeaudioangle>false</activeaudioangle>
                    <clip id="clip-5"/>
                  </angle>
                  <angle>
                    <activevideoangle>false</activevideoangle>
                    <activeaudioangle>false</activeaudioangle>
                    <clip id="clip-6"/>
                  </angle>
                  <angle>
                    <activevideoangle>false</activevideoangle>
                    <activeaudioangle>false</activeaudioangle>
                    <clip id="clip-7"/>
                  </angle>
                  <masterclipid>clip-master</masterclipid>
                </multiclip>
              </clipitem>
              <clipitem id="cs-684">
                <duration>192</duration>
                <rate>
                  <ntsc>false</ntsc>
                  <timebase>25</timebase>
                </rate>
                <in>75098</in>
                <out>75289</out>
                <start>75098</start>
                <end>75289</end>
                <file id="src-2"/>
                <sourcetrack>
                  <mediatype>video</mediatype>
                  <trackindex>1</trackindex>
                </sourcetrack>
                <multiclip id="mcs-684">
                  <name>MCS-684</name>
                  <masterclipid>clip-master</masterclipid>
                  <collapsed>false</collapsed>
                  <angle>
                    <activevideoangle>false</activevideoangle>
                    <activeaudioangle>false</activeaudioangle>
                    <clip id="clip-1"/>
                  </angle>
                  <angle>
                    <activevideoangle>true</activevideoangle>
                    <activeaudioangle>true</activeaudioangle>
                    <clip id="clip-2"/>
                  </angle>
                  <angle>
                    <activevideoangle>false</activevideoangle>
                    <activeaudioangle>false</activeaudioangle>
                    <clip id="clip-3"/>
                  </angle>
                  <angle>
                    <activevideoangle>false</activevideoangle>
                    <activeaudioangle>false</activeaudioangle>
                    <clip id="clip-4"/>
                  </angle>
                  <angle>
                    <activevideoangle>false</activevideoangle>
                    <activeaudioangle>false</activeaudioangle>
                    <clip id="clip-5"/>
                  </angle>
                  <angle>
                    <activevideoangle>false</activevideoangle>
                    <activeaudioangle>false</activeaudioangle>
                    <clip id="clip-6"/>
                  </angle>
                  <angle>
                    <activevideoangle>false</activevideoangle>
                    <activeaudioangle>false</activeaudioangle>
                    <clip id="clip-7"/>
                  </angle>
                  <masterclipid>clip-master</masterclipid>
                </multiclip>
              </clipitem>
              <clipitem id="cs-685">
                <duration>51</duration>
                <rate>
                  <ntsc>false</ntsc>
                  <timebase>25</timebase>
                </rate>
                <in>75289</in>
                <out>75339</out>
                <start>75289</start>
                <end>75339</end>
                <file id="src-6"/>
                <sourcetrack>
                  <mediatype>video</mediatype>
                  <trackindex>1</trackindex>
                </sourcetrack>
                <multiclip id="mcs-685">
                  <name>MCS-685</name>
                  <masterclipid>clip-master</masterclipid>
                  <collapsed>false</collapsed>
                  <angle>
                    <activevideoangle>false</activevideoangle>
                    <activeaudioangle>false</activeaudioangle>
                    <clip id="clip-1"/>
                  </angle>
                  <angle>
                    <activevideoangle>false</activevideoangle>
                    <activeaudioangle>false</activeaudioangle>
                    <clip id="clip-2"/>
                  </angle>
                  <angle>
                    <activevideoangle>false</activevideoangle>
                    <activeaudioangle>false</activeaudioangle>
                    <clip id="clip-3"/>
                  </angle>
                  <angle>
                    <activevideoangle>false</activevideoangle>
                    <activeaudioangle>false</activeaudioangle>
                    <clip id="clip-4"/>
                  </angle>
                  <angle>
                    <activevideoangle>false</activevideoangle>
                    <activeaudioangle>false</activeaudioangle>
                    <clip id="clip-5"/>
                  </angle>
                  <angle>
                    <activevideoangle>true</activevideoangle>
                    <activeaudioangle>true</activeaudioangle>
                    <clip id="clip-6"/>
                  </angle>
                  <angle>
                    <activevideoangle>false</activevideoangle>
                    <activeaudioangle>false</activeaudioangle>
                    <clip id="clip-7"/>
                  </angle>
                  <masterclipid>clip-master</masterclipid>
                </multiclip>
              </clipitem>
              <clipitem id="cs-686">
                <duration>106</duration>
                <rate>
                  <ntsc>false</ntsc>
                  <timebase>25</timebase>
                </rate>
                <in>75339</in>
                <out>75444</out>
                <start>75339</start>
                <end>75444</end>
                <file id="src-3"/>
                <sourcetrack>
                  <mediatype>video</mediatype>
                  <trackindex>1</trackindex>
                </sourcetrack>
                <multiclip id="mcs-686">
                  <name>MCS-686</name>
                  <masterclipid>clip-master</masterclipid>
                  <collapsed>false</collapsed>
                  <angle>
                    <activevideoangle>false</activevideoangle>
                    <activeaudioangle>false</activeaudioangle>
                    <clip id="clip-1"/>
                  </angle>
                  <angle>
                    <activevideoangle>false</activevideoangle>
                    <activeaudioangle>false</activeaudioangle>
                    <clip id="clip-2"/>
                  </angle>
                  <angle>
                    <activevideoangle>true</activevideoangle>
                    <activeaudioangle>true</activeaudioangle>
                    <clip id="clip-3"/>
                  </angle>
                  <angle>
                    <activevideoangle>false</activevideoangle>
                    <activeaudioangle>false</activeaudioangle>
                    <clip id="clip-4"/>
                  </angle>
                  <angle>
                    <activevideoangle>false</activevideoangle>
                    <activeaudioangle>false</activeaudioangle>
                    <clip id="clip-5"/>
                  </angle>
                  <angle>
                    <activevideoangle>false</activevideoangle>
                    <activeaudioangle>false</activeaudioangle>
                    <clip id="clip-6"/>
                  </angle>
                  <angle>
                    <activevideoangle>false</activevideoangle>
                    <activeaudioangle>false</activeaudioangle>
                    <clip id="clip-7"/>
                  </angle>
                  <masterclipid>clip-master</masterclipid>
                </multiclip>
              </clipitem>
              <clipitem id="cs-687">
                <duration>63</duration>
                <rate>
                  <ntsc>false</ntsc>
                  <timebase>25</timebase>
                </rate>
                <in>75444</in>
                <out>75506</out>
                <start>75444</start>
                <end>75506</end>
                <file id="src-4"/>
                <sourcetrack>
                  <mediatype>video</mediatype>
                  <trackindex>1</trackindex>
                </sourcetrack>
                <multiclip id="mcs-687">
                  <name>MCS-687</name>
                  <masterclipid>clip-master</masterclipid>
                  <collapsed>false</collapsed>
                  <angle>
                    <activevideoangle>false</activevideoangle>
                    <activeaudioangle>false</activeaudioangle>
                    <clip id="clip-1"/>
                  </angle>
                  <angle>
                    <activevideoangle>false</activevideoangle>
                    <activeaudioangle>false</activeaudioangle>
                    <clip id="clip-2"/>
                  </angle>
                  <angle>
                    <activevideoangle>false</activevideoangle>
                    <activeaudioangle>false</activeaudioangle>
                    <clip id="clip-3"/>
                  </angle>
                  <angle>
                    <activevideoangle>true</activevideoangle>
                    <activeaudioangle>true</activeaudioangle>
                    <clip id="clip-4"/>
                  </angle>
                  <angle>
                    <activevideoangle>false</activevideoangle>
                    <activeaudioangle>false</activeaudioangle>
                    <clip id="clip-5"/>
                  </angle>
                  <angle>
                    <activevideoangle>false</activevideoangle>
                    <activeaudioangle>false</activeaudioangle>
                    <clip id="clip-6"/>
                  </angle>
                  <angle>
                    <activevideoangle>false</activevideoangle>
                    <activeaudioangle>false</activeaudioangle>
                    <clip id="clip-7"/>
                  </angle>
                  <masterclipid>clip-master</masterclipid>
                </multiclip>
              </clipitem>
              <clipitem id="cs-688">
                <duration>78</duration>
                <rate>
                  <ntsc>false</ntsc>
                  <timebase>25</timebase>
                </rate>
                <in>75506</in>
                <out>75583</out>
                <start>75506</start>
                <end>75583</end>
                <file id="src-2"/>
                <sourcetrack>
                  <mediatype>video</mediatype>
                  <trackindex>1</trackindex>
                </sourcetrack>
                <multiclip id="mcs-688">
                  <name>MCS-688</name>
                  <masterclipid>clip-master</masterclipid>
                  <collapsed>false</collapsed>
                  <angle>
                    <activevideoangle>false</activevideoangle>
                    <activeaudioangle>false</activeaudioangle>
                    <clip id="clip-1"/>
                  </angle>
                  <angle>
                    <activevideoangle>true</activevideoangle>
                    <activeaudioangle>true</activeaudioangle>
                    <clip id="clip-2"/>
                  </angle>
                  <angle>
                    <activevideoangle>false</activevideoangle>
                    <activeaudioangle>false</activeaudioangle>
                    <clip id="clip-3"/>
                  </angle>
                  <angle>
                    <activevideoangle>false</activevideoangle>
                    <activeaudioangle>false</activeaudioangle>
                    <clip id="clip-4"/>
                  </angle>
                  <angle>
                    <activevideoangle>false</activevideoangle>
                    <activeaudioangle>false</activeaudioangle>
                    <clip id="clip-5"/>
                  </angle>
                  <angle>
                    <activevideoangle>false</activevideoangle>
                    <activeaudioangle>false</activeaudioangle>
                    <clip id="clip-6"/>
                  </angle>
                  <angle>
                    <activevideoangle>false</activevideoangle>
                    <activeaudioangle>false</activeaudioangle>
                    <clip id="clip-7"/>
                  </angle>
                  <masterclipid>clip-master</masterclipid>
                </multiclip>
              </clipitem>
              <clipitem id="cs-689">
                <duration>52</duration>
                <rate>
                  <ntsc>false</ntsc>
                  <timebase>25</timebase>
                </rate>
                <in>75583</in>
                <out>75634</out>
                <start>75583</start>
                <end>75634</end>
                <file id="src-4"/>
                <sourcetrack>
                  <mediatype>video</mediatype>
                  <trackindex>1</trackindex>
                </sourcetrack>
                <multiclip id="mcs-689">
                  <name>MCS-689</name>
                  <masterclipid>clip-master</masterclipid>
                  <collapsed>false</collapsed>
                  <angle>
                    <activevideoangle>false</activevideoangle>
                    <activeaudioangle>false</activeaudioangle>
                    <clip id="clip-1"/>
                  </angle>
                  <angle>
                    <activevideoangle>false</activevideoangle>
                    <activeaudioangle>false</activeaudioangle>
                    <clip id="clip-2"/>
                  </angle>
                  <angle>
                    <activevideoangle>false</activevideoangle>
                    <activeaudioangle>false</activeaudioangle>
                    <clip id="clip-3"/>
                  </angle>
                  <angle>
                    <activevideoangle>true</activevideoangle>
                    <activeaudioangle>true</activeaudioangle>
                    <clip id="clip-4"/>
                  </angle>
                  <angle>
                    <activevideoangle>false</activevideoangle>
                    <activeaudioangle>false</activeaudioangle>
                    <clip id="clip-5"/>
                  </angle>
                  <angle>
                    <activevideoangle>false</activevideoangle>
                    <activeaudioangle>false</activeaudioangle>
                    <clip id="clip-6"/>
                  </angle>
                  <angle>
                    <activevideoangle>false</activevideoangle>
                    <activeaudioangle>false</activeaudioangle>
                    <clip id="clip-7"/>
                  </angle>
                  <masterclipid>clip-master</masterclipid>
                </multiclip>
              </clipitem>
              <clipitem id="cs-690">
                <duration>70</duration>
                <rate>
                  <ntsc>false</ntsc>
                  <timebase>25</timebase>
                </rate>
                <in>75634</in>
                <out>75703</out>
                <start>75634</start>
                <end>75703</end>
                <file id="src-3"/>
                <sourcetrack>
                  <mediatype>video</mediatype>
                  <trackindex>1</trackindex>
                </sourcetrack>
                <multiclip id="mcs-690">
                  <name>MCS-690</name>
                  <masterclipid>clip-master</masterclipid>
                  <collapsed>false</collapsed>
                  <angle>
                    <activevideoangle>false</activevideoangle>
                    <activeaudioangle>false</activeaudioangle>
                    <clip id="clip-1"/>
                  </angle>
                  <angle>
                    <activevideoangle>false</activevideoangle>
                    <activeaudioangle>false</activeaudioangle>
                    <clip id="clip-2"/>
                  </angle>
                  <angle>
                    <activevideoangle>true</activevideoangle>
                    <activeaudioangle>true</activeaudioangle>
                    <clip id="clip-3"/>
                  </angle>
                  <angle>
                    <activevideoangle>false</activevideoangle>
                    <activeaudioangle>false</activeaudioangle>
                    <clip id="clip-4"/>
                  </angle>
                  <angle>
                    <activevideoangle>false</activevideoangle>
                    <activeaudioangle>false</activeaudioangle>
                    <clip id="clip-5"/>
                  </angle>
                  <angle>
                    <activevideoangle>false</activevideoangle>
                    <activeaudioangle>false</activeaudioangle>
                    <clip id="clip-6"/>
                  </angle>
                  <angle>
                    <activevideoangle>false</activevideoangle>
                    <activeaudioangle>false</activeaudioangle>
                    <clip id="clip-7"/>
                  </angle>
                  <masterclipid>clip-master</masterclipid>
                </multiclip>
              </clipitem>
              <clipitem id="cs-691">
                <duration>147</duration>
                <rate>
                  <ntsc>false</ntsc>
                  <timebase>25</timebase>
                </rate>
                <in>75703</in>
                <out>75849</out>
                <start>75703</start>
                <end>75849</end>
                <file id="src-2"/>
                <sourcetrack>
                  <mediatype>video</mediatype>
                  <trackindex>1</trackindex>
                </sourcetrack>
                <multiclip id="mcs-691">
                  <name>MCS-691</name>
                  <masterclipid>clip-master</masterclipid>
                  <collapsed>false</collapsed>
                  <angle>
                    <activevideoangle>false</activevideoangle>
                    <activeaudioangle>false</activeaudioangle>
                    <clip id="clip-1"/>
                  </angle>
                  <angle>
                    <activevideoangle>true</activevideoangle>
                    <activeaudioangle>true</activeaudioangle>
                    <clip id="clip-2"/>
                  </angle>
                  <angle>
                    <activevideoangle>false</activevideoangle>
                    <activeaudioangle>false</activeaudioangle>
                    <clip id="clip-3"/>
                  </angle>
                  <angle>
                    <activevideoangle>false</activevideoangle>
                    <activeaudioangle>false</activeaudioangle>
                    <clip id="clip-4"/>
                  </angle>
                  <angle>
                    <activevideoangle>false</activevideoangle>
                    <activeaudioangle>false</activeaudioangle>
                    <clip id="clip-5"/>
                  </angle>
                  <angle>
                    <activevideoangle>false</activevideoangle>
                    <activeaudioangle>false</activeaudioangle>
                    <clip id="clip-6"/>
                  </angle>
                  <angle>
                    <activevideoangle>false</activevideoangle>
                    <activeaudioangle>false</activeaudioangle>
                    <clip id="clip-7"/>
                  </angle>
                  <masterclipid>clip-master</masterclipid>
                </multiclip>
              </clipitem>
              <clipitem id="cs-692">
                <duration>74</duration>
                <rate>
                  <ntsc>false</ntsc>
                  <timebase>25</timebase>
                </rate>
                <in>75849</in>
                <out>75922</out>
                <start>75849</start>
                <end>75922</end>
                <file id="src-3"/>
                <sourcetrack>
                  <mediatype>video</mediatype>
                  <trackindex>1</trackindex>
                </sourcetrack>
                <multiclip id="mcs-692">
                  <name>MCS-692</name>
                  <masterclipid>clip-master</masterclipid>
                  <collapsed>false</collapsed>
                  <angle>
                    <activevideoangle>false</activevideoangle>
                    <activeaudioangle>false</activeaudioangle>
                    <clip id="clip-1"/>
                  </angle>
                  <angle>
                    <activevideoangle>false</activevideoangle>
                    <activeaudioangle>false</activeaudioangle>
                    <clip id="clip-2"/>
                  </angle>
                  <angle>
                    <activevideoangle>true</activevideoangle>
                    <activeaudioangle>true</activeaudioangle>
                    <clip id="clip-3"/>
                  </angle>
                  <angle>
                    <activevideoangle>false</activevideoangle>
                    <activeaudioangle>false</activeaudioangle>
                    <clip id="clip-4"/>
                  </angle>
                  <angle>
                    <activevideoangle>false</activevideoangle>
                    <activeaudioangle>false</activeaudioangle>
                    <clip id="clip-5"/>
                  </angle>
                  <angle>
                    <activevideoangle>false</activevideoangle>
                    <activeaudioangle>false</activeaudioangle>
                    <clip id="clip-6"/>
                  </angle>
                  <angle>
                    <activevideoangle>false</activevideoangle>
                    <activeaudioangle>false</activeaudioangle>
                    <clip id="clip-7"/>
                  </angle>
                  <masterclipid>clip-master</masterclipid>
                </multiclip>
              </clipitem>
              <clipitem id="cs-693">
                <duration>135</duration>
                <rate>
                  <ntsc>false</ntsc>
                  <timebase>25</timebase>
                </rate>
                <in>75922</in>
                <out>76056</out>
                <start>75922</start>
                <end>76056</end>
                <file id="src-2"/>
                <sourcetrack>
                  <mediatype>video</mediatype>
                  <trackindex>1</trackindex>
                </sourcetrack>
                <multiclip id="mcs-693">
                  <name>MCS-693</name>
                  <masterclipid>clip-master</masterclipid>
                  <collapsed>false</collapsed>
                  <angle>
                    <activevideoangle>false</activevideoangle>
                    <activeaudioangle>false</activeaudioangle>
                    <clip id="clip-1"/>
                  </angle>
                  <angle>
                    <activevideoangle>true</activevideoangle>
                    <activeaudioangle>true</activeaudioangle>
                    <clip id="clip-2"/>
                  </angle>
                  <angle>
                    <activevideoangle>false</activevideoangle>
                    <activeaudioangle>false</activeaudioangle>
                    <clip id="clip-3"/>
                  </angle>
                  <angle>
                    <activevideoangle>false</activevideoangle>
                    <activeaudioangle>false</activeaudioangle>
                    <clip id="clip-4"/>
                  </angle>
                  <angle>
                    <activevideoangle>false</activevideoangle>
                    <activeaudioangle>false</activeaudioangle>
                    <clip id="clip-5"/>
                  </angle>
                  <angle>
                    <activevideoangle>false</activevideoangle>
                    <activeaudioangle>false</activeaudioangle>
                    <clip id="clip-6"/>
                  </angle>
                  <angle>
                    <activevideoangle>false</activevideoangle>
                    <activeaudioangle>false</activeaudioangle>
                    <clip id="clip-7"/>
                  </angle>
                  <masterclipid>clip-master</masterclipid>
                </multiclip>
              </clipitem>
              <clipitem id="cs-694">
                <duration>61</duration>
                <rate>
                  <ntsc>false</ntsc>
                  <timebase>25</timebase>
                </rate>
                <in>76056</in>
                <out>76116</out>
                <start>76056</start>
                <end>76116</end>
                <file id="src-5"/>
                <sourcetrack>
                  <mediatype>video</mediatype>
                  <trackindex>1</trackindex>
                </sourcetrack>
                <multiclip id="mcs-694">
                  <name>MCS-694</name>
                  <masterclipid>clip-master</masterclipid>
                  <collapsed>false</collapsed>
                  <angle>
                    <activevideoangle>false</activevideoangle>
                    <activeaudioangle>false</activeaudioangle>
                    <clip id="clip-1"/>
                  </angle>
                  <angle>
                    <activevideoangle>false</activevideoangle>
                    <activeaudioangle>false</activeaudioangle>
                    <clip id="clip-2"/>
                  </angle>
                  <angle>
                    <activevideoangle>false</activevideoangle>
                    <activeaudioangle>false</activeaudioangle>
                    <clip id="clip-3"/>
                  </angle>
                  <angle>
                    <activevideoangle>false</activevideoangle>
                    <activeaudioangle>false</activeaudioangle>
                    <clip id="clip-4"/>
                  </angle>
                  <angle>
                    <activevideoangle>true</activevideoangle>
                    <activeaudioangle>true</activeaudioangle>
                    <clip id="clip-5"/>
                  </angle>
                  <angle>
                    <activevideoangle>false</activevideoangle>
                    <activeaudioangle>false</activeaudioangle>
                    <clip id="clip-6"/>
                  </angle>
                  <angle>
                    <activevideoangle>false</activevideoangle>
                    <activeaudioangle>false</activeaudioangle>
                    <clip id="clip-7"/>
                  </angle>
                  <masterclipid>clip-master</masterclipid>
                </multiclip>
              </clipitem>
              <clipitem id="cs-695">
                <duration>37</duration>
                <rate>
                  <ntsc>false</ntsc>
                  <timebase>25</timebase>
                </rate>
                <in>76116</in>
                <out>76152</out>
                <start>76116</start>
                <end>76152</end>
                <file id="src-3"/>
                <sourcetrack>
                  <mediatype>video</mediatype>
                  <trackindex>1</trackindex>
                </sourcetrack>
                <multiclip id="mcs-695">
                  <name>MCS-695</name>
                  <masterclipid>clip-master</masterclipid>
                  <collapsed>false</collapsed>
                  <angle>
                    <activevideoangle>false</activevideoangle>
                    <activeaudioangle>false</activeaudioangle>
                    <clip id="clip-1"/>
                  </angle>
                  <angle>
                    <activevideoangle>false</activevideoangle>
                    <activeaudioangle>false</activeaudioangle>
                    <clip id="clip-2"/>
                  </angle>
                  <angle>
                    <activevideoangle>true</activevideoangle>
                    <activeaudioangle>true</activeaudioangle>
                    <clip id="clip-3"/>
                  </angle>
                  <angle>
                    <activevideoangle>false</activevideoangle>
                    <activeaudioangle>false</activeaudioangle>
                    <clip id="clip-4"/>
                  </angle>
                  <angle>
                    <activevideoangle>false</activevideoangle>
                    <activeaudioangle>false</activeaudioangle>
                    <clip id="clip-5"/>
                  </angle>
                  <angle>
                    <activevideoangle>false</activevideoangle>
                    <activeaudioangle>false</activeaudioangle>
                    <clip id="clip-6"/>
                  </angle>
                  <angle>
                    <activevideoangle>false</activevideoangle>
                    <activeaudioangle>false</activeaudioangle>
                    <clip id="clip-7"/>
                  </angle>
                  <masterclipid>clip-master</masterclipid>
                </multiclip>
              </clipitem>
              <clipitem id="cs-696">
                <duration>128</duration>
                <rate>
                  <ntsc>false</ntsc>
                  <timebase>25</timebase>
                </rate>
                <in>76152</in>
                <out>76279</out>
                <start>76152</start>
                <end>76279</end>
                <file id="src-2"/>
                <sourcetrack>
                  <mediatype>video</mediatype>
                  <trackindex>1</trackindex>
                </sourcetrack>
                <multiclip id="mcs-696">
                  <name>MCS-696</name>
                  <masterclipid>clip-master</masterclipid>
                  <collapsed>false</collapsed>
                  <angle>
                    <activevideoangle>false</activevideoangle>
                    <activeaudioangle>false</activeaudioangle>
                    <clip id="clip-1"/>
                  </angle>
                  <angle>
                    <activevideoangle>true</activevideoangle>
                    <activeaudioangle>true</activeaudioangle>
                    <clip id="clip-2"/>
                  </angle>
                  <angle>
                    <activevideoangle>false</activevideoangle>
                    <activeaudioangle>false</activeaudioangle>
                    <clip id="clip-3"/>
                  </angle>
                  <angle>
                    <activevideoangle>false</activevideoangle>
                    <activeaudioangle>false</activeaudioangle>
                    <clip id="clip-4"/>
                  </angle>
                  <angle>
                    <activevideoangle>false</activevideoangle>
                    <activeaudioangle>false</activeaudioangle>
                    <clip id="clip-5"/>
                  </angle>
                  <angle>
                    <activevideoangle>false</activevideoangle>
                    <activeaudioangle>false</activeaudioangle>
                    <clip id="clip-6"/>
                  </angle>
                  <angle>
                    <activevideoangle>false</activevideoangle>
                    <activeaudioangle>false</activeaudioangle>
                    <clip id="clip-7"/>
                  </angle>
                  <masterclipid>clip-master</masterclipid>
                </multiclip>
              </clipitem>
              <clipitem id="cs-697">
                <duration>65</duration>
                <rate>
                  <ntsc>false</ntsc>
                  <timebase>25</timebase>
                </rate>
                <in>76279</in>
                <out>76343</out>
                <start>76279</start>
                <end>76343</end>
                <file id="src-5"/>
                <sourcetrack>
                  <mediatype>video</mediatype>
                  <trackindex>1</trackindex>
                </sourcetrack>
                <multiclip id="mcs-697">
                  <name>MCS-697</name>
                  <masterclipid>clip-master</masterclipid>
                  <collapsed>false</collapsed>
                  <angle>
                    <activevideoangle>false</activevideoangle>
                    <activeaudioangle>false</activeaudioangle>
                    <clip id="clip-1"/>
                  </angle>
                  <angle>
                    <activevideoangle>false</activevideoangle>
                    <activeaudioangle>false</activeaudioangle>
                    <clip id="clip-2"/>
                  </angle>
                  <angle>
                    <activevideoangle>false</activevideoangle>
                    <activeaudioangle>false</activeaudioangle>
                    <clip id="clip-3"/>
                  </angle>
                  <angle>
                    <activevideoangle>false</activevideoangle>
                    <activeaudioangle>false</activeaudioangle>
                    <clip id="clip-4"/>
                  </angle>
                  <angle>
                    <activevideoangle>true</activevideoangle>
                    <activeaudioangle>true</activeaudioangle>
                    <clip id="clip-5"/>
                  </angle>
                  <angle>
                    <activevideoangle>false</activevideoangle>
                    <activeaudioangle>false</activeaudioangle>
                    <clip id="clip-6"/>
                  </angle>
                  <angle>
                    <activevideoangle>false</activevideoangle>
                    <activeaudioangle>false</activeaudioangle>
                    <clip id="clip-7"/>
                  </angle>
                  <masterclipid>clip-master</masterclipid>
                </multiclip>
              </clipitem>
              <clipitem id="cs-698">
                <duration>140</duration>
                <rate>
                  <ntsc>false</ntsc>
                  <timebase>25</timebase>
                </rate>
                <in>76343</in>
                <out>76482</out>
                <start>76343</start>
                <end>76482</end>
                <file id="src-2"/>
                <sourcetrack>
                  <mediatype>video</mediatype>
                  <trackindex>1</trackindex>
                </sourcetrack>
                <multiclip id="mcs-698">
                  <name>MCS-698</name>
                  <masterclipid>clip-master</masterclipid>
                  <collapsed>false</collapsed>
                  <angle>
                    <activevideoangle>false</activevideoangle>
                    <activeaudioangle>false</activeaudioangle>
                    <clip id="clip-1"/>
                  </angle>
                  <angle>
                    <activevideoangle>true</activevideoangle>
                    <activeaudioangle>true</activeaudioangle>
                    <clip id="clip-2"/>
                  </angle>
                  <angle>
                    <activevideoangle>false</activevideoangle>
                    <activeaudioangle>false</activeaudioangle>
                    <clip id="clip-3"/>
                  </angle>
                  <angle>
                    <activevideoangle>false</activevideoangle>
                    <activeaudioangle>false</activeaudioangle>
                    <clip id="clip-4"/>
                  </angle>
                  <angle>
                    <activevideoangle>false</activevideoangle>
                    <activeaudioangle>false</activeaudioangle>
                    <clip id="clip-5"/>
                  </angle>
                  <angle>
                    <activevideoangle>false</activevideoangle>
                    <activeaudioangle>false</activeaudioangle>
                    <clip id="clip-6"/>
                  </angle>
                  <angle>
                    <activevideoangle>false</activevideoangle>
                    <activeaudioangle>false</activeaudioangle>
                    <clip id="clip-7"/>
                  </angle>
                  <masterclipid>clip-master</masterclipid>
                </multiclip>
              </clipitem>
              <clipitem id="cs-699">
                <duration>65</duration>
                <rate>
                  <ntsc>false</ntsc>
                  <timebase>25</timebase>
                </rate>
                <in>76482</in>
                <out>76546</out>
                <start>76482</start>
                <end>76546</end>
                <file id="src-3"/>
                <sourcetrack>
                  <mediatype>video</mediatype>
                  <trackindex>1</trackindex>
                </sourcetrack>
                <multiclip id="mcs-699">
                  <name>MCS-699</name>
                  <masterclipid>clip-master</masterclipid>
                  <collapsed>false</collapsed>
                  <angle>
                    <activevideoangle>false</activevideoangle>
                    <activeaudioangle>false</activeaudioangle>
                    <clip id="clip-1"/>
                  </angle>
                  <angle>
                    <activevideoangle>false</activevideoangle>
                    <activeaudioangle>false</activeaudioangle>
                    <clip id="clip-2"/>
                  </angle>
                  <angle>
                    <activevideoangle>true</activevideoangle>
                    <activeaudioangle>true</activeaudioangle>
                    <clip id="clip-3"/>
                  </angle>
                  <angle>
                    <activevideoangle>false</activevideoangle>
                    <activeaudioangle>false</activeaudioangle>
                    <clip id="clip-4"/>
                  </angle>
                  <angle>
                    <activevideoangle>false</activevideoangle>
                    <activeaudioangle>false</activeaudioangle>
                    <clip id="clip-5"/>
                  </angle>
                  <angle>
                    <activevideoangle>false</activevideoangle>
                    <activeaudioangle>false</activeaudioangle>
                    <clip id="clip-6"/>
                  </angle>
                  <angle>
                    <activevideoangle>false</activevideoangle>
                    <activeaudioangle>false</activeaudioangle>
                    <clip id="clip-7"/>
                  </angle>
                  <masterclipid>clip-master</masterclipid>
                </multiclip>
              </clipitem>
              <clipitem id="cs-700">
                <duration>96</duration>
                <rate>
                  <ntsc>false</ntsc>
                  <timebase>25</timebase>
                </rate>
                <in>76546</in>
                <out>76641</out>
                <start>76546</start>
                <end>76641</end>
                <file id="src-2"/>
                <sourcetrack>
                  <mediatype>video</mediatype>
                  <trackindex>1</trackindex>
                </sourcetrack>
                <multiclip id="mcs-700">
                  <name>MCS-700</name>
                  <masterclipid>clip-master</masterclipid>
                  <collapsed>false</collapsed>
                  <angle>
                    <activevideoangle>false</activevideoangle>
                    <activeaudioangle>false</activeaudioangle>
                    <clip id="clip-1"/>
                  </angle>
                  <angle>
                    <activevideoangle>true</activevideoangle>
                    <activeaudioangle>true</activeaudioangle>
                    <clip id="clip-2"/>
                  </angle>
                  <angle>
                    <activevideoangle>false</activevideoangle>
                    <activeaudioangle>false</activeaudioangle>
                    <clip id="clip-3"/>
                  </angle>
                  <angle>
                    <activevideoangle>false</activevideoangle>
                    <activeaudioangle>false</activeaudioangle>
                    <clip id="clip-4"/>
                  </angle>
                  <angle>
                    <activevideoangle>false</activevideoangle>
                    <activeaudioangle>false</activeaudioangle>
                    <clip id="clip-5"/>
                  </angle>
                  <angle>
                    <activevideoangle>false</activevideoangle>
                    <activeaudioangle>false</activeaudioangle>
                    <clip id="clip-6"/>
                  </angle>
                  <angle>
                    <activevideoangle>false</activevideoangle>
                    <activeaudioangle>false</activeaudioangle>
                    <clip id="clip-7"/>
                  </angle>
                  <masterclipid>clip-master</masterclipid>
                </multiclip>
              </clipitem>
              <clipitem id="cs-701">
                <duration>99</duration>
                <rate>
                  <ntsc>false</ntsc>
                  <timebase>25</timebase>
                </rate>
                <in>76641</in>
                <out>76739</out>
                <start>76641</start>
                <end>76739</end>
                <file id="src-4"/>
                <sourcetrack>
                  <mediatype>video</mediatype>
                  <trackindex>1</trackindex>
                </sourcetrack>
                <multiclip id="mcs-701">
                  <name>MCS-701</name>
                  <masterclipid>clip-master</masterclipid>
                  <collapsed>false</collapsed>
                  <angle>
                    <activevideoangle>false</activevideoangle>
                    <activeaudioangle>false</activeaudioangle>
                    <clip id="clip-1"/>
                  </angle>
                  <angle>
                    <activevideoangle>false</activevideoangle>
                    <activeaudioangle>false</activeaudioangle>
                    <clip id="clip-2"/>
                  </angle>
                  <angle>
                    <activevideoangle>false</activevideoangle>
                    <activeaudioangle>false</activeaudioangle>
                    <clip id="clip-3"/>
                  </angle>
                  <angle>
                    <activevideoangle>true</activevideoangle>
                    <activeaudioangle>true</activeaudioangle>
                    <clip id="clip-4"/>
                  </angle>
                  <angle>
                    <activevideoangle>false</activevideoangle>
                    <activeaudioangle>false</activeaudioangle>
                    <clip id="clip-5"/>
                  </angle>
                  <angle>
                    <activevideoangle>false</activevideoangle>
                    <activeaudioangle>false</activeaudioangle>
                    <clip id="clip-6"/>
                  </angle>
                  <angle>
                    <activevideoangle>false</activevideoangle>
                    <activeaudioangle>false</activeaudioangle>
                    <clip id="clip-7"/>
                  </angle>
                  <masterclipid>clip-master</masterclipid>
                </multiclip>
              </clipitem>
              <clipitem id="cs-702">
                <duration>49</duration>
                <rate>
                  <ntsc>false</ntsc>
                  <timebase>25</timebase>
                </rate>
                <in>76739</in>
                <out>76787</out>
                <start>76739</start>
                <end>76787</end>
                <file id="src-1"/>
                <sourcetrack>
                  <mediatype>video</mediatype>
                  <trackindex>1</trackindex>
                </sourcetrack>
                <multiclip id="mcs-702">
                  <name>MCS-702</name>
                  <masterclipid>clip-master</masterclipid>
                  <collapsed>false</collapsed>
                  <angle>
                    <activevideoangle>true</activevideoangle>
                    <activeaudioangle>true</activeaudioangle>
                    <clip id="clip-1"/>
                  </angle>
                  <angle>
                    <activevideoangle>false</activevideoangle>
                    <activeaudioangle>false</activeaudioangle>
                    <clip id="clip-2"/>
                  </angle>
                  <angle>
                    <activevideoangle>false</activevideoangle>
                    <activeaudioangle>false</activeaudioangle>
                    <clip id="clip-3"/>
                  </angle>
                  <angle>
                    <activevideoangle>false</activevideoangle>
                    <activeaudioangle>false</activeaudioangle>
                    <clip id="clip-4"/>
                  </angle>
                  <angle>
                    <activevideoangle>false</activevideoangle>
                    <activeaudioangle>false</activeaudioangle>
                    <clip id="clip-5"/>
                  </angle>
                  <angle>
                    <activevideoangle>false</activevideoangle>
                    <activeaudioangle>false</activeaudioangle>
                    <clip id="clip-6"/>
                  </angle>
                  <angle>
                    <activevideoangle>false</activevideoangle>
                    <activeaudioangle>false</activeaudioangle>
                    <clip id="clip-7"/>
                  </angle>
                  <masterclipid>clip-master</masterclipid>
                </multiclip>
              </clipitem>
              <clipitem id="cs-703">
                <duration>38</duration>
                <rate>
                  <ntsc>false</ntsc>
                  <timebase>25</timebase>
                </rate>
                <in>76787</in>
                <out>76824</out>
                <start>76787</start>
                <end>76824</end>
                <file id="src-2"/>
                <sourcetrack>
                  <mediatype>video</mediatype>
                  <trackindex>1</trackindex>
                </sourcetrack>
                <multiclip id="mcs-703">
                  <name>MCS-703</name>
                  <masterclipid>clip-master</masterclipid>
                  <collapsed>false</collapsed>
                  <angle>
                    <activevideoangle>false</activevideoangle>
                    <activeaudioangle>false</activeaudioangle>
                    <clip id="clip-1"/>
                  </angle>
                  <angle>
                    <activevideoangle>true</activevideoangle>
                    <activeaudioangle>true</activeaudioangle>
                    <clip id="clip-2"/>
                  </angle>
                  <angle>
                    <activevideoangle>false</activevideoangle>
                    <activeaudioangle>false</activeaudioangle>
                    <clip id="clip-3"/>
                  </angle>
                  <angle>
                    <activevideoangle>false</activevideoangle>
                    <activeaudioangle>false</activeaudioangle>
                    <clip id="clip-4"/>
                  </angle>
                  <angle>
                    <activevideoangle>false</activevideoangle>
                    <activeaudioangle>false</activeaudioangle>
                    <clip id="clip-5"/>
                  </angle>
                  <angle>
                    <activevideoangle>false</activevideoangle>
                    <activeaudioangle>false</activeaudioangle>
                    <clip id="clip-6"/>
                  </angle>
                  <angle>
                    <activevideoangle>false</activevideoangle>
                    <activeaudioangle>false</activeaudioangle>
                    <clip id="clip-7"/>
                  </angle>
                  <masterclipid>clip-master</masterclipid>
                </multiclip>
              </clipitem>
              <clipitem id="cs-704">
                <duration>94</duration>
                <rate>
                  <ntsc>false</ntsc>
                  <timebase>25</timebase>
                </rate>
                <in>76824</in>
                <out>76917</out>
                <start>76824</start>
                <end>76917</end>
                <file id="src-3"/>
                <sourcetrack>
                  <mediatype>video</mediatype>
                  <trackindex>1</trackindex>
                </sourcetrack>
                <multiclip id="mcs-704">
                  <name>MCS-704</name>
                  <masterclipid>clip-master</masterclipid>
                  <collapsed>false</collapsed>
                  <angle>
                    <activevideoangle>false</activevideoangle>
                    <activeaudioangle>false</activeaudioangle>
                    <clip id="clip-1"/>
                  </angle>
                  <angle>
                    <activevideoangle>false</activevideoangle>
                    <activeaudioangle>false</activeaudioangle>
                    <clip id="clip-2"/>
                  </angle>
                  <angle>
                    <activevideoangle>true</activevideoangle>
                    <activeaudioangle>true</activeaudioangle>
                    <clip id="clip-3"/>
                  </angle>
                  <angle>
                    <activevideoangle>false</activevideoangle>
                    <activeaudioangle>false</activeaudioangle>
                    <clip id="clip-4"/>
                  </angle>
                  <angle>
                    <activevideoangle>false</activevideoangle>
                    <activeaudioangle>false</activeaudioangle>
                    <clip id="clip-5"/>
                  </angle>
                  <angle>
                    <activevideoangle>false</activevideoangle>
                    <activeaudioangle>false</activeaudioangle>
                    <clip id="clip-6"/>
                  </angle>
                  <angle>
                    <activevideoangle>false</activevideoangle>
                    <activeaudioangle>false</activeaudioangle>
                    <clip id="clip-7"/>
                  </angle>
                  <masterclipid>clip-master</masterclipid>
                </multiclip>
              </clipitem>
              <clipitem id="cs-705">
                <duration>91</duration>
                <rate>
                  <ntsc>false</ntsc>
                  <timebase>25</timebase>
                </rate>
                <in>76917</in>
                <out>77007</out>
                <start>76917</start>
                <end>77007</end>
                <file id="src-5"/>
                <sourcetrack>
                  <mediatype>video</mediatype>
                  <trackindex>1</trackindex>
                </sourcetrack>
                <multiclip id="mcs-705">
                  <name>MCS-705</name>
                  <masterclipid>clip-master</masterclipid>
                  <collapsed>false</collapsed>
                  <angle>
                    <activevideoangle>false</activevideoangle>
                    <activeaudioangle>false</activeaudioangle>
                    <clip id="clip-1"/>
                  </angle>
                  <angle>
                    <activevideoangle>false</activevideoangle>
                    <activeaudioangle>false</activeaudioangle>
                    <clip id="clip-2"/>
                  </angle>
                  <angle>
                    <activevideoangle>false</activevideoangle>
                    <activeaudioangle>false</activeaudioangle>
                    <clip id="clip-3"/>
                  </angle>
                  <angle>
                    <activevideoangle>false</activevideoangle>
                    <activeaudioangle>false</activeaudioangle>
                    <clip id="clip-4"/>
                  </angle>
                  <angle>
                    <activevideoangle>true</activevideoangle>
                    <activeaudioangle>true</activeaudioangle>
                    <clip id="clip-5"/>
                  </angle>
                  <angle>
                    <activevideoangle>false</activevideoangle>
                    <activeaudioangle>false</activeaudioangle>
                    <clip id="clip-6"/>
                  </angle>
                  <angle>
                    <activevideoangle>false</activevideoangle>
                    <activeaudioangle>false</activeaudioangle>
                    <clip id="clip-7"/>
                  </angle>
                  <masterclipid>clip-master</masterclipid>
                </multiclip>
              </clipitem>
              <clipitem id="cs-706">
                <duration>146</duration>
                <rate>
                  <ntsc>false</ntsc>
                  <timebase>25</timebase>
                </rate>
                <in>77007</in>
                <out>77152</out>
                <start>77007</start>
                <end>77152</end>
                <file id="src-2"/>
                <sourcetrack>
                  <mediatype>video</mediatype>
                  <trackindex>1</trackindex>
                </sourcetrack>
                <multiclip id="mcs-706">
                  <name>MCS-706</name>
                  <masterclipid>clip-master</masterclipid>
                  <collapsed>false</collapsed>
                  <angle>
                    <activevideoangle>false</activevideoangle>
                    <activeaudioangle>false</activeaudioangle>
                    <clip id="clip-1"/>
                  </angle>
                  <angle>
                    <activevideoangle>true</activevideoangle>
                    <activeaudioangle>true</activeaudioangle>
                    <clip id="clip-2"/>
                  </angle>
                  <angle>
                    <activevideoangle>false</activevideoangle>
                    <activeaudioangle>false</activeaudioangle>
                    <clip id="clip-3"/>
                  </angle>
                  <angle>
                    <activevideoangle>false</activevideoangle>
                    <activeaudioangle>false</activeaudioangle>
                    <clip id="clip-4"/>
                  </angle>
                  <angle>
                    <activevideoangle>false</activevideoangle>
                    <activeaudioangle>false</activeaudioangle>
                    <clip id="clip-5"/>
                  </angle>
                  <angle>
                    <activevideoangle>false</activevideoangle>
                    <activeaudioangle>false</activeaudioangle>
                    <clip id="clip-6"/>
                  </angle>
                  <angle>
                    <activevideoangle>false</activevideoangle>
                    <activeaudioangle>false</activeaudioangle>
                    <clip id="clip-7"/>
                  </angle>
                  <masterclipid>clip-master</masterclipid>
                </multiclip>
              </clipitem>
              <clipitem id="cs-707">
                <duration>131</duration>
                <rate>
                  <ntsc>false</ntsc>
                  <timebase>25</timebase>
                </rate>
                <in>77152</in>
                <out>77282</out>
                <start>77152</start>
                <end>77282</end>
                <file id="src-1"/>
                <sourcetrack>
                  <mediatype>video</mediatype>
                  <trackindex>1</trackindex>
                </sourcetrack>
                <multiclip id="mcs-707">
                  <name>MCS-707</name>
                  <masterclipid>clip-master</masterclipid>
                  <collapsed>false</collapsed>
                  <angle>
                    <activevideoangle>true</activevideoangle>
                    <activeaudioangle>true</activeaudioangle>
                    <clip id="clip-1"/>
                  </angle>
                  <angle>
                    <activevideoangle>false</activevideoangle>
                    <activeaudioangle>false</activeaudioangle>
                    <clip id="clip-2"/>
                  </angle>
                  <angle>
                    <activevideoangle>false</activevideoangle>
                    <activeaudioangle>false</activeaudioangle>
                    <clip id="clip-3"/>
                  </angle>
                  <angle>
                    <activevideoangle>false</activevideoangle>
                    <activeaudioangle>false</activeaudioangle>
                    <clip id="clip-4"/>
                  </angle>
                  <angle>
                    <activevideoangle>false</activevideoangle>
                    <activeaudioangle>false</activeaudioangle>
                    <clip id="clip-5"/>
                  </angle>
                  <angle>
                    <activevideoangle>false</activevideoangle>
                    <activeaudioangle>false</activeaudioangle>
                    <clip id="clip-6"/>
                  </angle>
                  <angle>
                    <activevideoangle>false</activevideoangle>
                    <activeaudioangle>false</activeaudioangle>
                    <clip id="clip-7"/>
                  </angle>
                  <masterclipid>clip-master</masterclipid>
                </multiclip>
              </clipitem>
              <clipitem id="cs-708">
                <duration>81</duration>
                <rate>
                  <ntsc>false</ntsc>
                  <timebase>25</timebase>
                </rate>
                <in>77282</in>
                <out>77362</out>
                <start>77282</start>
                <end>77362</end>
                <file id="src-4"/>
                <sourcetrack>
                  <mediatype>video</mediatype>
                  <trackindex>1</trackindex>
                </sourcetrack>
                <multiclip id="mcs-708">
                  <name>MCS-708</name>
                  <masterclipid>clip-master</masterclipid>
                  <collapsed>false</collapsed>
                  <angle>
                    <activevideoangle>false</activevideoangle>
                    <activeaudioangle>false</activeaudioangle>
                    <clip id="clip-1"/>
                  </angle>
                  <angle>
                    <activevideoangle>false</activevideoangle>
                    <activeaudioangle>false</activeaudioangle>
                    <clip id="clip-2"/>
                  </angle>
                  <angle>
                    <activevideoangle>false</activevideoangle>
                    <activeaudioangle>false</activeaudioangle>
                    <clip id="clip-3"/>
                  </angle>
                  <angle>
                    <activevideoangle>true</activevideoangle>
                    <activeaudioangle>true</activeaudioangle>
                    <clip id="clip-4"/>
                  </angle>
                  <angle>
                    <activevideoangle>false</activevideoangle>
                    <activeaudioangle>false</activeaudioangle>
                    <clip id="clip-5"/>
                  </angle>
                  <angle>
                    <activevideoangle>false</activevideoangle>
                    <activeaudioangle>false</activeaudioangle>
                    <clip id="clip-6"/>
                  </angle>
                  <angle>
                    <activevideoangle>false</activevideoangle>
                    <activeaudioangle>false</activeaudioangle>
                    <clip id="clip-7"/>
                  </angle>
                  <masterclipid>clip-master</masterclipid>
                </multiclip>
              </clipitem>
              <clipitem id="cs-709">
                <duration>132</duration>
                <rate>
                  <ntsc>false</ntsc>
                  <timebase>25</timebase>
                </rate>
                <in>77362</in>
                <out>77493</out>
                <start>77362</start>
                <end>77493</end>
                <file id="src-2"/>
                <sourcetrack>
                  <mediatype>video</mediatype>
                  <trackindex>1</trackindex>
                </sourcetrack>
                <multiclip id="mcs-709">
                  <name>MCS-709</name>
                  <masterclipid>clip-master</masterclipid>
                  <collapsed>false</collapsed>
                  <angle>
                    <activevideoangle>false</activevideoangle>
                    <activeaudioangle>false</activeaudioangle>
                    <clip id="clip-1"/>
                  </angle>
                  <angle>
                    <activevideoangle>true</activevideoangle>
                    <activeaudioangle>true</activeaudioangle>
                    <clip id="clip-2"/>
                  </angle>
                  <angle>
                    <activevideoangle>false</activevideoangle>
                    <activeaudioangle>false</activeaudioangle>
                    <clip id="clip-3"/>
                  </angle>
                  <angle>
                    <activevideoangle>false</activevideoangle>
                    <activeaudioangle>false</activeaudioangle>
                    <clip id="clip-4"/>
                  </angle>
                  <angle>
                    <activevideoangle>false</activevideoangle>
                    <activeaudioangle>false</activeaudioangle>
                    <clip id="clip-5"/>
                  </angle>
                  <angle>
                    <activevideoangle>false</activevideoangle>
                    <activeaudioangle>false</activeaudioangle>
                    <clip id="clip-6"/>
                  </angle>
                  <angle>
                    <activevideoangle>false</activevideoangle>
                    <activeaudioangle>false</activeaudioangle>
                    <clip id="clip-7"/>
                  </angle>
                  <masterclipid>clip-master</masterclipid>
                </multiclip>
              </clipitem>
              <clipitem id="cs-710">
                <duration>97</duration>
                <rate>
                  <ntsc>false</ntsc>
                  <timebase>25</timebase>
                </rate>
                <in>77493</in>
                <out>77589</out>
                <start>77493</start>
                <end>77589</end>
                <file id="src-3"/>
                <sourcetrack>
                  <mediatype>video</mediatype>
                  <trackindex>1</trackindex>
                </sourcetrack>
                <multiclip id="mcs-710">
                  <name>MCS-710</name>
                  <masterclipid>clip-master</masterclipid>
                  <collapsed>false</collapsed>
                  <angle>
                    <activevideoangle>false</activevideoangle>
                    <activeaudioangle>false</activeaudioangle>
                    <clip id="clip-1"/>
                  </angle>
                  <angle>
                    <activevideoangle>false</activevideoangle>
                    <activeaudioangle>false</activeaudioangle>
                    <clip id="clip-2"/>
                  </angle>
                  <angle>
                    <activevideoangle>true</activevideoangle>
                    <activeaudioangle>true</activeaudioangle>
                    <clip id="clip-3"/>
                  </angle>
                  <angle>
                    <activevideoangle>false</activevideoangle>
                    <activeaudioangle>false</activeaudioangle>
                    <clip id="clip-4"/>
                  </angle>
                  <angle>
                    <activevideoangle>false</activevideoangle>
                    <activeaudioangle>false</activeaudioangle>
                    <clip id="clip-5"/>
                  </angle>
                  <angle>
                    <activevideoangle>false</activevideoangle>
                    <activeaudioangle>false</activeaudioangle>
                    <clip id="clip-6"/>
                  </angle>
                  <angle>
                    <activevideoangle>false</activevideoangle>
                    <activeaudioangle>false</activeaudioangle>
                    <clip id="clip-7"/>
                  </angle>
                  <masterclipid>clip-master</masterclipid>
                </multiclip>
              </clipitem>
              <clipitem id="cs-711">
                <duration>69</duration>
                <rate>
                  <ntsc>false</ntsc>
                  <timebase>25</timebase>
                </rate>
                <in>77589</in>
                <out>77657</out>
                <start>77589</start>
                <end>77657</end>
                <file id="src-4"/>
                <sourcetrack>
                  <mediatype>video</mediatype>
                  <trackindex>1</trackindex>
                </sourcetrack>
                <multiclip id="mcs-711">
                  <name>MCS-711</name>
                  <masterclipid>clip-master</masterclipid>
                  <collapsed>false</collapsed>
                  <angle>
                    <activevideoangle>false</activevideoangle>
                    <activeaudioangle>false</activeaudioangle>
                    <clip id="clip-1"/>
                  </angle>
                  <angle>
                    <activevideoangle>false</activevideoangle>
                    <activeaudioangle>false</activeaudioangle>
                    <clip id="clip-2"/>
                  </angle>
                  <angle>
                    <activevideoangle>false</activevideoangle>
                    <activeaudioangle>false</activeaudioangle>
                    <clip id="clip-3"/>
                  </angle>
                  <angle>
                    <activevideoangle>true</activevideoangle>
                    <activeaudioangle>true</activeaudioangle>
                    <clip id="clip-4"/>
                  </angle>
                  <angle>
                    <activevideoangle>false</activevideoangle>
                    <activeaudioangle>false</activeaudioangle>
                    <clip id="clip-5"/>
                  </angle>
                  <angle>
                    <activevideoangle>false</activevideoangle>
                    <activeaudioangle>false</activeaudioangle>
                    <clip id="clip-6"/>
                  </angle>
                  <angle>
                    <activevideoangle>false</activevideoangle>
                    <activeaudioangle>false</activeaudioangle>
                    <clip id="clip-7"/>
                  </angle>
                  <masterclipid>clip-master</masterclipid>
                </multiclip>
              </clipitem>
              <clipitem id="cs-712">
                <duration>228</duration>
                <rate>
                  <ntsc>false</ntsc>
                  <timebase>25</timebase>
                </rate>
                <in>77657</in>
                <out>77884</out>
                <start>77657</start>
                <end>77884</end>
                <file id="src-3"/>
                <sourcetrack>
                  <mediatype>video</mediatype>
                  <trackindex>1</trackindex>
                </sourcetrack>
                <multiclip id="mcs-712">
                  <name>MCS-712</name>
                  <masterclipid>clip-master</masterclipid>
                  <collapsed>false</collapsed>
                  <angle>
                    <activevideoangle>false</activevideoangle>
                    <activeaudioangle>false</activeaudioangle>
                    <clip id="clip-1"/>
                  </angle>
                  <angle>
                    <activevideoangle>false</activevideoangle>
                    <activeaudioangle>false</activeaudioangle>
                    <clip id="clip-2"/>
                  </angle>
                  <angle>
                    <activevideoangle>true</activevideoangle>
                    <activeaudioangle>true</activeaudioangle>
                    <clip id="clip-3"/>
                  </angle>
                  <angle>
                    <activevideoangle>false</activevideoangle>
                    <activeaudioangle>false</activeaudioangle>
                    <clip id="clip-4"/>
                  </angle>
                  <angle>
                    <activevideoangle>false</activevideoangle>
                    <activeaudioangle>false</activeaudioangle>
                    <clip id="clip-5"/>
                  </angle>
                  <angle>
                    <activevideoangle>false</activevideoangle>
                    <activeaudioangle>false</activeaudioangle>
                    <clip id="clip-6"/>
                  </angle>
                  <angle>
                    <activevideoangle>false</activevideoangle>
                    <activeaudioangle>false</activeaudioangle>
                    <clip id="clip-7"/>
                  </angle>
                  <masterclipid>clip-master</masterclipid>
                </multiclip>
              </clipitem>
              <clipitem id="cs-713">
                <duration>105</duration>
                <rate>
                  <ntsc>false</ntsc>
                  <timebase>25</timebase>
                </rate>
                <in>77884</in>
                <out>77988</out>
                <start>77884</start>
                <end>77988</end>
                <file id="src-2"/>
                <sourcetrack>
                  <mediatype>video</mediatype>
                  <trackindex>1</trackindex>
                </sourcetrack>
                <multiclip id="mcs-713">
                  <name>MCS-713</name>
                  <masterclipid>clip-master</masterclipid>
                  <collapsed>false</collapsed>
                  <angle>
                    <activevideoangle>false</activevideoangle>
                    <activeaudioangle>false</activeaudioangle>
                    <clip id="clip-1"/>
                  </angle>
                  <angle>
                    <activevideoangle>true</activevideoangle>
                    <activeaudioangle>true</activeaudioangle>
                    <clip id="clip-2"/>
                  </angle>
                  <angle>
                    <activevideoangle>false</activevideoangle>
                    <activeaudioangle>false</activeaudioangle>
                    <clip id="clip-3"/>
                  </angle>
                  <angle>
                    <activevideoangle>false</activevideoangle>
                    <activeaudioangle>false</activeaudioangle>
                    <clip id="clip-4"/>
                  </angle>
                  <angle>
                    <activevideoangle>false</activevideoangle>
                    <activeaudioangle>false</activeaudioangle>
                    <clip id="clip-5"/>
                  </angle>
                  <angle>
                    <activevideoangle>false</activevideoangle>
                    <activeaudioangle>false</activeaudioangle>
                    <clip id="clip-6"/>
                  </angle>
                  <angle>
                    <activevideoangle>false</activevideoangle>
                    <activeaudioangle>false</activeaudioangle>
                    <clip id="clip-7"/>
                  </angle>
                  <masterclipid>clip-master</masterclipid>
                </multiclip>
              </clipitem>
              <clipitem id="cs-714">
                <duration>167</duration>
                <rate>
                  <ntsc>false</ntsc>
                  <timebase>25</timebase>
                </rate>
                <in>77988</in>
                <out>78154</out>
                <start>77988</start>
                <end>78154</end>
                <file id="src-3"/>
                <sourcetrack>
                  <mediatype>video</mediatype>
                  <trackindex>1</trackindex>
                </sourcetrack>
                <multiclip id="mcs-714">
                  <name>MCS-714</name>
                  <masterclipid>clip-master</masterclipid>
                  <collapsed>false</collapsed>
                  <angle>
                    <activevideoangle>false</activevideoangle>
                    <activeaudioangle>false</activeaudioangle>
                    <clip id="clip-1"/>
                  </angle>
                  <angle>
                    <activevideoangle>false</activevideoangle>
                    <activeaudioangle>false</activeaudioangle>
                    <clip id="clip-2"/>
                  </angle>
                  <angle>
                    <activevideoangle>true</activevideoangle>
                    <activeaudioangle>true</activeaudioangle>
                    <clip id="clip-3"/>
                  </angle>
                  <angle>
                    <activevideoangle>false</activevideoangle>
                    <activeaudioangle>false</activeaudioangle>
                    <clip id="clip-4"/>
                  </angle>
                  <angle>
                    <activevideoangle>false</activevideoangle>
                    <activeaudioangle>false</activeaudioangle>
                    <clip id="clip-5"/>
                  </angle>
                  <angle>
                    <activevideoangle>false</activevideoangle>
                    <activeaudioangle>false</activeaudioangle>
                    <clip id="clip-6"/>
                  </angle>
                  <angle>
                    <activevideoangle>false</activevideoangle>
                    <activeaudioangle>false</activeaudioangle>
                    <clip id="clip-7"/>
                  </angle>
                  <masterclipid>clip-master</masterclipid>
                </multiclip>
              </clipitem>
              <clipitem id="cs-715">
                <duration>126</duration>
                <rate>
                  <ntsc>false</ntsc>
                  <timebase>25</timebase>
                </rate>
                <in>78154</in>
                <out>78279</out>
                <start>78154</start>
                <end>78279</end>
                <file id="src-4"/>
                <sourcetrack>
                  <mediatype>video</mediatype>
                  <trackindex>1</trackindex>
                </sourcetrack>
                <multiclip id="mcs-715">
                  <name>MCS-715</name>
                  <masterclipid>clip-master</masterclipid>
                  <collapsed>false</collapsed>
                  <angle>
                    <activevideoangle>false</activevideoangle>
                    <activeaudioangle>false</activeaudioangle>
                    <clip id="clip-1"/>
                  </angle>
                  <angle>
                    <activevideoangle>false</activevideoangle>
                    <activeaudioangle>false</activeaudioangle>
                    <clip id="clip-2"/>
                  </angle>
                  <angle>
                    <activevideoangle>false</activevideoangle>
                    <activeaudioangle>false</activeaudioangle>
                    <clip id="clip-3"/>
                  </angle>
                  <angle>
                    <activevideoangle>true</activevideoangle>
                    <activeaudioangle>true</activeaudioangle>
                    <clip id="clip-4"/>
                  </angle>
                  <angle>
                    <activevideoangle>false</activevideoangle>
                    <activeaudioangle>false</activeaudioangle>
                    <clip id="clip-5"/>
                  </angle>
                  <angle>
                    <activevideoangle>false</activevideoangle>
                    <activeaudioangle>false</activeaudioangle>
                    <clip id="clip-6"/>
                  </angle>
                  <angle>
                    <activevideoangle>false</activevideoangle>
                    <activeaudioangle>false</activeaudioangle>
                    <clip id="clip-7"/>
                  </angle>
                  <masterclipid>clip-master</masterclipid>
                </multiclip>
              </clipitem>
              <clipitem id="cs-716">
                <duration>238</duration>
                <rate>
                  <ntsc>false</ntsc>
                  <timebase>25</timebase>
                </rate>
                <in>78279</in>
                <out>78516</out>
                <start>78279</start>
                <end>78516</end>
                <file id="src-3"/>
                <sourcetrack>
                  <mediatype>video</mediatype>
                  <trackindex>1</trackindex>
                </sourcetrack>
                <multiclip id="mcs-716">
                  <name>MCS-716</name>
                  <masterclipid>clip-master</masterclipid>
                  <collapsed>false</collapsed>
                  <angle>
                    <activevideoangle>false</activevideoangle>
                    <activeaudioangle>false</activeaudioangle>
                    <clip id="clip-1"/>
                  </angle>
                  <angle>
                    <activevideoangle>false</activevideoangle>
                    <activeaudioangle>false</activeaudioangle>
                    <clip id="clip-2"/>
                  </angle>
                  <angle>
                    <activevideoangle>true</activevideoangle>
                    <activeaudioangle>true</activeaudioangle>
                    <clip id="clip-3"/>
                  </angle>
                  <angle>
                    <activevideoangle>false</activevideoangle>
                    <activeaudioangle>false</activeaudioangle>
                    <clip id="clip-4"/>
                  </angle>
                  <angle>
                    <activevideoangle>false</activevideoangle>
                    <activeaudioangle>false</activeaudioangle>
                    <clip id="clip-5"/>
                  </angle>
                  <angle>
                    <activevideoangle>false</activevideoangle>
                    <activeaudioangle>false</activeaudioangle>
                    <clip id="clip-6"/>
                  </angle>
                  <angle>
                    <activevideoangle>false</activevideoangle>
                    <activeaudioangle>false</activeaudioangle>
                    <clip id="clip-7"/>
                  </angle>
                  <masterclipid>clip-master</masterclipid>
                </multiclip>
              </clipitem>
              <clipitem id="cs-717">
                <duration>88</duration>
                <rate>
                  <ntsc>false</ntsc>
                  <timebase>25</timebase>
                </rate>
                <in>78516</in>
                <out>78603</out>
                <start>78516</start>
                <end>78603</end>
                <file id="src-4"/>
                <sourcetrack>
                  <mediatype>video</mediatype>
                  <trackindex>1</trackindex>
                </sourcetrack>
                <multiclip id="mcs-717">
                  <name>MCS-717</name>
                  <masterclipid>clip-master</masterclipid>
                  <collapsed>false</collapsed>
                  <angle>
                    <activevideoangle>false</activevideoangle>
                    <activeaudioangle>false</activeaudioangle>
                    <clip id="clip-1"/>
                  </angle>
                  <angle>
                    <activevideoangle>false</activevideoangle>
                    <activeaudioangle>false</activeaudioangle>
                    <clip id="clip-2"/>
                  </angle>
                  <angle>
                    <activevideoangle>false</activevideoangle>
                    <activeaudioangle>false</activeaudioangle>
                    <clip id="clip-3"/>
                  </angle>
                  <angle>
                    <activevideoangle>true</activevideoangle>
                    <activeaudioangle>true</activeaudioangle>
                    <clip id="clip-4"/>
                  </angle>
                  <angle>
                    <activevideoangle>false</activevideoangle>
                    <activeaudioangle>false</activeaudioangle>
                    <clip id="clip-5"/>
                  </angle>
                  <angle>
                    <activevideoangle>false</activevideoangle>
                    <activeaudioangle>false</activeaudioangle>
                    <clip id="clip-6"/>
                  </angle>
                  <angle>
                    <activevideoangle>false</activevideoangle>
                    <activeaudioangle>false</activeaudioangle>
                    <clip id="clip-7"/>
                  </angle>
                  <masterclipid>clip-master</masterclipid>
                </multiclip>
              </clipitem>
              <clipitem id="cs-718">
                <duration>64</duration>
                <rate>
                  <ntsc>false</ntsc>
                  <timebase>25</timebase>
                </rate>
                <in>78603</in>
                <out>78666</out>
                <start>78603</start>
                <end>78666</end>
                <file id="src-2"/>
                <sourcetrack>
                  <mediatype>video</mediatype>
                  <trackindex>1</trackindex>
                </sourcetrack>
                <multiclip id="mcs-718">
                  <name>MCS-718</name>
                  <masterclipid>clip-master</masterclipid>
                  <collapsed>false</collapsed>
                  <angle>
                    <activevideoangle>false</activevideoangle>
                    <activeaudioangle>false</activeaudioangle>
                    <clip id="clip-1"/>
                  </angle>
                  <angle>
                    <activevideoangle>true</activevideoangle>
                    <activeaudioangle>true</activeaudioangle>
                    <clip id="clip-2"/>
                  </angle>
                  <angle>
                    <activevideoangle>false</activevideoangle>
                    <activeaudioangle>false</activeaudioangle>
                    <clip id="clip-3"/>
                  </angle>
                  <angle>
                    <activevideoangle>false</activevideoangle>
                    <activeaudioangle>false</activeaudioangle>
                    <clip id="clip-4"/>
                  </angle>
                  <angle>
                    <activevideoangle>false</activevideoangle>
                    <activeaudioangle>false</activeaudioangle>
                    <clip id="clip-5"/>
                  </angle>
                  <angle>
                    <activevideoangle>false</activevideoangle>
                    <activeaudioangle>false</activeaudioangle>
                    <clip id="clip-6"/>
                  </angle>
                  <angle>
                    <activevideoangle>false</activevideoangle>
                    <activeaudioangle>false</activeaudioangle>
                    <clip id="clip-7"/>
                  </angle>
                  <masterclipid>clip-master</masterclipid>
                </multiclip>
              </clipitem>
              <clipitem id="cs-719">
                <duration>41</duration>
                <rate>
                  <ntsc>false</ntsc>
                  <timebase>25</timebase>
                </rate>
                <in>78666</in>
                <out>78706</out>
                <start>78666</start>
                <end>78706</end>
                <file id="src-6"/>
                <sourcetrack>
                  <mediatype>video</mediatype>
                  <trackindex>1</trackindex>
                </sourcetrack>
                <multiclip id="mcs-719">
                  <name>MCS-719</name>
                  <masterclipid>clip-master</masterclipid>
                  <collapsed>false</collapsed>
                  <angle>
                    <activevideoangle>false</activevideoangle>
                    <activeaudioangle>false</activeaudioangle>
                    <clip id="clip-1"/>
                  </angle>
                  <angle>
                    <activevideoangle>false</activevideoangle>
                    <activeaudioangle>false</activeaudioangle>
                    <clip id="clip-2"/>
                  </angle>
                  <angle>
                    <activevideoangle>false</activevideoangle>
                    <activeaudioangle>false</activeaudioangle>
                    <clip id="clip-3"/>
                  </angle>
                  <angle>
                    <activevideoangle>false</activevideoangle>
                    <activeaudioangle>false</activeaudioangle>
                    <clip id="clip-4"/>
                  </angle>
                  <angle>
                    <activevideoangle>false</activevideoangle>
                    <activeaudioangle>false</activeaudioangle>
                    <clip id="clip-5"/>
                  </angle>
                  <angle>
                    <activevideoangle>true</activevideoangle>
                    <activeaudioangle>true</activeaudioangle>
                    <clip id="clip-6"/>
                  </angle>
                  <angle>
                    <activevideoangle>false</activevideoangle>
                    <activeaudioangle>false</activeaudioangle>
                    <clip id="clip-7"/>
                  </angle>
                  <masterclipid>clip-master</masterclipid>
                </multiclip>
              </clipitem>
              <clipitem id="cs-720">
                <duration>63</duration>
                <rate>
                  <ntsc>false</ntsc>
                  <timebase>25</timebase>
                </rate>
                <in>78706</in>
                <out>78768</out>
                <start>78706</start>
                <end>78768</end>
                <file id="src-2"/>
                <sourcetrack>
                  <mediatype>video</mediatype>
                  <trackindex>1</trackindex>
                </sourcetrack>
                <multiclip id="mcs-720">
                  <name>MCS-720</name>
                  <masterclipid>clip-master</masterclipid>
                  <collapsed>false</collapsed>
                  <angle>
                    <activevideoangle>false</activevideoangle>
                    <activeaudioangle>false</activeaudioangle>
                    <clip id="clip-1"/>
                  </angle>
                  <angle>
                    <activevideoangle>true</activevideoangle>
                    <activeaudioangle>true</activeaudioangle>
                    <clip id="clip-2"/>
                  </angle>
                  <angle>
                    <activevideoangle>false</activevideoangle>
                    <activeaudioangle>false</activeaudioangle>
                    <clip id="clip-3"/>
                  </angle>
                  <angle>
                    <activevideoangle>false</activevideoangle>
                    <activeaudioangle>false</activeaudioangle>
                    <clip id="clip-4"/>
                  </angle>
                  <angle>
                    <activevideoangle>false</activevideoangle>
                    <activeaudioangle>false</activeaudioangle>
                    <clip id="clip-5"/>
                  </angle>
                  <angle>
                    <activevideoangle>false</activevideoangle>
                    <activeaudioangle>false</activeaudioangle>
                    <clip id="clip-6"/>
                  </angle>
                  <angle>
                    <activevideoangle>false</activevideoangle>
                    <activeaudioangle>false</activeaudioangle>
                    <clip id="clip-7"/>
                  </angle>
                  <masterclipid>clip-master</masterclipid>
                </multiclip>
              </clipitem>
              <clipitem id="cs-721">
                <duration>106</duration>
                <rate>
                  <ntsc>false</ntsc>
                  <timebase>25</timebase>
                </rate>
                <in>78768</in>
                <out>78873</out>
                <start>78768</start>
                <end>78873</end>
                <file id="src-3"/>
                <sourcetrack>
                  <mediatype>video</mediatype>
                  <trackindex>1</trackindex>
                </sourcetrack>
                <multiclip id="mcs-721">
                  <name>MCS-721</name>
                  <masterclipid>clip-master</masterclipid>
                  <collapsed>false</collapsed>
                  <angle>
                    <activevideoangle>false</activevideoangle>
                    <activeaudioangle>false</activeaudioangle>
                    <clip id="clip-1"/>
                  </angle>
                  <angle>
                    <activevideoangle>false</activevideoangle>
                    <activeaudioangle>false</activeaudioangle>
                    <clip id="clip-2"/>
                  </angle>
                  <angle>
                    <activevideoangle>true</activevideoangle>
                    <activeaudioangle>true</activeaudioangle>
                    <clip id="clip-3"/>
                  </angle>
                  <angle>
                    <activevideoangle>false</activevideoangle>
                    <activeaudioangle>false</activeaudioangle>
                    <clip id="clip-4"/>
                  </angle>
                  <angle>
                    <activevideoangle>false</activevideoangle>
                    <activeaudioangle>false</activeaudioangle>
                    <clip id="clip-5"/>
                  </angle>
                  <angle>
                    <activevideoangle>false</activevideoangle>
                    <activeaudioangle>false</activeaudioangle>
                    <clip id="clip-6"/>
                  </angle>
                  <angle>
                    <activevideoangle>false</activevideoangle>
                    <activeaudioangle>false</activeaudioangle>
                    <clip id="clip-7"/>
                  </angle>
                  <masterclipid>clip-master</masterclipid>
                </multiclip>
              </clipitem>
              <clipitem id="cs-722">
                <duration>82</duration>
                <rate>
                  <ntsc>false</ntsc>
                  <timebase>25</timebase>
                </rate>
                <in>78873</in>
                <out>78954</out>
                <start>78873</start>
                <end>78954</end>
                <file id="src-2"/>
                <sourcetrack>
                  <mediatype>video</mediatype>
                  <trackindex>1</trackindex>
                </sourcetrack>
                <multiclip id="mcs-722">
                  <name>MCS-722</name>
                  <masterclipid>clip-master</masterclipid>
                  <collapsed>false</collapsed>
                  <angle>
                    <activevideoangle>false</activevideoangle>
                    <activeaudioangle>false</activeaudioangle>
                    <clip id="clip-1"/>
                  </angle>
                  <angle>
                    <activevideoangle>true</activevideoangle>
                    <activeaudioangle>true</activeaudioangle>
                    <clip id="clip-2"/>
                  </angle>
                  <angle>
                    <activevideoangle>false</activevideoangle>
                    <activeaudioangle>false</activeaudioangle>
                    <clip id="clip-3"/>
                  </angle>
                  <angle>
                    <activevideoangle>false</activevideoangle>
                    <activeaudioangle>false</activeaudioangle>
                    <clip id="clip-4"/>
                  </angle>
                  <angle>
                    <activevideoangle>false</activevideoangle>
                    <activeaudioangle>false</activeaudioangle>
                    <clip id="clip-5"/>
                  </angle>
                  <angle>
                    <activevideoangle>false</activevideoangle>
                    <activeaudioangle>false</activeaudioangle>
                    <clip id="clip-6"/>
                  </angle>
                  <angle>
                    <activevideoangle>false</activevideoangle>
                    <activeaudioangle>false</activeaudioangle>
                    <clip id="clip-7"/>
                  </angle>
                  <masterclipid>clip-master</masterclipid>
                </multiclip>
              </clipitem>
              <clipitem id="cs-723">
                <duration>95</duration>
                <rate>
                  <ntsc>false</ntsc>
                  <timebase>25</timebase>
                </rate>
                <in>78954</in>
                <out>79048</out>
                <start>78954</start>
                <end>79048</end>
                <file id="src-3"/>
                <sourcetrack>
                  <mediatype>video</mediatype>
                  <trackindex>1</trackindex>
                </sourcetrack>
                <multiclip id="mcs-723">
                  <name>MCS-723</name>
                  <masterclipid>clip-master</masterclipid>
                  <collapsed>false</collapsed>
                  <angle>
                    <activevideoangle>false</activevideoangle>
                    <activeaudioangle>false</activeaudioangle>
                    <clip id="clip-1"/>
                  </angle>
                  <angle>
                    <activevideoangle>false</activevideoangle>
                    <activeaudioangle>false</activeaudioangle>
                    <clip id="clip-2"/>
                  </angle>
                  <angle>
                    <activevideoangle>true</activevideoangle>
                    <activeaudioangle>true</activeaudioangle>
                    <clip id="clip-3"/>
                  </angle>
                  <angle>
                    <activevideoangle>false</activevideoangle>
                    <activeaudioangle>false</activeaudioangle>
                    <clip id="clip-4"/>
                  </angle>
                  <angle>
                    <activevideoangle>false</activevideoangle>
                    <activeaudioangle>false</activeaudioangle>
                    <clip id="clip-5"/>
                  </angle>
                  <angle>
                    <activevideoangle>false</activevideoangle>
                    <activeaudioangle>false</activeaudioangle>
                    <clip id="clip-6"/>
                  </angle>
                  <angle>
                    <activevideoangle>false</activevideoangle>
                    <activeaudioangle>false</activeaudioangle>
                    <clip id="clip-7"/>
                  </angle>
                  <masterclipid>clip-master</masterclipid>
                </multiclip>
              </clipitem>
              <clipitem id="cs-724">
                <duration>94</duration>
                <rate>
                  <ntsc>false</ntsc>
                  <timebase>25</timebase>
                </rate>
                <in>79048</in>
                <out>79141</out>
                <start>79048</start>
                <end>79141</end>
                <file id="src-2"/>
                <sourcetrack>
                  <mediatype>video</mediatype>
                  <trackindex>1</trackindex>
                </sourcetrack>
                <multiclip id="mcs-724">
                  <name>MCS-724</name>
                  <masterclipid>clip-master</masterclipid>
                  <collapsed>false</collapsed>
                  <angle>
                    <activevideoangle>false</activevideoangle>
                    <activeaudioangle>false</activeaudioangle>
                    <clip id="clip-1"/>
                  </angle>
                  <angle>
                    <activevideoangle>true</activevideoangle>
                    <activeaudioangle>true</activeaudioangle>
                    <clip id="clip-2"/>
                  </angle>
                  <angle>
                    <activevideoangle>false</activevideoangle>
                    <activeaudioangle>false</activeaudioangle>
                    <clip id="clip-3"/>
                  </angle>
                  <angle>
                    <activevideoangle>false</activevideoangle>
                    <activeaudioangle>false</activeaudioangle>
                    <clip id="clip-4"/>
                  </angle>
                  <angle>
                    <activevideoangle>false</activevideoangle>
                    <activeaudioangle>false</activeaudioangle>
                    <clip id="clip-5"/>
                  </angle>
                  <angle>
                    <activevideoangle>false</activevideoangle>
                    <activeaudioangle>false</activeaudioangle>
                    <clip id="clip-6"/>
                  </angle>
                  <angle>
                    <activevideoangle>false</activevideoangle>
                    <activeaudioangle>false</activeaudioangle>
                    <clip id="clip-7"/>
                  </angle>
                  <masterclipid>clip-master</masterclipid>
                </multiclip>
              </clipitem>
              <clipitem id="cs-725">
                <duration>218</duration>
                <rate>
                  <ntsc>false</ntsc>
                  <timebase>25</timebase>
                </rate>
                <in>79141</in>
                <out>79358</out>
                <start>79141</start>
                <end>79358</end>
                <file id="src-3"/>
                <sourcetrack>
                  <mediatype>video</mediatype>
                  <trackindex>1</trackindex>
                </sourcetrack>
                <multiclip id="mcs-725">
                  <name>MCS-725</name>
                  <masterclipid>clip-master</masterclipid>
                  <collapsed>false</collapsed>
                  <angle>
                    <activevideoangle>false</activevideoangle>
                    <activeaudioangle>false</activeaudioangle>
                    <clip id="clip-1"/>
                  </angle>
                  <angle>
                    <activevideoangle>false</activevideoangle>
                    <activeaudioangle>false</activeaudioangle>
                    <clip id="clip-2"/>
                  </angle>
                  <angle>
                    <activevideoangle>true</activevideoangle>
                    <activeaudioangle>true</activeaudioangle>
                    <clip id="clip-3"/>
                  </angle>
                  <angle>
                    <activevideoangle>false</activevideoangle>
                    <activeaudioangle>false</activeaudioangle>
                    <clip id="clip-4"/>
                  </angle>
                  <angle>
                    <activevideoangle>false</activevideoangle>
                    <activeaudioangle>false</activeaudioangle>
                    <clip id="clip-5"/>
                  </angle>
                  <angle>
                    <activevideoangle>false</activevideoangle>
                    <activeaudioangle>false</activeaudioangle>
                    <clip id="clip-6"/>
                  </angle>
                  <angle>
                    <activevideoangle>false</activevideoangle>
                    <activeaudioangle>false</activeaudioangle>
                    <clip id="clip-7"/>
                  </angle>
                  <masterclipid>clip-master</masterclipid>
                </multiclip>
              </clipitem>
              <clipitem id="cs-726">
                <duration>133</duration>
                <rate>
                  <ntsc>false</ntsc>
                  <timebase>25</timebase>
                </rate>
                <in>79358</in>
                <out>79490</out>
                <start>79358</start>
                <end>79490</end>
                <file id="src-4"/>
                <sourcetrack>
                  <mediatype>video</mediatype>
                  <trackindex>1</trackindex>
                </sourcetrack>
                <multiclip id="mcs-726">
                  <name>MCS-726</name>
                  <masterclipid>clip-master</masterclipid>
                  <collapsed>false</collapsed>
                  <angle>
                    <activevideoangle>false</activevideoangle>
                    <activeaudioangle>false</activeaudioangle>
                    <clip id="clip-1"/>
                  </angle>
                  <angle>
                    <activevideoangle>false</activevideoangle>
                    <activeaudioangle>false</activeaudioangle>
                    <clip id="clip-2"/>
                  </angle>
                  <angle>
                    <activevideoangle>false</activevideoangle>
                    <activeaudioangle>false</activeaudioangle>
                    <clip id="clip-3"/>
                  </angle>
                  <angle>
                    <activevideoangle>true</activevideoangle>
                    <activeaudioangle>true</activeaudioangle>
                    <clip id="clip-4"/>
                  </angle>
                  <angle>
                    <activevideoangle>false</activevideoangle>
                    <activeaudioangle>false</activeaudioangle>
                    <clip id="clip-5"/>
                  </angle>
                  <angle>
                    <activevideoangle>false</activevideoangle>
                    <activeaudioangle>false</activeaudioangle>
                    <clip id="clip-6"/>
                  </angle>
                  <angle>
                    <activevideoangle>false</activevideoangle>
                    <activeaudioangle>false</activeaudioangle>
                    <clip id="clip-7"/>
                  </angle>
                  <masterclipid>clip-master</masterclipid>
                </multiclip>
              </clipitem>
              <clipitem id="cs-727">
                <duration>270</duration>
                <rate>
                  <ntsc>false</ntsc>
                  <timebase>25</timebase>
                </rate>
                <in>79490</in>
                <out>79759</out>
                <start>79490</start>
                <end>79759</end>
                <file id="src-3"/>
                <sourcetrack>
                  <mediatype>video</mediatype>
                  <trackindex>1</trackindex>
                </sourcetrack>
                <multiclip id="mcs-727">
                  <name>MCS-727</name>
                  <masterclipid>clip-master</masterclipid>
                  <collapsed>false</collapsed>
                  <angle>
                    <activevideoangle>false</activevideoangle>
                    <activeaudioangle>false</activeaudioangle>
                    <clip id="clip-1"/>
                  </angle>
                  <angle>
                    <activevideoangle>false</activevideoangle>
                    <activeaudioangle>false</activeaudioangle>
                    <clip id="clip-2"/>
                  </angle>
                  <angle>
                    <activevideoangle>true</activevideoangle>
                    <activeaudioangle>true</activeaudioangle>
                    <clip id="clip-3"/>
                  </angle>
                  <angle>
                    <activevideoangle>false</activevideoangle>
                    <activeaudioangle>false</activeaudioangle>
                    <clip id="clip-4"/>
                  </angle>
                  <angle>
                    <activevideoangle>false</activevideoangle>
                    <activeaudioangle>false</activeaudioangle>
                    <clip id="clip-5"/>
                  </angle>
                  <angle>
                    <activevideoangle>false</activevideoangle>
                    <activeaudioangle>false</activeaudioangle>
                    <clip id="clip-6"/>
                  </angle>
                  <angle>
                    <activevideoangle>false</activevideoangle>
                    <activeaudioangle>false</activeaudioangle>
                    <clip id="clip-7"/>
                  </angle>
                  <masterclipid>clip-master</masterclipid>
                </multiclip>
              </clipitem>
              <clipitem id="cs-728">
                <duration>154</duration>
                <rate>
                  <ntsc>false</ntsc>
                  <timebase>25</timebase>
                </rate>
                <in>79759</in>
                <out>79912</out>
                <start>79759</start>
                <end>79912</end>
                <file id="src-2"/>
                <sourcetrack>
                  <mediatype>video</mediatype>
                  <trackindex>1</trackindex>
                </sourcetrack>
                <multiclip id="mcs-728">
                  <name>MCS-728</name>
                  <masterclipid>clip-master</masterclipid>
                  <collapsed>false</collapsed>
                  <angle>
                    <activevideoangle>false</activevideoangle>
                    <activeaudioangle>false</activeaudioangle>
                    <clip id="clip-1"/>
                  </angle>
                  <angle>
                    <activevideoangle>true</activevideoangle>
                    <activeaudioangle>true</activeaudioangle>
                    <clip id="clip-2"/>
                  </angle>
                  <angle>
                    <activevideoangle>false</activevideoangle>
                    <activeaudioangle>false</activeaudioangle>
                    <clip id="clip-3"/>
                  </angle>
                  <angle>
                    <activevideoangle>false</activevideoangle>
                    <activeaudioangle>false</activeaudioangle>
                    <clip id="clip-4"/>
                  </angle>
                  <angle>
                    <activevideoangle>false</activevideoangle>
                    <activeaudioangle>false</activeaudioangle>
                    <clip id="clip-5"/>
                  </angle>
                  <angle>
                    <activevideoangle>false</activevideoangle>
                    <activeaudioangle>false</activeaudioangle>
                    <clip id="clip-6"/>
                  </angle>
                  <angle>
                    <activevideoangle>false</activevideoangle>
                    <activeaudioangle>false</activeaudioangle>
                    <clip id="clip-7"/>
                  </angle>
                  <masterclipid>clip-master</masterclipid>
                </multiclip>
              </clipitem>
              <clipitem id="cs-729">
                <duration>59</duration>
                <rate>
                  <ntsc>false</ntsc>
                  <timebase>25</timebase>
                </rate>
                <in>79912</in>
                <out>79970</out>
                <start>79912</start>
                <end>79970</end>
                <file id="src-3"/>
                <sourcetrack>
                  <mediatype>video</mediatype>
                  <trackindex>1</trackindex>
                </sourcetrack>
                <multiclip id="mcs-729">
                  <name>MCS-729</name>
                  <masterclipid>clip-master</masterclipid>
                  <collapsed>false</collapsed>
                  <angle>
                    <activevideoangle>false</activevideoangle>
                    <activeaudioangle>false</activeaudioangle>
                    <clip id="clip-1"/>
                  </angle>
                  <angle>
                    <activevideoangle>false</activevideoangle>
                    <activeaudioangle>false</activeaudioangle>
                    <clip id="clip-2"/>
                  </angle>
                  <angle>
                    <activevideoangle>true</activevideoangle>
                    <activeaudioangle>true</activeaudioangle>
                    <clip id="clip-3"/>
                  </angle>
                  <angle>
                    <activevideoangle>false</activevideoangle>
                    <activeaudioangle>false</activeaudioangle>
                    <clip id="clip-4"/>
                  </angle>
                  <angle>
                    <activevideoangle>false</activevideoangle>
                    <activeaudioangle>false</activeaudioangle>
                    <clip id="clip-5"/>
                  </angle>
                  <angle>
                    <activevideoangle>false</activevideoangle>
                    <activeaudioangle>false</activeaudioangle>
                    <clip id="clip-6"/>
                  </angle>
                  <angle>
                    <activevideoangle>false</activevideoangle>
                    <activeaudioangle>false</activeaudioangle>
                    <clip id="clip-7"/>
                  </angle>
                  <masterclipid>clip-master</masterclipid>
                </multiclip>
              </clipitem>
              <clipitem id="cs-730">
                <duration>48</duration>
                <rate>
                  <ntsc>false</ntsc>
                  <timebase>25</timebase>
                </rate>
                <in>79970</in>
                <out>80017</out>
                <start>79970</start>
                <end>80017</end>
                <file id="src-6"/>
                <sourcetrack>
                  <mediatype>video</mediatype>
                  <trackindex>1</trackindex>
                </sourcetrack>
                <multiclip id="mcs-730">
                  <name>MCS-730</name>
                  <masterclipid>clip-master</masterclipid>
                  <collapsed>false</collapsed>
                  <angle>
                    <activevideoangle>false</activevideoangle>
                    <activeaudioangle>false</activeaudioangle>
                    <clip id="clip-1"/>
                  </angle>
                  <angle>
                    <activevideoangle>false</activevideoangle>
                    <activeaudioangle>false</activeaudioangle>
                    <clip id="clip-2"/>
                  </angle>
                  <angle>
                    <activevideoangle>false</activevideoangle>
                    <activeaudioangle>false</activeaudioangle>
                    <clip id="clip-3"/>
                  </angle>
                  <angle>
                    <activevideoangle>false</activevideoangle>
                    <activeaudioangle>false</activeaudioangle>
                    <clip id="clip-4"/>
                  </angle>
                  <angle>
                    <activevideoangle>false</activevideoangle>
                    <activeaudioangle>false</activeaudioangle>
                    <clip id="clip-5"/>
                  </angle>
                  <angle>
                    <activevideoangle>true</activevideoangle>
                    <activeaudioangle>true</activeaudioangle>
                    <clip id="clip-6"/>
                  </angle>
                  <angle>
                    <activevideoangle>false</activevideoangle>
                    <activeaudioangle>false</activeaudioangle>
                    <clip id="clip-7"/>
                  </angle>
                  <masterclipid>clip-master</masterclipid>
                </multiclip>
              </clipitem>
              <clipitem id="cs-731">
                <duration>58</duration>
                <rate>
                  <ntsc>false</ntsc>
                  <timebase>25</timebase>
                </rate>
                <in>80017</in>
                <out>80074</out>
                <start>80017</start>
                <end>80074</end>
                <file id="src-3"/>
                <sourcetrack>
                  <mediatype>video</mediatype>
                  <trackindex>1</trackindex>
                </sourcetrack>
                <multiclip id="mcs-731">
                  <name>MCS-731</name>
                  <masterclipid>clip-master</masterclipid>
                  <collapsed>false</collapsed>
                  <angle>
                    <activevideoangle>false</activevideoangle>
                    <activeaudioangle>false</activeaudioangle>
                    <clip id="clip-1"/>
                  </angle>
                  <angle>
                    <activevideoangle>false</activevideoangle>
                    <activeaudioangle>false</activeaudioangle>
                    <clip id="clip-2"/>
                  </angle>
                  <angle>
                    <activevideoangle>true</activevideoangle>
                    <activeaudioangle>true</activeaudioangle>
                    <clip id="clip-3"/>
                  </angle>
                  <angle>
                    <activevideoangle>false</activevideoangle>
                    <activeaudioangle>false</activeaudioangle>
                    <clip id="clip-4"/>
                  </angle>
                  <angle>
                    <activevideoangle>false</activevideoangle>
                    <activeaudioangle>false</activeaudioangle>
                    <clip id="clip-5"/>
                  </angle>
                  <angle>
                    <activevideoangle>false</activevideoangle>
                    <activeaudioangle>false</activeaudioangle>
                    <clip id="clip-6"/>
                  </angle>
                  <angle>
                    <activevideoangle>false</activevideoangle>
                    <activeaudioangle>false</activeaudioangle>
                    <clip id="clip-7"/>
                  </angle>
                  <masterclipid>clip-master</masterclipid>
                </multiclip>
              </clipitem>
              <clipitem id="cs-732">
                <duration>57</duration>
                <rate>
                  <ntsc>false</ntsc>
                  <timebase>25</timebase>
                </rate>
                <in>80074</in>
                <out>80130</out>
                <start>80074</start>
                <end>80130</end>
                <file id="src-2"/>
                <sourcetrack>
                  <mediatype>video</mediatype>
                  <trackindex>1</trackindex>
                </sourcetrack>
                <multiclip id="mcs-732">
                  <name>MCS-732</name>
                  <masterclipid>clip-master</masterclipid>
                  <collapsed>false</collapsed>
                  <angle>
                    <activevideoangle>false</activevideoangle>
                    <activeaudioangle>false</activeaudioangle>
                    <clip id="clip-1"/>
                  </angle>
                  <angle>
                    <activevideoangle>true</activevideoangle>
                    <activeaudioangle>true</activeaudioangle>
                    <clip id="clip-2"/>
                  </angle>
                  <angle>
                    <activevideoangle>false</activevideoangle>
                    <activeaudioangle>false</activeaudioangle>
                    <clip id="clip-3"/>
                  </angle>
                  <angle>
                    <activevideoangle>false</activevideoangle>
                    <activeaudioangle>false</activeaudioangle>
                    <clip id="clip-4"/>
                  </angle>
                  <angle>
                    <activevideoangle>false</activevideoangle>
                    <activeaudioangle>false</activeaudioangle>
                    <clip id="clip-5"/>
                  </angle>
                  <angle>
                    <activevideoangle>false</activevideoangle>
                    <activeaudioangle>false</activeaudioangle>
                    <clip id="clip-6"/>
                  </angle>
                  <angle>
                    <activevideoangle>false</activevideoangle>
                    <activeaudioangle>false</activeaudioangle>
                    <clip id="clip-7"/>
                  </angle>
                  <masterclipid>clip-master</masterclipid>
                </multiclip>
              </clipitem>
              <clipitem id="cs-733">
                <duration>48</duration>
                <rate>
                  <ntsc>false</ntsc>
                  <timebase>25</timebase>
                </rate>
                <in>80130</in>
                <out>80177</out>
                <start>80130</start>
                <end>80177</end>
                <file id="src-5"/>
                <sourcetrack>
                  <mediatype>video</mediatype>
                  <trackindex>1</trackindex>
                </sourcetrack>
                <multiclip id="mcs-733">
                  <name>MCS-733</name>
                  <masterclipid>clip-master</masterclipid>
                  <collapsed>false</collapsed>
                  <angle>
                    <activevideoangle>false</activevideoangle>
                    <activeaudioangle>false</activeaudioangle>
                    <clip id="clip-1"/>
                  </angle>
                  <angle>
                    <activevideoangle>false</activevideoangle>
                    <activeaudioangle>false</activeaudioangle>
                    <clip id="clip-2"/>
                  </angle>
                  <angle>
                    <activevideoangle>false</activevideoangle>
                    <activeaudioangle>false</activeaudioangle>
                    <clip id="clip-3"/>
                  </angle>
                  <angle>
                    <activevideoangle>false</activevideoangle>
                    <activeaudioangle>false</activeaudioangle>
                    <clip id="clip-4"/>
                  </angle>
                  <angle>
                    <activevideoangle>true</activevideoangle>
                    <activeaudioangle>true</activeaudioangle>
                    <clip id="clip-5"/>
                  </angle>
                  <angle>
                    <activevideoangle>false</activevideoangle>
                    <activeaudioangle>false</activeaudioangle>
                    <clip id="clip-6"/>
                  </angle>
                  <angle>
                    <activevideoangle>false</activevideoangle>
                    <activeaudioangle>false</activeaudioangle>
                    <clip id="clip-7"/>
                  </angle>
                  <masterclipid>clip-master</masterclipid>
                </multiclip>
              </clipitem>
              <clipitem id="cs-734">
                <duration>118</duration>
                <rate>
                  <ntsc>false</ntsc>
                  <timebase>25</timebase>
                </rate>
                <in>80177</in>
                <out>80294</out>
                <start>80177</start>
                <end>80294</end>
                <file id="src-4"/>
                <sourcetrack>
                  <mediatype>video</mediatype>
                  <trackindex>1</trackindex>
                </sourcetrack>
                <multiclip id="mcs-734">
                  <name>MCS-734</name>
                  <masterclipid>clip-master</masterclipid>
                  <collapsed>false</collapsed>
                  <angle>
                    <activevideoangle>false</activevideoangle>
                    <activeaudioangle>false</activeaudioangle>
                    <clip id="clip-1"/>
                  </angle>
                  <angle>
                    <activevideoangle>false</activevideoangle>
                    <activeaudioangle>false</activeaudioangle>
                    <clip id="clip-2"/>
                  </angle>
                  <angle>
                    <activevideoangle>false</activevideoangle>
                    <activeaudioangle>false</activeaudioangle>
                    <clip id="clip-3"/>
                  </angle>
                  <angle>
                    <activevideoangle>true</activevideoangle>
                    <activeaudioangle>true</activeaudioangle>
                    <clip id="clip-4"/>
                  </angle>
                  <angle>
                    <activevideoangle>false</activevideoangle>
                    <activeaudioangle>false</activeaudioangle>
                    <clip id="clip-5"/>
                  </angle>
                  <angle>
                    <activevideoangle>false</activevideoangle>
                    <activeaudioangle>false</activeaudioangle>
                    <clip id="clip-6"/>
                  </angle>
                  <angle>
                    <activevideoangle>false</activevideoangle>
                    <activeaudioangle>false</activeaudioangle>
                    <clip id="clip-7"/>
                  </angle>
                  <masterclipid>clip-master</masterclipid>
                </multiclip>
              </clipitem>
              <clipitem id="cs-735">
                <duration>51</duration>
                <rate>
                  <ntsc>false</ntsc>
                  <timebase>25</timebase>
                </rate>
                <in>80294</in>
                <out>80344</out>
                <start>80294</start>
                <end>80344</end>
                <file id="src-2"/>
                <sourcetrack>
                  <mediatype>video</mediatype>
                  <trackindex>1</trackindex>
                </sourcetrack>
                <multiclip id="mcs-735">
                  <name>MCS-735</name>
                  <masterclipid>clip-master</masterclipid>
                  <collapsed>false</collapsed>
                  <angle>
                    <activevideoangle>false</activevideoangle>
                    <activeaudioangle>false</activeaudioangle>
                    <clip id="clip-1"/>
                  </angle>
                  <angle>
                    <activevideoangle>true</activevideoangle>
                    <activeaudioangle>true</activeaudioangle>
                    <clip id="clip-2"/>
                  </angle>
                  <angle>
                    <activevideoangle>false</activevideoangle>
                    <activeaudioangle>false</activeaudioangle>
                    <clip id="clip-3"/>
                  </angle>
                  <angle>
                    <activevideoangle>false</activevideoangle>
                    <activeaudioangle>false</activeaudioangle>
                    <clip id="clip-4"/>
                  </angle>
                  <angle>
                    <activevideoangle>false</activevideoangle>
                    <activeaudioangle>false</activeaudioangle>
                    <clip id="clip-5"/>
                  </angle>
                  <angle>
                    <activevideoangle>false</activevideoangle>
                    <activeaudioangle>false</activeaudioangle>
                    <clip id="clip-6"/>
                  </angle>
                  <angle>
                    <activevideoangle>false</activevideoangle>
                    <activeaudioangle>false</activeaudioangle>
                    <clip id="clip-7"/>
                  </angle>
                  <masterclipid>clip-master</masterclipid>
                </multiclip>
              </clipitem>
              <clipitem id="cs-736">
                <duration>108</duration>
                <rate>
                  <ntsc>false</ntsc>
                  <timebase>25</timebase>
                </rate>
                <in>80344</in>
                <out>80451</out>
                <start>80344</start>
                <end>80451</end>
                <file id="src-3"/>
                <sourcetrack>
                  <mediatype>video</mediatype>
                  <trackindex>1</trackindex>
                </sourcetrack>
                <multiclip id="mcs-736">
                  <name>MCS-736</name>
                  <masterclipid>clip-master</masterclipid>
                  <collapsed>false</collapsed>
                  <angle>
                    <activevideoangle>false</activevideoangle>
                    <activeaudioangle>false</activeaudioangle>
                    <clip id="clip-1"/>
                  </angle>
                  <angle>
                    <activevideoangle>false</activevideoangle>
                    <activeaudioangle>false</activeaudioangle>
                    <clip id="clip-2"/>
                  </angle>
                  <angle>
                    <activevideoangle>true</activevideoangle>
                    <activeaudioangle>true</activeaudioangle>
                    <clip id="clip-3"/>
                  </angle>
                  <angle>
                    <activevideoangle>false</activevideoangle>
                    <activeaudioangle>false</activeaudioangle>
                    <clip id="clip-4"/>
                  </angle>
                  <angle>
                    <activevideoangle>false</activevideoangle>
                    <activeaudioangle>false</activeaudioangle>
                    <clip id="clip-5"/>
                  </angle>
                  <angle>
                    <activevideoangle>false</activevideoangle>
                    <activeaudioangle>false</activeaudioangle>
                    <clip id="clip-6"/>
                  </angle>
                  <angle>
                    <activevideoangle>false</activevideoangle>
                    <activeaudioangle>false</activeaudioangle>
                    <clip id="clip-7"/>
                  </angle>
                  <masterclipid>clip-master</masterclipid>
                </multiclip>
              </clipitem>
              <clipitem id="cs-737">
                <duration>45</duration>
                <rate>
                  <ntsc>false</ntsc>
                  <timebase>25</timebase>
                </rate>
                <in>80451</in>
                <out>80495</out>
                <start>80451</start>
                <end>80495</end>
                <file id="src-2"/>
                <sourcetrack>
                  <mediatype>video</mediatype>
                  <trackindex>1</trackindex>
                </sourcetrack>
                <multiclip id="mcs-737">
                  <name>MCS-737</name>
                  <masterclipid>clip-master</masterclipid>
                  <collapsed>false</collapsed>
                  <angle>
                    <activevideoangle>false</activevideoangle>
                    <activeaudioangle>false</activeaudioangle>
                    <clip id="clip-1"/>
                  </angle>
                  <angle>
                    <activevideoangle>true</activevideoangle>
                    <activeaudioangle>true</activeaudioangle>
                    <clip id="clip-2"/>
                  </angle>
                  <angle>
                    <activevideoangle>false</activevideoangle>
                    <activeaudioangle>false</activeaudioangle>
                    <clip id="clip-3"/>
                  </angle>
                  <angle>
                    <activevideoangle>false</activevideoangle>
                    <activeaudioangle>false</activeaudioangle>
                    <clip id="clip-4"/>
                  </angle>
                  <angle>
                    <activevideoangle>false</activevideoangle>
                    <activeaudioangle>false</activeaudioangle>
                    <clip id="clip-5"/>
                  </angle>
                  <angle>
                    <activevideoangle>false</activevideoangle>
                    <activeaudioangle>false</activeaudioangle>
                    <clip id="clip-6"/>
                  </angle>
                  <angle>
                    <activevideoangle>false</activevideoangle>
                    <activeaudioangle>false</activeaudioangle>
                    <clip id="clip-7"/>
                  </angle>
                  <masterclipid>clip-master</masterclipid>
                </multiclip>
              </clipitem>
              <clipitem id="cs-738">
                <duration>57</duration>
                <rate>
                  <ntsc>false</ntsc>
                  <timebase>25</timebase>
                </rate>
                <in>80495</in>
                <out>80551</out>
                <start>80495</start>
                <end>80551</end>
                <file id="src-1"/>
                <sourcetrack>
                  <mediatype>video</mediatype>
                  <trackindex>1</trackindex>
                </sourcetrack>
                <multiclip id="mcs-738">
                  <name>MCS-738</name>
                  <masterclipid>clip-master</masterclipid>
                  <collapsed>false</collapsed>
                  <angle>
                    <activevideoangle>true</activevideoangle>
                    <activeaudioangle>true</activeaudioangle>
                    <clip id="clip-1"/>
                  </angle>
                  <angle>
                    <activevideoangle>false</activevideoangle>
                    <activeaudioangle>false</activeaudioangle>
                    <clip id="clip-2"/>
                  </angle>
                  <angle>
                    <activevideoangle>false</activevideoangle>
                    <activeaudioangle>false</activeaudioangle>
                    <clip id="clip-3"/>
                  </angle>
                  <angle>
                    <activevideoangle>false</activevideoangle>
                    <activeaudioangle>false</activeaudioangle>
                    <clip id="clip-4"/>
                  </angle>
                  <angle>
                    <activevideoangle>false</activevideoangle>
                    <activeaudioangle>false</activeaudioangle>
                    <clip id="clip-5"/>
                  </angle>
                  <angle>
                    <activevideoangle>false</activevideoangle>
                    <activeaudioangle>false</activeaudioangle>
                    <clip id="clip-6"/>
                  </angle>
                  <angle>
                    <activevideoangle>false</activevideoangle>
                    <activeaudioangle>false</activeaudioangle>
                    <clip id="clip-7"/>
                  </angle>
                  <masterclipid>clip-master</masterclipid>
                </multiclip>
              </clipitem>
              <clipitem id="cs-739">
                <duration>52</duration>
                <rate>
                  <ntsc>false</ntsc>
                  <timebase>25</timebase>
                </rate>
                <in>80551</in>
                <out>80602</out>
                <start>80551</start>
                <end>80602</end>
                <file id="src-3"/>
                <sourcetrack>
                  <mediatype>video</mediatype>
                  <trackindex>1</trackindex>
                </sourcetrack>
                <multiclip id="mcs-739">
                  <name>MCS-739</name>
                  <masterclipid>clip-master</masterclipid>
                  <collapsed>false</collapsed>
                  <angle>
                    <activevideoangle>false</activevideoangle>
                    <activeaudioangle>false</activeaudioangle>
                    <clip id="clip-1"/>
                  </angle>
                  <angle>
                    <activevideoangle>false</activevideoangle>
                    <activeaudioangle>false</activeaudioangle>
                    <clip id="clip-2"/>
                  </angle>
                  <angle>
                    <activevideoangle>true</activevideoangle>
                    <activeaudioangle>true</activeaudioangle>
                    <clip id="clip-3"/>
                  </angle>
                  <angle>
                    <activevideoangle>false</activevideoangle>
                    <activeaudioangle>false</activeaudioangle>
                    <clip id="clip-4"/>
                  </angle>
                  <angle>
                    <activevideoangle>false</activevideoangle>
                    <activeaudioangle>false</activeaudioangle>
                    <clip id="clip-5"/>
                  </angle>
                  <angle>
                    <activevideoangle>false</activevideoangle>
                    <activeaudioangle>false</activeaudioangle>
                    <clip id="clip-6"/>
                  </angle>
                  <angle>
                    <activevideoangle>false</activevideoangle>
                    <activeaudioangle>false</activeaudioangle>
                    <clip id="clip-7"/>
                  </angle>
                  <masterclipid>clip-master</masterclipid>
                </multiclip>
              </clipitem>
              <clipitem id="cs-740">
                <duration>104</duration>
                <rate>
                  <ntsc>false</ntsc>
                  <timebase>25</timebase>
                </rate>
                <in>80602</in>
                <out>80705</out>
                <start>80602</start>
                <end>80705</end>
                <file id="src-2"/>
                <sourcetrack>
                  <mediatype>video</mediatype>
                  <trackindex>1</trackindex>
                </sourcetrack>
                <multiclip id="mcs-740">
                  <name>MCS-740</name>
                  <masterclipid>clip-master</masterclipid>
                  <collapsed>false</collapsed>
                  <angle>
                    <activevideoangle>false</activevideoangle>
                    <activeaudioangle>false</activeaudioangle>
                    <clip id="clip-1"/>
                  </angle>
                  <angle>
                    <activevideoangle>true</activevideoangle>
                    <activeaudioangle>true</activeaudioangle>
                    <clip id="clip-2"/>
                  </angle>
                  <angle>
                    <activevideoangle>false</activevideoangle>
                    <activeaudioangle>false</activeaudioangle>
                    <clip id="clip-3"/>
                  </angle>
                  <angle>
                    <activevideoangle>false</activevideoangle>
                    <activeaudioangle>false</activeaudioangle>
                    <clip id="clip-4"/>
                  </angle>
                  <angle>
                    <activevideoangle>false</activevideoangle>
                    <activeaudioangle>false</activeaudioangle>
                    <clip id="clip-5"/>
                  </angle>
                  <angle>
                    <activevideoangle>false</activevideoangle>
                    <activeaudioangle>false</activeaudioangle>
                    <clip id="clip-6"/>
                  </angle>
                  <angle>
                    <activevideoangle>false</activevideoangle>
                    <activeaudioangle>false</activeaudioangle>
                    <clip id="clip-7"/>
                  </angle>
                  <masterclipid>clip-master</masterclipid>
                </multiclip>
              </clipitem>
              <clipitem id="cs-741">
                <duration>90</duration>
                <rate>
                  <ntsc>false</ntsc>
                  <timebase>25</timebase>
                </rate>
                <in>80705</in>
                <out>80794</out>
                <start>80705</start>
                <end>80794</end>
                <file id="src-3"/>
                <sourcetrack>
                  <mediatype>video</mediatype>
                  <trackindex>1</trackindex>
                </sourcetrack>
                <multiclip id="mcs-741">
                  <name>MCS-741</name>
                  <masterclipid>clip-master</masterclipid>
                  <collapsed>false</collapsed>
                  <angle>
                    <activevideoangle>false</activevideoangle>
                    <activeaudioangle>false</activeaudioangle>
                    <clip id="clip-1"/>
                  </angle>
                  <angle>
                    <activevideoangle>false</activevideoangle>
                    <activeaudioangle>false</activeaudioangle>
                    <clip id="clip-2"/>
                  </angle>
                  <angle>
                    <activevideoangle>true</activevideoangle>
                    <activeaudioangle>true</activeaudioangle>
                    <clip id="clip-3"/>
                  </angle>
                  <angle>
                    <activevideoangle>false</activevideoangle>
                    <activeaudioangle>false</activeaudioangle>
                    <clip id="clip-4"/>
                  </angle>
                  <angle>
                    <activevideoangle>false</activevideoangle>
                    <activeaudioangle>false</activeaudioangle>
                    <clip id="clip-5"/>
                  </angle>
                  <angle>
                    <activevideoangle>false</activevideoangle>
                    <activeaudioangle>false</activeaudioangle>
                    <clip id="clip-6"/>
                  </angle>
                  <angle>
                    <activevideoangle>false</activevideoangle>
                    <activeaudioangle>false</activeaudioangle>
                    <clip id="clip-7"/>
                  </angle>
                  <masterclipid>clip-master</masterclipid>
                </multiclip>
              </clipitem>
              <clipitem id="cs-742">
                <duration>83</duration>
                <rate>
                  <ntsc>false</ntsc>
                  <timebase>25</timebase>
                </rate>
                <in>80794</in>
                <out>80876</out>
                <start>80794</start>
                <end>80876</end>
                <file id="src-4"/>
                <sourcetrack>
                  <mediatype>video</mediatype>
                  <trackindex>1</trackindex>
                </sourcetrack>
                <multiclip id="mcs-742">
                  <name>MCS-742</name>
                  <masterclipid>clip-master</masterclipid>
                  <collapsed>false</collapsed>
                  <angle>
                    <activevideoangle>false</activevideoangle>
                    <activeaudioangle>false</activeaudioangle>
                    <clip id="clip-1"/>
                  </angle>
                  <angle>
                    <activevideoangle>false</activevideoangle>
                    <activeaudioangle>false</activeaudioangle>
                    <clip id="clip-2"/>
                  </angle>
                  <angle>
                    <activevideoangle>false</activevideoangle>
                    <activeaudioangle>false</activeaudioangle>
                    <clip id="clip-3"/>
                  </angle>
                  <angle>
                    <activevideoangle>true</activevideoangle>
                    <activeaudioangle>true</activeaudioangle>
                    <clip id="clip-4"/>
                  </angle>
                  <angle>
                    <activevideoangle>false</activevideoangle>
                    <activeaudioangle>false</activeaudioangle>
                    <clip id="clip-5"/>
                  </angle>
                  <angle>
                    <activevideoangle>false</activevideoangle>
                    <activeaudioangle>false</activeaudioangle>
                    <clip id="clip-6"/>
                  </angle>
                  <angle>
                    <activevideoangle>false</activevideoangle>
                    <activeaudioangle>false</activeaudioangle>
                    <clip id="clip-7"/>
                  </angle>
                  <masterclipid>clip-master</masterclipid>
                </multiclip>
              </clipitem>
              <clipitem id="cs-743">
                <duration>67</duration>
                <rate>
                  <ntsc>false</ntsc>
                  <timebase>25</timebase>
                </rate>
                <in>80876</in>
                <out>80942</out>
                <start>80876</start>
                <end>80942</end>
                <file id="src-2"/>
                <sourcetrack>
                  <mediatype>video</mediatype>
                  <trackindex>1</trackindex>
                </sourcetrack>
                <multiclip id="mcs-743">
                  <name>MCS-743</name>
                  <masterclipid>clip-master</masterclipid>
                  <collapsed>false</collapsed>
                  <angle>
                    <activevideoangle>false</activevideoangle>
                    <activeaudioangle>false</activeaudioangle>
                    <clip id="clip-1"/>
                  </angle>
                  <angle>
                    <activevideoangle>true</activevideoangle>
                    <activeaudioangle>true</activeaudioangle>
                    <clip id="clip-2"/>
                  </angle>
                  <angle>
                    <activevideoangle>false</activevideoangle>
                    <activeaudioangle>false</activeaudioangle>
                    <clip id="clip-3"/>
                  </angle>
                  <angle>
                    <activevideoangle>false</activevideoangle>
                    <activeaudioangle>false</activeaudioangle>
                    <clip id="clip-4"/>
                  </angle>
                  <angle>
                    <activevideoangle>false</activevideoangle>
                    <activeaudioangle>false</activeaudioangle>
                    <clip id="clip-5"/>
                  </angle>
                  <angle>
                    <activevideoangle>false</activevideoangle>
                    <activeaudioangle>false</activeaudioangle>
                    <clip id="clip-6"/>
                  </angle>
                  <angle>
                    <activevideoangle>false</activevideoangle>
                    <activeaudioangle>false</activeaudioangle>
                    <clip id="clip-7"/>
                  </angle>
                  <masterclipid>clip-master</masterclipid>
                </multiclip>
              </clipitem>
              <clipitem id="cs-744">
                <duration>121</duration>
                <rate>
                  <ntsc>false</ntsc>
                  <timebase>25</timebase>
                </rate>
                <in>80942</in>
                <out>81062</out>
                <start>80942</start>
                <end>81062</end>
                <file id="src-3"/>
                <sourcetrack>
                  <mediatype>video</mediatype>
                  <trackindex>1</trackindex>
                </sourcetrack>
                <multiclip id="mcs-744">
                  <name>MCS-744</name>
                  <masterclipid>clip-master</masterclipid>
                  <collapsed>false</collapsed>
                  <angle>
                    <activevideoangle>false</activevideoangle>
                    <activeaudioangle>false</activeaudioangle>
                    <clip id="clip-1"/>
                  </angle>
                  <angle>
                    <activevideoangle>false</activevideoangle>
                    <activeaudioangle>false</activeaudioangle>
                    <clip id="clip-2"/>
                  </angle>
                  <angle>
                    <activevideoangle>true</activevideoangle>
                    <activeaudioangle>true</activeaudioangle>
                    <clip id="clip-3"/>
                  </angle>
                  <angle>
                    <activevideoangle>false</activevideoangle>
                    <activeaudioangle>false</activeaudioangle>
                    <clip id="clip-4"/>
                  </angle>
                  <angle>
                    <activevideoangle>false</activevideoangle>
                    <activeaudioangle>false</activeaudioangle>
                    <clip id="clip-5"/>
                  </angle>
                  <angle>
                    <activevideoangle>false</activevideoangle>
                    <activeaudioangle>false</activeaudioangle>
                    <clip id="clip-6"/>
                  </angle>
                  <angle>
                    <activevideoangle>false</activevideoangle>
                    <activeaudioangle>false</activeaudioangle>
                    <clip id="clip-7"/>
                  </angle>
                  <masterclipid>clip-master</masterclipid>
                </multiclip>
              </clipitem>
              <clipitem id="cs-745">
                <duration>159</duration>
                <rate>
                  <ntsc>false</ntsc>
                  <timebase>25</timebase>
                </rate>
                <in>81062</in>
                <out>81220</out>
                <start>81062</start>
                <end>81220</end>
                <file id="src-5"/>
                <sourcetrack>
                  <mediatype>video</mediatype>
                  <trackindex>1</trackindex>
                </sourcetrack>
                <multiclip id="mcs-745">
                  <name>MCS-745</name>
                  <masterclipid>clip-master</masterclipid>
                  <collapsed>false</collapsed>
                  <angle>
                    <activevideoangle>false</activevideoangle>
                    <activeaudioangle>false</activeaudioangle>
                    <clip id="clip-1"/>
                  </angle>
                  <angle>
                    <activevideoangle>false</activevideoangle>
                    <activeaudioangle>false</activeaudioangle>
                    <clip id="clip-2"/>
                  </angle>
                  <angle>
                    <activevideoangle>false</activevideoangle>
                    <activeaudioangle>false</activeaudioangle>
                    <clip id="clip-3"/>
                  </angle>
                  <angle>
                    <activevideoangle>false</activevideoangle>
                    <activeaudioangle>false</activeaudioangle>
                    <clip id="clip-4"/>
                  </angle>
                  <angle>
                    <activevideoangle>true</activevideoangle>
                    <activeaudioangle>true</activeaudioangle>
                    <clip id="clip-5"/>
                  </angle>
                  <angle>
                    <activevideoangle>false</activevideoangle>
                    <activeaudioangle>false</activeaudioangle>
                    <clip id="clip-6"/>
                  </angle>
                  <angle>
                    <activevideoangle>false</activevideoangle>
                    <activeaudioangle>false</activeaudioangle>
                    <clip id="clip-7"/>
                  </angle>
                  <masterclipid>clip-master</masterclipid>
                </multiclip>
              </clipitem>
              <clipitem id="cs-746">
                <duration>70</duration>
                <rate>
                  <ntsc>false</ntsc>
                  <timebase>25</timebase>
                </rate>
                <in>81220</in>
                <out>81289</out>
                <start>81220</start>
                <end>81289</end>
                <file id="src-4"/>
                <sourcetrack>
                  <mediatype>video</mediatype>
                  <trackindex>1</trackindex>
                </sourcetrack>
                <multiclip id="mcs-746">
                  <name>MCS-746</name>
                  <masterclipid>clip-master</masterclipid>
                  <collapsed>false</collapsed>
                  <angle>
                    <activevideoangle>false</activevideoangle>
                    <activeaudioangle>false</activeaudioangle>
                    <clip id="clip-1"/>
                  </angle>
                  <angle>
                    <activevideoangle>false</activevideoangle>
                    <activeaudioangle>false</activeaudioangle>
                    <clip id="clip-2"/>
                  </angle>
                  <angle>
                    <activevideoangle>false</activevideoangle>
                    <activeaudioangle>false</activeaudioangle>
                    <clip id="clip-3"/>
                  </angle>
                  <angle>
                    <activevideoangle>true</activevideoangle>
                    <activeaudioangle>true</activeaudioangle>
                    <clip id="clip-4"/>
                  </angle>
                  <angle>
                    <activevideoangle>false</activevideoangle>
                    <activeaudioangle>false</activeaudioangle>
                    <clip id="clip-5"/>
                  </angle>
                  <angle>
                    <activevideoangle>false</activevideoangle>
                    <activeaudioangle>false</activeaudioangle>
                    <clip id="clip-6"/>
                  </angle>
                  <angle>
                    <activevideoangle>false</activevideoangle>
                    <activeaudioangle>false</activeaudioangle>
                    <clip id="clip-7"/>
                  </angle>
                  <masterclipid>clip-master</masterclipid>
                </multiclip>
              </clipitem>
              <clipitem id="cs-747">
                <duration>57</duration>
                <rate>
                  <ntsc>false</ntsc>
                  <timebase>25</timebase>
                </rate>
                <in>81289</in>
                <out>81345</out>
                <start>81289</start>
                <end>81345</end>
                <file id="src-3"/>
                <sourcetrack>
                  <mediatype>video</mediatype>
                  <trackindex>1</trackindex>
                </sourcetrack>
                <multiclip id="mcs-747">
                  <name>MCS-747</name>
                  <masterclipid>clip-master</masterclipid>
                  <collapsed>false</collapsed>
                  <angle>
                    <activevideoangle>false</activevideoangle>
                    <activeaudioangle>false</activeaudioangle>
                    <clip id="clip-1"/>
                  </angle>
                  <angle>
                    <activevideoangle>false</activevideoangle>
                    <activeaudioangle>false</activeaudioangle>
                    <clip id="clip-2"/>
                  </angle>
                  <angle>
                    <activevideoangle>true</activevideoangle>
                    <activeaudioangle>true</activeaudioangle>
                    <clip id="clip-3"/>
                  </angle>
                  <angle>
                    <activevideoangle>false</activevideoangle>
                    <activeaudioangle>false</activeaudioangle>
                    <clip id="clip-4"/>
                  </angle>
                  <angle>
                    <activevideoangle>false</activevideoangle>
                    <activeaudioangle>false</activeaudioangle>
                    <clip id="clip-5"/>
                  </angle>
                  <angle>
                    <activevideoangle>false</activevideoangle>
                    <activeaudioangle>false</activeaudioangle>
                    <clip id="clip-6"/>
                  </angle>
                  <angle>
                    <activevideoangle>false</activevideoangle>
                    <activeaudioangle>false</activeaudioangle>
                    <clip id="clip-7"/>
                  </angle>
                  <masterclipid>clip-master</masterclipid>
                </multiclip>
              </clipitem>
              <clipitem id="cs-748">
                <duration>65</duration>
                <rate>
                  <ntsc>false</ntsc>
                  <timebase>25</timebase>
                </rate>
                <in>81345</in>
                <out>81409</out>
                <start>81345</start>
                <end>81409</end>
                <file id="src-2"/>
                <sourcetrack>
                  <mediatype>video</mediatype>
                  <trackindex>1</trackindex>
                </sourcetrack>
                <multiclip id="mcs-748">
                  <name>MCS-748</name>
                  <masterclipid>clip-master</masterclipid>
                  <collapsed>false</collapsed>
                  <angle>
                    <activevideoangle>false</activevideoangle>
                    <activeaudioangle>false</activeaudioangle>
                    <clip id="clip-1"/>
                  </angle>
                  <angle>
                    <activevideoangle>true</activevideoangle>
                    <activeaudioangle>true</activeaudioangle>
                    <clip id="clip-2"/>
                  </angle>
                  <angle>
                    <activevideoangle>false</activevideoangle>
                    <activeaudioangle>false</activeaudioangle>
                    <clip id="clip-3"/>
                  </angle>
                  <angle>
                    <activevideoangle>false</activevideoangle>
                    <activeaudioangle>false</activeaudioangle>
                    <clip id="clip-4"/>
                  </angle>
                  <angle>
                    <activevideoangle>false</activevideoangle>
                    <activeaudioangle>false</activeaudioangle>
                    <clip id="clip-5"/>
                  </angle>
                  <angle>
                    <activevideoangle>false</activevideoangle>
                    <activeaudioangle>false</activeaudioangle>
                    <clip id="clip-6"/>
                  </angle>
                  <angle>
                    <activevideoangle>false</activevideoangle>
                    <activeaudioangle>false</activeaudioangle>
                    <clip id="clip-7"/>
                  </angle>
                  <masterclipid>clip-master</masterclipid>
                </multiclip>
              </clipitem>
              <clipitem id="cs-749">
                <duration>63</duration>
                <rate>
                  <ntsc>false</ntsc>
                  <timebase>25</timebase>
                </rate>
                <in>81409</in>
                <out>81471</out>
                <start>81409</start>
                <end>81471</end>
                <file id="src-4"/>
                <sourcetrack>
                  <mediatype>video</mediatype>
                  <trackindex>1</trackindex>
                </sourcetrack>
                <multiclip id="mcs-749">
                  <name>MCS-749</name>
                  <masterclipid>clip-master</masterclipid>
                  <collapsed>false</collapsed>
                  <angle>
                    <activevideoangle>false</activevideoangle>
                    <activeaudioangle>false</activeaudioangle>
                    <clip id="clip-1"/>
                  </angle>
                  <angle>
                    <activevideoangle>false</activevideoangle>
                    <activeaudioangle>false</activeaudioangle>
                    <clip id="clip-2"/>
                  </angle>
                  <angle>
                    <activevideoangle>false</activevideoangle>
                    <activeaudioangle>false</activeaudioangle>
                    <clip id="clip-3"/>
                  </angle>
                  <angle>
                    <activevideoangle>true</activevideoangle>
                    <activeaudioangle>true</activeaudioangle>
                    <clip id="clip-4"/>
                  </angle>
                  <angle>
                    <activevideoangle>false</activevideoangle>
                    <activeaudioangle>false</activeaudioangle>
                    <clip id="clip-5"/>
                  </angle>
                  <angle>
                    <activevideoangle>false</activevideoangle>
                    <activeaudioangle>false</activeaudioangle>
                    <clip id="clip-6"/>
                  </angle>
                  <angle>
                    <activevideoangle>false</activevideoangle>
                    <activeaudioangle>false</activeaudioangle>
                    <clip id="clip-7"/>
                  </angle>
                  <masterclipid>clip-master</masterclipid>
                </multiclip>
              </clipitem>
              <clipitem id="cs-750">
                <duration>55</duration>
                <rate>
                  <ntsc>false</ntsc>
                  <timebase>25</timebase>
                </rate>
                <in>81471</in>
                <out>81525</out>
                <start>81471</start>
                <end>81525</end>
                <file id="src-3"/>
                <sourcetrack>
                  <mediatype>video</mediatype>
                  <trackindex>1</trackindex>
                </sourcetrack>
                <multiclip id="mcs-750">
                  <name>MCS-750</name>
                  <masterclipid>clip-master</masterclipid>
                  <collapsed>false</collapsed>
                  <angle>
                    <activevideoangle>false</activevideoangle>
                    <activeaudioangle>false</activeaudioangle>
                    <clip id="clip-1"/>
                  </angle>
                  <angle>
                    <activevideoangle>false</activevideoangle>
                    <activeaudioangle>false</activeaudioangle>
                    <clip id="clip-2"/>
                  </angle>
                  <angle>
                    <activevideoangle>true</activevideoangle>
                    <activeaudioangle>true</activeaudioangle>
                    <clip id="clip-3"/>
                  </angle>
                  <angle>
                    <activevideoangle>false</activevideoangle>
                    <activeaudioangle>false</activeaudioangle>
                    <clip id="clip-4"/>
                  </angle>
                  <angle>
                    <activevideoangle>false</activevideoangle>
                    <activeaudioangle>false</activeaudioangle>
                    <clip id="clip-5"/>
                  </angle>
                  <angle>
                    <activevideoangle>false</activevideoangle>
                    <activeaudioangle>false</activeaudioangle>
                    <clip id="clip-6"/>
                  </angle>
                  <angle>
                    <activevideoangle>false</activevideoangle>
                    <activeaudioangle>false</activeaudioangle>
                    <clip id="clip-7"/>
                  </angle>
                  <masterclipid>clip-master</masterclipid>
                </multiclip>
              </clipitem>
              <clipitem id="cs-751">
                <duration>87</duration>
                <rate>
                  <ntsc>false</ntsc>
                  <timebase>25</timebase>
                </rate>
                <in>81525</in>
                <out>81611</out>
                <start>81525</start>
                <end>81611</end>
                <file id="src-2"/>
                <sourcetrack>
                  <mediatype>video</mediatype>
                  <trackindex>1</trackindex>
                </sourcetrack>
                <multiclip id="mcs-751">
                  <name>MCS-751</name>
                  <masterclipid>clip-master</masterclipid>
                  <collapsed>false</collapsed>
                  <angle>
                    <activevideoangle>false</activevideoangle>
                    <activeaudioangle>false</activeaudioangle>
                    <clip id="clip-1"/>
                  </angle>
                  <angle>
                    <activevideoangle>true</activevideoangle>
                    <activeaudioangle>true</activeaudioangle>
                    <clip id="clip-2"/>
                  </angle>
                  <angle>
                    <activevideoangle>false</activevideoangle>
                    <activeaudioangle>false</activeaudioangle>
                    <clip id="clip-3"/>
                  </angle>
                  <angle>
                    <activevideoangle>false</activevideoangle>
                    <activeaudioangle>false</activeaudioangle>
                    <clip id="clip-4"/>
                  </angle>
                  <angle>
                    <activevideoangle>false</activevideoangle>
                    <activeaudioangle>false</activeaudioangle>
                    <clip id="clip-5"/>
                  </angle>
                  <angle>
                    <activevideoangle>false</activevideoangle>
                    <activeaudioangle>false</activeaudioangle>
                    <clip id="clip-6"/>
                  </angle>
                  <angle>
                    <activevideoangle>false</activevideoangle>
                    <activeaudioangle>false</activeaudioangle>
                    <clip id="clip-7"/>
                  </angle>
                  <masterclipid>clip-master</masterclipid>
                </multiclip>
              </clipitem>
              <clipitem id="cs-752">
                <duration>119</duration>
                <rate>
                  <ntsc>false</ntsc>
                  <timebase>25</timebase>
                </rate>
                <in>81611</in>
                <out>81729</out>
                <start>81611</start>
                <end>81729</end>
                <file id="src-4"/>
                <sourcetrack>
                  <mediatype>video</mediatype>
                  <trackindex>1</trackindex>
                </sourcetrack>
                <multiclip id="mcs-752">
                  <name>MCS-752</name>
                  <masterclipid>clip-master</masterclipid>
                  <collapsed>false</collapsed>
                  <angle>
                    <activevideoangle>false</activevideoangle>
                    <activeaudioangle>false</activeaudioangle>
                    <clip id="clip-1"/>
                  </angle>
                  <angle>
                    <activevideoangle>false</activevideoangle>
                    <activeaudioangle>false</activeaudioangle>
                    <clip id="clip-2"/>
                  </angle>
                  <angle>
                    <activevideoangle>false</activevideoangle>
                    <activeaudioangle>false</activeaudioangle>
                    <clip id="clip-3"/>
                  </angle>
                  <angle>
                    <activevideoangle>true</activevideoangle>
                    <activeaudioangle>true</activeaudioangle>
                    <clip id="clip-4"/>
                  </angle>
                  <angle>
                    <activevideoangle>false</activevideoangle>
                    <activeaudioangle>false</activeaudioangle>
                    <clip id="clip-5"/>
                  </angle>
                  <angle>
                    <activevideoangle>false</activevideoangle>
                    <activeaudioangle>false</activeaudioangle>
                    <clip id="clip-6"/>
                  </angle>
                  <angle>
                    <activevideoangle>false</activevideoangle>
                    <activeaudioangle>false</activeaudioangle>
                    <clip id="clip-7"/>
                  </angle>
                  <masterclipid>clip-master</masterclipid>
                </multiclip>
              </clipitem>
              <clipitem id="cs-753">
                <duration>94</duration>
                <rate>
                  <ntsc>false</ntsc>
                  <timebase>25</timebase>
                </rate>
                <in>81729</in>
                <out>81822</out>
                <start>81729</start>
                <end>81822</end>
                <file id="src-2"/>
                <sourcetrack>
                  <mediatype>video</mediatype>
                  <trackindex>1</trackindex>
                </sourcetrack>
                <multiclip id="mcs-753">
                  <name>MCS-753</name>
                  <masterclipid>clip-master</masterclipid>
                  <collapsed>false</collapsed>
                  <angle>
                    <activevideoangle>false</activevideoangle>
                    <activeaudioangle>false</activeaudioangle>
                    <clip id="clip-1"/>
                  </angle>
                  <angle>
                    <activevideoangle>true</activevideoangle>
                    <activeaudioangle>true</activeaudioangle>
                    <clip id="clip-2"/>
                  </angle>
                  <angle>
                    <activevideoangle>false</activevideoangle>
                    <activeaudioangle>false</activeaudioangle>
                    <clip id="clip-3"/>
                  </angle>
                  <angle>
                    <activevideoangle>false</activevideoangle>
                    <activeaudioangle>false</activeaudioangle>
                    <clip id="clip-4"/>
                  </angle>
                  <angle>
                    <activevideoangle>false</activevideoangle>
                    <activeaudioangle>false</activeaudioangle>
                    <clip id="clip-5"/>
                  </angle>
                  <angle>
                    <activevideoangle>false</activevideoangle>
                    <activeaudioangle>false</activeaudioangle>
                    <clip id="clip-6"/>
                  </angle>
                  <angle>
                    <activevideoangle>false</activevideoangle>
                    <activeaudioangle>false</activeaudioangle>
                    <clip id="clip-7"/>
                  </angle>
                  <masterclipid>clip-master</masterclipid>
                </multiclip>
              </clipitem>
              <clipitem id="cs-754">
                <duration>74</duration>
                <rate>
                  <ntsc>false</ntsc>
                  <timebase>25</timebase>
                </rate>
                <in>81822</in>
                <out>81895</out>
                <start>81822</start>
                <end>81895</end>
                <file id="src-4"/>
                <sourcetrack>
                  <mediatype>video</mediatype>
                  <trackindex>1</trackindex>
                </sourcetrack>
                <multiclip id="mcs-754">
                  <name>MCS-754</name>
                  <masterclipid>clip-master</masterclipid>
                  <collapsed>false</collapsed>
                  <angle>
                    <activevideoangle>false</activevideoangle>
                    <activeaudioangle>false</activeaudioangle>
                    <clip id="clip-1"/>
                  </angle>
                  <angle>
                    <activevideoangle>false</activevideoangle>
                    <activeaudioangle>false</activeaudioangle>
                    <clip id="clip-2"/>
                  </angle>
                  <angle>
                    <activevideoangle>false</activevideoangle>
                    <activeaudioangle>false</activeaudioangle>
                    <clip id="clip-3"/>
                  </angle>
                  <angle>
                    <activevideoangle>true</activevideoangle>
                    <activeaudioangle>true</activeaudioangle>
                    <clip id="clip-4"/>
                  </angle>
                  <angle>
                    <activevideoangle>false</activevideoangle>
                    <activeaudioangle>false</activeaudioangle>
                    <clip id="clip-5"/>
                  </angle>
                  <angle>
                    <activevideoangle>false</activevideoangle>
                    <activeaudioangle>false</activeaudioangle>
                    <clip id="clip-6"/>
                  </angle>
                  <angle>
                    <activevideoangle>false</activevideoangle>
                    <activeaudioangle>false</activeaudioangle>
                    <clip id="clip-7"/>
                  </angle>
                  <masterclipid>clip-master</masterclipid>
                </multiclip>
              </clipitem>
              <clipitem id="cs-755">
                <duration>47</duration>
                <rate>
                  <ntsc>false</ntsc>
                  <timebase>25</timebase>
                </rate>
                <in>81895</in>
                <out>81941</out>
                <start>81895</start>
                <end>81941</end>
                <file id="src-3"/>
                <sourcetrack>
                  <mediatype>video</mediatype>
                  <trackindex>1</trackindex>
                </sourcetrack>
                <multiclip id="mcs-755">
                  <name>MCS-755</name>
                  <masterclipid>clip-master</masterclipid>
                  <collapsed>false</collapsed>
                  <angle>
                    <activevideoangle>false</activevideoangle>
                    <activeaudioangle>false</activeaudioangle>
                    <clip id="clip-1"/>
                  </angle>
                  <angle>
                    <activevideoangle>false</activevideoangle>
                    <activeaudioangle>false</activeaudioangle>
                    <clip id="clip-2"/>
                  </angle>
                  <angle>
                    <activevideoangle>true</activevideoangle>
                    <activeaudioangle>true</activeaudioangle>
                    <clip id="clip-3"/>
                  </angle>
                  <angle>
                    <activevideoangle>false</activevideoangle>
                    <activeaudioangle>false</activeaudioangle>
                    <clip id="clip-4"/>
                  </angle>
                  <angle>
                    <activevideoangle>false</activevideoangle>
                    <activeaudioangle>false</activeaudioangle>
                    <clip id="clip-5"/>
                  </angle>
                  <angle>
                    <activevideoangle>false</activevideoangle>
                    <activeaudioangle>false</activeaudioangle>
                    <clip id="clip-6"/>
                  </angle>
                  <angle>
                    <activevideoangle>false</activevideoangle>
                    <activeaudioangle>false</activeaudioangle>
                    <clip id="clip-7"/>
                  </angle>
                  <masterclipid>clip-master</masterclipid>
                </multiclip>
              </clipitem>
              <clipitem id="cs-756">
                <duration>81</duration>
                <rate>
                  <ntsc>false</ntsc>
                  <timebase>25</timebase>
                </rate>
                <in>81941</in>
                <out>82021</out>
                <start>81941</start>
                <end>82021</end>
                <file id="src-2"/>
                <sourcetrack>
                  <mediatype>video</mediatype>
                  <trackindex>1</trackindex>
                </sourcetrack>
                <multiclip id="mcs-756">
                  <name>MCS-756</name>
                  <masterclipid>clip-master</masterclipid>
                  <collapsed>false</collapsed>
                  <angle>
                    <activevideoangle>false</activevideoangle>
                    <activeaudioangle>false</activeaudioangle>
                    <clip id="clip-1"/>
                  </angle>
                  <angle>
                    <activevideoangle>true</activevideoangle>
                    <activeaudioangle>true</activeaudioangle>
                    <clip id="clip-2"/>
                  </angle>
                  <angle>
                    <activevideoangle>false</activevideoangle>
                    <activeaudioangle>false</activeaudioangle>
                    <clip id="clip-3"/>
                  </angle>
                  <angle>
                    <activevideoangle>false</activevideoangle>
                    <activeaudioangle>false</activeaudioangle>
                    <clip id="clip-4"/>
                  </angle>
                  <angle>
                    <activevideoangle>false</activevideoangle>
                    <activeaudioangle>false</activeaudioangle>
                    <clip id="clip-5"/>
                  </angle>
                  <angle>
                    <activevideoangle>false</activevideoangle>
                    <activeaudioangle>false</activeaudioangle>
                    <clip id="clip-6"/>
                  </angle>
                  <angle>
                    <activevideoangle>false</activevideoangle>
                    <activeaudioangle>false</activeaudioangle>
                    <clip id="clip-7"/>
                  </angle>
                  <masterclipid>clip-master</masterclipid>
                </multiclip>
              </clipitem>
              <clipitem id="cs-757">
                <duration>67</duration>
                <rate>
                  <ntsc>false</ntsc>
                  <timebase>25</timebase>
                </rate>
                <in>82021</in>
                <out>82087</out>
                <start>82021</start>
                <end>82087</end>
                <file id="src-6"/>
                <sourcetrack>
                  <mediatype>video</mediatype>
                  <trackindex>1</trackindex>
                </sourcetrack>
                <multiclip id="mcs-757">
                  <name>MCS-757</name>
                  <masterclipid>clip-master</masterclipid>
                  <collapsed>false</collapsed>
                  <angle>
                    <activevideoangle>false</activevideoangle>
                    <activeaudioangle>false</activeaudioangle>
                    <clip id="clip-1"/>
                  </angle>
                  <angle>
                    <activevideoangle>false</activevideoangle>
                    <activeaudioangle>false</activeaudioangle>
                    <clip id="clip-2"/>
                  </angle>
                  <angle>
                    <activevideoangle>false</activevideoangle>
                    <activeaudioangle>false</activeaudioangle>
                    <clip id="clip-3"/>
                  </angle>
                  <angle>
                    <activevideoangle>false</activevideoangle>
                    <activeaudioangle>false</activeaudioangle>
                    <clip id="clip-4"/>
                  </angle>
                  <angle>
                    <activevideoangle>false</activevideoangle>
                    <activeaudioangle>false</activeaudioangle>
                    <clip id="clip-5"/>
                  </angle>
                  <angle>
                    <activevideoangle>true</activevideoangle>
                    <activeaudioangle>true</activeaudioangle>
                    <clip id="clip-6"/>
                  </angle>
                  <angle>
                    <activevideoangle>false</activevideoangle>
                    <activeaudioangle>false</activeaudioangle>
                    <clip id="clip-7"/>
                  </angle>
                  <masterclipid>clip-master</masterclipid>
                </multiclip>
              </clipitem>
              <clipitem id="cs-758">
                <duration>67</duration>
                <rate>
                  <ntsc>false</ntsc>
                  <timebase>25</timebase>
                </rate>
                <in>82087</in>
                <out>82153</out>
                <start>82087</start>
                <end>82153</end>
                <file id="src-3"/>
                <sourcetrack>
                  <mediatype>video</mediatype>
                  <trackindex>1</trackindex>
                </sourcetrack>
                <multiclip id="mcs-758">
                  <name>MCS-758</name>
                  <masterclipid>clip-master</masterclipid>
                  <collapsed>false</collapsed>
                  <angle>
                    <activevideoangle>false</activevideoangle>
                    <activeaudioangle>false</activeaudioangle>
                    <clip id="clip-1"/>
                  </angle>
                  <angle>
                    <activevideoangle>false</activevideoangle>
                    <activeaudioangle>false</activeaudioangle>
                    <clip id="clip-2"/>
                  </angle>
                  <angle>
                    <activevideoangle>true</activevideoangle>
                    <activeaudioangle>true</activeaudioangle>
                    <clip id="clip-3"/>
                  </angle>
                  <angle>
                    <activevideoangle>false</activevideoangle>
                    <activeaudioangle>false</activeaudioangle>
                    <clip id="clip-4"/>
                  </angle>
                  <angle>
                    <activevideoangle>false</activevideoangle>
                    <activeaudioangle>false</activeaudioangle>
                    <clip id="clip-5"/>
                  </angle>
                  <angle>
                    <activevideoangle>false</activevideoangle>
                    <activeaudioangle>false</activeaudioangle>
                    <clip id="clip-6"/>
                  </angle>
                  <angle>
                    <activevideoangle>false</activevideoangle>
                    <activeaudioangle>false</activeaudioangle>
                    <clip id="clip-7"/>
                  </angle>
                  <masterclipid>clip-master</masterclipid>
                </multiclip>
              </clipitem>
              <clipitem id="cs-759">
                <duration>147</duration>
                <rate>
                  <ntsc>false</ntsc>
                  <timebase>25</timebase>
                </rate>
                <in>82153</in>
                <out>82299</out>
                <start>82153</start>
                <end>82299</end>
                <file id="src-4"/>
                <sourcetrack>
                  <mediatype>video</mediatype>
                  <trackindex>1</trackindex>
                </sourcetrack>
                <multiclip id="mcs-759">
                  <name>MCS-759</name>
                  <masterclipid>clip-master</masterclipid>
                  <collapsed>false</collapsed>
                  <angle>
                    <activevideoangle>false</activevideoangle>
                    <activeaudioangle>false</activeaudioangle>
                    <clip id="clip-1"/>
                  </angle>
                  <angle>
                    <activevideoangle>false</activevideoangle>
                    <activeaudioangle>false</activeaudioangle>
                    <clip id="clip-2"/>
                  </angle>
                  <angle>
                    <activevideoangle>false</activevideoangle>
                    <activeaudioangle>false</activeaudioangle>
                    <clip id="clip-3"/>
                  </angle>
                  <angle>
                    <activevideoangle>true</activevideoangle>
                    <activeaudioangle>true</activeaudioangle>
                    <clip id="clip-4"/>
                  </angle>
                  <angle>
                    <activevideoangle>false</activevideoangle>
                    <activeaudioangle>false</activeaudioangle>
                    <clip id="clip-5"/>
                  </angle>
                  <angle>
                    <activevideoangle>false</activevideoangle>
                    <activeaudioangle>false</activeaudioangle>
                    <clip id="clip-6"/>
                  </angle>
                  <angle>
                    <activevideoangle>false</activevideoangle>
                    <activeaudioangle>false</activeaudioangle>
                    <clip id="clip-7"/>
                  </angle>
                  <masterclipid>clip-master</masterclipid>
                </multiclip>
              </clipitem>
              <clipitem id="cs-760">
                <duration>58</duration>
                <rate>
                  <ntsc>false</ntsc>
                  <timebase>25</timebase>
                </rate>
                <in>82299</in>
                <out>82356</out>
                <start>82299</start>
                <end>82356</end>
                <file id="src-5"/>
                <sourcetrack>
                  <mediatype>video</mediatype>
                  <trackindex>1</trackindex>
                </sourcetrack>
                <multiclip id="mcs-760">
                  <name>MCS-760</name>
                  <masterclipid>clip-master</masterclipid>
                  <collapsed>false</collapsed>
                  <angle>
                    <activevideoangle>false</activevideoangle>
                    <activeaudioangle>false</activeaudioangle>
                    <clip id="clip-1"/>
                  </angle>
                  <angle>
                    <activevideoangle>false</activevideoangle>
                    <activeaudioangle>false</activeaudioangle>
                    <clip id="clip-2"/>
                  </angle>
                  <angle>
                    <activevideoangle>false</activevideoangle>
                    <activeaudioangle>false</activeaudioangle>
                    <clip id="clip-3"/>
                  </angle>
                  <angle>
                    <activevideoangle>false</activevideoangle>
                    <activeaudioangle>false</activeaudioangle>
                    <clip id="clip-4"/>
                  </angle>
                  <angle>
                    <activevideoangle>true</activevideoangle>
                    <activeaudioangle>true</activeaudioangle>
                    <clip id="clip-5"/>
                  </angle>
                  <angle>
                    <activevideoangle>false</activevideoangle>
                    <activeaudioangle>false</activeaudioangle>
                    <clip id="clip-6"/>
                  </angle>
                  <angle>
                    <activevideoangle>false</activevideoangle>
                    <activeaudioangle>false</activeaudioangle>
                    <clip id="clip-7"/>
                  </angle>
                  <masterclipid>clip-master</masterclipid>
                </multiclip>
              </clipitem>
              <clipitem id="cs-761">
                <duration>39</duration>
                <rate>
                  <ntsc>false</ntsc>
                  <timebase>25</timebase>
                </rate>
                <in>82356</in>
                <out>82394</out>
                <start>82356</start>
                <end>82394</end>
                <file id="src-1"/>
                <sourcetrack>
                  <mediatype>video</mediatype>
                  <trackindex>1</trackindex>
                </sourcetrack>
                <multiclip id="mcs-761">
                  <name>MCS-761</name>
                  <masterclipid>clip-master</masterclipid>
                  <collapsed>false</collapsed>
                  <angle>
                    <activevideoangle>true</activevideoangle>
                    <activeaudioangle>true</activeaudioangle>
                    <clip id="clip-1"/>
                  </angle>
                  <angle>
                    <activevideoangle>false</activevideoangle>
                    <activeaudioangle>false</activeaudioangle>
                    <clip id="clip-2"/>
                  </angle>
                  <angle>
                    <activevideoangle>false</activevideoangle>
                    <activeaudioangle>false</activeaudioangle>
                    <clip id="clip-3"/>
                  </angle>
                  <angle>
                    <activevideoangle>false</activevideoangle>
                    <activeaudioangle>false</activeaudioangle>
                    <clip id="clip-4"/>
                  </angle>
                  <angle>
                    <activevideoangle>false</activevideoangle>
                    <activeaudioangle>false</activeaudioangle>
                    <clip id="clip-5"/>
                  </angle>
                  <angle>
                    <activevideoangle>false</activevideoangle>
                    <activeaudioangle>false</activeaudioangle>
                    <clip id="clip-6"/>
                  </angle>
                  <angle>
                    <activevideoangle>false</activevideoangle>
                    <activeaudioangle>false</activeaudioangle>
                    <clip id="clip-7"/>
                  </angle>
                  <masterclipid>clip-master</masterclipid>
                </multiclip>
              </clipitem>
              <clipitem id="cs-762">
                <duration>58</duration>
                <rate>
                  <ntsc>false</ntsc>
                  <timebase>25</timebase>
                </rate>
                <in>82394</in>
                <out>82451</out>
                <start>82394</start>
                <end>82451</end>
                <file id="src-6"/>
                <sourcetrack>
                  <mediatype>video</mediatype>
                  <trackindex>1</trackindex>
                </sourcetrack>
                <multiclip id="mcs-762">
                  <name>MCS-762</name>
                  <masterclipid>clip-master</masterclipid>
                  <collapsed>false</collapsed>
                  <angle>
                    <activevideoangle>false</activevideoangle>
                    <activeaudioangle>false</activeaudioangle>
                    <clip id="clip-1"/>
                  </angle>
                  <angle>
                    <activevideoangle>false</activevideoangle>
                    <activeaudioangle>false</activeaudioangle>
                    <clip id="clip-2"/>
                  </angle>
                  <angle>
                    <activevideoangle>false</activevideoangle>
                    <activeaudioangle>false</activeaudioangle>
                    <clip id="clip-3"/>
                  </angle>
                  <angle>
                    <activevideoangle>false</activevideoangle>
                    <activeaudioangle>false</activeaudioangle>
                    <clip id="clip-4"/>
                  </angle>
                  <angle>
                    <activevideoangle>false</activevideoangle>
                    <activeaudioangle>false</activeaudioangle>
                    <clip id="clip-5"/>
                  </angle>
                  <angle>
                    <activevideoangle>true</activevideoangle>
                    <activeaudioangle>true</activeaudioangle>
                    <clip id="clip-6"/>
                  </angle>
                  <angle>
                    <activevideoangle>false</activevideoangle>
                    <activeaudioangle>false</activeaudioangle>
                    <clip id="clip-7"/>
                  </angle>
                  <masterclipid>clip-master</masterclipid>
                </multiclip>
              </clipitem>
              <clipitem id="cs-763">
                <duration>83</duration>
                <rate>
                  <ntsc>false</ntsc>
                  <timebase>25</timebase>
                </rate>
                <in>82451</in>
                <out>82533</out>
                <start>82451</start>
                <end>82533</end>
                <file id="src-3"/>
                <sourcetrack>
                  <mediatype>video</mediatype>
                  <trackindex>1</trackindex>
                </sourcetrack>
                <multiclip id="mcs-763">
                  <name>MCS-763</name>
                  <masterclipid>clip-master</masterclipid>
                  <collapsed>false</collapsed>
                  <angle>
                    <activevideoangle>false</activevideoangle>
                    <activeaudioangle>false</activeaudioangle>
                    <clip id="clip-1"/>
                  </angle>
                  <angle>
                    <activevideoangle>false</activevideoangle>
                    <activeaudioangle>false</activeaudioangle>
                    <clip id="clip-2"/>
                  </angle>
                  <angle>
                    <activevideoangle>true</activevideoangle>
                    <activeaudioangle>true</activeaudioangle>
                    <clip id="clip-3"/>
                  </angle>
                  <angle>
                    <activevideoangle>false</activevideoangle>
                    <activeaudioangle>false</activeaudioangle>
                    <clip id="clip-4"/>
                  </angle>
                  <angle>
                    <activevideoangle>false</activevideoangle>
                    <activeaudioangle>false</activeaudioangle>
                    <clip id="clip-5"/>
                  </angle>
                  <angle>
                    <activevideoangle>false</activevideoangle>
                    <activeaudioangle>false</activeaudioangle>
                    <clip id="clip-6"/>
                  </angle>
                  <angle>
                    <activevideoangle>false</activevideoangle>
                    <activeaudioangle>false</activeaudioangle>
                    <clip id="clip-7"/>
                  </angle>
                  <masterclipid>clip-master</masterclipid>
                </multiclip>
              </clipitem>
              <clipitem id="cs-764">
                <duration>227</duration>
                <rate>
                  <ntsc>false</ntsc>
                  <timebase>25</timebase>
                </rate>
                <in>82533</in>
                <out>82759</out>
                <start>82533</start>
                <end>82759</end>
                <file id="src-2"/>
                <sourcetrack>
                  <mediatype>video</mediatype>
                  <trackindex>1</trackindex>
                </sourcetrack>
                <multiclip id="mcs-764">
                  <name>MCS-764</name>
                  <masterclipid>clip-master</masterclipid>
                  <collapsed>false</collapsed>
                  <angle>
                    <activevideoangle>false</activevideoangle>
                    <activeaudioangle>false</activeaudioangle>
                    <clip id="clip-1"/>
                  </angle>
                  <angle>
                    <activevideoangle>true</activevideoangle>
                    <activeaudioangle>true</activeaudioangle>
                    <clip id="clip-2"/>
                  </angle>
                  <angle>
                    <activevideoangle>false</activevideoangle>
                    <activeaudioangle>false</activeaudioangle>
                    <clip id="clip-3"/>
                  </angle>
                  <angle>
                    <activevideoangle>false</activevideoangle>
                    <activeaudioangle>false</activeaudioangle>
                    <clip id="clip-4"/>
                  </angle>
                  <angle>
                    <activevideoangle>false</activevideoangle>
                    <activeaudioangle>false</activeaudioangle>
                    <clip id="clip-5"/>
                  </angle>
                  <angle>
                    <activevideoangle>false</activevideoangle>
                    <activeaudioangle>false</activeaudioangle>
                    <clip id="clip-6"/>
                  </angle>
                  <angle>
                    <activevideoangle>false</activevideoangle>
                    <activeaudioangle>false</activeaudioangle>
                    <clip id="clip-7"/>
                  </angle>
                  <masterclipid>clip-master</masterclipid>
                </multiclip>
              </clipitem>
              <clipitem id="cs-765">
                <duration>97</duration>
                <rate>
                  <ntsc>false</ntsc>
                  <timebase>25</timebase>
                </rate>
                <in>82759</in>
                <out>82855</out>
                <start>82759</start>
                <end>82855</end>
                <file id="src-3"/>
                <sourcetrack>
                  <mediatype>video</mediatype>
                  <trackindex>1</trackindex>
                </sourcetrack>
                <multiclip id="mcs-765">
                  <name>MCS-765</name>
                  <masterclipid>clip-master</masterclipid>
                  <collapsed>false</collapsed>
                  <angle>
                    <activevideoangle>false</activevideoangle>
                    <activeaudioangle>false</activeaudioangle>
                    <clip id="clip-1"/>
                  </angle>
                  <angle>
                    <activevideoangle>false</activevideoangle>
                    <activeaudioangle>false</activeaudioangle>
                    <clip id="clip-2"/>
                  </angle>
                  <angle>
                    <activevideoangle>true</activevideoangle>
                    <activeaudioangle>true</activeaudioangle>
                    <clip id="clip-3"/>
                  </angle>
                  <angle>
                    <activevideoangle>false</activevideoangle>
                    <activeaudioangle>false</activeaudioangle>
                    <clip id="clip-4"/>
                  </angle>
                  <angle>
                    <activevideoangle>false</activevideoangle>
                    <activeaudioangle>false</activeaudioangle>
                    <clip id="clip-5"/>
                  </angle>
                  <angle>
                    <activevideoangle>false</activevideoangle>
                    <activeaudioangle>false</activeaudioangle>
                    <clip id="clip-6"/>
                  </angle>
                  <angle>
                    <activevideoangle>false</activevideoangle>
                    <activeaudioangle>false</activeaudioangle>
                    <clip id="clip-7"/>
                  </angle>
                  <masterclipid>clip-master</masterclipid>
                </multiclip>
              </clipitem>
            </track>
          </video>
          <audio>
            <track>
              <clipitem id="csa1">
                <duration>82856</duration>
                <in>0</in>
                <out>82855</out>
                <start>0</start>
                <end>82855</end>
                <file id="src-7"/>
                <sourcetrack>
                  <mediatype>audio</mediatype>
                  <trackindex>1</trackindex>
                </sourcetrack>
                <filter>
                  <effect>
                    <name>Audio Pan</name>
                    <effectid>audiopan</effectid>
                    <effectcategory>audiopan</effectcategory>
                    <effecttype>audiopan</effecttype>
                    <mediatype>audio</mediatype>
                    <parameter>
                      <name>Pan</name>
                      <parameterid>pan</parameterid>
                      <valuemin>-1</valuemin>
                      <valuemax>1</valuemax>
                      <value>-1</value>
                    </parameter>
                  </effect>
                </filter>
                <multiclip id="mcsa-1">
                  <name>MCS Audio 1</name>
                  <masterclipid>clip-master</masterclipid>
                  <collapsed>false</collapsed>
                  <angle>
                    <activevideoangle>false</activevideoangle>
                    <activeaudioangle>false</activeaudioangle>
                    <clip id="clip-1"/>
                  </angle>
                  <angle>
                    <activevideoangle>false</activevideoangle>
                    <activeaudioangle>false</activeaudioangle>
                    <clip id="clip-2"/>
                  </angle>
                  <angle>
                    <activevideoangle>false</activevideoangle>
                    <activeaudioangle>false</activeaudioangle>
                    <clip id="clip-3"/>
                  </angle>
                  <angle>
                    <activevideoangle>false</activevideoangle>
                    <activeaudioangle>false</activeaudioangle>
                    <clip id="clip-4"/>
                  </angle>
                  <angle>
                    <activevideoangle>false</activevideoangle>
                    <activeaudioangle>false</activeaudioangle>
                    <clip id="clip-5"/>
                  </angle>
                  <angle>
                    <activevideoangle>false</activevideoangle>
                    <activeaudioangle>false</activeaudioangle>
                    <clip id="clip-6"/>
                  </angle>
                  <angle>
                    <activevideoangle>true</activevideoangle>
                    <activeaudioangle>true</activeaudioangle>
                    <clip id="clip-7"/>
                  </angle>
                  <masterclipid>clip-master</masterclipid>
                </multiclip>
                <link>
                  <linkclipref>cs-0</linkclipref>
                  <mediatype>video</mediatype>
                  <trackindex>1</trackindex>
                  <clipindex>1</clipindex>
                </link>
                <link>
                  <linkclipref>csa1</linkclipref>
                  <mediatype>audio</mediatype>
                  <trackindex>1</trackindex>
                  <clipindex>1</clipindex>
                  <groupindex>1</groupindex>
                </link>
                <link>
                  <linkclipref>csa2</linkclipref>
                  <mediatype>audio</mediatype>
                  <trackindex>2</trackindex>
                  <clipindex>1</clipindex>
                  <groupindex>1</groupindex>
                </link>
              </clipitem>
            </track>
            <track>
              <clipitem id="csa2">
                <duration>82856</duration>
                <in>0</in>
                <out>82855</out>
                <start>0</start>
                <end>82855</end>
                <file id="src-7"/>
                <sourcetrack>
                  <mediatype>audio</mediatype>
                  <trackindex>2</trackindex>
                </sourcetrack>
                <filter>
                  <effect>
                    <name>Audio Pan</name>
                    <effectid>audiopan</effectid>
                    <effectcategory>audiopan</effectcategory>
                    <effecttype>audiopan</effecttype>
                    <mediatype>audio</mediatype>
                    <parameter>
                      <name>Pan</name>
                      <parameterid>pan</parameterid>
                      <valuemin>-1</valuemin>
                      <valuemax>1</valuemax>
                      <value>1</value>
                    </parameter>
                  </effect>
                </filter>
                <multiclip id="mcsa-2">
                  <name>MCS Audio 2</name>
                  <masterclipid>clip-master</masterclipid>
                  <collapsed>false</collapsed>
                  <angle>
                    <activevideoangle>false</activevideoangle>
                    <activeaudioangle>false</activeaudioangle>
                    <clip id="clip-1"/>
                  </angle>
                  <angle>
                    <activevideoangle>false</activevideoangle>
                    <activeaudioangle>false</activeaudioangle>
                    <clip id="clip-2"/>
                  </angle>
                  <angle>
                    <activevideoangle>false</activevideoangle>
                    <activeaudioangle>false</activeaudioangle>
                    <clip id="clip-3"/>
                  </angle>
                  <angle>
                    <activevideoangle>false</activevideoangle>
                    <activeaudioangle>false</activeaudioangle>
                    <clip id="clip-4"/>
                  </angle>
                  <angle>
                    <activevideoangle>false</activevideoangle>
                    <activeaudioangle>false</activeaudioangle>
                    <clip id="clip-5"/>
                  </angle>
                  <angle>
                    <activevideoangle>false</activevideoangle>
                    <activeaudioangle>false</activeaudioangle>
                    <clip id="clip-6"/>
                  </angle>
                  <angle>
                    <activevideoangle>true</activevideoangle>
                    <activeaudioangle>true</activeaudioangle>
                    <clip id="clip-7"/>
                  </angle>
                  <masterclipid>clip-master</masterclipid>
                </multiclip>
                <link>
                  <linkclipref>cs-0</linkclipref>
                  <mediatype>video</mediatype>
                  <trackindex>1</trackindex>
                  <clipindex>1</clipindex>
                </link>
                <link>
                  <linkclipref>csa1</linkclipref>
                  <mediatype>audio</mediatype>
                  <trackindex>1</trackindex>
                  <clipindex>1</clipindex>
                  <groupindex>1</groupindex>
                </link>
                <link>
                  <linkclipref>csa2</linkclipref>
                  <mediatype>audio</mediatype>
                  <trackindex>2</trackindex>
                  <clipindex>1</clipindex>
                  <groupindex>1</groupindex>
                </link>
              </clipitem>
            </track>
          </audio>
        </media>
      </sequence>
    </children>
  </project>
</xmeml>
