<?xml version="1.0" encoding="UTF-8"?>
<xmeml version="5">
  <project>
    <name>2024-07-15_CASINO_ANDRE-3000_EDL</name>
    <children>
      <bin>
        <name>Sources</name>
        <children>
          <clip id="clip-1">
            <duration>119677</duration>
            <rate>
              <ntsc>false</ntsc>
              <timebase>25</timebase>
            </rate>
            <name>2024-07-15_CASINO_ANDRE-3000_CAM01.mxf</name>
            <defaultangle>1</defaultangle>
            <media>
              <video>
                <track>
                  <clipitem id="clipv-1">
                    <duration>119677</duration>
                    <rate>
                      <ntsc>false</ntsc>
                      <timebase>25</timebase>
                    </rate>
                    <file id="src-1">
                      <name>2024-07-15_CASINO_ANDRE-3000_CAM01.mxf</name>
                      <timecode>
                        <string>10:02:10:12</string>
                        <source>source</source>
                        <frame>903262</frame>
                      </timecode>
                      <pathurl>./2024-07-15_CASINO_ANDRE-3000_CAM01.mxf</pathurl>
                      <media>
                        <audio>
                          <channelcount>2</channelcount>
                        </audio>
                        <video>
                          <samplecharacteristics>
                            <width>3840</width>
                            <height>2160</height>
                            <anamorphic>false</anamorphic>
                            <pixelaspectratio>square</pixelaspectratio>
                          </samplecharacteristics>
                        </video>
                      </media>
                    </file>
                    <sourcetrack>
                      <mediatype>video</mediatype>
                    </sourcetrack>
                    <link>
                      <linkclipref>clipv-1</linkclipref>
                      <mediatype>video</mediatype>
                      <trackindex>1</trackindex>
                    </link>
                    <link>
                      <linkclipref>clipa1-1</linkclipref>
                      <mediatype>audio</mediatype>
                      <trackindex>1</trackindex>
                      <groupindex>1</groupindex>
                    </link>
                    <link>
                      <linkclipref>clipa2-1</linkclipref>
                      <mediatype>audio</mediatype>
                      <trackindex>2</trackindex>
                      <groupindex>1</groupindex>
                    </link>
                  </clipitem>
                </track>
              </video>
              <audio>
                <track>
                  <clipitem id="clipa1-1">
                    <rate>
                      <ntsc>false</ntsc>
                      <timebase>25</timebase>
                    </rate>
                    <name>2024-07-15_CASINO_ANDRE-3000_CAM01.mxf</name>
                    <file id="src-1"/>
                    <filter>
                      <effect>
                        <name>Audio Pan</name>
                        <effectid>audiopan</effectid>
                        <effectcategory>audiopan</effectcategory>
                        <effecttype>audiopan</effecttype>
                        <mediatype>audio</mediatype>
                        <parameter>
                          <name>Pan</name>
                          <parameterid>pan</parameterid>
                          <valuemin>-1</valuemin>
                          <valuemax>1</valuemax>
                          <value>-1</value>
                        </parameter>
                      </effect>
                    </filter>
                    <sourcetrack>
                      <mediatype>audio</mediatype>
                      <trackindex>1</trackindex>
                    </sourcetrack>
                    <link>
                      <linkclipref>clipv-1</linkclipref>
                      <mediatype>video</mediatype>
                      <trackindex>1</trackindex>
                    </link>
                    <link>
                      <linkclipref>clipa1-1</linkclipref>
                      <mediatype>audio</mediatype>
                      <trackindex>1</trackindex>
                      <groupindex>1</groupindex>
                    </link>
                    <link>
                      <linkclipref>clipa2-1</linkclipref>
                      <mediatype>audio</mediatype>
                      <trackindex>2</trackindex>
                      <groupindex>1</groupindex>
                    </link>
                  </clipitem>
                </track>
                <track>
                  <clipitem id="clipa2-1">
                    <rate>
                      <ntsc>false</ntsc>
                      <timebase>25</timebase>
                    </rate>
                    <name>2024-07-15_CASINO_ANDRE-3000_CAM01.mxf</name>
                    <file id="src-1"/>
                    <filter>
                      <effect>
                        <name>Audio Pan</name>
                        <effectid>audiopan</effectid>
                        <effectcategory>audiopan</effectcategory>
                        <effecttype>audiopan</effecttype>
                        <mediatype>audio</mediatype>
                        <parameter>
                          <name>Pan</name>
                          <parameterid>pan</parameterid>
                          <valuemin>-1</valuemin>
                          <valuemax>1</valuemax>
                          <value>1</value>
                        </parameter>
                      </effect>
                    </filter>
                    <sourcetrack>
                      <mediatype>audio</mediatype>
                      <trackindex>2</trackindex>
                    </sourcetrack>
                    <link>
                      <linkclipref>clipv-1</linkclipref>
                      <mediatype>video</mediatype>
                      <trackindex>1</trackindex>
                    </link>
                    <link>
                      <linkclipref>clipa1-1</linkclipref>
                      <mediatype>audio</mediatype>
                      <trackindex>1</trackindex>
                      <groupindex>1</groupindex>
                    </link>
                    <link>
                      <linkclipref>clipa2-1</linkclipref>
                      <mediatype>audio</mediatype>
                      <trackindex>2</trackindex>
                      <groupindex>1</groupindex>
                    </link>
                  </clipitem>
                </track>
              </audio>
            </media>
          </clip>
          <clip id="clip-2">
            <duration>119677</duration>
            <rate>
              <ntsc>false</ntsc>
              <timebase>25</timebase>
            </rate>
            <name>2024-07-15_CASINO_ANDRE-3000_CAM02.mxf</name>
            <defaultangle>2</defaultangle>
            <media>
              <video>
                <track>
                  <clipitem id="clipv-2">
                    <duration>119677</duration>
                    <rate>
                      <ntsc>false</ntsc>
                      <timebase>25</timebase>
                    </rate>
                    <file id="src-2">
                      <name>2024-07-15_CASINO_ANDRE-3000_CAM02.mxf</name>
                      <timecode>
                        <string>10:02:10:12</string>
                        <source>source</source>
                        <frame>903262</frame>
                      </timecode>
                      <pathurl>./2024-07-15_CASINO_ANDRE-3000_CAM02.mxf</pathurl>
                      <media>
                        <audio>
                          <channelcount>2</channelcount>
                        </audio>
                        <video>
                          <samplecharacteristics>
                            <width>3840</width>
                            <height>2160</height>
                            <anamorphic>false</anamorphic>
                            <pixelaspectratio>square</pixelaspectratio>
                          </samplecharacteristics>
                        </video>
                      </media>
                    </file>
                    <sourcetrack>
                      <mediatype>video</mediatype>
                    </sourcetrack>
                    <link>
                      <linkclipref>clipv-2</linkclipref>
                      <mediatype>video</mediatype>
                      <trackindex>1</trackindex>
                    </link>
                    <link>
                      <linkclipref>clipa1-2</linkclipref>
                      <mediatype>audio</mediatype>
                      <trackindex>1</trackindex>
                      <groupindex>1</groupindex>
                    </link>
                    <link>
                      <linkclipref>clipa2-2</linkclipref>
                      <mediatype>audio</mediatype>
                      <trackindex>2</trackindex>
                      <groupindex>1</groupindex>
                    </link>
                  </clipitem>
                </track>
              </video>
              <audio>
                <track>
                  <clipitem id="clipa1-2">
                    <rate>
                      <ntsc>false</ntsc>
                      <timebase>25</timebase>
                    </rate>
                    <name>2024-07-15_CASINO_ANDRE-3000_CAM02.mxf</name>
                    <file id="src-2"/>
                    <filter>
                      <effect>
                        <name>Audio Pan</name>
                        <effectid>audiopan</effectid>
                        <effectcategory>audiopan</effectcategory>
                        <effecttype>audiopan</effecttype>
                        <mediatype>audio</mediatype>
                        <parameter>
                          <name>Pan</name>
                          <parameterid>pan</parameterid>
                          <valuemin>-1</valuemin>
                          <valuemax>1</valuemax>
                          <value>-1</value>
                        </parameter>
                      </effect>
                    </filter>
                    <sourcetrack>
                      <mediatype>audio</mediatype>
                      <trackindex>1</trackindex>
                    </sourcetrack>
                    <link>
                      <linkclipref>clipv-2</linkclipref>
                      <mediatype>video</mediatype>
                      <trackindex>1</trackindex>
                    </link>
                    <link>
                      <linkclipref>clipa1-2</linkclipref>
                      <mediatype>audio</mediatype>
                      <trackindex>1</trackindex>
                      <groupindex>1</groupindex>
                    </link>
                    <link>
                      <linkclipref>clipa2-2</linkclipref>
                      <mediatype>audio</mediatype>
                      <trackindex>2</trackindex>
                      <groupindex>1</groupindex>
                    </link>
                  </clipitem>
                </track>
                <track>
                  <clipitem id="clipa2-2">
                    <rate>
                      <ntsc>false</ntsc>
                      <timebase>25</timebase>
                    </rate>
                    <name>2024-07-15_CASINO_ANDRE-3000_CAM02.mxf</name>
                    <file id="src-2"/>
                    <filter>
                      <effect>
                        <name>Audio Pan</name>
                        <effectid>audiopan</effectid>
                        <effectcategory>audiopan</effectcategory>
                        <effecttype>audiopan</effecttype>
                        <mediatype>audio</mediatype>
                        <parameter>
                          <name>Pan</name>
                          <parameterid>pan</parameterid>
                          <valuemin>-1</valuemin>
                          <valuemax>1</valuemax>
                          <value>1</value>
                        </parameter>
                      </effect>
                    </filter>
                    <sourcetrack>
                      <mediatype>audio</mediatype>
                      <trackindex>2</trackindex>
                    </sourcetrack>
                    <link>
                      <linkclipref>clipv-2</linkclipref>
                      <mediatype>video</mediatype>
                      <trackindex>1</trackindex>
                    </link>
                    <link>
                      <linkclipref>clipa1-2</linkclipref>
                      <mediatype>audio</mediatype>
                      <trackindex>1</trackindex>
                      <groupindex>1</groupindex>
                    </link>
                    <link>
                      <linkclipref>clipa2-2</linkclipref>
                      <mediatype>audio</mediatype>
                      <trackindex>2</trackindex>
                      <groupindex>1</groupindex>
                    </link>
                  </clipitem>
                </track>
              </audio>
            </media>
          </clip>
          <clip id="clip-3">
            <duration>119677</duration>
            <rate>
              <ntsc>false</ntsc>
              <timebase>25</timebase>
            </rate>
            <name>2024-07-15_CASINO_ANDRE-3000_CAM03.mxf</name>
            <defaultangle>3</defaultangle>
            <media>
              <video>
                <track>
                  <clipitem id="clipv-3">
                    <duration>119677</duration>
                    <rate>
                      <ntsc>false</ntsc>
                      <timebase>25</timebase>
                    </rate>
                    <file id="src-3">
                      <name>2024-07-15_CASINO_ANDRE-3000_CAM03.mxf</name>
                      <timecode>
                        <string>10:02:10:12</string>
                        <source>source</source>
                        <frame>903262</frame>
                      </timecode>
                      <pathurl>./2024-07-15_CASINO_ANDRE-3000_CAM03.mxf</pathurl>
                      <media>
                        <audio>
                          <channelcount>2</channelcount>
                        </audio>
                        <video>
                          <samplecharacteristics>
                            <width>3840</width>
                            <height>2160</height>
                            <anamorphic>false</anamorphic>
                            <pixelaspectratio>square</pixelaspectratio>
                          </samplecharacteristics>
                        </video>
                      </media>
                    </file>
                    <sourcetrack>
                      <mediatype>video</mediatype>
                    </sourcetrack>
                    <link>
                      <linkclipref>clipv-3</linkclipref>
                      <mediatype>video</mediatype>
                      <trackindex>1</trackindex>
                    </link>
                    <link>
                      <linkclipref>clipa1-3</linkclipref>
                      <mediatype>audio</mediatype>
                      <trackindex>1</trackindex>
                      <groupindex>1</groupindex>
                    </link>
                    <link>
                      <linkclipref>clipa2-3</linkclipref>
                      <mediatype>audio</mediatype>
                      <trackindex>2</trackindex>
                      <groupindex>1</groupindex>
                    </link>
                  </clipitem>
                </track>
              </video>
              <audio>
                <track>
                  <clipitem id="clipa1-3">
                    <rate>
                      <ntsc>false</ntsc>
                      <timebase>25</timebase>
                    </rate>
                    <name>2024-07-15_CASINO_ANDRE-3000_CAM03.mxf</name>
                    <file id="src-3"/>
                    <filter>
                      <effect>
                        <name>Audio Pan</name>
                        <effectid>audiopan</effectid>
                        <effectcategory>audiopan</effectcategory>
                        <effecttype>audiopan</effecttype>
                        <mediatype>audio</mediatype>
                        <parameter>
                          <name>Pan</name>
                          <parameterid>pan</parameterid>
                          <valuemin>-1</valuemin>
                          <valuemax>1</valuemax>
                          <value>-1</value>
                        </parameter>
                      </effect>
                    </filter>
                    <sourcetrack>
                      <mediatype>audio</mediatype>
                      <trackindex>1</trackindex>
                    </sourcetrack>
                    <link>
                      <linkclipref>clipv-3</linkclipref>
                      <mediatype>video</mediatype>
                      <trackindex>1</trackindex>
                    </link>
                    <link>
                      <linkclipref>clipa1-3</linkclipref>
                      <mediatype>audio</mediatype>
                      <trackindex>1</trackindex>
                      <groupindex>1</groupindex>
                    </link>
                    <link>
                      <linkclipref>clipa2-3</linkclipref>
                      <mediatype>audio</mediatype>
                      <trackindex>2</trackindex>
                      <groupindex>1</groupindex>
                    </link>
                  </clipitem>
                </track>
                <track>
                  <clipitem id="clipa2-3">
                    <rate>
                      <ntsc>false</ntsc>
                      <timebase>25</timebase>
                    </rate>
                    <name>2024-07-15_CASINO_ANDRE-3000_CAM03.mxf</name>
                    <file id="src-3"/>
                    <filter>
                      <effect>
                        <name>Audio Pan</name>
                        <effectid>audiopan</effectid>
                        <effectcategory>audiopan</effectcategory>
                        <effecttype>audiopan</effecttype>
                        <mediatype>audio</mediatype>
                        <parameter>
                          <name>Pan</name>
                          <parameterid>pan</parameterid>
                          <valuemin>-1</valuemin>
                          <valuemax>1</valuemax>
                          <value>1</value>
                        </parameter>
                      </effect>
                    </filter>
                    <sourcetrack>
                      <mediatype>audio</mediatype>
                      <trackindex>2</trackindex>
                    </sourcetrack>
                    <link>
                      <linkclipref>clipv-3</linkclipref>
                      <mediatype>video</mediatype>
                      <trackindex>1</trackindex>
                    </link>
                    <link>
                      <linkclipref>clipa1-3</linkclipref>
                      <mediatype>audio</mediatype>
                      <trackindex>1</trackindex>
                      <groupindex>1</groupindex>
                    </link>
                    <link>
                      <linkclipref>clipa2-3</linkclipref>
                      <mediatype>audio</mediatype>
                      <trackindex>2</trackindex>
                      <groupindex>1</groupindex>
                    </link>
                  </clipitem>
                </track>
              </audio>
            </media>
          </clip>
          <clip id="clip-4">
            <duration>119677</duration>
            <rate>
              <ntsc>false</ntsc>
              <timebase>25</timebase>
            </rate>
            <name>2024-07-15_CASINO_ANDRE-3000_CAM04.mxf</name>
            <defaultangle>4</defaultangle>
            <media>
              <video>
                <track>
                  <clipitem id="clipv-4">
                    <duration>119677</duration>
                    <rate>
                      <ntsc>false</ntsc>
                      <timebase>25</timebase>
                    </rate>
                    <file id="src-4">
                      <name>2024-07-15_CASINO_ANDRE-3000_CAM04.mxf</name>
                      <timecode>
                        <string>10:02:10:12</string>
                        <source>source</source>
                        <frame>903262</frame>
                      </timecode>
                      <pathurl>./2024-07-15_CASINO_ANDRE-3000_CAM04.mxf</pathurl>
                      <media>
                        <audio>
                          <channelcount>2</channelcount>
                        </audio>
                        <video>
                          <samplecharacteristics>
                            <width>3840</width>
                            <height>2160</height>
                            <anamorphic>false</anamorphic>
                            <pixelaspectratio>square</pixelaspectratio>
                          </samplecharacteristics>
                        </video>
                      </media>
                    </file>
                    <sourcetrack>
                      <mediatype>video</mediatype>
                    </sourcetrack>
                    <link>
                      <linkclipref>clipv-4</linkclipref>
                      <mediatype>video</mediatype>
                      <trackindex>1</trackindex>
                    </link>
                    <link>
                      <linkclipref>clipa1-4</linkclipref>
                      <mediatype>audio</mediatype>
                      <trackindex>1</trackindex>
                      <groupindex>1</groupindex>
                    </link>
                    <link>
                      <linkclipref>clipa2-4</linkclipref>
                      <mediatype>audio</mediatype>
                      <trackindex>2</trackindex>
                      <groupindex>1</groupindex>
                    </link>
                  </clipitem>
                </track>
              </video>
              <audio>
                <track>
                  <clipitem id="clipa1-4">
                    <rate>
                      <ntsc>false</ntsc>
                      <timebase>25</timebase>
                    </rate>
                    <name>2024-07-15_CASINO_ANDRE-3000_CAM04.mxf</name>
                    <file id="src-4"/>
                    <filter>
                      <effect>
                        <name>Audio Pan</name>
                        <effectid>audiopan</effectid>
                        <effectcategory>audiopan</effectcategory>
                        <effecttype>audiopan</effecttype>
                        <mediatype>audio</mediatype>
                        <parameter>
                          <name>Pan</name>
                          <parameterid>pan</parameterid>
                          <valuemin>-1</valuemin>
                          <valuemax>1</valuemax>
                          <value>-1</value>
                        </parameter>
                      </effect>
                    </filter>
                    <sourcetrack>
                      <mediatype>audio</mediatype>
                      <trackindex>1</trackindex>
                    </sourcetrack>
                    <link>
                      <linkclipref>clipv-4</linkclipref>
                      <mediatype>video</mediatype>
                      <trackindex>1</trackindex>
                    </link>
                    <link>
                      <linkclipref>clipa1-4</linkclipref>
                      <mediatype>audio</mediatype>
                      <trackindex>1</trackindex>
                      <groupindex>1</groupindex>
                    </link>
                    <link>
                      <linkclipref>clipa2-4</linkclipref>
                      <mediatype>audio</mediatype>
                      <trackindex>2</trackindex>
                      <groupindex>1</groupindex>
                    </link>
                  </clipitem>
                </track>
                <track>
                  <clipitem id="clipa2-4">
                    <rate>
                      <ntsc>false</ntsc>
                      <timebase>25</timebase>
                    </rate>
                    <name>2024-07-15_CASINO_ANDRE-3000_CAM04.mxf</name>
                    <file id="src-4"/>
                    <filter>
                      <effect>
                        <name>Audio Pan</name>
                        <effectid>audiopan</effectid>
                        <effectcategory>audiopan</effectcategory>
                        <effecttype>audiopan</effecttype>
                        <mediatype>audio</mediatype>
                        <parameter>
                          <name>Pan</name>
                          <parameterid>pan</parameterid>
                          <valuemin>-1</valuemin>
                          <valuemax>1</valuemax>
                          <value>1</value>
                        </parameter>
                      </effect>
                    </filter>
                    <sourcetrack>
                      <mediatype>audio</mediatype>
                      <trackindex>2</trackindex>
                    </sourcetrack>
                    <link>
                      <linkclipref>clipv-4</linkclipref>
                      <mediatype>video</mediatype>
                      <trackindex>1</trackindex>
                    </link>
                    <link>
                      <linkclipref>clipa1-4</linkclipref>
                      <mediatype>audio</mediatype>
                      <trackindex>1</trackindex>
                      <groupindex>1</groupindex>
                    </link>
                    <link>
                      <linkclipref>clipa2-4</linkclipref>
                      <mediatype>audio</mediatype>
                      <trackindex>2</trackindex>
                      <groupindex>1</groupindex>
                    </link>
                  </clipitem>
                </track>
              </audio>
            </media>
          </clip>
          <clip id="clip-5">
            <duration>119677</duration>
            <rate>
              <ntsc>false</ntsc>
              <timebase>25</timebase>
            </rate>
            <name>2024-07-15_CASINO_ANDRE-3000_CAM05.mxf</name>
            <defaultangle>5</defaultangle>
            <media>
              <video>
                <track>
                  <clipitem id="clipv-5">
                    <duration>119677</duration>
                    <rate>
                      <ntsc>false</ntsc>
                      <timebase>25</timebase>
                    </rate>
                    <file id="src-5">
                      <name>2024-07-15_CASINO_ANDRE-3000_CAM05.mxf</name>
                      <timecode>
                        <string>10:02:10:12</string>
                        <source>source</source>
                        <frame>903262</frame>
                      </timecode>
                      <pathurl>./2024-07-15_CASINO_ANDRE-3000_CAM05.mxf</pathurl>
                      <media>
                        <audio>
                          <channelcount>2</channelcount>
                        </audio>
                        <video>
                          <samplecharacteristics>
                            <width>3840</width>
                            <height>2160</height>
                            <anamorphic>false</anamorphic>
                            <pixelaspectratio>square</pixelaspectratio>
                          </samplecharacteristics>
                        </video>
                      </media>
                    </file>
                    <sourcetrack>
                      <mediatype>video</mediatype>
                    </sourcetrack>
                    <link>
                      <linkclipref>clipv-5</linkclipref>
                      <mediatype>video</mediatype>
                      <trackindex>1</trackindex>
                    </link>
                    <link>
                      <linkclipref>clipa1-5</linkclipref>
                      <mediatype>audio</mediatype>
                      <trackindex>1</trackindex>
                      <groupindex>1</groupindex>
                    </link>
                    <link>
                      <linkclipref>clipa2-5</linkclipref>
                      <mediatype>audio</mediatype>
                      <trackindex>2</trackindex>
                      <groupindex>1</groupindex>
                    </link>
                  </clipitem>
                </track>
              </video>
              <audio>
                <track>
                  <clipitem id="clipa1-5">
                    <rate>
                      <ntsc>false</ntsc>
                      <timebase>25</timebase>
                    </rate>
                    <name>2024-07-15_CASINO_ANDRE-3000_CAM05.mxf</name>
                    <file id="src-5"/>
                    <filter>
                      <effect>
                        <name>Audio Pan</name>
                        <effectid>audiopan</effectid>
                        <effectcategory>audiopan</effectcategory>
                        <effecttype>audiopan</effecttype>
                        <mediatype>audio</mediatype>
                        <parameter>
                          <name>Pan</name>
                          <parameterid>pan</parameterid>
                          <valuemin>-1</valuemin>
                          <valuemax>1</valuemax>
                          <value>-1</value>
                        </parameter>
                      </effect>
                    </filter>
                    <sourcetrack>
                      <mediatype>audio</mediatype>
                      <trackindex>1</trackindex>
                    </sourcetrack>
                    <link>
                      <linkclipref>clipv-5</linkclipref>
                      <mediatype>video</mediatype>
                      <trackindex>1</trackindex>
                    </link>
                    <link>
                      <linkclipref>clipa1-5</linkclipref>
                      <mediatype>audio</mediatype>
                      <trackindex>1</trackindex>
                      <groupindex>1</groupindex>
                    </link>
                    <link>
                      <linkclipref>clipa2-5</linkclipref>
                      <mediatype>audio</mediatype>
                      <trackindex>2</trackindex>
                      <groupindex>1</groupindex>
                    </link>
                  </clipitem>
                </track>
                <track>
                  <clipitem id="clipa2-5">
                    <rate>
                      <ntsc>false</ntsc>
                      <timebase>25</timebase>
                    </rate>
                    <name>2024-07-15_CASINO_ANDRE-3000_CAM05.mxf</name>
                    <file id="src-5"/>
                    <filter>
                      <effect>
                        <name>Audio Pan</name>
                        <effectid>audiopan</effectid>
                        <effectcategory>audiopan</effectcategory>
                        <effecttype>audiopan</effecttype>
                        <mediatype>audio</mediatype>
                        <parameter>
                          <name>Pan</name>
                          <parameterid>pan</parameterid>
                          <valuemin>-1</valuemin>
                          <valuemax>1</valuemax>
                          <value>1</value>
                        </parameter>
                      </effect>
                    </filter>
                    <sourcetrack>
                      <mediatype>audio</mediatype>
                      <trackindex>2</trackindex>
                    </sourcetrack>
                    <link>
                      <linkclipref>clipv-5</linkclipref>
                      <mediatype>video</mediatype>
                      <trackindex>1</trackindex>
                    </link>
                    <link>
                      <linkclipref>clipa1-5</linkclipref>
                      <mediatype>audio</mediatype>
                      <trackindex>1</trackindex>
                      <groupindex>1</groupindex>
                    </link>
                    <link>
                      <linkclipref>clipa2-5</linkclipref>
                      <mediatype>audio</mediatype>
                      <trackindex>2</trackindex>
                      <groupindex>1</groupindex>
                    </link>
                  </clipitem>
                </track>
              </audio>
            </media>
          </clip>
          <clip id="clip-6">
            <duration>119677</duration>
            <rate>
              <ntsc>false</ntsc>
              <timebase>25</timebase>
            </rate>
            <name>2024-07-15_CASINO_ANDRE-3000_CAM06.mxf</name>
            <defaultangle>6</defaultangle>
            <media>
              <video>
                <track>
                  <clipitem id="clipv-6">
                    <duration>119677</duration>
                    <rate>
                      <ntsc>false</ntsc>
                      <timebase>25</timebase>
                    </rate>
                    <file id="src-6">
                      <name>2024-07-15_CASINO_ANDRE-3000_CAM06.mxf</name>
                      <timecode>
                        <string>10:02:10:12</string>
                        <source>source</source>
                        <frame>903262</frame>
                      </timecode>
                      <pathurl>./2024-07-15_CASINO_ANDRE-3000_CAM06.mxf</pathurl>
                      <media>
                        <audio>
                          <channelcount>2</channelcount>
                        </audio>
                        <video>
                          <samplecharacteristics>
                            <width>3840</width>
                            <height>2160</height>
                            <anamorphic>false</anamorphic>
                            <pixelaspectratio>square</pixelaspectratio>
                          </samplecharacteristics>
                        </video>
                      </media>
                    </file>
                    <sourcetrack>
                      <mediatype>video</mediatype>
                    </sourcetrack>
                    <link>
                      <linkclipref>clipv-6</linkclipref>
                      <mediatype>video</mediatype>
                      <trackindex>1</trackindex>
                    </link>
                    <link>
                      <linkclipref>clipa1-6</linkclipref>
                      <mediatype>audio</mediatype>
                      <trackindex>1</trackindex>
                      <groupindex>1</groupindex>
                    </link>
                    <link>
                      <linkclipref>clipa2-6</linkclipref>
                      <mediatype>audio</mediatype>
                      <trackindex>2</trackindex>
                      <groupindex>1</groupindex>
                    </link>
                  </clipitem>
                </track>
              </video>
              <audio>
                <track>
                  <clipitem id="clipa1-6">
                    <rate>
                      <ntsc>false</ntsc>
                      <timebase>25</timebase>
                    </rate>
                    <name>2024-07-15_CASINO_ANDRE-3000_CAM06.mxf</name>
                    <file id="src-6"/>
                    <filter>
                      <effect>
                        <name>Audio Pan</name>
                        <effectid>audiopan</effectid>
                        <effectcategory>audiopan</effectcategory>
                        <effecttype>audiopan</effecttype>
                        <mediatype>audio</mediatype>
                        <parameter>
                          <name>Pan</name>
                          <parameterid>pan</parameterid>
                          <valuemin>-1</valuemin>
                          <valuemax>1</valuemax>
                          <value>-1</value>
                        </parameter>
                      </effect>
                    </filter>
                    <sourcetrack>
                      <mediatype>audio</mediatype>
                      <trackindex>1</trackindex>
                    </sourcetrack>
                    <link>
                      <linkclipref>clipv-6</linkclipref>
                      <mediatype>video</mediatype>
                      <trackindex>1</trackindex>
                    </link>
                    <link>
                      <linkclipref>clipa1-6</linkclipref>
                      <mediatype>audio</mediatype>
                      <trackindex>1</trackindex>
                      <groupindex>1</groupindex>
                    </link>
                    <link>
                      <linkclipref>clipa2-6</linkclipref>
                      <mediatype>audio</mediatype>
                      <trackindex>2</trackindex>
                      <groupindex>1</groupindex>
                    </link>
                  </clipitem>
                </track>
                <track>
                  <clipitem id="clipa2-6">
                    <rate>
                      <ntsc>false</ntsc>
                      <timebase>25</timebase>
                    </rate>
                    <name>2024-07-15_CASINO_ANDRE-3000_CAM06.mxf</name>
                    <file id="src-6"/>
                    <filter>
                      <effect>
                        <name>Audio Pan</name>
                        <effectid>audiopan</effectid>
                        <effectcategory>audiopan</effectcategory>
                        <effecttype>audiopan</effecttype>
                        <mediatype>audio</mediatype>
                        <parameter>
                          <name>Pan</name>
                          <parameterid>pan</parameterid>
                          <valuemin>-1</valuemin>
                          <valuemax>1</valuemax>
                          <value>1</value>
                        </parameter>
                      </effect>
                    </filter>
                    <sourcetrack>
                      <mediatype>audio</mediatype>
                      <trackindex>2</trackindex>
                    </sourcetrack>
                    <link>
                      <linkclipref>clipv-6</linkclipref>
                      <mediatype>video</mediatype>
                      <trackindex>1</trackindex>
                    </link>
                    <link>
                      <linkclipref>clipa1-6</linkclipref>
                      <mediatype>audio</mediatype>
                      <trackindex>1</trackindex>
                      <groupindex>1</groupindex>
                    </link>
                    <link>
                      <linkclipref>clipa2-6</linkclipref>
                      <mediatype>audio</mediatype>
                      <trackindex>2</trackindex>
                      <groupindex>1</groupindex>
                    </link>
                  </clipitem>
                </track>
              </audio>
            </media>
          </clip>
          <clip id="clip-7">
            <duration>119677</duration>
            <rate>
              <ntsc>false</ntsc>
              <timebase>25</timebase>
            </rate>
            <name>2024-07-15_CASINO_ANDRE-3000_PGM.mxf</name>
            <defaultangle>7</defaultangle>
            <media>
              <video>
                <track>
                  <clipitem id="clipv-7">
                    <duration>119677</duration>
                    <rate>
                      <ntsc>false</ntsc>
                      <timebase>25</timebase>
                    </rate>
                    <file id="src-7">
                      <name>2024-07-15_CASINO_ANDRE-3000_PGM.mxf</name>
                      <timecode>
                        <string>10:02:10:11</string>
                        <source>source</source>
                        <frame>903261</frame>
                      </timecode>
                      <pathurl>./2024-07-15_CASINO_ANDRE-3000_PGM.mxf</pathurl>
                      <media>
                        <audio>
                          <channelcount>2</channelcount>
                        </audio>
                        <video>
                          <samplecharacteristics>
                            <width>3840</width>
                            <height>2160</height>
                            <anamorphic>false</anamorphic>
                            <pixelaspectratio>square</pixelaspectratio>
                          </samplecharacteristics>
                        </video>
                      </media>
                    </file>
                    <sourcetrack>
                      <mediatype>video</mediatype>
                    </sourcetrack>
                    <link>
                      <linkclipref>clipv-7</linkclipref>
                      <mediatype>video</mediatype>
                      <trackindex>1</trackindex>
                    </link>
                    <link>
                      <linkclipref>clipa1-7</linkclipref>
                      <mediatype>audio</mediatype>
                      <trackindex>1</trackindex>
                      <groupindex>1</groupindex>
                    </link>
                    <link>
                      <linkclipref>clipa2-7</linkclipref>
                      <mediatype>audio</mediatype>
                      <trackindex>2</trackindex>
                      <groupindex>1</groupindex>
                    </link>
                  </clipitem>
                </track>
              </video>
              <audio>
                <track>
                  <clipitem id="clipa1-7">
                    <rate>
                      <ntsc>false</ntsc>
                      <timebase>25</timebase>
                    </rate>
                    <name>2024-07-15_CASINO_ANDRE-3000_PGM.mxf</name>
                    <file id="src-7"/>
                    <filter>
                      <effect>
                        <name>Audio Pan</name>
                        <effectid>audiopan</effectid>
                        <effectcategory>audiopan</effectcategory>
                        <effecttype>audiopan</effecttype>
                        <mediatype>audio</mediatype>
                        <parameter>
                          <name>Pan</name>
                          <parameterid>pan</parameterid>
                          <valuemin>-1</valuemin>
                          <valuemax>1</valuemax>
                          <value>-1</value>
                        </parameter>
                      </effect>
                    </filter>
                    <sourcetrack>
                      <mediatype>audio</mediatype>
                      <trackindex>1</trackindex>
                    </sourcetrack>
                    <link>
                      <linkclipref>clipv-7</linkclipref>
                      <mediatype>video</mediatype>
                      <trackindex>1</trackindex>
                    </link>
                    <link>
                      <linkclipref>clipa1-7</linkclipref>
                      <mediatype>audio</mediatype>
                      <trackindex>1</trackindex>
                      <groupindex>1</groupindex>
                    </link>
                    <link>
                      <linkclipref>clipa2-7</linkclipref>
                      <mediatype>audio</mediatype>
                      <trackindex>2</trackindex>
                      <groupindex>1</groupindex>
                    </link>
                  </clipitem>
                </track>
                <track>
                  <clipitem id="clipa2-7">
                    <rate>
                      <ntsc>false</ntsc>
                      <timebase>25</timebase>
                    </rate>
                    <name>2024-07-15_CASINO_ANDRE-3000_PGM.mxf</name>
                    <file id="src-7"/>
                    <filter>
                      <effect>
                        <name>Audio Pan</name>
                        <effectid>audiopan</effectid>
                        <effectcategory>audiopan</effectcategory>
                        <effecttype>audiopan</effecttype>
                        <mediatype>audio</mediatype>
                        <parameter>
                          <name>Pan</name>
                          <parameterid>pan</parameterid>
                          <valuemin>-1</valuemin>
                          <valuemax>1</valuemax>
                          <value>1</value>
                        </parameter>
                      </effect>
                    </filter>
                    <sourcetrack>
                      <mediatype>audio</mediatype>
                      <trackindex>2</trackindex>
                    </sourcetrack>
                    <link>
                      <linkclipref>clipv-7</linkclipref>
                      <mediatype>video</mediatype>
                      <trackindex>1</trackindex>
                    </link>
                    <link>
                      <linkclipref>clipa1-7</linkclipref>
                      <mediatype>audio</mediatype>
                      <trackindex>1</trackindex>
                      <groupindex>1</groupindex>
                    </link>
                    <link>
                      <linkclipref>clipa2-7</linkclipref>
                      <mediatype>audio</mediatype>
                      <trackindex>2</trackindex>
                      <groupindex>1</groupindex>
                    </link>
                  </clipitem>
                </track>
              </audio>
            </media>
          </clip>
        </children>
      </bin>
      <bin>
        <name>Bin</name>
        <children>
          <clip id="clip-master">
            <duration>119677</duration>
            <rate>
              <ntsc>false</ntsc>
              <timebase>25</timebase>
            </rate>
            <anamorphic>false</anamorphic>
            <ismasterclip>true</ismasterclip>
            <media>
              <video>
                <track>
                  <enabled>true</enabled>
                  <locked>false</locked>
                  <clipitem id="clip-multi">
                    <duration>119677</duration>
                    <rate>
                      <ntsc>false</ntsc>
                      <timebase>25</timebase>
                    </rate>
                    <name>Multiclip</name>
                    <sourcetrack>
                      <mediatype>video</mediatype>
                      <trackindex>1</trackindex>
                    </sourcetrack>
                    <anamorphic>false</anamorphic>
                    <multiclip id="multiclip-bin">
                      <name>MultiClip</name>
                      <collapsed>false</collapsed>
                      <masterclipid>clip-master</masterclipid>
                      <angle>
                        <clip id="clip-1"/>
                      </angle>
                      <angle>
                        <clip id="clip-2"/>
                      </angle>
                      <angle>
                        <clip id="clip-3"/>
                      </angle>
                      <angle>
                        <clip id="clip-4"/>
                      </angle>
                      <angle>
                        <clip id="clip-5"/>
                      </angle>
                      <angle>
                        <clip id="clip-6"/>
                      </angle>
                      <angle>
                        <clip id="clip-7"/>
                      </angle>
                    </multiclip>
                  </clipitem>
                </track>
              </video>
              <audio>
                <track>
                  <clipitem id="clipa1-multi">
                    <name>Multiclip</name>
                    <file id="src-1"/>
                    <sourcetrack>
                      <mediatype>audio</mediatype>
                      <trackindex>1</trackindex>
                    </sourcetrack>
                    <link>
                      <linkclipref>clip-multi</linkclipref>
                      <mediatype>video</mediatype>
                      <trackindex>1</trackindex>
                    </link>
                    <link>
                      <linkclipref>clipa1-multi</linkclipref>
                      <mediatype>audio</mediatype>
                      <trackindex>1</trackindex>
                      <groupindex>1</groupindex>
                    </link>
                    <link>
                      <linkclipref>clipa2-multi</linkclipref>
                      <mediatype>audio</mediatype>
                      <trackindex>2</trackindex>
                      <groupindex>1</groupindex>
                    </link>
                    <multiclip id="multiclip-bin"/>
                  </clipitem>
                </track>
                <track>
                  <clipitem id="clipa2-multi">
                    <name>Multiclip</name>
                    <file id="src-1"/>
                    <sourcetrack>
                      <mediatype>audio</mediatype>
                      <trackindex>2</trackindex>
                    </sourcetrack>
                    <link>
                      <linkclipref>clip-multi</linkclipref>
                      <mediatype>video</mediatype>
                      <trackindex>1</trackindex>
                    </link>
                    <link>
                      <linkclipref>clipa1-multi</linkclipref>
                      <mediatype>audio</mediatype>
                      <trackindex>1</trackindex>
                      <groupindex>1</groupindex>
                    </link>
                    <link>
                      <linkclipref>clipa2-multi</linkclipref>
                      <mediatype>audio</mediatype>
                      <trackindex>2</trackindex>
                      <groupindex>1</groupindex>
                    </link>
                    <multiclip id="multiclip-bin"/>
                  </clipitem>
                </track>
              </audio>
            </media>
          </clip>
        </children>
      </bin>
      <sequence>
        <name>Sequence</name>
        <duration>119677</duration>
        <rate>
          <ntsc>false</ntsc>
          <timebase>25</timebase>
        </rate>
        <timecode>
          <string>10:02:10:12</string>
          <frame>903262</frame>
        </timecode>
        <media>
          <video>
            <format>
              <samplecharacteristics>
                <width>3840</width>
                <height>2160</height>
                <anamorphic>false</anamorphic>
                <pixelaspectratio>square</pixelaspectratio>
                <rate>
                  <ntsc>false</ntsc>
                  <timebase>25</timebase>
                </rate>
              </samplecharacteristics>
            </format>
            <track>
              <clipitem id="cs-767">
                <duration>359</duration>
                <rate>
                  <ntsc>false</ntsc>
                  <timebase>25</timebase>
                </rate>
                <in>0</in>
                <out>358</out>
                <start>0</start>
                <end>358</end>
                <file id="src-6"/>
                <sourcetrack>
                  <mediatype>video</mediatype>
                  <trackindex>1</trackindex>
                </sourcetrack>
                <multiclip id="mcs-767">
                  <name>MCS-767</name>
                  <masterclipid>clip-master</masterclipid>
                  <collapsed>false</collapsed>
                  <angle>
                    <activevideoangle>false</activevideoangle>
                    <activeaudioangle>false</activeaudioangle>
                    <clip id="clip-1"/>
                  </angle>
                  <angle>
                    <activevideoangle>false</activevideoangle>
                    <activeaudioangle>false</activeaudioangle>
                    <clip id="clip-2"/>
                  </angle>
                  <angle>
                    <activevideoangle>false</activevideoangle>
                    <activeaudioangle>false</activeaudioangle>
                    <clip id="clip-3"/>
                  </angle>
                  <angle>
                    <activevideoangle>false</activevideoangle>
                    <activeaudioangle>false</activeaudioangle>
                    <clip id="clip-4"/>
                  </angle>
                  <angle>
                    <activevideoangle>false</activevideoangle>
                    <activeaudioangle>false</activeaudioangle>
                    <clip id="clip-5"/>
                  </angle>
                  <angle>
                    <activevideoangle>true</activevideoangle>
                    <activeaudioangle>true</activeaudioangle>
                    <clip id="clip-6"/>
                  </angle>
                  <angle>
                    <activevideoangle>false</activevideoangle>
                    <activeaudioangle>false</activeaudioangle>
                    <clip id="clip-7"/>
                  </angle>
                  <masterclipid>clip-master</masterclipid>
                </multiclip>
              </clipitem>
              <clipitem id="cs-768">
                <duration>1232</duration>
                <rate>
                  <ntsc>false</ntsc>
                  <timebase>25</timebase>
                </rate>
                <in>358</in>
                <out>1589</out>
                <start>358</start>
                <end>1589</end>
                <file id="src-1"/>
                <sourcetrack>
                  <mediatype>video</mediatype>
                  <trackindex>1</trackindex>
                </sourcetrack>
                <multiclip id="mcs-768">
                  <name>MCS-768</name>
                  <masterclipid>clip-master</masterclipid>
                  <collapsed>false</collapsed>
                  <angle>
                    <activevideoangle>true</activevideoangle>
                    <activeaudioangle>true</activeaudioangle>
                    <clip id="clip-1"/>
                  </angle>
                  <angle>
                    <activevideoangle>false</activevideoangle>
                    <activeaudioangle>false</activeaudioangle>
                    <clip id="clip-2"/>
                  </angle>
                  <angle>
                    <activevideoangle>false</activevideoangle>
                    <activeaudioangle>false</activeaudioangle>
                    <clip id="clip-3"/>
                  </angle>
                  <angle>
                    <activevideoangle>false</activevideoangle>
                    <activeaudioangle>false</activeaudioangle>
                    <clip id="clip-4"/>
                  </angle>
                  <angle>
                    <activevideoangle>false</activevideoangle>
                    <activeaudioangle>false</activeaudioangle>
                    <clip id="clip-5"/>
                  </angle>
                  <angle>
                    <activevideoangle>false</activevideoangle>
                    <activeaudioangle>false</activeaudioangle>
                    <clip id="clip-6"/>
                  </angle>
                  <angle>
                    <activevideoangle>false</activevideoangle>
                    <activeaudioangle>false</activeaudioangle>
                    <clip id="clip-7"/>
                  </angle>
                  <masterclipid>clip-master</masterclipid>
                </multiclip>
              </clipitem>
              <clipitem id="cs-769">
                <duration>213</duration>
                <rate>
                  <ntsc>false</ntsc>
                  <timebase>25</timebase>
                </rate>
                <in>1589</in>
                <out>1801</out>
                <start>1589</start>
                <end>1801</end>
                <file id="src-2"/>
                <sourcetrack>
                  <mediatype>video</mediatype>
                  <trackindex>1</trackindex>
                </sourcetrack>
                <multiclip id="mcs-769">
                  <name>MCS-769</name>
                  <masterclipid>clip-master</masterclipid>
                  <collapsed>false</collapsed>
                  <angle>
                    <activevideoangle>false</activevideoangle>
                    <activeaudioangle>false</activeaudioangle>
                    <clip id="clip-1"/>
                  </angle>
                  <angle>
                    <activevideoangle>true</activevideoangle>
                    <activeaudioangle>true</activeaudioangle>
                    <clip id="clip-2"/>
                  </angle>
                  <angle>
                    <activevideoangle>false</activevideoangle>
                    <activeaudioangle>false</activeaudioangle>
                    <clip id="clip-3"/>
                  </angle>
                  <angle>
                    <activevideoangle>false</activevideoangle>
                    <activeaudioangle>false</activeaudioangle>
                    <clip id="clip-4"/>
                  </angle>
                  <angle>
                    <activevideoangle>false</activevideoangle>
                    <activeaudioangle>false</activeaudioangle>
                    <clip id="clip-5"/>
                  </angle>
                  <angle>
                    <activevideoangle>false</activevideoangle>
                    <activeaudioangle>false</activeaudioangle>
                    <clip id="clip-6"/>
                  </angle>
                  <angle>
                    <activevideoangle>false</activevideoangle>
                    <activeaudioangle>false</activeaudioangle>
                    <clip id="clip-7"/>
                  </angle>
                  <masterclipid>clip-master</masterclipid>
                </multiclip>
              </clipitem>
              <clipitem id="cs-770">
                <duration>365</duration>
                <rate>
                  <ntsc>false</ntsc>
                  <timebase>25</timebase>
                </rate>
                <in>1801</in>
                <out>2165</out>
                <start>1801</start>
                <end>2165</end>
                <file id="src-3"/>
                <sourcetrack>
                  <mediatype>video</mediatype>
                  <trackindex>1</trackindex>
                </sourcetrack>
                <multiclip id="mcs-770">
                  <name>MCS-770</name>
                  <masterclipid>clip-master</masterclipid>
                  <collapsed>false</collapsed>
                  <angle>
                    <activevideoangle>false</activevideoangle>
                    <activeaudioangle>false</activeaudioangle>
                    <clip id="clip-1"/>
                  </angle>
                  <angle>
                    <activevideoangle>false</activevideoangle>
                    <activeaudioangle>false</activeaudioangle>
                    <clip id="clip-2"/>
                  </angle>
                  <angle>
                    <activevideoangle>true</activevideoangle>
                    <activeaudioangle>true</activeaudioangle>
                    <clip id="clip-3"/>
                  </angle>
                  <angle>
                    <activevideoangle>false</activevideoangle>
                    <activeaudioangle>false</activeaudioangle>
                    <clip id="clip-4"/>
                  </angle>
                  <angle>
                    <activevideoangle>false</activevideoangle>
                    <activeaudioangle>false</activeaudioangle>
                    <clip id="clip-5"/>
                  </angle>
                  <angle>
                    <activevideoangle>false</activevideoangle>
                    <activeaudioangle>false</activeaudioangle>
                    <clip id="clip-6"/>
                  </angle>
                  <angle>
                    <activevideoangle>false</activevideoangle>
                    <activeaudioangle>false</activeaudioangle>
                    <clip id="clip-7"/>
                  </angle>
                  <masterclipid>clip-master</masterclipid>
                </multiclip>
              </clipitem>
              <clipitem id="cs-771">
                <duration>217</duration>
                <rate>
                  <ntsc>false</ntsc>
                  <timebase>25</timebase>
                </rate>
                <in>2165</in>
                <out>2381</out>
                <start>2165</start>
                <end>2381</end>
                <file id="src-4"/>
                <sourcetrack>
                  <mediatype>video</mediatype>
                  <trackindex>1</trackindex>
                </sourcetrack>
                <multiclip id="mcs-771">
                  <name>MCS-771</name>
                  <masterclipid>clip-master</masterclipid>
                  <collapsed>false</collapsed>
                  <angle>
                    <activevideoangle>false</activevideoangle>
                    <activeaudioangle>false</activeaudioangle>
                    <clip id="clip-1"/>
                  </angle>
                  <angle>
                    <activevideoangle>false</activevideoangle>
                    <activeaudioangle>false</activeaudioangle>
                    <clip id="clip-2"/>
                  </angle>
                  <angle>
                    <activevideoangle>false</activevideoangle>
                    <activeaudioangle>false</activeaudioangle>
                    <clip id="clip-3"/>
                  </angle>
                  <angle>
                    <activevideoangle>true</activevideoangle>
                    <activeaudioangle>true</activeaudioangle>
                    <clip id="clip-4"/>
                  </angle>
                  <angle>
                    <activevideoangle>false</activevideoangle>
                    <activeaudioangle>false</activeaudioangle>
                    <clip id="clip-5"/>
                  </angle>
                  <angle>
                    <activevideoangle>false</activevideoangle>
                    <activeaudioangle>false</activeaudioangle>
                    <clip id="clip-6"/>
                  </angle>
                  <angle>
                    <activevideoangle>false</activevideoangle>
                    <activeaudioangle>false</activeaudioangle>
                    <clip id="clip-7"/>
                  </angle>
                  <masterclipid>clip-master</masterclipid>
                </multiclip>
              </clipitem>
              <clipitem id="cs-772">
                <duration>278</duration>
                <rate>
                  <ntsc>false</ntsc>
                  <timebase>25</timebase>
                </rate>
                <in>2381</in>
                <out>2658</out>
                <start>2381</start>
                <end>2658</end>
                <file id="src-1"/>
                <sourcetrack>
                  <mediatype>video</mediatype>
                  <trackindex>1</trackindex>
                </sourcetrack>
                <multiclip id="mcs-772">
                  <name>MCS-772</name>
                  <masterclipid>clip-master</masterclipid>
                  <collapsed>false</collapsed>
                  <angle>
                    <activevideoangle>true</activevideoangle>
                    <activeaudioangle>true</activeaudioangle>
                    <clip id="clip-1"/>
                  </angle>
                  <angle>
                    <activevideoangle>false</activevideoangle>
                    <activeaudioangle>false</activeaudioangle>
                    <clip id="clip-2"/>
                  </angle>
                  <angle>
                    <activevideoangle>false</activevideoangle>
                    <activeaudioangle>false</activeaudioangle>
                    <clip id="clip-3"/>
                  </angle>
                  <angle>
                    <activevideoangle>false</activevideoangle>
                    <activeaudioangle>false</activeaudioangle>
                    <clip id="clip-4"/>
                  </angle>
                  <angle>
                    <activevideoangle>false</activevideoangle>
                    <activeaudioangle>false</activeaudioangle>
                    <clip id="clip-5"/>
                  </angle>
                  <angle>
                    <activevideoangle>false</activevideoangle>
                    <activeaudioangle>false</activeaudioangle>
                    <clip id="clip-6"/>
                  </angle>
                  <angle>
                    <activevideoangle>false</activevideoangle>
                    <activeaudioangle>false</activeaudioangle>
                    <clip id="clip-7"/>
                  </angle>
                  <masterclipid>clip-master</masterclipid>
                </multiclip>
              </clipitem>
              <clipitem id="cs-773">
                <duration>355</duration>
                <rate>
                  <ntsc>false</ntsc>
                  <timebase>25</timebase>
                </rate>
                <in>2658</in>
                <out>3012</out>
                <start>2658</start>
                <end>3012</end>
                <file id="src-2"/>
                <sourcetrack>
                  <mediatype>video</mediatype>
                  <trackindex>1</trackindex>
                </sourcetrack>
                <multiclip id="mcs-773">
                  <name>MCS-773</name>
                  <masterclipid>clip-master</masterclipid>
                  <collapsed>false</collapsed>
                  <angle>
                    <activevideoangle>false</activevideoangle>
                    <activeaudioangle>false</activeaudioangle>
                    <clip id="clip-1"/>
                  </angle>
                  <angle>
                    <activevideoangle>true</activevideoangle>
                    <activeaudioangle>true</activeaudioangle>
                    <clip id="clip-2"/>
                  </angle>
                  <angle>
                    <activevideoangle>false</activevideoangle>
                    <activeaudioangle>false</activeaudioangle>
                    <clip id="clip-3"/>
                  </angle>
                  <angle>
                    <activevideoangle>false</activevideoangle>
                    <activeaudioangle>false</activeaudioangle>
                    <clip id="clip-4"/>
                  </angle>
                  <angle>
                    <activevideoangle>false</activevideoangle>
                    <activeaudioangle>false</activeaudioangle>
                    <clip id="clip-5"/>
                  </angle>
                  <angle>
                    <activevideoangle>false</activevideoangle>
                    <activeaudioangle>false</activeaudioangle>
                    <clip id="clip-6"/>
                  </angle>
                  <angle>
                    <activevideoangle>false</activevideoangle>
                    <activeaudioangle>false</activeaudioangle>
                    <clip id="clip-7"/>
                  </angle>
                  <masterclipid>clip-master</masterclipid>
                </multiclip>
              </clipitem>
              <clipitem id="cs-774">
                <duration>199</duration>
                <rate>
                  <ntsc>false</ntsc>
                  <timebase>25</timebase>
                </rate>
                <in>3012</in>
                <out>3210</out>
                <start>3012</start>
                <end>3210</end>
                <file id="src-3"/>
                <sourcetrack>
                  <mediatype>video</mediatype>
                  <trackindex>1</trackindex>
                </sourcetrack>
                <multiclip id="mcs-774">
                  <name>MCS-774</name>
                  <masterclipid>clip-master</masterclipid>
                  <collapsed>false</collapsed>
                  <angle>
                    <activevideoangle>false</activevideoangle>
                    <activeaudioangle>false</activeaudioangle>
                    <clip id="clip-1"/>
                  </angle>
                  <angle>
                    <activevideoangle>false</activevideoangle>
                    <activeaudioangle>false</activeaudioangle>
                    <clip id="clip-2"/>
                  </angle>
                  <angle>
                    <activevideoangle>true</activevideoangle>
                    <activeaudioangle>true</activeaudioangle>
                    <clip id="clip-3"/>
                  </angle>
                  <angle>
                    <activevideoangle>false</activevideoangle>
                    <activeaudioangle>false</activeaudioangle>
                    <clip id="clip-4"/>
                  </angle>
                  <angle>
                    <activevideoangle>false</activevideoangle>
                    <activeaudioangle>false</activeaudioangle>
                    <clip id="clip-5"/>
                  </angle>
                  <angle>
                    <activevideoangle>false</activevideoangle>
                    <activeaudioangle>false</activeaudioangle>
                    <clip id="clip-6"/>
                  </angle>
                  <angle>
                    <activevideoangle>false</activevideoangle>
                    <activeaudioangle>false</activeaudioangle>
                    <clip id="clip-7"/>
                  </angle>
                  <masterclipid>clip-master</masterclipid>
                </multiclip>
              </clipitem>
              <clipitem id="cs-775">
                <duration>515</duration>
                <rate>
                  <ntsc>false</ntsc>
                  <timebase>25</timebase>
                </rate>
                <in>3210</in>
                <out>3724</out>
                <start>3210</start>
                <end>3724</end>
                <file id="src-4"/>
                <sourcetrack>
                  <mediatype>video</mediatype>
                  <trackindex>1</trackindex>
                </sourcetrack>
                <multiclip id="mcs-775">
                  <name>MCS-775</name>
                  <masterclipid>clip-master</masterclipid>
                  <collapsed>false</collapsed>
                  <angle>
                    <activevideoangle>false</activevideoangle>
                    <activeaudioangle>false</activeaudioangle>
                    <clip id="clip-1"/>
                  </angle>
                  <angle>
                    <activevideoangle>false</activevideoangle>
                    <activeaudioangle>false</activeaudioangle>
                    <clip id="clip-2"/>
                  </angle>
                  <angle>
                    <activevideoangle>false</activevideoangle>
                    <activeaudioangle>false</activeaudioangle>
                    <clip id="clip-3"/>
                  </angle>
                  <angle>
                    <activevideoangle>true</activevideoangle>
                    <activeaudioangle>true</activeaudioangle>
                    <clip id="clip-4"/>
                  </angle>
                  <angle>
                    <activevideoangle>false</activevideoangle>
                    <activeaudioangle>false</activeaudioangle>
                    <clip id="clip-5"/>
                  </angle>
                  <angle>
                    <activevideoangle>false</activevideoangle>
                    <activeaudioangle>false</activeaudioangle>
                    <clip id="clip-6"/>
                  </angle>
                  <angle>
                    <activevideoangle>false</activevideoangle>
                    <activeaudioangle>false</activeaudioangle>
                    <clip id="clip-7"/>
                  </angle>
                  <masterclipid>clip-master</masterclipid>
                </multiclip>
              </clipitem>
              <clipitem id="cs-776">
                <duration>134</duration>
                <rate>
                  <ntsc>false</ntsc>
                  <timebase>25</timebase>
                </rate>
                <in>3724</in>
                <out>3857</out>
                <start>3724</start>
                <end>3857</end>
                <file id="src-1"/>
                <sourcetrack>
                  <mediatype>video</mediatype>
                  <trackindex>1</trackindex>
                </sourcetrack>
                <multiclip id="mcs-776">
                  <name>MCS-776</name>
                  <masterclipid>clip-master</masterclipid>
                  <collapsed>false</collapsed>
                  <angle>
                    <activevideoangle>true</activevideoangle>
                    <activeaudioangle>true</activeaudioangle>
                    <clip id="clip-1"/>
                  </angle>
                  <angle>
                    <activevideoangle>false</activevideoangle>
                    <activeaudioangle>false</activeaudioangle>
                    <clip id="clip-2"/>
                  </angle>
                  <angle>
                    <activevideoangle>false</activevideoangle>
                    <activeaudioangle>false</activeaudioangle>
                    <clip id="clip-3"/>
                  </angle>
                  <angle>
                    <activevideoangle>false</activevideoangle>
                    <activeaudioangle>false</activeaudioangle>
                    <clip id="clip-4"/>
                  </angle>
                  <angle>
                    <activevideoangle>false</activevideoangle>
                    <activeaudioangle>false</activeaudioangle>
                    <clip id="clip-5"/>
                  </angle>
                  <angle>
                    <activevideoangle>false</activevideoangle>
                    <activeaudioangle>false</activeaudioangle>
                    <clip id="clip-6"/>
                  </angle>
                  <angle>
                    <activevideoangle>false</activevideoangle>
                    <activeaudioangle>false</activeaudioangle>
                    <clip id="clip-7"/>
                  </angle>
                  <masterclipid>clip-master</masterclipid>
                </multiclip>
              </clipitem>
              <clipitem id="cs-777">
                <duration>161</duration>
                <rate>
                  <ntsc>false</ntsc>
                  <timebase>25</timebase>
                </rate>
                <in>3857</in>
                <out>4017</out>
                <start>3857</start>
                <end>4017</end>
                <file id="src-6"/>
                <sourcetrack>
                  <mediatype>video</mediatype>
                  <trackindex>1</trackindex>
                </sourcetrack>
                <multiclip id="mcs-777">
                  <name>MCS-777</name>
                  <masterclipid>clip-master</masterclipid>
                  <collapsed>false</collapsed>
                  <angle>
                    <activevideoangle>false</activevideoangle>
                    <activeaudioangle>false</activeaudioangle>
                    <clip id="clip-1"/>
                  </angle>
                  <angle>
                    <activevideoangle>false</activevideoangle>
                    <activeaudioangle>false</activeaudioangle>
                    <clip id="clip-2"/>
                  </angle>
                  <angle>
                    <activevideoangle>false</activevideoangle>
                    <activeaudioangle>false</activeaudioangle>
                    <clip id="clip-3"/>
                  </angle>
                  <angle>
                    <activevideoangle>false</activevideoangle>
                    <activeaudioangle>false</activeaudioangle>
                    <clip id="clip-4"/>
                  </angle>
                  <angle>
                    <activevideoangle>false</activevideoangle>
                    <activeaudioangle>false</activeaudioangle>
                    <clip id="clip-5"/>
                  </angle>
                  <angle>
                    <activevideoangle>true</activevideoangle>
                    <activeaudioangle>true</activeaudioangle>
                    <clip id="clip-6"/>
                  </angle>
                  <angle>
                    <activevideoangle>false</activevideoangle>
                    <activeaudioangle>false</activeaudioangle>
                    <clip id="clip-7"/>
                  </angle>
                  <masterclipid>clip-master</masterclipid>
                </multiclip>
              </clipitem>
              <clipitem id="cs-778">
                <duration>268</duration>
                <rate>
                  <ntsc>false</ntsc>
                  <timebase>25</timebase>
                </rate>
                <in>4017</in>
                <out>4284</out>
                <start>4017</start>
                <end>4284</end>
                <file id="src-3"/>
                <sourcetrack>
                  <mediatype>video</mediatype>
                  <trackindex>1</trackindex>
                </sourcetrack>
                <multiclip id="mcs-778">
                  <name>MCS-778</name>
                  <masterclipid>clip-master</masterclipid>
                  <collapsed>false</collapsed>
                  <angle>
                    <activevideoangle>false</activevideoangle>
                    <activeaudioangle>false</activeaudioangle>
                    <clip id="clip-1"/>
                  </angle>
                  <angle>
                    <activevideoangle>false</activevideoangle>
                    <activeaudioangle>false</activeaudioangle>
                    <clip id="clip-2"/>
                  </angle>
                  <angle>
                    <activevideoangle>true</activevideoangle>
                    <activeaudioangle>true</activeaudioangle>
                    <clip id="clip-3"/>
                  </angle>
                  <angle>
                    <activevideoangle>false</activevideoangle>
                    <activeaudioangle>false</activeaudioangle>
                    <clip id="clip-4"/>
                  </angle>
                  <angle>
                    <activevideoangle>false</activevideoangle>
                    <activeaudioangle>false</activeaudioangle>
                    <clip id="clip-5"/>
                  </angle>
                  <angle>
                    <activevideoangle>false</activevideoangle>
                    <activeaudioangle>false</activeaudioangle>
                    <clip id="clip-6"/>
                  </angle>
                  <angle>
                    <activevideoangle>false</activevideoangle>
                    <activeaudioangle>false</activeaudioangle>
                    <clip id="clip-7"/>
                  </angle>
                  <masterclipid>clip-master</masterclipid>
                </multiclip>
              </clipitem>
              <clipitem id="cs-779">
                <duration>243</duration>
                <rate>
                  <ntsc>false</ntsc>
                  <timebase>25</timebase>
                </rate>
                <in>4284</in>
                <out>4526</out>
                <start>4284</start>
                <end>4526</end>
                <file id="src-2"/>
                <sourcetrack>
                  <mediatype>video</mediatype>
                  <trackindex>1</trackindex>
                </sourcetrack>
                <multiclip id="mcs-779">
                  <name>MCS-779</name>
                  <masterclipid>clip-master</masterclipid>
                  <collapsed>false</collapsed>
                  <angle>
                    <activevideoangle>false</activevideoangle>
                    <activeaudioangle>false</activeaudioangle>
                    <clip id="clip-1"/>
                  </angle>
                  <angle>
                    <activevideoangle>true</activevideoangle>
                    <activeaudioangle>true</activeaudioangle>
                    <clip id="clip-2"/>
                  </angle>
                  <angle>
                    <activevideoangle>false</activevideoangle>
                    <activeaudioangle>false</activeaudioangle>
                    <clip id="clip-3"/>
                  </angle>
                  <angle>
                    <activevideoangle>false</activevideoangle>
                    <activeaudioangle>false</activeaudioangle>
                    <clip id="clip-4"/>
                  </angle>
                  <angle>
                    <activevideoangle>false</activevideoangle>
                    <activeaudioangle>false</activeaudioangle>
                    <clip id="clip-5"/>
                  </angle>
                  <angle>
                    <activevideoangle>false</activevideoangle>
                    <activeaudioangle>false</activeaudioangle>
                    <clip id="clip-6"/>
                  </angle>
                  <angle>
                    <activevideoangle>false</activevideoangle>
                    <activeaudioangle>false</activeaudioangle>
                    <clip id="clip-7"/>
                  </angle>
                  <masterclipid>clip-master</masterclipid>
                </multiclip>
              </clipitem>
              <clipitem id="cs-780">
                <duration>512</duration>
                <rate>
                  <ntsc>false</ntsc>
                  <timebase>25</timebase>
                </rate>
                <in>4526</in>
                <out>5037</out>
                <start>4526</start>
                <end>5037</end>
                <file id="src-3"/>
                <sourcetrack>
                  <mediatype>video</mediatype>
                  <trackindex>1</trackindex>
                </sourcetrack>
                <multiclip id="mcs-780">
                  <name>MCS-780</name>
                  <masterclipid>clip-master</masterclipid>
                  <collapsed>false</collapsed>
                  <angle>
                    <activevideoangle>false</activevideoangle>
                    <activeaudioangle>false</activeaudioangle>
                    <clip id="clip-1"/>
                  </angle>
                  <angle>
                    <activevideoangle>false</activevideoangle>
                    <activeaudioangle>false</activeaudioangle>
                    <clip id="clip-2"/>
                  </angle>
                  <angle>
                    <activevideoangle>true</activevideoangle>
                    <activeaudioangle>true</activeaudioangle>
                    <clip id="clip-3"/>
                  </angle>
                  <angle>
                    <activevideoangle>false</activevideoangle>
                    <activeaudioangle>false</activeaudioangle>
                    <clip id="clip-4"/>
                  </angle>
                  <angle>
                    <activevideoangle>false</activevideoangle>
                    <activeaudioangle>false</activeaudioangle>
                    <clip id="clip-5"/>
                  </angle>
                  <angle>
                    <activevideoangle>false</activevideoangle>
                    <activeaudioangle>false</activeaudioangle>
                    <clip id="clip-6"/>
                  </angle>
                  <angle>
                    <activevideoangle>false</activevideoangle>
                    <activeaudioangle>false</activeaudioangle>
                    <clip id="clip-7"/>
                  </angle>
                  <masterclipid>clip-master</masterclipid>
                </multiclip>
              </clipitem>
              <clipitem id="cs-781">
                <duration>139</duration>
                <rate>
                  <ntsc>false</ntsc>
                  <timebase>25</timebase>
                </rate>
                <in>5037</in>
                <out>5175</out>
                <start>5037</start>
                <end>5175</end>
                <file id="src-4"/>
                <sourcetrack>
                  <mediatype>video</mediatype>
                  <trackindex>1</trackindex>
                </sourcetrack>
                <multiclip id="mcs-781">
                  <name>MCS-781</name>
                  <masterclipid>clip-master</masterclipid>
                  <collapsed>false</collapsed>
                  <angle>
                    <activevideoangle>false</activevideoangle>
                    <activeaudioangle>false</activeaudioangle>
                    <clip id="clip-1"/>
                  </angle>
                  <angle>
                    <activevideoangle>false</activevideoangle>
                    <activeaudioangle>false</activeaudioangle>
                    <clip id="clip-2"/>
                  </angle>
                  <angle>
                    <activevideoangle>false</activevideoangle>
                    <activeaudioangle>false</activeaudioangle>
                    <clip id="clip-3"/>
                  </angle>
                  <angle>
                    <activevideoangle>true</activevideoangle>
                    <activeaudioangle>true</activeaudioangle>
                    <clip id="clip-4"/>
                  </angle>
                  <angle>
                    <activevideoangle>false</activevideoangle>
                    <activeaudioangle>false</activeaudioangle>
                    <clip id="clip-5"/>
                  </angle>
                  <angle>
                    <activevideoangle>false</activevideoangle>
                    <activeaudioangle>false</activeaudioangle>
                    <clip id="clip-6"/>
                  </angle>
                  <angle>
                    <activevideoangle>false</activevideoangle>
                    <activeaudioangle>false</activeaudioangle>
                    <clip id="clip-7"/>
                  </angle>
                  <masterclipid>clip-master</masterclipid>
                </multiclip>
              </clipitem>
              <clipitem id="cs-782">
                <duration>135</duration>
                <rate>
                  <ntsc>false</ntsc>
                  <timebase>25</timebase>
                </rate>
                <in>5175</in>
                <out>5309</out>
                <start>5175</start>
                <end>5309</end>
                <file id="src-2"/>
                <sourcetrack>
                  <mediatype>video</mediatype>
                  <trackindex>1</trackindex>
                </sourcetrack>
                <multiclip id="mcs-782">
                  <name>MCS-782</name>
                  <masterclipid>clip-master</masterclipid>
                  <collapsed>false</collapsed>
                  <angle>
                    <activevideoangle>false</activevideoangle>
                    <activeaudioangle>false</activeaudioangle>
                    <clip id="clip-1"/>
                  </angle>
                  <angle>
                    <activevideoangle>true</activevideoangle>
                    <activeaudioangle>true</activeaudioangle>
                    <clip id="clip-2"/>
                  </angle>
                  <angle>
                    <activevideoangle>false</activevideoangle>
                    <activeaudioangle>false</activeaudioangle>
                    <clip id="clip-3"/>
                  </angle>
                  <angle>
                    <activevideoangle>false</activevideoangle>
                    <activeaudioangle>false</activeaudioangle>
                    <clip id="clip-4"/>
                  </angle>
                  <angle>
                    <activevideoangle>false</activevideoangle>
                    <activeaudioangle>false</activeaudioangle>
                    <clip id="clip-5"/>
                  </angle>
                  <angle>
                    <activevideoangle>false</activevideoangle>
                    <activeaudioangle>false</activeaudioangle>
                    <clip id="clip-6"/>
                  </angle>
                  <angle>
                    <activevideoangle>false</activevideoangle>
                    <activeaudioangle>false</activeaudioangle>
                    <clip id="clip-7"/>
                  </angle>
                  <masterclipid>clip-master</masterclipid>
                </multiclip>
              </clipitem>
              <clipitem id="cs-783">
                <duration>366</duration>
                <rate>
                  <ntsc>false</ntsc>
                  <timebase>25</timebase>
                </rate>
                <in>5309</in>
                <out>5674</out>
                <start>5309</start>
                <end>5674</end>
                <file id="src-3"/>
                <sourcetrack>
                  <mediatype>video</mediatype>
                  <trackindex>1</trackindex>
                </sourcetrack>
                <multiclip id="mcs-783">
                  <name>MCS-783</name>
                  <masterclipid>clip-master</masterclipid>
                  <collapsed>false</collapsed>
                  <angle>
                    <activevideoangle>false</activevideoangle>
                    <activeaudioangle>false</activeaudioangle>
                    <clip id="clip-1"/>
                  </angle>
                  <angle>
                    <activevideoangle>false</activevideoangle>
                    <activeaudioangle>false</activeaudioangle>
                    <clip id="clip-2"/>
                  </angle>
                  <angle>
                    <activevideoangle>true</activevideoangle>
                    <activeaudioangle>true</activeaudioangle>
                    <clip id="clip-3"/>
                  </angle>
                  <angle>
                    <activevideoangle>false</activevideoangle>
                    <activeaudioangle>false</activeaudioangle>
                    <clip id="clip-4"/>
                  </angle>
                  <angle>
                    <activevideoangle>false</activevideoangle>
                    <activeaudioangle>false</activeaudioangle>
                    <clip id="clip-5"/>
                  </angle>
                  <angle>
                    <activevideoangle>false</activevideoangle>
                    <activeaudioangle>false</activeaudioangle>
                    <clip id="clip-6"/>
                  </angle>
                  <angle>
                    <activevideoangle>false</activevideoangle>
                    <activeaudioangle>false</activeaudioangle>
                    <clip id="clip-7"/>
                  </angle>
                  <masterclipid>clip-master</masterclipid>
                </multiclip>
              </clipitem>
              <clipitem id="cs-784">
                <duration>349</duration>
                <rate>
                  <ntsc>false</ntsc>
                  <timebase>25</timebase>
                </rate>
                <in>5674</in>
                <out>6022</out>
                <start>5674</start>
                <end>6022</end>
                <file id="src-1"/>
                <sourcetrack>
                  <mediatype>video</mediatype>
                  <trackindex>1</trackindex>
                </sourcetrack>
                <multiclip id="mcs-784">
                  <name>MCS-784</name>
                  <masterclipid>clip-master</masterclipid>
                  <collapsed>false</collapsed>
                  <angle>
                    <activevideoangle>true</activevideoangle>
                    <activeaudioangle>true</activeaudioangle>
                    <clip id="clip-1"/>
                  </angle>
                  <angle>
                    <activevideoangle>false</activevideoangle>
                    <activeaudioangle>false</activeaudioangle>
                    <clip id="clip-2"/>
                  </angle>
                  <angle>
                    <activevideoangle>false</activevideoangle>
                    <activeaudioangle>false</activeaudioangle>
                    <clip id="clip-3"/>
                  </angle>
                  <angle>
                    <activevideoangle>false</activevideoangle>
                    <activeaudioangle>false</activeaudioangle>
                    <clip id="clip-4"/>
                  </angle>
                  <angle>
                    <activevideoangle>false</activevideoangle>
                    <activeaudioangle>false</activeaudioangle>
                    <clip id="clip-5"/>
                  </angle>
                  <angle>
                    <activevideoangle>false</activevideoangle>
                    <activeaudioangle>false</activeaudioangle>
                    <clip id="clip-6"/>
                  </angle>
                  <angle>
                    <activevideoangle>false</activevideoangle>
                    <activeaudioangle>false</activeaudioangle>
                    <clip id="clip-7"/>
                  </angle>
                  <masterclipid>clip-master</masterclipid>
                </multiclip>
              </clipitem>
              <clipitem id="cs-785">
                <duration>347</duration>
                <rate>
                  <ntsc>false</ntsc>
                  <timebase>25</timebase>
                </rate>
                <in>6022</in>
                <out>6368</out>
                <start>6022</start>
                <end>6368</end>
                <file id="src-2"/>
                <sourcetrack>
                  <mediatype>video</mediatype>
                  <trackindex>1</trackindex>
                </sourcetrack>
                <multiclip id="mcs-785">
                  <name>MCS-785</name>
                  <masterclipid>clip-master</masterclipid>
                  <collapsed>false</collapsed>
                  <angle>
                    <activevideoangle>false</activevideoangle>
                    <activeaudioangle>false</activeaudioangle>
                    <clip id="clip-1"/>
                  </angle>
                  <angle>
                    <activevideoangle>true</activevideoangle>
                    <activeaudioangle>true</activeaudioangle>
                    <clip id="clip-2"/>
                  </angle>
                  <angle>
                    <activevideoangle>false</activevideoangle>
                    <activeaudioangle>false</activeaudioangle>
                    <clip id="clip-3"/>
                  </angle>
                  <angle>
                    <activevideoangle>false</activevideoangle>
                    <activeaudioangle>false</activeaudioangle>
                    <clip id="clip-4"/>
                  </angle>
                  <angle>
                    <activevideoangle>false</activevideoangle>
                    <activeaudioangle>false</activeaudioangle>
                    <clip id="clip-5"/>
                  </angle>
                  <angle>
                    <activevideoangle>false</activevideoangle>
                    <activeaudioangle>false</activeaudioangle>
                    <clip id="clip-6"/>
                  </angle>
                  <angle>
                    <activevideoangle>false</activevideoangle>
                    <activeaudioangle>false</activeaudioangle>
                    <clip id="clip-7"/>
                  </angle>
                  <masterclipid>clip-master</masterclipid>
                </multiclip>
              </clipitem>
              <clipitem id="cs-786">
                <duration>256</duration>
                <rate>
                  <ntsc>false</ntsc>
                  <timebase>25</timebase>
                </rate>
                <in>6368</in>
                <out>6623</out>
                <start>6368</start>
                <end>6623</end>
                <file id="src-1"/>
                <sourcetrack>
                  <mediatype>video</mediatype>
                  <trackindex>1</trackindex>
                </sourcetrack>
                <multiclip id="mcs-786">
                  <name>MCS-786</name>
                  <masterclipid>clip-master</masterclipid>
                  <collapsed>false</collapsed>
                  <angle>
                    <activevideoangle>true</activevideoangle>
                    <activeaudioangle>true</activeaudioangle>
                    <clip id="clip-1"/>
                  </angle>
                  <angle>
                    <activevideoangle>false</activevideoangle>
                    <activeaudioangle>false</activeaudioangle>
                    <clip id="clip-2"/>
                  </angle>
                  <angle>
                    <activevideoangle>false</activevideoangle>
                    <activeaudioangle>false</activeaudioangle>
                    <clip id="clip-3"/>
                  </angle>
                  <angle>
                    <activevideoangle>false</activevideoangle>
                    <activeaudioangle>false</activeaudioangle>
                    <clip id="clip-4"/>
                  </angle>
                  <angle>
                    <activevideoangle>false</activevideoangle>
                    <activeaudioangle>false</activeaudioangle>
                    <clip id="clip-5"/>
                  </angle>
                  <angle>
                    <activevideoangle>false</activevideoangle>
                    <activeaudioangle>false</activeaudioangle>
                    <clip id="clip-6"/>
                  </angle>
                  <angle>
                    <activevideoangle>false</activevideoangle>
                    <activeaudioangle>false</activeaudioangle>
                    <clip id="clip-7"/>
                  </angle>
                  <masterclipid>clip-master</masterclipid>
                </multiclip>
              </clipitem>
              <clipitem id="cs-787">
                <duration>400</duration>
                <rate>
                  <ntsc>false</ntsc>
                  <timebase>25</timebase>
                </rate>
                <in>6623</in>
                <out>7022</out>
                <start>6623</start>
                <end>7022</end>
                <file id="src-3"/>
                <sourcetrack>
                  <mediatype>video</mediatype>
                  <trackindex>1</trackindex>
                </sourcetrack>
                <multiclip id="mcs-787">
                  <name>MCS-787</name>
                  <masterclipid>clip-master</masterclipid>
                  <collapsed>false</collapsed>
                  <angle>
                    <activevideoangle>false</activevideoangle>
                    <activeaudioangle>false</activeaudioangle>
                    <clip id="clip-1"/>
                  </angle>
                  <angle>
                    <activevideoangle>false</activevideoangle>
                    <activeaudioangle>false</activeaudioangle>
                    <clip id="clip-2"/>
                  </angle>
                  <angle>
                    <activevideoangle>true</activevideoangle>
                    <activeaudioangle>true</activeaudioangle>
                    <clip id="clip-3"/>
                  </angle>
                  <angle>
                    <activevideoangle>false</activevideoangle>
                    <activeaudioangle>false</activeaudioangle>
                    <clip id="clip-4"/>
                  </angle>
                  <angle>
                    <activevideoangle>false</activevideoangle>
                    <activeaudioangle>false</activeaudioangle>
                    <clip id="clip-5"/>
                  </angle>
                  <angle>
                    <activevideoangle>false</activevideoangle>
                    <activeaudioangle>false</activeaudioangle>
                    <clip id="clip-6"/>
                  </angle>
                  <angle>
                    <activevideoangle>false</activevideoangle>
                    <activeaudioangle>false</activeaudioangle>
                    <clip id="clip-7"/>
                  </angle>
                  <masterclipid>clip-master</masterclipid>
                </multiclip>
              </clipitem>
              <clipitem id="cs-788">
                <duration>313</duration>
                <rate>
                  <ntsc>false</ntsc>
                  <timebase>25</timebase>
                </rate>
                <in>7022</in>
                <out>7334</out>
                <start>7022</start>
                <end>7334</end>
                <file id="src-4"/>
                <sourcetrack>
                  <mediatype>video</mediatype>
                  <trackindex>1</trackindex>
                </sourcetrack>
                <multiclip id="mcs-788">
                  <name>MCS-788</name>
                  <masterclipid>clip-master</masterclipid>
                  <collapsed>false</collapsed>
                  <angle>
                    <activevideoangle>false</activevideoangle>
                    <activeaudioangle>false</activeaudioangle>
                    <clip id="clip-1"/>
                  </angle>
                  <angle>
                    <activevideoangle>false</activevideoangle>
                    <activeaudioangle>false</activeaudioangle>
                    <clip id="clip-2"/>
                  </angle>
                  <angle>
                    <activevideoangle>false</activevideoangle>
                    <activeaudioangle>false</activeaudioangle>
                    <clip id="clip-3"/>
                  </angle>
                  <angle>
                    <activevideoangle>true</activevideoangle>
                    <activeaudioangle>true</activeaudioangle>
                    <clip id="clip-4"/>
                  </angle>
                  <angle>
                    <activevideoangle>false</activevideoangle>
                    <activeaudioangle>false</activeaudioangle>
                    <clip id="clip-5"/>
                  </angle>
                  <angle>
                    <activevideoangle>false</activevideoangle>
                    <activeaudioangle>false</activeaudioangle>
                    <clip id="clip-6"/>
                  </angle>
                  <angle>
                    <activevideoangle>false</activevideoangle>
                    <activeaudioangle>false</activeaudioangle>
                    <clip id="clip-7"/>
                  </angle>
                  <masterclipid>clip-master</masterclipid>
                </multiclip>
              </clipitem>
              <clipitem id="cs-789">
                <duration>180</duration>
                <rate>
                  <ntsc>false</ntsc>
                  <timebase>25</timebase>
                </rate>
                <in>7334</in>
                <out>7513</out>
                <start>7334</start>
                <end>7513</end>
                <file id="src-2"/>
                <sourcetrack>
                  <mediatype>video</mediatype>
                  <trackindex>1</trackindex>
                </sourcetrack>
                <multiclip id="mcs-789">
                  <name>MCS-789</name>
                  <masterclipid>clip-master</masterclipid>
                  <collapsed>false</collapsed>
                  <angle>
                    <activevideoangle>false</activevideoangle>
                    <activeaudioangle>false</activeaudioangle>
                    <clip id="clip-1"/>
                  </angle>
                  <angle>
                    <activevideoangle>true</activevideoangle>
                    <activeaudioangle>true</activeaudioangle>
                    <clip id="clip-2"/>
                  </angle>
                  <angle>
                    <activevideoangle>false</activevideoangle>
                    <activeaudioangle>false</activeaudioangle>
                    <clip id="clip-3"/>
                  </angle>
                  <angle>
                    <activevideoangle>false</activevideoangle>
                    <activeaudioangle>false</activeaudioangle>
                    <clip id="clip-4"/>
                  </angle>
                  <angle>
                    <activevideoangle>false</activevideoangle>
                    <activeaudioangle>false</activeaudioangle>
                    <clip id="clip-5"/>
                  </angle>
                  <angle>
                    <activevideoangle>false</activevideoangle>
                    <activeaudioangle>false</activeaudioangle>
                    <clip id="clip-6"/>
                  </angle>
                  <angle>
                    <activevideoangle>false</activevideoangle>
                    <activeaudioangle>false</activeaudioangle>
                    <clip id="clip-7"/>
                  </angle>
                  <masterclipid>clip-master</masterclipid>
                </multiclip>
              </clipitem>
              <clipitem id="cs-790">
                <duration>173</duration>
                <rate>
                  <ntsc>false</ntsc>
                  <timebase>25</timebase>
                </rate>
                <in>7513</in>
                <out>7685</out>
                <start>7513</start>
                <end>7685</end>
                <file id="src-3"/>
                <sourcetrack>
                  <mediatype>video</mediatype>
                  <trackindex>1</trackindex>
                </sourcetrack>
                <multiclip id="mcs-790">
                  <name>MCS-790</name>
                  <masterclipid>clip-master</masterclipid>
                  <collapsed>false</collapsed>
                  <angle>
                    <activevideoangle>false</activevideoangle>
                    <activeaudioangle>false</activeaudioangle>
                    <clip id="clip-1"/>
                  </angle>
                  <angle>
                    <activevideoangle>false</activevideoangle>
                    <activeaudioangle>false</activeaudioangle>
                    <clip id="clip-2"/>
                  </angle>
                  <angle>
                    <activevideoangle>true</activevideoangle>
                    <activeaudioangle>true</activeaudioangle>
                    <clip id="clip-3"/>
                  </angle>
                  <angle>
                    <activevideoangle>false</activevideoangle>
                    <activeaudioangle>false</activeaudioangle>
                    <clip id="clip-4"/>
                  </angle>
                  <angle>
                    <activevideoangle>false</activevideoangle>
                    <activeaudioangle>false</activeaudioangle>
                    <clip id="clip-5"/>
                  </angle>
                  <angle>
                    <activevideoangle>false</activevideoangle>
                    <activeaudioangle>false</activeaudioangle>
                    <clip id="clip-6"/>
                  </angle>
                  <angle>
                    <activevideoangle>false</activevideoangle>
                    <activeaudioangle>false</activeaudioangle>
                    <clip id="clip-7"/>
                  </angle>
                  <masterclipid>clip-master</masterclipid>
                </multiclip>
              </clipitem>
              <clipitem id="cs-791">
                <duration>327</duration>
                <rate>
                  <ntsc>false</ntsc>
                  <timebase>25</timebase>
                </rate>
                <in>7685</in>
                <out>8011</out>
                <start>7685</start>
                <end>8011</end>
                <file id="src-2"/>
                <sourcetrack>
                  <mediatype>video</mediatype>
                  <trackindex>1</trackindex>
                </sourcetrack>
                <multiclip id="mcs-791">
                  <name>MCS-791</name>
                  <masterclipid>clip-master</masterclipid>
                  <collapsed>false</collapsed>
                  <angle>
                    <activevideoangle>false</activevideoangle>
                    <activeaudioangle>false</activeaudioangle>
                    <clip id="clip-1"/>
                  </angle>
                  <angle>
                    <activevideoangle>true</activevideoangle>
                    <activeaudioangle>true</activeaudioangle>
                    <clip id="clip-2"/>
                  </angle>
                  <angle>
                    <activevideoangle>false</activevideoangle>
                    <activeaudioangle>false</activeaudioangle>
                    <clip id="clip-3"/>
                  </angle>
                  <angle>
                    <activevideoangle>false</activevideoangle>
                    <activeaudioangle>false</activeaudioangle>
                    <clip id="clip-4"/>
                  </angle>
                  <angle>
                    <activevideoangle>false</activevideoangle>
                    <activeaudioangle>false</activeaudioangle>
                    <clip id="clip-5"/>
                  </angle>
                  <angle>
                    <activevideoangle>false</activevideoangle>
                    <activeaudioangle>false</activeaudioangle>
                    <clip id="clip-6"/>
                  </angle>
                  <angle>
                    <activevideoangle>false</activevideoangle>
                    <activeaudioangle>false</activeaudioangle>
                    <clip id="clip-7"/>
                  </angle>
                  <masterclipid>clip-master</masterclipid>
                </multiclip>
              </clipitem>
              <clipitem id="cs-792">
                <duration>208</duration>
                <rate>
                  <ntsc>false</ntsc>
                  <timebase>25</timebase>
                </rate>
                <in>8011</in>
                <out>8218</out>
                <start>8011</start>
                <end>8218</end>
                <file id="src-6"/>
                <sourcetrack>
                  <mediatype>video</mediatype>
                  <trackindex>1</trackindex>
                </sourcetrack>
                <multiclip id="mcs-792">
                  <name>MCS-792</name>
                  <masterclipid>clip-master</masterclipid>
                  <collapsed>false</collapsed>
                  <angle>
                    <activevideoangle>false</activevideoangle>
                    <activeaudioangle>false</activeaudioangle>
                    <clip id="clip-1"/>
                  </angle>
                  <angle>
                    <activevideoangle>false</activevideoangle>
                    <activeaudioangle>false</activeaudioangle>
                    <clip id="clip-2"/>
                  </angle>
                  <angle>
                    <activevideoangle>false</activevideoangle>
                    <activeaudioangle>false</activeaudioangle>
                    <clip id="clip-3"/>
                  </angle>
                  <angle>
                    <activevideoangle>false</activevideoangle>
                    <activeaudioangle>false</activeaudioangle>
                    <clip id="clip-4"/>
                  </angle>
                  <angle>
                    <activevideoangle>false</activevideoangle>
                    <activeaudioangle>false</activeaudioangle>
                    <clip id="clip-5"/>
                  </angle>
                  <angle>
                    <activevideoangle>true</activevideoangle>
                    <activeaudioangle>true</activeaudioangle>
                    <clip id="clip-6"/>
                  </angle>
                  <angle>
                    <activevideoangle>false</activevideoangle>
                    <activeaudioangle>false</activeaudioangle>
                    <clip id="clip-7"/>
                  </angle>
                  <masterclipid>clip-master</masterclipid>
                </multiclip>
              </clipitem>
              <clipitem id="cs-793">
                <duration>213</duration>
                <rate>
                  <ntsc>false</ntsc>
                  <timebase>25</timebase>
                </rate>
                <in>8218</in>
                <out>8430</out>
                <start>8218</start>
                <end>8430</end>
                <file id="src-1"/>
                <sourcetrack>
                  <mediatype>video</mediatype>
                  <trackindex>1</trackindex>
                </sourcetrack>
                <multiclip id="mcs-793">
                  <name>MCS-793</name>
                  <masterclipid>clip-master</masterclipid>
                  <collapsed>false</collapsed>
                  <angle>
                    <activevideoangle>true</activevideoangle>
                    <activeaudioangle>true</activeaudioangle>
                    <clip id="clip-1"/>
                  </angle>
                  <angle>
                    <activevideoangle>false</activevideoangle>
                    <activeaudioangle>false</activeaudioangle>
                    <clip id="clip-2"/>
                  </angle>
                  <angle>
                    <activevideoangle>false</activevideoangle>
                    <activeaudioangle>false</activeaudioangle>
                    <clip id="clip-3"/>
                  </angle>
                  <angle>
                    <activevideoangle>false</activevideoangle>
                    <activeaudioangle>false</activeaudioangle>
                    <clip id="clip-4"/>
                  </angle>
                  <angle>
                    <activevideoangle>false</activevideoangle>
                    <activeaudioangle>false</activeaudioangle>
                    <clip id="clip-5"/>
                  </angle>
                  <angle>
                    <activevideoangle>false</activevideoangle>
                    <activeaudioangle>false</activeaudioangle>
                    <clip id="clip-6"/>
                  </angle>
                  <angle>
                    <activevideoangle>false</activevideoangle>
                    <activeaudioangle>false</activeaudioangle>
                    <clip id="clip-7"/>
                  </angle>
                  <masterclipid>clip-master</masterclipid>
                </multiclip>
              </clipitem>
              <clipitem id="cs-794">
                <duration>625</duration>
                <rate>
                  <ntsc>false</ntsc>
                  <timebase>25</timebase>
                </rate>
                <in>8430</in>
                <out>9054</out>
                <start>8430</start>
                <end>9054</end>
                <file id="src-3"/>
                <sourcetrack>
                  <mediatype>video</mediatype>
                  <trackindex>1</trackindex>
                </sourcetrack>
                <multiclip id="mcs-794">
                  <name>MCS-794</name>
                  <masterclipid>clip-master</masterclipid>
                  <collapsed>false</collapsed>
                  <angle>
                    <activevideoangle>false</activevideoangle>
                    <activeaudioangle>false</activeaudioangle>
                    <clip id="clip-1"/>
                  </angle>
                  <angle>
                    <activevideoangle>false</activevideoangle>
                    <activeaudioangle>false</activeaudioangle>
                    <clip id="clip-2"/>
                  </angle>
                  <angle>
                    <activevideoangle>true</activevideoangle>
                    <activeaudioangle>true</activeaudioangle>
                    <clip id="clip-3"/>
                  </angle>
                  <angle>
                    <activevideoangle>false</activevideoangle>
                    <activeaudioangle>false</activeaudioangle>
                    <clip id="clip-4"/>
                  </angle>
                  <angle>
                    <activevideoangle>false</activevideoangle>
                    <activeaudioangle>false</activeaudioangle>
                    <clip id="clip-5"/>
                  </angle>
                  <angle>
                    <activevideoangle>false</activevideoangle>
                    <activeaudioangle>false</activeaudioangle>
                    <clip id="clip-6"/>
                  </angle>
                  <angle>
                    <activevideoangle>false</activevideoangle>
                    <activeaudioangle>false</activeaudioangle>
                    <clip id="clip-7"/>
                  </angle>
                  <masterclipid>clip-master</masterclipid>
                </multiclip>
              </clipitem>
              <clipitem id="cs-795">
                <duration>124</duration>
                <rate>
                  <ntsc>false</ntsc>
                  <timebase>25</timebase>
                </rate>
                <in>9054</in>
                <out>9177</out>
                <start>9054</start>
                <end>9177</end>
                <file id="src-4"/>
                <sourcetrack>
                  <mediatype>video</mediatype>
                  <trackindex>1</trackindex>
                </sourcetrack>
                <multiclip id="mcs-795">
                  <name>MCS-795</name>
                  <masterclipid>clip-master</masterclipid>
                  <collapsed>false</collapsed>
                  <angle>
                    <activevideoangle>false</activevideoangle>
                    <activeaudioangle>false</activeaudioangle>
                    <clip id="clip-1"/>
                  </angle>
                  <angle>
                    <activevideoangle>false</activevideoangle>
                    <activeaudioangle>false</activeaudioangle>
                    <clip id="clip-2"/>
                  </angle>
                  <angle>
                    <activevideoangle>false</activevideoangle>
                    <activeaudioangle>false</activeaudioangle>
                    <clip id="clip-3"/>
                  </angle>
                  <angle>
                    <activevideoangle>true</activevideoangle>
                    <activeaudioangle>true</activeaudioangle>
                    <clip id="clip-4"/>
                  </angle>
                  <angle>
                    <activevideoangle>false</activevideoangle>
                    <activeaudioangle>false</activeaudioangle>
                    <clip id="clip-5"/>
                  </angle>
                  <angle>
                    <activevideoangle>false</activevideoangle>
                    <activeaudioangle>false</activeaudioangle>
                    <clip id="clip-6"/>
                  </angle>
                  <angle>
                    <activevideoangle>false</activevideoangle>
                    <activeaudioangle>false</activeaudioangle>
                    <clip id="clip-7"/>
                  </angle>
                  <masterclipid>clip-master</masterclipid>
                </multiclip>
              </clipitem>
              <clipitem id="cs-796">
                <duration>322</duration>
                <rate>
                  <ntsc>false</ntsc>
                  <timebase>25</timebase>
                </rate>
                <in>9177</in>
                <out>9498</out>
                <start>9177</start>
                <end>9498</end>
                <file id="src-2"/>
                <sourcetrack>
                  <mediatype>video</mediatype>
                  <trackindex>1</trackindex>
                </sourcetrack>
                <multiclip id="mcs-796">
                  <name>MCS-796</name>
                  <masterclipid>clip-master</masterclipid>
                  <collapsed>false</collapsed>
                  <angle>
                    <activevideoangle>false</activevideoangle>
                    <activeaudioangle>false</activeaudioangle>
                    <clip id="clip-1"/>
                  </angle>
                  <angle>
                    <activevideoangle>true</activevideoangle>
                    <activeaudioangle>true</activeaudioangle>
                    <clip id="clip-2"/>
                  </angle>
                  <angle>
                    <activevideoangle>false</activevideoangle>
                    <activeaudioangle>false</activeaudioangle>
                    <clip id="clip-3"/>
                  </angle>
                  <angle>
                    <activevideoangle>false</activevideoangle>
                    <activeaudioangle>false</activeaudioangle>
                    <clip id="clip-4"/>
                  </angle>
                  <angle>
                    <activevideoangle>false</activevideoangle>
                    <activeaudioangle>false</activeaudioangle>
                    <clip id="clip-5"/>
                  </angle>
                  <angle>
                    <activevideoangle>false</activevideoangle>
                    <activeaudioangle>false</activeaudioangle>
                    <clip id="clip-6"/>
                  </angle>
                  <angle>
                    <activevideoangle>false</activevideoangle>
                    <activeaudioangle>false</activeaudioangle>
                    <clip id="clip-7"/>
                  </angle>
                  <masterclipid>clip-master</masterclipid>
                </multiclip>
              </clipitem>
              <clipitem id="cs-797">
                <duration>228</duration>
                <rate>
                  <ntsc>false</ntsc>
                  <timebase>25</timebase>
                </rate>
                <in>9498</in>
                <out>9725</out>
                <start>9498</start>
                <end>9725</end>
                <file id="src-3"/>
                <sourcetrack>
                  <mediatype>video</mediatype>
                  <trackindex>1</trackindex>
                </sourcetrack>
                <multiclip id="mcs-797">
                  <name>MCS-797</name>
                  <masterclipid>clip-master</masterclipid>
                  <collapsed>false</collapsed>
                  <angle>
                    <activevideoangle>false</activevideoangle>
                    <activeaudioangle>false</activeaudioangle>
                    <clip id="clip-1"/>
                  </angle>
                  <angle>
                    <activevideoangle>false</activevideoangle>
                    <activeaudioangle>false</activeaudioangle>
                    <clip id="clip-2"/>
                  </angle>
                  <angle>
                    <activevideoangle>true</activevideoangle>
                    <activeaudioangle>true</activeaudioangle>
                    <clip id="clip-3"/>
                  </angle>
                  <angle>
                    <activevideoangle>false</activevideoangle>
                    <activeaudioangle>false</activeaudioangle>
                    <clip id="clip-4"/>
                  </angle>
                  <angle>
                    <activevideoangle>false</activevideoangle>
                    <activeaudioangle>false</activeaudioangle>
                    <clip id="clip-5"/>
                  </angle>
                  <angle>
                    <activevideoangle>false</activevideoangle>
                    <activeaudioangle>false</activeaudioangle>
                    <clip id="clip-6"/>
                  </angle>
                  <angle>
                    <activevideoangle>false</activevideoangle>
                    <activeaudioangle>false</activeaudioangle>
                    <clip id="clip-7"/>
                  </angle>
                  <masterclipid>clip-master</masterclipid>
                </multiclip>
              </clipitem>
              <clipitem id="cs-798">
                <duration>168</duration>
                <rate>
                  <ntsc>false</ntsc>
                  <timebase>25</timebase>
                </rate>
                <in>9725</in>
                <out>9892</out>
                <start>9725</start>
                <end>9892</end>
                <file id="src-2"/>
                <sourcetrack>
                  <mediatype>video</mediatype>
                  <trackindex>1</trackindex>
                </sourcetrack>
                <multiclip id="mcs-798">
                  <name>MCS-798</name>
                  <masterclipid>clip-master</masterclipid>
                  <collapsed>false</collapsed>
                  <angle>
                    <activevideoangle>false</activevideoangle>
                    <activeaudioangle>false</activeaudioangle>
                    <clip id="clip-1"/>
                  </angle>
                  <angle>
                    <activevideoangle>true</activevideoangle>
                    <activeaudioangle>true</activeaudioangle>
                    <clip id="clip-2"/>
                  </angle>
                  <angle>
                    <activevideoangle>false</activevideoangle>
                    <activeaudioangle>false</activeaudioangle>
                    <clip id="clip-3"/>
                  </angle>
                  <angle>
                    <activevideoangle>false</activevideoangle>
                    <activeaudioangle>false</activeaudioangle>
                    <clip id="clip-4"/>
                  </angle>
                  <angle>
                    <activevideoangle>false</activevideoangle>
                    <activeaudioangle>false</activeaudioangle>
                    <clip id="clip-5"/>
                  </angle>
                  <angle>
                    <activevideoangle>false</activevideoangle>
                    <activeaudioangle>false</activeaudioangle>
                    <clip id="clip-6"/>
                  </angle>
                  <angle>
                    <activevideoangle>false</activevideoangle>
                    <activeaudioangle>false</activeaudioangle>
                    <clip id="clip-7"/>
                  </angle>
                  <masterclipid>clip-master</masterclipid>
                </multiclip>
              </clipitem>
              <clipitem id="cs-799">
                <duration>438</duration>
                <rate>
                  <ntsc>false</ntsc>
                  <timebase>25</timebase>
                </rate>
                <in>9892</in>
                <out>10329</out>
                <start>9892</start>
                <end>10329</end>
                <file id="src-3"/>
                <sourcetrack>
                  <mediatype>video</mediatype>
                  <trackindex>1</trackindex>
                </sourcetrack>
                <multiclip id="mcs-799">
                  <name>MCS-799</name>
                  <masterclipid>clip-master</masterclipid>
                  <collapsed>false</collapsed>
                  <angle>
                    <activevideoangle>false</activevideoangle>
                    <activeaudioangle>false</activeaudioangle>
                    <clip id="clip-1"/>
                  </angle>
                  <angle>
                    <activevideoangle>false</activevideoangle>
                    <activeaudioangle>false</activeaudioangle>
                    <clip id="clip-2"/>
                  </angle>
                  <angle>
                    <activevideoangle>true</activevideoangle>
                    <activeaudioangle>true</activeaudioangle>
                    <clip id="clip-3"/>
                  </angle>
                  <angle>
                    <activevideoangle>false</activevideoangle>
                    <activeaudioangle>false</activeaudioangle>
                    <clip id="clip-4"/>
                  </angle>
                  <angle>
                    <activevideoangle>false</activevideoangle>
                    <activeaudioangle>false</activeaudioangle>
                    <clip id="clip-5"/>
                  </angle>
                  <angle>
                    <activevideoangle>false</activevideoangle>
                    <activeaudioangle>false</activeaudioangle>
                    <clip id="clip-6"/>
                  </angle>
                  <angle>
                    <activevideoangle>false</activevideoangle>
                    <activeaudioangle>false</activeaudioangle>
                    <clip id="clip-7"/>
                  </angle>
                  <masterclipid>clip-master</masterclipid>
                </multiclip>
              </clipitem>
              <clipitem id="cs-800">
                <duration>295</duration>
                <rate>
                  <ntsc>false</ntsc>
                  <timebase>25</timebase>
                </rate>
                <in>10329</in>
                <out>10623</out>
                <start>10329</start>
                <end>10623</end>
                <file id="src-4"/>
                <sourcetrack>
                  <mediatype>video</mediatype>
                  <trackindex>1</trackindex>
                </sourcetrack>
                <multiclip id="mcs-800">
                  <name>MCS-800</name>
                  <masterclipid>clip-master</masterclipid>
                  <collapsed>false</collapsed>
                  <angle>
                    <activevideoangle>false</activevideoangle>
                    <activeaudioangle>false</activeaudioangle>
                    <clip id="clip-1"/>
                  </angle>
                  <angle>
                    <activevideoangle>false</activevideoangle>
                    <activeaudioangle>false</activeaudioangle>
                    <clip id="clip-2"/>
                  </angle>
                  <angle>
                    <activevideoangle>false</activevideoangle>
                    <activeaudioangle>false</activeaudioangle>
                    <clip id="clip-3"/>
                  </angle>
                  <angle>
                    <activevideoangle>true</activevideoangle>
                    <activeaudioangle>true</activeaudioangle>
                    <clip id="clip-4"/>
                  </angle>
                  <angle>
                    <activevideoangle>false</activevideoangle>
                    <activeaudioangle>false</activeaudioangle>
                    <clip id="clip-5"/>
                  </angle>
                  <angle>
                    <activevideoangle>false</activevideoangle>
                    <activeaudioangle>false</activeaudioangle>
                    <clip id="clip-6"/>
                  </angle>
                  <angle>
                    <activevideoangle>false</activevideoangle>
                    <activeaudioangle>false</activeaudioangle>
                    <clip id="clip-7"/>
                  </angle>
                  <masterclipid>clip-master</masterclipid>
                </multiclip>
              </clipitem>
              <clipitem id="cs-801">
                <duration>346</duration>
                <rate>
                  <ntsc>false</ntsc>
                  <timebase>25</timebase>
                </rate>
                <in>10623</in>
                <out>10968</out>
                <start>10623</start>
                <end>10968</end>
                <file id="src-6"/>
                <sourcetrack>
                  <mediatype>video</mediatype>
                  <trackindex>1</trackindex>
                </sourcetrack>
                <multiclip id="mcs-801">
                  <name>MCS-801</name>
                  <masterclipid>clip-master</masterclipid>
                  <collapsed>false</collapsed>
                  <angle>
                    <activevideoangle>false</activevideoangle>
                    <activeaudioangle>false</activeaudioangle>
                    <clip id="clip-1"/>
                  </angle>
                  <angle>
                    <activevideoangle>false</activevideoangle>
                    <activeaudioangle>false</activeaudioangle>
                    <clip id="clip-2"/>
                  </angle>
                  <angle>
                    <activevideoangle>false</activevideoangle>
                    <activeaudioangle>false</activeaudioangle>
                    <clip id="clip-3"/>
                  </angle>
                  <angle>
                    <activevideoangle>false</activevideoangle>
                    <activeaudioangle>false</activeaudioangle>
                    <clip id="clip-4"/>
                  </angle>
                  <angle>
                    <activevideoangle>false</activevideoangle>
                    <activeaudioangle>false</activeaudioangle>
                    <clip id="clip-5"/>
                  </angle>
                  <angle>
                    <activevideoangle>true</activevideoangle>
                    <activeaudioangle>true</activeaudioangle>
                    <clip id="clip-6"/>
                  </angle>
                  <angle>
                    <activevideoangle>false</activevideoangle>
                    <activeaudioangle>false</activeaudioangle>
                    <clip id="clip-7"/>
                  </angle>
                  <masterclipid>clip-master</masterclipid>
                </multiclip>
              </clipitem>
              <clipitem id="cs-802">
                <duration>254</duration>
                <rate>
                  <ntsc>false</ntsc>
                  <timebase>25</timebase>
                </rate>
                <in>10968</in>
                <out>11221</out>
                <start>10968</start>
                <end>11221</end>
                <file id="src-3"/>
                <sourcetrack>
                  <mediatype>video</mediatype>
                  <trackindex>1</trackindex>
                </sourcetrack>
                <multiclip id="mcs-802">
                  <name>MCS-802</name>
                  <masterclipid>clip-master</masterclipid>
                  <collapsed>false</collapsed>
                  <angle>
                    <activevideoangle>false</activevideoangle>
                    <activeaudioangle>false</activeaudioangle>
                    <clip id="clip-1"/>
                  </angle>
                  <angle>
                    <activevideoangle>false</activevideoangle>
                    <activeaudioangle>false</activeaudioangle>
                    <clip id="clip-2"/>
                  </angle>
                  <angle>
                    <activevideoangle>true</activevideoangle>
                    <activeaudioangle>true</activeaudioangle>
                    <clip id="clip-3"/>
                  </angle>
                  <angle>
                    <activevideoangle>false</activevideoangle>
                    <activeaudioangle>false</activeaudioangle>
                    <clip id="clip-4"/>
                  </angle>
                  <angle>
                    <activevideoangle>false</activevideoangle>
                    <activeaudioangle>false</activeaudioangle>
                    <clip id="clip-5"/>
                  </angle>
                  <angle>
                    <activevideoangle>false</activevideoangle>
                    <activeaudioangle>false</activeaudioangle>
                    <clip id="clip-6"/>
                  </angle>
                  <angle>
                    <activevideoangle>false</activevideoangle>
                    <activeaudioangle>false</activeaudioangle>
                    <clip id="clip-7"/>
                  </angle>
                  <masterclipid>clip-master</masterclipid>
                </multiclip>
              </clipitem>
              <clipitem id="cs-803">
                <duration>83</duration>
                <rate>
                  <ntsc>false</ntsc>
                  <timebase>25</timebase>
                </rate>
                <in>11221</in>
                <out>11303</out>
                <start>11221</start>
                <end>11303</end>
                <file id="src-1"/>
                <sourcetrack>
                  <mediatype>video</mediatype>
                  <trackindex>1</trackindex>
                </sourcetrack>
                <multiclip id="mcs-803">
                  <name>MCS-803</name>
                  <masterclipid>clip-master</masterclipid>
                  <collapsed>false</collapsed>
                  <angle>
                    <activevideoangle>true</activevideoangle>
                    <activeaudioangle>true</activeaudioangle>
                    <clip id="clip-1"/>
                  </angle>
                  <angle>
                    <activevideoangle>false</activevideoangle>
                    <activeaudioangle>false</activeaudioangle>
                    <clip id="clip-2"/>
                  </angle>
                  <angle>
                    <activevideoangle>false</activevideoangle>
                    <activeaudioangle>false</activeaudioangle>
                    <clip id="clip-3"/>
                  </angle>
                  <angle>
                    <activevideoangle>false</activevideoangle>
                    <activeaudioangle>false</activeaudioangle>
                    <clip id="clip-4"/>
                  </angle>
                  <angle>
                    <activevideoangle>false</activevideoangle>
                    <activeaudioangle>false</activeaudioangle>
                    <clip id="clip-5"/>
                  </angle>
                  <angle>
                    <activevideoangle>false</activevideoangle>
                    <activeaudioangle>false</activeaudioangle>
                    <clip id="clip-6"/>
                  </angle>
                  <angle>
                    <activevideoangle>false</activevideoangle>
                    <activeaudioangle>false</activeaudioangle>
                    <clip id="clip-7"/>
                  </angle>
                  <masterclipid>clip-master</masterclipid>
                </multiclip>
              </clipitem>
              <clipitem id="cs-804">
                <duration>186</duration>
                <rate>
                  <ntsc>false</ntsc>
                  <timebase>25</timebase>
                </rate>
                <in>11303</in>
                <out>11488</out>
                <start>11303</start>
                <end>11488</end>
                <file id="src-3"/>
                <sourcetrack>
                  <mediatype>video</mediatype>
                  <trackindex>1</trackindex>
                </sourcetrack>
                <multiclip id="mcs-804">
                  <name>MCS-804</name>
                  <masterclipid>clip-master</masterclipid>
                  <collapsed>false</collapsed>
                  <angle>
                    <activevideoangle>false</activevideoangle>
                    <activeaudioangle>false</activeaudioangle>
                    <clip id="clip-1"/>
                  </angle>
                  <angle>
                    <activevideoangle>false</activevideoangle>
                    <activeaudioangle>false</activeaudioangle>
                    <clip id="clip-2"/>
                  </angle>
                  <angle>
                    <activevideoangle>true</activevideoangle>
                    <activeaudioangle>true</activeaudioangle>
                    <clip id="clip-3"/>
                  </angle>
                  <angle>
                    <activevideoangle>false</activevideoangle>
                    <activeaudioangle>false</activeaudioangle>
                    <clip id="clip-4"/>
                  </angle>
                  <angle>
                    <activevideoangle>false</activevideoangle>
                    <activeaudioangle>false</activeaudioangle>
                    <clip id="clip-5"/>
                  </angle>
                  <angle>
                    <activevideoangle>false</activevideoangle>
                    <activeaudioangle>false</activeaudioangle>
                    <clip id="clip-6"/>
                  </angle>
                  <angle>
                    <activevideoangle>false</activevideoangle>
                    <activeaudioangle>false</activeaudioangle>
                    <clip id="clip-7"/>
                  </angle>
                  <masterclipid>clip-master</masterclipid>
                </multiclip>
              </clipitem>
              <clipitem id="cs-805">
                <duration>191</duration>
                <rate>
                  <ntsc>false</ntsc>
                  <timebase>25</timebase>
                </rate>
                <in>11488</in>
                <out>11678</out>
                <start>11488</start>
                <end>11678</end>
                <file id="src-5"/>
                <sourcetrack>
                  <mediatype>video</mediatype>
                  <trackindex>1</trackindex>
                </sourcetrack>
                <multiclip id="mcs-805">
                  <name>MCS-805</name>
                  <masterclipid>clip-master</masterclipid>
                  <collapsed>false</collapsed>
                  <angle>
                    <activevideoangle>false</activevideoangle>
                    <activeaudioangle>false</activeaudioangle>
                    <clip id="clip-1"/>
                  </angle>
                  <angle>
                    <activevideoangle>false</activevideoangle>
                    <activeaudioangle>false</activeaudioangle>
                    <clip id="clip-2"/>
                  </angle>
                  <angle>
                    <activevideoangle>false</activevideoangle>
                    <activeaudioangle>false</activeaudioangle>
                    <clip id="clip-3"/>
                  </angle>
                  <angle>
                    <activevideoangle>false</activevideoangle>
                    <activeaudioangle>false</activeaudioangle>
                    <clip id="clip-4"/>
                  </angle>
                  <angle>
                    <activevideoangle>true</activevideoangle>
                    <activeaudioangle>true</activeaudioangle>
                    <clip id="clip-5"/>
                  </angle>
                  <angle>
                    <activevideoangle>false</activevideoangle>
                    <activeaudioangle>false</activeaudioangle>
                    <clip id="clip-6"/>
                  </angle>
                  <angle>
                    <activevideoangle>false</activevideoangle>
                    <activeaudioangle>false</activeaudioangle>
                    <clip id="clip-7"/>
                  </angle>
                  <masterclipid>clip-master</masterclipid>
                </multiclip>
              </clipitem>
              <clipitem id="cs-806">
                <duration>348</duration>
                <rate>
                  <ntsc>false</ntsc>
                  <timebase>25</timebase>
                </rate>
                <in>11678</in>
                <out>12025</out>
                <start>11678</start>
                <end>12025</end>
                <file id="src-3"/>
                <sourcetrack>
                  <mediatype>video</mediatype>
                  <trackindex>1</trackindex>
                </sourcetrack>
                <multiclip id="mcs-806">
                  <name>MCS-806</name>
                  <masterclipid>clip-master</masterclipid>
                  <collapsed>false</collapsed>
                  <angle>
                    <activevideoangle>false</activevideoangle>
                    <activeaudioangle>false</activeaudioangle>
                    <clip id="clip-1"/>
                  </angle>
                  <angle>
                    <activevideoangle>false</activevideoangle>
                    <activeaudioangle>false</activeaudioangle>
                    <clip id="clip-2"/>
                  </angle>
                  <angle>
                    <activevideoangle>true</activevideoangle>
                    <activeaudioangle>true</activeaudioangle>
                    <clip id="clip-3"/>
                  </angle>
                  <angle>
                    <activevideoangle>false</activevideoangle>
                    <activeaudioangle>false</activeaudioangle>
                    <clip id="clip-4"/>
                  </angle>
                  <angle>
                    <activevideoangle>false</activevideoangle>
                    <activeaudioangle>false</activeaudioangle>
                    <clip id="clip-5"/>
                  </angle>
                  <angle>
                    <activevideoangle>false</activevideoangle>
                    <activeaudioangle>false</activeaudioangle>
                    <clip id="clip-6"/>
                  </angle>
                  <angle>
                    <activevideoangle>false</activevideoangle>
                    <activeaudioangle>false</activeaudioangle>
                    <clip id="clip-7"/>
                  </angle>
                  <masterclipid>clip-master</masterclipid>
                </multiclip>
              </clipitem>
              <clipitem id="cs-807">
                <duration>347</duration>
                <rate>
                  <ntsc>false</ntsc>
                  <timebase>25</timebase>
                </rate>
                <in>12025</in>
                <out>12371</out>
                <start>12025</start>
                <end>12371</end>
                <file id="src-4"/>
                <sourcetrack>
                  <mediatype>video</mediatype>
                  <trackindex>1</trackindex>
                </sourcetrack>
                <multiclip id="mcs-807">
                  <name>MCS-807</name>
                  <masterclipid>clip-master</masterclipid>
                  <collapsed>false</collapsed>
                  <angle>
                    <activevideoangle>false</activevideoangle>
                    <activeaudioangle>false</activeaudioangle>
                    <clip id="clip-1"/>
                  </angle>
                  <angle>
                    <activevideoangle>false</activevideoangle>
                    <activeaudioangle>false</activeaudioangle>
                    <clip id="clip-2"/>
                  </angle>
                  <angle>
                    <activevideoangle>false</activevideoangle>
                    <activeaudioangle>false</activeaudioangle>
                    <clip id="clip-3"/>
                  </angle>
                  <angle>
                    <activevideoangle>true</activevideoangle>
                    <activeaudioangle>true</activeaudioangle>
                    <clip id="clip-4"/>
                  </angle>
                  <angle>
                    <activevideoangle>false</activevideoangle>
                    <activeaudioangle>false</activeaudioangle>
                    <clip id="clip-5"/>
                  </angle>
                  <angle>
                    <activevideoangle>false</activevideoangle>
                    <activeaudioangle>false</activeaudioangle>
                    <clip id="clip-6"/>
                  </angle>
                  <angle>
                    <activevideoangle>false</activevideoangle>
                    <activeaudioangle>false</activeaudioangle>
                    <clip id="clip-7"/>
                  </angle>
                  <masterclipid>clip-master</masterclipid>
                </multiclip>
              </clipitem>
              <clipitem id="cs-808">
                <duration>336</duration>
                <rate>
                  <ntsc>false</ntsc>
                  <timebase>25</timebase>
                </rate>
                <in>12371</in>
                <out>12706</out>
                <start>12371</start>
                <end>12706</end>
                <file id="src-3"/>
                <sourcetrack>
                  <mediatype>video</mediatype>
                  <trackindex>1</trackindex>
                </sourcetrack>
                <multiclip id="mcs-808">
                  <name>MCS-808</name>
                  <masterclipid>clip-master</masterclipid>
                  <collapsed>false</collapsed>
                  <angle>
                    <activevideoangle>false</activevideoangle>
                    <activeaudioangle>false</activeaudioangle>
                    <clip id="clip-1"/>
                  </angle>
                  <angle>
                    <activevideoangle>false</activevideoangle>
                    <activeaudioangle>false</activeaudioangle>
                    <clip id="clip-2"/>
                  </angle>
                  <angle>
                    <activevideoangle>true</activevideoangle>
                    <activeaudioangle>true</activeaudioangle>
                    <clip id="clip-3"/>
                  </angle>
                  <angle>
                    <activevideoangle>false</activevideoangle>
                    <activeaudioangle>false</activeaudioangle>
                    <clip id="clip-4"/>
                  </angle>
                  <angle>
                    <activevideoangle>false</activevideoangle>
                    <activeaudioangle>false</activeaudioangle>
                    <clip id="clip-5"/>
                  </angle>
                  <angle>
                    <activevideoangle>false</activevideoangle>
                    <activeaudioangle>false</activeaudioangle>
                    <clip id="clip-6"/>
                  </angle>
                  <angle>
                    <activevideoangle>false</activevideoangle>
                    <activeaudioangle>false</activeaudioangle>
                    <clip id="clip-7"/>
                  </angle>
                  <masterclipid>clip-master</masterclipid>
                </multiclip>
              </clipitem>
              <clipitem id="cs-809">
                <duration>157</duration>
                <rate>
                  <ntsc>false</ntsc>
                  <timebase>25</timebase>
                </rate>
                <in>12706</in>
                <out>12862</out>
                <start>12706</start>
                <end>12862</end>
                <file id="src-1"/>
                <sourcetrack>
                  <mediatype>video</mediatype>
                  <trackindex>1</trackindex>
                </sourcetrack>
                <multiclip id="mcs-809">
                  <name>MCS-809</name>
                  <masterclipid>clip-master</masterclipid>
                  <collapsed>false</collapsed>
                  <angle>
                    <activevideoangle>true</activevideoangle>
                    <activeaudioangle>true</activeaudioangle>
                    <clip id="clip-1"/>
                  </angle>
                  <angle>
                    <activevideoangle>false</activevideoangle>
                    <activeaudioangle>false</activeaudioangle>
                    <clip id="clip-2"/>
                  </angle>
                  <angle>
                    <activevideoangle>false</activevideoangle>
                    <activeaudioangle>false</activeaudioangle>
                    <clip id="clip-3"/>
                  </angle>
                  <angle>
                    <activevideoangle>false</activevideoangle>
                    <activeaudioangle>false</activeaudioangle>
                    <clip id="clip-4"/>
                  </angle>
                  <angle>
                    <activevideoangle>false</activevideoangle>
                    <activeaudioangle>false</activeaudioangle>
                    <clip id="clip-5"/>
                  </angle>
                  <angle>
                    <activevideoangle>false</activevideoangle>
                    <activeaudioangle>false</activeaudioangle>
                    <clip id="clip-6"/>
                  </angle>
                  <angle>
                    <activevideoangle>false</activevideoangle>
                    <activeaudioangle>false</activeaudioangle>
                    <clip id="clip-7"/>
                  </angle>
                  <masterclipid>clip-master</masterclipid>
                </multiclip>
              </clipitem>
              <clipitem id="cs-810">
                <duration>493</duration>
                <rate>
                  <ntsc>false</ntsc>
                  <timebase>25</timebase>
                </rate>
                <in>12862</in>
                <out>13354</out>
                <start>12862</start>
                <end>13354</end>
                <file id="src-3"/>
                <sourcetrack>
                  <mediatype>video</mediatype>
                  <trackindex>1</trackindex>
                </sourcetrack>
                <multiclip id="mcs-810">
                  <name>MCS-810</name>
                  <masterclipid>clip-master</masterclipid>
                  <collapsed>false</collapsed>
                  <angle>
                    <activevideoangle>false</activevideoangle>
                    <activeaudioangle>false</activeaudioangle>
                    <clip id="clip-1"/>
                  </angle>
                  <angle>
                    <activevideoangle>false</activevideoangle>
                    <activeaudioangle>false</activeaudioangle>
                    <clip id="clip-2"/>
                  </angle>
                  <angle>
                    <activevideoangle>true</activevideoangle>
                    <activeaudioangle>true</activeaudioangle>
                    <clip id="clip-3"/>
                  </angle>
                  <angle>
                    <activevideoangle>false</activevideoangle>
                    <activeaudioangle>false</activeaudioangle>
                    <clip id="clip-4"/>
                  </angle>
                  <angle>
                    <activevideoangle>false</activevideoangle>
                    <activeaudioangle>false</activeaudioangle>
                    <clip id="clip-5"/>
                  </angle>
                  <angle>
                    <activevideoangle>false</activevideoangle>
                    <activeaudioangle>false</activeaudioangle>
                    <clip id="clip-6"/>
                  </angle>
                  <angle>
                    <activevideoangle>false</activevideoangle>
                    <activeaudioangle>false</activeaudioangle>
                    <clip id="clip-7"/>
                  </angle>
                  <masterclipid>clip-master</masterclipid>
                </multiclip>
              </clipitem>
              <clipitem id="cs-811">
                <duration>186</duration>
                <rate>
                  <ntsc>false</ntsc>
                  <timebase>25</timebase>
                </rate>
                <in>13354</in>
                <out>13539</out>
                <start>13354</start>
                <end>13539</end>
                <file id="src-2"/>
                <sourcetrack>
                  <mediatype>video</mediatype>
                  <trackindex>1</trackindex>
                </sourcetrack>
                <multiclip id="mcs-811">
                  <name>MCS-811</name>
                  <masterclipid>clip-master</masterclipid>
                  <collapsed>false</collapsed>
                  <angle>
                    <activevideoangle>false</activevideoangle>
                    <activeaudioangle>false</activeaudioangle>
                    <clip id="clip-1"/>
                  </angle>
                  <angle>
                    <activevideoangle>true</activevideoangle>
                    <activeaudioangle>true</activeaudioangle>
                    <clip id="clip-2"/>
                  </angle>
                  <angle>
                    <activevideoangle>false</activevideoangle>
                    <activeaudioangle>false</activeaudioangle>
                    <clip id="clip-3"/>
                  </angle>
                  <angle>
                    <activevideoangle>false</activevideoangle>
                    <activeaudioangle>false</activeaudioangle>
                    <clip id="clip-4"/>
                  </angle>
                  <angle>
                    <activevideoangle>false</activevideoangle>
                    <activeaudioangle>false</activeaudioangle>
                    <clip id="clip-5"/>
                  </angle>
                  <angle>
                    <activevideoangle>false</activevideoangle>
                    <activeaudioangle>false</activeaudioangle>
                    <clip id="clip-6"/>
                  </angle>
                  <angle>
                    <activevideoangle>false</activevideoangle>
                    <activeaudioangle>false</activeaudioangle>
                    <clip id="clip-7"/>
                  </angle>
                  <masterclipid>clip-master</masterclipid>
                </multiclip>
              </clipitem>
              <clipitem id="cs-812">
                <duration>325</duration>
                <rate>
                  <ntsc>false</ntsc>
                  <timebase>25</timebase>
                </rate>
                <in>13539</in>
                <out>13863</out>
                <start>13539</start>
                <end>13863</end>
                <file id="src-4"/>
                <sourcetrack>
                  <mediatype>video</mediatype>
                  <trackindex>1</trackindex>
                </sourcetrack>
                <multiclip id="mcs-812">
                  <name>MCS-812</name>
                  <masterclipid>clip-master</masterclipid>
                  <collapsed>false</collapsed>
                  <angle>
                    <activevideoangle>false</activevideoangle>
                    <activeaudioangle>false</activeaudioangle>
                    <clip id="clip-1"/>
                  </angle>
                  <angle>
                    <activevideoangle>false</activevideoangle>
                    <activeaudioangle>false</activeaudioangle>
                    <clip id="clip-2"/>
                  </angle>
                  <angle>
                    <activevideoangle>false</activevideoangle>
                    <activeaudioangle>false</activeaudioangle>
                    <clip id="clip-3"/>
                  </angle>
                  <angle>
                    <activevideoangle>true</activevideoangle>
                    <activeaudioangle>true</activeaudioangle>
                    <clip id="clip-4"/>
                  </angle>
                  <angle>
                    <activevideoangle>false</activevideoangle>
                    <activeaudioangle>false</activeaudioangle>
                    <clip id="clip-5"/>
                  </angle>
                  <angle>
                    <activevideoangle>false</activevideoangle>
                    <activeaudioangle>false</activeaudioangle>
                    <clip id="clip-6"/>
                  </angle>
                  <angle>
                    <activevideoangle>false</activevideoangle>
                    <activeaudioangle>false</activeaudioangle>
                    <clip id="clip-7"/>
                  </angle>
                  <masterclipid>clip-master</masterclipid>
                </multiclip>
              </clipitem>
              <clipitem id="cs-813">
                <duration>254</duration>
                <rate>
                  <ntsc>false</ntsc>
                  <timebase>25</timebase>
                </rate>
                <in>13863</in>
                <out>14116</out>
                <start>13863</start>
                <end>14116</end>
                <file id="src-3"/>
                <sourcetrack>
                  <mediatype>video</mediatype>
                  <trackindex>1</trackindex>
                </sourcetrack>
                <multiclip id="mcs-813">
                  <name>MCS-813</name>
                  <masterclipid>clip-master</masterclipid>
                  <collapsed>false</collapsed>
                  <angle>
                    <activevideoangle>false</activevideoangle>
                    <activeaudioangle>false</activeaudioangle>
                    <clip id="clip-1"/>
                  </angle>
                  <angle>
                    <activevideoangle>false</activevideoangle>
                    <activeaudioangle>false</activeaudioangle>
                    <clip id="clip-2"/>
                  </angle>
                  <angle>
                    <activevideoangle>true</activevideoangle>
                    <activeaudioangle>true</activeaudioangle>
                    <clip id="clip-3"/>
                  </angle>
                  <angle>
                    <activevideoangle>false</activevideoangle>
                    <activeaudioangle>false</activeaudioangle>
                    <clip id="clip-4"/>
                  </angle>
                  <angle>
                    <activevideoangle>false</activevideoangle>
                    <activeaudioangle>false</activeaudioangle>
                    <clip id="clip-5"/>
                  </angle>
                  <angle>
                    <activevideoangle>false</activevideoangle>
                    <activeaudioangle>false</activeaudioangle>
                    <clip id="clip-6"/>
                  </angle>
                  <angle>
                    <activevideoangle>false</activevideoangle>
                    <activeaudioangle>false</activeaudioangle>
                    <clip id="clip-7"/>
                  </angle>
                  <masterclipid>clip-master</masterclipid>
                </multiclip>
              </clipitem>
              <clipitem id="cs-814">
                <duration>120</duration>
                <rate>
                  <ntsc>false</ntsc>
                  <timebase>25</timebase>
                </rate>
                <in>14116</in>
                <out>14235</out>
                <start>14116</start>
                <end>14235</end>
                <file id="src-6"/>
                <sourcetrack>
                  <mediatype>video</mediatype>
                  <trackindex>1</trackindex>
                </sourcetrack>
                <multiclip id="mcs-814">
                  <name>MCS-814</name>
                  <masterclipid>clip-master</masterclipid>
                  <collapsed>false</collapsed>
                  <angle>
                    <activevideoangle>false</activevideoangle>
                    <activeaudioangle>false</activeaudioangle>
                    <clip id="clip-1"/>
                  </angle>
                  <angle>
                    <activevideoangle>false</activevideoangle>
                    <activeaudioangle>false</activeaudioangle>
                    <clip id="clip-2"/>
                  </angle>
                  <angle>
                    <activevideoangle>false</activevideoangle>
                    <activeaudioangle>false</activeaudioangle>
                    <clip id="clip-3"/>
                  </angle>
                  <angle>
                    <activevideoangle>false</activevideoangle>
                    <activeaudioangle>false</activeaudioangle>
                    <clip id="clip-4"/>
                  </angle>
                  <angle>
                    <activevideoangle>false</activevideoangle>
                    <activeaudioangle>false</activeaudioangle>
                    <clip id="clip-5"/>
                  </angle>
                  <angle>
                    <activevideoangle>true</activevideoangle>
                    <activeaudioangle>true</activeaudioangle>
                    <clip id="clip-6"/>
                  </angle>
                  <angle>
                    <activevideoangle>false</activevideoangle>
                    <activeaudioangle>false</activeaudioangle>
                    <clip id="clip-7"/>
                  </angle>
                  <masterclipid>clip-master</masterclipid>
                </multiclip>
              </clipitem>
              <clipitem id="cs-815">
                <duration>108</duration>
                <rate>
                  <ntsc>false</ntsc>
                  <timebase>25</timebase>
                </rate>
                <in>14235</in>
                <out>14342</out>
                <start>14235</start>
                <end>14342</end>
                <file id="src-1"/>
                <sourcetrack>
                  <mediatype>video</mediatype>
                  <trackindex>1</trackindex>
                </sourcetrack>
                <multiclip id="mcs-815">
                  <name>MCS-815</name>
                  <masterclipid>clip-master</masterclipid>
                  <collapsed>false</collapsed>
                  <angle>
                    <activevideoangle>true</activevideoangle>
                    <activeaudioangle>true</activeaudioangle>
                    <clip id="clip-1"/>
                  </angle>
                  <angle>
                    <activevideoangle>false</activevideoangle>
                    <activeaudioangle>false</activeaudioangle>
                    <clip id="clip-2"/>
                  </angle>
                  <angle>
                    <activevideoangle>false</activevideoangle>
                    <activeaudioangle>false</activeaudioangle>
                    <clip id="clip-3"/>
                  </angle>
                  <angle>
                    <activevideoangle>false</activevideoangle>
                    <activeaudioangle>false</activeaudioangle>
                    <clip id="clip-4"/>
                  </angle>
                  <angle>
                    <activevideoangle>false</activevideoangle>
                    <activeaudioangle>false</activeaudioangle>
                    <clip id="clip-5"/>
                  </angle>
                  <angle>
                    <activevideoangle>false</activevideoangle>
                    <activeaudioangle>false</activeaudioangle>
                    <clip id="clip-6"/>
                  </angle>
                  <angle>
                    <activevideoangle>false</activevideoangle>
                    <activeaudioangle>false</activeaudioangle>
                    <clip id="clip-7"/>
                  </angle>
                  <masterclipid>clip-master</masterclipid>
                </multiclip>
              </clipitem>
              <clipitem id="cs-816">
                <duration>146</duration>
                <rate>
                  <ntsc>false</ntsc>
                  <timebase>25</timebase>
                </rate>
                <in>14342</in>
                <out>14487</out>
                <start>14342</start>
                <end>14487</end>
                <file id="src-3"/>
                <sourcetrack>
                  <mediatype>video</mediatype>
                  <trackindex>1</trackindex>
                </sourcetrack>
                <multiclip id="mcs-816">
                  <name>MCS-816</name>
                  <masterclipid>clip-master</masterclipid>
                  <collapsed>false</collapsed>
                  <angle>
                    <activevideoangle>false</activevideoangle>
                    <activeaudioangle>false</activeaudioangle>
                    <clip id="clip-1"/>
                  </angle>
                  <angle>
                    <activevideoangle>false</activevideoangle>
                    <activeaudioangle>false</activeaudioangle>
                    <clip id="clip-2"/>
                  </angle>
                  <angle>
                    <activevideoangle>true</activevideoangle>
                    <activeaudioangle>true</activeaudioangle>
                    <clip id="clip-3"/>
                  </angle>
                  <angle>
                    <activevideoangle>false</activevideoangle>
                    <activeaudioangle>false</activeaudioangle>
                    <clip id="clip-4"/>
                  </angle>
                  <angle>
                    <activevideoangle>false</activevideoangle>
                    <activeaudioangle>false</activeaudioangle>
                    <clip id="clip-5"/>
                  </angle>
                  <angle>
                    <activevideoangle>false</activevideoangle>
                    <activeaudioangle>false</activeaudioangle>
                    <clip id="clip-6"/>
                  </angle>
                  <angle>
                    <activevideoangle>false</activevideoangle>
                    <activeaudioangle>false</activeaudioangle>
                    <clip id="clip-7"/>
                  </angle>
                  <masterclipid>clip-master</masterclipid>
                </multiclip>
              </clipitem>
              <clipitem id="cs-817">
                <duration>120</duration>
                <rate>
                  <ntsc>false</ntsc>
                  <timebase>25</timebase>
                </rate>
                <in>14487</in>
                <out>14606</out>
                <start>14487</start>
                <end>14606</end>
                <file id="src-4"/>
                <sourcetrack>
                  <mediatype>video</mediatype>
                  <trackindex>1</trackindex>
                </sourcetrack>
                <multiclip id="mcs-817">
                  <name>MCS-817</name>
                  <masterclipid>clip-master</masterclipid>
                  <collapsed>false</collapsed>
                  <angle>
                    <activevideoangle>false</activevideoangle>
                    <activeaudioangle>false</activeaudioangle>
                    <clip id="clip-1"/>
                  </angle>
                  <angle>
                    <activevideoangle>false</activevideoangle>
                    <activeaudioangle>false</activeaudioangle>
                    <clip id="clip-2"/>
                  </angle>
                  <angle>
                    <activevideoangle>false</activevideoangle>
                    <activeaudioangle>false</activeaudioangle>
                    <clip id="clip-3"/>
                  </angle>
                  <angle>
                    <activevideoangle>true</activevideoangle>
                    <activeaudioangle>true</activeaudioangle>
                    <clip id="clip-4"/>
                  </angle>
                  <angle>
                    <activevideoangle>false</activevideoangle>
                    <activeaudioangle>false</activeaudioangle>
                    <clip id="clip-5"/>
                  </angle>
                  <angle>
                    <activevideoangle>false</activevideoangle>
                    <activeaudioangle>false</activeaudioangle>
                    <clip id="clip-6"/>
                  </angle>
                  <angle>
                    <activevideoangle>false</activevideoangle>
                    <activeaudioangle>false</activeaudioangle>
                    <clip id="clip-7"/>
                  </angle>
                  <masterclipid>clip-master</masterclipid>
                </multiclip>
              </clipitem>
              <clipitem id="cs-818">
                <duration>122</duration>
                <rate>
                  <ntsc>false</ntsc>
                  <timebase>25</timebase>
                </rate>
                <in>14606</in>
                <out>14727</out>
                <start>14606</start>
                <end>14727</end>
                <file id="src-1"/>
                <sourcetrack>
                  <mediatype>video</mediatype>
                  <trackindex>1</trackindex>
                </sourcetrack>
                <multiclip id="mcs-818">
                  <name>MCS-818</name>
                  <masterclipid>clip-master</masterclipid>
                  <collapsed>false</collapsed>
                  <angle>
                    <activevideoangle>true</activevideoangle>
                    <activeaudioangle>true</activeaudioangle>
                    <clip id="clip-1"/>
                  </angle>
                  <angle>
                    <activevideoangle>false</activevideoangle>
                    <activeaudioangle>false</activeaudioangle>
                    <clip id="clip-2"/>
                  </angle>
                  <angle>
                    <activevideoangle>false</activevideoangle>
                    <activeaudioangle>false</activeaudioangle>
                    <clip id="clip-3"/>
                  </angle>
                  <angle>
                    <activevideoangle>false</activevideoangle>
                    <activeaudioangle>false</activeaudioangle>
                    <clip id="clip-4"/>
                  </angle>
                  <angle>
                    <activevideoangle>false</activevideoangle>
                    <activeaudioangle>false</activeaudioangle>
                    <clip id="clip-5"/>
                  </angle>
                  <angle>
                    <activevideoangle>false</activevideoangle>
                    <activeaudioangle>false</activeaudioangle>
                    <clip id="clip-6"/>
                  </angle>
                  <angle>
                    <activevideoangle>false</activevideoangle>
                    <activeaudioangle>false</activeaudioangle>
                    <clip id="clip-7"/>
                  </angle>
                  <masterclipid>clip-master</masterclipid>
                </multiclip>
              </clipitem>
              <clipitem id="cs-819">
                <duration>497</duration>
                <rate>
                  <ntsc>false</ntsc>
                  <timebase>25</timebase>
                </rate>
                <in>14727</in>
                <out>15223</out>
                <start>14727</start>
                <end>15223</end>
                <file id="src-2"/>
                <sourcetrack>
                  <mediatype>video</mediatype>
                  <trackindex>1</trackindex>
                </sourcetrack>
                <multiclip id="mcs-819">
                  <name>MCS-819</name>
                  <masterclipid>clip-master</masterclipid>
                  <collapsed>false</collapsed>
                  <angle>
                    <activevideoangle>false</activevideoangle>
                    <activeaudioangle>false</activeaudioangle>
                    <clip id="clip-1"/>
                  </angle>
                  <angle>
                    <activevideoangle>true</activevideoangle>
                    <activeaudioangle>true</activeaudioangle>
                    <clip id="clip-2"/>
                  </angle>
                  <angle>
                    <activevideoangle>false</activevideoangle>
                    <activeaudioangle>false</activeaudioangle>
                    <clip id="clip-3"/>
                  </angle>
                  <angle>
                    <activevideoangle>false</activevideoangle>
                    <activeaudioangle>false</activeaudioangle>
                    <clip id="clip-4"/>
                  </angle>
                  <angle>
                    <activevideoangle>false</activevideoangle>
                    <activeaudioangle>false</activeaudioangle>
                    <clip id="clip-5"/>
                  </angle>
                  <angle>
                    <activevideoangle>false</activevideoangle>
                    <activeaudioangle>false</activeaudioangle>
                    <clip id="clip-6"/>
                  </angle>
                  <angle>
                    <activevideoangle>false</activevideoangle>
                    <activeaudioangle>false</activeaudioangle>
                    <clip id="clip-7"/>
                  </angle>
                  <masterclipid>clip-master</masterclipid>
                </multiclip>
              </clipitem>
              <clipitem id="cs-820">
                <duration>297</duration>
                <rate>
                  <ntsc>false</ntsc>
                  <timebase>25</timebase>
                </rate>
                <in>15223</in>
                <out>15519</out>
                <start>15223</start>
                <end>15519</end>
                <file id="src-1"/>
                <sourcetrack>
                  <mediatype>video</mediatype>
                  <trackindex>1</trackindex>
                </sourcetrack>
                <multiclip id="mcs-820">
                  <name>MCS-820</name>
                  <masterclipid>clip-master</masterclipid>
                  <collapsed>false</collapsed>
                  <angle>
                    <activevideoangle>true</activevideoangle>
                    <activeaudioangle>true</activeaudioangle>
                    <clip id="clip-1"/>
                  </angle>
                  <angle>
                    <activevideoangle>false</activevideoangle>
                    <activeaudioangle>false</activeaudioangle>
                    <clip id="clip-2"/>
                  </angle>
                  <angle>
                    <activevideoangle>false</activevideoangle>
                    <activeaudioangle>false</activeaudioangle>
                    <clip id="clip-3"/>
                  </angle>
                  <angle>
                    <activevideoangle>false</activevideoangle>
                    <activeaudioangle>false</activeaudioangle>
                    <clip id="clip-4"/>
                  </angle>
                  <angle>
                    <activevideoangle>false</activevideoangle>
                    <activeaudioangle>false</activeaudioangle>
                    <clip id="clip-5"/>
                  </angle>
                  <angle>
                    <activevideoangle>false</activevideoangle>
                    <activeaudioangle>false</activeaudioangle>
                    <clip id="clip-6"/>
                  </angle>
                  <angle>
                    <activevideoangle>false</activevideoangle>
                    <activeaudioangle>false</activeaudioangle>
                    <clip id="clip-7"/>
                  </angle>
                  <masterclipid>clip-master</masterclipid>
                </multiclip>
              </clipitem>
              <clipitem id="cs-821">
                <duration>747</duration>
                <rate>
                  <ntsc>false</ntsc>
                  <timebase>25</timebase>
                </rate>
                <in>15519</in>
                <out>16265</out>
                <start>15519</start>
                <end>16265</end>
                <file id="src-2"/>
                <sourcetrack>
                  <mediatype>video</mediatype>
                  <trackindex>1</trackindex>
                </sourcetrack>
                <multiclip id="mcs-821">
                  <name>MCS-821</name>
                  <masterclipid>clip-master</masterclipid>
                  <collapsed>false</collapsed>
                  <angle>
                    <activevideoangle>false</activevideoangle>
                    <activeaudioangle>false</activeaudioangle>
                    <clip id="clip-1"/>
                  </angle>
                  <angle>
                    <activevideoangle>true</activevideoangle>
                    <activeaudioangle>true</activeaudioangle>
                    <clip id="clip-2"/>
                  </angle>
                  <angle>
                    <activevideoangle>false</activevideoangle>
                    <activeaudioangle>false</activeaudioangle>
                    <clip id="clip-3"/>
                  </angle>
                  <angle>
                    <activevideoangle>false</activevideoangle>
                    <activeaudioangle>false</activeaudioangle>
                    <clip id="clip-4"/>
                  </angle>
                  <angle>
                    <activevideoangle>false</activevideoangle>
                    <activeaudioangle>false</activeaudioangle>
                    <clip id="clip-5"/>
                  </angle>
                  <angle>
                    <activevideoangle>false</activevideoangle>
                    <activeaudioangle>false</activeaudioangle>
                    <clip id="clip-6"/>
                  </angle>
                  <angle>
                    <activevideoangle>false</activevideoangle>
                    <activeaudioangle>false</activeaudioangle>
                    <clip id="clip-7"/>
                  </angle>
                  <masterclipid>clip-master</masterclipid>
                </multiclip>
              </clipitem>
              <clipitem id="cs-822">
                <duration>231</duration>
                <rate>
                  <ntsc>false</ntsc>
                  <timebase>25</timebase>
                </rate>
                <in>16265</in>
                <out>16495</out>
                <start>16265</start>
                <end>16495</end>
                <file id="src-3"/>
                <sourcetrack>
                  <mediatype>video</mediatype>
                  <trackindex>1</trackindex>
                </sourcetrack>
                <multiclip id="mcs-822">
                  <name>MCS-822</name>
                  <masterclipid>clip-master</masterclipid>
                  <collapsed>false</collapsed>
                  <angle>
                    <activevideoangle>false</activevideoangle>
                    <activeaudioangle>false</activeaudioangle>
                    <clip id="clip-1"/>
                  </angle>
                  <angle>
                    <activevideoangle>false</activevideoangle>
                    <activeaudioangle>false</activeaudioangle>
                    <clip id="clip-2"/>
                  </angle>
                  <angle>
                    <activevideoangle>true</activevideoangle>
                    <activeaudioangle>true</activeaudioangle>
                    <clip id="clip-3"/>
                  </angle>
                  <angle>
                    <activevideoangle>false</activevideoangle>
                    <activeaudioangle>false</activeaudioangle>
                    <clip id="clip-4"/>
                  </angle>
                  <angle>
                    <activevideoangle>false</activevideoangle>
                    <activeaudioangle>false</activeaudioangle>
                    <clip id="clip-5"/>
                  </angle>
                  <angle>
                    <activevideoangle>false</activevideoangle>
                    <activeaudioangle>false</activeaudioangle>
                    <clip id="clip-6"/>
                  </angle>
                  <angle>
                    <activevideoangle>false</activevideoangle>
                    <activeaudioangle>false</activeaudioangle>
                    <clip id="clip-7"/>
                  </angle>
                  <masterclipid>clip-master</masterclipid>
                </multiclip>
              </clipitem>
              <clipitem id="cs-823">
                <duration>224</duration>
                <rate>
                  <ntsc>false</ntsc>
                  <timebase>25</timebase>
                </rate>
                <in>16495</in>
                <out>16718</out>
                <start>16495</start>
                <end>16718</end>
                <file id="src-2"/>
                <sourcetrack>
                  <mediatype>video</mediatype>
                  <trackindex>1</trackindex>
                </sourcetrack>
                <multiclip id="mcs-823">
                  <name>MCS-823</name>
                  <masterclipid>clip-master</masterclipid>
                  <collapsed>false</collapsed>
                  <angle>
                    <activevideoangle>false</activevideoangle>
                    <activeaudioangle>false</activeaudioangle>
                    <clip id="clip-1"/>
                  </angle>
                  <angle>
                    <activevideoangle>true</activevideoangle>
                    <activeaudioangle>true</activeaudioangle>
                    <clip id="clip-2"/>
                  </angle>
                  <angle>
                    <activevideoangle>false</activevideoangle>
                    <activeaudioangle>false</activeaudioangle>
                    <clip id="clip-3"/>
                  </angle>
                  <angle>
                    <activevideoangle>false</activevideoangle>
                    <activeaudioangle>false</activeaudioangle>
                    <clip id="clip-4"/>
                  </angle>
                  <angle>
                    <activevideoangle>false</activevideoangle>
                    <activeaudioangle>false</activeaudioangle>
                    <clip id="clip-5"/>
                  </angle>
                  <angle>
                    <activevideoangle>false</activevideoangle>
                    <activeaudioangle>false</activeaudioangle>
                    <clip id="clip-6"/>
                  </angle>
                  <angle>
                    <activevideoangle>false</activevideoangle>
                    <activeaudioangle>false</activeaudioangle>
                    <clip id="clip-7"/>
                  </angle>
                  <masterclipid>clip-master</masterclipid>
                </multiclip>
              </clipitem>
              <clipitem id="cs-824">
                <duration>217</duration>
                <rate>
                  <ntsc>false</ntsc>
                  <timebase>25</timebase>
                </rate>
                <in>16718</in>
                <out>16934</out>
                <start>16718</start>
                <end>16934</end>
                <file id="src-6"/>
                <sourcetrack>
                  <mediatype>video</mediatype>
                  <trackindex>1</trackindex>
                </sourcetrack>
                <multiclip id="mcs-824">
                  <name>MCS-824</name>
                  <masterclipid>clip-master</masterclipid>
                  <collapsed>false</collapsed>
                  <angle>
                    <activevideoangle>false</activevideoangle>
                    <activeaudioangle>false</activeaudioangle>
                    <clip id="clip-1"/>
                  </angle>
                  <angle>
                    <activevideoangle>false</activevideoangle>
                    <activeaudioangle>false</activeaudioangle>
                    <clip id="clip-2"/>
                  </angle>
                  <angle>
                    <activevideoangle>false</activevideoangle>
                    <activeaudioangle>false</activeaudioangle>
                    <clip id="clip-3"/>
                  </angle>
                  <angle>
                    <activevideoangle>false</activevideoangle>
                    <activeaudioangle>false</activeaudioangle>
                    <clip id="clip-4"/>
                  </angle>
                  <angle>
                    <activevideoangle>false</activevideoangle>
                    <activeaudioangle>false</activeaudioangle>
                    <clip id="clip-5"/>
                  </angle>
                  <angle>
                    <activevideoangle>true</activevideoangle>
                    <activeaudioangle>true</activeaudioangle>
                    <clip id="clip-6"/>
                  </angle>
                  <angle>
                    <activevideoangle>false</activevideoangle>
                    <activeaudioangle>false</activeaudioangle>
                    <clip id="clip-7"/>
                  </angle>
                  <masterclipid>clip-master</masterclipid>
                </multiclip>
              </clipitem>
              <clipitem id="cs-825">
                <duration>133</duration>
                <rate>
                  <ntsc>false</ntsc>
                  <timebase>25</timebase>
                </rate>
                <in>16934</in>
                <out>17066</out>
                <start>16934</start>
                <end>17066</end>
                <file id="src-4"/>
                <sourcetrack>
                  <mediatype>video</mediatype>
                  <trackindex>1</trackindex>
                </sourcetrack>
                <multiclip id="mcs-825">
                  <name>MCS-825</name>
                  <masterclipid>clip-master</masterclipid>
                  <collapsed>false</collapsed>
                  <angle>
                    <activevideoangle>false</activevideoangle>
                    <activeaudioangle>false</activeaudioangle>
                    <clip id="clip-1"/>
                  </angle>
                  <angle>
                    <activevideoangle>false</activevideoangle>
                    <activeaudioangle>false</activeaudioangle>
                    <clip id="clip-2"/>
                  </angle>
                  <angle>
                    <activevideoangle>false</activevideoangle>
                    <activeaudioangle>false</activeaudioangle>
                    <clip id="clip-3"/>
                  </angle>
                  <angle>
                    <activevideoangle>true</activevideoangle>
                    <activeaudioangle>true</activeaudioangle>
                    <clip id="clip-4"/>
                  </angle>
                  <angle>
                    <activevideoangle>false</activevideoangle>
                    <activeaudioangle>false</activeaudioangle>
                    <clip id="clip-5"/>
                  </angle>
                  <angle>
                    <activevideoangle>false</activevideoangle>
                    <activeaudioangle>false</activeaudioangle>
                    <clip id="clip-6"/>
                  </angle>
                  <angle>
                    <activevideoangle>false</activevideoangle>
                    <activeaudioangle>false</activeaudioangle>
                    <clip id="clip-7"/>
                  </angle>
                  <masterclipid>clip-master</masterclipid>
                </multiclip>
              </clipitem>
              <clipitem id="cs-826">
                <duration>130</duration>
                <rate>
                  <ntsc>false</ntsc>
                  <timebase>25</timebase>
                </rate>
                <in>17066</in>
                <out>17195</out>
                <start>17066</start>
                <end>17195</end>
                <file id="src-3"/>
                <sourcetrack>
                  <mediatype>video</mediatype>
                  <trackindex>1</trackindex>
                </sourcetrack>
                <multiclip id="mcs-826">
                  <name>MCS-826</name>
                  <masterclipid>clip-master</masterclipid>
                  <collapsed>false</collapsed>
                  <angle>
                    <activevideoangle>false</activevideoangle>
                    <activeaudioangle>false</activeaudioangle>
                    <clip id="clip-1"/>
                  </angle>
                  <angle>
                    <activevideoangle>false</activevideoangle>
                    <activeaudioangle>false</activeaudioangle>
                    <clip id="clip-2"/>
                  </angle>
                  <angle>
                    <activevideoangle>true</activevideoangle>
                    <activeaudioangle>true</activeaudioangle>
                    <clip id="clip-3"/>
                  </angle>
                  <angle>
                    <activevideoangle>false</activevideoangle>
                    <activeaudioangle>false</activeaudioangle>
                    <clip id="clip-4"/>
                  </angle>
                  <angle>
                    <activevideoangle>false</activevideoangle>
                    <activeaudioangle>false</activeaudioangle>
                    <clip id="clip-5"/>
                  </angle>
                  <angle>
                    <activevideoangle>false</activevideoangle>
                    <activeaudioangle>false</activeaudioangle>
                    <clip id="clip-6"/>
                  </angle>
                  <angle>
                    <activevideoangle>false</activevideoangle>
                    <activeaudioangle>false</activeaudioangle>
                    <clip id="clip-7"/>
                  </angle>
                  <masterclipid>clip-master</masterclipid>
                </multiclip>
              </clipitem>
              <clipitem id="cs-827">
                <duration>381</duration>
                <rate>
                  <ntsc>false</ntsc>
                  <timebase>25</timebase>
                </rate>
                <in>17195</in>
                <out>17575</out>
                <start>17195</start>
                <end>17575</end>
                <file id="src-2"/>
                <sourcetrack>
                  <mediatype>video</mediatype>
                  <trackindex>1</trackindex>
                </sourcetrack>
                <multiclip id="mcs-827">
                  <name>MCS-827</name>
                  <masterclipid>clip-master</masterclipid>
                  <collapsed>false</collapsed>
                  <angle>
                    <activevideoangle>false</activevideoangle>
                    <activeaudioangle>false</activeaudioangle>
                    <clip id="clip-1"/>
                  </angle>
                  <angle>
                    <activevideoangle>true</activevideoangle>
                    <activeaudioangle>true</activeaudioangle>
                    <clip id="clip-2"/>
                  </angle>
                  <angle>
                    <activevideoangle>false</activevideoangle>
                    <activeaudioangle>false</activeaudioangle>
                    <clip id="clip-3"/>
                  </angle>
                  <angle>
                    <activevideoangle>false</activevideoangle>
                    <activeaudioangle>false</activeaudioangle>
                    <clip id="clip-4"/>
                  </angle>
                  <angle>
                    <activevideoangle>false</activevideoangle>
                    <activeaudioangle>false</activeaudioangle>
                    <clip id="clip-5"/>
                  </angle>
                  <angle>
                    <activevideoangle>false</activevideoangle>
                    <activeaudioangle>false</activeaudioangle>
                    <clip id="clip-6"/>
                  </angle>
                  <angle>
                    <activevideoangle>false</activevideoangle>
                    <activeaudioangle>false</activeaudioangle>
                    <clip id="clip-7"/>
                  </angle>
                  <masterclipid>clip-master</masterclipid>
                </multiclip>
              </clipitem>
              <clipitem id="cs-828">
                <duration>75</duration>
                <rate>
                  <ntsc>false</ntsc>
                  <timebase>25</timebase>
                </rate>
                <in>17575</in>
                <out>17649</out>
                <start>17575</start>
                <end>17649</end>
                <file id="src-1"/>
                <sourcetrack>
                  <mediatype>video</mediatype>
                  <trackindex>1</trackindex>
                </sourcetrack>
                <multiclip id="mcs-828">
                  <name>MCS-828</name>
                  <masterclipid>clip-master</masterclipid>
                  <collapsed>false</collapsed>
                  <angle>
                    <activevideoangle>true</activevideoangle>
                    <activeaudioangle>true</activeaudioangle>
                    <clip id="clip-1"/>
                  </angle>
                  <angle>
                    <activevideoangle>false</activevideoangle>
                    <activeaudioangle>false</activeaudioangle>
                    <clip id="clip-2"/>
                  </angle>
                  <angle>
                    <activevideoangle>false</activevideoangle>
                    <activeaudioangle>false</activeaudioangle>
                    <clip id="clip-3"/>
                  </angle>
                  <angle>
                    <activevideoangle>false</activevideoangle>
                    <activeaudioangle>false</activeaudioangle>
                    <clip id="clip-4"/>
                  </angle>
                  <angle>
                    <activevideoangle>false</activevideoangle>
                    <activeaudioangle>false</activeaudioangle>
                    <clip id="clip-5"/>
                  </angle>
                  <angle>
                    <activevideoangle>false</activevideoangle>
                    <activeaudioangle>false</activeaudioangle>
                    <clip id="clip-6"/>
                  </angle>
                  <angle>
                    <activevideoangle>false</activevideoangle>
                    <activeaudioangle>false</activeaudioangle>
                    <clip id="clip-7"/>
                  </angle>
                  <masterclipid>clip-master</masterclipid>
                </multiclip>
              </clipitem>
              <clipitem id="cs-829">
                <duration>161</duration>
                <rate>
                  <ntsc>false</ntsc>
                  <timebase>25</timebase>
                </rate>
                <in>17649</in>
                <out>17809</out>
                <start>17649</start>
                <end>17809</end>
                <file id="src-5"/>
                <sourcetrack>
                  <mediatype>video</mediatype>
                  <trackindex>1</trackindex>
                </sourcetrack>
                <multiclip id="mcs-829">
                  <name>MCS-829</name>
                  <masterclipid>clip-master</masterclipid>
                  <collapsed>false</collapsed>
                  <angle>
                    <activevideoangle>false</activevideoangle>
                    <activeaudioangle>false</activeaudioangle>
                    <clip id="clip-1"/>
                  </angle>
                  <angle>
                    <activevideoangle>false</activevideoangle>
                    <activeaudioangle>false</activeaudioangle>
                    <clip id="clip-2"/>
                  </angle>
                  <angle>
                    <activevideoangle>false</activevideoangle>
                    <activeaudioangle>false</activeaudioangle>
                    <clip id="clip-3"/>
                  </angle>
                  <angle>
                    <activevideoangle>false</activevideoangle>
                    <activeaudioangle>false</activeaudioangle>
                    <clip id="clip-4"/>
                  </angle>
                  <angle>
                    <activevideoangle>true</activevideoangle>
                    <activeaudioangle>true</activeaudioangle>
                    <clip id="clip-5"/>
                  </angle>
                  <angle>
                    <activevideoangle>false</activevideoangle>
                    <activeaudioangle>false</activeaudioangle>
                    <clip id="clip-6"/>
                  </angle>
                  <angle>
                    <activevideoangle>false</activevideoangle>
                    <activeaudioangle>false</activeaudioangle>
                    <clip id="clip-7"/>
                  </angle>
                  <masterclipid>clip-master</masterclipid>
                </multiclip>
              </clipitem>
              <clipitem id="cs-830">
                <duration>375</duration>
                <rate>
                  <ntsc>false</ntsc>
                  <timebase>25</timebase>
                </rate>
                <in>17809</in>
                <out>18183</out>
                <start>17809</start>
                <end>18183</end>
                <file id="src-2"/>
                <sourcetrack>
                  <mediatype>video</mediatype>
                  <trackindex>1</trackindex>
                </sourcetrack>
                <multiclip id="mcs-830">
                  <name>MCS-830</name>
                  <masterclipid>clip-master</masterclipid>
                  <collapsed>false</collapsed>
                  <angle>
                    <activevideoangle>false</activevideoangle>
                    <activeaudioangle>false</activeaudioangle>
                    <clip id="clip-1"/>
                  </angle>
                  <angle>
                    <activevideoangle>true</activevideoangle>
                    <activeaudioangle>true</activeaudioangle>
                    <clip id="clip-2"/>
                  </angle>
                  <angle>
                    <activevideoangle>false</activevideoangle>
                    <activeaudioangle>false</activeaudioangle>
                    <clip id="clip-3"/>
                  </angle>
                  <angle>
                    <activevideoangle>false</activevideoangle>
                    <activeaudioangle>false</activeaudioangle>
                    <clip id="clip-4"/>
                  </angle>
                  <angle>
                    <activevideoangle>false</activevideoangle>
                    <activeaudioangle>false</activeaudioangle>
                    <clip id="clip-5"/>
                  </angle>
                  <angle>
                    <activevideoangle>false</activevideoangle>
                    <activeaudioangle>false</activeaudioangle>
                    <clip id="clip-6"/>
                  </angle>
                  <angle>
                    <activevideoangle>false</activevideoangle>
                    <activeaudioangle>false</activeaudioangle>
                    <clip id="clip-7"/>
                  </angle>
                  <masterclipid>clip-master</masterclipid>
                </multiclip>
              </clipitem>
              <clipitem id="cs-831">
                <duration>688</duration>
                <rate>
                  <ntsc>false</ntsc>
                  <timebase>25</timebase>
                </rate>
                <in>18183</in>
                <out>18870</out>
                <start>18183</start>
                <end>18870</end>
                <file id="src-3"/>
                <sourcetrack>
                  <mediatype>video</mediatype>
                  <trackindex>1</trackindex>
                </sourcetrack>
                <multiclip id="mcs-831">
                  <name>MCS-831</name>
                  <masterclipid>clip-master</masterclipid>
                  <collapsed>false</collapsed>
                  <angle>
                    <activevideoangle>false</activevideoangle>
                    <activeaudioangle>false</activeaudioangle>
                    <clip id="clip-1"/>
                  </angle>
                  <angle>
                    <activevideoangle>false</activevideoangle>
                    <activeaudioangle>false</activeaudioangle>
                    <clip id="clip-2"/>
                  </angle>
                  <angle>
                    <activevideoangle>true</activevideoangle>
                    <activeaudioangle>true</activeaudioangle>
                    <clip id="clip-3"/>
                  </angle>
                  <angle>
                    <activevideoangle>false</activevideoangle>
                    <activeaudioangle>false</activeaudioangle>
                    <clip id="clip-4"/>
                  </angle>
                  <angle>
                    <activevideoangle>false</activevideoangle>
                    <activeaudioangle>false</activeaudioangle>
                    <clip id="clip-5"/>
                  </angle>
                  <angle>
                    <activevideoangle>false</activevideoangle>
                    <activeaudioangle>false</activeaudioangle>
                    <clip id="clip-6"/>
                  </angle>
                  <angle>
                    <activevideoangle>false</activevideoangle>
                    <activeaudioangle>false</activeaudioangle>
                    <clip id="clip-7"/>
                  </angle>
                  <masterclipid>clip-master</masterclipid>
                </multiclip>
              </clipitem>
              <clipitem id="cs-832">
                <duration>254</duration>
                <rate>
                  <ntsc>false</ntsc>
                  <timebase>25</timebase>
                </rate>
                <in>18870</in>
                <out>19123</out>
                <start>18870</start>
                <end>19123</end>
                <file id="src-4"/>
                <sourcetrack>
                  <mediatype>video</mediatype>
                  <trackindex>1</trackindex>
                </sourcetrack>
                <multiclip id="mcs-832">
                  <name>MCS-832</name>
                  <masterclipid>clip-master</masterclipid>
                  <collapsed>false</collapsed>
                  <angle>
                    <activevideoangle>false</activevideoangle>
                    <activeaudioangle>false</activeaudioangle>
                    <clip id="clip-1"/>
                  </angle>
                  <angle>
                    <activevideoangle>false</activevideoangle>
                    <activeaudioangle>false</activeaudioangle>
                    <clip id="clip-2"/>
                  </angle>
                  <angle>
                    <activevideoangle>false</activevideoangle>
                    <activeaudioangle>false</activeaudioangle>
                    <clip id="clip-3"/>
                  </angle>
                  <angle>
                    <activevideoangle>true</activevideoangle>
                    <activeaudioangle>true</activeaudioangle>
                    <clip id="clip-4"/>
                  </angle>
                  <angle>
                    <activevideoangle>false</activevideoangle>
                    <activeaudioangle>false</activeaudioangle>
                    <clip id="clip-5"/>
                  </angle>
                  <angle>
                    <activevideoangle>false</activevideoangle>
                    <activeaudioangle>false</activeaudioangle>
                    <clip id="clip-6"/>
                  </angle>
                  <angle>
                    <activevideoangle>false</activevideoangle>
                    <activeaudioangle>false</activeaudioangle>
                    <clip id="clip-7"/>
                  </angle>
                  <masterclipid>clip-master</masterclipid>
                </multiclip>
              </clipitem>
              <clipitem id="cs-833">
                <duration>175</duration>
                <rate>
                  <ntsc>false</ntsc>
                  <timebase>25</timebase>
                </rate>
                <in>19123</in>
                <out>19297</out>
                <start>19123</start>
                <end>19297</end>
                <file id="src-1"/>
                <sourcetrack>
                  <mediatype>video</mediatype>
                  <trackindex>1</trackindex>
                </sourcetrack>
                <multiclip id="mcs-833">
                  <name>MCS-833</name>
                  <masterclipid>clip-master</masterclipid>
                  <collapsed>false</collapsed>
                  <angle>
                    <activevideoangle>true</activevideoangle>
                    <activeaudioangle>true</activeaudioangle>
                    <clip id="clip-1"/>
                  </angle>
                  <angle>
                    <activevideoangle>false</activevideoangle>
                    <activeaudioangle>false</activeaudioangle>
                    <clip id="clip-2"/>
                  </angle>
                  <angle>
                    <activevideoangle>false</activevideoangle>
                    <activeaudioangle>false</activeaudioangle>
                    <clip id="clip-3"/>
                  </angle>
                  <angle>
                    <activevideoangle>false</activevideoangle>
                    <activeaudioangle>false</activeaudioangle>
                    <clip id="clip-4"/>
                  </angle>
                  <angle>
                    <activevideoangle>false</activevideoangle>
                    <activeaudioangle>false</activeaudioangle>
                    <clip id="clip-5"/>
                  </angle>
                  <angle>
                    <activevideoangle>false</activevideoangle>
                    <activeaudioangle>false</activeaudioangle>
                    <clip id="clip-6"/>
                  </angle>
                  <angle>
                    <activevideoangle>false</activevideoangle>
                    <activeaudioangle>false</activeaudioangle>
                    <clip id="clip-7"/>
                  </angle>
                  <masterclipid>clip-master</masterclipid>
                </multiclip>
              </clipitem>
              <clipitem id="cs-834">
                <duration>189</duration>
                <rate>
                  <ntsc>false</ntsc>
                  <timebase>25</timebase>
                </rate>
                <in>19297</in>
                <out>19485</out>
                <start>19297</start>
                <end>19485</end>
                <file id="src-2"/>
                <sourcetrack>
                  <mediatype>video</mediatype>
                  <trackindex>1</trackindex>
                </sourcetrack>
                <multiclip id="mcs-834">
                  <name>MCS-834</name>
                  <masterclipid>clip-master</masterclipid>
                  <collapsed>false</collapsed>
                  <angle>
                    <activevideoangle>false</activevideoangle>
                    <activeaudioangle>false</activeaudioangle>
                    <clip id="clip-1"/>
                  </angle>
                  <angle>
                    <activevideoangle>true</activevideoangle>
                    <activeaudioangle>true</activeaudioangle>
                    <clip id="clip-2"/>
                  </angle>
                  <angle>
                    <activevideoangle>false</activevideoangle>
                    <activeaudioangle>false</activeaudioangle>
                    <clip id="clip-3"/>
                  </angle>
                  <angle>
                    <activevideoangle>false</activevideoangle>
                    <activeaudioangle>false</activeaudioangle>
                    <clip id="clip-4"/>
                  </angle>
                  <angle>
                    <activevideoangle>false</activevideoangle>
                    <activeaudioangle>false</activeaudioangle>
                    <clip id="clip-5"/>
                  </angle>
                  <angle>
                    <activevideoangle>false</activevideoangle>
                    <activeaudioangle>false</activeaudioangle>
                    <clip id="clip-6"/>
                  </angle>
                  <angle>
                    <activevideoangle>false</activevideoangle>
                    <activeaudioangle>false</activeaudioangle>
                    <clip id="clip-7"/>
                  </angle>
                  <masterclipid>clip-master</masterclipid>
                </multiclip>
              </clipitem>
              <clipitem id="cs-835">
                <duration>99</duration>
                <rate>
                  <ntsc>false</ntsc>
                  <timebase>25</timebase>
                </rate>
                <in>19485</in>
                <out>19583</out>
                <start>19485</start>
                <end>19583</end>
                <file id="src-1"/>
                <sourcetrack>
                  <mediatype>video</mediatype>
                  <trackindex>1</trackindex>
                </sourcetrack>
                <multiclip id="mcs-835">
                  <name>MCS-835</name>
                  <masterclipid>clip-master</masterclipid>
                  <collapsed>false</collapsed>
                  <angle>
                    <activevideoangle>true</activevideoangle>
                    <activeaudioangle>true</activeaudioangle>
                    <clip id="clip-1"/>
                  </angle>
                  <angle>
                    <activevideoangle>false</activevideoangle>
                    <activeaudioangle>false</activeaudioangle>
                    <clip id="clip-2"/>
                  </angle>
                  <angle>
                    <activevideoangle>false</activevideoangle>
                    <activeaudioangle>false</activeaudioangle>
                    <clip id="clip-3"/>
                  </angle>
                  <angle>
                    <activevideoangle>false</activevideoangle>
                    <activeaudioangle>false</activeaudioangle>
                    <clip id="clip-4"/>
                  </angle>
                  <angle>
                    <activevideoangle>false</activevideoangle>
                    <activeaudioangle>false</activeaudioangle>
                    <clip id="clip-5"/>
                  </angle>
                  <angle>
                    <activevideoangle>false</activevideoangle>
                    <activeaudioangle>false</activeaudioangle>
                    <clip id="clip-6"/>
                  </angle>
                  <angle>
                    <activevideoangle>false</activevideoangle>
                    <activeaudioangle>false</activeaudioangle>
                    <clip id="clip-7"/>
                  </angle>
                  <masterclipid>clip-master</masterclipid>
                </multiclip>
              </clipitem>
              <clipitem id="cs-836">
                <duration>193</duration>
                <rate>
                  <ntsc>false</ntsc>
                  <timebase>25</timebase>
                </rate>
                <in>19583</in>
                <out>19775</out>
                <start>19583</start>
                <end>19775</end>
                <file id="src-5"/>
                <sourcetrack>
                  <mediatype>video</mediatype>
                  <trackindex>1</trackindex>
                </sourcetrack>
                <multiclip id="mcs-836">
                  <name>MCS-836</name>
                  <masterclipid>clip-master</masterclipid>
                  <collapsed>false</collapsed>
                  <angle>
                    <activevideoangle>false</activevideoangle>
                    <activeaudioangle>false</activeaudioangle>
                    <clip id="clip-1"/>
                  </angle>
                  <angle>
                    <activevideoangle>false</activevideoangle>
                    <activeaudioangle>false</activeaudioangle>
                    <clip id="clip-2"/>
                  </angle>
                  <angle>
                    <activevideoangle>false</activevideoangle>
                    <activeaudioangle>false</activeaudioangle>
                    <clip id="clip-3"/>
                  </angle>
                  <angle>
                    <activevideoangle>false</activevideoangle>
                    <activeaudioangle>false</activeaudioangle>
                    <clip id="clip-4"/>
                  </angle>
                  <angle>
                    <activevideoangle>true</activevideoangle>
                    <activeaudioangle>true</activeaudioangle>
                    <clip id="clip-5"/>
                  </angle>
                  <angle>
                    <activevideoangle>false</activevideoangle>
                    <activeaudioangle>false</activeaudioangle>
                    <clip id="clip-6"/>
                  </angle>
                  <angle>
                    <activevideoangle>false</activevideoangle>
                    <activeaudioangle>false</activeaudioangle>
                    <clip id="clip-7"/>
                  </angle>
                  <masterclipid>clip-master</masterclipid>
                </multiclip>
              </clipitem>
              <clipitem id="cs-837">
                <duration>357</duration>
                <rate>
                  <ntsc>false</ntsc>
                  <timebase>25</timebase>
                </rate>
                <in>19775</in>
                <out>20131</out>
                <start>19775</start>
                <end>20131</end>
                <file id="src-2"/>
                <sourcetrack>
                  <mediatype>video</mediatype>
                  <trackindex>1</trackindex>
                </sourcetrack>
                <multiclip id="mcs-837">
                  <name>MCS-837</name>
                  <masterclipid>clip-master</masterclipid>
                  <collapsed>false</collapsed>
                  <angle>
                    <activevideoangle>false</activevideoangle>
                    <activeaudioangle>false</activeaudioangle>
                    <clip id="clip-1"/>
                  </angle>
                  <angle>
                    <activevideoangle>true</activevideoangle>
                    <activeaudioangle>true</activeaudioangle>
                    <clip id="clip-2"/>
                  </angle>
                  <angle>
                    <activevideoangle>false</activevideoangle>
                    <activeaudioangle>false</activeaudioangle>
                    <clip id="clip-3"/>
                  </angle>
                  <angle>
                    <activevideoangle>false</activevideoangle>
                    <activeaudioangle>false</activeaudioangle>
                    <clip id="clip-4"/>
                  </angle>
                  <angle>
                    <activevideoangle>false</activevideoangle>
                    <activeaudioangle>false</activeaudioangle>
                    <clip id="clip-5"/>
                  </angle>
                  <angle>
                    <activevideoangle>false</activevideoangle>
                    <activeaudioangle>false</activeaudioangle>
                    <clip id="clip-6"/>
                  </angle>
                  <angle>
                    <activevideoangle>false</activevideoangle>
                    <activeaudioangle>false</activeaudioangle>
                    <clip id="clip-7"/>
                  </angle>
                  <masterclipid>clip-master</masterclipid>
                </multiclip>
              </clipitem>
              <clipitem id="cs-838">
                <duration>138</duration>
                <rate>
                  <ntsc>false</ntsc>
                  <timebase>25</timebase>
                </rate>
                <in>20131</in>
                <out>20268</out>
                <start>20131</start>
                <end>20268</end>
                <file id="src-5"/>
                <sourcetrack>
                  <mediatype>video</mediatype>
                  <trackindex>1</trackindex>
                </sourcetrack>
                <multiclip id="mcs-838">
                  <name>MCS-838</name>
                  <masterclipid>clip-master</masterclipid>
                  <collapsed>false</collapsed>
                  <angle>
                    <activevideoangle>false</activevideoangle>
                    <activeaudioangle>false</activeaudioangle>
                    <clip id="clip-1"/>
                  </angle>
                  <angle>
                    <activevideoangle>false</activevideoangle>
                    <activeaudioangle>false</activeaudioangle>
                    <clip id="clip-2"/>
                  </angle>
                  <angle>
                    <activevideoangle>false</activevideoangle>
                    <activeaudioangle>false</activeaudioangle>
                    <clip id="clip-3"/>
                  </angle>
                  <angle>
                    <activevideoangle>false</activevideoangle>
                    <activeaudioangle>false</activeaudioangle>
                    <clip id="clip-4"/>
                  </angle>
                  <angle>
                    <activevideoangle>true</activevideoangle>
                    <activeaudioangle>true</activeaudioangle>
                    <clip id="clip-5"/>
                  </angle>
                  <angle>
                    <activevideoangle>false</activevideoangle>
                    <activeaudioangle>false</activeaudioangle>
                    <clip id="clip-6"/>
                  </angle>
                  <angle>
                    <activevideoangle>false</activevideoangle>
                    <activeaudioangle>false</activeaudioangle>
                    <clip id="clip-7"/>
                  </angle>
                  <masterclipid>clip-master</masterclipid>
                </multiclip>
              </clipitem>
              <clipitem id="cs-839">
                <duration>855</duration>
                <rate>
                  <ntsc>false</ntsc>
                  <timebase>25</timebase>
                </rate>
                <in>20268</in>
                <out>21122</out>
                <start>20268</start>
                <end>21122</end>
                <file id="src-3"/>
                <sourcetrack>
                  <mediatype>video</mediatype>
                  <trackindex>1</trackindex>
                </sourcetrack>
                <multiclip id="mcs-839">
                  <name>MCS-839</name>
                  <masterclipid>clip-master</masterclipid>
                  <collapsed>false</collapsed>
                  <angle>
                    <activevideoangle>false</activevideoangle>
                    <activeaudioangle>false</activeaudioangle>
                    <clip id="clip-1"/>
                  </angle>
                  <angle>
                    <activevideoangle>false</activevideoangle>
                    <activeaudioangle>false</activeaudioangle>
                    <clip id="clip-2"/>
                  </angle>
                  <angle>
                    <activevideoangle>true</activevideoangle>
                    <activeaudioangle>true</activeaudioangle>
                    <clip id="clip-3"/>
                  </angle>
                  <angle>
                    <activevideoangle>false</activevideoangle>
                    <activeaudioangle>false</activeaudioangle>
                    <clip id="clip-4"/>
                  </angle>
                  <angle>
                    <activevideoangle>false</activevideoangle>
                    <activeaudioangle>false</activeaudioangle>
                    <clip id="clip-5"/>
                  </angle>
                  <angle>
                    <activevideoangle>false</activevideoangle>
                    <activeaudioangle>false</activeaudioangle>
                    <clip id="clip-6"/>
                  </angle>
                  <angle>
                    <activevideoangle>false</activevideoangle>
                    <activeaudioangle>false</activeaudioangle>
                    <clip id="clip-7"/>
                  </angle>
                  <masterclipid>clip-master</masterclipid>
                </multiclip>
              </clipitem>
              <clipitem id="cs-840">
                <duration>253</duration>
                <rate>
                  <ntsc>false</ntsc>
                  <timebase>25</timebase>
                </rate>
                <in>21122</in>
                <out>21374</out>
                <start>21122</start>
                <end>21374</end>
                <file id="src-2"/>
                <sourcetrack>
                  <mediatype>video</mediatype>
                  <trackindex>1</trackindex>
                </sourcetrack>
                <multiclip id="mcs-840">
                  <name>MCS-840</name>
                  <masterclipid>clip-master</masterclipid>
                  <collapsed>false</collapsed>
                  <angle>
                    <activevideoangle>false</activevideoangle>
                    <activeaudioangle>false</activeaudioangle>
                    <clip id="clip-1"/>
                  </angle>
                  <angle>
                    <activevideoangle>true</activevideoangle>
                    <activeaudioangle>true</activeaudioangle>
                    <clip id="clip-2"/>
                  </angle>
                  <angle>
                    <activevideoangle>false</activevideoangle>
                    <activeaudioangle>false</activeaudioangle>
                    <clip id="clip-3"/>
                  </angle>
                  <angle>
                    <activevideoangle>false</activevideoangle>
                    <activeaudioangle>false</activeaudioangle>
                    <clip id="clip-4"/>
                  </angle>
                  <angle>
                    <activevideoangle>false</activevideoangle>
                    <activeaudioangle>false</activeaudioangle>
                    <clip id="clip-5"/>
                  </angle>
                  <angle>
                    <activevideoangle>false</activevideoangle>
                    <activeaudioangle>false</activeaudioangle>
                    <clip id="clip-6"/>
                  </angle>
                  <angle>
                    <activevideoangle>false</activevideoangle>
                    <activeaudioangle>false</activeaudioangle>
                    <clip id="clip-7"/>
                  </angle>
                  <masterclipid>clip-master</masterclipid>
                </multiclip>
              </clipitem>
              <clipitem id="cs-841">
                <duration>157</duration>
                <rate>
                  <ntsc>false</ntsc>
                  <timebase>25</timebase>
                </rate>
                <in>21374</in>
                <out>21530</out>
                <start>21374</start>
                <end>21530</end>
                <file id="src-6"/>
                <sourcetrack>
                  <mediatype>video</mediatype>
                  <trackindex>1</trackindex>
                </sourcetrack>
                <multiclip id="mcs-841">
                  <name>MCS-841</name>
                  <masterclipid>clip-master</masterclipid>
                  <collapsed>false</collapsed>
                  <angle>
                    <activevideoangle>false</activevideoangle>
                    <activeaudioangle>false</activeaudioangle>
                    <clip id="clip-1"/>
                  </angle>
                  <angle>
                    <activevideoangle>false</activevideoangle>
                    <activeaudioangle>false</activeaudioangle>
                    <clip id="clip-2"/>
                  </angle>
                  <angle>
                    <activevideoangle>false</activevideoangle>
                    <activeaudioangle>false</activeaudioangle>
                    <clip id="clip-3"/>
                  </angle>
                  <angle>
                    <activevideoangle>false</activevideoangle>
                    <activeaudioangle>false</activeaudioangle>
                    <clip id="clip-4"/>
                  </angle>
                  <angle>
                    <activevideoangle>false</activevideoangle>
                    <activeaudioangle>false</activeaudioangle>
                    <clip id="clip-5"/>
                  </angle>
                  <angle>
                    <activevideoangle>true</activevideoangle>
                    <activeaudioangle>true</activeaudioangle>
                    <clip id="clip-6"/>
                  </angle>
                  <angle>
                    <activevideoangle>false</activevideoangle>
                    <activeaudioangle>false</activeaudioangle>
                    <clip id="clip-7"/>
                  </angle>
                  <masterclipid>clip-master</masterclipid>
                </multiclip>
              </clipitem>
              <clipitem id="cs-842">
                <duration>182</duration>
                <rate>
                  <ntsc>false</ntsc>
                  <timebase>25</timebase>
                </rate>
                <in>21530</in>
                <out>21711</out>
                <start>21530</start>
                <end>21711</end>
                <file id="src-3"/>
                <sourcetrack>
                  <mediatype>video</mediatype>
                  <trackindex>1</trackindex>
                </sourcetrack>
                <multiclip id="mcs-842">
                  <name>MCS-842</name>
                  <masterclipid>clip-master</masterclipid>
                  <collapsed>false</collapsed>
                  <angle>
                    <activevideoangle>false</activevideoangle>
                    <activeaudioangle>false</activeaudioangle>
                    <clip id="clip-1"/>
                  </angle>
                  <angle>
                    <activevideoangle>false</activevideoangle>
                    <activeaudioangle>false</activeaudioangle>
                    <clip id="clip-2"/>
                  </angle>
                  <angle>
                    <activevideoangle>true</activevideoangle>
                    <activeaudioangle>true</activeaudioangle>
                    <clip id="clip-3"/>
                  </angle>
                  <angle>
                    <activevideoangle>false</activevideoangle>
                    <activeaudioangle>false</activeaudioangle>
                    <clip id="clip-4"/>
                  </angle>
                  <angle>
                    <activevideoangle>false</activevideoangle>
                    <activeaudioangle>false</activeaudioangle>
                    <clip id="clip-5"/>
                  </angle>
                  <angle>
                    <activevideoangle>false</activevideoangle>
                    <activeaudioangle>false</activeaudioangle>
                    <clip id="clip-6"/>
                  </angle>
                  <angle>
                    <activevideoangle>false</activevideoangle>
                    <activeaudioangle>false</activeaudioangle>
                    <clip id="clip-7"/>
                  </angle>
                  <masterclipid>clip-master</masterclipid>
                </multiclip>
              </clipitem>
              <clipitem id="cs-843">
                <duration>205</duration>
                <rate>
                  <ntsc>false</ntsc>
                  <timebase>25</timebase>
                </rate>
                <in>21711</in>
                <out>21915</out>
                <start>21711</start>
                <end>21915</end>
                <file id="src-2"/>
                <sourcetrack>
                  <mediatype>video</mediatype>
                  <trackindex>1</trackindex>
                </sourcetrack>
                <multiclip id="mcs-843">
                  <name>MCS-843</name>
                  <masterclipid>clip-master</masterclipid>
                  <collapsed>false</collapsed>
                  <angle>
                    <activevideoangle>false</activevideoangle>
                    <activeaudioangle>false</activeaudioangle>
                    <clip id="clip-1"/>
                  </angle>
                  <angle>
                    <activevideoangle>true</activevideoangle>
                    <activeaudioangle>true</activeaudioangle>
                    <clip id="clip-2"/>
                  </angle>
                  <angle>
                    <activevideoangle>false</activevideoangle>
                    <activeaudioangle>false</activeaudioangle>
                    <clip id="clip-3"/>
                  </angle>
                  <angle>
                    <activevideoangle>false</activevideoangle>
                    <activeaudioangle>false</activeaudioangle>
                    <clip id="clip-4"/>
                  </angle>
                  <angle>
                    <activevideoangle>false</activevideoangle>
                    <activeaudioangle>false</activeaudioangle>
                    <clip id="clip-5"/>
                  </angle>
                  <angle>
                    <activevideoangle>false</activevideoangle>
                    <activeaudioangle>false</activeaudioangle>
                    <clip id="clip-6"/>
                  </angle>
                  <angle>
                    <activevideoangle>false</activevideoangle>
                    <activeaudioangle>false</activeaudioangle>
                    <clip id="clip-7"/>
                  </angle>
                  <masterclipid>clip-master</masterclipid>
                </multiclip>
              </clipitem>
              <clipitem id="cs-844">
                <duration>141</duration>
                <rate>
                  <ntsc>false</ntsc>
                  <timebase>25</timebase>
                </rate>
                <in>21915</in>
                <out>22055</out>
                <start>21915</start>
                <end>22055</end>
                <file id="src-3"/>
                <sourcetrack>
                  <mediatype>video</mediatype>
                  <trackindex>1</trackindex>
                </sourcetrack>
                <multiclip id="mcs-844">
                  <name>MCS-844</name>
                  <masterclipid>clip-master</masterclipid>
                  <collapsed>false</collapsed>
                  <angle>
                    <activevideoangle>false</activevideoangle>
                    <activeaudioangle>false</activeaudioangle>
                    <clip id="clip-1"/>
                  </angle>
                  <angle>
                    <activevideoangle>false</activevideoangle>
                    <activeaudioangle>false</activeaudioangle>
                    <clip id="clip-2"/>
                  </angle>
                  <angle>
                    <activevideoangle>true</activevideoangle>
                    <activeaudioangle>true</activeaudioangle>
                    <clip id="clip-3"/>
                  </angle>
                  <angle>
                    <activevideoangle>false</activevideoangle>
                    <activeaudioangle>false</activeaudioangle>
                    <clip id="clip-4"/>
                  </angle>
                  <angle>
                    <activevideoangle>false</activevideoangle>
                    <activeaudioangle>false</activeaudioangle>
                    <clip id="clip-5"/>
                  </angle>
                  <angle>
                    <activevideoangle>false</activevideoangle>
                    <activeaudioangle>false</activeaudioangle>
                    <clip id="clip-6"/>
                  </angle>
                  <angle>
                    <activevideoangle>false</activevideoangle>
                    <activeaudioangle>false</activeaudioangle>
                    <clip id="clip-7"/>
                  </angle>
                  <masterclipid>clip-master</masterclipid>
                </multiclip>
              </clipitem>
              <clipitem id="cs-845">
                <duration>290</duration>
                <rate>
                  <ntsc>false</ntsc>
                  <timebase>25</timebase>
                </rate>
                <in>22055</in>
                <out>22344</out>
                <start>22055</start>
                <end>22344</end>
                <file id="src-5"/>
                <sourcetrack>
                  <mediatype>video</mediatype>
                  <trackindex>1</trackindex>
                </sourcetrack>
                <multiclip id="mcs-845">
                  <name>MCS-845</name>
                  <masterclipid>clip-master</masterclipid>
                  <collapsed>false</collapsed>
                  <angle>
                    <activevideoangle>false</activevideoangle>
                    <activeaudioangle>false</activeaudioangle>
                    <clip id="clip-1"/>
                  </angle>
                  <angle>
                    <activevideoangle>false</activevideoangle>
                    <activeaudioangle>false</activeaudioangle>
                    <clip id="clip-2"/>
                  </angle>
                  <angle>
                    <activevideoangle>false</activevideoangle>
                    <activeaudioangle>false</activeaudioangle>
                    <clip id="clip-3"/>
                  </angle>
                  <angle>
                    <activevideoangle>false</activevideoangle>
                    <activeaudioangle>false</activeaudioangle>
                    <clip id="clip-4"/>
                  </angle>
                  <angle>
                    <activevideoangle>true</activevideoangle>
                    <activeaudioangle>true</activeaudioangle>
                    <clip id="clip-5"/>
                  </angle>
                  <angle>
                    <activevideoangle>false</activevideoangle>
                    <activeaudioangle>false</activeaudioangle>
                    <clip id="clip-6"/>
                  </angle>
                  <angle>
                    <activevideoangle>false</activevideoangle>
                    <activeaudioangle>false</activeaudioangle>
                    <clip id="clip-7"/>
                  </angle>
                  <masterclipid>clip-master</masterclipid>
                </multiclip>
              </clipitem>
              <clipitem id="cs-846">
                <duration>206</duration>
                <rate>
                  <ntsc>false</ntsc>
                  <timebase>25</timebase>
                </rate>
                <in>22344</in>
                <out>22549</out>
                <start>22344</start>
                <end>22549</end>
                <file id="src-4"/>
                <sourcetrack>
                  <mediatype>video</mediatype>
                  <trackindex>1</trackindex>
                </sourcetrack>
                <multiclip id="mcs-846">
                  <name>MCS-846</name>
                  <masterclipid>clip-master</masterclipid>
                  <collapsed>false</collapsed>
                  <angle>
                    <activevideoangle>false</activevideoangle>
                    <activeaudioangle>false</activeaudioangle>
                    <clip id="clip-1"/>
                  </angle>
                  <angle>
                    <activevideoangle>false</activevideoangle>
                    <activeaudioangle>false</activeaudioangle>
                    <clip id="clip-2"/>
                  </angle>
                  <angle>
                    <activevideoangle>false</activevideoangle>
                    <activeaudioangle>false</activeaudioangle>
                    <clip id="clip-3"/>
                  </angle>
                  <angle>
                    <activevideoangle>true</activevideoangle>
                    <activeaudioangle>true</activeaudioangle>
                    <clip id="clip-4"/>
                  </angle>
                  <angle>
                    <activevideoangle>false</activevideoangle>
                    <activeaudioangle>false</activeaudioangle>
                    <clip id="clip-5"/>
                  </angle>
                  <angle>
                    <activevideoangle>false</activevideoangle>
                    <activeaudioangle>false</activeaudioangle>
                    <clip id="clip-6"/>
                  </angle>
                  <angle>
                    <activevideoangle>false</activevideoangle>
                    <activeaudioangle>false</activeaudioangle>
                    <clip id="clip-7"/>
                  </angle>
                  <masterclipid>clip-master</masterclipid>
                </multiclip>
              </clipitem>
              <clipitem id="cs-847">
                <duration>279</duration>
                <rate>
                  <ntsc>false</ntsc>
                  <timebase>25</timebase>
                </rate>
                <in>22549</in>
                <out>22827</out>
                <start>22549</start>
                <end>22827</end>
                <file id="src-3"/>
                <sourcetrack>
                  <mediatype>video</mediatype>
                  <trackindex>1</trackindex>
                </sourcetrack>
                <multiclip id="mcs-847">
                  <name>MCS-847</name>
                  <masterclipid>clip-master</masterclipid>
                  <collapsed>false</collapsed>
                  <angle>
                    <activevideoangle>false</activevideoangle>
                    <activeaudioangle>false</activeaudioangle>
                    <clip id="clip-1"/>
                  </angle>
                  <angle>
                    <activevideoangle>false</activevideoangle>
                    <activeaudioangle>false</activeaudioangle>
                    <clip id="clip-2"/>
                  </angle>
                  <angle>
                    <activevideoangle>true</activevideoangle>
                    <activeaudioangle>true</activeaudioangle>
                    <clip id="clip-3"/>
                  </angle>
                  <angle>
                    <activevideoangle>false</activevideoangle>
                    <activeaudioangle>false</activeaudioangle>
                    <clip id="clip-4"/>
                  </angle>
                  <angle>
                    <activevideoangle>false</activevideoangle>
                    <activeaudioangle>false</activeaudioangle>
                    <clip id="clip-5"/>
                  </angle>
                  <angle>
                    <activevideoangle>false</activevideoangle>
                    <activeaudioangle>false</activeaudioangle>
                    <clip id="clip-6"/>
                  </angle>
                  <angle>
                    <activevideoangle>false</activevideoangle>
                    <activeaudioangle>false</activeaudioangle>
                    <clip id="clip-7"/>
                  </angle>
                  <masterclipid>clip-master</masterclipid>
                </multiclip>
              </clipitem>
              <clipitem id="cs-848">
                <duration>509</duration>
                <rate>
                  <ntsc>false</ntsc>
                  <timebase>25</timebase>
                </rate>
                <in>22827</in>
                <out>23335</out>
                <start>22827</start>
                <end>23335</end>
                <file id="src-2"/>
                <sourcetrack>
                  <mediatype>video</mediatype>
                  <trackindex>1</trackindex>
                </sourcetrack>
                <multiclip id="mcs-848">
                  <name>MCS-848</name>
                  <masterclipid>clip-master</masterclipid>
                  <collapsed>false</collapsed>
                  <angle>
                    <activevideoangle>false</activevideoangle>
                    <activeaudioangle>false</activeaudioangle>
                    <clip id="clip-1"/>
                  </angle>
                  <angle>
                    <activevideoangle>true</activevideoangle>
                    <activeaudioangle>true</activeaudioangle>
                    <clip id="clip-2"/>
                  </angle>
                  <angle>
                    <activevideoangle>false</activevideoangle>
                    <activeaudioangle>false</activeaudioangle>
                    <clip id="clip-3"/>
                  </angle>
                  <angle>
                    <activevideoangle>false</activevideoangle>
                    <activeaudioangle>false</activeaudioangle>
                    <clip id="clip-4"/>
                  </angle>
                  <angle>
                    <activevideoangle>false</activevideoangle>
                    <activeaudioangle>false</activeaudioangle>
                    <clip id="clip-5"/>
                  </angle>
                  <angle>
                    <activevideoangle>false</activevideoangle>
                    <activeaudioangle>false</activeaudioangle>
                    <clip id="clip-6"/>
                  </angle>
                  <angle>
                    <activevideoangle>false</activevideoangle>
                    <activeaudioangle>false</activeaudioangle>
                    <clip id="clip-7"/>
                  </angle>
                  <masterclipid>clip-master</masterclipid>
                </multiclip>
              </clipitem>
              <clipitem id="cs-849">
                <duration>182</duration>
                <rate>
                  <ntsc>false</ntsc>
                  <timebase>25</timebase>
                </rate>
                <in>23335</in>
                <out>23516</out>
                <start>23335</start>
                <end>23516</end>
                <file id="src-4"/>
                <sourcetrack>
                  <mediatype>video</mediatype>
                  <trackindex>1</trackindex>
                </sourcetrack>
                <multiclip id="mcs-849">
                  <name>MCS-849</name>
                  <masterclipid>clip-master</masterclipid>
                  <collapsed>false</collapsed>
                  <angle>
                    <activevideoangle>false</activevideoangle>
                    <activeaudioangle>false</activeaudioangle>
                    <clip id="clip-1"/>
                  </angle>
                  <angle>
                    <activevideoangle>false</activevideoangle>
                    <activeaudioangle>false</activeaudioangle>
                    <clip id="clip-2"/>
                  </angle>
                  <angle>
                    <activevideoangle>false</activevideoangle>
                    <activeaudioangle>false</activeaudioangle>
                    <clip id="clip-3"/>
                  </angle>
                  <angle>
                    <activevideoangle>true</activevideoangle>
                    <activeaudioangle>true</activeaudioangle>
                    <clip id="clip-4"/>
                  </angle>
                  <angle>
                    <activevideoangle>false</activevideoangle>
                    <activeaudioangle>false</activeaudioangle>
                    <clip id="clip-5"/>
                  </angle>
                  <angle>
                    <activevideoangle>false</activevideoangle>
                    <activeaudioangle>false</activeaudioangle>
                    <clip id="clip-6"/>
                  </angle>
                  <angle>
                    <activevideoangle>false</activevideoangle>
                    <activeaudioangle>false</activeaudioangle>
                    <clip id="clip-7"/>
                  </angle>
                  <masterclipid>clip-master</masterclipid>
                </multiclip>
              </clipitem>
              <clipitem id="cs-850">
                <duration>350</duration>
                <rate>
                  <ntsc>false</ntsc>
                  <timebase>25</timebase>
                </rate>
                <in>23516</in>
                <out>23865</out>
                <start>23516</start>
                <end>23865</end>
                <file id="src-3"/>
                <sourcetrack>
                  <mediatype>video</mediatype>
                  <trackindex>1</trackindex>
                </sourcetrack>
                <multiclip id="mcs-850">
                  <name>MCS-850</name>
                  <masterclipid>clip-master</masterclipid>
                  <collapsed>false</collapsed>
                  <angle>
                    <activevideoangle>false</activevideoangle>
                    <activeaudioangle>false</activeaudioangle>
                    <clip id="clip-1"/>
                  </angle>
                  <angle>
                    <activevideoangle>false</activevideoangle>
                    <activeaudioangle>false</activeaudioangle>
                    <clip id="clip-2"/>
                  </angle>
                  <angle>
                    <activevideoangle>true</activevideoangle>
                    <activeaudioangle>true</activeaudioangle>
                    <clip id="clip-3"/>
                  </angle>
                  <angle>
                    <activevideoangle>false</activevideoangle>
                    <activeaudioangle>false</activeaudioangle>
                    <clip id="clip-4"/>
                  </angle>
                  <angle>
                    <activevideoangle>false</activevideoangle>
                    <activeaudioangle>false</activeaudioangle>
                    <clip id="clip-5"/>
                  </angle>
                  <angle>
                    <activevideoangle>false</activevideoangle>
                    <activeaudioangle>false</activeaudioangle>
                    <clip id="clip-6"/>
                  </angle>
                  <angle>
                    <activevideoangle>false</activevideoangle>
                    <activeaudioangle>false</activeaudioangle>
                    <clip id="clip-7"/>
                  </angle>
                  <masterclipid>clip-master</masterclipid>
                </multiclip>
              </clipitem>
              <clipitem id="cs-851">
                <duration>184</duration>
                <rate>
                  <ntsc>false</ntsc>
                  <timebase>25</timebase>
                </rate>
                <in>23865</in>
                <out>24048</out>
                <start>23865</start>
                <end>24048</end>
                <file id="src-4"/>
                <sourcetrack>
                  <mediatype>video</mediatype>
                  <trackindex>1</trackindex>
                </sourcetrack>
                <multiclip id="mcs-851">
                  <name>MCS-851</name>
                  <masterclipid>clip-master</masterclipid>
                  <collapsed>false</collapsed>
                  <angle>
                    <activevideoangle>false</activevideoangle>
                    <activeaudioangle>false</activeaudioangle>
                    <clip id="clip-1"/>
                  </angle>
                  <angle>
                    <activevideoangle>false</activevideoangle>
                    <activeaudioangle>false</activeaudioangle>
                    <clip id="clip-2"/>
                  </angle>
                  <angle>
                    <activevideoangle>false</activevideoangle>
                    <activeaudioangle>false</activeaudioangle>
                    <clip id="clip-3"/>
                  </angle>
                  <angle>
                    <activevideoangle>true</activevideoangle>
                    <activeaudioangle>true</activeaudioangle>
                    <clip id="clip-4"/>
                  </angle>
                  <angle>
                    <activevideoangle>false</activevideoangle>
                    <activeaudioangle>false</activeaudioangle>
                    <clip id="clip-5"/>
                  </angle>
                  <angle>
                    <activevideoangle>false</activevideoangle>
                    <activeaudioangle>false</activeaudioangle>
                    <clip id="clip-6"/>
                  </angle>
                  <angle>
                    <activevideoangle>false</activevideoangle>
                    <activeaudioangle>false</activeaudioangle>
                    <clip id="clip-7"/>
                  </angle>
                  <masterclipid>clip-master</masterclipid>
                </multiclip>
              </clipitem>
              <clipitem id="cs-852">
                <duration>301</duration>
                <rate>
                  <ntsc>false</ntsc>
                  <timebase>25</timebase>
                </rate>
                <in>24048</in>
                <out>24348</out>
                <start>24048</start>
                <end>24348</end>
                <file id="src-2"/>
                <sourcetrack>
                  <mediatype>video</mediatype>
                  <trackindex>1</trackindex>
                </sourcetrack>
                <multiclip id="mcs-852">
                  <name>MCS-852</name>
                  <masterclipid>clip-master</masterclipid>
                  <collapsed>false</collapsed>
                  <angle>
                    <activevideoangle>false</activevideoangle>
                    <activeaudioangle>false</activeaudioangle>
                    <clip id="clip-1"/>
                  </angle>
                  <angle>
                    <activevideoangle>true</activevideoangle>
                    <activeaudioangle>true</activeaudioangle>
                    <clip id="clip-2"/>
                  </angle>
                  <angle>
                    <activevideoangle>false</activevideoangle>
                    <activeaudioangle>false</activeaudioangle>
                    <clip id="clip-3"/>
                  </angle>
                  <angle>
                    <activevideoangle>false</activevideoangle>
                    <activeaudioangle>false</activeaudioangle>
                    <clip id="clip-4"/>
                  </angle>
                  <angle>
                    <activevideoangle>false</activevideoangle>
                    <activeaudioangle>false</activeaudioangle>
                    <clip id="clip-5"/>
                  </angle>
                  <angle>
                    <activevideoangle>false</activevideoangle>
                    <activeaudioangle>false</activeaudioangle>
                    <clip id="clip-6"/>
                  </angle>
                  <angle>
                    <activevideoangle>false</activevideoangle>
                    <activeaudioangle>false</activeaudioangle>
                    <clip id="clip-7"/>
                  </angle>
                  <masterclipid>clip-master</masterclipid>
                </multiclip>
              </clipitem>
              <clipitem id="cs-853">
                <duration>113</duration>
                <rate>
                  <ntsc>false</ntsc>
                  <timebase>25</timebase>
                </rate>
                <in>24348</in>
                <out>24460</out>
                <start>24348</start>
                <end>24460</end>
                <file id="src-3"/>
                <sourcetrack>
                  <mediatype>video</mediatype>
                  <trackindex>1</trackindex>
                </sourcetrack>
                <multiclip id="mcs-853">
                  <name>MCS-853</name>
                  <masterclipid>clip-master</masterclipid>
                  <collapsed>false</collapsed>
                  <angle>
                    <activevideoangle>false</activevideoangle>
                    <activeaudioangle>false</activeaudioangle>
                    <clip id="clip-1"/>
                  </angle>
                  <angle>
                    <activevideoangle>false</activevideoangle>
                    <activeaudioangle>false</activeaudioangle>
                    <clip id="clip-2"/>
                  </angle>
                  <angle>
                    <activevideoangle>true</activevideoangle>
                    <activeaudioangle>true</activeaudioangle>
                    <clip id="clip-3"/>
                  </angle>
                  <angle>
                    <activevideoangle>false</activevideoangle>
                    <activeaudioangle>false</activeaudioangle>
                    <clip id="clip-4"/>
                  </angle>
                  <angle>
                    <activevideoangle>false</activevideoangle>
                    <activeaudioangle>false</activeaudioangle>
                    <clip id="clip-5"/>
                  </angle>
                  <angle>
                    <activevideoangle>false</activevideoangle>
                    <activeaudioangle>false</activeaudioangle>
                    <clip id="clip-6"/>
                  </angle>
                  <angle>
                    <activevideoangle>false</activevideoangle>
                    <activeaudioangle>false</activeaudioangle>
                    <clip id="clip-7"/>
                  </angle>
                  <masterclipid>clip-master</masterclipid>
                </multiclip>
              </clipitem>
              <clipitem id="cs-854">
                <duration>111</duration>
                <rate>
                  <ntsc>false</ntsc>
                  <timebase>25</timebase>
                </rate>
                <in>24460</in>
                <out>24570</out>
                <start>24460</start>
                <end>24570</end>
                <file id="src-4"/>
                <sourcetrack>
                  <mediatype>video</mediatype>
                  <trackindex>1</trackindex>
                </sourcetrack>
                <multiclip id="mcs-854">
                  <name>MCS-854</name>
                  <masterclipid>clip-master</masterclipid>
                  <collapsed>false</collapsed>
                  <angle>
                    <activevideoangle>false</activevideoangle>
                    <activeaudioangle>false</activeaudioangle>
                    <clip id="clip-1"/>
                  </angle>
                  <angle>
                    <activevideoangle>false</activevideoangle>
                    <activeaudioangle>false</activeaudioangle>
                    <clip id="clip-2"/>
                  </angle>
                  <angle>
                    <activevideoangle>false</activevideoangle>
                    <activeaudioangle>false</activeaudioangle>
                    <clip id="clip-3"/>
                  </angle>
                  <angle>
                    <activevideoangle>true</activevideoangle>
                    <activeaudioangle>true</activeaudioangle>
                    <clip id="clip-4"/>
                  </angle>
                  <angle>
                    <activevideoangle>false</activevideoangle>
                    <activeaudioangle>false</activeaudioangle>
                    <clip id="clip-5"/>
                  </angle>
                  <angle>
                    <activevideoangle>false</activevideoangle>
                    <activeaudioangle>false</activeaudioangle>
                    <clip id="clip-6"/>
                  </angle>
                  <angle>
                    <activevideoangle>false</activevideoangle>
                    <activeaudioangle>false</activeaudioangle>
                    <clip id="clip-7"/>
                  </angle>
                  <masterclipid>clip-master</masterclipid>
                </multiclip>
              </clipitem>
              <clipitem id="cs-855">
                <duration>123</duration>
                <rate>
                  <ntsc>false</ntsc>
                  <timebase>25</timebase>
                </rate>
                <in>24570</in>
                <out>24692</out>
                <start>24570</start>
                <end>24692</end>
                <file id="src-5"/>
                <sourcetrack>
                  <mediatype>video</mediatype>
                  <trackindex>1</trackindex>
                </sourcetrack>
                <multiclip id="mcs-855">
                  <name>MCS-855</name>
                  <masterclipid>clip-master</masterclipid>
                  <collapsed>false</collapsed>
                  <angle>
                    <activevideoangle>false</activevideoangle>
                    <activeaudioangle>false</activeaudioangle>
                    <clip id="clip-1"/>
                  </angle>
                  <angle>
                    <activevideoangle>false</activevideoangle>
                    <activeaudioangle>false</activeaudioangle>
                    <clip id="clip-2"/>
                  </angle>
                  <angle>
                    <activevideoangle>false</activevideoangle>
                    <activeaudioangle>false</activeaudioangle>
                    <clip id="clip-3"/>
                  </angle>
                  <angle>
                    <activevideoangle>false</activevideoangle>
                    <activeaudioangle>false</activeaudioangle>
                    <clip id="clip-4"/>
                  </angle>
                  <angle>
                    <activevideoangle>true</activevideoangle>
                    <activeaudioangle>true</activeaudioangle>
                    <clip id="clip-5"/>
                  </angle>
                  <angle>
                    <activevideoangle>false</activevideoangle>
                    <activeaudioangle>false</activeaudioangle>
                    <clip id="clip-6"/>
                  </angle>
                  <angle>
                    <activevideoangle>false</activevideoangle>
                    <activeaudioangle>false</activeaudioangle>
                    <clip id="clip-7"/>
                  </angle>
                  <masterclipid>clip-master</masterclipid>
                </multiclip>
              </clipitem>
              <clipitem id="cs-856">
                <duration>221</duration>
                <rate>
                  <ntsc>false</ntsc>
                  <timebase>25</timebase>
                </rate>
                <in>24692</in>
                <out>24912</out>
                <start>24692</start>
                <end>24912</end>
                <file id="src-2"/>
                <sourcetrack>
                  <mediatype>video</mediatype>
                  <trackindex>1</trackindex>
                </sourcetrack>
                <multiclip id="mcs-856">
                  <name>MCS-856</name>
                  <masterclipid>clip-master</masterclipid>
                  <collapsed>false</collapsed>
                  <angle>
                    <activevideoangle>false</activevideoangle>
                    <activeaudioangle>false</activeaudioangle>
                    <clip id="clip-1"/>
                  </angle>
                  <angle>
                    <activevideoangle>true</activevideoangle>
                    <activeaudioangle>true</activeaudioangle>
                    <clip id="clip-2"/>
                  </angle>
                  <angle>
                    <activevideoangle>false</activevideoangle>
                    <activeaudioangle>false</activeaudioangle>
                    <clip id="clip-3"/>
                  </angle>
                  <angle>
                    <activevideoangle>false</activevideoangle>
                    <activeaudioangle>false</activeaudioangle>
                    <clip id="clip-4"/>
                  </angle>
                  <angle>
                    <activevideoangle>false</activevideoangle>
                    <activeaudioangle>false</activeaudioangle>
                    <clip id="clip-5"/>
                  </angle>
                  <angle>
                    <activevideoangle>false</activevideoangle>
                    <activeaudioangle>false</activeaudioangle>
                    <clip id="clip-6"/>
                  </angle>
                  <angle>
                    <activevideoangle>false</activevideoangle>
                    <activeaudioangle>false</activeaudioangle>
                    <clip id="clip-7"/>
                  </angle>
                  <masterclipid>clip-master</masterclipid>
                </multiclip>
              </clipitem>
              <clipitem id="cs-857">
                <duration>376</duration>
                <rate>
                  <ntsc>false</ntsc>
                  <timebase>25</timebase>
                </rate>
                <in>24912</in>
                <out>25287</out>
                <start>24912</start>
                <end>25287</end>
                <file id="src-1"/>
                <sourcetrack>
                  <mediatype>video</mediatype>
                  <trackindex>1</trackindex>
                </sourcetrack>
                <multiclip id="mcs-857">
                  <name>MCS-857</name>
                  <masterclipid>clip-master</masterclipid>
                  <collapsed>false</collapsed>
                  <angle>
                    <activevideoangle>true</activevideoangle>
                    <activeaudioangle>true</activeaudioangle>
                    <clip id="clip-1"/>
                  </angle>
                  <angle>
                    <activevideoangle>false</activevideoangle>
                    <activeaudioangle>false</activeaudioangle>
                    <clip id="clip-2"/>
                  </angle>
                  <angle>
                    <activevideoangle>false</activevideoangle>
                    <activeaudioangle>false</activeaudioangle>
                    <clip id="clip-3"/>
                  </angle>
                  <angle>
                    <activevideoangle>false</activevideoangle>
                    <activeaudioangle>false</activeaudioangle>
                    <clip id="clip-4"/>
                  </angle>
                  <angle>
                    <activevideoangle>false</activevideoangle>
                    <activeaudioangle>false</activeaudioangle>
                    <clip id="clip-5"/>
                  </angle>
                  <angle>
                    <activevideoangle>false</activevideoangle>
                    <activeaudioangle>false</activeaudioangle>
                    <clip id="clip-6"/>
                  </angle>
                  <angle>
                    <activevideoangle>false</activevideoangle>
                    <activeaudioangle>false</activeaudioangle>
                    <clip id="clip-7"/>
                  </angle>
                  <masterclipid>clip-master</masterclipid>
                </multiclip>
              </clipitem>
              <clipitem id="cs-858">
                <duration>806</duration>
                <rate>
                  <ntsc>false</ntsc>
                  <timebase>25</timebase>
                </rate>
                <in>25287</in>
                <out>26092</out>
                <start>25287</start>
                <end>26092</end>
                <file id="src-3"/>
                <sourcetrack>
                  <mediatype>video</mediatype>
                  <trackindex>1</trackindex>
                </sourcetrack>
                <multiclip id="mcs-858">
                  <name>MCS-858</name>
                  <masterclipid>clip-master</masterclipid>
                  <collapsed>false</collapsed>
                  <angle>
                    <activevideoangle>false</activevideoangle>
                    <activeaudioangle>false</activeaudioangle>
                    <clip id="clip-1"/>
                  </angle>
                  <angle>
                    <activevideoangle>false</activevideoangle>
                    <activeaudioangle>false</activeaudioangle>
                    <clip id="clip-2"/>
                  </angle>
                  <angle>
                    <activevideoangle>true</activevideoangle>
                    <activeaudioangle>true</activeaudioangle>
                    <clip id="clip-3"/>
                  </angle>
                  <angle>
                    <activevideoangle>false</activevideoangle>
                    <activeaudioangle>false</activeaudioangle>
                    <clip id="clip-4"/>
                  </angle>
                  <angle>
                    <activevideoangle>false</activevideoangle>
                    <activeaudioangle>false</activeaudioangle>
                    <clip id="clip-5"/>
                  </angle>
                  <angle>
                    <activevideoangle>false</activevideoangle>
                    <activeaudioangle>false</activeaudioangle>
                    <clip id="clip-6"/>
                  </angle>
                  <angle>
                    <activevideoangle>false</activevideoangle>
                    <activeaudioangle>false</activeaudioangle>
                    <clip id="clip-7"/>
                  </angle>
                  <masterclipid>clip-master</masterclipid>
                </multiclip>
              </clipitem>
              <clipitem id="cs-859">
                <duration>165</duration>
                <rate>
                  <ntsc>false</ntsc>
                  <timebase>25</timebase>
                </rate>
                <in>26092</in>
                <out>26256</out>
                <start>26092</start>
                <end>26256</end>
                <file id="src-4"/>
                <sourcetrack>
                  <mediatype>video</mediatype>
                  <trackindex>1</trackindex>
                </sourcetrack>
                <multiclip id="mcs-859">
                  <name>MCS-859</name>
                  <masterclipid>clip-master</masterclipid>
                  <collapsed>false</collapsed>
                  <angle>
                    <activevideoangle>false</activevideoangle>
                    <activeaudioangle>false</activeaudioangle>
                    <clip id="clip-1"/>
                  </angle>
                  <angle>
                    <activevideoangle>false</activevideoangle>
                    <activeaudioangle>false</activeaudioangle>
                    <clip id="clip-2"/>
                  </angle>
                  <angle>
                    <activevideoangle>false</activevideoangle>
                    <activeaudioangle>false</activeaudioangle>
                    <clip id="clip-3"/>
                  </angle>
                  <angle>
                    <activevideoangle>true</activevideoangle>
                    <activeaudioangle>true</activeaudioangle>
                    <clip id="clip-4"/>
                  </angle>
                  <angle>
                    <activevideoangle>false</activevideoangle>
                    <activeaudioangle>false</activeaudioangle>
                    <clip id="clip-5"/>
                  </angle>
                  <angle>
                    <activevideoangle>false</activevideoangle>
                    <activeaudioangle>false</activeaudioangle>
                    <clip id="clip-6"/>
                  </angle>
                  <angle>
                    <activevideoangle>false</activevideoangle>
                    <activeaudioangle>false</activeaudioangle>
                    <clip id="clip-7"/>
                  </angle>
                  <masterclipid>clip-master</masterclipid>
                </multiclip>
              </clipitem>
              <clipitem id="cs-860">
                <duration>495</duration>
                <rate>
                  <ntsc>false</ntsc>
                  <timebase>25</timebase>
                </rate>
                <in>26256</in>
                <out>26750</out>
                <start>26256</start>
                <end>26750</end>
                <file id="src-2"/>
                <sourcetrack>
                  <mediatype>video</mediatype>
                  <trackindex>1</trackindex>
                </sourcetrack>
                <multiclip id="mcs-860">
                  <name>MCS-860</name>
                  <masterclipid>clip-master</masterclipid>
                  <collapsed>false</collapsed>
                  <angle>
                    <activevideoangle>false</activevideoangle>
                    <activeaudioangle>false</activeaudioangle>
                    <clip id="clip-1"/>
                  </angle>
                  <angle>
                    <activevideoangle>true</activevideoangle>
                    <activeaudioangle>true</activeaudioangle>
                    <clip id="clip-2"/>
                  </angle>
                  <angle>
                    <activevideoangle>false</activevideoangle>
                    <activeaudioangle>false</activeaudioangle>
                    <clip id="clip-3"/>
                  </angle>
                  <angle>
                    <activevideoangle>false</activevideoangle>
                    <activeaudioangle>false</activeaudioangle>
                    <clip id="clip-4"/>
                  </angle>
                  <angle>
                    <activevideoangle>false</activevideoangle>
                    <activeaudioangle>false</activeaudioangle>
                    <clip id="clip-5"/>
                  </angle>
                  <angle>
                    <activevideoangle>false</activevideoangle>
                    <activeaudioangle>false</activeaudioangle>
                    <clip id="clip-6"/>
                  </angle>
                  <angle>
                    <activevideoangle>false</activevideoangle>
                    <activeaudioangle>false</activeaudioangle>
                    <clip id="clip-7"/>
                  </angle>
                  <masterclipid>clip-master</masterclipid>
                </multiclip>
              </clipitem>
              <clipitem id="cs-861">
                <duration>339</duration>
                <rate>
                  <ntsc>false</ntsc>
                  <timebase>25</timebase>
                </rate>
                <in>26750</in>
                <out>27088</out>
                <start>26750</start>
                <end>27088</end>
                <file id="src-3"/>
                <sourcetrack>
                  <mediatype>video</mediatype>
                  <trackindex>1</trackindex>
                </sourcetrack>
                <multiclip id="mcs-861">
                  <name>MCS-861</name>
                  <masterclipid>clip-master</masterclipid>
                  <collapsed>false</collapsed>
                  <angle>
                    <activevideoangle>false</activevideoangle>
                    <activeaudioangle>false</activeaudioangle>
                    <clip id="clip-1"/>
                  </angle>
                  <angle>
                    <activevideoangle>false</activevideoangle>
                    <activeaudioangle>false</activeaudioangle>
                    <clip id="clip-2"/>
                  </angle>
                  <angle>
                    <activevideoangle>true</activevideoangle>
                    <activeaudioangle>true</activeaudioangle>
                    <clip id="clip-3"/>
                  </angle>
                  <angle>
                    <activevideoangle>false</activevideoangle>
                    <activeaudioangle>false</activeaudioangle>
                    <clip id="clip-4"/>
                  </angle>
                  <angle>
                    <activevideoangle>false</activevideoangle>
                    <activeaudioangle>false</activeaudioangle>
                    <clip id="clip-5"/>
                  </angle>
                  <angle>
                    <activevideoangle>false</activevideoangle>
                    <activeaudioangle>false</activeaudioangle>
                    <clip id="clip-6"/>
                  </angle>
                  <angle>
                    <activevideoangle>false</activevideoangle>
                    <activeaudioangle>false</activeaudioangle>
                    <clip id="clip-7"/>
                  </angle>
                  <masterclipid>clip-master</masterclipid>
                </multiclip>
              </clipitem>
              <clipitem id="cs-862">
                <duration>273</duration>
                <rate>
                  <ntsc>false</ntsc>
                  <timebase>25</timebase>
                </rate>
                <in>27088</in>
                <out>27360</out>
                <start>27088</start>
                <end>27360</end>
                <file id="src-4"/>
                <sourcetrack>
                  <mediatype>video</mediatype>
                  <trackindex>1</trackindex>
                </sourcetrack>
                <multiclip id="mcs-862">
                  <name>MCS-862</name>
                  <masterclipid>clip-master</masterclipid>
                  <collapsed>false</collapsed>
                  <angle>
                    <activevideoangle>false</activevideoangle>
                    <activeaudioangle>false</activeaudioangle>
                    <clip id="clip-1"/>
                  </angle>
                  <angle>
                    <activevideoangle>false</activevideoangle>
                    <activeaudioangle>false</activeaudioangle>
                    <clip id="clip-2"/>
                  </angle>
                  <angle>
                    <activevideoangle>false</activevideoangle>
                    <activeaudioangle>false</activeaudioangle>
                    <clip id="clip-3"/>
                  </angle>
                  <angle>
                    <activevideoangle>true</activevideoangle>
                    <activeaudioangle>true</activeaudioangle>
                    <clip id="clip-4"/>
                  </angle>
                  <angle>
                    <activevideoangle>false</activevideoangle>
                    <activeaudioangle>false</activeaudioangle>
                    <clip id="clip-5"/>
                  </angle>
                  <angle>
                    <activevideoangle>false</activevideoangle>
                    <activeaudioangle>false</activeaudioangle>
                    <clip id="clip-6"/>
                  </angle>
                  <angle>
                    <activevideoangle>false</activevideoangle>
                    <activeaudioangle>false</activeaudioangle>
                    <clip id="clip-7"/>
                  </angle>
                  <masterclipid>clip-master</masterclipid>
                </multiclip>
              </clipitem>
              <clipitem id="cs-863">
                <duration>170</duration>
                <rate>
                  <ntsc>false</ntsc>
                  <timebase>25</timebase>
                </rate>
                <in>27360</in>
                <out>27529</out>
                <start>27360</start>
                <end>27529</end>
                <file id="src-3"/>
                <sourcetrack>
                  <mediatype>video</mediatype>
                  <trackindex>1</trackindex>
                </sourcetrack>
                <multiclip id="mcs-863">
                  <name>MCS-863</name>
                  <masterclipid>clip-master</masterclipid>
                  <collapsed>false</collapsed>
                  <angle>
                    <activevideoangle>false</activevideoangle>
                    <activeaudioangle>false</activeaudioangle>
                    <clip id="clip-1"/>
                  </angle>
                  <angle>
                    <activevideoangle>false</activevideoangle>
                    <activeaudioangle>false</activeaudioangle>
                    <clip id="clip-2"/>
                  </angle>
                  <angle>
                    <activevideoangle>true</activevideoangle>
                    <activeaudioangle>true</activeaudioangle>
                    <clip id="clip-3"/>
                  </angle>
                  <angle>
                    <activevideoangle>false</activevideoangle>
                    <activeaudioangle>false</activeaudioangle>
                    <clip id="clip-4"/>
                  </angle>
                  <angle>
                    <activevideoangle>false</activevideoangle>
                    <activeaudioangle>false</activeaudioangle>
                    <clip id="clip-5"/>
                  </angle>
                  <angle>
                    <activevideoangle>false</activevideoangle>
                    <activeaudioangle>false</activeaudioangle>
                    <clip id="clip-6"/>
                  </angle>
                  <angle>
                    <activevideoangle>false</activevideoangle>
                    <activeaudioangle>false</activeaudioangle>
                    <clip id="clip-7"/>
                  </angle>
                  <masterclipid>clip-master</masterclipid>
                </multiclip>
              </clipitem>
              <clipitem id="cs-864">
                <duration>140</duration>
                <rate>
                  <ntsc>false</ntsc>
                  <timebase>25</timebase>
                </rate>
                <in>27529</in>
                <out>27668</out>
                <start>27529</start>
                <end>27668</end>
                <file id="src-5"/>
                <sourcetrack>
                  <mediatype>video</mediatype>
                  <trackindex>1</trackindex>
                </sourcetrack>
                <multiclip id="mcs-864">
                  <name>MCS-864</name>
                  <masterclipid>clip-master</masterclipid>
                  <collapsed>false</collapsed>
                  <angle>
                    <activevideoangle>false</activevideoangle>
                    <activeaudioangle>false</activeaudioangle>
                    <clip id="clip-1"/>
                  </angle>
                  <angle>
                    <activevideoangle>false</activevideoangle>
                    <activeaudioangle>false</activeaudioangle>
                    <clip id="clip-2"/>
                  </angle>
                  <angle>
                    <activevideoangle>false</activevideoangle>
                    <activeaudioangle>false</activeaudioangle>
                    <clip id="clip-3"/>
                  </angle>
                  <angle>
                    <activevideoangle>false</activevideoangle>
                    <activeaudioangle>false</activeaudioangle>
                    <clip id="clip-4"/>
                  </angle>
                  <angle>
                    <activevideoangle>true</activevideoangle>
                    <activeaudioangle>true</activeaudioangle>
                    <clip id="clip-5"/>
                  </angle>
                  <angle>
                    <activevideoangle>false</activevideoangle>
                    <activeaudioangle>false</activeaudioangle>
                    <clip id="clip-6"/>
                  </angle>
                  <angle>
                    <activevideoangle>false</activevideoangle>
                    <activeaudioangle>false</activeaudioangle>
                    <clip id="clip-7"/>
                  </angle>
                  <masterclipid>clip-master</masterclipid>
                </multiclip>
              </clipitem>
              <clipitem id="cs-865">
                <duration>470</duration>
                <rate>
                  <ntsc>false</ntsc>
                  <timebase>25</timebase>
                </rate>
                <in>27668</in>
                <out>28137</out>
                <start>27668</start>
                <end>28137</end>
                <file id="src-2"/>
                <sourcetrack>
                  <mediatype>video</mediatype>
                  <trackindex>1</trackindex>
                </sourcetrack>
                <multiclip id="mcs-865">
                  <name>MCS-865</name>
                  <masterclipid>clip-master</masterclipid>
                  <collapsed>false</collapsed>
                  <angle>
                    <activevideoangle>false</activevideoangle>
                    <activeaudioangle>false</activeaudioangle>
                    <clip id="clip-1"/>
                  </angle>
                  <angle>
                    <activevideoangle>true</activevideoangle>
                    <activeaudioangle>true</activeaudioangle>
                    <clip id="clip-2"/>
                  </angle>
                  <angle>
                    <activevideoangle>false</activevideoangle>
                    <activeaudioangle>false</activeaudioangle>
                    <clip id="clip-3"/>
                  </angle>
                  <angle>
                    <activevideoangle>false</activevideoangle>
                    <activeaudioangle>false</activeaudioangle>
                    <clip id="clip-4"/>
                  </angle>
                  <angle>
                    <activevideoangle>false</activevideoangle>
                    <activeaudioangle>false</activeaudioangle>
                    <clip id="clip-5"/>
                  </angle>
                  <angle>
                    <activevideoangle>false</activevideoangle>
                    <activeaudioangle>false</activeaudioangle>
                    <clip id="clip-6"/>
                  </angle>
                  <angle>
                    <activevideoangle>false</activevideoangle>
                    <activeaudioangle>false</activeaudioangle>
                    <clip id="clip-7"/>
                  </angle>
                  <masterclipid>clip-master</masterclipid>
                </multiclip>
              </clipitem>
              <clipitem id="cs-866">
                <duration>257</duration>
                <rate>
                  <ntsc>false</ntsc>
                  <timebase>25</timebase>
                </rate>
                <in>28137</in>
                <out>28393</out>
                <start>28137</start>
                <end>28393</end>
                <file id="src-3"/>
                <sourcetrack>
                  <mediatype>video</mediatype>
                  <trackindex>1</trackindex>
                </sourcetrack>
                <multiclip id="mcs-866">
                  <name>MCS-866</name>
                  <masterclipid>clip-master</masterclipid>
                  <collapsed>false</collapsed>
                  <angle>
                    <activevideoangle>false</activevideoangle>
                    <activeaudioangle>false</activeaudioangle>
                    <clip id="clip-1"/>
                  </angle>
                  <angle>
                    <activevideoangle>false</activevideoangle>
                    <activeaudioangle>false</activeaudioangle>
                    <clip id="clip-2"/>
                  </angle>
                  <angle>
                    <activevideoangle>true</activevideoangle>
                    <activeaudioangle>true</activeaudioangle>
                    <clip id="clip-3"/>
                  </angle>
                  <angle>
                    <activevideoangle>false</activevideoangle>
                    <activeaudioangle>false</activeaudioangle>
                    <clip id="clip-4"/>
                  </angle>
                  <angle>
                    <activevideoangle>false</activevideoangle>
                    <activeaudioangle>false</activeaudioangle>
                    <clip id="clip-5"/>
                  </angle>
                  <angle>
                    <activevideoangle>false</activevideoangle>
                    <activeaudioangle>false</activeaudioangle>
                    <clip id="clip-6"/>
                  </angle>
                  <angle>
                    <activevideoangle>false</activevideoangle>
                    <activeaudioangle>false</activeaudioangle>
                    <clip id="clip-7"/>
                  </angle>
                  <masterclipid>clip-master</masterclipid>
                </multiclip>
              </clipitem>
              <clipitem id="cs-867">
                <duration>206</duration>
                <rate>
                  <ntsc>false</ntsc>
                  <timebase>25</timebase>
                </rate>
                <in>28393</in>
                <out>28598</out>
                <start>28393</start>
                <end>28598</end>
                <file id="src-4"/>
                <sourcetrack>
                  <mediatype>video</mediatype>
                  <trackindex>1</trackindex>
                </sourcetrack>
                <multiclip id="mcs-867">
                  <name>MCS-867</name>
                  <masterclipid>clip-master</masterclipid>
                  <collapsed>false</collapsed>
                  <angle>
                    <activevideoangle>false</activevideoangle>
                    <activeaudioangle>false</activeaudioangle>
                    <clip id="clip-1"/>
                  </angle>
                  <angle>
                    <activevideoangle>false</activevideoangle>
                    <activeaudioangle>false</activeaudioangle>
                    <clip id="clip-2"/>
                  </angle>
                  <angle>
                    <activevideoangle>false</activevideoangle>
                    <activeaudioangle>false</activeaudioangle>
                    <clip id="clip-3"/>
                  </angle>
                  <angle>
                    <activevideoangle>true</activevideoangle>
                    <activeaudioangle>true</activeaudioangle>
                    <clip id="clip-4"/>
                  </angle>
                  <angle>
                    <activevideoangle>false</activevideoangle>
                    <activeaudioangle>false</activeaudioangle>
                    <clip id="clip-5"/>
                  </angle>
                  <angle>
                    <activevideoangle>false</activevideoangle>
                    <activeaudioangle>false</activeaudioangle>
                    <clip id="clip-6"/>
                  </angle>
                  <angle>
                    <activevideoangle>false</activevideoangle>
                    <activeaudioangle>false</activeaudioangle>
                    <clip id="clip-7"/>
                  </angle>
                  <masterclipid>clip-master</masterclipid>
                </multiclip>
              </clipitem>
              <clipitem id="cs-868">
                <duration>152</duration>
                <rate>
                  <ntsc>false</ntsc>
                  <timebase>25</timebase>
                </rate>
                <in>28598</in>
                <out>28749</out>
                <start>28598</start>
                <end>28749</end>
                <file id="src-1"/>
                <sourcetrack>
                  <mediatype>video</mediatype>
                  <trackindex>1</trackindex>
                </sourcetrack>
                <multiclip id="mcs-868">
                  <name>MCS-868</name>
                  <masterclipid>clip-master</masterclipid>
                  <collapsed>false</collapsed>
                  <angle>
                    <activevideoangle>true</activevideoangle>
                    <activeaudioangle>true</activeaudioangle>
                    <clip id="clip-1"/>
                  </angle>
                  <angle>
                    <activevideoangle>false</activevideoangle>
                    <activeaudioangle>false</activeaudioangle>
                    <clip id="clip-2"/>
                  </angle>
                  <angle>
                    <activevideoangle>false</activevideoangle>
                    <activeaudioangle>false</activeaudioangle>
                    <clip id="clip-3"/>
                  </angle>
                  <angle>
                    <activevideoangle>false</activevideoangle>
                    <activeaudioangle>false</activeaudioangle>
                    <clip id="clip-4"/>
                  </angle>
                  <angle>
                    <activevideoangle>false</activevideoangle>
                    <activeaudioangle>false</activeaudioangle>
                    <clip id="clip-5"/>
                  </angle>
                  <angle>
                    <activevideoangle>false</activevideoangle>
                    <activeaudioangle>false</activeaudioangle>
                    <clip id="clip-6"/>
                  </angle>
                  <angle>
                    <activevideoangle>false</activevideoangle>
                    <activeaudioangle>false</activeaudioangle>
                    <clip id="clip-7"/>
                  </angle>
                  <masterclipid>clip-master</masterclipid>
                </multiclip>
              </clipitem>
              <clipitem id="cs-869">
                <duration>242</duration>
                <rate>
                  <ntsc>false</ntsc>
                  <timebase>25</timebase>
                </rate>
                <in>28749</in>
                <out>28990</out>
                <start>28749</start>
                <end>28990</end>
                <file id="src-5"/>
                <sourcetrack>
                  <mediatype>video</mediatype>
                  <trackindex>1</trackindex>
                </sourcetrack>
                <multiclip id="mcs-869">
                  <name>MCS-869</name>
                  <masterclipid>clip-master</masterclipid>
                  <collapsed>false</collapsed>
                  <angle>
                    <activevideoangle>false</activevideoangle>
                    <activeaudioangle>false</activeaudioangle>
                    <clip id="clip-1"/>
                  </angle>
                  <angle>
                    <activevideoangle>false</activevideoangle>
                    <activeaudioangle>false</activeaudioangle>
                    <clip id="clip-2"/>
                  </angle>
                  <angle>
                    <activevideoangle>false</activevideoangle>
                    <activeaudioangle>false</activeaudioangle>
                    <clip id="clip-3"/>
                  </angle>
                  <angle>
                    <activevideoangle>false</activevideoangle>
                    <activeaudioangle>false</activeaudioangle>
                    <clip id="clip-4"/>
                  </angle>
                  <angle>
                    <activevideoangle>true</activevideoangle>
                    <activeaudioangle>true</activeaudioangle>
                    <clip id="clip-5"/>
                  </angle>
                  <angle>
                    <activevideoangle>false</activevideoangle>
                    <activeaudioangle>false</activeaudioangle>
                    <clip id="clip-6"/>
                  </angle>
                  <angle>
                    <activevideoangle>false</activevideoangle>
                    <activeaudioangle>false</activeaudioangle>
                    <clip id="clip-7"/>
                  </angle>
                  <masterclipid>clip-master</masterclipid>
                </multiclip>
              </clipitem>
              <clipitem id="cs-870">
                <duration>332</duration>
                <rate>
                  <ntsc>false</ntsc>
                  <timebase>25</timebase>
                </rate>
                <in>28990</in>
                <out>29321</out>
                <start>28990</start>
                <end>29321</end>
                <file id="src-2"/>
                <sourcetrack>
                  <mediatype>video</mediatype>
                  <trackindex>1</trackindex>
                </sourcetrack>
                <multiclip id="mcs-870">
                  <name>MCS-870</name>
                  <masterclipid>clip-master</masterclipid>
                  <collapsed>false</collapsed>
                  <angle>
                    <activevideoangle>false</activevideoangle>
                    <activeaudioangle>false</activeaudioangle>
                    <clip id="clip-1"/>
                  </angle>
                  <angle>
                    <activevideoangle>true</activevideoangle>
                    <activeaudioangle>true</activeaudioangle>
                    <clip id="clip-2"/>
                  </angle>
                  <angle>
                    <activevideoangle>false</activevideoangle>
                    <activeaudioangle>false</activeaudioangle>
                    <clip id="clip-3"/>
                  </angle>
                  <angle>
                    <activevideoangle>false</activevideoangle>
                    <activeaudioangle>false</activeaudioangle>
                    <clip id="clip-4"/>
                  </angle>
                  <angle>
                    <activevideoangle>false</activevideoangle>
                    <activeaudioangle>false</activeaudioangle>
                    <clip id="clip-5"/>
                  </angle>
                  <angle>
                    <activevideoangle>false</activevideoangle>
                    <activeaudioangle>false</activeaudioangle>
                    <clip id="clip-6"/>
                  </angle>
                  <angle>
                    <activevideoangle>false</activevideoangle>
                    <activeaudioangle>false</activeaudioangle>
                    <clip id="clip-7"/>
                  </angle>
                  <masterclipid>clip-master</masterclipid>
                </multiclip>
              </clipitem>
              <clipitem id="cs-871">
                <duration>154</duration>
                <rate>
                  <ntsc>false</ntsc>
                  <timebase>25</timebase>
                </rate>
                <in>29321</in>
                <out>29474</out>
                <start>29321</start>
                <end>29474</end>
                <file id="src-5"/>
                <sourcetrack>
                  <mediatype>video</mediatype>
                  <trackindex>1</trackindex>
                </sourcetrack>
                <multiclip id="mcs-871">
                  <name>MCS-871</name>
                  <masterclipid>clip-master</masterclipid>
                  <collapsed>false</collapsed>
                  <angle>
                    <activevideoangle>false</activevideoangle>
                    <activeaudioangle>false</activeaudioangle>
                    <clip id="clip-1"/>
                  </angle>
                  <angle>
                    <activevideoangle>false</activevideoangle>
                    <activeaudioangle>false</activeaudioangle>
                    <clip id="clip-2"/>
                  </angle>
                  <angle>
                    <activevideoangle>false</activevideoangle>
                    <activeaudioangle>false</activeaudioangle>
                    <clip id="clip-3"/>
                  </angle>
                  <angle>
                    <activevideoangle>false</activevideoangle>
                    <activeaudioangle>false</activeaudioangle>
                    <clip id="clip-4"/>
                  </angle>
                  <angle>
                    <activevideoangle>true</activevideoangle>
                    <activeaudioangle>true</activeaudioangle>
                    <clip id="clip-5"/>
                  </angle>
                  <angle>
                    <activevideoangle>false</activevideoangle>
                    <activeaudioangle>false</activeaudioangle>
                    <clip id="clip-6"/>
                  </angle>
                  <angle>
                    <activevideoangle>false</activevideoangle>
                    <activeaudioangle>false</activeaudioangle>
                    <clip id="clip-7"/>
                  </angle>
                  <masterclipid>clip-master</masterclipid>
                </multiclip>
              </clipitem>
              <clipitem id="cs-872">
                <duration>90</duration>
                <rate>
                  <ntsc>false</ntsc>
                  <timebase>25</timebase>
                </rate>
                <in>29474</in>
                <out>29563</out>
                <start>29474</start>
                <end>29563</end>
                <file id="src-1"/>
                <sourcetrack>
                  <mediatype>video</mediatype>
                  <trackindex>1</trackindex>
                </sourcetrack>
                <multiclip id="mcs-872">
                  <name>MCS-872</name>
                  <masterclipid>clip-master</masterclipid>
                  <collapsed>false</collapsed>
                  <angle>
                    <activevideoangle>true</activevideoangle>
                    <activeaudioangle>true</activeaudioangle>
                    <clip id="clip-1"/>
                  </angle>
                  <angle>
                    <activevideoangle>false</activevideoangle>
                    <activeaudioangle>false</activeaudioangle>
                    <clip id="clip-2"/>
                  </angle>
                  <angle>
                    <activevideoangle>false</activevideoangle>
                    <activeaudioangle>false</activeaudioangle>
                    <clip id="clip-3"/>
                  </angle>
                  <angle>
                    <activevideoangle>false</activevideoangle>
                    <activeaudioangle>false</activeaudioangle>
                    <clip id="clip-4"/>
                  </angle>
                  <angle>
                    <activevideoangle>false</activevideoangle>
                    <activeaudioangle>false</activeaudioangle>
                    <clip id="clip-5"/>
                  </angle>
                  <angle>
                    <activevideoangle>false</activevideoangle>
                    <activeaudioangle>false</activeaudioangle>
                    <clip id="clip-6"/>
                  </angle>
                  <angle>
                    <activevideoangle>false</activevideoangle>
                    <activeaudioangle>false</activeaudioangle>
                    <clip id="clip-7"/>
                  </angle>
                  <masterclipid>clip-master</masterclipid>
                </multiclip>
              </clipitem>
              <clipitem id="cs-873">
                <duration>206</duration>
                <rate>
                  <ntsc>false</ntsc>
                  <timebase>25</timebase>
                </rate>
                <in>29563</in>
                <out>29768</out>
                <start>29563</start>
                <end>29768</end>
                <file id="src-6"/>
                <sourcetrack>
                  <mediatype>video</mediatype>
                  <trackindex>1</trackindex>
                </sourcetrack>
                <multiclip id="mcs-873">
                  <name>MCS-873</name>
                  <masterclipid>clip-master</masterclipid>
                  <collapsed>false</collapsed>
                  <angle>
                    <activevideoangle>false</activevideoangle>
                    <activeaudioangle>false</activeaudioangle>
                    <clip id="clip-1"/>
                  </angle>
                  <angle>
                    <activevideoangle>false</activevideoangle>
                    <activeaudioangle>false</activeaudioangle>
                    <clip id="clip-2"/>
                  </angle>
                  <angle>
                    <activevideoangle>false</activevideoangle>
                    <activeaudioangle>false</activeaudioangle>
                    <clip id="clip-3"/>
                  </angle>
                  <angle>
                    <activevideoangle>false</activevideoangle>
                    <activeaudioangle>false</activeaudioangle>
                    <clip id="clip-4"/>
                  </angle>
                  <angle>
                    <activevideoangle>false</activevideoangle>
                    <activeaudioangle>false</activeaudioangle>
                    <clip id="clip-5"/>
                  </angle>
                  <angle>
                    <activevideoangle>true</activevideoangle>
                    <activeaudioangle>true</activeaudioangle>
                    <clip id="clip-6"/>
                  </angle>
                  <angle>
                    <activevideoangle>false</activevideoangle>
                    <activeaudioangle>false</activeaudioangle>
                    <clip id="clip-7"/>
                  </angle>
                  <masterclipid>clip-master</masterclipid>
                </multiclip>
              </clipitem>
              <clipitem id="cs-874">
                <duration>211</duration>
                <rate>
                  <ntsc>false</ntsc>
                  <timebase>25</timebase>
                </rate>
                <in>29768</in>
                <out>29978</out>
                <start>29768</start>
                <end>29978</end>
                <file id="src-3"/>
                <sourcetrack>
                  <mediatype>video</mediatype>
                  <trackindex>1</trackindex>
                </sourcetrack>
                <multiclip id="mcs-874">
                  <name>MCS-874</name>
                  <masterclipid>clip-master</masterclipid>
                  <collapsed>false</collapsed>
                  <angle>
                    <activevideoangle>false</activevideoangle>
                    <activeaudioangle>false</activeaudioangle>
                    <clip id="clip-1"/>
                  </angle>
                  <angle>
                    <activevideoangle>false</activevideoangle>
                    <activeaudioangle>false</activeaudioangle>
                    <clip id="clip-2"/>
                  </angle>
                  <angle>
                    <activevideoangle>true</activevideoangle>
                    <activeaudioangle>true</activeaudioangle>
                    <clip id="clip-3"/>
                  </angle>
                  <angle>
                    <activevideoangle>false</activevideoangle>
                    <activeaudioangle>false</activeaudioangle>
                    <clip id="clip-4"/>
                  </angle>
                  <angle>
                    <activevideoangle>false</activevideoangle>
                    <activeaudioangle>false</activeaudioangle>
                    <clip id="clip-5"/>
                  </angle>
                  <angle>
                    <activevideoangle>false</activevideoangle>
                    <activeaudioangle>false</activeaudioangle>
                    <clip id="clip-6"/>
                  </angle>
                  <angle>
                    <activevideoangle>false</activevideoangle>
                    <activeaudioangle>false</activeaudioangle>
                    <clip id="clip-7"/>
                  </angle>
                  <masterclipid>clip-master</masterclipid>
                </multiclip>
              </clipitem>
              <clipitem id="cs-875">
                <duration>155</duration>
                <rate>
                  <ntsc>false</ntsc>
                  <timebase>25</timebase>
                </rate>
                <in>29978</in>
                <out>30132</out>
                <start>29978</start>
                <end>30132</end>
                <file id="src-4"/>
                <sourcetrack>
                  <mediatype>video</mediatype>
                  <trackindex>1</trackindex>
                </sourcetrack>
                <multiclip id="mcs-875">
                  <name>MCS-875</name>
                  <masterclipid>clip-master</masterclipid>
                  <collapsed>false</collapsed>
                  <angle>
                    <activevideoangle>false</activevideoangle>
                    <activeaudioangle>false</activeaudioangle>
                    <clip id="clip-1"/>
                  </angle>
                  <angle>
                    <activevideoangle>false</activevideoangle>
                    <activeaudioangle>false</activeaudioangle>
                    <clip id="clip-2"/>
                  </angle>
                  <angle>
                    <activevideoangle>false</activevideoangle>
                    <activeaudioangle>false</activeaudioangle>
                    <clip id="clip-3"/>
                  </angle>
                  <angle>
                    <activevideoangle>true</activevideoangle>
                    <activeaudioangle>true</activeaudioangle>
                    <clip id="clip-4"/>
                  </angle>
                  <angle>
                    <activevideoangle>false</activevideoangle>
                    <activeaudioangle>false</activeaudioangle>
                    <clip id="clip-5"/>
                  </angle>
                  <angle>
                    <activevideoangle>false</activevideoangle>
                    <activeaudioangle>false</activeaudioangle>
                    <clip id="clip-6"/>
                  </angle>
                  <angle>
                    <activevideoangle>false</activevideoangle>
                    <activeaudioangle>false</activeaudioangle>
                    <clip id="clip-7"/>
                  </angle>
                  <masterclipid>clip-master</masterclipid>
                </multiclip>
              </clipitem>
              <clipitem id="cs-876">
                <duration>239</duration>
                <rate>
                  <ntsc>false</ntsc>
                  <timebase>25</timebase>
                </rate>
                <in>30132</in>
                <out>30370</out>
                <start>30132</start>
                <end>30370</end>
                <file id="src-2"/>
                <sourcetrack>
                  <mediatype>video</mediatype>
                  <trackindex>1</trackindex>
                </sourcetrack>
                <multiclip id="mcs-876">
                  <name>MCS-876</name>
                  <masterclipid>clip-master</masterclipid>
                  <collapsed>false</collapsed>
                  <angle>
                    <activevideoangle>false</activevideoangle>
                    <activeaudioangle>false</activeaudioangle>
                    <clip id="clip-1"/>
                  </angle>
                  <angle>
                    <activevideoangle>true</activevideoangle>
                    <activeaudioangle>true</activeaudioangle>
                    <clip id="clip-2"/>
                  </angle>
                  <angle>
                    <activevideoangle>false</activevideoangle>
                    <activeaudioangle>false</activeaudioangle>
                    <clip id="clip-3"/>
                  </angle>
                  <angle>
                    <activevideoangle>false</activevideoangle>
                    <activeaudioangle>false</activeaudioangle>
                    <clip id="clip-4"/>
                  </angle>
                  <angle>
                    <activevideoangle>false</activevideoangle>
                    <activeaudioangle>false</activeaudioangle>
                    <clip id="clip-5"/>
                  </angle>
                  <angle>
                    <activevideoangle>false</activevideoangle>
                    <activeaudioangle>false</activeaudioangle>
                    <clip id="clip-6"/>
                  </angle>
                  <angle>
                    <activevideoangle>false</activevideoangle>
                    <activeaudioangle>false</activeaudioangle>
                    <clip id="clip-7"/>
                  </angle>
                  <masterclipid>clip-master</masterclipid>
                </multiclip>
              </clipitem>
              <clipitem id="cs-877">
                <duration>365</duration>
                <rate>
                  <ntsc>false</ntsc>
                  <timebase>25</timebase>
                </rate>
                <in>30370</in>
                <out>30734</out>
                <start>30370</start>
                <end>30734</end>
                <file id="src-3"/>
                <sourcetrack>
                  <mediatype>video</mediatype>
                  <trackindex>1</trackindex>
                </sourcetrack>
                <multiclip id="mcs-877">
                  <name>MCS-877</name>
                  <masterclipid>clip-master</masterclipid>
                  <collapsed>false</collapsed>
                  <angle>
                    <activevideoangle>false</activevideoangle>
                    <activeaudioangle>false</activeaudioangle>
                    <clip id="clip-1"/>
                  </angle>
                  <angle>
                    <activevideoangle>false</activevideoangle>
                    <activeaudioangle>false</activeaudioangle>
                    <clip id="clip-2"/>
                  </angle>
                  <angle>
                    <activevideoangle>true</activevideoangle>
                    <activeaudioangle>true</activeaudioangle>
                    <clip id="clip-3"/>
                  </angle>
                  <angle>
                    <activevideoangle>false</activevideoangle>
                    <activeaudioangle>false</activeaudioangle>
                    <clip id="clip-4"/>
                  </angle>
                  <angle>
                    <activevideoangle>false</activevideoangle>
                    <activeaudioangle>false</activeaudioangle>
                    <clip id="clip-5"/>
                  </angle>
                  <angle>
                    <activevideoangle>false</activevideoangle>
                    <activeaudioangle>false</activeaudioangle>
                    <clip id="clip-6"/>
                  </angle>
                  <angle>
                    <activevideoangle>false</activevideoangle>
                    <activeaudioangle>false</activeaudioangle>
                    <clip id="clip-7"/>
                  </angle>
                  <masterclipid>clip-master</masterclipid>
                </multiclip>
              </clipitem>
              <clipitem id="cs-878">
                <duration>400</duration>
                <rate>
                  <ntsc>false</ntsc>
                  <timebase>25</timebase>
                </rate>
                <in>30734</in>
                <out>31133</out>
                <start>30734</start>
                <end>31133</end>
                <file id="src-2"/>
                <sourcetrack>
                  <mediatype>video</mediatype>
                  <trackindex>1</trackindex>
                </sourcetrack>
                <multiclip id="mcs-878">
                  <name>MCS-878</name>
                  <masterclipid>clip-master</masterclipid>
                  <collapsed>false</collapsed>
                  <angle>
                    <activevideoangle>false</activevideoangle>
                    <activeaudioangle>false</activeaudioangle>
                    <clip id="clip-1"/>
                  </angle>
                  <angle>
                    <activevideoangle>true</activevideoangle>
                    <activeaudioangle>true</activeaudioangle>
                    <clip id="clip-2"/>
                  </angle>
                  <angle>
                    <activevideoangle>false</activevideoangle>
                    <activeaudioangle>false</activeaudioangle>
                    <clip id="clip-3"/>
                  </angle>
                  <angle>
                    <activevideoangle>false</activevideoangle>
                    <activeaudioangle>false</activeaudioangle>
                    <clip id="clip-4"/>
                  </angle>
                  <angle>
                    <activevideoangle>false</activevideoangle>
                    <activeaudioangle>false</activeaudioangle>
                    <clip id="clip-5"/>
                  </angle>
                  <angle>
                    <activevideoangle>false</activevideoangle>
                    <activeaudioangle>false</activeaudioangle>
                    <clip id="clip-6"/>
                  </angle>
                  <angle>
                    <activevideoangle>false</activevideoangle>
                    <activeaudioangle>false</activeaudioangle>
                    <clip id="clip-7"/>
                  </angle>
                  <masterclipid>clip-master</masterclipid>
                </multiclip>
              </clipitem>
              <clipitem id="cs-879">
                <duration>262</duration>
                <rate>
                  <ntsc>false</ntsc>
                  <timebase>25</timebase>
                </rate>
                <in>31133</in>
                <out>31394</out>
                <start>31133</start>
                <end>31394</end>
                <file id="src-3"/>
                <sourcetrack>
                  <mediatype>video</mediatype>
                  <trackindex>1</trackindex>
                </sourcetrack>
                <multiclip id="mcs-879">
                  <name>MCS-879</name>
                  <masterclipid>clip-master</masterclipid>
                  <collapsed>false</collapsed>
                  <angle>
                    <activevideoangle>false</activevideoangle>
                    <activeaudioangle>false</activeaudioangle>
                    <clip id="clip-1"/>
                  </angle>
                  <angle>
                    <activevideoangle>false</activevideoangle>
                    <activeaudioangle>false</activeaudioangle>
                    <clip id="clip-2"/>
                  </angle>
                  <angle>
                    <activevideoangle>true</activevideoangle>
                    <activeaudioangle>true</activeaudioangle>
                    <clip id="clip-3"/>
                  </angle>
                  <angle>
                    <activevideoangle>false</activevideoangle>
                    <activeaudioangle>false</activeaudioangle>
                    <clip id="clip-4"/>
                  </angle>
                  <angle>
                    <activevideoangle>false</activevideoangle>
                    <activeaudioangle>false</activeaudioangle>
                    <clip id="clip-5"/>
                  </angle>
                  <angle>
                    <activevideoangle>false</activevideoangle>
                    <activeaudioangle>false</activeaudioangle>
                    <clip id="clip-6"/>
                  </angle>
                  <angle>
                    <activevideoangle>false</activevideoangle>
                    <activeaudioangle>false</activeaudioangle>
                    <clip id="clip-7"/>
                  </angle>
                  <masterclipid>clip-master</masterclipid>
                </multiclip>
              </clipitem>
              <clipitem id="cs-880">
                <duration>140</duration>
                <rate>
                  <ntsc>false</ntsc>
                  <timebase>25</timebase>
                </rate>
                <in>31394</in>
                <out>31533</out>
                <start>31394</start>
                <end>31533</end>
                <file id="src-4"/>
                <sourcetrack>
                  <mediatype>video</mediatype>
                  <trackindex>1</trackindex>
                </sourcetrack>
                <multiclip id="mcs-880">
                  <name>MCS-880</name>
                  <masterclipid>clip-master</masterclipid>
                  <collapsed>false</collapsed>
                  <angle>
                    <activevideoangle>false</activevideoangle>
                    <activeaudioangle>false</activeaudioangle>
                    <clip id="clip-1"/>
                  </angle>
                  <angle>
                    <activevideoangle>false</activevideoangle>
                    <activeaudioangle>false</activeaudioangle>
                    <clip id="clip-2"/>
                  </angle>
                  <angle>
                    <activevideoangle>false</activevideoangle>
                    <activeaudioangle>false</activeaudioangle>
                    <clip id="clip-3"/>
                  </angle>
                  <angle>
                    <activevideoangle>true</activevideoangle>
                    <activeaudioangle>true</activeaudioangle>
                    <clip id="clip-4"/>
                  </angle>
                  <angle>
                    <activevideoangle>false</activevideoangle>
                    <activeaudioangle>false</activeaudioangle>
                    <clip id="clip-5"/>
                  </angle>
                  <angle>
                    <activevideoangle>false</activevideoangle>
                    <activeaudioangle>false</activeaudioangle>
                    <clip id="clip-6"/>
                  </angle>
                  <angle>
                    <activevideoangle>false</activevideoangle>
                    <activeaudioangle>false</activeaudioangle>
                    <clip id="clip-7"/>
                  </angle>
                  <masterclipid>clip-master</masterclipid>
                </multiclip>
              </clipitem>
              <clipitem id="cs-881">
                <duration>299</duration>
                <rate>
                  <ntsc>false</ntsc>
                  <timebase>25</timebase>
                </rate>
                <in>31533</in>
                <out>31831</out>
                <start>31533</start>
                <end>31831</end>
                <file id="src-2"/>
                <sourcetrack>
                  <mediatype>video</mediatype>
                  <trackindex>1</trackindex>
                </sourcetrack>
                <multiclip id="mcs-881">
                  <name>MCS-881</name>
                  <masterclipid>clip-master</masterclipid>
                  <collapsed>false</collapsed>
                  <angle>
                    <activevideoangle>false</activevideoangle>
                    <activeaudioangle>false</activeaudioangle>
                    <clip id="clip-1"/>
                  </angle>
                  <angle>
                    <activevideoangle>true</activevideoangle>
                    <activeaudioangle>true</activeaudioangle>
                    <clip id="clip-2"/>
                  </angle>
                  <angle>
                    <activevideoangle>false</activevideoangle>
                    <activeaudioangle>false</activeaudioangle>
                    <clip id="clip-3"/>
                  </angle>
                  <angle>
                    <activevideoangle>false</activevideoangle>
                    <activeaudioangle>false</activeaudioangle>
                    <clip id="clip-4"/>
                  </angle>
                  <angle>
                    <activevideoangle>false</activevideoangle>
                    <activeaudioangle>false</activeaudioangle>
                    <clip id="clip-5"/>
                  </angle>
                  <angle>
                    <activevideoangle>false</activevideoangle>
                    <activeaudioangle>false</activeaudioangle>
                    <clip id="clip-6"/>
                  </angle>
                  <angle>
                    <activevideoangle>false</activevideoangle>
                    <activeaudioangle>false</activeaudioangle>
                    <clip id="clip-7"/>
                  </angle>
                  <masterclipid>clip-master</masterclipid>
                </multiclip>
              </clipitem>
              <clipitem id="cs-882">
                <duration>222</duration>
                <rate>
                  <ntsc>false</ntsc>
                  <timebase>25</timebase>
                </rate>
                <in>31831</in>
                <out>32052</out>
                <start>31831</start>
                <end>32052</end>
                <file id="src-3"/>
                <sourcetrack>
                  <mediatype>video</mediatype>
                  <trackindex>1</trackindex>
                </sourcetrack>
                <multiclip id="mcs-882">
                  <name>MCS-882</name>
                  <masterclipid>clip-master</masterclipid>
                  <collapsed>false</collapsed>
                  <angle>
                    <activevideoangle>false</activevideoangle>
                    <activeaudioangle>false</activeaudioangle>
                    <clip id="clip-1"/>
                  </angle>
                  <angle>
                    <activevideoangle>false</activevideoangle>
                    <activeaudioangle>false</activeaudioangle>
                    <clip id="clip-2"/>
                  </angle>
                  <angle>
                    <activevideoangle>true</activevideoangle>
                    <activeaudioangle>true</activeaudioangle>
                    <clip id="clip-3"/>
                  </angle>
                  <angle>
                    <activevideoangle>false</activevideoangle>
                    <activeaudioangle>false</activeaudioangle>
                    <clip id="clip-4"/>
                  </angle>
                  <angle>
                    <activevideoangle>false</activevideoangle>
                    <activeaudioangle>false</activeaudioangle>
                    <clip id="clip-5"/>
                  </angle>
                  <angle>
                    <activevideoangle>false</activevideoangle>
                    <activeaudioangle>false</activeaudioangle>
                    <clip id="clip-6"/>
                  </angle>
                  <angle>
                    <activevideoangle>false</activevideoangle>
                    <activeaudioangle>false</activeaudioangle>
                    <clip id="clip-7"/>
                  </angle>
                  <masterclipid>clip-master</masterclipid>
                </multiclip>
              </clipitem>
              <clipitem id="cs-883">
                <duration>246</duration>
                <rate>
                  <ntsc>false</ntsc>
                  <timebase>25</timebase>
                </rate>
                <in>32052</in>
                <out>32297</out>
                <start>32052</start>
                <end>32297</end>
                <file id="src-5"/>
                <sourcetrack>
                  <mediatype>video</mediatype>
                  <trackindex>1</trackindex>
                </sourcetrack>
                <multiclip id="mcs-883">
                  <name>MCS-883</name>
                  <masterclipid>clip-master</masterclipid>
                  <collapsed>false</collapsed>
                  <angle>
                    <activevideoangle>false</activevideoangle>
                    <activeaudioangle>false</activeaudioangle>
                    <clip id="clip-1"/>
                  </angle>
                  <angle>
                    <activevideoangle>false</activevideoangle>
                    <activeaudioangle>false</activeaudioangle>
                    <clip id="clip-2"/>
                  </angle>
                  <angle>
                    <activevideoangle>false</activevideoangle>
                    <activeaudioangle>false</activeaudioangle>
                    <clip id="clip-3"/>
                  </angle>
                  <angle>
                    <activevideoangle>false</activevideoangle>
                    <activeaudioangle>false</activeaudioangle>
                    <clip id="clip-4"/>
                  </angle>
                  <angle>
                    <activevideoangle>true</activevideoangle>
                    <activeaudioangle>true</activeaudioangle>
                    <clip id="clip-5"/>
                  </angle>
                  <angle>
                    <activevideoangle>false</activevideoangle>
                    <activeaudioangle>false</activeaudioangle>
                    <clip id="clip-6"/>
                  </angle>
                  <angle>
                    <activevideoangle>false</activevideoangle>
                    <activeaudioangle>false</activeaudioangle>
                    <clip id="clip-7"/>
                  </angle>
                  <masterclipid>clip-master</masterclipid>
                </multiclip>
              </clipitem>
              <clipitem id="cs-884">
                <duration>258</duration>
                <rate>
                  <ntsc>false</ntsc>
                  <timebase>25</timebase>
                </rate>
                <in>32297</in>
                <out>32554</out>
                <start>32297</start>
                <end>32554</end>
                <file id="src-3"/>
                <sourcetrack>
                  <mediatype>video</mediatype>
                  <trackindex>1</trackindex>
                </sourcetrack>
                <multiclip id="mcs-884">
                  <name>MCS-884</name>
                  <masterclipid>clip-master</masterclipid>
                  <collapsed>false</collapsed>
                  <angle>
                    <activevideoangle>false</activevideoangle>
                    <activeaudioangle>false</activeaudioangle>
                    <clip id="clip-1"/>
                  </angle>
                  <angle>
                    <activevideoangle>false</activevideoangle>
                    <activeaudioangle>false</activeaudioangle>
                    <clip id="clip-2"/>
                  </angle>
                  <angle>
                    <activevideoangle>true</activevideoangle>
                    <activeaudioangle>true</activeaudioangle>
                    <clip id="clip-3"/>
                  </angle>
                  <angle>
                    <activevideoangle>false</activevideoangle>
                    <activeaudioangle>false</activeaudioangle>
                    <clip id="clip-4"/>
                  </angle>
                  <angle>
                    <activevideoangle>false</activevideoangle>
                    <activeaudioangle>false</activeaudioangle>
                    <clip id="clip-5"/>
                  </angle>
                  <angle>
                    <activevideoangle>false</activevideoangle>
                    <activeaudioangle>false</activeaudioangle>
                    <clip id="clip-6"/>
                  </angle>
                  <angle>
                    <activevideoangle>false</activevideoangle>
                    <activeaudioangle>false</activeaudioangle>
                    <clip id="clip-7"/>
                  </angle>
                  <masterclipid>clip-master</masterclipid>
                </multiclip>
              </clipitem>
              <clipitem id="cs-885">
                <duration>124</duration>
                <rate>
                  <ntsc>false</ntsc>
                  <timebase>25</timebase>
                </rate>
                <in>32554</in>
                <out>32677</out>
                <start>32554</start>
                <end>32677</end>
                <file id="src-2"/>
                <sourcetrack>
                  <mediatype>video</mediatype>
                  <trackindex>1</trackindex>
                </sourcetrack>
                <multiclip id="mcs-885">
                  <name>MCS-885</name>
                  <masterclipid>clip-master</masterclipid>
                  <collapsed>false</collapsed>
                  <angle>
                    <activevideoangle>false</activevideoangle>
                    <activeaudioangle>false</activeaudioangle>
                    <clip id="clip-1"/>
                  </angle>
                  <angle>
                    <activevideoangle>true</activevideoangle>
                    <activeaudioangle>true</activeaudioangle>
                    <clip id="clip-2"/>
                  </angle>
                  <angle>
                    <activevideoangle>false</activevideoangle>
                    <activeaudioangle>false</activeaudioangle>
                    <clip id="clip-3"/>
                  </angle>
                  <angle>
                    <activevideoangle>false</activevideoangle>
                    <activeaudioangle>false</activeaudioangle>
                    <clip id="clip-4"/>
                  </angle>
                  <angle>
                    <activevideoangle>false</activevideoangle>
                    <activeaudioangle>false</activeaudioangle>
                    <clip id="clip-5"/>
                  </angle>
                  <angle>
                    <activevideoangle>false</activevideoangle>
                    <activeaudioangle>false</activeaudioangle>
                    <clip id="clip-6"/>
                  </angle>
                  <angle>
                    <activevideoangle>false</activevideoangle>
                    <activeaudioangle>false</activeaudioangle>
                    <clip id="clip-7"/>
                  </angle>
                  <masterclipid>clip-master</masterclipid>
                </multiclip>
              </clipitem>
              <clipitem id="cs-886">
                <duration>293</duration>
                <rate>
                  <ntsc>false</ntsc>
                  <timebase>25</timebase>
                </rate>
                <in>32677</in>
                <out>32969</out>
                <start>32677</start>
                <end>32969</end>
                <file id="src-6"/>
                <sourcetrack>
                  <mediatype>video</mediatype>
                  <trackindex>1</trackindex>
                </sourcetrack>
                <multiclip id="mcs-886">
                  <name>MCS-886</name>
                  <masterclipid>clip-master</masterclipid>
                  <collapsed>false</collapsed>
                  <angle>
                    <activevideoangle>false</activevideoangle>
                    <activeaudioangle>false</activeaudioangle>
                    <clip id="clip-1"/>
                  </angle>
                  <angle>
                    <activevideoangle>false</activevideoangle>
                    <activeaudioangle>false</activeaudioangle>
                    <clip id="clip-2"/>
                  </angle>
                  <angle>
                    <activevideoangle>false</activevideoangle>
                    <activeaudioangle>false</activeaudioangle>
                    <clip id="clip-3"/>
                  </angle>
                  <angle>
                    <activevideoangle>false</activevideoangle>
                    <activeaudioangle>false</activeaudioangle>
                    <clip id="clip-4"/>
                  </angle>
                  <angle>
                    <activevideoangle>false</activevideoangle>
                    <activeaudioangle>false</activeaudioangle>
                    <clip id="clip-5"/>
                  </angle>
                  <angle>
                    <activevideoangle>true</activevideoangle>
                    <activeaudioangle>true</activeaudioangle>
                    <clip id="clip-6"/>
                  </angle>
                  <angle>
                    <activevideoangle>false</activevideoangle>
                    <activeaudioangle>false</activeaudioangle>
                    <clip id="clip-7"/>
                  </angle>
                  <masterclipid>clip-master</masterclipid>
                </multiclip>
              </clipitem>
              <clipitem id="cs-887">
                <duration>459</duration>
                <rate>
                  <ntsc>false</ntsc>
                  <timebase>25</timebase>
                </rate>
                <in>32969</in>
                <out>33427</out>
                <start>32969</start>
                <end>33427</end>
                <file id="src-3"/>
                <sourcetrack>
                  <mediatype>video</mediatype>
                  <trackindex>1</trackindex>
                </sourcetrack>
                <multiclip id="mcs-887">
                  <name>MCS-887</name>
                  <masterclipid>clip-master</masterclipid>
                  <collapsed>false</collapsed>
                  <angle>
                    <activevideoangle>false</activevideoangle>
                    <activeaudioangle>false</activeaudioangle>
                    <clip id="clip-1"/>
                  </angle>
                  <angle>
                    <activevideoangle>false</activevideoangle>
                    <activeaudioangle>false</activeaudioangle>
                    <clip id="clip-2"/>
                  </angle>
                  <angle>
                    <activevideoangle>true</activevideoangle>
                    <activeaudioangle>true</activeaudioangle>
                    <clip id="clip-3"/>
                  </angle>
                  <angle>
                    <activevideoangle>false</activevideoangle>
                    <activeaudioangle>false</activeaudioangle>
                    <clip id="clip-4"/>
                  </angle>
                  <angle>
                    <activevideoangle>false</activevideoangle>
                    <activeaudioangle>false</activeaudioangle>
                    <clip id="clip-5"/>
                  </angle>
                  <angle>
                    <activevideoangle>false</activevideoangle>
                    <activeaudioangle>false</activeaudioangle>
                    <clip id="clip-6"/>
                  </angle>
                  <angle>
                    <activevideoangle>false</activevideoangle>
                    <activeaudioangle>false</activeaudioangle>
                    <clip id="clip-7"/>
                  </angle>
                  <masterclipid>clip-master</masterclipid>
                </multiclip>
              </clipitem>
              <clipitem id="cs-888">
                <duration>280</duration>
                <rate>
                  <ntsc>false</ntsc>
                  <timebase>25</timebase>
                </rate>
                <in>33427</in>
                <out>33706</out>
                <start>33427</start>
                <end>33706</end>
                <file id="src-2"/>
                <sourcetrack>
                  <mediatype>video</mediatype>
                  <trackindex>1</trackindex>
                </sourcetrack>
                <multiclip id="mcs-888">
                  <name>MCS-888</name>
                  <masterclipid>clip-master</masterclipid>
                  <collapsed>false</collapsed>
                  <angle>
                    <activevideoangle>false</activevideoangle>
                    <activeaudioangle>false</activeaudioangle>
                    <clip id="clip-1"/>
                  </angle>
                  <angle>
                    <activevideoangle>true</activevideoangle>
                    <activeaudioangle>true</activeaudioangle>
                    <clip id="clip-2"/>
                  </angle>
                  <angle>
                    <activevideoangle>false</activevideoangle>
                    <activeaudioangle>false</activeaudioangle>
                    <clip id="clip-3"/>
                  </angle>
                  <angle>
                    <activevideoangle>false</activevideoangle>
                    <activeaudioangle>false</activeaudioangle>
                    <clip id="clip-4"/>
                  </angle>
                  <angle>
                    <activevideoangle>false</activevideoangle>
                    <activeaudioangle>false</activeaudioangle>
                    <clip id="clip-5"/>
                  </angle>
                  <angle>
                    <activevideoangle>false</activevideoangle>
                    <activeaudioangle>false</activeaudioangle>
                    <clip id="clip-6"/>
                  </angle>
                  <angle>
                    <activevideoangle>false</activevideoangle>
                    <activeaudioangle>false</activeaudioangle>
                    <clip id="clip-7"/>
                  </angle>
                  <masterclipid>clip-master</masterclipid>
                </multiclip>
              </clipitem>
              <clipitem id="cs-889">
                <duration>301</duration>
                <rate>
                  <ntsc>false</ntsc>
                  <timebase>25</timebase>
                </rate>
                <in>33706</in>
                <out>34006</out>
                <start>33706</start>
                <end>34006</end>
                <file id="src-4"/>
                <sourcetrack>
                  <mediatype>video</mediatype>
                  <trackindex>1</trackindex>
                </sourcetrack>
                <multiclip id="mcs-889">
                  <name>MCS-889</name>
                  <masterclipid>clip-master</masterclipid>
                  <collapsed>false</collapsed>
                  <angle>
                    <activevideoangle>false</activevideoangle>
                    <activeaudioangle>false</activeaudioangle>
                    <clip id="clip-1"/>
                  </angle>
                  <angle>
                    <activevideoangle>false</activevideoangle>
                    <activeaudioangle>false</activeaudioangle>
                    <clip id="clip-2"/>
                  </angle>
                  <angle>
                    <activevideoangle>false</activevideoangle>
                    <activeaudioangle>false</activeaudioangle>
                    <clip id="clip-3"/>
                  </angle>
                  <angle>
                    <activevideoangle>true</activevideoangle>
                    <activeaudioangle>true</activeaudioangle>
                    <clip id="clip-4"/>
                  </angle>
                  <angle>
                    <activevideoangle>false</activevideoangle>
                    <activeaudioangle>false</activeaudioangle>
                    <clip id="clip-5"/>
                  </angle>
                  <angle>
                    <activevideoangle>false</activevideoangle>
                    <activeaudioangle>false</activeaudioangle>
                    <clip id="clip-6"/>
                  </angle>
                  <angle>
                    <activevideoangle>false</activevideoangle>
                    <activeaudioangle>false</activeaudioangle>
                    <clip id="clip-7"/>
                  </angle>
                  <masterclipid>clip-master</masterclipid>
                </multiclip>
              </clipitem>
              <clipitem id="cs-890">
                <duration>470</duration>
                <rate>
                  <ntsc>false</ntsc>
                  <timebase>25</timebase>
                </rate>
                <in>34006</in>
                <out>34475</out>
                <start>34006</start>
                <end>34475</end>
                <file id="src-3"/>
                <sourcetrack>
                  <mediatype>video</mediatype>
                  <trackindex>1</trackindex>
                </sourcetrack>
                <multiclip id="mcs-890">
                  <name>MCS-890</name>
                  <masterclipid>clip-master</masterclipid>
                  <collapsed>false</collapsed>
                  <angle>
                    <activevideoangle>false</activevideoangle>
                    <activeaudioangle>false</activeaudioangle>
                    <clip id="clip-1"/>
                  </angle>
                  <angle>
                    <activevideoangle>false</activevideoangle>
                    <activeaudioangle>false</activeaudioangle>
                    <clip id="clip-2"/>
                  </angle>
                  <angle>
                    <activevideoangle>true</activevideoangle>
                    <activeaudioangle>true</activeaudioangle>
                    <clip id="clip-3"/>
                  </angle>
                  <angle>
                    <activevideoangle>false</activevideoangle>
                    <activeaudioangle>false</activeaudioangle>
                    <clip id="clip-4"/>
                  </angle>
                  <angle>
                    <activevideoangle>false</activevideoangle>
                    <activeaudioangle>false</activeaudioangle>
                    <clip id="clip-5"/>
                  </angle>
                  <angle>
                    <activevideoangle>false</activevideoangle>
                    <activeaudioangle>false</activeaudioangle>
                    <clip id="clip-6"/>
                  </angle>
                  <angle>
                    <activevideoangle>false</activevideoangle>
                    <activeaudioangle>false</activeaudioangle>
                    <clip id="clip-7"/>
                  </angle>
                  <masterclipid>clip-master</masterclipid>
                </multiclip>
              </clipitem>
              <clipitem id="cs-891">
                <duration>153</duration>
                <rate>
                  <ntsc>false</ntsc>
                  <timebase>25</timebase>
                </rate>
                <in>34475</in>
                <out>34627</out>
                <start>34475</start>
                <end>34627</end>
                <file id="src-4"/>
                <sourcetrack>
                  <mediatype>video</mediatype>
                  <trackindex>1</trackindex>
                </sourcetrack>
                <multiclip id="mcs-891">
                  <name>MCS-891</name>
                  <masterclipid>clip-master</masterclipid>
                  <collapsed>false</collapsed>
                  <angle>
                    <activevideoangle>false</activevideoangle>
                    <activeaudioangle>false</activeaudioangle>
                    <clip id="clip-1"/>
                  </angle>
                  <angle>
                    <activevideoangle>false</activevideoangle>
                    <activeaudioangle>false</activeaudioangle>
                    <clip id="clip-2"/>
                  </angle>
                  <angle>
                    <activevideoangle>false</activevideoangle>
                    <activeaudioangle>false</activeaudioangle>
                    <clip id="clip-3"/>
                  </angle>
                  <angle>
                    <activevideoangle>true</activevideoangle>
                    <activeaudioangle>true</activeaudioangle>
                    <clip id="clip-4"/>
                  </angle>
                  <angle>
                    <activevideoangle>false</activevideoangle>
                    <activeaudioangle>false</activeaudioangle>
                    <clip id="clip-5"/>
                  </angle>
                  <angle>
                    <activevideoangle>false</activevideoangle>
                    <activeaudioangle>false</activeaudioangle>
                    <clip id="clip-6"/>
                  </angle>
                  <angle>
                    <activevideoangle>false</activevideoangle>
                    <activeaudioangle>false</activeaudioangle>
                    <clip id="clip-7"/>
                  </angle>
                  <masterclipid>clip-master</masterclipid>
                </multiclip>
              </clipitem>
              <clipitem id="cs-892">
                <duration>178</duration>
                <rate>
                  <ntsc>false</ntsc>
                  <timebase>25</timebase>
                </rate>
                <in>34627</in>
                <out>34804</out>
                <start>34627</start>
                <end>34804</end>
                <file id="src-2"/>
                <sourcetrack>
                  <mediatype>video</mediatype>
                  <trackindex>1</trackindex>
                </sourcetrack>
                <multiclip id="mcs-892">
                  <name>MCS-892</name>
                  <masterclipid>clip-master</masterclipid>
                  <collapsed>false</collapsed>
                  <angle>
                    <activevideoangle>false</activevideoangle>
                    <activeaudioangle>false</activeaudioangle>
                    <clip id="clip-1"/>
                  </angle>
                  <angle>
                    <activevideoangle>true</activevideoangle>
                    <activeaudioangle>true</activeaudioangle>
                    <clip id="clip-2"/>
                  </angle>
                  <angle>
                    <activevideoangle>false</activevideoangle>
                    <activeaudioangle>false</activeaudioangle>
                    <clip id="clip-3"/>
                  </angle>
                  <angle>
                    <activevideoangle>false</activevideoangle>
                    <activeaudioangle>false</activeaudioangle>
                    <clip id="clip-4"/>
                  </angle>
                  <angle>
                    <activevideoangle>false</activevideoangle>
                    <activeaudioangle>false</activeaudioangle>
                    <clip id="clip-5"/>
                  </angle>
                  <angle>
                    <activevideoangle>false</activevideoangle>
                    <activeaudioangle>false</activeaudioangle>
                    <clip id="clip-6"/>
                  </angle>
                  <angle>
                    <activevideoangle>false</activevideoangle>
                    <activeaudioangle>false</activeaudioangle>
                    <clip id="clip-7"/>
                  </angle>
                  <masterclipid>clip-master</masterclipid>
                </multiclip>
              </clipitem>
              <clipitem id="cs-893">
                <duration>190</duration>
                <rate>
                  <ntsc>false</ntsc>
                  <timebase>25</timebase>
                </rate>
                <in>34804</in>
                <out>34993</out>
                <start>34804</start>
                <end>34993</end>
                <file id="src-3"/>
                <sourcetrack>
                  <mediatype>video</mediatype>
                  <trackindex>1</trackindex>
                </sourcetrack>
                <multiclip id="mcs-893">
                  <name>MCS-893</name>
                  <masterclipid>clip-master</masterclipid>
                  <collapsed>false</collapsed>
                  <angle>
                    <activevideoangle>false</activevideoangle>
                    <activeaudioangle>false</activeaudioangle>
                    <clip id="clip-1"/>
                  </angle>
                  <angle>
                    <activevideoangle>false</activevideoangle>
                    <activeaudioangle>false</activeaudioangle>
                    <clip id="clip-2"/>
                  </angle>
                  <angle>
                    <activevideoangle>true</activevideoangle>
                    <activeaudioangle>true</activeaudioangle>
                    <clip id="clip-3"/>
                  </angle>
                  <angle>
                    <activevideoangle>false</activevideoangle>
                    <activeaudioangle>false</activeaudioangle>
                    <clip id="clip-4"/>
                  </angle>
                  <angle>
                    <activevideoangle>false</activevideoangle>
                    <activeaudioangle>false</activeaudioangle>
                    <clip id="clip-5"/>
                  </angle>
                  <angle>
                    <activevideoangle>false</activevideoangle>
                    <activeaudioangle>false</activeaudioangle>
                    <clip id="clip-6"/>
                  </angle>
                  <angle>
                    <activevideoangle>false</activevideoangle>
                    <activeaudioangle>false</activeaudioangle>
                    <clip id="clip-7"/>
                  </angle>
                  <masterclipid>clip-master</masterclipid>
                </multiclip>
              </clipitem>
              <clipitem id="cs-894">
                <duration>148</duration>
                <rate>
                  <ntsc>false</ntsc>
                  <timebase>25</timebase>
                </rate>
                <in>34993</in>
                <out>35140</out>
                <start>34993</start>
                <end>35140</end>
                <file id="src-4"/>
                <sourcetrack>
                  <mediatype>video</mediatype>
                  <trackindex>1</trackindex>
                </sourcetrack>
                <multiclip id="mcs-894">
                  <name>MCS-894</name>
                  <masterclipid>clip-master</masterclipid>
                  <collapsed>false</collapsed>
                  <angle>
                    <activevideoangle>false</activevideoangle>
                    <activeaudioangle>false</activeaudioangle>
                    <clip id="clip-1"/>
                  </angle>
                  <angle>
                    <activevideoangle>false</activevideoangle>
                    <activeaudioangle>false</activeaudioangle>
                    <clip id="clip-2"/>
                  </angle>
                  <angle>
                    <activevideoangle>false</activevideoangle>
                    <activeaudioangle>false</activeaudioangle>
                    <clip id="clip-3"/>
                  </angle>
                  <angle>
                    <activevideoangle>true</activevideoangle>
                    <activeaudioangle>true</activeaudioangle>
                    <clip id="clip-4"/>
                  </angle>
                  <angle>
                    <activevideoangle>false</activevideoangle>
                    <activeaudioangle>false</activeaudioangle>
                    <clip id="clip-5"/>
                  </angle>
                  <angle>
                    <activevideoangle>false</activevideoangle>
                    <activeaudioangle>false</activeaudioangle>
                    <clip id="clip-6"/>
                  </angle>
                  <angle>
                    <activevideoangle>false</activevideoangle>
                    <activeaudioangle>false</activeaudioangle>
                    <clip id="clip-7"/>
                  </angle>
                  <masterclipid>clip-master</masterclipid>
                </multiclip>
              </clipitem>
              <clipitem id="cs-895">
                <duration>186</duration>
                <rate>
                  <ntsc>false</ntsc>
                  <timebase>25</timebase>
                </rate>
                <in>35140</in>
                <out>35325</out>
                <start>35140</start>
                <end>35325</end>
                <file id="src-3"/>
                <sourcetrack>
                  <mediatype>video</mediatype>
                  <trackindex>1</trackindex>
                </sourcetrack>
                <multiclip id="mcs-895">
                  <name>MCS-895</name>
                  <masterclipid>clip-master</masterclipid>
                  <collapsed>false</collapsed>
                  <angle>
                    <activevideoangle>false</activevideoangle>
                    <activeaudioangle>false</activeaudioangle>
                    <clip id="clip-1"/>
                  </angle>
                  <angle>
                    <activevideoangle>false</activevideoangle>
                    <activeaudioangle>false</activeaudioangle>
                    <clip id="clip-2"/>
                  </angle>
                  <angle>
                    <activevideoangle>true</activevideoangle>
                    <activeaudioangle>true</activeaudioangle>
                    <clip id="clip-3"/>
                  </angle>
                  <angle>
                    <activevideoangle>false</activevideoangle>
                    <activeaudioangle>false</activeaudioangle>
                    <clip id="clip-4"/>
                  </angle>
                  <angle>
                    <activevideoangle>false</activevideoangle>
                    <activeaudioangle>false</activeaudioangle>
                    <clip id="clip-5"/>
                  </angle>
                  <angle>
                    <activevideoangle>false</activevideoangle>
                    <activeaudioangle>false</activeaudioangle>
                    <clip id="clip-6"/>
                  </angle>
                  <angle>
                    <activevideoangle>false</activevideoangle>
                    <activeaudioangle>false</activeaudioangle>
                    <clip id="clip-7"/>
                  </angle>
                  <masterclipid>clip-master</masterclipid>
                </multiclip>
              </clipitem>
              <clipitem id="cs-896">
                <duration>196</duration>
                <rate>
                  <ntsc>false</ntsc>
                  <timebase>25</timebase>
                </rate>
                <in>35325</in>
                <out>35520</out>
                <start>35325</start>
                <end>35520</end>
                <file id="src-2"/>
                <sourcetrack>
                  <mediatype>video</mediatype>
                  <trackindex>1</trackindex>
                </sourcetrack>
                <multiclip id="mcs-896">
                  <name>MCS-896</name>
                  <masterclipid>clip-master</masterclipid>
                  <collapsed>false</collapsed>
                  <angle>
                    <activevideoangle>false</activevideoangle>
                    <activeaudioangle>false</activeaudioangle>
                    <clip id="clip-1"/>
                  </angle>
                  <angle>
                    <activevideoangle>true</activevideoangle>
                    <activeaudioangle>true</activeaudioangle>
                    <clip id="clip-2"/>
                  </angle>
                  <angle>
                    <activevideoangle>false</activevideoangle>
                    <activeaudioangle>false</activeaudioangle>
                    <clip id="clip-3"/>
                  </angle>
                  <angle>
                    <activevideoangle>false</activevideoangle>
                    <activeaudioangle>false</activeaudioangle>
                    <clip id="clip-4"/>
                  </angle>
                  <angle>
                    <activevideoangle>false</activevideoangle>
                    <activeaudioangle>false</activeaudioangle>
                    <clip id="clip-5"/>
                  </angle>
                  <angle>
                    <activevideoangle>false</activevideoangle>
                    <activeaudioangle>false</activeaudioangle>
                    <clip id="clip-6"/>
                  </angle>
                  <angle>
                    <activevideoangle>false</activevideoangle>
                    <activeaudioangle>false</activeaudioangle>
                    <clip id="clip-7"/>
                  </angle>
                  <masterclipid>clip-master</masterclipid>
                </multiclip>
              </clipitem>
              <clipitem id="cs-897">
                <duration>166</duration>
                <rate>
                  <ntsc>false</ntsc>
                  <timebase>25</timebase>
                </rate>
                <in>35520</in>
                <out>35685</out>
                <start>35520</start>
                <end>35685</end>
                <file id="src-6"/>
                <sourcetrack>
                  <mediatype>video</mediatype>
                  <trackindex>1</trackindex>
                </sourcetrack>
                <multiclip id="mcs-897">
                  <name>MCS-897</name>
                  <masterclipid>clip-master</masterclipid>
                  <collapsed>false</collapsed>
                  <angle>
                    <activevideoangle>false</activevideoangle>
                    <activeaudioangle>false</activeaudioangle>
                    <clip id="clip-1"/>
                  </angle>
                  <angle>
                    <activevideoangle>false</activevideoangle>
                    <activeaudioangle>false</activeaudioangle>
                    <clip id="clip-2"/>
                  </angle>
                  <angle>
                    <activevideoangle>false</activevideoangle>
                    <activeaudioangle>false</activeaudioangle>
                    <clip id="clip-3"/>
                  </angle>
                  <angle>
                    <activevideoangle>false</activevideoangle>
                    <activeaudioangle>false</activeaudioangle>
                    <clip id="clip-4"/>
                  </angle>
                  <angle>
                    <activevideoangle>false</activevideoangle>
                    <activeaudioangle>false</activeaudioangle>
                    <clip id="clip-5"/>
                  </angle>
                  <angle>
                    <activevideoangle>true</activevideoangle>
                    <activeaudioangle>true</activeaudioangle>
                    <clip id="clip-6"/>
                  </angle>
                  <angle>
                    <activevideoangle>false</activevideoangle>
                    <activeaudioangle>false</activeaudioangle>
                    <clip id="clip-7"/>
                  </angle>
                  <masterclipid>clip-master</masterclipid>
                </multiclip>
              </clipitem>
              <clipitem id="cs-898">
                <duration>200</duration>
                <rate>
                  <ntsc>false</ntsc>
                  <timebase>25</timebase>
                </rate>
                <in>35685</in>
                <out>35884</out>
                <start>35685</start>
                <end>35884</end>
                <file id="src-4"/>
                <sourcetrack>
                  <mediatype>video</mediatype>
                  <trackindex>1</trackindex>
                </sourcetrack>
                <multiclip id="mcs-898">
                  <name>MCS-898</name>
                  <masterclipid>clip-master</masterclipid>
                  <collapsed>false</collapsed>
                  <angle>
                    <activevideoangle>false</activevideoangle>
                    <activeaudioangle>false</activeaudioangle>
                    <clip id="clip-1"/>
                  </angle>
                  <angle>
                    <activevideoangle>false</activevideoangle>
                    <activeaudioangle>false</activeaudioangle>
                    <clip id="clip-2"/>
                  </angle>
                  <angle>
                    <activevideoangle>false</activevideoangle>
                    <activeaudioangle>false</activeaudioangle>
                    <clip id="clip-3"/>
                  </angle>
                  <angle>
                    <activevideoangle>true</activevideoangle>
                    <activeaudioangle>true</activeaudioangle>
                    <clip id="clip-4"/>
                  </angle>
                  <angle>
                    <activevideoangle>false</activevideoangle>
                    <activeaudioangle>false</activeaudioangle>
                    <clip id="clip-5"/>
                  </angle>
                  <angle>
                    <activevideoangle>false</activevideoangle>
                    <activeaudioangle>false</activeaudioangle>
                    <clip id="clip-6"/>
                  </angle>
                  <angle>
                    <activevideoangle>false</activevideoangle>
                    <activeaudioangle>false</activeaudioangle>
                    <clip id="clip-7"/>
                  </angle>
                  <masterclipid>clip-master</masterclipid>
                </multiclip>
              </clipitem>
              <clipitem id="cs-899">
                <duration>290</duration>
                <rate>
                  <ntsc>false</ntsc>
                  <timebase>25</timebase>
                </rate>
                <in>35884</in>
                <out>36173</out>
                <start>35884</start>
                <end>36173</end>
                <file id="src-3"/>
                <sourcetrack>
                  <mediatype>video</mediatype>
                  <trackindex>1</trackindex>
                </sourcetrack>
                <multiclip id="mcs-899">
                  <name>MCS-899</name>
                  <masterclipid>clip-master</masterclipid>
                  <collapsed>false</collapsed>
                  <angle>
                    <activevideoangle>false</activevideoangle>
                    <activeaudioangle>false</activeaudioangle>
                    <clip id="clip-1"/>
                  </angle>
                  <angle>
                    <activevideoangle>false</activevideoangle>
                    <activeaudioangle>false</activeaudioangle>
                    <clip id="clip-2"/>
                  </angle>
                  <angle>
                    <activevideoangle>true</activevideoangle>
                    <activeaudioangle>true</activeaudioangle>
                    <clip id="clip-3"/>
                  </angle>
                  <angle>
                    <activevideoangle>false</activevideoangle>
                    <activeaudioangle>false</activeaudioangle>
                    <clip id="clip-4"/>
                  </angle>
                  <angle>
                    <activevideoangle>false</activevideoangle>
                    <activeaudioangle>false</activeaudioangle>
                    <clip id="clip-5"/>
                  </angle>
                  <angle>
                    <activevideoangle>false</activevideoangle>
                    <activeaudioangle>false</activeaudioangle>
                    <clip id="clip-6"/>
                  </angle>
                  <angle>
                    <activevideoangle>false</activevideoangle>
                    <activeaudioangle>false</activeaudioangle>
                    <clip id="clip-7"/>
                  </angle>
                  <masterclipid>clip-master</masterclipid>
                </multiclip>
              </clipitem>
              <clipitem id="cs-900">
                <duration>257</duration>
                <rate>
                  <ntsc>false</ntsc>
                  <timebase>25</timebase>
                </rate>
                <in>36173</in>
                <out>36429</out>
                <start>36173</start>
                <end>36429</end>
                <file id="src-2"/>
                <sourcetrack>
                  <mediatype>video</mediatype>
                  <trackindex>1</trackindex>
                </sourcetrack>
                <multiclip id="mcs-900">
                  <name>MCS-900</name>
                  <masterclipid>clip-master</masterclipid>
                  <collapsed>false</collapsed>
                  <angle>
                    <activevideoangle>false</activevideoangle>
                    <activeaudioangle>false</activeaudioangle>
                    <clip id="clip-1"/>
                  </angle>
                  <angle>
                    <activevideoangle>true</activevideoangle>
                    <activeaudioangle>true</activeaudioangle>
                    <clip id="clip-2"/>
                  </angle>
                  <angle>
                    <activevideoangle>false</activevideoangle>
                    <activeaudioangle>false</activeaudioangle>
                    <clip id="clip-3"/>
                  </angle>
                  <angle>
                    <activevideoangle>false</activevideoangle>
                    <activeaudioangle>false</activeaudioangle>
                    <clip id="clip-4"/>
                  </angle>
                  <angle>
                    <activevideoangle>false</activevideoangle>
                    <activeaudioangle>false</activeaudioangle>
                    <clip id="clip-5"/>
                  </angle>
                  <angle>
                    <activevideoangle>false</activevideoangle>
                    <activeaudioangle>false</activeaudioangle>
                    <clip id="clip-6"/>
                  </angle>
                  <angle>
                    <activevideoangle>false</activevideoangle>
                    <activeaudioangle>false</activeaudioangle>
                    <clip id="clip-7"/>
                  </angle>
                  <masterclipid>clip-master</masterclipid>
                </multiclip>
              </clipitem>
              <clipitem id="cs-901">
                <duration>1113</duration>
                <rate>
                  <ntsc>false</ntsc>
                  <timebase>25</timebase>
                </rate>
                <in>36429</in>
                <out>37541</out>
                <start>36429</start>
                <end>37541</end>
                <file id="src-1"/>
                <sourcetrack>
                  <mediatype>video</mediatype>
                  <trackindex>1</trackindex>
                </sourcetrack>
                <multiclip id="mcs-901">
                  <name>MCS-901</name>
                  <masterclipid>clip-master</masterclipid>
                  <collapsed>false</collapsed>
                  <angle>
                    <activevideoangle>true</activevideoangle>
                    <activeaudioangle>true</activeaudioangle>
                    <clip id="clip-1"/>
                  </angle>
                  <angle>
                    <activevideoangle>false</activevideoangle>
                    <activeaudioangle>false</activeaudioangle>
                    <clip id="clip-2"/>
                  </angle>
                  <angle>
                    <activevideoangle>false</activevideoangle>
                    <activeaudioangle>false</activeaudioangle>
                    <clip id="clip-3"/>
                  </angle>
                  <angle>
                    <activevideoangle>false</activevideoangle>
                    <activeaudioangle>false</activeaudioangle>
                    <clip id="clip-4"/>
                  </angle>
                  <angle>
                    <activevideoangle>false</activevideoangle>
                    <activeaudioangle>false</activeaudioangle>
                    <clip id="clip-5"/>
                  </angle>
                  <angle>
                    <activevideoangle>false</activevideoangle>
                    <activeaudioangle>false</activeaudioangle>
                    <clip id="clip-6"/>
                  </angle>
                  <angle>
                    <activevideoangle>false</activevideoangle>
                    <activeaudioangle>false</activeaudioangle>
                    <clip id="clip-7"/>
                  </angle>
                  <masterclipid>clip-master</masterclipid>
                </multiclip>
              </clipitem>
              <clipitem id="cs-902">
                <duration>135</duration>
                <rate>
                  <ntsc>false</ntsc>
                  <timebase>25</timebase>
                </rate>
                <in>37541</in>
                <out>37675</out>
                <start>37541</start>
                <end>37675</end>
                <file id="src-2"/>
                <sourcetrack>
                  <mediatype>video</mediatype>
                  <trackindex>1</trackindex>
                </sourcetrack>
                <multiclip id="mcs-902">
                  <name>MCS-902</name>
                  <masterclipid>clip-master</masterclipid>
                  <collapsed>false</collapsed>
                  <angle>
                    <activevideoangle>false</activevideoangle>
                    <activeaudioangle>false</activeaudioangle>
                    <clip id="clip-1"/>
                  </angle>
                  <angle>
                    <activevideoangle>true</activevideoangle>
                    <activeaudioangle>true</activeaudioangle>
                    <clip id="clip-2"/>
                  </angle>
                  <angle>
                    <activevideoangle>false</activevideoangle>
                    <activeaudioangle>false</activeaudioangle>
                    <clip id="clip-3"/>
                  </angle>
                  <angle>
                    <activevideoangle>false</activevideoangle>
                    <activeaudioangle>false</activeaudioangle>
                    <clip id="clip-4"/>
                  </angle>
                  <angle>
                    <activevideoangle>false</activevideoangle>
                    <activeaudioangle>false</activeaudioangle>
                    <clip id="clip-5"/>
                  </angle>
                  <angle>
                    <activevideoangle>false</activevideoangle>
                    <activeaudioangle>false</activeaudioangle>
                    <clip id="clip-6"/>
                  </angle>
                  <angle>
                    <activevideoangle>false</activevideoangle>
                    <activeaudioangle>false</activeaudioangle>
                    <clip id="clip-7"/>
                  </angle>
                  <masterclipid>clip-master</masterclipid>
                </multiclip>
              </clipitem>
              <clipitem id="cs-903">
                <duration>302</duration>
                <rate>
                  <ntsc>false</ntsc>
                  <timebase>25</timebase>
                </rate>
                <in>37675</in>
                <out>37976</out>
                <start>37675</start>
                <end>37976</end>
                <file id="src-3"/>
                <sourcetrack>
                  <mediatype>video</mediatype>
                  <trackindex>1</trackindex>
                </sourcetrack>
                <multiclip id="mcs-903">
                  <name>MCS-903</name>
                  <masterclipid>clip-master</masterclipid>
                  <collapsed>false</collapsed>
                  <angle>
                    <activevideoangle>false</activevideoangle>
                    <activeaudioangle>false</activeaudioangle>
                    <clip id="clip-1"/>
                  </angle>
                  <angle>
                    <activevideoangle>false</activevideoangle>
                    <activeaudioangle>false</activeaudioangle>
                    <clip id="clip-2"/>
                  </angle>
                  <angle>
                    <activevideoangle>true</activevideoangle>
                    <activeaudioangle>true</activeaudioangle>
                    <clip id="clip-3"/>
                  </angle>
                  <angle>
                    <activevideoangle>false</activevideoangle>
                    <activeaudioangle>false</activeaudioangle>
                    <clip id="clip-4"/>
                  </angle>
                  <angle>
                    <activevideoangle>false</activevideoangle>
                    <activeaudioangle>false</activeaudioangle>
                    <clip id="clip-5"/>
                  </angle>
                  <angle>
                    <activevideoangle>false</activevideoangle>
                    <activeaudioangle>false</activeaudioangle>
                    <clip id="clip-6"/>
                  </angle>
                  <angle>
                    <activevideoangle>false</activevideoangle>
                    <activeaudioangle>false</activeaudioangle>
                    <clip id="clip-7"/>
                  </angle>
                  <masterclipid>clip-master</masterclipid>
                </multiclip>
              </clipitem>
              <clipitem id="cs-904">
                <duration>265</duration>
                <rate>
                  <ntsc>false</ntsc>
                  <timebase>25</timebase>
                </rate>
                <in>37976</in>
                <out>38240</out>
                <start>37976</start>
                <end>38240</end>
                <file id="src-4"/>
                <sourcetrack>
                  <mediatype>video</mediatype>
                  <trackindex>1</trackindex>
                </sourcetrack>
                <multiclip id="mcs-904">
                  <name>MCS-904</name>
                  <masterclipid>clip-master</masterclipid>
                  <collapsed>false</collapsed>
                  <angle>
                    <activevideoangle>false</activevideoangle>
                    <activeaudioangle>false</activeaudioangle>
                    <clip id="clip-1"/>
                  </angle>
                  <angle>
                    <activevideoangle>false</activevideoangle>
                    <activeaudioangle>false</activeaudioangle>
                    <clip id="clip-2"/>
                  </angle>
                  <angle>
                    <activevideoangle>false</activevideoangle>
                    <activeaudioangle>false</activeaudioangle>
                    <clip id="clip-3"/>
                  </angle>
                  <angle>
                    <activevideoangle>true</activevideoangle>
                    <activeaudioangle>true</activeaudioangle>
                    <clip id="clip-4"/>
                  </angle>
                  <angle>
                    <activevideoangle>false</activevideoangle>
                    <activeaudioangle>false</activeaudioangle>
                    <clip id="clip-5"/>
                  </angle>
                  <angle>
                    <activevideoangle>false</activevideoangle>
                    <activeaudioangle>false</activeaudioangle>
                    <clip id="clip-6"/>
                  </angle>
                  <angle>
                    <activevideoangle>false</activevideoangle>
                    <activeaudioangle>false</activeaudioangle>
                    <clip id="clip-7"/>
                  </angle>
                  <masterclipid>clip-master</masterclipid>
                </multiclip>
              </clipitem>
              <clipitem id="cs-905">
                <duration>95</duration>
                <rate>
                  <ntsc>false</ntsc>
                  <timebase>25</timebase>
                </rate>
                <in>38240</in>
                <out>38334</out>
                <start>38240</start>
                <end>38334</end>
                <file id="src-3"/>
                <sourcetrack>
                  <mediatype>video</mediatype>
                  <trackindex>1</trackindex>
                </sourcetrack>
                <multiclip id="mcs-905">
                  <name>MCS-905</name>
                  <masterclipid>clip-master</masterclipid>
                  <collapsed>false</collapsed>
                  <angle>
                    <activevideoangle>false</activevideoangle>
                    <activeaudioangle>false</activeaudioangle>
                    <clip id="clip-1"/>
                  </angle>
                  <angle>
                    <activevideoangle>false</activevideoangle>
                    <activeaudioangle>false</activeaudioangle>
                    <clip id="clip-2"/>
                  </angle>
                  <angle>
                    <activevideoangle>true</activevideoangle>
                    <activeaudioangle>true</activeaudioangle>
                    <clip id="clip-3"/>
                  </angle>
                  <angle>
                    <activevideoangle>false</activevideoangle>
                    <activeaudioangle>false</activeaudioangle>
                    <clip id="clip-4"/>
                  </angle>
                  <angle>
                    <activevideoangle>false</activevideoangle>
                    <activeaudioangle>false</activeaudioangle>
                    <clip id="clip-5"/>
                  </angle>
                  <angle>
                    <activevideoangle>false</activevideoangle>
                    <activeaudioangle>false</activeaudioangle>
                    <clip id="clip-6"/>
                  </angle>
                  <angle>
                    <activevideoangle>false</activevideoangle>
                    <activeaudioangle>false</activeaudioangle>
                    <clip id="clip-7"/>
                  </angle>
                  <masterclipid>clip-master</masterclipid>
                </multiclip>
              </clipitem>
              <clipitem id="cs-906">
                <duration>583</duration>
                <rate>
                  <ntsc>false</ntsc>
                  <timebase>25</timebase>
                </rate>
                <in>38334</in>
                <out>38916</out>
                <start>38334</start>
                <end>38916</end>
                <file id="src-2"/>
                <sourcetrack>
                  <mediatype>video</mediatype>
                  <trackindex>1</trackindex>
                </sourcetrack>
                <multiclip id="mcs-906">
                  <name>MCS-906</name>
                  <masterclipid>clip-master</masterclipid>
                  <collapsed>false</collapsed>
                  <angle>
                    <activevideoangle>false</activevideoangle>
                    <activeaudioangle>false</activeaudioangle>
                    <clip id="clip-1"/>
                  </angle>
                  <angle>
                    <activevideoangle>true</activevideoangle>
                    <activeaudioangle>true</activeaudioangle>
                    <clip id="clip-2"/>
                  </angle>
                  <angle>
                    <activevideoangle>false</activevideoangle>
                    <activeaudioangle>false</activeaudioangle>
                    <clip id="clip-3"/>
                  </angle>
                  <angle>
                    <activevideoangle>false</activevideoangle>
                    <activeaudioangle>false</activeaudioangle>
                    <clip id="clip-4"/>
                  </angle>
                  <angle>
                    <activevideoangle>false</activevideoangle>
                    <activeaudioangle>false</activeaudioangle>
                    <clip id="clip-5"/>
                  </angle>
                  <angle>
                    <activevideoangle>false</activevideoangle>
                    <activeaudioangle>false</activeaudioangle>
                    <clip id="clip-6"/>
                  </angle>
                  <angle>
                    <activevideoangle>false</activevideoangle>
                    <activeaudioangle>false</activeaudioangle>
                    <clip id="clip-7"/>
                  </angle>
                  <masterclipid>clip-master</masterclipid>
                </multiclip>
              </clipitem>
              <clipitem id="cs-907">
                <duration>189</duration>
                <rate>
                  <ntsc>false</ntsc>
                  <timebase>25</timebase>
                </rate>
                <in>38916</in>
                <out>39104</out>
                <start>38916</start>
                <end>39104</end>
                <file id="src-3"/>
                <sourcetrack>
                  <mediatype>video</mediatype>
                  <trackindex>1</trackindex>
                </sourcetrack>
                <multiclip id="mcs-907">
                  <name>MCS-907</name>
                  <masterclipid>clip-master</masterclipid>
                  <collapsed>false</collapsed>
                  <angle>
                    <activevideoangle>false</activevideoangle>
                    <activeaudioangle>false</activeaudioangle>
                    <clip id="clip-1"/>
                  </angle>
                  <angle>
                    <activevideoangle>false</activevideoangle>
                    <activeaudioangle>false</activeaudioangle>
                    <clip id="clip-2"/>
                  </angle>
                  <angle>
                    <activevideoangle>true</activevideoangle>
                    <activeaudioangle>true</activeaudioangle>
                    <clip id="clip-3"/>
                  </angle>
                  <angle>
                    <activevideoangle>false</activevideoangle>
                    <activeaudioangle>false</activeaudioangle>
                    <clip id="clip-4"/>
                  </angle>
                  <angle>
                    <activevideoangle>false</activevideoangle>
                    <activeaudioangle>false</activeaudioangle>
                    <clip id="clip-5"/>
                  </angle>
                  <angle>
                    <activevideoangle>false</activevideoangle>
                    <activeaudioangle>false</activeaudioangle>
                    <clip id="clip-6"/>
                  </angle>
                  <angle>
                    <activevideoangle>false</activevideoangle>
                    <activeaudioangle>false</activeaudioangle>
                    <clip id="clip-7"/>
                  </angle>
                  <masterclipid>clip-master</masterclipid>
                </multiclip>
              </clipitem>
              <clipitem id="cs-908">
                <duration>368</duration>
                <rate>
                  <ntsc>false</ntsc>
                  <timebase>25</timebase>
                </rate>
                <in>39104</in>
                <out>39471</out>
                <start>39104</start>
                <end>39471</end>
                <file id="src-4"/>
                <sourcetrack>
                  <mediatype>video</mediatype>
                  <trackindex>1</trackindex>
                </sourcetrack>
                <multiclip id="mcs-908">
                  <name>MCS-908</name>
                  <masterclipid>clip-master</masterclipid>
                  <collapsed>false</collapsed>
                  <angle>
                    <activevideoangle>false</activevideoangle>
                    <activeaudioangle>false</activeaudioangle>
                    <clip id="clip-1"/>
                  </angle>
                  <angle>
                    <activevideoangle>false</activevideoangle>
                    <activeaudioangle>false</activeaudioangle>
                    <clip id="clip-2"/>
                  </angle>
                  <angle>
                    <activevideoangle>false</activevideoangle>
                    <activeaudioangle>false</activeaudioangle>
                    <clip id="clip-3"/>
                  </angle>
                  <angle>
                    <activevideoangle>true</activevideoangle>
                    <activeaudioangle>true</activeaudioangle>
                    <clip id="clip-4"/>
                  </angle>
                  <angle>
                    <activevideoangle>false</activevideoangle>
                    <activeaudioangle>false</activeaudioangle>
                    <clip id="clip-5"/>
                  </angle>
                  <angle>
                    <activevideoangle>false</activevideoangle>
                    <activeaudioangle>false</activeaudioangle>
                    <clip id="clip-6"/>
                  </angle>
                  <angle>
                    <activevideoangle>false</activevideoangle>
                    <activeaudioangle>false</activeaudioangle>
                    <clip id="clip-7"/>
                  </angle>
                  <masterclipid>clip-master</masterclipid>
                </multiclip>
              </clipitem>
              <clipitem id="cs-909">
                <duration>378</duration>
                <rate>
                  <ntsc>false</ntsc>
                  <timebase>25</timebase>
                </rate>
                <in>39471</in>
                <out>39848</out>
                <start>39471</start>
                <end>39848</end>
                <file id="src-2"/>
                <sourcetrack>
                  <mediatype>video</mediatype>
                  <trackindex>1</trackindex>
                </sourcetrack>
                <multiclip id="mcs-909">
                  <name>MCS-909</name>
                  <masterclipid>clip-master</masterclipid>
                  <collapsed>false</collapsed>
                  <angle>
                    <activevideoangle>false</activevideoangle>
                    <activeaudioangle>false</activeaudioangle>
                    <clip id="clip-1"/>
                  </angle>
                  <angle>
                    <activevideoangle>true</activevideoangle>
                    <activeaudioangle>true</activeaudioangle>
                    <clip id="clip-2"/>
                  </angle>
                  <angle>
                    <activevideoangle>false</activevideoangle>
                    <activeaudioangle>false</activeaudioangle>
                    <clip id="clip-3"/>
                  </angle>
                  <angle>
                    <activevideoangle>false</activevideoangle>
                    <activeaudioangle>false</activeaudioangle>
                    <clip id="clip-4"/>
                  </angle>
                  <angle>
                    <activevideoangle>false</activevideoangle>
                    <activeaudioangle>false</activeaudioangle>
                    <clip id="clip-5"/>
                  </angle>
                  <angle>
                    <activevideoangle>false</activevideoangle>
                    <activeaudioangle>false</activeaudioangle>
                    <clip id="clip-6"/>
                  </angle>
                  <angle>
                    <activevideoangle>false</activevideoangle>
                    <activeaudioangle>false</activeaudioangle>
                    <clip id="clip-7"/>
                  </angle>
                  <masterclipid>clip-master</masterclipid>
                </multiclip>
              </clipitem>
              <clipitem id="cs-910">
                <duration>580</duration>
                <rate>
                  <ntsc>false</ntsc>
                  <timebase>25</timebase>
                </rate>
                <in>39848</in>
                <out>40427</out>
                <start>39848</start>
                <end>40427</end>
                <file id="src-3"/>
                <sourcetrack>
                  <mediatype>video</mediatype>
                  <trackindex>1</trackindex>
                </sourcetrack>
                <multiclip id="mcs-910">
                  <name>MCS-910</name>
                  <masterclipid>clip-master</masterclipid>
                  <collapsed>false</collapsed>
                  <angle>
                    <activevideoangle>false</activevideoangle>
                    <activeaudioangle>false</activeaudioangle>
                    <clip id="clip-1"/>
                  </angle>
                  <angle>
                    <activevideoangle>false</activevideoangle>
                    <activeaudioangle>false</activeaudioangle>
                    <clip id="clip-2"/>
                  </angle>
                  <angle>
                    <activevideoangle>true</activevideoangle>
                    <activeaudioangle>true</activeaudioangle>
                    <clip id="clip-3"/>
                  </angle>
                  <angle>
                    <activevideoangle>false</activevideoangle>
                    <activeaudioangle>false</activeaudioangle>
                    <clip id="clip-4"/>
                  </angle>
                  <angle>
                    <activevideoangle>false</activevideoangle>
                    <activeaudioangle>false</activeaudioangle>
                    <clip id="clip-5"/>
                  </angle>
                  <angle>
                    <activevideoangle>false</activevideoangle>
                    <activeaudioangle>false</activeaudioangle>
                    <clip id="clip-6"/>
                  </angle>
                  <angle>
                    <activevideoangle>false</activevideoangle>
                    <activeaudioangle>false</activeaudioangle>
                    <clip id="clip-7"/>
                  </angle>
                  <masterclipid>clip-master</masterclipid>
                </multiclip>
              </clipitem>
              <clipitem id="cs-911">
                <duration>547</duration>
                <rate>
                  <ntsc>false</ntsc>
                  <timebase>25</timebase>
                </rate>
                <in>40427</in>
                <out>40973</out>
                <start>40427</start>
                <end>40973</end>
                <file id="src-4"/>
                <sourcetrack>
                  <mediatype>video</mediatype>
                  <trackindex>1</trackindex>
                </sourcetrack>
                <multiclip id="mcs-911">
                  <name>MCS-911</name>
                  <masterclipid>clip-master</masterclipid>
                  <collapsed>false</collapsed>
                  <angle>
                    <activevideoangle>false</activevideoangle>
                    <activeaudioangle>false</activeaudioangle>
                    <clip id="clip-1"/>
                  </angle>
                  <angle>
                    <activevideoangle>false</activevideoangle>
                    <activeaudioangle>false</activeaudioangle>
                    <clip id="clip-2"/>
                  </angle>
                  <angle>
                    <activevideoangle>false</activevideoangle>
                    <activeaudioangle>false</activeaudioangle>
                    <clip id="clip-3"/>
                  </angle>
                  <angle>
                    <activevideoangle>true</activevideoangle>
                    <activeaudioangle>true</activeaudioangle>
                    <clip id="clip-4"/>
                  </angle>
                  <angle>
                    <activevideoangle>false</activevideoangle>
                    <activeaudioangle>false</activeaudioangle>
                    <clip id="clip-5"/>
                  </angle>
                  <angle>
                    <activevideoangle>false</activevideoangle>
                    <activeaudioangle>false</activeaudioangle>
                    <clip id="clip-6"/>
                  </angle>
                  <angle>
                    <activevideoangle>false</activevideoangle>
                    <activeaudioangle>false</activeaudioangle>
                    <clip id="clip-7"/>
                  </angle>
                  <masterclipid>clip-master</masterclipid>
                </multiclip>
              </clipitem>
              <clipitem id="cs-912">
                <duration>161</duration>
                <rate>
                  <ntsc>false</ntsc>
                  <timebase>25</timebase>
                </rate>
                <in>40973</in>
                <out>41133</out>
                <start>40973</start>
                <end>41133</end>
                <file id="src-1"/>
                <sourcetrack>
                  <mediatype>video</mediatype>
                  <trackindex>1</trackindex>
                </sourcetrack>
                <multiclip id="mcs-912">
                  <name>MCS-912</name>
                  <masterclipid>clip-master</masterclipid>
                  <collapsed>false</collapsed>
                  <angle>
                    <activevideoangle>true</activevideoangle>
                    <activeaudioangle>true</activeaudioangle>
                    <clip id="clip-1"/>
                  </angle>
                  <angle>
                    <activevideoangle>false</activevideoangle>
                    <activeaudioangle>false</activeaudioangle>
                    <clip id="clip-2"/>
                  </angle>
                  <angle>
                    <activevideoangle>false</activevideoangle>
                    <activeaudioangle>false</activeaudioangle>
                    <clip id="clip-3"/>
                  </angle>
                  <angle>
                    <activevideoangle>false</activevideoangle>
                    <activeaudioangle>false</activeaudioangle>
                    <clip id="clip-4"/>
                  </angle>
                  <angle>
                    <activevideoangle>false</activevideoangle>
                    <activeaudioangle>false</activeaudioangle>
                    <clip id="clip-5"/>
                  </angle>
                  <angle>
                    <activevideoangle>false</activevideoangle>
                    <activeaudioangle>false</activeaudioangle>
                    <clip id="clip-6"/>
                  </angle>
                  <angle>
                    <activevideoangle>false</activevideoangle>
                    <activeaudioangle>false</activeaudioangle>
                    <clip id="clip-7"/>
                  </angle>
                  <masterclipid>clip-master</masterclipid>
                </multiclip>
              </clipitem>
              <clipitem id="cs-913">
                <duration>123</duration>
                <rate>
                  <ntsc>false</ntsc>
                  <timebase>25</timebase>
                </rate>
                <in>41133</in>
                <out>41255</out>
                <start>41133</start>
                <end>41255</end>
                <file id="src-2"/>
                <sourcetrack>
                  <mediatype>video</mediatype>
                  <trackindex>1</trackindex>
                </sourcetrack>
                <multiclip id="mcs-913">
                  <name>MCS-913</name>
                  <masterclipid>clip-master</masterclipid>
                  <collapsed>false</collapsed>
                  <angle>
                    <activevideoangle>false</activevideoangle>
                    <activeaudioangle>false</activeaudioangle>
                    <clip id="clip-1"/>
                  </angle>
                  <angle>
                    <activevideoangle>true</activevideoangle>
                    <activeaudioangle>true</activeaudioangle>
                    <clip id="clip-2"/>
                  </angle>
                  <angle>
                    <activevideoangle>false</activevideoangle>
                    <activeaudioangle>false</activeaudioangle>
                    <clip id="clip-3"/>
                  </angle>
                  <angle>
                    <activevideoangle>false</activevideoangle>
                    <activeaudioangle>false</activeaudioangle>
                    <clip id="clip-4"/>
                  </angle>
                  <angle>
                    <activevideoangle>false</activevideoangle>
                    <activeaudioangle>false</activeaudioangle>
                    <clip id="clip-5"/>
                  </angle>
                  <angle>
                    <activevideoangle>false</activevideoangle>
                    <activeaudioangle>false</activeaudioangle>
                    <clip id="clip-6"/>
                  </angle>
                  <angle>
                    <activevideoangle>false</activevideoangle>
                    <activeaudioangle>false</activeaudioangle>
                    <clip id="clip-7"/>
                  </angle>
                  <masterclipid>clip-master</masterclipid>
                </multiclip>
              </clipitem>
              <clipitem id="cs-914">
                <duration>164</duration>
                <rate>
                  <ntsc>false</ntsc>
                  <timebase>25</timebase>
                </rate>
                <in>41255</in>
                <out>41418</out>
                <start>41255</start>
                <end>41418</end>
                <file id="src-1"/>
                <sourcetrack>
                  <mediatype>video</mediatype>
                  <trackindex>1</trackindex>
                </sourcetrack>
                <multiclip id="mcs-914">
                  <name>MCS-914</name>
                  <masterclipid>clip-master</masterclipid>
                  <collapsed>false</collapsed>
                  <angle>
                    <activevideoangle>true</activevideoangle>
                    <activeaudioangle>true</activeaudioangle>
                    <clip id="clip-1"/>
                  </angle>
                  <angle>
                    <activevideoangle>false</activevideoangle>
                    <activeaudioangle>false</activeaudioangle>
                    <clip id="clip-2"/>
                  </angle>
                  <angle>
                    <activevideoangle>false</activevideoangle>
                    <activeaudioangle>false</activeaudioangle>
                    <clip id="clip-3"/>
                  </angle>
                  <angle>
                    <activevideoangle>false</activevideoangle>
                    <activeaudioangle>false</activeaudioangle>
                    <clip id="clip-4"/>
                  </angle>
                  <angle>
                    <activevideoangle>false</activevideoangle>
                    <activeaudioangle>false</activeaudioangle>
                    <clip id="clip-5"/>
                  </angle>
                  <angle>
                    <activevideoangle>false</activevideoangle>
                    <activeaudioangle>false</activeaudioangle>
                    <clip id="clip-6"/>
                  </angle>
                  <angle>
                    <activevideoangle>false</activevideoangle>
                    <activeaudioangle>false</activeaudioangle>
                    <clip id="clip-7"/>
                  </angle>
                  <masterclipid>clip-master</masterclipid>
                </multiclip>
              </clipitem>
              <clipitem id="cs-915">
                <duration>211</duration>
                <rate>
                  <ntsc>false</ntsc>
                  <timebase>25</timebase>
                </rate>
                <in>41418</in>
                <out>41628</out>
                <start>41418</start>
                <end>41628</end>
                <file id="src-3"/>
                <sourcetrack>
                  <mediatype>video</mediatype>
                  <trackindex>1</trackindex>
                </sourcetrack>
                <multiclip id="mcs-915">
                  <name>MCS-915</name>
                  <masterclipid>clip-master</masterclipid>
                  <collapsed>false</collapsed>
                  <angle>
                    <activevideoangle>false</activevideoangle>
                    <activeaudioangle>false</activeaudioangle>
                    <clip id="clip-1"/>
                  </angle>
                  <angle>
                    <activevideoangle>false</activevideoangle>
                    <activeaudioangle>false</activeaudioangle>
                    <clip id="clip-2"/>
                  </angle>
                  <angle>
                    <activevideoangle>true</activevideoangle>
                    <activeaudioangle>true</activeaudioangle>
                    <clip id="clip-3"/>
                  </angle>
                  <angle>
                    <activevideoangle>false</activevideoangle>
                    <activeaudioangle>false</activeaudioangle>
                    <clip id="clip-4"/>
                  </angle>
                  <angle>
                    <activevideoangle>false</activevideoangle>
                    <activeaudioangle>false</activeaudioangle>
                    <clip id="clip-5"/>
                  </angle>
                  <angle>
                    <activevideoangle>false</activevideoangle>
                    <activeaudioangle>false</activeaudioangle>
                    <clip id="clip-6"/>
                  </angle>
                  <angle>
                    <activevideoangle>false</activevideoangle>
                    <activeaudioangle>false</activeaudioangle>
                    <clip id="clip-7"/>
                  </angle>
                  <masterclipid>clip-master</masterclipid>
                </multiclip>
              </clipitem>
              <clipitem id="cs-916">
                <duration>203</duration>
                <rate>
                  <ntsc>false</ntsc>
                  <timebase>25</timebase>
                </rate>
                <in>41628</in>
                <out>41830</out>
                <start>41628</start>
                <end>41830</end>
                <file id="src-1"/>
                <sourcetrack>
                  <mediatype>video</mediatype>
                  <trackindex>1</trackindex>
                </sourcetrack>
                <multiclip id="mcs-916">
                  <name>MCS-916</name>
                  <masterclipid>clip-master</masterclipid>
                  <collapsed>false</collapsed>
                  <angle>
                    <activevideoangle>true</activevideoangle>
                    <activeaudioangle>true</activeaudioangle>
                    <clip id="clip-1"/>
                  </angle>
                  <angle>
                    <activevideoangle>false</activevideoangle>
                    <activeaudioangle>false</activeaudioangle>
                    <clip id="clip-2"/>
                  </angle>
                  <angle>
                    <activevideoangle>false</activevideoangle>
                    <activeaudioangle>false</activeaudioangle>
                    <clip id="clip-3"/>
                  </angle>
                  <angle>
                    <activevideoangle>false</activevideoangle>
                    <activeaudioangle>false</activeaudioangle>
                    <clip id="clip-4"/>
                  </angle>
                  <angle>
                    <activevideoangle>false</activevideoangle>
                    <activeaudioangle>false</activeaudioangle>
                    <clip id="clip-5"/>
                  </angle>
                  <angle>
                    <activevideoangle>false</activevideoangle>
                    <activeaudioangle>false</activeaudioangle>
                    <clip id="clip-6"/>
                  </angle>
                  <angle>
                    <activevideoangle>false</activevideoangle>
                    <activeaudioangle>false</activeaudioangle>
                    <clip id="clip-7"/>
                  </angle>
                  <masterclipid>clip-master</masterclipid>
                </multiclip>
              </clipitem>
              <clipitem id="cs-917">
                <duration>173</duration>
                <rate>
                  <ntsc>false</ntsc>
                  <timebase>25</timebase>
                </rate>
                <in>41830</in>
                <out>42002</out>
                <start>41830</start>
                <end>42002</end>
                <file id="src-5"/>
                <sourcetrack>
                  <mediatype>video</mediatype>
                  <trackindex>1</trackindex>
                </sourcetrack>
                <multiclip id="mcs-917">
                  <name>MCS-917</name>
                  <masterclipid>clip-master</masterclipid>
                  <collapsed>false</collapsed>
                  <angle>
                    <activevideoangle>false</activevideoangle>
                    <activeaudioangle>false</activeaudioangle>
                    <clip id="clip-1"/>
                  </angle>
                  <angle>
                    <activevideoangle>false</activevideoangle>
                    <activeaudioangle>false</activeaudioangle>
                    <clip id="clip-2"/>
                  </angle>
                  <angle>
                    <activevideoangle>false</activevideoangle>
                    <activeaudioangle>false</activeaudioangle>
                    <clip id="clip-3"/>
                  </angle>
                  <angle>
                    <activevideoangle>false</activevideoangle>
                    <activeaudioangle>false</activeaudioangle>
                    <clip id="clip-4"/>
                  </angle>
                  <angle>
                    <activevideoangle>true</activevideoangle>
                    <activeaudioangle>true</activeaudioangle>
                    <clip id="clip-5"/>
                  </angle>
                  <angle>
                    <activevideoangle>false</activevideoangle>
                    <activeaudioangle>false</activeaudioangle>
                    <clip id="clip-6"/>
                  </angle>
                  <angle>
                    <activevideoangle>false</activevideoangle>
                    <activeaudioangle>false</activeaudioangle>
                    <clip id="clip-7"/>
                  </angle>
                  <masterclipid>clip-master</masterclipid>
                </multiclip>
              </clipitem>
              <clipitem id="cs-918">
                <duration>171</duration>
                <rate>
                  <ntsc>false</ntsc>
                  <timebase>25</timebase>
                </rate>
                <in>42002</in>
                <out>42172</out>
                <start>42002</start>
                <end>42172</end>
                <file id="src-3"/>
                <sourcetrack>
                  <mediatype>video</mediatype>
                  <trackindex>1</trackindex>
                </sourcetrack>
                <multiclip id="mcs-918">
                  <name>MCS-918</name>
                  <masterclipid>clip-master</masterclipid>
                  <collapsed>false</collapsed>
                  <angle>
                    <activevideoangle>false</activevideoangle>
                    <activeaudioangle>false</activeaudioangle>
                    <clip id="clip-1"/>
                  </angle>
                  <angle>
                    <activevideoangle>false</activevideoangle>
                    <activeaudioangle>false</activeaudioangle>
                    <clip id="clip-2"/>
                  </angle>
                  <angle>
                    <activevideoangle>true</activevideoangle>
                    <activeaudioangle>true</activeaudioangle>
                    <clip id="clip-3"/>
                  </angle>
                  <angle>
                    <activevideoangle>false</activevideoangle>
                    <activeaudioangle>false</activeaudioangle>
                    <clip id="clip-4"/>
                  </angle>
                  <angle>
                    <activevideoangle>false</activevideoangle>
                    <activeaudioangle>false</activeaudioangle>
                    <clip id="clip-5"/>
                  </angle>
                  <angle>
                    <activevideoangle>false</activevideoangle>
                    <activeaudioangle>false</activeaudioangle>
                    <clip id="clip-6"/>
                  </angle>
                  <angle>
                    <activevideoangle>false</activevideoangle>
                    <activeaudioangle>false</activeaudioangle>
                    <clip id="clip-7"/>
                  </angle>
                  <masterclipid>clip-master</masterclipid>
                </multiclip>
              </clipitem>
              <clipitem id="cs-919">
                <duration>117</duration>
                <rate>
                  <ntsc>false</ntsc>
                  <timebase>25</timebase>
                </rate>
                <in>42172</in>
                <out>42288</out>
                <start>42172</start>
                <end>42288</end>
                <file id="src-1"/>
                <sourcetrack>
                  <mediatype>video</mediatype>
                  <trackindex>1</trackindex>
                </sourcetrack>
                <multiclip id="mcs-919">
                  <name>MCS-919</name>
                  <masterclipid>clip-master</masterclipid>
                  <collapsed>false</collapsed>
                  <angle>
                    <activevideoangle>true</activevideoangle>
                    <activeaudioangle>true</activeaudioangle>
                    <clip id="clip-1"/>
                  </angle>
                  <angle>
                    <activevideoangle>false</activevideoangle>
                    <activeaudioangle>false</activeaudioangle>
                    <clip id="clip-2"/>
                  </angle>
                  <angle>
                    <activevideoangle>false</activevideoangle>
                    <activeaudioangle>false</activeaudioangle>
                    <clip id="clip-3"/>
                  </angle>
                  <angle>
                    <activevideoangle>false</activevideoangle>
                    <activeaudioangle>false</activeaudioangle>
                    <clip id="clip-4"/>
                  </angle>
                  <angle>
                    <activevideoangle>false</activevideoangle>
                    <activeaudioangle>false</activeaudioangle>
                    <clip id="clip-5"/>
                  </angle>
                  <angle>
                    <activevideoangle>false</activevideoangle>
                    <activeaudioangle>false</activeaudioangle>
                    <clip id="clip-6"/>
                  </angle>
                  <angle>
                    <activevideoangle>false</activevideoangle>
                    <activeaudioangle>false</activeaudioangle>
                    <clip id="clip-7"/>
                  </angle>
                  <masterclipid>clip-master</masterclipid>
                </multiclip>
              </clipitem>
              <clipitem id="cs-920">
                <duration>184</duration>
                <rate>
                  <ntsc>false</ntsc>
                  <timebase>25</timebase>
                </rate>
                <in>42288</in>
                <out>42471</out>
                <start>42288</start>
                <end>42471</end>
                <file id="src-5"/>
                <sourcetrack>
                  <mediatype>video</mediatype>
                  <trackindex>1</trackindex>
                </sourcetrack>
                <multiclip id="mcs-920">
                  <name>MCS-920</name>
                  <masterclipid>clip-master</masterclipid>
                  <collapsed>false</collapsed>
                  <angle>
                    <activevideoangle>false</activevideoangle>
                    <activeaudioangle>false</activeaudioangle>
                    <clip id="clip-1"/>
                  </angle>
                  <angle>
                    <activevideoangle>false</activevideoangle>
                    <activeaudioangle>false</activeaudioangle>
                    <clip id="clip-2"/>
                  </angle>
                  <angle>
                    <activevideoangle>false</activevideoangle>
                    <activeaudioangle>false</activeaudioangle>
                    <clip id="clip-3"/>
                  </angle>
                  <angle>
                    <activevideoangle>false</activevideoangle>
                    <activeaudioangle>false</activeaudioangle>
                    <clip id="clip-4"/>
                  </angle>
                  <angle>
                    <activevideoangle>true</activevideoangle>
                    <activeaudioangle>true</activeaudioangle>
                    <clip id="clip-5"/>
                  </angle>
                  <angle>
                    <activevideoangle>false</activevideoangle>
                    <activeaudioangle>false</activeaudioangle>
                    <clip id="clip-6"/>
                  </angle>
                  <angle>
                    <activevideoangle>false</activevideoangle>
                    <activeaudioangle>false</activeaudioangle>
                    <clip id="clip-7"/>
                  </angle>
                  <masterclipid>clip-master</masterclipid>
                </multiclip>
              </clipitem>
              <clipitem id="cs-921">
                <duration>273</duration>
                <rate>
                  <ntsc>false</ntsc>
                  <timebase>25</timebase>
                </rate>
                <in>42471</in>
                <out>42743</out>
                <start>42471</start>
                <end>42743</end>
                <file id="src-2"/>
                <sourcetrack>
                  <mediatype>video</mediatype>
                  <trackindex>1</trackindex>
                </sourcetrack>
                <multiclip id="mcs-921">
                  <name>MCS-921</name>
                  <masterclipid>clip-master</masterclipid>
                  <collapsed>false</collapsed>
                  <angle>
                    <activevideoangle>false</activevideoangle>
                    <activeaudioangle>false</activeaudioangle>
                    <clip id="clip-1"/>
                  </angle>
                  <angle>
                    <activevideoangle>true</activevideoangle>
                    <activeaudioangle>true</activeaudioangle>
                    <clip id="clip-2"/>
                  </angle>
                  <angle>
                    <activevideoangle>false</activevideoangle>
                    <activeaudioangle>false</activeaudioangle>
                    <clip id="clip-3"/>
                  </angle>
                  <angle>
                    <activevideoangle>false</activevideoangle>
                    <activeaudioangle>false</activeaudioangle>
                    <clip id="clip-4"/>
                  </angle>
                  <angle>
                    <activevideoangle>false</activevideoangle>
                    <activeaudioangle>false</activeaudioangle>
                    <clip id="clip-5"/>
                  </angle>
                  <angle>
                    <activevideoangle>false</activevideoangle>
                    <activeaudioangle>false</activeaudioangle>
                    <clip id="clip-6"/>
                  </angle>
                  <angle>
                    <activevideoangle>false</activevideoangle>
                    <activeaudioangle>false</activeaudioangle>
                    <clip id="clip-7"/>
                  </angle>
                  <masterclipid>clip-master</masterclipid>
                </multiclip>
              </clipitem>
              <clipitem id="cs-922">
                <duration>381</duration>
                <rate>
                  <ntsc>false</ntsc>
                  <timebase>25</timebase>
                </rate>
                <in>42743</in>
                <out>43123</out>
                <start>42743</start>
                <end>43123</end>
                <file id="src-3"/>
                <sourcetrack>
                  <mediatype>video</mediatype>
                  <trackindex>1</trackindex>
                </sourcetrack>
                <multiclip id="mcs-922">
                  <name>MCS-922</name>
                  <masterclipid>clip-master</masterclipid>
                  <collapsed>false</collapsed>
                  <angle>
                    <activevideoangle>false</activevideoangle>
                    <activeaudioangle>false</activeaudioangle>
                    <clip id="clip-1"/>
                  </angle>
                  <angle>
                    <activevideoangle>false</activevideoangle>
                    <activeaudioangle>false</activeaudioangle>
                    <clip id="clip-2"/>
                  </angle>
                  <angle>
                    <activevideoangle>true</activevideoangle>
                    <activeaudioangle>true</activeaudioangle>
                    <clip id="clip-3"/>
                  </angle>
                  <angle>
                    <activevideoangle>false</activevideoangle>
                    <activeaudioangle>false</activeaudioangle>
                    <clip id="clip-4"/>
                  </angle>
                  <angle>
                    <activevideoangle>false</activevideoangle>
                    <activeaudioangle>false</activeaudioangle>
                    <clip id="clip-5"/>
                  </angle>
                  <angle>
                    <activevideoangle>false</activevideoangle>
                    <activeaudioangle>false</activeaudioangle>
                    <clip id="clip-6"/>
                  </angle>
                  <angle>
                    <activevideoangle>false</activevideoangle>
                    <activeaudioangle>false</activeaudioangle>
                    <clip id="clip-7"/>
                  </angle>
                  <masterclipid>clip-master</masterclipid>
                </multiclip>
              </clipitem>
              <clipitem id="cs-923">
                <duration>341</duration>
                <rate>
                  <ntsc>false</ntsc>
                  <timebase>25</timebase>
                </rate>
                <in>43123</in>
                <out>43463</out>
                <start>43123</start>
                <end>43463</end>
                <file id="src-4"/>
                <sourcetrack>
                  <mediatype>video</mediatype>
                  <trackindex>1</trackindex>
                </sourcetrack>
                <multiclip id="mcs-923">
                  <name>MCS-923</name>
                  <masterclipid>clip-master</masterclipid>
                  <collapsed>false</collapsed>
                  <angle>
                    <activevideoangle>false</activevideoangle>
                    <activeaudioangle>false</activeaudioangle>
                    <clip id="clip-1"/>
                  </angle>
                  <angle>
                    <activevideoangle>false</activevideoangle>
                    <activeaudioangle>false</activeaudioangle>
                    <clip id="clip-2"/>
                  </angle>
                  <angle>
                    <activevideoangle>false</activevideoangle>
                    <activeaudioangle>false</activeaudioangle>
                    <clip id="clip-3"/>
                  </angle>
                  <angle>
                    <activevideoangle>true</activevideoangle>
                    <activeaudioangle>true</activeaudioangle>
                    <clip id="clip-4"/>
                  </angle>
                  <angle>
                    <activevideoangle>false</activevideoangle>
                    <activeaudioangle>false</activeaudioangle>
                    <clip id="clip-5"/>
                  </angle>
                  <angle>
                    <activevideoangle>false</activevideoangle>
                    <activeaudioangle>false</activeaudioangle>
                    <clip id="clip-6"/>
                  </angle>
                  <angle>
                    <activevideoangle>false</activevideoangle>
                    <activeaudioangle>false</activeaudioangle>
                    <clip id="clip-7"/>
                  </angle>
                  <masterclipid>clip-master</masterclipid>
                </multiclip>
              </clipitem>
              <clipitem id="cs-924">
                <duration>116</duration>
                <rate>
                  <ntsc>false</ntsc>
                  <timebase>25</timebase>
                </rate>
                <in>43463</in>
                <out>43578</out>
                <start>43463</start>
                <end>43578</end>
                <file id="src-1"/>
                <sourcetrack>
                  <mediatype>video</mediatype>
                  <trackindex>1</trackindex>
                </sourcetrack>
                <multiclip id="mcs-924">
                  <name>MCS-924</name>
                  <masterclipid>clip-master</masterclipid>
                  <collapsed>false</collapsed>
                  <angle>
                    <activevideoangle>true</activevideoangle>
                    <activeaudioangle>true</activeaudioangle>
                    <clip id="clip-1"/>
                  </angle>
                  <angle>
                    <activevideoangle>false</activevideoangle>
                    <activeaudioangle>false</activeaudioangle>
                    <clip id="clip-2"/>
                  </angle>
                  <angle>
                    <activevideoangle>false</activevideoangle>
                    <activeaudioangle>false</activeaudioangle>
                    <clip id="clip-3"/>
                  </angle>
                  <angle>
                    <activevideoangle>false</activevideoangle>
                    <activeaudioangle>false</activeaudioangle>
                    <clip id="clip-4"/>
                  </angle>
                  <angle>
                    <activevideoangle>false</activevideoangle>
                    <activeaudioangle>false</activeaudioangle>
                    <clip id="clip-5"/>
                  </angle>
                  <angle>
                    <activevideoangle>false</activevideoangle>
                    <activeaudioangle>false</activeaudioangle>
                    <clip id="clip-6"/>
                  </angle>
                  <angle>
                    <activevideoangle>false</activevideoangle>
                    <activeaudioangle>false</activeaudioangle>
                    <clip id="clip-7"/>
                  </angle>
                  <masterclipid>clip-master</masterclipid>
                </multiclip>
              </clipitem>
              <clipitem id="cs-925">
                <duration>88</duration>
                <rate>
                  <ntsc>false</ntsc>
                  <timebase>25</timebase>
                </rate>
                <in>43578</in>
                <out>43665</out>
                <start>43578</start>
                <end>43665</end>
                <file id="src-2"/>
                <sourcetrack>
                  <mediatype>video</mediatype>
                  <trackindex>1</trackindex>
                </sourcetrack>
                <multiclip id="mcs-925">
                  <name>MCS-925</name>
                  <masterclipid>clip-master</masterclipid>
                  <collapsed>false</collapsed>
                  <angle>
                    <activevideoangle>false</activevideoangle>
                    <activeaudioangle>false</activeaudioangle>
                    <clip id="clip-1"/>
                  </angle>
                  <angle>
                    <activevideoangle>true</activevideoangle>
                    <activeaudioangle>true</activeaudioangle>
                    <clip id="clip-2"/>
                  </angle>
                  <angle>
                    <activevideoangle>false</activevideoangle>
                    <activeaudioangle>false</activeaudioangle>
                    <clip id="clip-3"/>
                  </angle>
                  <angle>
                    <activevideoangle>false</activevideoangle>
                    <activeaudioangle>false</activeaudioangle>
                    <clip id="clip-4"/>
                  </angle>
                  <angle>
                    <activevideoangle>false</activevideoangle>
                    <activeaudioangle>false</activeaudioangle>
                    <clip id="clip-5"/>
                  </angle>
                  <angle>
                    <activevideoangle>false</activevideoangle>
                    <activeaudioangle>false</activeaudioangle>
                    <clip id="clip-6"/>
                  </angle>
                  <angle>
                    <activevideoangle>false</activevideoangle>
                    <activeaudioangle>false</activeaudioangle>
                    <clip id="clip-7"/>
                  </angle>
                  <masterclipid>clip-master</masterclipid>
                </multiclip>
              </clipitem>
              <clipitem id="cs-926">
                <duration>188</duration>
                <rate>
                  <ntsc>false</ntsc>
                  <timebase>25</timebase>
                </rate>
                <in>43665</in>
                <out>43852</out>
                <start>43665</start>
                <end>43852</end>
                <file id="src-3"/>
                <sourcetrack>
                  <mediatype>video</mediatype>
                  <trackindex>1</trackindex>
                </sourcetrack>
                <multiclip id="mcs-926">
                  <name>MCS-926</name>
                  <masterclipid>clip-master</masterclipid>
                  <collapsed>false</collapsed>
                  <angle>
                    <activevideoangle>false</activevideoangle>
                    <activeaudioangle>false</activeaudioangle>
                    <clip id="clip-1"/>
                  </angle>
                  <angle>
                    <activevideoangle>false</activevideoangle>
                    <activeaudioangle>false</activeaudioangle>
                    <clip id="clip-2"/>
                  </angle>
                  <angle>
                    <activevideoangle>true</activevideoangle>
                    <activeaudioangle>true</activeaudioangle>
                    <clip id="clip-3"/>
                  </angle>
                  <angle>
                    <activevideoangle>false</activevideoangle>
                    <activeaudioangle>false</activeaudioangle>
                    <clip id="clip-4"/>
                  </angle>
                  <angle>
                    <activevideoangle>false</activevideoangle>
                    <activeaudioangle>false</activeaudioangle>
                    <clip id="clip-5"/>
                  </angle>
                  <angle>
                    <activevideoangle>false</activevideoangle>
                    <activeaudioangle>false</activeaudioangle>
                    <clip id="clip-6"/>
                  </angle>
                  <angle>
                    <activevideoangle>false</activevideoangle>
                    <activeaudioangle>false</activeaudioangle>
                    <clip id="clip-7"/>
                  </angle>
                  <masterclipid>clip-master</masterclipid>
                </multiclip>
              </clipitem>
              <clipitem id="cs-927">
                <duration>273</duration>
                <rate>
                  <ntsc>false</ntsc>
                  <timebase>25</timebase>
                </rate>
                <in>43852</in>
                <out>44124</out>
                <start>43852</start>
                <end>44124</end>
                <file id="src-5"/>
                <sourcetrack>
                  <mediatype>video</mediatype>
                  <trackindex>1</trackindex>
                </sourcetrack>
                <multiclip id="mcs-927">
                  <name>MCS-927</name>
                  <masterclipid>clip-master</masterclipid>
                  <collapsed>false</collapsed>
                  <angle>
                    <activevideoangle>false</activevideoangle>
                    <activeaudioangle>false</activeaudioangle>
                    <clip id="clip-1"/>
                  </angle>
                  <angle>
                    <activevideoangle>false</activevideoangle>
                    <activeaudioangle>false</activeaudioangle>
                    <clip id="clip-2"/>
                  </angle>
                  <angle>
                    <activevideoangle>false</activevideoangle>
                    <activeaudioangle>false</activeaudioangle>
                    <clip id="clip-3"/>
                  </angle>
                  <angle>
                    <activevideoangle>false</activevideoangle>
                    <activeaudioangle>false</activeaudioangle>
                    <clip id="clip-4"/>
                  </angle>
                  <angle>
                    <activevideoangle>true</activevideoangle>
                    <activeaudioangle>true</activeaudioangle>
                    <clip id="clip-5"/>
                  </angle>
                  <angle>
                    <activevideoangle>false</activevideoangle>
                    <activeaudioangle>false</activeaudioangle>
                    <clip id="clip-6"/>
                  </angle>
                  <angle>
                    <activevideoangle>false</activevideoangle>
                    <activeaudioangle>false</activeaudioangle>
                    <clip id="clip-7"/>
                  </angle>
                  <masterclipid>clip-master</masterclipid>
                </multiclip>
              </clipitem>
              <clipitem id="cs-928">
                <duration>354</duration>
                <rate>
                  <ntsc>false</ntsc>
                  <timebase>25</timebase>
                </rate>
                <in>44124</in>
                <out>44477</out>
                <start>44124</start>
                <end>44477</end>
                <file id="src-2"/>
                <sourcetrack>
                  <mediatype>video</mediatype>
                  <trackindex>1</trackindex>
                </sourcetrack>
                <multiclip id="mcs-928">
                  <name>MCS-928</name>
                  <masterclipid>clip-master</masterclipid>
                  <collapsed>false</collapsed>
                  <angle>
                    <activevideoangle>false</activevideoangle>
                    <activeaudioangle>false</activeaudioangle>
                    <clip id="clip-1"/>
                  </angle>
                  <angle>
                    <activevideoangle>true</activevideoangle>
                    <activeaudioangle>true</activeaudioangle>
                    <clip id="clip-2"/>
                  </angle>
                  <angle>
                    <activevideoangle>false</activevideoangle>
                    <activeaudioangle>false</activeaudioangle>
                    <clip id="clip-3"/>
                  </angle>
                  <angle>
                    <activevideoangle>false</activevideoangle>
                    <activeaudioangle>false</activeaudioangle>
                    <clip id="clip-4"/>
                  </angle>
                  <angle>
                    <activevideoangle>false</activevideoangle>
                    <activeaudioangle>false</activeaudioangle>
                    <clip id="clip-5"/>
                  </angle>
                  <angle>
                    <activevideoangle>false</activevideoangle>
                    <activeaudioangle>false</activeaudioangle>
                    <clip id="clip-6"/>
                  </angle>
                  <angle>
                    <activevideoangle>false</activevideoangle>
                    <activeaudioangle>false</activeaudioangle>
                    <clip id="clip-7"/>
                  </angle>
                  <masterclipid>clip-master</masterclipid>
                </multiclip>
              </clipitem>
              <clipitem id="cs-929">
                <duration>240</duration>
                <rate>
                  <ntsc>false</ntsc>
                  <timebase>25</timebase>
                </rate>
                <in>44477</in>
                <out>44716</out>
                <start>44477</start>
                <end>44716</end>
                <file id="src-1"/>
                <sourcetrack>
                  <mediatype>video</mediatype>
                  <trackindex>1</trackindex>
                </sourcetrack>
                <multiclip id="mcs-929">
                  <name>MCS-929</name>
                  <masterclipid>clip-master</masterclipid>
                  <collapsed>false</collapsed>
                  <angle>
                    <activevideoangle>true</activevideoangle>
                    <activeaudioangle>true</activeaudioangle>
                    <clip id="clip-1"/>
                  </angle>
                  <angle>
                    <activevideoangle>false</activevideoangle>
                    <activeaudioangle>false</activeaudioangle>
                    <clip id="clip-2"/>
                  </angle>
                  <angle>
                    <activevideoangle>false</activevideoangle>
                    <activeaudioangle>false</activeaudioangle>
                    <clip id="clip-3"/>
                  </angle>
                  <angle>
                    <activevideoangle>false</activevideoangle>
                    <activeaudioangle>false</activeaudioangle>
                    <clip id="clip-4"/>
                  </angle>
                  <angle>
                    <activevideoangle>false</activevideoangle>
                    <activeaudioangle>false</activeaudioangle>
                    <clip id="clip-5"/>
                  </angle>
                  <angle>
                    <activevideoangle>false</activevideoangle>
                    <activeaudioangle>false</activeaudioangle>
                    <clip id="clip-6"/>
                  </angle>
                  <angle>
                    <activevideoangle>false</activevideoangle>
                    <activeaudioangle>false</activeaudioangle>
                    <clip id="clip-7"/>
                  </angle>
                  <masterclipid>clip-master</masterclipid>
                </multiclip>
              </clipitem>
              <clipitem id="cs-930">
                <duration>337</duration>
                <rate>
                  <ntsc>false</ntsc>
                  <timebase>25</timebase>
                </rate>
                <in>44716</in>
                <out>45052</out>
                <start>44716</start>
                <end>45052</end>
                <file id="src-2"/>
                <sourcetrack>
                  <mediatype>video</mediatype>
                  <trackindex>1</trackindex>
                </sourcetrack>
                <multiclip id="mcs-930">
                  <name>MCS-930</name>
                  <masterclipid>clip-master</masterclipid>
                  <collapsed>false</collapsed>
                  <angle>
                    <activevideoangle>false</activevideoangle>
                    <activeaudioangle>false</activeaudioangle>
                    <clip id="clip-1"/>
                  </angle>
                  <angle>
                    <activevideoangle>true</activevideoangle>
                    <activeaudioangle>true</activeaudioangle>
                    <clip id="clip-2"/>
                  </angle>
                  <angle>
                    <activevideoangle>false</activevideoangle>
                    <activeaudioangle>false</activeaudioangle>
                    <clip id="clip-3"/>
                  </angle>
                  <angle>
                    <activevideoangle>false</activevideoangle>
                    <activeaudioangle>false</activeaudioangle>
                    <clip id="clip-4"/>
                  </angle>
                  <angle>
                    <activevideoangle>false</activevideoangle>
                    <activeaudioangle>false</activeaudioangle>
                    <clip id="clip-5"/>
                  </angle>
                  <angle>
                    <activevideoangle>false</activevideoangle>
                    <activeaudioangle>false</activeaudioangle>
                    <clip id="clip-6"/>
                  </angle>
                  <angle>
                    <activevideoangle>false</activevideoangle>
                    <activeaudioangle>false</activeaudioangle>
                    <clip id="clip-7"/>
                  </angle>
                  <masterclipid>clip-master</masterclipid>
                </multiclip>
              </clipitem>
              <clipitem id="cs-931">
                <duration>242</duration>
                <rate>
                  <ntsc>false</ntsc>
                  <timebase>25</timebase>
                </rate>
                <in>45052</in>
                <out>45293</out>
                <start>45052</start>
                <end>45293</end>
                <file id="src-3"/>
                <sourcetrack>
                  <mediatype>video</mediatype>
                  <trackindex>1</trackindex>
                </sourcetrack>
                <multiclip id="mcs-931">
                  <name>MCS-931</name>
                  <masterclipid>clip-master</masterclipid>
                  <collapsed>false</collapsed>
                  <angle>
                    <activevideoangle>false</activevideoangle>
                    <activeaudioangle>false</activeaudioangle>
                    <clip id="clip-1"/>
                  </angle>
                  <angle>
                    <activevideoangle>false</activevideoangle>
                    <activeaudioangle>false</activeaudioangle>
                    <clip id="clip-2"/>
                  </angle>
                  <angle>
                    <activevideoangle>true</activevideoangle>
                    <activeaudioangle>true</activeaudioangle>
                    <clip id="clip-3"/>
                  </angle>
                  <angle>
                    <activevideoangle>false</activevideoangle>
                    <activeaudioangle>false</activeaudioangle>
                    <clip id="clip-4"/>
                  </angle>
                  <angle>
                    <activevideoangle>false</activevideoangle>
                    <activeaudioangle>false</activeaudioangle>
                    <clip id="clip-5"/>
                  </angle>
                  <angle>
                    <activevideoangle>false</activevideoangle>
                    <activeaudioangle>false</activeaudioangle>
                    <clip id="clip-6"/>
                  </angle>
                  <angle>
                    <activevideoangle>false</activevideoangle>
                    <activeaudioangle>false</activeaudioangle>
                    <clip id="clip-7"/>
                  </angle>
                  <masterclipid>clip-master</masterclipid>
                </multiclip>
              </clipitem>
              <clipitem id="cs-932">
                <duration>303</duration>
                <rate>
                  <ntsc>false</ntsc>
                  <timebase>25</timebase>
                </rate>
                <in>45293</in>
                <out>45595</out>
                <start>45293</start>
                <end>45595</end>
                <file id="src-2"/>
                <sourcetrack>
                  <mediatype>video</mediatype>
                  <trackindex>1</trackindex>
                </sourcetrack>
                <multiclip id="mcs-932">
                  <name>MCS-932</name>
                  <masterclipid>clip-master</masterclipid>
                  <collapsed>false</collapsed>
                  <angle>
                    <activevideoangle>false</activevideoangle>
                    <activeaudioangle>false</activeaudioangle>
                    <clip id="clip-1"/>
                  </angle>
                  <angle>
                    <activevideoangle>true</activevideoangle>
                    <activeaudioangle>true</activeaudioangle>
                    <clip id="clip-2"/>
                  </angle>
                  <angle>
                    <activevideoangle>false</activevideoangle>
                    <activeaudioangle>false</activeaudioangle>
                    <clip id="clip-3"/>
                  </angle>
                  <angle>
                    <activevideoangle>false</activevideoangle>
                    <activeaudioangle>false</activeaudioangle>
                    <clip id="clip-4"/>
                  </angle>
                  <angle>
                    <activevideoangle>false</activevideoangle>
                    <activeaudioangle>false</activeaudioangle>
                    <clip id="clip-5"/>
                  </angle>
                  <angle>
                    <activevideoangle>false</activevideoangle>
                    <activeaudioangle>false</activeaudioangle>
                    <clip id="clip-6"/>
                  </angle>
                  <angle>
                    <activevideoangle>false</activevideoangle>
                    <activeaudioangle>false</activeaudioangle>
                    <clip id="clip-7"/>
                  </angle>
                  <masterclipid>clip-master</masterclipid>
                </multiclip>
              </clipitem>
              <clipitem id="cs-933">
                <duration>142</duration>
                <rate>
                  <ntsc>false</ntsc>
                  <timebase>25</timebase>
                </rate>
                <in>45595</in>
                <out>45736</out>
                <start>45595</start>
                <end>45736</end>
                <file id="src-1"/>
                <sourcetrack>
                  <mediatype>video</mediatype>
                  <trackindex>1</trackindex>
                </sourcetrack>
                <multiclip id="mcs-933">
                  <name>MCS-933</name>
                  <masterclipid>clip-master</masterclipid>
                  <collapsed>false</collapsed>
                  <angle>
                    <activevideoangle>true</activevideoangle>
                    <activeaudioangle>true</activeaudioangle>
                    <clip id="clip-1"/>
                  </angle>
                  <angle>
                    <activevideoangle>false</activevideoangle>
                    <activeaudioangle>false</activeaudioangle>
                    <clip id="clip-2"/>
                  </angle>
                  <angle>
                    <activevideoangle>false</activevideoangle>
                    <activeaudioangle>false</activeaudioangle>
                    <clip id="clip-3"/>
                  </angle>
                  <angle>
                    <activevideoangle>false</activevideoangle>
                    <activeaudioangle>false</activeaudioangle>
                    <clip id="clip-4"/>
                  </angle>
                  <angle>
                    <activevideoangle>false</activevideoangle>
                    <activeaudioangle>false</activeaudioangle>
                    <clip id="clip-5"/>
                  </angle>
                  <angle>
                    <activevideoangle>false</activevideoangle>
                    <activeaudioangle>false</activeaudioangle>
                    <clip id="clip-6"/>
                  </angle>
                  <angle>
                    <activevideoangle>false</activevideoangle>
                    <activeaudioangle>false</activeaudioangle>
                    <clip id="clip-7"/>
                  </angle>
                  <masterclipid>clip-master</masterclipid>
                </multiclip>
              </clipitem>
              <clipitem id="cs-934">
                <duration>160</duration>
                <rate>
                  <ntsc>false</ntsc>
                  <timebase>25</timebase>
                </rate>
                <in>45736</in>
                <out>45895</out>
                <start>45736</start>
                <end>45895</end>
                <file id="src-3"/>
                <sourcetrack>
                  <mediatype>video</mediatype>
                  <trackindex>1</trackindex>
                </sourcetrack>
                <multiclip id="mcs-934">
                  <name>MCS-934</name>
                  <masterclipid>clip-master</masterclipid>
                  <collapsed>false</collapsed>
                  <angle>
                    <activevideoangle>false</activevideoangle>
                    <activeaudioangle>false</activeaudioangle>
                    <clip id="clip-1"/>
                  </angle>
                  <angle>
                    <activevideoangle>false</activevideoangle>
                    <activeaudioangle>false</activeaudioangle>
                    <clip id="clip-2"/>
                  </angle>
                  <angle>
                    <activevideoangle>true</activevideoangle>
                    <activeaudioangle>true</activeaudioangle>
                    <clip id="clip-3"/>
                  </angle>
                  <angle>
                    <activevideoangle>false</activevideoangle>
                    <activeaudioangle>false</activeaudioangle>
                    <clip id="clip-4"/>
                  </angle>
                  <angle>
                    <activevideoangle>false</activevideoangle>
                    <activeaudioangle>false</activeaudioangle>
                    <clip id="clip-5"/>
                  </angle>
                  <angle>
                    <activevideoangle>false</activevideoangle>
                    <activeaudioangle>false</activeaudioangle>
                    <clip id="clip-6"/>
                  </angle>
                  <angle>
                    <activevideoangle>false</activevideoangle>
                    <activeaudioangle>false</activeaudioangle>
                    <clip id="clip-7"/>
                  </angle>
                  <masterclipid>clip-master</masterclipid>
                </multiclip>
              </clipitem>
              <clipitem id="cs-935">
                <duration>204</duration>
                <rate>
                  <ntsc>false</ntsc>
                  <timebase>25</timebase>
                </rate>
                <in>45895</in>
                <out>46098</out>
                <start>45895</start>
                <end>46098</end>
                <file id="src-1"/>
                <sourcetrack>
                  <mediatype>video</mediatype>
                  <trackindex>1</trackindex>
                </sourcetrack>
                <multiclip id="mcs-935">
                  <name>MCS-935</name>
                  <masterclipid>clip-master</masterclipid>
                  <collapsed>false</collapsed>
                  <angle>
                    <activevideoangle>true</activevideoangle>
                    <activeaudioangle>true</activeaudioangle>
                    <clip id="clip-1"/>
                  </angle>
                  <angle>
                    <activevideoangle>false</activevideoangle>
                    <activeaudioangle>false</activeaudioangle>
                    <clip id="clip-2"/>
                  </angle>
                  <angle>
                    <activevideoangle>false</activevideoangle>
                    <activeaudioangle>false</activeaudioangle>
                    <clip id="clip-3"/>
                  </angle>
                  <angle>
                    <activevideoangle>false</activevideoangle>
                    <activeaudioangle>false</activeaudioangle>
                    <clip id="clip-4"/>
                  </angle>
                  <angle>
                    <activevideoangle>false</activevideoangle>
                    <activeaudioangle>false</activeaudioangle>
                    <clip id="clip-5"/>
                  </angle>
                  <angle>
                    <activevideoangle>false</activevideoangle>
                    <activeaudioangle>false</activeaudioangle>
                    <clip id="clip-6"/>
                  </angle>
                  <angle>
                    <activevideoangle>false</activevideoangle>
                    <activeaudioangle>false</activeaudioangle>
                    <clip id="clip-7"/>
                  </angle>
                  <masterclipid>clip-master</masterclipid>
                </multiclip>
              </clipitem>
              <clipitem id="cs-936">
                <duration>325</duration>
                <rate>
                  <ntsc>false</ntsc>
                  <timebase>25</timebase>
                </rate>
                <in>46098</in>
                <out>46422</out>
                <start>46098</start>
                <end>46422</end>
                <file id="src-2"/>
                <sourcetrack>
                  <mediatype>video</mediatype>
                  <trackindex>1</trackindex>
                </sourcetrack>
                <multiclip id="mcs-936">
                  <name>MCS-936</name>
                  <masterclipid>clip-master</masterclipid>
                  <collapsed>false</collapsed>
                  <angle>
                    <activevideoangle>false</activevideoangle>
                    <activeaudioangle>false</activeaudioangle>
                    <clip id="clip-1"/>
                  </angle>
                  <angle>
                    <activevideoangle>true</activevideoangle>
                    <activeaudioangle>true</activeaudioangle>
                    <clip id="clip-2"/>
                  </angle>
                  <angle>
                    <activevideoangle>false</activevideoangle>
                    <activeaudioangle>false</activeaudioangle>
                    <clip id="clip-3"/>
                  </angle>
                  <angle>
                    <activevideoangle>false</activevideoangle>
                    <activeaudioangle>false</activeaudioangle>
                    <clip id="clip-4"/>
                  </angle>
                  <angle>
                    <activevideoangle>false</activevideoangle>
                    <activeaudioangle>false</activeaudioangle>
                    <clip id="clip-5"/>
                  </angle>
                  <angle>
                    <activevideoangle>false</activevideoangle>
                    <activeaudioangle>false</activeaudioangle>
                    <clip id="clip-6"/>
                  </angle>
                  <angle>
                    <activevideoangle>false</activevideoangle>
                    <activeaudioangle>false</activeaudioangle>
                    <clip id="clip-7"/>
                  </angle>
                  <masterclipid>clip-master</masterclipid>
                </multiclip>
              </clipitem>
              <clipitem id="cs-937">
                <duration>146</duration>
                <rate>
                  <ntsc>false</ntsc>
                  <timebase>25</timebase>
                </rate>
                <in>46422</in>
                <out>46567</out>
                <start>46422</start>
                <end>46567</end>
                <file id="src-4"/>
                <sourcetrack>
                  <mediatype>video</mediatype>
                  <trackindex>1</trackindex>
                </sourcetrack>
                <multiclip id="mcs-937">
                  <name>MCS-937</name>
                  <masterclipid>clip-master</masterclipid>
                  <collapsed>false</collapsed>
                  <angle>
                    <activevideoangle>false</activevideoangle>
                    <activeaudioangle>false</activeaudioangle>
                    <clip id="clip-1"/>
                  </angle>
                  <angle>
                    <activevideoangle>false</activevideoangle>
                    <activeaudioangle>false</activeaudioangle>
                    <clip id="clip-2"/>
                  </angle>
                  <angle>
                    <activevideoangle>false</activevideoangle>
                    <activeaudioangle>false</activeaudioangle>
                    <clip id="clip-3"/>
                  </angle>
                  <angle>
                    <activevideoangle>true</activevideoangle>
                    <activeaudioangle>true</activeaudioangle>
                    <clip id="clip-4"/>
                  </angle>
                  <angle>
                    <activevideoangle>false</activevideoangle>
                    <activeaudioangle>false</activeaudioangle>
                    <clip id="clip-5"/>
                  </angle>
                  <angle>
                    <activevideoangle>false</activevideoangle>
                    <activeaudioangle>false</activeaudioangle>
                    <clip id="clip-6"/>
                  </angle>
                  <angle>
                    <activevideoangle>false</activevideoangle>
                    <activeaudioangle>false</activeaudioangle>
                    <clip id="clip-7"/>
                  </angle>
                  <masterclipid>clip-master</masterclipid>
                </multiclip>
              </clipitem>
              <clipitem id="cs-938">
                <duration>906</duration>
                <rate>
                  <ntsc>false</ntsc>
                  <timebase>25</timebase>
                </rate>
                <in>46567</in>
                <out>47472</out>
                <start>46567</start>
                <end>47472</end>
                <file id="src-1"/>
                <sourcetrack>
                  <mediatype>video</mediatype>
                  <trackindex>1</trackindex>
                </sourcetrack>
                <multiclip id="mcs-938">
                  <name>MCS-938</name>
                  <masterclipid>clip-master</masterclipid>
                  <collapsed>false</collapsed>
                  <angle>
                    <activevideoangle>true</activevideoangle>
                    <activeaudioangle>true</activeaudioangle>
                    <clip id="clip-1"/>
                  </angle>
                  <angle>
                    <activevideoangle>false</activevideoangle>
                    <activeaudioangle>false</activeaudioangle>
                    <clip id="clip-2"/>
                  </angle>
                  <angle>
                    <activevideoangle>false</activevideoangle>
                    <activeaudioangle>false</activeaudioangle>
                    <clip id="clip-3"/>
                  </angle>
                  <angle>
                    <activevideoangle>false</activevideoangle>
                    <activeaudioangle>false</activeaudioangle>
                    <clip id="clip-4"/>
                  </angle>
                  <angle>
                    <activevideoangle>false</activevideoangle>
                    <activeaudioangle>false</activeaudioangle>
                    <clip id="clip-5"/>
                  </angle>
                  <angle>
                    <activevideoangle>false</activevideoangle>
                    <activeaudioangle>false</activeaudioangle>
                    <clip id="clip-6"/>
                  </angle>
                  <angle>
                    <activevideoangle>false</activevideoangle>
                    <activeaudioangle>false</activeaudioangle>
                    <clip id="clip-7"/>
                  </angle>
                  <masterclipid>clip-master</masterclipid>
                </multiclip>
              </clipitem>
              <clipitem id="cs-939">
                <duration>367</duration>
                <rate>
                  <ntsc>false</ntsc>
                  <timebase>25</timebase>
                </rate>
                <in>47472</in>
                <out>47838</out>
                <start>47472</start>
                <end>47838</end>
                <file id="src-4"/>
                <sourcetrack>
                  <mediatype>video</mediatype>
                  <trackindex>1</trackindex>
                </sourcetrack>
                <multiclip id="mcs-939">
                  <name>MCS-939</name>
                  <masterclipid>clip-master</masterclipid>
                  <collapsed>false</collapsed>
                  <angle>
                    <activevideoangle>false</activevideoangle>
                    <activeaudioangle>false</activeaudioangle>
                    <clip id="clip-1"/>
                  </angle>
                  <angle>
                    <activevideoangle>false</activevideoangle>
                    <activeaudioangle>false</activeaudioangle>
                    <clip id="clip-2"/>
                  </angle>
                  <angle>
                    <activevideoangle>false</activevideoangle>
                    <activeaudioangle>false</activeaudioangle>
                    <clip id="clip-3"/>
                  </angle>
                  <angle>
                    <activevideoangle>true</activevideoangle>
                    <activeaudioangle>true</activeaudioangle>
                    <clip id="clip-4"/>
                  </angle>
                  <angle>
                    <activevideoangle>false</activevideoangle>
                    <activeaudioangle>false</activeaudioangle>
                    <clip id="clip-5"/>
                  </angle>
                  <angle>
                    <activevideoangle>false</activevideoangle>
                    <activeaudioangle>false</activeaudioangle>
                    <clip id="clip-6"/>
                  </angle>
                  <angle>
                    <activevideoangle>false</activevideoangle>
                    <activeaudioangle>false</activeaudioangle>
                    <clip id="clip-7"/>
                  </angle>
                  <masterclipid>clip-master</masterclipid>
                </multiclip>
              </clipitem>
              <clipitem id="cs-940">
                <duration>248</duration>
                <rate>
                  <ntsc>false</ntsc>
                  <timebase>25</timebase>
                </rate>
                <in>47838</in>
                <out>48085</out>
                <start>47838</start>
                <end>48085</end>
                <file id="src-3"/>
                <sourcetrack>
                  <mediatype>video</mediatype>
                  <trackindex>1</trackindex>
                </sourcetrack>
                <multiclip id="mcs-940">
                  <name>MCS-940</name>
                  <masterclipid>clip-master</masterclipid>
                  <collapsed>false</collapsed>
                  <angle>
                    <activevideoangle>false</activevideoangle>
                    <activeaudioangle>false</activeaudioangle>
                    <clip id="clip-1"/>
                  </angle>
                  <angle>
                    <activevideoangle>false</activevideoangle>
                    <activeaudioangle>false</activeaudioangle>
                    <clip id="clip-2"/>
                  </angle>
                  <angle>
                    <activevideoangle>true</activevideoangle>
                    <activeaudioangle>true</activeaudioangle>
                    <clip id="clip-3"/>
                  </angle>
                  <angle>
                    <activevideoangle>false</activevideoangle>
                    <activeaudioangle>false</activeaudioangle>
                    <clip id="clip-4"/>
                  </angle>
                  <angle>
                    <activevideoangle>false</activevideoangle>
                    <activeaudioangle>false</activeaudioangle>
                    <clip id="clip-5"/>
                  </angle>
                  <angle>
                    <activevideoangle>false</activevideoangle>
                    <activeaudioangle>false</activeaudioangle>
                    <clip id="clip-6"/>
                  </angle>
                  <angle>
                    <activevideoangle>false</activevideoangle>
                    <activeaudioangle>false</activeaudioangle>
                    <clip id="clip-7"/>
                  </angle>
                  <masterclipid>clip-master</masterclipid>
                </multiclip>
              </clipitem>
              <clipitem id="cs-941">
                <duration>214</duration>
                <rate>
                  <ntsc>false</ntsc>
                  <timebase>25</timebase>
                </rate>
                <in>48085</in>
                <out>48298</out>
                <start>48085</start>
                <end>48298</end>
                <file id="src-2"/>
                <sourcetrack>
                  <mediatype>video</mediatype>
                  <trackindex>1</trackindex>
                </sourcetrack>
                <multiclip id="mcs-941">
                  <name>MCS-941</name>
                  <masterclipid>clip-master</masterclipid>
                  <collapsed>false</collapsed>
                  <angle>
                    <activevideoangle>false</activevideoangle>
                    <activeaudioangle>false</activeaudioangle>
                    <clip id="clip-1"/>
                  </angle>
                  <angle>
                    <activevideoangle>true</activevideoangle>
                    <activeaudioangle>true</activeaudioangle>
                    <clip id="clip-2"/>
                  </angle>
                  <angle>
                    <activevideoangle>false</activevideoangle>
                    <activeaudioangle>false</activeaudioangle>
                    <clip id="clip-3"/>
                  </angle>
                  <angle>
                    <activevideoangle>false</activevideoangle>
                    <activeaudioangle>false</activeaudioangle>
                    <clip id="clip-4"/>
                  </angle>
                  <angle>
                    <activevideoangle>false</activevideoangle>
                    <activeaudioangle>false</activeaudioangle>
                    <clip id="clip-5"/>
                  </angle>
                  <angle>
                    <activevideoangle>false</activevideoangle>
                    <activeaudioangle>false</activeaudioangle>
                    <clip id="clip-6"/>
                  </angle>
                  <angle>
                    <activevideoangle>false</activevideoangle>
                    <activeaudioangle>false</activeaudioangle>
                    <clip id="clip-7"/>
                  </angle>
                  <masterclipid>clip-master</masterclipid>
                </multiclip>
              </clipitem>
              <clipitem id="cs-942">
                <duration>124</duration>
                <rate>
                  <ntsc>false</ntsc>
                  <timebase>25</timebase>
                </rate>
                <in>48298</in>
                <out>48421</out>
                <start>48298</start>
                <end>48421</end>
                <file id="src-6"/>
                <sourcetrack>
                  <mediatype>video</mediatype>
                  <trackindex>1</trackindex>
                </sourcetrack>
                <multiclip id="mcs-942">
                  <name>MCS-942</name>
                  <masterclipid>clip-master</masterclipid>
                  <collapsed>false</collapsed>
                  <angle>
                    <activevideoangle>false</activevideoangle>
                    <activeaudioangle>false</activeaudioangle>
                    <clip id="clip-1"/>
                  </angle>
                  <angle>
                    <activevideoangle>false</activevideoangle>
                    <activeaudioangle>false</activeaudioangle>
                    <clip id="clip-2"/>
                  </angle>
                  <angle>
                    <activevideoangle>false</activevideoangle>
                    <activeaudioangle>false</activeaudioangle>
                    <clip id="clip-3"/>
                  </angle>
                  <angle>
                    <activevideoangle>false</activevideoangle>
                    <activeaudioangle>false</activeaudioangle>
                    <clip id="clip-4"/>
                  </angle>
                  <angle>
                    <activevideoangle>false</activevideoangle>
                    <activeaudioangle>false</activeaudioangle>
                    <clip id="clip-5"/>
                  </angle>
                  <angle>
                    <activevideoangle>true</activevideoangle>
                    <activeaudioangle>true</activeaudioangle>
                    <clip id="clip-6"/>
                  </angle>
                  <angle>
                    <activevideoangle>false</activevideoangle>
                    <activeaudioangle>false</activeaudioangle>
                    <clip id="clip-7"/>
                  </angle>
                  <masterclipid>clip-master</masterclipid>
                </multiclip>
              </clipitem>
              <clipitem id="cs-943">
                <duration>518</duration>
                <rate>
                  <ntsc>false</ntsc>
                  <timebase>25</timebase>
                </rate>
                <in>48421</in>
                <out>48938</out>
                <start>48421</start>
                <end>48938</end>
                <file id="src-3"/>
                <sourcetrack>
                  <mediatype>video</mediatype>
                  <trackindex>1</trackindex>
                </sourcetrack>
                <multiclip id="mcs-943">
                  <name>MCS-943</name>
                  <masterclipid>clip-master</masterclipid>
                  <collapsed>false</collapsed>
                  <angle>
                    <activevideoangle>false</activevideoangle>
                    <activeaudioangle>false</activeaudioangle>
                    <clip id="clip-1"/>
                  </angle>
                  <angle>
                    <activevideoangle>false</activevideoangle>
                    <activeaudioangle>false</activeaudioangle>
                    <clip id="clip-2"/>
                  </angle>
                  <angle>
                    <activevideoangle>true</activevideoangle>
                    <activeaudioangle>true</activeaudioangle>
                    <clip id="clip-3"/>
                  </angle>
                  <angle>
                    <activevideoangle>false</activevideoangle>
                    <activeaudioangle>false</activeaudioangle>
                    <clip id="clip-4"/>
                  </angle>
                  <angle>
                    <activevideoangle>false</activevideoangle>
                    <activeaudioangle>false</activeaudioangle>
                    <clip id="clip-5"/>
                  </angle>
                  <angle>
                    <activevideoangle>false</activevideoangle>
                    <activeaudioangle>false</activeaudioangle>
                    <clip id="clip-6"/>
                  </angle>
                  <angle>
                    <activevideoangle>false</activevideoangle>
                    <activeaudioangle>false</activeaudioangle>
                    <clip id="clip-7"/>
                  </angle>
                  <masterclipid>clip-master</masterclipid>
                </multiclip>
              </clipitem>
              <clipitem id="cs-944">
                <duration>284</duration>
                <rate>
                  <ntsc>false</ntsc>
                  <timebase>25</timebase>
                </rate>
                <in>48938</in>
                <out>49221</out>
                <start>48938</start>
                <end>49221</end>
                <file id="src-4"/>
                <sourcetrack>
                  <mediatype>video</mediatype>
                  <trackindex>1</trackindex>
                </sourcetrack>
                <multiclip id="mcs-944">
                  <name>MCS-944</name>
                  <masterclipid>clip-master</masterclipid>
                  <collapsed>false</collapsed>
                  <angle>
                    <activevideoangle>false</activevideoangle>
                    <activeaudioangle>false</activeaudioangle>
                    <clip id="clip-1"/>
                  </angle>
                  <angle>
                    <activevideoangle>false</activevideoangle>
                    <activeaudioangle>false</activeaudioangle>
                    <clip id="clip-2"/>
                  </angle>
                  <angle>
                    <activevideoangle>false</activevideoangle>
                    <activeaudioangle>false</activeaudioangle>
                    <clip id="clip-3"/>
                  </angle>
                  <angle>
                    <activevideoangle>true</activevideoangle>
                    <activeaudioangle>true</activeaudioangle>
                    <clip id="clip-4"/>
                  </angle>
                  <angle>
                    <activevideoangle>false</activevideoangle>
                    <activeaudioangle>false</activeaudioangle>
                    <clip id="clip-5"/>
                  </angle>
                  <angle>
                    <activevideoangle>false</activevideoangle>
                    <activeaudioangle>false</activeaudioangle>
                    <clip id="clip-6"/>
                  </angle>
                  <angle>
                    <activevideoangle>false</activevideoangle>
                    <activeaudioangle>false</activeaudioangle>
                    <clip id="clip-7"/>
                  </angle>
                  <masterclipid>clip-master</masterclipid>
                </multiclip>
              </clipitem>
              <clipitem id="cs-945">
                <duration>209</duration>
                <rate>
                  <ntsc>false</ntsc>
                  <timebase>25</timebase>
                </rate>
                <in>49221</in>
                <out>49429</out>
                <start>49221</start>
                <end>49429</end>
                <file id="src-3"/>
                <sourcetrack>
                  <mediatype>video</mediatype>
                  <trackindex>1</trackindex>
                </sourcetrack>
                <multiclip id="mcs-945">
                  <name>MCS-945</name>
                  <masterclipid>clip-master</masterclipid>
                  <collapsed>false</collapsed>
                  <angle>
                    <activevideoangle>false</activevideoangle>
                    <activeaudioangle>false</activeaudioangle>
                    <clip id="clip-1"/>
                  </angle>
                  <angle>
                    <activevideoangle>false</activevideoangle>
                    <activeaudioangle>false</activeaudioangle>
                    <clip id="clip-2"/>
                  </angle>
                  <angle>
                    <activevideoangle>true</activevideoangle>
                    <activeaudioangle>true</activeaudioangle>
                    <clip id="clip-3"/>
                  </angle>
                  <angle>
                    <activevideoangle>false</activevideoangle>
                    <activeaudioangle>false</activeaudioangle>
                    <clip id="clip-4"/>
                  </angle>
                  <angle>
                    <activevideoangle>false</activevideoangle>
                    <activeaudioangle>false</activeaudioangle>
                    <clip id="clip-5"/>
                  </angle>
                  <angle>
                    <activevideoangle>false</activevideoangle>
                    <activeaudioangle>false</activeaudioangle>
                    <clip id="clip-6"/>
                  </angle>
                  <angle>
                    <activevideoangle>false</activevideoangle>
                    <activeaudioangle>false</activeaudioangle>
                    <clip id="clip-7"/>
                  </angle>
                  <masterclipid>clip-master</masterclipid>
                </multiclip>
              </clipitem>
              <clipitem id="cs-946">
                <duration>240</duration>
                <rate>
                  <ntsc>false</ntsc>
                  <timebase>25</timebase>
                </rate>
                <in>49429</in>
                <out>49668</out>
                <start>49429</start>
                <end>49668</end>
                <file id="src-6"/>
                <sourcetrack>
                  <mediatype>video</mediatype>
                  <trackindex>1</trackindex>
                </sourcetrack>
                <multiclip id="mcs-946">
                  <name>MCS-946</name>
                  <masterclipid>clip-master</masterclipid>
                  <collapsed>false</collapsed>
                  <angle>
                    <activevideoangle>false</activevideoangle>
                    <activeaudioangle>false</activeaudioangle>
                    <clip id="clip-1"/>
                  </angle>
                  <angle>
                    <activevideoangle>false</activevideoangle>
                    <activeaudioangle>false</activeaudioangle>
                    <clip id="clip-2"/>
                  </angle>
                  <angle>
                    <activevideoangle>false</activevideoangle>
                    <activeaudioangle>false</activeaudioangle>
                    <clip id="clip-3"/>
                  </angle>
                  <angle>
                    <activevideoangle>false</activevideoangle>
                    <activeaudioangle>false</activeaudioangle>
                    <clip id="clip-4"/>
                  </angle>
                  <angle>
                    <activevideoangle>false</activevideoangle>
                    <activeaudioangle>false</activeaudioangle>
                    <clip id="clip-5"/>
                  </angle>
                  <angle>
                    <activevideoangle>true</activevideoangle>
                    <activeaudioangle>true</activeaudioangle>
                    <clip id="clip-6"/>
                  </angle>
                  <angle>
                    <activevideoangle>false</activevideoangle>
                    <activeaudioangle>false</activeaudioangle>
                    <clip id="clip-7"/>
                  </angle>
                  <masterclipid>clip-master</masterclipid>
                </multiclip>
              </clipitem>
              <clipitem id="cs-947">
                <duration>126</duration>
                <rate>
                  <ntsc>false</ntsc>
                  <timebase>25</timebase>
                </rate>
                <in>49668</in>
                <out>49793</out>
                <start>49668</start>
                <end>49793</end>
                <file id="src-4"/>
                <sourcetrack>
                  <mediatype>video</mediatype>
                  <trackindex>1</trackindex>
                </sourcetrack>
                <multiclip id="mcs-947">
                  <name>MCS-947</name>
                  <masterclipid>clip-master</masterclipid>
                  <collapsed>false</collapsed>
                  <angle>
                    <activevideoangle>false</activevideoangle>
                    <activeaudioangle>false</activeaudioangle>
                    <clip id="clip-1"/>
                  </angle>
                  <angle>
                    <activevideoangle>false</activevideoangle>
                    <activeaudioangle>false</activeaudioangle>
                    <clip id="clip-2"/>
                  </angle>
                  <angle>
                    <activevideoangle>false</activevideoangle>
                    <activeaudioangle>false</activeaudioangle>
                    <clip id="clip-3"/>
                  </angle>
                  <angle>
                    <activevideoangle>true</activevideoangle>
                    <activeaudioangle>true</activeaudioangle>
                    <clip id="clip-4"/>
                  </angle>
                  <angle>
                    <activevideoangle>false</activevideoangle>
                    <activeaudioangle>false</activeaudioangle>
                    <clip id="clip-5"/>
                  </angle>
                  <angle>
                    <activevideoangle>false</activevideoangle>
                    <activeaudioangle>false</activeaudioangle>
                    <clip id="clip-6"/>
                  </angle>
                  <angle>
                    <activevideoangle>false</activevideoangle>
                    <activeaudioangle>false</activeaudioangle>
                    <clip id="clip-7"/>
                  </angle>
                  <masterclipid>clip-master</masterclipid>
                </multiclip>
              </clipitem>
              <clipitem id="cs-948">
                <duration>271</duration>
                <rate>
                  <ntsc>false</ntsc>
                  <timebase>25</timebase>
                </rate>
                <in>49793</in>
                <out>50063</out>
                <start>49793</start>
                <end>50063</end>
                <file id="src-3"/>
                <sourcetrack>
                  <mediatype>video</mediatype>
                  <trackindex>1</trackindex>
                </sourcetrack>
                <multiclip id="mcs-948">
                  <name>MCS-948</name>
                  <masterclipid>clip-master</masterclipid>
                  <collapsed>false</collapsed>
                  <angle>
                    <activevideoangle>false</activevideoangle>
                    <activeaudioangle>false</activeaudioangle>
                    <clip id="clip-1"/>
                  </angle>
                  <angle>
                    <activevideoangle>false</activevideoangle>
                    <activeaudioangle>false</activeaudioangle>
                    <clip id="clip-2"/>
                  </angle>
                  <angle>
                    <activevideoangle>true</activevideoangle>
                    <activeaudioangle>true</activeaudioangle>
                    <clip id="clip-3"/>
                  </angle>
                  <angle>
                    <activevideoangle>false</activevideoangle>
                    <activeaudioangle>false</activeaudioangle>
                    <clip id="clip-4"/>
                  </angle>
                  <angle>
                    <activevideoangle>false</activevideoangle>
                    <activeaudioangle>false</activeaudioangle>
                    <clip id="clip-5"/>
                  </angle>
                  <angle>
                    <activevideoangle>false</activevideoangle>
                    <activeaudioangle>false</activeaudioangle>
                    <clip id="clip-6"/>
                  </angle>
                  <angle>
                    <activevideoangle>false</activevideoangle>
                    <activeaudioangle>false</activeaudioangle>
                    <clip id="clip-7"/>
                  </angle>
                  <masterclipid>clip-master</masterclipid>
                </multiclip>
              </clipitem>
              <clipitem id="cs-949">
                <duration>220</duration>
                <rate>
                  <ntsc>false</ntsc>
                  <timebase>25</timebase>
                </rate>
                <in>50063</in>
                <out>50282</out>
                <start>50063</start>
                <end>50282</end>
                <file id="src-2"/>
                <sourcetrack>
                  <mediatype>video</mediatype>
                  <trackindex>1</trackindex>
                </sourcetrack>
                <multiclip id="mcs-949">
                  <name>MCS-949</name>
                  <masterclipid>clip-master</masterclipid>
                  <collapsed>false</collapsed>
                  <angle>
                    <activevideoangle>false</activevideoangle>
                    <activeaudioangle>false</activeaudioangle>
                    <clip id="clip-1"/>
                  </angle>
                  <angle>
                    <activevideoangle>true</activevideoangle>
                    <activeaudioangle>true</activeaudioangle>
                    <clip id="clip-2"/>
                  </angle>
                  <angle>
                    <activevideoangle>false</activevideoangle>
                    <activeaudioangle>false</activeaudioangle>
                    <clip id="clip-3"/>
                  </angle>
                  <angle>
                    <activevideoangle>false</activevideoangle>
                    <activeaudioangle>false</activeaudioangle>
                    <clip id="clip-4"/>
                  </angle>
                  <angle>
                    <activevideoangle>false</activevideoangle>
                    <activeaudioangle>false</activeaudioangle>
                    <clip id="clip-5"/>
                  </angle>
                  <angle>
                    <activevideoangle>false</activevideoangle>
                    <activeaudioangle>false</activeaudioangle>
                    <clip id="clip-6"/>
                  </angle>
                  <angle>
                    <activevideoangle>false</activevideoangle>
                    <activeaudioangle>false</activeaudioangle>
                    <clip id="clip-7"/>
                  </angle>
                  <masterclipid>clip-master</masterclipid>
                </multiclip>
              </clipitem>
              <clipitem id="cs-950">
                <duration>215</duration>
                <rate>
                  <ntsc>false</ntsc>
                  <timebase>25</timebase>
                </rate>
                <in>50282</in>
                <out>50496</out>
                <start>50282</start>
                <end>50496</end>
                <file id="src-3"/>
                <sourcetrack>
                  <mediatype>video</mediatype>
                  <trackindex>1</trackindex>
                </sourcetrack>
                <multiclip id="mcs-950">
                  <name>MCS-950</name>
                  <masterclipid>clip-master</masterclipid>
                  <collapsed>false</collapsed>
                  <angle>
                    <activevideoangle>false</activevideoangle>
                    <activeaudioangle>false</activeaudioangle>
                    <clip id="clip-1"/>
                  </angle>
                  <angle>
                    <activevideoangle>false</activevideoangle>
                    <activeaudioangle>false</activeaudioangle>
                    <clip id="clip-2"/>
                  </angle>
                  <angle>
                    <activevideoangle>true</activevideoangle>
                    <activeaudioangle>true</activeaudioangle>
                    <clip id="clip-3"/>
                  </angle>
                  <angle>
                    <activevideoangle>false</activevideoangle>
                    <activeaudioangle>false</activeaudioangle>
                    <clip id="clip-4"/>
                  </angle>
                  <angle>
                    <activevideoangle>false</activevideoangle>
                    <activeaudioangle>false</activeaudioangle>
                    <clip id="clip-5"/>
                  </angle>
                  <angle>
                    <activevideoangle>false</activevideoangle>
                    <activeaudioangle>false</activeaudioangle>
                    <clip id="clip-6"/>
                  </angle>
                  <angle>
                    <activevideoangle>false</activevideoangle>
                    <activeaudioangle>false</activeaudioangle>
                    <clip id="clip-7"/>
                  </angle>
                  <masterclipid>clip-master</masterclipid>
                </multiclip>
              </clipitem>
              <clipitem id="cs-951">
                <duration>130</duration>
                <rate>
                  <ntsc>false</ntsc>
                  <timebase>25</timebase>
                </rate>
                <in>50496</in>
                <out>50625</out>
                <start>50496</start>
                <end>50625</end>
                <file id="src-4"/>
                <sourcetrack>
                  <mediatype>video</mediatype>
                  <trackindex>1</trackindex>
                </sourcetrack>
                <multiclip id="mcs-951">
                  <name>MCS-951</name>
                  <masterclipid>clip-master</masterclipid>
                  <collapsed>false</collapsed>
                  <angle>
                    <activevideoangle>false</activevideoangle>
                    <activeaudioangle>false</activeaudioangle>
                    <clip id="clip-1"/>
                  </angle>
                  <angle>
                    <activevideoangle>false</activevideoangle>
                    <activeaudioangle>false</activeaudioangle>
                    <clip id="clip-2"/>
                  </angle>
                  <angle>
                    <activevideoangle>false</activevideoangle>
                    <activeaudioangle>false</activeaudioangle>
                    <clip id="clip-3"/>
                  </angle>
                  <angle>
                    <activevideoangle>true</activevideoangle>
                    <activeaudioangle>true</activeaudioangle>
                    <clip id="clip-4"/>
                  </angle>
                  <angle>
                    <activevideoangle>false</activevideoangle>
                    <activeaudioangle>false</activeaudioangle>
                    <clip id="clip-5"/>
                  </angle>
                  <angle>
                    <activevideoangle>false</activevideoangle>
                    <activeaudioangle>false</activeaudioangle>
                    <clip id="clip-6"/>
                  </angle>
                  <angle>
                    <activevideoangle>false</activevideoangle>
                    <activeaudioangle>false</activeaudioangle>
                    <clip id="clip-7"/>
                  </angle>
                  <masterclipid>clip-master</masterclipid>
                </multiclip>
              </clipitem>
              <clipitem id="cs-952">
                <duration>567</duration>
                <rate>
                  <ntsc>false</ntsc>
                  <timebase>25</timebase>
                </rate>
                <in>50625</in>
                <out>51191</out>
                <start>50625</start>
                <end>51191</end>
                <file id="src-1"/>
                <sourcetrack>
                  <mediatype>video</mediatype>
                  <trackindex>1</trackindex>
                </sourcetrack>
                <multiclip id="mcs-952">
                  <name>MCS-952</name>
                  <masterclipid>clip-master</masterclipid>
                  <collapsed>false</collapsed>
                  <angle>
                    <activevideoangle>true</activevideoangle>
                    <activeaudioangle>true</activeaudioangle>
                    <clip id="clip-1"/>
                  </angle>
                  <angle>
                    <activevideoangle>false</activevideoangle>
                    <activeaudioangle>false</activeaudioangle>
                    <clip id="clip-2"/>
                  </angle>
                  <angle>
                    <activevideoangle>false</activevideoangle>
                    <activeaudioangle>false</activeaudioangle>
                    <clip id="clip-3"/>
                  </angle>
                  <angle>
                    <activevideoangle>false</activevideoangle>
                    <activeaudioangle>false</activeaudioangle>
                    <clip id="clip-4"/>
                  </angle>
                  <angle>
                    <activevideoangle>false</activevideoangle>
                    <activeaudioangle>false</activeaudioangle>
                    <clip id="clip-5"/>
                  </angle>
                  <angle>
                    <activevideoangle>false</activevideoangle>
                    <activeaudioangle>false</activeaudioangle>
                    <clip id="clip-6"/>
                  </angle>
                  <angle>
                    <activevideoangle>false</activevideoangle>
                    <activeaudioangle>false</activeaudioangle>
                    <clip id="clip-7"/>
                  </angle>
                  <masterclipid>clip-master</masterclipid>
                </multiclip>
              </clipitem>
              <clipitem id="cs-953">
                <duration>354</duration>
                <rate>
                  <ntsc>false</ntsc>
                  <timebase>25</timebase>
                </rate>
                <in>51191</in>
                <out>51544</out>
                <start>51191</start>
                <end>51544</end>
                <file id="src-6"/>
                <sourcetrack>
                  <mediatype>video</mediatype>
                  <trackindex>1</trackindex>
                </sourcetrack>
                <multiclip id="mcs-953">
                  <name>MCS-953</name>
                  <masterclipid>clip-master</masterclipid>
                  <collapsed>false</collapsed>
                  <angle>
                    <activevideoangle>false</activevideoangle>
                    <activeaudioangle>false</activeaudioangle>
                    <clip id="clip-1"/>
                  </angle>
                  <angle>
                    <activevideoangle>false</activevideoangle>
                    <activeaudioangle>false</activeaudioangle>
                    <clip id="clip-2"/>
                  </angle>
                  <angle>
                    <activevideoangle>false</activevideoangle>
                    <activeaudioangle>false</activeaudioangle>
                    <clip id="clip-3"/>
                  </angle>
                  <angle>
                    <activevideoangle>false</activevideoangle>
                    <activeaudioangle>false</activeaudioangle>
                    <clip id="clip-4"/>
                  </angle>
                  <angle>
                    <activevideoangle>false</activevideoangle>
                    <activeaudioangle>false</activeaudioangle>
                    <clip id="clip-5"/>
                  </angle>
                  <angle>
                    <activevideoangle>true</activevideoangle>
                    <activeaudioangle>true</activeaudioangle>
                    <clip id="clip-6"/>
                  </angle>
                  <angle>
                    <activevideoangle>false</activevideoangle>
                    <activeaudioangle>false</activeaudioangle>
                    <clip id="clip-7"/>
                  </angle>
                  <masterclipid>clip-master</masterclipid>
                </multiclip>
              </clipitem>
              <clipitem id="cs-954">
                <duration>533</duration>
                <rate>
                  <ntsc>false</ntsc>
                  <timebase>25</timebase>
                </rate>
                <in>51544</in>
                <out>52076</out>
                <start>51544</start>
                <end>52076</end>
                <file id="src-2"/>
                <sourcetrack>
                  <mediatype>video</mediatype>
                  <trackindex>1</trackindex>
                </sourcetrack>
                <multiclip id="mcs-954">
                  <name>MCS-954</name>
                  <masterclipid>clip-master</masterclipid>
                  <collapsed>false</collapsed>
                  <angle>
                    <activevideoangle>false</activevideoangle>
                    <activeaudioangle>false</activeaudioangle>
                    <clip id="clip-1"/>
                  </angle>
                  <angle>
                    <activevideoangle>true</activevideoangle>
                    <activeaudioangle>true</activeaudioangle>
                    <clip id="clip-2"/>
                  </angle>
                  <angle>
                    <activevideoangle>false</activevideoangle>
                    <activeaudioangle>false</activeaudioangle>
                    <clip id="clip-3"/>
                  </angle>
                  <angle>
                    <activevideoangle>false</activevideoangle>
                    <activeaudioangle>false</activeaudioangle>
                    <clip id="clip-4"/>
                  </angle>
                  <angle>
                    <activevideoangle>false</activevideoangle>
                    <activeaudioangle>false</activeaudioangle>
                    <clip id="clip-5"/>
                  </angle>
                  <angle>
                    <activevideoangle>false</activevideoangle>
                    <activeaudioangle>false</activeaudioangle>
                    <clip id="clip-6"/>
                  </angle>
                  <angle>
                    <activevideoangle>false</activevideoangle>
                    <activeaudioangle>false</activeaudioangle>
                    <clip id="clip-7"/>
                  </angle>
                  <masterclipid>clip-master</masterclipid>
                </multiclip>
              </clipitem>
              <clipitem id="cs-955">
                <duration>477</duration>
                <rate>
                  <ntsc>false</ntsc>
                  <timebase>25</timebase>
                </rate>
                <in>52076</in>
                <out>52552</out>
                <start>52076</start>
                <end>52552</end>
                <file id="src-4"/>
                <sourcetrack>
                  <mediatype>video</mediatype>
                  <trackindex>1</trackindex>
                </sourcetrack>
                <multiclip id="mcs-955">
                  <name>MCS-955</name>
                  <masterclipid>clip-master</masterclipid>
                  <collapsed>false</collapsed>
                  <angle>
                    <activevideoangle>false</activevideoangle>
                    <activeaudioangle>false</activeaudioangle>
                    <clip id="clip-1"/>
                  </angle>
                  <angle>
                    <activevideoangle>false</activevideoangle>
                    <activeaudioangle>false</activeaudioangle>
                    <clip id="clip-2"/>
                  </angle>
                  <angle>
                    <activevideoangle>false</activevideoangle>
                    <activeaudioangle>false</activeaudioangle>
                    <clip id="clip-3"/>
                  </angle>
                  <angle>
                    <activevideoangle>true</activevideoangle>
                    <activeaudioangle>true</activeaudioangle>
                    <clip id="clip-4"/>
                  </angle>
                  <angle>
                    <activevideoangle>false</activevideoangle>
                    <activeaudioangle>false</activeaudioangle>
                    <clip id="clip-5"/>
                  </angle>
                  <angle>
                    <activevideoangle>false</activevideoangle>
                    <activeaudioangle>false</activeaudioangle>
                    <clip id="clip-6"/>
                  </angle>
                  <angle>
                    <activevideoangle>false</activevideoangle>
                    <activeaudioangle>false</activeaudioangle>
                    <clip id="clip-7"/>
                  </angle>
                  <masterclipid>clip-master</masterclipid>
                </multiclip>
              </clipitem>
              <clipitem id="cs-956">
                <duration>232</duration>
                <rate>
                  <ntsc>false</ntsc>
                  <timebase>25</timebase>
                </rate>
                <in>52552</in>
                <out>52783</out>
                <start>52552</start>
                <end>52783</end>
                <file id="src-2"/>
                <sourcetrack>
                  <mediatype>video</mediatype>
                  <trackindex>1</trackindex>
                </sourcetrack>
                <multiclip id="mcs-956">
                  <name>MCS-956</name>
                  <masterclipid>clip-master</masterclipid>
                  <collapsed>false</collapsed>
                  <angle>
                    <activevideoangle>false</activevideoangle>
                    <activeaudioangle>false</activeaudioangle>
                    <clip id="clip-1"/>
                  </angle>
                  <angle>
                    <activevideoangle>true</activevideoangle>
                    <activeaudioangle>true</activeaudioangle>
                    <clip id="clip-2"/>
                  </angle>
                  <angle>
                    <activevideoangle>false</activevideoangle>
                    <activeaudioangle>false</activeaudioangle>
                    <clip id="clip-3"/>
                  </angle>
                  <angle>
                    <activevideoangle>false</activevideoangle>
                    <activeaudioangle>false</activeaudioangle>
                    <clip id="clip-4"/>
                  </angle>
                  <angle>
                    <activevideoangle>false</activevideoangle>
                    <activeaudioangle>false</activeaudioangle>
                    <clip id="clip-5"/>
                  </angle>
                  <angle>
                    <activevideoangle>false</activevideoangle>
                    <activeaudioangle>false</activeaudioangle>
                    <clip id="clip-6"/>
                  </angle>
                  <angle>
                    <activevideoangle>false</activevideoangle>
                    <activeaudioangle>false</activeaudioangle>
                    <clip id="clip-7"/>
                  </angle>
                  <masterclipid>clip-master</masterclipid>
                </multiclip>
              </clipitem>
              <clipitem id="cs-957">
                <duration>268</duration>
                <rate>
                  <ntsc>false</ntsc>
                  <timebase>25</timebase>
                </rate>
                <in>52783</in>
                <out>53050</out>
                <start>52783</start>
                <end>53050</end>
                <file id="src-3"/>
                <sourcetrack>
                  <mediatype>video</mediatype>
                  <trackindex>1</trackindex>
                </sourcetrack>
                <multiclip id="mcs-957">
                  <name>MCS-957</name>
                  <masterclipid>clip-master</masterclipid>
                  <collapsed>false</collapsed>
                  <angle>
                    <activevideoangle>false</activevideoangle>
                    <activeaudioangle>false</activeaudioangle>
                    <clip id="clip-1"/>
                  </angle>
                  <angle>
                    <activevideoangle>false</activevideoangle>
                    <activeaudioangle>false</activeaudioangle>
                    <clip id="clip-2"/>
                  </angle>
                  <angle>
                    <activevideoangle>true</activevideoangle>
                    <activeaudioangle>true</activeaudioangle>
                    <clip id="clip-3"/>
                  </angle>
                  <angle>
                    <activevideoangle>false</activevideoangle>
                    <activeaudioangle>false</activeaudioangle>
                    <clip id="clip-4"/>
                  </angle>
                  <angle>
                    <activevideoangle>false</activevideoangle>
                    <activeaudioangle>false</activeaudioangle>
                    <clip id="clip-5"/>
                  </angle>
                  <angle>
                    <activevideoangle>false</activevideoangle>
                    <activeaudioangle>false</activeaudioangle>
                    <clip id="clip-6"/>
                  </angle>
                  <angle>
                    <activevideoangle>false</activevideoangle>
                    <activeaudioangle>false</activeaudioangle>
                    <clip id="clip-7"/>
                  </angle>
                  <masterclipid>clip-master</masterclipid>
                </multiclip>
              </clipitem>
              <clipitem id="cs-958">
                <duration>172</duration>
                <rate>
                  <ntsc>false</ntsc>
                  <timebase>25</timebase>
                </rate>
                <in>53050</in>
                <out>53221</out>
                <start>53050</start>
                <end>53221</end>
                <file id="src-5"/>
                <sourcetrack>
                  <mediatype>video</mediatype>
                  <trackindex>1</trackindex>
                </sourcetrack>
                <multiclip id="mcs-958">
                  <name>MCS-958</name>
                  <masterclipid>clip-master</masterclipid>
                  <collapsed>false</collapsed>
                  <angle>
                    <activevideoangle>false</activevideoangle>
                    <activeaudioangle>false</activeaudioangle>
                    <clip id="clip-1"/>
                  </angle>
                  <angle>
                    <activevideoangle>false</activevideoangle>
                    <activeaudioangle>false</activeaudioangle>
                    <clip id="clip-2"/>
                  </angle>
                  <angle>
                    <activevideoangle>false</activevideoangle>
                    <activeaudioangle>false</activeaudioangle>
                    <clip id="clip-3"/>
                  </angle>
                  <angle>
                    <activevideoangle>false</activevideoangle>
                    <activeaudioangle>false</activeaudioangle>
                    <clip id="clip-4"/>
                  </angle>
                  <angle>
                    <activevideoangle>true</activevideoangle>
                    <activeaudioangle>true</activeaudioangle>
                    <clip id="clip-5"/>
                  </angle>
                  <angle>
                    <activevideoangle>false</activevideoangle>
                    <activeaudioangle>false</activeaudioangle>
                    <clip id="clip-6"/>
                  </angle>
                  <angle>
                    <activevideoangle>false</activevideoangle>
                    <activeaudioangle>false</activeaudioangle>
                    <clip id="clip-7"/>
                  </angle>
                  <masterclipid>clip-master</masterclipid>
                </multiclip>
              </clipitem>
              <clipitem id="cs-959">
                <duration>415</duration>
                <rate>
                  <ntsc>false</ntsc>
                  <timebase>25</timebase>
                </rate>
                <in>53221</in>
                <out>53635</out>
                <start>53221</start>
                <end>53635</end>
                <file id="src-3"/>
                <sourcetrack>
                  <mediatype>video</mediatype>
                  <trackindex>1</trackindex>
                </sourcetrack>
                <multiclip id="mcs-959">
                  <name>MCS-959</name>
                  <masterclipid>clip-master</masterclipid>
                  <collapsed>false</collapsed>
                  <angle>
                    <activevideoangle>false</activevideoangle>
                    <activeaudioangle>false</activeaudioangle>
                    <clip id="clip-1"/>
                  </angle>
                  <angle>
                    <activevideoangle>false</activevideoangle>
                    <activeaudioangle>false</activeaudioangle>
                    <clip id="clip-2"/>
                  </angle>
                  <angle>
                    <activevideoangle>true</activevideoangle>
                    <activeaudioangle>true</activeaudioangle>
                    <clip id="clip-3"/>
                  </angle>
                  <angle>
                    <activevideoangle>false</activevideoangle>
                    <activeaudioangle>false</activeaudioangle>
                    <clip id="clip-4"/>
                  </angle>
                  <angle>
                    <activevideoangle>false</activevideoangle>
                    <activeaudioangle>false</activeaudioangle>
                    <clip id="clip-5"/>
                  </angle>
                  <angle>
                    <activevideoangle>false</activevideoangle>
                    <activeaudioangle>false</activeaudioangle>
                    <clip id="clip-6"/>
                  </angle>
                  <angle>
                    <activevideoangle>false</activevideoangle>
                    <activeaudioangle>false</activeaudioangle>
                    <clip id="clip-7"/>
                  </angle>
                  <masterclipid>clip-master</masterclipid>
                </multiclip>
              </clipitem>
              <clipitem id="cs-960">
                <duration>131</duration>
                <rate>
                  <ntsc>false</ntsc>
                  <timebase>25</timebase>
                </rate>
                <in>53635</in>
                <out>53765</out>
                <start>53635</start>
                <end>53765</end>
                <file id="src-1"/>
                <sourcetrack>
                  <mediatype>video</mediatype>
                  <trackindex>1</trackindex>
                </sourcetrack>
                <multiclip id="mcs-960">
                  <name>MCS-960</name>
                  <masterclipid>clip-master</masterclipid>
                  <collapsed>false</collapsed>
                  <angle>
                    <activevideoangle>true</activevideoangle>
                    <activeaudioangle>true</activeaudioangle>
                    <clip id="clip-1"/>
                  </angle>
                  <angle>
                    <activevideoangle>false</activevideoangle>
                    <activeaudioangle>false</activeaudioangle>
                    <clip id="clip-2"/>
                  </angle>
                  <angle>
                    <activevideoangle>false</activevideoangle>
                    <activeaudioangle>false</activeaudioangle>
                    <clip id="clip-3"/>
                  </angle>
                  <angle>
                    <activevideoangle>false</activevideoangle>
                    <activeaudioangle>false</activeaudioangle>
                    <clip id="clip-4"/>
                  </angle>
                  <angle>
                    <activevideoangle>false</activevideoangle>
                    <activeaudioangle>false</activeaudioangle>
                    <clip id="clip-5"/>
                  </angle>
                  <angle>
                    <activevideoangle>false</activevideoangle>
                    <activeaudioangle>false</activeaudioangle>
                    <clip id="clip-6"/>
                  </angle>
                  <angle>
                    <activevideoangle>false</activevideoangle>
                    <activeaudioangle>false</activeaudioangle>
                    <clip id="clip-7"/>
                  </angle>
                  <masterclipid>clip-master</masterclipid>
                </multiclip>
              </clipitem>
              <clipitem id="cs-961">
                <duration>350</duration>
                <rate>
                  <ntsc>false</ntsc>
                  <timebase>25</timebase>
                </rate>
                <in>53765</in>
                <out>54114</out>
                <start>53765</start>
                <end>54114</end>
                <file id="src-2"/>
                <sourcetrack>
                  <mediatype>video</mediatype>
                  <trackindex>1</trackindex>
                </sourcetrack>
                <multiclip id="mcs-961">
                  <name>MCS-961</name>
                  <masterclipid>clip-master</masterclipid>
                  <collapsed>false</collapsed>
                  <angle>
                    <activevideoangle>false</activevideoangle>
                    <activeaudioangle>false</activeaudioangle>
                    <clip id="clip-1"/>
                  </angle>
                  <angle>
                    <activevideoangle>true</activevideoangle>
                    <activeaudioangle>true</activeaudioangle>
                    <clip id="clip-2"/>
                  </angle>
                  <angle>
                    <activevideoangle>false</activevideoangle>
                    <activeaudioangle>false</activeaudioangle>
                    <clip id="clip-3"/>
                  </angle>
                  <angle>
                    <activevideoangle>false</activevideoangle>
                    <activeaudioangle>false</activeaudioangle>
                    <clip id="clip-4"/>
                  </angle>
                  <angle>
                    <activevideoangle>false</activevideoangle>
                    <activeaudioangle>false</activeaudioangle>
                    <clip id="clip-5"/>
                  </angle>
                  <angle>
                    <activevideoangle>false</activevideoangle>
                    <activeaudioangle>false</activeaudioangle>
                    <clip id="clip-6"/>
                  </angle>
                  <angle>
                    <activevideoangle>false</activevideoangle>
                    <activeaudioangle>false</activeaudioangle>
                    <clip id="clip-7"/>
                  </angle>
                  <masterclipid>clip-master</masterclipid>
                </multiclip>
              </clipitem>
              <clipitem id="cs-962">
                <duration>169</duration>
                <rate>
                  <ntsc>false</ntsc>
                  <timebase>25</timebase>
                </rate>
                <in>54114</in>
                <out>54282</out>
                <start>54114</start>
                <end>54282</end>
                <file id="src-4"/>
                <sourcetrack>
                  <mediatype>video</mediatype>
                  <trackindex>1</trackindex>
                </sourcetrack>
                <multiclip id="mcs-962">
                  <name>MCS-962</name>
                  <masterclipid>clip-master</masterclipid>
                  <collapsed>false</collapsed>
                  <angle>
                    <activevideoangle>false</activevideoangle>
                    <activeaudioangle>false</activeaudioangle>
                    <clip id="clip-1"/>
                  </angle>
                  <angle>
                    <activevideoangle>false</activevideoangle>
                    <activeaudioangle>false</activeaudioangle>
                    <clip id="clip-2"/>
                  </angle>
                  <angle>
                    <activevideoangle>false</activevideoangle>
                    <activeaudioangle>false</activeaudioangle>
                    <clip id="clip-3"/>
                  </angle>
                  <angle>
                    <activevideoangle>true</activevideoangle>
                    <activeaudioangle>true</activeaudioangle>
                    <clip id="clip-4"/>
                  </angle>
                  <angle>
                    <activevideoangle>false</activevideoangle>
                    <activeaudioangle>false</activeaudioangle>
                    <clip id="clip-5"/>
                  </angle>
                  <angle>
                    <activevideoangle>false</activevideoangle>
                    <activeaudioangle>false</activeaudioangle>
                    <clip id="clip-6"/>
                  </angle>
                  <angle>
                    <activevideoangle>false</activevideoangle>
                    <activeaudioangle>false</activeaudioangle>
                    <clip id="clip-7"/>
                  </angle>
                  <masterclipid>clip-master</masterclipid>
                </multiclip>
              </clipitem>
              <clipitem id="cs-963">
                <duration>446</duration>
                <rate>
                  <ntsc>false</ntsc>
                  <timebase>25</timebase>
                </rate>
                <in>54282</in>
                <out>54727</out>
                <start>54282</start>
                <end>54727</end>
                <file id="src-2"/>
                <sourcetrack>
                  <mediatype>video</mediatype>
                  <trackindex>1</trackindex>
                </sourcetrack>
                <multiclip id="mcs-963">
                  <name>MCS-963</name>
                  <masterclipid>clip-master</masterclipid>
                  <collapsed>false</collapsed>
                  <angle>
                    <activevideoangle>false</activevideoangle>
                    <activeaudioangle>false</activeaudioangle>
                    <clip id="clip-1"/>
                  </angle>
                  <angle>
                    <activevideoangle>true</activevideoangle>
                    <activeaudioangle>true</activeaudioangle>
                    <clip id="clip-2"/>
                  </angle>
                  <angle>
                    <activevideoangle>false</activevideoangle>
                    <activeaudioangle>false</activeaudioangle>
                    <clip id="clip-3"/>
                  </angle>
                  <angle>
                    <activevideoangle>false</activevideoangle>
                    <activeaudioangle>false</activeaudioangle>
                    <clip id="clip-4"/>
                  </angle>
                  <angle>
                    <activevideoangle>false</activevideoangle>
                    <activeaudioangle>false</activeaudioangle>
                    <clip id="clip-5"/>
                  </angle>
                  <angle>
                    <activevideoangle>false</activevideoangle>
                    <activeaudioangle>false</activeaudioangle>
                    <clip id="clip-6"/>
                  </angle>
                  <angle>
                    <activevideoangle>false</activevideoangle>
                    <activeaudioangle>false</activeaudioangle>
                    <clip id="clip-7"/>
                  </angle>
                  <masterclipid>clip-master</masterclipid>
                </multiclip>
              </clipitem>
              <clipitem id="cs-964">
                <duration>187</duration>
                <rate>
                  <ntsc>false</ntsc>
                  <timebase>25</timebase>
                </rate>
                <in>54727</in>
                <out>54913</out>
                <start>54727</start>
                <end>54913</end>
                <file id="src-6"/>
                <sourcetrack>
                  <mediatype>video</mediatype>
                  <trackindex>1</trackindex>
                </sourcetrack>
                <multiclip id="mcs-964">
                  <name>MCS-964</name>
                  <masterclipid>clip-master</masterclipid>
                  <collapsed>false</collapsed>
                  <angle>
                    <activevideoangle>false</activevideoangle>
                    <activeaudioangle>false</activeaudioangle>
                    <clip id="clip-1"/>
                  </angle>
                  <angle>
                    <activevideoangle>false</activevideoangle>
                    <activeaudioangle>false</activeaudioangle>
                    <clip id="clip-2"/>
                  </angle>
                  <angle>
                    <activevideoangle>false</activevideoangle>
                    <activeaudioangle>false</activeaudioangle>
                    <clip id="clip-3"/>
                  </angle>
                  <angle>
                    <activevideoangle>false</activevideoangle>
                    <activeaudioangle>false</activeaudioangle>
                    <clip id="clip-4"/>
                  </angle>
                  <angle>
                    <activevideoangle>false</activevideoangle>
                    <activeaudioangle>false</activeaudioangle>
                    <clip id="clip-5"/>
                  </angle>
                  <angle>
                    <activevideoangle>true</activevideoangle>
                    <activeaudioangle>true</activeaudioangle>
                    <clip id="clip-6"/>
                  </angle>
                  <angle>
                    <activevideoangle>false</activevideoangle>
                    <activeaudioangle>false</activeaudioangle>
                    <clip id="clip-7"/>
                  </angle>
                  <masterclipid>clip-master</masterclipid>
                </multiclip>
              </clipitem>
              <clipitem id="cs-965">
                <duration>103</duration>
                <rate>
                  <ntsc>false</ntsc>
                  <timebase>25</timebase>
                </rate>
                <in>54913</in>
                <out>55015</out>
                <start>54913</start>
                <end>55015</end>
                <file id="src-1"/>
                <sourcetrack>
                  <mediatype>video</mediatype>
                  <trackindex>1</trackindex>
                </sourcetrack>
                <multiclip id="mcs-965">
                  <name>MCS-965</name>
                  <masterclipid>clip-master</masterclipid>
                  <collapsed>false</collapsed>
                  <angle>
                    <activevideoangle>true</activevideoangle>
                    <activeaudioangle>true</activeaudioangle>
                    <clip id="clip-1"/>
                  </angle>
                  <angle>
                    <activevideoangle>false</activevideoangle>
                    <activeaudioangle>false</activeaudioangle>
                    <clip id="clip-2"/>
                  </angle>
                  <angle>
                    <activevideoangle>false</activevideoangle>
                    <activeaudioangle>false</activeaudioangle>
                    <clip id="clip-3"/>
                  </angle>
                  <angle>
                    <activevideoangle>false</activevideoangle>
                    <activeaudioangle>false</activeaudioangle>
                    <clip id="clip-4"/>
                  </angle>
                  <angle>
                    <activevideoangle>false</activevideoangle>
                    <activeaudioangle>false</activeaudioangle>
                    <clip id="clip-5"/>
                  </angle>
                  <angle>
                    <activevideoangle>false</activevideoangle>
                    <activeaudioangle>false</activeaudioangle>
                    <clip id="clip-6"/>
                  </angle>
                  <angle>
                    <activevideoangle>false</activevideoangle>
                    <activeaudioangle>false</activeaudioangle>
                    <clip id="clip-7"/>
                  </angle>
                  <masterclipid>clip-master</masterclipid>
                </multiclip>
              </clipitem>
              <clipitem id="cs-966">
                <duration>337</duration>
                <rate>
                  <ntsc>false</ntsc>
                  <timebase>25</timebase>
                </rate>
                <in>55015</in>
                <out>55351</out>
                <start>55015</start>
                <end>55351</end>
                <file id="src-2"/>
                <sourcetrack>
                  <mediatype>video</mediatype>
                  <trackindex>1</trackindex>
                </sourcetrack>
                <multiclip id="mcs-966">
                  <name>MCS-966</name>
                  <masterclipid>clip-master</masterclipid>
                  <collapsed>false</collapsed>
                  <angle>
                    <activevideoangle>false</activevideoangle>
                    <activeaudioangle>false</activeaudioangle>
                    <clip id="clip-1"/>
                  </angle>
                  <angle>
                    <activevideoangle>true</activevideoangle>
                    <activeaudioangle>true</activeaudioangle>
                    <clip id="clip-2"/>
                  </angle>
                  <angle>
                    <activevideoangle>false</activevideoangle>
                    <activeaudioangle>false</activeaudioangle>
                    <clip id="clip-3"/>
                  </angle>
                  <angle>
                    <activevideoangle>false</activevideoangle>
                    <activeaudioangle>false</activeaudioangle>
                    <clip id="clip-4"/>
                  </angle>
                  <angle>
                    <activevideoangle>false</activevideoangle>
                    <activeaudioangle>false</activeaudioangle>
                    <clip id="clip-5"/>
                  </angle>
                  <angle>
                    <activevideoangle>false</activevideoangle>
                    <activeaudioangle>false</activeaudioangle>
                    <clip id="clip-6"/>
                  </angle>
                  <angle>
                    <activevideoangle>false</activevideoangle>
                    <activeaudioangle>false</activeaudioangle>
                    <clip id="clip-7"/>
                  </angle>
                  <masterclipid>clip-master</masterclipid>
                </multiclip>
              </clipitem>
              <clipitem id="cs-967">
                <duration>197</duration>
                <rate>
                  <ntsc>false</ntsc>
                  <timebase>25</timebase>
                </rate>
                <in>55351</in>
                <out>55547</out>
                <start>55351</start>
                <end>55547</end>
                <file id="src-3"/>
                <sourcetrack>
                  <mediatype>video</mediatype>
                  <trackindex>1</trackindex>
                </sourcetrack>
                <multiclip id="mcs-967">
                  <name>MCS-967</name>
                  <masterclipid>clip-master</masterclipid>
                  <collapsed>false</collapsed>
                  <angle>
                    <activevideoangle>false</activevideoangle>
                    <activeaudioangle>false</activeaudioangle>
                    <clip id="clip-1"/>
                  </angle>
                  <angle>
                    <activevideoangle>false</activevideoangle>
                    <activeaudioangle>false</activeaudioangle>
                    <clip id="clip-2"/>
                  </angle>
                  <angle>
                    <activevideoangle>true</activevideoangle>
                    <activeaudioangle>true</activeaudioangle>
                    <clip id="clip-3"/>
                  </angle>
                  <angle>
                    <activevideoangle>false</activevideoangle>
                    <activeaudioangle>false</activeaudioangle>
                    <clip id="clip-4"/>
                  </angle>
                  <angle>
                    <activevideoangle>false</activevideoangle>
                    <activeaudioangle>false</activeaudioangle>
                    <clip id="clip-5"/>
                  </angle>
                  <angle>
                    <activevideoangle>false</activevideoangle>
                    <activeaudioangle>false</activeaudioangle>
                    <clip id="clip-6"/>
                  </angle>
                  <angle>
                    <activevideoangle>false</activevideoangle>
                    <activeaudioangle>false</activeaudioangle>
                    <clip id="clip-7"/>
                  </angle>
                  <masterclipid>clip-master</masterclipid>
                </multiclip>
              </clipitem>
              <clipitem id="cs-968">
                <duration>179</duration>
                <rate>
                  <ntsc>false</ntsc>
                  <timebase>25</timebase>
                </rate>
                <in>55547</in>
                <out>55725</out>
                <start>55547</start>
                <end>55725</end>
                <file id="src-5"/>
                <sourcetrack>
                  <mediatype>video</mediatype>
                  <trackindex>1</trackindex>
                </sourcetrack>
                <multiclip id="mcs-968">
                  <name>MCS-968</name>
                  <masterclipid>clip-master</masterclipid>
                  <collapsed>false</collapsed>
                  <angle>
                    <activevideoangle>false</activevideoangle>
                    <activeaudioangle>false</activeaudioangle>
                    <clip id="clip-1"/>
                  </angle>
                  <angle>
                    <activevideoangle>false</activevideoangle>
                    <activeaudioangle>false</activeaudioangle>
                    <clip id="clip-2"/>
                  </angle>
                  <angle>
                    <activevideoangle>false</activevideoangle>
                    <activeaudioangle>false</activeaudioangle>
                    <clip id="clip-3"/>
                  </angle>
                  <angle>
                    <activevideoangle>false</activevideoangle>
                    <activeaudioangle>false</activeaudioangle>
                    <clip id="clip-4"/>
                  </angle>
                  <angle>
                    <activevideoangle>true</activevideoangle>
                    <activeaudioangle>true</activeaudioangle>
                    <clip id="clip-5"/>
                  </angle>
                  <angle>
                    <activevideoangle>false</activevideoangle>
                    <activeaudioangle>false</activeaudioangle>
                    <clip id="clip-6"/>
                  </angle>
                  <angle>
                    <activevideoangle>false</activevideoangle>
                    <activeaudioangle>false</activeaudioangle>
                    <clip id="clip-7"/>
                  </angle>
                  <masterclipid>clip-master</masterclipid>
                </multiclip>
              </clipitem>
              <clipitem id="cs-969">
                <duration>163</duration>
                <rate>
                  <ntsc>false</ntsc>
                  <timebase>25</timebase>
                </rate>
                <in>55725</in>
                <out>55887</out>
                <start>55725</start>
                <end>55887</end>
                <file id="src-3"/>
                <sourcetrack>
                  <mediatype>video</mediatype>
                  <trackindex>1</trackindex>
                </sourcetrack>
                <multiclip id="mcs-969">
                  <name>MCS-969</name>
                  <masterclipid>clip-master</masterclipid>
                  <collapsed>false</collapsed>
                  <angle>
                    <activevideoangle>false</activevideoangle>
                    <activeaudioangle>false</activeaudioangle>
                    <clip id="clip-1"/>
                  </angle>
                  <angle>
                    <activevideoangle>false</activevideoangle>
                    <activeaudioangle>false</activeaudioangle>
                    <clip id="clip-2"/>
                  </angle>
                  <angle>
                    <activevideoangle>true</activevideoangle>
                    <activeaudioangle>true</activeaudioangle>
                    <clip id="clip-3"/>
                  </angle>
                  <angle>
                    <activevideoangle>false</activevideoangle>
                    <activeaudioangle>false</activeaudioangle>
                    <clip id="clip-4"/>
                  </angle>
                  <angle>
                    <activevideoangle>false</activevideoangle>
                    <activeaudioangle>false</activeaudioangle>
                    <clip id="clip-5"/>
                  </angle>
                  <angle>
                    <activevideoangle>false</activevideoangle>
                    <activeaudioangle>false</activeaudioangle>
                    <clip id="clip-6"/>
                  </angle>
                  <angle>
                    <activevideoangle>false</activevideoangle>
                    <activeaudioangle>false</activeaudioangle>
                    <clip id="clip-7"/>
                  </angle>
                  <masterclipid>clip-master</masterclipid>
                </multiclip>
              </clipitem>
              <clipitem id="cs-970">
                <duration>481</duration>
                <rate>
                  <ntsc>false</ntsc>
                  <timebase>25</timebase>
                </rate>
                <in>55887</in>
                <out>56367</out>
                <start>55887</start>
                <end>56367</end>
                <file id="src-1"/>
                <sourcetrack>
                  <mediatype>video</mediatype>
                  <trackindex>1</trackindex>
                </sourcetrack>
                <multiclip id="mcs-970">
                  <name>MCS-970</name>
                  <masterclipid>clip-master</masterclipid>
                  <collapsed>false</collapsed>
                  <angle>
                    <activevideoangle>true</activevideoangle>
                    <activeaudioangle>true</activeaudioangle>
                    <clip id="clip-1"/>
                  </angle>
                  <angle>
                    <activevideoangle>false</activevideoangle>
                    <activeaudioangle>false</activeaudioangle>
                    <clip id="clip-2"/>
                  </angle>
                  <angle>
                    <activevideoangle>false</activevideoangle>
                    <activeaudioangle>false</activeaudioangle>
                    <clip id="clip-3"/>
                  </angle>
                  <angle>
                    <activevideoangle>false</activevideoangle>
                    <activeaudioangle>false</activeaudioangle>
                    <clip id="clip-4"/>
                  </angle>
                  <angle>
                    <activevideoangle>false</activevideoangle>
                    <activeaudioangle>false</activeaudioangle>
                    <clip id="clip-5"/>
                  </angle>
                  <angle>
                    <activevideoangle>false</activevideoangle>
                    <activeaudioangle>false</activeaudioangle>
                    <clip id="clip-6"/>
                  </angle>
                  <angle>
                    <activevideoangle>false</activevideoangle>
                    <activeaudioangle>false</activeaudioangle>
                    <clip id="clip-7"/>
                  </angle>
                  <masterclipid>clip-master</masterclipid>
                </multiclip>
              </clipitem>
              <clipitem id="cs-971">
                <duration>259</duration>
                <rate>
                  <ntsc>false</ntsc>
                  <timebase>25</timebase>
                </rate>
                <in>56367</in>
                <out>56625</out>
                <start>56367</start>
                <end>56625</end>
                <file id="src-2"/>
                <sourcetrack>
                  <mediatype>video</mediatype>
                  <trackindex>1</trackindex>
                </sourcetrack>
                <multiclip id="mcs-971">
                  <name>MCS-971</name>
                  <masterclipid>clip-master</masterclipid>
                  <collapsed>false</collapsed>
                  <angle>
                    <activevideoangle>false</activevideoangle>
                    <activeaudioangle>false</activeaudioangle>
                    <clip id="clip-1"/>
                  </angle>
                  <angle>
                    <activevideoangle>true</activevideoangle>
                    <activeaudioangle>true</activeaudioangle>
                    <clip id="clip-2"/>
                  </angle>
                  <angle>
                    <activevideoangle>false</activevideoangle>
                    <activeaudioangle>false</activeaudioangle>
                    <clip id="clip-3"/>
                  </angle>
                  <angle>
                    <activevideoangle>false</activevideoangle>
                    <activeaudioangle>false</activeaudioangle>
                    <clip id="clip-4"/>
                  </angle>
                  <angle>
                    <activevideoangle>false</activevideoangle>
                    <activeaudioangle>false</activeaudioangle>
                    <clip id="clip-5"/>
                  </angle>
                  <angle>
                    <activevideoangle>false</activevideoangle>
                    <activeaudioangle>false</activeaudioangle>
                    <clip id="clip-6"/>
                  </angle>
                  <angle>
                    <activevideoangle>false</activevideoangle>
                    <activeaudioangle>false</activeaudioangle>
                    <clip id="clip-7"/>
                  </angle>
                  <masterclipid>clip-master</masterclipid>
                </multiclip>
              </clipitem>
              <clipitem id="cs-972">
                <duration>298</duration>
                <rate>
                  <ntsc>false</ntsc>
                  <timebase>25</timebase>
                </rate>
                <in>56625</in>
                <out>56922</out>
                <start>56625</start>
                <end>56922</end>
                <file id="src-4"/>
                <sourcetrack>
                  <mediatype>video</mediatype>
                  <trackindex>1</trackindex>
                </sourcetrack>
                <multiclip id="mcs-972">
                  <name>MCS-972</name>
                  <masterclipid>clip-master</masterclipid>
                  <collapsed>false</collapsed>
                  <angle>
                    <activevideoangle>false</activevideoangle>
                    <activeaudioangle>false</activeaudioangle>
                    <clip id="clip-1"/>
                  </angle>
                  <angle>
                    <activevideoangle>false</activevideoangle>
                    <activeaudioangle>false</activeaudioangle>
                    <clip id="clip-2"/>
                  </angle>
                  <angle>
                    <activevideoangle>false</activevideoangle>
                    <activeaudioangle>false</activeaudioangle>
                    <clip id="clip-3"/>
                  </angle>
                  <angle>
                    <activevideoangle>true</activevideoangle>
                    <activeaudioangle>true</activeaudioangle>
                    <clip id="clip-4"/>
                  </angle>
                  <angle>
                    <activevideoangle>false</activevideoangle>
                    <activeaudioangle>false</activeaudioangle>
                    <clip id="clip-5"/>
                  </angle>
                  <angle>
                    <activevideoangle>false</activevideoangle>
                    <activeaudioangle>false</activeaudioangle>
                    <clip id="clip-6"/>
                  </angle>
                  <angle>
                    <activevideoangle>false</activevideoangle>
                    <activeaudioangle>false</activeaudioangle>
                    <clip id="clip-7"/>
                  </angle>
                  <masterclipid>clip-master</masterclipid>
                </multiclip>
              </clipitem>
              <clipitem id="cs-973">
                <duration>720</duration>
                <rate>
                  <ntsc>false</ntsc>
                  <timebase>25</timebase>
                </rate>
                <in>56922</in>
                <out>57641</out>
                <start>56922</start>
                <end>57641</end>
                <file id="src-1"/>
                <sourcetrack>
                  <mediatype>video</mediatype>
                  <trackindex>1</trackindex>
                </sourcetrack>
                <multiclip id="mcs-973">
                  <name>MCS-973</name>
                  <masterclipid>clip-master</masterclipid>
                  <collapsed>false</collapsed>
                  <angle>
                    <activevideoangle>true</activevideoangle>
                    <activeaudioangle>true</activeaudioangle>
                    <clip id="clip-1"/>
                  </angle>
                  <angle>
                    <activevideoangle>false</activevideoangle>
                    <activeaudioangle>false</activeaudioangle>
                    <clip id="clip-2"/>
                  </angle>
                  <angle>
                    <activevideoangle>false</activevideoangle>
                    <activeaudioangle>false</activeaudioangle>
                    <clip id="clip-3"/>
                  </angle>
                  <angle>
                    <activevideoangle>false</activevideoangle>
                    <activeaudioangle>false</activeaudioangle>
                    <clip id="clip-4"/>
                  </angle>
                  <angle>
                    <activevideoangle>false</activevideoangle>
                    <activeaudioangle>false</activeaudioangle>
                    <clip id="clip-5"/>
                  </angle>
                  <angle>
                    <activevideoangle>false</activevideoangle>
                    <activeaudioangle>false</activeaudioangle>
                    <clip id="clip-6"/>
                  </angle>
                  <angle>
                    <activevideoangle>false</activevideoangle>
                    <activeaudioangle>false</activeaudioangle>
                    <clip id="clip-7"/>
                  </angle>
                  <masterclipid>clip-master</masterclipid>
                </multiclip>
              </clipitem>
              <clipitem id="cs-974">
                <duration>341</duration>
                <rate>
                  <ntsc>false</ntsc>
                  <timebase>25</timebase>
                </rate>
                <in>57641</in>
                <out>57981</out>
                <start>57641</start>
                <end>57981</end>
                <file id="src-2"/>
                <sourcetrack>
                  <mediatype>video</mediatype>
                  <trackindex>1</trackindex>
                </sourcetrack>
                <multiclip id="mcs-974">
                  <name>MCS-974</name>
                  <masterclipid>clip-master</masterclipid>
                  <collapsed>false</collapsed>
                  <angle>
                    <activevideoangle>false</activevideoangle>
                    <activeaudioangle>false</activeaudioangle>
                    <clip id="clip-1"/>
                  </angle>
                  <angle>
                    <activevideoangle>true</activevideoangle>
                    <activeaudioangle>true</activeaudioangle>
                    <clip id="clip-2"/>
                  </angle>
                  <angle>
                    <activevideoangle>false</activevideoangle>
                    <activeaudioangle>false</activeaudioangle>
                    <clip id="clip-3"/>
                  </angle>
                  <angle>
                    <activevideoangle>false</activevideoangle>
                    <activeaudioangle>false</activeaudioangle>
                    <clip id="clip-4"/>
                  </angle>
                  <angle>
                    <activevideoangle>false</activevideoangle>
                    <activeaudioangle>false</activeaudioangle>
                    <clip id="clip-5"/>
                  </angle>
                  <angle>
                    <activevideoangle>false</activevideoangle>
                    <activeaudioangle>false</activeaudioangle>
                    <clip id="clip-6"/>
                  </angle>
                  <angle>
                    <activevideoangle>false</activevideoangle>
                    <activeaudioangle>false</activeaudioangle>
                    <clip id="clip-7"/>
                  </angle>
                  <masterclipid>clip-master</masterclipid>
                </multiclip>
              </clipitem>
              <clipitem id="cs-975">
                <duration>154</duration>
                <rate>
                  <ntsc>false</ntsc>
                  <timebase>25</timebase>
                </rate>
                <in>57981</in>
                <out>58134</out>
                <start>57981</start>
                <end>58134</end>
                <file id="src-3"/>
                <sourcetrack>
                  <mediatype>video</mediatype>
                  <trackindex>1</trackindex>
                </sourcetrack>
                <multiclip id="mcs-975">
                  <name>MCS-975</name>
                  <masterclipid>clip-master</masterclipid>
                  <collapsed>false</collapsed>
                  <angle>
                    <activevideoangle>false</activevideoangle>
                    <activeaudioangle>false</activeaudioangle>
                    <clip id="clip-1"/>
                  </angle>
                  <angle>
                    <activevideoangle>false</activevideoangle>
                    <activeaudioangle>false</activeaudioangle>
                    <clip id="clip-2"/>
                  </angle>
                  <angle>
                    <activevideoangle>true</activevideoangle>
                    <activeaudioangle>true</activeaudioangle>
                    <clip id="clip-3"/>
                  </angle>
                  <angle>
                    <activevideoangle>false</activevideoangle>
                    <activeaudioangle>false</activeaudioangle>
                    <clip id="clip-4"/>
                  </angle>
                  <angle>
                    <activevideoangle>false</activevideoangle>
                    <activeaudioangle>false</activeaudioangle>
                    <clip id="clip-5"/>
                  </angle>
                  <angle>
                    <activevideoangle>false</activevideoangle>
                    <activeaudioangle>false</activeaudioangle>
                    <clip id="clip-6"/>
                  </angle>
                  <angle>
                    <activevideoangle>false</activevideoangle>
                    <activeaudioangle>false</activeaudioangle>
                    <clip id="clip-7"/>
                  </angle>
                  <masterclipid>clip-master</masterclipid>
                </multiclip>
              </clipitem>
              <clipitem id="cs-976">
                <duration>141</duration>
                <rate>
                  <ntsc>false</ntsc>
                  <timebase>25</timebase>
                </rate>
                <in>58134</in>
                <out>58274</out>
                <start>58134</start>
                <end>58274</end>
                <file id="src-5"/>
                <sourcetrack>
                  <mediatype>video</mediatype>
                  <trackindex>1</trackindex>
                </sourcetrack>
                <multiclip id="mcs-976">
                  <name>MCS-976</name>
                  <masterclipid>clip-master</masterclipid>
                  <collapsed>false</collapsed>
                  <angle>
                    <activevideoangle>false</activevideoangle>
                    <activeaudioangle>false</activeaudioangle>
                    <clip id="clip-1"/>
                  </angle>
                  <angle>
                    <activevideoangle>false</activevideoangle>
                    <activeaudioangle>false</activeaudioangle>
                    <clip id="clip-2"/>
                  </angle>
                  <angle>
                    <activevideoangle>false</activevideoangle>
                    <activeaudioangle>false</activeaudioangle>
                    <clip id="clip-3"/>
                  </angle>
                  <angle>
                    <activevideoangle>false</activevideoangle>
                    <activeaudioangle>false</activeaudioangle>
                    <clip id="clip-4"/>
                  </angle>
                  <angle>
                    <activevideoangle>true</activevideoangle>
                    <activeaudioangle>true</activeaudioangle>
                    <clip id="clip-5"/>
                  </angle>
                  <angle>
                    <activevideoangle>false</activevideoangle>
                    <activeaudioangle>false</activeaudioangle>
                    <clip id="clip-6"/>
                  </angle>
                  <angle>
                    <activevideoangle>false</activevideoangle>
                    <activeaudioangle>false</activeaudioangle>
                    <clip id="clip-7"/>
                  </angle>
                  <masterclipid>clip-master</masterclipid>
                </multiclip>
              </clipitem>
              <clipitem id="cs-977">
                <duration>262</duration>
                <rate>
                  <ntsc>false</ntsc>
                  <timebase>25</timebase>
                </rate>
                <in>58274</in>
                <out>58535</out>
                <start>58274</start>
                <end>58535</end>
                <file id="src-2"/>
                <sourcetrack>
                  <mediatype>video</mediatype>
                  <trackindex>1</trackindex>
                </sourcetrack>
                <multiclip id="mcs-977">
                  <name>MCS-977</name>
                  <masterclipid>clip-master</masterclipid>
                  <collapsed>false</collapsed>
                  <angle>
                    <activevideoangle>false</activevideoangle>
                    <activeaudioangle>false</activeaudioangle>
                    <clip id="clip-1"/>
                  </angle>
                  <angle>
                    <activevideoangle>true</activevideoangle>
                    <activeaudioangle>true</activeaudioangle>
                    <clip id="clip-2"/>
                  </angle>
                  <angle>
                    <activevideoangle>false</activevideoangle>
                    <activeaudioangle>false</activeaudioangle>
                    <clip id="clip-3"/>
                  </angle>
                  <angle>
                    <activevideoangle>false</activevideoangle>
                    <activeaudioangle>false</activeaudioangle>
                    <clip id="clip-4"/>
                  </angle>
                  <angle>
                    <activevideoangle>false</activevideoangle>
                    <activeaudioangle>false</activeaudioangle>
                    <clip id="clip-5"/>
                  </angle>
                  <angle>
                    <activevideoangle>false</activevideoangle>
                    <activeaudioangle>false</activeaudioangle>
                    <clip id="clip-6"/>
                  </angle>
                  <angle>
                    <activevideoangle>false</activevideoangle>
                    <activeaudioangle>false</activeaudioangle>
                    <clip id="clip-7"/>
                  </angle>
                  <masterclipid>clip-master</masterclipid>
                </multiclip>
              </clipitem>
              <clipitem id="cs-978">
                <duration>180</duration>
                <rate>
                  <ntsc>false</ntsc>
                  <timebase>25</timebase>
                </rate>
                <in>58535</in>
                <out>58714</out>
                <start>58535</start>
                <end>58714</end>
                <file id="src-6"/>
                <sourcetrack>
                  <mediatype>video</mediatype>
                  <trackindex>1</trackindex>
                </sourcetrack>
                <multiclip id="mcs-978">
                  <name>MCS-978</name>
                  <masterclipid>clip-master</masterclipid>
                  <collapsed>false</collapsed>
                  <angle>
                    <activevideoangle>false</activevideoangle>
                    <activeaudioangle>false</activeaudioangle>
                    <clip id="clip-1"/>
                  </angle>
                  <angle>
                    <activevideoangle>false</activevideoangle>
                    <activeaudioangle>false</activeaudioangle>
                    <clip id="clip-2"/>
                  </angle>
                  <angle>
                    <activevideoangle>false</activevideoangle>
                    <activeaudioangle>false</activeaudioangle>
                    <clip id="clip-3"/>
                  </angle>
                  <angle>
                    <activevideoangle>false</activevideoangle>
                    <activeaudioangle>false</activeaudioangle>
                    <clip id="clip-4"/>
                  </angle>
                  <angle>
                    <activevideoangle>false</activevideoangle>
                    <activeaudioangle>false</activeaudioangle>
                    <clip id="clip-5"/>
                  </angle>
                  <angle>
                    <activevideoangle>true</activevideoangle>
                    <activeaudioangle>true</activeaudioangle>
                    <clip id="clip-6"/>
                  </angle>
                  <angle>
                    <activevideoangle>false</activevideoangle>
                    <activeaudioangle>false</activeaudioangle>
                    <clip id="clip-7"/>
                  </angle>
                  <masterclipid>clip-master</masterclipid>
                </multiclip>
              </clipitem>
              <clipitem id="cs-979">
                <duration>211</duration>
                <rate>
                  <ntsc>false</ntsc>
                  <timebase>25</timebase>
                </rate>
                <in>58714</in>
                <out>58924</out>
                <start>58714</start>
                <end>58924</end>
                <file id="src-2"/>
                <sourcetrack>
                  <mediatype>video</mediatype>
                  <trackindex>1</trackindex>
                </sourcetrack>
                <multiclip id="mcs-979">
                  <name>MCS-979</name>
                  <masterclipid>clip-master</masterclipid>
                  <collapsed>false</collapsed>
                  <angle>
                    <activevideoangle>false</activevideoangle>
                    <activeaudioangle>false</activeaudioangle>
                    <clip id="clip-1"/>
                  </angle>
                  <angle>
                    <activevideoangle>true</activevideoangle>
                    <activeaudioangle>true</activeaudioangle>
                    <clip id="clip-2"/>
                  </angle>
                  <angle>
                    <activevideoangle>false</activevideoangle>
                    <activeaudioangle>false</activeaudioangle>
                    <clip id="clip-3"/>
                  </angle>
                  <angle>
                    <activevideoangle>false</activevideoangle>
                    <activeaudioangle>false</activeaudioangle>
                    <clip id="clip-4"/>
                  </angle>
                  <angle>
                    <activevideoangle>false</activevideoangle>
                    <activeaudioangle>false</activeaudioangle>
                    <clip id="clip-5"/>
                  </angle>
                  <angle>
                    <activevideoangle>false</activevideoangle>
                    <activeaudioangle>false</activeaudioangle>
                    <clip id="clip-6"/>
                  </angle>
                  <angle>
                    <activevideoangle>false</activevideoangle>
                    <activeaudioangle>false</activeaudioangle>
                    <clip id="clip-7"/>
                  </angle>
                  <masterclipid>clip-master</masterclipid>
                </multiclip>
              </clipitem>
              <clipitem id="cs-980">
                <duration>156</duration>
                <rate>
                  <ntsc>false</ntsc>
                  <timebase>25</timebase>
                </rate>
                <in>58924</in>
                <out>59079</out>
                <start>58924</start>
                <end>59079</end>
                <file id="src-4"/>
                <sourcetrack>
                  <mediatype>video</mediatype>
                  <trackindex>1</trackindex>
                </sourcetrack>
                <multiclip id="mcs-980">
                  <name>MCS-980</name>
                  <masterclipid>clip-master</masterclipid>
                  <collapsed>false</collapsed>
                  <angle>
                    <activevideoangle>false</activevideoangle>
                    <activeaudioangle>false</activeaudioangle>
                    <clip id="clip-1"/>
                  </angle>
                  <angle>
                    <activevideoangle>false</activevideoangle>
                    <activeaudioangle>false</activeaudioangle>
                    <clip id="clip-2"/>
                  </angle>
                  <angle>
                    <activevideoangle>false</activevideoangle>
                    <activeaudioangle>false</activeaudioangle>
                    <clip id="clip-3"/>
                  </angle>
                  <angle>
                    <activevideoangle>true</activevideoangle>
                    <activeaudioangle>true</activeaudioangle>
                    <clip id="clip-4"/>
                  </angle>
                  <angle>
                    <activevideoangle>false</activevideoangle>
                    <activeaudioangle>false</activeaudioangle>
                    <clip id="clip-5"/>
                  </angle>
                  <angle>
                    <activevideoangle>false</activevideoangle>
                    <activeaudioangle>false</activeaudioangle>
                    <clip id="clip-6"/>
                  </angle>
                  <angle>
                    <activevideoangle>false</activevideoangle>
                    <activeaudioangle>false</activeaudioangle>
                    <clip id="clip-7"/>
                  </angle>
                  <masterclipid>clip-master</masterclipid>
                </multiclip>
              </clipitem>
              <clipitem id="cs-981">
                <duration>149</duration>
                <rate>
                  <ntsc>false</ntsc>
                  <timebase>25</timebase>
                </rate>
                <in>59079</in>
                <out>59227</out>
                <start>59079</start>
                <end>59227</end>
                <file id="src-6"/>
                <sourcetrack>
                  <mediatype>video</mediatype>
                  <trackindex>1</trackindex>
                </sourcetrack>
                <multiclip id="mcs-981">
                  <name>MCS-981</name>
                  <masterclipid>clip-master</masterclipid>
                  <collapsed>false</collapsed>
                  <angle>
                    <activevideoangle>false</activevideoangle>
                    <activeaudioangle>false</activeaudioangle>
                    <clip id="clip-1"/>
                  </angle>
                  <angle>
                    <activevideoangle>false</activevideoangle>
                    <activeaudioangle>false</activeaudioangle>
                    <clip id="clip-2"/>
                  </angle>
                  <angle>
                    <activevideoangle>false</activevideoangle>
                    <activeaudioangle>false</activeaudioangle>
                    <clip id="clip-3"/>
                  </angle>
                  <angle>
                    <activevideoangle>false</activevideoangle>
                    <activeaudioangle>false</activeaudioangle>
                    <clip id="clip-4"/>
                  </angle>
                  <angle>
                    <activevideoangle>false</activevideoangle>
                    <activeaudioangle>false</activeaudioangle>
                    <clip id="clip-5"/>
                  </angle>
                  <angle>
                    <activevideoangle>true</activevideoangle>
                    <activeaudioangle>true</activeaudioangle>
                    <clip id="clip-6"/>
                  </angle>
                  <angle>
                    <activevideoangle>false</activevideoangle>
                    <activeaudioangle>false</activeaudioangle>
                    <clip id="clip-7"/>
                  </angle>
                  <masterclipid>clip-master</masterclipid>
                </multiclip>
              </clipitem>
              <clipitem id="cs-982">
                <duration>158</duration>
                <rate>
                  <ntsc>false</ntsc>
                  <timebase>25</timebase>
                </rate>
                <in>59227</in>
                <out>59384</out>
                <start>59227</start>
                <end>59384</end>
                <file id="src-2"/>
                <sourcetrack>
                  <mediatype>video</mediatype>
                  <trackindex>1</trackindex>
                </sourcetrack>
                <multiclip id="mcs-982">
                  <name>MCS-982</name>
                  <masterclipid>clip-master</masterclipid>
                  <collapsed>false</collapsed>
                  <angle>
                    <activevideoangle>false</activevideoangle>
                    <activeaudioangle>false</activeaudioangle>
                    <clip id="clip-1"/>
                  </angle>
                  <angle>
                    <activevideoangle>true</activevideoangle>
                    <activeaudioangle>true</activeaudioangle>
                    <clip id="clip-2"/>
                  </angle>
                  <angle>
                    <activevideoangle>false</activevideoangle>
                    <activeaudioangle>false</activeaudioangle>
                    <clip id="clip-3"/>
                  </angle>
                  <angle>
                    <activevideoangle>false</activevideoangle>
                    <activeaudioangle>false</activeaudioangle>
                    <clip id="clip-4"/>
                  </angle>
                  <angle>
                    <activevideoangle>false</activevideoangle>
                    <activeaudioangle>false</activeaudioangle>
                    <clip id="clip-5"/>
                  </angle>
                  <angle>
                    <activevideoangle>false</activevideoangle>
                    <activeaudioangle>false</activeaudioangle>
                    <clip id="clip-6"/>
                  </angle>
                  <angle>
                    <activevideoangle>false</activevideoangle>
                    <activeaudioangle>false</activeaudioangle>
                    <clip id="clip-7"/>
                  </angle>
                  <masterclipid>clip-master</masterclipid>
                </multiclip>
              </clipitem>
              <clipitem id="cs-983">
                <duration>129</duration>
                <rate>
                  <ntsc>false</ntsc>
                  <timebase>25</timebase>
                </rate>
                <in>59384</in>
                <out>59512</out>
                <start>59384</start>
                <end>59512</end>
                <file id="src-5"/>
                <sourcetrack>
                  <mediatype>video</mediatype>
                  <trackindex>1</trackindex>
                </sourcetrack>
                <multiclip id="mcs-983">
                  <name>MCS-983</name>
                  <masterclipid>clip-master</masterclipid>
                  <collapsed>false</collapsed>
                  <angle>
                    <activevideoangle>false</activevideoangle>
                    <activeaudioangle>false</activeaudioangle>
                    <clip id="clip-1"/>
                  </angle>
                  <angle>
                    <activevideoangle>false</activevideoangle>
                    <activeaudioangle>false</activeaudioangle>
                    <clip id="clip-2"/>
                  </angle>
                  <angle>
                    <activevideoangle>false</activevideoangle>
                    <activeaudioangle>false</activeaudioangle>
                    <clip id="clip-3"/>
                  </angle>
                  <angle>
                    <activevideoangle>false</activevideoangle>
                    <activeaudioangle>false</activeaudioangle>
                    <clip id="clip-4"/>
                  </angle>
                  <angle>
                    <activevideoangle>true</activevideoangle>
                    <activeaudioangle>true</activeaudioangle>
                    <clip id="clip-5"/>
                  </angle>
                  <angle>
                    <activevideoangle>false</activevideoangle>
                    <activeaudioangle>false</activeaudioangle>
                    <clip id="clip-6"/>
                  </angle>
                  <angle>
                    <activevideoangle>false</activevideoangle>
                    <activeaudioangle>false</activeaudioangle>
                    <clip id="clip-7"/>
                  </angle>
                  <masterclipid>clip-master</masterclipid>
                </multiclip>
              </clipitem>
              <clipitem id="cs-984">
                <duration>244</duration>
                <rate>
                  <ntsc>false</ntsc>
                  <timebase>25</timebase>
                </rate>
                <in>59512</in>
                <out>59755</out>
                <start>59512</start>
                <end>59755</end>
                <file id="src-2"/>
                <sourcetrack>
                  <mediatype>video</mediatype>
                  <trackindex>1</trackindex>
                </sourcetrack>
                <multiclip id="mcs-984">
                  <name>MCS-984</name>
                  <masterclipid>clip-master</masterclipid>
                  <collapsed>false</collapsed>
                  <angle>
                    <activevideoangle>false</activevideoangle>
                    <activeaudioangle>false</activeaudioangle>
                    <clip id="clip-1"/>
                  </angle>
                  <angle>
                    <activevideoangle>true</activevideoangle>
                    <activeaudioangle>true</activeaudioangle>
                    <clip id="clip-2"/>
                  </angle>
                  <angle>
                    <activevideoangle>false</activevideoangle>
                    <activeaudioangle>false</activeaudioangle>
                    <clip id="clip-3"/>
                  </angle>
                  <angle>
                    <activevideoangle>false</activevideoangle>
                    <activeaudioangle>false</activeaudioangle>
                    <clip id="clip-4"/>
                  </angle>
                  <angle>
                    <activevideoangle>false</activevideoangle>
                    <activeaudioangle>false</activeaudioangle>
                    <clip id="clip-5"/>
                  </angle>
                  <angle>
                    <activevideoangle>false</activevideoangle>
                    <activeaudioangle>false</activeaudioangle>
                    <clip id="clip-6"/>
                  </angle>
                  <angle>
                    <activevideoangle>false</activevideoangle>
                    <activeaudioangle>false</activeaudioangle>
                    <clip id="clip-7"/>
                  </angle>
                  <masterclipid>clip-master</masterclipid>
                </multiclip>
              </clipitem>
              <clipitem id="cs-985">
                <duration>133</duration>
                <rate>
                  <ntsc>false</ntsc>
                  <timebase>25</timebase>
                </rate>
                <in>59755</in>
                <out>59887</out>
                <start>59755</start>
                <end>59887</end>
                <file id="src-6"/>
                <sourcetrack>
                  <mediatype>video</mediatype>
                  <trackindex>1</trackindex>
                </sourcetrack>
                <multiclip id="mcs-985">
                  <name>MCS-985</name>
                  <masterclipid>clip-master</masterclipid>
                  <collapsed>false</collapsed>
                  <angle>
                    <activevideoangle>false</activevideoangle>
                    <activeaudioangle>false</activeaudioangle>
                    <clip id="clip-1"/>
                  </angle>
                  <angle>
                    <activevideoangle>false</activevideoangle>
                    <activeaudioangle>false</activeaudioangle>
                    <clip id="clip-2"/>
                  </angle>
                  <angle>
                    <activevideoangle>false</activevideoangle>
                    <activeaudioangle>false</activeaudioangle>
                    <clip id="clip-3"/>
                  </angle>
                  <angle>
                    <activevideoangle>false</activevideoangle>
                    <activeaudioangle>false</activeaudioangle>
                    <clip id="clip-4"/>
                  </angle>
                  <angle>
                    <activevideoangle>false</activevideoangle>
                    <activeaudioangle>false</activeaudioangle>
                    <clip id="clip-5"/>
                  </angle>
                  <angle>
                    <activevideoangle>true</activevideoangle>
                    <activeaudioangle>true</activeaudioangle>
                    <clip id="clip-6"/>
                  </angle>
                  <angle>
                    <activevideoangle>false</activevideoangle>
                    <activeaudioangle>false</activeaudioangle>
                    <clip id="clip-7"/>
                  </angle>
                  <masterclipid>clip-master</masterclipid>
                </multiclip>
              </clipitem>
              <clipitem id="cs-986">
                <duration>137</duration>
                <rate>
                  <ntsc>false</ntsc>
                  <timebase>25</timebase>
                </rate>
                <in>59887</in>
                <out>60023</out>
                <start>59887</start>
                <end>60023</end>
                <file id="src-4"/>
                <sourcetrack>
                  <mediatype>video</mediatype>
                  <trackindex>1</trackindex>
                </sourcetrack>
                <multiclip id="mcs-986">
                  <name>MCS-986</name>
                  <masterclipid>clip-master</masterclipid>
                  <collapsed>false</collapsed>
                  <angle>
                    <activevideoangle>false</activevideoangle>
                    <activeaudioangle>false</activeaudioangle>
                    <clip id="clip-1"/>
                  </angle>
                  <angle>
                    <activevideoangle>false</activevideoangle>
                    <activeaudioangle>false</activeaudioangle>
                    <clip id="clip-2"/>
                  </angle>
                  <angle>
                    <activevideoangle>false</activevideoangle>
                    <activeaudioangle>false</activeaudioangle>
                    <clip id="clip-3"/>
                  </angle>
                  <angle>
                    <activevideoangle>true</activevideoangle>
                    <activeaudioangle>true</activeaudioangle>
                    <clip id="clip-4"/>
                  </angle>
                  <angle>
                    <activevideoangle>false</activevideoangle>
                    <activeaudioangle>false</activeaudioangle>
                    <clip id="clip-5"/>
                  </angle>
                  <angle>
                    <activevideoangle>false</activevideoangle>
                    <activeaudioangle>false</activeaudioangle>
                    <clip id="clip-6"/>
                  </angle>
                  <angle>
                    <activevideoangle>false</activevideoangle>
                    <activeaudioangle>false</activeaudioangle>
                    <clip id="clip-7"/>
                  </angle>
                  <masterclipid>clip-master</masterclipid>
                </multiclip>
              </clipitem>
              <clipitem id="cs-987">
                <duration>175</duration>
                <rate>
                  <ntsc>false</ntsc>
                  <timebase>25</timebase>
                </rate>
                <in>60023</in>
                <out>60197</out>
                <start>60023</start>
                <end>60197</end>
                <file id="src-2"/>
                <sourcetrack>
                  <mediatype>video</mediatype>
                  <trackindex>1</trackindex>
                </sourcetrack>
                <multiclip id="mcs-987">
                  <name>MCS-987</name>
                  <masterclipid>clip-master</masterclipid>
                  <collapsed>false</collapsed>
                  <angle>
                    <activevideoangle>false</activevideoangle>
                    <activeaudioangle>false</activeaudioangle>
                    <clip id="clip-1"/>
                  </angle>
                  <angle>
                    <activevideoangle>true</activevideoangle>
                    <activeaudioangle>true</activeaudioangle>
                    <clip id="clip-2"/>
                  </angle>
                  <angle>
                    <activevideoangle>false</activevideoangle>
                    <activeaudioangle>false</activeaudioangle>
                    <clip id="clip-3"/>
                  </angle>
                  <angle>
                    <activevideoangle>false</activevideoangle>
                    <activeaudioangle>false</activeaudioangle>
                    <clip id="clip-4"/>
                  </angle>
                  <angle>
                    <activevideoangle>false</activevideoangle>
                    <activeaudioangle>false</activeaudioangle>
                    <clip id="clip-5"/>
                  </angle>
                  <angle>
                    <activevideoangle>false</activevideoangle>
                    <activeaudioangle>false</activeaudioangle>
                    <clip id="clip-6"/>
                  </angle>
                  <angle>
                    <activevideoangle>false</activevideoangle>
                    <activeaudioangle>false</activeaudioangle>
                    <clip id="clip-7"/>
                  </angle>
                  <masterclipid>clip-master</masterclipid>
                </multiclip>
              </clipitem>
              <clipitem id="cs-988">
                <duration>198</duration>
                <rate>
                  <ntsc>false</ntsc>
                  <timebase>25</timebase>
                </rate>
                <in>60197</in>
                <out>60394</out>
                <start>60197</start>
                <end>60394</end>
                <file id="src-1"/>
                <sourcetrack>
                  <mediatype>video</mediatype>
                  <trackindex>1</trackindex>
                </sourcetrack>
                <multiclip id="mcs-988">
                  <name>MCS-988</name>
                  <masterclipid>clip-master</masterclipid>
                  <collapsed>false</collapsed>
                  <angle>
                    <activevideoangle>true</activevideoangle>
                    <activeaudioangle>true</activeaudioangle>
                    <clip id="clip-1"/>
                  </angle>
                  <angle>
                    <activevideoangle>false</activevideoangle>
                    <activeaudioangle>false</activeaudioangle>
                    <clip id="clip-2"/>
                  </angle>
                  <angle>
                    <activevideoangle>false</activevideoangle>
                    <activeaudioangle>false</activeaudioangle>
                    <clip id="clip-3"/>
                  </angle>
                  <angle>
                    <activevideoangle>false</activevideoangle>
                    <activeaudioangle>false</activeaudioangle>
                    <clip id="clip-4"/>
                  </angle>
                  <angle>
                    <activevideoangle>false</activevideoangle>
                    <activeaudioangle>false</activeaudioangle>
                    <clip id="clip-5"/>
                  </angle>
                  <angle>
                    <activevideoangle>false</activevideoangle>
                    <activeaudioangle>false</activeaudioangle>
                    <clip id="clip-6"/>
                  </angle>
                  <angle>
                    <activevideoangle>false</activevideoangle>
                    <activeaudioangle>false</activeaudioangle>
                    <clip id="clip-7"/>
                  </angle>
                  <masterclipid>clip-master</masterclipid>
                </multiclip>
              </clipitem>
              <clipitem id="cs-989">
                <duration>364</duration>
                <rate>
                  <ntsc>false</ntsc>
                  <timebase>25</timebase>
                </rate>
                <in>60394</in>
                <out>60757</out>
                <start>60394</start>
                <end>60757</end>
                <file id="src-2"/>
                <sourcetrack>
                  <mediatype>video</mediatype>
                  <trackindex>1</trackindex>
                </sourcetrack>
                <multiclip id="mcs-989">
                  <name>MCS-989</name>
                  <masterclipid>clip-master</masterclipid>
                  <collapsed>false</collapsed>
                  <angle>
                    <activevideoangle>false</activevideoangle>
                    <activeaudioangle>false</activeaudioangle>
                    <clip id="clip-1"/>
                  </angle>
                  <angle>
                    <activevideoangle>true</activevideoangle>
                    <activeaudioangle>true</activeaudioangle>
                    <clip id="clip-2"/>
                  </angle>
                  <angle>
                    <activevideoangle>false</activevideoangle>
                    <activeaudioangle>false</activeaudioangle>
                    <clip id="clip-3"/>
                  </angle>
                  <angle>
                    <activevideoangle>false</activevideoangle>
                    <activeaudioangle>false</activeaudioangle>
                    <clip id="clip-4"/>
                  </angle>
                  <angle>
                    <activevideoangle>false</activevideoangle>
                    <activeaudioangle>false</activeaudioangle>
                    <clip id="clip-5"/>
                  </angle>
                  <angle>
                    <activevideoangle>false</activevideoangle>
                    <activeaudioangle>false</activeaudioangle>
                    <clip id="clip-6"/>
                  </angle>
                  <angle>
                    <activevideoangle>false</activevideoangle>
                    <activeaudioangle>false</activeaudioangle>
                    <clip id="clip-7"/>
                  </angle>
                  <masterclipid>clip-master</masterclipid>
                </multiclip>
              </clipitem>
              <clipitem id="cs-990">
                <duration>260</duration>
                <rate>
                  <ntsc>false</ntsc>
                  <timebase>25</timebase>
                </rate>
                <in>60757</in>
                <out>61016</out>
                <start>60757</start>
                <end>61016</end>
                <file id="src-6"/>
                <sourcetrack>
                  <mediatype>video</mediatype>
                  <trackindex>1</trackindex>
                </sourcetrack>
                <multiclip id="mcs-990">
                  <name>MCS-990</name>
                  <masterclipid>clip-master</masterclipid>
                  <collapsed>false</collapsed>
                  <angle>
                    <activevideoangle>false</activevideoangle>
                    <activeaudioangle>false</activeaudioangle>
                    <clip id="clip-1"/>
                  </angle>
                  <angle>
                    <activevideoangle>false</activevideoangle>
                    <activeaudioangle>false</activeaudioangle>
                    <clip id="clip-2"/>
                  </angle>
                  <angle>
                    <activevideoangle>false</activevideoangle>
                    <activeaudioangle>false</activeaudioangle>
                    <clip id="clip-3"/>
                  </angle>
                  <angle>
                    <activevideoangle>false</activevideoangle>
                    <activeaudioangle>false</activeaudioangle>
                    <clip id="clip-4"/>
                  </angle>
                  <angle>
                    <activevideoangle>false</activevideoangle>
                    <activeaudioangle>false</activeaudioangle>
                    <clip id="clip-5"/>
                  </angle>
                  <angle>
                    <activevideoangle>true</activevideoangle>
                    <activeaudioangle>true</activeaudioangle>
                    <clip id="clip-6"/>
                  </angle>
                  <angle>
                    <activevideoangle>false</activevideoangle>
                    <activeaudioangle>false</activeaudioangle>
                    <clip id="clip-7"/>
                  </angle>
                  <masterclipid>clip-master</masterclipid>
                </multiclip>
              </clipitem>
              <clipitem id="cs-991">
                <duration>153</duration>
                <rate>
                  <ntsc>false</ntsc>
                  <timebase>25</timebase>
                </rate>
                <in>61016</in>
                <out>61168</out>
                <start>61016</start>
                <end>61168</end>
                <file id="src-3"/>
                <sourcetrack>
                  <mediatype>video</mediatype>
                  <trackindex>1</trackindex>
                </sourcetrack>
                <multiclip id="mcs-991">
                  <name>MCS-991</name>
                  <masterclipid>clip-master</masterclipid>
                  <collapsed>false</collapsed>
                  <angle>
                    <activevideoangle>false</activevideoangle>
                    <activeaudioangle>false</activeaudioangle>
                    <clip id="clip-1"/>
                  </angle>
                  <angle>
                    <activevideoangle>false</activevideoangle>
                    <activeaudioangle>false</activeaudioangle>
                    <clip id="clip-2"/>
                  </angle>
                  <angle>
                    <activevideoangle>true</activevideoangle>
                    <activeaudioangle>true</activeaudioangle>
                    <clip id="clip-3"/>
                  </angle>
                  <angle>
                    <activevideoangle>false</activevideoangle>
                    <activeaudioangle>false</activeaudioangle>
                    <clip id="clip-4"/>
                  </angle>
                  <angle>
                    <activevideoangle>false</activevideoangle>
                    <activeaudioangle>false</activeaudioangle>
                    <clip id="clip-5"/>
                  </angle>
                  <angle>
                    <activevideoangle>false</activevideoangle>
                    <activeaudioangle>false</activeaudioangle>
                    <clip id="clip-6"/>
                  </angle>
                  <angle>
                    <activevideoangle>false</activevideoangle>
                    <activeaudioangle>false</activeaudioangle>
                    <clip id="clip-7"/>
                  </angle>
                  <masterclipid>clip-master</masterclipid>
                </multiclip>
              </clipitem>
              <clipitem id="cs-992">
                <duration>195</duration>
                <rate>
                  <ntsc>false</ntsc>
                  <timebase>25</timebase>
                </rate>
                <in>61168</in>
                <out>61362</out>
                <start>61168</start>
                <end>61362</end>
                <file id="src-5"/>
                <sourcetrack>
                  <mediatype>video</mediatype>
                  <trackindex>1</trackindex>
                </sourcetrack>
                <multiclip id="mcs-992">
                  <name>MCS-992</name>
                  <masterclipid>clip-master</masterclipid>
                  <collapsed>false</collapsed>
                  <angle>
                    <activevideoangle>false</activevideoangle>
                    <activeaudioangle>false</activeaudioangle>
                    <clip id="clip-1"/>
                  </angle>
                  <angle>
                    <activevideoangle>false</activevideoangle>
                    <activeaudioangle>false</activeaudioangle>
                    <clip id="clip-2"/>
                  </angle>
                  <angle>
                    <activevideoangle>false</activevideoangle>
                    <activeaudioangle>false</activeaudioangle>
                    <clip id="clip-3"/>
                  </angle>
                  <angle>
                    <activevideoangle>false</activevideoangle>
                    <activeaudioangle>false</activeaudioangle>
                    <clip id="clip-4"/>
                  </angle>
                  <angle>
                    <activevideoangle>true</activevideoangle>
                    <activeaudioangle>true</activeaudioangle>
                    <clip id="clip-5"/>
                  </angle>
                  <angle>
                    <activevideoangle>false</activevideoangle>
                    <activeaudioangle>false</activeaudioangle>
                    <clip id="clip-6"/>
                  </angle>
                  <angle>
                    <activevideoangle>false</activevideoangle>
                    <activeaudioangle>false</activeaudioangle>
                    <clip id="clip-7"/>
                  </angle>
                  <masterclipid>clip-master</masterclipid>
                </multiclip>
              </clipitem>
              <clipitem id="cs-993">
                <duration>113</duration>
                <rate>
                  <ntsc>false</ntsc>
                  <timebase>25</timebase>
                </rate>
                <in>61362</in>
                <out>61474</out>
                <start>61362</start>
                <end>61474</end>
                <file id="src-4"/>
                <sourcetrack>
                  <mediatype>video</mediatype>
                  <trackindex>1</trackindex>
                </sourcetrack>
                <multiclip id="mcs-993">
                  <name>MCS-993</name>
                  <masterclipid>clip-master</masterclipid>
                  <collapsed>false</collapsed>
                  <angle>
                    <activevideoangle>false</activevideoangle>
                    <activeaudioangle>false</activeaudioangle>
                    <clip id="clip-1"/>
                  </angle>
                  <angle>
                    <activevideoangle>false</activevideoangle>
                    <activeaudioangle>false</activeaudioangle>
                    <clip id="clip-2"/>
                  </angle>
                  <angle>
                    <activevideoangle>false</activevideoangle>
                    <activeaudioangle>false</activeaudioangle>
                    <clip id="clip-3"/>
                  </angle>
                  <angle>
                    <activevideoangle>true</activevideoangle>
                    <activeaudioangle>true</activeaudioangle>
                    <clip id="clip-4"/>
                  </angle>
                  <angle>
                    <activevideoangle>false</activevideoangle>
                    <activeaudioangle>false</activeaudioangle>
                    <clip id="clip-5"/>
                  </angle>
                  <angle>
                    <activevideoangle>false</activevideoangle>
                    <activeaudioangle>false</activeaudioangle>
                    <clip id="clip-6"/>
                  </angle>
                  <angle>
                    <activevideoangle>false</activevideoangle>
                    <activeaudioangle>false</activeaudioangle>
                    <clip id="clip-7"/>
                  </angle>
                  <masterclipid>clip-master</masterclipid>
                </multiclip>
              </clipitem>
              <clipitem id="cs-994">
                <duration>535</duration>
                <rate>
                  <ntsc>false</ntsc>
                  <timebase>25</timebase>
                </rate>
                <in>61474</in>
                <out>62008</out>
                <start>61474</start>
                <end>62008</end>
                <file id="src-3"/>
                <sourcetrack>
                  <mediatype>video</mediatype>
                  <trackindex>1</trackindex>
                </sourcetrack>
                <multiclip id="mcs-994">
                  <name>MCS-994</name>
                  <masterclipid>clip-master</masterclipid>
                  <collapsed>false</collapsed>
                  <angle>
                    <activevideoangle>false</activevideoangle>
                    <activeaudioangle>false</activeaudioangle>
                    <clip id="clip-1"/>
                  </angle>
                  <angle>
                    <activevideoangle>false</activevideoangle>
                    <activeaudioangle>false</activeaudioangle>
                    <clip id="clip-2"/>
                  </angle>
                  <angle>
                    <activevideoangle>true</activevideoangle>
                    <activeaudioangle>true</activeaudioangle>
                    <clip id="clip-3"/>
                  </angle>
                  <angle>
                    <activevideoangle>false</activevideoangle>
                    <activeaudioangle>false</activeaudioangle>
                    <clip id="clip-4"/>
                  </angle>
                  <angle>
                    <activevideoangle>false</activevideoangle>
                    <activeaudioangle>false</activeaudioangle>
                    <clip id="clip-5"/>
                  </angle>
                  <angle>
                    <activevideoangle>false</activevideoangle>
                    <activeaudioangle>false</activeaudioangle>
                    <clip id="clip-6"/>
                  </angle>
                  <angle>
                    <activevideoangle>false</activevideoangle>
                    <activeaudioangle>false</activeaudioangle>
                    <clip id="clip-7"/>
                  </angle>
                  <masterclipid>clip-master</masterclipid>
                </multiclip>
              </clipitem>
              <clipitem id="cs-995">
                <duration>179</duration>
                <rate>
                  <ntsc>false</ntsc>
                  <timebase>25</timebase>
                </rate>
                <in>62008</in>
                <out>62186</out>
                <start>62008</start>
                <end>62186</end>
                <file id="src-4"/>
                <sourcetrack>
                  <mediatype>video</mediatype>
                  <trackindex>1</trackindex>
                </sourcetrack>
                <multiclip id="mcs-995">
                  <name>MCS-995</name>
                  <masterclipid>clip-master</masterclipid>
                  <collapsed>false</collapsed>
                  <angle>
                    <activevideoangle>false</activevideoangle>
                    <activeaudioangle>false</activeaudioangle>
                    <clip id="clip-1"/>
                  </angle>
                  <angle>
                    <activevideoangle>false</activevideoangle>
                    <activeaudioangle>false</activeaudioangle>
                    <clip id="clip-2"/>
                  </angle>
                  <angle>
                    <activevideoangle>false</activevideoangle>
                    <activeaudioangle>false</activeaudioangle>
                    <clip id="clip-3"/>
                  </angle>
                  <angle>
                    <activevideoangle>true</activevideoangle>
                    <activeaudioangle>true</activeaudioangle>
                    <clip id="clip-4"/>
                  </angle>
                  <angle>
                    <activevideoangle>false</activevideoangle>
                    <activeaudioangle>false</activeaudioangle>
                    <clip id="clip-5"/>
                  </angle>
                  <angle>
                    <activevideoangle>false</activevideoangle>
                    <activeaudioangle>false</activeaudioangle>
                    <clip id="clip-6"/>
                  </angle>
                  <angle>
                    <activevideoangle>false</activevideoangle>
                    <activeaudioangle>false</activeaudioangle>
                    <clip id="clip-7"/>
                  </angle>
                  <masterclipid>clip-master</masterclipid>
                </multiclip>
              </clipitem>
              <clipitem id="cs-996">
                <duration>562</duration>
                <rate>
                  <ntsc>false</ntsc>
                  <timebase>25</timebase>
                </rate>
                <in>62186</in>
                <out>62747</out>
                <start>62186</start>
                <end>62747</end>
                <file id="src-2"/>
                <sourcetrack>
                  <mediatype>video</mediatype>
                  <trackindex>1</trackindex>
                </sourcetrack>
                <multiclip id="mcs-996">
                  <name>MCS-996</name>
                  <masterclipid>clip-master</masterclipid>
                  <collapsed>false</collapsed>
                  <angle>
                    <activevideoangle>false</activevideoangle>
                    <activeaudioangle>false</activeaudioangle>
                    <clip id="clip-1"/>
                  </angle>
                  <angle>
                    <activevideoangle>true</activevideoangle>
                    <activeaudioangle>true</activeaudioangle>
                    <clip id="clip-2"/>
                  </angle>
                  <angle>
                    <activevideoangle>false</activevideoangle>
                    <activeaudioangle>false</activeaudioangle>
                    <clip id="clip-3"/>
                  </angle>
                  <angle>
                    <activevideoangle>false</activevideoangle>
                    <activeaudioangle>false</activeaudioangle>
                    <clip id="clip-4"/>
                  </angle>
                  <angle>
                    <activevideoangle>false</activevideoangle>
                    <activeaudioangle>false</activeaudioangle>
                    <clip id="clip-5"/>
                  </angle>
                  <angle>
                    <activevideoangle>false</activevideoangle>
                    <activeaudioangle>false</activeaudioangle>
                    <clip id="clip-6"/>
                  </angle>
                  <angle>
                    <activevideoangle>false</activevideoangle>
                    <activeaudioangle>false</activeaudioangle>
                    <clip id="clip-7"/>
                  </angle>
                  <masterclipid>clip-master</masterclipid>
                </multiclip>
              </clipitem>
              <clipitem id="cs-997">
                <duration>312</duration>
                <rate>
                  <ntsc>false</ntsc>
                  <timebase>25</timebase>
                </rate>
                <in>62747</in>
                <out>63058</out>
                <start>62747</start>
                <end>63058</end>
                <file id="src-3"/>
                <sourcetrack>
                  <mediatype>video</mediatype>
                  <trackindex>1</trackindex>
                </sourcetrack>
                <multiclip id="mcs-997">
                  <name>MCS-997</name>
                  <masterclipid>clip-master</masterclipid>
                  <collapsed>false</collapsed>
                  <angle>
                    <activevideoangle>false</activevideoangle>
                    <activeaudioangle>false</activeaudioangle>
                    <clip id="clip-1"/>
                  </angle>
                  <angle>
                    <activevideoangle>false</activevideoangle>
                    <activeaudioangle>false</activeaudioangle>
                    <clip id="clip-2"/>
                  </angle>
                  <angle>
                    <activevideoangle>true</activevideoangle>
                    <activeaudioangle>true</activeaudioangle>
                    <clip id="clip-3"/>
                  </angle>
                  <angle>
                    <activevideoangle>false</activevideoangle>
                    <activeaudioangle>false</activeaudioangle>
                    <clip id="clip-4"/>
                  </angle>
                  <angle>
                    <activevideoangle>false</activevideoangle>
                    <activeaudioangle>false</activeaudioangle>
                    <clip id="clip-5"/>
                  </angle>
                  <angle>
                    <activevideoangle>false</activevideoangle>
                    <activeaudioangle>false</activeaudioangle>
                    <clip id="clip-6"/>
                  </angle>
                  <angle>
                    <activevideoangle>false</activevideoangle>
                    <activeaudioangle>false</activeaudioangle>
                    <clip id="clip-7"/>
                  </angle>
                  <masterclipid>clip-master</masterclipid>
                </multiclip>
              </clipitem>
              <clipitem id="cs-998">
                <duration>496</duration>
                <rate>
                  <ntsc>false</ntsc>
                  <timebase>25</timebase>
                </rate>
                <in>63058</in>
                <out>63553</out>
                <start>63058</start>
                <end>63553</end>
                <file id="src-2"/>
                <sourcetrack>
                  <mediatype>video</mediatype>
                  <trackindex>1</trackindex>
                </sourcetrack>
                <multiclip id="mcs-998">
                  <name>MCS-998</name>
                  <masterclipid>clip-master</masterclipid>
                  <collapsed>false</collapsed>
                  <angle>
                    <activevideoangle>false</activevideoangle>
                    <activeaudioangle>false</activeaudioangle>
                    <clip id="clip-1"/>
                  </angle>
                  <angle>
                    <activevideoangle>true</activevideoangle>
                    <activeaudioangle>true</activeaudioangle>
                    <clip id="clip-2"/>
                  </angle>
                  <angle>
                    <activevideoangle>false</activevideoangle>
                    <activeaudioangle>false</activeaudioangle>
                    <clip id="clip-3"/>
                  </angle>
                  <angle>
                    <activevideoangle>false</activevideoangle>
                    <activeaudioangle>false</activeaudioangle>
                    <clip id="clip-4"/>
                  </angle>
                  <angle>
                    <activevideoangle>false</activevideoangle>
                    <activeaudioangle>false</activeaudioangle>
                    <clip id="clip-5"/>
                  </angle>
                  <angle>
                    <activevideoangle>false</activevideoangle>
                    <activeaudioangle>false</activeaudioangle>
                    <clip id="clip-6"/>
                  </angle>
                  <angle>
                    <activevideoangle>false</activevideoangle>
                    <activeaudioangle>false</activeaudioangle>
                    <clip id="clip-7"/>
                  </angle>
                  <masterclipid>clip-master</masterclipid>
                </multiclip>
              </clipitem>
              <clipitem id="cs-999">
                <duration>133</duration>
                <rate>
                  <ntsc>false</ntsc>
                  <timebase>25</timebase>
                </rate>
                <in>63553</in>
                <out>63685</out>
                <start>63553</start>
                <end>63685</end>
                <file id="src-4"/>
                <sourcetrack>
                  <mediatype>video</mediatype>
                  <trackindex>1</trackindex>
                </sourcetrack>
                <multiclip id="mcs-999">
                  <name>MCS-999</name>
                  <masterclipid>clip-master</masterclipid>
                  <collapsed>false</collapsed>
                  <angle>
                    <activevideoangle>false</activevideoangle>
                    <activeaudioangle>false</activeaudioangle>
                    <clip id="clip-1"/>
                  </angle>
                  <angle>
                    <activevideoangle>false</activevideoangle>
                    <activeaudioangle>false</activeaudioangle>
                    <clip id="clip-2"/>
                  </angle>
                  <angle>
                    <activevideoangle>false</activevideoangle>
                    <activeaudioangle>false</activeaudioangle>
                    <clip id="clip-3"/>
                  </angle>
                  <angle>
                    <activevideoangle>true</activevideoangle>
                    <activeaudioangle>true</activeaudioangle>
                    <clip id="clip-4"/>
                  </angle>
                  <angle>
                    <activevideoangle>false</activevideoangle>
                    <activeaudioangle>false</activeaudioangle>
                    <clip id="clip-5"/>
                  </angle>
                  <angle>
                    <activevideoangle>false</activevideoangle>
                    <activeaudioangle>false</activeaudioangle>
                    <clip id="clip-6"/>
                  </angle>
                  <angle>
                    <activevideoangle>false</activevideoangle>
                    <activeaudioangle>false</activeaudioangle>
                    <clip id="clip-7"/>
                  </angle>
                  <masterclipid>clip-master</masterclipid>
                </multiclip>
              </clipitem>
              <clipitem id="cs-1000">
                <duration>167</duration>
                <rate>
                  <ntsc>false</ntsc>
                  <timebase>25</timebase>
                </rate>
                <in>63685</in>
                <out>63851</out>
                <start>63685</start>
                <end>63851</end>
                <file id="src-3"/>
                <sourcetrack>
                  <mediatype>video</mediatype>
                  <trackindex>1</trackindex>
                </sourcetrack>
                <multiclip id="mcs-1000">
                  <name>MCS-1000</name>
                  <masterclipid>clip-master</masterclipid>
                  <collapsed>false</collapsed>
                  <angle>
                    <activevideoangle>false</activevideoangle>
                    <activeaudioangle>false</activeaudioangle>
                    <clip id="clip-1"/>
                  </angle>
                  <angle>
                    <activevideoangle>false</activevideoangle>
                    <activeaudioangle>false</activeaudioangle>
                    <clip id="clip-2"/>
                  </angle>
                  <angle>
                    <activevideoangle>true</activevideoangle>
                    <activeaudioangle>true</activeaudioangle>
                    <clip id="clip-3"/>
                  </angle>
                  <angle>
                    <activevideoangle>false</activevideoangle>
                    <activeaudioangle>false</activeaudioangle>
                    <clip id="clip-4"/>
                  </angle>
                  <angle>
                    <activevideoangle>false</activevideoangle>
                    <activeaudioangle>false</activeaudioangle>
                    <clip id="clip-5"/>
                  </angle>
                  <angle>
                    <activevideoangle>false</activevideoangle>
                    <activeaudioangle>false</activeaudioangle>
                    <clip id="clip-6"/>
                  </angle>
                  <angle>
                    <activevideoangle>false</activevideoangle>
                    <activeaudioangle>false</activeaudioangle>
                    <clip id="clip-7"/>
                  </angle>
                  <masterclipid>clip-master</masterclipid>
                </multiclip>
              </clipitem>
              <clipitem id="cs-1001">
                <duration>699</duration>
                <rate>
                  <ntsc>false</ntsc>
                  <timebase>25</timebase>
                </rate>
                <in>63851</in>
                <out>64549</out>
                <start>63851</start>
                <end>64549</end>
                <file id="src-2"/>
                <sourcetrack>
                  <mediatype>video</mediatype>
                  <trackindex>1</trackindex>
                </sourcetrack>
                <multiclip id="mcs-1001">
                  <name>MCS-1001</name>
                  <masterclipid>clip-master</masterclipid>
                  <collapsed>false</collapsed>
                  <angle>
                    <activevideoangle>false</activevideoangle>
                    <activeaudioangle>false</activeaudioangle>
                    <clip id="clip-1"/>
                  </angle>
                  <angle>
                    <activevideoangle>true</activevideoangle>
                    <activeaudioangle>true</activeaudioangle>
                    <clip id="clip-2"/>
                  </angle>
                  <angle>
                    <activevideoangle>false</activevideoangle>
                    <activeaudioangle>false</activeaudioangle>
                    <clip id="clip-3"/>
                  </angle>
                  <angle>
                    <activevideoangle>false</activevideoangle>
                    <activeaudioangle>false</activeaudioangle>
                    <clip id="clip-4"/>
                  </angle>
                  <angle>
                    <activevideoangle>false</activevideoangle>
                    <activeaudioangle>false</activeaudioangle>
                    <clip id="clip-5"/>
                  </angle>
                  <angle>
                    <activevideoangle>false</activevideoangle>
                    <activeaudioangle>false</activeaudioangle>
                    <clip id="clip-6"/>
                  </angle>
                  <angle>
                    <activevideoangle>false</activevideoangle>
                    <activeaudioangle>false</activeaudioangle>
                    <clip id="clip-7"/>
                  </angle>
                  <masterclipid>clip-master</masterclipid>
                </multiclip>
              </clipitem>
              <clipitem id="cs-1002">
                <duration>240</duration>
                <rate>
                  <ntsc>false</ntsc>
                  <timebase>25</timebase>
                </rate>
                <in>64549</in>
                <out>64788</out>
                <start>64549</start>
                <end>64788</end>
                <file id="src-4"/>
                <sourcetrack>
                  <mediatype>video</mediatype>
                  <trackindex>1</trackindex>
                </sourcetrack>
                <multiclip id="mcs-1002">
                  <name>MCS-1002</name>
                  <masterclipid>clip-master</masterclipid>
                  <collapsed>false</collapsed>
                  <angle>
                    <activevideoangle>false</activevideoangle>
                    <activeaudioangle>false</activeaudioangle>
                    <clip id="clip-1"/>
                  </angle>
                  <angle>
                    <activevideoangle>false</activevideoangle>
                    <activeaudioangle>false</activeaudioangle>
                    <clip id="clip-2"/>
                  </angle>
                  <angle>
                    <activevideoangle>false</activevideoangle>
                    <activeaudioangle>false</activeaudioangle>
                    <clip id="clip-3"/>
                  </angle>
                  <angle>
                    <activevideoangle>true</activevideoangle>
                    <activeaudioangle>true</activeaudioangle>
                    <clip id="clip-4"/>
                  </angle>
                  <angle>
                    <activevideoangle>false</activevideoangle>
                    <activeaudioangle>false</activeaudioangle>
                    <clip id="clip-5"/>
                  </angle>
                  <angle>
                    <activevideoangle>false</activevideoangle>
                    <activeaudioangle>false</activeaudioangle>
                    <clip id="clip-6"/>
                  </angle>
                  <angle>
                    <activevideoangle>false</activevideoangle>
                    <activeaudioangle>false</activeaudioangle>
                    <clip id="clip-7"/>
                  </angle>
                  <masterclipid>clip-master</masterclipid>
                </multiclip>
              </clipitem>
              <clipitem id="cs-1003">
                <duration>222</duration>
                <rate>
                  <ntsc>false</ntsc>
                  <timebase>25</timebase>
                </rate>
                <in>64788</in>
                <out>65009</out>
                <start>64788</start>
                <end>65009</end>
                <file id="src-3"/>
                <sourcetrack>
                  <mediatype>video</mediatype>
                  <trackindex>1</trackindex>
                </sourcetrack>
                <multiclip id="mcs-1003">
                  <name>MCS-1003</name>
                  <masterclipid>clip-master</masterclipid>
                  <collapsed>false</collapsed>
                  <angle>
                    <activevideoangle>false</activevideoangle>
                    <activeaudioangle>false</activeaudioangle>
                    <clip id="clip-1"/>
                  </angle>
                  <angle>
                    <activevideoangle>false</activevideoangle>
                    <activeaudioangle>false</activeaudioangle>
                    <clip id="clip-2"/>
                  </angle>
                  <angle>
                    <activevideoangle>true</activevideoangle>
                    <activeaudioangle>true</activeaudioangle>
                    <clip id="clip-3"/>
                  </angle>
                  <angle>
                    <activevideoangle>false</activevideoangle>
                    <activeaudioangle>false</activeaudioangle>
                    <clip id="clip-4"/>
                  </angle>
                  <angle>
                    <activevideoangle>false</activevideoangle>
                    <activeaudioangle>false</activeaudioangle>
                    <clip id="clip-5"/>
                  </angle>
                  <angle>
                    <activevideoangle>false</activevideoangle>
                    <activeaudioangle>false</activeaudioangle>
                    <clip id="clip-6"/>
                  </angle>
                  <angle>
                    <activevideoangle>false</activevideoangle>
                    <activeaudioangle>false</activeaudioangle>
                    <clip id="clip-7"/>
                  </angle>
                  <masterclipid>clip-master</masterclipid>
                </multiclip>
              </clipitem>
              <clipitem id="cs-1004">
                <duration>179</duration>
                <rate>
                  <ntsc>false</ntsc>
                  <timebase>25</timebase>
                </rate>
                <in>65009</in>
                <out>65187</out>
                <start>65009</start>
                <end>65187</end>
                <file id="src-6"/>
                <sourcetrack>
                  <mediatype>video</mediatype>
                  <trackindex>1</trackindex>
                </sourcetrack>
                <multiclip id="mcs-1004">
                  <name>MCS-1004</name>
                  <masterclipid>clip-master</masterclipid>
                  <collapsed>false</collapsed>
                  <angle>
                    <activevideoangle>false</activevideoangle>
                    <activeaudioangle>false</activeaudioangle>
                    <clip id="clip-1"/>
                  </angle>
                  <angle>
                    <activevideoangle>false</activevideoangle>
                    <activeaudioangle>false</activeaudioangle>
                    <clip id="clip-2"/>
                  </angle>
                  <angle>
                    <activevideoangle>false</activevideoangle>
                    <activeaudioangle>false</activeaudioangle>
                    <clip id="clip-3"/>
                  </angle>
                  <angle>
                    <activevideoangle>false</activevideoangle>
                    <activeaudioangle>false</activeaudioangle>
                    <clip id="clip-4"/>
                  </angle>
                  <angle>
                    <activevideoangle>false</activevideoangle>
                    <activeaudioangle>false</activeaudioangle>
                    <clip id="clip-5"/>
                  </angle>
                  <angle>
                    <activevideoangle>true</activevideoangle>
                    <activeaudioangle>true</activeaudioangle>
                    <clip id="clip-6"/>
                  </angle>
                  <angle>
                    <activevideoangle>false</activevideoangle>
                    <activeaudioangle>false</activeaudioangle>
                    <clip id="clip-7"/>
                  </angle>
                  <masterclipid>clip-master</masterclipid>
                </multiclip>
              </clipitem>
              <clipitem id="cs-1005">
                <duration>271</duration>
                <rate>
                  <ntsc>false</ntsc>
                  <timebase>25</timebase>
                </rate>
                <in>65187</in>
                <out>65457</out>
                <start>65187</start>
                <end>65457</end>
                <file id="src-3"/>
                <sourcetrack>
                  <mediatype>video</mediatype>
                  <trackindex>1</trackindex>
                </sourcetrack>
                <multiclip id="mcs-1005">
                  <name>MCS-1005</name>
                  <masterclipid>clip-master</masterclipid>
                  <collapsed>false</collapsed>
                  <angle>
                    <activevideoangle>false</activevideoangle>
                    <activeaudioangle>false</activeaudioangle>
                    <clip id="clip-1"/>
                  </angle>
                  <angle>
                    <activevideoangle>false</activevideoangle>
                    <activeaudioangle>false</activeaudioangle>
                    <clip id="clip-2"/>
                  </angle>
                  <angle>
                    <activevideoangle>true</activevideoangle>
                    <activeaudioangle>true</activeaudioangle>
                    <clip id="clip-3"/>
                  </angle>
                  <angle>
                    <activevideoangle>false</activevideoangle>
                    <activeaudioangle>false</activeaudioangle>
                    <clip id="clip-4"/>
                  </angle>
                  <angle>
                    <activevideoangle>false</activevideoangle>
                    <activeaudioangle>false</activeaudioangle>
                    <clip id="clip-5"/>
                  </angle>
                  <angle>
                    <activevideoangle>false</activevideoangle>
                    <activeaudioangle>false</activeaudioangle>
                    <clip id="clip-6"/>
                  </angle>
                  <angle>
                    <activevideoangle>false</activevideoangle>
                    <activeaudioangle>false</activeaudioangle>
                    <clip id="clip-7"/>
                  </angle>
                  <masterclipid>clip-master</masterclipid>
                </multiclip>
              </clipitem>
              <clipitem id="cs-1006">
                <duration>120</duration>
                <rate>
                  <ntsc>false</ntsc>
                  <timebase>25</timebase>
                </rate>
                <in>65457</in>
                <out>65576</out>
                <start>65457</start>
                <end>65576</end>
                <file id="src-2"/>
                <sourcetrack>
                  <mediatype>video</mediatype>
                  <trackindex>1</trackindex>
                </sourcetrack>
                <multiclip id="mcs-1006">
                  <name>MCS-1006</name>
                  <masterclipid>clip-master</masterclipid>
                  <collapsed>false</collapsed>
                  <angle>
                    <activevideoangle>false</activevideoangle>
                    <activeaudioangle>false</activeaudioangle>
                    <clip id="clip-1"/>
                  </angle>
                  <angle>
                    <activevideoangle>true</activevideoangle>
                    <activeaudioangle>true</activeaudioangle>
                    <clip id="clip-2"/>
                  </angle>
                  <angle>
                    <activevideoangle>false</activevideoangle>
                    <activeaudioangle>false</activeaudioangle>
                    <clip id="clip-3"/>
                  </angle>
                  <angle>
                    <activevideoangle>false</activevideoangle>
                    <activeaudioangle>false</activeaudioangle>
                    <clip id="clip-4"/>
                  </angle>
                  <angle>
                    <activevideoangle>false</activevideoangle>
                    <activeaudioangle>false</activeaudioangle>
                    <clip id="clip-5"/>
                  </angle>
                  <angle>
                    <activevideoangle>false</activevideoangle>
                    <activeaudioangle>false</activeaudioangle>
                    <clip id="clip-6"/>
                  </angle>
                  <angle>
                    <activevideoangle>false</activevideoangle>
                    <activeaudioangle>false</activeaudioangle>
                    <clip id="clip-7"/>
                  </angle>
                  <masterclipid>clip-master</masterclipid>
                </multiclip>
              </clipitem>
              <clipitem id="cs-1007">
                <duration>110</duration>
                <rate>
                  <ntsc>false</ntsc>
                  <timebase>25</timebase>
                </rate>
                <in>65576</in>
                <out>65685</out>
                <start>65576</start>
                <end>65685</end>
                <file id="src-4"/>
                <sourcetrack>
                  <mediatype>video</mediatype>
                  <trackindex>1</trackindex>
                </sourcetrack>
                <multiclip id="mcs-1007">
                  <name>MCS-1007</name>
                  <masterclipid>clip-master</masterclipid>
                  <collapsed>false</collapsed>
                  <angle>
                    <activevideoangle>false</activevideoangle>
                    <activeaudioangle>false</activeaudioangle>
                    <clip id="clip-1"/>
                  </angle>
                  <angle>
                    <activevideoangle>false</activevideoangle>
                    <activeaudioangle>false</activeaudioangle>
                    <clip id="clip-2"/>
                  </angle>
                  <angle>
                    <activevideoangle>false</activevideoangle>
                    <activeaudioangle>false</activeaudioangle>
                    <clip id="clip-3"/>
                  </angle>
                  <angle>
                    <activevideoangle>true</activevideoangle>
                    <activeaudioangle>true</activeaudioangle>
                    <clip id="clip-4"/>
                  </angle>
                  <angle>
                    <activevideoangle>false</activevideoangle>
                    <activeaudioangle>false</activeaudioangle>
                    <clip id="clip-5"/>
                  </angle>
                  <angle>
                    <activevideoangle>false</activevideoangle>
                    <activeaudioangle>false</activeaudioangle>
                    <clip id="clip-6"/>
                  </angle>
                  <angle>
                    <activevideoangle>false</activevideoangle>
                    <activeaudioangle>false</activeaudioangle>
                    <clip id="clip-7"/>
                  </angle>
                  <masterclipid>clip-master</masterclipid>
                </multiclip>
              </clipitem>
              <clipitem id="cs-1008">
                <duration>38</duration>
                <rate>
                  <ntsc>false</ntsc>
                  <timebase>25</timebase>
                </rate>
                <in>65685</in>
                <out>65722</out>
                <start>65685</start>
                <end>65722</end>
                <file id="src-3"/>
                <sourcetrack>
                  <mediatype>video</mediatype>
                  <trackindex>1</trackindex>
                </sourcetrack>
                <multiclip id="mcs-1008">
                  <name>MCS-1008</name>
                  <masterclipid>clip-master</masterclipid>
                  <collapsed>false</collapsed>
                  <angle>
                    <activevideoangle>false</activevideoangle>
                    <activeaudioangle>false</activeaudioangle>
                    <clip id="clip-1"/>
                  </angle>
                  <angle>
                    <activevideoangle>false</activevideoangle>
                    <activeaudioangle>false</activeaudioangle>
                    <clip id="clip-2"/>
                  </angle>
                  <angle>
                    <activevideoangle>true</activevideoangle>
                    <activeaudioangle>true</activeaudioangle>
                    <clip id="clip-3"/>
                  </angle>
                  <angle>
                    <activevideoangle>false</activevideoangle>
                    <activeaudioangle>false</activeaudioangle>
                    <clip id="clip-4"/>
                  </angle>
                  <angle>
                    <activevideoangle>false</activevideoangle>
                    <activeaudioangle>false</activeaudioangle>
                    <clip id="clip-5"/>
                  </angle>
                  <angle>
                    <activevideoangle>false</activevideoangle>
                    <activeaudioangle>false</activeaudioangle>
                    <clip id="clip-6"/>
                  </angle>
                  <angle>
                    <activevideoangle>false</activevideoangle>
                    <activeaudioangle>false</activeaudioangle>
                    <clip id="clip-7"/>
                  </angle>
                  <masterclipid>clip-master</masterclipid>
                </multiclip>
              </clipitem>
              <clipitem id="cs-1009">
                <duration>108</duration>
                <rate>
                  <ntsc>false</ntsc>
                  <timebase>25</timebase>
                </rate>
                <in>65722</in>
                <out>65829</out>
                <start>65722</start>
                <end>65829</end>
                <file id="src-1"/>
                <sourcetrack>
                  <mediatype>video</mediatype>
                  <trackindex>1</trackindex>
                </sourcetrack>
                <multiclip id="mcs-1009">
                  <name>MCS-1009</name>
                  <masterclipid>clip-master</masterclipid>
                  <collapsed>false</collapsed>
                  <angle>
                    <activevideoangle>true</activevideoangle>
                    <activeaudioangle>true</activeaudioangle>
                    <clip id="clip-1"/>
                  </angle>
                  <angle>
                    <activevideoangle>false</activevideoangle>
                    <activeaudioangle>false</activeaudioangle>
                    <clip id="clip-2"/>
                  </angle>
                  <angle>
                    <activevideoangle>false</activevideoangle>
                    <activeaudioangle>false</activeaudioangle>
                    <clip id="clip-3"/>
                  </angle>
                  <angle>
                    <activevideoangle>false</activevideoangle>
                    <activeaudioangle>false</activeaudioangle>
                    <clip id="clip-4"/>
                  </angle>
                  <angle>
                    <activevideoangle>false</activevideoangle>
                    <activeaudioangle>false</activeaudioangle>
                    <clip id="clip-5"/>
                  </angle>
                  <angle>
                    <activevideoangle>false</activevideoangle>
                    <activeaudioangle>false</activeaudioangle>
                    <clip id="clip-6"/>
                  </angle>
                  <angle>
                    <activevideoangle>false</activevideoangle>
                    <activeaudioangle>false</activeaudioangle>
                    <clip id="clip-7"/>
                  </angle>
                  <masterclipid>clip-master</masterclipid>
                </multiclip>
              </clipitem>
              <clipitem id="cs-1010">
                <duration>367</duration>
                <rate>
                  <ntsc>false</ntsc>
                  <timebase>25</timebase>
                </rate>
                <in>65829</in>
                <out>66195</out>
                <start>65829</start>
                <end>66195</end>
                <file id="src-6"/>
                <sourcetrack>
                  <mediatype>video</mediatype>
                  <trackindex>1</trackindex>
                </sourcetrack>
                <multiclip id="mcs-1010">
                  <name>MCS-1010</name>
                  <masterclipid>clip-master</masterclipid>
                  <collapsed>false</collapsed>
                  <angle>
                    <activevideoangle>false</activevideoangle>
                    <activeaudioangle>false</activeaudioangle>
                    <clip id="clip-1"/>
                  </angle>
                  <angle>
                    <activevideoangle>false</activevideoangle>
                    <activeaudioangle>false</activeaudioangle>
                    <clip id="clip-2"/>
                  </angle>
                  <angle>
                    <activevideoangle>false</activevideoangle>
                    <activeaudioangle>false</activeaudioangle>
                    <clip id="clip-3"/>
                  </angle>
                  <angle>
                    <activevideoangle>false</activevideoangle>
                    <activeaudioangle>false</activeaudioangle>
                    <clip id="clip-4"/>
                  </angle>
                  <angle>
                    <activevideoangle>false</activevideoangle>
                    <activeaudioangle>false</activeaudioangle>
                    <clip id="clip-5"/>
                  </angle>
                  <angle>
                    <activevideoangle>true</activevideoangle>
                    <activeaudioangle>true</activeaudioangle>
                    <clip id="clip-6"/>
                  </angle>
                  <angle>
                    <activevideoangle>false</activevideoangle>
                    <activeaudioangle>false</activeaudioangle>
                    <clip id="clip-7"/>
                  </angle>
                  <masterclipid>clip-master</masterclipid>
                </multiclip>
              </clipitem>
              <clipitem id="cs-1011">
                <duration>372</duration>
                <rate>
                  <ntsc>false</ntsc>
                  <timebase>25</timebase>
                </rate>
                <in>66195</in>
                <out>66566</out>
                <start>66195</start>
                <end>66566</end>
                <file id="src-2"/>
                <sourcetrack>
                  <mediatype>video</mediatype>
                  <trackindex>1</trackindex>
                </sourcetrack>
                <multiclip id="mcs-1011">
                  <name>MCS-1011</name>
                  <masterclipid>clip-master</masterclipid>
                  <collapsed>false</collapsed>
                  <angle>
                    <activevideoangle>false</activevideoangle>
                    <activeaudioangle>false</activeaudioangle>
                    <clip id="clip-1"/>
                  </angle>
                  <angle>
                    <activevideoangle>true</activevideoangle>
                    <activeaudioangle>true</activeaudioangle>
                    <clip id="clip-2"/>
                  </angle>
                  <angle>
                    <activevideoangle>false</activevideoangle>
                    <activeaudioangle>false</activeaudioangle>
                    <clip id="clip-3"/>
                  </angle>
                  <angle>
                    <activevideoangle>false</activevideoangle>
                    <activeaudioangle>false</activeaudioangle>
                    <clip id="clip-4"/>
                  </angle>
                  <angle>
                    <activevideoangle>false</activevideoangle>
                    <activeaudioangle>false</activeaudioangle>
                    <clip id="clip-5"/>
                  </angle>
                  <angle>
                    <activevideoangle>false</activevideoangle>
                    <activeaudioangle>false</activeaudioangle>
                    <clip id="clip-6"/>
                  </angle>
                  <angle>
                    <activevideoangle>false</activevideoangle>
                    <activeaudioangle>false</activeaudioangle>
                    <clip id="clip-7"/>
                  </angle>
                  <masterclipid>clip-master</masterclipid>
                </multiclip>
              </clipitem>
              <clipitem id="cs-1012">
                <duration>163</duration>
                <rate>
                  <ntsc>false</ntsc>
                  <timebase>25</timebase>
                </rate>
                <in>66566</in>
                <out>66728</out>
                <start>66566</start>
                <end>66728</end>
                <file id="src-1"/>
                <sourcetrack>
                  <mediatype>video</mediatype>
                  <trackindex>1</trackindex>
                </sourcetrack>
                <multiclip id="mcs-1012">
                  <name>MCS-1012</name>
                  <masterclipid>clip-master</masterclipid>
                  <collapsed>false</collapsed>
                  <angle>
                    <activevideoangle>true</activevideoangle>
                    <activeaudioangle>true</activeaudioangle>
                    <clip id="clip-1"/>
                  </angle>
                  <angle>
                    <activevideoangle>false</activevideoangle>
                    <activeaudioangle>false</activeaudioangle>
                    <clip id="clip-2"/>
                  </angle>
                  <angle>
                    <activevideoangle>false</activevideoangle>
                    <activeaudioangle>false</activeaudioangle>
                    <clip id="clip-3"/>
                  </angle>
                  <angle>
                    <activevideoangle>false</activevideoangle>
                    <activeaudioangle>false</activeaudioangle>
                    <clip id="clip-4"/>
                  </angle>
                  <angle>
                    <activevideoangle>false</activevideoangle>
                    <activeaudioangle>false</activeaudioangle>
                    <clip id="clip-5"/>
                  </angle>
                  <angle>
                    <activevideoangle>false</activevideoangle>
                    <activeaudioangle>false</activeaudioangle>
                    <clip id="clip-6"/>
                  </angle>
                  <angle>
                    <activevideoangle>false</activevideoangle>
                    <activeaudioangle>false</activeaudioangle>
                    <clip id="clip-7"/>
                  </angle>
                  <masterclipid>clip-master</masterclipid>
                </multiclip>
              </clipitem>
              <clipitem id="cs-1013">
                <duration>122</duration>
                <rate>
                  <ntsc>false</ntsc>
                  <timebase>25</timebase>
                </rate>
                <in>66728</in>
                <out>66849</out>
                <start>66728</start>
                <end>66849</end>
                <file id="src-5"/>
                <sourcetrack>
                  <mediatype>video</mediatype>
                  <trackindex>1</trackindex>
                </sourcetrack>
                <multiclip id="mcs-1013">
                  <name>MCS-1013</name>
                  <masterclipid>clip-master</masterclipid>
                  <collapsed>false</collapsed>
                  <angle>
                    <activevideoangle>false</activevideoangle>
                    <activeaudioangle>false</activeaudioangle>
                    <clip id="clip-1"/>
                  </angle>
                  <angle>
                    <activevideoangle>false</activevideoangle>
                    <activeaudioangle>false</activeaudioangle>
                    <clip id="clip-2"/>
                  </angle>
                  <angle>
                    <activevideoangle>false</activevideoangle>
                    <activeaudioangle>false</activeaudioangle>
                    <clip id="clip-3"/>
                  </angle>
                  <angle>
                    <activevideoangle>false</activevideoangle>
                    <activeaudioangle>false</activeaudioangle>
                    <clip id="clip-4"/>
                  </angle>
                  <angle>
                    <activevideoangle>true</activevideoangle>
                    <activeaudioangle>true</activeaudioangle>
                    <clip id="clip-5"/>
                  </angle>
                  <angle>
                    <activevideoangle>false</activevideoangle>
                    <activeaudioangle>false</activeaudioangle>
                    <clip id="clip-6"/>
                  </angle>
                  <angle>
                    <activevideoangle>false</activevideoangle>
                    <activeaudioangle>false</activeaudioangle>
                    <clip id="clip-7"/>
                  </angle>
                  <masterclipid>clip-master</masterclipid>
                </multiclip>
              </clipitem>
              <clipitem id="cs-1014">
                <duration>174</duration>
                <rate>
                  <ntsc>false</ntsc>
                  <timebase>25</timebase>
                </rate>
                <in>66849</in>
                <out>67022</out>
                <start>66849</start>
                <end>67022</end>
                <file id="src-6"/>
                <sourcetrack>
                  <mediatype>video</mediatype>
                  <trackindex>1</trackindex>
                </sourcetrack>
                <multiclip id="mcs-1014">
                  <name>MCS-1014</name>
                  <masterclipid>clip-master</masterclipid>
                  <collapsed>false</collapsed>
                  <angle>
                    <activevideoangle>false</activevideoangle>
                    <activeaudioangle>false</activeaudioangle>
                    <clip id="clip-1"/>
                  </angle>
                  <angle>
                    <activevideoangle>false</activevideoangle>
                    <activeaudioangle>false</activeaudioangle>
                    <clip id="clip-2"/>
                  </angle>
                  <angle>
                    <activevideoangle>false</activevideoangle>
                    <activeaudioangle>false</activeaudioangle>
                    <clip id="clip-3"/>
                  </angle>
                  <angle>
                    <activevideoangle>false</activevideoangle>
                    <activeaudioangle>false</activeaudioangle>
                    <clip id="clip-4"/>
                  </angle>
                  <angle>
                    <activevideoangle>false</activevideoangle>
                    <activeaudioangle>false</activeaudioangle>
                    <clip id="clip-5"/>
                  </angle>
                  <angle>
                    <activevideoangle>true</activevideoangle>
                    <activeaudioangle>true</activeaudioangle>
                    <clip id="clip-6"/>
                  </angle>
                  <angle>
                    <activevideoangle>false</activevideoangle>
                    <activeaudioangle>false</activeaudioangle>
                    <clip id="clip-7"/>
                  </angle>
                  <masterclipid>clip-master</masterclipid>
                </multiclip>
              </clipitem>
              <clipitem id="cs-1015">
                <duration>485</duration>
                <rate>
                  <ntsc>false</ntsc>
                  <timebase>25</timebase>
                </rate>
                <in>67022</in>
                <out>67506</out>
                <start>67022</start>
                <end>67506</end>
                <file id="src-2"/>
                <sourcetrack>
                  <mediatype>video</mediatype>
                  <trackindex>1</trackindex>
                </sourcetrack>
                <multiclip id="mcs-1015">
                  <name>MCS-1015</name>
                  <masterclipid>clip-master</masterclipid>
                  <collapsed>false</collapsed>
                  <angle>
                    <activevideoangle>false</activevideoangle>
                    <activeaudioangle>false</activeaudioangle>
                    <clip id="clip-1"/>
                  </angle>
                  <angle>
                    <activevideoangle>true</activevideoangle>
                    <activeaudioangle>true</activeaudioangle>
                    <clip id="clip-2"/>
                  </angle>
                  <angle>
                    <activevideoangle>false</activevideoangle>
                    <activeaudioangle>false</activeaudioangle>
                    <clip id="clip-3"/>
                  </angle>
                  <angle>
                    <activevideoangle>false</activevideoangle>
                    <activeaudioangle>false</activeaudioangle>
                    <clip id="clip-4"/>
                  </angle>
                  <angle>
                    <activevideoangle>false</activevideoangle>
                    <activeaudioangle>false</activeaudioangle>
                    <clip id="clip-5"/>
                  </angle>
                  <angle>
                    <activevideoangle>false</activevideoangle>
                    <activeaudioangle>false</activeaudioangle>
                    <clip id="clip-6"/>
                  </angle>
                  <angle>
                    <activevideoangle>false</activevideoangle>
                    <activeaudioangle>false</activeaudioangle>
                    <clip id="clip-7"/>
                  </angle>
                  <masterclipid>clip-master</masterclipid>
                </multiclip>
              </clipitem>
              <clipitem id="cs-1016">
                <duration>526</duration>
                <rate>
                  <ntsc>false</ntsc>
                  <timebase>25</timebase>
                </rate>
                <in>67506</in>
                <out>68031</out>
                <start>67506</start>
                <end>68031</end>
                <file id="src-4"/>
                <sourcetrack>
                  <mediatype>video</mediatype>
                  <trackindex>1</trackindex>
                </sourcetrack>
                <multiclip id="mcs-1016">
                  <name>MCS-1016</name>
                  <masterclipid>clip-master</masterclipid>
                  <collapsed>false</collapsed>
                  <angle>
                    <activevideoangle>false</activevideoangle>
                    <activeaudioangle>false</activeaudioangle>
                    <clip id="clip-1"/>
                  </angle>
                  <angle>
                    <activevideoangle>false</activevideoangle>
                    <activeaudioangle>false</activeaudioangle>
                    <clip id="clip-2"/>
                  </angle>
                  <angle>
                    <activevideoangle>false</activevideoangle>
                    <activeaudioangle>false</activeaudioangle>
                    <clip id="clip-3"/>
                  </angle>
                  <angle>
                    <activevideoangle>true</activevideoangle>
                    <activeaudioangle>true</activeaudioangle>
                    <clip id="clip-4"/>
                  </angle>
                  <angle>
                    <activevideoangle>false</activevideoangle>
                    <activeaudioangle>false</activeaudioangle>
                    <clip id="clip-5"/>
                  </angle>
                  <angle>
                    <activevideoangle>false</activevideoangle>
                    <activeaudioangle>false</activeaudioangle>
                    <clip id="clip-6"/>
                  </angle>
                  <angle>
                    <activevideoangle>false</activevideoangle>
                    <activeaudioangle>false</activeaudioangle>
                    <clip id="clip-7"/>
                  </angle>
                  <masterclipid>clip-master</masterclipid>
                </multiclip>
              </clipitem>
              <clipitem id="cs-1017">
                <duration>160</duration>
                <rate>
                  <ntsc>false</ntsc>
                  <timebase>25</timebase>
                </rate>
                <in>68031</in>
                <out>68190</out>
                <start>68031</start>
                <end>68190</end>
                <file id="src-3"/>
                <sourcetrack>
                  <mediatype>video</mediatype>
                  <trackindex>1</trackindex>
                </sourcetrack>
                <multiclip id="mcs-1017">
                  <name>MCS-1017</name>
                  <masterclipid>clip-master</masterclipid>
                  <collapsed>false</collapsed>
                  <angle>
                    <activevideoangle>false</activevideoangle>
                    <activeaudioangle>false</activeaudioangle>
                    <clip id="clip-1"/>
                  </angle>
                  <angle>
                    <activevideoangle>false</activevideoangle>
                    <activeaudioangle>false</activeaudioangle>
                    <clip id="clip-2"/>
                  </angle>
                  <angle>
                    <activevideoangle>true</activevideoangle>
                    <activeaudioangle>true</activeaudioangle>
                    <clip id="clip-3"/>
                  </angle>
                  <angle>
                    <activevideoangle>false</activevideoangle>
                    <activeaudioangle>false</activeaudioangle>
                    <clip id="clip-4"/>
                  </angle>
                  <angle>
                    <activevideoangle>false</activevideoangle>
                    <activeaudioangle>false</activeaudioangle>
                    <clip id="clip-5"/>
                  </angle>
                  <angle>
                    <activevideoangle>false</activevideoangle>
                    <activeaudioangle>false</activeaudioangle>
                    <clip id="clip-6"/>
                  </angle>
                  <angle>
                    <activevideoangle>false</activevideoangle>
                    <activeaudioangle>false</activeaudioangle>
                    <clip id="clip-7"/>
                  </angle>
                  <masterclipid>clip-master</masterclipid>
                </multiclip>
              </clipitem>
              <clipitem id="cs-1018">
                <duration>237</duration>
                <rate>
                  <ntsc>false</ntsc>
                  <timebase>25</timebase>
                </rate>
                <in>68190</in>
                <out>68426</out>
                <start>68190</start>
                <end>68426</end>
                <file id="src-2"/>
                <sourcetrack>
                  <mediatype>video</mediatype>
                  <trackindex>1</trackindex>
                </sourcetrack>
                <multiclip id="mcs-1018">
                  <name>MCS-1018</name>
                  <masterclipid>clip-master</masterclipid>
                  <collapsed>false</collapsed>
                  <angle>
                    <activevideoangle>false</activevideoangle>
                    <activeaudioangle>false</activeaudioangle>
                    <clip id="clip-1"/>
                  </angle>
                  <angle>
                    <activevideoangle>true</activevideoangle>
                    <activeaudioangle>true</activeaudioangle>
                    <clip id="clip-2"/>
                  </angle>
                  <angle>
                    <activevideoangle>false</activevideoangle>
                    <activeaudioangle>false</activeaudioangle>
                    <clip id="clip-3"/>
                  </angle>
                  <angle>
                    <activevideoangle>false</activevideoangle>
                    <activeaudioangle>false</activeaudioangle>
                    <clip id="clip-4"/>
                  </angle>
                  <angle>
                    <activevideoangle>false</activevideoangle>
                    <activeaudioangle>false</activeaudioangle>
                    <clip id="clip-5"/>
                  </angle>
                  <angle>
                    <activevideoangle>false</activevideoangle>
                    <activeaudioangle>false</activeaudioangle>
                    <clip id="clip-6"/>
                  </angle>
                  <angle>
                    <activevideoangle>false</activevideoangle>
                    <activeaudioangle>false</activeaudioangle>
                    <clip id="clip-7"/>
                  </angle>
                  <masterclipid>clip-master</masterclipid>
                </multiclip>
              </clipitem>
              <clipitem id="cs-1019">
                <duration>353</duration>
                <rate>
                  <ntsc>false</ntsc>
                  <timebase>25</timebase>
                </rate>
                <in>68426</in>
                <out>68778</out>
                <start>68426</start>
                <end>68778</end>
                <file id="src-5"/>
                <sourcetrack>
                  <mediatype>video</mediatype>
                  <trackindex>1</trackindex>
                </sourcetrack>
                <multiclip id="mcs-1019">
                  <name>MCS-1019</name>
                  <masterclipid>clip-master</masterclipid>
                  <collapsed>false</collapsed>
                  <angle>
                    <activevideoangle>false</activevideoangle>
                    <activeaudioangle>false</activeaudioangle>
                    <clip id="clip-1"/>
                  </angle>
                  <angle>
                    <activevideoangle>false</activevideoangle>
                    <activeaudioangle>false</activeaudioangle>
                    <clip id="clip-2"/>
                  </angle>
                  <angle>
                    <activevideoangle>false</activevideoangle>
                    <activeaudioangle>false</activeaudioangle>
                    <clip id="clip-3"/>
                  </angle>
                  <angle>
                    <activevideoangle>false</activevideoangle>
                    <activeaudioangle>false</activeaudioangle>
                    <clip id="clip-4"/>
                  </angle>
                  <angle>
                    <activevideoangle>true</activevideoangle>
                    <activeaudioangle>true</activeaudioangle>
                    <clip id="clip-5"/>
                  </angle>
                  <angle>
                    <activevideoangle>false</activevideoangle>
                    <activeaudioangle>false</activeaudioangle>
                    <clip id="clip-6"/>
                  </angle>
                  <angle>
                    <activevideoangle>false</activevideoangle>
                    <activeaudioangle>false</activeaudioangle>
                    <clip id="clip-7"/>
                  </angle>
                  <masterclipid>clip-master</masterclipid>
                </multiclip>
              </clipitem>
              <clipitem id="cs-1020">
                <duration>208</duration>
                <rate>
                  <ntsc>false</ntsc>
                  <timebase>25</timebase>
                </rate>
                <in>68778</in>
                <out>68985</out>
                <start>68778</start>
                <end>68985</end>
                <file id="src-2"/>
                <sourcetrack>
                  <mediatype>video</mediatype>
                  <trackindex>1</trackindex>
                </sourcetrack>
                <multiclip id="mcs-1020">
                  <name>MCS-1020</name>
                  <masterclipid>clip-master</masterclipid>
                  <collapsed>false</collapsed>
                  <angle>
                    <activevideoangle>false</activevideoangle>
                    <activeaudioangle>false</activeaudioangle>
                    <clip id="clip-1"/>
                  </angle>
                  <angle>
                    <activevideoangle>true</activevideoangle>
                    <activeaudioangle>true</activeaudioangle>
                    <clip id="clip-2"/>
                  </angle>
                  <angle>
                    <activevideoangle>false</activevideoangle>
                    <activeaudioangle>false</activeaudioangle>
                    <clip id="clip-3"/>
                  </angle>
                  <angle>
                    <activevideoangle>false</activevideoangle>
                    <activeaudioangle>false</activeaudioangle>
                    <clip id="clip-4"/>
                  </angle>
                  <angle>
                    <activevideoangle>false</activevideoangle>
                    <activeaudioangle>false</activeaudioangle>
                    <clip id="clip-5"/>
                  </angle>
                  <angle>
                    <activevideoangle>false</activevideoangle>
                    <activeaudioangle>false</activeaudioangle>
                    <clip id="clip-6"/>
                  </angle>
                  <angle>
                    <activevideoangle>false</activevideoangle>
                    <activeaudioangle>false</activeaudioangle>
                    <clip id="clip-7"/>
                  </angle>
                  <masterclipid>clip-master</masterclipid>
                </multiclip>
              </clipitem>
              <clipitem id="cs-1021">
                <duration>268</duration>
                <rate>
                  <ntsc>false</ntsc>
                  <timebase>25</timebase>
                </rate>
                <in>68985</in>
                <out>69252</out>
                <start>68985</start>
                <end>69252</end>
                <file id="src-6"/>
                <sourcetrack>
                  <mediatype>video</mediatype>
                  <trackindex>1</trackindex>
                </sourcetrack>
                <multiclip id="mcs-1021">
                  <name>MCS-1021</name>
                  <masterclipid>clip-master</masterclipid>
                  <collapsed>false</collapsed>
                  <angle>
                    <activevideoangle>false</activevideoangle>
                    <activeaudioangle>false</activeaudioangle>
                    <clip id="clip-1"/>
                  </angle>
                  <angle>
                    <activevideoangle>false</activevideoangle>
                    <activeaudioangle>false</activeaudioangle>
                    <clip id="clip-2"/>
                  </angle>
                  <angle>
                    <activevideoangle>false</activevideoangle>
                    <activeaudioangle>false</activeaudioangle>
                    <clip id="clip-3"/>
                  </angle>
                  <angle>
                    <activevideoangle>false</activevideoangle>
                    <activeaudioangle>false</activeaudioangle>
                    <clip id="clip-4"/>
                  </angle>
                  <angle>
                    <activevideoangle>false</activevideoangle>
                    <activeaudioangle>false</activeaudioangle>
                    <clip id="clip-5"/>
                  </angle>
                  <angle>
                    <activevideoangle>true</activevideoangle>
                    <activeaudioangle>true</activeaudioangle>
                    <clip id="clip-6"/>
                  </angle>
                  <angle>
                    <activevideoangle>false</activevideoangle>
                    <activeaudioangle>false</activeaudioangle>
                    <clip id="clip-7"/>
                  </angle>
                  <masterclipid>clip-master</masterclipid>
                </multiclip>
              </clipitem>
              <clipitem id="cs-1022">
                <duration>88</duration>
                <rate>
                  <ntsc>false</ntsc>
                  <timebase>25</timebase>
                </rate>
                <in>69252</in>
                <out>69339</out>
                <start>69252</start>
                <end>69339</end>
                <file id="src-1"/>
                <sourcetrack>
                  <mediatype>video</mediatype>
                  <trackindex>1</trackindex>
                </sourcetrack>
                <multiclip id="mcs-1022">
                  <name>MCS-1022</name>
                  <masterclipid>clip-master</masterclipid>
                  <collapsed>false</collapsed>
                  <angle>
                    <activevideoangle>true</activevideoangle>
                    <activeaudioangle>true</activeaudioangle>
                    <clip id="clip-1"/>
                  </angle>
                  <angle>
                    <activevideoangle>false</activevideoangle>
                    <activeaudioangle>false</activeaudioangle>
                    <clip id="clip-2"/>
                  </angle>
                  <angle>
                    <activevideoangle>false</activevideoangle>
                    <activeaudioangle>false</activeaudioangle>
                    <clip id="clip-3"/>
                  </angle>
                  <angle>
                    <activevideoangle>false</activevideoangle>
                    <activeaudioangle>false</activeaudioangle>
                    <clip id="clip-4"/>
                  </angle>
                  <angle>
                    <activevideoangle>false</activevideoangle>
                    <activeaudioangle>false</activeaudioangle>
                    <clip id="clip-5"/>
                  </angle>
                  <angle>
                    <activevideoangle>false</activevideoangle>
                    <activeaudioangle>false</activeaudioangle>
                    <clip id="clip-6"/>
                  </angle>
                  <angle>
                    <activevideoangle>false</activevideoangle>
                    <activeaudioangle>false</activeaudioangle>
                    <clip id="clip-7"/>
                  </angle>
                  <masterclipid>clip-master</masterclipid>
                </multiclip>
              </clipitem>
              <clipitem id="cs-1023">
                <duration>135</duration>
                <rate>
                  <ntsc>false</ntsc>
                  <timebase>25</timebase>
                </rate>
                <in>69339</in>
                <out>69473</out>
                <start>69339</start>
                <end>69473</end>
                <file id="src-4"/>
                <sourcetrack>
                  <mediatype>video</mediatype>
                  <trackindex>1</trackindex>
                </sourcetrack>
                <multiclip id="mcs-1023">
                  <name>MCS-1023</name>
                  <masterclipid>clip-master</masterclipid>
                  <collapsed>false</collapsed>
                  <angle>
                    <activevideoangle>false</activevideoangle>
                    <activeaudioangle>false</activeaudioangle>
                    <clip id="clip-1"/>
                  </angle>
                  <angle>
                    <activevideoangle>false</activevideoangle>
                    <activeaudioangle>false</activeaudioangle>
                    <clip id="clip-2"/>
                  </angle>
                  <angle>
                    <activevideoangle>false</activevideoangle>
                    <activeaudioangle>false</activeaudioangle>
                    <clip id="clip-3"/>
                  </angle>
                  <angle>
                    <activevideoangle>true</activevideoangle>
                    <activeaudioangle>true</activeaudioangle>
                    <clip id="clip-4"/>
                  </angle>
                  <angle>
                    <activevideoangle>false</activevideoangle>
                    <activeaudioangle>false</activeaudioangle>
                    <clip id="clip-5"/>
                  </angle>
                  <angle>
                    <activevideoangle>false</activevideoangle>
                    <activeaudioangle>false</activeaudioangle>
                    <clip id="clip-6"/>
                  </angle>
                  <angle>
                    <activevideoangle>false</activevideoangle>
                    <activeaudioangle>false</activeaudioangle>
                    <clip id="clip-7"/>
                  </angle>
                  <masterclipid>clip-master</masterclipid>
                </multiclip>
              </clipitem>
              <clipitem id="cs-1024">
                <duration>117</duration>
                <rate>
                  <ntsc>false</ntsc>
                  <timebase>25</timebase>
                </rate>
                <in>69473</in>
                <out>69589</out>
                <start>69473</start>
                <end>69589</end>
                <file id="src-5"/>
                <sourcetrack>
                  <mediatype>video</mediatype>
                  <trackindex>1</trackindex>
                </sourcetrack>
                <multiclip id="mcs-1024">
                  <name>MCS-1024</name>
                  <masterclipid>clip-master</masterclipid>
                  <collapsed>false</collapsed>
                  <angle>
                    <activevideoangle>false</activevideoangle>
                    <activeaudioangle>false</activeaudioangle>
                    <clip id="clip-1"/>
                  </angle>
                  <angle>
                    <activevideoangle>false</activevideoangle>
                    <activeaudioangle>false</activeaudioangle>
                    <clip id="clip-2"/>
                  </angle>
                  <angle>
                    <activevideoangle>false</activevideoangle>
                    <activeaudioangle>false</activeaudioangle>
                    <clip id="clip-3"/>
                  </angle>
                  <angle>
                    <activevideoangle>false</activevideoangle>
                    <activeaudioangle>false</activeaudioangle>
                    <clip id="clip-4"/>
                  </angle>
                  <angle>
                    <activevideoangle>true</activevideoangle>
                    <activeaudioangle>true</activeaudioangle>
                    <clip id="clip-5"/>
                  </angle>
                  <angle>
                    <activevideoangle>false</activevideoangle>
                    <activeaudioangle>false</activeaudioangle>
                    <clip id="clip-6"/>
                  </angle>
                  <angle>
                    <activevideoangle>false</activevideoangle>
                    <activeaudioangle>false</activeaudioangle>
                    <clip id="clip-7"/>
                  </angle>
                  <masterclipid>clip-master</masterclipid>
                </multiclip>
              </clipitem>
              <clipitem id="cs-1025">
                <duration>156</duration>
                <rate>
                  <ntsc>false</ntsc>
                  <timebase>25</timebase>
                </rate>
                <in>69589</in>
                <out>69744</out>
                <start>69589</start>
                <end>69744</end>
                <file id="src-2"/>
                <sourcetrack>
                  <mediatype>video</mediatype>
                  <trackindex>1</trackindex>
                </sourcetrack>
                <multiclip id="mcs-1025">
                  <name>MCS-1025</name>
                  <masterclipid>clip-master</masterclipid>
                  <collapsed>false</collapsed>
                  <angle>
                    <activevideoangle>false</activevideoangle>
                    <activeaudioangle>false</activeaudioangle>
                    <clip id="clip-1"/>
                  </angle>
                  <angle>
                    <activevideoangle>true</activevideoangle>
                    <activeaudioangle>true</activeaudioangle>
                    <clip id="clip-2"/>
                  </angle>
                  <angle>
                    <activevideoangle>false</activevideoangle>
                    <activeaudioangle>false</activeaudioangle>
                    <clip id="clip-3"/>
                  </angle>
                  <angle>
                    <activevideoangle>false</activevideoangle>
                    <activeaudioangle>false</activeaudioangle>
                    <clip id="clip-4"/>
                  </angle>
                  <angle>
                    <activevideoangle>false</activevideoangle>
                    <activeaudioangle>false</activeaudioangle>
                    <clip id="clip-5"/>
                  </angle>
                  <angle>
                    <activevideoangle>false</activevideoangle>
                    <activeaudioangle>false</activeaudioangle>
                    <clip id="clip-6"/>
                  </angle>
                  <angle>
                    <activevideoangle>false</activevideoangle>
                    <activeaudioangle>false</activeaudioangle>
                    <clip id="clip-7"/>
                  </angle>
                  <masterclipid>clip-master</masterclipid>
                </multiclip>
              </clipitem>
              <clipitem id="cs-1026">
                <duration>163</duration>
                <rate>
                  <ntsc>false</ntsc>
                  <timebase>25</timebase>
                </rate>
                <in>69744</in>
                <out>69906</out>
                <start>69744</start>
                <end>69906</end>
                <file id="src-6"/>
                <sourcetrack>
                  <mediatype>video</mediatype>
                  <trackindex>1</trackindex>
                </sourcetrack>
                <multiclip id="mcs-1026">
                  <name>MCS-1026</name>
                  <masterclipid>clip-master</masterclipid>
                  <collapsed>false</collapsed>
                  <angle>
                    <activevideoangle>false</activevideoangle>
                    <activeaudioangle>false</activeaudioangle>
                    <clip id="clip-1"/>
                  </angle>
                  <angle>
                    <activevideoangle>false</activevideoangle>
                    <activeaudioangle>false</activeaudioangle>
                    <clip id="clip-2"/>
                  </angle>
                  <angle>
                    <activevideoangle>false</activevideoangle>
                    <activeaudioangle>false</activeaudioangle>
                    <clip id="clip-3"/>
                  </angle>
                  <angle>
                    <activevideoangle>false</activevideoangle>
                    <activeaudioangle>false</activeaudioangle>
                    <clip id="clip-4"/>
                  </angle>
                  <angle>
                    <activevideoangle>false</activevideoangle>
                    <activeaudioangle>false</activeaudioangle>
                    <clip id="clip-5"/>
                  </angle>
                  <angle>
                    <activevideoangle>true</activevideoangle>
                    <activeaudioangle>true</activeaudioangle>
                    <clip id="clip-6"/>
                  </angle>
                  <angle>
                    <activevideoangle>false</activevideoangle>
                    <activeaudioangle>false</activeaudioangle>
                    <clip id="clip-7"/>
                  </angle>
                  <masterclipid>clip-master</masterclipid>
                </multiclip>
              </clipitem>
              <clipitem id="cs-1027">
                <duration>222</duration>
                <rate>
                  <ntsc>false</ntsc>
                  <timebase>25</timebase>
                </rate>
                <in>69906</in>
                <out>70127</out>
                <start>69906</start>
                <end>70127</end>
                <file id="src-4"/>
                <sourcetrack>
                  <mediatype>video</mediatype>
                  <trackindex>1</trackindex>
                </sourcetrack>
                <multiclip id="mcs-1027">
                  <name>MCS-1027</name>
                  <masterclipid>clip-master</masterclipid>
                  <collapsed>false</collapsed>
                  <angle>
                    <activevideoangle>false</activevideoangle>
                    <activeaudioangle>false</activeaudioangle>
                    <clip id="clip-1"/>
                  </angle>
                  <angle>
                    <activevideoangle>false</activevideoangle>
                    <activeaudioangle>false</activeaudioangle>
                    <clip id="clip-2"/>
                  </angle>
                  <angle>
                    <activevideoangle>false</activevideoangle>
                    <activeaudioangle>false</activeaudioangle>
                    <clip id="clip-3"/>
                  </angle>
                  <angle>
                    <activevideoangle>true</activevideoangle>
                    <activeaudioangle>true</activeaudioangle>
                    <clip id="clip-4"/>
                  </angle>
                  <angle>
                    <activevideoangle>false</activevideoangle>
                    <activeaudioangle>false</activeaudioangle>
                    <clip id="clip-5"/>
                  </angle>
                  <angle>
                    <activevideoangle>false</activevideoangle>
                    <activeaudioangle>false</activeaudioangle>
                    <clip id="clip-6"/>
                  </angle>
                  <angle>
                    <activevideoangle>false</activevideoangle>
                    <activeaudioangle>false</activeaudioangle>
                    <clip id="clip-7"/>
                  </angle>
                  <masterclipid>clip-master</masterclipid>
                </multiclip>
              </clipitem>
              <clipitem id="cs-1028">
                <duration>230</duration>
                <rate>
                  <ntsc>false</ntsc>
                  <timebase>25</timebase>
                </rate>
                <in>70127</in>
                <out>70356</out>
                <start>70127</start>
                <end>70356</end>
                <file id="src-2"/>
                <sourcetrack>
                  <mediatype>video</mediatype>
                  <trackindex>1</trackindex>
                </sourcetrack>
                <multiclip id="mcs-1028">
                  <name>MCS-1028</name>
                  <masterclipid>clip-master</masterclipid>
                  <collapsed>false</collapsed>
                  <angle>
                    <activevideoangle>false</activevideoangle>
                    <activeaudioangle>false</activeaudioangle>
                    <clip id="clip-1"/>
                  </angle>
                  <angle>
                    <activevideoangle>true</activevideoangle>
                    <activeaudioangle>true</activeaudioangle>
                    <clip id="clip-2"/>
                  </angle>
                  <angle>
                    <activevideoangle>false</activevideoangle>
                    <activeaudioangle>false</activeaudioangle>
                    <clip id="clip-3"/>
                  </angle>
                  <angle>
                    <activevideoangle>false</activevideoangle>
                    <activeaudioangle>false</activeaudioangle>
                    <clip id="clip-4"/>
                  </angle>
                  <angle>
                    <activevideoangle>false</activevideoangle>
                    <activeaudioangle>false</activeaudioangle>
                    <clip id="clip-5"/>
                  </angle>
                  <angle>
                    <activevideoangle>false</activevideoangle>
                    <activeaudioangle>false</activeaudioangle>
                    <clip id="clip-6"/>
                  </angle>
                  <angle>
                    <activevideoangle>false</activevideoangle>
                    <activeaudioangle>false</activeaudioangle>
                    <clip id="clip-7"/>
                  </angle>
                  <masterclipid>clip-master</masterclipid>
                </multiclip>
              </clipitem>
              <clipitem id="cs-1029">
                <duration>439</duration>
                <rate>
                  <ntsc>false</ntsc>
                  <timebase>25</timebase>
                </rate>
                <in>70356</in>
                <out>70794</out>
                <start>70356</start>
                <end>70794</end>
                <file id="src-1"/>
                <sourcetrack>
                  <mediatype>video</mediatype>
                  <trackindex>1</trackindex>
                </sourcetrack>
                <multiclip id="mcs-1029">
                  <name>MCS-1029</name>
                  <masterclipid>clip-master</masterclipid>
                  <collapsed>false</collapsed>
                  <angle>
                    <activevideoangle>true</activevideoangle>
                    <activeaudioangle>true</activeaudioangle>
                    <clip id="clip-1"/>
                  </angle>
                  <angle>
                    <activevideoangle>false</activevideoangle>
                    <activeaudioangle>false</activeaudioangle>
                    <clip id="clip-2"/>
                  </angle>
                  <angle>
                    <activevideoangle>false</activevideoangle>
                    <activeaudioangle>false</activeaudioangle>
                    <clip id="clip-3"/>
                  </angle>
                  <angle>
                    <activevideoangle>false</activevideoangle>
                    <activeaudioangle>false</activeaudioangle>
                    <clip id="clip-4"/>
                  </angle>
                  <angle>
                    <activevideoangle>false</activevideoangle>
                    <activeaudioangle>false</activeaudioangle>
                    <clip id="clip-5"/>
                  </angle>
                  <angle>
                    <activevideoangle>false</activevideoangle>
                    <activeaudioangle>false</activeaudioangle>
                    <clip id="clip-6"/>
                  </angle>
                  <angle>
                    <activevideoangle>false</activevideoangle>
                    <activeaudioangle>false</activeaudioangle>
                    <clip id="clip-7"/>
                  </angle>
                  <masterclipid>clip-master</masterclipid>
                </multiclip>
              </clipitem>
              <clipitem id="cs-1030">
                <duration>309</duration>
                <rate>
                  <ntsc>false</ntsc>
                  <timebase>25</timebase>
                </rate>
                <in>70794</in>
                <out>71102</out>
                <start>70794</start>
                <end>71102</end>
                <file id="src-4"/>
                <sourcetrack>
                  <mediatype>video</mediatype>
                  <trackindex>1</trackindex>
                </sourcetrack>
                <multiclip id="mcs-1030">
                  <name>MCS-1030</name>
                  <masterclipid>clip-master</masterclipid>
                  <collapsed>false</collapsed>
                  <angle>
                    <activevideoangle>false</activevideoangle>
                    <activeaudioangle>false</activeaudioangle>
                    <clip id="clip-1"/>
                  </angle>
                  <angle>
                    <activevideoangle>false</activevideoangle>
                    <activeaudioangle>false</activeaudioangle>
                    <clip id="clip-2"/>
                  </angle>
                  <angle>
                    <activevideoangle>false</activevideoangle>
                    <activeaudioangle>false</activeaudioangle>
                    <clip id="clip-3"/>
                  </angle>
                  <angle>
                    <activevideoangle>true</activevideoangle>
                    <activeaudioangle>true</activeaudioangle>
                    <clip id="clip-4"/>
                  </angle>
                  <angle>
                    <activevideoangle>false</activevideoangle>
                    <activeaudioangle>false</activeaudioangle>
                    <clip id="clip-5"/>
                  </angle>
                  <angle>
                    <activevideoangle>false</activevideoangle>
                    <activeaudioangle>false</activeaudioangle>
                    <clip id="clip-6"/>
                  </angle>
                  <angle>
                    <activevideoangle>false</activevideoangle>
                    <activeaudioangle>false</activeaudioangle>
                    <clip id="clip-7"/>
                  </angle>
                  <masterclipid>clip-master</masterclipid>
                </multiclip>
              </clipitem>
              <clipitem id="cs-1031">
                <duration>282</duration>
                <rate>
                  <ntsc>false</ntsc>
                  <timebase>25</timebase>
                </rate>
                <in>71102</in>
                <out>71383</out>
                <start>71102</start>
                <end>71383</end>
                <file id="src-2"/>
                <sourcetrack>
                  <mediatype>video</mediatype>
                  <trackindex>1</trackindex>
                </sourcetrack>
                <multiclip id="mcs-1031">
                  <name>MCS-1031</name>
                  <masterclipid>clip-master</masterclipid>
                  <collapsed>false</collapsed>
                  <angle>
                    <activevideoangle>false</activevideoangle>
                    <activeaudioangle>false</activeaudioangle>
                    <clip id="clip-1"/>
                  </angle>
                  <angle>
                    <activevideoangle>true</activevideoangle>
                    <activeaudioangle>true</activeaudioangle>
                    <clip id="clip-2"/>
                  </angle>
                  <angle>
                    <activevideoangle>false</activevideoangle>
                    <activeaudioangle>false</activeaudioangle>
                    <clip id="clip-3"/>
                  </angle>
                  <angle>
                    <activevideoangle>false</activevideoangle>
                    <activeaudioangle>false</activeaudioangle>
                    <clip id="clip-4"/>
                  </angle>
                  <angle>
                    <activevideoangle>false</activevideoangle>
                    <activeaudioangle>false</activeaudioangle>
                    <clip id="clip-5"/>
                  </angle>
                  <angle>
                    <activevideoangle>false</activevideoangle>
                    <activeaudioangle>false</activeaudioangle>
                    <clip id="clip-6"/>
                  </angle>
                  <angle>
                    <activevideoangle>false</activevideoangle>
                    <activeaudioangle>false</activeaudioangle>
                    <clip id="clip-7"/>
                  </angle>
                  <masterclipid>clip-master</masterclipid>
                </multiclip>
              </clipitem>
              <clipitem id="cs-1032">
                <duration>156</duration>
                <rate>
                  <ntsc>false</ntsc>
                  <timebase>25</timebase>
                </rate>
                <in>71383</in>
                <out>71538</out>
                <start>71383</start>
                <end>71538</end>
                <file id="src-3"/>
                <sourcetrack>
                  <mediatype>video</mediatype>
                  <trackindex>1</trackindex>
                </sourcetrack>
                <multiclip id="mcs-1032">
                  <name>MCS-1032</name>
                  <masterclipid>clip-master</masterclipid>
                  <collapsed>false</collapsed>
                  <angle>
                    <activevideoangle>false</activevideoangle>
                    <activeaudioangle>false</activeaudioangle>
                    <clip id="clip-1"/>
                  </angle>
                  <angle>
                    <activevideoangle>false</activevideoangle>
                    <activeaudioangle>false</activeaudioangle>
                    <clip id="clip-2"/>
                  </angle>
                  <angle>
                    <activevideoangle>true</activevideoangle>
                    <activeaudioangle>true</activeaudioangle>
                    <clip id="clip-3"/>
                  </angle>
                  <angle>
                    <activevideoangle>false</activevideoangle>
                    <activeaudioangle>false</activeaudioangle>
                    <clip id="clip-4"/>
                  </angle>
                  <angle>
                    <activevideoangle>false</activevideoangle>
                    <activeaudioangle>false</activeaudioangle>
                    <clip id="clip-5"/>
                  </angle>
                  <angle>
                    <activevideoangle>false</activevideoangle>
                    <activeaudioangle>false</activeaudioangle>
                    <clip id="clip-6"/>
                  </angle>
                  <angle>
                    <activevideoangle>false</activevideoangle>
                    <activeaudioangle>false</activeaudioangle>
                    <clip id="clip-7"/>
                  </angle>
                  <masterclipid>clip-master</masterclipid>
                </multiclip>
              </clipitem>
              <clipitem id="cs-1033">
                <duration>157</duration>
                <rate>
                  <ntsc>false</ntsc>
                  <timebase>25</timebase>
                </rate>
                <in>71538</in>
                <out>71694</out>
                <start>71538</start>
                <end>71694</end>
                <file id="src-5"/>
                <sourcetrack>
                  <mediatype>video</mediatype>
                  <trackindex>1</trackindex>
                </sourcetrack>
                <multiclip id="mcs-1033">
                  <name>MCS-1033</name>
                  <masterclipid>clip-master</masterclipid>
                  <collapsed>false</collapsed>
                  <angle>
                    <activevideoangle>false</activevideoangle>
                    <activeaudioangle>false</activeaudioangle>
                    <clip id="clip-1"/>
                  </angle>
                  <angle>
                    <activevideoangle>false</activevideoangle>
                    <activeaudioangle>false</activeaudioangle>
                    <clip id="clip-2"/>
                  </angle>
                  <angle>
                    <activevideoangle>false</activevideoangle>
                    <activeaudioangle>false</activeaudioangle>
                    <clip id="clip-3"/>
                  </angle>
                  <angle>
                    <activevideoangle>false</activevideoangle>
                    <activeaudioangle>false</activeaudioangle>
                    <clip id="clip-4"/>
                  </angle>
                  <angle>
                    <activevideoangle>true</activevideoangle>
                    <activeaudioangle>true</activeaudioangle>
                    <clip id="clip-5"/>
                  </angle>
                  <angle>
                    <activevideoangle>false</activevideoangle>
                    <activeaudioangle>false</activeaudioangle>
                    <clip id="clip-6"/>
                  </angle>
                  <angle>
                    <activevideoangle>false</activevideoangle>
                    <activeaudioangle>false</activeaudioangle>
                    <clip id="clip-7"/>
                  </angle>
                  <masterclipid>clip-master</masterclipid>
                </multiclip>
              </clipitem>
              <clipitem id="cs-1034">
                <duration>229</duration>
                <rate>
                  <ntsc>false</ntsc>
                  <timebase>25</timebase>
                </rate>
                <in>71694</in>
                <out>71922</out>
                <start>71694</start>
                <end>71922</end>
                <file id="src-2"/>
                <sourcetrack>
                  <mediatype>video</mediatype>
                  <trackindex>1</trackindex>
                </sourcetrack>
                <multiclip id="mcs-1034">
                  <name>MCS-1034</name>
                  <masterclipid>clip-master</masterclipid>
                  <collapsed>false</collapsed>
                  <angle>
                    <activevideoangle>false</activevideoangle>
                    <activeaudioangle>false</activeaudioangle>
                    <clip id="clip-1"/>
                  </angle>
                  <angle>
                    <activevideoangle>true</activevideoangle>
                    <activeaudioangle>true</activeaudioangle>
                    <clip id="clip-2"/>
                  </angle>
                  <angle>
                    <activevideoangle>false</activevideoangle>
                    <activeaudioangle>false</activeaudioangle>
                    <clip id="clip-3"/>
                  </angle>
                  <angle>
                    <activevideoangle>false</activevideoangle>
                    <activeaudioangle>false</activeaudioangle>
                    <clip id="clip-4"/>
                  </angle>
                  <angle>
                    <activevideoangle>false</activevideoangle>
                    <activeaudioangle>false</activeaudioangle>
                    <clip id="clip-5"/>
                  </angle>
                  <angle>
                    <activevideoangle>false</activevideoangle>
                    <activeaudioangle>false</activeaudioangle>
                    <clip id="clip-6"/>
                  </angle>
                  <angle>
                    <activevideoangle>false</activevideoangle>
                    <activeaudioangle>false</activeaudioangle>
                    <clip id="clip-7"/>
                  </angle>
                  <masterclipid>clip-master</masterclipid>
                </multiclip>
              </clipitem>
              <clipitem id="cs-1035">
                <duration>263</duration>
                <rate>
                  <ntsc>false</ntsc>
                  <timebase>25</timebase>
                </rate>
                <in>71922</in>
                <out>72184</out>
                <start>71922</start>
                <end>72184</end>
                <file id="src-3"/>
                <sourcetrack>
                  <mediatype>video</mediatype>
                  <trackindex>1</trackindex>
                </sourcetrack>
                <multiclip id="mcs-1035">
                  <name>MCS-1035</name>
                  <masterclipid>clip-master</masterclipid>
                  <collapsed>false</collapsed>
                  <angle>
                    <activevideoangle>false</activevideoangle>
                    <activeaudioangle>false</activeaudioangle>
                    <clip id="clip-1"/>
                  </angle>
                  <angle>
                    <activevideoangle>false</activevideoangle>
                    <activeaudioangle>false</activeaudioangle>
                    <clip id="clip-2"/>
                  </angle>
                  <angle>
                    <activevideoangle>true</activevideoangle>
                    <activeaudioangle>true</activeaudioangle>
                    <clip id="clip-3"/>
                  </angle>
                  <angle>
                    <activevideoangle>false</activevideoangle>
                    <activeaudioangle>false</activeaudioangle>
                    <clip id="clip-4"/>
                  </angle>
                  <angle>
                    <activevideoangle>false</activevideoangle>
                    <activeaudioangle>false</activeaudioangle>
                    <clip id="clip-5"/>
                  </angle>
                  <angle>
                    <activevideoangle>false</activevideoangle>
                    <activeaudioangle>false</activeaudioangle>
                    <clip id="clip-6"/>
                  </angle>
                  <angle>
                    <activevideoangle>false</activevideoangle>
                    <activeaudioangle>false</activeaudioangle>
                    <clip id="clip-7"/>
                  </angle>
                  <masterclipid>clip-master</masterclipid>
                </multiclip>
              </clipitem>
              <clipitem id="cs-1036">
                <duration>544</duration>
                <rate>
                  <ntsc>false</ntsc>
                  <timebase>25</timebase>
                </rate>
                <in>72184</in>
                <out>72727</out>
                <start>72184</start>
                <end>72727</end>
                <file id="src-4"/>
                <sourcetrack>
                  <mediatype>video</mediatype>
                  <trackindex>1</trackindex>
                </sourcetrack>
                <multiclip id="mcs-1036">
                  <name>MCS-1036</name>
                  <masterclipid>clip-master</masterclipid>
                  <collapsed>false</collapsed>
                  <angle>
                    <activevideoangle>false</activevideoangle>
                    <activeaudioangle>false</activeaudioangle>
                    <clip id="clip-1"/>
                  </angle>
                  <angle>
                    <activevideoangle>false</activevideoangle>
                    <activeaudioangle>false</activeaudioangle>
                    <clip id="clip-2"/>
                  </angle>
                  <angle>
                    <activevideoangle>false</activevideoangle>
                    <activeaudioangle>false</activeaudioangle>
                    <clip id="clip-3"/>
                  </angle>
                  <angle>
                    <activevideoangle>true</activevideoangle>
                    <activeaudioangle>true</activeaudioangle>
                    <clip id="clip-4"/>
                  </angle>
                  <angle>
                    <activevideoangle>false</activevideoangle>
                    <activeaudioangle>false</activeaudioangle>
                    <clip id="clip-5"/>
                  </angle>
                  <angle>
                    <activevideoangle>false</activevideoangle>
                    <activeaudioangle>false</activeaudioangle>
                    <clip id="clip-6"/>
                  </angle>
                  <angle>
                    <activevideoangle>false</activevideoangle>
                    <activeaudioangle>false</activeaudioangle>
                    <clip id="clip-7"/>
                  </angle>
                  <masterclipid>clip-master</masterclipid>
                </multiclip>
              </clipitem>
              <clipitem id="cs-1037">
                <duration>128</duration>
                <rate>
                  <ntsc>false</ntsc>
                  <timebase>25</timebase>
                </rate>
                <in>72727</in>
                <out>72854</out>
                <start>72727</start>
                <end>72854</end>
                <file id="src-1"/>
                <sourcetrack>
                  <mediatype>video</mediatype>
                  <trackindex>1</trackindex>
                </sourcetrack>
                <multiclip id="mcs-1037">
                  <name>MCS-1037</name>
                  <masterclipid>clip-master</masterclipid>
                  <collapsed>false</collapsed>
                  <angle>
                    <activevideoangle>true</activevideoangle>
                    <activeaudioangle>true</activeaudioangle>
                    <clip id="clip-1"/>
                  </angle>
                  <angle>
                    <activevideoangle>false</activevideoangle>
                    <activeaudioangle>false</activeaudioangle>
                    <clip id="clip-2"/>
                  </angle>
                  <angle>
                    <activevideoangle>false</activevideoangle>
                    <activeaudioangle>false</activeaudioangle>
                    <clip id="clip-3"/>
                  </angle>
                  <angle>
                    <activevideoangle>false</activevideoangle>
                    <activeaudioangle>false</activeaudioangle>
                    <clip id="clip-4"/>
                  </angle>
                  <angle>
                    <activevideoangle>false</activevideoangle>
                    <activeaudioangle>false</activeaudioangle>
                    <clip id="clip-5"/>
                  </angle>
                  <angle>
                    <activevideoangle>false</activevideoangle>
                    <activeaudioangle>false</activeaudioangle>
                    <clip id="clip-6"/>
                  </angle>
                  <angle>
                    <activevideoangle>false</activevideoangle>
                    <activeaudioangle>false</activeaudioangle>
                    <clip id="clip-7"/>
                  </angle>
                  <masterclipid>clip-master</masterclipid>
                </multiclip>
              </clipitem>
              <clipitem id="cs-1038">
                <duration>363</duration>
                <rate>
                  <ntsc>false</ntsc>
                  <timebase>25</timebase>
                </rate>
                <in>72854</in>
                <out>73216</out>
                <start>72854</start>
                <end>73216</end>
                <file id="src-2"/>
                <sourcetrack>
                  <mediatype>video</mediatype>
                  <trackindex>1</trackindex>
                </sourcetrack>
                <multiclip id="mcs-1038">
                  <name>MCS-1038</name>
                  <masterclipid>clip-master</masterclipid>
                  <collapsed>false</collapsed>
                  <angle>
                    <activevideoangle>false</activevideoangle>
                    <activeaudioangle>false</activeaudioangle>
                    <clip id="clip-1"/>
                  </angle>
                  <angle>
                    <activevideoangle>true</activevideoangle>
                    <activeaudioangle>true</activeaudioangle>
                    <clip id="clip-2"/>
                  </angle>
                  <angle>
                    <activevideoangle>false</activevideoangle>
                    <activeaudioangle>false</activeaudioangle>
                    <clip id="clip-3"/>
                  </angle>
                  <angle>
                    <activevideoangle>false</activevideoangle>
                    <activeaudioangle>false</activeaudioangle>
                    <clip id="clip-4"/>
                  </angle>
                  <angle>
                    <activevideoangle>false</activevideoangle>
                    <activeaudioangle>false</activeaudioangle>
                    <clip id="clip-5"/>
                  </angle>
                  <angle>
                    <activevideoangle>false</activevideoangle>
                    <activeaudioangle>false</activeaudioangle>
                    <clip id="clip-6"/>
                  </angle>
                  <angle>
                    <activevideoangle>false</activevideoangle>
                    <activeaudioangle>false</activeaudioangle>
                    <clip id="clip-7"/>
                  </angle>
                  <masterclipid>clip-master</masterclipid>
                </multiclip>
              </clipitem>
              <clipitem id="cs-1039">
                <duration>251</duration>
                <rate>
                  <ntsc>false</ntsc>
                  <timebase>25</timebase>
                </rate>
                <in>73216</in>
                <out>73466</out>
                <start>73216</start>
                <end>73466</end>
                <file id="src-5"/>
                <sourcetrack>
                  <mediatype>video</mediatype>
                  <trackindex>1</trackindex>
                </sourcetrack>
                <multiclip id="mcs-1039">
                  <name>MCS-1039</name>
                  <masterclipid>clip-master</masterclipid>
                  <collapsed>false</collapsed>
                  <angle>
                    <activevideoangle>false</activevideoangle>
                    <activeaudioangle>false</activeaudioangle>
                    <clip id="clip-1"/>
                  </angle>
                  <angle>
                    <activevideoangle>false</activevideoangle>
                    <activeaudioangle>false</activeaudioangle>
                    <clip id="clip-2"/>
                  </angle>
                  <angle>
                    <activevideoangle>false</activevideoangle>
                    <activeaudioangle>false</activeaudioangle>
                    <clip id="clip-3"/>
                  </angle>
                  <angle>
                    <activevideoangle>false</activevideoangle>
                    <activeaudioangle>false</activeaudioangle>
                    <clip id="clip-4"/>
                  </angle>
                  <angle>
                    <activevideoangle>true</activevideoangle>
                    <activeaudioangle>true</activeaudioangle>
                    <clip id="clip-5"/>
                  </angle>
                  <angle>
                    <activevideoangle>false</activevideoangle>
                    <activeaudioangle>false</activeaudioangle>
                    <clip id="clip-6"/>
                  </angle>
                  <angle>
                    <activevideoangle>false</activevideoangle>
                    <activeaudioangle>false</activeaudioangle>
                    <clip id="clip-7"/>
                  </angle>
                  <masterclipid>clip-master</masterclipid>
                </multiclip>
              </clipitem>
              <clipitem id="cs-1040">
                <duration>146</duration>
                <rate>
                  <ntsc>false</ntsc>
                  <timebase>25</timebase>
                </rate>
                <in>73466</in>
                <out>73611</out>
                <start>73466</start>
                <end>73611</end>
                <file id="src-2"/>
                <sourcetrack>
                  <mediatype>video</mediatype>
                  <trackindex>1</trackindex>
                </sourcetrack>
                <multiclip id="mcs-1040">
                  <name>MCS-1040</name>
                  <masterclipid>clip-master</masterclipid>
                  <collapsed>false</collapsed>
                  <angle>
                    <activevideoangle>false</activevideoangle>
                    <activeaudioangle>false</activeaudioangle>
                    <clip id="clip-1"/>
                  </angle>
                  <angle>
                    <activevideoangle>true</activevideoangle>
                    <activeaudioangle>true</activeaudioangle>
                    <clip id="clip-2"/>
                  </angle>
                  <angle>
                    <activevideoangle>false</activevideoangle>
                    <activeaudioangle>false</activeaudioangle>
                    <clip id="clip-3"/>
                  </angle>
                  <angle>
                    <activevideoangle>false</activevideoangle>
                    <activeaudioangle>false</activeaudioangle>
                    <clip id="clip-4"/>
                  </angle>
                  <angle>
                    <activevideoangle>false</activevideoangle>
                    <activeaudioangle>false</activeaudioangle>
                    <clip id="clip-5"/>
                  </angle>
                  <angle>
                    <activevideoangle>false</activevideoangle>
                    <activeaudioangle>false</activeaudioangle>
                    <clip id="clip-6"/>
                  </angle>
                  <angle>
                    <activevideoangle>false</activevideoangle>
                    <activeaudioangle>false</activeaudioangle>
                    <clip id="clip-7"/>
                  </angle>
                  <masterclipid>clip-master</masterclipid>
                </multiclip>
              </clipitem>
              <clipitem id="cs-1041">
                <duration>351</duration>
                <rate>
                  <ntsc>false</ntsc>
                  <timebase>25</timebase>
                </rate>
                <in>73611</in>
                <out>73961</out>
                <start>73611</start>
                <end>73961</end>
                <file id="src-3"/>
                <sourcetrack>
                  <mediatype>video</mediatype>
                  <trackindex>1</trackindex>
                </sourcetrack>
                <multiclip id="mcs-1041">
                  <name>MCS-1041</name>
                  <masterclipid>clip-master</masterclipid>
                  <collapsed>false</collapsed>
                  <angle>
                    <activevideoangle>false</activevideoangle>
                    <activeaudioangle>false</activeaudioangle>
                    <clip id="clip-1"/>
                  </angle>
                  <angle>
                    <activevideoangle>false</activevideoangle>
                    <activeaudioangle>false</activeaudioangle>
                    <clip id="clip-2"/>
                  </angle>
                  <angle>
                    <activevideoangle>true</activevideoangle>
                    <activeaudioangle>true</activeaudioangle>
                    <clip id="clip-3"/>
                  </angle>
                  <angle>
                    <activevideoangle>false</activevideoangle>
                    <activeaudioangle>false</activeaudioangle>
                    <clip id="clip-4"/>
                  </angle>
                  <angle>
                    <activevideoangle>false</activevideoangle>
                    <activeaudioangle>false</activeaudioangle>
                    <clip id="clip-5"/>
                  </angle>
                  <angle>
                    <activevideoangle>false</activevideoangle>
                    <activeaudioangle>false</activeaudioangle>
                    <clip id="clip-6"/>
                  </angle>
                  <angle>
                    <activevideoangle>false</activevideoangle>
                    <activeaudioangle>false</activeaudioangle>
                    <clip id="clip-7"/>
                  </angle>
                  <masterclipid>clip-master</masterclipid>
                </multiclip>
              </clipitem>
              <clipitem id="cs-1042">
                <duration>194</duration>
                <rate>
                  <ntsc>false</ntsc>
                  <timebase>25</timebase>
                </rate>
                <in>73961</in>
                <out>74154</out>
                <start>73961</start>
                <end>74154</end>
                <file id="src-2"/>
                <sourcetrack>
                  <mediatype>video</mediatype>
                  <trackindex>1</trackindex>
                </sourcetrack>
                <multiclip id="mcs-1042">
                  <name>MCS-1042</name>
                  <masterclipid>clip-master</masterclipid>
                  <collapsed>false</collapsed>
                  <angle>
                    <activevideoangle>false</activevideoangle>
                    <activeaudioangle>false</activeaudioangle>
                    <clip id="clip-1"/>
                  </angle>
                  <angle>
                    <activevideoangle>true</activevideoangle>
                    <activeaudioangle>true</activeaudioangle>
                    <clip id="clip-2"/>
                  </angle>
                  <angle>
                    <activevideoangle>false</activevideoangle>
                    <activeaudioangle>false</activeaudioangle>
                    <clip id="clip-3"/>
                  </angle>
                  <angle>
                    <activevideoangle>false</activevideoangle>
                    <activeaudioangle>false</activeaudioangle>
                    <clip id="clip-4"/>
                  </angle>
                  <angle>
                    <activevideoangle>false</activevideoangle>
                    <activeaudioangle>false</activeaudioangle>
                    <clip id="clip-5"/>
                  </angle>
                  <angle>
                    <activevideoangle>false</activevideoangle>
                    <activeaudioangle>false</activeaudioangle>
                    <clip id="clip-6"/>
                  </angle>
                  <angle>
                    <activevideoangle>false</activevideoangle>
                    <activeaudioangle>false</activeaudioangle>
                    <clip id="clip-7"/>
                  </angle>
                  <masterclipid>clip-master</masterclipid>
                </multiclip>
              </clipitem>
              <clipitem id="cs-1043">
                <duration>165</duration>
                <rate>
                  <ntsc>false</ntsc>
                  <timebase>25</timebase>
                </rate>
                <in>74154</in>
                <out>74318</out>
                <start>74154</start>
                <end>74318</end>
                <file id="src-6"/>
                <sourcetrack>
                  <mediatype>video</mediatype>
                  <trackindex>1</trackindex>
                </sourcetrack>
                <multiclip id="mcs-1043">
                  <name>MCS-1043</name>
                  <masterclipid>clip-master</masterclipid>
                  <collapsed>false</collapsed>
                  <angle>
                    <activevideoangle>false</activevideoangle>
                    <activeaudioangle>false</activeaudioangle>
                    <clip id="clip-1"/>
                  </angle>
                  <angle>
                    <activevideoangle>false</activevideoangle>
                    <activeaudioangle>false</activeaudioangle>
                    <clip id="clip-2"/>
                  </angle>
                  <angle>
                    <activevideoangle>false</activevideoangle>
                    <activeaudioangle>false</activeaudioangle>
                    <clip id="clip-3"/>
                  </angle>
                  <angle>
                    <activevideoangle>false</activevideoangle>
                    <activeaudioangle>false</activeaudioangle>
                    <clip id="clip-4"/>
                  </angle>
                  <angle>
                    <activevideoangle>false</activevideoangle>
                    <activeaudioangle>false</activeaudioangle>
                    <clip id="clip-5"/>
                  </angle>
                  <angle>
                    <activevideoangle>true</activevideoangle>
                    <activeaudioangle>true</activeaudioangle>
                    <clip id="clip-6"/>
                  </angle>
                  <angle>
                    <activevideoangle>false</activevideoangle>
                    <activeaudioangle>false</activeaudioangle>
                    <clip id="clip-7"/>
                  </angle>
                  <masterclipid>clip-master</masterclipid>
                </multiclip>
              </clipitem>
              <clipitem id="cs-1044">
                <duration>175</duration>
                <rate>
                  <ntsc>false</ntsc>
                  <timebase>25</timebase>
                </rate>
                <in>74318</in>
                <out>74492</out>
                <start>74318</start>
                <end>74492</end>
                <file id="src-3"/>
                <sourcetrack>
                  <mediatype>video</mediatype>
                  <trackindex>1</trackindex>
                </sourcetrack>
                <multiclip id="mcs-1044">
                  <name>MCS-1044</name>
                  <masterclipid>clip-master</masterclipid>
                  <collapsed>false</collapsed>
                  <angle>
                    <activevideoangle>false</activevideoangle>
                    <activeaudioangle>false</activeaudioangle>
                    <clip id="clip-1"/>
                  </angle>
                  <angle>
                    <activevideoangle>false</activevideoangle>
                    <activeaudioangle>false</activeaudioangle>
                    <clip id="clip-2"/>
                  </angle>
                  <angle>
                    <activevideoangle>true</activevideoangle>
                    <activeaudioangle>true</activeaudioangle>
                    <clip id="clip-3"/>
                  </angle>
                  <angle>
                    <activevideoangle>false</activevideoangle>
                    <activeaudioangle>false</activeaudioangle>
                    <clip id="clip-4"/>
                  </angle>
                  <angle>
                    <activevideoangle>false</activevideoangle>
                    <activeaudioangle>false</activeaudioangle>
                    <clip id="clip-5"/>
                  </angle>
                  <angle>
                    <activevideoangle>false</activevideoangle>
                    <activeaudioangle>false</activeaudioangle>
                    <clip id="clip-6"/>
                  </angle>
                  <angle>
                    <activevideoangle>false</activevideoangle>
                    <activeaudioangle>false</activeaudioangle>
                    <clip id="clip-7"/>
                  </angle>
                  <masterclipid>clip-master</masterclipid>
                </multiclip>
              </clipitem>
              <clipitem id="cs-1045">
                <duration>147</duration>
                <rate>
                  <ntsc>false</ntsc>
                  <timebase>25</timebase>
                </rate>
                <in>74492</in>
                <out>74638</out>
                <start>74492</start>
                <end>74638</end>
                <file id="src-2"/>
                <sourcetrack>
                  <mediatype>video</mediatype>
                  <trackindex>1</trackindex>
                </sourcetrack>
                <multiclip id="mcs-1045">
                  <name>MCS-1045</name>
                  <masterclipid>clip-master</masterclipid>
                  <collapsed>false</collapsed>
                  <angle>
                    <activevideoangle>false</activevideoangle>
                    <activeaudioangle>false</activeaudioangle>
                    <clip id="clip-1"/>
                  </angle>
                  <angle>
                    <activevideoangle>true</activevideoangle>
                    <activeaudioangle>true</activeaudioangle>
                    <clip id="clip-2"/>
                  </angle>
                  <angle>
                    <activevideoangle>false</activevideoangle>
                    <activeaudioangle>false</activeaudioangle>
                    <clip id="clip-3"/>
                  </angle>
                  <angle>
                    <activevideoangle>false</activevideoangle>
                    <activeaudioangle>false</activeaudioangle>
                    <clip id="clip-4"/>
                  </angle>
                  <angle>
                    <activevideoangle>false</activevideoangle>
                    <activeaudioangle>false</activeaudioangle>
                    <clip id="clip-5"/>
                  </angle>
                  <angle>
                    <activevideoangle>false</activevideoangle>
                    <activeaudioangle>false</activeaudioangle>
                    <clip id="clip-6"/>
                  </angle>
                  <angle>
                    <activevideoangle>false</activevideoangle>
                    <activeaudioangle>false</activeaudioangle>
                    <clip id="clip-7"/>
                  </angle>
                  <masterclipid>clip-master</masterclipid>
                </multiclip>
              </clipitem>
              <clipitem id="cs-1046">
                <duration>89</duration>
                <rate>
                  <ntsc>false</ntsc>
                  <timebase>25</timebase>
                </rate>
                <in>74638</in>
                <out>74726</out>
                <start>74638</start>
                <end>74726</end>
                <file id="src-1"/>
                <sourcetrack>
                  <mediatype>video</mediatype>
                  <trackindex>1</trackindex>
                </sourcetrack>
                <multiclip id="mcs-1046">
                  <name>MCS-1046</name>
                  <masterclipid>clip-master</masterclipid>
                  <collapsed>false</collapsed>
                  <angle>
                    <activevideoangle>true</activevideoangle>
                    <activeaudioangle>true</activeaudioangle>
                    <clip id="clip-1"/>
                  </angle>
                  <angle>
                    <activevideoangle>false</activevideoangle>
                    <activeaudioangle>false</activeaudioangle>
                    <clip id="clip-2"/>
                  </angle>
                  <angle>
                    <activevideoangle>false</activevideoangle>
                    <activeaudioangle>false</activeaudioangle>
                    <clip id="clip-3"/>
                  </angle>
                  <angle>
                    <activevideoangle>false</activevideoangle>
                    <activeaudioangle>false</activeaudioangle>
                    <clip id="clip-4"/>
                  </angle>
                  <angle>
                    <activevideoangle>false</activevideoangle>
                    <activeaudioangle>false</activeaudioangle>
                    <clip id="clip-5"/>
                  </angle>
                  <angle>
                    <activevideoangle>false</activevideoangle>
                    <activeaudioangle>false</activeaudioangle>
                    <clip id="clip-6"/>
                  </angle>
                  <angle>
                    <activevideoangle>false</activevideoangle>
                    <activeaudioangle>false</activeaudioangle>
                    <clip id="clip-7"/>
                  </angle>
                  <masterclipid>clip-master</masterclipid>
                </multiclip>
              </clipitem>
              <clipitem id="cs-1047">
                <duration>263</duration>
                <rate>
                  <ntsc>false</ntsc>
                  <timebase>25</timebase>
                </rate>
                <in>74726</in>
                <out>74988</out>
                <start>74726</start>
                <end>74988</end>
                <file id="src-6"/>
                <sourcetrack>
                  <mediatype>video</mediatype>
                  <trackindex>1</trackindex>
                </sourcetrack>
                <multiclip id="mcs-1047">
                  <name>MCS-1047</name>
                  <masterclipid>clip-master</masterclipid>
                  <collapsed>false</collapsed>
                  <angle>
                    <activevideoangle>false</activevideoangle>
                    <activeaudioangle>false</activeaudioangle>
                    <clip id="clip-1"/>
                  </angle>
                  <angle>
                    <activevideoangle>false</activevideoangle>
                    <activeaudioangle>false</activeaudioangle>
                    <clip id="clip-2"/>
                  </angle>
                  <angle>
                    <activevideoangle>false</activevideoangle>
                    <activeaudioangle>false</activeaudioangle>
                    <clip id="clip-3"/>
                  </angle>
                  <angle>
                    <activevideoangle>false</activevideoangle>
                    <activeaudioangle>false</activeaudioangle>
                    <clip id="clip-4"/>
                  </angle>
                  <angle>
                    <activevideoangle>false</activevideoangle>
                    <activeaudioangle>false</activeaudioangle>
                    <clip id="clip-5"/>
                  </angle>
                  <angle>
                    <activevideoangle>true</activevideoangle>
                    <activeaudioangle>true</activeaudioangle>
                    <clip id="clip-6"/>
                  </angle>
                  <angle>
                    <activevideoangle>false</activevideoangle>
                    <activeaudioangle>false</activeaudioangle>
                    <clip id="clip-7"/>
                  </angle>
                  <masterclipid>clip-master</masterclipid>
                </multiclip>
              </clipitem>
              <clipitem id="cs-1048">
                <duration>316</duration>
                <rate>
                  <ntsc>false</ntsc>
                  <timebase>25</timebase>
                </rate>
                <in>74988</in>
                <out>75303</out>
                <start>74988</start>
                <end>75303</end>
                <file id="src-4"/>
                <sourcetrack>
                  <mediatype>video</mediatype>
                  <trackindex>1</trackindex>
                </sourcetrack>
                <multiclip id="mcs-1048">
                  <name>MCS-1048</name>
                  <masterclipid>clip-master</masterclipid>
                  <collapsed>false</collapsed>
                  <angle>
                    <activevideoangle>false</activevideoangle>
                    <activeaudioangle>false</activeaudioangle>
                    <clip id="clip-1"/>
                  </angle>
                  <angle>
                    <activevideoangle>false</activevideoangle>
                    <activeaudioangle>false</activeaudioangle>
                    <clip id="clip-2"/>
                  </angle>
                  <angle>
                    <activevideoangle>false</activevideoangle>
                    <activeaudioangle>false</activeaudioangle>
                    <clip id="clip-3"/>
                  </angle>
                  <angle>
                    <activevideoangle>true</activevideoangle>
                    <activeaudioangle>true</activeaudioangle>
                    <clip id="clip-4"/>
                  </angle>
                  <angle>
                    <activevideoangle>false</activevideoangle>
                    <activeaudioangle>false</activeaudioangle>
                    <clip id="clip-5"/>
                  </angle>
                  <angle>
                    <activevideoangle>false</activevideoangle>
                    <activeaudioangle>false</activeaudioangle>
                    <clip id="clip-6"/>
                  </angle>
                  <angle>
                    <activevideoangle>false</activevideoangle>
                    <activeaudioangle>false</activeaudioangle>
                    <clip id="clip-7"/>
                  </angle>
                  <masterclipid>clip-master</masterclipid>
                </multiclip>
              </clipitem>
              <clipitem id="cs-1049">
                <duration>174</duration>
                <rate>
                  <ntsc>false</ntsc>
                  <timebase>25</timebase>
                </rate>
                <in>75303</in>
                <out>75476</out>
                <start>75303</start>
                <end>75476</end>
                <file id="src-3"/>
                <sourcetrack>
                  <mediatype>video</mediatype>
                  <trackindex>1</trackindex>
                </sourcetrack>
                <multiclip id="mcs-1049">
                  <name>MCS-1049</name>
                  <masterclipid>clip-master</masterclipid>
                  <collapsed>false</collapsed>
                  <angle>
                    <activevideoangle>false</activevideoangle>
                    <activeaudioangle>false</activeaudioangle>
                    <clip id="clip-1"/>
                  </angle>
                  <angle>
                    <activevideoangle>false</activevideoangle>
                    <activeaudioangle>false</activeaudioangle>
                    <clip id="clip-2"/>
                  </angle>
                  <angle>
                    <activevideoangle>true</activevideoangle>
                    <activeaudioangle>true</activeaudioangle>
                    <clip id="clip-3"/>
                  </angle>
                  <angle>
                    <activevideoangle>false</activevideoangle>
                    <activeaudioangle>false</activeaudioangle>
                    <clip id="clip-4"/>
                  </angle>
                  <angle>
                    <activevideoangle>false</activevideoangle>
                    <activeaudioangle>false</activeaudioangle>
                    <clip id="clip-5"/>
                  </angle>
                  <angle>
                    <activevideoangle>false</activevideoangle>
                    <activeaudioangle>false</activeaudioangle>
                    <clip id="clip-6"/>
                  </angle>
                  <angle>
                    <activevideoangle>false</activevideoangle>
                    <activeaudioangle>false</activeaudioangle>
                    <clip id="clip-7"/>
                  </angle>
                  <masterclipid>clip-master</masterclipid>
                </multiclip>
              </clipitem>
              <clipitem id="cs-1050">
                <duration>478</duration>
                <rate>
                  <ntsc>false</ntsc>
                  <timebase>25</timebase>
                </rate>
                <in>75476</in>
                <out>75953</out>
                <start>75476</start>
                <end>75953</end>
                <file id="src-2"/>
                <sourcetrack>
                  <mediatype>video</mediatype>
                  <trackindex>1</trackindex>
                </sourcetrack>
                <multiclip id="mcs-1050">
                  <name>MCS-1050</name>
                  <masterclipid>clip-master</masterclipid>
                  <collapsed>false</collapsed>
                  <angle>
                    <activevideoangle>false</activevideoangle>
                    <activeaudioangle>false</activeaudioangle>
                    <clip id="clip-1"/>
                  </angle>
                  <angle>
                    <activevideoangle>true</activevideoangle>
                    <activeaudioangle>true</activeaudioangle>
                    <clip id="clip-2"/>
                  </angle>
                  <angle>
                    <activevideoangle>false</activevideoangle>
                    <activeaudioangle>false</activeaudioangle>
                    <clip id="clip-3"/>
                  </angle>
                  <angle>
                    <activevideoangle>false</activevideoangle>
                    <activeaudioangle>false</activeaudioangle>
                    <clip id="clip-4"/>
                  </angle>
                  <angle>
                    <activevideoangle>false</activevideoangle>
                    <activeaudioangle>false</activeaudioangle>
                    <clip id="clip-5"/>
                  </angle>
                  <angle>
                    <activevideoangle>false</activevideoangle>
                    <activeaudioangle>false</activeaudioangle>
                    <clip id="clip-6"/>
                  </angle>
                  <angle>
                    <activevideoangle>false</activevideoangle>
                    <activeaudioangle>false</activeaudioangle>
                    <clip id="clip-7"/>
                  </angle>
                  <masterclipid>clip-master</masterclipid>
                </multiclip>
              </clipitem>
              <clipitem id="cs-1051">
                <duration>194</duration>
                <rate>
                  <ntsc>false</ntsc>
                  <timebase>25</timebase>
                </rate>
                <in>75953</in>
                <out>76146</out>
                <start>75953</start>
                <end>76146</end>
                <file id="src-5"/>
                <sourcetrack>
                  <mediatype>video</mediatype>
                  <trackindex>1</trackindex>
                </sourcetrack>
                <multiclip id="mcs-1051">
                  <name>MCS-1051</name>
                  <masterclipid>clip-master</masterclipid>
                  <collapsed>false</collapsed>
                  <angle>
                    <activevideoangle>false</activevideoangle>
                    <activeaudioangle>false</activeaudioangle>
                    <clip id="clip-1"/>
                  </angle>
                  <angle>
                    <activevideoangle>false</activevideoangle>
                    <activeaudioangle>false</activeaudioangle>
                    <clip id="clip-2"/>
                  </angle>
                  <angle>
                    <activevideoangle>false</activevideoangle>
                    <activeaudioangle>false</activeaudioangle>
                    <clip id="clip-3"/>
                  </angle>
                  <angle>
                    <activevideoangle>false</activevideoangle>
                    <activeaudioangle>false</activeaudioangle>
                    <clip id="clip-4"/>
                  </angle>
                  <angle>
                    <activevideoangle>true</activevideoangle>
                    <activeaudioangle>true</activeaudioangle>
                    <clip id="clip-5"/>
                  </angle>
                  <angle>
                    <activevideoangle>false</activevideoangle>
                    <activeaudioangle>false</activeaudioangle>
                    <clip id="clip-6"/>
                  </angle>
                  <angle>
                    <activevideoangle>false</activevideoangle>
                    <activeaudioangle>false</activeaudioangle>
                    <clip id="clip-7"/>
                  </angle>
                  <masterclipid>clip-master</masterclipid>
                </multiclip>
              </clipitem>
              <clipitem id="cs-1052">
                <duration>131</duration>
                <rate>
                  <ntsc>false</ntsc>
                  <timebase>25</timebase>
                </rate>
                <in>76146</in>
                <out>76276</out>
                <start>76146</start>
                <end>76276</end>
                <file id="src-2"/>
                <sourcetrack>
                  <mediatype>video</mediatype>
                  <trackindex>1</trackindex>
                </sourcetrack>
                <multiclip id="mcs-1052">
                  <name>MCS-1052</name>
                  <masterclipid>clip-master</masterclipid>
                  <collapsed>false</collapsed>
                  <angle>
                    <activevideoangle>false</activevideoangle>
                    <activeaudioangle>false</activeaudioangle>
                    <clip id="clip-1"/>
                  </angle>
                  <angle>
                    <activevideoangle>true</activevideoangle>
                    <activeaudioangle>true</activeaudioangle>
                    <clip id="clip-2"/>
                  </angle>
                  <angle>
                    <activevideoangle>false</activevideoangle>
                    <activeaudioangle>false</activeaudioangle>
                    <clip id="clip-3"/>
                  </angle>
                  <angle>
                    <activevideoangle>false</activevideoangle>
                    <activeaudioangle>false</activeaudioangle>
                    <clip id="clip-4"/>
                  </angle>
                  <angle>
                    <activevideoangle>false</activevideoangle>
                    <activeaudioangle>false</activeaudioangle>
                    <clip id="clip-5"/>
                  </angle>
                  <angle>
                    <activevideoangle>false</activevideoangle>
                    <activeaudioangle>false</activeaudioangle>
                    <clip id="clip-6"/>
                  </angle>
                  <angle>
                    <activevideoangle>false</activevideoangle>
                    <activeaudioangle>false</activeaudioangle>
                    <clip id="clip-7"/>
                  </angle>
                  <masterclipid>clip-master</masterclipid>
                </multiclip>
              </clipitem>
              <clipitem id="cs-1053">
                <duration>67</duration>
                <rate>
                  <ntsc>false</ntsc>
                  <timebase>25</timebase>
                </rate>
                <in>76276</in>
                <out>76342</out>
                <start>76276</start>
                <end>76342</end>
                <file id="src-1"/>
                <sourcetrack>
                  <mediatype>video</mediatype>
                  <trackindex>1</trackindex>
                </sourcetrack>
                <multiclip id="mcs-1053">
                  <name>MCS-1053</name>
                  <masterclipid>clip-master</masterclipid>
                  <collapsed>false</collapsed>
                  <angle>
                    <activevideoangle>true</activevideoangle>
                    <activeaudioangle>true</activeaudioangle>
                    <clip id="clip-1"/>
                  </angle>
                  <angle>
                    <activevideoangle>false</activevideoangle>
                    <activeaudioangle>false</activeaudioangle>
                    <clip id="clip-2"/>
                  </angle>
                  <angle>
                    <activevideoangle>false</activevideoangle>
                    <activeaudioangle>false</activeaudioangle>
                    <clip id="clip-3"/>
                  </angle>
                  <angle>
                    <activevideoangle>false</activevideoangle>
                    <activeaudioangle>false</activeaudioangle>
                    <clip id="clip-4"/>
                  </angle>
                  <angle>
                    <activevideoangle>false</activevideoangle>
                    <activeaudioangle>false</activeaudioangle>
                    <clip id="clip-5"/>
                  </angle>
                  <angle>
                    <activevideoangle>false</activevideoangle>
                    <activeaudioangle>false</activeaudioangle>
                    <clip id="clip-6"/>
                  </angle>
                  <angle>
                    <activevideoangle>false</activevideoangle>
                    <activeaudioangle>false</activeaudioangle>
                    <clip id="clip-7"/>
                  </angle>
                  <masterclipid>clip-master</masterclipid>
                </multiclip>
              </clipitem>
              <clipitem id="cs-1054">
                <duration>427</duration>
                <rate>
                  <ntsc>false</ntsc>
                  <timebase>25</timebase>
                </rate>
                <in>76342</in>
                <out>76768</out>
                <start>76342</start>
                <end>76768</end>
                <file id="src-6"/>
                <sourcetrack>
                  <mediatype>video</mediatype>
                  <trackindex>1</trackindex>
                </sourcetrack>
                <multiclip id="mcs-1054">
                  <name>MCS-1054</name>
                  <masterclipid>clip-master</masterclipid>
                  <collapsed>false</collapsed>
                  <angle>
                    <activevideoangle>false</activevideoangle>
                    <activeaudioangle>false</activeaudioangle>
                    <clip id="clip-1"/>
                  </angle>
                  <angle>
                    <activevideoangle>false</activevideoangle>
                    <activeaudioangle>false</activeaudioangle>
                    <clip id="clip-2"/>
                  </angle>
                  <angle>
                    <activevideoangle>false</activevideoangle>
                    <activeaudioangle>false</activeaudioangle>
                    <clip id="clip-3"/>
                  </angle>
                  <angle>
                    <activevideoangle>false</activevideoangle>
                    <activeaudioangle>false</activeaudioangle>
                    <clip id="clip-4"/>
                  </angle>
                  <angle>
                    <activevideoangle>false</activevideoangle>
                    <activeaudioangle>false</activeaudioangle>
                    <clip id="clip-5"/>
                  </angle>
                  <angle>
                    <activevideoangle>true</activevideoangle>
                    <activeaudioangle>true</activeaudioangle>
                    <clip id="clip-6"/>
                  </angle>
                  <angle>
                    <activevideoangle>false</activevideoangle>
                    <activeaudioangle>false</activeaudioangle>
                    <clip id="clip-7"/>
                  </angle>
                  <masterclipid>clip-master</masterclipid>
                </multiclip>
              </clipitem>
              <clipitem id="cs-1055">
                <duration>164</duration>
                <rate>
                  <ntsc>false</ntsc>
                  <timebase>25</timebase>
                </rate>
                <in>76768</in>
                <out>76931</out>
                <start>76768</start>
                <end>76931</end>
                <file id="src-4"/>
                <sourcetrack>
                  <mediatype>video</mediatype>
                  <trackindex>1</trackindex>
                </sourcetrack>
                <multiclip id="mcs-1055">
                  <name>MCS-1055</name>
                  <masterclipid>clip-master</masterclipid>
                  <collapsed>false</collapsed>
                  <angle>
                    <activevideoangle>false</activevideoangle>
                    <activeaudioangle>false</activeaudioangle>
                    <clip id="clip-1"/>
                  </angle>
                  <angle>
                    <activevideoangle>false</activevideoangle>
                    <activeaudioangle>false</activeaudioangle>
                    <clip id="clip-2"/>
                  </angle>
                  <angle>
                    <activevideoangle>false</activevideoangle>
                    <activeaudioangle>false</activeaudioangle>
                    <clip id="clip-3"/>
                  </angle>
                  <angle>
                    <activevideoangle>true</activevideoangle>
                    <activeaudioangle>true</activeaudioangle>
                    <clip id="clip-4"/>
                  </angle>
                  <angle>
                    <activevideoangle>false</activevideoangle>
                    <activeaudioangle>false</activeaudioangle>
                    <clip id="clip-5"/>
                  </angle>
                  <angle>
                    <activevideoangle>false</activevideoangle>
                    <activeaudioangle>false</activeaudioangle>
                    <clip id="clip-6"/>
                  </angle>
                  <angle>
                    <activevideoangle>false</activevideoangle>
                    <activeaudioangle>false</activeaudioangle>
                    <clip id="clip-7"/>
                  </angle>
                  <masterclipid>clip-master</masterclipid>
                </multiclip>
              </clipitem>
              <clipitem id="cs-1056">
                <duration>351</duration>
                <rate>
                  <ntsc>false</ntsc>
                  <timebase>25</timebase>
                </rate>
                <in>76931</in>
                <out>77281</out>
                <start>76931</start>
                <end>77281</end>
                <file id="src-3"/>
                <sourcetrack>
                  <mediatype>video</mediatype>
                  <trackindex>1</trackindex>
                </sourcetrack>
                <multiclip id="mcs-1056">
                  <name>MCS-1056</name>
                  <masterclipid>clip-master</masterclipid>
                  <collapsed>false</collapsed>
                  <angle>
                    <activevideoangle>false</activevideoangle>
                    <activeaudioangle>false</activeaudioangle>
                    <clip id="clip-1"/>
                  </angle>
                  <angle>
                    <activevideoangle>false</activevideoangle>
                    <activeaudioangle>false</activeaudioangle>
                    <clip id="clip-2"/>
                  </angle>
                  <angle>
                    <activevideoangle>true</activevideoangle>
                    <activeaudioangle>true</activeaudioangle>
                    <clip id="clip-3"/>
                  </angle>
                  <angle>
                    <activevideoangle>false</activevideoangle>
                    <activeaudioangle>false</activeaudioangle>
                    <clip id="clip-4"/>
                  </angle>
                  <angle>
                    <activevideoangle>false</activevideoangle>
                    <activeaudioangle>false</activeaudioangle>
                    <clip id="clip-5"/>
                  </angle>
                  <angle>
                    <activevideoangle>false</activevideoangle>
                    <activeaudioangle>false</activeaudioangle>
                    <clip id="clip-6"/>
                  </angle>
                  <angle>
                    <activevideoangle>false</activevideoangle>
                    <activeaudioangle>false</activeaudioangle>
                    <clip id="clip-7"/>
                  </angle>
                  <masterclipid>clip-master</masterclipid>
                </multiclip>
              </clipitem>
              <clipitem id="cs-1057">
                <duration>202</duration>
                <rate>
                  <ntsc>false</ntsc>
                  <timebase>25</timebase>
                </rate>
                <in>77281</in>
                <out>77482</out>
                <start>77281</start>
                <end>77482</end>
                <file id="src-6"/>
                <sourcetrack>
                  <mediatype>video</mediatype>
                  <trackindex>1</trackindex>
                </sourcetrack>
                <multiclip id="mcs-1057">
                  <name>MCS-1057</name>
                  <masterclipid>clip-master</masterclipid>
                  <collapsed>false</collapsed>
                  <angle>
                    <activevideoangle>false</activevideoangle>
                    <activeaudioangle>false</activeaudioangle>
                    <clip id="clip-1"/>
                  </angle>
                  <angle>
                    <activevideoangle>false</activevideoangle>
                    <activeaudioangle>false</activeaudioangle>
                    <clip id="clip-2"/>
                  </angle>
                  <angle>
                    <activevideoangle>false</activevideoangle>
                    <activeaudioangle>false</activeaudioangle>
                    <clip id="clip-3"/>
                  </angle>
                  <angle>
                    <activevideoangle>false</activevideoangle>
                    <activeaudioangle>false</activeaudioangle>
                    <clip id="clip-4"/>
                  </angle>
                  <angle>
                    <activevideoangle>false</activevideoangle>
                    <activeaudioangle>false</activeaudioangle>
                    <clip id="clip-5"/>
                  </angle>
                  <angle>
                    <activevideoangle>true</activevideoangle>
                    <activeaudioangle>true</activeaudioangle>
                    <clip id="clip-6"/>
                  </angle>
                  <angle>
                    <activevideoangle>false</activevideoangle>
                    <activeaudioangle>false</activeaudioangle>
                    <clip id="clip-7"/>
                  </angle>
                  <masterclipid>clip-master</masterclipid>
                </multiclip>
              </clipitem>
              <clipitem id="cs-1058">
                <duration>116</duration>
                <rate>
                  <ntsc>false</ntsc>
                  <timebase>25</timebase>
                </rate>
                <in>77482</in>
                <out>77597</out>
                <start>77482</start>
                <end>77597</end>
                <file id="src-1"/>
                <sourcetrack>
                  <mediatype>video</mediatype>
                  <trackindex>1</trackindex>
                </sourcetrack>
                <multiclip id="mcs-1058">
                  <name>MCS-1058</name>
                  <masterclipid>clip-master</masterclipid>
                  <collapsed>false</collapsed>
                  <angle>
                    <activevideoangle>true</activevideoangle>
                    <activeaudioangle>true</activeaudioangle>
                    <clip id="clip-1"/>
                  </angle>
                  <angle>
                    <activevideoangle>false</activevideoangle>
                    <activeaudioangle>false</activeaudioangle>
                    <clip id="clip-2"/>
                  </angle>
                  <angle>
                    <activevideoangle>false</activevideoangle>
                    <activeaudioangle>false</activeaudioangle>
                    <clip id="clip-3"/>
                  </angle>
                  <angle>
                    <activevideoangle>false</activevideoangle>
                    <activeaudioangle>false</activeaudioangle>
                    <clip id="clip-4"/>
                  </angle>
                  <angle>
                    <activevideoangle>false</activevideoangle>
                    <activeaudioangle>false</activeaudioangle>
                    <clip id="clip-5"/>
                  </angle>
                  <angle>
                    <activevideoangle>false</activevideoangle>
                    <activeaudioangle>false</activeaudioangle>
                    <clip id="clip-6"/>
                  </angle>
                  <angle>
                    <activevideoangle>false</activevideoangle>
                    <activeaudioangle>false</activeaudioangle>
                    <clip id="clip-7"/>
                  </angle>
                  <masterclipid>clip-master</masterclipid>
                </multiclip>
              </clipitem>
              <clipitem id="cs-1059">
                <duration>377</duration>
                <rate>
                  <ntsc>false</ntsc>
                  <timebase>25</timebase>
                </rate>
                <in>77597</in>
                <out>77973</out>
                <start>77597</start>
                <end>77973</end>
                <file id="src-2"/>
                <sourcetrack>
                  <mediatype>video</mediatype>
                  <trackindex>1</trackindex>
                </sourcetrack>
                <multiclip id="mcs-1059">
                  <name>MCS-1059</name>
                  <masterclipid>clip-master</masterclipid>
                  <collapsed>false</collapsed>
                  <angle>
                    <activevideoangle>false</activevideoangle>
                    <activeaudioangle>false</activeaudioangle>
                    <clip id="clip-1"/>
                  </angle>
                  <angle>
                    <activevideoangle>true</activevideoangle>
                    <activeaudioangle>true</activeaudioangle>
                    <clip id="clip-2"/>
                  </angle>
                  <angle>
                    <activevideoangle>false</activevideoangle>
                    <activeaudioangle>false</activeaudioangle>
                    <clip id="clip-3"/>
                  </angle>
                  <angle>
                    <activevideoangle>false</activevideoangle>
                    <activeaudioangle>false</activeaudioangle>
                    <clip id="clip-4"/>
                  </angle>
                  <angle>
                    <activevideoangle>false</activevideoangle>
                    <activeaudioangle>false</activeaudioangle>
                    <clip id="clip-5"/>
                  </angle>
                  <angle>
                    <activevideoangle>false</activevideoangle>
                    <activeaudioangle>false</activeaudioangle>
                    <clip id="clip-6"/>
                  </angle>
                  <angle>
                    <activevideoangle>false</activevideoangle>
                    <activeaudioangle>false</activeaudioangle>
                    <clip id="clip-7"/>
                  </angle>
                  <masterclipid>clip-master</masterclipid>
                </multiclip>
              </clipitem>
              <clipitem id="cs-1060">
                <duration>145</duration>
                <rate>
                  <ntsc>false</ntsc>
                  <timebase>25</timebase>
                </rate>
                <in>77973</in>
                <out>78117</out>
                <start>77973</start>
                <end>78117</end>
                <file id="src-4"/>
                <sourcetrack>
                  <mediatype>video</mediatype>
                  <trackindex>1</trackindex>
                </sourcetrack>
                <multiclip id="mcs-1060">
                  <name>MCS-1060</name>
                  <masterclipid>clip-master</masterclipid>
                  <collapsed>false</collapsed>
                  <angle>
                    <activevideoangle>false</activevideoangle>
                    <activeaudioangle>false</activeaudioangle>
                    <clip id="clip-1"/>
                  </angle>
                  <angle>
                    <activevideoangle>false</activevideoangle>
                    <activeaudioangle>false</activeaudioangle>
                    <clip id="clip-2"/>
                  </angle>
                  <angle>
                    <activevideoangle>false</activevideoangle>
                    <activeaudioangle>false</activeaudioangle>
                    <clip id="clip-3"/>
                  </angle>
                  <angle>
                    <activevideoangle>true</activevideoangle>
                    <activeaudioangle>true</activeaudioangle>
                    <clip id="clip-4"/>
                  </angle>
                  <angle>
                    <activevideoangle>false</activevideoangle>
                    <activeaudioangle>false</activeaudioangle>
                    <clip id="clip-5"/>
                  </angle>
                  <angle>
                    <activevideoangle>false</activevideoangle>
                    <activeaudioangle>false</activeaudioangle>
                    <clip id="clip-6"/>
                  </angle>
                  <angle>
                    <activevideoangle>false</activevideoangle>
                    <activeaudioangle>false</activeaudioangle>
                    <clip id="clip-7"/>
                  </angle>
                  <masterclipid>clip-master</masterclipid>
                </multiclip>
              </clipitem>
              <clipitem id="cs-1061">
                <duration>216</duration>
                <rate>
                  <ntsc>false</ntsc>
                  <timebase>25</timebase>
                </rate>
                <in>78117</in>
                <out>78332</out>
                <start>78117</start>
                <end>78332</end>
                <file id="src-2"/>
                <sourcetrack>
                  <mediatype>video</mediatype>
                  <trackindex>1</trackindex>
                </sourcetrack>
                <multiclip id="mcs-1061">
                  <name>MCS-1061</name>
                  <masterclipid>clip-master</masterclipid>
                  <collapsed>false</collapsed>
                  <angle>
                    <activevideoangle>false</activevideoangle>
                    <activeaudioangle>false</activeaudioangle>
                    <clip id="clip-1"/>
                  </angle>
                  <angle>
                    <activevideoangle>true</activevideoangle>
                    <activeaudioangle>true</activeaudioangle>
                    <clip id="clip-2"/>
                  </angle>
                  <angle>
                    <activevideoangle>false</activevideoangle>
                    <activeaudioangle>false</activeaudioangle>
                    <clip id="clip-3"/>
                  </angle>
                  <angle>
                    <activevideoangle>false</activevideoangle>
                    <activeaudioangle>false</activeaudioangle>
                    <clip id="clip-4"/>
                  </angle>
                  <angle>
                    <activevideoangle>false</activevideoangle>
                    <activeaudioangle>false</activeaudioangle>
                    <clip id="clip-5"/>
                  </angle>
                  <angle>
                    <activevideoangle>false</activevideoangle>
                    <activeaudioangle>false</activeaudioangle>
                    <clip id="clip-6"/>
                  </angle>
                  <angle>
                    <activevideoangle>false</activevideoangle>
                    <activeaudioangle>false</activeaudioangle>
                    <clip id="clip-7"/>
                  </angle>
                  <masterclipid>clip-master</masterclipid>
                </multiclip>
              </clipitem>
              <clipitem id="cs-1062">
                <duration>171</duration>
                <rate>
                  <ntsc>false</ntsc>
                  <timebase>25</timebase>
                </rate>
                <in>78332</in>
                <out>78502</out>
                <start>78332</start>
                <end>78502</end>
                <file id="src-3"/>
                <sourcetrack>
                  <mediatype>video</mediatype>
                  <trackindex>1</trackindex>
                </sourcetrack>
                <multiclip id="mcs-1062">
                  <name>MCS-1062</name>
                  <masterclipid>clip-master</masterclipid>
                  <collapsed>false</collapsed>
                  <angle>
                    <activevideoangle>false</activevideoangle>
                    <activeaudioangle>false</activeaudioangle>
                    <clip id="clip-1"/>
                  </angle>
                  <angle>
                    <activevideoangle>false</activevideoangle>
                    <activeaudioangle>false</activeaudioangle>
                    <clip id="clip-2"/>
                  </angle>
                  <angle>
                    <activevideoangle>true</activevideoangle>
                    <activeaudioangle>true</activeaudioangle>
                    <clip id="clip-3"/>
                  </angle>
                  <angle>
                    <activevideoangle>false</activevideoangle>
                    <activeaudioangle>false</activeaudioangle>
                    <clip id="clip-4"/>
                  </angle>
                  <angle>
                    <activevideoangle>false</activevideoangle>
                    <activeaudioangle>false</activeaudioangle>
                    <clip id="clip-5"/>
                  </angle>
                  <angle>
                    <activevideoangle>false</activevideoangle>
                    <activeaudioangle>false</activeaudioangle>
                    <clip id="clip-6"/>
                  </angle>
                  <angle>
                    <activevideoangle>false</activevideoangle>
                    <activeaudioangle>false</activeaudioangle>
                    <clip id="clip-7"/>
                  </angle>
                  <masterclipid>clip-master</masterclipid>
                </multiclip>
              </clipitem>
              <clipitem id="cs-1063">
                <duration>336</duration>
                <rate>
                  <ntsc>false</ntsc>
                  <timebase>25</timebase>
                </rate>
                <in>78502</in>
                <out>78837</out>
                <start>78502</start>
                <end>78837</end>
                <file id="src-6"/>
                <sourcetrack>
                  <mediatype>video</mediatype>
                  <trackindex>1</trackindex>
                </sourcetrack>
                <multiclip id="mcs-1063">
                  <name>MCS-1063</name>
                  <masterclipid>clip-master</masterclipid>
                  <collapsed>false</collapsed>
                  <angle>
                    <activevideoangle>false</activevideoangle>
                    <activeaudioangle>false</activeaudioangle>
                    <clip id="clip-1"/>
                  </angle>
                  <angle>
                    <activevideoangle>false</activevideoangle>
                    <activeaudioangle>false</activeaudioangle>
                    <clip id="clip-2"/>
                  </angle>
                  <angle>
                    <activevideoangle>false</activevideoangle>
                    <activeaudioangle>false</activeaudioangle>
                    <clip id="clip-3"/>
                  </angle>
                  <angle>
                    <activevideoangle>false</activevideoangle>
                    <activeaudioangle>false</activeaudioangle>
                    <clip id="clip-4"/>
                  </angle>
                  <angle>
                    <activevideoangle>false</activevideoangle>
                    <activeaudioangle>false</activeaudioangle>
                    <clip id="clip-5"/>
                  </angle>
                  <angle>
                    <activevideoangle>true</activevideoangle>
                    <activeaudioangle>true</activeaudioangle>
                    <clip id="clip-6"/>
                  </angle>
                  <angle>
                    <activevideoangle>false</activevideoangle>
                    <activeaudioangle>false</activeaudioangle>
                    <clip id="clip-7"/>
                  </angle>
                  <masterclipid>clip-master</masterclipid>
                </multiclip>
              </clipitem>
              <clipitem id="cs-1064">
                <duration>327</duration>
                <rate>
                  <ntsc>false</ntsc>
                  <timebase>25</timebase>
                </rate>
                <in>78837</in>
                <out>79163</out>
                <start>78837</start>
                <end>79163</end>
                <file id="src-3"/>
                <sourcetrack>
                  <mediatype>video</mediatype>
                  <trackindex>1</trackindex>
                </sourcetrack>
                <multiclip id="mcs-1064">
                  <name>MCS-1064</name>
                  <masterclipid>clip-master</masterclipid>
                  <collapsed>false</collapsed>
                  <angle>
                    <activevideoangle>false</activevideoangle>
                    <activeaudioangle>false</activeaudioangle>
                    <clip id="clip-1"/>
                  </angle>
                  <angle>
                    <activevideoangle>false</activevideoangle>
                    <activeaudioangle>false</activeaudioangle>
                    <clip id="clip-2"/>
                  </angle>
                  <angle>
                    <activevideoangle>true</activevideoangle>
                    <activeaudioangle>true</activeaudioangle>
                    <clip id="clip-3"/>
                  </angle>
                  <angle>
                    <activevideoangle>false</activevideoangle>
                    <activeaudioangle>false</activeaudioangle>
                    <clip id="clip-4"/>
                  </angle>
                  <angle>
                    <activevideoangle>false</activevideoangle>
                    <activeaudioangle>false</activeaudioangle>
                    <clip id="clip-5"/>
                  </angle>
                  <angle>
                    <activevideoangle>false</activevideoangle>
                    <activeaudioangle>false</activeaudioangle>
                    <clip id="clip-6"/>
                  </angle>
                  <angle>
                    <activevideoangle>false</activevideoangle>
                    <activeaudioangle>false</activeaudioangle>
                    <clip id="clip-7"/>
                  </angle>
                  <masterclipid>clip-master</masterclipid>
                </multiclip>
              </clipitem>
              <clipitem id="cs-1065">
                <duration>254</duration>
                <rate>
                  <ntsc>false</ntsc>
                  <timebase>25</timebase>
                </rate>
                <in>79163</in>
                <out>79416</out>
                <start>79163</start>
                <end>79416</end>
                <file id="src-4"/>
                <sourcetrack>
                  <mediatype>video</mediatype>
                  <trackindex>1</trackindex>
                </sourcetrack>
                <multiclip id="mcs-1065">
                  <name>MCS-1065</name>
                  <masterclipid>clip-master</masterclipid>
                  <collapsed>false</collapsed>
                  <angle>
                    <activevideoangle>false</activevideoangle>
                    <activeaudioangle>false</activeaudioangle>
                    <clip id="clip-1"/>
                  </angle>
                  <angle>
                    <activevideoangle>false</activevideoangle>
                    <activeaudioangle>false</activeaudioangle>
                    <clip id="clip-2"/>
                  </angle>
                  <angle>
                    <activevideoangle>false</activevideoangle>
                    <activeaudioangle>false</activeaudioangle>
                    <clip id="clip-3"/>
                  </angle>
                  <angle>
                    <activevideoangle>true</activevideoangle>
                    <activeaudioangle>true</activeaudioangle>
                    <clip id="clip-4"/>
                  </angle>
                  <angle>
                    <activevideoangle>false</activevideoangle>
                    <activeaudioangle>false</activeaudioangle>
                    <clip id="clip-5"/>
                  </angle>
                  <angle>
                    <activevideoangle>false</activevideoangle>
                    <activeaudioangle>false</activeaudioangle>
                    <clip id="clip-6"/>
                  </angle>
                  <angle>
                    <activevideoangle>false</activevideoangle>
                    <activeaudioangle>false</activeaudioangle>
                    <clip id="clip-7"/>
                  </angle>
                  <masterclipid>clip-master</masterclipid>
                </multiclip>
              </clipitem>
              <clipitem id="cs-1066">
                <duration>221</duration>
                <rate>
                  <ntsc>false</ntsc>
                  <timebase>25</timebase>
                </rate>
                <in>79416</in>
                <out>79636</out>
                <start>79416</start>
                <end>79636</end>
                <file id="src-3"/>
                <sourcetrack>
                  <mediatype>video</mediatype>
                  <trackindex>1</trackindex>
                </sourcetrack>
                <multiclip id="mcs-1066">
                  <name>MCS-1066</name>
                  <masterclipid>clip-master</masterclipid>
                  <collapsed>false</collapsed>
                  <angle>
                    <activevideoangle>false</activevideoangle>
                    <activeaudioangle>false</activeaudioangle>
                    <clip id="clip-1"/>
                  </angle>
                  <angle>
                    <activevideoangle>false</activevideoangle>
                    <activeaudioangle>false</activeaudioangle>
                    <clip id="clip-2"/>
                  </angle>
                  <angle>
                    <activevideoangle>true</activevideoangle>
                    <activeaudioangle>true</activeaudioangle>
                    <clip id="clip-3"/>
                  </angle>
                  <angle>
                    <activevideoangle>false</activevideoangle>
                    <activeaudioangle>false</activeaudioangle>
                    <clip id="clip-4"/>
                  </angle>
                  <angle>
                    <activevideoangle>false</activevideoangle>
                    <activeaudioangle>false</activeaudioangle>
                    <clip id="clip-5"/>
                  </angle>
                  <angle>
                    <activevideoangle>false</activevideoangle>
                    <activeaudioangle>false</activeaudioangle>
                    <clip id="clip-6"/>
                  </angle>
                  <angle>
                    <activevideoangle>false</activevideoangle>
                    <activeaudioangle>false</activeaudioangle>
                    <clip id="clip-7"/>
                  </angle>
                  <masterclipid>clip-master</masterclipid>
                </multiclip>
              </clipitem>
              <clipitem id="cs-1067">
                <duration>279</duration>
                <rate>
                  <ntsc>false</ntsc>
                  <timebase>25</timebase>
                </rate>
                <in>79636</in>
                <out>79914</out>
                <start>79636</start>
                <end>79914</end>
                <file id="src-2"/>
                <sourcetrack>
                  <mediatype>video</mediatype>
                  <trackindex>1</trackindex>
                </sourcetrack>
                <multiclip id="mcs-1067">
                  <name>MCS-1067</name>
                  <masterclipid>clip-master</masterclipid>
                  <collapsed>false</collapsed>
                  <angle>
                    <activevideoangle>false</activevideoangle>
                    <activeaudioangle>false</activeaudioangle>
                    <clip id="clip-1"/>
                  </angle>
                  <angle>
                    <activevideoangle>true</activevideoangle>
                    <activeaudioangle>true</activeaudioangle>
                    <clip id="clip-2"/>
                  </angle>
                  <angle>
                    <activevideoangle>false</activevideoangle>
                    <activeaudioangle>false</activeaudioangle>
                    <clip id="clip-3"/>
                  </angle>
                  <angle>
                    <activevideoangle>false</activevideoangle>
                    <activeaudioangle>false</activeaudioangle>
                    <clip id="clip-4"/>
                  </angle>
                  <angle>
                    <activevideoangle>false</activevideoangle>
                    <activeaudioangle>false</activeaudioangle>
                    <clip id="clip-5"/>
                  </angle>
                  <angle>
                    <activevideoangle>false</activevideoangle>
                    <activeaudioangle>false</activeaudioangle>
                    <clip id="clip-6"/>
                  </angle>
                  <angle>
                    <activevideoangle>false</activevideoangle>
                    <activeaudioangle>false</activeaudioangle>
                    <clip id="clip-7"/>
                  </angle>
                  <masterclipid>clip-master</masterclipid>
                </multiclip>
              </clipitem>
              <clipitem id="cs-1068">
                <duration>303</duration>
                <rate>
                  <ntsc>false</ntsc>
                  <timebase>25</timebase>
                </rate>
                <in>79914</in>
                <out>80216</out>
                <start>79914</start>
                <end>80216</end>
                <file id="src-6"/>
                <sourcetrack>
                  <mediatype>video</mediatype>
                  <trackindex>1</trackindex>
                </sourcetrack>
                <multiclip id="mcs-1068">
                  <name>MCS-1068</name>
                  <masterclipid>clip-master</masterclipid>
                  <collapsed>false</collapsed>
                  <angle>
                    <activevideoangle>false</activevideoangle>
                    <activeaudioangle>false</activeaudioangle>
                    <clip id="clip-1"/>
                  </angle>
                  <angle>
                    <activevideoangle>false</activevideoangle>
                    <activeaudioangle>false</activeaudioangle>
                    <clip id="clip-2"/>
                  </angle>
                  <angle>
                    <activevideoangle>false</activevideoangle>
                    <activeaudioangle>false</activeaudioangle>
                    <clip id="clip-3"/>
                  </angle>
                  <angle>
                    <activevideoangle>false</activevideoangle>
                    <activeaudioangle>false</activeaudioangle>
                    <clip id="clip-4"/>
                  </angle>
                  <angle>
                    <activevideoangle>false</activevideoangle>
                    <activeaudioangle>false</activeaudioangle>
                    <clip id="clip-5"/>
                  </angle>
                  <angle>
                    <activevideoangle>true</activevideoangle>
                    <activeaudioangle>true</activeaudioangle>
                    <clip id="clip-6"/>
                  </angle>
                  <angle>
                    <activevideoangle>false</activevideoangle>
                    <activeaudioangle>false</activeaudioangle>
                    <clip id="clip-7"/>
                  </angle>
                  <masterclipid>clip-master</masterclipid>
                </multiclip>
              </clipitem>
              <clipitem id="cs-1069">
                <duration>585</duration>
                <rate>
                  <ntsc>false</ntsc>
                  <timebase>25</timebase>
                </rate>
                <in>80216</in>
                <out>80800</out>
                <start>80216</start>
                <end>80800</end>
                <file id="src-2"/>
                <sourcetrack>
                  <mediatype>video</mediatype>
                  <trackindex>1</trackindex>
                </sourcetrack>
                <multiclip id="mcs-1069">
                  <name>MCS-1069</name>
                  <masterclipid>clip-master</masterclipid>
                  <collapsed>false</collapsed>
                  <angle>
                    <activevideoangle>false</activevideoangle>
                    <activeaudioangle>false</activeaudioangle>
                    <clip id="clip-1"/>
                  </angle>
                  <angle>
                    <activevideoangle>true</activevideoangle>
                    <activeaudioangle>true</activeaudioangle>
                    <clip id="clip-2"/>
                  </angle>
                  <angle>
                    <activevideoangle>false</activevideoangle>
                    <activeaudioangle>false</activeaudioangle>
                    <clip id="clip-3"/>
                  </angle>
                  <angle>
                    <activevideoangle>false</activevideoangle>
                    <activeaudioangle>false</activeaudioangle>
                    <clip id="clip-4"/>
                  </angle>
                  <angle>
                    <activevideoangle>false</activevideoangle>
                    <activeaudioangle>false</activeaudioangle>
                    <clip id="clip-5"/>
                  </angle>
                  <angle>
                    <activevideoangle>false</activevideoangle>
                    <activeaudioangle>false</activeaudioangle>
                    <clip id="clip-6"/>
                  </angle>
                  <angle>
                    <activevideoangle>false</activevideoangle>
                    <activeaudioangle>false</activeaudioangle>
                    <clip id="clip-7"/>
                  </angle>
                  <masterclipid>clip-master</masterclipid>
                </multiclip>
              </clipitem>
              <clipitem id="cs-1070">
                <duration>76</duration>
                <rate>
                  <ntsc>false</ntsc>
                  <timebase>25</timebase>
                </rate>
                <in>80800</in>
                <out>80875</out>
                <start>80800</start>
                <end>80875</end>
                <file id="src-1"/>
                <sourcetrack>
                  <mediatype>video</mediatype>
                  <trackindex>1</trackindex>
                </sourcetrack>
                <multiclip id="mcs-1070">
                  <name>MCS-1070</name>
                  <masterclipid>clip-master</masterclipid>
                  <collapsed>false</collapsed>
                  <angle>
                    <activevideoangle>true</activevideoangle>
                    <activeaudioangle>true</activeaudioangle>
                    <clip id="clip-1"/>
                  </angle>
                  <angle>
                    <activevideoangle>false</activevideoangle>
                    <activeaudioangle>false</activeaudioangle>
                    <clip id="clip-2"/>
                  </angle>
                  <angle>
                    <activevideoangle>false</activevideoangle>
                    <activeaudioangle>false</activeaudioangle>
                    <clip id="clip-3"/>
                  </angle>
                  <angle>
                    <activevideoangle>false</activevideoangle>
                    <activeaudioangle>false</activeaudioangle>
                    <clip id="clip-4"/>
                  </angle>
                  <angle>
                    <activevideoangle>false</activevideoangle>
                    <activeaudioangle>false</activeaudioangle>
                    <clip id="clip-5"/>
                  </angle>
                  <angle>
                    <activevideoangle>false</activevideoangle>
                    <activeaudioangle>false</activeaudioangle>
                    <clip id="clip-6"/>
                  </angle>
                  <angle>
                    <activevideoangle>false</activevideoangle>
                    <activeaudioangle>false</activeaudioangle>
                    <clip id="clip-7"/>
                  </angle>
                  <masterclipid>clip-master</masterclipid>
                </multiclip>
              </clipitem>
              <clipitem id="cs-1071">
                <duration>182</duration>
                <rate>
                  <ntsc>false</ntsc>
                  <timebase>25</timebase>
                </rate>
                <in>80875</in>
                <out>81056</out>
                <start>80875</start>
                <end>81056</end>
                <file id="src-3"/>
                <sourcetrack>
                  <mediatype>video</mediatype>
                  <trackindex>1</trackindex>
                </sourcetrack>
                <multiclip id="mcs-1071">
                  <name>MCS-1071</name>
                  <masterclipid>clip-master</masterclipid>
                  <collapsed>false</collapsed>
                  <angle>
                    <activevideoangle>false</activevideoangle>
                    <activeaudioangle>false</activeaudioangle>
                    <clip id="clip-1"/>
                  </angle>
                  <angle>
                    <activevideoangle>false</activevideoangle>
                    <activeaudioangle>false</activeaudioangle>
                    <clip id="clip-2"/>
                  </angle>
                  <angle>
                    <activevideoangle>true</activevideoangle>
                    <activeaudioangle>true</activeaudioangle>
                    <clip id="clip-3"/>
                  </angle>
                  <angle>
                    <activevideoangle>false</activevideoangle>
                    <activeaudioangle>false</activeaudioangle>
                    <clip id="clip-4"/>
                  </angle>
                  <angle>
                    <activevideoangle>false</activevideoangle>
                    <activeaudioangle>false</activeaudioangle>
                    <clip id="clip-5"/>
                  </angle>
                  <angle>
                    <activevideoangle>false</activevideoangle>
                    <activeaudioangle>false</activeaudioangle>
                    <clip id="clip-6"/>
                  </angle>
                  <angle>
                    <activevideoangle>false</activevideoangle>
                    <activeaudioangle>false</activeaudioangle>
                    <clip id="clip-7"/>
                  </angle>
                  <masterclipid>clip-master</masterclipid>
                </multiclip>
              </clipitem>
              <clipitem id="cs-1072">
                <duration>266</duration>
                <rate>
                  <ntsc>false</ntsc>
                  <timebase>25</timebase>
                </rate>
                <in>81056</in>
                <out>81321</out>
                <start>81056</start>
                <end>81321</end>
                <file id="src-2"/>
                <sourcetrack>
                  <mediatype>video</mediatype>
                  <trackindex>1</trackindex>
                </sourcetrack>
                <multiclip id="mcs-1072">
                  <name>MCS-1072</name>
                  <masterclipid>clip-master</masterclipid>
                  <collapsed>false</collapsed>
                  <angle>
                    <activevideoangle>false</activevideoangle>
                    <activeaudioangle>false</activeaudioangle>
                    <clip id="clip-1"/>
                  </angle>
                  <angle>
                    <activevideoangle>true</activevideoangle>
                    <activeaudioangle>true</activeaudioangle>
                    <clip id="clip-2"/>
                  </angle>
                  <angle>
                    <activevideoangle>false</activevideoangle>
                    <activeaudioangle>false</activeaudioangle>
                    <clip id="clip-3"/>
                  </angle>
                  <angle>
                    <activevideoangle>false</activevideoangle>
                    <activeaudioangle>false</activeaudioangle>
                    <clip id="clip-4"/>
                  </angle>
                  <angle>
                    <activevideoangle>false</activevideoangle>
                    <activeaudioangle>false</activeaudioangle>
                    <clip id="clip-5"/>
                  </angle>
                  <angle>
                    <activevideoangle>false</activevideoangle>
                    <activeaudioangle>false</activeaudioangle>
                    <clip id="clip-6"/>
                  </angle>
                  <angle>
                    <activevideoangle>false</activevideoangle>
                    <activeaudioangle>false</activeaudioangle>
                    <clip id="clip-7"/>
                  </angle>
                  <masterclipid>clip-master</masterclipid>
                </multiclip>
              </clipitem>
              <clipitem id="cs-1073">
                <duration>147</duration>
                <rate>
                  <ntsc>false</ntsc>
                  <timebase>25</timebase>
                </rate>
                <in>81321</in>
                <out>81467</out>
                <start>81321</start>
                <end>81467</end>
                <file id="src-3"/>
                <sourcetrack>
                  <mediatype>video</mediatype>
                  <trackindex>1</trackindex>
                </sourcetrack>
                <multiclip id="mcs-1073">
                  <name>MCS-1073</name>
                  <masterclipid>clip-master</masterclipid>
                  <collapsed>false</collapsed>
                  <angle>
                    <activevideoangle>false</activevideoangle>
                    <activeaudioangle>false</activeaudioangle>
                    <clip id="clip-1"/>
                  </angle>
                  <angle>
                    <activevideoangle>false</activevideoangle>
                    <activeaudioangle>false</activeaudioangle>
                    <clip id="clip-2"/>
                  </angle>
                  <angle>
                    <activevideoangle>true</activevideoangle>
                    <activeaudioangle>true</activeaudioangle>
                    <clip id="clip-3"/>
                  </angle>
                  <angle>
                    <activevideoangle>false</activevideoangle>
                    <activeaudioangle>false</activeaudioangle>
                    <clip id="clip-4"/>
                  </angle>
                  <angle>
                    <activevideoangle>false</activevideoangle>
                    <activeaudioangle>false</activeaudioangle>
                    <clip id="clip-5"/>
                  </angle>
                  <angle>
                    <activevideoangle>false</activevideoangle>
                    <activeaudioangle>false</activeaudioangle>
                    <clip id="clip-6"/>
                  </angle>
                  <angle>
                    <activevideoangle>false</activevideoangle>
                    <activeaudioangle>false</activeaudioangle>
                    <clip id="clip-7"/>
                  </angle>
                  <masterclipid>clip-master</masterclipid>
                </multiclip>
              </clipitem>
              <clipitem id="cs-1074">
                <duration>215</duration>
                <rate>
                  <ntsc>false</ntsc>
                  <timebase>25</timebase>
                </rate>
                <in>81467</in>
                <out>81681</out>
                <start>81467</start>
                <end>81681</end>
                <file id="src-1"/>
                <sourcetrack>
                  <mediatype>video</mediatype>
                  <trackindex>1</trackindex>
                </sourcetrack>
                <multiclip id="mcs-1074">
                  <name>MCS-1074</name>
                  <masterclipid>clip-master</masterclipid>
                  <collapsed>false</collapsed>
                  <angle>
                    <activevideoangle>true</activevideoangle>
                    <activeaudioangle>true</activeaudioangle>
                    <clip id="clip-1"/>
                  </angle>
                  <angle>
                    <activevideoangle>false</activevideoangle>
                    <activeaudioangle>false</activeaudioangle>
                    <clip id="clip-2"/>
                  </angle>
                  <angle>
                    <activevideoangle>false</activevideoangle>
                    <activeaudioangle>false</activeaudioangle>
                    <clip id="clip-3"/>
                  </angle>
                  <angle>
                    <activevideoangle>false</activevideoangle>
                    <activeaudioangle>false</activeaudioangle>
                    <clip id="clip-4"/>
                  </angle>
                  <angle>
                    <activevideoangle>false</activevideoangle>
                    <activeaudioangle>false</activeaudioangle>
                    <clip id="clip-5"/>
                  </angle>
                  <angle>
                    <activevideoangle>false</activevideoangle>
                    <activeaudioangle>false</activeaudioangle>
                    <clip id="clip-6"/>
                  </angle>
                  <angle>
                    <activevideoangle>false</activevideoangle>
                    <activeaudioangle>false</activeaudioangle>
                    <clip id="clip-7"/>
                  </angle>
                  <masterclipid>clip-master</masterclipid>
                </multiclip>
              </clipitem>
              <clipitem id="cs-1075">
                <duration>318</duration>
                <rate>
                  <ntsc>false</ntsc>
                  <timebase>25</timebase>
                </rate>
                <in>81681</in>
                <out>81998</out>
                <start>81681</start>
                <end>81998</end>
                <file id="src-2"/>
                <sourcetrack>
                  <mediatype>video</mediatype>
                  <trackindex>1</trackindex>
                </sourcetrack>
                <multiclip id="mcs-1075">
                  <name>MCS-1075</name>
                  <masterclipid>clip-master</masterclipid>
                  <collapsed>false</collapsed>
                  <angle>
                    <activevideoangle>false</activevideoangle>
                    <activeaudioangle>false</activeaudioangle>
                    <clip id="clip-1"/>
                  </angle>
                  <angle>
                    <activevideoangle>true</activevideoangle>
                    <activeaudioangle>true</activeaudioangle>
                    <clip id="clip-2"/>
                  </angle>
                  <angle>
                    <activevideoangle>false</activevideoangle>
                    <activeaudioangle>false</activeaudioangle>
                    <clip id="clip-3"/>
                  </angle>
                  <angle>
                    <activevideoangle>false</activevideoangle>
                    <activeaudioangle>false</activeaudioangle>
                    <clip id="clip-4"/>
                  </angle>
                  <angle>
                    <activevideoangle>false</activevideoangle>
                    <activeaudioangle>false</activeaudioangle>
                    <clip id="clip-5"/>
                  </angle>
                  <angle>
                    <activevideoangle>false</activevideoangle>
                    <activeaudioangle>false</activeaudioangle>
                    <clip id="clip-6"/>
                  </angle>
                  <angle>
                    <activevideoangle>false</activevideoangle>
                    <activeaudioangle>false</activeaudioangle>
                    <clip id="clip-7"/>
                  </angle>
                  <masterclipid>clip-master</masterclipid>
                </multiclip>
              </clipitem>
              <clipitem id="cs-1076">
                <duration>503</duration>
                <rate>
                  <ntsc>false</ntsc>
                  <timebase>25</timebase>
                </rate>
                <in>81998</in>
                <out>82500</out>
                <start>81998</start>
                <end>82500</end>
                <file id="src-4"/>
                <sourcetrack>
                  <mediatype>video</mediatype>
                  <trackindex>1</trackindex>
                </sourcetrack>
                <multiclip id="mcs-1076">
                  <name>MCS-1076</name>
                  <masterclipid>clip-master</masterclipid>
                  <collapsed>false</collapsed>
                  <angle>
                    <activevideoangle>false</activevideoangle>
                    <activeaudioangle>false</activeaudioangle>
                    <clip id="clip-1"/>
                  </angle>
                  <angle>
                    <activevideoangle>false</activevideoangle>
                    <activeaudioangle>false</activeaudioangle>
                    <clip id="clip-2"/>
                  </angle>
                  <angle>
                    <activevideoangle>false</activevideoangle>
                    <activeaudioangle>false</activeaudioangle>
                    <clip id="clip-3"/>
                  </angle>
                  <angle>
                    <activevideoangle>true</activevideoangle>
                    <activeaudioangle>true</activeaudioangle>
                    <clip id="clip-4"/>
                  </angle>
                  <angle>
                    <activevideoangle>false</activevideoangle>
                    <activeaudioangle>false</activeaudioangle>
                    <clip id="clip-5"/>
                  </angle>
                  <angle>
                    <activevideoangle>false</activevideoangle>
                    <activeaudioangle>false</activeaudioangle>
                    <clip id="clip-6"/>
                  </angle>
                  <angle>
                    <activevideoangle>false</activevideoangle>
                    <activeaudioangle>false</activeaudioangle>
                    <clip id="clip-7"/>
                  </angle>
                  <masterclipid>clip-master</masterclipid>
                </multiclip>
              </clipitem>
              <clipitem id="cs-1077">
                <duration>503</duration>
                <rate>
                  <ntsc>false</ntsc>
                  <timebase>25</timebase>
                </rate>
                <in>82500</in>
                <out>83002</out>
                <start>82500</start>
                <end>83002</end>
                <file id="src-2"/>
                <sourcetrack>
                  <mediatype>video</mediatype>
                  <trackindex>1</trackindex>
                </sourcetrack>
                <multiclip id="mcs-1077">
                  <name>MCS-1077</name>
                  <masterclipid>clip-master</masterclipid>
                  <collapsed>false</collapsed>
                  <angle>
                    <activevideoangle>false</activevideoangle>
                    <activeaudioangle>false</activeaudioangle>
                    <clip id="clip-1"/>
                  </angle>
                  <angle>
                    <activevideoangle>true</activevideoangle>
                    <activeaudioangle>true</activeaudioangle>
                    <clip id="clip-2"/>
                  </angle>
                  <angle>
                    <activevideoangle>false</activevideoangle>
                    <activeaudioangle>false</activeaudioangle>
                    <clip id="clip-3"/>
                  </angle>
                  <angle>
                    <activevideoangle>false</activevideoangle>
                    <activeaudioangle>false</activeaudioangle>
                    <clip id="clip-4"/>
                  </angle>
                  <angle>
                    <activevideoangle>false</activevideoangle>
                    <activeaudioangle>false</activeaudioangle>
                    <clip id="clip-5"/>
                  </angle>
                  <angle>
                    <activevideoangle>false</activevideoangle>
                    <activeaudioangle>false</activeaudioangle>
                    <clip id="clip-6"/>
                  </angle>
                  <angle>
                    <activevideoangle>false</activevideoangle>
                    <activeaudioangle>false</activeaudioangle>
                    <clip id="clip-7"/>
                  </angle>
                  <masterclipid>clip-master</masterclipid>
                </multiclip>
              </clipitem>
              <clipitem id="cs-1078">
                <duration>369</duration>
                <rate>
                  <ntsc>false</ntsc>
                  <timebase>25</timebase>
                </rate>
                <in>83002</in>
                <out>83370</out>
                <start>83002</start>
                <end>83370</end>
                <file id="src-3"/>
                <sourcetrack>
                  <mediatype>video</mediatype>
                  <trackindex>1</trackindex>
                </sourcetrack>
                <multiclip id="mcs-1078">
                  <name>MCS-1078</name>
                  <masterclipid>clip-master</masterclipid>
                  <collapsed>false</collapsed>
                  <angle>
                    <activevideoangle>false</activevideoangle>
                    <activeaudioangle>false</activeaudioangle>
                    <clip id="clip-1"/>
                  </angle>
                  <angle>
                    <activevideoangle>false</activevideoangle>
                    <activeaudioangle>false</activeaudioangle>
                    <clip id="clip-2"/>
                  </angle>
                  <angle>
                    <activevideoangle>true</activevideoangle>
                    <activeaudioangle>true</activeaudioangle>
                    <clip id="clip-3"/>
                  </angle>
                  <angle>
                    <activevideoangle>false</activevideoangle>
                    <activeaudioangle>false</activeaudioangle>
                    <clip id="clip-4"/>
                  </angle>
                  <angle>
                    <activevideoangle>false</activevideoangle>
                    <activeaudioangle>false</activeaudioangle>
                    <clip id="clip-5"/>
                  </angle>
                  <angle>
                    <activevideoangle>false</activevideoangle>
                    <activeaudioangle>false</activeaudioangle>
                    <clip id="clip-6"/>
                  </angle>
                  <angle>
                    <activevideoangle>false</activevideoangle>
                    <activeaudioangle>false</activeaudioangle>
                    <clip id="clip-7"/>
                  </angle>
                  <masterclipid>clip-master</masterclipid>
                </multiclip>
              </clipitem>
              <clipitem id="cs-1079">
                <duration>158</duration>
                <rate>
                  <ntsc>false</ntsc>
                  <timebase>25</timebase>
                </rate>
                <in>83370</in>
                <out>83527</out>
                <start>83370</start>
                <end>83527</end>
                <file id="src-4"/>
                <sourcetrack>
                  <mediatype>video</mediatype>
                  <trackindex>1</trackindex>
                </sourcetrack>
                <multiclip id="mcs-1079">
                  <name>MCS-1079</name>
                  <masterclipid>clip-master</masterclipid>
                  <collapsed>false</collapsed>
                  <angle>
                    <activevideoangle>false</activevideoangle>
                    <activeaudioangle>false</activeaudioangle>
                    <clip id="clip-1"/>
                  </angle>
                  <angle>
                    <activevideoangle>false</activevideoangle>
                    <activeaudioangle>false</activeaudioangle>
                    <clip id="clip-2"/>
                  </angle>
                  <angle>
                    <activevideoangle>false</activevideoangle>
                    <activeaudioangle>false</activeaudioangle>
                    <clip id="clip-3"/>
                  </angle>
                  <angle>
                    <activevideoangle>true</activevideoangle>
                    <activeaudioangle>true</activeaudioangle>
                    <clip id="clip-4"/>
                  </angle>
                  <angle>
                    <activevideoangle>false</activevideoangle>
                    <activeaudioangle>false</activeaudioangle>
                    <clip id="clip-5"/>
                  </angle>
                  <angle>
                    <activevideoangle>false</activevideoangle>
                    <activeaudioangle>false</activeaudioangle>
                    <clip id="clip-6"/>
                  </angle>
                  <angle>
                    <activevideoangle>false</activevideoangle>
                    <activeaudioangle>false</activeaudioangle>
                    <clip id="clip-7"/>
                  </angle>
                  <masterclipid>clip-master</masterclipid>
                </multiclip>
              </clipitem>
              <clipitem id="cs-1080">
                <duration>103</duration>
                <rate>
                  <ntsc>false</ntsc>
                  <timebase>25</timebase>
                </rate>
                <in>83527</in>
                <out>83629</out>
                <start>83527</start>
                <end>83629</end>
                <file id="src-2"/>
                <sourcetrack>
                  <mediatype>video</mediatype>
                  <trackindex>1</trackindex>
                </sourcetrack>
                <multiclip id="mcs-1080">
                  <name>MCS-1080</name>
                  <masterclipid>clip-master</masterclipid>
                  <collapsed>false</collapsed>
                  <angle>
                    <activevideoangle>false</activevideoangle>
                    <activeaudioangle>false</activeaudioangle>
                    <clip id="clip-1"/>
                  </angle>
                  <angle>
                    <activevideoangle>true</activevideoangle>
                    <activeaudioangle>true</activeaudioangle>
                    <clip id="clip-2"/>
                  </angle>
                  <angle>
                    <activevideoangle>false</activevideoangle>
                    <activeaudioangle>false</activeaudioangle>
                    <clip id="clip-3"/>
                  </angle>
                  <angle>
                    <activevideoangle>false</activevideoangle>
                    <activeaudioangle>false</activeaudioangle>
                    <clip id="clip-4"/>
                  </angle>
                  <angle>
                    <activevideoangle>false</activevideoangle>
                    <activeaudioangle>false</activeaudioangle>
                    <clip id="clip-5"/>
                  </angle>
                  <angle>
                    <activevideoangle>false</activevideoangle>
                    <activeaudioangle>false</activeaudioangle>
                    <clip id="clip-6"/>
                  </angle>
                  <angle>
                    <activevideoangle>false</activevideoangle>
                    <activeaudioangle>false</activeaudioangle>
                    <clip id="clip-7"/>
                  </angle>
                  <masterclipid>clip-master</masterclipid>
                </multiclip>
              </clipitem>
              <clipitem id="cs-1081">
                <duration>413</duration>
                <rate>
                  <ntsc>false</ntsc>
                  <timebase>25</timebase>
                </rate>
                <in>83629</in>
                <out>84041</out>
                <start>83629</start>
                <end>84041</end>
                <file id="src-1"/>
                <sourcetrack>
                  <mediatype>video</mediatype>
                  <trackindex>1</trackindex>
                </sourcetrack>
                <multiclip id="mcs-1081">
                  <name>MCS-1081</name>
                  <masterclipid>clip-master</masterclipid>
                  <collapsed>false</collapsed>
                  <angle>
                    <activevideoangle>true</activevideoangle>
                    <activeaudioangle>true</activeaudioangle>
                    <clip id="clip-1"/>
                  </angle>
                  <angle>
                    <activevideoangle>false</activevideoangle>
                    <activeaudioangle>false</activeaudioangle>
                    <clip id="clip-2"/>
                  </angle>
                  <angle>
                    <activevideoangle>false</activevideoangle>
                    <activeaudioangle>false</activeaudioangle>
                    <clip id="clip-3"/>
                  </angle>
                  <angle>
                    <activevideoangle>false</activevideoangle>
                    <activeaudioangle>false</activeaudioangle>
                    <clip id="clip-4"/>
                  </angle>
                  <angle>
                    <activevideoangle>false</activevideoangle>
                    <activeaudioangle>false</activeaudioangle>
                    <clip id="clip-5"/>
                  </angle>
                  <angle>
                    <activevideoangle>false</activevideoangle>
                    <activeaudioangle>false</activeaudioangle>
                    <clip id="clip-6"/>
                  </angle>
                  <angle>
                    <activevideoangle>false</activevideoangle>
                    <activeaudioangle>false</activeaudioangle>
                    <clip id="clip-7"/>
                  </angle>
                  <masterclipid>clip-master</masterclipid>
                </multiclip>
              </clipitem>
              <clipitem id="cs-1082">
                <duration>357</duration>
                <rate>
                  <ntsc>false</ntsc>
                  <timebase>25</timebase>
                </rate>
                <in>84041</in>
                <out>84397</out>
                <start>84041</start>
                <end>84397</end>
                <file id="src-3"/>
                <sourcetrack>
                  <mediatype>video</mediatype>
                  <trackindex>1</trackindex>
                </sourcetrack>
                <multiclip id="mcs-1082">
                  <name>MCS-1082</name>
                  <masterclipid>clip-master</masterclipid>
                  <collapsed>false</collapsed>
                  <angle>
                    <activevideoangle>false</activevideoangle>
                    <activeaudioangle>false</activeaudioangle>
                    <clip id="clip-1"/>
                  </angle>
                  <angle>
                    <activevideoangle>false</activevideoangle>
                    <activeaudioangle>false</activeaudioangle>
                    <clip id="clip-2"/>
                  </angle>
                  <angle>
                    <activevideoangle>true</activevideoangle>
                    <activeaudioangle>true</activeaudioangle>
                    <clip id="clip-3"/>
                  </angle>
                  <angle>
                    <activevideoangle>false</activevideoangle>
                    <activeaudioangle>false</activeaudioangle>
                    <clip id="clip-4"/>
                  </angle>
                  <angle>
                    <activevideoangle>false</activevideoangle>
                    <activeaudioangle>false</activeaudioangle>
                    <clip id="clip-5"/>
                  </angle>
                  <angle>
                    <activevideoangle>false</activevideoangle>
                    <activeaudioangle>false</activeaudioangle>
                    <clip id="clip-6"/>
                  </angle>
                  <angle>
                    <activevideoangle>false</activevideoangle>
                    <activeaudioangle>false</activeaudioangle>
                    <clip id="clip-7"/>
                  </angle>
                  <masterclipid>clip-master</masterclipid>
                </multiclip>
              </clipitem>
              <clipitem id="cs-1083">
                <duration>91</duration>
                <rate>
                  <ntsc>false</ntsc>
                  <timebase>25</timebase>
                </rate>
                <in>84397</in>
                <out>84487</out>
                <start>84397</start>
                <end>84487</end>
                <file id="src-1"/>
                <sourcetrack>
                  <mediatype>video</mediatype>
                  <trackindex>1</trackindex>
                </sourcetrack>
                <multiclip id="mcs-1083">
                  <name>MCS-1083</name>
                  <masterclipid>clip-master</masterclipid>
                  <collapsed>false</collapsed>
                  <angle>
                    <activevideoangle>true</activevideoangle>
                    <activeaudioangle>true</activeaudioangle>
                    <clip id="clip-1"/>
                  </angle>
                  <angle>
                    <activevideoangle>false</activevideoangle>
                    <activeaudioangle>false</activeaudioangle>
                    <clip id="clip-2"/>
                  </angle>
                  <angle>
                    <activevideoangle>false</activevideoangle>
                    <activeaudioangle>false</activeaudioangle>
                    <clip id="clip-3"/>
                  </angle>
                  <angle>
                    <activevideoangle>false</activevideoangle>
                    <activeaudioangle>false</activeaudioangle>
                    <clip id="clip-4"/>
                  </angle>
                  <angle>
                    <activevideoangle>false</activevideoangle>
                    <activeaudioangle>false</activeaudioangle>
                    <clip id="clip-5"/>
                  </angle>
                  <angle>
                    <activevideoangle>false</activevideoangle>
                    <activeaudioangle>false</activeaudioangle>
                    <clip id="clip-6"/>
                  </angle>
                  <angle>
                    <activevideoangle>false</activevideoangle>
                    <activeaudioangle>false</activeaudioangle>
                    <clip id="clip-7"/>
                  </angle>
                  <masterclipid>clip-master</masterclipid>
                </multiclip>
              </clipitem>
              <clipitem id="cs-1084">
                <duration>352</duration>
                <rate>
                  <ntsc>false</ntsc>
                  <timebase>25</timebase>
                </rate>
                <in>84487</in>
                <out>84838</out>
                <start>84487</start>
                <end>84838</end>
                <file id="src-2"/>
                <sourcetrack>
                  <mediatype>video</mediatype>
                  <trackindex>1</trackindex>
                </sourcetrack>
                <multiclip id="mcs-1084">
                  <name>MCS-1084</name>
                  <masterclipid>clip-master</masterclipid>
                  <collapsed>false</collapsed>
                  <angle>
                    <activevideoangle>false</activevideoangle>
                    <activeaudioangle>false</activeaudioangle>
                    <clip id="clip-1"/>
                  </angle>
                  <angle>
                    <activevideoangle>true</activevideoangle>
                    <activeaudioangle>true</activeaudioangle>
                    <clip id="clip-2"/>
                  </angle>
                  <angle>
                    <activevideoangle>false</activevideoangle>
                    <activeaudioangle>false</activeaudioangle>
                    <clip id="clip-3"/>
                  </angle>
                  <angle>
                    <activevideoangle>false</activevideoangle>
                    <activeaudioangle>false</activeaudioangle>
                    <clip id="clip-4"/>
                  </angle>
                  <angle>
                    <activevideoangle>false</activevideoangle>
                    <activeaudioangle>false</activeaudioangle>
                    <clip id="clip-5"/>
                  </angle>
                  <angle>
                    <activevideoangle>false</activevideoangle>
                    <activeaudioangle>false</activeaudioangle>
                    <clip id="clip-6"/>
                  </angle>
                  <angle>
                    <activevideoangle>false</activevideoangle>
                    <activeaudioangle>false</activeaudioangle>
                    <clip id="clip-7"/>
                  </angle>
                  <masterclipid>clip-master</masterclipid>
                </multiclip>
              </clipitem>
              <clipitem id="cs-1085">
                <duration>376</duration>
                <rate>
                  <ntsc>false</ntsc>
                  <timebase>25</timebase>
                </rate>
                <in>84838</in>
                <out>85213</out>
                <start>84838</start>
                <end>85213</end>
                <file id="src-3"/>
                <sourcetrack>
                  <mediatype>video</mediatype>
                  <trackindex>1</trackindex>
                </sourcetrack>
                <multiclip id="mcs-1085">
                  <name>MCS-1085</name>
                  <masterclipid>clip-master</masterclipid>
                  <collapsed>false</collapsed>
                  <angle>
                    <activevideoangle>false</activevideoangle>
                    <activeaudioangle>false</activeaudioangle>
                    <clip id="clip-1"/>
                  </angle>
                  <angle>
                    <activevideoangle>false</activevideoangle>
                    <activeaudioangle>false</activeaudioangle>
                    <clip id="clip-2"/>
                  </angle>
                  <angle>
                    <activevideoangle>true</activevideoangle>
                    <activeaudioangle>true</activeaudioangle>
                    <clip id="clip-3"/>
                  </angle>
                  <angle>
                    <activevideoangle>false</activevideoangle>
                    <activeaudioangle>false</activeaudioangle>
                    <clip id="clip-4"/>
                  </angle>
                  <angle>
                    <activevideoangle>false</activevideoangle>
                    <activeaudioangle>false</activeaudioangle>
                    <clip id="clip-5"/>
                  </angle>
                  <angle>
                    <activevideoangle>false</activevideoangle>
                    <activeaudioangle>false</activeaudioangle>
                    <clip id="clip-6"/>
                  </angle>
                  <angle>
                    <activevideoangle>false</activevideoangle>
                    <activeaudioangle>false</activeaudioangle>
                    <clip id="clip-7"/>
                  </angle>
                  <masterclipid>clip-master</masterclipid>
                </multiclip>
              </clipitem>
              <clipitem id="cs-1086">
                <duration>168</duration>
                <rate>
                  <ntsc>false</ntsc>
                  <timebase>25</timebase>
                </rate>
                <in>85213</in>
                <out>85380</out>
                <start>85213</start>
                <end>85380</end>
                <file id="src-5"/>
                <sourcetrack>
                  <mediatype>video</mediatype>
                  <trackindex>1</trackindex>
                </sourcetrack>
                <multiclip id="mcs-1086">
                  <name>MCS-1086</name>
                  <masterclipid>clip-master</masterclipid>
                  <collapsed>false</collapsed>
                  <angle>
                    <activevideoangle>false</activevideoangle>
                    <activeaudioangle>false</activeaudioangle>
                    <clip id="clip-1"/>
                  </angle>
                  <angle>
                    <activevideoangle>false</activevideoangle>
                    <activeaudioangle>false</activeaudioangle>
                    <clip id="clip-2"/>
                  </angle>
                  <angle>
                    <activevideoangle>false</activevideoangle>
                    <activeaudioangle>false</activeaudioangle>
                    <clip id="clip-3"/>
                  </angle>
                  <angle>
                    <activevideoangle>false</activevideoangle>
                    <activeaudioangle>false</activeaudioangle>
                    <clip id="clip-4"/>
                  </angle>
                  <angle>
                    <activevideoangle>true</activevideoangle>
                    <activeaudioangle>true</activeaudioangle>
                    <clip id="clip-5"/>
                  </angle>
                  <angle>
                    <activevideoangle>false</activevideoangle>
                    <activeaudioangle>false</activeaudioangle>
                    <clip id="clip-6"/>
                  </angle>
                  <angle>
                    <activevideoangle>false</activevideoangle>
                    <activeaudioangle>false</activeaudioangle>
                    <clip id="clip-7"/>
                  </angle>
                  <masterclipid>clip-master</masterclipid>
                </multiclip>
              </clipitem>
              <clipitem id="cs-1087">
                <duration>262</duration>
                <rate>
                  <ntsc>false</ntsc>
                  <timebase>25</timebase>
                </rate>
                <in>85380</in>
                <out>85641</out>
                <start>85380</start>
                <end>85641</end>
                <file id="src-2"/>
                <sourcetrack>
                  <mediatype>video</mediatype>
                  <trackindex>1</trackindex>
                </sourcetrack>
                <multiclip id="mcs-1087">
                  <name>MCS-1087</name>
                  <masterclipid>clip-master</masterclipid>
                  <collapsed>false</collapsed>
                  <angle>
                    <activevideoangle>false</activevideoangle>
                    <activeaudioangle>false</activeaudioangle>
                    <clip id="clip-1"/>
                  </angle>
                  <angle>
                    <activevideoangle>true</activevideoangle>
                    <activeaudioangle>true</activeaudioangle>
                    <clip id="clip-2"/>
                  </angle>
                  <angle>
                    <activevideoangle>false</activevideoangle>
                    <activeaudioangle>false</activeaudioangle>
                    <clip id="clip-3"/>
                  </angle>
                  <angle>
                    <activevideoangle>false</activevideoangle>
                    <activeaudioangle>false</activeaudioangle>
                    <clip id="clip-4"/>
                  </angle>
                  <angle>
                    <activevideoangle>false</activevideoangle>
                    <activeaudioangle>false</activeaudioangle>
                    <clip id="clip-5"/>
                  </angle>
                  <angle>
                    <activevideoangle>false</activevideoangle>
                    <activeaudioangle>false</activeaudioangle>
                    <clip id="clip-6"/>
                  </angle>
                  <angle>
                    <activevideoangle>false</activevideoangle>
                    <activeaudioangle>false</activeaudioangle>
                    <clip id="clip-7"/>
                  </angle>
                  <masterclipid>clip-master</masterclipid>
                </multiclip>
              </clipitem>
              <clipitem id="cs-1088">
                <duration>98</duration>
                <rate>
                  <ntsc>false</ntsc>
                  <timebase>25</timebase>
                </rate>
                <in>85641</in>
                <out>85738</out>
                <start>85641</start>
                <end>85738</end>
                <file id="src-1"/>
                <sourcetrack>
                  <mediatype>video</mediatype>
                  <trackindex>1</trackindex>
                </sourcetrack>
                <multiclip id="mcs-1088">
                  <name>MCS-1088</name>
                  <masterclipid>clip-master</masterclipid>
                  <collapsed>false</collapsed>
                  <angle>
                    <activevideoangle>true</activevideoangle>
                    <activeaudioangle>true</activeaudioangle>
                    <clip id="clip-1"/>
                  </angle>
                  <angle>
                    <activevideoangle>false</activevideoangle>
                    <activeaudioangle>false</activeaudioangle>
                    <clip id="clip-2"/>
                  </angle>
                  <angle>
                    <activevideoangle>false</activevideoangle>
                    <activeaudioangle>false</activeaudioangle>
                    <clip id="clip-3"/>
                  </angle>
                  <angle>
                    <activevideoangle>false</activevideoangle>
                    <activeaudioangle>false</activeaudioangle>
                    <clip id="clip-4"/>
                  </angle>
                  <angle>
                    <activevideoangle>false</activevideoangle>
                    <activeaudioangle>false</activeaudioangle>
                    <clip id="clip-5"/>
                  </angle>
                  <angle>
                    <activevideoangle>false</activevideoangle>
                    <activeaudioangle>false</activeaudioangle>
                    <clip id="clip-6"/>
                  </angle>
                  <angle>
                    <activevideoangle>false</activevideoangle>
                    <activeaudioangle>false</activeaudioangle>
                    <clip id="clip-7"/>
                  </angle>
                  <masterclipid>clip-master</masterclipid>
                </multiclip>
              </clipitem>
              <clipitem id="cs-1089">
                <duration>618</duration>
                <rate>
                  <ntsc>false</ntsc>
                  <timebase>25</timebase>
                </rate>
                <in>85738</in>
                <out>86355</out>
                <start>85738</start>
                <end>86355</end>
                <file id="src-3"/>
                <sourcetrack>
                  <mediatype>video</mediatype>
                  <trackindex>1</trackindex>
                </sourcetrack>
                <multiclip id="mcs-1089">
                  <name>MCS-1089</name>
                  <masterclipid>clip-master</masterclipid>
                  <collapsed>false</collapsed>
                  <angle>
                    <activevideoangle>false</activevideoangle>
                    <activeaudioangle>false</activeaudioangle>
                    <clip id="clip-1"/>
                  </angle>
                  <angle>
                    <activevideoangle>false</activevideoangle>
                    <activeaudioangle>false</activeaudioangle>
                    <clip id="clip-2"/>
                  </angle>
                  <angle>
                    <activevideoangle>true</activevideoangle>
                    <activeaudioangle>true</activeaudioangle>
                    <clip id="clip-3"/>
                  </angle>
                  <angle>
                    <activevideoangle>false</activevideoangle>
                    <activeaudioangle>false</activeaudioangle>
                    <clip id="clip-4"/>
                  </angle>
                  <angle>
                    <activevideoangle>false</activevideoangle>
                    <activeaudioangle>false</activeaudioangle>
                    <clip id="clip-5"/>
                  </angle>
                  <angle>
                    <activevideoangle>false</activevideoangle>
                    <activeaudioangle>false</activeaudioangle>
                    <clip id="clip-6"/>
                  </angle>
                  <angle>
                    <activevideoangle>false</activevideoangle>
                    <activeaudioangle>false</activeaudioangle>
                    <clip id="clip-7"/>
                  </angle>
                  <masterclipid>clip-master</masterclipid>
                </multiclip>
              </clipitem>
              <clipitem id="cs-1090">
                <duration>144</duration>
                <rate>
                  <ntsc>false</ntsc>
                  <timebase>25</timebase>
                </rate>
                <in>86355</in>
                <out>86498</out>
                <start>86355</start>
                <end>86498</end>
                <file id="src-1"/>
                <sourcetrack>
                  <mediatype>video</mediatype>
                  <trackindex>1</trackindex>
                </sourcetrack>
                <multiclip id="mcs-1090">
                  <name>MCS-1090</name>
                  <masterclipid>clip-master</masterclipid>
                  <collapsed>false</collapsed>
                  <angle>
                    <activevideoangle>true</activevideoangle>
                    <activeaudioangle>true</activeaudioangle>
                    <clip id="clip-1"/>
                  </angle>
                  <angle>
                    <activevideoangle>false</activevideoangle>
                    <activeaudioangle>false</activeaudioangle>
                    <clip id="clip-2"/>
                  </angle>
                  <angle>
                    <activevideoangle>false</activevideoangle>
                    <activeaudioangle>false</activeaudioangle>
                    <clip id="clip-3"/>
                  </angle>
                  <angle>
                    <activevideoangle>false</activevideoangle>
                    <activeaudioangle>false</activeaudioangle>
                    <clip id="clip-4"/>
                  </angle>
                  <angle>
                    <activevideoangle>false</activevideoangle>
                    <activeaudioangle>false</activeaudioangle>
                    <clip id="clip-5"/>
                  </angle>
                  <angle>
                    <activevideoangle>false</activevideoangle>
                    <activeaudioangle>false</activeaudioangle>
                    <clip id="clip-6"/>
                  </angle>
                  <angle>
                    <activevideoangle>false</activevideoangle>
                    <activeaudioangle>false</activeaudioangle>
                    <clip id="clip-7"/>
                  </angle>
                  <masterclipid>clip-master</masterclipid>
                </multiclip>
              </clipitem>
              <clipitem id="cs-1091">
                <duration>131</duration>
                <rate>
                  <ntsc>false</ntsc>
                  <timebase>25</timebase>
                </rate>
                <in>86498</in>
                <out>86628</out>
                <start>86498</start>
                <end>86628</end>
                <file id="src-3"/>
                <sourcetrack>
                  <mediatype>video</mediatype>
                  <trackindex>1</trackindex>
                </sourcetrack>
                <multiclip id="mcs-1091">
                  <name>MCS-1091</name>
                  <masterclipid>clip-master</masterclipid>
                  <collapsed>false</collapsed>
                  <angle>
                    <activevideoangle>false</activevideoangle>
                    <activeaudioangle>false</activeaudioangle>
                    <clip id="clip-1"/>
                  </angle>
                  <angle>
                    <activevideoangle>false</activevideoangle>
                    <activeaudioangle>false</activeaudioangle>
                    <clip id="clip-2"/>
                  </angle>
                  <angle>
                    <activevideoangle>true</activevideoangle>
                    <activeaudioangle>true</activeaudioangle>
                    <clip id="clip-3"/>
                  </angle>
                  <angle>
                    <activevideoangle>false</activevideoangle>
                    <activeaudioangle>false</activeaudioangle>
                    <clip id="clip-4"/>
                  </angle>
                  <angle>
                    <activevideoangle>false</activevideoangle>
                    <activeaudioangle>false</activeaudioangle>
                    <clip id="clip-5"/>
                  </angle>
                  <angle>
                    <activevideoangle>false</activevideoangle>
                    <activeaudioangle>false</activeaudioangle>
                    <clip id="clip-6"/>
                  </angle>
                  <angle>
                    <activevideoangle>false</activevideoangle>
                    <activeaudioangle>false</activeaudioangle>
                    <clip id="clip-7"/>
                  </angle>
                  <masterclipid>clip-master</masterclipid>
                </multiclip>
              </clipitem>
              <clipitem id="cs-1092">
                <duration>192</duration>
                <rate>
                  <ntsc>false</ntsc>
                  <timebase>25</timebase>
                </rate>
                <in>86628</in>
                <out>86819</out>
                <start>86628</start>
                <end>86819</end>
                <file id="src-2"/>
                <sourcetrack>
                  <mediatype>video</mediatype>
                  <trackindex>1</trackindex>
                </sourcetrack>
                <multiclip id="mcs-1092">
                  <name>MCS-1092</name>
                  <masterclipid>clip-master</masterclipid>
                  <collapsed>false</collapsed>
                  <angle>
                    <activevideoangle>false</activevideoangle>
                    <activeaudioangle>false</activeaudioangle>
                    <clip id="clip-1"/>
                  </angle>
                  <angle>
                    <activevideoangle>true</activevideoangle>
                    <activeaudioangle>true</activeaudioangle>
                    <clip id="clip-2"/>
                  </angle>
                  <angle>
                    <activevideoangle>false</activevideoangle>
                    <activeaudioangle>false</activeaudioangle>
                    <clip id="clip-3"/>
                  </angle>
                  <angle>
                    <activevideoangle>false</activevideoangle>
                    <activeaudioangle>false</activeaudioangle>
                    <clip id="clip-4"/>
                  </angle>
                  <angle>
                    <activevideoangle>false</activevideoangle>
                    <activeaudioangle>false</activeaudioangle>
                    <clip id="clip-5"/>
                  </angle>
                  <angle>
                    <activevideoangle>false</activevideoangle>
                    <activeaudioangle>false</activeaudioangle>
                    <clip id="clip-6"/>
                  </angle>
                  <angle>
                    <activevideoangle>false</activevideoangle>
                    <activeaudioangle>false</activeaudioangle>
                    <clip id="clip-7"/>
                  </angle>
                  <masterclipid>clip-master</masterclipid>
                </multiclip>
              </clipitem>
              <clipitem id="cs-1093">
                <duration>610</duration>
                <rate>
                  <ntsc>false</ntsc>
                  <timebase>25</timebase>
                </rate>
                <in>86819</in>
                <out>87428</out>
                <start>86819</start>
                <end>87428</end>
                <file id="src-3"/>
                <sourcetrack>
                  <mediatype>video</mediatype>
                  <trackindex>1</trackindex>
                </sourcetrack>
                <multiclip id="mcs-1093">
                  <name>MCS-1093</name>
                  <masterclipid>clip-master</masterclipid>
                  <collapsed>false</collapsed>
                  <angle>
                    <activevideoangle>false</activevideoangle>
                    <activeaudioangle>false</activeaudioangle>
                    <clip id="clip-1"/>
                  </angle>
                  <angle>
                    <activevideoangle>false</activevideoangle>
                    <activeaudioangle>false</activeaudioangle>
                    <clip id="clip-2"/>
                  </angle>
                  <angle>
                    <activevideoangle>true</activevideoangle>
                    <activeaudioangle>true</activeaudioangle>
                    <clip id="clip-3"/>
                  </angle>
                  <angle>
                    <activevideoangle>false</activevideoangle>
                    <activeaudioangle>false</activeaudioangle>
                    <clip id="clip-4"/>
                  </angle>
                  <angle>
                    <activevideoangle>false</activevideoangle>
                    <activeaudioangle>false</activeaudioangle>
                    <clip id="clip-5"/>
                  </angle>
                  <angle>
                    <activevideoangle>false</activevideoangle>
                    <activeaudioangle>false</activeaudioangle>
                    <clip id="clip-6"/>
                  </angle>
                  <angle>
                    <activevideoangle>false</activevideoangle>
                    <activeaudioangle>false</activeaudioangle>
                    <clip id="clip-7"/>
                  </angle>
                  <masterclipid>clip-master</masterclipid>
                </multiclip>
              </clipitem>
              <clipitem id="cs-1094">
                <duration>120</duration>
                <rate>
                  <ntsc>false</ntsc>
                  <timebase>25</timebase>
                </rate>
                <in>87428</in>
                <out>87547</out>
                <start>87428</start>
                <end>87547</end>
                <file id="src-4"/>
                <sourcetrack>
                  <mediatype>video</mediatype>
                  <trackindex>1</trackindex>
                </sourcetrack>
                <multiclip id="mcs-1094">
                  <name>MCS-1094</name>
                  <masterclipid>clip-master</masterclipid>
                  <collapsed>false</collapsed>
                  <angle>
                    <activevideoangle>false</activevideoangle>
                    <activeaudioangle>false</activeaudioangle>
                    <clip id="clip-1"/>
                  </angle>
                  <angle>
                    <activevideoangle>false</activevideoangle>
                    <activeaudioangle>false</activeaudioangle>
                    <clip id="clip-2"/>
                  </angle>
                  <angle>
                    <activevideoangle>false</activevideoangle>
                    <activeaudioangle>false</activeaudioangle>
                    <clip id="clip-3"/>
                  </angle>
                  <angle>
                    <activevideoangle>true</activevideoangle>
                    <activeaudioangle>true</activeaudioangle>
                    <clip id="clip-4"/>
                  </angle>
                  <angle>
                    <activevideoangle>false</activevideoangle>
                    <activeaudioangle>false</activeaudioangle>
                    <clip id="clip-5"/>
                  </angle>
                  <angle>
                    <activevideoangle>false</activevideoangle>
                    <activeaudioangle>false</activeaudioangle>
                    <clip id="clip-6"/>
                  </angle>
                  <angle>
                    <activevideoangle>false</activevideoangle>
                    <activeaudioangle>false</activeaudioangle>
                    <clip id="clip-7"/>
                  </angle>
                  <masterclipid>clip-master</masterclipid>
                </multiclip>
              </clipitem>
              <clipitem id="cs-1095">
                <duration>112</duration>
                <rate>
                  <ntsc>false</ntsc>
                  <timebase>25</timebase>
                </rate>
                <in>87547</in>
                <out>87658</out>
                <start>87547</start>
                <end>87658</end>
                <file id="src-1"/>
                <sourcetrack>
                  <mediatype>video</mediatype>
                  <trackindex>1</trackindex>
                </sourcetrack>
                <multiclip id="mcs-1095">
                  <name>MCS-1095</name>
                  <masterclipid>clip-master</masterclipid>
                  <collapsed>false</collapsed>
                  <angle>
                    <activevideoangle>true</activevideoangle>
                    <activeaudioangle>true</activeaudioangle>
                    <clip id="clip-1"/>
                  </angle>
                  <angle>
                    <activevideoangle>false</activevideoangle>
                    <activeaudioangle>false</activeaudioangle>
                    <clip id="clip-2"/>
                  </angle>
                  <angle>
                    <activevideoangle>false</activevideoangle>
                    <activeaudioangle>false</activeaudioangle>
                    <clip id="clip-3"/>
                  </angle>
                  <angle>
                    <activevideoangle>false</activevideoangle>
                    <activeaudioangle>false</activeaudioangle>
                    <clip id="clip-4"/>
                  </angle>
                  <angle>
                    <activevideoangle>false</activevideoangle>
                    <activeaudioangle>false</activeaudioangle>
                    <clip id="clip-5"/>
                  </angle>
                  <angle>
                    <activevideoangle>false</activevideoangle>
                    <activeaudioangle>false</activeaudioangle>
                    <clip id="clip-6"/>
                  </angle>
                  <angle>
                    <activevideoangle>false</activevideoangle>
                    <activeaudioangle>false</activeaudioangle>
                    <clip id="clip-7"/>
                  </angle>
                  <masterclipid>clip-master</masterclipid>
                </multiclip>
              </clipitem>
              <clipitem id="cs-1096">
                <duration>309</duration>
                <rate>
                  <ntsc>false</ntsc>
                  <timebase>25</timebase>
                </rate>
                <in>87658</in>
                <out>87966</out>
                <start>87658</start>
                <end>87966</end>
                <file id="src-3"/>
                <sourcetrack>
                  <mediatype>video</mediatype>
                  <trackindex>1</trackindex>
                </sourcetrack>
                <multiclip id="mcs-1096">
                  <name>MCS-1096</name>
                  <masterclipid>clip-master</masterclipid>
                  <collapsed>false</collapsed>
                  <angle>
                    <activevideoangle>false</activevideoangle>
                    <activeaudioangle>false</activeaudioangle>
                    <clip id="clip-1"/>
                  </angle>
                  <angle>
                    <activevideoangle>false</activevideoangle>
                    <activeaudioangle>false</activeaudioangle>
                    <clip id="clip-2"/>
                  </angle>
                  <angle>
                    <activevideoangle>true</activevideoangle>
                    <activeaudioangle>true</activeaudioangle>
                    <clip id="clip-3"/>
                  </angle>
                  <angle>
                    <activevideoangle>false</activevideoangle>
                    <activeaudioangle>false</activeaudioangle>
                    <clip id="clip-4"/>
                  </angle>
                  <angle>
                    <activevideoangle>false</activevideoangle>
                    <activeaudioangle>false</activeaudioangle>
                    <clip id="clip-5"/>
                  </angle>
                  <angle>
                    <activevideoangle>false</activevideoangle>
                    <activeaudioangle>false</activeaudioangle>
                    <clip id="clip-6"/>
                  </angle>
                  <angle>
                    <activevideoangle>false</activevideoangle>
                    <activeaudioangle>false</activeaudioangle>
                    <clip id="clip-7"/>
                  </angle>
                  <masterclipid>clip-master</masterclipid>
                </multiclip>
              </clipitem>
              <clipitem id="cs-1097">
                <duration>294</duration>
                <rate>
                  <ntsc>false</ntsc>
                  <timebase>25</timebase>
                </rate>
                <in>87966</in>
                <out>88259</out>
                <start>87966</start>
                <end>88259</end>
                <file id="src-4"/>
                <sourcetrack>
                  <mediatype>video</mediatype>
                  <trackindex>1</trackindex>
                </sourcetrack>
                <multiclip id="mcs-1097">
                  <name>MCS-1097</name>
                  <masterclipid>clip-master</masterclipid>
                  <collapsed>false</collapsed>
                  <angle>
                    <activevideoangle>false</activevideoangle>
                    <activeaudioangle>false</activeaudioangle>
                    <clip id="clip-1"/>
                  </angle>
                  <angle>
                    <activevideoangle>false</activevideoangle>
                    <activeaudioangle>false</activeaudioangle>
                    <clip id="clip-2"/>
                  </angle>
                  <angle>
                    <activevideoangle>false</activevideoangle>
                    <activeaudioangle>false</activeaudioangle>
                    <clip id="clip-3"/>
                  </angle>
                  <angle>
                    <activevideoangle>true</activevideoangle>
                    <activeaudioangle>true</activeaudioangle>
                    <clip id="clip-4"/>
                  </angle>
                  <angle>
                    <activevideoangle>false</activevideoangle>
                    <activeaudioangle>false</activeaudioangle>
                    <clip id="clip-5"/>
                  </angle>
                  <angle>
                    <activevideoangle>false</activevideoangle>
                    <activeaudioangle>false</activeaudioangle>
                    <clip id="clip-6"/>
                  </angle>
                  <angle>
                    <activevideoangle>false</activevideoangle>
                    <activeaudioangle>false</activeaudioangle>
                    <clip id="clip-7"/>
                  </angle>
                  <masterclipid>clip-master</masterclipid>
                </multiclip>
              </clipitem>
              <clipitem id="cs-1098">
                <duration>198</duration>
                <rate>
                  <ntsc>false</ntsc>
                  <timebase>25</timebase>
                </rate>
                <in>88259</in>
                <out>88456</out>
                <start>88259</start>
                <end>88456</end>
                <file id="src-3"/>
                <sourcetrack>
                  <mediatype>video</mediatype>
                  <trackindex>1</trackindex>
                </sourcetrack>
                <multiclip id="mcs-1098">
                  <name>MCS-1098</name>
                  <masterclipid>clip-master</masterclipid>
                  <collapsed>false</collapsed>
                  <angle>
                    <activevideoangle>false</activevideoangle>
                    <activeaudioangle>false</activeaudioangle>
                    <clip id="clip-1"/>
                  </angle>
                  <angle>
                    <activevideoangle>false</activevideoangle>
                    <activeaudioangle>false</activeaudioangle>
                    <clip id="clip-2"/>
                  </angle>
                  <angle>
                    <activevideoangle>true</activevideoangle>
                    <activeaudioangle>true</activeaudioangle>
                    <clip id="clip-3"/>
                  </angle>
                  <angle>
                    <activevideoangle>false</activevideoangle>
                    <activeaudioangle>false</activeaudioangle>
                    <clip id="clip-4"/>
                  </angle>
                  <angle>
                    <activevideoangle>false</activevideoangle>
                    <activeaudioangle>false</activeaudioangle>
                    <clip id="clip-5"/>
                  </angle>
                  <angle>
                    <activevideoangle>false</activevideoangle>
                    <activeaudioangle>false</activeaudioangle>
                    <clip id="clip-6"/>
                  </angle>
                  <angle>
                    <activevideoangle>false</activevideoangle>
                    <activeaudioangle>false</activeaudioangle>
                    <clip id="clip-7"/>
                  </angle>
                  <masterclipid>clip-master</masterclipid>
                </multiclip>
              </clipitem>
              <clipitem id="cs-1099">
                <duration>261</duration>
                <rate>
                  <ntsc>false</ntsc>
                  <timebase>25</timebase>
                </rate>
                <in>88456</in>
                <out>88716</out>
                <start>88456</start>
                <end>88716</end>
                <file id="src-2"/>
                <sourcetrack>
                  <mediatype>video</mediatype>
                  <trackindex>1</trackindex>
                </sourcetrack>
                <multiclip id="mcs-1099">
                  <name>MCS-1099</name>
                  <masterclipid>clip-master</masterclipid>
                  <collapsed>false</collapsed>
                  <angle>
                    <activevideoangle>false</activevideoangle>
                    <activeaudioangle>false</activeaudioangle>
                    <clip id="clip-1"/>
                  </angle>
                  <angle>
                    <activevideoangle>true</activevideoangle>
                    <activeaudioangle>true</activeaudioangle>
                    <clip id="clip-2"/>
                  </angle>
                  <angle>
                    <activevideoangle>false</activevideoangle>
                    <activeaudioangle>false</activeaudioangle>
                    <clip id="clip-3"/>
                  </angle>
                  <angle>
                    <activevideoangle>false</activevideoangle>
                    <activeaudioangle>false</activeaudioangle>
                    <clip id="clip-4"/>
                  </angle>
                  <angle>
                    <activevideoangle>false</activevideoangle>
                    <activeaudioangle>false</activeaudioangle>
                    <clip id="clip-5"/>
                  </angle>
                  <angle>
                    <activevideoangle>false</activevideoangle>
                    <activeaudioangle>false</activeaudioangle>
                    <clip id="clip-6"/>
                  </angle>
                  <angle>
                    <activevideoangle>false</activevideoangle>
                    <activeaudioangle>false</activeaudioangle>
                    <clip id="clip-7"/>
                  </angle>
                  <masterclipid>clip-master</masterclipid>
                </multiclip>
              </clipitem>
              <clipitem id="cs-1100">
                <duration>122</duration>
                <rate>
                  <ntsc>false</ntsc>
                  <timebase>25</timebase>
                </rate>
                <in>88716</in>
                <out>88837</out>
                <start>88716</start>
                <end>88837</end>
                <file id="src-5"/>
                <sourcetrack>
                  <mediatype>video</mediatype>
                  <trackindex>1</trackindex>
                </sourcetrack>
                <multiclip id="mcs-1100">
                  <name>MCS-1100</name>
                  <masterclipid>clip-master</masterclipid>
                  <collapsed>false</collapsed>
                  <angle>
                    <activevideoangle>false</activevideoangle>
                    <activeaudioangle>false</activeaudioangle>
                    <clip id="clip-1"/>
                  </angle>
                  <angle>
                    <activevideoangle>false</activevideoangle>
                    <activeaudioangle>false</activeaudioangle>
                    <clip id="clip-2"/>
                  </angle>
                  <angle>
                    <activevideoangle>false</activevideoangle>
                    <activeaudioangle>false</activeaudioangle>
                    <clip id="clip-3"/>
                  </angle>
                  <angle>
                    <activevideoangle>false</activevideoangle>
                    <activeaudioangle>false</activeaudioangle>
                    <clip id="clip-4"/>
                  </angle>
                  <angle>
                    <activevideoangle>true</activevideoangle>
                    <activeaudioangle>true</activeaudioangle>
                    <clip id="clip-5"/>
                  </angle>
                  <angle>
                    <activevideoangle>false</activevideoangle>
                    <activeaudioangle>false</activeaudioangle>
                    <clip id="clip-6"/>
                  </angle>
                  <angle>
                    <activevideoangle>false</activevideoangle>
                    <activeaudioangle>false</activeaudioangle>
                    <clip id="clip-7"/>
                  </angle>
                  <masterclipid>clip-master</masterclipid>
                </multiclip>
              </clipitem>
              <clipitem id="cs-1101">
                <duration>66</duration>
                <rate>
                  <ntsc>false</ntsc>
                  <timebase>25</timebase>
                </rate>
                <in>88837</in>
                <out>88902</out>
                <start>88837</start>
                <end>88902</end>
                <file id="src-1"/>
                <sourcetrack>
                  <mediatype>video</mediatype>
                  <trackindex>1</trackindex>
                </sourcetrack>
                <multiclip id="mcs-1101">
                  <name>MCS-1101</name>
                  <masterclipid>clip-master</masterclipid>
                  <collapsed>false</collapsed>
                  <angle>
                    <activevideoangle>true</activevideoangle>
                    <activeaudioangle>true</activeaudioangle>
                    <clip id="clip-1"/>
                  </angle>
                  <angle>
                    <activevideoangle>false</activevideoangle>
                    <activeaudioangle>false</activeaudioangle>
                    <clip id="clip-2"/>
                  </angle>
                  <angle>
                    <activevideoangle>false</activevideoangle>
                    <activeaudioangle>false</activeaudioangle>
                    <clip id="clip-3"/>
                  </angle>
                  <angle>
                    <activevideoangle>false</activevideoangle>
                    <activeaudioangle>false</activeaudioangle>
                    <clip id="clip-4"/>
                  </angle>
                  <angle>
                    <activevideoangle>false</activevideoangle>
                    <activeaudioangle>false</activeaudioangle>
                    <clip id="clip-5"/>
                  </angle>
                  <angle>
                    <activevideoangle>false</activevideoangle>
                    <activeaudioangle>false</activeaudioangle>
                    <clip id="clip-6"/>
                  </angle>
                  <angle>
                    <activevideoangle>false</activevideoangle>
                    <activeaudioangle>false</activeaudioangle>
                    <clip id="clip-7"/>
                  </angle>
                  <masterclipid>clip-master</masterclipid>
                </multiclip>
              </clipitem>
              <clipitem id="cs-1102">
                <duration>131</duration>
                <rate>
                  <ntsc>false</ntsc>
                  <timebase>25</timebase>
                </rate>
                <in>88902</in>
                <out>89032</out>
                <start>88902</start>
                <end>89032</end>
                <file id="src-6"/>
                <sourcetrack>
                  <mediatype>video</mediatype>
                  <trackindex>1</trackindex>
                </sourcetrack>
                <multiclip id="mcs-1102">
                  <name>MCS-1102</name>
                  <masterclipid>clip-master</masterclipid>
                  <collapsed>false</collapsed>
                  <angle>
                    <activevideoangle>false</activevideoangle>
                    <activeaudioangle>false</activeaudioangle>
                    <clip id="clip-1"/>
                  </angle>
                  <angle>
                    <activevideoangle>false</activevideoangle>
                    <activeaudioangle>false</activeaudioangle>
                    <clip id="clip-2"/>
                  </angle>
                  <angle>
                    <activevideoangle>false</activevideoangle>
                    <activeaudioangle>false</activeaudioangle>
                    <clip id="clip-3"/>
                  </angle>
                  <angle>
                    <activevideoangle>false</activevideoangle>
                    <activeaudioangle>false</activeaudioangle>
                    <clip id="clip-4"/>
                  </angle>
                  <angle>
                    <activevideoangle>false</activevideoangle>
                    <activeaudioangle>false</activeaudioangle>
                    <clip id="clip-5"/>
                  </angle>
                  <angle>
                    <activevideoangle>true</activevideoangle>
                    <activeaudioangle>true</activeaudioangle>
                    <clip id="clip-6"/>
                  </angle>
                  <angle>
                    <activevideoangle>false</activevideoangle>
                    <activeaudioangle>false</activeaudioangle>
                    <clip id="clip-7"/>
                  </angle>
                  <masterclipid>clip-master</masterclipid>
                </multiclip>
              </clipitem>
              <clipitem id="cs-1103">
                <duration>645</duration>
                <rate>
                  <ntsc>false</ntsc>
                  <timebase>25</timebase>
                </rate>
                <in>89032</in>
                <out>89676</out>
                <start>89032</start>
                <end>89676</end>
                <file id="src-3"/>
                <sourcetrack>
                  <mediatype>video</mediatype>
                  <trackindex>1</trackindex>
                </sourcetrack>
                <multiclip id="mcs-1103">
                  <name>MCS-1103</name>
                  <masterclipid>clip-master</masterclipid>
                  <collapsed>false</collapsed>
                  <angle>
                    <activevideoangle>false</activevideoangle>
                    <activeaudioangle>false</activeaudioangle>
                    <clip id="clip-1"/>
                  </angle>
                  <angle>
                    <activevideoangle>false</activevideoangle>
                    <activeaudioangle>false</activeaudioangle>
                    <clip id="clip-2"/>
                  </angle>
                  <angle>
                    <activevideoangle>true</activevideoangle>
                    <activeaudioangle>true</activeaudioangle>
                    <clip id="clip-3"/>
                  </angle>
                  <angle>
                    <activevideoangle>false</activevideoangle>
                    <activeaudioangle>false</activeaudioangle>
                    <clip id="clip-4"/>
                  </angle>
                  <angle>
                    <activevideoangle>false</activevideoangle>
                    <activeaudioangle>false</activeaudioangle>
                    <clip id="clip-5"/>
                  </angle>
                  <angle>
                    <activevideoangle>false</activevideoangle>
                    <activeaudioangle>false</activeaudioangle>
                    <clip id="clip-6"/>
                  </angle>
                  <angle>
                    <activevideoangle>false</activevideoangle>
                    <activeaudioangle>false</activeaudioangle>
                    <clip id="clip-7"/>
                  </angle>
                  <masterclipid>clip-master</masterclipid>
                </multiclip>
              </clipitem>
              <clipitem id="cs-1104">
                <duration>237</duration>
                <rate>
                  <ntsc>false</ntsc>
                  <timebase>25</timebase>
                </rate>
                <in>89676</in>
                <out>89912</out>
                <start>89676</start>
                <end>89912</end>
                <file id="src-2"/>
                <sourcetrack>
                  <mediatype>video</mediatype>
                  <trackindex>1</trackindex>
                </sourcetrack>
                <multiclip id="mcs-1104">
                  <name>MCS-1104</name>
                  <masterclipid>clip-master</masterclipid>
                  <collapsed>false</collapsed>
                  <angle>
                    <activevideoangle>false</activevideoangle>
                    <activeaudioangle>false</activeaudioangle>
                    <clip id="clip-1"/>
                  </angle>
                  <angle>
                    <activevideoangle>true</activevideoangle>
                    <activeaudioangle>true</activeaudioangle>
                    <clip id="clip-2"/>
                  </angle>
                  <angle>
                    <activevideoangle>false</activevideoangle>
                    <activeaudioangle>false</activeaudioangle>
                    <clip id="clip-3"/>
                  </angle>
                  <angle>
                    <activevideoangle>false</activevideoangle>
                    <activeaudioangle>false</activeaudioangle>
                    <clip id="clip-4"/>
                  </angle>
                  <angle>
                    <activevideoangle>false</activevideoangle>
                    <activeaudioangle>false</activeaudioangle>
                    <clip id="clip-5"/>
                  </angle>
                  <angle>
                    <activevideoangle>false</activevideoangle>
                    <activeaudioangle>false</activeaudioangle>
                    <clip id="clip-6"/>
                  </angle>
                  <angle>
                    <activevideoangle>false</activevideoangle>
                    <activeaudioangle>false</activeaudioangle>
                    <clip id="clip-7"/>
                  </angle>
                  <masterclipid>clip-master</masterclipid>
                </multiclip>
              </clipitem>
              <clipitem id="cs-1105">
                <duration>148</duration>
                <rate>
                  <ntsc>false</ntsc>
                  <timebase>25</timebase>
                </rate>
                <in>89912</in>
                <out>90059</out>
                <start>89912</start>
                <end>90059</end>
                <file id="src-4"/>
                <sourcetrack>
                  <mediatype>video</mediatype>
                  <trackindex>1</trackindex>
                </sourcetrack>
                <multiclip id="mcs-1105">
                  <name>MCS-1105</name>
                  <masterclipid>clip-master</masterclipid>
                  <collapsed>false</collapsed>
                  <angle>
                    <activevideoangle>false</activevideoangle>
                    <activeaudioangle>false</activeaudioangle>
                    <clip id="clip-1"/>
                  </angle>
                  <angle>
                    <activevideoangle>false</activevideoangle>
                    <activeaudioangle>false</activeaudioangle>
                    <clip id="clip-2"/>
                  </angle>
                  <angle>
                    <activevideoangle>false</activevideoangle>
                    <activeaudioangle>false</activeaudioangle>
                    <clip id="clip-3"/>
                  </angle>
                  <angle>
                    <activevideoangle>true</activevideoangle>
                    <activeaudioangle>true</activeaudioangle>
                    <clip id="clip-4"/>
                  </angle>
                  <angle>
                    <activevideoangle>false</activevideoangle>
                    <activeaudioangle>false</activeaudioangle>
                    <clip id="clip-5"/>
                  </angle>
                  <angle>
                    <activevideoangle>false</activevideoangle>
                    <activeaudioangle>false</activeaudioangle>
                    <clip id="clip-6"/>
                  </angle>
                  <angle>
                    <activevideoangle>false</activevideoangle>
                    <activeaudioangle>false</activeaudioangle>
                    <clip id="clip-7"/>
                  </angle>
                  <masterclipid>clip-master</masterclipid>
                </multiclip>
              </clipitem>
              <clipitem id="cs-1106">
                <duration>358</duration>
                <rate>
                  <ntsc>false</ntsc>
                  <timebase>25</timebase>
                </rate>
                <in>90059</in>
                <out>90416</out>
                <start>90059</start>
                <end>90416</end>
                <file id="src-2"/>
                <sourcetrack>
                  <mediatype>video</mediatype>
                  <trackindex>1</trackindex>
                </sourcetrack>
                <multiclip id="mcs-1106">
                  <name>MCS-1106</name>
                  <masterclipid>clip-master</masterclipid>
                  <collapsed>false</collapsed>
                  <angle>
                    <activevideoangle>false</activevideoangle>
                    <activeaudioangle>false</activeaudioangle>
                    <clip id="clip-1"/>
                  </angle>
                  <angle>
                    <activevideoangle>true</activevideoangle>
                    <activeaudioangle>true</activeaudioangle>
                    <clip id="clip-2"/>
                  </angle>
                  <angle>
                    <activevideoangle>false</activevideoangle>
                    <activeaudioangle>false</activeaudioangle>
                    <clip id="clip-3"/>
                  </angle>
                  <angle>
                    <activevideoangle>false</activevideoangle>
                    <activeaudioangle>false</activeaudioangle>
                    <clip id="clip-4"/>
                  </angle>
                  <angle>
                    <activevideoangle>false</activevideoangle>
                    <activeaudioangle>false</activeaudioangle>
                    <clip id="clip-5"/>
                  </angle>
                  <angle>
                    <activevideoangle>false</activevideoangle>
                    <activeaudioangle>false</activeaudioangle>
                    <clip id="clip-6"/>
                  </angle>
                  <angle>
                    <activevideoangle>false</activevideoangle>
                    <activeaudioangle>false</activeaudioangle>
                    <clip id="clip-7"/>
                  </angle>
                  <masterclipid>clip-master</masterclipid>
                </multiclip>
              </clipitem>
              <clipitem id="cs-1107">
                <duration>330</duration>
                <rate>
                  <ntsc>false</ntsc>
                  <timebase>25</timebase>
                </rate>
                <in>90416</in>
                <out>90745</out>
                <start>90416</start>
                <end>90745</end>
                <file id="src-3"/>
                <sourcetrack>
                  <mediatype>video</mediatype>
                  <trackindex>1</trackindex>
                </sourcetrack>
                <multiclip id="mcs-1107">
                  <name>MCS-1107</name>
                  <masterclipid>clip-master</masterclipid>
                  <collapsed>false</collapsed>
                  <angle>
                    <activevideoangle>false</activevideoangle>
                    <activeaudioangle>false</activeaudioangle>
                    <clip id="clip-1"/>
                  </angle>
                  <angle>
                    <activevideoangle>false</activevideoangle>
                    <activeaudioangle>false</activeaudioangle>
                    <clip id="clip-2"/>
                  </angle>
                  <angle>
                    <activevideoangle>true</activevideoangle>
                    <activeaudioangle>true</activeaudioangle>
                    <clip id="clip-3"/>
                  </angle>
                  <angle>
                    <activevideoangle>false</activevideoangle>
                    <activeaudioangle>false</activeaudioangle>
                    <clip id="clip-4"/>
                  </angle>
                  <angle>
                    <activevideoangle>false</activevideoangle>
                    <activeaudioangle>false</activeaudioangle>
                    <clip id="clip-5"/>
                  </angle>
                  <angle>
                    <activevideoangle>false</activevideoangle>
                    <activeaudioangle>false</activeaudioangle>
                    <clip id="clip-6"/>
                  </angle>
                  <angle>
                    <activevideoangle>false</activevideoangle>
                    <activeaudioangle>false</activeaudioangle>
                    <clip id="clip-7"/>
                  </angle>
                  <masterclipid>clip-master</masterclipid>
                </multiclip>
              </clipitem>
              <clipitem id="cs-1108">
                <duration>333</duration>
                <rate>
                  <ntsc>false</ntsc>
                  <timebase>25</timebase>
                </rate>
                <in>90745</in>
                <out>91077</out>
                <start>90745</start>
                <end>91077</end>
                <file id="src-2"/>
                <sourcetrack>
                  <mediatype>video</mediatype>
                  <trackindex>1</trackindex>
                </sourcetrack>
                <multiclip id="mcs-1108">
                  <name>MCS-1108</name>
                  <masterclipid>clip-master</masterclipid>
                  <collapsed>false</collapsed>
                  <angle>
                    <activevideoangle>false</activevideoangle>
                    <activeaudioangle>false</activeaudioangle>
                    <clip id="clip-1"/>
                  </angle>
                  <angle>
                    <activevideoangle>true</activevideoangle>
                    <activeaudioangle>true</activeaudioangle>
                    <clip id="clip-2"/>
                  </angle>
                  <angle>
                    <activevideoangle>false</activevideoangle>
                    <activeaudioangle>false</activeaudioangle>
                    <clip id="clip-3"/>
                  </angle>
                  <angle>
                    <activevideoangle>false</activevideoangle>
                    <activeaudioangle>false</activeaudioangle>
                    <clip id="clip-4"/>
                  </angle>
                  <angle>
                    <activevideoangle>false</activevideoangle>
                    <activeaudioangle>false</activeaudioangle>
                    <clip id="clip-5"/>
                  </angle>
                  <angle>
                    <activevideoangle>false</activevideoangle>
                    <activeaudioangle>false</activeaudioangle>
                    <clip id="clip-6"/>
                  </angle>
                  <angle>
                    <activevideoangle>false</activevideoangle>
                    <activeaudioangle>false</activeaudioangle>
                    <clip id="clip-7"/>
                  </angle>
                  <masterclipid>clip-master</masterclipid>
                </multiclip>
              </clipitem>
              <clipitem id="cs-1109">
                <duration>301</duration>
                <rate>
                  <ntsc>false</ntsc>
                  <timebase>25</timebase>
                </rate>
                <in>91077</in>
                <out>91377</out>
                <start>91077</start>
                <end>91377</end>
                <file id="src-4"/>
                <sourcetrack>
                  <mediatype>video</mediatype>
                  <trackindex>1</trackindex>
                </sourcetrack>
                <multiclip id="mcs-1109">
                  <name>MCS-1109</name>
                  <masterclipid>clip-master</masterclipid>
                  <collapsed>false</collapsed>
                  <angle>
                    <activevideoangle>false</activevideoangle>
                    <activeaudioangle>false</activeaudioangle>
                    <clip id="clip-1"/>
                  </angle>
                  <angle>
                    <activevideoangle>false</activevideoangle>
                    <activeaudioangle>false</activeaudioangle>
                    <clip id="clip-2"/>
                  </angle>
                  <angle>
                    <activevideoangle>false</activevideoangle>
                    <activeaudioangle>false</activeaudioangle>
                    <clip id="clip-3"/>
                  </angle>
                  <angle>
                    <activevideoangle>true</activevideoangle>
                    <activeaudioangle>true</activeaudioangle>
                    <clip id="clip-4"/>
                  </angle>
                  <angle>
                    <activevideoangle>false</activevideoangle>
                    <activeaudioangle>false</activeaudioangle>
                    <clip id="clip-5"/>
                  </angle>
                  <angle>
                    <activevideoangle>false</activevideoangle>
                    <activeaudioangle>false</activeaudioangle>
                    <clip id="clip-6"/>
                  </angle>
                  <angle>
                    <activevideoangle>false</activevideoangle>
                    <activeaudioangle>false</activeaudioangle>
                    <clip id="clip-7"/>
                  </angle>
                  <masterclipid>clip-master</masterclipid>
                </multiclip>
              </clipitem>
              <clipitem id="cs-1110">
                <duration>203</duration>
                <rate>
                  <ntsc>false</ntsc>
                  <timebase>25</timebase>
                </rate>
                <in>91377</in>
                <out>91579</out>
                <start>91377</start>
                <end>91579</end>
                <file id="src-6"/>
                <sourcetrack>
                  <mediatype>video</mediatype>
                  <trackindex>1</trackindex>
                </sourcetrack>
                <multiclip id="mcs-1110">
                  <name>MCS-1110</name>
                  <masterclipid>clip-master</masterclipid>
                  <collapsed>false</collapsed>
                  <angle>
                    <activevideoangle>false</activevideoangle>
                    <activeaudioangle>false</activeaudioangle>
                    <clip id="clip-1"/>
                  </angle>
                  <angle>
                    <activevideoangle>false</activevideoangle>
                    <activeaudioangle>false</activeaudioangle>
                    <clip id="clip-2"/>
                  </angle>
                  <angle>
                    <activevideoangle>false</activevideoangle>
                    <activeaudioangle>false</activeaudioangle>
                    <clip id="clip-3"/>
                  </angle>
                  <angle>
                    <activevideoangle>false</activevideoangle>
                    <activeaudioangle>false</activeaudioangle>
                    <clip id="clip-4"/>
                  </angle>
                  <angle>
                    <activevideoangle>false</activevideoangle>
                    <activeaudioangle>false</activeaudioangle>
                    <clip id="clip-5"/>
                  </angle>
                  <angle>
                    <activevideoangle>true</activevideoangle>
                    <activeaudioangle>true</activeaudioangle>
                    <clip id="clip-6"/>
                  </angle>
                  <angle>
                    <activevideoangle>false</activevideoangle>
                    <activeaudioangle>false</activeaudioangle>
                    <clip id="clip-7"/>
                  </angle>
                  <masterclipid>clip-master</masterclipid>
                </multiclip>
              </clipitem>
              <clipitem id="cs-1111">
                <duration>3142</duration>
                <rate>
                  <ntsc>false</ntsc>
                  <timebase>25</timebase>
                </rate>
                <in>91579</in>
                <out>94720</out>
                <start>91579</start>
                <end>94720</end>
                <file id="src-2"/>
                <sourcetrack>
                  <mediatype>video</mediatype>
                  <trackindex>1</trackindex>
                </sourcetrack>
                <multiclip id="mcs-1111">
                  <name>MCS-1111</name>
                  <masterclipid>clip-master</masterclipid>
                  <collapsed>false</collapsed>
                  <angle>
                    <activevideoangle>false</activevideoangle>
                    <activeaudioangle>false</activeaudioangle>
                    <clip id="clip-1"/>
                  </angle>
                  <angle>
                    <activevideoangle>true</activevideoangle>
                    <activeaudioangle>true</activeaudioangle>
                    <clip id="clip-2"/>
                  </angle>
                  <angle>
                    <activevideoangle>false</activevideoangle>
                    <activeaudioangle>false</activeaudioangle>
                    <clip id="clip-3"/>
                  </angle>
                  <angle>
                    <activevideoangle>false</activevideoangle>
                    <activeaudioangle>false</activeaudioangle>
                    <clip id="clip-4"/>
                  </angle>
                  <angle>
                    <activevideoangle>false</activevideoangle>
                    <activeaudioangle>false</activeaudioangle>
                    <clip id="clip-5"/>
                  </angle>
                  <angle>
                    <activevideoangle>false</activevideoangle>
                    <activeaudioangle>false</activeaudioangle>
                    <clip id="clip-6"/>
                  </angle>
                  <angle>
                    <activevideoangle>false</activevideoangle>
                    <activeaudioangle>false</activeaudioangle>
                    <clip id="clip-7"/>
                  </angle>
                  <masterclipid>clip-master</masterclipid>
                </multiclip>
              </clipitem>
              <clipitem id="cs-1112">
                <duration>37</duration>
                <rate>
                  <ntsc>false</ntsc>
                  <timebase>25</timebase>
                </rate>
                <in>94720</in>
                <out>94756</out>
                <start>94720</start>
                <end>94756</end>
                <file id="src-3"/>
                <sourcetrack>
                  <mediatype>video</mediatype>
                  <trackindex>1</trackindex>
                </sourcetrack>
                <multiclip id="mcs-1112">
                  <name>MCS-1112</name>
                  <masterclipid>clip-master</masterclipid>
                  <collapsed>false</collapsed>
                  <angle>
                    <activevideoangle>false</activevideoangle>
                    <activeaudioangle>false</activeaudioangle>
                    <clip id="clip-1"/>
                  </angle>
                  <angle>
                    <activevideoangle>false</activevideoangle>
                    <activeaudioangle>false</activeaudioangle>
                    <clip id="clip-2"/>
                  </angle>
                  <angle>
                    <activevideoangle>true</activevideoangle>
                    <activeaudioangle>true</activeaudioangle>
                    <clip id="clip-3"/>
                  </angle>
                  <angle>
                    <activevideoangle>false</activevideoangle>
                    <activeaudioangle>false</activeaudioangle>
                    <clip id="clip-4"/>
                  </angle>
                  <angle>
                    <activevideoangle>false</activevideoangle>
                    <activeaudioangle>false</activeaudioangle>
                    <clip id="clip-5"/>
                  </angle>
                  <angle>
                    <activevideoangle>false</activevideoangle>
                    <activeaudioangle>false</activeaudioangle>
                    <clip id="clip-6"/>
                  </angle>
                  <angle>
                    <activevideoangle>false</activevideoangle>
                    <activeaudioangle>false</activeaudioangle>
                    <clip id="clip-7"/>
                  </angle>
                  <masterclipid>clip-master</masterclipid>
                </multiclip>
              </clipitem>
              <clipitem id="cs-1113">
                <duration>758</duration>
                <rate>
                  <ntsc>false</ntsc>
                  <timebase>25</timebase>
                </rate>
                <in>94756</in>
                <out>95513</out>
                <start>94756</start>
                <end>95513</end>
                <file id="src-1"/>
                <sourcetrack>
                  <mediatype>video</mediatype>
                  <trackindex>1</trackindex>
                </sourcetrack>
                <multiclip id="mcs-1113">
                  <name>MCS-1113</name>
                  <masterclipid>clip-master</masterclipid>
                  <collapsed>false</collapsed>
                  <angle>
                    <activevideoangle>true</activevideoangle>
                    <activeaudioangle>true</activeaudioangle>
                    <clip id="clip-1"/>
                  </angle>
                  <angle>
                    <activevideoangle>false</activevideoangle>
                    <activeaudioangle>false</activeaudioangle>
                    <clip id="clip-2"/>
                  </angle>
                  <angle>
                    <activevideoangle>false</activevideoangle>
                    <activeaudioangle>false</activeaudioangle>
                    <clip id="clip-3"/>
                  </angle>
                  <angle>
                    <activevideoangle>false</activevideoangle>
                    <activeaudioangle>false</activeaudioangle>
                    <clip id="clip-4"/>
                  </angle>
                  <angle>
                    <activevideoangle>false</activevideoangle>
                    <activeaudioangle>false</activeaudioangle>
                    <clip id="clip-5"/>
                  </angle>
                  <angle>
                    <activevideoangle>false</activevideoangle>
                    <activeaudioangle>false</activeaudioangle>
                    <clip id="clip-6"/>
                  </angle>
                  <angle>
                    <activevideoangle>false</activevideoangle>
                    <activeaudioangle>false</activeaudioangle>
                    <clip id="clip-7"/>
                  </angle>
                  <masterclipid>clip-master</masterclipid>
                </multiclip>
              </clipitem>
              <clipitem id="cs-1114">
                <duration>445</duration>
                <rate>
                  <ntsc>false</ntsc>
                  <timebase>25</timebase>
                </rate>
                <in>95513</in>
                <out>95957</out>
                <start>95513</start>
                <end>95957</end>
                <file id="src-6"/>
                <sourcetrack>
                  <mediatype>video</mediatype>
                  <trackindex>1</trackindex>
                </sourcetrack>
                <multiclip id="mcs-1114">
                  <name>MCS-1114</name>
                  <masterclipid>clip-master</masterclipid>
                  <collapsed>false</collapsed>
                  <angle>
                    <activevideoangle>false</activevideoangle>
                    <activeaudioangle>false</activeaudioangle>
                    <clip id="clip-1"/>
                  </angle>
                  <angle>
                    <activevideoangle>false</activevideoangle>
                    <activeaudioangle>false</activeaudioangle>
                    <clip id="clip-2"/>
                  </angle>
                  <angle>
                    <activevideoangle>false</activevideoangle>
                    <activeaudioangle>false</activeaudioangle>
                    <clip id="clip-3"/>
                  </angle>
                  <angle>
                    <activevideoangle>false</activevideoangle>
                    <activeaudioangle>false</activeaudioangle>
                    <clip id="clip-4"/>
                  </angle>
                  <angle>
                    <activevideoangle>false</activevideoangle>
                    <activeaudioangle>false</activeaudioangle>
                    <clip id="clip-5"/>
                  </angle>
                  <angle>
                    <activevideoangle>true</activevideoangle>
                    <activeaudioangle>true</activeaudioangle>
                    <clip id="clip-6"/>
                  </angle>
                  <angle>
                    <activevideoangle>false</activevideoangle>
                    <activeaudioangle>false</activeaudioangle>
                    <clip id="clip-7"/>
                  </angle>
                  <masterclipid>clip-master</masterclipid>
                </multiclip>
              </clipitem>
              <clipitem id="cs-1115">
                <duration>321</duration>
                <rate>
                  <ntsc>false</ntsc>
                  <timebase>25</timebase>
                </rate>
                <in>95957</in>
                <out>96277</out>
                <start>95957</start>
                <end>96277</end>
                <file id="src-2"/>
                <sourcetrack>
                  <mediatype>video</mediatype>
                  <trackindex>1</trackindex>
                </sourcetrack>
                <multiclip id="mcs-1115">
                  <name>MCS-1115</name>
                  <masterclipid>clip-master</masterclipid>
                  <collapsed>false</collapsed>
                  <angle>
                    <activevideoangle>false</activevideoangle>
                    <activeaudioangle>false</activeaudioangle>
                    <clip id="clip-1"/>
                  </angle>
                  <angle>
                    <activevideoangle>true</activevideoangle>
                    <activeaudioangle>true</activeaudioangle>
                    <clip id="clip-2"/>
                  </angle>
                  <angle>
                    <activevideoangle>false</activevideoangle>
                    <activeaudioangle>false</activeaudioangle>
                    <clip id="clip-3"/>
                  </angle>
                  <angle>
                    <activevideoangle>false</activevideoangle>
                    <activeaudioangle>false</activeaudioangle>
                    <clip id="clip-4"/>
                  </angle>
                  <angle>
                    <activevideoangle>false</activevideoangle>
                    <activeaudioangle>false</activeaudioangle>
                    <clip id="clip-5"/>
                  </angle>
                  <angle>
                    <activevideoangle>false</activevideoangle>
                    <activeaudioangle>false</activeaudioangle>
                    <clip id="clip-6"/>
                  </angle>
                  <angle>
                    <activevideoangle>false</activevideoangle>
                    <activeaudioangle>false</activeaudioangle>
                    <clip id="clip-7"/>
                  </angle>
                  <masterclipid>clip-master</masterclipid>
                </multiclip>
              </clipitem>
              <clipitem id="cs-1116">
                <duration>160</duration>
                <rate>
                  <ntsc>false</ntsc>
                  <timebase>25</timebase>
                </rate>
                <in>96277</in>
                <out>96436</out>
                <start>96277</start>
                <end>96436</end>
                <file id="src-3"/>
                <sourcetrack>
                  <mediatype>video</mediatype>
                  <trackindex>1</trackindex>
                </sourcetrack>
                <multiclip id="mcs-1116">
                  <name>MCS-1116</name>
                  <masterclipid>clip-master</masterclipid>
                  <collapsed>false</collapsed>
                  <angle>
                    <activevideoangle>false</activevideoangle>
                    <activeaudioangle>false</activeaudioangle>
                    <clip id="clip-1"/>
                  </angle>
                  <angle>
                    <activevideoangle>false</activevideoangle>
                    <activeaudioangle>false</activeaudioangle>
                    <clip id="clip-2"/>
                  </angle>
                  <angle>
                    <activevideoangle>true</activevideoangle>
                    <activeaudioangle>true</activeaudioangle>
                    <clip id="clip-3"/>
                  </angle>
                  <angle>
                    <activevideoangle>false</activevideoangle>
                    <activeaudioangle>false</activeaudioangle>
                    <clip id="clip-4"/>
                  </angle>
                  <angle>
                    <activevideoangle>false</activevideoangle>
                    <activeaudioangle>false</activeaudioangle>
                    <clip id="clip-5"/>
                  </angle>
                  <angle>
                    <activevideoangle>false</activevideoangle>
                    <activeaudioangle>false</activeaudioangle>
                    <clip id="clip-6"/>
                  </angle>
                  <angle>
                    <activevideoangle>false</activevideoangle>
                    <activeaudioangle>false</activeaudioangle>
                    <clip id="clip-7"/>
                  </angle>
                  <masterclipid>clip-master</masterclipid>
                </multiclip>
              </clipitem>
              <clipitem id="cs-1117">
                <duration>268</duration>
                <rate>
                  <ntsc>false</ntsc>
                  <timebase>25</timebase>
                </rate>
                <in>96436</in>
                <out>96703</out>
                <start>96436</start>
                <end>96703</end>
                <file id="src-5"/>
                <sourcetrack>
                  <mediatype>video</mediatype>
                  <trackindex>1</trackindex>
                </sourcetrack>
                <multiclip id="mcs-1117">
                  <name>MCS-1117</name>
                  <masterclipid>clip-master</masterclipid>
                  <collapsed>false</collapsed>
                  <angle>
                    <activevideoangle>false</activevideoangle>
                    <activeaudioangle>false</activeaudioangle>
                    <clip id="clip-1"/>
                  </angle>
                  <angle>
                    <activevideoangle>false</activevideoangle>
                    <activeaudioangle>false</activeaudioangle>
                    <clip id="clip-2"/>
                  </angle>
                  <angle>
                    <activevideoangle>false</activevideoangle>
                    <activeaudioangle>false</activeaudioangle>
                    <clip id="clip-3"/>
                  </angle>
                  <angle>
                    <activevideoangle>false</activevideoangle>
                    <activeaudioangle>false</activeaudioangle>
                    <clip id="clip-4"/>
                  </angle>
                  <angle>
                    <activevideoangle>true</activevideoangle>
                    <activeaudioangle>true</activeaudioangle>
                    <clip id="clip-5"/>
                  </angle>
                  <angle>
                    <activevideoangle>false</activevideoangle>
                    <activeaudioangle>false</activeaudioangle>
                    <clip id="clip-6"/>
                  </angle>
                  <angle>
                    <activevideoangle>false</activevideoangle>
                    <activeaudioangle>false</activeaudioangle>
                    <clip id="clip-7"/>
                  </angle>
                  <masterclipid>clip-master</masterclipid>
                </multiclip>
              </clipitem>
              <clipitem id="cs-1118">
                <duration>161</duration>
                <rate>
                  <ntsc>false</ntsc>
                  <timebase>25</timebase>
                </rate>
                <in>96703</in>
                <out>96863</out>
                <start>96703</start>
                <end>96863</end>
                <file id="src-1"/>
                <sourcetrack>
                  <mediatype>video</mediatype>
                  <trackindex>1</trackindex>
                </sourcetrack>
                <multiclip id="mcs-1118">
                  <name>MCS-1118</name>
                  <masterclipid>clip-master</masterclipid>
                  <collapsed>false</collapsed>
                  <angle>
                    <activevideoangle>true</activevideoangle>
                    <activeaudioangle>true</activeaudioangle>
                    <clip id="clip-1"/>
                  </angle>
                  <angle>
                    <activevideoangle>false</activevideoangle>
                    <activeaudioangle>false</activeaudioangle>
                    <clip id="clip-2"/>
                  </angle>
                  <angle>
                    <activevideoangle>false</activevideoangle>
                    <activeaudioangle>false</activeaudioangle>
                    <clip id="clip-3"/>
                  </angle>
                  <angle>
                    <activevideoangle>false</activevideoangle>
                    <activeaudioangle>false</activeaudioangle>
                    <clip id="clip-4"/>
                  </angle>
                  <angle>
                    <activevideoangle>false</activevideoangle>
                    <activeaudioangle>false</activeaudioangle>
                    <clip id="clip-5"/>
                  </angle>
                  <angle>
                    <activevideoangle>false</activevideoangle>
                    <activeaudioangle>false</activeaudioangle>
                    <clip id="clip-6"/>
                  </angle>
                  <angle>
                    <activevideoangle>false</activevideoangle>
                    <activeaudioangle>false</activeaudioangle>
                    <clip id="clip-7"/>
                  </angle>
                  <masterclipid>clip-master</masterclipid>
                </multiclip>
              </clipitem>
              <clipitem id="cs-1119">
                <duration>286</duration>
                <rate>
                  <ntsc>false</ntsc>
                  <timebase>25</timebase>
                </rate>
                <in>96863</in>
                <out>97148</out>
                <start>96863</start>
                <end>97148</end>
                <file id="src-6"/>
                <sourcetrack>
                  <mediatype>video</mediatype>
                  <trackindex>1</trackindex>
                </sourcetrack>
                <multiclip id="mcs-1119">
                  <name>MCS-1119</name>
                  <masterclipid>clip-master</masterclipid>
                  <collapsed>false</collapsed>
                  <angle>
                    <activevideoangle>false</activevideoangle>
                    <activeaudioangle>false</activeaudioangle>
                    <clip id="clip-1"/>
                  </angle>
                  <angle>
                    <activevideoangle>false</activevideoangle>
                    <activeaudioangle>false</activeaudioangle>
                    <clip id="clip-2"/>
                  </angle>
                  <angle>
                    <activevideoangle>false</activevideoangle>
                    <activeaudioangle>false</activeaudioangle>
                    <clip id="clip-3"/>
                  </angle>
                  <angle>
                    <activevideoangle>false</activevideoangle>
                    <activeaudioangle>false</activeaudioangle>
                    <clip id="clip-4"/>
                  </angle>
                  <angle>
                    <activevideoangle>false</activevideoangle>
                    <activeaudioangle>false</activeaudioangle>
                    <clip id="clip-5"/>
                  </angle>
                  <angle>
                    <activevideoangle>true</activevideoangle>
                    <activeaudioangle>true</activeaudioangle>
                    <clip id="clip-6"/>
                  </angle>
                  <angle>
                    <activevideoangle>false</activevideoangle>
                    <activeaudioangle>false</activeaudioangle>
                    <clip id="clip-7"/>
                  </angle>
                  <masterclipid>clip-master</masterclipid>
                </multiclip>
              </clipitem>
              <clipitem id="cs-1120">
                <duration>680</duration>
                <rate>
                  <ntsc>false</ntsc>
                  <timebase>25</timebase>
                </rate>
                <in>97148</in>
                <out>97827</out>
                <start>97148</start>
                <end>97827</end>
                <file id="src-2"/>
                <sourcetrack>
                  <mediatype>video</mediatype>
                  <trackindex>1</trackindex>
                </sourcetrack>
                <multiclip id="mcs-1120">
                  <name>MCS-1120</name>
                  <masterclipid>clip-master</masterclipid>
                  <collapsed>false</collapsed>
                  <angle>
                    <activevideoangle>false</activevideoangle>
                    <activeaudioangle>false</activeaudioangle>
                    <clip id="clip-1"/>
                  </angle>
                  <angle>
                    <activevideoangle>true</activevideoangle>
                    <activeaudioangle>true</activeaudioangle>
                    <clip id="clip-2"/>
                  </angle>
                  <angle>
                    <activevideoangle>false</activevideoangle>
                    <activeaudioangle>false</activeaudioangle>
                    <clip id="clip-3"/>
                  </angle>
                  <angle>
                    <activevideoangle>false</activevideoangle>
                    <activeaudioangle>false</activeaudioangle>
                    <clip id="clip-4"/>
                  </angle>
                  <angle>
                    <activevideoangle>false</activevideoangle>
                    <activeaudioangle>false</activeaudioangle>
                    <clip id="clip-5"/>
                  </angle>
                  <angle>
                    <activevideoangle>false</activevideoangle>
                    <activeaudioangle>false</activeaudioangle>
                    <clip id="clip-6"/>
                  </angle>
                  <angle>
                    <activevideoangle>false</activevideoangle>
                    <activeaudioangle>false</activeaudioangle>
                    <clip id="clip-7"/>
                  </angle>
                  <masterclipid>clip-master</masterclipid>
                </multiclip>
              </clipitem>
              <clipitem id="cs-1121">
                <duration>574</duration>
                <rate>
                  <ntsc>false</ntsc>
                  <timebase>25</timebase>
                </rate>
                <in>97827</in>
                <out>98400</out>
                <start>97827</start>
                <end>98400</end>
                <file id="src-3"/>
                <sourcetrack>
                  <mediatype>video</mediatype>
                  <trackindex>1</trackindex>
                </sourcetrack>
                <multiclip id="mcs-1121">
                  <name>MCS-1121</name>
                  <masterclipid>clip-master</masterclipid>
                  <collapsed>false</collapsed>
                  <angle>
                    <activevideoangle>false</activevideoangle>
                    <activeaudioangle>false</activeaudioangle>
                    <clip id="clip-1"/>
                  </angle>
                  <angle>
                    <activevideoangle>false</activevideoangle>
                    <activeaudioangle>false</activeaudioangle>
                    <clip id="clip-2"/>
                  </angle>
                  <angle>
                    <activevideoangle>true</activevideoangle>
                    <activeaudioangle>true</activeaudioangle>
                    <clip id="clip-3"/>
                  </angle>
                  <angle>
                    <activevideoangle>false</activevideoangle>
                    <activeaudioangle>false</activeaudioangle>
                    <clip id="clip-4"/>
                  </angle>
                  <angle>
                    <activevideoangle>false</activevideoangle>
                    <activeaudioangle>false</activeaudioangle>
                    <clip id="clip-5"/>
                  </angle>
                  <angle>
                    <activevideoangle>false</activevideoangle>
                    <activeaudioangle>false</activeaudioangle>
                    <clip id="clip-6"/>
                  </angle>
                  <angle>
                    <activevideoangle>false</activevideoangle>
                    <activeaudioangle>false</activeaudioangle>
                    <clip id="clip-7"/>
                  </angle>
                  <masterclipid>clip-master</masterclipid>
                </multiclip>
              </clipitem>
              <clipitem id="cs-1122">
                <duration>215</duration>
                <rate>
                  <ntsc>false</ntsc>
                  <timebase>25</timebase>
                </rate>
                <in>98400</in>
                <out>98614</out>
                <start>98400</start>
                <end>98614</end>
                <file id="src-2"/>
                <sourcetrack>
                  <mediatype>video</mediatype>
                  <trackindex>1</trackindex>
                </sourcetrack>
                <multiclip id="mcs-1122">
                  <name>MCS-1122</name>
                  <masterclipid>clip-master</masterclipid>
                  <collapsed>false</collapsed>
                  <angle>
                    <activevideoangle>false</activevideoangle>
                    <activeaudioangle>false</activeaudioangle>
                    <clip id="clip-1"/>
                  </angle>
                  <angle>
                    <activevideoangle>true</activevideoangle>
                    <activeaudioangle>true</activeaudioangle>
                    <clip id="clip-2"/>
                  </angle>
                  <angle>
                    <activevideoangle>false</activevideoangle>
                    <activeaudioangle>false</activeaudioangle>
                    <clip id="clip-3"/>
                  </angle>
                  <angle>
                    <activevideoangle>false</activevideoangle>
                    <activeaudioangle>false</activeaudioangle>
                    <clip id="clip-4"/>
                  </angle>
                  <angle>
                    <activevideoangle>false</activevideoangle>
                    <activeaudioangle>false</activeaudioangle>
                    <clip id="clip-5"/>
                  </angle>
                  <angle>
                    <activevideoangle>false</activevideoangle>
                    <activeaudioangle>false</activeaudioangle>
                    <clip id="clip-6"/>
                  </angle>
                  <angle>
                    <activevideoangle>false</activevideoangle>
                    <activeaudioangle>false</activeaudioangle>
                    <clip id="clip-7"/>
                  </angle>
                  <masterclipid>clip-master</masterclipid>
                </multiclip>
              </clipitem>
              <clipitem id="cs-1123">
                <duration>209</duration>
                <rate>
                  <ntsc>false</ntsc>
                  <timebase>25</timebase>
                </rate>
                <in>98614</in>
                <out>98822</out>
                <start>98614</start>
                <end>98822</end>
                <file id="src-4"/>
                <sourcetrack>
                  <mediatype>video</mediatype>
                  <trackindex>1</trackindex>
                </sourcetrack>
                <multiclip id="mcs-1123">
                  <name>MCS-1123</name>
                  <masterclipid>clip-master</masterclipid>
                  <collapsed>false</collapsed>
                  <angle>
                    <activevideoangle>false</activevideoangle>
                    <activeaudioangle>false</activeaudioangle>
                    <clip id="clip-1"/>
                  </angle>
                  <angle>
                    <activevideoangle>false</activevideoangle>
                    <activeaudioangle>false</activeaudioangle>
                    <clip id="clip-2"/>
                  </angle>
                  <angle>
                    <activevideoangle>false</activevideoangle>
                    <activeaudioangle>false</activeaudioangle>
                    <clip id="clip-3"/>
                  </angle>
                  <angle>
                    <activevideoangle>true</activevideoangle>
                    <activeaudioangle>true</activeaudioangle>
                    <clip id="clip-4"/>
                  </angle>
                  <angle>
                    <activevideoangle>false</activevideoangle>
                    <activeaudioangle>false</activeaudioangle>
                    <clip id="clip-5"/>
                  </angle>
                  <angle>
                    <activevideoangle>false</activevideoangle>
                    <activeaudioangle>false</activeaudioangle>
                    <clip id="clip-6"/>
                  </angle>
                  <angle>
                    <activevideoangle>false</activevideoangle>
                    <activeaudioangle>false</activeaudioangle>
                    <clip id="clip-7"/>
                  </angle>
                  <masterclipid>clip-master</masterclipid>
                </multiclip>
              </clipitem>
              <clipitem id="cs-1124">
                <duration>436</duration>
                <rate>
                  <ntsc>false</ntsc>
                  <timebase>25</timebase>
                </rate>
                <in>98822</in>
                <out>99257</out>
                <start>98822</start>
                <end>99257</end>
                <file id="src-3"/>
                <sourcetrack>
                  <mediatype>video</mediatype>
                  <trackindex>1</trackindex>
                </sourcetrack>
                <multiclip id="mcs-1124">
                  <name>MCS-1124</name>
                  <masterclipid>clip-master</masterclipid>
                  <collapsed>false</collapsed>
                  <angle>
                    <activevideoangle>false</activevideoangle>
                    <activeaudioangle>false</activeaudioangle>
                    <clip id="clip-1"/>
                  </angle>
                  <angle>
                    <activevideoangle>false</activevideoangle>
                    <activeaudioangle>false</activeaudioangle>
                    <clip id="clip-2"/>
                  </angle>
                  <angle>
                    <activevideoangle>true</activevideoangle>
                    <activeaudioangle>true</activeaudioangle>
                    <clip id="clip-3"/>
                  </angle>
                  <angle>
                    <activevideoangle>false</activevideoangle>
                    <activeaudioangle>false</activeaudioangle>
                    <clip id="clip-4"/>
                  </angle>
                  <angle>
                    <activevideoangle>false</activevideoangle>
                    <activeaudioangle>false</activeaudioangle>
                    <clip id="clip-5"/>
                  </angle>
                  <angle>
                    <activevideoangle>false</activevideoangle>
                    <activeaudioangle>false</activeaudioangle>
                    <clip id="clip-6"/>
                  </angle>
                  <angle>
                    <activevideoangle>false</activevideoangle>
                    <activeaudioangle>false</activeaudioangle>
                    <clip id="clip-7"/>
                  </angle>
                  <masterclipid>clip-master</masterclipid>
                </multiclip>
              </clipitem>
              <clipitem id="cs-1125">
                <duration>147</duration>
                <rate>
                  <ntsc>false</ntsc>
                  <timebase>25</timebase>
                </rate>
                <in>99257</in>
                <out>99403</out>
                <start>99257</start>
                <end>99403</end>
                <file id="src-4"/>
                <sourcetrack>
                  <mediatype>video</mediatype>
                  <trackindex>1</trackindex>
                </sourcetrack>
                <multiclip id="mcs-1125">
                  <name>MCS-1125</name>
                  <masterclipid>clip-master</masterclipid>
                  <collapsed>false</collapsed>
                  <angle>
                    <activevideoangle>false</activevideoangle>
                    <activeaudioangle>false</activeaudioangle>
                    <clip id="clip-1"/>
                  </angle>
                  <angle>
                    <activevideoangle>false</activevideoangle>
                    <activeaudioangle>false</activeaudioangle>
                    <clip id="clip-2"/>
                  </angle>
                  <angle>
                    <activevideoangle>false</activevideoangle>
                    <activeaudioangle>false</activeaudioangle>
                    <clip id="clip-3"/>
                  </angle>
                  <angle>
                    <activevideoangle>true</activevideoangle>
                    <activeaudioangle>true</activeaudioangle>
                    <clip id="clip-4"/>
                  </angle>
                  <angle>
                    <activevideoangle>false</activevideoangle>
                    <activeaudioangle>false</activeaudioangle>
                    <clip id="clip-5"/>
                  </angle>
                  <angle>
                    <activevideoangle>false</activevideoangle>
                    <activeaudioangle>false</activeaudioangle>
                    <clip id="clip-6"/>
                  </angle>
                  <angle>
                    <activevideoangle>false</activevideoangle>
                    <activeaudioangle>false</activeaudioangle>
                    <clip id="clip-7"/>
                  </angle>
                  <masterclipid>clip-master</masterclipid>
                </multiclip>
              </clipitem>
              <clipitem id="cs-1126">
                <duration>250</duration>
                <rate>
                  <ntsc>false</ntsc>
                  <timebase>25</timebase>
                </rate>
                <in>99403</in>
                <out>99652</out>
                <start>99403</start>
                <end>99652</end>
                <file id="src-2"/>
                <sourcetrack>
                  <mediatype>video</mediatype>
                  <trackindex>1</trackindex>
                </sourcetrack>
                <multiclip id="mcs-1126">
                  <name>MCS-1126</name>
                  <masterclipid>clip-master</masterclipid>
                  <collapsed>false</collapsed>
                  <angle>
                    <activevideoangle>false</activevideoangle>
                    <activeaudioangle>false</activeaudioangle>
                    <clip id="clip-1"/>
                  </angle>
                  <angle>
                    <activevideoangle>true</activevideoangle>
                    <activeaudioangle>true</activeaudioangle>
                    <clip id="clip-2"/>
                  </angle>
                  <angle>
                    <activevideoangle>false</activevideoangle>
                    <activeaudioangle>false</activeaudioangle>
                    <clip id="clip-3"/>
                  </angle>
                  <angle>
                    <activevideoangle>false</activevideoangle>
                    <activeaudioangle>false</activeaudioangle>
                    <clip id="clip-4"/>
                  </angle>
                  <angle>
                    <activevideoangle>false</activevideoangle>
                    <activeaudioangle>false</activeaudioangle>
                    <clip id="clip-5"/>
                  </angle>
                  <angle>
                    <activevideoangle>false</activevideoangle>
                    <activeaudioangle>false</activeaudioangle>
                    <clip id="clip-6"/>
                  </angle>
                  <angle>
                    <activevideoangle>false</activevideoangle>
                    <activeaudioangle>false</activeaudioangle>
                    <clip id="clip-7"/>
                  </angle>
                  <masterclipid>clip-master</masterclipid>
                </multiclip>
              </clipitem>
              <clipitem id="cs-1127">
                <duration>675</duration>
                <rate>
                  <ntsc>false</ntsc>
                  <timebase>25</timebase>
                </rate>
                <in>99652</in>
                <out>100326</out>
                <start>99652</start>
                <end>100326</end>
                <file id="src-3"/>
                <sourcetrack>
                  <mediatype>video</mediatype>
                  <trackindex>1</trackindex>
                </sourcetrack>
                <multiclip id="mcs-1127">
                  <name>MCS-1127</name>
                  <masterclipid>clip-master</masterclipid>
                  <collapsed>false</collapsed>
                  <angle>
                    <activevideoangle>false</activevideoangle>
                    <activeaudioangle>false</activeaudioangle>
                    <clip id="clip-1"/>
                  </angle>
                  <angle>
                    <activevideoangle>false</activevideoangle>
                    <activeaudioangle>false</activeaudioangle>
                    <clip id="clip-2"/>
                  </angle>
                  <angle>
                    <activevideoangle>true</activevideoangle>
                    <activeaudioangle>true</activeaudioangle>
                    <clip id="clip-3"/>
                  </angle>
                  <angle>
                    <activevideoangle>false</activevideoangle>
                    <activeaudioangle>false</activeaudioangle>
                    <clip id="clip-4"/>
                  </angle>
                  <angle>
                    <activevideoangle>false</activevideoangle>
                    <activeaudioangle>false</activeaudioangle>
                    <clip id="clip-5"/>
                  </angle>
                  <angle>
                    <activevideoangle>false</activevideoangle>
                    <activeaudioangle>false</activeaudioangle>
                    <clip id="clip-6"/>
                  </angle>
                  <angle>
                    <activevideoangle>false</activevideoangle>
                    <activeaudioangle>false</activeaudioangle>
                    <clip id="clip-7"/>
                  </angle>
                  <masterclipid>clip-master</masterclipid>
                </multiclip>
              </clipitem>
              <clipitem id="cs-1128">
                <duration>362</duration>
                <rate>
                  <ntsc>false</ntsc>
                  <timebase>25</timebase>
                </rate>
                <in>100326</in>
                <out>100687</out>
                <start>100326</start>
                <end>100687</end>
                <file id="src-2"/>
                <sourcetrack>
                  <mediatype>video</mediatype>
                  <trackindex>1</trackindex>
                </sourcetrack>
                <multiclip id="mcs-1128">
                  <name>MCS-1128</name>
                  <masterclipid>clip-master</masterclipid>
                  <collapsed>false</collapsed>
                  <angle>
                    <activevideoangle>false</activevideoangle>
                    <activeaudioangle>false</activeaudioangle>
                    <clip id="clip-1"/>
                  </angle>
                  <angle>
                    <activevideoangle>true</activevideoangle>
                    <activeaudioangle>true</activeaudioangle>
                    <clip id="clip-2"/>
                  </angle>
                  <angle>
                    <activevideoangle>false</activevideoangle>
                    <activeaudioangle>false</activeaudioangle>
                    <clip id="clip-3"/>
                  </angle>
                  <angle>
                    <activevideoangle>false</activevideoangle>
                    <activeaudioangle>false</activeaudioangle>
                    <clip id="clip-4"/>
                  </angle>
                  <angle>
                    <activevideoangle>false</activevideoangle>
                    <activeaudioangle>false</activeaudioangle>
                    <clip id="clip-5"/>
                  </angle>
                  <angle>
                    <activevideoangle>false</activevideoangle>
                    <activeaudioangle>false</activeaudioangle>
                    <clip id="clip-6"/>
                  </angle>
                  <angle>
                    <activevideoangle>false</activevideoangle>
                    <activeaudioangle>false</activeaudioangle>
                    <clip id="clip-7"/>
                  </angle>
                  <masterclipid>clip-master</masterclipid>
                </multiclip>
              </clipitem>
              <clipitem id="cs-1129">
                <duration>623</duration>
                <rate>
                  <ntsc>false</ntsc>
                  <timebase>25</timebase>
                </rate>
                <in>100687</in>
                <out>101309</out>
                <start>100687</start>
                <end>101309</end>
                <file id="src-3"/>
                <sourcetrack>
                  <mediatype>video</mediatype>
                  <trackindex>1</trackindex>
                </sourcetrack>
                <multiclip id="mcs-1129">
                  <name>MCS-1129</name>
                  <masterclipid>clip-master</masterclipid>
                  <collapsed>false</collapsed>
                  <angle>
                    <activevideoangle>false</activevideoangle>
                    <activeaudioangle>false</activeaudioangle>
                    <clip id="clip-1"/>
                  </angle>
                  <angle>
                    <activevideoangle>false</activevideoangle>
                    <activeaudioangle>false</activeaudioangle>
                    <clip id="clip-2"/>
                  </angle>
                  <angle>
                    <activevideoangle>true</activevideoangle>
                    <activeaudioangle>true</activeaudioangle>
                    <clip id="clip-3"/>
                  </angle>
                  <angle>
                    <activevideoangle>false</activevideoangle>
                    <activeaudioangle>false</activeaudioangle>
                    <clip id="clip-4"/>
                  </angle>
                  <angle>
                    <activevideoangle>false</activevideoangle>
                    <activeaudioangle>false</activeaudioangle>
                    <clip id="clip-5"/>
                  </angle>
                  <angle>
                    <activevideoangle>false</activevideoangle>
                    <activeaudioangle>false</activeaudioangle>
                    <clip id="clip-6"/>
                  </angle>
                  <angle>
                    <activevideoangle>false</activevideoangle>
                    <activeaudioangle>false</activeaudioangle>
                    <clip id="clip-7"/>
                  </angle>
                  <masterclipid>clip-master</masterclipid>
                </multiclip>
              </clipitem>
              <clipitem id="cs-1130">
                <duration>240</duration>
                <rate>
                  <ntsc>false</ntsc>
                  <timebase>25</timebase>
                </rate>
                <in>101309</in>
                <out>101548</out>
                <start>101309</start>
                <end>101548</end>
                <file id="src-2"/>
                <sourcetrack>
                  <mediatype>video</mediatype>
                  <trackindex>1</trackindex>
                </sourcetrack>
                <multiclip id="mcs-1130">
                  <name>MCS-1130</name>
                  <masterclipid>clip-master</masterclipid>
                  <collapsed>false</collapsed>
                  <angle>
                    <activevideoangle>false</activevideoangle>
                    <activeaudioangle>false</activeaudioangle>
                    <clip id="clip-1"/>
                  </angle>
                  <angle>
                    <activevideoangle>true</activevideoangle>
                    <activeaudioangle>true</activeaudioangle>
                    <clip id="clip-2"/>
                  </angle>
                  <angle>
                    <activevideoangle>false</activevideoangle>
                    <activeaudioangle>false</activeaudioangle>
                    <clip id="clip-3"/>
                  </angle>
                  <angle>
                    <activevideoangle>false</activevideoangle>
                    <activeaudioangle>false</activeaudioangle>
                    <clip id="clip-4"/>
                  </angle>
                  <angle>
                    <activevideoangle>false</activevideoangle>
                    <activeaudioangle>false</activeaudioangle>
                    <clip id="clip-5"/>
                  </angle>
                  <angle>
                    <activevideoangle>false</activevideoangle>
                    <activeaudioangle>false</activeaudioangle>
                    <clip id="clip-6"/>
                  </angle>
                  <angle>
                    <activevideoangle>false</activevideoangle>
                    <activeaudioangle>false</activeaudioangle>
                    <clip id="clip-7"/>
                  </angle>
                  <masterclipid>clip-master</masterclipid>
                </multiclip>
              </clipitem>
              <clipitem id="cs-1131">
                <duration>114</duration>
                <rate>
                  <ntsc>false</ntsc>
                  <timebase>25</timebase>
                </rate>
                <in>101548</in>
                <out>101661</out>
                <start>101548</start>
                <end>101661</end>
                <file id="src-1"/>
                <sourcetrack>
                  <mediatype>video</mediatype>
                  <trackindex>1</trackindex>
                </sourcetrack>
                <multiclip id="mcs-1131">
                  <name>MCS-1131</name>
                  <masterclipid>clip-master</masterclipid>
                  <collapsed>false</collapsed>
                  <angle>
                    <activevideoangle>true</activevideoangle>
                    <activeaudioangle>true</activeaudioangle>
                    <clip id="clip-1"/>
                  </angle>
                  <angle>
                    <activevideoangle>false</activevideoangle>
                    <activeaudioangle>false</activeaudioangle>
                    <clip id="clip-2"/>
                  </angle>
                  <angle>
                    <activevideoangle>false</activevideoangle>
                    <activeaudioangle>false</activeaudioangle>
                    <clip id="clip-3"/>
                  </angle>
                  <angle>
                    <activevideoangle>false</activevideoangle>
                    <activeaudioangle>false</activeaudioangle>
                    <clip id="clip-4"/>
                  </angle>
                  <angle>
                    <activevideoangle>false</activevideoangle>
                    <activeaudioangle>false</activeaudioangle>
                    <clip id="clip-5"/>
                  </angle>
                  <angle>
                    <activevideoangle>false</activevideoangle>
                    <activeaudioangle>false</activeaudioangle>
                    <clip id="clip-6"/>
                  </angle>
                  <angle>
                    <activevideoangle>false</activevideoangle>
                    <activeaudioangle>false</activeaudioangle>
                    <clip id="clip-7"/>
                  </angle>
                  <masterclipid>clip-master</masterclipid>
                </multiclip>
              </clipitem>
              <clipitem id="cs-1132">
                <duration>211</duration>
                <rate>
                  <ntsc>false</ntsc>
                  <timebase>25</timebase>
                </rate>
                <in>101661</in>
                <out>101871</out>
                <start>101661</start>
                <end>101871</end>
                <file id="src-3"/>
                <sourcetrack>
                  <mediatype>video</mediatype>
                  <trackindex>1</trackindex>
                </sourcetrack>
                <multiclip id="mcs-1132">
                  <name>MCS-1132</name>
                  <masterclipid>clip-master</masterclipid>
                  <collapsed>false</collapsed>
                  <angle>
                    <activevideoangle>false</activevideoangle>
                    <activeaudioangle>false</activeaudioangle>
                    <clip id="clip-1"/>
                  </angle>
                  <angle>
                    <activevideoangle>false</activevideoangle>
                    <activeaudioangle>false</activeaudioangle>
                    <clip id="clip-2"/>
                  </angle>
                  <angle>
                    <activevideoangle>true</activevideoangle>
                    <activeaudioangle>true</activeaudioangle>
                    <clip id="clip-3"/>
                  </angle>
                  <angle>
                    <activevideoangle>false</activevideoangle>
                    <activeaudioangle>false</activeaudioangle>
                    <clip id="clip-4"/>
                  </angle>
                  <angle>
                    <activevideoangle>false</activevideoangle>
                    <activeaudioangle>false</activeaudioangle>
                    <clip id="clip-5"/>
                  </angle>
                  <angle>
                    <activevideoangle>false</activevideoangle>
                    <activeaudioangle>false</activeaudioangle>
                    <clip id="clip-6"/>
                  </angle>
                  <angle>
                    <activevideoangle>false</activevideoangle>
                    <activeaudioangle>false</activeaudioangle>
                    <clip id="clip-7"/>
                  </angle>
                  <masterclipid>clip-master</masterclipid>
                </multiclip>
              </clipitem>
              <clipitem id="cs-1133">
                <duration>124</duration>
                <rate>
                  <ntsc>false</ntsc>
                  <timebase>25</timebase>
                </rate>
                <in>101871</in>
                <out>101994</out>
                <start>101871</start>
                <end>101994</end>
                <file id="src-6"/>
                <sourcetrack>
                  <mediatype>video</mediatype>
                  <trackindex>1</trackindex>
                </sourcetrack>
                <multiclip id="mcs-1133">
                  <name>MCS-1133</name>
                  <masterclipid>clip-master</masterclipid>
                  <collapsed>false</collapsed>
                  <angle>
                    <activevideoangle>false</activevideoangle>
                    <activeaudioangle>false</activeaudioangle>
                    <clip id="clip-1"/>
                  </angle>
                  <angle>
                    <activevideoangle>false</activevideoangle>
                    <activeaudioangle>false</activeaudioangle>
                    <clip id="clip-2"/>
                  </angle>
                  <angle>
                    <activevideoangle>false</activevideoangle>
                    <activeaudioangle>false</activeaudioangle>
                    <clip id="clip-3"/>
                  </angle>
                  <angle>
                    <activevideoangle>false</activevideoangle>
                    <activeaudioangle>false</activeaudioangle>
                    <clip id="clip-4"/>
                  </angle>
                  <angle>
                    <activevideoangle>false</activevideoangle>
                    <activeaudioangle>false</activeaudioangle>
                    <clip id="clip-5"/>
                  </angle>
                  <angle>
                    <activevideoangle>true</activevideoangle>
                    <activeaudioangle>true</activeaudioangle>
                    <clip id="clip-6"/>
                  </angle>
                  <angle>
                    <activevideoangle>false</activevideoangle>
                    <activeaudioangle>false</activeaudioangle>
                    <clip id="clip-7"/>
                  </angle>
                  <masterclipid>clip-master</masterclipid>
                </multiclip>
              </clipitem>
              <clipitem id="cs-1134">
                <duration>181</duration>
                <rate>
                  <ntsc>false</ntsc>
                  <timebase>25</timebase>
                </rate>
                <in>101994</in>
                <out>102174</out>
                <start>101994</start>
                <end>102174</end>
                <file id="src-5"/>
                <sourcetrack>
                  <mediatype>video</mediatype>
                  <trackindex>1</trackindex>
                </sourcetrack>
                <multiclip id="mcs-1134">
                  <name>MCS-1134</name>
                  <masterclipid>clip-master</masterclipid>
                  <collapsed>false</collapsed>
                  <angle>
                    <activevideoangle>false</activevideoangle>
                    <activeaudioangle>false</activeaudioangle>
                    <clip id="clip-1"/>
                  </angle>
                  <angle>
                    <activevideoangle>false</activevideoangle>
                    <activeaudioangle>false</activeaudioangle>
                    <clip id="clip-2"/>
                  </angle>
                  <angle>
                    <activevideoangle>false</activevideoangle>
                    <activeaudioangle>false</activeaudioangle>
                    <clip id="clip-3"/>
                  </angle>
                  <angle>
                    <activevideoangle>false</activevideoangle>
                    <activeaudioangle>false</activeaudioangle>
                    <clip id="clip-4"/>
                  </angle>
                  <angle>
                    <activevideoangle>true</activevideoangle>
                    <activeaudioangle>true</activeaudioangle>
                    <clip id="clip-5"/>
                  </angle>
                  <angle>
                    <activevideoangle>false</activevideoangle>
                    <activeaudioangle>false</activeaudioangle>
                    <clip id="clip-6"/>
                  </angle>
                  <angle>
                    <activevideoangle>false</activevideoangle>
                    <activeaudioangle>false</activeaudioangle>
                    <clip id="clip-7"/>
                  </angle>
                  <masterclipid>clip-master</masterclipid>
                </multiclip>
              </clipitem>
              <clipitem id="cs-1135">
                <duration>336</duration>
                <rate>
                  <ntsc>false</ntsc>
                  <timebase>25</timebase>
                </rate>
                <in>102174</in>
                <out>102509</out>
                <start>102174</start>
                <end>102509</end>
                <file id="src-2"/>
                <sourcetrack>
                  <mediatype>video</mediatype>
                  <trackindex>1</trackindex>
                </sourcetrack>
                <multiclip id="mcs-1135">
                  <name>MCS-1135</name>
                  <masterclipid>clip-master</masterclipid>
                  <collapsed>false</collapsed>
                  <angle>
                    <activevideoangle>false</activevideoangle>
                    <activeaudioangle>false</activeaudioangle>
                    <clip id="clip-1"/>
                  </angle>
                  <angle>
                    <activevideoangle>true</activevideoangle>
                    <activeaudioangle>true</activeaudioangle>
                    <clip id="clip-2"/>
                  </angle>
                  <angle>
                    <activevideoangle>false</activevideoangle>
                    <activeaudioangle>false</activeaudioangle>
                    <clip id="clip-3"/>
                  </angle>
                  <angle>
                    <activevideoangle>false</activevideoangle>
                    <activeaudioangle>false</activeaudioangle>
                    <clip id="clip-4"/>
                  </angle>
                  <angle>
                    <activevideoangle>false</activevideoangle>
                    <activeaudioangle>false</activeaudioangle>
                    <clip id="clip-5"/>
                  </angle>
                  <angle>
                    <activevideoangle>false</activevideoangle>
                    <activeaudioangle>false</activeaudioangle>
                    <clip id="clip-6"/>
                  </angle>
                  <angle>
                    <activevideoangle>false</activevideoangle>
                    <activeaudioangle>false</activeaudioangle>
                    <clip id="clip-7"/>
                  </angle>
                  <masterclipid>clip-master</masterclipid>
                </multiclip>
              </clipitem>
              <clipitem id="cs-1136">
                <duration>291</duration>
                <rate>
                  <ntsc>false</ntsc>
                  <timebase>25</timebase>
                </rate>
                <in>102509</in>
                <out>102799</out>
                <start>102509</start>
                <end>102799</end>
                <file id="src-4"/>
                <sourcetrack>
                  <mediatype>video</mediatype>
                  <trackindex>1</trackindex>
                </sourcetrack>
                <multiclip id="mcs-1136">
                  <name>MCS-1136</name>
                  <masterclipid>clip-master</masterclipid>
                  <collapsed>false</collapsed>
                  <angle>
                    <activevideoangle>false</activevideoangle>
                    <activeaudioangle>false</activeaudioangle>
                    <clip id="clip-1"/>
                  </angle>
                  <angle>
                    <activevideoangle>false</activevideoangle>
                    <activeaudioangle>false</activeaudioangle>
                    <clip id="clip-2"/>
                  </angle>
                  <angle>
                    <activevideoangle>false</activevideoangle>
                    <activeaudioangle>false</activeaudioangle>
                    <clip id="clip-3"/>
                  </angle>
                  <angle>
                    <activevideoangle>true</activevideoangle>
                    <activeaudioangle>true</activeaudioangle>
                    <clip id="clip-4"/>
                  </angle>
                  <angle>
                    <activevideoangle>false</activevideoangle>
                    <activeaudioangle>false</activeaudioangle>
                    <clip id="clip-5"/>
                  </angle>
                  <angle>
                    <activevideoangle>false</activevideoangle>
                    <activeaudioangle>false</activeaudioangle>
                    <clip id="clip-6"/>
                  </angle>
                  <angle>
                    <activevideoangle>false</activevideoangle>
                    <activeaudioangle>false</activeaudioangle>
                    <clip id="clip-7"/>
                  </angle>
                  <masterclipid>clip-master</masterclipid>
                </multiclip>
              </clipitem>
              <clipitem id="cs-1137">
                <duration>341</duration>
                <rate>
                  <ntsc>false</ntsc>
                  <timebase>25</timebase>
                </rate>
                <in>102799</in>
                <out>103139</out>
                <start>102799</start>
                <end>103139</end>
                <file id="src-3"/>
                <sourcetrack>
                  <mediatype>video</mediatype>
                  <trackindex>1</trackindex>
                </sourcetrack>
                <multiclip id="mcs-1137">
                  <name>MCS-1137</name>
                  <masterclipid>clip-master</masterclipid>
                  <collapsed>false</collapsed>
                  <angle>
                    <activevideoangle>false</activevideoangle>
                    <activeaudioangle>false</activeaudioangle>
                    <clip id="clip-1"/>
                  </angle>
                  <angle>
                    <activevideoangle>false</activevideoangle>
                    <activeaudioangle>false</activeaudioangle>
                    <clip id="clip-2"/>
                  </angle>
                  <angle>
                    <activevideoangle>true</activevideoangle>
                    <activeaudioangle>true</activeaudioangle>
                    <clip id="clip-3"/>
                  </angle>
                  <angle>
                    <activevideoangle>false</activevideoangle>
                    <activeaudioangle>false</activeaudioangle>
                    <clip id="clip-4"/>
                  </angle>
                  <angle>
                    <activevideoangle>false</activevideoangle>
                    <activeaudioangle>false</activeaudioangle>
                    <clip id="clip-5"/>
                  </angle>
                  <angle>
                    <activevideoangle>false</activevideoangle>
                    <activeaudioangle>false</activeaudioangle>
                    <clip id="clip-6"/>
                  </angle>
                  <angle>
                    <activevideoangle>false</activevideoangle>
                    <activeaudioangle>false</activeaudioangle>
                    <clip id="clip-7"/>
                  </angle>
                  <masterclipid>clip-master</masterclipid>
                </multiclip>
              </clipitem>
              <clipitem id="cs-1138">
                <duration>313</duration>
                <rate>
                  <ntsc>false</ntsc>
                  <timebase>25</timebase>
                </rate>
                <in>103139</in>
                <out>103451</out>
                <start>103139</start>
                <end>103451</end>
                <file id="src-2"/>
                <sourcetrack>
                  <mediatype>video</mediatype>
                  <trackindex>1</trackindex>
                </sourcetrack>
                <multiclip id="mcs-1138">
                  <name>MCS-1138</name>
                  <masterclipid>clip-master</masterclipid>
                  <collapsed>false</collapsed>
                  <angle>
                    <activevideoangle>false</activevideoangle>
                    <activeaudioangle>false</activeaudioangle>
                    <clip id="clip-1"/>
                  </angle>
                  <angle>
                    <activevideoangle>true</activevideoangle>
                    <activeaudioangle>true</activeaudioangle>
                    <clip id="clip-2"/>
                  </angle>
                  <angle>
                    <activevideoangle>false</activevideoangle>
                    <activeaudioangle>false</activeaudioangle>
                    <clip id="clip-3"/>
                  </angle>
                  <angle>
                    <activevideoangle>false</activevideoangle>
                    <activeaudioangle>false</activeaudioangle>
                    <clip id="clip-4"/>
                  </angle>
                  <angle>
                    <activevideoangle>false</activevideoangle>
                    <activeaudioangle>false</activeaudioangle>
                    <clip id="clip-5"/>
                  </angle>
                  <angle>
                    <activevideoangle>false</activevideoangle>
                    <activeaudioangle>false</activeaudioangle>
                    <clip id="clip-6"/>
                  </angle>
                  <angle>
                    <activevideoangle>false</activevideoangle>
                    <activeaudioangle>false</activeaudioangle>
                    <clip id="clip-7"/>
                  </angle>
                  <masterclipid>clip-master</masterclipid>
                </multiclip>
              </clipitem>
              <clipitem id="cs-1139">
                <duration>282</duration>
                <rate>
                  <ntsc>false</ntsc>
                  <timebase>25</timebase>
                </rate>
                <in>103451</in>
                <out>103732</out>
                <start>103451</start>
                <end>103732</end>
                <file id="src-3"/>
                <sourcetrack>
                  <mediatype>video</mediatype>
                  <trackindex>1</trackindex>
                </sourcetrack>
                <multiclip id="mcs-1139">
                  <name>MCS-1139</name>
                  <masterclipid>clip-master</masterclipid>
                  <collapsed>false</collapsed>
                  <angle>
                    <activevideoangle>false</activevideoangle>
                    <activeaudioangle>false</activeaudioangle>
                    <clip id="clip-1"/>
                  </angle>
                  <angle>
                    <activevideoangle>false</activevideoangle>
                    <activeaudioangle>false</activeaudioangle>
                    <clip id="clip-2"/>
                  </angle>
                  <angle>
                    <activevideoangle>true</activevideoangle>
                    <activeaudioangle>true</activeaudioangle>
                    <clip id="clip-3"/>
                  </angle>
                  <angle>
                    <activevideoangle>false</activevideoangle>
                    <activeaudioangle>false</activeaudioangle>
                    <clip id="clip-4"/>
                  </angle>
                  <angle>
                    <activevideoangle>false</activevideoangle>
                    <activeaudioangle>false</activeaudioangle>
                    <clip id="clip-5"/>
                  </angle>
                  <angle>
                    <activevideoangle>false</activevideoangle>
                    <activeaudioangle>false</activeaudioangle>
                    <clip id="clip-6"/>
                  </angle>
                  <angle>
                    <activevideoangle>false</activevideoangle>
                    <activeaudioangle>false</activeaudioangle>
                    <clip id="clip-7"/>
                  </angle>
                  <masterclipid>clip-master</masterclipid>
                </multiclip>
              </clipitem>
              <clipitem id="cs-1140">
                <duration>159</duration>
                <rate>
                  <ntsc>false</ntsc>
                  <timebase>25</timebase>
                </rate>
                <in>103732</in>
                <out>103890</out>
                <start>103732</start>
                <end>103890</end>
                <file id="src-6"/>
                <sourcetrack>
                  <mediatype>video</mediatype>
                  <trackindex>1</trackindex>
                </sourcetrack>
                <multiclip id="mcs-1140">
                  <name>MCS-1140</name>
                  <masterclipid>clip-master</masterclipid>
                  <collapsed>false</collapsed>
                  <angle>
                    <activevideoangle>false</activevideoangle>
                    <activeaudioangle>false</activeaudioangle>
                    <clip id="clip-1"/>
                  </angle>
                  <angle>
                    <activevideoangle>false</activevideoangle>
                    <activeaudioangle>false</activeaudioangle>
                    <clip id="clip-2"/>
                  </angle>
                  <angle>
                    <activevideoangle>false</activevideoangle>
                    <activeaudioangle>false</activeaudioangle>
                    <clip id="clip-3"/>
                  </angle>
                  <angle>
                    <activevideoangle>false</activevideoangle>
                    <activeaudioangle>false</activeaudioangle>
                    <clip id="clip-4"/>
                  </angle>
                  <angle>
                    <activevideoangle>false</activevideoangle>
                    <activeaudioangle>false</activeaudioangle>
                    <clip id="clip-5"/>
                  </angle>
                  <angle>
                    <activevideoangle>true</activevideoangle>
                    <activeaudioangle>true</activeaudioangle>
                    <clip id="clip-6"/>
                  </angle>
                  <angle>
                    <activevideoangle>false</activevideoangle>
                    <activeaudioangle>false</activeaudioangle>
                    <clip id="clip-7"/>
                  </angle>
                  <masterclipid>clip-master</masterclipid>
                </multiclip>
              </clipitem>
              <clipitem id="cs-1141">
                <duration>179</duration>
                <rate>
                  <ntsc>false</ntsc>
                  <timebase>25</timebase>
                </rate>
                <in>103890</in>
                <out>104068</out>
                <start>103890</start>
                <end>104068</end>
                <file id="src-3"/>
                <sourcetrack>
                  <mediatype>video</mediatype>
                  <trackindex>1</trackindex>
                </sourcetrack>
                <multiclip id="mcs-1141">
                  <name>MCS-1141</name>
                  <masterclipid>clip-master</masterclipid>
                  <collapsed>false</collapsed>
                  <angle>
                    <activevideoangle>false</activevideoangle>
                    <activeaudioangle>false</activeaudioangle>
                    <clip id="clip-1"/>
                  </angle>
                  <angle>
                    <activevideoangle>false</activevideoangle>
                    <activeaudioangle>false</activeaudioangle>
                    <clip id="clip-2"/>
                  </angle>
                  <angle>
                    <activevideoangle>true</activevideoangle>
                    <activeaudioangle>true</activeaudioangle>
                    <clip id="clip-3"/>
                  </angle>
                  <angle>
                    <activevideoangle>false</activevideoangle>
                    <activeaudioangle>false</activeaudioangle>
                    <clip id="clip-4"/>
                  </angle>
                  <angle>
                    <activevideoangle>false</activevideoangle>
                    <activeaudioangle>false</activeaudioangle>
                    <clip id="clip-5"/>
                  </angle>
                  <angle>
                    <activevideoangle>false</activevideoangle>
                    <activeaudioangle>false</activeaudioangle>
                    <clip id="clip-6"/>
                  </angle>
                  <angle>
                    <activevideoangle>false</activevideoangle>
                    <activeaudioangle>false</activeaudioangle>
                    <clip id="clip-7"/>
                  </angle>
                  <masterclipid>clip-master</masterclipid>
                </multiclip>
              </clipitem>
              <clipitem id="cs-1142">
                <duration>164</duration>
                <rate>
                  <ntsc>false</ntsc>
                  <timebase>25</timebase>
                </rate>
                <in>104068</in>
                <out>104231</out>
                <start>104068</start>
                <end>104231</end>
                <file id="src-2"/>
                <sourcetrack>
                  <mediatype>video</mediatype>
                  <trackindex>1</trackindex>
                </sourcetrack>
                <multiclip id="mcs-1142">
                  <name>MCS-1142</name>
                  <masterclipid>clip-master</masterclipid>
                  <collapsed>false</collapsed>
                  <angle>
                    <activevideoangle>false</activevideoangle>
                    <activeaudioangle>false</activeaudioangle>
                    <clip id="clip-1"/>
                  </angle>
                  <angle>
                    <activevideoangle>true</activevideoangle>
                    <activeaudioangle>true</activeaudioangle>
                    <clip id="clip-2"/>
                  </angle>
                  <angle>
                    <activevideoangle>false</activevideoangle>
                    <activeaudioangle>false</activeaudioangle>
                    <clip id="clip-3"/>
                  </angle>
                  <angle>
                    <activevideoangle>false</activevideoangle>
                    <activeaudioangle>false</activeaudioangle>
                    <clip id="clip-4"/>
                  </angle>
                  <angle>
                    <activevideoangle>false</activevideoangle>
                    <activeaudioangle>false</activeaudioangle>
                    <clip id="clip-5"/>
                  </angle>
                  <angle>
                    <activevideoangle>false</activevideoangle>
                    <activeaudioangle>false</activeaudioangle>
                    <clip id="clip-6"/>
                  </angle>
                  <angle>
                    <activevideoangle>false</activevideoangle>
                    <activeaudioangle>false</activeaudioangle>
                    <clip id="clip-7"/>
                  </angle>
                  <masterclipid>clip-master</masterclipid>
                </multiclip>
              </clipitem>
              <clipitem id="cs-1143">
                <duration>95</duration>
                <rate>
                  <ntsc>false</ntsc>
                  <timebase>25</timebase>
                </rate>
                <in>104231</in>
                <out>104325</out>
                <start>104231</start>
                <end>104325</end>
                <file id="src-4"/>
                <sourcetrack>
                  <mediatype>video</mediatype>
                  <trackindex>1</trackindex>
                </sourcetrack>
                <multiclip id="mcs-1143">
                  <name>MCS-1143</name>
                  <masterclipid>clip-master</masterclipid>
                  <collapsed>false</collapsed>
                  <angle>
                    <activevideoangle>false</activevideoangle>
                    <activeaudioangle>false</activeaudioangle>
                    <clip id="clip-1"/>
                  </angle>
                  <angle>
                    <activevideoangle>false</activevideoangle>
                    <activeaudioangle>false</activeaudioangle>
                    <clip id="clip-2"/>
                  </angle>
                  <angle>
                    <activevideoangle>false</activevideoangle>
                    <activeaudioangle>false</activeaudioangle>
                    <clip id="clip-3"/>
                  </angle>
                  <angle>
                    <activevideoangle>true</activevideoangle>
                    <activeaudioangle>true</activeaudioangle>
                    <clip id="clip-4"/>
                  </angle>
                  <angle>
                    <activevideoangle>false</activevideoangle>
                    <activeaudioangle>false</activeaudioangle>
                    <clip id="clip-5"/>
                  </angle>
                  <angle>
                    <activevideoangle>false</activevideoangle>
                    <activeaudioangle>false</activeaudioangle>
                    <clip id="clip-6"/>
                  </angle>
                  <angle>
                    <activevideoangle>false</activevideoangle>
                    <activeaudioangle>false</activeaudioangle>
                    <clip id="clip-7"/>
                  </angle>
                  <masterclipid>clip-master</masterclipid>
                </multiclip>
              </clipitem>
              <clipitem id="cs-1144">
                <duration>233</duration>
                <rate>
                  <ntsc>false</ntsc>
                  <timebase>25</timebase>
                </rate>
                <in>104325</in>
                <out>104557</out>
                <start>104325</start>
                <end>104557</end>
                <file id="src-3"/>
                <sourcetrack>
                  <mediatype>video</mediatype>
                  <trackindex>1</trackindex>
                </sourcetrack>
                <multiclip id="mcs-1144">
                  <name>MCS-1144</name>
                  <masterclipid>clip-master</masterclipid>
                  <collapsed>false</collapsed>
                  <angle>
                    <activevideoangle>false</activevideoangle>
                    <activeaudioangle>false</activeaudioangle>
                    <clip id="clip-1"/>
                  </angle>
                  <angle>
                    <activevideoangle>false</activevideoangle>
                    <activeaudioangle>false</activeaudioangle>
                    <clip id="clip-2"/>
                  </angle>
                  <angle>
                    <activevideoangle>true</activevideoangle>
                    <activeaudioangle>true</activeaudioangle>
                    <clip id="clip-3"/>
                  </angle>
                  <angle>
                    <activevideoangle>false</activevideoangle>
                    <activeaudioangle>false</activeaudioangle>
                    <clip id="clip-4"/>
                  </angle>
                  <angle>
                    <activevideoangle>false</activevideoangle>
                    <activeaudioangle>false</activeaudioangle>
                    <clip id="clip-5"/>
                  </angle>
                  <angle>
                    <activevideoangle>false</activevideoangle>
                    <activeaudioangle>false</activeaudioangle>
                    <clip id="clip-6"/>
                  </angle>
                  <angle>
                    <activevideoangle>false</activevideoangle>
                    <activeaudioangle>false</activeaudioangle>
                    <clip id="clip-7"/>
                  </angle>
                  <masterclipid>clip-master</masterclipid>
                </multiclip>
              </clipitem>
              <clipitem id="cs-1145">
                <duration>74</duration>
                <rate>
                  <ntsc>false</ntsc>
                  <timebase>25</timebase>
                </rate>
                <in>104557</in>
                <out>104630</out>
                <start>104557</start>
                <end>104630</end>
                <file id="src-1"/>
                <sourcetrack>
                  <mediatype>video</mediatype>
                  <trackindex>1</trackindex>
                </sourcetrack>
                <multiclip id="mcs-1145">
                  <name>MCS-1145</name>
                  <masterclipid>clip-master</masterclipid>
                  <collapsed>false</collapsed>
                  <angle>
                    <activevideoangle>true</activevideoangle>
                    <activeaudioangle>true</activeaudioangle>
                    <clip id="clip-1"/>
                  </angle>
                  <angle>
                    <activevideoangle>false</activevideoangle>
                    <activeaudioangle>false</activeaudioangle>
                    <clip id="clip-2"/>
                  </angle>
                  <angle>
                    <activevideoangle>false</activevideoangle>
                    <activeaudioangle>false</activeaudioangle>
                    <clip id="clip-3"/>
                  </angle>
                  <angle>
                    <activevideoangle>false</activevideoangle>
                    <activeaudioangle>false</activeaudioangle>
                    <clip id="clip-4"/>
                  </angle>
                  <angle>
                    <activevideoangle>false</activevideoangle>
                    <activeaudioangle>false</activeaudioangle>
                    <clip id="clip-5"/>
                  </angle>
                  <angle>
                    <activevideoangle>false</activevideoangle>
                    <activeaudioangle>false</activeaudioangle>
                    <clip id="clip-6"/>
                  </angle>
                  <angle>
                    <activevideoangle>false</activevideoangle>
                    <activeaudioangle>false</activeaudioangle>
                    <clip id="clip-7"/>
                  </angle>
                  <masterclipid>clip-master</masterclipid>
                </multiclip>
              </clipitem>
              <clipitem id="cs-1146">
                <duration>144</duration>
                <rate>
                  <ntsc>false</ntsc>
                  <timebase>25</timebase>
                </rate>
                <in>104630</in>
                <out>104773</out>
                <start>104630</start>
                <end>104773</end>
                <file id="src-2"/>
                <sourcetrack>
                  <mediatype>video</mediatype>
                  <trackindex>1</trackindex>
                </sourcetrack>
                <multiclip id="mcs-1146">
                  <name>MCS-1146</name>
                  <masterclipid>clip-master</masterclipid>
                  <collapsed>false</collapsed>
                  <angle>
                    <activevideoangle>false</activevideoangle>
                    <activeaudioangle>false</activeaudioangle>
                    <clip id="clip-1"/>
                  </angle>
                  <angle>
                    <activevideoangle>true</activevideoangle>
                    <activeaudioangle>true</activeaudioangle>
                    <clip id="clip-2"/>
                  </angle>
                  <angle>
                    <activevideoangle>false</activevideoangle>
                    <activeaudioangle>false</activeaudioangle>
                    <clip id="clip-3"/>
                  </angle>
                  <angle>
                    <activevideoangle>false</activevideoangle>
                    <activeaudioangle>false</activeaudioangle>
                    <clip id="clip-4"/>
                  </angle>
                  <angle>
                    <activevideoangle>false</activevideoangle>
                    <activeaudioangle>false</activeaudioangle>
                    <clip id="clip-5"/>
                  </angle>
                  <angle>
                    <activevideoangle>false</activevideoangle>
                    <activeaudioangle>false</activeaudioangle>
                    <clip id="clip-6"/>
                  </angle>
                  <angle>
                    <activevideoangle>false</activevideoangle>
                    <activeaudioangle>false</activeaudioangle>
                    <clip id="clip-7"/>
                  </angle>
                  <masterclipid>clip-master</masterclipid>
                </multiclip>
              </clipitem>
              <clipitem id="cs-1147">
                <duration>201</duration>
                <rate>
                  <ntsc>false</ntsc>
                  <timebase>25</timebase>
                </rate>
                <in>104773</in>
                <out>104973</out>
                <start>104773</start>
                <end>104973</end>
                <file id="src-4"/>
                <sourcetrack>
                  <mediatype>video</mediatype>
                  <trackindex>1</trackindex>
                </sourcetrack>
                <multiclip id="mcs-1147">
                  <name>MCS-1147</name>
                  <masterclipid>clip-master</masterclipid>
                  <collapsed>false</collapsed>
                  <angle>
                    <activevideoangle>false</activevideoangle>
                    <activeaudioangle>false</activeaudioangle>
                    <clip id="clip-1"/>
                  </angle>
                  <angle>
                    <activevideoangle>false</activevideoangle>
                    <activeaudioangle>false</activeaudioangle>
                    <clip id="clip-2"/>
                  </angle>
                  <angle>
                    <activevideoangle>false</activevideoangle>
                    <activeaudioangle>false</activeaudioangle>
                    <clip id="clip-3"/>
                  </angle>
                  <angle>
                    <activevideoangle>true</activevideoangle>
                    <activeaudioangle>true</activeaudioangle>
                    <clip id="clip-4"/>
                  </angle>
                  <angle>
                    <activevideoangle>false</activevideoangle>
                    <activeaudioangle>false</activeaudioangle>
                    <clip id="clip-5"/>
                  </angle>
                  <angle>
                    <activevideoangle>false</activevideoangle>
                    <activeaudioangle>false</activeaudioangle>
                    <clip id="clip-6"/>
                  </angle>
                  <angle>
                    <activevideoangle>false</activevideoangle>
                    <activeaudioangle>false</activeaudioangle>
                    <clip id="clip-7"/>
                  </angle>
                  <masterclipid>clip-master</masterclipid>
                </multiclip>
              </clipitem>
              <clipitem id="cs-1148">
                <duration>190</duration>
                <rate>
                  <ntsc>false</ntsc>
                  <timebase>25</timebase>
                </rate>
                <in>104973</in>
                <out>105162</out>
                <start>104973</start>
                <end>105162</end>
                <file id="src-6"/>
                <sourcetrack>
                  <mediatype>video</mediatype>
                  <trackindex>1</trackindex>
                </sourcetrack>
                <multiclip id="mcs-1148">
                  <name>MCS-1148</name>
                  <masterclipid>clip-master</masterclipid>
                  <collapsed>false</collapsed>
                  <angle>
                    <activevideoangle>false</activevideoangle>
                    <activeaudioangle>false</activeaudioangle>
                    <clip id="clip-1"/>
                  </angle>
                  <angle>
                    <activevideoangle>false</activevideoangle>
                    <activeaudioangle>false</activeaudioangle>
                    <clip id="clip-2"/>
                  </angle>
                  <angle>
                    <activevideoangle>false</activevideoangle>
                    <activeaudioangle>false</activeaudioangle>
                    <clip id="clip-3"/>
                  </angle>
                  <angle>
                    <activevideoangle>false</activevideoangle>
                    <activeaudioangle>false</activeaudioangle>
                    <clip id="clip-4"/>
                  </angle>
                  <angle>
                    <activevideoangle>false</activevideoangle>
                    <activeaudioangle>false</activeaudioangle>
                    <clip id="clip-5"/>
                  </angle>
                  <angle>
                    <activevideoangle>true</activevideoangle>
                    <activeaudioangle>true</activeaudioangle>
                    <clip id="clip-6"/>
                  </angle>
                  <angle>
                    <activevideoangle>false</activevideoangle>
                    <activeaudioangle>false</activeaudioangle>
                    <clip id="clip-7"/>
                  </angle>
                  <masterclipid>clip-master</masterclipid>
                </multiclip>
              </clipitem>
              <clipitem id="cs-1149">
                <duration>479</duration>
                <rate>
                  <ntsc>false</ntsc>
                  <timebase>25</timebase>
                </rate>
                <in>105162</in>
                <out>105640</out>
                <start>105162</start>
                <end>105640</end>
                <file id="src-3"/>
                <sourcetrack>
                  <mediatype>video</mediatype>
                  <trackindex>1</trackindex>
                </sourcetrack>
                <multiclip id="mcs-1149">
                  <name>MCS-1149</name>
                  <masterclipid>clip-master</masterclipid>
                  <collapsed>false</collapsed>
                  <angle>
                    <activevideoangle>false</activevideoangle>
                    <activeaudioangle>false</activeaudioangle>
                    <clip id="clip-1"/>
                  </angle>
                  <angle>
                    <activevideoangle>false</activevideoangle>
                    <activeaudioangle>false</activeaudioangle>
                    <clip id="clip-2"/>
                  </angle>
                  <angle>
                    <activevideoangle>true</activevideoangle>
                    <activeaudioangle>true</activeaudioangle>
                    <clip id="clip-3"/>
                  </angle>
                  <angle>
                    <activevideoangle>false</activevideoangle>
                    <activeaudioangle>false</activeaudioangle>
                    <clip id="clip-4"/>
                  </angle>
                  <angle>
                    <activevideoangle>false</activevideoangle>
                    <activeaudioangle>false</activeaudioangle>
                    <clip id="clip-5"/>
                  </angle>
                  <angle>
                    <activevideoangle>false</activevideoangle>
                    <activeaudioangle>false</activeaudioangle>
                    <clip id="clip-6"/>
                  </angle>
                  <angle>
                    <activevideoangle>false</activevideoangle>
                    <activeaudioangle>false</activeaudioangle>
                    <clip id="clip-7"/>
                  </angle>
                  <masterclipid>clip-master</masterclipid>
                </multiclip>
              </clipitem>
              <clipitem id="cs-1150">
                <duration>280</duration>
                <rate>
                  <ntsc>false</ntsc>
                  <timebase>25</timebase>
                </rate>
                <in>105640</in>
                <out>105919</out>
                <start>105640</start>
                <end>105919</end>
                <file id="src-6"/>
                <sourcetrack>
                  <mediatype>video</mediatype>
                  <trackindex>1</trackindex>
                </sourcetrack>
                <multiclip id="mcs-1150">
                  <name>MCS-1150</name>
                  <masterclipid>clip-master</masterclipid>
                  <collapsed>false</collapsed>
                  <angle>
                    <activevideoangle>false</activevideoangle>
                    <activeaudioangle>false</activeaudioangle>
                    <clip id="clip-1"/>
                  </angle>
                  <angle>
                    <activevideoangle>false</activevideoangle>
                    <activeaudioangle>false</activeaudioangle>
                    <clip id="clip-2"/>
                  </angle>
                  <angle>
                    <activevideoangle>false</activevideoangle>
                    <activeaudioangle>false</activeaudioangle>
                    <clip id="clip-3"/>
                  </angle>
                  <angle>
                    <activevideoangle>false</activevideoangle>
                    <activeaudioangle>false</activeaudioangle>
                    <clip id="clip-4"/>
                  </angle>
                  <angle>
                    <activevideoangle>false</activevideoangle>
                    <activeaudioangle>false</activeaudioangle>
                    <clip id="clip-5"/>
                  </angle>
                  <angle>
                    <activevideoangle>true</activevideoangle>
                    <activeaudioangle>true</activeaudioangle>
                    <clip id="clip-6"/>
                  </angle>
                  <angle>
                    <activevideoangle>false</activevideoangle>
                    <activeaudioangle>false</activeaudioangle>
                    <clip id="clip-7"/>
                  </angle>
                  <masterclipid>clip-master</masterclipid>
                </multiclip>
              </clipitem>
              <clipitem id="cs-1151">
                <duration>235</duration>
                <rate>
                  <ntsc>false</ntsc>
                  <timebase>25</timebase>
                </rate>
                <in>105919</in>
                <out>106153</out>
                <start>105919</start>
                <end>106153</end>
                <file id="src-3"/>
                <sourcetrack>
                  <mediatype>video</mediatype>
                  <trackindex>1</trackindex>
                </sourcetrack>
                <multiclip id="mcs-1151">
                  <name>MCS-1151</name>
                  <masterclipid>clip-master</masterclipid>
                  <collapsed>false</collapsed>
                  <angle>
                    <activevideoangle>false</activevideoangle>
                    <activeaudioangle>false</activeaudioangle>
                    <clip id="clip-1"/>
                  </angle>
                  <angle>
                    <activevideoangle>false</activevideoangle>
                    <activeaudioangle>false</activeaudioangle>
                    <clip id="clip-2"/>
                  </angle>
                  <angle>
                    <activevideoangle>true</activevideoangle>
                    <activeaudioangle>true</activeaudioangle>
                    <clip id="clip-3"/>
                  </angle>
                  <angle>
                    <activevideoangle>false</activevideoangle>
                    <activeaudioangle>false</activeaudioangle>
                    <clip id="clip-4"/>
                  </angle>
                  <angle>
                    <activevideoangle>false</activevideoangle>
                    <activeaudioangle>false</activeaudioangle>
                    <clip id="clip-5"/>
                  </angle>
                  <angle>
                    <activevideoangle>false</activevideoangle>
                    <activeaudioangle>false</activeaudioangle>
                    <clip id="clip-6"/>
                  </angle>
                  <angle>
                    <activevideoangle>false</activevideoangle>
                    <activeaudioangle>false</activeaudioangle>
                    <clip id="clip-7"/>
                  </angle>
                  <masterclipid>clip-master</masterclipid>
                </multiclip>
              </clipitem>
              <clipitem id="cs-1152">
                <duration>175</duration>
                <rate>
                  <ntsc>false</ntsc>
                  <timebase>25</timebase>
                </rate>
                <in>106153</in>
                <out>106327</out>
                <start>106153</start>
                <end>106327</end>
                <file id="src-1"/>
                <sourcetrack>
                  <mediatype>video</mediatype>
                  <trackindex>1</trackindex>
                </sourcetrack>
                <multiclip id="mcs-1152">
                  <name>MCS-1152</name>
                  <masterclipid>clip-master</masterclipid>
                  <collapsed>false</collapsed>
                  <angle>
                    <activevideoangle>true</activevideoangle>
                    <activeaudioangle>true</activeaudioangle>
                    <clip id="clip-1"/>
                  </angle>
                  <angle>
                    <activevideoangle>false</activevideoangle>
                    <activeaudioangle>false</activeaudioangle>
                    <clip id="clip-2"/>
                  </angle>
                  <angle>
                    <activevideoangle>false</activevideoangle>
                    <activeaudioangle>false</activeaudioangle>
                    <clip id="clip-3"/>
                  </angle>
                  <angle>
                    <activevideoangle>false</activevideoangle>
                    <activeaudioangle>false</activeaudioangle>
                    <clip id="clip-4"/>
                  </angle>
                  <angle>
                    <activevideoangle>false</activevideoangle>
                    <activeaudioangle>false</activeaudioangle>
                    <clip id="clip-5"/>
                  </angle>
                  <angle>
                    <activevideoangle>false</activevideoangle>
                    <activeaudioangle>false</activeaudioangle>
                    <clip id="clip-6"/>
                  </angle>
                  <angle>
                    <activevideoangle>false</activevideoangle>
                    <activeaudioangle>false</activeaudioangle>
                    <clip id="clip-7"/>
                  </angle>
                  <masterclipid>clip-master</masterclipid>
                </multiclip>
              </clipitem>
              <clipitem id="cs-1153">
                <duration>380</duration>
                <rate>
                  <ntsc>false</ntsc>
                  <timebase>25</timebase>
                </rate>
                <in>106327</in>
                <out>106706</out>
                <start>106327</start>
                <end>106706</end>
                <file id="src-2"/>
                <sourcetrack>
                  <mediatype>video</mediatype>
                  <trackindex>1</trackindex>
                </sourcetrack>
                <multiclip id="mcs-1153">
                  <name>MCS-1153</name>
                  <masterclipid>clip-master</masterclipid>
                  <collapsed>false</collapsed>
                  <angle>
                    <activevideoangle>false</activevideoangle>
                    <activeaudioangle>false</activeaudioangle>
                    <clip id="clip-1"/>
                  </angle>
                  <angle>
                    <activevideoangle>true</activevideoangle>
                    <activeaudioangle>true</activeaudioangle>
                    <clip id="clip-2"/>
                  </angle>
                  <angle>
                    <activevideoangle>false</activevideoangle>
                    <activeaudioangle>false</activeaudioangle>
                    <clip id="clip-3"/>
                  </angle>
                  <angle>
                    <activevideoangle>false</activevideoangle>
                    <activeaudioangle>false</activeaudioangle>
                    <clip id="clip-4"/>
                  </angle>
                  <angle>
                    <activevideoangle>false</activevideoangle>
                    <activeaudioangle>false</activeaudioangle>
                    <clip id="clip-5"/>
                  </angle>
                  <angle>
                    <activevideoangle>false</activevideoangle>
                    <activeaudioangle>false</activeaudioangle>
                    <clip id="clip-6"/>
                  </angle>
                  <angle>
                    <activevideoangle>false</activevideoangle>
                    <activeaudioangle>false</activeaudioangle>
                    <clip id="clip-7"/>
                  </angle>
                  <masterclipid>clip-master</masterclipid>
                </multiclip>
              </clipitem>
              <clipitem id="cs-1154">
                <duration>117</duration>
                <rate>
                  <ntsc>false</ntsc>
                  <timebase>25</timebase>
                </rate>
                <in>106706</in>
                <out>106822</out>
                <start>106706</start>
                <end>106822</end>
                <file id="src-6"/>
                <sourcetrack>
                  <mediatype>video</mediatype>
                  <trackindex>1</trackindex>
                </sourcetrack>
                <multiclip id="mcs-1154">
                  <name>MCS-1154</name>
                  <masterclipid>clip-master</masterclipid>
                  <collapsed>false</collapsed>
                  <angle>
                    <activevideoangle>false</activevideoangle>
                    <activeaudioangle>false</activeaudioangle>
                    <clip id="clip-1"/>
                  </angle>
                  <angle>
                    <activevideoangle>false</activevideoangle>
                    <activeaudioangle>false</activeaudioangle>
                    <clip id="clip-2"/>
                  </angle>
                  <angle>
                    <activevideoangle>false</activevideoangle>
                    <activeaudioangle>false</activeaudioangle>
                    <clip id="clip-3"/>
                  </angle>
                  <angle>
                    <activevideoangle>false</activevideoangle>
                    <activeaudioangle>false</activeaudioangle>
                    <clip id="clip-4"/>
                  </angle>
                  <angle>
                    <activevideoangle>false</activevideoangle>
                    <activeaudioangle>false</activeaudioangle>
                    <clip id="clip-5"/>
                  </angle>
                  <angle>
                    <activevideoangle>true</activevideoangle>
                    <activeaudioangle>true</activeaudioangle>
                    <clip id="clip-6"/>
                  </angle>
                  <angle>
                    <activevideoangle>false</activevideoangle>
                    <activeaudioangle>false</activeaudioangle>
                    <clip id="clip-7"/>
                  </angle>
                  <masterclipid>clip-master</masterclipid>
                </multiclip>
              </clipitem>
              <clipitem id="cs-1155">
                <duration>167</duration>
                <rate>
                  <ntsc>false</ntsc>
                  <timebase>25</timebase>
                </rate>
                <in>106822</in>
                <out>106988</out>
                <start>106822</start>
                <end>106988</end>
                <file id="src-4"/>
                <sourcetrack>
                  <mediatype>video</mediatype>
                  <trackindex>1</trackindex>
                </sourcetrack>
                <multiclip id="mcs-1155">
                  <name>MCS-1155</name>
                  <masterclipid>clip-master</masterclipid>
                  <collapsed>false</collapsed>
                  <angle>
                    <activevideoangle>false</activevideoangle>
                    <activeaudioangle>false</activeaudioangle>
                    <clip id="clip-1"/>
                  </angle>
                  <angle>
                    <activevideoangle>false</activevideoangle>
                    <activeaudioangle>false</activeaudioangle>
                    <clip id="clip-2"/>
                  </angle>
                  <angle>
                    <activevideoangle>false</activevideoangle>
                    <activeaudioangle>false</activeaudioangle>
                    <clip id="clip-3"/>
                  </angle>
                  <angle>
                    <activevideoangle>true</activevideoangle>
                    <activeaudioangle>true</activeaudioangle>
                    <clip id="clip-4"/>
                  </angle>
                  <angle>
                    <activevideoangle>false</activevideoangle>
                    <activeaudioangle>false</activeaudioangle>
                    <clip id="clip-5"/>
                  </angle>
                  <angle>
                    <activevideoangle>false</activevideoangle>
                    <activeaudioangle>false</activeaudioangle>
                    <clip id="clip-6"/>
                  </angle>
                  <angle>
                    <activevideoangle>false</activevideoangle>
                    <activeaudioangle>false</activeaudioangle>
                    <clip id="clip-7"/>
                  </angle>
                  <masterclipid>clip-master</masterclipid>
                </multiclip>
              </clipitem>
              <clipitem id="cs-1156">
                <duration>94</duration>
                <rate>
                  <ntsc>false</ntsc>
                  <timebase>25</timebase>
                </rate>
                <in>106988</in>
                <out>107081</out>
                <start>106988</start>
                <end>107081</end>
                <file id="src-3"/>
                <sourcetrack>
                  <mediatype>video</mediatype>
                  <trackindex>1</trackindex>
                </sourcetrack>
                <multiclip id="mcs-1156">
                  <name>MCS-1156</name>
                  <masterclipid>clip-master</masterclipid>
                  <collapsed>false</collapsed>
                  <angle>
                    <activevideoangle>false</activevideoangle>
                    <activeaudioangle>false</activeaudioangle>
                    <clip id="clip-1"/>
                  </angle>
                  <angle>
                    <activevideoangle>false</activevideoangle>
                    <activeaudioangle>false</activeaudioangle>
                    <clip id="clip-2"/>
                  </angle>
                  <angle>
                    <activevideoangle>true</activevideoangle>
                    <activeaudioangle>true</activeaudioangle>
                    <clip id="clip-3"/>
                  </angle>
                  <angle>
                    <activevideoangle>false</activevideoangle>
                    <activeaudioangle>false</activeaudioangle>
                    <clip id="clip-4"/>
                  </angle>
                  <angle>
                    <activevideoangle>false</activevideoangle>
                    <activeaudioangle>false</activeaudioangle>
                    <clip id="clip-5"/>
                  </angle>
                  <angle>
                    <activevideoangle>false</activevideoangle>
                    <activeaudioangle>false</activeaudioangle>
                    <clip id="clip-6"/>
                  </angle>
                  <angle>
                    <activevideoangle>false</activevideoangle>
                    <activeaudioangle>false</activeaudioangle>
                    <clip id="clip-7"/>
                  </angle>
                  <masterclipid>clip-master</masterclipid>
                </multiclip>
              </clipitem>
              <clipitem id="cs-1157">
                <duration>116</duration>
                <rate>
                  <ntsc>false</ntsc>
                  <timebase>25</timebase>
                </rate>
                <in>107081</in>
                <out>107196</out>
                <start>107081</start>
                <end>107196</end>
                <file id="src-2"/>
                <sourcetrack>
                  <mediatype>video</mediatype>
                  <trackindex>1</trackindex>
                </sourcetrack>
                <multiclip id="mcs-1157">
                  <name>MCS-1157</name>
                  <masterclipid>clip-master</masterclipid>
                  <collapsed>false</collapsed>
                  <angle>
                    <activevideoangle>false</activevideoangle>
                    <activeaudioangle>false</activeaudioangle>
                    <clip id="clip-1"/>
                  </angle>
                  <angle>
                    <activevideoangle>true</activevideoangle>
                    <activeaudioangle>true</activeaudioangle>
                    <clip id="clip-2"/>
                  </angle>
                  <angle>
                    <activevideoangle>false</activevideoangle>
                    <activeaudioangle>false</activeaudioangle>
                    <clip id="clip-3"/>
                  </angle>
                  <angle>
                    <activevideoangle>false</activevideoangle>
                    <activeaudioangle>false</activeaudioangle>
                    <clip id="clip-4"/>
                  </angle>
                  <angle>
                    <activevideoangle>false</activevideoangle>
                    <activeaudioangle>false</activeaudioangle>
                    <clip id="clip-5"/>
                  </angle>
                  <angle>
                    <activevideoangle>false</activevideoangle>
                    <activeaudioangle>false</activeaudioangle>
                    <clip id="clip-6"/>
                  </angle>
                  <angle>
                    <activevideoangle>false</activevideoangle>
                    <activeaudioangle>false</activeaudioangle>
                    <clip id="clip-7"/>
                  </angle>
                  <masterclipid>clip-master</masterclipid>
                </multiclip>
              </clipitem>
              <clipitem id="cs-1158">
                <duration>152</duration>
                <rate>
                  <ntsc>false</ntsc>
                  <timebase>25</timebase>
                </rate>
                <in>107196</in>
                <out>107347</out>
                <start>107196</start>
                <end>107347</end>
                <file id="src-4"/>
                <sourcetrack>
                  <mediatype>video</mediatype>
                  <trackindex>1</trackindex>
                </sourcetrack>
                <multiclip id="mcs-1158">
                  <name>MCS-1158</name>
                  <masterclipid>clip-master</masterclipid>
                  <collapsed>false</collapsed>
                  <angle>
                    <activevideoangle>false</activevideoangle>
                    <activeaudioangle>false</activeaudioangle>
                    <clip id="clip-1"/>
                  </angle>
                  <angle>
                    <activevideoangle>false</activevideoangle>
                    <activeaudioangle>false</activeaudioangle>
                    <clip id="clip-2"/>
                  </angle>
                  <angle>
                    <activevideoangle>false</activevideoangle>
                    <activeaudioangle>false</activeaudioangle>
                    <clip id="clip-3"/>
                  </angle>
                  <angle>
                    <activevideoangle>true</activevideoangle>
                    <activeaudioangle>true</activeaudioangle>
                    <clip id="clip-4"/>
                  </angle>
                  <angle>
                    <activevideoangle>false</activevideoangle>
                    <activeaudioangle>false</activeaudioangle>
                    <clip id="clip-5"/>
                  </angle>
                  <angle>
                    <activevideoangle>false</activevideoangle>
                    <activeaudioangle>false</activeaudioangle>
                    <clip id="clip-6"/>
                  </angle>
                  <angle>
                    <activevideoangle>false</activevideoangle>
                    <activeaudioangle>false</activeaudioangle>
                    <clip id="clip-7"/>
                  </angle>
                  <masterclipid>clip-master</masterclipid>
                </multiclip>
              </clipitem>
              <clipitem id="cs-1159">
                <duration>52</duration>
                <rate>
                  <ntsc>false</ntsc>
                  <timebase>25</timebase>
                </rate>
                <in>107347</in>
                <out>107398</out>
                <start>107347</start>
                <end>107398</end>
                <file id="src-1"/>
                <sourcetrack>
                  <mediatype>video</mediatype>
                  <trackindex>1</trackindex>
                </sourcetrack>
                <multiclip id="mcs-1159">
                  <name>MCS-1159</name>
                  <masterclipid>clip-master</masterclipid>
                  <collapsed>false</collapsed>
                  <angle>
                    <activevideoangle>true</activevideoangle>
                    <activeaudioangle>true</activeaudioangle>
                    <clip id="clip-1"/>
                  </angle>
                  <angle>
                    <activevideoangle>false</activevideoangle>
                    <activeaudioangle>false</activeaudioangle>
                    <clip id="clip-2"/>
                  </angle>
                  <angle>
                    <activevideoangle>false</activevideoangle>
                    <activeaudioangle>false</activeaudioangle>
                    <clip id="clip-3"/>
                  </angle>
                  <angle>
                    <activevideoangle>false</activevideoangle>
                    <activeaudioangle>false</activeaudioangle>
                    <clip id="clip-4"/>
                  </angle>
                  <angle>
                    <activevideoangle>false</activevideoangle>
                    <activeaudioangle>false</activeaudioangle>
                    <clip id="clip-5"/>
                  </angle>
                  <angle>
                    <activevideoangle>false</activevideoangle>
                    <activeaudioangle>false</activeaudioangle>
                    <clip id="clip-6"/>
                  </angle>
                  <angle>
                    <activevideoangle>false</activevideoangle>
                    <activeaudioangle>false</activeaudioangle>
                    <clip id="clip-7"/>
                  </angle>
                  <masterclipid>clip-master</masterclipid>
                </multiclip>
              </clipitem>
              <clipitem id="cs-1160">
                <duration>154</duration>
                <rate>
                  <ntsc>false</ntsc>
                  <timebase>25</timebase>
                </rate>
                <in>107398</in>
                <out>107551</out>
                <start>107398</start>
                <end>107551</end>
                <file id="src-2"/>
                <sourcetrack>
                  <mediatype>video</mediatype>
                  <trackindex>1</trackindex>
                </sourcetrack>
                <multiclip id="mcs-1160">
                  <name>MCS-1160</name>
                  <masterclipid>clip-master</masterclipid>
                  <collapsed>false</collapsed>
                  <angle>
                    <activevideoangle>false</activevideoangle>
                    <activeaudioangle>false</activeaudioangle>
                    <clip id="clip-1"/>
                  </angle>
                  <angle>
                    <activevideoangle>true</activevideoangle>
                    <activeaudioangle>true</activeaudioangle>
                    <clip id="clip-2"/>
                  </angle>
                  <angle>
                    <activevideoangle>false</activevideoangle>
                    <activeaudioangle>false</activeaudioangle>
                    <clip id="clip-3"/>
                  </angle>
                  <angle>
                    <activevideoangle>false</activevideoangle>
                    <activeaudioangle>false</activeaudioangle>
                    <clip id="clip-4"/>
                  </angle>
                  <angle>
                    <activevideoangle>false</activevideoangle>
                    <activeaudioangle>false</activeaudioangle>
                    <clip id="clip-5"/>
                  </angle>
                  <angle>
                    <activevideoangle>false</activevideoangle>
                    <activeaudioangle>false</activeaudioangle>
                    <clip id="clip-6"/>
                  </angle>
                  <angle>
                    <activevideoangle>false</activevideoangle>
                    <activeaudioangle>false</activeaudioangle>
                    <clip id="clip-7"/>
                  </angle>
                  <masterclipid>clip-master</masterclipid>
                </multiclip>
              </clipitem>
              <clipitem id="cs-1161">
                <duration>234</duration>
                <rate>
                  <ntsc>false</ntsc>
                  <timebase>25</timebase>
                </rate>
                <in>107551</in>
                <out>107784</out>
                <start>107551</start>
                <end>107784</end>
                <file id="src-5"/>
                <sourcetrack>
                  <mediatype>video</mediatype>
                  <trackindex>1</trackindex>
                </sourcetrack>
                <multiclip id="mcs-1161">
                  <name>MCS-1161</name>
                  <masterclipid>clip-master</masterclipid>
                  <collapsed>false</collapsed>
                  <angle>
                    <activevideoangle>false</activevideoangle>
                    <activeaudioangle>false</activeaudioangle>
                    <clip id="clip-1"/>
                  </angle>
                  <angle>
                    <activevideoangle>false</activevideoangle>
                    <activeaudioangle>false</activeaudioangle>
                    <clip id="clip-2"/>
                  </angle>
                  <angle>
                    <activevideoangle>false</activevideoangle>
                    <activeaudioangle>false</activeaudioangle>
                    <clip id="clip-3"/>
                  </angle>
                  <angle>
                    <activevideoangle>false</activevideoangle>
                    <activeaudioangle>false</activeaudioangle>
                    <clip id="clip-4"/>
                  </angle>
                  <angle>
                    <activevideoangle>true</activevideoangle>
                    <activeaudioangle>true</activeaudioangle>
                    <clip id="clip-5"/>
                  </angle>
                  <angle>
                    <activevideoangle>false</activevideoangle>
                    <activeaudioangle>false</activeaudioangle>
                    <clip id="clip-6"/>
                  </angle>
                  <angle>
                    <activevideoangle>false</activevideoangle>
                    <activeaudioangle>false</activeaudioangle>
                    <clip id="clip-7"/>
                  </angle>
                  <masterclipid>clip-master</masterclipid>
                </multiclip>
              </clipitem>
              <clipitem id="cs-1162">
                <duration>226</duration>
                <rate>
                  <ntsc>false</ntsc>
                  <timebase>25</timebase>
                </rate>
                <in>107784</in>
                <out>108009</out>
                <start>107784</start>
                <end>108009</end>
                <file id="src-2"/>
                <sourcetrack>
                  <mediatype>video</mediatype>
                  <trackindex>1</trackindex>
                </sourcetrack>
                <multiclip id="mcs-1162">
                  <name>MCS-1162</name>
                  <masterclipid>clip-master</masterclipid>
                  <collapsed>false</collapsed>
                  <angle>
                    <activevideoangle>false</activevideoangle>
                    <activeaudioangle>false</activeaudioangle>
                    <clip id="clip-1"/>
                  </angle>
                  <angle>
                    <activevideoangle>true</activevideoangle>
                    <activeaudioangle>true</activeaudioangle>
                    <clip id="clip-2"/>
                  </angle>
                  <angle>
                    <activevideoangle>false</activevideoangle>
                    <activeaudioangle>false</activeaudioangle>
                    <clip id="clip-3"/>
                  </angle>
                  <angle>
                    <activevideoangle>false</activevideoangle>
                    <activeaudioangle>false</activeaudioangle>
                    <clip id="clip-4"/>
                  </angle>
                  <angle>
                    <activevideoangle>false</activevideoangle>
                    <activeaudioangle>false</activeaudioangle>
                    <clip id="clip-5"/>
                  </angle>
                  <angle>
                    <activevideoangle>false</activevideoangle>
                    <activeaudioangle>false</activeaudioangle>
                    <clip id="clip-6"/>
                  </angle>
                  <angle>
                    <activevideoangle>false</activevideoangle>
                    <activeaudioangle>false</activeaudioangle>
                    <clip id="clip-7"/>
                  </angle>
                  <masterclipid>clip-master</masterclipid>
                </multiclip>
              </clipitem>
              <clipitem id="cs-1163">
                <duration>89</duration>
                <rate>
                  <ntsc>false</ntsc>
                  <timebase>25</timebase>
                </rate>
                <in>108009</in>
                <out>108097</out>
                <start>108009</start>
                <end>108097</end>
                <file id="src-4"/>
                <sourcetrack>
                  <mediatype>video</mediatype>
                  <trackindex>1</trackindex>
                </sourcetrack>
                <multiclip id="mcs-1163">
                  <name>MCS-1163</name>
                  <masterclipid>clip-master</masterclipid>
                  <collapsed>false</collapsed>
                  <angle>
                    <activevideoangle>false</activevideoangle>
                    <activeaudioangle>false</activeaudioangle>
                    <clip id="clip-1"/>
                  </angle>
                  <angle>
                    <activevideoangle>false</activevideoangle>
                    <activeaudioangle>false</activeaudioangle>
                    <clip id="clip-2"/>
                  </angle>
                  <angle>
                    <activevideoangle>false</activevideoangle>
                    <activeaudioangle>false</activeaudioangle>
                    <clip id="clip-3"/>
                  </angle>
                  <angle>
                    <activevideoangle>true</activevideoangle>
                    <activeaudioangle>true</activeaudioangle>
                    <clip id="clip-4"/>
                  </angle>
                  <angle>
                    <activevideoangle>false</activevideoangle>
                    <activeaudioangle>false</activeaudioangle>
                    <clip id="clip-5"/>
                  </angle>
                  <angle>
                    <activevideoangle>false</activevideoangle>
                    <activeaudioangle>false</activeaudioangle>
                    <clip id="clip-6"/>
                  </angle>
                  <angle>
                    <activevideoangle>false</activevideoangle>
                    <activeaudioangle>false</activeaudioangle>
                    <clip id="clip-7"/>
                  </angle>
                  <masterclipid>clip-master</masterclipid>
                </multiclip>
              </clipitem>
              <clipitem id="cs-1164">
                <duration>196</duration>
                <rate>
                  <ntsc>false</ntsc>
                  <timebase>25</timebase>
                </rate>
                <in>108097</in>
                <out>108292</out>
                <start>108097</start>
                <end>108292</end>
                <file id="src-6"/>
                <sourcetrack>
                  <mediatype>video</mediatype>
                  <trackindex>1</trackindex>
                </sourcetrack>
                <multiclip id="mcs-1164">
                  <name>MCS-1164</name>
                  <masterclipid>clip-master</masterclipid>
                  <collapsed>false</collapsed>
                  <angle>
                    <activevideoangle>false</activevideoangle>
                    <activeaudioangle>false</activeaudioangle>
                    <clip id="clip-1"/>
                  </angle>
                  <angle>
                    <activevideoangle>false</activevideoangle>
                    <activeaudioangle>false</activeaudioangle>
                    <clip id="clip-2"/>
                  </angle>
                  <angle>
                    <activevideoangle>false</activevideoangle>
                    <activeaudioangle>false</activeaudioangle>
                    <clip id="clip-3"/>
                  </angle>
                  <angle>
                    <activevideoangle>false</activevideoangle>
                    <activeaudioangle>false</activeaudioangle>
                    <clip id="clip-4"/>
                  </angle>
                  <angle>
                    <activevideoangle>false</activevideoangle>
                    <activeaudioangle>false</activeaudioangle>
                    <clip id="clip-5"/>
                  </angle>
                  <angle>
                    <activevideoangle>true</activevideoangle>
                    <activeaudioangle>true</activeaudioangle>
                    <clip id="clip-6"/>
                  </angle>
                  <angle>
                    <activevideoangle>false</activevideoangle>
                    <activeaudioangle>false</activeaudioangle>
                    <clip id="clip-7"/>
                  </angle>
                  <masterclipid>clip-master</masterclipid>
                </multiclip>
              </clipitem>
              <clipitem id="cs-1165">
                <duration>265</duration>
                <rate>
                  <ntsc>false</ntsc>
                  <timebase>25</timebase>
                </rate>
                <in>108292</in>
                <out>108556</out>
                <start>108292</start>
                <end>108556</end>
                <file id="src-3"/>
                <sourcetrack>
                  <mediatype>video</mediatype>
                  <trackindex>1</trackindex>
                </sourcetrack>
                <multiclip id="mcs-1165">
                  <name>MCS-1165</name>
                  <masterclipid>clip-master</masterclipid>
                  <collapsed>false</collapsed>
                  <angle>
                    <activevideoangle>false</activevideoangle>
                    <activeaudioangle>false</activeaudioangle>
                    <clip id="clip-1"/>
                  </angle>
                  <angle>
                    <activevideoangle>false</activevideoangle>
                    <activeaudioangle>false</activeaudioangle>
                    <clip id="clip-2"/>
                  </angle>
                  <angle>
                    <activevideoangle>true</activevideoangle>
                    <activeaudioangle>true</activeaudioangle>
                    <clip id="clip-3"/>
                  </angle>
                  <angle>
                    <activevideoangle>false</activevideoangle>
                    <activeaudioangle>false</activeaudioangle>
                    <clip id="clip-4"/>
                  </angle>
                  <angle>
                    <activevideoangle>false</activevideoangle>
                    <activeaudioangle>false</activeaudioangle>
                    <clip id="clip-5"/>
                  </angle>
                  <angle>
                    <activevideoangle>false</activevideoangle>
                    <activeaudioangle>false</activeaudioangle>
                    <clip id="clip-6"/>
                  </angle>
                  <angle>
                    <activevideoangle>false</activevideoangle>
                    <activeaudioangle>false</activeaudioangle>
                    <clip id="clip-7"/>
                  </angle>
                  <masterclipid>clip-master</masterclipid>
                </multiclip>
              </clipitem>
              <clipitem id="cs-1166">
                <duration>141</duration>
                <rate>
                  <ntsc>false</ntsc>
                  <timebase>25</timebase>
                </rate>
                <in>108556</in>
                <out>108696</out>
                <start>108556</start>
                <end>108696</end>
                <file id="src-2"/>
                <sourcetrack>
                  <mediatype>video</mediatype>
                  <trackindex>1</trackindex>
                </sourcetrack>
                <multiclip id="mcs-1166">
                  <name>MCS-1166</name>
                  <masterclipid>clip-master</masterclipid>
                  <collapsed>false</collapsed>
                  <angle>
                    <activevideoangle>false</activevideoangle>
                    <activeaudioangle>false</activeaudioangle>
                    <clip id="clip-1"/>
                  </angle>
                  <angle>
                    <activevideoangle>true</activevideoangle>
                    <activeaudioangle>true</activeaudioangle>
                    <clip id="clip-2"/>
                  </angle>
                  <angle>
                    <activevideoangle>false</activevideoangle>
                    <activeaudioangle>false</activeaudioangle>
                    <clip id="clip-3"/>
                  </angle>
                  <angle>
                    <activevideoangle>false</activevideoangle>
                    <activeaudioangle>false</activeaudioangle>
                    <clip id="clip-4"/>
                  </angle>
                  <angle>
                    <activevideoangle>false</activevideoangle>
                    <activeaudioangle>false</activeaudioangle>
                    <clip id="clip-5"/>
                  </angle>
                  <angle>
                    <activevideoangle>false</activevideoangle>
                    <activeaudioangle>false</activeaudioangle>
                    <clip id="clip-6"/>
                  </angle>
                  <angle>
                    <activevideoangle>false</activevideoangle>
                    <activeaudioangle>false</activeaudioangle>
                    <clip id="clip-7"/>
                  </angle>
                  <masterclipid>clip-master</masterclipid>
                </multiclip>
              </clipitem>
              <clipitem id="cs-1167">
                <duration>133</duration>
                <rate>
                  <ntsc>false</ntsc>
                  <timebase>25</timebase>
                </rate>
                <in>108696</in>
                <out>108828</out>
                <start>108696</start>
                <end>108828</end>
                <file id="src-6"/>
                <sourcetrack>
                  <mediatype>video</mediatype>
                  <trackindex>1</trackindex>
                </sourcetrack>
                <multiclip id="mcs-1167">
                  <name>MCS-1167</name>
                  <masterclipid>clip-master</masterclipid>
                  <collapsed>false</collapsed>
                  <angle>
                    <activevideoangle>false</activevideoangle>
                    <activeaudioangle>false</activeaudioangle>
                    <clip id="clip-1"/>
                  </angle>
                  <angle>
                    <activevideoangle>false</activevideoangle>
                    <activeaudioangle>false</activeaudioangle>
                    <clip id="clip-2"/>
                  </angle>
                  <angle>
                    <activevideoangle>false</activevideoangle>
                    <activeaudioangle>false</activeaudioangle>
                    <clip id="clip-3"/>
                  </angle>
                  <angle>
                    <activevideoangle>false</activevideoangle>
                    <activeaudioangle>false</activeaudioangle>
                    <clip id="clip-4"/>
                  </angle>
                  <angle>
                    <activevideoangle>false</activevideoangle>
                    <activeaudioangle>false</activeaudioangle>
                    <clip id="clip-5"/>
                  </angle>
                  <angle>
                    <activevideoangle>true</activevideoangle>
                    <activeaudioangle>true</activeaudioangle>
                    <clip id="clip-6"/>
                  </angle>
                  <angle>
                    <activevideoangle>false</activevideoangle>
                    <activeaudioangle>false</activeaudioangle>
                    <clip id="clip-7"/>
                  </angle>
                  <masterclipid>clip-master</masterclipid>
                </multiclip>
              </clipitem>
              <clipitem id="cs-1168">
                <duration>142</duration>
                <rate>
                  <ntsc>false</ntsc>
                  <timebase>25</timebase>
                </rate>
                <in>108828</in>
                <out>108969</out>
                <start>108828</start>
                <end>108969</end>
                <file id="src-2"/>
                <sourcetrack>
                  <mediatype>video</mediatype>
                  <trackindex>1</trackindex>
                </sourcetrack>
                <multiclip id="mcs-1168">
                  <name>MCS-1168</name>
                  <masterclipid>clip-master</masterclipid>
                  <collapsed>false</collapsed>
                  <angle>
                    <activevideoangle>false</activevideoangle>
                    <activeaudioangle>false</activeaudioangle>
                    <clip id="clip-1"/>
                  </angle>
                  <angle>
                    <activevideoangle>true</activevideoangle>
                    <activeaudioangle>true</activeaudioangle>
                    <clip id="clip-2"/>
                  </angle>
                  <angle>
                    <activevideoangle>false</activevideoangle>
                    <activeaudioangle>false</activeaudioangle>
                    <clip id="clip-3"/>
                  </angle>
                  <angle>
                    <activevideoangle>false</activevideoangle>
                    <activeaudioangle>false</activeaudioangle>
                    <clip id="clip-4"/>
                  </angle>
                  <angle>
                    <activevideoangle>false</activevideoangle>
                    <activeaudioangle>false</activeaudioangle>
                    <clip id="clip-5"/>
                  </angle>
                  <angle>
                    <activevideoangle>false</activevideoangle>
                    <activeaudioangle>false</activeaudioangle>
                    <clip id="clip-6"/>
                  </angle>
                  <angle>
                    <activevideoangle>false</activevideoangle>
                    <activeaudioangle>false</activeaudioangle>
                    <clip id="clip-7"/>
                  </angle>
                  <masterclipid>clip-master</masterclipid>
                </multiclip>
              </clipitem>
              <clipitem id="cs-1169">
                <duration>123</duration>
                <rate>
                  <ntsc>false</ntsc>
                  <timebase>25</timebase>
                </rate>
                <in>108969</in>
                <out>109091</out>
                <start>108969</start>
                <end>109091</end>
                <file id="src-3"/>
                <sourcetrack>
                  <mediatype>video</mediatype>
                  <trackindex>1</trackindex>
                </sourcetrack>
                <multiclip id="mcs-1169">
                  <name>MCS-1169</name>
                  <masterclipid>clip-master</masterclipid>
                  <collapsed>false</collapsed>
                  <angle>
                    <activevideoangle>false</activevideoangle>
                    <activeaudioangle>false</activeaudioangle>
                    <clip id="clip-1"/>
                  </angle>
                  <angle>
                    <activevideoangle>false</activevideoangle>
                    <activeaudioangle>false</activeaudioangle>
                    <clip id="clip-2"/>
                  </angle>
                  <angle>
                    <activevideoangle>true</activevideoangle>
                    <activeaudioangle>true</activeaudioangle>
                    <clip id="clip-3"/>
                  </angle>
                  <angle>
                    <activevideoangle>false</activevideoangle>
                    <activeaudioangle>false</activeaudioangle>
                    <clip id="clip-4"/>
                  </angle>
                  <angle>
                    <activevideoangle>false</activevideoangle>
                    <activeaudioangle>false</activeaudioangle>
                    <clip id="clip-5"/>
                  </angle>
                  <angle>
                    <activevideoangle>false</activevideoangle>
                    <activeaudioangle>false</activeaudioangle>
                    <clip id="clip-6"/>
                  </angle>
                  <angle>
                    <activevideoangle>false</activevideoangle>
                    <activeaudioangle>false</activeaudioangle>
                    <clip id="clip-7"/>
                  </angle>
                  <masterclipid>clip-master</masterclipid>
                </multiclip>
              </clipitem>
              <clipitem id="cs-1170">
                <duration>80</duration>
                <rate>
                  <ntsc>false</ntsc>
                  <timebase>25</timebase>
                </rate>
                <in>109091</in>
                <out>109170</out>
                <start>109091</start>
                <end>109170</end>
                <file id="src-4"/>
                <sourcetrack>
                  <mediatype>video</mediatype>
                  <trackindex>1</trackindex>
                </sourcetrack>
                <multiclip id="mcs-1170">
                  <name>MCS-1170</name>
                  <masterclipid>clip-master</masterclipid>
                  <collapsed>false</collapsed>
                  <angle>
                    <activevideoangle>false</activevideoangle>
                    <activeaudioangle>false</activeaudioangle>
                    <clip id="clip-1"/>
                  </angle>
                  <angle>
                    <activevideoangle>false</activevideoangle>
                    <activeaudioangle>false</activeaudioangle>
                    <clip id="clip-2"/>
                  </angle>
                  <angle>
                    <activevideoangle>false</activevideoangle>
                    <activeaudioangle>false</activeaudioangle>
                    <clip id="clip-3"/>
                  </angle>
                  <angle>
                    <activevideoangle>true</activevideoangle>
                    <activeaudioangle>true</activeaudioangle>
                    <clip id="clip-4"/>
                  </angle>
                  <angle>
                    <activevideoangle>false</activevideoangle>
                    <activeaudioangle>false</activeaudioangle>
                    <clip id="clip-5"/>
                  </angle>
                  <angle>
                    <activevideoangle>false</activevideoangle>
                    <activeaudioangle>false</activeaudioangle>
                    <clip id="clip-6"/>
                  </angle>
                  <angle>
                    <activevideoangle>false</activevideoangle>
                    <activeaudioangle>false</activeaudioangle>
                    <clip id="clip-7"/>
                  </angle>
                  <masterclipid>clip-master</masterclipid>
                </multiclip>
              </clipitem>
              <clipitem id="cs-1171">
                <duration>335</duration>
                <rate>
                  <ntsc>false</ntsc>
                  <timebase>25</timebase>
                </rate>
                <in>109170</in>
                <out>109504</out>
                <start>109170</start>
                <end>109504</end>
                <file id="src-2"/>
                <sourcetrack>
                  <mediatype>video</mediatype>
                  <trackindex>1</trackindex>
                </sourcetrack>
                <multiclip id="mcs-1171">
                  <name>MCS-1171</name>
                  <masterclipid>clip-master</masterclipid>
                  <collapsed>false</collapsed>
                  <angle>
                    <activevideoangle>false</activevideoangle>
                    <activeaudioangle>false</activeaudioangle>
                    <clip id="clip-1"/>
                  </angle>
                  <angle>
                    <activevideoangle>true</activevideoangle>
                    <activeaudioangle>true</activeaudioangle>
                    <clip id="clip-2"/>
                  </angle>
                  <angle>
                    <activevideoangle>false</activevideoangle>
                    <activeaudioangle>false</activeaudioangle>
                    <clip id="clip-3"/>
                  </angle>
                  <angle>
                    <activevideoangle>false</activevideoangle>
                    <activeaudioangle>false</activeaudioangle>
                    <clip id="clip-4"/>
                  </angle>
                  <angle>
                    <activevideoangle>false</activevideoangle>
                    <activeaudioangle>false</activeaudioangle>
                    <clip id="clip-5"/>
                  </angle>
                  <angle>
                    <activevideoangle>false</activevideoangle>
                    <activeaudioangle>false</activeaudioangle>
                    <clip id="clip-6"/>
                  </angle>
                  <angle>
                    <activevideoangle>false</activevideoangle>
                    <activeaudioangle>false</activeaudioangle>
                    <clip id="clip-7"/>
                  </angle>
                  <masterclipid>clip-master</masterclipid>
                </multiclip>
              </clipitem>
              <clipitem id="cs-1172">
                <duration>84</duration>
                <rate>
                  <ntsc>false</ntsc>
                  <timebase>25</timebase>
                </rate>
                <in>109504</in>
                <out>109587</out>
                <start>109504</start>
                <end>109587</end>
                <file id="src-5"/>
                <sourcetrack>
                  <mediatype>video</mediatype>
                  <trackindex>1</trackindex>
                </sourcetrack>
                <multiclip id="mcs-1172">
                  <name>MCS-1172</name>
                  <masterclipid>clip-master</masterclipid>
                  <collapsed>false</collapsed>
                  <angle>
                    <activevideoangle>false</activevideoangle>
                    <activeaudioangle>false</activeaudioangle>
                    <clip id="clip-1"/>
                  </angle>
                  <angle>
                    <activevideoangle>false</activevideoangle>
                    <activeaudioangle>false</activeaudioangle>
                    <clip id="clip-2"/>
                  </angle>
                  <angle>
                    <activevideoangle>false</activevideoangle>
                    <activeaudioangle>false</activeaudioangle>
                    <clip id="clip-3"/>
                  </angle>
                  <angle>
                    <activevideoangle>false</activevideoangle>
                    <activeaudioangle>false</activeaudioangle>
                    <clip id="clip-4"/>
                  </angle>
                  <angle>
                    <activevideoangle>true</activevideoangle>
                    <activeaudioangle>true</activeaudioangle>
                    <clip id="clip-5"/>
                  </angle>
                  <angle>
                    <activevideoangle>false</activevideoangle>
                    <activeaudioangle>false</activeaudioangle>
                    <clip id="clip-6"/>
                  </angle>
                  <angle>
                    <activevideoangle>false</activevideoangle>
                    <activeaudioangle>false</activeaudioangle>
                    <clip id="clip-7"/>
                  </angle>
                  <masterclipid>clip-master</masterclipid>
                </multiclip>
              </clipitem>
              <clipitem id="cs-1173">
                <duration>138</duration>
                <rate>
                  <ntsc>false</ntsc>
                  <timebase>25</timebase>
                </rate>
                <in>109587</in>
                <out>109724</out>
                <start>109587</start>
                <end>109724</end>
                <file id="src-1"/>
                <sourcetrack>
                  <mediatype>video</mediatype>
                  <trackindex>1</trackindex>
                </sourcetrack>
                <multiclip id="mcs-1173">
                  <name>MCS-1173</name>
                  <masterclipid>clip-master</masterclipid>
                  <collapsed>false</collapsed>
                  <angle>
                    <activevideoangle>true</activevideoangle>
                    <activeaudioangle>true</activeaudioangle>
                    <clip id="clip-1"/>
                  </angle>
                  <angle>
                    <activevideoangle>false</activevideoangle>
                    <activeaudioangle>false</activeaudioangle>
                    <clip id="clip-2"/>
                  </angle>
                  <angle>
                    <activevideoangle>false</activevideoangle>
                    <activeaudioangle>false</activeaudioangle>
                    <clip id="clip-3"/>
                  </angle>
                  <angle>
                    <activevideoangle>false</activevideoangle>
                    <activeaudioangle>false</activeaudioangle>
                    <clip id="clip-4"/>
                  </angle>
                  <angle>
                    <activevideoangle>false</activevideoangle>
                    <activeaudioangle>false</activeaudioangle>
                    <clip id="clip-5"/>
                  </angle>
                  <angle>
                    <activevideoangle>false</activevideoangle>
                    <activeaudioangle>false</activeaudioangle>
                    <clip id="clip-6"/>
                  </angle>
                  <angle>
                    <activevideoangle>false</activevideoangle>
                    <activeaudioangle>false</activeaudioangle>
                    <clip id="clip-7"/>
                  </angle>
                  <masterclipid>clip-master</masterclipid>
                </multiclip>
              </clipitem>
              <clipitem id="cs-1174">
                <duration>162</duration>
                <rate>
                  <ntsc>false</ntsc>
                  <timebase>25</timebase>
                </rate>
                <in>109724</in>
                <out>109885</out>
                <start>109724</start>
                <end>109885</end>
                <file id="src-3"/>
                <sourcetrack>
                  <mediatype>video</mediatype>
                  <trackindex>1</trackindex>
                </sourcetrack>
                <multiclip id="mcs-1174">
                  <name>MCS-1174</name>
                  <masterclipid>clip-master</masterclipid>
                  <collapsed>false</collapsed>
                  <angle>
                    <activevideoangle>false</activevideoangle>
                    <activeaudioangle>false</activeaudioangle>
                    <clip id="clip-1"/>
                  </angle>
                  <angle>
                    <activevideoangle>false</activevideoangle>
                    <activeaudioangle>false</activeaudioangle>
                    <clip id="clip-2"/>
                  </angle>
                  <angle>
                    <activevideoangle>true</activevideoangle>
                    <activeaudioangle>true</activeaudioangle>
                    <clip id="clip-3"/>
                  </angle>
                  <angle>
                    <activevideoangle>false</activevideoangle>
                    <activeaudioangle>false</activeaudioangle>
                    <clip id="clip-4"/>
                  </angle>
                  <angle>
                    <activevideoangle>false</activevideoangle>
                    <activeaudioangle>false</activeaudioangle>
                    <clip id="clip-5"/>
                  </angle>
                  <angle>
                    <activevideoangle>false</activevideoangle>
                    <activeaudioangle>false</activeaudioangle>
                    <clip id="clip-6"/>
                  </angle>
                  <angle>
                    <activevideoangle>false</activevideoangle>
                    <activeaudioangle>false</activeaudioangle>
                    <clip id="clip-7"/>
                  </angle>
                  <masterclipid>clip-master</masterclipid>
                </multiclip>
              </clipitem>
              <clipitem id="cs-1175">
                <duration>178</duration>
                <rate>
                  <ntsc>false</ntsc>
                  <timebase>25</timebase>
                </rate>
                <in>109885</in>
                <out>110062</out>
                <start>109885</start>
                <end>110062</end>
                <file id="src-2"/>
                <sourcetrack>
                  <mediatype>video</mediatype>
                  <trackindex>1</trackindex>
                </sourcetrack>
                <multiclip id="mcs-1175">
                  <name>MCS-1175</name>
                  <masterclipid>clip-master</masterclipid>
                  <collapsed>false</collapsed>
                  <angle>
                    <activevideoangle>false</activevideoangle>
                    <activeaudioangle>false</activeaudioangle>
                    <clip id="clip-1"/>
                  </angle>
                  <angle>
                    <activevideoangle>true</activevideoangle>
                    <activeaudioangle>true</activeaudioangle>
                    <clip id="clip-2"/>
                  </angle>
                  <angle>
                    <activevideoangle>false</activevideoangle>
                    <activeaudioangle>false</activeaudioangle>
                    <clip id="clip-3"/>
                  </angle>
                  <angle>
                    <activevideoangle>false</activevideoangle>
                    <activeaudioangle>false</activeaudioangle>
                    <clip id="clip-4"/>
                  </angle>
                  <angle>
                    <activevideoangle>false</activevideoangle>
                    <activeaudioangle>false</activeaudioangle>
                    <clip id="clip-5"/>
                  </angle>
                  <angle>
                    <activevideoangle>false</activevideoangle>
                    <activeaudioangle>false</activeaudioangle>
                    <clip id="clip-6"/>
                  </angle>
                  <angle>
                    <activevideoangle>false</activevideoangle>
                    <activeaudioangle>false</activeaudioangle>
                    <clip id="clip-7"/>
                  </angle>
                  <masterclipid>clip-master</masterclipid>
                </multiclip>
              </clipitem>
              <clipitem id="cs-1176">
                <duration>140</duration>
                <rate>
                  <ntsc>false</ntsc>
                  <timebase>25</timebase>
                </rate>
                <in>110062</in>
                <out>110201</out>
                <start>110062</start>
                <end>110201</end>
                <file id="src-4"/>
                <sourcetrack>
                  <mediatype>video</mediatype>
                  <trackindex>1</trackindex>
                </sourcetrack>
                <multiclip id="mcs-1176">
                  <name>MCS-1176</name>
                  <masterclipid>clip-master</masterclipid>
                  <collapsed>false</collapsed>
                  <angle>
                    <activevideoangle>false</activevideoangle>
                    <activeaudioangle>false</activeaudioangle>
                    <clip id="clip-1"/>
                  </angle>
                  <angle>
                    <activevideoangle>false</activevideoangle>
                    <activeaudioangle>false</activeaudioangle>
                    <clip id="clip-2"/>
                  </angle>
                  <angle>
                    <activevideoangle>false</activevideoangle>
                    <activeaudioangle>false</activeaudioangle>
                    <clip id="clip-3"/>
                  </angle>
                  <angle>
                    <activevideoangle>true</activevideoangle>
                    <activeaudioangle>true</activeaudioangle>
                    <clip id="clip-4"/>
                  </angle>
                  <angle>
                    <activevideoangle>false</activevideoangle>
                    <activeaudioangle>false</activeaudioangle>
                    <clip id="clip-5"/>
                  </angle>
                  <angle>
                    <activevideoangle>false</activevideoangle>
                    <activeaudioangle>false</activeaudioangle>
                    <clip id="clip-6"/>
                  </angle>
                  <angle>
                    <activevideoangle>false</activevideoangle>
                    <activeaudioangle>false</activeaudioangle>
                    <clip id="clip-7"/>
                  </angle>
                  <masterclipid>clip-master</masterclipid>
                </multiclip>
              </clipitem>
              <clipitem id="cs-1177">
                <duration>101</duration>
                <rate>
                  <ntsc>false</ntsc>
                  <timebase>25</timebase>
                </rate>
                <in>110201</in>
                <out>110301</out>
                <start>110201</start>
                <end>110301</end>
                <file id="src-3"/>
                <sourcetrack>
                  <mediatype>video</mediatype>
                  <trackindex>1</trackindex>
                </sourcetrack>
                <multiclip id="mcs-1177">
                  <name>MCS-1177</name>
                  <masterclipid>clip-master</masterclipid>
                  <collapsed>false</collapsed>
                  <angle>
                    <activevideoangle>false</activevideoangle>
                    <activeaudioangle>false</activeaudioangle>
                    <clip id="clip-1"/>
                  </angle>
                  <angle>
                    <activevideoangle>false</activevideoangle>
                    <activeaudioangle>false</activeaudioangle>
                    <clip id="clip-2"/>
                  </angle>
                  <angle>
                    <activevideoangle>true</activevideoangle>
                    <activeaudioangle>true</activeaudioangle>
                    <clip id="clip-3"/>
                  </angle>
                  <angle>
                    <activevideoangle>false</activevideoangle>
                    <activeaudioangle>false</activeaudioangle>
                    <clip id="clip-4"/>
                  </angle>
                  <angle>
                    <activevideoangle>false</activevideoangle>
                    <activeaudioangle>false</activeaudioangle>
                    <clip id="clip-5"/>
                  </angle>
                  <angle>
                    <activevideoangle>false</activevideoangle>
                    <activeaudioangle>false</activeaudioangle>
                    <clip id="clip-6"/>
                  </angle>
                  <angle>
                    <activevideoangle>false</activevideoangle>
                    <activeaudioangle>false</activeaudioangle>
                    <clip id="clip-7"/>
                  </angle>
                  <masterclipid>clip-master</masterclipid>
                </multiclip>
              </clipitem>
              <clipitem id="cs-1178">
                <duration>139</duration>
                <rate>
                  <ntsc>false</ntsc>
                  <timebase>25</timebase>
                </rate>
                <in>110301</in>
                <out>110439</out>
                <start>110301</start>
                <end>110439</end>
                <file id="src-6"/>
                <sourcetrack>
                  <mediatype>video</mediatype>
                  <trackindex>1</trackindex>
                </sourcetrack>
                <multiclip id="mcs-1178">
                  <name>MCS-1178</name>
                  <masterclipid>clip-master</masterclipid>
                  <collapsed>false</collapsed>
                  <angle>
                    <activevideoangle>false</activevideoangle>
                    <activeaudioangle>false</activeaudioangle>
                    <clip id="clip-1"/>
                  </angle>
                  <angle>
                    <activevideoangle>false</activevideoangle>
                    <activeaudioangle>false</activeaudioangle>
                    <clip id="clip-2"/>
                  </angle>
                  <angle>
                    <activevideoangle>false</activevideoangle>
                    <activeaudioangle>false</activeaudioangle>
                    <clip id="clip-3"/>
                  </angle>
                  <angle>
                    <activevideoangle>false</activevideoangle>
                    <activeaudioangle>false</activeaudioangle>
                    <clip id="clip-4"/>
                  </angle>
                  <angle>
                    <activevideoangle>false</activevideoangle>
                    <activeaudioangle>false</activeaudioangle>
                    <clip id="clip-5"/>
                  </angle>
                  <angle>
                    <activevideoangle>true</activevideoangle>
                    <activeaudioangle>true</activeaudioangle>
                    <clip id="clip-6"/>
                  </angle>
                  <angle>
                    <activevideoangle>false</activevideoangle>
                    <activeaudioangle>false</activeaudioangle>
                    <clip id="clip-7"/>
                  </angle>
                  <masterclipid>clip-master</masterclipid>
                </multiclip>
              </clipitem>
              <clipitem id="cs-1179">
                <duration>148</duration>
                <rate>
                  <ntsc>false</ntsc>
                  <timebase>25</timebase>
                </rate>
                <in>110439</in>
                <out>110586</out>
                <start>110439</start>
                <end>110586</end>
                <file id="src-2"/>
                <sourcetrack>
                  <mediatype>video</mediatype>
                  <trackindex>1</trackindex>
                </sourcetrack>
                <multiclip id="mcs-1179">
                  <name>MCS-1179</name>
                  <masterclipid>clip-master</masterclipid>
                  <collapsed>false</collapsed>
                  <angle>
                    <activevideoangle>false</activevideoangle>
                    <activeaudioangle>false</activeaudioangle>
                    <clip id="clip-1"/>
                  </angle>
                  <angle>
                    <activevideoangle>true</activevideoangle>
                    <activeaudioangle>true</activeaudioangle>
                    <clip id="clip-2"/>
                  </angle>
                  <angle>
                    <activevideoangle>false</activevideoangle>
                    <activeaudioangle>false</activeaudioangle>
                    <clip id="clip-3"/>
                  </angle>
                  <angle>
                    <activevideoangle>false</activevideoangle>
                    <activeaudioangle>false</activeaudioangle>
                    <clip id="clip-4"/>
                  </angle>
                  <angle>
                    <activevideoangle>false</activevideoangle>
                    <activeaudioangle>false</activeaudioangle>
                    <clip id="clip-5"/>
                  </angle>
                  <angle>
                    <activevideoangle>false</activevideoangle>
                    <activeaudioangle>false</activeaudioangle>
                    <clip id="clip-6"/>
                  </angle>
                  <angle>
                    <activevideoangle>false</activevideoangle>
                    <activeaudioangle>false</activeaudioangle>
                    <clip id="clip-7"/>
                  </angle>
                  <masterclipid>clip-master</masterclipid>
                </multiclip>
              </clipitem>
              <clipitem id="cs-1180">
                <duration>314</duration>
                <rate>
                  <ntsc>false</ntsc>
                  <timebase>25</timebase>
                </rate>
                <in>110586</in>
                <out>110899</out>
                <start>110586</start>
                <end>110899</end>
                <file id="src-3"/>
                <sourcetrack>
                  <mediatype>video</mediatype>
                  <trackindex>1</trackindex>
                </sourcetrack>
                <multiclip id="mcs-1180">
                  <name>MCS-1180</name>
                  <masterclipid>clip-master</masterclipid>
                  <collapsed>false</collapsed>
                  <angle>
                    <activevideoangle>false</activevideoangle>
                    <activeaudioangle>false</activeaudioangle>
                    <clip id="clip-1"/>
                  </angle>
                  <angle>
                    <activevideoangle>false</activevideoangle>
                    <activeaudioangle>false</activeaudioangle>
                    <clip id="clip-2"/>
                  </angle>
                  <angle>
                    <activevideoangle>true</activevideoangle>
                    <activeaudioangle>true</activeaudioangle>
                    <clip id="clip-3"/>
                  </angle>
                  <angle>
                    <activevideoangle>false</activevideoangle>
                    <activeaudioangle>false</activeaudioangle>
                    <clip id="clip-4"/>
                  </angle>
                  <angle>
                    <activevideoangle>false</activevideoangle>
                    <activeaudioangle>false</activeaudioangle>
                    <clip id="clip-5"/>
                  </angle>
                  <angle>
                    <activevideoangle>false</activevideoangle>
                    <activeaudioangle>false</activeaudioangle>
                    <clip id="clip-6"/>
                  </angle>
                  <angle>
                    <activevideoangle>false</activevideoangle>
                    <activeaudioangle>false</activeaudioangle>
                    <clip id="clip-7"/>
                  </angle>
                  <masterclipid>clip-master</masterclipid>
                </multiclip>
              </clipitem>
              <clipitem id="cs-1181">
                <duration>102</duration>
                <rate>
                  <ntsc>false</ntsc>
                  <timebase>25</timebase>
                </rate>
                <in>110899</in>
                <out>111000</out>
                <start>110899</start>
                <end>111000</end>
                <file id="src-4"/>
                <sourcetrack>
                  <mediatype>video</mediatype>
                  <trackindex>1</trackindex>
                </sourcetrack>
                <multiclip id="mcs-1181">
                  <name>MCS-1181</name>
                  <masterclipid>clip-master</masterclipid>
                  <collapsed>false</collapsed>
                  <angle>
                    <activevideoangle>false</activevideoangle>
                    <activeaudioangle>false</activeaudioangle>
                    <clip id="clip-1"/>
                  </angle>
                  <angle>
                    <activevideoangle>false</activevideoangle>
                    <activeaudioangle>false</activeaudioangle>
                    <clip id="clip-2"/>
                  </angle>
                  <angle>
                    <activevideoangle>false</activevideoangle>
                    <activeaudioangle>false</activeaudioangle>
                    <clip id="clip-3"/>
                  </angle>
                  <angle>
                    <activevideoangle>true</activevideoangle>
                    <activeaudioangle>true</activeaudioangle>
                    <clip id="clip-4"/>
                  </angle>
                  <angle>
                    <activevideoangle>false</activevideoangle>
                    <activeaudioangle>false</activeaudioangle>
                    <clip id="clip-5"/>
                  </angle>
                  <angle>
                    <activevideoangle>false</activevideoangle>
                    <activeaudioangle>false</activeaudioangle>
                    <clip id="clip-6"/>
                  </angle>
                  <angle>
                    <activevideoangle>false</activevideoangle>
                    <activeaudioangle>false</activeaudioangle>
                    <clip id="clip-7"/>
                  </angle>
                  <masterclipid>clip-master</masterclipid>
                </multiclip>
              </clipitem>
              <clipitem id="cs-1182">
                <duration>138</duration>
                <rate>
                  <ntsc>false</ntsc>
                  <timebase>25</timebase>
                </rate>
                <in>111000</in>
                <out>111137</out>
                <start>111000</start>
                <end>111137</end>
                <file id="src-2"/>
                <sourcetrack>
                  <mediatype>video</mediatype>
                  <trackindex>1</trackindex>
                </sourcetrack>
                <multiclip id="mcs-1182">
                  <name>MCS-1182</name>
                  <masterclipid>clip-master</masterclipid>
                  <collapsed>false</collapsed>
                  <angle>
                    <activevideoangle>false</activevideoangle>
                    <activeaudioangle>false</activeaudioangle>
                    <clip id="clip-1"/>
                  </angle>
                  <angle>
                    <activevideoangle>true</activevideoangle>
                    <activeaudioangle>true</activeaudioangle>
                    <clip id="clip-2"/>
                  </angle>
                  <angle>
                    <activevideoangle>false</activevideoangle>
                    <activeaudioangle>false</activeaudioangle>
                    <clip id="clip-3"/>
                  </angle>
                  <angle>
                    <activevideoangle>false</activevideoangle>
                    <activeaudioangle>false</activeaudioangle>
                    <clip id="clip-4"/>
                  </angle>
                  <angle>
                    <activevideoangle>false</activevideoangle>
                    <activeaudioangle>false</activeaudioangle>
                    <clip id="clip-5"/>
                  </angle>
                  <angle>
                    <activevideoangle>false</activevideoangle>
                    <activeaudioangle>false</activeaudioangle>
                    <clip id="clip-6"/>
                  </angle>
                  <angle>
                    <activevideoangle>false</activevideoangle>
                    <activeaudioangle>false</activeaudioangle>
                    <clip id="clip-7"/>
                  </angle>
                  <masterclipid>clip-master</masterclipid>
                </multiclip>
              </clipitem>
              <clipitem id="cs-1183">
                <duration>282</duration>
                <rate>
                  <ntsc>false</ntsc>
                  <timebase>25</timebase>
                </rate>
                <in>111137</in>
                <out>111418</out>
                <start>111137</start>
                <end>111418</end>
                <file id="src-3"/>
                <sourcetrack>
                  <mediatype>video</mediatype>
                  <trackindex>1</trackindex>
                </sourcetrack>
                <multiclip id="mcs-1183">
                  <name>MCS-1183</name>
                  <masterclipid>clip-master</masterclipid>
                  <collapsed>false</collapsed>
                  <angle>
                    <activevideoangle>false</activevideoangle>
                    <activeaudioangle>false</activeaudioangle>
                    <clip id="clip-1"/>
                  </angle>
                  <angle>
                    <activevideoangle>false</activevideoangle>
                    <activeaudioangle>false</activeaudioangle>
                    <clip id="clip-2"/>
                  </angle>
                  <angle>
                    <activevideoangle>true</activevideoangle>
                    <activeaudioangle>true</activeaudioangle>
                    <clip id="clip-3"/>
                  </angle>
                  <angle>
                    <activevideoangle>false</activevideoangle>
                    <activeaudioangle>false</activeaudioangle>
                    <clip id="clip-4"/>
                  </angle>
                  <angle>
                    <activevideoangle>false</activevideoangle>
                    <activeaudioangle>false</activeaudioangle>
                    <clip id="clip-5"/>
                  </angle>
                  <angle>
                    <activevideoangle>false</activevideoangle>
                    <activeaudioangle>false</activeaudioangle>
                    <clip id="clip-6"/>
                  </angle>
                  <angle>
                    <activevideoangle>false</activevideoangle>
                    <activeaudioangle>false</activeaudioangle>
                    <clip id="clip-7"/>
                  </angle>
                  <masterclipid>clip-master</masterclipid>
                </multiclip>
              </clipitem>
              <clipitem id="cs-1184">
                <duration>85</duration>
                <rate>
                  <ntsc>false</ntsc>
                  <timebase>25</timebase>
                </rate>
                <in>111418</in>
                <out>111502</out>
                <start>111418</start>
                <end>111502</end>
                <file id="src-1"/>
                <sourcetrack>
                  <mediatype>video</mediatype>
                  <trackindex>1</trackindex>
                </sourcetrack>
                <multiclip id="mcs-1184">
                  <name>MCS-1184</name>
                  <masterclipid>clip-master</masterclipid>
                  <collapsed>false</collapsed>
                  <angle>
                    <activevideoangle>true</activevideoangle>
                    <activeaudioangle>true</activeaudioangle>
                    <clip id="clip-1"/>
                  </angle>
                  <angle>
                    <activevideoangle>false</activevideoangle>
                    <activeaudioangle>false</activeaudioangle>
                    <clip id="clip-2"/>
                  </angle>
                  <angle>
                    <activevideoangle>false</activevideoangle>
                    <activeaudioangle>false</activeaudioangle>
                    <clip id="clip-3"/>
                  </angle>
                  <angle>
                    <activevideoangle>false</activevideoangle>
                    <activeaudioangle>false</activeaudioangle>
                    <clip id="clip-4"/>
                  </angle>
                  <angle>
                    <activevideoangle>false</activevideoangle>
                    <activeaudioangle>false</activeaudioangle>
                    <clip id="clip-5"/>
                  </angle>
                  <angle>
                    <activevideoangle>false</activevideoangle>
                    <activeaudioangle>false</activeaudioangle>
                    <clip id="clip-6"/>
                  </angle>
                  <angle>
                    <activevideoangle>false</activevideoangle>
                    <activeaudioangle>false</activeaudioangle>
                    <clip id="clip-7"/>
                  </angle>
                  <masterclipid>clip-master</masterclipid>
                </multiclip>
              </clipitem>
              <clipitem id="cs-1185">
                <duration>170</duration>
                <rate>
                  <ntsc>false</ntsc>
                  <timebase>25</timebase>
                </rate>
                <in>111502</in>
                <out>111671</out>
                <start>111502</start>
                <end>111671</end>
                <file id="src-6"/>
                <sourcetrack>
                  <mediatype>video</mediatype>
                  <trackindex>1</trackindex>
                </sourcetrack>
                <multiclip id="mcs-1185">
                  <name>MCS-1185</name>
                  <masterclipid>clip-master</masterclipid>
                  <collapsed>false</collapsed>
                  <angle>
                    <activevideoangle>false</activevideoangle>
                    <activeaudioangle>false</activeaudioangle>
                    <clip id="clip-1"/>
                  </angle>
                  <angle>
                    <activevideoangle>false</activevideoangle>
                    <activeaudioangle>false</activeaudioangle>
                    <clip id="clip-2"/>
                  </angle>
                  <angle>
                    <activevideoangle>false</activevideoangle>
                    <activeaudioangle>false</activeaudioangle>
                    <clip id="clip-3"/>
                  </angle>
                  <angle>
                    <activevideoangle>false</activevideoangle>
                    <activeaudioangle>false</activeaudioangle>
                    <clip id="clip-4"/>
                  </angle>
                  <angle>
                    <activevideoangle>false</activevideoangle>
                    <activeaudioangle>false</activeaudioangle>
                    <clip id="clip-5"/>
                  </angle>
                  <angle>
                    <activevideoangle>true</activevideoangle>
                    <activeaudioangle>true</activeaudioangle>
                    <clip id="clip-6"/>
                  </angle>
                  <angle>
                    <activevideoangle>false</activevideoangle>
                    <activeaudioangle>false</activeaudioangle>
                    <clip id="clip-7"/>
                  </angle>
                  <masterclipid>clip-master</masterclipid>
                </multiclip>
              </clipitem>
              <clipitem id="cs-1186">
                <duration>238</duration>
                <rate>
                  <ntsc>false</ntsc>
                  <timebase>25</timebase>
                </rate>
                <in>111671</in>
                <out>111908</out>
                <start>111671</start>
                <end>111908</end>
                <file id="src-2"/>
                <sourcetrack>
                  <mediatype>video</mediatype>
                  <trackindex>1</trackindex>
                </sourcetrack>
                <multiclip id="mcs-1186">
                  <name>MCS-1186</name>
                  <masterclipid>clip-master</masterclipid>
                  <collapsed>false</collapsed>
                  <angle>
                    <activevideoangle>false</activevideoangle>
                    <activeaudioangle>false</activeaudioangle>
                    <clip id="clip-1"/>
                  </angle>
                  <angle>
                    <activevideoangle>true</activevideoangle>
                    <activeaudioangle>true</activeaudioangle>
                    <clip id="clip-2"/>
                  </angle>
                  <angle>
                    <activevideoangle>false</activevideoangle>
                    <activeaudioangle>false</activeaudioangle>
                    <clip id="clip-3"/>
                  </angle>
                  <angle>
                    <activevideoangle>false</activevideoangle>
                    <activeaudioangle>false</activeaudioangle>
                    <clip id="clip-4"/>
                  </angle>
                  <angle>
                    <activevideoangle>false</activevideoangle>
                    <activeaudioangle>false</activeaudioangle>
                    <clip id="clip-5"/>
                  </angle>
                  <angle>
                    <activevideoangle>false</activevideoangle>
                    <activeaudioangle>false</activeaudioangle>
                    <clip id="clip-6"/>
                  </angle>
                  <angle>
                    <activevideoangle>false</activevideoangle>
                    <activeaudioangle>false</activeaudioangle>
                    <clip id="clip-7"/>
                  </angle>
                  <masterclipid>clip-master</masterclipid>
                </multiclip>
              </clipitem>
              <clipitem id="cs-1187">
                <duration>146</duration>
                <rate>
                  <ntsc>false</ntsc>
                  <timebase>25</timebase>
                </rate>
                <in>111908</in>
                <out>112053</out>
                <start>111908</start>
                <end>112053</end>
                <file id="src-5"/>
                <sourcetrack>
                  <mediatype>video</mediatype>
                  <trackindex>1</trackindex>
                </sourcetrack>
                <multiclip id="mcs-1187">
                  <name>MCS-1187</name>
                  <masterclipid>clip-master</masterclipid>
                  <collapsed>false</collapsed>
                  <angle>
                    <activevideoangle>false</activevideoangle>
                    <activeaudioangle>false</activeaudioangle>
                    <clip id="clip-1"/>
                  </angle>
                  <angle>
                    <activevideoangle>false</activevideoangle>
                    <activeaudioangle>false</activeaudioangle>
                    <clip id="clip-2"/>
                  </angle>
                  <angle>
                    <activevideoangle>false</activevideoangle>
                    <activeaudioangle>false</activeaudioangle>
                    <clip id="clip-3"/>
                  </angle>
                  <angle>
                    <activevideoangle>false</activevideoangle>
                    <activeaudioangle>false</activeaudioangle>
                    <clip id="clip-4"/>
                  </angle>
                  <angle>
                    <activevideoangle>true</activevideoangle>
                    <activeaudioangle>true</activeaudioangle>
                    <clip id="clip-5"/>
                  </angle>
                  <angle>
                    <activevideoangle>false</activevideoangle>
                    <activeaudioangle>false</activeaudioangle>
                    <clip id="clip-6"/>
                  </angle>
                  <angle>
                    <activevideoangle>false</activevideoangle>
                    <activeaudioangle>false</activeaudioangle>
                    <clip id="clip-7"/>
                  </angle>
                  <masterclipid>clip-master</masterclipid>
                </multiclip>
              </clipitem>
              <clipitem id="cs-1188">
                <duration>94</duration>
                <rate>
                  <ntsc>false</ntsc>
                  <timebase>25</timebase>
                </rate>
                <in>112053</in>
                <out>112146</out>
                <start>112053</start>
                <end>112146</end>
                <file id="src-1"/>
                <sourcetrack>
                  <mediatype>video</mediatype>
                  <trackindex>1</trackindex>
                </sourcetrack>
                <multiclip id="mcs-1188">
                  <name>MCS-1188</name>
                  <masterclipid>clip-master</masterclipid>
                  <collapsed>false</collapsed>
                  <angle>
                    <activevideoangle>true</activevideoangle>
                    <activeaudioangle>true</activeaudioangle>
                    <clip id="clip-1"/>
                  </angle>
                  <angle>
                    <activevideoangle>false</activevideoangle>
                    <activeaudioangle>false</activeaudioangle>
                    <clip id="clip-2"/>
                  </angle>
                  <angle>
                    <activevideoangle>false</activevideoangle>
                    <activeaudioangle>false</activeaudioangle>
                    <clip id="clip-3"/>
                  </angle>
                  <angle>
                    <activevideoangle>false</activevideoangle>
                    <activeaudioangle>false</activeaudioangle>
                    <clip id="clip-4"/>
                  </angle>
                  <angle>
                    <activevideoangle>false</activevideoangle>
                    <activeaudioangle>false</activeaudioangle>
                    <clip id="clip-5"/>
                  </angle>
                  <angle>
                    <activevideoangle>false</activevideoangle>
                    <activeaudioangle>false</activeaudioangle>
                    <clip id="clip-6"/>
                  </angle>
                  <angle>
                    <activevideoangle>false</activevideoangle>
                    <activeaudioangle>false</activeaudioangle>
                    <clip id="clip-7"/>
                  </angle>
                  <masterclipid>clip-master</masterclipid>
                </multiclip>
              </clipitem>
              <clipitem id="cs-1189">
                <duration>481</duration>
                <rate>
                  <ntsc>false</ntsc>
                  <timebase>25</timebase>
                </rate>
                <in>112146</in>
                <out>112626</out>
                <start>112146</start>
                <end>112626</end>
                <file id="src-2"/>
                <sourcetrack>
                  <mediatype>video</mediatype>
                  <trackindex>1</trackindex>
                </sourcetrack>
                <multiclip id="mcs-1189">
                  <name>MCS-1189</name>
                  <masterclipid>clip-master</masterclipid>
                  <collapsed>false</collapsed>
                  <angle>
                    <activevideoangle>false</activevideoangle>
                    <activeaudioangle>false</activeaudioangle>
                    <clip id="clip-1"/>
                  </angle>
                  <angle>
                    <activevideoangle>true</activevideoangle>
                    <activeaudioangle>true</activeaudioangle>
                    <clip id="clip-2"/>
                  </angle>
                  <angle>
                    <activevideoangle>false</activevideoangle>
                    <activeaudioangle>false</activeaudioangle>
                    <clip id="clip-3"/>
                  </angle>
                  <angle>
                    <activevideoangle>false</activevideoangle>
                    <activeaudioangle>false</activeaudioangle>
                    <clip id="clip-4"/>
                  </angle>
                  <angle>
                    <activevideoangle>false</activevideoangle>
                    <activeaudioangle>false</activeaudioangle>
                    <clip id="clip-5"/>
                  </angle>
                  <angle>
                    <activevideoangle>false</activevideoangle>
                    <activeaudioangle>false</activeaudioangle>
                    <clip id="clip-6"/>
                  </angle>
                  <angle>
                    <activevideoangle>false</activevideoangle>
                    <activeaudioangle>false</activeaudioangle>
                    <clip id="clip-7"/>
                  </angle>
                  <masterclipid>clip-master</masterclipid>
                </multiclip>
              </clipitem>
              <clipitem id="cs-1190">
                <duration>247</duration>
                <rate>
                  <ntsc>false</ntsc>
                  <timebase>25</timebase>
                </rate>
                <in>112626</in>
                <out>112872</out>
                <start>112626</start>
                <end>112872</end>
                <file id="src-3"/>
                <sourcetrack>
                  <mediatype>video</mediatype>
                  <trackindex>1</trackindex>
                </sourcetrack>
                <multiclip id="mcs-1190">
                  <name>MCS-1190</name>
                  <masterclipid>clip-master</masterclipid>
                  <collapsed>false</collapsed>
                  <angle>
                    <activevideoangle>false</activevideoangle>
                    <activeaudioangle>false</activeaudioangle>
                    <clip id="clip-1"/>
                  </angle>
                  <angle>
                    <activevideoangle>false</activevideoangle>
                    <activeaudioangle>false</activeaudioangle>
                    <clip id="clip-2"/>
                  </angle>
                  <angle>
                    <activevideoangle>true</activevideoangle>
                    <activeaudioangle>true</activeaudioangle>
                    <clip id="clip-3"/>
                  </angle>
                  <angle>
                    <activevideoangle>false</activevideoangle>
                    <activeaudioangle>false</activeaudioangle>
                    <clip id="clip-4"/>
                  </angle>
                  <angle>
                    <activevideoangle>false</activevideoangle>
                    <activeaudioangle>false</activeaudioangle>
                    <clip id="clip-5"/>
                  </angle>
                  <angle>
                    <activevideoangle>false</activevideoangle>
                    <activeaudioangle>false</activeaudioangle>
                    <clip id="clip-6"/>
                  </angle>
                  <angle>
                    <activevideoangle>false</activevideoangle>
                    <activeaudioangle>false</activeaudioangle>
                    <clip id="clip-7"/>
                  </angle>
                  <masterclipid>clip-master</masterclipid>
                </multiclip>
              </clipitem>
              <clipitem id="cs-1191">
                <duration>141</duration>
                <rate>
                  <ntsc>false</ntsc>
                  <timebase>25</timebase>
                </rate>
                <in>112872</in>
                <out>113012</out>
                <start>112872</start>
                <end>113012</end>
                <file id="src-5"/>
                <sourcetrack>
                  <mediatype>video</mediatype>
                  <trackindex>1</trackindex>
                </sourcetrack>
                <multiclip id="mcs-1191">
                  <name>MCS-1191</name>
                  <masterclipid>clip-master</masterclipid>
                  <collapsed>false</collapsed>
                  <angle>
                    <activevideoangle>false</activevideoangle>
                    <activeaudioangle>false</activeaudioangle>
                    <clip id="clip-1"/>
                  </angle>
                  <angle>
                    <activevideoangle>false</activevideoangle>
                    <activeaudioangle>false</activeaudioangle>
                    <clip id="clip-2"/>
                  </angle>
                  <angle>
                    <activevideoangle>false</activevideoangle>
                    <activeaudioangle>false</activeaudioangle>
                    <clip id="clip-3"/>
                  </angle>
                  <angle>
                    <activevideoangle>false</activevideoangle>
                    <activeaudioangle>false</activeaudioangle>
                    <clip id="clip-4"/>
                  </angle>
                  <angle>
                    <activevideoangle>true</activevideoangle>
                    <activeaudioangle>true</activeaudioangle>
                    <clip id="clip-5"/>
                  </angle>
                  <angle>
                    <activevideoangle>false</activevideoangle>
                    <activeaudioangle>false</activeaudioangle>
                    <clip id="clip-6"/>
                  </angle>
                  <angle>
                    <activevideoangle>false</activevideoangle>
                    <activeaudioangle>false</activeaudioangle>
                    <clip id="clip-7"/>
                  </angle>
                  <masterclipid>clip-master</masterclipid>
                </multiclip>
              </clipitem>
              <clipitem id="cs-1192">
                <duration>399</duration>
                <rate>
                  <ntsc>false</ntsc>
                  <timebase>25</timebase>
                </rate>
                <in>113012</in>
                <out>113410</out>
                <start>113012</start>
                <end>113410</end>
                <file id="src-2"/>
                <sourcetrack>
                  <mediatype>video</mediatype>
                  <trackindex>1</trackindex>
                </sourcetrack>
                <multiclip id="mcs-1192">
                  <name>MCS-1192</name>
                  <masterclipid>clip-master</masterclipid>
                  <collapsed>false</collapsed>
                  <angle>
                    <activevideoangle>false</activevideoangle>
                    <activeaudioangle>false</activeaudioangle>
                    <clip id="clip-1"/>
                  </angle>
                  <angle>
                    <activevideoangle>true</activevideoangle>
                    <activeaudioangle>true</activeaudioangle>
                    <clip id="clip-2"/>
                  </angle>
                  <angle>
                    <activevideoangle>false</activevideoangle>
                    <activeaudioangle>false</activeaudioangle>
                    <clip id="clip-3"/>
                  </angle>
                  <angle>
                    <activevideoangle>false</activevideoangle>
                    <activeaudioangle>false</activeaudioangle>
                    <clip id="clip-4"/>
                  </angle>
                  <angle>
                    <activevideoangle>false</activevideoangle>
                    <activeaudioangle>false</activeaudioangle>
                    <clip id="clip-5"/>
                  </angle>
                  <angle>
                    <activevideoangle>false</activevideoangle>
                    <activeaudioangle>false</activeaudioangle>
                    <clip id="clip-6"/>
                  </angle>
                  <angle>
                    <activevideoangle>false</activevideoangle>
                    <activeaudioangle>false</activeaudioangle>
                    <clip id="clip-7"/>
                  </angle>
                  <masterclipid>clip-master</masterclipid>
                </multiclip>
              </clipitem>
              <clipitem id="cs-1193">
                <duration>158</duration>
                <rate>
                  <ntsc>false</ntsc>
                  <timebase>25</timebase>
                </rate>
                <in>113410</in>
                <out>113567</out>
                <start>113410</start>
                <end>113567</end>
                <file id="src-3"/>
                <sourcetrack>
                  <mediatype>video</mediatype>
                  <trackindex>1</trackindex>
                </sourcetrack>
                <multiclip id="mcs-1193">
                  <name>MCS-1193</name>
                  <masterclipid>clip-master</masterclipid>
                  <collapsed>false</collapsed>
                  <angle>
                    <activevideoangle>false</activevideoangle>
                    <activeaudioangle>false</activeaudioangle>
                    <clip id="clip-1"/>
                  </angle>
                  <angle>
                    <activevideoangle>false</activevideoangle>
                    <activeaudioangle>false</activeaudioangle>
                    <clip id="clip-2"/>
                  </angle>
                  <angle>
                    <activevideoangle>true</activevideoangle>
                    <activeaudioangle>true</activeaudioangle>
                    <clip id="clip-3"/>
                  </angle>
                  <angle>
                    <activevideoangle>false</activevideoangle>
                    <activeaudioangle>false</activeaudioangle>
                    <clip id="clip-4"/>
                  </angle>
                  <angle>
                    <activevideoangle>false</activevideoangle>
                    <activeaudioangle>false</activeaudioangle>
                    <clip id="clip-5"/>
                  </angle>
                  <angle>
                    <activevideoangle>false</activevideoangle>
                    <activeaudioangle>false</activeaudioangle>
                    <clip id="clip-6"/>
                  </angle>
                  <angle>
                    <activevideoangle>false</activevideoangle>
                    <activeaudioangle>false</activeaudioangle>
                    <clip id="clip-7"/>
                  </angle>
                  <masterclipid>clip-master</masterclipid>
                </multiclip>
              </clipitem>
              <clipitem id="cs-1194">
                <duration>122</duration>
                <rate>
                  <ntsc>false</ntsc>
                  <timebase>25</timebase>
                </rate>
                <in>113567</in>
                <out>113688</out>
                <start>113567</start>
                <end>113688</end>
                <file id="src-4"/>
                <sourcetrack>
                  <mediatype>video</mediatype>
                  <trackindex>1</trackindex>
                </sourcetrack>
                <multiclip id="mcs-1194">
                  <name>MCS-1194</name>
                  <masterclipid>clip-master</masterclipid>
                  <collapsed>false</collapsed>
                  <angle>
                    <activevideoangle>false</activevideoangle>
                    <activeaudioangle>false</activeaudioangle>
                    <clip id="clip-1"/>
                  </angle>
                  <angle>
                    <activevideoangle>false</activevideoangle>
                    <activeaudioangle>false</activeaudioangle>
                    <clip id="clip-2"/>
                  </angle>
                  <angle>
                    <activevideoangle>false</activevideoangle>
                    <activeaudioangle>false</activeaudioangle>
                    <clip id="clip-3"/>
                  </angle>
                  <angle>
                    <activevideoangle>true</activevideoangle>
                    <activeaudioangle>true</activeaudioangle>
                    <clip id="clip-4"/>
                  </angle>
                  <angle>
                    <activevideoangle>false</activevideoangle>
                    <activeaudioangle>false</activeaudioangle>
                    <clip id="clip-5"/>
                  </angle>
                  <angle>
                    <activevideoangle>false</activevideoangle>
                    <activeaudioangle>false</activeaudioangle>
                    <clip id="clip-6"/>
                  </angle>
                  <angle>
                    <activevideoangle>false</activevideoangle>
                    <activeaudioangle>false</activeaudioangle>
                    <clip id="clip-7"/>
                  </angle>
                  <masterclipid>clip-master</masterclipid>
                </multiclip>
              </clipitem>
              <clipitem id="cs-1195">
                <duration>790</duration>
                <rate>
                  <ntsc>false</ntsc>
                  <timebase>25</timebase>
                </rate>
                <in>113688</in>
                <out>114477</out>
                <start>113688</start>
                <end>114477</end>
                <file id="src-1"/>
                <sourcetrack>
                  <mediatype>video</mediatype>
                  <trackindex>1</trackindex>
                </sourcetrack>
                <multiclip id="mcs-1195">
                  <name>MCS-1195</name>
                  <masterclipid>clip-master</masterclipid>
                  <collapsed>false</collapsed>
                  <angle>
                    <activevideoangle>true</activevideoangle>
                    <activeaudioangle>true</activeaudioangle>
                    <clip id="clip-1"/>
                  </angle>
                  <angle>
                    <activevideoangle>false</activevideoangle>
                    <activeaudioangle>false</activeaudioangle>
                    <clip id="clip-2"/>
                  </angle>
                  <angle>
                    <activevideoangle>false</activevideoangle>
                    <activeaudioangle>false</activeaudioangle>
                    <clip id="clip-3"/>
                  </angle>
                  <angle>
                    <activevideoangle>false</activevideoangle>
                    <activeaudioangle>false</activeaudioangle>
                    <clip id="clip-4"/>
                  </angle>
                  <angle>
                    <activevideoangle>false</activevideoangle>
                    <activeaudioangle>false</activeaudioangle>
                    <clip id="clip-5"/>
                  </angle>
                  <angle>
                    <activevideoangle>false</activevideoangle>
                    <activeaudioangle>false</activeaudioangle>
                    <clip id="clip-6"/>
                  </angle>
                  <angle>
                    <activevideoangle>false</activevideoangle>
                    <activeaudioangle>false</activeaudioangle>
                    <clip id="clip-7"/>
                  </angle>
                  <masterclipid>clip-master</masterclipid>
                </multiclip>
              </clipitem>
              <clipitem id="cs-1196">
                <duration>326</duration>
                <rate>
                  <ntsc>false</ntsc>
                  <timebase>25</timebase>
                </rate>
                <in>114477</in>
                <out>114802</out>
                <start>114477</start>
                <end>114802</end>
                <file id="src-2"/>
                <sourcetrack>
                  <mediatype>video</mediatype>
                  <trackindex>1</trackindex>
                </sourcetrack>
                <multiclip id="mcs-1196">
                  <name>MCS-1196</name>
                  <masterclipid>clip-master</masterclipid>
                  <collapsed>false</collapsed>
                  <angle>
                    <activevideoangle>false</activevideoangle>
                    <activeaudioangle>false</activeaudioangle>
                    <clip id="clip-1"/>
                  </angle>
                  <angle>
                    <activevideoangle>true</activevideoangle>
                    <activeaudioangle>true</activeaudioangle>
                    <clip id="clip-2"/>
                  </angle>
                  <angle>
                    <activevideoangle>false</activevideoangle>
                    <activeaudioangle>false</activeaudioangle>
                    <clip id="clip-3"/>
                  </angle>
                  <angle>
                    <activevideoangle>false</activevideoangle>
                    <activeaudioangle>false</activeaudioangle>
                    <clip id="clip-4"/>
                  </angle>
                  <angle>
                    <activevideoangle>false</activevideoangle>
                    <activeaudioangle>false</activeaudioangle>
                    <clip id="clip-5"/>
                  </angle>
                  <angle>
                    <activevideoangle>false</activevideoangle>
                    <activeaudioangle>false</activeaudioangle>
                    <clip id="clip-6"/>
                  </angle>
                  <angle>
                    <activevideoangle>false</activevideoangle>
                    <activeaudioangle>false</activeaudioangle>
                    <clip id="clip-7"/>
                  </angle>
                  <masterclipid>clip-master</masterclipid>
                </multiclip>
              </clipitem>
              <clipitem id="cs-1197">
                <duration>163</duration>
                <rate>
                  <ntsc>false</ntsc>
                  <timebase>25</timebase>
                </rate>
                <in>114802</in>
                <out>114964</out>
                <start>114802</start>
                <end>114964</end>
                <file id="src-3"/>
                <sourcetrack>
                  <mediatype>video</mediatype>
                  <trackindex>1</trackindex>
                </sourcetrack>
                <multiclip id="mcs-1197">
                  <name>MCS-1197</name>
                  <masterclipid>clip-master</masterclipid>
                  <collapsed>false</collapsed>
                  <angle>
                    <activevideoangle>false</activevideoangle>
                    <activeaudioangle>false</activeaudioangle>
                    <clip id="clip-1"/>
                  </angle>
                  <angle>
                    <activevideoangle>false</activevideoangle>
                    <activeaudioangle>false</activeaudioangle>
                    <clip id="clip-2"/>
                  </angle>
                  <angle>
                    <activevideoangle>true</activevideoangle>
                    <activeaudioangle>true</activeaudioangle>
                    <clip id="clip-3"/>
                  </angle>
                  <angle>
                    <activevideoangle>false</activevideoangle>
                    <activeaudioangle>false</activeaudioangle>
                    <clip id="clip-4"/>
                  </angle>
                  <angle>
                    <activevideoangle>false</activevideoangle>
                    <activeaudioangle>false</activeaudioangle>
                    <clip id="clip-5"/>
                  </angle>
                  <angle>
                    <activevideoangle>false</activevideoangle>
                    <activeaudioangle>false</activeaudioangle>
                    <clip id="clip-6"/>
                  </angle>
                  <angle>
                    <activevideoangle>false</activevideoangle>
                    <activeaudioangle>false</activeaudioangle>
                    <clip id="clip-7"/>
                  </angle>
                  <masterclipid>clip-master</masterclipid>
                </multiclip>
              </clipitem>
              <clipitem id="cs-1198">
                <duration>331</duration>
                <rate>
                  <ntsc>false</ntsc>
                  <timebase>25</timebase>
                </rate>
                <in>114964</in>
                <out>115294</out>
                <start>114964</start>
                <end>115294</end>
                <file id="src-2"/>
                <sourcetrack>
                  <mediatype>video</mediatype>
                  <trackindex>1</trackindex>
                </sourcetrack>
                <multiclip id="mcs-1198">
                  <name>MCS-1198</name>
                  <masterclipid>clip-master</masterclipid>
                  <collapsed>false</collapsed>
                  <angle>
                    <activevideoangle>false</activevideoangle>
                    <activeaudioangle>false</activeaudioangle>
                    <clip id="clip-1"/>
                  </angle>
                  <angle>
                    <activevideoangle>true</activevideoangle>
                    <activeaudioangle>true</activeaudioangle>
                    <clip id="clip-2"/>
                  </angle>
                  <angle>
                    <activevideoangle>false</activevideoangle>
                    <activeaudioangle>false</activeaudioangle>
                    <clip id="clip-3"/>
                  </angle>
                  <angle>
                    <activevideoangle>false</activevideoangle>
                    <activeaudioangle>false</activeaudioangle>
                    <clip id="clip-4"/>
                  </angle>
                  <angle>
                    <activevideoangle>false</activevideoangle>
                    <activeaudioangle>false</activeaudioangle>
                    <clip id="clip-5"/>
                  </angle>
                  <angle>
                    <activevideoangle>false</activevideoangle>
                    <activeaudioangle>false</activeaudioangle>
                    <clip id="clip-6"/>
                  </angle>
                  <angle>
                    <activevideoangle>false</activevideoangle>
                    <activeaudioangle>false</activeaudioangle>
                    <clip id="clip-7"/>
                  </angle>
                  <masterclipid>clip-master</masterclipid>
                </multiclip>
              </clipitem>
              <clipitem id="cs-1199">
                <duration>139</duration>
                <rate>
                  <ntsc>false</ntsc>
                  <timebase>25</timebase>
                </rate>
                <in>115294</in>
                <out>115432</out>
                <start>115294</start>
                <end>115432</end>
                <file id="src-3"/>
                <sourcetrack>
                  <mediatype>video</mediatype>
                  <trackindex>1</trackindex>
                </sourcetrack>
                <multiclip id="mcs-1199">
                  <name>MCS-1199</name>
                  <masterclipid>clip-master</masterclipid>
                  <collapsed>false</collapsed>
                  <angle>
                    <activevideoangle>false</activevideoangle>
                    <activeaudioangle>false</activeaudioangle>
                    <clip id="clip-1"/>
                  </angle>
                  <angle>
                    <activevideoangle>false</activevideoangle>
                    <activeaudioangle>false</activeaudioangle>
                    <clip id="clip-2"/>
                  </angle>
                  <angle>
                    <activevideoangle>true</activevideoangle>
                    <activeaudioangle>true</activeaudioangle>
                    <clip id="clip-3"/>
                  </angle>
                  <angle>
                    <activevideoangle>false</activevideoangle>
                    <activeaudioangle>false</activeaudioangle>
                    <clip id="clip-4"/>
                  </angle>
                  <angle>
                    <activevideoangle>false</activevideoangle>
                    <activeaudioangle>false</activeaudioangle>
                    <clip id="clip-5"/>
                  </angle>
                  <angle>
                    <activevideoangle>false</activevideoangle>
                    <activeaudioangle>false</activeaudioangle>
                    <clip id="clip-6"/>
                  </angle>
                  <angle>
                    <activevideoangle>false</activevideoangle>
                    <activeaudioangle>false</activeaudioangle>
                    <clip id="clip-7"/>
                  </angle>
                  <masterclipid>clip-master</masterclipid>
                </multiclip>
              </clipitem>
              <clipitem id="cs-1200">
                <duration>184</duration>
                <rate>
                  <ntsc>false</ntsc>
                  <timebase>25</timebase>
                </rate>
                <in>115432</in>
                <out>115615</out>
                <start>115432</start>
                <end>115615</end>
                <file id="src-4"/>
                <sourcetrack>
                  <mediatype>video</mediatype>
                  <trackindex>1</trackindex>
                </sourcetrack>
                <multiclip id="mcs-1200">
                  <name>MCS-1200</name>
                  <masterclipid>clip-master</masterclipid>
                  <collapsed>false</collapsed>
                  <angle>
                    <activevideoangle>false</activevideoangle>
                    <activeaudioangle>false</activeaudioangle>
                    <clip id="clip-1"/>
                  </angle>
                  <angle>
                    <activevideoangle>false</activevideoangle>
                    <activeaudioangle>false</activeaudioangle>
                    <clip id="clip-2"/>
                  </angle>
                  <angle>
                    <activevideoangle>false</activevideoangle>
                    <activeaudioangle>false</activeaudioangle>
                    <clip id="clip-3"/>
                  </angle>
                  <angle>
                    <activevideoangle>true</activevideoangle>
                    <activeaudioangle>true</activeaudioangle>
                    <clip id="clip-4"/>
                  </angle>
                  <angle>
                    <activevideoangle>false</activevideoangle>
                    <activeaudioangle>false</activeaudioangle>
                    <clip id="clip-5"/>
                  </angle>
                  <angle>
                    <activevideoangle>false</activevideoangle>
                    <activeaudioangle>false</activeaudioangle>
                    <clip id="clip-6"/>
                  </angle>
                  <angle>
                    <activevideoangle>false</activevideoangle>
                    <activeaudioangle>false</activeaudioangle>
                    <clip id="clip-7"/>
                  </angle>
                  <masterclipid>clip-master</masterclipid>
                </multiclip>
              </clipitem>
              <clipitem id="cs-1201">
                <duration>140</duration>
                <rate>
                  <ntsc>false</ntsc>
                  <timebase>25</timebase>
                </rate>
                <in>115615</in>
                <out>115754</out>
                <start>115615</start>
                <end>115754</end>
                <file id="src-5"/>
                <sourcetrack>
                  <mediatype>video</mediatype>
                  <trackindex>1</trackindex>
                </sourcetrack>
                <multiclip id="mcs-1201">
                  <name>MCS-1201</name>
                  <masterclipid>clip-master</masterclipid>
                  <collapsed>false</collapsed>
                  <angle>
                    <activevideoangle>false</activevideoangle>
                    <activeaudioangle>false</activeaudioangle>
                    <clip id="clip-1"/>
                  </angle>
                  <angle>
                    <activevideoangle>false</activevideoangle>
                    <activeaudioangle>false</activeaudioangle>
                    <clip id="clip-2"/>
                  </angle>
                  <angle>
                    <activevideoangle>false</activevideoangle>
                    <activeaudioangle>false</activeaudioangle>
                    <clip id="clip-3"/>
                  </angle>
                  <angle>
                    <activevideoangle>false</activevideoangle>
                    <activeaudioangle>false</activeaudioangle>
                    <clip id="clip-4"/>
                  </angle>
                  <angle>
                    <activevideoangle>true</activevideoangle>
                    <activeaudioangle>true</activeaudioangle>
                    <clip id="clip-5"/>
                  </angle>
                  <angle>
                    <activevideoangle>false</activevideoangle>
                    <activeaudioangle>false</activeaudioangle>
                    <clip id="clip-6"/>
                  </angle>
                  <angle>
                    <activevideoangle>false</activevideoangle>
                    <activeaudioangle>false</activeaudioangle>
                    <clip id="clip-7"/>
                  </angle>
                  <masterclipid>clip-master</masterclipid>
                </multiclip>
              </clipitem>
              <clipitem id="cs-1202">
                <duration>153</duration>
                <rate>
                  <ntsc>false</ntsc>
                  <timebase>25</timebase>
                </rate>
                <in>115754</in>
                <out>115906</out>
                <start>115754</start>
                <end>115906</end>
                <file id="src-3"/>
                <sourcetrack>
                  <mediatype>video</mediatype>
                  <trackindex>1</trackindex>
                </sourcetrack>
                <multiclip id="mcs-1202">
                  <name>MCS-1202</name>
                  <masterclipid>clip-master</masterclipid>
                  <collapsed>false</collapsed>
                  <angle>
                    <activevideoangle>false</activevideoangle>
                    <activeaudioangle>false</activeaudioangle>
                    <clip id="clip-1"/>
                  </angle>
                  <angle>
                    <activevideoangle>false</activevideoangle>
                    <activeaudioangle>false</activeaudioangle>
                    <clip id="clip-2"/>
                  </angle>
                  <angle>
                    <activevideoangle>true</activevideoangle>
                    <activeaudioangle>true</activeaudioangle>
                    <clip id="clip-3"/>
                  </angle>
                  <angle>
                    <activevideoangle>false</activevideoangle>
                    <activeaudioangle>false</activeaudioangle>
                    <clip id="clip-4"/>
                  </angle>
                  <angle>
                    <activevideoangle>false</activevideoangle>
                    <activeaudioangle>false</activeaudioangle>
                    <clip id="clip-5"/>
                  </angle>
                  <angle>
                    <activevideoangle>false</activevideoangle>
                    <activeaudioangle>false</activeaudioangle>
                    <clip id="clip-6"/>
                  </angle>
                  <angle>
                    <activevideoangle>false</activevideoangle>
                    <activeaudioangle>false</activeaudioangle>
                    <clip id="clip-7"/>
                  </angle>
                  <masterclipid>clip-master</masterclipid>
                </multiclip>
              </clipitem>
              <clipitem id="cs-1203">
                <duration>160</duration>
                <rate>
                  <ntsc>false</ntsc>
                  <timebase>25</timebase>
                </rate>
                <in>115906</in>
                <out>116065</out>
                <start>115906</start>
                <end>116065</end>
                <file id="src-4"/>
                <sourcetrack>
                  <mediatype>video</mediatype>
                  <trackindex>1</trackindex>
                </sourcetrack>
                <multiclip id="mcs-1203">
                  <name>MCS-1203</name>
                  <masterclipid>clip-master</masterclipid>
                  <collapsed>false</collapsed>
                  <angle>
                    <activevideoangle>false</activevideoangle>
                    <activeaudioangle>false</activeaudioangle>
                    <clip id="clip-1"/>
                  </angle>
                  <angle>
                    <activevideoangle>false</activevideoangle>
                    <activeaudioangle>false</activeaudioangle>
                    <clip id="clip-2"/>
                  </angle>
                  <angle>
                    <activevideoangle>false</activevideoangle>
                    <activeaudioangle>false</activeaudioangle>
                    <clip id="clip-3"/>
                  </angle>
                  <angle>
                    <activevideoangle>true</activevideoangle>
                    <activeaudioangle>true</activeaudioangle>
                    <clip id="clip-4"/>
                  </angle>
                  <angle>
                    <activevideoangle>false</activevideoangle>
                    <activeaudioangle>false</activeaudioangle>
                    <clip id="clip-5"/>
                  </angle>
                  <angle>
                    <activevideoangle>false</activevideoangle>
                    <activeaudioangle>false</activeaudioangle>
                    <clip id="clip-6"/>
                  </angle>
                  <angle>
                    <activevideoangle>false</activevideoangle>
                    <activeaudioangle>false</activeaudioangle>
                    <clip id="clip-7"/>
                  </angle>
                  <masterclipid>clip-master</masterclipid>
                </multiclip>
              </clipitem>
              <clipitem id="cs-1204">
                <duration>218</duration>
                <rate>
                  <ntsc>false</ntsc>
                  <timebase>25</timebase>
                </rate>
                <in>116065</in>
                <out>116282</out>
                <start>116065</start>
                <end>116282</end>
                <file id="src-6"/>
                <sourcetrack>
                  <mediatype>video</mediatype>
                  <trackindex>1</trackindex>
                </sourcetrack>
                <multiclip id="mcs-1204">
                  <name>MCS-1204</name>
                  <masterclipid>clip-master</masterclipid>
                  <collapsed>false</collapsed>
                  <angle>
                    <activevideoangle>false</activevideoangle>
                    <activeaudioangle>false</activeaudioangle>
                    <clip id="clip-1"/>
                  </angle>
                  <angle>
                    <activevideoangle>false</activevideoangle>
                    <activeaudioangle>false</activeaudioangle>
                    <clip id="clip-2"/>
                  </angle>
                  <angle>
                    <activevideoangle>false</activevideoangle>
                    <activeaudioangle>false</activeaudioangle>
                    <clip id="clip-3"/>
                  </angle>
                  <angle>
                    <activevideoangle>false</activevideoangle>
                    <activeaudioangle>false</activeaudioangle>
                    <clip id="clip-4"/>
                  </angle>
                  <angle>
                    <activevideoangle>false</activevideoangle>
                    <activeaudioangle>false</activeaudioangle>
                    <clip id="clip-5"/>
                  </angle>
                  <angle>
                    <activevideoangle>true</activevideoangle>
                    <activeaudioangle>true</activeaudioangle>
                    <clip id="clip-6"/>
                  </angle>
                  <angle>
                    <activevideoangle>false</activevideoangle>
                    <activeaudioangle>false</activeaudioangle>
                    <clip id="clip-7"/>
                  </angle>
                  <masterclipid>clip-master</masterclipid>
                </multiclip>
              </clipitem>
              <clipitem id="cs-1205">
                <duration>358</duration>
                <rate>
                  <ntsc>false</ntsc>
                  <timebase>25</timebase>
                </rate>
                <in>116282</in>
                <out>116639</out>
                <start>116282</start>
                <end>116639</end>
                <file id="src-3"/>
                <sourcetrack>
                  <mediatype>video</mediatype>
                  <trackindex>1</trackindex>
                </sourcetrack>
                <multiclip id="mcs-1205">
                  <name>MCS-1205</name>
                  <masterclipid>clip-master</masterclipid>
                  <collapsed>false</collapsed>
                  <angle>
                    <activevideoangle>false</activevideoangle>
                    <activeaudioangle>false</activeaudioangle>
                    <clip id="clip-1"/>
                  </angle>
                  <angle>
                    <activevideoangle>false</activevideoangle>
                    <activeaudioangle>false</activeaudioangle>
                    <clip id="clip-2"/>
                  </angle>
                  <angle>
                    <activevideoangle>true</activevideoangle>
                    <activeaudioangle>true</activeaudioangle>
                    <clip id="clip-3"/>
                  </angle>
                  <angle>
                    <activevideoangle>false</activevideoangle>
                    <activeaudioangle>false</activeaudioangle>
                    <clip id="clip-4"/>
                  </angle>
                  <angle>
                    <activevideoangle>false</activevideoangle>
                    <activeaudioangle>false</activeaudioangle>
                    <clip id="clip-5"/>
                  </angle>
                  <angle>
                    <activevideoangle>false</activevideoangle>
                    <activeaudioangle>false</activeaudioangle>
                    <clip id="clip-6"/>
                  </angle>
                  <angle>
                    <activevideoangle>false</activevideoangle>
                    <activeaudioangle>false</activeaudioangle>
                    <clip id="clip-7"/>
                  </angle>
                  <masterclipid>clip-master</masterclipid>
                </multiclip>
              </clipitem>
              <clipitem id="cs-1206">
                <duration>257</duration>
                <rate>
                  <ntsc>false</ntsc>
                  <timebase>25</timebase>
                </rate>
                <in>116639</in>
                <out>116895</out>
                <start>116639</start>
                <end>116895</end>
                <file id="src-2"/>
                <sourcetrack>
                  <mediatype>video</mediatype>
                  <trackindex>1</trackindex>
                </sourcetrack>
                <multiclip id="mcs-1206">
                  <name>MCS-1206</name>
                  <masterclipid>clip-master</masterclipid>
                  <collapsed>false</collapsed>
                  <angle>
                    <activevideoangle>false</activevideoangle>
                    <activeaudioangle>false</activeaudioangle>
                    <clip id="clip-1"/>
                  </angle>
                  <angle>
                    <activevideoangle>true</activevideoangle>
                    <activeaudioangle>true</activeaudioangle>
                    <clip id="clip-2"/>
                  </angle>
                  <angle>
                    <activevideoangle>false</activevideoangle>
                    <activeaudioangle>false</activeaudioangle>
                    <clip id="clip-3"/>
                  </angle>
                  <angle>
                    <activevideoangle>false</activevideoangle>
                    <activeaudioangle>false</activeaudioangle>
                    <clip id="clip-4"/>
                  </angle>
                  <angle>
                    <activevideoangle>false</activevideoangle>
                    <activeaudioangle>false</activeaudioangle>
                    <clip id="clip-5"/>
                  </angle>
                  <angle>
                    <activevideoangle>false</activevideoangle>
                    <activeaudioangle>false</activeaudioangle>
                    <clip id="clip-6"/>
                  </angle>
                  <angle>
                    <activevideoangle>false</activevideoangle>
                    <activeaudioangle>false</activeaudioangle>
                    <clip id="clip-7"/>
                  </angle>
                  <masterclipid>clip-master</masterclipid>
                </multiclip>
              </clipitem>
              <clipitem id="cs-1207">
                <duration>180</duration>
                <rate>
                  <ntsc>false</ntsc>
                  <timebase>25</timebase>
                </rate>
                <in>116895</in>
                <out>117074</out>
                <start>116895</start>
                <end>117074</end>
                <file id="src-6"/>
                <sourcetrack>
                  <mediatype>video</mediatype>
                  <trackindex>1</trackindex>
                </sourcetrack>
                <multiclip id="mcs-1207">
                  <name>MCS-1207</name>
                  <masterclipid>clip-master</masterclipid>
                  <collapsed>false</collapsed>
                  <angle>
                    <activevideoangle>false</activevideoangle>
                    <activeaudioangle>false</activeaudioangle>
                    <clip id="clip-1"/>
                  </angle>
                  <angle>
                    <activevideoangle>false</activevideoangle>
                    <activeaudioangle>false</activeaudioangle>
                    <clip id="clip-2"/>
                  </angle>
                  <angle>
                    <activevideoangle>false</activevideoangle>
                    <activeaudioangle>false</activeaudioangle>
                    <clip id="clip-3"/>
                  </angle>
                  <angle>
                    <activevideoangle>false</activevideoangle>
                    <activeaudioangle>false</activeaudioangle>
                    <clip id="clip-4"/>
                  </angle>
                  <angle>
                    <activevideoangle>false</activevideoangle>
                    <activeaudioangle>false</activeaudioangle>
                    <clip id="clip-5"/>
                  </angle>
                  <angle>
                    <activevideoangle>true</activevideoangle>
                    <activeaudioangle>true</activeaudioangle>
                    <clip id="clip-6"/>
                  </angle>
                  <angle>
                    <activevideoangle>false</activevideoangle>
                    <activeaudioangle>false</activeaudioangle>
                    <clip id="clip-7"/>
                  </angle>
                  <masterclipid>clip-master</masterclipid>
                </multiclip>
              </clipitem>
              <clipitem id="cs-1208">
                <duration>248</duration>
                <rate>
                  <ntsc>false</ntsc>
                  <timebase>25</timebase>
                </rate>
                <in>117074</in>
                <out>117321</out>
                <start>117074</start>
                <end>117321</end>
                <file id="src-2"/>
                <sourcetrack>
                  <mediatype>video</mediatype>
                  <trackindex>1</trackindex>
                </sourcetrack>
                <multiclip id="mcs-1208">
                  <name>MCS-1208</name>
                  <masterclipid>clip-master</masterclipid>
                  <collapsed>false</collapsed>
                  <angle>
                    <activevideoangle>false</activevideoangle>
                    <activeaudioangle>false</activeaudioangle>
                    <clip id="clip-1"/>
                  </angle>
                  <angle>
                    <activevideoangle>true</activevideoangle>
                    <activeaudioangle>true</activeaudioangle>
                    <clip id="clip-2"/>
                  </angle>
                  <angle>
                    <activevideoangle>false</activevideoangle>
                    <activeaudioangle>false</activeaudioangle>
                    <clip id="clip-3"/>
                  </angle>
                  <angle>
                    <activevideoangle>false</activevideoangle>
                    <activeaudioangle>false</activeaudioangle>
                    <clip id="clip-4"/>
                  </angle>
                  <angle>
                    <activevideoangle>false</activevideoangle>
                    <activeaudioangle>false</activeaudioangle>
                    <clip id="clip-5"/>
                  </angle>
                  <angle>
                    <activevideoangle>false</activevideoangle>
                    <activeaudioangle>false</activeaudioangle>
                    <clip id="clip-6"/>
                  </angle>
                  <angle>
                    <activevideoangle>false</activevideoangle>
                    <activeaudioangle>false</activeaudioangle>
                    <clip id="clip-7"/>
                  </angle>
                  <masterclipid>clip-master</masterclipid>
                </multiclip>
              </clipitem>
              <clipitem id="cs-1209">
                <duration>271</duration>
                <rate>
                  <ntsc>false</ntsc>
                  <timebase>25</timebase>
                </rate>
                <in>117321</in>
                <out>117591</out>
                <start>117321</start>
                <end>117591</end>
                <file id="src-3"/>
                <sourcetrack>
                  <mediatype>video</mediatype>
                  <trackindex>1</trackindex>
                </sourcetrack>
                <multiclip id="mcs-1209">
                  <name>MCS-1209</name>
                  <masterclipid>clip-master</masterclipid>
                  <collapsed>false</collapsed>
                  <angle>
                    <activevideoangle>false</activevideoangle>
                    <activeaudioangle>false</activeaudioangle>
                    <clip id="clip-1"/>
                  </angle>
                  <angle>
                    <activevideoangle>false</activevideoangle>
                    <activeaudioangle>false</activeaudioangle>
                    <clip id="clip-2"/>
                  </angle>
                  <angle>
                    <activevideoangle>true</activevideoangle>
                    <activeaudioangle>true</activeaudioangle>
                    <clip id="clip-3"/>
                  </angle>
                  <angle>
                    <activevideoangle>false</activevideoangle>
                    <activeaudioangle>false</activeaudioangle>
                    <clip id="clip-4"/>
                  </angle>
                  <angle>
                    <activevideoangle>false</activevideoangle>
                    <activeaudioangle>false</activeaudioangle>
                    <clip id="clip-5"/>
                  </angle>
                  <angle>
                    <activevideoangle>false</activevideoangle>
                    <activeaudioangle>false</activeaudioangle>
                    <clip id="clip-6"/>
                  </angle>
                  <angle>
                    <activevideoangle>false</activevideoangle>
                    <activeaudioangle>false</activeaudioangle>
                    <clip id="clip-7"/>
                  </angle>
                  <masterclipid>clip-master</masterclipid>
                </multiclip>
              </clipitem>
              <clipitem id="cs-1210">
                <duration>139</duration>
                <rate>
                  <ntsc>false</ntsc>
                  <timebase>25</timebase>
                </rate>
                <in>117591</in>
                <out>117729</out>
                <start>117591</start>
                <end>117729</end>
                <file id="src-1"/>
                <sourcetrack>
                  <mediatype>video</mediatype>
                  <trackindex>1</trackindex>
                </sourcetrack>
                <multiclip id="mcs-1210">
                  <name>MCS-1210</name>
                  <masterclipid>clip-master</masterclipid>
                  <collapsed>false</collapsed>
                  <angle>
                    <activevideoangle>true</activevideoangle>
                    <activeaudioangle>true</activeaudioangle>
                    <clip id="clip-1"/>
                  </angle>
                  <angle>
                    <activevideoangle>false</activevideoangle>
                    <activeaudioangle>false</activeaudioangle>
                    <clip id="clip-2"/>
                  </angle>
                  <angle>
                    <activevideoangle>false</activevideoangle>
                    <activeaudioangle>false</activeaudioangle>
                    <clip id="clip-3"/>
                  </angle>
                  <angle>
                    <activevideoangle>false</activevideoangle>
                    <activeaudioangle>false</activeaudioangle>
                    <clip id="clip-4"/>
                  </angle>
                  <angle>
                    <activevideoangle>false</activevideoangle>
                    <activeaudioangle>false</activeaudioangle>
                    <clip id="clip-5"/>
                  </angle>
                  <angle>
                    <activevideoangle>false</activevideoangle>
                    <activeaudioangle>false</activeaudioangle>
                    <clip id="clip-6"/>
                  </angle>
                  <angle>
                    <activevideoangle>false</activevideoangle>
                    <activeaudioangle>false</activeaudioangle>
                    <clip id="clip-7"/>
                  </angle>
                  <masterclipid>clip-master</masterclipid>
                </multiclip>
              </clipitem>
              <clipitem id="cs-1211">
                <duration>147</duration>
                <rate>
                  <ntsc>false</ntsc>
                  <timebase>25</timebase>
                </rate>
                <in>117729</in>
                <out>117875</out>
                <start>117729</start>
                <end>117875</end>
                <file id="src-2"/>
                <sourcetrack>
                  <mediatype>video</mediatype>
                  <trackindex>1</trackindex>
                </sourcetrack>
                <multiclip id="mcs-1211">
                  <name>MCS-1211</name>
                  <masterclipid>clip-master</masterclipid>
                  <collapsed>false</collapsed>
                  <angle>
                    <activevideoangle>false</activevideoangle>
                    <activeaudioangle>false</activeaudioangle>
                    <clip id="clip-1"/>
                  </angle>
                  <angle>
                    <activevideoangle>true</activevideoangle>
                    <activeaudioangle>true</activeaudioangle>
                    <clip id="clip-2"/>
                  </angle>
                  <angle>
                    <activevideoangle>false</activevideoangle>
                    <activeaudioangle>false</activeaudioangle>
                    <clip id="clip-3"/>
                  </angle>
                  <angle>
                    <activevideoangle>false</activevideoangle>
                    <activeaudioangle>false</activeaudioangle>
                    <clip id="clip-4"/>
                  </angle>
                  <angle>
                    <activevideoangle>false</activevideoangle>
                    <activeaudioangle>false</activeaudioangle>
                    <clip id="clip-5"/>
                  </angle>
                  <angle>
                    <activevideoangle>false</activevideoangle>
                    <activeaudioangle>false</activeaudioangle>
                    <clip id="clip-6"/>
                  </angle>
                  <angle>
                    <activevideoangle>false</activevideoangle>
                    <activeaudioangle>false</activeaudioangle>
                    <clip id="clip-7"/>
                  </angle>
                  <masterclipid>clip-master</masterclipid>
                </multiclip>
              </clipitem>
              <clipitem id="cs-1212">
                <duration>225</duration>
                <rate>
                  <ntsc>false</ntsc>
                  <timebase>25</timebase>
                </rate>
                <in>117875</in>
                <out>118099</out>
                <start>117875</start>
                <end>118099</end>
                <file id="src-5"/>
                <sourcetrack>
                  <mediatype>video</mediatype>
                  <trackindex>1</trackindex>
                </sourcetrack>
                <multiclip id="mcs-1212">
                  <name>MCS-1212</name>
                  <masterclipid>clip-master</masterclipid>
                  <collapsed>false</collapsed>
                  <angle>
                    <activevideoangle>false</activevideoangle>
                    <activeaudioangle>false</activeaudioangle>
                    <clip id="clip-1"/>
                  </angle>
                  <angle>
                    <activevideoangle>false</activevideoangle>
                    <activeaudioangle>false</activeaudioangle>
                    <clip id="clip-2"/>
                  </angle>
                  <angle>
                    <activevideoangle>false</activevideoangle>
                    <activeaudioangle>false</activeaudioangle>
                    <clip id="clip-3"/>
                  </angle>
                  <angle>
                    <activevideoangle>false</activevideoangle>
                    <activeaudioangle>false</activeaudioangle>
                    <clip id="clip-4"/>
                  </angle>
                  <angle>
                    <activevideoangle>true</activevideoangle>
                    <activeaudioangle>true</activeaudioangle>
                    <clip id="clip-5"/>
                  </angle>
                  <angle>
                    <activevideoangle>false</activevideoangle>
                    <activeaudioangle>false</activeaudioangle>
                    <clip id="clip-6"/>
                  </angle>
                  <angle>
                    <activevideoangle>false</activevideoangle>
                    <activeaudioangle>false</activeaudioangle>
                    <clip id="clip-7"/>
                  </angle>
                  <masterclipid>clip-master</masterclipid>
                </multiclip>
              </clipitem>
              <clipitem id="cs-1213">
                <duration>275</duration>
                <rate>
                  <ntsc>false</ntsc>
                  <timebase>25</timebase>
                </rate>
                <in>118099</in>
                <out>118373</out>
                <start>118099</start>
                <end>118373</end>
                <file id="src-3"/>
                <sourcetrack>
                  <mediatype>video</mediatype>
                  <trackindex>1</trackindex>
                </sourcetrack>
                <multiclip id="mcs-1213">
                  <name>MCS-1213</name>
                  <masterclipid>clip-master</masterclipid>
                  <collapsed>false</collapsed>
                  <angle>
                    <activevideoangle>false</activevideoangle>
                    <activeaudioangle>false</activeaudioangle>
                    <clip id="clip-1"/>
                  </angle>
                  <angle>
                    <activevideoangle>false</activevideoangle>
                    <activeaudioangle>false</activeaudioangle>
                    <clip id="clip-2"/>
                  </angle>
                  <angle>
                    <activevideoangle>true</activevideoangle>
                    <activeaudioangle>true</activeaudioangle>
                    <clip id="clip-3"/>
                  </angle>
                  <angle>
                    <activevideoangle>false</activevideoangle>
                    <activeaudioangle>false</activeaudioangle>
                    <clip id="clip-4"/>
                  </angle>
                  <angle>
                    <activevideoangle>false</activevideoangle>
                    <activeaudioangle>false</activeaudioangle>
                    <clip id="clip-5"/>
                  </angle>
                  <angle>
                    <activevideoangle>false</activevideoangle>
                    <activeaudioangle>false</activeaudioangle>
                    <clip id="clip-6"/>
                  </angle>
                  <angle>
                    <activevideoangle>false</activevideoangle>
                    <activeaudioangle>false</activeaudioangle>
                    <clip id="clip-7"/>
                  </angle>
                  <masterclipid>clip-master</masterclipid>
                </multiclip>
              </clipitem>
              <clipitem id="cs-1214">
                <duration>300</duration>
                <rate>
                  <ntsc>false</ntsc>
                  <timebase>25</timebase>
                </rate>
                <in>118373</in>
                <out>118672</out>
                <start>118373</start>
                <end>118672</end>
                <file id="src-2"/>
                <sourcetrack>
                  <mediatype>video</mediatype>
                  <trackindex>1</trackindex>
                </sourcetrack>
                <multiclip id="mcs-1214">
                  <name>MCS-1214</name>
                  <masterclipid>clip-master</masterclipid>
                  <collapsed>false</collapsed>
                  <angle>
                    <activevideoangle>false</activevideoangle>
                    <activeaudioangle>false</activeaudioangle>
                    <clip id="clip-1"/>
                  </angle>
                  <angle>
                    <activevideoangle>true</activevideoangle>
                    <activeaudioangle>true</activeaudioangle>
                    <clip id="clip-2"/>
                  </angle>
                  <angle>
                    <activevideoangle>false</activevideoangle>
                    <activeaudioangle>false</activeaudioangle>
                    <clip id="clip-3"/>
                  </angle>
                  <angle>
                    <activevideoangle>false</activevideoangle>
                    <activeaudioangle>false</activeaudioangle>
                    <clip id="clip-4"/>
                  </angle>
                  <angle>
                    <activevideoangle>false</activevideoangle>
                    <activeaudioangle>false</activeaudioangle>
                    <clip id="clip-5"/>
                  </angle>
                  <angle>
                    <activevideoangle>false</activevideoangle>
                    <activeaudioangle>false</activeaudioangle>
                    <clip id="clip-6"/>
                  </angle>
                  <angle>
                    <activevideoangle>false</activevideoangle>
                    <activeaudioangle>false</activeaudioangle>
                    <clip id="clip-7"/>
                  </angle>
                  <masterclipid>clip-master</masterclipid>
                </multiclip>
              </clipitem>
              <clipitem id="cs-1215">
                <duration>757</duration>
                <rate>
                  <ntsc>false</ntsc>
                  <timebase>25</timebase>
                </rate>
                <in>118672</in>
                <out>119428</out>
                <start>118672</start>
                <end>119428</end>
                <file id="src-1"/>
                <sourcetrack>
                  <mediatype>video</mediatype>
                  <trackindex>1</trackindex>
                </sourcetrack>
                <multiclip id="mcs-1215">
                  <name>MCS-1215</name>
                  <masterclipid>clip-master</masterclipid>
                  <collapsed>false</collapsed>
                  <angle>
                    <activevideoangle>true</activevideoangle>
                    <activeaudioangle>true</activeaudioangle>
                    <clip id="clip-1"/>
                  </angle>
                  <angle>
                    <activevideoangle>false</activevideoangle>
                    <activeaudioangle>false</activeaudioangle>
                    <clip id="clip-2"/>
                  </angle>
                  <angle>
                    <activevideoangle>false</activevideoangle>
                    <activeaudioangle>false</activeaudioangle>
                    <clip id="clip-3"/>
                  </angle>
                  <angle>
                    <activevideoangle>false</activevideoangle>
                    <activeaudioangle>false</activeaudioangle>
                    <clip id="clip-4"/>
                  </angle>
                  <angle>
                    <activevideoangle>false</activevideoangle>
                    <activeaudioangle>false</activeaudioangle>
                    <clip id="clip-5"/>
                  </angle>
                  <angle>
                    <activevideoangle>false</activevideoangle>
                    <activeaudioangle>false</activeaudioangle>
                    <clip id="clip-6"/>
                  </angle>
                  <angle>
                    <activevideoangle>false</activevideoangle>
                    <activeaudioangle>false</activeaudioangle>
                    <clip id="clip-7"/>
                  </angle>
                  <masterclipid>clip-master</masterclipid>
                </multiclip>
              </clipitem>
              <clipitem id="cs-1216">
                <duration>249</duration>
                <rate>
                  <ntsc>false</ntsc>
                  <timebase>25</timebase>
                </rate>
                <in>119428</in>
                <out>119676</out>
                <start>119428</start>
                <end>119676</end>
                <file id="src-3"/>
                <sourcetrack>
                  <mediatype>video</mediatype>
                  <trackindex>1</trackindex>
                </sourcetrack>
                <multiclip id="mcs-1216">
                  <name>MCS-1216</name>
                  <masterclipid>clip-master</masterclipid>
                  <collapsed>false</collapsed>
                  <angle>
                    <activevideoangle>false</activevideoangle>
                    <activeaudioangle>false</activeaudioangle>
                    <clip id="clip-1"/>
                  </angle>
                  <angle>
                    <activevideoangle>false</activevideoangle>
                    <activeaudioangle>false</activeaudioangle>
                    <clip id="clip-2"/>
                  </angle>
                  <angle>
                    <activevideoangle>true</activevideoangle>
                    <activeaudioangle>true</activeaudioangle>
                    <clip id="clip-3"/>
                  </angle>
                  <angle>
                    <activevideoangle>false</activevideoangle>
                    <activeaudioangle>false</activeaudioangle>
                    <clip id="clip-4"/>
                  </angle>
                  <angle>
                    <activevideoangle>false</activevideoangle>
                    <activeaudioangle>false</activeaudioangle>
                    <clip id="clip-5"/>
                  </angle>
                  <angle>
                    <activevideoangle>false</activevideoangle>
                    <activeaudioangle>false</activeaudioangle>
                    <clip id="clip-6"/>
                  </angle>
                  <angle>
                    <activevideoangle>false</activevideoangle>
                    <activeaudioangle>false</activeaudioangle>
                    <clip id="clip-7"/>
                  </angle>
                  <masterclipid>clip-master</masterclipid>
                </multiclip>
              </clipitem>
            </track>
          </video>
          <audio>
            <track>
              <clipitem id="csa1">
                <duration>119677</duration>
                <in>0</in>
                <out>119676</out>
                <start>0</start>
                <end>119676</end>
                <file id="src-7"/>
                <sourcetrack>
                  <mediatype>audio</mediatype>
                  <trackindex>1</trackindex>
                </sourcetrack>
                <filter>
                  <effect>
                    <name>Audio Pan</name>
                    <effectid>audiopan</effectid>
                    <effectcategory>audiopan</effectcategory>
                    <effecttype>audiopan</effecttype>
                    <mediatype>audio</mediatype>
                    <parameter>
                      <name>Pan</name>
                      <parameterid>pan</parameterid>
                      <valuemin>-1</valuemin>
                      <valuemax>1</valuemax>
                      <value>-1</value>
                    </parameter>
                  </effect>
                </filter>
                <multiclip id="mcsa-1">
                  <name>MCS Audio 1</name>
                  <masterclipid>clip-master</masterclipid>
                  <collapsed>false</collapsed>
                  <angle>
                    <activevideoangle>false</activevideoangle>
                    <activeaudioangle>false</activeaudioangle>
                    <clip id="clip-1"/>
                  </angle>
                  <angle>
                    <activevideoangle>false</activevideoangle>
                    <activeaudioangle>false</activeaudioangle>
                    <clip id="clip-2"/>
                  </angle>
                  <angle>
                    <activevideoangle>false</activevideoangle>
                    <activeaudioangle>false</activeaudioangle>
                    <clip id="clip-3"/>
                  </angle>
                  <angle>
                    <activevideoangle>false</activevideoangle>
                    <activeaudioangle>false</activeaudioangle>
                    <clip id="clip-4"/>
                  </angle>
                  <angle>
                    <activevideoangle>false</activevideoangle>
                    <activeaudioangle>false</activeaudioangle>
                    <clip id="clip-5"/>
                  </angle>
                  <angle>
                    <activevideoangle>false</activevideoangle>
                    <activeaudioangle>false</activeaudioangle>
                    <clip id="clip-6"/>
                  </angle>
                  <angle>
                    <activevideoangle>true</activevideoangle>
                    <activeaudioangle>true</activeaudioangle>
                    <clip id="clip-7"/>
                  </angle>
                  <masterclipid>clip-master</masterclipid>
                </multiclip>
                <link>
                  <linkclipref>cs-0</linkclipref>
                  <mediatype>video</mediatype>
                  <trackindex>1</trackindex>
                  <clipindex>1</clipindex>
                </link>
                <link>
                  <linkclipref>csa1</linkclipref>
                  <mediatype>audio</mediatype>
                  <trackindex>1</trackindex>
                  <clipindex>1</clipindex>
                  <groupindex>1</groupindex>
                </link>
                <link>
                  <linkclipref>csa2</linkclipref>
                  <mediatype>audio</mediatype>
                  <trackindex>2</trackindex>
                  <clipindex>1</clipindex>
                  <groupindex>1</groupindex>
                </link>
              </clipitem>
            </track>
            <track>
              <clipitem id="csa2">
                <duration>119677</duration>
                <in>0</in>
                <out>119676</out>
                <start>0</start>
                <end>119676</end>
                <file id="src-7"/>
                <sourcetrack>
                  <mediatype>audio</mediatype>
                  <trackindex>2</trackindex>
                </sourcetrack>
                <filter>
                  <effect>
                    <name>Audio Pan</name>
                    <effectid>audiopan</effectid>
                    <effectcategory>audiopan</effectcategory>
                    <effecttype>audiopan</effecttype>
                    <mediatype>audio</mediatype>
                    <parameter>
                      <name>Pan</name>
                      <parameterid>pan</parameterid>
                      <valuemin>-1</valuemin>
                      <valuemax>1</valuemax>
                      <value>1</value>
                    </parameter>
                  </effect>
                </filter>
                <multiclip id="mcsa-2">
                  <name>MCS Audio 2</name>
                  <masterclipid>clip-master</masterclipid>
                  <collapsed>false</collapsed>
                  <angle>
                    <activevideoangle>false</activevideoangle>
                    <activeaudioangle>false</activeaudioangle>
                    <clip id="clip-1"/>
                  </angle>
                  <angle>
                    <activevideoangle>false</activevideoangle>
                    <activeaudioangle>false</activeaudioangle>
                    <clip id="clip-2"/>
                  </angle>
                  <angle>
                    <activevideoangle>false</activevideoangle>
                    <activeaudioangle>false</activeaudioangle>
                    <clip id="clip-3"/>
                  </angle>
                  <angle>
                    <activevideoangle>false</activevideoangle>
                    <activeaudioangle>false</activeaudioangle>
                    <clip id="clip-4"/>
                  </angle>
                  <angle>
                    <activevideoangle>false</activevideoangle>
                    <activeaudioangle>false</activeaudioangle>
                    <clip id="clip-5"/>
                  </angle>
                  <angle>
                    <activevideoangle>false</activevideoangle>
                    <activeaudioangle>false</activeaudioangle>
                    <clip id="clip-6"/>
                  </angle>
                  <angle>
                    <activevideoangle>true</activevideoangle>
                    <activeaudioangle>true</activeaudioangle>
                    <clip id="clip-7"/>
                  </angle>
                  <masterclipid>clip-master</masterclipid>
                </multiclip>
                <link>
                  <linkclipref>cs-0</linkclipref>
                  <mediatype>video</mediatype>
                  <trackindex>1</trackindex>
                  <clipindex>1</clipindex>
                </link>
                <link>
                  <linkclipref>csa1</linkclipref>
                  <mediatype>audio</mediatype>
                  <trackindex>1</trackindex>
                  <clipindex>1</clipindex>
                  <groupindex>1</groupindex>
                </link>
                <link>
                  <linkclipref>csa2</linkclipref>
                  <mediatype>audio</mediatype>
                  <trackindex>2</trackindex>
                  <clipindex>1</clipindex>
                  <groupindex>1</groupindex>
                </link>
              </clipitem>
            </track>
          </audio>
        </media>
      </sequence>
    </children>
  </project>
</xmeml>
