<?xml version="1.0" encoding="UTF-8"?>
<xmeml version="5">
  <project>
    <name>2025-07-12_LAC_YSEULT_EDL</name>
    <people>
      <cam1>Alain</cam1>
      <cam2>Herv√©</cam2>
      <cam3>Leo</cam3>
      <cam4>Laura</cam4>
      <cam5>Yves</cam5>
      <cam6>Ben</cam6>
      <cam7>Alain</cam7>
      <cam8>Alain</cam8>
    </people>
    <children>
      <bin>
        <name>Sources</name>
        <children>
          <clip id="clip-1">
            <duration>126021</duration>
            <rate>
              <ntsc>false</ntsc>
              <timebase>25</timebase>
            </rate>
            <name>2025-07-12_LAC_YSEULT_CAM01.mxf</name>
            <defaultangle>1</defaultangle>
            <media>
              <video>
                <track>
                  <clipitem id="clipv-1">
                    <duration>126021</duration>
                    <rate>
                      <ntsc>false</ntsc>
                      <timebase>25</timebase>
                    </rate>
                    <file id="src-1">
                      <name>2025-07-12_LAC_YSEULT_CAM01.mxf</name>
                      <timecode>
                        <string>08:08:38:14</string>
                        <source>source</source>
                        <frame>732964</frame>
                      </timecode>
                      <pathurl>./2025-07-12_LAC_YSEULT_CAM01.mxf</pathurl>
                      <media>
                        <audio>
                          <channelcount>2</channelcount>
                        </audio>
                        <video>
                          <samplecharacteristics>
                            <width>7680</width>
                            <height>4320</height>
                            <anamorphic>false</anamorphic>
                            <pixelaspectratio>square</pixelaspectratio>
                          </samplecharacteristics>
                        </video>
                      </media>
                    </file>
                    <sourcetrack>
                      <mediatype>video</mediatype>
                    </sourcetrack>
                    <link>
                      <linkclipref>clipv-1</linkclipref>
                      <mediatype>video</mediatype>
                      <trackindex>1</trackindex>
                    </link>
                    <link>
                      <linkclipref>clipa1-1</linkclipref>
                      <mediatype>audio</mediatype>
                      <trackindex>1</trackindex>
                      <groupindex>1</groupindex>
                    </link>
                    <link>
                      <linkclipref>clipa2-1</linkclipref>
                      <mediatype>audio</mediatype>
                      <trackindex>2</trackindex>
                      <groupindex>1</groupindex>
                    </link>
                  </clipitem>
                </track>
              </video>
              <audio>
                <track>
                  <clipitem id="clipa1-1">
                    <rate>
                      <ntsc>false</ntsc>
                      <timebase>25</timebase>
                    </rate>
                    <name>2025-07-12_LAC_YSEULT_CAM01.mxf</name>
                    <file id="src-1"/>
                    <filter>
                      <effect>
                        <name>Audio Pan</name>
                        <effectid>audiopan</effectid>
                        <effectcategory>audiopan</effectcategory>
                        <effecttype>audiopan</effecttype>
                        <mediatype>audio</mediatype>
                        <parameter>
                          <name>Pan</name>
                          <parameterid>pan</parameterid>
                          <valuemin>-1</valuemin>
                          <valuemax>1</valuemax>
                          <value>-1</value>
                        </parameter>
                      </effect>
                    </filter>
                    <sourcetrack>
                      <mediatype>audio</mediatype>
                      <trackindex>1</trackindex>
                    </sourcetrack>
                    <link>
                      <linkclipref>clipv-1</linkclipref>
                      <mediatype>video</mediatype>
                      <trackindex>1</trackindex>
                    </link>
                    <link>
                      <linkclipref>clipa1-1</linkclipref>
                      <mediatype>audio</mediatype>
                      <trackindex>1</trackindex>
                      <groupindex>1</groupindex>
                    </link>
                    <link>
                      <linkclipref>clipa2-1</linkclipref>
                      <mediatype>audio</mediatype>
                      <trackindex>2</trackindex>
                      <groupindex>1</groupindex>
                    </link>
                  </clipitem>
                </track>
                <track>
                  <clipitem id="clipa2-1">
                    <rate>
                      <ntsc>false</ntsc>
                      <timebase>25</timebase>
                    </rate>
                    <name>2025-07-12_LAC_YSEULT_CAM01.mxf</name>
                    <file id="src-1"/>
                    <filter>
                      <effect>
                        <name>Audio Pan</name>
                        <effectid>audiopan</effectid>
                        <effectcategory>audiopan</effectcategory>
                        <effecttype>audiopan</effecttype>
                        <mediatype>audio</mediatype>
                        <parameter>
                          <name>Pan</name>
                          <parameterid>pan</parameterid>
                          <valuemin>-1</valuemin>
                          <valuemax>1</valuemax>
                          <value>1</value>
                        </parameter>
                      </effect>
                    </filter>
                    <sourcetrack>
                      <mediatype>audio</mediatype>
                      <trackindex>2</trackindex>
                    </sourcetrack>
                    <link>
                      <linkclipref>clipv-1</linkclipref>
                      <mediatype>video</mediatype>
                      <trackindex>1</trackindex>
                    </link>
                    <link>
                      <linkclipref>clipa1-1</linkclipref>
                      <mediatype>audio</mediatype>
                      <trackindex>1</trackindex>
                      <groupindex>1</groupindex>
                    </link>
                    <link>
                      <linkclipref>clipa2-1</linkclipref>
                      <mediatype>audio</mediatype>
                      <trackindex>2</trackindex>
                      <groupindex>1</groupindex>
                    </link>
                  </clipitem>
                </track>
              </audio>
            </media>
          </clip>
          <clip id="clip-2">
            <duration>126021</duration>
            <rate>
              <ntsc>false</ntsc>
              <timebase>25</timebase>
            </rate>
            <name>2025-07-12_LAC_YSEULT_CAM02.mxf</name>
            <defaultangle>2</defaultangle>
            <media>
              <video>
                <track>
                  <clipitem id="clipv-2">
                    <duration>126021</duration>
                    <rate>
                      <ntsc>false</ntsc>
                      <timebase>25</timebase>
                    </rate>
                    <file id="src-2">
                      <name>2025-07-12_LAC_YSEULT_CAM02.mxf</name>
                      <timecode>
                        <string>08:08:38:14</string>
                        <source>source</source>
                        <frame>732964</frame>
                      </timecode>
                      <pathurl>./2025-07-12_LAC_YSEULT_CAM02.mxf</pathurl>
                      <media>
                        <audio>
                          <channelcount>2</channelcount>
                        </audio>
                        <video>
                          <samplecharacteristics>
                            <width>7680</width>
                            <height>4320</height>
                            <anamorphic>false</anamorphic>
                            <pixelaspectratio>square</pixelaspectratio>
                          </samplecharacteristics>
                        </video>
                      </media>
                    </file>
                    <sourcetrack>
                      <mediatype>video</mediatype>
                    </sourcetrack>
                    <link>
                      <linkclipref>clipv-2</linkclipref>
                      <mediatype>video</mediatype>
                      <trackindex>1</trackindex>
                    </link>
                    <link>
                      <linkclipref>clipa1-2</linkclipref>
                      <mediatype>audio</mediatype>
                      <trackindex>1</trackindex>
                      <groupindex>1</groupindex>
                    </link>
                    <link>
                      <linkclipref>clipa2-2</linkclipref>
                      <mediatype>audio</mediatype>
                      <trackindex>2</trackindex>
                      <groupindex>1</groupindex>
                    </link>
                  </clipitem>
                </track>
              </video>
              <audio>
                <track>
                  <clipitem id="clipa1-2">
                    <rate>
                      <ntsc>false</ntsc>
                      <timebase>25</timebase>
                    </rate>
                    <name>2025-07-12_LAC_YSEULT_CAM02.mxf</name>
                    <file id="src-2"/>
                    <filter>
                      <effect>
                        <name>Audio Pan</name>
                        <effectid>audiopan</effectid>
                        <effectcategory>audiopan</effectcategory>
                        <effecttype>audiopan</effecttype>
                        <mediatype>audio</mediatype>
                        <parameter>
                          <name>Pan</name>
                          <parameterid>pan</parameterid>
                          <valuemin>-1</valuemin>
                          <valuemax>1</valuemax>
                          <value>-1</value>
                        </parameter>
                      </effect>
                    </filter>
                    <sourcetrack>
                      <mediatype>audio</mediatype>
                      <trackindex>1</trackindex>
                    </sourcetrack>
                    <link>
                      <linkclipref>clipv-2</linkclipref>
                      <mediatype>video</mediatype>
                      <trackindex>1</trackindex>
                    </link>
                    <link>
                      <linkclipref>clipa1-2</linkclipref>
                      <mediatype>audio</mediatype>
                      <trackindex>1</trackindex>
                      <groupindex>1</groupindex>
                    </link>
                    <link>
                      <linkclipref>clipa2-2</linkclipref>
                      <mediatype>audio</mediatype>
                      <trackindex>2</trackindex>
                      <groupindex>1</groupindex>
                    </link>
                  </clipitem>
                </track>
                <track>
                  <clipitem id="clipa2-2">
                    <rate>
                      <ntsc>false</ntsc>
                      <timebase>25</timebase>
                    </rate>
                    <name>2025-07-12_LAC_YSEULT_CAM02.mxf</name>
                    <file id="src-2"/>
                    <filter>
                      <effect>
                        <name>Audio Pan</name>
                        <effectid>audiopan</effectid>
                        <effectcategory>audiopan</effectcategory>
                        <effecttype>audiopan</effecttype>
                        <mediatype>audio</mediatype>
                        <parameter>
                          <name>Pan</name>
                          <parameterid>pan</parameterid>
                          <valuemin>-1</valuemin>
                          <valuemax>1</valuemax>
                          <value>1</value>
                        </parameter>
                      </effect>
                    </filter>
                    <sourcetrack>
                      <mediatype>audio</mediatype>
                      <trackindex>2</trackindex>
                    </sourcetrack>
                    <link>
                      <linkclipref>clipv-2</linkclipref>
                      <mediatype>video</mediatype>
                      <trackindex>1</trackindex>
                    </link>
                    <link>
                      <linkclipref>clipa1-2</linkclipref>
                      <mediatype>audio</mediatype>
                      <trackindex>1</trackindex>
                      <groupindex>1</groupindex>
                    </link>
                    <link>
                      <linkclipref>clipa2-2</linkclipref>
                      <mediatype>audio</mediatype>
                      <trackindex>2</trackindex>
                      <groupindex>1</groupindex>
                    </link>
                  </clipitem>
                </track>
              </audio>
            </media>
          </clip>
          <clip id="clip-3">
            <duration>126021</duration>
            <rate>
              <ntsc>false</ntsc>
              <timebase>25</timebase>
            </rate>
            <name>2025-07-12_LAC_YSEULT_CAM03.mxf</name>
            <defaultangle>3</defaultangle>
            <media>
              <video>
                <track>
                  <clipitem id="clipv-3">
                    <duration>126021</duration>
                    <rate>
                      <ntsc>false</ntsc>
                      <timebase>25</timebase>
                    </rate>
                    <file id="src-3">
                      <name>2025-07-12_LAC_YSEULT_CAM03.mxf</name>
                      <timecode>
                        <string>08:08:38:14</string>
                        <source>source</source>
                        <frame>732964</frame>
                      </timecode>
                      <pathurl>./2025-07-12_LAC_YSEULT_CAM03.mxf</pathurl>
                      <media>
                        <audio>
                          <channelcount>2</channelcount>
                        </audio>
                        <video>
                          <samplecharacteristics>
                            <width>7680</width>
                            <height>4320</height>
                            <anamorphic>false</anamorphic>
                            <pixelaspectratio>square</pixelaspectratio>
                          </samplecharacteristics>
                        </video>
                      </media>
                    </file>
                    <sourcetrack>
                      <mediatype>video</mediatype>
                    </sourcetrack>
                    <link>
                      <linkclipref>clipv-3</linkclipref>
                      <mediatype>video</mediatype>
                      <trackindex>1</trackindex>
                    </link>
                    <link>
                      <linkclipref>clipa1-3</linkclipref>
                      <mediatype>audio</mediatype>
                      <trackindex>1</trackindex>
                      <groupindex>1</groupindex>
                    </link>
                    <link>
                      <linkclipref>clipa2-3</linkclipref>
                      <mediatype>audio</mediatype>
                      <trackindex>2</trackindex>
                      <groupindex>1</groupindex>
                    </link>
                  </clipitem>
                </track>
              </video>
              <audio>
                <track>
                  <clipitem id="clipa1-3">
                    <rate>
                      <ntsc>false</ntsc>
                      <timebase>25</timebase>
                    </rate>
                    <name>2025-07-12_LAC_YSEULT_CAM03.mxf</name>
                    <file id="src-3"/>
                    <filter>
                      <effect>
                        <name>Audio Pan</name>
                        <effectid>audiopan</effectid>
                        <effectcategory>audiopan</effectcategory>
                        <effecttype>audiopan</effecttype>
                        <mediatype>audio</mediatype>
                        <parameter>
                          <name>Pan</name>
                          <parameterid>pan</parameterid>
                          <valuemin>-1</valuemin>
                          <valuemax>1</valuemax>
                          <value>-1</value>
                        </parameter>
                      </effect>
                    </filter>
                    <sourcetrack>
                      <mediatype>audio</mediatype>
                      <trackindex>1</trackindex>
                    </sourcetrack>
                    <link>
                      <linkclipref>clipv-3</linkclipref>
                      <mediatype>video</mediatype>
                      <trackindex>1</trackindex>
                    </link>
                    <link>
                      <linkclipref>clipa1-3</linkclipref>
                      <mediatype>audio</mediatype>
                      <trackindex>1</trackindex>
                      <groupindex>1</groupindex>
                    </link>
                    <link>
                      <linkclipref>clipa2-3</linkclipref>
                      <mediatype>audio</mediatype>
                      <trackindex>2</trackindex>
                      <groupindex>1</groupindex>
                    </link>
                  </clipitem>
                </track>
                <track>
                  <clipitem id="clipa2-3">
                    <rate>
                      <ntsc>false</ntsc>
                      <timebase>25</timebase>
                    </rate>
                    <name>2025-07-12_LAC_YSEULT_CAM03.mxf</name>
                    <file id="src-3"/>
                    <filter>
                      <effect>
                        <name>Audio Pan</name>
                        <effectid>audiopan</effectid>
                        <effectcategory>audiopan</effectcategory>
                        <effecttype>audiopan</effecttype>
                        <mediatype>audio</mediatype>
                        <parameter>
                          <name>Pan</name>
                          <parameterid>pan</parameterid>
                          <valuemin>-1</valuemin>
                          <valuemax>1</valuemax>
                          <value>1</value>
                        </parameter>
                      </effect>
                    </filter>
                    <sourcetrack>
                      <mediatype>audio</mediatype>
                      <trackindex>2</trackindex>
                    </sourcetrack>
                    <link>
                      <linkclipref>clipv-3</linkclipref>
                      <mediatype>video</mediatype>
                      <trackindex>1</trackindex>
                    </link>
                    <link>
                      <linkclipref>clipa1-3</linkclipref>
                      <mediatype>audio</mediatype>
                      <trackindex>1</trackindex>
                      <groupindex>1</groupindex>
                    </link>
                    <link>
                      <linkclipref>clipa2-3</linkclipref>
                      <mediatype>audio</mediatype>
                      <trackindex>2</trackindex>
                      <groupindex>1</groupindex>
                    </link>
                  </clipitem>
                </track>
              </audio>
            </media>
          </clip>
          <clip id="clip-4">
            <duration>126021</duration>
            <rate>
              <ntsc>false</ntsc>
              <timebase>25</timebase>
            </rate>
            <name>2025-07-12_LAC_YSEULT_CAM04.mxf</name>
            <defaultangle>4</defaultangle>
            <media>
              <video>
                <track>
                  <clipitem id="clipv-4">
                    <duration>126021</duration>
                    <rate>
                      <ntsc>false</ntsc>
                      <timebase>25</timebase>
                    </rate>
                    <file id="src-4">
                      <name>2025-07-12_LAC_YSEULT_CAM04.mxf</name>
                      <timecode>
                        <string>08:08:38:14</string>
                        <source>source</source>
                        <frame>732964</frame>
                      </timecode>
                      <pathurl>./2025-07-12_LAC_YSEULT_CAM04.mxf</pathurl>
                      <media>
                        <audio>
                          <channelcount>2</channelcount>
                        </audio>
                        <video>
                          <samplecharacteristics>
                            <width>7680</width>
                            <height>4320</height>
                            <anamorphic>false</anamorphic>
                            <pixelaspectratio>square</pixelaspectratio>
                          </samplecharacteristics>
                        </video>
                      </media>
                    </file>
                    <sourcetrack>
                      <mediatype>video</mediatype>
                    </sourcetrack>
                    <link>
                      <linkclipref>clipv-4</linkclipref>
                      <mediatype>video</mediatype>
                      <trackindex>1</trackindex>
                    </link>
                    <link>
                      <linkclipref>clipa1-4</linkclipref>
                      <mediatype>audio</mediatype>
                      <trackindex>1</trackindex>
                      <groupindex>1</groupindex>
                    </link>
                    <link>
                      <linkclipref>clipa2-4</linkclipref>
                      <mediatype>audio</mediatype>
                      <trackindex>2</trackindex>
                      <groupindex>1</groupindex>
                    </link>
                  </clipitem>
                </track>
              </video>
              <audio>
                <track>
                  <clipitem id="clipa1-4">
                    <rate>
                      <ntsc>false</ntsc>
                      <timebase>25</timebase>
                    </rate>
                    <name>2025-07-12_LAC_YSEULT_CAM04.mxf</name>
                    <file id="src-4"/>
                    <filter>
                      <effect>
                        <name>Audio Pan</name>
                        <effectid>audiopan</effectid>
                        <effectcategory>audiopan</effectcategory>
                        <effecttype>audiopan</effecttype>
                        <mediatype>audio</mediatype>
                        <parameter>
                          <name>Pan</name>
                          <parameterid>pan</parameterid>
                          <valuemin>-1</valuemin>
                          <valuemax>1</valuemax>
                          <value>-1</value>
                        </parameter>
                      </effect>
                    </filter>
                    <sourcetrack>
                      <mediatype>audio</mediatype>
                      <trackindex>1</trackindex>
                    </sourcetrack>
                    <link>
                      <linkclipref>clipv-4</linkclipref>
                      <mediatype>video</mediatype>
                      <trackindex>1</trackindex>
                    </link>
                    <link>
                      <linkclipref>clipa1-4</linkclipref>
                      <mediatype>audio</mediatype>
                      <trackindex>1</trackindex>
                      <groupindex>1</groupindex>
                    </link>
                    <link>
                      <linkclipref>clipa2-4</linkclipref>
                      <mediatype>audio</mediatype>
                      <trackindex>2</trackindex>
                      <groupindex>1</groupindex>
                    </link>
                  </clipitem>
                </track>
                <track>
                  <clipitem id="clipa2-4">
                    <rate>
                      <ntsc>false</ntsc>
                      <timebase>25</timebase>
                    </rate>
                    <name>2025-07-12_LAC_YSEULT_CAM04.mxf</name>
                    <file id="src-4"/>
                    <filter>
                      <effect>
                        <name>Audio Pan</name>
                        <effectid>audiopan</effectid>
                        <effectcategory>audiopan</effectcategory>
                        <effecttype>audiopan</effecttype>
                        <mediatype>audio</mediatype>
                        <parameter>
                          <name>Pan</name>
                          <parameterid>pan</parameterid>
                          <valuemin>-1</valuemin>
                          <valuemax>1</valuemax>
                          <value>1</value>
                        </parameter>
                      </effect>
                    </filter>
                    <sourcetrack>
                      <mediatype>audio</mediatype>
                      <trackindex>2</trackindex>
                    </sourcetrack>
                    <link>
                      <linkclipref>clipv-4</linkclipref>
                      <mediatype>video</mediatype>
                      <trackindex>1</trackindex>
                    </link>
                    <link>
                      <linkclipref>clipa1-4</linkclipref>
                      <mediatype>audio</mediatype>
                      <trackindex>1</trackindex>
                      <groupindex>1</groupindex>
                    </link>
                    <link>
                      <linkclipref>clipa2-4</linkclipref>
                      <mediatype>audio</mediatype>
                      <trackindex>2</trackindex>
                      <groupindex>1</groupindex>
                    </link>
                  </clipitem>
                </track>
              </audio>
            </media>
          </clip>
          <clip id="clip-5">
            <duration>126021</duration>
            <rate>
              <ntsc>false</ntsc>
              <timebase>25</timebase>
            </rate>
            <name>2025-07-12_LAC_YSEULT_CAM05.mxf</name>
            <defaultangle>5</defaultangle>
            <media>
              <video>
                <track>
                  <clipitem id="clipv-5">
                    <duration>126021</duration>
                    <rate>
                      <ntsc>false</ntsc>
                      <timebase>25</timebase>
                    </rate>
                    <file id="src-5">
                      <name>2025-07-12_LAC_YSEULT_CAM05.mxf</name>
                      <timecode>
                        <string>08:08:38:14</string>
                        <source>source</source>
                        <frame>732964</frame>
                      </timecode>
                      <pathurl>./2025-07-12_LAC_YSEULT_CAM05.mxf</pathurl>
                      <media>
                        <audio>
                          <channelcount>2</channelcount>
                        </audio>
                        <video>
                          <samplecharacteristics>
                            <width>7680</width>
                            <height>4320</height>
                            <anamorphic>false</anamorphic>
                            <pixelaspectratio>square</pixelaspectratio>
                          </samplecharacteristics>
                        </video>
                      </media>
                    </file>
                    <sourcetrack>
                      <mediatype>video</mediatype>
                    </sourcetrack>
                    <link>
                      <linkclipref>clipv-5</linkclipref>
                      <mediatype>video</mediatype>
                      <trackindex>1</trackindex>
                    </link>
                    <link>
                      <linkclipref>clipa1-5</linkclipref>
                      <mediatype>audio</mediatype>
                      <trackindex>1</trackindex>
                      <groupindex>1</groupindex>
                    </link>
                    <link>
                      <linkclipref>clipa2-5</linkclipref>
                      <mediatype>audio</mediatype>
                      <trackindex>2</trackindex>
                      <groupindex>1</groupindex>
                    </link>
                  </clipitem>
                </track>
              </video>
              <audio>
                <track>
                  <clipitem id="clipa1-5">
                    <rate>
                      <ntsc>false</ntsc>
                      <timebase>25</timebase>
                    </rate>
                    <name>2025-07-12_LAC_YSEULT_CAM05.mxf</name>
                    <file id="src-5"/>
                    <filter>
                      <effect>
                        <name>Audio Pan</name>
                        <effectid>audiopan</effectid>
                        <effectcategory>audiopan</effectcategory>
                        <effecttype>audiopan</effecttype>
                        <mediatype>audio</mediatype>
                        <parameter>
                          <name>Pan</name>
                          <parameterid>pan</parameterid>
                          <valuemin>-1</valuemin>
                          <valuemax>1</valuemax>
                          <value>-1</value>
                        </parameter>
                      </effect>
                    </filter>
                    <sourcetrack>
                      <mediatype>audio</mediatype>
                      <trackindex>1</trackindex>
                    </sourcetrack>
                    <link>
                      <linkclipref>clipv-5</linkclipref>
                      <mediatype>video</mediatype>
                      <trackindex>1</trackindex>
                    </link>
                    <link>
                      <linkclipref>clipa1-5</linkclipref>
                      <mediatype>audio</mediatype>
                      <trackindex>1</trackindex>
                      <groupindex>1</groupindex>
                    </link>
                    <link>
                      <linkclipref>clipa2-5</linkclipref>
                      <mediatype>audio</mediatype>
                      <trackindex>2</trackindex>
                      <groupindex>1</groupindex>
                    </link>
                  </clipitem>
                </track>
                <track>
                  <clipitem id="clipa2-5">
                    <rate>
                      <ntsc>false</ntsc>
                      <timebase>25</timebase>
                    </rate>
                    <name>2025-07-12_LAC_YSEULT_CAM05.mxf</name>
                    <file id="src-5"/>
                    <filter>
                      <effect>
                        <name>Audio Pan</name>
                        <effectid>audiopan</effectid>
                        <effectcategory>audiopan</effectcategory>
                        <effecttype>audiopan</effecttype>
                        <mediatype>audio</mediatype>
                        <parameter>
                          <name>Pan</name>
                          <parameterid>pan</parameterid>
                          <valuemin>-1</valuemin>
                          <valuemax>1</valuemax>
                          <value>1</value>
                        </parameter>
                      </effect>
                    </filter>
                    <sourcetrack>
                      <mediatype>audio</mediatype>
                      <trackindex>2</trackindex>
                    </sourcetrack>
                    <link>
                      <linkclipref>clipv-5</linkclipref>
                      <mediatype>video</mediatype>
                      <trackindex>1</trackindex>
                    </link>
                    <link>
                      <linkclipref>clipa1-5</linkclipref>
                      <mediatype>audio</mediatype>
                      <trackindex>1</trackindex>
                      <groupindex>1</groupindex>
                    </link>
                    <link>
                      <linkclipref>clipa2-5</linkclipref>
                      <mediatype>audio</mediatype>
                      <trackindex>2</trackindex>
                      <groupindex>1</groupindex>
                    </link>
                  </clipitem>
                </track>
              </audio>
            </media>
          </clip>
          <clip id="clip-6">
            <duration>126021</duration>
            <rate>
              <ntsc>false</ntsc>
              <timebase>25</timebase>
            </rate>
            <name>2025-07-12_LAC_YSEULT_CAM06.mxf</name>
            <defaultangle>6</defaultangle>
            <media>
              <video>
                <track>
                  <clipitem id="clipv-6">
                    <duration>126021</duration>
                    <rate>
                      <ntsc>false</ntsc>
                      <timebase>25</timebase>
                    </rate>
                    <file id="src-6">
                      <name>2025-07-12_LAC_YSEULT_CAM06.mxf</name>
                      <timecode>
                        <string>08:08:38:14</string>
                        <source>source</source>
                        <frame>732964</frame>
                      </timecode>
                      <pathurl>./2025-07-12_LAC_YSEULT_CAM06.mxf</pathurl>
                      <media>
                        <audio>
                          <channelcount>2</channelcount>
                        </audio>
                        <video>
                          <samplecharacteristics>
                            <width>7680</width>
                            <height>4320</height>
                            <anamorphic>false</anamorphic>
                            <pixelaspectratio>square</pixelaspectratio>
                          </samplecharacteristics>
                        </video>
                      </media>
                    </file>
                    <sourcetrack>
                      <mediatype>video</mediatype>
                    </sourcetrack>
                    <link>
                      <linkclipref>clipv-6</linkclipref>
                      <mediatype>video</mediatype>
                      <trackindex>1</trackindex>
                    </link>
                    <link>
                      <linkclipref>clipa1-6</linkclipref>
                      <mediatype>audio</mediatype>
                      <trackindex>1</trackindex>
                      <groupindex>1</groupindex>
                    </link>
                    <link>
                      <linkclipref>clipa2-6</linkclipref>
                      <mediatype>audio</mediatype>
                      <trackindex>2</trackindex>
                      <groupindex>1</groupindex>
                    </link>
                  </clipitem>
                </track>
              </video>
              <audio>
                <track>
                  <clipitem id="clipa1-6">
                    <rate>
                      <ntsc>false</ntsc>
                      <timebase>25</timebase>
                    </rate>
                    <name>2025-07-12_LAC_YSEULT_CAM06.mxf</name>
                    <file id="src-6"/>
                    <filter>
                      <effect>
                        <name>Audio Pan</name>
                        <effectid>audiopan</effectid>
                        <effectcategory>audiopan</effectcategory>
                        <effecttype>audiopan</effecttype>
                        <mediatype>audio</mediatype>
                        <parameter>
                          <name>Pan</name>
                          <parameterid>pan</parameterid>
                          <valuemin>-1</valuemin>
                          <valuemax>1</valuemax>
                          <value>-1</value>
                        </parameter>
                      </effect>
                    </filter>
                    <sourcetrack>
                      <mediatype>audio</mediatype>
                      <trackindex>1</trackindex>
                    </sourcetrack>
                    <link>
                      <linkclipref>clipv-6</linkclipref>
                      <mediatype>video</mediatype>
                      <trackindex>1</trackindex>
                    </link>
                    <link>
                      <linkclipref>clipa1-6</linkclipref>
                      <mediatype>audio</mediatype>
                      <trackindex>1</trackindex>
                      <groupindex>1</groupindex>
                    </link>
                    <link>
                      <linkclipref>clipa2-6</linkclipref>
                      <mediatype>audio</mediatype>
                      <trackindex>2</trackindex>
                      <groupindex>1</groupindex>
                    </link>
                  </clipitem>
                </track>
                <track>
                  <clipitem id="clipa2-6">
                    <rate>
                      <ntsc>false</ntsc>
                      <timebase>25</timebase>
                    </rate>
                    <name>2025-07-12_LAC_YSEULT_CAM06.mxf</name>
                    <file id="src-6"/>
                    <filter>
                      <effect>
                        <name>Audio Pan</name>
                        <effectid>audiopan</effectid>
                        <effectcategory>audiopan</effectcategory>
                        <effecttype>audiopan</effecttype>
                        <mediatype>audio</mediatype>
                        <parameter>
                          <name>Pan</name>
                          <parameterid>pan</parameterid>
                          <valuemin>-1</valuemin>
                          <valuemax>1</valuemax>
                          <value>1</value>
                        </parameter>
                      </effect>
                    </filter>
                    <sourcetrack>
                      <mediatype>audio</mediatype>
                      <trackindex>2</trackindex>
                    </sourcetrack>
                    <link>
                      <linkclipref>clipv-6</linkclipref>
                      <mediatype>video</mediatype>
                      <trackindex>1</trackindex>
                    </link>
                    <link>
                      <linkclipref>clipa1-6</linkclipref>
                      <mediatype>audio</mediatype>
                      <trackindex>1</trackindex>
                      <groupindex>1</groupindex>
                    </link>
                    <link>
                      <linkclipref>clipa2-6</linkclipref>
                      <mediatype>audio</mediatype>
                      <trackindex>2</trackindex>
                      <groupindex>1</groupindex>
                    </link>
                  </clipitem>
                </track>
              </audio>
            </media>
          </clip>
          <clip id="clip-7">
            <duration>126021</duration>
            <rate>
              <ntsc>false</ntsc>
              <timebase>25</timebase>
            </rate>
            <name>2025-07-12_LAC_YSEULT_CAM07.mxf</name>
            <defaultangle>7</defaultangle>
            <media>
              <video>
                <track>
                  <clipitem id="clipv-7">
                    <duration>126021</duration>
                    <rate>
                      <ntsc>false</ntsc>
                      <timebase>25</timebase>
                    </rate>
                    <file id="src-7">
                      <name>2025-07-12_LAC_YSEULT_CAM07.mxf</name>
                      <timecode>
                        <string>08:08:38:14</string>
                        <source>source</source>
                        <frame>732964</frame>
                      </timecode>
                      <pathurl>./2025-07-12_LAC_YSEULT_CAM07.mxf</pathurl>
                      <media>
                        <audio>
                          <channelcount>2</channelcount>
                        </audio>
                        <video>
                          <samplecharacteristics>
                            <width>7680</width>
                            <height>4320</height>
                            <anamorphic>false</anamorphic>
                            <pixelaspectratio>square</pixelaspectratio>
                          </samplecharacteristics>
                        </video>
                      </media>
                    </file>
                    <sourcetrack>
                      <mediatype>video</mediatype>
                    </sourcetrack>
                    <link>
                      <linkclipref>clipv-7</linkclipref>
                      <mediatype>video</mediatype>
                      <trackindex>1</trackindex>
                    </link>
                    <link>
                      <linkclipref>clipa1-7</linkclipref>
                      <mediatype>audio</mediatype>
                      <trackindex>1</trackindex>
                      <groupindex>1</groupindex>
                    </link>
                    <link>
                      <linkclipref>clipa2-7</linkclipref>
                      <mediatype>audio</mediatype>
                      <trackindex>2</trackindex>
                      <groupindex>1</groupindex>
                    </link>
                  </clipitem>
                </track>
              </video>
              <audio>
                <track>
                  <clipitem id="clipa1-7">
                    <rate>
                      <ntsc>false</ntsc>
                      <timebase>25</timebase>
                    </rate>
                    <name>2025-07-12_LAC_YSEULT_CAM07.mxf</name>
                    <file id="src-7"/>
                    <filter>
                      <effect>
                        <name>Audio Pan</name>
                        <effectid>audiopan</effectid>
                        <effectcategory>audiopan</effectcategory>
                        <effecttype>audiopan</effecttype>
                        <mediatype>audio</mediatype>
                        <parameter>
                          <name>Pan</name>
                          <parameterid>pan</parameterid>
                          <valuemin>-1</valuemin>
                          <valuemax>1</valuemax>
                          <value>-1</value>
                        </parameter>
                      </effect>
                    </filter>
                    <sourcetrack>
                      <mediatype>audio</mediatype>
                      <trackindex>1</trackindex>
                    </sourcetrack>
                    <link>
                      <linkclipref>clipv-7</linkclipref>
                      <mediatype>video</mediatype>
                      <trackindex>1</trackindex>
                    </link>
                    <link>
                      <linkclipref>clipa1-7</linkclipref>
                      <mediatype>audio</mediatype>
                      <trackindex>1</trackindex>
                      <groupindex>1</groupindex>
                    </link>
                    <link>
                      <linkclipref>clipa2-7</linkclipref>
                      <mediatype>audio</mediatype>
                      <trackindex>2</trackindex>
                      <groupindex>1</groupindex>
                    </link>
                  </clipitem>
                </track>
                <track>
                  <clipitem id="clipa2-7">
                    <rate>
                      <ntsc>false</ntsc>
                      <timebase>25</timebase>
                    </rate>
                    <name>2025-07-12_LAC_YSEULT_CAM07.mxf</name>
                    <file id="src-7"/>
                    <filter>
                      <effect>
                        <name>Audio Pan</name>
                        <effectid>audiopan</effectid>
                        <effectcategory>audiopan</effectcategory>
                        <effecttype>audiopan</effecttype>
                        <mediatype>audio</mediatype>
                        <parameter>
                          <name>Pan</name>
                          <parameterid>pan</parameterid>
                          <valuemin>-1</valuemin>
                          <valuemax>1</valuemax>
                          <value>1</value>
                        </parameter>
                      </effect>
                    </filter>
                    <sourcetrack>
                      <mediatype>audio</mediatype>
                      <trackindex>2</trackindex>
                    </sourcetrack>
                    <link>
                      <linkclipref>clipv-7</linkclipref>
                      <mediatype>video</mediatype>
                      <trackindex>1</trackindex>
                    </link>
                    <link>
                      <linkclipref>clipa1-7</linkclipref>
                      <mediatype>audio</mediatype>
                      <trackindex>1</trackindex>
                      <groupindex>1</groupindex>
                    </link>
                    <link>
                      <linkclipref>clipa2-7</linkclipref>
                      <mediatype>audio</mediatype>
                      <trackindex>2</trackindex>
                      <groupindex>1</groupindex>
                    </link>
                  </clipitem>
                </track>
              </audio>
            </media>
          </clip>
          <clip id="clip-8">
            <duration>126021</duration>
            <rate>
              <ntsc>false</ntsc>
              <timebase>25</timebase>
            </rate>
            <name>2025-07-12_LAC_YSEULT_CAM08.mxf</name>
            <defaultangle>8</defaultangle>
            <media>
              <video>
                <track>
                  <clipitem id="clipv-8">
                    <duration>126021</duration>
                    <rate>
                      <ntsc>false</ntsc>
                      <timebase>25</timebase>
                    </rate>
                    <file id="src-8">
                      <name>2025-07-12_LAC_YSEULT_CAM08.mxf</name>
                      <timecode>
                        <string>08:08:38:14</string>
                        <source>source</source>
                        <frame>732964</frame>
                      </timecode>
                      <pathurl>./2025-07-12_LAC_YSEULT_CAM08.mxf</pathurl>
                      <media>
                        <audio>
                          <channelcount>2</channelcount>
                        </audio>
                        <video>
                          <samplecharacteristics>
                            <width>7680</width>
                            <height>4320</height>
                            <anamorphic>false</anamorphic>
                            <pixelaspectratio>square</pixelaspectratio>
                          </samplecharacteristics>
                        </video>
                      </media>
                    </file>
                    <sourcetrack>
                      <mediatype>video</mediatype>
                    </sourcetrack>
                    <link>
                      <linkclipref>clipv-8</linkclipref>
                      <mediatype>video</mediatype>
                      <trackindex>1</trackindex>
                    </link>
                    <link>
                      <linkclipref>clipa1-8</linkclipref>
                      <mediatype>audio</mediatype>
                      <trackindex>1</trackindex>
                      <groupindex>1</groupindex>
                    </link>
                    <link>
                      <linkclipref>clipa2-8</linkclipref>
                      <mediatype>audio</mediatype>
                      <trackindex>2</trackindex>
                      <groupindex>1</groupindex>
                    </link>
                  </clipitem>
                </track>
              </video>
              <audio>
                <track>
                  <clipitem id="clipa1-8">
                    <rate>
                      <ntsc>false</ntsc>
                      <timebase>25</timebase>
                    </rate>
                    <name>2025-07-12_LAC_YSEULT_CAM08.mxf</name>
                    <file id="src-8"/>
                    <filter>
                      <effect>
                        <name>Audio Pan</name>
                        <effectid>audiopan</effectid>
                        <effectcategory>audiopan</effectcategory>
                        <effecttype>audiopan</effecttype>
                        <mediatype>audio</mediatype>
                        <parameter>
                          <name>Pan</name>
                          <parameterid>pan</parameterid>
                          <valuemin>-1</valuemin>
                          <valuemax>1</valuemax>
                          <value>-1</value>
                        </parameter>
                      </effect>
                    </filter>
                    <sourcetrack>
                      <mediatype>audio</mediatype>
                      <trackindex>1</trackindex>
                    </sourcetrack>
                    <link>
                      <linkclipref>clipv-8</linkclipref>
                      <mediatype>video</mediatype>
                      <trackindex>1</trackindex>
                    </link>
                    <link>
                      <linkclipref>clipa1-8</linkclipref>
                      <mediatype>audio</mediatype>
                      <trackindex>1</trackindex>
                      <groupindex>1</groupindex>
                    </link>
                    <link>
                      <linkclipref>clipa2-8</linkclipref>
                      <mediatype>audio</mediatype>
                      <trackindex>2</trackindex>
                      <groupindex>1</groupindex>
                    </link>
                  </clipitem>
                </track>
                <track>
                  <clipitem id="clipa2-8">
                    <rate>
                      <ntsc>false</ntsc>
                      <timebase>25</timebase>
                    </rate>
                    <name>2025-07-12_LAC_YSEULT_CAM08.mxf</name>
                    <file id="src-8"/>
                    <filter>
                      <effect>
                        <name>Audio Pan</name>
                        <effectid>audiopan</effectid>
                        <effectcategory>audiopan</effectcategory>
                        <effecttype>audiopan</effecttype>
                        <mediatype>audio</mediatype>
                        <parameter>
                          <name>Pan</name>
                          <parameterid>pan</parameterid>
                          <valuemin>-1</valuemin>
                          <valuemax>1</valuemax>
                          <value>1</value>
                        </parameter>
                      </effect>
                    </filter>
                    <sourcetrack>
                      <mediatype>audio</mediatype>
                      <trackindex>2</trackindex>
                    </sourcetrack>
                    <link>
                      <linkclipref>clipv-8</linkclipref>
                      <mediatype>video</mediatype>
                      <trackindex>1</trackindex>
                    </link>
                    <link>
                      <linkclipref>clipa1-8</linkclipref>
                      <mediatype>audio</mediatype>
                      <trackindex>1</trackindex>
                      <groupindex>1</groupindex>
                    </link>
                    <link>
                      <linkclipref>clipa2-8</linkclipref>
                      <mediatype>audio</mediatype>
                      <trackindex>2</trackindex>
                      <groupindex>1</groupindex>
                    </link>
                  </clipitem>
                </track>
              </audio>
            </media>
          </clip>
          <clip id="clip-9">
            <duration>126021</duration>
            <rate>
              <ntsc>false</ntsc>
              <timebase>25</timebase>
            </rate>
            <name>2025-07-12_LAC_YSEULT_PGM.mxf</name>
            <defaultangle>9</defaultangle>
            <media>
              <video>
                <track>
                  <clipitem id="clipv-9">
                    <duration>126021</duration>
                    <rate>
                      <ntsc>false</ntsc>
                      <timebase>25</timebase>
                    </rate>
                    <file id="src-9">
                      <name>2025-07-12_LAC_YSEULT_PGM.mxf</name>
                      <timecode>
                        <string>08:08:38:13</string>
                        <source>source</source>
                        <frame>732963</frame>
                      </timecode>
                      <pathurl>./2025-07-12_LAC_YSEULT_PGM.mxf</pathurl>
                      <media>
                        <audio>
                          <channelcount>2</channelcount>
                        </audio>
                        <video>
                          <samplecharacteristics>
                            <width>7680</width>
                            <height>4320</height>
                            <anamorphic>false</anamorphic>
                            <pixelaspectratio>square</pixelaspectratio>
                          </samplecharacteristics>
                        </video>
                      </media>
                    </file>
                    <sourcetrack>
                      <mediatype>video</mediatype>
                    </sourcetrack>
                    <link>
                      <linkclipref>clipv-9</linkclipref>
                      <mediatype>video</mediatype>
                      <trackindex>1</trackindex>
                    </link>
                    <link>
                      <linkclipref>clipa1-9</linkclipref>
                      <mediatype>audio</mediatype>
                      <trackindex>1</trackindex>
                      <groupindex>1</groupindex>
                    </link>
                    <link>
                      <linkclipref>clipa2-9</linkclipref>
                      <mediatype>audio</mediatype>
                      <trackindex>2</trackindex>
                      <groupindex>1</groupindex>
                    </link>
                  </clipitem>
                </track>
              </video>
              <audio>
                <track>
                  <clipitem id="clipa1-9">
                    <rate>
                      <ntsc>false</ntsc>
                      <timebase>25</timebase>
                    </rate>
                    <name>2025-07-12_LAC_YSEULT_PGM.mxf</name>
                    <file id="src-9"/>
                    <filter>
                      <effect>
                        <name>Audio Pan</name>
                        <effectid>audiopan</effectid>
                        <effectcategory>audiopan</effectcategory>
                        <effecttype>audiopan</effecttype>
                        <mediatype>audio</mediatype>
                        <parameter>
                          <name>Pan</name>
                          <parameterid>pan</parameterid>
                          <valuemin>-1</valuemin>
                          <valuemax>1</valuemax>
                          <value>-1</value>
                        </parameter>
                      </effect>
                    </filter>
                    <sourcetrack>
                      <mediatype>audio</mediatype>
                      <trackindex>1</trackindex>
                    </sourcetrack>
                    <link>
                      <linkclipref>clipv-9</linkclipref>
                      <mediatype>video</mediatype>
                      <trackindex>1</trackindex>
                    </link>
                    <link>
                      <linkclipref>clipa1-9</linkclipref>
                      <mediatype>audio</mediatype>
                      <trackindex>1</trackindex>
                      <groupindex>1</groupindex>
                    </link>
                    <link>
                      <linkclipref>clipa2-9</linkclipref>
                      <mediatype>audio</mediatype>
                      <trackindex>2</trackindex>
                      <groupindex>1</groupindex>
                    </link>
                  </clipitem>
                </track>
                <track>
                  <clipitem id="clipa2-9">
                    <rate>
                      <ntsc>false</ntsc>
                      <timebase>25</timebase>
                    </rate>
                    <name>2025-07-12_LAC_YSEULT_PGM.mxf</name>
                    <file id="src-9"/>
                    <filter>
                      <effect>
                        <name>Audio Pan</name>
                        <effectid>audiopan</effectid>
                        <effectcategory>audiopan</effectcategory>
                        <effecttype>audiopan</effecttype>
                        <mediatype>audio</mediatype>
                        <parameter>
                          <name>Pan</name>
                          <parameterid>pan</parameterid>
                          <valuemin>-1</valuemin>
                          <valuemax>1</valuemax>
                          <value>1</value>
                        </parameter>
                      </effect>
                    </filter>
                    <sourcetrack>
                      <mediatype>audio</mediatype>
                      <trackindex>2</trackindex>
                    </sourcetrack>
                    <link>
                      <linkclipref>clipv-9</linkclipref>
                      <mediatype>video</mediatype>
                      <trackindex>1</trackindex>
                    </link>
                    <link>
                      <linkclipref>clipa1-9</linkclipref>
                      <mediatype>audio</mediatype>
                      <trackindex>1</trackindex>
                      <groupindex>1</groupindex>
                    </link>
                    <link>
                      <linkclipref>clipa2-9</linkclipref>
                      <mediatype>audio</mediatype>
                      <trackindex>2</trackindex>
                      <groupindex>1</groupindex>
                    </link>
                  </clipitem>
                </track>
              </audio>
            </media>
          </clip>
        </children>
      </bin>
      <bin>
        <name>Bin</name>
        <children>
          <clip id="clip-master">
            <duration>126021</duration>
            <rate>
              <ntsc>false</ntsc>
              <timebase>25</timebase>
            </rate>
            <anamorphic>false</anamorphic>
            <ismasterclip>true</ismasterclip>
            <media>
              <video>
                <track>
                  <enabled>true</enabled>
                  <locked>false</locked>
                  <clipitem id="clip-multi">
                    <duration>126021</duration>
                    <rate>
                      <ntsc>false</ntsc>
                      <timebase>25</timebase>
                    </rate>
                    <name>Multiclip</name>
                    <sourcetrack>
                      <mediatype>video</mediatype>
                      <trackindex>1</trackindex>
                    </sourcetrack>
                    <anamorphic>false</anamorphic>
                    <multiclip id="multiclip-bin">
                      <name>MultiClip</name>
                      <collapsed>false</collapsed>
                      <masterclipid>clip-master</masterclipid>
                      <angle>
                        <clip id="clip-1"/>
                      </angle>
                      <angle>
                        <clip id="clip-2"/>
                      </angle>
                      <angle>
                        <clip id="clip-3"/>
                      </angle>
                      <angle>
                        <clip id="clip-4"/>
                      </angle>
                      <angle>
                        <clip id="clip-5"/>
                      </angle>
                      <angle>
                        <clip id="clip-6"/>
                      </angle>
                      <angle>
                        <clip id="clip-7"/>
                      </angle>
                      <angle>
                        <clip id="clip-8"/>
                      </angle>
                      <angle>
                        <clip id="clip-9"/>
                      </angle>
                    </multiclip>
                  </clipitem>
                </track>
              </video>
              <audio>
                <track>
                  <clipitem id="clipa1-multi">
                    <name>Multiclip</name>
                    <file id="src-1"/>
                    <sourcetrack>
                      <mediatype>audio</mediatype>
                      <trackindex>1</trackindex>
                    </sourcetrack>
                    <link>
                      <linkclipref>clip-multi</linkclipref>
                      <mediatype>video</mediatype>
                      <trackindex>1</trackindex>
                    </link>
                    <link>
                      <linkclipref>clipa1-multi</linkclipref>
                      <mediatype>audio</mediatype>
                      <trackindex>1</trackindex>
                      <groupindex>1</groupindex>
                    </link>
                    <link>
                      <linkclipref>clipa2-multi</linkclipref>
                      <mediatype>audio</mediatype>
                      <trackindex>2</trackindex>
                      <groupindex>1</groupindex>
                    </link>
                    <multiclip id="multiclip-bin"/>
                  </clipitem>
                </track>
                <track>
                  <clipitem id="clipa2-multi">
                    <name>Multiclip</name>
                    <file id="src-1"/>
                    <sourcetrack>
                      <mediatype>audio</mediatype>
                      <trackindex>2</trackindex>
                    </sourcetrack>
                    <link>
                      <linkclipref>clip-multi</linkclipref>
                      <mediatype>video</mediatype>
                      <trackindex>1</trackindex>
                    </link>
                    <link>
                      <linkclipref>clipa1-multi</linkclipref>
                      <mediatype>audio</mediatype>
                      <trackindex>1</trackindex>
                      <groupindex>1</groupindex>
                    </link>
                    <link>
                      <linkclipref>clipa2-multi</linkclipref>
                      <mediatype>audio</mediatype>
                      <trackindex>2</trackindex>
                      <groupindex>1</groupindex>
                    </link>
                    <multiclip id="multiclip-bin"/>
                  </clipitem>
                </track>
              </audio>
            </media>
          </clip>
        </children>
      </bin>
      <sequence>
        <name>Sequence</name>
        <duration>126021</duration>
        <rate>
          <ntsc>false</ntsc>
          <timebase>25</timebase>
        </rate>
        <timecode>
          <string>08:08:38:14</string>
          <frame>732964</frame>
        </timecode>
        <media>
          <video>
            <format>
              <samplecharacteristics>
                <width>7680</width>
                <height>4320</height>
                <anamorphic>false</anamorphic>
                <pixelaspectratio>square</pixelaspectratio>
                <rate>
                  <ntsc>false</ntsc>
                  <timebase>25</timebase>
                </rate>
              </samplecharacteristics>
            </format>
            <track>
              <clipitem id="cs-101">
                <duration>14173</duration>
                <rate>
                  <ntsc>false</ntsc>
                  <timebase>25</timebase>
                </rate>
                <in>0</in>
                <out>14172</out>
                <start>0</start>
                <end>14172</end>
                <file id="src-1"/>
                <sourcetrack>
                  <mediatype>video</mediatype>
                  <trackindex>1</trackindex>
                </sourcetrack>
                <multiclip id="mcs-101">
                  <name>MCS-101</name>
                  <masterclipid>clip-master</masterclipid>
                  <collapsed>false</collapsed>
                  <angle>
                    <activevideoangle>true</activevideoangle>
                    <activeaudioangle>true</activeaudioangle>
                    <clip id="clip-1"/>
                  </angle>
                  <angle>
                    <activevideoangle>false</activevideoangle>
                    <activeaudioangle>false</activeaudioangle>
                    <clip id="clip-2"/>
                  </angle>
                  <angle>
                    <activevideoangle>false</activevideoangle>
                    <activeaudioangle>false</activeaudioangle>
                    <clip id="clip-3"/>
                  </angle>
                  <angle>
                    <activevideoangle>false</activevideoangle>
                    <activeaudioangle>false</activeaudioangle>
                    <clip id="clip-4"/>
                  </angle>
                  <angle>
                    <activevideoangle>false</activevideoangle>
                    <activeaudioangle>false</activeaudioangle>
                    <clip id="clip-5"/>
                  </angle>
                  <angle>
                    <activevideoangle>false</activevideoangle>
                    <activeaudioangle>false</activeaudioangle>
                    <clip id="clip-6"/>
                  </angle>
                  <angle>
                    <activevideoangle>false</activevideoangle>
                    <activeaudioangle>false</activeaudioangle>
                    <clip id="clip-7"/>
                  </angle>
                  <angle>
                    <activevideoangle>false</activevideoangle>
                    <activeaudioangle>false</activeaudioangle>
                    <clip id="clip-8"/>
                  </angle>
                  <angle>
                    <activevideoangle>false</activevideoangle>
                    <activeaudioangle>false</activeaudioangle>
                    <clip id="clip-9"/>
                  </angle>
                  <masterclipid>clip-master</masterclipid>
                </multiclip>
              </clipitem>
              <clipitem id="cs-102">
                <duration>183</duration>
                <rate>
                  <ntsc>false</ntsc>
                  <timebase>25</timebase>
                </rate>
                <in>14172</in>
                <out>14354</out>
                <start>14172</start>
                <end>14354</end>
                <file id="src-4"/>
                <sourcetrack>
                  <mediatype>video</mediatype>
                  <trackindex>1</trackindex>
                </sourcetrack>
                <multiclip id="mcs-102">
                  <name>MCS-102</name>
                  <masterclipid>clip-master</masterclipid>
                  <collapsed>false</collapsed>
                  <angle>
                    <activevideoangle>false</activevideoangle>
                    <activeaudioangle>false</activeaudioangle>
                    <clip id="clip-1"/>
                  </angle>
                  <angle>
                    <activevideoangle>false</activevideoangle>
                    <activeaudioangle>false</activeaudioangle>
                    <clip id="clip-2"/>
                  </angle>
                  <angle>
                    <activevideoangle>false</activevideoangle>
                    <activeaudioangle>false</activeaudioangle>
                    <clip id="clip-3"/>
                  </angle>
                  <angle>
                    <activevideoangle>true</activevideoangle>
                    <activeaudioangle>true</activeaudioangle>
                    <clip id="clip-4"/>
                  </angle>
                  <angle>
                    <activevideoangle>false</activevideoangle>
                    <activeaudioangle>false</activeaudioangle>
                    <clip id="clip-5"/>
                  </angle>
                  <angle>
                    <activevideoangle>false</activevideoangle>
                    <activeaudioangle>false</activeaudioangle>
                    <clip id="clip-6"/>
                  </angle>
                  <angle>
                    <activevideoangle>false</activevideoangle>
                    <activeaudioangle>false</activeaudioangle>
                    <clip id="clip-7"/>
                  </angle>
                  <angle>
                    <activevideoangle>false</activevideoangle>
                    <activeaudioangle>false</activeaudioangle>
                    <clip id="clip-8"/>
                  </angle>
                  <angle>
                    <activevideoangle>false</activevideoangle>
                    <activeaudioangle>false</activeaudioangle>
                    <clip id="clip-9"/>
                  </angle>
                  <masterclipid>clip-master</masterclipid>
                </multiclip>
              </clipitem>
              <clipitem id="cs-103">
                <duration>228</duration>
                <rate>
                  <ntsc>false</ntsc>
                  <timebase>25</timebase>
                </rate>
                <in>14354</in>
                <out>14581</out>
                <start>14354</start>
                <end>14581</end>
                <file id="src-3"/>
                <sourcetrack>
                  <mediatype>video</mediatype>
                  <trackindex>1</trackindex>
                </sourcetrack>
                <multiclip id="mcs-103">
                  <name>MCS-103</name>
                  <masterclipid>clip-master</masterclipid>
                  <collapsed>false</collapsed>
                  <angle>
                    <activevideoangle>false</activevideoangle>
                    <activeaudioangle>false</activeaudioangle>
                    <clip id="clip-1"/>
                  </angle>
                  <angle>
                    <activevideoangle>false</activevideoangle>
                    <activeaudioangle>false</activeaudioangle>
                    <clip id="clip-2"/>
                  </angle>
                  <angle>
                    <activevideoangle>true</activevideoangle>
                    <activeaudioangle>true</activeaudioangle>
                    <clip id="clip-3"/>
                  </angle>
                  <angle>
                    <activevideoangle>false</activevideoangle>
                    <activeaudioangle>false</activeaudioangle>
                    <clip id="clip-4"/>
                  </angle>
                  <angle>
                    <activevideoangle>false</activevideoangle>
                    <activeaudioangle>false</activeaudioangle>
                    <clip id="clip-5"/>
                  </angle>
                  <angle>
                    <activevideoangle>false</activevideoangle>
                    <activeaudioangle>false</activeaudioangle>
                    <clip id="clip-6"/>
                  </angle>
                  <angle>
                    <activevideoangle>false</activevideoangle>
                    <activeaudioangle>false</activeaudioangle>
                    <clip id="clip-7"/>
                  </angle>
                  <angle>
                    <activevideoangle>false</activevideoangle>
                    <activeaudioangle>false</activeaudioangle>
                    <clip id="clip-8"/>
                  </angle>
                  <angle>
                    <activevideoangle>false</activevideoangle>
                    <activeaudioangle>false</activeaudioangle>
                    <clip id="clip-9"/>
                  </angle>
                  <masterclipid>clip-master</masterclipid>
                </multiclip>
              </clipitem>
              <clipitem id="cs-104">
                <duration>199</duration>
                <rate>
                  <ntsc>false</ntsc>
                  <timebase>25</timebase>
                </rate>
                <in>14581</in>
                <out>14779</out>
                <start>14581</start>
                <end>14779</end>
                <file id="src-4"/>
                <sourcetrack>
                  <mediatype>video</mediatype>
                  <trackindex>1</trackindex>
                </sourcetrack>
                <multiclip id="mcs-104">
                  <name>MCS-104</name>
                  <masterclipid>clip-master</masterclipid>
                  <collapsed>false</collapsed>
                  <angle>
                    <activevideoangle>false</activevideoangle>
                    <activeaudioangle>false</activeaudioangle>
                    <clip id="clip-1"/>
                  </angle>
                  <angle>
                    <activevideoangle>false</activevideoangle>
                    <activeaudioangle>false</activeaudioangle>
                    <clip id="clip-2"/>
                  </angle>
                  <angle>
                    <activevideoangle>false</activevideoangle>
                    <activeaudioangle>false</activeaudioangle>
                    <clip id="clip-3"/>
                  </angle>
                  <angle>
                    <activevideoangle>true</activevideoangle>
                    <activeaudioangle>true</activeaudioangle>
                    <clip id="clip-4"/>
                  </angle>
                  <angle>
                    <activevideoangle>false</activevideoangle>
                    <activeaudioangle>false</activeaudioangle>
                    <clip id="clip-5"/>
                  </angle>
                  <angle>
                    <activevideoangle>false</activevideoangle>
                    <activeaudioangle>false</activeaudioangle>
                    <clip id="clip-6"/>
                  </angle>
                  <angle>
                    <activevideoangle>false</activevideoangle>
                    <activeaudioangle>false</activeaudioangle>
                    <clip id="clip-7"/>
                  </angle>
                  <angle>
                    <activevideoangle>false</activevideoangle>
                    <activeaudioangle>false</activeaudioangle>
                    <clip id="clip-8"/>
                  </angle>
                  <angle>
                    <activevideoangle>false</activevideoangle>
                    <activeaudioangle>false</activeaudioangle>
                    <clip id="clip-9"/>
                  </angle>
                  <masterclipid>clip-master</masterclipid>
                </multiclip>
              </clipitem>
              <clipitem id="cs-105">
                <duration>186</duration>
                <rate>
                  <ntsc>false</ntsc>
                  <timebase>25</timebase>
                </rate>
                <in>14779</in>
                <out>14964</out>
                <start>14779</start>
                <end>14964</end>
                <file id="src-6"/>
                <sourcetrack>
                  <mediatype>video</mediatype>
                  <trackindex>1</trackindex>
                </sourcetrack>
                <multiclip id="mcs-105">
                  <name>MCS-105</name>
                  <masterclipid>clip-master</masterclipid>
                  <collapsed>false</collapsed>
                  <angle>
                    <activevideoangle>false</activevideoangle>
                    <activeaudioangle>false</activeaudioangle>
                    <clip id="clip-1"/>
                  </angle>
                  <angle>
                    <activevideoangle>false</activevideoangle>
                    <activeaudioangle>false</activeaudioangle>
                    <clip id="clip-2"/>
                  </angle>
                  <angle>
                    <activevideoangle>false</activevideoangle>
                    <activeaudioangle>false</activeaudioangle>
                    <clip id="clip-3"/>
                  </angle>
                  <angle>
                    <activevideoangle>false</activevideoangle>
                    <activeaudioangle>false</activeaudioangle>
                    <clip id="clip-4"/>
                  </angle>
                  <angle>
                    <activevideoangle>false</activevideoangle>
                    <activeaudioangle>false</activeaudioangle>
                    <clip id="clip-5"/>
                  </angle>
                  <angle>
                    <activevideoangle>true</activevideoangle>
                    <activeaudioangle>true</activeaudioangle>
                    <clip id="clip-6"/>
                  </angle>
                  <angle>
                    <activevideoangle>false</activevideoangle>
                    <activeaudioangle>false</activeaudioangle>
                    <clip id="clip-7"/>
                  </angle>
                  <angle>
                    <activevideoangle>false</activevideoangle>
                    <activeaudioangle>false</activeaudioangle>
                    <clip id="clip-8"/>
                  </angle>
                  <angle>
                    <activevideoangle>false</activevideoangle>
                    <activeaudioangle>false</activeaudioangle>
                    <clip id="clip-9"/>
                  </angle>
                  <masterclipid>clip-master</masterclipid>
                </multiclip>
              </clipitem>
              <clipitem id="cs-106">
                <duration>182</duration>
                <rate>
                  <ntsc>false</ntsc>
                  <timebase>25</timebase>
                </rate>
                <in>14964</in>
                <out>15145</out>
                <start>14964</start>
                <end>15145</end>
                <file id="src-4"/>
                <sourcetrack>
                  <mediatype>video</mediatype>
                  <trackindex>1</trackindex>
                </sourcetrack>
                <multiclip id="mcs-106">
                  <name>MCS-106</name>
                  <masterclipid>clip-master</masterclipid>
                  <collapsed>false</collapsed>
                  <angle>
                    <activevideoangle>false</activevideoangle>
                    <activeaudioangle>false</activeaudioangle>
                    <clip id="clip-1"/>
                  </angle>
                  <angle>
                    <activevideoangle>false</activevideoangle>
                    <activeaudioangle>false</activeaudioangle>
                    <clip id="clip-2"/>
                  </angle>
                  <angle>
                    <activevideoangle>false</activevideoangle>
                    <activeaudioangle>false</activeaudioangle>
                    <clip id="clip-3"/>
                  </angle>
                  <angle>
                    <activevideoangle>true</activevideoangle>
                    <activeaudioangle>true</activeaudioangle>
                    <clip id="clip-4"/>
                  </angle>
                  <angle>
                    <activevideoangle>false</activevideoangle>
                    <activeaudioangle>false</activeaudioangle>
                    <clip id="clip-5"/>
                  </angle>
                  <angle>
                    <activevideoangle>false</activevideoangle>
                    <activeaudioangle>false</activeaudioangle>
                    <clip id="clip-6"/>
                  </angle>
                  <angle>
                    <activevideoangle>false</activevideoangle>
                    <activeaudioangle>false</activeaudioangle>
                    <clip id="clip-7"/>
                  </angle>
                  <angle>
                    <activevideoangle>false</activevideoangle>
                    <activeaudioangle>false</activeaudioangle>
                    <clip id="clip-8"/>
                  </angle>
                  <angle>
                    <activevideoangle>false</activevideoangle>
                    <activeaudioangle>false</activeaudioangle>
                    <clip id="clip-9"/>
                  </angle>
                  <masterclipid>clip-master</masterclipid>
                </multiclip>
              </clipitem>
              <clipitem id="cs-107">
                <duration>99</duration>
                <rate>
                  <ntsc>false</ntsc>
                  <timebase>25</timebase>
                </rate>
                <in>15145</in>
                <out>15243</out>
                <start>15145</start>
                <end>15243</end>
                <file id="src-3"/>
                <sourcetrack>
                  <mediatype>video</mediatype>
                  <trackindex>1</trackindex>
                </sourcetrack>
                <multiclip id="mcs-107">
                  <name>MCS-107</name>
                  <masterclipid>clip-master</masterclipid>
                  <collapsed>false</collapsed>
                  <angle>
                    <activevideoangle>false</activevideoangle>
                    <activeaudioangle>false</activeaudioangle>
                    <clip id="clip-1"/>
                  </angle>
                  <angle>
                    <activevideoangle>false</activevideoangle>
                    <activeaudioangle>false</activeaudioangle>
                    <clip id="clip-2"/>
                  </angle>
                  <angle>
                    <activevideoangle>true</activevideoangle>
                    <activeaudioangle>true</activeaudioangle>
                    <clip id="clip-3"/>
                  </angle>
                  <angle>
                    <activevideoangle>false</activevideoangle>
                    <activeaudioangle>false</activeaudioangle>
                    <clip id="clip-4"/>
                  </angle>
                  <angle>
                    <activevideoangle>false</activevideoangle>
                    <activeaudioangle>false</activeaudioangle>
                    <clip id="clip-5"/>
                  </angle>
                  <angle>
                    <activevideoangle>false</activevideoangle>
                    <activeaudioangle>false</activeaudioangle>
                    <clip id="clip-6"/>
                  </angle>
                  <angle>
                    <activevideoangle>false</activevideoangle>
                    <activeaudioangle>false</activeaudioangle>
                    <clip id="clip-7"/>
                  </angle>
                  <angle>
                    <activevideoangle>false</activevideoangle>
                    <activeaudioangle>false</activeaudioangle>
                    <clip id="clip-8"/>
                  </angle>
                  <angle>
                    <activevideoangle>false</activevideoangle>
                    <activeaudioangle>false</activeaudioangle>
                    <clip id="clip-9"/>
                  </angle>
                  <masterclipid>clip-master</masterclipid>
                </multiclip>
              </clipitem>
              <clipitem id="cs-108">
                <duration>122</duration>
                <rate>
                  <ntsc>false</ntsc>
                  <timebase>25</timebase>
                </rate>
                <in>15243</in>
                <out>15364</out>
                <start>15243</start>
                <end>15364</end>
                <file id="src-2"/>
                <sourcetrack>
                  <mediatype>video</mediatype>
                  <trackindex>1</trackindex>
                </sourcetrack>
                <multiclip id="mcs-108">
                  <name>MCS-108</name>
                  <masterclipid>clip-master</masterclipid>
                  <collapsed>false</collapsed>
                  <angle>
                    <activevideoangle>false</activevideoangle>
                    <activeaudioangle>false</activeaudioangle>
                    <clip id="clip-1"/>
                  </angle>
                  <angle>
                    <activevideoangle>true</activevideoangle>
                    <activeaudioangle>true</activeaudioangle>
                    <clip id="clip-2"/>
                  </angle>
                  <angle>
                    <activevideoangle>false</activevideoangle>
                    <activeaudioangle>false</activeaudioangle>
                    <clip id="clip-3"/>
                  </angle>
                  <angle>
                    <activevideoangle>false</activevideoangle>
                    <activeaudioangle>false</activeaudioangle>
                    <clip id="clip-4"/>
                  </angle>
                  <angle>
                    <activevideoangle>false</activevideoangle>
                    <activeaudioangle>false</activeaudioangle>
                    <clip id="clip-5"/>
                  </angle>
                  <angle>
                    <activevideoangle>false</activevideoangle>
                    <activeaudioangle>false</activeaudioangle>
                    <clip id="clip-6"/>
                  </angle>
                  <angle>
                    <activevideoangle>false</activevideoangle>
                    <activeaudioangle>false</activeaudioangle>
                    <clip id="clip-7"/>
                  </angle>
                  <angle>
                    <activevideoangle>false</activevideoangle>
                    <activeaudioangle>false</activeaudioangle>
                    <clip id="clip-8"/>
                  </angle>
                  <angle>
                    <activevideoangle>false</activevideoangle>
                    <activeaudioangle>false</activeaudioangle>
                    <clip id="clip-9"/>
                  </angle>
                  <masterclipid>clip-master</masterclipid>
                </multiclip>
              </clipitem>
              <clipitem id="cs-109">
                <duration>49</duration>
                <rate>
                  <ntsc>false</ntsc>
                  <timebase>25</timebase>
                </rate>
                <in>15364</in>
                <out>15412</out>
                <start>15364</start>
                <end>15412</end>
                <file id="src-6"/>
                <sourcetrack>
                  <mediatype>video</mediatype>
                  <trackindex>1</trackindex>
                </sourcetrack>
                <multiclip id="mcs-109">
                  <name>MCS-109</name>
                  <masterclipid>clip-master</masterclipid>
                  <collapsed>false</collapsed>
                  <angle>
                    <activevideoangle>false</activevideoangle>
                    <activeaudioangle>false</activeaudioangle>
                    <clip id="clip-1"/>
                  </angle>
                  <angle>
                    <activevideoangle>false</activevideoangle>
                    <activeaudioangle>false</activeaudioangle>
                    <clip id="clip-2"/>
                  </angle>
                  <angle>
                    <activevideoangle>false</activevideoangle>
                    <activeaudioangle>false</activeaudioangle>
                    <clip id="clip-3"/>
                  </angle>
                  <angle>
                    <activevideoangle>false</activevideoangle>
                    <activeaudioangle>false</activeaudioangle>
                    <clip id="clip-4"/>
                  </angle>
                  <angle>
                    <activevideoangle>false</activevideoangle>
                    <activeaudioangle>false</activeaudioangle>
                    <clip id="clip-5"/>
                  </angle>
                  <angle>
                    <activevideoangle>true</activevideoangle>
                    <activeaudioangle>true</activeaudioangle>
                    <clip id="clip-6"/>
                  </angle>
                  <angle>
                    <activevideoangle>false</activevideoangle>
                    <activeaudioangle>false</activeaudioangle>
                    <clip id="clip-7"/>
                  </angle>
                  <angle>
                    <activevideoangle>false</activevideoangle>
                    <activeaudioangle>false</activeaudioangle>
                    <clip id="clip-8"/>
                  </angle>
                  <angle>
                    <activevideoangle>false</activevideoangle>
                    <activeaudioangle>false</activeaudioangle>
                    <clip id="clip-9"/>
                  </angle>
                  <masterclipid>clip-master</masterclipid>
                </multiclip>
              </clipitem>
              <clipitem id="cs-110">
                <duration>198</duration>
                <rate>
                  <ntsc>false</ntsc>
                  <timebase>25</timebase>
                </rate>
                <in>15412</in>
                <out>15609</out>
                <start>15412</start>
                <end>15609</end>
                <file id="src-4"/>
                <sourcetrack>
                  <mediatype>video</mediatype>
                  <trackindex>1</trackindex>
                </sourcetrack>
                <multiclip id="mcs-110">
                  <name>MCS-110</name>
                  <masterclipid>clip-master</masterclipid>
                  <collapsed>false</collapsed>
                  <angle>
                    <activevideoangle>false</activevideoangle>
                    <activeaudioangle>false</activeaudioangle>
                    <clip id="clip-1"/>
                  </angle>
                  <angle>
                    <activevideoangle>false</activevideoangle>
                    <activeaudioangle>false</activeaudioangle>
                    <clip id="clip-2"/>
                  </angle>
                  <angle>
                    <activevideoangle>false</activevideoangle>
                    <activeaudioangle>false</activeaudioangle>
                    <clip id="clip-3"/>
                  </angle>
                  <angle>
                    <activevideoangle>true</activevideoangle>
                    <activeaudioangle>true</activeaudioangle>
                    <clip id="clip-4"/>
                  </angle>
                  <angle>
                    <activevideoangle>false</activevideoangle>
                    <activeaudioangle>false</activeaudioangle>
                    <clip id="clip-5"/>
                  </angle>
                  <angle>
                    <activevideoangle>false</activevideoangle>
                    <activeaudioangle>false</activeaudioangle>
                    <clip id="clip-6"/>
                  </angle>
                  <angle>
                    <activevideoangle>false</activevideoangle>
                    <activeaudioangle>false</activeaudioangle>
                    <clip id="clip-7"/>
                  </angle>
                  <angle>
                    <activevideoangle>false</activevideoangle>
                    <activeaudioangle>false</activeaudioangle>
                    <clip id="clip-8"/>
                  </angle>
                  <angle>
                    <activevideoangle>false</activevideoangle>
                    <activeaudioangle>false</activeaudioangle>
                    <clip id="clip-9"/>
                  </angle>
                  <masterclipid>clip-master</masterclipid>
                </multiclip>
              </clipitem>
              <clipitem id="cs-111">
                <duration>59</duration>
                <rate>
                  <ntsc>false</ntsc>
                  <timebase>25</timebase>
                </rate>
                <in>15609</in>
                <out>15667</out>
                <start>15609</start>
                <end>15667</end>
                <file id="src-3"/>
                <sourcetrack>
                  <mediatype>video</mediatype>
                  <trackindex>1</trackindex>
                </sourcetrack>
                <multiclip id="mcs-111">
                  <name>MCS-111</name>
                  <masterclipid>clip-master</masterclipid>
                  <collapsed>false</collapsed>
                  <angle>
                    <activevideoangle>false</activevideoangle>
                    <activeaudioangle>false</activeaudioangle>
                    <clip id="clip-1"/>
                  </angle>
                  <angle>
                    <activevideoangle>false</activevideoangle>
                    <activeaudioangle>false</activeaudioangle>
                    <clip id="clip-2"/>
                  </angle>
                  <angle>
                    <activevideoangle>true</activevideoangle>
                    <activeaudioangle>true</activeaudioangle>
                    <clip id="clip-3"/>
                  </angle>
                  <angle>
                    <activevideoangle>false</activevideoangle>
                    <activeaudioangle>false</activeaudioangle>
                    <clip id="clip-4"/>
                  </angle>
                  <angle>
                    <activevideoangle>false</activevideoangle>
                    <activeaudioangle>false</activeaudioangle>
                    <clip id="clip-5"/>
                  </angle>
                  <angle>
                    <activevideoangle>false</activevideoangle>
                    <activeaudioangle>false</activeaudioangle>
                    <clip id="clip-6"/>
                  </angle>
                  <angle>
                    <activevideoangle>false</activevideoangle>
                    <activeaudioangle>false</activeaudioangle>
                    <clip id="clip-7"/>
                  </angle>
                  <angle>
                    <activevideoangle>false</activevideoangle>
                    <activeaudioangle>false</activeaudioangle>
                    <clip id="clip-8"/>
                  </angle>
                  <angle>
                    <activevideoangle>false</activevideoangle>
                    <activeaudioangle>false</activeaudioangle>
                    <clip id="clip-9"/>
                  </angle>
                  <masterclipid>clip-master</masterclipid>
                </multiclip>
              </clipitem>
              <clipitem id="cs-112">
                <duration>106</duration>
                <rate>
                  <ntsc>false</ntsc>
                  <timebase>25</timebase>
                </rate>
                <in>15667</in>
                <out>15772</out>
                <start>15667</start>
                <end>15772</end>
                <file id="src-5"/>
                <sourcetrack>
                  <mediatype>video</mediatype>
                  <trackindex>1</trackindex>
                </sourcetrack>
                <multiclip id="mcs-112">
                  <name>MCS-112</name>
                  <masterclipid>clip-master</masterclipid>
                  <collapsed>false</collapsed>
                  <angle>
                    <activevideoangle>false</activevideoangle>
                    <activeaudioangle>false</activeaudioangle>
                    <clip id="clip-1"/>
                  </angle>
                  <angle>
                    <activevideoangle>false</activevideoangle>
                    <activeaudioangle>false</activeaudioangle>
                    <clip id="clip-2"/>
                  </angle>
                  <angle>
                    <activevideoangle>false</activevideoangle>
                    <activeaudioangle>false</activeaudioangle>
                    <clip id="clip-3"/>
                  </angle>
                  <angle>
                    <activevideoangle>false</activevideoangle>
                    <activeaudioangle>false</activeaudioangle>
                    <clip id="clip-4"/>
                  </angle>
                  <angle>
                    <activevideoangle>true</activevideoangle>
                    <activeaudioangle>true</activeaudioangle>
                    <clip id="clip-5"/>
                  </angle>
                  <angle>
                    <activevideoangle>false</activevideoangle>
                    <activeaudioangle>false</activeaudioangle>
                    <clip id="clip-6"/>
                  </angle>
                  <angle>
                    <activevideoangle>false</activevideoangle>
                    <activeaudioangle>false</activeaudioangle>
                    <clip id="clip-7"/>
                  </angle>
                  <angle>
                    <activevideoangle>false</activevideoangle>
                    <activeaudioangle>false</activeaudioangle>
                    <clip id="clip-8"/>
                  </angle>
                  <angle>
                    <activevideoangle>false</activevideoangle>
                    <activeaudioangle>false</activeaudioangle>
                    <clip id="clip-9"/>
                  </angle>
                  <masterclipid>clip-master</masterclipid>
                </multiclip>
              </clipitem>
              <clipitem id="cs-113">
                <duration>87</duration>
                <rate>
                  <ntsc>false</ntsc>
                  <timebase>25</timebase>
                </rate>
                <in>15772</in>
                <out>15858</out>
                <start>15772</start>
                <end>15858</end>
                <file id="src-3"/>
                <sourcetrack>
                  <mediatype>video</mediatype>
                  <trackindex>1</trackindex>
                </sourcetrack>
                <multiclip id="mcs-113">
                  <name>MCS-113</name>
                  <masterclipid>clip-master</masterclipid>
                  <collapsed>false</collapsed>
                  <angle>
                    <activevideoangle>false</activevideoangle>
                    <activeaudioangle>false</activeaudioangle>
                    <clip id="clip-1"/>
                  </angle>
                  <angle>
                    <activevideoangle>false</activevideoangle>
                    <activeaudioangle>false</activeaudioangle>
                    <clip id="clip-2"/>
                  </angle>
                  <angle>
                    <activevideoangle>true</activevideoangle>
                    <activeaudioangle>true</activeaudioangle>
                    <clip id="clip-3"/>
                  </angle>
                  <angle>
                    <activevideoangle>false</activevideoangle>
                    <activeaudioangle>false</activeaudioangle>
                    <clip id="clip-4"/>
                  </angle>
                  <angle>
                    <activevideoangle>false</activevideoangle>
                    <activeaudioangle>false</activeaudioangle>
                    <clip id="clip-5"/>
                  </angle>
                  <angle>
                    <activevideoangle>false</activevideoangle>
                    <activeaudioangle>false</activeaudioangle>
                    <clip id="clip-6"/>
                  </angle>
                  <angle>
                    <activevideoangle>false</activevideoangle>
                    <activeaudioangle>false</activeaudioangle>
                    <clip id="clip-7"/>
                  </angle>
                  <angle>
                    <activevideoangle>false</activevideoangle>
                    <activeaudioangle>false</activeaudioangle>
                    <clip id="clip-8"/>
                  </angle>
                  <angle>
                    <activevideoangle>false</activevideoangle>
                    <activeaudioangle>false</activeaudioangle>
                    <clip id="clip-9"/>
                  </angle>
                  <masterclipid>clip-master</masterclipid>
                </multiclip>
              </clipitem>
              <clipitem id="cs-114">
                <duration>54</duration>
                <rate>
                  <ntsc>false</ntsc>
                  <timebase>25</timebase>
                </rate>
                <in>15858</in>
                <out>15911</out>
                <start>15858</start>
                <end>15911</end>
                <file id="src-2"/>
                <sourcetrack>
                  <mediatype>video</mediatype>
                  <trackindex>1</trackindex>
                </sourcetrack>
                <multiclip id="mcs-114">
                  <name>MCS-114</name>
                  <masterclipid>clip-master</masterclipid>
                  <collapsed>false</collapsed>
                  <angle>
                    <activevideoangle>false</activevideoangle>
                    <activeaudioangle>false</activeaudioangle>
                    <clip id="clip-1"/>
                  </angle>
                  <angle>
                    <activevideoangle>true</activevideoangle>
                    <activeaudioangle>true</activeaudioangle>
                    <clip id="clip-2"/>
                  </angle>
                  <angle>
                    <activevideoangle>false</activevideoangle>
                    <activeaudioangle>false</activeaudioangle>
                    <clip id="clip-3"/>
                  </angle>
                  <angle>
                    <activevideoangle>false</activevideoangle>
                    <activeaudioangle>false</activeaudioangle>
                    <clip id="clip-4"/>
                  </angle>
                  <angle>
                    <activevideoangle>false</activevideoangle>
                    <activeaudioangle>false</activeaudioangle>
                    <clip id="clip-5"/>
                  </angle>
                  <angle>
                    <activevideoangle>false</activevideoangle>
                    <activeaudioangle>false</activeaudioangle>
                    <clip id="clip-6"/>
                  </angle>
                  <angle>
                    <activevideoangle>false</activevideoangle>
                    <activeaudioangle>false</activeaudioangle>
                    <clip id="clip-7"/>
                  </angle>
                  <angle>
                    <activevideoangle>false</activevideoangle>
                    <activeaudioangle>false</activeaudioangle>
                    <clip id="clip-8"/>
                  </angle>
                  <angle>
                    <activevideoangle>false</activevideoangle>
                    <activeaudioangle>false</activeaudioangle>
                    <clip id="clip-9"/>
                  </angle>
                  <masterclipid>clip-master</masterclipid>
                </multiclip>
              </clipitem>
              <clipitem id="cs-115">
                <duration>78</duration>
                <rate>
                  <ntsc>false</ntsc>
                  <timebase>25</timebase>
                </rate>
                <in>15911</in>
                <out>15988</out>
                <start>15911</start>
                <end>15988</end>
                <file id="src-4"/>
                <sourcetrack>
                  <mediatype>video</mediatype>
                  <trackindex>1</trackindex>
                </sourcetrack>
                <multiclip id="mcs-115">
                  <name>MCS-115</name>
                  <masterclipid>clip-master</masterclipid>
                  <collapsed>false</collapsed>
                  <angle>
                    <activevideoangle>false</activevideoangle>
                    <activeaudioangle>false</activeaudioangle>
                    <clip id="clip-1"/>
                  </angle>
                  <angle>
                    <activevideoangle>false</activevideoangle>
                    <activeaudioangle>false</activeaudioangle>
                    <clip id="clip-2"/>
                  </angle>
                  <angle>
                    <activevideoangle>false</activevideoangle>
                    <activeaudioangle>false</activeaudioangle>
                    <clip id="clip-3"/>
                  </angle>
                  <angle>
                    <activevideoangle>true</activevideoangle>
                    <activeaudioangle>true</activeaudioangle>
                    <clip id="clip-4"/>
                  </angle>
                  <angle>
                    <activevideoangle>false</activevideoangle>
                    <activeaudioangle>false</activeaudioangle>
                    <clip id="clip-5"/>
                  </angle>
                  <angle>
                    <activevideoangle>false</activevideoangle>
                    <activeaudioangle>false</activeaudioangle>
                    <clip id="clip-6"/>
                  </angle>
                  <angle>
                    <activevideoangle>false</activevideoangle>
                    <activeaudioangle>false</activeaudioangle>
                    <clip id="clip-7"/>
                  </angle>
                  <angle>
                    <activevideoangle>false</activevideoangle>
                    <activeaudioangle>false</activeaudioangle>
                    <clip id="clip-8"/>
                  </angle>
                  <angle>
                    <activevideoangle>false</activevideoangle>
                    <activeaudioangle>false</activeaudioangle>
                    <clip id="clip-9"/>
                  </angle>
                  <masterclipid>clip-master</masterclipid>
                </multiclip>
              </clipitem>
              <clipitem id="cs-116">
                <duration>98</duration>
                <rate>
                  <ntsc>false</ntsc>
                  <timebase>25</timebase>
                </rate>
                <in>15988</in>
                <out>16085</out>
                <start>15988</start>
                <end>16085</end>
                <file id="src-6"/>
                <sourcetrack>
                  <mediatype>video</mediatype>
                  <trackindex>1</trackindex>
                </sourcetrack>
                <multiclip id="mcs-116">
                  <name>MCS-116</name>
                  <masterclipid>clip-master</masterclipid>
                  <collapsed>false</collapsed>
                  <angle>
                    <activevideoangle>false</activevideoangle>
                    <activeaudioangle>false</activeaudioangle>
                    <clip id="clip-1"/>
                  </angle>
                  <angle>
                    <activevideoangle>false</activevideoangle>
                    <activeaudioangle>false</activeaudioangle>
                    <clip id="clip-2"/>
                  </angle>
                  <angle>
                    <activevideoangle>false</activevideoangle>
                    <activeaudioangle>false</activeaudioangle>
                    <clip id="clip-3"/>
                  </angle>
                  <angle>
                    <activevideoangle>false</activevideoangle>
                    <activeaudioangle>false</activeaudioangle>
                    <clip id="clip-4"/>
                  </angle>
                  <angle>
                    <activevideoangle>false</activevideoangle>
                    <activeaudioangle>false</activeaudioangle>
                    <clip id="clip-5"/>
                  </angle>
                  <angle>
                    <activevideoangle>true</activevideoangle>
                    <activeaudioangle>true</activeaudioangle>
                    <clip id="clip-6"/>
                  </angle>
                  <angle>
                    <activevideoangle>false</activevideoangle>
                    <activeaudioangle>false</activeaudioangle>
                    <clip id="clip-7"/>
                  </angle>
                  <angle>
                    <activevideoangle>false</activevideoangle>
                    <activeaudioangle>false</activeaudioangle>
                    <clip id="clip-8"/>
                  </angle>
                  <angle>
                    <activevideoangle>false</activevideoangle>
                    <activeaudioangle>false</activeaudioangle>
                    <clip id="clip-9"/>
                  </angle>
                  <masterclipid>clip-master</masterclipid>
                </multiclip>
              </clipitem>
              <clipitem id="cs-117">
                <duration>154</duration>
                <rate>
                  <ntsc>false</ntsc>
                  <timebase>25</timebase>
                </rate>
                <in>16085</in>
                <out>16238</out>
                <start>16085</start>
                <end>16238</end>
                <file id="src-2"/>
                <sourcetrack>
                  <mediatype>video</mediatype>
                  <trackindex>1</trackindex>
                </sourcetrack>
                <multiclip id="mcs-117">
                  <name>MCS-117</name>
                  <masterclipid>clip-master</masterclipid>
                  <collapsed>false</collapsed>
                  <angle>
                    <activevideoangle>false</activevideoangle>
                    <activeaudioangle>false</activeaudioangle>
                    <clip id="clip-1"/>
                  </angle>
                  <angle>
                    <activevideoangle>true</activevideoangle>
                    <activeaudioangle>true</activeaudioangle>
                    <clip id="clip-2"/>
                  </angle>
                  <angle>
                    <activevideoangle>false</activevideoangle>
                    <activeaudioangle>false</activeaudioangle>
                    <clip id="clip-3"/>
                  </angle>
                  <angle>
                    <activevideoangle>false</activevideoangle>
                    <activeaudioangle>false</activeaudioangle>
                    <clip id="clip-4"/>
                  </angle>
                  <angle>
                    <activevideoangle>false</activevideoangle>
                    <activeaudioangle>false</activeaudioangle>
                    <clip id="clip-5"/>
                  </angle>
                  <angle>
                    <activevideoangle>false</activevideoangle>
                    <activeaudioangle>false</activeaudioangle>
                    <clip id="clip-6"/>
                  </angle>
                  <angle>
                    <activevideoangle>false</activevideoangle>
                    <activeaudioangle>false</activeaudioangle>
                    <clip id="clip-7"/>
                  </angle>
                  <angle>
                    <activevideoangle>false</activevideoangle>
                    <activeaudioangle>false</activeaudioangle>
                    <clip id="clip-8"/>
                  </angle>
                  <angle>
                    <activevideoangle>false</activevideoangle>
                    <activeaudioangle>false</activeaudioangle>
                    <clip id="clip-9"/>
                  </angle>
                  <masterclipid>clip-master</masterclipid>
                </multiclip>
              </clipitem>
              <clipitem id="cs-118">
                <duration>49</duration>
                <rate>
                  <ntsc>false</ntsc>
                  <timebase>25</timebase>
                </rate>
                <in>16238</in>
                <out>16286</out>
                <start>16238</start>
                <end>16286</end>
                <file id="src-3"/>
                <sourcetrack>
                  <mediatype>video</mediatype>
                  <trackindex>1</trackindex>
                </sourcetrack>
                <multiclip id="mcs-118">
                  <name>MCS-118</name>
                  <masterclipid>clip-master</masterclipid>
                  <collapsed>false</collapsed>
                  <angle>
                    <activevideoangle>false</activevideoangle>
                    <activeaudioangle>false</activeaudioangle>
                    <clip id="clip-1"/>
                  </angle>
                  <angle>
                    <activevideoangle>false</activevideoangle>
                    <activeaudioangle>false</activeaudioangle>
                    <clip id="clip-2"/>
                  </angle>
                  <angle>
                    <activevideoangle>true</activevideoangle>
                    <activeaudioangle>true</activeaudioangle>
                    <clip id="clip-3"/>
                  </angle>
                  <angle>
                    <activevideoangle>false</activevideoangle>
                    <activeaudioangle>false</activeaudioangle>
                    <clip id="clip-4"/>
                  </angle>
                  <angle>
                    <activevideoangle>false</activevideoangle>
                    <activeaudioangle>false</activeaudioangle>
                    <clip id="clip-5"/>
                  </angle>
                  <angle>
                    <activevideoangle>false</activevideoangle>
                    <activeaudioangle>false</activeaudioangle>
                    <clip id="clip-6"/>
                  </angle>
                  <angle>
                    <activevideoangle>false</activevideoangle>
                    <activeaudioangle>false</activeaudioangle>
                    <clip id="clip-7"/>
                  </angle>
                  <angle>
                    <activevideoangle>false</activevideoangle>
                    <activeaudioangle>false</activeaudioangle>
                    <clip id="clip-8"/>
                  </angle>
                  <angle>
                    <activevideoangle>false</activevideoangle>
                    <activeaudioangle>false</activeaudioangle>
                    <clip id="clip-9"/>
                  </angle>
                  <masterclipid>clip-master</masterclipid>
                </multiclip>
              </clipitem>
              <clipitem id="cs-119">
                <duration>109</duration>
                <rate>
                  <ntsc>false</ntsc>
                  <timebase>25</timebase>
                </rate>
                <in>16286</in>
                <out>16394</out>
                <start>16286</start>
                <end>16394</end>
                <file id="src-4"/>
                <sourcetrack>
                  <mediatype>video</mediatype>
                  <trackindex>1</trackindex>
                </sourcetrack>
                <multiclip id="mcs-119">
                  <name>MCS-119</name>
                  <masterclipid>clip-master</masterclipid>
                  <collapsed>false</collapsed>
                  <angle>
                    <activevideoangle>false</activevideoangle>
                    <activeaudioangle>false</activeaudioangle>
                    <clip id="clip-1"/>
                  </angle>
                  <angle>
                    <activevideoangle>false</activevideoangle>
                    <activeaudioangle>false</activeaudioangle>
                    <clip id="clip-2"/>
                  </angle>
                  <angle>
                    <activevideoangle>false</activevideoangle>
                    <activeaudioangle>false</activeaudioangle>
                    <clip id="clip-3"/>
                  </angle>
                  <angle>
                    <activevideoangle>true</activevideoangle>
                    <activeaudioangle>true</activeaudioangle>
                    <clip id="clip-4"/>
                  </angle>
                  <angle>
                    <activevideoangle>false</activevideoangle>
                    <activeaudioangle>false</activeaudioangle>
                    <clip id="clip-5"/>
                  </angle>
                  <angle>
                    <activevideoangle>false</activevideoangle>
                    <activeaudioangle>false</activeaudioangle>
                    <clip id="clip-6"/>
                  </angle>
                  <angle>
                    <activevideoangle>false</activevideoangle>
                    <activeaudioangle>false</activeaudioangle>
                    <clip id="clip-7"/>
                  </angle>
                  <angle>
                    <activevideoangle>false</activevideoangle>
                    <activeaudioangle>false</activeaudioangle>
                    <clip id="clip-8"/>
                  </angle>
                  <angle>
                    <activevideoangle>false</activevideoangle>
                    <activeaudioangle>false</activeaudioangle>
                    <clip id="clip-9"/>
                  </angle>
                  <masterclipid>clip-master</masterclipid>
                </multiclip>
              </clipitem>
              <clipitem id="cs-120">
                <duration>162</duration>
                <rate>
                  <ntsc>false</ntsc>
                  <timebase>25</timebase>
                </rate>
                <in>16394</in>
                <out>16555</out>
                <start>16394</start>
                <end>16555</end>
                <file id="src-2"/>
                <sourcetrack>
                  <mediatype>video</mediatype>
                  <trackindex>1</trackindex>
                </sourcetrack>
                <multiclip id="mcs-120">
                  <name>MCS-120</name>
                  <masterclipid>clip-master</masterclipid>
                  <collapsed>false</collapsed>
                  <angle>
                    <activevideoangle>false</activevideoangle>
                    <activeaudioangle>false</activeaudioangle>
                    <clip id="clip-1"/>
                  </angle>
                  <angle>
                    <activevideoangle>true</activevideoangle>
                    <activeaudioangle>true</activeaudioangle>
                    <clip id="clip-2"/>
                  </angle>
                  <angle>
                    <activevideoangle>false</activevideoangle>
                    <activeaudioangle>false</activeaudioangle>
                    <clip id="clip-3"/>
                  </angle>
                  <angle>
                    <activevideoangle>false</activevideoangle>
                    <activeaudioangle>false</activeaudioangle>
                    <clip id="clip-4"/>
                  </angle>
                  <angle>
                    <activevideoangle>false</activevideoangle>
                    <activeaudioangle>false</activeaudioangle>
                    <clip id="clip-5"/>
                  </angle>
                  <angle>
                    <activevideoangle>false</activevideoangle>
                    <activeaudioangle>false</activeaudioangle>
                    <clip id="clip-6"/>
                  </angle>
                  <angle>
                    <activevideoangle>false</activevideoangle>
                    <activeaudioangle>false</activeaudioangle>
                    <clip id="clip-7"/>
                  </angle>
                  <angle>
                    <activevideoangle>false</activevideoangle>
                    <activeaudioangle>false</activeaudioangle>
                    <clip id="clip-8"/>
                  </angle>
                  <angle>
                    <activevideoangle>false</activevideoangle>
                    <activeaudioangle>false</activeaudioangle>
                    <clip id="clip-9"/>
                  </angle>
                  <masterclipid>clip-master</masterclipid>
                </multiclip>
              </clipitem>
              <clipitem id="cs-121">
                <duration>67</duration>
                <rate>
                  <ntsc>false</ntsc>
                  <timebase>25</timebase>
                </rate>
                <in>16555</in>
                <out>16621</out>
                <start>16555</start>
                <end>16621</end>
                <file id="src-4"/>
                <sourcetrack>
                  <mediatype>video</mediatype>
                  <trackindex>1</trackindex>
                </sourcetrack>
                <multiclip id="mcs-121">
                  <name>MCS-121</name>
                  <masterclipid>clip-master</masterclipid>
                  <collapsed>false</collapsed>
                  <angle>
                    <activevideoangle>false</activevideoangle>
                    <activeaudioangle>false</activeaudioangle>
                    <clip id="clip-1"/>
                  </angle>
                  <angle>
                    <activevideoangle>false</activevideoangle>
                    <activeaudioangle>false</activeaudioangle>
                    <clip id="clip-2"/>
                  </angle>
                  <angle>
                    <activevideoangle>false</activevideoangle>
                    <activeaudioangle>false</activeaudioangle>
                    <clip id="clip-3"/>
                  </angle>
                  <angle>
                    <activevideoangle>true</activevideoangle>
                    <activeaudioangle>true</activeaudioangle>
                    <clip id="clip-4"/>
                  </angle>
                  <angle>
                    <activevideoangle>false</activevideoangle>
                    <activeaudioangle>false</activeaudioangle>
                    <clip id="clip-5"/>
                  </angle>
                  <angle>
                    <activevideoangle>false</activevideoangle>
                    <activeaudioangle>false</activeaudioangle>
                    <clip id="clip-6"/>
                  </angle>
                  <angle>
                    <activevideoangle>false</activevideoangle>
                    <activeaudioangle>false</activeaudioangle>
                    <clip id="clip-7"/>
                  </angle>
                  <angle>
                    <activevideoangle>false</activevideoangle>
                    <activeaudioangle>false</activeaudioangle>
                    <clip id="clip-8"/>
                  </angle>
                  <angle>
                    <activevideoangle>false</activevideoangle>
                    <activeaudioangle>false</activeaudioangle>
                    <clip id="clip-9"/>
                  </angle>
                  <masterclipid>clip-master</masterclipid>
                </multiclip>
              </clipitem>
              <clipitem id="cs-122">
                <duration>124</duration>
                <rate>
                  <ntsc>false</ntsc>
                  <timebase>25</timebase>
                </rate>
                <in>16621</in>
                <out>16744</out>
                <start>16621</start>
                <end>16744</end>
                <file id="src-6"/>
                <sourcetrack>
                  <mediatype>video</mediatype>
                  <trackindex>1</trackindex>
                </sourcetrack>
                <multiclip id="mcs-122">
                  <name>MCS-122</name>
                  <masterclipid>clip-master</masterclipid>
                  <collapsed>false</collapsed>
                  <angle>
                    <activevideoangle>false</activevideoangle>
                    <activeaudioangle>false</activeaudioangle>
                    <clip id="clip-1"/>
                  </angle>
                  <angle>
                    <activevideoangle>false</activevideoangle>
                    <activeaudioangle>false</activeaudioangle>
                    <clip id="clip-2"/>
                  </angle>
                  <angle>
                    <activevideoangle>false</activevideoangle>
                    <activeaudioangle>false</activeaudioangle>
                    <clip id="clip-3"/>
                  </angle>
                  <angle>
                    <activevideoangle>false</activevideoangle>
                    <activeaudioangle>false</activeaudioangle>
                    <clip id="clip-4"/>
                  </angle>
                  <angle>
                    <activevideoangle>false</activevideoangle>
                    <activeaudioangle>false</activeaudioangle>
                    <clip id="clip-5"/>
                  </angle>
                  <angle>
                    <activevideoangle>true</activevideoangle>
                    <activeaudioangle>true</activeaudioangle>
                    <clip id="clip-6"/>
                  </angle>
                  <angle>
                    <activevideoangle>false</activevideoangle>
                    <activeaudioangle>false</activeaudioangle>
                    <clip id="clip-7"/>
                  </angle>
                  <angle>
                    <activevideoangle>false</activevideoangle>
                    <activeaudioangle>false</activeaudioangle>
                    <clip id="clip-8"/>
                  </angle>
                  <angle>
                    <activevideoangle>false</activevideoangle>
                    <activeaudioangle>false</activeaudioangle>
                    <clip id="clip-9"/>
                  </angle>
                  <masterclipid>clip-master</masterclipid>
                </multiclip>
              </clipitem>
              <clipitem id="cs-123">
                <duration>104</duration>
                <rate>
                  <ntsc>false</ntsc>
                  <timebase>25</timebase>
                </rate>
                <in>16744</in>
                <out>16847</out>
                <start>16744</start>
                <end>16847</end>
                <file id="src-3"/>
                <sourcetrack>
                  <mediatype>video</mediatype>
                  <trackindex>1</trackindex>
                </sourcetrack>
                <multiclip id="mcs-123">
                  <name>MCS-123</name>
                  <masterclipid>clip-master</masterclipid>
                  <collapsed>false</collapsed>
                  <angle>
                    <activevideoangle>false</activevideoangle>
                    <activeaudioangle>false</activeaudioangle>
                    <clip id="clip-1"/>
                  </angle>
                  <angle>
                    <activevideoangle>false</activevideoangle>
                    <activeaudioangle>false</activeaudioangle>
                    <clip id="clip-2"/>
                  </angle>
                  <angle>
                    <activevideoangle>true</activevideoangle>
                    <activeaudioangle>true</activeaudioangle>
                    <clip id="clip-3"/>
                  </angle>
                  <angle>
                    <activevideoangle>false</activevideoangle>
                    <activeaudioangle>false</activeaudioangle>
                    <clip id="clip-4"/>
                  </angle>
                  <angle>
                    <activevideoangle>false</activevideoangle>
                    <activeaudioangle>false</activeaudioangle>
                    <clip id="clip-5"/>
                  </angle>
                  <angle>
                    <activevideoangle>false</activevideoangle>
                    <activeaudioangle>false</activeaudioangle>
                    <clip id="clip-6"/>
                  </angle>
                  <angle>
                    <activevideoangle>false</activevideoangle>
                    <activeaudioangle>false</activeaudioangle>
                    <clip id="clip-7"/>
                  </angle>
                  <angle>
                    <activevideoangle>false</activevideoangle>
                    <activeaudioangle>false</activeaudioangle>
                    <clip id="clip-8"/>
                  </angle>
                  <angle>
                    <activevideoangle>false</activevideoangle>
                    <activeaudioangle>false</activeaudioangle>
                    <clip id="clip-9"/>
                  </angle>
                  <masterclipid>clip-master</masterclipid>
                </multiclip>
              </clipitem>
              <clipitem id="cs-124">
                <duration>93</duration>
                <rate>
                  <ntsc>false</ntsc>
                  <timebase>25</timebase>
                </rate>
                <in>16847</in>
                <out>16939</out>
                <start>16847</start>
                <end>16939</end>
                <file id="src-2"/>
                <sourcetrack>
                  <mediatype>video</mediatype>
                  <trackindex>1</trackindex>
                </sourcetrack>
                <multiclip id="mcs-124">
                  <name>MCS-124</name>
                  <masterclipid>clip-master</masterclipid>
                  <collapsed>false</collapsed>
                  <angle>
                    <activevideoangle>false</activevideoangle>
                    <activeaudioangle>false</activeaudioangle>
                    <clip id="clip-1"/>
                  </angle>
                  <angle>
                    <activevideoangle>true</activevideoangle>
                    <activeaudioangle>true</activeaudioangle>
                    <clip id="clip-2"/>
                  </angle>
                  <angle>
                    <activevideoangle>false</activevideoangle>
                    <activeaudioangle>false</activeaudioangle>
                    <clip id="clip-3"/>
                  </angle>
                  <angle>
                    <activevideoangle>false</activevideoangle>
                    <activeaudioangle>false</activeaudioangle>
                    <clip id="clip-4"/>
                  </angle>
                  <angle>
                    <activevideoangle>false</activevideoangle>
                    <activeaudioangle>false</activeaudioangle>
                    <clip id="clip-5"/>
                  </angle>
                  <angle>
                    <activevideoangle>false</activevideoangle>
                    <activeaudioangle>false</activeaudioangle>
                    <clip id="clip-6"/>
                  </angle>
                  <angle>
                    <activevideoangle>false</activevideoangle>
                    <activeaudioangle>false</activeaudioangle>
                    <clip id="clip-7"/>
                  </angle>
                  <angle>
                    <activevideoangle>false</activevideoangle>
                    <activeaudioangle>false</activeaudioangle>
                    <clip id="clip-8"/>
                  </angle>
                  <angle>
                    <activevideoangle>false</activevideoangle>
                    <activeaudioangle>false</activeaudioangle>
                    <clip id="clip-9"/>
                  </angle>
                  <masterclipid>clip-master</masterclipid>
                </multiclip>
              </clipitem>
              <clipitem id="cs-125">
                <duration>142</duration>
                <rate>
                  <ntsc>false</ntsc>
                  <timebase>25</timebase>
                </rate>
                <in>16939</in>
                <out>17080</out>
                <start>16939</start>
                <end>17080</end>
                <file id="src-4"/>
                <sourcetrack>
                  <mediatype>video</mediatype>
                  <trackindex>1</trackindex>
                </sourcetrack>
                <multiclip id="mcs-125">
                  <name>MCS-125</name>
                  <masterclipid>clip-master</masterclipid>
                  <collapsed>false</collapsed>
                  <angle>
                    <activevideoangle>false</activevideoangle>
                    <activeaudioangle>false</activeaudioangle>
                    <clip id="clip-1"/>
                  </angle>
                  <angle>
                    <activevideoangle>false</activevideoangle>
                    <activeaudioangle>false</activeaudioangle>
                    <clip id="clip-2"/>
                  </angle>
                  <angle>
                    <activevideoangle>false</activevideoangle>
                    <activeaudioangle>false</activeaudioangle>
                    <clip id="clip-3"/>
                  </angle>
                  <angle>
                    <activevideoangle>true</activevideoangle>
                    <activeaudioangle>true</activeaudioangle>
                    <clip id="clip-4"/>
                  </angle>
                  <angle>
                    <activevideoangle>false</activevideoangle>
                    <activeaudioangle>false</activeaudioangle>
                    <clip id="clip-5"/>
                  </angle>
                  <angle>
                    <activevideoangle>false</activevideoangle>
                    <activeaudioangle>false</activeaudioangle>
                    <clip id="clip-6"/>
                  </angle>
                  <angle>
                    <activevideoangle>false</activevideoangle>
                    <activeaudioangle>false</activeaudioangle>
                    <clip id="clip-7"/>
                  </angle>
                  <angle>
                    <activevideoangle>false</activevideoangle>
                    <activeaudioangle>false</activeaudioangle>
                    <clip id="clip-8"/>
                  </angle>
                  <angle>
                    <activevideoangle>false</activevideoangle>
                    <activeaudioangle>false</activeaudioangle>
                    <clip id="clip-9"/>
                  </angle>
                  <masterclipid>clip-master</masterclipid>
                </multiclip>
              </clipitem>
              <clipitem id="cs-126">
                <duration>76</duration>
                <rate>
                  <ntsc>false</ntsc>
                  <timebase>25</timebase>
                </rate>
                <in>17080</in>
                <out>17155</out>
                <start>17080</start>
                <end>17155</end>
                <file id="src-5"/>
                <sourcetrack>
                  <mediatype>video</mediatype>
                  <trackindex>1</trackindex>
                </sourcetrack>
                <multiclip id="mcs-126">
                  <name>MCS-126</name>
                  <masterclipid>clip-master</masterclipid>
                  <collapsed>false</collapsed>
                  <angle>
                    <activevideoangle>false</activevideoangle>
                    <activeaudioangle>false</activeaudioangle>
                    <clip id="clip-1"/>
                  </angle>
                  <angle>
                    <activevideoangle>false</activevideoangle>
                    <activeaudioangle>false</activeaudioangle>
                    <clip id="clip-2"/>
                  </angle>
                  <angle>
                    <activevideoangle>false</activevideoangle>
                    <activeaudioangle>false</activeaudioangle>
                    <clip id="clip-3"/>
                  </angle>
                  <angle>
                    <activevideoangle>false</activevideoangle>
                    <activeaudioangle>false</activeaudioangle>
                    <clip id="clip-4"/>
                  </angle>
                  <angle>
                    <activevideoangle>true</activevideoangle>
                    <activeaudioangle>true</activeaudioangle>
                    <clip id="clip-5"/>
                  </angle>
                  <angle>
                    <activevideoangle>false</activevideoangle>
                    <activeaudioangle>false</activeaudioangle>
                    <clip id="clip-6"/>
                  </angle>
                  <angle>
                    <activevideoangle>false</activevideoangle>
                    <activeaudioangle>false</activeaudioangle>
                    <clip id="clip-7"/>
                  </angle>
                  <angle>
                    <activevideoangle>false</activevideoangle>
                    <activeaudioangle>false</activeaudioangle>
                    <clip id="clip-8"/>
                  </angle>
                  <angle>
                    <activevideoangle>false</activevideoangle>
                    <activeaudioangle>false</activeaudioangle>
                    <clip id="clip-9"/>
                  </angle>
                  <masterclipid>clip-master</masterclipid>
                </multiclip>
              </clipitem>
              <clipitem id="cs-127">
                <duration>70</duration>
                <rate>
                  <ntsc>false</ntsc>
                  <timebase>25</timebase>
                </rate>
                <in>17155</in>
                <out>17224</out>
                <start>17155</start>
                <end>17224</end>
                <file id="src-4"/>
                <sourcetrack>
                  <mediatype>video</mediatype>
                  <trackindex>1</trackindex>
                </sourcetrack>
                <multiclip id="mcs-127">
                  <name>MCS-127</name>
                  <masterclipid>clip-master</masterclipid>
                  <collapsed>false</collapsed>
                  <angle>
                    <activevideoangle>false</activevideoangle>
                    <activeaudioangle>false</activeaudioangle>
                    <clip id="clip-1"/>
                  </angle>
                  <angle>
                    <activevideoangle>false</activevideoangle>
                    <activeaudioangle>false</activeaudioangle>
                    <clip id="clip-2"/>
                  </angle>
                  <angle>
                    <activevideoangle>false</activevideoangle>
                    <activeaudioangle>false</activeaudioangle>
                    <clip id="clip-3"/>
                  </angle>
                  <angle>
                    <activevideoangle>true</activevideoangle>
                    <activeaudioangle>true</activeaudioangle>
                    <clip id="clip-4"/>
                  </angle>
                  <angle>
                    <activevideoangle>false</activevideoangle>
                    <activeaudioangle>false</activeaudioangle>
                    <clip id="clip-5"/>
                  </angle>
                  <angle>
                    <activevideoangle>false</activevideoangle>
                    <activeaudioangle>false</activeaudioangle>
                    <clip id="clip-6"/>
                  </angle>
                  <angle>
                    <activevideoangle>false</activevideoangle>
                    <activeaudioangle>false</activeaudioangle>
                    <clip id="clip-7"/>
                  </angle>
                  <angle>
                    <activevideoangle>false</activevideoangle>
                    <activeaudioangle>false</activeaudioangle>
                    <clip id="clip-8"/>
                  </angle>
                  <angle>
                    <activevideoangle>false</activevideoangle>
                    <activeaudioangle>false</activeaudioangle>
                    <clip id="clip-9"/>
                  </angle>
                  <masterclipid>clip-master</masterclipid>
                </multiclip>
              </clipitem>
              <clipitem id="cs-128">
                <duration>56</duration>
                <rate>
                  <ntsc>false</ntsc>
                  <timebase>25</timebase>
                </rate>
                <in>17224</in>
                <out>17279</out>
                <start>17224</start>
                <end>17279</end>
                <file id="src-2"/>
                <sourcetrack>
                  <mediatype>video</mediatype>
                  <trackindex>1</trackindex>
                </sourcetrack>
                <multiclip id="mcs-128">
                  <name>MCS-128</name>
                  <masterclipid>clip-master</masterclipid>
                  <collapsed>false</collapsed>
                  <angle>
                    <activevideoangle>false</activevideoangle>
                    <activeaudioangle>false</activeaudioangle>
                    <clip id="clip-1"/>
                  </angle>
                  <angle>
                    <activevideoangle>true</activevideoangle>
                    <activeaudioangle>true</activeaudioangle>
                    <clip id="clip-2"/>
                  </angle>
                  <angle>
                    <activevideoangle>false</activevideoangle>
                    <activeaudioangle>false</activeaudioangle>
                    <clip id="clip-3"/>
                  </angle>
                  <angle>
                    <activevideoangle>false</activevideoangle>
                    <activeaudioangle>false</activeaudioangle>
                    <clip id="clip-4"/>
                  </angle>
                  <angle>
                    <activevideoangle>false</activevideoangle>
                    <activeaudioangle>false</activeaudioangle>
                    <clip id="clip-5"/>
                  </angle>
                  <angle>
                    <activevideoangle>false</activevideoangle>
                    <activeaudioangle>false</activeaudioangle>
                    <clip id="clip-6"/>
                  </angle>
                  <angle>
                    <activevideoangle>false</activevideoangle>
                    <activeaudioangle>false</activeaudioangle>
                    <clip id="clip-7"/>
                  </angle>
                  <angle>
                    <activevideoangle>false</activevideoangle>
                    <activeaudioangle>false</activeaudioangle>
                    <clip id="clip-8"/>
                  </angle>
                  <angle>
                    <activevideoangle>false</activevideoangle>
                    <activeaudioangle>false</activeaudioangle>
                    <clip id="clip-9"/>
                  </angle>
                  <masterclipid>clip-master</masterclipid>
                </multiclip>
              </clipitem>
              <clipitem id="cs-129">
                <duration>93</duration>
                <rate>
                  <ntsc>false</ntsc>
                  <timebase>25</timebase>
                </rate>
                <in>17279</in>
                <out>17371</out>
                <start>17279</start>
                <end>17371</end>
                <file id="src-3"/>
                <sourcetrack>
                  <mediatype>video</mediatype>
                  <trackindex>1</trackindex>
                </sourcetrack>
                <multiclip id="mcs-129">
                  <name>MCS-129</name>
                  <masterclipid>clip-master</masterclipid>
                  <collapsed>false</collapsed>
                  <angle>
                    <activevideoangle>false</activevideoangle>
                    <activeaudioangle>false</activeaudioangle>
                    <clip id="clip-1"/>
                  </angle>
                  <angle>
                    <activevideoangle>false</activevideoangle>
                    <activeaudioangle>false</activeaudioangle>
                    <clip id="clip-2"/>
                  </angle>
                  <angle>
                    <activevideoangle>true</activevideoangle>
                    <activeaudioangle>true</activeaudioangle>
                    <clip id="clip-3"/>
                  </angle>
                  <angle>
                    <activevideoangle>false</activevideoangle>
                    <activeaudioangle>false</activeaudioangle>
                    <clip id="clip-4"/>
                  </angle>
                  <angle>
                    <activevideoangle>false</activevideoangle>
                    <activeaudioangle>false</activeaudioangle>
                    <clip id="clip-5"/>
                  </angle>
                  <angle>
                    <activevideoangle>false</activevideoangle>
                    <activeaudioangle>false</activeaudioangle>
                    <clip id="clip-6"/>
                  </angle>
                  <angle>
                    <activevideoangle>false</activevideoangle>
                    <activeaudioangle>false</activeaudioangle>
                    <clip id="clip-7"/>
                  </angle>
                  <angle>
                    <activevideoangle>false</activevideoangle>
                    <activeaudioangle>false</activeaudioangle>
                    <clip id="clip-8"/>
                  </angle>
                  <angle>
                    <activevideoangle>false</activevideoangle>
                    <activeaudioangle>false</activeaudioangle>
                    <clip id="clip-9"/>
                  </angle>
                  <masterclipid>clip-master</masterclipid>
                </multiclip>
              </clipitem>
              <clipitem id="cs-130">
                <duration>111</duration>
                <rate>
                  <ntsc>false</ntsc>
                  <timebase>25</timebase>
                </rate>
                <in>17371</in>
                <out>17481</out>
                <start>17371</start>
                <end>17481</end>
                <file id="src-6"/>
                <sourcetrack>
                  <mediatype>video</mediatype>
                  <trackindex>1</trackindex>
                </sourcetrack>
                <multiclip id="mcs-130">
                  <name>MCS-130</name>
                  <masterclipid>clip-master</masterclipid>
                  <collapsed>false</collapsed>
                  <angle>
                    <activevideoangle>false</activevideoangle>
                    <activeaudioangle>false</activeaudioangle>
                    <clip id="clip-1"/>
                  </angle>
                  <angle>
                    <activevideoangle>false</activevideoangle>
                    <activeaudioangle>false</activeaudioangle>
                    <clip id="clip-2"/>
                  </angle>
                  <angle>
                    <activevideoangle>false</activevideoangle>
                    <activeaudioangle>false</activeaudioangle>
                    <clip id="clip-3"/>
                  </angle>
                  <angle>
                    <activevideoangle>false</activevideoangle>
                    <activeaudioangle>false</activeaudioangle>
                    <clip id="clip-4"/>
                  </angle>
                  <angle>
                    <activevideoangle>false</activevideoangle>
                    <activeaudioangle>false</activeaudioangle>
                    <clip id="clip-5"/>
                  </angle>
                  <angle>
                    <activevideoangle>true</activevideoangle>
                    <activeaudioangle>true</activeaudioangle>
                    <clip id="clip-6"/>
                  </angle>
                  <angle>
                    <activevideoangle>false</activevideoangle>
                    <activeaudioangle>false</activeaudioangle>
                    <clip id="clip-7"/>
                  </angle>
                  <angle>
                    <activevideoangle>false</activevideoangle>
                    <activeaudioangle>false</activeaudioangle>
                    <clip id="clip-8"/>
                  </angle>
                  <angle>
                    <activevideoangle>false</activevideoangle>
                    <activeaudioangle>false</activeaudioangle>
                    <clip id="clip-9"/>
                  </angle>
                  <masterclipid>clip-master</masterclipid>
                </multiclip>
              </clipitem>
              <clipitem id="cs-131">
                <duration>131</duration>
                <rate>
                  <ntsc>false</ntsc>
                  <timebase>25</timebase>
                </rate>
                <in>17481</in>
                <out>17611</out>
                <start>17481</start>
                <end>17611</end>
                <file id="src-4"/>
                <sourcetrack>
                  <mediatype>video</mediatype>
                  <trackindex>1</trackindex>
                </sourcetrack>
                <multiclip id="mcs-131">
                  <name>MCS-131</name>
                  <masterclipid>clip-master</masterclipid>
                  <collapsed>false</collapsed>
                  <angle>
                    <activevideoangle>false</activevideoangle>
                    <activeaudioangle>false</activeaudioangle>
                    <clip id="clip-1"/>
                  </angle>
                  <angle>
                    <activevideoangle>false</activevideoangle>
                    <activeaudioangle>false</activeaudioangle>
                    <clip id="clip-2"/>
                  </angle>
                  <angle>
                    <activevideoangle>false</activevideoangle>
                    <activeaudioangle>false</activeaudioangle>
                    <clip id="clip-3"/>
                  </angle>
                  <angle>
                    <activevideoangle>true</activevideoangle>
                    <activeaudioangle>true</activeaudioangle>
                    <clip id="clip-4"/>
                  </angle>
                  <angle>
                    <activevideoangle>false</activevideoangle>
                    <activeaudioangle>false</activeaudioangle>
                    <clip id="clip-5"/>
                  </angle>
                  <angle>
                    <activevideoangle>false</activevideoangle>
                    <activeaudioangle>false</activeaudioangle>
                    <clip id="clip-6"/>
                  </angle>
                  <angle>
                    <activevideoangle>false</activevideoangle>
                    <activeaudioangle>false</activeaudioangle>
                    <clip id="clip-7"/>
                  </angle>
                  <angle>
                    <activevideoangle>false</activevideoangle>
                    <activeaudioangle>false</activeaudioangle>
                    <clip id="clip-8"/>
                  </angle>
                  <angle>
                    <activevideoangle>false</activevideoangle>
                    <activeaudioangle>false</activeaudioangle>
                    <clip id="clip-9"/>
                  </angle>
                  <masterclipid>clip-master</masterclipid>
                </multiclip>
              </clipitem>
              <clipitem id="cs-132">
                <duration>105</duration>
                <rate>
                  <ntsc>false</ntsc>
                  <timebase>25</timebase>
                </rate>
                <in>17611</in>
                <out>17715</out>
                <start>17611</start>
                <end>17715</end>
                <file id="src-2"/>
                <sourcetrack>
                  <mediatype>video</mediatype>
                  <trackindex>1</trackindex>
                </sourcetrack>
                <multiclip id="mcs-132">
                  <name>MCS-132</name>
                  <masterclipid>clip-master</masterclipid>
                  <collapsed>false</collapsed>
                  <angle>
                    <activevideoangle>false</activevideoangle>
                    <activeaudioangle>false</activeaudioangle>
                    <clip id="clip-1"/>
                  </angle>
                  <angle>
                    <activevideoangle>true</activevideoangle>
                    <activeaudioangle>true</activeaudioangle>
                    <clip id="clip-2"/>
                  </angle>
                  <angle>
                    <activevideoangle>false</activevideoangle>
                    <activeaudioangle>false</activeaudioangle>
                    <clip id="clip-3"/>
                  </angle>
                  <angle>
                    <activevideoangle>false</activevideoangle>
                    <activeaudioangle>false</activeaudioangle>
                    <clip id="clip-4"/>
                  </angle>
                  <angle>
                    <activevideoangle>false</activevideoangle>
                    <activeaudioangle>false</activeaudioangle>
                    <clip id="clip-5"/>
                  </angle>
                  <angle>
                    <activevideoangle>false</activevideoangle>
                    <activeaudioangle>false</activeaudioangle>
                    <clip id="clip-6"/>
                  </angle>
                  <angle>
                    <activevideoangle>false</activevideoangle>
                    <activeaudioangle>false</activeaudioangle>
                    <clip id="clip-7"/>
                  </angle>
                  <angle>
                    <activevideoangle>false</activevideoangle>
                    <activeaudioangle>false</activeaudioangle>
                    <clip id="clip-8"/>
                  </angle>
                  <angle>
                    <activevideoangle>false</activevideoangle>
                    <activeaudioangle>false</activeaudioangle>
                    <clip id="clip-9"/>
                  </angle>
                  <masterclipid>clip-master</masterclipid>
                </multiclip>
              </clipitem>
              <clipitem id="cs-133">
                <duration>40</duration>
                <rate>
                  <ntsc>false</ntsc>
                  <timebase>25</timebase>
                </rate>
                <in>17715</in>
                <out>17754</out>
                <start>17715</start>
                <end>17754</end>
                <file id="src-5"/>
                <sourcetrack>
                  <mediatype>video</mediatype>
                  <trackindex>1</trackindex>
                </sourcetrack>
                <multiclip id="mcs-133">
                  <name>MCS-133</name>
                  <masterclipid>clip-master</masterclipid>
                  <collapsed>false</collapsed>
                  <angle>
                    <activevideoangle>false</activevideoangle>
                    <activeaudioangle>false</activeaudioangle>
                    <clip id="clip-1"/>
                  </angle>
                  <angle>
                    <activevideoangle>false</activevideoangle>
                    <activeaudioangle>false</activeaudioangle>
                    <clip id="clip-2"/>
                  </angle>
                  <angle>
                    <activevideoangle>false</activevideoangle>
                    <activeaudioangle>false</activeaudioangle>
                    <clip id="clip-3"/>
                  </angle>
                  <angle>
                    <activevideoangle>false</activevideoangle>
                    <activeaudioangle>false</activeaudioangle>
                    <clip id="clip-4"/>
                  </angle>
                  <angle>
                    <activevideoangle>true</activevideoangle>
                    <activeaudioangle>true</activeaudioangle>
                    <clip id="clip-5"/>
                  </angle>
                  <angle>
                    <activevideoangle>false</activevideoangle>
                    <activeaudioangle>false</activeaudioangle>
                    <clip id="clip-6"/>
                  </angle>
                  <angle>
                    <activevideoangle>false</activevideoangle>
                    <activeaudioangle>false</activeaudioangle>
                    <clip id="clip-7"/>
                  </angle>
                  <angle>
                    <activevideoangle>false</activevideoangle>
                    <activeaudioangle>false</activeaudioangle>
                    <clip id="clip-8"/>
                  </angle>
                  <angle>
                    <activevideoangle>false</activevideoangle>
                    <activeaudioangle>false</activeaudioangle>
                    <clip id="clip-9"/>
                  </angle>
                  <masterclipid>clip-master</masterclipid>
                </multiclip>
              </clipitem>
              <clipitem id="cs-134">
                <duration>43</duration>
                <rate>
                  <ntsc>false</ntsc>
                  <timebase>25</timebase>
                </rate>
                <in>17754</in>
                <out>17796</out>
                <start>17754</start>
                <end>17796</end>
                <file id="src-4"/>
                <sourcetrack>
                  <mediatype>video</mediatype>
                  <trackindex>1</trackindex>
                </sourcetrack>
                <multiclip id="mcs-134">
                  <name>MCS-134</name>
                  <masterclipid>clip-master</masterclipid>
                  <collapsed>false</collapsed>
                  <angle>
                    <activevideoangle>false</activevideoangle>
                    <activeaudioangle>false</activeaudioangle>
                    <clip id="clip-1"/>
                  </angle>
                  <angle>
                    <activevideoangle>false</activevideoangle>
                    <activeaudioangle>false</activeaudioangle>
                    <clip id="clip-2"/>
                  </angle>
                  <angle>
                    <activevideoangle>false</activevideoangle>
                    <activeaudioangle>false</activeaudioangle>
                    <clip id="clip-3"/>
                  </angle>
                  <angle>
                    <activevideoangle>true</activevideoangle>
                    <activeaudioangle>true</activeaudioangle>
                    <clip id="clip-4"/>
                  </angle>
                  <angle>
                    <activevideoangle>false</activevideoangle>
                    <activeaudioangle>false</activeaudioangle>
                    <clip id="clip-5"/>
                  </angle>
                  <angle>
                    <activevideoangle>false</activevideoangle>
                    <activeaudioangle>false</activeaudioangle>
                    <clip id="clip-6"/>
                  </angle>
                  <angle>
                    <activevideoangle>false</activevideoangle>
                    <activeaudioangle>false</activeaudioangle>
                    <clip id="clip-7"/>
                  </angle>
                  <angle>
                    <activevideoangle>false</activevideoangle>
                    <activeaudioangle>false</activeaudioangle>
                    <clip id="clip-8"/>
                  </angle>
                  <angle>
                    <activevideoangle>false</activevideoangle>
                    <activeaudioangle>false</activeaudioangle>
                    <clip id="clip-9"/>
                  </angle>
                  <masterclipid>clip-master</masterclipid>
                </multiclip>
              </clipitem>
              <clipitem id="cs-135">
                <duration>124</duration>
                <rate>
                  <ntsc>false</ntsc>
                  <timebase>25</timebase>
                </rate>
                <in>17796</in>
                <out>17919</out>
                <start>17796</start>
                <end>17919</end>
                <file id="src-2"/>
                <sourcetrack>
                  <mediatype>video</mediatype>
                  <trackindex>1</trackindex>
                </sourcetrack>
                <multiclip id="mcs-135">
                  <name>MCS-135</name>
                  <masterclipid>clip-master</masterclipid>
                  <collapsed>false</collapsed>
                  <angle>
                    <activevideoangle>false</activevideoangle>
                    <activeaudioangle>false</activeaudioangle>
                    <clip id="clip-1"/>
                  </angle>
                  <angle>
                    <activevideoangle>true</activevideoangle>
                    <activeaudioangle>true</activeaudioangle>
                    <clip id="clip-2"/>
                  </angle>
                  <angle>
                    <activevideoangle>false</activevideoangle>
                    <activeaudioangle>false</activeaudioangle>
                    <clip id="clip-3"/>
                  </angle>
                  <angle>
                    <activevideoangle>false</activevideoangle>
                    <activeaudioangle>false</activeaudioangle>
                    <clip id="clip-4"/>
                  </angle>
                  <angle>
                    <activevideoangle>false</activevideoangle>
                    <activeaudioangle>false</activeaudioangle>
                    <clip id="clip-5"/>
                  </angle>
                  <angle>
                    <activevideoangle>false</activevideoangle>
                    <activeaudioangle>false</activeaudioangle>
                    <clip id="clip-6"/>
                  </angle>
                  <angle>
                    <activevideoangle>false</activevideoangle>
                    <activeaudioangle>false</activeaudioangle>
                    <clip id="clip-7"/>
                  </angle>
                  <angle>
                    <activevideoangle>false</activevideoangle>
                    <activeaudioangle>false</activeaudioangle>
                    <clip id="clip-8"/>
                  </angle>
                  <angle>
                    <activevideoangle>false</activevideoangle>
                    <activeaudioangle>false</activeaudioangle>
                    <clip id="clip-9"/>
                  </angle>
                  <masterclipid>clip-master</masterclipid>
                </multiclip>
              </clipitem>
              <clipitem id="cs-136">
                <duration>308</duration>
                <rate>
                  <ntsc>false</ntsc>
                  <timebase>25</timebase>
                </rate>
                <in>17919</in>
                <out>18226</out>
                <start>17919</start>
                <end>18226</end>
                <file id="src-3"/>
                <sourcetrack>
                  <mediatype>video</mediatype>
                  <trackindex>1</trackindex>
                </sourcetrack>
                <multiclip id="mcs-136">
                  <name>MCS-136</name>
                  <masterclipid>clip-master</masterclipid>
                  <collapsed>false</collapsed>
                  <angle>
                    <activevideoangle>false</activevideoangle>
                    <activeaudioangle>false</activeaudioangle>
                    <clip id="clip-1"/>
                  </angle>
                  <angle>
                    <activevideoangle>false</activevideoangle>
                    <activeaudioangle>false</activeaudioangle>
                    <clip id="clip-2"/>
                  </angle>
                  <angle>
                    <activevideoangle>true</activevideoangle>
                    <activeaudioangle>true</activeaudioangle>
                    <clip id="clip-3"/>
                  </angle>
                  <angle>
                    <activevideoangle>false</activevideoangle>
                    <activeaudioangle>false</activeaudioangle>
                    <clip id="clip-4"/>
                  </angle>
                  <angle>
                    <activevideoangle>false</activevideoangle>
                    <activeaudioangle>false</activeaudioangle>
                    <clip id="clip-5"/>
                  </angle>
                  <angle>
                    <activevideoangle>false</activevideoangle>
                    <activeaudioangle>false</activeaudioangle>
                    <clip id="clip-6"/>
                  </angle>
                  <angle>
                    <activevideoangle>false</activevideoangle>
                    <activeaudioangle>false</activeaudioangle>
                    <clip id="clip-7"/>
                  </angle>
                  <angle>
                    <activevideoangle>false</activevideoangle>
                    <activeaudioangle>false</activeaudioangle>
                    <clip id="clip-8"/>
                  </angle>
                  <angle>
                    <activevideoangle>false</activevideoangle>
                    <activeaudioangle>false</activeaudioangle>
                    <clip id="clip-9"/>
                  </angle>
                  <masterclipid>clip-master</masterclipid>
                </multiclip>
              </clipitem>
              <clipitem id="cs-137">
                <duration>323</duration>
                <rate>
                  <ntsc>false</ntsc>
                  <timebase>25</timebase>
                </rate>
                <in>18226</in>
                <out>18548</out>
                <start>18226</start>
                <end>18548</end>
                <file id="src-4"/>
                <sourcetrack>
                  <mediatype>video</mediatype>
                  <trackindex>1</trackindex>
                </sourcetrack>
                <multiclip id="mcs-137">
                  <name>MCS-137</name>
                  <masterclipid>clip-master</masterclipid>
                  <collapsed>false</collapsed>
                  <angle>
                    <activevideoangle>false</activevideoangle>
                    <activeaudioangle>false</activeaudioangle>
                    <clip id="clip-1"/>
                  </angle>
                  <angle>
                    <activevideoangle>false</activevideoangle>
                    <activeaudioangle>false</activeaudioangle>
                    <clip id="clip-2"/>
                  </angle>
                  <angle>
                    <activevideoangle>false</activevideoangle>
                    <activeaudioangle>false</activeaudioangle>
                    <clip id="clip-3"/>
                  </angle>
                  <angle>
                    <activevideoangle>true</activevideoangle>
                    <activeaudioangle>true</activeaudioangle>
                    <clip id="clip-4"/>
                  </angle>
                  <angle>
                    <activevideoangle>false</activevideoangle>
                    <activeaudioangle>false</activeaudioangle>
                    <clip id="clip-5"/>
                  </angle>
                  <angle>
                    <activevideoangle>false</activevideoangle>
                    <activeaudioangle>false</activeaudioangle>
                    <clip id="clip-6"/>
                  </angle>
                  <angle>
                    <activevideoangle>false</activevideoangle>
                    <activeaudioangle>false</activeaudioangle>
                    <clip id="clip-7"/>
                  </angle>
                  <angle>
                    <activevideoangle>false</activevideoangle>
                    <activeaudioangle>false</activeaudioangle>
                    <clip id="clip-8"/>
                  </angle>
                  <angle>
                    <activevideoangle>false</activevideoangle>
                    <activeaudioangle>false</activeaudioangle>
                    <clip id="clip-9"/>
                  </angle>
                  <masterclipid>clip-master</masterclipid>
                </multiclip>
              </clipitem>
              <clipitem id="cs-138">
                <duration>171</duration>
                <rate>
                  <ntsc>false</ntsc>
                  <timebase>25</timebase>
                </rate>
                <in>18548</in>
                <out>18718</out>
                <start>18548</start>
                <end>18718</end>
                <file id="src-2"/>
                <sourcetrack>
                  <mediatype>video</mediatype>
                  <trackindex>1</trackindex>
                </sourcetrack>
                <multiclip id="mcs-138">
                  <name>MCS-138</name>
                  <masterclipid>clip-master</masterclipid>
                  <collapsed>false</collapsed>
                  <angle>
                    <activevideoangle>false</activevideoangle>
                    <activeaudioangle>false</activeaudioangle>
                    <clip id="clip-1"/>
                  </angle>
                  <angle>
                    <activevideoangle>true</activevideoangle>
                    <activeaudioangle>true</activeaudioangle>
                    <clip id="clip-2"/>
                  </angle>
                  <angle>
                    <activevideoangle>false</activevideoangle>
                    <activeaudioangle>false</activeaudioangle>
                    <clip id="clip-3"/>
                  </angle>
                  <angle>
                    <activevideoangle>false</activevideoangle>
                    <activeaudioangle>false</activeaudioangle>
                    <clip id="clip-4"/>
                  </angle>
                  <angle>
                    <activevideoangle>false</activevideoangle>
                    <activeaudioangle>false</activeaudioangle>
                    <clip id="clip-5"/>
                  </angle>
                  <angle>
                    <activevideoangle>false</activevideoangle>
                    <activeaudioangle>false</activeaudioangle>
                    <clip id="clip-6"/>
                  </angle>
                  <angle>
                    <activevideoangle>false</activevideoangle>
                    <activeaudioangle>false</activeaudioangle>
                    <clip id="clip-7"/>
                  </angle>
                  <angle>
                    <activevideoangle>false</activevideoangle>
                    <activeaudioangle>false</activeaudioangle>
                    <clip id="clip-8"/>
                  </angle>
                  <angle>
                    <activevideoangle>false</activevideoangle>
                    <activeaudioangle>false</activeaudioangle>
                    <clip id="clip-9"/>
                  </angle>
                  <masterclipid>clip-master</masterclipid>
                </multiclip>
              </clipitem>
              <clipitem id="cs-139">
                <duration>242</duration>
                <rate>
                  <ntsc>false</ntsc>
                  <timebase>25</timebase>
                </rate>
                <in>18718</in>
                <out>18959</out>
                <start>18718</start>
                <end>18959</end>
                <file id="src-4"/>
                <sourcetrack>
                  <mediatype>video</mediatype>
                  <trackindex>1</trackindex>
                </sourcetrack>
                <multiclip id="mcs-139">
                  <name>MCS-139</name>
                  <masterclipid>clip-master</masterclipid>
                  <collapsed>false</collapsed>
                  <angle>
                    <activevideoangle>false</activevideoangle>
                    <activeaudioangle>false</activeaudioangle>
                    <clip id="clip-1"/>
                  </angle>
                  <angle>
                    <activevideoangle>false</activevideoangle>
                    <activeaudioangle>false</activeaudioangle>
                    <clip id="clip-2"/>
                  </angle>
                  <angle>
                    <activevideoangle>false</activevideoangle>
                    <activeaudioangle>false</activeaudioangle>
                    <clip id="clip-3"/>
                  </angle>
                  <angle>
                    <activevideoangle>true</activevideoangle>
                    <activeaudioangle>true</activeaudioangle>
                    <clip id="clip-4"/>
                  </angle>
                  <angle>
                    <activevideoangle>false</activevideoangle>
                    <activeaudioangle>false</activeaudioangle>
                    <clip id="clip-5"/>
                  </angle>
                  <angle>
                    <activevideoangle>false</activevideoangle>
                    <activeaudioangle>false</activeaudioangle>
                    <clip id="clip-6"/>
                  </angle>
                  <angle>
                    <activevideoangle>false</activevideoangle>
                    <activeaudioangle>false</activeaudioangle>
                    <clip id="clip-7"/>
                  </angle>
                  <angle>
                    <activevideoangle>false</activevideoangle>
                    <activeaudioangle>false</activeaudioangle>
                    <clip id="clip-8"/>
                  </angle>
                  <angle>
                    <activevideoangle>false</activevideoangle>
                    <activeaudioangle>false</activeaudioangle>
                    <clip id="clip-9"/>
                  </angle>
                  <masterclipid>clip-master</masterclipid>
                </multiclip>
              </clipitem>
              <clipitem id="cs-140">
                <duration>80</duration>
                <rate>
                  <ntsc>false</ntsc>
                  <timebase>25</timebase>
                </rate>
                <in>18959</in>
                <out>19038</out>
                <start>18959</start>
                <end>19038</end>
                <file id="src-6"/>
                <sourcetrack>
                  <mediatype>video</mediatype>
                  <trackindex>1</trackindex>
                </sourcetrack>
                <multiclip id="mcs-140">
                  <name>MCS-140</name>
                  <masterclipid>clip-master</masterclipid>
                  <collapsed>false</collapsed>
                  <angle>
                    <activevideoangle>false</activevideoangle>
                    <activeaudioangle>false</activeaudioangle>
                    <clip id="clip-1"/>
                  </angle>
                  <angle>
                    <activevideoangle>false</activevideoangle>
                    <activeaudioangle>false</activeaudioangle>
                    <clip id="clip-2"/>
                  </angle>
                  <angle>
                    <activevideoangle>false</activevideoangle>
                    <activeaudioangle>false</activeaudioangle>
                    <clip id="clip-3"/>
                  </angle>
                  <angle>
                    <activevideoangle>false</activevideoangle>
                    <activeaudioangle>false</activeaudioangle>
                    <clip id="clip-4"/>
                  </angle>
                  <angle>
                    <activevideoangle>false</activevideoangle>
                    <activeaudioangle>false</activeaudioangle>
                    <clip id="clip-5"/>
                  </angle>
                  <angle>
                    <activevideoangle>true</activevideoangle>
                    <activeaudioangle>true</activeaudioangle>
                    <clip id="clip-6"/>
                  </angle>
                  <angle>
                    <activevideoangle>false</activevideoangle>
                    <activeaudioangle>false</activeaudioangle>
                    <clip id="clip-7"/>
                  </angle>
                  <angle>
                    <activevideoangle>false</activevideoangle>
                    <activeaudioangle>false</activeaudioangle>
                    <clip id="clip-8"/>
                  </angle>
                  <angle>
                    <activevideoangle>false</activevideoangle>
                    <activeaudioangle>false</activeaudioangle>
                    <clip id="clip-9"/>
                  </angle>
                  <masterclipid>clip-master</masterclipid>
                </multiclip>
              </clipitem>
              <clipitem id="cs-141">
                <duration>1420</duration>
                <rate>
                  <ntsc>false</ntsc>
                  <timebase>25</timebase>
                </rate>
                <in>19038</in>
                <out>20457</out>
                <start>19038</start>
                <end>20457</end>
                <file id="src-7"/>
                <sourcetrack>
                  <mediatype>video</mediatype>
                  <trackindex>1</trackindex>
                </sourcetrack>
                <multiclip id="mcs-141">
                  <name>MCS-141</name>
                  <masterclipid>clip-master</masterclipid>
                  <collapsed>false</collapsed>
                  <angle>
                    <activevideoangle>false</activevideoangle>
                    <activeaudioangle>false</activeaudioangle>
                    <clip id="clip-1"/>
                  </angle>
                  <angle>
                    <activevideoangle>false</activevideoangle>
                    <activeaudioangle>false</activeaudioangle>
                    <clip id="clip-2"/>
                  </angle>
                  <angle>
                    <activevideoangle>false</activevideoangle>
                    <activeaudioangle>false</activeaudioangle>
                    <clip id="clip-3"/>
                  </angle>
                  <angle>
                    <activevideoangle>false</activevideoangle>
                    <activeaudioangle>false</activeaudioangle>
                    <clip id="clip-4"/>
                  </angle>
                  <angle>
                    <activevideoangle>false</activevideoangle>
                    <activeaudioangle>false</activeaudioangle>
                    <clip id="clip-5"/>
                  </angle>
                  <angle>
                    <activevideoangle>false</activevideoangle>
                    <activeaudioangle>false</activeaudioangle>
                    <clip id="clip-6"/>
                  </angle>
                  <angle>
                    <activevideoangle>true</activevideoangle>
                    <activeaudioangle>true</activeaudioangle>
                    <clip id="clip-7"/>
                  </angle>
                  <angle>
                    <activevideoangle>false</activevideoangle>
                    <activeaudioangle>false</activeaudioangle>
                    <clip id="clip-8"/>
                  </angle>
                  <angle>
                    <activevideoangle>false</activevideoangle>
                    <activeaudioangle>false</activeaudioangle>
                    <clip id="clip-9"/>
                  </angle>
                  <masterclipid>clip-master</masterclipid>
                </multiclip>
              </clipitem>
              <clipitem id="cs-142">
                <duration>153</duration>
                <rate>
                  <ntsc>false</ntsc>
                  <timebase>25</timebase>
                </rate>
                <in>20457</in>
                <out>20609</out>
                <start>20457</start>
                <end>20609</end>
                <file id="src-2"/>
                <sourcetrack>
                  <mediatype>video</mediatype>
                  <trackindex>1</trackindex>
                </sourcetrack>
                <multiclip id="mcs-142">
                  <name>MCS-142</name>
                  <masterclipid>clip-master</masterclipid>
                  <collapsed>false</collapsed>
                  <angle>
                    <activevideoangle>false</activevideoangle>
                    <activeaudioangle>false</activeaudioangle>
                    <clip id="clip-1"/>
                  </angle>
                  <angle>
                    <activevideoangle>true</activevideoangle>
                    <activeaudioangle>true</activeaudioangle>
                    <clip id="clip-2"/>
                  </angle>
                  <angle>
                    <activevideoangle>false</activevideoangle>
                    <activeaudioangle>false</activeaudioangle>
                    <clip id="clip-3"/>
                  </angle>
                  <angle>
                    <activevideoangle>false</activevideoangle>
                    <activeaudioangle>false</activeaudioangle>
                    <clip id="clip-4"/>
                  </angle>
                  <angle>
                    <activevideoangle>false</activevideoangle>
                    <activeaudioangle>false</activeaudioangle>
                    <clip id="clip-5"/>
                  </angle>
                  <angle>
                    <activevideoangle>false</activevideoangle>
                    <activeaudioangle>false</activeaudioangle>
                    <clip id="clip-6"/>
                  </angle>
                  <angle>
                    <activevideoangle>false</activevideoangle>
                    <activeaudioangle>false</activeaudioangle>
                    <clip id="clip-7"/>
                  </angle>
                  <angle>
                    <activevideoangle>false</activevideoangle>
                    <activeaudioangle>false</activeaudioangle>
                    <clip id="clip-8"/>
                  </angle>
                  <angle>
                    <activevideoangle>false</activevideoangle>
                    <activeaudioangle>false</activeaudioangle>
                    <clip id="clip-9"/>
                  </angle>
                  <masterclipid>clip-master</masterclipid>
                </multiclip>
              </clipitem>
              <clipitem id="cs-143">
                <duration>131</duration>
                <rate>
                  <ntsc>false</ntsc>
                  <timebase>25</timebase>
                </rate>
                <in>20609</in>
                <out>20739</out>
                <start>20609</start>
                <end>20739</end>
                <file id="src-3"/>
                <sourcetrack>
                  <mediatype>video</mediatype>
                  <trackindex>1</trackindex>
                </sourcetrack>
                <multiclip id="mcs-143">
                  <name>MCS-143</name>
                  <masterclipid>clip-master</masterclipid>
                  <collapsed>false</collapsed>
                  <angle>
                    <activevideoangle>false</activevideoangle>
                    <activeaudioangle>false</activeaudioangle>
                    <clip id="clip-1"/>
                  </angle>
                  <angle>
                    <activevideoangle>false</activevideoangle>
                    <activeaudioangle>false</activeaudioangle>
                    <clip id="clip-2"/>
                  </angle>
                  <angle>
                    <activevideoangle>true</activevideoangle>
                    <activeaudioangle>true</activeaudioangle>
                    <clip id="clip-3"/>
                  </angle>
                  <angle>
                    <activevideoangle>false</activevideoangle>
                    <activeaudioangle>false</activeaudioangle>
                    <clip id="clip-4"/>
                  </angle>
                  <angle>
                    <activevideoangle>false</activevideoangle>
                    <activeaudioangle>false</activeaudioangle>
                    <clip id="clip-5"/>
                  </angle>
                  <angle>
                    <activevideoangle>false</activevideoangle>
                    <activeaudioangle>false</activeaudioangle>
                    <clip id="clip-6"/>
                  </angle>
                  <angle>
                    <activevideoangle>false</activevideoangle>
                    <activeaudioangle>false</activeaudioangle>
                    <clip id="clip-7"/>
                  </angle>
                  <angle>
                    <activevideoangle>false</activevideoangle>
                    <activeaudioangle>false</activeaudioangle>
                    <clip id="clip-8"/>
                  </angle>
                  <angle>
                    <activevideoangle>false</activevideoangle>
                    <activeaudioangle>false</activeaudioangle>
                    <clip id="clip-9"/>
                  </angle>
                  <masterclipid>clip-master</masterclipid>
                </multiclip>
              </clipitem>
              <clipitem id="cs-144">
                <duration>93</duration>
                <rate>
                  <ntsc>false</ntsc>
                  <timebase>25</timebase>
                </rate>
                <in>20739</in>
                <out>20831</out>
                <start>20739</start>
                <end>20831</end>
                <file id="src-5"/>
                <sourcetrack>
                  <mediatype>video</mediatype>
                  <trackindex>1</trackindex>
                </sourcetrack>
                <multiclip id="mcs-144">
                  <name>MCS-144</name>
                  <masterclipid>clip-master</masterclipid>
                  <collapsed>false</collapsed>
                  <angle>
                    <activevideoangle>false</activevideoangle>
                    <activeaudioangle>false</activeaudioangle>
                    <clip id="clip-1"/>
                  </angle>
                  <angle>
                    <activevideoangle>false</activevideoangle>
                    <activeaudioangle>false</activeaudioangle>
                    <clip id="clip-2"/>
                  </angle>
                  <angle>
                    <activevideoangle>false</activevideoangle>
                    <activeaudioangle>false</activeaudioangle>
                    <clip id="clip-3"/>
                  </angle>
                  <angle>
                    <activevideoangle>false</activevideoangle>
                    <activeaudioangle>false</activeaudioangle>
                    <clip id="clip-4"/>
                  </angle>
                  <angle>
                    <activevideoangle>true</activevideoangle>
                    <activeaudioangle>true</activeaudioangle>
                    <clip id="clip-5"/>
                  </angle>
                  <angle>
                    <activevideoangle>false</activevideoangle>
                    <activeaudioangle>false</activeaudioangle>
                    <clip id="clip-6"/>
                  </angle>
                  <angle>
                    <activevideoangle>false</activevideoangle>
                    <activeaudioangle>false</activeaudioangle>
                    <clip id="clip-7"/>
                  </angle>
                  <angle>
                    <activevideoangle>false</activevideoangle>
                    <activeaudioangle>false</activeaudioangle>
                    <clip id="clip-8"/>
                  </angle>
                  <angle>
                    <activevideoangle>false</activevideoangle>
                    <activeaudioangle>false</activeaudioangle>
                    <clip id="clip-9"/>
                  </angle>
                  <masterclipid>clip-master</masterclipid>
                </multiclip>
              </clipitem>
              <clipitem id="cs-145">
                <duration>50</duration>
                <rate>
                  <ntsc>false</ntsc>
                  <timebase>25</timebase>
                </rate>
                <in>20831</in>
                <out>20880</out>
                <start>20831</start>
                <end>20880</end>
                <file id="src-3"/>
                <sourcetrack>
                  <mediatype>video</mediatype>
                  <trackindex>1</trackindex>
                </sourcetrack>
                <multiclip id="mcs-145">
                  <name>MCS-145</name>
                  <masterclipid>clip-master</masterclipid>
                  <collapsed>false</collapsed>
                  <angle>
                    <activevideoangle>false</activevideoangle>
                    <activeaudioangle>false</activeaudioangle>
                    <clip id="clip-1"/>
                  </angle>
                  <angle>
                    <activevideoangle>false</activevideoangle>
                    <activeaudioangle>false</activeaudioangle>
                    <clip id="clip-2"/>
                  </angle>
                  <angle>
                    <activevideoangle>true</activevideoangle>
                    <activeaudioangle>true</activeaudioangle>
                    <clip id="clip-3"/>
                  </angle>
                  <angle>
                    <activevideoangle>false</activevideoangle>
                    <activeaudioangle>false</activeaudioangle>
                    <clip id="clip-4"/>
                  </angle>
                  <angle>
                    <activevideoangle>false</activevideoangle>
                    <activeaudioangle>false</activeaudioangle>
                    <clip id="clip-5"/>
                  </angle>
                  <angle>
                    <activevideoangle>false</activevideoangle>
                    <activeaudioangle>false</activeaudioangle>
                    <clip id="clip-6"/>
                  </angle>
                  <angle>
                    <activevideoangle>false</activevideoangle>
                    <activeaudioangle>false</activeaudioangle>
                    <clip id="clip-7"/>
                  </angle>
                  <angle>
                    <activevideoangle>false</activevideoangle>
                    <activeaudioangle>false</activeaudioangle>
                    <clip id="clip-8"/>
                  </angle>
                  <angle>
                    <activevideoangle>false</activevideoangle>
                    <activeaudioangle>false</activeaudioangle>
                    <clip id="clip-9"/>
                  </angle>
                  <masterclipid>clip-master</masterclipid>
                </multiclip>
              </clipitem>
              <clipitem id="cs-146">
                <duration>234</duration>
                <rate>
                  <ntsc>false</ntsc>
                  <timebase>25</timebase>
                </rate>
                <in>20880</in>
                <out>21113</out>
                <start>20880</start>
                <end>21113</end>
                <file id="src-4"/>
                <sourcetrack>
                  <mediatype>video</mediatype>
                  <trackindex>1</trackindex>
                </sourcetrack>
                <multiclip id="mcs-146">
                  <name>MCS-146</name>
                  <masterclipid>clip-master</masterclipid>
                  <collapsed>false</collapsed>
                  <angle>
                    <activevideoangle>false</activevideoangle>
                    <activeaudioangle>false</activeaudioangle>
                    <clip id="clip-1"/>
                  </angle>
                  <angle>
                    <activevideoangle>false</activevideoangle>
                    <activeaudioangle>false</activeaudioangle>
                    <clip id="clip-2"/>
                  </angle>
                  <angle>
                    <activevideoangle>false</activevideoangle>
                    <activeaudioangle>false</activeaudioangle>
                    <clip id="clip-3"/>
                  </angle>
                  <angle>
                    <activevideoangle>true</activevideoangle>
                    <activeaudioangle>true</activeaudioangle>
                    <clip id="clip-4"/>
                  </angle>
                  <angle>
                    <activevideoangle>false</activevideoangle>
                    <activeaudioangle>false</activeaudioangle>
                    <clip id="clip-5"/>
                  </angle>
                  <angle>
                    <activevideoangle>false</activevideoangle>
                    <activeaudioangle>false</activeaudioangle>
                    <clip id="clip-6"/>
                  </angle>
                  <angle>
                    <activevideoangle>false</activevideoangle>
                    <activeaudioangle>false</activeaudioangle>
                    <clip id="clip-7"/>
                  </angle>
                  <angle>
                    <activevideoangle>false</activevideoangle>
                    <activeaudioangle>false</activeaudioangle>
                    <clip id="clip-8"/>
                  </angle>
                  <angle>
                    <activevideoangle>false</activevideoangle>
                    <activeaudioangle>false</activeaudioangle>
                    <clip id="clip-9"/>
                  </angle>
                  <masterclipid>clip-master</masterclipid>
                </multiclip>
              </clipitem>
              <clipitem id="cs-147">
                <duration>76</duration>
                <rate>
                  <ntsc>false</ntsc>
                  <timebase>25</timebase>
                </rate>
                <in>21113</in>
                <out>21188</out>
                <start>21113</start>
                <end>21188</end>
                <file id="src-2"/>
                <sourcetrack>
                  <mediatype>video</mediatype>
                  <trackindex>1</trackindex>
                </sourcetrack>
                <multiclip id="mcs-147">
                  <name>MCS-147</name>
                  <masterclipid>clip-master</masterclipid>
                  <collapsed>false</collapsed>
                  <angle>
                    <activevideoangle>false</activevideoangle>
                    <activeaudioangle>false</activeaudioangle>
                    <clip id="clip-1"/>
                  </angle>
                  <angle>
                    <activevideoangle>true</activevideoangle>
                    <activeaudioangle>true</activeaudioangle>
                    <clip id="clip-2"/>
                  </angle>
                  <angle>
                    <activevideoangle>false</activevideoangle>
                    <activeaudioangle>false</activeaudioangle>
                    <clip id="clip-3"/>
                  </angle>
                  <angle>
                    <activevideoangle>false</activevideoangle>
                    <activeaudioangle>false</activeaudioangle>
                    <clip id="clip-4"/>
                  </angle>
                  <angle>
                    <activevideoangle>false</activevideoangle>
                    <activeaudioangle>false</activeaudioangle>
                    <clip id="clip-5"/>
                  </angle>
                  <angle>
                    <activevideoangle>false</activevideoangle>
                    <activeaudioangle>false</activeaudioangle>
                    <clip id="clip-6"/>
                  </angle>
                  <angle>
                    <activevideoangle>false</activevideoangle>
                    <activeaudioangle>false</activeaudioangle>
                    <clip id="clip-7"/>
                  </angle>
                  <angle>
                    <activevideoangle>false</activevideoangle>
                    <activeaudioangle>false</activeaudioangle>
                    <clip id="clip-8"/>
                  </angle>
                  <angle>
                    <activevideoangle>false</activevideoangle>
                    <activeaudioangle>false</activeaudioangle>
                    <clip id="clip-9"/>
                  </angle>
                  <masterclipid>clip-master</masterclipid>
                </multiclip>
              </clipitem>
              <clipitem id="cs-148">
                <duration>171</duration>
                <rate>
                  <ntsc>false</ntsc>
                  <timebase>25</timebase>
                </rate>
                <in>21188</in>
                <out>21358</out>
                <start>21188</start>
                <end>21358</end>
                <file id="src-4"/>
                <sourcetrack>
                  <mediatype>video</mediatype>
                  <trackindex>1</trackindex>
                </sourcetrack>
                <multiclip id="mcs-148">
                  <name>MCS-148</name>
                  <masterclipid>clip-master</masterclipid>
                  <collapsed>false</collapsed>
                  <angle>
                    <activevideoangle>false</activevideoangle>
                    <activeaudioangle>false</activeaudioangle>
                    <clip id="clip-1"/>
                  </angle>
                  <angle>
                    <activevideoangle>false</activevideoangle>
                    <activeaudioangle>false</activeaudioangle>
                    <clip id="clip-2"/>
                  </angle>
                  <angle>
                    <activevideoangle>false</activevideoangle>
                    <activeaudioangle>false</activeaudioangle>
                    <clip id="clip-3"/>
                  </angle>
                  <angle>
                    <activevideoangle>true</activevideoangle>
                    <activeaudioangle>true</activeaudioangle>
                    <clip id="clip-4"/>
                  </angle>
                  <angle>
                    <activevideoangle>false</activevideoangle>
                    <activeaudioangle>false</activeaudioangle>
                    <clip id="clip-5"/>
                  </angle>
                  <angle>
                    <activevideoangle>false</activevideoangle>
                    <activeaudioangle>false</activeaudioangle>
                    <clip id="clip-6"/>
                  </angle>
                  <angle>
                    <activevideoangle>false</activevideoangle>
                    <activeaudioangle>false</activeaudioangle>
                    <clip id="clip-7"/>
                  </angle>
                  <angle>
                    <activevideoangle>false</activevideoangle>
                    <activeaudioangle>false</activeaudioangle>
                    <clip id="clip-8"/>
                  </angle>
                  <angle>
                    <activevideoangle>false</activevideoangle>
                    <activeaudioangle>false</activeaudioangle>
                    <clip id="clip-9"/>
                  </angle>
                  <masterclipid>clip-master</masterclipid>
                </multiclip>
              </clipitem>
              <clipitem id="cs-149">
                <duration>141</duration>
                <rate>
                  <ntsc>false</ntsc>
                  <timebase>25</timebase>
                </rate>
                <in>21358</in>
                <out>21498</out>
                <start>21358</start>
                <end>21498</end>
                <file id="src-6"/>
                <sourcetrack>
                  <mediatype>video</mediatype>
                  <trackindex>1</trackindex>
                </sourcetrack>
                <multiclip id="mcs-149">
                  <name>MCS-149</name>
                  <masterclipid>clip-master</masterclipid>
                  <collapsed>false</collapsed>
                  <angle>
                    <activevideoangle>false</activevideoangle>
                    <activeaudioangle>false</activeaudioangle>
                    <clip id="clip-1"/>
                  </angle>
                  <angle>
                    <activevideoangle>false</activevideoangle>
                    <activeaudioangle>false</activeaudioangle>
                    <clip id="clip-2"/>
                  </angle>
                  <angle>
                    <activevideoangle>false</activevideoangle>
                    <activeaudioangle>false</activeaudioangle>
                    <clip id="clip-3"/>
                  </angle>
                  <angle>
                    <activevideoangle>false</activevideoangle>
                    <activeaudioangle>false</activeaudioangle>
                    <clip id="clip-4"/>
                  </angle>
                  <angle>
                    <activevideoangle>false</activevideoangle>
                    <activeaudioangle>false</activeaudioangle>
                    <clip id="clip-5"/>
                  </angle>
                  <angle>
                    <activevideoangle>true</activevideoangle>
                    <activeaudioangle>true</activeaudioangle>
                    <clip id="clip-6"/>
                  </angle>
                  <angle>
                    <activevideoangle>false</activevideoangle>
                    <activeaudioangle>false</activeaudioangle>
                    <clip id="clip-7"/>
                  </angle>
                  <angle>
                    <activevideoangle>false</activevideoangle>
                    <activeaudioangle>false</activeaudioangle>
                    <clip id="clip-8"/>
                  </angle>
                  <angle>
                    <activevideoangle>false</activevideoangle>
                    <activeaudioangle>false</activeaudioangle>
                    <clip id="clip-9"/>
                  </angle>
                  <masterclipid>clip-master</masterclipid>
                </multiclip>
              </clipitem>
              <clipitem id="cs-150">
                <duration>85</duration>
                <rate>
                  <ntsc>false</ntsc>
                  <timebase>25</timebase>
                </rate>
                <in>21498</in>
                <out>21582</out>
                <start>21498</start>
                <end>21582</end>
                <file id="src-3"/>
                <sourcetrack>
                  <mediatype>video</mediatype>
                  <trackindex>1</trackindex>
                </sourcetrack>
                <multiclip id="mcs-150">
                  <name>MCS-150</name>
                  <masterclipid>clip-master</masterclipid>
                  <collapsed>false</collapsed>
                  <angle>
                    <activevideoangle>false</activevideoangle>
                    <activeaudioangle>false</activeaudioangle>
                    <clip id="clip-1"/>
                  </angle>
                  <angle>
                    <activevideoangle>false</activevideoangle>
                    <activeaudioangle>false</activeaudioangle>
                    <clip id="clip-2"/>
                  </angle>
                  <angle>
                    <activevideoangle>true</activevideoangle>
                    <activeaudioangle>true</activeaudioangle>
                    <clip id="clip-3"/>
                  </angle>
                  <angle>
                    <activevideoangle>false</activevideoangle>
                    <activeaudioangle>false</activeaudioangle>
                    <clip id="clip-4"/>
                  </angle>
                  <angle>
                    <activevideoangle>false</activevideoangle>
                    <activeaudioangle>false</activeaudioangle>
                    <clip id="clip-5"/>
                  </angle>
                  <angle>
                    <activevideoangle>false</activevideoangle>
                    <activeaudioangle>false</activeaudioangle>
                    <clip id="clip-6"/>
                  </angle>
                  <angle>
                    <activevideoangle>false</activevideoangle>
                    <activeaudioangle>false</activeaudioangle>
                    <clip id="clip-7"/>
                  </angle>
                  <angle>
                    <activevideoangle>false</activevideoangle>
                    <activeaudioangle>false</activeaudioangle>
                    <clip id="clip-8"/>
                  </angle>
                  <angle>
                    <activevideoangle>false</activevideoangle>
                    <activeaudioangle>false</activeaudioangle>
                    <clip id="clip-9"/>
                  </angle>
                  <masterclipid>clip-master</masterclipid>
                </multiclip>
              </clipitem>
              <clipitem id="cs-151">
                <duration>65</duration>
                <rate>
                  <ntsc>false</ntsc>
                  <timebase>25</timebase>
                </rate>
                <in>21582</in>
                <out>21646</out>
                <start>21582</start>
                <end>21646</end>
                <file id="src-5"/>
                <sourcetrack>
                  <mediatype>video</mediatype>
                  <trackindex>1</trackindex>
                </sourcetrack>
                <multiclip id="mcs-151">
                  <name>MCS-151</name>
                  <masterclipid>clip-master</masterclipid>
                  <collapsed>false</collapsed>
                  <angle>
                    <activevideoangle>false</activevideoangle>
                    <activeaudioangle>false</activeaudioangle>
                    <clip id="clip-1"/>
                  </angle>
                  <angle>
                    <activevideoangle>false</activevideoangle>
                    <activeaudioangle>false</activeaudioangle>
                    <clip id="clip-2"/>
                  </angle>
                  <angle>
                    <activevideoangle>false</activevideoangle>
                    <activeaudioangle>false</activeaudioangle>
                    <clip id="clip-3"/>
                  </angle>
                  <angle>
                    <activevideoangle>false</activevideoangle>
                    <activeaudioangle>false</activeaudioangle>
                    <clip id="clip-4"/>
                  </angle>
                  <angle>
                    <activevideoangle>true</activevideoangle>
                    <activeaudioangle>true</activeaudioangle>
                    <clip id="clip-5"/>
                  </angle>
                  <angle>
                    <activevideoangle>false</activevideoangle>
                    <activeaudioangle>false</activeaudioangle>
                    <clip id="clip-6"/>
                  </angle>
                  <angle>
                    <activevideoangle>false</activevideoangle>
                    <activeaudioangle>false</activeaudioangle>
                    <clip id="clip-7"/>
                  </angle>
                  <angle>
                    <activevideoangle>false</activevideoangle>
                    <activeaudioangle>false</activeaudioangle>
                    <clip id="clip-8"/>
                  </angle>
                  <angle>
                    <activevideoangle>false</activevideoangle>
                    <activeaudioangle>false</activeaudioangle>
                    <clip id="clip-9"/>
                  </angle>
                  <masterclipid>clip-master</masterclipid>
                </multiclip>
              </clipitem>
              <clipitem id="cs-152">
                <duration>174</duration>
                <rate>
                  <ntsc>false</ntsc>
                  <timebase>25</timebase>
                </rate>
                <in>21646</in>
                <out>21819</out>
                <start>21646</start>
                <end>21819</end>
                <file id="src-2"/>
                <sourcetrack>
                  <mediatype>video</mediatype>
                  <trackindex>1</trackindex>
                </sourcetrack>
                <multiclip id="mcs-152">
                  <name>MCS-152</name>
                  <masterclipid>clip-master</masterclipid>
                  <collapsed>false</collapsed>
                  <angle>
                    <activevideoangle>false</activevideoangle>
                    <activeaudioangle>false</activeaudioangle>
                    <clip id="clip-1"/>
                  </angle>
                  <angle>
                    <activevideoangle>true</activevideoangle>
                    <activeaudioangle>true</activeaudioangle>
                    <clip id="clip-2"/>
                  </angle>
                  <angle>
                    <activevideoangle>false</activevideoangle>
                    <activeaudioangle>false</activeaudioangle>
                    <clip id="clip-3"/>
                  </angle>
                  <angle>
                    <activevideoangle>false</activevideoangle>
                    <activeaudioangle>false</activeaudioangle>
                    <clip id="clip-4"/>
                  </angle>
                  <angle>
                    <activevideoangle>false</activevideoangle>
                    <activeaudioangle>false</activeaudioangle>
                    <clip id="clip-5"/>
                  </angle>
                  <angle>
                    <activevideoangle>false</activevideoangle>
                    <activeaudioangle>false</activeaudioangle>
                    <clip id="clip-6"/>
                  </angle>
                  <angle>
                    <activevideoangle>false</activevideoangle>
                    <activeaudioangle>false</activeaudioangle>
                    <clip id="clip-7"/>
                  </angle>
                  <angle>
                    <activevideoangle>false</activevideoangle>
                    <activeaudioangle>false</activeaudioangle>
                    <clip id="clip-8"/>
                  </angle>
                  <angle>
                    <activevideoangle>false</activevideoangle>
                    <activeaudioangle>false</activeaudioangle>
                    <clip id="clip-9"/>
                  </angle>
                  <masterclipid>clip-master</masterclipid>
                </multiclip>
              </clipitem>
              <clipitem id="cs-153">
                <duration>203</duration>
                <rate>
                  <ntsc>false</ntsc>
                  <timebase>25</timebase>
                </rate>
                <in>21819</in>
                <out>22021</out>
                <start>21819</start>
                <end>22021</end>
                <file id="src-3"/>
                <sourcetrack>
                  <mediatype>video</mediatype>
                  <trackindex>1</trackindex>
                </sourcetrack>
                <multiclip id="mcs-153">
                  <name>MCS-153</name>
                  <masterclipid>clip-master</masterclipid>
                  <collapsed>false</collapsed>
                  <angle>
                    <activevideoangle>false</activevideoangle>
                    <activeaudioangle>false</activeaudioangle>
                    <clip id="clip-1"/>
                  </angle>
                  <angle>
                    <activevideoangle>false</activevideoangle>
                    <activeaudioangle>false</activeaudioangle>
                    <clip id="clip-2"/>
                  </angle>
                  <angle>
                    <activevideoangle>true</activevideoangle>
                    <activeaudioangle>true</activeaudioangle>
                    <clip id="clip-3"/>
                  </angle>
                  <angle>
                    <activevideoangle>false</activevideoangle>
                    <activeaudioangle>false</activeaudioangle>
                    <clip id="clip-4"/>
                  </angle>
                  <angle>
                    <activevideoangle>false</activevideoangle>
                    <activeaudioangle>false</activeaudioangle>
                    <clip id="clip-5"/>
                  </angle>
                  <angle>
                    <activevideoangle>false</activevideoangle>
                    <activeaudioangle>false</activeaudioangle>
                    <clip id="clip-6"/>
                  </angle>
                  <angle>
                    <activevideoangle>false</activevideoangle>
                    <activeaudioangle>false</activeaudioangle>
                    <clip id="clip-7"/>
                  </angle>
                  <angle>
                    <activevideoangle>false</activevideoangle>
                    <activeaudioangle>false</activeaudioangle>
                    <clip id="clip-8"/>
                  </angle>
                  <angle>
                    <activevideoangle>false</activevideoangle>
                    <activeaudioangle>false</activeaudioangle>
                    <clip id="clip-9"/>
                  </angle>
                  <masterclipid>clip-master</masterclipid>
                </multiclip>
              </clipitem>
              <clipitem id="cs-154">
                <duration>120</duration>
                <rate>
                  <ntsc>false</ntsc>
                  <timebase>25</timebase>
                </rate>
                <in>22021</in>
                <out>22140</out>
                <start>22021</start>
                <end>22140</end>
                <file id="src-2"/>
                <sourcetrack>
                  <mediatype>video</mediatype>
                  <trackindex>1</trackindex>
                </sourcetrack>
                <multiclip id="mcs-154">
                  <name>MCS-154</name>
                  <masterclipid>clip-master</masterclipid>
                  <collapsed>false</collapsed>
                  <angle>
                    <activevideoangle>false</activevideoangle>
                    <activeaudioangle>false</activeaudioangle>
                    <clip id="clip-1"/>
                  </angle>
                  <angle>
                    <activevideoangle>true</activevideoangle>
                    <activeaudioangle>true</activeaudioangle>
                    <clip id="clip-2"/>
                  </angle>
                  <angle>
                    <activevideoangle>false</activevideoangle>
                    <activeaudioangle>false</activeaudioangle>
                    <clip id="clip-3"/>
                  </angle>
                  <angle>
                    <activevideoangle>false</activevideoangle>
                    <activeaudioangle>false</activeaudioangle>
                    <clip id="clip-4"/>
                  </angle>
                  <angle>
                    <activevideoangle>false</activevideoangle>
                    <activeaudioangle>false</activeaudioangle>
                    <clip id="clip-5"/>
                  </angle>
                  <angle>
                    <activevideoangle>false</activevideoangle>
                    <activeaudioangle>false</activeaudioangle>
                    <clip id="clip-6"/>
                  </angle>
                  <angle>
                    <activevideoangle>false</activevideoangle>
                    <activeaudioangle>false</activeaudioangle>
                    <clip id="clip-7"/>
                  </angle>
                  <angle>
                    <activevideoangle>false</activevideoangle>
                    <activeaudioangle>false</activeaudioangle>
                    <clip id="clip-8"/>
                  </angle>
                  <angle>
                    <activevideoangle>false</activevideoangle>
                    <activeaudioangle>false</activeaudioangle>
                    <clip id="clip-9"/>
                  </angle>
                  <masterclipid>clip-master</masterclipid>
                </multiclip>
              </clipitem>
              <clipitem id="cs-155">
                <duration>85</duration>
                <rate>
                  <ntsc>false</ntsc>
                  <timebase>25</timebase>
                </rate>
                <in>22140</in>
                <out>22224</out>
                <start>22140</start>
                <end>22224</end>
                <file id="src-4"/>
                <sourcetrack>
                  <mediatype>video</mediatype>
                  <trackindex>1</trackindex>
                </sourcetrack>
                <multiclip id="mcs-155">
                  <name>MCS-155</name>
                  <masterclipid>clip-master</masterclipid>
                  <collapsed>false</collapsed>
                  <angle>
                    <activevideoangle>false</activevideoangle>
                    <activeaudioangle>false</activeaudioangle>
                    <clip id="clip-1"/>
                  </angle>
                  <angle>
                    <activevideoangle>false</activevideoangle>
                    <activeaudioangle>false</activeaudioangle>
                    <clip id="clip-2"/>
                  </angle>
                  <angle>
                    <activevideoangle>false</activevideoangle>
                    <activeaudioangle>false</activeaudioangle>
                    <clip id="clip-3"/>
                  </angle>
                  <angle>
                    <activevideoangle>true</activevideoangle>
                    <activeaudioangle>true</activeaudioangle>
                    <clip id="clip-4"/>
                  </angle>
                  <angle>
                    <activevideoangle>false</activevideoangle>
                    <activeaudioangle>false</activeaudioangle>
                    <clip id="clip-5"/>
                  </angle>
                  <angle>
                    <activevideoangle>false</activevideoangle>
                    <activeaudioangle>false</activeaudioangle>
                    <clip id="clip-6"/>
                  </angle>
                  <angle>
                    <activevideoangle>false</activevideoangle>
                    <activeaudioangle>false</activeaudioangle>
                    <clip id="clip-7"/>
                  </angle>
                  <angle>
                    <activevideoangle>false</activevideoangle>
                    <activeaudioangle>false</activeaudioangle>
                    <clip id="clip-8"/>
                  </angle>
                  <angle>
                    <activevideoangle>false</activevideoangle>
                    <activeaudioangle>false</activeaudioangle>
                    <clip id="clip-9"/>
                  </angle>
                  <masterclipid>clip-master</masterclipid>
                </multiclip>
              </clipitem>
              <clipitem id="cs-156">
                <duration>60</duration>
                <rate>
                  <ntsc>false</ntsc>
                  <timebase>25</timebase>
                </rate>
                <in>22224</in>
                <out>22283</out>
                <start>22224</start>
                <end>22283</end>
                <file id="src-2"/>
                <sourcetrack>
                  <mediatype>video</mediatype>
                  <trackindex>1</trackindex>
                </sourcetrack>
                <multiclip id="mcs-156">
                  <name>MCS-156</name>
                  <masterclipid>clip-master</masterclipid>
                  <collapsed>false</collapsed>
                  <angle>
                    <activevideoangle>false</activevideoangle>
                    <activeaudioangle>false</activeaudioangle>
                    <clip id="clip-1"/>
                  </angle>
                  <angle>
                    <activevideoangle>true</activevideoangle>
                    <activeaudioangle>true</activeaudioangle>
                    <clip id="clip-2"/>
                  </angle>
                  <angle>
                    <activevideoangle>false</activevideoangle>
                    <activeaudioangle>false</activeaudioangle>
                    <clip id="clip-3"/>
                  </angle>
                  <angle>
                    <activevideoangle>false</activevideoangle>
                    <activeaudioangle>false</activeaudioangle>
                    <clip id="clip-4"/>
                  </angle>
                  <angle>
                    <activevideoangle>false</activevideoangle>
                    <activeaudioangle>false</activeaudioangle>
                    <clip id="clip-5"/>
                  </angle>
                  <angle>
                    <activevideoangle>false</activevideoangle>
                    <activeaudioangle>false</activeaudioangle>
                    <clip id="clip-6"/>
                  </angle>
                  <angle>
                    <activevideoangle>false</activevideoangle>
                    <activeaudioangle>false</activeaudioangle>
                    <clip id="clip-7"/>
                  </angle>
                  <angle>
                    <activevideoangle>false</activevideoangle>
                    <activeaudioangle>false</activeaudioangle>
                    <clip id="clip-8"/>
                  </angle>
                  <angle>
                    <activevideoangle>false</activevideoangle>
                    <activeaudioangle>false</activeaudioangle>
                    <clip id="clip-9"/>
                  </angle>
                  <masterclipid>clip-master</masterclipid>
                </multiclip>
              </clipitem>
              <clipitem id="cs-157">
                <duration>251</duration>
                <rate>
                  <ntsc>false</ntsc>
                  <timebase>25</timebase>
                </rate>
                <in>22283</in>
                <out>22533</out>
                <start>22283</start>
                <end>22533</end>
                <file id="src-5"/>
                <sourcetrack>
                  <mediatype>video</mediatype>
                  <trackindex>1</trackindex>
                </sourcetrack>
                <multiclip id="mcs-157">
                  <name>MCS-157</name>
                  <masterclipid>clip-master</masterclipid>
                  <collapsed>false</collapsed>
                  <angle>
                    <activevideoangle>false</activevideoangle>
                    <activeaudioangle>false</activeaudioangle>
                    <clip id="clip-1"/>
                  </angle>
                  <angle>
                    <activevideoangle>false</activevideoangle>
                    <activeaudioangle>false</activeaudioangle>
                    <clip id="clip-2"/>
                  </angle>
                  <angle>
                    <activevideoangle>false</activevideoangle>
                    <activeaudioangle>false</activeaudioangle>
                    <clip id="clip-3"/>
                  </angle>
                  <angle>
                    <activevideoangle>false</activevideoangle>
                    <activeaudioangle>false</activeaudioangle>
                    <clip id="clip-4"/>
                  </angle>
                  <angle>
                    <activevideoangle>true</activevideoangle>
                    <activeaudioangle>true</activeaudioangle>
                    <clip id="clip-5"/>
                  </angle>
                  <angle>
                    <activevideoangle>false</activevideoangle>
                    <activeaudioangle>false</activeaudioangle>
                    <clip id="clip-6"/>
                  </angle>
                  <angle>
                    <activevideoangle>false</activevideoangle>
                    <activeaudioangle>false</activeaudioangle>
                    <clip id="clip-7"/>
                  </angle>
                  <angle>
                    <activevideoangle>false</activevideoangle>
                    <activeaudioangle>false</activeaudioangle>
                    <clip id="clip-8"/>
                  </angle>
                  <angle>
                    <activevideoangle>false</activevideoangle>
                    <activeaudioangle>false</activeaudioangle>
                    <clip id="clip-9"/>
                  </angle>
                  <masterclipid>clip-master</masterclipid>
                </multiclip>
              </clipitem>
              <clipitem id="cs-158">
                <duration>273</duration>
                <rate>
                  <ntsc>false</ntsc>
                  <timebase>25</timebase>
                </rate>
                <in>22533</in>
                <out>22805</out>
                <start>22533</start>
                <end>22805</end>
                <file id="src-2"/>
                <sourcetrack>
                  <mediatype>video</mediatype>
                  <trackindex>1</trackindex>
                </sourcetrack>
                <multiclip id="mcs-158">
                  <name>MCS-158</name>
                  <masterclipid>clip-master</masterclipid>
                  <collapsed>false</collapsed>
                  <angle>
                    <activevideoangle>false</activevideoangle>
                    <activeaudioangle>false</activeaudioangle>
                    <clip id="clip-1"/>
                  </angle>
                  <angle>
                    <activevideoangle>true</activevideoangle>
                    <activeaudioangle>true</activeaudioangle>
                    <clip id="clip-2"/>
                  </angle>
                  <angle>
                    <activevideoangle>false</activevideoangle>
                    <activeaudioangle>false</activeaudioangle>
                    <clip id="clip-3"/>
                  </angle>
                  <angle>
                    <activevideoangle>false</activevideoangle>
                    <activeaudioangle>false</activeaudioangle>
                    <clip id="clip-4"/>
                  </angle>
                  <angle>
                    <activevideoangle>false</activevideoangle>
                    <activeaudioangle>false</activeaudioangle>
                    <clip id="clip-5"/>
                  </angle>
                  <angle>
                    <activevideoangle>false</activevideoangle>
                    <activeaudioangle>false</activeaudioangle>
                    <clip id="clip-6"/>
                  </angle>
                  <angle>
                    <activevideoangle>false</activevideoangle>
                    <activeaudioangle>false</activeaudioangle>
                    <clip id="clip-7"/>
                  </angle>
                  <angle>
                    <activevideoangle>false</activevideoangle>
                    <activeaudioangle>false</activeaudioangle>
                    <clip id="clip-8"/>
                  </angle>
                  <angle>
                    <activevideoangle>false</activevideoangle>
                    <activeaudioangle>false</activeaudioangle>
                    <clip id="clip-9"/>
                  </angle>
                  <masterclipid>clip-master</masterclipid>
                </multiclip>
              </clipitem>
              <clipitem id="cs-159">
                <duration>51</duration>
                <rate>
                  <ntsc>false</ntsc>
                  <timebase>25</timebase>
                </rate>
                <in>22805</in>
                <out>22855</out>
                <start>22805</start>
                <end>22855</end>
                <file id="src-3"/>
                <sourcetrack>
                  <mediatype>video</mediatype>
                  <trackindex>1</trackindex>
                </sourcetrack>
                <multiclip id="mcs-159">
                  <name>MCS-159</name>
                  <masterclipid>clip-master</masterclipid>
                  <collapsed>false</collapsed>
                  <angle>
                    <activevideoangle>false</activevideoangle>
                    <activeaudioangle>false</activeaudioangle>
                    <clip id="clip-1"/>
                  </angle>
                  <angle>
                    <activevideoangle>false</activevideoangle>
                    <activeaudioangle>false</activeaudioangle>
                    <clip id="clip-2"/>
                  </angle>
                  <angle>
                    <activevideoangle>true</activevideoangle>
                    <activeaudioangle>true</activeaudioangle>
                    <clip id="clip-3"/>
                  </angle>
                  <angle>
                    <activevideoangle>false</activevideoangle>
                    <activeaudioangle>false</activeaudioangle>
                    <clip id="clip-4"/>
                  </angle>
                  <angle>
                    <activevideoangle>false</activevideoangle>
                    <activeaudioangle>false</activeaudioangle>
                    <clip id="clip-5"/>
                  </angle>
                  <angle>
                    <activevideoangle>false</activevideoangle>
                    <activeaudioangle>false</activeaudioangle>
                    <clip id="clip-6"/>
                  </angle>
                  <angle>
                    <activevideoangle>false</activevideoangle>
                    <activeaudioangle>false</activeaudioangle>
                    <clip id="clip-7"/>
                  </angle>
                  <angle>
                    <activevideoangle>false</activevideoangle>
                    <activeaudioangle>false</activeaudioangle>
                    <clip id="clip-8"/>
                  </angle>
                  <angle>
                    <activevideoangle>false</activevideoangle>
                    <activeaudioangle>false</activeaudioangle>
                    <clip id="clip-9"/>
                  </angle>
                  <masterclipid>clip-master</masterclipid>
                </multiclip>
              </clipitem>
              <clipitem id="cs-160">
                <duration>68</duration>
                <rate>
                  <ntsc>false</ntsc>
                  <timebase>25</timebase>
                </rate>
                <in>22855</in>
                <out>22922</out>
                <start>22855</start>
                <end>22922</end>
                <file id="src-6"/>
                <sourcetrack>
                  <mediatype>video</mediatype>
                  <trackindex>1</trackindex>
                </sourcetrack>
                <multiclip id="mcs-160">
                  <name>MCS-160</name>
                  <masterclipid>clip-master</masterclipid>
                  <collapsed>false</collapsed>
                  <angle>
                    <activevideoangle>false</activevideoangle>
                    <activeaudioangle>false</activeaudioangle>
                    <clip id="clip-1"/>
                  </angle>
                  <angle>
                    <activevideoangle>false</activevideoangle>
                    <activeaudioangle>false</activeaudioangle>
                    <clip id="clip-2"/>
                  </angle>
                  <angle>
                    <activevideoangle>false</activevideoangle>
                    <activeaudioangle>false</activeaudioangle>
                    <clip id="clip-3"/>
                  </angle>
                  <angle>
                    <activevideoangle>false</activevideoangle>
                    <activeaudioangle>false</activeaudioangle>
                    <clip id="clip-4"/>
                  </angle>
                  <angle>
                    <activevideoangle>false</activevideoangle>
                    <activeaudioangle>false</activeaudioangle>
                    <clip id="clip-5"/>
                  </angle>
                  <angle>
                    <activevideoangle>true</activevideoangle>
                    <activeaudioangle>true</activeaudioangle>
                    <clip id="clip-6"/>
                  </angle>
                  <angle>
                    <activevideoangle>false</activevideoangle>
                    <activeaudioangle>false</activeaudioangle>
                    <clip id="clip-7"/>
                  </angle>
                  <angle>
                    <activevideoangle>false</activevideoangle>
                    <activeaudioangle>false</activeaudioangle>
                    <clip id="clip-8"/>
                  </angle>
                  <angle>
                    <activevideoangle>false</activevideoangle>
                    <activeaudioangle>false</activeaudioangle>
                    <clip id="clip-9"/>
                  </angle>
                  <masterclipid>clip-master</masterclipid>
                </multiclip>
              </clipitem>
              <clipitem id="cs-161">
                <duration>108</duration>
                <rate>
                  <ntsc>false</ntsc>
                  <timebase>25</timebase>
                </rate>
                <in>22922</in>
                <out>23029</out>
                <start>22922</start>
                <end>23029</end>
                <file id="src-4"/>
                <sourcetrack>
                  <mediatype>video</mediatype>
                  <trackindex>1</trackindex>
                </sourcetrack>
                <multiclip id="mcs-161">
                  <name>MCS-161</name>
                  <masterclipid>clip-master</masterclipid>
                  <collapsed>false</collapsed>
                  <angle>
                    <activevideoangle>false</activevideoangle>
                    <activeaudioangle>false</activeaudioangle>
                    <clip id="clip-1"/>
                  </angle>
                  <angle>
                    <activevideoangle>false</activevideoangle>
                    <activeaudioangle>false</activeaudioangle>
                    <clip id="clip-2"/>
                  </angle>
                  <angle>
                    <activevideoangle>false</activevideoangle>
                    <activeaudioangle>false</activeaudioangle>
                    <clip id="clip-3"/>
                  </angle>
                  <angle>
                    <activevideoangle>true</activevideoangle>
                    <activeaudioangle>true</activeaudioangle>
                    <clip id="clip-4"/>
                  </angle>
                  <angle>
                    <activevideoangle>false</activevideoangle>
                    <activeaudioangle>false</activeaudioangle>
                    <clip id="clip-5"/>
                  </angle>
                  <angle>
                    <activevideoangle>false</activevideoangle>
                    <activeaudioangle>false</activeaudioangle>
                    <clip id="clip-6"/>
                  </angle>
                  <angle>
                    <activevideoangle>false</activevideoangle>
                    <activeaudioangle>false</activeaudioangle>
                    <clip id="clip-7"/>
                  </angle>
                  <angle>
                    <activevideoangle>false</activevideoangle>
                    <activeaudioangle>false</activeaudioangle>
                    <clip id="clip-8"/>
                  </angle>
                  <angle>
                    <activevideoangle>false</activevideoangle>
                    <activeaudioangle>false</activeaudioangle>
                    <clip id="clip-9"/>
                  </angle>
                  <masterclipid>clip-master</masterclipid>
                </multiclip>
              </clipitem>
              <clipitem id="cs-162">
                <duration>135</duration>
                <rate>
                  <ntsc>false</ntsc>
                  <timebase>25</timebase>
                </rate>
                <in>23029</in>
                <out>23163</out>
                <start>23029</start>
                <end>23163</end>
                <file id="src-2"/>
                <sourcetrack>
                  <mediatype>video</mediatype>
                  <trackindex>1</trackindex>
                </sourcetrack>
                <multiclip id="mcs-162">
                  <name>MCS-162</name>
                  <masterclipid>clip-master</masterclipid>
                  <collapsed>false</collapsed>
                  <angle>
                    <activevideoangle>false</activevideoangle>
                    <activeaudioangle>false</activeaudioangle>
                    <clip id="clip-1"/>
                  </angle>
                  <angle>
                    <activevideoangle>true</activevideoangle>
                    <activeaudioangle>true</activeaudioangle>
                    <clip id="clip-2"/>
                  </angle>
                  <angle>
                    <activevideoangle>false</activevideoangle>
                    <activeaudioangle>false</activeaudioangle>
                    <clip id="clip-3"/>
                  </angle>
                  <angle>
                    <activevideoangle>false</activevideoangle>
                    <activeaudioangle>false</activeaudioangle>
                    <clip id="clip-4"/>
                  </angle>
                  <angle>
                    <activevideoangle>false</activevideoangle>
                    <activeaudioangle>false</activeaudioangle>
                    <clip id="clip-5"/>
                  </angle>
                  <angle>
                    <activevideoangle>false</activevideoangle>
                    <activeaudioangle>false</activeaudioangle>
                    <clip id="clip-6"/>
                  </angle>
                  <angle>
                    <activevideoangle>false</activevideoangle>
                    <activeaudioangle>false</activeaudioangle>
                    <clip id="clip-7"/>
                  </angle>
                  <angle>
                    <activevideoangle>false</activevideoangle>
                    <activeaudioangle>false</activeaudioangle>
                    <clip id="clip-8"/>
                  </angle>
                  <angle>
                    <activevideoangle>false</activevideoangle>
                    <activeaudioangle>false</activeaudioangle>
                    <clip id="clip-9"/>
                  </angle>
                  <masterclipid>clip-master</masterclipid>
                </multiclip>
              </clipitem>
              <clipitem id="cs-163">
                <duration>166</duration>
                <rate>
                  <ntsc>false</ntsc>
                  <timebase>25</timebase>
                </rate>
                <in>23163</in>
                <out>23328</out>
                <start>23163</start>
                <end>23328</end>
                <file id="src-3"/>
                <sourcetrack>
                  <mediatype>video</mediatype>
                  <trackindex>1</trackindex>
                </sourcetrack>
                <multiclip id="mcs-163">
                  <name>MCS-163</name>
                  <masterclipid>clip-master</masterclipid>
                  <collapsed>false</collapsed>
                  <angle>
                    <activevideoangle>false</activevideoangle>
                    <activeaudioangle>false</activeaudioangle>
                    <clip id="clip-1"/>
                  </angle>
                  <angle>
                    <activevideoangle>false</activevideoangle>
                    <activeaudioangle>false</activeaudioangle>
                    <clip id="clip-2"/>
                  </angle>
                  <angle>
                    <activevideoangle>true</activevideoangle>
                    <activeaudioangle>true</activeaudioangle>
                    <clip id="clip-3"/>
                  </angle>
                  <angle>
                    <activevideoangle>false</activevideoangle>
                    <activeaudioangle>false</activeaudioangle>
                    <clip id="clip-4"/>
                  </angle>
                  <angle>
                    <activevideoangle>false</activevideoangle>
                    <activeaudioangle>false</activeaudioangle>
                    <clip id="clip-5"/>
                  </angle>
                  <angle>
                    <activevideoangle>false</activevideoangle>
                    <activeaudioangle>false</activeaudioangle>
                    <clip id="clip-6"/>
                  </angle>
                  <angle>
                    <activevideoangle>false</activevideoangle>
                    <activeaudioangle>false</activeaudioangle>
                    <clip id="clip-7"/>
                  </angle>
                  <angle>
                    <activevideoangle>false</activevideoangle>
                    <activeaudioangle>false</activeaudioangle>
                    <clip id="clip-8"/>
                  </angle>
                  <angle>
                    <activevideoangle>false</activevideoangle>
                    <activeaudioangle>false</activeaudioangle>
                    <clip id="clip-9"/>
                  </angle>
                  <masterclipid>clip-master</masterclipid>
                </multiclip>
              </clipitem>
              <clipitem id="cs-164">
                <duration>47</duration>
                <rate>
                  <ntsc>false</ntsc>
                  <timebase>25</timebase>
                </rate>
                <in>23328</in>
                <out>23374</out>
                <start>23328</start>
                <end>23374</end>
                <file id="src-2"/>
                <sourcetrack>
                  <mediatype>video</mediatype>
                  <trackindex>1</trackindex>
                </sourcetrack>
                <multiclip id="mcs-164">
                  <name>MCS-164</name>
                  <masterclipid>clip-master</masterclipid>
                  <collapsed>false</collapsed>
                  <angle>
                    <activevideoangle>false</activevideoangle>
                    <activeaudioangle>false</activeaudioangle>
                    <clip id="clip-1"/>
                  </angle>
                  <angle>
                    <activevideoangle>true</activevideoangle>
                    <activeaudioangle>true</activeaudioangle>
                    <clip id="clip-2"/>
                  </angle>
                  <angle>
                    <activevideoangle>false</activevideoangle>
                    <activeaudioangle>false</activeaudioangle>
                    <clip id="clip-3"/>
                  </angle>
                  <angle>
                    <activevideoangle>false</activevideoangle>
                    <activeaudioangle>false</activeaudioangle>
                    <clip id="clip-4"/>
                  </angle>
                  <angle>
                    <activevideoangle>false</activevideoangle>
                    <activeaudioangle>false</activeaudioangle>
                    <clip id="clip-5"/>
                  </angle>
                  <angle>
                    <activevideoangle>false</activevideoangle>
                    <activeaudioangle>false</activeaudioangle>
                    <clip id="clip-6"/>
                  </angle>
                  <angle>
                    <activevideoangle>false</activevideoangle>
                    <activeaudioangle>false</activeaudioangle>
                    <clip id="clip-7"/>
                  </angle>
                  <angle>
                    <activevideoangle>false</activevideoangle>
                    <activeaudioangle>false</activeaudioangle>
                    <clip id="clip-8"/>
                  </angle>
                  <angle>
                    <activevideoangle>false</activevideoangle>
                    <activeaudioangle>false</activeaudioangle>
                    <clip id="clip-9"/>
                  </angle>
                  <masterclipid>clip-master</masterclipid>
                </multiclip>
              </clipitem>
              <clipitem id="cs-165">
                <duration>53</duration>
                <rate>
                  <ntsc>false</ntsc>
                  <timebase>25</timebase>
                </rate>
                <in>23374</in>
                <out>23426</out>
                <start>23374</start>
                <end>23426</end>
                <file id="src-4"/>
                <sourcetrack>
                  <mediatype>video</mediatype>
                  <trackindex>1</trackindex>
                </sourcetrack>
                <multiclip id="mcs-165">
                  <name>MCS-165</name>
                  <masterclipid>clip-master</masterclipid>
                  <collapsed>false</collapsed>
                  <angle>
                    <activevideoangle>false</activevideoangle>
                    <activeaudioangle>false</activeaudioangle>
                    <clip id="clip-1"/>
                  </angle>
                  <angle>
                    <activevideoangle>false</activevideoangle>
                    <activeaudioangle>false</activeaudioangle>
                    <clip id="clip-2"/>
                  </angle>
                  <angle>
                    <activevideoangle>false</activevideoangle>
                    <activeaudioangle>false</activeaudioangle>
                    <clip id="clip-3"/>
                  </angle>
                  <angle>
                    <activevideoangle>true</activevideoangle>
                    <activeaudioangle>true</activeaudioangle>
                    <clip id="clip-4"/>
                  </angle>
                  <angle>
                    <activevideoangle>false</activevideoangle>
                    <activeaudioangle>false</activeaudioangle>
                    <clip id="clip-5"/>
                  </angle>
                  <angle>
                    <activevideoangle>false</activevideoangle>
                    <activeaudioangle>false</activeaudioangle>
                    <clip id="clip-6"/>
                  </angle>
                  <angle>
                    <activevideoangle>false</activevideoangle>
                    <activeaudioangle>false</activeaudioangle>
                    <clip id="clip-7"/>
                  </angle>
                  <angle>
                    <activevideoangle>false</activevideoangle>
                    <activeaudioangle>false</activeaudioangle>
                    <clip id="clip-8"/>
                  </angle>
                  <angle>
                    <activevideoangle>false</activevideoangle>
                    <activeaudioangle>false</activeaudioangle>
                    <clip id="clip-9"/>
                  </angle>
                  <masterclipid>clip-master</masterclipid>
                </multiclip>
              </clipitem>
              <clipitem id="cs-166">
                <duration>40</duration>
                <rate>
                  <ntsc>false</ntsc>
                  <timebase>25</timebase>
                </rate>
                <in>23426</in>
                <out>23465</out>
                <start>23426</start>
                <end>23465</end>
                <file id="src-6"/>
                <sourcetrack>
                  <mediatype>video</mediatype>
                  <trackindex>1</trackindex>
                </sourcetrack>
                <multiclip id="mcs-166">
                  <name>MCS-166</name>
                  <masterclipid>clip-master</masterclipid>
                  <collapsed>false</collapsed>
                  <angle>
                    <activevideoangle>false</activevideoangle>
                    <activeaudioangle>false</activeaudioangle>
                    <clip id="clip-1"/>
                  </angle>
                  <angle>
                    <activevideoangle>false</activevideoangle>
                    <activeaudioangle>false</activeaudioangle>
                    <clip id="clip-2"/>
                  </angle>
                  <angle>
                    <activevideoangle>false</activevideoangle>
                    <activeaudioangle>false</activeaudioangle>
                    <clip id="clip-3"/>
                  </angle>
                  <angle>
                    <activevideoangle>false</activevideoangle>
                    <activeaudioangle>false</activeaudioangle>
                    <clip id="clip-4"/>
                  </angle>
                  <angle>
                    <activevideoangle>false</activevideoangle>
                    <activeaudioangle>false</activeaudioangle>
                    <clip id="clip-5"/>
                  </angle>
                  <angle>
                    <activevideoangle>true</activevideoangle>
                    <activeaudioangle>true</activeaudioangle>
                    <clip id="clip-6"/>
                  </angle>
                  <angle>
                    <activevideoangle>false</activevideoangle>
                    <activeaudioangle>false</activeaudioangle>
                    <clip id="clip-7"/>
                  </angle>
                  <angle>
                    <activevideoangle>false</activevideoangle>
                    <activeaudioangle>false</activeaudioangle>
                    <clip id="clip-8"/>
                  </angle>
                  <angle>
                    <activevideoangle>false</activevideoangle>
                    <activeaudioangle>false</activeaudioangle>
                    <clip id="clip-9"/>
                  </angle>
                  <masterclipid>clip-master</masterclipid>
                </multiclip>
              </clipitem>
              <clipitem id="cs-167">
                <duration>107</duration>
                <rate>
                  <ntsc>false</ntsc>
                  <timebase>25</timebase>
                </rate>
                <in>23465</in>
                <out>23571</out>
                <start>23465</start>
                <end>23571</end>
                <file id="src-3"/>
                <sourcetrack>
                  <mediatype>video</mediatype>
                  <trackindex>1</trackindex>
                </sourcetrack>
                <multiclip id="mcs-167">
                  <name>MCS-167</name>
                  <masterclipid>clip-master</masterclipid>
                  <collapsed>false</collapsed>
                  <angle>
                    <activevideoangle>false</activevideoangle>
                    <activeaudioangle>false</activeaudioangle>
                    <clip id="clip-1"/>
                  </angle>
                  <angle>
                    <activevideoangle>false</activevideoangle>
                    <activeaudioangle>false</activeaudioangle>
                    <clip id="clip-2"/>
                  </angle>
                  <angle>
                    <activevideoangle>true</activevideoangle>
                    <activeaudioangle>true</activeaudioangle>
                    <clip id="clip-3"/>
                  </angle>
                  <angle>
                    <activevideoangle>false</activevideoangle>
                    <activeaudioangle>false</activeaudioangle>
                    <clip id="clip-4"/>
                  </angle>
                  <angle>
                    <activevideoangle>false</activevideoangle>
                    <activeaudioangle>false</activeaudioangle>
                    <clip id="clip-5"/>
                  </angle>
                  <angle>
                    <activevideoangle>false</activevideoangle>
                    <activeaudioangle>false</activeaudioangle>
                    <clip id="clip-6"/>
                  </angle>
                  <angle>
                    <activevideoangle>false</activevideoangle>
                    <activeaudioangle>false</activeaudioangle>
                    <clip id="clip-7"/>
                  </angle>
                  <angle>
                    <activevideoangle>false</activevideoangle>
                    <activeaudioangle>false</activeaudioangle>
                    <clip id="clip-8"/>
                  </angle>
                  <angle>
                    <activevideoangle>false</activevideoangle>
                    <activeaudioangle>false</activeaudioangle>
                    <clip id="clip-9"/>
                  </angle>
                  <masterclipid>clip-master</masterclipid>
                </multiclip>
              </clipitem>
              <clipitem id="cs-168">
                <duration>70</duration>
                <rate>
                  <ntsc>false</ntsc>
                  <timebase>25</timebase>
                </rate>
                <in>23571</in>
                <out>23640</out>
                <start>23571</start>
                <end>23640</end>
                <file id="src-2"/>
                <sourcetrack>
                  <mediatype>video</mediatype>
                  <trackindex>1</trackindex>
                </sourcetrack>
                <multiclip id="mcs-168">
                  <name>MCS-168</name>
                  <masterclipid>clip-master</masterclipid>
                  <collapsed>false</collapsed>
                  <angle>
                    <activevideoangle>false</activevideoangle>
                    <activeaudioangle>false</activeaudioangle>
                    <clip id="clip-1"/>
                  </angle>
                  <angle>
                    <activevideoangle>true</activevideoangle>
                    <activeaudioangle>true</activeaudioangle>
                    <clip id="clip-2"/>
                  </angle>
                  <angle>
                    <activevideoangle>false</activevideoangle>
                    <activeaudioangle>false</activeaudioangle>
                    <clip id="clip-3"/>
                  </angle>
                  <angle>
                    <activevideoangle>false</activevideoangle>
                    <activeaudioangle>false</activeaudioangle>
                    <clip id="clip-4"/>
                  </angle>
                  <angle>
                    <activevideoangle>false</activevideoangle>
                    <activeaudioangle>false</activeaudioangle>
                    <clip id="clip-5"/>
                  </angle>
                  <angle>
                    <activevideoangle>false</activevideoangle>
                    <activeaudioangle>false</activeaudioangle>
                    <clip id="clip-6"/>
                  </angle>
                  <angle>
                    <activevideoangle>false</activevideoangle>
                    <activeaudioangle>false</activeaudioangle>
                    <clip id="clip-7"/>
                  </angle>
                  <angle>
                    <activevideoangle>false</activevideoangle>
                    <activeaudioangle>false</activeaudioangle>
                    <clip id="clip-8"/>
                  </angle>
                  <angle>
                    <activevideoangle>false</activevideoangle>
                    <activeaudioangle>false</activeaudioangle>
                    <clip id="clip-9"/>
                  </angle>
                  <masterclipid>clip-master</masterclipid>
                </multiclip>
              </clipitem>
              <clipitem id="cs-169">
                <duration>88</duration>
                <rate>
                  <ntsc>false</ntsc>
                  <timebase>25</timebase>
                </rate>
                <in>23640</in>
                <out>23727</out>
                <start>23640</start>
                <end>23727</end>
                <file id="src-3"/>
                <sourcetrack>
                  <mediatype>video</mediatype>
                  <trackindex>1</trackindex>
                </sourcetrack>
                <multiclip id="mcs-169">
                  <name>MCS-169</name>
                  <masterclipid>clip-master</masterclipid>
                  <collapsed>false</collapsed>
                  <angle>
                    <activevideoangle>false</activevideoangle>
                    <activeaudioangle>false</activeaudioangle>
                    <clip id="clip-1"/>
                  </angle>
                  <angle>
                    <activevideoangle>false</activevideoangle>
                    <activeaudioangle>false</activeaudioangle>
                    <clip id="clip-2"/>
                  </angle>
                  <angle>
                    <activevideoangle>true</activevideoangle>
                    <activeaudioangle>true</activeaudioangle>
                    <clip id="clip-3"/>
                  </angle>
                  <angle>
                    <activevideoangle>false</activevideoangle>
                    <activeaudioangle>false</activeaudioangle>
                    <clip id="clip-4"/>
                  </angle>
                  <angle>
                    <activevideoangle>false</activevideoangle>
                    <activeaudioangle>false</activeaudioangle>
                    <clip id="clip-5"/>
                  </angle>
                  <angle>
                    <activevideoangle>false</activevideoangle>
                    <activeaudioangle>false</activeaudioangle>
                    <clip id="clip-6"/>
                  </angle>
                  <angle>
                    <activevideoangle>false</activevideoangle>
                    <activeaudioangle>false</activeaudioangle>
                    <clip id="clip-7"/>
                  </angle>
                  <angle>
                    <activevideoangle>false</activevideoangle>
                    <activeaudioangle>false</activeaudioangle>
                    <clip id="clip-8"/>
                  </angle>
                  <angle>
                    <activevideoangle>false</activevideoangle>
                    <activeaudioangle>false</activeaudioangle>
                    <clip id="clip-9"/>
                  </angle>
                  <masterclipid>clip-master</masterclipid>
                </multiclip>
              </clipitem>
              <clipitem id="cs-170">
                <duration>83</duration>
                <rate>
                  <ntsc>false</ntsc>
                  <timebase>25</timebase>
                </rate>
                <in>23727</in>
                <out>23809</out>
                <start>23727</start>
                <end>23809</end>
                <file id="src-4"/>
                <sourcetrack>
                  <mediatype>video</mediatype>
                  <trackindex>1</trackindex>
                </sourcetrack>
                <multiclip id="mcs-170">
                  <name>MCS-170</name>
                  <masterclipid>clip-master</masterclipid>
                  <collapsed>false</collapsed>
                  <angle>
                    <activevideoangle>false</activevideoangle>
                    <activeaudioangle>false</activeaudioangle>
                    <clip id="clip-1"/>
                  </angle>
                  <angle>
                    <activevideoangle>false</activevideoangle>
                    <activeaudioangle>false</activeaudioangle>
                    <clip id="clip-2"/>
                  </angle>
                  <angle>
                    <activevideoangle>false</activevideoangle>
                    <activeaudioangle>false</activeaudioangle>
                    <clip id="clip-3"/>
                  </angle>
                  <angle>
                    <activevideoangle>true</activevideoangle>
                    <activeaudioangle>true</activeaudioangle>
                    <clip id="clip-4"/>
                  </angle>
                  <angle>
                    <activevideoangle>false</activevideoangle>
                    <activeaudioangle>false</activeaudioangle>
                    <clip id="clip-5"/>
                  </angle>
                  <angle>
                    <activevideoangle>false</activevideoangle>
                    <activeaudioangle>false</activeaudioangle>
                    <clip id="clip-6"/>
                  </angle>
                  <angle>
                    <activevideoangle>false</activevideoangle>
                    <activeaudioangle>false</activeaudioangle>
                    <clip id="clip-7"/>
                  </angle>
                  <angle>
                    <activevideoangle>false</activevideoangle>
                    <activeaudioangle>false</activeaudioangle>
                    <clip id="clip-8"/>
                  </angle>
                  <angle>
                    <activevideoangle>false</activevideoangle>
                    <activeaudioangle>false</activeaudioangle>
                    <clip id="clip-9"/>
                  </angle>
                  <masterclipid>clip-master</masterclipid>
                </multiclip>
              </clipitem>
              <clipitem id="cs-171">
                <duration>54</duration>
                <rate>
                  <ntsc>false</ntsc>
                  <timebase>25</timebase>
                </rate>
                <in>23809</in>
                <out>23862</out>
                <start>23809</start>
                <end>23862</end>
                <file id="src-2"/>
                <sourcetrack>
                  <mediatype>video</mediatype>
                  <trackindex>1</trackindex>
                </sourcetrack>
                <multiclip id="mcs-171">
                  <name>MCS-171</name>
                  <masterclipid>clip-master</masterclipid>
                  <collapsed>false</collapsed>
                  <angle>
                    <activevideoangle>false</activevideoangle>
                    <activeaudioangle>false</activeaudioangle>
                    <clip id="clip-1"/>
                  </angle>
                  <angle>
                    <activevideoangle>true</activevideoangle>
                    <activeaudioangle>true</activeaudioangle>
                    <clip id="clip-2"/>
                  </angle>
                  <angle>
                    <activevideoangle>false</activevideoangle>
                    <activeaudioangle>false</activeaudioangle>
                    <clip id="clip-3"/>
                  </angle>
                  <angle>
                    <activevideoangle>false</activevideoangle>
                    <activeaudioangle>false</activeaudioangle>
                    <clip id="clip-4"/>
                  </angle>
                  <angle>
                    <activevideoangle>false</activevideoangle>
                    <activeaudioangle>false</activeaudioangle>
                    <clip id="clip-5"/>
                  </angle>
                  <angle>
                    <activevideoangle>false</activevideoangle>
                    <activeaudioangle>false</activeaudioangle>
                    <clip id="clip-6"/>
                  </angle>
                  <angle>
                    <activevideoangle>false</activevideoangle>
                    <activeaudioangle>false</activeaudioangle>
                    <clip id="clip-7"/>
                  </angle>
                  <angle>
                    <activevideoangle>false</activevideoangle>
                    <activeaudioangle>false</activeaudioangle>
                    <clip id="clip-8"/>
                  </angle>
                  <angle>
                    <activevideoangle>false</activevideoangle>
                    <activeaudioangle>false</activeaudioangle>
                    <clip id="clip-9"/>
                  </angle>
                  <masterclipid>clip-master</masterclipid>
                </multiclip>
              </clipitem>
              <clipitem id="cs-172">
                <duration>32</duration>
                <rate>
                  <ntsc>false</ntsc>
                  <timebase>25</timebase>
                </rate>
                <in>23862</in>
                <out>23893</out>
                <start>23862</start>
                <end>23893</end>
                <file id="src-3"/>
                <sourcetrack>
                  <mediatype>video</mediatype>
                  <trackindex>1</trackindex>
                </sourcetrack>
                <multiclip id="mcs-172">
                  <name>MCS-172</name>
                  <masterclipid>clip-master</masterclipid>
                  <collapsed>false</collapsed>
                  <angle>
                    <activevideoangle>false</activevideoangle>
                    <activeaudioangle>false</activeaudioangle>
                    <clip id="clip-1"/>
                  </angle>
                  <angle>
                    <activevideoangle>false</activevideoangle>
                    <activeaudioangle>false</activeaudioangle>
                    <clip id="clip-2"/>
                  </angle>
                  <angle>
                    <activevideoangle>true</activevideoangle>
                    <activeaudioangle>true</activeaudioangle>
                    <clip id="clip-3"/>
                  </angle>
                  <angle>
                    <activevideoangle>false</activevideoangle>
                    <activeaudioangle>false</activeaudioangle>
                    <clip id="clip-4"/>
                  </angle>
                  <angle>
                    <activevideoangle>false</activevideoangle>
                    <activeaudioangle>false</activeaudioangle>
                    <clip id="clip-5"/>
                  </angle>
                  <angle>
                    <activevideoangle>false</activevideoangle>
                    <activeaudioangle>false</activeaudioangle>
                    <clip id="clip-6"/>
                  </angle>
                  <angle>
                    <activevideoangle>false</activevideoangle>
                    <activeaudioangle>false</activeaudioangle>
                    <clip id="clip-7"/>
                  </angle>
                  <angle>
                    <activevideoangle>false</activevideoangle>
                    <activeaudioangle>false</activeaudioangle>
                    <clip id="clip-8"/>
                  </angle>
                  <angle>
                    <activevideoangle>false</activevideoangle>
                    <activeaudioangle>false</activeaudioangle>
                    <clip id="clip-9"/>
                  </angle>
                  <masterclipid>clip-master</masterclipid>
                </multiclip>
              </clipitem>
              <clipitem id="cs-173">
                <duration>37</duration>
                <rate>
                  <ntsc>false</ntsc>
                  <timebase>25</timebase>
                </rate>
                <in>23893</in>
                <out>23929</out>
                <start>23893</start>
                <end>23929</end>
                <file id="src-6"/>
                <sourcetrack>
                  <mediatype>video</mediatype>
                  <trackindex>1</trackindex>
                </sourcetrack>
                <multiclip id="mcs-173">
                  <name>MCS-173</name>
                  <masterclipid>clip-master</masterclipid>
                  <collapsed>false</collapsed>
                  <angle>
                    <activevideoangle>false</activevideoangle>
                    <activeaudioangle>false</activeaudioangle>
                    <clip id="clip-1"/>
                  </angle>
                  <angle>
                    <activevideoangle>false</activevideoangle>
                    <activeaudioangle>false</activeaudioangle>
                    <clip id="clip-2"/>
                  </angle>
                  <angle>
                    <activevideoangle>false</activevideoangle>
                    <activeaudioangle>false</activeaudioangle>
                    <clip id="clip-3"/>
                  </angle>
                  <angle>
                    <activevideoangle>false</activevideoangle>
                    <activeaudioangle>false</activeaudioangle>
                    <clip id="clip-4"/>
                  </angle>
                  <angle>
                    <activevideoangle>false</activevideoangle>
                    <activeaudioangle>false</activeaudioangle>
                    <clip id="clip-5"/>
                  </angle>
                  <angle>
                    <activevideoangle>true</activevideoangle>
                    <activeaudioangle>true</activeaudioangle>
                    <clip id="clip-6"/>
                  </angle>
                  <angle>
                    <activevideoangle>false</activevideoangle>
                    <activeaudioangle>false</activeaudioangle>
                    <clip id="clip-7"/>
                  </angle>
                  <angle>
                    <activevideoangle>false</activevideoangle>
                    <activeaudioangle>false</activeaudioangle>
                    <clip id="clip-8"/>
                  </angle>
                  <angle>
                    <activevideoangle>false</activevideoangle>
                    <activeaudioangle>false</activeaudioangle>
                    <clip id="clip-9"/>
                  </angle>
                  <masterclipid>clip-master</masterclipid>
                </multiclip>
              </clipitem>
              <clipitem id="cs-174">
                <duration>243</duration>
                <rate>
                  <ntsc>false</ntsc>
                  <timebase>25</timebase>
                </rate>
                <in>23929</in>
                <out>24171</out>
                <start>23929</start>
                <end>24171</end>
                <file id="src-4"/>
                <sourcetrack>
                  <mediatype>video</mediatype>
                  <trackindex>1</trackindex>
                </sourcetrack>
                <multiclip id="mcs-174">
                  <name>MCS-174</name>
                  <masterclipid>clip-master</masterclipid>
                  <collapsed>false</collapsed>
                  <angle>
                    <activevideoangle>false</activevideoangle>
                    <activeaudioangle>false</activeaudioangle>
                    <clip id="clip-1"/>
                  </angle>
                  <angle>
                    <activevideoangle>false</activevideoangle>
                    <activeaudioangle>false</activeaudioangle>
                    <clip id="clip-2"/>
                  </angle>
                  <angle>
                    <activevideoangle>false</activevideoangle>
                    <activeaudioangle>false</activeaudioangle>
                    <clip id="clip-3"/>
                  </angle>
                  <angle>
                    <activevideoangle>true</activevideoangle>
                    <activeaudioangle>true</activeaudioangle>
                    <clip id="clip-4"/>
                  </angle>
                  <angle>
                    <activevideoangle>false</activevideoangle>
                    <activeaudioangle>false</activeaudioangle>
                    <clip id="clip-5"/>
                  </angle>
                  <angle>
                    <activevideoangle>false</activevideoangle>
                    <activeaudioangle>false</activeaudioangle>
                    <clip id="clip-6"/>
                  </angle>
                  <angle>
                    <activevideoangle>false</activevideoangle>
                    <activeaudioangle>false</activeaudioangle>
                    <clip id="clip-7"/>
                  </angle>
                  <angle>
                    <activevideoangle>false</activevideoangle>
                    <activeaudioangle>false</activeaudioangle>
                    <clip id="clip-8"/>
                  </angle>
                  <angle>
                    <activevideoangle>false</activevideoangle>
                    <activeaudioangle>false</activeaudioangle>
                    <clip id="clip-9"/>
                  </angle>
                  <masterclipid>clip-master</masterclipid>
                </multiclip>
              </clipitem>
              <clipitem id="cs-175">
                <duration>115</duration>
                <rate>
                  <ntsc>false</ntsc>
                  <timebase>25</timebase>
                </rate>
                <in>24171</in>
                <out>24285</out>
                <start>24171</start>
                <end>24285</end>
                <file id="src-2"/>
                <sourcetrack>
                  <mediatype>video</mediatype>
                  <trackindex>1</trackindex>
                </sourcetrack>
                <multiclip id="mcs-175">
                  <name>MCS-175</name>
                  <masterclipid>clip-master</masterclipid>
                  <collapsed>false</collapsed>
                  <angle>
                    <activevideoangle>false</activevideoangle>
                    <activeaudioangle>false</activeaudioangle>
                    <clip id="clip-1"/>
                  </angle>
                  <angle>
                    <activevideoangle>true</activevideoangle>
                    <activeaudioangle>true</activeaudioangle>
                    <clip id="clip-2"/>
                  </angle>
                  <angle>
                    <activevideoangle>false</activevideoangle>
                    <activeaudioangle>false</activeaudioangle>
                    <clip id="clip-3"/>
                  </angle>
                  <angle>
                    <activevideoangle>false</activevideoangle>
                    <activeaudioangle>false</activeaudioangle>
                    <clip id="clip-4"/>
                  </angle>
                  <angle>
                    <activevideoangle>false</activevideoangle>
                    <activeaudioangle>false</activeaudioangle>
                    <clip id="clip-5"/>
                  </angle>
                  <angle>
                    <activevideoangle>false</activevideoangle>
                    <activeaudioangle>false</activeaudioangle>
                    <clip id="clip-6"/>
                  </angle>
                  <angle>
                    <activevideoangle>false</activevideoangle>
                    <activeaudioangle>false</activeaudioangle>
                    <clip id="clip-7"/>
                  </angle>
                  <angle>
                    <activevideoangle>false</activevideoangle>
                    <activeaudioangle>false</activeaudioangle>
                    <clip id="clip-8"/>
                  </angle>
                  <angle>
                    <activevideoangle>false</activevideoangle>
                    <activeaudioangle>false</activeaudioangle>
                    <clip id="clip-9"/>
                  </angle>
                  <masterclipid>clip-master</masterclipid>
                </multiclip>
              </clipitem>
              <clipitem id="cs-176">
                <duration>176</duration>
                <rate>
                  <ntsc>false</ntsc>
                  <timebase>25</timebase>
                </rate>
                <in>24285</in>
                <out>24460</out>
                <start>24285</start>
                <end>24460</end>
                <file id="src-4"/>
                <sourcetrack>
                  <mediatype>video</mediatype>
                  <trackindex>1</trackindex>
                </sourcetrack>
                <multiclip id="mcs-176">
                  <name>MCS-176</name>
                  <masterclipid>clip-master</masterclipid>
                  <collapsed>false</collapsed>
                  <angle>
                    <activevideoangle>false</activevideoangle>
                    <activeaudioangle>false</activeaudioangle>
                    <clip id="clip-1"/>
                  </angle>
                  <angle>
                    <activevideoangle>false</activevideoangle>
                    <activeaudioangle>false</activeaudioangle>
                    <clip id="clip-2"/>
                  </angle>
                  <angle>
                    <activevideoangle>false</activevideoangle>
                    <activeaudioangle>false</activeaudioangle>
                    <clip id="clip-3"/>
                  </angle>
                  <angle>
                    <activevideoangle>true</activevideoangle>
                    <activeaudioangle>true</activeaudioangle>
                    <clip id="clip-4"/>
                  </angle>
                  <angle>
                    <activevideoangle>false</activevideoangle>
                    <activeaudioangle>false</activeaudioangle>
                    <clip id="clip-5"/>
                  </angle>
                  <angle>
                    <activevideoangle>false</activevideoangle>
                    <activeaudioangle>false</activeaudioangle>
                    <clip id="clip-6"/>
                  </angle>
                  <angle>
                    <activevideoangle>false</activevideoangle>
                    <activeaudioangle>false</activeaudioangle>
                    <clip id="clip-7"/>
                  </angle>
                  <angle>
                    <activevideoangle>false</activevideoangle>
                    <activeaudioangle>false</activeaudioangle>
                    <clip id="clip-8"/>
                  </angle>
                  <angle>
                    <activevideoangle>false</activevideoangle>
                    <activeaudioangle>false</activeaudioangle>
                    <clip id="clip-9"/>
                  </angle>
                  <masterclipid>clip-master</masterclipid>
                </multiclip>
              </clipitem>
              <clipitem id="cs-177">
                <duration>21</duration>
                <rate>
                  <ntsc>false</ntsc>
                  <timebase>25</timebase>
                </rate>
                <in>24460</in>
                <out>24480</out>
                <start>24460</start>
                <end>24480</end>
                <file id="src-7"/>
                <sourcetrack>
                  <mediatype>video</mediatype>
                  <trackindex>1</trackindex>
                </sourcetrack>
                <multiclip id="mcs-177">
                  <name>MCS-177</name>
                  <masterclipid>clip-master</masterclipid>
                  <collapsed>false</collapsed>
                  <angle>
                    <activevideoangle>false</activevideoangle>
                    <activeaudioangle>false</activeaudioangle>
                    <clip id="clip-1"/>
                  </angle>
                  <angle>
                    <activevideoangle>false</activevideoangle>
                    <activeaudioangle>false</activeaudioangle>
                    <clip id="clip-2"/>
                  </angle>
                  <angle>
                    <activevideoangle>false</activevideoangle>
                    <activeaudioangle>false</activeaudioangle>
                    <clip id="clip-3"/>
                  </angle>
                  <angle>
                    <activevideoangle>false</activevideoangle>
                    <activeaudioangle>false</activeaudioangle>
                    <clip id="clip-4"/>
                  </angle>
                  <angle>
                    <activevideoangle>false</activevideoangle>
                    <activeaudioangle>false</activeaudioangle>
                    <clip id="clip-5"/>
                  </angle>
                  <angle>
                    <activevideoangle>false</activevideoangle>
                    <activeaudioangle>false</activeaudioangle>
                    <clip id="clip-6"/>
                  </angle>
                  <angle>
                    <activevideoangle>true</activevideoangle>
                    <activeaudioangle>true</activeaudioangle>
                    <clip id="clip-7"/>
                  </angle>
                  <angle>
                    <activevideoangle>false</activevideoangle>
                    <activeaudioangle>false</activeaudioangle>
                    <clip id="clip-8"/>
                  </angle>
                  <angle>
                    <activevideoangle>false</activevideoangle>
                    <activeaudioangle>false</activeaudioangle>
                    <clip id="clip-9"/>
                  </angle>
                  <masterclipid>clip-master</masterclipid>
                </multiclip>
              </clipitem>
              <clipitem id="cs-178">
                <duration>113</duration>
                <rate>
                  <ntsc>false</ntsc>
                  <timebase>25</timebase>
                </rate>
                <in>24480</in>
                <out>24592</out>
                <start>24480</start>
                <end>24592</end>
                <file id="src-2"/>
                <sourcetrack>
                  <mediatype>video</mediatype>
                  <trackindex>1</trackindex>
                </sourcetrack>
                <multiclip id="mcs-178">
                  <name>MCS-178</name>
                  <masterclipid>clip-master</masterclipid>
                  <collapsed>false</collapsed>
                  <angle>
                    <activevideoangle>false</activevideoangle>
                    <activeaudioangle>false</activeaudioangle>
                    <clip id="clip-1"/>
                  </angle>
                  <angle>
                    <activevideoangle>true</activevideoangle>
                    <activeaudioangle>true</activeaudioangle>
                    <clip id="clip-2"/>
                  </angle>
                  <angle>
                    <activevideoangle>false</activevideoangle>
                    <activeaudioangle>false</activeaudioangle>
                    <clip id="clip-3"/>
                  </angle>
                  <angle>
                    <activevideoangle>false</activevideoangle>
                    <activeaudioangle>false</activeaudioangle>
                    <clip id="clip-4"/>
                  </angle>
                  <angle>
                    <activevideoangle>false</activevideoangle>
                    <activeaudioangle>false</activeaudioangle>
                    <clip id="clip-5"/>
                  </angle>
                  <angle>
                    <activevideoangle>false</activevideoangle>
                    <activeaudioangle>false</activeaudioangle>
                    <clip id="clip-6"/>
                  </angle>
                  <angle>
                    <activevideoangle>false</activevideoangle>
                    <activeaudioangle>false</activeaudioangle>
                    <clip id="clip-7"/>
                  </angle>
                  <angle>
                    <activevideoangle>false</activevideoangle>
                    <activeaudioangle>false</activeaudioangle>
                    <clip id="clip-8"/>
                  </angle>
                  <angle>
                    <activevideoangle>false</activevideoangle>
                    <activeaudioangle>false</activeaudioangle>
                    <clip id="clip-9"/>
                  </angle>
                  <masterclipid>clip-master</masterclipid>
                </multiclip>
              </clipitem>
              <clipitem id="cs-179">
                <duration>135</duration>
                <rate>
                  <ntsc>false</ntsc>
                  <timebase>25</timebase>
                </rate>
                <in>24592</in>
                <out>24726</out>
                <start>24592</start>
                <end>24726</end>
                <file id="src-4"/>
                <sourcetrack>
                  <mediatype>video</mediatype>
                  <trackindex>1</trackindex>
                </sourcetrack>
                <multiclip id="mcs-179">
                  <name>MCS-179</name>
                  <masterclipid>clip-master</masterclipid>
                  <collapsed>false</collapsed>
                  <angle>
                    <activevideoangle>false</activevideoangle>
                    <activeaudioangle>false</activeaudioangle>
                    <clip id="clip-1"/>
                  </angle>
                  <angle>
                    <activevideoangle>false</activevideoangle>
                    <activeaudioangle>false</activeaudioangle>
                    <clip id="clip-2"/>
                  </angle>
                  <angle>
                    <activevideoangle>false</activevideoangle>
                    <activeaudioangle>false</activeaudioangle>
                    <clip id="clip-3"/>
                  </angle>
                  <angle>
                    <activevideoangle>true</activevideoangle>
                    <activeaudioangle>true</activeaudioangle>
                    <clip id="clip-4"/>
                  </angle>
                  <angle>
                    <activevideoangle>false</activevideoangle>
                    <activeaudioangle>false</activeaudioangle>
                    <clip id="clip-5"/>
                  </angle>
                  <angle>
                    <activevideoangle>false</activevideoangle>
                    <activeaudioangle>false</activeaudioangle>
                    <clip id="clip-6"/>
                  </angle>
                  <angle>
                    <activevideoangle>false</activevideoangle>
                    <activeaudioangle>false</activeaudioangle>
                    <clip id="clip-7"/>
                  </angle>
                  <angle>
                    <activevideoangle>false</activevideoangle>
                    <activeaudioangle>false</activeaudioangle>
                    <clip id="clip-8"/>
                  </angle>
                  <angle>
                    <activevideoangle>false</activevideoangle>
                    <activeaudioangle>false</activeaudioangle>
                    <clip id="clip-9"/>
                  </angle>
                  <masterclipid>clip-master</masterclipid>
                </multiclip>
              </clipitem>
              <clipitem id="cs-180">
                <duration>38</duration>
                <rate>
                  <ntsc>false</ntsc>
                  <timebase>25</timebase>
                </rate>
                <in>24726</in>
                <out>24763</out>
                <start>24726</start>
                <end>24763</end>
                <file id="src-2"/>
                <sourcetrack>
                  <mediatype>video</mediatype>
                  <trackindex>1</trackindex>
                </sourcetrack>
                <multiclip id="mcs-180">
                  <name>MCS-180</name>
                  <masterclipid>clip-master</masterclipid>
                  <collapsed>false</collapsed>
                  <angle>
                    <activevideoangle>false</activevideoangle>
                    <activeaudioangle>false</activeaudioangle>
                    <clip id="clip-1"/>
                  </angle>
                  <angle>
                    <activevideoangle>true</activevideoangle>
                    <activeaudioangle>true</activeaudioangle>
                    <clip id="clip-2"/>
                  </angle>
                  <angle>
                    <activevideoangle>false</activevideoangle>
                    <activeaudioangle>false</activeaudioangle>
                    <clip id="clip-3"/>
                  </angle>
                  <angle>
                    <activevideoangle>false</activevideoangle>
                    <activeaudioangle>false</activeaudioangle>
                    <clip id="clip-4"/>
                  </angle>
                  <angle>
                    <activevideoangle>false</activevideoangle>
                    <activeaudioangle>false</activeaudioangle>
                    <clip id="clip-5"/>
                  </angle>
                  <angle>
                    <activevideoangle>false</activevideoangle>
                    <activeaudioangle>false</activeaudioangle>
                    <clip id="clip-6"/>
                  </angle>
                  <angle>
                    <activevideoangle>false</activevideoangle>
                    <activeaudioangle>false</activeaudioangle>
                    <clip id="clip-7"/>
                  </angle>
                  <angle>
                    <activevideoangle>false</activevideoangle>
                    <activeaudioangle>false</activeaudioangle>
                    <clip id="clip-8"/>
                  </angle>
                  <angle>
                    <activevideoangle>false</activevideoangle>
                    <activeaudioangle>false</activeaudioangle>
                    <clip id="clip-9"/>
                  </angle>
                  <masterclipid>clip-master</masterclipid>
                </multiclip>
              </clipitem>
              <clipitem id="cs-181">
                <duration>47</duration>
                <rate>
                  <ntsc>false</ntsc>
                  <timebase>25</timebase>
                </rate>
                <in>24763</in>
                <out>24809</out>
                <start>24763</start>
                <end>24809</end>
                <file id="src-3"/>
                <sourcetrack>
                  <mediatype>video</mediatype>
                  <trackindex>1</trackindex>
                </sourcetrack>
                <multiclip id="mcs-181">
                  <name>MCS-181</name>
                  <masterclipid>clip-master</masterclipid>
                  <collapsed>false</collapsed>
                  <angle>
                    <activevideoangle>false</activevideoangle>
                    <activeaudioangle>false</activeaudioangle>
                    <clip id="clip-1"/>
                  </angle>
                  <angle>
                    <activevideoangle>false</activevideoangle>
                    <activeaudioangle>false</activeaudioangle>
                    <clip id="clip-2"/>
                  </angle>
                  <angle>
                    <activevideoangle>true</activevideoangle>
                    <activeaudioangle>true</activeaudioangle>
                    <clip id="clip-3"/>
                  </angle>
                  <angle>
                    <activevideoangle>false</activevideoangle>
                    <activeaudioangle>false</activeaudioangle>
                    <clip id="clip-4"/>
                  </angle>
                  <angle>
                    <activevideoangle>false</activevideoangle>
                    <activeaudioangle>false</activeaudioangle>
                    <clip id="clip-5"/>
                  </angle>
                  <angle>
                    <activevideoangle>false</activevideoangle>
                    <activeaudioangle>false</activeaudioangle>
                    <clip id="clip-6"/>
                  </angle>
                  <angle>
                    <activevideoangle>false</activevideoangle>
                    <activeaudioangle>false</activeaudioangle>
                    <clip id="clip-7"/>
                  </angle>
                  <angle>
                    <activevideoangle>false</activevideoangle>
                    <activeaudioangle>false</activeaudioangle>
                    <clip id="clip-8"/>
                  </angle>
                  <angle>
                    <activevideoangle>false</activevideoangle>
                    <activeaudioangle>false</activeaudioangle>
                    <clip id="clip-9"/>
                  </angle>
                  <masterclipid>clip-master</masterclipid>
                </multiclip>
              </clipitem>
              <clipitem id="cs-182">
                <duration>45</duration>
                <rate>
                  <ntsc>false</ntsc>
                  <timebase>25</timebase>
                </rate>
                <in>24809</in>
                <out>24853</out>
                <start>24809</start>
                <end>24853</end>
                <file id="src-4"/>
                <sourcetrack>
                  <mediatype>video</mediatype>
                  <trackindex>1</trackindex>
                </sourcetrack>
                <multiclip id="mcs-182">
                  <name>MCS-182</name>
                  <masterclipid>clip-master</masterclipid>
                  <collapsed>false</collapsed>
                  <angle>
                    <activevideoangle>false</activevideoangle>
                    <activeaudioangle>false</activeaudioangle>
                    <clip id="clip-1"/>
                  </angle>
                  <angle>
                    <activevideoangle>false</activevideoangle>
                    <activeaudioangle>false</activeaudioangle>
                    <clip id="clip-2"/>
                  </angle>
                  <angle>
                    <activevideoangle>false</activevideoangle>
                    <activeaudioangle>false</activeaudioangle>
                    <clip id="clip-3"/>
                  </angle>
                  <angle>
                    <activevideoangle>true</activevideoangle>
                    <activeaudioangle>true</activeaudioangle>
                    <clip id="clip-4"/>
                  </angle>
                  <angle>
                    <activevideoangle>false</activevideoangle>
                    <activeaudioangle>false</activeaudioangle>
                    <clip id="clip-5"/>
                  </angle>
                  <angle>
                    <activevideoangle>false</activevideoangle>
                    <activeaudioangle>false</activeaudioangle>
                    <clip id="clip-6"/>
                  </angle>
                  <angle>
                    <activevideoangle>false</activevideoangle>
                    <activeaudioangle>false</activeaudioangle>
                    <clip id="clip-7"/>
                  </angle>
                  <angle>
                    <activevideoangle>false</activevideoangle>
                    <activeaudioangle>false</activeaudioangle>
                    <clip id="clip-8"/>
                  </angle>
                  <angle>
                    <activevideoangle>false</activevideoangle>
                    <activeaudioangle>false</activeaudioangle>
                    <clip id="clip-9"/>
                  </angle>
                  <masterclipid>clip-master</masterclipid>
                </multiclip>
              </clipitem>
              <clipitem id="cs-183">
                <duration>120</duration>
                <rate>
                  <ntsc>false</ntsc>
                  <timebase>25</timebase>
                </rate>
                <in>24853</in>
                <out>24972</out>
                <start>24853</start>
                <end>24972</end>
                <file id="src-6"/>
                <sourcetrack>
                  <mediatype>video</mediatype>
                  <trackindex>1</trackindex>
                </sourcetrack>
                <multiclip id="mcs-183">
                  <name>MCS-183</name>
                  <masterclipid>clip-master</masterclipid>
                  <collapsed>false</collapsed>
                  <angle>
                    <activevideoangle>false</activevideoangle>
                    <activeaudioangle>false</activeaudioangle>
                    <clip id="clip-1"/>
                  </angle>
                  <angle>
                    <activevideoangle>false</activevideoangle>
                    <activeaudioangle>false</activeaudioangle>
                    <clip id="clip-2"/>
                  </angle>
                  <angle>
                    <activevideoangle>false</activevideoangle>
                    <activeaudioangle>false</activeaudioangle>
                    <clip id="clip-3"/>
                  </angle>
                  <angle>
                    <activevideoangle>false</activevideoangle>
                    <activeaudioangle>false</activeaudioangle>
                    <clip id="clip-4"/>
                  </angle>
                  <angle>
                    <activevideoangle>false</activevideoangle>
                    <activeaudioangle>false</activeaudioangle>
                    <clip id="clip-5"/>
                  </angle>
                  <angle>
                    <activevideoangle>true</activevideoangle>
                    <activeaudioangle>true</activeaudioangle>
                    <clip id="clip-6"/>
                  </angle>
                  <angle>
                    <activevideoangle>false</activevideoangle>
                    <activeaudioangle>false</activeaudioangle>
                    <clip id="clip-7"/>
                  </angle>
                  <angle>
                    <activevideoangle>false</activevideoangle>
                    <activeaudioangle>false</activeaudioangle>
                    <clip id="clip-8"/>
                  </angle>
                  <angle>
                    <activevideoangle>false</activevideoangle>
                    <activeaudioangle>false</activeaudioangle>
                    <clip id="clip-9"/>
                  </angle>
                  <masterclipid>clip-master</masterclipid>
                </multiclip>
              </clipitem>
              <clipitem id="cs-184">
                <duration>221</duration>
                <rate>
                  <ntsc>false</ntsc>
                  <timebase>25</timebase>
                </rate>
                <in>24972</in>
                <out>25192</out>
                <start>24972</start>
                <end>25192</end>
                <file id="src-4"/>
                <sourcetrack>
                  <mediatype>video</mediatype>
                  <trackindex>1</trackindex>
                </sourcetrack>
                <multiclip id="mcs-184">
                  <name>MCS-184</name>
                  <masterclipid>clip-master</masterclipid>
                  <collapsed>false</collapsed>
                  <angle>
                    <activevideoangle>false</activevideoangle>
                    <activeaudioangle>false</activeaudioangle>
                    <clip id="clip-1"/>
                  </angle>
                  <angle>
                    <activevideoangle>false</activevideoangle>
                    <activeaudioangle>false</activeaudioangle>
                    <clip id="clip-2"/>
                  </angle>
                  <angle>
                    <activevideoangle>false</activevideoangle>
                    <activeaudioangle>false</activeaudioangle>
                    <clip id="clip-3"/>
                  </angle>
                  <angle>
                    <activevideoangle>true</activevideoangle>
                    <activeaudioangle>true</activeaudioangle>
                    <clip id="clip-4"/>
                  </angle>
                  <angle>
                    <activevideoangle>false</activevideoangle>
                    <activeaudioangle>false</activeaudioangle>
                    <clip id="clip-5"/>
                  </angle>
                  <angle>
                    <activevideoangle>false</activevideoangle>
                    <activeaudioangle>false</activeaudioangle>
                    <clip id="clip-6"/>
                  </angle>
                  <angle>
                    <activevideoangle>false</activevideoangle>
                    <activeaudioangle>false</activeaudioangle>
                    <clip id="clip-7"/>
                  </angle>
                  <angle>
                    <activevideoangle>false</activevideoangle>
                    <activeaudioangle>false</activeaudioangle>
                    <clip id="clip-8"/>
                  </angle>
                  <angle>
                    <activevideoangle>false</activevideoangle>
                    <activeaudioangle>false</activeaudioangle>
                    <clip id="clip-9"/>
                  </angle>
                  <masterclipid>clip-master</masterclipid>
                </multiclip>
              </clipitem>
              <clipitem id="cs-185">
                <duration>83</duration>
                <rate>
                  <ntsc>false</ntsc>
                  <timebase>25</timebase>
                </rate>
                <in>25192</in>
                <out>25274</out>
                <start>25192</start>
                <end>25274</end>
                <file id="src-6"/>
                <sourcetrack>
                  <mediatype>video</mediatype>
                  <trackindex>1</trackindex>
                </sourcetrack>
                <multiclip id="mcs-185">
                  <name>MCS-185</name>
                  <masterclipid>clip-master</masterclipid>
                  <collapsed>false</collapsed>
                  <angle>
                    <activevideoangle>false</activevideoangle>
                    <activeaudioangle>false</activeaudioangle>
                    <clip id="clip-1"/>
                  </angle>
                  <angle>
                    <activevideoangle>false</activevideoangle>
                    <activeaudioangle>false</activeaudioangle>
                    <clip id="clip-2"/>
                  </angle>
                  <angle>
                    <activevideoangle>false</activevideoangle>
                    <activeaudioangle>false</activeaudioangle>
                    <clip id="clip-3"/>
                  </angle>
                  <angle>
                    <activevideoangle>false</activevideoangle>
                    <activeaudioangle>false</activeaudioangle>
                    <clip id="clip-4"/>
                  </angle>
                  <angle>
                    <activevideoangle>false</activevideoangle>
                    <activeaudioangle>false</activeaudioangle>
                    <clip id="clip-5"/>
                  </angle>
                  <angle>
                    <activevideoangle>true</activevideoangle>
                    <activeaudioangle>true</activeaudioangle>
                    <clip id="clip-6"/>
                  </angle>
                  <angle>
                    <activevideoangle>false</activevideoangle>
                    <activeaudioangle>false</activeaudioangle>
                    <clip id="clip-7"/>
                  </angle>
                  <angle>
                    <activevideoangle>false</activevideoangle>
                    <activeaudioangle>false</activeaudioangle>
                    <clip id="clip-8"/>
                  </angle>
                  <angle>
                    <activevideoangle>false</activevideoangle>
                    <activeaudioangle>false</activeaudioangle>
                    <clip id="clip-9"/>
                  </angle>
                  <masterclipid>clip-master</masterclipid>
                </multiclip>
              </clipitem>
              <clipitem id="cs-186">
                <duration>173</duration>
                <rate>
                  <ntsc>false</ntsc>
                  <timebase>25</timebase>
                </rate>
                <in>25274</in>
                <out>25446</out>
                <start>25274</start>
                <end>25446</end>
                <file id="src-8"/>
                <sourcetrack>
                  <mediatype>video</mediatype>
                  <trackindex>1</trackindex>
                </sourcetrack>
                <multiclip id="mcs-186">
                  <name>MCS-186</name>
                  <masterclipid>clip-master</masterclipid>
                  <collapsed>false</collapsed>
                  <angle>
                    <activevideoangle>false</activevideoangle>
                    <activeaudioangle>false</activeaudioangle>
                    <clip id="clip-1"/>
                  </angle>
                  <angle>
                    <activevideoangle>false</activevideoangle>
                    <activeaudioangle>false</activeaudioangle>
                    <clip id="clip-2"/>
                  </angle>
                  <angle>
                    <activevideoangle>false</activevideoangle>
                    <activeaudioangle>false</activeaudioangle>
                    <clip id="clip-3"/>
                  </angle>
                  <angle>
                    <activevideoangle>false</activevideoangle>
                    <activeaudioangle>false</activeaudioangle>
                    <clip id="clip-4"/>
                  </angle>
                  <angle>
                    <activevideoangle>false</activevideoangle>
                    <activeaudioangle>false</activeaudioangle>
                    <clip id="clip-5"/>
                  </angle>
                  <angle>
                    <activevideoangle>false</activevideoangle>
                    <activeaudioangle>false</activeaudioangle>
                    <clip id="clip-6"/>
                  </angle>
                  <angle>
                    <activevideoangle>false</activevideoangle>
                    <activeaudioangle>false</activeaudioangle>
                    <clip id="clip-7"/>
                  </angle>
                  <angle>
                    <activevideoangle>true</activevideoangle>
                    <activeaudioangle>true</activeaudioangle>
                    <clip id="clip-8"/>
                  </angle>
                  <angle>
                    <activevideoangle>false</activevideoangle>
                    <activeaudioangle>false</activeaudioangle>
                    <clip id="clip-9"/>
                  </angle>
                  <masterclipid>clip-master</masterclipid>
                </multiclip>
              </clipitem>
              <clipitem id="cs-187">
                <duration>77</duration>
                <rate>
                  <ntsc>false</ntsc>
                  <timebase>25</timebase>
                </rate>
                <in>25446</in>
                <out>25522</out>
                <start>25446</start>
                <end>25522</end>
                <file id="src-3"/>
                <sourcetrack>
                  <mediatype>video</mediatype>
                  <trackindex>1</trackindex>
                </sourcetrack>
                <multiclip id="mcs-187">
                  <name>MCS-187</name>
                  <masterclipid>clip-master</masterclipid>
                  <collapsed>false</collapsed>
                  <angle>
                    <activevideoangle>false</activevideoangle>
                    <activeaudioangle>false</activeaudioangle>
                    <clip id="clip-1"/>
                  </angle>
                  <angle>
                    <activevideoangle>false</activevideoangle>
                    <activeaudioangle>false</activeaudioangle>
                    <clip id="clip-2"/>
                  </angle>
                  <angle>
                    <activevideoangle>true</activevideoangle>
                    <activeaudioangle>true</activeaudioangle>
                    <clip id="clip-3"/>
                  </angle>
                  <angle>
                    <activevideoangle>false</activevideoangle>
                    <activeaudioangle>false</activeaudioangle>
                    <clip id="clip-4"/>
                  </angle>
                  <angle>
                    <activevideoangle>false</activevideoangle>
                    <activeaudioangle>false</activeaudioangle>
                    <clip id="clip-5"/>
                  </angle>
                  <angle>
                    <activevideoangle>false</activevideoangle>
                    <activeaudioangle>false</activeaudioangle>
                    <clip id="clip-6"/>
                  </angle>
                  <angle>
                    <activevideoangle>false</activevideoangle>
                    <activeaudioangle>false</activeaudioangle>
                    <clip id="clip-7"/>
                  </angle>
                  <angle>
                    <activevideoangle>false</activevideoangle>
                    <activeaudioangle>false</activeaudioangle>
                    <clip id="clip-8"/>
                  </angle>
                  <angle>
                    <activevideoangle>false</activevideoangle>
                    <activeaudioangle>false</activeaudioangle>
                    <clip id="clip-9"/>
                  </angle>
                  <masterclipid>clip-master</masterclipid>
                </multiclip>
              </clipitem>
              <clipitem id="cs-188">
                <duration>44</duration>
                <rate>
                  <ntsc>false</ntsc>
                  <timebase>25</timebase>
                </rate>
                <in>25522</in>
                <out>25565</out>
                <start>25522</start>
                <end>25565</end>
                <file id="src-2"/>
                <sourcetrack>
                  <mediatype>video</mediatype>
                  <trackindex>1</trackindex>
                </sourcetrack>
                <multiclip id="mcs-188">
                  <name>MCS-188</name>
                  <masterclipid>clip-master</masterclipid>
                  <collapsed>false</collapsed>
                  <angle>
                    <activevideoangle>false</activevideoangle>
                    <activeaudioangle>false</activeaudioangle>
                    <clip id="clip-1"/>
                  </angle>
                  <angle>
                    <activevideoangle>true</activevideoangle>
                    <activeaudioangle>true</activeaudioangle>
                    <clip id="clip-2"/>
                  </angle>
                  <angle>
                    <activevideoangle>false</activevideoangle>
                    <activeaudioangle>false</activeaudioangle>
                    <clip id="clip-3"/>
                  </angle>
                  <angle>
                    <activevideoangle>false</activevideoangle>
                    <activeaudioangle>false</activeaudioangle>
                    <clip id="clip-4"/>
                  </angle>
                  <angle>
                    <activevideoangle>false</activevideoangle>
                    <activeaudioangle>false</activeaudioangle>
                    <clip id="clip-5"/>
                  </angle>
                  <angle>
                    <activevideoangle>false</activevideoangle>
                    <activeaudioangle>false</activeaudioangle>
                    <clip id="clip-6"/>
                  </angle>
                  <angle>
                    <activevideoangle>false</activevideoangle>
                    <activeaudioangle>false</activeaudioangle>
                    <clip id="clip-7"/>
                  </angle>
                  <angle>
                    <activevideoangle>false</activevideoangle>
                    <activeaudioangle>false</activeaudioangle>
                    <clip id="clip-8"/>
                  </angle>
                  <angle>
                    <activevideoangle>false</activevideoangle>
                    <activeaudioangle>false</activeaudioangle>
                    <clip id="clip-9"/>
                  </angle>
                  <masterclipid>clip-master</masterclipid>
                </multiclip>
              </clipitem>
              <clipitem id="cs-189">
                <duration>51</duration>
                <rate>
                  <ntsc>false</ntsc>
                  <timebase>25</timebase>
                </rate>
                <in>25565</in>
                <out>25615</out>
                <start>25565</start>
                <end>25615</end>
                <file id="src-4"/>
                <sourcetrack>
                  <mediatype>video</mediatype>
                  <trackindex>1</trackindex>
                </sourcetrack>
                <multiclip id="mcs-189">
                  <name>MCS-189</name>
                  <masterclipid>clip-master</masterclipid>
                  <collapsed>false</collapsed>
                  <angle>
                    <activevideoangle>false</activevideoangle>
                    <activeaudioangle>false</activeaudioangle>
                    <clip id="clip-1"/>
                  </angle>
                  <angle>
                    <activevideoangle>false</activevideoangle>
                    <activeaudioangle>false</activeaudioangle>
                    <clip id="clip-2"/>
                  </angle>
                  <angle>
                    <activevideoangle>false</activevideoangle>
                    <activeaudioangle>false</activeaudioangle>
                    <clip id="clip-3"/>
                  </angle>
                  <angle>
                    <activevideoangle>true</activevideoangle>
                    <activeaudioangle>true</activeaudioangle>
                    <clip id="clip-4"/>
                  </angle>
                  <angle>
                    <activevideoangle>false</activevideoangle>
                    <activeaudioangle>false</activeaudioangle>
                    <clip id="clip-5"/>
                  </angle>
                  <angle>
                    <activevideoangle>false</activevideoangle>
                    <activeaudioangle>false</activeaudioangle>
                    <clip id="clip-6"/>
                  </angle>
                  <angle>
                    <activevideoangle>false</activevideoangle>
                    <activeaudioangle>false</activeaudioangle>
                    <clip id="clip-7"/>
                  </angle>
                  <angle>
                    <activevideoangle>false</activevideoangle>
                    <activeaudioangle>false</activeaudioangle>
                    <clip id="clip-8"/>
                  </angle>
                  <angle>
                    <activevideoangle>false</activevideoangle>
                    <activeaudioangle>false</activeaudioangle>
                    <clip id="clip-9"/>
                  </angle>
                  <masterclipid>clip-master</masterclipid>
                </multiclip>
              </clipitem>
              <clipitem id="cs-190">
                <duration>59</duration>
                <rate>
                  <ntsc>false</ntsc>
                  <timebase>25</timebase>
                </rate>
                <in>25615</in>
                <out>25673</out>
                <start>25615</start>
                <end>25673</end>
                <file id="src-5"/>
                <sourcetrack>
                  <mediatype>video</mediatype>
                  <trackindex>1</trackindex>
                </sourcetrack>
                <multiclip id="mcs-190">
                  <name>MCS-190</name>
                  <masterclipid>clip-master</masterclipid>
                  <collapsed>false</collapsed>
                  <angle>
                    <activevideoangle>false</activevideoangle>
                    <activeaudioangle>false</activeaudioangle>
                    <clip id="clip-1"/>
                  </angle>
                  <angle>
                    <activevideoangle>false</activevideoangle>
                    <activeaudioangle>false</activeaudioangle>
                    <clip id="clip-2"/>
                  </angle>
                  <angle>
                    <activevideoangle>false</activevideoangle>
                    <activeaudioangle>false</activeaudioangle>
                    <clip id="clip-3"/>
                  </angle>
                  <angle>
                    <activevideoangle>false</activevideoangle>
                    <activeaudioangle>false</activeaudioangle>
                    <clip id="clip-4"/>
                  </angle>
                  <angle>
                    <activevideoangle>true</activevideoangle>
                    <activeaudioangle>true</activeaudioangle>
                    <clip id="clip-5"/>
                  </angle>
                  <angle>
                    <activevideoangle>false</activevideoangle>
                    <activeaudioangle>false</activeaudioangle>
                    <clip id="clip-6"/>
                  </angle>
                  <angle>
                    <activevideoangle>false</activevideoangle>
                    <activeaudioangle>false</activeaudioangle>
                    <clip id="clip-7"/>
                  </angle>
                  <angle>
                    <activevideoangle>false</activevideoangle>
                    <activeaudioangle>false</activeaudioangle>
                    <clip id="clip-8"/>
                  </angle>
                  <angle>
                    <activevideoangle>false</activevideoangle>
                    <activeaudioangle>false</activeaudioangle>
                    <clip id="clip-9"/>
                  </angle>
                  <masterclipid>clip-master</masterclipid>
                </multiclip>
              </clipitem>
              <clipitem id="cs-191">
                <duration>83</duration>
                <rate>
                  <ntsc>false</ntsc>
                  <timebase>25</timebase>
                </rate>
                <in>25673</in>
                <out>25755</out>
                <start>25673</start>
                <end>25755</end>
                <file id="src-3"/>
                <sourcetrack>
                  <mediatype>video</mediatype>
                  <trackindex>1</trackindex>
                </sourcetrack>
                <multiclip id="mcs-191">
                  <name>MCS-191</name>
                  <masterclipid>clip-master</masterclipid>
                  <collapsed>false</collapsed>
                  <angle>
                    <activevideoangle>false</activevideoangle>
                    <activeaudioangle>false</activeaudioangle>
                    <clip id="clip-1"/>
                  </angle>
                  <angle>
                    <activevideoangle>false</activevideoangle>
                    <activeaudioangle>false</activeaudioangle>
                    <clip id="clip-2"/>
                  </angle>
                  <angle>
                    <activevideoangle>true</activevideoangle>
                    <activeaudioangle>true</activeaudioangle>
                    <clip id="clip-3"/>
                  </angle>
                  <angle>
                    <activevideoangle>false</activevideoangle>
                    <activeaudioangle>false</activeaudioangle>
                    <clip id="clip-4"/>
                  </angle>
                  <angle>
                    <activevideoangle>false</activevideoangle>
                    <activeaudioangle>false</activeaudioangle>
                    <clip id="clip-5"/>
                  </angle>
                  <angle>
                    <activevideoangle>false</activevideoangle>
                    <activeaudioangle>false</activeaudioangle>
                    <clip id="clip-6"/>
                  </angle>
                  <angle>
                    <activevideoangle>false</activevideoangle>
                    <activeaudioangle>false</activeaudioangle>
                    <clip id="clip-7"/>
                  </angle>
                  <angle>
                    <activevideoangle>false</activevideoangle>
                    <activeaudioangle>false</activeaudioangle>
                    <clip id="clip-8"/>
                  </angle>
                  <angle>
                    <activevideoangle>false</activevideoangle>
                    <activeaudioangle>false</activeaudioangle>
                    <clip id="clip-9"/>
                  </angle>
                  <masterclipid>clip-master</masterclipid>
                </multiclip>
              </clipitem>
              <clipitem id="cs-192">
                <duration>183</duration>
                <rate>
                  <ntsc>false</ntsc>
                  <timebase>25</timebase>
                </rate>
                <in>25755</in>
                <out>25937</out>
                <start>25755</start>
                <end>25937</end>
                <file id="src-2"/>
                <sourcetrack>
                  <mediatype>video</mediatype>
                  <trackindex>1</trackindex>
                </sourcetrack>
                <multiclip id="mcs-192">
                  <name>MCS-192</name>
                  <masterclipid>clip-master</masterclipid>
                  <collapsed>false</collapsed>
                  <angle>
                    <activevideoangle>false</activevideoangle>
                    <activeaudioangle>false</activeaudioangle>
                    <clip id="clip-1"/>
                  </angle>
                  <angle>
                    <activevideoangle>true</activevideoangle>
                    <activeaudioangle>true</activeaudioangle>
                    <clip id="clip-2"/>
                  </angle>
                  <angle>
                    <activevideoangle>false</activevideoangle>
                    <activeaudioangle>false</activeaudioangle>
                    <clip id="clip-3"/>
                  </angle>
                  <angle>
                    <activevideoangle>false</activevideoangle>
                    <activeaudioangle>false</activeaudioangle>
                    <clip id="clip-4"/>
                  </angle>
                  <angle>
                    <activevideoangle>false</activevideoangle>
                    <activeaudioangle>false</activeaudioangle>
                    <clip id="clip-5"/>
                  </angle>
                  <angle>
                    <activevideoangle>false</activevideoangle>
                    <activeaudioangle>false</activeaudioangle>
                    <clip id="clip-6"/>
                  </angle>
                  <angle>
                    <activevideoangle>false</activevideoangle>
                    <activeaudioangle>false</activeaudioangle>
                    <clip id="clip-7"/>
                  </angle>
                  <angle>
                    <activevideoangle>false</activevideoangle>
                    <activeaudioangle>false</activeaudioangle>
                    <clip id="clip-8"/>
                  </angle>
                  <angle>
                    <activevideoangle>false</activevideoangle>
                    <activeaudioangle>false</activeaudioangle>
                    <clip id="clip-9"/>
                  </angle>
                  <masterclipid>clip-master</masterclipid>
                </multiclip>
              </clipitem>
              <clipitem id="cs-193">
                <duration>71</duration>
                <rate>
                  <ntsc>false</ntsc>
                  <timebase>25</timebase>
                </rate>
                <in>25937</in>
                <out>26007</out>
                <start>25937</start>
                <end>26007</end>
                <file id="src-4"/>
                <sourcetrack>
                  <mediatype>video</mediatype>
                  <trackindex>1</trackindex>
                </sourcetrack>
                <multiclip id="mcs-193">
                  <name>MCS-193</name>
                  <masterclipid>clip-master</masterclipid>
                  <collapsed>false</collapsed>
                  <angle>
                    <activevideoangle>false</activevideoangle>
                    <activeaudioangle>false</activeaudioangle>
                    <clip id="clip-1"/>
                  </angle>
                  <angle>
                    <activevideoangle>false</activevideoangle>
                    <activeaudioangle>false</activeaudioangle>
                    <clip id="clip-2"/>
                  </angle>
                  <angle>
                    <activevideoangle>false</activevideoangle>
                    <activeaudioangle>false</activeaudioangle>
                    <clip id="clip-3"/>
                  </angle>
                  <angle>
                    <activevideoangle>true</activevideoangle>
                    <activeaudioangle>true</activeaudioangle>
                    <clip id="clip-4"/>
                  </angle>
                  <angle>
                    <activevideoangle>false</activevideoangle>
                    <activeaudioangle>false</activeaudioangle>
                    <clip id="clip-5"/>
                  </angle>
                  <angle>
                    <activevideoangle>false</activevideoangle>
                    <activeaudioangle>false</activeaudioangle>
                    <clip id="clip-6"/>
                  </angle>
                  <angle>
                    <activevideoangle>false</activevideoangle>
                    <activeaudioangle>false</activeaudioangle>
                    <clip id="clip-7"/>
                  </angle>
                  <angle>
                    <activevideoangle>false</activevideoangle>
                    <activeaudioangle>false</activeaudioangle>
                    <clip id="clip-8"/>
                  </angle>
                  <angle>
                    <activevideoangle>false</activevideoangle>
                    <activeaudioangle>false</activeaudioangle>
                    <clip id="clip-9"/>
                  </angle>
                  <masterclipid>clip-master</masterclipid>
                </multiclip>
              </clipitem>
              <clipitem id="cs-194">
                <duration>190</duration>
                <rate>
                  <ntsc>false</ntsc>
                  <timebase>25</timebase>
                </rate>
                <in>26007</in>
                <out>26196</out>
                <start>26007</start>
                <end>26196</end>
                <file id="src-6"/>
                <sourcetrack>
                  <mediatype>video</mediatype>
                  <trackindex>1</trackindex>
                </sourcetrack>
                <multiclip id="mcs-194">
                  <name>MCS-194</name>
                  <masterclipid>clip-master</masterclipid>
                  <collapsed>false</collapsed>
                  <angle>
                    <activevideoangle>false</activevideoangle>
                    <activeaudioangle>false</activeaudioangle>
                    <clip id="clip-1"/>
                  </angle>
                  <angle>
                    <activevideoangle>false</activevideoangle>
                    <activeaudioangle>false</activeaudioangle>
                    <clip id="clip-2"/>
                  </angle>
                  <angle>
                    <activevideoangle>false</activevideoangle>
                    <activeaudioangle>false</activeaudioangle>
                    <clip id="clip-3"/>
                  </angle>
                  <angle>
                    <activevideoangle>false</activevideoangle>
                    <activeaudioangle>false</activeaudioangle>
                    <clip id="clip-4"/>
                  </angle>
                  <angle>
                    <activevideoangle>false</activevideoangle>
                    <activeaudioangle>false</activeaudioangle>
                    <clip id="clip-5"/>
                  </angle>
                  <angle>
                    <activevideoangle>true</activevideoangle>
                    <activeaudioangle>true</activeaudioangle>
                    <clip id="clip-6"/>
                  </angle>
                  <angle>
                    <activevideoangle>false</activevideoangle>
                    <activeaudioangle>false</activeaudioangle>
                    <clip id="clip-7"/>
                  </angle>
                  <angle>
                    <activevideoangle>false</activevideoangle>
                    <activeaudioangle>false</activeaudioangle>
                    <clip id="clip-8"/>
                  </angle>
                  <angle>
                    <activevideoangle>false</activevideoangle>
                    <activeaudioangle>false</activeaudioangle>
                    <clip id="clip-9"/>
                  </angle>
                  <masterclipid>clip-master</masterclipid>
                </multiclip>
              </clipitem>
              <clipitem id="cs-195">
                <duration>82</duration>
                <rate>
                  <ntsc>false</ntsc>
                  <timebase>25</timebase>
                </rate>
                <in>26196</in>
                <out>26277</out>
                <start>26196</start>
                <end>26277</end>
                <file id="src-4"/>
                <sourcetrack>
                  <mediatype>video</mediatype>
                  <trackindex>1</trackindex>
                </sourcetrack>
                <multiclip id="mcs-195">
                  <name>MCS-195</name>
                  <masterclipid>clip-master</masterclipid>
                  <collapsed>false</collapsed>
                  <angle>
                    <activevideoangle>false</activevideoangle>
                    <activeaudioangle>false</activeaudioangle>
                    <clip id="clip-1"/>
                  </angle>
                  <angle>
                    <activevideoangle>false</activevideoangle>
                    <activeaudioangle>false</activeaudioangle>
                    <clip id="clip-2"/>
                  </angle>
                  <angle>
                    <activevideoangle>false</activevideoangle>
                    <activeaudioangle>false</activeaudioangle>
                    <clip id="clip-3"/>
                  </angle>
                  <angle>
                    <activevideoangle>true</activevideoangle>
                    <activeaudioangle>true</activeaudioangle>
                    <clip id="clip-4"/>
                  </angle>
                  <angle>
                    <activevideoangle>false</activevideoangle>
                    <activeaudioangle>false</activeaudioangle>
                    <clip id="clip-5"/>
                  </angle>
                  <angle>
                    <activevideoangle>false</activevideoangle>
                    <activeaudioangle>false</activeaudioangle>
                    <clip id="clip-6"/>
                  </angle>
                  <angle>
                    <activevideoangle>false</activevideoangle>
                    <activeaudioangle>false</activeaudioangle>
                    <clip id="clip-7"/>
                  </angle>
                  <angle>
                    <activevideoangle>false</activevideoangle>
                    <activeaudioangle>false</activeaudioangle>
                    <clip id="clip-8"/>
                  </angle>
                  <angle>
                    <activevideoangle>false</activevideoangle>
                    <activeaudioangle>false</activeaudioangle>
                    <clip id="clip-9"/>
                  </angle>
                  <masterclipid>clip-master</masterclipid>
                </multiclip>
              </clipitem>
              <clipitem id="cs-196">
                <duration>249</duration>
                <rate>
                  <ntsc>false</ntsc>
                  <timebase>25</timebase>
                </rate>
                <in>26277</in>
                <out>26525</out>
                <start>26277</start>
                <end>26525</end>
                <file id="src-2"/>
                <sourcetrack>
                  <mediatype>video</mediatype>
                  <trackindex>1</trackindex>
                </sourcetrack>
                <multiclip id="mcs-196">
                  <name>MCS-196</name>
                  <masterclipid>clip-master</masterclipid>
                  <collapsed>false</collapsed>
                  <angle>
                    <activevideoangle>false</activevideoangle>
                    <activeaudioangle>false</activeaudioangle>
                    <clip id="clip-1"/>
                  </angle>
                  <angle>
                    <activevideoangle>true</activevideoangle>
                    <activeaudioangle>true</activeaudioangle>
                    <clip id="clip-2"/>
                  </angle>
                  <angle>
                    <activevideoangle>false</activevideoangle>
                    <activeaudioangle>false</activeaudioangle>
                    <clip id="clip-3"/>
                  </angle>
                  <angle>
                    <activevideoangle>false</activevideoangle>
                    <activeaudioangle>false</activeaudioangle>
                    <clip id="clip-4"/>
                  </angle>
                  <angle>
                    <activevideoangle>false</activevideoangle>
                    <activeaudioangle>false</activeaudioangle>
                    <clip id="clip-5"/>
                  </angle>
                  <angle>
                    <activevideoangle>false</activevideoangle>
                    <activeaudioangle>false</activeaudioangle>
                    <clip id="clip-6"/>
                  </angle>
                  <angle>
                    <activevideoangle>false</activevideoangle>
                    <activeaudioangle>false</activeaudioangle>
                    <clip id="clip-7"/>
                  </angle>
                  <angle>
                    <activevideoangle>false</activevideoangle>
                    <activeaudioangle>false</activeaudioangle>
                    <clip id="clip-8"/>
                  </angle>
                  <angle>
                    <activevideoangle>false</activevideoangle>
                    <activeaudioangle>false</activeaudioangle>
                    <clip id="clip-9"/>
                  </angle>
                  <masterclipid>clip-master</masterclipid>
                </multiclip>
              </clipitem>
              <clipitem id="cs-197">
                <duration>301</duration>
                <rate>
                  <ntsc>false</ntsc>
                  <timebase>25</timebase>
                </rate>
                <in>26525</in>
                <out>26825</out>
                <start>26525</start>
                <end>26825</end>
                <file id="src-4"/>
                <sourcetrack>
                  <mediatype>video</mediatype>
                  <trackindex>1</trackindex>
                </sourcetrack>
                <multiclip id="mcs-197">
                  <name>MCS-197</name>
                  <masterclipid>clip-master</masterclipid>
                  <collapsed>false</collapsed>
                  <angle>
                    <activevideoangle>false</activevideoangle>
                    <activeaudioangle>false</activeaudioangle>
                    <clip id="clip-1"/>
                  </angle>
                  <angle>
                    <activevideoangle>false</activevideoangle>
                    <activeaudioangle>false</activeaudioangle>
                    <clip id="clip-2"/>
                  </angle>
                  <angle>
                    <activevideoangle>false</activevideoangle>
                    <activeaudioangle>false</activeaudioangle>
                    <clip id="clip-3"/>
                  </angle>
                  <angle>
                    <activevideoangle>true</activevideoangle>
                    <activeaudioangle>true</activeaudioangle>
                    <clip id="clip-4"/>
                  </angle>
                  <angle>
                    <activevideoangle>false</activevideoangle>
                    <activeaudioangle>false</activeaudioangle>
                    <clip id="clip-5"/>
                  </angle>
                  <angle>
                    <activevideoangle>false</activevideoangle>
                    <activeaudioangle>false</activeaudioangle>
                    <clip id="clip-6"/>
                  </angle>
                  <angle>
                    <activevideoangle>false</activevideoangle>
                    <activeaudioangle>false</activeaudioangle>
                    <clip id="clip-7"/>
                  </angle>
                  <angle>
                    <activevideoangle>false</activevideoangle>
                    <activeaudioangle>false</activeaudioangle>
                    <clip id="clip-8"/>
                  </angle>
                  <angle>
                    <activevideoangle>false</activevideoangle>
                    <activeaudioangle>false</activeaudioangle>
                    <clip id="clip-9"/>
                  </angle>
                  <masterclipid>clip-master</masterclipid>
                </multiclip>
              </clipitem>
              <clipitem id="cs-198">
                <duration>76</duration>
                <rate>
                  <ntsc>false</ntsc>
                  <timebase>25</timebase>
                </rate>
                <in>26825</in>
                <out>26900</out>
                <start>26825</start>
                <end>26900</end>
                <file id="src-6"/>
                <sourcetrack>
                  <mediatype>video</mediatype>
                  <trackindex>1</trackindex>
                </sourcetrack>
                <multiclip id="mcs-198">
                  <name>MCS-198</name>
                  <masterclipid>clip-master</masterclipid>
                  <collapsed>false</collapsed>
                  <angle>
                    <activevideoangle>false</activevideoangle>
                    <activeaudioangle>false</activeaudioangle>
                    <clip id="clip-1"/>
                  </angle>
                  <angle>
                    <activevideoangle>false</activevideoangle>
                    <activeaudioangle>false</activeaudioangle>
                    <clip id="clip-2"/>
                  </angle>
                  <angle>
                    <activevideoangle>false</activevideoangle>
                    <activeaudioangle>false</activeaudioangle>
                    <clip id="clip-3"/>
                  </angle>
                  <angle>
                    <activevideoangle>false</activevideoangle>
                    <activeaudioangle>false</activeaudioangle>
                    <clip id="clip-4"/>
                  </angle>
                  <angle>
                    <activevideoangle>false</activevideoangle>
                    <activeaudioangle>false</activeaudioangle>
                    <clip id="clip-5"/>
                  </angle>
                  <angle>
                    <activevideoangle>true</activevideoangle>
                    <activeaudioangle>true</activeaudioangle>
                    <clip id="clip-6"/>
                  </angle>
                  <angle>
                    <activevideoangle>false</activevideoangle>
                    <activeaudioangle>false</activeaudioangle>
                    <clip id="clip-7"/>
                  </angle>
                  <angle>
                    <activevideoangle>false</activevideoangle>
                    <activeaudioangle>false</activeaudioangle>
                    <clip id="clip-8"/>
                  </angle>
                  <angle>
                    <activevideoangle>false</activevideoangle>
                    <activeaudioangle>false</activeaudioangle>
                    <clip id="clip-9"/>
                  </angle>
                  <masterclipid>clip-master</masterclipid>
                </multiclip>
              </clipitem>
              <clipitem id="cs-199">
                <duration>325</duration>
                <rate>
                  <ntsc>false</ntsc>
                  <timebase>25</timebase>
                </rate>
                <in>26900</in>
                <out>27224</out>
                <start>26900</start>
                <end>27224</end>
                <file id="src-3"/>
                <sourcetrack>
                  <mediatype>video</mediatype>
                  <trackindex>1</trackindex>
                </sourcetrack>
                <multiclip id="mcs-199">
                  <name>MCS-199</name>
                  <masterclipid>clip-master</masterclipid>
                  <collapsed>false</collapsed>
                  <angle>
                    <activevideoangle>false</activevideoangle>
                    <activeaudioangle>false</activeaudioangle>
                    <clip id="clip-1"/>
                  </angle>
                  <angle>
                    <activevideoangle>false</activevideoangle>
                    <activeaudioangle>false</activeaudioangle>
                    <clip id="clip-2"/>
                  </angle>
                  <angle>
                    <activevideoangle>true</activevideoangle>
                    <activeaudioangle>true</activeaudioangle>
                    <clip id="clip-3"/>
                  </angle>
                  <angle>
                    <activevideoangle>false</activevideoangle>
                    <activeaudioangle>false</activeaudioangle>
                    <clip id="clip-4"/>
                  </angle>
                  <angle>
                    <activevideoangle>false</activevideoangle>
                    <activeaudioangle>false</activeaudioangle>
                    <clip id="clip-5"/>
                  </angle>
                  <angle>
                    <activevideoangle>false</activevideoangle>
                    <activeaudioangle>false</activeaudioangle>
                    <clip id="clip-6"/>
                  </angle>
                  <angle>
                    <activevideoangle>false</activevideoangle>
                    <activeaudioangle>false</activeaudioangle>
                    <clip id="clip-7"/>
                  </angle>
                  <angle>
                    <activevideoangle>false</activevideoangle>
                    <activeaudioangle>false</activeaudioangle>
                    <clip id="clip-8"/>
                  </angle>
                  <angle>
                    <activevideoangle>false</activevideoangle>
                    <activeaudioangle>false</activeaudioangle>
                    <clip id="clip-9"/>
                  </angle>
                  <masterclipid>clip-master</masterclipid>
                </multiclip>
              </clipitem>
              <clipitem id="cs-200">
                <duration>51</duration>
                <rate>
                  <ntsc>false</ntsc>
                  <timebase>25</timebase>
                </rate>
                <in>27224</in>
                <out>27274</out>
                <start>27224</start>
                <end>27274</end>
                <file id="src-2"/>
                <sourcetrack>
                  <mediatype>video</mediatype>
                  <trackindex>1</trackindex>
                </sourcetrack>
                <multiclip id="mcs-200">
                  <name>MCS-200</name>
                  <masterclipid>clip-master</masterclipid>
                  <collapsed>false</collapsed>
                  <angle>
                    <activevideoangle>false</activevideoangle>
                    <activeaudioangle>false</activeaudioangle>
                    <clip id="clip-1"/>
                  </angle>
                  <angle>
                    <activevideoangle>true</activevideoangle>
                    <activeaudioangle>true</activeaudioangle>
                    <clip id="clip-2"/>
                  </angle>
                  <angle>
                    <activevideoangle>false</activevideoangle>
                    <activeaudioangle>false</activeaudioangle>
                    <clip id="clip-3"/>
                  </angle>
                  <angle>
                    <activevideoangle>false</activevideoangle>
                    <activeaudioangle>false</activeaudioangle>
                    <clip id="clip-4"/>
                  </angle>
                  <angle>
                    <activevideoangle>false</activevideoangle>
                    <activeaudioangle>false</activeaudioangle>
                    <clip id="clip-5"/>
                  </angle>
                  <angle>
                    <activevideoangle>false</activevideoangle>
                    <activeaudioangle>false</activeaudioangle>
                    <clip id="clip-6"/>
                  </angle>
                  <angle>
                    <activevideoangle>false</activevideoangle>
                    <activeaudioangle>false</activeaudioangle>
                    <clip id="clip-7"/>
                  </angle>
                  <angle>
                    <activevideoangle>false</activevideoangle>
                    <activeaudioangle>false</activeaudioangle>
                    <clip id="clip-8"/>
                  </angle>
                  <angle>
                    <activevideoangle>false</activevideoangle>
                    <activeaudioangle>false</activeaudioangle>
                    <clip id="clip-9"/>
                  </angle>
                  <masterclipid>clip-master</masterclipid>
                </multiclip>
              </clipitem>
              <clipitem id="cs-201">
                <duration>96</duration>
                <rate>
                  <ntsc>false</ntsc>
                  <timebase>25</timebase>
                </rate>
                <in>27274</in>
                <out>27369</out>
                <start>27274</start>
                <end>27369</end>
                <file id="src-4"/>
                <sourcetrack>
                  <mediatype>video</mediatype>
                  <trackindex>1</trackindex>
                </sourcetrack>
                <multiclip id="mcs-201">
                  <name>MCS-201</name>
                  <masterclipid>clip-master</masterclipid>
                  <collapsed>false</collapsed>
                  <angle>
                    <activevideoangle>false</activevideoangle>
                    <activeaudioangle>false</activeaudioangle>
                    <clip id="clip-1"/>
                  </angle>
                  <angle>
                    <activevideoangle>false</activevideoangle>
                    <activeaudioangle>false</activeaudioangle>
                    <clip id="clip-2"/>
                  </angle>
                  <angle>
                    <activevideoangle>false</activevideoangle>
                    <activeaudioangle>false</activeaudioangle>
                    <clip id="clip-3"/>
                  </angle>
                  <angle>
                    <activevideoangle>true</activevideoangle>
                    <activeaudioangle>true</activeaudioangle>
                    <clip id="clip-4"/>
                  </angle>
                  <angle>
                    <activevideoangle>false</activevideoangle>
                    <activeaudioangle>false</activeaudioangle>
                    <clip id="clip-5"/>
                  </angle>
                  <angle>
                    <activevideoangle>false</activevideoangle>
                    <activeaudioangle>false</activeaudioangle>
                    <clip id="clip-6"/>
                  </angle>
                  <angle>
                    <activevideoangle>false</activevideoangle>
                    <activeaudioangle>false</activeaudioangle>
                    <clip id="clip-7"/>
                  </angle>
                  <angle>
                    <activevideoangle>false</activevideoangle>
                    <activeaudioangle>false</activeaudioangle>
                    <clip id="clip-8"/>
                  </angle>
                  <angle>
                    <activevideoangle>false</activevideoangle>
                    <activeaudioangle>false</activeaudioangle>
                    <clip id="clip-9"/>
                  </angle>
                  <masterclipid>clip-master</masterclipid>
                </multiclip>
              </clipitem>
              <clipitem id="cs-202">
                <duration>118</duration>
                <rate>
                  <ntsc>false</ntsc>
                  <timebase>25</timebase>
                </rate>
                <in>27369</in>
                <out>27486</out>
                <start>27369</start>
                <end>27486</end>
                <file id="src-2"/>
                <sourcetrack>
                  <mediatype>video</mediatype>
                  <trackindex>1</trackindex>
                </sourcetrack>
                <multiclip id="mcs-202">
                  <name>MCS-202</name>
                  <masterclipid>clip-master</masterclipid>
                  <collapsed>false</collapsed>
                  <angle>
                    <activevideoangle>false</activevideoangle>
                    <activeaudioangle>false</activeaudioangle>
                    <clip id="clip-1"/>
                  </angle>
                  <angle>
                    <activevideoangle>true</activevideoangle>
                    <activeaudioangle>true</activeaudioangle>
                    <clip id="clip-2"/>
                  </angle>
                  <angle>
                    <activevideoangle>false</activevideoangle>
                    <activeaudioangle>false</activeaudioangle>
                    <clip id="clip-3"/>
                  </angle>
                  <angle>
                    <activevideoangle>false</activevideoangle>
                    <activeaudioangle>false</activeaudioangle>
                    <clip id="clip-4"/>
                  </angle>
                  <angle>
                    <activevideoangle>false</activevideoangle>
                    <activeaudioangle>false</activeaudioangle>
                    <clip id="clip-5"/>
                  </angle>
                  <angle>
                    <activevideoangle>false</activevideoangle>
                    <activeaudioangle>false</activeaudioangle>
                    <clip id="clip-6"/>
                  </angle>
                  <angle>
                    <activevideoangle>false</activevideoangle>
                    <activeaudioangle>false</activeaudioangle>
                    <clip id="clip-7"/>
                  </angle>
                  <angle>
                    <activevideoangle>false</activevideoangle>
                    <activeaudioangle>false</activeaudioangle>
                    <clip id="clip-8"/>
                  </angle>
                  <angle>
                    <activevideoangle>false</activevideoangle>
                    <activeaudioangle>false</activeaudioangle>
                    <clip id="clip-9"/>
                  </angle>
                  <masterclipid>clip-master</masterclipid>
                </multiclip>
              </clipitem>
              <clipitem id="cs-203">
                <duration>50</duration>
                <rate>
                  <ntsc>false</ntsc>
                  <timebase>25</timebase>
                </rate>
                <in>27486</in>
                <out>27535</out>
                <start>27486</start>
                <end>27535</end>
                <file id="src-5"/>
                <sourcetrack>
                  <mediatype>video</mediatype>
                  <trackindex>1</trackindex>
                </sourcetrack>
                <multiclip id="mcs-203">
                  <name>MCS-203</name>
                  <masterclipid>clip-master</masterclipid>
                  <collapsed>false</collapsed>
                  <angle>
                    <activevideoangle>false</activevideoangle>
                    <activeaudioangle>false</activeaudioangle>
                    <clip id="clip-1"/>
                  </angle>
                  <angle>
                    <activevideoangle>false</activevideoangle>
                    <activeaudioangle>false</activeaudioangle>
                    <clip id="clip-2"/>
                  </angle>
                  <angle>
                    <activevideoangle>false</activevideoangle>
                    <activeaudioangle>false</activeaudioangle>
                    <clip id="clip-3"/>
                  </angle>
                  <angle>
                    <activevideoangle>false</activevideoangle>
                    <activeaudioangle>false</activeaudioangle>
                    <clip id="clip-4"/>
                  </angle>
                  <angle>
                    <activevideoangle>true</activevideoangle>
                    <activeaudioangle>true</activeaudioangle>
                    <clip id="clip-5"/>
                  </angle>
                  <angle>
                    <activevideoangle>false</activevideoangle>
                    <activeaudioangle>false</activeaudioangle>
                    <clip id="clip-6"/>
                  </angle>
                  <angle>
                    <activevideoangle>false</activevideoangle>
                    <activeaudioangle>false</activeaudioangle>
                    <clip id="clip-7"/>
                  </angle>
                  <angle>
                    <activevideoangle>false</activevideoangle>
                    <activeaudioangle>false</activeaudioangle>
                    <clip id="clip-8"/>
                  </angle>
                  <angle>
                    <activevideoangle>false</activevideoangle>
                    <activeaudioangle>false</activeaudioangle>
                    <clip id="clip-9"/>
                  </angle>
                  <masterclipid>clip-master</masterclipid>
                </multiclip>
              </clipitem>
              <clipitem id="cs-204">
                <duration>39</duration>
                <rate>
                  <ntsc>false</ntsc>
                  <timebase>25</timebase>
                </rate>
                <in>27535</in>
                <out>27573</out>
                <start>27535</start>
                <end>27573</end>
                <file id="src-3"/>
                <sourcetrack>
                  <mediatype>video</mediatype>
                  <trackindex>1</trackindex>
                </sourcetrack>
                <multiclip id="mcs-204">
                  <name>MCS-204</name>
                  <masterclipid>clip-master</masterclipid>
                  <collapsed>false</collapsed>
                  <angle>
                    <activevideoangle>false</activevideoangle>
                    <activeaudioangle>false</activeaudioangle>
                    <clip id="clip-1"/>
                  </angle>
                  <angle>
                    <activevideoangle>false</activevideoangle>
                    <activeaudioangle>false</activeaudioangle>
                    <clip id="clip-2"/>
                  </angle>
                  <angle>
                    <activevideoangle>true</activevideoangle>
                    <activeaudioangle>true</activeaudioangle>
                    <clip id="clip-3"/>
                  </angle>
                  <angle>
                    <activevideoangle>false</activevideoangle>
                    <activeaudioangle>false</activeaudioangle>
                    <clip id="clip-4"/>
                  </angle>
                  <angle>
                    <activevideoangle>false</activevideoangle>
                    <activeaudioangle>false</activeaudioangle>
                    <clip id="clip-5"/>
                  </angle>
                  <angle>
                    <activevideoangle>false</activevideoangle>
                    <activeaudioangle>false</activeaudioangle>
                    <clip id="clip-6"/>
                  </angle>
                  <angle>
                    <activevideoangle>false</activevideoangle>
                    <activeaudioangle>false</activeaudioangle>
                    <clip id="clip-7"/>
                  </angle>
                  <angle>
                    <activevideoangle>false</activevideoangle>
                    <activeaudioangle>false</activeaudioangle>
                    <clip id="clip-8"/>
                  </angle>
                  <angle>
                    <activevideoangle>false</activevideoangle>
                    <activeaudioangle>false</activeaudioangle>
                    <clip id="clip-9"/>
                  </angle>
                  <masterclipid>clip-master</masterclipid>
                </multiclip>
              </clipitem>
              <clipitem id="cs-205">
                <duration>80</duration>
                <rate>
                  <ntsc>false</ntsc>
                  <timebase>25</timebase>
                </rate>
                <in>27573</in>
                <out>27652</out>
                <start>27573</start>
                <end>27652</end>
                <file id="src-2"/>
                <sourcetrack>
                  <mediatype>video</mediatype>
                  <trackindex>1</trackindex>
                </sourcetrack>
                <multiclip id="mcs-205">
                  <name>MCS-205</name>
                  <masterclipid>clip-master</masterclipid>
                  <collapsed>false</collapsed>
                  <angle>
                    <activevideoangle>false</activevideoangle>
                    <activeaudioangle>false</activeaudioangle>
                    <clip id="clip-1"/>
                  </angle>
                  <angle>
                    <activevideoangle>true</activevideoangle>
                    <activeaudioangle>true</activeaudioangle>
                    <clip id="clip-2"/>
                  </angle>
                  <angle>
                    <activevideoangle>false</activevideoangle>
                    <activeaudioangle>false</activeaudioangle>
                    <clip id="clip-3"/>
                  </angle>
                  <angle>
                    <activevideoangle>false</activevideoangle>
                    <activeaudioangle>false</activeaudioangle>
                    <clip id="clip-4"/>
                  </angle>
                  <angle>
                    <activevideoangle>false</activevideoangle>
                    <activeaudioangle>false</activeaudioangle>
                    <clip id="clip-5"/>
                  </angle>
                  <angle>
                    <activevideoangle>false</activevideoangle>
                    <activeaudioangle>false</activeaudioangle>
                    <clip id="clip-6"/>
                  </angle>
                  <angle>
                    <activevideoangle>false</activevideoangle>
                    <activeaudioangle>false</activeaudioangle>
                    <clip id="clip-7"/>
                  </angle>
                  <angle>
                    <activevideoangle>false</activevideoangle>
                    <activeaudioangle>false</activeaudioangle>
                    <clip id="clip-8"/>
                  </angle>
                  <angle>
                    <activevideoangle>false</activevideoangle>
                    <activeaudioangle>false</activeaudioangle>
                    <clip id="clip-9"/>
                  </angle>
                  <masterclipid>clip-master</masterclipid>
                </multiclip>
              </clipitem>
              <clipitem id="cs-206">
                <duration>185</duration>
                <rate>
                  <ntsc>false</ntsc>
                  <timebase>25</timebase>
                </rate>
                <in>27652</in>
                <out>27836</out>
                <start>27652</start>
                <end>27836</end>
                <file id="src-4"/>
                <sourcetrack>
                  <mediatype>video</mediatype>
                  <trackindex>1</trackindex>
                </sourcetrack>
                <multiclip id="mcs-206">
                  <name>MCS-206</name>
                  <masterclipid>clip-master</masterclipid>
                  <collapsed>false</collapsed>
                  <angle>
                    <activevideoangle>false</activevideoangle>
                    <activeaudioangle>false</activeaudioangle>
                    <clip id="clip-1"/>
                  </angle>
                  <angle>
                    <activevideoangle>false</activevideoangle>
                    <activeaudioangle>false</activeaudioangle>
                    <clip id="clip-2"/>
                  </angle>
                  <angle>
                    <activevideoangle>false</activevideoangle>
                    <activeaudioangle>false</activeaudioangle>
                    <clip id="clip-3"/>
                  </angle>
                  <angle>
                    <activevideoangle>true</activevideoangle>
                    <activeaudioangle>true</activeaudioangle>
                    <clip id="clip-4"/>
                  </angle>
                  <angle>
                    <activevideoangle>false</activevideoangle>
                    <activeaudioangle>false</activeaudioangle>
                    <clip id="clip-5"/>
                  </angle>
                  <angle>
                    <activevideoangle>false</activevideoangle>
                    <activeaudioangle>false</activeaudioangle>
                    <clip id="clip-6"/>
                  </angle>
                  <angle>
                    <activevideoangle>false</activevideoangle>
                    <activeaudioangle>false</activeaudioangle>
                    <clip id="clip-7"/>
                  </angle>
                  <angle>
                    <activevideoangle>false</activevideoangle>
                    <activeaudioangle>false</activeaudioangle>
                    <clip id="clip-8"/>
                  </angle>
                  <angle>
                    <activevideoangle>false</activevideoangle>
                    <activeaudioangle>false</activeaudioangle>
                    <clip id="clip-9"/>
                  </angle>
                  <masterclipid>clip-master</masterclipid>
                </multiclip>
              </clipitem>
              <clipitem id="cs-207">
                <duration>465</duration>
                <rate>
                  <ntsc>false</ntsc>
                  <timebase>25</timebase>
                </rate>
                <in>27836</in>
                <out>28300</out>
                <start>27836</start>
                <end>28300</end>
                <file id="src-1"/>
                <sourcetrack>
                  <mediatype>video</mediatype>
                  <trackindex>1</trackindex>
                </sourcetrack>
                <multiclip id="mcs-207">
                  <name>MCS-207</name>
                  <masterclipid>clip-master</masterclipid>
                  <collapsed>false</collapsed>
                  <angle>
                    <activevideoangle>true</activevideoangle>
                    <activeaudioangle>true</activeaudioangle>
                    <clip id="clip-1"/>
                  </angle>
                  <angle>
                    <activevideoangle>false</activevideoangle>
                    <activeaudioangle>false</activeaudioangle>
                    <clip id="clip-2"/>
                  </angle>
                  <angle>
                    <activevideoangle>false</activevideoangle>
                    <activeaudioangle>false</activeaudioangle>
                    <clip id="clip-3"/>
                  </angle>
                  <angle>
                    <activevideoangle>false</activevideoangle>
                    <activeaudioangle>false</activeaudioangle>
                    <clip id="clip-4"/>
                  </angle>
                  <angle>
                    <activevideoangle>false</activevideoangle>
                    <activeaudioangle>false</activeaudioangle>
                    <clip id="clip-5"/>
                  </angle>
                  <angle>
                    <activevideoangle>false</activevideoangle>
                    <activeaudioangle>false</activeaudioangle>
                    <clip id="clip-6"/>
                  </angle>
                  <angle>
                    <activevideoangle>false</activevideoangle>
                    <activeaudioangle>false</activeaudioangle>
                    <clip id="clip-7"/>
                  </angle>
                  <angle>
                    <activevideoangle>false</activevideoangle>
                    <activeaudioangle>false</activeaudioangle>
                    <clip id="clip-8"/>
                  </angle>
                  <angle>
                    <activevideoangle>false</activevideoangle>
                    <activeaudioangle>false</activeaudioangle>
                    <clip id="clip-9"/>
                  </angle>
                  <masterclipid>clip-master</masterclipid>
                </multiclip>
              </clipitem>
              <clipitem id="cs-208">
                <duration>100</duration>
                <rate>
                  <ntsc>false</ntsc>
                  <timebase>25</timebase>
                </rate>
                <in>28300</in>
                <out>28399</out>
                <start>28300</start>
                <end>28399</end>
                <file id="src-3"/>
                <sourcetrack>
                  <mediatype>video</mediatype>
                  <trackindex>1</trackindex>
                </sourcetrack>
                <multiclip id="mcs-208">
                  <name>MCS-208</name>
                  <masterclipid>clip-master</masterclipid>
                  <collapsed>false</collapsed>
                  <angle>
                    <activevideoangle>false</activevideoangle>
                    <activeaudioangle>false</activeaudioangle>
                    <clip id="clip-1"/>
                  </angle>
                  <angle>
                    <activevideoangle>false</activevideoangle>
                    <activeaudioangle>false</activeaudioangle>
                    <clip id="clip-2"/>
                  </angle>
                  <angle>
                    <activevideoangle>true</activevideoangle>
                    <activeaudioangle>true</activeaudioangle>
                    <clip id="clip-3"/>
                  </angle>
                  <angle>
                    <activevideoangle>false</activevideoangle>
                    <activeaudioangle>false</activeaudioangle>
                    <clip id="clip-4"/>
                  </angle>
                  <angle>
                    <activevideoangle>false</activevideoangle>
                    <activeaudioangle>false</activeaudioangle>
                    <clip id="clip-5"/>
                  </angle>
                  <angle>
                    <activevideoangle>false</activevideoangle>
                    <activeaudioangle>false</activeaudioangle>
                    <clip id="clip-6"/>
                  </angle>
                  <angle>
                    <activevideoangle>false</activevideoangle>
                    <activeaudioangle>false</activeaudioangle>
                    <clip id="clip-7"/>
                  </angle>
                  <angle>
                    <activevideoangle>false</activevideoangle>
                    <activeaudioangle>false</activeaudioangle>
                    <clip id="clip-8"/>
                  </angle>
                  <angle>
                    <activevideoangle>false</activevideoangle>
                    <activeaudioangle>false</activeaudioangle>
                    <clip id="clip-9"/>
                  </angle>
                  <masterclipid>clip-master</masterclipid>
                </multiclip>
              </clipitem>
              <clipitem id="cs-209">
                <duration>58</duration>
                <rate>
                  <ntsc>false</ntsc>
                  <timebase>25</timebase>
                </rate>
                <in>28399</in>
                <out>28456</out>
                <start>28399</start>
                <end>28456</end>
                <file id="src-4"/>
                <sourcetrack>
                  <mediatype>video</mediatype>
                  <trackindex>1</trackindex>
                </sourcetrack>
                <multiclip id="mcs-209">
                  <name>MCS-209</name>
                  <masterclipid>clip-master</masterclipid>
                  <collapsed>false</collapsed>
                  <angle>
                    <activevideoangle>false</activevideoangle>
                    <activeaudioangle>false</activeaudioangle>
                    <clip id="clip-1"/>
                  </angle>
                  <angle>
                    <activevideoangle>false</activevideoangle>
                    <activeaudioangle>false</activeaudioangle>
                    <clip id="clip-2"/>
                  </angle>
                  <angle>
                    <activevideoangle>false</activevideoangle>
                    <activeaudioangle>false</activeaudioangle>
                    <clip id="clip-3"/>
                  </angle>
                  <angle>
                    <activevideoangle>true</activevideoangle>
                    <activeaudioangle>true</activeaudioangle>
                    <clip id="clip-4"/>
                  </angle>
                  <angle>
                    <activevideoangle>false</activevideoangle>
                    <activeaudioangle>false</activeaudioangle>
                    <clip id="clip-5"/>
                  </angle>
                  <angle>
                    <activevideoangle>false</activevideoangle>
                    <activeaudioangle>false</activeaudioangle>
                    <clip id="clip-6"/>
                  </angle>
                  <angle>
                    <activevideoangle>false</activevideoangle>
                    <activeaudioangle>false</activeaudioangle>
                    <clip id="clip-7"/>
                  </angle>
                  <angle>
                    <activevideoangle>false</activevideoangle>
                    <activeaudioangle>false</activeaudioangle>
                    <clip id="clip-8"/>
                  </angle>
                  <angle>
                    <activevideoangle>false</activevideoangle>
                    <activeaudioangle>false</activeaudioangle>
                    <clip id="clip-9"/>
                  </angle>
                  <masterclipid>clip-master</masterclipid>
                </multiclip>
              </clipitem>
              <clipitem id="cs-210">
                <duration>31</duration>
                <rate>
                  <ntsc>false</ntsc>
                  <timebase>25</timebase>
                </rate>
                <in>28456</in>
                <out>28486</out>
                <start>28456</start>
                <end>28486</end>
                <file id="src-2"/>
                <sourcetrack>
                  <mediatype>video</mediatype>
                  <trackindex>1</trackindex>
                </sourcetrack>
                <multiclip id="mcs-210">
                  <name>MCS-210</name>
                  <masterclipid>clip-master</masterclipid>
                  <collapsed>false</collapsed>
                  <angle>
                    <activevideoangle>false</activevideoangle>
                    <activeaudioangle>false</activeaudioangle>
                    <clip id="clip-1"/>
                  </angle>
                  <angle>
                    <activevideoangle>true</activevideoangle>
                    <activeaudioangle>true</activeaudioangle>
                    <clip id="clip-2"/>
                  </angle>
                  <angle>
                    <activevideoangle>false</activevideoangle>
                    <activeaudioangle>false</activeaudioangle>
                    <clip id="clip-3"/>
                  </angle>
                  <angle>
                    <activevideoangle>false</activevideoangle>
                    <activeaudioangle>false</activeaudioangle>
                    <clip id="clip-4"/>
                  </angle>
                  <angle>
                    <activevideoangle>false</activevideoangle>
                    <activeaudioangle>false</activeaudioangle>
                    <clip id="clip-5"/>
                  </angle>
                  <angle>
                    <activevideoangle>false</activevideoangle>
                    <activeaudioangle>false</activeaudioangle>
                    <clip id="clip-6"/>
                  </angle>
                  <angle>
                    <activevideoangle>false</activevideoangle>
                    <activeaudioangle>false</activeaudioangle>
                    <clip id="clip-7"/>
                  </angle>
                  <angle>
                    <activevideoangle>false</activevideoangle>
                    <activeaudioangle>false</activeaudioangle>
                    <clip id="clip-8"/>
                  </angle>
                  <angle>
                    <activevideoangle>false</activevideoangle>
                    <activeaudioangle>false</activeaudioangle>
                    <clip id="clip-9"/>
                  </angle>
                  <masterclipid>clip-master</masterclipid>
                </multiclip>
              </clipitem>
              <clipitem id="cs-211">
                <duration>47</duration>
                <rate>
                  <ntsc>false</ntsc>
                  <timebase>25</timebase>
                </rate>
                <in>28486</in>
                <out>28532</out>
                <start>28486</start>
                <end>28532</end>
                <file id="src-3"/>
                <sourcetrack>
                  <mediatype>video</mediatype>
                  <trackindex>1</trackindex>
                </sourcetrack>
                <multiclip id="mcs-211">
                  <name>MCS-211</name>
                  <masterclipid>clip-master</masterclipid>
                  <collapsed>false</collapsed>
                  <angle>
                    <activevideoangle>false</activevideoangle>
                    <activeaudioangle>false</activeaudioangle>
                    <clip id="clip-1"/>
                  </angle>
                  <angle>
                    <activevideoangle>false</activevideoangle>
                    <activeaudioangle>false</activeaudioangle>
                    <clip id="clip-2"/>
                  </angle>
                  <angle>
                    <activevideoangle>true</activevideoangle>
                    <activeaudioangle>true</activeaudioangle>
                    <clip id="clip-3"/>
                  </angle>
                  <angle>
                    <activevideoangle>false</activevideoangle>
                    <activeaudioangle>false</activeaudioangle>
                    <clip id="clip-4"/>
                  </angle>
                  <angle>
                    <activevideoangle>false</activevideoangle>
                    <activeaudioangle>false</activeaudioangle>
                    <clip id="clip-5"/>
                  </angle>
                  <angle>
                    <activevideoangle>false</activevideoangle>
                    <activeaudioangle>false</activeaudioangle>
                    <clip id="clip-6"/>
                  </angle>
                  <angle>
                    <activevideoangle>false</activevideoangle>
                    <activeaudioangle>false</activeaudioangle>
                    <clip id="clip-7"/>
                  </angle>
                  <angle>
                    <activevideoangle>false</activevideoangle>
                    <activeaudioangle>false</activeaudioangle>
                    <clip id="clip-8"/>
                  </angle>
                  <angle>
                    <activevideoangle>false</activevideoangle>
                    <activeaudioangle>false</activeaudioangle>
                    <clip id="clip-9"/>
                  </angle>
                  <masterclipid>clip-master</masterclipid>
                </multiclip>
              </clipitem>
              <clipitem id="cs-212">
                <duration>128</duration>
                <rate>
                  <ntsc>false</ntsc>
                  <timebase>25</timebase>
                </rate>
                <in>28532</in>
                <out>28659</out>
                <start>28532</start>
                <end>28659</end>
                <file id="src-6"/>
                <sourcetrack>
                  <mediatype>video</mediatype>
                  <trackindex>1</trackindex>
                </sourcetrack>
                <multiclip id="mcs-212">
                  <name>MCS-212</name>
                  <masterclipid>clip-master</masterclipid>
                  <collapsed>false</collapsed>
                  <angle>
                    <activevideoangle>false</activevideoangle>
                    <activeaudioangle>false</activeaudioangle>
                    <clip id="clip-1"/>
                  </angle>
                  <angle>
                    <activevideoangle>false</activevideoangle>
                    <activeaudioangle>false</activeaudioangle>
                    <clip id="clip-2"/>
                  </angle>
                  <angle>
                    <activevideoangle>false</activevideoangle>
                    <activeaudioangle>false</activeaudioangle>
                    <clip id="clip-3"/>
                  </angle>
                  <angle>
                    <activevideoangle>false</activevideoangle>
                    <activeaudioangle>false</activeaudioangle>
                    <clip id="clip-4"/>
                  </angle>
                  <angle>
                    <activevideoangle>false</activevideoangle>
                    <activeaudioangle>false</activeaudioangle>
                    <clip id="clip-5"/>
                  </angle>
                  <angle>
                    <activevideoangle>true</activevideoangle>
                    <activeaudioangle>true</activeaudioangle>
                    <clip id="clip-6"/>
                  </angle>
                  <angle>
                    <activevideoangle>false</activevideoangle>
                    <activeaudioangle>false</activeaudioangle>
                    <clip id="clip-7"/>
                  </angle>
                  <angle>
                    <activevideoangle>false</activevideoangle>
                    <activeaudioangle>false</activeaudioangle>
                    <clip id="clip-8"/>
                  </angle>
                  <angle>
                    <activevideoangle>false</activevideoangle>
                    <activeaudioangle>false</activeaudioangle>
                    <clip id="clip-9"/>
                  </angle>
                  <masterclipid>clip-master</masterclipid>
                </multiclip>
              </clipitem>
              <clipitem id="cs-213">
                <duration>48</duration>
                <rate>
                  <ntsc>false</ntsc>
                  <timebase>25</timebase>
                </rate>
                <in>28659</in>
                <out>28706</out>
                <start>28659</start>
                <end>28706</end>
                <file id="src-3"/>
                <sourcetrack>
                  <mediatype>video</mediatype>
                  <trackindex>1</trackindex>
                </sourcetrack>
                <multiclip id="mcs-213">
                  <name>MCS-213</name>
                  <masterclipid>clip-master</masterclipid>
                  <collapsed>false</collapsed>
                  <angle>
                    <activevideoangle>false</activevideoangle>
                    <activeaudioangle>false</activeaudioangle>
                    <clip id="clip-1"/>
                  </angle>
                  <angle>
                    <activevideoangle>false</activevideoangle>
                    <activeaudioangle>false</activeaudioangle>
                    <clip id="clip-2"/>
                  </angle>
                  <angle>
                    <activevideoangle>true</activevideoangle>
                    <activeaudioangle>true</activeaudioangle>
                    <clip id="clip-3"/>
                  </angle>
                  <angle>
                    <activevideoangle>false</activevideoangle>
                    <activeaudioangle>false</activeaudioangle>
                    <clip id="clip-4"/>
                  </angle>
                  <angle>
                    <activevideoangle>false</activevideoangle>
                    <activeaudioangle>false</activeaudioangle>
                    <clip id="clip-5"/>
                  </angle>
                  <angle>
                    <activevideoangle>false</activevideoangle>
                    <activeaudioangle>false</activeaudioangle>
                    <clip id="clip-6"/>
                  </angle>
                  <angle>
                    <activevideoangle>false</activevideoangle>
                    <activeaudioangle>false</activeaudioangle>
                    <clip id="clip-7"/>
                  </angle>
                  <angle>
                    <activevideoangle>false</activevideoangle>
                    <activeaudioangle>false</activeaudioangle>
                    <clip id="clip-8"/>
                  </angle>
                  <angle>
                    <activevideoangle>false</activevideoangle>
                    <activeaudioangle>false</activeaudioangle>
                    <clip id="clip-9"/>
                  </angle>
                  <masterclipid>clip-master</masterclipid>
                </multiclip>
              </clipitem>
              <clipitem id="cs-214">
                <duration>60</duration>
                <rate>
                  <ntsc>false</ntsc>
                  <timebase>25</timebase>
                </rate>
                <in>28706</in>
                <out>28765</out>
                <start>28706</start>
                <end>28765</end>
                <file id="src-5"/>
                <sourcetrack>
                  <mediatype>video</mediatype>
                  <trackindex>1</trackindex>
                </sourcetrack>
                <multiclip id="mcs-214">
                  <name>MCS-214</name>
                  <masterclipid>clip-master</masterclipid>
                  <collapsed>false</collapsed>
                  <angle>
                    <activevideoangle>false</activevideoangle>
                    <activeaudioangle>false</activeaudioangle>
                    <clip id="clip-1"/>
                  </angle>
                  <angle>
                    <activevideoangle>false</activevideoangle>
                    <activeaudioangle>false</activeaudioangle>
                    <clip id="clip-2"/>
                  </angle>
                  <angle>
                    <activevideoangle>false</activevideoangle>
                    <activeaudioangle>false</activeaudioangle>
                    <clip id="clip-3"/>
                  </angle>
                  <angle>
                    <activevideoangle>false</activevideoangle>
                    <activeaudioangle>false</activeaudioangle>
                    <clip id="clip-4"/>
                  </angle>
                  <angle>
                    <activevideoangle>true</activevideoangle>
                    <activeaudioangle>true</activeaudioangle>
                    <clip id="clip-5"/>
                  </angle>
                  <angle>
                    <activevideoangle>false</activevideoangle>
                    <activeaudioangle>false</activeaudioangle>
                    <clip id="clip-6"/>
                  </angle>
                  <angle>
                    <activevideoangle>false</activevideoangle>
                    <activeaudioangle>false</activeaudioangle>
                    <clip id="clip-7"/>
                  </angle>
                  <angle>
                    <activevideoangle>false</activevideoangle>
                    <activeaudioangle>false</activeaudioangle>
                    <clip id="clip-8"/>
                  </angle>
                  <angle>
                    <activevideoangle>false</activevideoangle>
                    <activeaudioangle>false</activeaudioangle>
                    <clip id="clip-9"/>
                  </angle>
                  <masterclipid>clip-master</masterclipid>
                </multiclip>
              </clipitem>
              <clipitem id="cs-215">
                <duration>93</duration>
                <rate>
                  <ntsc>false</ntsc>
                  <timebase>25</timebase>
                </rate>
                <in>28765</in>
                <out>28857</out>
                <start>28765</start>
                <end>28857</end>
                <file id="src-4"/>
                <sourcetrack>
                  <mediatype>video</mediatype>
                  <trackindex>1</trackindex>
                </sourcetrack>
                <multiclip id="mcs-215">
                  <name>MCS-215</name>
                  <masterclipid>clip-master</masterclipid>
                  <collapsed>false</collapsed>
                  <angle>
                    <activevideoangle>false</activevideoangle>
                    <activeaudioangle>false</activeaudioangle>
                    <clip id="clip-1"/>
                  </angle>
                  <angle>
                    <activevideoangle>false</activevideoangle>
                    <activeaudioangle>false</activeaudioangle>
                    <clip id="clip-2"/>
                  </angle>
                  <angle>
                    <activevideoangle>false</activevideoangle>
                    <activeaudioangle>false</activeaudioangle>
                    <clip id="clip-3"/>
                  </angle>
                  <angle>
                    <activevideoangle>true</activevideoangle>
                    <activeaudioangle>true</activeaudioangle>
                    <clip id="clip-4"/>
                  </angle>
                  <angle>
                    <activevideoangle>false</activevideoangle>
                    <activeaudioangle>false</activeaudioangle>
                    <clip id="clip-5"/>
                  </angle>
                  <angle>
                    <activevideoangle>false</activevideoangle>
                    <activeaudioangle>false</activeaudioangle>
                    <clip id="clip-6"/>
                  </angle>
                  <angle>
                    <activevideoangle>false</activevideoangle>
                    <activeaudioangle>false</activeaudioangle>
                    <clip id="clip-7"/>
                  </angle>
                  <angle>
                    <activevideoangle>false</activevideoangle>
                    <activeaudioangle>false</activeaudioangle>
                    <clip id="clip-8"/>
                  </angle>
                  <angle>
                    <activevideoangle>false</activevideoangle>
                    <activeaudioangle>false</activeaudioangle>
                    <clip id="clip-9"/>
                  </angle>
                  <masterclipid>clip-master</masterclipid>
                </multiclip>
              </clipitem>
              <clipitem id="cs-216">
                <duration>84</duration>
                <rate>
                  <ntsc>false</ntsc>
                  <timebase>25</timebase>
                </rate>
                <in>28857</in>
                <out>28940</out>
                <start>28857</start>
                <end>28940</end>
                <file id="src-2"/>
                <sourcetrack>
                  <mediatype>video</mediatype>
                  <trackindex>1</trackindex>
                </sourcetrack>
                <multiclip id="mcs-216">
                  <name>MCS-216</name>
                  <masterclipid>clip-master</masterclipid>
                  <collapsed>false</collapsed>
                  <angle>
                    <activevideoangle>false</activevideoangle>
                    <activeaudioangle>false</activeaudioangle>
                    <clip id="clip-1"/>
                  </angle>
                  <angle>
                    <activevideoangle>true</activevideoangle>
                    <activeaudioangle>true</activeaudioangle>
                    <clip id="clip-2"/>
                  </angle>
                  <angle>
                    <activevideoangle>false</activevideoangle>
                    <activeaudioangle>false</activeaudioangle>
                    <clip id="clip-3"/>
                  </angle>
                  <angle>
                    <activevideoangle>false</activevideoangle>
                    <activeaudioangle>false</activeaudioangle>
                    <clip id="clip-4"/>
                  </angle>
                  <angle>
                    <activevideoangle>false</activevideoangle>
                    <activeaudioangle>false</activeaudioangle>
                    <clip id="clip-5"/>
                  </angle>
                  <angle>
                    <activevideoangle>false</activevideoangle>
                    <activeaudioangle>false</activeaudioangle>
                    <clip id="clip-6"/>
                  </angle>
                  <angle>
                    <activevideoangle>false</activevideoangle>
                    <activeaudioangle>false</activeaudioangle>
                    <clip id="clip-7"/>
                  </angle>
                  <angle>
                    <activevideoangle>false</activevideoangle>
                    <activeaudioangle>false</activeaudioangle>
                    <clip id="clip-8"/>
                  </angle>
                  <angle>
                    <activevideoangle>false</activevideoangle>
                    <activeaudioangle>false</activeaudioangle>
                    <clip id="clip-9"/>
                  </angle>
                  <masterclipid>clip-master</masterclipid>
                </multiclip>
              </clipitem>
              <clipitem id="cs-217">
                <duration>79</duration>
                <rate>
                  <ntsc>false</ntsc>
                  <timebase>25</timebase>
                </rate>
                <in>28940</in>
                <out>29018</out>
                <start>28940</start>
                <end>29018</end>
                <file id="src-3"/>
                <sourcetrack>
                  <mediatype>video</mediatype>
                  <trackindex>1</trackindex>
                </sourcetrack>
                <multiclip id="mcs-217">
                  <name>MCS-217</name>
                  <masterclipid>clip-master</masterclipid>
                  <collapsed>false</collapsed>
                  <angle>
                    <activevideoangle>false</activevideoangle>
                    <activeaudioangle>false</activeaudioangle>
                    <clip id="clip-1"/>
                  </angle>
                  <angle>
                    <activevideoangle>false</activevideoangle>
                    <activeaudioangle>false</activeaudioangle>
                    <clip id="clip-2"/>
                  </angle>
                  <angle>
                    <activevideoangle>true</activevideoangle>
                    <activeaudioangle>true</activeaudioangle>
                    <clip id="clip-3"/>
                  </angle>
                  <angle>
                    <activevideoangle>false</activevideoangle>
                    <activeaudioangle>false</activeaudioangle>
                    <clip id="clip-4"/>
                  </angle>
                  <angle>
                    <activevideoangle>false</activevideoangle>
                    <activeaudioangle>false</activeaudioangle>
                    <clip id="clip-5"/>
                  </angle>
                  <angle>
                    <activevideoangle>false</activevideoangle>
                    <activeaudioangle>false</activeaudioangle>
                    <clip id="clip-6"/>
                  </angle>
                  <angle>
                    <activevideoangle>false</activevideoangle>
                    <activeaudioangle>false</activeaudioangle>
                    <clip id="clip-7"/>
                  </angle>
                  <angle>
                    <activevideoangle>false</activevideoangle>
                    <activeaudioangle>false</activeaudioangle>
                    <clip id="clip-8"/>
                  </angle>
                  <angle>
                    <activevideoangle>false</activevideoangle>
                    <activeaudioangle>false</activeaudioangle>
                    <clip id="clip-9"/>
                  </angle>
                  <masterclipid>clip-master</masterclipid>
                </multiclip>
              </clipitem>
              <clipitem id="cs-218">
                <duration>81</duration>
                <rate>
                  <ntsc>false</ntsc>
                  <timebase>25</timebase>
                </rate>
                <in>29018</in>
                <out>29098</out>
                <start>29018</start>
                <end>29098</end>
                <file id="src-4"/>
                <sourcetrack>
                  <mediatype>video</mediatype>
                  <trackindex>1</trackindex>
                </sourcetrack>
                <multiclip id="mcs-218">
                  <name>MCS-218</name>
                  <masterclipid>clip-master</masterclipid>
                  <collapsed>false</collapsed>
                  <angle>
                    <activevideoangle>false</activevideoangle>
                    <activeaudioangle>false</activeaudioangle>
                    <clip id="clip-1"/>
                  </angle>
                  <angle>
                    <activevideoangle>false</activevideoangle>
                    <activeaudioangle>false</activeaudioangle>
                    <clip id="clip-2"/>
                  </angle>
                  <angle>
                    <activevideoangle>false</activevideoangle>
                    <activeaudioangle>false</activeaudioangle>
                    <clip id="clip-3"/>
                  </angle>
                  <angle>
                    <activevideoangle>true</activevideoangle>
                    <activeaudioangle>true</activeaudioangle>
                    <clip id="clip-4"/>
                  </angle>
                  <angle>
                    <activevideoangle>false</activevideoangle>
                    <activeaudioangle>false</activeaudioangle>
                    <clip id="clip-5"/>
                  </angle>
                  <angle>
                    <activevideoangle>false</activevideoangle>
                    <activeaudioangle>false</activeaudioangle>
                    <clip id="clip-6"/>
                  </angle>
                  <angle>
                    <activevideoangle>false</activevideoangle>
                    <activeaudioangle>false</activeaudioangle>
                    <clip id="clip-7"/>
                  </angle>
                  <angle>
                    <activevideoangle>false</activevideoangle>
                    <activeaudioangle>false</activeaudioangle>
                    <clip id="clip-8"/>
                  </angle>
                  <angle>
                    <activevideoangle>false</activevideoangle>
                    <activeaudioangle>false</activeaudioangle>
                    <clip id="clip-9"/>
                  </angle>
                  <masterclipid>clip-master</masterclipid>
                </multiclip>
              </clipitem>
              <clipitem id="cs-219">
                <duration>56</duration>
                <rate>
                  <ntsc>false</ntsc>
                  <timebase>25</timebase>
                </rate>
                <in>29098</in>
                <out>29153</out>
                <start>29098</start>
                <end>29153</end>
                <file id="src-6"/>
                <sourcetrack>
                  <mediatype>video</mediatype>
                  <trackindex>1</trackindex>
                </sourcetrack>
                <multiclip id="mcs-219">
                  <name>MCS-219</name>
                  <masterclipid>clip-master</masterclipid>
                  <collapsed>false</collapsed>
                  <angle>
                    <activevideoangle>false</activevideoangle>
                    <activeaudioangle>false</activeaudioangle>
                    <clip id="clip-1"/>
                  </angle>
                  <angle>
                    <activevideoangle>false</activevideoangle>
                    <activeaudioangle>false</activeaudioangle>
                    <clip id="clip-2"/>
                  </angle>
                  <angle>
                    <activevideoangle>false</activevideoangle>
                    <activeaudioangle>false</activeaudioangle>
                    <clip id="clip-3"/>
                  </angle>
                  <angle>
                    <activevideoangle>false</activevideoangle>
                    <activeaudioangle>false</activeaudioangle>
                    <clip id="clip-4"/>
                  </angle>
                  <angle>
                    <activevideoangle>false</activevideoangle>
                    <activeaudioangle>false</activeaudioangle>
                    <clip id="clip-5"/>
                  </angle>
                  <angle>
                    <activevideoangle>true</activevideoangle>
                    <activeaudioangle>true</activeaudioangle>
                    <clip id="clip-6"/>
                  </angle>
                  <angle>
                    <activevideoangle>false</activevideoangle>
                    <activeaudioangle>false</activeaudioangle>
                    <clip id="clip-7"/>
                  </angle>
                  <angle>
                    <activevideoangle>false</activevideoangle>
                    <activeaudioangle>false</activeaudioangle>
                    <clip id="clip-8"/>
                  </angle>
                  <angle>
                    <activevideoangle>false</activevideoangle>
                    <activeaudioangle>false</activeaudioangle>
                    <clip id="clip-9"/>
                  </angle>
                  <masterclipid>clip-master</masterclipid>
                </multiclip>
              </clipitem>
              <clipitem id="cs-220">
                <duration>41</duration>
                <rate>
                  <ntsc>false</ntsc>
                  <timebase>25</timebase>
                </rate>
                <in>29153</in>
                <out>29193</out>
                <start>29153</start>
                <end>29193</end>
                <file id="src-3"/>
                <sourcetrack>
                  <mediatype>video</mediatype>
                  <trackindex>1</trackindex>
                </sourcetrack>
                <multiclip id="mcs-220">
                  <name>MCS-220</name>
                  <masterclipid>clip-master</masterclipid>
                  <collapsed>false</collapsed>
                  <angle>
                    <activevideoangle>false</activevideoangle>
                    <activeaudioangle>false</activeaudioangle>
                    <clip id="clip-1"/>
                  </angle>
                  <angle>
                    <activevideoangle>false</activevideoangle>
                    <activeaudioangle>false</activeaudioangle>
                    <clip id="clip-2"/>
                  </angle>
                  <angle>
                    <activevideoangle>true</activevideoangle>
                    <activeaudioangle>true</activeaudioangle>
                    <clip id="clip-3"/>
                  </angle>
                  <angle>
                    <activevideoangle>false</activevideoangle>
                    <activeaudioangle>false</activeaudioangle>
                    <clip id="clip-4"/>
                  </angle>
                  <angle>
                    <activevideoangle>false</activevideoangle>
                    <activeaudioangle>false</activeaudioangle>
                    <clip id="clip-5"/>
                  </angle>
                  <angle>
                    <activevideoangle>false</activevideoangle>
                    <activeaudioangle>false</activeaudioangle>
                    <clip id="clip-6"/>
                  </angle>
                  <angle>
                    <activevideoangle>false</activevideoangle>
                    <activeaudioangle>false</activeaudioangle>
                    <clip id="clip-7"/>
                  </angle>
                  <angle>
                    <activevideoangle>false</activevideoangle>
                    <activeaudioangle>false</activeaudioangle>
                    <clip id="clip-8"/>
                  </angle>
                  <angle>
                    <activevideoangle>false</activevideoangle>
                    <activeaudioangle>false</activeaudioangle>
                    <clip id="clip-9"/>
                  </angle>
                  <masterclipid>clip-master</masterclipid>
                </multiclip>
              </clipitem>
              <clipitem id="cs-221">
                <duration>31</duration>
                <rate>
                  <ntsc>false</ntsc>
                  <timebase>25</timebase>
                </rate>
                <in>29193</in>
                <out>29223</out>
                <start>29193</start>
                <end>29223</end>
                <file id="src-2"/>
                <sourcetrack>
                  <mediatype>video</mediatype>
                  <trackindex>1</trackindex>
                </sourcetrack>
                <multiclip id="mcs-221">
                  <name>MCS-221</name>
                  <masterclipid>clip-master</masterclipid>
                  <collapsed>false</collapsed>
                  <angle>
                    <activevideoangle>false</activevideoangle>
                    <activeaudioangle>false</activeaudioangle>
                    <clip id="clip-1"/>
                  </angle>
                  <angle>
                    <activevideoangle>true</activevideoangle>
                    <activeaudioangle>true</activeaudioangle>
                    <clip id="clip-2"/>
                  </angle>
                  <angle>
                    <activevideoangle>false</activevideoangle>
                    <activeaudioangle>false</activeaudioangle>
                    <clip id="clip-3"/>
                  </angle>
                  <angle>
                    <activevideoangle>false</activevideoangle>
                    <activeaudioangle>false</activeaudioangle>
                    <clip id="clip-4"/>
                  </angle>
                  <angle>
                    <activevideoangle>false</activevideoangle>
                    <activeaudioangle>false</activeaudioangle>
                    <clip id="clip-5"/>
                  </angle>
                  <angle>
                    <activevideoangle>false</activevideoangle>
                    <activeaudioangle>false</activeaudioangle>
                    <clip id="clip-6"/>
                  </angle>
                  <angle>
                    <activevideoangle>false</activevideoangle>
                    <activeaudioangle>false</activeaudioangle>
                    <clip id="clip-7"/>
                  </angle>
                  <angle>
                    <activevideoangle>false</activevideoangle>
                    <activeaudioangle>false</activeaudioangle>
                    <clip id="clip-8"/>
                  </angle>
                  <angle>
                    <activevideoangle>false</activevideoangle>
                    <activeaudioangle>false</activeaudioangle>
                    <clip id="clip-9"/>
                  </angle>
                  <masterclipid>clip-master</masterclipid>
                </multiclip>
              </clipitem>
              <clipitem id="cs-222">
                <duration>95</duration>
                <rate>
                  <ntsc>false</ntsc>
                  <timebase>25</timebase>
                </rate>
                <in>29223</in>
                <out>29317</out>
                <start>29223</start>
                <end>29317</end>
                <file id="src-4"/>
                <sourcetrack>
                  <mediatype>video</mediatype>
                  <trackindex>1</trackindex>
                </sourcetrack>
                <multiclip id="mcs-222">
                  <name>MCS-222</name>
                  <masterclipid>clip-master</masterclipid>
                  <collapsed>false</collapsed>
                  <angle>
                    <activevideoangle>false</activevideoangle>
                    <activeaudioangle>false</activeaudioangle>
                    <clip id="clip-1"/>
                  </angle>
                  <angle>
                    <activevideoangle>false</activevideoangle>
                    <activeaudioangle>false</activeaudioangle>
                    <clip id="clip-2"/>
                  </angle>
                  <angle>
                    <activevideoangle>false</activevideoangle>
                    <activeaudioangle>false</activeaudioangle>
                    <clip id="clip-3"/>
                  </angle>
                  <angle>
                    <activevideoangle>true</activevideoangle>
                    <activeaudioangle>true</activeaudioangle>
                    <clip id="clip-4"/>
                  </angle>
                  <angle>
                    <activevideoangle>false</activevideoangle>
                    <activeaudioangle>false</activeaudioangle>
                    <clip id="clip-5"/>
                  </angle>
                  <angle>
                    <activevideoangle>false</activevideoangle>
                    <activeaudioangle>false</activeaudioangle>
                    <clip id="clip-6"/>
                  </angle>
                  <angle>
                    <activevideoangle>false</activevideoangle>
                    <activeaudioangle>false</activeaudioangle>
                    <clip id="clip-7"/>
                  </angle>
                  <angle>
                    <activevideoangle>false</activevideoangle>
                    <activeaudioangle>false</activeaudioangle>
                    <clip id="clip-8"/>
                  </angle>
                  <angle>
                    <activevideoangle>false</activevideoangle>
                    <activeaudioangle>false</activeaudioangle>
                    <clip id="clip-9"/>
                  </angle>
                  <masterclipid>clip-master</masterclipid>
                </multiclip>
              </clipitem>
              <clipitem id="cs-223">
                <duration>112</duration>
                <rate>
                  <ntsc>false</ntsc>
                  <timebase>25</timebase>
                </rate>
                <in>29317</in>
                <out>29428</out>
                <start>29317</start>
                <end>29428</end>
                <file id="src-1"/>
                <sourcetrack>
                  <mediatype>video</mediatype>
                  <trackindex>1</trackindex>
                </sourcetrack>
                <multiclip id="mcs-223">
                  <name>MCS-223</name>
                  <masterclipid>clip-master</masterclipid>
                  <collapsed>false</collapsed>
                  <angle>
                    <activevideoangle>true</activevideoangle>
                    <activeaudioangle>true</activeaudioangle>
                    <clip id="clip-1"/>
                  </angle>
                  <angle>
                    <activevideoangle>false</activevideoangle>
                    <activeaudioangle>false</activeaudioangle>
                    <clip id="clip-2"/>
                  </angle>
                  <angle>
                    <activevideoangle>false</activevideoangle>
                    <activeaudioangle>false</activeaudioangle>
                    <clip id="clip-3"/>
                  </angle>
                  <angle>
                    <activevideoangle>false</activevideoangle>
                    <activeaudioangle>false</activeaudioangle>
                    <clip id="clip-4"/>
                  </angle>
                  <angle>
                    <activevideoangle>false</activevideoangle>
                    <activeaudioangle>false</activeaudioangle>
                    <clip id="clip-5"/>
                  </angle>
                  <angle>
                    <activevideoangle>false</activevideoangle>
                    <activeaudioangle>false</activeaudioangle>
                    <clip id="clip-6"/>
                  </angle>
                  <angle>
                    <activevideoangle>false</activevideoangle>
                    <activeaudioangle>false</activeaudioangle>
                    <clip id="clip-7"/>
                  </angle>
                  <angle>
                    <activevideoangle>false</activevideoangle>
                    <activeaudioangle>false</activeaudioangle>
                    <clip id="clip-8"/>
                  </angle>
                  <angle>
                    <activevideoangle>false</activevideoangle>
                    <activeaudioangle>false</activeaudioangle>
                    <clip id="clip-9"/>
                  </angle>
                  <masterclipid>clip-master</masterclipid>
                </multiclip>
              </clipitem>
              <clipitem id="cs-224">
                <duration>35</duration>
                <rate>
                  <ntsc>false</ntsc>
                  <timebase>25</timebase>
                </rate>
                <in>29428</in>
                <out>29462</out>
                <start>29428</start>
                <end>29462</end>
                <file id="src-2"/>
                <sourcetrack>
                  <mediatype>video</mediatype>
                  <trackindex>1</trackindex>
                </sourcetrack>
                <multiclip id="mcs-224">
                  <name>MCS-224</name>
                  <masterclipid>clip-master</masterclipid>
                  <collapsed>false</collapsed>
                  <angle>
                    <activevideoangle>false</activevideoangle>
                    <activeaudioangle>false</activeaudioangle>
                    <clip id="clip-1"/>
                  </angle>
                  <angle>
                    <activevideoangle>true</activevideoangle>
                    <activeaudioangle>true</activeaudioangle>
                    <clip id="clip-2"/>
                  </angle>
                  <angle>
                    <activevideoangle>false</activevideoangle>
                    <activeaudioangle>false</activeaudioangle>
                    <clip id="clip-3"/>
                  </angle>
                  <angle>
                    <activevideoangle>false</activevideoangle>
                    <activeaudioangle>false</activeaudioangle>
                    <clip id="clip-4"/>
                  </angle>
                  <angle>
                    <activevideoangle>false</activevideoangle>
                    <activeaudioangle>false</activeaudioangle>
                    <clip id="clip-5"/>
                  </angle>
                  <angle>
                    <activevideoangle>false</activevideoangle>
                    <activeaudioangle>false</activeaudioangle>
                    <clip id="clip-6"/>
                  </angle>
                  <angle>
                    <activevideoangle>false</activevideoangle>
                    <activeaudioangle>false</activeaudioangle>
                    <clip id="clip-7"/>
                  </angle>
                  <angle>
                    <activevideoangle>false</activevideoangle>
                    <activeaudioangle>false</activeaudioangle>
                    <clip id="clip-8"/>
                  </angle>
                  <angle>
                    <activevideoangle>false</activevideoangle>
                    <activeaudioangle>false</activeaudioangle>
                    <clip id="clip-9"/>
                  </angle>
                  <masterclipid>clip-master</masterclipid>
                </multiclip>
              </clipitem>
              <clipitem id="cs-225">
                <duration>38</duration>
                <rate>
                  <ntsc>false</ntsc>
                  <timebase>25</timebase>
                </rate>
                <in>29462</in>
                <out>29499</out>
                <start>29462</start>
                <end>29499</end>
                <file id="src-4"/>
                <sourcetrack>
                  <mediatype>video</mediatype>
                  <trackindex>1</trackindex>
                </sourcetrack>
                <multiclip id="mcs-225">
                  <name>MCS-225</name>
                  <masterclipid>clip-master</masterclipid>
                  <collapsed>false</collapsed>
                  <angle>
                    <activevideoangle>false</activevideoangle>
                    <activeaudioangle>false</activeaudioangle>
                    <clip id="clip-1"/>
                  </angle>
                  <angle>
                    <activevideoangle>false</activevideoangle>
                    <activeaudioangle>false</activeaudioangle>
                    <clip id="clip-2"/>
                  </angle>
                  <angle>
                    <activevideoangle>false</activevideoangle>
                    <activeaudioangle>false</activeaudioangle>
                    <clip id="clip-3"/>
                  </angle>
                  <angle>
                    <activevideoangle>true</activevideoangle>
                    <activeaudioangle>true</activeaudioangle>
                    <clip id="clip-4"/>
                  </angle>
                  <angle>
                    <activevideoangle>false</activevideoangle>
                    <activeaudioangle>false</activeaudioangle>
                    <clip id="clip-5"/>
                  </angle>
                  <angle>
                    <activevideoangle>false</activevideoangle>
                    <activeaudioangle>false</activeaudioangle>
                    <clip id="clip-6"/>
                  </angle>
                  <angle>
                    <activevideoangle>false</activevideoangle>
                    <activeaudioangle>false</activeaudioangle>
                    <clip id="clip-7"/>
                  </angle>
                  <angle>
                    <activevideoangle>false</activevideoangle>
                    <activeaudioangle>false</activeaudioangle>
                    <clip id="clip-8"/>
                  </angle>
                  <angle>
                    <activevideoangle>false</activevideoangle>
                    <activeaudioangle>false</activeaudioangle>
                    <clip id="clip-9"/>
                  </angle>
                  <masterclipid>clip-master</masterclipid>
                </multiclip>
              </clipitem>
              <clipitem id="cs-226">
                <duration>68</duration>
                <rate>
                  <ntsc>false</ntsc>
                  <timebase>25</timebase>
                </rate>
                <in>29499</in>
                <out>29566</out>
                <start>29499</start>
                <end>29566</end>
                <file id="src-6"/>
                <sourcetrack>
                  <mediatype>video</mediatype>
                  <trackindex>1</trackindex>
                </sourcetrack>
                <multiclip id="mcs-226">
                  <name>MCS-226</name>
                  <masterclipid>clip-master</masterclipid>
                  <collapsed>false</collapsed>
                  <angle>
                    <activevideoangle>false</activevideoangle>
                    <activeaudioangle>false</activeaudioangle>
                    <clip id="clip-1"/>
                  </angle>
                  <angle>
                    <activevideoangle>false</activevideoangle>
                    <activeaudioangle>false</activeaudioangle>
                    <clip id="clip-2"/>
                  </angle>
                  <angle>
                    <activevideoangle>false</activevideoangle>
                    <activeaudioangle>false</activeaudioangle>
                    <clip id="clip-3"/>
                  </angle>
                  <angle>
                    <activevideoangle>false</activevideoangle>
                    <activeaudioangle>false</activeaudioangle>
                    <clip id="clip-4"/>
                  </angle>
                  <angle>
                    <activevideoangle>false</activevideoangle>
                    <activeaudioangle>false</activeaudioangle>
                    <clip id="clip-5"/>
                  </angle>
                  <angle>
                    <activevideoangle>true</activevideoangle>
                    <activeaudioangle>true</activeaudioangle>
                    <clip id="clip-6"/>
                  </angle>
                  <angle>
                    <activevideoangle>false</activevideoangle>
                    <activeaudioangle>false</activeaudioangle>
                    <clip id="clip-7"/>
                  </angle>
                  <angle>
                    <activevideoangle>false</activevideoangle>
                    <activeaudioangle>false</activeaudioangle>
                    <clip id="clip-8"/>
                  </angle>
                  <angle>
                    <activevideoangle>false</activevideoangle>
                    <activeaudioangle>false</activeaudioangle>
                    <clip id="clip-9"/>
                  </angle>
                  <masterclipid>clip-master</masterclipid>
                </multiclip>
              </clipitem>
              <clipitem id="cs-227">
                <duration>165</duration>
                <rate>
                  <ntsc>false</ntsc>
                  <timebase>25</timebase>
                </rate>
                <in>29566</in>
                <out>29730</out>
                <start>29566</start>
                <end>29730</end>
                <file id="src-3"/>
                <sourcetrack>
                  <mediatype>video</mediatype>
                  <trackindex>1</trackindex>
                </sourcetrack>
                <multiclip id="mcs-227">
                  <name>MCS-227</name>
                  <masterclipid>clip-master</masterclipid>
                  <collapsed>false</collapsed>
                  <angle>
                    <activevideoangle>false</activevideoangle>
                    <activeaudioangle>false</activeaudioangle>
                    <clip id="clip-1"/>
                  </angle>
                  <angle>
                    <activevideoangle>false</activevideoangle>
                    <activeaudioangle>false</activeaudioangle>
                    <clip id="clip-2"/>
                  </angle>
                  <angle>
                    <activevideoangle>true</activevideoangle>
                    <activeaudioangle>true</activeaudioangle>
                    <clip id="clip-3"/>
                  </angle>
                  <angle>
                    <activevideoangle>false</activevideoangle>
                    <activeaudioangle>false</activeaudioangle>
                    <clip id="clip-4"/>
                  </angle>
                  <angle>
                    <activevideoangle>false</activevideoangle>
                    <activeaudioangle>false</activeaudioangle>
                    <clip id="clip-5"/>
                  </angle>
                  <angle>
                    <activevideoangle>false</activevideoangle>
                    <activeaudioangle>false</activeaudioangle>
                    <clip id="clip-6"/>
                  </angle>
                  <angle>
                    <activevideoangle>false</activevideoangle>
                    <activeaudioangle>false</activeaudioangle>
                    <clip id="clip-7"/>
                  </angle>
                  <angle>
                    <activevideoangle>false</activevideoangle>
                    <activeaudioangle>false</activeaudioangle>
                    <clip id="clip-8"/>
                  </angle>
                  <angle>
                    <activevideoangle>false</activevideoangle>
                    <activeaudioangle>false</activeaudioangle>
                    <clip id="clip-9"/>
                  </angle>
                  <masterclipid>clip-master</masterclipid>
                </multiclip>
              </clipitem>
              <clipitem id="cs-228">
                <duration>47</duration>
                <rate>
                  <ntsc>false</ntsc>
                  <timebase>25</timebase>
                </rate>
                <in>29730</in>
                <out>29776</out>
                <start>29730</start>
                <end>29776</end>
                <file id="src-5"/>
                <sourcetrack>
                  <mediatype>video</mediatype>
                  <trackindex>1</trackindex>
                </sourcetrack>
                <multiclip id="mcs-228">
                  <name>MCS-228</name>
                  <masterclipid>clip-master</masterclipid>
                  <collapsed>false</collapsed>
                  <angle>
                    <activevideoangle>false</activevideoangle>
                    <activeaudioangle>false</activeaudioangle>
                    <clip id="clip-1"/>
                  </angle>
                  <angle>
                    <activevideoangle>false</activevideoangle>
                    <activeaudioangle>false</activeaudioangle>
                    <clip id="clip-2"/>
                  </angle>
                  <angle>
                    <activevideoangle>false</activevideoangle>
                    <activeaudioangle>false</activeaudioangle>
                    <clip id="clip-3"/>
                  </angle>
                  <angle>
                    <activevideoangle>false</activevideoangle>
                    <activeaudioangle>false</activeaudioangle>
                    <clip id="clip-4"/>
                  </angle>
                  <angle>
                    <activevideoangle>true</activevideoangle>
                    <activeaudioangle>true</activeaudioangle>
                    <clip id="clip-5"/>
                  </angle>
                  <angle>
                    <activevideoangle>false</activevideoangle>
                    <activeaudioangle>false</activeaudioangle>
                    <clip id="clip-6"/>
                  </angle>
                  <angle>
                    <activevideoangle>false</activevideoangle>
                    <activeaudioangle>false</activeaudioangle>
                    <clip id="clip-7"/>
                  </angle>
                  <angle>
                    <activevideoangle>false</activevideoangle>
                    <activeaudioangle>false</activeaudioangle>
                    <clip id="clip-8"/>
                  </angle>
                  <angle>
                    <activevideoangle>false</activevideoangle>
                    <activeaudioangle>false</activeaudioangle>
                    <clip id="clip-9"/>
                  </angle>
                  <masterclipid>clip-master</masterclipid>
                </multiclip>
              </clipitem>
              <clipitem id="cs-229">
                <duration>116</duration>
                <rate>
                  <ntsc>false</ntsc>
                  <timebase>25</timebase>
                </rate>
                <in>29776</in>
                <out>29891</out>
                <start>29776</start>
                <end>29891</end>
                <file id="src-3"/>
                <sourcetrack>
                  <mediatype>video</mediatype>
                  <trackindex>1</trackindex>
                </sourcetrack>
                <multiclip id="mcs-229">
                  <name>MCS-229</name>
                  <masterclipid>clip-master</masterclipid>
                  <collapsed>false</collapsed>
                  <angle>
                    <activevideoangle>false</activevideoangle>
                    <activeaudioangle>false</activeaudioangle>
                    <clip id="clip-1"/>
                  </angle>
                  <angle>
                    <activevideoangle>false</activevideoangle>
                    <activeaudioangle>false</activeaudioangle>
                    <clip id="clip-2"/>
                  </angle>
                  <angle>
                    <activevideoangle>true</activevideoangle>
                    <activeaudioangle>true</activeaudioangle>
                    <clip id="clip-3"/>
                  </angle>
                  <angle>
                    <activevideoangle>false</activevideoangle>
                    <activeaudioangle>false</activeaudioangle>
                    <clip id="clip-4"/>
                  </angle>
                  <angle>
                    <activevideoangle>false</activevideoangle>
                    <activeaudioangle>false</activeaudioangle>
                    <clip id="clip-5"/>
                  </angle>
                  <angle>
                    <activevideoangle>false</activevideoangle>
                    <activeaudioangle>false</activeaudioangle>
                    <clip id="clip-6"/>
                  </angle>
                  <angle>
                    <activevideoangle>false</activevideoangle>
                    <activeaudioangle>false</activeaudioangle>
                    <clip id="clip-7"/>
                  </angle>
                  <angle>
                    <activevideoangle>false</activevideoangle>
                    <activeaudioangle>false</activeaudioangle>
                    <clip id="clip-8"/>
                  </angle>
                  <angle>
                    <activevideoangle>false</activevideoangle>
                    <activeaudioangle>false</activeaudioangle>
                    <clip id="clip-9"/>
                  </angle>
                  <masterclipid>clip-master</masterclipid>
                </multiclip>
              </clipitem>
              <clipitem id="cs-230">
                <duration>90</duration>
                <rate>
                  <ntsc>false</ntsc>
                  <timebase>25</timebase>
                </rate>
                <in>29891</in>
                <out>29980</out>
                <start>29891</start>
                <end>29980</end>
                <file id="src-2"/>
                <sourcetrack>
                  <mediatype>video</mediatype>
                  <trackindex>1</trackindex>
                </sourcetrack>
                <multiclip id="mcs-230">
                  <name>MCS-230</name>
                  <masterclipid>clip-master</masterclipid>
                  <collapsed>false</collapsed>
                  <angle>
                    <activevideoangle>false</activevideoangle>
                    <activeaudioangle>false</activeaudioangle>
                    <clip id="clip-1"/>
                  </angle>
                  <angle>
                    <activevideoangle>true</activevideoangle>
                    <activeaudioangle>true</activeaudioangle>
                    <clip id="clip-2"/>
                  </angle>
                  <angle>
                    <activevideoangle>false</activevideoangle>
                    <activeaudioangle>false</activeaudioangle>
                    <clip id="clip-3"/>
                  </angle>
                  <angle>
                    <activevideoangle>false</activevideoangle>
                    <activeaudioangle>false</activeaudioangle>
                    <clip id="clip-4"/>
                  </angle>
                  <angle>
                    <activevideoangle>false</activevideoangle>
                    <activeaudioangle>false</activeaudioangle>
                    <clip id="clip-5"/>
                  </angle>
                  <angle>
                    <activevideoangle>false</activevideoangle>
                    <activeaudioangle>false</activeaudioangle>
                    <clip id="clip-6"/>
                  </angle>
                  <angle>
                    <activevideoangle>false</activevideoangle>
                    <activeaudioangle>false</activeaudioangle>
                    <clip id="clip-7"/>
                  </angle>
                  <angle>
                    <activevideoangle>false</activevideoangle>
                    <activeaudioangle>false</activeaudioangle>
                    <clip id="clip-8"/>
                  </angle>
                  <angle>
                    <activevideoangle>false</activevideoangle>
                    <activeaudioangle>false</activeaudioangle>
                    <clip id="clip-9"/>
                  </angle>
                  <masterclipid>clip-master</masterclipid>
                </multiclip>
              </clipitem>
              <clipitem id="cs-231">
                <duration>220</duration>
                <rate>
                  <ntsc>false</ntsc>
                  <timebase>25</timebase>
                </rate>
                <in>29980</in>
                <out>30199</out>
                <start>29980</start>
                <end>30199</end>
                <file id="src-4"/>
                <sourcetrack>
                  <mediatype>video</mediatype>
                  <trackindex>1</trackindex>
                </sourcetrack>
                <multiclip id="mcs-231">
                  <name>MCS-231</name>
                  <masterclipid>clip-master</masterclipid>
                  <collapsed>false</collapsed>
                  <angle>
                    <activevideoangle>false</activevideoangle>
                    <activeaudioangle>false</activeaudioangle>
                    <clip id="clip-1"/>
                  </angle>
                  <angle>
                    <activevideoangle>false</activevideoangle>
                    <activeaudioangle>false</activeaudioangle>
                    <clip id="clip-2"/>
                  </angle>
                  <angle>
                    <activevideoangle>false</activevideoangle>
                    <activeaudioangle>false</activeaudioangle>
                    <clip id="clip-3"/>
                  </angle>
                  <angle>
                    <activevideoangle>true</activevideoangle>
                    <activeaudioangle>true</activeaudioangle>
                    <clip id="clip-4"/>
                  </angle>
                  <angle>
                    <activevideoangle>false</activevideoangle>
                    <activeaudioangle>false</activeaudioangle>
                    <clip id="clip-5"/>
                  </angle>
                  <angle>
                    <activevideoangle>false</activevideoangle>
                    <activeaudioangle>false</activeaudioangle>
                    <clip id="clip-6"/>
                  </angle>
                  <angle>
                    <activevideoangle>false</activevideoangle>
                    <activeaudioangle>false</activeaudioangle>
                    <clip id="clip-7"/>
                  </angle>
                  <angle>
                    <activevideoangle>false</activevideoangle>
                    <activeaudioangle>false</activeaudioangle>
                    <clip id="clip-8"/>
                  </angle>
                  <angle>
                    <activevideoangle>false</activevideoangle>
                    <activeaudioangle>false</activeaudioangle>
                    <clip id="clip-9"/>
                  </angle>
                  <masterclipid>clip-master</masterclipid>
                </multiclip>
              </clipitem>
              <clipitem id="cs-232">
                <duration>104</duration>
                <rate>
                  <ntsc>false</ntsc>
                  <timebase>25</timebase>
                </rate>
                <in>30199</in>
                <out>30302</out>
                <start>30199</start>
                <end>30302</end>
                <file id="src-6"/>
                <sourcetrack>
                  <mediatype>video</mediatype>
                  <trackindex>1</trackindex>
                </sourcetrack>
                <multiclip id="mcs-232">
                  <name>MCS-232</name>
                  <masterclipid>clip-master</masterclipid>
                  <collapsed>false</collapsed>
                  <angle>
                    <activevideoangle>false</activevideoangle>
                    <activeaudioangle>false</activeaudioangle>
                    <clip id="clip-1"/>
                  </angle>
                  <angle>
                    <activevideoangle>false</activevideoangle>
                    <activeaudioangle>false</activeaudioangle>
                    <clip id="clip-2"/>
                  </angle>
                  <angle>
                    <activevideoangle>false</activevideoangle>
                    <activeaudioangle>false</activeaudioangle>
                    <clip id="clip-3"/>
                  </angle>
                  <angle>
                    <activevideoangle>false</activevideoangle>
                    <activeaudioangle>false</activeaudioangle>
                    <clip id="clip-4"/>
                  </angle>
                  <angle>
                    <activevideoangle>false</activevideoangle>
                    <activeaudioangle>false</activeaudioangle>
                    <clip id="clip-5"/>
                  </angle>
                  <angle>
                    <activevideoangle>true</activevideoangle>
                    <activeaudioangle>true</activeaudioangle>
                    <clip id="clip-6"/>
                  </angle>
                  <angle>
                    <activevideoangle>false</activevideoangle>
                    <activeaudioangle>false</activeaudioangle>
                    <clip id="clip-7"/>
                  </angle>
                  <angle>
                    <activevideoangle>false</activevideoangle>
                    <activeaudioangle>false</activeaudioangle>
                    <clip id="clip-8"/>
                  </angle>
                  <angle>
                    <activevideoangle>false</activevideoangle>
                    <activeaudioangle>false</activeaudioangle>
                    <clip id="clip-9"/>
                  </angle>
                  <masterclipid>clip-master</masterclipid>
                </multiclip>
              </clipitem>
              <clipitem id="cs-233">
                <duration>253</duration>
                <rate>
                  <ntsc>false</ntsc>
                  <timebase>25</timebase>
                </rate>
                <in>30302</in>
                <out>30554</out>
                <start>30302</start>
                <end>30554</end>
                <file id="src-3"/>
                <sourcetrack>
                  <mediatype>video</mediatype>
                  <trackindex>1</trackindex>
                </sourcetrack>
                <multiclip id="mcs-233">
                  <name>MCS-233</name>
                  <masterclipid>clip-master</masterclipid>
                  <collapsed>false</collapsed>
                  <angle>
                    <activevideoangle>false</activevideoangle>
                    <activeaudioangle>false</activeaudioangle>
                    <clip id="clip-1"/>
                  </angle>
                  <angle>
                    <activevideoangle>false</activevideoangle>
                    <activeaudioangle>false</activeaudioangle>
                    <clip id="clip-2"/>
                  </angle>
                  <angle>
                    <activevideoangle>true</activevideoangle>
                    <activeaudioangle>true</activeaudioangle>
                    <clip id="clip-3"/>
                  </angle>
                  <angle>
                    <activevideoangle>false</activevideoangle>
                    <activeaudioangle>false</activeaudioangle>
                    <clip id="clip-4"/>
                  </angle>
                  <angle>
                    <activevideoangle>false</activevideoangle>
                    <activeaudioangle>false</activeaudioangle>
                    <clip id="clip-5"/>
                  </angle>
                  <angle>
                    <activevideoangle>false</activevideoangle>
                    <activeaudioangle>false</activeaudioangle>
                    <clip id="clip-6"/>
                  </angle>
                  <angle>
                    <activevideoangle>false</activevideoangle>
                    <activeaudioangle>false</activeaudioangle>
                    <clip id="clip-7"/>
                  </angle>
                  <angle>
                    <activevideoangle>false</activevideoangle>
                    <activeaudioangle>false</activeaudioangle>
                    <clip id="clip-8"/>
                  </angle>
                  <angle>
                    <activevideoangle>false</activevideoangle>
                    <activeaudioangle>false</activeaudioangle>
                    <clip id="clip-9"/>
                  </angle>
                  <masterclipid>clip-master</masterclipid>
                </multiclip>
              </clipitem>
              <clipitem id="cs-234">
                <duration>112</duration>
                <rate>
                  <ntsc>false</ntsc>
                  <timebase>25</timebase>
                </rate>
                <in>30554</in>
                <out>30665</out>
                <start>30554</start>
                <end>30665</end>
                <file id="src-6"/>
                <sourcetrack>
                  <mediatype>video</mediatype>
                  <trackindex>1</trackindex>
                </sourcetrack>
                <multiclip id="mcs-234">
                  <name>MCS-234</name>
                  <masterclipid>clip-master</masterclipid>
                  <collapsed>false</collapsed>
                  <angle>
                    <activevideoangle>false</activevideoangle>
                    <activeaudioangle>false</activeaudioangle>
                    <clip id="clip-1"/>
                  </angle>
                  <angle>
                    <activevideoangle>false</activevideoangle>
                    <activeaudioangle>false</activeaudioangle>
                    <clip id="clip-2"/>
                  </angle>
                  <angle>
                    <activevideoangle>false</activevideoangle>
                    <activeaudioangle>false</activeaudioangle>
                    <clip id="clip-3"/>
                  </angle>
                  <angle>
                    <activevideoangle>false</activevideoangle>
                    <activeaudioangle>false</activeaudioangle>
                    <clip id="clip-4"/>
                  </angle>
                  <angle>
                    <activevideoangle>false</activevideoangle>
                    <activeaudioangle>false</activeaudioangle>
                    <clip id="clip-5"/>
                  </angle>
                  <angle>
                    <activevideoangle>true</activevideoangle>
                    <activeaudioangle>true</activeaudioangle>
                    <clip id="clip-6"/>
                  </angle>
                  <angle>
                    <activevideoangle>false</activevideoangle>
                    <activeaudioangle>false</activeaudioangle>
                    <clip id="clip-7"/>
                  </angle>
                  <angle>
                    <activevideoangle>false</activevideoangle>
                    <activeaudioangle>false</activeaudioangle>
                    <clip id="clip-8"/>
                  </angle>
                  <angle>
                    <activevideoangle>false</activevideoangle>
                    <activeaudioangle>false</activeaudioangle>
                    <clip id="clip-9"/>
                  </angle>
                  <masterclipid>clip-master</masterclipid>
                </multiclip>
              </clipitem>
              <clipitem id="cs-235">
                <duration>161</duration>
                <rate>
                  <ntsc>false</ntsc>
                  <timebase>25</timebase>
                </rate>
                <in>30665</in>
                <out>30825</out>
                <start>30665</start>
                <end>30825</end>
                <file id="src-4"/>
                <sourcetrack>
                  <mediatype>video</mediatype>
                  <trackindex>1</trackindex>
                </sourcetrack>
                <multiclip id="mcs-235">
                  <name>MCS-235</name>
                  <masterclipid>clip-master</masterclipid>
                  <collapsed>false</collapsed>
                  <angle>
                    <activevideoangle>false</activevideoangle>
                    <activeaudioangle>false</activeaudioangle>
                    <clip id="clip-1"/>
                  </angle>
                  <angle>
                    <activevideoangle>false</activevideoangle>
                    <activeaudioangle>false</activeaudioangle>
                    <clip id="clip-2"/>
                  </angle>
                  <angle>
                    <activevideoangle>false</activevideoangle>
                    <activeaudioangle>false</activeaudioangle>
                    <clip id="clip-3"/>
                  </angle>
                  <angle>
                    <activevideoangle>true</activevideoangle>
                    <activeaudioangle>true</activeaudioangle>
                    <clip id="clip-4"/>
                  </angle>
                  <angle>
                    <activevideoangle>false</activevideoangle>
                    <activeaudioangle>false</activeaudioangle>
                    <clip id="clip-5"/>
                  </angle>
                  <angle>
                    <activevideoangle>false</activevideoangle>
                    <activeaudioangle>false</activeaudioangle>
                    <clip id="clip-6"/>
                  </angle>
                  <angle>
                    <activevideoangle>false</activevideoangle>
                    <activeaudioangle>false</activeaudioangle>
                    <clip id="clip-7"/>
                  </angle>
                  <angle>
                    <activevideoangle>false</activevideoangle>
                    <activeaudioangle>false</activeaudioangle>
                    <clip id="clip-8"/>
                  </angle>
                  <angle>
                    <activevideoangle>false</activevideoangle>
                    <activeaudioangle>false</activeaudioangle>
                    <clip id="clip-9"/>
                  </angle>
                  <masterclipid>clip-master</masterclipid>
                </multiclip>
              </clipitem>
              <clipitem id="cs-236">
                <duration>66</duration>
                <rate>
                  <ntsc>false</ntsc>
                  <timebase>25</timebase>
                </rate>
                <in>30825</in>
                <out>30890</out>
                <start>30825</start>
                <end>30890</end>
                <file id="src-5"/>
                <sourcetrack>
                  <mediatype>video</mediatype>
                  <trackindex>1</trackindex>
                </sourcetrack>
                <multiclip id="mcs-236">
                  <name>MCS-236</name>
                  <masterclipid>clip-master</masterclipid>
                  <collapsed>false</collapsed>
                  <angle>
                    <activevideoangle>false</activevideoangle>
                    <activeaudioangle>false</activeaudioangle>
                    <clip id="clip-1"/>
                  </angle>
                  <angle>
                    <activevideoangle>false</activevideoangle>
                    <activeaudioangle>false</activeaudioangle>
                    <clip id="clip-2"/>
                  </angle>
                  <angle>
                    <activevideoangle>false</activevideoangle>
                    <activeaudioangle>false</activeaudioangle>
                    <clip id="clip-3"/>
                  </angle>
                  <angle>
                    <activevideoangle>false</activevideoangle>
                    <activeaudioangle>false</activeaudioangle>
                    <clip id="clip-4"/>
                  </angle>
                  <angle>
                    <activevideoangle>true</activevideoangle>
                    <activeaudioangle>true</activeaudioangle>
                    <clip id="clip-5"/>
                  </angle>
                  <angle>
                    <activevideoangle>false</activevideoangle>
                    <activeaudioangle>false</activeaudioangle>
                    <clip id="clip-6"/>
                  </angle>
                  <angle>
                    <activevideoangle>false</activevideoangle>
                    <activeaudioangle>false</activeaudioangle>
                    <clip id="clip-7"/>
                  </angle>
                  <angle>
                    <activevideoangle>false</activevideoangle>
                    <activeaudioangle>false</activeaudioangle>
                    <clip id="clip-8"/>
                  </angle>
                  <angle>
                    <activevideoangle>false</activevideoangle>
                    <activeaudioangle>false</activeaudioangle>
                    <clip id="clip-9"/>
                  </angle>
                  <masterclipid>clip-master</masterclipid>
                </multiclip>
              </clipitem>
              <clipitem id="cs-237">
                <duration>47</duration>
                <rate>
                  <ntsc>false</ntsc>
                  <timebase>25</timebase>
                </rate>
                <in>30890</in>
                <out>30936</out>
                <start>30890</start>
                <end>30936</end>
                <file id="src-2"/>
                <sourcetrack>
                  <mediatype>video</mediatype>
                  <trackindex>1</trackindex>
                </sourcetrack>
                <multiclip id="mcs-237">
                  <name>MCS-237</name>
                  <masterclipid>clip-master</masterclipid>
                  <collapsed>false</collapsed>
                  <angle>
                    <activevideoangle>false</activevideoangle>
                    <activeaudioangle>false</activeaudioangle>
                    <clip id="clip-1"/>
                  </angle>
                  <angle>
                    <activevideoangle>true</activevideoangle>
                    <activeaudioangle>true</activeaudioangle>
                    <clip id="clip-2"/>
                  </angle>
                  <angle>
                    <activevideoangle>false</activevideoangle>
                    <activeaudioangle>false</activeaudioangle>
                    <clip id="clip-3"/>
                  </angle>
                  <angle>
                    <activevideoangle>false</activevideoangle>
                    <activeaudioangle>false</activeaudioangle>
                    <clip id="clip-4"/>
                  </angle>
                  <angle>
                    <activevideoangle>false</activevideoangle>
                    <activeaudioangle>false</activeaudioangle>
                    <clip id="clip-5"/>
                  </angle>
                  <angle>
                    <activevideoangle>false</activevideoangle>
                    <activeaudioangle>false</activeaudioangle>
                    <clip id="clip-6"/>
                  </angle>
                  <angle>
                    <activevideoangle>false</activevideoangle>
                    <activeaudioangle>false</activeaudioangle>
                    <clip id="clip-7"/>
                  </angle>
                  <angle>
                    <activevideoangle>false</activevideoangle>
                    <activeaudioangle>false</activeaudioangle>
                    <clip id="clip-8"/>
                  </angle>
                  <angle>
                    <activevideoangle>false</activevideoangle>
                    <activeaudioangle>false</activeaudioangle>
                    <clip id="clip-9"/>
                  </angle>
                  <masterclipid>clip-master</masterclipid>
                </multiclip>
              </clipitem>
              <clipitem id="cs-238">
                <duration>469</duration>
                <rate>
                  <ntsc>false</ntsc>
                  <timebase>25</timebase>
                </rate>
                <in>30936</in>
                <out>31404</out>
                <start>30936</start>
                <end>31404</end>
                <file id="src-3"/>
                <sourcetrack>
                  <mediatype>video</mediatype>
                  <trackindex>1</trackindex>
                </sourcetrack>
                <multiclip id="mcs-238">
                  <name>MCS-238</name>
                  <masterclipid>clip-master</masterclipid>
                  <collapsed>false</collapsed>
                  <angle>
                    <activevideoangle>false</activevideoangle>
                    <activeaudioangle>false</activeaudioangle>
                    <clip id="clip-1"/>
                  </angle>
                  <angle>
                    <activevideoangle>false</activevideoangle>
                    <activeaudioangle>false</activeaudioangle>
                    <clip id="clip-2"/>
                  </angle>
                  <angle>
                    <activevideoangle>true</activevideoangle>
                    <activeaudioangle>true</activeaudioangle>
                    <clip id="clip-3"/>
                  </angle>
                  <angle>
                    <activevideoangle>false</activevideoangle>
                    <activeaudioangle>false</activeaudioangle>
                    <clip id="clip-4"/>
                  </angle>
                  <angle>
                    <activevideoangle>false</activevideoangle>
                    <activeaudioangle>false</activeaudioangle>
                    <clip id="clip-5"/>
                  </angle>
                  <angle>
                    <activevideoangle>false</activevideoangle>
                    <activeaudioangle>false</activeaudioangle>
                    <clip id="clip-6"/>
                  </angle>
                  <angle>
                    <activevideoangle>false</activevideoangle>
                    <activeaudioangle>false</activeaudioangle>
                    <clip id="clip-7"/>
                  </angle>
                  <angle>
                    <activevideoangle>false</activevideoangle>
                    <activeaudioangle>false</activeaudioangle>
                    <clip id="clip-8"/>
                  </angle>
                  <angle>
                    <activevideoangle>false</activevideoangle>
                    <activeaudioangle>false</activeaudioangle>
                    <clip id="clip-9"/>
                  </angle>
                  <masterclipid>clip-master</masterclipid>
                </multiclip>
              </clipitem>
              <clipitem id="cs-239">
                <duration>262</duration>
                <rate>
                  <ntsc>false</ntsc>
                  <timebase>25</timebase>
                </rate>
                <in>31404</in>
                <out>31665</out>
                <start>31404</start>
                <end>31665</end>
                <file id="src-2"/>
                <sourcetrack>
                  <mediatype>video</mediatype>
                  <trackindex>1</trackindex>
                </sourcetrack>
                <multiclip id="mcs-239">
                  <name>MCS-239</name>
                  <masterclipid>clip-master</masterclipid>
                  <collapsed>false</collapsed>
                  <angle>
                    <activevideoangle>false</activevideoangle>
                    <activeaudioangle>false</activeaudioangle>
                    <clip id="clip-1"/>
                  </angle>
                  <angle>
                    <activevideoangle>true</activevideoangle>
                    <activeaudioangle>true</activeaudioangle>
                    <clip id="clip-2"/>
                  </angle>
                  <angle>
                    <activevideoangle>false</activevideoangle>
                    <activeaudioangle>false</activeaudioangle>
                    <clip id="clip-3"/>
                  </angle>
                  <angle>
                    <activevideoangle>false</activevideoangle>
                    <activeaudioangle>false</activeaudioangle>
                    <clip id="clip-4"/>
                  </angle>
                  <angle>
                    <activevideoangle>false</activevideoangle>
                    <activeaudioangle>false</activeaudioangle>
                    <clip id="clip-5"/>
                  </angle>
                  <angle>
                    <activevideoangle>false</activevideoangle>
                    <activeaudioangle>false</activeaudioangle>
                    <clip id="clip-6"/>
                  </angle>
                  <angle>
                    <activevideoangle>false</activevideoangle>
                    <activeaudioangle>false</activeaudioangle>
                    <clip id="clip-7"/>
                  </angle>
                  <angle>
                    <activevideoangle>false</activevideoangle>
                    <activeaudioangle>false</activeaudioangle>
                    <clip id="clip-8"/>
                  </angle>
                  <angle>
                    <activevideoangle>false</activevideoangle>
                    <activeaudioangle>false</activeaudioangle>
                    <clip id="clip-9"/>
                  </angle>
                  <masterclipid>clip-master</masterclipid>
                </multiclip>
              </clipitem>
              <clipitem id="cs-240">
                <duration>43</duration>
                <rate>
                  <ntsc>false</ntsc>
                  <timebase>25</timebase>
                </rate>
                <in>31665</in>
                <out>31707</out>
                <start>31665</start>
                <end>31707</end>
                <file id="src-5"/>
                <sourcetrack>
                  <mediatype>video</mediatype>
                  <trackindex>1</trackindex>
                </sourcetrack>
                <multiclip id="mcs-240">
                  <name>MCS-240</name>
                  <masterclipid>clip-master</masterclipid>
                  <collapsed>false</collapsed>
                  <angle>
                    <activevideoangle>false</activevideoangle>
                    <activeaudioangle>false</activeaudioangle>
                    <clip id="clip-1"/>
                  </angle>
                  <angle>
                    <activevideoangle>false</activevideoangle>
                    <activeaudioangle>false</activeaudioangle>
                    <clip id="clip-2"/>
                  </angle>
                  <angle>
                    <activevideoangle>false</activevideoangle>
                    <activeaudioangle>false</activeaudioangle>
                    <clip id="clip-3"/>
                  </angle>
                  <angle>
                    <activevideoangle>false</activevideoangle>
                    <activeaudioangle>false</activeaudioangle>
                    <clip id="clip-4"/>
                  </angle>
                  <angle>
                    <activevideoangle>true</activevideoangle>
                    <activeaudioangle>true</activeaudioangle>
                    <clip id="clip-5"/>
                  </angle>
                  <angle>
                    <activevideoangle>false</activevideoangle>
                    <activeaudioangle>false</activeaudioangle>
                    <clip id="clip-6"/>
                  </angle>
                  <angle>
                    <activevideoangle>false</activevideoangle>
                    <activeaudioangle>false</activeaudioangle>
                    <clip id="clip-7"/>
                  </angle>
                  <angle>
                    <activevideoangle>false</activevideoangle>
                    <activeaudioangle>false</activeaudioangle>
                    <clip id="clip-8"/>
                  </angle>
                  <angle>
                    <activevideoangle>false</activevideoangle>
                    <activeaudioangle>false</activeaudioangle>
                    <clip id="clip-9"/>
                  </angle>
                  <masterclipid>clip-master</masterclipid>
                </multiclip>
              </clipitem>
              <clipitem id="cs-241">
                <duration>190</duration>
                <rate>
                  <ntsc>false</ntsc>
                  <timebase>25</timebase>
                </rate>
                <in>31707</in>
                <out>31896</out>
                <start>31707</start>
                <end>31896</end>
                <file id="src-4"/>
                <sourcetrack>
                  <mediatype>video</mediatype>
                  <trackindex>1</trackindex>
                </sourcetrack>
                <multiclip id="mcs-241">
                  <name>MCS-241</name>
                  <masterclipid>clip-master</masterclipid>
                  <collapsed>false</collapsed>
                  <angle>
                    <activevideoangle>false</activevideoangle>
                    <activeaudioangle>false</activeaudioangle>
                    <clip id="clip-1"/>
                  </angle>
                  <angle>
                    <activevideoangle>false</activevideoangle>
                    <activeaudioangle>false</activeaudioangle>
                    <clip id="clip-2"/>
                  </angle>
                  <angle>
                    <activevideoangle>false</activevideoangle>
                    <activeaudioangle>false</activeaudioangle>
                    <clip id="clip-3"/>
                  </angle>
                  <angle>
                    <activevideoangle>true</activevideoangle>
                    <activeaudioangle>true</activeaudioangle>
                    <clip id="clip-4"/>
                  </angle>
                  <angle>
                    <activevideoangle>false</activevideoangle>
                    <activeaudioangle>false</activeaudioangle>
                    <clip id="clip-5"/>
                  </angle>
                  <angle>
                    <activevideoangle>false</activevideoangle>
                    <activeaudioangle>false</activeaudioangle>
                    <clip id="clip-6"/>
                  </angle>
                  <angle>
                    <activevideoangle>false</activevideoangle>
                    <activeaudioangle>false</activeaudioangle>
                    <clip id="clip-7"/>
                  </angle>
                  <angle>
                    <activevideoangle>false</activevideoangle>
                    <activeaudioangle>false</activeaudioangle>
                    <clip id="clip-8"/>
                  </angle>
                  <angle>
                    <activevideoangle>false</activevideoangle>
                    <activeaudioangle>false</activeaudioangle>
                    <clip id="clip-9"/>
                  </angle>
                  <masterclipid>clip-master</masterclipid>
                </multiclip>
              </clipitem>
              <clipitem id="cs-242">
                <duration>198</duration>
                <rate>
                  <ntsc>false</ntsc>
                  <timebase>25</timebase>
                </rate>
                <in>31896</in>
                <out>32093</out>
                <start>31896</start>
                <end>32093</end>
                <file id="src-2"/>
                <sourcetrack>
                  <mediatype>video</mediatype>
                  <trackindex>1</trackindex>
                </sourcetrack>
                <multiclip id="mcs-242">
                  <name>MCS-242</name>
                  <masterclipid>clip-master</masterclipid>
                  <collapsed>false</collapsed>
                  <angle>
                    <activevideoangle>false</activevideoangle>
                    <activeaudioangle>false</activeaudioangle>
                    <clip id="clip-1"/>
                  </angle>
                  <angle>
                    <activevideoangle>true</activevideoangle>
                    <activeaudioangle>true</activeaudioangle>
                    <clip id="clip-2"/>
                  </angle>
                  <angle>
                    <activevideoangle>false</activevideoangle>
                    <activeaudioangle>false</activeaudioangle>
                    <clip id="clip-3"/>
                  </angle>
                  <angle>
                    <activevideoangle>false</activevideoangle>
                    <activeaudioangle>false</activeaudioangle>
                    <clip id="clip-4"/>
                  </angle>
                  <angle>
                    <activevideoangle>false</activevideoangle>
                    <activeaudioangle>false</activeaudioangle>
                    <clip id="clip-5"/>
                  </angle>
                  <angle>
                    <activevideoangle>false</activevideoangle>
                    <activeaudioangle>false</activeaudioangle>
                    <clip id="clip-6"/>
                  </angle>
                  <angle>
                    <activevideoangle>false</activevideoangle>
                    <activeaudioangle>false</activeaudioangle>
                    <clip id="clip-7"/>
                  </angle>
                  <angle>
                    <activevideoangle>false</activevideoangle>
                    <activeaudioangle>false</activeaudioangle>
                    <clip id="clip-8"/>
                  </angle>
                  <angle>
                    <activevideoangle>false</activevideoangle>
                    <activeaudioangle>false</activeaudioangle>
                    <clip id="clip-9"/>
                  </angle>
                  <masterclipid>clip-master</masterclipid>
                </multiclip>
              </clipitem>
              <clipitem id="cs-243">
                <duration>250</duration>
                <rate>
                  <ntsc>false</ntsc>
                  <timebase>25</timebase>
                </rate>
                <in>32093</in>
                <out>32342</out>
                <start>32093</start>
                <end>32342</end>
                <file id="src-3"/>
                <sourcetrack>
                  <mediatype>video</mediatype>
                  <trackindex>1</trackindex>
                </sourcetrack>
                <multiclip id="mcs-243">
                  <name>MCS-243</name>
                  <masterclipid>clip-master</masterclipid>
                  <collapsed>false</collapsed>
                  <angle>
                    <activevideoangle>false</activevideoangle>
                    <activeaudioangle>false</activeaudioangle>
                    <clip id="clip-1"/>
                  </angle>
                  <angle>
                    <activevideoangle>false</activevideoangle>
                    <activeaudioangle>false</activeaudioangle>
                    <clip id="clip-2"/>
                  </angle>
                  <angle>
                    <activevideoangle>true</activevideoangle>
                    <activeaudioangle>true</activeaudioangle>
                    <clip id="clip-3"/>
                  </angle>
                  <angle>
                    <activevideoangle>false</activevideoangle>
                    <activeaudioangle>false</activeaudioangle>
                    <clip id="clip-4"/>
                  </angle>
                  <angle>
                    <activevideoangle>false</activevideoangle>
                    <activeaudioangle>false</activeaudioangle>
                    <clip id="clip-5"/>
                  </angle>
                  <angle>
                    <activevideoangle>false</activevideoangle>
                    <activeaudioangle>false</activeaudioangle>
                    <clip id="clip-6"/>
                  </angle>
                  <angle>
                    <activevideoangle>false</activevideoangle>
                    <activeaudioangle>false</activeaudioangle>
                    <clip id="clip-7"/>
                  </angle>
                  <angle>
                    <activevideoangle>false</activevideoangle>
                    <activeaudioangle>false</activeaudioangle>
                    <clip id="clip-8"/>
                  </angle>
                  <angle>
                    <activevideoangle>false</activevideoangle>
                    <activeaudioangle>false</activeaudioangle>
                    <clip id="clip-9"/>
                  </angle>
                  <masterclipid>clip-master</masterclipid>
                </multiclip>
              </clipitem>
              <clipitem id="cs-244">
                <duration>75</duration>
                <rate>
                  <ntsc>false</ntsc>
                  <timebase>25</timebase>
                </rate>
                <in>32342</in>
                <out>32416</out>
                <start>32342</start>
                <end>32416</end>
                <file id="src-6"/>
                <sourcetrack>
                  <mediatype>video</mediatype>
                  <trackindex>1</trackindex>
                </sourcetrack>
                <multiclip id="mcs-244">
                  <name>MCS-244</name>
                  <masterclipid>clip-master</masterclipid>
                  <collapsed>false</collapsed>
                  <angle>
                    <activevideoangle>false</activevideoangle>
                    <activeaudioangle>false</activeaudioangle>
                    <clip id="clip-1"/>
                  </angle>
                  <angle>
                    <activevideoangle>false</activevideoangle>
                    <activeaudioangle>false</activeaudioangle>
                    <clip id="clip-2"/>
                  </angle>
                  <angle>
                    <activevideoangle>false</activevideoangle>
                    <activeaudioangle>false</activeaudioangle>
                    <clip id="clip-3"/>
                  </angle>
                  <angle>
                    <activevideoangle>false</activevideoangle>
                    <activeaudioangle>false</activeaudioangle>
                    <clip id="clip-4"/>
                  </angle>
                  <angle>
                    <activevideoangle>false</activevideoangle>
                    <activeaudioangle>false</activeaudioangle>
                    <clip id="clip-5"/>
                  </angle>
                  <angle>
                    <activevideoangle>true</activevideoangle>
                    <activeaudioangle>true</activeaudioangle>
                    <clip id="clip-6"/>
                  </angle>
                  <angle>
                    <activevideoangle>false</activevideoangle>
                    <activeaudioangle>false</activeaudioangle>
                    <clip id="clip-7"/>
                  </angle>
                  <angle>
                    <activevideoangle>false</activevideoangle>
                    <activeaudioangle>false</activeaudioangle>
                    <clip id="clip-8"/>
                  </angle>
                  <angle>
                    <activevideoangle>false</activevideoangle>
                    <activeaudioangle>false</activeaudioangle>
                    <clip id="clip-9"/>
                  </angle>
                  <masterclipid>clip-master</masterclipid>
                </multiclip>
              </clipitem>
              <clipitem id="cs-245">
                <duration>144</duration>
                <rate>
                  <ntsc>false</ntsc>
                  <timebase>25</timebase>
                </rate>
                <in>32416</in>
                <out>32559</out>
                <start>32416</start>
                <end>32559</end>
                <file id="src-4"/>
                <sourcetrack>
                  <mediatype>video</mediatype>
                  <trackindex>1</trackindex>
                </sourcetrack>
                <multiclip id="mcs-245">
                  <name>MCS-245</name>
                  <masterclipid>clip-master</masterclipid>
                  <collapsed>false</collapsed>
                  <angle>
                    <activevideoangle>false</activevideoangle>
                    <activeaudioangle>false</activeaudioangle>
                    <clip id="clip-1"/>
                  </angle>
                  <angle>
                    <activevideoangle>false</activevideoangle>
                    <activeaudioangle>false</activeaudioangle>
                    <clip id="clip-2"/>
                  </angle>
                  <angle>
                    <activevideoangle>false</activevideoangle>
                    <activeaudioangle>false</activeaudioangle>
                    <clip id="clip-3"/>
                  </angle>
                  <angle>
                    <activevideoangle>true</activevideoangle>
                    <activeaudioangle>true</activeaudioangle>
                    <clip id="clip-4"/>
                  </angle>
                  <angle>
                    <activevideoangle>false</activevideoangle>
                    <activeaudioangle>false</activeaudioangle>
                    <clip id="clip-5"/>
                  </angle>
                  <angle>
                    <activevideoangle>false</activevideoangle>
                    <activeaudioangle>false</activeaudioangle>
                    <clip id="clip-6"/>
                  </angle>
                  <angle>
                    <activevideoangle>false</activevideoangle>
                    <activeaudioangle>false</activeaudioangle>
                    <clip id="clip-7"/>
                  </angle>
                  <angle>
                    <activevideoangle>false</activevideoangle>
                    <activeaudioangle>false</activeaudioangle>
                    <clip id="clip-8"/>
                  </angle>
                  <angle>
                    <activevideoangle>false</activevideoangle>
                    <activeaudioangle>false</activeaudioangle>
                    <clip id="clip-9"/>
                  </angle>
                  <masterclipid>clip-master</masterclipid>
                </multiclip>
              </clipitem>
              <clipitem id="cs-246">
                <duration>206</duration>
                <rate>
                  <ntsc>false</ntsc>
                  <timebase>25</timebase>
                </rate>
                <in>32559</in>
                <out>32764</out>
                <start>32559</start>
                <end>32764</end>
                <file id="src-2"/>
                <sourcetrack>
                  <mediatype>video</mediatype>
                  <trackindex>1</trackindex>
                </sourcetrack>
                <multiclip id="mcs-246">
                  <name>MCS-246</name>
                  <masterclipid>clip-master</masterclipid>
                  <collapsed>false</collapsed>
                  <angle>
                    <activevideoangle>false</activevideoangle>
                    <activeaudioangle>false</activeaudioangle>
                    <clip id="clip-1"/>
                  </angle>
                  <angle>
                    <activevideoangle>true</activevideoangle>
                    <activeaudioangle>true</activeaudioangle>
                    <clip id="clip-2"/>
                  </angle>
                  <angle>
                    <activevideoangle>false</activevideoangle>
                    <activeaudioangle>false</activeaudioangle>
                    <clip id="clip-3"/>
                  </angle>
                  <angle>
                    <activevideoangle>false</activevideoangle>
                    <activeaudioangle>false</activeaudioangle>
                    <clip id="clip-4"/>
                  </angle>
                  <angle>
                    <activevideoangle>false</activevideoangle>
                    <activeaudioangle>false</activeaudioangle>
                    <clip id="clip-5"/>
                  </angle>
                  <angle>
                    <activevideoangle>false</activevideoangle>
                    <activeaudioangle>false</activeaudioangle>
                    <clip id="clip-6"/>
                  </angle>
                  <angle>
                    <activevideoangle>false</activevideoangle>
                    <activeaudioangle>false</activeaudioangle>
                    <clip id="clip-7"/>
                  </angle>
                  <angle>
                    <activevideoangle>false</activevideoangle>
                    <activeaudioangle>false</activeaudioangle>
                    <clip id="clip-8"/>
                  </angle>
                  <angle>
                    <activevideoangle>false</activevideoangle>
                    <activeaudioangle>false</activeaudioangle>
                    <clip id="clip-9"/>
                  </angle>
                  <masterclipid>clip-master</masterclipid>
                </multiclip>
              </clipitem>
              <clipitem id="cs-247">
                <duration>339</duration>
                <rate>
                  <ntsc>false</ntsc>
                  <timebase>25</timebase>
                </rate>
                <in>32764</in>
                <out>33102</out>
                <start>32764</start>
                <end>33102</end>
                <file id="src-4"/>
                <sourcetrack>
                  <mediatype>video</mediatype>
                  <trackindex>1</trackindex>
                </sourcetrack>
                <multiclip id="mcs-247">
                  <name>MCS-247</name>
                  <masterclipid>clip-master</masterclipid>
                  <collapsed>false</collapsed>
                  <angle>
                    <activevideoangle>false</activevideoangle>
                    <activeaudioangle>false</activeaudioangle>
                    <clip id="clip-1"/>
                  </angle>
                  <angle>
                    <activevideoangle>false</activevideoangle>
                    <activeaudioangle>false</activeaudioangle>
                    <clip id="clip-2"/>
                  </angle>
                  <angle>
                    <activevideoangle>false</activevideoangle>
                    <activeaudioangle>false</activeaudioangle>
                    <clip id="clip-3"/>
                  </angle>
                  <angle>
                    <activevideoangle>true</activevideoangle>
                    <activeaudioangle>true</activeaudioangle>
                    <clip id="clip-4"/>
                  </angle>
                  <angle>
                    <activevideoangle>false</activevideoangle>
                    <activeaudioangle>false</activeaudioangle>
                    <clip id="clip-5"/>
                  </angle>
                  <angle>
                    <activevideoangle>false</activevideoangle>
                    <activeaudioangle>false</activeaudioangle>
                    <clip id="clip-6"/>
                  </angle>
                  <angle>
                    <activevideoangle>false</activevideoangle>
                    <activeaudioangle>false</activeaudioangle>
                    <clip id="clip-7"/>
                  </angle>
                  <angle>
                    <activevideoangle>false</activevideoangle>
                    <activeaudioangle>false</activeaudioangle>
                    <clip id="clip-8"/>
                  </angle>
                  <angle>
                    <activevideoangle>false</activevideoangle>
                    <activeaudioangle>false</activeaudioangle>
                    <clip id="clip-9"/>
                  </angle>
                  <masterclipid>clip-master</masterclipid>
                </multiclip>
              </clipitem>
              <clipitem id="cs-248">
                <duration>72</duration>
                <rate>
                  <ntsc>false</ntsc>
                  <timebase>25</timebase>
                </rate>
                <in>33102</in>
                <out>33173</out>
                <start>33102</start>
                <end>33173</end>
                <file id="src-2"/>
                <sourcetrack>
                  <mediatype>video</mediatype>
                  <trackindex>1</trackindex>
                </sourcetrack>
                <multiclip id="mcs-248">
                  <name>MCS-248</name>
                  <masterclipid>clip-master</masterclipid>
                  <collapsed>false</collapsed>
                  <angle>
                    <activevideoangle>false</activevideoangle>
                    <activeaudioangle>false</activeaudioangle>
                    <clip id="clip-1"/>
                  </angle>
                  <angle>
                    <activevideoangle>true</activevideoangle>
                    <activeaudioangle>true</activeaudioangle>
                    <clip id="clip-2"/>
                  </angle>
                  <angle>
                    <activevideoangle>false</activevideoangle>
                    <activeaudioangle>false</activeaudioangle>
                    <clip id="clip-3"/>
                  </angle>
                  <angle>
                    <activevideoangle>false</activevideoangle>
                    <activeaudioangle>false</activeaudioangle>
                    <clip id="clip-4"/>
                  </angle>
                  <angle>
                    <activevideoangle>false</activevideoangle>
                    <activeaudioangle>false</activeaudioangle>
                    <clip id="clip-5"/>
                  </angle>
                  <angle>
                    <activevideoangle>false</activevideoangle>
                    <activeaudioangle>false</activeaudioangle>
                    <clip id="clip-6"/>
                  </angle>
                  <angle>
                    <activevideoangle>false</activevideoangle>
                    <activeaudioangle>false</activeaudioangle>
                    <clip id="clip-7"/>
                  </angle>
                  <angle>
                    <activevideoangle>false</activevideoangle>
                    <activeaudioangle>false</activeaudioangle>
                    <clip id="clip-8"/>
                  </angle>
                  <angle>
                    <activevideoangle>false</activevideoangle>
                    <activeaudioangle>false</activeaudioangle>
                    <clip id="clip-9"/>
                  </angle>
                  <masterclipid>clip-master</masterclipid>
                </multiclip>
              </clipitem>
              <clipitem id="cs-249">
                <duration>193</duration>
                <rate>
                  <ntsc>false</ntsc>
                  <timebase>25</timebase>
                </rate>
                <in>33173</in>
                <out>33365</out>
                <start>33173</start>
                <end>33365</end>
                <file id="src-5"/>
                <sourcetrack>
                  <mediatype>video</mediatype>
                  <trackindex>1</trackindex>
                </sourcetrack>
                <multiclip id="mcs-249">
                  <name>MCS-249</name>
                  <masterclipid>clip-master</masterclipid>
                  <collapsed>false</collapsed>
                  <angle>
                    <activevideoangle>false</activevideoangle>
                    <activeaudioangle>false</activeaudioangle>
                    <clip id="clip-1"/>
                  </angle>
                  <angle>
                    <activevideoangle>false</activevideoangle>
                    <activeaudioangle>false</activeaudioangle>
                    <clip id="clip-2"/>
                  </angle>
                  <angle>
                    <activevideoangle>false</activevideoangle>
                    <activeaudioangle>false</activeaudioangle>
                    <clip id="clip-3"/>
                  </angle>
                  <angle>
                    <activevideoangle>false</activevideoangle>
                    <activeaudioangle>false</activeaudioangle>
                    <clip id="clip-4"/>
                  </angle>
                  <angle>
                    <activevideoangle>true</activevideoangle>
                    <activeaudioangle>true</activeaudioangle>
                    <clip id="clip-5"/>
                  </angle>
                  <angle>
                    <activevideoangle>false</activevideoangle>
                    <activeaudioangle>false</activeaudioangle>
                    <clip id="clip-6"/>
                  </angle>
                  <angle>
                    <activevideoangle>false</activevideoangle>
                    <activeaudioangle>false</activeaudioangle>
                    <clip id="clip-7"/>
                  </angle>
                  <angle>
                    <activevideoangle>false</activevideoangle>
                    <activeaudioangle>false</activeaudioangle>
                    <clip id="clip-8"/>
                  </angle>
                  <angle>
                    <activevideoangle>false</activevideoangle>
                    <activeaudioangle>false</activeaudioangle>
                    <clip id="clip-9"/>
                  </angle>
                  <masterclipid>clip-master</masterclipid>
                </multiclip>
              </clipitem>
              <clipitem id="cs-250">
                <duration>120</duration>
                <rate>
                  <ntsc>false</ntsc>
                  <timebase>25</timebase>
                </rate>
                <in>33365</in>
                <out>33484</out>
                <start>33365</start>
                <end>33484</end>
                <file id="src-6"/>
                <sourcetrack>
                  <mediatype>video</mediatype>
                  <trackindex>1</trackindex>
                </sourcetrack>
                <multiclip id="mcs-250">
                  <name>MCS-250</name>
                  <masterclipid>clip-master</masterclipid>
                  <collapsed>false</collapsed>
                  <angle>
                    <activevideoangle>false</activevideoangle>
                    <activeaudioangle>false</activeaudioangle>
                    <clip id="clip-1"/>
                  </angle>
                  <angle>
                    <activevideoangle>false</activevideoangle>
                    <activeaudioangle>false</activeaudioangle>
                    <clip id="clip-2"/>
                  </angle>
                  <angle>
                    <activevideoangle>false</activevideoangle>
                    <activeaudioangle>false</activeaudioangle>
                    <clip id="clip-3"/>
                  </angle>
                  <angle>
                    <activevideoangle>false</activevideoangle>
                    <activeaudioangle>false</activeaudioangle>
                    <clip id="clip-4"/>
                  </angle>
                  <angle>
                    <activevideoangle>false</activevideoangle>
                    <activeaudioangle>false</activeaudioangle>
                    <clip id="clip-5"/>
                  </angle>
                  <angle>
                    <activevideoangle>true</activevideoangle>
                    <activeaudioangle>true</activeaudioangle>
                    <clip id="clip-6"/>
                  </angle>
                  <angle>
                    <activevideoangle>false</activevideoangle>
                    <activeaudioangle>false</activeaudioangle>
                    <clip id="clip-7"/>
                  </angle>
                  <angle>
                    <activevideoangle>false</activevideoangle>
                    <activeaudioangle>false</activeaudioangle>
                    <clip id="clip-8"/>
                  </angle>
                  <angle>
                    <activevideoangle>false</activevideoangle>
                    <activeaudioangle>false</activeaudioangle>
                    <clip id="clip-9"/>
                  </angle>
                  <masterclipid>clip-master</masterclipid>
                </multiclip>
              </clipitem>
              <clipitem id="cs-251">
                <duration>122</duration>
                <rate>
                  <ntsc>false</ntsc>
                  <timebase>25</timebase>
                </rate>
                <in>33484</in>
                <out>33605</out>
                <start>33484</start>
                <end>33605</end>
                <file id="src-4"/>
                <sourcetrack>
                  <mediatype>video</mediatype>
                  <trackindex>1</trackindex>
                </sourcetrack>
                <multiclip id="mcs-251">
                  <name>MCS-251</name>
                  <masterclipid>clip-master</masterclipid>
                  <collapsed>false</collapsed>
                  <angle>
                    <activevideoangle>false</activevideoangle>
                    <activeaudioangle>false</activeaudioangle>
                    <clip id="clip-1"/>
                  </angle>
                  <angle>
                    <activevideoangle>false</activevideoangle>
                    <activeaudioangle>false</activeaudioangle>
                    <clip id="clip-2"/>
                  </angle>
                  <angle>
                    <activevideoangle>false</activevideoangle>
                    <activeaudioangle>false</activeaudioangle>
                    <clip id="clip-3"/>
                  </angle>
                  <angle>
                    <activevideoangle>true</activevideoangle>
                    <activeaudioangle>true</activeaudioangle>
                    <clip id="clip-4"/>
                  </angle>
                  <angle>
                    <activevideoangle>false</activevideoangle>
                    <activeaudioangle>false</activeaudioangle>
                    <clip id="clip-5"/>
                  </angle>
                  <angle>
                    <activevideoangle>false</activevideoangle>
                    <activeaudioangle>false</activeaudioangle>
                    <clip id="clip-6"/>
                  </angle>
                  <angle>
                    <activevideoangle>false</activevideoangle>
                    <activeaudioangle>false</activeaudioangle>
                    <clip id="clip-7"/>
                  </angle>
                  <angle>
                    <activevideoangle>false</activevideoangle>
                    <activeaudioangle>false</activeaudioangle>
                    <clip id="clip-8"/>
                  </angle>
                  <angle>
                    <activevideoangle>false</activevideoangle>
                    <activeaudioangle>false</activeaudioangle>
                    <clip id="clip-9"/>
                  </angle>
                  <masterclipid>clip-master</masterclipid>
                </multiclip>
              </clipitem>
              <clipitem id="cs-252">
                <duration>163</duration>
                <rate>
                  <ntsc>false</ntsc>
                  <timebase>25</timebase>
                </rate>
                <in>33605</in>
                <out>33767</out>
                <start>33605</start>
                <end>33767</end>
                <file id="src-2"/>
                <sourcetrack>
                  <mediatype>video</mediatype>
                  <trackindex>1</trackindex>
                </sourcetrack>
                <multiclip id="mcs-252">
                  <name>MCS-252</name>
                  <masterclipid>clip-master</masterclipid>
                  <collapsed>false</collapsed>
                  <angle>
                    <activevideoangle>false</activevideoangle>
                    <activeaudioangle>false</activeaudioangle>
                    <clip id="clip-1"/>
                  </angle>
                  <angle>
                    <activevideoangle>true</activevideoangle>
                    <activeaudioangle>true</activeaudioangle>
                    <clip id="clip-2"/>
                  </angle>
                  <angle>
                    <activevideoangle>false</activevideoangle>
                    <activeaudioangle>false</activeaudioangle>
                    <clip id="clip-3"/>
                  </angle>
                  <angle>
                    <activevideoangle>false</activevideoangle>
                    <activeaudioangle>false</activeaudioangle>
                    <clip id="clip-4"/>
                  </angle>
                  <angle>
                    <activevideoangle>false</activevideoangle>
                    <activeaudioangle>false</activeaudioangle>
                    <clip id="clip-5"/>
                  </angle>
                  <angle>
                    <activevideoangle>false</activevideoangle>
                    <activeaudioangle>false</activeaudioangle>
                    <clip id="clip-6"/>
                  </angle>
                  <angle>
                    <activevideoangle>false</activevideoangle>
                    <activeaudioangle>false</activeaudioangle>
                    <clip id="clip-7"/>
                  </angle>
                  <angle>
                    <activevideoangle>false</activevideoangle>
                    <activeaudioangle>false</activeaudioangle>
                    <clip id="clip-8"/>
                  </angle>
                  <angle>
                    <activevideoangle>false</activevideoangle>
                    <activeaudioangle>false</activeaudioangle>
                    <clip id="clip-9"/>
                  </angle>
                  <masterclipid>clip-master</masterclipid>
                </multiclip>
              </clipitem>
              <clipitem id="cs-253">
                <duration>555</duration>
                <rate>
                  <ntsc>false</ntsc>
                  <timebase>25</timebase>
                </rate>
                <in>33767</in>
                <out>34321</out>
                <start>33767</start>
                <end>34321</end>
                <file id="src-4"/>
                <sourcetrack>
                  <mediatype>video</mediatype>
                  <trackindex>1</trackindex>
                </sourcetrack>
                <multiclip id="mcs-253">
                  <name>MCS-253</name>
                  <masterclipid>clip-master</masterclipid>
                  <collapsed>false</collapsed>
                  <angle>
                    <activevideoangle>false</activevideoangle>
                    <activeaudioangle>false</activeaudioangle>
                    <clip id="clip-1"/>
                  </angle>
                  <angle>
                    <activevideoangle>false</activevideoangle>
                    <activeaudioangle>false</activeaudioangle>
                    <clip id="clip-2"/>
                  </angle>
                  <angle>
                    <activevideoangle>false</activevideoangle>
                    <activeaudioangle>false</activeaudioangle>
                    <clip id="clip-3"/>
                  </angle>
                  <angle>
                    <activevideoangle>true</activevideoangle>
                    <activeaudioangle>true</activeaudioangle>
                    <clip id="clip-4"/>
                  </angle>
                  <angle>
                    <activevideoangle>false</activevideoangle>
                    <activeaudioangle>false</activeaudioangle>
                    <clip id="clip-5"/>
                  </angle>
                  <angle>
                    <activevideoangle>false</activevideoangle>
                    <activeaudioangle>false</activeaudioangle>
                    <clip id="clip-6"/>
                  </angle>
                  <angle>
                    <activevideoangle>false</activevideoangle>
                    <activeaudioangle>false</activeaudioangle>
                    <clip id="clip-7"/>
                  </angle>
                  <angle>
                    <activevideoangle>false</activevideoangle>
                    <activeaudioangle>false</activeaudioangle>
                    <clip id="clip-8"/>
                  </angle>
                  <angle>
                    <activevideoangle>false</activevideoangle>
                    <activeaudioangle>false</activeaudioangle>
                    <clip id="clip-9"/>
                  </angle>
                  <masterclipid>clip-master</masterclipid>
                </multiclip>
              </clipitem>
              <clipitem id="cs-254">
                <duration>272</duration>
                <rate>
                  <ntsc>false</ntsc>
                  <timebase>25</timebase>
                </rate>
                <in>34321</in>
                <out>34592</out>
                <start>34321</start>
                <end>34592</end>
                <file id="src-6"/>
                <sourcetrack>
                  <mediatype>video</mediatype>
                  <trackindex>1</trackindex>
                </sourcetrack>
                <multiclip id="mcs-254">
                  <name>MCS-254</name>
                  <masterclipid>clip-master</masterclipid>
                  <collapsed>false</collapsed>
                  <angle>
                    <activevideoangle>false</activevideoangle>
                    <activeaudioangle>false</activeaudioangle>
                    <clip id="clip-1"/>
                  </angle>
                  <angle>
                    <activevideoangle>false</activevideoangle>
                    <activeaudioangle>false</activeaudioangle>
                    <clip id="clip-2"/>
                  </angle>
                  <angle>
                    <activevideoangle>false</activevideoangle>
                    <activeaudioangle>false</activeaudioangle>
                    <clip id="clip-3"/>
                  </angle>
                  <angle>
                    <activevideoangle>false</activevideoangle>
                    <activeaudioangle>false</activeaudioangle>
                    <clip id="clip-4"/>
                  </angle>
                  <angle>
                    <activevideoangle>false</activevideoangle>
                    <activeaudioangle>false</activeaudioangle>
                    <clip id="clip-5"/>
                  </angle>
                  <angle>
                    <activevideoangle>true</activevideoangle>
                    <activeaudioangle>true</activeaudioangle>
                    <clip id="clip-6"/>
                  </angle>
                  <angle>
                    <activevideoangle>false</activevideoangle>
                    <activeaudioangle>false</activeaudioangle>
                    <clip id="clip-7"/>
                  </angle>
                  <angle>
                    <activevideoangle>false</activevideoangle>
                    <activeaudioangle>false</activeaudioangle>
                    <clip id="clip-8"/>
                  </angle>
                  <angle>
                    <activevideoangle>false</activevideoangle>
                    <activeaudioangle>false</activeaudioangle>
                    <clip id="clip-9"/>
                  </angle>
                  <masterclipid>clip-master</masterclipid>
                </multiclip>
              </clipitem>
              <clipitem id="cs-255">
                <duration>381</duration>
                <rate>
                  <ntsc>false</ntsc>
                  <timebase>25</timebase>
                </rate>
                <in>34592</in>
                <out>34972</out>
                <start>34592</start>
                <end>34972</end>
                <file id="src-4"/>
                <sourcetrack>
                  <mediatype>video</mediatype>
                  <trackindex>1</trackindex>
                </sourcetrack>
                <multiclip id="mcs-255">
                  <name>MCS-255</name>
                  <masterclipid>clip-master</masterclipid>
                  <collapsed>false</collapsed>
                  <angle>
                    <activevideoangle>false</activevideoangle>
                    <activeaudioangle>false</activeaudioangle>
                    <clip id="clip-1"/>
                  </angle>
                  <angle>
                    <activevideoangle>false</activevideoangle>
                    <activeaudioangle>false</activeaudioangle>
                    <clip id="clip-2"/>
                  </angle>
                  <angle>
                    <activevideoangle>false</activevideoangle>
                    <activeaudioangle>false</activeaudioangle>
                    <clip id="clip-3"/>
                  </angle>
                  <angle>
                    <activevideoangle>true</activevideoangle>
                    <activeaudioangle>true</activeaudioangle>
                    <clip id="clip-4"/>
                  </angle>
                  <angle>
                    <activevideoangle>false</activevideoangle>
                    <activeaudioangle>false</activeaudioangle>
                    <clip id="clip-5"/>
                  </angle>
                  <angle>
                    <activevideoangle>false</activevideoangle>
                    <activeaudioangle>false</activeaudioangle>
                    <clip id="clip-6"/>
                  </angle>
                  <angle>
                    <activevideoangle>false</activevideoangle>
                    <activeaudioangle>false</activeaudioangle>
                    <clip id="clip-7"/>
                  </angle>
                  <angle>
                    <activevideoangle>false</activevideoangle>
                    <activeaudioangle>false</activeaudioangle>
                    <clip id="clip-8"/>
                  </angle>
                  <angle>
                    <activevideoangle>false</activevideoangle>
                    <activeaudioangle>false</activeaudioangle>
                    <clip id="clip-9"/>
                  </angle>
                  <masterclipid>clip-master</masterclipid>
                </multiclip>
              </clipitem>
              <clipitem id="cs-256">
                <duration>143</duration>
                <rate>
                  <ntsc>false</ntsc>
                  <timebase>25</timebase>
                </rate>
                <in>34972</in>
                <out>35114</out>
                <start>34972</start>
                <end>35114</end>
                <file id="src-2"/>
                <sourcetrack>
                  <mediatype>video</mediatype>
                  <trackindex>1</trackindex>
                </sourcetrack>
                <multiclip id="mcs-256">
                  <name>MCS-256</name>
                  <masterclipid>clip-master</masterclipid>
                  <collapsed>false</collapsed>
                  <angle>
                    <activevideoangle>false</activevideoangle>
                    <activeaudioangle>false</activeaudioangle>
                    <clip id="clip-1"/>
                  </angle>
                  <angle>
                    <activevideoangle>true</activevideoangle>
                    <activeaudioangle>true</activeaudioangle>
                    <clip id="clip-2"/>
                  </angle>
                  <angle>
                    <activevideoangle>false</activevideoangle>
                    <activeaudioangle>false</activeaudioangle>
                    <clip id="clip-3"/>
                  </angle>
                  <angle>
                    <activevideoangle>false</activevideoangle>
                    <activeaudioangle>false</activeaudioangle>
                    <clip id="clip-4"/>
                  </angle>
                  <angle>
                    <activevideoangle>false</activevideoangle>
                    <activeaudioangle>false</activeaudioangle>
                    <clip id="clip-5"/>
                  </angle>
                  <angle>
                    <activevideoangle>false</activevideoangle>
                    <activeaudioangle>false</activeaudioangle>
                    <clip id="clip-6"/>
                  </angle>
                  <angle>
                    <activevideoangle>false</activevideoangle>
                    <activeaudioangle>false</activeaudioangle>
                    <clip id="clip-7"/>
                  </angle>
                  <angle>
                    <activevideoangle>false</activevideoangle>
                    <activeaudioangle>false</activeaudioangle>
                    <clip id="clip-8"/>
                  </angle>
                  <angle>
                    <activevideoangle>false</activevideoangle>
                    <activeaudioangle>false</activeaudioangle>
                    <clip id="clip-9"/>
                  </angle>
                  <masterclipid>clip-master</masterclipid>
                </multiclip>
              </clipitem>
              <clipitem id="cs-257">
                <duration>36</duration>
                <rate>
                  <ntsc>false</ntsc>
                  <timebase>25</timebase>
                </rate>
                <in>35114</in>
                <out>35149</out>
                <start>35114</start>
                <end>35149</end>
                <file id="src-4"/>
                <sourcetrack>
                  <mediatype>video</mediatype>
                  <trackindex>1</trackindex>
                </sourcetrack>
                <multiclip id="mcs-257">
                  <name>MCS-257</name>
                  <masterclipid>clip-master</masterclipid>
                  <collapsed>false</collapsed>
                  <angle>
                    <activevideoangle>false</activevideoangle>
                    <activeaudioangle>false</activeaudioangle>
                    <clip id="clip-1"/>
                  </angle>
                  <angle>
                    <activevideoangle>false</activevideoangle>
                    <activeaudioangle>false</activeaudioangle>
                    <clip id="clip-2"/>
                  </angle>
                  <angle>
                    <activevideoangle>false</activevideoangle>
                    <activeaudioangle>false</activeaudioangle>
                    <clip id="clip-3"/>
                  </angle>
                  <angle>
                    <activevideoangle>true</activevideoangle>
                    <activeaudioangle>true</activeaudioangle>
                    <clip id="clip-4"/>
                  </angle>
                  <angle>
                    <activevideoangle>false</activevideoangle>
                    <activeaudioangle>false</activeaudioangle>
                    <clip id="clip-5"/>
                  </angle>
                  <angle>
                    <activevideoangle>false</activevideoangle>
                    <activeaudioangle>false</activeaudioangle>
                    <clip id="clip-6"/>
                  </angle>
                  <angle>
                    <activevideoangle>false</activevideoangle>
                    <activeaudioangle>false</activeaudioangle>
                    <clip id="clip-7"/>
                  </angle>
                  <angle>
                    <activevideoangle>false</activevideoangle>
                    <activeaudioangle>false</activeaudioangle>
                    <clip id="clip-8"/>
                  </angle>
                  <angle>
                    <activevideoangle>false</activevideoangle>
                    <activeaudioangle>false</activeaudioangle>
                    <clip id="clip-9"/>
                  </angle>
                  <masterclipid>clip-master</masterclipid>
                </multiclip>
              </clipitem>
              <clipitem id="cs-258">
                <duration>33</duration>
                <rate>
                  <ntsc>false</ntsc>
                  <timebase>25</timebase>
                </rate>
                <in>35149</in>
                <out>35181</out>
                <start>35149</start>
                <end>35181</end>
                <file id="src-6"/>
                <sourcetrack>
                  <mediatype>video</mediatype>
                  <trackindex>1</trackindex>
                </sourcetrack>
                <multiclip id="mcs-258">
                  <name>MCS-258</name>
                  <masterclipid>clip-master</masterclipid>
                  <collapsed>false</collapsed>
                  <angle>
                    <activevideoangle>false</activevideoangle>
                    <activeaudioangle>false</activeaudioangle>
                    <clip id="clip-1"/>
                  </angle>
                  <angle>
                    <activevideoangle>false</activevideoangle>
                    <activeaudioangle>false</activeaudioangle>
                    <clip id="clip-2"/>
                  </angle>
                  <angle>
                    <activevideoangle>false</activevideoangle>
                    <activeaudioangle>false</activeaudioangle>
                    <clip id="clip-3"/>
                  </angle>
                  <angle>
                    <activevideoangle>false</activevideoangle>
                    <activeaudioangle>false</activeaudioangle>
                    <clip id="clip-4"/>
                  </angle>
                  <angle>
                    <activevideoangle>false</activevideoangle>
                    <activeaudioangle>false</activeaudioangle>
                    <clip id="clip-5"/>
                  </angle>
                  <angle>
                    <activevideoangle>true</activevideoangle>
                    <activeaudioangle>true</activeaudioangle>
                    <clip id="clip-6"/>
                  </angle>
                  <angle>
                    <activevideoangle>false</activevideoangle>
                    <activeaudioangle>false</activeaudioangle>
                    <clip id="clip-7"/>
                  </angle>
                  <angle>
                    <activevideoangle>false</activevideoangle>
                    <activeaudioangle>false</activeaudioangle>
                    <clip id="clip-8"/>
                  </angle>
                  <angle>
                    <activevideoangle>false</activevideoangle>
                    <activeaudioangle>false</activeaudioangle>
                    <clip id="clip-9"/>
                  </angle>
                  <masterclipid>clip-master</masterclipid>
                </multiclip>
              </clipitem>
              <clipitem id="cs-259">
                <duration>253</duration>
                <rate>
                  <ntsc>false</ntsc>
                  <timebase>25</timebase>
                </rate>
                <in>35181</in>
                <out>35433</out>
                <start>35181</start>
                <end>35433</end>
                <file id="src-3"/>
                <sourcetrack>
                  <mediatype>video</mediatype>
                  <trackindex>1</trackindex>
                </sourcetrack>
                <multiclip id="mcs-259">
                  <name>MCS-259</name>
                  <masterclipid>clip-master</masterclipid>
                  <collapsed>false</collapsed>
                  <angle>
                    <activevideoangle>false</activevideoangle>
                    <activeaudioangle>false</activeaudioangle>
                    <clip id="clip-1"/>
                  </angle>
                  <angle>
                    <activevideoangle>false</activevideoangle>
                    <activeaudioangle>false</activeaudioangle>
                    <clip id="clip-2"/>
                  </angle>
                  <angle>
                    <activevideoangle>true</activevideoangle>
                    <activeaudioangle>true</activeaudioangle>
                    <clip id="clip-3"/>
                  </angle>
                  <angle>
                    <activevideoangle>false</activevideoangle>
                    <activeaudioangle>false</activeaudioangle>
                    <clip id="clip-4"/>
                  </angle>
                  <angle>
                    <activevideoangle>false</activevideoangle>
                    <activeaudioangle>false</activeaudioangle>
                    <clip id="clip-5"/>
                  </angle>
                  <angle>
                    <activevideoangle>false</activevideoangle>
                    <activeaudioangle>false</activeaudioangle>
                    <clip id="clip-6"/>
                  </angle>
                  <angle>
                    <activevideoangle>false</activevideoangle>
                    <activeaudioangle>false</activeaudioangle>
                    <clip id="clip-7"/>
                  </angle>
                  <angle>
                    <activevideoangle>false</activevideoangle>
                    <activeaudioangle>false</activeaudioangle>
                    <clip id="clip-8"/>
                  </angle>
                  <angle>
                    <activevideoangle>false</activevideoangle>
                    <activeaudioangle>false</activeaudioangle>
                    <clip id="clip-9"/>
                  </angle>
                  <masterclipid>clip-master</masterclipid>
                </multiclip>
              </clipitem>
              <clipitem id="cs-260">
                <duration>39</duration>
                <rate>
                  <ntsc>false</ntsc>
                  <timebase>25</timebase>
                </rate>
                <in>35433</in>
                <out>35471</out>
                <start>35433</start>
                <end>35471</end>
                <file id="src-5"/>
                <sourcetrack>
                  <mediatype>video</mediatype>
                  <trackindex>1</trackindex>
                </sourcetrack>
                <multiclip id="mcs-260">
                  <name>MCS-260</name>
                  <masterclipid>clip-master</masterclipid>
                  <collapsed>false</collapsed>
                  <angle>
                    <activevideoangle>false</activevideoangle>
                    <activeaudioangle>false</activeaudioangle>
                    <clip id="clip-1"/>
                  </angle>
                  <angle>
                    <activevideoangle>false</activevideoangle>
                    <activeaudioangle>false</activeaudioangle>
                    <clip id="clip-2"/>
                  </angle>
                  <angle>
                    <activevideoangle>false</activevideoangle>
                    <activeaudioangle>false</activeaudioangle>
                    <clip id="clip-3"/>
                  </angle>
                  <angle>
                    <activevideoangle>false</activevideoangle>
                    <activeaudioangle>false</activeaudioangle>
                    <clip id="clip-4"/>
                  </angle>
                  <angle>
                    <activevideoangle>true</activevideoangle>
                    <activeaudioangle>true</activeaudioangle>
                    <clip id="clip-5"/>
                  </angle>
                  <angle>
                    <activevideoangle>false</activevideoangle>
                    <activeaudioangle>false</activeaudioangle>
                    <clip id="clip-6"/>
                  </angle>
                  <angle>
                    <activevideoangle>false</activevideoangle>
                    <activeaudioangle>false</activeaudioangle>
                    <clip id="clip-7"/>
                  </angle>
                  <angle>
                    <activevideoangle>false</activevideoangle>
                    <activeaudioangle>false</activeaudioangle>
                    <clip id="clip-8"/>
                  </angle>
                  <angle>
                    <activevideoangle>false</activevideoangle>
                    <activeaudioangle>false</activeaudioangle>
                    <clip id="clip-9"/>
                  </angle>
                  <masterclipid>clip-master</masterclipid>
                </multiclip>
              </clipitem>
              <clipitem id="cs-261">
                <duration>101</duration>
                <rate>
                  <ntsc>false</ntsc>
                  <timebase>25</timebase>
                </rate>
                <in>35471</in>
                <out>35571</out>
                <start>35471</start>
                <end>35571</end>
                <file id="src-4"/>
                <sourcetrack>
                  <mediatype>video</mediatype>
                  <trackindex>1</trackindex>
                </sourcetrack>
                <multiclip id="mcs-261">
                  <name>MCS-261</name>
                  <masterclipid>clip-master</masterclipid>
                  <collapsed>false</collapsed>
                  <angle>
                    <activevideoangle>false</activevideoangle>
                    <activeaudioangle>false</activeaudioangle>
                    <clip id="clip-1"/>
                  </angle>
                  <angle>
                    <activevideoangle>false</activevideoangle>
                    <activeaudioangle>false</activeaudioangle>
                    <clip id="clip-2"/>
                  </angle>
                  <angle>
                    <activevideoangle>false</activevideoangle>
                    <activeaudioangle>false</activeaudioangle>
                    <clip id="clip-3"/>
                  </angle>
                  <angle>
                    <activevideoangle>true</activevideoangle>
                    <activeaudioangle>true</activeaudioangle>
                    <clip id="clip-4"/>
                  </angle>
                  <angle>
                    <activevideoangle>false</activevideoangle>
                    <activeaudioangle>false</activeaudioangle>
                    <clip id="clip-5"/>
                  </angle>
                  <angle>
                    <activevideoangle>false</activevideoangle>
                    <activeaudioangle>false</activeaudioangle>
                    <clip id="clip-6"/>
                  </angle>
                  <angle>
                    <activevideoangle>false</activevideoangle>
                    <activeaudioangle>false</activeaudioangle>
                    <clip id="clip-7"/>
                  </angle>
                  <angle>
                    <activevideoangle>false</activevideoangle>
                    <activeaudioangle>false</activeaudioangle>
                    <clip id="clip-8"/>
                  </angle>
                  <angle>
                    <activevideoangle>false</activevideoangle>
                    <activeaudioangle>false</activeaudioangle>
                    <clip id="clip-9"/>
                  </angle>
                  <masterclipid>clip-master</masterclipid>
                </multiclip>
              </clipitem>
              <clipitem id="cs-262">
                <duration>133</duration>
                <rate>
                  <ntsc>false</ntsc>
                  <timebase>25</timebase>
                </rate>
                <in>35571</in>
                <out>35703</out>
                <start>35571</start>
                <end>35703</end>
                <file id="src-2"/>
                <sourcetrack>
                  <mediatype>video</mediatype>
                  <trackindex>1</trackindex>
                </sourcetrack>
                <multiclip id="mcs-262">
                  <name>MCS-262</name>
                  <masterclipid>clip-master</masterclipid>
                  <collapsed>false</collapsed>
                  <angle>
                    <activevideoangle>false</activevideoangle>
                    <activeaudioangle>false</activeaudioangle>
                    <clip id="clip-1"/>
                  </angle>
                  <angle>
                    <activevideoangle>true</activevideoangle>
                    <activeaudioangle>true</activeaudioangle>
                    <clip id="clip-2"/>
                  </angle>
                  <angle>
                    <activevideoangle>false</activevideoangle>
                    <activeaudioangle>false</activeaudioangle>
                    <clip id="clip-3"/>
                  </angle>
                  <angle>
                    <activevideoangle>false</activevideoangle>
                    <activeaudioangle>false</activeaudioangle>
                    <clip id="clip-4"/>
                  </angle>
                  <angle>
                    <activevideoangle>false</activevideoangle>
                    <activeaudioangle>false</activeaudioangle>
                    <clip id="clip-5"/>
                  </angle>
                  <angle>
                    <activevideoangle>false</activevideoangle>
                    <activeaudioangle>false</activeaudioangle>
                    <clip id="clip-6"/>
                  </angle>
                  <angle>
                    <activevideoangle>false</activevideoangle>
                    <activeaudioangle>false</activeaudioangle>
                    <clip id="clip-7"/>
                  </angle>
                  <angle>
                    <activevideoangle>false</activevideoangle>
                    <activeaudioangle>false</activeaudioangle>
                    <clip id="clip-8"/>
                  </angle>
                  <angle>
                    <activevideoangle>false</activevideoangle>
                    <activeaudioangle>false</activeaudioangle>
                    <clip id="clip-9"/>
                  </angle>
                  <masterclipid>clip-master</masterclipid>
                </multiclip>
              </clipitem>
              <clipitem id="cs-263">
                <duration>46</duration>
                <rate>
                  <ntsc>false</ntsc>
                  <timebase>25</timebase>
                </rate>
                <in>35703</in>
                <out>35748</out>
                <start>35703</start>
                <end>35748</end>
                <file id="src-3"/>
                <sourcetrack>
                  <mediatype>video</mediatype>
                  <trackindex>1</trackindex>
                </sourcetrack>
                <multiclip id="mcs-263">
                  <name>MCS-263</name>
                  <masterclipid>clip-master</masterclipid>
                  <collapsed>false</collapsed>
                  <angle>
                    <activevideoangle>false</activevideoangle>
                    <activeaudioangle>false</activeaudioangle>
                    <clip id="clip-1"/>
                  </angle>
                  <angle>
                    <activevideoangle>false</activevideoangle>
                    <activeaudioangle>false</activeaudioangle>
                    <clip id="clip-2"/>
                  </angle>
                  <angle>
                    <activevideoangle>true</activevideoangle>
                    <activeaudioangle>true</activeaudioangle>
                    <clip id="clip-3"/>
                  </angle>
                  <angle>
                    <activevideoangle>false</activevideoangle>
                    <activeaudioangle>false</activeaudioangle>
                    <clip id="clip-4"/>
                  </angle>
                  <angle>
                    <activevideoangle>false</activevideoangle>
                    <activeaudioangle>false</activeaudioangle>
                    <clip id="clip-5"/>
                  </angle>
                  <angle>
                    <activevideoangle>false</activevideoangle>
                    <activeaudioangle>false</activeaudioangle>
                    <clip id="clip-6"/>
                  </angle>
                  <angle>
                    <activevideoangle>false</activevideoangle>
                    <activeaudioangle>false</activeaudioangle>
                    <clip id="clip-7"/>
                  </angle>
                  <angle>
                    <activevideoangle>false</activevideoangle>
                    <activeaudioangle>false</activeaudioangle>
                    <clip id="clip-8"/>
                  </angle>
                  <angle>
                    <activevideoangle>false</activevideoangle>
                    <activeaudioangle>false</activeaudioangle>
                    <clip id="clip-9"/>
                  </angle>
                  <masterclipid>clip-master</masterclipid>
                </multiclip>
              </clipitem>
              <clipitem id="cs-264">
                <duration>322</duration>
                <rate>
                  <ntsc>false</ntsc>
                  <timebase>25</timebase>
                </rate>
                <in>35748</in>
                <out>36069</out>
                <start>35748</start>
                <end>36069</end>
                <file id="src-1"/>
                <sourcetrack>
                  <mediatype>video</mediatype>
                  <trackindex>1</trackindex>
                </sourcetrack>
                <multiclip id="mcs-264">
                  <name>MCS-264</name>
                  <masterclipid>clip-master</masterclipid>
                  <collapsed>false</collapsed>
                  <angle>
                    <activevideoangle>true</activevideoangle>
                    <activeaudioangle>true</activeaudioangle>
                    <clip id="clip-1"/>
                  </angle>
                  <angle>
                    <activevideoangle>false</activevideoangle>
                    <activeaudioangle>false</activeaudioangle>
                    <clip id="clip-2"/>
                  </angle>
                  <angle>
                    <activevideoangle>false</activevideoangle>
                    <activeaudioangle>false</activeaudioangle>
                    <clip id="clip-3"/>
                  </angle>
                  <angle>
                    <activevideoangle>false</activevideoangle>
                    <activeaudioangle>false</activeaudioangle>
                    <clip id="clip-4"/>
                  </angle>
                  <angle>
                    <activevideoangle>false</activevideoangle>
                    <activeaudioangle>false</activeaudioangle>
                    <clip id="clip-5"/>
                  </angle>
                  <angle>
                    <activevideoangle>false</activevideoangle>
                    <activeaudioangle>false</activeaudioangle>
                    <clip id="clip-6"/>
                  </angle>
                  <angle>
                    <activevideoangle>false</activevideoangle>
                    <activeaudioangle>false</activeaudioangle>
                    <clip id="clip-7"/>
                  </angle>
                  <angle>
                    <activevideoangle>false</activevideoangle>
                    <activeaudioangle>false</activeaudioangle>
                    <clip id="clip-8"/>
                  </angle>
                  <angle>
                    <activevideoangle>false</activevideoangle>
                    <activeaudioangle>false</activeaudioangle>
                    <clip id="clip-9"/>
                  </angle>
                  <masterclipid>clip-master</masterclipid>
                </multiclip>
              </clipitem>
              <clipitem id="cs-265">
                <duration>119</duration>
                <rate>
                  <ntsc>false</ntsc>
                  <timebase>25</timebase>
                </rate>
                <in>36069</in>
                <out>36187</out>
                <start>36069</start>
                <end>36187</end>
                <file id="src-2"/>
                <sourcetrack>
                  <mediatype>video</mediatype>
                  <trackindex>1</trackindex>
                </sourcetrack>
                <multiclip id="mcs-265">
                  <name>MCS-265</name>
                  <masterclipid>clip-master</masterclipid>
                  <collapsed>false</collapsed>
                  <angle>
                    <activevideoangle>false</activevideoangle>
                    <activeaudioangle>false</activeaudioangle>
                    <clip id="clip-1"/>
                  </angle>
                  <angle>
                    <activevideoangle>true</activevideoangle>
                    <activeaudioangle>true</activeaudioangle>
                    <clip id="clip-2"/>
                  </angle>
                  <angle>
                    <activevideoangle>false</activevideoangle>
                    <activeaudioangle>false</activeaudioangle>
                    <clip id="clip-3"/>
                  </angle>
                  <angle>
                    <activevideoangle>false</activevideoangle>
                    <activeaudioangle>false</activeaudioangle>
                    <clip id="clip-4"/>
                  </angle>
                  <angle>
                    <activevideoangle>false</activevideoangle>
                    <activeaudioangle>false</activeaudioangle>
                    <clip id="clip-5"/>
                  </angle>
                  <angle>
                    <activevideoangle>false</activevideoangle>
                    <activeaudioangle>false</activeaudioangle>
                    <clip id="clip-6"/>
                  </angle>
                  <angle>
                    <activevideoangle>false</activevideoangle>
                    <activeaudioangle>false</activeaudioangle>
                    <clip id="clip-7"/>
                  </angle>
                  <angle>
                    <activevideoangle>false</activevideoangle>
                    <activeaudioangle>false</activeaudioangle>
                    <clip id="clip-8"/>
                  </angle>
                  <angle>
                    <activevideoangle>false</activevideoangle>
                    <activeaudioangle>false</activeaudioangle>
                    <clip id="clip-9"/>
                  </angle>
                  <masterclipid>clip-master</masterclipid>
                </multiclip>
              </clipitem>
              <clipitem id="cs-266">
                <duration>174</duration>
                <rate>
                  <ntsc>false</ntsc>
                  <timebase>25</timebase>
                </rate>
                <in>36187</in>
                <out>36360</out>
                <start>36187</start>
                <end>36360</end>
                <file id="src-3"/>
                <sourcetrack>
                  <mediatype>video</mediatype>
                  <trackindex>1</trackindex>
                </sourcetrack>
                <multiclip id="mcs-266">
                  <name>MCS-266</name>
                  <masterclipid>clip-master</masterclipid>
                  <collapsed>false</collapsed>
                  <angle>
                    <activevideoangle>false</activevideoangle>
                    <activeaudioangle>false</activeaudioangle>
                    <clip id="clip-1"/>
                  </angle>
                  <angle>
                    <activevideoangle>false</activevideoangle>
                    <activeaudioangle>false</activeaudioangle>
                    <clip id="clip-2"/>
                  </angle>
                  <angle>
                    <activevideoangle>true</activevideoangle>
                    <activeaudioangle>true</activeaudioangle>
                    <clip id="clip-3"/>
                  </angle>
                  <angle>
                    <activevideoangle>false</activevideoangle>
                    <activeaudioangle>false</activeaudioangle>
                    <clip id="clip-4"/>
                  </angle>
                  <angle>
                    <activevideoangle>false</activevideoangle>
                    <activeaudioangle>false</activeaudioangle>
                    <clip id="clip-5"/>
                  </angle>
                  <angle>
                    <activevideoangle>false</activevideoangle>
                    <activeaudioangle>false</activeaudioangle>
                    <clip id="clip-6"/>
                  </angle>
                  <angle>
                    <activevideoangle>false</activevideoangle>
                    <activeaudioangle>false</activeaudioangle>
                    <clip id="clip-7"/>
                  </angle>
                  <angle>
                    <activevideoangle>false</activevideoangle>
                    <activeaudioangle>false</activeaudioangle>
                    <clip id="clip-8"/>
                  </angle>
                  <angle>
                    <activevideoangle>false</activevideoangle>
                    <activeaudioangle>false</activeaudioangle>
                    <clip id="clip-9"/>
                  </angle>
                  <masterclipid>clip-master</masterclipid>
                </multiclip>
              </clipitem>
              <clipitem id="cs-267">
                <duration>62</duration>
                <rate>
                  <ntsc>false</ntsc>
                  <timebase>25</timebase>
                </rate>
                <in>36360</in>
                <out>36421</out>
                <start>36360</start>
                <end>36421</end>
                <file id="src-6"/>
                <sourcetrack>
                  <mediatype>video</mediatype>
                  <trackindex>1</trackindex>
                </sourcetrack>
                <multiclip id="mcs-267">
                  <name>MCS-267</name>
                  <masterclipid>clip-master</masterclipid>
                  <collapsed>false</collapsed>
                  <angle>
                    <activevideoangle>false</activevideoangle>
                    <activeaudioangle>false</activeaudioangle>
                    <clip id="clip-1"/>
                  </angle>
                  <angle>
                    <activevideoangle>false</activevideoangle>
                    <activeaudioangle>false</activeaudioangle>
                    <clip id="clip-2"/>
                  </angle>
                  <angle>
                    <activevideoangle>false</activevideoangle>
                    <activeaudioangle>false</activeaudioangle>
                    <clip id="clip-3"/>
                  </angle>
                  <angle>
                    <activevideoangle>false</activevideoangle>
                    <activeaudioangle>false</activeaudioangle>
                    <clip id="clip-4"/>
                  </angle>
                  <angle>
                    <activevideoangle>false</activevideoangle>
                    <activeaudioangle>false</activeaudioangle>
                    <clip id="clip-5"/>
                  </angle>
                  <angle>
                    <activevideoangle>true</activevideoangle>
                    <activeaudioangle>true</activeaudioangle>
                    <clip id="clip-6"/>
                  </angle>
                  <angle>
                    <activevideoangle>false</activevideoangle>
                    <activeaudioangle>false</activeaudioangle>
                    <clip id="clip-7"/>
                  </angle>
                  <angle>
                    <activevideoangle>false</activevideoangle>
                    <activeaudioangle>false</activeaudioangle>
                    <clip id="clip-8"/>
                  </angle>
                  <angle>
                    <activevideoangle>false</activevideoangle>
                    <activeaudioangle>false</activeaudioangle>
                    <clip id="clip-9"/>
                  </angle>
                  <masterclipid>clip-master</masterclipid>
                </multiclip>
              </clipitem>
              <clipitem id="cs-268">
                <duration>194</duration>
                <rate>
                  <ntsc>false</ntsc>
                  <timebase>25</timebase>
                </rate>
                <in>36421</in>
                <out>36614</out>
                <start>36421</start>
                <end>36614</end>
                <file id="src-4"/>
                <sourcetrack>
                  <mediatype>video</mediatype>
                  <trackindex>1</trackindex>
                </sourcetrack>
                <multiclip id="mcs-268">
                  <name>MCS-268</name>
                  <masterclipid>clip-master</masterclipid>
                  <collapsed>false</collapsed>
                  <angle>
                    <activevideoangle>false</activevideoangle>
                    <activeaudioangle>false</activeaudioangle>
                    <clip id="clip-1"/>
                  </angle>
                  <angle>
                    <activevideoangle>false</activevideoangle>
                    <activeaudioangle>false</activeaudioangle>
                    <clip id="clip-2"/>
                  </angle>
                  <angle>
                    <activevideoangle>false</activevideoangle>
                    <activeaudioangle>false</activeaudioangle>
                    <clip id="clip-3"/>
                  </angle>
                  <angle>
                    <activevideoangle>true</activevideoangle>
                    <activeaudioangle>true</activeaudioangle>
                    <clip id="clip-4"/>
                  </angle>
                  <angle>
                    <activevideoangle>false</activevideoangle>
                    <activeaudioangle>false</activeaudioangle>
                    <clip id="clip-5"/>
                  </angle>
                  <angle>
                    <activevideoangle>false</activevideoangle>
                    <activeaudioangle>false</activeaudioangle>
                    <clip id="clip-6"/>
                  </angle>
                  <angle>
                    <activevideoangle>false</activevideoangle>
                    <activeaudioangle>false</activeaudioangle>
                    <clip id="clip-7"/>
                  </angle>
                  <angle>
                    <activevideoangle>false</activevideoangle>
                    <activeaudioangle>false</activeaudioangle>
                    <clip id="clip-8"/>
                  </angle>
                  <angle>
                    <activevideoangle>false</activevideoangle>
                    <activeaudioangle>false</activeaudioangle>
                    <clip id="clip-9"/>
                  </angle>
                  <masterclipid>clip-master</masterclipid>
                </multiclip>
              </clipitem>
              <clipitem id="cs-269">
                <duration>52</duration>
                <rate>
                  <ntsc>false</ntsc>
                  <timebase>25</timebase>
                </rate>
                <in>36614</in>
                <out>36665</out>
                <start>36614</start>
                <end>36665</end>
                <file id="src-5"/>
                <sourcetrack>
                  <mediatype>video</mediatype>
                  <trackindex>1</trackindex>
                </sourcetrack>
                <multiclip id="mcs-269">
                  <name>MCS-269</name>
                  <masterclipid>clip-master</masterclipid>
                  <collapsed>false</collapsed>
                  <angle>
                    <activevideoangle>false</activevideoangle>
                    <activeaudioangle>false</activeaudioangle>
                    <clip id="clip-1"/>
                  </angle>
                  <angle>
                    <activevideoangle>false</activevideoangle>
                    <activeaudioangle>false</activeaudioangle>
                    <clip id="clip-2"/>
                  </angle>
                  <angle>
                    <activevideoangle>false</activevideoangle>
                    <activeaudioangle>false</activeaudioangle>
                    <clip id="clip-3"/>
                  </angle>
                  <angle>
                    <activevideoangle>false</activevideoangle>
                    <activeaudioangle>false</activeaudioangle>
                    <clip id="clip-4"/>
                  </angle>
                  <angle>
                    <activevideoangle>true</activevideoangle>
                    <activeaudioangle>true</activeaudioangle>
                    <clip id="clip-5"/>
                  </angle>
                  <angle>
                    <activevideoangle>false</activevideoangle>
                    <activeaudioangle>false</activeaudioangle>
                    <clip id="clip-6"/>
                  </angle>
                  <angle>
                    <activevideoangle>false</activevideoangle>
                    <activeaudioangle>false</activeaudioangle>
                    <clip id="clip-7"/>
                  </angle>
                  <angle>
                    <activevideoangle>false</activevideoangle>
                    <activeaudioangle>false</activeaudioangle>
                    <clip id="clip-8"/>
                  </angle>
                  <angle>
                    <activevideoangle>false</activevideoangle>
                    <activeaudioangle>false</activeaudioangle>
                    <clip id="clip-9"/>
                  </angle>
                  <masterclipid>clip-master</masterclipid>
                </multiclip>
              </clipitem>
              <clipitem id="cs-270">
                <duration>197</duration>
                <rate>
                  <ntsc>false</ntsc>
                  <timebase>25</timebase>
                </rate>
                <in>36665</in>
                <out>36861</out>
                <start>36665</start>
                <end>36861</end>
                <file id="src-3"/>
                <sourcetrack>
                  <mediatype>video</mediatype>
                  <trackindex>1</trackindex>
                </sourcetrack>
                <multiclip id="mcs-270">
                  <name>MCS-270</name>
                  <masterclipid>clip-master</masterclipid>
                  <collapsed>false</collapsed>
                  <angle>
                    <activevideoangle>false</activevideoangle>
                    <activeaudioangle>false</activeaudioangle>
                    <clip id="clip-1"/>
                  </angle>
                  <angle>
                    <activevideoangle>false</activevideoangle>
                    <activeaudioangle>false</activeaudioangle>
                    <clip id="clip-2"/>
                  </angle>
                  <angle>
                    <activevideoangle>true</activevideoangle>
                    <activeaudioangle>true</activeaudioangle>
                    <clip id="clip-3"/>
                  </angle>
                  <angle>
                    <activevideoangle>false</activevideoangle>
                    <activeaudioangle>false</activeaudioangle>
                    <clip id="clip-4"/>
                  </angle>
                  <angle>
                    <activevideoangle>false</activevideoangle>
                    <activeaudioangle>false</activeaudioangle>
                    <clip id="clip-5"/>
                  </angle>
                  <angle>
                    <activevideoangle>false</activevideoangle>
                    <activeaudioangle>false</activeaudioangle>
                    <clip id="clip-6"/>
                  </angle>
                  <angle>
                    <activevideoangle>false</activevideoangle>
                    <activeaudioangle>false</activeaudioangle>
                    <clip id="clip-7"/>
                  </angle>
                  <angle>
                    <activevideoangle>false</activevideoangle>
                    <activeaudioangle>false</activeaudioangle>
                    <clip id="clip-8"/>
                  </angle>
                  <angle>
                    <activevideoangle>false</activevideoangle>
                    <activeaudioangle>false</activeaudioangle>
                    <clip id="clip-9"/>
                  </angle>
                  <masterclipid>clip-master</masterclipid>
                </multiclip>
              </clipitem>
              <clipitem id="cs-271">
                <duration>116</duration>
                <rate>
                  <ntsc>false</ntsc>
                  <timebase>25</timebase>
                </rate>
                <in>36861</in>
                <out>36976</out>
                <start>36861</start>
                <end>36976</end>
                <file id="src-2"/>
                <sourcetrack>
                  <mediatype>video</mediatype>
                  <trackindex>1</trackindex>
                </sourcetrack>
                <multiclip id="mcs-271">
                  <name>MCS-271</name>
                  <masterclipid>clip-master</masterclipid>
                  <collapsed>false</collapsed>
                  <angle>
                    <activevideoangle>false</activevideoangle>
                    <activeaudioangle>false</activeaudioangle>
                    <clip id="clip-1"/>
                  </angle>
                  <angle>
                    <activevideoangle>true</activevideoangle>
                    <activeaudioangle>true</activeaudioangle>
                    <clip id="clip-2"/>
                  </angle>
                  <angle>
                    <activevideoangle>false</activevideoangle>
                    <activeaudioangle>false</activeaudioangle>
                    <clip id="clip-3"/>
                  </angle>
                  <angle>
                    <activevideoangle>false</activevideoangle>
                    <activeaudioangle>false</activeaudioangle>
                    <clip id="clip-4"/>
                  </angle>
                  <angle>
                    <activevideoangle>false</activevideoangle>
                    <activeaudioangle>false</activeaudioangle>
                    <clip id="clip-5"/>
                  </angle>
                  <angle>
                    <activevideoangle>false</activevideoangle>
                    <activeaudioangle>false</activeaudioangle>
                    <clip id="clip-6"/>
                  </angle>
                  <angle>
                    <activevideoangle>false</activevideoangle>
                    <activeaudioangle>false</activeaudioangle>
                    <clip id="clip-7"/>
                  </angle>
                  <angle>
                    <activevideoangle>false</activevideoangle>
                    <activeaudioangle>false</activeaudioangle>
                    <clip id="clip-8"/>
                  </angle>
                  <angle>
                    <activevideoangle>false</activevideoangle>
                    <activeaudioangle>false</activeaudioangle>
                    <clip id="clip-9"/>
                  </angle>
                  <masterclipid>clip-master</masterclipid>
                </multiclip>
              </clipitem>
              <clipitem id="cs-272">
                <duration>221</duration>
                <rate>
                  <ntsc>false</ntsc>
                  <timebase>25</timebase>
                </rate>
                <in>36976</in>
                <out>37196</out>
                <start>36976</start>
                <end>37196</end>
                <file id="src-4"/>
                <sourcetrack>
                  <mediatype>video</mediatype>
                  <trackindex>1</trackindex>
                </sourcetrack>
                <multiclip id="mcs-272">
                  <name>MCS-272</name>
                  <masterclipid>clip-master</masterclipid>
                  <collapsed>false</collapsed>
                  <angle>
                    <activevideoangle>false</activevideoangle>
                    <activeaudioangle>false</activeaudioangle>
                    <clip id="clip-1"/>
                  </angle>
                  <angle>
                    <activevideoangle>false</activevideoangle>
                    <activeaudioangle>false</activeaudioangle>
                    <clip id="clip-2"/>
                  </angle>
                  <angle>
                    <activevideoangle>false</activevideoangle>
                    <activeaudioangle>false</activeaudioangle>
                    <clip id="clip-3"/>
                  </angle>
                  <angle>
                    <activevideoangle>true</activevideoangle>
                    <activeaudioangle>true</activeaudioangle>
                    <clip id="clip-4"/>
                  </angle>
                  <angle>
                    <activevideoangle>false</activevideoangle>
                    <activeaudioangle>false</activeaudioangle>
                    <clip id="clip-5"/>
                  </angle>
                  <angle>
                    <activevideoangle>false</activevideoangle>
                    <activeaudioangle>false</activeaudioangle>
                    <clip id="clip-6"/>
                  </angle>
                  <angle>
                    <activevideoangle>false</activevideoangle>
                    <activeaudioangle>false</activeaudioangle>
                    <clip id="clip-7"/>
                  </angle>
                  <angle>
                    <activevideoangle>false</activevideoangle>
                    <activeaudioangle>false</activeaudioangle>
                    <clip id="clip-8"/>
                  </angle>
                  <angle>
                    <activevideoangle>false</activevideoangle>
                    <activeaudioangle>false</activeaudioangle>
                    <clip id="clip-9"/>
                  </angle>
                  <masterclipid>clip-master</masterclipid>
                </multiclip>
              </clipitem>
              <clipitem id="cs-273">
                <duration>242</duration>
                <rate>
                  <ntsc>false</ntsc>
                  <timebase>25</timebase>
                </rate>
                <in>37196</in>
                <out>37437</out>
                <start>37196</start>
                <end>37437</end>
                <file id="src-2"/>
                <sourcetrack>
                  <mediatype>video</mediatype>
                  <trackindex>1</trackindex>
                </sourcetrack>
                <multiclip id="mcs-273">
                  <name>MCS-273</name>
                  <masterclipid>clip-master</masterclipid>
                  <collapsed>false</collapsed>
                  <angle>
                    <activevideoangle>false</activevideoangle>
                    <activeaudioangle>false</activeaudioangle>
                    <clip id="clip-1"/>
                  </angle>
                  <angle>
                    <activevideoangle>true</activevideoangle>
                    <activeaudioangle>true</activeaudioangle>
                    <clip id="clip-2"/>
                  </angle>
                  <angle>
                    <activevideoangle>false</activevideoangle>
                    <activeaudioangle>false</activeaudioangle>
                    <clip id="clip-3"/>
                  </angle>
                  <angle>
                    <activevideoangle>false</activevideoangle>
                    <activeaudioangle>false</activeaudioangle>
                    <clip id="clip-4"/>
                  </angle>
                  <angle>
                    <activevideoangle>false</activevideoangle>
                    <activeaudioangle>false</activeaudioangle>
                    <clip id="clip-5"/>
                  </angle>
                  <angle>
                    <activevideoangle>false</activevideoangle>
                    <activeaudioangle>false</activeaudioangle>
                    <clip id="clip-6"/>
                  </angle>
                  <angle>
                    <activevideoangle>false</activevideoangle>
                    <activeaudioangle>false</activeaudioangle>
                    <clip id="clip-7"/>
                  </angle>
                  <angle>
                    <activevideoangle>false</activevideoangle>
                    <activeaudioangle>false</activeaudioangle>
                    <clip id="clip-8"/>
                  </angle>
                  <angle>
                    <activevideoangle>false</activevideoangle>
                    <activeaudioangle>false</activeaudioangle>
                    <clip id="clip-9"/>
                  </angle>
                  <masterclipid>clip-master</masterclipid>
                </multiclip>
              </clipitem>
              <clipitem id="cs-274">
                <duration>380</duration>
                <rate>
                  <ntsc>false</ntsc>
                  <timebase>25</timebase>
                </rate>
                <in>37437</in>
                <out>37816</out>
                <start>37437</start>
                <end>37816</end>
                <file id="src-4"/>
                <sourcetrack>
                  <mediatype>video</mediatype>
                  <trackindex>1</trackindex>
                </sourcetrack>
                <multiclip id="mcs-274">
                  <name>MCS-274</name>
                  <masterclipid>clip-master</masterclipid>
                  <collapsed>false</collapsed>
                  <angle>
                    <activevideoangle>false</activevideoangle>
                    <activeaudioangle>false</activeaudioangle>
                    <clip id="clip-1"/>
                  </angle>
                  <angle>
                    <activevideoangle>false</activevideoangle>
                    <activeaudioangle>false</activeaudioangle>
                    <clip id="clip-2"/>
                  </angle>
                  <angle>
                    <activevideoangle>false</activevideoangle>
                    <activeaudioangle>false</activeaudioangle>
                    <clip id="clip-3"/>
                  </angle>
                  <angle>
                    <activevideoangle>true</activevideoangle>
                    <activeaudioangle>true</activeaudioangle>
                    <clip id="clip-4"/>
                  </angle>
                  <angle>
                    <activevideoangle>false</activevideoangle>
                    <activeaudioangle>false</activeaudioangle>
                    <clip id="clip-5"/>
                  </angle>
                  <angle>
                    <activevideoangle>false</activevideoangle>
                    <activeaudioangle>false</activeaudioangle>
                    <clip id="clip-6"/>
                  </angle>
                  <angle>
                    <activevideoangle>false</activevideoangle>
                    <activeaudioangle>false</activeaudioangle>
                    <clip id="clip-7"/>
                  </angle>
                  <angle>
                    <activevideoangle>false</activevideoangle>
                    <activeaudioangle>false</activeaudioangle>
                    <clip id="clip-8"/>
                  </angle>
                  <angle>
                    <activevideoangle>false</activevideoangle>
                    <activeaudioangle>false</activeaudioangle>
                    <clip id="clip-9"/>
                  </angle>
                  <masterclipid>clip-master</masterclipid>
                </multiclip>
              </clipitem>
              <clipitem id="cs-275">
                <duration>145</duration>
                <rate>
                  <ntsc>false</ntsc>
                  <timebase>25</timebase>
                </rate>
                <in>37816</in>
                <out>37960</out>
                <start>37816</start>
                <end>37960</end>
                <file id="src-2"/>
                <sourcetrack>
                  <mediatype>video</mediatype>
                  <trackindex>1</trackindex>
                </sourcetrack>
                <multiclip id="mcs-275">
                  <name>MCS-275</name>
                  <masterclipid>clip-master</masterclipid>
                  <collapsed>false</collapsed>
                  <angle>
                    <activevideoangle>false</activevideoangle>
                    <activeaudioangle>false</activeaudioangle>
                    <clip id="clip-1"/>
                  </angle>
                  <angle>
                    <activevideoangle>true</activevideoangle>
                    <activeaudioangle>true</activeaudioangle>
                    <clip id="clip-2"/>
                  </angle>
                  <angle>
                    <activevideoangle>false</activevideoangle>
                    <activeaudioangle>false</activeaudioangle>
                    <clip id="clip-3"/>
                  </angle>
                  <angle>
                    <activevideoangle>false</activevideoangle>
                    <activeaudioangle>false</activeaudioangle>
                    <clip id="clip-4"/>
                  </angle>
                  <angle>
                    <activevideoangle>false</activevideoangle>
                    <activeaudioangle>false</activeaudioangle>
                    <clip id="clip-5"/>
                  </angle>
                  <angle>
                    <activevideoangle>false</activevideoangle>
                    <activeaudioangle>false</activeaudioangle>
                    <clip id="clip-6"/>
                  </angle>
                  <angle>
                    <activevideoangle>false</activevideoangle>
                    <activeaudioangle>false</activeaudioangle>
                    <clip id="clip-7"/>
                  </angle>
                  <angle>
                    <activevideoangle>false</activevideoangle>
                    <activeaudioangle>false</activeaudioangle>
                    <clip id="clip-8"/>
                  </angle>
                  <angle>
                    <activevideoangle>false</activevideoangle>
                    <activeaudioangle>false</activeaudioangle>
                    <clip id="clip-9"/>
                  </angle>
                  <masterclipid>clip-master</masterclipid>
                </multiclip>
              </clipitem>
              <clipitem id="cs-276">
                <duration>119</duration>
                <rate>
                  <ntsc>false</ntsc>
                  <timebase>25</timebase>
                </rate>
                <in>37960</in>
                <out>38078</out>
                <start>37960</start>
                <end>38078</end>
                <file id="src-4"/>
                <sourcetrack>
                  <mediatype>video</mediatype>
                  <trackindex>1</trackindex>
                </sourcetrack>
                <multiclip id="mcs-276">
                  <name>MCS-276</name>
                  <masterclipid>clip-master</masterclipid>
                  <collapsed>false</collapsed>
                  <angle>
                    <activevideoangle>false</activevideoangle>
                    <activeaudioangle>false</activeaudioangle>
                    <clip id="clip-1"/>
                  </angle>
                  <angle>
                    <activevideoangle>false</activevideoangle>
                    <activeaudioangle>false</activeaudioangle>
                    <clip id="clip-2"/>
                  </angle>
                  <angle>
                    <activevideoangle>false</activevideoangle>
                    <activeaudioangle>false</activeaudioangle>
                    <clip id="clip-3"/>
                  </angle>
                  <angle>
                    <activevideoangle>true</activevideoangle>
                    <activeaudioangle>true</activeaudioangle>
                    <clip id="clip-4"/>
                  </angle>
                  <angle>
                    <activevideoangle>false</activevideoangle>
                    <activeaudioangle>false</activeaudioangle>
                    <clip id="clip-5"/>
                  </angle>
                  <angle>
                    <activevideoangle>false</activevideoangle>
                    <activeaudioangle>false</activeaudioangle>
                    <clip id="clip-6"/>
                  </angle>
                  <angle>
                    <activevideoangle>false</activevideoangle>
                    <activeaudioangle>false</activeaudioangle>
                    <clip id="clip-7"/>
                  </angle>
                  <angle>
                    <activevideoangle>false</activevideoangle>
                    <activeaudioangle>false</activeaudioangle>
                    <clip id="clip-8"/>
                  </angle>
                  <angle>
                    <activevideoangle>false</activevideoangle>
                    <activeaudioangle>false</activeaudioangle>
                    <clip id="clip-9"/>
                  </angle>
                  <masterclipid>clip-master</masterclipid>
                </multiclip>
              </clipitem>
              <clipitem id="cs-277">
                <duration>107</duration>
                <rate>
                  <ntsc>false</ntsc>
                  <timebase>25</timebase>
                </rate>
                <in>38078</in>
                <out>38184</out>
                <start>38078</start>
                <end>38184</end>
                <file id="src-5"/>
                <sourcetrack>
                  <mediatype>video</mediatype>
                  <trackindex>1</trackindex>
                </sourcetrack>
                <multiclip id="mcs-277">
                  <name>MCS-277</name>
                  <masterclipid>clip-master</masterclipid>
                  <collapsed>false</collapsed>
                  <angle>
                    <activevideoangle>false</activevideoangle>
                    <activeaudioangle>false</activeaudioangle>
                    <clip id="clip-1"/>
                  </angle>
                  <angle>
                    <activevideoangle>false</activevideoangle>
                    <activeaudioangle>false</activeaudioangle>
                    <clip id="clip-2"/>
                  </angle>
                  <angle>
                    <activevideoangle>false</activevideoangle>
                    <activeaudioangle>false</activeaudioangle>
                    <clip id="clip-3"/>
                  </angle>
                  <angle>
                    <activevideoangle>false</activevideoangle>
                    <activeaudioangle>false</activeaudioangle>
                    <clip id="clip-4"/>
                  </angle>
                  <angle>
                    <activevideoangle>true</activevideoangle>
                    <activeaudioangle>true</activeaudioangle>
                    <clip id="clip-5"/>
                  </angle>
                  <angle>
                    <activevideoangle>false</activevideoangle>
                    <activeaudioangle>false</activeaudioangle>
                    <clip id="clip-6"/>
                  </angle>
                  <angle>
                    <activevideoangle>false</activevideoangle>
                    <activeaudioangle>false</activeaudioangle>
                    <clip id="clip-7"/>
                  </angle>
                  <angle>
                    <activevideoangle>false</activevideoangle>
                    <activeaudioangle>false</activeaudioangle>
                    <clip id="clip-8"/>
                  </angle>
                  <angle>
                    <activevideoangle>false</activevideoangle>
                    <activeaudioangle>false</activeaudioangle>
                    <clip id="clip-9"/>
                  </angle>
                  <masterclipid>clip-master</masterclipid>
                </multiclip>
              </clipitem>
              <clipitem id="cs-278">
                <duration>43</duration>
                <rate>
                  <ntsc>false</ntsc>
                  <timebase>25</timebase>
                </rate>
                <in>38184</in>
                <out>38226</out>
                <start>38184</start>
                <end>38226</end>
                <file id="src-2"/>
                <sourcetrack>
                  <mediatype>video</mediatype>
                  <trackindex>1</trackindex>
                </sourcetrack>
                <multiclip id="mcs-278">
                  <name>MCS-278</name>
                  <masterclipid>clip-master</masterclipid>
                  <collapsed>false</collapsed>
                  <angle>
                    <activevideoangle>false</activevideoangle>
                    <activeaudioangle>false</activeaudioangle>
                    <clip id="clip-1"/>
                  </angle>
                  <angle>
                    <activevideoangle>true</activevideoangle>
                    <activeaudioangle>true</activeaudioangle>
                    <clip id="clip-2"/>
                  </angle>
                  <angle>
                    <activevideoangle>false</activevideoangle>
                    <activeaudioangle>false</activeaudioangle>
                    <clip id="clip-3"/>
                  </angle>
                  <angle>
                    <activevideoangle>false</activevideoangle>
                    <activeaudioangle>false</activeaudioangle>
                    <clip id="clip-4"/>
                  </angle>
                  <angle>
                    <activevideoangle>false</activevideoangle>
                    <activeaudioangle>false</activeaudioangle>
                    <clip id="clip-5"/>
                  </angle>
                  <angle>
                    <activevideoangle>false</activevideoangle>
                    <activeaudioangle>false</activeaudioangle>
                    <clip id="clip-6"/>
                  </angle>
                  <angle>
                    <activevideoangle>false</activevideoangle>
                    <activeaudioangle>false</activeaudioangle>
                    <clip id="clip-7"/>
                  </angle>
                  <angle>
                    <activevideoangle>false</activevideoangle>
                    <activeaudioangle>false</activeaudioangle>
                    <clip id="clip-8"/>
                  </angle>
                  <angle>
                    <activevideoangle>false</activevideoangle>
                    <activeaudioangle>false</activeaudioangle>
                    <clip id="clip-9"/>
                  </angle>
                  <masterclipid>clip-master</masterclipid>
                </multiclip>
              </clipitem>
              <clipitem id="cs-279">
                <duration>333</duration>
                <rate>
                  <ntsc>false</ntsc>
                  <timebase>25</timebase>
                </rate>
                <in>38226</in>
                <out>38558</out>
                <start>38226</start>
                <end>38558</end>
                <file id="src-4"/>
                <sourcetrack>
                  <mediatype>video</mediatype>
                  <trackindex>1</trackindex>
                </sourcetrack>
                <multiclip id="mcs-279">
                  <name>MCS-279</name>
                  <masterclipid>clip-master</masterclipid>
                  <collapsed>false</collapsed>
                  <angle>
                    <activevideoangle>false</activevideoangle>
                    <activeaudioangle>false</activeaudioangle>
                    <clip id="clip-1"/>
                  </angle>
                  <angle>
                    <activevideoangle>false</activevideoangle>
                    <activeaudioangle>false</activeaudioangle>
                    <clip id="clip-2"/>
                  </angle>
                  <angle>
                    <activevideoangle>false</activevideoangle>
                    <activeaudioangle>false</activeaudioangle>
                    <clip id="clip-3"/>
                  </angle>
                  <angle>
                    <activevideoangle>true</activevideoangle>
                    <activeaudioangle>true</activeaudioangle>
                    <clip id="clip-4"/>
                  </angle>
                  <angle>
                    <activevideoangle>false</activevideoangle>
                    <activeaudioangle>false</activeaudioangle>
                    <clip id="clip-5"/>
                  </angle>
                  <angle>
                    <activevideoangle>false</activevideoangle>
                    <activeaudioangle>false</activeaudioangle>
                    <clip id="clip-6"/>
                  </angle>
                  <angle>
                    <activevideoangle>false</activevideoangle>
                    <activeaudioangle>false</activeaudioangle>
                    <clip id="clip-7"/>
                  </angle>
                  <angle>
                    <activevideoangle>false</activevideoangle>
                    <activeaudioangle>false</activeaudioangle>
                    <clip id="clip-8"/>
                  </angle>
                  <angle>
                    <activevideoangle>false</activevideoangle>
                    <activeaudioangle>false</activeaudioangle>
                    <clip id="clip-9"/>
                  </angle>
                  <masterclipid>clip-master</masterclipid>
                </multiclip>
              </clipitem>
              <clipitem id="cs-280">
                <duration>228</duration>
                <rate>
                  <ntsc>false</ntsc>
                  <timebase>25</timebase>
                </rate>
                <in>38558</in>
                <out>38785</out>
                <start>38558</start>
                <end>38785</end>
                <file id="src-5"/>
                <sourcetrack>
                  <mediatype>video</mediatype>
                  <trackindex>1</trackindex>
                </sourcetrack>
                <multiclip id="mcs-280">
                  <name>MCS-280</name>
                  <masterclipid>clip-master</masterclipid>
                  <collapsed>false</collapsed>
                  <angle>
                    <activevideoangle>false</activevideoangle>
                    <activeaudioangle>false</activeaudioangle>
                    <clip id="clip-1"/>
                  </angle>
                  <angle>
                    <activevideoangle>false</activevideoangle>
                    <activeaudioangle>false</activeaudioangle>
                    <clip id="clip-2"/>
                  </angle>
                  <angle>
                    <activevideoangle>false</activevideoangle>
                    <activeaudioangle>false</activeaudioangle>
                    <clip id="clip-3"/>
                  </angle>
                  <angle>
                    <activevideoangle>false</activevideoangle>
                    <activeaudioangle>false</activeaudioangle>
                    <clip id="clip-4"/>
                  </angle>
                  <angle>
                    <activevideoangle>true</activevideoangle>
                    <activeaudioangle>true</activeaudioangle>
                    <clip id="clip-5"/>
                  </angle>
                  <angle>
                    <activevideoangle>false</activevideoangle>
                    <activeaudioangle>false</activeaudioangle>
                    <clip id="clip-6"/>
                  </angle>
                  <angle>
                    <activevideoangle>false</activevideoangle>
                    <activeaudioangle>false</activeaudioangle>
                    <clip id="clip-7"/>
                  </angle>
                  <angle>
                    <activevideoangle>false</activevideoangle>
                    <activeaudioangle>false</activeaudioangle>
                    <clip id="clip-8"/>
                  </angle>
                  <angle>
                    <activevideoangle>false</activevideoangle>
                    <activeaudioangle>false</activeaudioangle>
                    <clip id="clip-9"/>
                  </angle>
                  <masterclipid>clip-master</masterclipid>
                </multiclip>
              </clipitem>
              <clipitem id="cs-281">
                <duration>73</duration>
                <rate>
                  <ntsc>false</ntsc>
                  <timebase>25</timebase>
                </rate>
                <in>38785</in>
                <out>38857</out>
                <start>38785</start>
                <end>38857</end>
                <file id="src-2"/>
                <sourcetrack>
                  <mediatype>video</mediatype>
                  <trackindex>1</trackindex>
                </sourcetrack>
                <multiclip id="mcs-281">
                  <name>MCS-281</name>
                  <masterclipid>clip-master</masterclipid>
                  <collapsed>false</collapsed>
                  <angle>
                    <activevideoangle>false</activevideoangle>
                    <activeaudioangle>false</activeaudioangle>
                    <clip id="clip-1"/>
                  </angle>
                  <angle>
                    <activevideoangle>true</activevideoangle>
                    <activeaudioangle>true</activeaudioangle>
                    <clip id="clip-2"/>
                  </angle>
                  <angle>
                    <activevideoangle>false</activevideoangle>
                    <activeaudioangle>false</activeaudioangle>
                    <clip id="clip-3"/>
                  </angle>
                  <angle>
                    <activevideoangle>false</activevideoangle>
                    <activeaudioangle>false</activeaudioangle>
                    <clip id="clip-4"/>
                  </angle>
                  <angle>
                    <activevideoangle>false</activevideoangle>
                    <activeaudioangle>false</activeaudioangle>
                    <clip id="clip-5"/>
                  </angle>
                  <angle>
                    <activevideoangle>false</activevideoangle>
                    <activeaudioangle>false</activeaudioangle>
                    <clip id="clip-6"/>
                  </angle>
                  <angle>
                    <activevideoangle>false</activevideoangle>
                    <activeaudioangle>false</activeaudioangle>
                    <clip id="clip-7"/>
                  </angle>
                  <angle>
                    <activevideoangle>false</activevideoangle>
                    <activeaudioangle>false</activeaudioangle>
                    <clip id="clip-8"/>
                  </angle>
                  <angle>
                    <activevideoangle>false</activevideoangle>
                    <activeaudioangle>false</activeaudioangle>
                    <clip id="clip-9"/>
                  </angle>
                  <masterclipid>clip-master</masterclipid>
                </multiclip>
              </clipitem>
              <clipitem id="cs-282">
                <duration>230</duration>
                <rate>
                  <ntsc>false</ntsc>
                  <timebase>25</timebase>
                </rate>
                <in>38857</in>
                <out>39086</out>
                <start>38857</start>
                <end>39086</end>
                <file id="src-3"/>
                <sourcetrack>
                  <mediatype>video</mediatype>
                  <trackindex>1</trackindex>
                </sourcetrack>
                <multiclip id="mcs-282">
                  <name>MCS-282</name>
                  <masterclipid>clip-master</masterclipid>
                  <collapsed>false</collapsed>
                  <angle>
                    <activevideoangle>false</activevideoangle>
                    <activeaudioangle>false</activeaudioangle>
                    <clip id="clip-1"/>
                  </angle>
                  <angle>
                    <activevideoangle>false</activevideoangle>
                    <activeaudioangle>false</activeaudioangle>
                    <clip id="clip-2"/>
                  </angle>
                  <angle>
                    <activevideoangle>true</activevideoangle>
                    <activeaudioangle>true</activeaudioangle>
                    <clip id="clip-3"/>
                  </angle>
                  <angle>
                    <activevideoangle>false</activevideoangle>
                    <activeaudioangle>false</activeaudioangle>
                    <clip id="clip-4"/>
                  </angle>
                  <angle>
                    <activevideoangle>false</activevideoangle>
                    <activeaudioangle>false</activeaudioangle>
                    <clip id="clip-5"/>
                  </angle>
                  <angle>
                    <activevideoangle>false</activevideoangle>
                    <activeaudioangle>false</activeaudioangle>
                    <clip id="clip-6"/>
                  </angle>
                  <angle>
                    <activevideoangle>false</activevideoangle>
                    <activeaudioangle>false</activeaudioangle>
                    <clip id="clip-7"/>
                  </angle>
                  <angle>
                    <activevideoangle>false</activevideoangle>
                    <activeaudioangle>false</activeaudioangle>
                    <clip id="clip-8"/>
                  </angle>
                  <angle>
                    <activevideoangle>false</activevideoangle>
                    <activeaudioangle>false</activeaudioangle>
                    <clip id="clip-9"/>
                  </angle>
                  <masterclipid>clip-master</masterclipid>
                </multiclip>
              </clipitem>
              <clipitem id="cs-283">
                <duration>141</duration>
                <rate>
                  <ntsc>false</ntsc>
                  <timebase>25</timebase>
                </rate>
                <in>39086</in>
                <out>39226</out>
                <start>39086</start>
                <end>39226</end>
                <file id="src-6"/>
                <sourcetrack>
                  <mediatype>video</mediatype>
                  <trackindex>1</trackindex>
                </sourcetrack>
                <multiclip id="mcs-283">
                  <name>MCS-283</name>
                  <masterclipid>clip-master</masterclipid>
                  <collapsed>false</collapsed>
                  <angle>
                    <activevideoangle>false</activevideoangle>
                    <activeaudioangle>false</activeaudioangle>
                    <clip id="clip-1"/>
                  </angle>
                  <angle>
                    <activevideoangle>false</activevideoangle>
                    <activeaudioangle>false</activeaudioangle>
                    <clip id="clip-2"/>
                  </angle>
                  <angle>
                    <activevideoangle>false</activevideoangle>
                    <activeaudioangle>false</activeaudioangle>
                    <clip id="clip-3"/>
                  </angle>
                  <angle>
                    <activevideoangle>false</activevideoangle>
                    <activeaudioangle>false</activeaudioangle>
                    <clip id="clip-4"/>
                  </angle>
                  <angle>
                    <activevideoangle>false</activevideoangle>
                    <activeaudioangle>false</activeaudioangle>
                    <clip id="clip-5"/>
                  </angle>
                  <angle>
                    <activevideoangle>true</activevideoangle>
                    <activeaudioangle>true</activeaudioangle>
                    <clip id="clip-6"/>
                  </angle>
                  <angle>
                    <activevideoangle>false</activevideoangle>
                    <activeaudioangle>false</activeaudioangle>
                    <clip id="clip-7"/>
                  </angle>
                  <angle>
                    <activevideoangle>false</activevideoangle>
                    <activeaudioangle>false</activeaudioangle>
                    <clip id="clip-8"/>
                  </angle>
                  <angle>
                    <activevideoangle>false</activevideoangle>
                    <activeaudioangle>false</activeaudioangle>
                    <clip id="clip-9"/>
                  </angle>
                  <masterclipid>clip-master</masterclipid>
                </multiclip>
              </clipitem>
              <clipitem id="cs-284">
                <duration>148</duration>
                <rate>
                  <ntsc>false</ntsc>
                  <timebase>25</timebase>
                </rate>
                <in>39226</in>
                <out>39373</out>
                <start>39226</start>
                <end>39373</end>
                <file id="src-4"/>
                <sourcetrack>
                  <mediatype>video</mediatype>
                  <trackindex>1</trackindex>
                </sourcetrack>
                <multiclip id="mcs-284">
                  <name>MCS-284</name>
                  <masterclipid>clip-master</masterclipid>
                  <collapsed>false</collapsed>
                  <angle>
                    <activevideoangle>false</activevideoangle>
                    <activeaudioangle>false</activeaudioangle>
                    <clip id="clip-1"/>
                  </angle>
                  <angle>
                    <activevideoangle>false</activevideoangle>
                    <activeaudioangle>false</activeaudioangle>
                    <clip id="clip-2"/>
                  </angle>
                  <angle>
                    <activevideoangle>false</activevideoangle>
                    <activeaudioangle>false</activeaudioangle>
                    <clip id="clip-3"/>
                  </angle>
                  <angle>
                    <activevideoangle>true</activevideoangle>
                    <activeaudioangle>true</activeaudioangle>
                    <clip id="clip-4"/>
                  </angle>
                  <angle>
                    <activevideoangle>false</activevideoangle>
                    <activeaudioangle>false</activeaudioangle>
                    <clip id="clip-5"/>
                  </angle>
                  <angle>
                    <activevideoangle>false</activevideoangle>
                    <activeaudioangle>false</activeaudioangle>
                    <clip id="clip-6"/>
                  </angle>
                  <angle>
                    <activevideoangle>false</activevideoangle>
                    <activeaudioangle>false</activeaudioangle>
                    <clip id="clip-7"/>
                  </angle>
                  <angle>
                    <activevideoangle>false</activevideoangle>
                    <activeaudioangle>false</activeaudioangle>
                    <clip id="clip-8"/>
                  </angle>
                  <angle>
                    <activevideoangle>false</activevideoangle>
                    <activeaudioangle>false</activeaudioangle>
                    <clip id="clip-9"/>
                  </angle>
                  <masterclipid>clip-master</masterclipid>
                </multiclip>
              </clipitem>
              <clipitem id="cs-285">
                <duration>171</duration>
                <rate>
                  <ntsc>false</ntsc>
                  <timebase>25</timebase>
                </rate>
                <in>39373</in>
                <out>39543</out>
                <start>39373</start>
                <end>39543</end>
                <file id="src-2"/>
                <sourcetrack>
                  <mediatype>video</mediatype>
                  <trackindex>1</trackindex>
                </sourcetrack>
                <multiclip id="mcs-285">
                  <name>MCS-285</name>
                  <masterclipid>clip-master</masterclipid>
                  <collapsed>false</collapsed>
                  <angle>
                    <activevideoangle>false</activevideoangle>
                    <activeaudioangle>false</activeaudioangle>
                    <clip id="clip-1"/>
                  </angle>
                  <angle>
                    <activevideoangle>true</activevideoangle>
                    <activeaudioangle>true</activeaudioangle>
                    <clip id="clip-2"/>
                  </angle>
                  <angle>
                    <activevideoangle>false</activevideoangle>
                    <activeaudioangle>false</activeaudioangle>
                    <clip id="clip-3"/>
                  </angle>
                  <angle>
                    <activevideoangle>false</activevideoangle>
                    <activeaudioangle>false</activeaudioangle>
                    <clip id="clip-4"/>
                  </angle>
                  <angle>
                    <activevideoangle>false</activevideoangle>
                    <activeaudioangle>false</activeaudioangle>
                    <clip id="clip-5"/>
                  </angle>
                  <angle>
                    <activevideoangle>false</activevideoangle>
                    <activeaudioangle>false</activeaudioangle>
                    <clip id="clip-6"/>
                  </angle>
                  <angle>
                    <activevideoangle>false</activevideoangle>
                    <activeaudioangle>false</activeaudioangle>
                    <clip id="clip-7"/>
                  </angle>
                  <angle>
                    <activevideoangle>false</activevideoangle>
                    <activeaudioangle>false</activeaudioangle>
                    <clip id="clip-8"/>
                  </angle>
                  <angle>
                    <activevideoangle>false</activevideoangle>
                    <activeaudioangle>false</activeaudioangle>
                    <clip id="clip-9"/>
                  </angle>
                  <masterclipid>clip-master</masterclipid>
                </multiclip>
              </clipitem>
              <clipitem id="cs-286">
                <duration>223</duration>
                <rate>
                  <ntsc>false</ntsc>
                  <timebase>25</timebase>
                </rate>
                <in>39543</in>
                <out>39765</out>
                <start>39543</start>
                <end>39765</end>
                <file id="src-4"/>
                <sourcetrack>
                  <mediatype>video</mediatype>
                  <trackindex>1</trackindex>
                </sourcetrack>
                <multiclip id="mcs-286">
                  <name>MCS-286</name>
                  <masterclipid>clip-master</masterclipid>
                  <collapsed>false</collapsed>
                  <angle>
                    <activevideoangle>false</activevideoangle>
                    <activeaudioangle>false</activeaudioangle>
                    <clip id="clip-1"/>
                  </angle>
                  <angle>
                    <activevideoangle>false</activevideoangle>
                    <activeaudioangle>false</activeaudioangle>
                    <clip id="clip-2"/>
                  </angle>
                  <angle>
                    <activevideoangle>false</activevideoangle>
                    <activeaudioangle>false</activeaudioangle>
                    <clip id="clip-3"/>
                  </angle>
                  <angle>
                    <activevideoangle>true</activevideoangle>
                    <activeaudioangle>true</activeaudioangle>
                    <clip id="clip-4"/>
                  </angle>
                  <angle>
                    <activevideoangle>false</activevideoangle>
                    <activeaudioangle>false</activeaudioangle>
                    <clip id="clip-5"/>
                  </angle>
                  <angle>
                    <activevideoangle>false</activevideoangle>
                    <activeaudioangle>false</activeaudioangle>
                    <clip id="clip-6"/>
                  </angle>
                  <angle>
                    <activevideoangle>false</activevideoangle>
                    <activeaudioangle>false</activeaudioangle>
                    <clip id="clip-7"/>
                  </angle>
                  <angle>
                    <activevideoangle>false</activevideoangle>
                    <activeaudioangle>false</activeaudioangle>
                    <clip id="clip-8"/>
                  </angle>
                  <angle>
                    <activevideoangle>false</activevideoangle>
                    <activeaudioangle>false</activeaudioangle>
                    <clip id="clip-9"/>
                  </angle>
                  <masterclipid>clip-master</masterclipid>
                </multiclip>
              </clipitem>
              <clipitem id="cs-287">
                <duration>79</duration>
                <rate>
                  <ntsc>false</ntsc>
                  <timebase>25</timebase>
                </rate>
                <in>39765</in>
                <out>39843</out>
                <start>39765</start>
                <end>39843</end>
                <file id="src-5"/>
                <sourcetrack>
                  <mediatype>video</mediatype>
                  <trackindex>1</trackindex>
                </sourcetrack>
                <multiclip id="mcs-287">
                  <name>MCS-287</name>
                  <masterclipid>clip-master</masterclipid>
                  <collapsed>false</collapsed>
                  <angle>
                    <activevideoangle>false</activevideoangle>
                    <activeaudioangle>false</activeaudioangle>
                    <clip id="clip-1"/>
                  </angle>
                  <angle>
                    <activevideoangle>false</activevideoangle>
                    <activeaudioangle>false</activeaudioangle>
                    <clip id="clip-2"/>
                  </angle>
                  <angle>
                    <activevideoangle>false</activevideoangle>
                    <activeaudioangle>false</activeaudioangle>
                    <clip id="clip-3"/>
                  </angle>
                  <angle>
                    <activevideoangle>false</activevideoangle>
                    <activeaudioangle>false</activeaudioangle>
                    <clip id="clip-4"/>
                  </angle>
                  <angle>
                    <activevideoangle>true</activevideoangle>
                    <activeaudioangle>true</activeaudioangle>
                    <clip id="clip-5"/>
                  </angle>
                  <angle>
                    <activevideoangle>false</activevideoangle>
                    <activeaudioangle>false</activeaudioangle>
                    <clip id="clip-6"/>
                  </angle>
                  <angle>
                    <activevideoangle>false</activevideoangle>
                    <activeaudioangle>false</activeaudioangle>
                    <clip id="clip-7"/>
                  </angle>
                  <angle>
                    <activevideoangle>false</activevideoangle>
                    <activeaudioangle>false</activeaudioangle>
                    <clip id="clip-8"/>
                  </angle>
                  <angle>
                    <activevideoangle>false</activevideoangle>
                    <activeaudioangle>false</activeaudioangle>
                    <clip id="clip-9"/>
                  </angle>
                  <masterclipid>clip-master</masterclipid>
                </multiclip>
              </clipitem>
              <clipitem id="cs-288">
                <duration>146</duration>
                <rate>
                  <ntsc>false</ntsc>
                  <timebase>25</timebase>
                </rate>
                <in>39843</in>
                <out>39988</out>
                <start>39843</start>
                <end>39988</end>
                <file id="src-3"/>
                <sourcetrack>
                  <mediatype>video</mediatype>
                  <trackindex>1</trackindex>
                </sourcetrack>
                <multiclip id="mcs-288">
                  <name>MCS-288</name>
                  <masterclipid>clip-master</masterclipid>
                  <collapsed>false</collapsed>
                  <angle>
                    <activevideoangle>false</activevideoangle>
                    <activeaudioangle>false</activeaudioangle>
                    <clip id="clip-1"/>
                  </angle>
                  <angle>
                    <activevideoangle>false</activevideoangle>
                    <activeaudioangle>false</activeaudioangle>
                    <clip id="clip-2"/>
                  </angle>
                  <angle>
                    <activevideoangle>true</activevideoangle>
                    <activeaudioangle>true</activeaudioangle>
                    <clip id="clip-3"/>
                  </angle>
                  <angle>
                    <activevideoangle>false</activevideoangle>
                    <activeaudioangle>false</activeaudioangle>
                    <clip id="clip-4"/>
                  </angle>
                  <angle>
                    <activevideoangle>false</activevideoangle>
                    <activeaudioangle>false</activeaudioangle>
                    <clip id="clip-5"/>
                  </angle>
                  <angle>
                    <activevideoangle>false</activevideoangle>
                    <activeaudioangle>false</activeaudioangle>
                    <clip id="clip-6"/>
                  </angle>
                  <angle>
                    <activevideoangle>false</activevideoangle>
                    <activeaudioangle>false</activeaudioangle>
                    <clip id="clip-7"/>
                  </angle>
                  <angle>
                    <activevideoangle>false</activevideoangle>
                    <activeaudioangle>false</activeaudioangle>
                    <clip id="clip-8"/>
                  </angle>
                  <angle>
                    <activevideoangle>false</activevideoangle>
                    <activeaudioangle>false</activeaudioangle>
                    <clip id="clip-9"/>
                  </angle>
                  <masterclipid>clip-master</masterclipid>
                </multiclip>
              </clipitem>
              <clipitem id="cs-289">
                <duration>48</duration>
                <rate>
                  <ntsc>false</ntsc>
                  <timebase>25</timebase>
                </rate>
                <in>39988</in>
                <out>40035</out>
                <start>39988</start>
                <end>40035</end>
                <file id="src-4"/>
                <sourcetrack>
                  <mediatype>video</mediatype>
                  <trackindex>1</trackindex>
                </sourcetrack>
                <multiclip id="mcs-289">
                  <name>MCS-289</name>
                  <masterclipid>clip-master</masterclipid>
                  <collapsed>false</collapsed>
                  <angle>
                    <activevideoangle>false</activevideoangle>
                    <activeaudioangle>false</activeaudioangle>
                    <clip id="clip-1"/>
                  </angle>
                  <angle>
                    <activevideoangle>false</activevideoangle>
                    <activeaudioangle>false</activeaudioangle>
                    <clip id="clip-2"/>
                  </angle>
                  <angle>
                    <activevideoangle>false</activevideoangle>
                    <activeaudioangle>false</activeaudioangle>
                    <clip id="clip-3"/>
                  </angle>
                  <angle>
                    <activevideoangle>true</activevideoangle>
                    <activeaudioangle>true</activeaudioangle>
                    <clip id="clip-4"/>
                  </angle>
                  <angle>
                    <activevideoangle>false</activevideoangle>
                    <activeaudioangle>false</activeaudioangle>
                    <clip id="clip-5"/>
                  </angle>
                  <angle>
                    <activevideoangle>false</activevideoangle>
                    <activeaudioangle>false</activeaudioangle>
                    <clip id="clip-6"/>
                  </angle>
                  <angle>
                    <activevideoangle>false</activevideoangle>
                    <activeaudioangle>false</activeaudioangle>
                    <clip id="clip-7"/>
                  </angle>
                  <angle>
                    <activevideoangle>false</activevideoangle>
                    <activeaudioangle>false</activeaudioangle>
                    <clip id="clip-8"/>
                  </angle>
                  <angle>
                    <activevideoangle>false</activevideoangle>
                    <activeaudioangle>false</activeaudioangle>
                    <clip id="clip-9"/>
                  </angle>
                  <masterclipid>clip-master</masterclipid>
                </multiclip>
              </clipitem>
              <clipitem id="cs-290">
                <duration>197</duration>
                <rate>
                  <ntsc>false</ntsc>
                  <timebase>25</timebase>
                </rate>
                <in>40035</in>
                <out>40231</out>
                <start>40035</start>
                <end>40231</end>
                <file id="src-2"/>
                <sourcetrack>
                  <mediatype>video</mediatype>
                  <trackindex>1</trackindex>
                </sourcetrack>
                <multiclip id="mcs-290">
                  <name>MCS-290</name>
                  <masterclipid>clip-master</masterclipid>
                  <collapsed>false</collapsed>
                  <angle>
                    <activevideoangle>false</activevideoangle>
                    <activeaudioangle>false</activeaudioangle>
                    <clip id="clip-1"/>
                  </angle>
                  <angle>
                    <activevideoangle>true</activevideoangle>
                    <activeaudioangle>true</activeaudioangle>
                    <clip id="clip-2"/>
                  </angle>
                  <angle>
                    <activevideoangle>false</activevideoangle>
                    <activeaudioangle>false</activeaudioangle>
                    <clip id="clip-3"/>
                  </angle>
                  <angle>
                    <activevideoangle>false</activevideoangle>
                    <activeaudioangle>false</activeaudioangle>
                    <clip id="clip-4"/>
                  </angle>
                  <angle>
                    <activevideoangle>false</activevideoangle>
                    <activeaudioangle>false</activeaudioangle>
                    <clip id="clip-5"/>
                  </angle>
                  <angle>
                    <activevideoangle>false</activevideoangle>
                    <activeaudioangle>false</activeaudioangle>
                    <clip id="clip-6"/>
                  </angle>
                  <angle>
                    <activevideoangle>false</activevideoangle>
                    <activeaudioangle>false</activeaudioangle>
                    <clip id="clip-7"/>
                  </angle>
                  <angle>
                    <activevideoangle>false</activevideoangle>
                    <activeaudioangle>false</activeaudioangle>
                    <clip id="clip-8"/>
                  </angle>
                  <angle>
                    <activevideoangle>false</activevideoangle>
                    <activeaudioangle>false</activeaudioangle>
                    <clip id="clip-9"/>
                  </angle>
                  <masterclipid>clip-master</masterclipid>
                </multiclip>
              </clipitem>
              <clipitem id="cs-291">
                <duration>57</duration>
                <rate>
                  <ntsc>false</ntsc>
                  <timebase>25</timebase>
                </rate>
                <in>40231</in>
                <out>40287</out>
                <start>40231</start>
                <end>40287</end>
                <file id="src-3"/>
                <sourcetrack>
                  <mediatype>video</mediatype>
                  <trackindex>1</trackindex>
                </sourcetrack>
                <multiclip id="mcs-291">
                  <name>MCS-291</name>
                  <masterclipid>clip-master</masterclipid>
                  <collapsed>false</collapsed>
                  <angle>
                    <activevideoangle>false</activevideoangle>
                    <activeaudioangle>false</activeaudioangle>
                    <clip id="clip-1"/>
                  </angle>
                  <angle>
                    <activevideoangle>false</activevideoangle>
                    <activeaudioangle>false</activeaudioangle>
                    <clip id="clip-2"/>
                  </angle>
                  <angle>
                    <activevideoangle>true</activevideoangle>
                    <activeaudioangle>true</activeaudioangle>
                    <clip id="clip-3"/>
                  </angle>
                  <angle>
                    <activevideoangle>false</activevideoangle>
                    <activeaudioangle>false</activeaudioangle>
                    <clip id="clip-4"/>
                  </angle>
                  <angle>
                    <activevideoangle>false</activevideoangle>
                    <activeaudioangle>false</activeaudioangle>
                    <clip id="clip-5"/>
                  </angle>
                  <angle>
                    <activevideoangle>false</activevideoangle>
                    <activeaudioangle>false</activeaudioangle>
                    <clip id="clip-6"/>
                  </angle>
                  <angle>
                    <activevideoangle>false</activevideoangle>
                    <activeaudioangle>false</activeaudioangle>
                    <clip id="clip-7"/>
                  </angle>
                  <angle>
                    <activevideoangle>false</activevideoangle>
                    <activeaudioangle>false</activeaudioangle>
                    <clip id="clip-8"/>
                  </angle>
                  <angle>
                    <activevideoangle>false</activevideoangle>
                    <activeaudioangle>false</activeaudioangle>
                    <clip id="clip-9"/>
                  </angle>
                  <masterclipid>clip-master</masterclipid>
                </multiclip>
              </clipitem>
              <clipitem id="cs-292">
                <duration>405</duration>
                <rate>
                  <ntsc>false</ntsc>
                  <timebase>25</timebase>
                </rate>
                <in>40287</in>
                <out>40691</out>
                <start>40287</start>
                <end>40691</end>
                <file id="src-8"/>
                <sourcetrack>
                  <mediatype>video</mediatype>
                  <trackindex>1</trackindex>
                </sourcetrack>
                <multiclip id="mcs-292">
                  <name>MCS-292</name>
                  <masterclipid>clip-master</masterclipid>
                  <collapsed>false</collapsed>
                  <angle>
                    <activevideoangle>false</activevideoangle>
                    <activeaudioangle>false</activeaudioangle>
                    <clip id="clip-1"/>
                  </angle>
                  <angle>
                    <activevideoangle>false</activevideoangle>
                    <activeaudioangle>false</activeaudioangle>
                    <clip id="clip-2"/>
                  </angle>
                  <angle>
                    <activevideoangle>false</activevideoangle>
                    <activeaudioangle>false</activeaudioangle>
                    <clip id="clip-3"/>
                  </angle>
                  <angle>
                    <activevideoangle>false</activevideoangle>
                    <activeaudioangle>false</activeaudioangle>
                    <clip id="clip-4"/>
                  </angle>
                  <angle>
                    <activevideoangle>false</activevideoangle>
                    <activeaudioangle>false</activeaudioangle>
                    <clip id="clip-5"/>
                  </angle>
                  <angle>
                    <activevideoangle>false</activevideoangle>
                    <activeaudioangle>false</activeaudioangle>
                    <clip id="clip-6"/>
                  </angle>
                  <angle>
                    <activevideoangle>false</activevideoangle>
                    <activeaudioangle>false</activeaudioangle>
                    <clip id="clip-7"/>
                  </angle>
                  <angle>
                    <activevideoangle>true</activevideoangle>
                    <activeaudioangle>true</activeaudioangle>
                    <clip id="clip-8"/>
                  </angle>
                  <angle>
                    <activevideoangle>false</activevideoangle>
                    <activeaudioangle>false</activeaudioangle>
                    <clip id="clip-9"/>
                  </angle>
                  <masterclipid>clip-master</masterclipid>
                </multiclip>
              </clipitem>
              <clipitem id="cs-293">
                <duration>190</duration>
                <rate>
                  <ntsc>false</ntsc>
                  <timebase>25</timebase>
                </rate>
                <in>40691</in>
                <out>40880</out>
                <start>40691</start>
                <end>40880</end>
                <file id="src-3"/>
                <sourcetrack>
                  <mediatype>video</mediatype>
                  <trackindex>1</trackindex>
                </sourcetrack>
                <multiclip id="mcs-293">
                  <name>MCS-293</name>
                  <masterclipid>clip-master</masterclipid>
                  <collapsed>false</collapsed>
                  <angle>
                    <activevideoangle>false</activevideoangle>
                    <activeaudioangle>false</activeaudioangle>
                    <clip id="clip-1"/>
                  </angle>
                  <angle>
                    <activevideoangle>false</activevideoangle>
                    <activeaudioangle>false</activeaudioangle>
                    <clip id="clip-2"/>
                  </angle>
                  <angle>
                    <activevideoangle>true</activevideoangle>
                    <activeaudioangle>true</activeaudioangle>
                    <clip id="clip-3"/>
                  </angle>
                  <angle>
                    <activevideoangle>false</activevideoangle>
                    <activeaudioangle>false</activeaudioangle>
                    <clip id="clip-4"/>
                  </angle>
                  <angle>
                    <activevideoangle>false</activevideoangle>
                    <activeaudioangle>false</activeaudioangle>
                    <clip id="clip-5"/>
                  </angle>
                  <angle>
                    <activevideoangle>false</activevideoangle>
                    <activeaudioangle>false</activeaudioangle>
                    <clip id="clip-6"/>
                  </angle>
                  <angle>
                    <activevideoangle>false</activevideoangle>
                    <activeaudioangle>false</activeaudioangle>
                    <clip id="clip-7"/>
                  </angle>
                  <angle>
                    <activevideoangle>false</activevideoangle>
                    <activeaudioangle>false</activeaudioangle>
                    <clip id="clip-8"/>
                  </angle>
                  <angle>
                    <activevideoangle>false</activevideoangle>
                    <activeaudioangle>false</activeaudioangle>
                    <clip id="clip-9"/>
                  </angle>
                  <masterclipid>clip-master</masterclipid>
                </multiclip>
              </clipitem>
              <clipitem id="cs-294">
                <duration>68</duration>
                <rate>
                  <ntsc>false</ntsc>
                  <timebase>25</timebase>
                </rate>
                <in>40880</in>
                <out>40947</out>
                <start>40880</start>
                <end>40947</end>
                <file id="src-2"/>
                <sourcetrack>
                  <mediatype>video</mediatype>
                  <trackindex>1</trackindex>
                </sourcetrack>
                <multiclip id="mcs-294">
                  <name>MCS-294</name>
                  <masterclipid>clip-master</masterclipid>
                  <collapsed>false</collapsed>
                  <angle>
                    <activevideoangle>false</activevideoangle>
                    <activeaudioangle>false</activeaudioangle>
                    <clip id="clip-1"/>
                  </angle>
                  <angle>
                    <activevideoangle>true</activevideoangle>
                    <activeaudioangle>true</activeaudioangle>
                    <clip id="clip-2"/>
                  </angle>
                  <angle>
                    <activevideoangle>false</activevideoangle>
                    <activeaudioangle>false</activeaudioangle>
                    <clip id="clip-3"/>
                  </angle>
                  <angle>
                    <activevideoangle>false</activevideoangle>
                    <activeaudioangle>false</activeaudioangle>
                    <clip id="clip-4"/>
                  </angle>
                  <angle>
                    <activevideoangle>false</activevideoangle>
                    <activeaudioangle>false</activeaudioangle>
                    <clip id="clip-5"/>
                  </angle>
                  <angle>
                    <activevideoangle>false</activevideoangle>
                    <activeaudioangle>false</activeaudioangle>
                    <clip id="clip-6"/>
                  </angle>
                  <angle>
                    <activevideoangle>false</activevideoangle>
                    <activeaudioangle>false</activeaudioangle>
                    <clip id="clip-7"/>
                  </angle>
                  <angle>
                    <activevideoangle>false</activevideoangle>
                    <activeaudioangle>false</activeaudioangle>
                    <clip id="clip-8"/>
                  </angle>
                  <angle>
                    <activevideoangle>false</activevideoangle>
                    <activeaudioangle>false</activeaudioangle>
                    <clip id="clip-9"/>
                  </angle>
                  <masterclipid>clip-master</masterclipid>
                </multiclip>
              </clipitem>
              <clipitem id="cs-295">
                <duration>358</duration>
                <rate>
                  <ntsc>false</ntsc>
                  <timebase>25</timebase>
                </rate>
                <in>40947</in>
                <out>41304</out>
                <start>40947</start>
                <end>41304</end>
                <file id="src-8"/>
                <sourcetrack>
                  <mediatype>video</mediatype>
                  <trackindex>1</trackindex>
                </sourcetrack>
                <multiclip id="mcs-295">
                  <name>MCS-295</name>
                  <masterclipid>clip-master</masterclipid>
                  <collapsed>false</collapsed>
                  <angle>
                    <activevideoangle>false</activevideoangle>
                    <activeaudioangle>false</activeaudioangle>
                    <clip id="clip-1"/>
                  </angle>
                  <angle>
                    <activevideoangle>false</activevideoangle>
                    <activeaudioangle>false</activeaudioangle>
                    <clip id="clip-2"/>
                  </angle>
                  <angle>
                    <activevideoangle>false</activevideoangle>
                    <activeaudioangle>false</activeaudioangle>
                    <clip id="clip-3"/>
                  </angle>
                  <angle>
                    <activevideoangle>false</activevideoangle>
                    <activeaudioangle>false</activeaudioangle>
                    <clip id="clip-4"/>
                  </angle>
                  <angle>
                    <activevideoangle>false</activevideoangle>
                    <activeaudioangle>false</activeaudioangle>
                    <clip id="clip-5"/>
                  </angle>
                  <angle>
                    <activevideoangle>false</activevideoangle>
                    <activeaudioangle>false</activeaudioangle>
                    <clip id="clip-6"/>
                  </angle>
                  <angle>
                    <activevideoangle>false</activevideoangle>
                    <activeaudioangle>false</activeaudioangle>
                    <clip id="clip-7"/>
                  </angle>
                  <angle>
                    <activevideoangle>true</activevideoangle>
                    <activeaudioangle>true</activeaudioangle>
                    <clip id="clip-8"/>
                  </angle>
                  <angle>
                    <activevideoangle>false</activevideoangle>
                    <activeaudioangle>false</activeaudioangle>
                    <clip id="clip-9"/>
                  </angle>
                  <masterclipid>clip-master</masterclipid>
                </multiclip>
              </clipitem>
              <clipitem id="cs-296">
                <duration>181</duration>
                <rate>
                  <ntsc>false</ntsc>
                  <timebase>25</timebase>
                </rate>
                <in>41304</in>
                <out>41484</out>
                <start>41304</start>
                <end>41484</end>
                <file id="src-2"/>
                <sourcetrack>
                  <mediatype>video</mediatype>
                  <trackindex>1</trackindex>
                </sourcetrack>
                <multiclip id="mcs-296">
                  <name>MCS-296</name>
                  <masterclipid>clip-master</masterclipid>
                  <collapsed>false</collapsed>
                  <angle>
                    <activevideoangle>false</activevideoangle>
                    <activeaudioangle>false</activeaudioangle>
                    <clip id="clip-1"/>
                  </angle>
                  <angle>
                    <activevideoangle>true</activevideoangle>
                    <activeaudioangle>true</activeaudioangle>
                    <clip id="clip-2"/>
                  </angle>
                  <angle>
                    <activevideoangle>false</activevideoangle>
                    <activeaudioangle>false</activeaudioangle>
                    <clip id="clip-3"/>
                  </angle>
                  <angle>
                    <activevideoangle>false</activevideoangle>
                    <activeaudioangle>false</activeaudioangle>
                    <clip id="clip-4"/>
                  </angle>
                  <angle>
                    <activevideoangle>false</activevideoangle>
                    <activeaudioangle>false</activeaudioangle>
                    <clip id="clip-5"/>
                  </angle>
                  <angle>
                    <activevideoangle>false</activevideoangle>
                    <activeaudioangle>false</activeaudioangle>
                    <clip id="clip-6"/>
                  </angle>
                  <angle>
                    <activevideoangle>false</activevideoangle>
                    <activeaudioangle>false</activeaudioangle>
                    <clip id="clip-7"/>
                  </angle>
                  <angle>
                    <activevideoangle>false</activevideoangle>
                    <activeaudioangle>false</activeaudioangle>
                    <clip id="clip-8"/>
                  </angle>
                  <angle>
                    <activevideoangle>false</activevideoangle>
                    <activeaudioangle>false</activeaudioangle>
                    <clip id="clip-9"/>
                  </angle>
                  <masterclipid>clip-master</masterclipid>
                </multiclip>
              </clipitem>
              <clipitem id="cs-297">
                <duration>258</duration>
                <rate>
                  <ntsc>false</ntsc>
                  <timebase>25</timebase>
                </rate>
                <in>41484</in>
                <out>41741</out>
                <start>41484</start>
                <end>41741</end>
                <file id="src-8"/>
                <sourcetrack>
                  <mediatype>video</mediatype>
                  <trackindex>1</trackindex>
                </sourcetrack>
                <multiclip id="mcs-297">
                  <name>MCS-297</name>
                  <masterclipid>clip-master</masterclipid>
                  <collapsed>false</collapsed>
                  <angle>
                    <activevideoangle>false</activevideoangle>
                    <activeaudioangle>false</activeaudioangle>
                    <clip id="clip-1"/>
                  </angle>
                  <angle>
                    <activevideoangle>false</activevideoangle>
                    <activeaudioangle>false</activeaudioangle>
                    <clip id="clip-2"/>
                  </angle>
                  <angle>
                    <activevideoangle>false</activevideoangle>
                    <activeaudioangle>false</activeaudioangle>
                    <clip id="clip-3"/>
                  </angle>
                  <angle>
                    <activevideoangle>false</activevideoangle>
                    <activeaudioangle>false</activeaudioangle>
                    <clip id="clip-4"/>
                  </angle>
                  <angle>
                    <activevideoangle>false</activevideoangle>
                    <activeaudioangle>false</activeaudioangle>
                    <clip id="clip-5"/>
                  </angle>
                  <angle>
                    <activevideoangle>false</activevideoangle>
                    <activeaudioangle>false</activeaudioangle>
                    <clip id="clip-6"/>
                  </angle>
                  <angle>
                    <activevideoangle>false</activevideoangle>
                    <activeaudioangle>false</activeaudioangle>
                    <clip id="clip-7"/>
                  </angle>
                  <angle>
                    <activevideoangle>true</activevideoangle>
                    <activeaudioangle>true</activeaudioangle>
                    <clip id="clip-8"/>
                  </angle>
                  <angle>
                    <activevideoangle>false</activevideoangle>
                    <activeaudioangle>false</activeaudioangle>
                    <clip id="clip-9"/>
                  </angle>
                  <masterclipid>clip-master</masterclipid>
                </multiclip>
              </clipitem>
              <clipitem id="cs-298">
                <duration>151</duration>
                <rate>
                  <ntsc>false</ntsc>
                  <timebase>25</timebase>
                </rate>
                <in>41741</in>
                <out>41891</out>
                <start>41741</start>
                <end>41891</end>
                <file id="src-6"/>
                <sourcetrack>
                  <mediatype>video</mediatype>
                  <trackindex>1</trackindex>
                </sourcetrack>
                <multiclip id="mcs-298">
                  <name>MCS-298</name>
                  <masterclipid>clip-master</masterclipid>
                  <collapsed>false</collapsed>
                  <angle>
                    <activevideoangle>false</activevideoangle>
                    <activeaudioangle>false</activeaudioangle>
                    <clip id="clip-1"/>
                  </angle>
                  <angle>
                    <activevideoangle>false</activevideoangle>
                    <activeaudioangle>false</activeaudioangle>
                    <clip id="clip-2"/>
                  </angle>
                  <angle>
                    <activevideoangle>false</activevideoangle>
                    <activeaudioangle>false</activeaudioangle>
                    <clip id="clip-3"/>
                  </angle>
                  <angle>
                    <activevideoangle>false</activevideoangle>
                    <activeaudioangle>false</activeaudioangle>
                    <clip id="clip-4"/>
                  </angle>
                  <angle>
                    <activevideoangle>false</activevideoangle>
                    <activeaudioangle>false</activeaudioangle>
                    <clip id="clip-5"/>
                  </angle>
                  <angle>
                    <activevideoangle>true</activevideoangle>
                    <activeaudioangle>true</activeaudioangle>
                    <clip id="clip-6"/>
                  </angle>
                  <angle>
                    <activevideoangle>false</activevideoangle>
                    <activeaudioangle>false</activeaudioangle>
                    <clip id="clip-7"/>
                  </angle>
                  <angle>
                    <activevideoangle>false</activevideoangle>
                    <activeaudioangle>false</activeaudioangle>
                    <clip id="clip-8"/>
                  </angle>
                  <angle>
                    <activevideoangle>false</activevideoangle>
                    <activeaudioangle>false</activeaudioangle>
                    <clip id="clip-9"/>
                  </angle>
                  <masterclipid>clip-master</masterclipid>
                </multiclip>
              </clipitem>
              <clipitem id="cs-299">
                <duration>493</duration>
                <rate>
                  <ntsc>false</ntsc>
                  <timebase>25</timebase>
                </rate>
                <in>41891</in>
                <out>42383</out>
                <start>41891</start>
                <end>42383</end>
                <file id="src-8"/>
                <sourcetrack>
                  <mediatype>video</mediatype>
                  <trackindex>1</trackindex>
                </sourcetrack>
                <multiclip id="mcs-299">
                  <name>MCS-299</name>
                  <masterclipid>clip-master</masterclipid>
                  <collapsed>false</collapsed>
                  <angle>
                    <activevideoangle>false</activevideoangle>
                    <activeaudioangle>false</activeaudioangle>
                    <clip id="clip-1"/>
                  </angle>
                  <angle>
                    <activevideoangle>false</activevideoangle>
                    <activeaudioangle>false</activeaudioangle>
                    <clip id="clip-2"/>
                  </angle>
                  <angle>
                    <activevideoangle>false</activevideoangle>
                    <activeaudioangle>false</activeaudioangle>
                    <clip id="clip-3"/>
                  </angle>
                  <angle>
                    <activevideoangle>false</activevideoangle>
                    <activeaudioangle>false</activeaudioangle>
                    <clip id="clip-4"/>
                  </angle>
                  <angle>
                    <activevideoangle>false</activevideoangle>
                    <activeaudioangle>false</activeaudioangle>
                    <clip id="clip-5"/>
                  </angle>
                  <angle>
                    <activevideoangle>false</activevideoangle>
                    <activeaudioangle>false</activeaudioangle>
                    <clip id="clip-6"/>
                  </angle>
                  <angle>
                    <activevideoangle>false</activevideoangle>
                    <activeaudioangle>false</activeaudioangle>
                    <clip id="clip-7"/>
                  </angle>
                  <angle>
                    <activevideoangle>true</activevideoangle>
                    <activeaudioangle>true</activeaudioangle>
                    <clip id="clip-8"/>
                  </angle>
                  <angle>
                    <activevideoangle>false</activevideoangle>
                    <activeaudioangle>false</activeaudioangle>
                    <clip id="clip-9"/>
                  </angle>
                  <masterclipid>clip-master</masterclipid>
                </multiclip>
              </clipitem>
              <clipitem id="cs-300">
                <duration>59</duration>
                <rate>
                  <ntsc>false</ntsc>
                  <timebase>25</timebase>
                </rate>
                <in>42383</in>
                <out>42441</out>
                <start>42383</start>
                <end>42441</end>
                <file id="src-4"/>
                <sourcetrack>
                  <mediatype>video</mediatype>
                  <trackindex>1</trackindex>
                </sourcetrack>
                <multiclip id="mcs-300">
                  <name>MCS-300</name>
                  <masterclipid>clip-master</masterclipid>
                  <collapsed>false</collapsed>
                  <angle>
                    <activevideoangle>false</activevideoangle>
                    <activeaudioangle>false</activeaudioangle>
                    <clip id="clip-1"/>
                  </angle>
                  <angle>
                    <activevideoangle>false</activevideoangle>
                    <activeaudioangle>false</activeaudioangle>
                    <clip id="clip-2"/>
                  </angle>
                  <angle>
                    <activevideoangle>false</activevideoangle>
                    <activeaudioangle>false</activeaudioangle>
                    <clip id="clip-3"/>
                  </angle>
                  <angle>
                    <activevideoangle>true</activevideoangle>
                    <activeaudioangle>true</activeaudioangle>
                    <clip id="clip-4"/>
                  </angle>
                  <angle>
                    <activevideoangle>false</activevideoangle>
                    <activeaudioangle>false</activeaudioangle>
                    <clip id="clip-5"/>
                  </angle>
                  <angle>
                    <activevideoangle>false</activevideoangle>
                    <activeaudioangle>false</activeaudioangle>
                    <clip id="clip-6"/>
                  </angle>
                  <angle>
                    <activevideoangle>false</activevideoangle>
                    <activeaudioangle>false</activeaudioangle>
                    <clip id="clip-7"/>
                  </angle>
                  <angle>
                    <activevideoangle>false</activevideoangle>
                    <activeaudioangle>false</activeaudioangle>
                    <clip id="clip-8"/>
                  </angle>
                  <angle>
                    <activevideoangle>false</activevideoangle>
                    <activeaudioangle>false</activeaudioangle>
                    <clip id="clip-9"/>
                  </angle>
                  <masterclipid>clip-master</masterclipid>
                </multiclip>
              </clipitem>
              <clipitem id="cs-301">
                <duration>316</duration>
                <rate>
                  <ntsc>false</ntsc>
                  <timebase>25</timebase>
                </rate>
                <in>42441</in>
                <out>42756</out>
                <start>42441</start>
                <end>42756</end>
                <file id="src-3"/>
                <sourcetrack>
                  <mediatype>video</mediatype>
                  <trackindex>1</trackindex>
                </sourcetrack>
                <multiclip id="mcs-301">
                  <name>MCS-301</name>
                  <masterclipid>clip-master</masterclipid>
                  <collapsed>false</collapsed>
                  <angle>
                    <activevideoangle>false</activevideoangle>
                    <activeaudioangle>false</activeaudioangle>
                    <clip id="clip-1"/>
                  </angle>
                  <angle>
                    <activevideoangle>false</activevideoangle>
                    <activeaudioangle>false</activeaudioangle>
                    <clip id="clip-2"/>
                  </angle>
                  <angle>
                    <activevideoangle>true</activevideoangle>
                    <activeaudioangle>true</activeaudioangle>
                    <clip id="clip-3"/>
                  </angle>
                  <angle>
                    <activevideoangle>false</activevideoangle>
                    <activeaudioangle>false</activeaudioangle>
                    <clip id="clip-4"/>
                  </angle>
                  <angle>
                    <activevideoangle>false</activevideoangle>
                    <activeaudioangle>false</activeaudioangle>
                    <clip id="clip-5"/>
                  </angle>
                  <angle>
                    <activevideoangle>false</activevideoangle>
                    <activeaudioangle>false</activeaudioangle>
                    <clip id="clip-6"/>
                  </angle>
                  <angle>
                    <activevideoangle>false</activevideoangle>
                    <activeaudioangle>false</activeaudioangle>
                    <clip id="clip-7"/>
                  </angle>
                  <angle>
                    <activevideoangle>false</activevideoangle>
                    <activeaudioangle>false</activeaudioangle>
                    <clip id="clip-8"/>
                  </angle>
                  <angle>
                    <activevideoangle>false</activevideoangle>
                    <activeaudioangle>false</activeaudioangle>
                    <clip id="clip-9"/>
                  </angle>
                  <masterclipid>clip-master</masterclipid>
                </multiclip>
              </clipitem>
              <clipitem id="cs-302">
                <duration>268</duration>
                <rate>
                  <ntsc>false</ntsc>
                  <timebase>25</timebase>
                </rate>
                <in>42756</in>
                <out>43023</out>
                <start>42756</start>
                <end>43023</end>
                <file id="src-8"/>
                <sourcetrack>
                  <mediatype>video</mediatype>
                  <trackindex>1</trackindex>
                </sourcetrack>
                <multiclip id="mcs-302">
                  <name>MCS-302</name>
                  <masterclipid>clip-master</masterclipid>
                  <collapsed>false</collapsed>
                  <angle>
                    <activevideoangle>false</activevideoangle>
                    <activeaudioangle>false</activeaudioangle>
                    <clip id="clip-1"/>
                  </angle>
                  <angle>
                    <activevideoangle>false</activevideoangle>
                    <activeaudioangle>false</activeaudioangle>
                    <clip id="clip-2"/>
                  </angle>
                  <angle>
                    <activevideoangle>false</activevideoangle>
                    <activeaudioangle>false</activeaudioangle>
                    <clip id="clip-3"/>
                  </angle>
                  <angle>
                    <activevideoangle>false</activevideoangle>
                    <activeaudioangle>false</activeaudioangle>
                    <clip id="clip-4"/>
                  </angle>
                  <angle>
                    <activevideoangle>false</activevideoangle>
                    <activeaudioangle>false</activeaudioangle>
                    <clip id="clip-5"/>
                  </angle>
                  <angle>
                    <activevideoangle>false</activevideoangle>
                    <activeaudioangle>false</activeaudioangle>
                    <clip id="clip-6"/>
                  </angle>
                  <angle>
                    <activevideoangle>false</activevideoangle>
                    <activeaudioangle>false</activeaudioangle>
                    <clip id="clip-7"/>
                  </angle>
                  <angle>
                    <activevideoangle>true</activevideoangle>
                    <activeaudioangle>true</activeaudioangle>
                    <clip id="clip-8"/>
                  </angle>
                  <angle>
                    <activevideoangle>false</activevideoangle>
                    <activeaudioangle>false</activeaudioangle>
                    <clip id="clip-9"/>
                  </angle>
                  <masterclipid>clip-master</masterclipid>
                </multiclip>
              </clipitem>
              <clipitem id="cs-303">
                <duration>67</duration>
                <rate>
                  <ntsc>false</ntsc>
                  <timebase>25</timebase>
                </rate>
                <in>43023</in>
                <out>43089</out>
                <start>43023</start>
                <end>43089</end>
                <file id="src-2"/>
                <sourcetrack>
                  <mediatype>video</mediatype>
                  <trackindex>1</trackindex>
                </sourcetrack>
                <multiclip id="mcs-303">
                  <name>MCS-303</name>
                  <masterclipid>clip-master</masterclipid>
                  <collapsed>false</collapsed>
                  <angle>
                    <activevideoangle>false</activevideoangle>
                    <activeaudioangle>false</activeaudioangle>
                    <clip id="clip-1"/>
                  </angle>
                  <angle>
                    <activevideoangle>true</activevideoangle>
                    <activeaudioangle>true</activeaudioangle>
                    <clip id="clip-2"/>
                  </angle>
                  <angle>
                    <activevideoangle>false</activevideoangle>
                    <activeaudioangle>false</activeaudioangle>
                    <clip id="clip-3"/>
                  </angle>
                  <angle>
                    <activevideoangle>false</activevideoangle>
                    <activeaudioangle>false</activeaudioangle>
                    <clip id="clip-4"/>
                  </angle>
                  <angle>
                    <activevideoangle>false</activevideoangle>
                    <activeaudioangle>false</activeaudioangle>
                    <clip id="clip-5"/>
                  </angle>
                  <angle>
                    <activevideoangle>false</activevideoangle>
                    <activeaudioangle>false</activeaudioangle>
                    <clip id="clip-6"/>
                  </angle>
                  <angle>
                    <activevideoangle>false</activevideoangle>
                    <activeaudioangle>false</activeaudioangle>
                    <clip id="clip-7"/>
                  </angle>
                  <angle>
                    <activevideoangle>false</activevideoangle>
                    <activeaudioangle>false</activeaudioangle>
                    <clip id="clip-8"/>
                  </angle>
                  <angle>
                    <activevideoangle>false</activevideoangle>
                    <activeaudioangle>false</activeaudioangle>
                    <clip id="clip-9"/>
                  </angle>
                  <masterclipid>clip-master</masterclipid>
                </multiclip>
              </clipitem>
              <clipitem id="cs-304">
                <duration>69</duration>
                <rate>
                  <ntsc>false</ntsc>
                  <timebase>25</timebase>
                </rate>
                <in>43089</in>
                <out>43157</out>
                <start>43089</start>
                <end>43157</end>
                <file id="src-3"/>
                <sourcetrack>
                  <mediatype>video</mediatype>
                  <trackindex>1</trackindex>
                </sourcetrack>
                <multiclip id="mcs-304">
                  <name>MCS-304</name>
                  <masterclipid>clip-master</masterclipid>
                  <collapsed>false</collapsed>
                  <angle>
                    <activevideoangle>false</activevideoangle>
                    <activeaudioangle>false</activeaudioangle>
                    <clip id="clip-1"/>
                  </angle>
                  <angle>
                    <activevideoangle>false</activevideoangle>
                    <activeaudioangle>false</activeaudioangle>
                    <clip id="clip-2"/>
                  </angle>
                  <angle>
                    <activevideoangle>true</activevideoangle>
                    <activeaudioangle>true</activeaudioangle>
                    <clip id="clip-3"/>
                  </angle>
                  <angle>
                    <activevideoangle>false</activevideoangle>
                    <activeaudioangle>false</activeaudioangle>
                    <clip id="clip-4"/>
                  </angle>
                  <angle>
                    <activevideoangle>false</activevideoangle>
                    <activeaudioangle>false</activeaudioangle>
                    <clip id="clip-5"/>
                  </angle>
                  <angle>
                    <activevideoangle>false</activevideoangle>
                    <activeaudioangle>false</activeaudioangle>
                    <clip id="clip-6"/>
                  </angle>
                  <angle>
                    <activevideoangle>false</activevideoangle>
                    <activeaudioangle>false</activeaudioangle>
                    <clip id="clip-7"/>
                  </angle>
                  <angle>
                    <activevideoangle>false</activevideoangle>
                    <activeaudioangle>false</activeaudioangle>
                    <clip id="clip-8"/>
                  </angle>
                  <angle>
                    <activevideoangle>false</activevideoangle>
                    <activeaudioangle>false</activeaudioangle>
                    <clip id="clip-9"/>
                  </angle>
                  <masterclipid>clip-master</masterclipid>
                </multiclip>
              </clipitem>
              <clipitem id="cs-305">
                <duration>248</duration>
                <rate>
                  <ntsc>false</ntsc>
                  <timebase>25</timebase>
                </rate>
                <in>43157</in>
                <out>43404</out>
                <start>43157</start>
                <end>43404</end>
                <file id="src-8"/>
                <sourcetrack>
                  <mediatype>video</mediatype>
                  <trackindex>1</trackindex>
                </sourcetrack>
                <multiclip id="mcs-305">
                  <name>MCS-305</name>
                  <masterclipid>clip-master</masterclipid>
                  <collapsed>false</collapsed>
                  <angle>
                    <activevideoangle>false</activevideoangle>
                    <activeaudioangle>false</activeaudioangle>
                    <clip id="clip-1"/>
                  </angle>
                  <angle>
                    <activevideoangle>false</activevideoangle>
                    <activeaudioangle>false</activeaudioangle>
                    <clip id="clip-2"/>
                  </angle>
                  <angle>
                    <activevideoangle>false</activevideoangle>
                    <activeaudioangle>false</activeaudioangle>
                    <clip id="clip-3"/>
                  </angle>
                  <angle>
                    <activevideoangle>false</activevideoangle>
                    <activeaudioangle>false</activeaudioangle>
                    <clip id="clip-4"/>
                  </angle>
                  <angle>
                    <activevideoangle>false</activevideoangle>
                    <activeaudioangle>false</activeaudioangle>
                    <clip id="clip-5"/>
                  </angle>
                  <angle>
                    <activevideoangle>false</activevideoangle>
                    <activeaudioangle>false</activeaudioangle>
                    <clip id="clip-6"/>
                  </angle>
                  <angle>
                    <activevideoangle>false</activevideoangle>
                    <activeaudioangle>false</activeaudioangle>
                    <clip id="clip-7"/>
                  </angle>
                  <angle>
                    <activevideoangle>true</activevideoangle>
                    <activeaudioangle>true</activeaudioangle>
                    <clip id="clip-8"/>
                  </angle>
                  <angle>
                    <activevideoangle>false</activevideoangle>
                    <activeaudioangle>false</activeaudioangle>
                    <clip id="clip-9"/>
                  </angle>
                  <masterclipid>clip-master</masterclipid>
                </multiclip>
              </clipitem>
              <clipitem id="cs-306">
                <duration>78</duration>
                <rate>
                  <ntsc>false</ntsc>
                  <timebase>25</timebase>
                </rate>
                <in>43404</in>
                <out>43481</out>
                <start>43404</start>
                <end>43481</end>
                <file id="src-3"/>
                <sourcetrack>
                  <mediatype>video</mediatype>
                  <trackindex>1</trackindex>
                </sourcetrack>
                <multiclip id="mcs-306">
                  <name>MCS-306</name>
                  <masterclipid>clip-master</masterclipid>
                  <collapsed>false</collapsed>
                  <angle>
                    <activevideoangle>false</activevideoangle>
                    <activeaudioangle>false</activeaudioangle>
                    <clip id="clip-1"/>
                  </angle>
                  <angle>
                    <activevideoangle>false</activevideoangle>
                    <activeaudioangle>false</activeaudioangle>
                    <clip id="clip-2"/>
                  </angle>
                  <angle>
                    <activevideoangle>true</activevideoangle>
                    <activeaudioangle>true</activeaudioangle>
                    <clip id="clip-3"/>
                  </angle>
                  <angle>
                    <activevideoangle>false</activevideoangle>
                    <activeaudioangle>false</activeaudioangle>
                    <clip id="clip-4"/>
                  </angle>
                  <angle>
                    <activevideoangle>false</activevideoangle>
                    <activeaudioangle>false</activeaudioangle>
                    <clip id="clip-5"/>
                  </angle>
                  <angle>
                    <activevideoangle>false</activevideoangle>
                    <activeaudioangle>false</activeaudioangle>
                    <clip id="clip-6"/>
                  </angle>
                  <angle>
                    <activevideoangle>false</activevideoangle>
                    <activeaudioangle>false</activeaudioangle>
                    <clip id="clip-7"/>
                  </angle>
                  <angle>
                    <activevideoangle>false</activevideoangle>
                    <activeaudioangle>false</activeaudioangle>
                    <clip id="clip-8"/>
                  </angle>
                  <angle>
                    <activevideoangle>false</activevideoangle>
                    <activeaudioangle>false</activeaudioangle>
                    <clip id="clip-9"/>
                  </angle>
                  <masterclipid>clip-master</masterclipid>
                </multiclip>
              </clipitem>
              <clipitem id="cs-307">
                <duration>179</duration>
                <rate>
                  <ntsc>false</ntsc>
                  <timebase>25</timebase>
                </rate>
                <in>43481</in>
                <out>43659</out>
                <start>43481</start>
                <end>43659</end>
                <file id="src-8"/>
                <sourcetrack>
                  <mediatype>video</mediatype>
                  <trackindex>1</trackindex>
                </sourcetrack>
                <multiclip id="mcs-307">
                  <name>MCS-307</name>
                  <masterclipid>clip-master</masterclipid>
                  <collapsed>false</collapsed>
                  <angle>
                    <activevideoangle>false</activevideoangle>
                    <activeaudioangle>false</activeaudioangle>
                    <clip id="clip-1"/>
                  </angle>
                  <angle>
                    <activevideoangle>false</activevideoangle>
                    <activeaudioangle>false</activeaudioangle>
                    <clip id="clip-2"/>
                  </angle>
                  <angle>
                    <activevideoangle>false</activevideoangle>
                    <activeaudioangle>false</activeaudioangle>
                    <clip id="clip-3"/>
                  </angle>
                  <angle>
                    <activevideoangle>false</activevideoangle>
                    <activeaudioangle>false</activeaudioangle>
                    <clip id="clip-4"/>
                  </angle>
                  <angle>
                    <activevideoangle>false</activevideoangle>
                    <activeaudioangle>false</activeaudioangle>
                    <clip id="clip-5"/>
                  </angle>
                  <angle>
                    <activevideoangle>false</activevideoangle>
                    <activeaudioangle>false</activeaudioangle>
                    <clip id="clip-6"/>
                  </angle>
                  <angle>
                    <activevideoangle>false</activevideoangle>
                    <activeaudioangle>false</activeaudioangle>
                    <clip id="clip-7"/>
                  </angle>
                  <angle>
                    <activevideoangle>true</activevideoangle>
                    <activeaudioangle>true</activeaudioangle>
                    <clip id="clip-8"/>
                  </angle>
                  <angle>
                    <activevideoangle>false</activevideoangle>
                    <activeaudioangle>false</activeaudioangle>
                    <clip id="clip-9"/>
                  </angle>
                  <masterclipid>clip-master</masterclipid>
                </multiclip>
              </clipitem>
              <clipitem id="cs-308">
                <duration>118</duration>
                <rate>
                  <ntsc>false</ntsc>
                  <timebase>25</timebase>
                </rate>
                <in>43659</in>
                <out>43776</out>
                <start>43659</start>
                <end>43776</end>
                <file id="src-3"/>
                <sourcetrack>
                  <mediatype>video</mediatype>
                  <trackindex>1</trackindex>
                </sourcetrack>
                <multiclip id="mcs-308">
                  <name>MCS-308</name>
                  <masterclipid>clip-master</masterclipid>
                  <collapsed>false</collapsed>
                  <angle>
                    <activevideoangle>false</activevideoangle>
                    <activeaudioangle>false</activeaudioangle>
                    <clip id="clip-1"/>
                  </angle>
                  <angle>
                    <activevideoangle>false</activevideoangle>
                    <activeaudioangle>false</activeaudioangle>
                    <clip id="clip-2"/>
                  </angle>
                  <angle>
                    <activevideoangle>true</activevideoangle>
                    <activeaudioangle>true</activeaudioangle>
                    <clip id="clip-3"/>
                  </angle>
                  <angle>
                    <activevideoangle>false</activevideoangle>
                    <activeaudioangle>false</activeaudioangle>
                    <clip id="clip-4"/>
                  </angle>
                  <angle>
                    <activevideoangle>false</activevideoangle>
                    <activeaudioangle>false</activeaudioangle>
                    <clip id="clip-5"/>
                  </angle>
                  <angle>
                    <activevideoangle>false</activevideoangle>
                    <activeaudioangle>false</activeaudioangle>
                    <clip id="clip-6"/>
                  </angle>
                  <angle>
                    <activevideoangle>false</activevideoangle>
                    <activeaudioangle>false</activeaudioangle>
                    <clip id="clip-7"/>
                  </angle>
                  <angle>
                    <activevideoangle>false</activevideoangle>
                    <activeaudioangle>false</activeaudioangle>
                    <clip id="clip-8"/>
                  </angle>
                  <angle>
                    <activevideoangle>false</activevideoangle>
                    <activeaudioangle>false</activeaudioangle>
                    <clip id="clip-9"/>
                  </angle>
                  <masterclipid>clip-master</masterclipid>
                </multiclip>
              </clipitem>
              <clipitem id="cs-309">
                <duration>465</duration>
                <rate>
                  <ntsc>false</ntsc>
                  <timebase>25</timebase>
                </rate>
                <in>43776</in>
                <out>44240</out>
                <start>43776</start>
                <end>44240</end>
                <file id="src-8"/>
                <sourcetrack>
                  <mediatype>video</mediatype>
                  <trackindex>1</trackindex>
                </sourcetrack>
                <multiclip id="mcs-309">
                  <name>MCS-309</name>
                  <masterclipid>clip-master</masterclipid>
                  <collapsed>false</collapsed>
                  <angle>
                    <activevideoangle>false</activevideoangle>
                    <activeaudioangle>false</activeaudioangle>
                    <clip id="clip-1"/>
                  </angle>
                  <angle>
                    <activevideoangle>false</activevideoangle>
                    <activeaudioangle>false</activeaudioangle>
                    <clip id="clip-2"/>
                  </angle>
                  <angle>
                    <activevideoangle>false</activevideoangle>
                    <activeaudioangle>false</activeaudioangle>
                    <clip id="clip-3"/>
                  </angle>
                  <angle>
                    <activevideoangle>false</activevideoangle>
                    <activeaudioangle>false</activeaudioangle>
                    <clip id="clip-4"/>
                  </angle>
                  <angle>
                    <activevideoangle>false</activevideoangle>
                    <activeaudioangle>false</activeaudioangle>
                    <clip id="clip-5"/>
                  </angle>
                  <angle>
                    <activevideoangle>false</activevideoangle>
                    <activeaudioangle>false</activeaudioangle>
                    <clip id="clip-6"/>
                  </angle>
                  <angle>
                    <activevideoangle>false</activevideoangle>
                    <activeaudioangle>false</activeaudioangle>
                    <clip id="clip-7"/>
                  </angle>
                  <angle>
                    <activevideoangle>true</activevideoangle>
                    <activeaudioangle>true</activeaudioangle>
                    <clip id="clip-8"/>
                  </angle>
                  <angle>
                    <activevideoangle>false</activevideoangle>
                    <activeaudioangle>false</activeaudioangle>
                    <clip id="clip-9"/>
                  </angle>
                  <masterclipid>clip-master</masterclipid>
                </multiclip>
              </clipitem>
              <clipitem id="cs-310">
                <duration>206</duration>
                <rate>
                  <ntsc>false</ntsc>
                  <timebase>25</timebase>
                </rate>
                <in>44240</in>
                <out>44445</out>
                <start>44240</start>
                <end>44445</end>
                <file id="src-3"/>
                <sourcetrack>
                  <mediatype>video</mediatype>
                  <trackindex>1</trackindex>
                </sourcetrack>
                <multiclip id="mcs-310">
                  <name>MCS-310</name>
                  <masterclipid>clip-master</masterclipid>
                  <collapsed>false</collapsed>
                  <angle>
                    <activevideoangle>false</activevideoangle>
                    <activeaudioangle>false</activeaudioangle>
                    <clip id="clip-1"/>
                  </angle>
                  <angle>
                    <activevideoangle>false</activevideoangle>
                    <activeaudioangle>false</activeaudioangle>
                    <clip id="clip-2"/>
                  </angle>
                  <angle>
                    <activevideoangle>true</activevideoangle>
                    <activeaudioangle>true</activeaudioangle>
                    <clip id="clip-3"/>
                  </angle>
                  <angle>
                    <activevideoangle>false</activevideoangle>
                    <activeaudioangle>false</activeaudioangle>
                    <clip id="clip-4"/>
                  </angle>
                  <angle>
                    <activevideoangle>false</activevideoangle>
                    <activeaudioangle>false</activeaudioangle>
                    <clip id="clip-5"/>
                  </angle>
                  <angle>
                    <activevideoangle>false</activevideoangle>
                    <activeaudioangle>false</activeaudioangle>
                    <clip id="clip-6"/>
                  </angle>
                  <angle>
                    <activevideoangle>false</activevideoangle>
                    <activeaudioangle>false</activeaudioangle>
                    <clip id="clip-7"/>
                  </angle>
                  <angle>
                    <activevideoangle>false</activevideoangle>
                    <activeaudioangle>false</activeaudioangle>
                    <clip id="clip-8"/>
                  </angle>
                  <angle>
                    <activevideoangle>false</activevideoangle>
                    <activeaudioangle>false</activeaudioangle>
                    <clip id="clip-9"/>
                  </angle>
                  <masterclipid>clip-master</masterclipid>
                </multiclip>
              </clipitem>
              <clipitem id="cs-311">
                <duration>99</duration>
                <rate>
                  <ntsc>false</ntsc>
                  <timebase>25</timebase>
                </rate>
                <in>44445</in>
                <out>44543</out>
                <start>44445</start>
                <end>44543</end>
                <file id="src-6"/>
                <sourcetrack>
                  <mediatype>video</mediatype>
                  <trackindex>1</trackindex>
                </sourcetrack>
                <multiclip id="mcs-311">
                  <name>MCS-311</name>
                  <masterclipid>clip-master</masterclipid>
                  <collapsed>false</collapsed>
                  <angle>
                    <activevideoangle>false</activevideoangle>
                    <activeaudioangle>false</activeaudioangle>
                    <clip id="clip-1"/>
                  </angle>
                  <angle>
                    <activevideoangle>false</activevideoangle>
                    <activeaudioangle>false</activeaudioangle>
                    <clip id="clip-2"/>
                  </angle>
                  <angle>
                    <activevideoangle>false</activevideoangle>
                    <activeaudioangle>false</activeaudioangle>
                    <clip id="clip-3"/>
                  </angle>
                  <angle>
                    <activevideoangle>false</activevideoangle>
                    <activeaudioangle>false</activeaudioangle>
                    <clip id="clip-4"/>
                  </angle>
                  <angle>
                    <activevideoangle>false</activevideoangle>
                    <activeaudioangle>false</activeaudioangle>
                    <clip id="clip-5"/>
                  </angle>
                  <angle>
                    <activevideoangle>true</activevideoangle>
                    <activeaudioangle>true</activeaudioangle>
                    <clip id="clip-6"/>
                  </angle>
                  <angle>
                    <activevideoangle>false</activevideoangle>
                    <activeaudioangle>false</activeaudioangle>
                    <clip id="clip-7"/>
                  </angle>
                  <angle>
                    <activevideoangle>false</activevideoangle>
                    <activeaudioangle>false</activeaudioangle>
                    <clip id="clip-8"/>
                  </angle>
                  <angle>
                    <activevideoangle>false</activevideoangle>
                    <activeaudioangle>false</activeaudioangle>
                    <clip id="clip-9"/>
                  </angle>
                  <masterclipid>clip-master</masterclipid>
                </multiclip>
              </clipitem>
              <clipitem id="cs-312">
                <duration>341</duration>
                <rate>
                  <ntsc>false</ntsc>
                  <timebase>25</timebase>
                </rate>
                <in>44543</in>
                <out>44883</out>
                <start>44543</start>
                <end>44883</end>
                <file id="src-3"/>
                <sourcetrack>
                  <mediatype>video</mediatype>
                  <trackindex>1</trackindex>
                </sourcetrack>
                <multiclip id="mcs-312">
                  <name>MCS-312</name>
                  <masterclipid>clip-master</masterclipid>
                  <collapsed>false</collapsed>
                  <angle>
                    <activevideoangle>false</activevideoangle>
                    <activeaudioangle>false</activeaudioangle>
                    <clip id="clip-1"/>
                  </angle>
                  <angle>
                    <activevideoangle>false</activevideoangle>
                    <activeaudioangle>false</activeaudioangle>
                    <clip id="clip-2"/>
                  </angle>
                  <angle>
                    <activevideoangle>true</activevideoangle>
                    <activeaudioangle>true</activeaudioangle>
                    <clip id="clip-3"/>
                  </angle>
                  <angle>
                    <activevideoangle>false</activevideoangle>
                    <activeaudioangle>false</activeaudioangle>
                    <clip id="clip-4"/>
                  </angle>
                  <angle>
                    <activevideoangle>false</activevideoangle>
                    <activeaudioangle>false</activeaudioangle>
                    <clip id="clip-5"/>
                  </angle>
                  <angle>
                    <activevideoangle>false</activevideoangle>
                    <activeaudioangle>false</activeaudioangle>
                    <clip id="clip-6"/>
                  </angle>
                  <angle>
                    <activevideoangle>false</activevideoangle>
                    <activeaudioangle>false</activeaudioangle>
                    <clip id="clip-7"/>
                  </angle>
                  <angle>
                    <activevideoangle>false</activevideoangle>
                    <activeaudioangle>false</activeaudioangle>
                    <clip id="clip-8"/>
                  </angle>
                  <angle>
                    <activevideoangle>false</activevideoangle>
                    <activeaudioangle>false</activeaudioangle>
                    <clip id="clip-9"/>
                  </angle>
                  <masterclipid>clip-master</masterclipid>
                </multiclip>
              </clipitem>
              <clipitem id="cs-313">
                <duration>332</duration>
                <rate>
                  <ntsc>false</ntsc>
                  <timebase>25</timebase>
                </rate>
                <in>44883</in>
                <out>45214</out>
                <start>44883</start>
                <end>45214</end>
                <file id="src-1"/>
                <sourcetrack>
                  <mediatype>video</mediatype>
                  <trackindex>1</trackindex>
                </sourcetrack>
                <multiclip id="mcs-313">
                  <name>MCS-313</name>
                  <masterclipid>clip-master</masterclipid>
                  <collapsed>false</collapsed>
                  <angle>
                    <activevideoangle>true</activevideoangle>
                    <activeaudioangle>true</activeaudioangle>
                    <clip id="clip-1"/>
                  </angle>
                  <angle>
                    <activevideoangle>false</activevideoangle>
                    <activeaudioangle>false</activeaudioangle>
                    <clip id="clip-2"/>
                  </angle>
                  <angle>
                    <activevideoangle>false</activevideoangle>
                    <activeaudioangle>false</activeaudioangle>
                    <clip id="clip-3"/>
                  </angle>
                  <angle>
                    <activevideoangle>false</activevideoangle>
                    <activeaudioangle>false</activeaudioangle>
                    <clip id="clip-4"/>
                  </angle>
                  <angle>
                    <activevideoangle>false</activevideoangle>
                    <activeaudioangle>false</activeaudioangle>
                    <clip id="clip-5"/>
                  </angle>
                  <angle>
                    <activevideoangle>false</activevideoangle>
                    <activeaudioangle>false</activeaudioangle>
                    <clip id="clip-6"/>
                  </angle>
                  <angle>
                    <activevideoangle>false</activevideoangle>
                    <activeaudioangle>false</activeaudioangle>
                    <clip id="clip-7"/>
                  </angle>
                  <angle>
                    <activevideoangle>false</activevideoangle>
                    <activeaudioangle>false</activeaudioangle>
                    <clip id="clip-8"/>
                  </angle>
                  <angle>
                    <activevideoangle>false</activevideoangle>
                    <activeaudioangle>false</activeaudioangle>
                    <clip id="clip-9"/>
                  </angle>
                  <masterclipid>clip-master</masterclipid>
                </multiclip>
              </clipitem>
              <clipitem id="cs-314">
                <duration>550</duration>
                <rate>
                  <ntsc>false</ntsc>
                  <timebase>25</timebase>
                </rate>
                <in>45214</in>
                <out>45763</out>
                <start>45214</start>
                <end>45763</end>
                <file id="src-3"/>
                <sourcetrack>
                  <mediatype>video</mediatype>
                  <trackindex>1</trackindex>
                </sourcetrack>
                <multiclip id="mcs-314">
                  <name>MCS-314</name>
                  <masterclipid>clip-master</masterclipid>
                  <collapsed>false</collapsed>
                  <angle>
                    <activevideoangle>false</activevideoangle>
                    <activeaudioangle>false</activeaudioangle>
                    <clip id="clip-1"/>
                  </angle>
                  <angle>
                    <activevideoangle>false</activevideoangle>
                    <activeaudioangle>false</activeaudioangle>
                    <clip id="clip-2"/>
                  </angle>
                  <angle>
                    <activevideoangle>true</activevideoangle>
                    <activeaudioangle>true</activeaudioangle>
                    <clip id="clip-3"/>
                  </angle>
                  <angle>
                    <activevideoangle>false</activevideoangle>
                    <activeaudioangle>false</activeaudioangle>
                    <clip id="clip-4"/>
                  </angle>
                  <angle>
                    <activevideoangle>false</activevideoangle>
                    <activeaudioangle>false</activeaudioangle>
                    <clip id="clip-5"/>
                  </angle>
                  <angle>
                    <activevideoangle>false</activevideoangle>
                    <activeaudioangle>false</activeaudioangle>
                    <clip id="clip-6"/>
                  </angle>
                  <angle>
                    <activevideoangle>false</activevideoangle>
                    <activeaudioangle>false</activeaudioangle>
                    <clip id="clip-7"/>
                  </angle>
                  <angle>
                    <activevideoangle>false</activevideoangle>
                    <activeaudioangle>false</activeaudioangle>
                    <clip id="clip-8"/>
                  </angle>
                  <angle>
                    <activevideoangle>false</activevideoangle>
                    <activeaudioangle>false</activeaudioangle>
                    <clip id="clip-9"/>
                  </angle>
                  <masterclipid>clip-master</masterclipid>
                </multiclip>
              </clipitem>
              <clipitem id="cs-315">
                <duration>91</duration>
                <rate>
                  <ntsc>false</ntsc>
                  <timebase>25</timebase>
                </rate>
                <in>45763</in>
                <out>45853</out>
                <start>45763</start>
                <end>45853</end>
                <file id="src-6"/>
                <sourcetrack>
                  <mediatype>video</mediatype>
                  <trackindex>1</trackindex>
                </sourcetrack>
                <multiclip id="mcs-315">
                  <name>MCS-315</name>
                  <masterclipid>clip-master</masterclipid>
                  <collapsed>false</collapsed>
                  <angle>
                    <activevideoangle>false</activevideoangle>
                    <activeaudioangle>false</activeaudioangle>
                    <clip id="clip-1"/>
                  </angle>
                  <angle>
                    <activevideoangle>false</activevideoangle>
                    <activeaudioangle>false</activeaudioangle>
                    <clip id="clip-2"/>
                  </angle>
                  <angle>
                    <activevideoangle>false</activevideoangle>
                    <activeaudioangle>false</activeaudioangle>
                    <clip id="clip-3"/>
                  </angle>
                  <angle>
                    <activevideoangle>false</activevideoangle>
                    <activeaudioangle>false</activeaudioangle>
                    <clip id="clip-4"/>
                  </angle>
                  <angle>
                    <activevideoangle>false</activevideoangle>
                    <activeaudioangle>false</activeaudioangle>
                    <clip id="clip-5"/>
                  </angle>
                  <angle>
                    <activevideoangle>true</activevideoangle>
                    <activeaudioangle>true</activeaudioangle>
                    <clip id="clip-6"/>
                  </angle>
                  <angle>
                    <activevideoangle>false</activevideoangle>
                    <activeaudioangle>false</activeaudioangle>
                    <clip id="clip-7"/>
                  </angle>
                  <angle>
                    <activevideoangle>false</activevideoangle>
                    <activeaudioangle>false</activeaudioangle>
                    <clip id="clip-8"/>
                  </angle>
                  <angle>
                    <activevideoangle>false</activevideoangle>
                    <activeaudioangle>false</activeaudioangle>
                    <clip id="clip-9"/>
                  </angle>
                  <masterclipid>clip-master</masterclipid>
                </multiclip>
              </clipitem>
              <clipitem id="cs-316">
                <duration>460</duration>
                <rate>
                  <ntsc>false</ntsc>
                  <timebase>25</timebase>
                </rate>
                <in>45853</in>
                <out>46312</out>
                <start>45853</start>
                <end>46312</end>
                <file id="src-4"/>
                <sourcetrack>
                  <mediatype>video</mediatype>
                  <trackindex>1</trackindex>
                </sourcetrack>
                <multiclip id="mcs-316">
                  <name>MCS-316</name>
                  <masterclipid>clip-master</masterclipid>
                  <collapsed>false</collapsed>
                  <angle>
                    <activevideoangle>false</activevideoangle>
                    <activeaudioangle>false</activeaudioangle>
                    <clip id="clip-1"/>
                  </angle>
                  <angle>
                    <activevideoangle>false</activevideoangle>
                    <activeaudioangle>false</activeaudioangle>
                    <clip id="clip-2"/>
                  </angle>
                  <angle>
                    <activevideoangle>false</activevideoangle>
                    <activeaudioangle>false</activeaudioangle>
                    <clip id="clip-3"/>
                  </angle>
                  <angle>
                    <activevideoangle>true</activevideoangle>
                    <activeaudioangle>true</activeaudioangle>
                    <clip id="clip-4"/>
                  </angle>
                  <angle>
                    <activevideoangle>false</activevideoangle>
                    <activeaudioangle>false</activeaudioangle>
                    <clip id="clip-5"/>
                  </angle>
                  <angle>
                    <activevideoangle>false</activevideoangle>
                    <activeaudioangle>false</activeaudioangle>
                    <clip id="clip-6"/>
                  </angle>
                  <angle>
                    <activevideoangle>false</activevideoangle>
                    <activeaudioangle>false</activeaudioangle>
                    <clip id="clip-7"/>
                  </angle>
                  <angle>
                    <activevideoangle>false</activevideoangle>
                    <activeaudioangle>false</activeaudioangle>
                    <clip id="clip-8"/>
                  </angle>
                  <angle>
                    <activevideoangle>false</activevideoangle>
                    <activeaudioangle>false</activeaudioangle>
                    <clip id="clip-9"/>
                  </angle>
                  <masterclipid>clip-master</masterclipid>
                </multiclip>
              </clipitem>
              <clipitem id="cs-317">
                <duration>91</duration>
                <rate>
                  <ntsc>false</ntsc>
                  <timebase>25</timebase>
                </rate>
                <in>46312</in>
                <out>46402</out>
                <start>46312</start>
                <end>46402</end>
                <file id="src-6"/>
                <sourcetrack>
                  <mediatype>video</mediatype>
                  <trackindex>1</trackindex>
                </sourcetrack>
                <multiclip id="mcs-317">
                  <name>MCS-317</name>
                  <masterclipid>clip-master</masterclipid>
                  <collapsed>false</collapsed>
                  <angle>
                    <activevideoangle>false</activevideoangle>
                    <activeaudioangle>false</activeaudioangle>
                    <clip id="clip-1"/>
                  </angle>
                  <angle>
                    <activevideoangle>false</activevideoangle>
                    <activeaudioangle>false</activeaudioangle>
                    <clip id="clip-2"/>
                  </angle>
                  <angle>
                    <activevideoangle>false</activevideoangle>
                    <activeaudioangle>false</activeaudioangle>
                    <clip id="clip-3"/>
                  </angle>
                  <angle>
                    <activevideoangle>false</activevideoangle>
                    <activeaudioangle>false</activeaudioangle>
                    <clip id="clip-4"/>
                  </angle>
                  <angle>
                    <activevideoangle>false</activevideoangle>
                    <activeaudioangle>false</activeaudioangle>
                    <clip id="clip-5"/>
                  </angle>
                  <angle>
                    <activevideoangle>true</activevideoangle>
                    <activeaudioangle>true</activeaudioangle>
                    <clip id="clip-6"/>
                  </angle>
                  <angle>
                    <activevideoangle>false</activevideoangle>
                    <activeaudioangle>false</activeaudioangle>
                    <clip id="clip-7"/>
                  </angle>
                  <angle>
                    <activevideoangle>false</activevideoangle>
                    <activeaudioangle>false</activeaudioangle>
                    <clip id="clip-8"/>
                  </angle>
                  <angle>
                    <activevideoangle>false</activevideoangle>
                    <activeaudioangle>false</activeaudioangle>
                    <clip id="clip-9"/>
                  </angle>
                  <masterclipid>clip-master</masterclipid>
                </multiclip>
              </clipitem>
              <clipitem id="cs-318">
                <duration>1257</duration>
                <rate>
                  <ntsc>false</ntsc>
                  <timebase>25</timebase>
                </rate>
                <in>46402</in>
                <out>47658</out>
                <start>46402</start>
                <end>47658</end>
                <file id="src-3"/>
                <sourcetrack>
                  <mediatype>video</mediatype>
                  <trackindex>1</trackindex>
                </sourcetrack>
                <multiclip id="mcs-318">
                  <name>MCS-318</name>
                  <masterclipid>clip-master</masterclipid>
                  <collapsed>false</collapsed>
                  <angle>
                    <activevideoangle>false</activevideoangle>
                    <activeaudioangle>false</activeaudioangle>
                    <clip id="clip-1"/>
                  </angle>
                  <angle>
                    <activevideoangle>false</activevideoangle>
                    <activeaudioangle>false</activeaudioangle>
                    <clip id="clip-2"/>
                  </angle>
                  <angle>
                    <activevideoangle>true</activevideoangle>
                    <activeaudioangle>true</activeaudioangle>
                    <clip id="clip-3"/>
                  </angle>
                  <angle>
                    <activevideoangle>false</activevideoangle>
                    <activeaudioangle>false</activeaudioangle>
                    <clip id="clip-4"/>
                  </angle>
                  <angle>
                    <activevideoangle>false</activevideoangle>
                    <activeaudioangle>false</activeaudioangle>
                    <clip id="clip-5"/>
                  </angle>
                  <angle>
                    <activevideoangle>false</activevideoangle>
                    <activeaudioangle>false</activeaudioangle>
                    <clip id="clip-6"/>
                  </angle>
                  <angle>
                    <activevideoangle>false</activevideoangle>
                    <activeaudioangle>false</activeaudioangle>
                    <clip id="clip-7"/>
                  </angle>
                  <angle>
                    <activevideoangle>false</activevideoangle>
                    <activeaudioangle>false</activeaudioangle>
                    <clip id="clip-8"/>
                  </angle>
                  <angle>
                    <activevideoangle>false</activevideoangle>
                    <activeaudioangle>false</activeaudioangle>
                    <clip id="clip-9"/>
                  </angle>
                  <masterclipid>clip-master</masterclipid>
                </multiclip>
              </clipitem>
              <clipitem id="cs-319">
                <duration>186</duration>
                <rate>
                  <ntsc>false</ntsc>
                  <timebase>25</timebase>
                </rate>
                <in>47658</in>
                <out>47843</out>
                <start>47658</start>
                <end>47843</end>
                <file id="src-6"/>
                <sourcetrack>
                  <mediatype>video</mediatype>
                  <trackindex>1</trackindex>
                </sourcetrack>
                <multiclip id="mcs-319">
                  <name>MCS-319</name>
                  <masterclipid>clip-master</masterclipid>
                  <collapsed>false</collapsed>
                  <angle>
                    <activevideoangle>false</activevideoangle>
                    <activeaudioangle>false</activeaudioangle>
                    <clip id="clip-1"/>
                  </angle>
                  <angle>
                    <activevideoangle>false</activevideoangle>
                    <activeaudioangle>false</activeaudioangle>
                    <clip id="clip-2"/>
                  </angle>
                  <angle>
                    <activevideoangle>false</activevideoangle>
                    <activeaudioangle>false</activeaudioangle>
                    <clip id="clip-3"/>
                  </angle>
                  <angle>
                    <activevideoangle>false</activevideoangle>
                    <activeaudioangle>false</activeaudioangle>
                    <clip id="clip-4"/>
                  </angle>
                  <angle>
                    <activevideoangle>false</activevideoangle>
                    <activeaudioangle>false</activeaudioangle>
                    <clip id="clip-5"/>
                  </angle>
                  <angle>
                    <activevideoangle>true</activevideoangle>
                    <activeaudioangle>true</activeaudioangle>
                    <clip id="clip-6"/>
                  </angle>
                  <angle>
                    <activevideoangle>false</activevideoangle>
                    <activeaudioangle>false</activeaudioangle>
                    <clip id="clip-7"/>
                  </angle>
                  <angle>
                    <activevideoangle>false</activevideoangle>
                    <activeaudioangle>false</activeaudioangle>
                    <clip id="clip-8"/>
                  </angle>
                  <angle>
                    <activevideoangle>false</activevideoangle>
                    <activeaudioangle>false</activeaudioangle>
                    <clip id="clip-9"/>
                  </angle>
                  <masterclipid>clip-master</masterclipid>
                </multiclip>
              </clipitem>
              <clipitem id="cs-320">
                <duration>49</duration>
                <rate>
                  <ntsc>false</ntsc>
                  <timebase>25</timebase>
                </rate>
                <in>47843</in>
                <out>47891</out>
                <start>47843</start>
                <end>47891</end>
                <file id="src-4"/>
                <sourcetrack>
                  <mediatype>video</mediatype>
                  <trackindex>1</trackindex>
                </sourcetrack>
                <multiclip id="mcs-320">
                  <name>MCS-320</name>
                  <masterclipid>clip-master</masterclipid>
                  <collapsed>false</collapsed>
                  <angle>
                    <activevideoangle>false</activevideoangle>
                    <activeaudioangle>false</activeaudioangle>
                    <clip id="clip-1"/>
                  </angle>
                  <angle>
                    <activevideoangle>false</activevideoangle>
                    <activeaudioangle>false</activeaudioangle>
                    <clip id="clip-2"/>
                  </angle>
                  <angle>
                    <activevideoangle>false</activevideoangle>
                    <activeaudioangle>false</activeaudioangle>
                    <clip id="clip-3"/>
                  </angle>
                  <angle>
                    <activevideoangle>true</activevideoangle>
                    <activeaudioangle>true</activeaudioangle>
                    <clip id="clip-4"/>
                  </angle>
                  <angle>
                    <activevideoangle>false</activevideoangle>
                    <activeaudioangle>false</activeaudioangle>
                    <clip id="clip-5"/>
                  </angle>
                  <angle>
                    <activevideoangle>false</activevideoangle>
                    <activeaudioangle>false</activeaudioangle>
                    <clip id="clip-6"/>
                  </angle>
                  <angle>
                    <activevideoangle>false</activevideoangle>
                    <activeaudioangle>false</activeaudioangle>
                    <clip id="clip-7"/>
                  </angle>
                  <angle>
                    <activevideoangle>false</activevideoangle>
                    <activeaudioangle>false</activeaudioangle>
                    <clip id="clip-8"/>
                  </angle>
                  <angle>
                    <activevideoangle>false</activevideoangle>
                    <activeaudioangle>false</activeaudioangle>
                    <clip id="clip-9"/>
                  </angle>
                  <masterclipid>clip-master</masterclipid>
                </multiclip>
              </clipitem>
              <clipitem id="cs-321">
                <duration>93</duration>
                <rate>
                  <ntsc>false</ntsc>
                  <timebase>25</timebase>
                </rate>
                <in>47891</in>
                <out>47983</out>
                <start>47891</start>
                <end>47983</end>
                <file id="src-2"/>
                <sourcetrack>
                  <mediatype>video</mediatype>
                  <trackindex>1</trackindex>
                </sourcetrack>
                <multiclip id="mcs-321">
                  <name>MCS-321</name>
                  <masterclipid>clip-master</masterclipid>
                  <collapsed>false</collapsed>
                  <angle>
                    <activevideoangle>false</activevideoangle>
                    <activeaudioangle>false</activeaudioangle>
                    <clip id="clip-1"/>
                  </angle>
                  <angle>
                    <activevideoangle>true</activevideoangle>
                    <activeaudioangle>true</activeaudioangle>
                    <clip id="clip-2"/>
                  </angle>
                  <angle>
                    <activevideoangle>false</activevideoangle>
                    <activeaudioangle>false</activeaudioangle>
                    <clip id="clip-3"/>
                  </angle>
                  <angle>
                    <activevideoangle>false</activevideoangle>
                    <activeaudioangle>false</activeaudioangle>
                    <clip id="clip-4"/>
                  </angle>
                  <angle>
                    <activevideoangle>false</activevideoangle>
                    <activeaudioangle>false</activeaudioangle>
                    <clip id="clip-5"/>
                  </angle>
                  <angle>
                    <activevideoangle>false</activevideoangle>
                    <activeaudioangle>false</activeaudioangle>
                    <clip id="clip-6"/>
                  </angle>
                  <angle>
                    <activevideoangle>false</activevideoangle>
                    <activeaudioangle>false</activeaudioangle>
                    <clip id="clip-7"/>
                  </angle>
                  <angle>
                    <activevideoangle>false</activevideoangle>
                    <activeaudioangle>false</activeaudioangle>
                    <clip id="clip-8"/>
                  </angle>
                  <angle>
                    <activevideoangle>false</activevideoangle>
                    <activeaudioangle>false</activeaudioangle>
                    <clip id="clip-9"/>
                  </angle>
                  <masterclipid>clip-master</masterclipid>
                </multiclip>
              </clipitem>
              <clipitem id="cs-322">
                <duration>193</duration>
                <rate>
                  <ntsc>false</ntsc>
                  <timebase>25</timebase>
                </rate>
                <in>47983</in>
                <out>48175</out>
                <start>47983</start>
                <end>48175</end>
                <file id="src-3"/>
                <sourcetrack>
                  <mediatype>video</mediatype>
                  <trackindex>1</trackindex>
                </sourcetrack>
                <multiclip id="mcs-322">
                  <name>MCS-322</name>
                  <masterclipid>clip-master</masterclipid>
                  <collapsed>false</collapsed>
                  <angle>
                    <activevideoangle>false</activevideoangle>
                    <activeaudioangle>false</activeaudioangle>
                    <clip id="clip-1"/>
                  </angle>
                  <angle>
                    <activevideoangle>false</activevideoangle>
                    <activeaudioangle>false</activeaudioangle>
                    <clip id="clip-2"/>
                  </angle>
                  <angle>
                    <activevideoangle>true</activevideoangle>
                    <activeaudioangle>true</activeaudioangle>
                    <clip id="clip-3"/>
                  </angle>
                  <angle>
                    <activevideoangle>false</activevideoangle>
                    <activeaudioangle>false</activeaudioangle>
                    <clip id="clip-4"/>
                  </angle>
                  <angle>
                    <activevideoangle>false</activevideoangle>
                    <activeaudioangle>false</activeaudioangle>
                    <clip id="clip-5"/>
                  </angle>
                  <angle>
                    <activevideoangle>false</activevideoangle>
                    <activeaudioangle>false</activeaudioangle>
                    <clip id="clip-6"/>
                  </angle>
                  <angle>
                    <activevideoangle>false</activevideoangle>
                    <activeaudioangle>false</activeaudioangle>
                    <clip id="clip-7"/>
                  </angle>
                  <angle>
                    <activevideoangle>false</activevideoangle>
                    <activeaudioangle>false</activeaudioangle>
                    <clip id="clip-8"/>
                  </angle>
                  <angle>
                    <activevideoangle>false</activevideoangle>
                    <activeaudioangle>false</activeaudioangle>
                    <clip id="clip-9"/>
                  </angle>
                  <masterclipid>clip-master</masterclipid>
                </multiclip>
              </clipitem>
              <clipitem id="cs-323">
                <duration>616</duration>
                <rate>
                  <ntsc>false</ntsc>
                  <timebase>25</timebase>
                </rate>
                <in>48175</in>
                <out>48790</out>
                <start>48175</start>
                <end>48790</end>
                <file id="src-2"/>
                <sourcetrack>
                  <mediatype>video</mediatype>
                  <trackindex>1</trackindex>
                </sourcetrack>
                <multiclip id="mcs-323">
                  <name>MCS-323</name>
                  <masterclipid>clip-master</masterclipid>
                  <collapsed>false</collapsed>
                  <angle>
                    <activevideoangle>false</activevideoangle>
                    <activeaudioangle>false</activeaudioangle>
                    <clip id="clip-1"/>
                  </angle>
                  <angle>
                    <activevideoangle>true</activevideoangle>
                    <activeaudioangle>true</activeaudioangle>
                    <clip id="clip-2"/>
                  </angle>
                  <angle>
                    <activevideoangle>false</activevideoangle>
                    <activeaudioangle>false</activeaudioangle>
                    <clip id="clip-3"/>
                  </angle>
                  <angle>
                    <activevideoangle>false</activevideoangle>
                    <activeaudioangle>false</activeaudioangle>
                    <clip id="clip-4"/>
                  </angle>
                  <angle>
                    <activevideoangle>false</activevideoangle>
                    <activeaudioangle>false</activeaudioangle>
                    <clip id="clip-5"/>
                  </angle>
                  <angle>
                    <activevideoangle>false</activevideoangle>
                    <activeaudioangle>false</activeaudioangle>
                    <clip id="clip-6"/>
                  </angle>
                  <angle>
                    <activevideoangle>false</activevideoangle>
                    <activeaudioangle>false</activeaudioangle>
                    <clip id="clip-7"/>
                  </angle>
                  <angle>
                    <activevideoangle>false</activevideoangle>
                    <activeaudioangle>false</activeaudioangle>
                    <clip id="clip-8"/>
                  </angle>
                  <angle>
                    <activevideoangle>false</activevideoangle>
                    <activeaudioangle>false</activeaudioangle>
                    <clip id="clip-9"/>
                  </angle>
                  <masterclipid>clip-master</masterclipid>
                </multiclip>
              </clipitem>
              <clipitem id="cs-324">
                <duration>76</duration>
                <rate>
                  <ntsc>false</ntsc>
                  <timebase>25</timebase>
                </rate>
                <in>48790</in>
                <out>48865</out>
                <start>48790</start>
                <end>48865</end>
                <file id="src-4"/>
                <sourcetrack>
                  <mediatype>video</mediatype>
                  <trackindex>1</trackindex>
                </sourcetrack>
                <multiclip id="mcs-324">
                  <name>MCS-324</name>
                  <masterclipid>clip-master</masterclipid>
                  <collapsed>false</collapsed>
                  <angle>
                    <activevideoangle>false</activevideoangle>
                    <activeaudioangle>false</activeaudioangle>
                    <clip id="clip-1"/>
                  </angle>
                  <angle>
                    <activevideoangle>false</activevideoangle>
                    <activeaudioangle>false</activeaudioangle>
                    <clip id="clip-2"/>
                  </angle>
                  <angle>
                    <activevideoangle>false</activevideoangle>
                    <activeaudioangle>false</activeaudioangle>
                    <clip id="clip-3"/>
                  </angle>
                  <angle>
                    <activevideoangle>true</activevideoangle>
                    <activeaudioangle>true</activeaudioangle>
                    <clip id="clip-4"/>
                  </angle>
                  <angle>
                    <activevideoangle>false</activevideoangle>
                    <activeaudioangle>false</activeaudioangle>
                    <clip id="clip-5"/>
                  </angle>
                  <angle>
                    <activevideoangle>false</activevideoangle>
                    <activeaudioangle>false</activeaudioangle>
                    <clip id="clip-6"/>
                  </angle>
                  <angle>
                    <activevideoangle>false</activevideoangle>
                    <activeaudioangle>false</activeaudioangle>
                    <clip id="clip-7"/>
                  </angle>
                  <angle>
                    <activevideoangle>false</activevideoangle>
                    <activeaudioangle>false</activeaudioangle>
                    <clip id="clip-8"/>
                  </angle>
                  <angle>
                    <activevideoangle>false</activevideoangle>
                    <activeaudioangle>false</activeaudioangle>
                    <clip id="clip-9"/>
                  </angle>
                  <masterclipid>clip-master</masterclipid>
                </multiclip>
              </clipitem>
              <clipitem id="cs-325">
                <duration>58</duration>
                <rate>
                  <ntsc>false</ntsc>
                  <timebase>25</timebase>
                </rate>
                <in>48865</in>
                <out>48922</out>
                <start>48865</start>
                <end>48922</end>
                <file id="src-6"/>
                <sourcetrack>
                  <mediatype>video</mediatype>
                  <trackindex>1</trackindex>
                </sourcetrack>
                <multiclip id="mcs-325">
                  <name>MCS-325</name>
                  <masterclipid>clip-master</masterclipid>
                  <collapsed>false</collapsed>
                  <angle>
                    <activevideoangle>false</activevideoangle>
                    <activeaudioangle>false</activeaudioangle>
                    <clip id="clip-1"/>
                  </angle>
                  <angle>
                    <activevideoangle>false</activevideoangle>
                    <activeaudioangle>false</activeaudioangle>
                    <clip id="clip-2"/>
                  </angle>
                  <angle>
                    <activevideoangle>false</activevideoangle>
                    <activeaudioangle>false</activeaudioangle>
                    <clip id="clip-3"/>
                  </angle>
                  <angle>
                    <activevideoangle>false</activevideoangle>
                    <activeaudioangle>false</activeaudioangle>
                    <clip id="clip-4"/>
                  </angle>
                  <angle>
                    <activevideoangle>false</activevideoangle>
                    <activeaudioangle>false</activeaudioangle>
                    <clip id="clip-5"/>
                  </angle>
                  <angle>
                    <activevideoangle>true</activevideoangle>
                    <activeaudioangle>true</activeaudioangle>
                    <clip id="clip-6"/>
                  </angle>
                  <angle>
                    <activevideoangle>false</activevideoangle>
                    <activeaudioangle>false</activeaudioangle>
                    <clip id="clip-7"/>
                  </angle>
                  <angle>
                    <activevideoangle>false</activevideoangle>
                    <activeaudioangle>false</activeaudioangle>
                    <clip id="clip-8"/>
                  </angle>
                  <angle>
                    <activevideoangle>false</activevideoangle>
                    <activeaudioangle>false</activeaudioangle>
                    <clip id="clip-9"/>
                  </angle>
                  <masterclipid>clip-master</masterclipid>
                </multiclip>
              </clipitem>
              <clipitem id="cs-326">
                <duration>76</duration>
                <rate>
                  <ntsc>false</ntsc>
                  <timebase>25</timebase>
                </rate>
                <in>48922</in>
                <out>48997</out>
                <start>48922</start>
                <end>48997</end>
                <file id="src-3"/>
                <sourcetrack>
                  <mediatype>video</mediatype>
                  <trackindex>1</trackindex>
                </sourcetrack>
                <multiclip id="mcs-326">
                  <name>MCS-326</name>
                  <masterclipid>clip-master</masterclipid>
                  <collapsed>false</collapsed>
                  <angle>
                    <activevideoangle>false</activevideoangle>
                    <activeaudioangle>false</activeaudioangle>
                    <clip id="clip-1"/>
                  </angle>
                  <angle>
                    <activevideoangle>false</activevideoangle>
                    <activeaudioangle>false</activeaudioangle>
                    <clip id="clip-2"/>
                  </angle>
                  <angle>
                    <activevideoangle>true</activevideoangle>
                    <activeaudioangle>true</activeaudioangle>
                    <clip id="clip-3"/>
                  </angle>
                  <angle>
                    <activevideoangle>false</activevideoangle>
                    <activeaudioangle>false</activeaudioangle>
                    <clip id="clip-4"/>
                  </angle>
                  <angle>
                    <activevideoangle>false</activevideoangle>
                    <activeaudioangle>false</activeaudioangle>
                    <clip id="clip-5"/>
                  </angle>
                  <angle>
                    <activevideoangle>false</activevideoangle>
                    <activeaudioangle>false</activeaudioangle>
                    <clip id="clip-6"/>
                  </angle>
                  <angle>
                    <activevideoangle>false</activevideoangle>
                    <activeaudioangle>false</activeaudioangle>
                    <clip id="clip-7"/>
                  </angle>
                  <angle>
                    <activevideoangle>false</activevideoangle>
                    <activeaudioangle>false</activeaudioangle>
                    <clip id="clip-8"/>
                  </angle>
                  <angle>
                    <activevideoangle>false</activevideoangle>
                    <activeaudioangle>false</activeaudioangle>
                    <clip id="clip-9"/>
                  </angle>
                  <masterclipid>clip-master</masterclipid>
                </multiclip>
              </clipitem>
              <clipitem id="cs-327">
                <duration>64</duration>
                <rate>
                  <ntsc>false</ntsc>
                  <timebase>25</timebase>
                </rate>
                <in>48997</in>
                <out>49060</out>
                <start>48997</start>
                <end>49060</end>
                <file id="src-2"/>
                <sourcetrack>
                  <mediatype>video</mediatype>
                  <trackindex>1</trackindex>
                </sourcetrack>
                <multiclip id="mcs-327">
                  <name>MCS-327</name>
                  <masterclipid>clip-master</masterclipid>
                  <collapsed>false</collapsed>
                  <angle>
                    <activevideoangle>false</activevideoangle>
                    <activeaudioangle>false</activeaudioangle>
                    <clip id="clip-1"/>
                  </angle>
                  <angle>
                    <activevideoangle>true</activevideoangle>
                    <activeaudioangle>true</activeaudioangle>
                    <clip id="clip-2"/>
                  </angle>
                  <angle>
                    <activevideoangle>false</activevideoangle>
                    <activeaudioangle>false</activeaudioangle>
                    <clip id="clip-3"/>
                  </angle>
                  <angle>
                    <activevideoangle>false</activevideoangle>
                    <activeaudioangle>false</activeaudioangle>
                    <clip id="clip-4"/>
                  </angle>
                  <angle>
                    <activevideoangle>false</activevideoangle>
                    <activeaudioangle>false</activeaudioangle>
                    <clip id="clip-5"/>
                  </angle>
                  <angle>
                    <activevideoangle>false</activevideoangle>
                    <activeaudioangle>false</activeaudioangle>
                    <clip id="clip-6"/>
                  </angle>
                  <angle>
                    <activevideoangle>false</activevideoangle>
                    <activeaudioangle>false</activeaudioangle>
                    <clip id="clip-7"/>
                  </angle>
                  <angle>
                    <activevideoangle>false</activevideoangle>
                    <activeaudioangle>false</activeaudioangle>
                    <clip id="clip-8"/>
                  </angle>
                  <angle>
                    <activevideoangle>false</activevideoangle>
                    <activeaudioangle>false</activeaudioangle>
                    <clip id="clip-9"/>
                  </angle>
                  <masterclipid>clip-master</masterclipid>
                </multiclip>
              </clipitem>
              <clipitem id="cs-328">
                <duration>29</duration>
                <rate>
                  <ntsc>false</ntsc>
                  <timebase>25</timebase>
                </rate>
                <in>49060</in>
                <out>49088</out>
                <start>49060</start>
                <end>49088</end>
                <file id="src-5"/>
                <sourcetrack>
                  <mediatype>video</mediatype>
                  <trackindex>1</trackindex>
                </sourcetrack>
                <multiclip id="mcs-328">
                  <name>MCS-328</name>
                  <masterclipid>clip-master</masterclipid>
                  <collapsed>false</collapsed>
                  <angle>
                    <activevideoangle>false</activevideoangle>
                    <activeaudioangle>false</activeaudioangle>
                    <clip id="clip-1"/>
                  </angle>
                  <angle>
                    <activevideoangle>false</activevideoangle>
                    <activeaudioangle>false</activeaudioangle>
                    <clip id="clip-2"/>
                  </angle>
                  <angle>
                    <activevideoangle>false</activevideoangle>
                    <activeaudioangle>false</activeaudioangle>
                    <clip id="clip-3"/>
                  </angle>
                  <angle>
                    <activevideoangle>false</activevideoangle>
                    <activeaudioangle>false</activeaudioangle>
                    <clip id="clip-4"/>
                  </angle>
                  <angle>
                    <activevideoangle>true</activevideoangle>
                    <activeaudioangle>true</activeaudioangle>
                    <clip id="clip-5"/>
                  </angle>
                  <angle>
                    <activevideoangle>false</activevideoangle>
                    <activeaudioangle>false</activeaudioangle>
                    <clip id="clip-6"/>
                  </angle>
                  <angle>
                    <activevideoangle>false</activevideoangle>
                    <activeaudioangle>false</activeaudioangle>
                    <clip id="clip-7"/>
                  </angle>
                  <angle>
                    <activevideoangle>false</activevideoangle>
                    <activeaudioangle>false</activeaudioangle>
                    <clip id="clip-8"/>
                  </angle>
                  <angle>
                    <activevideoangle>false</activevideoangle>
                    <activeaudioangle>false</activeaudioangle>
                    <clip id="clip-9"/>
                  </angle>
                  <masterclipid>clip-master</masterclipid>
                </multiclip>
              </clipitem>
              <clipitem id="cs-329">
                <duration>100</duration>
                <rate>
                  <ntsc>false</ntsc>
                  <timebase>25</timebase>
                </rate>
                <in>49088</in>
                <out>49187</out>
                <start>49088</start>
                <end>49187</end>
                <file id="src-4"/>
                <sourcetrack>
                  <mediatype>video</mediatype>
                  <trackindex>1</trackindex>
                </sourcetrack>
                <multiclip id="mcs-329">
                  <name>MCS-329</name>
                  <masterclipid>clip-master</masterclipid>
                  <collapsed>false</collapsed>
                  <angle>
                    <activevideoangle>false</activevideoangle>
                    <activeaudioangle>false</activeaudioangle>
                    <clip id="clip-1"/>
                  </angle>
                  <angle>
                    <activevideoangle>false</activevideoangle>
                    <activeaudioangle>false</activeaudioangle>
                    <clip id="clip-2"/>
                  </angle>
                  <angle>
                    <activevideoangle>false</activevideoangle>
                    <activeaudioangle>false</activeaudioangle>
                    <clip id="clip-3"/>
                  </angle>
                  <angle>
                    <activevideoangle>true</activevideoangle>
                    <activeaudioangle>true</activeaudioangle>
                    <clip id="clip-4"/>
                  </angle>
                  <angle>
                    <activevideoangle>false</activevideoangle>
                    <activeaudioangle>false</activeaudioangle>
                    <clip id="clip-5"/>
                  </angle>
                  <angle>
                    <activevideoangle>false</activevideoangle>
                    <activeaudioangle>false</activeaudioangle>
                    <clip id="clip-6"/>
                  </angle>
                  <angle>
                    <activevideoangle>false</activevideoangle>
                    <activeaudioangle>false</activeaudioangle>
                    <clip id="clip-7"/>
                  </angle>
                  <angle>
                    <activevideoangle>false</activevideoangle>
                    <activeaudioangle>false</activeaudioangle>
                    <clip id="clip-8"/>
                  </angle>
                  <angle>
                    <activevideoangle>false</activevideoangle>
                    <activeaudioangle>false</activeaudioangle>
                    <clip id="clip-9"/>
                  </angle>
                  <masterclipid>clip-master</masterclipid>
                </multiclip>
              </clipitem>
              <clipitem id="cs-330">
                <duration>103</duration>
                <rate>
                  <ntsc>false</ntsc>
                  <timebase>25</timebase>
                </rate>
                <in>49187</in>
                <out>49289</out>
                <start>49187</start>
                <end>49289</end>
                <file id="src-2"/>
                <sourcetrack>
                  <mediatype>video</mediatype>
                  <trackindex>1</trackindex>
                </sourcetrack>
                <multiclip id="mcs-330">
                  <name>MCS-330</name>
                  <masterclipid>clip-master</masterclipid>
                  <collapsed>false</collapsed>
                  <angle>
                    <activevideoangle>false</activevideoangle>
                    <activeaudioangle>false</activeaudioangle>
                    <clip id="clip-1"/>
                  </angle>
                  <angle>
                    <activevideoangle>true</activevideoangle>
                    <activeaudioangle>true</activeaudioangle>
                    <clip id="clip-2"/>
                  </angle>
                  <angle>
                    <activevideoangle>false</activevideoangle>
                    <activeaudioangle>false</activeaudioangle>
                    <clip id="clip-3"/>
                  </angle>
                  <angle>
                    <activevideoangle>false</activevideoangle>
                    <activeaudioangle>false</activeaudioangle>
                    <clip id="clip-4"/>
                  </angle>
                  <angle>
                    <activevideoangle>false</activevideoangle>
                    <activeaudioangle>false</activeaudioangle>
                    <clip id="clip-5"/>
                  </angle>
                  <angle>
                    <activevideoangle>false</activevideoangle>
                    <activeaudioangle>false</activeaudioangle>
                    <clip id="clip-6"/>
                  </angle>
                  <angle>
                    <activevideoangle>false</activevideoangle>
                    <activeaudioangle>false</activeaudioangle>
                    <clip id="clip-7"/>
                  </angle>
                  <angle>
                    <activevideoangle>false</activevideoangle>
                    <activeaudioangle>false</activeaudioangle>
                    <clip id="clip-8"/>
                  </angle>
                  <angle>
                    <activevideoangle>false</activevideoangle>
                    <activeaudioangle>false</activeaudioangle>
                    <clip id="clip-9"/>
                  </angle>
                  <masterclipid>clip-master</masterclipid>
                </multiclip>
              </clipitem>
              <clipitem id="cs-331">
                <duration>90</duration>
                <rate>
                  <ntsc>false</ntsc>
                  <timebase>25</timebase>
                </rate>
                <in>49289</in>
                <out>49378</out>
                <start>49289</start>
                <end>49378</end>
                <file id="src-4"/>
                <sourcetrack>
                  <mediatype>video</mediatype>
                  <trackindex>1</trackindex>
                </sourcetrack>
                <multiclip id="mcs-331">
                  <name>MCS-331</name>
                  <masterclipid>clip-master</masterclipid>
                  <collapsed>false</collapsed>
                  <angle>
                    <activevideoangle>false</activevideoangle>
                    <activeaudioangle>false</activeaudioangle>
                    <clip id="clip-1"/>
                  </angle>
                  <angle>
                    <activevideoangle>false</activevideoangle>
                    <activeaudioangle>false</activeaudioangle>
                    <clip id="clip-2"/>
                  </angle>
                  <angle>
                    <activevideoangle>false</activevideoangle>
                    <activeaudioangle>false</activeaudioangle>
                    <clip id="clip-3"/>
                  </angle>
                  <angle>
                    <activevideoangle>true</activevideoangle>
                    <activeaudioangle>true</activeaudioangle>
                    <clip id="clip-4"/>
                  </angle>
                  <angle>
                    <activevideoangle>false</activevideoangle>
                    <activeaudioangle>false</activeaudioangle>
                    <clip id="clip-5"/>
                  </angle>
                  <angle>
                    <activevideoangle>false</activevideoangle>
                    <activeaudioangle>false</activeaudioangle>
                    <clip id="clip-6"/>
                  </angle>
                  <angle>
                    <activevideoangle>false</activevideoangle>
                    <activeaudioangle>false</activeaudioangle>
                    <clip id="clip-7"/>
                  </angle>
                  <angle>
                    <activevideoangle>false</activevideoangle>
                    <activeaudioangle>false</activeaudioangle>
                    <clip id="clip-8"/>
                  </angle>
                  <angle>
                    <activevideoangle>false</activevideoangle>
                    <activeaudioangle>false</activeaudioangle>
                    <clip id="clip-9"/>
                  </angle>
                  <masterclipid>clip-master</masterclipid>
                </multiclip>
              </clipitem>
              <clipitem id="cs-332">
                <duration>128</duration>
                <rate>
                  <ntsc>false</ntsc>
                  <timebase>25</timebase>
                </rate>
                <in>49378</in>
                <out>49505</out>
                <start>49378</start>
                <end>49505</end>
                <file id="src-2"/>
                <sourcetrack>
                  <mediatype>video</mediatype>
                  <trackindex>1</trackindex>
                </sourcetrack>
                <multiclip id="mcs-332">
                  <name>MCS-332</name>
                  <masterclipid>clip-master</masterclipid>
                  <collapsed>false</collapsed>
                  <angle>
                    <activevideoangle>false</activevideoangle>
                    <activeaudioangle>false</activeaudioangle>
                    <clip id="clip-1"/>
                  </angle>
                  <angle>
                    <activevideoangle>true</activevideoangle>
                    <activeaudioangle>true</activeaudioangle>
                    <clip id="clip-2"/>
                  </angle>
                  <angle>
                    <activevideoangle>false</activevideoangle>
                    <activeaudioangle>false</activeaudioangle>
                    <clip id="clip-3"/>
                  </angle>
                  <angle>
                    <activevideoangle>false</activevideoangle>
                    <activeaudioangle>false</activeaudioangle>
                    <clip id="clip-4"/>
                  </angle>
                  <angle>
                    <activevideoangle>false</activevideoangle>
                    <activeaudioangle>false</activeaudioangle>
                    <clip id="clip-5"/>
                  </angle>
                  <angle>
                    <activevideoangle>false</activevideoangle>
                    <activeaudioangle>false</activeaudioangle>
                    <clip id="clip-6"/>
                  </angle>
                  <angle>
                    <activevideoangle>false</activevideoangle>
                    <activeaudioangle>false</activeaudioangle>
                    <clip id="clip-7"/>
                  </angle>
                  <angle>
                    <activevideoangle>false</activevideoangle>
                    <activeaudioangle>false</activeaudioangle>
                    <clip id="clip-8"/>
                  </angle>
                  <angle>
                    <activevideoangle>false</activevideoangle>
                    <activeaudioangle>false</activeaudioangle>
                    <clip id="clip-9"/>
                  </angle>
                  <masterclipid>clip-master</masterclipid>
                </multiclip>
              </clipitem>
              <clipitem id="cs-333">
                <duration>113</duration>
                <rate>
                  <ntsc>false</ntsc>
                  <timebase>25</timebase>
                </rate>
                <in>49505</in>
                <out>49617</out>
                <start>49505</start>
                <end>49617</end>
                <file id="src-4"/>
                <sourcetrack>
                  <mediatype>video</mediatype>
                  <trackindex>1</trackindex>
                </sourcetrack>
                <multiclip id="mcs-333">
                  <name>MCS-333</name>
                  <masterclipid>clip-master</masterclipid>
                  <collapsed>false</collapsed>
                  <angle>
                    <activevideoangle>false</activevideoangle>
                    <activeaudioangle>false</activeaudioangle>
                    <clip id="clip-1"/>
                  </angle>
                  <angle>
                    <activevideoangle>false</activevideoangle>
                    <activeaudioangle>false</activeaudioangle>
                    <clip id="clip-2"/>
                  </angle>
                  <angle>
                    <activevideoangle>false</activevideoangle>
                    <activeaudioangle>false</activeaudioangle>
                    <clip id="clip-3"/>
                  </angle>
                  <angle>
                    <activevideoangle>true</activevideoangle>
                    <activeaudioangle>true</activeaudioangle>
                    <clip id="clip-4"/>
                  </angle>
                  <angle>
                    <activevideoangle>false</activevideoangle>
                    <activeaudioangle>false</activeaudioangle>
                    <clip id="clip-5"/>
                  </angle>
                  <angle>
                    <activevideoangle>false</activevideoangle>
                    <activeaudioangle>false</activeaudioangle>
                    <clip id="clip-6"/>
                  </angle>
                  <angle>
                    <activevideoangle>false</activevideoangle>
                    <activeaudioangle>false</activeaudioangle>
                    <clip id="clip-7"/>
                  </angle>
                  <angle>
                    <activevideoangle>false</activevideoangle>
                    <activeaudioangle>false</activeaudioangle>
                    <clip id="clip-8"/>
                  </angle>
                  <angle>
                    <activevideoangle>false</activevideoangle>
                    <activeaudioangle>false</activeaudioangle>
                    <clip id="clip-9"/>
                  </angle>
                  <masterclipid>clip-master</masterclipid>
                </multiclip>
              </clipitem>
              <clipitem id="cs-334">
                <duration>150</duration>
                <rate>
                  <ntsc>false</ntsc>
                  <timebase>25</timebase>
                </rate>
                <in>49617</in>
                <out>49766</out>
                <start>49617</start>
                <end>49766</end>
                <file id="src-6"/>
                <sourcetrack>
                  <mediatype>video</mediatype>
                  <trackindex>1</trackindex>
                </sourcetrack>
                <multiclip id="mcs-334">
                  <name>MCS-334</name>
                  <masterclipid>clip-master</masterclipid>
                  <collapsed>false</collapsed>
                  <angle>
                    <activevideoangle>false</activevideoangle>
                    <activeaudioangle>false</activeaudioangle>
                    <clip id="clip-1"/>
                  </angle>
                  <angle>
                    <activevideoangle>false</activevideoangle>
                    <activeaudioangle>false</activeaudioangle>
                    <clip id="clip-2"/>
                  </angle>
                  <angle>
                    <activevideoangle>false</activevideoangle>
                    <activeaudioangle>false</activeaudioangle>
                    <clip id="clip-3"/>
                  </angle>
                  <angle>
                    <activevideoangle>false</activevideoangle>
                    <activeaudioangle>false</activeaudioangle>
                    <clip id="clip-4"/>
                  </angle>
                  <angle>
                    <activevideoangle>false</activevideoangle>
                    <activeaudioangle>false</activeaudioangle>
                    <clip id="clip-5"/>
                  </angle>
                  <angle>
                    <activevideoangle>true</activevideoangle>
                    <activeaudioangle>true</activeaudioangle>
                    <clip id="clip-6"/>
                  </angle>
                  <angle>
                    <activevideoangle>false</activevideoangle>
                    <activeaudioangle>false</activeaudioangle>
                    <clip id="clip-7"/>
                  </angle>
                  <angle>
                    <activevideoangle>false</activevideoangle>
                    <activeaudioangle>false</activeaudioangle>
                    <clip id="clip-8"/>
                  </angle>
                  <angle>
                    <activevideoangle>false</activevideoangle>
                    <activeaudioangle>false</activeaudioangle>
                    <clip id="clip-9"/>
                  </angle>
                  <masterclipid>clip-master</masterclipid>
                </multiclip>
              </clipitem>
              <clipitem id="cs-335">
                <duration>208</duration>
                <rate>
                  <ntsc>false</ntsc>
                  <timebase>25</timebase>
                </rate>
                <in>49766</in>
                <out>49973</out>
                <start>49766</start>
                <end>49973</end>
                <file id="src-4"/>
                <sourcetrack>
                  <mediatype>video</mediatype>
                  <trackindex>1</trackindex>
                </sourcetrack>
                <multiclip id="mcs-335">
                  <name>MCS-335</name>
                  <masterclipid>clip-master</masterclipid>
                  <collapsed>false</collapsed>
                  <angle>
                    <activevideoangle>false</activevideoangle>
                    <activeaudioangle>false</activeaudioangle>
                    <clip id="clip-1"/>
                  </angle>
                  <angle>
                    <activevideoangle>false</activevideoangle>
                    <activeaudioangle>false</activeaudioangle>
                    <clip id="clip-2"/>
                  </angle>
                  <angle>
                    <activevideoangle>false</activevideoangle>
                    <activeaudioangle>false</activeaudioangle>
                    <clip id="clip-3"/>
                  </angle>
                  <angle>
                    <activevideoangle>true</activevideoangle>
                    <activeaudioangle>true</activeaudioangle>
                    <clip id="clip-4"/>
                  </angle>
                  <angle>
                    <activevideoangle>false</activevideoangle>
                    <activeaudioangle>false</activeaudioangle>
                    <clip id="clip-5"/>
                  </angle>
                  <angle>
                    <activevideoangle>false</activevideoangle>
                    <activeaudioangle>false</activeaudioangle>
                    <clip id="clip-6"/>
                  </angle>
                  <angle>
                    <activevideoangle>false</activevideoangle>
                    <activeaudioangle>false</activeaudioangle>
                    <clip id="clip-7"/>
                  </angle>
                  <angle>
                    <activevideoangle>false</activevideoangle>
                    <activeaudioangle>false</activeaudioangle>
                    <clip id="clip-8"/>
                  </angle>
                  <angle>
                    <activevideoangle>false</activevideoangle>
                    <activeaudioangle>false</activeaudioangle>
                    <clip id="clip-9"/>
                  </angle>
                  <masterclipid>clip-master</masterclipid>
                </multiclip>
              </clipitem>
              <clipitem id="cs-336">
                <duration>90</duration>
                <rate>
                  <ntsc>false</ntsc>
                  <timebase>25</timebase>
                </rate>
                <in>49973</in>
                <out>50062</out>
                <start>49973</start>
                <end>50062</end>
                <file id="src-2"/>
                <sourcetrack>
                  <mediatype>video</mediatype>
                  <trackindex>1</trackindex>
                </sourcetrack>
                <multiclip id="mcs-336">
                  <name>MCS-336</name>
                  <masterclipid>clip-master</masterclipid>
                  <collapsed>false</collapsed>
                  <angle>
                    <activevideoangle>false</activevideoangle>
                    <activeaudioangle>false</activeaudioangle>
                    <clip id="clip-1"/>
                  </angle>
                  <angle>
                    <activevideoangle>true</activevideoangle>
                    <activeaudioangle>true</activeaudioangle>
                    <clip id="clip-2"/>
                  </angle>
                  <angle>
                    <activevideoangle>false</activevideoangle>
                    <activeaudioangle>false</activeaudioangle>
                    <clip id="clip-3"/>
                  </angle>
                  <angle>
                    <activevideoangle>false</activevideoangle>
                    <activeaudioangle>false</activeaudioangle>
                    <clip id="clip-4"/>
                  </angle>
                  <angle>
                    <activevideoangle>false</activevideoangle>
                    <activeaudioangle>false</activeaudioangle>
                    <clip id="clip-5"/>
                  </angle>
                  <angle>
                    <activevideoangle>false</activevideoangle>
                    <activeaudioangle>false</activeaudioangle>
                    <clip id="clip-6"/>
                  </angle>
                  <angle>
                    <activevideoangle>false</activevideoangle>
                    <activeaudioangle>false</activeaudioangle>
                    <clip id="clip-7"/>
                  </angle>
                  <angle>
                    <activevideoangle>false</activevideoangle>
                    <activeaudioangle>false</activeaudioangle>
                    <clip id="clip-8"/>
                  </angle>
                  <angle>
                    <activevideoangle>false</activevideoangle>
                    <activeaudioangle>false</activeaudioangle>
                    <clip id="clip-9"/>
                  </angle>
                  <masterclipid>clip-master</masterclipid>
                </multiclip>
              </clipitem>
              <clipitem id="cs-337">
                <duration>353</duration>
                <rate>
                  <ntsc>false</ntsc>
                  <timebase>25</timebase>
                </rate>
                <in>50062</in>
                <out>50414</out>
                <start>50062</start>
                <end>50414</end>
                <file id="src-1"/>
                <sourcetrack>
                  <mediatype>video</mediatype>
                  <trackindex>1</trackindex>
                </sourcetrack>
                <multiclip id="mcs-337">
                  <name>MCS-337</name>
                  <masterclipid>clip-master</masterclipid>
                  <collapsed>false</collapsed>
                  <angle>
                    <activevideoangle>true</activevideoangle>
                    <activeaudioangle>true</activeaudioangle>
                    <clip id="clip-1"/>
                  </angle>
                  <angle>
                    <activevideoangle>false</activevideoangle>
                    <activeaudioangle>false</activeaudioangle>
                    <clip id="clip-2"/>
                  </angle>
                  <angle>
                    <activevideoangle>false</activevideoangle>
                    <activeaudioangle>false</activeaudioangle>
                    <clip id="clip-3"/>
                  </angle>
                  <angle>
                    <activevideoangle>false</activevideoangle>
                    <activeaudioangle>false</activeaudioangle>
                    <clip id="clip-4"/>
                  </angle>
                  <angle>
                    <activevideoangle>false</activevideoangle>
                    <activeaudioangle>false</activeaudioangle>
                    <clip id="clip-5"/>
                  </angle>
                  <angle>
                    <activevideoangle>false</activevideoangle>
                    <activeaudioangle>false</activeaudioangle>
                    <clip id="clip-6"/>
                  </angle>
                  <angle>
                    <activevideoangle>false</activevideoangle>
                    <activeaudioangle>false</activeaudioangle>
                    <clip id="clip-7"/>
                  </angle>
                  <angle>
                    <activevideoangle>false</activevideoangle>
                    <activeaudioangle>false</activeaudioangle>
                    <clip id="clip-8"/>
                  </angle>
                  <angle>
                    <activevideoangle>false</activevideoangle>
                    <activeaudioangle>false</activeaudioangle>
                    <clip id="clip-9"/>
                  </angle>
                  <masterclipid>clip-master</masterclipid>
                </multiclip>
              </clipitem>
              <clipitem id="cs-338">
                <duration>376</duration>
                <rate>
                  <ntsc>false</ntsc>
                  <timebase>25</timebase>
                </rate>
                <in>50414</in>
                <out>50789</out>
                <start>50414</start>
                <end>50789</end>
                <file id="src-5"/>
                <sourcetrack>
                  <mediatype>video</mediatype>
                  <trackindex>1</trackindex>
                </sourcetrack>
                <multiclip id="mcs-338">
                  <name>MCS-338</name>
                  <masterclipid>clip-master</masterclipid>
                  <collapsed>false</collapsed>
                  <angle>
                    <activevideoangle>false</activevideoangle>
                    <activeaudioangle>false</activeaudioangle>
                    <clip id="clip-1"/>
                  </angle>
                  <angle>
                    <activevideoangle>false</activevideoangle>
                    <activeaudioangle>false</activeaudioangle>
                    <clip id="clip-2"/>
                  </angle>
                  <angle>
                    <activevideoangle>false</activevideoangle>
                    <activeaudioangle>false</activeaudioangle>
                    <clip id="clip-3"/>
                  </angle>
                  <angle>
                    <activevideoangle>false</activevideoangle>
                    <activeaudioangle>false</activeaudioangle>
                    <clip id="clip-4"/>
                  </angle>
                  <angle>
                    <activevideoangle>true</activevideoangle>
                    <activeaudioangle>true</activeaudioangle>
                    <clip id="clip-5"/>
                  </angle>
                  <angle>
                    <activevideoangle>false</activevideoangle>
                    <activeaudioangle>false</activeaudioangle>
                    <clip id="clip-6"/>
                  </angle>
                  <angle>
                    <activevideoangle>false</activevideoangle>
                    <activeaudioangle>false</activeaudioangle>
                    <clip id="clip-7"/>
                  </angle>
                  <angle>
                    <activevideoangle>false</activevideoangle>
                    <activeaudioangle>false</activeaudioangle>
                    <clip id="clip-8"/>
                  </angle>
                  <angle>
                    <activevideoangle>false</activevideoangle>
                    <activeaudioangle>false</activeaudioangle>
                    <clip id="clip-9"/>
                  </angle>
                  <masterclipid>clip-master</masterclipid>
                </multiclip>
              </clipitem>
              <clipitem id="cs-339">
                <duration>56</duration>
                <rate>
                  <ntsc>false</ntsc>
                  <timebase>25</timebase>
                </rate>
                <in>50789</in>
                <out>50844</out>
                <start>50789</start>
                <end>50844</end>
                <file id="src-2"/>
                <sourcetrack>
                  <mediatype>video</mediatype>
                  <trackindex>1</trackindex>
                </sourcetrack>
                <multiclip id="mcs-339">
                  <name>MCS-339</name>
                  <masterclipid>clip-master</masterclipid>
                  <collapsed>false</collapsed>
                  <angle>
                    <activevideoangle>false</activevideoangle>
                    <activeaudioangle>false</activeaudioangle>
                    <clip id="clip-1"/>
                  </angle>
                  <angle>
                    <activevideoangle>true</activevideoangle>
                    <activeaudioangle>true</activeaudioangle>
                    <clip id="clip-2"/>
                  </angle>
                  <angle>
                    <activevideoangle>false</activevideoangle>
                    <activeaudioangle>false</activeaudioangle>
                    <clip id="clip-3"/>
                  </angle>
                  <angle>
                    <activevideoangle>false</activevideoangle>
                    <activeaudioangle>false</activeaudioangle>
                    <clip id="clip-4"/>
                  </angle>
                  <angle>
                    <activevideoangle>false</activevideoangle>
                    <activeaudioangle>false</activeaudioangle>
                    <clip id="clip-5"/>
                  </angle>
                  <angle>
                    <activevideoangle>false</activevideoangle>
                    <activeaudioangle>false</activeaudioangle>
                    <clip id="clip-6"/>
                  </angle>
                  <angle>
                    <activevideoangle>false</activevideoangle>
                    <activeaudioangle>false</activeaudioangle>
                    <clip id="clip-7"/>
                  </angle>
                  <angle>
                    <activevideoangle>false</activevideoangle>
                    <activeaudioangle>false</activeaudioangle>
                    <clip id="clip-8"/>
                  </angle>
                  <angle>
                    <activevideoangle>false</activevideoangle>
                    <activeaudioangle>false</activeaudioangle>
                    <clip id="clip-9"/>
                  </angle>
                  <masterclipid>clip-master</masterclipid>
                </multiclip>
              </clipitem>
              <clipitem id="cs-340">
                <duration>36</duration>
                <rate>
                  <ntsc>false</ntsc>
                  <timebase>25</timebase>
                </rate>
                <in>50844</in>
                <out>50879</out>
                <start>50844</start>
                <end>50879</end>
                <file id="src-4"/>
                <sourcetrack>
                  <mediatype>video</mediatype>
                  <trackindex>1</trackindex>
                </sourcetrack>
                <multiclip id="mcs-340">
                  <name>MCS-340</name>
                  <masterclipid>clip-master</masterclipid>
                  <collapsed>false</collapsed>
                  <angle>
                    <activevideoangle>false</activevideoangle>
                    <activeaudioangle>false</activeaudioangle>
                    <clip id="clip-1"/>
                  </angle>
                  <angle>
                    <activevideoangle>false</activevideoangle>
                    <activeaudioangle>false</activeaudioangle>
                    <clip id="clip-2"/>
                  </angle>
                  <angle>
                    <activevideoangle>false</activevideoangle>
                    <activeaudioangle>false</activeaudioangle>
                    <clip id="clip-3"/>
                  </angle>
                  <angle>
                    <activevideoangle>true</activevideoangle>
                    <activeaudioangle>true</activeaudioangle>
                    <clip id="clip-4"/>
                  </angle>
                  <angle>
                    <activevideoangle>false</activevideoangle>
                    <activeaudioangle>false</activeaudioangle>
                    <clip id="clip-5"/>
                  </angle>
                  <angle>
                    <activevideoangle>false</activevideoangle>
                    <activeaudioangle>false</activeaudioangle>
                    <clip id="clip-6"/>
                  </angle>
                  <angle>
                    <activevideoangle>false</activevideoangle>
                    <activeaudioangle>false</activeaudioangle>
                    <clip id="clip-7"/>
                  </angle>
                  <angle>
                    <activevideoangle>false</activevideoangle>
                    <activeaudioangle>false</activeaudioangle>
                    <clip id="clip-8"/>
                  </angle>
                  <angle>
                    <activevideoangle>false</activevideoangle>
                    <activeaudioangle>false</activeaudioangle>
                    <clip id="clip-9"/>
                  </angle>
                  <masterclipid>clip-master</masterclipid>
                </multiclip>
              </clipitem>
              <clipitem id="cs-341">
                <duration>37</duration>
                <rate>
                  <ntsc>false</ntsc>
                  <timebase>25</timebase>
                </rate>
                <in>50879</in>
                <out>50915</out>
                <start>50879</start>
                <end>50915</end>
                <file id="src-6"/>
                <sourcetrack>
                  <mediatype>video</mediatype>
                  <trackindex>1</trackindex>
                </sourcetrack>
                <multiclip id="mcs-341">
                  <name>MCS-341</name>
                  <masterclipid>clip-master</masterclipid>
                  <collapsed>false</collapsed>
                  <angle>
                    <activevideoangle>false</activevideoangle>
                    <activeaudioangle>false</activeaudioangle>
                    <clip id="clip-1"/>
                  </angle>
                  <angle>
                    <activevideoangle>false</activevideoangle>
                    <activeaudioangle>false</activeaudioangle>
                    <clip id="clip-2"/>
                  </angle>
                  <angle>
                    <activevideoangle>false</activevideoangle>
                    <activeaudioangle>false</activeaudioangle>
                    <clip id="clip-3"/>
                  </angle>
                  <angle>
                    <activevideoangle>false</activevideoangle>
                    <activeaudioangle>false</activeaudioangle>
                    <clip id="clip-4"/>
                  </angle>
                  <angle>
                    <activevideoangle>false</activevideoangle>
                    <activeaudioangle>false</activeaudioangle>
                    <clip id="clip-5"/>
                  </angle>
                  <angle>
                    <activevideoangle>true</activevideoangle>
                    <activeaudioangle>true</activeaudioangle>
                    <clip id="clip-6"/>
                  </angle>
                  <angle>
                    <activevideoangle>false</activevideoangle>
                    <activeaudioangle>false</activeaudioangle>
                    <clip id="clip-7"/>
                  </angle>
                  <angle>
                    <activevideoangle>false</activevideoangle>
                    <activeaudioangle>false</activeaudioangle>
                    <clip id="clip-8"/>
                  </angle>
                  <angle>
                    <activevideoangle>false</activevideoangle>
                    <activeaudioangle>false</activeaudioangle>
                    <clip id="clip-9"/>
                  </angle>
                  <masterclipid>clip-master</masterclipid>
                </multiclip>
              </clipitem>
              <clipitem id="cs-342">
                <duration>74</duration>
                <rate>
                  <ntsc>false</ntsc>
                  <timebase>25</timebase>
                </rate>
                <in>50915</in>
                <out>50988</out>
                <start>50915</start>
                <end>50988</end>
                <file id="src-3"/>
                <sourcetrack>
                  <mediatype>video</mediatype>
                  <trackindex>1</trackindex>
                </sourcetrack>
                <multiclip id="mcs-342">
                  <name>MCS-342</name>
                  <masterclipid>clip-master</masterclipid>
                  <collapsed>false</collapsed>
                  <angle>
                    <activevideoangle>false</activevideoangle>
                    <activeaudioangle>false</activeaudioangle>
                    <clip id="clip-1"/>
                  </angle>
                  <angle>
                    <activevideoangle>false</activevideoangle>
                    <activeaudioangle>false</activeaudioangle>
                    <clip id="clip-2"/>
                  </angle>
                  <angle>
                    <activevideoangle>true</activevideoangle>
                    <activeaudioangle>true</activeaudioangle>
                    <clip id="clip-3"/>
                  </angle>
                  <angle>
                    <activevideoangle>false</activevideoangle>
                    <activeaudioangle>false</activeaudioangle>
                    <clip id="clip-4"/>
                  </angle>
                  <angle>
                    <activevideoangle>false</activevideoangle>
                    <activeaudioangle>false</activeaudioangle>
                    <clip id="clip-5"/>
                  </angle>
                  <angle>
                    <activevideoangle>false</activevideoangle>
                    <activeaudioangle>false</activeaudioangle>
                    <clip id="clip-6"/>
                  </angle>
                  <angle>
                    <activevideoangle>false</activevideoangle>
                    <activeaudioangle>false</activeaudioangle>
                    <clip id="clip-7"/>
                  </angle>
                  <angle>
                    <activevideoangle>false</activevideoangle>
                    <activeaudioangle>false</activeaudioangle>
                    <clip id="clip-8"/>
                  </angle>
                  <angle>
                    <activevideoangle>false</activevideoangle>
                    <activeaudioangle>false</activeaudioangle>
                    <clip id="clip-9"/>
                  </angle>
                  <masterclipid>clip-master</masterclipid>
                </multiclip>
              </clipitem>
              <clipitem id="cs-343">
                <duration>69</duration>
                <rate>
                  <ntsc>false</ntsc>
                  <timebase>25</timebase>
                </rate>
                <in>50988</in>
                <out>51056</out>
                <start>50988</start>
                <end>51056</end>
                <file id="src-5"/>
                <sourcetrack>
                  <mediatype>video</mediatype>
                  <trackindex>1</trackindex>
                </sourcetrack>
                <multiclip id="mcs-343">
                  <name>MCS-343</name>
                  <masterclipid>clip-master</masterclipid>
                  <collapsed>false</collapsed>
                  <angle>
                    <activevideoangle>false</activevideoangle>
                    <activeaudioangle>false</activeaudioangle>
                    <clip id="clip-1"/>
                  </angle>
                  <angle>
                    <activevideoangle>false</activevideoangle>
                    <activeaudioangle>false</activeaudioangle>
                    <clip id="clip-2"/>
                  </angle>
                  <angle>
                    <activevideoangle>false</activevideoangle>
                    <activeaudioangle>false</activeaudioangle>
                    <clip id="clip-3"/>
                  </angle>
                  <angle>
                    <activevideoangle>false</activevideoangle>
                    <activeaudioangle>false</activeaudioangle>
                    <clip id="clip-4"/>
                  </angle>
                  <angle>
                    <activevideoangle>true</activevideoangle>
                    <activeaudioangle>true</activeaudioangle>
                    <clip id="clip-5"/>
                  </angle>
                  <angle>
                    <activevideoangle>false</activevideoangle>
                    <activeaudioangle>false</activeaudioangle>
                    <clip id="clip-6"/>
                  </angle>
                  <angle>
                    <activevideoangle>false</activevideoangle>
                    <activeaudioangle>false</activeaudioangle>
                    <clip id="clip-7"/>
                  </angle>
                  <angle>
                    <activevideoangle>false</activevideoangle>
                    <activeaudioangle>false</activeaudioangle>
                    <clip id="clip-8"/>
                  </angle>
                  <angle>
                    <activevideoangle>false</activevideoangle>
                    <activeaudioangle>false</activeaudioangle>
                    <clip id="clip-9"/>
                  </angle>
                  <masterclipid>clip-master</masterclipid>
                </multiclip>
              </clipitem>
              <clipitem id="cs-344">
                <duration>186</duration>
                <rate>
                  <ntsc>false</ntsc>
                  <timebase>25</timebase>
                </rate>
                <in>51056</in>
                <out>51241</out>
                <start>51056</start>
                <end>51241</end>
                <file id="src-2"/>
                <sourcetrack>
                  <mediatype>video</mediatype>
                  <trackindex>1</trackindex>
                </sourcetrack>
                <multiclip id="mcs-344">
                  <name>MCS-344</name>
                  <masterclipid>clip-master</masterclipid>
                  <collapsed>false</collapsed>
                  <angle>
                    <activevideoangle>false</activevideoangle>
                    <activeaudioangle>false</activeaudioangle>
                    <clip id="clip-1"/>
                  </angle>
                  <angle>
                    <activevideoangle>true</activevideoangle>
                    <activeaudioangle>true</activeaudioangle>
                    <clip id="clip-2"/>
                  </angle>
                  <angle>
                    <activevideoangle>false</activevideoangle>
                    <activeaudioangle>false</activeaudioangle>
                    <clip id="clip-3"/>
                  </angle>
                  <angle>
                    <activevideoangle>false</activevideoangle>
                    <activeaudioangle>false</activeaudioangle>
                    <clip id="clip-4"/>
                  </angle>
                  <angle>
                    <activevideoangle>false</activevideoangle>
                    <activeaudioangle>false</activeaudioangle>
                    <clip id="clip-5"/>
                  </angle>
                  <angle>
                    <activevideoangle>false</activevideoangle>
                    <activeaudioangle>false</activeaudioangle>
                    <clip id="clip-6"/>
                  </angle>
                  <angle>
                    <activevideoangle>false</activevideoangle>
                    <activeaudioangle>false</activeaudioangle>
                    <clip id="clip-7"/>
                  </angle>
                  <angle>
                    <activevideoangle>false</activevideoangle>
                    <activeaudioangle>false</activeaudioangle>
                    <clip id="clip-8"/>
                  </angle>
                  <angle>
                    <activevideoangle>false</activevideoangle>
                    <activeaudioangle>false</activeaudioangle>
                    <clip id="clip-9"/>
                  </angle>
                  <masterclipid>clip-master</masterclipid>
                </multiclip>
              </clipitem>
              <clipitem id="cs-345">
                <duration>178</duration>
                <rate>
                  <ntsc>false</ntsc>
                  <timebase>25</timebase>
                </rate>
                <in>51241</in>
                <out>51418</out>
                <start>51241</start>
                <end>51418</end>
                <file id="src-3"/>
                <sourcetrack>
                  <mediatype>video</mediatype>
                  <trackindex>1</trackindex>
                </sourcetrack>
                <multiclip id="mcs-345">
                  <name>MCS-345</name>
                  <masterclipid>clip-master</masterclipid>
                  <collapsed>false</collapsed>
                  <angle>
                    <activevideoangle>false</activevideoangle>
                    <activeaudioangle>false</activeaudioangle>
                    <clip id="clip-1"/>
                  </angle>
                  <angle>
                    <activevideoangle>false</activevideoangle>
                    <activeaudioangle>false</activeaudioangle>
                    <clip id="clip-2"/>
                  </angle>
                  <angle>
                    <activevideoangle>true</activevideoangle>
                    <activeaudioangle>true</activeaudioangle>
                    <clip id="clip-3"/>
                  </angle>
                  <angle>
                    <activevideoangle>false</activevideoangle>
                    <activeaudioangle>false</activeaudioangle>
                    <clip id="clip-4"/>
                  </angle>
                  <angle>
                    <activevideoangle>false</activevideoangle>
                    <activeaudioangle>false</activeaudioangle>
                    <clip id="clip-5"/>
                  </angle>
                  <angle>
                    <activevideoangle>false</activevideoangle>
                    <activeaudioangle>false</activeaudioangle>
                    <clip id="clip-6"/>
                  </angle>
                  <angle>
                    <activevideoangle>false</activevideoangle>
                    <activeaudioangle>false</activeaudioangle>
                    <clip id="clip-7"/>
                  </angle>
                  <angle>
                    <activevideoangle>false</activevideoangle>
                    <activeaudioangle>false</activeaudioangle>
                    <clip id="clip-8"/>
                  </angle>
                  <angle>
                    <activevideoangle>false</activevideoangle>
                    <activeaudioangle>false</activeaudioangle>
                    <clip id="clip-9"/>
                  </angle>
                  <masterclipid>clip-master</masterclipid>
                </multiclip>
              </clipitem>
              <clipitem id="cs-346">
                <duration>60</duration>
                <rate>
                  <ntsc>false</ntsc>
                  <timebase>25</timebase>
                </rate>
                <in>51418</in>
                <out>51477</out>
                <start>51418</start>
                <end>51477</end>
                <file id="src-6"/>
                <sourcetrack>
                  <mediatype>video</mediatype>
                  <trackindex>1</trackindex>
                </sourcetrack>
                <multiclip id="mcs-346">
                  <name>MCS-346</name>
                  <masterclipid>clip-master</masterclipid>
                  <collapsed>false</collapsed>
                  <angle>
                    <activevideoangle>false</activevideoangle>
                    <activeaudioangle>false</activeaudioangle>
                    <clip id="clip-1"/>
                  </angle>
                  <angle>
                    <activevideoangle>false</activevideoangle>
                    <activeaudioangle>false</activeaudioangle>
                    <clip id="clip-2"/>
                  </angle>
                  <angle>
                    <activevideoangle>false</activevideoangle>
                    <activeaudioangle>false</activeaudioangle>
                    <clip id="clip-3"/>
                  </angle>
                  <angle>
                    <activevideoangle>false</activevideoangle>
                    <activeaudioangle>false</activeaudioangle>
                    <clip id="clip-4"/>
                  </angle>
                  <angle>
                    <activevideoangle>false</activevideoangle>
                    <activeaudioangle>false</activeaudioangle>
                    <clip id="clip-5"/>
                  </angle>
                  <angle>
                    <activevideoangle>true</activevideoangle>
                    <activeaudioangle>true</activeaudioangle>
                    <clip id="clip-6"/>
                  </angle>
                  <angle>
                    <activevideoangle>false</activevideoangle>
                    <activeaudioangle>false</activeaudioangle>
                    <clip id="clip-7"/>
                  </angle>
                  <angle>
                    <activevideoangle>false</activevideoangle>
                    <activeaudioangle>false</activeaudioangle>
                    <clip id="clip-8"/>
                  </angle>
                  <angle>
                    <activevideoangle>false</activevideoangle>
                    <activeaudioangle>false</activeaudioangle>
                    <clip id="clip-9"/>
                  </angle>
                  <masterclipid>clip-master</masterclipid>
                </multiclip>
              </clipitem>
              <clipitem id="cs-347">
                <duration>101</duration>
                <rate>
                  <ntsc>false</ntsc>
                  <timebase>25</timebase>
                </rate>
                <in>51477</in>
                <out>51577</out>
                <start>51477</start>
                <end>51577</end>
                <file id="src-4"/>
                <sourcetrack>
                  <mediatype>video</mediatype>
                  <trackindex>1</trackindex>
                </sourcetrack>
                <multiclip id="mcs-347">
                  <name>MCS-347</name>
                  <masterclipid>clip-master</masterclipid>
                  <collapsed>false</collapsed>
                  <angle>
                    <activevideoangle>false</activevideoangle>
                    <activeaudioangle>false</activeaudioangle>
                    <clip id="clip-1"/>
                  </angle>
                  <angle>
                    <activevideoangle>false</activevideoangle>
                    <activeaudioangle>false</activeaudioangle>
                    <clip id="clip-2"/>
                  </angle>
                  <angle>
                    <activevideoangle>false</activevideoangle>
                    <activeaudioangle>false</activeaudioangle>
                    <clip id="clip-3"/>
                  </angle>
                  <angle>
                    <activevideoangle>true</activevideoangle>
                    <activeaudioangle>true</activeaudioangle>
                    <clip id="clip-4"/>
                  </angle>
                  <angle>
                    <activevideoangle>false</activevideoangle>
                    <activeaudioangle>false</activeaudioangle>
                    <clip id="clip-5"/>
                  </angle>
                  <angle>
                    <activevideoangle>false</activevideoangle>
                    <activeaudioangle>false</activeaudioangle>
                    <clip id="clip-6"/>
                  </angle>
                  <angle>
                    <activevideoangle>false</activevideoangle>
                    <activeaudioangle>false</activeaudioangle>
                    <clip id="clip-7"/>
                  </angle>
                  <angle>
                    <activevideoangle>false</activevideoangle>
                    <activeaudioangle>false</activeaudioangle>
                    <clip id="clip-8"/>
                  </angle>
                  <angle>
                    <activevideoangle>false</activevideoangle>
                    <activeaudioangle>false</activeaudioangle>
                    <clip id="clip-9"/>
                  </angle>
                  <masterclipid>clip-master</masterclipid>
                </multiclip>
              </clipitem>
              <clipitem id="cs-348">
                <duration>126</duration>
                <rate>
                  <ntsc>false</ntsc>
                  <timebase>25</timebase>
                </rate>
                <in>51577</in>
                <out>51702</out>
                <start>51577</start>
                <end>51702</end>
                <file id="src-2"/>
                <sourcetrack>
                  <mediatype>video</mediatype>
                  <trackindex>1</trackindex>
                </sourcetrack>
                <multiclip id="mcs-348">
                  <name>MCS-348</name>
                  <masterclipid>clip-master</masterclipid>
                  <collapsed>false</collapsed>
                  <angle>
                    <activevideoangle>false</activevideoangle>
                    <activeaudioangle>false</activeaudioangle>
                    <clip id="clip-1"/>
                  </angle>
                  <angle>
                    <activevideoangle>true</activevideoangle>
                    <activeaudioangle>true</activeaudioangle>
                    <clip id="clip-2"/>
                  </angle>
                  <angle>
                    <activevideoangle>false</activevideoangle>
                    <activeaudioangle>false</activeaudioangle>
                    <clip id="clip-3"/>
                  </angle>
                  <angle>
                    <activevideoangle>false</activevideoangle>
                    <activeaudioangle>false</activeaudioangle>
                    <clip id="clip-4"/>
                  </angle>
                  <angle>
                    <activevideoangle>false</activevideoangle>
                    <activeaudioangle>false</activeaudioangle>
                    <clip id="clip-5"/>
                  </angle>
                  <angle>
                    <activevideoangle>false</activevideoangle>
                    <activeaudioangle>false</activeaudioangle>
                    <clip id="clip-6"/>
                  </angle>
                  <angle>
                    <activevideoangle>false</activevideoangle>
                    <activeaudioangle>false</activeaudioangle>
                    <clip id="clip-7"/>
                  </angle>
                  <angle>
                    <activevideoangle>false</activevideoangle>
                    <activeaudioangle>false</activeaudioangle>
                    <clip id="clip-8"/>
                  </angle>
                  <angle>
                    <activevideoangle>false</activevideoangle>
                    <activeaudioangle>false</activeaudioangle>
                    <clip id="clip-9"/>
                  </angle>
                  <masterclipid>clip-master</masterclipid>
                </multiclip>
              </clipitem>
              <clipitem id="cs-349">
                <duration>63</duration>
                <rate>
                  <ntsc>false</ntsc>
                  <timebase>25</timebase>
                </rate>
                <in>51702</in>
                <out>51764</out>
                <start>51702</start>
                <end>51764</end>
                <file id="src-5"/>
                <sourcetrack>
                  <mediatype>video</mediatype>
                  <trackindex>1</trackindex>
                </sourcetrack>
                <multiclip id="mcs-349">
                  <name>MCS-349</name>
                  <masterclipid>clip-master</masterclipid>
                  <collapsed>false</collapsed>
                  <angle>
                    <activevideoangle>false</activevideoangle>
                    <activeaudioangle>false</activeaudioangle>
                    <clip id="clip-1"/>
                  </angle>
                  <angle>
                    <activevideoangle>false</activevideoangle>
                    <activeaudioangle>false</activeaudioangle>
                    <clip id="clip-2"/>
                  </angle>
                  <angle>
                    <activevideoangle>false</activevideoangle>
                    <activeaudioangle>false</activeaudioangle>
                    <clip id="clip-3"/>
                  </angle>
                  <angle>
                    <activevideoangle>false</activevideoangle>
                    <activeaudioangle>false</activeaudioangle>
                    <clip id="clip-4"/>
                  </angle>
                  <angle>
                    <activevideoangle>true</activevideoangle>
                    <activeaudioangle>true</activeaudioangle>
                    <clip id="clip-5"/>
                  </angle>
                  <angle>
                    <activevideoangle>false</activevideoangle>
                    <activeaudioangle>false</activeaudioangle>
                    <clip id="clip-6"/>
                  </angle>
                  <angle>
                    <activevideoangle>false</activevideoangle>
                    <activeaudioangle>false</activeaudioangle>
                    <clip id="clip-7"/>
                  </angle>
                  <angle>
                    <activevideoangle>false</activevideoangle>
                    <activeaudioangle>false</activeaudioangle>
                    <clip id="clip-8"/>
                  </angle>
                  <angle>
                    <activevideoangle>false</activevideoangle>
                    <activeaudioangle>false</activeaudioangle>
                    <clip id="clip-9"/>
                  </angle>
                  <masterclipid>clip-master</masterclipid>
                </multiclip>
              </clipitem>
              <clipitem id="cs-350">
                <duration>50</duration>
                <rate>
                  <ntsc>false</ntsc>
                  <timebase>25</timebase>
                </rate>
                <in>51764</in>
                <out>51813</out>
                <start>51764</start>
                <end>51813</end>
                <file id="src-2"/>
                <sourcetrack>
                  <mediatype>video</mediatype>
                  <trackindex>1</trackindex>
                </sourcetrack>
                <multiclip id="mcs-350">
                  <name>MCS-350</name>
                  <masterclipid>clip-master</masterclipid>
                  <collapsed>false</collapsed>
                  <angle>
                    <activevideoangle>false</activevideoangle>
                    <activeaudioangle>false</activeaudioangle>
                    <clip id="clip-1"/>
                  </angle>
                  <angle>
                    <activevideoangle>true</activevideoangle>
                    <activeaudioangle>true</activeaudioangle>
                    <clip id="clip-2"/>
                  </angle>
                  <angle>
                    <activevideoangle>false</activevideoangle>
                    <activeaudioangle>false</activeaudioangle>
                    <clip id="clip-3"/>
                  </angle>
                  <angle>
                    <activevideoangle>false</activevideoangle>
                    <activeaudioangle>false</activeaudioangle>
                    <clip id="clip-4"/>
                  </angle>
                  <angle>
                    <activevideoangle>false</activevideoangle>
                    <activeaudioangle>false</activeaudioangle>
                    <clip id="clip-5"/>
                  </angle>
                  <angle>
                    <activevideoangle>false</activevideoangle>
                    <activeaudioangle>false</activeaudioangle>
                    <clip id="clip-6"/>
                  </angle>
                  <angle>
                    <activevideoangle>false</activevideoangle>
                    <activeaudioangle>false</activeaudioangle>
                    <clip id="clip-7"/>
                  </angle>
                  <angle>
                    <activevideoangle>false</activevideoangle>
                    <activeaudioangle>false</activeaudioangle>
                    <clip id="clip-8"/>
                  </angle>
                  <angle>
                    <activevideoangle>false</activevideoangle>
                    <activeaudioangle>false</activeaudioangle>
                    <clip id="clip-9"/>
                  </angle>
                  <masterclipid>clip-master</masterclipid>
                </multiclip>
              </clipitem>
              <clipitem id="cs-351">
                <duration>40</duration>
                <rate>
                  <ntsc>false</ntsc>
                  <timebase>25</timebase>
                </rate>
                <in>51813</in>
                <out>51852</out>
                <start>51813</start>
                <end>51852</end>
                <file id="src-3"/>
                <sourcetrack>
                  <mediatype>video</mediatype>
                  <trackindex>1</trackindex>
                </sourcetrack>
                <multiclip id="mcs-351">
                  <name>MCS-351</name>
                  <masterclipid>clip-master</masterclipid>
                  <collapsed>false</collapsed>
                  <angle>
                    <activevideoangle>false</activevideoangle>
                    <activeaudioangle>false</activeaudioangle>
                    <clip id="clip-1"/>
                  </angle>
                  <angle>
                    <activevideoangle>false</activevideoangle>
                    <activeaudioangle>false</activeaudioangle>
                    <clip id="clip-2"/>
                  </angle>
                  <angle>
                    <activevideoangle>true</activevideoangle>
                    <activeaudioangle>true</activeaudioangle>
                    <clip id="clip-3"/>
                  </angle>
                  <angle>
                    <activevideoangle>false</activevideoangle>
                    <activeaudioangle>false</activeaudioangle>
                    <clip id="clip-4"/>
                  </angle>
                  <angle>
                    <activevideoangle>false</activevideoangle>
                    <activeaudioangle>false</activeaudioangle>
                    <clip id="clip-5"/>
                  </angle>
                  <angle>
                    <activevideoangle>false</activevideoangle>
                    <activeaudioangle>false</activeaudioangle>
                    <clip id="clip-6"/>
                  </angle>
                  <angle>
                    <activevideoangle>false</activevideoangle>
                    <activeaudioangle>false</activeaudioangle>
                    <clip id="clip-7"/>
                  </angle>
                  <angle>
                    <activevideoangle>false</activevideoangle>
                    <activeaudioangle>false</activeaudioangle>
                    <clip id="clip-8"/>
                  </angle>
                  <angle>
                    <activevideoangle>false</activevideoangle>
                    <activeaudioangle>false</activeaudioangle>
                    <clip id="clip-9"/>
                  </angle>
                  <masterclipid>clip-master</masterclipid>
                </multiclip>
              </clipitem>
              <clipitem id="cs-352">
                <duration>209</duration>
                <rate>
                  <ntsc>false</ntsc>
                  <timebase>25</timebase>
                </rate>
                <in>51852</in>
                <out>52060</out>
                <start>51852</start>
                <end>52060</end>
                <file id="src-6"/>
                <sourcetrack>
                  <mediatype>video</mediatype>
                  <trackindex>1</trackindex>
                </sourcetrack>
                <multiclip id="mcs-352">
                  <name>MCS-352</name>
                  <masterclipid>clip-master</masterclipid>
                  <collapsed>false</collapsed>
                  <angle>
                    <activevideoangle>false</activevideoangle>
                    <activeaudioangle>false</activeaudioangle>
                    <clip id="clip-1"/>
                  </angle>
                  <angle>
                    <activevideoangle>false</activevideoangle>
                    <activeaudioangle>false</activeaudioangle>
                    <clip id="clip-2"/>
                  </angle>
                  <angle>
                    <activevideoangle>false</activevideoangle>
                    <activeaudioangle>false</activeaudioangle>
                    <clip id="clip-3"/>
                  </angle>
                  <angle>
                    <activevideoangle>false</activevideoangle>
                    <activeaudioangle>false</activeaudioangle>
                    <clip id="clip-4"/>
                  </angle>
                  <angle>
                    <activevideoangle>false</activevideoangle>
                    <activeaudioangle>false</activeaudioangle>
                    <clip id="clip-5"/>
                  </angle>
                  <angle>
                    <activevideoangle>true</activevideoangle>
                    <activeaudioangle>true</activeaudioangle>
                    <clip id="clip-6"/>
                  </angle>
                  <angle>
                    <activevideoangle>false</activevideoangle>
                    <activeaudioangle>false</activeaudioangle>
                    <clip id="clip-7"/>
                  </angle>
                  <angle>
                    <activevideoangle>false</activevideoangle>
                    <activeaudioangle>false</activeaudioangle>
                    <clip id="clip-8"/>
                  </angle>
                  <angle>
                    <activevideoangle>false</activevideoangle>
                    <activeaudioangle>false</activeaudioangle>
                    <clip id="clip-9"/>
                  </angle>
                  <masterclipid>clip-master</masterclipid>
                </multiclip>
              </clipitem>
              <clipitem id="cs-353">
                <duration>267</duration>
                <rate>
                  <ntsc>false</ntsc>
                  <timebase>25</timebase>
                </rate>
                <in>52060</in>
                <out>52326</out>
                <start>52060</start>
                <end>52326</end>
                <file id="src-2"/>
                <sourcetrack>
                  <mediatype>video</mediatype>
                  <trackindex>1</trackindex>
                </sourcetrack>
                <multiclip id="mcs-353">
                  <name>MCS-353</name>
                  <masterclipid>clip-master</masterclipid>
                  <collapsed>false</collapsed>
                  <angle>
                    <activevideoangle>false</activevideoangle>
                    <activeaudioangle>false</activeaudioangle>
                    <clip id="clip-1"/>
                  </angle>
                  <angle>
                    <activevideoangle>true</activevideoangle>
                    <activeaudioangle>true</activeaudioangle>
                    <clip id="clip-2"/>
                  </angle>
                  <angle>
                    <activevideoangle>false</activevideoangle>
                    <activeaudioangle>false</activeaudioangle>
                    <clip id="clip-3"/>
                  </angle>
                  <angle>
                    <activevideoangle>false</activevideoangle>
                    <activeaudioangle>false</activeaudioangle>
                    <clip id="clip-4"/>
                  </angle>
                  <angle>
                    <activevideoangle>false</activevideoangle>
                    <activeaudioangle>false</activeaudioangle>
                    <clip id="clip-5"/>
                  </angle>
                  <angle>
                    <activevideoangle>false</activevideoangle>
                    <activeaudioangle>false</activeaudioangle>
                    <clip id="clip-6"/>
                  </angle>
                  <angle>
                    <activevideoangle>false</activevideoangle>
                    <activeaudioangle>false</activeaudioangle>
                    <clip id="clip-7"/>
                  </angle>
                  <angle>
                    <activevideoangle>false</activevideoangle>
                    <activeaudioangle>false</activeaudioangle>
                    <clip id="clip-8"/>
                  </angle>
                  <angle>
                    <activevideoangle>false</activevideoangle>
                    <activeaudioangle>false</activeaudioangle>
                    <clip id="clip-9"/>
                  </angle>
                  <masterclipid>clip-master</masterclipid>
                </multiclip>
              </clipitem>
              <clipitem id="cs-354">
                <duration>397</duration>
                <rate>
                  <ntsc>false</ntsc>
                  <timebase>25</timebase>
                </rate>
                <in>52326</in>
                <out>52722</out>
                <start>52326</start>
                <end>52722</end>
                <file id="src-3"/>
                <sourcetrack>
                  <mediatype>video</mediatype>
                  <trackindex>1</trackindex>
                </sourcetrack>
                <multiclip id="mcs-354">
                  <name>MCS-354</name>
                  <masterclipid>clip-master</masterclipid>
                  <collapsed>false</collapsed>
                  <angle>
                    <activevideoangle>false</activevideoangle>
                    <activeaudioangle>false</activeaudioangle>
                    <clip id="clip-1"/>
                  </angle>
                  <angle>
                    <activevideoangle>false</activevideoangle>
                    <activeaudioangle>false</activeaudioangle>
                    <clip id="clip-2"/>
                  </angle>
                  <angle>
                    <activevideoangle>true</activevideoangle>
                    <activeaudioangle>true</activeaudioangle>
                    <clip id="clip-3"/>
                  </angle>
                  <angle>
                    <activevideoangle>false</activevideoangle>
                    <activeaudioangle>false</activeaudioangle>
                    <clip id="clip-4"/>
                  </angle>
                  <angle>
                    <activevideoangle>false</activevideoangle>
                    <activeaudioangle>false</activeaudioangle>
                    <clip id="clip-5"/>
                  </angle>
                  <angle>
                    <activevideoangle>false</activevideoangle>
                    <activeaudioangle>false</activeaudioangle>
                    <clip id="clip-6"/>
                  </angle>
                  <angle>
                    <activevideoangle>false</activevideoangle>
                    <activeaudioangle>false</activeaudioangle>
                    <clip id="clip-7"/>
                  </angle>
                  <angle>
                    <activevideoangle>false</activevideoangle>
                    <activeaudioangle>false</activeaudioangle>
                    <clip id="clip-8"/>
                  </angle>
                  <angle>
                    <activevideoangle>false</activevideoangle>
                    <activeaudioangle>false</activeaudioangle>
                    <clip id="clip-9"/>
                  </angle>
                  <masterclipid>clip-master</masterclipid>
                </multiclip>
              </clipitem>
              <clipitem id="cs-355">
                <duration>79</duration>
                <rate>
                  <ntsc>false</ntsc>
                  <timebase>25</timebase>
                </rate>
                <in>52722</in>
                <out>52800</out>
                <start>52722</start>
                <end>52800</end>
                <file id="src-5"/>
                <sourcetrack>
                  <mediatype>video</mediatype>
                  <trackindex>1</trackindex>
                </sourcetrack>
                <multiclip id="mcs-355">
                  <name>MCS-355</name>
                  <masterclipid>clip-master</masterclipid>
                  <collapsed>false</collapsed>
                  <angle>
                    <activevideoangle>false</activevideoangle>
                    <activeaudioangle>false</activeaudioangle>
                    <clip id="clip-1"/>
                  </angle>
                  <angle>
                    <activevideoangle>false</activevideoangle>
                    <activeaudioangle>false</activeaudioangle>
                    <clip id="clip-2"/>
                  </angle>
                  <angle>
                    <activevideoangle>false</activevideoangle>
                    <activeaudioangle>false</activeaudioangle>
                    <clip id="clip-3"/>
                  </angle>
                  <angle>
                    <activevideoangle>false</activevideoangle>
                    <activeaudioangle>false</activeaudioangle>
                    <clip id="clip-4"/>
                  </angle>
                  <angle>
                    <activevideoangle>true</activevideoangle>
                    <activeaudioangle>true</activeaudioangle>
                    <clip id="clip-5"/>
                  </angle>
                  <angle>
                    <activevideoangle>false</activevideoangle>
                    <activeaudioangle>false</activeaudioangle>
                    <clip id="clip-6"/>
                  </angle>
                  <angle>
                    <activevideoangle>false</activevideoangle>
                    <activeaudioangle>false</activeaudioangle>
                    <clip id="clip-7"/>
                  </angle>
                  <angle>
                    <activevideoangle>false</activevideoangle>
                    <activeaudioangle>false</activeaudioangle>
                    <clip id="clip-8"/>
                  </angle>
                  <angle>
                    <activevideoangle>false</activevideoangle>
                    <activeaudioangle>false</activeaudioangle>
                    <clip id="clip-9"/>
                  </angle>
                  <masterclipid>clip-master</masterclipid>
                </multiclip>
              </clipitem>
              <clipitem id="cs-356">
                <duration>54</duration>
                <rate>
                  <ntsc>false</ntsc>
                  <timebase>25</timebase>
                </rate>
                <in>52800</in>
                <out>52853</out>
                <start>52800</start>
                <end>52853</end>
                <file id="src-4"/>
                <sourcetrack>
                  <mediatype>video</mediatype>
                  <trackindex>1</trackindex>
                </sourcetrack>
                <multiclip id="mcs-356">
                  <name>MCS-356</name>
                  <masterclipid>clip-master</masterclipid>
                  <collapsed>false</collapsed>
                  <angle>
                    <activevideoangle>false</activevideoangle>
                    <activeaudioangle>false</activeaudioangle>
                    <clip id="clip-1"/>
                  </angle>
                  <angle>
                    <activevideoangle>false</activevideoangle>
                    <activeaudioangle>false</activeaudioangle>
                    <clip id="clip-2"/>
                  </angle>
                  <angle>
                    <activevideoangle>false</activevideoangle>
                    <activeaudioangle>false</activeaudioangle>
                    <clip id="clip-3"/>
                  </angle>
                  <angle>
                    <activevideoangle>true</activevideoangle>
                    <activeaudioangle>true</activeaudioangle>
                    <clip id="clip-4"/>
                  </angle>
                  <angle>
                    <activevideoangle>false</activevideoangle>
                    <activeaudioangle>false</activeaudioangle>
                    <clip id="clip-5"/>
                  </angle>
                  <angle>
                    <activevideoangle>false</activevideoangle>
                    <activeaudioangle>false</activeaudioangle>
                    <clip id="clip-6"/>
                  </angle>
                  <angle>
                    <activevideoangle>false</activevideoangle>
                    <activeaudioangle>false</activeaudioangle>
                    <clip id="clip-7"/>
                  </angle>
                  <angle>
                    <activevideoangle>false</activevideoangle>
                    <activeaudioangle>false</activeaudioangle>
                    <clip id="clip-8"/>
                  </angle>
                  <angle>
                    <activevideoangle>false</activevideoangle>
                    <activeaudioangle>false</activeaudioangle>
                    <clip id="clip-9"/>
                  </angle>
                  <masterclipid>clip-master</masterclipid>
                </multiclip>
              </clipitem>
              <clipitem id="cs-357">
                <duration>77</duration>
                <rate>
                  <ntsc>false</ntsc>
                  <timebase>25</timebase>
                </rate>
                <in>52853</in>
                <out>52929</out>
                <start>52853</start>
                <end>52929</end>
                <file id="src-2"/>
                <sourcetrack>
                  <mediatype>video</mediatype>
                  <trackindex>1</trackindex>
                </sourcetrack>
                <multiclip id="mcs-357">
                  <name>MCS-357</name>
                  <masterclipid>clip-master</masterclipid>
                  <collapsed>false</collapsed>
                  <angle>
                    <activevideoangle>false</activevideoangle>
                    <activeaudioangle>false</activeaudioangle>
                    <clip id="clip-1"/>
                  </angle>
                  <angle>
                    <activevideoangle>true</activevideoangle>
                    <activeaudioangle>true</activeaudioangle>
                    <clip id="clip-2"/>
                  </angle>
                  <angle>
                    <activevideoangle>false</activevideoangle>
                    <activeaudioangle>false</activeaudioangle>
                    <clip id="clip-3"/>
                  </angle>
                  <angle>
                    <activevideoangle>false</activevideoangle>
                    <activeaudioangle>false</activeaudioangle>
                    <clip id="clip-4"/>
                  </angle>
                  <angle>
                    <activevideoangle>false</activevideoangle>
                    <activeaudioangle>false</activeaudioangle>
                    <clip id="clip-5"/>
                  </angle>
                  <angle>
                    <activevideoangle>false</activevideoangle>
                    <activeaudioangle>false</activeaudioangle>
                    <clip id="clip-6"/>
                  </angle>
                  <angle>
                    <activevideoangle>false</activevideoangle>
                    <activeaudioangle>false</activeaudioangle>
                    <clip id="clip-7"/>
                  </angle>
                  <angle>
                    <activevideoangle>false</activevideoangle>
                    <activeaudioangle>false</activeaudioangle>
                    <clip id="clip-8"/>
                  </angle>
                  <angle>
                    <activevideoangle>false</activevideoangle>
                    <activeaudioangle>false</activeaudioangle>
                    <clip id="clip-9"/>
                  </angle>
                  <masterclipid>clip-master</masterclipid>
                </multiclip>
              </clipitem>
              <clipitem id="cs-358">
                <duration>120</duration>
                <rate>
                  <ntsc>false</ntsc>
                  <timebase>25</timebase>
                </rate>
                <in>52929</in>
                <out>53048</out>
                <start>52929</start>
                <end>53048</end>
                <file id="src-4"/>
                <sourcetrack>
                  <mediatype>video</mediatype>
                  <trackindex>1</trackindex>
                </sourcetrack>
                <multiclip id="mcs-358">
                  <name>MCS-358</name>
                  <masterclipid>clip-master</masterclipid>
                  <collapsed>false</collapsed>
                  <angle>
                    <activevideoangle>false</activevideoangle>
                    <activeaudioangle>false</activeaudioangle>
                    <clip id="clip-1"/>
                  </angle>
                  <angle>
                    <activevideoangle>false</activevideoangle>
                    <activeaudioangle>false</activeaudioangle>
                    <clip id="clip-2"/>
                  </angle>
                  <angle>
                    <activevideoangle>false</activevideoangle>
                    <activeaudioangle>false</activeaudioangle>
                    <clip id="clip-3"/>
                  </angle>
                  <angle>
                    <activevideoangle>true</activevideoangle>
                    <activeaudioangle>true</activeaudioangle>
                    <clip id="clip-4"/>
                  </angle>
                  <angle>
                    <activevideoangle>false</activevideoangle>
                    <activeaudioangle>false</activeaudioangle>
                    <clip id="clip-5"/>
                  </angle>
                  <angle>
                    <activevideoangle>false</activevideoangle>
                    <activeaudioangle>false</activeaudioangle>
                    <clip id="clip-6"/>
                  </angle>
                  <angle>
                    <activevideoangle>false</activevideoangle>
                    <activeaudioangle>false</activeaudioangle>
                    <clip id="clip-7"/>
                  </angle>
                  <angle>
                    <activevideoangle>false</activevideoangle>
                    <activeaudioangle>false</activeaudioangle>
                    <clip id="clip-8"/>
                  </angle>
                  <angle>
                    <activevideoangle>false</activevideoangle>
                    <activeaudioangle>false</activeaudioangle>
                    <clip id="clip-9"/>
                  </angle>
                  <masterclipid>clip-master</masterclipid>
                </multiclip>
              </clipitem>
              <clipitem id="cs-359">
                <duration>315</duration>
                <rate>
                  <ntsc>false</ntsc>
                  <timebase>25</timebase>
                </rate>
                <in>53048</in>
                <out>53362</out>
                <start>53048</start>
                <end>53362</end>
                <file id="src-5"/>
                <sourcetrack>
                  <mediatype>video</mediatype>
                  <trackindex>1</trackindex>
                </sourcetrack>
                <multiclip id="mcs-359">
                  <name>MCS-359</name>
                  <masterclipid>clip-master</masterclipid>
                  <collapsed>false</collapsed>
                  <angle>
                    <activevideoangle>false</activevideoangle>
                    <activeaudioangle>false</activeaudioangle>
                    <clip id="clip-1"/>
                  </angle>
                  <angle>
                    <activevideoangle>false</activevideoangle>
                    <activeaudioangle>false</activeaudioangle>
                    <clip id="clip-2"/>
                  </angle>
                  <angle>
                    <activevideoangle>false</activevideoangle>
                    <activeaudioangle>false</activeaudioangle>
                    <clip id="clip-3"/>
                  </angle>
                  <angle>
                    <activevideoangle>false</activevideoangle>
                    <activeaudioangle>false</activeaudioangle>
                    <clip id="clip-4"/>
                  </angle>
                  <angle>
                    <activevideoangle>true</activevideoangle>
                    <activeaudioangle>true</activeaudioangle>
                    <clip id="clip-5"/>
                  </angle>
                  <angle>
                    <activevideoangle>false</activevideoangle>
                    <activeaudioangle>false</activeaudioangle>
                    <clip id="clip-6"/>
                  </angle>
                  <angle>
                    <activevideoangle>false</activevideoangle>
                    <activeaudioangle>false</activeaudioangle>
                    <clip id="clip-7"/>
                  </angle>
                  <angle>
                    <activevideoangle>false</activevideoangle>
                    <activeaudioangle>false</activeaudioangle>
                    <clip id="clip-8"/>
                  </angle>
                  <angle>
                    <activevideoangle>false</activevideoangle>
                    <activeaudioangle>false</activeaudioangle>
                    <clip id="clip-9"/>
                  </angle>
                  <masterclipid>clip-master</masterclipid>
                </multiclip>
              </clipitem>
              <clipitem id="cs-360">
                <duration>64</duration>
                <rate>
                  <ntsc>false</ntsc>
                  <timebase>25</timebase>
                </rate>
                <in>53362</in>
                <out>53425</out>
                <start>53362</start>
                <end>53425</end>
                <file id="src-4"/>
                <sourcetrack>
                  <mediatype>video</mediatype>
                  <trackindex>1</trackindex>
                </sourcetrack>
                <multiclip id="mcs-360">
                  <name>MCS-360</name>
                  <masterclipid>clip-master</masterclipid>
                  <collapsed>false</collapsed>
                  <angle>
                    <activevideoangle>false</activevideoangle>
                    <activeaudioangle>false</activeaudioangle>
                    <clip id="clip-1"/>
                  </angle>
                  <angle>
                    <activevideoangle>false</activevideoangle>
                    <activeaudioangle>false</activeaudioangle>
                    <clip id="clip-2"/>
                  </angle>
                  <angle>
                    <activevideoangle>false</activevideoangle>
                    <activeaudioangle>false</activeaudioangle>
                    <clip id="clip-3"/>
                  </angle>
                  <angle>
                    <activevideoangle>true</activevideoangle>
                    <activeaudioangle>true</activeaudioangle>
                    <clip id="clip-4"/>
                  </angle>
                  <angle>
                    <activevideoangle>false</activevideoangle>
                    <activeaudioangle>false</activeaudioangle>
                    <clip id="clip-5"/>
                  </angle>
                  <angle>
                    <activevideoangle>false</activevideoangle>
                    <activeaudioangle>false</activeaudioangle>
                    <clip id="clip-6"/>
                  </angle>
                  <angle>
                    <activevideoangle>false</activevideoangle>
                    <activeaudioangle>false</activeaudioangle>
                    <clip id="clip-7"/>
                  </angle>
                  <angle>
                    <activevideoangle>false</activevideoangle>
                    <activeaudioangle>false</activeaudioangle>
                    <clip id="clip-8"/>
                  </angle>
                  <angle>
                    <activevideoangle>false</activevideoangle>
                    <activeaudioangle>false</activeaudioangle>
                    <clip id="clip-9"/>
                  </angle>
                  <masterclipid>clip-master</masterclipid>
                </multiclip>
              </clipitem>
              <clipitem id="cs-361">
                <duration>104</duration>
                <rate>
                  <ntsc>false</ntsc>
                  <timebase>25</timebase>
                </rate>
                <in>53425</in>
                <out>53528</out>
                <start>53425</start>
                <end>53528</end>
                <file id="src-2"/>
                <sourcetrack>
                  <mediatype>video</mediatype>
                  <trackindex>1</trackindex>
                </sourcetrack>
                <multiclip id="mcs-361">
                  <name>MCS-361</name>
                  <masterclipid>clip-master</masterclipid>
                  <collapsed>false</collapsed>
                  <angle>
                    <activevideoangle>false</activevideoangle>
                    <activeaudioangle>false</activeaudioangle>
                    <clip id="clip-1"/>
                  </angle>
                  <angle>
                    <activevideoangle>true</activevideoangle>
                    <activeaudioangle>true</activeaudioangle>
                    <clip id="clip-2"/>
                  </angle>
                  <angle>
                    <activevideoangle>false</activevideoangle>
                    <activeaudioangle>false</activeaudioangle>
                    <clip id="clip-3"/>
                  </angle>
                  <angle>
                    <activevideoangle>false</activevideoangle>
                    <activeaudioangle>false</activeaudioangle>
                    <clip id="clip-4"/>
                  </angle>
                  <angle>
                    <activevideoangle>false</activevideoangle>
                    <activeaudioangle>false</activeaudioangle>
                    <clip id="clip-5"/>
                  </angle>
                  <angle>
                    <activevideoangle>false</activevideoangle>
                    <activeaudioangle>false</activeaudioangle>
                    <clip id="clip-6"/>
                  </angle>
                  <angle>
                    <activevideoangle>false</activevideoangle>
                    <activeaudioangle>false</activeaudioangle>
                    <clip id="clip-7"/>
                  </angle>
                  <angle>
                    <activevideoangle>false</activevideoangle>
                    <activeaudioangle>false</activeaudioangle>
                    <clip id="clip-8"/>
                  </angle>
                  <angle>
                    <activevideoangle>false</activevideoangle>
                    <activeaudioangle>false</activeaudioangle>
                    <clip id="clip-9"/>
                  </angle>
                  <masterclipid>clip-master</masterclipid>
                </multiclip>
              </clipitem>
              <clipitem id="cs-362">
                <duration>194</duration>
                <rate>
                  <ntsc>false</ntsc>
                  <timebase>25</timebase>
                </rate>
                <in>53528</in>
                <out>53721</out>
                <start>53528</start>
                <end>53721</end>
                <file id="src-1"/>
                <sourcetrack>
                  <mediatype>video</mediatype>
                  <trackindex>1</trackindex>
                </sourcetrack>
                <multiclip id="mcs-362">
                  <name>MCS-362</name>
                  <masterclipid>clip-master</masterclipid>
                  <collapsed>false</collapsed>
                  <angle>
                    <activevideoangle>true</activevideoangle>
                    <activeaudioangle>true</activeaudioangle>
                    <clip id="clip-1"/>
                  </angle>
                  <angle>
                    <activevideoangle>false</activevideoangle>
                    <activeaudioangle>false</activeaudioangle>
                    <clip id="clip-2"/>
                  </angle>
                  <angle>
                    <activevideoangle>false</activevideoangle>
                    <activeaudioangle>false</activeaudioangle>
                    <clip id="clip-3"/>
                  </angle>
                  <angle>
                    <activevideoangle>false</activevideoangle>
                    <activeaudioangle>false</activeaudioangle>
                    <clip id="clip-4"/>
                  </angle>
                  <angle>
                    <activevideoangle>false</activevideoangle>
                    <activeaudioangle>false</activeaudioangle>
                    <clip id="clip-5"/>
                  </angle>
                  <angle>
                    <activevideoangle>false</activevideoangle>
                    <activeaudioangle>false</activeaudioangle>
                    <clip id="clip-6"/>
                  </angle>
                  <angle>
                    <activevideoangle>false</activevideoangle>
                    <activeaudioangle>false</activeaudioangle>
                    <clip id="clip-7"/>
                  </angle>
                  <angle>
                    <activevideoangle>false</activevideoangle>
                    <activeaudioangle>false</activeaudioangle>
                    <clip id="clip-8"/>
                  </angle>
                  <angle>
                    <activevideoangle>false</activevideoangle>
                    <activeaudioangle>false</activeaudioangle>
                    <clip id="clip-9"/>
                  </angle>
                  <masterclipid>clip-master</masterclipid>
                </multiclip>
              </clipitem>
              <clipitem id="cs-363">
                <duration>116</duration>
                <rate>
                  <ntsc>false</ntsc>
                  <timebase>25</timebase>
                </rate>
                <in>53721</in>
                <out>53836</out>
                <start>53721</start>
                <end>53836</end>
                <file id="src-3"/>
                <sourcetrack>
                  <mediatype>video</mediatype>
                  <trackindex>1</trackindex>
                </sourcetrack>
                <multiclip id="mcs-363">
                  <name>MCS-363</name>
                  <masterclipid>clip-master</masterclipid>
                  <collapsed>false</collapsed>
                  <angle>
                    <activevideoangle>false</activevideoangle>
                    <activeaudioangle>false</activeaudioangle>
                    <clip id="clip-1"/>
                  </angle>
                  <angle>
                    <activevideoangle>false</activevideoangle>
                    <activeaudioangle>false</activeaudioangle>
                    <clip id="clip-2"/>
                  </angle>
                  <angle>
                    <activevideoangle>true</activevideoangle>
                    <activeaudioangle>true</activeaudioangle>
                    <clip id="clip-3"/>
                  </angle>
                  <angle>
                    <activevideoangle>false</activevideoangle>
                    <activeaudioangle>false</activeaudioangle>
                    <clip id="clip-4"/>
                  </angle>
                  <angle>
                    <activevideoangle>false</activevideoangle>
                    <activeaudioangle>false</activeaudioangle>
                    <clip id="clip-5"/>
                  </angle>
                  <angle>
                    <activevideoangle>false</activevideoangle>
                    <activeaudioangle>false</activeaudioangle>
                    <clip id="clip-6"/>
                  </angle>
                  <angle>
                    <activevideoangle>false</activevideoangle>
                    <activeaudioangle>false</activeaudioangle>
                    <clip id="clip-7"/>
                  </angle>
                  <angle>
                    <activevideoangle>false</activevideoangle>
                    <activeaudioangle>false</activeaudioangle>
                    <clip id="clip-8"/>
                  </angle>
                  <angle>
                    <activevideoangle>false</activevideoangle>
                    <activeaudioangle>false</activeaudioangle>
                    <clip id="clip-9"/>
                  </angle>
                  <masterclipid>clip-master</masterclipid>
                </multiclip>
              </clipitem>
              <clipitem id="cs-364">
                <duration>215</duration>
                <rate>
                  <ntsc>false</ntsc>
                  <timebase>25</timebase>
                </rate>
                <in>53836</in>
                <out>54050</out>
                <start>53836</start>
                <end>54050</end>
                <file id="src-4"/>
                <sourcetrack>
                  <mediatype>video</mediatype>
                  <trackindex>1</trackindex>
                </sourcetrack>
                <multiclip id="mcs-364">
                  <name>MCS-364</name>
                  <masterclipid>clip-master</masterclipid>
                  <collapsed>false</collapsed>
                  <angle>
                    <activevideoangle>false</activevideoangle>
                    <activeaudioangle>false</activeaudioangle>
                    <clip id="clip-1"/>
                  </angle>
                  <angle>
                    <activevideoangle>false</activevideoangle>
                    <activeaudioangle>false</activeaudioangle>
                    <clip id="clip-2"/>
                  </angle>
                  <angle>
                    <activevideoangle>false</activevideoangle>
                    <activeaudioangle>false</activeaudioangle>
                    <clip id="clip-3"/>
                  </angle>
                  <angle>
                    <activevideoangle>true</activevideoangle>
                    <activeaudioangle>true</activeaudioangle>
                    <clip id="clip-4"/>
                  </angle>
                  <angle>
                    <activevideoangle>false</activevideoangle>
                    <activeaudioangle>false</activeaudioangle>
                    <clip id="clip-5"/>
                  </angle>
                  <angle>
                    <activevideoangle>false</activevideoangle>
                    <activeaudioangle>false</activeaudioangle>
                    <clip id="clip-6"/>
                  </angle>
                  <angle>
                    <activevideoangle>false</activevideoangle>
                    <activeaudioangle>false</activeaudioangle>
                    <clip id="clip-7"/>
                  </angle>
                  <angle>
                    <activevideoangle>false</activevideoangle>
                    <activeaudioangle>false</activeaudioangle>
                    <clip id="clip-8"/>
                  </angle>
                  <angle>
                    <activevideoangle>false</activevideoangle>
                    <activeaudioangle>false</activeaudioangle>
                    <clip id="clip-9"/>
                  </angle>
                  <masterclipid>clip-master</masterclipid>
                </multiclip>
              </clipitem>
              <clipitem id="cs-365">
                <duration>188</duration>
                <rate>
                  <ntsc>false</ntsc>
                  <timebase>25</timebase>
                </rate>
                <in>54050</in>
                <out>54237</out>
                <start>54050</start>
                <end>54237</end>
                <file id="src-2"/>
                <sourcetrack>
                  <mediatype>video</mediatype>
                  <trackindex>1</trackindex>
                </sourcetrack>
                <multiclip id="mcs-365">
                  <name>MCS-365</name>
                  <masterclipid>clip-master</masterclipid>
                  <collapsed>false</collapsed>
                  <angle>
                    <activevideoangle>false</activevideoangle>
                    <activeaudioangle>false</activeaudioangle>
                    <clip id="clip-1"/>
                  </angle>
                  <angle>
                    <activevideoangle>true</activevideoangle>
                    <activeaudioangle>true</activeaudioangle>
                    <clip id="clip-2"/>
                  </angle>
                  <angle>
                    <activevideoangle>false</activevideoangle>
                    <activeaudioangle>false</activeaudioangle>
                    <clip id="clip-3"/>
                  </angle>
                  <angle>
                    <activevideoangle>false</activevideoangle>
                    <activeaudioangle>false</activeaudioangle>
                    <clip id="clip-4"/>
                  </angle>
                  <angle>
                    <activevideoangle>false</activevideoangle>
                    <activeaudioangle>false</activeaudioangle>
                    <clip id="clip-5"/>
                  </angle>
                  <angle>
                    <activevideoangle>false</activevideoangle>
                    <activeaudioangle>false</activeaudioangle>
                    <clip id="clip-6"/>
                  </angle>
                  <angle>
                    <activevideoangle>false</activevideoangle>
                    <activeaudioangle>false</activeaudioangle>
                    <clip id="clip-7"/>
                  </angle>
                  <angle>
                    <activevideoangle>false</activevideoangle>
                    <activeaudioangle>false</activeaudioangle>
                    <clip id="clip-8"/>
                  </angle>
                  <angle>
                    <activevideoangle>false</activevideoangle>
                    <activeaudioangle>false</activeaudioangle>
                    <clip id="clip-9"/>
                  </angle>
                  <masterclipid>clip-master</masterclipid>
                </multiclip>
              </clipitem>
              <clipitem id="cs-366">
                <duration>107</duration>
                <rate>
                  <ntsc>false</ntsc>
                  <timebase>25</timebase>
                </rate>
                <in>54237</in>
                <out>54343</out>
                <start>54237</start>
                <end>54343</end>
                <file id="src-4"/>
                <sourcetrack>
                  <mediatype>video</mediatype>
                  <trackindex>1</trackindex>
                </sourcetrack>
                <multiclip id="mcs-366">
                  <name>MCS-366</name>
                  <masterclipid>clip-master</masterclipid>
                  <collapsed>false</collapsed>
                  <angle>
                    <activevideoangle>false</activevideoangle>
                    <activeaudioangle>false</activeaudioangle>
                    <clip id="clip-1"/>
                  </angle>
                  <angle>
                    <activevideoangle>false</activevideoangle>
                    <activeaudioangle>false</activeaudioangle>
                    <clip id="clip-2"/>
                  </angle>
                  <angle>
                    <activevideoangle>false</activevideoangle>
                    <activeaudioangle>false</activeaudioangle>
                    <clip id="clip-3"/>
                  </angle>
                  <angle>
                    <activevideoangle>true</activevideoangle>
                    <activeaudioangle>true</activeaudioangle>
                    <clip id="clip-4"/>
                  </angle>
                  <angle>
                    <activevideoangle>false</activevideoangle>
                    <activeaudioangle>false</activeaudioangle>
                    <clip id="clip-5"/>
                  </angle>
                  <angle>
                    <activevideoangle>false</activevideoangle>
                    <activeaudioangle>false</activeaudioangle>
                    <clip id="clip-6"/>
                  </angle>
                  <angle>
                    <activevideoangle>false</activevideoangle>
                    <activeaudioangle>false</activeaudioangle>
                    <clip id="clip-7"/>
                  </angle>
                  <angle>
                    <activevideoangle>false</activevideoangle>
                    <activeaudioangle>false</activeaudioangle>
                    <clip id="clip-8"/>
                  </angle>
                  <angle>
                    <activevideoangle>false</activevideoangle>
                    <activeaudioangle>false</activeaudioangle>
                    <clip id="clip-9"/>
                  </angle>
                  <masterclipid>clip-master</masterclipid>
                </multiclip>
              </clipitem>
              <clipitem id="cs-367">
                <duration>40</duration>
                <rate>
                  <ntsc>false</ntsc>
                  <timebase>25</timebase>
                </rate>
                <in>54343</in>
                <out>54382</out>
                <start>54343</start>
                <end>54382</end>
                <file id="src-2"/>
                <sourcetrack>
                  <mediatype>video</mediatype>
                  <trackindex>1</trackindex>
                </sourcetrack>
                <multiclip id="mcs-367">
                  <name>MCS-367</name>
                  <masterclipid>clip-master</masterclipid>
                  <collapsed>false</collapsed>
                  <angle>
                    <activevideoangle>false</activevideoangle>
                    <activeaudioangle>false</activeaudioangle>
                    <clip id="clip-1"/>
                  </angle>
                  <angle>
                    <activevideoangle>true</activevideoangle>
                    <activeaudioangle>true</activeaudioangle>
                    <clip id="clip-2"/>
                  </angle>
                  <angle>
                    <activevideoangle>false</activevideoangle>
                    <activeaudioangle>false</activeaudioangle>
                    <clip id="clip-3"/>
                  </angle>
                  <angle>
                    <activevideoangle>false</activevideoangle>
                    <activeaudioangle>false</activeaudioangle>
                    <clip id="clip-4"/>
                  </angle>
                  <angle>
                    <activevideoangle>false</activevideoangle>
                    <activeaudioangle>false</activeaudioangle>
                    <clip id="clip-5"/>
                  </angle>
                  <angle>
                    <activevideoangle>false</activevideoangle>
                    <activeaudioangle>false</activeaudioangle>
                    <clip id="clip-6"/>
                  </angle>
                  <angle>
                    <activevideoangle>false</activevideoangle>
                    <activeaudioangle>false</activeaudioangle>
                    <clip id="clip-7"/>
                  </angle>
                  <angle>
                    <activevideoangle>false</activevideoangle>
                    <activeaudioangle>false</activeaudioangle>
                    <clip id="clip-8"/>
                  </angle>
                  <angle>
                    <activevideoangle>false</activevideoangle>
                    <activeaudioangle>false</activeaudioangle>
                    <clip id="clip-9"/>
                  </angle>
                  <masterclipid>clip-master</masterclipid>
                </multiclip>
              </clipitem>
              <clipitem id="cs-368">
                <duration>173</duration>
                <rate>
                  <ntsc>false</ntsc>
                  <timebase>25</timebase>
                </rate>
                <in>54382</in>
                <out>54554</out>
                <start>54382</start>
                <end>54554</end>
                <file id="src-5"/>
                <sourcetrack>
                  <mediatype>video</mediatype>
                  <trackindex>1</trackindex>
                </sourcetrack>
                <multiclip id="mcs-368">
                  <name>MCS-368</name>
                  <masterclipid>clip-master</masterclipid>
                  <collapsed>false</collapsed>
                  <angle>
                    <activevideoangle>false</activevideoangle>
                    <activeaudioangle>false</activeaudioangle>
                    <clip id="clip-1"/>
                  </angle>
                  <angle>
                    <activevideoangle>false</activevideoangle>
                    <activeaudioangle>false</activeaudioangle>
                    <clip id="clip-2"/>
                  </angle>
                  <angle>
                    <activevideoangle>false</activevideoangle>
                    <activeaudioangle>false</activeaudioangle>
                    <clip id="clip-3"/>
                  </angle>
                  <angle>
                    <activevideoangle>false</activevideoangle>
                    <activeaudioangle>false</activeaudioangle>
                    <clip id="clip-4"/>
                  </angle>
                  <angle>
                    <activevideoangle>true</activevideoangle>
                    <activeaudioangle>true</activeaudioangle>
                    <clip id="clip-5"/>
                  </angle>
                  <angle>
                    <activevideoangle>false</activevideoangle>
                    <activeaudioangle>false</activeaudioangle>
                    <clip id="clip-6"/>
                  </angle>
                  <angle>
                    <activevideoangle>false</activevideoangle>
                    <activeaudioangle>false</activeaudioangle>
                    <clip id="clip-7"/>
                  </angle>
                  <angle>
                    <activevideoangle>false</activevideoangle>
                    <activeaudioangle>false</activeaudioangle>
                    <clip id="clip-8"/>
                  </angle>
                  <angle>
                    <activevideoangle>false</activevideoangle>
                    <activeaudioangle>false</activeaudioangle>
                    <clip id="clip-9"/>
                  </angle>
                  <masterclipid>clip-master</masterclipid>
                </multiclip>
              </clipitem>
              <clipitem id="cs-369">
                <duration>127</duration>
                <rate>
                  <ntsc>false</ntsc>
                  <timebase>25</timebase>
                </rate>
                <in>54554</in>
                <out>54680</out>
                <start>54554</start>
                <end>54680</end>
                <file id="src-2"/>
                <sourcetrack>
                  <mediatype>video</mediatype>
                  <trackindex>1</trackindex>
                </sourcetrack>
                <multiclip id="mcs-369">
                  <name>MCS-369</name>
                  <masterclipid>clip-master</masterclipid>
                  <collapsed>false</collapsed>
                  <angle>
                    <activevideoangle>false</activevideoangle>
                    <activeaudioangle>false</activeaudioangle>
                    <clip id="clip-1"/>
                  </angle>
                  <angle>
                    <activevideoangle>true</activevideoangle>
                    <activeaudioangle>true</activeaudioangle>
                    <clip id="clip-2"/>
                  </angle>
                  <angle>
                    <activevideoangle>false</activevideoangle>
                    <activeaudioangle>false</activeaudioangle>
                    <clip id="clip-3"/>
                  </angle>
                  <angle>
                    <activevideoangle>false</activevideoangle>
                    <activeaudioangle>false</activeaudioangle>
                    <clip id="clip-4"/>
                  </angle>
                  <angle>
                    <activevideoangle>false</activevideoangle>
                    <activeaudioangle>false</activeaudioangle>
                    <clip id="clip-5"/>
                  </angle>
                  <angle>
                    <activevideoangle>false</activevideoangle>
                    <activeaudioangle>false</activeaudioangle>
                    <clip id="clip-6"/>
                  </angle>
                  <angle>
                    <activevideoangle>false</activevideoangle>
                    <activeaudioangle>false</activeaudioangle>
                    <clip id="clip-7"/>
                  </angle>
                  <angle>
                    <activevideoangle>false</activevideoangle>
                    <activeaudioangle>false</activeaudioangle>
                    <clip id="clip-8"/>
                  </angle>
                  <angle>
                    <activevideoangle>false</activevideoangle>
                    <activeaudioangle>false</activeaudioangle>
                    <clip id="clip-9"/>
                  </angle>
                  <masterclipid>clip-master</masterclipid>
                </multiclip>
              </clipitem>
              <clipitem id="cs-370">
                <duration>234</duration>
                <rate>
                  <ntsc>false</ntsc>
                  <timebase>25</timebase>
                </rate>
                <in>54680</in>
                <out>54913</out>
                <start>54680</start>
                <end>54913</end>
                <file id="src-4"/>
                <sourcetrack>
                  <mediatype>video</mediatype>
                  <trackindex>1</trackindex>
                </sourcetrack>
                <multiclip id="mcs-370">
                  <name>MCS-370</name>
                  <masterclipid>clip-master</masterclipid>
                  <collapsed>false</collapsed>
                  <angle>
                    <activevideoangle>false</activevideoangle>
                    <activeaudioangle>false</activeaudioangle>
                    <clip id="clip-1"/>
                  </angle>
                  <angle>
                    <activevideoangle>false</activevideoangle>
                    <activeaudioangle>false</activeaudioangle>
                    <clip id="clip-2"/>
                  </angle>
                  <angle>
                    <activevideoangle>false</activevideoangle>
                    <activeaudioangle>false</activeaudioangle>
                    <clip id="clip-3"/>
                  </angle>
                  <angle>
                    <activevideoangle>true</activevideoangle>
                    <activeaudioangle>true</activeaudioangle>
                    <clip id="clip-4"/>
                  </angle>
                  <angle>
                    <activevideoangle>false</activevideoangle>
                    <activeaudioangle>false</activeaudioangle>
                    <clip id="clip-5"/>
                  </angle>
                  <angle>
                    <activevideoangle>false</activevideoangle>
                    <activeaudioangle>false</activeaudioangle>
                    <clip id="clip-6"/>
                  </angle>
                  <angle>
                    <activevideoangle>false</activevideoangle>
                    <activeaudioangle>false</activeaudioangle>
                    <clip id="clip-7"/>
                  </angle>
                  <angle>
                    <activevideoangle>false</activevideoangle>
                    <activeaudioangle>false</activeaudioangle>
                    <clip id="clip-8"/>
                  </angle>
                  <angle>
                    <activevideoangle>false</activevideoangle>
                    <activeaudioangle>false</activeaudioangle>
                    <clip id="clip-9"/>
                  </angle>
                  <masterclipid>clip-master</masterclipid>
                </multiclip>
              </clipitem>
              <clipitem id="cs-371">
                <duration>149</duration>
                <rate>
                  <ntsc>false</ntsc>
                  <timebase>25</timebase>
                </rate>
                <in>54913</in>
                <out>55061</out>
                <start>54913</start>
                <end>55061</end>
                <file id="src-2"/>
                <sourcetrack>
                  <mediatype>video</mediatype>
                  <trackindex>1</trackindex>
                </sourcetrack>
                <multiclip id="mcs-371">
                  <name>MCS-371</name>
                  <masterclipid>clip-master</masterclipid>
                  <collapsed>false</collapsed>
                  <angle>
                    <activevideoangle>false</activevideoangle>
                    <activeaudioangle>false</activeaudioangle>
                    <clip id="clip-1"/>
                  </angle>
                  <angle>
                    <activevideoangle>true</activevideoangle>
                    <activeaudioangle>true</activeaudioangle>
                    <clip id="clip-2"/>
                  </angle>
                  <angle>
                    <activevideoangle>false</activevideoangle>
                    <activeaudioangle>false</activeaudioangle>
                    <clip id="clip-3"/>
                  </angle>
                  <angle>
                    <activevideoangle>false</activevideoangle>
                    <activeaudioangle>false</activeaudioangle>
                    <clip id="clip-4"/>
                  </angle>
                  <angle>
                    <activevideoangle>false</activevideoangle>
                    <activeaudioangle>false</activeaudioangle>
                    <clip id="clip-5"/>
                  </angle>
                  <angle>
                    <activevideoangle>false</activevideoangle>
                    <activeaudioangle>false</activeaudioangle>
                    <clip id="clip-6"/>
                  </angle>
                  <angle>
                    <activevideoangle>false</activevideoangle>
                    <activeaudioangle>false</activeaudioangle>
                    <clip id="clip-7"/>
                  </angle>
                  <angle>
                    <activevideoangle>false</activevideoangle>
                    <activeaudioangle>false</activeaudioangle>
                    <clip id="clip-8"/>
                  </angle>
                  <angle>
                    <activevideoangle>false</activevideoangle>
                    <activeaudioangle>false</activeaudioangle>
                    <clip id="clip-9"/>
                  </angle>
                  <masterclipid>clip-master</masterclipid>
                </multiclip>
              </clipitem>
              <clipitem id="cs-372">
                <duration>47</duration>
                <rate>
                  <ntsc>false</ntsc>
                  <timebase>25</timebase>
                </rate>
                <in>55061</in>
                <out>55107</out>
                <start>55061</start>
                <end>55107</end>
                <file id="src-3"/>
                <sourcetrack>
                  <mediatype>video</mediatype>
                  <trackindex>1</trackindex>
                </sourcetrack>
                <multiclip id="mcs-372">
                  <name>MCS-372</name>
                  <masterclipid>clip-master</masterclipid>
                  <collapsed>false</collapsed>
                  <angle>
                    <activevideoangle>false</activevideoangle>
                    <activeaudioangle>false</activeaudioangle>
                    <clip id="clip-1"/>
                  </angle>
                  <angle>
                    <activevideoangle>false</activevideoangle>
                    <activeaudioangle>false</activeaudioangle>
                    <clip id="clip-2"/>
                  </angle>
                  <angle>
                    <activevideoangle>true</activevideoangle>
                    <activeaudioangle>true</activeaudioangle>
                    <clip id="clip-3"/>
                  </angle>
                  <angle>
                    <activevideoangle>false</activevideoangle>
                    <activeaudioangle>false</activeaudioangle>
                    <clip id="clip-4"/>
                  </angle>
                  <angle>
                    <activevideoangle>false</activevideoangle>
                    <activeaudioangle>false</activeaudioangle>
                    <clip id="clip-5"/>
                  </angle>
                  <angle>
                    <activevideoangle>false</activevideoangle>
                    <activeaudioangle>false</activeaudioangle>
                    <clip id="clip-6"/>
                  </angle>
                  <angle>
                    <activevideoangle>false</activevideoangle>
                    <activeaudioangle>false</activeaudioangle>
                    <clip id="clip-7"/>
                  </angle>
                  <angle>
                    <activevideoangle>false</activevideoangle>
                    <activeaudioangle>false</activeaudioangle>
                    <clip id="clip-8"/>
                  </angle>
                  <angle>
                    <activevideoangle>false</activevideoangle>
                    <activeaudioangle>false</activeaudioangle>
                    <clip id="clip-9"/>
                  </angle>
                  <masterclipid>clip-master</masterclipid>
                </multiclip>
              </clipitem>
              <clipitem id="cs-373">
                <duration>283</duration>
                <rate>
                  <ntsc>false</ntsc>
                  <timebase>25</timebase>
                </rate>
                <in>55107</in>
                <out>55389</out>
                <start>55107</start>
                <end>55389</end>
                <file id="src-1"/>
                <sourcetrack>
                  <mediatype>video</mediatype>
                  <trackindex>1</trackindex>
                </sourcetrack>
                <multiclip id="mcs-373">
                  <name>MCS-373</name>
                  <masterclipid>clip-master</masterclipid>
                  <collapsed>false</collapsed>
                  <angle>
                    <activevideoangle>true</activevideoangle>
                    <activeaudioangle>true</activeaudioangle>
                    <clip id="clip-1"/>
                  </angle>
                  <angle>
                    <activevideoangle>false</activevideoangle>
                    <activeaudioangle>false</activeaudioangle>
                    <clip id="clip-2"/>
                  </angle>
                  <angle>
                    <activevideoangle>false</activevideoangle>
                    <activeaudioangle>false</activeaudioangle>
                    <clip id="clip-3"/>
                  </angle>
                  <angle>
                    <activevideoangle>false</activevideoangle>
                    <activeaudioangle>false</activeaudioangle>
                    <clip id="clip-4"/>
                  </angle>
                  <angle>
                    <activevideoangle>false</activevideoangle>
                    <activeaudioangle>false</activeaudioangle>
                    <clip id="clip-5"/>
                  </angle>
                  <angle>
                    <activevideoangle>false</activevideoangle>
                    <activeaudioangle>false</activeaudioangle>
                    <clip id="clip-6"/>
                  </angle>
                  <angle>
                    <activevideoangle>false</activevideoangle>
                    <activeaudioangle>false</activeaudioangle>
                    <clip id="clip-7"/>
                  </angle>
                  <angle>
                    <activevideoangle>false</activevideoangle>
                    <activeaudioangle>false</activeaudioangle>
                    <clip id="clip-8"/>
                  </angle>
                  <angle>
                    <activevideoangle>false</activevideoangle>
                    <activeaudioangle>false</activeaudioangle>
                    <clip id="clip-9"/>
                  </angle>
                  <masterclipid>clip-master</masterclipid>
                </multiclip>
              </clipitem>
              <clipitem id="cs-374">
                <duration>136</duration>
                <rate>
                  <ntsc>false</ntsc>
                  <timebase>25</timebase>
                </rate>
                <in>55389</in>
                <out>55524</out>
                <start>55389</start>
                <end>55524</end>
                <file id="src-4"/>
                <sourcetrack>
                  <mediatype>video</mediatype>
                  <trackindex>1</trackindex>
                </sourcetrack>
                <multiclip id="mcs-374">
                  <name>MCS-374</name>
                  <masterclipid>clip-master</masterclipid>
                  <collapsed>false</collapsed>
                  <angle>
                    <activevideoangle>false</activevideoangle>
                    <activeaudioangle>false</activeaudioangle>
                    <clip id="clip-1"/>
                  </angle>
                  <angle>
                    <activevideoangle>false</activevideoangle>
                    <activeaudioangle>false</activeaudioangle>
                    <clip id="clip-2"/>
                  </angle>
                  <angle>
                    <activevideoangle>false</activevideoangle>
                    <activeaudioangle>false</activeaudioangle>
                    <clip id="clip-3"/>
                  </angle>
                  <angle>
                    <activevideoangle>true</activevideoangle>
                    <activeaudioangle>true</activeaudioangle>
                    <clip id="clip-4"/>
                  </angle>
                  <angle>
                    <activevideoangle>false</activevideoangle>
                    <activeaudioangle>false</activeaudioangle>
                    <clip id="clip-5"/>
                  </angle>
                  <angle>
                    <activevideoangle>false</activevideoangle>
                    <activeaudioangle>false</activeaudioangle>
                    <clip id="clip-6"/>
                  </angle>
                  <angle>
                    <activevideoangle>false</activevideoangle>
                    <activeaudioangle>false</activeaudioangle>
                    <clip id="clip-7"/>
                  </angle>
                  <angle>
                    <activevideoangle>false</activevideoangle>
                    <activeaudioangle>false</activeaudioangle>
                    <clip id="clip-8"/>
                  </angle>
                  <angle>
                    <activevideoangle>false</activevideoangle>
                    <activeaudioangle>false</activeaudioangle>
                    <clip id="clip-9"/>
                  </angle>
                  <masterclipid>clip-master</masterclipid>
                </multiclip>
              </clipitem>
              <clipitem id="cs-375">
                <duration>116</duration>
                <rate>
                  <ntsc>false</ntsc>
                  <timebase>25</timebase>
                </rate>
                <in>55524</in>
                <out>55639</out>
                <start>55524</start>
                <end>55639</end>
                <file id="src-3"/>
                <sourcetrack>
                  <mediatype>video</mediatype>
                  <trackindex>1</trackindex>
                </sourcetrack>
                <multiclip id="mcs-375">
                  <name>MCS-375</name>
                  <masterclipid>clip-master</masterclipid>
                  <collapsed>false</collapsed>
                  <angle>
                    <activevideoangle>false</activevideoangle>
                    <activeaudioangle>false</activeaudioangle>
                    <clip id="clip-1"/>
                  </angle>
                  <angle>
                    <activevideoangle>false</activevideoangle>
                    <activeaudioangle>false</activeaudioangle>
                    <clip id="clip-2"/>
                  </angle>
                  <angle>
                    <activevideoangle>true</activevideoangle>
                    <activeaudioangle>true</activeaudioangle>
                    <clip id="clip-3"/>
                  </angle>
                  <angle>
                    <activevideoangle>false</activevideoangle>
                    <activeaudioangle>false</activeaudioangle>
                    <clip id="clip-4"/>
                  </angle>
                  <angle>
                    <activevideoangle>false</activevideoangle>
                    <activeaudioangle>false</activeaudioangle>
                    <clip id="clip-5"/>
                  </angle>
                  <angle>
                    <activevideoangle>false</activevideoangle>
                    <activeaudioangle>false</activeaudioangle>
                    <clip id="clip-6"/>
                  </angle>
                  <angle>
                    <activevideoangle>false</activevideoangle>
                    <activeaudioangle>false</activeaudioangle>
                    <clip id="clip-7"/>
                  </angle>
                  <angle>
                    <activevideoangle>false</activevideoangle>
                    <activeaudioangle>false</activeaudioangle>
                    <clip id="clip-8"/>
                  </angle>
                  <angle>
                    <activevideoangle>false</activevideoangle>
                    <activeaudioangle>false</activeaudioangle>
                    <clip id="clip-9"/>
                  </angle>
                  <masterclipid>clip-master</masterclipid>
                </multiclip>
              </clipitem>
              <clipitem id="cs-376">
                <duration>127</duration>
                <rate>
                  <ntsc>false</ntsc>
                  <timebase>25</timebase>
                </rate>
                <in>55639</in>
                <out>55765</out>
                <start>55639</start>
                <end>55765</end>
                <file id="src-6"/>
                <sourcetrack>
                  <mediatype>video</mediatype>
                  <trackindex>1</trackindex>
                </sourcetrack>
                <multiclip id="mcs-376">
                  <name>MCS-376</name>
                  <masterclipid>clip-master</masterclipid>
                  <collapsed>false</collapsed>
                  <angle>
                    <activevideoangle>false</activevideoangle>
                    <activeaudioangle>false</activeaudioangle>
                    <clip id="clip-1"/>
                  </angle>
                  <angle>
                    <activevideoangle>false</activevideoangle>
                    <activeaudioangle>false</activeaudioangle>
                    <clip id="clip-2"/>
                  </angle>
                  <angle>
                    <activevideoangle>false</activevideoangle>
                    <activeaudioangle>false</activeaudioangle>
                    <clip id="clip-3"/>
                  </angle>
                  <angle>
                    <activevideoangle>false</activevideoangle>
                    <activeaudioangle>false</activeaudioangle>
                    <clip id="clip-4"/>
                  </angle>
                  <angle>
                    <activevideoangle>false</activevideoangle>
                    <activeaudioangle>false</activeaudioangle>
                    <clip id="clip-5"/>
                  </angle>
                  <angle>
                    <activevideoangle>true</activevideoangle>
                    <activeaudioangle>true</activeaudioangle>
                    <clip id="clip-6"/>
                  </angle>
                  <angle>
                    <activevideoangle>false</activevideoangle>
                    <activeaudioangle>false</activeaudioangle>
                    <clip id="clip-7"/>
                  </angle>
                  <angle>
                    <activevideoangle>false</activevideoangle>
                    <activeaudioangle>false</activeaudioangle>
                    <clip id="clip-8"/>
                  </angle>
                  <angle>
                    <activevideoangle>false</activevideoangle>
                    <activeaudioangle>false</activeaudioangle>
                    <clip id="clip-9"/>
                  </angle>
                  <masterclipid>clip-master</masterclipid>
                </multiclip>
              </clipitem>
              <clipitem id="cs-377">
                <duration>94</duration>
                <rate>
                  <ntsc>false</ntsc>
                  <timebase>25</timebase>
                </rate>
                <in>55765</in>
                <out>55858</out>
                <start>55765</start>
                <end>55858</end>
                <file id="src-4"/>
                <sourcetrack>
                  <mediatype>video</mediatype>
                  <trackindex>1</trackindex>
                </sourcetrack>
                <multiclip id="mcs-377">
                  <name>MCS-377</name>
                  <masterclipid>clip-master</masterclipid>
                  <collapsed>false</collapsed>
                  <angle>
                    <activevideoangle>false</activevideoangle>
                    <activeaudioangle>false</activeaudioangle>
                    <clip id="clip-1"/>
                  </angle>
                  <angle>
                    <activevideoangle>false</activevideoangle>
                    <activeaudioangle>false</activeaudioangle>
                    <clip id="clip-2"/>
                  </angle>
                  <angle>
                    <activevideoangle>false</activevideoangle>
                    <activeaudioangle>false</activeaudioangle>
                    <clip id="clip-3"/>
                  </angle>
                  <angle>
                    <activevideoangle>true</activevideoangle>
                    <activeaudioangle>true</activeaudioangle>
                    <clip id="clip-4"/>
                  </angle>
                  <angle>
                    <activevideoangle>false</activevideoangle>
                    <activeaudioangle>false</activeaudioangle>
                    <clip id="clip-5"/>
                  </angle>
                  <angle>
                    <activevideoangle>false</activevideoangle>
                    <activeaudioangle>false</activeaudioangle>
                    <clip id="clip-6"/>
                  </angle>
                  <angle>
                    <activevideoangle>false</activevideoangle>
                    <activeaudioangle>false</activeaudioangle>
                    <clip id="clip-7"/>
                  </angle>
                  <angle>
                    <activevideoangle>false</activevideoangle>
                    <activeaudioangle>false</activeaudioangle>
                    <clip id="clip-8"/>
                  </angle>
                  <angle>
                    <activevideoangle>false</activevideoangle>
                    <activeaudioangle>false</activeaudioangle>
                    <clip id="clip-9"/>
                  </angle>
                  <masterclipid>clip-master</masterclipid>
                </multiclip>
              </clipitem>
              <clipitem id="cs-378">
                <duration>650</duration>
                <rate>
                  <ntsc>false</ntsc>
                  <timebase>25</timebase>
                </rate>
                <in>55858</in>
                <out>56507</out>
                <start>55858</start>
                <end>56507</end>
                <file id="src-3"/>
                <sourcetrack>
                  <mediatype>video</mediatype>
                  <trackindex>1</trackindex>
                </sourcetrack>
                <multiclip id="mcs-378">
                  <name>MCS-378</name>
                  <masterclipid>clip-master</masterclipid>
                  <collapsed>false</collapsed>
                  <angle>
                    <activevideoangle>false</activevideoangle>
                    <activeaudioangle>false</activeaudioangle>
                    <clip id="clip-1"/>
                  </angle>
                  <angle>
                    <activevideoangle>false</activevideoangle>
                    <activeaudioangle>false</activeaudioangle>
                    <clip id="clip-2"/>
                  </angle>
                  <angle>
                    <activevideoangle>true</activevideoangle>
                    <activeaudioangle>true</activeaudioangle>
                    <clip id="clip-3"/>
                  </angle>
                  <angle>
                    <activevideoangle>false</activevideoangle>
                    <activeaudioangle>false</activeaudioangle>
                    <clip id="clip-4"/>
                  </angle>
                  <angle>
                    <activevideoangle>false</activevideoangle>
                    <activeaudioangle>false</activeaudioangle>
                    <clip id="clip-5"/>
                  </angle>
                  <angle>
                    <activevideoangle>false</activevideoangle>
                    <activeaudioangle>false</activeaudioangle>
                    <clip id="clip-6"/>
                  </angle>
                  <angle>
                    <activevideoangle>false</activevideoangle>
                    <activeaudioangle>false</activeaudioangle>
                    <clip id="clip-7"/>
                  </angle>
                  <angle>
                    <activevideoangle>false</activevideoangle>
                    <activeaudioangle>false</activeaudioangle>
                    <clip id="clip-8"/>
                  </angle>
                  <angle>
                    <activevideoangle>false</activevideoangle>
                    <activeaudioangle>false</activeaudioangle>
                    <clip id="clip-9"/>
                  </angle>
                  <masterclipid>clip-master</masterclipid>
                </multiclip>
              </clipitem>
              <clipitem id="cs-379">
                <duration>243</duration>
                <rate>
                  <ntsc>false</ntsc>
                  <timebase>25</timebase>
                </rate>
                <in>56507</in>
                <out>56749</out>
                <start>56507</start>
                <end>56749</end>
                <file id="src-2"/>
                <sourcetrack>
                  <mediatype>video</mediatype>
                  <trackindex>1</trackindex>
                </sourcetrack>
                <multiclip id="mcs-379">
                  <name>MCS-379</name>
                  <masterclipid>clip-master</masterclipid>
                  <collapsed>false</collapsed>
                  <angle>
                    <activevideoangle>false</activevideoangle>
                    <activeaudioangle>false</activeaudioangle>
                    <clip id="clip-1"/>
                  </angle>
                  <angle>
                    <activevideoangle>true</activevideoangle>
                    <activeaudioangle>true</activeaudioangle>
                    <clip id="clip-2"/>
                  </angle>
                  <angle>
                    <activevideoangle>false</activevideoangle>
                    <activeaudioangle>false</activeaudioangle>
                    <clip id="clip-3"/>
                  </angle>
                  <angle>
                    <activevideoangle>false</activevideoangle>
                    <activeaudioangle>false</activeaudioangle>
                    <clip id="clip-4"/>
                  </angle>
                  <angle>
                    <activevideoangle>false</activevideoangle>
                    <activeaudioangle>false</activeaudioangle>
                    <clip id="clip-5"/>
                  </angle>
                  <angle>
                    <activevideoangle>false</activevideoangle>
                    <activeaudioangle>false</activeaudioangle>
                    <clip id="clip-6"/>
                  </angle>
                  <angle>
                    <activevideoangle>false</activevideoangle>
                    <activeaudioangle>false</activeaudioangle>
                    <clip id="clip-7"/>
                  </angle>
                  <angle>
                    <activevideoangle>false</activevideoangle>
                    <activeaudioangle>false</activeaudioangle>
                    <clip id="clip-8"/>
                  </angle>
                  <angle>
                    <activevideoangle>false</activevideoangle>
                    <activeaudioangle>false</activeaudioangle>
                    <clip id="clip-9"/>
                  </angle>
                  <masterclipid>clip-master</masterclipid>
                </multiclip>
              </clipitem>
              <clipitem id="cs-380">
                <duration>106</duration>
                <rate>
                  <ntsc>false</ntsc>
                  <timebase>25</timebase>
                </rate>
                <in>56749</in>
                <out>56854</out>
                <start>56749</start>
                <end>56854</end>
                <file id="src-5"/>
                <sourcetrack>
                  <mediatype>video</mediatype>
                  <trackindex>1</trackindex>
                </sourcetrack>
                <multiclip id="mcs-380">
                  <name>MCS-380</name>
                  <masterclipid>clip-master</masterclipid>
                  <collapsed>false</collapsed>
                  <angle>
                    <activevideoangle>false</activevideoangle>
                    <activeaudioangle>false</activeaudioangle>
                    <clip id="clip-1"/>
                  </angle>
                  <angle>
                    <activevideoangle>false</activevideoangle>
                    <activeaudioangle>false</activeaudioangle>
                    <clip id="clip-2"/>
                  </angle>
                  <angle>
                    <activevideoangle>false</activevideoangle>
                    <activeaudioangle>false</activeaudioangle>
                    <clip id="clip-3"/>
                  </angle>
                  <angle>
                    <activevideoangle>false</activevideoangle>
                    <activeaudioangle>false</activeaudioangle>
                    <clip id="clip-4"/>
                  </angle>
                  <angle>
                    <activevideoangle>true</activevideoangle>
                    <activeaudioangle>true</activeaudioangle>
                    <clip id="clip-5"/>
                  </angle>
                  <angle>
                    <activevideoangle>false</activevideoangle>
                    <activeaudioangle>false</activeaudioangle>
                    <clip id="clip-6"/>
                  </angle>
                  <angle>
                    <activevideoangle>false</activevideoangle>
                    <activeaudioangle>false</activeaudioangle>
                    <clip id="clip-7"/>
                  </angle>
                  <angle>
                    <activevideoangle>false</activevideoangle>
                    <activeaudioangle>false</activeaudioangle>
                    <clip id="clip-8"/>
                  </angle>
                  <angle>
                    <activevideoangle>false</activevideoangle>
                    <activeaudioangle>false</activeaudioangle>
                    <clip id="clip-9"/>
                  </angle>
                  <masterclipid>clip-master</masterclipid>
                </multiclip>
              </clipitem>
              <clipitem id="cs-381">
                <duration>200</duration>
                <rate>
                  <ntsc>false</ntsc>
                  <timebase>25</timebase>
                </rate>
                <in>56854</in>
                <out>57053</out>
                <start>56854</start>
                <end>57053</end>
                <file id="src-2"/>
                <sourcetrack>
                  <mediatype>video</mediatype>
                  <trackindex>1</trackindex>
                </sourcetrack>
                <multiclip id="mcs-381">
                  <name>MCS-381</name>
                  <masterclipid>clip-master</masterclipid>
                  <collapsed>false</collapsed>
                  <angle>
                    <activevideoangle>false</activevideoangle>
                    <activeaudioangle>false</activeaudioangle>
                    <clip id="clip-1"/>
                  </angle>
                  <angle>
                    <activevideoangle>true</activevideoangle>
                    <activeaudioangle>true</activeaudioangle>
                    <clip id="clip-2"/>
                  </angle>
                  <angle>
                    <activevideoangle>false</activevideoangle>
                    <activeaudioangle>false</activeaudioangle>
                    <clip id="clip-3"/>
                  </angle>
                  <angle>
                    <activevideoangle>false</activevideoangle>
                    <activeaudioangle>false</activeaudioangle>
                    <clip id="clip-4"/>
                  </angle>
                  <angle>
                    <activevideoangle>false</activevideoangle>
                    <activeaudioangle>false</activeaudioangle>
                    <clip id="clip-5"/>
                  </angle>
                  <angle>
                    <activevideoangle>false</activevideoangle>
                    <activeaudioangle>false</activeaudioangle>
                    <clip id="clip-6"/>
                  </angle>
                  <angle>
                    <activevideoangle>false</activevideoangle>
                    <activeaudioangle>false</activeaudioangle>
                    <clip id="clip-7"/>
                  </angle>
                  <angle>
                    <activevideoangle>false</activevideoangle>
                    <activeaudioangle>false</activeaudioangle>
                    <clip id="clip-8"/>
                  </angle>
                  <angle>
                    <activevideoangle>false</activevideoangle>
                    <activeaudioangle>false</activeaudioangle>
                    <clip id="clip-9"/>
                  </angle>
                  <masterclipid>clip-master</masterclipid>
                </multiclip>
              </clipitem>
              <clipitem id="cs-382">
                <duration>103</duration>
                <rate>
                  <ntsc>false</ntsc>
                  <timebase>25</timebase>
                </rate>
                <in>57053</in>
                <out>57155</out>
                <start>57053</start>
                <end>57155</end>
                <file id="src-4"/>
                <sourcetrack>
                  <mediatype>video</mediatype>
                  <trackindex>1</trackindex>
                </sourcetrack>
                <multiclip id="mcs-382">
                  <name>MCS-382</name>
                  <masterclipid>clip-master</masterclipid>
                  <collapsed>false</collapsed>
                  <angle>
                    <activevideoangle>false</activevideoangle>
                    <activeaudioangle>false</activeaudioangle>
                    <clip id="clip-1"/>
                  </angle>
                  <angle>
                    <activevideoangle>false</activevideoangle>
                    <activeaudioangle>false</activeaudioangle>
                    <clip id="clip-2"/>
                  </angle>
                  <angle>
                    <activevideoangle>false</activevideoangle>
                    <activeaudioangle>false</activeaudioangle>
                    <clip id="clip-3"/>
                  </angle>
                  <angle>
                    <activevideoangle>true</activevideoangle>
                    <activeaudioangle>true</activeaudioangle>
                    <clip id="clip-4"/>
                  </angle>
                  <angle>
                    <activevideoangle>false</activevideoangle>
                    <activeaudioangle>false</activeaudioangle>
                    <clip id="clip-5"/>
                  </angle>
                  <angle>
                    <activevideoangle>false</activevideoangle>
                    <activeaudioangle>false</activeaudioangle>
                    <clip id="clip-6"/>
                  </angle>
                  <angle>
                    <activevideoangle>false</activevideoangle>
                    <activeaudioangle>false</activeaudioangle>
                    <clip id="clip-7"/>
                  </angle>
                  <angle>
                    <activevideoangle>false</activevideoangle>
                    <activeaudioangle>false</activeaudioangle>
                    <clip id="clip-8"/>
                  </angle>
                  <angle>
                    <activevideoangle>false</activevideoangle>
                    <activeaudioangle>false</activeaudioangle>
                    <clip id="clip-9"/>
                  </angle>
                  <masterclipid>clip-master</masterclipid>
                </multiclip>
              </clipitem>
              <clipitem id="cs-383">
                <duration>372</duration>
                <rate>
                  <ntsc>false</ntsc>
                  <timebase>25</timebase>
                </rate>
                <in>57155</in>
                <out>57526</out>
                <start>57155</start>
                <end>57526</end>
                <file id="src-1"/>
                <sourcetrack>
                  <mediatype>video</mediatype>
                  <trackindex>1</trackindex>
                </sourcetrack>
                <multiclip id="mcs-383">
                  <name>MCS-383</name>
                  <masterclipid>clip-master</masterclipid>
                  <collapsed>false</collapsed>
                  <angle>
                    <activevideoangle>true</activevideoangle>
                    <activeaudioangle>true</activeaudioangle>
                    <clip id="clip-1"/>
                  </angle>
                  <angle>
                    <activevideoangle>false</activevideoangle>
                    <activeaudioangle>false</activeaudioangle>
                    <clip id="clip-2"/>
                  </angle>
                  <angle>
                    <activevideoangle>false</activevideoangle>
                    <activeaudioangle>false</activeaudioangle>
                    <clip id="clip-3"/>
                  </angle>
                  <angle>
                    <activevideoangle>false</activevideoangle>
                    <activeaudioangle>false</activeaudioangle>
                    <clip id="clip-4"/>
                  </angle>
                  <angle>
                    <activevideoangle>false</activevideoangle>
                    <activeaudioangle>false</activeaudioangle>
                    <clip id="clip-5"/>
                  </angle>
                  <angle>
                    <activevideoangle>false</activevideoangle>
                    <activeaudioangle>false</activeaudioangle>
                    <clip id="clip-6"/>
                  </angle>
                  <angle>
                    <activevideoangle>false</activevideoangle>
                    <activeaudioangle>false</activeaudioangle>
                    <clip id="clip-7"/>
                  </angle>
                  <angle>
                    <activevideoangle>false</activevideoangle>
                    <activeaudioangle>false</activeaudioangle>
                    <clip id="clip-8"/>
                  </angle>
                  <angle>
                    <activevideoangle>false</activevideoangle>
                    <activeaudioangle>false</activeaudioangle>
                    <clip id="clip-9"/>
                  </angle>
                  <masterclipid>clip-master</masterclipid>
                </multiclip>
              </clipitem>
              <clipitem id="cs-384">
                <duration>92</duration>
                <rate>
                  <ntsc>false</ntsc>
                  <timebase>25</timebase>
                </rate>
                <in>57526</in>
                <out>57617</out>
                <start>57526</start>
                <end>57617</end>
                <file id="src-7"/>
                <sourcetrack>
                  <mediatype>video</mediatype>
                  <trackindex>1</trackindex>
                </sourcetrack>
                <multiclip id="mcs-384">
                  <name>MCS-384</name>
                  <masterclipid>clip-master</masterclipid>
                  <collapsed>false</collapsed>
                  <angle>
                    <activevideoangle>false</activevideoangle>
                    <activeaudioangle>false</activeaudioangle>
                    <clip id="clip-1"/>
                  </angle>
                  <angle>
                    <activevideoangle>false</activevideoangle>
                    <activeaudioangle>false</activeaudioangle>
                    <clip id="clip-2"/>
                  </angle>
                  <angle>
                    <activevideoangle>false</activevideoangle>
                    <activeaudioangle>false</activeaudioangle>
                    <clip id="clip-3"/>
                  </angle>
                  <angle>
                    <activevideoangle>false</activevideoangle>
                    <activeaudioangle>false</activeaudioangle>
                    <clip id="clip-4"/>
                  </angle>
                  <angle>
                    <activevideoangle>false</activevideoangle>
                    <activeaudioangle>false</activeaudioangle>
                    <clip id="clip-5"/>
                  </angle>
                  <angle>
                    <activevideoangle>false</activevideoangle>
                    <activeaudioangle>false</activeaudioangle>
                    <clip id="clip-6"/>
                  </angle>
                  <angle>
                    <activevideoangle>true</activevideoangle>
                    <activeaudioangle>true</activeaudioangle>
                    <clip id="clip-7"/>
                  </angle>
                  <angle>
                    <activevideoangle>false</activevideoangle>
                    <activeaudioangle>false</activeaudioangle>
                    <clip id="clip-8"/>
                  </angle>
                  <angle>
                    <activevideoangle>false</activevideoangle>
                    <activeaudioangle>false</activeaudioangle>
                    <clip id="clip-9"/>
                  </angle>
                  <masterclipid>clip-master</masterclipid>
                </multiclip>
              </clipitem>
              <clipitem id="cs-385">
                <duration>115</duration>
                <rate>
                  <ntsc>false</ntsc>
                  <timebase>25</timebase>
                </rate>
                <in>57617</in>
                <out>57731</out>
                <start>57617</start>
                <end>57731</end>
                <file id="src-3"/>
                <sourcetrack>
                  <mediatype>video</mediatype>
                  <trackindex>1</trackindex>
                </sourcetrack>
                <multiclip id="mcs-385">
                  <name>MCS-385</name>
                  <masterclipid>clip-master</masterclipid>
                  <collapsed>false</collapsed>
                  <angle>
                    <activevideoangle>false</activevideoangle>
                    <activeaudioangle>false</activeaudioangle>
                    <clip id="clip-1"/>
                  </angle>
                  <angle>
                    <activevideoangle>false</activevideoangle>
                    <activeaudioangle>false</activeaudioangle>
                    <clip id="clip-2"/>
                  </angle>
                  <angle>
                    <activevideoangle>true</activevideoangle>
                    <activeaudioangle>true</activeaudioangle>
                    <clip id="clip-3"/>
                  </angle>
                  <angle>
                    <activevideoangle>false</activevideoangle>
                    <activeaudioangle>false</activeaudioangle>
                    <clip id="clip-4"/>
                  </angle>
                  <angle>
                    <activevideoangle>false</activevideoangle>
                    <activeaudioangle>false</activeaudioangle>
                    <clip id="clip-5"/>
                  </angle>
                  <angle>
                    <activevideoangle>false</activevideoangle>
                    <activeaudioangle>false</activeaudioangle>
                    <clip id="clip-6"/>
                  </angle>
                  <angle>
                    <activevideoangle>false</activevideoangle>
                    <activeaudioangle>false</activeaudioangle>
                    <clip id="clip-7"/>
                  </angle>
                  <angle>
                    <activevideoangle>false</activevideoangle>
                    <activeaudioangle>false</activeaudioangle>
                    <clip id="clip-8"/>
                  </angle>
                  <angle>
                    <activevideoangle>false</activevideoangle>
                    <activeaudioangle>false</activeaudioangle>
                    <clip id="clip-9"/>
                  </angle>
                  <masterclipid>clip-master</masterclipid>
                </multiclip>
              </clipitem>
              <clipitem id="cs-386">
                <duration>3144</duration>
                <rate>
                  <ntsc>false</ntsc>
                  <timebase>25</timebase>
                </rate>
                <in>57731</in>
                <out>60874</out>
                <start>57731</start>
                <end>60874</end>
                <file id="src-2"/>
                <sourcetrack>
                  <mediatype>video</mediatype>
                  <trackindex>1</trackindex>
                </sourcetrack>
                <multiclip id="mcs-386">
                  <name>MCS-386</name>
                  <masterclipid>clip-master</masterclipid>
                  <collapsed>false</collapsed>
                  <angle>
                    <activevideoangle>false</activevideoangle>
                    <activeaudioangle>false</activeaudioangle>
                    <clip id="clip-1"/>
                  </angle>
                  <angle>
                    <activevideoangle>true</activevideoangle>
                    <activeaudioangle>true</activeaudioangle>
                    <clip id="clip-2"/>
                  </angle>
                  <angle>
                    <activevideoangle>false</activevideoangle>
                    <activeaudioangle>false</activeaudioangle>
                    <clip id="clip-3"/>
                  </angle>
                  <angle>
                    <activevideoangle>false</activevideoangle>
                    <activeaudioangle>false</activeaudioangle>
                    <clip id="clip-4"/>
                  </angle>
                  <angle>
                    <activevideoangle>false</activevideoangle>
                    <activeaudioangle>false</activeaudioangle>
                    <clip id="clip-5"/>
                  </angle>
                  <angle>
                    <activevideoangle>false</activevideoangle>
                    <activeaudioangle>false</activeaudioangle>
                    <clip id="clip-6"/>
                  </angle>
                  <angle>
                    <activevideoangle>false</activevideoangle>
                    <activeaudioangle>false</activeaudioangle>
                    <clip id="clip-7"/>
                  </angle>
                  <angle>
                    <activevideoangle>false</activevideoangle>
                    <activeaudioangle>false</activeaudioangle>
                    <clip id="clip-8"/>
                  </angle>
                  <angle>
                    <activevideoangle>false</activevideoangle>
                    <activeaudioangle>false</activeaudioangle>
                    <clip id="clip-9"/>
                  </angle>
                  <masterclipid>clip-master</masterclipid>
                </multiclip>
              </clipitem>
              <clipitem id="cs-387">
                <duration>299</duration>
                <rate>
                  <ntsc>false</ntsc>
                  <timebase>25</timebase>
                </rate>
                <in>60874</in>
                <out>61172</out>
                <start>60874</start>
                <end>61172</end>
                <file id="src-5"/>
                <sourcetrack>
                  <mediatype>video</mediatype>
                  <trackindex>1</trackindex>
                </sourcetrack>
                <multiclip id="mcs-387">
                  <name>MCS-387</name>
                  <masterclipid>clip-master</masterclipid>
                  <collapsed>false</collapsed>
                  <angle>
                    <activevideoangle>false</activevideoangle>
                    <activeaudioangle>false</activeaudioangle>
                    <clip id="clip-1"/>
                  </angle>
                  <angle>
                    <activevideoangle>false</activevideoangle>
                    <activeaudioangle>false</activeaudioangle>
                    <clip id="clip-2"/>
                  </angle>
                  <angle>
                    <activevideoangle>false</activevideoangle>
                    <activeaudioangle>false</activeaudioangle>
                    <clip id="clip-3"/>
                  </angle>
                  <angle>
                    <activevideoangle>false</activevideoangle>
                    <activeaudioangle>false</activeaudioangle>
                    <clip id="clip-4"/>
                  </angle>
                  <angle>
                    <activevideoangle>true</activevideoangle>
                    <activeaudioangle>true</activeaudioangle>
                    <clip id="clip-5"/>
                  </angle>
                  <angle>
                    <activevideoangle>false</activevideoangle>
                    <activeaudioangle>false</activeaudioangle>
                    <clip id="clip-6"/>
                  </angle>
                  <angle>
                    <activevideoangle>false</activevideoangle>
                    <activeaudioangle>false</activeaudioangle>
                    <clip id="clip-7"/>
                  </angle>
                  <angle>
                    <activevideoangle>false</activevideoangle>
                    <activeaudioangle>false</activeaudioangle>
                    <clip id="clip-8"/>
                  </angle>
                  <angle>
                    <activevideoangle>false</activevideoangle>
                    <activeaudioangle>false</activeaudioangle>
                    <clip id="clip-9"/>
                  </angle>
                  <masterclipid>clip-master</masterclipid>
                </multiclip>
              </clipitem>
              <clipitem id="cs-388">
                <duration>46</duration>
                <rate>
                  <ntsc>false</ntsc>
                  <timebase>25</timebase>
                </rate>
                <in>61172</in>
                <out>61217</out>
                <start>61172</start>
                <end>61217</end>
                <file id="src-6"/>
                <sourcetrack>
                  <mediatype>video</mediatype>
                  <trackindex>1</trackindex>
                </sourcetrack>
                <multiclip id="mcs-388">
                  <name>MCS-388</name>
                  <masterclipid>clip-master</masterclipid>
                  <collapsed>false</collapsed>
                  <angle>
                    <activevideoangle>false</activevideoangle>
                    <activeaudioangle>false</activeaudioangle>
                    <clip id="clip-1"/>
                  </angle>
                  <angle>
                    <activevideoangle>false</activevideoangle>
                    <activeaudioangle>false</activeaudioangle>
                    <clip id="clip-2"/>
                  </angle>
                  <angle>
                    <activevideoangle>false</activevideoangle>
                    <activeaudioangle>false</activeaudioangle>
                    <clip id="clip-3"/>
                  </angle>
                  <angle>
                    <activevideoangle>false</activevideoangle>
                    <activeaudioangle>false</activeaudioangle>
                    <clip id="clip-4"/>
                  </angle>
                  <angle>
                    <activevideoangle>false</activevideoangle>
                    <activeaudioangle>false</activeaudioangle>
                    <clip id="clip-5"/>
                  </angle>
                  <angle>
                    <activevideoangle>true</activevideoangle>
                    <activeaudioangle>true</activeaudioangle>
                    <clip id="clip-6"/>
                  </angle>
                  <angle>
                    <activevideoangle>false</activevideoangle>
                    <activeaudioangle>false</activeaudioangle>
                    <clip id="clip-7"/>
                  </angle>
                  <angle>
                    <activevideoangle>false</activevideoangle>
                    <activeaudioangle>false</activeaudioangle>
                    <clip id="clip-8"/>
                  </angle>
                  <angle>
                    <activevideoangle>false</activevideoangle>
                    <activeaudioangle>false</activeaudioangle>
                    <clip id="clip-9"/>
                  </angle>
                  <masterclipid>clip-master</masterclipid>
                </multiclip>
              </clipitem>
              <clipitem id="cs-389">
                <duration>267</duration>
                <rate>
                  <ntsc>false</ntsc>
                  <timebase>25</timebase>
                </rate>
                <in>61217</in>
                <out>61483</out>
                <start>61217</start>
                <end>61483</end>
                <file id="src-4"/>
                <sourcetrack>
                  <mediatype>video</mediatype>
                  <trackindex>1</trackindex>
                </sourcetrack>
                <multiclip id="mcs-389">
                  <name>MCS-389</name>
                  <masterclipid>clip-master</masterclipid>
                  <collapsed>false</collapsed>
                  <angle>
                    <activevideoangle>false</activevideoangle>
                    <activeaudioangle>false</activeaudioangle>
                    <clip id="clip-1"/>
                  </angle>
                  <angle>
                    <activevideoangle>false</activevideoangle>
                    <activeaudioangle>false</activeaudioangle>
                    <clip id="clip-2"/>
                  </angle>
                  <angle>
                    <activevideoangle>false</activevideoangle>
                    <activeaudioangle>false</activeaudioangle>
                    <clip id="clip-3"/>
                  </angle>
                  <angle>
                    <activevideoangle>true</activevideoangle>
                    <activeaudioangle>true</activeaudioangle>
                    <clip id="clip-4"/>
                  </angle>
                  <angle>
                    <activevideoangle>false</activevideoangle>
                    <activeaudioangle>false</activeaudioangle>
                    <clip id="clip-5"/>
                  </angle>
                  <angle>
                    <activevideoangle>false</activevideoangle>
                    <activeaudioangle>false</activeaudioangle>
                    <clip id="clip-6"/>
                  </angle>
                  <angle>
                    <activevideoangle>false</activevideoangle>
                    <activeaudioangle>false</activeaudioangle>
                    <clip id="clip-7"/>
                  </angle>
                  <angle>
                    <activevideoangle>false</activevideoangle>
                    <activeaudioangle>false</activeaudioangle>
                    <clip id="clip-8"/>
                  </angle>
                  <angle>
                    <activevideoangle>false</activevideoangle>
                    <activeaudioangle>false</activeaudioangle>
                    <clip id="clip-9"/>
                  </angle>
                  <masterclipid>clip-master</masterclipid>
                </multiclip>
              </clipitem>
              <clipitem id="cs-390">
                <duration>73</duration>
                <rate>
                  <ntsc>false</ntsc>
                  <timebase>25</timebase>
                </rate>
                <in>61483</in>
                <out>61555</out>
                <start>61483</start>
                <end>61555</end>
                <file id="src-2"/>
                <sourcetrack>
                  <mediatype>video</mediatype>
                  <trackindex>1</trackindex>
                </sourcetrack>
                <multiclip id="mcs-390">
                  <name>MCS-390</name>
                  <masterclipid>clip-master</masterclipid>
                  <collapsed>false</collapsed>
                  <angle>
                    <activevideoangle>false</activevideoangle>
                    <activeaudioangle>false</activeaudioangle>
                    <clip id="clip-1"/>
                  </angle>
                  <angle>
                    <activevideoangle>true</activevideoangle>
                    <activeaudioangle>true</activeaudioangle>
                    <clip id="clip-2"/>
                  </angle>
                  <angle>
                    <activevideoangle>false</activevideoangle>
                    <activeaudioangle>false</activeaudioangle>
                    <clip id="clip-3"/>
                  </angle>
                  <angle>
                    <activevideoangle>false</activevideoangle>
                    <activeaudioangle>false</activeaudioangle>
                    <clip id="clip-4"/>
                  </angle>
                  <angle>
                    <activevideoangle>false</activevideoangle>
                    <activeaudioangle>false</activeaudioangle>
                    <clip id="clip-5"/>
                  </angle>
                  <angle>
                    <activevideoangle>false</activevideoangle>
                    <activeaudioangle>false</activeaudioangle>
                    <clip id="clip-6"/>
                  </angle>
                  <angle>
                    <activevideoangle>false</activevideoangle>
                    <activeaudioangle>false</activeaudioangle>
                    <clip id="clip-7"/>
                  </angle>
                  <angle>
                    <activevideoangle>false</activevideoangle>
                    <activeaudioangle>false</activeaudioangle>
                    <clip id="clip-8"/>
                  </angle>
                  <angle>
                    <activevideoangle>false</activevideoangle>
                    <activeaudioangle>false</activeaudioangle>
                    <clip id="clip-9"/>
                  </angle>
                  <masterclipid>clip-master</masterclipid>
                </multiclip>
              </clipitem>
              <clipitem id="cs-391">
                <duration>168</duration>
                <rate>
                  <ntsc>false</ntsc>
                  <timebase>25</timebase>
                </rate>
                <in>61555</in>
                <out>61722</out>
                <start>61555</start>
                <end>61722</end>
                <file id="src-3"/>
                <sourcetrack>
                  <mediatype>video</mediatype>
                  <trackindex>1</trackindex>
                </sourcetrack>
                <multiclip id="mcs-391">
                  <name>MCS-391</name>
                  <masterclipid>clip-master</masterclipid>
                  <collapsed>false</collapsed>
                  <angle>
                    <activevideoangle>false</activevideoangle>
                    <activeaudioangle>false</activeaudioangle>
                    <clip id="clip-1"/>
                  </angle>
                  <angle>
                    <activevideoangle>false</activevideoangle>
                    <activeaudioangle>false</activeaudioangle>
                    <clip id="clip-2"/>
                  </angle>
                  <angle>
                    <activevideoangle>true</activevideoangle>
                    <activeaudioangle>true</activeaudioangle>
                    <clip id="clip-3"/>
                  </angle>
                  <angle>
                    <activevideoangle>false</activevideoangle>
                    <activeaudioangle>false</activeaudioangle>
                    <clip id="clip-4"/>
                  </angle>
                  <angle>
                    <activevideoangle>false</activevideoangle>
                    <activeaudioangle>false</activeaudioangle>
                    <clip id="clip-5"/>
                  </angle>
                  <angle>
                    <activevideoangle>false</activevideoangle>
                    <activeaudioangle>false</activeaudioangle>
                    <clip id="clip-6"/>
                  </angle>
                  <angle>
                    <activevideoangle>false</activevideoangle>
                    <activeaudioangle>false</activeaudioangle>
                    <clip id="clip-7"/>
                  </angle>
                  <angle>
                    <activevideoangle>false</activevideoangle>
                    <activeaudioangle>false</activeaudioangle>
                    <clip id="clip-8"/>
                  </angle>
                  <angle>
                    <activevideoangle>false</activevideoangle>
                    <activeaudioangle>false</activeaudioangle>
                    <clip id="clip-9"/>
                  </angle>
                  <masterclipid>clip-master</masterclipid>
                </multiclip>
              </clipitem>
              <clipitem id="cs-392">
                <duration>180</duration>
                <rate>
                  <ntsc>false</ntsc>
                  <timebase>25</timebase>
                </rate>
                <in>61722</in>
                <out>61901</out>
                <start>61722</start>
                <end>61901</end>
                <file id="src-1"/>
                <sourcetrack>
                  <mediatype>video</mediatype>
                  <trackindex>1</trackindex>
                </sourcetrack>
                <multiclip id="mcs-392">
                  <name>MCS-392</name>
                  <masterclipid>clip-master</masterclipid>
                  <collapsed>false</collapsed>
                  <angle>
                    <activevideoangle>true</activevideoangle>
                    <activeaudioangle>true</activeaudioangle>
                    <clip id="clip-1"/>
                  </angle>
                  <angle>
                    <activevideoangle>false</activevideoangle>
                    <activeaudioangle>false</activeaudioangle>
                    <clip id="clip-2"/>
                  </angle>
                  <angle>
                    <activevideoangle>false</activevideoangle>
                    <activeaudioangle>false</activeaudioangle>
                    <clip id="clip-3"/>
                  </angle>
                  <angle>
                    <activevideoangle>false</activevideoangle>
                    <activeaudioangle>false</activeaudioangle>
                    <clip id="clip-4"/>
                  </angle>
                  <angle>
                    <activevideoangle>false</activevideoangle>
                    <activeaudioangle>false</activeaudioangle>
                    <clip id="clip-5"/>
                  </angle>
                  <angle>
                    <activevideoangle>false</activevideoangle>
                    <activeaudioangle>false</activeaudioangle>
                    <clip id="clip-6"/>
                  </angle>
                  <angle>
                    <activevideoangle>false</activevideoangle>
                    <activeaudioangle>false</activeaudioangle>
                    <clip id="clip-7"/>
                  </angle>
                  <angle>
                    <activevideoangle>false</activevideoangle>
                    <activeaudioangle>false</activeaudioangle>
                    <clip id="clip-8"/>
                  </angle>
                  <angle>
                    <activevideoangle>false</activevideoangle>
                    <activeaudioangle>false</activeaudioangle>
                    <clip id="clip-9"/>
                  </angle>
                  <masterclipid>clip-master</masterclipid>
                </multiclip>
              </clipitem>
              <clipitem id="cs-393">
                <duration>63</duration>
                <rate>
                  <ntsc>false</ntsc>
                  <timebase>25</timebase>
                </rate>
                <in>61901</in>
                <out>61963</out>
                <start>61901</start>
                <end>61963</end>
                <file id="src-4"/>
                <sourcetrack>
                  <mediatype>video</mediatype>
                  <trackindex>1</trackindex>
                </sourcetrack>
                <multiclip id="mcs-393">
                  <name>MCS-393</name>
                  <masterclipid>clip-master</masterclipid>
                  <collapsed>false</collapsed>
                  <angle>
                    <activevideoangle>false</activevideoangle>
                    <activeaudioangle>false</activeaudioangle>
                    <clip id="clip-1"/>
                  </angle>
                  <angle>
                    <activevideoangle>false</activevideoangle>
                    <activeaudioangle>false</activeaudioangle>
                    <clip id="clip-2"/>
                  </angle>
                  <angle>
                    <activevideoangle>false</activevideoangle>
                    <activeaudioangle>false</activeaudioangle>
                    <clip id="clip-3"/>
                  </angle>
                  <angle>
                    <activevideoangle>true</activevideoangle>
                    <activeaudioangle>true</activeaudioangle>
                    <clip id="clip-4"/>
                  </angle>
                  <angle>
                    <activevideoangle>false</activevideoangle>
                    <activeaudioangle>false</activeaudioangle>
                    <clip id="clip-5"/>
                  </angle>
                  <angle>
                    <activevideoangle>false</activevideoangle>
                    <activeaudioangle>false</activeaudioangle>
                    <clip id="clip-6"/>
                  </angle>
                  <angle>
                    <activevideoangle>false</activevideoangle>
                    <activeaudioangle>false</activeaudioangle>
                    <clip id="clip-7"/>
                  </angle>
                  <angle>
                    <activevideoangle>false</activevideoangle>
                    <activeaudioangle>false</activeaudioangle>
                    <clip id="clip-8"/>
                  </angle>
                  <angle>
                    <activevideoangle>false</activevideoangle>
                    <activeaudioangle>false</activeaudioangle>
                    <clip id="clip-9"/>
                  </angle>
                  <masterclipid>clip-master</masterclipid>
                </multiclip>
              </clipitem>
              <clipitem id="cs-394">
                <duration>146</duration>
                <rate>
                  <ntsc>false</ntsc>
                  <timebase>25</timebase>
                </rate>
                <in>61963</in>
                <out>62108</out>
                <start>61963</start>
                <end>62108</end>
                <file id="src-2"/>
                <sourcetrack>
                  <mediatype>video</mediatype>
                  <trackindex>1</trackindex>
                </sourcetrack>
                <multiclip id="mcs-394">
                  <name>MCS-394</name>
                  <masterclipid>clip-master</masterclipid>
                  <collapsed>false</collapsed>
                  <angle>
                    <activevideoangle>false</activevideoangle>
                    <activeaudioangle>false</activeaudioangle>
                    <clip id="clip-1"/>
                  </angle>
                  <angle>
                    <activevideoangle>true</activevideoangle>
                    <activeaudioangle>true</activeaudioangle>
                    <clip id="clip-2"/>
                  </angle>
                  <angle>
                    <activevideoangle>false</activevideoangle>
                    <activeaudioangle>false</activeaudioangle>
                    <clip id="clip-3"/>
                  </angle>
                  <angle>
                    <activevideoangle>false</activevideoangle>
                    <activeaudioangle>false</activeaudioangle>
                    <clip id="clip-4"/>
                  </angle>
                  <angle>
                    <activevideoangle>false</activevideoangle>
                    <activeaudioangle>false</activeaudioangle>
                    <clip id="clip-5"/>
                  </angle>
                  <angle>
                    <activevideoangle>false</activevideoangle>
                    <activeaudioangle>false</activeaudioangle>
                    <clip id="clip-6"/>
                  </angle>
                  <angle>
                    <activevideoangle>false</activevideoangle>
                    <activeaudioangle>false</activeaudioangle>
                    <clip id="clip-7"/>
                  </angle>
                  <angle>
                    <activevideoangle>false</activevideoangle>
                    <activeaudioangle>false</activeaudioangle>
                    <clip id="clip-8"/>
                  </angle>
                  <angle>
                    <activevideoangle>false</activevideoangle>
                    <activeaudioangle>false</activeaudioangle>
                    <clip id="clip-9"/>
                  </angle>
                  <masterclipid>clip-master</masterclipid>
                </multiclip>
              </clipitem>
              <clipitem id="cs-395">
                <duration>186</duration>
                <rate>
                  <ntsc>false</ntsc>
                  <timebase>25</timebase>
                </rate>
                <in>62108</in>
                <out>62293</out>
                <start>62108</start>
                <end>62293</end>
                <file id="src-4"/>
                <sourcetrack>
                  <mediatype>video</mediatype>
                  <trackindex>1</trackindex>
                </sourcetrack>
                <multiclip id="mcs-395">
                  <name>MCS-395</name>
                  <masterclipid>clip-master</masterclipid>
                  <collapsed>false</collapsed>
                  <angle>
                    <activevideoangle>false</activevideoangle>
                    <activeaudioangle>false</activeaudioangle>
                    <clip id="clip-1"/>
                  </angle>
                  <angle>
                    <activevideoangle>false</activevideoangle>
                    <activeaudioangle>false</activeaudioangle>
                    <clip id="clip-2"/>
                  </angle>
                  <angle>
                    <activevideoangle>false</activevideoangle>
                    <activeaudioangle>false</activeaudioangle>
                    <clip id="clip-3"/>
                  </angle>
                  <angle>
                    <activevideoangle>true</activevideoangle>
                    <activeaudioangle>true</activeaudioangle>
                    <clip id="clip-4"/>
                  </angle>
                  <angle>
                    <activevideoangle>false</activevideoangle>
                    <activeaudioangle>false</activeaudioangle>
                    <clip id="clip-5"/>
                  </angle>
                  <angle>
                    <activevideoangle>false</activevideoangle>
                    <activeaudioangle>false</activeaudioangle>
                    <clip id="clip-6"/>
                  </angle>
                  <angle>
                    <activevideoangle>false</activevideoangle>
                    <activeaudioangle>false</activeaudioangle>
                    <clip id="clip-7"/>
                  </angle>
                  <angle>
                    <activevideoangle>false</activevideoangle>
                    <activeaudioangle>false</activeaudioangle>
                    <clip id="clip-8"/>
                  </angle>
                  <angle>
                    <activevideoangle>false</activevideoangle>
                    <activeaudioangle>false</activeaudioangle>
                    <clip id="clip-9"/>
                  </angle>
                  <masterclipid>clip-master</masterclipid>
                </multiclip>
              </clipitem>
              <clipitem id="cs-396">
                <duration>125</duration>
                <rate>
                  <ntsc>false</ntsc>
                  <timebase>25</timebase>
                </rate>
                <in>62293</in>
                <out>62417</out>
                <start>62293</start>
                <end>62417</end>
                <file id="src-6"/>
                <sourcetrack>
                  <mediatype>video</mediatype>
                  <trackindex>1</trackindex>
                </sourcetrack>
                <multiclip id="mcs-396">
                  <name>MCS-396</name>
                  <masterclipid>clip-master</masterclipid>
                  <collapsed>false</collapsed>
                  <angle>
                    <activevideoangle>false</activevideoangle>
                    <activeaudioangle>false</activeaudioangle>
                    <clip id="clip-1"/>
                  </angle>
                  <angle>
                    <activevideoangle>false</activevideoangle>
                    <activeaudioangle>false</activeaudioangle>
                    <clip id="clip-2"/>
                  </angle>
                  <angle>
                    <activevideoangle>false</activevideoangle>
                    <activeaudioangle>false</activeaudioangle>
                    <clip id="clip-3"/>
                  </angle>
                  <angle>
                    <activevideoangle>false</activevideoangle>
                    <activeaudioangle>false</activeaudioangle>
                    <clip id="clip-4"/>
                  </angle>
                  <angle>
                    <activevideoangle>false</activevideoangle>
                    <activeaudioangle>false</activeaudioangle>
                    <clip id="clip-5"/>
                  </angle>
                  <angle>
                    <activevideoangle>true</activevideoangle>
                    <activeaudioangle>true</activeaudioangle>
                    <clip id="clip-6"/>
                  </angle>
                  <angle>
                    <activevideoangle>false</activevideoangle>
                    <activeaudioangle>false</activeaudioangle>
                    <clip id="clip-7"/>
                  </angle>
                  <angle>
                    <activevideoangle>false</activevideoangle>
                    <activeaudioangle>false</activeaudioangle>
                    <clip id="clip-8"/>
                  </angle>
                  <angle>
                    <activevideoangle>false</activevideoangle>
                    <activeaudioangle>false</activeaudioangle>
                    <clip id="clip-9"/>
                  </angle>
                  <masterclipid>clip-master</masterclipid>
                </multiclip>
              </clipitem>
              <clipitem id="cs-397">
                <duration>301</duration>
                <rate>
                  <ntsc>false</ntsc>
                  <timebase>25</timebase>
                </rate>
                <in>62417</in>
                <out>62717</out>
                <start>62417</start>
                <end>62717</end>
                <file id="src-4"/>
                <sourcetrack>
                  <mediatype>video</mediatype>
                  <trackindex>1</trackindex>
                </sourcetrack>
                <multiclip id="mcs-397">
                  <name>MCS-397</name>
                  <masterclipid>clip-master</masterclipid>
                  <collapsed>false</collapsed>
                  <angle>
                    <activevideoangle>false</activevideoangle>
                    <activeaudioangle>false</activeaudioangle>
                    <clip id="clip-1"/>
                  </angle>
                  <angle>
                    <activevideoangle>false</activevideoangle>
                    <activeaudioangle>false</activeaudioangle>
                    <clip id="clip-2"/>
                  </angle>
                  <angle>
                    <activevideoangle>false</activevideoangle>
                    <activeaudioangle>false</activeaudioangle>
                    <clip id="clip-3"/>
                  </angle>
                  <angle>
                    <activevideoangle>true</activevideoangle>
                    <activeaudioangle>true</activeaudioangle>
                    <clip id="clip-4"/>
                  </angle>
                  <angle>
                    <activevideoangle>false</activevideoangle>
                    <activeaudioangle>false</activeaudioangle>
                    <clip id="clip-5"/>
                  </angle>
                  <angle>
                    <activevideoangle>false</activevideoangle>
                    <activeaudioangle>false</activeaudioangle>
                    <clip id="clip-6"/>
                  </angle>
                  <angle>
                    <activevideoangle>false</activevideoangle>
                    <activeaudioangle>false</activeaudioangle>
                    <clip id="clip-7"/>
                  </angle>
                  <angle>
                    <activevideoangle>false</activevideoangle>
                    <activeaudioangle>false</activeaudioangle>
                    <clip id="clip-8"/>
                  </angle>
                  <angle>
                    <activevideoangle>false</activevideoangle>
                    <activeaudioangle>false</activeaudioangle>
                    <clip id="clip-9"/>
                  </angle>
                  <masterclipid>clip-master</masterclipid>
                </multiclip>
              </clipitem>
              <clipitem id="cs-398">
                <duration>109</duration>
                <rate>
                  <ntsc>false</ntsc>
                  <timebase>25</timebase>
                </rate>
                <in>62717</in>
                <out>62825</out>
                <start>62717</start>
                <end>62825</end>
                <file id="src-2"/>
                <sourcetrack>
                  <mediatype>video</mediatype>
                  <trackindex>1</trackindex>
                </sourcetrack>
                <multiclip id="mcs-398">
                  <name>MCS-398</name>
                  <masterclipid>clip-master</masterclipid>
                  <collapsed>false</collapsed>
                  <angle>
                    <activevideoangle>false</activevideoangle>
                    <activeaudioangle>false</activeaudioangle>
                    <clip id="clip-1"/>
                  </angle>
                  <angle>
                    <activevideoangle>true</activevideoangle>
                    <activeaudioangle>true</activeaudioangle>
                    <clip id="clip-2"/>
                  </angle>
                  <angle>
                    <activevideoangle>false</activevideoangle>
                    <activeaudioangle>false</activeaudioangle>
                    <clip id="clip-3"/>
                  </angle>
                  <angle>
                    <activevideoangle>false</activevideoangle>
                    <activeaudioangle>false</activeaudioangle>
                    <clip id="clip-4"/>
                  </angle>
                  <angle>
                    <activevideoangle>false</activevideoangle>
                    <activeaudioangle>false</activeaudioangle>
                    <clip id="clip-5"/>
                  </angle>
                  <angle>
                    <activevideoangle>false</activevideoangle>
                    <activeaudioangle>false</activeaudioangle>
                    <clip id="clip-6"/>
                  </angle>
                  <angle>
                    <activevideoangle>false</activevideoangle>
                    <activeaudioangle>false</activeaudioangle>
                    <clip id="clip-7"/>
                  </angle>
                  <angle>
                    <activevideoangle>false</activevideoangle>
                    <activeaudioangle>false</activeaudioangle>
                    <clip id="clip-8"/>
                  </angle>
                  <angle>
                    <activevideoangle>false</activevideoangle>
                    <activeaudioangle>false</activeaudioangle>
                    <clip id="clip-9"/>
                  </angle>
                  <masterclipid>clip-master</masterclipid>
                </multiclip>
              </clipitem>
              <clipitem id="cs-399">
                <duration>210</duration>
                <rate>
                  <ntsc>false</ntsc>
                  <timebase>25</timebase>
                </rate>
                <in>62825</in>
                <out>63034</out>
                <start>62825</start>
                <end>63034</end>
                <file id="src-5"/>
                <sourcetrack>
                  <mediatype>video</mediatype>
                  <trackindex>1</trackindex>
                </sourcetrack>
                <multiclip id="mcs-399">
                  <name>MCS-399</name>
                  <masterclipid>clip-master</masterclipid>
                  <collapsed>false</collapsed>
                  <angle>
                    <activevideoangle>false</activevideoangle>
                    <activeaudioangle>false</activeaudioangle>
                    <clip id="clip-1"/>
                  </angle>
                  <angle>
                    <activevideoangle>false</activevideoangle>
                    <activeaudioangle>false</activeaudioangle>
                    <clip id="clip-2"/>
                  </angle>
                  <angle>
                    <activevideoangle>false</activevideoangle>
                    <activeaudioangle>false</activeaudioangle>
                    <clip id="clip-3"/>
                  </angle>
                  <angle>
                    <activevideoangle>false</activevideoangle>
                    <activeaudioangle>false</activeaudioangle>
                    <clip id="clip-4"/>
                  </angle>
                  <angle>
                    <activevideoangle>true</activevideoangle>
                    <activeaudioangle>true</activeaudioangle>
                    <clip id="clip-5"/>
                  </angle>
                  <angle>
                    <activevideoangle>false</activevideoangle>
                    <activeaudioangle>false</activeaudioangle>
                    <clip id="clip-6"/>
                  </angle>
                  <angle>
                    <activevideoangle>false</activevideoangle>
                    <activeaudioangle>false</activeaudioangle>
                    <clip id="clip-7"/>
                  </angle>
                  <angle>
                    <activevideoangle>false</activevideoangle>
                    <activeaudioangle>false</activeaudioangle>
                    <clip id="clip-8"/>
                  </angle>
                  <angle>
                    <activevideoangle>false</activevideoangle>
                    <activeaudioangle>false</activeaudioangle>
                    <clip id="clip-9"/>
                  </angle>
                  <masterclipid>clip-master</masterclipid>
                </multiclip>
              </clipitem>
              <clipitem id="cs-400">
                <duration>62</duration>
                <rate>
                  <ntsc>false</ntsc>
                  <timebase>25</timebase>
                </rate>
                <in>63034</in>
                <out>63095</out>
                <start>63034</start>
                <end>63095</end>
                <file id="src-4"/>
                <sourcetrack>
                  <mediatype>video</mediatype>
                  <trackindex>1</trackindex>
                </sourcetrack>
                <multiclip id="mcs-400">
                  <name>MCS-400</name>
                  <masterclipid>clip-master</masterclipid>
                  <collapsed>false</collapsed>
                  <angle>
                    <activevideoangle>false</activevideoangle>
                    <activeaudioangle>false</activeaudioangle>
                    <clip id="clip-1"/>
                  </angle>
                  <angle>
                    <activevideoangle>false</activevideoangle>
                    <activeaudioangle>false</activeaudioangle>
                    <clip id="clip-2"/>
                  </angle>
                  <angle>
                    <activevideoangle>false</activevideoangle>
                    <activeaudioangle>false</activeaudioangle>
                    <clip id="clip-3"/>
                  </angle>
                  <angle>
                    <activevideoangle>true</activevideoangle>
                    <activeaudioangle>true</activeaudioangle>
                    <clip id="clip-4"/>
                  </angle>
                  <angle>
                    <activevideoangle>false</activevideoangle>
                    <activeaudioangle>false</activeaudioangle>
                    <clip id="clip-5"/>
                  </angle>
                  <angle>
                    <activevideoangle>false</activevideoangle>
                    <activeaudioangle>false</activeaudioangle>
                    <clip id="clip-6"/>
                  </angle>
                  <angle>
                    <activevideoangle>false</activevideoangle>
                    <activeaudioangle>false</activeaudioangle>
                    <clip id="clip-7"/>
                  </angle>
                  <angle>
                    <activevideoangle>false</activevideoangle>
                    <activeaudioangle>false</activeaudioangle>
                    <clip id="clip-8"/>
                  </angle>
                  <angle>
                    <activevideoangle>false</activevideoangle>
                    <activeaudioangle>false</activeaudioangle>
                    <clip id="clip-9"/>
                  </angle>
                  <masterclipid>clip-master</masterclipid>
                </multiclip>
              </clipitem>
              <clipitem id="cs-401">
                <duration>61</duration>
                <rate>
                  <ntsc>false</ntsc>
                  <timebase>25</timebase>
                </rate>
                <in>63095</in>
                <out>63155</out>
                <start>63095</start>
                <end>63155</end>
                <file id="src-3"/>
                <sourcetrack>
                  <mediatype>video</mediatype>
                  <trackindex>1</trackindex>
                </sourcetrack>
                <multiclip id="mcs-401">
                  <name>MCS-401</name>
                  <masterclipid>clip-master</masterclipid>
                  <collapsed>false</collapsed>
                  <angle>
                    <activevideoangle>false</activevideoangle>
                    <activeaudioangle>false</activeaudioangle>
                    <clip id="clip-1"/>
                  </angle>
                  <angle>
                    <activevideoangle>false</activevideoangle>
                    <activeaudioangle>false</activeaudioangle>
                    <clip id="clip-2"/>
                  </angle>
                  <angle>
                    <activevideoangle>true</activevideoangle>
                    <activeaudioangle>true</activeaudioangle>
                    <clip id="clip-3"/>
                  </angle>
                  <angle>
                    <activevideoangle>false</activevideoangle>
                    <activeaudioangle>false</activeaudioangle>
                    <clip id="clip-4"/>
                  </angle>
                  <angle>
                    <activevideoangle>false</activevideoangle>
                    <activeaudioangle>false</activeaudioangle>
                    <clip id="clip-5"/>
                  </angle>
                  <angle>
                    <activevideoangle>false</activevideoangle>
                    <activeaudioangle>false</activeaudioangle>
                    <clip id="clip-6"/>
                  </angle>
                  <angle>
                    <activevideoangle>false</activevideoangle>
                    <activeaudioangle>false</activeaudioangle>
                    <clip id="clip-7"/>
                  </angle>
                  <angle>
                    <activevideoangle>false</activevideoangle>
                    <activeaudioangle>false</activeaudioangle>
                    <clip id="clip-8"/>
                  </angle>
                  <angle>
                    <activevideoangle>false</activevideoangle>
                    <activeaudioangle>false</activeaudioangle>
                    <clip id="clip-9"/>
                  </angle>
                  <masterclipid>clip-master</masterclipid>
                </multiclip>
              </clipitem>
              <clipitem id="cs-402">
                <duration>29</duration>
                <rate>
                  <ntsc>false</ntsc>
                  <timebase>25</timebase>
                </rate>
                <in>63155</in>
                <out>63183</out>
                <start>63155</start>
                <end>63183</end>
                <file id="src-6"/>
                <sourcetrack>
                  <mediatype>video</mediatype>
                  <trackindex>1</trackindex>
                </sourcetrack>
                <multiclip id="mcs-402">
                  <name>MCS-402</name>
                  <masterclipid>clip-master</masterclipid>
                  <collapsed>false</collapsed>
                  <angle>
                    <activevideoangle>false</activevideoangle>
                    <activeaudioangle>false</activeaudioangle>
                    <clip id="clip-1"/>
                  </angle>
                  <angle>
                    <activevideoangle>false</activevideoangle>
                    <activeaudioangle>false</activeaudioangle>
                    <clip id="clip-2"/>
                  </angle>
                  <angle>
                    <activevideoangle>false</activevideoangle>
                    <activeaudioangle>false</activeaudioangle>
                    <clip id="clip-3"/>
                  </angle>
                  <angle>
                    <activevideoangle>false</activevideoangle>
                    <activeaudioangle>false</activeaudioangle>
                    <clip id="clip-4"/>
                  </angle>
                  <angle>
                    <activevideoangle>false</activevideoangle>
                    <activeaudioangle>false</activeaudioangle>
                    <clip id="clip-5"/>
                  </angle>
                  <angle>
                    <activevideoangle>true</activevideoangle>
                    <activeaudioangle>true</activeaudioangle>
                    <clip id="clip-6"/>
                  </angle>
                  <angle>
                    <activevideoangle>false</activevideoangle>
                    <activeaudioangle>false</activeaudioangle>
                    <clip id="clip-7"/>
                  </angle>
                  <angle>
                    <activevideoangle>false</activevideoangle>
                    <activeaudioangle>false</activeaudioangle>
                    <clip id="clip-8"/>
                  </angle>
                  <angle>
                    <activevideoangle>false</activevideoangle>
                    <activeaudioangle>false</activeaudioangle>
                    <clip id="clip-9"/>
                  </angle>
                  <masterclipid>clip-master</masterclipid>
                </multiclip>
              </clipitem>
              <clipitem id="cs-403">
                <duration>341</duration>
                <rate>
                  <ntsc>false</ntsc>
                  <timebase>25</timebase>
                </rate>
                <in>63183</in>
                <out>63523</out>
                <start>63183</start>
                <end>63523</end>
                <file id="src-4"/>
                <sourcetrack>
                  <mediatype>video</mediatype>
                  <trackindex>1</trackindex>
                </sourcetrack>
                <multiclip id="mcs-403">
                  <name>MCS-403</name>
                  <masterclipid>clip-master</masterclipid>
                  <collapsed>false</collapsed>
                  <angle>
                    <activevideoangle>false</activevideoangle>
                    <activeaudioangle>false</activeaudioangle>
                    <clip id="clip-1"/>
                  </angle>
                  <angle>
                    <activevideoangle>false</activevideoangle>
                    <activeaudioangle>false</activeaudioangle>
                    <clip id="clip-2"/>
                  </angle>
                  <angle>
                    <activevideoangle>false</activevideoangle>
                    <activeaudioangle>false</activeaudioangle>
                    <clip id="clip-3"/>
                  </angle>
                  <angle>
                    <activevideoangle>true</activevideoangle>
                    <activeaudioangle>true</activeaudioangle>
                    <clip id="clip-4"/>
                  </angle>
                  <angle>
                    <activevideoangle>false</activevideoangle>
                    <activeaudioangle>false</activeaudioangle>
                    <clip id="clip-5"/>
                  </angle>
                  <angle>
                    <activevideoangle>false</activevideoangle>
                    <activeaudioangle>false</activeaudioangle>
                    <clip id="clip-6"/>
                  </angle>
                  <angle>
                    <activevideoangle>false</activevideoangle>
                    <activeaudioangle>false</activeaudioangle>
                    <clip id="clip-7"/>
                  </angle>
                  <angle>
                    <activevideoangle>false</activevideoangle>
                    <activeaudioangle>false</activeaudioangle>
                    <clip id="clip-8"/>
                  </angle>
                  <angle>
                    <activevideoangle>false</activevideoangle>
                    <activeaudioangle>false</activeaudioangle>
                    <clip id="clip-9"/>
                  </angle>
                  <masterclipid>clip-master</masterclipid>
                </multiclip>
              </clipitem>
              <clipitem id="cs-404">
                <duration>123</duration>
                <rate>
                  <ntsc>false</ntsc>
                  <timebase>25</timebase>
                </rate>
                <in>63523</in>
                <out>63645</out>
                <start>63523</start>
                <end>63645</end>
                <file id="src-3"/>
                <sourcetrack>
                  <mediatype>video</mediatype>
                  <trackindex>1</trackindex>
                </sourcetrack>
                <multiclip id="mcs-404">
                  <name>MCS-404</name>
                  <masterclipid>clip-master</masterclipid>
                  <collapsed>false</collapsed>
                  <angle>
                    <activevideoangle>false</activevideoangle>
                    <activeaudioangle>false</activeaudioangle>
                    <clip id="clip-1"/>
                  </angle>
                  <angle>
                    <activevideoangle>false</activevideoangle>
                    <activeaudioangle>false</activeaudioangle>
                    <clip id="clip-2"/>
                  </angle>
                  <angle>
                    <activevideoangle>true</activevideoangle>
                    <activeaudioangle>true</activeaudioangle>
                    <clip id="clip-3"/>
                  </angle>
                  <angle>
                    <activevideoangle>false</activevideoangle>
                    <activeaudioangle>false</activeaudioangle>
                    <clip id="clip-4"/>
                  </angle>
                  <angle>
                    <activevideoangle>false</activevideoangle>
                    <activeaudioangle>false</activeaudioangle>
                    <clip id="clip-5"/>
                  </angle>
                  <angle>
                    <activevideoangle>false</activevideoangle>
                    <activeaudioangle>false</activeaudioangle>
                    <clip id="clip-6"/>
                  </angle>
                  <angle>
                    <activevideoangle>false</activevideoangle>
                    <activeaudioangle>false</activeaudioangle>
                    <clip id="clip-7"/>
                  </angle>
                  <angle>
                    <activevideoangle>false</activevideoangle>
                    <activeaudioangle>false</activeaudioangle>
                    <clip id="clip-8"/>
                  </angle>
                  <angle>
                    <activevideoangle>false</activevideoangle>
                    <activeaudioangle>false</activeaudioangle>
                    <clip id="clip-9"/>
                  </angle>
                  <masterclipid>clip-master</masterclipid>
                </multiclip>
              </clipitem>
              <clipitem id="cs-405">
                <duration>68</duration>
                <rate>
                  <ntsc>false</ntsc>
                  <timebase>25</timebase>
                </rate>
                <in>63645</in>
                <out>63712</out>
                <start>63645</start>
                <end>63712</end>
                <file id="src-4"/>
                <sourcetrack>
                  <mediatype>video</mediatype>
                  <trackindex>1</trackindex>
                </sourcetrack>
                <multiclip id="mcs-405">
                  <name>MCS-405</name>
                  <masterclipid>clip-master</masterclipid>
                  <collapsed>false</collapsed>
                  <angle>
                    <activevideoangle>false</activevideoangle>
                    <activeaudioangle>false</activeaudioangle>
                    <clip id="clip-1"/>
                  </angle>
                  <angle>
                    <activevideoangle>false</activevideoangle>
                    <activeaudioangle>false</activeaudioangle>
                    <clip id="clip-2"/>
                  </angle>
                  <angle>
                    <activevideoangle>false</activevideoangle>
                    <activeaudioangle>false</activeaudioangle>
                    <clip id="clip-3"/>
                  </angle>
                  <angle>
                    <activevideoangle>true</activevideoangle>
                    <activeaudioangle>true</activeaudioangle>
                    <clip id="clip-4"/>
                  </angle>
                  <angle>
                    <activevideoangle>false</activevideoangle>
                    <activeaudioangle>false</activeaudioangle>
                    <clip id="clip-5"/>
                  </angle>
                  <angle>
                    <activevideoangle>false</activevideoangle>
                    <activeaudioangle>false</activeaudioangle>
                    <clip id="clip-6"/>
                  </angle>
                  <angle>
                    <activevideoangle>false</activevideoangle>
                    <activeaudioangle>false</activeaudioangle>
                    <clip id="clip-7"/>
                  </angle>
                  <angle>
                    <activevideoangle>false</activevideoangle>
                    <activeaudioangle>false</activeaudioangle>
                    <clip id="clip-8"/>
                  </angle>
                  <angle>
                    <activevideoangle>false</activevideoangle>
                    <activeaudioangle>false</activeaudioangle>
                    <clip id="clip-9"/>
                  </angle>
                  <masterclipid>clip-master</masterclipid>
                </multiclip>
              </clipitem>
              <clipitem id="cs-406">
                <duration>78</duration>
                <rate>
                  <ntsc>false</ntsc>
                  <timebase>25</timebase>
                </rate>
                <in>63712</in>
                <out>63789</out>
                <start>63712</start>
                <end>63789</end>
                <file id="src-6"/>
                <sourcetrack>
                  <mediatype>video</mediatype>
                  <trackindex>1</trackindex>
                </sourcetrack>
                <multiclip id="mcs-406">
                  <name>MCS-406</name>
                  <masterclipid>clip-master</masterclipid>
                  <collapsed>false</collapsed>
                  <angle>
                    <activevideoangle>false</activevideoangle>
                    <activeaudioangle>false</activeaudioangle>
                    <clip id="clip-1"/>
                  </angle>
                  <angle>
                    <activevideoangle>false</activevideoangle>
                    <activeaudioangle>false</activeaudioangle>
                    <clip id="clip-2"/>
                  </angle>
                  <angle>
                    <activevideoangle>false</activevideoangle>
                    <activeaudioangle>false</activeaudioangle>
                    <clip id="clip-3"/>
                  </angle>
                  <angle>
                    <activevideoangle>false</activevideoangle>
                    <activeaudioangle>false</activeaudioangle>
                    <clip id="clip-4"/>
                  </angle>
                  <angle>
                    <activevideoangle>false</activevideoangle>
                    <activeaudioangle>false</activeaudioangle>
                    <clip id="clip-5"/>
                  </angle>
                  <angle>
                    <activevideoangle>true</activevideoangle>
                    <activeaudioangle>true</activeaudioangle>
                    <clip id="clip-6"/>
                  </angle>
                  <angle>
                    <activevideoangle>false</activevideoangle>
                    <activeaudioangle>false</activeaudioangle>
                    <clip id="clip-7"/>
                  </angle>
                  <angle>
                    <activevideoangle>false</activevideoangle>
                    <activeaudioangle>false</activeaudioangle>
                    <clip id="clip-8"/>
                  </angle>
                  <angle>
                    <activevideoangle>false</activevideoangle>
                    <activeaudioangle>false</activeaudioangle>
                    <clip id="clip-9"/>
                  </angle>
                  <masterclipid>clip-master</masterclipid>
                </multiclip>
              </clipitem>
              <clipitem id="cs-407">
                <duration>216</duration>
                <rate>
                  <ntsc>false</ntsc>
                  <timebase>25</timebase>
                </rate>
                <in>63789</in>
                <out>64004</out>
                <start>63789</start>
                <end>64004</end>
                <file id="src-4"/>
                <sourcetrack>
                  <mediatype>video</mediatype>
                  <trackindex>1</trackindex>
                </sourcetrack>
                <multiclip id="mcs-407">
                  <name>MCS-407</name>
                  <masterclipid>clip-master</masterclipid>
                  <collapsed>false</collapsed>
                  <angle>
                    <activevideoangle>false</activevideoangle>
                    <activeaudioangle>false</activeaudioangle>
                    <clip id="clip-1"/>
                  </angle>
                  <angle>
                    <activevideoangle>false</activevideoangle>
                    <activeaudioangle>false</activeaudioangle>
                    <clip id="clip-2"/>
                  </angle>
                  <angle>
                    <activevideoangle>false</activevideoangle>
                    <activeaudioangle>false</activeaudioangle>
                    <clip id="clip-3"/>
                  </angle>
                  <angle>
                    <activevideoangle>true</activevideoangle>
                    <activeaudioangle>true</activeaudioangle>
                    <clip id="clip-4"/>
                  </angle>
                  <angle>
                    <activevideoangle>false</activevideoangle>
                    <activeaudioangle>false</activeaudioangle>
                    <clip id="clip-5"/>
                  </angle>
                  <angle>
                    <activevideoangle>false</activevideoangle>
                    <activeaudioangle>false</activeaudioangle>
                    <clip id="clip-6"/>
                  </angle>
                  <angle>
                    <activevideoangle>false</activevideoangle>
                    <activeaudioangle>false</activeaudioangle>
                    <clip id="clip-7"/>
                  </angle>
                  <angle>
                    <activevideoangle>false</activevideoangle>
                    <activeaudioangle>false</activeaudioangle>
                    <clip id="clip-8"/>
                  </angle>
                  <angle>
                    <activevideoangle>false</activevideoangle>
                    <activeaudioangle>false</activeaudioangle>
                    <clip id="clip-9"/>
                  </angle>
                  <masterclipid>clip-master</masterclipid>
                </multiclip>
              </clipitem>
              <clipitem id="cs-408">
                <duration>113</duration>
                <rate>
                  <ntsc>false</ntsc>
                  <timebase>25</timebase>
                </rate>
                <in>64004</in>
                <out>64116</out>
                <start>64004</start>
                <end>64116</end>
                <file id="src-2"/>
                <sourcetrack>
                  <mediatype>video</mediatype>
                  <trackindex>1</trackindex>
                </sourcetrack>
                <multiclip id="mcs-408">
                  <name>MCS-408</name>
                  <masterclipid>clip-master</masterclipid>
                  <collapsed>false</collapsed>
                  <angle>
                    <activevideoangle>false</activevideoangle>
                    <activeaudioangle>false</activeaudioangle>
                    <clip id="clip-1"/>
                  </angle>
                  <angle>
                    <activevideoangle>true</activevideoangle>
                    <activeaudioangle>true</activeaudioangle>
                    <clip id="clip-2"/>
                  </angle>
                  <angle>
                    <activevideoangle>false</activevideoangle>
                    <activeaudioangle>false</activeaudioangle>
                    <clip id="clip-3"/>
                  </angle>
                  <angle>
                    <activevideoangle>false</activevideoangle>
                    <activeaudioangle>false</activeaudioangle>
                    <clip id="clip-4"/>
                  </angle>
                  <angle>
                    <activevideoangle>false</activevideoangle>
                    <activeaudioangle>false</activeaudioangle>
                    <clip id="clip-5"/>
                  </angle>
                  <angle>
                    <activevideoangle>false</activevideoangle>
                    <activeaudioangle>false</activeaudioangle>
                    <clip id="clip-6"/>
                  </angle>
                  <angle>
                    <activevideoangle>false</activevideoangle>
                    <activeaudioangle>false</activeaudioangle>
                    <clip id="clip-7"/>
                  </angle>
                  <angle>
                    <activevideoangle>false</activevideoangle>
                    <activeaudioangle>false</activeaudioangle>
                    <clip id="clip-8"/>
                  </angle>
                  <angle>
                    <activevideoangle>false</activevideoangle>
                    <activeaudioangle>false</activeaudioangle>
                    <clip id="clip-9"/>
                  </angle>
                  <masterclipid>clip-master</masterclipid>
                </multiclip>
              </clipitem>
              <clipitem id="cs-409">
                <duration>116</duration>
                <rate>
                  <ntsc>false</ntsc>
                  <timebase>25</timebase>
                </rate>
                <in>64116</in>
                <out>64231</out>
                <start>64116</start>
                <end>64231</end>
                <file id="src-4"/>
                <sourcetrack>
                  <mediatype>video</mediatype>
                  <trackindex>1</trackindex>
                </sourcetrack>
                <multiclip id="mcs-409">
                  <name>MCS-409</name>
                  <masterclipid>clip-master</masterclipid>
                  <collapsed>false</collapsed>
                  <angle>
                    <activevideoangle>false</activevideoangle>
                    <activeaudioangle>false</activeaudioangle>
                    <clip id="clip-1"/>
                  </angle>
                  <angle>
                    <activevideoangle>false</activevideoangle>
                    <activeaudioangle>false</activeaudioangle>
                    <clip id="clip-2"/>
                  </angle>
                  <angle>
                    <activevideoangle>false</activevideoangle>
                    <activeaudioangle>false</activeaudioangle>
                    <clip id="clip-3"/>
                  </angle>
                  <angle>
                    <activevideoangle>true</activevideoangle>
                    <activeaudioangle>true</activeaudioangle>
                    <clip id="clip-4"/>
                  </angle>
                  <angle>
                    <activevideoangle>false</activevideoangle>
                    <activeaudioangle>false</activeaudioangle>
                    <clip id="clip-5"/>
                  </angle>
                  <angle>
                    <activevideoangle>false</activevideoangle>
                    <activeaudioangle>false</activeaudioangle>
                    <clip id="clip-6"/>
                  </angle>
                  <angle>
                    <activevideoangle>false</activevideoangle>
                    <activeaudioangle>false</activeaudioangle>
                    <clip id="clip-7"/>
                  </angle>
                  <angle>
                    <activevideoangle>false</activevideoangle>
                    <activeaudioangle>false</activeaudioangle>
                    <clip id="clip-8"/>
                  </angle>
                  <angle>
                    <activevideoangle>false</activevideoangle>
                    <activeaudioangle>false</activeaudioangle>
                    <clip id="clip-9"/>
                  </angle>
                  <masterclipid>clip-master</masterclipid>
                </multiclip>
              </clipitem>
              <clipitem id="cs-410">
                <duration>141</duration>
                <rate>
                  <ntsc>false</ntsc>
                  <timebase>25</timebase>
                </rate>
                <in>64231</in>
                <out>64371</out>
                <start>64231</start>
                <end>64371</end>
                <file id="src-5"/>
                <sourcetrack>
                  <mediatype>video</mediatype>
                  <trackindex>1</trackindex>
                </sourcetrack>
                <multiclip id="mcs-410">
                  <name>MCS-410</name>
                  <masterclipid>clip-master</masterclipid>
                  <collapsed>false</collapsed>
                  <angle>
                    <activevideoangle>false</activevideoangle>
                    <activeaudioangle>false</activeaudioangle>
                    <clip id="clip-1"/>
                  </angle>
                  <angle>
                    <activevideoangle>false</activevideoangle>
                    <activeaudioangle>false</activeaudioangle>
                    <clip id="clip-2"/>
                  </angle>
                  <angle>
                    <activevideoangle>false</activevideoangle>
                    <activeaudioangle>false</activeaudioangle>
                    <clip id="clip-3"/>
                  </angle>
                  <angle>
                    <activevideoangle>false</activevideoangle>
                    <activeaudioangle>false</activeaudioangle>
                    <clip id="clip-4"/>
                  </angle>
                  <angle>
                    <activevideoangle>true</activevideoangle>
                    <activeaudioangle>true</activeaudioangle>
                    <clip id="clip-5"/>
                  </angle>
                  <angle>
                    <activevideoangle>false</activevideoangle>
                    <activeaudioangle>false</activeaudioangle>
                    <clip id="clip-6"/>
                  </angle>
                  <angle>
                    <activevideoangle>false</activevideoangle>
                    <activeaudioangle>false</activeaudioangle>
                    <clip id="clip-7"/>
                  </angle>
                  <angle>
                    <activevideoangle>false</activevideoangle>
                    <activeaudioangle>false</activeaudioangle>
                    <clip id="clip-8"/>
                  </angle>
                  <angle>
                    <activevideoangle>false</activevideoangle>
                    <activeaudioangle>false</activeaudioangle>
                    <clip id="clip-9"/>
                  </angle>
                  <masterclipid>clip-master</masterclipid>
                </multiclip>
              </clipitem>
              <clipitem id="cs-411">
                <duration>230</duration>
                <rate>
                  <ntsc>false</ntsc>
                  <timebase>25</timebase>
                </rate>
                <in>64371</in>
                <out>64600</out>
                <start>64371</start>
                <end>64600</end>
                <file id="src-2"/>
                <sourcetrack>
                  <mediatype>video</mediatype>
                  <trackindex>1</trackindex>
                </sourcetrack>
                <multiclip id="mcs-411">
                  <name>MCS-411</name>
                  <masterclipid>clip-master</masterclipid>
                  <collapsed>false</collapsed>
                  <angle>
                    <activevideoangle>false</activevideoangle>
                    <activeaudioangle>false</activeaudioangle>
                    <clip id="clip-1"/>
                  </angle>
                  <angle>
                    <activevideoangle>true</activevideoangle>
                    <activeaudioangle>true</activeaudioangle>
                    <clip id="clip-2"/>
                  </angle>
                  <angle>
                    <activevideoangle>false</activevideoangle>
                    <activeaudioangle>false</activeaudioangle>
                    <clip id="clip-3"/>
                  </angle>
                  <angle>
                    <activevideoangle>false</activevideoangle>
                    <activeaudioangle>false</activeaudioangle>
                    <clip id="clip-4"/>
                  </angle>
                  <angle>
                    <activevideoangle>false</activevideoangle>
                    <activeaudioangle>false</activeaudioangle>
                    <clip id="clip-5"/>
                  </angle>
                  <angle>
                    <activevideoangle>false</activevideoangle>
                    <activeaudioangle>false</activeaudioangle>
                    <clip id="clip-6"/>
                  </angle>
                  <angle>
                    <activevideoangle>false</activevideoangle>
                    <activeaudioangle>false</activeaudioangle>
                    <clip id="clip-7"/>
                  </angle>
                  <angle>
                    <activevideoangle>false</activevideoangle>
                    <activeaudioangle>false</activeaudioangle>
                    <clip id="clip-8"/>
                  </angle>
                  <angle>
                    <activevideoangle>false</activevideoangle>
                    <activeaudioangle>false</activeaudioangle>
                    <clip id="clip-9"/>
                  </angle>
                  <masterclipid>clip-master</masterclipid>
                </multiclip>
              </clipitem>
              <clipitem id="cs-412">
                <duration>245</duration>
                <rate>
                  <ntsc>false</ntsc>
                  <timebase>25</timebase>
                </rate>
                <in>64600</in>
                <out>64844</out>
                <start>64600</start>
                <end>64844</end>
                <file id="src-4"/>
                <sourcetrack>
                  <mediatype>video</mediatype>
                  <trackindex>1</trackindex>
                </sourcetrack>
                <multiclip id="mcs-412">
                  <name>MCS-412</name>
                  <masterclipid>clip-master</masterclipid>
                  <collapsed>false</collapsed>
                  <angle>
                    <activevideoangle>false</activevideoangle>
                    <activeaudioangle>false</activeaudioangle>
                    <clip id="clip-1"/>
                  </angle>
                  <angle>
                    <activevideoangle>false</activevideoangle>
                    <activeaudioangle>false</activeaudioangle>
                    <clip id="clip-2"/>
                  </angle>
                  <angle>
                    <activevideoangle>false</activevideoangle>
                    <activeaudioangle>false</activeaudioangle>
                    <clip id="clip-3"/>
                  </angle>
                  <angle>
                    <activevideoangle>true</activevideoangle>
                    <activeaudioangle>true</activeaudioangle>
                    <clip id="clip-4"/>
                  </angle>
                  <angle>
                    <activevideoangle>false</activevideoangle>
                    <activeaudioangle>false</activeaudioangle>
                    <clip id="clip-5"/>
                  </angle>
                  <angle>
                    <activevideoangle>false</activevideoangle>
                    <activeaudioangle>false</activeaudioangle>
                    <clip id="clip-6"/>
                  </angle>
                  <angle>
                    <activevideoangle>false</activevideoangle>
                    <activeaudioangle>false</activeaudioangle>
                    <clip id="clip-7"/>
                  </angle>
                  <angle>
                    <activevideoangle>false</activevideoangle>
                    <activeaudioangle>false</activeaudioangle>
                    <clip id="clip-8"/>
                  </angle>
                  <angle>
                    <activevideoangle>false</activevideoangle>
                    <activeaudioangle>false</activeaudioangle>
                    <clip id="clip-9"/>
                  </angle>
                  <masterclipid>clip-master</masterclipid>
                </multiclip>
              </clipitem>
              <clipitem id="cs-413">
                <duration>521</duration>
                <rate>
                  <ntsc>false</ntsc>
                  <timebase>25</timebase>
                </rate>
                <in>64844</in>
                <out>65364</out>
                <start>64844</start>
                <end>65364</end>
                <file id="src-1"/>
                <sourcetrack>
                  <mediatype>video</mediatype>
                  <trackindex>1</trackindex>
                </sourcetrack>
                <multiclip id="mcs-413">
                  <name>MCS-413</name>
                  <masterclipid>clip-master</masterclipid>
                  <collapsed>false</collapsed>
                  <angle>
                    <activevideoangle>true</activevideoangle>
                    <activeaudioangle>true</activeaudioangle>
                    <clip id="clip-1"/>
                  </angle>
                  <angle>
                    <activevideoangle>false</activevideoangle>
                    <activeaudioangle>false</activeaudioangle>
                    <clip id="clip-2"/>
                  </angle>
                  <angle>
                    <activevideoangle>false</activevideoangle>
                    <activeaudioangle>false</activeaudioangle>
                    <clip id="clip-3"/>
                  </angle>
                  <angle>
                    <activevideoangle>false</activevideoangle>
                    <activeaudioangle>false</activeaudioangle>
                    <clip id="clip-4"/>
                  </angle>
                  <angle>
                    <activevideoangle>false</activevideoangle>
                    <activeaudioangle>false</activeaudioangle>
                    <clip id="clip-5"/>
                  </angle>
                  <angle>
                    <activevideoangle>false</activevideoangle>
                    <activeaudioangle>false</activeaudioangle>
                    <clip id="clip-6"/>
                  </angle>
                  <angle>
                    <activevideoangle>false</activevideoangle>
                    <activeaudioangle>false</activeaudioangle>
                    <clip id="clip-7"/>
                  </angle>
                  <angle>
                    <activevideoangle>false</activevideoangle>
                    <activeaudioangle>false</activeaudioangle>
                    <clip id="clip-8"/>
                  </angle>
                  <angle>
                    <activevideoangle>false</activevideoangle>
                    <activeaudioangle>false</activeaudioangle>
                    <clip id="clip-9"/>
                  </angle>
                  <masterclipid>clip-master</masterclipid>
                </multiclip>
              </clipitem>
              <clipitem id="cs-414">
                <duration>62</duration>
                <rate>
                  <ntsc>false</ntsc>
                  <timebase>25</timebase>
                </rate>
                <in>65364</in>
                <out>65425</out>
                <start>65364</start>
                <end>65425</end>
                <file id="src-2"/>
                <sourcetrack>
                  <mediatype>video</mediatype>
                  <trackindex>1</trackindex>
                </sourcetrack>
                <multiclip id="mcs-414">
                  <name>MCS-414</name>
                  <masterclipid>clip-master</masterclipid>
                  <collapsed>false</collapsed>
                  <angle>
                    <activevideoangle>false</activevideoangle>
                    <activeaudioangle>false</activeaudioangle>
                    <clip id="clip-1"/>
                  </angle>
                  <angle>
                    <activevideoangle>true</activevideoangle>
                    <activeaudioangle>true</activeaudioangle>
                    <clip id="clip-2"/>
                  </angle>
                  <angle>
                    <activevideoangle>false</activevideoangle>
                    <activeaudioangle>false</activeaudioangle>
                    <clip id="clip-3"/>
                  </angle>
                  <angle>
                    <activevideoangle>false</activevideoangle>
                    <activeaudioangle>false</activeaudioangle>
                    <clip id="clip-4"/>
                  </angle>
                  <angle>
                    <activevideoangle>false</activevideoangle>
                    <activeaudioangle>false</activeaudioangle>
                    <clip id="clip-5"/>
                  </angle>
                  <angle>
                    <activevideoangle>false</activevideoangle>
                    <activeaudioangle>false</activeaudioangle>
                    <clip id="clip-6"/>
                  </angle>
                  <angle>
                    <activevideoangle>false</activevideoangle>
                    <activeaudioangle>false</activeaudioangle>
                    <clip id="clip-7"/>
                  </angle>
                  <angle>
                    <activevideoangle>false</activevideoangle>
                    <activeaudioangle>false</activeaudioangle>
                    <clip id="clip-8"/>
                  </angle>
                  <angle>
                    <activevideoangle>false</activevideoangle>
                    <activeaudioangle>false</activeaudioangle>
                    <clip id="clip-9"/>
                  </angle>
                  <masterclipid>clip-master</masterclipid>
                </multiclip>
              </clipitem>
              <clipitem id="cs-415">
                <duration>188</duration>
                <rate>
                  <ntsc>false</ntsc>
                  <timebase>25</timebase>
                </rate>
                <in>65425</in>
                <out>65612</out>
                <start>65425</start>
                <end>65612</end>
                <file id="src-4"/>
                <sourcetrack>
                  <mediatype>video</mediatype>
                  <trackindex>1</trackindex>
                </sourcetrack>
                <multiclip id="mcs-415">
                  <name>MCS-415</name>
                  <masterclipid>clip-master</masterclipid>
                  <collapsed>false</collapsed>
                  <angle>
                    <activevideoangle>false</activevideoangle>
                    <activeaudioangle>false</activeaudioangle>
                    <clip id="clip-1"/>
                  </angle>
                  <angle>
                    <activevideoangle>false</activevideoangle>
                    <activeaudioangle>false</activeaudioangle>
                    <clip id="clip-2"/>
                  </angle>
                  <angle>
                    <activevideoangle>false</activevideoangle>
                    <activeaudioangle>false</activeaudioangle>
                    <clip id="clip-3"/>
                  </angle>
                  <angle>
                    <activevideoangle>true</activevideoangle>
                    <activeaudioangle>true</activeaudioangle>
                    <clip id="clip-4"/>
                  </angle>
                  <angle>
                    <activevideoangle>false</activevideoangle>
                    <activeaudioangle>false</activeaudioangle>
                    <clip id="clip-5"/>
                  </angle>
                  <angle>
                    <activevideoangle>false</activevideoangle>
                    <activeaudioangle>false</activeaudioangle>
                    <clip id="clip-6"/>
                  </angle>
                  <angle>
                    <activevideoangle>false</activevideoangle>
                    <activeaudioangle>false</activeaudioangle>
                    <clip id="clip-7"/>
                  </angle>
                  <angle>
                    <activevideoangle>false</activevideoangle>
                    <activeaudioangle>false</activeaudioangle>
                    <clip id="clip-8"/>
                  </angle>
                  <angle>
                    <activevideoangle>false</activevideoangle>
                    <activeaudioangle>false</activeaudioangle>
                    <clip id="clip-9"/>
                  </angle>
                  <masterclipid>clip-master</masterclipid>
                </multiclip>
              </clipitem>
              <clipitem id="cs-416">
                <duration>82</duration>
                <rate>
                  <ntsc>false</ntsc>
                  <timebase>25</timebase>
                </rate>
                <in>65612</in>
                <out>65693</out>
                <start>65612</start>
                <end>65693</end>
                <file id="src-6"/>
                <sourcetrack>
                  <mediatype>video</mediatype>
                  <trackindex>1</trackindex>
                </sourcetrack>
                <multiclip id="mcs-416">
                  <name>MCS-416</name>
                  <masterclipid>clip-master</masterclipid>
                  <collapsed>false</collapsed>
                  <angle>
                    <activevideoangle>false</activevideoangle>
                    <activeaudioangle>false</activeaudioangle>
                    <clip id="clip-1"/>
                  </angle>
                  <angle>
                    <activevideoangle>false</activevideoangle>
                    <activeaudioangle>false</activeaudioangle>
                    <clip id="clip-2"/>
                  </angle>
                  <angle>
                    <activevideoangle>false</activevideoangle>
                    <activeaudioangle>false</activeaudioangle>
                    <clip id="clip-3"/>
                  </angle>
                  <angle>
                    <activevideoangle>false</activevideoangle>
                    <activeaudioangle>false</activeaudioangle>
                    <clip id="clip-4"/>
                  </angle>
                  <angle>
                    <activevideoangle>false</activevideoangle>
                    <activeaudioangle>false</activeaudioangle>
                    <clip id="clip-5"/>
                  </angle>
                  <angle>
                    <activevideoangle>true</activevideoangle>
                    <activeaudioangle>true</activeaudioangle>
                    <clip id="clip-6"/>
                  </angle>
                  <angle>
                    <activevideoangle>false</activevideoangle>
                    <activeaudioangle>false</activeaudioangle>
                    <clip id="clip-7"/>
                  </angle>
                  <angle>
                    <activevideoangle>false</activevideoangle>
                    <activeaudioangle>false</activeaudioangle>
                    <clip id="clip-8"/>
                  </angle>
                  <angle>
                    <activevideoangle>false</activevideoangle>
                    <activeaudioangle>false</activeaudioangle>
                    <clip id="clip-9"/>
                  </angle>
                  <masterclipid>clip-master</masterclipid>
                </multiclip>
              </clipitem>
              <clipitem id="cs-417">
                <duration>165</duration>
                <rate>
                  <ntsc>false</ntsc>
                  <timebase>25</timebase>
                </rate>
                <in>65693</in>
                <out>65857</out>
                <start>65693</start>
                <end>65857</end>
                <file id="src-3"/>
                <sourcetrack>
                  <mediatype>video</mediatype>
                  <trackindex>1</trackindex>
                </sourcetrack>
                <multiclip id="mcs-417">
                  <name>MCS-417</name>
                  <masterclipid>clip-master</masterclipid>
                  <collapsed>false</collapsed>
                  <angle>
                    <activevideoangle>false</activevideoangle>
                    <activeaudioangle>false</activeaudioangle>
                    <clip id="clip-1"/>
                  </angle>
                  <angle>
                    <activevideoangle>false</activevideoangle>
                    <activeaudioangle>false</activeaudioangle>
                    <clip id="clip-2"/>
                  </angle>
                  <angle>
                    <activevideoangle>true</activevideoangle>
                    <activeaudioangle>true</activeaudioangle>
                    <clip id="clip-3"/>
                  </angle>
                  <angle>
                    <activevideoangle>false</activevideoangle>
                    <activeaudioangle>false</activeaudioangle>
                    <clip id="clip-4"/>
                  </angle>
                  <angle>
                    <activevideoangle>false</activevideoangle>
                    <activeaudioangle>false</activeaudioangle>
                    <clip id="clip-5"/>
                  </angle>
                  <angle>
                    <activevideoangle>false</activevideoangle>
                    <activeaudioangle>false</activeaudioangle>
                    <clip id="clip-6"/>
                  </angle>
                  <angle>
                    <activevideoangle>false</activevideoangle>
                    <activeaudioangle>false</activeaudioangle>
                    <clip id="clip-7"/>
                  </angle>
                  <angle>
                    <activevideoangle>false</activevideoangle>
                    <activeaudioangle>false</activeaudioangle>
                    <clip id="clip-8"/>
                  </angle>
                  <angle>
                    <activevideoangle>false</activevideoangle>
                    <activeaudioangle>false</activeaudioangle>
                    <clip id="clip-9"/>
                  </angle>
                  <masterclipid>clip-master</masterclipid>
                </multiclip>
              </clipitem>
              <clipitem id="cs-418">
                <duration>448</duration>
                <rate>
                  <ntsc>false</ntsc>
                  <timebase>25</timebase>
                </rate>
                <in>65857</in>
                <out>66304</out>
                <start>65857</start>
                <end>66304</end>
                <file id="src-2"/>
                <sourcetrack>
                  <mediatype>video</mediatype>
                  <trackindex>1</trackindex>
                </sourcetrack>
                <multiclip id="mcs-418">
                  <name>MCS-418</name>
                  <masterclipid>clip-master</masterclipid>
                  <collapsed>false</collapsed>
                  <angle>
                    <activevideoangle>false</activevideoangle>
                    <activeaudioangle>false</activeaudioangle>
                    <clip id="clip-1"/>
                  </angle>
                  <angle>
                    <activevideoangle>true</activevideoangle>
                    <activeaudioangle>true</activeaudioangle>
                    <clip id="clip-2"/>
                  </angle>
                  <angle>
                    <activevideoangle>false</activevideoangle>
                    <activeaudioangle>false</activeaudioangle>
                    <clip id="clip-3"/>
                  </angle>
                  <angle>
                    <activevideoangle>false</activevideoangle>
                    <activeaudioangle>false</activeaudioangle>
                    <clip id="clip-4"/>
                  </angle>
                  <angle>
                    <activevideoangle>false</activevideoangle>
                    <activeaudioangle>false</activeaudioangle>
                    <clip id="clip-5"/>
                  </angle>
                  <angle>
                    <activevideoangle>false</activevideoangle>
                    <activeaudioangle>false</activeaudioangle>
                    <clip id="clip-6"/>
                  </angle>
                  <angle>
                    <activevideoangle>false</activevideoangle>
                    <activeaudioangle>false</activeaudioangle>
                    <clip id="clip-7"/>
                  </angle>
                  <angle>
                    <activevideoangle>false</activevideoangle>
                    <activeaudioangle>false</activeaudioangle>
                    <clip id="clip-8"/>
                  </angle>
                  <angle>
                    <activevideoangle>false</activevideoangle>
                    <activeaudioangle>false</activeaudioangle>
                    <clip id="clip-9"/>
                  </angle>
                  <masterclipid>clip-master</masterclipid>
                </multiclip>
              </clipitem>
              <clipitem id="cs-419">
                <duration>207</duration>
                <rate>
                  <ntsc>false</ntsc>
                  <timebase>25</timebase>
                </rate>
                <in>66304</in>
                <out>66510</out>
                <start>66304</start>
                <end>66510</end>
                <file id="src-4"/>
                <sourcetrack>
                  <mediatype>video</mediatype>
                  <trackindex>1</trackindex>
                </sourcetrack>
                <multiclip id="mcs-419">
                  <name>MCS-419</name>
                  <masterclipid>clip-master</masterclipid>
                  <collapsed>false</collapsed>
                  <angle>
                    <activevideoangle>false</activevideoangle>
                    <activeaudioangle>false</activeaudioangle>
                    <clip id="clip-1"/>
                  </angle>
                  <angle>
                    <activevideoangle>false</activevideoangle>
                    <activeaudioangle>false</activeaudioangle>
                    <clip id="clip-2"/>
                  </angle>
                  <angle>
                    <activevideoangle>false</activevideoangle>
                    <activeaudioangle>false</activeaudioangle>
                    <clip id="clip-3"/>
                  </angle>
                  <angle>
                    <activevideoangle>true</activevideoangle>
                    <activeaudioangle>true</activeaudioangle>
                    <clip id="clip-4"/>
                  </angle>
                  <angle>
                    <activevideoangle>false</activevideoangle>
                    <activeaudioangle>false</activeaudioangle>
                    <clip id="clip-5"/>
                  </angle>
                  <angle>
                    <activevideoangle>false</activevideoangle>
                    <activeaudioangle>false</activeaudioangle>
                    <clip id="clip-6"/>
                  </angle>
                  <angle>
                    <activevideoangle>false</activevideoangle>
                    <activeaudioangle>false</activeaudioangle>
                    <clip id="clip-7"/>
                  </angle>
                  <angle>
                    <activevideoangle>false</activevideoangle>
                    <activeaudioangle>false</activeaudioangle>
                    <clip id="clip-8"/>
                  </angle>
                  <angle>
                    <activevideoangle>false</activevideoangle>
                    <activeaudioangle>false</activeaudioangle>
                    <clip id="clip-9"/>
                  </angle>
                  <masterclipid>clip-master</masterclipid>
                </multiclip>
              </clipitem>
              <clipitem id="cs-420">
                <duration>236</duration>
                <rate>
                  <ntsc>false</ntsc>
                  <timebase>25</timebase>
                </rate>
                <in>66510</in>
                <out>66745</out>
                <start>66510</start>
                <end>66745</end>
                <file id="src-2"/>
                <sourcetrack>
                  <mediatype>video</mediatype>
                  <trackindex>1</trackindex>
                </sourcetrack>
                <multiclip id="mcs-420">
                  <name>MCS-420</name>
                  <masterclipid>clip-master</masterclipid>
                  <collapsed>false</collapsed>
                  <angle>
                    <activevideoangle>false</activevideoangle>
                    <activeaudioangle>false</activeaudioangle>
                    <clip id="clip-1"/>
                  </angle>
                  <angle>
                    <activevideoangle>true</activevideoangle>
                    <activeaudioangle>true</activeaudioangle>
                    <clip id="clip-2"/>
                  </angle>
                  <angle>
                    <activevideoangle>false</activevideoangle>
                    <activeaudioangle>false</activeaudioangle>
                    <clip id="clip-3"/>
                  </angle>
                  <angle>
                    <activevideoangle>false</activevideoangle>
                    <activeaudioangle>false</activeaudioangle>
                    <clip id="clip-4"/>
                  </angle>
                  <angle>
                    <activevideoangle>false</activevideoangle>
                    <activeaudioangle>false</activeaudioangle>
                    <clip id="clip-5"/>
                  </angle>
                  <angle>
                    <activevideoangle>false</activevideoangle>
                    <activeaudioangle>false</activeaudioangle>
                    <clip id="clip-6"/>
                  </angle>
                  <angle>
                    <activevideoangle>false</activevideoangle>
                    <activeaudioangle>false</activeaudioangle>
                    <clip id="clip-7"/>
                  </angle>
                  <angle>
                    <activevideoangle>false</activevideoangle>
                    <activeaudioangle>false</activeaudioangle>
                    <clip id="clip-8"/>
                  </angle>
                  <angle>
                    <activevideoangle>false</activevideoangle>
                    <activeaudioangle>false</activeaudioangle>
                    <clip id="clip-9"/>
                  </angle>
                  <masterclipid>clip-master</masterclipid>
                </multiclip>
              </clipitem>
              <clipitem id="cs-421">
                <duration>550</duration>
                <rate>
                  <ntsc>false</ntsc>
                  <timebase>25</timebase>
                </rate>
                <in>66745</in>
                <out>67294</out>
                <start>66745</start>
                <end>67294</end>
                <file id="src-4"/>
                <sourcetrack>
                  <mediatype>video</mediatype>
                  <trackindex>1</trackindex>
                </sourcetrack>
                <multiclip id="mcs-421">
                  <name>MCS-421</name>
                  <masterclipid>clip-master</masterclipid>
                  <collapsed>false</collapsed>
                  <angle>
                    <activevideoangle>false</activevideoangle>
                    <activeaudioangle>false</activeaudioangle>
                    <clip id="clip-1"/>
                  </angle>
                  <angle>
                    <activevideoangle>false</activevideoangle>
                    <activeaudioangle>false</activeaudioangle>
                    <clip id="clip-2"/>
                  </angle>
                  <angle>
                    <activevideoangle>false</activevideoangle>
                    <activeaudioangle>false</activeaudioangle>
                    <clip id="clip-3"/>
                  </angle>
                  <angle>
                    <activevideoangle>true</activevideoangle>
                    <activeaudioangle>true</activeaudioangle>
                    <clip id="clip-4"/>
                  </angle>
                  <angle>
                    <activevideoangle>false</activevideoangle>
                    <activeaudioangle>false</activeaudioangle>
                    <clip id="clip-5"/>
                  </angle>
                  <angle>
                    <activevideoangle>false</activevideoangle>
                    <activeaudioangle>false</activeaudioangle>
                    <clip id="clip-6"/>
                  </angle>
                  <angle>
                    <activevideoangle>false</activevideoangle>
                    <activeaudioangle>false</activeaudioangle>
                    <clip id="clip-7"/>
                  </angle>
                  <angle>
                    <activevideoangle>false</activevideoangle>
                    <activeaudioangle>false</activeaudioangle>
                    <clip id="clip-8"/>
                  </angle>
                  <angle>
                    <activevideoangle>false</activevideoangle>
                    <activeaudioangle>false</activeaudioangle>
                    <clip id="clip-9"/>
                  </angle>
                  <masterclipid>clip-master</masterclipid>
                </multiclip>
              </clipitem>
              <clipitem id="cs-422">
                <duration>156</duration>
                <rate>
                  <ntsc>false</ntsc>
                  <timebase>25</timebase>
                </rate>
                <in>67294</in>
                <out>67449</out>
                <start>67294</start>
                <end>67449</end>
                <file id="src-5"/>
                <sourcetrack>
                  <mediatype>video</mediatype>
                  <trackindex>1</trackindex>
                </sourcetrack>
                <multiclip id="mcs-422">
                  <name>MCS-422</name>
                  <masterclipid>clip-master</masterclipid>
                  <collapsed>false</collapsed>
                  <angle>
                    <activevideoangle>false</activevideoangle>
                    <activeaudioangle>false</activeaudioangle>
                    <clip id="clip-1"/>
                  </angle>
                  <angle>
                    <activevideoangle>false</activevideoangle>
                    <activeaudioangle>false</activeaudioangle>
                    <clip id="clip-2"/>
                  </angle>
                  <angle>
                    <activevideoangle>false</activevideoangle>
                    <activeaudioangle>false</activeaudioangle>
                    <clip id="clip-3"/>
                  </angle>
                  <angle>
                    <activevideoangle>false</activevideoangle>
                    <activeaudioangle>false</activeaudioangle>
                    <clip id="clip-4"/>
                  </angle>
                  <angle>
                    <activevideoangle>true</activevideoangle>
                    <activeaudioangle>true</activeaudioangle>
                    <clip id="clip-5"/>
                  </angle>
                  <angle>
                    <activevideoangle>false</activevideoangle>
                    <activeaudioangle>false</activeaudioangle>
                    <clip id="clip-6"/>
                  </angle>
                  <angle>
                    <activevideoangle>false</activevideoangle>
                    <activeaudioangle>false</activeaudioangle>
                    <clip id="clip-7"/>
                  </angle>
                  <angle>
                    <activevideoangle>false</activevideoangle>
                    <activeaudioangle>false</activeaudioangle>
                    <clip id="clip-8"/>
                  </angle>
                  <angle>
                    <activevideoangle>false</activevideoangle>
                    <activeaudioangle>false</activeaudioangle>
                    <clip id="clip-9"/>
                  </angle>
                  <masterclipid>clip-master</masterclipid>
                </multiclip>
              </clipitem>
              <clipitem id="cs-423">
                <duration>184</duration>
                <rate>
                  <ntsc>false</ntsc>
                  <timebase>25</timebase>
                </rate>
                <in>67449</in>
                <out>67632</out>
                <start>67449</start>
                <end>67632</end>
                <file id="src-2"/>
                <sourcetrack>
                  <mediatype>video</mediatype>
                  <trackindex>1</trackindex>
                </sourcetrack>
                <multiclip id="mcs-423">
                  <name>MCS-423</name>
                  <masterclipid>clip-master</masterclipid>
                  <collapsed>false</collapsed>
                  <angle>
                    <activevideoangle>false</activevideoangle>
                    <activeaudioangle>false</activeaudioangle>
                    <clip id="clip-1"/>
                  </angle>
                  <angle>
                    <activevideoangle>true</activevideoangle>
                    <activeaudioangle>true</activeaudioangle>
                    <clip id="clip-2"/>
                  </angle>
                  <angle>
                    <activevideoangle>false</activevideoangle>
                    <activeaudioangle>false</activeaudioangle>
                    <clip id="clip-3"/>
                  </angle>
                  <angle>
                    <activevideoangle>false</activevideoangle>
                    <activeaudioangle>false</activeaudioangle>
                    <clip id="clip-4"/>
                  </angle>
                  <angle>
                    <activevideoangle>false</activevideoangle>
                    <activeaudioangle>false</activeaudioangle>
                    <clip id="clip-5"/>
                  </angle>
                  <angle>
                    <activevideoangle>false</activevideoangle>
                    <activeaudioangle>false</activeaudioangle>
                    <clip id="clip-6"/>
                  </angle>
                  <angle>
                    <activevideoangle>false</activevideoangle>
                    <activeaudioangle>false</activeaudioangle>
                    <clip id="clip-7"/>
                  </angle>
                  <angle>
                    <activevideoangle>false</activevideoangle>
                    <activeaudioangle>false</activeaudioangle>
                    <clip id="clip-8"/>
                  </angle>
                  <angle>
                    <activevideoangle>false</activevideoangle>
                    <activeaudioangle>false</activeaudioangle>
                    <clip id="clip-9"/>
                  </angle>
                  <masterclipid>clip-master</masterclipid>
                </multiclip>
              </clipitem>
              <clipitem id="cs-424">
                <duration>198</duration>
                <rate>
                  <ntsc>false</ntsc>
                  <timebase>25</timebase>
                </rate>
                <in>67632</in>
                <out>67829</out>
                <start>67632</start>
                <end>67829</end>
                <file id="src-4"/>
                <sourcetrack>
                  <mediatype>video</mediatype>
                  <trackindex>1</trackindex>
                </sourcetrack>
                <multiclip id="mcs-424">
                  <name>MCS-424</name>
                  <masterclipid>clip-master</masterclipid>
                  <collapsed>false</collapsed>
                  <angle>
                    <activevideoangle>false</activevideoangle>
                    <activeaudioangle>false</activeaudioangle>
                    <clip id="clip-1"/>
                  </angle>
                  <angle>
                    <activevideoangle>false</activevideoangle>
                    <activeaudioangle>false</activeaudioangle>
                    <clip id="clip-2"/>
                  </angle>
                  <angle>
                    <activevideoangle>false</activevideoangle>
                    <activeaudioangle>false</activeaudioangle>
                    <clip id="clip-3"/>
                  </angle>
                  <angle>
                    <activevideoangle>true</activevideoangle>
                    <activeaudioangle>true</activeaudioangle>
                    <clip id="clip-4"/>
                  </angle>
                  <angle>
                    <activevideoangle>false</activevideoangle>
                    <activeaudioangle>false</activeaudioangle>
                    <clip id="clip-5"/>
                  </angle>
                  <angle>
                    <activevideoangle>false</activevideoangle>
                    <activeaudioangle>false</activeaudioangle>
                    <clip id="clip-6"/>
                  </angle>
                  <angle>
                    <activevideoangle>false</activevideoangle>
                    <activeaudioangle>false</activeaudioangle>
                    <clip id="clip-7"/>
                  </angle>
                  <angle>
                    <activevideoangle>false</activevideoangle>
                    <activeaudioangle>false</activeaudioangle>
                    <clip id="clip-8"/>
                  </angle>
                  <angle>
                    <activevideoangle>false</activevideoangle>
                    <activeaudioangle>false</activeaudioangle>
                    <clip id="clip-9"/>
                  </angle>
                  <masterclipid>clip-master</masterclipid>
                </multiclip>
              </clipitem>
              <clipitem id="cs-425">
                <duration>103</duration>
                <rate>
                  <ntsc>false</ntsc>
                  <timebase>25</timebase>
                </rate>
                <in>67829</in>
                <out>67931</out>
                <start>67829</start>
                <end>67931</end>
                <file id="src-6"/>
                <sourcetrack>
                  <mediatype>video</mediatype>
                  <trackindex>1</trackindex>
                </sourcetrack>
                <multiclip id="mcs-425">
                  <name>MCS-425</name>
                  <masterclipid>clip-master</masterclipid>
                  <collapsed>false</collapsed>
                  <angle>
                    <activevideoangle>false</activevideoangle>
                    <activeaudioangle>false</activeaudioangle>
                    <clip id="clip-1"/>
                  </angle>
                  <angle>
                    <activevideoangle>false</activevideoangle>
                    <activeaudioangle>false</activeaudioangle>
                    <clip id="clip-2"/>
                  </angle>
                  <angle>
                    <activevideoangle>false</activevideoangle>
                    <activeaudioangle>false</activeaudioangle>
                    <clip id="clip-3"/>
                  </angle>
                  <angle>
                    <activevideoangle>false</activevideoangle>
                    <activeaudioangle>false</activeaudioangle>
                    <clip id="clip-4"/>
                  </angle>
                  <angle>
                    <activevideoangle>false</activevideoangle>
                    <activeaudioangle>false</activeaudioangle>
                    <clip id="clip-5"/>
                  </angle>
                  <angle>
                    <activevideoangle>true</activevideoangle>
                    <activeaudioangle>true</activeaudioangle>
                    <clip id="clip-6"/>
                  </angle>
                  <angle>
                    <activevideoangle>false</activevideoangle>
                    <activeaudioangle>false</activeaudioangle>
                    <clip id="clip-7"/>
                  </angle>
                  <angle>
                    <activevideoangle>false</activevideoangle>
                    <activeaudioangle>false</activeaudioangle>
                    <clip id="clip-8"/>
                  </angle>
                  <angle>
                    <activevideoangle>false</activevideoangle>
                    <activeaudioangle>false</activeaudioangle>
                    <clip id="clip-9"/>
                  </angle>
                  <masterclipid>clip-master</masterclipid>
                </multiclip>
              </clipitem>
              <clipitem id="cs-426">
                <duration>55</duration>
                <rate>
                  <ntsc>false</ntsc>
                  <timebase>25</timebase>
                </rate>
                <in>67931</in>
                <out>67985</out>
                <start>67931</start>
                <end>67985</end>
                <file id="src-4"/>
                <sourcetrack>
                  <mediatype>video</mediatype>
                  <trackindex>1</trackindex>
                </sourcetrack>
                <multiclip id="mcs-426">
                  <name>MCS-426</name>
                  <masterclipid>clip-master</masterclipid>
                  <collapsed>false</collapsed>
                  <angle>
                    <activevideoangle>false</activevideoangle>
                    <activeaudioangle>false</activeaudioangle>
                    <clip id="clip-1"/>
                  </angle>
                  <angle>
                    <activevideoangle>false</activevideoangle>
                    <activeaudioangle>false</activeaudioangle>
                    <clip id="clip-2"/>
                  </angle>
                  <angle>
                    <activevideoangle>false</activevideoangle>
                    <activeaudioangle>false</activeaudioangle>
                    <clip id="clip-3"/>
                  </angle>
                  <angle>
                    <activevideoangle>true</activevideoangle>
                    <activeaudioangle>true</activeaudioangle>
                    <clip id="clip-4"/>
                  </angle>
                  <angle>
                    <activevideoangle>false</activevideoangle>
                    <activeaudioangle>false</activeaudioangle>
                    <clip id="clip-5"/>
                  </angle>
                  <angle>
                    <activevideoangle>false</activevideoangle>
                    <activeaudioangle>false</activeaudioangle>
                    <clip id="clip-6"/>
                  </angle>
                  <angle>
                    <activevideoangle>false</activevideoangle>
                    <activeaudioangle>false</activeaudioangle>
                    <clip id="clip-7"/>
                  </angle>
                  <angle>
                    <activevideoangle>false</activevideoangle>
                    <activeaudioangle>false</activeaudioangle>
                    <clip id="clip-8"/>
                  </angle>
                  <angle>
                    <activevideoangle>false</activevideoangle>
                    <activeaudioangle>false</activeaudioangle>
                    <clip id="clip-9"/>
                  </angle>
                  <masterclipid>clip-master</masterclipid>
                </multiclip>
              </clipitem>
              <clipitem id="cs-427">
                <duration>289</duration>
                <rate>
                  <ntsc>false</ntsc>
                  <timebase>25</timebase>
                </rate>
                <in>67985</in>
                <out>68273</out>
                <start>67985</start>
                <end>68273</end>
                <file id="src-2"/>
                <sourcetrack>
                  <mediatype>video</mediatype>
                  <trackindex>1</trackindex>
                </sourcetrack>
                <multiclip id="mcs-427">
                  <name>MCS-427</name>
                  <masterclipid>clip-master</masterclipid>
                  <collapsed>false</collapsed>
                  <angle>
                    <activevideoangle>false</activevideoangle>
                    <activeaudioangle>false</activeaudioangle>
                    <clip id="clip-1"/>
                  </angle>
                  <angle>
                    <activevideoangle>true</activevideoangle>
                    <activeaudioangle>true</activeaudioangle>
                    <clip id="clip-2"/>
                  </angle>
                  <angle>
                    <activevideoangle>false</activevideoangle>
                    <activeaudioangle>false</activeaudioangle>
                    <clip id="clip-3"/>
                  </angle>
                  <angle>
                    <activevideoangle>false</activevideoangle>
                    <activeaudioangle>false</activeaudioangle>
                    <clip id="clip-4"/>
                  </angle>
                  <angle>
                    <activevideoangle>false</activevideoangle>
                    <activeaudioangle>false</activeaudioangle>
                    <clip id="clip-5"/>
                  </angle>
                  <angle>
                    <activevideoangle>false</activevideoangle>
                    <activeaudioangle>false</activeaudioangle>
                    <clip id="clip-6"/>
                  </angle>
                  <angle>
                    <activevideoangle>false</activevideoangle>
                    <activeaudioangle>false</activeaudioangle>
                    <clip id="clip-7"/>
                  </angle>
                  <angle>
                    <activevideoangle>false</activevideoangle>
                    <activeaudioangle>false</activeaudioangle>
                    <clip id="clip-8"/>
                  </angle>
                  <angle>
                    <activevideoangle>false</activevideoangle>
                    <activeaudioangle>false</activeaudioangle>
                    <clip id="clip-9"/>
                  </angle>
                  <masterclipid>clip-master</masterclipid>
                </multiclip>
              </clipitem>
              <clipitem id="cs-428">
                <duration>156</duration>
                <rate>
                  <ntsc>false</ntsc>
                  <timebase>25</timebase>
                </rate>
                <in>68273</in>
                <out>68428</out>
                <start>68273</start>
                <end>68428</end>
                <file id="src-5"/>
                <sourcetrack>
                  <mediatype>video</mediatype>
                  <trackindex>1</trackindex>
                </sourcetrack>
                <multiclip id="mcs-428">
                  <name>MCS-428</name>
                  <masterclipid>clip-master</masterclipid>
                  <collapsed>false</collapsed>
                  <angle>
                    <activevideoangle>false</activevideoangle>
                    <activeaudioangle>false</activeaudioangle>
                    <clip id="clip-1"/>
                  </angle>
                  <angle>
                    <activevideoangle>false</activevideoangle>
                    <activeaudioangle>false</activeaudioangle>
                    <clip id="clip-2"/>
                  </angle>
                  <angle>
                    <activevideoangle>false</activevideoangle>
                    <activeaudioangle>false</activeaudioangle>
                    <clip id="clip-3"/>
                  </angle>
                  <angle>
                    <activevideoangle>false</activevideoangle>
                    <activeaudioangle>false</activeaudioangle>
                    <clip id="clip-4"/>
                  </angle>
                  <angle>
                    <activevideoangle>true</activevideoangle>
                    <activeaudioangle>true</activeaudioangle>
                    <clip id="clip-5"/>
                  </angle>
                  <angle>
                    <activevideoangle>false</activevideoangle>
                    <activeaudioangle>false</activeaudioangle>
                    <clip id="clip-6"/>
                  </angle>
                  <angle>
                    <activevideoangle>false</activevideoangle>
                    <activeaudioangle>false</activeaudioangle>
                    <clip id="clip-7"/>
                  </angle>
                  <angle>
                    <activevideoangle>false</activevideoangle>
                    <activeaudioangle>false</activeaudioangle>
                    <clip id="clip-8"/>
                  </angle>
                  <angle>
                    <activevideoangle>false</activevideoangle>
                    <activeaudioangle>false</activeaudioangle>
                    <clip id="clip-9"/>
                  </angle>
                  <masterclipid>clip-master</masterclipid>
                </multiclip>
              </clipitem>
              <clipitem id="cs-429">
                <duration>62</duration>
                <rate>
                  <ntsc>false</ntsc>
                  <timebase>25</timebase>
                </rate>
                <in>68428</in>
                <out>68489</out>
                <start>68428</start>
                <end>68489</end>
                <file id="src-3"/>
                <sourcetrack>
                  <mediatype>video</mediatype>
                  <trackindex>1</trackindex>
                </sourcetrack>
                <multiclip id="mcs-429">
                  <name>MCS-429</name>
                  <masterclipid>clip-master</masterclipid>
                  <collapsed>false</collapsed>
                  <angle>
                    <activevideoangle>false</activevideoangle>
                    <activeaudioangle>false</activeaudioangle>
                    <clip id="clip-1"/>
                  </angle>
                  <angle>
                    <activevideoangle>false</activevideoangle>
                    <activeaudioangle>false</activeaudioangle>
                    <clip id="clip-2"/>
                  </angle>
                  <angle>
                    <activevideoangle>true</activevideoangle>
                    <activeaudioangle>true</activeaudioangle>
                    <clip id="clip-3"/>
                  </angle>
                  <angle>
                    <activevideoangle>false</activevideoangle>
                    <activeaudioangle>false</activeaudioangle>
                    <clip id="clip-4"/>
                  </angle>
                  <angle>
                    <activevideoangle>false</activevideoangle>
                    <activeaudioangle>false</activeaudioangle>
                    <clip id="clip-5"/>
                  </angle>
                  <angle>
                    <activevideoangle>false</activevideoangle>
                    <activeaudioangle>false</activeaudioangle>
                    <clip id="clip-6"/>
                  </angle>
                  <angle>
                    <activevideoangle>false</activevideoangle>
                    <activeaudioangle>false</activeaudioangle>
                    <clip id="clip-7"/>
                  </angle>
                  <angle>
                    <activevideoangle>false</activevideoangle>
                    <activeaudioangle>false</activeaudioangle>
                    <clip id="clip-8"/>
                  </angle>
                  <angle>
                    <activevideoangle>false</activevideoangle>
                    <activeaudioangle>false</activeaudioangle>
                    <clip id="clip-9"/>
                  </angle>
                  <masterclipid>clip-master</masterclipid>
                </multiclip>
              </clipitem>
              <clipitem id="cs-430">
                <duration>74</duration>
                <rate>
                  <ntsc>false</ntsc>
                  <timebase>25</timebase>
                </rate>
                <in>68489</in>
                <out>68562</out>
                <start>68489</start>
                <end>68562</end>
                <file id="src-7"/>
                <sourcetrack>
                  <mediatype>video</mediatype>
                  <trackindex>1</trackindex>
                </sourcetrack>
                <multiclip id="mcs-430">
                  <name>MCS-430</name>
                  <masterclipid>clip-master</masterclipid>
                  <collapsed>false</collapsed>
                  <angle>
                    <activevideoangle>false</activevideoangle>
                    <activeaudioangle>false</activeaudioangle>
                    <clip id="clip-1"/>
                  </angle>
                  <angle>
                    <activevideoangle>false</activevideoangle>
                    <activeaudioangle>false</activeaudioangle>
                    <clip id="clip-2"/>
                  </angle>
                  <angle>
                    <activevideoangle>false</activevideoangle>
                    <activeaudioangle>false</activeaudioangle>
                    <clip id="clip-3"/>
                  </angle>
                  <angle>
                    <activevideoangle>false</activevideoangle>
                    <activeaudioangle>false</activeaudioangle>
                    <clip id="clip-4"/>
                  </angle>
                  <angle>
                    <activevideoangle>false</activevideoangle>
                    <activeaudioangle>false</activeaudioangle>
                    <clip id="clip-5"/>
                  </angle>
                  <angle>
                    <activevideoangle>false</activevideoangle>
                    <activeaudioangle>false</activeaudioangle>
                    <clip id="clip-6"/>
                  </angle>
                  <angle>
                    <activevideoangle>true</activevideoangle>
                    <activeaudioangle>true</activeaudioangle>
                    <clip id="clip-7"/>
                  </angle>
                  <angle>
                    <activevideoangle>false</activevideoangle>
                    <activeaudioangle>false</activeaudioangle>
                    <clip id="clip-8"/>
                  </angle>
                  <angle>
                    <activevideoangle>false</activevideoangle>
                    <activeaudioangle>false</activeaudioangle>
                    <clip id="clip-9"/>
                  </angle>
                  <masterclipid>clip-master</masterclipid>
                </multiclip>
              </clipitem>
              <clipitem id="cs-431">
                <duration>61</duration>
                <rate>
                  <ntsc>false</ntsc>
                  <timebase>25</timebase>
                </rate>
                <in>68562</in>
                <out>68622</out>
                <start>68562</start>
                <end>68622</end>
                <file id="src-2"/>
                <sourcetrack>
                  <mediatype>video</mediatype>
                  <trackindex>1</trackindex>
                </sourcetrack>
                <multiclip id="mcs-431">
                  <name>MCS-431</name>
                  <masterclipid>clip-master</masterclipid>
                  <collapsed>false</collapsed>
                  <angle>
                    <activevideoangle>false</activevideoangle>
                    <activeaudioangle>false</activeaudioangle>
                    <clip id="clip-1"/>
                  </angle>
                  <angle>
                    <activevideoangle>true</activevideoangle>
                    <activeaudioangle>true</activeaudioangle>
                    <clip id="clip-2"/>
                  </angle>
                  <angle>
                    <activevideoangle>false</activevideoangle>
                    <activeaudioangle>false</activeaudioangle>
                    <clip id="clip-3"/>
                  </angle>
                  <angle>
                    <activevideoangle>false</activevideoangle>
                    <activeaudioangle>false</activeaudioangle>
                    <clip id="clip-4"/>
                  </angle>
                  <angle>
                    <activevideoangle>false</activevideoangle>
                    <activeaudioangle>false</activeaudioangle>
                    <clip id="clip-5"/>
                  </angle>
                  <angle>
                    <activevideoangle>false</activevideoangle>
                    <activeaudioangle>false</activeaudioangle>
                    <clip id="clip-6"/>
                  </angle>
                  <angle>
                    <activevideoangle>false</activevideoangle>
                    <activeaudioangle>false</activeaudioangle>
                    <clip id="clip-7"/>
                  </angle>
                  <angle>
                    <activevideoangle>false</activevideoangle>
                    <activeaudioangle>false</activeaudioangle>
                    <clip id="clip-8"/>
                  </angle>
                  <angle>
                    <activevideoangle>false</activevideoangle>
                    <activeaudioangle>false</activeaudioangle>
                    <clip id="clip-9"/>
                  </angle>
                  <masterclipid>clip-master</masterclipid>
                </multiclip>
              </clipitem>
              <clipitem id="cs-432">
                <duration>95</duration>
                <rate>
                  <ntsc>false</ntsc>
                  <timebase>25</timebase>
                </rate>
                <in>68622</in>
                <out>68716</out>
                <start>68622</start>
                <end>68716</end>
                <file id="src-3"/>
                <sourcetrack>
                  <mediatype>video</mediatype>
                  <trackindex>1</trackindex>
                </sourcetrack>
                <multiclip id="mcs-432">
                  <name>MCS-432</name>
                  <masterclipid>clip-master</masterclipid>
                  <collapsed>false</collapsed>
                  <angle>
                    <activevideoangle>false</activevideoangle>
                    <activeaudioangle>false</activeaudioangle>
                    <clip id="clip-1"/>
                  </angle>
                  <angle>
                    <activevideoangle>false</activevideoangle>
                    <activeaudioangle>false</activeaudioangle>
                    <clip id="clip-2"/>
                  </angle>
                  <angle>
                    <activevideoangle>true</activevideoangle>
                    <activeaudioangle>true</activeaudioangle>
                    <clip id="clip-3"/>
                  </angle>
                  <angle>
                    <activevideoangle>false</activevideoangle>
                    <activeaudioangle>false</activeaudioangle>
                    <clip id="clip-4"/>
                  </angle>
                  <angle>
                    <activevideoangle>false</activevideoangle>
                    <activeaudioangle>false</activeaudioangle>
                    <clip id="clip-5"/>
                  </angle>
                  <angle>
                    <activevideoangle>false</activevideoangle>
                    <activeaudioangle>false</activeaudioangle>
                    <clip id="clip-6"/>
                  </angle>
                  <angle>
                    <activevideoangle>false</activevideoangle>
                    <activeaudioangle>false</activeaudioangle>
                    <clip id="clip-7"/>
                  </angle>
                  <angle>
                    <activevideoangle>false</activevideoangle>
                    <activeaudioangle>false</activeaudioangle>
                    <clip id="clip-8"/>
                  </angle>
                  <angle>
                    <activevideoangle>false</activevideoangle>
                    <activeaudioangle>false</activeaudioangle>
                    <clip id="clip-9"/>
                  </angle>
                  <masterclipid>clip-master</masterclipid>
                </multiclip>
              </clipitem>
              <clipitem id="cs-433">
                <duration>74</duration>
                <rate>
                  <ntsc>false</ntsc>
                  <timebase>25</timebase>
                </rate>
                <in>68716</in>
                <out>68789</out>
                <start>68716</start>
                <end>68789</end>
                <file id="src-4"/>
                <sourcetrack>
                  <mediatype>video</mediatype>
                  <trackindex>1</trackindex>
                </sourcetrack>
                <multiclip id="mcs-433">
                  <name>MCS-433</name>
                  <masterclipid>clip-master</masterclipid>
                  <collapsed>false</collapsed>
                  <angle>
                    <activevideoangle>false</activevideoangle>
                    <activeaudioangle>false</activeaudioangle>
                    <clip id="clip-1"/>
                  </angle>
                  <angle>
                    <activevideoangle>false</activevideoangle>
                    <activeaudioangle>false</activeaudioangle>
                    <clip id="clip-2"/>
                  </angle>
                  <angle>
                    <activevideoangle>false</activevideoangle>
                    <activeaudioangle>false</activeaudioangle>
                    <clip id="clip-3"/>
                  </angle>
                  <angle>
                    <activevideoangle>true</activevideoangle>
                    <activeaudioangle>true</activeaudioangle>
                    <clip id="clip-4"/>
                  </angle>
                  <angle>
                    <activevideoangle>false</activevideoangle>
                    <activeaudioangle>false</activeaudioangle>
                    <clip id="clip-5"/>
                  </angle>
                  <angle>
                    <activevideoangle>false</activevideoangle>
                    <activeaudioangle>false</activeaudioangle>
                    <clip id="clip-6"/>
                  </angle>
                  <angle>
                    <activevideoangle>false</activevideoangle>
                    <activeaudioangle>false</activeaudioangle>
                    <clip id="clip-7"/>
                  </angle>
                  <angle>
                    <activevideoangle>false</activevideoangle>
                    <activeaudioangle>false</activeaudioangle>
                    <clip id="clip-8"/>
                  </angle>
                  <angle>
                    <activevideoangle>false</activevideoangle>
                    <activeaudioangle>false</activeaudioangle>
                    <clip id="clip-9"/>
                  </angle>
                  <masterclipid>clip-master</masterclipid>
                </multiclip>
              </clipitem>
              <clipitem id="cs-434">
                <duration>80</duration>
                <rate>
                  <ntsc>false</ntsc>
                  <timebase>25</timebase>
                </rate>
                <in>68789</in>
                <out>68868</out>
                <start>68789</start>
                <end>68868</end>
                <file id="src-6"/>
                <sourcetrack>
                  <mediatype>video</mediatype>
                  <trackindex>1</trackindex>
                </sourcetrack>
                <multiclip id="mcs-434">
                  <name>MCS-434</name>
                  <masterclipid>clip-master</masterclipid>
                  <collapsed>false</collapsed>
                  <angle>
                    <activevideoangle>false</activevideoangle>
                    <activeaudioangle>false</activeaudioangle>
                    <clip id="clip-1"/>
                  </angle>
                  <angle>
                    <activevideoangle>false</activevideoangle>
                    <activeaudioangle>false</activeaudioangle>
                    <clip id="clip-2"/>
                  </angle>
                  <angle>
                    <activevideoangle>false</activevideoangle>
                    <activeaudioangle>false</activeaudioangle>
                    <clip id="clip-3"/>
                  </angle>
                  <angle>
                    <activevideoangle>false</activevideoangle>
                    <activeaudioangle>false</activeaudioangle>
                    <clip id="clip-4"/>
                  </angle>
                  <angle>
                    <activevideoangle>false</activevideoangle>
                    <activeaudioangle>false</activeaudioangle>
                    <clip id="clip-5"/>
                  </angle>
                  <angle>
                    <activevideoangle>true</activevideoangle>
                    <activeaudioangle>true</activeaudioangle>
                    <clip id="clip-6"/>
                  </angle>
                  <angle>
                    <activevideoangle>false</activevideoangle>
                    <activeaudioangle>false</activeaudioangle>
                    <clip id="clip-7"/>
                  </angle>
                  <angle>
                    <activevideoangle>false</activevideoangle>
                    <activeaudioangle>false</activeaudioangle>
                    <clip id="clip-8"/>
                  </angle>
                  <angle>
                    <activevideoangle>false</activevideoangle>
                    <activeaudioangle>false</activeaudioangle>
                    <clip id="clip-9"/>
                  </angle>
                  <masterclipid>clip-master</masterclipid>
                </multiclip>
              </clipitem>
              <clipitem id="cs-435">
                <duration>45</duration>
                <rate>
                  <ntsc>false</ntsc>
                  <timebase>25</timebase>
                </rate>
                <in>68868</in>
                <out>68912</out>
                <start>68868</start>
                <end>68912</end>
                <file id="src-2"/>
                <sourcetrack>
                  <mediatype>video</mediatype>
                  <trackindex>1</trackindex>
                </sourcetrack>
                <multiclip id="mcs-435">
                  <name>MCS-435</name>
                  <masterclipid>clip-master</masterclipid>
                  <collapsed>false</collapsed>
                  <angle>
                    <activevideoangle>false</activevideoangle>
                    <activeaudioangle>false</activeaudioangle>
                    <clip id="clip-1"/>
                  </angle>
                  <angle>
                    <activevideoangle>true</activevideoangle>
                    <activeaudioangle>true</activeaudioangle>
                    <clip id="clip-2"/>
                  </angle>
                  <angle>
                    <activevideoangle>false</activevideoangle>
                    <activeaudioangle>false</activeaudioangle>
                    <clip id="clip-3"/>
                  </angle>
                  <angle>
                    <activevideoangle>false</activevideoangle>
                    <activeaudioangle>false</activeaudioangle>
                    <clip id="clip-4"/>
                  </angle>
                  <angle>
                    <activevideoangle>false</activevideoangle>
                    <activeaudioangle>false</activeaudioangle>
                    <clip id="clip-5"/>
                  </angle>
                  <angle>
                    <activevideoangle>false</activevideoangle>
                    <activeaudioangle>false</activeaudioangle>
                    <clip id="clip-6"/>
                  </angle>
                  <angle>
                    <activevideoangle>false</activevideoangle>
                    <activeaudioangle>false</activeaudioangle>
                    <clip id="clip-7"/>
                  </angle>
                  <angle>
                    <activevideoangle>false</activevideoangle>
                    <activeaudioangle>false</activeaudioangle>
                    <clip id="clip-8"/>
                  </angle>
                  <angle>
                    <activevideoangle>false</activevideoangle>
                    <activeaudioangle>false</activeaudioangle>
                    <clip id="clip-9"/>
                  </angle>
                  <masterclipid>clip-master</masterclipid>
                </multiclip>
              </clipitem>
              <clipitem id="cs-436">
                <duration>204</duration>
                <rate>
                  <ntsc>false</ntsc>
                  <timebase>25</timebase>
                </rate>
                <in>68912</in>
                <out>69115</out>
                <start>68912</start>
                <end>69115</end>
                <file id="src-1"/>
                <sourcetrack>
                  <mediatype>video</mediatype>
                  <trackindex>1</trackindex>
                </sourcetrack>
                <multiclip id="mcs-436">
                  <name>MCS-436</name>
                  <masterclipid>clip-master</masterclipid>
                  <collapsed>false</collapsed>
                  <angle>
                    <activevideoangle>true</activevideoangle>
                    <activeaudioangle>true</activeaudioangle>
                    <clip id="clip-1"/>
                  </angle>
                  <angle>
                    <activevideoangle>false</activevideoangle>
                    <activeaudioangle>false</activeaudioangle>
                    <clip id="clip-2"/>
                  </angle>
                  <angle>
                    <activevideoangle>false</activevideoangle>
                    <activeaudioangle>false</activeaudioangle>
                    <clip id="clip-3"/>
                  </angle>
                  <angle>
                    <activevideoangle>false</activevideoangle>
                    <activeaudioangle>false</activeaudioangle>
                    <clip id="clip-4"/>
                  </angle>
                  <angle>
                    <activevideoangle>false</activevideoangle>
                    <activeaudioangle>false</activeaudioangle>
                    <clip id="clip-5"/>
                  </angle>
                  <angle>
                    <activevideoangle>false</activevideoangle>
                    <activeaudioangle>false</activeaudioangle>
                    <clip id="clip-6"/>
                  </angle>
                  <angle>
                    <activevideoangle>false</activevideoangle>
                    <activeaudioangle>false</activeaudioangle>
                    <clip id="clip-7"/>
                  </angle>
                  <angle>
                    <activevideoangle>false</activevideoangle>
                    <activeaudioangle>false</activeaudioangle>
                    <clip id="clip-8"/>
                  </angle>
                  <angle>
                    <activevideoangle>false</activevideoangle>
                    <activeaudioangle>false</activeaudioangle>
                    <clip id="clip-9"/>
                  </angle>
                  <masterclipid>clip-master</masterclipid>
                </multiclip>
              </clipitem>
              <clipitem id="cs-437">
                <duration>126</duration>
                <rate>
                  <ntsc>false</ntsc>
                  <timebase>25</timebase>
                </rate>
                <in>69115</in>
                <out>69240</out>
                <start>69115</start>
                <end>69240</end>
                <file id="src-4"/>
                <sourcetrack>
                  <mediatype>video</mediatype>
                  <trackindex>1</trackindex>
                </sourcetrack>
                <multiclip id="mcs-437">
                  <name>MCS-437</name>
                  <masterclipid>clip-master</masterclipid>
                  <collapsed>false</collapsed>
                  <angle>
                    <activevideoangle>false</activevideoangle>
                    <activeaudioangle>false</activeaudioangle>
                    <clip id="clip-1"/>
                  </angle>
                  <angle>
                    <activevideoangle>false</activevideoangle>
                    <activeaudioangle>false</activeaudioangle>
                    <clip id="clip-2"/>
                  </angle>
                  <angle>
                    <activevideoangle>false</activevideoangle>
                    <activeaudioangle>false</activeaudioangle>
                    <clip id="clip-3"/>
                  </angle>
                  <angle>
                    <activevideoangle>true</activevideoangle>
                    <activeaudioangle>true</activeaudioangle>
                    <clip id="clip-4"/>
                  </angle>
                  <angle>
                    <activevideoangle>false</activevideoangle>
                    <activeaudioangle>false</activeaudioangle>
                    <clip id="clip-5"/>
                  </angle>
                  <angle>
                    <activevideoangle>false</activevideoangle>
                    <activeaudioangle>false</activeaudioangle>
                    <clip id="clip-6"/>
                  </angle>
                  <angle>
                    <activevideoangle>false</activevideoangle>
                    <activeaudioangle>false</activeaudioangle>
                    <clip id="clip-7"/>
                  </angle>
                  <angle>
                    <activevideoangle>false</activevideoangle>
                    <activeaudioangle>false</activeaudioangle>
                    <clip id="clip-8"/>
                  </angle>
                  <angle>
                    <activevideoangle>false</activevideoangle>
                    <activeaudioangle>false</activeaudioangle>
                    <clip id="clip-9"/>
                  </angle>
                  <masterclipid>clip-master</masterclipid>
                </multiclip>
              </clipitem>
              <clipitem id="cs-438">
                <duration>209</duration>
                <rate>
                  <ntsc>false</ntsc>
                  <timebase>25</timebase>
                </rate>
                <in>69240</in>
                <out>69448</out>
                <start>69240</start>
                <end>69448</end>
                <file id="src-2"/>
                <sourcetrack>
                  <mediatype>video</mediatype>
                  <trackindex>1</trackindex>
                </sourcetrack>
                <multiclip id="mcs-438">
                  <name>MCS-438</name>
                  <masterclipid>clip-master</masterclipid>
                  <collapsed>false</collapsed>
                  <angle>
                    <activevideoangle>false</activevideoangle>
                    <activeaudioangle>false</activeaudioangle>
                    <clip id="clip-1"/>
                  </angle>
                  <angle>
                    <activevideoangle>true</activevideoangle>
                    <activeaudioangle>true</activeaudioangle>
                    <clip id="clip-2"/>
                  </angle>
                  <angle>
                    <activevideoangle>false</activevideoangle>
                    <activeaudioangle>false</activeaudioangle>
                    <clip id="clip-3"/>
                  </angle>
                  <angle>
                    <activevideoangle>false</activevideoangle>
                    <activeaudioangle>false</activeaudioangle>
                    <clip id="clip-4"/>
                  </angle>
                  <angle>
                    <activevideoangle>false</activevideoangle>
                    <activeaudioangle>false</activeaudioangle>
                    <clip id="clip-5"/>
                  </angle>
                  <angle>
                    <activevideoangle>false</activevideoangle>
                    <activeaudioangle>false</activeaudioangle>
                    <clip id="clip-6"/>
                  </angle>
                  <angle>
                    <activevideoangle>false</activevideoangle>
                    <activeaudioangle>false</activeaudioangle>
                    <clip id="clip-7"/>
                  </angle>
                  <angle>
                    <activevideoangle>false</activevideoangle>
                    <activeaudioangle>false</activeaudioangle>
                    <clip id="clip-8"/>
                  </angle>
                  <angle>
                    <activevideoangle>false</activevideoangle>
                    <activeaudioangle>false</activeaudioangle>
                    <clip id="clip-9"/>
                  </angle>
                  <masterclipid>clip-master</masterclipid>
                </multiclip>
              </clipitem>
              <clipitem id="cs-439">
                <duration>85</duration>
                <rate>
                  <ntsc>false</ntsc>
                  <timebase>25</timebase>
                </rate>
                <in>69448</in>
                <out>69532</out>
                <start>69448</start>
                <end>69532</end>
                <file id="src-5"/>
                <sourcetrack>
                  <mediatype>video</mediatype>
                  <trackindex>1</trackindex>
                </sourcetrack>
                <multiclip id="mcs-439">
                  <name>MCS-439</name>
                  <masterclipid>clip-master</masterclipid>
                  <collapsed>false</collapsed>
                  <angle>
                    <activevideoangle>false</activevideoangle>
                    <activeaudioangle>false</activeaudioangle>
                    <clip id="clip-1"/>
                  </angle>
                  <angle>
                    <activevideoangle>false</activevideoangle>
                    <activeaudioangle>false</activeaudioangle>
                    <clip id="clip-2"/>
                  </angle>
                  <angle>
                    <activevideoangle>false</activevideoangle>
                    <activeaudioangle>false</activeaudioangle>
                    <clip id="clip-3"/>
                  </angle>
                  <angle>
                    <activevideoangle>false</activevideoangle>
                    <activeaudioangle>false</activeaudioangle>
                    <clip id="clip-4"/>
                  </angle>
                  <angle>
                    <activevideoangle>true</activevideoangle>
                    <activeaudioangle>true</activeaudioangle>
                    <clip id="clip-5"/>
                  </angle>
                  <angle>
                    <activevideoangle>false</activevideoangle>
                    <activeaudioangle>false</activeaudioangle>
                    <clip id="clip-6"/>
                  </angle>
                  <angle>
                    <activevideoangle>false</activevideoangle>
                    <activeaudioangle>false</activeaudioangle>
                    <clip id="clip-7"/>
                  </angle>
                  <angle>
                    <activevideoangle>false</activevideoangle>
                    <activeaudioangle>false</activeaudioangle>
                    <clip id="clip-8"/>
                  </angle>
                  <angle>
                    <activevideoangle>false</activevideoangle>
                    <activeaudioangle>false</activeaudioangle>
                    <clip id="clip-9"/>
                  </angle>
                  <masterclipid>clip-master</masterclipid>
                </multiclip>
              </clipitem>
              <clipitem id="cs-440">
                <duration>50</duration>
                <rate>
                  <ntsc>false</ntsc>
                  <timebase>25</timebase>
                </rate>
                <in>69532</in>
                <out>69581</out>
                <start>69532</start>
                <end>69581</end>
                <file id="src-2"/>
                <sourcetrack>
                  <mediatype>video</mediatype>
                  <trackindex>1</trackindex>
                </sourcetrack>
                <multiclip id="mcs-440">
                  <name>MCS-440</name>
                  <masterclipid>clip-master</masterclipid>
                  <collapsed>false</collapsed>
                  <angle>
                    <activevideoangle>false</activevideoangle>
                    <activeaudioangle>false</activeaudioangle>
                    <clip id="clip-1"/>
                  </angle>
                  <angle>
                    <activevideoangle>true</activevideoangle>
                    <activeaudioangle>true</activeaudioangle>
                    <clip id="clip-2"/>
                  </angle>
                  <angle>
                    <activevideoangle>false</activevideoangle>
                    <activeaudioangle>false</activeaudioangle>
                    <clip id="clip-3"/>
                  </angle>
                  <angle>
                    <activevideoangle>false</activevideoangle>
                    <activeaudioangle>false</activeaudioangle>
                    <clip id="clip-4"/>
                  </angle>
                  <angle>
                    <activevideoangle>false</activevideoangle>
                    <activeaudioangle>false</activeaudioangle>
                    <clip id="clip-5"/>
                  </angle>
                  <angle>
                    <activevideoangle>false</activevideoangle>
                    <activeaudioangle>false</activeaudioangle>
                    <clip id="clip-6"/>
                  </angle>
                  <angle>
                    <activevideoangle>false</activevideoangle>
                    <activeaudioangle>false</activeaudioangle>
                    <clip id="clip-7"/>
                  </angle>
                  <angle>
                    <activevideoangle>false</activevideoangle>
                    <activeaudioangle>false</activeaudioangle>
                    <clip id="clip-8"/>
                  </angle>
                  <angle>
                    <activevideoangle>false</activevideoangle>
                    <activeaudioangle>false</activeaudioangle>
                    <clip id="clip-9"/>
                  </angle>
                  <masterclipid>clip-master</masterclipid>
                </multiclip>
              </clipitem>
              <clipitem id="cs-441">
                <duration>74</duration>
                <rate>
                  <ntsc>false</ntsc>
                  <timebase>25</timebase>
                </rate>
                <in>69581</in>
                <out>69654</out>
                <start>69581</start>
                <end>69654</end>
                <file id="src-4"/>
                <sourcetrack>
                  <mediatype>video</mediatype>
                  <trackindex>1</trackindex>
                </sourcetrack>
                <multiclip id="mcs-441">
                  <name>MCS-441</name>
                  <masterclipid>clip-master</masterclipid>
                  <collapsed>false</collapsed>
                  <angle>
                    <activevideoangle>false</activevideoangle>
                    <activeaudioangle>false</activeaudioangle>
                    <clip id="clip-1"/>
                  </angle>
                  <angle>
                    <activevideoangle>false</activevideoangle>
                    <activeaudioangle>false</activeaudioangle>
                    <clip id="clip-2"/>
                  </angle>
                  <angle>
                    <activevideoangle>false</activevideoangle>
                    <activeaudioangle>false</activeaudioangle>
                    <clip id="clip-3"/>
                  </angle>
                  <angle>
                    <activevideoangle>true</activevideoangle>
                    <activeaudioangle>true</activeaudioangle>
                    <clip id="clip-4"/>
                  </angle>
                  <angle>
                    <activevideoangle>false</activevideoangle>
                    <activeaudioangle>false</activeaudioangle>
                    <clip id="clip-5"/>
                  </angle>
                  <angle>
                    <activevideoangle>false</activevideoangle>
                    <activeaudioangle>false</activeaudioangle>
                    <clip id="clip-6"/>
                  </angle>
                  <angle>
                    <activevideoangle>false</activevideoangle>
                    <activeaudioangle>false</activeaudioangle>
                    <clip id="clip-7"/>
                  </angle>
                  <angle>
                    <activevideoangle>false</activevideoangle>
                    <activeaudioangle>false</activeaudioangle>
                    <clip id="clip-8"/>
                  </angle>
                  <angle>
                    <activevideoangle>false</activevideoangle>
                    <activeaudioangle>false</activeaudioangle>
                    <clip id="clip-9"/>
                  </angle>
                  <masterclipid>clip-master</masterclipid>
                </multiclip>
              </clipitem>
              <clipitem id="cs-442">
                <duration>44</duration>
                <rate>
                  <ntsc>false</ntsc>
                  <timebase>25</timebase>
                </rate>
                <in>69654</in>
                <out>69697</out>
                <start>69654</start>
                <end>69697</end>
                <file id="src-6"/>
                <sourcetrack>
                  <mediatype>video</mediatype>
                  <trackindex>1</trackindex>
                </sourcetrack>
                <multiclip id="mcs-442">
                  <name>MCS-442</name>
                  <masterclipid>clip-master</masterclipid>
                  <collapsed>false</collapsed>
                  <angle>
                    <activevideoangle>false</activevideoangle>
                    <activeaudioangle>false</activeaudioangle>
                    <clip id="clip-1"/>
                  </angle>
                  <angle>
                    <activevideoangle>false</activevideoangle>
                    <activeaudioangle>false</activeaudioangle>
                    <clip id="clip-2"/>
                  </angle>
                  <angle>
                    <activevideoangle>false</activevideoangle>
                    <activeaudioangle>false</activeaudioangle>
                    <clip id="clip-3"/>
                  </angle>
                  <angle>
                    <activevideoangle>false</activevideoangle>
                    <activeaudioangle>false</activeaudioangle>
                    <clip id="clip-4"/>
                  </angle>
                  <angle>
                    <activevideoangle>false</activevideoangle>
                    <activeaudioangle>false</activeaudioangle>
                    <clip id="clip-5"/>
                  </angle>
                  <angle>
                    <activevideoangle>true</activevideoangle>
                    <activeaudioangle>true</activeaudioangle>
                    <clip id="clip-6"/>
                  </angle>
                  <angle>
                    <activevideoangle>false</activevideoangle>
                    <activeaudioangle>false</activeaudioangle>
                    <clip id="clip-7"/>
                  </angle>
                  <angle>
                    <activevideoangle>false</activevideoangle>
                    <activeaudioangle>false</activeaudioangle>
                    <clip id="clip-8"/>
                  </angle>
                  <angle>
                    <activevideoangle>false</activevideoangle>
                    <activeaudioangle>false</activeaudioangle>
                    <clip id="clip-9"/>
                  </angle>
                  <masterclipid>clip-master</masterclipid>
                </multiclip>
              </clipitem>
              <clipitem id="cs-443">
                <duration>49</duration>
                <rate>
                  <ntsc>false</ntsc>
                  <timebase>25</timebase>
                </rate>
                <in>69697</in>
                <out>69745</out>
                <start>69697</start>
                <end>69745</end>
                <file id="src-3"/>
                <sourcetrack>
                  <mediatype>video</mediatype>
                  <trackindex>1</trackindex>
                </sourcetrack>
                <multiclip id="mcs-443">
                  <name>MCS-443</name>
                  <masterclipid>clip-master</masterclipid>
                  <collapsed>false</collapsed>
                  <angle>
                    <activevideoangle>false</activevideoangle>
                    <activeaudioangle>false</activeaudioangle>
                    <clip id="clip-1"/>
                  </angle>
                  <angle>
                    <activevideoangle>false</activevideoangle>
                    <activeaudioangle>false</activeaudioangle>
                    <clip id="clip-2"/>
                  </angle>
                  <angle>
                    <activevideoangle>true</activevideoangle>
                    <activeaudioangle>true</activeaudioangle>
                    <clip id="clip-3"/>
                  </angle>
                  <angle>
                    <activevideoangle>false</activevideoangle>
                    <activeaudioangle>false</activeaudioangle>
                    <clip id="clip-4"/>
                  </angle>
                  <angle>
                    <activevideoangle>false</activevideoangle>
                    <activeaudioangle>false</activeaudioangle>
                    <clip id="clip-5"/>
                  </angle>
                  <angle>
                    <activevideoangle>false</activevideoangle>
                    <activeaudioangle>false</activeaudioangle>
                    <clip id="clip-6"/>
                  </angle>
                  <angle>
                    <activevideoangle>false</activevideoangle>
                    <activeaudioangle>false</activeaudioangle>
                    <clip id="clip-7"/>
                  </angle>
                  <angle>
                    <activevideoangle>false</activevideoangle>
                    <activeaudioangle>false</activeaudioangle>
                    <clip id="clip-8"/>
                  </angle>
                  <angle>
                    <activevideoangle>false</activevideoangle>
                    <activeaudioangle>false</activeaudioangle>
                    <clip id="clip-9"/>
                  </angle>
                  <masterclipid>clip-master</masterclipid>
                </multiclip>
              </clipitem>
              <clipitem id="cs-444">
                <duration>76</duration>
                <rate>
                  <ntsc>false</ntsc>
                  <timebase>25</timebase>
                </rate>
                <in>69745</in>
                <out>69820</out>
                <start>69745</start>
                <end>69820</end>
                <file id="src-2"/>
                <sourcetrack>
                  <mediatype>video</mediatype>
                  <trackindex>1</trackindex>
                </sourcetrack>
                <multiclip id="mcs-444">
                  <name>MCS-444</name>
                  <masterclipid>clip-master</masterclipid>
                  <collapsed>false</collapsed>
                  <angle>
                    <activevideoangle>false</activevideoangle>
                    <activeaudioangle>false</activeaudioangle>
                    <clip id="clip-1"/>
                  </angle>
                  <angle>
                    <activevideoangle>true</activevideoangle>
                    <activeaudioangle>true</activeaudioangle>
                    <clip id="clip-2"/>
                  </angle>
                  <angle>
                    <activevideoangle>false</activevideoangle>
                    <activeaudioangle>false</activeaudioangle>
                    <clip id="clip-3"/>
                  </angle>
                  <angle>
                    <activevideoangle>false</activevideoangle>
                    <activeaudioangle>false</activeaudioangle>
                    <clip id="clip-4"/>
                  </angle>
                  <angle>
                    <activevideoangle>false</activevideoangle>
                    <activeaudioangle>false</activeaudioangle>
                    <clip id="clip-5"/>
                  </angle>
                  <angle>
                    <activevideoangle>false</activevideoangle>
                    <activeaudioangle>false</activeaudioangle>
                    <clip id="clip-6"/>
                  </angle>
                  <angle>
                    <activevideoangle>false</activevideoangle>
                    <activeaudioangle>false</activeaudioangle>
                    <clip id="clip-7"/>
                  </angle>
                  <angle>
                    <activevideoangle>false</activevideoangle>
                    <activeaudioangle>false</activeaudioangle>
                    <clip id="clip-8"/>
                  </angle>
                  <angle>
                    <activevideoangle>false</activevideoangle>
                    <activeaudioangle>false</activeaudioangle>
                    <clip id="clip-9"/>
                  </angle>
                  <masterclipid>clip-master</masterclipid>
                </multiclip>
              </clipitem>
              <clipitem id="cs-445">
                <duration>133</duration>
                <rate>
                  <ntsc>false</ntsc>
                  <timebase>25</timebase>
                </rate>
                <in>69820</in>
                <out>69952</out>
                <start>69820</start>
                <end>69952</end>
                <file id="src-3"/>
                <sourcetrack>
                  <mediatype>video</mediatype>
                  <trackindex>1</trackindex>
                </sourcetrack>
                <multiclip id="mcs-445">
                  <name>MCS-445</name>
                  <masterclipid>clip-master</masterclipid>
                  <collapsed>false</collapsed>
                  <angle>
                    <activevideoangle>false</activevideoangle>
                    <activeaudioangle>false</activeaudioangle>
                    <clip id="clip-1"/>
                  </angle>
                  <angle>
                    <activevideoangle>false</activevideoangle>
                    <activeaudioangle>false</activeaudioangle>
                    <clip id="clip-2"/>
                  </angle>
                  <angle>
                    <activevideoangle>true</activevideoangle>
                    <activeaudioangle>true</activeaudioangle>
                    <clip id="clip-3"/>
                  </angle>
                  <angle>
                    <activevideoangle>false</activevideoangle>
                    <activeaudioangle>false</activeaudioangle>
                    <clip id="clip-4"/>
                  </angle>
                  <angle>
                    <activevideoangle>false</activevideoangle>
                    <activeaudioangle>false</activeaudioangle>
                    <clip id="clip-5"/>
                  </angle>
                  <angle>
                    <activevideoangle>false</activevideoangle>
                    <activeaudioangle>false</activeaudioangle>
                    <clip id="clip-6"/>
                  </angle>
                  <angle>
                    <activevideoangle>false</activevideoangle>
                    <activeaudioangle>false</activeaudioangle>
                    <clip id="clip-7"/>
                  </angle>
                  <angle>
                    <activevideoangle>false</activevideoangle>
                    <activeaudioangle>false</activeaudioangle>
                    <clip id="clip-8"/>
                  </angle>
                  <angle>
                    <activevideoangle>false</activevideoangle>
                    <activeaudioangle>false</activeaudioangle>
                    <clip id="clip-9"/>
                  </angle>
                  <masterclipid>clip-master</masterclipid>
                </multiclip>
              </clipitem>
              <clipitem id="cs-446">
                <duration>76</duration>
                <rate>
                  <ntsc>false</ntsc>
                  <timebase>25</timebase>
                </rate>
                <in>69952</in>
                <out>70027</out>
                <start>69952</start>
                <end>70027</end>
                <file id="src-6"/>
                <sourcetrack>
                  <mediatype>video</mediatype>
                  <trackindex>1</trackindex>
                </sourcetrack>
                <multiclip id="mcs-446">
                  <name>MCS-446</name>
                  <masterclipid>clip-master</masterclipid>
                  <collapsed>false</collapsed>
                  <angle>
                    <activevideoangle>false</activevideoangle>
                    <activeaudioangle>false</activeaudioangle>
                    <clip id="clip-1"/>
                  </angle>
                  <angle>
                    <activevideoangle>false</activevideoangle>
                    <activeaudioangle>false</activeaudioangle>
                    <clip id="clip-2"/>
                  </angle>
                  <angle>
                    <activevideoangle>false</activevideoangle>
                    <activeaudioangle>false</activeaudioangle>
                    <clip id="clip-3"/>
                  </angle>
                  <angle>
                    <activevideoangle>false</activevideoangle>
                    <activeaudioangle>false</activeaudioangle>
                    <clip id="clip-4"/>
                  </angle>
                  <angle>
                    <activevideoangle>false</activevideoangle>
                    <activeaudioangle>false</activeaudioangle>
                    <clip id="clip-5"/>
                  </angle>
                  <angle>
                    <activevideoangle>true</activevideoangle>
                    <activeaudioangle>true</activeaudioangle>
                    <clip id="clip-6"/>
                  </angle>
                  <angle>
                    <activevideoangle>false</activevideoangle>
                    <activeaudioangle>false</activeaudioangle>
                    <clip id="clip-7"/>
                  </angle>
                  <angle>
                    <activevideoangle>false</activevideoangle>
                    <activeaudioangle>false</activeaudioangle>
                    <clip id="clip-8"/>
                  </angle>
                  <angle>
                    <activevideoangle>false</activevideoangle>
                    <activeaudioangle>false</activeaudioangle>
                    <clip id="clip-9"/>
                  </angle>
                  <masterclipid>clip-master</masterclipid>
                </multiclip>
              </clipitem>
              <clipitem id="cs-447">
                <duration>47</duration>
                <rate>
                  <ntsc>false</ntsc>
                  <timebase>25</timebase>
                </rate>
                <in>70027</in>
                <out>70073</out>
                <start>70027</start>
                <end>70073</end>
                <file id="src-5"/>
                <sourcetrack>
                  <mediatype>video</mediatype>
                  <trackindex>1</trackindex>
                </sourcetrack>
                <multiclip id="mcs-447">
                  <name>MCS-447</name>
                  <masterclipid>clip-master</masterclipid>
                  <collapsed>false</collapsed>
                  <angle>
                    <activevideoangle>false</activevideoangle>
                    <activeaudioangle>false</activeaudioangle>
                    <clip id="clip-1"/>
                  </angle>
                  <angle>
                    <activevideoangle>false</activevideoangle>
                    <activeaudioangle>false</activeaudioangle>
                    <clip id="clip-2"/>
                  </angle>
                  <angle>
                    <activevideoangle>false</activevideoangle>
                    <activeaudioangle>false</activeaudioangle>
                    <clip id="clip-3"/>
                  </angle>
                  <angle>
                    <activevideoangle>false</activevideoangle>
                    <activeaudioangle>false</activeaudioangle>
                    <clip id="clip-4"/>
                  </angle>
                  <angle>
                    <activevideoangle>true</activevideoangle>
                    <activeaudioangle>true</activeaudioangle>
                    <clip id="clip-5"/>
                  </angle>
                  <angle>
                    <activevideoangle>false</activevideoangle>
                    <activeaudioangle>false</activeaudioangle>
                    <clip id="clip-6"/>
                  </angle>
                  <angle>
                    <activevideoangle>false</activevideoangle>
                    <activeaudioangle>false</activeaudioangle>
                    <clip id="clip-7"/>
                  </angle>
                  <angle>
                    <activevideoangle>false</activevideoangle>
                    <activeaudioangle>false</activeaudioangle>
                    <clip id="clip-8"/>
                  </angle>
                  <angle>
                    <activevideoangle>false</activevideoangle>
                    <activeaudioangle>false</activeaudioangle>
                    <clip id="clip-9"/>
                  </angle>
                  <masterclipid>clip-master</masterclipid>
                </multiclip>
              </clipitem>
              <clipitem id="cs-448">
                <duration>48</duration>
                <rate>
                  <ntsc>false</ntsc>
                  <timebase>25</timebase>
                </rate>
                <in>70073</in>
                <out>70120</out>
                <start>70073</start>
                <end>70120</end>
                <file id="src-4"/>
                <sourcetrack>
                  <mediatype>video</mediatype>
                  <trackindex>1</trackindex>
                </sourcetrack>
                <multiclip id="mcs-448">
                  <name>MCS-448</name>
                  <masterclipid>clip-master</masterclipid>
                  <collapsed>false</collapsed>
                  <angle>
                    <activevideoangle>false</activevideoangle>
                    <activeaudioangle>false</activeaudioangle>
                    <clip id="clip-1"/>
                  </angle>
                  <angle>
                    <activevideoangle>false</activevideoangle>
                    <activeaudioangle>false</activeaudioangle>
                    <clip id="clip-2"/>
                  </angle>
                  <angle>
                    <activevideoangle>false</activevideoangle>
                    <activeaudioangle>false</activeaudioangle>
                    <clip id="clip-3"/>
                  </angle>
                  <angle>
                    <activevideoangle>true</activevideoangle>
                    <activeaudioangle>true</activeaudioangle>
                    <clip id="clip-4"/>
                  </angle>
                  <angle>
                    <activevideoangle>false</activevideoangle>
                    <activeaudioangle>false</activeaudioangle>
                    <clip id="clip-5"/>
                  </angle>
                  <angle>
                    <activevideoangle>false</activevideoangle>
                    <activeaudioangle>false</activeaudioangle>
                    <clip id="clip-6"/>
                  </angle>
                  <angle>
                    <activevideoangle>false</activevideoangle>
                    <activeaudioangle>false</activeaudioangle>
                    <clip id="clip-7"/>
                  </angle>
                  <angle>
                    <activevideoangle>false</activevideoangle>
                    <activeaudioangle>false</activeaudioangle>
                    <clip id="clip-8"/>
                  </angle>
                  <angle>
                    <activevideoangle>false</activevideoangle>
                    <activeaudioangle>false</activeaudioangle>
                    <clip id="clip-9"/>
                  </angle>
                  <masterclipid>clip-master</masterclipid>
                </multiclip>
              </clipitem>
              <clipitem id="cs-449">
                <duration>100</duration>
                <rate>
                  <ntsc>false</ntsc>
                  <timebase>25</timebase>
                </rate>
                <in>70120</in>
                <out>70219</out>
                <start>70120</start>
                <end>70219</end>
                <file id="src-3"/>
                <sourcetrack>
                  <mediatype>video</mediatype>
                  <trackindex>1</trackindex>
                </sourcetrack>
                <multiclip id="mcs-449">
                  <name>MCS-449</name>
                  <masterclipid>clip-master</masterclipid>
                  <collapsed>false</collapsed>
                  <angle>
                    <activevideoangle>false</activevideoangle>
                    <activeaudioangle>false</activeaudioangle>
                    <clip id="clip-1"/>
                  </angle>
                  <angle>
                    <activevideoangle>false</activevideoangle>
                    <activeaudioangle>false</activeaudioangle>
                    <clip id="clip-2"/>
                  </angle>
                  <angle>
                    <activevideoangle>true</activevideoangle>
                    <activeaudioangle>true</activeaudioangle>
                    <clip id="clip-3"/>
                  </angle>
                  <angle>
                    <activevideoangle>false</activevideoangle>
                    <activeaudioangle>false</activeaudioangle>
                    <clip id="clip-4"/>
                  </angle>
                  <angle>
                    <activevideoangle>false</activevideoangle>
                    <activeaudioangle>false</activeaudioangle>
                    <clip id="clip-5"/>
                  </angle>
                  <angle>
                    <activevideoangle>false</activevideoangle>
                    <activeaudioangle>false</activeaudioangle>
                    <clip id="clip-6"/>
                  </angle>
                  <angle>
                    <activevideoangle>false</activevideoangle>
                    <activeaudioangle>false</activeaudioangle>
                    <clip id="clip-7"/>
                  </angle>
                  <angle>
                    <activevideoangle>false</activevideoangle>
                    <activeaudioangle>false</activeaudioangle>
                    <clip id="clip-8"/>
                  </angle>
                  <angle>
                    <activevideoangle>false</activevideoangle>
                    <activeaudioangle>false</activeaudioangle>
                    <clip id="clip-9"/>
                  </angle>
                  <masterclipid>clip-master</masterclipid>
                </multiclip>
              </clipitem>
              <clipitem id="cs-450">
                <duration>62</duration>
                <rate>
                  <ntsc>false</ntsc>
                  <timebase>25</timebase>
                </rate>
                <in>70219</in>
                <out>70280</out>
                <start>70219</start>
                <end>70280</end>
                <file id="src-2"/>
                <sourcetrack>
                  <mediatype>video</mediatype>
                  <trackindex>1</trackindex>
                </sourcetrack>
                <multiclip id="mcs-450">
                  <name>MCS-450</name>
                  <masterclipid>clip-master</masterclipid>
                  <collapsed>false</collapsed>
                  <angle>
                    <activevideoangle>false</activevideoangle>
                    <activeaudioangle>false</activeaudioangle>
                    <clip id="clip-1"/>
                  </angle>
                  <angle>
                    <activevideoangle>true</activevideoangle>
                    <activeaudioangle>true</activeaudioangle>
                    <clip id="clip-2"/>
                  </angle>
                  <angle>
                    <activevideoangle>false</activevideoangle>
                    <activeaudioangle>false</activeaudioangle>
                    <clip id="clip-3"/>
                  </angle>
                  <angle>
                    <activevideoangle>false</activevideoangle>
                    <activeaudioangle>false</activeaudioangle>
                    <clip id="clip-4"/>
                  </angle>
                  <angle>
                    <activevideoangle>false</activevideoangle>
                    <activeaudioangle>false</activeaudioangle>
                    <clip id="clip-5"/>
                  </angle>
                  <angle>
                    <activevideoangle>false</activevideoangle>
                    <activeaudioangle>false</activeaudioangle>
                    <clip id="clip-6"/>
                  </angle>
                  <angle>
                    <activevideoangle>false</activevideoangle>
                    <activeaudioangle>false</activeaudioangle>
                    <clip id="clip-7"/>
                  </angle>
                  <angle>
                    <activevideoangle>false</activevideoangle>
                    <activeaudioangle>false</activeaudioangle>
                    <clip id="clip-8"/>
                  </angle>
                  <angle>
                    <activevideoangle>false</activevideoangle>
                    <activeaudioangle>false</activeaudioangle>
                    <clip id="clip-9"/>
                  </angle>
                  <masterclipid>clip-master</masterclipid>
                </multiclip>
              </clipitem>
              <clipitem id="cs-451">
                <duration>159</duration>
                <rate>
                  <ntsc>false</ntsc>
                  <timebase>25</timebase>
                </rate>
                <in>70280</in>
                <out>70438</out>
                <start>70280</start>
                <end>70438</end>
                <file id="src-3"/>
                <sourcetrack>
                  <mediatype>video</mediatype>
                  <trackindex>1</trackindex>
                </sourcetrack>
                <multiclip id="mcs-451">
                  <name>MCS-451</name>
                  <masterclipid>clip-master</masterclipid>
                  <collapsed>false</collapsed>
                  <angle>
                    <activevideoangle>false</activevideoangle>
                    <activeaudioangle>false</activeaudioangle>
                    <clip id="clip-1"/>
                  </angle>
                  <angle>
                    <activevideoangle>false</activevideoangle>
                    <activeaudioangle>false</activeaudioangle>
                    <clip id="clip-2"/>
                  </angle>
                  <angle>
                    <activevideoangle>true</activevideoangle>
                    <activeaudioangle>true</activeaudioangle>
                    <clip id="clip-3"/>
                  </angle>
                  <angle>
                    <activevideoangle>false</activevideoangle>
                    <activeaudioangle>false</activeaudioangle>
                    <clip id="clip-4"/>
                  </angle>
                  <angle>
                    <activevideoangle>false</activevideoangle>
                    <activeaudioangle>false</activeaudioangle>
                    <clip id="clip-5"/>
                  </angle>
                  <angle>
                    <activevideoangle>false</activevideoangle>
                    <activeaudioangle>false</activeaudioangle>
                    <clip id="clip-6"/>
                  </angle>
                  <angle>
                    <activevideoangle>false</activevideoangle>
                    <activeaudioangle>false</activeaudioangle>
                    <clip id="clip-7"/>
                  </angle>
                  <angle>
                    <activevideoangle>false</activevideoangle>
                    <activeaudioangle>false</activeaudioangle>
                    <clip id="clip-8"/>
                  </angle>
                  <angle>
                    <activevideoangle>false</activevideoangle>
                    <activeaudioangle>false</activeaudioangle>
                    <clip id="clip-9"/>
                  </angle>
                  <masterclipid>clip-master</masterclipid>
                </multiclip>
              </clipitem>
              <clipitem id="cs-452">
                <duration>70</duration>
                <rate>
                  <ntsc>false</ntsc>
                  <timebase>25</timebase>
                </rate>
                <in>70438</in>
                <out>70507</out>
                <start>70438</start>
                <end>70507</end>
                <file id="src-6"/>
                <sourcetrack>
                  <mediatype>video</mediatype>
                  <trackindex>1</trackindex>
                </sourcetrack>
                <multiclip id="mcs-452">
                  <name>MCS-452</name>
                  <masterclipid>clip-master</masterclipid>
                  <collapsed>false</collapsed>
                  <angle>
                    <activevideoangle>false</activevideoangle>
                    <activeaudioangle>false</activeaudioangle>
                    <clip id="clip-1"/>
                  </angle>
                  <angle>
                    <activevideoangle>false</activevideoangle>
                    <activeaudioangle>false</activeaudioangle>
                    <clip id="clip-2"/>
                  </angle>
                  <angle>
                    <activevideoangle>false</activevideoangle>
                    <activeaudioangle>false</activeaudioangle>
                    <clip id="clip-3"/>
                  </angle>
                  <angle>
                    <activevideoangle>false</activevideoangle>
                    <activeaudioangle>false</activeaudioangle>
                    <clip id="clip-4"/>
                  </angle>
                  <angle>
                    <activevideoangle>false</activevideoangle>
                    <activeaudioangle>false</activeaudioangle>
                    <clip id="clip-5"/>
                  </angle>
                  <angle>
                    <activevideoangle>true</activevideoangle>
                    <activeaudioangle>true</activeaudioangle>
                    <clip id="clip-6"/>
                  </angle>
                  <angle>
                    <activevideoangle>false</activevideoangle>
                    <activeaudioangle>false</activeaudioangle>
                    <clip id="clip-7"/>
                  </angle>
                  <angle>
                    <activevideoangle>false</activevideoangle>
                    <activeaudioangle>false</activeaudioangle>
                    <clip id="clip-8"/>
                  </angle>
                  <angle>
                    <activevideoangle>false</activevideoangle>
                    <activeaudioangle>false</activeaudioangle>
                    <clip id="clip-9"/>
                  </angle>
                  <masterclipid>clip-master</masterclipid>
                </multiclip>
              </clipitem>
              <clipitem id="cs-453">
                <duration>20</duration>
                <rate>
                  <ntsc>false</ntsc>
                  <timebase>25</timebase>
                </rate>
                <in>70507</in>
                <out>70526</out>
                <start>70507</start>
                <end>70526</end>
                <file id="src-4"/>
                <sourcetrack>
                  <mediatype>video</mediatype>
                  <trackindex>1</trackindex>
                </sourcetrack>
                <multiclip id="mcs-453">
                  <name>MCS-453</name>
                  <masterclipid>clip-master</masterclipid>
                  <collapsed>false</collapsed>
                  <angle>
                    <activevideoangle>false</activevideoangle>
                    <activeaudioangle>false</activeaudioangle>
                    <clip id="clip-1"/>
                  </angle>
                  <angle>
                    <activevideoangle>false</activevideoangle>
                    <activeaudioangle>false</activeaudioangle>
                    <clip id="clip-2"/>
                  </angle>
                  <angle>
                    <activevideoangle>false</activevideoangle>
                    <activeaudioangle>false</activeaudioangle>
                    <clip id="clip-3"/>
                  </angle>
                  <angle>
                    <activevideoangle>true</activevideoangle>
                    <activeaudioangle>true</activeaudioangle>
                    <clip id="clip-4"/>
                  </angle>
                  <angle>
                    <activevideoangle>false</activevideoangle>
                    <activeaudioangle>false</activeaudioangle>
                    <clip id="clip-5"/>
                  </angle>
                  <angle>
                    <activevideoangle>false</activevideoangle>
                    <activeaudioangle>false</activeaudioangle>
                    <clip id="clip-6"/>
                  </angle>
                  <angle>
                    <activevideoangle>false</activevideoangle>
                    <activeaudioangle>false</activeaudioangle>
                    <clip id="clip-7"/>
                  </angle>
                  <angle>
                    <activevideoangle>false</activevideoangle>
                    <activeaudioangle>false</activeaudioangle>
                    <clip id="clip-8"/>
                  </angle>
                  <angle>
                    <activevideoangle>false</activevideoangle>
                    <activeaudioangle>false</activeaudioangle>
                    <clip id="clip-9"/>
                  </angle>
                  <masterclipid>clip-master</masterclipid>
                </multiclip>
              </clipitem>
              <clipitem id="cs-454">
                <duration>115</duration>
                <rate>
                  <ntsc>false</ntsc>
                  <timebase>25</timebase>
                </rate>
                <in>70526</in>
                <out>70640</out>
                <start>70526</start>
                <end>70640</end>
                <file id="src-1"/>
                <sourcetrack>
                  <mediatype>video</mediatype>
                  <trackindex>1</trackindex>
                </sourcetrack>
                <multiclip id="mcs-454">
                  <name>MCS-454</name>
                  <masterclipid>clip-master</masterclipid>
                  <collapsed>false</collapsed>
                  <angle>
                    <activevideoangle>true</activevideoangle>
                    <activeaudioangle>true</activeaudioangle>
                    <clip id="clip-1"/>
                  </angle>
                  <angle>
                    <activevideoangle>false</activevideoangle>
                    <activeaudioangle>false</activeaudioangle>
                    <clip id="clip-2"/>
                  </angle>
                  <angle>
                    <activevideoangle>false</activevideoangle>
                    <activeaudioangle>false</activeaudioangle>
                    <clip id="clip-3"/>
                  </angle>
                  <angle>
                    <activevideoangle>false</activevideoangle>
                    <activeaudioangle>false</activeaudioangle>
                    <clip id="clip-4"/>
                  </angle>
                  <angle>
                    <activevideoangle>false</activevideoangle>
                    <activeaudioangle>false</activeaudioangle>
                    <clip id="clip-5"/>
                  </angle>
                  <angle>
                    <activevideoangle>false</activevideoangle>
                    <activeaudioangle>false</activeaudioangle>
                    <clip id="clip-6"/>
                  </angle>
                  <angle>
                    <activevideoangle>false</activevideoangle>
                    <activeaudioangle>false</activeaudioangle>
                    <clip id="clip-7"/>
                  </angle>
                  <angle>
                    <activevideoangle>false</activevideoangle>
                    <activeaudioangle>false</activeaudioangle>
                    <clip id="clip-8"/>
                  </angle>
                  <angle>
                    <activevideoangle>false</activevideoangle>
                    <activeaudioangle>false</activeaudioangle>
                    <clip id="clip-9"/>
                  </angle>
                  <masterclipid>clip-master</masterclipid>
                </multiclip>
              </clipitem>
              <clipitem id="cs-455">
                <duration>50</duration>
                <rate>
                  <ntsc>false</ntsc>
                  <timebase>25</timebase>
                </rate>
                <in>70640</in>
                <out>70689</out>
                <start>70640</start>
                <end>70689</end>
                <file id="src-2"/>
                <sourcetrack>
                  <mediatype>video</mediatype>
                  <trackindex>1</trackindex>
                </sourcetrack>
                <multiclip id="mcs-455">
                  <name>MCS-455</name>
                  <masterclipid>clip-master</masterclipid>
                  <collapsed>false</collapsed>
                  <angle>
                    <activevideoangle>false</activevideoangle>
                    <activeaudioangle>false</activeaudioangle>
                    <clip id="clip-1"/>
                  </angle>
                  <angle>
                    <activevideoangle>true</activevideoangle>
                    <activeaudioangle>true</activeaudioangle>
                    <clip id="clip-2"/>
                  </angle>
                  <angle>
                    <activevideoangle>false</activevideoangle>
                    <activeaudioangle>false</activeaudioangle>
                    <clip id="clip-3"/>
                  </angle>
                  <angle>
                    <activevideoangle>false</activevideoangle>
                    <activeaudioangle>false</activeaudioangle>
                    <clip id="clip-4"/>
                  </angle>
                  <angle>
                    <activevideoangle>false</activevideoangle>
                    <activeaudioangle>false</activeaudioangle>
                    <clip id="clip-5"/>
                  </angle>
                  <angle>
                    <activevideoangle>false</activevideoangle>
                    <activeaudioangle>false</activeaudioangle>
                    <clip id="clip-6"/>
                  </angle>
                  <angle>
                    <activevideoangle>false</activevideoangle>
                    <activeaudioangle>false</activeaudioangle>
                    <clip id="clip-7"/>
                  </angle>
                  <angle>
                    <activevideoangle>false</activevideoangle>
                    <activeaudioangle>false</activeaudioangle>
                    <clip id="clip-8"/>
                  </angle>
                  <angle>
                    <activevideoangle>false</activevideoangle>
                    <activeaudioangle>false</activeaudioangle>
                    <clip id="clip-9"/>
                  </angle>
                  <masterclipid>clip-master</masterclipid>
                </multiclip>
              </clipitem>
              <clipitem id="cs-456">
                <duration>133</duration>
                <rate>
                  <ntsc>false</ntsc>
                  <timebase>25</timebase>
                </rate>
                <in>70689</in>
                <out>70821</out>
                <start>70689</start>
                <end>70821</end>
                <file id="src-3"/>
                <sourcetrack>
                  <mediatype>video</mediatype>
                  <trackindex>1</trackindex>
                </sourcetrack>
                <multiclip id="mcs-456">
                  <name>MCS-456</name>
                  <masterclipid>clip-master</masterclipid>
                  <collapsed>false</collapsed>
                  <angle>
                    <activevideoangle>false</activevideoangle>
                    <activeaudioangle>false</activeaudioangle>
                    <clip id="clip-1"/>
                  </angle>
                  <angle>
                    <activevideoangle>false</activevideoangle>
                    <activeaudioangle>false</activeaudioangle>
                    <clip id="clip-2"/>
                  </angle>
                  <angle>
                    <activevideoangle>true</activevideoangle>
                    <activeaudioangle>true</activeaudioangle>
                    <clip id="clip-3"/>
                  </angle>
                  <angle>
                    <activevideoangle>false</activevideoangle>
                    <activeaudioangle>false</activeaudioangle>
                    <clip id="clip-4"/>
                  </angle>
                  <angle>
                    <activevideoangle>false</activevideoangle>
                    <activeaudioangle>false</activeaudioangle>
                    <clip id="clip-5"/>
                  </angle>
                  <angle>
                    <activevideoangle>false</activevideoangle>
                    <activeaudioangle>false</activeaudioangle>
                    <clip id="clip-6"/>
                  </angle>
                  <angle>
                    <activevideoangle>false</activevideoangle>
                    <activeaudioangle>false</activeaudioangle>
                    <clip id="clip-7"/>
                  </angle>
                  <angle>
                    <activevideoangle>false</activevideoangle>
                    <activeaudioangle>false</activeaudioangle>
                    <clip id="clip-8"/>
                  </angle>
                  <angle>
                    <activevideoangle>false</activevideoangle>
                    <activeaudioangle>false</activeaudioangle>
                    <clip id="clip-9"/>
                  </angle>
                  <masterclipid>clip-master</masterclipid>
                </multiclip>
              </clipitem>
              <clipitem id="cs-457">
                <duration>84</duration>
                <rate>
                  <ntsc>false</ntsc>
                  <timebase>25</timebase>
                </rate>
                <in>70821</in>
                <out>70904</out>
                <start>70821</start>
                <end>70904</end>
                <file id="src-5"/>
                <sourcetrack>
                  <mediatype>video</mediatype>
                  <trackindex>1</trackindex>
                </sourcetrack>
                <multiclip id="mcs-457">
                  <name>MCS-457</name>
                  <masterclipid>clip-master</masterclipid>
                  <collapsed>false</collapsed>
                  <angle>
                    <activevideoangle>false</activevideoangle>
                    <activeaudioangle>false</activeaudioangle>
                    <clip id="clip-1"/>
                  </angle>
                  <angle>
                    <activevideoangle>false</activevideoangle>
                    <activeaudioangle>false</activeaudioangle>
                    <clip id="clip-2"/>
                  </angle>
                  <angle>
                    <activevideoangle>false</activevideoangle>
                    <activeaudioangle>false</activeaudioangle>
                    <clip id="clip-3"/>
                  </angle>
                  <angle>
                    <activevideoangle>false</activevideoangle>
                    <activeaudioangle>false</activeaudioangle>
                    <clip id="clip-4"/>
                  </angle>
                  <angle>
                    <activevideoangle>true</activevideoangle>
                    <activeaudioangle>true</activeaudioangle>
                    <clip id="clip-5"/>
                  </angle>
                  <angle>
                    <activevideoangle>false</activevideoangle>
                    <activeaudioangle>false</activeaudioangle>
                    <clip id="clip-6"/>
                  </angle>
                  <angle>
                    <activevideoangle>false</activevideoangle>
                    <activeaudioangle>false</activeaudioangle>
                    <clip id="clip-7"/>
                  </angle>
                  <angle>
                    <activevideoangle>false</activevideoangle>
                    <activeaudioangle>false</activeaudioangle>
                    <clip id="clip-8"/>
                  </angle>
                  <angle>
                    <activevideoangle>false</activevideoangle>
                    <activeaudioangle>false</activeaudioangle>
                    <clip id="clip-9"/>
                  </angle>
                  <masterclipid>clip-master</masterclipid>
                </multiclip>
              </clipitem>
              <clipitem id="cs-458">
                <duration>90</duration>
                <rate>
                  <ntsc>false</ntsc>
                  <timebase>25</timebase>
                </rate>
                <in>70904</in>
                <out>70993</out>
                <start>70904</start>
                <end>70993</end>
                <file id="src-3"/>
                <sourcetrack>
                  <mediatype>video</mediatype>
                  <trackindex>1</trackindex>
                </sourcetrack>
                <multiclip id="mcs-458">
                  <name>MCS-458</name>
                  <masterclipid>clip-master</masterclipid>
                  <collapsed>false</collapsed>
                  <angle>
                    <activevideoangle>false</activevideoangle>
                    <activeaudioangle>false</activeaudioangle>
                    <clip id="clip-1"/>
                  </angle>
                  <angle>
                    <activevideoangle>false</activevideoangle>
                    <activeaudioangle>false</activeaudioangle>
                    <clip id="clip-2"/>
                  </angle>
                  <angle>
                    <activevideoangle>true</activevideoangle>
                    <activeaudioangle>true</activeaudioangle>
                    <clip id="clip-3"/>
                  </angle>
                  <angle>
                    <activevideoangle>false</activevideoangle>
                    <activeaudioangle>false</activeaudioangle>
                    <clip id="clip-4"/>
                  </angle>
                  <angle>
                    <activevideoangle>false</activevideoangle>
                    <activeaudioangle>false</activeaudioangle>
                    <clip id="clip-5"/>
                  </angle>
                  <angle>
                    <activevideoangle>false</activevideoangle>
                    <activeaudioangle>false</activeaudioangle>
                    <clip id="clip-6"/>
                  </angle>
                  <angle>
                    <activevideoangle>false</activevideoangle>
                    <activeaudioangle>false</activeaudioangle>
                    <clip id="clip-7"/>
                  </angle>
                  <angle>
                    <activevideoangle>false</activevideoangle>
                    <activeaudioangle>false</activeaudioangle>
                    <clip id="clip-8"/>
                  </angle>
                  <angle>
                    <activevideoangle>false</activevideoangle>
                    <activeaudioangle>false</activeaudioangle>
                    <clip id="clip-9"/>
                  </angle>
                  <masterclipid>clip-master</masterclipid>
                </multiclip>
              </clipitem>
              <clipitem id="cs-459">
                <duration>122</duration>
                <rate>
                  <ntsc>false</ntsc>
                  <timebase>25</timebase>
                </rate>
                <in>70993</in>
                <out>71114</out>
                <start>70993</start>
                <end>71114</end>
                <file id="src-6"/>
                <sourcetrack>
                  <mediatype>video</mediatype>
                  <trackindex>1</trackindex>
                </sourcetrack>
                <multiclip id="mcs-459">
                  <name>MCS-459</name>
                  <masterclipid>clip-master</masterclipid>
                  <collapsed>false</collapsed>
                  <angle>
                    <activevideoangle>false</activevideoangle>
                    <activeaudioangle>false</activeaudioangle>
                    <clip id="clip-1"/>
                  </angle>
                  <angle>
                    <activevideoangle>false</activevideoangle>
                    <activeaudioangle>false</activeaudioangle>
                    <clip id="clip-2"/>
                  </angle>
                  <angle>
                    <activevideoangle>false</activevideoangle>
                    <activeaudioangle>false</activeaudioangle>
                    <clip id="clip-3"/>
                  </angle>
                  <angle>
                    <activevideoangle>false</activevideoangle>
                    <activeaudioangle>false</activeaudioangle>
                    <clip id="clip-4"/>
                  </angle>
                  <angle>
                    <activevideoangle>false</activevideoangle>
                    <activeaudioangle>false</activeaudioangle>
                    <clip id="clip-5"/>
                  </angle>
                  <angle>
                    <activevideoangle>true</activevideoangle>
                    <activeaudioangle>true</activeaudioangle>
                    <clip id="clip-6"/>
                  </angle>
                  <angle>
                    <activevideoangle>false</activevideoangle>
                    <activeaudioangle>false</activeaudioangle>
                    <clip id="clip-7"/>
                  </angle>
                  <angle>
                    <activevideoangle>false</activevideoangle>
                    <activeaudioangle>false</activeaudioangle>
                    <clip id="clip-8"/>
                  </angle>
                  <angle>
                    <activevideoangle>false</activevideoangle>
                    <activeaudioangle>false</activeaudioangle>
                    <clip id="clip-9"/>
                  </angle>
                  <masterclipid>clip-master</masterclipid>
                </multiclip>
              </clipitem>
              <clipitem id="cs-460">
                <duration>83</duration>
                <rate>
                  <ntsc>false</ntsc>
                  <timebase>25</timebase>
                </rate>
                <in>71114</in>
                <out>71196</out>
                <start>71114</start>
                <end>71196</end>
                <file id="src-3"/>
                <sourcetrack>
                  <mediatype>video</mediatype>
                  <trackindex>1</trackindex>
                </sourcetrack>
                <multiclip id="mcs-460">
                  <name>MCS-460</name>
                  <masterclipid>clip-master</masterclipid>
                  <collapsed>false</collapsed>
                  <angle>
                    <activevideoangle>false</activevideoangle>
                    <activeaudioangle>false</activeaudioangle>
                    <clip id="clip-1"/>
                  </angle>
                  <angle>
                    <activevideoangle>false</activevideoangle>
                    <activeaudioangle>false</activeaudioangle>
                    <clip id="clip-2"/>
                  </angle>
                  <angle>
                    <activevideoangle>true</activevideoangle>
                    <activeaudioangle>true</activeaudioangle>
                    <clip id="clip-3"/>
                  </angle>
                  <angle>
                    <activevideoangle>false</activevideoangle>
                    <activeaudioangle>false</activeaudioangle>
                    <clip id="clip-4"/>
                  </angle>
                  <angle>
                    <activevideoangle>false</activevideoangle>
                    <activeaudioangle>false</activeaudioangle>
                    <clip id="clip-5"/>
                  </angle>
                  <angle>
                    <activevideoangle>false</activevideoangle>
                    <activeaudioangle>false</activeaudioangle>
                    <clip id="clip-6"/>
                  </angle>
                  <angle>
                    <activevideoangle>false</activevideoangle>
                    <activeaudioangle>false</activeaudioangle>
                    <clip id="clip-7"/>
                  </angle>
                  <angle>
                    <activevideoangle>false</activevideoangle>
                    <activeaudioangle>false</activeaudioangle>
                    <clip id="clip-8"/>
                  </angle>
                  <angle>
                    <activevideoangle>false</activevideoangle>
                    <activeaudioangle>false</activeaudioangle>
                    <clip id="clip-9"/>
                  </angle>
                  <masterclipid>clip-master</masterclipid>
                </multiclip>
              </clipitem>
              <clipitem id="cs-461">
                <duration>101</duration>
                <rate>
                  <ntsc>false</ntsc>
                  <timebase>25</timebase>
                </rate>
                <in>71196</in>
                <out>71296</out>
                <start>71196</start>
                <end>71296</end>
                <file id="src-5"/>
                <sourcetrack>
                  <mediatype>video</mediatype>
                  <trackindex>1</trackindex>
                </sourcetrack>
                <multiclip id="mcs-461">
                  <name>MCS-461</name>
                  <masterclipid>clip-master</masterclipid>
                  <collapsed>false</collapsed>
                  <angle>
                    <activevideoangle>false</activevideoangle>
                    <activeaudioangle>false</activeaudioangle>
                    <clip id="clip-1"/>
                  </angle>
                  <angle>
                    <activevideoangle>false</activevideoangle>
                    <activeaudioangle>false</activeaudioangle>
                    <clip id="clip-2"/>
                  </angle>
                  <angle>
                    <activevideoangle>false</activevideoangle>
                    <activeaudioangle>false</activeaudioangle>
                    <clip id="clip-3"/>
                  </angle>
                  <angle>
                    <activevideoangle>false</activevideoangle>
                    <activeaudioangle>false</activeaudioangle>
                    <clip id="clip-4"/>
                  </angle>
                  <angle>
                    <activevideoangle>true</activevideoangle>
                    <activeaudioangle>true</activeaudioangle>
                    <clip id="clip-5"/>
                  </angle>
                  <angle>
                    <activevideoangle>false</activevideoangle>
                    <activeaudioangle>false</activeaudioangle>
                    <clip id="clip-6"/>
                  </angle>
                  <angle>
                    <activevideoangle>false</activevideoangle>
                    <activeaudioangle>false</activeaudioangle>
                    <clip id="clip-7"/>
                  </angle>
                  <angle>
                    <activevideoangle>false</activevideoangle>
                    <activeaudioangle>false</activeaudioangle>
                    <clip id="clip-8"/>
                  </angle>
                  <angle>
                    <activevideoangle>false</activevideoangle>
                    <activeaudioangle>false</activeaudioangle>
                    <clip id="clip-9"/>
                  </angle>
                  <masterclipid>clip-master</masterclipid>
                </multiclip>
              </clipitem>
              <clipitem id="cs-462">
                <duration>58</duration>
                <rate>
                  <ntsc>false</ntsc>
                  <timebase>25</timebase>
                </rate>
                <in>71296</in>
                <out>71353</out>
                <start>71296</start>
                <end>71353</end>
                <file id="src-2"/>
                <sourcetrack>
                  <mediatype>video</mediatype>
                  <trackindex>1</trackindex>
                </sourcetrack>
                <multiclip id="mcs-462">
                  <name>MCS-462</name>
                  <masterclipid>clip-master</masterclipid>
                  <collapsed>false</collapsed>
                  <angle>
                    <activevideoangle>false</activevideoangle>
                    <activeaudioangle>false</activeaudioangle>
                    <clip id="clip-1"/>
                  </angle>
                  <angle>
                    <activevideoangle>true</activevideoangle>
                    <activeaudioangle>true</activeaudioangle>
                    <clip id="clip-2"/>
                  </angle>
                  <angle>
                    <activevideoangle>false</activevideoangle>
                    <activeaudioangle>false</activeaudioangle>
                    <clip id="clip-3"/>
                  </angle>
                  <angle>
                    <activevideoangle>false</activevideoangle>
                    <activeaudioangle>false</activeaudioangle>
                    <clip id="clip-4"/>
                  </angle>
                  <angle>
                    <activevideoangle>false</activevideoangle>
                    <activeaudioangle>false</activeaudioangle>
                    <clip id="clip-5"/>
                  </angle>
                  <angle>
                    <activevideoangle>false</activevideoangle>
                    <activeaudioangle>false</activeaudioangle>
                    <clip id="clip-6"/>
                  </angle>
                  <angle>
                    <activevideoangle>false</activevideoangle>
                    <activeaudioangle>false</activeaudioangle>
                    <clip id="clip-7"/>
                  </angle>
                  <angle>
                    <activevideoangle>false</activevideoangle>
                    <activeaudioangle>false</activeaudioangle>
                    <clip id="clip-8"/>
                  </angle>
                  <angle>
                    <activevideoangle>false</activevideoangle>
                    <activeaudioangle>false</activeaudioangle>
                    <clip id="clip-9"/>
                  </angle>
                  <masterclipid>clip-master</masterclipid>
                </multiclip>
              </clipitem>
              <clipitem id="cs-463">
                <duration>124</duration>
                <rate>
                  <ntsc>false</ntsc>
                  <timebase>25</timebase>
                </rate>
                <in>71353</in>
                <out>71476</out>
                <start>71353</start>
                <end>71476</end>
                <file id="src-3"/>
                <sourcetrack>
                  <mediatype>video</mediatype>
                  <trackindex>1</trackindex>
                </sourcetrack>
                <multiclip id="mcs-463">
                  <name>MCS-463</name>
                  <masterclipid>clip-master</masterclipid>
                  <collapsed>false</collapsed>
                  <angle>
                    <activevideoangle>false</activevideoangle>
                    <activeaudioangle>false</activeaudioangle>
                    <clip id="clip-1"/>
                  </angle>
                  <angle>
                    <activevideoangle>false</activevideoangle>
                    <activeaudioangle>false</activeaudioangle>
                    <clip id="clip-2"/>
                  </angle>
                  <angle>
                    <activevideoangle>true</activevideoangle>
                    <activeaudioangle>true</activeaudioangle>
                    <clip id="clip-3"/>
                  </angle>
                  <angle>
                    <activevideoangle>false</activevideoangle>
                    <activeaudioangle>false</activeaudioangle>
                    <clip id="clip-4"/>
                  </angle>
                  <angle>
                    <activevideoangle>false</activevideoangle>
                    <activeaudioangle>false</activeaudioangle>
                    <clip id="clip-5"/>
                  </angle>
                  <angle>
                    <activevideoangle>false</activevideoangle>
                    <activeaudioangle>false</activeaudioangle>
                    <clip id="clip-6"/>
                  </angle>
                  <angle>
                    <activevideoangle>false</activevideoangle>
                    <activeaudioangle>false</activeaudioangle>
                    <clip id="clip-7"/>
                  </angle>
                  <angle>
                    <activevideoangle>false</activevideoangle>
                    <activeaudioangle>false</activeaudioangle>
                    <clip id="clip-8"/>
                  </angle>
                  <angle>
                    <activevideoangle>false</activevideoangle>
                    <activeaudioangle>false</activeaudioangle>
                    <clip id="clip-9"/>
                  </angle>
                  <masterclipid>clip-master</masterclipid>
                </multiclip>
              </clipitem>
              <clipitem id="cs-464">
                <duration>85</duration>
                <rate>
                  <ntsc>false</ntsc>
                  <timebase>25</timebase>
                </rate>
                <in>71476</in>
                <out>71560</out>
                <start>71476</start>
                <end>71560</end>
                <file id="src-6"/>
                <sourcetrack>
                  <mediatype>video</mediatype>
                  <trackindex>1</trackindex>
                </sourcetrack>
                <multiclip id="mcs-464">
                  <name>MCS-464</name>
                  <masterclipid>clip-master</masterclipid>
                  <collapsed>false</collapsed>
                  <angle>
                    <activevideoangle>false</activevideoangle>
                    <activeaudioangle>false</activeaudioangle>
                    <clip id="clip-1"/>
                  </angle>
                  <angle>
                    <activevideoangle>false</activevideoangle>
                    <activeaudioangle>false</activeaudioangle>
                    <clip id="clip-2"/>
                  </angle>
                  <angle>
                    <activevideoangle>false</activevideoangle>
                    <activeaudioangle>false</activeaudioangle>
                    <clip id="clip-3"/>
                  </angle>
                  <angle>
                    <activevideoangle>false</activevideoangle>
                    <activeaudioangle>false</activeaudioangle>
                    <clip id="clip-4"/>
                  </angle>
                  <angle>
                    <activevideoangle>false</activevideoangle>
                    <activeaudioangle>false</activeaudioangle>
                    <clip id="clip-5"/>
                  </angle>
                  <angle>
                    <activevideoangle>true</activevideoangle>
                    <activeaudioangle>true</activeaudioangle>
                    <clip id="clip-6"/>
                  </angle>
                  <angle>
                    <activevideoangle>false</activevideoangle>
                    <activeaudioangle>false</activeaudioangle>
                    <clip id="clip-7"/>
                  </angle>
                  <angle>
                    <activevideoangle>false</activevideoangle>
                    <activeaudioangle>false</activeaudioangle>
                    <clip id="clip-8"/>
                  </angle>
                  <angle>
                    <activevideoangle>false</activevideoangle>
                    <activeaudioangle>false</activeaudioangle>
                    <clip id="clip-9"/>
                  </angle>
                  <masterclipid>clip-master</masterclipid>
                </multiclip>
              </clipitem>
              <clipitem id="cs-465">
                <duration>122</duration>
                <rate>
                  <ntsc>false</ntsc>
                  <timebase>25</timebase>
                </rate>
                <in>71560</in>
                <out>71681</out>
                <start>71560</start>
                <end>71681</end>
                <file id="src-3"/>
                <sourcetrack>
                  <mediatype>video</mediatype>
                  <trackindex>1</trackindex>
                </sourcetrack>
                <multiclip id="mcs-465">
                  <name>MCS-465</name>
                  <masterclipid>clip-master</masterclipid>
                  <collapsed>false</collapsed>
                  <angle>
                    <activevideoangle>false</activevideoangle>
                    <activeaudioangle>false</activeaudioangle>
                    <clip id="clip-1"/>
                  </angle>
                  <angle>
                    <activevideoangle>false</activevideoangle>
                    <activeaudioangle>false</activeaudioangle>
                    <clip id="clip-2"/>
                  </angle>
                  <angle>
                    <activevideoangle>true</activevideoangle>
                    <activeaudioangle>true</activeaudioangle>
                    <clip id="clip-3"/>
                  </angle>
                  <angle>
                    <activevideoangle>false</activevideoangle>
                    <activeaudioangle>false</activeaudioangle>
                    <clip id="clip-4"/>
                  </angle>
                  <angle>
                    <activevideoangle>false</activevideoangle>
                    <activeaudioangle>false</activeaudioangle>
                    <clip id="clip-5"/>
                  </angle>
                  <angle>
                    <activevideoangle>false</activevideoangle>
                    <activeaudioangle>false</activeaudioangle>
                    <clip id="clip-6"/>
                  </angle>
                  <angle>
                    <activevideoangle>false</activevideoangle>
                    <activeaudioangle>false</activeaudioangle>
                    <clip id="clip-7"/>
                  </angle>
                  <angle>
                    <activevideoangle>false</activevideoangle>
                    <activeaudioangle>false</activeaudioangle>
                    <clip id="clip-8"/>
                  </angle>
                  <angle>
                    <activevideoangle>false</activevideoangle>
                    <activeaudioangle>false</activeaudioangle>
                    <clip id="clip-9"/>
                  </angle>
                  <masterclipid>clip-master</masterclipid>
                </multiclip>
              </clipitem>
              <clipitem id="cs-466">
                <duration>34</duration>
                <rate>
                  <ntsc>false</ntsc>
                  <timebase>25</timebase>
                </rate>
                <in>71681</in>
                <out>71714</out>
                <start>71681</start>
                <end>71714</end>
                <file id="src-2"/>
                <sourcetrack>
                  <mediatype>video</mediatype>
                  <trackindex>1</trackindex>
                </sourcetrack>
                <multiclip id="mcs-466">
                  <name>MCS-466</name>
                  <masterclipid>clip-master</masterclipid>
                  <collapsed>false</collapsed>
                  <angle>
                    <activevideoangle>false</activevideoangle>
                    <activeaudioangle>false</activeaudioangle>
                    <clip id="clip-1"/>
                  </angle>
                  <angle>
                    <activevideoangle>true</activevideoangle>
                    <activeaudioangle>true</activeaudioangle>
                    <clip id="clip-2"/>
                  </angle>
                  <angle>
                    <activevideoangle>false</activevideoangle>
                    <activeaudioangle>false</activeaudioangle>
                    <clip id="clip-3"/>
                  </angle>
                  <angle>
                    <activevideoangle>false</activevideoangle>
                    <activeaudioangle>false</activeaudioangle>
                    <clip id="clip-4"/>
                  </angle>
                  <angle>
                    <activevideoangle>false</activevideoangle>
                    <activeaudioangle>false</activeaudioangle>
                    <clip id="clip-5"/>
                  </angle>
                  <angle>
                    <activevideoangle>false</activevideoangle>
                    <activeaudioangle>false</activeaudioangle>
                    <clip id="clip-6"/>
                  </angle>
                  <angle>
                    <activevideoangle>false</activevideoangle>
                    <activeaudioangle>false</activeaudioangle>
                    <clip id="clip-7"/>
                  </angle>
                  <angle>
                    <activevideoangle>false</activevideoangle>
                    <activeaudioangle>false</activeaudioangle>
                    <clip id="clip-8"/>
                  </angle>
                  <angle>
                    <activevideoangle>false</activevideoangle>
                    <activeaudioangle>false</activeaudioangle>
                    <clip id="clip-9"/>
                  </angle>
                  <masterclipid>clip-master</masterclipid>
                </multiclip>
              </clipitem>
              <clipitem id="cs-467">
                <duration>70</duration>
                <rate>
                  <ntsc>false</ntsc>
                  <timebase>25</timebase>
                </rate>
                <in>71714</in>
                <out>71783</out>
                <start>71714</start>
                <end>71783</end>
                <file id="src-4"/>
                <sourcetrack>
                  <mediatype>video</mediatype>
                  <trackindex>1</trackindex>
                </sourcetrack>
                <multiclip id="mcs-467">
                  <name>MCS-467</name>
                  <masterclipid>clip-master</masterclipid>
                  <collapsed>false</collapsed>
                  <angle>
                    <activevideoangle>false</activevideoangle>
                    <activeaudioangle>false</activeaudioangle>
                    <clip id="clip-1"/>
                  </angle>
                  <angle>
                    <activevideoangle>false</activevideoangle>
                    <activeaudioangle>false</activeaudioangle>
                    <clip id="clip-2"/>
                  </angle>
                  <angle>
                    <activevideoangle>false</activevideoangle>
                    <activeaudioangle>false</activeaudioangle>
                    <clip id="clip-3"/>
                  </angle>
                  <angle>
                    <activevideoangle>true</activevideoangle>
                    <activeaudioangle>true</activeaudioangle>
                    <clip id="clip-4"/>
                  </angle>
                  <angle>
                    <activevideoangle>false</activevideoangle>
                    <activeaudioangle>false</activeaudioangle>
                    <clip id="clip-5"/>
                  </angle>
                  <angle>
                    <activevideoangle>false</activevideoangle>
                    <activeaudioangle>false</activeaudioangle>
                    <clip id="clip-6"/>
                  </angle>
                  <angle>
                    <activevideoangle>false</activevideoangle>
                    <activeaudioangle>false</activeaudioangle>
                    <clip id="clip-7"/>
                  </angle>
                  <angle>
                    <activevideoangle>false</activevideoangle>
                    <activeaudioangle>false</activeaudioangle>
                    <clip id="clip-8"/>
                  </angle>
                  <angle>
                    <activevideoangle>false</activevideoangle>
                    <activeaudioangle>false</activeaudioangle>
                    <clip id="clip-9"/>
                  </angle>
                  <masterclipid>clip-master</masterclipid>
                </multiclip>
              </clipitem>
              <clipitem id="cs-468">
                <duration>59</duration>
                <rate>
                  <ntsc>false</ntsc>
                  <timebase>25</timebase>
                </rate>
                <in>71783</in>
                <out>71841</out>
                <start>71783</start>
                <end>71841</end>
                <file id="src-3"/>
                <sourcetrack>
                  <mediatype>video</mediatype>
                  <trackindex>1</trackindex>
                </sourcetrack>
                <multiclip id="mcs-468">
                  <name>MCS-468</name>
                  <masterclipid>clip-master</masterclipid>
                  <collapsed>false</collapsed>
                  <angle>
                    <activevideoangle>false</activevideoangle>
                    <activeaudioangle>false</activeaudioangle>
                    <clip id="clip-1"/>
                  </angle>
                  <angle>
                    <activevideoangle>false</activevideoangle>
                    <activeaudioangle>false</activeaudioangle>
                    <clip id="clip-2"/>
                  </angle>
                  <angle>
                    <activevideoangle>true</activevideoangle>
                    <activeaudioangle>true</activeaudioangle>
                    <clip id="clip-3"/>
                  </angle>
                  <angle>
                    <activevideoangle>false</activevideoangle>
                    <activeaudioangle>false</activeaudioangle>
                    <clip id="clip-4"/>
                  </angle>
                  <angle>
                    <activevideoangle>false</activevideoangle>
                    <activeaudioangle>false</activeaudioangle>
                    <clip id="clip-5"/>
                  </angle>
                  <angle>
                    <activevideoangle>false</activevideoangle>
                    <activeaudioangle>false</activeaudioangle>
                    <clip id="clip-6"/>
                  </angle>
                  <angle>
                    <activevideoangle>false</activevideoangle>
                    <activeaudioangle>false</activeaudioangle>
                    <clip id="clip-7"/>
                  </angle>
                  <angle>
                    <activevideoangle>false</activevideoangle>
                    <activeaudioangle>false</activeaudioangle>
                    <clip id="clip-8"/>
                  </angle>
                  <angle>
                    <activevideoangle>false</activevideoangle>
                    <activeaudioangle>false</activeaudioangle>
                    <clip id="clip-9"/>
                  </angle>
                  <masterclipid>clip-master</masterclipid>
                </multiclip>
              </clipitem>
              <clipitem id="cs-469">
                <duration>70</duration>
                <rate>
                  <ntsc>false</ntsc>
                  <timebase>25</timebase>
                </rate>
                <in>71841</in>
                <out>71910</out>
                <start>71841</start>
                <end>71910</end>
                <file id="src-6"/>
                <sourcetrack>
                  <mediatype>video</mediatype>
                  <trackindex>1</trackindex>
                </sourcetrack>
                <multiclip id="mcs-469">
                  <name>MCS-469</name>
                  <masterclipid>clip-master</masterclipid>
                  <collapsed>false</collapsed>
                  <angle>
                    <activevideoangle>false</activevideoangle>
                    <activeaudioangle>false</activeaudioangle>
                    <clip id="clip-1"/>
                  </angle>
                  <angle>
                    <activevideoangle>false</activevideoangle>
                    <activeaudioangle>false</activeaudioangle>
                    <clip id="clip-2"/>
                  </angle>
                  <angle>
                    <activevideoangle>false</activevideoangle>
                    <activeaudioangle>false</activeaudioangle>
                    <clip id="clip-3"/>
                  </angle>
                  <angle>
                    <activevideoangle>false</activevideoangle>
                    <activeaudioangle>false</activeaudioangle>
                    <clip id="clip-4"/>
                  </angle>
                  <angle>
                    <activevideoangle>false</activevideoangle>
                    <activeaudioangle>false</activeaudioangle>
                    <clip id="clip-5"/>
                  </angle>
                  <angle>
                    <activevideoangle>true</activevideoangle>
                    <activeaudioangle>true</activeaudioangle>
                    <clip id="clip-6"/>
                  </angle>
                  <angle>
                    <activevideoangle>false</activevideoangle>
                    <activeaudioangle>false</activeaudioangle>
                    <clip id="clip-7"/>
                  </angle>
                  <angle>
                    <activevideoangle>false</activevideoangle>
                    <activeaudioangle>false</activeaudioangle>
                    <clip id="clip-8"/>
                  </angle>
                  <angle>
                    <activevideoangle>false</activevideoangle>
                    <activeaudioangle>false</activeaudioangle>
                    <clip id="clip-9"/>
                  </angle>
                  <masterclipid>clip-master</masterclipid>
                </multiclip>
              </clipitem>
              <clipitem id="cs-470">
                <duration>91</duration>
                <rate>
                  <ntsc>false</ntsc>
                  <timebase>25</timebase>
                </rate>
                <in>71910</in>
                <out>72000</out>
                <start>71910</start>
                <end>72000</end>
                <file id="src-2"/>
                <sourcetrack>
                  <mediatype>video</mediatype>
                  <trackindex>1</trackindex>
                </sourcetrack>
                <multiclip id="mcs-470">
                  <name>MCS-470</name>
                  <masterclipid>clip-master</masterclipid>
                  <collapsed>false</collapsed>
                  <angle>
                    <activevideoangle>false</activevideoangle>
                    <activeaudioangle>false</activeaudioangle>
                    <clip id="clip-1"/>
                  </angle>
                  <angle>
                    <activevideoangle>true</activevideoangle>
                    <activeaudioangle>true</activeaudioangle>
                    <clip id="clip-2"/>
                  </angle>
                  <angle>
                    <activevideoangle>false</activevideoangle>
                    <activeaudioangle>false</activeaudioangle>
                    <clip id="clip-3"/>
                  </angle>
                  <angle>
                    <activevideoangle>false</activevideoangle>
                    <activeaudioangle>false</activeaudioangle>
                    <clip id="clip-4"/>
                  </angle>
                  <angle>
                    <activevideoangle>false</activevideoangle>
                    <activeaudioangle>false</activeaudioangle>
                    <clip id="clip-5"/>
                  </angle>
                  <angle>
                    <activevideoangle>false</activevideoangle>
                    <activeaudioangle>false</activeaudioangle>
                    <clip id="clip-6"/>
                  </angle>
                  <angle>
                    <activevideoangle>false</activevideoangle>
                    <activeaudioangle>false</activeaudioangle>
                    <clip id="clip-7"/>
                  </angle>
                  <angle>
                    <activevideoangle>false</activevideoangle>
                    <activeaudioangle>false</activeaudioangle>
                    <clip id="clip-8"/>
                  </angle>
                  <angle>
                    <activevideoangle>false</activevideoangle>
                    <activeaudioangle>false</activeaudioangle>
                    <clip id="clip-9"/>
                  </angle>
                  <masterclipid>clip-master</masterclipid>
                </multiclip>
              </clipitem>
              <clipitem id="cs-471">
                <duration>76</duration>
                <rate>
                  <ntsc>false</ntsc>
                  <timebase>25</timebase>
                </rate>
                <in>72000</in>
                <out>72075</out>
                <start>72000</start>
                <end>72075</end>
                <file id="src-7"/>
                <sourcetrack>
                  <mediatype>video</mediatype>
                  <trackindex>1</trackindex>
                </sourcetrack>
                <multiclip id="mcs-471">
                  <name>MCS-471</name>
                  <masterclipid>clip-master</masterclipid>
                  <collapsed>false</collapsed>
                  <angle>
                    <activevideoangle>false</activevideoangle>
                    <activeaudioangle>false</activeaudioangle>
                    <clip id="clip-1"/>
                  </angle>
                  <angle>
                    <activevideoangle>false</activevideoangle>
                    <activeaudioangle>false</activeaudioangle>
                    <clip id="clip-2"/>
                  </angle>
                  <angle>
                    <activevideoangle>false</activevideoangle>
                    <activeaudioangle>false</activeaudioangle>
                    <clip id="clip-3"/>
                  </angle>
                  <angle>
                    <activevideoangle>false</activevideoangle>
                    <activeaudioangle>false</activeaudioangle>
                    <clip id="clip-4"/>
                  </angle>
                  <angle>
                    <activevideoangle>false</activevideoangle>
                    <activeaudioangle>false</activeaudioangle>
                    <clip id="clip-5"/>
                  </angle>
                  <angle>
                    <activevideoangle>false</activevideoangle>
                    <activeaudioangle>false</activeaudioangle>
                    <clip id="clip-6"/>
                  </angle>
                  <angle>
                    <activevideoangle>true</activevideoangle>
                    <activeaudioangle>true</activeaudioangle>
                    <clip id="clip-7"/>
                  </angle>
                  <angle>
                    <activevideoangle>false</activevideoangle>
                    <activeaudioangle>false</activeaudioangle>
                    <clip id="clip-8"/>
                  </angle>
                  <angle>
                    <activevideoangle>false</activevideoangle>
                    <activeaudioangle>false</activeaudioangle>
                    <clip id="clip-9"/>
                  </angle>
                  <masterclipid>clip-master</masterclipid>
                </multiclip>
              </clipitem>
              <clipitem id="cs-472">
                <duration>118</duration>
                <rate>
                  <ntsc>false</ntsc>
                  <timebase>25</timebase>
                </rate>
                <in>72075</in>
                <out>72192</out>
                <start>72075</start>
                <end>72192</end>
                <file id="src-2"/>
                <sourcetrack>
                  <mediatype>video</mediatype>
                  <trackindex>1</trackindex>
                </sourcetrack>
                <multiclip id="mcs-472">
                  <name>MCS-472</name>
                  <masterclipid>clip-master</masterclipid>
                  <collapsed>false</collapsed>
                  <angle>
                    <activevideoangle>false</activevideoangle>
                    <activeaudioangle>false</activeaudioangle>
                    <clip id="clip-1"/>
                  </angle>
                  <angle>
                    <activevideoangle>true</activevideoangle>
                    <activeaudioangle>true</activeaudioangle>
                    <clip id="clip-2"/>
                  </angle>
                  <angle>
                    <activevideoangle>false</activevideoangle>
                    <activeaudioangle>false</activeaudioangle>
                    <clip id="clip-3"/>
                  </angle>
                  <angle>
                    <activevideoangle>false</activevideoangle>
                    <activeaudioangle>false</activeaudioangle>
                    <clip id="clip-4"/>
                  </angle>
                  <angle>
                    <activevideoangle>false</activevideoangle>
                    <activeaudioangle>false</activeaudioangle>
                    <clip id="clip-5"/>
                  </angle>
                  <angle>
                    <activevideoangle>false</activevideoangle>
                    <activeaudioangle>false</activeaudioangle>
                    <clip id="clip-6"/>
                  </angle>
                  <angle>
                    <activevideoangle>false</activevideoangle>
                    <activeaudioangle>false</activeaudioangle>
                    <clip id="clip-7"/>
                  </angle>
                  <angle>
                    <activevideoangle>false</activevideoangle>
                    <activeaudioangle>false</activeaudioangle>
                    <clip id="clip-8"/>
                  </angle>
                  <angle>
                    <activevideoangle>false</activevideoangle>
                    <activeaudioangle>false</activeaudioangle>
                    <clip id="clip-9"/>
                  </angle>
                  <masterclipid>clip-master</masterclipid>
                </multiclip>
              </clipitem>
              <clipitem id="cs-473">
                <duration>143</duration>
                <rate>
                  <ntsc>false</ntsc>
                  <timebase>25</timebase>
                </rate>
                <in>72192</in>
                <out>72334</out>
                <start>72192</start>
                <end>72334</end>
                <file id="src-3"/>
                <sourcetrack>
                  <mediatype>video</mediatype>
                  <trackindex>1</trackindex>
                </sourcetrack>
                <multiclip id="mcs-473">
                  <name>MCS-473</name>
                  <masterclipid>clip-master</masterclipid>
                  <collapsed>false</collapsed>
                  <angle>
                    <activevideoangle>false</activevideoangle>
                    <activeaudioangle>false</activeaudioangle>
                    <clip id="clip-1"/>
                  </angle>
                  <angle>
                    <activevideoangle>false</activevideoangle>
                    <activeaudioangle>false</activeaudioangle>
                    <clip id="clip-2"/>
                  </angle>
                  <angle>
                    <activevideoangle>true</activevideoangle>
                    <activeaudioangle>true</activeaudioangle>
                    <clip id="clip-3"/>
                  </angle>
                  <angle>
                    <activevideoangle>false</activevideoangle>
                    <activeaudioangle>false</activeaudioangle>
                    <clip id="clip-4"/>
                  </angle>
                  <angle>
                    <activevideoangle>false</activevideoangle>
                    <activeaudioangle>false</activeaudioangle>
                    <clip id="clip-5"/>
                  </angle>
                  <angle>
                    <activevideoangle>false</activevideoangle>
                    <activeaudioangle>false</activeaudioangle>
                    <clip id="clip-6"/>
                  </angle>
                  <angle>
                    <activevideoangle>false</activevideoangle>
                    <activeaudioangle>false</activeaudioangle>
                    <clip id="clip-7"/>
                  </angle>
                  <angle>
                    <activevideoangle>false</activevideoangle>
                    <activeaudioangle>false</activeaudioangle>
                    <clip id="clip-8"/>
                  </angle>
                  <angle>
                    <activevideoangle>false</activevideoangle>
                    <activeaudioangle>false</activeaudioangle>
                    <clip id="clip-9"/>
                  </angle>
                  <masterclipid>clip-master</masterclipid>
                </multiclip>
              </clipitem>
              <clipitem id="cs-474">
                <duration>53</duration>
                <rate>
                  <ntsc>false</ntsc>
                  <timebase>25</timebase>
                </rate>
                <in>72334</in>
                <out>72386</out>
                <start>72334</start>
                <end>72386</end>
                <file id="src-2"/>
                <sourcetrack>
                  <mediatype>video</mediatype>
                  <trackindex>1</trackindex>
                </sourcetrack>
                <multiclip id="mcs-474">
                  <name>MCS-474</name>
                  <masterclipid>clip-master</masterclipid>
                  <collapsed>false</collapsed>
                  <angle>
                    <activevideoangle>false</activevideoangle>
                    <activeaudioangle>false</activeaudioangle>
                    <clip id="clip-1"/>
                  </angle>
                  <angle>
                    <activevideoangle>true</activevideoangle>
                    <activeaudioangle>true</activeaudioangle>
                    <clip id="clip-2"/>
                  </angle>
                  <angle>
                    <activevideoangle>false</activevideoangle>
                    <activeaudioangle>false</activeaudioangle>
                    <clip id="clip-3"/>
                  </angle>
                  <angle>
                    <activevideoangle>false</activevideoangle>
                    <activeaudioangle>false</activeaudioangle>
                    <clip id="clip-4"/>
                  </angle>
                  <angle>
                    <activevideoangle>false</activevideoangle>
                    <activeaudioangle>false</activeaudioangle>
                    <clip id="clip-5"/>
                  </angle>
                  <angle>
                    <activevideoangle>false</activevideoangle>
                    <activeaudioangle>false</activeaudioangle>
                    <clip id="clip-6"/>
                  </angle>
                  <angle>
                    <activevideoangle>false</activevideoangle>
                    <activeaudioangle>false</activeaudioangle>
                    <clip id="clip-7"/>
                  </angle>
                  <angle>
                    <activevideoangle>false</activevideoangle>
                    <activeaudioangle>false</activeaudioangle>
                    <clip id="clip-8"/>
                  </angle>
                  <angle>
                    <activevideoangle>false</activevideoangle>
                    <activeaudioangle>false</activeaudioangle>
                    <clip id="clip-9"/>
                  </angle>
                  <masterclipid>clip-master</masterclipid>
                </multiclip>
              </clipitem>
              <clipitem id="cs-475">
                <duration>45</duration>
                <rate>
                  <ntsc>false</ntsc>
                  <timebase>25</timebase>
                </rate>
                <in>72386</in>
                <out>72430</out>
                <start>72386</start>
                <end>72430</end>
                <file id="src-5"/>
                <sourcetrack>
                  <mediatype>video</mediatype>
                  <trackindex>1</trackindex>
                </sourcetrack>
                <multiclip id="mcs-475">
                  <name>MCS-475</name>
                  <masterclipid>clip-master</masterclipid>
                  <collapsed>false</collapsed>
                  <angle>
                    <activevideoangle>false</activevideoangle>
                    <activeaudioangle>false</activeaudioangle>
                    <clip id="clip-1"/>
                  </angle>
                  <angle>
                    <activevideoangle>false</activevideoangle>
                    <activeaudioangle>false</activeaudioangle>
                    <clip id="clip-2"/>
                  </angle>
                  <angle>
                    <activevideoangle>false</activevideoangle>
                    <activeaudioangle>false</activeaudioangle>
                    <clip id="clip-3"/>
                  </angle>
                  <angle>
                    <activevideoangle>false</activevideoangle>
                    <activeaudioangle>false</activeaudioangle>
                    <clip id="clip-4"/>
                  </angle>
                  <angle>
                    <activevideoangle>true</activevideoangle>
                    <activeaudioangle>true</activeaudioangle>
                    <clip id="clip-5"/>
                  </angle>
                  <angle>
                    <activevideoangle>false</activevideoangle>
                    <activeaudioangle>false</activeaudioangle>
                    <clip id="clip-6"/>
                  </angle>
                  <angle>
                    <activevideoangle>false</activevideoangle>
                    <activeaudioangle>false</activeaudioangle>
                    <clip id="clip-7"/>
                  </angle>
                  <angle>
                    <activevideoangle>false</activevideoangle>
                    <activeaudioangle>false</activeaudioangle>
                    <clip id="clip-8"/>
                  </angle>
                  <angle>
                    <activevideoangle>false</activevideoangle>
                    <activeaudioangle>false</activeaudioangle>
                    <clip id="clip-9"/>
                  </angle>
                  <masterclipid>clip-master</masterclipid>
                </multiclip>
              </clipitem>
              <clipitem id="cs-476">
                <duration>89</duration>
                <rate>
                  <ntsc>false</ntsc>
                  <timebase>25</timebase>
                </rate>
                <in>72430</in>
                <out>72518</out>
                <start>72430</start>
                <end>72518</end>
                <file id="src-1"/>
                <sourcetrack>
                  <mediatype>video</mediatype>
                  <trackindex>1</trackindex>
                </sourcetrack>
                <multiclip id="mcs-476">
                  <name>MCS-476</name>
                  <masterclipid>clip-master</masterclipid>
                  <collapsed>false</collapsed>
                  <angle>
                    <activevideoangle>true</activevideoangle>
                    <activeaudioangle>true</activeaudioangle>
                    <clip id="clip-1"/>
                  </angle>
                  <angle>
                    <activevideoangle>false</activevideoangle>
                    <activeaudioangle>false</activeaudioangle>
                    <clip id="clip-2"/>
                  </angle>
                  <angle>
                    <activevideoangle>false</activevideoangle>
                    <activeaudioangle>false</activeaudioangle>
                    <clip id="clip-3"/>
                  </angle>
                  <angle>
                    <activevideoangle>false</activevideoangle>
                    <activeaudioangle>false</activeaudioangle>
                    <clip id="clip-4"/>
                  </angle>
                  <angle>
                    <activevideoangle>false</activevideoangle>
                    <activeaudioangle>false</activeaudioangle>
                    <clip id="clip-5"/>
                  </angle>
                  <angle>
                    <activevideoangle>false</activevideoangle>
                    <activeaudioangle>false</activeaudioangle>
                    <clip id="clip-6"/>
                  </angle>
                  <angle>
                    <activevideoangle>false</activevideoangle>
                    <activeaudioangle>false</activeaudioangle>
                    <clip id="clip-7"/>
                  </angle>
                  <angle>
                    <activevideoangle>false</activevideoangle>
                    <activeaudioangle>false</activeaudioangle>
                    <clip id="clip-8"/>
                  </angle>
                  <angle>
                    <activevideoangle>false</activevideoangle>
                    <activeaudioangle>false</activeaudioangle>
                    <clip id="clip-9"/>
                  </angle>
                  <masterclipid>clip-master</masterclipid>
                </multiclip>
              </clipitem>
              <clipitem id="cs-477">
                <duration>71</duration>
                <rate>
                  <ntsc>false</ntsc>
                  <timebase>25</timebase>
                </rate>
                <in>72518</in>
                <out>72588</out>
                <start>72518</start>
                <end>72588</end>
                <file id="src-3"/>
                <sourcetrack>
                  <mediatype>video</mediatype>
                  <trackindex>1</trackindex>
                </sourcetrack>
                <multiclip id="mcs-477">
                  <name>MCS-477</name>
                  <masterclipid>clip-master</masterclipid>
                  <collapsed>false</collapsed>
                  <angle>
                    <activevideoangle>false</activevideoangle>
                    <activeaudioangle>false</activeaudioangle>
                    <clip id="clip-1"/>
                  </angle>
                  <angle>
                    <activevideoangle>false</activevideoangle>
                    <activeaudioangle>false</activeaudioangle>
                    <clip id="clip-2"/>
                  </angle>
                  <angle>
                    <activevideoangle>true</activevideoangle>
                    <activeaudioangle>true</activeaudioangle>
                    <clip id="clip-3"/>
                  </angle>
                  <angle>
                    <activevideoangle>false</activevideoangle>
                    <activeaudioangle>false</activeaudioangle>
                    <clip id="clip-4"/>
                  </angle>
                  <angle>
                    <activevideoangle>false</activevideoangle>
                    <activeaudioangle>false</activeaudioangle>
                    <clip id="clip-5"/>
                  </angle>
                  <angle>
                    <activevideoangle>false</activevideoangle>
                    <activeaudioangle>false</activeaudioangle>
                    <clip id="clip-6"/>
                  </angle>
                  <angle>
                    <activevideoangle>false</activevideoangle>
                    <activeaudioangle>false</activeaudioangle>
                    <clip id="clip-7"/>
                  </angle>
                  <angle>
                    <activevideoangle>false</activevideoangle>
                    <activeaudioangle>false</activeaudioangle>
                    <clip id="clip-8"/>
                  </angle>
                  <angle>
                    <activevideoangle>false</activevideoangle>
                    <activeaudioangle>false</activeaudioangle>
                    <clip id="clip-9"/>
                  </angle>
                  <masterclipid>clip-master</masterclipid>
                </multiclip>
              </clipitem>
              <clipitem id="cs-478">
                <duration>114</duration>
                <rate>
                  <ntsc>false</ntsc>
                  <timebase>25</timebase>
                </rate>
                <in>72588</in>
                <out>72701</out>
                <start>72588</start>
                <end>72701</end>
                <file id="src-2"/>
                <sourcetrack>
                  <mediatype>video</mediatype>
                  <trackindex>1</trackindex>
                </sourcetrack>
                <multiclip id="mcs-478">
                  <name>MCS-478</name>
                  <masterclipid>clip-master</masterclipid>
                  <collapsed>false</collapsed>
                  <angle>
                    <activevideoangle>false</activevideoangle>
                    <activeaudioangle>false</activeaudioangle>
                    <clip id="clip-1"/>
                  </angle>
                  <angle>
                    <activevideoangle>true</activevideoangle>
                    <activeaudioangle>true</activeaudioangle>
                    <clip id="clip-2"/>
                  </angle>
                  <angle>
                    <activevideoangle>false</activevideoangle>
                    <activeaudioangle>false</activeaudioangle>
                    <clip id="clip-3"/>
                  </angle>
                  <angle>
                    <activevideoangle>false</activevideoangle>
                    <activeaudioangle>false</activeaudioangle>
                    <clip id="clip-4"/>
                  </angle>
                  <angle>
                    <activevideoangle>false</activevideoangle>
                    <activeaudioangle>false</activeaudioangle>
                    <clip id="clip-5"/>
                  </angle>
                  <angle>
                    <activevideoangle>false</activevideoangle>
                    <activeaudioangle>false</activeaudioangle>
                    <clip id="clip-6"/>
                  </angle>
                  <angle>
                    <activevideoangle>false</activevideoangle>
                    <activeaudioangle>false</activeaudioangle>
                    <clip id="clip-7"/>
                  </angle>
                  <angle>
                    <activevideoangle>false</activevideoangle>
                    <activeaudioangle>false</activeaudioangle>
                    <clip id="clip-8"/>
                  </angle>
                  <angle>
                    <activevideoangle>false</activevideoangle>
                    <activeaudioangle>false</activeaudioangle>
                    <clip id="clip-9"/>
                  </angle>
                  <masterclipid>clip-master</masterclipid>
                </multiclip>
              </clipitem>
              <clipitem id="cs-479">
                <duration>111</duration>
                <rate>
                  <ntsc>false</ntsc>
                  <timebase>25</timebase>
                </rate>
                <in>72701</in>
                <out>72811</out>
                <start>72701</start>
                <end>72811</end>
                <file id="src-4"/>
                <sourcetrack>
                  <mediatype>video</mediatype>
                  <trackindex>1</trackindex>
                </sourcetrack>
                <multiclip id="mcs-479">
                  <name>MCS-479</name>
                  <masterclipid>clip-master</masterclipid>
                  <collapsed>false</collapsed>
                  <angle>
                    <activevideoangle>false</activevideoangle>
                    <activeaudioangle>false</activeaudioangle>
                    <clip id="clip-1"/>
                  </angle>
                  <angle>
                    <activevideoangle>false</activevideoangle>
                    <activeaudioangle>false</activeaudioangle>
                    <clip id="clip-2"/>
                  </angle>
                  <angle>
                    <activevideoangle>false</activevideoangle>
                    <activeaudioangle>false</activeaudioangle>
                    <clip id="clip-3"/>
                  </angle>
                  <angle>
                    <activevideoangle>true</activevideoangle>
                    <activeaudioangle>true</activeaudioangle>
                    <clip id="clip-4"/>
                  </angle>
                  <angle>
                    <activevideoangle>false</activevideoangle>
                    <activeaudioangle>false</activeaudioangle>
                    <clip id="clip-5"/>
                  </angle>
                  <angle>
                    <activevideoangle>false</activevideoangle>
                    <activeaudioangle>false</activeaudioangle>
                    <clip id="clip-6"/>
                  </angle>
                  <angle>
                    <activevideoangle>false</activevideoangle>
                    <activeaudioangle>false</activeaudioangle>
                    <clip id="clip-7"/>
                  </angle>
                  <angle>
                    <activevideoangle>false</activevideoangle>
                    <activeaudioangle>false</activeaudioangle>
                    <clip id="clip-8"/>
                  </angle>
                  <angle>
                    <activevideoangle>false</activevideoangle>
                    <activeaudioangle>false</activeaudioangle>
                    <clip id="clip-9"/>
                  </angle>
                  <masterclipid>clip-master</masterclipid>
                </multiclip>
              </clipitem>
              <clipitem id="cs-480">
                <duration>45</duration>
                <rate>
                  <ntsc>false</ntsc>
                  <timebase>25</timebase>
                </rate>
                <in>72811</in>
                <out>72855</out>
                <start>72811</start>
                <end>72855</end>
                <file id="src-6"/>
                <sourcetrack>
                  <mediatype>video</mediatype>
                  <trackindex>1</trackindex>
                </sourcetrack>
                <multiclip id="mcs-480">
                  <name>MCS-480</name>
                  <masterclipid>clip-master</masterclipid>
                  <collapsed>false</collapsed>
                  <angle>
                    <activevideoangle>false</activevideoangle>
                    <activeaudioangle>false</activeaudioangle>
                    <clip id="clip-1"/>
                  </angle>
                  <angle>
                    <activevideoangle>false</activevideoangle>
                    <activeaudioangle>false</activeaudioangle>
                    <clip id="clip-2"/>
                  </angle>
                  <angle>
                    <activevideoangle>false</activevideoangle>
                    <activeaudioangle>false</activeaudioangle>
                    <clip id="clip-3"/>
                  </angle>
                  <angle>
                    <activevideoangle>false</activevideoangle>
                    <activeaudioangle>false</activeaudioangle>
                    <clip id="clip-4"/>
                  </angle>
                  <angle>
                    <activevideoangle>false</activevideoangle>
                    <activeaudioangle>false</activeaudioangle>
                    <clip id="clip-5"/>
                  </angle>
                  <angle>
                    <activevideoangle>true</activevideoangle>
                    <activeaudioangle>true</activeaudioangle>
                    <clip id="clip-6"/>
                  </angle>
                  <angle>
                    <activevideoangle>false</activevideoangle>
                    <activeaudioangle>false</activeaudioangle>
                    <clip id="clip-7"/>
                  </angle>
                  <angle>
                    <activevideoangle>false</activevideoangle>
                    <activeaudioangle>false</activeaudioangle>
                    <clip id="clip-8"/>
                  </angle>
                  <angle>
                    <activevideoangle>false</activevideoangle>
                    <activeaudioangle>false</activeaudioangle>
                    <clip id="clip-9"/>
                  </angle>
                  <masterclipid>clip-master</masterclipid>
                </multiclip>
              </clipitem>
              <clipitem id="cs-481">
                <duration>32</duration>
                <rate>
                  <ntsc>false</ntsc>
                  <timebase>25</timebase>
                </rate>
                <in>72855</in>
                <out>72886</out>
                <start>72855</start>
                <end>72886</end>
                <file id="src-4"/>
                <sourcetrack>
                  <mediatype>video</mediatype>
                  <trackindex>1</trackindex>
                </sourcetrack>
                <multiclip id="mcs-481">
                  <name>MCS-481</name>
                  <masterclipid>clip-master</masterclipid>
                  <collapsed>false</collapsed>
                  <angle>
                    <activevideoangle>false</activevideoangle>
                    <activeaudioangle>false</activeaudioangle>
                    <clip id="clip-1"/>
                  </angle>
                  <angle>
                    <activevideoangle>false</activevideoangle>
                    <activeaudioangle>false</activeaudioangle>
                    <clip id="clip-2"/>
                  </angle>
                  <angle>
                    <activevideoangle>false</activevideoangle>
                    <activeaudioangle>false</activeaudioangle>
                    <clip id="clip-3"/>
                  </angle>
                  <angle>
                    <activevideoangle>true</activevideoangle>
                    <activeaudioangle>true</activeaudioangle>
                    <clip id="clip-4"/>
                  </angle>
                  <angle>
                    <activevideoangle>false</activevideoangle>
                    <activeaudioangle>false</activeaudioangle>
                    <clip id="clip-5"/>
                  </angle>
                  <angle>
                    <activevideoangle>false</activevideoangle>
                    <activeaudioangle>false</activeaudioangle>
                    <clip id="clip-6"/>
                  </angle>
                  <angle>
                    <activevideoangle>false</activevideoangle>
                    <activeaudioangle>false</activeaudioangle>
                    <clip id="clip-7"/>
                  </angle>
                  <angle>
                    <activevideoangle>false</activevideoangle>
                    <activeaudioangle>false</activeaudioangle>
                    <clip id="clip-8"/>
                  </angle>
                  <angle>
                    <activevideoangle>false</activevideoangle>
                    <activeaudioangle>false</activeaudioangle>
                    <clip id="clip-9"/>
                  </angle>
                  <masterclipid>clip-master</masterclipid>
                </multiclip>
              </clipitem>
              <clipitem id="cs-482">
                <duration>24</duration>
                <rate>
                  <ntsc>false</ntsc>
                  <timebase>25</timebase>
                </rate>
                <in>72886</in>
                <out>72909</out>
                <start>72886</start>
                <end>72909</end>
                <file id="src-3"/>
                <sourcetrack>
                  <mediatype>video</mediatype>
                  <trackindex>1</trackindex>
                </sourcetrack>
                <multiclip id="mcs-482">
                  <name>MCS-482</name>
                  <masterclipid>clip-master</masterclipid>
                  <collapsed>false</collapsed>
                  <angle>
                    <activevideoangle>false</activevideoangle>
                    <activeaudioangle>false</activeaudioangle>
                    <clip id="clip-1"/>
                  </angle>
                  <angle>
                    <activevideoangle>false</activevideoangle>
                    <activeaudioangle>false</activeaudioangle>
                    <clip id="clip-2"/>
                  </angle>
                  <angle>
                    <activevideoangle>true</activevideoangle>
                    <activeaudioangle>true</activeaudioangle>
                    <clip id="clip-3"/>
                  </angle>
                  <angle>
                    <activevideoangle>false</activevideoangle>
                    <activeaudioangle>false</activeaudioangle>
                    <clip id="clip-4"/>
                  </angle>
                  <angle>
                    <activevideoangle>false</activevideoangle>
                    <activeaudioangle>false</activeaudioangle>
                    <clip id="clip-5"/>
                  </angle>
                  <angle>
                    <activevideoangle>false</activevideoangle>
                    <activeaudioangle>false</activeaudioangle>
                    <clip id="clip-6"/>
                  </angle>
                  <angle>
                    <activevideoangle>false</activevideoangle>
                    <activeaudioangle>false</activeaudioangle>
                    <clip id="clip-7"/>
                  </angle>
                  <angle>
                    <activevideoangle>false</activevideoangle>
                    <activeaudioangle>false</activeaudioangle>
                    <clip id="clip-8"/>
                  </angle>
                  <angle>
                    <activevideoangle>false</activevideoangle>
                    <activeaudioangle>false</activeaudioangle>
                    <clip id="clip-9"/>
                  </angle>
                  <masterclipid>clip-master</masterclipid>
                </multiclip>
              </clipitem>
              <clipitem id="cs-483">
                <duration>45</duration>
                <rate>
                  <ntsc>false</ntsc>
                  <timebase>25</timebase>
                </rate>
                <in>72909</in>
                <out>72953</out>
                <start>72909</start>
                <end>72953</end>
                <file id="src-2"/>
                <sourcetrack>
                  <mediatype>video</mediatype>
                  <trackindex>1</trackindex>
                </sourcetrack>
                <multiclip id="mcs-483">
                  <name>MCS-483</name>
                  <masterclipid>clip-master</masterclipid>
                  <collapsed>false</collapsed>
                  <angle>
                    <activevideoangle>false</activevideoangle>
                    <activeaudioangle>false</activeaudioangle>
                    <clip id="clip-1"/>
                  </angle>
                  <angle>
                    <activevideoangle>true</activevideoangle>
                    <activeaudioangle>true</activeaudioangle>
                    <clip id="clip-2"/>
                  </angle>
                  <angle>
                    <activevideoangle>false</activevideoangle>
                    <activeaudioangle>false</activeaudioangle>
                    <clip id="clip-3"/>
                  </angle>
                  <angle>
                    <activevideoangle>false</activevideoangle>
                    <activeaudioangle>false</activeaudioangle>
                    <clip id="clip-4"/>
                  </angle>
                  <angle>
                    <activevideoangle>false</activevideoangle>
                    <activeaudioangle>false</activeaudioangle>
                    <clip id="clip-5"/>
                  </angle>
                  <angle>
                    <activevideoangle>false</activevideoangle>
                    <activeaudioangle>false</activeaudioangle>
                    <clip id="clip-6"/>
                  </angle>
                  <angle>
                    <activevideoangle>false</activevideoangle>
                    <activeaudioangle>false</activeaudioangle>
                    <clip id="clip-7"/>
                  </angle>
                  <angle>
                    <activevideoangle>false</activevideoangle>
                    <activeaudioangle>false</activeaudioangle>
                    <clip id="clip-8"/>
                  </angle>
                  <angle>
                    <activevideoangle>false</activevideoangle>
                    <activeaudioangle>false</activeaudioangle>
                    <clip id="clip-9"/>
                  </angle>
                  <masterclipid>clip-master</masterclipid>
                </multiclip>
              </clipitem>
              <clipitem id="cs-484">
                <duration>78</duration>
                <rate>
                  <ntsc>false</ntsc>
                  <timebase>25</timebase>
                </rate>
                <in>72953</in>
                <out>73030</out>
                <start>72953</start>
                <end>73030</end>
                <file id="src-4"/>
                <sourcetrack>
                  <mediatype>video</mediatype>
                  <trackindex>1</trackindex>
                </sourcetrack>
                <multiclip id="mcs-484">
                  <name>MCS-484</name>
                  <masterclipid>clip-master</masterclipid>
                  <collapsed>false</collapsed>
                  <angle>
                    <activevideoangle>false</activevideoangle>
                    <activeaudioangle>false</activeaudioangle>
                    <clip id="clip-1"/>
                  </angle>
                  <angle>
                    <activevideoangle>false</activevideoangle>
                    <activeaudioangle>false</activeaudioangle>
                    <clip id="clip-2"/>
                  </angle>
                  <angle>
                    <activevideoangle>false</activevideoangle>
                    <activeaudioangle>false</activeaudioangle>
                    <clip id="clip-3"/>
                  </angle>
                  <angle>
                    <activevideoangle>true</activevideoangle>
                    <activeaudioangle>true</activeaudioangle>
                    <clip id="clip-4"/>
                  </angle>
                  <angle>
                    <activevideoangle>false</activevideoangle>
                    <activeaudioangle>false</activeaudioangle>
                    <clip id="clip-5"/>
                  </angle>
                  <angle>
                    <activevideoangle>false</activevideoangle>
                    <activeaudioangle>false</activeaudioangle>
                    <clip id="clip-6"/>
                  </angle>
                  <angle>
                    <activevideoangle>false</activevideoangle>
                    <activeaudioangle>false</activeaudioangle>
                    <clip id="clip-7"/>
                  </angle>
                  <angle>
                    <activevideoangle>false</activevideoangle>
                    <activeaudioangle>false</activeaudioangle>
                    <clip id="clip-8"/>
                  </angle>
                  <angle>
                    <activevideoangle>false</activevideoangle>
                    <activeaudioangle>false</activeaudioangle>
                    <clip id="clip-9"/>
                  </angle>
                  <masterclipid>clip-master</masterclipid>
                </multiclip>
              </clipitem>
              <clipitem id="cs-485">
                <duration>102</duration>
                <rate>
                  <ntsc>false</ntsc>
                  <timebase>25</timebase>
                </rate>
                <in>73030</in>
                <out>73131</out>
                <start>73030</start>
                <end>73131</end>
                <file id="src-7"/>
                <sourcetrack>
                  <mediatype>video</mediatype>
                  <trackindex>1</trackindex>
                </sourcetrack>
                <multiclip id="mcs-485">
                  <name>MCS-485</name>
                  <masterclipid>clip-master</masterclipid>
                  <collapsed>false</collapsed>
                  <angle>
                    <activevideoangle>false</activevideoangle>
                    <activeaudioangle>false</activeaudioangle>
                    <clip id="clip-1"/>
                  </angle>
                  <angle>
                    <activevideoangle>false</activevideoangle>
                    <activeaudioangle>false</activeaudioangle>
                    <clip id="clip-2"/>
                  </angle>
                  <angle>
                    <activevideoangle>false</activevideoangle>
                    <activeaudioangle>false</activeaudioangle>
                    <clip id="clip-3"/>
                  </angle>
                  <angle>
                    <activevideoangle>false</activevideoangle>
                    <activeaudioangle>false</activeaudioangle>
                    <clip id="clip-4"/>
                  </angle>
                  <angle>
                    <activevideoangle>false</activevideoangle>
                    <activeaudioangle>false</activeaudioangle>
                    <clip id="clip-5"/>
                  </angle>
                  <angle>
                    <activevideoangle>false</activevideoangle>
                    <activeaudioangle>false</activeaudioangle>
                    <clip id="clip-6"/>
                  </angle>
                  <angle>
                    <activevideoangle>true</activevideoangle>
                    <activeaudioangle>true</activeaudioangle>
                    <clip id="clip-7"/>
                  </angle>
                  <angle>
                    <activevideoangle>false</activevideoangle>
                    <activeaudioangle>false</activeaudioangle>
                    <clip id="clip-8"/>
                  </angle>
                  <angle>
                    <activevideoangle>false</activevideoangle>
                    <activeaudioangle>false</activeaudioangle>
                    <clip id="clip-9"/>
                  </angle>
                  <masterclipid>clip-master</masterclipid>
                </multiclip>
              </clipitem>
              <clipitem id="cs-486">
                <duration>126</duration>
                <rate>
                  <ntsc>false</ntsc>
                  <timebase>25</timebase>
                </rate>
                <in>73131</in>
                <out>73256</out>
                <start>73131</start>
                <end>73256</end>
                <file id="src-3"/>
                <sourcetrack>
                  <mediatype>video</mediatype>
                  <trackindex>1</trackindex>
                </sourcetrack>
                <multiclip id="mcs-486">
                  <name>MCS-486</name>
                  <masterclipid>clip-master</masterclipid>
                  <collapsed>false</collapsed>
                  <angle>
                    <activevideoangle>false</activevideoangle>
                    <activeaudioangle>false</activeaudioangle>
                    <clip id="clip-1"/>
                  </angle>
                  <angle>
                    <activevideoangle>false</activevideoangle>
                    <activeaudioangle>false</activeaudioangle>
                    <clip id="clip-2"/>
                  </angle>
                  <angle>
                    <activevideoangle>true</activevideoangle>
                    <activeaudioangle>true</activeaudioangle>
                    <clip id="clip-3"/>
                  </angle>
                  <angle>
                    <activevideoangle>false</activevideoangle>
                    <activeaudioangle>false</activeaudioangle>
                    <clip id="clip-4"/>
                  </angle>
                  <angle>
                    <activevideoangle>false</activevideoangle>
                    <activeaudioangle>false</activeaudioangle>
                    <clip id="clip-5"/>
                  </angle>
                  <angle>
                    <activevideoangle>false</activevideoangle>
                    <activeaudioangle>false</activeaudioangle>
                    <clip id="clip-6"/>
                  </angle>
                  <angle>
                    <activevideoangle>false</activevideoangle>
                    <activeaudioangle>false</activeaudioangle>
                    <clip id="clip-7"/>
                  </angle>
                  <angle>
                    <activevideoangle>false</activevideoangle>
                    <activeaudioangle>false</activeaudioangle>
                    <clip id="clip-8"/>
                  </angle>
                  <angle>
                    <activevideoangle>false</activevideoangle>
                    <activeaudioangle>false</activeaudioangle>
                    <clip id="clip-9"/>
                  </angle>
                  <masterclipid>clip-master</masterclipid>
                </multiclip>
              </clipitem>
              <clipitem id="cs-487">
                <duration>57</duration>
                <rate>
                  <ntsc>false</ntsc>
                  <timebase>25</timebase>
                </rate>
                <in>73256</in>
                <out>73312</out>
                <start>73256</start>
                <end>73312</end>
                <file id="src-6"/>
                <sourcetrack>
                  <mediatype>video</mediatype>
                  <trackindex>1</trackindex>
                </sourcetrack>
                <multiclip id="mcs-487">
                  <name>MCS-487</name>
                  <masterclipid>clip-master</masterclipid>
                  <collapsed>false</collapsed>
                  <angle>
                    <activevideoangle>false</activevideoangle>
                    <activeaudioangle>false</activeaudioangle>
                    <clip id="clip-1"/>
                  </angle>
                  <angle>
                    <activevideoangle>false</activevideoangle>
                    <activeaudioangle>false</activeaudioangle>
                    <clip id="clip-2"/>
                  </angle>
                  <angle>
                    <activevideoangle>false</activevideoangle>
                    <activeaudioangle>false</activeaudioangle>
                    <clip id="clip-3"/>
                  </angle>
                  <angle>
                    <activevideoangle>false</activevideoangle>
                    <activeaudioangle>false</activeaudioangle>
                    <clip id="clip-4"/>
                  </angle>
                  <angle>
                    <activevideoangle>false</activevideoangle>
                    <activeaudioangle>false</activeaudioangle>
                    <clip id="clip-5"/>
                  </angle>
                  <angle>
                    <activevideoangle>true</activevideoangle>
                    <activeaudioangle>true</activeaudioangle>
                    <clip id="clip-6"/>
                  </angle>
                  <angle>
                    <activevideoangle>false</activevideoangle>
                    <activeaudioangle>false</activeaudioangle>
                    <clip id="clip-7"/>
                  </angle>
                  <angle>
                    <activevideoangle>false</activevideoangle>
                    <activeaudioangle>false</activeaudioangle>
                    <clip id="clip-8"/>
                  </angle>
                  <angle>
                    <activevideoangle>false</activevideoangle>
                    <activeaudioangle>false</activeaudioangle>
                    <clip id="clip-9"/>
                  </angle>
                  <masterclipid>clip-master</masterclipid>
                </multiclip>
              </clipitem>
              <clipitem id="cs-488">
                <duration>44</duration>
                <rate>
                  <ntsc>false</ntsc>
                  <timebase>25</timebase>
                </rate>
                <in>73312</in>
                <out>73355</out>
                <start>73312</start>
                <end>73355</end>
                <file id="src-4"/>
                <sourcetrack>
                  <mediatype>video</mediatype>
                  <trackindex>1</trackindex>
                </sourcetrack>
                <multiclip id="mcs-488">
                  <name>MCS-488</name>
                  <masterclipid>clip-master</masterclipid>
                  <collapsed>false</collapsed>
                  <angle>
                    <activevideoangle>false</activevideoangle>
                    <activeaudioangle>false</activeaudioangle>
                    <clip id="clip-1"/>
                  </angle>
                  <angle>
                    <activevideoangle>false</activevideoangle>
                    <activeaudioangle>false</activeaudioangle>
                    <clip id="clip-2"/>
                  </angle>
                  <angle>
                    <activevideoangle>false</activevideoangle>
                    <activeaudioangle>false</activeaudioangle>
                    <clip id="clip-3"/>
                  </angle>
                  <angle>
                    <activevideoangle>true</activevideoangle>
                    <activeaudioangle>true</activeaudioangle>
                    <clip id="clip-4"/>
                  </angle>
                  <angle>
                    <activevideoangle>false</activevideoangle>
                    <activeaudioangle>false</activeaudioangle>
                    <clip id="clip-5"/>
                  </angle>
                  <angle>
                    <activevideoangle>false</activevideoangle>
                    <activeaudioangle>false</activeaudioangle>
                    <clip id="clip-6"/>
                  </angle>
                  <angle>
                    <activevideoangle>false</activevideoangle>
                    <activeaudioangle>false</activeaudioangle>
                    <clip id="clip-7"/>
                  </angle>
                  <angle>
                    <activevideoangle>false</activevideoangle>
                    <activeaudioangle>false</activeaudioangle>
                    <clip id="clip-8"/>
                  </angle>
                  <angle>
                    <activevideoangle>false</activevideoangle>
                    <activeaudioangle>false</activeaudioangle>
                    <clip id="clip-9"/>
                  </angle>
                  <masterclipid>clip-master</masterclipid>
                </multiclip>
              </clipitem>
              <clipitem id="cs-489">
                <duration>103</duration>
                <rate>
                  <ntsc>false</ntsc>
                  <timebase>25</timebase>
                </rate>
                <in>73355</in>
                <out>73457</out>
                <start>73355</start>
                <end>73457</end>
                <file id="src-2"/>
                <sourcetrack>
                  <mediatype>video</mediatype>
                  <trackindex>1</trackindex>
                </sourcetrack>
                <multiclip id="mcs-489">
                  <name>MCS-489</name>
                  <masterclipid>clip-master</masterclipid>
                  <collapsed>false</collapsed>
                  <angle>
                    <activevideoangle>false</activevideoangle>
                    <activeaudioangle>false</activeaudioangle>
                    <clip id="clip-1"/>
                  </angle>
                  <angle>
                    <activevideoangle>true</activevideoangle>
                    <activeaudioangle>true</activeaudioangle>
                    <clip id="clip-2"/>
                  </angle>
                  <angle>
                    <activevideoangle>false</activevideoangle>
                    <activeaudioangle>false</activeaudioangle>
                    <clip id="clip-3"/>
                  </angle>
                  <angle>
                    <activevideoangle>false</activevideoangle>
                    <activeaudioangle>false</activeaudioangle>
                    <clip id="clip-4"/>
                  </angle>
                  <angle>
                    <activevideoangle>false</activevideoangle>
                    <activeaudioangle>false</activeaudioangle>
                    <clip id="clip-5"/>
                  </angle>
                  <angle>
                    <activevideoangle>false</activevideoangle>
                    <activeaudioangle>false</activeaudioangle>
                    <clip id="clip-6"/>
                  </angle>
                  <angle>
                    <activevideoangle>false</activevideoangle>
                    <activeaudioangle>false</activeaudioangle>
                    <clip id="clip-7"/>
                  </angle>
                  <angle>
                    <activevideoangle>false</activevideoangle>
                    <activeaudioangle>false</activeaudioangle>
                    <clip id="clip-8"/>
                  </angle>
                  <angle>
                    <activevideoangle>false</activevideoangle>
                    <activeaudioangle>false</activeaudioangle>
                    <clip id="clip-9"/>
                  </angle>
                  <masterclipid>clip-master</masterclipid>
                </multiclip>
              </clipitem>
              <clipitem id="cs-490">
                <duration>151</duration>
                <rate>
                  <ntsc>false</ntsc>
                  <timebase>25</timebase>
                </rate>
                <in>73457</in>
                <out>73607</out>
                <start>73457</start>
                <end>73607</end>
                <file id="src-3"/>
                <sourcetrack>
                  <mediatype>video</mediatype>
                  <trackindex>1</trackindex>
                </sourcetrack>
                <multiclip id="mcs-490">
                  <name>MCS-490</name>
                  <masterclipid>clip-master</masterclipid>
                  <collapsed>false</collapsed>
                  <angle>
                    <activevideoangle>false</activevideoangle>
                    <activeaudioangle>false</activeaudioangle>
                    <clip id="clip-1"/>
                  </angle>
                  <angle>
                    <activevideoangle>false</activevideoangle>
                    <activeaudioangle>false</activeaudioangle>
                    <clip id="clip-2"/>
                  </angle>
                  <angle>
                    <activevideoangle>true</activevideoangle>
                    <activeaudioangle>true</activeaudioangle>
                    <clip id="clip-3"/>
                  </angle>
                  <angle>
                    <activevideoangle>false</activevideoangle>
                    <activeaudioangle>false</activeaudioangle>
                    <clip id="clip-4"/>
                  </angle>
                  <angle>
                    <activevideoangle>false</activevideoangle>
                    <activeaudioangle>false</activeaudioangle>
                    <clip id="clip-5"/>
                  </angle>
                  <angle>
                    <activevideoangle>false</activevideoangle>
                    <activeaudioangle>false</activeaudioangle>
                    <clip id="clip-6"/>
                  </angle>
                  <angle>
                    <activevideoangle>false</activevideoangle>
                    <activeaudioangle>false</activeaudioangle>
                    <clip id="clip-7"/>
                  </angle>
                  <angle>
                    <activevideoangle>false</activevideoangle>
                    <activeaudioangle>false</activeaudioangle>
                    <clip id="clip-8"/>
                  </angle>
                  <angle>
                    <activevideoangle>false</activevideoangle>
                    <activeaudioangle>false</activeaudioangle>
                    <clip id="clip-9"/>
                  </angle>
                  <masterclipid>clip-master</masterclipid>
                </multiclip>
              </clipitem>
              <clipitem id="cs-491">
                <duration>43</duration>
                <rate>
                  <ntsc>false</ntsc>
                  <timebase>25</timebase>
                </rate>
                <in>73607</in>
                <out>73649</out>
                <start>73607</start>
                <end>73649</end>
                <file id="src-6"/>
                <sourcetrack>
                  <mediatype>video</mediatype>
                  <trackindex>1</trackindex>
                </sourcetrack>
                <multiclip id="mcs-491">
                  <name>MCS-491</name>
                  <masterclipid>clip-master</masterclipid>
                  <collapsed>false</collapsed>
                  <angle>
                    <activevideoangle>false</activevideoangle>
                    <activeaudioangle>false</activeaudioangle>
                    <clip id="clip-1"/>
                  </angle>
                  <angle>
                    <activevideoangle>false</activevideoangle>
                    <activeaudioangle>false</activeaudioangle>
                    <clip id="clip-2"/>
                  </angle>
                  <angle>
                    <activevideoangle>false</activevideoangle>
                    <activeaudioangle>false</activeaudioangle>
                    <clip id="clip-3"/>
                  </angle>
                  <angle>
                    <activevideoangle>false</activevideoangle>
                    <activeaudioangle>false</activeaudioangle>
                    <clip id="clip-4"/>
                  </angle>
                  <angle>
                    <activevideoangle>false</activevideoangle>
                    <activeaudioangle>false</activeaudioangle>
                    <clip id="clip-5"/>
                  </angle>
                  <angle>
                    <activevideoangle>true</activevideoangle>
                    <activeaudioangle>true</activeaudioangle>
                    <clip id="clip-6"/>
                  </angle>
                  <angle>
                    <activevideoangle>false</activevideoangle>
                    <activeaudioangle>false</activeaudioangle>
                    <clip id="clip-7"/>
                  </angle>
                  <angle>
                    <activevideoangle>false</activevideoangle>
                    <activeaudioangle>false</activeaudioangle>
                    <clip id="clip-8"/>
                  </angle>
                  <angle>
                    <activevideoangle>false</activevideoangle>
                    <activeaudioangle>false</activeaudioangle>
                    <clip id="clip-9"/>
                  </angle>
                  <masterclipid>clip-master</masterclipid>
                </multiclip>
              </clipitem>
              <clipitem id="cs-492">
                <duration>36</duration>
                <rate>
                  <ntsc>false</ntsc>
                  <timebase>25</timebase>
                </rate>
                <in>73649</in>
                <out>73684</out>
                <start>73649</start>
                <end>73684</end>
                <file id="src-3"/>
                <sourcetrack>
                  <mediatype>video</mediatype>
                  <trackindex>1</trackindex>
                </sourcetrack>
                <multiclip id="mcs-492">
                  <name>MCS-492</name>
                  <masterclipid>clip-master</masterclipid>
                  <collapsed>false</collapsed>
                  <angle>
                    <activevideoangle>false</activevideoangle>
                    <activeaudioangle>false</activeaudioangle>
                    <clip id="clip-1"/>
                  </angle>
                  <angle>
                    <activevideoangle>false</activevideoangle>
                    <activeaudioangle>false</activeaudioangle>
                    <clip id="clip-2"/>
                  </angle>
                  <angle>
                    <activevideoangle>true</activevideoangle>
                    <activeaudioangle>true</activeaudioangle>
                    <clip id="clip-3"/>
                  </angle>
                  <angle>
                    <activevideoangle>false</activevideoangle>
                    <activeaudioangle>false</activeaudioangle>
                    <clip id="clip-4"/>
                  </angle>
                  <angle>
                    <activevideoangle>false</activevideoangle>
                    <activeaudioangle>false</activeaudioangle>
                    <clip id="clip-5"/>
                  </angle>
                  <angle>
                    <activevideoangle>false</activevideoangle>
                    <activeaudioangle>false</activeaudioangle>
                    <clip id="clip-6"/>
                  </angle>
                  <angle>
                    <activevideoangle>false</activevideoangle>
                    <activeaudioangle>false</activeaudioangle>
                    <clip id="clip-7"/>
                  </angle>
                  <angle>
                    <activevideoangle>false</activevideoangle>
                    <activeaudioangle>false</activeaudioangle>
                    <clip id="clip-8"/>
                  </angle>
                  <angle>
                    <activevideoangle>false</activevideoangle>
                    <activeaudioangle>false</activeaudioangle>
                    <clip id="clip-9"/>
                  </angle>
                  <masterclipid>clip-master</masterclipid>
                </multiclip>
              </clipitem>
              <clipitem id="cs-493">
                <duration>368</duration>
                <rate>
                  <ntsc>false</ntsc>
                  <timebase>25</timebase>
                </rate>
                <in>73684</in>
                <out>74051</out>
                <start>73684</start>
                <end>74051</end>
                <file id="src-2"/>
                <sourcetrack>
                  <mediatype>video</mediatype>
                  <trackindex>1</trackindex>
                </sourcetrack>
                <multiclip id="mcs-493">
                  <name>MCS-493</name>
                  <masterclipid>clip-master</masterclipid>
                  <collapsed>false</collapsed>
                  <angle>
                    <activevideoangle>false</activevideoangle>
                    <activeaudioangle>false</activeaudioangle>
                    <clip id="clip-1"/>
                  </angle>
                  <angle>
                    <activevideoangle>true</activevideoangle>
                    <activeaudioangle>true</activeaudioangle>
                    <clip id="clip-2"/>
                  </angle>
                  <angle>
                    <activevideoangle>false</activevideoangle>
                    <activeaudioangle>false</activeaudioangle>
                    <clip id="clip-3"/>
                  </angle>
                  <angle>
                    <activevideoangle>false</activevideoangle>
                    <activeaudioangle>false</activeaudioangle>
                    <clip id="clip-4"/>
                  </angle>
                  <angle>
                    <activevideoangle>false</activevideoangle>
                    <activeaudioangle>false</activeaudioangle>
                    <clip id="clip-5"/>
                  </angle>
                  <angle>
                    <activevideoangle>false</activevideoangle>
                    <activeaudioangle>false</activeaudioangle>
                    <clip id="clip-6"/>
                  </angle>
                  <angle>
                    <activevideoangle>false</activevideoangle>
                    <activeaudioangle>false</activeaudioangle>
                    <clip id="clip-7"/>
                  </angle>
                  <angle>
                    <activevideoangle>false</activevideoangle>
                    <activeaudioangle>false</activeaudioangle>
                    <clip id="clip-8"/>
                  </angle>
                  <angle>
                    <activevideoangle>false</activevideoangle>
                    <activeaudioangle>false</activeaudioangle>
                    <clip id="clip-9"/>
                  </angle>
                  <masterclipid>clip-master</masterclipid>
                </multiclip>
              </clipitem>
              <clipitem id="cs-494">
                <duration>113</duration>
                <rate>
                  <ntsc>false</ntsc>
                  <timebase>25</timebase>
                </rate>
                <in>74051</in>
                <out>74163</out>
                <start>74051</start>
                <end>74163</end>
                <file id="src-4"/>
                <sourcetrack>
                  <mediatype>video</mediatype>
                  <trackindex>1</trackindex>
                </sourcetrack>
                <multiclip id="mcs-494">
                  <name>MCS-494</name>
                  <masterclipid>clip-master</masterclipid>
                  <collapsed>false</collapsed>
                  <angle>
                    <activevideoangle>false</activevideoangle>
                    <activeaudioangle>false</activeaudioangle>
                    <clip id="clip-1"/>
                  </angle>
                  <angle>
                    <activevideoangle>false</activevideoangle>
                    <activeaudioangle>false</activeaudioangle>
                    <clip id="clip-2"/>
                  </angle>
                  <angle>
                    <activevideoangle>false</activevideoangle>
                    <activeaudioangle>false</activeaudioangle>
                    <clip id="clip-3"/>
                  </angle>
                  <angle>
                    <activevideoangle>true</activevideoangle>
                    <activeaudioangle>true</activeaudioangle>
                    <clip id="clip-4"/>
                  </angle>
                  <angle>
                    <activevideoangle>false</activevideoangle>
                    <activeaudioangle>false</activeaudioangle>
                    <clip id="clip-5"/>
                  </angle>
                  <angle>
                    <activevideoangle>false</activevideoangle>
                    <activeaudioangle>false</activeaudioangle>
                    <clip id="clip-6"/>
                  </angle>
                  <angle>
                    <activevideoangle>false</activevideoangle>
                    <activeaudioangle>false</activeaudioangle>
                    <clip id="clip-7"/>
                  </angle>
                  <angle>
                    <activevideoangle>false</activevideoangle>
                    <activeaudioangle>false</activeaudioangle>
                    <clip id="clip-8"/>
                  </angle>
                  <angle>
                    <activevideoangle>false</activevideoangle>
                    <activeaudioangle>false</activeaudioangle>
                    <clip id="clip-9"/>
                  </angle>
                  <masterclipid>clip-master</masterclipid>
                </multiclip>
              </clipitem>
              <clipitem id="cs-495">
                <duration>271</duration>
                <rate>
                  <ntsc>false</ntsc>
                  <timebase>25</timebase>
                </rate>
                <in>74163</in>
                <out>74433</out>
                <start>74163</start>
                <end>74433</end>
                <file id="src-2"/>
                <sourcetrack>
                  <mediatype>video</mediatype>
                  <trackindex>1</trackindex>
                </sourcetrack>
                <multiclip id="mcs-495">
                  <name>MCS-495</name>
                  <masterclipid>clip-master</masterclipid>
                  <collapsed>false</collapsed>
                  <angle>
                    <activevideoangle>false</activevideoangle>
                    <activeaudioangle>false</activeaudioangle>
                    <clip id="clip-1"/>
                  </angle>
                  <angle>
                    <activevideoangle>true</activevideoangle>
                    <activeaudioangle>true</activeaudioangle>
                    <clip id="clip-2"/>
                  </angle>
                  <angle>
                    <activevideoangle>false</activevideoangle>
                    <activeaudioangle>false</activeaudioangle>
                    <clip id="clip-3"/>
                  </angle>
                  <angle>
                    <activevideoangle>false</activevideoangle>
                    <activeaudioangle>false</activeaudioangle>
                    <clip id="clip-4"/>
                  </angle>
                  <angle>
                    <activevideoangle>false</activevideoangle>
                    <activeaudioangle>false</activeaudioangle>
                    <clip id="clip-5"/>
                  </angle>
                  <angle>
                    <activevideoangle>false</activevideoangle>
                    <activeaudioangle>false</activeaudioangle>
                    <clip id="clip-6"/>
                  </angle>
                  <angle>
                    <activevideoangle>false</activevideoangle>
                    <activeaudioangle>false</activeaudioangle>
                    <clip id="clip-7"/>
                  </angle>
                  <angle>
                    <activevideoangle>false</activevideoangle>
                    <activeaudioangle>false</activeaudioangle>
                    <clip id="clip-8"/>
                  </angle>
                  <angle>
                    <activevideoangle>false</activevideoangle>
                    <activeaudioangle>false</activeaudioangle>
                    <clip id="clip-9"/>
                  </angle>
                  <masterclipid>clip-master</masterclipid>
                </multiclip>
              </clipitem>
              <clipitem id="cs-496">
                <duration>182</duration>
                <rate>
                  <ntsc>false</ntsc>
                  <timebase>25</timebase>
                </rate>
                <in>74433</in>
                <out>74614</out>
                <start>74433</start>
                <end>74614</end>
                <file id="src-3"/>
                <sourcetrack>
                  <mediatype>video</mediatype>
                  <trackindex>1</trackindex>
                </sourcetrack>
                <multiclip id="mcs-496">
                  <name>MCS-496</name>
                  <masterclipid>clip-master</masterclipid>
                  <collapsed>false</collapsed>
                  <angle>
                    <activevideoangle>false</activevideoangle>
                    <activeaudioangle>false</activeaudioangle>
                    <clip id="clip-1"/>
                  </angle>
                  <angle>
                    <activevideoangle>false</activevideoangle>
                    <activeaudioangle>false</activeaudioangle>
                    <clip id="clip-2"/>
                  </angle>
                  <angle>
                    <activevideoangle>true</activevideoangle>
                    <activeaudioangle>true</activeaudioangle>
                    <clip id="clip-3"/>
                  </angle>
                  <angle>
                    <activevideoangle>false</activevideoangle>
                    <activeaudioangle>false</activeaudioangle>
                    <clip id="clip-4"/>
                  </angle>
                  <angle>
                    <activevideoangle>false</activevideoangle>
                    <activeaudioangle>false</activeaudioangle>
                    <clip id="clip-5"/>
                  </angle>
                  <angle>
                    <activevideoangle>false</activevideoangle>
                    <activeaudioangle>false</activeaudioangle>
                    <clip id="clip-6"/>
                  </angle>
                  <angle>
                    <activevideoangle>false</activevideoangle>
                    <activeaudioangle>false</activeaudioangle>
                    <clip id="clip-7"/>
                  </angle>
                  <angle>
                    <activevideoangle>false</activevideoangle>
                    <activeaudioangle>false</activeaudioangle>
                    <clip id="clip-8"/>
                  </angle>
                  <angle>
                    <activevideoangle>false</activevideoangle>
                    <activeaudioangle>false</activeaudioangle>
                    <clip id="clip-9"/>
                  </angle>
                  <masterclipid>clip-master</masterclipid>
                </multiclip>
              </clipitem>
              <clipitem id="cs-497">
                <duration>85</duration>
                <rate>
                  <ntsc>false</ntsc>
                  <timebase>25</timebase>
                </rate>
                <in>74614</in>
                <out>74698</out>
                <start>74614</start>
                <end>74698</end>
                <file id="src-2"/>
                <sourcetrack>
                  <mediatype>video</mediatype>
                  <trackindex>1</trackindex>
                </sourcetrack>
                <multiclip id="mcs-497">
                  <name>MCS-497</name>
                  <masterclipid>clip-master</masterclipid>
                  <collapsed>false</collapsed>
                  <angle>
                    <activevideoangle>false</activevideoangle>
                    <activeaudioangle>false</activeaudioangle>
                    <clip id="clip-1"/>
                  </angle>
                  <angle>
                    <activevideoangle>true</activevideoangle>
                    <activeaudioangle>true</activeaudioangle>
                    <clip id="clip-2"/>
                  </angle>
                  <angle>
                    <activevideoangle>false</activevideoangle>
                    <activeaudioangle>false</activeaudioangle>
                    <clip id="clip-3"/>
                  </angle>
                  <angle>
                    <activevideoangle>false</activevideoangle>
                    <activeaudioangle>false</activeaudioangle>
                    <clip id="clip-4"/>
                  </angle>
                  <angle>
                    <activevideoangle>false</activevideoangle>
                    <activeaudioangle>false</activeaudioangle>
                    <clip id="clip-5"/>
                  </angle>
                  <angle>
                    <activevideoangle>false</activevideoangle>
                    <activeaudioangle>false</activeaudioangle>
                    <clip id="clip-6"/>
                  </angle>
                  <angle>
                    <activevideoangle>false</activevideoangle>
                    <activeaudioangle>false</activeaudioangle>
                    <clip id="clip-7"/>
                  </angle>
                  <angle>
                    <activevideoangle>false</activevideoangle>
                    <activeaudioangle>false</activeaudioangle>
                    <clip id="clip-8"/>
                  </angle>
                  <angle>
                    <activevideoangle>false</activevideoangle>
                    <activeaudioangle>false</activeaudioangle>
                    <clip id="clip-9"/>
                  </angle>
                  <masterclipid>clip-master</masterclipid>
                </multiclip>
              </clipitem>
              <clipitem id="cs-498">
                <duration>98</duration>
                <rate>
                  <ntsc>false</ntsc>
                  <timebase>25</timebase>
                </rate>
                <in>74698</in>
                <out>74795</out>
                <start>74698</start>
                <end>74795</end>
                <file id="src-3"/>
                <sourcetrack>
                  <mediatype>video</mediatype>
                  <trackindex>1</trackindex>
                </sourcetrack>
                <multiclip id="mcs-498">
                  <name>MCS-498</name>
                  <masterclipid>clip-master</masterclipid>
                  <collapsed>false</collapsed>
                  <angle>
                    <activevideoangle>false</activevideoangle>
                    <activeaudioangle>false</activeaudioangle>
                    <clip id="clip-1"/>
                  </angle>
                  <angle>
                    <activevideoangle>false</activevideoangle>
                    <activeaudioangle>false</activeaudioangle>
                    <clip id="clip-2"/>
                  </angle>
                  <angle>
                    <activevideoangle>true</activevideoangle>
                    <activeaudioangle>true</activeaudioangle>
                    <clip id="clip-3"/>
                  </angle>
                  <angle>
                    <activevideoangle>false</activevideoangle>
                    <activeaudioangle>false</activeaudioangle>
                    <clip id="clip-4"/>
                  </angle>
                  <angle>
                    <activevideoangle>false</activevideoangle>
                    <activeaudioangle>false</activeaudioangle>
                    <clip id="clip-5"/>
                  </angle>
                  <angle>
                    <activevideoangle>false</activevideoangle>
                    <activeaudioangle>false</activeaudioangle>
                    <clip id="clip-6"/>
                  </angle>
                  <angle>
                    <activevideoangle>false</activevideoangle>
                    <activeaudioangle>false</activeaudioangle>
                    <clip id="clip-7"/>
                  </angle>
                  <angle>
                    <activevideoangle>false</activevideoangle>
                    <activeaudioangle>false</activeaudioangle>
                    <clip id="clip-8"/>
                  </angle>
                  <angle>
                    <activevideoangle>false</activevideoangle>
                    <activeaudioangle>false</activeaudioangle>
                    <clip id="clip-9"/>
                  </angle>
                  <masterclipid>clip-master</masterclipid>
                </multiclip>
              </clipitem>
              <clipitem id="cs-499">
                <duration>92</duration>
                <rate>
                  <ntsc>false</ntsc>
                  <timebase>25</timebase>
                </rate>
                <in>74795</in>
                <out>74886</out>
                <start>74795</start>
                <end>74886</end>
                <file id="src-6"/>
                <sourcetrack>
                  <mediatype>video</mediatype>
                  <trackindex>1</trackindex>
                </sourcetrack>
                <multiclip id="mcs-499">
                  <name>MCS-499</name>
                  <masterclipid>clip-master</masterclipid>
                  <collapsed>false</collapsed>
                  <angle>
                    <activevideoangle>false</activevideoangle>
                    <activeaudioangle>false</activeaudioangle>
                    <clip id="clip-1"/>
                  </angle>
                  <angle>
                    <activevideoangle>false</activevideoangle>
                    <activeaudioangle>false</activeaudioangle>
                    <clip id="clip-2"/>
                  </angle>
                  <angle>
                    <activevideoangle>false</activevideoangle>
                    <activeaudioangle>false</activeaudioangle>
                    <clip id="clip-3"/>
                  </angle>
                  <angle>
                    <activevideoangle>false</activevideoangle>
                    <activeaudioangle>false</activeaudioangle>
                    <clip id="clip-4"/>
                  </angle>
                  <angle>
                    <activevideoangle>false</activevideoangle>
                    <activeaudioangle>false</activeaudioangle>
                    <clip id="clip-5"/>
                  </angle>
                  <angle>
                    <activevideoangle>true</activevideoangle>
                    <activeaudioangle>true</activeaudioangle>
                    <clip id="clip-6"/>
                  </angle>
                  <angle>
                    <activevideoangle>false</activevideoangle>
                    <activeaudioangle>false</activeaudioangle>
                    <clip id="clip-7"/>
                  </angle>
                  <angle>
                    <activevideoangle>false</activevideoangle>
                    <activeaudioangle>false</activeaudioangle>
                    <clip id="clip-8"/>
                  </angle>
                  <angle>
                    <activevideoangle>false</activevideoangle>
                    <activeaudioangle>false</activeaudioangle>
                    <clip id="clip-9"/>
                  </angle>
                  <masterclipid>clip-master</masterclipid>
                </multiclip>
              </clipitem>
              <clipitem id="cs-500">
                <duration>101</duration>
                <rate>
                  <ntsc>false</ntsc>
                  <timebase>25</timebase>
                </rate>
                <in>74886</in>
                <out>74986</out>
                <start>74886</start>
                <end>74986</end>
                <file id="src-4"/>
                <sourcetrack>
                  <mediatype>video</mediatype>
                  <trackindex>1</trackindex>
                </sourcetrack>
                <multiclip id="mcs-500">
                  <name>MCS-500</name>
                  <masterclipid>clip-master</masterclipid>
                  <collapsed>false</collapsed>
                  <angle>
                    <activevideoangle>false</activevideoangle>
                    <activeaudioangle>false</activeaudioangle>
                    <clip id="clip-1"/>
                  </angle>
                  <angle>
                    <activevideoangle>false</activevideoangle>
                    <activeaudioangle>false</activeaudioangle>
                    <clip id="clip-2"/>
                  </angle>
                  <angle>
                    <activevideoangle>false</activevideoangle>
                    <activeaudioangle>false</activeaudioangle>
                    <clip id="clip-3"/>
                  </angle>
                  <angle>
                    <activevideoangle>true</activevideoangle>
                    <activeaudioangle>true</activeaudioangle>
                    <clip id="clip-4"/>
                  </angle>
                  <angle>
                    <activevideoangle>false</activevideoangle>
                    <activeaudioangle>false</activeaudioangle>
                    <clip id="clip-5"/>
                  </angle>
                  <angle>
                    <activevideoangle>false</activevideoangle>
                    <activeaudioangle>false</activeaudioangle>
                    <clip id="clip-6"/>
                  </angle>
                  <angle>
                    <activevideoangle>false</activevideoangle>
                    <activeaudioangle>false</activeaudioangle>
                    <clip id="clip-7"/>
                  </angle>
                  <angle>
                    <activevideoangle>false</activevideoangle>
                    <activeaudioangle>false</activeaudioangle>
                    <clip id="clip-8"/>
                  </angle>
                  <angle>
                    <activevideoangle>false</activevideoangle>
                    <activeaudioangle>false</activeaudioangle>
                    <clip id="clip-9"/>
                  </angle>
                  <masterclipid>clip-master</masterclipid>
                </multiclip>
              </clipitem>
              <clipitem id="cs-501">
                <duration>145</duration>
                <rate>
                  <ntsc>false</ntsc>
                  <timebase>25</timebase>
                </rate>
                <in>74986</in>
                <out>75130</out>
                <start>74986</start>
                <end>75130</end>
                <file id="src-2"/>
                <sourcetrack>
                  <mediatype>video</mediatype>
                  <trackindex>1</trackindex>
                </sourcetrack>
                <multiclip id="mcs-501">
                  <name>MCS-501</name>
                  <masterclipid>clip-master</masterclipid>
                  <collapsed>false</collapsed>
                  <angle>
                    <activevideoangle>false</activevideoangle>
                    <activeaudioangle>false</activeaudioangle>
                    <clip id="clip-1"/>
                  </angle>
                  <angle>
                    <activevideoangle>true</activevideoangle>
                    <activeaudioangle>true</activeaudioangle>
                    <clip id="clip-2"/>
                  </angle>
                  <angle>
                    <activevideoangle>false</activevideoangle>
                    <activeaudioangle>false</activeaudioangle>
                    <clip id="clip-3"/>
                  </angle>
                  <angle>
                    <activevideoangle>false</activevideoangle>
                    <activeaudioangle>false</activeaudioangle>
                    <clip id="clip-4"/>
                  </angle>
                  <angle>
                    <activevideoangle>false</activevideoangle>
                    <activeaudioangle>false</activeaudioangle>
                    <clip id="clip-5"/>
                  </angle>
                  <angle>
                    <activevideoangle>false</activevideoangle>
                    <activeaudioangle>false</activeaudioangle>
                    <clip id="clip-6"/>
                  </angle>
                  <angle>
                    <activevideoangle>false</activevideoangle>
                    <activeaudioangle>false</activeaudioangle>
                    <clip id="clip-7"/>
                  </angle>
                  <angle>
                    <activevideoangle>false</activevideoangle>
                    <activeaudioangle>false</activeaudioangle>
                    <clip id="clip-8"/>
                  </angle>
                  <angle>
                    <activevideoangle>false</activevideoangle>
                    <activeaudioangle>false</activeaudioangle>
                    <clip id="clip-9"/>
                  </angle>
                  <masterclipid>clip-master</masterclipid>
                </multiclip>
              </clipitem>
              <clipitem id="cs-502">
                <duration>110</duration>
                <rate>
                  <ntsc>false</ntsc>
                  <timebase>25</timebase>
                </rate>
                <in>75130</in>
                <out>75239</out>
                <start>75130</start>
                <end>75239</end>
                <file id="src-4"/>
                <sourcetrack>
                  <mediatype>video</mediatype>
                  <trackindex>1</trackindex>
                </sourcetrack>
                <multiclip id="mcs-502">
                  <name>MCS-502</name>
                  <masterclipid>clip-master</masterclipid>
                  <collapsed>false</collapsed>
                  <angle>
                    <activevideoangle>false</activevideoangle>
                    <activeaudioangle>false</activeaudioangle>
                    <clip id="clip-1"/>
                  </angle>
                  <angle>
                    <activevideoangle>false</activevideoangle>
                    <activeaudioangle>false</activeaudioangle>
                    <clip id="clip-2"/>
                  </angle>
                  <angle>
                    <activevideoangle>false</activevideoangle>
                    <activeaudioangle>false</activeaudioangle>
                    <clip id="clip-3"/>
                  </angle>
                  <angle>
                    <activevideoangle>true</activevideoangle>
                    <activeaudioangle>true</activeaudioangle>
                    <clip id="clip-4"/>
                  </angle>
                  <angle>
                    <activevideoangle>false</activevideoangle>
                    <activeaudioangle>false</activeaudioangle>
                    <clip id="clip-5"/>
                  </angle>
                  <angle>
                    <activevideoangle>false</activevideoangle>
                    <activeaudioangle>false</activeaudioangle>
                    <clip id="clip-6"/>
                  </angle>
                  <angle>
                    <activevideoangle>false</activevideoangle>
                    <activeaudioangle>false</activeaudioangle>
                    <clip id="clip-7"/>
                  </angle>
                  <angle>
                    <activevideoangle>false</activevideoangle>
                    <activeaudioangle>false</activeaudioangle>
                    <clip id="clip-8"/>
                  </angle>
                  <angle>
                    <activevideoangle>false</activevideoangle>
                    <activeaudioangle>false</activeaudioangle>
                    <clip id="clip-9"/>
                  </angle>
                  <masterclipid>clip-master</masterclipid>
                </multiclip>
              </clipitem>
              <clipitem id="cs-503">
                <duration>169</duration>
                <rate>
                  <ntsc>false</ntsc>
                  <timebase>25</timebase>
                </rate>
                <in>75239</in>
                <out>75407</out>
                <start>75239</start>
                <end>75407</end>
                <file id="src-3"/>
                <sourcetrack>
                  <mediatype>video</mediatype>
                  <trackindex>1</trackindex>
                </sourcetrack>
                <multiclip id="mcs-503">
                  <name>MCS-503</name>
                  <masterclipid>clip-master</masterclipid>
                  <collapsed>false</collapsed>
                  <angle>
                    <activevideoangle>false</activevideoangle>
                    <activeaudioangle>false</activeaudioangle>
                    <clip id="clip-1"/>
                  </angle>
                  <angle>
                    <activevideoangle>false</activevideoangle>
                    <activeaudioangle>false</activeaudioangle>
                    <clip id="clip-2"/>
                  </angle>
                  <angle>
                    <activevideoangle>true</activevideoangle>
                    <activeaudioangle>true</activeaudioangle>
                    <clip id="clip-3"/>
                  </angle>
                  <angle>
                    <activevideoangle>false</activevideoangle>
                    <activeaudioangle>false</activeaudioangle>
                    <clip id="clip-4"/>
                  </angle>
                  <angle>
                    <activevideoangle>false</activevideoangle>
                    <activeaudioangle>false</activeaudioangle>
                    <clip id="clip-5"/>
                  </angle>
                  <angle>
                    <activevideoangle>false</activevideoangle>
                    <activeaudioangle>false</activeaudioangle>
                    <clip id="clip-6"/>
                  </angle>
                  <angle>
                    <activevideoangle>false</activevideoangle>
                    <activeaudioangle>false</activeaudioangle>
                    <clip id="clip-7"/>
                  </angle>
                  <angle>
                    <activevideoangle>false</activevideoangle>
                    <activeaudioangle>false</activeaudioangle>
                    <clip id="clip-8"/>
                  </angle>
                  <angle>
                    <activevideoangle>false</activevideoangle>
                    <activeaudioangle>false</activeaudioangle>
                    <clip id="clip-9"/>
                  </angle>
                  <masterclipid>clip-master</masterclipid>
                </multiclip>
              </clipitem>
              <clipitem id="cs-504">
                <duration>159</duration>
                <rate>
                  <ntsc>false</ntsc>
                  <timebase>25</timebase>
                </rate>
                <in>75407</in>
                <out>75565</out>
                <start>75407</start>
                <end>75565</end>
                <file id="src-4"/>
                <sourcetrack>
                  <mediatype>video</mediatype>
                  <trackindex>1</trackindex>
                </sourcetrack>
                <multiclip id="mcs-504">
                  <name>MCS-504</name>
                  <masterclipid>clip-master</masterclipid>
                  <collapsed>false</collapsed>
                  <angle>
                    <activevideoangle>false</activevideoangle>
                    <activeaudioangle>false</activeaudioangle>
                    <clip id="clip-1"/>
                  </angle>
                  <angle>
                    <activevideoangle>false</activevideoangle>
                    <activeaudioangle>false</activeaudioangle>
                    <clip id="clip-2"/>
                  </angle>
                  <angle>
                    <activevideoangle>false</activevideoangle>
                    <activeaudioangle>false</activeaudioangle>
                    <clip id="clip-3"/>
                  </angle>
                  <angle>
                    <activevideoangle>true</activevideoangle>
                    <activeaudioangle>true</activeaudioangle>
                    <clip id="clip-4"/>
                  </angle>
                  <angle>
                    <activevideoangle>false</activevideoangle>
                    <activeaudioangle>false</activeaudioangle>
                    <clip id="clip-5"/>
                  </angle>
                  <angle>
                    <activevideoangle>false</activevideoangle>
                    <activeaudioangle>false</activeaudioangle>
                    <clip id="clip-6"/>
                  </angle>
                  <angle>
                    <activevideoangle>false</activevideoangle>
                    <activeaudioangle>false</activeaudioangle>
                    <clip id="clip-7"/>
                  </angle>
                  <angle>
                    <activevideoangle>false</activevideoangle>
                    <activeaudioangle>false</activeaudioangle>
                    <clip id="clip-8"/>
                  </angle>
                  <angle>
                    <activevideoangle>false</activevideoangle>
                    <activeaudioangle>false</activeaudioangle>
                    <clip id="clip-9"/>
                  </angle>
                  <masterclipid>clip-master</masterclipid>
                </multiclip>
              </clipitem>
              <clipitem id="cs-505">
                <duration>99</duration>
                <rate>
                  <ntsc>false</ntsc>
                  <timebase>25</timebase>
                </rate>
                <in>75565</in>
                <out>75663</out>
                <start>75565</start>
                <end>75663</end>
                <file id="src-2"/>
                <sourcetrack>
                  <mediatype>video</mediatype>
                  <trackindex>1</trackindex>
                </sourcetrack>
                <multiclip id="mcs-505">
                  <name>MCS-505</name>
                  <masterclipid>clip-master</masterclipid>
                  <collapsed>false</collapsed>
                  <angle>
                    <activevideoangle>false</activevideoangle>
                    <activeaudioangle>false</activeaudioangle>
                    <clip id="clip-1"/>
                  </angle>
                  <angle>
                    <activevideoangle>true</activevideoangle>
                    <activeaudioangle>true</activeaudioangle>
                    <clip id="clip-2"/>
                  </angle>
                  <angle>
                    <activevideoangle>false</activevideoangle>
                    <activeaudioangle>false</activeaudioangle>
                    <clip id="clip-3"/>
                  </angle>
                  <angle>
                    <activevideoangle>false</activevideoangle>
                    <activeaudioangle>false</activeaudioangle>
                    <clip id="clip-4"/>
                  </angle>
                  <angle>
                    <activevideoangle>false</activevideoangle>
                    <activeaudioangle>false</activeaudioangle>
                    <clip id="clip-5"/>
                  </angle>
                  <angle>
                    <activevideoangle>false</activevideoangle>
                    <activeaudioangle>false</activeaudioangle>
                    <clip id="clip-6"/>
                  </angle>
                  <angle>
                    <activevideoangle>false</activevideoangle>
                    <activeaudioangle>false</activeaudioangle>
                    <clip id="clip-7"/>
                  </angle>
                  <angle>
                    <activevideoangle>false</activevideoangle>
                    <activeaudioangle>false</activeaudioangle>
                    <clip id="clip-8"/>
                  </angle>
                  <angle>
                    <activevideoangle>false</activevideoangle>
                    <activeaudioangle>false</activeaudioangle>
                    <clip id="clip-9"/>
                  </angle>
                  <masterclipid>clip-master</masterclipid>
                </multiclip>
              </clipitem>
              <clipitem id="cs-506">
                <duration>238</duration>
                <rate>
                  <ntsc>false</ntsc>
                  <timebase>25</timebase>
                </rate>
                <in>75663</in>
                <out>75900</out>
                <start>75663</start>
                <end>75900</end>
                <file id="src-1"/>
                <sourcetrack>
                  <mediatype>video</mediatype>
                  <trackindex>1</trackindex>
                </sourcetrack>
                <multiclip id="mcs-506">
                  <name>MCS-506</name>
                  <masterclipid>clip-master</masterclipid>
                  <collapsed>false</collapsed>
                  <angle>
                    <activevideoangle>true</activevideoangle>
                    <activeaudioangle>true</activeaudioangle>
                    <clip id="clip-1"/>
                  </angle>
                  <angle>
                    <activevideoangle>false</activevideoangle>
                    <activeaudioangle>false</activeaudioangle>
                    <clip id="clip-2"/>
                  </angle>
                  <angle>
                    <activevideoangle>false</activevideoangle>
                    <activeaudioangle>false</activeaudioangle>
                    <clip id="clip-3"/>
                  </angle>
                  <angle>
                    <activevideoangle>false</activevideoangle>
                    <activeaudioangle>false</activeaudioangle>
                    <clip id="clip-4"/>
                  </angle>
                  <angle>
                    <activevideoangle>false</activevideoangle>
                    <activeaudioangle>false</activeaudioangle>
                    <clip id="clip-5"/>
                  </angle>
                  <angle>
                    <activevideoangle>false</activevideoangle>
                    <activeaudioangle>false</activeaudioangle>
                    <clip id="clip-6"/>
                  </angle>
                  <angle>
                    <activevideoangle>false</activevideoangle>
                    <activeaudioangle>false</activeaudioangle>
                    <clip id="clip-7"/>
                  </angle>
                  <angle>
                    <activevideoangle>false</activevideoangle>
                    <activeaudioangle>false</activeaudioangle>
                    <clip id="clip-8"/>
                  </angle>
                  <angle>
                    <activevideoangle>false</activevideoangle>
                    <activeaudioangle>false</activeaudioangle>
                    <clip id="clip-9"/>
                  </angle>
                  <masterclipid>clip-master</masterclipid>
                </multiclip>
              </clipitem>
              <clipitem id="cs-507">
                <duration>214</duration>
                <rate>
                  <ntsc>false</ntsc>
                  <timebase>25</timebase>
                </rate>
                <in>75900</in>
                <out>76113</out>
                <start>75900</start>
                <end>76113</end>
                <file id="src-4"/>
                <sourcetrack>
                  <mediatype>video</mediatype>
                  <trackindex>1</trackindex>
                </sourcetrack>
                <multiclip id="mcs-507">
                  <name>MCS-507</name>
                  <masterclipid>clip-master</masterclipid>
                  <collapsed>false</collapsed>
                  <angle>
                    <activevideoangle>false</activevideoangle>
                    <activeaudioangle>false</activeaudioangle>
                    <clip id="clip-1"/>
                  </angle>
                  <angle>
                    <activevideoangle>false</activevideoangle>
                    <activeaudioangle>false</activeaudioangle>
                    <clip id="clip-2"/>
                  </angle>
                  <angle>
                    <activevideoangle>false</activevideoangle>
                    <activeaudioangle>false</activeaudioangle>
                    <clip id="clip-3"/>
                  </angle>
                  <angle>
                    <activevideoangle>true</activevideoangle>
                    <activeaudioangle>true</activeaudioangle>
                    <clip id="clip-4"/>
                  </angle>
                  <angle>
                    <activevideoangle>false</activevideoangle>
                    <activeaudioangle>false</activeaudioangle>
                    <clip id="clip-5"/>
                  </angle>
                  <angle>
                    <activevideoangle>false</activevideoangle>
                    <activeaudioangle>false</activeaudioangle>
                    <clip id="clip-6"/>
                  </angle>
                  <angle>
                    <activevideoangle>false</activevideoangle>
                    <activeaudioangle>false</activeaudioangle>
                    <clip id="clip-7"/>
                  </angle>
                  <angle>
                    <activevideoangle>false</activevideoangle>
                    <activeaudioangle>false</activeaudioangle>
                    <clip id="clip-8"/>
                  </angle>
                  <angle>
                    <activevideoangle>false</activevideoangle>
                    <activeaudioangle>false</activeaudioangle>
                    <clip id="clip-9"/>
                  </angle>
                  <masterclipid>clip-master</masterclipid>
                </multiclip>
              </clipitem>
              <clipitem id="cs-508">
                <duration>176</duration>
                <rate>
                  <ntsc>false</ntsc>
                  <timebase>25</timebase>
                </rate>
                <in>76113</in>
                <out>76288</out>
                <start>76113</start>
                <end>76288</end>
                <file id="src-3"/>
                <sourcetrack>
                  <mediatype>video</mediatype>
                  <trackindex>1</trackindex>
                </sourcetrack>
                <multiclip id="mcs-508">
                  <name>MCS-508</name>
                  <masterclipid>clip-master</masterclipid>
                  <collapsed>false</collapsed>
                  <angle>
                    <activevideoangle>false</activevideoangle>
                    <activeaudioangle>false</activeaudioangle>
                    <clip id="clip-1"/>
                  </angle>
                  <angle>
                    <activevideoangle>false</activevideoangle>
                    <activeaudioangle>false</activeaudioangle>
                    <clip id="clip-2"/>
                  </angle>
                  <angle>
                    <activevideoangle>true</activevideoangle>
                    <activeaudioangle>true</activeaudioangle>
                    <clip id="clip-3"/>
                  </angle>
                  <angle>
                    <activevideoangle>false</activevideoangle>
                    <activeaudioangle>false</activeaudioangle>
                    <clip id="clip-4"/>
                  </angle>
                  <angle>
                    <activevideoangle>false</activevideoangle>
                    <activeaudioangle>false</activeaudioangle>
                    <clip id="clip-5"/>
                  </angle>
                  <angle>
                    <activevideoangle>false</activevideoangle>
                    <activeaudioangle>false</activeaudioangle>
                    <clip id="clip-6"/>
                  </angle>
                  <angle>
                    <activevideoangle>false</activevideoangle>
                    <activeaudioangle>false</activeaudioangle>
                    <clip id="clip-7"/>
                  </angle>
                  <angle>
                    <activevideoangle>false</activevideoangle>
                    <activeaudioangle>false</activeaudioangle>
                    <clip id="clip-8"/>
                  </angle>
                  <angle>
                    <activevideoangle>false</activevideoangle>
                    <activeaudioangle>false</activeaudioangle>
                    <clip id="clip-9"/>
                  </angle>
                  <masterclipid>clip-master</masterclipid>
                </multiclip>
              </clipitem>
              <clipitem id="cs-509">
                <duration>2590</duration>
                <rate>
                  <ntsc>false</ntsc>
                  <timebase>25</timebase>
                </rate>
                <in>76288</in>
                <out>78877</out>
                <start>76288</start>
                <end>78877</end>
                <file id="src-1"/>
                <sourcetrack>
                  <mediatype>video</mediatype>
                  <trackindex>1</trackindex>
                </sourcetrack>
                <multiclip id="mcs-509">
                  <name>MCS-509</name>
                  <masterclipid>clip-master</masterclipid>
                  <collapsed>false</collapsed>
                  <angle>
                    <activevideoangle>true</activevideoangle>
                    <activeaudioangle>true</activeaudioangle>
                    <clip id="clip-1"/>
                  </angle>
                  <angle>
                    <activevideoangle>false</activevideoangle>
                    <activeaudioangle>false</activeaudioangle>
                    <clip id="clip-2"/>
                  </angle>
                  <angle>
                    <activevideoangle>false</activevideoangle>
                    <activeaudioangle>false</activeaudioangle>
                    <clip id="clip-3"/>
                  </angle>
                  <angle>
                    <activevideoangle>false</activevideoangle>
                    <activeaudioangle>false</activeaudioangle>
                    <clip id="clip-4"/>
                  </angle>
                  <angle>
                    <activevideoangle>false</activevideoangle>
                    <activeaudioangle>false</activeaudioangle>
                    <clip id="clip-5"/>
                  </angle>
                  <angle>
                    <activevideoangle>false</activevideoangle>
                    <activeaudioangle>false</activeaudioangle>
                    <clip id="clip-6"/>
                  </angle>
                  <angle>
                    <activevideoangle>false</activevideoangle>
                    <activeaudioangle>false</activeaudioangle>
                    <clip id="clip-7"/>
                  </angle>
                  <angle>
                    <activevideoangle>false</activevideoangle>
                    <activeaudioangle>false</activeaudioangle>
                    <clip id="clip-8"/>
                  </angle>
                  <angle>
                    <activevideoangle>false</activevideoangle>
                    <activeaudioangle>false</activeaudioangle>
                    <clip id="clip-9"/>
                  </angle>
                  <masterclipid>clip-master</masterclipid>
                </multiclip>
              </clipitem>
              <clipitem id="cs-510">
                <duration>1210</duration>
                <rate>
                  <ntsc>false</ntsc>
                  <timebase>25</timebase>
                </rate>
                <in>78877</in>
                <out>80086</out>
                <start>78877</start>
                <end>80086</end>
                <file id="src-5"/>
                <sourcetrack>
                  <mediatype>video</mediatype>
                  <trackindex>1</trackindex>
                </sourcetrack>
                <multiclip id="mcs-510">
                  <name>MCS-510</name>
                  <masterclipid>clip-master</masterclipid>
                  <collapsed>false</collapsed>
                  <angle>
                    <activevideoangle>false</activevideoangle>
                    <activeaudioangle>false</activeaudioangle>
                    <clip id="clip-1"/>
                  </angle>
                  <angle>
                    <activevideoangle>false</activevideoangle>
                    <activeaudioangle>false</activeaudioangle>
                    <clip id="clip-2"/>
                  </angle>
                  <angle>
                    <activevideoangle>false</activevideoangle>
                    <activeaudioangle>false</activeaudioangle>
                    <clip id="clip-3"/>
                  </angle>
                  <angle>
                    <activevideoangle>false</activevideoangle>
                    <activeaudioangle>false</activeaudioangle>
                    <clip id="clip-4"/>
                  </angle>
                  <angle>
                    <activevideoangle>true</activevideoangle>
                    <activeaudioangle>true</activeaudioangle>
                    <clip id="clip-5"/>
                  </angle>
                  <angle>
                    <activevideoangle>false</activevideoangle>
                    <activeaudioangle>false</activeaudioangle>
                    <clip id="clip-6"/>
                  </angle>
                  <angle>
                    <activevideoangle>false</activevideoangle>
                    <activeaudioangle>false</activeaudioangle>
                    <clip id="clip-7"/>
                  </angle>
                  <angle>
                    <activevideoangle>false</activevideoangle>
                    <activeaudioangle>false</activeaudioangle>
                    <clip id="clip-8"/>
                  </angle>
                  <angle>
                    <activevideoangle>false</activevideoangle>
                    <activeaudioangle>false</activeaudioangle>
                    <clip id="clip-9"/>
                  </angle>
                  <masterclipid>clip-master</masterclipid>
                </multiclip>
              </clipitem>
              <clipitem id="cs-511">
                <duration>711</duration>
                <rate>
                  <ntsc>false</ntsc>
                  <timebase>25</timebase>
                </rate>
                <in>80086</in>
                <out>80796</out>
                <start>80086</start>
                <end>80796</end>
                <file id="src-1"/>
                <sourcetrack>
                  <mediatype>video</mediatype>
                  <trackindex>1</trackindex>
                </sourcetrack>
                <multiclip id="mcs-511">
                  <name>MCS-511</name>
                  <masterclipid>clip-master</masterclipid>
                  <collapsed>false</collapsed>
                  <angle>
                    <activevideoangle>true</activevideoangle>
                    <activeaudioangle>true</activeaudioangle>
                    <clip id="clip-1"/>
                  </angle>
                  <angle>
                    <activevideoangle>false</activevideoangle>
                    <activeaudioangle>false</activeaudioangle>
                    <clip id="clip-2"/>
                  </angle>
                  <angle>
                    <activevideoangle>false</activevideoangle>
                    <activeaudioangle>false</activeaudioangle>
                    <clip id="clip-3"/>
                  </angle>
                  <angle>
                    <activevideoangle>false</activevideoangle>
                    <activeaudioangle>false</activeaudioangle>
                    <clip id="clip-4"/>
                  </angle>
                  <angle>
                    <activevideoangle>false</activevideoangle>
                    <activeaudioangle>false</activeaudioangle>
                    <clip id="clip-5"/>
                  </angle>
                  <angle>
                    <activevideoangle>false</activevideoangle>
                    <activeaudioangle>false</activeaudioangle>
                    <clip id="clip-6"/>
                  </angle>
                  <angle>
                    <activevideoangle>false</activevideoangle>
                    <activeaudioangle>false</activeaudioangle>
                    <clip id="clip-7"/>
                  </angle>
                  <angle>
                    <activevideoangle>false</activevideoangle>
                    <activeaudioangle>false</activeaudioangle>
                    <clip id="clip-8"/>
                  </angle>
                  <angle>
                    <activevideoangle>false</activevideoangle>
                    <activeaudioangle>false</activeaudioangle>
                    <clip id="clip-9"/>
                  </angle>
                  <masterclipid>clip-master</masterclipid>
                </multiclip>
              </clipitem>
              <clipitem id="cs-512">
                <duration>171</duration>
                <rate>
                  <ntsc>false</ntsc>
                  <timebase>25</timebase>
                </rate>
                <in>80796</in>
                <out>80966</out>
                <start>80796</start>
                <end>80966</end>
                <file id="src-3"/>
                <sourcetrack>
                  <mediatype>video</mediatype>
                  <trackindex>1</trackindex>
                </sourcetrack>
                <multiclip id="mcs-512">
                  <name>MCS-512</name>
                  <masterclipid>clip-master</masterclipid>
                  <collapsed>false</collapsed>
                  <angle>
                    <activevideoangle>false</activevideoangle>
                    <activeaudioangle>false</activeaudioangle>
                    <clip id="clip-1"/>
                  </angle>
                  <angle>
                    <activevideoangle>false</activevideoangle>
                    <activeaudioangle>false</activeaudioangle>
                    <clip id="clip-2"/>
                  </angle>
                  <angle>
                    <activevideoangle>true</activevideoangle>
                    <activeaudioangle>true</activeaudioangle>
                    <clip id="clip-3"/>
                  </angle>
                  <angle>
                    <activevideoangle>false</activevideoangle>
                    <activeaudioangle>false</activeaudioangle>
                    <clip id="clip-4"/>
                  </angle>
                  <angle>
                    <activevideoangle>false</activevideoangle>
                    <activeaudioangle>false</activeaudioangle>
                    <clip id="clip-5"/>
                  </angle>
                  <angle>
                    <activevideoangle>false</activevideoangle>
                    <activeaudioangle>false</activeaudioangle>
                    <clip id="clip-6"/>
                  </angle>
                  <angle>
                    <activevideoangle>false</activevideoangle>
                    <activeaudioangle>false</activeaudioangle>
                    <clip id="clip-7"/>
                  </angle>
                  <angle>
                    <activevideoangle>false</activevideoangle>
                    <activeaudioangle>false</activeaudioangle>
                    <clip id="clip-8"/>
                  </angle>
                  <angle>
                    <activevideoangle>false</activevideoangle>
                    <activeaudioangle>false</activeaudioangle>
                    <clip id="clip-9"/>
                  </angle>
                  <masterclipid>clip-master</masterclipid>
                </multiclip>
              </clipitem>
              <clipitem id="cs-513">
                <duration>72</duration>
                <rate>
                  <ntsc>false</ntsc>
                  <timebase>25</timebase>
                </rate>
                <in>80966</in>
                <out>81037</out>
                <start>80966</start>
                <end>81037</end>
                <file id="src-5"/>
                <sourcetrack>
                  <mediatype>video</mediatype>
                  <trackindex>1</trackindex>
                </sourcetrack>
                <multiclip id="mcs-513">
                  <name>MCS-513</name>
                  <masterclipid>clip-master</masterclipid>
                  <collapsed>false</collapsed>
                  <angle>
                    <activevideoangle>false</activevideoangle>
                    <activeaudioangle>false</activeaudioangle>
                    <clip id="clip-1"/>
                  </angle>
                  <angle>
                    <activevideoangle>false</activevideoangle>
                    <activeaudioangle>false</activeaudioangle>
                    <clip id="clip-2"/>
                  </angle>
                  <angle>
                    <activevideoangle>false</activevideoangle>
                    <activeaudioangle>false</activeaudioangle>
                    <clip id="clip-3"/>
                  </angle>
                  <angle>
                    <activevideoangle>false</activevideoangle>
                    <activeaudioangle>false</activeaudioangle>
                    <clip id="clip-4"/>
                  </angle>
                  <angle>
                    <activevideoangle>true</activevideoangle>
                    <activeaudioangle>true</activeaudioangle>
                    <clip id="clip-5"/>
                  </angle>
                  <angle>
                    <activevideoangle>false</activevideoangle>
                    <activeaudioangle>false</activeaudioangle>
                    <clip id="clip-6"/>
                  </angle>
                  <angle>
                    <activevideoangle>false</activevideoangle>
                    <activeaudioangle>false</activeaudioangle>
                    <clip id="clip-7"/>
                  </angle>
                  <angle>
                    <activevideoangle>false</activevideoangle>
                    <activeaudioangle>false</activeaudioangle>
                    <clip id="clip-8"/>
                  </angle>
                  <angle>
                    <activevideoangle>false</activevideoangle>
                    <activeaudioangle>false</activeaudioangle>
                    <clip id="clip-9"/>
                  </angle>
                  <masterclipid>clip-master</masterclipid>
                </multiclip>
              </clipitem>
              <clipitem id="cs-514">
                <duration>271</duration>
                <rate>
                  <ntsc>false</ntsc>
                  <timebase>25</timebase>
                </rate>
                <in>81037</in>
                <out>81307</out>
                <start>81037</start>
                <end>81307</end>
                <file id="src-2"/>
                <sourcetrack>
                  <mediatype>video</mediatype>
                  <trackindex>1</trackindex>
                </sourcetrack>
                <multiclip id="mcs-514">
                  <name>MCS-514</name>
                  <masterclipid>clip-master</masterclipid>
                  <collapsed>false</collapsed>
                  <angle>
                    <activevideoangle>false</activevideoangle>
                    <activeaudioangle>false</activeaudioangle>
                    <clip id="clip-1"/>
                  </angle>
                  <angle>
                    <activevideoangle>true</activevideoangle>
                    <activeaudioangle>true</activeaudioangle>
                    <clip id="clip-2"/>
                  </angle>
                  <angle>
                    <activevideoangle>false</activevideoangle>
                    <activeaudioangle>false</activeaudioangle>
                    <clip id="clip-3"/>
                  </angle>
                  <angle>
                    <activevideoangle>false</activevideoangle>
                    <activeaudioangle>false</activeaudioangle>
                    <clip id="clip-4"/>
                  </angle>
                  <angle>
                    <activevideoangle>false</activevideoangle>
                    <activeaudioangle>false</activeaudioangle>
                    <clip id="clip-5"/>
                  </angle>
                  <angle>
                    <activevideoangle>false</activevideoangle>
                    <activeaudioangle>false</activeaudioangle>
                    <clip id="clip-6"/>
                  </angle>
                  <angle>
                    <activevideoangle>false</activevideoangle>
                    <activeaudioangle>false</activeaudioangle>
                    <clip id="clip-7"/>
                  </angle>
                  <angle>
                    <activevideoangle>false</activevideoangle>
                    <activeaudioangle>false</activeaudioangle>
                    <clip id="clip-8"/>
                  </angle>
                  <angle>
                    <activevideoangle>false</activevideoangle>
                    <activeaudioangle>false</activeaudioangle>
                    <clip id="clip-9"/>
                  </angle>
                  <masterclipid>clip-master</masterclipid>
                </multiclip>
              </clipitem>
              <clipitem id="cs-515">
                <duration>133</duration>
                <rate>
                  <ntsc>false</ntsc>
                  <timebase>25</timebase>
                </rate>
                <in>81307</in>
                <out>81439</out>
                <start>81307</start>
                <end>81439</end>
                <file id="src-7"/>
                <sourcetrack>
                  <mediatype>video</mediatype>
                  <trackindex>1</trackindex>
                </sourcetrack>
                <multiclip id="mcs-515">
                  <name>MCS-515</name>
                  <masterclipid>clip-master</masterclipid>
                  <collapsed>false</collapsed>
                  <angle>
                    <activevideoangle>false</activevideoangle>
                    <activeaudioangle>false</activeaudioangle>
                    <clip id="clip-1"/>
                  </angle>
                  <angle>
                    <activevideoangle>false</activevideoangle>
                    <activeaudioangle>false</activeaudioangle>
                    <clip id="clip-2"/>
                  </angle>
                  <angle>
                    <activevideoangle>false</activevideoangle>
                    <activeaudioangle>false</activeaudioangle>
                    <clip id="clip-3"/>
                  </angle>
                  <angle>
                    <activevideoangle>false</activevideoangle>
                    <activeaudioangle>false</activeaudioangle>
                    <clip id="clip-4"/>
                  </angle>
                  <angle>
                    <activevideoangle>false</activevideoangle>
                    <activeaudioangle>false</activeaudioangle>
                    <clip id="clip-5"/>
                  </angle>
                  <angle>
                    <activevideoangle>false</activevideoangle>
                    <activeaudioangle>false</activeaudioangle>
                    <clip id="clip-6"/>
                  </angle>
                  <angle>
                    <activevideoangle>true</activevideoangle>
                    <activeaudioangle>true</activeaudioangle>
                    <clip id="clip-7"/>
                  </angle>
                  <angle>
                    <activevideoangle>false</activevideoangle>
                    <activeaudioangle>false</activeaudioangle>
                    <clip id="clip-8"/>
                  </angle>
                  <angle>
                    <activevideoangle>false</activevideoangle>
                    <activeaudioangle>false</activeaudioangle>
                    <clip id="clip-9"/>
                  </angle>
                  <masterclipid>clip-master</masterclipid>
                </multiclip>
              </clipitem>
              <clipitem id="cs-516">
                <duration>135</duration>
                <rate>
                  <ntsc>false</ntsc>
                  <timebase>25</timebase>
                </rate>
                <in>81439</in>
                <out>81573</out>
                <start>81439</start>
                <end>81573</end>
                <file id="src-4"/>
                <sourcetrack>
                  <mediatype>video</mediatype>
                  <trackindex>1</trackindex>
                </sourcetrack>
                <multiclip id="mcs-516">
                  <name>MCS-516</name>
                  <masterclipid>clip-master</masterclipid>
                  <collapsed>false</collapsed>
                  <angle>
                    <activevideoangle>false</activevideoangle>
                    <activeaudioangle>false</activeaudioangle>
                    <clip id="clip-1"/>
                  </angle>
                  <angle>
                    <activevideoangle>false</activevideoangle>
                    <activeaudioangle>false</activeaudioangle>
                    <clip id="clip-2"/>
                  </angle>
                  <angle>
                    <activevideoangle>false</activevideoangle>
                    <activeaudioangle>false</activeaudioangle>
                    <clip id="clip-3"/>
                  </angle>
                  <angle>
                    <activevideoangle>true</activevideoangle>
                    <activeaudioangle>true</activeaudioangle>
                    <clip id="clip-4"/>
                  </angle>
                  <angle>
                    <activevideoangle>false</activevideoangle>
                    <activeaudioangle>false</activeaudioangle>
                    <clip id="clip-5"/>
                  </angle>
                  <angle>
                    <activevideoangle>false</activevideoangle>
                    <activeaudioangle>false</activeaudioangle>
                    <clip id="clip-6"/>
                  </angle>
                  <angle>
                    <activevideoangle>false</activevideoangle>
                    <activeaudioangle>false</activeaudioangle>
                    <clip id="clip-7"/>
                  </angle>
                  <angle>
                    <activevideoangle>false</activevideoangle>
                    <activeaudioangle>false</activeaudioangle>
                    <clip id="clip-8"/>
                  </angle>
                  <angle>
                    <activevideoangle>false</activevideoangle>
                    <activeaudioangle>false</activeaudioangle>
                    <clip id="clip-9"/>
                  </angle>
                  <masterclipid>clip-master</masterclipid>
                </multiclip>
              </clipitem>
              <clipitem id="cs-517">
                <duration>62</duration>
                <rate>
                  <ntsc>false</ntsc>
                  <timebase>25</timebase>
                </rate>
                <in>81573</in>
                <out>81634</out>
                <start>81573</start>
                <end>81634</end>
                <file id="src-7"/>
                <sourcetrack>
                  <mediatype>video</mediatype>
                  <trackindex>1</trackindex>
                </sourcetrack>
                <multiclip id="mcs-517">
                  <name>MCS-517</name>
                  <masterclipid>clip-master</masterclipid>
                  <collapsed>false</collapsed>
                  <angle>
                    <activevideoangle>false</activevideoangle>
                    <activeaudioangle>false</activeaudioangle>
                    <clip id="clip-1"/>
                  </angle>
                  <angle>
                    <activevideoangle>false</activevideoangle>
                    <activeaudioangle>false</activeaudioangle>
                    <clip id="clip-2"/>
                  </angle>
                  <angle>
                    <activevideoangle>false</activevideoangle>
                    <activeaudioangle>false</activeaudioangle>
                    <clip id="clip-3"/>
                  </angle>
                  <angle>
                    <activevideoangle>false</activevideoangle>
                    <activeaudioangle>false</activeaudioangle>
                    <clip id="clip-4"/>
                  </angle>
                  <angle>
                    <activevideoangle>false</activevideoangle>
                    <activeaudioangle>false</activeaudioangle>
                    <clip id="clip-5"/>
                  </angle>
                  <angle>
                    <activevideoangle>false</activevideoangle>
                    <activeaudioangle>false</activeaudioangle>
                    <clip id="clip-6"/>
                  </angle>
                  <angle>
                    <activevideoangle>true</activevideoangle>
                    <activeaudioangle>true</activeaudioangle>
                    <clip id="clip-7"/>
                  </angle>
                  <angle>
                    <activevideoangle>false</activevideoangle>
                    <activeaudioangle>false</activeaudioangle>
                    <clip id="clip-8"/>
                  </angle>
                  <angle>
                    <activevideoangle>false</activevideoangle>
                    <activeaudioangle>false</activeaudioangle>
                    <clip id="clip-9"/>
                  </angle>
                  <masterclipid>clip-master</masterclipid>
                </multiclip>
              </clipitem>
              <clipitem id="cs-518">
                <duration>512</duration>
                <rate>
                  <ntsc>false</ntsc>
                  <timebase>25</timebase>
                </rate>
                <in>81634</in>
                <out>82145</out>
                <start>81634</start>
                <end>82145</end>
                <file id="src-2"/>
                <sourcetrack>
                  <mediatype>video</mediatype>
                  <trackindex>1</trackindex>
                </sourcetrack>
                <multiclip id="mcs-518">
                  <name>MCS-518</name>
                  <masterclipid>clip-master</masterclipid>
                  <collapsed>false</collapsed>
                  <angle>
                    <activevideoangle>false</activevideoangle>
                    <activeaudioangle>false</activeaudioangle>
                    <clip id="clip-1"/>
                  </angle>
                  <angle>
                    <activevideoangle>true</activevideoangle>
                    <activeaudioangle>true</activeaudioangle>
                    <clip id="clip-2"/>
                  </angle>
                  <angle>
                    <activevideoangle>false</activevideoangle>
                    <activeaudioangle>false</activeaudioangle>
                    <clip id="clip-3"/>
                  </angle>
                  <angle>
                    <activevideoangle>false</activevideoangle>
                    <activeaudioangle>false</activeaudioangle>
                    <clip id="clip-4"/>
                  </angle>
                  <angle>
                    <activevideoangle>false</activevideoangle>
                    <activeaudioangle>false</activeaudioangle>
                    <clip id="clip-5"/>
                  </angle>
                  <angle>
                    <activevideoangle>false</activevideoangle>
                    <activeaudioangle>false</activeaudioangle>
                    <clip id="clip-6"/>
                  </angle>
                  <angle>
                    <activevideoangle>false</activevideoangle>
                    <activeaudioangle>false</activeaudioangle>
                    <clip id="clip-7"/>
                  </angle>
                  <angle>
                    <activevideoangle>false</activevideoangle>
                    <activeaudioangle>false</activeaudioangle>
                    <clip id="clip-8"/>
                  </angle>
                  <angle>
                    <activevideoangle>false</activevideoangle>
                    <activeaudioangle>false</activeaudioangle>
                    <clip id="clip-9"/>
                  </angle>
                  <masterclipid>clip-master</masterclipid>
                </multiclip>
              </clipitem>
              <clipitem id="cs-519">
                <duration>143</duration>
                <rate>
                  <ntsc>false</ntsc>
                  <timebase>25</timebase>
                </rate>
                <in>82145</in>
                <out>82287</out>
                <start>82145</start>
                <end>82287</end>
                <file id="src-3"/>
                <sourcetrack>
                  <mediatype>video</mediatype>
                  <trackindex>1</trackindex>
                </sourcetrack>
                <multiclip id="mcs-519">
                  <name>MCS-519</name>
                  <masterclipid>clip-master</masterclipid>
                  <collapsed>false</collapsed>
                  <angle>
                    <activevideoangle>false</activevideoangle>
                    <activeaudioangle>false</activeaudioangle>
                    <clip id="clip-1"/>
                  </angle>
                  <angle>
                    <activevideoangle>false</activevideoangle>
                    <activeaudioangle>false</activeaudioangle>
                    <clip id="clip-2"/>
                  </angle>
                  <angle>
                    <activevideoangle>true</activevideoangle>
                    <activeaudioangle>true</activeaudioangle>
                    <clip id="clip-3"/>
                  </angle>
                  <angle>
                    <activevideoangle>false</activevideoangle>
                    <activeaudioangle>false</activeaudioangle>
                    <clip id="clip-4"/>
                  </angle>
                  <angle>
                    <activevideoangle>false</activevideoangle>
                    <activeaudioangle>false</activeaudioangle>
                    <clip id="clip-5"/>
                  </angle>
                  <angle>
                    <activevideoangle>false</activevideoangle>
                    <activeaudioangle>false</activeaudioangle>
                    <clip id="clip-6"/>
                  </angle>
                  <angle>
                    <activevideoangle>false</activevideoangle>
                    <activeaudioangle>false</activeaudioangle>
                    <clip id="clip-7"/>
                  </angle>
                  <angle>
                    <activevideoangle>false</activevideoangle>
                    <activeaudioangle>false</activeaudioangle>
                    <clip id="clip-8"/>
                  </angle>
                  <angle>
                    <activevideoangle>false</activevideoangle>
                    <activeaudioangle>false</activeaudioangle>
                    <clip id="clip-9"/>
                  </angle>
                  <masterclipid>clip-master</masterclipid>
                </multiclip>
              </clipitem>
              <clipitem id="cs-520">
                <duration>59</duration>
                <rate>
                  <ntsc>false</ntsc>
                  <timebase>25</timebase>
                </rate>
                <in>82287</in>
                <out>82345</out>
                <start>82287</start>
                <end>82345</end>
                <file id="src-4"/>
                <sourcetrack>
                  <mediatype>video</mediatype>
                  <trackindex>1</trackindex>
                </sourcetrack>
                <multiclip id="mcs-520">
                  <name>MCS-520</name>
                  <masterclipid>clip-master</masterclipid>
                  <collapsed>false</collapsed>
                  <angle>
                    <activevideoangle>false</activevideoangle>
                    <activeaudioangle>false</activeaudioangle>
                    <clip id="clip-1"/>
                  </angle>
                  <angle>
                    <activevideoangle>false</activevideoangle>
                    <activeaudioangle>false</activeaudioangle>
                    <clip id="clip-2"/>
                  </angle>
                  <angle>
                    <activevideoangle>false</activevideoangle>
                    <activeaudioangle>false</activeaudioangle>
                    <clip id="clip-3"/>
                  </angle>
                  <angle>
                    <activevideoangle>true</activevideoangle>
                    <activeaudioangle>true</activeaudioangle>
                    <clip id="clip-4"/>
                  </angle>
                  <angle>
                    <activevideoangle>false</activevideoangle>
                    <activeaudioangle>false</activeaudioangle>
                    <clip id="clip-5"/>
                  </angle>
                  <angle>
                    <activevideoangle>false</activevideoangle>
                    <activeaudioangle>false</activeaudioangle>
                    <clip id="clip-6"/>
                  </angle>
                  <angle>
                    <activevideoangle>false</activevideoangle>
                    <activeaudioangle>false</activeaudioangle>
                    <clip id="clip-7"/>
                  </angle>
                  <angle>
                    <activevideoangle>false</activevideoangle>
                    <activeaudioangle>false</activeaudioangle>
                    <clip id="clip-8"/>
                  </angle>
                  <angle>
                    <activevideoangle>false</activevideoangle>
                    <activeaudioangle>false</activeaudioangle>
                    <clip id="clip-9"/>
                  </angle>
                  <masterclipid>clip-master</masterclipid>
                </multiclip>
              </clipitem>
              <clipitem id="cs-521">
                <duration>108</duration>
                <rate>
                  <ntsc>false</ntsc>
                  <timebase>25</timebase>
                </rate>
                <in>82345</in>
                <out>82452</out>
                <start>82345</start>
                <end>82452</end>
                <file id="src-3"/>
                <sourcetrack>
                  <mediatype>video</mediatype>
                  <trackindex>1</trackindex>
                </sourcetrack>
                <multiclip id="mcs-521">
                  <name>MCS-521</name>
                  <masterclipid>clip-master</masterclipid>
                  <collapsed>false</collapsed>
                  <angle>
                    <activevideoangle>false</activevideoangle>
                    <activeaudioangle>false</activeaudioangle>
                    <clip id="clip-1"/>
                  </angle>
                  <angle>
                    <activevideoangle>false</activevideoangle>
                    <activeaudioangle>false</activeaudioangle>
                    <clip id="clip-2"/>
                  </angle>
                  <angle>
                    <activevideoangle>true</activevideoangle>
                    <activeaudioangle>true</activeaudioangle>
                    <clip id="clip-3"/>
                  </angle>
                  <angle>
                    <activevideoangle>false</activevideoangle>
                    <activeaudioangle>false</activeaudioangle>
                    <clip id="clip-4"/>
                  </angle>
                  <angle>
                    <activevideoangle>false</activevideoangle>
                    <activeaudioangle>false</activeaudioangle>
                    <clip id="clip-5"/>
                  </angle>
                  <angle>
                    <activevideoangle>false</activevideoangle>
                    <activeaudioangle>false</activeaudioangle>
                    <clip id="clip-6"/>
                  </angle>
                  <angle>
                    <activevideoangle>false</activevideoangle>
                    <activeaudioangle>false</activeaudioangle>
                    <clip id="clip-7"/>
                  </angle>
                  <angle>
                    <activevideoangle>false</activevideoangle>
                    <activeaudioangle>false</activeaudioangle>
                    <clip id="clip-8"/>
                  </angle>
                  <angle>
                    <activevideoangle>false</activevideoangle>
                    <activeaudioangle>false</activeaudioangle>
                    <clip id="clip-9"/>
                  </angle>
                  <masterclipid>clip-master</masterclipid>
                </multiclip>
              </clipitem>
              <clipitem id="cs-522">
                <duration>139</duration>
                <rate>
                  <ntsc>false</ntsc>
                  <timebase>25</timebase>
                </rate>
                <in>82452</in>
                <out>82590</out>
                <start>82452</start>
                <end>82590</end>
                <file id="src-2"/>
                <sourcetrack>
                  <mediatype>video</mediatype>
                  <trackindex>1</trackindex>
                </sourcetrack>
                <multiclip id="mcs-522">
                  <name>MCS-522</name>
                  <masterclipid>clip-master</masterclipid>
                  <collapsed>false</collapsed>
                  <angle>
                    <activevideoangle>false</activevideoangle>
                    <activeaudioangle>false</activeaudioangle>
                    <clip id="clip-1"/>
                  </angle>
                  <angle>
                    <activevideoangle>true</activevideoangle>
                    <activeaudioangle>true</activeaudioangle>
                    <clip id="clip-2"/>
                  </angle>
                  <angle>
                    <activevideoangle>false</activevideoangle>
                    <activeaudioangle>false</activeaudioangle>
                    <clip id="clip-3"/>
                  </angle>
                  <angle>
                    <activevideoangle>false</activevideoangle>
                    <activeaudioangle>false</activeaudioangle>
                    <clip id="clip-4"/>
                  </angle>
                  <angle>
                    <activevideoangle>false</activevideoangle>
                    <activeaudioangle>false</activeaudioangle>
                    <clip id="clip-5"/>
                  </angle>
                  <angle>
                    <activevideoangle>false</activevideoangle>
                    <activeaudioangle>false</activeaudioangle>
                    <clip id="clip-6"/>
                  </angle>
                  <angle>
                    <activevideoangle>false</activevideoangle>
                    <activeaudioangle>false</activeaudioangle>
                    <clip id="clip-7"/>
                  </angle>
                  <angle>
                    <activevideoangle>false</activevideoangle>
                    <activeaudioangle>false</activeaudioangle>
                    <clip id="clip-8"/>
                  </angle>
                  <angle>
                    <activevideoangle>false</activevideoangle>
                    <activeaudioangle>false</activeaudioangle>
                    <clip id="clip-9"/>
                  </angle>
                  <masterclipid>clip-master</masterclipid>
                </multiclip>
              </clipitem>
              <clipitem id="cs-523">
                <duration>272</duration>
                <rate>
                  <ntsc>false</ntsc>
                  <timebase>25</timebase>
                </rate>
                <in>82590</in>
                <out>82861</out>
                <start>82590</start>
                <end>82861</end>
                <file id="src-6"/>
                <sourcetrack>
                  <mediatype>video</mediatype>
                  <trackindex>1</trackindex>
                </sourcetrack>
                <multiclip id="mcs-523">
                  <name>MCS-523</name>
                  <masterclipid>clip-master</masterclipid>
                  <collapsed>false</collapsed>
                  <angle>
                    <activevideoangle>false</activevideoangle>
                    <activeaudioangle>false</activeaudioangle>
                    <clip id="clip-1"/>
                  </angle>
                  <angle>
                    <activevideoangle>false</activevideoangle>
                    <activeaudioangle>false</activeaudioangle>
                    <clip id="clip-2"/>
                  </angle>
                  <angle>
                    <activevideoangle>false</activevideoangle>
                    <activeaudioangle>false</activeaudioangle>
                    <clip id="clip-3"/>
                  </angle>
                  <angle>
                    <activevideoangle>false</activevideoangle>
                    <activeaudioangle>false</activeaudioangle>
                    <clip id="clip-4"/>
                  </angle>
                  <angle>
                    <activevideoangle>false</activevideoangle>
                    <activeaudioangle>false</activeaudioangle>
                    <clip id="clip-5"/>
                  </angle>
                  <angle>
                    <activevideoangle>true</activevideoangle>
                    <activeaudioangle>true</activeaudioangle>
                    <clip id="clip-6"/>
                  </angle>
                  <angle>
                    <activevideoangle>false</activevideoangle>
                    <activeaudioangle>false</activeaudioangle>
                    <clip id="clip-7"/>
                  </angle>
                  <angle>
                    <activevideoangle>false</activevideoangle>
                    <activeaudioangle>false</activeaudioangle>
                    <clip id="clip-8"/>
                  </angle>
                  <angle>
                    <activevideoangle>false</activevideoangle>
                    <activeaudioangle>false</activeaudioangle>
                    <clip id="clip-9"/>
                  </angle>
                  <masterclipid>clip-master</masterclipid>
                </multiclip>
              </clipitem>
              <clipitem id="cs-524">
                <duration>419</duration>
                <rate>
                  <ntsc>false</ntsc>
                  <timebase>25</timebase>
                </rate>
                <in>82861</in>
                <out>83279</out>
                <start>82861</start>
                <end>83279</end>
                <file id="src-2"/>
                <sourcetrack>
                  <mediatype>video</mediatype>
                  <trackindex>1</trackindex>
                </sourcetrack>
                <multiclip id="mcs-524">
                  <name>MCS-524</name>
                  <masterclipid>clip-master</masterclipid>
                  <collapsed>false</collapsed>
                  <angle>
                    <activevideoangle>false</activevideoangle>
                    <activeaudioangle>false</activeaudioangle>
                    <clip id="clip-1"/>
                  </angle>
                  <angle>
                    <activevideoangle>true</activevideoangle>
                    <activeaudioangle>true</activeaudioangle>
                    <clip id="clip-2"/>
                  </angle>
                  <angle>
                    <activevideoangle>false</activevideoangle>
                    <activeaudioangle>false</activeaudioangle>
                    <clip id="clip-3"/>
                  </angle>
                  <angle>
                    <activevideoangle>false</activevideoangle>
                    <activeaudioangle>false</activeaudioangle>
                    <clip id="clip-4"/>
                  </angle>
                  <angle>
                    <activevideoangle>false</activevideoangle>
                    <activeaudioangle>false</activeaudioangle>
                    <clip id="clip-5"/>
                  </angle>
                  <angle>
                    <activevideoangle>false</activevideoangle>
                    <activeaudioangle>false</activeaudioangle>
                    <clip id="clip-6"/>
                  </angle>
                  <angle>
                    <activevideoangle>false</activevideoangle>
                    <activeaudioangle>false</activeaudioangle>
                    <clip id="clip-7"/>
                  </angle>
                  <angle>
                    <activevideoangle>false</activevideoangle>
                    <activeaudioangle>false</activeaudioangle>
                    <clip id="clip-8"/>
                  </angle>
                  <angle>
                    <activevideoangle>false</activevideoangle>
                    <activeaudioangle>false</activeaudioangle>
                    <clip id="clip-9"/>
                  </angle>
                  <masterclipid>clip-master</masterclipid>
                </multiclip>
              </clipitem>
              <clipitem id="cs-525">
                <duration>79</duration>
                <rate>
                  <ntsc>false</ntsc>
                  <timebase>25</timebase>
                </rate>
                <in>83279</in>
                <out>83357</out>
                <start>83279</start>
                <end>83357</end>
                <file id="src-6"/>
                <sourcetrack>
                  <mediatype>video</mediatype>
                  <trackindex>1</trackindex>
                </sourcetrack>
                <multiclip id="mcs-525">
                  <name>MCS-525</name>
                  <masterclipid>clip-master</masterclipid>
                  <collapsed>false</collapsed>
                  <angle>
                    <activevideoangle>false</activevideoangle>
                    <activeaudioangle>false</activeaudioangle>
                    <clip id="clip-1"/>
                  </angle>
                  <angle>
                    <activevideoangle>false</activevideoangle>
                    <activeaudioangle>false</activeaudioangle>
                    <clip id="clip-2"/>
                  </angle>
                  <angle>
                    <activevideoangle>false</activevideoangle>
                    <activeaudioangle>false</activeaudioangle>
                    <clip id="clip-3"/>
                  </angle>
                  <angle>
                    <activevideoangle>false</activevideoangle>
                    <activeaudioangle>false</activeaudioangle>
                    <clip id="clip-4"/>
                  </angle>
                  <angle>
                    <activevideoangle>false</activevideoangle>
                    <activeaudioangle>false</activeaudioangle>
                    <clip id="clip-5"/>
                  </angle>
                  <angle>
                    <activevideoangle>true</activevideoangle>
                    <activeaudioangle>true</activeaudioangle>
                    <clip id="clip-6"/>
                  </angle>
                  <angle>
                    <activevideoangle>false</activevideoangle>
                    <activeaudioangle>false</activeaudioangle>
                    <clip id="clip-7"/>
                  </angle>
                  <angle>
                    <activevideoangle>false</activevideoangle>
                    <activeaudioangle>false</activeaudioangle>
                    <clip id="clip-8"/>
                  </angle>
                  <angle>
                    <activevideoangle>false</activevideoangle>
                    <activeaudioangle>false</activeaudioangle>
                    <clip id="clip-9"/>
                  </angle>
                  <masterclipid>clip-master</masterclipid>
                </multiclip>
              </clipitem>
              <clipitem id="cs-526">
                <duration>40</duration>
                <rate>
                  <ntsc>false</ntsc>
                  <timebase>25</timebase>
                </rate>
                <in>83357</in>
                <out>83396</out>
                <start>83357</start>
                <end>83396</end>
                <file id="src-4"/>
                <sourcetrack>
                  <mediatype>video</mediatype>
                  <trackindex>1</trackindex>
                </sourcetrack>
                <multiclip id="mcs-526">
                  <name>MCS-526</name>
                  <masterclipid>clip-master</masterclipid>
                  <collapsed>false</collapsed>
                  <angle>
                    <activevideoangle>false</activevideoangle>
                    <activeaudioangle>false</activeaudioangle>
                    <clip id="clip-1"/>
                  </angle>
                  <angle>
                    <activevideoangle>false</activevideoangle>
                    <activeaudioangle>false</activeaudioangle>
                    <clip id="clip-2"/>
                  </angle>
                  <angle>
                    <activevideoangle>false</activevideoangle>
                    <activeaudioangle>false</activeaudioangle>
                    <clip id="clip-3"/>
                  </angle>
                  <angle>
                    <activevideoangle>true</activevideoangle>
                    <activeaudioangle>true</activeaudioangle>
                    <clip id="clip-4"/>
                  </angle>
                  <angle>
                    <activevideoangle>false</activevideoangle>
                    <activeaudioangle>false</activeaudioangle>
                    <clip id="clip-5"/>
                  </angle>
                  <angle>
                    <activevideoangle>false</activevideoangle>
                    <activeaudioangle>false</activeaudioangle>
                    <clip id="clip-6"/>
                  </angle>
                  <angle>
                    <activevideoangle>false</activevideoangle>
                    <activeaudioangle>false</activeaudioangle>
                    <clip id="clip-7"/>
                  </angle>
                  <angle>
                    <activevideoangle>false</activevideoangle>
                    <activeaudioangle>false</activeaudioangle>
                    <clip id="clip-8"/>
                  </angle>
                  <angle>
                    <activevideoangle>false</activevideoangle>
                    <activeaudioangle>false</activeaudioangle>
                    <clip id="clip-9"/>
                  </angle>
                  <masterclipid>clip-master</masterclipid>
                </multiclip>
              </clipitem>
              <clipitem id="cs-527">
                <duration>32</duration>
                <rate>
                  <ntsc>false</ntsc>
                  <timebase>25</timebase>
                </rate>
                <in>83396</in>
                <out>83427</out>
                <start>83396</start>
                <end>83427</end>
                <file id="src-3"/>
                <sourcetrack>
                  <mediatype>video</mediatype>
                  <trackindex>1</trackindex>
                </sourcetrack>
                <multiclip id="mcs-527">
                  <name>MCS-527</name>
                  <masterclipid>clip-master</masterclipid>
                  <collapsed>false</collapsed>
                  <angle>
                    <activevideoangle>false</activevideoangle>
                    <activeaudioangle>false</activeaudioangle>
                    <clip id="clip-1"/>
                  </angle>
                  <angle>
                    <activevideoangle>false</activevideoangle>
                    <activeaudioangle>false</activeaudioangle>
                    <clip id="clip-2"/>
                  </angle>
                  <angle>
                    <activevideoangle>true</activevideoangle>
                    <activeaudioangle>true</activeaudioangle>
                    <clip id="clip-3"/>
                  </angle>
                  <angle>
                    <activevideoangle>false</activevideoangle>
                    <activeaudioangle>false</activeaudioangle>
                    <clip id="clip-4"/>
                  </angle>
                  <angle>
                    <activevideoangle>false</activevideoangle>
                    <activeaudioangle>false</activeaudioangle>
                    <clip id="clip-5"/>
                  </angle>
                  <angle>
                    <activevideoangle>false</activevideoangle>
                    <activeaudioangle>false</activeaudioangle>
                    <clip id="clip-6"/>
                  </angle>
                  <angle>
                    <activevideoangle>false</activevideoangle>
                    <activeaudioangle>false</activeaudioangle>
                    <clip id="clip-7"/>
                  </angle>
                  <angle>
                    <activevideoangle>false</activevideoangle>
                    <activeaudioangle>false</activeaudioangle>
                    <clip id="clip-8"/>
                  </angle>
                  <angle>
                    <activevideoangle>false</activevideoangle>
                    <activeaudioangle>false</activeaudioangle>
                    <clip id="clip-9"/>
                  </angle>
                  <masterclipid>clip-master</masterclipid>
                </multiclip>
              </clipitem>
              <clipitem id="cs-528">
                <duration>46</duration>
                <rate>
                  <ntsc>false</ntsc>
                  <timebase>25</timebase>
                </rate>
                <in>83427</in>
                <out>83472</out>
                <start>83427</start>
                <end>83472</end>
                <file id="src-2"/>
                <sourcetrack>
                  <mediatype>video</mediatype>
                  <trackindex>1</trackindex>
                </sourcetrack>
                <multiclip id="mcs-528">
                  <name>MCS-528</name>
                  <masterclipid>clip-master</masterclipid>
                  <collapsed>false</collapsed>
                  <angle>
                    <activevideoangle>false</activevideoangle>
                    <activeaudioangle>false</activeaudioangle>
                    <clip id="clip-1"/>
                  </angle>
                  <angle>
                    <activevideoangle>true</activevideoangle>
                    <activeaudioangle>true</activeaudioangle>
                    <clip id="clip-2"/>
                  </angle>
                  <angle>
                    <activevideoangle>false</activevideoangle>
                    <activeaudioangle>false</activeaudioangle>
                    <clip id="clip-3"/>
                  </angle>
                  <angle>
                    <activevideoangle>false</activevideoangle>
                    <activeaudioangle>false</activeaudioangle>
                    <clip id="clip-4"/>
                  </angle>
                  <angle>
                    <activevideoangle>false</activevideoangle>
                    <activeaudioangle>false</activeaudioangle>
                    <clip id="clip-5"/>
                  </angle>
                  <angle>
                    <activevideoangle>false</activevideoangle>
                    <activeaudioangle>false</activeaudioangle>
                    <clip id="clip-6"/>
                  </angle>
                  <angle>
                    <activevideoangle>false</activevideoangle>
                    <activeaudioangle>false</activeaudioangle>
                    <clip id="clip-7"/>
                  </angle>
                  <angle>
                    <activevideoangle>false</activevideoangle>
                    <activeaudioangle>false</activeaudioangle>
                    <clip id="clip-8"/>
                  </angle>
                  <angle>
                    <activevideoangle>false</activevideoangle>
                    <activeaudioangle>false</activeaudioangle>
                    <clip id="clip-9"/>
                  </angle>
                  <masterclipid>clip-master</masterclipid>
                </multiclip>
              </clipitem>
              <clipitem id="cs-529">
                <duration>690</duration>
                <rate>
                  <ntsc>false</ntsc>
                  <timebase>25</timebase>
                </rate>
                <in>83472</in>
                <out>84161</out>
                <start>83472</start>
                <end>84161</end>
                <file id="src-1"/>
                <sourcetrack>
                  <mediatype>video</mediatype>
                  <trackindex>1</trackindex>
                </sourcetrack>
                <multiclip id="mcs-529">
                  <name>MCS-529</name>
                  <masterclipid>clip-master</masterclipid>
                  <collapsed>false</collapsed>
                  <angle>
                    <activevideoangle>true</activevideoangle>
                    <activeaudioangle>true</activeaudioangle>
                    <clip id="clip-1"/>
                  </angle>
                  <angle>
                    <activevideoangle>false</activevideoangle>
                    <activeaudioangle>false</activeaudioangle>
                    <clip id="clip-2"/>
                  </angle>
                  <angle>
                    <activevideoangle>false</activevideoangle>
                    <activeaudioangle>false</activeaudioangle>
                    <clip id="clip-3"/>
                  </angle>
                  <angle>
                    <activevideoangle>false</activevideoangle>
                    <activeaudioangle>false</activeaudioangle>
                    <clip id="clip-4"/>
                  </angle>
                  <angle>
                    <activevideoangle>false</activevideoangle>
                    <activeaudioangle>false</activeaudioangle>
                    <clip id="clip-5"/>
                  </angle>
                  <angle>
                    <activevideoangle>false</activevideoangle>
                    <activeaudioangle>false</activeaudioangle>
                    <clip id="clip-6"/>
                  </angle>
                  <angle>
                    <activevideoangle>false</activevideoangle>
                    <activeaudioangle>false</activeaudioangle>
                    <clip id="clip-7"/>
                  </angle>
                  <angle>
                    <activevideoangle>false</activevideoangle>
                    <activeaudioangle>false</activeaudioangle>
                    <clip id="clip-8"/>
                  </angle>
                  <angle>
                    <activevideoangle>false</activevideoangle>
                    <activeaudioangle>false</activeaudioangle>
                    <clip id="clip-9"/>
                  </angle>
                  <masterclipid>clip-master</masterclipid>
                </multiclip>
              </clipitem>
              <clipitem id="cs-530">
                <duration>167</duration>
                <rate>
                  <ntsc>false</ntsc>
                  <timebase>25</timebase>
                </rate>
                <in>84161</in>
                <out>84327</out>
                <start>84161</start>
                <end>84327</end>
                <file id="src-2"/>
                <sourcetrack>
                  <mediatype>video</mediatype>
                  <trackindex>1</trackindex>
                </sourcetrack>
                <multiclip id="mcs-530">
                  <name>MCS-530</name>
                  <masterclipid>clip-master</masterclipid>
                  <collapsed>false</collapsed>
                  <angle>
                    <activevideoangle>false</activevideoangle>
                    <activeaudioangle>false</activeaudioangle>
                    <clip id="clip-1"/>
                  </angle>
                  <angle>
                    <activevideoangle>true</activevideoangle>
                    <activeaudioangle>true</activeaudioangle>
                    <clip id="clip-2"/>
                  </angle>
                  <angle>
                    <activevideoangle>false</activevideoangle>
                    <activeaudioangle>false</activeaudioangle>
                    <clip id="clip-3"/>
                  </angle>
                  <angle>
                    <activevideoangle>false</activevideoangle>
                    <activeaudioangle>false</activeaudioangle>
                    <clip id="clip-4"/>
                  </angle>
                  <angle>
                    <activevideoangle>false</activevideoangle>
                    <activeaudioangle>false</activeaudioangle>
                    <clip id="clip-5"/>
                  </angle>
                  <angle>
                    <activevideoangle>false</activevideoangle>
                    <activeaudioangle>false</activeaudioangle>
                    <clip id="clip-6"/>
                  </angle>
                  <angle>
                    <activevideoangle>false</activevideoangle>
                    <activeaudioangle>false</activeaudioangle>
                    <clip id="clip-7"/>
                  </angle>
                  <angle>
                    <activevideoangle>false</activevideoangle>
                    <activeaudioangle>false</activeaudioangle>
                    <clip id="clip-8"/>
                  </angle>
                  <angle>
                    <activevideoangle>false</activevideoangle>
                    <activeaudioangle>false</activeaudioangle>
                    <clip id="clip-9"/>
                  </angle>
                  <masterclipid>clip-master</masterclipid>
                </multiclip>
              </clipitem>
              <clipitem id="cs-531">
                <duration>43</duration>
                <rate>
                  <ntsc>false</ntsc>
                  <timebase>25</timebase>
                </rate>
                <in>84327</in>
                <out>84369</out>
                <start>84327</start>
                <end>84369</end>
                <file id="src-3"/>
                <sourcetrack>
                  <mediatype>video</mediatype>
                  <trackindex>1</trackindex>
                </sourcetrack>
                <multiclip id="mcs-531">
                  <name>MCS-531</name>
                  <masterclipid>clip-master</masterclipid>
                  <collapsed>false</collapsed>
                  <angle>
                    <activevideoangle>false</activevideoangle>
                    <activeaudioangle>false</activeaudioangle>
                    <clip id="clip-1"/>
                  </angle>
                  <angle>
                    <activevideoangle>false</activevideoangle>
                    <activeaudioangle>false</activeaudioangle>
                    <clip id="clip-2"/>
                  </angle>
                  <angle>
                    <activevideoangle>true</activevideoangle>
                    <activeaudioangle>true</activeaudioangle>
                    <clip id="clip-3"/>
                  </angle>
                  <angle>
                    <activevideoangle>false</activevideoangle>
                    <activeaudioangle>false</activeaudioangle>
                    <clip id="clip-4"/>
                  </angle>
                  <angle>
                    <activevideoangle>false</activevideoangle>
                    <activeaudioangle>false</activeaudioangle>
                    <clip id="clip-5"/>
                  </angle>
                  <angle>
                    <activevideoangle>false</activevideoangle>
                    <activeaudioangle>false</activeaudioangle>
                    <clip id="clip-6"/>
                  </angle>
                  <angle>
                    <activevideoangle>false</activevideoangle>
                    <activeaudioangle>false</activeaudioangle>
                    <clip id="clip-7"/>
                  </angle>
                  <angle>
                    <activevideoangle>false</activevideoangle>
                    <activeaudioangle>false</activeaudioangle>
                    <clip id="clip-8"/>
                  </angle>
                  <angle>
                    <activevideoangle>false</activevideoangle>
                    <activeaudioangle>false</activeaudioangle>
                    <clip id="clip-9"/>
                  </angle>
                  <masterclipid>clip-master</masterclipid>
                </multiclip>
              </clipitem>
              <clipitem id="cs-532">
                <duration>49</duration>
                <rate>
                  <ntsc>false</ntsc>
                  <timebase>25</timebase>
                </rate>
                <in>84369</in>
                <out>84417</out>
                <start>84369</start>
                <end>84417</end>
                <file id="src-4"/>
                <sourcetrack>
                  <mediatype>video</mediatype>
                  <trackindex>1</trackindex>
                </sourcetrack>
                <multiclip id="mcs-532">
                  <name>MCS-532</name>
                  <masterclipid>clip-master</masterclipid>
                  <collapsed>false</collapsed>
                  <angle>
                    <activevideoangle>false</activevideoangle>
                    <activeaudioangle>false</activeaudioangle>
                    <clip id="clip-1"/>
                  </angle>
                  <angle>
                    <activevideoangle>false</activevideoangle>
                    <activeaudioangle>false</activeaudioangle>
                    <clip id="clip-2"/>
                  </angle>
                  <angle>
                    <activevideoangle>false</activevideoangle>
                    <activeaudioangle>false</activeaudioangle>
                    <clip id="clip-3"/>
                  </angle>
                  <angle>
                    <activevideoangle>true</activevideoangle>
                    <activeaudioangle>true</activeaudioangle>
                    <clip id="clip-4"/>
                  </angle>
                  <angle>
                    <activevideoangle>false</activevideoangle>
                    <activeaudioangle>false</activeaudioangle>
                    <clip id="clip-5"/>
                  </angle>
                  <angle>
                    <activevideoangle>false</activevideoangle>
                    <activeaudioangle>false</activeaudioangle>
                    <clip id="clip-6"/>
                  </angle>
                  <angle>
                    <activevideoangle>false</activevideoangle>
                    <activeaudioangle>false</activeaudioangle>
                    <clip id="clip-7"/>
                  </angle>
                  <angle>
                    <activevideoangle>false</activevideoangle>
                    <activeaudioangle>false</activeaudioangle>
                    <clip id="clip-8"/>
                  </angle>
                  <angle>
                    <activevideoangle>false</activevideoangle>
                    <activeaudioangle>false</activeaudioangle>
                    <clip id="clip-9"/>
                  </angle>
                  <masterclipid>clip-master</masterclipid>
                </multiclip>
              </clipitem>
              <clipitem id="cs-533">
                <duration>266</duration>
                <rate>
                  <ntsc>false</ntsc>
                  <timebase>25</timebase>
                </rate>
                <in>84417</in>
                <out>84682</out>
                <start>84417</start>
                <end>84682</end>
                <file id="src-2"/>
                <sourcetrack>
                  <mediatype>video</mediatype>
                  <trackindex>1</trackindex>
                </sourcetrack>
                <multiclip id="mcs-533">
                  <name>MCS-533</name>
                  <masterclipid>clip-master</masterclipid>
                  <collapsed>false</collapsed>
                  <angle>
                    <activevideoangle>false</activevideoangle>
                    <activeaudioangle>false</activeaudioangle>
                    <clip id="clip-1"/>
                  </angle>
                  <angle>
                    <activevideoangle>true</activevideoangle>
                    <activeaudioangle>true</activeaudioangle>
                    <clip id="clip-2"/>
                  </angle>
                  <angle>
                    <activevideoangle>false</activevideoangle>
                    <activeaudioangle>false</activeaudioangle>
                    <clip id="clip-3"/>
                  </angle>
                  <angle>
                    <activevideoangle>false</activevideoangle>
                    <activeaudioangle>false</activeaudioangle>
                    <clip id="clip-4"/>
                  </angle>
                  <angle>
                    <activevideoangle>false</activevideoangle>
                    <activeaudioangle>false</activeaudioangle>
                    <clip id="clip-5"/>
                  </angle>
                  <angle>
                    <activevideoangle>false</activevideoangle>
                    <activeaudioangle>false</activeaudioangle>
                    <clip id="clip-6"/>
                  </angle>
                  <angle>
                    <activevideoangle>false</activevideoangle>
                    <activeaudioangle>false</activeaudioangle>
                    <clip id="clip-7"/>
                  </angle>
                  <angle>
                    <activevideoangle>false</activevideoangle>
                    <activeaudioangle>false</activeaudioangle>
                    <clip id="clip-8"/>
                  </angle>
                  <angle>
                    <activevideoangle>false</activevideoangle>
                    <activeaudioangle>false</activeaudioangle>
                    <clip id="clip-9"/>
                  </angle>
                  <masterclipid>clip-master</masterclipid>
                </multiclip>
              </clipitem>
              <clipitem id="cs-534">
                <duration>203</duration>
                <rate>
                  <ntsc>false</ntsc>
                  <timebase>25</timebase>
                </rate>
                <in>84682</in>
                <out>84884</out>
                <start>84682</start>
                <end>84884</end>
                <file id="src-4"/>
                <sourcetrack>
                  <mediatype>video</mediatype>
                  <trackindex>1</trackindex>
                </sourcetrack>
                <multiclip id="mcs-534">
                  <name>MCS-534</name>
                  <masterclipid>clip-master</masterclipid>
                  <collapsed>false</collapsed>
                  <angle>
                    <activevideoangle>false</activevideoangle>
                    <activeaudioangle>false</activeaudioangle>
                    <clip id="clip-1"/>
                  </angle>
                  <angle>
                    <activevideoangle>false</activevideoangle>
                    <activeaudioangle>false</activeaudioangle>
                    <clip id="clip-2"/>
                  </angle>
                  <angle>
                    <activevideoangle>false</activevideoangle>
                    <activeaudioangle>false</activeaudioangle>
                    <clip id="clip-3"/>
                  </angle>
                  <angle>
                    <activevideoangle>true</activevideoangle>
                    <activeaudioangle>true</activeaudioangle>
                    <clip id="clip-4"/>
                  </angle>
                  <angle>
                    <activevideoangle>false</activevideoangle>
                    <activeaudioangle>false</activeaudioangle>
                    <clip id="clip-5"/>
                  </angle>
                  <angle>
                    <activevideoangle>false</activevideoangle>
                    <activeaudioangle>false</activeaudioangle>
                    <clip id="clip-6"/>
                  </angle>
                  <angle>
                    <activevideoangle>false</activevideoangle>
                    <activeaudioangle>false</activeaudioangle>
                    <clip id="clip-7"/>
                  </angle>
                  <angle>
                    <activevideoangle>false</activevideoangle>
                    <activeaudioangle>false</activeaudioangle>
                    <clip id="clip-8"/>
                  </angle>
                  <angle>
                    <activevideoangle>false</activevideoangle>
                    <activeaudioangle>false</activeaudioangle>
                    <clip id="clip-9"/>
                  </angle>
                  <masterclipid>clip-master</masterclipid>
                </multiclip>
              </clipitem>
              <clipitem id="cs-535">
                <duration>57</duration>
                <rate>
                  <ntsc>false</ntsc>
                  <timebase>25</timebase>
                </rate>
                <in>84884</in>
                <out>84940</out>
                <start>84884</start>
                <end>84940</end>
                <file id="src-6"/>
                <sourcetrack>
                  <mediatype>video</mediatype>
                  <trackindex>1</trackindex>
                </sourcetrack>
                <multiclip id="mcs-535">
                  <name>MCS-535</name>
                  <masterclipid>clip-master</masterclipid>
                  <collapsed>false</collapsed>
                  <angle>
                    <activevideoangle>false</activevideoangle>
                    <activeaudioangle>false</activeaudioangle>
                    <clip id="clip-1"/>
                  </angle>
                  <angle>
                    <activevideoangle>false</activevideoangle>
                    <activeaudioangle>false</activeaudioangle>
                    <clip id="clip-2"/>
                  </angle>
                  <angle>
                    <activevideoangle>false</activevideoangle>
                    <activeaudioangle>false</activeaudioangle>
                    <clip id="clip-3"/>
                  </angle>
                  <angle>
                    <activevideoangle>false</activevideoangle>
                    <activeaudioangle>false</activeaudioangle>
                    <clip id="clip-4"/>
                  </angle>
                  <angle>
                    <activevideoangle>false</activevideoangle>
                    <activeaudioangle>false</activeaudioangle>
                    <clip id="clip-5"/>
                  </angle>
                  <angle>
                    <activevideoangle>true</activevideoangle>
                    <activeaudioangle>true</activeaudioangle>
                    <clip id="clip-6"/>
                  </angle>
                  <angle>
                    <activevideoangle>false</activevideoangle>
                    <activeaudioangle>false</activeaudioangle>
                    <clip id="clip-7"/>
                  </angle>
                  <angle>
                    <activevideoangle>false</activevideoangle>
                    <activeaudioangle>false</activeaudioangle>
                    <clip id="clip-8"/>
                  </angle>
                  <angle>
                    <activevideoangle>false</activevideoangle>
                    <activeaudioangle>false</activeaudioangle>
                    <clip id="clip-9"/>
                  </angle>
                  <masterclipid>clip-master</masterclipid>
                </multiclip>
              </clipitem>
              <clipitem id="cs-536">
                <duration>127</duration>
                <rate>
                  <ntsc>false</ntsc>
                  <timebase>25</timebase>
                </rate>
                <in>84940</in>
                <out>85066</out>
                <start>84940</start>
                <end>85066</end>
                <file id="src-4"/>
                <sourcetrack>
                  <mediatype>video</mediatype>
                  <trackindex>1</trackindex>
                </sourcetrack>
                <multiclip id="mcs-536">
                  <name>MCS-536</name>
                  <masterclipid>clip-master</masterclipid>
                  <collapsed>false</collapsed>
                  <angle>
                    <activevideoangle>false</activevideoangle>
                    <activeaudioangle>false</activeaudioangle>
                    <clip id="clip-1"/>
                  </angle>
                  <angle>
                    <activevideoangle>false</activevideoangle>
                    <activeaudioangle>false</activeaudioangle>
                    <clip id="clip-2"/>
                  </angle>
                  <angle>
                    <activevideoangle>false</activevideoangle>
                    <activeaudioangle>false</activeaudioangle>
                    <clip id="clip-3"/>
                  </angle>
                  <angle>
                    <activevideoangle>true</activevideoangle>
                    <activeaudioangle>true</activeaudioangle>
                    <clip id="clip-4"/>
                  </angle>
                  <angle>
                    <activevideoangle>false</activevideoangle>
                    <activeaudioangle>false</activeaudioangle>
                    <clip id="clip-5"/>
                  </angle>
                  <angle>
                    <activevideoangle>false</activevideoangle>
                    <activeaudioangle>false</activeaudioangle>
                    <clip id="clip-6"/>
                  </angle>
                  <angle>
                    <activevideoangle>false</activevideoangle>
                    <activeaudioangle>false</activeaudioangle>
                    <clip id="clip-7"/>
                  </angle>
                  <angle>
                    <activevideoangle>false</activevideoangle>
                    <activeaudioangle>false</activeaudioangle>
                    <clip id="clip-8"/>
                  </angle>
                  <angle>
                    <activevideoangle>false</activevideoangle>
                    <activeaudioangle>false</activeaudioangle>
                    <clip id="clip-9"/>
                  </angle>
                  <masterclipid>clip-master</masterclipid>
                </multiclip>
              </clipitem>
              <clipitem id="cs-537">
                <duration>129</duration>
                <rate>
                  <ntsc>false</ntsc>
                  <timebase>25</timebase>
                </rate>
                <in>85066</in>
                <out>85194</out>
                <start>85066</start>
                <end>85194</end>
                <file id="src-5"/>
                <sourcetrack>
                  <mediatype>video</mediatype>
                  <trackindex>1</trackindex>
                </sourcetrack>
                <multiclip id="mcs-537">
                  <name>MCS-537</name>
                  <masterclipid>clip-master</masterclipid>
                  <collapsed>false</collapsed>
                  <angle>
                    <activevideoangle>false</activevideoangle>
                    <activeaudioangle>false</activeaudioangle>
                    <clip id="clip-1"/>
                  </angle>
                  <angle>
                    <activevideoangle>false</activevideoangle>
                    <activeaudioangle>false</activeaudioangle>
                    <clip id="clip-2"/>
                  </angle>
                  <angle>
                    <activevideoangle>false</activevideoangle>
                    <activeaudioangle>false</activeaudioangle>
                    <clip id="clip-3"/>
                  </angle>
                  <angle>
                    <activevideoangle>false</activevideoangle>
                    <activeaudioangle>false</activeaudioangle>
                    <clip id="clip-4"/>
                  </angle>
                  <angle>
                    <activevideoangle>true</activevideoangle>
                    <activeaudioangle>true</activeaudioangle>
                    <clip id="clip-5"/>
                  </angle>
                  <angle>
                    <activevideoangle>false</activevideoangle>
                    <activeaudioangle>false</activeaudioangle>
                    <clip id="clip-6"/>
                  </angle>
                  <angle>
                    <activevideoangle>false</activevideoangle>
                    <activeaudioangle>false</activeaudioangle>
                    <clip id="clip-7"/>
                  </angle>
                  <angle>
                    <activevideoangle>false</activevideoangle>
                    <activeaudioangle>false</activeaudioangle>
                    <clip id="clip-8"/>
                  </angle>
                  <angle>
                    <activevideoangle>false</activevideoangle>
                    <activeaudioangle>false</activeaudioangle>
                    <clip id="clip-9"/>
                  </angle>
                  <masterclipid>clip-master</masterclipid>
                </multiclip>
              </clipitem>
              <clipitem id="cs-538">
                <duration>167</duration>
                <rate>
                  <ntsc>false</ntsc>
                  <timebase>25</timebase>
                </rate>
                <in>85194</in>
                <out>85360</out>
                <start>85194</start>
                <end>85360</end>
                <file id="src-4"/>
                <sourcetrack>
                  <mediatype>video</mediatype>
                  <trackindex>1</trackindex>
                </sourcetrack>
                <multiclip id="mcs-538">
                  <name>MCS-538</name>
                  <masterclipid>clip-master</masterclipid>
                  <collapsed>false</collapsed>
                  <angle>
                    <activevideoangle>false</activevideoangle>
                    <activeaudioangle>false</activeaudioangle>
                    <clip id="clip-1"/>
                  </angle>
                  <angle>
                    <activevideoangle>false</activevideoangle>
                    <activeaudioangle>false</activeaudioangle>
                    <clip id="clip-2"/>
                  </angle>
                  <angle>
                    <activevideoangle>false</activevideoangle>
                    <activeaudioangle>false</activeaudioangle>
                    <clip id="clip-3"/>
                  </angle>
                  <angle>
                    <activevideoangle>true</activevideoangle>
                    <activeaudioangle>true</activeaudioangle>
                    <clip id="clip-4"/>
                  </angle>
                  <angle>
                    <activevideoangle>false</activevideoangle>
                    <activeaudioangle>false</activeaudioangle>
                    <clip id="clip-5"/>
                  </angle>
                  <angle>
                    <activevideoangle>false</activevideoangle>
                    <activeaudioangle>false</activeaudioangle>
                    <clip id="clip-6"/>
                  </angle>
                  <angle>
                    <activevideoangle>false</activevideoangle>
                    <activeaudioangle>false</activeaudioangle>
                    <clip id="clip-7"/>
                  </angle>
                  <angle>
                    <activevideoangle>false</activevideoangle>
                    <activeaudioangle>false</activeaudioangle>
                    <clip id="clip-8"/>
                  </angle>
                  <angle>
                    <activevideoangle>false</activevideoangle>
                    <activeaudioangle>false</activeaudioangle>
                    <clip id="clip-9"/>
                  </angle>
                  <masterclipid>clip-master</masterclipid>
                </multiclip>
              </clipitem>
              <clipitem id="cs-539">
                <duration>39</duration>
                <rate>
                  <ntsc>false</ntsc>
                  <timebase>25</timebase>
                </rate>
                <in>85360</in>
                <out>85398</out>
                <start>85360</start>
                <end>85398</end>
                <file id="src-6"/>
                <sourcetrack>
                  <mediatype>video</mediatype>
                  <trackindex>1</trackindex>
                </sourcetrack>
                <multiclip id="mcs-539">
                  <name>MCS-539</name>
                  <masterclipid>clip-master</masterclipid>
                  <collapsed>false</collapsed>
                  <angle>
                    <activevideoangle>false</activevideoangle>
                    <activeaudioangle>false</activeaudioangle>
                    <clip id="clip-1"/>
                  </angle>
                  <angle>
                    <activevideoangle>false</activevideoangle>
                    <activeaudioangle>false</activeaudioangle>
                    <clip id="clip-2"/>
                  </angle>
                  <angle>
                    <activevideoangle>false</activevideoangle>
                    <activeaudioangle>false</activeaudioangle>
                    <clip id="clip-3"/>
                  </angle>
                  <angle>
                    <activevideoangle>false</activevideoangle>
                    <activeaudioangle>false</activeaudioangle>
                    <clip id="clip-4"/>
                  </angle>
                  <angle>
                    <activevideoangle>false</activevideoangle>
                    <activeaudioangle>false</activeaudioangle>
                    <clip id="clip-5"/>
                  </angle>
                  <angle>
                    <activevideoangle>true</activevideoangle>
                    <activeaudioangle>true</activeaudioangle>
                    <clip id="clip-6"/>
                  </angle>
                  <angle>
                    <activevideoangle>false</activevideoangle>
                    <activeaudioangle>false</activeaudioangle>
                    <clip id="clip-7"/>
                  </angle>
                  <angle>
                    <activevideoangle>false</activevideoangle>
                    <activeaudioangle>false</activeaudioangle>
                    <clip id="clip-8"/>
                  </angle>
                  <angle>
                    <activevideoangle>false</activevideoangle>
                    <activeaudioangle>false</activeaudioangle>
                    <clip id="clip-9"/>
                  </angle>
                  <masterclipid>clip-master</masterclipid>
                </multiclip>
              </clipitem>
              <clipitem id="cs-540">
                <duration>51</duration>
                <rate>
                  <ntsc>false</ntsc>
                  <timebase>25</timebase>
                </rate>
                <in>85398</in>
                <out>85448</out>
                <start>85398</start>
                <end>85448</end>
                <file id="src-5"/>
                <sourcetrack>
                  <mediatype>video</mediatype>
                  <trackindex>1</trackindex>
                </sourcetrack>
                <multiclip id="mcs-540">
                  <name>MCS-540</name>
                  <masterclipid>clip-master</masterclipid>
                  <collapsed>false</collapsed>
                  <angle>
                    <activevideoangle>false</activevideoangle>
                    <activeaudioangle>false</activeaudioangle>
                    <clip id="clip-1"/>
                  </angle>
                  <angle>
                    <activevideoangle>false</activevideoangle>
                    <activeaudioangle>false</activeaudioangle>
                    <clip id="clip-2"/>
                  </angle>
                  <angle>
                    <activevideoangle>false</activevideoangle>
                    <activeaudioangle>false</activeaudioangle>
                    <clip id="clip-3"/>
                  </angle>
                  <angle>
                    <activevideoangle>false</activevideoangle>
                    <activeaudioangle>false</activeaudioangle>
                    <clip id="clip-4"/>
                  </angle>
                  <angle>
                    <activevideoangle>true</activevideoangle>
                    <activeaudioangle>true</activeaudioangle>
                    <clip id="clip-5"/>
                  </angle>
                  <angle>
                    <activevideoangle>false</activevideoangle>
                    <activeaudioangle>false</activeaudioangle>
                    <clip id="clip-6"/>
                  </angle>
                  <angle>
                    <activevideoangle>false</activevideoangle>
                    <activeaudioangle>false</activeaudioangle>
                    <clip id="clip-7"/>
                  </angle>
                  <angle>
                    <activevideoangle>false</activevideoangle>
                    <activeaudioangle>false</activeaudioangle>
                    <clip id="clip-8"/>
                  </angle>
                  <angle>
                    <activevideoangle>false</activevideoangle>
                    <activeaudioangle>false</activeaudioangle>
                    <clip id="clip-9"/>
                  </angle>
                  <masterclipid>clip-master</masterclipid>
                </multiclip>
              </clipitem>
              <clipitem id="cs-541">
                <duration>519</duration>
                <rate>
                  <ntsc>false</ntsc>
                  <timebase>25</timebase>
                </rate>
                <in>85448</in>
                <out>85966</out>
                <start>85448</start>
                <end>85966</end>
                <file id="src-4"/>
                <sourcetrack>
                  <mediatype>video</mediatype>
                  <trackindex>1</trackindex>
                </sourcetrack>
                <multiclip id="mcs-541">
                  <name>MCS-541</name>
                  <masterclipid>clip-master</masterclipid>
                  <collapsed>false</collapsed>
                  <angle>
                    <activevideoangle>false</activevideoangle>
                    <activeaudioangle>false</activeaudioangle>
                    <clip id="clip-1"/>
                  </angle>
                  <angle>
                    <activevideoangle>false</activevideoangle>
                    <activeaudioangle>false</activeaudioangle>
                    <clip id="clip-2"/>
                  </angle>
                  <angle>
                    <activevideoangle>false</activevideoangle>
                    <activeaudioangle>false</activeaudioangle>
                    <clip id="clip-3"/>
                  </angle>
                  <angle>
                    <activevideoangle>true</activevideoangle>
                    <activeaudioangle>true</activeaudioangle>
                    <clip id="clip-4"/>
                  </angle>
                  <angle>
                    <activevideoangle>false</activevideoangle>
                    <activeaudioangle>false</activeaudioangle>
                    <clip id="clip-5"/>
                  </angle>
                  <angle>
                    <activevideoangle>false</activevideoangle>
                    <activeaudioangle>false</activeaudioangle>
                    <clip id="clip-6"/>
                  </angle>
                  <angle>
                    <activevideoangle>false</activevideoangle>
                    <activeaudioangle>false</activeaudioangle>
                    <clip id="clip-7"/>
                  </angle>
                  <angle>
                    <activevideoangle>false</activevideoangle>
                    <activeaudioangle>false</activeaudioangle>
                    <clip id="clip-8"/>
                  </angle>
                  <angle>
                    <activevideoangle>false</activevideoangle>
                    <activeaudioangle>false</activeaudioangle>
                    <clip id="clip-9"/>
                  </angle>
                  <masterclipid>clip-master</masterclipid>
                </multiclip>
              </clipitem>
              <clipitem id="cs-542">
                <duration>83</duration>
                <rate>
                  <ntsc>false</ntsc>
                  <timebase>25</timebase>
                </rate>
                <in>85966</in>
                <out>86048</out>
                <start>85966</start>
                <end>86048</end>
                <file id="src-5"/>
                <sourcetrack>
                  <mediatype>video</mediatype>
                  <trackindex>1</trackindex>
                </sourcetrack>
                <multiclip id="mcs-542">
                  <name>MCS-542</name>
                  <masterclipid>clip-master</masterclipid>
                  <collapsed>false</collapsed>
                  <angle>
                    <activevideoangle>false</activevideoangle>
                    <activeaudioangle>false</activeaudioangle>
                    <clip id="clip-1"/>
                  </angle>
                  <angle>
                    <activevideoangle>false</activevideoangle>
                    <activeaudioangle>false</activeaudioangle>
                    <clip id="clip-2"/>
                  </angle>
                  <angle>
                    <activevideoangle>false</activevideoangle>
                    <activeaudioangle>false</activeaudioangle>
                    <clip id="clip-3"/>
                  </angle>
                  <angle>
                    <activevideoangle>false</activevideoangle>
                    <activeaudioangle>false</activeaudioangle>
                    <clip id="clip-4"/>
                  </angle>
                  <angle>
                    <activevideoangle>true</activevideoangle>
                    <activeaudioangle>true</activeaudioangle>
                    <clip id="clip-5"/>
                  </angle>
                  <angle>
                    <activevideoangle>false</activevideoangle>
                    <activeaudioangle>false</activeaudioangle>
                    <clip id="clip-6"/>
                  </angle>
                  <angle>
                    <activevideoangle>false</activevideoangle>
                    <activeaudioangle>false</activeaudioangle>
                    <clip id="clip-7"/>
                  </angle>
                  <angle>
                    <activevideoangle>false</activevideoangle>
                    <activeaudioangle>false</activeaudioangle>
                    <clip id="clip-8"/>
                  </angle>
                  <angle>
                    <activevideoangle>false</activevideoangle>
                    <activeaudioangle>false</activeaudioangle>
                    <clip id="clip-9"/>
                  </angle>
                  <masterclipid>clip-master</masterclipid>
                </multiclip>
              </clipitem>
              <clipitem id="cs-543">
                <duration>159</duration>
                <rate>
                  <ntsc>false</ntsc>
                  <timebase>25</timebase>
                </rate>
                <in>86048</in>
                <out>86206</out>
                <start>86048</start>
                <end>86206</end>
                <file id="src-4"/>
                <sourcetrack>
                  <mediatype>video</mediatype>
                  <trackindex>1</trackindex>
                </sourcetrack>
                <multiclip id="mcs-543">
                  <name>MCS-543</name>
                  <masterclipid>clip-master</masterclipid>
                  <collapsed>false</collapsed>
                  <angle>
                    <activevideoangle>false</activevideoangle>
                    <activeaudioangle>false</activeaudioangle>
                    <clip id="clip-1"/>
                  </angle>
                  <angle>
                    <activevideoangle>false</activevideoangle>
                    <activeaudioangle>false</activeaudioangle>
                    <clip id="clip-2"/>
                  </angle>
                  <angle>
                    <activevideoangle>false</activevideoangle>
                    <activeaudioangle>false</activeaudioangle>
                    <clip id="clip-3"/>
                  </angle>
                  <angle>
                    <activevideoangle>true</activevideoangle>
                    <activeaudioangle>true</activeaudioangle>
                    <clip id="clip-4"/>
                  </angle>
                  <angle>
                    <activevideoangle>false</activevideoangle>
                    <activeaudioangle>false</activeaudioangle>
                    <clip id="clip-5"/>
                  </angle>
                  <angle>
                    <activevideoangle>false</activevideoangle>
                    <activeaudioangle>false</activeaudioangle>
                    <clip id="clip-6"/>
                  </angle>
                  <angle>
                    <activevideoangle>false</activevideoangle>
                    <activeaudioangle>false</activeaudioangle>
                    <clip id="clip-7"/>
                  </angle>
                  <angle>
                    <activevideoangle>false</activevideoangle>
                    <activeaudioangle>false</activeaudioangle>
                    <clip id="clip-8"/>
                  </angle>
                  <angle>
                    <activevideoangle>false</activevideoangle>
                    <activeaudioangle>false</activeaudioangle>
                    <clip id="clip-9"/>
                  </angle>
                  <masterclipid>clip-master</masterclipid>
                </multiclip>
              </clipitem>
              <clipitem id="cs-544">
                <duration>160</duration>
                <rate>
                  <ntsc>false</ntsc>
                  <timebase>25</timebase>
                </rate>
                <in>86206</in>
                <out>86365</out>
                <start>86206</start>
                <end>86365</end>
                <file id="src-3"/>
                <sourcetrack>
                  <mediatype>video</mediatype>
                  <trackindex>1</trackindex>
                </sourcetrack>
                <multiclip id="mcs-544">
                  <name>MCS-544</name>
                  <masterclipid>clip-master</masterclipid>
                  <collapsed>false</collapsed>
                  <angle>
                    <activevideoangle>false</activevideoangle>
                    <activeaudioangle>false</activeaudioangle>
                    <clip id="clip-1"/>
                  </angle>
                  <angle>
                    <activevideoangle>false</activevideoangle>
                    <activeaudioangle>false</activeaudioangle>
                    <clip id="clip-2"/>
                  </angle>
                  <angle>
                    <activevideoangle>true</activevideoangle>
                    <activeaudioangle>true</activeaudioangle>
                    <clip id="clip-3"/>
                  </angle>
                  <angle>
                    <activevideoangle>false</activevideoangle>
                    <activeaudioangle>false</activeaudioangle>
                    <clip id="clip-4"/>
                  </angle>
                  <angle>
                    <activevideoangle>false</activevideoangle>
                    <activeaudioangle>false</activeaudioangle>
                    <clip id="clip-5"/>
                  </angle>
                  <angle>
                    <activevideoangle>false</activevideoangle>
                    <activeaudioangle>false</activeaudioangle>
                    <clip id="clip-6"/>
                  </angle>
                  <angle>
                    <activevideoangle>false</activevideoangle>
                    <activeaudioangle>false</activeaudioangle>
                    <clip id="clip-7"/>
                  </angle>
                  <angle>
                    <activevideoangle>false</activevideoangle>
                    <activeaudioangle>false</activeaudioangle>
                    <clip id="clip-8"/>
                  </angle>
                  <angle>
                    <activevideoangle>false</activevideoangle>
                    <activeaudioangle>false</activeaudioangle>
                    <clip id="clip-9"/>
                  </angle>
                  <masterclipid>clip-master</masterclipid>
                </multiclip>
              </clipitem>
              <clipitem id="cs-545">
                <duration>100</duration>
                <rate>
                  <ntsc>false</ntsc>
                  <timebase>25</timebase>
                </rate>
                <in>86365</in>
                <out>86464</out>
                <start>86365</start>
                <end>86464</end>
                <file id="src-4"/>
                <sourcetrack>
                  <mediatype>video</mediatype>
                  <trackindex>1</trackindex>
                </sourcetrack>
                <multiclip id="mcs-545">
                  <name>MCS-545</name>
                  <masterclipid>clip-master</masterclipid>
                  <collapsed>false</collapsed>
                  <angle>
                    <activevideoangle>false</activevideoangle>
                    <activeaudioangle>false</activeaudioangle>
                    <clip id="clip-1"/>
                  </angle>
                  <angle>
                    <activevideoangle>false</activevideoangle>
                    <activeaudioangle>false</activeaudioangle>
                    <clip id="clip-2"/>
                  </angle>
                  <angle>
                    <activevideoangle>false</activevideoangle>
                    <activeaudioangle>false</activeaudioangle>
                    <clip id="clip-3"/>
                  </angle>
                  <angle>
                    <activevideoangle>true</activevideoangle>
                    <activeaudioangle>true</activeaudioangle>
                    <clip id="clip-4"/>
                  </angle>
                  <angle>
                    <activevideoangle>false</activevideoangle>
                    <activeaudioangle>false</activeaudioangle>
                    <clip id="clip-5"/>
                  </angle>
                  <angle>
                    <activevideoangle>false</activevideoangle>
                    <activeaudioangle>false</activeaudioangle>
                    <clip id="clip-6"/>
                  </angle>
                  <angle>
                    <activevideoangle>false</activevideoangle>
                    <activeaudioangle>false</activeaudioangle>
                    <clip id="clip-7"/>
                  </angle>
                  <angle>
                    <activevideoangle>false</activevideoangle>
                    <activeaudioangle>false</activeaudioangle>
                    <clip id="clip-8"/>
                  </angle>
                  <angle>
                    <activevideoangle>false</activevideoangle>
                    <activeaudioangle>false</activeaudioangle>
                    <clip id="clip-9"/>
                  </angle>
                  <masterclipid>clip-master</masterclipid>
                </multiclip>
              </clipitem>
              <clipitem id="cs-546">
                <duration>492</duration>
                <rate>
                  <ntsc>false</ntsc>
                  <timebase>25</timebase>
                </rate>
                <in>86464</in>
                <out>86955</out>
                <start>86464</start>
                <end>86955</end>
                <file id="src-2"/>
                <sourcetrack>
                  <mediatype>video</mediatype>
                  <trackindex>1</trackindex>
                </sourcetrack>
                <multiclip id="mcs-546">
                  <name>MCS-546</name>
                  <masterclipid>clip-master</masterclipid>
                  <collapsed>false</collapsed>
                  <angle>
                    <activevideoangle>false</activevideoangle>
                    <activeaudioangle>false</activeaudioangle>
                    <clip id="clip-1"/>
                  </angle>
                  <angle>
                    <activevideoangle>true</activevideoangle>
                    <activeaudioangle>true</activeaudioangle>
                    <clip id="clip-2"/>
                  </angle>
                  <angle>
                    <activevideoangle>false</activevideoangle>
                    <activeaudioangle>false</activeaudioangle>
                    <clip id="clip-3"/>
                  </angle>
                  <angle>
                    <activevideoangle>false</activevideoangle>
                    <activeaudioangle>false</activeaudioangle>
                    <clip id="clip-4"/>
                  </angle>
                  <angle>
                    <activevideoangle>false</activevideoangle>
                    <activeaudioangle>false</activeaudioangle>
                    <clip id="clip-5"/>
                  </angle>
                  <angle>
                    <activevideoangle>false</activevideoangle>
                    <activeaudioangle>false</activeaudioangle>
                    <clip id="clip-6"/>
                  </angle>
                  <angle>
                    <activevideoangle>false</activevideoangle>
                    <activeaudioangle>false</activeaudioangle>
                    <clip id="clip-7"/>
                  </angle>
                  <angle>
                    <activevideoangle>false</activevideoangle>
                    <activeaudioangle>false</activeaudioangle>
                    <clip id="clip-8"/>
                  </angle>
                  <angle>
                    <activevideoangle>false</activevideoangle>
                    <activeaudioangle>false</activeaudioangle>
                    <clip id="clip-9"/>
                  </angle>
                  <masterclipid>clip-master</masterclipid>
                </multiclip>
              </clipitem>
              <clipitem id="cs-547">
                <duration>96</duration>
                <rate>
                  <ntsc>false</ntsc>
                  <timebase>25</timebase>
                </rate>
                <in>86955</in>
                <out>87050</out>
                <start>86955</start>
                <end>87050</end>
                <file id="src-4"/>
                <sourcetrack>
                  <mediatype>video</mediatype>
                  <trackindex>1</trackindex>
                </sourcetrack>
                <multiclip id="mcs-547">
                  <name>MCS-547</name>
                  <masterclipid>clip-master</masterclipid>
                  <collapsed>false</collapsed>
                  <angle>
                    <activevideoangle>false</activevideoangle>
                    <activeaudioangle>false</activeaudioangle>
                    <clip id="clip-1"/>
                  </angle>
                  <angle>
                    <activevideoangle>false</activevideoangle>
                    <activeaudioangle>false</activeaudioangle>
                    <clip id="clip-2"/>
                  </angle>
                  <angle>
                    <activevideoangle>false</activevideoangle>
                    <activeaudioangle>false</activeaudioangle>
                    <clip id="clip-3"/>
                  </angle>
                  <angle>
                    <activevideoangle>true</activevideoangle>
                    <activeaudioangle>true</activeaudioangle>
                    <clip id="clip-4"/>
                  </angle>
                  <angle>
                    <activevideoangle>false</activevideoangle>
                    <activeaudioangle>false</activeaudioangle>
                    <clip id="clip-5"/>
                  </angle>
                  <angle>
                    <activevideoangle>false</activevideoangle>
                    <activeaudioangle>false</activeaudioangle>
                    <clip id="clip-6"/>
                  </angle>
                  <angle>
                    <activevideoangle>false</activevideoangle>
                    <activeaudioangle>false</activeaudioangle>
                    <clip id="clip-7"/>
                  </angle>
                  <angle>
                    <activevideoangle>false</activevideoangle>
                    <activeaudioangle>false</activeaudioangle>
                    <clip id="clip-8"/>
                  </angle>
                  <angle>
                    <activevideoangle>false</activevideoangle>
                    <activeaudioangle>false</activeaudioangle>
                    <clip id="clip-9"/>
                  </angle>
                  <masterclipid>clip-master</masterclipid>
                </multiclip>
              </clipitem>
              <clipitem id="cs-548">
                <duration>197</duration>
                <rate>
                  <ntsc>false</ntsc>
                  <timebase>25</timebase>
                </rate>
                <in>87050</in>
                <out>87246</out>
                <start>87050</start>
                <end>87246</end>
                <file id="src-2"/>
                <sourcetrack>
                  <mediatype>video</mediatype>
                  <trackindex>1</trackindex>
                </sourcetrack>
                <multiclip id="mcs-548">
                  <name>MCS-548</name>
                  <masterclipid>clip-master</masterclipid>
                  <collapsed>false</collapsed>
                  <angle>
                    <activevideoangle>false</activevideoangle>
                    <activeaudioangle>false</activeaudioangle>
                    <clip id="clip-1"/>
                  </angle>
                  <angle>
                    <activevideoangle>true</activevideoangle>
                    <activeaudioangle>true</activeaudioangle>
                    <clip id="clip-2"/>
                  </angle>
                  <angle>
                    <activevideoangle>false</activevideoangle>
                    <activeaudioangle>false</activeaudioangle>
                    <clip id="clip-3"/>
                  </angle>
                  <angle>
                    <activevideoangle>false</activevideoangle>
                    <activeaudioangle>false</activeaudioangle>
                    <clip id="clip-4"/>
                  </angle>
                  <angle>
                    <activevideoangle>false</activevideoangle>
                    <activeaudioangle>false</activeaudioangle>
                    <clip id="clip-5"/>
                  </angle>
                  <angle>
                    <activevideoangle>false</activevideoangle>
                    <activeaudioangle>false</activeaudioangle>
                    <clip id="clip-6"/>
                  </angle>
                  <angle>
                    <activevideoangle>false</activevideoangle>
                    <activeaudioangle>false</activeaudioangle>
                    <clip id="clip-7"/>
                  </angle>
                  <angle>
                    <activevideoangle>false</activevideoangle>
                    <activeaudioangle>false</activeaudioangle>
                    <clip id="clip-8"/>
                  </angle>
                  <angle>
                    <activevideoangle>false</activevideoangle>
                    <activeaudioangle>false</activeaudioangle>
                    <clip id="clip-9"/>
                  </angle>
                  <masterclipid>clip-master</masterclipid>
                </multiclip>
              </clipitem>
              <clipitem id="cs-549">
                <duration>81</duration>
                <rate>
                  <ntsc>false</ntsc>
                  <timebase>25</timebase>
                </rate>
                <in>87246</in>
                <out>87326</out>
                <start>87246</start>
                <end>87326</end>
                <file id="src-4"/>
                <sourcetrack>
                  <mediatype>video</mediatype>
                  <trackindex>1</trackindex>
                </sourcetrack>
                <multiclip id="mcs-549">
                  <name>MCS-549</name>
                  <masterclipid>clip-master</masterclipid>
                  <collapsed>false</collapsed>
                  <angle>
                    <activevideoangle>false</activevideoangle>
                    <activeaudioangle>false</activeaudioangle>
                    <clip id="clip-1"/>
                  </angle>
                  <angle>
                    <activevideoangle>false</activevideoangle>
                    <activeaudioangle>false</activeaudioangle>
                    <clip id="clip-2"/>
                  </angle>
                  <angle>
                    <activevideoangle>false</activevideoangle>
                    <activeaudioangle>false</activeaudioangle>
                    <clip id="clip-3"/>
                  </angle>
                  <angle>
                    <activevideoangle>true</activevideoangle>
                    <activeaudioangle>true</activeaudioangle>
                    <clip id="clip-4"/>
                  </angle>
                  <angle>
                    <activevideoangle>false</activevideoangle>
                    <activeaudioangle>false</activeaudioangle>
                    <clip id="clip-5"/>
                  </angle>
                  <angle>
                    <activevideoangle>false</activevideoangle>
                    <activeaudioangle>false</activeaudioangle>
                    <clip id="clip-6"/>
                  </angle>
                  <angle>
                    <activevideoangle>false</activevideoangle>
                    <activeaudioangle>false</activeaudioangle>
                    <clip id="clip-7"/>
                  </angle>
                  <angle>
                    <activevideoangle>false</activevideoangle>
                    <activeaudioangle>false</activeaudioangle>
                    <clip id="clip-8"/>
                  </angle>
                  <angle>
                    <activevideoangle>false</activevideoangle>
                    <activeaudioangle>false</activeaudioangle>
                    <clip id="clip-9"/>
                  </angle>
                  <masterclipid>clip-master</masterclipid>
                </multiclip>
              </clipitem>
              <clipitem id="cs-550">
                <duration>59</duration>
                <rate>
                  <ntsc>false</ntsc>
                  <timebase>25</timebase>
                </rate>
                <in>87326</in>
                <out>87384</out>
                <start>87326</start>
                <end>87384</end>
                <file id="src-5"/>
                <sourcetrack>
                  <mediatype>video</mediatype>
                  <trackindex>1</trackindex>
                </sourcetrack>
                <multiclip id="mcs-550">
                  <name>MCS-550</name>
                  <masterclipid>clip-master</masterclipid>
                  <collapsed>false</collapsed>
                  <angle>
                    <activevideoangle>false</activevideoangle>
                    <activeaudioangle>false</activeaudioangle>
                    <clip id="clip-1"/>
                  </angle>
                  <angle>
                    <activevideoangle>false</activevideoangle>
                    <activeaudioangle>false</activeaudioangle>
                    <clip id="clip-2"/>
                  </angle>
                  <angle>
                    <activevideoangle>false</activevideoangle>
                    <activeaudioangle>false</activeaudioangle>
                    <clip id="clip-3"/>
                  </angle>
                  <angle>
                    <activevideoangle>false</activevideoangle>
                    <activeaudioangle>false</activeaudioangle>
                    <clip id="clip-4"/>
                  </angle>
                  <angle>
                    <activevideoangle>true</activevideoangle>
                    <activeaudioangle>true</activeaudioangle>
                    <clip id="clip-5"/>
                  </angle>
                  <angle>
                    <activevideoangle>false</activevideoangle>
                    <activeaudioangle>false</activeaudioangle>
                    <clip id="clip-6"/>
                  </angle>
                  <angle>
                    <activevideoangle>false</activevideoangle>
                    <activeaudioangle>false</activeaudioangle>
                    <clip id="clip-7"/>
                  </angle>
                  <angle>
                    <activevideoangle>false</activevideoangle>
                    <activeaudioangle>false</activeaudioangle>
                    <clip id="clip-8"/>
                  </angle>
                  <angle>
                    <activevideoangle>false</activevideoangle>
                    <activeaudioangle>false</activeaudioangle>
                    <clip id="clip-9"/>
                  </angle>
                  <masterclipid>clip-master</masterclipid>
                </multiclip>
              </clipitem>
              <clipitem id="cs-551">
                <duration>55</duration>
                <rate>
                  <ntsc>false</ntsc>
                  <timebase>25</timebase>
                </rate>
                <in>87384</in>
                <out>87438</out>
                <start>87384</start>
                <end>87438</end>
                <file id="src-2"/>
                <sourcetrack>
                  <mediatype>video</mediatype>
                  <trackindex>1</trackindex>
                </sourcetrack>
                <multiclip id="mcs-551">
                  <name>MCS-551</name>
                  <masterclipid>clip-master</masterclipid>
                  <collapsed>false</collapsed>
                  <angle>
                    <activevideoangle>false</activevideoangle>
                    <activeaudioangle>false</activeaudioangle>
                    <clip id="clip-1"/>
                  </angle>
                  <angle>
                    <activevideoangle>true</activevideoangle>
                    <activeaudioangle>true</activeaudioangle>
                    <clip id="clip-2"/>
                  </angle>
                  <angle>
                    <activevideoangle>false</activevideoangle>
                    <activeaudioangle>false</activeaudioangle>
                    <clip id="clip-3"/>
                  </angle>
                  <angle>
                    <activevideoangle>false</activevideoangle>
                    <activeaudioangle>false</activeaudioangle>
                    <clip id="clip-4"/>
                  </angle>
                  <angle>
                    <activevideoangle>false</activevideoangle>
                    <activeaudioangle>false</activeaudioangle>
                    <clip id="clip-5"/>
                  </angle>
                  <angle>
                    <activevideoangle>false</activevideoangle>
                    <activeaudioangle>false</activeaudioangle>
                    <clip id="clip-6"/>
                  </angle>
                  <angle>
                    <activevideoangle>false</activevideoangle>
                    <activeaudioangle>false</activeaudioangle>
                    <clip id="clip-7"/>
                  </angle>
                  <angle>
                    <activevideoangle>false</activevideoangle>
                    <activeaudioangle>false</activeaudioangle>
                    <clip id="clip-8"/>
                  </angle>
                  <angle>
                    <activevideoangle>false</activevideoangle>
                    <activeaudioangle>false</activeaudioangle>
                    <clip id="clip-9"/>
                  </angle>
                  <masterclipid>clip-master</masterclipid>
                </multiclip>
              </clipitem>
              <clipitem id="cs-552">
                <duration>105</duration>
                <rate>
                  <ntsc>false</ntsc>
                  <timebase>25</timebase>
                </rate>
                <in>87438</in>
                <out>87542</out>
                <start>87438</start>
                <end>87542</end>
                <file id="src-4"/>
                <sourcetrack>
                  <mediatype>video</mediatype>
                  <trackindex>1</trackindex>
                </sourcetrack>
                <multiclip id="mcs-552">
                  <name>MCS-552</name>
                  <masterclipid>clip-master</masterclipid>
                  <collapsed>false</collapsed>
                  <angle>
                    <activevideoangle>false</activevideoangle>
                    <activeaudioangle>false</activeaudioangle>
                    <clip id="clip-1"/>
                  </angle>
                  <angle>
                    <activevideoangle>false</activevideoangle>
                    <activeaudioangle>false</activeaudioangle>
                    <clip id="clip-2"/>
                  </angle>
                  <angle>
                    <activevideoangle>false</activevideoangle>
                    <activeaudioangle>false</activeaudioangle>
                    <clip id="clip-3"/>
                  </angle>
                  <angle>
                    <activevideoangle>true</activevideoangle>
                    <activeaudioangle>true</activeaudioangle>
                    <clip id="clip-4"/>
                  </angle>
                  <angle>
                    <activevideoangle>false</activevideoangle>
                    <activeaudioangle>false</activeaudioangle>
                    <clip id="clip-5"/>
                  </angle>
                  <angle>
                    <activevideoangle>false</activevideoangle>
                    <activeaudioangle>false</activeaudioangle>
                    <clip id="clip-6"/>
                  </angle>
                  <angle>
                    <activevideoangle>false</activevideoangle>
                    <activeaudioangle>false</activeaudioangle>
                    <clip id="clip-7"/>
                  </angle>
                  <angle>
                    <activevideoangle>false</activevideoangle>
                    <activeaudioangle>false</activeaudioangle>
                    <clip id="clip-8"/>
                  </angle>
                  <angle>
                    <activevideoangle>false</activevideoangle>
                    <activeaudioangle>false</activeaudioangle>
                    <clip id="clip-9"/>
                  </angle>
                  <masterclipid>clip-master</masterclipid>
                </multiclip>
              </clipitem>
              <clipitem id="cs-553">
                <duration>128</duration>
                <rate>
                  <ntsc>false</ntsc>
                  <timebase>25</timebase>
                </rate>
                <in>87542</in>
                <out>87669</out>
                <start>87542</start>
                <end>87669</end>
                <file id="src-6"/>
                <sourcetrack>
                  <mediatype>video</mediatype>
                  <trackindex>1</trackindex>
                </sourcetrack>
                <multiclip id="mcs-553">
                  <name>MCS-553</name>
                  <masterclipid>clip-master</masterclipid>
                  <collapsed>false</collapsed>
                  <angle>
                    <activevideoangle>false</activevideoangle>
                    <activeaudioangle>false</activeaudioangle>
                    <clip id="clip-1"/>
                  </angle>
                  <angle>
                    <activevideoangle>false</activevideoangle>
                    <activeaudioangle>false</activeaudioangle>
                    <clip id="clip-2"/>
                  </angle>
                  <angle>
                    <activevideoangle>false</activevideoangle>
                    <activeaudioangle>false</activeaudioangle>
                    <clip id="clip-3"/>
                  </angle>
                  <angle>
                    <activevideoangle>false</activevideoangle>
                    <activeaudioangle>false</activeaudioangle>
                    <clip id="clip-4"/>
                  </angle>
                  <angle>
                    <activevideoangle>false</activevideoangle>
                    <activeaudioangle>false</activeaudioangle>
                    <clip id="clip-5"/>
                  </angle>
                  <angle>
                    <activevideoangle>true</activevideoangle>
                    <activeaudioangle>true</activeaudioangle>
                    <clip id="clip-6"/>
                  </angle>
                  <angle>
                    <activevideoangle>false</activevideoangle>
                    <activeaudioangle>false</activeaudioangle>
                    <clip id="clip-7"/>
                  </angle>
                  <angle>
                    <activevideoangle>false</activevideoangle>
                    <activeaudioangle>false</activeaudioangle>
                    <clip id="clip-8"/>
                  </angle>
                  <angle>
                    <activevideoangle>false</activevideoangle>
                    <activeaudioangle>false</activeaudioangle>
                    <clip id="clip-9"/>
                  </angle>
                  <masterclipid>clip-master</masterclipid>
                </multiclip>
              </clipitem>
              <clipitem id="cs-554">
                <duration>19</duration>
                <rate>
                  <ntsc>false</ntsc>
                  <timebase>25</timebase>
                </rate>
                <in>87669</in>
                <out>87687</out>
                <start>87669</start>
                <end>87687</end>
                <file id="src-5"/>
                <sourcetrack>
                  <mediatype>video</mediatype>
                  <trackindex>1</trackindex>
                </sourcetrack>
                <multiclip id="mcs-554">
                  <name>MCS-554</name>
                  <masterclipid>clip-master</masterclipid>
                  <collapsed>false</collapsed>
                  <angle>
                    <activevideoangle>false</activevideoangle>
                    <activeaudioangle>false</activeaudioangle>
                    <clip id="clip-1"/>
                  </angle>
                  <angle>
                    <activevideoangle>false</activevideoangle>
                    <activeaudioangle>false</activeaudioangle>
                    <clip id="clip-2"/>
                  </angle>
                  <angle>
                    <activevideoangle>false</activevideoangle>
                    <activeaudioangle>false</activeaudioangle>
                    <clip id="clip-3"/>
                  </angle>
                  <angle>
                    <activevideoangle>false</activevideoangle>
                    <activeaudioangle>false</activeaudioangle>
                    <clip id="clip-4"/>
                  </angle>
                  <angle>
                    <activevideoangle>true</activevideoangle>
                    <activeaudioangle>true</activeaudioangle>
                    <clip id="clip-5"/>
                  </angle>
                  <angle>
                    <activevideoangle>false</activevideoangle>
                    <activeaudioangle>false</activeaudioangle>
                    <clip id="clip-6"/>
                  </angle>
                  <angle>
                    <activevideoangle>false</activevideoangle>
                    <activeaudioangle>false</activeaudioangle>
                    <clip id="clip-7"/>
                  </angle>
                  <angle>
                    <activevideoangle>false</activevideoangle>
                    <activeaudioangle>false</activeaudioangle>
                    <clip id="clip-8"/>
                  </angle>
                  <angle>
                    <activevideoangle>false</activevideoangle>
                    <activeaudioangle>false</activeaudioangle>
                    <clip id="clip-9"/>
                  </angle>
                  <masterclipid>clip-master</masterclipid>
                </multiclip>
              </clipitem>
              <clipitem id="cs-555">
                <duration>320</duration>
                <rate>
                  <ntsc>false</ntsc>
                  <timebase>25</timebase>
                </rate>
                <in>87687</in>
                <out>88006</out>
                <start>87687</start>
                <end>88006</end>
                <file id="src-4"/>
                <sourcetrack>
                  <mediatype>video</mediatype>
                  <trackindex>1</trackindex>
                </sourcetrack>
                <multiclip id="mcs-555">
                  <name>MCS-555</name>
                  <masterclipid>clip-master</masterclipid>
                  <collapsed>false</collapsed>
                  <angle>
                    <activevideoangle>false</activevideoangle>
                    <activeaudioangle>false</activeaudioangle>
                    <clip id="clip-1"/>
                  </angle>
                  <angle>
                    <activevideoangle>false</activevideoangle>
                    <activeaudioangle>false</activeaudioangle>
                    <clip id="clip-2"/>
                  </angle>
                  <angle>
                    <activevideoangle>false</activevideoangle>
                    <activeaudioangle>false</activeaudioangle>
                    <clip id="clip-3"/>
                  </angle>
                  <angle>
                    <activevideoangle>true</activevideoangle>
                    <activeaudioangle>true</activeaudioangle>
                    <clip id="clip-4"/>
                  </angle>
                  <angle>
                    <activevideoangle>false</activevideoangle>
                    <activeaudioangle>false</activeaudioangle>
                    <clip id="clip-5"/>
                  </angle>
                  <angle>
                    <activevideoangle>false</activevideoangle>
                    <activeaudioangle>false</activeaudioangle>
                    <clip id="clip-6"/>
                  </angle>
                  <angle>
                    <activevideoangle>false</activevideoangle>
                    <activeaudioangle>false</activeaudioangle>
                    <clip id="clip-7"/>
                  </angle>
                  <angle>
                    <activevideoangle>false</activevideoangle>
                    <activeaudioangle>false</activeaudioangle>
                    <clip id="clip-8"/>
                  </angle>
                  <angle>
                    <activevideoangle>false</activevideoangle>
                    <activeaudioangle>false</activeaudioangle>
                    <clip id="clip-9"/>
                  </angle>
                  <masterclipid>clip-master</masterclipid>
                </multiclip>
              </clipitem>
              <clipitem id="cs-556">
                <duration>75</duration>
                <rate>
                  <ntsc>false</ntsc>
                  <timebase>25</timebase>
                </rate>
                <in>88006</in>
                <out>88080</out>
                <start>88006</start>
                <end>88080</end>
                <file id="src-2"/>
                <sourcetrack>
                  <mediatype>video</mediatype>
                  <trackindex>1</trackindex>
                </sourcetrack>
                <multiclip id="mcs-556">
                  <name>MCS-556</name>
                  <masterclipid>clip-master</masterclipid>
                  <collapsed>false</collapsed>
                  <angle>
                    <activevideoangle>false</activevideoangle>
                    <activeaudioangle>false</activeaudioangle>
                    <clip id="clip-1"/>
                  </angle>
                  <angle>
                    <activevideoangle>true</activevideoangle>
                    <activeaudioangle>true</activeaudioangle>
                    <clip id="clip-2"/>
                  </angle>
                  <angle>
                    <activevideoangle>false</activevideoangle>
                    <activeaudioangle>false</activeaudioangle>
                    <clip id="clip-3"/>
                  </angle>
                  <angle>
                    <activevideoangle>false</activevideoangle>
                    <activeaudioangle>false</activeaudioangle>
                    <clip id="clip-4"/>
                  </angle>
                  <angle>
                    <activevideoangle>false</activevideoangle>
                    <activeaudioangle>false</activeaudioangle>
                    <clip id="clip-5"/>
                  </angle>
                  <angle>
                    <activevideoangle>false</activevideoangle>
                    <activeaudioangle>false</activeaudioangle>
                    <clip id="clip-6"/>
                  </angle>
                  <angle>
                    <activevideoangle>false</activevideoangle>
                    <activeaudioangle>false</activeaudioangle>
                    <clip id="clip-7"/>
                  </angle>
                  <angle>
                    <activevideoangle>false</activevideoangle>
                    <activeaudioangle>false</activeaudioangle>
                    <clip id="clip-8"/>
                  </angle>
                  <angle>
                    <activevideoangle>false</activevideoangle>
                    <activeaudioangle>false</activeaudioangle>
                    <clip id="clip-9"/>
                  </angle>
                  <masterclipid>clip-master</masterclipid>
                </multiclip>
              </clipitem>
              <clipitem id="cs-557">
                <duration>365</duration>
                <rate>
                  <ntsc>false</ntsc>
                  <timebase>25</timebase>
                </rate>
                <in>88080</in>
                <out>88444</out>
                <start>88080</start>
                <end>88444</end>
                <file id="src-3"/>
                <sourcetrack>
                  <mediatype>video</mediatype>
                  <trackindex>1</trackindex>
                </sourcetrack>
                <multiclip id="mcs-557">
                  <name>MCS-557</name>
                  <masterclipid>clip-master</masterclipid>
                  <collapsed>false</collapsed>
                  <angle>
                    <activevideoangle>false</activevideoangle>
                    <activeaudioangle>false</activeaudioangle>
                    <clip id="clip-1"/>
                  </angle>
                  <angle>
                    <activevideoangle>false</activevideoangle>
                    <activeaudioangle>false</activeaudioangle>
                    <clip id="clip-2"/>
                  </angle>
                  <angle>
                    <activevideoangle>true</activevideoangle>
                    <activeaudioangle>true</activeaudioangle>
                    <clip id="clip-3"/>
                  </angle>
                  <angle>
                    <activevideoangle>false</activevideoangle>
                    <activeaudioangle>false</activeaudioangle>
                    <clip id="clip-4"/>
                  </angle>
                  <angle>
                    <activevideoangle>false</activevideoangle>
                    <activeaudioangle>false</activeaudioangle>
                    <clip id="clip-5"/>
                  </angle>
                  <angle>
                    <activevideoangle>false</activevideoangle>
                    <activeaudioangle>false</activeaudioangle>
                    <clip id="clip-6"/>
                  </angle>
                  <angle>
                    <activevideoangle>false</activevideoangle>
                    <activeaudioangle>false</activeaudioangle>
                    <clip id="clip-7"/>
                  </angle>
                  <angle>
                    <activevideoangle>false</activevideoangle>
                    <activeaudioangle>false</activeaudioangle>
                    <clip id="clip-8"/>
                  </angle>
                  <angle>
                    <activevideoangle>false</activevideoangle>
                    <activeaudioangle>false</activeaudioangle>
                    <clip id="clip-9"/>
                  </angle>
                  <masterclipid>clip-master</masterclipid>
                </multiclip>
              </clipitem>
              <clipitem id="cs-558">
                <duration>106</duration>
                <rate>
                  <ntsc>false</ntsc>
                  <timebase>25</timebase>
                </rate>
                <in>88444</in>
                <out>88549</out>
                <start>88444</start>
                <end>88549</end>
                <file id="src-6"/>
                <sourcetrack>
                  <mediatype>video</mediatype>
                  <trackindex>1</trackindex>
                </sourcetrack>
                <multiclip id="mcs-558">
                  <name>MCS-558</name>
                  <masterclipid>clip-master</masterclipid>
                  <collapsed>false</collapsed>
                  <angle>
                    <activevideoangle>false</activevideoangle>
                    <activeaudioangle>false</activeaudioangle>
                    <clip id="clip-1"/>
                  </angle>
                  <angle>
                    <activevideoangle>false</activevideoangle>
                    <activeaudioangle>false</activeaudioangle>
                    <clip id="clip-2"/>
                  </angle>
                  <angle>
                    <activevideoangle>false</activevideoangle>
                    <activeaudioangle>false</activeaudioangle>
                    <clip id="clip-3"/>
                  </angle>
                  <angle>
                    <activevideoangle>false</activevideoangle>
                    <activeaudioangle>false</activeaudioangle>
                    <clip id="clip-4"/>
                  </angle>
                  <angle>
                    <activevideoangle>false</activevideoangle>
                    <activeaudioangle>false</activeaudioangle>
                    <clip id="clip-5"/>
                  </angle>
                  <angle>
                    <activevideoangle>true</activevideoangle>
                    <activeaudioangle>true</activeaudioangle>
                    <clip id="clip-6"/>
                  </angle>
                  <angle>
                    <activevideoangle>false</activevideoangle>
                    <activeaudioangle>false</activeaudioangle>
                    <clip id="clip-7"/>
                  </angle>
                  <angle>
                    <activevideoangle>false</activevideoangle>
                    <activeaudioangle>false</activeaudioangle>
                    <clip id="clip-8"/>
                  </angle>
                  <angle>
                    <activevideoangle>false</activevideoangle>
                    <activeaudioangle>false</activeaudioangle>
                    <clip id="clip-9"/>
                  </angle>
                  <masterclipid>clip-master</masterclipid>
                </multiclip>
              </clipitem>
              <clipitem id="cs-559">
                <duration>328</duration>
                <rate>
                  <ntsc>false</ntsc>
                  <timebase>25</timebase>
                </rate>
                <in>88549</in>
                <out>88876</out>
                <start>88549</start>
                <end>88876</end>
                <file id="src-4"/>
                <sourcetrack>
                  <mediatype>video</mediatype>
                  <trackindex>1</trackindex>
                </sourcetrack>
                <multiclip id="mcs-559">
                  <name>MCS-559</name>
                  <masterclipid>clip-master</masterclipid>
                  <collapsed>false</collapsed>
                  <angle>
                    <activevideoangle>false</activevideoangle>
                    <activeaudioangle>false</activeaudioangle>
                    <clip id="clip-1"/>
                  </angle>
                  <angle>
                    <activevideoangle>false</activevideoangle>
                    <activeaudioangle>false</activeaudioangle>
                    <clip id="clip-2"/>
                  </angle>
                  <angle>
                    <activevideoangle>false</activevideoangle>
                    <activeaudioangle>false</activeaudioangle>
                    <clip id="clip-3"/>
                  </angle>
                  <angle>
                    <activevideoangle>true</activevideoangle>
                    <activeaudioangle>true</activeaudioangle>
                    <clip id="clip-4"/>
                  </angle>
                  <angle>
                    <activevideoangle>false</activevideoangle>
                    <activeaudioangle>false</activeaudioangle>
                    <clip id="clip-5"/>
                  </angle>
                  <angle>
                    <activevideoangle>false</activevideoangle>
                    <activeaudioangle>false</activeaudioangle>
                    <clip id="clip-6"/>
                  </angle>
                  <angle>
                    <activevideoangle>false</activevideoangle>
                    <activeaudioangle>false</activeaudioangle>
                    <clip id="clip-7"/>
                  </angle>
                  <angle>
                    <activevideoangle>false</activevideoangle>
                    <activeaudioangle>false</activeaudioangle>
                    <clip id="clip-8"/>
                  </angle>
                  <angle>
                    <activevideoangle>false</activevideoangle>
                    <activeaudioangle>false</activeaudioangle>
                    <clip id="clip-9"/>
                  </angle>
                  <masterclipid>clip-master</masterclipid>
                </multiclip>
              </clipitem>
              <clipitem id="cs-560">
                <duration>70</duration>
                <rate>
                  <ntsc>false</ntsc>
                  <timebase>25</timebase>
                </rate>
                <in>88876</in>
                <out>88945</out>
                <start>88876</start>
                <end>88945</end>
                <file id="src-2"/>
                <sourcetrack>
                  <mediatype>video</mediatype>
                  <trackindex>1</trackindex>
                </sourcetrack>
                <multiclip id="mcs-560">
                  <name>MCS-560</name>
                  <masterclipid>clip-master</masterclipid>
                  <collapsed>false</collapsed>
                  <angle>
                    <activevideoangle>false</activevideoangle>
                    <activeaudioangle>false</activeaudioangle>
                    <clip id="clip-1"/>
                  </angle>
                  <angle>
                    <activevideoangle>true</activevideoangle>
                    <activeaudioangle>true</activeaudioangle>
                    <clip id="clip-2"/>
                  </angle>
                  <angle>
                    <activevideoangle>false</activevideoangle>
                    <activeaudioangle>false</activeaudioangle>
                    <clip id="clip-3"/>
                  </angle>
                  <angle>
                    <activevideoangle>false</activevideoangle>
                    <activeaudioangle>false</activeaudioangle>
                    <clip id="clip-4"/>
                  </angle>
                  <angle>
                    <activevideoangle>false</activevideoangle>
                    <activeaudioangle>false</activeaudioangle>
                    <clip id="clip-5"/>
                  </angle>
                  <angle>
                    <activevideoangle>false</activevideoangle>
                    <activeaudioangle>false</activeaudioangle>
                    <clip id="clip-6"/>
                  </angle>
                  <angle>
                    <activevideoangle>false</activevideoangle>
                    <activeaudioangle>false</activeaudioangle>
                    <clip id="clip-7"/>
                  </angle>
                  <angle>
                    <activevideoangle>false</activevideoangle>
                    <activeaudioangle>false</activeaudioangle>
                    <clip id="clip-8"/>
                  </angle>
                  <angle>
                    <activevideoangle>false</activevideoangle>
                    <activeaudioangle>false</activeaudioangle>
                    <clip id="clip-9"/>
                  </angle>
                  <masterclipid>clip-master</masterclipid>
                </multiclip>
              </clipitem>
              <clipitem id="cs-561">
                <duration>38</duration>
                <rate>
                  <ntsc>false</ntsc>
                  <timebase>25</timebase>
                </rate>
                <in>88945</in>
                <out>88982</out>
                <start>88945</start>
                <end>88982</end>
                <file id="src-3"/>
                <sourcetrack>
                  <mediatype>video</mediatype>
                  <trackindex>1</trackindex>
                </sourcetrack>
                <multiclip id="mcs-561">
                  <name>MCS-561</name>
                  <masterclipid>clip-master</masterclipid>
                  <collapsed>false</collapsed>
                  <angle>
                    <activevideoangle>false</activevideoangle>
                    <activeaudioangle>false</activeaudioangle>
                    <clip id="clip-1"/>
                  </angle>
                  <angle>
                    <activevideoangle>false</activevideoangle>
                    <activeaudioangle>false</activeaudioangle>
                    <clip id="clip-2"/>
                  </angle>
                  <angle>
                    <activevideoangle>true</activevideoangle>
                    <activeaudioangle>true</activeaudioangle>
                    <clip id="clip-3"/>
                  </angle>
                  <angle>
                    <activevideoangle>false</activevideoangle>
                    <activeaudioangle>false</activeaudioangle>
                    <clip id="clip-4"/>
                  </angle>
                  <angle>
                    <activevideoangle>false</activevideoangle>
                    <activeaudioangle>false</activeaudioangle>
                    <clip id="clip-5"/>
                  </angle>
                  <angle>
                    <activevideoangle>false</activevideoangle>
                    <activeaudioangle>false</activeaudioangle>
                    <clip id="clip-6"/>
                  </angle>
                  <angle>
                    <activevideoangle>false</activevideoangle>
                    <activeaudioangle>false</activeaudioangle>
                    <clip id="clip-7"/>
                  </angle>
                  <angle>
                    <activevideoangle>false</activevideoangle>
                    <activeaudioangle>false</activeaudioangle>
                    <clip id="clip-8"/>
                  </angle>
                  <angle>
                    <activevideoangle>false</activevideoangle>
                    <activeaudioangle>false</activeaudioangle>
                    <clip id="clip-9"/>
                  </angle>
                  <masterclipid>clip-master</masterclipid>
                </multiclip>
              </clipitem>
              <clipitem id="cs-562">
                <duration>158</duration>
                <rate>
                  <ntsc>false</ntsc>
                  <timebase>25</timebase>
                </rate>
                <in>88982</in>
                <out>89139</out>
                <start>88982</start>
                <end>89139</end>
                <file id="src-6"/>
                <sourcetrack>
                  <mediatype>video</mediatype>
                  <trackindex>1</trackindex>
                </sourcetrack>
                <multiclip id="mcs-562">
                  <name>MCS-562</name>
                  <masterclipid>clip-master</masterclipid>
                  <collapsed>false</collapsed>
                  <angle>
                    <activevideoangle>false</activevideoangle>
                    <activeaudioangle>false</activeaudioangle>
                    <clip id="clip-1"/>
                  </angle>
                  <angle>
                    <activevideoangle>false</activevideoangle>
                    <activeaudioangle>false</activeaudioangle>
                    <clip id="clip-2"/>
                  </angle>
                  <angle>
                    <activevideoangle>false</activevideoangle>
                    <activeaudioangle>false</activeaudioangle>
                    <clip id="clip-3"/>
                  </angle>
                  <angle>
                    <activevideoangle>false</activevideoangle>
                    <activeaudioangle>false</activeaudioangle>
                    <clip id="clip-4"/>
                  </angle>
                  <angle>
                    <activevideoangle>false</activevideoangle>
                    <activeaudioangle>false</activeaudioangle>
                    <clip id="clip-5"/>
                  </angle>
                  <angle>
                    <activevideoangle>true</activevideoangle>
                    <activeaudioangle>true</activeaudioangle>
                    <clip id="clip-6"/>
                  </angle>
                  <angle>
                    <activevideoangle>false</activevideoangle>
                    <activeaudioangle>false</activeaudioangle>
                    <clip id="clip-7"/>
                  </angle>
                  <angle>
                    <activevideoangle>false</activevideoangle>
                    <activeaudioangle>false</activeaudioangle>
                    <clip id="clip-8"/>
                  </angle>
                  <angle>
                    <activevideoangle>false</activevideoangle>
                    <activeaudioangle>false</activeaudioangle>
                    <clip id="clip-9"/>
                  </angle>
                  <masterclipid>clip-master</masterclipid>
                </multiclip>
              </clipitem>
              <clipitem id="cs-563">
                <duration>40</duration>
                <rate>
                  <ntsc>false</ntsc>
                  <timebase>25</timebase>
                </rate>
                <in>89139</in>
                <out>89178</out>
                <start>89139</start>
                <end>89178</end>
                <file id="src-4"/>
                <sourcetrack>
                  <mediatype>video</mediatype>
                  <trackindex>1</trackindex>
                </sourcetrack>
                <multiclip id="mcs-563">
                  <name>MCS-563</name>
                  <masterclipid>clip-master</masterclipid>
                  <collapsed>false</collapsed>
                  <angle>
                    <activevideoangle>false</activevideoangle>
                    <activeaudioangle>false</activeaudioangle>
                    <clip id="clip-1"/>
                  </angle>
                  <angle>
                    <activevideoangle>false</activevideoangle>
                    <activeaudioangle>false</activeaudioangle>
                    <clip id="clip-2"/>
                  </angle>
                  <angle>
                    <activevideoangle>false</activevideoangle>
                    <activeaudioangle>false</activeaudioangle>
                    <clip id="clip-3"/>
                  </angle>
                  <angle>
                    <activevideoangle>true</activevideoangle>
                    <activeaudioangle>true</activeaudioangle>
                    <clip id="clip-4"/>
                  </angle>
                  <angle>
                    <activevideoangle>false</activevideoangle>
                    <activeaudioangle>false</activeaudioangle>
                    <clip id="clip-5"/>
                  </angle>
                  <angle>
                    <activevideoangle>false</activevideoangle>
                    <activeaudioangle>false</activeaudioangle>
                    <clip id="clip-6"/>
                  </angle>
                  <angle>
                    <activevideoangle>false</activevideoangle>
                    <activeaudioangle>false</activeaudioangle>
                    <clip id="clip-7"/>
                  </angle>
                  <angle>
                    <activevideoangle>false</activevideoangle>
                    <activeaudioangle>false</activeaudioangle>
                    <clip id="clip-8"/>
                  </angle>
                  <angle>
                    <activevideoangle>false</activevideoangle>
                    <activeaudioangle>false</activeaudioangle>
                    <clip id="clip-9"/>
                  </angle>
                  <masterclipid>clip-master</masterclipid>
                </multiclip>
              </clipitem>
              <clipitem id="cs-564">
                <duration>179</duration>
                <rate>
                  <ntsc>false</ntsc>
                  <timebase>25</timebase>
                </rate>
                <in>89178</in>
                <out>89356</out>
                <start>89178</start>
                <end>89356</end>
                <file id="src-3"/>
                <sourcetrack>
                  <mediatype>video</mediatype>
                  <trackindex>1</trackindex>
                </sourcetrack>
                <multiclip id="mcs-564">
                  <name>MCS-564</name>
                  <masterclipid>clip-master</masterclipid>
                  <collapsed>false</collapsed>
                  <angle>
                    <activevideoangle>false</activevideoangle>
                    <activeaudioangle>false</activeaudioangle>
                    <clip id="clip-1"/>
                  </angle>
                  <angle>
                    <activevideoangle>false</activevideoangle>
                    <activeaudioangle>false</activeaudioangle>
                    <clip id="clip-2"/>
                  </angle>
                  <angle>
                    <activevideoangle>true</activevideoangle>
                    <activeaudioangle>true</activeaudioangle>
                    <clip id="clip-3"/>
                  </angle>
                  <angle>
                    <activevideoangle>false</activevideoangle>
                    <activeaudioangle>false</activeaudioangle>
                    <clip id="clip-4"/>
                  </angle>
                  <angle>
                    <activevideoangle>false</activevideoangle>
                    <activeaudioangle>false</activeaudioangle>
                    <clip id="clip-5"/>
                  </angle>
                  <angle>
                    <activevideoangle>false</activevideoangle>
                    <activeaudioangle>false</activeaudioangle>
                    <clip id="clip-6"/>
                  </angle>
                  <angle>
                    <activevideoangle>false</activevideoangle>
                    <activeaudioangle>false</activeaudioangle>
                    <clip id="clip-7"/>
                  </angle>
                  <angle>
                    <activevideoangle>false</activevideoangle>
                    <activeaudioangle>false</activeaudioangle>
                    <clip id="clip-8"/>
                  </angle>
                  <angle>
                    <activevideoangle>false</activevideoangle>
                    <activeaudioangle>false</activeaudioangle>
                    <clip id="clip-9"/>
                  </angle>
                  <masterclipid>clip-master</masterclipid>
                </multiclip>
              </clipitem>
              <clipitem id="cs-565">
                <duration>95</duration>
                <rate>
                  <ntsc>false</ntsc>
                  <timebase>25</timebase>
                </rate>
                <in>89356</in>
                <out>89450</out>
                <start>89356</start>
                <end>89450</end>
                <file id="src-5"/>
                <sourcetrack>
                  <mediatype>video</mediatype>
                  <trackindex>1</trackindex>
                </sourcetrack>
                <multiclip id="mcs-565">
                  <name>MCS-565</name>
                  <masterclipid>clip-master</masterclipid>
                  <collapsed>false</collapsed>
                  <angle>
                    <activevideoangle>false</activevideoangle>
                    <activeaudioangle>false</activeaudioangle>
                    <clip id="clip-1"/>
                  </angle>
                  <angle>
                    <activevideoangle>false</activevideoangle>
                    <activeaudioangle>false</activeaudioangle>
                    <clip id="clip-2"/>
                  </angle>
                  <angle>
                    <activevideoangle>false</activevideoangle>
                    <activeaudioangle>false</activeaudioangle>
                    <clip id="clip-3"/>
                  </angle>
                  <angle>
                    <activevideoangle>false</activevideoangle>
                    <activeaudioangle>false</activeaudioangle>
                    <clip id="clip-4"/>
                  </angle>
                  <angle>
                    <activevideoangle>true</activevideoangle>
                    <activeaudioangle>true</activeaudioangle>
                    <clip id="clip-5"/>
                  </angle>
                  <angle>
                    <activevideoangle>false</activevideoangle>
                    <activeaudioangle>false</activeaudioangle>
                    <clip id="clip-6"/>
                  </angle>
                  <angle>
                    <activevideoangle>false</activevideoangle>
                    <activeaudioangle>false</activeaudioangle>
                    <clip id="clip-7"/>
                  </angle>
                  <angle>
                    <activevideoangle>false</activevideoangle>
                    <activeaudioangle>false</activeaudioangle>
                    <clip id="clip-8"/>
                  </angle>
                  <angle>
                    <activevideoangle>false</activevideoangle>
                    <activeaudioangle>false</activeaudioangle>
                    <clip id="clip-9"/>
                  </angle>
                  <masterclipid>clip-master</masterclipid>
                </multiclip>
              </clipitem>
              <clipitem id="cs-566">
                <duration>74</duration>
                <rate>
                  <ntsc>false</ntsc>
                  <timebase>25</timebase>
                </rate>
                <in>89450</in>
                <out>89523</out>
                <start>89450</start>
                <end>89523</end>
                <file id="src-3"/>
                <sourcetrack>
                  <mediatype>video</mediatype>
                  <trackindex>1</trackindex>
                </sourcetrack>
                <multiclip id="mcs-566">
                  <name>MCS-566</name>
                  <masterclipid>clip-master</masterclipid>
                  <collapsed>false</collapsed>
                  <angle>
                    <activevideoangle>false</activevideoangle>
                    <activeaudioangle>false</activeaudioangle>
                    <clip id="clip-1"/>
                  </angle>
                  <angle>
                    <activevideoangle>false</activevideoangle>
                    <activeaudioangle>false</activeaudioangle>
                    <clip id="clip-2"/>
                  </angle>
                  <angle>
                    <activevideoangle>true</activevideoangle>
                    <activeaudioangle>true</activeaudioangle>
                    <clip id="clip-3"/>
                  </angle>
                  <angle>
                    <activevideoangle>false</activevideoangle>
                    <activeaudioangle>false</activeaudioangle>
                    <clip id="clip-4"/>
                  </angle>
                  <angle>
                    <activevideoangle>false</activevideoangle>
                    <activeaudioangle>false</activeaudioangle>
                    <clip id="clip-5"/>
                  </angle>
                  <angle>
                    <activevideoangle>false</activevideoangle>
                    <activeaudioangle>false</activeaudioangle>
                    <clip id="clip-6"/>
                  </angle>
                  <angle>
                    <activevideoangle>false</activevideoangle>
                    <activeaudioangle>false</activeaudioangle>
                    <clip id="clip-7"/>
                  </angle>
                  <angle>
                    <activevideoangle>false</activevideoangle>
                    <activeaudioangle>false</activeaudioangle>
                    <clip id="clip-8"/>
                  </angle>
                  <angle>
                    <activevideoangle>false</activevideoangle>
                    <activeaudioangle>false</activeaudioangle>
                    <clip id="clip-9"/>
                  </angle>
                  <masterclipid>clip-master</masterclipid>
                </multiclip>
              </clipitem>
              <clipitem id="cs-567">
                <duration>129</duration>
                <rate>
                  <ntsc>false</ntsc>
                  <timebase>25</timebase>
                </rate>
                <in>89523</in>
                <out>89651</out>
                <start>89523</start>
                <end>89651</end>
                <file id="src-2"/>
                <sourcetrack>
                  <mediatype>video</mediatype>
                  <trackindex>1</trackindex>
                </sourcetrack>
                <multiclip id="mcs-567">
                  <name>MCS-567</name>
                  <masterclipid>clip-master</masterclipid>
                  <collapsed>false</collapsed>
                  <angle>
                    <activevideoangle>false</activevideoangle>
                    <activeaudioangle>false</activeaudioangle>
                    <clip id="clip-1"/>
                  </angle>
                  <angle>
                    <activevideoangle>true</activevideoangle>
                    <activeaudioangle>true</activeaudioangle>
                    <clip id="clip-2"/>
                  </angle>
                  <angle>
                    <activevideoangle>false</activevideoangle>
                    <activeaudioangle>false</activeaudioangle>
                    <clip id="clip-3"/>
                  </angle>
                  <angle>
                    <activevideoangle>false</activevideoangle>
                    <activeaudioangle>false</activeaudioangle>
                    <clip id="clip-4"/>
                  </angle>
                  <angle>
                    <activevideoangle>false</activevideoangle>
                    <activeaudioangle>false</activeaudioangle>
                    <clip id="clip-5"/>
                  </angle>
                  <angle>
                    <activevideoangle>false</activevideoangle>
                    <activeaudioangle>false</activeaudioangle>
                    <clip id="clip-6"/>
                  </angle>
                  <angle>
                    <activevideoangle>false</activevideoangle>
                    <activeaudioangle>false</activeaudioangle>
                    <clip id="clip-7"/>
                  </angle>
                  <angle>
                    <activevideoangle>false</activevideoangle>
                    <activeaudioangle>false</activeaudioangle>
                    <clip id="clip-8"/>
                  </angle>
                  <angle>
                    <activevideoangle>false</activevideoangle>
                    <activeaudioangle>false</activeaudioangle>
                    <clip id="clip-9"/>
                  </angle>
                  <masterclipid>clip-master</masterclipid>
                </multiclip>
              </clipitem>
              <clipitem id="cs-568">
                <duration>85</duration>
                <rate>
                  <ntsc>false</ntsc>
                  <timebase>25</timebase>
                </rate>
                <in>89651</in>
                <out>89735</out>
                <start>89651</start>
                <end>89735</end>
                <file id="src-3"/>
                <sourcetrack>
                  <mediatype>video</mediatype>
                  <trackindex>1</trackindex>
                </sourcetrack>
                <multiclip id="mcs-568">
                  <name>MCS-568</name>
                  <masterclipid>clip-master</masterclipid>
                  <collapsed>false</collapsed>
                  <angle>
                    <activevideoangle>false</activevideoangle>
                    <activeaudioangle>false</activeaudioangle>
                    <clip id="clip-1"/>
                  </angle>
                  <angle>
                    <activevideoangle>false</activevideoangle>
                    <activeaudioangle>false</activeaudioangle>
                    <clip id="clip-2"/>
                  </angle>
                  <angle>
                    <activevideoangle>true</activevideoangle>
                    <activeaudioangle>true</activeaudioangle>
                    <clip id="clip-3"/>
                  </angle>
                  <angle>
                    <activevideoangle>false</activevideoangle>
                    <activeaudioangle>false</activeaudioangle>
                    <clip id="clip-4"/>
                  </angle>
                  <angle>
                    <activevideoangle>false</activevideoangle>
                    <activeaudioangle>false</activeaudioangle>
                    <clip id="clip-5"/>
                  </angle>
                  <angle>
                    <activevideoangle>false</activevideoangle>
                    <activeaudioangle>false</activeaudioangle>
                    <clip id="clip-6"/>
                  </angle>
                  <angle>
                    <activevideoangle>false</activevideoangle>
                    <activeaudioangle>false</activeaudioangle>
                    <clip id="clip-7"/>
                  </angle>
                  <angle>
                    <activevideoangle>false</activevideoangle>
                    <activeaudioangle>false</activeaudioangle>
                    <clip id="clip-8"/>
                  </angle>
                  <angle>
                    <activevideoangle>false</activevideoangle>
                    <activeaudioangle>false</activeaudioangle>
                    <clip id="clip-9"/>
                  </angle>
                  <masterclipid>clip-master</masterclipid>
                </multiclip>
              </clipitem>
              <clipitem id="cs-569">
                <duration>78</duration>
                <rate>
                  <ntsc>false</ntsc>
                  <timebase>25</timebase>
                </rate>
                <in>89735</in>
                <out>89812</out>
                <start>89735</start>
                <end>89812</end>
                <file id="src-6"/>
                <sourcetrack>
                  <mediatype>video</mediatype>
                  <trackindex>1</trackindex>
                </sourcetrack>
                <multiclip id="mcs-569">
                  <name>MCS-569</name>
                  <masterclipid>clip-master</masterclipid>
                  <collapsed>false</collapsed>
                  <angle>
                    <activevideoangle>false</activevideoangle>
                    <activeaudioangle>false</activeaudioangle>
                    <clip id="clip-1"/>
                  </angle>
                  <angle>
                    <activevideoangle>false</activevideoangle>
                    <activeaudioangle>false</activeaudioangle>
                    <clip id="clip-2"/>
                  </angle>
                  <angle>
                    <activevideoangle>false</activevideoangle>
                    <activeaudioangle>false</activeaudioangle>
                    <clip id="clip-3"/>
                  </angle>
                  <angle>
                    <activevideoangle>false</activevideoangle>
                    <activeaudioangle>false</activeaudioangle>
                    <clip id="clip-4"/>
                  </angle>
                  <angle>
                    <activevideoangle>false</activevideoangle>
                    <activeaudioangle>false</activeaudioangle>
                    <clip id="clip-5"/>
                  </angle>
                  <angle>
                    <activevideoangle>true</activevideoangle>
                    <activeaudioangle>true</activeaudioangle>
                    <clip id="clip-6"/>
                  </angle>
                  <angle>
                    <activevideoangle>false</activevideoangle>
                    <activeaudioangle>false</activeaudioangle>
                    <clip id="clip-7"/>
                  </angle>
                  <angle>
                    <activevideoangle>false</activevideoangle>
                    <activeaudioangle>false</activeaudioangle>
                    <clip id="clip-8"/>
                  </angle>
                  <angle>
                    <activevideoangle>false</activevideoangle>
                    <activeaudioangle>false</activeaudioangle>
                    <clip id="clip-9"/>
                  </angle>
                  <masterclipid>clip-master</masterclipid>
                </multiclip>
              </clipitem>
              <clipitem id="cs-570">
                <duration>68</duration>
                <rate>
                  <ntsc>false</ntsc>
                  <timebase>25</timebase>
                </rate>
                <in>89812</in>
                <out>89879</out>
                <start>89812</start>
                <end>89879</end>
                <file id="src-4"/>
                <sourcetrack>
                  <mediatype>video</mediatype>
                  <trackindex>1</trackindex>
                </sourcetrack>
                <multiclip id="mcs-570">
                  <name>MCS-570</name>
                  <masterclipid>clip-master</masterclipid>
                  <collapsed>false</collapsed>
                  <angle>
                    <activevideoangle>false</activevideoangle>
                    <activeaudioangle>false</activeaudioangle>
                    <clip id="clip-1"/>
                  </angle>
                  <angle>
                    <activevideoangle>false</activevideoangle>
                    <activeaudioangle>false</activeaudioangle>
                    <clip id="clip-2"/>
                  </angle>
                  <angle>
                    <activevideoangle>false</activevideoangle>
                    <activeaudioangle>false</activeaudioangle>
                    <clip id="clip-3"/>
                  </angle>
                  <angle>
                    <activevideoangle>true</activevideoangle>
                    <activeaudioangle>true</activeaudioangle>
                    <clip id="clip-4"/>
                  </angle>
                  <angle>
                    <activevideoangle>false</activevideoangle>
                    <activeaudioangle>false</activeaudioangle>
                    <clip id="clip-5"/>
                  </angle>
                  <angle>
                    <activevideoangle>false</activevideoangle>
                    <activeaudioangle>false</activeaudioangle>
                    <clip id="clip-6"/>
                  </angle>
                  <angle>
                    <activevideoangle>false</activevideoangle>
                    <activeaudioangle>false</activeaudioangle>
                    <clip id="clip-7"/>
                  </angle>
                  <angle>
                    <activevideoangle>false</activevideoangle>
                    <activeaudioangle>false</activeaudioangle>
                    <clip id="clip-8"/>
                  </angle>
                  <angle>
                    <activevideoangle>false</activevideoangle>
                    <activeaudioangle>false</activeaudioangle>
                    <clip id="clip-9"/>
                  </angle>
                  <masterclipid>clip-master</masterclipid>
                </multiclip>
              </clipitem>
              <clipitem id="cs-571">
                <duration>127</duration>
                <rate>
                  <ntsc>false</ntsc>
                  <timebase>25</timebase>
                </rate>
                <in>89879</in>
                <out>90005</out>
                <start>89879</start>
                <end>90005</end>
                <file id="src-2"/>
                <sourcetrack>
                  <mediatype>video</mediatype>
                  <trackindex>1</trackindex>
                </sourcetrack>
                <multiclip id="mcs-571">
                  <name>MCS-571</name>
                  <masterclipid>clip-master</masterclipid>
                  <collapsed>false</collapsed>
                  <angle>
                    <activevideoangle>false</activevideoangle>
                    <activeaudioangle>false</activeaudioangle>
                    <clip id="clip-1"/>
                  </angle>
                  <angle>
                    <activevideoangle>true</activevideoangle>
                    <activeaudioangle>true</activeaudioangle>
                    <clip id="clip-2"/>
                  </angle>
                  <angle>
                    <activevideoangle>false</activevideoangle>
                    <activeaudioangle>false</activeaudioangle>
                    <clip id="clip-3"/>
                  </angle>
                  <angle>
                    <activevideoangle>false</activevideoangle>
                    <activeaudioangle>false</activeaudioangle>
                    <clip id="clip-4"/>
                  </angle>
                  <angle>
                    <activevideoangle>false</activevideoangle>
                    <activeaudioangle>false</activeaudioangle>
                    <clip id="clip-5"/>
                  </angle>
                  <angle>
                    <activevideoangle>false</activevideoangle>
                    <activeaudioangle>false</activeaudioangle>
                    <clip id="clip-6"/>
                  </angle>
                  <angle>
                    <activevideoangle>false</activevideoangle>
                    <activeaudioangle>false</activeaudioangle>
                    <clip id="clip-7"/>
                  </angle>
                  <angle>
                    <activevideoangle>false</activevideoangle>
                    <activeaudioangle>false</activeaudioangle>
                    <clip id="clip-8"/>
                  </angle>
                  <angle>
                    <activevideoangle>false</activevideoangle>
                    <activeaudioangle>false</activeaudioangle>
                    <clip id="clip-9"/>
                  </angle>
                  <masterclipid>clip-master</masterclipid>
                </multiclip>
              </clipitem>
              <clipitem id="cs-572">
                <duration>113</duration>
                <rate>
                  <ntsc>false</ntsc>
                  <timebase>25</timebase>
                </rate>
                <in>90005</in>
                <out>90117</out>
                <start>90005</start>
                <end>90117</end>
                <file id="src-4"/>
                <sourcetrack>
                  <mediatype>video</mediatype>
                  <trackindex>1</trackindex>
                </sourcetrack>
                <multiclip id="mcs-572">
                  <name>MCS-572</name>
                  <masterclipid>clip-master</masterclipid>
                  <collapsed>false</collapsed>
                  <angle>
                    <activevideoangle>false</activevideoangle>
                    <activeaudioangle>false</activeaudioangle>
                    <clip id="clip-1"/>
                  </angle>
                  <angle>
                    <activevideoangle>false</activevideoangle>
                    <activeaudioangle>false</activeaudioangle>
                    <clip id="clip-2"/>
                  </angle>
                  <angle>
                    <activevideoangle>false</activevideoangle>
                    <activeaudioangle>false</activeaudioangle>
                    <clip id="clip-3"/>
                  </angle>
                  <angle>
                    <activevideoangle>true</activevideoangle>
                    <activeaudioangle>true</activeaudioangle>
                    <clip id="clip-4"/>
                  </angle>
                  <angle>
                    <activevideoangle>false</activevideoangle>
                    <activeaudioangle>false</activeaudioangle>
                    <clip id="clip-5"/>
                  </angle>
                  <angle>
                    <activevideoangle>false</activevideoangle>
                    <activeaudioangle>false</activeaudioangle>
                    <clip id="clip-6"/>
                  </angle>
                  <angle>
                    <activevideoangle>false</activevideoangle>
                    <activeaudioangle>false</activeaudioangle>
                    <clip id="clip-7"/>
                  </angle>
                  <angle>
                    <activevideoangle>false</activevideoangle>
                    <activeaudioangle>false</activeaudioangle>
                    <clip id="clip-8"/>
                  </angle>
                  <angle>
                    <activevideoangle>false</activevideoangle>
                    <activeaudioangle>false</activeaudioangle>
                    <clip id="clip-9"/>
                  </angle>
                  <masterclipid>clip-master</masterclipid>
                </multiclip>
              </clipitem>
              <clipitem id="cs-573">
                <duration>101</duration>
                <rate>
                  <ntsc>false</ntsc>
                  <timebase>25</timebase>
                </rate>
                <in>90117</in>
                <out>90217</out>
                <start>90117</start>
                <end>90217</end>
                <file id="src-6"/>
                <sourcetrack>
                  <mediatype>video</mediatype>
                  <trackindex>1</trackindex>
                </sourcetrack>
                <multiclip id="mcs-573">
                  <name>MCS-573</name>
                  <masterclipid>clip-master</masterclipid>
                  <collapsed>false</collapsed>
                  <angle>
                    <activevideoangle>false</activevideoangle>
                    <activeaudioangle>false</activeaudioangle>
                    <clip id="clip-1"/>
                  </angle>
                  <angle>
                    <activevideoangle>false</activevideoangle>
                    <activeaudioangle>false</activeaudioangle>
                    <clip id="clip-2"/>
                  </angle>
                  <angle>
                    <activevideoangle>false</activevideoangle>
                    <activeaudioangle>false</activeaudioangle>
                    <clip id="clip-3"/>
                  </angle>
                  <angle>
                    <activevideoangle>false</activevideoangle>
                    <activeaudioangle>false</activeaudioangle>
                    <clip id="clip-4"/>
                  </angle>
                  <angle>
                    <activevideoangle>false</activevideoangle>
                    <activeaudioangle>false</activeaudioangle>
                    <clip id="clip-5"/>
                  </angle>
                  <angle>
                    <activevideoangle>true</activevideoangle>
                    <activeaudioangle>true</activeaudioangle>
                    <clip id="clip-6"/>
                  </angle>
                  <angle>
                    <activevideoangle>false</activevideoangle>
                    <activeaudioangle>false</activeaudioangle>
                    <clip id="clip-7"/>
                  </angle>
                  <angle>
                    <activevideoangle>false</activevideoangle>
                    <activeaudioangle>false</activeaudioangle>
                    <clip id="clip-8"/>
                  </angle>
                  <angle>
                    <activevideoangle>false</activevideoangle>
                    <activeaudioangle>false</activeaudioangle>
                    <clip id="clip-9"/>
                  </angle>
                  <masterclipid>clip-master</masterclipid>
                </multiclip>
              </clipitem>
              <clipitem id="cs-574">
                <duration>81</duration>
                <rate>
                  <ntsc>false</ntsc>
                  <timebase>25</timebase>
                </rate>
                <in>90217</in>
                <out>90297</out>
                <start>90217</start>
                <end>90297</end>
                <file id="src-3"/>
                <sourcetrack>
                  <mediatype>video</mediatype>
                  <trackindex>1</trackindex>
                </sourcetrack>
                <multiclip id="mcs-574">
                  <name>MCS-574</name>
                  <masterclipid>clip-master</masterclipid>
                  <collapsed>false</collapsed>
                  <angle>
                    <activevideoangle>false</activevideoangle>
                    <activeaudioangle>false</activeaudioangle>
                    <clip id="clip-1"/>
                  </angle>
                  <angle>
                    <activevideoangle>false</activevideoangle>
                    <activeaudioangle>false</activeaudioangle>
                    <clip id="clip-2"/>
                  </angle>
                  <angle>
                    <activevideoangle>true</activevideoangle>
                    <activeaudioangle>true</activeaudioangle>
                    <clip id="clip-3"/>
                  </angle>
                  <angle>
                    <activevideoangle>false</activevideoangle>
                    <activeaudioangle>false</activeaudioangle>
                    <clip id="clip-4"/>
                  </angle>
                  <angle>
                    <activevideoangle>false</activevideoangle>
                    <activeaudioangle>false</activeaudioangle>
                    <clip id="clip-5"/>
                  </angle>
                  <angle>
                    <activevideoangle>false</activevideoangle>
                    <activeaudioangle>false</activeaudioangle>
                    <clip id="clip-6"/>
                  </angle>
                  <angle>
                    <activevideoangle>false</activevideoangle>
                    <activeaudioangle>false</activeaudioangle>
                    <clip id="clip-7"/>
                  </angle>
                  <angle>
                    <activevideoangle>false</activevideoangle>
                    <activeaudioangle>false</activeaudioangle>
                    <clip id="clip-8"/>
                  </angle>
                  <angle>
                    <activevideoangle>false</activevideoangle>
                    <activeaudioangle>false</activeaudioangle>
                    <clip id="clip-9"/>
                  </angle>
                  <masterclipid>clip-master</masterclipid>
                </multiclip>
              </clipitem>
              <clipitem id="cs-575">
                <duration>77</duration>
                <rate>
                  <ntsc>false</ntsc>
                  <timebase>25</timebase>
                </rate>
                <in>90297</in>
                <out>90373</out>
                <start>90297</start>
                <end>90373</end>
                <file id="src-2"/>
                <sourcetrack>
                  <mediatype>video</mediatype>
                  <trackindex>1</trackindex>
                </sourcetrack>
                <multiclip id="mcs-575">
                  <name>MCS-575</name>
                  <masterclipid>clip-master</masterclipid>
                  <collapsed>false</collapsed>
                  <angle>
                    <activevideoangle>false</activevideoangle>
                    <activeaudioangle>false</activeaudioangle>
                    <clip id="clip-1"/>
                  </angle>
                  <angle>
                    <activevideoangle>true</activevideoangle>
                    <activeaudioangle>true</activeaudioangle>
                    <clip id="clip-2"/>
                  </angle>
                  <angle>
                    <activevideoangle>false</activevideoangle>
                    <activeaudioangle>false</activeaudioangle>
                    <clip id="clip-3"/>
                  </angle>
                  <angle>
                    <activevideoangle>false</activevideoangle>
                    <activeaudioangle>false</activeaudioangle>
                    <clip id="clip-4"/>
                  </angle>
                  <angle>
                    <activevideoangle>false</activevideoangle>
                    <activeaudioangle>false</activeaudioangle>
                    <clip id="clip-5"/>
                  </angle>
                  <angle>
                    <activevideoangle>false</activevideoangle>
                    <activeaudioangle>false</activeaudioangle>
                    <clip id="clip-6"/>
                  </angle>
                  <angle>
                    <activevideoangle>false</activevideoangle>
                    <activeaudioangle>false</activeaudioangle>
                    <clip id="clip-7"/>
                  </angle>
                  <angle>
                    <activevideoangle>false</activevideoangle>
                    <activeaudioangle>false</activeaudioangle>
                    <clip id="clip-8"/>
                  </angle>
                  <angle>
                    <activevideoangle>false</activevideoangle>
                    <activeaudioangle>false</activeaudioangle>
                    <clip id="clip-9"/>
                  </angle>
                  <masterclipid>clip-master</masterclipid>
                </multiclip>
              </clipitem>
              <clipitem id="cs-576">
                <duration>120</duration>
                <rate>
                  <ntsc>false</ntsc>
                  <timebase>25</timebase>
                </rate>
                <in>90373</in>
                <out>90492</out>
                <start>90373</start>
                <end>90492</end>
                <file id="src-5"/>
                <sourcetrack>
                  <mediatype>video</mediatype>
                  <trackindex>1</trackindex>
                </sourcetrack>
                <multiclip id="mcs-576">
                  <name>MCS-576</name>
                  <masterclipid>clip-master</masterclipid>
                  <collapsed>false</collapsed>
                  <angle>
                    <activevideoangle>false</activevideoangle>
                    <activeaudioangle>false</activeaudioangle>
                    <clip id="clip-1"/>
                  </angle>
                  <angle>
                    <activevideoangle>false</activevideoangle>
                    <activeaudioangle>false</activeaudioangle>
                    <clip id="clip-2"/>
                  </angle>
                  <angle>
                    <activevideoangle>false</activevideoangle>
                    <activeaudioangle>false</activeaudioangle>
                    <clip id="clip-3"/>
                  </angle>
                  <angle>
                    <activevideoangle>false</activevideoangle>
                    <activeaudioangle>false</activeaudioangle>
                    <clip id="clip-4"/>
                  </angle>
                  <angle>
                    <activevideoangle>true</activevideoangle>
                    <activeaudioangle>true</activeaudioangle>
                    <clip id="clip-5"/>
                  </angle>
                  <angle>
                    <activevideoangle>false</activevideoangle>
                    <activeaudioangle>false</activeaudioangle>
                    <clip id="clip-6"/>
                  </angle>
                  <angle>
                    <activevideoangle>false</activevideoangle>
                    <activeaudioangle>false</activeaudioangle>
                    <clip id="clip-7"/>
                  </angle>
                  <angle>
                    <activevideoangle>false</activevideoangle>
                    <activeaudioangle>false</activeaudioangle>
                    <clip id="clip-8"/>
                  </angle>
                  <angle>
                    <activevideoangle>false</activevideoangle>
                    <activeaudioangle>false</activeaudioangle>
                    <clip id="clip-9"/>
                  </angle>
                  <masterclipid>clip-master</masterclipid>
                </multiclip>
              </clipitem>
              <clipitem id="cs-577">
                <duration>110</duration>
                <rate>
                  <ntsc>false</ntsc>
                  <timebase>25</timebase>
                </rate>
                <in>90492</in>
                <out>90601</out>
                <start>90492</start>
                <end>90601</end>
                <file id="src-2"/>
                <sourcetrack>
                  <mediatype>video</mediatype>
                  <trackindex>1</trackindex>
                </sourcetrack>
                <multiclip id="mcs-577">
                  <name>MCS-577</name>
                  <masterclipid>clip-master</masterclipid>
                  <collapsed>false</collapsed>
                  <angle>
                    <activevideoangle>false</activevideoangle>
                    <activeaudioangle>false</activeaudioangle>
                    <clip id="clip-1"/>
                  </angle>
                  <angle>
                    <activevideoangle>true</activevideoangle>
                    <activeaudioangle>true</activeaudioangle>
                    <clip id="clip-2"/>
                  </angle>
                  <angle>
                    <activevideoangle>false</activevideoangle>
                    <activeaudioangle>false</activeaudioangle>
                    <clip id="clip-3"/>
                  </angle>
                  <angle>
                    <activevideoangle>false</activevideoangle>
                    <activeaudioangle>false</activeaudioangle>
                    <clip id="clip-4"/>
                  </angle>
                  <angle>
                    <activevideoangle>false</activevideoangle>
                    <activeaudioangle>false</activeaudioangle>
                    <clip id="clip-5"/>
                  </angle>
                  <angle>
                    <activevideoangle>false</activevideoangle>
                    <activeaudioangle>false</activeaudioangle>
                    <clip id="clip-6"/>
                  </angle>
                  <angle>
                    <activevideoangle>false</activevideoangle>
                    <activeaudioangle>false</activeaudioangle>
                    <clip id="clip-7"/>
                  </angle>
                  <angle>
                    <activevideoangle>false</activevideoangle>
                    <activeaudioangle>false</activeaudioangle>
                    <clip id="clip-8"/>
                  </angle>
                  <angle>
                    <activevideoangle>false</activevideoangle>
                    <activeaudioangle>false</activeaudioangle>
                    <clip id="clip-9"/>
                  </angle>
                  <masterclipid>clip-master</masterclipid>
                </multiclip>
              </clipitem>
              <clipitem id="cs-578">
                <duration>63</duration>
                <rate>
                  <ntsc>false</ntsc>
                  <timebase>25</timebase>
                </rate>
                <in>90601</in>
                <out>90663</out>
                <start>90601</start>
                <end>90663</end>
                <file id="src-6"/>
                <sourcetrack>
                  <mediatype>video</mediatype>
                  <trackindex>1</trackindex>
                </sourcetrack>
                <multiclip id="mcs-578">
                  <name>MCS-578</name>
                  <masterclipid>clip-master</masterclipid>
                  <collapsed>false</collapsed>
                  <angle>
                    <activevideoangle>false</activevideoangle>
                    <activeaudioangle>false</activeaudioangle>
                    <clip id="clip-1"/>
                  </angle>
                  <angle>
                    <activevideoangle>false</activevideoangle>
                    <activeaudioangle>false</activeaudioangle>
                    <clip id="clip-2"/>
                  </angle>
                  <angle>
                    <activevideoangle>false</activevideoangle>
                    <activeaudioangle>false</activeaudioangle>
                    <clip id="clip-3"/>
                  </angle>
                  <angle>
                    <activevideoangle>false</activevideoangle>
                    <activeaudioangle>false</activeaudioangle>
                    <clip id="clip-4"/>
                  </angle>
                  <angle>
                    <activevideoangle>false</activevideoangle>
                    <activeaudioangle>false</activeaudioangle>
                    <clip id="clip-5"/>
                  </angle>
                  <angle>
                    <activevideoangle>true</activevideoangle>
                    <activeaudioangle>true</activeaudioangle>
                    <clip id="clip-6"/>
                  </angle>
                  <angle>
                    <activevideoangle>false</activevideoangle>
                    <activeaudioangle>false</activeaudioangle>
                    <clip id="clip-7"/>
                  </angle>
                  <angle>
                    <activevideoangle>false</activevideoangle>
                    <activeaudioangle>false</activeaudioangle>
                    <clip id="clip-8"/>
                  </angle>
                  <angle>
                    <activevideoangle>false</activevideoangle>
                    <activeaudioangle>false</activeaudioangle>
                    <clip id="clip-9"/>
                  </angle>
                  <masterclipid>clip-master</masterclipid>
                </multiclip>
              </clipitem>
              <clipitem id="cs-579">
                <duration>64</duration>
                <rate>
                  <ntsc>false</ntsc>
                  <timebase>25</timebase>
                </rate>
                <in>90663</in>
                <out>90726</out>
                <start>90663</start>
                <end>90726</end>
                <file id="src-4"/>
                <sourcetrack>
                  <mediatype>video</mediatype>
                  <trackindex>1</trackindex>
                </sourcetrack>
                <multiclip id="mcs-579">
                  <name>MCS-579</name>
                  <masterclipid>clip-master</masterclipid>
                  <collapsed>false</collapsed>
                  <angle>
                    <activevideoangle>false</activevideoangle>
                    <activeaudioangle>false</activeaudioangle>
                    <clip id="clip-1"/>
                  </angle>
                  <angle>
                    <activevideoangle>false</activevideoangle>
                    <activeaudioangle>false</activeaudioangle>
                    <clip id="clip-2"/>
                  </angle>
                  <angle>
                    <activevideoangle>false</activevideoangle>
                    <activeaudioangle>false</activeaudioangle>
                    <clip id="clip-3"/>
                  </angle>
                  <angle>
                    <activevideoangle>true</activevideoangle>
                    <activeaudioangle>true</activeaudioangle>
                    <clip id="clip-4"/>
                  </angle>
                  <angle>
                    <activevideoangle>false</activevideoangle>
                    <activeaudioangle>false</activeaudioangle>
                    <clip id="clip-5"/>
                  </angle>
                  <angle>
                    <activevideoangle>false</activevideoangle>
                    <activeaudioangle>false</activeaudioangle>
                    <clip id="clip-6"/>
                  </angle>
                  <angle>
                    <activevideoangle>false</activevideoangle>
                    <activeaudioangle>false</activeaudioangle>
                    <clip id="clip-7"/>
                  </angle>
                  <angle>
                    <activevideoangle>false</activevideoangle>
                    <activeaudioangle>false</activeaudioangle>
                    <clip id="clip-8"/>
                  </angle>
                  <angle>
                    <activevideoangle>false</activevideoangle>
                    <activeaudioangle>false</activeaudioangle>
                    <clip id="clip-9"/>
                  </angle>
                  <masterclipid>clip-master</masterclipid>
                </multiclip>
              </clipitem>
              <clipitem id="cs-580">
                <duration>131</duration>
                <rate>
                  <ntsc>false</ntsc>
                  <timebase>25</timebase>
                </rate>
                <in>90726</in>
                <out>90856</out>
                <start>90726</start>
                <end>90856</end>
                <file id="src-3"/>
                <sourcetrack>
                  <mediatype>video</mediatype>
                  <trackindex>1</trackindex>
                </sourcetrack>
                <multiclip id="mcs-580">
                  <name>MCS-580</name>
                  <masterclipid>clip-master</masterclipid>
                  <collapsed>false</collapsed>
                  <angle>
                    <activevideoangle>false</activevideoangle>
                    <activeaudioangle>false</activeaudioangle>
                    <clip id="clip-1"/>
                  </angle>
                  <angle>
                    <activevideoangle>false</activevideoangle>
                    <activeaudioangle>false</activeaudioangle>
                    <clip id="clip-2"/>
                  </angle>
                  <angle>
                    <activevideoangle>true</activevideoangle>
                    <activeaudioangle>true</activeaudioangle>
                    <clip id="clip-3"/>
                  </angle>
                  <angle>
                    <activevideoangle>false</activevideoangle>
                    <activeaudioangle>false</activeaudioangle>
                    <clip id="clip-4"/>
                  </angle>
                  <angle>
                    <activevideoangle>false</activevideoangle>
                    <activeaudioangle>false</activeaudioangle>
                    <clip id="clip-5"/>
                  </angle>
                  <angle>
                    <activevideoangle>false</activevideoangle>
                    <activeaudioangle>false</activeaudioangle>
                    <clip id="clip-6"/>
                  </angle>
                  <angle>
                    <activevideoangle>false</activevideoangle>
                    <activeaudioangle>false</activeaudioangle>
                    <clip id="clip-7"/>
                  </angle>
                  <angle>
                    <activevideoangle>false</activevideoangle>
                    <activeaudioangle>false</activeaudioangle>
                    <clip id="clip-8"/>
                  </angle>
                  <angle>
                    <activevideoangle>false</activevideoangle>
                    <activeaudioangle>false</activeaudioangle>
                    <clip id="clip-9"/>
                  </angle>
                  <masterclipid>clip-master</masterclipid>
                </multiclip>
              </clipitem>
              <clipitem id="cs-581">
                <duration>91</duration>
                <rate>
                  <ntsc>false</ntsc>
                  <timebase>25</timebase>
                </rate>
                <in>90856</in>
                <out>90946</out>
                <start>90856</start>
                <end>90946</end>
                <file id="src-2"/>
                <sourcetrack>
                  <mediatype>video</mediatype>
                  <trackindex>1</trackindex>
                </sourcetrack>
                <multiclip id="mcs-581">
                  <name>MCS-581</name>
                  <masterclipid>clip-master</masterclipid>
                  <collapsed>false</collapsed>
                  <angle>
                    <activevideoangle>false</activevideoangle>
                    <activeaudioangle>false</activeaudioangle>
                    <clip id="clip-1"/>
                  </angle>
                  <angle>
                    <activevideoangle>true</activevideoangle>
                    <activeaudioangle>true</activeaudioangle>
                    <clip id="clip-2"/>
                  </angle>
                  <angle>
                    <activevideoangle>false</activevideoangle>
                    <activeaudioangle>false</activeaudioangle>
                    <clip id="clip-3"/>
                  </angle>
                  <angle>
                    <activevideoangle>false</activevideoangle>
                    <activeaudioangle>false</activeaudioangle>
                    <clip id="clip-4"/>
                  </angle>
                  <angle>
                    <activevideoangle>false</activevideoangle>
                    <activeaudioangle>false</activeaudioangle>
                    <clip id="clip-5"/>
                  </angle>
                  <angle>
                    <activevideoangle>false</activevideoangle>
                    <activeaudioangle>false</activeaudioangle>
                    <clip id="clip-6"/>
                  </angle>
                  <angle>
                    <activevideoangle>false</activevideoangle>
                    <activeaudioangle>false</activeaudioangle>
                    <clip id="clip-7"/>
                  </angle>
                  <angle>
                    <activevideoangle>false</activevideoangle>
                    <activeaudioangle>false</activeaudioangle>
                    <clip id="clip-8"/>
                  </angle>
                  <angle>
                    <activevideoangle>false</activevideoangle>
                    <activeaudioangle>false</activeaudioangle>
                    <clip id="clip-9"/>
                  </angle>
                  <masterclipid>clip-master</masterclipid>
                </multiclip>
              </clipitem>
              <clipitem id="cs-582">
                <duration>52</duration>
                <rate>
                  <ntsc>false</ntsc>
                  <timebase>25</timebase>
                </rate>
                <in>90946</in>
                <out>90997</out>
                <start>90946</start>
                <end>90997</end>
                <file id="src-4"/>
                <sourcetrack>
                  <mediatype>video</mediatype>
                  <trackindex>1</trackindex>
                </sourcetrack>
                <multiclip id="mcs-582">
                  <name>MCS-582</name>
                  <masterclipid>clip-master</masterclipid>
                  <collapsed>false</collapsed>
                  <angle>
                    <activevideoangle>false</activevideoangle>
                    <activeaudioangle>false</activeaudioangle>
                    <clip id="clip-1"/>
                  </angle>
                  <angle>
                    <activevideoangle>false</activevideoangle>
                    <activeaudioangle>false</activeaudioangle>
                    <clip id="clip-2"/>
                  </angle>
                  <angle>
                    <activevideoangle>false</activevideoangle>
                    <activeaudioangle>false</activeaudioangle>
                    <clip id="clip-3"/>
                  </angle>
                  <angle>
                    <activevideoangle>true</activevideoangle>
                    <activeaudioangle>true</activeaudioangle>
                    <clip id="clip-4"/>
                  </angle>
                  <angle>
                    <activevideoangle>false</activevideoangle>
                    <activeaudioangle>false</activeaudioangle>
                    <clip id="clip-5"/>
                  </angle>
                  <angle>
                    <activevideoangle>false</activevideoangle>
                    <activeaudioangle>false</activeaudioangle>
                    <clip id="clip-6"/>
                  </angle>
                  <angle>
                    <activevideoangle>false</activevideoangle>
                    <activeaudioangle>false</activeaudioangle>
                    <clip id="clip-7"/>
                  </angle>
                  <angle>
                    <activevideoangle>false</activevideoangle>
                    <activeaudioangle>false</activeaudioangle>
                    <clip id="clip-8"/>
                  </angle>
                  <angle>
                    <activevideoangle>false</activevideoangle>
                    <activeaudioangle>false</activeaudioangle>
                    <clip id="clip-9"/>
                  </angle>
                  <masterclipid>clip-master</masterclipid>
                </multiclip>
              </clipitem>
              <clipitem id="cs-583">
                <duration>80</duration>
                <rate>
                  <ntsc>false</ntsc>
                  <timebase>25</timebase>
                </rate>
                <in>90997</in>
                <out>91076</out>
                <start>90997</start>
                <end>91076</end>
                <file id="src-3"/>
                <sourcetrack>
                  <mediatype>video</mediatype>
                  <trackindex>1</trackindex>
                </sourcetrack>
                <multiclip id="mcs-583">
                  <name>MCS-583</name>
                  <masterclipid>clip-master</masterclipid>
                  <collapsed>false</collapsed>
                  <angle>
                    <activevideoangle>false</activevideoangle>
                    <activeaudioangle>false</activeaudioangle>
                    <clip id="clip-1"/>
                  </angle>
                  <angle>
                    <activevideoangle>false</activevideoangle>
                    <activeaudioangle>false</activeaudioangle>
                    <clip id="clip-2"/>
                  </angle>
                  <angle>
                    <activevideoangle>true</activevideoangle>
                    <activeaudioangle>true</activeaudioangle>
                    <clip id="clip-3"/>
                  </angle>
                  <angle>
                    <activevideoangle>false</activevideoangle>
                    <activeaudioangle>false</activeaudioangle>
                    <clip id="clip-4"/>
                  </angle>
                  <angle>
                    <activevideoangle>false</activevideoangle>
                    <activeaudioangle>false</activeaudioangle>
                    <clip id="clip-5"/>
                  </angle>
                  <angle>
                    <activevideoangle>false</activevideoangle>
                    <activeaudioangle>false</activeaudioangle>
                    <clip id="clip-6"/>
                  </angle>
                  <angle>
                    <activevideoangle>false</activevideoangle>
                    <activeaudioangle>false</activeaudioangle>
                    <clip id="clip-7"/>
                  </angle>
                  <angle>
                    <activevideoangle>false</activevideoangle>
                    <activeaudioangle>false</activeaudioangle>
                    <clip id="clip-8"/>
                  </angle>
                  <angle>
                    <activevideoangle>false</activevideoangle>
                    <activeaudioangle>false</activeaudioangle>
                    <clip id="clip-9"/>
                  </angle>
                  <masterclipid>clip-master</masterclipid>
                </multiclip>
              </clipitem>
              <clipitem id="cs-584">
                <duration>110</duration>
                <rate>
                  <ntsc>false</ntsc>
                  <timebase>25</timebase>
                </rate>
                <in>91076</in>
                <out>91185</out>
                <start>91076</start>
                <end>91185</end>
                <file id="src-2"/>
                <sourcetrack>
                  <mediatype>video</mediatype>
                  <trackindex>1</trackindex>
                </sourcetrack>
                <multiclip id="mcs-584">
                  <name>MCS-584</name>
                  <masterclipid>clip-master</masterclipid>
                  <collapsed>false</collapsed>
                  <angle>
                    <activevideoangle>false</activevideoangle>
                    <activeaudioangle>false</activeaudioangle>
                    <clip id="clip-1"/>
                  </angle>
                  <angle>
                    <activevideoangle>true</activevideoangle>
                    <activeaudioangle>true</activeaudioangle>
                    <clip id="clip-2"/>
                  </angle>
                  <angle>
                    <activevideoangle>false</activevideoangle>
                    <activeaudioangle>false</activeaudioangle>
                    <clip id="clip-3"/>
                  </angle>
                  <angle>
                    <activevideoangle>false</activevideoangle>
                    <activeaudioangle>false</activeaudioangle>
                    <clip id="clip-4"/>
                  </angle>
                  <angle>
                    <activevideoangle>false</activevideoangle>
                    <activeaudioangle>false</activeaudioangle>
                    <clip id="clip-5"/>
                  </angle>
                  <angle>
                    <activevideoangle>false</activevideoangle>
                    <activeaudioangle>false</activeaudioangle>
                    <clip id="clip-6"/>
                  </angle>
                  <angle>
                    <activevideoangle>false</activevideoangle>
                    <activeaudioangle>false</activeaudioangle>
                    <clip id="clip-7"/>
                  </angle>
                  <angle>
                    <activevideoangle>false</activevideoangle>
                    <activeaudioangle>false</activeaudioangle>
                    <clip id="clip-8"/>
                  </angle>
                  <angle>
                    <activevideoangle>false</activevideoangle>
                    <activeaudioangle>false</activeaudioangle>
                    <clip id="clip-9"/>
                  </angle>
                  <masterclipid>clip-master</masterclipid>
                </multiclip>
              </clipitem>
              <clipitem id="cs-585">
                <duration>45</duration>
                <rate>
                  <ntsc>false</ntsc>
                  <timebase>25</timebase>
                </rate>
                <in>91185</in>
                <out>91229</out>
                <start>91185</start>
                <end>91229</end>
                <file id="src-6"/>
                <sourcetrack>
                  <mediatype>video</mediatype>
                  <trackindex>1</trackindex>
                </sourcetrack>
                <multiclip id="mcs-585">
                  <name>MCS-585</name>
                  <masterclipid>clip-master</masterclipid>
                  <collapsed>false</collapsed>
                  <angle>
                    <activevideoangle>false</activevideoangle>
                    <activeaudioangle>false</activeaudioangle>
                    <clip id="clip-1"/>
                  </angle>
                  <angle>
                    <activevideoangle>false</activevideoangle>
                    <activeaudioangle>false</activeaudioangle>
                    <clip id="clip-2"/>
                  </angle>
                  <angle>
                    <activevideoangle>false</activevideoangle>
                    <activeaudioangle>false</activeaudioangle>
                    <clip id="clip-3"/>
                  </angle>
                  <angle>
                    <activevideoangle>false</activevideoangle>
                    <activeaudioangle>false</activeaudioangle>
                    <clip id="clip-4"/>
                  </angle>
                  <angle>
                    <activevideoangle>false</activevideoangle>
                    <activeaudioangle>false</activeaudioangle>
                    <clip id="clip-5"/>
                  </angle>
                  <angle>
                    <activevideoangle>true</activevideoangle>
                    <activeaudioangle>true</activeaudioangle>
                    <clip id="clip-6"/>
                  </angle>
                  <angle>
                    <activevideoangle>false</activevideoangle>
                    <activeaudioangle>false</activeaudioangle>
                    <clip id="clip-7"/>
                  </angle>
                  <angle>
                    <activevideoangle>false</activevideoangle>
                    <activeaudioangle>false</activeaudioangle>
                    <clip id="clip-8"/>
                  </angle>
                  <angle>
                    <activevideoangle>false</activevideoangle>
                    <activeaudioangle>false</activeaudioangle>
                    <clip id="clip-9"/>
                  </angle>
                  <masterclipid>clip-master</masterclipid>
                </multiclip>
              </clipitem>
              <clipitem id="cs-586">
                <duration>66</duration>
                <rate>
                  <ntsc>false</ntsc>
                  <timebase>25</timebase>
                </rate>
                <in>91229</in>
                <out>91294</out>
                <start>91229</start>
                <end>91294</end>
                <file id="src-4"/>
                <sourcetrack>
                  <mediatype>video</mediatype>
                  <trackindex>1</trackindex>
                </sourcetrack>
                <multiclip id="mcs-586">
                  <name>MCS-586</name>
                  <masterclipid>clip-master</masterclipid>
                  <collapsed>false</collapsed>
                  <angle>
                    <activevideoangle>false</activevideoangle>
                    <activeaudioangle>false</activeaudioangle>
                    <clip id="clip-1"/>
                  </angle>
                  <angle>
                    <activevideoangle>false</activevideoangle>
                    <activeaudioangle>false</activeaudioangle>
                    <clip id="clip-2"/>
                  </angle>
                  <angle>
                    <activevideoangle>false</activevideoangle>
                    <activeaudioangle>false</activeaudioangle>
                    <clip id="clip-3"/>
                  </angle>
                  <angle>
                    <activevideoangle>true</activevideoangle>
                    <activeaudioangle>true</activeaudioangle>
                    <clip id="clip-4"/>
                  </angle>
                  <angle>
                    <activevideoangle>false</activevideoangle>
                    <activeaudioangle>false</activeaudioangle>
                    <clip id="clip-5"/>
                  </angle>
                  <angle>
                    <activevideoangle>false</activevideoangle>
                    <activeaudioangle>false</activeaudioangle>
                    <clip id="clip-6"/>
                  </angle>
                  <angle>
                    <activevideoangle>false</activevideoangle>
                    <activeaudioangle>false</activeaudioangle>
                    <clip id="clip-7"/>
                  </angle>
                  <angle>
                    <activevideoangle>false</activevideoangle>
                    <activeaudioangle>false</activeaudioangle>
                    <clip id="clip-8"/>
                  </angle>
                  <angle>
                    <activevideoangle>false</activevideoangle>
                    <activeaudioangle>false</activeaudioangle>
                    <clip id="clip-9"/>
                  </angle>
                  <masterclipid>clip-master</masterclipid>
                </multiclip>
              </clipitem>
              <clipitem id="cs-587">
                <duration>150</duration>
                <rate>
                  <ntsc>false</ntsc>
                  <timebase>25</timebase>
                </rate>
                <in>91294</in>
                <out>91443</out>
                <start>91294</start>
                <end>91443</end>
                <file id="src-5"/>
                <sourcetrack>
                  <mediatype>video</mediatype>
                  <trackindex>1</trackindex>
                </sourcetrack>
                <multiclip id="mcs-587">
                  <name>MCS-587</name>
                  <masterclipid>clip-master</masterclipid>
                  <collapsed>false</collapsed>
                  <angle>
                    <activevideoangle>false</activevideoangle>
                    <activeaudioangle>false</activeaudioangle>
                    <clip id="clip-1"/>
                  </angle>
                  <angle>
                    <activevideoangle>false</activevideoangle>
                    <activeaudioangle>false</activeaudioangle>
                    <clip id="clip-2"/>
                  </angle>
                  <angle>
                    <activevideoangle>false</activevideoangle>
                    <activeaudioangle>false</activeaudioangle>
                    <clip id="clip-3"/>
                  </angle>
                  <angle>
                    <activevideoangle>false</activevideoangle>
                    <activeaudioangle>false</activeaudioangle>
                    <clip id="clip-4"/>
                  </angle>
                  <angle>
                    <activevideoangle>true</activevideoangle>
                    <activeaudioangle>true</activeaudioangle>
                    <clip id="clip-5"/>
                  </angle>
                  <angle>
                    <activevideoangle>false</activevideoangle>
                    <activeaudioangle>false</activeaudioangle>
                    <clip id="clip-6"/>
                  </angle>
                  <angle>
                    <activevideoangle>false</activevideoangle>
                    <activeaudioangle>false</activeaudioangle>
                    <clip id="clip-7"/>
                  </angle>
                  <angle>
                    <activevideoangle>false</activevideoangle>
                    <activeaudioangle>false</activeaudioangle>
                    <clip id="clip-8"/>
                  </angle>
                  <angle>
                    <activevideoangle>false</activevideoangle>
                    <activeaudioangle>false</activeaudioangle>
                    <clip id="clip-9"/>
                  </angle>
                  <masterclipid>clip-master</masterclipid>
                </multiclip>
              </clipitem>
              <clipitem id="cs-588">
                <duration>117</duration>
                <rate>
                  <ntsc>false</ntsc>
                  <timebase>25</timebase>
                </rate>
                <in>91443</in>
                <out>91559</out>
                <start>91443</start>
                <end>91559</end>
                <file id="src-2"/>
                <sourcetrack>
                  <mediatype>video</mediatype>
                  <trackindex>1</trackindex>
                </sourcetrack>
                <multiclip id="mcs-588">
                  <name>MCS-588</name>
                  <masterclipid>clip-master</masterclipid>
                  <collapsed>false</collapsed>
                  <angle>
                    <activevideoangle>false</activevideoangle>
                    <activeaudioangle>false</activeaudioangle>
                    <clip id="clip-1"/>
                  </angle>
                  <angle>
                    <activevideoangle>true</activevideoangle>
                    <activeaudioangle>true</activeaudioangle>
                    <clip id="clip-2"/>
                  </angle>
                  <angle>
                    <activevideoangle>false</activevideoangle>
                    <activeaudioangle>false</activeaudioangle>
                    <clip id="clip-3"/>
                  </angle>
                  <angle>
                    <activevideoangle>false</activevideoangle>
                    <activeaudioangle>false</activeaudioangle>
                    <clip id="clip-4"/>
                  </angle>
                  <angle>
                    <activevideoangle>false</activevideoangle>
                    <activeaudioangle>false</activeaudioangle>
                    <clip id="clip-5"/>
                  </angle>
                  <angle>
                    <activevideoangle>false</activevideoangle>
                    <activeaudioangle>false</activeaudioangle>
                    <clip id="clip-6"/>
                  </angle>
                  <angle>
                    <activevideoangle>false</activevideoangle>
                    <activeaudioangle>false</activeaudioangle>
                    <clip id="clip-7"/>
                  </angle>
                  <angle>
                    <activevideoangle>false</activevideoangle>
                    <activeaudioangle>false</activeaudioangle>
                    <clip id="clip-8"/>
                  </angle>
                  <angle>
                    <activevideoangle>false</activevideoangle>
                    <activeaudioangle>false</activeaudioangle>
                    <clip id="clip-9"/>
                  </angle>
                  <masterclipid>clip-master</masterclipid>
                </multiclip>
              </clipitem>
              <clipitem id="cs-589">
                <duration>158</duration>
                <rate>
                  <ntsc>false</ntsc>
                  <timebase>25</timebase>
                </rate>
                <in>91559</in>
                <out>91716</out>
                <start>91559</start>
                <end>91716</end>
                <file id="src-3"/>
                <sourcetrack>
                  <mediatype>video</mediatype>
                  <trackindex>1</trackindex>
                </sourcetrack>
                <multiclip id="mcs-589">
                  <name>MCS-589</name>
                  <masterclipid>clip-master</masterclipid>
                  <collapsed>false</collapsed>
                  <angle>
                    <activevideoangle>false</activevideoangle>
                    <activeaudioangle>false</activeaudioangle>
                    <clip id="clip-1"/>
                  </angle>
                  <angle>
                    <activevideoangle>false</activevideoangle>
                    <activeaudioangle>false</activeaudioangle>
                    <clip id="clip-2"/>
                  </angle>
                  <angle>
                    <activevideoangle>true</activevideoangle>
                    <activeaudioangle>true</activeaudioangle>
                    <clip id="clip-3"/>
                  </angle>
                  <angle>
                    <activevideoangle>false</activevideoangle>
                    <activeaudioangle>false</activeaudioangle>
                    <clip id="clip-4"/>
                  </angle>
                  <angle>
                    <activevideoangle>false</activevideoangle>
                    <activeaudioangle>false</activeaudioangle>
                    <clip id="clip-5"/>
                  </angle>
                  <angle>
                    <activevideoangle>false</activevideoangle>
                    <activeaudioangle>false</activeaudioangle>
                    <clip id="clip-6"/>
                  </angle>
                  <angle>
                    <activevideoangle>false</activevideoangle>
                    <activeaudioangle>false</activeaudioangle>
                    <clip id="clip-7"/>
                  </angle>
                  <angle>
                    <activevideoangle>false</activevideoangle>
                    <activeaudioangle>false</activeaudioangle>
                    <clip id="clip-8"/>
                  </angle>
                  <angle>
                    <activevideoangle>false</activevideoangle>
                    <activeaudioangle>false</activeaudioangle>
                    <clip id="clip-9"/>
                  </angle>
                  <masterclipid>clip-master</masterclipid>
                </multiclip>
              </clipitem>
              <clipitem id="cs-590">
                <duration>157</duration>
                <rate>
                  <ntsc>false</ntsc>
                  <timebase>25</timebase>
                </rate>
                <in>91716</in>
                <out>91872</out>
                <start>91716</start>
                <end>91872</end>
                <file id="src-2"/>
                <sourcetrack>
                  <mediatype>video</mediatype>
                  <trackindex>1</trackindex>
                </sourcetrack>
                <multiclip id="mcs-590">
                  <name>MCS-590</name>
                  <masterclipid>clip-master</masterclipid>
                  <collapsed>false</collapsed>
                  <angle>
                    <activevideoangle>false</activevideoangle>
                    <activeaudioangle>false</activeaudioangle>
                    <clip id="clip-1"/>
                  </angle>
                  <angle>
                    <activevideoangle>true</activevideoangle>
                    <activeaudioangle>true</activeaudioangle>
                    <clip id="clip-2"/>
                  </angle>
                  <angle>
                    <activevideoangle>false</activevideoangle>
                    <activeaudioangle>false</activeaudioangle>
                    <clip id="clip-3"/>
                  </angle>
                  <angle>
                    <activevideoangle>false</activevideoangle>
                    <activeaudioangle>false</activeaudioangle>
                    <clip id="clip-4"/>
                  </angle>
                  <angle>
                    <activevideoangle>false</activevideoangle>
                    <activeaudioangle>false</activeaudioangle>
                    <clip id="clip-5"/>
                  </angle>
                  <angle>
                    <activevideoangle>false</activevideoangle>
                    <activeaudioangle>false</activeaudioangle>
                    <clip id="clip-6"/>
                  </angle>
                  <angle>
                    <activevideoangle>false</activevideoangle>
                    <activeaudioangle>false</activeaudioangle>
                    <clip id="clip-7"/>
                  </angle>
                  <angle>
                    <activevideoangle>false</activevideoangle>
                    <activeaudioangle>false</activeaudioangle>
                    <clip id="clip-8"/>
                  </angle>
                  <angle>
                    <activevideoangle>false</activevideoangle>
                    <activeaudioangle>false</activeaudioangle>
                    <clip id="clip-9"/>
                  </angle>
                  <masterclipid>clip-master</masterclipid>
                </multiclip>
              </clipitem>
              <clipitem id="cs-591">
                <duration>113</duration>
                <rate>
                  <ntsc>false</ntsc>
                  <timebase>25</timebase>
                </rate>
                <in>91872</in>
                <out>91984</out>
                <start>91872</start>
                <end>91984</end>
                <file id="src-3"/>
                <sourcetrack>
                  <mediatype>video</mediatype>
                  <trackindex>1</trackindex>
                </sourcetrack>
                <multiclip id="mcs-591">
                  <name>MCS-591</name>
                  <masterclipid>clip-master</masterclipid>
                  <collapsed>false</collapsed>
                  <angle>
                    <activevideoangle>false</activevideoangle>
                    <activeaudioangle>false</activeaudioangle>
                    <clip id="clip-1"/>
                  </angle>
                  <angle>
                    <activevideoangle>false</activevideoangle>
                    <activeaudioangle>false</activeaudioangle>
                    <clip id="clip-2"/>
                  </angle>
                  <angle>
                    <activevideoangle>true</activevideoangle>
                    <activeaudioangle>true</activeaudioangle>
                    <clip id="clip-3"/>
                  </angle>
                  <angle>
                    <activevideoangle>false</activevideoangle>
                    <activeaudioangle>false</activeaudioangle>
                    <clip id="clip-4"/>
                  </angle>
                  <angle>
                    <activevideoangle>false</activevideoangle>
                    <activeaudioangle>false</activeaudioangle>
                    <clip id="clip-5"/>
                  </angle>
                  <angle>
                    <activevideoangle>false</activevideoangle>
                    <activeaudioangle>false</activeaudioangle>
                    <clip id="clip-6"/>
                  </angle>
                  <angle>
                    <activevideoangle>false</activevideoangle>
                    <activeaudioangle>false</activeaudioangle>
                    <clip id="clip-7"/>
                  </angle>
                  <angle>
                    <activevideoangle>false</activevideoangle>
                    <activeaudioangle>false</activeaudioangle>
                    <clip id="clip-8"/>
                  </angle>
                  <angle>
                    <activevideoangle>false</activevideoangle>
                    <activeaudioangle>false</activeaudioangle>
                    <clip id="clip-9"/>
                  </angle>
                  <masterclipid>clip-master</masterclipid>
                </multiclip>
              </clipitem>
              <clipitem id="cs-592">
                <duration>114</duration>
                <rate>
                  <ntsc>false</ntsc>
                  <timebase>25</timebase>
                </rate>
                <in>91984</in>
                <out>92097</out>
                <start>91984</start>
                <end>92097</end>
                <file id="src-6"/>
                <sourcetrack>
                  <mediatype>video</mediatype>
                  <trackindex>1</trackindex>
                </sourcetrack>
                <multiclip id="mcs-592">
                  <name>MCS-592</name>
                  <masterclipid>clip-master</masterclipid>
                  <collapsed>false</collapsed>
                  <angle>
                    <activevideoangle>false</activevideoangle>
                    <activeaudioangle>false</activeaudioangle>
                    <clip id="clip-1"/>
                  </angle>
                  <angle>
                    <activevideoangle>false</activevideoangle>
                    <activeaudioangle>false</activeaudioangle>
                    <clip id="clip-2"/>
                  </angle>
                  <angle>
                    <activevideoangle>false</activevideoangle>
                    <activeaudioangle>false</activeaudioangle>
                    <clip id="clip-3"/>
                  </angle>
                  <angle>
                    <activevideoangle>false</activevideoangle>
                    <activeaudioangle>false</activeaudioangle>
                    <clip id="clip-4"/>
                  </angle>
                  <angle>
                    <activevideoangle>false</activevideoangle>
                    <activeaudioangle>false</activeaudioangle>
                    <clip id="clip-5"/>
                  </angle>
                  <angle>
                    <activevideoangle>true</activevideoangle>
                    <activeaudioangle>true</activeaudioangle>
                    <clip id="clip-6"/>
                  </angle>
                  <angle>
                    <activevideoangle>false</activevideoangle>
                    <activeaudioangle>false</activeaudioangle>
                    <clip id="clip-7"/>
                  </angle>
                  <angle>
                    <activevideoangle>false</activevideoangle>
                    <activeaudioangle>false</activeaudioangle>
                    <clip id="clip-8"/>
                  </angle>
                  <angle>
                    <activevideoangle>false</activevideoangle>
                    <activeaudioangle>false</activeaudioangle>
                    <clip id="clip-9"/>
                  </angle>
                  <masterclipid>clip-master</masterclipid>
                </multiclip>
              </clipitem>
              <clipitem id="cs-593">
                <duration>57</duration>
                <rate>
                  <ntsc>false</ntsc>
                  <timebase>25</timebase>
                </rate>
                <in>92097</in>
                <out>92153</out>
                <start>92097</start>
                <end>92153</end>
                <file id="src-3"/>
                <sourcetrack>
                  <mediatype>video</mediatype>
                  <trackindex>1</trackindex>
                </sourcetrack>
                <multiclip id="mcs-593">
                  <name>MCS-593</name>
                  <masterclipid>clip-master</masterclipid>
                  <collapsed>false</collapsed>
                  <angle>
                    <activevideoangle>false</activevideoangle>
                    <activeaudioangle>false</activeaudioangle>
                    <clip id="clip-1"/>
                  </angle>
                  <angle>
                    <activevideoangle>false</activevideoangle>
                    <activeaudioangle>false</activeaudioangle>
                    <clip id="clip-2"/>
                  </angle>
                  <angle>
                    <activevideoangle>true</activevideoangle>
                    <activeaudioangle>true</activeaudioangle>
                    <clip id="clip-3"/>
                  </angle>
                  <angle>
                    <activevideoangle>false</activevideoangle>
                    <activeaudioangle>false</activeaudioangle>
                    <clip id="clip-4"/>
                  </angle>
                  <angle>
                    <activevideoangle>false</activevideoangle>
                    <activeaudioangle>false</activeaudioangle>
                    <clip id="clip-5"/>
                  </angle>
                  <angle>
                    <activevideoangle>false</activevideoangle>
                    <activeaudioangle>false</activeaudioangle>
                    <clip id="clip-6"/>
                  </angle>
                  <angle>
                    <activevideoangle>false</activevideoangle>
                    <activeaudioangle>false</activeaudioangle>
                    <clip id="clip-7"/>
                  </angle>
                  <angle>
                    <activevideoangle>false</activevideoangle>
                    <activeaudioangle>false</activeaudioangle>
                    <clip id="clip-8"/>
                  </angle>
                  <angle>
                    <activevideoangle>false</activevideoangle>
                    <activeaudioangle>false</activeaudioangle>
                    <clip id="clip-9"/>
                  </angle>
                  <masterclipid>clip-master</masterclipid>
                </multiclip>
              </clipitem>
              <clipitem id="cs-594">
                <duration>88</duration>
                <rate>
                  <ntsc>false</ntsc>
                  <timebase>25</timebase>
                </rate>
                <in>92153</in>
                <out>92240</out>
                <start>92153</start>
                <end>92240</end>
                <file id="src-2"/>
                <sourcetrack>
                  <mediatype>video</mediatype>
                  <trackindex>1</trackindex>
                </sourcetrack>
                <multiclip id="mcs-594">
                  <name>MCS-594</name>
                  <masterclipid>clip-master</masterclipid>
                  <collapsed>false</collapsed>
                  <angle>
                    <activevideoangle>false</activevideoangle>
                    <activeaudioangle>false</activeaudioangle>
                    <clip id="clip-1"/>
                  </angle>
                  <angle>
                    <activevideoangle>true</activevideoangle>
                    <activeaudioangle>true</activeaudioangle>
                    <clip id="clip-2"/>
                  </angle>
                  <angle>
                    <activevideoangle>false</activevideoangle>
                    <activeaudioangle>false</activeaudioangle>
                    <clip id="clip-3"/>
                  </angle>
                  <angle>
                    <activevideoangle>false</activevideoangle>
                    <activeaudioangle>false</activeaudioangle>
                    <clip id="clip-4"/>
                  </angle>
                  <angle>
                    <activevideoangle>false</activevideoangle>
                    <activeaudioangle>false</activeaudioangle>
                    <clip id="clip-5"/>
                  </angle>
                  <angle>
                    <activevideoangle>false</activevideoangle>
                    <activeaudioangle>false</activeaudioangle>
                    <clip id="clip-6"/>
                  </angle>
                  <angle>
                    <activevideoangle>false</activevideoangle>
                    <activeaudioangle>false</activeaudioangle>
                    <clip id="clip-7"/>
                  </angle>
                  <angle>
                    <activevideoangle>false</activevideoangle>
                    <activeaudioangle>false</activeaudioangle>
                    <clip id="clip-8"/>
                  </angle>
                  <angle>
                    <activevideoangle>false</activevideoangle>
                    <activeaudioangle>false</activeaudioangle>
                    <clip id="clip-9"/>
                  </angle>
                  <masterclipid>clip-master</masterclipid>
                </multiclip>
              </clipitem>
              <clipitem id="cs-595">
                <duration>121</duration>
                <rate>
                  <ntsc>false</ntsc>
                  <timebase>25</timebase>
                </rate>
                <in>92240</in>
                <out>92360</out>
                <start>92240</start>
                <end>92360</end>
                <file id="src-4"/>
                <sourcetrack>
                  <mediatype>video</mediatype>
                  <trackindex>1</trackindex>
                </sourcetrack>
                <multiclip id="mcs-595">
                  <name>MCS-595</name>
                  <masterclipid>clip-master</masterclipid>
                  <collapsed>false</collapsed>
                  <angle>
                    <activevideoangle>false</activevideoangle>
                    <activeaudioangle>false</activeaudioangle>
                    <clip id="clip-1"/>
                  </angle>
                  <angle>
                    <activevideoangle>false</activevideoangle>
                    <activeaudioangle>false</activeaudioangle>
                    <clip id="clip-2"/>
                  </angle>
                  <angle>
                    <activevideoangle>false</activevideoangle>
                    <activeaudioangle>false</activeaudioangle>
                    <clip id="clip-3"/>
                  </angle>
                  <angle>
                    <activevideoangle>true</activevideoangle>
                    <activeaudioangle>true</activeaudioangle>
                    <clip id="clip-4"/>
                  </angle>
                  <angle>
                    <activevideoangle>false</activevideoangle>
                    <activeaudioangle>false</activeaudioangle>
                    <clip id="clip-5"/>
                  </angle>
                  <angle>
                    <activevideoangle>false</activevideoangle>
                    <activeaudioangle>false</activeaudioangle>
                    <clip id="clip-6"/>
                  </angle>
                  <angle>
                    <activevideoangle>false</activevideoangle>
                    <activeaudioangle>false</activeaudioangle>
                    <clip id="clip-7"/>
                  </angle>
                  <angle>
                    <activevideoangle>false</activevideoangle>
                    <activeaudioangle>false</activeaudioangle>
                    <clip id="clip-8"/>
                  </angle>
                  <angle>
                    <activevideoangle>false</activevideoangle>
                    <activeaudioangle>false</activeaudioangle>
                    <clip id="clip-9"/>
                  </angle>
                  <masterclipid>clip-master</masterclipid>
                </multiclip>
              </clipitem>
              <clipitem id="cs-596">
                <duration>701</duration>
                <rate>
                  <ntsc>false</ntsc>
                  <timebase>25</timebase>
                </rate>
                <in>92360</in>
                <out>93060</out>
                <start>92360</start>
                <end>93060</end>
                <file id="src-5"/>
                <sourcetrack>
                  <mediatype>video</mediatype>
                  <trackindex>1</trackindex>
                </sourcetrack>
                <multiclip id="mcs-596">
                  <name>MCS-596</name>
                  <masterclipid>clip-master</masterclipid>
                  <collapsed>false</collapsed>
                  <angle>
                    <activevideoangle>false</activevideoangle>
                    <activeaudioangle>false</activeaudioangle>
                    <clip id="clip-1"/>
                  </angle>
                  <angle>
                    <activevideoangle>false</activevideoangle>
                    <activeaudioangle>false</activeaudioangle>
                    <clip id="clip-2"/>
                  </angle>
                  <angle>
                    <activevideoangle>false</activevideoangle>
                    <activeaudioangle>false</activeaudioangle>
                    <clip id="clip-3"/>
                  </angle>
                  <angle>
                    <activevideoangle>false</activevideoangle>
                    <activeaudioangle>false</activeaudioangle>
                    <clip id="clip-4"/>
                  </angle>
                  <angle>
                    <activevideoangle>true</activevideoangle>
                    <activeaudioangle>true</activeaudioangle>
                    <clip id="clip-5"/>
                  </angle>
                  <angle>
                    <activevideoangle>false</activevideoangle>
                    <activeaudioangle>false</activeaudioangle>
                    <clip id="clip-6"/>
                  </angle>
                  <angle>
                    <activevideoangle>false</activevideoangle>
                    <activeaudioangle>false</activeaudioangle>
                    <clip id="clip-7"/>
                  </angle>
                  <angle>
                    <activevideoangle>false</activevideoangle>
                    <activeaudioangle>false</activeaudioangle>
                    <clip id="clip-8"/>
                  </angle>
                  <angle>
                    <activevideoangle>false</activevideoangle>
                    <activeaudioangle>false</activeaudioangle>
                    <clip id="clip-9"/>
                  </angle>
                  <masterclipid>clip-master</masterclipid>
                </multiclip>
              </clipitem>
              <clipitem id="cs-597">
                <duration>44</duration>
                <rate>
                  <ntsc>false</ntsc>
                  <timebase>25</timebase>
                </rate>
                <in>93060</in>
                <out>93103</out>
                <start>93060</start>
                <end>93103</end>
                <file id="src-2"/>
                <sourcetrack>
                  <mediatype>video</mediatype>
                  <trackindex>1</trackindex>
                </sourcetrack>
                <multiclip id="mcs-597">
                  <name>MCS-597</name>
                  <masterclipid>clip-master</masterclipid>
                  <collapsed>false</collapsed>
                  <angle>
                    <activevideoangle>false</activevideoangle>
                    <activeaudioangle>false</activeaudioangle>
                    <clip id="clip-1"/>
                  </angle>
                  <angle>
                    <activevideoangle>true</activevideoangle>
                    <activeaudioangle>true</activeaudioangle>
                    <clip id="clip-2"/>
                  </angle>
                  <angle>
                    <activevideoangle>false</activevideoangle>
                    <activeaudioangle>false</activeaudioangle>
                    <clip id="clip-3"/>
                  </angle>
                  <angle>
                    <activevideoangle>false</activevideoangle>
                    <activeaudioangle>false</activeaudioangle>
                    <clip id="clip-4"/>
                  </angle>
                  <angle>
                    <activevideoangle>false</activevideoangle>
                    <activeaudioangle>false</activeaudioangle>
                    <clip id="clip-5"/>
                  </angle>
                  <angle>
                    <activevideoangle>false</activevideoangle>
                    <activeaudioangle>false</activeaudioangle>
                    <clip id="clip-6"/>
                  </angle>
                  <angle>
                    <activevideoangle>false</activevideoangle>
                    <activeaudioangle>false</activeaudioangle>
                    <clip id="clip-7"/>
                  </angle>
                  <angle>
                    <activevideoangle>false</activevideoangle>
                    <activeaudioangle>false</activeaudioangle>
                    <clip id="clip-8"/>
                  </angle>
                  <angle>
                    <activevideoangle>false</activevideoangle>
                    <activeaudioangle>false</activeaudioangle>
                    <clip id="clip-9"/>
                  </angle>
                  <masterclipid>clip-master</masterclipid>
                </multiclip>
              </clipitem>
              <clipitem id="cs-598">
                <duration>40</duration>
                <rate>
                  <ntsc>false</ntsc>
                  <timebase>25</timebase>
                </rate>
                <in>93103</in>
                <out>93142</out>
                <start>93103</start>
                <end>93142</end>
                <file id="src-4"/>
                <sourcetrack>
                  <mediatype>video</mediatype>
                  <trackindex>1</trackindex>
                </sourcetrack>
                <multiclip id="mcs-598">
                  <name>MCS-598</name>
                  <masterclipid>clip-master</masterclipid>
                  <collapsed>false</collapsed>
                  <angle>
                    <activevideoangle>false</activevideoangle>
                    <activeaudioangle>false</activeaudioangle>
                    <clip id="clip-1"/>
                  </angle>
                  <angle>
                    <activevideoangle>false</activevideoangle>
                    <activeaudioangle>false</activeaudioangle>
                    <clip id="clip-2"/>
                  </angle>
                  <angle>
                    <activevideoangle>false</activevideoangle>
                    <activeaudioangle>false</activeaudioangle>
                    <clip id="clip-3"/>
                  </angle>
                  <angle>
                    <activevideoangle>true</activevideoangle>
                    <activeaudioangle>true</activeaudioangle>
                    <clip id="clip-4"/>
                  </angle>
                  <angle>
                    <activevideoangle>false</activevideoangle>
                    <activeaudioangle>false</activeaudioangle>
                    <clip id="clip-5"/>
                  </angle>
                  <angle>
                    <activevideoangle>false</activevideoangle>
                    <activeaudioangle>false</activeaudioangle>
                    <clip id="clip-6"/>
                  </angle>
                  <angle>
                    <activevideoangle>false</activevideoangle>
                    <activeaudioangle>false</activeaudioangle>
                    <clip id="clip-7"/>
                  </angle>
                  <angle>
                    <activevideoangle>false</activevideoangle>
                    <activeaudioangle>false</activeaudioangle>
                    <clip id="clip-8"/>
                  </angle>
                  <angle>
                    <activevideoangle>false</activevideoangle>
                    <activeaudioangle>false</activeaudioangle>
                    <clip id="clip-9"/>
                  </angle>
                  <masterclipid>clip-master</masterclipid>
                </multiclip>
              </clipitem>
              <clipitem id="cs-599">
                <duration>248</duration>
                <rate>
                  <ntsc>false</ntsc>
                  <timebase>25</timebase>
                </rate>
                <in>93142</in>
                <out>93389</out>
                <start>93142</start>
                <end>93389</end>
                <file id="src-3"/>
                <sourcetrack>
                  <mediatype>video</mediatype>
                  <trackindex>1</trackindex>
                </sourcetrack>
                <multiclip id="mcs-599">
                  <name>MCS-599</name>
                  <masterclipid>clip-master</masterclipid>
                  <collapsed>false</collapsed>
                  <angle>
                    <activevideoangle>false</activevideoangle>
                    <activeaudioangle>false</activeaudioangle>
                    <clip id="clip-1"/>
                  </angle>
                  <angle>
                    <activevideoangle>false</activevideoangle>
                    <activeaudioangle>false</activeaudioangle>
                    <clip id="clip-2"/>
                  </angle>
                  <angle>
                    <activevideoangle>true</activevideoangle>
                    <activeaudioangle>true</activeaudioangle>
                    <clip id="clip-3"/>
                  </angle>
                  <angle>
                    <activevideoangle>false</activevideoangle>
                    <activeaudioangle>false</activeaudioangle>
                    <clip id="clip-4"/>
                  </angle>
                  <angle>
                    <activevideoangle>false</activevideoangle>
                    <activeaudioangle>false</activeaudioangle>
                    <clip id="clip-5"/>
                  </angle>
                  <angle>
                    <activevideoangle>false</activevideoangle>
                    <activeaudioangle>false</activeaudioangle>
                    <clip id="clip-6"/>
                  </angle>
                  <angle>
                    <activevideoangle>false</activevideoangle>
                    <activeaudioangle>false</activeaudioangle>
                    <clip id="clip-7"/>
                  </angle>
                  <angle>
                    <activevideoangle>false</activevideoangle>
                    <activeaudioangle>false</activeaudioangle>
                    <clip id="clip-8"/>
                  </angle>
                  <angle>
                    <activevideoangle>false</activevideoangle>
                    <activeaudioangle>false</activeaudioangle>
                    <clip id="clip-9"/>
                  </angle>
                  <masterclipid>clip-master</masterclipid>
                </multiclip>
              </clipitem>
              <clipitem id="cs-600">
                <duration>77</duration>
                <rate>
                  <ntsc>false</ntsc>
                  <timebase>25</timebase>
                </rate>
                <in>93389</in>
                <out>93465</out>
                <start>93389</start>
                <end>93465</end>
                <file id="src-6"/>
                <sourcetrack>
                  <mediatype>video</mediatype>
                  <trackindex>1</trackindex>
                </sourcetrack>
                <multiclip id="mcs-600">
                  <name>MCS-600</name>
                  <masterclipid>clip-master</masterclipid>
                  <collapsed>false</collapsed>
                  <angle>
                    <activevideoangle>false</activevideoangle>
                    <activeaudioangle>false</activeaudioangle>
                    <clip id="clip-1"/>
                  </angle>
                  <angle>
                    <activevideoangle>false</activevideoangle>
                    <activeaudioangle>false</activeaudioangle>
                    <clip id="clip-2"/>
                  </angle>
                  <angle>
                    <activevideoangle>false</activevideoangle>
                    <activeaudioangle>false</activeaudioangle>
                    <clip id="clip-3"/>
                  </angle>
                  <angle>
                    <activevideoangle>false</activevideoangle>
                    <activeaudioangle>false</activeaudioangle>
                    <clip id="clip-4"/>
                  </angle>
                  <angle>
                    <activevideoangle>false</activevideoangle>
                    <activeaudioangle>false</activeaudioangle>
                    <clip id="clip-5"/>
                  </angle>
                  <angle>
                    <activevideoangle>true</activevideoangle>
                    <activeaudioangle>true</activeaudioangle>
                    <clip id="clip-6"/>
                  </angle>
                  <angle>
                    <activevideoangle>false</activevideoangle>
                    <activeaudioangle>false</activeaudioangle>
                    <clip id="clip-7"/>
                  </angle>
                  <angle>
                    <activevideoangle>false</activevideoangle>
                    <activeaudioangle>false</activeaudioangle>
                    <clip id="clip-8"/>
                  </angle>
                  <angle>
                    <activevideoangle>false</activevideoangle>
                    <activeaudioangle>false</activeaudioangle>
                    <clip id="clip-9"/>
                  </angle>
                  <masterclipid>clip-master</masterclipid>
                </multiclip>
              </clipitem>
              <clipitem id="cs-601">
                <duration>49</duration>
                <rate>
                  <ntsc>false</ntsc>
                  <timebase>25</timebase>
                </rate>
                <in>93465</in>
                <out>93513</out>
                <start>93465</start>
                <end>93513</end>
                <file id="src-4"/>
                <sourcetrack>
                  <mediatype>video</mediatype>
                  <trackindex>1</trackindex>
                </sourcetrack>
                <multiclip id="mcs-601">
                  <name>MCS-601</name>
                  <masterclipid>clip-master</masterclipid>
                  <collapsed>false</collapsed>
                  <angle>
                    <activevideoangle>false</activevideoangle>
                    <activeaudioangle>false</activeaudioangle>
                    <clip id="clip-1"/>
                  </angle>
                  <angle>
                    <activevideoangle>false</activevideoangle>
                    <activeaudioangle>false</activeaudioangle>
                    <clip id="clip-2"/>
                  </angle>
                  <angle>
                    <activevideoangle>false</activevideoangle>
                    <activeaudioangle>false</activeaudioangle>
                    <clip id="clip-3"/>
                  </angle>
                  <angle>
                    <activevideoangle>true</activevideoangle>
                    <activeaudioangle>true</activeaudioangle>
                    <clip id="clip-4"/>
                  </angle>
                  <angle>
                    <activevideoangle>false</activevideoangle>
                    <activeaudioangle>false</activeaudioangle>
                    <clip id="clip-5"/>
                  </angle>
                  <angle>
                    <activevideoangle>false</activevideoangle>
                    <activeaudioangle>false</activeaudioangle>
                    <clip id="clip-6"/>
                  </angle>
                  <angle>
                    <activevideoangle>false</activevideoangle>
                    <activeaudioangle>false</activeaudioangle>
                    <clip id="clip-7"/>
                  </angle>
                  <angle>
                    <activevideoangle>false</activevideoangle>
                    <activeaudioangle>false</activeaudioangle>
                    <clip id="clip-8"/>
                  </angle>
                  <angle>
                    <activevideoangle>false</activevideoangle>
                    <activeaudioangle>false</activeaudioangle>
                    <clip id="clip-9"/>
                  </angle>
                  <masterclipid>clip-master</masterclipid>
                </multiclip>
              </clipitem>
              <clipitem id="cs-602">
                <duration>134</duration>
                <rate>
                  <ntsc>false</ntsc>
                  <timebase>25</timebase>
                </rate>
                <in>93513</in>
                <out>93646</out>
                <start>93513</start>
                <end>93646</end>
                <file id="src-3"/>
                <sourcetrack>
                  <mediatype>video</mediatype>
                  <trackindex>1</trackindex>
                </sourcetrack>
                <multiclip id="mcs-602">
                  <name>MCS-602</name>
                  <masterclipid>clip-master</masterclipid>
                  <collapsed>false</collapsed>
                  <angle>
                    <activevideoangle>false</activevideoangle>
                    <activeaudioangle>false</activeaudioangle>
                    <clip id="clip-1"/>
                  </angle>
                  <angle>
                    <activevideoangle>false</activevideoangle>
                    <activeaudioangle>false</activeaudioangle>
                    <clip id="clip-2"/>
                  </angle>
                  <angle>
                    <activevideoangle>true</activevideoangle>
                    <activeaudioangle>true</activeaudioangle>
                    <clip id="clip-3"/>
                  </angle>
                  <angle>
                    <activevideoangle>false</activevideoangle>
                    <activeaudioangle>false</activeaudioangle>
                    <clip id="clip-4"/>
                  </angle>
                  <angle>
                    <activevideoangle>false</activevideoangle>
                    <activeaudioangle>false</activeaudioangle>
                    <clip id="clip-5"/>
                  </angle>
                  <angle>
                    <activevideoangle>false</activevideoangle>
                    <activeaudioangle>false</activeaudioangle>
                    <clip id="clip-6"/>
                  </angle>
                  <angle>
                    <activevideoangle>false</activevideoangle>
                    <activeaudioangle>false</activeaudioangle>
                    <clip id="clip-7"/>
                  </angle>
                  <angle>
                    <activevideoangle>false</activevideoangle>
                    <activeaudioangle>false</activeaudioangle>
                    <clip id="clip-8"/>
                  </angle>
                  <angle>
                    <activevideoangle>false</activevideoangle>
                    <activeaudioangle>false</activeaudioangle>
                    <clip id="clip-9"/>
                  </angle>
                  <masterclipid>clip-master</masterclipid>
                </multiclip>
              </clipitem>
              <clipitem id="cs-603">
                <duration>59</duration>
                <rate>
                  <ntsc>false</ntsc>
                  <timebase>25</timebase>
                </rate>
                <in>93646</in>
                <out>93704</out>
                <start>93646</start>
                <end>93704</end>
                <file id="src-6"/>
                <sourcetrack>
                  <mediatype>video</mediatype>
                  <trackindex>1</trackindex>
                </sourcetrack>
                <multiclip id="mcs-603">
                  <name>MCS-603</name>
                  <masterclipid>clip-master</masterclipid>
                  <collapsed>false</collapsed>
                  <angle>
                    <activevideoangle>false</activevideoangle>
                    <activeaudioangle>false</activeaudioangle>
                    <clip id="clip-1"/>
                  </angle>
                  <angle>
                    <activevideoangle>false</activevideoangle>
                    <activeaudioangle>false</activeaudioangle>
                    <clip id="clip-2"/>
                  </angle>
                  <angle>
                    <activevideoangle>false</activevideoangle>
                    <activeaudioangle>false</activeaudioangle>
                    <clip id="clip-3"/>
                  </angle>
                  <angle>
                    <activevideoangle>false</activevideoangle>
                    <activeaudioangle>false</activeaudioangle>
                    <clip id="clip-4"/>
                  </angle>
                  <angle>
                    <activevideoangle>false</activevideoangle>
                    <activeaudioangle>false</activeaudioangle>
                    <clip id="clip-5"/>
                  </angle>
                  <angle>
                    <activevideoangle>true</activevideoangle>
                    <activeaudioangle>true</activeaudioangle>
                    <clip id="clip-6"/>
                  </angle>
                  <angle>
                    <activevideoangle>false</activevideoangle>
                    <activeaudioangle>false</activeaudioangle>
                    <clip id="clip-7"/>
                  </angle>
                  <angle>
                    <activevideoangle>false</activevideoangle>
                    <activeaudioangle>false</activeaudioangle>
                    <clip id="clip-8"/>
                  </angle>
                  <angle>
                    <activevideoangle>false</activevideoangle>
                    <activeaudioangle>false</activeaudioangle>
                    <clip id="clip-9"/>
                  </angle>
                  <masterclipid>clip-master</masterclipid>
                </multiclip>
              </clipitem>
              <clipitem id="cs-604">
                <duration>49</duration>
                <rate>
                  <ntsc>false</ntsc>
                  <timebase>25</timebase>
                </rate>
                <in>93704</in>
                <out>93752</out>
                <start>93704</start>
                <end>93752</end>
                <file id="src-4"/>
                <sourcetrack>
                  <mediatype>video</mediatype>
                  <trackindex>1</trackindex>
                </sourcetrack>
                <multiclip id="mcs-604">
                  <name>MCS-604</name>
                  <masterclipid>clip-master</masterclipid>
                  <collapsed>false</collapsed>
                  <angle>
                    <activevideoangle>false</activevideoangle>
                    <activeaudioangle>false</activeaudioangle>
                    <clip id="clip-1"/>
                  </angle>
                  <angle>
                    <activevideoangle>false</activevideoangle>
                    <activeaudioangle>false</activeaudioangle>
                    <clip id="clip-2"/>
                  </angle>
                  <angle>
                    <activevideoangle>false</activevideoangle>
                    <activeaudioangle>false</activeaudioangle>
                    <clip id="clip-3"/>
                  </angle>
                  <angle>
                    <activevideoangle>true</activevideoangle>
                    <activeaudioangle>true</activeaudioangle>
                    <clip id="clip-4"/>
                  </angle>
                  <angle>
                    <activevideoangle>false</activevideoangle>
                    <activeaudioangle>false</activeaudioangle>
                    <clip id="clip-5"/>
                  </angle>
                  <angle>
                    <activevideoangle>false</activevideoangle>
                    <activeaudioangle>false</activeaudioangle>
                    <clip id="clip-6"/>
                  </angle>
                  <angle>
                    <activevideoangle>false</activevideoangle>
                    <activeaudioangle>false</activeaudioangle>
                    <clip id="clip-7"/>
                  </angle>
                  <angle>
                    <activevideoangle>false</activevideoangle>
                    <activeaudioangle>false</activeaudioangle>
                    <clip id="clip-8"/>
                  </angle>
                  <angle>
                    <activevideoangle>false</activevideoangle>
                    <activeaudioangle>false</activeaudioangle>
                    <clip id="clip-9"/>
                  </angle>
                  <masterclipid>clip-master</masterclipid>
                </multiclip>
              </clipitem>
              <clipitem id="cs-605">
                <duration>170</duration>
                <rate>
                  <ntsc>false</ntsc>
                  <timebase>25</timebase>
                </rate>
                <in>93752</in>
                <out>93921</out>
                <start>93752</start>
                <end>93921</end>
                <file id="src-3"/>
                <sourcetrack>
                  <mediatype>video</mediatype>
                  <trackindex>1</trackindex>
                </sourcetrack>
                <multiclip id="mcs-605">
                  <name>MCS-605</name>
                  <masterclipid>clip-master</masterclipid>
                  <collapsed>false</collapsed>
                  <angle>
                    <activevideoangle>false</activevideoangle>
                    <activeaudioangle>false</activeaudioangle>
                    <clip id="clip-1"/>
                  </angle>
                  <angle>
                    <activevideoangle>false</activevideoangle>
                    <activeaudioangle>false</activeaudioangle>
                    <clip id="clip-2"/>
                  </angle>
                  <angle>
                    <activevideoangle>true</activevideoangle>
                    <activeaudioangle>true</activeaudioangle>
                    <clip id="clip-3"/>
                  </angle>
                  <angle>
                    <activevideoangle>false</activevideoangle>
                    <activeaudioangle>false</activeaudioangle>
                    <clip id="clip-4"/>
                  </angle>
                  <angle>
                    <activevideoangle>false</activevideoangle>
                    <activeaudioangle>false</activeaudioangle>
                    <clip id="clip-5"/>
                  </angle>
                  <angle>
                    <activevideoangle>false</activevideoangle>
                    <activeaudioangle>false</activeaudioangle>
                    <clip id="clip-6"/>
                  </angle>
                  <angle>
                    <activevideoangle>false</activevideoangle>
                    <activeaudioangle>false</activeaudioangle>
                    <clip id="clip-7"/>
                  </angle>
                  <angle>
                    <activevideoangle>false</activevideoangle>
                    <activeaudioangle>false</activeaudioangle>
                    <clip id="clip-8"/>
                  </angle>
                  <angle>
                    <activevideoangle>false</activevideoangle>
                    <activeaudioangle>false</activeaudioangle>
                    <clip id="clip-9"/>
                  </angle>
                  <masterclipid>clip-master</masterclipid>
                </multiclip>
              </clipitem>
              <clipitem id="cs-606">
                <duration>38</duration>
                <rate>
                  <ntsc>false</ntsc>
                  <timebase>25</timebase>
                </rate>
                <in>93921</in>
                <out>93958</out>
                <start>93921</start>
                <end>93958</end>
                <file id="src-6"/>
                <sourcetrack>
                  <mediatype>video</mediatype>
                  <trackindex>1</trackindex>
                </sourcetrack>
                <multiclip id="mcs-606">
                  <name>MCS-606</name>
                  <masterclipid>clip-master</masterclipid>
                  <collapsed>false</collapsed>
                  <angle>
                    <activevideoangle>false</activevideoangle>
                    <activeaudioangle>false</activeaudioangle>
                    <clip id="clip-1"/>
                  </angle>
                  <angle>
                    <activevideoangle>false</activevideoangle>
                    <activeaudioangle>false</activeaudioangle>
                    <clip id="clip-2"/>
                  </angle>
                  <angle>
                    <activevideoangle>false</activevideoangle>
                    <activeaudioangle>false</activeaudioangle>
                    <clip id="clip-3"/>
                  </angle>
                  <angle>
                    <activevideoangle>false</activevideoangle>
                    <activeaudioangle>false</activeaudioangle>
                    <clip id="clip-4"/>
                  </angle>
                  <angle>
                    <activevideoangle>false</activevideoangle>
                    <activeaudioangle>false</activeaudioangle>
                    <clip id="clip-5"/>
                  </angle>
                  <angle>
                    <activevideoangle>true</activevideoangle>
                    <activeaudioangle>true</activeaudioangle>
                    <clip id="clip-6"/>
                  </angle>
                  <angle>
                    <activevideoangle>false</activevideoangle>
                    <activeaudioangle>false</activeaudioangle>
                    <clip id="clip-7"/>
                  </angle>
                  <angle>
                    <activevideoangle>false</activevideoangle>
                    <activeaudioangle>false</activeaudioangle>
                    <clip id="clip-8"/>
                  </angle>
                  <angle>
                    <activevideoangle>false</activevideoangle>
                    <activeaudioangle>false</activeaudioangle>
                    <clip id="clip-9"/>
                  </angle>
                  <masterclipid>clip-master</masterclipid>
                </multiclip>
              </clipitem>
              <clipitem id="cs-607">
                <duration>197</duration>
                <rate>
                  <ntsc>false</ntsc>
                  <timebase>25</timebase>
                </rate>
                <in>93958</in>
                <out>94154</out>
                <start>93958</start>
                <end>94154</end>
                <file id="src-2"/>
                <sourcetrack>
                  <mediatype>video</mediatype>
                  <trackindex>1</trackindex>
                </sourcetrack>
                <multiclip id="mcs-607">
                  <name>MCS-607</name>
                  <masterclipid>clip-master</masterclipid>
                  <collapsed>false</collapsed>
                  <angle>
                    <activevideoangle>false</activevideoangle>
                    <activeaudioangle>false</activeaudioangle>
                    <clip id="clip-1"/>
                  </angle>
                  <angle>
                    <activevideoangle>true</activevideoangle>
                    <activeaudioangle>true</activeaudioangle>
                    <clip id="clip-2"/>
                  </angle>
                  <angle>
                    <activevideoangle>false</activevideoangle>
                    <activeaudioangle>false</activeaudioangle>
                    <clip id="clip-3"/>
                  </angle>
                  <angle>
                    <activevideoangle>false</activevideoangle>
                    <activeaudioangle>false</activeaudioangle>
                    <clip id="clip-4"/>
                  </angle>
                  <angle>
                    <activevideoangle>false</activevideoangle>
                    <activeaudioangle>false</activeaudioangle>
                    <clip id="clip-5"/>
                  </angle>
                  <angle>
                    <activevideoangle>false</activevideoangle>
                    <activeaudioangle>false</activeaudioangle>
                    <clip id="clip-6"/>
                  </angle>
                  <angle>
                    <activevideoangle>false</activevideoangle>
                    <activeaudioangle>false</activeaudioangle>
                    <clip id="clip-7"/>
                  </angle>
                  <angle>
                    <activevideoangle>false</activevideoangle>
                    <activeaudioangle>false</activeaudioangle>
                    <clip id="clip-8"/>
                  </angle>
                  <angle>
                    <activevideoangle>false</activevideoangle>
                    <activeaudioangle>false</activeaudioangle>
                    <clip id="clip-9"/>
                  </angle>
                  <masterclipid>clip-master</masterclipid>
                </multiclip>
              </clipitem>
              <clipitem id="cs-608">
                <duration>82</duration>
                <rate>
                  <ntsc>false</ntsc>
                  <timebase>25</timebase>
                </rate>
                <in>94154</in>
                <out>94235</out>
                <start>94154</start>
                <end>94235</end>
                <file id="src-5"/>
                <sourcetrack>
                  <mediatype>video</mediatype>
                  <trackindex>1</trackindex>
                </sourcetrack>
                <multiclip id="mcs-608">
                  <name>MCS-608</name>
                  <masterclipid>clip-master</masterclipid>
                  <collapsed>false</collapsed>
                  <angle>
                    <activevideoangle>false</activevideoangle>
                    <activeaudioangle>false</activeaudioangle>
                    <clip id="clip-1"/>
                  </angle>
                  <angle>
                    <activevideoangle>false</activevideoangle>
                    <activeaudioangle>false</activeaudioangle>
                    <clip id="clip-2"/>
                  </angle>
                  <angle>
                    <activevideoangle>false</activevideoangle>
                    <activeaudioangle>false</activeaudioangle>
                    <clip id="clip-3"/>
                  </angle>
                  <angle>
                    <activevideoangle>false</activevideoangle>
                    <activeaudioangle>false</activeaudioangle>
                    <clip id="clip-4"/>
                  </angle>
                  <angle>
                    <activevideoangle>true</activevideoangle>
                    <activeaudioangle>true</activeaudioangle>
                    <clip id="clip-5"/>
                  </angle>
                  <angle>
                    <activevideoangle>false</activevideoangle>
                    <activeaudioangle>false</activeaudioangle>
                    <clip id="clip-6"/>
                  </angle>
                  <angle>
                    <activevideoangle>false</activevideoangle>
                    <activeaudioangle>false</activeaudioangle>
                    <clip id="clip-7"/>
                  </angle>
                  <angle>
                    <activevideoangle>false</activevideoangle>
                    <activeaudioangle>false</activeaudioangle>
                    <clip id="clip-8"/>
                  </angle>
                  <angle>
                    <activevideoangle>false</activevideoangle>
                    <activeaudioangle>false</activeaudioangle>
                    <clip id="clip-9"/>
                  </angle>
                  <masterclipid>clip-master</masterclipid>
                </multiclip>
              </clipitem>
              <clipitem id="cs-609">
                <duration>153</duration>
                <rate>
                  <ntsc>false</ntsc>
                  <timebase>25</timebase>
                </rate>
                <in>94235</in>
                <out>94387</out>
                <start>94235</start>
                <end>94387</end>
                <file id="src-3"/>
                <sourcetrack>
                  <mediatype>video</mediatype>
                  <trackindex>1</trackindex>
                </sourcetrack>
                <multiclip id="mcs-609">
                  <name>MCS-609</name>
                  <masterclipid>clip-master</masterclipid>
                  <collapsed>false</collapsed>
                  <angle>
                    <activevideoangle>false</activevideoangle>
                    <activeaudioangle>false</activeaudioangle>
                    <clip id="clip-1"/>
                  </angle>
                  <angle>
                    <activevideoangle>false</activevideoangle>
                    <activeaudioangle>false</activeaudioangle>
                    <clip id="clip-2"/>
                  </angle>
                  <angle>
                    <activevideoangle>true</activevideoangle>
                    <activeaudioangle>true</activeaudioangle>
                    <clip id="clip-3"/>
                  </angle>
                  <angle>
                    <activevideoangle>false</activevideoangle>
                    <activeaudioangle>false</activeaudioangle>
                    <clip id="clip-4"/>
                  </angle>
                  <angle>
                    <activevideoangle>false</activevideoangle>
                    <activeaudioangle>false</activeaudioangle>
                    <clip id="clip-5"/>
                  </angle>
                  <angle>
                    <activevideoangle>false</activevideoangle>
                    <activeaudioangle>false</activeaudioangle>
                    <clip id="clip-6"/>
                  </angle>
                  <angle>
                    <activevideoangle>false</activevideoangle>
                    <activeaudioangle>false</activeaudioangle>
                    <clip id="clip-7"/>
                  </angle>
                  <angle>
                    <activevideoangle>false</activevideoangle>
                    <activeaudioangle>false</activeaudioangle>
                    <clip id="clip-8"/>
                  </angle>
                  <angle>
                    <activevideoangle>false</activevideoangle>
                    <activeaudioangle>false</activeaudioangle>
                    <clip id="clip-9"/>
                  </angle>
                  <masterclipid>clip-master</masterclipid>
                </multiclip>
              </clipitem>
              <clipitem id="cs-610">
                <duration>74</duration>
                <rate>
                  <ntsc>false</ntsc>
                  <timebase>25</timebase>
                </rate>
                <in>94387</in>
                <out>94460</out>
                <start>94387</start>
                <end>94460</end>
                <file id="src-2"/>
                <sourcetrack>
                  <mediatype>video</mediatype>
                  <trackindex>1</trackindex>
                </sourcetrack>
                <multiclip id="mcs-610">
                  <name>MCS-610</name>
                  <masterclipid>clip-master</masterclipid>
                  <collapsed>false</collapsed>
                  <angle>
                    <activevideoangle>false</activevideoangle>
                    <activeaudioangle>false</activeaudioangle>
                    <clip id="clip-1"/>
                  </angle>
                  <angle>
                    <activevideoangle>true</activevideoangle>
                    <activeaudioangle>true</activeaudioangle>
                    <clip id="clip-2"/>
                  </angle>
                  <angle>
                    <activevideoangle>false</activevideoangle>
                    <activeaudioangle>false</activeaudioangle>
                    <clip id="clip-3"/>
                  </angle>
                  <angle>
                    <activevideoangle>false</activevideoangle>
                    <activeaudioangle>false</activeaudioangle>
                    <clip id="clip-4"/>
                  </angle>
                  <angle>
                    <activevideoangle>false</activevideoangle>
                    <activeaudioangle>false</activeaudioangle>
                    <clip id="clip-5"/>
                  </angle>
                  <angle>
                    <activevideoangle>false</activevideoangle>
                    <activeaudioangle>false</activeaudioangle>
                    <clip id="clip-6"/>
                  </angle>
                  <angle>
                    <activevideoangle>false</activevideoangle>
                    <activeaudioangle>false</activeaudioangle>
                    <clip id="clip-7"/>
                  </angle>
                  <angle>
                    <activevideoangle>false</activevideoangle>
                    <activeaudioangle>false</activeaudioangle>
                    <clip id="clip-8"/>
                  </angle>
                  <angle>
                    <activevideoangle>false</activevideoangle>
                    <activeaudioangle>false</activeaudioangle>
                    <clip id="clip-9"/>
                  </angle>
                  <masterclipid>clip-master</masterclipid>
                </multiclip>
              </clipitem>
              <clipitem id="cs-611">
                <duration>107</duration>
                <rate>
                  <ntsc>false</ntsc>
                  <timebase>25</timebase>
                </rate>
                <in>94460</in>
                <out>94566</out>
                <start>94460</start>
                <end>94566</end>
                <file id="src-3"/>
                <sourcetrack>
                  <mediatype>video</mediatype>
                  <trackindex>1</trackindex>
                </sourcetrack>
                <multiclip id="mcs-611">
                  <name>MCS-611</name>
                  <masterclipid>clip-master</masterclipid>
                  <collapsed>false</collapsed>
                  <angle>
                    <activevideoangle>false</activevideoangle>
                    <activeaudioangle>false</activeaudioangle>
                    <clip id="clip-1"/>
                  </angle>
                  <angle>
                    <activevideoangle>false</activevideoangle>
                    <activeaudioangle>false</activeaudioangle>
                    <clip id="clip-2"/>
                  </angle>
                  <angle>
                    <activevideoangle>true</activevideoangle>
                    <activeaudioangle>true</activeaudioangle>
                    <clip id="clip-3"/>
                  </angle>
                  <angle>
                    <activevideoangle>false</activevideoangle>
                    <activeaudioangle>false</activeaudioangle>
                    <clip id="clip-4"/>
                  </angle>
                  <angle>
                    <activevideoangle>false</activevideoangle>
                    <activeaudioangle>false</activeaudioangle>
                    <clip id="clip-5"/>
                  </angle>
                  <angle>
                    <activevideoangle>false</activevideoangle>
                    <activeaudioangle>false</activeaudioangle>
                    <clip id="clip-6"/>
                  </angle>
                  <angle>
                    <activevideoangle>false</activevideoangle>
                    <activeaudioangle>false</activeaudioangle>
                    <clip id="clip-7"/>
                  </angle>
                  <angle>
                    <activevideoangle>false</activevideoangle>
                    <activeaudioangle>false</activeaudioangle>
                    <clip id="clip-8"/>
                  </angle>
                  <angle>
                    <activevideoangle>false</activevideoangle>
                    <activeaudioangle>false</activeaudioangle>
                    <clip id="clip-9"/>
                  </angle>
                  <masterclipid>clip-master</masterclipid>
                </multiclip>
              </clipitem>
              <clipitem id="cs-612">
                <duration>63</duration>
                <rate>
                  <ntsc>false</ntsc>
                  <timebase>25</timebase>
                </rate>
                <in>94566</in>
                <out>94628</out>
                <start>94566</start>
                <end>94628</end>
                <file id="src-6"/>
                <sourcetrack>
                  <mediatype>video</mediatype>
                  <trackindex>1</trackindex>
                </sourcetrack>
                <multiclip id="mcs-612">
                  <name>MCS-612</name>
                  <masterclipid>clip-master</masterclipid>
                  <collapsed>false</collapsed>
                  <angle>
                    <activevideoangle>false</activevideoangle>
                    <activeaudioangle>false</activeaudioangle>
                    <clip id="clip-1"/>
                  </angle>
                  <angle>
                    <activevideoangle>false</activevideoangle>
                    <activeaudioangle>false</activeaudioangle>
                    <clip id="clip-2"/>
                  </angle>
                  <angle>
                    <activevideoangle>false</activevideoangle>
                    <activeaudioangle>false</activeaudioangle>
                    <clip id="clip-3"/>
                  </angle>
                  <angle>
                    <activevideoangle>false</activevideoangle>
                    <activeaudioangle>false</activeaudioangle>
                    <clip id="clip-4"/>
                  </angle>
                  <angle>
                    <activevideoangle>false</activevideoangle>
                    <activeaudioangle>false</activeaudioangle>
                    <clip id="clip-5"/>
                  </angle>
                  <angle>
                    <activevideoangle>true</activevideoangle>
                    <activeaudioangle>true</activeaudioangle>
                    <clip id="clip-6"/>
                  </angle>
                  <angle>
                    <activevideoangle>false</activevideoangle>
                    <activeaudioangle>false</activeaudioangle>
                    <clip id="clip-7"/>
                  </angle>
                  <angle>
                    <activevideoangle>false</activevideoangle>
                    <activeaudioangle>false</activeaudioangle>
                    <clip id="clip-8"/>
                  </angle>
                  <angle>
                    <activevideoangle>false</activevideoangle>
                    <activeaudioangle>false</activeaudioangle>
                    <clip id="clip-9"/>
                  </angle>
                  <masterclipid>clip-master</masterclipid>
                </multiclip>
              </clipitem>
              <clipitem id="cs-613">
                <duration>139</duration>
                <rate>
                  <ntsc>false</ntsc>
                  <timebase>25</timebase>
                </rate>
                <in>94628</in>
                <out>94766</out>
                <start>94628</start>
                <end>94766</end>
                <file id="src-2"/>
                <sourcetrack>
                  <mediatype>video</mediatype>
                  <trackindex>1</trackindex>
                </sourcetrack>
                <multiclip id="mcs-613">
                  <name>MCS-613</name>
                  <masterclipid>clip-master</masterclipid>
                  <collapsed>false</collapsed>
                  <angle>
                    <activevideoangle>false</activevideoangle>
                    <activeaudioangle>false</activeaudioangle>
                    <clip id="clip-1"/>
                  </angle>
                  <angle>
                    <activevideoangle>true</activevideoangle>
                    <activeaudioangle>true</activeaudioangle>
                    <clip id="clip-2"/>
                  </angle>
                  <angle>
                    <activevideoangle>false</activevideoangle>
                    <activeaudioangle>false</activeaudioangle>
                    <clip id="clip-3"/>
                  </angle>
                  <angle>
                    <activevideoangle>false</activevideoangle>
                    <activeaudioangle>false</activeaudioangle>
                    <clip id="clip-4"/>
                  </angle>
                  <angle>
                    <activevideoangle>false</activevideoangle>
                    <activeaudioangle>false</activeaudioangle>
                    <clip id="clip-5"/>
                  </angle>
                  <angle>
                    <activevideoangle>false</activevideoangle>
                    <activeaudioangle>false</activeaudioangle>
                    <clip id="clip-6"/>
                  </angle>
                  <angle>
                    <activevideoangle>false</activevideoangle>
                    <activeaudioangle>false</activeaudioangle>
                    <clip id="clip-7"/>
                  </angle>
                  <angle>
                    <activevideoangle>false</activevideoangle>
                    <activeaudioangle>false</activeaudioangle>
                    <clip id="clip-8"/>
                  </angle>
                  <angle>
                    <activevideoangle>false</activevideoangle>
                    <activeaudioangle>false</activeaudioangle>
                    <clip id="clip-9"/>
                  </angle>
                  <masterclipid>clip-master</masterclipid>
                </multiclip>
              </clipitem>
              <clipitem id="cs-614">
                <duration>178</duration>
                <rate>
                  <ntsc>false</ntsc>
                  <timebase>25</timebase>
                </rate>
                <in>94766</in>
                <out>94943</out>
                <start>94766</start>
                <end>94943</end>
                <file id="src-1"/>
                <sourcetrack>
                  <mediatype>video</mediatype>
                  <trackindex>1</trackindex>
                </sourcetrack>
                <multiclip id="mcs-614">
                  <name>MCS-614</name>
                  <masterclipid>clip-master</masterclipid>
                  <collapsed>false</collapsed>
                  <angle>
                    <activevideoangle>true</activevideoangle>
                    <activeaudioangle>true</activeaudioangle>
                    <clip id="clip-1"/>
                  </angle>
                  <angle>
                    <activevideoangle>false</activevideoangle>
                    <activeaudioangle>false</activeaudioangle>
                    <clip id="clip-2"/>
                  </angle>
                  <angle>
                    <activevideoangle>false</activevideoangle>
                    <activeaudioangle>false</activeaudioangle>
                    <clip id="clip-3"/>
                  </angle>
                  <angle>
                    <activevideoangle>false</activevideoangle>
                    <activeaudioangle>false</activeaudioangle>
                    <clip id="clip-4"/>
                  </angle>
                  <angle>
                    <activevideoangle>false</activevideoangle>
                    <activeaudioangle>false</activeaudioangle>
                    <clip id="clip-5"/>
                  </angle>
                  <angle>
                    <activevideoangle>false</activevideoangle>
                    <activeaudioangle>false</activeaudioangle>
                    <clip id="clip-6"/>
                  </angle>
                  <angle>
                    <activevideoangle>false</activevideoangle>
                    <activeaudioangle>false</activeaudioangle>
                    <clip id="clip-7"/>
                  </angle>
                  <angle>
                    <activevideoangle>false</activevideoangle>
                    <activeaudioangle>false</activeaudioangle>
                    <clip id="clip-8"/>
                  </angle>
                  <angle>
                    <activevideoangle>false</activevideoangle>
                    <activeaudioangle>false</activeaudioangle>
                    <clip id="clip-9"/>
                  </angle>
                  <masterclipid>clip-master</masterclipid>
                </multiclip>
              </clipitem>
              <clipitem id="cs-615">
                <duration>59</duration>
                <rate>
                  <ntsc>false</ntsc>
                  <timebase>25</timebase>
                </rate>
                <in>94943</in>
                <out>95001</out>
                <start>94943</start>
                <end>95001</end>
                <file id="src-3"/>
                <sourcetrack>
                  <mediatype>video</mediatype>
                  <trackindex>1</trackindex>
                </sourcetrack>
                <multiclip id="mcs-615">
                  <name>MCS-615</name>
                  <masterclipid>clip-master</masterclipid>
                  <collapsed>false</collapsed>
                  <angle>
                    <activevideoangle>false</activevideoangle>
                    <activeaudioangle>false</activeaudioangle>
                    <clip id="clip-1"/>
                  </angle>
                  <angle>
                    <activevideoangle>false</activevideoangle>
                    <activeaudioangle>false</activeaudioangle>
                    <clip id="clip-2"/>
                  </angle>
                  <angle>
                    <activevideoangle>true</activevideoangle>
                    <activeaudioangle>true</activeaudioangle>
                    <clip id="clip-3"/>
                  </angle>
                  <angle>
                    <activevideoangle>false</activevideoangle>
                    <activeaudioangle>false</activeaudioangle>
                    <clip id="clip-4"/>
                  </angle>
                  <angle>
                    <activevideoangle>false</activevideoangle>
                    <activeaudioangle>false</activeaudioangle>
                    <clip id="clip-5"/>
                  </angle>
                  <angle>
                    <activevideoangle>false</activevideoangle>
                    <activeaudioangle>false</activeaudioangle>
                    <clip id="clip-6"/>
                  </angle>
                  <angle>
                    <activevideoangle>false</activevideoangle>
                    <activeaudioangle>false</activeaudioangle>
                    <clip id="clip-7"/>
                  </angle>
                  <angle>
                    <activevideoangle>false</activevideoangle>
                    <activeaudioangle>false</activeaudioangle>
                    <clip id="clip-8"/>
                  </angle>
                  <angle>
                    <activevideoangle>false</activevideoangle>
                    <activeaudioangle>false</activeaudioangle>
                    <clip id="clip-9"/>
                  </angle>
                  <masterclipid>clip-master</masterclipid>
                </multiclip>
              </clipitem>
              <clipitem id="cs-616">
                <duration>252</duration>
                <rate>
                  <ntsc>false</ntsc>
                  <timebase>25</timebase>
                </rate>
                <in>95001</in>
                <out>95252</out>
                <start>95001</start>
                <end>95252</end>
                <file id="src-5"/>
                <sourcetrack>
                  <mediatype>video</mediatype>
                  <trackindex>1</trackindex>
                </sourcetrack>
                <multiclip id="mcs-616">
                  <name>MCS-616</name>
                  <masterclipid>clip-master</masterclipid>
                  <collapsed>false</collapsed>
                  <angle>
                    <activevideoangle>false</activevideoangle>
                    <activeaudioangle>false</activeaudioangle>
                    <clip id="clip-1"/>
                  </angle>
                  <angle>
                    <activevideoangle>false</activevideoangle>
                    <activeaudioangle>false</activeaudioangle>
                    <clip id="clip-2"/>
                  </angle>
                  <angle>
                    <activevideoangle>false</activevideoangle>
                    <activeaudioangle>false</activeaudioangle>
                    <clip id="clip-3"/>
                  </angle>
                  <angle>
                    <activevideoangle>false</activevideoangle>
                    <activeaudioangle>false</activeaudioangle>
                    <clip id="clip-4"/>
                  </angle>
                  <angle>
                    <activevideoangle>true</activevideoangle>
                    <activeaudioangle>true</activeaudioangle>
                    <clip id="clip-5"/>
                  </angle>
                  <angle>
                    <activevideoangle>false</activevideoangle>
                    <activeaudioangle>false</activeaudioangle>
                    <clip id="clip-6"/>
                  </angle>
                  <angle>
                    <activevideoangle>false</activevideoangle>
                    <activeaudioangle>false</activeaudioangle>
                    <clip id="clip-7"/>
                  </angle>
                  <angle>
                    <activevideoangle>false</activevideoangle>
                    <activeaudioangle>false</activeaudioangle>
                    <clip id="clip-8"/>
                  </angle>
                  <angle>
                    <activevideoangle>false</activevideoangle>
                    <activeaudioangle>false</activeaudioangle>
                    <clip id="clip-9"/>
                  </angle>
                  <masterclipid>clip-master</masterclipid>
                </multiclip>
              </clipitem>
              <clipitem id="cs-617">
                <duration>79</duration>
                <rate>
                  <ntsc>false</ntsc>
                  <timebase>25</timebase>
                </rate>
                <in>95252</in>
                <out>95330</out>
                <start>95252</start>
                <end>95330</end>
                <file id="src-4"/>
                <sourcetrack>
                  <mediatype>video</mediatype>
                  <trackindex>1</trackindex>
                </sourcetrack>
                <multiclip id="mcs-617">
                  <name>MCS-617</name>
                  <masterclipid>clip-master</masterclipid>
                  <collapsed>false</collapsed>
                  <angle>
                    <activevideoangle>false</activevideoangle>
                    <activeaudioangle>false</activeaudioangle>
                    <clip id="clip-1"/>
                  </angle>
                  <angle>
                    <activevideoangle>false</activevideoangle>
                    <activeaudioangle>false</activeaudioangle>
                    <clip id="clip-2"/>
                  </angle>
                  <angle>
                    <activevideoangle>false</activevideoangle>
                    <activeaudioangle>false</activeaudioangle>
                    <clip id="clip-3"/>
                  </angle>
                  <angle>
                    <activevideoangle>true</activevideoangle>
                    <activeaudioangle>true</activeaudioangle>
                    <clip id="clip-4"/>
                  </angle>
                  <angle>
                    <activevideoangle>false</activevideoangle>
                    <activeaudioangle>false</activeaudioangle>
                    <clip id="clip-5"/>
                  </angle>
                  <angle>
                    <activevideoangle>false</activevideoangle>
                    <activeaudioangle>false</activeaudioangle>
                    <clip id="clip-6"/>
                  </angle>
                  <angle>
                    <activevideoangle>false</activevideoangle>
                    <activeaudioangle>false</activeaudioangle>
                    <clip id="clip-7"/>
                  </angle>
                  <angle>
                    <activevideoangle>false</activevideoangle>
                    <activeaudioangle>false</activeaudioangle>
                    <clip id="clip-8"/>
                  </angle>
                  <angle>
                    <activevideoangle>false</activevideoangle>
                    <activeaudioangle>false</activeaudioangle>
                    <clip id="clip-9"/>
                  </angle>
                  <masterclipid>clip-master</masterclipid>
                </multiclip>
              </clipitem>
              <clipitem id="cs-618">
                <duration>60</duration>
                <rate>
                  <ntsc>false</ntsc>
                  <timebase>25</timebase>
                </rate>
                <in>95330</in>
                <out>95389</out>
                <start>95330</start>
                <end>95389</end>
                <file id="src-2"/>
                <sourcetrack>
                  <mediatype>video</mediatype>
                  <trackindex>1</trackindex>
                </sourcetrack>
                <multiclip id="mcs-618">
                  <name>MCS-618</name>
                  <masterclipid>clip-master</masterclipid>
                  <collapsed>false</collapsed>
                  <angle>
                    <activevideoangle>false</activevideoangle>
                    <activeaudioangle>false</activeaudioangle>
                    <clip id="clip-1"/>
                  </angle>
                  <angle>
                    <activevideoangle>true</activevideoangle>
                    <activeaudioangle>true</activeaudioangle>
                    <clip id="clip-2"/>
                  </angle>
                  <angle>
                    <activevideoangle>false</activevideoangle>
                    <activeaudioangle>false</activeaudioangle>
                    <clip id="clip-3"/>
                  </angle>
                  <angle>
                    <activevideoangle>false</activevideoangle>
                    <activeaudioangle>false</activeaudioangle>
                    <clip id="clip-4"/>
                  </angle>
                  <angle>
                    <activevideoangle>false</activevideoangle>
                    <activeaudioangle>false</activeaudioangle>
                    <clip id="clip-5"/>
                  </angle>
                  <angle>
                    <activevideoangle>false</activevideoangle>
                    <activeaudioangle>false</activeaudioangle>
                    <clip id="clip-6"/>
                  </angle>
                  <angle>
                    <activevideoangle>false</activevideoangle>
                    <activeaudioangle>false</activeaudioangle>
                    <clip id="clip-7"/>
                  </angle>
                  <angle>
                    <activevideoangle>false</activevideoangle>
                    <activeaudioangle>false</activeaudioangle>
                    <clip id="clip-8"/>
                  </angle>
                  <angle>
                    <activevideoangle>false</activevideoangle>
                    <activeaudioangle>false</activeaudioangle>
                    <clip id="clip-9"/>
                  </angle>
                  <masterclipid>clip-master</masterclipid>
                </multiclip>
              </clipitem>
              <clipitem id="cs-619">
                <duration>70</duration>
                <rate>
                  <ntsc>false</ntsc>
                  <timebase>25</timebase>
                </rate>
                <in>95389</in>
                <out>95458</out>
                <start>95389</start>
                <end>95458</end>
                <file id="src-6"/>
                <sourcetrack>
                  <mediatype>video</mediatype>
                  <trackindex>1</trackindex>
                </sourcetrack>
                <multiclip id="mcs-619">
                  <name>MCS-619</name>
                  <masterclipid>clip-master</masterclipid>
                  <collapsed>false</collapsed>
                  <angle>
                    <activevideoangle>false</activevideoangle>
                    <activeaudioangle>false</activeaudioangle>
                    <clip id="clip-1"/>
                  </angle>
                  <angle>
                    <activevideoangle>false</activevideoangle>
                    <activeaudioangle>false</activeaudioangle>
                    <clip id="clip-2"/>
                  </angle>
                  <angle>
                    <activevideoangle>false</activevideoangle>
                    <activeaudioangle>false</activeaudioangle>
                    <clip id="clip-3"/>
                  </angle>
                  <angle>
                    <activevideoangle>false</activevideoangle>
                    <activeaudioangle>false</activeaudioangle>
                    <clip id="clip-4"/>
                  </angle>
                  <angle>
                    <activevideoangle>false</activevideoangle>
                    <activeaudioangle>false</activeaudioangle>
                    <clip id="clip-5"/>
                  </angle>
                  <angle>
                    <activevideoangle>true</activevideoangle>
                    <activeaudioangle>true</activeaudioangle>
                    <clip id="clip-6"/>
                  </angle>
                  <angle>
                    <activevideoangle>false</activevideoangle>
                    <activeaudioangle>false</activeaudioangle>
                    <clip id="clip-7"/>
                  </angle>
                  <angle>
                    <activevideoangle>false</activevideoangle>
                    <activeaudioangle>false</activeaudioangle>
                    <clip id="clip-8"/>
                  </angle>
                  <angle>
                    <activevideoangle>false</activevideoangle>
                    <activeaudioangle>false</activeaudioangle>
                    <clip id="clip-9"/>
                  </angle>
                  <masterclipid>clip-master</masterclipid>
                </multiclip>
              </clipitem>
              <clipitem id="cs-620">
                <duration>58</duration>
                <rate>
                  <ntsc>false</ntsc>
                  <timebase>25</timebase>
                </rate>
                <in>95458</in>
                <out>95515</out>
                <start>95458</start>
                <end>95515</end>
                <file id="src-3"/>
                <sourcetrack>
                  <mediatype>video</mediatype>
                  <trackindex>1</trackindex>
                </sourcetrack>
                <multiclip id="mcs-620">
                  <name>MCS-620</name>
                  <masterclipid>clip-master</masterclipid>
                  <collapsed>false</collapsed>
                  <angle>
                    <activevideoangle>false</activevideoangle>
                    <activeaudioangle>false</activeaudioangle>
                    <clip id="clip-1"/>
                  </angle>
                  <angle>
                    <activevideoangle>false</activevideoangle>
                    <activeaudioangle>false</activeaudioangle>
                    <clip id="clip-2"/>
                  </angle>
                  <angle>
                    <activevideoangle>true</activevideoangle>
                    <activeaudioangle>true</activeaudioangle>
                    <clip id="clip-3"/>
                  </angle>
                  <angle>
                    <activevideoangle>false</activevideoangle>
                    <activeaudioangle>false</activeaudioangle>
                    <clip id="clip-4"/>
                  </angle>
                  <angle>
                    <activevideoangle>false</activevideoangle>
                    <activeaudioangle>false</activeaudioangle>
                    <clip id="clip-5"/>
                  </angle>
                  <angle>
                    <activevideoangle>false</activevideoangle>
                    <activeaudioangle>false</activeaudioangle>
                    <clip id="clip-6"/>
                  </angle>
                  <angle>
                    <activevideoangle>false</activevideoangle>
                    <activeaudioangle>false</activeaudioangle>
                    <clip id="clip-7"/>
                  </angle>
                  <angle>
                    <activevideoangle>false</activevideoangle>
                    <activeaudioangle>false</activeaudioangle>
                    <clip id="clip-8"/>
                  </angle>
                  <angle>
                    <activevideoangle>false</activevideoangle>
                    <activeaudioangle>false</activeaudioangle>
                    <clip id="clip-9"/>
                  </angle>
                  <masterclipid>clip-master</masterclipid>
                </multiclip>
              </clipitem>
              <clipitem id="cs-621">
                <duration>62</duration>
                <rate>
                  <ntsc>false</ntsc>
                  <timebase>25</timebase>
                </rate>
                <in>95515</in>
                <out>95576</out>
                <start>95515</start>
                <end>95576</end>
                <file id="src-4"/>
                <sourcetrack>
                  <mediatype>video</mediatype>
                  <trackindex>1</trackindex>
                </sourcetrack>
                <multiclip id="mcs-621">
                  <name>MCS-621</name>
                  <masterclipid>clip-master</masterclipid>
                  <collapsed>false</collapsed>
                  <angle>
                    <activevideoangle>false</activevideoangle>
                    <activeaudioangle>false</activeaudioangle>
                    <clip id="clip-1"/>
                  </angle>
                  <angle>
                    <activevideoangle>false</activevideoangle>
                    <activeaudioangle>false</activeaudioangle>
                    <clip id="clip-2"/>
                  </angle>
                  <angle>
                    <activevideoangle>false</activevideoangle>
                    <activeaudioangle>false</activeaudioangle>
                    <clip id="clip-3"/>
                  </angle>
                  <angle>
                    <activevideoangle>true</activevideoangle>
                    <activeaudioangle>true</activeaudioangle>
                    <clip id="clip-4"/>
                  </angle>
                  <angle>
                    <activevideoangle>false</activevideoangle>
                    <activeaudioangle>false</activeaudioangle>
                    <clip id="clip-5"/>
                  </angle>
                  <angle>
                    <activevideoangle>false</activevideoangle>
                    <activeaudioangle>false</activeaudioangle>
                    <clip id="clip-6"/>
                  </angle>
                  <angle>
                    <activevideoangle>false</activevideoangle>
                    <activeaudioangle>false</activeaudioangle>
                    <clip id="clip-7"/>
                  </angle>
                  <angle>
                    <activevideoangle>false</activevideoangle>
                    <activeaudioangle>false</activeaudioangle>
                    <clip id="clip-8"/>
                  </angle>
                  <angle>
                    <activevideoangle>false</activevideoangle>
                    <activeaudioangle>false</activeaudioangle>
                    <clip id="clip-9"/>
                  </angle>
                  <masterclipid>clip-master</masterclipid>
                </multiclip>
              </clipitem>
              <clipitem id="cs-622">
                <duration>60</duration>
                <rate>
                  <ntsc>false</ntsc>
                  <timebase>25</timebase>
                </rate>
                <in>95576</in>
                <out>95635</out>
                <start>95576</start>
                <end>95635</end>
                <file id="src-2"/>
                <sourcetrack>
                  <mediatype>video</mediatype>
                  <trackindex>1</trackindex>
                </sourcetrack>
                <multiclip id="mcs-622">
                  <name>MCS-622</name>
                  <masterclipid>clip-master</masterclipid>
                  <collapsed>false</collapsed>
                  <angle>
                    <activevideoangle>false</activevideoangle>
                    <activeaudioangle>false</activeaudioangle>
                    <clip id="clip-1"/>
                  </angle>
                  <angle>
                    <activevideoangle>true</activevideoangle>
                    <activeaudioangle>true</activeaudioangle>
                    <clip id="clip-2"/>
                  </angle>
                  <angle>
                    <activevideoangle>false</activevideoangle>
                    <activeaudioangle>false</activeaudioangle>
                    <clip id="clip-3"/>
                  </angle>
                  <angle>
                    <activevideoangle>false</activevideoangle>
                    <activeaudioangle>false</activeaudioangle>
                    <clip id="clip-4"/>
                  </angle>
                  <angle>
                    <activevideoangle>false</activevideoangle>
                    <activeaudioangle>false</activeaudioangle>
                    <clip id="clip-5"/>
                  </angle>
                  <angle>
                    <activevideoangle>false</activevideoangle>
                    <activeaudioangle>false</activeaudioangle>
                    <clip id="clip-6"/>
                  </angle>
                  <angle>
                    <activevideoangle>false</activevideoangle>
                    <activeaudioangle>false</activeaudioangle>
                    <clip id="clip-7"/>
                  </angle>
                  <angle>
                    <activevideoangle>false</activevideoangle>
                    <activeaudioangle>false</activeaudioangle>
                    <clip id="clip-8"/>
                  </angle>
                  <angle>
                    <activevideoangle>false</activevideoangle>
                    <activeaudioangle>false</activeaudioangle>
                    <clip id="clip-9"/>
                  </angle>
                  <masterclipid>clip-master</masterclipid>
                </multiclip>
              </clipitem>
              <clipitem id="cs-623">
                <duration>66</duration>
                <rate>
                  <ntsc>false</ntsc>
                  <timebase>25</timebase>
                </rate>
                <in>95635</in>
                <out>95700</out>
                <start>95635</start>
                <end>95700</end>
                <file id="src-6"/>
                <sourcetrack>
                  <mediatype>video</mediatype>
                  <trackindex>1</trackindex>
                </sourcetrack>
                <multiclip id="mcs-623">
                  <name>MCS-623</name>
                  <masterclipid>clip-master</masterclipid>
                  <collapsed>false</collapsed>
                  <angle>
                    <activevideoangle>false</activevideoangle>
                    <activeaudioangle>false</activeaudioangle>
                    <clip id="clip-1"/>
                  </angle>
                  <angle>
                    <activevideoangle>false</activevideoangle>
                    <activeaudioangle>false</activeaudioangle>
                    <clip id="clip-2"/>
                  </angle>
                  <angle>
                    <activevideoangle>false</activevideoangle>
                    <activeaudioangle>false</activeaudioangle>
                    <clip id="clip-3"/>
                  </angle>
                  <angle>
                    <activevideoangle>false</activevideoangle>
                    <activeaudioangle>false</activeaudioangle>
                    <clip id="clip-4"/>
                  </angle>
                  <angle>
                    <activevideoangle>false</activevideoangle>
                    <activeaudioangle>false</activeaudioangle>
                    <clip id="clip-5"/>
                  </angle>
                  <angle>
                    <activevideoangle>true</activevideoangle>
                    <activeaudioangle>true</activeaudioangle>
                    <clip id="clip-6"/>
                  </angle>
                  <angle>
                    <activevideoangle>false</activevideoangle>
                    <activeaudioangle>false</activeaudioangle>
                    <clip id="clip-7"/>
                  </angle>
                  <angle>
                    <activevideoangle>false</activevideoangle>
                    <activeaudioangle>false</activeaudioangle>
                    <clip id="clip-8"/>
                  </angle>
                  <angle>
                    <activevideoangle>false</activevideoangle>
                    <activeaudioangle>false</activeaudioangle>
                    <clip id="clip-9"/>
                  </angle>
                  <masterclipid>clip-master</masterclipid>
                </multiclip>
              </clipitem>
              <clipitem id="cs-624">
                <duration>125</duration>
                <rate>
                  <ntsc>false</ntsc>
                  <timebase>25</timebase>
                </rate>
                <in>95700</in>
                <out>95824</out>
                <start>95700</start>
                <end>95824</end>
                <file id="src-4"/>
                <sourcetrack>
                  <mediatype>video</mediatype>
                  <trackindex>1</trackindex>
                </sourcetrack>
                <multiclip id="mcs-624">
                  <name>MCS-624</name>
                  <masterclipid>clip-master</masterclipid>
                  <collapsed>false</collapsed>
                  <angle>
                    <activevideoangle>false</activevideoangle>
                    <activeaudioangle>false</activeaudioangle>
                    <clip id="clip-1"/>
                  </angle>
                  <angle>
                    <activevideoangle>false</activevideoangle>
                    <activeaudioangle>false</activeaudioangle>
                    <clip id="clip-2"/>
                  </angle>
                  <angle>
                    <activevideoangle>false</activevideoangle>
                    <activeaudioangle>false</activeaudioangle>
                    <clip id="clip-3"/>
                  </angle>
                  <angle>
                    <activevideoangle>true</activevideoangle>
                    <activeaudioangle>true</activeaudioangle>
                    <clip id="clip-4"/>
                  </angle>
                  <angle>
                    <activevideoangle>false</activevideoangle>
                    <activeaudioangle>false</activeaudioangle>
                    <clip id="clip-5"/>
                  </angle>
                  <angle>
                    <activevideoangle>false</activevideoangle>
                    <activeaudioangle>false</activeaudioangle>
                    <clip id="clip-6"/>
                  </angle>
                  <angle>
                    <activevideoangle>false</activevideoangle>
                    <activeaudioangle>false</activeaudioangle>
                    <clip id="clip-7"/>
                  </angle>
                  <angle>
                    <activevideoangle>false</activevideoangle>
                    <activeaudioangle>false</activeaudioangle>
                    <clip id="clip-8"/>
                  </angle>
                  <angle>
                    <activevideoangle>false</activevideoangle>
                    <activeaudioangle>false</activeaudioangle>
                    <clip id="clip-9"/>
                  </angle>
                  <masterclipid>clip-master</masterclipid>
                </multiclip>
              </clipitem>
              <clipitem id="cs-625">
                <duration>67</duration>
                <rate>
                  <ntsc>false</ntsc>
                  <timebase>25</timebase>
                </rate>
                <in>95824</in>
                <out>95890</out>
                <start>95824</start>
                <end>95890</end>
                <file id="src-6"/>
                <sourcetrack>
                  <mediatype>video</mediatype>
                  <trackindex>1</trackindex>
                </sourcetrack>
                <multiclip id="mcs-625">
                  <name>MCS-625</name>
                  <masterclipid>clip-master</masterclipid>
                  <collapsed>false</collapsed>
                  <angle>
                    <activevideoangle>false</activevideoangle>
                    <activeaudioangle>false</activeaudioangle>
                    <clip id="clip-1"/>
                  </angle>
                  <angle>
                    <activevideoangle>false</activevideoangle>
                    <activeaudioangle>false</activeaudioangle>
                    <clip id="clip-2"/>
                  </angle>
                  <angle>
                    <activevideoangle>false</activevideoangle>
                    <activeaudioangle>false</activeaudioangle>
                    <clip id="clip-3"/>
                  </angle>
                  <angle>
                    <activevideoangle>false</activevideoangle>
                    <activeaudioangle>false</activeaudioangle>
                    <clip id="clip-4"/>
                  </angle>
                  <angle>
                    <activevideoangle>false</activevideoangle>
                    <activeaudioangle>false</activeaudioangle>
                    <clip id="clip-5"/>
                  </angle>
                  <angle>
                    <activevideoangle>true</activevideoangle>
                    <activeaudioangle>true</activeaudioangle>
                    <clip id="clip-6"/>
                  </angle>
                  <angle>
                    <activevideoangle>false</activevideoangle>
                    <activeaudioangle>false</activeaudioangle>
                    <clip id="clip-7"/>
                  </angle>
                  <angle>
                    <activevideoangle>false</activevideoangle>
                    <activeaudioangle>false</activeaudioangle>
                    <clip id="clip-8"/>
                  </angle>
                  <angle>
                    <activevideoangle>false</activevideoangle>
                    <activeaudioangle>false</activeaudioangle>
                    <clip id="clip-9"/>
                  </angle>
                  <masterclipid>clip-master</masterclipid>
                </multiclip>
              </clipitem>
              <clipitem id="cs-626">
                <duration>163</duration>
                <rate>
                  <ntsc>false</ntsc>
                  <timebase>25</timebase>
                </rate>
                <in>95890</in>
                <out>96052</out>
                <start>95890</start>
                <end>96052</end>
                <file id="src-2"/>
                <sourcetrack>
                  <mediatype>video</mediatype>
                  <trackindex>1</trackindex>
                </sourcetrack>
                <multiclip id="mcs-626">
                  <name>MCS-626</name>
                  <masterclipid>clip-master</masterclipid>
                  <collapsed>false</collapsed>
                  <angle>
                    <activevideoangle>false</activevideoangle>
                    <activeaudioangle>false</activeaudioangle>
                    <clip id="clip-1"/>
                  </angle>
                  <angle>
                    <activevideoangle>true</activevideoangle>
                    <activeaudioangle>true</activeaudioangle>
                    <clip id="clip-2"/>
                  </angle>
                  <angle>
                    <activevideoangle>false</activevideoangle>
                    <activeaudioangle>false</activeaudioangle>
                    <clip id="clip-3"/>
                  </angle>
                  <angle>
                    <activevideoangle>false</activevideoangle>
                    <activeaudioangle>false</activeaudioangle>
                    <clip id="clip-4"/>
                  </angle>
                  <angle>
                    <activevideoangle>false</activevideoangle>
                    <activeaudioangle>false</activeaudioangle>
                    <clip id="clip-5"/>
                  </angle>
                  <angle>
                    <activevideoangle>false</activevideoangle>
                    <activeaudioangle>false</activeaudioangle>
                    <clip id="clip-6"/>
                  </angle>
                  <angle>
                    <activevideoangle>false</activevideoangle>
                    <activeaudioangle>false</activeaudioangle>
                    <clip id="clip-7"/>
                  </angle>
                  <angle>
                    <activevideoangle>false</activevideoangle>
                    <activeaudioangle>false</activeaudioangle>
                    <clip id="clip-8"/>
                  </angle>
                  <angle>
                    <activevideoangle>false</activevideoangle>
                    <activeaudioangle>false</activeaudioangle>
                    <clip id="clip-9"/>
                  </angle>
                  <masterclipid>clip-master</masterclipid>
                </multiclip>
              </clipitem>
              <clipitem id="cs-627">
                <duration>90</duration>
                <rate>
                  <ntsc>false</ntsc>
                  <timebase>25</timebase>
                </rate>
                <in>96052</in>
                <out>96141</out>
                <start>96052</start>
                <end>96141</end>
                <file id="src-1"/>
                <sourcetrack>
                  <mediatype>video</mediatype>
                  <trackindex>1</trackindex>
                </sourcetrack>
                <multiclip id="mcs-627">
                  <name>MCS-627</name>
                  <masterclipid>clip-master</masterclipid>
                  <collapsed>false</collapsed>
                  <angle>
                    <activevideoangle>true</activevideoangle>
                    <activeaudioangle>true</activeaudioangle>
                    <clip id="clip-1"/>
                  </angle>
                  <angle>
                    <activevideoangle>false</activevideoangle>
                    <activeaudioangle>false</activeaudioangle>
                    <clip id="clip-2"/>
                  </angle>
                  <angle>
                    <activevideoangle>false</activevideoangle>
                    <activeaudioangle>false</activeaudioangle>
                    <clip id="clip-3"/>
                  </angle>
                  <angle>
                    <activevideoangle>false</activevideoangle>
                    <activeaudioangle>false</activeaudioangle>
                    <clip id="clip-4"/>
                  </angle>
                  <angle>
                    <activevideoangle>false</activevideoangle>
                    <activeaudioangle>false</activeaudioangle>
                    <clip id="clip-5"/>
                  </angle>
                  <angle>
                    <activevideoangle>false</activevideoangle>
                    <activeaudioangle>false</activeaudioangle>
                    <clip id="clip-6"/>
                  </angle>
                  <angle>
                    <activevideoangle>false</activevideoangle>
                    <activeaudioangle>false</activeaudioangle>
                    <clip id="clip-7"/>
                  </angle>
                  <angle>
                    <activevideoangle>false</activevideoangle>
                    <activeaudioangle>false</activeaudioangle>
                    <clip id="clip-8"/>
                  </angle>
                  <angle>
                    <activevideoangle>false</activevideoangle>
                    <activeaudioangle>false</activeaudioangle>
                    <clip id="clip-9"/>
                  </angle>
                  <masterclipid>clip-master</masterclipid>
                </multiclip>
              </clipitem>
              <clipitem id="cs-628">
                <duration>64</duration>
                <rate>
                  <ntsc>false</ntsc>
                  <timebase>25</timebase>
                </rate>
                <in>96141</in>
                <out>96204</out>
                <start>96141</start>
                <end>96204</end>
                <file id="src-4"/>
                <sourcetrack>
                  <mediatype>video</mediatype>
                  <trackindex>1</trackindex>
                </sourcetrack>
                <multiclip id="mcs-628">
                  <name>MCS-628</name>
                  <masterclipid>clip-master</masterclipid>
                  <collapsed>false</collapsed>
                  <angle>
                    <activevideoangle>false</activevideoangle>
                    <activeaudioangle>false</activeaudioangle>
                    <clip id="clip-1"/>
                  </angle>
                  <angle>
                    <activevideoangle>false</activevideoangle>
                    <activeaudioangle>false</activeaudioangle>
                    <clip id="clip-2"/>
                  </angle>
                  <angle>
                    <activevideoangle>false</activevideoangle>
                    <activeaudioangle>false</activeaudioangle>
                    <clip id="clip-3"/>
                  </angle>
                  <angle>
                    <activevideoangle>true</activevideoangle>
                    <activeaudioangle>true</activeaudioangle>
                    <clip id="clip-4"/>
                  </angle>
                  <angle>
                    <activevideoangle>false</activevideoangle>
                    <activeaudioangle>false</activeaudioangle>
                    <clip id="clip-5"/>
                  </angle>
                  <angle>
                    <activevideoangle>false</activevideoangle>
                    <activeaudioangle>false</activeaudioangle>
                    <clip id="clip-6"/>
                  </angle>
                  <angle>
                    <activevideoangle>false</activevideoangle>
                    <activeaudioangle>false</activeaudioangle>
                    <clip id="clip-7"/>
                  </angle>
                  <angle>
                    <activevideoangle>false</activevideoangle>
                    <activeaudioangle>false</activeaudioangle>
                    <clip id="clip-8"/>
                  </angle>
                  <angle>
                    <activevideoangle>false</activevideoangle>
                    <activeaudioangle>false</activeaudioangle>
                    <clip id="clip-9"/>
                  </angle>
                  <masterclipid>clip-master</masterclipid>
                </multiclip>
              </clipitem>
              <clipitem id="cs-629">
                <duration>57</duration>
                <rate>
                  <ntsc>false</ntsc>
                  <timebase>25</timebase>
                </rate>
                <in>96204</in>
                <out>96260</out>
                <start>96204</start>
                <end>96260</end>
                <file id="src-3"/>
                <sourcetrack>
                  <mediatype>video</mediatype>
                  <trackindex>1</trackindex>
                </sourcetrack>
                <multiclip id="mcs-629">
                  <name>MCS-629</name>
                  <masterclipid>clip-master</masterclipid>
                  <collapsed>false</collapsed>
                  <angle>
                    <activevideoangle>false</activevideoangle>
                    <activeaudioangle>false</activeaudioangle>
                    <clip id="clip-1"/>
                  </angle>
                  <angle>
                    <activevideoangle>false</activevideoangle>
                    <activeaudioangle>false</activeaudioangle>
                    <clip id="clip-2"/>
                  </angle>
                  <angle>
                    <activevideoangle>true</activevideoangle>
                    <activeaudioangle>true</activeaudioangle>
                    <clip id="clip-3"/>
                  </angle>
                  <angle>
                    <activevideoangle>false</activevideoangle>
                    <activeaudioangle>false</activeaudioangle>
                    <clip id="clip-4"/>
                  </angle>
                  <angle>
                    <activevideoangle>false</activevideoangle>
                    <activeaudioangle>false</activeaudioangle>
                    <clip id="clip-5"/>
                  </angle>
                  <angle>
                    <activevideoangle>false</activevideoangle>
                    <activeaudioangle>false</activeaudioangle>
                    <clip id="clip-6"/>
                  </angle>
                  <angle>
                    <activevideoangle>false</activevideoangle>
                    <activeaudioangle>false</activeaudioangle>
                    <clip id="clip-7"/>
                  </angle>
                  <angle>
                    <activevideoangle>false</activevideoangle>
                    <activeaudioangle>false</activeaudioangle>
                    <clip id="clip-8"/>
                  </angle>
                  <angle>
                    <activevideoangle>false</activevideoangle>
                    <activeaudioangle>false</activeaudioangle>
                    <clip id="clip-9"/>
                  </angle>
                  <masterclipid>clip-master</masterclipid>
                </multiclip>
              </clipitem>
              <clipitem id="cs-630">
                <duration>276</duration>
                <rate>
                  <ntsc>false</ntsc>
                  <timebase>25</timebase>
                </rate>
                <in>96260</in>
                <out>96535</out>
                <start>96260</start>
                <end>96535</end>
                <file id="src-2"/>
                <sourcetrack>
                  <mediatype>video</mediatype>
                  <trackindex>1</trackindex>
                </sourcetrack>
                <multiclip id="mcs-630">
                  <name>MCS-630</name>
                  <masterclipid>clip-master</masterclipid>
                  <collapsed>false</collapsed>
                  <angle>
                    <activevideoangle>false</activevideoangle>
                    <activeaudioangle>false</activeaudioangle>
                    <clip id="clip-1"/>
                  </angle>
                  <angle>
                    <activevideoangle>true</activevideoangle>
                    <activeaudioangle>true</activeaudioangle>
                    <clip id="clip-2"/>
                  </angle>
                  <angle>
                    <activevideoangle>false</activevideoangle>
                    <activeaudioangle>false</activeaudioangle>
                    <clip id="clip-3"/>
                  </angle>
                  <angle>
                    <activevideoangle>false</activevideoangle>
                    <activeaudioangle>false</activeaudioangle>
                    <clip id="clip-4"/>
                  </angle>
                  <angle>
                    <activevideoangle>false</activevideoangle>
                    <activeaudioangle>false</activeaudioangle>
                    <clip id="clip-5"/>
                  </angle>
                  <angle>
                    <activevideoangle>false</activevideoangle>
                    <activeaudioangle>false</activeaudioangle>
                    <clip id="clip-6"/>
                  </angle>
                  <angle>
                    <activevideoangle>false</activevideoangle>
                    <activeaudioangle>false</activeaudioangle>
                    <clip id="clip-7"/>
                  </angle>
                  <angle>
                    <activevideoangle>false</activevideoangle>
                    <activeaudioangle>false</activeaudioangle>
                    <clip id="clip-8"/>
                  </angle>
                  <angle>
                    <activevideoangle>false</activevideoangle>
                    <activeaudioangle>false</activeaudioangle>
                    <clip id="clip-9"/>
                  </angle>
                  <masterclipid>clip-master</masterclipid>
                </multiclip>
              </clipitem>
              <clipitem id="cs-631">
                <duration>65</duration>
                <rate>
                  <ntsc>false</ntsc>
                  <timebase>25</timebase>
                </rate>
                <in>96535</in>
                <out>96599</out>
                <start>96535</start>
                <end>96599</end>
                <file id="src-6"/>
                <sourcetrack>
                  <mediatype>video</mediatype>
                  <trackindex>1</trackindex>
                </sourcetrack>
                <multiclip id="mcs-631">
                  <name>MCS-631</name>
                  <masterclipid>clip-master</masterclipid>
                  <collapsed>false</collapsed>
                  <angle>
                    <activevideoangle>false</activevideoangle>
                    <activeaudioangle>false</activeaudioangle>
                    <clip id="clip-1"/>
                  </angle>
                  <angle>
                    <activevideoangle>false</activevideoangle>
                    <activeaudioangle>false</activeaudioangle>
                    <clip id="clip-2"/>
                  </angle>
                  <angle>
                    <activevideoangle>false</activevideoangle>
                    <activeaudioangle>false</activeaudioangle>
                    <clip id="clip-3"/>
                  </angle>
                  <angle>
                    <activevideoangle>false</activevideoangle>
                    <activeaudioangle>false</activeaudioangle>
                    <clip id="clip-4"/>
                  </angle>
                  <angle>
                    <activevideoangle>false</activevideoangle>
                    <activeaudioangle>false</activeaudioangle>
                    <clip id="clip-5"/>
                  </angle>
                  <angle>
                    <activevideoangle>true</activevideoangle>
                    <activeaudioangle>true</activeaudioangle>
                    <clip id="clip-6"/>
                  </angle>
                  <angle>
                    <activevideoangle>false</activevideoangle>
                    <activeaudioangle>false</activeaudioangle>
                    <clip id="clip-7"/>
                  </angle>
                  <angle>
                    <activevideoangle>false</activevideoangle>
                    <activeaudioangle>false</activeaudioangle>
                    <clip id="clip-8"/>
                  </angle>
                  <angle>
                    <activevideoangle>false</activevideoangle>
                    <activeaudioangle>false</activeaudioangle>
                    <clip id="clip-9"/>
                  </angle>
                  <masterclipid>clip-master</masterclipid>
                </multiclip>
              </clipitem>
              <clipitem id="cs-632">
                <duration>321</duration>
                <rate>
                  <ntsc>false</ntsc>
                  <timebase>25</timebase>
                </rate>
                <in>96599</in>
                <out>96919</out>
                <start>96599</start>
                <end>96919</end>
                <file id="src-4"/>
                <sourcetrack>
                  <mediatype>video</mediatype>
                  <trackindex>1</trackindex>
                </sourcetrack>
                <multiclip id="mcs-632">
                  <name>MCS-632</name>
                  <masterclipid>clip-master</masterclipid>
                  <collapsed>false</collapsed>
                  <angle>
                    <activevideoangle>false</activevideoangle>
                    <activeaudioangle>false</activeaudioangle>
                    <clip id="clip-1"/>
                  </angle>
                  <angle>
                    <activevideoangle>false</activevideoangle>
                    <activeaudioangle>false</activeaudioangle>
                    <clip id="clip-2"/>
                  </angle>
                  <angle>
                    <activevideoangle>false</activevideoangle>
                    <activeaudioangle>false</activeaudioangle>
                    <clip id="clip-3"/>
                  </angle>
                  <angle>
                    <activevideoangle>true</activevideoangle>
                    <activeaudioangle>true</activeaudioangle>
                    <clip id="clip-4"/>
                  </angle>
                  <angle>
                    <activevideoangle>false</activevideoangle>
                    <activeaudioangle>false</activeaudioangle>
                    <clip id="clip-5"/>
                  </angle>
                  <angle>
                    <activevideoangle>false</activevideoangle>
                    <activeaudioangle>false</activeaudioangle>
                    <clip id="clip-6"/>
                  </angle>
                  <angle>
                    <activevideoangle>false</activevideoangle>
                    <activeaudioangle>false</activeaudioangle>
                    <clip id="clip-7"/>
                  </angle>
                  <angle>
                    <activevideoangle>false</activevideoangle>
                    <activeaudioangle>false</activeaudioangle>
                    <clip id="clip-8"/>
                  </angle>
                  <angle>
                    <activevideoangle>false</activevideoangle>
                    <activeaudioangle>false</activeaudioangle>
                    <clip id="clip-9"/>
                  </angle>
                  <masterclipid>clip-master</masterclipid>
                </multiclip>
              </clipitem>
              <clipitem id="cs-633">
                <duration>89</duration>
                <rate>
                  <ntsc>false</ntsc>
                  <timebase>25</timebase>
                </rate>
                <in>96919</in>
                <out>97007</out>
                <start>96919</start>
                <end>97007</end>
                <file id="src-3"/>
                <sourcetrack>
                  <mediatype>video</mediatype>
                  <trackindex>1</trackindex>
                </sourcetrack>
                <multiclip id="mcs-633">
                  <name>MCS-633</name>
                  <masterclipid>clip-master</masterclipid>
                  <collapsed>false</collapsed>
                  <angle>
                    <activevideoangle>false</activevideoangle>
                    <activeaudioangle>false</activeaudioangle>
                    <clip id="clip-1"/>
                  </angle>
                  <angle>
                    <activevideoangle>false</activevideoangle>
                    <activeaudioangle>false</activeaudioangle>
                    <clip id="clip-2"/>
                  </angle>
                  <angle>
                    <activevideoangle>true</activevideoangle>
                    <activeaudioangle>true</activeaudioangle>
                    <clip id="clip-3"/>
                  </angle>
                  <angle>
                    <activevideoangle>false</activevideoangle>
                    <activeaudioangle>false</activeaudioangle>
                    <clip id="clip-4"/>
                  </angle>
                  <angle>
                    <activevideoangle>false</activevideoangle>
                    <activeaudioangle>false</activeaudioangle>
                    <clip id="clip-5"/>
                  </angle>
                  <angle>
                    <activevideoangle>false</activevideoangle>
                    <activeaudioangle>false</activeaudioangle>
                    <clip id="clip-6"/>
                  </angle>
                  <angle>
                    <activevideoangle>false</activevideoangle>
                    <activeaudioangle>false</activeaudioangle>
                    <clip id="clip-7"/>
                  </angle>
                  <angle>
                    <activevideoangle>false</activevideoangle>
                    <activeaudioangle>false</activeaudioangle>
                    <clip id="clip-8"/>
                  </angle>
                  <angle>
                    <activevideoangle>false</activevideoangle>
                    <activeaudioangle>false</activeaudioangle>
                    <clip id="clip-9"/>
                  </angle>
                  <masterclipid>clip-master</masterclipid>
                </multiclip>
              </clipitem>
              <clipitem id="cs-634">
                <duration>169</duration>
                <rate>
                  <ntsc>false</ntsc>
                  <timebase>25</timebase>
                </rate>
                <in>97007</in>
                <out>97175</out>
                <start>97007</start>
                <end>97175</end>
                <file id="src-2"/>
                <sourcetrack>
                  <mediatype>video</mediatype>
                  <trackindex>1</trackindex>
                </sourcetrack>
                <multiclip id="mcs-634">
                  <name>MCS-634</name>
                  <masterclipid>clip-master</masterclipid>
                  <collapsed>false</collapsed>
                  <angle>
                    <activevideoangle>false</activevideoangle>
                    <activeaudioangle>false</activeaudioangle>
                    <clip id="clip-1"/>
                  </angle>
                  <angle>
                    <activevideoangle>true</activevideoangle>
                    <activeaudioangle>true</activeaudioangle>
                    <clip id="clip-2"/>
                  </angle>
                  <angle>
                    <activevideoangle>false</activevideoangle>
                    <activeaudioangle>false</activeaudioangle>
                    <clip id="clip-3"/>
                  </angle>
                  <angle>
                    <activevideoangle>false</activevideoangle>
                    <activeaudioangle>false</activeaudioangle>
                    <clip id="clip-4"/>
                  </angle>
                  <angle>
                    <activevideoangle>false</activevideoangle>
                    <activeaudioangle>false</activeaudioangle>
                    <clip id="clip-5"/>
                  </angle>
                  <angle>
                    <activevideoangle>false</activevideoangle>
                    <activeaudioangle>false</activeaudioangle>
                    <clip id="clip-6"/>
                  </angle>
                  <angle>
                    <activevideoangle>false</activevideoangle>
                    <activeaudioangle>false</activeaudioangle>
                    <clip id="clip-7"/>
                  </angle>
                  <angle>
                    <activevideoangle>false</activevideoangle>
                    <activeaudioangle>false</activeaudioangle>
                    <clip id="clip-8"/>
                  </angle>
                  <angle>
                    <activevideoangle>false</activevideoangle>
                    <activeaudioangle>false</activeaudioangle>
                    <clip id="clip-9"/>
                  </angle>
                  <masterclipid>clip-master</masterclipid>
                </multiclip>
              </clipitem>
              <clipitem id="cs-635">
                <duration>92</duration>
                <rate>
                  <ntsc>false</ntsc>
                  <timebase>25</timebase>
                </rate>
                <in>97175</in>
                <out>97266</out>
                <start>97175</start>
                <end>97266</end>
                <file id="src-6"/>
                <sourcetrack>
                  <mediatype>video</mediatype>
                  <trackindex>1</trackindex>
                </sourcetrack>
                <multiclip id="mcs-635">
                  <name>MCS-635</name>
                  <masterclipid>clip-master</masterclipid>
                  <collapsed>false</collapsed>
                  <angle>
                    <activevideoangle>false</activevideoangle>
                    <activeaudioangle>false</activeaudioangle>
                    <clip id="clip-1"/>
                  </angle>
                  <angle>
                    <activevideoangle>false</activevideoangle>
                    <activeaudioangle>false</activeaudioangle>
                    <clip id="clip-2"/>
                  </angle>
                  <angle>
                    <activevideoangle>false</activevideoangle>
                    <activeaudioangle>false</activeaudioangle>
                    <clip id="clip-3"/>
                  </angle>
                  <angle>
                    <activevideoangle>false</activevideoangle>
                    <activeaudioangle>false</activeaudioangle>
                    <clip id="clip-4"/>
                  </angle>
                  <angle>
                    <activevideoangle>false</activevideoangle>
                    <activeaudioangle>false</activeaudioangle>
                    <clip id="clip-5"/>
                  </angle>
                  <angle>
                    <activevideoangle>true</activevideoangle>
                    <activeaudioangle>true</activeaudioangle>
                    <clip id="clip-6"/>
                  </angle>
                  <angle>
                    <activevideoangle>false</activevideoangle>
                    <activeaudioangle>false</activeaudioangle>
                    <clip id="clip-7"/>
                  </angle>
                  <angle>
                    <activevideoangle>false</activevideoangle>
                    <activeaudioangle>false</activeaudioangle>
                    <clip id="clip-8"/>
                  </angle>
                  <angle>
                    <activevideoangle>false</activevideoangle>
                    <activeaudioangle>false</activeaudioangle>
                    <clip id="clip-9"/>
                  </angle>
                  <masterclipid>clip-master</masterclipid>
                </multiclip>
              </clipitem>
              <clipitem id="cs-636">
                <duration>75</duration>
                <rate>
                  <ntsc>false</ntsc>
                  <timebase>25</timebase>
                </rate>
                <in>97266</in>
                <out>97340</out>
                <start>97266</start>
                <end>97340</end>
                <file id="src-3"/>
                <sourcetrack>
                  <mediatype>video</mediatype>
                  <trackindex>1</trackindex>
                </sourcetrack>
                <multiclip id="mcs-636">
                  <name>MCS-636</name>
                  <masterclipid>clip-master</masterclipid>
                  <collapsed>false</collapsed>
                  <angle>
                    <activevideoangle>false</activevideoangle>
                    <activeaudioangle>false</activeaudioangle>
                    <clip id="clip-1"/>
                  </angle>
                  <angle>
                    <activevideoangle>false</activevideoangle>
                    <activeaudioangle>false</activeaudioangle>
                    <clip id="clip-2"/>
                  </angle>
                  <angle>
                    <activevideoangle>true</activevideoangle>
                    <activeaudioangle>true</activeaudioangle>
                    <clip id="clip-3"/>
                  </angle>
                  <angle>
                    <activevideoangle>false</activevideoangle>
                    <activeaudioangle>false</activeaudioangle>
                    <clip id="clip-4"/>
                  </angle>
                  <angle>
                    <activevideoangle>false</activevideoangle>
                    <activeaudioangle>false</activeaudioangle>
                    <clip id="clip-5"/>
                  </angle>
                  <angle>
                    <activevideoangle>false</activevideoangle>
                    <activeaudioangle>false</activeaudioangle>
                    <clip id="clip-6"/>
                  </angle>
                  <angle>
                    <activevideoangle>false</activevideoangle>
                    <activeaudioangle>false</activeaudioangle>
                    <clip id="clip-7"/>
                  </angle>
                  <angle>
                    <activevideoangle>false</activevideoangle>
                    <activeaudioangle>false</activeaudioangle>
                    <clip id="clip-8"/>
                  </angle>
                  <angle>
                    <activevideoangle>false</activevideoangle>
                    <activeaudioangle>false</activeaudioangle>
                    <clip id="clip-9"/>
                  </angle>
                  <masterclipid>clip-master</masterclipid>
                </multiclip>
              </clipitem>
              <clipitem id="cs-637">
                <duration>167</duration>
                <rate>
                  <ntsc>false</ntsc>
                  <timebase>25</timebase>
                </rate>
                <in>97340</in>
                <out>97506</out>
                <start>97340</start>
                <end>97506</end>
                <file id="src-4"/>
                <sourcetrack>
                  <mediatype>video</mediatype>
                  <trackindex>1</trackindex>
                </sourcetrack>
                <multiclip id="mcs-637">
                  <name>MCS-637</name>
                  <masterclipid>clip-master</masterclipid>
                  <collapsed>false</collapsed>
                  <angle>
                    <activevideoangle>false</activevideoangle>
                    <activeaudioangle>false</activeaudioangle>
                    <clip id="clip-1"/>
                  </angle>
                  <angle>
                    <activevideoangle>false</activevideoangle>
                    <activeaudioangle>false</activeaudioangle>
                    <clip id="clip-2"/>
                  </angle>
                  <angle>
                    <activevideoangle>false</activevideoangle>
                    <activeaudioangle>false</activeaudioangle>
                    <clip id="clip-3"/>
                  </angle>
                  <angle>
                    <activevideoangle>true</activevideoangle>
                    <activeaudioangle>true</activeaudioangle>
                    <clip id="clip-4"/>
                  </angle>
                  <angle>
                    <activevideoangle>false</activevideoangle>
                    <activeaudioangle>false</activeaudioangle>
                    <clip id="clip-5"/>
                  </angle>
                  <angle>
                    <activevideoangle>false</activevideoangle>
                    <activeaudioangle>false</activeaudioangle>
                    <clip id="clip-6"/>
                  </angle>
                  <angle>
                    <activevideoangle>false</activevideoangle>
                    <activeaudioangle>false</activeaudioangle>
                    <clip id="clip-7"/>
                  </angle>
                  <angle>
                    <activevideoangle>false</activevideoangle>
                    <activeaudioangle>false</activeaudioangle>
                    <clip id="clip-8"/>
                  </angle>
                  <angle>
                    <activevideoangle>false</activevideoangle>
                    <activeaudioangle>false</activeaudioangle>
                    <clip id="clip-9"/>
                  </angle>
                  <masterclipid>clip-master</masterclipid>
                </multiclip>
              </clipitem>
              <clipitem id="cs-638">
                <duration>390</duration>
                <rate>
                  <ntsc>false</ntsc>
                  <timebase>25</timebase>
                </rate>
                <in>97506</in>
                <out>97895</out>
                <start>97506</start>
                <end>97895</end>
                <file id="src-1"/>
                <sourcetrack>
                  <mediatype>video</mediatype>
                  <trackindex>1</trackindex>
                </sourcetrack>
                <multiclip id="mcs-638">
                  <name>MCS-638</name>
                  <masterclipid>clip-master</masterclipid>
                  <collapsed>false</collapsed>
                  <angle>
                    <activevideoangle>true</activevideoangle>
                    <activeaudioangle>true</activeaudioangle>
                    <clip id="clip-1"/>
                  </angle>
                  <angle>
                    <activevideoangle>false</activevideoangle>
                    <activeaudioangle>false</activeaudioangle>
                    <clip id="clip-2"/>
                  </angle>
                  <angle>
                    <activevideoangle>false</activevideoangle>
                    <activeaudioangle>false</activeaudioangle>
                    <clip id="clip-3"/>
                  </angle>
                  <angle>
                    <activevideoangle>false</activevideoangle>
                    <activeaudioangle>false</activeaudioangle>
                    <clip id="clip-4"/>
                  </angle>
                  <angle>
                    <activevideoangle>false</activevideoangle>
                    <activeaudioangle>false</activeaudioangle>
                    <clip id="clip-5"/>
                  </angle>
                  <angle>
                    <activevideoangle>false</activevideoangle>
                    <activeaudioangle>false</activeaudioangle>
                    <clip id="clip-6"/>
                  </angle>
                  <angle>
                    <activevideoangle>false</activevideoangle>
                    <activeaudioangle>false</activeaudioangle>
                    <clip id="clip-7"/>
                  </angle>
                  <angle>
                    <activevideoangle>false</activevideoangle>
                    <activeaudioangle>false</activeaudioangle>
                    <clip id="clip-8"/>
                  </angle>
                  <angle>
                    <activevideoangle>false</activevideoangle>
                    <activeaudioangle>false</activeaudioangle>
                    <clip id="clip-9"/>
                  </angle>
                  <masterclipid>clip-master</masterclipid>
                </multiclip>
              </clipitem>
              <clipitem id="cs-639">
                <duration>60</duration>
                <rate>
                  <ntsc>false</ntsc>
                  <timebase>25</timebase>
                </rate>
                <in>97895</in>
                <out>97954</out>
                <start>97895</start>
                <end>97954</end>
                <file id="src-3"/>
                <sourcetrack>
                  <mediatype>video</mediatype>
                  <trackindex>1</trackindex>
                </sourcetrack>
                <multiclip id="mcs-639">
                  <name>MCS-639</name>
                  <masterclipid>clip-master</masterclipid>
                  <collapsed>false</collapsed>
                  <angle>
                    <activevideoangle>false</activevideoangle>
                    <activeaudioangle>false</activeaudioangle>
                    <clip id="clip-1"/>
                  </angle>
                  <angle>
                    <activevideoangle>false</activevideoangle>
                    <activeaudioangle>false</activeaudioangle>
                    <clip id="clip-2"/>
                  </angle>
                  <angle>
                    <activevideoangle>true</activevideoangle>
                    <activeaudioangle>true</activeaudioangle>
                    <clip id="clip-3"/>
                  </angle>
                  <angle>
                    <activevideoangle>false</activevideoangle>
                    <activeaudioangle>false</activeaudioangle>
                    <clip id="clip-4"/>
                  </angle>
                  <angle>
                    <activevideoangle>false</activevideoangle>
                    <activeaudioangle>false</activeaudioangle>
                    <clip id="clip-5"/>
                  </angle>
                  <angle>
                    <activevideoangle>false</activevideoangle>
                    <activeaudioangle>false</activeaudioangle>
                    <clip id="clip-6"/>
                  </angle>
                  <angle>
                    <activevideoangle>false</activevideoangle>
                    <activeaudioangle>false</activeaudioangle>
                    <clip id="clip-7"/>
                  </angle>
                  <angle>
                    <activevideoangle>false</activevideoangle>
                    <activeaudioangle>false</activeaudioangle>
                    <clip id="clip-8"/>
                  </angle>
                  <angle>
                    <activevideoangle>false</activevideoangle>
                    <activeaudioangle>false</activeaudioangle>
                    <clip id="clip-9"/>
                  </angle>
                  <masterclipid>clip-master</masterclipid>
                </multiclip>
              </clipitem>
              <clipitem id="cs-640">
                <duration>65</duration>
                <rate>
                  <ntsc>false</ntsc>
                  <timebase>25</timebase>
                </rate>
                <in>97954</in>
                <out>98018</out>
                <start>97954</start>
                <end>98018</end>
                <file id="src-2"/>
                <sourcetrack>
                  <mediatype>video</mediatype>
                  <trackindex>1</trackindex>
                </sourcetrack>
                <multiclip id="mcs-640">
                  <name>MCS-640</name>
                  <masterclipid>clip-master</masterclipid>
                  <collapsed>false</collapsed>
                  <angle>
                    <activevideoangle>false</activevideoangle>
                    <activeaudioangle>false</activeaudioangle>
                    <clip id="clip-1"/>
                  </angle>
                  <angle>
                    <activevideoangle>true</activevideoangle>
                    <activeaudioangle>true</activeaudioangle>
                    <clip id="clip-2"/>
                  </angle>
                  <angle>
                    <activevideoangle>false</activevideoangle>
                    <activeaudioangle>false</activeaudioangle>
                    <clip id="clip-3"/>
                  </angle>
                  <angle>
                    <activevideoangle>false</activevideoangle>
                    <activeaudioangle>false</activeaudioangle>
                    <clip id="clip-4"/>
                  </angle>
                  <angle>
                    <activevideoangle>false</activevideoangle>
                    <activeaudioangle>false</activeaudioangle>
                    <clip id="clip-5"/>
                  </angle>
                  <angle>
                    <activevideoangle>false</activevideoangle>
                    <activeaudioangle>false</activeaudioangle>
                    <clip id="clip-6"/>
                  </angle>
                  <angle>
                    <activevideoangle>false</activevideoangle>
                    <activeaudioangle>false</activeaudioangle>
                    <clip id="clip-7"/>
                  </angle>
                  <angle>
                    <activevideoangle>false</activevideoangle>
                    <activeaudioangle>false</activeaudioangle>
                    <clip id="clip-8"/>
                  </angle>
                  <angle>
                    <activevideoangle>false</activevideoangle>
                    <activeaudioangle>false</activeaudioangle>
                    <clip id="clip-9"/>
                  </angle>
                  <masterclipid>clip-master</masterclipid>
                </multiclip>
              </clipitem>
              <clipitem id="cs-641">
                <duration>190</duration>
                <rate>
                  <ntsc>false</ntsc>
                  <timebase>25</timebase>
                </rate>
                <in>98018</in>
                <out>98207</out>
                <start>98018</start>
                <end>98207</end>
                <file id="src-4"/>
                <sourcetrack>
                  <mediatype>video</mediatype>
                  <trackindex>1</trackindex>
                </sourcetrack>
                <multiclip id="mcs-641">
                  <name>MCS-641</name>
                  <masterclipid>clip-master</masterclipid>
                  <collapsed>false</collapsed>
                  <angle>
                    <activevideoangle>false</activevideoangle>
                    <activeaudioangle>false</activeaudioangle>
                    <clip id="clip-1"/>
                  </angle>
                  <angle>
                    <activevideoangle>false</activevideoangle>
                    <activeaudioangle>false</activeaudioangle>
                    <clip id="clip-2"/>
                  </angle>
                  <angle>
                    <activevideoangle>false</activevideoangle>
                    <activeaudioangle>false</activeaudioangle>
                    <clip id="clip-3"/>
                  </angle>
                  <angle>
                    <activevideoangle>true</activevideoangle>
                    <activeaudioangle>true</activeaudioangle>
                    <clip id="clip-4"/>
                  </angle>
                  <angle>
                    <activevideoangle>false</activevideoangle>
                    <activeaudioangle>false</activeaudioangle>
                    <clip id="clip-5"/>
                  </angle>
                  <angle>
                    <activevideoangle>false</activevideoangle>
                    <activeaudioangle>false</activeaudioangle>
                    <clip id="clip-6"/>
                  </angle>
                  <angle>
                    <activevideoangle>false</activevideoangle>
                    <activeaudioangle>false</activeaudioangle>
                    <clip id="clip-7"/>
                  </angle>
                  <angle>
                    <activevideoangle>false</activevideoangle>
                    <activeaudioangle>false</activeaudioangle>
                    <clip id="clip-8"/>
                  </angle>
                  <angle>
                    <activevideoangle>false</activevideoangle>
                    <activeaudioangle>false</activeaudioangle>
                    <clip id="clip-9"/>
                  </angle>
                  <masterclipid>clip-master</masterclipid>
                </multiclip>
              </clipitem>
              <clipitem id="cs-642">
                <duration>221</duration>
                <rate>
                  <ntsc>false</ntsc>
                  <timebase>25</timebase>
                </rate>
                <in>98207</in>
                <out>98427</out>
                <start>98207</start>
                <end>98427</end>
                <file id="src-2"/>
                <sourcetrack>
                  <mediatype>video</mediatype>
                  <trackindex>1</trackindex>
                </sourcetrack>
                <multiclip id="mcs-642">
                  <name>MCS-642</name>
                  <masterclipid>clip-master</masterclipid>
                  <collapsed>false</collapsed>
                  <angle>
                    <activevideoangle>false</activevideoangle>
                    <activeaudioangle>false</activeaudioangle>
                    <clip id="clip-1"/>
                  </angle>
                  <angle>
                    <activevideoangle>true</activevideoangle>
                    <activeaudioangle>true</activeaudioangle>
                    <clip id="clip-2"/>
                  </angle>
                  <angle>
                    <activevideoangle>false</activevideoangle>
                    <activeaudioangle>false</activeaudioangle>
                    <clip id="clip-3"/>
                  </angle>
                  <angle>
                    <activevideoangle>false</activevideoangle>
                    <activeaudioangle>false</activeaudioangle>
                    <clip id="clip-4"/>
                  </angle>
                  <angle>
                    <activevideoangle>false</activevideoangle>
                    <activeaudioangle>false</activeaudioangle>
                    <clip id="clip-5"/>
                  </angle>
                  <angle>
                    <activevideoangle>false</activevideoangle>
                    <activeaudioangle>false</activeaudioangle>
                    <clip id="clip-6"/>
                  </angle>
                  <angle>
                    <activevideoangle>false</activevideoangle>
                    <activeaudioangle>false</activeaudioangle>
                    <clip id="clip-7"/>
                  </angle>
                  <angle>
                    <activevideoangle>false</activevideoangle>
                    <activeaudioangle>false</activeaudioangle>
                    <clip id="clip-8"/>
                  </angle>
                  <angle>
                    <activevideoangle>false</activevideoangle>
                    <activeaudioangle>false</activeaudioangle>
                    <clip id="clip-9"/>
                  </angle>
                  <masterclipid>clip-master</masterclipid>
                </multiclip>
              </clipitem>
              <clipitem id="cs-643">
                <duration>121</duration>
                <rate>
                  <ntsc>false</ntsc>
                  <timebase>25</timebase>
                </rate>
                <in>98427</in>
                <out>98547</out>
                <start>98427</start>
                <end>98547</end>
                <file id="src-4"/>
                <sourcetrack>
                  <mediatype>video</mediatype>
                  <trackindex>1</trackindex>
                </sourcetrack>
                <multiclip id="mcs-643">
                  <name>MCS-643</name>
                  <masterclipid>clip-master</masterclipid>
                  <collapsed>false</collapsed>
                  <angle>
                    <activevideoangle>false</activevideoangle>
                    <activeaudioangle>false</activeaudioangle>
                    <clip id="clip-1"/>
                  </angle>
                  <angle>
                    <activevideoangle>false</activevideoangle>
                    <activeaudioangle>false</activeaudioangle>
                    <clip id="clip-2"/>
                  </angle>
                  <angle>
                    <activevideoangle>false</activevideoangle>
                    <activeaudioangle>false</activeaudioangle>
                    <clip id="clip-3"/>
                  </angle>
                  <angle>
                    <activevideoangle>true</activevideoangle>
                    <activeaudioangle>true</activeaudioangle>
                    <clip id="clip-4"/>
                  </angle>
                  <angle>
                    <activevideoangle>false</activevideoangle>
                    <activeaudioangle>false</activeaudioangle>
                    <clip id="clip-5"/>
                  </angle>
                  <angle>
                    <activevideoangle>false</activevideoangle>
                    <activeaudioangle>false</activeaudioangle>
                    <clip id="clip-6"/>
                  </angle>
                  <angle>
                    <activevideoangle>false</activevideoangle>
                    <activeaudioangle>false</activeaudioangle>
                    <clip id="clip-7"/>
                  </angle>
                  <angle>
                    <activevideoangle>false</activevideoangle>
                    <activeaudioangle>false</activeaudioangle>
                    <clip id="clip-8"/>
                  </angle>
                  <angle>
                    <activevideoangle>false</activevideoangle>
                    <activeaudioangle>false</activeaudioangle>
                    <clip id="clip-9"/>
                  </angle>
                  <masterclipid>clip-master</masterclipid>
                </multiclip>
              </clipitem>
              <clipitem id="cs-644">
                <duration>221</duration>
                <rate>
                  <ntsc>false</ntsc>
                  <timebase>25</timebase>
                </rate>
                <in>98547</in>
                <out>98767</out>
                <start>98547</start>
                <end>98767</end>
                <file id="src-2"/>
                <sourcetrack>
                  <mediatype>video</mediatype>
                  <trackindex>1</trackindex>
                </sourcetrack>
                <multiclip id="mcs-644">
                  <name>MCS-644</name>
                  <masterclipid>clip-master</masterclipid>
                  <collapsed>false</collapsed>
                  <angle>
                    <activevideoangle>false</activevideoangle>
                    <activeaudioangle>false</activeaudioangle>
                    <clip id="clip-1"/>
                  </angle>
                  <angle>
                    <activevideoangle>true</activevideoangle>
                    <activeaudioangle>true</activeaudioangle>
                    <clip id="clip-2"/>
                  </angle>
                  <angle>
                    <activevideoangle>false</activevideoangle>
                    <activeaudioangle>false</activeaudioangle>
                    <clip id="clip-3"/>
                  </angle>
                  <angle>
                    <activevideoangle>false</activevideoangle>
                    <activeaudioangle>false</activeaudioangle>
                    <clip id="clip-4"/>
                  </angle>
                  <angle>
                    <activevideoangle>false</activevideoangle>
                    <activeaudioangle>false</activeaudioangle>
                    <clip id="clip-5"/>
                  </angle>
                  <angle>
                    <activevideoangle>false</activevideoangle>
                    <activeaudioangle>false</activeaudioangle>
                    <clip id="clip-6"/>
                  </angle>
                  <angle>
                    <activevideoangle>false</activevideoangle>
                    <activeaudioangle>false</activeaudioangle>
                    <clip id="clip-7"/>
                  </angle>
                  <angle>
                    <activevideoangle>false</activevideoangle>
                    <activeaudioangle>false</activeaudioangle>
                    <clip id="clip-8"/>
                  </angle>
                  <angle>
                    <activevideoangle>false</activevideoangle>
                    <activeaudioangle>false</activeaudioangle>
                    <clip id="clip-9"/>
                  </angle>
                  <masterclipid>clip-master</masterclipid>
                </multiclip>
              </clipitem>
              <clipitem id="cs-645">
                <duration>275</duration>
                <rate>
                  <ntsc>false</ntsc>
                  <timebase>25</timebase>
                </rate>
                <in>98767</in>
                <out>99041</out>
                <start>98767</start>
                <end>99041</end>
                <file id="src-4"/>
                <sourcetrack>
                  <mediatype>video</mediatype>
                  <trackindex>1</trackindex>
                </sourcetrack>
                <multiclip id="mcs-645">
                  <name>MCS-645</name>
                  <masterclipid>clip-master</masterclipid>
                  <collapsed>false</collapsed>
                  <angle>
                    <activevideoangle>false</activevideoangle>
                    <activeaudioangle>false</activeaudioangle>
                    <clip id="clip-1"/>
                  </angle>
                  <angle>
                    <activevideoangle>false</activevideoangle>
                    <activeaudioangle>false</activeaudioangle>
                    <clip id="clip-2"/>
                  </angle>
                  <angle>
                    <activevideoangle>false</activevideoangle>
                    <activeaudioangle>false</activeaudioangle>
                    <clip id="clip-3"/>
                  </angle>
                  <angle>
                    <activevideoangle>true</activevideoangle>
                    <activeaudioangle>true</activeaudioangle>
                    <clip id="clip-4"/>
                  </angle>
                  <angle>
                    <activevideoangle>false</activevideoangle>
                    <activeaudioangle>false</activeaudioangle>
                    <clip id="clip-5"/>
                  </angle>
                  <angle>
                    <activevideoangle>false</activevideoangle>
                    <activeaudioangle>false</activeaudioangle>
                    <clip id="clip-6"/>
                  </angle>
                  <angle>
                    <activevideoangle>false</activevideoangle>
                    <activeaudioangle>false</activeaudioangle>
                    <clip id="clip-7"/>
                  </angle>
                  <angle>
                    <activevideoangle>false</activevideoangle>
                    <activeaudioangle>false</activeaudioangle>
                    <clip id="clip-8"/>
                  </angle>
                  <angle>
                    <activevideoangle>false</activevideoangle>
                    <activeaudioangle>false</activeaudioangle>
                    <clip id="clip-9"/>
                  </angle>
                  <masterclipid>clip-master</masterclipid>
                </multiclip>
              </clipitem>
              <clipitem id="cs-646">
                <duration>292</duration>
                <rate>
                  <ntsc>false</ntsc>
                  <timebase>25</timebase>
                </rate>
                <in>99041</in>
                <out>99332</out>
                <start>99041</start>
                <end>99332</end>
                <file id="src-2"/>
                <sourcetrack>
                  <mediatype>video</mediatype>
                  <trackindex>1</trackindex>
                </sourcetrack>
                <multiclip id="mcs-646">
                  <name>MCS-646</name>
                  <masterclipid>clip-master</masterclipid>
                  <collapsed>false</collapsed>
                  <angle>
                    <activevideoangle>false</activevideoangle>
                    <activeaudioangle>false</activeaudioangle>
                    <clip id="clip-1"/>
                  </angle>
                  <angle>
                    <activevideoangle>true</activevideoangle>
                    <activeaudioangle>true</activeaudioangle>
                    <clip id="clip-2"/>
                  </angle>
                  <angle>
                    <activevideoangle>false</activevideoangle>
                    <activeaudioangle>false</activeaudioangle>
                    <clip id="clip-3"/>
                  </angle>
                  <angle>
                    <activevideoangle>false</activevideoangle>
                    <activeaudioangle>false</activeaudioangle>
                    <clip id="clip-4"/>
                  </angle>
                  <angle>
                    <activevideoangle>false</activevideoangle>
                    <activeaudioangle>false</activeaudioangle>
                    <clip id="clip-5"/>
                  </angle>
                  <angle>
                    <activevideoangle>false</activevideoangle>
                    <activeaudioangle>false</activeaudioangle>
                    <clip id="clip-6"/>
                  </angle>
                  <angle>
                    <activevideoangle>false</activevideoangle>
                    <activeaudioangle>false</activeaudioangle>
                    <clip id="clip-7"/>
                  </angle>
                  <angle>
                    <activevideoangle>false</activevideoangle>
                    <activeaudioangle>false</activeaudioangle>
                    <clip id="clip-8"/>
                  </angle>
                  <angle>
                    <activevideoangle>false</activevideoangle>
                    <activeaudioangle>false</activeaudioangle>
                    <clip id="clip-9"/>
                  </angle>
                  <masterclipid>clip-master</masterclipid>
                </multiclip>
              </clipitem>
              <clipitem id="cs-647">
                <duration>170</duration>
                <rate>
                  <ntsc>false</ntsc>
                  <timebase>25</timebase>
                </rate>
                <in>99332</in>
                <out>99501</out>
                <start>99332</start>
                <end>99501</end>
                <file id="src-4"/>
                <sourcetrack>
                  <mediatype>video</mediatype>
                  <trackindex>1</trackindex>
                </sourcetrack>
                <multiclip id="mcs-647">
                  <name>MCS-647</name>
                  <masterclipid>clip-master</masterclipid>
                  <collapsed>false</collapsed>
                  <angle>
                    <activevideoangle>false</activevideoangle>
                    <activeaudioangle>false</activeaudioangle>
                    <clip id="clip-1"/>
                  </angle>
                  <angle>
                    <activevideoangle>false</activevideoangle>
                    <activeaudioangle>false</activeaudioangle>
                    <clip id="clip-2"/>
                  </angle>
                  <angle>
                    <activevideoangle>false</activevideoangle>
                    <activeaudioangle>false</activeaudioangle>
                    <clip id="clip-3"/>
                  </angle>
                  <angle>
                    <activevideoangle>true</activevideoangle>
                    <activeaudioangle>true</activeaudioangle>
                    <clip id="clip-4"/>
                  </angle>
                  <angle>
                    <activevideoangle>false</activevideoangle>
                    <activeaudioangle>false</activeaudioangle>
                    <clip id="clip-5"/>
                  </angle>
                  <angle>
                    <activevideoangle>false</activevideoangle>
                    <activeaudioangle>false</activeaudioangle>
                    <clip id="clip-6"/>
                  </angle>
                  <angle>
                    <activevideoangle>false</activevideoangle>
                    <activeaudioangle>false</activeaudioangle>
                    <clip id="clip-7"/>
                  </angle>
                  <angle>
                    <activevideoangle>false</activevideoangle>
                    <activeaudioangle>false</activeaudioangle>
                    <clip id="clip-8"/>
                  </angle>
                  <angle>
                    <activevideoangle>false</activevideoangle>
                    <activeaudioangle>false</activeaudioangle>
                    <clip id="clip-9"/>
                  </angle>
                  <masterclipid>clip-master</masterclipid>
                </multiclip>
              </clipitem>
              <clipitem id="cs-648">
                <duration>43</duration>
                <rate>
                  <ntsc>false</ntsc>
                  <timebase>25</timebase>
                </rate>
                <in>99501</in>
                <out>99543</out>
                <start>99501</start>
                <end>99543</end>
                <file id="src-3"/>
                <sourcetrack>
                  <mediatype>video</mediatype>
                  <trackindex>1</trackindex>
                </sourcetrack>
                <multiclip id="mcs-648">
                  <name>MCS-648</name>
                  <masterclipid>clip-master</masterclipid>
                  <collapsed>false</collapsed>
                  <angle>
                    <activevideoangle>false</activevideoangle>
                    <activeaudioangle>false</activeaudioangle>
                    <clip id="clip-1"/>
                  </angle>
                  <angle>
                    <activevideoangle>false</activevideoangle>
                    <activeaudioangle>false</activeaudioangle>
                    <clip id="clip-2"/>
                  </angle>
                  <angle>
                    <activevideoangle>true</activevideoangle>
                    <activeaudioangle>true</activeaudioangle>
                    <clip id="clip-3"/>
                  </angle>
                  <angle>
                    <activevideoangle>false</activevideoangle>
                    <activeaudioangle>false</activeaudioangle>
                    <clip id="clip-4"/>
                  </angle>
                  <angle>
                    <activevideoangle>false</activevideoangle>
                    <activeaudioangle>false</activeaudioangle>
                    <clip id="clip-5"/>
                  </angle>
                  <angle>
                    <activevideoangle>false</activevideoangle>
                    <activeaudioangle>false</activeaudioangle>
                    <clip id="clip-6"/>
                  </angle>
                  <angle>
                    <activevideoangle>false</activevideoangle>
                    <activeaudioangle>false</activeaudioangle>
                    <clip id="clip-7"/>
                  </angle>
                  <angle>
                    <activevideoangle>false</activevideoangle>
                    <activeaudioangle>false</activeaudioangle>
                    <clip id="clip-8"/>
                  </angle>
                  <angle>
                    <activevideoangle>false</activevideoangle>
                    <activeaudioangle>false</activeaudioangle>
                    <clip id="clip-9"/>
                  </angle>
                  <masterclipid>clip-master</masterclipid>
                </multiclip>
              </clipitem>
              <clipitem id="cs-649">
                <duration>197</duration>
                <rate>
                  <ntsc>false</ntsc>
                  <timebase>25</timebase>
                </rate>
                <in>99543</in>
                <out>99739</out>
                <start>99543</start>
                <end>99739</end>
                <file id="src-2"/>
                <sourcetrack>
                  <mediatype>video</mediatype>
                  <trackindex>1</trackindex>
                </sourcetrack>
                <multiclip id="mcs-649">
                  <name>MCS-649</name>
                  <masterclipid>clip-master</masterclipid>
                  <collapsed>false</collapsed>
                  <angle>
                    <activevideoangle>false</activevideoangle>
                    <activeaudioangle>false</activeaudioangle>
                    <clip id="clip-1"/>
                  </angle>
                  <angle>
                    <activevideoangle>true</activevideoangle>
                    <activeaudioangle>true</activeaudioangle>
                    <clip id="clip-2"/>
                  </angle>
                  <angle>
                    <activevideoangle>false</activevideoangle>
                    <activeaudioangle>false</activeaudioangle>
                    <clip id="clip-3"/>
                  </angle>
                  <angle>
                    <activevideoangle>false</activevideoangle>
                    <activeaudioangle>false</activeaudioangle>
                    <clip id="clip-4"/>
                  </angle>
                  <angle>
                    <activevideoangle>false</activevideoangle>
                    <activeaudioangle>false</activeaudioangle>
                    <clip id="clip-5"/>
                  </angle>
                  <angle>
                    <activevideoangle>false</activevideoangle>
                    <activeaudioangle>false</activeaudioangle>
                    <clip id="clip-6"/>
                  </angle>
                  <angle>
                    <activevideoangle>false</activevideoangle>
                    <activeaudioangle>false</activeaudioangle>
                    <clip id="clip-7"/>
                  </angle>
                  <angle>
                    <activevideoangle>false</activevideoangle>
                    <activeaudioangle>false</activeaudioangle>
                    <clip id="clip-8"/>
                  </angle>
                  <angle>
                    <activevideoangle>false</activevideoangle>
                    <activeaudioangle>false</activeaudioangle>
                    <clip id="clip-9"/>
                  </angle>
                  <masterclipid>clip-master</masterclipid>
                </multiclip>
              </clipitem>
              <clipitem id="cs-650">
                <duration>76</duration>
                <rate>
                  <ntsc>false</ntsc>
                  <timebase>25</timebase>
                </rate>
                <in>99739</in>
                <out>99814</out>
                <start>99739</start>
                <end>99814</end>
                <file id="src-4"/>
                <sourcetrack>
                  <mediatype>video</mediatype>
                  <trackindex>1</trackindex>
                </sourcetrack>
                <multiclip id="mcs-650">
                  <name>MCS-650</name>
                  <masterclipid>clip-master</masterclipid>
                  <collapsed>false</collapsed>
                  <angle>
                    <activevideoangle>false</activevideoangle>
                    <activeaudioangle>false</activeaudioangle>
                    <clip id="clip-1"/>
                  </angle>
                  <angle>
                    <activevideoangle>false</activevideoangle>
                    <activeaudioangle>false</activeaudioangle>
                    <clip id="clip-2"/>
                  </angle>
                  <angle>
                    <activevideoangle>false</activevideoangle>
                    <activeaudioangle>false</activeaudioangle>
                    <clip id="clip-3"/>
                  </angle>
                  <angle>
                    <activevideoangle>true</activevideoangle>
                    <activeaudioangle>true</activeaudioangle>
                    <clip id="clip-4"/>
                  </angle>
                  <angle>
                    <activevideoangle>false</activevideoangle>
                    <activeaudioangle>false</activeaudioangle>
                    <clip id="clip-5"/>
                  </angle>
                  <angle>
                    <activevideoangle>false</activevideoangle>
                    <activeaudioangle>false</activeaudioangle>
                    <clip id="clip-6"/>
                  </angle>
                  <angle>
                    <activevideoangle>false</activevideoangle>
                    <activeaudioangle>false</activeaudioangle>
                    <clip id="clip-7"/>
                  </angle>
                  <angle>
                    <activevideoangle>false</activevideoangle>
                    <activeaudioangle>false</activeaudioangle>
                    <clip id="clip-8"/>
                  </angle>
                  <angle>
                    <activevideoangle>false</activevideoangle>
                    <activeaudioangle>false</activeaudioangle>
                    <clip id="clip-9"/>
                  </angle>
                  <masterclipid>clip-master</masterclipid>
                </multiclip>
              </clipitem>
              <clipitem id="cs-651">
                <duration>780</duration>
                <rate>
                  <ntsc>false</ntsc>
                  <timebase>25</timebase>
                </rate>
                <in>99814</in>
                <out>100593</out>
                <start>99814</start>
                <end>100593</end>
                <file id="src-2"/>
                <sourcetrack>
                  <mediatype>video</mediatype>
                  <trackindex>1</trackindex>
                </sourcetrack>
                <multiclip id="mcs-651">
                  <name>MCS-651</name>
                  <masterclipid>clip-master</masterclipid>
                  <collapsed>false</collapsed>
                  <angle>
                    <activevideoangle>false</activevideoangle>
                    <activeaudioangle>false</activeaudioangle>
                    <clip id="clip-1"/>
                  </angle>
                  <angle>
                    <activevideoangle>true</activevideoangle>
                    <activeaudioangle>true</activeaudioangle>
                    <clip id="clip-2"/>
                  </angle>
                  <angle>
                    <activevideoangle>false</activevideoangle>
                    <activeaudioangle>false</activeaudioangle>
                    <clip id="clip-3"/>
                  </angle>
                  <angle>
                    <activevideoangle>false</activevideoangle>
                    <activeaudioangle>false</activeaudioangle>
                    <clip id="clip-4"/>
                  </angle>
                  <angle>
                    <activevideoangle>false</activevideoangle>
                    <activeaudioangle>false</activeaudioangle>
                    <clip id="clip-5"/>
                  </angle>
                  <angle>
                    <activevideoangle>false</activevideoangle>
                    <activeaudioangle>false</activeaudioangle>
                    <clip id="clip-6"/>
                  </angle>
                  <angle>
                    <activevideoangle>false</activevideoangle>
                    <activeaudioangle>false</activeaudioangle>
                    <clip id="clip-7"/>
                  </angle>
                  <angle>
                    <activevideoangle>false</activevideoangle>
                    <activeaudioangle>false</activeaudioangle>
                    <clip id="clip-8"/>
                  </angle>
                  <angle>
                    <activevideoangle>false</activevideoangle>
                    <activeaudioangle>false</activeaudioangle>
                    <clip id="clip-9"/>
                  </angle>
                  <masterclipid>clip-master</masterclipid>
                </multiclip>
              </clipitem>
              <clipitem id="cs-652">
                <duration>347</duration>
                <rate>
                  <ntsc>false</ntsc>
                  <timebase>25</timebase>
                </rate>
                <in>100593</in>
                <out>100939</out>
                <start>100593</start>
                <end>100939</end>
                <file id="src-4"/>
                <sourcetrack>
                  <mediatype>video</mediatype>
                  <trackindex>1</trackindex>
                </sourcetrack>
                <multiclip id="mcs-652">
                  <name>MCS-652</name>
                  <masterclipid>clip-master</masterclipid>
                  <collapsed>false</collapsed>
                  <angle>
                    <activevideoangle>false</activevideoangle>
                    <activeaudioangle>false</activeaudioangle>
                    <clip id="clip-1"/>
                  </angle>
                  <angle>
                    <activevideoangle>false</activevideoangle>
                    <activeaudioangle>false</activeaudioangle>
                    <clip id="clip-2"/>
                  </angle>
                  <angle>
                    <activevideoangle>false</activevideoangle>
                    <activeaudioangle>false</activeaudioangle>
                    <clip id="clip-3"/>
                  </angle>
                  <angle>
                    <activevideoangle>true</activevideoangle>
                    <activeaudioangle>true</activeaudioangle>
                    <clip id="clip-4"/>
                  </angle>
                  <angle>
                    <activevideoangle>false</activevideoangle>
                    <activeaudioangle>false</activeaudioangle>
                    <clip id="clip-5"/>
                  </angle>
                  <angle>
                    <activevideoangle>false</activevideoangle>
                    <activeaudioangle>false</activeaudioangle>
                    <clip id="clip-6"/>
                  </angle>
                  <angle>
                    <activevideoangle>false</activevideoangle>
                    <activeaudioangle>false</activeaudioangle>
                    <clip id="clip-7"/>
                  </angle>
                  <angle>
                    <activevideoangle>false</activevideoangle>
                    <activeaudioangle>false</activeaudioangle>
                    <clip id="clip-8"/>
                  </angle>
                  <angle>
                    <activevideoangle>false</activevideoangle>
                    <activeaudioangle>false</activeaudioangle>
                    <clip id="clip-9"/>
                  </angle>
                  <masterclipid>clip-master</masterclipid>
                </multiclip>
              </clipitem>
              <clipitem id="cs-653">
                <duration>37</duration>
                <rate>
                  <ntsc>false</ntsc>
                  <timebase>25</timebase>
                </rate>
                <in>100939</in>
                <out>100975</out>
                <start>100939</start>
                <end>100975</end>
                <file id="src-2"/>
                <sourcetrack>
                  <mediatype>video</mediatype>
                  <trackindex>1</trackindex>
                </sourcetrack>
                <multiclip id="mcs-653">
                  <name>MCS-653</name>
                  <masterclipid>clip-master</masterclipid>
                  <collapsed>false</collapsed>
                  <angle>
                    <activevideoangle>false</activevideoangle>
                    <activeaudioangle>false</activeaudioangle>
                    <clip id="clip-1"/>
                  </angle>
                  <angle>
                    <activevideoangle>true</activevideoangle>
                    <activeaudioangle>true</activeaudioangle>
                    <clip id="clip-2"/>
                  </angle>
                  <angle>
                    <activevideoangle>false</activevideoangle>
                    <activeaudioangle>false</activeaudioangle>
                    <clip id="clip-3"/>
                  </angle>
                  <angle>
                    <activevideoangle>false</activevideoangle>
                    <activeaudioangle>false</activeaudioangle>
                    <clip id="clip-4"/>
                  </angle>
                  <angle>
                    <activevideoangle>false</activevideoangle>
                    <activeaudioangle>false</activeaudioangle>
                    <clip id="clip-5"/>
                  </angle>
                  <angle>
                    <activevideoangle>false</activevideoangle>
                    <activeaudioangle>false</activeaudioangle>
                    <clip id="clip-6"/>
                  </angle>
                  <angle>
                    <activevideoangle>false</activevideoangle>
                    <activeaudioangle>false</activeaudioangle>
                    <clip id="clip-7"/>
                  </angle>
                  <angle>
                    <activevideoangle>false</activevideoangle>
                    <activeaudioangle>false</activeaudioangle>
                    <clip id="clip-8"/>
                  </angle>
                  <angle>
                    <activevideoangle>false</activevideoangle>
                    <activeaudioangle>false</activeaudioangle>
                    <clip id="clip-9"/>
                  </angle>
                  <masterclipid>clip-master</masterclipid>
                </multiclip>
              </clipitem>
              <clipitem id="cs-654">
                <duration>48</duration>
                <rate>
                  <ntsc>false</ntsc>
                  <timebase>25</timebase>
                </rate>
                <in>100975</in>
                <out>101022</out>
                <start>100975</start>
                <end>101022</end>
                <file id="src-8"/>
                <sourcetrack>
                  <mediatype>video</mediatype>
                  <trackindex>1</trackindex>
                </sourcetrack>
                <multiclip id="mcs-654">
                  <name>MCS-654</name>
                  <masterclipid>clip-master</masterclipid>
                  <collapsed>false</collapsed>
                  <angle>
                    <activevideoangle>false</activevideoangle>
                    <activeaudioangle>false</activeaudioangle>
                    <clip id="clip-1"/>
                  </angle>
                  <angle>
                    <activevideoangle>false</activevideoangle>
                    <activeaudioangle>false</activeaudioangle>
                    <clip id="clip-2"/>
                  </angle>
                  <angle>
                    <activevideoangle>false</activevideoangle>
                    <activeaudioangle>false</activeaudioangle>
                    <clip id="clip-3"/>
                  </angle>
                  <angle>
                    <activevideoangle>false</activevideoangle>
                    <activeaudioangle>false</activeaudioangle>
                    <clip id="clip-4"/>
                  </angle>
                  <angle>
                    <activevideoangle>false</activevideoangle>
                    <activeaudioangle>false</activeaudioangle>
                    <clip id="clip-5"/>
                  </angle>
                  <angle>
                    <activevideoangle>false</activevideoangle>
                    <activeaudioangle>false</activeaudioangle>
                    <clip id="clip-6"/>
                  </angle>
                  <angle>
                    <activevideoangle>false</activevideoangle>
                    <activeaudioangle>false</activeaudioangle>
                    <clip id="clip-7"/>
                  </angle>
                  <angle>
                    <activevideoangle>true</activevideoangle>
                    <activeaudioangle>true</activeaudioangle>
                    <clip id="clip-8"/>
                  </angle>
                  <angle>
                    <activevideoangle>false</activevideoangle>
                    <activeaudioangle>false</activeaudioangle>
                    <clip id="clip-9"/>
                  </angle>
                  <masterclipid>clip-master</masterclipid>
                </multiclip>
              </clipitem>
              <clipitem id="cs-655">
                <duration>1488</duration>
                <rate>
                  <ntsc>false</ntsc>
                  <timebase>25</timebase>
                </rate>
                <in>101022</in>
                <out>102509</out>
                <start>101022</start>
                <end>102509</end>
                <file id="src-2"/>
                <sourcetrack>
                  <mediatype>video</mediatype>
                  <trackindex>1</trackindex>
                </sourcetrack>
                <multiclip id="mcs-655">
                  <name>MCS-655</name>
                  <masterclipid>clip-master</masterclipid>
                  <collapsed>false</collapsed>
                  <angle>
                    <activevideoangle>false</activevideoangle>
                    <activeaudioangle>false</activeaudioangle>
                    <clip id="clip-1"/>
                  </angle>
                  <angle>
                    <activevideoangle>true</activevideoangle>
                    <activeaudioangle>true</activeaudioangle>
                    <clip id="clip-2"/>
                  </angle>
                  <angle>
                    <activevideoangle>false</activevideoangle>
                    <activeaudioangle>false</activeaudioangle>
                    <clip id="clip-3"/>
                  </angle>
                  <angle>
                    <activevideoangle>false</activevideoangle>
                    <activeaudioangle>false</activeaudioangle>
                    <clip id="clip-4"/>
                  </angle>
                  <angle>
                    <activevideoangle>false</activevideoangle>
                    <activeaudioangle>false</activeaudioangle>
                    <clip id="clip-5"/>
                  </angle>
                  <angle>
                    <activevideoangle>false</activevideoangle>
                    <activeaudioangle>false</activeaudioangle>
                    <clip id="clip-6"/>
                  </angle>
                  <angle>
                    <activevideoangle>false</activevideoangle>
                    <activeaudioangle>false</activeaudioangle>
                    <clip id="clip-7"/>
                  </angle>
                  <angle>
                    <activevideoangle>false</activevideoangle>
                    <activeaudioangle>false</activeaudioangle>
                    <clip id="clip-8"/>
                  </angle>
                  <angle>
                    <activevideoangle>false</activevideoangle>
                    <activeaudioangle>false</activeaudioangle>
                    <clip id="clip-9"/>
                  </angle>
                  <masterclipid>clip-master</masterclipid>
                </multiclip>
              </clipitem>
              <clipitem id="cs-656">
                <duration>773</duration>
                <rate>
                  <ntsc>false</ntsc>
                  <timebase>25</timebase>
                </rate>
                <in>102509</in>
                <out>103281</out>
                <start>102509</start>
                <end>103281</end>
                <file id="src-4"/>
                <sourcetrack>
                  <mediatype>video</mediatype>
                  <trackindex>1</trackindex>
                </sourcetrack>
                <multiclip id="mcs-656">
                  <name>MCS-656</name>
                  <masterclipid>clip-master</masterclipid>
                  <collapsed>false</collapsed>
                  <angle>
                    <activevideoangle>false</activevideoangle>
                    <activeaudioangle>false</activeaudioangle>
                    <clip id="clip-1"/>
                  </angle>
                  <angle>
                    <activevideoangle>false</activevideoangle>
                    <activeaudioangle>false</activeaudioangle>
                    <clip id="clip-2"/>
                  </angle>
                  <angle>
                    <activevideoangle>false</activevideoangle>
                    <activeaudioangle>false</activeaudioangle>
                    <clip id="clip-3"/>
                  </angle>
                  <angle>
                    <activevideoangle>true</activevideoangle>
                    <activeaudioangle>true</activeaudioangle>
                    <clip id="clip-4"/>
                  </angle>
                  <angle>
                    <activevideoangle>false</activevideoangle>
                    <activeaudioangle>false</activeaudioangle>
                    <clip id="clip-5"/>
                  </angle>
                  <angle>
                    <activevideoangle>false</activevideoangle>
                    <activeaudioangle>false</activeaudioangle>
                    <clip id="clip-6"/>
                  </angle>
                  <angle>
                    <activevideoangle>false</activevideoangle>
                    <activeaudioangle>false</activeaudioangle>
                    <clip id="clip-7"/>
                  </angle>
                  <angle>
                    <activevideoangle>false</activevideoangle>
                    <activeaudioangle>false</activeaudioangle>
                    <clip id="clip-8"/>
                  </angle>
                  <angle>
                    <activevideoangle>false</activevideoangle>
                    <activeaudioangle>false</activeaudioangle>
                    <clip id="clip-9"/>
                  </angle>
                  <masterclipid>clip-master</masterclipid>
                </multiclip>
              </clipitem>
              <clipitem id="cs-657">
                <duration>143</duration>
                <rate>
                  <ntsc>false</ntsc>
                  <timebase>25</timebase>
                </rate>
                <in>103281</in>
                <out>103423</out>
                <start>103281</start>
                <end>103423</end>
                <file id="src-2"/>
                <sourcetrack>
                  <mediatype>video</mediatype>
                  <trackindex>1</trackindex>
                </sourcetrack>
                <multiclip id="mcs-657">
                  <name>MCS-657</name>
                  <masterclipid>clip-master</masterclipid>
                  <collapsed>false</collapsed>
                  <angle>
                    <activevideoangle>false</activevideoangle>
                    <activeaudioangle>false</activeaudioangle>
                    <clip id="clip-1"/>
                  </angle>
                  <angle>
                    <activevideoangle>true</activevideoangle>
                    <activeaudioangle>true</activeaudioangle>
                    <clip id="clip-2"/>
                  </angle>
                  <angle>
                    <activevideoangle>false</activevideoangle>
                    <activeaudioangle>false</activeaudioangle>
                    <clip id="clip-3"/>
                  </angle>
                  <angle>
                    <activevideoangle>false</activevideoangle>
                    <activeaudioangle>false</activeaudioangle>
                    <clip id="clip-4"/>
                  </angle>
                  <angle>
                    <activevideoangle>false</activevideoangle>
                    <activeaudioangle>false</activeaudioangle>
                    <clip id="clip-5"/>
                  </angle>
                  <angle>
                    <activevideoangle>false</activevideoangle>
                    <activeaudioangle>false</activeaudioangle>
                    <clip id="clip-6"/>
                  </angle>
                  <angle>
                    <activevideoangle>false</activevideoangle>
                    <activeaudioangle>false</activeaudioangle>
                    <clip id="clip-7"/>
                  </angle>
                  <angle>
                    <activevideoangle>false</activevideoangle>
                    <activeaudioangle>false</activeaudioangle>
                    <clip id="clip-8"/>
                  </angle>
                  <angle>
                    <activevideoangle>false</activevideoangle>
                    <activeaudioangle>false</activeaudioangle>
                    <clip id="clip-9"/>
                  </angle>
                  <masterclipid>clip-master</masterclipid>
                </multiclip>
              </clipitem>
              <clipitem id="cs-658">
                <duration>153</duration>
                <rate>
                  <ntsc>false</ntsc>
                  <timebase>25</timebase>
                </rate>
                <in>103423</in>
                <out>103575</out>
                <start>103423</start>
                <end>103575</end>
                <file id="src-3"/>
                <sourcetrack>
                  <mediatype>video</mediatype>
                  <trackindex>1</trackindex>
                </sourcetrack>
                <multiclip id="mcs-658">
                  <name>MCS-658</name>
                  <masterclipid>clip-master</masterclipid>
                  <collapsed>false</collapsed>
                  <angle>
                    <activevideoangle>false</activevideoangle>
                    <activeaudioangle>false</activeaudioangle>
                    <clip id="clip-1"/>
                  </angle>
                  <angle>
                    <activevideoangle>false</activevideoangle>
                    <activeaudioangle>false</activeaudioangle>
                    <clip id="clip-2"/>
                  </angle>
                  <angle>
                    <activevideoangle>true</activevideoangle>
                    <activeaudioangle>true</activeaudioangle>
                    <clip id="clip-3"/>
                  </angle>
                  <angle>
                    <activevideoangle>false</activevideoangle>
                    <activeaudioangle>false</activeaudioangle>
                    <clip id="clip-4"/>
                  </angle>
                  <angle>
                    <activevideoangle>false</activevideoangle>
                    <activeaudioangle>false</activeaudioangle>
                    <clip id="clip-5"/>
                  </angle>
                  <angle>
                    <activevideoangle>false</activevideoangle>
                    <activeaudioangle>false</activeaudioangle>
                    <clip id="clip-6"/>
                  </angle>
                  <angle>
                    <activevideoangle>false</activevideoangle>
                    <activeaudioangle>false</activeaudioangle>
                    <clip id="clip-7"/>
                  </angle>
                  <angle>
                    <activevideoangle>false</activevideoangle>
                    <activeaudioangle>false</activeaudioangle>
                    <clip id="clip-8"/>
                  </angle>
                  <angle>
                    <activevideoangle>false</activevideoangle>
                    <activeaudioangle>false</activeaudioangle>
                    <clip id="clip-9"/>
                  </angle>
                  <masterclipid>clip-master</masterclipid>
                </multiclip>
              </clipitem>
              <clipitem id="cs-659">
                <duration>127</duration>
                <rate>
                  <ntsc>false</ntsc>
                  <timebase>25</timebase>
                </rate>
                <in>103575</in>
                <out>103701</out>
                <start>103575</start>
                <end>103701</end>
                <file id="src-2"/>
                <sourcetrack>
                  <mediatype>video</mediatype>
                  <trackindex>1</trackindex>
                </sourcetrack>
                <multiclip id="mcs-659">
                  <name>MCS-659</name>
                  <masterclipid>clip-master</masterclipid>
                  <collapsed>false</collapsed>
                  <angle>
                    <activevideoangle>false</activevideoangle>
                    <activeaudioangle>false</activeaudioangle>
                    <clip id="clip-1"/>
                  </angle>
                  <angle>
                    <activevideoangle>true</activevideoangle>
                    <activeaudioangle>true</activeaudioangle>
                    <clip id="clip-2"/>
                  </angle>
                  <angle>
                    <activevideoangle>false</activevideoangle>
                    <activeaudioangle>false</activeaudioangle>
                    <clip id="clip-3"/>
                  </angle>
                  <angle>
                    <activevideoangle>false</activevideoangle>
                    <activeaudioangle>false</activeaudioangle>
                    <clip id="clip-4"/>
                  </angle>
                  <angle>
                    <activevideoangle>false</activevideoangle>
                    <activeaudioangle>false</activeaudioangle>
                    <clip id="clip-5"/>
                  </angle>
                  <angle>
                    <activevideoangle>false</activevideoangle>
                    <activeaudioangle>false</activeaudioangle>
                    <clip id="clip-6"/>
                  </angle>
                  <angle>
                    <activevideoangle>false</activevideoangle>
                    <activeaudioangle>false</activeaudioangle>
                    <clip id="clip-7"/>
                  </angle>
                  <angle>
                    <activevideoangle>false</activevideoangle>
                    <activeaudioangle>false</activeaudioangle>
                    <clip id="clip-8"/>
                  </angle>
                  <angle>
                    <activevideoangle>false</activevideoangle>
                    <activeaudioangle>false</activeaudioangle>
                    <clip id="clip-9"/>
                  </angle>
                  <masterclipid>clip-master</masterclipid>
                </multiclip>
              </clipitem>
              <clipitem id="cs-660">
                <duration>200</duration>
                <rate>
                  <ntsc>false</ntsc>
                  <timebase>25</timebase>
                </rate>
                <in>103701</in>
                <out>103900</out>
                <start>103701</start>
                <end>103900</end>
                <file id="src-4"/>
                <sourcetrack>
                  <mediatype>video</mediatype>
                  <trackindex>1</trackindex>
                </sourcetrack>
                <multiclip id="mcs-660">
                  <name>MCS-660</name>
                  <masterclipid>clip-master</masterclipid>
                  <collapsed>false</collapsed>
                  <angle>
                    <activevideoangle>false</activevideoangle>
                    <activeaudioangle>false</activeaudioangle>
                    <clip id="clip-1"/>
                  </angle>
                  <angle>
                    <activevideoangle>false</activevideoangle>
                    <activeaudioangle>false</activeaudioangle>
                    <clip id="clip-2"/>
                  </angle>
                  <angle>
                    <activevideoangle>false</activevideoangle>
                    <activeaudioangle>false</activeaudioangle>
                    <clip id="clip-3"/>
                  </angle>
                  <angle>
                    <activevideoangle>true</activevideoangle>
                    <activeaudioangle>true</activeaudioangle>
                    <clip id="clip-4"/>
                  </angle>
                  <angle>
                    <activevideoangle>false</activevideoangle>
                    <activeaudioangle>false</activeaudioangle>
                    <clip id="clip-5"/>
                  </angle>
                  <angle>
                    <activevideoangle>false</activevideoangle>
                    <activeaudioangle>false</activeaudioangle>
                    <clip id="clip-6"/>
                  </angle>
                  <angle>
                    <activevideoangle>false</activevideoangle>
                    <activeaudioangle>false</activeaudioangle>
                    <clip id="clip-7"/>
                  </angle>
                  <angle>
                    <activevideoangle>false</activevideoangle>
                    <activeaudioangle>false</activeaudioangle>
                    <clip id="clip-8"/>
                  </angle>
                  <angle>
                    <activevideoangle>false</activevideoangle>
                    <activeaudioangle>false</activeaudioangle>
                    <clip id="clip-9"/>
                  </angle>
                  <masterclipid>clip-master</masterclipid>
                </multiclip>
              </clipitem>
              <clipitem id="cs-661">
                <duration>78</duration>
                <rate>
                  <ntsc>false</ntsc>
                  <timebase>25</timebase>
                </rate>
                <in>103900</in>
                <out>103977</out>
                <start>103900</start>
                <end>103977</end>
                <file id="src-2"/>
                <sourcetrack>
                  <mediatype>video</mediatype>
                  <trackindex>1</trackindex>
                </sourcetrack>
                <multiclip id="mcs-661">
                  <name>MCS-661</name>
                  <masterclipid>clip-master</masterclipid>
                  <collapsed>false</collapsed>
                  <angle>
                    <activevideoangle>false</activevideoangle>
                    <activeaudioangle>false</activeaudioangle>
                    <clip id="clip-1"/>
                  </angle>
                  <angle>
                    <activevideoangle>true</activevideoangle>
                    <activeaudioangle>true</activeaudioangle>
                    <clip id="clip-2"/>
                  </angle>
                  <angle>
                    <activevideoangle>false</activevideoangle>
                    <activeaudioangle>false</activeaudioangle>
                    <clip id="clip-3"/>
                  </angle>
                  <angle>
                    <activevideoangle>false</activevideoangle>
                    <activeaudioangle>false</activeaudioangle>
                    <clip id="clip-4"/>
                  </angle>
                  <angle>
                    <activevideoangle>false</activevideoangle>
                    <activeaudioangle>false</activeaudioangle>
                    <clip id="clip-5"/>
                  </angle>
                  <angle>
                    <activevideoangle>false</activevideoangle>
                    <activeaudioangle>false</activeaudioangle>
                    <clip id="clip-6"/>
                  </angle>
                  <angle>
                    <activevideoangle>false</activevideoangle>
                    <activeaudioangle>false</activeaudioangle>
                    <clip id="clip-7"/>
                  </angle>
                  <angle>
                    <activevideoangle>false</activevideoangle>
                    <activeaudioangle>false</activeaudioangle>
                    <clip id="clip-8"/>
                  </angle>
                  <angle>
                    <activevideoangle>false</activevideoangle>
                    <activeaudioangle>false</activeaudioangle>
                    <clip id="clip-9"/>
                  </angle>
                  <masterclipid>clip-master</masterclipid>
                </multiclip>
              </clipitem>
              <clipitem id="cs-662">
                <duration>95</duration>
                <rate>
                  <ntsc>false</ntsc>
                  <timebase>25</timebase>
                </rate>
                <in>103977</in>
                <out>104071</out>
                <start>103977</start>
                <end>104071</end>
                <file id="src-4"/>
                <sourcetrack>
                  <mediatype>video</mediatype>
                  <trackindex>1</trackindex>
                </sourcetrack>
                <multiclip id="mcs-662">
                  <name>MCS-662</name>
                  <masterclipid>clip-master</masterclipid>
                  <collapsed>false</collapsed>
                  <angle>
                    <activevideoangle>false</activevideoangle>
                    <activeaudioangle>false</activeaudioangle>
                    <clip id="clip-1"/>
                  </angle>
                  <angle>
                    <activevideoangle>false</activevideoangle>
                    <activeaudioangle>false</activeaudioangle>
                    <clip id="clip-2"/>
                  </angle>
                  <angle>
                    <activevideoangle>false</activevideoangle>
                    <activeaudioangle>false</activeaudioangle>
                    <clip id="clip-3"/>
                  </angle>
                  <angle>
                    <activevideoangle>true</activevideoangle>
                    <activeaudioangle>true</activeaudioangle>
                    <clip id="clip-4"/>
                  </angle>
                  <angle>
                    <activevideoangle>false</activevideoangle>
                    <activeaudioangle>false</activeaudioangle>
                    <clip id="clip-5"/>
                  </angle>
                  <angle>
                    <activevideoangle>false</activevideoangle>
                    <activeaudioangle>false</activeaudioangle>
                    <clip id="clip-6"/>
                  </angle>
                  <angle>
                    <activevideoangle>false</activevideoangle>
                    <activeaudioangle>false</activeaudioangle>
                    <clip id="clip-7"/>
                  </angle>
                  <angle>
                    <activevideoangle>false</activevideoangle>
                    <activeaudioangle>false</activeaudioangle>
                    <clip id="clip-8"/>
                  </angle>
                  <angle>
                    <activevideoangle>false</activevideoangle>
                    <activeaudioangle>false</activeaudioangle>
                    <clip id="clip-9"/>
                  </angle>
                  <masterclipid>clip-master</masterclipid>
                </multiclip>
              </clipitem>
              <clipitem id="cs-663">
                <duration>213</duration>
                <rate>
                  <ntsc>false</ntsc>
                  <timebase>25</timebase>
                </rate>
                <in>104071</in>
                <out>104283</out>
                <start>104071</start>
                <end>104283</end>
                <file id="src-3"/>
                <sourcetrack>
                  <mediatype>video</mediatype>
                  <trackindex>1</trackindex>
                </sourcetrack>
                <multiclip id="mcs-663">
                  <name>MCS-663</name>
                  <masterclipid>clip-master</masterclipid>
                  <collapsed>false</collapsed>
                  <angle>
                    <activevideoangle>false</activevideoangle>
                    <activeaudioangle>false</activeaudioangle>
                    <clip id="clip-1"/>
                  </angle>
                  <angle>
                    <activevideoangle>false</activevideoangle>
                    <activeaudioangle>false</activeaudioangle>
                    <clip id="clip-2"/>
                  </angle>
                  <angle>
                    <activevideoangle>true</activevideoangle>
                    <activeaudioangle>true</activeaudioangle>
                    <clip id="clip-3"/>
                  </angle>
                  <angle>
                    <activevideoangle>false</activevideoangle>
                    <activeaudioangle>false</activeaudioangle>
                    <clip id="clip-4"/>
                  </angle>
                  <angle>
                    <activevideoangle>false</activevideoangle>
                    <activeaudioangle>false</activeaudioangle>
                    <clip id="clip-5"/>
                  </angle>
                  <angle>
                    <activevideoangle>false</activevideoangle>
                    <activeaudioangle>false</activeaudioangle>
                    <clip id="clip-6"/>
                  </angle>
                  <angle>
                    <activevideoangle>false</activevideoangle>
                    <activeaudioangle>false</activeaudioangle>
                    <clip id="clip-7"/>
                  </angle>
                  <angle>
                    <activevideoangle>false</activevideoangle>
                    <activeaudioangle>false</activeaudioangle>
                    <clip id="clip-8"/>
                  </angle>
                  <angle>
                    <activevideoangle>false</activevideoangle>
                    <activeaudioangle>false</activeaudioangle>
                    <clip id="clip-9"/>
                  </angle>
                  <masterclipid>clip-master</masterclipid>
                </multiclip>
              </clipitem>
              <clipitem id="cs-664">
                <duration>118</duration>
                <rate>
                  <ntsc>false</ntsc>
                  <timebase>25</timebase>
                </rate>
                <in>104283</in>
                <out>104400</out>
                <start>104283</start>
                <end>104400</end>
                <file id="src-2"/>
                <sourcetrack>
                  <mediatype>video</mediatype>
                  <trackindex>1</trackindex>
                </sourcetrack>
                <multiclip id="mcs-664">
                  <name>MCS-664</name>
                  <masterclipid>clip-master</masterclipid>
                  <collapsed>false</collapsed>
                  <angle>
                    <activevideoangle>false</activevideoangle>
                    <activeaudioangle>false</activeaudioangle>
                    <clip id="clip-1"/>
                  </angle>
                  <angle>
                    <activevideoangle>true</activevideoangle>
                    <activeaudioangle>true</activeaudioangle>
                    <clip id="clip-2"/>
                  </angle>
                  <angle>
                    <activevideoangle>false</activevideoangle>
                    <activeaudioangle>false</activeaudioangle>
                    <clip id="clip-3"/>
                  </angle>
                  <angle>
                    <activevideoangle>false</activevideoangle>
                    <activeaudioangle>false</activeaudioangle>
                    <clip id="clip-4"/>
                  </angle>
                  <angle>
                    <activevideoangle>false</activevideoangle>
                    <activeaudioangle>false</activeaudioangle>
                    <clip id="clip-5"/>
                  </angle>
                  <angle>
                    <activevideoangle>false</activevideoangle>
                    <activeaudioangle>false</activeaudioangle>
                    <clip id="clip-6"/>
                  </angle>
                  <angle>
                    <activevideoangle>false</activevideoangle>
                    <activeaudioangle>false</activeaudioangle>
                    <clip id="clip-7"/>
                  </angle>
                  <angle>
                    <activevideoangle>false</activevideoangle>
                    <activeaudioangle>false</activeaudioangle>
                    <clip id="clip-8"/>
                  </angle>
                  <angle>
                    <activevideoangle>false</activevideoangle>
                    <activeaudioangle>false</activeaudioangle>
                    <clip id="clip-9"/>
                  </angle>
                  <masterclipid>clip-master</masterclipid>
                </multiclip>
              </clipitem>
              <clipitem id="cs-665">
                <duration>65</duration>
                <rate>
                  <ntsc>false</ntsc>
                  <timebase>25</timebase>
                </rate>
                <in>104400</in>
                <out>104464</out>
                <start>104400</start>
                <end>104464</end>
                <file id="src-5"/>
                <sourcetrack>
                  <mediatype>video</mediatype>
                  <trackindex>1</trackindex>
                </sourcetrack>
                <multiclip id="mcs-665">
                  <name>MCS-665</name>
                  <masterclipid>clip-master</masterclipid>
                  <collapsed>false</collapsed>
                  <angle>
                    <activevideoangle>false</activevideoangle>
                    <activeaudioangle>false</activeaudioangle>
                    <clip id="clip-1"/>
                  </angle>
                  <angle>
                    <activevideoangle>false</activevideoangle>
                    <activeaudioangle>false</activeaudioangle>
                    <clip id="clip-2"/>
                  </angle>
                  <angle>
                    <activevideoangle>false</activevideoangle>
                    <activeaudioangle>false</activeaudioangle>
                    <clip id="clip-3"/>
                  </angle>
                  <angle>
                    <activevideoangle>false</activevideoangle>
                    <activeaudioangle>false</activeaudioangle>
                    <clip id="clip-4"/>
                  </angle>
                  <angle>
                    <activevideoangle>true</activevideoangle>
                    <activeaudioangle>true</activeaudioangle>
                    <clip id="clip-5"/>
                  </angle>
                  <angle>
                    <activevideoangle>false</activevideoangle>
                    <activeaudioangle>false</activeaudioangle>
                    <clip id="clip-6"/>
                  </angle>
                  <angle>
                    <activevideoangle>false</activevideoangle>
                    <activeaudioangle>false</activeaudioangle>
                    <clip id="clip-7"/>
                  </angle>
                  <angle>
                    <activevideoangle>false</activevideoangle>
                    <activeaudioangle>false</activeaudioangle>
                    <clip id="clip-8"/>
                  </angle>
                  <angle>
                    <activevideoangle>false</activevideoangle>
                    <activeaudioangle>false</activeaudioangle>
                    <clip id="clip-9"/>
                  </angle>
                  <masterclipid>clip-master</masterclipid>
                </multiclip>
              </clipitem>
              <clipitem id="cs-666">
                <duration>158</duration>
                <rate>
                  <ntsc>false</ntsc>
                  <timebase>25</timebase>
                </rate>
                <in>104464</in>
                <out>104621</out>
                <start>104464</start>
                <end>104621</end>
                <file id="src-3"/>
                <sourcetrack>
                  <mediatype>video</mediatype>
                  <trackindex>1</trackindex>
                </sourcetrack>
                <multiclip id="mcs-666">
                  <name>MCS-666</name>
                  <masterclipid>clip-master</masterclipid>
                  <collapsed>false</collapsed>
                  <angle>
                    <activevideoangle>false</activevideoangle>
                    <activeaudioangle>false</activeaudioangle>
                    <clip id="clip-1"/>
                  </angle>
                  <angle>
                    <activevideoangle>false</activevideoangle>
                    <activeaudioangle>false</activeaudioangle>
                    <clip id="clip-2"/>
                  </angle>
                  <angle>
                    <activevideoangle>true</activevideoangle>
                    <activeaudioangle>true</activeaudioangle>
                    <clip id="clip-3"/>
                  </angle>
                  <angle>
                    <activevideoangle>false</activevideoangle>
                    <activeaudioangle>false</activeaudioangle>
                    <clip id="clip-4"/>
                  </angle>
                  <angle>
                    <activevideoangle>false</activevideoangle>
                    <activeaudioangle>false</activeaudioangle>
                    <clip id="clip-5"/>
                  </angle>
                  <angle>
                    <activevideoangle>false</activevideoangle>
                    <activeaudioangle>false</activeaudioangle>
                    <clip id="clip-6"/>
                  </angle>
                  <angle>
                    <activevideoangle>false</activevideoangle>
                    <activeaudioangle>false</activeaudioangle>
                    <clip id="clip-7"/>
                  </angle>
                  <angle>
                    <activevideoangle>false</activevideoangle>
                    <activeaudioangle>false</activeaudioangle>
                    <clip id="clip-8"/>
                  </angle>
                  <angle>
                    <activevideoangle>false</activevideoangle>
                    <activeaudioangle>false</activeaudioangle>
                    <clip id="clip-9"/>
                  </angle>
                  <masterclipid>clip-master</masterclipid>
                </multiclip>
              </clipitem>
              <clipitem id="cs-667">
                <duration>119</duration>
                <rate>
                  <ntsc>false</ntsc>
                  <timebase>25</timebase>
                </rate>
                <in>104621</in>
                <out>104739</out>
                <start>104621</start>
                <end>104739</end>
                <file id="src-4"/>
                <sourcetrack>
                  <mediatype>video</mediatype>
                  <trackindex>1</trackindex>
                </sourcetrack>
                <multiclip id="mcs-667">
                  <name>MCS-667</name>
                  <masterclipid>clip-master</masterclipid>
                  <collapsed>false</collapsed>
                  <angle>
                    <activevideoangle>false</activevideoangle>
                    <activeaudioangle>false</activeaudioangle>
                    <clip id="clip-1"/>
                  </angle>
                  <angle>
                    <activevideoangle>false</activevideoangle>
                    <activeaudioangle>false</activeaudioangle>
                    <clip id="clip-2"/>
                  </angle>
                  <angle>
                    <activevideoangle>false</activevideoangle>
                    <activeaudioangle>false</activeaudioangle>
                    <clip id="clip-3"/>
                  </angle>
                  <angle>
                    <activevideoangle>true</activevideoangle>
                    <activeaudioangle>true</activeaudioangle>
                    <clip id="clip-4"/>
                  </angle>
                  <angle>
                    <activevideoangle>false</activevideoangle>
                    <activeaudioangle>false</activeaudioangle>
                    <clip id="clip-5"/>
                  </angle>
                  <angle>
                    <activevideoangle>false</activevideoangle>
                    <activeaudioangle>false</activeaudioangle>
                    <clip id="clip-6"/>
                  </angle>
                  <angle>
                    <activevideoangle>false</activevideoangle>
                    <activeaudioangle>false</activeaudioangle>
                    <clip id="clip-7"/>
                  </angle>
                  <angle>
                    <activevideoangle>false</activevideoangle>
                    <activeaudioangle>false</activeaudioangle>
                    <clip id="clip-8"/>
                  </angle>
                  <angle>
                    <activevideoangle>false</activevideoangle>
                    <activeaudioangle>false</activeaudioangle>
                    <clip id="clip-9"/>
                  </angle>
                  <masterclipid>clip-master</masterclipid>
                </multiclip>
              </clipitem>
              <clipitem id="cs-668">
                <duration>113</duration>
                <rate>
                  <ntsc>false</ntsc>
                  <timebase>25</timebase>
                </rate>
                <in>104739</in>
                <out>104851</out>
                <start>104739</start>
                <end>104851</end>
                <file id="src-2"/>
                <sourcetrack>
                  <mediatype>video</mediatype>
                  <trackindex>1</trackindex>
                </sourcetrack>
                <multiclip id="mcs-668">
                  <name>MCS-668</name>
                  <masterclipid>clip-master</masterclipid>
                  <collapsed>false</collapsed>
                  <angle>
                    <activevideoangle>false</activevideoangle>
                    <activeaudioangle>false</activeaudioangle>
                    <clip id="clip-1"/>
                  </angle>
                  <angle>
                    <activevideoangle>true</activevideoangle>
                    <activeaudioangle>true</activeaudioangle>
                    <clip id="clip-2"/>
                  </angle>
                  <angle>
                    <activevideoangle>false</activevideoangle>
                    <activeaudioangle>false</activeaudioangle>
                    <clip id="clip-3"/>
                  </angle>
                  <angle>
                    <activevideoangle>false</activevideoangle>
                    <activeaudioangle>false</activeaudioangle>
                    <clip id="clip-4"/>
                  </angle>
                  <angle>
                    <activevideoangle>false</activevideoangle>
                    <activeaudioangle>false</activeaudioangle>
                    <clip id="clip-5"/>
                  </angle>
                  <angle>
                    <activevideoangle>false</activevideoangle>
                    <activeaudioangle>false</activeaudioangle>
                    <clip id="clip-6"/>
                  </angle>
                  <angle>
                    <activevideoangle>false</activevideoangle>
                    <activeaudioangle>false</activeaudioangle>
                    <clip id="clip-7"/>
                  </angle>
                  <angle>
                    <activevideoangle>false</activevideoangle>
                    <activeaudioangle>false</activeaudioangle>
                    <clip id="clip-8"/>
                  </angle>
                  <angle>
                    <activevideoangle>false</activevideoangle>
                    <activeaudioangle>false</activeaudioangle>
                    <clip id="clip-9"/>
                  </angle>
                  <masterclipid>clip-master</masterclipid>
                </multiclip>
              </clipitem>
              <clipitem id="cs-669">
                <duration>93</duration>
                <rate>
                  <ntsc>false</ntsc>
                  <timebase>25</timebase>
                </rate>
                <in>104851</in>
                <out>104943</out>
                <start>104851</start>
                <end>104943</end>
                <file id="src-4"/>
                <sourcetrack>
                  <mediatype>video</mediatype>
                  <trackindex>1</trackindex>
                </sourcetrack>
                <multiclip id="mcs-669">
                  <name>MCS-669</name>
                  <masterclipid>clip-master</masterclipid>
                  <collapsed>false</collapsed>
                  <angle>
                    <activevideoangle>false</activevideoangle>
                    <activeaudioangle>false</activeaudioangle>
                    <clip id="clip-1"/>
                  </angle>
                  <angle>
                    <activevideoangle>false</activevideoangle>
                    <activeaudioangle>false</activeaudioangle>
                    <clip id="clip-2"/>
                  </angle>
                  <angle>
                    <activevideoangle>false</activevideoangle>
                    <activeaudioangle>false</activeaudioangle>
                    <clip id="clip-3"/>
                  </angle>
                  <angle>
                    <activevideoangle>true</activevideoangle>
                    <activeaudioangle>true</activeaudioangle>
                    <clip id="clip-4"/>
                  </angle>
                  <angle>
                    <activevideoangle>false</activevideoangle>
                    <activeaudioangle>false</activeaudioangle>
                    <clip id="clip-5"/>
                  </angle>
                  <angle>
                    <activevideoangle>false</activevideoangle>
                    <activeaudioangle>false</activeaudioangle>
                    <clip id="clip-6"/>
                  </angle>
                  <angle>
                    <activevideoangle>false</activevideoangle>
                    <activeaudioangle>false</activeaudioangle>
                    <clip id="clip-7"/>
                  </angle>
                  <angle>
                    <activevideoangle>false</activevideoangle>
                    <activeaudioangle>false</activeaudioangle>
                    <clip id="clip-8"/>
                  </angle>
                  <angle>
                    <activevideoangle>false</activevideoangle>
                    <activeaudioangle>false</activeaudioangle>
                    <clip id="clip-9"/>
                  </angle>
                  <masterclipid>clip-master</masterclipid>
                </multiclip>
              </clipitem>
              <clipitem id="cs-670">
                <duration>135</duration>
                <rate>
                  <ntsc>false</ntsc>
                  <timebase>25</timebase>
                </rate>
                <in>104943</in>
                <out>105077</out>
                <start>104943</start>
                <end>105077</end>
                <file id="src-3"/>
                <sourcetrack>
                  <mediatype>video</mediatype>
                  <trackindex>1</trackindex>
                </sourcetrack>
                <multiclip id="mcs-670">
                  <name>MCS-670</name>
                  <masterclipid>clip-master</masterclipid>
                  <collapsed>false</collapsed>
                  <angle>
                    <activevideoangle>false</activevideoangle>
                    <activeaudioangle>false</activeaudioangle>
                    <clip id="clip-1"/>
                  </angle>
                  <angle>
                    <activevideoangle>false</activevideoangle>
                    <activeaudioangle>false</activeaudioangle>
                    <clip id="clip-2"/>
                  </angle>
                  <angle>
                    <activevideoangle>true</activevideoangle>
                    <activeaudioangle>true</activeaudioangle>
                    <clip id="clip-3"/>
                  </angle>
                  <angle>
                    <activevideoangle>false</activevideoangle>
                    <activeaudioangle>false</activeaudioangle>
                    <clip id="clip-4"/>
                  </angle>
                  <angle>
                    <activevideoangle>false</activevideoangle>
                    <activeaudioangle>false</activeaudioangle>
                    <clip id="clip-5"/>
                  </angle>
                  <angle>
                    <activevideoangle>false</activevideoangle>
                    <activeaudioangle>false</activeaudioangle>
                    <clip id="clip-6"/>
                  </angle>
                  <angle>
                    <activevideoangle>false</activevideoangle>
                    <activeaudioangle>false</activeaudioangle>
                    <clip id="clip-7"/>
                  </angle>
                  <angle>
                    <activevideoangle>false</activevideoangle>
                    <activeaudioangle>false</activeaudioangle>
                    <clip id="clip-8"/>
                  </angle>
                  <angle>
                    <activevideoangle>false</activevideoangle>
                    <activeaudioangle>false</activeaudioangle>
                    <clip id="clip-9"/>
                  </angle>
                  <masterclipid>clip-master</masterclipid>
                </multiclip>
              </clipitem>
              <clipitem id="cs-671">
                <duration>137</duration>
                <rate>
                  <ntsc>false</ntsc>
                  <timebase>25</timebase>
                </rate>
                <in>105077</in>
                <out>105213</out>
                <start>105077</start>
                <end>105213</end>
                <file id="src-2"/>
                <sourcetrack>
                  <mediatype>video</mediatype>
                  <trackindex>1</trackindex>
                </sourcetrack>
                <multiclip id="mcs-671">
                  <name>MCS-671</name>
                  <masterclipid>clip-master</masterclipid>
                  <collapsed>false</collapsed>
                  <angle>
                    <activevideoangle>false</activevideoangle>
                    <activeaudioangle>false</activeaudioangle>
                    <clip id="clip-1"/>
                  </angle>
                  <angle>
                    <activevideoangle>true</activevideoangle>
                    <activeaudioangle>true</activeaudioangle>
                    <clip id="clip-2"/>
                  </angle>
                  <angle>
                    <activevideoangle>false</activevideoangle>
                    <activeaudioangle>false</activeaudioangle>
                    <clip id="clip-3"/>
                  </angle>
                  <angle>
                    <activevideoangle>false</activevideoangle>
                    <activeaudioangle>false</activeaudioangle>
                    <clip id="clip-4"/>
                  </angle>
                  <angle>
                    <activevideoangle>false</activevideoangle>
                    <activeaudioangle>false</activeaudioangle>
                    <clip id="clip-5"/>
                  </angle>
                  <angle>
                    <activevideoangle>false</activevideoangle>
                    <activeaudioangle>false</activeaudioangle>
                    <clip id="clip-6"/>
                  </angle>
                  <angle>
                    <activevideoangle>false</activevideoangle>
                    <activeaudioangle>false</activeaudioangle>
                    <clip id="clip-7"/>
                  </angle>
                  <angle>
                    <activevideoangle>false</activevideoangle>
                    <activeaudioangle>false</activeaudioangle>
                    <clip id="clip-8"/>
                  </angle>
                  <angle>
                    <activevideoangle>false</activevideoangle>
                    <activeaudioangle>false</activeaudioangle>
                    <clip id="clip-9"/>
                  </angle>
                  <masterclipid>clip-master</masterclipid>
                </multiclip>
              </clipitem>
              <clipitem id="cs-672">
                <duration>270</duration>
                <rate>
                  <ntsc>false</ntsc>
                  <timebase>25</timebase>
                </rate>
                <in>105213</in>
                <out>105482</out>
                <start>105213</start>
                <end>105482</end>
                <file id="src-1"/>
                <sourcetrack>
                  <mediatype>video</mediatype>
                  <trackindex>1</trackindex>
                </sourcetrack>
                <multiclip id="mcs-672">
                  <name>MCS-672</name>
                  <masterclipid>clip-master</masterclipid>
                  <collapsed>false</collapsed>
                  <angle>
                    <activevideoangle>true</activevideoangle>
                    <activeaudioangle>true</activeaudioangle>
                    <clip id="clip-1"/>
                  </angle>
                  <angle>
                    <activevideoangle>false</activevideoangle>
                    <activeaudioangle>false</activeaudioangle>
                    <clip id="clip-2"/>
                  </angle>
                  <angle>
                    <activevideoangle>false</activevideoangle>
                    <activeaudioangle>false</activeaudioangle>
                    <clip id="clip-3"/>
                  </angle>
                  <angle>
                    <activevideoangle>false</activevideoangle>
                    <activeaudioangle>false</activeaudioangle>
                    <clip id="clip-4"/>
                  </angle>
                  <angle>
                    <activevideoangle>false</activevideoangle>
                    <activeaudioangle>false</activeaudioangle>
                    <clip id="clip-5"/>
                  </angle>
                  <angle>
                    <activevideoangle>false</activevideoangle>
                    <activeaudioangle>false</activeaudioangle>
                    <clip id="clip-6"/>
                  </angle>
                  <angle>
                    <activevideoangle>false</activevideoangle>
                    <activeaudioangle>false</activeaudioangle>
                    <clip id="clip-7"/>
                  </angle>
                  <angle>
                    <activevideoangle>false</activevideoangle>
                    <activeaudioangle>false</activeaudioangle>
                    <clip id="clip-8"/>
                  </angle>
                  <angle>
                    <activevideoangle>false</activevideoangle>
                    <activeaudioangle>false</activeaudioangle>
                    <clip id="clip-9"/>
                  </angle>
                  <masterclipid>clip-master</masterclipid>
                </multiclip>
              </clipitem>
              <clipitem id="cs-673">
                <duration>158</duration>
                <rate>
                  <ntsc>false</ntsc>
                  <timebase>25</timebase>
                </rate>
                <in>105482</in>
                <out>105639</out>
                <start>105482</start>
                <end>105639</end>
                <file id="src-4"/>
                <sourcetrack>
                  <mediatype>video</mediatype>
                  <trackindex>1</trackindex>
                </sourcetrack>
                <multiclip id="mcs-673">
                  <name>MCS-673</name>
                  <masterclipid>clip-master</masterclipid>
                  <collapsed>false</collapsed>
                  <angle>
                    <activevideoangle>false</activevideoangle>
                    <activeaudioangle>false</activeaudioangle>
                    <clip id="clip-1"/>
                  </angle>
                  <angle>
                    <activevideoangle>false</activevideoangle>
                    <activeaudioangle>false</activeaudioangle>
                    <clip id="clip-2"/>
                  </angle>
                  <angle>
                    <activevideoangle>false</activevideoangle>
                    <activeaudioangle>false</activeaudioangle>
                    <clip id="clip-3"/>
                  </angle>
                  <angle>
                    <activevideoangle>true</activevideoangle>
                    <activeaudioangle>true</activeaudioangle>
                    <clip id="clip-4"/>
                  </angle>
                  <angle>
                    <activevideoangle>false</activevideoangle>
                    <activeaudioangle>false</activeaudioangle>
                    <clip id="clip-5"/>
                  </angle>
                  <angle>
                    <activevideoangle>false</activevideoangle>
                    <activeaudioangle>false</activeaudioangle>
                    <clip id="clip-6"/>
                  </angle>
                  <angle>
                    <activevideoangle>false</activevideoangle>
                    <activeaudioangle>false</activeaudioangle>
                    <clip id="clip-7"/>
                  </angle>
                  <angle>
                    <activevideoangle>false</activevideoangle>
                    <activeaudioangle>false</activeaudioangle>
                    <clip id="clip-8"/>
                  </angle>
                  <angle>
                    <activevideoangle>false</activevideoangle>
                    <activeaudioangle>false</activeaudioangle>
                    <clip id="clip-9"/>
                  </angle>
                  <masterclipid>clip-master</masterclipid>
                </multiclip>
              </clipitem>
              <clipitem id="cs-674">
                <duration>69</duration>
                <rate>
                  <ntsc>false</ntsc>
                  <timebase>25</timebase>
                </rate>
                <in>105639</in>
                <out>105707</out>
                <start>105639</start>
                <end>105707</end>
                <file id="src-6"/>
                <sourcetrack>
                  <mediatype>video</mediatype>
                  <trackindex>1</trackindex>
                </sourcetrack>
                <multiclip id="mcs-674">
                  <name>MCS-674</name>
                  <masterclipid>clip-master</masterclipid>
                  <collapsed>false</collapsed>
                  <angle>
                    <activevideoangle>false</activevideoangle>
                    <activeaudioangle>false</activeaudioangle>
                    <clip id="clip-1"/>
                  </angle>
                  <angle>
                    <activevideoangle>false</activevideoangle>
                    <activeaudioangle>false</activeaudioangle>
                    <clip id="clip-2"/>
                  </angle>
                  <angle>
                    <activevideoangle>false</activevideoangle>
                    <activeaudioangle>false</activeaudioangle>
                    <clip id="clip-3"/>
                  </angle>
                  <angle>
                    <activevideoangle>false</activevideoangle>
                    <activeaudioangle>false</activeaudioangle>
                    <clip id="clip-4"/>
                  </angle>
                  <angle>
                    <activevideoangle>false</activevideoangle>
                    <activeaudioangle>false</activeaudioangle>
                    <clip id="clip-5"/>
                  </angle>
                  <angle>
                    <activevideoangle>true</activevideoangle>
                    <activeaudioangle>true</activeaudioangle>
                    <clip id="clip-6"/>
                  </angle>
                  <angle>
                    <activevideoangle>false</activevideoangle>
                    <activeaudioangle>false</activeaudioangle>
                    <clip id="clip-7"/>
                  </angle>
                  <angle>
                    <activevideoangle>false</activevideoangle>
                    <activeaudioangle>false</activeaudioangle>
                    <clip id="clip-8"/>
                  </angle>
                  <angle>
                    <activevideoangle>false</activevideoangle>
                    <activeaudioangle>false</activeaudioangle>
                    <clip id="clip-9"/>
                  </angle>
                  <masterclipid>clip-master</masterclipid>
                </multiclip>
              </clipitem>
              <clipitem id="cs-675">
                <duration>97</duration>
                <rate>
                  <ntsc>false</ntsc>
                  <timebase>25</timebase>
                </rate>
                <in>105707</in>
                <out>105803</out>
                <start>105707</start>
                <end>105803</end>
                <file id="src-4"/>
                <sourcetrack>
                  <mediatype>video</mediatype>
                  <trackindex>1</trackindex>
                </sourcetrack>
                <multiclip id="mcs-675">
                  <name>MCS-675</name>
                  <masterclipid>clip-master</masterclipid>
                  <collapsed>false</collapsed>
                  <angle>
                    <activevideoangle>false</activevideoangle>
                    <activeaudioangle>false</activeaudioangle>
                    <clip id="clip-1"/>
                  </angle>
                  <angle>
                    <activevideoangle>false</activevideoangle>
                    <activeaudioangle>false</activeaudioangle>
                    <clip id="clip-2"/>
                  </angle>
                  <angle>
                    <activevideoangle>false</activevideoangle>
                    <activeaudioangle>false</activeaudioangle>
                    <clip id="clip-3"/>
                  </angle>
                  <angle>
                    <activevideoangle>true</activevideoangle>
                    <activeaudioangle>true</activeaudioangle>
                    <clip id="clip-4"/>
                  </angle>
                  <angle>
                    <activevideoangle>false</activevideoangle>
                    <activeaudioangle>false</activeaudioangle>
                    <clip id="clip-5"/>
                  </angle>
                  <angle>
                    <activevideoangle>false</activevideoangle>
                    <activeaudioangle>false</activeaudioangle>
                    <clip id="clip-6"/>
                  </angle>
                  <angle>
                    <activevideoangle>false</activevideoangle>
                    <activeaudioangle>false</activeaudioangle>
                    <clip id="clip-7"/>
                  </angle>
                  <angle>
                    <activevideoangle>false</activevideoangle>
                    <activeaudioangle>false</activeaudioangle>
                    <clip id="clip-8"/>
                  </angle>
                  <angle>
                    <activevideoangle>false</activevideoangle>
                    <activeaudioangle>false</activeaudioangle>
                    <clip id="clip-9"/>
                  </angle>
                  <masterclipid>clip-master</masterclipid>
                </multiclip>
              </clipitem>
              <clipitem id="cs-676">
                <duration>82</duration>
                <rate>
                  <ntsc>false</ntsc>
                  <timebase>25</timebase>
                </rate>
                <in>105803</in>
                <out>105884</out>
                <start>105803</start>
                <end>105884</end>
                <file id="src-3"/>
                <sourcetrack>
                  <mediatype>video</mediatype>
                  <trackindex>1</trackindex>
                </sourcetrack>
                <multiclip id="mcs-676">
                  <name>MCS-676</name>
                  <masterclipid>clip-master</masterclipid>
                  <collapsed>false</collapsed>
                  <angle>
                    <activevideoangle>false</activevideoangle>
                    <activeaudioangle>false</activeaudioangle>
                    <clip id="clip-1"/>
                  </angle>
                  <angle>
                    <activevideoangle>false</activevideoangle>
                    <activeaudioangle>false</activeaudioangle>
                    <clip id="clip-2"/>
                  </angle>
                  <angle>
                    <activevideoangle>true</activevideoangle>
                    <activeaudioangle>true</activeaudioangle>
                    <clip id="clip-3"/>
                  </angle>
                  <angle>
                    <activevideoangle>false</activevideoangle>
                    <activeaudioangle>false</activeaudioangle>
                    <clip id="clip-4"/>
                  </angle>
                  <angle>
                    <activevideoangle>false</activevideoangle>
                    <activeaudioangle>false</activeaudioangle>
                    <clip id="clip-5"/>
                  </angle>
                  <angle>
                    <activevideoangle>false</activevideoangle>
                    <activeaudioangle>false</activeaudioangle>
                    <clip id="clip-6"/>
                  </angle>
                  <angle>
                    <activevideoangle>false</activevideoangle>
                    <activeaudioangle>false</activeaudioangle>
                    <clip id="clip-7"/>
                  </angle>
                  <angle>
                    <activevideoangle>false</activevideoangle>
                    <activeaudioangle>false</activeaudioangle>
                    <clip id="clip-8"/>
                  </angle>
                  <angle>
                    <activevideoangle>false</activevideoangle>
                    <activeaudioangle>false</activeaudioangle>
                    <clip id="clip-9"/>
                  </angle>
                  <masterclipid>clip-master</masterclipid>
                </multiclip>
              </clipitem>
              <clipitem id="cs-677">
                <duration>40</duration>
                <rate>
                  <ntsc>false</ntsc>
                  <timebase>25</timebase>
                </rate>
                <in>105884</in>
                <out>105923</out>
                <start>105884</start>
                <end>105923</end>
                <file id="src-5"/>
                <sourcetrack>
                  <mediatype>video</mediatype>
                  <trackindex>1</trackindex>
                </sourcetrack>
                <multiclip id="mcs-677">
                  <name>MCS-677</name>
                  <masterclipid>clip-master</masterclipid>
                  <collapsed>false</collapsed>
                  <angle>
                    <activevideoangle>false</activevideoangle>
                    <activeaudioangle>false</activeaudioangle>
                    <clip id="clip-1"/>
                  </angle>
                  <angle>
                    <activevideoangle>false</activevideoangle>
                    <activeaudioangle>false</activeaudioangle>
                    <clip id="clip-2"/>
                  </angle>
                  <angle>
                    <activevideoangle>false</activevideoangle>
                    <activeaudioangle>false</activeaudioangle>
                    <clip id="clip-3"/>
                  </angle>
                  <angle>
                    <activevideoangle>false</activevideoangle>
                    <activeaudioangle>false</activeaudioangle>
                    <clip id="clip-4"/>
                  </angle>
                  <angle>
                    <activevideoangle>true</activevideoangle>
                    <activeaudioangle>true</activeaudioangle>
                    <clip id="clip-5"/>
                  </angle>
                  <angle>
                    <activevideoangle>false</activevideoangle>
                    <activeaudioangle>false</activeaudioangle>
                    <clip id="clip-6"/>
                  </angle>
                  <angle>
                    <activevideoangle>false</activevideoangle>
                    <activeaudioangle>false</activeaudioangle>
                    <clip id="clip-7"/>
                  </angle>
                  <angle>
                    <activevideoangle>false</activevideoangle>
                    <activeaudioangle>false</activeaudioangle>
                    <clip id="clip-8"/>
                  </angle>
                  <angle>
                    <activevideoangle>false</activevideoangle>
                    <activeaudioangle>false</activeaudioangle>
                    <clip id="clip-9"/>
                  </angle>
                  <masterclipid>clip-master</masterclipid>
                </multiclip>
              </clipitem>
              <clipitem id="cs-678">
                <duration>144</duration>
                <rate>
                  <ntsc>false</ntsc>
                  <timebase>25</timebase>
                </rate>
                <in>105923</in>
                <out>106066</out>
                <start>105923</start>
                <end>106066</end>
                <file id="src-2"/>
                <sourcetrack>
                  <mediatype>video</mediatype>
                  <trackindex>1</trackindex>
                </sourcetrack>
                <multiclip id="mcs-678">
                  <name>MCS-678</name>
                  <masterclipid>clip-master</masterclipid>
                  <collapsed>false</collapsed>
                  <angle>
                    <activevideoangle>false</activevideoangle>
                    <activeaudioangle>false</activeaudioangle>
                    <clip id="clip-1"/>
                  </angle>
                  <angle>
                    <activevideoangle>true</activevideoangle>
                    <activeaudioangle>true</activeaudioangle>
                    <clip id="clip-2"/>
                  </angle>
                  <angle>
                    <activevideoangle>false</activevideoangle>
                    <activeaudioangle>false</activeaudioangle>
                    <clip id="clip-3"/>
                  </angle>
                  <angle>
                    <activevideoangle>false</activevideoangle>
                    <activeaudioangle>false</activeaudioangle>
                    <clip id="clip-4"/>
                  </angle>
                  <angle>
                    <activevideoangle>false</activevideoangle>
                    <activeaudioangle>false</activeaudioangle>
                    <clip id="clip-5"/>
                  </angle>
                  <angle>
                    <activevideoangle>false</activevideoangle>
                    <activeaudioangle>false</activeaudioangle>
                    <clip id="clip-6"/>
                  </angle>
                  <angle>
                    <activevideoangle>false</activevideoangle>
                    <activeaudioangle>false</activeaudioangle>
                    <clip id="clip-7"/>
                  </angle>
                  <angle>
                    <activevideoangle>false</activevideoangle>
                    <activeaudioangle>false</activeaudioangle>
                    <clip id="clip-8"/>
                  </angle>
                  <angle>
                    <activevideoangle>false</activevideoangle>
                    <activeaudioangle>false</activeaudioangle>
                    <clip id="clip-9"/>
                  </angle>
                  <masterclipid>clip-master</masterclipid>
                </multiclip>
              </clipitem>
              <clipitem id="cs-679">
                <duration>47</duration>
                <rate>
                  <ntsc>false</ntsc>
                  <timebase>25</timebase>
                </rate>
                <in>106066</in>
                <out>106112</out>
                <start>106066</start>
                <end>106112</end>
                <file id="src-3"/>
                <sourcetrack>
                  <mediatype>video</mediatype>
                  <trackindex>1</trackindex>
                </sourcetrack>
                <multiclip id="mcs-679">
                  <name>MCS-679</name>
                  <masterclipid>clip-master</masterclipid>
                  <collapsed>false</collapsed>
                  <angle>
                    <activevideoangle>false</activevideoangle>
                    <activeaudioangle>false</activeaudioangle>
                    <clip id="clip-1"/>
                  </angle>
                  <angle>
                    <activevideoangle>false</activevideoangle>
                    <activeaudioangle>false</activeaudioangle>
                    <clip id="clip-2"/>
                  </angle>
                  <angle>
                    <activevideoangle>true</activevideoangle>
                    <activeaudioangle>true</activeaudioangle>
                    <clip id="clip-3"/>
                  </angle>
                  <angle>
                    <activevideoangle>false</activevideoangle>
                    <activeaudioangle>false</activeaudioangle>
                    <clip id="clip-4"/>
                  </angle>
                  <angle>
                    <activevideoangle>false</activevideoangle>
                    <activeaudioangle>false</activeaudioangle>
                    <clip id="clip-5"/>
                  </angle>
                  <angle>
                    <activevideoangle>false</activevideoangle>
                    <activeaudioangle>false</activeaudioangle>
                    <clip id="clip-6"/>
                  </angle>
                  <angle>
                    <activevideoangle>false</activevideoangle>
                    <activeaudioangle>false</activeaudioangle>
                    <clip id="clip-7"/>
                  </angle>
                  <angle>
                    <activevideoangle>false</activevideoangle>
                    <activeaudioangle>false</activeaudioangle>
                    <clip id="clip-8"/>
                  </angle>
                  <angle>
                    <activevideoangle>false</activevideoangle>
                    <activeaudioangle>false</activeaudioangle>
                    <clip id="clip-9"/>
                  </angle>
                  <masterclipid>clip-master</masterclipid>
                </multiclip>
              </clipitem>
              <clipitem id="cs-680">
                <duration>155</duration>
                <rate>
                  <ntsc>false</ntsc>
                  <timebase>25</timebase>
                </rate>
                <in>106112</in>
                <out>106266</out>
                <start>106112</start>
                <end>106266</end>
                <file id="src-4"/>
                <sourcetrack>
                  <mediatype>video</mediatype>
                  <trackindex>1</trackindex>
                </sourcetrack>
                <multiclip id="mcs-680">
                  <name>MCS-680</name>
                  <masterclipid>clip-master</masterclipid>
                  <collapsed>false</collapsed>
                  <angle>
                    <activevideoangle>false</activevideoangle>
                    <activeaudioangle>false</activeaudioangle>
                    <clip id="clip-1"/>
                  </angle>
                  <angle>
                    <activevideoangle>false</activevideoangle>
                    <activeaudioangle>false</activeaudioangle>
                    <clip id="clip-2"/>
                  </angle>
                  <angle>
                    <activevideoangle>false</activevideoangle>
                    <activeaudioangle>false</activeaudioangle>
                    <clip id="clip-3"/>
                  </angle>
                  <angle>
                    <activevideoangle>true</activevideoangle>
                    <activeaudioangle>true</activeaudioangle>
                    <clip id="clip-4"/>
                  </angle>
                  <angle>
                    <activevideoangle>false</activevideoangle>
                    <activeaudioangle>false</activeaudioangle>
                    <clip id="clip-5"/>
                  </angle>
                  <angle>
                    <activevideoangle>false</activevideoangle>
                    <activeaudioangle>false</activeaudioangle>
                    <clip id="clip-6"/>
                  </angle>
                  <angle>
                    <activevideoangle>false</activevideoangle>
                    <activeaudioangle>false</activeaudioangle>
                    <clip id="clip-7"/>
                  </angle>
                  <angle>
                    <activevideoangle>false</activevideoangle>
                    <activeaudioangle>false</activeaudioangle>
                    <clip id="clip-8"/>
                  </angle>
                  <angle>
                    <activevideoangle>false</activevideoangle>
                    <activeaudioangle>false</activeaudioangle>
                    <clip id="clip-9"/>
                  </angle>
                  <masterclipid>clip-master</masterclipid>
                </multiclip>
              </clipitem>
              <clipitem id="cs-681">
                <duration>60</duration>
                <rate>
                  <ntsc>false</ntsc>
                  <timebase>25</timebase>
                </rate>
                <in>106266</in>
                <out>106325</out>
                <start>106266</start>
                <end>106325</end>
                <file id="src-5"/>
                <sourcetrack>
                  <mediatype>video</mediatype>
                  <trackindex>1</trackindex>
                </sourcetrack>
                <multiclip id="mcs-681">
                  <name>MCS-681</name>
                  <masterclipid>clip-master</masterclipid>
                  <collapsed>false</collapsed>
                  <angle>
                    <activevideoangle>false</activevideoangle>
                    <activeaudioangle>false</activeaudioangle>
                    <clip id="clip-1"/>
                  </angle>
                  <angle>
                    <activevideoangle>false</activevideoangle>
                    <activeaudioangle>false</activeaudioangle>
                    <clip id="clip-2"/>
                  </angle>
                  <angle>
                    <activevideoangle>false</activevideoangle>
                    <activeaudioangle>false</activeaudioangle>
                    <clip id="clip-3"/>
                  </angle>
                  <angle>
                    <activevideoangle>false</activevideoangle>
                    <activeaudioangle>false</activeaudioangle>
                    <clip id="clip-4"/>
                  </angle>
                  <angle>
                    <activevideoangle>true</activevideoangle>
                    <activeaudioangle>true</activeaudioangle>
                    <clip id="clip-5"/>
                  </angle>
                  <angle>
                    <activevideoangle>false</activevideoangle>
                    <activeaudioangle>false</activeaudioangle>
                    <clip id="clip-6"/>
                  </angle>
                  <angle>
                    <activevideoangle>false</activevideoangle>
                    <activeaudioangle>false</activeaudioangle>
                    <clip id="clip-7"/>
                  </angle>
                  <angle>
                    <activevideoangle>false</activevideoangle>
                    <activeaudioangle>false</activeaudioangle>
                    <clip id="clip-8"/>
                  </angle>
                  <angle>
                    <activevideoangle>false</activevideoangle>
                    <activeaudioangle>false</activeaudioangle>
                    <clip id="clip-9"/>
                  </angle>
                  <masterclipid>clip-master</masterclipid>
                </multiclip>
              </clipitem>
              <clipitem id="cs-682">
                <duration>44</duration>
                <rate>
                  <ntsc>false</ntsc>
                  <timebase>25</timebase>
                </rate>
                <in>106325</in>
                <out>106368</out>
                <start>106325</start>
                <end>106368</end>
                <file id="src-4"/>
                <sourcetrack>
                  <mediatype>video</mediatype>
                  <trackindex>1</trackindex>
                </sourcetrack>
                <multiclip id="mcs-682">
                  <name>MCS-682</name>
                  <masterclipid>clip-master</masterclipid>
                  <collapsed>false</collapsed>
                  <angle>
                    <activevideoangle>false</activevideoangle>
                    <activeaudioangle>false</activeaudioangle>
                    <clip id="clip-1"/>
                  </angle>
                  <angle>
                    <activevideoangle>false</activevideoangle>
                    <activeaudioangle>false</activeaudioangle>
                    <clip id="clip-2"/>
                  </angle>
                  <angle>
                    <activevideoangle>false</activevideoangle>
                    <activeaudioangle>false</activeaudioangle>
                    <clip id="clip-3"/>
                  </angle>
                  <angle>
                    <activevideoangle>true</activevideoangle>
                    <activeaudioangle>true</activeaudioangle>
                    <clip id="clip-4"/>
                  </angle>
                  <angle>
                    <activevideoangle>false</activevideoangle>
                    <activeaudioangle>false</activeaudioangle>
                    <clip id="clip-5"/>
                  </angle>
                  <angle>
                    <activevideoangle>false</activevideoangle>
                    <activeaudioangle>false</activeaudioangle>
                    <clip id="clip-6"/>
                  </angle>
                  <angle>
                    <activevideoangle>false</activevideoangle>
                    <activeaudioangle>false</activeaudioangle>
                    <clip id="clip-7"/>
                  </angle>
                  <angle>
                    <activevideoangle>false</activevideoangle>
                    <activeaudioangle>false</activeaudioangle>
                    <clip id="clip-8"/>
                  </angle>
                  <angle>
                    <activevideoangle>false</activevideoangle>
                    <activeaudioangle>false</activeaudioangle>
                    <clip id="clip-9"/>
                  </angle>
                  <masterclipid>clip-master</masterclipid>
                </multiclip>
              </clipitem>
              <clipitem id="cs-683">
                <duration>55</duration>
                <rate>
                  <ntsc>false</ntsc>
                  <timebase>25</timebase>
                </rate>
                <in>106368</in>
                <out>106422</out>
                <start>106368</start>
                <end>106422</end>
                <file id="src-6"/>
                <sourcetrack>
                  <mediatype>video</mediatype>
                  <trackindex>1</trackindex>
                </sourcetrack>
                <multiclip id="mcs-683">
                  <name>MCS-683</name>
                  <masterclipid>clip-master</masterclipid>
                  <collapsed>false</collapsed>
                  <angle>
                    <activevideoangle>false</activevideoangle>
                    <activeaudioangle>false</activeaudioangle>
                    <clip id="clip-1"/>
                  </angle>
                  <angle>
                    <activevideoangle>false</activevideoangle>
                    <activeaudioangle>false</activeaudioangle>
                    <clip id="clip-2"/>
                  </angle>
                  <angle>
                    <activevideoangle>false</activevideoangle>
                    <activeaudioangle>false</activeaudioangle>
                    <clip id="clip-3"/>
                  </angle>
                  <angle>
                    <activevideoangle>false</activevideoangle>
                    <activeaudioangle>false</activeaudioangle>
                    <clip id="clip-4"/>
                  </angle>
                  <angle>
                    <activevideoangle>false</activevideoangle>
                    <activeaudioangle>false</activeaudioangle>
                    <clip id="clip-5"/>
                  </angle>
                  <angle>
                    <activevideoangle>true</activevideoangle>
                    <activeaudioangle>true</activeaudioangle>
                    <clip id="clip-6"/>
                  </angle>
                  <angle>
                    <activevideoangle>false</activevideoangle>
                    <activeaudioangle>false</activeaudioangle>
                    <clip id="clip-7"/>
                  </angle>
                  <angle>
                    <activevideoangle>false</activevideoangle>
                    <activeaudioangle>false</activeaudioangle>
                    <clip id="clip-8"/>
                  </angle>
                  <angle>
                    <activevideoangle>false</activevideoangle>
                    <activeaudioangle>false</activeaudioangle>
                    <clip id="clip-9"/>
                  </angle>
                  <masterclipid>clip-master</masterclipid>
                </multiclip>
              </clipitem>
              <clipitem id="cs-684">
                <duration>79</duration>
                <rate>
                  <ntsc>false</ntsc>
                  <timebase>25</timebase>
                </rate>
                <in>106422</in>
                <out>106500</out>
                <start>106422</start>
                <end>106500</end>
                <file id="src-4"/>
                <sourcetrack>
                  <mediatype>video</mediatype>
                  <trackindex>1</trackindex>
                </sourcetrack>
                <multiclip id="mcs-684">
                  <name>MCS-684</name>
                  <masterclipid>clip-master</masterclipid>
                  <collapsed>false</collapsed>
                  <angle>
                    <activevideoangle>false</activevideoangle>
                    <activeaudioangle>false</activeaudioangle>
                    <clip id="clip-1"/>
                  </angle>
                  <angle>
                    <activevideoangle>false</activevideoangle>
                    <activeaudioangle>false</activeaudioangle>
                    <clip id="clip-2"/>
                  </angle>
                  <angle>
                    <activevideoangle>false</activevideoangle>
                    <activeaudioangle>false</activeaudioangle>
                    <clip id="clip-3"/>
                  </angle>
                  <angle>
                    <activevideoangle>true</activevideoangle>
                    <activeaudioangle>true</activeaudioangle>
                    <clip id="clip-4"/>
                  </angle>
                  <angle>
                    <activevideoangle>false</activevideoangle>
                    <activeaudioangle>false</activeaudioangle>
                    <clip id="clip-5"/>
                  </angle>
                  <angle>
                    <activevideoangle>false</activevideoangle>
                    <activeaudioangle>false</activeaudioangle>
                    <clip id="clip-6"/>
                  </angle>
                  <angle>
                    <activevideoangle>false</activevideoangle>
                    <activeaudioangle>false</activeaudioangle>
                    <clip id="clip-7"/>
                  </angle>
                  <angle>
                    <activevideoangle>false</activevideoangle>
                    <activeaudioangle>false</activeaudioangle>
                    <clip id="clip-8"/>
                  </angle>
                  <angle>
                    <activevideoangle>false</activevideoangle>
                    <activeaudioangle>false</activeaudioangle>
                    <clip id="clip-9"/>
                  </angle>
                  <masterclipid>clip-master</masterclipid>
                </multiclip>
              </clipitem>
              <clipitem id="cs-685">
                <duration>58</duration>
                <rate>
                  <ntsc>false</ntsc>
                  <timebase>25</timebase>
                </rate>
                <in>106500</in>
                <out>106557</out>
                <start>106500</start>
                <end>106557</end>
                <file id="src-3"/>
                <sourcetrack>
                  <mediatype>video</mediatype>
                  <trackindex>1</trackindex>
                </sourcetrack>
                <multiclip id="mcs-685">
                  <name>MCS-685</name>
                  <masterclipid>clip-master</masterclipid>
                  <collapsed>false</collapsed>
                  <angle>
                    <activevideoangle>false</activevideoangle>
                    <activeaudioangle>false</activeaudioangle>
                    <clip id="clip-1"/>
                  </angle>
                  <angle>
                    <activevideoangle>false</activevideoangle>
                    <activeaudioangle>false</activeaudioangle>
                    <clip id="clip-2"/>
                  </angle>
                  <angle>
                    <activevideoangle>true</activevideoangle>
                    <activeaudioangle>true</activeaudioangle>
                    <clip id="clip-3"/>
                  </angle>
                  <angle>
                    <activevideoangle>false</activevideoangle>
                    <activeaudioangle>false</activeaudioangle>
                    <clip id="clip-4"/>
                  </angle>
                  <angle>
                    <activevideoangle>false</activevideoangle>
                    <activeaudioangle>false</activeaudioangle>
                    <clip id="clip-5"/>
                  </angle>
                  <angle>
                    <activevideoangle>false</activevideoangle>
                    <activeaudioangle>false</activeaudioangle>
                    <clip id="clip-6"/>
                  </angle>
                  <angle>
                    <activevideoangle>false</activevideoangle>
                    <activeaudioangle>false</activeaudioangle>
                    <clip id="clip-7"/>
                  </angle>
                  <angle>
                    <activevideoangle>false</activevideoangle>
                    <activeaudioangle>false</activeaudioangle>
                    <clip id="clip-8"/>
                  </angle>
                  <angle>
                    <activevideoangle>false</activevideoangle>
                    <activeaudioangle>false</activeaudioangle>
                    <clip id="clip-9"/>
                  </angle>
                  <masterclipid>clip-master</masterclipid>
                </multiclip>
              </clipitem>
              <clipitem id="cs-686">
                <duration>107</duration>
                <rate>
                  <ntsc>false</ntsc>
                  <timebase>25</timebase>
                </rate>
                <in>106557</in>
                <out>106663</out>
                <start>106557</start>
                <end>106663</end>
                <file id="src-2"/>
                <sourcetrack>
                  <mediatype>video</mediatype>
                  <trackindex>1</trackindex>
                </sourcetrack>
                <multiclip id="mcs-686">
                  <name>MCS-686</name>
                  <masterclipid>clip-master</masterclipid>
                  <collapsed>false</collapsed>
                  <angle>
                    <activevideoangle>false</activevideoangle>
                    <activeaudioangle>false</activeaudioangle>
                    <clip id="clip-1"/>
                  </angle>
                  <angle>
                    <activevideoangle>true</activevideoangle>
                    <activeaudioangle>true</activeaudioangle>
                    <clip id="clip-2"/>
                  </angle>
                  <angle>
                    <activevideoangle>false</activevideoangle>
                    <activeaudioangle>false</activeaudioangle>
                    <clip id="clip-3"/>
                  </angle>
                  <angle>
                    <activevideoangle>false</activevideoangle>
                    <activeaudioangle>false</activeaudioangle>
                    <clip id="clip-4"/>
                  </angle>
                  <angle>
                    <activevideoangle>false</activevideoangle>
                    <activeaudioangle>false</activeaudioangle>
                    <clip id="clip-5"/>
                  </angle>
                  <angle>
                    <activevideoangle>false</activevideoangle>
                    <activeaudioangle>false</activeaudioangle>
                    <clip id="clip-6"/>
                  </angle>
                  <angle>
                    <activevideoangle>false</activevideoangle>
                    <activeaudioangle>false</activeaudioangle>
                    <clip id="clip-7"/>
                  </angle>
                  <angle>
                    <activevideoangle>false</activevideoangle>
                    <activeaudioangle>false</activeaudioangle>
                    <clip id="clip-8"/>
                  </angle>
                  <angle>
                    <activevideoangle>false</activevideoangle>
                    <activeaudioangle>false</activeaudioangle>
                    <clip id="clip-9"/>
                  </angle>
                  <masterclipid>clip-master</masterclipid>
                </multiclip>
              </clipitem>
              <clipitem id="cs-687">
                <duration>155</duration>
                <rate>
                  <ntsc>false</ntsc>
                  <timebase>25</timebase>
                </rate>
                <in>106663</in>
                <out>106817</out>
                <start>106663</start>
                <end>106817</end>
                <file id="src-4"/>
                <sourcetrack>
                  <mediatype>video</mediatype>
                  <trackindex>1</trackindex>
                </sourcetrack>
                <multiclip id="mcs-687">
                  <name>MCS-687</name>
                  <masterclipid>clip-master</masterclipid>
                  <collapsed>false</collapsed>
                  <angle>
                    <activevideoangle>false</activevideoangle>
                    <activeaudioangle>false</activeaudioangle>
                    <clip id="clip-1"/>
                  </angle>
                  <angle>
                    <activevideoangle>false</activevideoangle>
                    <activeaudioangle>false</activeaudioangle>
                    <clip id="clip-2"/>
                  </angle>
                  <angle>
                    <activevideoangle>false</activevideoangle>
                    <activeaudioangle>false</activeaudioangle>
                    <clip id="clip-3"/>
                  </angle>
                  <angle>
                    <activevideoangle>true</activevideoangle>
                    <activeaudioangle>true</activeaudioangle>
                    <clip id="clip-4"/>
                  </angle>
                  <angle>
                    <activevideoangle>false</activevideoangle>
                    <activeaudioangle>false</activeaudioangle>
                    <clip id="clip-5"/>
                  </angle>
                  <angle>
                    <activevideoangle>false</activevideoangle>
                    <activeaudioangle>false</activeaudioangle>
                    <clip id="clip-6"/>
                  </angle>
                  <angle>
                    <activevideoangle>false</activevideoangle>
                    <activeaudioangle>false</activeaudioangle>
                    <clip id="clip-7"/>
                  </angle>
                  <angle>
                    <activevideoangle>false</activevideoangle>
                    <activeaudioangle>false</activeaudioangle>
                    <clip id="clip-8"/>
                  </angle>
                  <angle>
                    <activevideoangle>false</activevideoangle>
                    <activeaudioangle>false</activeaudioangle>
                    <clip id="clip-9"/>
                  </angle>
                  <masterclipid>clip-master</masterclipid>
                </multiclip>
              </clipitem>
              <clipitem id="cs-688">
                <duration>87</duration>
                <rate>
                  <ntsc>false</ntsc>
                  <timebase>25</timebase>
                </rate>
                <in>106817</in>
                <out>106903</out>
                <start>106817</start>
                <end>106903</end>
                <file id="src-3"/>
                <sourcetrack>
                  <mediatype>video</mediatype>
                  <trackindex>1</trackindex>
                </sourcetrack>
                <multiclip id="mcs-688">
                  <name>MCS-688</name>
                  <masterclipid>clip-master</masterclipid>
                  <collapsed>false</collapsed>
                  <angle>
                    <activevideoangle>false</activevideoangle>
                    <activeaudioangle>false</activeaudioangle>
                    <clip id="clip-1"/>
                  </angle>
                  <angle>
                    <activevideoangle>false</activevideoangle>
                    <activeaudioangle>false</activeaudioangle>
                    <clip id="clip-2"/>
                  </angle>
                  <angle>
                    <activevideoangle>true</activevideoangle>
                    <activeaudioangle>true</activeaudioangle>
                    <clip id="clip-3"/>
                  </angle>
                  <angle>
                    <activevideoangle>false</activevideoangle>
                    <activeaudioangle>false</activeaudioangle>
                    <clip id="clip-4"/>
                  </angle>
                  <angle>
                    <activevideoangle>false</activevideoangle>
                    <activeaudioangle>false</activeaudioangle>
                    <clip id="clip-5"/>
                  </angle>
                  <angle>
                    <activevideoangle>false</activevideoangle>
                    <activeaudioangle>false</activeaudioangle>
                    <clip id="clip-6"/>
                  </angle>
                  <angle>
                    <activevideoangle>false</activevideoangle>
                    <activeaudioangle>false</activeaudioangle>
                    <clip id="clip-7"/>
                  </angle>
                  <angle>
                    <activevideoangle>false</activevideoangle>
                    <activeaudioangle>false</activeaudioangle>
                    <clip id="clip-8"/>
                  </angle>
                  <angle>
                    <activevideoangle>false</activevideoangle>
                    <activeaudioangle>false</activeaudioangle>
                    <clip id="clip-9"/>
                  </angle>
                  <masterclipid>clip-master</masterclipid>
                </multiclip>
              </clipitem>
              <clipitem id="cs-689">
                <duration>82</duration>
                <rate>
                  <ntsc>false</ntsc>
                  <timebase>25</timebase>
                </rate>
                <in>106903</in>
                <out>106984</out>
                <start>106903</start>
                <end>106984</end>
                <file id="src-2"/>
                <sourcetrack>
                  <mediatype>video</mediatype>
                  <trackindex>1</trackindex>
                </sourcetrack>
                <multiclip id="mcs-689">
                  <name>MCS-689</name>
                  <masterclipid>clip-master</masterclipid>
                  <collapsed>false</collapsed>
                  <angle>
                    <activevideoangle>false</activevideoangle>
                    <activeaudioangle>false</activeaudioangle>
                    <clip id="clip-1"/>
                  </angle>
                  <angle>
                    <activevideoangle>true</activevideoangle>
                    <activeaudioangle>true</activeaudioangle>
                    <clip id="clip-2"/>
                  </angle>
                  <angle>
                    <activevideoangle>false</activevideoangle>
                    <activeaudioangle>false</activeaudioangle>
                    <clip id="clip-3"/>
                  </angle>
                  <angle>
                    <activevideoangle>false</activevideoangle>
                    <activeaudioangle>false</activeaudioangle>
                    <clip id="clip-4"/>
                  </angle>
                  <angle>
                    <activevideoangle>false</activevideoangle>
                    <activeaudioangle>false</activeaudioangle>
                    <clip id="clip-5"/>
                  </angle>
                  <angle>
                    <activevideoangle>false</activevideoangle>
                    <activeaudioangle>false</activeaudioangle>
                    <clip id="clip-6"/>
                  </angle>
                  <angle>
                    <activevideoangle>false</activevideoangle>
                    <activeaudioangle>false</activeaudioangle>
                    <clip id="clip-7"/>
                  </angle>
                  <angle>
                    <activevideoangle>false</activevideoangle>
                    <activeaudioangle>false</activeaudioangle>
                    <clip id="clip-8"/>
                  </angle>
                  <angle>
                    <activevideoangle>false</activevideoangle>
                    <activeaudioangle>false</activeaudioangle>
                    <clip id="clip-9"/>
                  </angle>
                  <masterclipid>clip-master</masterclipid>
                </multiclip>
              </clipitem>
              <clipitem id="cs-690">
                <duration>209</duration>
                <rate>
                  <ntsc>false</ntsc>
                  <timebase>25</timebase>
                </rate>
                <in>106984</in>
                <out>107192</out>
                <start>106984</start>
                <end>107192</end>
                <file id="src-4"/>
                <sourcetrack>
                  <mediatype>video</mediatype>
                  <trackindex>1</trackindex>
                </sourcetrack>
                <multiclip id="mcs-690">
                  <name>MCS-690</name>
                  <masterclipid>clip-master</masterclipid>
                  <collapsed>false</collapsed>
                  <angle>
                    <activevideoangle>false</activevideoangle>
                    <activeaudioangle>false</activeaudioangle>
                    <clip id="clip-1"/>
                  </angle>
                  <angle>
                    <activevideoangle>false</activevideoangle>
                    <activeaudioangle>false</activeaudioangle>
                    <clip id="clip-2"/>
                  </angle>
                  <angle>
                    <activevideoangle>false</activevideoangle>
                    <activeaudioangle>false</activeaudioangle>
                    <clip id="clip-3"/>
                  </angle>
                  <angle>
                    <activevideoangle>true</activevideoangle>
                    <activeaudioangle>true</activeaudioangle>
                    <clip id="clip-4"/>
                  </angle>
                  <angle>
                    <activevideoangle>false</activevideoangle>
                    <activeaudioangle>false</activeaudioangle>
                    <clip id="clip-5"/>
                  </angle>
                  <angle>
                    <activevideoangle>false</activevideoangle>
                    <activeaudioangle>false</activeaudioangle>
                    <clip id="clip-6"/>
                  </angle>
                  <angle>
                    <activevideoangle>false</activevideoangle>
                    <activeaudioangle>false</activeaudioangle>
                    <clip id="clip-7"/>
                  </angle>
                  <angle>
                    <activevideoangle>false</activevideoangle>
                    <activeaudioangle>false</activeaudioangle>
                    <clip id="clip-8"/>
                  </angle>
                  <angle>
                    <activevideoangle>false</activevideoangle>
                    <activeaudioangle>false</activeaudioangle>
                    <clip id="clip-9"/>
                  </angle>
                  <masterclipid>clip-master</masterclipid>
                </multiclip>
              </clipitem>
              <clipitem id="cs-691">
                <duration>75</duration>
                <rate>
                  <ntsc>false</ntsc>
                  <timebase>25</timebase>
                </rate>
                <in>107192</in>
                <out>107266</out>
                <start>107192</start>
                <end>107266</end>
                <file id="src-5"/>
                <sourcetrack>
                  <mediatype>video</mediatype>
                  <trackindex>1</trackindex>
                </sourcetrack>
                <multiclip id="mcs-691">
                  <name>MCS-691</name>
                  <masterclipid>clip-master</masterclipid>
                  <collapsed>false</collapsed>
                  <angle>
                    <activevideoangle>false</activevideoangle>
                    <activeaudioangle>false</activeaudioangle>
                    <clip id="clip-1"/>
                  </angle>
                  <angle>
                    <activevideoangle>false</activevideoangle>
                    <activeaudioangle>false</activeaudioangle>
                    <clip id="clip-2"/>
                  </angle>
                  <angle>
                    <activevideoangle>false</activevideoangle>
                    <activeaudioangle>false</activeaudioangle>
                    <clip id="clip-3"/>
                  </angle>
                  <angle>
                    <activevideoangle>false</activevideoangle>
                    <activeaudioangle>false</activeaudioangle>
                    <clip id="clip-4"/>
                  </angle>
                  <angle>
                    <activevideoangle>true</activevideoangle>
                    <activeaudioangle>true</activeaudioangle>
                    <clip id="clip-5"/>
                  </angle>
                  <angle>
                    <activevideoangle>false</activevideoangle>
                    <activeaudioangle>false</activeaudioangle>
                    <clip id="clip-6"/>
                  </angle>
                  <angle>
                    <activevideoangle>false</activevideoangle>
                    <activeaudioangle>false</activeaudioangle>
                    <clip id="clip-7"/>
                  </angle>
                  <angle>
                    <activevideoangle>false</activevideoangle>
                    <activeaudioangle>false</activeaudioangle>
                    <clip id="clip-8"/>
                  </angle>
                  <angle>
                    <activevideoangle>false</activevideoangle>
                    <activeaudioangle>false</activeaudioangle>
                    <clip id="clip-9"/>
                  </angle>
                  <masterclipid>clip-master</masterclipid>
                </multiclip>
              </clipitem>
              <clipitem id="cs-692">
                <duration>53</duration>
                <rate>
                  <ntsc>false</ntsc>
                  <timebase>25</timebase>
                </rate>
                <in>107266</in>
                <out>107318</out>
                <start>107266</start>
                <end>107318</end>
                <file id="src-2"/>
                <sourcetrack>
                  <mediatype>video</mediatype>
                  <trackindex>1</trackindex>
                </sourcetrack>
                <multiclip id="mcs-692">
                  <name>MCS-692</name>
                  <masterclipid>clip-master</masterclipid>
                  <collapsed>false</collapsed>
                  <angle>
                    <activevideoangle>false</activevideoangle>
                    <activeaudioangle>false</activeaudioangle>
                    <clip id="clip-1"/>
                  </angle>
                  <angle>
                    <activevideoangle>true</activevideoangle>
                    <activeaudioangle>true</activeaudioangle>
                    <clip id="clip-2"/>
                  </angle>
                  <angle>
                    <activevideoangle>false</activevideoangle>
                    <activeaudioangle>false</activeaudioangle>
                    <clip id="clip-3"/>
                  </angle>
                  <angle>
                    <activevideoangle>false</activevideoangle>
                    <activeaudioangle>false</activeaudioangle>
                    <clip id="clip-4"/>
                  </angle>
                  <angle>
                    <activevideoangle>false</activevideoangle>
                    <activeaudioangle>false</activeaudioangle>
                    <clip id="clip-5"/>
                  </angle>
                  <angle>
                    <activevideoangle>false</activevideoangle>
                    <activeaudioangle>false</activeaudioangle>
                    <clip id="clip-6"/>
                  </angle>
                  <angle>
                    <activevideoangle>false</activevideoangle>
                    <activeaudioangle>false</activeaudioangle>
                    <clip id="clip-7"/>
                  </angle>
                  <angle>
                    <activevideoangle>false</activevideoangle>
                    <activeaudioangle>false</activeaudioangle>
                    <clip id="clip-8"/>
                  </angle>
                  <angle>
                    <activevideoangle>false</activevideoangle>
                    <activeaudioangle>false</activeaudioangle>
                    <clip id="clip-9"/>
                  </angle>
                  <masterclipid>clip-master</masterclipid>
                </multiclip>
              </clipitem>
              <clipitem id="cs-693">
                <duration>112</duration>
                <rate>
                  <ntsc>false</ntsc>
                  <timebase>25</timebase>
                </rate>
                <in>107318</in>
                <out>107429</out>
                <start>107318</start>
                <end>107429</end>
                <file id="src-3"/>
                <sourcetrack>
                  <mediatype>video</mediatype>
                  <trackindex>1</trackindex>
                </sourcetrack>
                <multiclip id="mcs-693">
                  <name>MCS-693</name>
                  <masterclipid>clip-master</masterclipid>
                  <collapsed>false</collapsed>
                  <angle>
                    <activevideoangle>false</activevideoangle>
                    <activeaudioangle>false</activeaudioangle>
                    <clip id="clip-1"/>
                  </angle>
                  <angle>
                    <activevideoangle>false</activevideoangle>
                    <activeaudioangle>false</activeaudioangle>
                    <clip id="clip-2"/>
                  </angle>
                  <angle>
                    <activevideoangle>true</activevideoangle>
                    <activeaudioangle>true</activeaudioangle>
                    <clip id="clip-3"/>
                  </angle>
                  <angle>
                    <activevideoangle>false</activevideoangle>
                    <activeaudioangle>false</activeaudioangle>
                    <clip id="clip-4"/>
                  </angle>
                  <angle>
                    <activevideoangle>false</activevideoangle>
                    <activeaudioangle>false</activeaudioangle>
                    <clip id="clip-5"/>
                  </angle>
                  <angle>
                    <activevideoangle>false</activevideoangle>
                    <activeaudioangle>false</activeaudioangle>
                    <clip id="clip-6"/>
                  </angle>
                  <angle>
                    <activevideoangle>false</activevideoangle>
                    <activeaudioangle>false</activeaudioangle>
                    <clip id="clip-7"/>
                  </angle>
                  <angle>
                    <activevideoangle>false</activevideoangle>
                    <activeaudioangle>false</activeaudioangle>
                    <clip id="clip-8"/>
                  </angle>
                  <angle>
                    <activevideoangle>false</activevideoangle>
                    <activeaudioangle>false</activeaudioangle>
                    <clip id="clip-9"/>
                  </angle>
                  <masterclipid>clip-master</masterclipid>
                </multiclip>
              </clipitem>
              <clipitem id="cs-694">
                <duration>181</duration>
                <rate>
                  <ntsc>false</ntsc>
                  <timebase>25</timebase>
                </rate>
                <in>107429</in>
                <out>107609</out>
                <start>107429</start>
                <end>107609</end>
                <file id="src-5"/>
                <sourcetrack>
                  <mediatype>video</mediatype>
                  <trackindex>1</trackindex>
                </sourcetrack>
                <multiclip id="mcs-694">
                  <name>MCS-694</name>
                  <masterclipid>clip-master</masterclipid>
                  <collapsed>false</collapsed>
                  <angle>
                    <activevideoangle>false</activevideoangle>
                    <activeaudioangle>false</activeaudioangle>
                    <clip id="clip-1"/>
                  </angle>
                  <angle>
                    <activevideoangle>false</activevideoangle>
                    <activeaudioangle>false</activeaudioangle>
                    <clip id="clip-2"/>
                  </angle>
                  <angle>
                    <activevideoangle>false</activevideoangle>
                    <activeaudioangle>false</activeaudioangle>
                    <clip id="clip-3"/>
                  </angle>
                  <angle>
                    <activevideoangle>false</activevideoangle>
                    <activeaudioangle>false</activeaudioangle>
                    <clip id="clip-4"/>
                  </angle>
                  <angle>
                    <activevideoangle>true</activevideoangle>
                    <activeaudioangle>true</activeaudioangle>
                    <clip id="clip-5"/>
                  </angle>
                  <angle>
                    <activevideoangle>false</activevideoangle>
                    <activeaudioangle>false</activeaudioangle>
                    <clip id="clip-6"/>
                  </angle>
                  <angle>
                    <activevideoangle>false</activevideoangle>
                    <activeaudioangle>false</activeaudioangle>
                    <clip id="clip-7"/>
                  </angle>
                  <angle>
                    <activevideoangle>false</activevideoangle>
                    <activeaudioangle>false</activeaudioangle>
                    <clip id="clip-8"/>
                  </angle>
                  <angle>
                    <activevideoangle>false</activevideoangle>
                    <activeaudioangle>false</activeaudioangle>
                    <clip id="clip-9"/>
                  </angle>
                  <masterclipid>clip-master</masterclipid>
                </multiclip>
              </clipitem>
              <clipitem id="cs-695">
                <duration>91</duration>
                <rate>
                  <ntsc>false</ntsc>
                  <timebase>25</timebase>
                </rate>
                <in>107609</in>
                <out>107699</out>
                <start>107609</start>
                <end>107699</end>
                <file id="src-2"/>
                <sourcetrack>
                  <mediatype>video</mediatype>
                  <trackindex>1</trackindex>
                </sourcetrack>
                <multiclip id="mcs-695">
                  <name>MCS-695</name>
                  <masterclipid>clip-master</masterclipid>
                  <collapsed>false</collapsed>
                  <angle>
                    <activevideoangle>false</activevideoangle>
                    <activeaudioangle>false</activeaudioangle>
                    <clip id="clip-1"/>
                  </angle>
                  <angle>
                    <activevideoangle>true</activevideoangle>
                    <activeaudioangle>true</activeaudioangle>
                    <clip id="clip-2"/>
                  </angle>
                  <angle>
                    <activevideoangle>false</activevideoangle>
                    <activeaudioangle>false</activeaudioangle>
                    <clip id="clip-3"/>
                  </angle>
                  <angle>
                    <activevideoangle>false</activevideoangle>
                    <activeaudioangle>false</activeaudioangle>
                    <clip id="clip-4"/>
                  </angle>
                  <angle>
                    <activevideoangle>false</activevideoangle>
                    <activeaudioangle>false</activeaudioangle>
                    <clip id="clip-5"/>
                  </angle>
                  <angle>
                    <activevideoangle>false</activevideoangle>
                    <activeaudioangle>false</activeaudioangle>
                    <clip id="clip-6"/>
                  </angle>
                  <angle>
                    <activevideoangle>false</activevideoangle>
                    <activeaudioangle>false</activeaudioangle>
                    <clip id="clip-7"/>
                  </angle>
                  <angle>
                    <activevideoangle>false</activevideoangle>
                    <activeaudioangle>false</activeaudioangle>
                    <clip id="clip-8"/>
                  </angle>
                  <angle>
                    <activevideoangle>false</activevideoangle>
                    <activeaudioangle>false</activeaudioangle>
                    <clip id="clip-9"/>
                  </angle>
                  <masterclipid>clip-master</masterclipid>
                </multiclip>
              </clipitem>
              <clipitem id="cs-696">
                <duration>158</duration>
                <rate>
                  <ntsc>false</ntsc>
                  <timebase>25</timebase>
                </rate>
                <in>107699</in>
                <out>107856</out>
                <start>107699</start>
                <end>107856</end>
                <file id="src-3"/>
                <sourcetrack>
                  <mediatype>video</mediatype>
                  <trackindex>1</trackindex>
                </sourcetrack>
                <multiclip id="mcs-696">
                  <name>MCS-696</name>
                  <masterclipid>clip-master</masterclipid>
                  <collapsed>false</collapsed>
                  <angle>
                    <activevideoangle>false</activevideoangle>
                    <activeaudioangle>false</activeaudioangle>
                    <clip id="clip-1"/>
                  </angle>
                  <angle>
                    <activevideoangle>false</activevideoangle>
                    <activeaudioangle>false</activeaudioangle>
                    <clip id="clip-2"/>
                  </angle>
                  <angle>
                    <activevideoangle>true</activevideoangle>
                    <activeaudioangle>true</activeaudioangle>
                    <clip id="clip-3"/>
                  </angle>
                  <angle>
                    <activevideoangle>false</activevideoangle>
                    <activeaudioangle>false</activeaudioangle>
                    <clip id="clip-4"/>
                  </angle>
                  <angle>
                    <activevideoangle>false</activevideoangle>
                    <activeaudioangle>false</activeaudioangle>
                    <clip id="clip-5"/>
                  </angle>
                  <angle>
                    <activevideoangle>false</activevideoangle>
                    <activeaudioangle>false</activeaudioangle>
                    <clip id="clip-6"/>
                  </angle>
                  <angle>
                    <activevideoangle>false</activevideoangle>
                    <activeaudioangle>false</activeaudioangle>
                    <clip id="clip-7"/>
                  </angle>
                  <angle>
                    <activevideoangle>false</activevideoangle>
                    <activeaudioangle>false</activeaudioangle>
                    <clip id="clip-8"/>
                  </angle>
                  <angle>
                    <activevideoangle>false</activevideoangle>
                    <activeaudioangle>false</activeaudioangle>
                    <clip id="clip-9"/>
                  </angle>
                  <masterclipid>clip-master</masterclipid>
                </multiclip>
              </clipitem>
              <clipitem id="cs-697">
                <duration>324</duration>
                <rate>
                  <ntsc>false</ntsc>
                  <timebase>25</timebase>
                </rate>
                <in>107856</in>
                <out>108179</out>
                <start>107856</start>
                <end>108179</end>
                <file id="src-4"/>
                <sourcetrack>
                  <mediatype>video</mediatype>
                  <trackindex>1</trackindex>
                </sourcetrack>
                <multiclip id="mcs-697">
                  <name>MCS-697</name>
                  <masterclipid>clip-master</masterclipid>
                  <collapsed>false</collapsed>
                  <angle>
                    <activevideoangle>false</activevideoangle>
                    <activeaudioangle>false</activeaudioangle>
                    <clip id="clip-1"/>
                  </angle>
                  <angle>
                    <activevideoangle>false</activevideoangle>
                    <activeaudioangle>false</activeaudioangle>
                    <clip id="clip-2"/>
                  </angle>
                  <angle>
                    <activevideoangle>false</activevideoangle>
                    <activeaudioangle>false</activeaudioangle>
                    <clip id="clip-3"/>
                  </angle>
                  <angle>
                    <activevideoangle>true</activevideoangle>
                    <activeaudioangle>true</activeaudioangle>
                    <clip id="clip-4"/>
                  </angle>
                  <angle>
                    <activevideoangle>false</activevideoangle>
                    <activeaudioangle>false</activeaudioangle>
                    <clip id="clip-5"/>
                  </angle>
                  <angle>
                    <activevideoangle>false</activevideoangle>
                    <activeaudioangle>false</activeaudioangle>
                    <clip id="clip-6"/>
                  </angle>
                  <angle>
                    <activevideoangle>false</activevideoangle>
                    <activeaudioangle>false</activeaudioangle>
                    <clip id="clip-7"/>
                  </angle>
                  <angle>
                    <activevideoangle>false</activevideoangle>
                    <activeaudioangle>false</activeaudioangle>
                    <clip id="clip-8"/>
                  </angle>
                  <angle>
                    <activevideoangle>false</activevideoangle>
                    <activeaudioangle>false</activeaudioangle>
                    <clip id="clip-9"/>
                  </angle>
                  <masterclipid>clip-master</masterclipid>
                </multiclip>
              </clipitem>
              <clipitem id="cs-698">
                <duration>323</duration>
                <rate>
                  <ntsc>false</ntsc>
                  <timebase>25</timebase>
                </rate>
                <in>108179</in>
                <out>108501</out>
                <start>108179</start>
                <end>108501</end>
                <file id="src-3"/>
                <sourcetrack>
                  <mediatype>video</mediatype>
                  <trackindex>1</trackindex>
                </sourcetrack>
                <multiclip id="mcs-698">
                  <name>MCS-698</name>
                  <masterclipid>clip-master</masterclipid>
                  <collapsed>false</collapsed>
                  <angle>
                    <activevideoangle>false</activevideoangle>
                    <activeaudioangle>false</activeaudioangle>
                    <clip id="clip-1"/>
                  </angle>
                  <angle>
                    <activevideoangle>false</activevideoangle>
                    <activeaudioangle>false</activeaudioangle>
                    <clip id="clip-2"/>
                  </angle>
                  <angle>
                    <activevideoangle>true</activevideoangle>
                    <activeaudioangle>true</activeaudioangle>
                    <clip id="clip-3"/>
                  </angle>
                  <angle>
                    <activevideoangle>false</activevideoangle>
                    <activeaudioangle>false</activeaudioangle>
                    <clip id="clip-4"/>
                  </angle>
                  <angle>
                    <activevideoangle>false</activevideoangle>
                    <activeaudioangle>false</activeaudioangle>
                    <clip id="clip-5"/>
                  </angle>
                  <angle>
                    <activevideoangle>false</activevideoangle>
                    <activeaudioangle>false</activeaudioangle>
                    <clip id="clip-6"/>
                  </angle>
                  <angle>
                    <activevideoangle>false</activevideoangle>
                    <activeaudioangle>false</activeaudioangle>
                    <clip id="clip-7"/>
                  </angle>
                  <angle>
                    <activevideoangle>false</activevideoangle>
                    <activeaudioangle>false</activeaudioangle>
                    <clip id="clip-8"/>
                  </angle>
                  <angle>
                    <activevideoangle>false</activevideoangle>
                    <activeaudioangle>false</activeaudioangle>
                    <clip id="clip-9"/>
                  </angle>
                  <masterclipid>clip-master</masterclipid>
                </multiclip>
              </clipitem>
              <clipitem id="cs-699">
                <duration>124</duration>
                <rate>
                  <ntsc>false</ntsc>
                  <timebase>25</timebase>
                </rate>
                <in>108501</in>
                <out>108624</out>
                <start>108501</start>
                <end>108624</end>
                <file id="src-2"/>
                <sourcetrack>
                  <mediatype>video</mediatype>
                  <trackindex>1</trackindex>
                </sourcetrack>
                <multiclip id="mcs-699">
                  <name>MCS-699</name>
                  <masterclipid>clip-master</masterclipid>
                  <collapsed>false</collapsed>
                  <angle>
                    <activevideoangle>false</activevideoangle>
                    <activeaudioangle>false</activeaudioangle>
                    <clip id="clip-1"/>
                  </angle>
                  <angle>
                    <activevideoangle>true</activevideoangle>
                    <activeaudioangle>true</activeaudioangle>
                    <clip id="clip-2"/>
                  </angle>
                  <angle>
                    <activevideoangle>false</activevideoangle>
                    <activeaudioangle>false</activeaudioangle>
                    <clip id="clip-3"/>
                  </angle>
                  <angle>
                    <activevideoangle>false</activevideoangle>
                    <activeaudioangle>false</activeaudioangle>
                    <clip id="clip-4"/>
                  </angle>
                  <angle>
                    <activevideoangle>false</activevideoangle>
                    <activeaudioangle>false</activeaudioangle>
                    <clip id="clip-5"/>
                  </angle>
                  <angle>
                    <activevideoangle>false</activevideoangle>
                    <activeaudioangle>false</activeaudioangle>
                    <clip id="clip-6"/>
                  </angle>
                  <angle>
                    <activevideoangle>false</activevideoangle>
                    <activeaudioangle>false</activeaudioangle>
                    <clip id="clip-7"/>
                  </angle>
                  <angle>
                    <activevideoangle>false</activevideoangle>
                    <activeaudioangle>false</activeaudioangle>
                    <clip id="clip-8"/>
                  </angle>
                  <angle>
                    <activevideoangle>false</activevideoangle>
                    <activeaudioangle>false</activeaudioangle>
                    <clip id="clip-9"/>
                  </angle>
                  <masterclipid>clip-master</masterclipid>
                </multiclip>
              </clipitem>
              <clipitem id="cs-700">
                <duration>82</duration>
                <rate>
                  <ntsc>false</ntsc>
                  <timebase>25</timebase>
                </rate>
                <in>108624</in>
                <out>108705</out>
                <start>108624</start>
                <end>108705</end>
                <file id="src-6"/>
                <sourcetrack>
                  <mediatype>video</mediatype>
                  <trackindex>1</trackindex>
                </sourcetrack>
                <multiclip id="mcs-700">
                  <name>MCS-700</name>
                  <masterclipid>clip-master</masterclipid>
                  <collapsed>false</collapsed>
                  <angle>
                    <activevideoangle>false</activevideoangle>
                    <activeaudioangle>false</activeaudioangle>
                    <clip id="clip-1"/>
                  </angle>
                  <angle>
                    <activevideoangle>false</activevideoangle>
                    <activeaudioangle>false</activeaudioangle>
                    <clip id="clip-2"/>
                  </angle>
                  <angle>
                    <activevideoangle>false</activevideoangle>
                    <activeaudioangle>false</activeaudioangle>
                    <clip id="clip-3"/>
                  </angle>
                  <angle>
                    <activevideoangle>false</activevideoangle>
                    <activeaudioangle>false</activeaudioangle>
                    <clip id="clip-4"/>
                  </angle>
                  <angle>
                    <activevideoangle>false</activevideoangle>
                    <activeaudioangle>false</activeaudioangle>
                    <clip id="clip-5"/>
                  </angle>
                  <angle>
                    <activevideoangle>true</activevideoangle>
                    <activeaudioangle>true</activeaudioangle>
                    <clip id="clip-6"/>
                  </angle>
                  <angle>
                    <activevideoangle>false</activevideoangle>
                    <activeaudioangle>false</activeaudioangle>
                    <clip id="clip-7"/>
                  </angle>
                  <angle>
                    <activevideoangle>false</activevideoangle>
                    <activeaudioangle>false</activeaudioangle>
                    <clip id="clip-8"/>
                  </angle>
                  <angle>
                    <activevideoangle>false</activevideoangle>
                    <activeaudioangle>false</activeaudioangle>
                    <clip id="clip-9"/>
                  </angle>
                  <masterclipid>clip-master</masterclipid>
                </multiclip>
              </clipitem>
              <clipitem id="cs-701">
                <duration>77</duration>
                <rate>
                  <ntsc>false</ntsc>
                  <timebase>25</timebase>
                </rate>
                <in>108705</in>
                <out>108781</out>
                <start>108705</start>
                <end>108781</end>
                <file id="src-4"/>
                <sourcetrack>
                  <mediatype>video</mediatype>
                  <trackindex>1</trackindex>
                </sourcetrack>
                <multiclip id="mcs-701">
                  <name>MCS-701</name>
                  <masterclipid>clip-master</masterclipid>
                  <collapsed>false</collapsed>
                  <angle>
                    <activevideoangle>false</activevideoangle>
                    <activeaudioangle>false</activeaudioangle>
                    <clip id="clip-1"/>
                  </angle>
                  <angle>
                    <activevideoangle>false</activevideoangle>
                    <activeaudioangle>false</activeaudioangle>
                    <clip id="clip-2"/>
                  </angle>
                  <angle>
                    <activevideoangle>false</activevideoangle>
                    <activeaudioangle>false</activeaudioangle>
                    <clip id="clip-3"/>
                  </angle>
                  <angle>
                    <activevideoangle>true</activevideoangle>
                    <activeaudioangle>true</activeaudioangle>
                    <clip id="clip-4"/>
                  </angle>
                  <angle>
                    <activevideoangle>false</activevideoangle>
                    <activeaudioangle>false</activeaudioangle>
                    <clip id="clip-5"/>
                  </angle>
                  <angle>
                    <activevideoangle>false</activevideoangle>
                    <activeaudioangle>false</activeaudioangle>
                    <clip id="clip-6"/>
                  </angle>
                  <angle>
                    <activevideoangle>false</activevideoangle>
                    <activeaudioangle>false</activeaudioangle>
                    <clip id="clip-7"/>
                  </angle>
                  <angle>
                    <activevideoangle>false</activevideoangle>
                    <activeaudioangle>false</activeaudioangle>
                    <clip id="clip-8"/>
                  </angle>
                  <angle>
                    <activevideoangle>false</activevideoangle>
                    <activeaudioangle>false</activeaudioangle>
                    <clip id="clip-9"/>
                  </angle>
                  <masterclipid>clip-master</masterclipid>
                </multiclip>
              </clipitem>
              <clipitem id="cs-702">
                <duration>108</duration>
                <rate>
                  <ntsc>false</ntsc>
                  <timebase>25</timebase>
                </rate>
                <in>108781</in>
                <out>108888</out>
                <start>108781</start>
                <end>108888</end>
                <file id="src-5"/>
                <sourcetrack>
                  <mediatype>video</mediatype>
                  <trackindex>1</trackindex>
                </sourcetrack>
                <multiclip id="mcs-702">
                  <name>MCS-702</name>
                  <masterclipid>clip-master</masterclipid>
                  <collapsed>false</collapsed>
                  <angle>
                    <activevideoangle>false</activevideoangle>
                    <activeaudioangle>false</activeaudioangle>
                    <clip id="clip-1"/>
                  </angle>
                  <angle>
                    <activevideoangle>false</activevideoangle>
                    <activeaudioangle>false</activeaudioangle>
                    <clip id="clip-2"/>
                  </angle>
                  <angle>
                    <activevideoangle>false</activevideoangle>
                    <activeaudioangle>false</activeaudioangle>
                    <clip id="clip-3"/>
                  </angle>
                  <angle>
                    <activevideoangle>false</activevideoangle>
                    <activeaudioangle>false</activeaudioangle>
                    <clip id="clip-4"/>
                  </angle>
                  <angle>
                    <activevideoangle>true</activevideoangle>
                    <activeaudioangle>true</activeaudioangle>
                    <clip id="clip-5"/>
                  </angle>
                  <angle>
                    <activevideoangle>false</activevideoangle>
                    <activeaudioangle>false</activeaudioangle>
                    <clip id="clip-6"/>
                  </angle>
                  <angle>
                    <activevideoangle>false</activevideoangle>
                    <activeaudioangle>false</activeaudioangle>
                    <clip id="clip-7"/>
                  </angle>
                  <angle>
                    <activevideoangle>false</activevideoangle>
                    <activeaudioangle>false</activeaudioangle>
                    <clip id="clip-8"/>
                  </angle>
                  <angle>
                    <activevideoangle>false</activevideoangle>
                    <activeaudioangle>false</activeaudioangle>
                    <clip id="clip-9"/>
                  </angle>
                  <masterclipid>clip-master</masterclipid>
                </multiclip>
              </clipitem>
              <clipitem id="cs-703">
                <duration>119</duration>
                <rate>
                  <ntsc>false</ntsc>
                  <timebase>25</timebase>
                </rate>
                <in>108888</in>
                <out>109006</out>
                <start>108888</start>
                <end>109006</end>
                <file id="src-2"/>
                <sourcetrack>
                  <mediatype>video</mediatype>
                  <trackindex>1</trackindex>
                </sourcetrack>
                <multiclip id="mcs-703">
                  <name>MCS-703</name>
                  <masterclipid>clip-master</masterclipid>
                  <collapsed>false</collapsed>
                  <angle>
                    <activevideoangle>false</activevideoangle>
                    <activeaudioangle>false</activeaudioangle>
                    <clip id="clip-1"/>
                  </angle>
                  <angle>
                    <activevideoangle>true</activevideoangle>
                    <activeaudioangle>true</activeaudioangle>
                    <clip id="clip-2"/>
                  </angle>
                  <angle>
                    <activevideoangle>false</activevideoangle>
                    <activeaudioangle>false</activeaudioangle>
                    <clip id="clip-3"/>
                  </angle>
                  <angle>
                    <activevideoangle>false</activevideoangle>
                    <activeaudioangle>false</activeaudioangle>
                    <clip id="clip-4"/>
                  </angle>
                  <angle>
                    <activevideoangle>false</activevideoangle>
                    <activeaudioangle>false</activeaudioangle>
                    <clip id="clip-5"/>
                  </angle>
                  <angle>
                    <activevideoangle>false</activevideoangle>
                    <activeaudioangle>false</activeaudioangle>
                    <clip id="clip-6"/>
                  </angle>
                  <angle>
                    <activevideoangle>false</activevideoangle>
                    <activeaudioangle>false</activeaudioangle>
                    <clip id="clip-7"/>
                  </angle>
                  <angle>
                    <activevideoangle>false</activevideoangle>
                    <activeaudioangle>false</activeaudioangle>
                    <clip id="clip-8"/>
                  </angle>
                  <angle>
                    <activevideoangle>false</activevideoangle>
                    <activeaudioangle>false</activeaudioangle>
                    <clip id="clip-9"/>
                  </angle>
                  <masterclipid>clip-master</masterclipid>
                </multiclip>
              </clipitem>
              <clipitem id="cs-704">
                <duration>82</duration>
                <rate>
                  <ntsc>false</ntsc>
                  <timebase>25</timebase>
                </rate>
                <in>109006</in>
                <out>109087</out>
                <start>109006</start>
                <end>109087</end>
                <file id="src-3"/>
                <sourcetrack>
                  <mediatype>video</mediatype>
                  <trackindex>1</trackindex>
                </sourcetrack>
                <multiclip id="mcs-704">
                  <name>MCS-704</name>
                  <masterclipid>clip-master</masterclipid>
                  <collapsed>false</collapsed>
                  <angle>
                    <activevideoangle>false</activevideoangle>
                    <activeaudioangle>false</activeaudioangle>
                    <clip id="clip-1"/>
                  </angle>
                  <angle>
                    <activevideoangle>false</activevideoangle>
                    <activeaudioangle>false</activeaudioangle>
                    <clip id="clip-2"/>
                  </angle>
                  <angle>
                    <activevideoangle>true</activevideoangle>
                    <activeaudioangle>true</activeaudioangle>
                    <clip id="clip-3"/>
                  </angle>
                  <angle>
                    <activevideoangle>false</activevideoangle>
                    <activeaudioangle>false</activeaudioangle>
                    <clip id="clip-4"/>
                  </angle>
                  <angle>
                    <activevideoangle>false</activevideoangle>
                    <activeaudioangle>false</activeaudioangle>
                    <clip id="clip-5"/>
                  </angle>
                  <angle>
                    <activevideoangle>false</activevideoangle>
                    <activeaudioangle>false</activeaudioangle>
                    <clip id="clip-6"/>
                  </angle>
                  <angle>
                    <activevideoangle>false</activevideoangle>
                    <activeaudioangle>false</activeaudioangle>
                    <clip id="clip-7"/>
                  </angle>
                  <angle>
                    <activevideoangle>false</activevideoangle>
                    <activeaudioangle>false</activeaudioangle>
                    <clip id="clip-8"/>
                  </angle>
                  <angle>
                    <activevideoangle>false</activevideoangle>
                    <activeaudioangle>false</activeaudioangle>
                    <clip id="clip-9"/>
                  </angle>
                  <masterclipid>clip-master</masterclipid>
                </multiclip>
              </clipitem>
              <clipitem id="cs-705">
                <duration>50</duration>
                <rate>
                  <ntsc>false</ntsc>
                  <timebase>25</timebase>
                </rate>
                <in>109087</in>
                <out>109136</out>
                <start>109087</start>
                <end>109136</end>
                <file id="src-4"/>
                <sourcetrack>
                  <mediatype>video</mediatype>
                  <trackindex>1</trackindex>
                </sourcetrack>
                <multiclip id="mcs-705">
                  <name>MCS-705</name>
                  <masterclipid>clip-master</masterclipid>
                  <collapsed>false</collapsed>
                  <angle>
                    <activevideoangle>false</activevideoangle>
                    <activeaudioangle>false</activeaudioangle>
                    <clip id="clip-1"/>
                  </angle>
                  <angle>
                    <activevideoangle>false</activevideoangle>
                    <activeaudioangle>false</activeaudioangle>
                    <clip id="clip-2"/>
                  </angle>
                  <angle>
                    <activevideoangle>false</activevideoangle>
                    <activeaudioangle>false</activeaudioangle>
                    <clip id="clip-3"/>
                  </angle>
                  <angle>
                    <activevideoangle>true</activevideoangle>
                    <activeaudioangle>true</activeaudioangle>
                    <clip id="clip-4"/>
                  </angle>
                  <angle>
                    <activevideoangle>false</activevideoangle>
                    <activeaudioangle>false</activeaudioangle>
                    <clip id="clip-5"/>
                  </angle>
                  <angle>
                    <activevideoangle>false</activevideoangle>
                    <activeaudioangle>false</activeaudioangle>
                    <clip id="clip-6"/>
                  </angle>
                  <angle>
                    <activevideoangle>false</activevideoangle>
                    <activeaudioangle>false</activeaudioangle>
                    <clip id="clip-7"/>
                  </angle>
                  <angle>
                    <activevideoangle>false</activevideoangle>
                    <activeaudioangle>false</activeaudioangle>
                    <clip id="clip-8"/>
                  </angle>
                  <angle>
                    <activevideoangle>false</activevideoangle>
                    <activeaudioangle>false</activeaudioangle>
                    <clip id="clip-9"/>
                  </angle>
                  <masterclipid>clip-master</masterclipid>
                </multiclip>
              </clipitem>
              <clipitem id="cs-706">
                <duration>198</duration>
                <rate>
                  <ntsc>false</ntsc>
                  <timebase>25</timebase>
                </rate>
                <in>109136</in>
                <out>109333</out>
                <start>109136</start>
                <end>109333</end>
                <file id="src-6"/>
                <sourcetrack>
                  <mediatype>video</mediatype>
                  <trackindex>1</trackindex>
                </sourcetrack>
                <multiclip id="mcs-706">
                  <name>MCS-706</name>
                  <masterclipid>clip-master</masterclipid>
                  <collapsed>false</collapsed>
                  <angle>
                    <activevideoangle>false</activevideoangle>
                    <activeaudioangle>false</activeaudioangle>
                    <clip id="clip-1"/>
                  </angle>
                  <angle>
                    <activevideoangle>false</activevideoangle>
                    <activeaudioangle>false</activeaudioangle>
                    <clip id="clip-2"/>
                  </angle>
                  <angle>
                    <activevideoangle>false</activevideoangle>
                    <activeaudioangle>false</activeaudioangle>
                    <clip id="clip-3"/>
                  </angle>
                  <angle>
                    <activevideoangle>false</activevideoangle>
                    <activeaudioangle>false</activeaudioangle>
                    <clip id="clip-4"/>
                  </angle>
                  <angle>
                    <activevideoangle>false</activevideoangle>
                    <activeaudioangle>false</activeaudioangle>
                    <clip id="clip-5"/>
                  </angle>
                  <angle>
                    <activevideoangle>true</activevideoangle>
                    <activeaudioangle>true</activeaudioangle>
                    <clip id="clip-6"/>
                  </angle>
                  <angle>
                    <activevideoangle>false</activevideoangle>
                    <activeaudioangle>false</activeaudioangle>
                    <clip id="clip-7"/>
                  </angle>
                  <angle>
                    <activevideoangle>false</activevideoangle>
                    <activeaudioangle>false</activeaudioangle>
                    <clip id="clip-8"/>
                  </angle>
                  <angle>
                    <activevideoangle>false</activevideoangle>
                    <activeaudioangle>false</activeaudioangle>
                    <clip id="clip-9"/>
                  </angle>
                  <masterclipid>clip-master</masterclipid>
                </multiclip>
              </clipitem>
              <clipitem id="cs-707">
                <duration>68</duration>
                <rate>
                  <ntsc>false</ntsc>
                  <timebase>25</timebase>
                </rate>
                <in>109333</in>
                <out>109400</out>
                <start>109333</start>
                <end>109400</end>
                <file id="src-4"/>
                <sourcetrack>
                  <mediatype>video</mediatype>
                  <trackindex>1</trackindex>
                </sourcetrack>
                <multiclip id="mcs-707">
                  <name>MCS-707</name>
                  <masterclipid>clip-master</masterclipid>
                  <collapsed>false</collapsed>
                  <angle>
                    <activevideoangle>false</activevideoangle>
                    <activeaudioangle>false</activeaudioangle>
                    <clip id="clip-1"/>
                  </angle>
                  <angle>
                    <activevideoangle>false</activevideoangle>
                    <activeaudioangle>false</activeaudioangle>
                    <clip id="clip-2"/>
                  </angle>
                  <angle>
                    <activevideoangle>false</activevideoangle>
                    <activeaudioangle>false</activeaudioangle>
                    <clip id="clip-3"/>
                  </angle>
                  <angle>
                    <activevideoangle>true</activevideoangle>
                    <activeaudioangle>true</activeaudioangle>
                    <clip id="clip-4"/>
                  </angle>
                  <angle>
                    <activevideoangle>false</activevideoangle>
                    <activeaudioangle>false</activeaudioangle>
                    <clip id="clip-5"/>
                  </angle>
                  <angle>
                    <activevideoangle>false</activevideoangle>
                    <activeaudioangle>false</activeaudioangle>
                    <clip id="clip-6"/>
                  </angle>
                  <angle>
                    <activevideoangle>false</activevideoangle>
                    <activeaudioangle>false</activeaudioangle>
                    <clip id="clip-7"/>
                  </angle>
                  <angle>
                    <activevideoangle>false</activevideoangle>
                    <activeaudioangle>false</activeaudioangle>
                    <clip id="clip-8"/>
                  </angle>
                  <angle>
                    <activevideoangle>false</activevideoangle>
                    <activeaudioangle>false</activeaudioangle>
                    <clip id="clip-9"/>
                  </angle>
                  <masterclipid>clip-master</masterclipid>
                </multiclip>
              </clipitem>
              <clipitem id="cs-708">
                <duration>353</duration>
                <rate>
                  <ntsc>false</ntsc>
                  <timebase>25</timebase>
                </rate>
                <in>109400</in>
                <out>109752</out>
                <start>109400</start>
                <end>109752</end>
                <file id="src-3"/>
                <sourcetrack>
                  <mediatype>video</mediatype>
                  <trackindex>1</trackindex>
                </sourcetrack>
                <multiclip id="mcs-708">
                  <name>MCS-708</name>
                  <masterclipid>clip-master</masterclipid>
                  <collapsed>false</collapsed>
                  <angle>
                    <activevideoangle>false</activevideoangle>
                    <activeaudioangle>false</activeaudioangle>
                    <clip id="clip-1"/>
                  </angle>
                  <angle>
                    <activevideoangle>false</activevideoangle>
                    <activeaudioangle>false</activeaudioangle>
                    <clip id="clip-2"/>
                  </angle>
                  <angle>
                    <activevideoangle>true</activevideoangle>
                    <activeaudioangle>true</activeaudioangle>
                    <clip id="clip-3"/>
                  </angle>
                  <angle>
                    <activevideoangle>false</activevideoangle>
                    <activeaudioangle>false</activeaudioangle>
                    <clip id="clip-4"/>
                  </angle>
                  <angle>
                    <activevideoangle>false</activevideoangle>
                    <activeaudioangle>false</activeaudioangle>
                    <clip id="clip-5"/>
                  </angle>
                  <angle>
                    <activevideoangle>false</activevideoangle>
                    <activeaudioangle>false</activeaudioangle>
                    <clip id="clip-6"/>
                  </angle>
                  <angle>
                    <activevideoangle>false</activevideoangle>
                    <activeaudioangle>false</activeaudioangle>
                    <clip id="clip-7"/>
                  </angle>
                  <angle>
                    <activevideoangle>false</activevideoangle>
                    <activeaudioangle>false</activeaudioangle>
                    <clip id="clip-8"/>
                  </angle>
                  <angle>
                    <activevideoangle>false</activevideoangle>
                    <activeaudioangle>false</activeaudioangle>
                    <clip id="clip-9"/>
                  </angle>
                  <masterclipid>clip-master</masterclipid>
                </multiclip>
              </clipitem>
              <clipitem id="cs-709">
                <duration>128</duration>
                <rate>
                  <ntsc>false</ntsc>
                  <timebase>25</timebase>
                </rate>
                <in>109752</in>
                <out>109879</out>
                <start>109752</start>
                <end>109879</end>
                <file id="src-4"/>
                <sourcetrack>
                  <mediatype>video</mediatype>
                  <trackindex>1</trackindex>
                </sourcetrack>
                <multiclip id="mcs-709">
                  <name>MCS-709</name>
                  <masterclipid>clip-master</masterclipid>
                  <collapsed>false</collapsed>
                  <angle>
                    <activevideoangle>false</activevideoangle>
                    <activeaudioangle>false</activeaudioangle>
                    <clip id="clip-1"/>
                  </angle>
                  <angle>
                    <activevideoangle>false</activevideoangle>
                    <activeaudioangle>false</activeaudioangle>
                    <clip id="clip-2"/>
                  </angle>
                  <angle>
                    <activevideoangle>false</activevideoangle>
                    <activeaudioangle>false</activeaudioangle>
                    <clip id="clip-3"/>
                  </angle>
                  <angle>
                    <activevideoangle>true</activevideoangle>
                    <activeaudioangle>true</activeaudioangle>
                    <clip id="clip-4"/>
                  </angle>
                  <angle>
                    <activevideoangle>false</activevideoangle>
                    <activeaudioangle>false</activeaudioangle>
                    <clip id="clip-5"/>
                  </angle>
                  <angle>
                    <activevideoangle>false</activevideoangle>
                    <activeaudioangle>false</activeaudioangle>
                    <clip id="clip-6"/>
                  </angle>
                  <angle>
                    <activevideoangle>false</activevideoangle>
                    <activeaudioangle>false</activeaudioangle>
                    <clip id="clip-7"/>
                  </angle>
                  <angle>
                    <activevideoangle>false</activevideoangle>
                    <activeaudioangle>false</activeaudioangle>
                    <clip id="clip-8"/>
                  </angle>
                  <angle>
                    <activevideoangle>false</activevideoangle>
                    <activeaudioangle>false</activeaudioangle>
                    <clip id="clip-9"/>
                  </angle>
                  <masterclipid>clip-master</masterclipid>
                </multiclip>
              </clipitem>
              <clipitem id="cs-710">
                <duration>151</duration>
                <rate>
                  <ntsc>false</ntsc>
                  <timebase>25</timebase>
                </rate>
                <in>109879</in>
                <out>110029</out>
                <start>109879</start>
                <end>110029</end>
                <file id="src-2"/>
                <sourcetrack>
                  <mediatype>video</mediatype>
                  <trackindex>1</trackindex>
                </sourcetrack>
                <multiclip id="mcs-710">
                  <name>MCS-710</name>
                  <masterclipid>clip-master</masterclipid>
                  <collapsed>false</collapsed>
                  <angle>
                    <activevideoangle>false</activevideoangle>
                    <activeaudioangle>false</activeaudioangle>
                    <clip id="clip-1"/>
                  </angle>
                  <angle>
                    <activevideoangle>true</activevideoangle>
                    <activeaudioangle>true</activeaudioangle>
                    <clip id="clip-2"/>
                  </angle>
                  <angle>
                    <activevideoangle>false</activevideoangle>
                    <activeaudioangle>false</activeaudioangle>
                    <clip id="clip-3"/>
                  </angle>
                  <angle>
                    <activevideoangle>false</activevideoangle>
                    <activeaudioangle>false</activeaudioangle>
                    <clip id="clip-4"/>
                  </angle>
                  <angle>
                    <activevideoangle>false</activevideoangle>
                    <activeaudioangle>false</activeaudioangle>
                    <clip id="clip-5"/>
                  </angle>
                  <angle>
                    <activevideoangle>false</activevideoangle>
                    <activeaudioangle>false</activeaudioangle>
                    <clip id="clip-6"/>
                  </angle>
                  <angle>
                    <activevideoangle>false</activevideoangle>
                    <activeaudioangle>false</activeaudioangle>
                    <clip id="clip-7"/>
                  </angle>
                  <angle>
                    <activevideoangle>false</activevideoangle>
                    <activeaudioangle>false</activeaudioangle>
                    <clip id="clip-8"/>
                  </angle>
                  <angle>
                    <activevideoangle>false</activevideoangle>
                    <activeaudioangle>false</activeaudioangle>
                    <clip id="clip-9"/>
                  </angle>
                  <masterclipid>clip-master</masterclipid>
                </multiclip>
              </clipitem>
              <clipitem id="cs-711">
                <duration>197</duration>
                <rate>
                  <ntsc>false</ntsc>
                  <timebase>25</timebase>
                </rate>
                <in>110029</in>
                <out>110225</out>
                <start>110029</start>
                <end>110225</end>
                <file id="src-1"/>
                <sourcetrack>
                  <mediatype>video</mediatype>
                  <trackindex>1</trackindex>
                </sourcetrack>
                <multiclip id="mcs-711">
                  <name>MCS-711</name>
                  <masterclipid>clip-master</masterclipid>
                  <collapsed>false</collapsed>
                  <angle>
                    <activevideoangle>true</activevideoangle>
                    <activeaudioangle>true</activeaudioangle>
                    <clip id="clip-1"/>
                  </angle>
                  <angle>
                    <activevideoangle>false</activevideoangle>
                    <activeaudioangle>false</activeaudioangle>
                    <clip id="clip-2"/>
                  </angle>
                  <angle>
                    <activevideoangle>false</activevideoangle>
                    <activeaudioangle>false</activeaudioangle>
                    <clip id="clip-3"/>
                  </angle>
                  <angle>
                    <activevideoangle>false</activevideoangle>
                    <activeaudioangle>false</activeaudioangle>
                    <clip id="clip-4"/>
                  </angle>
                  <angle>
                    <activevideoangle>false</activevideoangle>
                    <activeaudioangle>false</activeaudioangle>
                    <clip id="clip-5"/>
                  </angle>
                  <angle>
                    <activevideoangle>false</activevideoangle>
                    <activeaudioangle>false</activeaudioangle>
                    <clip id="clip-6"/>
                  </angle>
                  <angle>
                    <activevideoangle>false</activevideoangle>
                    <activeaudioangle>false</activeaudioangle>
                    <clip id="clip-7"/>
                  </angle>
                  <angle>
                    <activevideoangle>false</activevideoangle>
                    <activeaudioangle>false</activeaudioangle>
                    <clip id="clip-8"/>
                  </angle>
                  <angle>
                    <activevideoangle>false</activevideoangle>
                    <activeaudioangle>false</activeaudioangle>
                    <clip id="clip-9"/>
                  </angle>
                  <masterclipid>clip-master</masterclipid>
                </multiclip>
              </clipitem>
              <clipitem id="cs-712">
                <duration>68</duration>
                <rate>
                  <ntsc>false</ntsc>
                  <timebase>25</timebase>
                </rate>
                <in>110225</in>
                <out>110292</out>
                <start>110225</start>
                <end>110292</end>
                <file id="src-6"/>
                <sourcetrack>
                  <mediatype>video</mediatype>
                  <trackindex>1</trackindex>
                </sourcetrack>
                <multiclip id="mcs-712">
                  <name>MCS-712</name>
                  <masterclipid>clip-master</masterclipid>
                  <collapsed>false</collapsed>
                  <angle>
                    <activevideoangle>false</activevideoangle>
                    <activeaudioangle>false</activeaudioangle>
                    <clip id="clip-1"/>
                  </angle>
                  <angle>
                    <activevideoangle>false</activevideoangle>
                    <activeaudioangle>false</activeaudioangle>
                    <clip id="clip-2"/>
                  </angle>
                  <angle>
                    <activevideoangle>false</activevideoangle>
                    <activeaudioangle>false</activeaudioangle>
                    <clip id="clip-3"/>
                  </angle>
                  <angle>
                    <activevideoangle>false</activevideoangle>
                    <activeaudioangle>false</activeaudioangle>
                    <clip id="clip-4"/>
                  </angle>
                  <angle>
                    <activevideoangle>false</activevideoangle>
                    <activeaudioangle>false</activeaudioangle>
                    <clip id="clip-5"/>
                  </angle>
                  <angle>
                    <activevideoangle>true</activevideoangle>
                    <activeaudioangle>true</activeaudioangle>
                    <clip id="clip-6"/>
                  </angle>
                  <angle>
                    <activevideoangle>false</activevideoangle>
                    <activeaudioangle>false</activeaudioangle>
                    <clip id="clip-7"/>
                  </angle>
                  <angle>
                    <activevideoangle>false</activevideoangle>
                    <activeaudioangle>false</activeaudioangle>
                    <clip id="clip-8"/>
                  </angle>
                  <angle>
                    <activevideoangle>false</activevideoangle>
                    <activeaudioangle>false</activeaudioangle>
                    <clip id="clip-9"/>
                  </angle>
                  <masterclipid>clip-master</masterclipid>
                </multiclip>
              </clipitem>
              <clipitem id="cs-713">
                <duration>443</duration>
                <rate>
                  <ntsc>false</ntsc>
                  <timebase>25</timebase>
                </rate>
                <in>110292</in>
                <out>110734</out>
                <start>110292</start>
                <end>110734</end>
                <file id="src-4"/>
                <sourcetrack>
                  <mediatype>video</mediatype>
                  <trackindex>1</trackindex>
                </sourcetrack>
                <multiclip id="mcs-713">
                  <name>MCS-713</name>
                  <masterclipid>clip-master</masterclipid>
                  <collapsed>false</collapsed>
                  <angle>
                    <activevideoangle>false</activevideoangle>
                    <activeaudioangle>false</activeaudioangle>
                    <clip id="clip-1"/>
                  </angle>
                  <angle>
                    <activevideoangle>false</activevideoangle>
                    <activeaudioangle>false</activeaudioangle>
                    <clip id="clip-2"/>
                  </angle>
                  <angle>
                    <activevideoangle>false</activevideoangle>
                    <activeaudioangle>false</activeaudioangle>
                    <clip id="clip-3"/>
                  </angle>
                  <angle>
                    <activevideoangle>true</activevideoangle>
                    <activeaudioangle>true</activeaudioangle>
                    <clip id="clip-4"/>
                  </angle>
                  <angle>
                    <activevideoangle>false</activevideoangle>
                    <activeaudioangle>false</activeaudioangle>
                    <clip id="clip-5"/>
                  </angle>
                  <angle>
                    <activevideoangle>false</activevideoangle>
                    <activeaudioangle>false</activeaudioangle>
                    <clip id="clip-6"/>
                  </angle>
                  <angle>
                    <activevideoangle>false</activevideoangle>
                    <activeaudioangle>false</activeaudioangle>
                    <clip id="clip-7"/>
                  </angle>
                  <angle>
                    <activevideoangle>false</activevideoangle>
                    <activeaudioangle>false</activeaudioangle>
                    <clip id="clip-8"/>
                  </angle>
                  <angle>
                    <activevideoangle>false</activevideoangle>
                    <activeaudioangle>false</activeaudioangle>
                    <clip id="clip-9"/>
                  </angle>
                  <masterclipid>clip-master</masterclipid>
                </multiclip>
              </clipitem>
              <clipitem id="cs-714">
                <duration>215</duration>
                <rate>
                  <ntsc>false</ntsc>
                  <timebase>25</timebase>
                </rate>
                <in>110734</in>
                <out>110948</out>
                <start>110734</start>
                <end>110948</end>
                <file id="src-2"/>
                <sourcetrack>
                  <mediatype>video</mediatype>
                  <trackindex>1</trackindex>
                </sourcetrack>
                <multiclip id="mcs-714">
                  <name>MCS-714</name>
                  <masterclipid>clip-master</masterclipid>
                  <collapsed>false</collapsed>
                  <angle>
                    <activevideoangle>false</activevideoangle>
                    <activeaudioangle>false</activeaudioangle>
                    <clip id="clip-1"/>
                  </angle>
                  <angle>
                    <activevideoangle>true</activevideoangle>
                    <activeaudioangle>true</activeaudioangle>
                    <clip id="clip-2"/>
                  </angle>
                  <angle>
                    <activevideoangle>false</activevideoangle>
                    <activeaudioangle>false</activeaudioangle>
                    <clip id="clip-3"/>
                  </angle>
                  <angle>
                    <activevideoangle>false</activevideoangle>
                    <activeaudioangle>false</activeaudioangle>
                    <clip id="clip-4"/>
                  </angle>
                  <angle>
                    <activevideoangle>false</activevideoangle>
                    <activeaudioangle>false</activeaudioangle>
                    <clip id="clip-5"/>
                  </angle>
                  <angle>
                    <activevideoangle>false</activevideoangle>
                    <activeaudioangle>false</activeaudioangle>
                    <clip id="clip-6"/>
                  </angle>
                  <angle>
                    <activevideoangle>false</activevideoangle>
                    <activeaudioangle>false</activeaudioangle>
                    <clip id="clip-7"/>
                  </angle>
                  <angle>
                    <activevideoangle>false</activevideoangle>
                    <activeaudioangle>false</activeaudioangle>
                    <clip id="clip-8"/>
                  </angle>
                  <angle>
                    <activevideoangle>false</activevideoangle>
                    <activeaudioangle>false</activeaudioangle>
                    <clip id="clip-9"/>
                  </angle>
                  <masterclipid>clip-master</masterclipid>
                </multiclip>
              </clipitem>
              <clipitem id="cs-715">
                <duration>145</duration>
                <rate>
                  <ntsc>false</ntsc>
                  <timebase>25</timebase>
                </rate>
                <in>110948</in>
                <out>111092</out>
                <start>110948</start>
                <end>111092</end>
                <file id="src-4"/>
                <sourcetrack>
                  <mediatype>video</mediatype>
                  <trackindex>1</trackindex>
                </sourcetrack>
                <multiclip id="mcs-715">
                  <name>MCS-715</name>
                  <masterclipid>clip-master</masterclipid>
                  <collapsed>false</collapsed>
                  <angle>
                    <activevideoangle>false</activevideoangle>
                    <activeaudioangle>false</activeaudioangle>
                    <clip id="clip-1"/>
                  </angle>
                  <angle>
                    <activevideoangle>false</activevideoangle>
                    <activeaudioangle>false</activeaudioangle>
                    <clip id="clip-2"/>
                  </angle>
                  <angle>
                    <activevideoangle>false</activevideoangle>
                    <activeaudioangle>false</activeaudioangle>
                    <clip id="clip-3"/>
                  </angle>
                  <angle>
                    <activevideoangle>true</activevideoangle>
                    <activeaudioangle>true</activeaudioangle>
                    <clip id="clip-4"/>
                  </angle>
                  <angle>
                    <activevideoangle>false</activevideoangle>
                    <activeaudioangle>false</activeaudioangle>
                    <clip id="clip-5"/>
                  </angle>
                  <angle>
                    <activevideoangle>false</activevideoangle>
                    <activeaudioangle>false</activeaudioangle>
                    <clip id="clip-6"/>
                  </angle>
                  <angle>
                    <activevideoangle>false</activevideoangle>
                    <activeaudioangle>false</activeaudioangle>
                    <clip id="clip-7"/>
                  </angle>
                  <angle>
                    <activevideoangle>false</activevideoangle>
                    <activeaudioangle>false</activeaudioangle>
                    <clip id="clip-8"/>
                  </angle>
                  <angle>
                    <activevideoangle>false</activevideoangle>
                    <activeaudioangle>false</activeaudioangle>
                    <clip id="clip-9"/>
                  </angle>
                  <masterclipid>clip-master</masterclipid>
                </multiclip>
              </clipitem>
              <clipitem id="cs-716">
                <duration>152</duration>
                <rate>
                  <ntsc>false</ntsc>
                  <timebase>25</timebase>
                </rate>
                <in>111092</in>
                <out>111243</out>
                <start>111092</start>
                <end>111243</end>
                <file id="src-3"/>
                <sourcetrack>
                  <mediatype>video</mediatype>
                  <trackindex>1</trackindex>
                </sourcetrack>
                <multiclip id="mcs-716">
                  <name>MCS-716</name>
                  <masterclipid>clip-master</masterclipid>
                  <collapsed>false</collapsed>
                  <angle>
                    <activevideoangle>false</activevideoangle>
                    <activeaudioangle>false</activeaudioangle>
                    <clip id="clip-1"/>
                  </angle>
                  <angle>
                    <activevideoangle>false</activevideoangle>
                    <activeaudioangle>false</activeaudioangle>
                    <clip id="clip-2"/>
                  </angle>
                  <angle>
                    <activevideoangle>true</activevideoangle>
                    <activeaudioangle>true</activeaudioangle>
                    <clip id="clip-3"/>
                  </angle>
                  <angle>
                    <activevideoangle>false</activevideoangle>
                    <activeaudioangle>false</activeaudioangle>
                    <clip id="clip-4"/>
                  </angle>
                  <angle>
                    <activevideoangle>false</activevideoangle>
                    <activeaudioangle>false</activeaudioangle>
                    <clip id="clip-5"/>
                  </angle>
                  <angle>
                    <activevideoangle>false</activevideoangle>
                    <activeaudioangle>false</activeaudioangle>
                    <clip id="clip-6"/>
                  </angle>
                  <angle>
                    <activevideoangle>false</activevideoangle>
                    <activeaudioangle>false</activeaudioangle>
                    <clip id="clip-7"/>
                  </angle>
                  <angle>
                    <activevideoangle>false</activevideoangle>
                    <activeaudioangle>false</activeaudioangle>
                    <clip id="clip-8"/>
                  </angle>
                  <angle>
                    <activevideoangle>false</activevideoangle>
                    <activeaudioangle>false</activeaudioangle>
                    <clip id="clip-9"/>
                  </angle>
                  <masterclipid>clip-master</masterclipid>
                </multiclip>
              </clipitem>
              <clipitem id="cs-717">
                <duration>232</duration>
                <rate>
                  <ntsc>false</ntsc>
                  <timebase>25</timebase>
                </rate>
                <in>111243</in>
                <out>111474</out>
                <start>111243</start>
                <end>111474</end>
                <file id="src-2"/>
                <sourcetrack>
                  <mediatype>video</mediatype>
                  <trackindex>1</trackindex>
                </sourcetrack>
                <multiclip id="mcs-717">
                  <name>MCS-717</name>
                  <masterclipid>clip-master</masterclipid>
                  <collapsed>false</collapsed>
                  <angle>
                    <activevideoangle>false</activevideoangle>
                    <activeaudioangle>false</activeaudioangle>
                    <clip id="clip-1"/>
                  </angle>
                  <angle>
                    <activevideoangle>true</activevideoangle>
                    <activeaudioangle>true</activeaudioangle>
                    <clip id="clip-2"/>
                  </angle>
                  <angle>
                    <activevideoangle>false</activevideoangle>
                    <activeaudioangle>false</activeaudioangle>
                    <clip id="clip-3"/>
                  </angle>
                  <angle>
                    <activevideoangle>false</activevideoangle>
                    <activeaudioangle>false</activeaudioangle>
                    <clip id="clip-4"/>
                  </angle>
                  <angle>
                    <activevideoangle>false</activevideoangle>
                    <activeaudioangle>false</activeaudioangle>
                    <clip id="clip-5"/>
                  </angle>
                  <angle>
                    <activevideoangle>false</activevideoangle>
                    <activeaudioangle>false</activeaudioangle>
                    <clip id="clip-6"/>
                  </angle>
                  <angle>
                    <activevideoangle>false</activevideoangle>
                    <activeaudioangle>false</activeaudioangle>
                    <clip id="clip-7"/>
                  </angle>
                  <angle>
                    <activevideoangle>false</activevideoangle>
                    <activeaudioangle>false</activeaudioangle>
                    <clip id="clip-8"/>
                  </angle>
                  <angle>
                    <activevideoangle>false</activevideoangle>
                    <activeaudioangle>false</activeaudioangle>
                    <clip id="clip-9"/>
                  </angle>
                  <masterclipid>clip-master</masterclipid>
                </multiclip>
              </clipitem>
              <clipitem id="cs-718">
                <duration>272</duration>
                <rate>
                  <ntsc>false</ntsc>
                  <timebase>25</timebase>
                </rate>
                <in>111474</in>
                <out>111745</out>
                <start>111474</start>
                <end>111745</end>
                <file id="src-4"/>
                <sourcetrack>
                  <mediatype>video</mediatype>
                  <trackindex>1</trackindex>
                </sourcetrack>
                <multiclip id="mcs-718">
                  <name>MCS-718</name>
                  <masterclipid>clip-master</masterclipid>
                  <collapsed>false</collapsed>
                  <angle>
                    <activevideoangle>false</activevideoangle>
                    <activeaudioangle>false</activeaudioangle>
                    <clip id="clip-1"/>
                  </angle>
                  <angle>
                    <activevideoangle>false</activevideoangle>
                    <activeaudioangle>false</activeaudioangle>
                    <clip id="clip-2"/>
                  </angle>
                  <angle>
                    <activevideoangle>false</activevideoangle>
                    <activeaudioangle>false</activeaudioangle>
                    <clip id="clip-3"/>
                  </angle>
                  <angle>
                    <activevideoangle>true</activevideoangle>
                    <activeaudioangle>true</activeaudioangle>
                    <clip id="clip-4"/>
                  </angle>
                  <angle>
                    <activevideoangle>false</activevideoangle>
                    <activeaudioangle>false</activeaudioangle>
                    <clip id="clip-5"/>
                  </angle>
                  <angle>
                    <activevideoangle>false</activevideoangle>
                    <activeaudioangle>false</activeaudioangle>
                    <clip id="clip-6"/>
                  </angle>
                  <angle>
                    <activevideoangle>false</activevideoangle>
                    <activeaudioangle>false</activeaudioangle>
                    <clip id="clip-7"/>
                  </angle>
                  <angle>
                    <activevideoangle>false</activevideoangle>
                    <activeaudioangle>false</activeaudioangle>
                    <clip id="clip-8"/>
                  </angle>
                  <angle>
                    <activevideoangle>false</activevideoangle>
                    <activeaudioangle>false</activeaudioangle>
                    <clip id="clip-9"/>
                  </angle>
                  <masterclipid>clip-master</masterclipid>
                </multiclip>
              </clipitem>
              <clipitem id="cs-719">
                <duration>362</duration>
                <rate>
                  <ntsc>false</ntsc>
                  <timebase>25</timebase>
                </rate>
                <in>111745</in>
                <out>112106</out>
                <start>111745</start>
                <end>112106</end>
                <file id="src-2"/>
                <sourcetrack>
                  <mediatype>video</mediatype>
                  <trackindex>1</trackindex>
                </sourcetrack>
                <multiclip id="mcs-719">
                  <name>MCS-719</name>
                  <masterclipid>clip-master</masterclipid>
                  <collapsed>false</collapsed>
                  <angle>
                    <activevideoangle>false</activevideoangle>
                    <activeaudioangle>false</activeaudioangle>
                    <clip id="clip-1"/>
                  </angle>
                  <angle>
                    <activevideoangle>true</activevideoangle>
                    <activeaudioangle>true</activeaudioangle>
                    <clip id="clip-2"/>
                  </angle>
                  <angle>
                    <activevideoangle>false</activevideoangle>
                    <activeaudioangle>false</activeaudioangle>
                    <clip id="clip-3"/>
                  </angle>
                  <angle>
                    <activevideoangle>false</activevideoangle>
                    <activeaudioangle>false</activeaudioangle>
                    <clip id="clip-4"/>
                  </angle>
                  <angle>
                    <activevideoangle>false</activevideoangle>
                    <activeaudioangle>false</activeaudioangle>
                    <clip id="clip-5"/>
                  </angle>
                  <angle>
                    <activevideoangle>false</activevideoangle>
                    <activeaudioangle>false</activeaudioangle>
                    <clip id="clip-6"/>
                  </angle>
                  <angle>
                    <activevideoangle>false</activevideoangle>
                    <activeaudioangle>false</activeaudioangle>
                    <clip id="clip-7"/>
                  </angle>
                  <angle>
                    <activevideoangle>false</activevideoangle>
                    <activeaudioangle>false</activeaudioangle>
                    <clip id="clip-8"/>
                  </angle>
                  <angle>
                    <activevideoangle>false</activevideoangle>
                    <activeaudioangle>false</activeaudioangle>
                    <clip id="clip-9"/>
                  </angle>
                  <masterclipid>clip-master</masterclipid>
                </multiclip>
              </clipitem>
              <clipitem id="cs-720">
                <duration>81</duration>
                <rate>
                  <ntsc>false</ntsc>
                  <timebase>25</timebase>
                </rate>
                <in>112106</in>
                <out>112186</out>
                <start>112106</start>
                <end>112186</end>
                <file id="src-4"/>
                <sourcetrack>
                  <mediatype>video</mediatype>
                  <trackindex>1</trackindex>
                </sourcetrack>
                <multiclip id="mcs-720">
                  <name>MCS-720</name>
                  <masterclipid>clip-master</masterclipid>
                  <collapsed>false</collapsed>
                  <angle>
                    <activevideoangle>false</activevideoangle>
                    <activeaudioangle>false</activeaudioangle>
                    <clip id="clip-1"/>
                  </angle>
                  <angle>
                    <activevideoangle>false</activevideoangle>
                    <activeaudioangle>false</activeaudioangle>
                    <clip id="clip-2"/>
                  </angle>
                  <angle>
                    <activevideoangle>false</activevideoangle>
                    <activeaudioangle>false</activeaudioangle>
                    <clip id="clip-3"/>
                  </angle>
                  <angle>
                    <activevideoangle>true</activevideoangle>
                    <activeaudioangle>true</activeaudioangle>
                    <clip id="clip-4"/>
                  </angle>
                  <angle>
                    <activevideoangle>false</activevideoangle>
                    <activeaudioangle>false</activeaudioangle>
                    <clip id="clip-5"/>
                  </angle>
                  <angle>
                    <activevideoangle>false</activevideoangle>
                    <activeaudioangle>false</activeaudioangle>
                    <clip id="clip-6"/>
                  </angle>
                  <angle>
                    <activevideoangle>false</activevideoangle>
                    <activeaudioangle>false</activeaudioangle>
                    <clip id="clip-7"/>
                  </angle>
                  <angle>
                    <activevideoangle>false</activevideoangle>
                    <activeaudioangle>false</activeaudioangle>
                    <clip id="clip-8"/>
                  </angle>
                  <angle>
                    <activevideoangle>false</activevideoangle>
                    <activeaudioangle>false</activeaudioangle>
                    <clip id="clip-9"/>
                  </angle>
                  <masterclipid>clip-master</masterclipid>
                </multiclip>
              </clipitem>
              <clipitem id="cs-721">
                <duration>133</duration>
                <rate>
                  <ntsc>false</ntsc>
                  <timebase>25</timebase>
                </rate>
                <in>112186</in>
                <out>112318</out>
                <start>112186</start>
                <end>112318</end>
                <file id="src-1"/>
                <sourcetrack>
                  <mediatype>video</mediatype>
                  <trackindex>1</trackindex>
                </sourcetrack>
                <multiclip id="mcs-721">
                  <name>MCS-721</name>
                  <masterclipid>clip-master</masterclipid>
                  <collapsed>false</collapsed>
                  <angle>
                    <activevideoangle>true</activevideoangle>
                    <activeaudioangle>true</activeaudioangle>
                    <clip id="clip-1"/>
                  </angle>
                  <angle>
                    <activevideoangle>false</activevideoangle>
                    <activeaudioangle>false</activeaudioangle>
                    <clip id="clip-2"/>
                  </angle>
                  <angle>
                    <activevideoangle>false</activevideoangle>
                    <activeaudioangle>false</activeaudioangle>
                    <clip id="clip-3"/>
                  </angle>
                  <angle>
                    <activevideoangle>false</activevideoangle>
                    <activeaudioangle>false</activeaudioangle>
                    <clip id="clip-4"/>
                  </angle>
                  <angle>
                    <activevideoangle>false</activevideoangle>
                    <activeaudioangle>false</activeaudioangle>
                    <clip id="clip-5"/>
                  </angle>
                  <angle>
                    <activevideoangle>false</activevideoangle>
                    <activeaudioangle>false</activeaudioangle>
                    <clip id="clip-6"/>
                  </angle>
                  <angle>
                    <activevideoangle>false</activevideoangle>
                    <activeaudioangle>false</activeaudioangle>
                    <clip id="clip-7"/>
                  </angle>
                  <angle>
                    <activevideoangle>false</activevideoangle>
                    <activeaudioangle>false</activeaudioangle>
                    <clip id="clip-8"/>
                  </angle>
                  <angle>
                    <activevideoangle>false</activevideoangle>
                    <activeaudioangle>false</activeaudioangle>
                    <clip id="clip-9"/>
                  </angle>
                  <masterclipid>clip-master</masterclipid>
                </multiclip>
              </clipitem>
              <clipitem id="cs-722">
                <duration>488</duration>
                <rate>
                  <ntsc>false</ntsc>
                  <timebase>25</timebase>
                </rate>
                <in>112318</in>
                <out>112805</out>
                <start>112318</start>
                <end>112805</end>
                <file id="src-3"/>
                <sourcetrack>
                  <mediatype>video</mediatype>
                  <trackindex>1</trackindex>
                </sourcetrack>
                <multiclip id="mcs-722">
                  <name>MCS-722</name>
                  <masterclipid>clip-master</masterclipid>
                  <collapsed>false</collapsed>
                  <angle>
                    <activevideoangle>false</activevideoangle>
                    <activeaudioangle>false</activeaudioangle>
                    <clip id="clip-1"/>
                  </angle>
                  <angle>
                    <activevideoangle>false</activevideoangle>
                    <activeaudioangle>false</activeaudioangle>
                    <clip id="clip-2"/>
                  </angle>
                  <angle>
                    <activevideoangle>true</activevideoangle>
                    <activeaudioangle>true</activeaudioangle>
                    <clip id="clip-3"/>
                  </angle>
                  <angle>
                    <activevideoangle>false</activevideoangle>
                    <activeaudioangle>false</activeaudioangle>
                    <clip id="clip-4"/>
                  </angle>
                  <angle>
                    <activevideoangle>false</activevideoangle>
                    <activeaudioangle>false</activeaudioangle>
                    <clip id="clip-5"/>
                  </angle>
                  <angle>
                    <activevideoangle>false</activevideoangle>
                    <activeaudioangle>false</activeaudioangle>
                    <clip id="clip-6"/>
                  </angle>
                  <angle>
                    <activevideoangle>false</activevideoangle>
                    <activeaudioangle>false</activeaudioangle>
                    <clip id="clip-7"/>
                  </angle>
                  <angle>
                    <activevideoangle>false</activevideoangle>
                    <activeaudioangle>false</activeaudioangle>
                    <clip id="clip-8"/>
                  </angle>
                  <angle>
                    <activevideoangle>false</activevideoangle>
                    <activeaudioangle>false</activeaudioangle>
                    <clip id="clip-9"/>
                  </angle>
                  <masterclipid>clip-master</masterclipid>
                </multiclip>
              </clipitem>
              <clipitem id="cs-723">
                <duration>569</duration>
                <rate>
                  <ntsc>false</ntsc>
                  <timebase>25</timebase>
                </rate>
                <in>112805</in>
                <out>113373</out>
                <start>112805</start>
                <end>113373</end>
                <file id="src-1"/>
                <sourcetrack>
                  <mediatype>video</mediatype>
                  <trackindex>1</trackindex>
                </sourcetrack>
                <multiclip id="mcs-723">
                  <name>MCS-723</name>
                  <masterclipid>clip-master</masterclipid>
                  <collapsed>false</collapsed>
                  <angle>
                    <activevideoangle>true</activevideoangle>
                    <activeaudioangle>true</activeaudioangle>
                    <clip id="clip-1"/>
                  </angle>
                  <angle>
                    <activevideoangle>false</activevideoangle>
                    <activeaudioangle>false</activeaudioangle>
                    <clip id="clip-2"/>
                  </angle>
                  <angle>
                    <activevideoangle>false</activevideoangle>
                    <activeaudioangle>false</activeaudioangle>
                    <clip id="clip-3"/>
                  </angle>
                  <angle>
                    <activevideoangle>false</activevideoangle>
                    <activeaudioangle>false</activeaudioangle>
                    <clip id="clip-4"/>
                  </angle>
                  <angle>
                    <activevideoangle>false</activevideoangle>
                    <activeaudioangle>false</activeaudioangle>
                    <clip id="clip-5"/>
                  </angle>
                  <angle>
                    <activevideoangle>false</activevideoangle>
                    <activeaudioangle>false</activeaudioangle>
                    <clip id="clip-6"/>
                  </angle>
                  <angle>
                    <activevideoangle>false</activevideoangle>
                    <activeaudioangle>false</activeaudioangle>
                    <clip id="clip-7"/>
                  </angle>
                  <angle>
                    <activevideoangle>false</activevideoangle>
                    <activeaudioangle>false</activeaudioangle>
                    <clip id="clip-8"/>
                  </angle>
                  <angle>
                    <activevideoangle>false</activevideoangle>
                    <activeaudioangle>false</activeaudioangle>
                    <clip id="clip-9"/>
                  </angle>
                  <masterclipid>clip-master</masterclipid>
                </multiclip>
              </clipitem>
              <clipitem id="cs-724">
                <duration>126</duration>
                <rate>
                  <ntsc>false</ntsc>
                  <timebase>25</timebase>
                </rate>
                <in>113373</in>
                <out>113498</out>
                <start>113373</start>
                <end>113498</end>
                <file id="src-5"/>
                <sourcetrack>
                  <mediatype>video</mediatype>
                  <trackindex>1</trackindex>
                </sourcetrack>
                <multiclip id="mcs-724">
                  <name>MCS-724</name>
                  <masterclipid>clip-master</masterclipid>
                  <collapsed>false</collapsed>
                  <angle>
                    <activevideoangle>false</activevideoangle>
                    <activeaudioangle>false</activeaudioangle>
                    <clip id="clip-1"/>
                  </angle>
                  <angle>
                    <activevideoangle>false</activevideoangle>
                    <activeaudioangle>false</activeaudioangle>
                    <clip id="clip-2"/>
                  </angle>
                  <angle>
                    <activevideoangle>false</activevideoangle>
                    <activeaudioangle>false</activeaudioangle>
                    <clip id="clip-3"/>
                  </angle>
                  <angle>
                    <activevideoangle>false</activevideoangle>
                    <activeaudioangle>false</activeaudioangle>
                    <clip id="clip-4"/>
                  </angle>
                  <angle>
                    <activevideoangle>true</activevideoangle>
                    <activeaudioangle>true</activeaudioangle>
                    <clip id="clip-5"/>
                  </angle>
                  <angle>
                    <activevideoangle>false</activevideoangle>
                    <activeaudioangle>false</activeaudioangle>
                    <clip id="clip-6"/>
                  </angle>
                  <angle>
                    <activevideoangle>false</activevideoangle>
                    <activeaudioangle>false</activeaudioangle>
                    <clip id="clip-7"/>
                  </angle>
                  <angle>
                    <activevideoangle>false</activevideoangle>
                    <activeaudioangle>false</activeaudioangle>
                    <clip id="clip-8"/>
                  </angle>
                  <angle>
                    <activevideoangle>false</activevideoangle>
                    <activeaudioangle>false</activeaudioangle>
                    <clip id="clip-9"/>
                  </angle>
                  <masterclipid>clip-master</masterclipid>
                </multiclip>
              </clipitem>
              <clipitem id="cs-725">
                <duration>631</duration>
                <rate>
                  <ntsc>false</ntsc>
                  <timebase>25</timebase>
                </rate>
                <in>113498</in>
                <out>114128</out>
                <start>113498</start>
                <end>114128</end>
                <file id="src-2"/>
                <sourcetrack>
                  <mediatype>video</mediatype>
                  <trackindex>1</trackindex>
                </sourcetrack>
                <multiclip id="mcs-725">
                  <name>MCS-725</name>
                  <masterclipid>clip-master</masterclipid>
                  <collapsed>false</collapsed>
                  <angle>
                    <activevideoangle>false</activevideoangle>
                    <activeaudioangle>false</activeaudioangle>
                    <clip id="clip-1"/>
                  </angle>
                  <angle>
                    <activevideoangle>true</activevideoangle>
                    <activeaudioangle>true</activeaudioangle>
                    <clip id="clip-2"/>
                  </angle>
                  <angle>
                    <activevideoangle>false</activevideoangle>
                    <activeaudioangle>false</activeaudioangle>
                    <clip id="clip-3"/>
                  </angle>
                  <angle>
                    <activevideoangle>false</activevideoangle>
                    <activeaudioangle>false</activeaudioangle>
                    <clip id="clip-4"/>
                  </angle>
                  <angle>
                    <activevideoangle>false</activevideoangle>
                    <activeaudioangle>false</activeaudioangle>
                    <clip id="clip-5"/>
                  </angle>
                  <angle>
                    <activevideoangle>false</activevideoangle>
                    <activeaudioangle>false</activeaudioangle>
                    <clip id="clip-6"/>
                  </angle>
                  <angle>
                    <activevideoangle>false</activevideoangle>
                    <activeaudioangle>false</activeaudioangle>
                    <clip id="clip-7"/>
                  </angle>
                  <angle>
                    <activevideoangle>false</activevideoangle>
                    <activeaudioangle>false</activeaudioangle>
                    <clip id="clip-8"/>
                  </angle>
                  <angle>
                    <activevideoangle>false</activevideoangle>
                    <activeaudioangle>false</activeaudioangle>
                    <clip id="clip-9"/>
                  </angle>
                  <masterclipid>clip-master</masterclipid>
                </multiclip>
              </clipitem>
              <clipitem id="cs-726">
                <duration>136</duration>
                <rate>
                  <ntsc>false</ntsc>
                  <timebase>25</timebase>
                </rate>
                <in>114128</in>
                <out>114263</out>
                <start>114128</start>
                <end>114263</end>
                <file id="src-4"/>
                <sourcetrack>
                  <mediatype>video</mediatype>
                  <trackindex>1</trackindex>
                </sourcetrack>
                <multiclip id="mcs-726">
                  <name>MCS-726</name>
                  <masterclipid>clip-master</masterclipid>
                  <collapsed>false</collapsed>
                  <angle>
                    <activevideoangle>false</activevideoangle>
                    <activeaudioangle>false</activeaudioangle>
                    <clip id="clip-1"/>
                  </angle>
                  <angle>
                    <activevideoangle>false</activevideoangle>
                    <activeaudioangle>false</activeaudioangle>
                    <clip id="clip-2"/>
                  </angle>
                  <angle>
                    <activevideoangle>false</activevideoangle>
                    <activeaudioangle>false</activeaudioangle>
                    <clip id="clip-3"/>
                  </angle>
                  <angle>
                    <activevideoangle>true</activevideoangle>
                    <activeaudioangle>true</activeaudioangle>
                    <clip id="clip-4"/>
                  </angle>
                  <angle>
                    <activevideoangle>false</activevideoangle>
                    <activeaudioangle>false</activeaudioangle>
                    <clip id="clip-5"/>
                  </angle>
                  <angle>
                    <activevideoangle>false</activevideoangle>
                    <activeaudioangle>false</activeaudioangle>
                    <clip id="clip-6"/>
                  </angle>
                  <angle>
                    <activevideoangle>false</activevideoangle>
                    <activeaudioangle>false</activeaudioangle>
                    <clip id="clip-7"/>
                  </angle>
                  <angle>
                    <activevideoangle>false</activevideoangle>
                    <activeaudioangle>false</activeaudioangle>
                    <clip id="clip-8"/>
                  </angle>
                  <angle>
                    <activevideoangle>false</activevideoangle>
                    <activeaudioangle>false</activeaudioangle>
                    <clip id="clip-9"/>
                  </angle>
                  <masterclipid>clip-master</masterclipid>
                </multiclip>
              </clipitem>
              <clipitem id="cs-727">
                <duration>265</duration>
                <rate>
                  <ntsc>false</ntsc>
                  <timebase>25</timebase>
                </rate>
                <in>114263</in>
                <out>114527</out>
                <start>114263</start>
                <end>114527</end>
                <file id="src-2"/>
                <sourcetrack>
                  <mediatype>video</mediatype>
                  <trackindex>1</trackindex>
                </sourcetrack>
                <multiclip id="mcs-727">
                  <name>MCS-727</name>
                  <masterclipid>clip-master</masterclipid>
                  <collapsed>false</collapsed>
                  <angle>
                    <activevideoangle>false</activevideoangle>
                    <activeaudioangle>false</activeaudioangle>
                    <clip id="clip-1"/>
                  </angle>
                  <angle>
                    <activevideoangle>true</activevideoangle>
                    <activeaudioangle>true</activeaudioangle>
                    <clip id="clip-2"/>
                  </angle>
                  <angle>
                    <activevideoangle>false</activevideoangle>
                    <activeaudioangle>false</activeaudioangle>
                    <clip id="clip-3"/>
                  </angle>
                  <angle>
                    <activevideoangle>false</activevideoangle>
                    <activeaudioangle>false</activeaudioangle>
                    <clip id="clip-4"/>
                  </angle>
                  <angle>
                    <activevideoangle>false</activevideoangle>
                    <activeaudioangle>false</activeaudioangle>
                    <clip id="clip-5"/>
                  </angle>
                  <angle>
                    <activevideoangle>false</activevideoangle>
                    <activeaudioangle>false</activeaudioangle>
                    <clip id="clip-6"/>
                  </angle>
                  <angle>
                    <activevideoangle>false</activevideoangle>
                    <activeaudioangle>false</activeaudioangle>
                    <clip id="clip-7"/>
                  </angle>
                  <angle>
                    <activevideoangle>false</activevideoangle>
                    <activeaudioangle>false</activeaudioangle>
                    <clip id="clip-8"/>
                  </angle>
                  <angle>
                    <activevideoangle>false</activevideoangle>
                    <activeaudioangle>false</activeaudioangle>
                    <clip id="clip-9"/>
                  </angle>
                  <masterclipid>clip-master</masterclipid>
                </multiclip>
              </clipitem>
              <clipitem id="cs-728">
                <duration>281</duration>
                <rate>
                  <ntsc>false</ntsc>
                  <timebase>25</timebase>
                </rate>
                <in>114527</in>
                <out>114807</out>
                <start>114527</start>
                <end>114807</end>
                <file id="src-4"/>
                <sourcetrack>
                  <mediatype>video</mediatype>
                  <trackindex>1</trackindex>
                </sourcetrack>
                <multiclip id="mcs-728">
                  <name>MCS-728</name>
                  <masterclipid>clip-master</masterclipid>
                  <collapsed>false</collapsed>
                  <angle>
                    <activevideoangle>false</activevideoangle>
                    <activeaudioangle>false</activeaudioangle>
                    <clip id="clip-1"/>
                  </angle>
                  <angle>
                    <activevideoangle>false</activevideoangle>
                    <activeaudioangle>false</activeaudioangle>
                    <clip id="clip-2"/>
                  </angle>
                  <angle>
                    <activevideoangle>false</activevideoangle>
                    <activeaudioangle>false</activeaudioangle>
                    <clip id="clip-3"/>
                  </angle>
                  <angle>
                    <activevideoangle>true</activevideoangle>
                    <activeaudioangle>true</activeaudioangle>
                    <clip id="clip-4"/>
                  </angle>
                  <angle>
                    <activevideoangle>false</activevideoangle>
                    <activeaudioangle>false</activeaudioangle>
                    <clip id="clip-5"/>
                  </angle>
                  <angle>
                    <activevideoangle>false</activevideoangle>
                    <activeaudioangle>false</activeaudioangle>
                    <clip id="clip-6"/>
                  </angle>
                  <angle>
                    <activevideoangle>false</activevideoangle>
                    <activeaudioangle>false</activeaudioangle>
                    <clip id="clip-7"/>
                  </angle>
                  <angle>
                    <activevideoangle>false</activevideoangle>
                    <activeaudioangle>false</activeaudioangle>
                    <clip id="clip-8"/>
                  </angle>
                  <angle>
                    <activevideoangle>false</activevideoangle>
                    <activeaudioangle>false</activeaudioangle>
                    <clip id="clip-9"/>
                  </angle>
                  <masterclipid>clip-master</masterclipid>
                </multiclip>
              </clipitem>
              <clipitem id="cs-729">
                <duration>231</duration>
                <rate>
                  <ntsc>false</ntsc>
                  <timebase>25</timebase>
                </rate>
                <in>114807</in>
                <out>115037</out>
                <start>114807</start>
                <end>115037</end>
                <file id="src-2"/>
                <sourcetrack>
                  <mediatype>video</mediatype>
                  <trackindex>1</trackindex>
                </sourcetrack>
                <multiclip id="mcs-729">
                  <name>MCS-729</name>
                  <masterclipid>clip-master</masterclipid>
                  <collapsed>false</collapsed>
                  <angle>
                    <activevideoangle>false</activevideoangle>
                    <activeaudioangle>false</activeaudioangle>
                    <clip id="clip-1"/>
                  </angle>
                  <angle>
                    <activevideoangle>true</activevideoangle>
                    <activeaudioangle>true</activeaudioangle>
                    <clip id="clip-2"/>
                  </angle>
                  <angle>
                    <activevideoangle>false</activevideoangle>
                    <activeaudioangle>false</activeaudioangle>
                    <clip id="clip-3"/>
                  </angle>
                  <angle>
                    <activevideoangle>false</activevideoangle>
                    <activeaudioangle>false</activeaudioangle>
                    <clip id="clip-4"/>
                  </angle>
                  <angle>
                    <activevideoangle>false</activevideoangle>
                    <activeaudioangle>false</activeaudioangle>
                    <clip id="clip-5"/>
                  </angle>
                  <angle>
                    <activevideoangle>false</activevideoangle>
                    <activeaudioangle>false</activeaudioangle>
                    <clip id="clip-6"/>
                  </angle>
                  <angle>
                    <activevideoangle>false</activevideoangle>
                    <activeaudioangle>false</activeaudioangle>
                    <clip id="clip-7"/>
                  </angle>
                  <angle>
                    <activevideoangle>false</activevideoangle>
                    <activeaudioangle>false</activeaudioangle>
                    <clip id="clip-8"/>
                  </angle>
                  <angle>
                    <activevideoangle>false</activevideoangle>
                    <activeaudioangle>false</activeaudioangle>
                    <clip id="clip-9"/>
                  </angle>
                  <masterclipid>clip-master</masterclipid>
                </multiclip>
              </clipitem>
              <clipitem id="cs-730">
                <duration>231</duration>
                <rate>
                  <ntsc>false</ntsc>
                  <timebase>25</timebase>
                </rate>
                <in>115037</in>
                <out>115267</out>
                <start>115037</start>
                <end>115267</end>
                <file id="src-5"/>
                <sourcetrack>
                  <mediatype>video</mediatype>
                  <trackindex>1</trackindex>
                </sourcetrack>
                <multiclip id="mcs-730">
                  <name>MCS-730</name>
                  <masterclipid>clip-master</masterclipid>
                  <collapsed>false</collapsed>
                  <angle>
                    <activevideoangle>false</activevideoangle>
                    <activeaudioangle>false</activeaudioangle>
                    <clip id="clip-1"/>
                  </angle>
                  <angle>
                    <activevideoangle>false</activevideoangle>
                    <activeaudioangle>false</activeaudioangle>
                    <clip id="clip-2"/>
                  </angle>
                  <angle>
                    <activevideoangle>false</activevideoangle>
                    <activeaudioangle>false</activeaudioangle>
                    <clip id="clip-3"/>
                  </angle>
                  <angle>
                    <activevideoangle>false</activevideoangle>
                    <activeaudioangle>false</activeaudioangle>
                    <clip id="clip-4"/>
                  </angle>
                  <angle>
                    <activevideoangle>true</activevideoangle>
                    <activeaudioangle>true</activeaudioangle>
                    <clip id="clip-5"/>
                  </angle>
                  <angle>
                    <activevideoangle>false</activevideoangle>
                    <activeaudioangle>false</activeaudioangle>
                    <clip id="clip-6"/>
                  </angle>
                  <angle>
                    <activevideoangle>false</activevideoangle>
                    <activeaudioangle>false</activeaudioangle>
                    <clip id="clip-7"/>
                  </angle>
                  <angle>
                    <activevideoangle>false</activevideoangle>
                    <activeaudioangle>false</activeaudioangle>
                    <clip id="clip-8"/>
                  </angle>
                  <angle>
                    <activevideoangle>false</activevideoangle>
                    <activeaudioangle>false</activeaudioangle>
                    <clip id="clip-9"/>
                  </angle>
                  <masterclipid>clip-master</masterclipid>
                </multiclip>
              </clipitem>
              <clipitem id="cs-731">
                <duration>103</duration>
                <rate>
                  <ntsc>false</ntsc>
                  <timebase>25</timebase>
                </rate>
                <in>115267</in>
                <out>115369</out>
                <start>115267</start>
                <end>115369</end>
                <file id="src-7"/>
                <sourcetrack>
                  <mediatype>video</mediatype>
                  <trackindex>1</trackindex>
                </sourcetrack>
                <multiclip id="mcs-731">
                  <name>MCS-731</name>
                  <masterclipid>clip-master</masterclipid>
                  <collapsed>false</collapsed>
                  <angle>
                    <activevideoangle>false</activevideoangle>
                    <activeaudioangle>false</activeaudioangle>
                    <clip id="clip-1"/>
                  </angle>
                  <angle>
                    <activevideoangle>false</activevideoangle>
                    <activeaudioangle>false</activeaudioangle>
                    <clip id="clip-2"/>
                  </angle>
                  <angle>
                    <activevideoangle>false</activevideoangle>
                    <activeaudioangle>false</activeaudioangle>
                    <clip id="clip-3"/>
                  </angle>
                  <angle>
                    <activevideoangle>false</activevideoangle>
                    <activeaudioangle>false</activeaudioangle>
                    <clip id="clip-4"/>
                  </angle>
                  <angle>
                    <activevideoangle>false</activevideoangle>
                    <activeaudioangle>false</activeaudioangle>
                    <clip id="clip-5"/>
                  </angle>
                  <angle>
                    <activevideoangle>false</activevideoangle>
                    <activeaudioangle>false</activeaudioangle>
                    <clip id="clip-6"/>
                  </angle>
                  <angle>
                    <activevideoangle>true</activevideoangle>
                    <activeaudioangle>true</activeaudioangle>
                    <clip id="clip-7"/>
                  </angle>
                  <angle>
                    <activevideoangle>false</activevideoangle>
                    <activeaudioangle>false</activeaudioangle>
                    <clip id="clip-8"/>
                  </angle>
                  <angle>
                    <activevideoangle>false</activevideoangle>
                    <activeaudioangle>false</activeaudioangle>
                    <clip id="clip-9"/>
                  </angle>
                  <masterclipid>clip-master</masterclipid>
                </multiclip>
              </clipitem>
              <clipitem id="cs-732">
                <duration>74</duration>
                <rate>
                  <ntsc>false</ntsc>
                  <timebase>25</timebase>
                </rate>
                <in>115369</in>
                <out>115442</out>
                <start>115369</start>
                <end>115442</end>
                <file id="src-2"/>
                <sourcetrack>
                  <mediatype>video</mediatype>
                  <trackindex>1</trackindex>
                </sourcetrack>
                <multiclip id="mcs-732">
                  <name>MCS-732</name>
                  <masterclipid>clip-master</masterclipid>
                  <collapsed>false</collapsed>
                  <angle>
                    <activevideoangle>false</activevideoangle>
                    <activeaudioangle>false</activeaudioangle>
                    <clip id="clip-1"/>
                  </angle>
                  <angle>
                    <activevideoangle>true</activevideoangle>
                    <activeaudioangle>true</activeaudioangle>
                    <clip id="clip-2"/>
                  </angle>
                  <angle>
                    <activevideoangle>false</activevideoangle>
                    <activeaudioangle>false</activeaudioangle>
                    <clip id="clip-3"/>
                  </angle>
                  <angle>
                    <activevideoangle>false</activevideoangle>
                    <activeaudioangle>false</activeaudioangle>
                    <clip id="clip-4"/>
                  </angle>
                  <angle>
                    <activevideoangle>false</activevideoangle>
                    <activeaudioangle>false</activeaudioangle>
                    <clip id="clip-5"/>
                  </angle>
                  <angle>
                    <activevideoangle>false</activevideoangle>
                    <activeaudioangle>false</activeaudioangle>
                    <clip id="clip-6"/>
                  </angle>
                  <angle>
                    <activevideoangle>false</activevideoangle>
                    <activeaudioangle>false</activeaudioangle>
                    <clip id="clip-7"/>
                  </angle>
                  <angle>
                    <activevideoangle>false</activevideoangle>
                    <activeaudioangle>false</activeaudioangle>
                    <clip id="clip-8"/>
                  </angle>
                  <angle>
                    <activevideoangle>false</activevideoangle>
                    <activeaudioangle>false</activeaudioangle>
                    <clip id="clip-9"/>
                  </angle>
                  <masterclipid>clip-master</masterclipid>
                </multiclip>
              </clipitem>
              <clipitem id="cs-733">
                <duration>765</duration>
                <rate>
                  <ntsc>false</ntsc>
                  <timebase>25</timebase>
                </rate>
                <in>115442</in>
                <out>116206</out>
                <start>115442</start>
                <end>116206</end>
                <file id="src-3"/>
                <sourcetrack>
                  <mediatype>video</mediatype>
                  <trackindex>1</trackindex>
                </sourcetrack>
                <multiclip id="mcs-733">
                  <name>MCS-733</name>
                  <masterclipid>clip-master</masterclipid>
                  <collapsed>false</collapsed>
                  <angle>
                    <activevideoangle>false</activevideoangle>
                    <activeaudioangle>false</activeaudioangle>
                    <clip id="clip-1"/>
                  </angle>
                  <angle>
                    <activevideoangle>false</activevideoangle>
                    <activeaudioangle>false</activeaudioangle>
                    <clip id="clip-2"/>
                  </angle>
                  <angle>
                    <activevideoangle>true</activevideoangle>
                    <activeaudioangle>true</activeaudioangle>
                    <clip id="clip-3"/>
                  </angle>
                  <angle>
                    <activevideoangle>false</activevideoangle>
                    <activeaudioangle>false</activeaudioangle>
                    <clip id="clip-4"/>
                  </angle>
                  <angle>
                    <activevideoangle>false</activevideoangle>
                    <activeaudioangle>false</activeaudioangle>
                    <clip id="clip-5"/>
                  </angle>
                  <angle>
                    <activevideoangle>false</activevideoangle>
                    <activeaudioangle>false</activeaudioangle>
                    <clip id="clip-6"/>
                  </angle>
                  <angle>
                    <activevideoangle>false</activevideoangle>
                    <activeaudioangle>false</activeaudioangle>
                    <clip id="clip-7"/>
                  </angle>
                  <angle>
                    <activevideoangle>false</activevideoangle>
                    <activeaudioangle>false</activeaudioangle>
                    <clip id="clip-8"/>
                  </angle>
                  <angle>
                    <activevideoangle>false</activevideoangle>
                    <activeaudioangle>false</activeaudioangle>
                    <clip id="clip-9"/>
                  </angle>
                  <masterclipid>clip-master</masterclipid>
                </multiclip>
              </clipitem>
              <clipitem id="cs-734">
                <duration>37</duration>
                <rate>
                  <ntsc>false</ntsc>
                  <timebase>25</timebase>
                </rate>
                <in>116206</in>
                <out>116242</out>
                <start>116206</start>
                <end>116242</end>
                <file id="src-2"/>
                <sourcetrack>
                  <mediatype>video</mediatype>
                  <trackindex>1</trackindex>
                </sourcetrack>
                <multiclip id="mcs-734">
                  <name>MCS-734</name>
                  <masterclipid>clip-master</masterclipid>
                  <collapsed>false</collapsed>
                  <angle>
                    <activevideoangle>false</activevideoangle>
                    <activeaudioangle>false</activeaudioangle>
                    <clip id="clip-1"/>
                  </angle>
                  <angle>
                    <activevideoangle>true</activevideoangle>
                    <activeaudioangle>true</activeaudioangle>
                    <clip id="clip-2"/>
                  </angle>
                  <angle>
                    <activevideoangle>false</activevideoangle>
                    <activeaudioangle>false</activeaudioangle>
                    <clip id="clip-3"/>
                  </angle>
                  <angle>
                    <activevideoangle>false</activevideoangle>
                    <activeaudioangle>false</activeaudioangle>
                    <clip id="clip-4"/>
                  </angle>
                  <angle>
                    <activevideoangle>false</activevideoangle>
                    <activeaudioangle>false</activeaudioangle>
                    <clip id="clip-5"/>
                  </angle>
                  <angle>
                    <activevideoangle>false</activevideoangle>
                    <activeaudioangle>false</activeaudioangle>
                    <clip id="clip-6"/>
                  </angle>
                  <angle>
                    <activevideoangle>false</activevideoangle>
                    <activeaudioangle>false</activeaudioangle>
                    <clip id="clip-7"/>
                  </angle>
                  <angle>
                    <activevideoangle>false</activevideoangle>
                    <activeaudioangle>false</activeaudioangle>
                    <clip id="clip-8"/>
                  </angle>
                  <angle>
                    <activevideoangle>false</activevideoangle>
                    <activeaudioangle>false</activeaudioangle>
                    <clip id="clip-9"/>
                  </angle>
                  <masterclipid>clip-master</masterclipid>
                </multiclip>
              </clipitem>
              <clipitem id="cs-735">
                <duration>190</duration>
                <rate>
                  <ntsc>false</ntsc>
                  <timebase>25</timebase>
                </rate>
                <in>116242</in>
                <out>116431</out>
                <start>116242</start>
                <end>116431</end>
                <file id="src-1"/>
                <sourcetrack>
                  <mediatype>video</mediatype>
                  <trackindex>1</trackindex>
                </sourcetrack>
                <multiclip id="mcs-735">
                  <name>MCS-735</name>
                  <masterclipid>clip-master</masterclipid>
                  <collapsed>false</collapsed>
                  <angle>
                    <activevideoangle>true</activevideoangle>
                    <activeaudioangle>true</activeaudioangle>
                    <clip id="clip-1"/>
                  </angle>
                  <angle>
                    <activevideoangle>false</activevideoangle>
                    <activeaudioangle>false</activeaudioangle>
                    <clip id="clip-2"/>
                  </angle>
                  <angle>
                    <activevideoangle>false</activevideoangle>
                    <activeaudioangle>false</activeaudioangle>
                    <clip id="clip-3"/>
                  </angle>
                  <angle>
                    <activevideoangle>false</activevideoangle>
                    <activeaudioangle>false</activeaudioangle>
                    <clip id="clip-4"/>
                  </angle>
                  <angle>
                    <activevideoangle>false</activevideoangle>
                    <activeaudioangle>false</activeaudioangle>
                    <clip id="clip-5"/>
                  </angle>
                  <angle>
                    <activevideoangle>false</activevideoangle>
                    <activeaudioangle>false</activeaudioangle>
                    <clip id="clip-6"/>
                  </angle>
                  <angle>
                    <activevideoangle>false</activevideoangle>
                    <activeaudioangle>false</activeaudioangle>
                    <clip id="clip-7"/>
                  </angle>
                  <angle>
                    <activevideoangle>false</activevideoangle>
                    <activeaudioangle>false</activeaudioangle>
                    <clip id="clip-8"/>
                  </angle>
                  <angle>
                    <activevideoangle>false</activevideoangle>
                    <activeaudioangle>false</activeaudioangle>
                    <clip id="clip-9"/>
                  </angle>
                  <masterclipid>clip-master</masterclipid>
                </multiclip>
              </clipitem>
              <clipitem id="cs-736">
                <duration>73</duration>
                <rate>
                  <ntsc>false</ntsc>
                  <timebase>25</timebase>
                </rate>
                <in>116431</in>
                <out>116503</out>
                <start>116431</start>
                <end>116503</end>
                <file id="src-2"/>
                <sourcetrack>
                  <mediatype>video</mediatype>
                  <trackindex>1</trackindex>
                </sourcetrack>
                <multiclip id="mcs-736">
                  <name>MCS-736</name>
                  <masterclipid>clip-master</masterclipid>
                  <collapsed>false</collapsed>
                  <angle>
                    <activevideoangle>false</activevideoangle>
                    <activeaudioangle>false</activeaudioangle>
                    <clip id="clip-1"/>
                  </angle>
                  <angle>
                    <activevideoangle>true</activevideoangle>
                    <activeaudioangle>true</activeaudioangle>
                    <clip id="clip-2"/>
                  </angle>
                  <angle>
                    <activevideoangle>false</activevideoangle>
                    <activeaudioangle>false</activeaudioangle>
                    <clip id="clip-3"/>
                  </angle>
                  <angle>
                    <activevideoangle>false</activevideoangle>
                    <activeaudioangle>false</activeaudioangle>
                    <clip id="clip-4"/>
                  </angle>
                  <angle>
                    <activevideoangle>false</activevideoangle>
                    <activeaudioangle>false</activeaudioangle>
                    <clip id="clip-5"/>
                  </angle>
                  <angle>
                    <activevideoangle>false</activevideoangle>
                    <activeaudioangle>false</activeaudioangle>
                    <clip id="clip-6"/>
                  </angle>
                  <angle>
                    <activevideoangle>false</activevideoangle>
                    <activeaudioangle>false</activeaudioangle>
                    <clip id="clip-7"/>
                  </angle>
                  <angle>
                    <activevideoangle>false</activevideoangle>
                    <activeaudioangle>false</activeaudioangle>
                    <clip id="clip-8"/>
                  </angle>
                  <angle>
                    <activevideoangle>false</activevideoangle>
                    <activeaudioangle>false</activeaudioangle>
                    <clip id="clip-9"/>
                  </angle>
                  <masterclipid>clip-master</masterclipid>
                </multiclip>
              </clipitem>
              <clipitem id="cs-737">
                <duration>69</duration>
                <rate>
                  <ntsc>false</ntsc>
                  <timebase>25</timebase>
                </rate>
                <in>116503</in>
                <out>116571</out>
                <start>116503</start>
                <end>116571</end>
                <file id="src-3"/>
                <sourcetrack>
                  <mediatype>video</mediatype>
                  <trackindex>1</trackindex>
                </sourcetrack>
                <multiclip id="mcs-737">
                  <name>MCS-737</name>
                  <masterclipid>clip-master</masterclipid>
                  <collapsed>false</collapsed>
                  <angle>
                    <activevideoangle>false</activevideoangle>
                    <activeaudioangle>false</activeaudioangle>
                    <clip id="clip-1"/>
                  </angle>
                  <angle>
                    <activevideoangle>false</activevideoangle>
                    <activeaudioangle>false</activeaudioangle>
                    <clip id="clip-2"/>
                  </angle>
                  <angle>
                    <activevideoangle>true</activevideoangle>
                    <activeaudioangle>true</activeaudioangle>
                    <clip id="clip-3"/>
                  </angle>
                  <angle>
                    <activevideoangle>false</activevideoangle>
                    <activeaudioangle>false</activeaudioangle>
                    <clip id="clip-4"/>
                  </angle>
                  <angle>
                    <activevideoangle>false</activevideoangle>
                    <activeaudioangle>false</activeaudioangle>
                    <clip id="clip-5"/>
                  </angle>
                  <angle>
                    <activevideoangle>false</activevideoangle>
                    <activeaudioangle>false</activeaudioangle>
                    <clip id="clip-6"/>
                  </angle>
                  <angle>
                    <activevideoangle>false</activevideoangle>
                    <activeaudioangle>false</activeaudioangle>
                    <clip id="clip-7"/>
                  </angle>
                  <angle>
                    <activevideoangle>false</activevideoangle>
                    <activeaudioangle>false</activeaudioangle>
                    <clip id="clip-8"/>
                  </angle>
                  <angle>
                    <activevideoangle>false</activevideoangle>
                    <activeaudioangle>false</activeaudioangle>
                    <clip id="clip-9"/>
                  </angle>
                  <masterclipid>clip-master</masterclipid>
                </multiclip>
              </clipitem>
              <clipitem id="cs-738">
                <duration>116</duration>
                <rate>
                  <ntsc>false</ntsc>
                  <timebase>25</timebase>
                </rate>
                <in>116571</in>
                <out>116686</out>
                <start>116571</start>
                <end>116686</end>
                <file id="src-6"/>
                <sourcetrack>
                  <mediatype>video</mediatype>
                  <trackindex>1</trackindex>
                </sourcetrack>
                <multiclip id="mcs-738">
                  <name>MCS-738</name>
                  <masterclipid>clip-master</masterclipid>
                  <collapsed>false</collapsed>
                  <angle>
                    <activevideoangle>false</activevideoangle>
                    <activeaudioangle>false</activeaudioangle>
                    <clip id="clip-1"/>
                  </angle>
                  <angle>
                    <activevideoangle>false</activevideoangle>
                    <activeaudioangle>false</activeaudioangle>
                    <clip id="clip-2"/>
                  </angle>
                  <angle>
                    <activevideoangle>false</activevideoangle>
                    <activeaudioangle>false</activeaudioangle>
                    <clip id="clip-3"/>
                  </angle>
                  <angle>
                    <activevideoangle>false</activevideoangle>
                    <activeaudioangle>false</activeaudioangle>
                    <clip id="clip-4"/>
                  </angle>
                  <angle>
                    <activevideoangle>false</activevideoangle>
                    <activeaudioangle>false</activeaudioangle>
                    <clip id="clip-5"/>
                  </angle>
                  <angle>
                    <activevideoangle>true</activevideoangle>
                    <activeaudioangle>true</activeaudioangle>
                    <clip id="clip-6"/>
                  </angle>
                  <angle>
                    <activevideoangle>false</activevideoangle>
                    <activeaudioangle>false</activeaudioangle>
                    <clip id="clip-7"/>
                  </angle>
                  <angle>
                    <activevideoangle>false</activevideoangle>
                    <activeaudioangle>false</activeaudioangle>
                    <clip id="clip-8"/>
                  </angle>
                  <angle>
                    <activevideoangle>false</activevideoangle>
                    <activeaudioangle>false</activeaudioangle>
                    <clip id="clip-9"/>
                  </angle>
                  <masterclipid>clip-master</masterclipid>
                </multiclip>
              </clipitem>
              <clipitem id="cs-739">
                <duration>105</duration>
                <rate>
                  <ntsc>false</ntsc>
                  <timebase>25</timebase>
                </rate>
                <in>116686</in>
                <out>116790</out>
                <start>116686</start>
                <end>116790</end>
                <file id="src-7"/>
                <sourcetrack>
                  <mediatype>video</mediatype>
                  <trackindex>1</trackindex>
                </sourcetrack>
                <multiclip id="mcs-739">
                  <name>MCS-739</name>
                  <masterclipid>clip-master</masterclipid>
                  <collapsed>false</collapsed>
                  <angle>
                    <activevideoangle>false</activevideoangle>
                    <activeaudioangle>false</activeaudioangle>
                    <clip id="clip-1"/>
                  </angle>
                  <angle>
                    <activevideoangle>false</activevideoangle>
                    <activeaudioangle>false</activeaudioangle>
                    <clip id="clip-2"/>
                  </angle>
                  <angle>
                    <activevideoangle>false</activevideoangle>
                    <activeaudioangle>false</activeaudioangle>
                    <clip id="clip-3"/>
                  </angle>
                  <angle>
                    <activevideoangle>false</activevideoangle>
                    <activeaudioangle>false</activeaudioangle>
                    <clip id="clip-4"/>
                  </angle>
                  <angle>
                    <activevideoangle>false</activevideoangle>
                    <activeaudioangle>false</activeaudioangle>
                    <clip id="clip-5"/>
                  </angle>
                  <angle>
                    <activevideoangle>false</activevideoangle>
                    <activeaudioangle>false</activeaudioangle>
                    <clip id="clip-6"/>
                  </angle>
                  <angle>
                    <activevideoangle>true</activevideoangle>
                    <activeaudioangle>true</activeaudioangle>
                    <clip id="clip-7"/>
                  </angle>
                  <angle>
                    <activevideoangle>false</activevideoangle>
                    <activeaudioangle>false</activeaudioangle>
                    <clip id="clip-8"/>
                  </angle>
                  <angle>
                    <activevideoangle>false</activevideoangle>
                    <activeaudioangle>false</activeaudioangle>
                    <clip id="clip-9"/>
                  </angle>
                  <masterclipid>clip-master</masterclipid>
                </multiclip>
              </clipitem>
              <clipitem id="cs-740">
                <duration>171</duration>
                <rate>
                  <ntsc>false</ntsc>
                  <timebase>25</timebase>
                </rate>
                <in>116790</in>
                <out>116960</out>
                <start>116790</start>
                <end>116960</end>
                <file id="src-2"/>
                <sourcetrack>
                  <mediatype>video</mediatype>
                  <trackindex>1</trackindex>
                </sourcetrack>
                <multiclip id="mcs-740">
                  <name>MCS-740</name>
                  <masterclipid>clip-master</masterclipid>
                  <collapsed>false</collapsed>
                  <angle>
                    <activevideoangle>false</activevideoangle>
                    <activeaudioangle>false</activeaudioangle>
                    <clip id="clip-1"/>
                  </angle>
                  <angle>
                    <activevideoangle>true</activevideoangle>
                    <activeaudioangle>true</activeaudioangle>
                    <clip id="clip-2"/>
                  </angle>
                  <angle>
                    <activevideoangle>false</activevideoangle>
                    <activeaudioangle>false</activeaudioangle>
                    <clip id="clip-3"/>
                  </angle>
                  <angle>
                    <activevideoangle>false</activevideoangle>
                    <activeaudioangle>false</activeaudioangle>
                    <clip id="clip-4"/>
                  </angle>
                  <angle>
                    <activevideoangle>false</activevideoangle>
                    <activeaudioangle>false</activeaudioangle>
                    <clip id="clip-5"/>
                  </angle>
                  <angle>
                    <activevideoangle>false</activevideoangle>
                    <activeaudioangle>false</activeaudioangle>
                    <clip id="clip-6"/>
                  </angle>
                  <angle>
                    <activevideoangle>false</activevideoangle>
                    <activeaudioangle>false</activeaudioangle>
                    <clip id="clip-7"/>
                  </angle>
                  <angle>
                    <activevideoangle>false</activevideoangle>
                    <activeaudioangle>false</activeaudioangle>
                    <clip id="clip-8"/>
                  </angle>
                  <angle>
                    <activevideoangle>false</activevideoangle>
                    <activeaudioangle>false</activeaudioangle>
                    <clip id="clip-9"/>
                  </angle>
                  <masterclipid>clip-master</masterclipid>
                </multiclip>
              </clipitem>
              <clipitem id="cs-741">
                <duration>760</duration>
                <rate>
                  <ntsc>false</ntsc>
                  <timebase>25</timebase>
                </rate>
                <in>116960</in>
                <out>117719</out>
                <start>116960</start>
                <end>117719</end>
                <file id="src-3"/>
                <sourcetrack>
                  <mediatype>video</mediatype>
                  <trackindex>1</trackindex>
                </sourcetrack>
                <multiclip id="mcs-741">
                  <name>MCS-741</name>
                  <masterclipid>clip-master</masterclipid>
                  <collapsed>false</collapsed>
                  <angle>
                    <activevideoangle>false</activevideoangle>
                    <activeaudioangle>false</activeaudioangle>
                    <clip id="clip-1"/>
                  </angle>
                  <angle>
                    <activevideoangle>false</activevideoangle>
                    <activeaudioangle>false</activeaudioangle>
                    <clip id="clip-2"/>
                  </angle>
                  <angle>
                    <activevideoangle>true</activevideoangle>
                    <activeaudioangle>true</activeaudioangle>
                    <clip id="clip-3"/>
                  </angle>
                  <angle>
                    <activevideoangle>false</activevideoangle>
                    <activeaudioangle>false</activeaudioangle>
                    <clip id="clip-4"/>
                  </angle>
                  <angle>
                    <activevideoangle>false</activevideoangle>
                    <activeaudioangle>false</activeaudioangle>
                    <clip id="clip-5"/>
                  </angle>
                  <angle>
                    <activevideoangle>false</activevideoangle>
                    <activeaudioangle>false</activeaudioangle>
                    <clip id="clip-6"/>
                  </angle>
                  <angle>
                    <activevideoangle>false</activevideoangle>
                    <activeaudioangle>false</activeaudioangle>
                    <clip id="clip-7"/>
                  </angle>
                  <angle>
                    <activevideoangle>false</activevideoangle>
                    <activeaudioangle>false</activeaudioangle>
                    <clip id="clip-8"/>
                  </angle>
                  <angle>
                    <activevideoangle>false</activevideoangle>
                    <activeaudioangle>false</activeaudioangle>
                    <clip id="clip-9"/>
                  </angle>
                  <masterclipid>clip-master</masterclipid>
                </multiclip>
              </clipitem>
              <clipitem id="cs-742">
                <duration>65</duration>
                <rate>
                  <ntsc>false</ntsc>
                  <timebase>25</timebase>
                </rate>
                <in>117719</in>
                <out>117783</out>
                <start>117719</start>
                <end>117783</end>
                <file id="src-2"/>
                <sourcetrack>
                  <mediatype>video</mediatype>
                  <trackindex>1</trackindex>
                </sourcetrack>
                <multiclip id="mcs-742">
                  <name>MCS-742</name>
                  <masterclipid>clip-master</masterclipid>
                  <collapsed>false</collapsed>
                  <angle>
                    <activevideoangle>false</activevideoangle>
                    <activeaudioangle>false</activeaudioangle>
                    <clip id="clip-1"/>
                  </angle>
                  <angle>
                    <activevideoangle>true</activevideoangle>
                    <activeaudioangle>true</activeaudioangle>
                    <clip id="clip-2"/>
                  </angle>
                  <angle>
                    <activevideoangle>false</activevideoangle>
                    <activeaudioangle>false</activeaudioangle>
                    <clip id="clip-3"/>
                  </angle>
                  <angle>
                    <activevideoangle>false</activevideoangle>
                    <activeaudioangle>false</activeaudioangle>
                    <clip id="clip-4"/>
                  </angle>
                  <angle>
                    <activevideoangle>false</activevideoangle>
                    <activeaudioangle>false</activeaudioangle>
                    <clip id="clip-5"/>
                  </angle>
                  <angle>
                    <activevideoangle>false</activevideoangle>
                    <activeaudioangle>false</activeaudioangle>
                    <clip id="clip-6"/>
                  </angle>
                  <angle>
                    <activevideoangle>false</activevideoangle>
                    <activeaudioangle>false</activeaudioangle>
                    <clip id="clip-7"/>
                  </angle>
                  <angle>
                    <activevideoangle>false</activevideoangle>
                    <activeaudioangle>false</activeaudioangle>
                    <clip id="clip-8"/>
                  </angle>
                  <angle>
                    <activevideoangle>false</activevideoangle>
                    <activeaudioangle>false</activeaudioangle>
                    <clip id="clip-9"/>
                  </angle>
                  <masterclipid>clip-master</masterclipid>
                </multiclip>
              </clipitem>
              <clipitem id="cs-743">
                <duration>40</duration>
                <rate>
                  <ntsc>false</ntsc>
                  <timebase>25</timebase>
                </rate>
                <in>117783</in>
                <out>117822</out>
                <start>117783</start>
                <end>117822</end>
                <file id="src-4"/>
                <sourcetrack>
                  <mediatype>video</mediatype>
                  <trackindex>1</trackindex>
                </sourcetrack>
                <multiclip id="mcs-743">
                  <name>MCS-743</name>
                  <masterclipid>clip-master</masterclipid>
                  <collapsed>false</collapsed>
                  <angle>
                    <activevideoangle>false</activevideoangle>
                    <activeaudioangle>false</activeaudioangle>
                    <clip id="clip-1"/>
                  </angle>
                  <angle>
                    <activevideoangle>false</activevideoangle>
                    <activeaudioangle>false</activeaudioangle>
                    <clip id="clip-2"/>
                  </angle>
                  <angle>
                    <activevideoangle>false</activevideoangle>
                    <activeaudioangle>false</activeaudioangle>
                    <clip id="clip-3"/>
                  </angle>
                  <angle>
                    <activevideoangle>true</activevideoangle>
                    <activeaudioangle>true</activeaudioangle>
                    <clip id="clip-4"/>
                  </angle>
                  <angle>
                    <activevideoangle>false</activevideoangle>
                    <activeaudioangle>false</activeaudioangle>
                    <clip id="clip-5"/>
                  </angle>
                  <angle>
                    <activevideoangle>false</activevideoangle>
                    <activeaudioangle>false</activeaudioangle>
                    <clip id="clip-6"/>
                  </angle>
                  <angle>
                    <activevideoangle>false</activevideoangle>
                    <activeaudioangle>false</activeaudioangle>
                    <clip id="clip-7"/>
                  </angle>
                  <angle>
                    <activevideoangle>false</activevideoangle>
                    <activeaudioangle>false</activeaudioangle>
                    <clip id="clip-8"/>
                  </angle>
                  <angle>
                    <activevideoangle>false</activevideoangle>
                    <activeaudioangle>false</activeaudioangle>
                    <clip id="clip-9"/>
                  </angle>
                  <masterclipid>clip-master</masterclipid>
                </multiclip>
              </clipitem>
              <clipitem id="cs-744">
                <duration>108</duration>
                <rate>
                  <ntsc>false</ntsc>
                  <timebase>25</timebase>
                </rate>
                <in>117822</in>
                <out>117929</out>
                <start>117822</start>
                <end>117929</end>
                <file id="src-3"/>
                <sourcetrack>
                  <mediatype>video</mediatype>
                  <trackindex>1</trackindex>
                </sourcetrack>
                <multiclip id="mcs-744">
                  <name>MCS-744</name>
                  <masterclipid>clip-master</masterclipid>
                  <collapsed>false</collapsed>
                  <angle>
                    <activevideoangle>false</activevideoangle>
                    <activeaudioangle>false</activeaudioangle>
                    <clip id="clip-1"/>
                  </angle>
                  <angle>
                    <activevideoangle>false</activevideoangle>
                    <activeaudioangle>false</activeaudioangle>
                    <clip id="clip-2"/>
                  </angle>
                  <angle>
                    <activevideoangle>true</activevideoangle>
                    <activeaudioangle>true</activeaudioangle>
                    <clip id="clip-3"/>
                  </angle>
                  <angle>
                    <activevideoangle>false</activevideoangle>
                    <activeaudioangle>false</activeaudioangle>
                    <clip id="clip-4"/>
                  </angle>
                  <angle>
                    <activevideoangle>false</activevideoangle>
                    <activeaudioangle>false</activeaudioangle>
                    <clip id="clip-5"/>
                  </angle>
                  <angle>
                    <activevideoangle>false</activevideoangle>
                    <activeaudioangle>false</activeaudioangle>
                    <clip id="clip-6"/>
                  </angle>
                  <angle>
                    <activevideoangle>false</activevideoangle>
                    <activeaudioangle>false</activeaudioangle>
                    <clip id="clip-7"/>
                  </angle>
                  <angle>
                    <activevideoangle>false</activevideoangle>
                    <activeaudioangle>false</activeaudioangle>
                    <clip id="clip-8"/>
                  </angle>
                  <angle>
                    <activevideoangle>false</activevideoangle>
                    <activeaudioangle>false</activeaudioangle>
                    <clip id="clip-9"/>
                  </angle>
                  <masterclipid>clip-master</masterclipid>
                </multiclip>
              </clipitem>
              <clipitem id="cs-745">
                <duration>63</duration>
                <rate>
                  <ntsc>false</ntsc>
                  <timebase>25</timebase>
                </rate>
                <in>117929</in>
                <out>117991</out>
                <start>117929</start>
                <end>117991</end>
                <file id="src-2"/>
                <sourcetrack>
                  <mediatype>video</mediatype>
                  <trackindex>1</trackindex>
                </sourcetrack>
                <multiclip id="mcs-745">
                  <name>MCS-745</name>
                  <masterclipid>clip-master</masterclipid>
                  <collapsed>false</collapsed>
                  <angle>
                    <activevideoangle>false</activevideoangle>
                    <activeaudioangle>false</activeaudioangle>
                    <clip id="clip-1"/>
                  </angle>
                  <angle>
                    <activevideoangle>true</activevideoangle>
                    <activeaudioangle>true</activeaudioangle>
                    <clip id="clip-2"/>
                  </angle>
                  <angle>
                    <activevideoangle>false</activevideoangle>
                    <activeaudioangle>false</activeaudioangle>
                    <clip id="clip-3"/>
                  </angle>
                  <angle>
                    <activevideoangle>false</activevideoangle>
                    <activeaudioangle>false</activeaudioangle>
                    <clip id="clip-4"/>
                  </angle>
                  <angle>
                    <activevideoangle>false</activevideoangle>
                    <activeaudioangle>false</activeaudioangle>
                    <clip id="clip-5"/>
                  </angle>
                  <angle>
                    <activevideoangle>false</activevideoangle>
                    <activeaudioangle>false</activeaudioangle>
                    <clip id="clip-6"/>
                  </angle>
                  <angle>
                    <activevideoangle>false</activevideoangle>
                    <activeaudioangle>false</activeaudioangle>
                    <clip id="clip-7"/>
                  </angle>
                  <angle>
                    <activevideoangle>false</activevideoangle>
                    <activeaudioangle>false</activeaudioangle>
                    <clip id="clip-8"/>
                  </angle>
                  <angle>
                    <activevideoangle>false</activevideoangle>
                    <activeaudioangle>false</activeaudioangle>
                    <clip id="clip-9"/>
                  </angle>
                  <masterclipid>clip-master</masterclipid>
                </multiclip>
              </clipitem>
              <clipitem id="cs-746">
                <duration>124</duration>
                <rate>
                  <ntsc>false</ntsc>
                  <timebase>25</timebase>
                </rate>
                <in>117991</in>
                <out>118114</out>
                <start>117991</start>
                <end>118114</end>
                <file id="src-6"/>
                <sourcetrack>
                  <mediatype>video</mediatype>
                  <trackindex>1</trackindex>
                </sourcetrack>
                <multiclip id="mcs-746">
                  <name>MCS-746</name>
                  <masterclipid>clip-master</masterclipid>
                  <collapsed>false</collapsed>
                  <angle>
                    <activevideoangle>false</activevideoangle>
                    <activeaudioangle>false</activeaudioangle>
                    <clip id="clip-1"/>
                  </angle>
                  <angle>
                    <activevideoangle>false</activevideoangle>
                    <activeaudioangle>false</activeaudioangle>
                    <clip id="clip-2"/>
                  </angle>
                  <angle>
                    <activevideoangle>false</activevideoangle>
                    <activeaudioangle>false</activeaudioangle>
                    <clip id="clip-3"/>
                  </angle>
                  <angle>
                    <activevideoangle>false</activevideoangle>
                    <activeaudioangle>false</activeaudioangle>
                    <clip id="clip-4"/>
                  </angle>
                  <angle>
                    <activevideoangle>false</activevideoangle>
                    <activeaudioangle>false</activeaudioangle>
                    <clip id="clip-5"/>
                  </angle>
                  <angle>
                    <activevideoangle>true</activevideoangle>
                    <activeaudioangle>true</activeaudioangle>
                    <clip id="clip-6"/>
                  </angle>
                  <angle>
                    <activevideoangle>false</activevideoangle>
                    <activeaudioangle>false</activeaudioangle>
                    <clip id="clip-7"/>
                  </angle>
                  <angle>
                    <activevideoangle>false</activevideoangle>
                    <activeaudioangle>false</activeaudioangle>
                    <clip id="clip-8"/>
                  </angle>
                  <angle>
                    <activevideoangle>false</activevideoangle>
                    <activeaudioangle>false</activeaudioangle>
                    <clip id="clip-9"/>
                  </angle>
                  <masterclipid>clip-master</masterclipid>
                </multiclip>
              </clipitem>
              <clipitem id="cs-747">
                <duration>54</duration>
                <rate>
                  <ntsc>false</ntsc>
                  <timebase>25</timebase>
                </rate>
                <in>118114</in>
                <out>118167</out>
                <start>118114</start>
                <end>118167</end>
                <file id="src-4"/>
                <sourcetrack>
                  <mediatype>video</mediatype>
                  <trackindex>1</trackindex>
                </sourcetrack>
                <multiclip id="mcs-747">
                  <name>MCS-747</name>
                  <masterclipid>clip-master</masterclipid>
                  <collapsed>false</collapsed>
                  <angle>
                    <activevideoangle>false</activevideoangle>
                    <activeaudioangle>false</activeaudioangle>
                    <clip id="clip-1"/>
                  </angle>
                  <angle>
                    <activevideoangle>false</activevideoangle>
                    <activeaudioangle>false</activeaudioangle>
                    <clip id="clip-2"/>
                  </angle>
                  <angle>
                    <activevideoangle>false</activevideoangle>
                    <activeaudioangle>false</activeaudioangle>
                    <clip id="clip-3"/>
                  </angle>
                  <angle>
                    <activevideoangle>true</activevideoangle>
                    <activeaudioangle>true</activeaudioangle>
                    <clip id="clip-4"/>
                  </angle>
                  <angle>
                    <activevideoangle>false</activevideoangle>
                    <activeaudioangle>false</activeaudioangle>
                    <clip id="clip-5"/>
                  </angle>
                  <angle>
                    <activevideoangle>false</activevideoangle>
                    <activeaudioangle>false</activeaudioangle>
                    <clip id="clip-6"/>
                  </angle>
                  <angle>
                    <activevideoangle>false</activevideoangle>
                    <activeaudioangle>false</activeaudioangle>
                    <clip id="clip-7"/>
                  </angle>
                  <angle>
                    <activevideoangle>false</activevideoangle>
                    <activeaudioangle>false</activeaudioangle>
                    <clip id="clip-8"/>
                  </angle>
                  <angle>
                    <activevideoangle>false</activevideoangle>
                    <activeaudioangle>false</activeaudioangle>
                    <clip id="clip-9"/>
                  </angle>
                  <masterclipid>clip-master</masterclipid>
                </multiclip>
              </clipitem>
              <clipitem id="cs-748">
                <duration>30</duration>
                <rate>
                  <ntsc>false</ntsc>
                  <timebase>25</timebase>
                </rate>
                <in>118167</in>
                <out>118196</out>
                <start>118167</start>
                <end>118196</end>
                <file id="src-5"/>
                <sourcetrack>
                  <mediatype>video</mediatype>
                  <trackindex>1</trackindex>
                </sourcetrack>
                <multiclip id="mcs-748">
                  <name>MCS-748</name>
                  <masterclipid>clip-master</masterclipid>
                  <collapsed>false</collapsed>
                  <angle>
                    <activevideoangle>false</activevideoangle>
                    <activeaudioangle>false</activeaudioangle>
                    <clip id="clip-1"/>
                  </angle>
                  <angle>
                    <activevideoangle>false</activevideoangle>
                    <activeaudioangle>false</activeaudioangle>
                    <clip id="clip-2"/>
                  </angle>
                  <angle>
                    <activevideoangle>false</activevideoangle>
                    <activeaudioangle>false</activeaudioangle>
                    <clip id="clip-3"/>
                  </angle>
                  <angle>
                    <activevideoangle>false</activevideoangle>
                    <activeaudioangle>false</activeaudioangle>
                    <clip id="clip-4"/>
                  </angle>
                  <angle>
                    <activevideoangle>true</activevideoangle>
                    <activeaudioangle>true</activeaudioangle>
                    <clip id="clip-5"/>
                  </angle>
                  <angle>
                    <activevideoangle>false</activevideoangle>
                    <activeaudioangle>false</activeaudioangle>
                    <clip id="clip-6"/>
                  </angle>
                  <angle>
                    <activevideoangle>false</activevideoangle>
                    <activeaudioangle>false</activeaudioangle>
                    <clip id="clip-7"/>
                  </angle>
                  <angle>
                    <activevideoangle>false</activevideoangle>
                    <activeaudioangle>false</activeaudioangle>
                    <clip id="clip-8"/>
                  </angle>
                  <angle>
                    <activevideoangle>false</activevideoangle>
                    <activeaudioangle>false</activeaudioangle>
                    <clip id="clip-9"/>
                  </angle>
                  <masterclipid>clip-master</masterclipid>
                </multiclip>
              </clipitem>
              <clipitem id="cs-749">
                <duration>43</duration>
                <rate>
                  <ntsc>false</ntsc>
                  <timebase>25</timebase>
                </rate>
                <in>118196</in>
                <out>118238</out>
                <start>118196</start>
                <end>118238</end>
                <file id="src-2"/>
                <sourcetrack>
                  <mediatype>video</mediatype>
                  <trackindex>1</trackindex>
                </sourcetrack>
                <multiclip id="mcs-749">
                  <name>MCS-749</name>
                  <masterclipid>clip-master</masterclipid>
                  <collapsed>false</collapsed>
                  <angle>
                    <activevideoangle>false</activevideoangle>
                    <activeaudioangle>false</activeaudioangle>
                    <clip id="clip-1"/>
                  </angle>
                  <angle>
                    <activevideoangle>true</activevideoangle>
                    <activeaudioangle>true</activeaudioangle>
                    <clip id="clip-2"/>
                  </angle>
                  <angle>
                    <activevideoangle>false</activevideoangle>
                    <activeaudioangle>false</activeaudioangle>
                    <clip id="clip-3"/>
                  </angle>
                  <angle>
                    <activevideoangle>false</activevideoangle>
                    <activeaudioangle>false</activeaudioangle>
                    <clip id="clip-4"/>
                  </angle>
                  <angle>
                    <activevideoangle>false</activevideoangle>
                    <activeaudioangle>false</activeaudioangle>
                    <clip id="clip-5"/>
                  </angle>
                  <angle>
                    <activevideoangle>false</activevideoangle>
                    <activeaudioangle>false</activeaudioangle>
                    <clip id="clip-6"/>
                  </angle>
                  <angle>
                    <activevideoangle>false</activevideoangle>
                    <activeaudioangle>false</activeaudioangle>
                    <clip id="clip-7"/>
                  </angle>
                  <angle>
                    <activevideoangle>false</activevideoangle>
                    <activeaudioangle>false</activeaudioangle>
                    <clip id="clip-8"/>
                  </angle>
                  <angle>
                    <activevideoangle>false</activevideoangle>
                    <activeaudioangle>false</activeaudioangle>
                    <clip id="clip-9"/>
                  </angle>
                  <masterclipid>clip-master</masterclipid>
                </multiclip>
              </clipitem>
              <clipitem id="cs-750">
                <duration>73</duration>
                <rate>
                  <ntsc>false</ntsc>
                  <timebase>25</timebase>
                </rate>
                <in>118238</in>
                <out>118310</out>
                <start>118238</start>
                <end>118310</end>
                <file id="src-3"/>
                <sourcetrack>
                  <mediatype>video</mediatype>
                  <trackindex>1</trackindex>
                </sourcetrack>
                <multiclip id="mcs-750">
                  <name>MCS-750</name>
                  <masterclipid>clip-master</masterclipid>
                  <collapsed>false</collapsed>
                  <angle>
                    <activevideoangle>false</activevideoangle>
                    <activeaudioangle>false</activeaudioangle>
                    <clip id="clip-1"/>
                  </angle>
                  <angle>
                    <activevideoangle>false</activevideoangle>
                    <activeaudioangle>false</activeaudioangle>
                    <clip id="clip-2"/>
                  </angle>
                  <angle>
                    <activevideoangle>true</activevideoangle>
                    <activeaudioangle>true</activeaudioangle>
                    <clip id="clip-3"/>
                  </angle>
                  <angle>
                    <activevideoangle>false</activevideoangle>
                    <activeaudioangle>false</activeaudioangle>
                    <clip id="clip-4"/>
                  </angle>
                  <angle>
                    <activevideoangle>false</activevideoangle>
                    <activeaudioangle>false</activeaudioangle>
                    <clip id="clip-5"/>
                  </angle>
                  <angle>
                    <activevideoangle>false</activevideoangle>
                    <activeaudioangle>false</activeaudioangle>
                    <clip id="clip-6"/>
                  </angle>
                  <angle>
                    <activevideoangle>false</activevideoangle>
                    <activeaudioangle>false</activeaudioangle>
                    <clip id="clip-7"/>
                  </angle>
                  <angle>
                    <activevideoangle>false</activevideoangle>
                    <activeaudioangle>false</activeaudioangle>
                    <clip id="clip-8"/>
                  </angle>
                  <angle>
                    <activevideoangle>false</activevideoangle>
                    <activeaudioangle>false</activeaudioangle>
                    <clip id="clip-9"/>
                  </angle>
                  <masterclipid>clip-master</masterclipid>
                </multiclip>
              </clipitem>
              <clipitem id="cs-751">
                <duration>82</duration>
                <rate>
                  <ntsc>false</ntsc>
                  <timebase>25</timebase>
                </rate>
                <in>118310</in>
                <out>118391</out>
                <start>118310</start>
                <end>118391</end>
                <file id="src-4"/>
                <sourcetrack>
                  <mediatype>video</mediatype>
                  <trackindex>1</trackindex>
                </sourcetrack>
                <multiclip id="mcs-751">
                  <name>MCS-751</name>
                  <masterclipid>clip-master</masterclipid>
                  <collapsed>false</collapsed>
                  <angle>
                    <activevideoangle>false</activevideoangle>
                    <activeaudioangle>false</activeaudioangle>
                    <clip id="clip-1"/>
                  </angle>
                  <angle>
                    <activevideoangle>false</activevideoangle>
                    <activeaudioangle>false</activeaudioangle>
                    <clip id="clip-2"/>
                  </angle>
                  <angle>
                    <activevideoangle>false</activevideoangle>
                    <activeaudioangle>false</activeaudioangle>
                    <clip id="clip-3"/>
                  </angle>
                  <angle>
                    <activevideoangle>true</activevideoangle>
                    <activeaudioangle>true</activeaudioangle>
                    <clip id="clip-4"/>
                  </angle>
                  <angle>
                    <activevideoangle>false</activevideoangle>
                    <activeaudioangle>false</activeaudioangle>
                    <clip id="clip-5"/>
                  </angle>
                  <angle>
                    <activevideoangle>false</activevideoangle>
                    <activeaudioangle>false</activeaudioangle>
                    <clip id="clip-6"/>
                  </angle>
                  <angle>
                    <activevideoangle>false</activevideoangle>
                    <activeaudioangle>false</activeaudioangle>
                    <clip id="clip-7"/>
                  </angle>
                  <angle>
                    <activevideoangle>false</activevideoangle>
                    <activeaudioangle>false</activeaudioangle>
                    <clip id="clip-8"/>
                  </angle>
                  <angle>
                    <activevideoangle>false</activevideoangle>
                    <activeaudioangle>false</activeaudioangle>
                    <clip id="clip-9"/>
                  </angle>
                  <masterclipid>clip-master</masterclipid>
                </multiclip>
              </clipitem>
              <clipitem id="cs-752">
                <duration>65</duration>
                <rate>
                  <ntsc>false</ntsc>
                  <timebase>25</timebase>
                </rate>
                <in>118391</in>
                <out>118455</out>
                <start>118391</start>
                <end>118455</end>
                <file id="src-2"/>
                <sourcetrack>
                  <mediatype>video</mediatype>
                  <trackindex>1</trackindex>
                </sourcetrack>
                <multiclip id="mcs-752">
                  <name>MCS-752</name>
                  <masterclipid>clip-master</masterclipid>
                  <collapsed>false</collapsed>
                  <angle>
                    <activevideoangle>false</activevideoangle>
                    <activeaudioangle>false</activeaudioangle>
                    <clip id="clip-1"/>
                  </angle>
                  <angle>
                    <activevideoangle>true</activevideoangle>
                    <activeaudioangle>true</activeaudioangle>
                    <clip id="clip-2"/>
                  </angle>
                  <angle>
                    <activevideoangle>false</activevideoangle>
                    <activeaudioangle>false</activeaudioangle>
                    <clip id="clip-3"/>
                  </angle>
                  <angle>
                    <activevideoangle>false</activevideoangle>
                    <activeaudioangle>false</activeaudioangle>
                    <clip id="clip-4"/>
                  </angle>
                  <angle>
                    <activevideoangle>false</activevideoangle>
                    <activeaudioangle>false</activeaudioangle>
                    <clip id="clip-5"/>
                  </angle>
                  <angle>
                    <activevideoangle>false</activevideoangle>
                    <activeaudioangle>false</activeaudioangle>
                    <clip id="clip-6"/>
                  </angle>
                  <angle>
                    <activevideoangle>false</activevideoangle>
                    <activeaudioangle>false</activeaudioangle>
                    <clip id="clip-7"/>
                  </angle>
                  <angle>
                    <activevideoangle>false</activevideoangle>
                    <activeaudioangle>false</activeaudioangle>
                    <clip id="clip-8"/>
                  </angle>
                  <angle>
                    <activevideoangle>false</activevideoangle>
                    <activeaudioangle>false</activeaudioangle>
                    <clip id="clip-9"/>
                  </angle>
                  <masterclipid>clip-master</masterclipid>
                </multiclip>
              </clipitem>
              <clipitem id="cs-753">
                <duration>685</duration>
                <rate>
                  <ntsc>false</ntsc>
                  <timebase>25</timebase>
                </rate>
                <in>118455</in>
                <out>119139</out>
                <start>118455</start>
                <end>119139</end>
                <file id="src-4"/>
                <sourcetrack>
                  <mediatype>video</mediatype>
                  <trackindex>1</trackindex>
                </sourcetrack>
                <multiclip id="mcs-753">
                  <name>MCS-753</name>
                  <masterclipid>clip-master</masterclipid>
                  <collapsed>false</collapsed>
                  <angle>
                    <activevideoangle>false</activevideoangle>
                    <activeaudioangle>false</activeaudioangle>
                    <clip id="clip-1"/>
                  </angle>
                  <angle>
                    <activevideoangle>false</activevideoangle>
                    <activeaudioangle>false</activeaudioangle>
                    <clip id="clip-2"/>
                  </angle>
                  <angle>
                    <activevideoangle>false</activevideoangle>
                    <activeaudioangle>false</activeaudioangle>
                    <clip id="clip-3"/>
                  </angle>
                  <angle>
                    <activevideoangle>true</activevideoangle>
                    <activeaudioangle>true</activeaudioangle>
                    <clip id="clip-4"/>
                  </angle>
                  <angle>
                    <activevideoangle>false</activevideoangle>
                    <activeaudioangle>false</activeaudioangle>
                    <clip id="clip-5"/>
                  </angle>
                  <angle>
                    <activevideoangle>false</activevideoangle>
                    <activeaudioangle>false</activeaudioangle>
                    <clip id="clip-6"/>
                  </angle>
                  <angle>
                    <activevideoangle>false</activevideoangle>
                    <activeaudioangle>false</activeaudioangle>
                    <clip id="clip-7"/>
                  </angle>
                  <angle>
                    <activevideoangle>false</activevideoangle>
                    <activeaudioangle>false</activeaudioangle>
                    <clip id="clip-8"/>
                  </angle>
                  <angle>
                    <activevideoangle>false</activevideoangle>
                    <activeaudioangle>false</activeaudioangle>
                    <clip id="clip-9"/>
                  </angle>
                  <masterclipid>clip-master</masterclipid>
                </multiclip>
              </clipitem>
              <clipitem id="cs-754">
                <duration>122</duration>
                <rate>
                  <ntsc>false</ntsc>
                  <timebase>25</timebase>
                </rate>
                <in>119139</in>
                <out>119260</out>
                <start>119139</start>
                <end>119260</end>
                <file id="src-6"/>
                <sourcetrack>
                  <mediatype>video</mediatype>
                  <trackindex>1</trackindex>
                </sourcetrack>
                <multiclip id="mcs-754">
                  <name>MCS-754</name>
                  <masterclipid>clip-master</masterclipid>
                  <collapsed>false</collapsed>
                  <angle>
                    <activevideoangle>false</activevideoangle>
                    <activeaudioangle>false</activeaudioangle>
                    <clip id="clip-1"/>
                  </angle>
                  <angle>
                    <activevideoangle>false</activevideoangle>
                    <activeaudioangle>false</activeaudioangle>
                    <clip id="clip-2"/>
                  </angle>
                  <angle>
                    <activevideoangle>false</activevideoangle>
                    <activeaudioangle>false</activeaudioangle>
                    <clip id="clip-3"/>
                  </angle>
                  <angle>
                    <activevideoangle>false</activevideoangle>
                    <activeaudioangle>false</activeaudioangle>
                    <clip id="clip-4"/>
                  </angle>
                  <angle>
                    <activevideoangle>false</activevideoangle>
                    <activeaudioangle>false</activeaudioangle>
                    <clip id="clip-5"/>
                  </angle>
                  <angle>
                    <activevideoangle>true</activevideoangle>
                    <activeaudioangle>true</activeaudioangle>
                    <clip id="clip-6"/>
                  </angle>
                  <angle>
                    <activevideoangle>false</activevideoangle>
                    <activeaudioangle>false</activeaudioangle>
                    <clip id="clip-7"/>
                  </angle>
                  <angle>
                    <activevideoangle>false</activevideoangle>
                    <activeaudioangle>false</activeaudioangle>
                    <clip id="clip-8"/>
                  </angle>
                  <angle>
                    <activevideoangle>false</activevideoangle>
                    <activeaudioangle>false</activeaudioangle>
                    <clip id="clip-9"/>
                  </angle>
                  <masterclipid>clip-master</masterclipid>
                </multiclip>
              </clipitem>
              <clipitem id="cs-755">
                <duration>94</duration>
                <rate>
                  <ntsc>false</ntsc>
                  <timebase>25</timebase>
                </rate>
                <in>119260</in>
                <out>119353</out>
                <start>119260</start>
                <end>119353</end>
                <file id="src-4"/>
                <sourcetrack>
                  <mediatype>video</mediatype>
                  <trackindex>1</trackindex>
                </sourcetrack>
                <multiclip id="mcs-755">
                  <name>MCS-755</name>
                  <masterclipid>clip-master</masterclipid>
                  <collapsed>false</collapsed>
                  <angle>
                    <activevideoangle>false</activevideoangle>
                    <activeaudioangle>false</activeaudioangle>
                    <clip id="clip-1"/>
                  </angle>
                  <angle>
                    <activevideoangle>false</activevideoangle>
                    <activeaudioangle>false</activeaudioangle>
                    <clip id="clip-2"/>
                  </angle>
                  <angle>
                    <activevideoangle>false</activevideoangle>
                    <activeaudioangle>false</activeaudioangle>
                    <clip id="clip-3"/>
                  </angle>
                  <angle>
                    <activevideoangle>true</activevideoangle>
                    <activeaudioangle>true</activeaudioangle>
                    <clip id="clip-4"/>
                  </angle>
                  <angle>
                    <activevideoangle>false</activevideoangle>
                    <activeaudioangle>false</activeaudioangle>
                    <clip id="clip-5"/>
                  </angle>
                  <angle>
                    <activevideoangle>false</activevideoangle>
                    <activeaudioangle>false</activeaudioangle>
                    <clip id="clip-6"/>
                  </angle>
                  <angle>
                    <activevideoangle>false</activevideoangle>
                    <activeaudioangle>false</activeaudioangle>
                    <clip id="clip-7"/>
                  </angle>
                  <angle>
                    <activevideoangle>false</activevideoangle>
                    <activeaudioangle>false</activeaudioangle>
                    <clip id="clip-8"/>
                  </angle>
                  <angle>
                    <activevideoangle>false</activevideoangle>
                    <activeaudioangle>false</activeaudioangle>
                    <clip id="clip-9"/>
                  </angle>
                  <masterclipid>clip-master</masterclipid>
                </multiclip>
              </clipitem>
              <clipitem id="cs-756">
                <duration>98</duration>
                <rate>
                  <ntsc>false</ntsc>
                  <timebase>25</timebase>
                </rate>
                <in>119353</in>
                <out>119450</out>
                <start>119353</start>
                <end>119450</end>
                <file id="src-2"/>
                <sourcetrack>
                  <mediatype>video</mediatype>
                  <trackindex>1</trackindex>
                </sourcetrack>
                <multiclip id="mcs-756">
                  <name>MCS-756</name>
                  <masterclipid>clip-master</masterclipid>
                  <collapsed>false</collapsed>
                  <angle>
                    <activevideoangle>false</activevideoangle>
                    <activeaudioangle>false</activeaudioangle>
                    <clip id="clip-1"/>
                  </angle>
                  <angle>
                    <activevideoangle>true</activevideoangle>
                    <activeaudioangle>true</activeaudioangle>
                    <clip id="clip-2"/>
                  </angle>
                  <angle>
                    <activevideoangle>false</activevideoangle>
                    <activeaudioangle>false</activeaudioangle>
                    <clip id="clip-3"/>
                  </angle>
                  <angle>
                    <activevideoangle>false</activevideoangle>
                    <activeaudioangle>false</activeaudioangle>
                    <clip id="clip-4"/>
                  </angle>
                  <angle>
                    <activevideoangle>false</activevideoangle>
                    <activeaudioangle>false</activeaudioangle>
                    <clip id="clip-5"/>
                  </angle>
                  <angle>
                    <activevideoangle>false</activevideoangle>
                    <activeaudioangle>false</activeaudioangle>
                    <clip id="clip-6"/>
                  </angle>
                  <angle>
                    <activevideoangle>false</activevideoangle>
                    <activeaudioangle>false</activeaudioangle>
                    <clip id="clip-7"/>
                  </angle>
                  <angle>
                    <activevideoangle>false</activevideoangle>
                    <activeaudioangle>false</activeaudioangle>
                    <clip id="clip-8"/>
                  </angle>
                  <angle>
                    <activevideoangle>false</activevideoangle>
                    <activeaudioangle>false</activeaudioangle>
                    <clip id="clip-9"/>
                  </angle>
                  <masterclipid>clip-master</masterclipid>
                </multiclip>
              </clipitem>
              <clipitem id="cs-757">
                <duration>168</duration>
                <rate>
                  <ntsc>false</ntsc>
                  <timebase>25</timebase>
                </rate>
                <in>119450</in>
                <out>119617</out>
                <start>119450</start>
                <end>119617</end>
                <file id="src-3"/>
                <sourcetrack>
                  <mediatype>video</mediatype>
                  <trackindex>1</trackindex>
                </sourcetrack>
                <multiclip id="mcs-757">
                  <name>MCS-757</name>
                  <masterclipid>clip-master</masterclipid>
                  <collapsed>false</collapsed>
                  <angle>
                    <activevideoangle>false</activevideoangle>
                    <activeaudioangle>false</activeaudioangle>
                    <clip id="clip-1"/>
                  </angle>
                  <angle>
                    <activevideoangle>false</activevideoangle>
                    <activeaudioangle>false</activeaudioangle>
                    <clip id="clip-2"/>
                  </angle>
                  <angle>
                    <activevideoangle>true</activevideoangle>
                    <activeaudioangle>true</activeaudioangle>
                    <clip id="clip-3"/>
                  </angle>
                  <angle>
                    <activevideoangle>false</activevideoangle>
                    <activeaudioangle>false</activeaudioangle>
                    <clip id="clip-4"/>
                  </angle>
                  <angle>
                    <activevideoangle>false</activevideoangle>
                    <activeaudioangle>false</activeaudioangle>
                    <clip id="clip-5"/>
                  </angle>
                  <angle>
                    <activevideoangle>false</activevideoangle>
                    <activeaudioangle>false</activeaudioangle>
                    <clip id="clip-6"/>
                  </angle>
                  <angle>
                    <activevideoangle>false</activevideoangle>
                    <activeaudioangle>false</activeaudioangle>
                    <clip id="clip-7"/>
                  </angle>
                  <angle>
                    <activevideoangle>false</activevideoangle>
                    <activeaudioangle>false</activeaudioangle>
                    <clip id="clip-8"/>
                  </angle>
                  <angle>
                    <activevideoangle>false</activevideoangle>
                    <activeaudioangle>false</activeaudioangle>
                    <clip id="clip-9"/>
                  </angle>
                  <masterclipid>clip-master</masterclipid>
                </multiclip>
              </clipitem>
              <clipitem id="cs-758">
                <duration>33</duration>
                <rate>
                  <ntsc>false</ntsc>
                  <timebase>25</timebase>
                </rate>
                <in>119617</in>
                <out>119649</out>
                <start>119617</start>
                <end>119649</end>
                <file id="src-5"/>
                <sourcetrack>
                  <mediatype>video</mediatype>
                  <trackindex>1</trackindex>
                </sourcetrack>
                <multiclip id="mcs-758">
                  <name>MCS-758</name>
                  <masterclipid>clip-master</masterclipid>
                  <collapsed>false</collapsed>
                  <angle>
                    <activevideoangle>false</activevideoangle>
                    <activeaudioangle>false</activeaudioangle>
                    <clip id="clip-1"/>
                  </angle>
                  <angle>
                    <activevideoangle>false</activevideoangle>
                    <activeaudioangle>false</activeaudioangle>
                    <clip id="clip-2"/>
                  </angle>
                  <angle>
                    <activevideoangle>false</activevideoangle>
                    <activeaudioangle>false</activeaudioangle>
                    <clip id="clip-3"/>
                  </angle>
                  <angle>
                    <activevideoangle>false</activevideoangle>
                    <activeaudioangle>false</activeaudioangle>
                    <clip id="clip-4"/>
                  </angle>
                  <angle>
                    <activevideoangle>true</activevideoangle>
                    <activeaudioangle>true</activeaudioangle>
                    <clip id="clip-5"/>
                  </angle>
                  <angle>
                    <activevideoangle>false</activevideoangle>
                    <activeaudioangle>false</activeaudioangle>
                    <clip id="clip-6"/>
                  </angle>
                  <angle>
                    <activevideoangle>false</activevideoangle>
                    <activeaudioangle>false</activeaudioangle>
                    <clip id="clip-7"/>
                  </angle>
                  <angle>
                    <activevideoangle>false</activevideoangle>
                    <activeaudioangle>false</activeaudioangle>
                    <clip id="clip-8"/>
                  </angle>
                  <angle>
                    <activevideoangle>false</activevideoangle>
                    <activeaudioangle>false</activeaudioangle>
                    <clip id="clip-9"/>
                  </angle>
                  <masterclipid>clip-master</masterclipid>
                </multiclip>
              </clipitem>
              <clipitem id="cs-759">
                <duration>60</duration>
                <rate>
                  <ntsc>false</ntsc>
                  <timebase>25</timebase>
                </rate>
                <in>119649</in>
                <out>119708</out>
                <start>119649</start>
                <end>119708</end>
                <file id="src-4"/>
                <sourcetrack>
                  <mediatype>video</mediatype>
                  <trackindex>1</trackindex>
                </sourcetrack>
                <multiclip id="mcs-759">
                  <name>MCS-759</name>
                  <masterclipid>clip-master</masterclipid>
                  <collapsed>false</collapsed>
                  <angle>
                    <activevideoangle>false</activevideoangle>
                    <activeaudioangle>false</activeaudioangle>
                    <clip id="clip-1"/>
                  </angle>
                  <angle>
                    <activevideoangle>false</activevideoangle>
                    <activeaudioangle>false</activeaudioangle>
                    <clip id="clip-2"/>
                  </angle>
                  <angle>
                    <activevideoangle>false</activevideoangle>
                    <activeaudioangle>false</activeaudioangle>
                    <clip id="clip-3"/>
                  </angle>
                  <angle>
                    <activevideoangle>true</activevideoangle>
                    <activeaudioangle>true</activeaudioangle>
                    <clip id="clip-4"/>
                  </angle>
                  <angle>
                    <activevideoangle>false</activevideoangle>
                    <activeaudioangle>false</activeaudioangle>
                    <clip id="clip-5"/>
                  </angle>
                  <angle>
                    <activevideoangle>false</activevideoangle>
                    <activeaudioangle>false</activeaudioangle>
                    <clip id="clip-6"/>
                  </angle>
                  <angle>
                    <activevideoangle>false</activevideoangle>
                    <activeaudioangle>false</activeaudioangle>
                    <clip id="clip-7"/>
                  </angle>
                  <angle>
                    <activevideoangle>false</activevideoangle>
                    <activeaudioangle>false</activeaudioangle>
                    <clip id="clip-8"/>
                  </angle>
                  <angle>
                    <activevideoangle>false</activevideoangle>
                    <activeaudioangle>false</activeaudioangle>
                    <clip id="clip-9"/>
                  </angle>
                  <masterclipid>clip-master</masterclipid>
                </multiclip>
              </clipitem>
              <clipitem id="cs-760">
                <duration>59</duration>
                <rate>
                  <ntsc>false</ntsc>
                  <timebase>25</timebase>
                </rate>
                <in>119708</in>
                <out>119766</out>
                <start>119708</start>
                <end>119766</end>
                <file id="src-2"/>
                <sourcetrack>
                  <mediatype>video</mediatype>
                  <trackindex>1</trackindex>
                </sourcetrack>
                <multiclip id="mcs-760">
                  <name>MCS-760</name>
                  <masterclipid>clip-master</masterclipid>
                  <collapsed>false</collapsed>
                  <angle>
                    <activevideoangle>false</activevideoangle>
                    <activeaudioangle>false</activeaudioangle>
                    <clip id="clip-1"/>
                  </angle>
                  <angle>
                    <activevideoangle>true</activevideoangle>
                    <activeaudioangle>true</activeaudioangle>
                    <clip id="clip-2"/>
                  </angle>
                  <angle>
                    <activevideoangle>false</activevideoangle>
                    <activeaudioangle>false</activeaudioangle>
                    <clip id="clip-3"/>
                  </angle>
                  <angle>
                    <activevideoangle>false</activevideoangle>
                    <activeaudioangle>false</activeaudioangle>
                    <clip id="clip-4"/>
                  </angle>
                  <angle>
                    <activevideoangle>false</activevideoangle>
                    <activeaudioangle>false</activeaudioangle>
                    <clip id="clip-5"/>
                  </angle>
                  <angle>
                    <activevideoangle>false</activevideoangle>
                    <activeaudioangle>false</activeaudioangle>
                    <clip id="clip-6"/>
                  </angle>
                  <angle>
                    <activevideoangle>false</activevideoangle>
                    <activeaudioangle>false</activeaudioangle>
                    <clip id="clip-7"/>
                  </angle>
                  <angle>
                    <activevideoangle>false</activevideoangle>
                    <activeaudioangle>false</activeaudioangle>
                    <clip id="clip-8"/>
                  </angle>
                  <angle>
                    <activevideoangle>false</activevideoangle>
                    <activeaudioangle>false</activeaudioangle>
                    <clip id="clip-9"/>
                  </angle>
                  <masterclipid>clip-master</masterclipid>
                </multiclip>
              </clipitem>
              <clipitem id="cs-761">
                <duration>87</duration>
                <rate>
                  <ntsc>false</ntsc>
                  <timebase>25</timebase>
                </rate>
                <in>119766</in>
                <out>119852</out>
                <start>119766</start>
                <end>119852</end>
                <file id="src-3"/>
                <sourcetrack>
                  <mediatype>video</mediatype>
                  <trackindex>1</trackindex>
                </sourcetrack>
                <multiclip id="mcs-761">
                  <name>MCS-761</name>
                  <masterclipid>clip-master</masterclipid>
                  <collapsed>false</collapsed>
                  <angle>
                    <activevideoangle>false</activevideoangle>
                    <activeaudioangle>false</activeaudioangle>
                    <clip id="clip-1"/>
                  </angle>
                  <angle>
                    <activevideoangle>false</activevideoangle>
                    <activeaudioangle>false</activeaudioangle>
                    <clip id="clip-2"/>
                  </angle>
                  <angle>
                    <activevideoangle>true</activevideoangle>
                    <activeaudioangle>true</activeaudioangle>
                    <clip id="clip-3"/>
                  </angle>
                  <angle>
                    <activevideoangle>false</activevideoangle>
                    <activeaudioangle>false</activeaudioangle>
                    <clip id="clip-4"/>
                  </angle>
                  <angle>
                    <activevideoangle>false</activevideoangle>
                    <activeaudioangle>false</activeaudioangle>
                    <clip id="clip-5"/>
                  </angle>
                  <angle>
                    <activevideoangle>false</activevideoangle>
                    <activeaudioangle>false</activeaudioangle>
                    <clip id="clip-6"/>
                  </angle>
                  <angle>
                    <activevideoangle>false</activevideoangle>
                    <activeaudioangle>false</activeaudioangle>
                    <clip id="clip-7"/>
                  </angle>
                  <angle>
                    <activevideoangle>false</activevideoangle>
                    <activeaudioangle>false</activeaudioangle>
                    <clip id="clip-8"/>
                  </angle>
                  <angle>
                    <activevideoangle>false</activevideoangle>
                    <activeaudioangle>false</activeaudioangle>
                    <clip id="clip-9"/>
                  </angle>
                  <masterclipid>clip-master</masterclipid>
                </multiclip>
              </clipitem>
              <clipitem id="cs-762">
                <duration>118</duration>
                <rate>
                  <ntsc>false</ntsc>
                  <timebase>25</timebase>
                </rate>
                <in>119852</in>
                <out>119969</out>
                <start>119852</start>
                <end>119969</end>
                <file id="src-2"/>
                <sourcetrack>
                  <mediatype>video</mediatype>
                  <trackindex>1</trackindex>
                </sourcetrack>
                <multiclip id="mcs-762">
                  <name>MCS-762</name>
                  <masterclipid>clip-master</masterclipid>
                  <collapsed>false</collapsed>
                  <angle>
                    <activevideoangle>false</activevideoangle>
                    <activeaudioangle>false</activeaudioangle>
                    <clip id="clip-1"/>
                  </angle>
                  <angle>
                    <activevideoangle>true</activevideoangle>
                    <activeaudioangle>true</activeaudioangle>
                    <clip id="clip-2"/>
                  </angle>
                  <angle>
                    <activevideoangle>false</activevideoangle>
                    <activeaudioangle>false</activeaudioangle>
                    <clip id="clip-3"/>
                  </angle>
                  <angle>
                    <activevideoangle>false</activevideoangle>
                    <activeaudioangle>false</activeaudioangle>
                    <clip id="clip-4"/>
                  </angle>
                  <angle>
                    <activevideoangle>false</activevideoangle>
                    <activeaudioangle>false</activeaudioangle>
                    <clip id="clip-5"/>
                  </angle>
                  <angle>
                    <activevideoangle>false</activevideoangle>
                    <activeaudioangle>false</activeaudioangle>
                    <clip id="clip-6"/>
                  </angle>
                  <angle>
                    <activevideoangle>false</activevideoangle>
                    <activeaudioangle>false</activeaudioangle>
                    <clip id="clip-7"/>
                  </angle>
                  <angle>
                    <activevideoangle>false</activevideoangle>
                    <activeaudioangle>false</activeaudioangle>
                    <clip id="clip-8"/>
                  </angle>
                  <angle>
                    <activevideoangle>false</activevideoangle>
                    <activeaudioangle>false</activeaudioangle>
                    <clip id="clip-9"/>
                  </angle>
                  <masterclipid>clip-master</masterclipid>
                </multiclip>
              </clipitem>
              <clipitem id="cs-763">
                <duration>100</duration>
                <rate>
                  <ntsc>false</ntsc>
                  <timebase>25</timebase>
                </rate>
                <in>119969</in>
                <out>120068</out>
                <start>119969</start>
                <end>120068</end>
                <file id="src-3"/>
                <sourcetrack>
                  <mediatype>video</mediatype>
                  <trackindex>1</trackindex>
                </sourcetrack>
                <multiclip id="mcs-763">
                  <name>MCS-763</name>
                  <masterclipid>clip-master</masterclipid>
                  <collapsed>false</collapsed>
                  <angle>
                    <activevideoangle>false</activevideoangle>
                    <activeaudioangle>false</activeaudioangle>
                    <clip id="clip-1"/>
                  </angle>
                  <angle>
                    <activevideoangle>false</activevideoangle>
                    <activeaudioangle>false</activeaudioangle>
                    <clip id="clip-2"/>
                  </angle>
                  <angle>
                    <activevideoangle>true</activevideoangle>
                    <activeaudioangle>true</activeaudioangle>
                    <clip id="clip-3"/>
                  </angle>
                  <angle>
                    <activevideoangle>false</activevideoangle>
                    <activeaudioangle>false</activeaudioangle>
                    <clip id="clip-4"/>
                  </angle>
                  <angle>
                    <activevideoangle>false</activevideoangle>
                    <activeaudioangle>false</activeaudioangle>
                    <clip id="clip-5"/>
                  </angle>
                  <angle>
                    <activevideoangle>false</activevideoangle>
                    <activeaudioangle>false</activeaudioangle>
                    <clip id="clip-6"/>
                  </angle>
                  <angle>
                    <activevideoangle>false</activevideoangle>
                    <activeaudioangle>false</activeaudioangle>
                    <clip id="clip-7"/>
                  </angle>
                  <angle>
                    <activevideoangle>false</activevideoangle>
                    <activeaudioangle>false</activeaudioangle>
                    <clip id="clip-8"/>
                  </angle>
                  <angle>
                    <activevideoangle>false</activevideoangle>
                    <activeaudioangle>false</activeaudioangle>
                    <clip id="clip-9"/>
                  </angle>
                  <masterclipid>clip-master</masterclipid>
                </multiclip>
              </clipitem>
              <clipitem id="cs-764">
                <duration>137</duration>
                <rate>
                  <ntsc>false</ntsc>
                  <timebase>25</timebase>
                </rate>
                <in>120068</in>
                <out>120204</out>
                <start>120068</start>
                <end>120204</end>
                <file id="src-4"/>
                <sourcetrack>
                  <mediatype>video</mediatype>
                  <trackindex>1</trackindex>
                </sourcetrack>
                <multiclip id="mcs-764">
                  <name>MCS-764</name>
                  <masterclipid>clip-master</masterclipid>
                  <collapsed>false</collapsed>
                  <angle>
                    <activevideoangle>false</activevideoangle>
                    <activeaudioangle>false</activeaudioangle>
                    <clip id="clip-1"/>
                  </angle>
                  <angle>
                    <activevideoangle>false</activevideoangle>
                    <activeaudioangle>false</activeaudioangle>
                    <clip id="clip-2"/>
                  </angle>
                  <angle>
                    <activevideoangle>false</activevideoangle>
                    <activeaudioangle>false</activeaudioangle>
                    <clip id="clip-3"/>
                  </angle>
                  <angle>
                    <activevideoangle>true</activevideoangle>
                    <activeaudioangle>true</activeaudioangle>
                    <clip id="clip-4"/>
                  </angle>
                  <angle>
                    <activevideoangle>false</activevideoangle>
                    <activeaudioangle>false</activeaudioangle>
                    <clip id="clip-5"/>
                  </angle>
                  <angle>
                    <activevideoangle>false</activevideoangle>
                    <activeaudioangle>false</activeaudioangle>
                    <clip id="clip-6"/>
                  </angle>
                  <angle>
                    <activevideoangle>false</activevideoangle>
                    <activeaudioangle>false</activeaudioangle>
                    <clip id="clip-7"/>
                  </angle>
                  <angle>
                    <activevideoangle>false</activevideoangle>
                    <activeaudioangle>false</activeaudioangle>
                    <clip id="clip-8"/>
                  </angle>
                  <angle>
                    <activevideoangle>false</activevideoangle>
                    <activeaudioangle>false</activeaudioangle>
                    <clip id="clip-9"/>
                  </angle>
                  <masterclipid>clip-master</masterclipid>
                </multiclip>
              </clipitem>
              <clipitem id="cs-765">
                <duration>134</duration>
                <rate>
                  <ntsc>false</ntsc>
                  <timebase>25</timebase>
                </rate>
                <in>120204</in>
                <out>120337</out>
                <start>120204</start>
                <end>120337</end>
                <file id="src-2"/>
                <sourcetrack>
                  <mediatype>video</mediatype>
                  <trackindex>1</trackindex>
                </sourcetrack>
                <multiclip id="mcs-765">
                  <name>MCS-765</name>
                  <masterclipid>clip-master</masterclipid>
                  <collapsed>false</collapsed>
                  <angle>
                    <activevideoangle>false</activevideoangle>
                    <activeaudioangle>false</activeaudioangle>
                    <clip id="clip-1"/>
                  </angle>
                  <angle>
                    <activevideoangle>true</activevideoangle>
                    <activeaudioangle>true</activeaudioangle>
                    <clip id="clip-2"/>
                  </angle>
                  <angle>
                    <activevideoangle>false</activevideoangle>
                    <activeaudioangle>false</activeaudioangle>
                    <clip id="clip-3"/>
                  </angle>
                  <angle>
                    <activevideoangle>false</activevideoangle>
                    <activeaudioangle>false</activeaudioangle>
                    <clip id="clip-4"/>
                  </angle>
                  <angle>
                    <activevideoangle>false</activevideoangle>
                    <activeaudioangle>false</activeaudioangle>
                    <clip id="clip-5"/>
                  </angle>
                  <angle>
                    <activevideoangle>false</activevideoangle>
                    <activeaudioangle>false</activeaudioangle>
                    <clip id="clip-6"/>
                  </angle>
                  <angle>
                    <activevideoangle>false</activevideoangle>
                    <activeaudioangle>false</activeaudioangle>
                    <clip id="clip-7"/>
                  </angle>
                  <angle>
                    <activevideoangle>false</activevideoangle>
                    <activeaudioangle>false</activeaudioangle>
                    <clip id="clip-8"/>
                  </angle>
                  <angle>
                    <activevideoangle>false</activevideoangle>
                    <activeaudioangle>false</activeaudioangle>
                    <clip id="clip-9"/>
                  </angle>
                  <masterclipid>clip-master</masterclipid>
                </multiclip>
              </clipitem>
              <clipitem id="cs-766">
                <duration>66</duration>
                <rate>
                  <ntsc>false</ntsc>
                  <timebase>25</timebase>
                </rate>
                <in>120337</in>
                <out>120402</out>
                <start>120337</start>
                <end>120402</end>
                <file id="src-3"/>
                <sourcetrack>
                  <mediatype>video</mediatype>
                  <trackindex>1</trackindex>
                </sourcetrack>
                <multiclip id="mcs-766">
                  <name>MCS-766</name>
                  <masterclipid>clip-master</masterclipid>
                  <collapsed>false</collapsed>
                  <angle>
                    <activevideoangle>false</activevideoangle>
                    <activeaudioangle>false</activeaudioangle>
                    <clip id="clip-1"/>
                  </angle>
                  <angle>
                    <activevideoangle>false</activevideoangle>
                    <activeaudioangle>false</activeaudioangle>
                    <clip id="clip-2"/>
                  </angle>
                  <angle>
                    <activevideoangle>true</activevideoangle>
                    <activeaudioangle>true</activeaudioangle>
                    <clip id="clip-3"/>
                  </angle>
                  <angle>
                    <activevideoangle>false</activevideoangle>
                    <activeaudioangle>false</activeaudioangle>
                    <clip id="clip-4"/>
                  </angle>
                  <angle>
                    <activevideoangle>false</activevideoangle>
                    <activeaudioangle>false</activeaudioangle>
                    <clip id="clip-5"/>
                  </angle>
                  <angle>
                    <activevideoangle>false</activevideoangle>
                    <activeaudioangle>false</activeaudioangle>
                    <clip id="clip-6"/>
                  </angle>
                  <angle>
                    <activevideoangle>false</activevideoangle>
                    <activeaudioangle>false</activeaudioangle>
                    <clip id="clip-7"/>
                  </angle>
                  <angle>
                    <activevideoangle>false</activevideoangle>
                    <activeaudioangle>false</activeaudioangle>
                    <clip id="clip-8"/>
                  </angle>
                  <angle>
                    <activevideoangle>false</activevideoangle>
                    <activeaudioangle>false</activeaudioangle>
                    <clip id="clip-9"/>
                  </angle>
                  <masterclipid>clip-master</masterclipid>
                </multiclip>
              </clipitem>
              <clipitem id="cs-767">
                <duration>43</duration>
                <rate>
                  <ntsc>false</ntsc>
                  <timebase>25</timebase>
                </rate>
                <in>120402</in>
                <out>120444</out>
                <start>120402</start>
                <end>120444</end>
                <file id="src-4"/>
                <sourcetrack>
                  <mediatype>video</mediatype>
                  <trackindex>1</trackindex>
                </sourcetrack>
                <multiclip id="mcs-767">
                  <name>MCS-767</name>
                  <masterclipid>clip-master</masterclipid>
                  <collapsed>false</collapsed>
                  <angle>
                    <activevideoangle>false</activevideoangle>
                    <activeaudioangle>false</activeaudioangle>
                    <clip id="clip-1"/>
                  </angle>
                  <angle>
                    <activevideoangle>false</activevideoangle>
                    <activeaudioangle>false</activeaudioangle>
                    <clip id="clip-2"/>
                  </angle>
                  <angle>
                    <activevideoangle>false</activevideoangle>
                    <activeaudioangle>false</activeaudioangle>
                    <clip id="clip-3"/>
                  </angle>
                  <angle>
                    <activevideoangle>true</activevideoangle>
                    <activeaudioangle>true</activeaudioangle>
                    <clip id="clip-4"/>
                  </angle>
                  <angle>
                    <activevideoangle>false</activevideoangle>
                    <activeaudioangle>false</activeaudioangle>
                    <clip id="clip-5"/>
                  </angle>
                  <angle>
                    <activevideoangle>false</activevideoangle>
                    <activeaudioangle>false</activeaudioangle>
                    <clip id="clip-6"/>
                  </angle>
                  <angle>
                    <activevideoangle>false</activevideoangle>
                    <activeaudioangle>false</activeaudioangle>
                    <clip id="clip-7"/>
                  </angle>
                  <angle>
                    <activevideoangle>false</activevideoangle>
                    <activeaudioangle>false</activeaudioangle>
                    <clip id="clip-8"/>
                  </angle>
                  <angle>
                    <activevideoangle>false</activevideoangle>
                    <activeaudioangle>false</activeaudioangle>
                    <clip id="clip-9"/>
                  </angle>
                  <masterclipid>clip-master</masterclipid>
                </multiclip>
              </clipitem>
              <clipitem id="cs-768">
                <duration>146</duration>
                <rate>
                  <ntsc>false</ntsc>
                  <timebase>25</timebase>
                </rate>
                <in>120444</in>
                <out>120589</out>
                <start>120444</start>
                <end>120589</end>
                <file id="src-6"/>
                <sourcetrack>
                  <mediatype>video</mediatype>
                  <trackindex>1</trackindex>
                </sourcetrack>
                <multiclip id="mcs-768">
                  <name>MCS-768</name>
                  <masterclipid>clip-master</masterclipid>
                  <collapsed>false</collapsed>
                  <angle>
                    <activevideoangle>false</activevideoangle>
                    <activeaudioangle>false</activeaudioangle>
                    <clip id="clip-1"/>
                  </angle>
                  <angle>
                    <activevideoangle>false</activevideoangle>
                    <activeaudioangle>false</activeaudioangle>
                    <clip id="clip-2"/>
                  </angle>
                  <angle>
                    <activevideoangle>false</activevideoangle>
                    <activeaudioangle>false</activeaudioangle>
                    <clip id="clip-3"/>
                  </angle>
                  <angle>
                    <activevideoangle>false</activevideoangle>
                    <activeaudioangle>false</activeaudioangle>
                    <clip id="clip-4"/>
                  </angle>
                  <angle>
                    <activevideoangle>false</activevideoangle>
                    <activeaudioangle>false</activeaudioangle>
                    <clip id="clip-5"/>
                  </angle>
                  <angle>
                    <activevideoangle>true</activevideoangle>
                    <activeaudioangle>true</activeaudioangle>
                    <clip id="clip-6"/>
                  </angle>
                  <angle>
                    <activevideoangle>false</activevideoangle>
                    <activeaudioangle>false</activeaudioangle>
                    <clip id="clip-7"/>
                  </angle>
                  <angle>
                    <activevideoangle>false</activevideoangle>
                    <activeaudioangle>false</activeaudioangle>
                    <clip id="clip-8"/>
                  </angle>
                  <angle>
                    <activevideoangle>false</activevideoangle>
                    <activeaudioangle>false</activeaudioangle>
                    <clip id="clip-9"/>
                  </angle>
                  <masterclipid>clip-master</masterclipid>
                </multiclip>
              </clipitem>
              <clipitem id="cs-769">
                <duration>404</duration>
                <rate>
                  <ntsc>false</ntsc>
                  <timebase>25</timebase>
                </rate>
                <in>120589</in>
                <out>120992</out>
                <start>120589</start>
                <end>120992</end>
                <file id="src-3"/>
                <sourcetrack>
                  <mediatype>video</mediatype>
                  <trackindex>1</trackindex>
                </sourcetrack>
                <multiclip id="mcs-769">
                  <name>MCS-769</name>
                  <masterclipid>clip-master</masterclipid>
                  <collapsed>false</collapsed>
                  <angle>
                    <activevideoangle>false</activevideoangle>
                    <activeaudioangle>false</activeaudioangle>
                    <clip id="clip-1"/>
                  </angle>
                  <angle>
                    <activevideoangle>false</activevideoangle>
                    <activeaudioangle>false</activeaudioangle>
                    <clip id="clip-2"/>
                  </angle>
                  <angle>
                    <activevideoangle>true</activevideoangle>
                    <activeaudioangle>true</activeaudioangle>
                    <clip id="clip-3"/>
                  </angle>
                  <angle>
                    <activevideoangle>false</activevideoangle>
                    <activeaudioangle>false</activeaudioangle>
                    <clip id="clip-4"/>
                  </angle>
                  <angle>
                    <activevideoangle>false</activevideoangle>
                    <activeaudioangle>false</activeaudioangle>
                    <clip id="clip-5"/>
                  </angle>
                  <angle>
                    <activevideoangle>false</activevideoangle>
                    <activeaudioangle>false</activeaudioangle>
                    <clip id="clip-6"/>
                  </angle>
                  <angle>
                    <activevideoangle>false</activevideoangle>
                    <activeaudioangle>false</activeaudioangle>
                    <clip id="clip-7"/>
                  </angle>
                  <angle>
                    <activevideoangle>false</activevideoangle>
                    <activeaudioangle>false</activeaudioangle>
                    <clip id="clip-8"/>
                  </angle>
                  <angle>
                    <activevideoangle>false</activevideoangle>
                    <activeaudioangle>false</activeaudioangle>
                    <clip id="clip-9"/>
                  </angle>
                  <masterclipid>clip-master</masterclipid>
                </multiclip>
              </clipitem>
              <clipitem id="cs-770">
                <duration>74</duration>
                <rate>
                  <ntsc>false</ntsc>
                  <timebase>25</timebase>
                </rate>
                <in>120992</in>
                <out>121065</out>
                <start>120992</start>
                <end>121065</end>
                <file id="src-2"/>
                <sourcetrack>
                  <mediatype>video</mediatype>
                  <trackindex>1</trackindex>
                </sourcetrack>
                <multiclip id="mcs-770">
                  <name>MCS-770</name>
                  <masterclipid>clip-master</masterclipid>
                  <collapsed>false</collapsed>
                  <angle>
                    <activevideoangle>false</activevideoangle>
                    <activeaudioangle>false</activeaudioangle>
                    <clip id="clip-1"/>
                  </angle>
                  <angle>
                    <activevideoangle>true</activevideoangle>
                    <activeaudioangle>true</activeaudioangle>
                    <clip id="clip-2"/>
                  </angle>
                  <angle>
                    <activevideoangle>false</activevideoangle>
                    <activeaudioangle>false</activeaudioangle>
                    <clip id="clip-3"/>
                  </angle>
                  <angle>
                    <activevideoangle>false</activevideoangle>
                    <activeaudioangle>false</activeaudioangle>
                    <clip id="clip-4"/>
                  </angle>
                  <angle>
                    <activevideoangle>false</activevideoangle>
                    <activeaudioangle>false</activeaudioangle>
                    <clip id="clip-5"/>
                  </angle>
                  <angle>
                    <activevideoangle>false</activevideoangle>
                    <activeaudioangle>false</activeaudioangle>
                    <clip id="clip-6"/>
                  </angle>
                  <angle>
                    <activevideoangle>false</activevideoangle>
                    <activeaudioangle>false</activeaudioangle>
                    <clip id="clip-7"/>
                  </angle>
                  <angle>
                    <activevideoangle>false</activevideoangle>
                    <activeaudioangle>false</activeaudioangle>
                    <clip id="clip-8"/>
                  </angle>
                  <angle>
                    <activevideoangle>false</activevideoangle>
                    <activeaudioangle>false</activeaudioangle>
                    <clip id="clip-9"/>
                  </angle>
                  <masterclipid>clip-master</masterclipid>
                </multiclip>
              </clipitem>
              <clipitem id="cs-771">
                <duration>69</duration>
                <rate>
                  <ntsc>false</ntsc>
                  <timebase>25</timebase>
                </rate>
                <in>121065</in>
                <out>121133</out>
                <start>121065</start>
                <end>121133</end>
                <file id="src-6"/>
                <sourcetrack>
                  <mediatype>video</mediatype>
                  <trackindex>1</trackindex>
                </sourcetrack>
                <multiclip id="mcs-771">
                  <name>MCS-771</name>
                  <masterclipid>clip-master</masterclipid>
                  <collapsed>false</collapsed>
                  <angle>
                    <activevideoangle>false</activevideoangle>
                    <activeaudioangle>false</activeaudioangle>
                    <clip id="clip-1"/>
                  </angle>
                  <angle>
                    <activevideoangle>false</activevideoangle>
                    <activeaudioangle>false</activeaudioangle>
                    <clip id="clip-2"/>
                  </angle>
                  <angle>
                    <activevideoangle>false</activevideoangle>
                    <activeaudioangle>false</activeaudioangle>
                    <clip id="clip-3"/>
                  </angle>
                  <angle>
                    <activevideoangle>false</activevideoangle>
                    <activeaudioangle>false</activeaudioangle>
                    <clip id="clip-4"/>
                  </angle>
                  <angle>
                    <activevideoangle>false</activevideoangle>
                    <activeaudioangle>false</activeaudioangle>
                    <clip id="clip-5"/>
                  </angle>
                  <angle>
                    <activevideoangle>true</activevideoangle>
                    <activeaudioangle>true</activeaudioangle>
                    <clip id="clip-6"/>
                  </angle>
                  <angle>
                    <activevideoangle>false</activevideoangle>
                    <activeaudioangle>false</activeaudioangle>
                    <clip id="clip-7"/>
                  </angle>
                  <angle>
                    <activevideoangle>false</activevideoangle>
                    <activeaudioangle>false</activeaudioangle>
                    <clip id="clip-8"/>
                  </angle>
                  <angle>
                    <activevideoangle>false</activevideoangle>
                    <activeaudioangle>false</activeaudioangle>
                    <clip id="clip-9"/>
                  </angle>
                  <masterclipid>clip-master</masterclipid>
                </multiclip>
              </clipitem>
              <clipitem id="cs-772">
                <duration>86</duration>
                <rate>
                  <ntsc>false</ntsc>
                  <timebase>25</timebase>
                </rate>
                <in>121133</in>
                <out>121218</out>
                <start>121133</start>
                <end>121218</end>
                <file id="src-4"/>
                <sourcetrack>
                  <mediatype>video</mediatype>
                  <trackindex>1</trackindex>
                </sourcetrack>
                <multiclip id="mcs-772">
                  <name>MCS-772</name>
                  <masterclipid>clip-master</masterclipid>
                  <collapsed>false</collapsed>
                  <angle>
                    <activevideoangle>false</activevideoangle>
                    <activeaudioangle>false</activeaudioangle>
                    <clip id="clip-1"/>
                  </angle>
                  <angle>
                    <activevideoangle>false</activevideoangle>
                    <activeaudioangle>false</activeaudioangle>
                    <clip id="clip-2"/>
                  </angle>
                  <angle>
                    <activevideoangle>false</activevideoangle>
                    <activeaudioangle>false</activeaudioangle>
                    <clip id="clip-3"/>
                  </angle>
                  <angle>
                    <activevideoangle>true</activevideoangle>
                    <activeaudioangle>true</activeaudioangle>
                    <clip id="clip-4"/>
                  </angle>
                  <angle>
                    <activevideoangle>false</activevideoangle>
                    <activeaudioangle>false</activeaudioangle>
                    <clip id="clip-5"/>
                  </angle>
                  <angle>
                    <activevideoangle>false</activevideoangle>
                    <activeaudioangle>false</activeaudioangle>
                    <clip id="clip-6"/>
                  </angle>
                  <angle>
                    <activevideoangle>false</activevideoangle>
                    <activeaudioangle>false</activeaudioangle>
                    <clip id="clip-7"/>
                  </angle>
                  <angle>
                    <activevideoangle>false</activevideoangle>
                    <activeaudioangle>false</activeaudioangle>
                    <clip id="clip-8"/>
                  </angle>
                  <angle>
                    <activevideoangle>false</activevideoangle>
                    <activeaudioangle>false</activeaudioangle>
                    <clip id="clip-9"/>
                  </angle>
                  <masterclipid>clip-master</masterclipid>
                </multiclip>
              </clipitem>
              <clipitem id="cs-773">
                <duration>97</duration>
                <rate>
                  <ntsc>false</ntsc>
                  <timebase>25</timebase>
                </rate>
                <in>121218</in>
                <out>121314</out>
                <start>121218</start>
                <end>121314</end>
                <file id="src-3"/>
                <sourcetrack>
                  <mediatype>video</mediatype>
                  <trackindex>1</trackindex>
                </sourcetrack>
                <multiclip id="mcs-773">
                  <name>MCS-773</name>
                  <masterclipid>clip-master</masterclipid>
                  <collapsed>false</collapsed>
                  <angle>
                    <activevideoangle>false</activevideoangle>
                    <activeaudioangle>false</activeaudioangle>
                    <clip id="clip-1"/>
                  </angle>
                  <angle>
                    <activevideoangle>false</activevideoangle>
                    <activeaudioangle>false</activeaudioangle>
                    <clip id="clip-2"/>
                  </angle>
                  <angle>
                    <activevideoangle>true</activevideoangle>
                    <activeaudioangle>true</activeaudioangle>
                    <clip id="clip-3"/>
                  </angle>
                  <angle>
                    <activevideoangle>false</activevideoangle>
                    <activeaudioangle>false</activeaudioangle>
                    <clip id="clip-4"/>
                  </angle>
                  <angle>
                    <activevideoangle>false</activevideoangle>
                    <activeaudioangle>false</activeaudioangle>
                    <clip id="clip-5"/>
                  </angle>
                  <angle>
                    <activevideoangle>false</activevideoangle>
                    <activeaudioangle>false</activeaudioangle>
                    <clip id="clip-6"/>
                  </angle>
                  <angle>
                    <activevideoangle>false</activevideoangle>
                    <activeaudioangle>false</activeaudioangle>
                    <clip id="clip-7"/>
                  </angle>
                  <angle>
                    <activevideoangle>false</activevideoangle>
                    <activeaudioangle>false</activeaudioangle>
                    <clip id="clip-8"/>
                  </angle>
                  <angle>
                    <activevideoangle>false</activevideoangle>
                    <activeaudioangle>false</activeaudioangle>
                    <clip id="clip-9"/>
                  </angle>
                  <masterclipid>clip-master</masterclipid>
                </multiclip>
              </clipitem>
              <clipitem id="cs-774">
                <duration>55</duration>
                <rate>
                  <ntsc>false</ntsc>
                  <timebase>25</timebase>
                </rate>
                <in>121314</in>
                <out>121368</out>
                <start>121314</start>
                <end>121368</end>
                <file id="src-2"/>
                <sourcetrack>
                  <mediatype>video</mediatype>
                  <trackindex>1</trackindex>
                </sourcetrack>
                <multiclip id="mcs-774">
                  <name>MCS-774</name>
                  <masterclipid>clip-master</masterclipid>
                  <collapsed>false</collapsed>
                  <angle>
                    <activevideoangle>false</activevideoangle>
                    <activeaudioangle>false</activeaudioangle>
                    <clip id="clip-1"/>
                  </angle>
                  <angle>
                    <activevideoangle>true</activevideoangle>
                    <activeaudioangle>true</activeaudioangle>
                    <clip id="clip-2"/>
                  </angle>
                  <angle>
                    <activevideoangle>false</activevideoangle>
                    <activeaudioangle>false</activeaudioangle>
                    <clip id="clip-3"/>
                  </angle>
                  <angle>
                    <activevideoangle>false</activevideoangle>
                    <activeaudioangle>false</activeaudioangle>
                    <clip id="clip-4"/>
                  </angle>
                  <angle>
                    <activevideoangle>false</activevideoangle>
                    <activeaudioangle>false</activeaudioangle>
                    <clip id="clip-5"/>
                  </angle>
                  <angle>
                    <activevideoangle>false</activevideoangle>
                    <activeaudioangle>false</activeaudioangle>
                    <clip id="clip-6"/>
                  </angle>
                  <angle>
                    <activevideoangle>false</activevideoangle>
                    <activeaudioangle>false</activeaudioangle>
                    <clip id="clip-7"/>
                  </angle>
                  <angle>
                    <activevideoangle>false</activevideoangle>
                    <activeaudioangle>false</activeaudioangle>
                    <clip id="clip-8"/>
                  </angle>
                  <angle>
                    <activevideoangle>false</activevideoangle>
                    <activeaudioangle>false</activeaudioangle>
                    <clip id="clip-9"/>
                  </angle>
                  <masterclipid>clip-master</masterclipid>
                </multiclip>
              </clipitem>
              <clipitem id="cs-775">
                <duration>240</duration>
                <rate>
                  <ntsc>false</ntsc>
                  <timebase>25</timebase>
                </rate>
                <in>121368</in>
                <out>121607</out>
                <start>121368</start>
                <end>121607</end>
                <file id="src-1"/>
                <sourcetrack>
                  <mediatype>video</mediatype>
                  <trackindex>1</trackindex>
                </sourcetrack>
                <multiclip id="mcs-775">
                  <name>MCS-775</name>
                  <masterclipid>clip-master</masterclipid>
                  <collapsed>false</collapsed>
                  <angle>
                    <activevideoangle>true</activevideoangle>
                    <activeaudioangle>true</activeaudioangle>
                    <clip id="clip-1"/>
                  </angle>
                  <angle>
                    <activevideoangle>false</activevideoangle>
                    <activeaudioangle>false</activeaudioangle>
                    <clip id="clip-2"/>
                  </angle>
                  <angle>
                    <activevideoangle>false</activevideoangle>
                    <activeaudioangle>false</activeaudioangle>
                    <clip id="clip-3"/>
                  </angle>
                  <angle>
                    <activevideoangle>false</activevideoangle>
                    <activeaudioangle>false</activeaudioangle>
                    <clip id="clip-4"/>
                  </angle>
                  <angle>
                    <activevideoangle>false</activevideoangle>
                    <activeaudioangle>false</activeaudioangle>
                    <clip id="clip-5"/>
                  </angle>
                  <angle>
                    <activevideoangle>false</activevideoangle>
                    <activeaudioangle>false</activeaudioangle>
                    <clip id="clip-6"/>
                  </angle>
                  <angle>
                    <activevideoangle>false</activevideoangle>
                    <activeaudioangle>false</activeaudioangle>
                    <clip id="clip-7"/>
                  </angle>
                  <angle>
                    <activevideoangle>false</activevideoangle>
                    <activeaudioangle>false</activeaudioangle>
                    <clip id="clip-8"/>
                  </angle>
                  <angle>
                    <activevideoangle>false</activevideoangle>
                    <activeaudioangle>false</activeaudioangle>
                    <clip id="clip-9"/>
                  </angle>
                  <masterclipid>clip-master</masterclipid>
                </multiclip>
              </clipitem>
              <clipitem id="cs-776">
                <duration>45</duration>
                <rate>
                  <ntsc>false</ntsc>
                  <timebase>25</timebase>
                </rate>
                <in>121607</in>
                <out>121651</out>
                <start>121607</start>
                <end>121651</end>
                <file id="src-2"/>
                <sourcetrack>
                  <mediatype>video</mediatype>
                  <trackindex>1</trackindex>
                </sourcetrack>
                <multiclip id="mcs-776">
                  <name>MCS-776</name>
                  <masterclipid>clip-master</masterclipid>
                  <collapsed>false</collapsed>
                  <angle>
                    <activevideoangle>false</activevideoangle>
                    <activeaudioangle>false</activeaudioangle>
                    <clip id="clip-1"/>
                  </angle>
                  <angle>
                    <activevideoangle>true</activevideoangle>
                    <activeaudioangle>true</activeaudioangle>
                    <clip id="clip-2"/>
                  </angle>
                  <angle>
                    <activevideoangle>false</activevideoangle>
                    <activeaudioangle>false</activeaudioangle>
                    <clip id="clip-3"/>
                  </angle>
                  <angle>
                    <activevideoangle>false</activevideoangle>
                    <activeaudioangle>false</activeaudioangle>
                    <clip id="clip-4"/>
                  </angle>
                  <angle>
                    <activevideoangle>false</activevideoangle>
                    <activeaudioangle>false</activeaudioangle>
                    <clip id="clip-5"/>
                  </angle>
                  <angle>
                    <activevideoangle>false</activevideoangle>
                    <activeaudioangle>false</activeaudioangle>
                    <clip id="clip-6"/>
                  </angle>
                  <angle>
                    <activevideoangle>false</activevideoangle>
                    <activeaudioangle>false</activeaudioangle>
                    <clip id="clip-7"/>
                  </angle>
                  <angle>
                    <activevideoangle>false</activevideoangle>
                    <activeaudioangle>false</activeaudioangle>
                    <clip id="clip-8"/>
                  </angle>
                  <angle>
                    <activevideoangle>false</activevideoangle>
                    <activeaudioangle>false</activeaudioangle>
                    <clip id="clip-9"/>
                  </angle>
                  <masterclipid>clip-master</masterclipid>
                </multiclip>
              </clipitem>
              <clipitem id="cs-777">
                <duration>142</duration>
                <rate>
                  <ntsc>false</ntsc>
                  <timebase>25</timebase>
                </rate>
                <in>121651</in>
                <out>121792</out>
                <start>121651</start>
                <end>121792</end>
                <file id="src-3"/>
                <sourcetrack>
                  <mediatype>video</mediatype>
                  <trackindex>1</trackindex>
                </sourcetrack>
                <multiclip id="mcs-777">
                  <name>MCS-777</name>
                  <masterclipid>clip-master</masterclipid>
                  <collapsed>false</collapsed>
                  <angle>
                    <activevideoangle>false</activevideoangle>
                    <activeaudioangle>false</activeaudioangle>
                    <clip id="clip-1"/>
                  </angle>
                  <angle>
                    <activevideoangle>false</activevideoangle>
                    <activeaudioangle>false</activeaudioangle>
                    <clip id="clip-2"/>
                  </angle>
                  <angle>
                    <activevideoangle>true</activevideoangle>
                    <activeaudioangle>true</activeaudioangle>
                    <clip id="clip-3"/>
                  </angle>
                  <angle>
                    <activevideoangle>false</activevideoangle>
                    <activeaudioangle>false</activeaudioangle>
                    <clip id="clip-4"/>
                  </angle>
                  <angle>
                    <activevideoangle>false</activevideoangle>
                    <activeaudioangle>false</activeaudioangle>
                    <clip id="clip-5"/>
                  </angle>
                  <angle>
                    <activevideoangle>false</activevideoangle>
                    <activeaudioangle>false</activeaudioangle>
                    <clip id="clip-6"/>
                  </angle>
                  <angle>
                    <activevideoangle>false</activevideoangle>
                    <activeaudioangle>false</activeaudioangle>
                    <clip id="clip-7"/>
                  </angle>
                  <angle>
                    <activevideoangle>false</activevideoangle>
                    <activeaudioangle>false</activeaudioangle>
                    <clip id="clip-8"/>
                  </angle>
                  <angle>
                    <activevideoangle>false</activevideoangle>
                    <activeaudioangle>false</activeaudioangle>
                    <clip id="clip-9"/>
                  </angle>
                  <masterclipid>clip-master</masterclipid>
                </multiclip>
              </clipitem>
              <clipitem id="cs-778">
                <duration>120</duration>
                <rate>
                  <ntsc>false</ntsc>
                  <timebase>25</timebase>
                </rate>
                <in>121792</in>
                <out>121911</out>
                <start>121792</start>
                <end>121911</end>
                <file id="src-4"/>
                <sourcetrack>
                  <mediatype>video</mediatype>
                  <trackindex>1</trackindex>
                </sourcetrack>
                <multiclip id="mcs-778">
                  <name>MCS-778</name>
                  <masterclipid>clip-master</masterclipid>
                  <collapsed>false</collapsed>
                  <angle>
                    <activevideoangle>false</activevideoangle>
                    <activeaudioangle>false</activeaudioangle>
                    <clip id="clip-1"/>
                  </angle>
                  <angle>
                    <activevideoangle>false</activevideoangle>
                    <activeaudioangle>false</activeaudioangle>
                    <clip id="clip-2"/>
                  </angle>
                  <angle>
                    <activevideoangle>false</activevideoangle>
                    <activeaudioangle>false</activeaudioangle>
                    <clip id="clip-3"/>
                  </angle>
                  <angle>
                    <activevideoangle>true</activevideoangle>
                    <activeaudioangle>true</activeaudioangle>
                    <clip id="clip-4"/>
                  </angle>
                  <angle>
                    <activevideoangle>false</activevideoangle>
                    <activeaudioangle>false</activeaudioangle>
                    <clip id="clip-5"/>
                  </angle>
                  <angle>
                    <activevideoangle>false</activevideoangle>
                    <activeaudioangle>false</activeaudioangle>
                    <clip id="clip-6"/>
                  </angle>
                  <angle>
                    <activevideoangle>false</activevideoangle>
                    <activeaudioangle>false</activeaudioangle>
                    <clip id="clip-7"/>
                  </angle>
                  <angle>
                    <activevideoangle>false</activevideoangle>
                    <activeaudioangle>false</activeaudioangle>
                    <clip id="clip-8"/>
                  </angle>
                  <angle>
                    <activevideoangle>false</activevideoangle>
                    <activeaudioangle>false</activeaudioangle>
                    <clip id="clip-9"/>
                  </angle>
                  <masterclipid>clip-master</masterclipid>
                </multiclip>
              </clipitem>
              <clipitem id="cs-779">
                <duration>151</duration>
                <rate>
                  <ntsc>false</ntsc>
                  <timebase>25</timebase>
                </rate>
                <in>121911</in>
                <out>122061</out>
                <start>121911</start>
                <end>122061</end>
                <file id="src-1"/>
                <sourcetrack>
                  <mediatype>video</mediatype>
                  <trackindex>1</trackindex>
                </sourcetrack>
                <multiclip id="mcs-779">
                  <name>MCS-779</name>
                  <masterclipid>clip-master</masterclipid>
                  <collapsed>false</collapsed>
                  <angle>
                    <activevideoangle>true</activevideoangle>
                    <activeaudioangle>true</activeaudioangle>
                    <clip id="clip-1"/>
                  </angle>
                  <angle>
                    <activevideoangle>false</activevideoangle>
                    <activeaudioangle>false</activeaudioangle>
                    <clip id="clip-2"/>
                  </angle>
                  <angle>
                    <activevideoangle>false</activevideoangle>
                    <activeaudioangle>false</activeaudioangle>
                    <clip id="clip-3"/>
                  </angle>
                  <angle>
                    <activevideoangle>false</activevideoangle>
                    <activeaudioangle>false</activeaudioangle>
                    <clip id="clip-4"/>
                  </angle>
                  <angle>
                    <activevideoangle>false</activevideoangle>
                    <activeaudioangle>false</activeaudioangle>
                    <clip id="clip-5"/>
                  </angle>
                  <angle>
                    <activevideoangle>false</activevideoangle>
                    <activeaudioangle>false</activeaudioangle>
                    <clip id="clip-6"/>
                  </angle>
                  <angle>
                    <activevideoangle>false</activevideoangle>
                    <activeaudioangle>false</activeaudioangle>
                    <clip id="clip-7"/>
                  </angle>
                  <angle>
                    <activevideoangle>false</activevideoangle>
                    <activeaudioangle>false</activeaudioangle>
                    <clip id="clip-8"/>
                  </angle>
                  <angle>
                    <activevideoangle>false</activevideoangle>
                    <activeaudioangle>false</activeaudioangle>
                    <clip id="clip-9"/>
                  </angle>
                  <masterclipid>clip-master</masterclipid>
                </multiclip>
              </clipitem>
              <clipitem id="cs-780">
                <duration>83</duration>
                <rate>
                  <ntsc>false</ntsc>
                  <timebase>25</timebase>
                </rate>
                <in>122061</in>
                <out>122143</out>
                <start>122061</start>
                <end>122143</end>
                <file id="src-3"/>
                <sourcetrack>
                  <mediatype>video</mediatype>
                  <trackindex>1</trackindex>
                </sourcetrack>
                <multiclip id="mcs-780">
                  <name>MCS-780</name>
                  <masterclipid>clip-master</masterclipid>
                  <collapsed>false</collapsed>
                  <angle>
                    <activevideoangle>false</activevideoangle>
                    <activeaudioangle>false</activeaudioangle>
                    <clip id="clip-1"/>
                  </angle>
                  <angle>
                    <activevideoangle>false</activevideoangle>
                    <activeaudioangle>false</activeaudioangle>
                    <clip id="clip-2"/>
                  </angle>
                  <angle>
                    <activevideoangle>true</activevideoangle>
                    <activeaudioangle>true</activeaudioangle>
                    <clip id="clip-3"/>
                  </angle>
                  <angle>
                    <activevideoangle>false</activevideoangle>
                    <activeaudioangle>false</activeaudioangle>
                    <clip id="clip-4"/>
                  </angle>
                  <angle>
                    <activevideoangle>false</activevideoangle>
                    <activeaudioangle>false</activeaudioangle>
                    <clip id="clip-5"/>
                  </angle>
                  <angle>
                    <activevideoangle>false</activevideoangle>
                    <activeaudioangle>false</activeaudioangle>
                    <clip id="clip-6"/>
                  </angle>
                  <angle>
                    <activevideoangle>false</activevideoangle>
                    <activeaudioangle>false</activeaudioangle>
                    <clip id="clip-7"/>
                  </angle>
                  <angle>
                    <activevideoangle>false</activevideoangle>
                    <activeaudioangle>false</activeaudioangle>
                    <clip id="clip-8"/>
                  </angle>
                  <angle>
                    <activevideoangle>false</activevideoangle>
                    <activeaudioangle>false</activeaudioangle>
                    <clip id="clip-9"/>
                  </angle>
                  <masterclipid>clip-master</masterclipid>
                </multiclip>
              </clipitem>
              <clipitem id="cs-781">
                <duration>45</duration>
                <rate>
                  <ntsc>false</ntsc>
                  <timebase>25</timebase>
                </rate>
                <in>122143</in>
                <out>122187</out>
                <start>122143</start>
                <end>122187</end>
                <file id="src-2"/>
                <sourcetrack>
                  <mediatype>video</mediatype>
                  <trackindex>1</trackindex>
                </sourcetrack>
                <multiclip id="mcs-781">
                  <name>MCS-781</name>
                  <masterclipid>clip-master</masterclipid>
                  <collapsed>false</collapsed>
                  <angle>
                    <activevideoangle>false</activevideoangle>
                    <activeaudioangle>false</activeaudioangle>
                    <clip id="clip-1"/>
                  </angle>
                  <angle>
                    <activevideoangle>true</activevideoangle>
                    <activeaudioangle>true</activeaudioangle>
                    <clip id="clip-2"/>
                  </angle>
                  <angle>
                    <activevideoangle>false</activevideoangle>
                    <activeaudioangle>false</activeaudioangle>
                    <clip id="clip-3"/>
                  </angle>
                  <angle>
                    <activevideoangle>false</activevideoangle>
                    <activeaudioangle>false</activeaudioangle>
                    <clip id="clip-4"/>
                  </angle>
                  <angle>
                    <activevideoangle>false</activevideoangle>
                    <activeaudioangle>false</activeaudioangle>
                    <clip id="clip-5"/>
                  </angle>
                  <angle>
                    <activevideoangle>false</activevideoangle>
                    <activeaudioangle>false</activeaudioangle>
                    <clip id="clip-6"/>
                  </angle>
                  <angle>
                    <activevideoangle>false</activevideoangle>
                    <activeaudioangle>false</activeaudioangle>
                    <clip id="clip-7"/>
                  </angle>
                  <angle>
                    <activevideoangle>false</activevideoangle>
                    <activeaudioangle>false</activeaudioangle>
                    <clip id="clip-8"/>
                  </angle>
                  <angle>
                    <activevideoangle>false</activevideoangle>
                    <activeaudioangle>false</activeaudioangle>
                    <clip id="clip-9"/>
                  </angle>
                  <masterclipid>clip-master</masterclipid>
                </multiclip>
              </clipitem>
              <clipitem id="cs-782">
                <duration>44</duration>
                <rate>
                  <ntsc>false</ntsc>
                  <timebase>25</timebase>
                </rate>
                <in>122187</in>
                <out>122230</out>
                <start>122187</start>
                <end>122230</end>
                <file id="src-5"/>
                <sourcetrack>
                  <mediatype>video</mediatype>
                  <trackindex>1</trackindex>
                </sourcetrack>
                <multiclip id="mcs-782">
                  <name>MCS-782</name>
                  <masterclipid>clip-master</masterclipid>
                  <collapsed>false</collapsed>
                  <angle>
                    <activevideoangle>false</activevideoangle>
                    <activeaudioangle>false</activeaudioangle>
                    <clip id="clip-1"/>
                  </angle>
                  <angle>
                    <activevideoangle>false</activevideoangle>
                    <activeaudioangle>false</activeaudioangle>
                    <clip id="clip-2"/>
                  </angle>
                  <angle>
                    <activevideoangle>false</activevideoangle>
                    <activeaudioangle>false</activeaudioangle>
                    <clip id="clip-3"/>
                  </angle>
                  <angle>
                    <activevideoangle>false</activevideoangle>
                    <activeaudioangle>false</activeaudioangle>
                    <clip id="clip-4"/>
                  </angle>
                  <angle>
                    <activevideoangle>true</activevideoangle>
                    <activeaudioangle>true</activeaudioangle>
                    <clip id="clip-5"/>
                  </angle>
                  <angle>
                    <activevideoangle>false</activevideoangle>
                    <activeaudioangle>false</activeaudioangle>
                    <clip id="clip-6"/>
                  </angle>
                  <angle>
                    <activevideoangle>false</activevideoangle>
                    <activeaudioangle>false</activeaudioangle>
                    <clip id="clip-7"/>
                  </angle>
                  <angle>
                    <activevideoangle>false</activevideoangle>
                    <activeaudioangle>false</activeaudioangle>
                    <clip id="clip-8"/>
                  </angle>
                  <angle>
                    <activevideoangle>false</activevideoangle>
                    <activeaudioangle>false</activeaudioangle>
                    <clip id="clip-9"/>
                  </angle>
                  <masterclipid>clip-master</masterclipid>
                </multiclip>
              </clipitem>
              <clipitem id="cs-783">
                <duration>36</duration>
                <rate>
                  <ntsc>false</ntsc>
                  <timebase>25</timebase>
                </rate>
                <in>122230</in>
                <out>122265</out>
                <start>122230</start>
                <end>122265</end>
                <file id="src-2"/>
                <sourcetrack>
                  <mediatype>video</mediatype>
                  <trackindex>1</trackindex>
                </sourcetrack>
                <multiclip id="mcs-783">
                  <name>MCS-783</name>
                  <masterclipid>clip-master</masterclipid>
                  <collapsed>false</collapsed>
                  <angle>
                    <activevideoangle>false</activevideoangle>
                    <activeaudioangle>false</activeaudioangle>
                    <clip id="clip-1"/>
                  </angle>
                  <angle>
                    <activevideoangle>true</activevideoangle>
                    <activeaudioangle>true</activeaudioangle>
                    <clip id="clip-2"/>
                  </angle>
                  <angle>
                    <activevideoangle>false</activevideoangle>
                    <activeaudioangle>false</activeaudioangle>
                    <clip id="clip-3"/>
                  </angle>
                  <angle>
                    <activevideoangle>false</activevideoangle>
                    <activeaudioangle>false</activeaudioangle>
                    <clip id="clip-4"/>
                  </angle>
                  <angle>
                    <activevideoangle>false</activevideoangle>
                    <activeaudioangle>false</activeaudioangle>
                    <clip id="clip-5"/>
                  </angle>
                  <angle>
                    <activevideoangle>false</activevideoangle>
                    <activeaudioangle>false</activeaudioangle>
                    <clip id="clip-6"/>
                  </angle>
                  <angle>
                    <activevideoangle>false</activevideoangle>
                    <activeaudioangle>false</activeaudioangle>
                    <clip id="clip-7"/>
                  </angle>
                  <angle>
                    <activevideoangle>false</activevideoangle>
                    <activeaudioangle>false</activeaudioangle>
                    <clip id="clip-8"/>
                  </angle>
                  <angle>
                    <activevideoangle>false</activevideoangle>
                    <activeaudioangle>false</activeaudioangle>
                    <clip id="clip-9"/>
                  </angle>
                  <masterclipid>clip-master</masterclipid>
                </multiclip>
              </clipitem>
              <clipitem id="cs-784">
                <duration>28</duration>
                <rate>
                  <ntsc>false</ntsc>
                  <timebase>25</timebase>
                </rate>
                <in>122265</in>
                <out>122292</out>
                <start>122265</start>
                <end>122292</end>
                <file id="src-3"/>
                <sourcetrack>
                  <mediatype>video</mediatype>
                  <trackindex>1</trackindex>
                </sourcetrack>
                <multiclip id="mcs-784">
                  <name>MCS-784</name>
                  <masterclipid>clip-master</masterclipid>
                  <collapsed>false</collapsed>
                  <angle>
                    <activevideoangle>false</activevideoangle>
                    <activeaudioangle>false</activeaudioangle>
                    <clip id="clip-1"/>
                  </angle>
                  <angle>
                    <activevideoangle>false</activevideoangle>
                    <activeaudioangle>false</activeaudioangle>
                    <clip id="clip-2"/>
                  </angle>
                  <angle>
                    <activevideoangle>true</activevideoangle>
                    <activeaudioangle>true</activeaudioangle>
                    <clip id="clip-3"/>
                  </angle>
                  <angle>
                    <activevideoangle>false</activevideoangle>
                    <activeaudioangle>false</activeaudioangle>
                    <clip id="clip-4"/>
                  </angle>
                  <angle>
                    <activevideoangle>false</activevideoangle>
                    <activeaudioangle>false</activeaudioangle>
                    <clip id="clip-5"/>
                  </angle>
                  <angle>
                    <activevideoangle>false</activevideoangle>
                    <activeaudioangle>false</activeaudioangle>
                    <clip id="clip-6"/>
                  </angle>
                  <angle>
                    <activevideoangle>false</activevideoangle>
                    <activeaudioangle>false</activeaudioangle>
                    <clip id="clip-7"/>
                  </angle>
                  <angle>
                    <activevideoangle>false</activevideoangle>
                    <activeaudioangle>false</activeaudioangle>
                    <clip id="clip-8"/>
                  </angle>
                  <angle>
                    <activevideoangle>false</activevideoangle>
                    <activeaudioangle>false</activeaudioangle>
                    <clip id="clip-9"/>
                  </angle>
                  <masterclipid>clip-master</masterclipid>
                </multiclip>
              </clipitem>
              <clipitem id="cs-785">
                <duration>50</duration>
                <rate>
                  <ntsc>false</ntsc>
                  <timebase>25</timebase>
                </rate>
                <in>122292</in>
                <out>122341</out>
                <start>122292</start>
                <end>122341</end>
                <file id="src-4"/>
                <sourcetrack>
                  <mediatype>video</mediatype>
                  <trackindex>1</trackindex>
                </sourcetrack>
                <multiclip id="mcs-785">
                  <name>MCS-785</name>
                  <masterclipid>clip-master</masterclipid>
                  <collapsed>false</collapsed>
                  <angle>
                    <activevideoangle>false</activevideoangle>
                    <activeaudioangle>false</activeaudioangle>
                    <clip id="clip-1"/>
                  </angle>
                  <angle>
                    <activevideoangle>false</activevideoangle>
                    <activeaudioangle>false</activeaudioangle>
                    <clip id="clip-2"/>
                  </angle>
                  <angle>
                    <activevideoangle>false</activevideoangle>
                    <activeaudioangle>false</activeaudioangle>
                    <clip id="clip-3"/>
                  </angle>
                  <angle>
                    <activevideoangle>true</activevideoangle>
                    <activeaudioangle>true</activeaudioangle>
                    <clip id="clip-4"/>
                  </angle>
                  <angle>
                    <activevideoangle>false</activevideoangle>
                    <activeaudioangle>false</activeaudioangle>
                    <clip id="clip-5"/>
                  </angle>
                  <angle>
                    <activevideoangle>false</activevideoangle>
                    <activeaudioangle>false</activeaudioangle>
                    <clip id="clip-6"/>
                  </angle>
                  <angle>
                    <activevideoangle>false</activevideoangle>
                    <activeaudioangle>false</activeaudioangle>
                    <clip id="clip-7"/>
                  </angle>
                  <angle>
                    <activevideoangle>false</activevideoangle>
                    <activeaudioangle>false</activeaudioangle>
                    <clip id="clip-8"/>
                  </angle>
                  <angle>
                    <activevideoangle>false</activevideoangle>
                    <activeaudioangle>false</activeaudioangle>
                    <clip id="clip-9"/>
                  </angle>
                  <masterclipid>clip-master</masterclipid>
                </multiclip>
              </clipitem>
              <clipitem id="cs-786">
                <duration>29</duration>
                <rate>
                  <ntsc>false</ntsc>
                  <timebase>25</timebase>
                </rate>
                <in>122341</in>
                <out>122369</out>
                <start>122341</start>
                <end>122369</end>
                <file id="src-2"/>
                <sourcetrack>
                  <mediatype>video</mediatype>
                  <trackindex>1</trackindex>
                </sourcetrack>
                <multiclip id="mcs-786">
                  <name>MCS-786</name>
                  <masterclipid>clip-master</masterclipid>
                  <collapsed>false</collapsed>
                  <angle>
                    <activevideoangle>false</activevideoangle>
                    <activeaudioangle>false</activeaudioangle>
                    <clip id="clip-1"/>
                  </angle>
                  <angle>
                    <activevideoangle>true</activevideoangle>
                    <activeaudioangle>true</activeaudioangle>
                    <clip id="clip-2"/>
                  </angle>
                  <angle>
                    <activevideoangle>false</activevideoangle>
                    <activeaudioangle>false</activeaudioangle>
                    <clip id="clip-3"/>
                  </angle>
                  <angle>
                    <activevideoangle>false</activevideoangle>
                    <activeaudioangle>false</activeaudioangle>
                    <clip id="clip-4"/>
                  </angle>
                  <angle>
                    <activevideoangle>false</activevideoangle>
                    <activeaudioangle>false</activeaudioangle>
                    <clip id="clip-5"/>
                  </angle>
                  <angle>
                    <activevideoangle>false</activevideoangle>
                    <activeaudioangle>false</activeaudioangle>
                    <clip id="clip-6"/>
                  </angle>
                  <angle>
                    <activevideoangle>false</activevideoangle>
                    <activeaudioangle>false</activeaudioangle>
                    <clip id="clip-7"/>
                  </angle>
                  <angle>
                    <activevideoangle>false</activevideoangle>
                    <activeaudioangle>false</activeaudioangle>
                    <clip id="clip-8"/>
                  </angle>
                  <angle>
                    <activevideoangle>false</activevideoangle>
                    <activeaudioangle>false</activeaudioangle>
                    <clip id="clip-9"/>
                  </angle>
                  <masterclipid>clip-master</masterclipid>
                </multiclip>
              </clipitem>
              <clipitem id="cs-787">
                <duration>38</duration>
                <rate>
                  <ntsc>false</ntsc>
                  <timebase>25</timebase>
                </rate>
                <in>122369</in>
                <out>122406</out>
                <start>122369</start>
                <end>122406</end>
                <file id="src-6"/>
                <sourcetrack>
                  <mediatype>video</mediatype>
                  <trackindex>1</trackindex>
                </sourcetrack>
                <multiclip id="mcs-787">
                  <name>MCS-787</name>
                  <masterclipid>clip-master</masterclipid>
                  <collapsed>false</collapsed>
                  <angle>
                    <activevideoangle>false</activevideoangle>
                    <activeaudioangle>false</activeaudioangle>
                    <clip id="clip-1"/>
                  </angle>
                  <angle>
                    <activevideoangle>false</activevideoangle>
                    <activeaudioangle>false</activeaudioangle>
                    <clip id="clip-2"/>
                  </angle>
                  <angle>
                    <activevideoangle>false</activevideoangle>
                    <activeaudioangle>false</activeaudioangle>
                    <clip id="clip-3"/>
                  </angle>
                  <angle>
                    <activevideoangle>false</activevideoangle>
                    <activeaudioangle>false</activeaudioangle>
                    <clip id="clip-4"/>
                  </angle>
                  <angle>
                    <activevideoangle>false</activevideoangle>
                    <activeaudioangle>false</activeaudioangle>
                    <clip id="clip-5"/>
                  </angle>
                  <angle>
                    <activevideoangle>true</activevideoangle>
                    <activeaudioangle>true</activeaudioangle>
                    <clip id="clip-6"/>
                  </angle>
                  <angle>
                    <activevideoangle>false</activevideoangle>
                    <activeaudioangle>false</activeaudioangle>
                    <clip id="clip-7"/>
                  </angle>
                  <angle>
                    <activevideoangle>false</activevideoangle>
                    <activeaudioangle>false</activeaudioangle>
                    <clip id="clip-8"/>
                  </angle>
                  <angle>
                    <activevideoangle>false</activevideoangle>
                    <activeaudioangle>false</activeaudioangle>
                    <clip id="clip-9"/>
                  </angle>
                  <masterclipid>clip-master</masterclipid>
                </multiclip>
              </clipitem>
              <clipitem id="cs-788">
                <duration>39</duration>
                <rate>
                  <ntsc>false</ntsc>
                  <timebase>25</timebase>
                </rate>
                <in>122406</in>
                <out>122444</out>
                <start>122406</start>
                <end>122444</end>
                <file id="src-4"/>
                <sourcetrack>
                  <mediatype>video</mediatype>
                  <trackindex>1</trackindex>
                </sourcetrack>
                <multiclip id="mcs-788">
                  <name>MCS-788</name>
                  <masterclipid>clip-master</masterclipid>
                  <collapsed>false</collapsed>
                  <angle>
                    <activevideoangle>false</activevideoangle>
                    <activeaudioangle>false</activeaudioangle>
                    <clip id="clip-1"/>
                  </angle>
                  <angle>
                    <activevideoangle>false</activevideoangle>
                    <activeaudioangle>false</activeaudioangle>
                    <clip id="clip-2"/>
                  </angle>
                  <angle>
                    <activevideoangle>false</activevideoangle>
                    <activeaudioangle>false</activeaudioangle>
                    <clip id="clip-3"/>
                  </angle>
                  <angle>
                    <activevideoangle>true</activevideoangle>
                    <activeaudioangle>true</activeaudioangle>
                    <clip id="clip-4"/>
                  </angle>
                  <angle>
                    <activevideoangle>false</activevideoangle>
                    <activeaudioangle>false</activeaudioangle>
                    <clip id="clip-5"/>
                  </angle>
                  <angle>
                    <activevideoangle>false</activevideoangle>
                    <activeaudioangle>false</activeaudioangle>
                    <clip id="clip-6"/>
                  </angle>
                  <angle>
                    <activevideoangle>false</activevideoangle>
                    <activeaudioangle>false</activeaudioangle>
                    <clip id="clip-7"/>
                  </angle>
                  <angle>
                    <activevideoangle>false</activevideoangle>
                    <activeaudioangle>false</activeaudioangle>
                    <clip id="clip-8"/>
                  </angle>
                  <angle>
                    <activevideoangle>false</activevideoangle>
                    <activeaudioangle>false</activeaudioangle>
                    <clip id="clip-9"/>
                  </angle>
                  <masterclipid>clip-master</masterclipid>
                </multiclip>
              </clipitem>
              <clipitem id="cs-789">
                <duration>77</duration>
                <rate>
                  <ntsc>false</ntsc>
                  <timebase>25</timebase>
                </rate>
                <in>122444</in>
                <out>122520</out>
                <start>122444</start>
                <end>122520</end>
                <file id="src-2"/>
                <sourcetrack>
                  <mediatype>video</mediatype>
                  <trackindex>1</trackindex>
                </sourcetrack>
                <multiclip id="mcs-789">
                  <name>MCS-789</name>
                  <masterclipid>clip-master</masterclipid>
                  <collapsed>false</collapsed>
                  <angle>
                    <activevideoangle>false</activevideoangle>
                    <activeaudioangle>false</activeaudioangle>
                    <clip id="clip-1"/>
                  </angle>
                  <angle>
                    <activevideoangle>true</activevideoangle>
                    <activeaudioangle>true</activeaudioangle>
                    <clip id="clip-2"/>
                  </angle>
                  <angle>
                    <activevideoangle>false</activevideoangle>
                    <activeaudioangle>false</activeaudioangle>
                    <clip id="clip-3"/>
                  </angle>
                  <angle>
                    <activevideoangle>false</activevideoangle>
                    <activeaudioangle>false</activeaudioangle>
                    <clip id="clip-4"/>
                  </angle>
                  <angle>
                    <activevideoangle>false</activevideoangle>
                    <activeaudioangle>false</activeaudioangle>
                    <clip id="clip-5"/>
                  </angle>
                  <angle>
                    <activevideoangle>false</activevideoangle>
                    <activeaudioangle>false</activeaudioangle>
                    <clip id="clip-6"/>
                  </angle>
                  <angle>
                    <activevideoangle>false</activevideoangle>
                    <activeaudioangle>false</activeaudioangle>
                    <clip id="clip-7"/>
                  </angle>
                  <angle>
                    <activevideoangle>false</activevideoangle>
                    <activeaudioangle>false</activeaudioangle>
                    <clip id="clip-8"/>
                  </angle>
                  <angle>
                    <activevideoangle>false</activevideoangle>
                    <activeaudioangle>false</activeaudioangle>
                    <clip id="clip-9"/>
                  </angle>
                  <masterclipid>clip-master</masterclipid>
                </multiclip>
              </clipitem>
              <clipitem id="cs-790">
                <duration>36</duration>
                <rate>
                  <ntsc>false</ntsc>
                  <timebase>25</timebase>
                </rate>
                <in>122520</in>
                <out>122555</out>
                <start>122520</start>
                <end>122555</end>
                <file id="src-3"/>
                <sourcetrack>
                  <mediatype>video</mediatype>
                  <trackindex>1</trackindex>
                </sourcetrack>
                <multiclip id="mcs-790">
                  <name>MCS-790</name>
                  <masterclipid>clip-master</masterclipid>
                  <collapsed>false</collapsed>
                  <angle>
                    <activevideoangle>false</activevideoangle>
                    <activeaudioangle>false</activeaudioangle>
                    <clip id="clip-1"/>
                  </angle>
                  <angle>
                    <activevideoangle>false</activevideoangle>
                    <activeaudioangle>false</activeaudioangle>
                    <clip id="clip-2"/>
                  </angle>
                  <angle>
                    <activevideoangle>true</activevideoangle>
                    <activeaudioangle>true</activeaudioangle>
                    <clip id="clip-3"/>
                  </angle>
                  <angle>
                    <activevideoangle>false</activevideoangle>
                    <activeaudioangle>false</activeaudioangle>
                    <clip id="clip-4"/>
                  </angle>
                  <angle>
                    <activevideoangle>false</activevideoangle>
                    <activeaudioangle>false</activeaudioangle>
                    <clip id="clip-5"/>
                  </angle>
                  <angle>
                    <activevideoangle>false</activevideoangle>
                    <activeaudioangle>false</activeaudioangle>
                    <clip id="clip-6"/>
                  </angle>
                  <angle>
                    <activevideoangle>false</activevideoangle>
                    <activeaudioangle>false</activeaudioangle>
                    <clip id="clip-7"/>
                  </angle>
                  <angle>
                    <activevideoangle>false</activevideoangle>
                    <activeaudioangle>false</activeaudioangle>
                    <clip id="clip-8"/>
                  </angle>
                  <angle>
                    <activevideoangle>false</activevideoangle>
                    <activeaudioangle>false</activeaudioangle>
                    <clip id="clip-9"/>
                  </angle>
                  <masterclipid>clip-master</masterclipid>
                </multiclip>
              </clipitem>
              <clipitem id="cs-791">
                <duration>41</duration>
                <rate>
                  <ntsc>false</ntsc>
                  <timebase>25</timebase>
                </rate>
                <in>122555</in>
                <out>122595</out>
                <start>122555</start>
                <end>122595</end>
                <file id="src-5"/>
                <sourcetrack>
                  <mediatype>video</mediatype>
                  <trackindex>1</trackindex>
                </sourcetrack>
                <multiclip id="mcs-791">
                  <name>MCS-791</name>
                  <masterclipid>clip-master</masterclipid>
                  <collapsed>false</collapsed>
                  <angle>
                    <activevideoangle>false</activevideoangle>
                    <activeaudioangle>false</activeaudioangle>
                    <clip id="clip-1"/>
                  </angle>
                  <angle>
                    <activevideoangle>false</activevideoangle>
                    <activeaudioangle>false</activeaudioangle>
                    <clip id="clip-2"/>
                  </angle>
                  <angle>
                    <activevideoangle>false</activevideoangle>
                    <activeaudioangle>false</activeaudioangle>
                    <clip id="clip-3"/>
                  </angle>
                  <angle>
                    <activevideoangle>false</activevideoangle>
                    <activeaudioangle>false</activeaudioangle>
                    <clip id="clip-4"/>
                  </angle>
                  <angle>
                    <activevideoangle>true</activevideoangle>
                    <activeaudioangle>true</activeaudioangle>
                    <clip id="clip-5"/>
                  </angle>
                  <angle>
                    <activevideoangle>false</activevideoangle>
                    <activeaudioangle>false</activeaudioangle>
                    <clip id="clip-6"/>
                  </angle>
                  <angle>
                    <activevideoangle>false</activevideoangle>
                    <activeaudioangle>false</activeaudioangle>
                    <clip id="clip-7"/>
                  </angle>
                  <angle>
                    <activevideoangle>false</activevideoangle>
                    <activeaudioangle>false</activeaudioangle>
                    <clip id="clip-8"/>
                  </angle>
                  <angle>
                    <activevideoangle>false</activevideoangle>
                    <activeaudioangle>false</activeaudioangle>
                    <clip id="clip-9"/>
                  </angle>
                  <masterclipid>clip-master</masterclipid>
                </multiclip>
              </clipitem>
              <clipitem id="cs-792">
                <duration>76</duration>
                <rate>
                  <ntsc>false</ntsc>
                  <timebase>25</timebase>
                </rate>
                <in>122595</in>
                <out>122670</out>
                <start>122595</start>
                <end>122670</end>
                <file id="src-2"/>
                <sourcetrack>
                  <mediatype>video</mediatype>
                  <trackindex>1</trackindex>
                </sourcetrack>
                <multiclip id="mcs-792">
                  <name>MCS-792</name>
                  <masterclipid>clip-master</masterclipid>
                  <collapsed>false</collapsed>
                  <angle>
                    <activevideoangle>false</activevideoangle>
                    <activeaudioangle>false</activeaudioangle>
                    <clip id="clip-1"/>
                  </angle>
                  <angle>
                    <activevideoangle>true</activevideoangle>
                    <activeaudioangle>true</activeaudioangle>
                    <clip id="clip-2"/>
                  </angle>
                  <angle>
                    <activevideoangle>false</activevideoangle>
                    <activeaudioangle>false</activeaudioangle>
                    <clip id="clip-3"/>
                  </angle>
                  <angle>
                    <activevideoangle>false</activevideoangle>
                    <activeaudioangle>false</activeaudioangle>
                    <clip id="clip-4"/>
                  </angle>
                  <angle>
                    <activevideoangle>false</activevideoangle>
                    <activeaudioangle>false</activeaudioangle>
                    <clip id="clip-5"/>
                  </angle>
                  <angle>
                    <activevideoangle>false</activevideoangle>
                    <activeaudioangle>false</activeaudioangle>
                    <clip id="clip-6"/>
                  </angle>
                  <angle>
                    <activevideoangle>false</activevideoangle>
                    <activeaudioangle>false</activeaudioangle>
                    <clip id="clip-7"/>
                  </angle>
                  <angle>
                    <activevideoangle>false</activevideoangle>
                    <activeaudioangle>false</activeaudioangle>
                    <clip id="clip-8"/>
                  </angle>
                  <angle>
                    <activevideoangle>false</activevideoangle>
                    <activeaudioangle>false</activeaudioangle>
                    <clip id="clip-9"/>
                  </angle>
                  <masterclipid>clip-master</masterclipid>
                </multiclip>
              </clipitem>
              <clipitem id="cs-793">
                <duration>49</duration>
                <rate>
                  <ntsc>false</ntsc>
                  <timebase>25</timebase>
                </rate>
                <in>122670</in>
                <out>122718</out>
                <start>122670</start>
                <end>122718</end>
                <file id="src-3"/>
                <sourcetrack>
                  <mediatype>video</mediatype>
                  <trackindex>1</trackindex>
                </sourcetrack>
                <multiclip id="mcs-793">
                  <name>MCS-793</name>
                  <masterclipid>clip-master</masterclipid>
                  <collapsed>false</collapsed>
                  <angle>
                    <activevideoangle>false</activevideoangle>
                    <activeaudioangle>false</activeaudioangle>
                    <clip id="clip-1"/>
                  </angle>
                  <angle>
                    <activevideoangle>false</activevideoangle>
                    <activeaudioangle>false</activeaudioangle>
                    <clip id="clip-2"/>
                  </angle>
                  <angle>
                    <activevideoangle>true</activevideoangle>
                    <activeaudioangle>true</activeaudioangle>
                    <clip id="clip-3"/>
                  </angle>
                  <angle>
                    <activevideoangle>false</activevideoangle>
                    <activeaudioangle>false</activeaudioangle>
                    <clip id="clip-4"/>
                  </angle>
                  <angle>
                    <activevideoangle>false</activevideoangle>
                    <activeaudioangle>false</activeaudioangle>
                    <clip id="clip-5"/>
                  </angle>
                  <angle>
                    <activevideoangle>false</activevideoangle>
                    <activeaudioangle>false</activeaudioangle>
                    <clip id="clip-6"/>
                  </angle>
                  <angle>
                    <activevideoangle>false</activevideoangle>
                    <activeaudioangle>false</activeaudioangle>
                    <clip id="clip-7"/>
                  </angle>
                  <angle>
                    <activevideoangle>false</activevideoangle>
                    <activeaudioangle>false</activeaudioangle>
                    <clip id="clip-8"/>
                  </angle>
                  <angle>
                    <activevideoangle>false</activevideoangle>
                    <activeaudioangle>false</activeaudioangle>
                    <clip id="clip-9"/>
                  </angle>
                  <masterclipid>clip-master</masterclipid>
                </multiclip>
              </clipitem>
              <clipitem id="cs-794">
                <duration>63</duration>
                <rate>
                  <ntsc>false</ntsc>
                  <timebase>25</timebase>
                </rate>
                <in>122718</in>
                <out>122780</out>
                <start>122718</start>
                <end>122780</end>
                <file id="src-4"/>
                <sourcetrack>
                  <mediatype>video</mediatype>
                  <trackindex>1</trackindex>
                </sourcetrack>
                <multiclip id="mcs-794">
                  <name>MCS-794</name>
                  <masterclipid>clip-master</masterclipid>
                  <collapsed>false</collapsed>
                  <angle>
                    <activevideoangle>false</activevideoangle>
                    <activeaudioangle>false</activeaudioangle>
                    <clip id="clip-1"/>
                  </angle>
                  <angle>
                    <activevideoangle>false</activevideoangle>
                    <activeaudioangle>false</activeaudioangle>
                    <clip id="clip-2"/>
                  </angle>
                  <angle>
                    <activevideoangle>false</activevideoangle>
                    <activeaudioangle>false</activeaudioangle>
                    <clip id="clip-3"/>
                  </angle>
                  <angle>
                    <activevideoangle>true</activevideoangle>
                    <activeaudioangle>true</activeaudioangle>
                    <clip id="clip-4"/>
                  </angle>
                  <angle>
                    <activevideoangle>false</activevideoangle>
                    <activeaudioangle>false</activeaudioangle>
                    <clip id="clip-5"/>
                  </angle>
                  <angle>
                    <activevideoangle>false</activevideoangle>
                    <activeaudioangle>false</activeaudioangle>
                    <clip id="clip-6"/>
                  </angle>
                  <angle>
                    <activevideoangle>false</activevideoangle>
                    <activeaudioangle>false</activeaudioangle>
                    <clip id="clip-7"/>
                  </angle>
                  <angle>
                    <activevideoangle>false</activevideoangle>
                    <activeaudioangle>false</activeaudioangle>
                    <clip id="clip-8"/>
                  </angle>
                  <angle>
                    <activevideoangle>false</activevideoangle>
                    <activeaudioangle>false</activeaudioangle>
                    <clip id="clip-9"/>
                  </angle>
                  <masterclipid>clip-master</masterclipid>
                </multiclip>
              </clipitem>
              <clipitem id="cs-795">
                <duration>35</duration>
                <rate>
                  <ntsc>false</ntsc>
                  <timebase>25</timebase>
                </rate>
                <in>122780</in>
                <out>122814</out>
                <start>122780</start>
                <end>122814</end>
                <file id="src-6"/>
                <sourcetrack>
                  <mediatype>video</mediatype>
                  <trackindex>1</trackindex>
                </sourcetrack>
                <multiclip id="mcs-795">
                  <name>MCS-795</name>
                  <masterclipid>clip-master</masterclipid>
                  <collapsed>false</collapsed>
                  <angle>
                    <activevideoangle>false</activevideoangle>
                    <activeaudioangle>false</activeaudioangle>
                    <clip id="clip-1"/>
                  </angle>
                  <angle>
                    <activevideoangle>false</activevideoangle>
                    <activeaudioangle>false</activeaudioangle>
                    <clip id="clip-2"/>
                  </angle>
                  <angle>
                    <activevideoangle>false</activevideoangle>
                    <activeaudioangle>false</activeaudioangle>
                    <clip id="clip-3"/>
                  </angle>
                  <angle>
                    <activevideoangle>false</activevideoangle>
                    <activeaudioangle>false</activeaudioangle>
                    <clip id="clip-4"/>
                  </angle>
                  <angle>
                    <activevideoangle>false</activevideoangle>
                    <activeaudioangle>false</activeaudioangle>
                    <clip id="clip-5"/>
                  </angle>
                  <angle>
                    <activevideoangle>true</activevideoangle>
                    <activeaudioangle>true</activeaudioangle>
                    <clip id="clip-6"/>
                  </angle>
                  <angle>
                    <activevideoangle>false</activevideoangle>
                    <activeaudioangle>false</activeaudioangle>
                    <clip id="clip-7"/>
                  </angle>
                  <angle>
                    <activevideoangle>false</activevideoangle>
                    <activeaudioangle>false</activeaudioangle>
                    <clip id="clip-8"/>
                  </angle>
                  <angle>
                    <activevideoangle>false</activevideoangle>
                    <activeaudioangle>false</activeaudioangle>
                    <clip id="clip-9"/>
                  </angle>
                  <masterclipid>clip-master</masterclipid>
                </multiclip>
              </clipitem>
              <clipitem id="cs-796">
                <duration>90</duration>
                <rate>
                  <ntsc>false</ntsc>
                  <timebase>25</timebase>
                </rate>
                <in>122814</in>
                <out>122903</out>
                <start>122814</start>
                <end>122903</end>
                <file id="src-5"/>
                <sourcetrack>
                  <mediatype>video</mediatype>
                  <trackindex>1</trackindex>
                </sourcetrack>
                <multiclip id="mcs-796">
                  <name>MCS-796</name>
                  <masterclipid>clip-master</masterclipid>
                  <collapsed>false</collapsed>
                  <angle>
                    <activevideoangle>false</activevideoangle>
                    <activeaudioangle>false</activeaudioangle>
                    <clip id="clip-1"/>
                  </angle>
                  <angle>
                    <activevideoangle>false</activevideoangle>
                    <activeaudioangle>false</activeaudioangle>
                    <clip id="clip-2"/>
                  </angle>
                  <angle>
                    <activevideoangle>false</activevideoangle>
                    <activeaudioangle>false</activeaudioangle>
                    <clip id="clip-3"/>
                  </angle>
                  <angle>
                    <activevideoangle>false</activevideoangle>
                    <activeaudioangle>false</activeaudioangle>
                    <clip id="clip-4"/>
                  </angle>
                  <angle>
                    <activevideoangle>true</activevideoangle>
                    <activeaudioangle>true</activeaudioangle>
                    <clip id="clip-5"/>
                  </angle>
                  <angle>
                    <activevideoangle>false</activevideoangle>
                    <activeaudioangle>false</activeaudioangle>
                    <clip id="clip-6"/>
                  </angle>
                  <angle>
                    <activevideoangle>false</activevideoangle>
                    <activeaudioangle>false</activeaudioangle>
                    <clip id="clip-7"/>
                  </angle>
                  <angle>
                    <activevideoangle>false</activevideoangle>
                    <activeaudioangle>false</activeaudioangle>
                    <clip id="clip-8"/>
                  </angle>
                  <angle>
                    <activevideoangle>false</activevideoangle>
                    <activeaudioangle>false</activeaudioangle>
                    <clip id="clip-9"/>
                  </angle>
                  <masterclipid>clip-master</masterclipid>
                </multiclip>
              </clipitem>
              <clipitem id="cs-797">
                <duration>56</duration>
                <rate>
                  <ntsc>false</ntsc>
                  <timebase>25</timebase>
                </rate>
                <in>122903</in>
                <out>122958</out>
                <start>122903</start>
                <end>122958</end>
                <file id="src-2"/>
                <sourcetrack>
                  <mediatype>video</mediatype>
                  <trackindex>1</trackindex>
                </sourcetrack>
                <multiclip id="mcs-797">
                  <name>MCS-797</name>
                  <masterclipid>clip-master</masterclipid>
                  <collapsed>false</collapsed>
                  <angle>
                    <activevideoangle>false</activevideoangle>
                    <activeaudioangle>false</activeaudioangle>
                    <clip id="clip-1"/>
                  </angle>
                  <angle>
                    <activevideoangle>true</activevideoangle>
                    <activeaudioangle>true</activeaudioangle>
                    <clip id="clip-2"/>
                  </angle>
                  <angle>
                    <activevideoangle>false</activevideoangle>
                    <activeaudioangle>false</activeaudioangle>
                    <clip id="clip-3"/>
                  </angle>
                  <angle>
                    <activevideoangle>false</activevideoangle>
                    <activeaudioangle>false</activeaudioangle>
                    <clip id="clip-4"/>
                  </angle>
                  <angle>
                    <activevideoangle>false</activevideoangle>
                    <activeaudioangle>false</activeaudioangle>
                    <clip id="clip-5"/>
                  </angle>
                  <angle>
                    <activevideoangle>false</activevideoangle>
                    <activeaudioangle>false</activeaudioangle>
                    <clip id="clip-6"/>
                  </angle>
                  <angle>
                    <activevideoangle>false</activevideoangle>
                    <activeaudioangle>false</activeaudioangle>
                    <clip id="clip-7"/>
                  </angle>
                  <angle>
                    <activevideoangle>false</activevideoangle>
                    <activeaudioangle>false</activeaudioangle>
                    <clip id="clip-8"/>
                  </angle>
                  <angle>
                    <activevideoangle>false</activevideoangle>
                    <activeaudioangle>false</activeaudioangle>
                    <clip id="clip-9"/>
                  </angle>
                  <masterclipid>clip-master</masterclipid>
                </multiclip>
              </clipitem>
              <clipitem id="cs-798">
                <duration>173</duration>
                <rate>
                  <ntsc>false</ntsc>
                  <timebase>25</timebase>
                </rate>
                <in>122958</in>
                <out>123130</out>
                <start>122958</start>
                <end>123130</end>
                <file id="src-3"/>
                <sourcetrack>
                  <mediatype>video</mediatype>
                  <trackindex>1</trackindex>
                </sourcetrack>
                <multiclip id="mcs-798">
                  <name>MCS-798</name>
                  <masterclipid>clip-master</masterclipid>
                  <collapsed>false</collapsed>
                  <angle>
                    <activevideoangle>false</activevideoangle>
                    <activeaudioangle>false</activeaudioangle>
                    <clip id="clip-1"/>
                  </angle>
                  <angle>
                    <activevideoangle>false</activevideoangle>
                    <activeaudioangle>false</activeaudioangle>
                    <clip id="clip-2"/>
                  </angle>
                  <angle>
                    <activevideoangle>true</activevideoangle>
                    <activeaudioangle>true</activeaudioangle>
                    <clip id="clip-3"/>
                  </angle>
                  <angle>
                    <activevideoangle>false</activevideoangle>
                    <activeaudioangle>false</activeaudioangle>
                    <clip id="clip-4"/>
                  </angle>
                  <angle>
                    <activevideoangle>false</activevideoangle>
                    <activeaudioangle>false</activeaudioangle>
                    <clip id="clip-5"/>
                  </angle>
                  <angle>
                    <activevideoangle>false</activevideoangle>
                    <activeaudioangle>false</activeaudioangle>
                    <clip id="clip-6"/>
                  </angle>
                  <angle>
                    <activevideoangle>false</activevideoangle>
                    <activeaudioangle>false</activeaudioangle>
                    <clip id="clip-7"/>
                  </angle>
                  <angle>
                    <activevideoangle>false</activevideoangle>
                    <activeaudioangle>false</activeaudioangle>
                    <clip id="clip-8"/>
                  </angle>
                  <angle>
                    <activevideoangle>false</activevideoangle>
                    <activeaudioangle>false</activeaudioangle>
                    <clip id="clip-9"/>
                  </angle>
                  <masterclipid>clip-master</masterclipid>
                </multiclip>
              </clipitem>
              <clipitem id="cs-799">
                <duration>312</duration>
                <rate>
                  <ntsc>false</ntsc>
                  <timebase>25</timebase>
                </rate>
                <in>123130</in>
                <out>123441</out>
                <start>123130</start>
                <end>123441</end>
                <file id="src-2"/>
                <sourcetrack>
                  <mediatype>video</mediatype>
                  <trackindex>1</trackindex>
                </sourcetrack>
                <multiclip id="mcs-799">
                  <name>MCS-799</name>
                  <masterclipid>clip-master</masterclipid>
                  <collapsed>false</collapsed>
                  <angle>
                    <activevideoangle>false</activevideoangle>
                    <activeaudioangle>false</activeaudioangle>
                    <clip id="clip-1"/>
                  </angle>
                  <angle>
                    <activevideoangle>true</activevideoangle>
                    <activeaudioangle>true</activeaudioangle>
                    <clip id="clip-2"/>
                  </angle>
                  <angle>
                    <activevideoangle>false</activevideoangle>
                    <activeaudioangle>false</activeaudioangle>
                    <clip id="clip-3"/>
                  </angle>
                  <angle>
                    <activevideoangle>false</activevideoangle>
                    <activeaudioangle>false</activeaudioangle>
                    <clip id="clip-4"/>
                  </angle>
                  <angle>
                    <activevideoangle>false</activevideoangle>
                    <activeaudioangle>false</activeaudioangle>
                    <clip id="clip-5"/>
                  </angle>
                  <angle>
                    <activevideoangle>false</activevideoangle>
                    <activeaudioangle>false</activeaudioangle>
                    <clip id="clip-6"/>
                  </angle>
                  <angle>
                    <activevideoangle>false</activevideoangle>
                    <activeaudioangle>false</activeaudioangle>
                    <clip id="clip-7"/>
                  </angle>
                  <angle>
                    <activevideoangle>false</activevideoangle>
                    <activeaudioangle>false</activeaudioangle>
                    <clip id="clip-8"/>
                  </angle>
                  <angle>
                    <activevideoangle>false</activevideoangle>
                    <activeaudioangle>false</activeaudioangle>
                    <clip id="clip-9"/>
                  </angle>
                  <masterclipid>clip-master</masterclipid>
                </multiclip>
              </clipitem>
              <clipitem id="cs-800">
                <duration>176</duration>
                <rate>
                  <ntsc>false</ntsc>
                  <timebase>25</timebase>
                </rate>
                <in>123441</in>
                <out>123616</out>
                <start>123441</start>
                <end>123616</end>
                <file id="src-1"/>
                <sourcetrack>
                  <mediatype>video</mediatype>
                  <trackindex>1</trackindex>
                </sourcetrack>
                <multiclip id="mcs-800">
                  <name>MCS-800</name>
                  <masterclipid>clip-master</masterclipid>
                  <collapsed>false</collapsed>
                  <angle>
                    <activevideoangle>true</activevideoangle>
                    <activeaudioangle>true</activeaudioangle>
                    <clip id="clip-1"/>
                  </angle>
                  <angle>
                    <activevideoangle>false</activevideoangle>
                    <activeaudioangle>false</activeaudioangle>
                    <clip id="clip-2"/>
                  </angle>
                  <angle>
                    <activevideoangle>false</activevideoangle>
                    <activeaudioangle>false</activeaudioangle>
                    <clip id="clip-3"/>
                  </angle>
                  <angle>
                    <activevideoangle>false</activevideoangle>
                    <activeaudioangle>false</activeaudioangle>
                    <clip id="clip-4"/>
                  </angle>
                  <angle>
                    <activevideoangle>false</activevideoangle>
                    <activeaudioangle>false</activeaudioangle>
                    <clip id="clip-5"/>
                  </angle>
                  <angle>
                    <activevideoangle>false</activevideoangle>
                    <activeaudioangle>false</activeaudioangle>
                    <clip id="clip-6"/>
                  </angle>
                  <angle>
                    <activevideoangle>false</activevideoangle>
                    <activeaudioangle>false</activeaudioangle>
                    <clip id="clip-7"/>
                  </angle>
                  <angle>
                    <activevideoangle>false</activevideoangle>
                    <activeaudioangle>false</activeaudioangle>
                    <clip id="clip-8"/>
                  </angle>
                  <angle>
                    <activevideoangle>false</activevideoangle>
                    <activeaudioangle>false</activeaudioangle>
                    <clip id="clip-9"/>
                  </angle>
                  <masterclipid>clip-master</masterclipid>
                </multiclip>
              </clipitem>
              <clipitem id="cs-801">
                <duration>198</duration>
                <rate>
                  <ntsc>false</ntsc>
                  <timebase>25</timebase>
                </rate>
                <in>123616</in>
                <out>123813</out>
                <start>123616</start>
                <end>123813</end>
                <file id="src-4"/>
                <sourcetrack>
                  <mediatype>video</mediatype>
                  <trackindex>1</trackindex>
                </sourcetrack>
                <multiclip id="mcs-801">
                  <name>MCS-801</name>
                  <masterclipid>clip-master</masterclipid>
                  <collapsed>false</collapsed>
                  <angle>
                    <activevideoangle>false</activevideoangle>
                    <activeaudioangle>false</activeaudioangle>
                    <clip id="clip-1"/>
                  </angle>
                  <angle>
                    <activevideoangle>false</activevideoangle>
                    <activeaudioangle>false</activeaudioangle>
                    <clip id="clip-2"/>
                  </angle>
                  <angle>
                    <activevideoangle>false</activevideoangle>
                    <activeaudioangle>false</activeaudioangle>
                    <clip id="clip-3"/>
                  </angle>
                  <angle>
                    <activevideoangle>true</activevideoangle>
                    <activeaudioangle>true</activeaudioangle>
                    <clip id="clip-4"/>
                  </angle>
                  <angle>
                    <activevideoangle>false</activevideoangle>
                    <activeaudioangle>false</activeaudioangle>
                    <clip id="clip-5"/>
                  </angle>
                  <angle>
                    <activevideoangle>false</activevideoangle>
                    <activeaudioangle>false</activeaudioangle>
                    <clip id="clip-6"/>
                  </angle>
                  <angle>
                    <activevideoangle>false</activevideoangle>
                    <activeaudioangle>false</activeaudioangle>
                    <clip id="clip-7"/>
                  </angle>
                  <angle>
                    <activevideoangle>false</activevideoangle>
                    <activeaudioangle>false</activeaudioangle>
                    <clip id="clip-8"/>
                  </angle>
                  <angle>
                    <activevideoangle>false</activevideoangle>
                    <activeaudioangle>false</activeaudioangle>
                    <clip id="clip-9"/>
                  </angle>
                  <masterclipid>clip-master</masterclipid>
                </multiclip>
              </clipitem>
              <clipitem id="cs-802">
                <duration>78</duration>
                <rate>
                  <ntsc>false</ntsc>
                  <timebase>25</timebase>
                </rate>
                <in>123813</in>
                <out>123890</out>
                <start>123813</start>
                <end>123890</end>
                <file id="src-2"/>
                <sourcetrack>
                  <mediatype>video</mediatype>
                  <trackindex>1</trackindex>
                </sourcetrack>
                <multiclip id="mcs-802">
                  <name>MCS-802</name>
                  <masterclipid>clip-master</masterclipid>
                  <collapsed>false</collapsed>
                  <angle>
                    <activevideoangle>false</activevideoangle>
                    <activeaudioangle>false</activeaudioangle>
                    <clip id="clip-1"/>
                  </angle>
                  <angle>
                    <activevideoangle>true</activevideoangle>
                    <activeaudioangle>true</activeaudioangle>
                    <clip id="clip-2"/>
                  </angle>
                  <angle>
                    <activevideoangle>false</activevideoangle>
                    <activeaudioangle>false</activeaudioangle>
                    <clip id="clip-3"/>
                  </angle>
                  <angle>
                    <activevideoangle>false</activevideoangle>
                    <activeaudioangle>false</activeaudioangle>
                    <clip id="clip-4"/>
                  </angle>
                  <angle>
                    <activevideoangle>false</activevideoangle>
                    <activeaudioangle>false</activeaudioangle>
                    <clip id="clip-5"/>
                  </angle>
                  <angle>
                    <activevideoangle>false</activevideoangle>
                    <activeaudioangle>false</activeaudioangle>
                    <clip id="clip-6"/>
                  </angle>
                  <angle>
                    <activevideoangle>false</activevideoangle>
                    <activeaudioangle>false</activeaudioangle>
                    <clip id="clip-7"/>
                  </angle>
                  <angle>
                    <activevideoangle>false</activevideoangle>
                    <activeaudioangle>false</activeaudioangle>
                    <clip id="clip-8"/>
                  </angle>
                  <angle>
                    <activevideoangle>false</activevideoangle>
                    <activeaudioangle>false</activeaudioangle>
                    <clip id="clip-9"/>
                  </angle>
                  <masterclipid>clip-master</masterclipid>
                </multiclip>
              </clipitem>
              <clipitem id="cs-803">
                <duration>138</duration>
                <rate>
                  <ntsc>false</ntsc>
                  <timebase>25</timebase>
                </rate>
                <in>123890</in>
                <out>124027</out>
                <start>123890</start>
                <end>124027</end>
                <file id="src-3"/>
                <sourcetrack>
                  <mediatype>video</mediatype>
                  <trackindex>1</trackindex>
                </sourcetrack>
                <multiclip id="mcs-803">
                  <name>MCS-803</name>
                  <masterclipid>clip-master</masterclipid>
                  <collapsed>false</collapsed>
                  <angle>
                    <activevideoangle>false</activevideoangle>
                    <activeaudioangle>false</activeaudioangle>
                    <clip id="clip-1"/>
                  </angle>
                  <angle>
                    <activevideoangle>false</activevideoangle>
                    <activeaudioangle>false</activeaudioangle>
                    <clip id="clip-2"/>
                  </angle>
                  <angle>
                    <activevideoangle>true</activevideoangle>
                    <activeaudioangle>true</activeaudioangle>
                    <clip id="clip-3"/>
                  </angle>
                  <angle>
                    <activevideoangle>false</activevideoangle>
                    <activeaudioangle>false</activeaudioangle>
                    <clip id="clip-4"/>
                  </angle>
                  <angle>
                    <activevideoangle>false</activevideoangle>
                    <activeaudioangle>false</activeaudioangle>
                    <clip id="clip-5"/>
                  </angle>
                  <angle>
                    <activevideoangle>false</activevideoangle>
                    <activeaudioangle>false</activeaudioangle>
                    <clip id="clip-6"/>
                  </angle>
                  <angle>
                    <activevideoangle>false</activevideoangle>
                    <activeaudioangle>false</activeaudioangle>
                    <clip id="clip-7"/>
                  </angle>
                  <angle>
                    <activevideoangle>false</activevideoangle>
                    <activeaudioangle>false</activeaudioangle>
                    <clip id="clip-8"/>
                  </angle>
                  <angle>
                    <activevideoangle>false</activevideoangle>
                    <activeaudioangle>false</activeaudioangle>
                    <clip id="clip-9"/>
                  </angle>
                  <masterclipid>clip-master</masterclipid>
                </multiclip>
              </clipitem>
              <clipitem id="cs-804">
                <duration>95</duration>
                <rate>
                  <ntsc>false</ntsc>
                  <timebase>25</timebase>
                </rate>
                <in>124027</in>
                <out>124121</out>
                <start>124027</start>
                <end>124121</end>
                <file id="src-5"/>
                <sourcetrack>
                  <mediatype>video</mediatype>
                  <trackindex>1</trackindex>
                </sourcetrack>
                <multiclip id="mcs-804">
                  <name>MCS-804</name>
                  <masterclipid>clip-master</masterclipid>
                  <collapsed>false</collapsed>
                  <angle>
                    <activevideoangle>false</activevideoangle>
                    <activeaudioangle>false</activeaudioangle>
                    <clip id="clip-1"/>
                  </angle>
                  <angle>
                    <activevideoangle>false</activevideoangle>
                    <activeaudioangle>false</activeaudioangle>
                    <clip id="clip-2"/>
                  </angle>
                  <angle>
                    <activevideoangle>false</activevideoangle>
                    <activeaudioangle>false</activeaudioangle>
                    <clip id="clip-3"/>
                  </angle>
                  <angle>
                    <activevideoangle>false</activevideoangle>
                    <activeaudioangle>false</activeaudioangle>
                    <clip id="clip-4"/>
                  </angle>
                  <angle>
                    <activevideoangle>true</activevideoangle>
                    <activeaudioangle>true</activeaudioangle>
                    <clip id="clip-5"/>
                  </angle>
                  <angle>
                    <activevideoangle>false</activevideoangle>
                    <activeaudioangle>false</activeaudioangle>
                    <clip id="clip-6"/>
                  </angle>
                  <angle>
                    <activevideoangle>false</activevideoangle>
                    <activeaudioangle>false</activeaudioangle>
                    <clip id="clip-7"/>
                  </angle>
                  <angle>
                    <activevideoangle>false</activevideoangle>
                    <activeaudioangle>false</activeaudioangle>
                    <clip id="clip-8"/>
                  </angle>
                  <angle>
                    <activevideoangle>false</activevideoangle>
                    <activeaudioangle>false</activeaudioangle>
                    <clip id="clip-9"/>
                  </angle>
                  <masterclipid>clip-master</masterclipid>
                </multiclip>
              </clipitem>
              <clipitem id="cs-805">
                <duration>143</duration>
                <rate>
                  <ntsc>false</ntsc>
                  <timebase>25</timebase>
                </rate>
                <in>124121</in>
                <out>124263</out>
                <start>124121</start>
                <end>124263</end>
                <file id="src-6"/>
                <sourcetrack>
                  <mediatype>video</mediatype>
                  <trackindex>1</trackindex>
                </sourcetrack>
                <multiclip id="mcs-805">
                  <name>MCS-805</name>
                  <masterclipid>clip-master</masterclipid>
                  <collapsed>false</collapsed>
                  <angle>
                    <activevideoangle>false</activevideoangle>
                    <activeaudioangle>false</activeaudioangle>
                    <clip id="clip-1"/>
                  </angle>
                  <angle>
                    <activevideoangle>false</activevideoangle>
                    <activeaudioangle>false</activeaudioangle>
                    <clip id="clip-2"/>
                  </angle>
                  <angle>
                    <activevideoangle>false</activevideoangle>
                    <activeaudioangle>false</activeaudioangle>
                    <clip id="clip-3"/>
                  </angle>
                  <angle>
                    <activevideoangle>false</activevideoangle>
                    <activeaudioangle>false</activeaudioangle>
                    <clip id="clip-4"/>
                  </angle>
                  <angle>
                    <activevideoangle>false</activevideoangle>
                    <activeaudioangle>false</activeaudioangle>
                    <clip id="clip-5"/>
                  </angle>
                  <angle>
                    <activevideoangle>true</activevideoangle>
                    <activeaudioangle>true</activeaudioangle>
                    <clip id="clip-6"/>
                  </angle>
                  <angle>
                    <activevideoangle>false</activevideoangle>
                    <activeaudioangle>false</activeaudioangle>
                    <clip id="clip-7"/>
                  </angle>
                  <angle>
                    <activevideoangle>false</activevideoangle>
                    <activeaudioangle>false</activeaudioangle>
                    <clip id="clip-8"/>
                  </angle>
                  <angle>
                    <activevideoangle>false</activevideoangle>
                    <activeaudioangle>false</activeaudioangle>
                    <clip id="clip-9"/>
                  </angle>
                  <masterclipid>clip-master</masterclipid>
                </multiclip>
              </clipitem>
              <clipitem id="cs-806">
                <duration>432</duration>
                <rate>
                  <ntsc>false</ntsc>
                  <timebase>25</timebase>
                </rate>
                <in>124263</in>
                <out>124694</out>
                <start>124263</start>
                <end>124694</end>
                <file id="src-2"/>
                <sourcetrack>
                  <mediatype>video</mediatype>
                  <trackindex>1</trackindex>
                </sourcetrack>
                <multiclip id="mcs-806">
                  <name>MCS-806</name>
                  <masterclipid>clip-master</masterclipid>
                  <collapsed>false</collapsed>
                  <angle>
                    <activevideoangle>false</activevideoangle>
                    <activeaudioangle>false</activeaudioangle>
                    <clip id="clip-1"/>
                  </angle>
                  <angle>
                    <activevideoangle>true</activevideoangle>
                    <activeaudioangle>true</activeaudioangle>
                    <clip id="clip-2"/>
                  </angle>
                  <angle>
                    <activevideoangle>false</activevideoangle>
                    <activeaudioangle>false</activeaudioangle>
                    <clip id="clip-3"/>
                  </angle>
                  <angle>
                    <activevideoangle>false</activevideoangle>
                    <activeaudioangle>false</activeaudioangle>
                    <clip id="clip-4"/>
                  </angle>
                  <angle>
                    <activevideoangle>false</activevideoangle>
                    <activeaudioangle>false</activeaudioangle>
                    <clip id="clip-5"/>
                  </angle>
                  <angle>
                    <activevideoangle>false</activevideoangle>
                    <activeaudioangle>false</activeaudioangle>
                    <clip id="clip-6"/>
                  </angle>
                  <angle>
                    <activevideoangle>false</activevideoangle>
                    <activeaudioangle>false</activeaudioangle>
                    <clip id="clip-7"/>
                  </angle>
                  <angle>
                    <activevideoangle>false</activevideoangle>
                    <activeaudioangle>false</activeaudioangle>
                    <clip id="clip-8"/>
                  </angle>
                  <angle>
                    <activevideoangle>false</activevideoangle>
                    <activeaudioangle>false</activeaudioangle>
                    <clip id="clip-9"/>
                  </angle>
                  <masterclipid>clip-master</masterclipid>
                </multiclip>
              </clipitem>
              <clipitem id="cs-807">
                <duration>131</duration>
                <rate>
                  <ntsc>false</ntsc>
                  <timebase>25</timebase>
                </rate>
                <in>124694</in>
                <out>124824</out>
                <start>124694</start>
                <end>124824</end>
                <file id="src-1"/>
                <sourcetrack>
                  <mediatype>video</mediatype>
                  <trackindex>1</trackindex>
                </sourcetrack>
                <multiclip id="mcs-807">
                  <name>MCS-807</name>
                  <masterclipid>clip-master</masterclipid>
                  <collapsed>false</collapsed>
                  <angle>
                    <activevideoangle>true</activevideoangle>
                    <activeaudioangle>true</activeaudioangle>
                    <clip id="clip-1"/>
                  </angle>
                  <angle>
                    <activevideoangle>false</activevideoangle>
                    <activeaudioangle>false</activeaudioangle>
                    <clip id="clip-2"/>
                  </angle>
                  <angle>
                    <activevideoangle>false</activevideoangle>
                    <activeaudioangle>false</activeaudioangle>
                    <clip id="clip-3"/>
                  </angle>
                  <angle>
                    <activevideoangle>false</activevideoangle>
                    <activeaudioangle>false</activeaudioangle>
                    <clip id="clip-4"/>
                  </angle>
                  <angle>
                    <activevideoangle>false</activevideoangle>
                    <activeaudioangle>false</activeaudioangle>
                    <clip id="clip-5"/>
                  </angle>
                  <angle>
                    <activevideoangle>false</activevideoangle>
                    <activeaudioangle>false</activeaudioangle>
                    <clip id="clip-6"/>
                  </angle>
                  <angle>
                    <activevideoangle>false</activevideoangle>
                    <activeaudioangle>false</activeaudioangle>
                    <clip id="clip-7"/>
                  </angle>
                  <angle>
                    <activevideoangle>false</activevideoangle>
                    <activeaudioangle>false</activeaudioangle>
                    <clip id="clip-8"/>
                  </angle>
                  <angle>
                    <activevideoangle>false</activevideoangle>
                    <activeaudioangle>false</activeaudioangle>
                    <clip id="clip-9"/>
                  </angle>
                  <masterclipid>clip-master</masterclipid>
                </multiclip>
              </clipitem>
              <clipitem id="cs-808">
                <duration>53</duration>
                <rate>
                  <ntsc>false</ntsc>
                  <timebase>25</timebase>
                </rate>
                <in>124824</in>
                <out>124876</out>
                <start>124824</start>
                <end>124876</end>
                <file id="src-5"/>
                <sourcetrack>
                  <mediatype>video</mediatype>
                  <trackindex>1</trackindex>
                </sourcetrack>
                <multiclip id="mcs-808">
                  <name>MCS-808</name>
                  <masterclipid>clip-master</masterclipid>
                  <collapsed>false</collapsed>
                  <angle>
                    <activevideoangle>false</activevideoangle>
                    <activeaudioangle>false</activeaudioangle>
                    <clip id="clip-1"/>
                  </angle>
                  <angle>
                    <activevideoangle>false</activevideoangle>
                    <activeaudioangle>false</activeaudioangle>
                    <clip id="clip-2"/>
                  </angle>
                  <angle>
                    <activevideoangle>false</activevideoangle>
                    <activeaudioangle>false</activeaudioangle>
                    <clip id="clip-3"/>
                  </angle>
                  <angle>
                    <activevideoangle>false</activevideoangle>
                    <activeaudioangle>false</activeaudioangle>
                    <clip id="clip-4"/>
                  </angle>
                  <angle>
                    <activevideoangle>true</activevideoangle>
                    <activeaudioangle>true</activeaudioangle>
                    <clip id="clip-5"/>
                  </angle>
                  <angle>
                    <activevideoangle>false</activevideoangle>
                    <activeaudioangle>false</activeaudioangle>
                    <clip id="clip-6"/>
                  </angle>
                  <angle>
                    <activevideoangle>false</activevideoangle>
                    <activeaudioangle>false</activeaudioangle>
                    <clip id="clip-7"/>
                  </angle>
                  <angle>
                    <activevideoangle>false</activevideoangle>
                    <activeaudioangle>false</activeaudioangle>
                    <clip id="clip-8"/>
                  </angle>
                  <angle>
                    <activevideoangle>false</activevideoangle>
                    <activeaudioangle>false</activeaudioangle>
                    <clip id="clip-9"/>
                  </angle>
                  <masterclipid>clip-master</masterclipid>
                </multiclip>
              </clipitem>
              <clipitem id="cs-809">
                <duration>76</duration>
                <rate>
                  <ntsc>false</ntsc>
                  <timebase>25</timebase>
                </rate>
                <in>124876</in>
                <out>124951</out>
                <start>124876</start>
                <end>124951</end>
                <file id="src-4"/>
                <sourcetrack>
                  <mediatype>video</mediatype>
                  <trackindex>1</trackindex>
                </sourcetrack>
                <multiclip id="mcs-809">
                  <name>MCS-809</name>
                  <masterclipid>clip-master</masterclipid>
                  <collapsed>false</collapsed>
                  <angle>
                    <activevideoangle>false</activevideoangle>
                    <activeaudioangle>false</activeaudioangle>
                    <clip id="clip-1"/>
                  </angle>
                  <angle>
                    <activevideoangle>false</activevideoangle>
                    <activeaudioangle>false</activeaudioangle>
                    <clip id="clip-2"/>
                  </angle>
                  <angle>
                    <activevideoangle>false</activevideoangle>
                    <activeaudioangle>false</activeaudioangle>
                    <clip id="clip-3"/>
                  </angle>
                  <angle>
                    <activevideoangle>true</activevideoangle>
                    <activeaudioangle>true</activeaudioangle>
                    <clip id="clip-4"/>
                  </angle>
                  <angle>
                    <activevideoangle>false</activevideoangle>
                    <activeaudioangle>false</activeaudioangle>
                    <clip id="clip-5"/>
                  </angle>
                  <angle>
                    <activevideoangle>false</activevideoangle>
                    <activeaudioangle>false</activeaudioangle>
                    <clip id="clip-6"/>
                  </angle>
                  <angle>
                    <activevideoangle>false</activevideoangle>
                    <activeaudioangle>false</activeaudioangle>
                    <clip id="clip-7"/>
                  </angle>
                  <angle>
                    <activevideoangle>false</activevideoangle>
                    <activeaudioangle>false</activeaudioangle>
                    <clip id="clip-8"/>
                  </angle>
                  <angle>
                    <activevideoangle>false</activevideoangle>
                    <activeaudioangle>false</activeaudioangle>
                    <clip id="clip-9"/>
                  </angle>
                  <masterclipid>clip-master</masterclipid>
                </multiclip>
              </clipitem>
              <clipitem id="cs-810">
                <duration>59</duration>
                <rate>
                  <ntsc>false</ntsc>
                  <timebase>25</timebase>
                </rate>
                <in>124951</in>
                <out>125009</out>
                <start>124951</start>
                <end>125009</end>
                <file id="src-6"/>
                <sourcetrack>
                  <mediatype>video</mediatype>
                  <trackindex>1</trackindex>
                </sourcetrack>
                <multiclip id="mcs-810">
                  <name>MCS-810</name>
                  <masterclipid>clip-master</masterclipid>
                  <collapsed>false</collapsed>
                  <angle>
                    <activevideoangle>false</activevideoangle>
                    <activeaudioangle>false</activeaudioangle>
                    <clip id="clip-1"/>
                  </angle>
                  <angle>
                    <activevideoangle>false</activevideoangle>
                    <activeaudioangle>false</activeaudioangle>
                    <clip id="clip-2"/>
                  </angle>
                  <angle>
                    <activevideoangle>false</activevideoangle>
                    <activeaudioangle>false</activeaudioangle>
                    <clip id="clip-3"/>
                  </angle>
                  <angle>
                    <activevideoangle>false</activevideoangle>
                    <activeaudioangle>false</activeaudioangle>
                    <clip id="clip-4"/>
                  </angle>
                  <angle>
                    <activevideoangle>false</activevideoangle>
                    <activeaudioangle>false</activeaudioangle>
                    <clip id="clip-5"/>
                  </angle>
                  <angle>
                    <activevideoangle>true</activevideoangle>
                    <activeaudioangle>true</activeaudioangle>
                    <clip id="clip-6"/>
                  </angle>
                  <angle>
                    <activevideoangle>false</activevideoangle>
                    <activeaudioangle>false</activeaudioangle>
                    <clip id="clip-7"/>
                  </angle>
                  <angle>
                    <activevideoangle>false</activevideoangle>
                    <activeaudioangle>false</activeaudioangle>
                    <clip id="clip-8"/>
                  </angle>
                  <angle>
                    <activevideoangle>false</activevideoangle>
                    <activeaudioangle>false</activeaudioangle>
                    <clip id="clip-9"/>
                  </angle>
                  <masterclipid>clip-master</masterclipid>
                </multiclip>
              </clipitem>
              <clipitem id="cs-811">
                <duration>317</duration>
                <rate>
                  <ntsc>false</ntsc>
                  <timebase>25</timebase>
                </rate>
                <in>125009</in>
                <out>125325</out>
                <start>125009</start>
                <end>125325</end>
                <file id="src-2"/>
                <sourcetrack>
                  <mediatype>video</mediatype>
                  <trackindex>1</trackindex>
                </sourcetrack>
                <multiclip id="mcs-811">
                  <name>MCS-811</name>
                  <masterclipid>clip-master</masterclipid>
                  <collapsed>false</collapsed>
                  <angle>
                    <activevideoangle>false</activevideoangle>
                    <activeaudioangle>false</activeaudioangle>
                    <clip id="clip-1"/>
                  </angle>
                  <angle>
                    <activevideoangle>true</activevideoangle>
                    <activeaudioangle>true</activeaudioangle>
                    <clip id="clip-2"/>
                  </angle>
                  <angle>
                    <activevideoangle>false</activevideoangle>
                    <activeaudioangle>false</activeaudioangle>
                    <clip id="clip-3"/>
                  </angle>
                  <angle>
                    <activevideoangle>false</activevideoangle>
                    <activeaudioangle>false</activeaudioangle>
                    <clip id="clip-4"/>
                  </angle>
                  <angle>
                    <activevideoangle>false</activevideoangle>
                    <activeaudioangle>false</activeaudioangle>
                    <clip id="clip-5"/>
                  </angle>
                  <angle>
                    <activevideoangle>false</activevideoangle>
                    <activeaudioangle>false</activeaudioangle>
                    <clip id="clip-6"/>
                  </angle>
                  <angle>
                    <activevideoangle>false</activevideoangle>
                    <activeaudioangle>false</activeaudioangle>
                    <clip id="clip-7"/>
                  </angle>
                  <angle>
                    <activevideoangle>false</activevideoangle>
                    <activeaudioangle>false</activeaudioangle>
                    <clip id="clip-8"/>
                  </angle>
                  <angle>
                    <activevideoangle>false</activevideoangle>
                    <activeaudioangle>false</activeaudioangle>
                    <clip id="clip-9"/>
                  </angle>
                  <masterclipid>clip-master</masterclipid>
                </multiclip>
              </clipitem>
              <clipitem id="cs-812">
                <duration>225</duration>
                <rate>
                  <ntsc>false</ntsc>
                  <timebase>25</timebase>
                </rate>
                <in>125325</in>
                <out>125549</out>
                <start>125325</start>
                <end>125549</end>
                <file id="src-1"/>
                <sourcetrack>
                  <mediatype>video</mediatype>
                  <trackindex>1</trackindex>
                </sourcetrack>
                <multiclip id="mcs-812">
                  <name>MCS-812</name>
                  <masterclipid>clip-master</masterclipid>
                  <collapsed>false</collapsed>
                  <angle>
                    <activevideoangle>true</activevideoangle>
                    <activeaudioangle>true</activeaudioangle>
                    <clip id="clip-1"/>
                  </angle>
                  <angle>
                    <activevideoangle>false</activevideoangle>
                    <activeaudioangle>false</activeaudioangle>
                    <clip id="clip-2"/>
                  </angle>
                  <angle>
                    <activevideoangle>false</activevideoangle>
                    <activeaudioangle>false</activeaudioangle>
                    <clip id="clip-3"/>
                  </angle>
                  <angle>
                    <activevideoangle>false</activevideoangle>
                    <activeaudioangle>false</activeaudioangle>
                    <clip id="clip-4"/>
                  </angle>
                  <angle>
                    <activevideoangle>false</activevideoangle>
                    <activeaudioangle>false</activeaudioangle>
                    <clip id="clip-5"/>
                  </angle>
                  <angle>
                    <activevideoangle>false</activevideoangle>
                    <activeaudioangle>false</activeaudioangle>
                    <clip id="clip-6"/>
                  </angle>
                  <angle>
                    <activevideoangle>false</activevideoangle>
                    <activeaudioangle>false</activeaudioangle>
                    <clip id="clip-7"/>
                  </angle>
                  <angle>
                    <activevideoangle>false</activevideoangle>
                    <activeaudioangle>false</activeaudioangle>
                    <clip id="clip-8"/>
                  </angle>
                  <angle>
                    <activevideoangle>false</activevideoangle>
                    <activeaudioangle>false</activeaudioangle>
                    <clip id="clip-9"/>
                  </angle>
                  <masterclipid>clip-master</masterclipid>
                </multiclip>
              </clipitem>
              <clipitem id="cs-813">
                <duration>472</duration>
                <rate>
                  <ntsc>false</ntsc>
                  <timebase>25</timebase>
                </rate>
                <in>125549</in>
                <out>126020</out>
                <start>125549</start>
                <end>126020</end>
                <file id="src-4"/>
                <sourcetrack>
                  <mediatype>video</mediatype>
                  <trackindex>1</trackindex>
                </sourcetrack>
                <multiclip id="mcs-813">
                  <name>MCS-813</name>
                  <masterclipid>clip-master</masterclipid>
                  <collapsed>false</collapsed>
                  <angle>
                    <activevideoangle>false</activevideoangle>
                    <activeaudioangle>false</activeaudioangle>
                    <clip id="clip-1"/>
                  </angle>
                  <angle>
                    <activevideoangle>false</activevideoangle>
                    <activeaudioangle>false</activeaudioangle>
                    <clip id="clip-2"/>
                  </angle>
                  <angle>
                    <activevideoangle>false</activevideoangle>
                    <activeaudioangle>false</activeaudioangle>
                    <clip id="clip-3"/>
                  </angle>
                  <angle>
                    <activevideoangle>true</activevideoangle>
                    <activeaudioangle>true</activeaudioangle>
                    <clip id="clip-4"/>
                  </angle>
                  <angle>
                    <activevideoangle>false</activevideoangle>
                    <activeaudioangle>false</activeaudioangle>
                    <clip id="clip-5"/>
                  </angle>
                  <angle>
                    <activevideoangle>false</activevideoangle>
                    <activeaudioangle>false</activeaudioangle>
                    <clip id="clip-6"/>
                  </angle>
                  <angle>
                    <activevideoangle>false</activevideoangle>
                    <activeaudioangle>false</activeaudioangle>
                    <clip id="clip-7"/>
                  </angle>
                  <angle>
                    <activevideoangle>false</activevideoangle>
                    <activeaudioangle>false</activeaudioangle>
                    <clip id="clip-8"/>
                  </angle>
                  <angle>
                    <activevideoangle>false</activevideoangle>
                    <activeaudioangle>false</activeaudioangle>
                    <clip id="clip-9"/>
                  </angle>
                  <masterclipid>clip-master</masterclipid>
                </multiclip>
              </clipitem>
            </track>
          </video>
          <audio>
            <track>
              <clipitem id="csa1">
                <duration>126021</duration>
                <in>0</in>
                <out>126020</out>
                <start>0</start>
                <end>126020</end>
                <file id="src-9"/>
                <sourcetrack>
                  <mediatype>audio</mediatype>
                  <trackindex>1</trackindex>
                </sourcetrack>
                <filter>
                  <effect>
                    <name>Audio Pan</name>
                    <effectid>audiopan</effectid>
                    <effectcategory>audiopan</effectcategory>
                    <effecttype>audiopan</effecttype>
                    <mediatype>audio</mediatype>
                    <parameter>
                      <name>Pan</name>
                      <parameterid>pan</parameterid>
                      <valuemin>-1</valuemin>
                      <valuemax>1</valuemax>
                      <value>-1</value>
                    </parameter>
                  </effect>
                </filter>
                <multiclip id="mcsa-1">
                  <name>MCS Audio 1</name>
                  <masterclipid>clip-master</masterclipid>
                  <collapsed>false</collapsed>
                  <angle>
                    <activevideoangle>false</activevideoangle>
                    <activeaudioangle>false</activeaudioangle>
                    <clip id="clip-1"/>
                  </angle>
                  <angle>
                    <activevideoangle>false</activevideoangle>
                    <activeaudioangle>false</activeaudioangle>
                    <clip id="clip-2"/>
                  </angle>
                  <angle>
                    <activevideoangle>false</activevideoangle>
                    <activeaudioangle>false</activeaudioangle>
                    <clip id="clip-3"/>
                  </angle>
                  <angle>
                    <activevideoangle>false</activevideoangle>
                    <activeaudioangle>false</activeaudioangle>
                    <clip id="clip-4"/>
                  </angle>
                  <angle>
                    <activevideoangle>false</activevideoangle>
                    <activeaudioangle>false</activeaudioangle>
                    <clip id="clip-5"/>
                  </angle>
                  <angle>
                    <activevideoangle>false</activevideoangle>
                    <activeaudioangle>false</activeaudioangle>
                    <clip id="clip-6"/>
                  </angle>
                  <angle>
                    <activevideoangle>false</activevideoangle>
                    <activeaudioangle>false</activeaudioangle>
                    <clip id="clip-7"/>
                  </angle>
                  <angle>
                    <activevideoangle>false</activevideoangle>
                    <activeaudioangle>false</activeaudioangle>
                    <clip id="clip-8"/>
                  </angle>
                  <angle>
                    <activevideoangle>true</activevideoangle>
                    <activeaudioangle>true</activeaudioangle>
                    <clip id="clip-9"/>
                  </angle>
                  <angle>
                    <activevideoangle>false</activevideoangle>
                    <activeaudioangle>false</activeaudioangle>
                    <clip id="clip-10"/>
                  </angle>
                  <angle>
                    <activevideoangle>false</activevideoangle>
                    <activeaudioangle>false</activeaudioangle>
                    <clip id="clip-11"/>
                  </angle>
                  <angle>
                    <activevideoangle>false</activevideoangle>
                    <activeaudioangle>false</activeaudioangle>
                    <clip id="clip-12"/>
                  </angle>
                  <masterclipid>clip-master</masterclipid>
                </multiclip>
                <link>
                  <linkclipref>cs-0</linkclipref>
                  <mediatype>video</mediatype>
                  <trackindex>1</trackindex>
                  <clipindex>1</clipindex>
                </link>
                <link>
                  <linkclipref>csa1</linkclipref>
                  <mediatype>audio</mediatype>
                  <trackindex>1</trackindex>
                  <clipindex>1</clipindex>
                  <groupindex>1</groupindex>
                </link>
                <link>
                  <linkclipref>csa2</linkclipref>
                  <mediatype>audio</mediatype>
                  <trackindex>2</trackindex>
                  <clipindex>1</clipindex>
                  <groupindex>1</groupindex>
                </link>
              </clipitem>
            </track>
            <track>
              <clipitem id="csa2">
                <duration>126021</duration>
                <in>0</in>
                <out>126020</out>
                <start>0</start>
                <end>126020</end>
                <file id="src-9"/>
                <sourcetrack>
                  <mediatype>audio</mediatype>
                  <trackindex>2</trackindex>
                </sourcetrack>
                <filter>
                  <effect>
                    <name>Audio Pan</name>
                    <effectid>audiopan</effectid>
                    <effectcategory>audiopan</effectcategory>
                    <effecttype>audiopan</effecttype>
                    <mediatype>audio</mediatype>
                    <parameter>
                      <name>Pan</name>
                      <parameterid>pan</parameterid>
                      <valuemin>-1</valuemin>
                      <valuemax>1</valuemax>
                      <value>1</value>
                    </parameter>
                  </effect>
                </filter>
                <multiclip id="mcsa-2">
                  <name>MCS Audio 2</name>
                  <masterclipid>clip-master</masterclipid>
                  <collapsed>false</collapsed>
                  <angle>
                    <activevideoangle>false</activevideoangle>
                    <activeaudioangle>false</activeaudioangle>
                    <clip id="clip-1"/>
                  </angle>
                  <angle>
                    <activevideoangle>false</activevideoangle>
                    <activeaudioangle>false</activeaudioangle>
                    <clip id="clip-2"/>
                  </angle>
                  <angle>
                    <activevideoangle>false</activevideoangle>
                    <activeaudioangle>false</activeaudioangle>
                    <clip id="clip-3"/>
                  </angle>
                  <angle>
                    <activevideoangle>false</activevideoangle>
                    <activeaudioangle>false</activeaudioangle>
                    <clip id="clip-4"/>
                  </angle>
                  <angle>
                    <activevideoangle>false</activevideoangle>
                    <activeaudioangle>false</activeaudioangle>
                    <clip id="clip-5"/>
                  </angle>
                  <angle>
                    <activevideoangle>false</activevideoangle>
                    <activeaudioangle>false</activeaudioangle>
                    <clip id="clip-6"/>
                  </angle>
                  <angle>
                    <activevideoangle>false</activevideoangle>
                    <activeaudioangle>false</activeaudioangle>
                    <clip id="clip-7"/>
                  </angle>
                  <angle>
                    <activevideoangle>false</activevideoangle>
                    <activeaudioangle>false</activeaudioangle>
                    <clip id="clip-8"/>
                  </angle>
                  <angle>
                    <activevideoangle>true</activevideoangle>
                    <activeaudioangle>true</activeaudioangle>
                    <clip id="clip-9"/>
                  </angle>
                  <angle>
                    <activevideoangle>false</activevideoangle>
                    <activeaudioangle>false</activeaudioangle>
                    <clip id="clip-10"/>
                  </angle>
                  <angle>
                    <activevideoangle>false</activevideoangle>
                    <activeaudioangle>false</activeaudioangle>
                    <clip id="clip-11"/>
                  </angle>
                  <angle>
                    <activevideoangle>false</activevideoangle>
                    <activeaudioangle>false</activeaudioangle>
                    <clip id="clip-12"/>
                  </angle>
                  <masterclipid>clip-master</masterclipid>
                </multiclip>
                <link>
                  <linkclipref>cs-0</linkclipref>
                  <mediatype>video</mediatype>
                  <trackindex>1</trackindex>
                  <clipindex>1</clipindex>
                </link>
                <link>
                  <linkclipref>csa1</linkclipref>
                  <mediatype>audio</mediatype>
                  <trackindex>1</trackindex>
                  <clipindex>1</clipindex>
                  <groupindex>1</groupindex>
                </link>
                <link>
                  <linkclipref>csa2</linkclipref>
                  <mediatype>audio</mediatype>
                  <trackindex>2</trackindex>
                  <clipindex>1</clipindex>
                  <groupindex>1</groupindex>
                </link>
              </clipitem>
            </track>
          </audio>
        </media>
      </sequence>
    </children>
  </project>
</xmeml>
