<?xml version="1.0" encoding="UTF-8"?>
<xmeml version="5">
  <project>
    <name>2024-07-19_LAC_MICHAEL-KIWANUKA_EDL</name>
    <children>
      <bin>
        <name>Sources</name>
        <children>
          <clip id="clip-1">
            <duration>110867</duration>
            <rate>
              <ntsc>false</ntsc>
              <timebase>25</timebase>
            </rate>
            <name>2024-07-19_LAC_MICHAEL-KIWANUKA_CAM01.mxf</name>
            <defaultangle>1</defaultangle>
            <media>
              <video>
                <track>
                  <clipitem id="clipv-1">
                    <duration>110867</duration>
                    <rate>
                      <ntsc>false</ntsc>
                      <timebase>25</timebase>
                    </rate>
                    <file id="src-1">
                      <name>2024-07-19_LAC_MICHAEL-KIWANUKA_CAM01.mxf</name>
                      <timecode>
                        <string>08:15:50:18</string>
                        <source>source</source>
                        <frame>743768</frame>
                      </timecode>
                      <pathurl>./2024-07-19_LAC_MICHAEL-KIWANUKA_CAM01.mxf</pathurl>
                      <media>
                        <audio>
                          <channelcount>2</channelcount>
                        </audio>
                        <video>
                          <samplecharacteristics>
                            <width>3840</width>
                            <height>2160</height>
                            <anamorphic>false</anamorphic>
                            <pixelaspectratio>square</pixelaspectratio>
                          </samplecharacteristics>
                        </video>
                      </media>
                    </file>
                    <sourcetrack>
                      <mediatype>video</mediatype>
                    </sourcetrack>
                    <link>
                      <linkclipref>clipv-1</linkclipref>
                      <mediatype>video</mediatype>
                      <trackindex>1</trackindex>
                    </link>
                    <link>
                      <linkclipref>clipa1-1</linkclipref>
                      <mediatype>audio</mediatype>
                      <trackindex>1</trackindex>
                      <groupindex>1</groupindex>
                    </link>
                    <link>
                      <linkclipref>clipa2-1</linkclipref>
                      <mediatype>audio</mediatype>
                      <trackindex>2</trackindex>
                      <groupindex>1</groupindex>
                    </link>
                  </clipitem>
                </track>
              </video>
              <audio>
                <track>
                  <clipitem id="clipa1-1">
                    <rate>
                      <ntsc>false</ntsc>
                      <timebase>25</timebase>
                    </rate>
                    <name>2024-07-19_LAC_MICHAEL-KIWANUKA_CAM01.mxf</name>
                    <file id="src-1"/>
                    <filter>
                      <effect>
                        <name>Audio Pan</name>
                        <effectid>audiopan</effectid>
                        <effectcategory>audiopan</effectcategory>
                        <effecttype>audiopan</effecttype>
                        <mediatype>audio</mediatype>
                        <parameter>
                          <name>Pan</name>
                          <parameterid>pan</parameterid>
                          <valuemin>-1</valuemin>
                          <valuemax>1</valuemax>
                          <value>-1</value>
                        </parameter>
                      </effect>
                    </filter>
                    <sourcetrack>
                      <mediatype>audio</mediatype>
                      <trackindex>1</trackindex>
                    </sourcetrack>
                    <link>
                      <linkclipref>clipv-1</linkclipref>
                      <mediatype>video</mediatype>
                      <trackindex>1</trackindex>
                    </link>
                    <link>
                      <linkclipref>clipa1-1</linkclipref>
                      <mediatype>audio</mediatype>
                      <trackindex>1</trackindex>
                      <groupindex>1</groupindex>
                    </link>
                    <link>
                      <linkclipref>clipa2-1</linkclipref>
                      <mediatype>audio</mediatype>
                      <trackindex>2</trackindex>
                      <groupindex>1</groupindex>
                    </link>
                  </clipitem>
                </track>
                <track>
                  <clipitem id="clipa2-1">
                    <rate>
                      <ntsc>false</ntsc>
                      <timebase>25</timebase>
                    </rate>
                    <name>2024-07-19_LAC_MICHAEL-KIWANUKA_CAM01.mxf</name>
                    <file id="src-1"/>
                    <filter>
                      <effect>
                        <name>Audio Pan</name>
                        <effectid>audiopan</effectid>
                        <effectcategory>audiopan</effectcategory>
                        <effecttype>audiopan</effecttype>
                        <mediatype>audio</mediatype>
                        <parameter>
                          <name>Pan</name>
                          <parameterid>pan</parameterid>
                          <valuemin>-1</valuemin>
                          <valuemax>1</valuemax>
                          <value>1</value>
                        </parameter>
                      </effect>
                    </filter>
                    <sourcetrack>
                      <mediatype>audio</mediatype>
                      <trackindex>2</trackindex>
                    </sourcetrack>
                    <link>
                      <linkclipref>clipv-1</linkclipref>
                      <mediatype>video</mediatype>
                      <trackindex>1</trackindex>
                    </link>
                    <link>
                      <linkclipref>clipa1-1</linkclipref>
                      <mediatype>audio</mediatype>
                      <trackindex>1</trackindex>
                      <groupindex>1</groupindex>
                    </link>
                    <link>
                      <linkclipref>clipa2-1</linkclipref>
                      <mediatype>audio</mediatype>
                      <trackindex>2</trackindex>
                      <groupindex>1</groupindex>
                    </link>
                  </clipitem>
                </track>
              </audio>
            </media>
          </clip>
          <clip id="clip-2">
            <duration>110867</duration>
            <rate>
              <ntsc>false</ntsc>
              <timebase>25</timebase>
            </rate>
            <name>2024-07-19_LAC_MICHAEL-KIWANUKA_CAM02.mxf</name>
            <defaultangle>2</defaultangle>
            <media>
              <video>
                <track>
                  <clipitem id="clipv-2">
                    <duration>110867</duration>
                    <rate>
                      <ntsc>false</ntsc>
                      <timebase>25</timebase>
                    </rate>
                    <file id="src-2">
                      <name>2024-07-19_LAC_MICHAEL-KIWANUKA_CAM02.mxf</name>
                      <timecode>
                        <string>08:15:50:18</string>
                        <source>source</source>
                        <frame>743768</frame>
                      </timecode>
                      <pathurl>./2024-07-19_LAC_MICHAEL-KIWANUKA_CAM02.mxf</pathurl>
                      <media>
                        <audio>
                          <channelcount>2</channelcount>
                        </audio>
                        <video>
                          <samplecharacteristics>
                            <width>3840</width>
                            <height>2160</height>
                            <anamorphic>false</anamorphic>
                            <pixelaspectratio>square</pixelaspectratio>
                          </samplecharacteristics>
                        </video>
                      </media>
                    </file>
                    <sourcetrack>
                      <mediatype>video</mediatype>
                    </sourcetrack>
                    <link>
                      <linkclipref>clipv-2</linkclipref>
                      <mediatype>video</mediatype>
                      <trackindex>1</trackindex>
                    </link>
                    <link>
                      <linkclipref>clipa1-2</linkclipref>
                      <mediatype>audio</mediatype>
                      <trackindex>1</trackindex>
                      <groupindex>1</groupindex>
                    </link>
                    <link>
                      <linkclipref>clipa2-2</linkclipref>
                      <mediatype>audio</mediatype>
                      <trackindex>2</trackindex>
                      <groupindex>1</groupindex>
                    </link>
                  </clipitem>
                </track>
              </video>
              <audio>
                <track>
                  <clipitem id="clipa1-2">
                    <rate>
                      <ntsc>false</ntsc>
                      <timebase>25</timebase>
                    </rate>
                    <name>2024-07-19_LAC_MICHAEL-KIWANUKA_CAM02.mxf</name>
                    <file id="src-2"/>
                    <filter>
                      <effect>
                        <name>Audio Pan</name>
                        <effectid>audiopan</effectid>
                        <effectcategory>audiopan</effectcategory>
                        <effecttype>audiopan</effecttype>
                        <mediatype>audio</mediatype>
                        <parameter>
                          <name>Pan</name>
                          <parameterid>pan</parameterid>
                          <valuemin>-1</valuemin>
                          <valuemax>1</valuemax>
                          <value>-1</value>
                        </parameter>
                      </effect>
                    </filter>
                    <sourcetrack>
                      <mediatype>audio</mediatype>
                      <trackindex>1</trackindex>
                    </sourcetrack>
                    <link>
                      <linkclipref>clipv-2</linkclipref>
                      <mediatype>video</mediatype>
                      <trackindex>1</trackindex>
                    </link>
                    <link>
                      <linkclipref>clipa1-2</linkclipref>
                      <mediatype>audio</mediatype>
                      <trackindex>1</trackindex>
                      <groupindex>1</groupindex>
                    </link>
                    <link>
                      <linkclipref>clipa2-2</linkclipref>
                      <mediatype>audio</mediatype>
                      <trackindex>2</trackindex>
                      <groupindex>1</groupindex>
                    </link>
                  </clipitem>
                </track>
                <track>
                  <clipitem id="clipa2-2">
                    <rate>
                      <ntsc>false</ntsc>
                      <timebase>25</timebase>
                    </rate>
                    <name>2024-07-19_LAC_MICHAEL-KIWANUKA_CAM02.mxf</name>
                    <file id="src-2"/>
                    <filter>
                      <effect>
                        <name>Audio Pan</name>
                        <effectid>audiopan</effectid>
                        <effectcategory>audiopan</effectcategory>
                        <effecttype>audiopan</effecttype>
                        <mediatype>audio</mediatype>
                        <parameter>
                          <name>Pan</name>
                          <parameterid>pan</parameterid>
                          <valuemin>-1</valuemin>
                          <valuemax>1</valuemax>
                          <value>1</value>
                        </parameter>
                      </effect>
                    </filter>
                    <sourcetrack>
                      <mediatype>audio</mediatype>
                      <trackindex>2</trackindex>
                    </sourcetrack>
                    <link>
                      <linkclipref>clipv-2</linkclipref>
                      <mediatype>video</mediatype>
                      <trackindex>1</trackindex>
                    </link>
                    <link>
                      <linkclipref>clipa1-2</linkclipref>
                      <mediatype>audio</mediatype>
                      <trackindex>1</trackindex>
                      <groupindex>1</groupindex>
                    </link>
                    <link>
                      <linkclipref>clipa2-2</linkclipref>
                      <mediatype>audio</mediatype>
                      <trackindex>2</trackindex>
                      <groupindex>1</groupindex>
                    </link>
                  </clipitem>
                </track>
              </audio>
            </media>
          </clip>
          <clip id="clip-3">
            <duration>110867</duration>
            <rate>
              <ntsc>false</ntsc>
              <timebase>25</timebase>
            </rate>
            <name>2024-07-19_LAC_MICHAEL-KIWANUKA_CAM03.mxf</name>
            <defaultangle>3</defaultangle>
            <media>
              <video>
                <track>
                  <clipitem id="clipv-3">
                    <duration>110867</duration>
                    <rate>
                      <ntsc>false</ntsc>
                      <timebase>25</timebase>
                    </rate>
                    <file id="src-3">
                      <name>2024-07-19_LAC_MICHAEL-KIWANUKA_CAM03.mxf</name>
                      <timecode>
                        <string>08:15:50:18</string>
                        <source>source</source>
                        <frame>743768</frame>
                      </timecode>
                      <pathurl>./2024-07-19_LAC_MICHAEL-KIWANUKA_CAM03.mxf</pathurl>
                      <media>
                        <audio>
                          <channelcount>2</channelcount>
                        </audio>
                        <video>
                          <samplecharacteristics>
                            <width>3840</width>
                            <height>2160</height>
                            <anamorphic>false</anamorphic>
                            <pixelaspectratio>square</pixelaspectratio>
                          </samplecharacteristics>
                        </video>
                      </media>
                    </file>
                    <sourcetrack>
                      <mediatype>video</mediatype>
                    </sourcetrack>
                    <link>
                      <linkclipref>clipv-3</linkclipref>
                      <mediatype>video</mediatype>
                      <trackindex>1</trackindex>
                    </link>
                    <link>
                      <linkclipref>clipa1-3</linkclipref>
                      <mediatype>audio</mediatype>
                      <trackindex>1</trackindex>
                      <groupindex>1</groupindex>
                    </link>
                    <link>
                      <linkclipref>clipa2-3</linkclipref>
                      <mediatype>audio</mediatype>
                      <trackindex>2</trackindex>
                      <groupindex>1</groupindex>
                    </link>
                  </clipitem>
                </track>
              </video>
              <audio>
                <track>
                  <clipitem id="clipa1-3">
                    <rate>
                      <ntsc>false</ntsc>
                      <timebase>25</timebase>
                    </rate>
                    <name>2024-07-19_LAC_MICHAEL-KIWANUKA_CAM03.mxf</name>
                    <file id="src-3"/>
                    <filter>
                      <effect>
                        <name>Audio Pan</name>
                        <effectid>audiopan</effectid>
                        <effectcategory>audiopan</effectcategory>
                        <effecttype>audiopan</effecttype>
                        <mediatype>audio</mediatype>
                        <parameter>
                          <name>Pan</name>
                          <parameterid>pan</parameterid>
                          <valuemin>-1</valuemin>
                          <valuemax>1</valuemax>
                          <value>-1</value>
                        </parameter>
                      </effect>
                    </filter>
                    <sourcetrack>
                      <mediatype>audio</mediatype>
                      <trackindex>1</trackindex>
                    </sourcetrack>
                    <link>
                      <linkclipref>clipv-3</linkclipref>
                      <mediatype>video</mediatype>
                      <trackindex>1</trackindex>
                    </link>
                    <link>
                      <linkclipref>clipa1-3</linkclipref>
                      <mediatype>audio</mediatype>
                      <trackindex>1</trackindex>
                      <groupindex>1</groupindex>
                    </link>
                    <link>
                      <linkclipref>clipa2-3</linkclipref>
                      <mediatype>audio</mediatype>
                      <trackindex>2</trackindex>
                      <groupindex>1</groupindex>
                    </link>
                  </clipitem>
                </track>
                <track>
                  <clipitem id="clipa2-3">
                    <rate>
                      <ntsc>false</ntsc>
                      <timebase>25</timebase>
                    </rate>
                    <name>2024-07-19_LAC_MICHAEL-KIWANUKA_CAM03.mxf</name>
                    <file id="src-3"/>
                    <filter>
                      <effect>
                        <name>Audio Pan</name>
                        <effectid>audiopan</effectid>
                        <effectcategory>audiopan</effectcategory>
                        <effecttype>audiopan</effecttype>
                        <mediatype>audio</mediatype>
                        <parameter>
                          <name>Pan</name>
                          <parameterid>pan</parameterid>
                          <valuemin>-1</valuemin>
                          <valuemax>1</valuemax>
                          <value>1</value>
                        </parameter>
                      </effect>
                    </filter>
                    <sourcetrack>
                      <mediatype>audio</mediatype>
                      <trackindex>2</trackindex>
                    </sourcetrack>
                    <link>
                      <linkclipref>clipv-3</linkclipref>
                      <mediatype>video</mediatype>
                      <trackindex>1</trackindex>
                    </link>
                    <link>
                      <linkclipref>clipa1-3</linkclipref>
                      <mediatype>audio</mediatype>
                      <trackindex>1</trackindex>
                      <groupindex>1</groupindex>
                    </link>
                    <link>
                      <linkclipref>clipa2-3</linkclipref>
                      <mediatype>audio</mediatype>
                      <trackindex>2</trackindex>
                      <groupindex>1</groupindex>
                    </link>
                  </clipitem>
                </track>
              </audio>
            </media>
          </clip>
          <clip id="clip-4">
            <duration>110867</duration>
            <rate>
              <ntsc>false</ntsc>
              <timebase>25</timebase>
            </rate>
            <name>2024-07-19_LAC_MICHAEL-KIWANUKA_CAM04.mxf</name>
            <defaultangle>4</defaultangle>
            <media>
              <video>
                <track>
                  <clipitem id="clipv-4">
                    <duration>110867</duration>
                    <rate>
                      <ntsc>false</ntsc>
                      <timebase>25</timebase>
                    </rate>
                    <file id="src-4">
                      <name>2024-07-19_LAC_MICHAEL-KIWANUKA_CAM04.mxf</name>
                      <timecode>
                        <string>08:15:50:18</string>
                        <source>source</source>
                        <frame>743768</frame>
                      </timecode>
                      <pathurl>./2024-07-19_LAC_MICHAEL-KIWANUKA_CAM04.mxf</pathurl>
                      <media>
                        <audio>
                          <channelcount>2</channelcount>
                        </audio>
                        <video>
                          <samplecharacteristics>
                            <width>3840</width>
                            <height>2160</height>
                            <anamorphic>false</anamorphic>
                            <pixelaspectratio>square</pixelaspectratio>
                          </samplecharacteristics>
                        </video>
                      </media>
                    </file>
                    <sourcetrack>
                      <mediatype>video</mediatype>
                    </sourcetrack>
                    <link>
                      <linkclipref>clipv-4</linkclipref>
                      <mediatype>video</mediatype>
                      <trackindex>1</trackindex>
                    </link>
                    <link>
                      <linkclipref>clipa1-4</linkclipref>
                      <mediatype>audio</mediatype>
                      <trackindex>1</trackindex>
                      <groupindex>1</groupindex>
                    </link>
                    <link>
                      <linkclipref>clipa2-4</linkclipref>
                      <mediatype>audio</mediatype>
                      <trackindex>2</trackindex>
                      <groupindex>1</groupindex>
                    </link>
                  </clipitem>
                </track>
              </video>
              <audio>
                <track>
                  <clipitem id="clipa1-4">
                    <rate>
                      <ntsc>false</ntsc>
                      <timebase>25</timebase>
                    </rate>
                    <name>2024-07-19_LAC_MICHAEL-KIWANUKA_CAM04.mxf</name>
                    <file id="src-4"/>
                    <filter>
                      <effect>
                        <name>Audio Pan</name>
                        <effectid>audiopan</effectid>
                        <effectcategory>audiopan</effectcategory>
                        <effecttype>audiopan</effecttype>
                        <mediatype>audio</mediatype>
                        <parameter>
                          <name>Pan</name>
                          <parameterid>pan</parameterid>
                          <valuemin>-1</valuemin>
                          <valuemax>1</valuemax>
                          <value>-1</value>
                        </parameter>
                      </effect>
                    </filter>
                    <sourcetrack>
                      <mediatype>audio</mediatype>
                      <trackindex>1</trackindex>
                    </sourcetrack>
                    <link>
                      <linkclipref>clipv-4</linkclipref>
                      <mediatype>video</mediatype>
                      <trackindex>1</trackindex>
                    </link>
                    <link>
                      <linkclipref>clipa1-4</linkclipref>
                      <mediatype>audio</mediatype>
                      <trackindex>1</trackindex>
                      <groupindex>1</groupindex>
                    </link>
                    <link>
                      <linkclipref>clipa2-4</linkclipref>
                      <mediatype>audio</mediatype>
                      <trackindex>2</trackindex>
                      <groupindex>1</groupindex>
                    </link>
                  </clipitem>
                </track>
                <track>
                  <clipitem id="clipa2-4">
                    <rate>
                      <ntsc>false</ntsc>
                      <timebase>25</timebase>
                    </rate>
                    <name>2024-07-19_LAC_MICHAEL-KIWANUKA_CAM04.mxf</name>
                    <file id="src-4"/>
                    <filter>
                      <effect>
                        <name>Audio Pan</name>
                        <effectid>audiopan</effectid>
                        <effectcategory>audiopan</effectcategory>
                        <effecttype>audiopan</effecttype>
                        <mediatype>audio</mediatype>
                        <parameter>
                          <name>Pan</name>
                          <parameterid>pan</parameterid>
                          <valuemin>-1</valuemin>
                          <valuemax>1</valuemax>
                          <value>1</value>
                        </parameter>
                      </effect>
                    </filter>
                    <sourcetrack>
                      <mediatype>audio</mediatype>
                      <trackindex>2</trackindex>
                    </sourcetrack>
                    <link>
                      <linkclipref>clipv-4</linkclipref>
                      <mediatype>video</mediatype>
                      <trackindex>1</trackindex>
                    </link>
                    <link>
                      <linkclipref>clipa1-4</linkclipref>
                      <mediatype>audio</mediatype>
                      <trackindex>1</trackindex>
                      <groupindex>1</groupindex>
                    </link>
                    <link>
                      <linkclipref>clipa2-4</linkclipref>
                      <mediatype>audio</mediatype>
                      <trackindex>2</trackindex>
                      <groupindex>1</groupindex>
                    </link>
                  </clipitem>
                </track>
              </audio>
            </media>
          </clip>
          <clip id="clip-5">
            <duration>110867</duration>
            <rate>
              <ntsc>false</ntsc>
              <timebase>25</timebase>
            </rate>
            <name>2024-07-19_LAC_MICHAEL-KIWANUKA_CAM05.mxf</name>
            <defaultangle>5</defaultangle>
            <media>
              <video>
                <track>
                  <clipitem id="clipv-5">
                    <duration>110867</duration>
                    <rate>
                      <ntsc>false</ntsc>
                      <timebase>25</timebase>
                    </rate>
                    <file id="src-5">
                      <name>2024-07-19_LAC_MICHAEL-KIWANUKA_CAM05.mxf</name>
                      <timecode>
                        <string>08:15:50:18</string>
                        <source>source</source>
                        <frame>743768</frame>
                      </timecode>
                      <pathurl>./2024-07-19_LAC_MICHAEL-KIWANUKA_CAM05.mxf</pathurl>
                      <media>
                        <audio>
                          <channelcount>2</channelcount>
                        </audio>
                        <video>
                          <samplecharacteristics>
                            <width>3840</width>
                            <height>2160</height>
                            <anamorphic>false</anamorphic>
                            <pixelaspectratio>square</pixelaspectratio>
                          </samplecharacteristics>
                        </video>
                      </media>
                    </file>
                    <sourcetrack>
                      <mediatype>video</mediatype>
                    </sourcetrack>
                    <link>
                      <linkclipref>clipv-5</linkclipref>
                      <mediatype>video</mediatype>
                      <trackindex>1</trackindex>
                    </link>
                    <link>
                      <linkclipref>clipa1-5</linkclipref>
                      <mediatype>audio</mediatype>
                      <trackindex>1</trackindex>
                      <groupindex>1</groupindex>
                    </link>
                    <link>
                      <linkclipref>clipa2-5</linkclipref>
                      <mediatype>audio</mediatype>
                      <trackindex>2</trackindex>
                      <groupindex>1</groupindex>
                    </link>
                  </clipitem>
                </track>
              </video>
              <audio>
                <track>
                  <clipitem id="clipa1-5">
                    <rate>
                      <ntsc>false</ntsc>
                      <timebase>25</timebase>
                    </rate>
                    <name>2024-07-19_LAC_MICHAEL-KIWANUKA_CAM05.mxf</name>
                    <file id="src-5"/>
                    <filter>
                      <effect>
                        <name>Audio Pan</name>
                        <effectid>audiopan</effectid>
                        <effectcategory>audiopan</effectcategory>
                        <effecttype>audiopan</effecttype>
                        <mediatype>audio</mediatype>
                        <parameter>
                          <name>Pan</name>
                          <parameterid>pan</parameterid>
                          <valuemin>-1</valuemin>
                          <valuemax>1</valuemax>
                          <value>-1</value>
                        </parameter>
                      </effect>
                    </filter>
                    <sourcetrack>
                      <mediatype>audio</mediatype>
                      <trackindex>1</trackindex>
                    </sourcetrack>
                    <link>
                      <linkclipref>clipv-5</linkclipref>
                      <mediatype>video</mediatype>
                      <trackindex>1</trackindex>
                    </link>
                    <link>
                      <linkclipref>clipa1-5</linkclipref>
                      <mediatype>audio</mediatype>
                      <trackindex>1</trackindex>
                      <groupindex>1</groupindex>
                    </link>
                    <link>
                      <linkclipref>clipa2-5</linkclipref>
                      <mediatype>audio</mediatype>
                      <trackindex>2</trackindex>
                      <groupindex>1</groupindex>
                    </link>
                  </clipitem>
                </track>
                <track>
                  <clipitem id="clipa2-5">
                    <rate>
                      <ntsc>false</ntsc>
                      <timebase>25</timebase>
                    </rate>
                    <name>2024-07-19_LAC_MICHAEL-KIWANUKA_CAM05.mxf</name>
                    <file id="src-5"/>
                    <filter>
                      <effect>
                        <name>Audio Pan</name>
                        <effectid>audiopan</effectid>
                        <effectcategory>audiopan</effectcategory>
                        <effecttype>audiopan</effecttype>
                        <mediatype>audio</mediatype>
                        <parameter>
                          <name>Pan</name>
                          <parameterid>pan</parameterid>
                          <valuemin>-1</valuemin>
                          <valuemax>1</valuemax>
                          <value>1</value>
                        </parameter>
                      </effect>
                    </filter>
                    <sourcetrack>
                      <mediatype>audio</mediatype>
                      <trackindex>2</trackindex>
                    </sourcetrack>
                    <link>
                      <linkclipref>clipv-5</linkclipref>
                      <mediatype>video</mediatype>
                      <trackindex>1</trackindex>
                    </link>
                    <link>
                      <linkclipref>clipa1-5</linkclipref>
                      <mediatype>audio</mediatype>
                      <trackindex>1</trackindex>
                      <groupindex>1</groupindex>
                    </link>
                    <link>
                      <linkclipref>clipa2-5</linkclipref>
                      <mediatype>audio</mediatype>
                      <trackindex>2</trackindex>
                      <groupindex>1</groupindex>
                    </link>
                  </clipitem>
                </track>
              </audio>
            </media>
          </clip>
          <clip id="clip-6">
            <duration>110867</duration>
            <rate>
              <ntsc>false</ntsc>
              <timebase>25</timebase>
            </rate>
            <name>2024-07-19_LAC_MICHAEL-KIWANUKA_CAM06.mxf</name>
            <defaultangle>6</defaultangle>
            <media>
              <video>
                <track>
                  <clipitem id="clipv-6">
                    <duration>110867</duration>
                    <rate>
                      <ntsc>false</ntsc>
                      <timebase>25</timebase>
                    </rate>
                    <file id="src-6">
                      <name>2024-07-19_LAC_MICHAEL-KIWANUKA_CAM06.mxf</name>
                      <timecode>
                        <string>08:15:50:18</string>
                        <source>source</source>
                        <frame>743768</frame>
                      </timecode>
                      <pathurl>./2024-07-19_LAC_MICHAEL-KIWANUKA_CAM06.mxf</pathurl>
                      <media>
                        <audio>
                          <channelcount>2</channelcount>
                        </audio>
                        <video>
                          <samplecharacteristics>
                            <width>3840</width>
                            <height>2160</height>
                            <anamorphic>false</anamorphic>
                            <pixelaspectratio>square</pixelaspectratio>
                          </samplecharacteristics>
                        </video>
                      </media>
                    </file>
                    <sourcetrack>
                      <mediatype>video</mediatype>
                    </sourcetrack>
                    <link>
                      <linkclipref>clipv-6</linkclipref>
                      <mediatype>video</mediatype>
                      <trackindex>1</trackindex>
                    </link>
                    <link>
                      <linkclipref>clipa1-6</linkclipref>
                      <mediatype>audio</mediatype>
                      <trackindex>1</trackindex>
                      <groupindex>1</groupindex>
                    </link>
                    <link>
                      <linkclipref>clipa2-6</linkclipref>
                      <mediatype>audio</mediatype>
                      <trackindex>2</trackindex>
                      <groupindex>1</groupindex>
                    </link>
                  </clipitem>
                </track>
              </video>
              <audio>
                <track>
                  <clipitem id="clipa1-6">
                    <rate>
                      <ntsc>false</ntsc>
                      <timebase>25</timebase>
                    </rate>
                    <name>2024-07-19_LAC_MICHAEL-KIWANUKA_CAM06.mxf</name>
                    <file id="src-6"/>
                    <filter>
                      <effect>
                        <name>Audio Pan</name>
                        <effectid>audiopan</effectid>
                        <effectcategory>audiopan</effectcategory>
                        <effecttype>audiopan</effecttype>
                        <mediatype>audio</mediatype>
                        <parameter>
                          <name>Pan</name>
                          <parameterid>pan</parameterid>
                          <valuemin>-1</valuemin>
                          <valuemax>1</valuemax>
                          <value>-1</value>
                        </parameter>
                      </effect>
                    </filter>
                    <sourcetrack>
                      <mediatype>audio</mediatype>
                      <trackindex>1</trackindex>
                    </sourcetrack>
                    <link>
                      <linkclipref>clipv-6</linkclipref>
                      <mediatype>video</mediatype>
                      <trackindex>1</trackindex>
                    </link>
                    <link>
                      <linkclipref>clipa1-6</linkclipref>
                      <mediatype>audio</mediatype>
                      <trackindex>1</trackindex>
                      <groupindex>1</groupindex>
                    </link>
                    <link>
                      <linkclipref>clipa2-6</linkclipref>
                      <mediatype>audio</mediatype>
                      <trackindex>2</trackindex>
                      <groupindex>1</groupindex>
                    </link>
                  </clipitem>
                </track>
                <track>
                  <clipitem id="clipa2-6">
                    <rate>
                      <ntsc>false</ntsc>
                      <timebase>25</timebase>
                    </rate>
                    <name>2024-07-19_LAC_MICHAEL-KIWANUKA_CAM06.mxf</name>
                    <file id="src-6"/>
                    <filter>
                      <effect>
                        <name>Audio Pan</name>
                        <effectid>audiopan</effectid>
                        <effectcategory>audiopan</effectcategory>
                        <effecttype>audiopan</effecttype>
                        <mediatype>audio</mediatype>
                        <parameter>
                          <name>Pan</name>
                          <parameterid>pan</parameterid>
                          <valuemin>-1</valuemin>
                          <valuemax>1</valuemax>
                          <value>1</value>
                        </parameter>
                      </effect>
                    </filter>
                    <sourcetrack>
                      <mediatype>audio</mediatype>
                      <trackindex>2</trackindex>
                    </sourcetrack>
                    <link>
                      <linkclipref>clipv-6</linkclipref>
                      <mediatype>video</mediatype>
                      <trackindex>1</trackindex>
                    </link>
                    <link>
                      <linkclipref>clipa1-6</linkclipref>
                      <mediatype>audio</mediatype>
                      <trackindex>1</trackindex>
                      <groupindex>1</groupindex>
                    </link>
                    <link>
                      <linkclipref>clipa2-6</linkclipref>
                      <mediatype>audio</mediatype>
                      <trackindex>2</trackindex>
                      <groupindex>1</groupindex>
                    </link>
                  </clipitem>
                </track>
              </audio>
            </media>
          </clip>
          <clip id="clip-7">
            <duration>110867</duration>
            <rate>
              <ntsc>false</ntsc>
              <timebase>25</timebase>
            </rate>
            <name>2024-07-19_LAC_MICHAEL-KIWANUKA_CAM07.mxf</name>
            <defaultangle>7</defaultangle>
            <media>
              <video>
                <track>
                  <clipitem id="clipv-7">
                    <duration>110867</duration>
                    <rate>
                      <ntsc>false</ntsc>
                      <timebase>25</timebase>
                    </rate>
                    <file id="src-7">
                      <name>2024-07-19_LAC_MICHAEL-KIWANUKA_CAM07.mxf</name>
                      <timecode>
                        <string>08:15:50:18</string>
                        <source>source</source>
                        <frame>743768</frame>
                      </timecode>
                      <pathurl>./2024-07-19_LAC_MICHAEL-KIWANUKA_CAM07.mxf</pathurl>
                      <media>
                        <audio>
                          <channelcount>2</channelcount>
                        </audio>
                        <video>
                          <samplecharacteristics>
                            <width>3840</width>
                            <height>2160</height>
                            <anamorphic>false</anamorphic>
                            <pixelaspectratio>square</pixelaspectratio>
                          </samplecharacteristics>
                        </video>
                      </media>
                    </file>
                    <sourcetrack>
                      <mediatype>video</mediatype>
                    </sourcetrack>
                    <link>
                      <linkclipref>clipv-7</linkclipref>
                      <mediatype>video</mediatype>
                      <trackindex>1</trackindex>
                    </link>
                    <link>
                      <linkclipref>clipa1-7</linkclipref>
                      <mediatype>audio</mediatype>
                      <trackindex>1</trackindex>
                      <groupindex>1</groupindex>
                    </link>
                    <link>
                      <linkclipref>clipa2-7</linkclipref>
                      <mediatype>audio</mediatype>
                      <trackindex>2</trackindex>
                      <groupindex>1</groupindex>
                    </link>
                  </clipitem>
                </track>
              </video>
              <audio>
                <track>
                  <clipitem id="clipa1-7">
                    <rate>
                      <ntsc>false</ntsc>
                      <timebase>25</timebase>
                    </rate>
                    <name>2024-07-19_LAC_MICHAEL-KIWANUKA_CAM07.mxf</name>
                    <file id="src-7"/>
                    <filter>
                      <effect>
                        <name>Audio Pan</name>
                        <effectid>audiopan</effectid>
                        <effectcategory>audiopan</effectcategory>
                        <effecttype>audiopan</effecttype>
                        <mediatype>audio</mediatype>
                        <parameter>
                          <name>Pan</name>
                          <parameterid>pan</parameterid>
                          <valuemin>-1</valuemin>
                          <valuemax>1</valuemax>
                          <value>-1</value>
                        </parameter>
                      </effect>
                    </filter>
                    <sourcetrack>
                      <mediatype>audio</mediatype>
                      <trackindex>1</trackindex>
                    </sourcetrack>
                    <link>
                      <linkclipref>clipv-7</linkclipref>
                      <mediatype>video</mediatype>
                      <trackindex>1</trackindex>
                    </link>
                    <link>
                      <linkclipref>clipa1-7</linkclipref>
                      <mediatype>audio</mediatype>
                      <trackindex>1</trackindex>
                      <groupindex>1</groupindex>
                    </link>
                    <link>
                      <linkclipref>clipa2-7</linkclipref>
                      <mediatype>audio</mediatype>
                      <trackindex>2</trackindex>
                      <groupindex>1</groupindex>
                    </link>
                  </clipitem>
                </track>
                <track>
                  <clipitem id="clipa2-7">
                    <rate>
                      <ntsc>false</ntsc>
                      <timebase>25</timebase>
                    </rate>
                    <name>2024-07-19_LAC_MICHAEL-KIWANUKA_CAM07.mxf</name>
                    <file id="src-7"/>
                    <filter>
                      <effect>
                        <name>Audio Pan</name>
                        <effectid>audiopan</effectid>
                        <effectcategory>audiopan</effectcategory>
                        <effecttype>audiopan</effecttype>
                        <mediatype>audio</mediatype>
                        <parameter>
                          <name>Pan</name>
                          <parameterid>pan</parameterid>
                          <valuemin>-1</valuemin>
                          <valuemax>1</valuemax>
                          <value>1</value>
                        </parameter>
                      </effect>
                    </filter>
                    <sourcetrack>
                      <mediatype>audio</mediatype>
                      <trackindex>2</trackindex>
                    </sourcetrack>
                    <link>
                      <linkclipref>clipv-7</linkclipref>
                      <mediatype>video</mediatype>
                      <trackindex>1</trackindex>
                    </link>
                    <link>
                      <linkclipref>clipa1-7</linkclipref>
                      <mediatype>audio</mediatype>
                      <trackindex>1</trackindex>
                      <groupindex>1</groupindex>
                    </link>
                    <link>
                      <linkclipref>clipa2-7</linkclipref>
                      <mediatype>audio</mediatype>
                      <trackindex>2</trackindex>
                      <groupindex>1</groupindex>
                    </link>
                  </clipitem>
                </track>
              </audio>
            </media>
          </clip>
          <clip id="clip-8">
            <duration>110867</duration>
            <rate>
              <ntsc>false</ntsc>
              <timebase>25</timebase>
            </rate>
            <name>2024-07-19_LAC_MICHAEL-KIWANUKA_CAM08.mxf</name>
            <defaultangle>8</defaultangle>
            <media>
              <video>
                <track>
                  <clipitem id="clipv-8">
                    <duration>110867</duration>
                    <rate>
                      <ntsc>false</ntsc>
                      <timebase>25</timebase>
                    </rate>
                    <file id="src-8">
                      <name>2024-07-19_LAC_MICHAEL-KIWANUKA_CAM08.mxf</name>
                      <timecode>
                        <string>08:15:50:18</string>
                        <source>source</source>
                        <frame>743768</frame>
                      </timecode>
                      <pathurl>./2024-07-19_LAC_MICHAEL-KIWANUKA_CAM08.mxf</pathurl>
                      <media>
                        <audio>
                          <channelcount>2</channelcount>
                        </audio>
                        <video>
                          <samplecharacteristics>
                            <width>3840</width>
                            <height>2160</height>
                            <anamorphic>false</anamorphic>
                            <pixelaspectratio>square</pixelaspectratio>
                          </samplecharacteristics>
                        </video>
                      </media>
                    </file>
                    <sourcetrack>
                      <mediatype>video</mediatype>
                    </sourcetrack>
                    <link>
                      <linkclipref>clipv-8</linkclipref>
                      <mediatype>video</mediatype>
                      <trackindex>1</trackindex>
                    </link>
                    <link>
                      <linkclipref>clipa1-8</linkclipref>
                      <mediatype>audio</mediatype>
                      <trackindex>1</trackindex>
                      <groupindex>1</groupindex>
                    </link>
                    <link>
                      <linkclipref>clipa2-8</linkclipref>
                      <mediatype>audio</mediatype>
                      <trackindex>2</trackindex>
                      <groupindex>1</groupindex>
                    </link>
                  </clipitem>
                </track>
              </video>
              <audio>
                <track>
                  <clipitem id="clipa1-8">
                    <rate>
                      <ntsc>false</ntsc>
                      <timebase>25</timebase>
                    </rate>
                    <name>2024-07-19_LAC_MICHAEL-KIWANUKA_CAM08.mxf</name>
                    <file id="src-8"/>
                    <filter>
                      <effect>
                        <name>Audio Pan</name>
                        <effectid>audiopan</effectid>
                        <effectcategory>audiopan</effectcategory>
                        <effecttype>audiopan</effecttype>
                        <mediatype>audio</mediatype>
                        <parameter>
                          <name>Pan</name>
                          <parameterid>pan</parameterid>
                          <valuemin>-1</valuemin>
                          <valuemax>1</valuemax>
                          <value>-1</value>
                        </parameter>
                      </effect>
                    </filter>
                    <sourcetrack>
                      <mediatype>audio</mediatype>
                      <trackindex>1</trackindex>
                    </sourcetrack>
                    <link>
                      <linkclipref>clipv-8</linkclipref>
                      <mediatype>video</mediatype>
                      <trackindex>1</trackindex>
                    </link>
                    <link>
                      <linkclipref>clipa1-8</linkclipref>
                      <mediatype>audio</mediatype>
                      <trackindex>1</trackindex>
                      <groupindex>1</groupindex>
                    </link>
                    <link>
                      <linkclipref>clipa2-8</linkclipref>
                      <mediatype>audio</mediatype>
                      <trackindex>2</trackindex>
                      <groupindex>1</groupindex>
                    </link>
                  </clipitem>
                </track>
                <track>
                  <clipitem id="clipa2-8">
                    <rate>
                      <ntsc>false</ntsc>
                      <timebase>25</timebase>
                    </rate>
                    <name>2024-07-19_LAC_MICHAEL-KIWANUKA_CAM08.mxf</name>
                    <file id="src-8"/>
                    <filter>
                      <effect>
                        <name>Audio Pan</name>
                        <effectid>audiopan</effectid>
                        <effectcategory>audiopan</effectcategory>
                        <effecttype>audiopan</effecttype>
                        <mediatype>audio</mediatype>
                        <parameter>
                          <name>Pan</name>
                          <parameterid>pan</parameterid>
                          <valuemin>-1</valuemin>
                          <valuemax>1</valuemax>
                          <value>1</value>
                        </parameter>
                      </effect>
                    </filter>
                    <sourcetrack>
                      <mediatype>audio</mediatype>
                      <trackindex>2</trackindex>
                    </sourcetrack>
                    <link>
                      <linkclipref>clipv-8</linkclipref>
                      <mediatype>video</mediatype>
                      <trackindex>1</trackindex>
                    </link>
                    <link>
                      <linkclipref>clipa1-8</linkclipref>
                      <mediatype>audio</mediatype>
                      <trackindex>1</trackindex>
                      <groupindex>1</groupindex>
                    </link>
                    <link>
                      <linkclipref>clipa2-8</linkclipref>
                      <mediatype>audio</mediatype>
                      <trackindex>2</trackindex>
                      <groupindex>1</groupindex>
                    </link>
                  </clipitem>
                </track>
              </audio>
            </media>
          </clip>
          <clip id="clip-9">
            <duration>110867</duration>
            <rate>
              <ntsc>false</ntsc>
              <timebase>25</timebase>
            </rate>
            <name>2024-07-19_LAC_MICHAEL-KIWANUKA_PGM.mxf</name>
            <defaultangle>9</defaultangle>
            <media>
              <video>
                <track>
                  <clipitem id="clipv-9">
                    <duration>110867</duration>
                    <rate>
                      <ntsc>false</ntsc>
                      <timebase>25</timebase>
                    </rate>
                    <file id="src-9">
                      <name>2024-07-19_LAC_MICHAEL-KIWANUKA_PGM.mxf</name>
                      <timecode>
                        <string>08:15:50:18</string>
                        <source>source</source>
                        <frame>743768</frame>
                      </timecode>
                      <pathurl>./2024-07-19_LAC_MICHAEL-KIWANUKA_PGM.mxf</pathurl>
                      <media>
                        <audio>
                          <channelcount>2</channelcount>
                        </audio>
                        <video>
                          <samplecharacteristics>
                            <width>3840</width>
                            <height>2160</height>
                            <anamorphic>false</anamorphic>
                            <pixelaspectratio>square</pixelaspectratio>
                          </samplecharacteristics>
                        </video>
                      </media>
                    </file>
                    <sourcetrack>
                      <mediatype>video</mediatype>
                    </sourcetrack>
                    <link>
                      <linkclipref>clipv-9</linkclipref>
                      <mediatype>video</mediatype>
                      <trackindex>1</trackindex>
                    </link>
                    <link>
                      <linkclipref>clipa1-9</linkclipref>
                      <mediatype>audio</mediatype>
                      <trackindex>1</trackindex>
                      <groupindex>1</groupindex>
                    </link>
                    <link>
                      <linkclipref>clipa2-9</linkclipref>
                      <mediatype>audio</mediatype>
                      <trackindex>2</trackindex>
                      <groupindex>1</groupindex>
                    </link>
                  </clipitem>
                </track>
              </video>
              <audio>
                <track>
                  <clipitem id="clipa1-9">
                    <rate>
                      <ntsc>false</ntsc>
                      <timebase>25</timebase>
                    </rate>
                    <name>2024-07-19_LAC_MICHAEL-KIWANUKA_PGM.mxf</name>
                    <file id="src-9"/>
                    <filter>
                      <effect>
                        <name>Audio Pan</name>
                        <effectid>audiopan</effectid>
                        <effectcategory>audiopan</effectcategory>
                        <effecttype>audiopan</effecttype>
                        <mediatype>audio</mediatype>
                        <parameter>
                          <name>Pan</name>
                          <parameterid>pan</parameterid>
                          <valuemin>-1</valuemin>
                          <valuemax>1</valuemax>
                          <value>-1</value>
                        </parameter>
                      </effect>
                    </filter>
                    <sourcetrack>
                      <mediatype>audio</mediatype>
                      <trackindex>1</trackindex>
                    </sourcetrack>
                    <link>
                      <linkclipref>clipv-9</linkclipref>
                      <mediatype>video</mediatype>
                      <trackindex>1</trackindex>
                    </link>
                    <link>
                      <linkclipref>clipa1-9</linkclipref>
                      <mediatype>audio</mediatype>
                      <trackindex>1</trackindex>
                      <groupindex>1</groupindex>
                    </link>
                    <link>
                      <linkclipref>clipa2-9</linkclipref>
                      <mediatype>audio</mediatype>
                      <trackindex>2</trackindex>
                      <groupindex>1</groupindex>
                    </link>
                  </clipitem>
                </track>
                <track>
                  <clipitem id="clipa2-9">
                    <rate>
                      <ntsc>false</ntsc>
                      <timebase>25</timebase>
                    </rate>
                    <name>2024-07-19_LAC_MICHAEL-KIWANUKA_PGM.mxf</name>
                    <file id="src-9"/>
                    <filter>
                      <effect>
                        <name>Audio Pan</name>
                        <effectid>audiopan</effectid>
                        <effectcategory>audiopan</effectcategory>
                        <effecttype>audiopan</effecttype>
                        <mediatype>audio</mediatype>
                        <parameter>
                          <name>Pan</name>
                          <parameterid>pan</parameterid>
                          <valuemin>-1</valuemin>
                          <valuemax>1</valuemax>
                          <value>1</value>
                        </parameter>
                      </effect>
                    </filter>
                    <sourcetrack>
                      <mediatype>audio</mediatype>
                      <trackindex>2</trackindex>
                    </sourcetrack>
                    <link>
                      <linkclipref>clipv-9</linkclipref>
                      <mediatype>video</mediatype>
                      <trackindex>1</trackindex>
                    </link>
                    <link>
                      <linkclipref>clipa1-9</linkclipref>
                      <mediatype>audio</mediatype>
                      <trackindex>1</trackindex>
                      <groupindex>1</groupindex>
                    </link>
                    <link>
                      <linkclipref>clipa2-9</linkclipref>
                      <mediatype>audio</mediatype>
                      <trackindex>2</trackindex>
                      <groupindex>1</groupindex>
                    </link>
                  </clipitem>
                </track>
              </audio>
            </media>
          </clip>
        </children>
      </bin>
      <bin>
        <name>Bin</name>
        <children>
          <clip id="clip-master">
            <duration>110867</duration>
            <rate>
              <ntsc>false</ntsc>
              <timebase>25</timebase>
            </rate>
            <anamorphic>false</anamorphic>
            <ismasterclip>true</ismasterclip>
            <media>
              <video>
                <track>
                  <enabled>true</enabled>
                  <locked>false</locked>
                  <clipitem id="clip-multi">
                    <duration>110867</duration>
                    <rate>
                      <ntsc>false</ntsc>
                      <timebase>25</timebase>
                    </rate>
                    <name>Multiclip</name>
                    <sourcetrack>
                      <mediatype>video</mediatype>
                      <trackindex>1</trackindex>
                    </sourcetrack>
                    <anamorphic>false</anamorphic>
                    <multiclip id="multiclip-bin">
                      <name>MultiClip</name>
                      <collapsed>false</collapsed>
                      <masterclipid>clip-master</masterclipid>
                      <angle>
                        <clip id="clip-1"/>
                      </angle>
                      <angle>
                        <clip id="clip-2"/>
                      </angle>
                      <angle>
                        <clip id="clip-3"/>
                      </angle>
                      <angle>
                        <clip id="clip-4"/>
                      </angle>
                      <angle>
                        <clip id="clip-5"/>
                      </angle>
                      <angle>
                        <clip id="clip-6"/>
                      </angle>
                      <angle>
                        <clip id="clip-7"/>
                      </angle>
                      <angle>
                        <clip id="clip-8"/>
                      </angle>
                      <angle>
                        <clip id="clip-9"/>
                      </angle>
                    </multiclip>
                  </clipitem>
                </track>
              </video>
              <audio>
                <track>
                  <clipitem id="clipa1-multi">
                    <name>Multiclip</name>
                    <file id="src-1"/>
                    <sourcetrack>
                      <mediatype>audio</mediatype>
                      <trackindex>1</trackindex>
                    </sourcetrack>
                    <link>
                      <linkclipref>clip-multi</linkclipref>
                      <mediatype>video</mediatype>
                      <trackindex>1</trackindex>
                    </link>
                    <link>
                      <linkclipref>clipa1-multi</linkclipref>
                      <mediatype>audio</mediatype>
                      <trackindex>1</trackindex>
                      <groupindex>1</groupindex>
                    </link>
                    <link>
                      <linkclipref>clipa2-multi</linkclipref>
                      <mediatype>audio</mediatype>
                      <trackindex>2</trackindex>
                      <groupindex>1</groupindex>
                    </link>
                    <multiclip id="multiclip-bin"/>
                  </clipitem>
                </track>
                <track>
                  <clipitem id="clipa2-multi">
                    <name>Multiclip</name>
                    <file id="src-1"/>
                    <sourcetrack>
                      <mediatype>audio</mediatype>
                      <trackindex>2</trackindex>
                    </sourcetrack>
                    <link>
                      <linkclipref>clip-multi</linkclipref>
                      <mediatype>video</mediatype>
                      <trackindex>1</trackindex>
                    </link>
                    <link>
                      <linkclipref>clipa1-multi</linkclipref>
                      <mediatype>audio</mediatype>
                      <trackindex>1</trackindex>
                      <groupindex>1</groupindex>
                    </link>
                    <link>
                      <linkclipref>clipa2-multi</linkclipref>
                      <mediatype>audio</mediatype>
                      <trackindex>2</trackindex>
                      <groupindex>1</groupindex>
                    </link>
                    <multiclip id="multiclip-bin"/>
                  </clipitem>
                </track>
              </audio>
            </media>
          </clip>
        </children>
      </bin>
      <sequence>
        <name>Sequence</name>
        <duration>110867</duration>
        <rate>
          <ntsc>false</ntsc>
          <timebase>25</timebase>
        </rate>
        <timecode>
          <string>08:15:50:18</string>
          <frame>743768</frame>
        </timecode>
        <media>
          <video>
            <format>
              <samplecharacteristics>
                <width>3840</width>
                <height>2160</height>
                <anamorphic>false</anamorphic>
                <pixelaspectratio>square</pixelaspectratio>
                <rate>
                  <ntsc>false</ntsc>
                  <timebase>25</timebase>
                </rate>
              </samplecharacteristics>
            </format>
            <track>
              <clipitem id="cs-263">
                <duration>92</duration>
                <rate>
                  <ntsc>false</ntsc>
                  <timebase>25</timebase>
                </rate>
                <in>0</in>
                <out>91</out>
                <start>0</start>
                <end>91</end>
                <file id="src-5"/>
                <sourcetrack>
                  <mediatype>video</mediatype>
                  <trackindex>1</trackindex>
                </sourcetrack>
                <multiclip id="mcs-263">
                  <name>MCS-263</name>
                  <masterclipid>clip-master</masterclipid>
                  <collapsed>false</collapsed>
                  <angle>
                    <activevideoangle>false</activevideoangle>
                    <activeaudioangle>false</activeaudioangle>
                    <clip id="clip-1"/>
                  </angle>
                  <angle>
                    <activevideoangle>false</activevideoangle>
                    <activeaudioangle>false</activeaudioangle>
                    <clip id="clip-2"/>
                  </angle>
                  <angle>
                    <activevideoangle>false</activevideoangle>
                    <activeaudioangle>false</activeaudioangle>
                    <clip id="clip-3"/>
                  </angle>
                  <angle>
                    <activevideoangle>false</activevideoangle>
                    <activeaudioangle>false</activeaudioangle>
                    <clip id="clip-4"/>
                  </angle>
                  <angle>
                    <activevideoangle>true</activevideoangle>
                    <activeaudioangle>true</activeaudioangle>
                    <clip id="clip-5"/>
                  </angle>
                  <angle>
                    <activevideoangle>false</activevideoangle>
                    <activeaudioangle>false</activeaudioangle>
                    <clip id="clip-6"/>
                  </angle>
                  <angle>
                    <activevideoangle>false</activevideoangle>
                    <activeaudioangle>false</activeaudioangle>
                    <clip id="clip-7"/>
                  </angle>
                  <angle>
                    <activevideoangle>false</activevideoangle>
                    <activeaudioangle>false</activeaudioangle>
                    <clip id="clip-8"/>
                  </angle>
                  <angle>
                    <activevideoangle>false</activevideoangle>
                    <activeaudioangle>false</activeaudioangle>
                    <clip id="clip-9"/>
                  </angle>
                  <masterclipid>clip-master</masterclipid>
                </multiclip>
              </clipitem>
              <clipitem id="cs-264">
                <duration>53</duration>
                <rate>
                  <ntsc>false</ntsc>
                  <timebase>25</timebase>
                </rate>
                <in>91</in>
                <out>143</out>
                <start>91</start>
                <end>143</end>
                <file id="src-3"/>
                <sourcetrack>
                  <mediatype>video</mediatype>
                  <trackindex>1</trackindex>
                </sourcetrack>
                <multiclip id="mcs-264">
                  <name>MCS-264</name>
                  <masterclipid>clip-master</masterclipid>
                  <collapsed>false</collapsed>
                  <angle>
                    <activevideoangle>false</activevideoangle>
                    <activeaudioangle>false</activeaudioangle>
                    <clip id="clip-1"/>
                  </angle>
                  <angle>
                    <activevideoangle>false</activevideoangle>
                    <activeaudioangle>false</activeaudioangle>
                    <clip id="clip-2"/>
                  </angle>
                  <angle>
                    <activevideoangle>true</activevideoangle>
                    <activeaudioangle>true</activeaudioangle>
                    <clip id="clip-3"/>
                  </angle>
                  <angle>
                    <activevideoangle>false</activevideoangle>
                    <activeaudioangle>false</activeaudioangle>
                    <clip id="clip-4"/>
                  </angle>
                  <angle>
                    <activevideoangle>false</activevideoangle>
                    <activeaudioangle>false</activeaudioangle>
                    <clip id="clip-5"/>
                  </angle>
                  <angle>
                    <activevideoangle>false</activevideoangle>
                    <activeaudioangle>false</activeaudioangle>
                    <clip id="clip-6"/>
                  </angle>
                  <angle>
                    <activevideoangle>false</activevideoangle>
                    <activeaudioangle>false</activeaudioangle>
                    <clip id="clip-7"/>
                  </angle>
                  <angle>
                    <activevideoangle>false</activevideoangle>
                    <activeaudioangle>false</activeaudioangle>
                    <clip id="clip-8"/>
                  </angle>
                  <angle>
                    <activevideoangle>false</activevideoangle>
                    <activeaudioangle>false</activeaudioangle>
                    <clip id="clip-9"/>
                  </angle>
                  <masterclipid>clip-master</masterclipid>
                </multiclip>
              </clipitem>
              <clipitem id="cs-265">
                <duration>227</duration>
                <rate>
                  <ntsc>false</ntsc>
                  <timebase>25</timebase>
                </rate>
                <in>143</in>
                <out>369</out>
                <start>143</start>
                <end>369</end>
                <file id="src-2"/>
                <sourcetrack>
                  <mediatype>video</mediatype>
                  <trackindex>1</trackindex>
                </sourcetrack>
                <multiclip id="mcs-265">
                  <name>MCS-265</name>
                  <masterclipid>clip-master</masterclipid>
                  <collapsed>false</collapsed>
                  <angle>
                    <activevideoangle>false</activevideoangle>
                    <activeaudioangle>false</activeaudioangle>
                    <clip id="clip-1"/>
                  </angle>
                  <angle>
                    <activevideoangle>true</activevideoangle>
                    <activeaudioangle>true</activeaudioangle>
                    <clip id="clip-2"/>
                  </angle>
                  <angle>
                    <activevideoangle>false</activevideoangle>
                    <activeaudioangle>false</activeaudioangle>
                    <clip id="clip-3"/>
                  </angle>
                  <angle>
                    <activevideoangle>false</activevideoangle>
                    <activeaudioangle>false</activeaudioangle>
                    <clip id="clip-4"/>
                  </angle>
                  <angle>
                    <activevideoangle>false</activevideoangle>
                    <activeaudioangle>false</activeaudioangle>
                    <clip id="clip-5"/>
                  </angle>
                  <angle>
                    <activevideoangle>false</activevideoangle>
                    <activeaudioangle>false</activeaudioangle>
                    <clip id="clip-6"/>
                  </angle>
                  <angle>
                    <activevideoangle>false</activevideoangle>
                    <activeaudioangle>false</activeaudioangle>
                    <clip id="clip-7"/>
                  </angle>
                  <angle>
                    <activevideoangle>false</activevideoangle>
                    <activeaudioangle>false</activeaudioangle>
                    <clip id="clip-8"/>
                  </angle>
                  <angle>
                    <activevideoangle>false</activevideoangle>
                    <activeaudioangle>false</activeaudioangle>
                    <clip id="clip-9"/>
                  </angle>
                  <masterclipid>clip-master</masterclipid>
                </multiclip>
              </clipitem>
              <clipitem id="cs-266">
                <duration>52</duration>
                <rate>
                  <ntsc>false</ntsc>
                  <timebase>25</timebase>
                </rate>
                <in>369</in>
                <out>420</out>
                <start>369</start>
                <end>420</end>
                <file id="src-3"/>
                <sourcetrack>
                  <mediatype>video</mediatype>
                  <trackindex>1</trackindex>
                </sourcetrack>
                <multiclip id="mcs-266">
                  <name>MCS-266</name>
                  <masterclipid>clip-master</masterclipid>
                  <collapsed>false</collapsed>
                  <angle>
                    <activevideoangle>false</activevideoangle>
                    <activeaudioangle>false</activeaudioangle>
                    <clip id="clip-1"/>
                  </angle>
                  <angle>
                    <activevideoangle>false</activevideoangle>
                    <activeaudioangle>false</activeaudioangle>
                    <clip id="clip-2"/>
                  </angle>
                  <angle>
                    <activevideoangle>true</activevideoangle>
                    <activeaudioangle>true</activeaudioangle>
                    <clip id="clip-3"/>
                  </angle>
                  <angle>
                    <activevideoangle>false</activevideoangle>
                    <activeaudioangle>false</activeaudioangle>
                    <clip id="clip-4"/>
                  </angle>
                  <angle>
                    <activevideoangle>false</activevideoangle>
                    <activeaudioangle>false</activeaudioangle>
                    <clip id="clip-5"/>
                  </angle>
                  <angle>
                    <activevideoangle>false</activevideoangle>
                    <activeaudioangle>false</activeaudioangle>
                    <clip id="clip-6"/>
                  </angle>
                  <angle>
                    <activevideoangle>false</activevideoangle>
                    <activeaudioangle>false</activeaudioangle>
                    <clip id="clip-7"/>
                  </angle>
                  <angle>
                    <activevideoangle>false</activevideoangle>
                    <activeaudioangle>false</activeaudioangle>
                    <clip id="clip-8"/>
                  </angle>
                  <angle>
                    <activevideoangle>false</activevideoangle>
                    <activeaudioangle>false</activeaudioangle>
                    <clip id="clip-9"/>
                  </angle>
                  <masterclipid>clip-master</masterclipid>
                </multiclip>
              </clipitem>
              <clipitem id="cs-267">
                <duration>61</duration>
                <rate>
                  <ntsc>false</ntsc>
                  <timebase>25</timebase>
                </rate>
                <in>420</in>
                <out>480</out>
                <start>420</start>
                <end>480</end>
                <file id="src-4"/>
                <sourcetrack>
                  <mediatype>video</mediatype>
                  <trackindex>1</trackindex>
                </sourcetrack>
                <multiclip id="mcs-267">
                  <name>MCS-267</name>
                  <masterclipid>clip-master</masterclipid>
                  <collapsed>false</collapsed>
                  <angle>
                    <activevideoangle>false</activevideoangle>
                    <activeaudioangle>false</activeaudioangle>
                    <clip id="clip-1"/>
                  </angle>
                  <angle>
                    <activevideoangle>false</activevideoangle>
                    <activeaudioangle>false</activeaudioangle>
                    <clip id="clip-2"/>
                  </angle>
                  <angle>
                    <activevideoangle>false</activevideoangle>
                    <activeaudioangle>false</activeaudioangle>
                    <clip id="clip-3"/>
                  </angle>
                  <angle>
                    <activevideoangle>true</activevideoangle>
                    <activeaudioangle>true</activeaudioangle>
                    <clip id="clip-4"/>
                  </angle>
                  <angle>
                    <activevideoangle>false</activevideoangle>
                    <activeaudioangle>false</activeaudioangle>
                    <clip id="clip-5"/>
                  </angle>
                  <angle>
                    <activevideoangle>false</activevideoangle>
                    <activeaudioangle>false</activeaudioangle>
                    <clip id="clip-6"/>
                  </angle>
                  <angle>
                    <activevideoangle>false</activevideoangle>
                    <activeaudioangle>false</activeaudioangle>
                    <clip id="clip-7"/>
                  </angle>
                  <angle>
                    <activevideoangle>false</activevideoangle>
                    <activeaudioangle>false</activeaudioangle>
                    <clip id="clip-8"/>
                  </angle>
                  <angle>
                    <activevideoangle>false</activevideoangle>
                    <activeaudioangle>false</activeaudioangle>
                    <clip id="clip-9"/>
                  </angle>
                  <masterclipid>clip-master</masterclipid>
                </multiclip>
              </clipitem>
              <clipitem id="cs-268">
                <duration>120</duration>
                <rate>
                  <ntsc>false</ntsc>
                  <timebase>25</timebase>
                </rate>
                <in>480</in>
                <out>599</out>
                <start>480</start>
                <end>599</end>
                <file id="src-2"/>
                <sourcetrack>
                  <mediatype>video</mediatype>
                  <trackindex>1</trackindex>
                </sourcetrack>
                <multiclip id="mcs-268">
                  <name>MCS-268</name>
                  <masterclipid>clip-master</masterclipid>
                  <collapsed>false</collapsed>
                  <angle>
                    <activevideoangle>false</activevideoangle>
                    <activeaudioangle>false</activeaudioangle>
                    <clip id="clip-1"/>
                  </angle>
                  <angle>
                    <activevideoangle>true</activevideoangle>
                    <activeaudioangle>true</activeaudioangle>
                    <clip id="clip-2"/>
                  </angle>
                  <angle>
                    <activevideoangle>false</activevideoangle>
                    <activeaudioangle>false</activeaudioangle>
                    <clip id="clip-3"/>
                  </angle>
                  <angle>
                    <activevideoangle>false</activevideoangle>
                    <activeaudioangle>false</activeaudioangle>
                    <clip id="clip-4"/>
                  </angle>
                  <angle>
                    <activevideoangle>false</activevideoangle>
                    <activeaudioangle>false</activeaudioangle>
                    <clip id="clip-5"/>
                  </angle>
                  <angle>
                    <activevideoangle>false</activevideoangle>
                    <activeaudioangle>false</activeaudioangle>
                    <clip id="clip-6"/>
                  </angle>
                  <angle>
                    <activevideoangle>false</activevideoangle>
                    <activeaudioangle>false</activeaudioangle>
                    <clip id="clip-7"/>
                  </angle>
                  <angle>
                    <activevideoangle>false</activevideoangle>
                    <activeaudioangle>false</activeaudioangle>
                    <clip id="clip-8"/>
                  </angle>
                  <angle>
                    <activevideoangle>false</activevideoangle>
                    <activeaudioangle>false</activeaudioangle>
                    <clip id="clip-9"/>
                  </angle>
                  <masterclipid>clip-master</masterclipid>
                </multiclip>
              </clipitem>
              <clipitem id="cs-269">
                <duration>115</duration>
                <rate>
                  <ntsc>false</ntsc>
                  <timebase>25</timebase>
                </rate>
                <in>599</in>
                <out>713</out>
                <start>599</start>
                <end>713</end>
                <file id="src-5"/>
                <sourcetrack>
                  <mediatype>video</mediatype>
                  <trackindex>1</trackindex>
                </sourcetrack>
                <multiclip id="mcs-269">
                  <name>MCS-269</name>
                  <masterclipid>clip-master</masterclipid>
                  <collapsed>false</collapsed>
                  <angle>
                    <activevideoangle>false</activevideoangle>
                    <activeaudioangle>false</activeaudioangle>
                    <clip id="clip-1"/>
                  </angle>
                  <angle>
                    <activevideoangle>false</activevideoangle>
                    <activeaudioangle>false</activeaudioangle>
                    <clip id="clip-2"/>
                  </angle>
                  <angle>
                    <activevideoangle>false</activevideoangle>
                    <activeaudioangle>false</activeaudioangle>
                    <clip id="clip-3"/>
                  </angle>
                  <angle>
                    <activevideoangle>false</activevideoangle>
                    <activeaudioangle>false</activeaudioangle>
                    <clip id="clip-4"/>
                  </angle>
                  <angle>
                    <activevideoangle>true</activevideoangle>
                    <activeaudioangle>true</activeaudioangle>
                    <clip id="clip-5"/>
                  </angle>
                  <angle>
                    <activevideoangle>false</activevideoangle>
                    <activeaudioangle>false</activeaudioangle>
                    <clip id="clip-6"/>
                  </angle>
                  <angle>
                    <activevideoangle>false</activevideoangle>
                    <activeaudioangle>false</activeaudioangle>
                    <clip id="clip-7"/>
                  </angle>
                  <angle>
                    <activevideoangle>false</activevideoangle>
                    <activeaudioangle>false</activeaudioangle>
                    <clip id="clip-8"/>
                  </angle>
                  <angle>
                    <activevideoangle>false</activevideoangle>
                    <activeaudioangle>false</activeaudioangle>
                    <clip id="clip-9"/>
                  </angle>
                  <masterclipid>clip-master</masterclipid>
                </multiclip>
              </clipitem>
              <clipitem id="cs-270">
                <duration>47</duration>
                <rate>
                  <ntsc>false</ntsc>
                  <timebase>25</timebase>
                </rate>
                <in>713</in>
                <out>759</out>
                <start>713</start>
                <end>759</end>
                <file id="src-7"/>
                <sourcetrack>
                  <mediatype>video</mediatype>
                  <trackindex>1</trackindex>
                </sourcetrack>
                <multiclip id="mcs-270">
                  <name>MCS-270</name>
                  <masterclipid>clip-master</masterclipid>
                  <collapsed>false</collapsed>
                  <angle>
                    <activevideoangle>false</activevideoangle>
                    <activeaudioangle>false</activeaudioangle>
                    <clip id="clip-1"/>
                  </angle>
                  <angle>
                    <activevideoangle>false</activevideoangle>
                    <activeaudioangle>false</activeaudioangle>
                    <clip id="clip-2"/>
                  </angle>
                  <angle>
                    <activevideoangle>false</activevideoangle>
                    <activeaudioangle>false</activeaudioangle>
                    <clip id="clip-3"/>
                  </angle>
                  <angle>
                    <activevideoangle>false</activevideoangle>
                    <activeaudioangle>false</activeaudioangle>
                    <clip id="clip-4"/>
                  </angle>
                  <angle>
                    <activevideoangle>false</activevideoangle>
                    <activeaudioangle>false</activeaudioangle>
                    <clip id="clip-5"/>
                  </angle>
                  <angle>
                    <activevideoangle>false</activevideoangle>
                    <activeaudioangle>false</activeaudioangle>
                    <clip id="clip-6"/>
                  </angle>
                  <angle>
                    <activevideoangle>true</activevideoangle>
                    <activeaudioangle>true</activeaudioangle>
                    <clip id="clip-7"/>
                  </angle>
                  <angle>
                    <activevideoangle>false</activevideoangle>
                    <activeaudioangle>false</activeaudioangle>
                    <clip id="clip-8"/>
                  </angle>
                  <angle>
                    <activevideoangle>false</activevideoangle>
                    <activeaudioangle>false</activeaudioangle>
                    <clip id="clip-9"/>
                  </angle>
                  <masterclipid>clip-master</masterclipid>
                </multiclip>
              </clipitem>
              <clipitem id="cs-271">
                <duration>52</duration>
                <rate>
                  <ntsc>false</ntsc>
                  <timebase>25</timebase>
                </rate>
                <in>759</in>
                <out>810</out>
                <start>759</start>
                <end>810</end>
                <file id="src-4"/>
                <sourcetrack>
                  <mediatype>video</mediatype>
                  <trackindex>1</trackindex>
                </sourcetrack>
                <multiclip id="mcs-271">
                  <name>MCS-271</name>
                  <masterclipid>clip-master</masterclipid>
                  <collapsed>false</collapsed>
                  <angle>
                    <activevideoangle>false</activevideoangle>
                    <activeaudioangle>false</activeaudioangle>
                    <clip id="clip-1"/>
                  </angle>
                  <angle>
                    <activevideoangle>false</activevideoangle>
                    <activeaudioangle>false</activeaudioangle>
                    <clip id="clip-2"/>
                  </angle>
                  <angle>
                    <activevideoangle>false</activevideoangle>
                    <activeaudioangle>false</activeaudioangle>
                    <clip id="clip-3"/>
                  </angle>
                  <angle>
                    <activevideoangle>true</activevideoangle>
                    <activeaudioangle>true</activeaudioangle>
                    <clip id="clip-4"/>
                  </angle>
                  <angle>
                    <activevideoangle>false</activevideoangle>
                    <activeaudioangle>false</activeaudioangle>
                    <clip id="clip-5"/>
                  </angle>
                  <angle>
                    <activevideoangle>false</activevideoangle>
                    <activeaudioangle>false</activeaudioangle>
                    <clip id="clip-6"/>
                  </angle>
                  <angle>
                    <activevideoangle>false</activevideoangle>
                    <activeaudioangle>false</activeaudioangle>
                    <clip id="clip-7"/>
                  </angle>
                  <angle>
                    <activevideoangle>false</activevideoangle>
                    <activeaudioangle>false</activeaudioangle>
                    <clip id="clip-8"/>
                  </angle>
                  <angle>
                    <activevideoangle>false</activevideoangle>
                    <activeaudioangle>false</activeaudioangle>
                    <clip id="clip-9"/>
                  </angle>
                  <masterclipid>clip-master</masterclipid>
                </multiclip>
              </clipitem>
              <clipitem id="cs-272">
                <duration>41</duration>
                <rate>
                  <ntsc>false</ntsc>
                  <timebase>25</timebase>
                </rate>
                <in>810</in>
                <out>850</out>
                <start>810</start>
                <end>850</end>
                <file id="src-3"/>
                <sourcetrack>
                  <mediatype>video</mediatype>
                  <trackindex>1</trackindex>
                </sourcetrack>
                <multiclip id="mcs-272">
                  <name>MCS-272</name>
                  <masterclipid>clip-master</masterclipid>
                  <collapsed>false</collapsed>
                  <angle>
                    <activevideoangle>false</activevideoangle>
                    <activeaudioangle>false</activeaudioangle>
                    <clip id="clip-1"/>
                  </angle>
                  <angle>
                    <activevideoangle>false</activevideoangle>
                    <activeaudioangle>false</activeaudioangle>
                    <clip id="clip-2"/>
                  </angle>
                  <angle>
                    <activevideoangle>true</activevideoangle>
                    <activeaudioangle>true</activeaudioangle>
                    <clip id="clip-3"/>
                  </angle>
                  <angle>
                    <activevideoangle>false</activevideoangle>
                    <activeaudioangle>false</activeaudioangle>
                    <clip id="clip-4"/>
                  </angle>
                  <angle>
                    <activevideoangle>false</activevideoangle>
                    <activeaudioangle>false</activeaudioangle>
                    <clip id="clip-5"/>
                  </angle>
                  <angle>
                    <activevideoangle>false</activevideoangle>
                    <activeaudioangle>false</activeaudioangle>
                    <clip id="clip-6"/>
                  </angle>
                  <angle>
                    <activevideoangle>false</activevideoangle>
                    <activeaudioangle>false</activeaudioangle>
                    <clip id="clip-7"/>
                  </angle>
                  <angle>
                    <activevideoangle>false</activevideoangle>
                    <activeaudioangle>false</activeaudioangle>
                    <clip id="clip-8"/>
                  </angle>
                  <angle>
                    <activevideoangle>false</activevideoangle>
                    <activeaudioangle>false</activeaudioangle>
                    <clip id="clip-9"/>
                  </angle>
                  <masterclipid>clip-master</masterclipid>
                </multiclip>
              </clipitem>
              <clipitem id="cs-273">
                <duration>108</duration>
                <rate>
                  <ntsc>false</ntsc>
                  <timebase>25</timebase>
                </rate>
                <in>850</in>
                <out>957</out>
                <start>850</start>
                <end>957</end>
                <file id="src-2"/>
                <sourcetrack>
                  <mediatype>video</mediatype>
                  <trackindex>1</trackindex>
                </sourcetrack>
                <multiclip id="mcs-273">
                  <name>MCS-273</name>
                  <masterclipid>clip-master</masterclipid>
                  <collapsed>false</collapsed>
                  <angle>
                    <activevideoangle>false</activevideoangle>
                    <activeaudioangle>false</activeaudioangle>
                    <clip id="clip-1"/>
                  </angle>
                  <angle>
                    <activevideoangle>true</activevideoangle>
                    <activeaudioangle>true</activeaudioangle>
                    <clip id="clip-2"/>
                  </angle>
                  <angle>
                    <activevideoangle>false</activevideoangle>
                    <activeaudioangle>false</activeaudioangle>
                    <clip id="clip-3"/>
                  </angle>
                  <angle>
                    <activevideoangle>false</activevideoangle>
                    <activeaudioangle>false</activeaudioangle>
                    <clip id="clip-4"/>
                  </angle>
                  <angle>
                    <activevideoangle>false</activevideoangle>
                    <activeaudioangle>false</activeaudioangle>
                    <clip id="clip-5"/>
                  </angle>
                  <angle>
                    <activevideoangle>false</activevideoangle>
                    <activeaudioangle>false</activeaudioangle>
                    <clip id="clip-6"/>
                  </angle>
                  <angle>
                    <activevideoangle>false</activevideoangle>
                    <activeaudioangle>false</activeaudioangle>
                    <clip id="clip-7"/>
                  </angle>
                  <angle>
                    <activevideoangle>false</activevideoangle>
                    <activeaudioangle>false</activeaudioangle>
                    <clip id="clip-8"/>
                  </angle>
                  <angle>
                    <activevideoangle>false</activevideoangle>
                    <activeaudioangle>false</activeaudioangle>
                    <clip id="clip-9"/>
                  </angle>
                  <masterclipid>clip-master</masterclipid>
                </multiclip>
              </clipitem>
              <clipitem id="cs-274">
                <duration>140</duration>
                <rate>
                  <ntsc>false</ntsc>
                  <timebase>25</timebase>
                </rate>
                <in>957</in>
                <out>1096</out>
                <start>957</start>
                <end>1096</end>
                <file id="src-5"/>
                <sourcetrack>
                  <mediatype>video</mediatype>
                  <trackindex>1</trackindex>
                </sourcetrack>
                <multiclip id="mcs-274">
                  <name>MCS-274</name>
                  <masterclipid>clip-master</masterclipid>
                  <collapsed>false</collapsed>
                  <angle>
                    <activevideoangle>false</activevideoangle>
                    <activeaudioangle>false</activeaudioangle>
                    <clip id="clip-1"/>
                  </angle>
                  <angle>
                    <activevideoangle>false</activevideoangle>
                    <activeaudioangle>false</activeaudioangle>
                    <clip id="clip-2"/>
                  </angle>
                  <angle>
                    <activevideoangle>false</activevideoangle>
                    <activeaudioangle>false</activeaudioangle>
                    <clip id="clip-3"/>
                  </angle>
                  <angle>
                    <activevideoangle>false</activevideoangle>
                    <activeaudioangle>false</activeaudioangle>
                    <clip id="clip-4"/>
                  </angle>
                  <angle>
                    <activevideoangle>true</activevideoangle>
                    <activeaudioangle>true</activeaudioangle>
                    <clip id="clip-5"/>
                  </angle>
                  <angle>
                    <activevideoangle>false</activevideoangle>
                    <activeaudioangle>false</activeaudioangle>
                    <clip id="clip-6"/>
                  </angle>
                  <angle>
                    <activevideoangle>false</activevideoangle>
                    <activeaudioangle>false</activeaudioangle>
                    <clip id="clip-7"/>
                  </angle>
                  <angle>
                    <activevideoangle>false</activevideoangle>
                    <activeaudioangle>false</activeaudioangle>
                    <clip id="clip-8"/>
                  </angle>
                  <angle>
                    <activevideoangle>false</activevideoangle>
                    <activeaudioangle>false</activeaudioangle>
                    <clip id="clip-9"/>
                  </angle>
                  <masterclipid>clip-master</masterclipid>
                </multiclip>
              </clipitem>
              <clipitem id="cs-275">
                <duration>67</duration>
                <rate>
                  <ntsc>false</ntsc>
                  <timebase>25</timebase>
                </rate>
                <in>1096</in>
                <out>1162</out>
                <start>1096</start>
                <end>1162</end>
                <file id="src-8"/>
                <sourcetrack>
                  <mediatype>video</mediatype>
                  <trackindex>1</trackindex>
                </sourcetrack>
                <multiclip id="mcs-275">
                  <name>MCS-275</name>
                  <masterclipid>clip-master</masterclipid>
                  <collapsed>false</collapsed>
                  <angle>
                    <activevideoangle>false</activevideoangle>
                    <activeaudioangle>false</activeaudioangle>
                    <clip id="clip-1"/>
                  </angle>
                  <angle>
                    <activevideoangle>false</activevideoangle>
                    <activeaudioangle>false</activeaudioangle>
                    <clip id="clip-2"/>
                  </angle>
                  <angle>
                    <activevideoangle>false</activevideoangle>
                    <activeaudioangle>false</activeaudioangle>
                    <clip id="clip-3"/>
                  </angle>
                  <angle>
                    <activevideoangle>false</activevideoangle>
                    <activeaudioangle>false</activeaudioangle>
                    <clip id="clip-4"/>
                  </angle>
                  <angle>
                    <activevideoangle>false</activevideoangle>
                    <activeaudioangle>false</activeaudioangle>
                    <clip id="clip-5"/>
                  </angle>
                  <angle>
                    <activevideoangle>false</activevideoangle>
                    <activeaudioangle>false</activeaudioangle>
                    <clip id="clip-6"/>
                  </angle>
                  <angle>
                    <activevideoangle>false</activevideoangle>
                    <activeaudioangle>false</activeaudioangle>
                    <clip id="clip-7"/>
                  </angle>
                  <angle>
                    <activevideoangle>true</activevideoangle>
                    <activeaudioangle>true</activeaudioangle>
                    <clip id="clip-8"/>
                  </angle>
                  <angle>
                    <activevideoangle>false</activevideoangle>
                    <activeaudioangle>false</activeaudioangle>
                    <clip id="clip-9"/>
                  </angle>
                  <masterclipid>clip-master</masterclipid>
                </multiclip>
              </clipitem>
              <clipitem id="cs-276">
                <duration>74</duration>
                <rate>
                  <ntsc>false</ntsc>
                  <timebase>25</timebase>
                </rate>
                <in>1162</in>
                <out>1235</out>
                <start>1162</start>
                <end>1235</end>
                <file id="src-4"/>
                <sourcetrack>
                  <mediatype>video</mediatype>
                  <trackindex>1</trackindex>
                </sourcetrack>
                <multiclip id="mcs-276">
                  <name>MCS-276</name>
                  <masterclipid>clip-master</masterclipid>
                  <collapsed>false</collapsed>
                  <angle>
                    <activevideoangle>false</activevideoangle>
                    <activeaudioangle>false</activeaudioangle>
                    <clip id="clip-1"/>
                  </angle>
                  <angle>
                    <activevideoangle>false</activevideoangle>
                    <activeaudioangle>false</activeaudioangle>
                    <clip id="clip-2"/>
                  </angle>
                  <angle>
                    <activevideoangle>false</activevideoangle>
                    <activeaudioangle>false</activeaudioangle>
                    <clip id="clip-3"/>
                  </angle>
                  <angle>
                    <activevideoangle>true</activevideoangle>
                    <activeaudioangle>true</activeaudioangle>
                    <clip id="clip-4"/>
                  </angle>
                  <angle>
                    <activevideoangle>false</activevideoangle>
                    <activeaudioangle>false</activeaudioangle>
                    <clip id="clip-5"/>
                  </angle>
                  <angle>
                    <activevideoangle>false</activevideoangle>
                    <activeaudioangle>false</activeaudioangle>
                    <clip id="clip-6"/>
                  </angle>
                  <angle>
                    <activevideoangle>false</activevideoangle>
                    <activeaudioangle>false</activeaudioangle>
                    <clip id="clip-7"/>
                  </angle>
                  <angle>
                    <activevideoangle>false</activevideoangle>
                    <activeaudioangle>false</activeaudioangle>
                    <clip id="clip-8"/>
                  </angle>
                  <angle>
                    <activevideoangle>false</activevideoangle>
                    <activeaudioangle>false</activeaudioangle>
                    <clip id="clip-9"/>
                  </angle>
                  <masterclipid>clip-master</masterclipid>
                </multiclip>
              </clipitem>
              <clipitem id="cs-277">
                <duration>170</duration>
                <rate>
                  <ntsc>false</ntsc>
                  <timebase>25</timebase>
                </rate>
                <in>1235</in>
                <out>1404</out>
                <start>1235</start>
                <end>1404</end>
                <file id="src-2"/>
                <sourcetrack>
                  <mediatype>video</mediatype>
                  <trackindex>1</trackindex>
                </sourcetrack>
                <multiclip id="mcs-277">
                  <name>MCS-277</name>
                  <masterclipid>clip-master</masterclipid>
                  <collapsed>false</collapsed>
                  <angle>
                    <activevideoangle>false</activevideoangle>
                    <activeaudioangle>false</activeaudioangle>
                    <clip id="clip-1"/>
                  </angle>
                  <angle>
                    <activevideoangle>true</activevideoangle>
                    <activeaudioangle>true</activeaudioangle>
                    <clip id="clip-2"/>
                  </angle>
                  <angle>
                    <activevideoangle>false</activevideoangle>
                    <activeaudioangle>false</activeaudioangle>
                    <clip id="clip-3"/>
                  </angle>
                  <angle>
                    <activevideoangle>false</activevideoangle>
                    <activeaudioangle>false</activeaudioangle>
                    <clip id="clip-4"/>
                  </angle>
                  <angle>
                    <activevideoangle>false</activevideoangle>
                    <activeaudioangle>false</activeaudioangle>
                    <clip id="clip-5"/>
                  </angle>
                  <angle>
                    <activevideoangle>false</activevideoangle>
                    <activeaudioangle>false</activeaudioangle>
                    <clip id="clip-6"/>
                  </angle>
                  <angle>
                    <activevideoangle>false</activevideoangle>
                    <activeaudioangle>false</activeaudioangle>
                    <clip id="clip-7"/>
                  </angle>
                  <angle>
                    <activevideoangle>false</activevideoangle>
                    <activeaudioangle>false</activeaudioangle>
                    <clip id="clip-8"/>
                  </angle>
                  <angle>
                    <activevideoangle>false</activevideoangle>
                    <activeaudioangle>false</activeaudioangle>
                    <clip id="clip-9"/>
                  </angle>
                  <masterclipid>clip-master</masterclipid>
                </multiclip>
              </clipitem>
              <clipitem id="cs-278">
                <duration>66</duration>
                <rate>
                  <ntsc>false</ntsc>
                  <timebase>25</timebase>
                </rate>
                <in>1404</in>
                <out>1469</out>
                <start>1404</start>
                <end>1469</end>
                <file id="src-1"/>
                <sourcetrack>
                  <mediatype>video</mediatype>
                  <trackindex>1</trackindex>
                </sourcetrack>
                <multiclip id="mcs-278">
                  <name>MCS-278</name>
                  <masterclipid>clip-master</masterclipid>
                  <collapsed>false</collapsed>
                  <angle>
                    <activevideoangle>true</activevideoangle>
                    <activeaudioangle>true</activeaudioangle>
                    <clip id="clip-1"/>
                  </angle>
                  <angle>
                    <activevideoangle>false</activevideoangle>
                    <activeaudioangle>false</activeaudioangle>
                    <clip id="clip-2"/>
                  </angle>
                  <angle>
                    <activevideoangle>false</activevideoangle>
                    <activeaudioangle>false</activeaudioangle>
                    <clip id="clip-3"/>
                  </angle>
                  <angle>
                    <activevideoangle>false</activevideoangle>
                    <activeaudioangle>false</activeaudioangle>
                    <clip id="clip-4"/>
                  </angle>
                  <angle>
                    <activevideoangle>false</activevideoangle>
                    <activeaudioangle>false</activeaudioangle>
                    <clip id="clip-5"/>
                  </angle>
                  <angle>
                    <activevideoangle>false</activevideoangle>
                    <activeaudioangle>false</activeaudioangle>
                    <clip id="clip-6"/>
                  </angle>
                  <angle>
                    <activevideoangle>false</activevideoangle>
                    <activeaudioangle>false</activeaudioangle>
                    <clip id="clip-7"/>
                  </angle>
                  <angle>
                    <activevideoangle>false</activevideoangle>
                    <activeaudioangle>false</activeaudioangle>
                    <clip id="clip-8"/>
                  </angle>
                  <angle>
                    <activevideoangle>false</activevideoangle>
                    <activeaudioangle>false</activeaudioangle>
                    <clip id="clip-9"/>
                  </angle>
                  <masterclipid>clip-master</masterclipid>
                </multiclip>
              </clipitem>
              <clipitem id="cs-279">
                <duration>89</duration>
                <rate>
                  <ntsc>false</ntsc>
                  <timebase>25</timebase>
                </rate>
                <in>1469</in>
                <out>1557</out>
                <start>1469</start>
                <end>1557</end>
                <file id="src-3"/>
                <sourcetrack>
                  <mediatype>video</mediatype>
                  <trackindex>1</trackindex>
                </sourcetrack>
                <multiclip id="mcs-279">
                  <name>MCS-279</name>
                  <masterclipid>clip-master</masterclipid>
                  <collapsed>false</collapsed>
                  <angle>
                    <activevideoangle>false</activevideoangle>
                    <activeaudioangle>false</activeaudioangle>
                    <clip id="clip-1"/>
                  </angle>
                  <angle>
                    <activevideoangle>false</activevideoangle>
                    <activeaudioangle>false</activeaudioangle>
                    <clip id="clip-2"/>
                  </angle>
                  <angle>
                    <activevideoangle>true</activevideoangle>
                    <activeaudioangle>true</activeaudioangle>
                    <clip id="clip-3"/>
                  </angle>
                  <angle>
                    <activevideoangle>false</activevideoangle>
                    <activeaudioangle>false</activeaudioangle>
                    <clip id="clip-4"/>
                  </angle>
                  <angle>
                    <activevideoangle>false</activevideoangle>
                    <activeaudioangle>false</activeaudioangle>
                    <clip id="clip-5"/>
                  </angle>
                  <angle>
                    <activevideoangle>false</activevideoangle>
                    <activeaudioangle>false</activeaudioangle>
                    <clip id="clip-6"/>
                  </angle>
                  <angle>
                    <activevideoangle>false</activevideoangle>
                    <activeaudioangle>false</activeaudioangle>
                    <clip id="clip-7"/>
                  </angle>
                  <angle>
                    <activevideoangle>false</activevideoangle>
                    <activeaudioangle>false</activeaudioangle>
                    <clip id="clip-8"/>
                  </angle>
                  <angle>
                    <activevideoangle>false</activevideoangle>
                    <activeaudioangle>false</activeaudioangle>
                    <clip id="clip-9"/>
                  </angle>
                  <masterclipid>clip-master</masterclipid>
                </multiclip>
              </clipitem>
              <clipitem id="cs-280">
                <duration>105</duration>
                <rate>
                  <ntsc>false</ntsc>
                  <timebase>25</timebase>
                </rate>
                <in>1557</in>
                <out>1661</out>
                <start>1557</start>
                <end>1661</end>
                <file id="src-2"/>
                <sourcetrack>
                  <mediatype>video</mediatype>
                  <trackindex>1</trackindex>
                </sourcetrack>
                <multiclip id="mcs-280">
                  <name>MCS-280</name>
                  <masterclipid>clip-master</masterclipid>
                  <collapsed>false</collapsed>
                  <angle>
                    <activevideoangle>false</activevideoangle>
                    <activeaudioangle>false</activeaudioangle>
                    <clip id="clip-1"/>
                  </angle>
                  <angle>
                    <activevideoangle>true</activevideoangle>
                    <activeaudioangle>true</activeaudioangle>
                    <clip id="clip-2"/>
                  </angle>
                  <angle>
                    <activevideoangle>false</activevideoangle>
                    <activeaudioangle>false</activeaudioangle>
                    <clip id="clip-3"/>
                  </angle>
                  <angle>
                    <activevideoangle>false</activevideoangle>
                    <activeaudioangle>false</activeaudioangle>
                    <clip id="clip-4"/>
                  </angle>
                  <angle>
                    <activevideoangle>false</activevideoangle>
                    <activeaudioangle>false</activeaudioangle>
                    <clip id="clip-5"/>
                  </angle>
                  <angle>
                    <activevideoangle>false</activevideoangle>
                    <activeaudioangle>false</activeaudioangle>
                    <clip id="clip-6"/>
                  </angle>
                  <angle>
                    <activevideoangle>false</activevideoangle>
                    <activeaudioangle>false</activeaudioangle>
                    <clip id="clip-7"/>
                  </angle>
                  <angle>
                    <activevideoangle>false</activevideoangle>
                    <activeaudioangle>false</activeaudioangle>
                    <clip id="clip-8"/>
                  </angle>
                  <angle>
                    <activevideoangle>false</activevideoangle>
                    <activeaudioangle>false</activeaudioangle>
                    <clip id="clip-9"/>
                  </angle>
                  <masterclipid>clip-master</masterclipid>
                </multiclip>
              </clipitem>
              <clipitem id="cs-281">
                <duration>93</duration>
                <rate>
                  <ntsc>false</ntsc>
                  <timebase>25</timebase>
                </rate>
                <in>1661</in>
                <out>1753</out>
                <start>1661</start>
                <end>1753</end>
                <file id="src-5"/>
                <sourcetrack>
                  <mediatype>video</mediatype>
                  <trackindex>1</trackindex>
                </sourcetrack>
                <multiclip id="mcs-281">
                  <name>MCS-281</name>
                  <masterclipid>clip-master</masterclipid>
                  <collapsed>false</collapsed>
                  <angle>
                    <activevideoangle>false</activevideoangle>
                    <activeaudioangle>false</activeaudioangle>
                    <clip id="clip-1"/>
                  </angle>
                  <angle>
                    <activevideoangle>false</activevideoangle>
                    <activeaudioangle>false</activeaudioangle>
                    <clip id="clip-2"/>
                  </angle>
                  <angle>
                    <activevideoangle>false</activevideoangle>
                    <activeaudioangle>false</activeaudioangle>
                    <clip id="clip-3"/>
                  </angle>
                  <angle>
                    <activevideoangle>false</activevideoangle>
                    <activeaudioangle>false</activeaudioangle>
                    <clip id="clip-4"/>
                  </angle>
                  <angle>
                    <activevideoangle>true</activevideoangle>
                    <activeaudioangle>true</activeaudioangle>
                    <clip id="clip-5"/>
                  </angle>
                  <angle>
                    <activevideoangle>false</activevideoangle>
                    <activeaudioangle>false</activeaudioangle>
                    <clip id="clip-6"/>
                  </angle>
                  <angle>
                    <activevideoangle>false</activevideoangle>
                    <activeaudioangle>false</activeaudioangle>
                    <clip id="clip-7"/>
                  </angle>
                  <angle>
                    <activevideoangle>false</activevideoangle>
                    <activeaudioangle>false</activeaudioangle>
                    <clip id="clip-8"/>
                  </angle>
                  <angle>
                    <activevideoangle>false</activevideoangle>
                    <activeaudioangle>false</activeaudioangle>
                    <clip id="clip-9"/>
                  </angle>
                  <masterclipid>clip-master</masterclipid>
                </multiclip>
              </clipitem>
              <clipitem id="cs-282">
                <duration>280</duration>
                <rate>
                  <ntsc>false</ntsc>
                  <timebase>25</timebase>
                </rate>
                <in>1753</in>
                <out>2032</out>
                <start>1753</start>
                <end>2032</end>
                <file id="src-7"/>
                <sourcetrack>
                  <mediatype>video</mediatype>
                  <trackindex>1</trackindex>
                </sourcetrack>
                <multiclip id="mcs-282">
                  <name>MCS-282</name>
                  <masterclipid>clip-master</masterclipid>
                  <collapsed>false</collapsed>
                  <angle>
                    <activevideoangle>false</activevideoangle>
                    <activeaudioangle>false</activeaudioangle>
                    <clip id="clip-1"/>
                  </angle>
                  <angle>
                    <activevideoangle>false</activevideoangle>
                    <activeaudioangle>false</activeaudioangle>
                    <clip id="clip-2"/>
                  </angle>
                  <angle>
                    <activevideoangle>false</activevideoangle>
                    <activeaudioangle>false</activeaudioangle>
                    <clip id="clip-3"/>
                  </angle>
                  <angle>
                    <activevideoangle>false</activevideoangle>
                    <activeaudioangle>false</activeaudioangle>
                    <clip id="clip-4"/>
                  </angle>
                  <angle>
                    <activevideoangle>false</activevideoangle>
                    <activeaudioangle>false</activeaudioangle>
                    <clip id="clip-5"/>
                  </angle>
                  <angle>
                    <activevideoangle>false</activevideoangle>
                    <activeaudioangle>false</activeaudioangle>
                    <clip id="clip-6"/>
                  </angle>
                  <angle>
                    <activevideoangle>true</activevideoangle>
                    <activeaudioangle>true</activeaudioangle>
                    <clip id="clip-7"/>
                  </angle>
                  <angle>
                    <activevideoangle>false</activevideoangle>
                    <activeaudioangle>false</activeaudioangle>
                    <clip id="clip-8"/>
                  </angle>
                  <angle>
                    <activevideoangle>false</activevideoangle>
                    <activeaudioangle>false</activeaudioangle>
                    <clip id="clip-9"/>
                  </angle>
                  <masterclipid>clip-master</masterclipid>
                </multiclip>
              </clipitem>
              <clipitem id="cs-283">
                <duration>74</duration>
                <rate>
                  <ntsc>false</ntsc>
                  <timebase>25</timebase>
                </rate>
                <in>2032</in>
                <out>2105</out>
                <start>2032</start>
                <end>2105</end>
                <file id="src-6"/>
                <sourcetrack>
                  <mediatype>video</mediatype>
                  <trackindex>1</trackindex>
                </sourcetrack>
                <multiclip id="mcs-283">
                  <name>MCS-283</name>
                  <masterclipid>clip-master</masterclipid>
                  <collapsed>false</collapsed>
                  <angle>
                    <activevideoangle>false</activevideoangle>
                    <activeaudioangle>false</activeaudioangle>
                    <clip id="clip-1"/>
                  </angle>
                  <angle>
                    <activevideoangle>false</activevideoangle>
                    <activeaudioangle>false</activeaudioangle>
                    <clip id="clip-2"/>
                  </angle>
                  <angle>
                    <activevideoangle>false</activevideoangle>
                    <activeaudioangle>false</activeaudioangle>
                    <clip id="clip-3"/>
                  </angle>
                  <angle>
                    <activevideoangle>false</activevideoangle>
                    <activeaudioangle>false</activeaudioangle>
                    <clip id="clip-4"/>
                  </angle>
                  <angle>
                    <activevideoangle>false</activevideoangle>
                    <activeaudioangle>false</activeaudioangle>
                    <clip id="clip-5"/>
                  </angle>
                  <angle>
                    <activevideoangle>true</activevideoangle>
                    <activeaudioangle>true</activeaudioangle>
                    <clip id="clip-6"/>
                  </angle>
                  <angle>
                    <activevideoangle>false</activevideoangle>
                    <activeaudioangle>false</activeaudioangle>
                    <clip id="clip-7"/>
                  </angle>
                  <angle>
                    <activevideoangle>false</activevideoangle>
                    <activeaudioangle>false</activeaudioangle>
                    <clip id="clip-8"/>
                  </angle>
                  <angle>
                    <activevideoangle>false</activevideoangle>
                    <activeaudioangle>false</activeaudioangle>
                    <clip id="clip-9"/>
                  </angle>
                  <masterclipid>clip-master</masterclipid>
                </multiclip>
              </clipitem>
              <clipitem id="cs-284">
                <duration>114</duration>
                <rate>
                  <ntsc>false</ntsc>
                  <timebase>25</timebase>
                </rate>
                <in>2105</in>
                <out>2218</out>
                <start>2105</start>
                <end>2218</end>
                <file id="src-3"/>
                <sourcetrack>
                  <mediatype>video</mediatype>
                  <trackindex>1</trackindex>
                </sourcetrack>
                <multiclip id="mcs-284">
                  <name>MCS-284</name>
                  <masterclipid>clip-master</masterclipid>
                  <collapsed>false</collapsed>
                  <angle>
                    <activevideoangle>false</activevideoangle>
                    <activeaudioangle>false</activeaudioangle>
                    <clip id="clip-1"/>
                  </angle>
                  <angle>
                    <activevideoangle>false</activevideoangle>
                    <activeaudioangle>false</activeaudioangle>
                    <clip id="clip-2"/>
                  </angle>
                  <angle>
                    <activevideoangle>true</activevideoangle>
                    <activeaudioangle>true</activeaudioangle>
                    <clip id="clip-3"/>
                  </angle>
                  <angle>
                    <activevideoangle>false</activevideoangle>
                    <activeaudioangle>false</activeaudioangle>
                    <clip id="clip-4"/>
                  </angle>
                  <angle>
                    <activevideoangle>false</activevideoangle>
                    <activeaudioangle>false</activeaudioangle>
                    <clip id="clip-5"/>
                  </angle>
                  <angle>
                    <activevideoangle>false</activevideoangle>
                    <activeaudioangle>false</activeaudioangle>
                    <clip id="clip-6"/>
                  </angle>
                  <angle>
                    <activevideoangle>false</activevideoangle>
                    <activeaudioangle>false</activeaudioangle>
                    <clip id="clip-7"/>
                  </angle>
                  <angle>
                    <activevideoangle>false</activevideoangle>
                    <activeaudioangle>false</activeaudioangle>
                    <clip id="clip-8"/>
                  </angle>
                  <angle>
                    <activevideoangle>false</activevideoangle>
                    <activeaudioangle>false</activeaudioangle>
                    <clip id="clip-9"/>
                  </angle>
                  <masterclipid>clip-master</masterclipid>
                </multiclip>
              </clipitem>
              <clipitem id="cs-285">
                <duration>115</duration>
                <rate>
                  <ntsc>false</ntsc>
                  <timebase>25</timebase>
                </rate>
                <in>2218</in>
                <out>2332</out>
                <start>2218</start>
                <end>2332</end>
                <file id="src-5"/>
                <sourcetrack>
                  <mediatype>video</mediatype>
                  <trackindex>1</trackindex>
                </sourcetrack>
                <multiclip id="mcs-285">
                  <name>MCS-285</name>
                  <masterclipid>clip-master</masterclipid>
                  <collapsed>false</collapsed>
                  <angle>
                    <activevideoangle>false</activevideoangle>
                    <activeaudioangle>false</activeaudioangle>
                    <clip id="clip-1"/>
                  </angle>
                  <angle>
                    <activevideoangle>false</activevideoangle>
                    <activeaudioangle>false</activeaudioangle>
                    <clip id="clip-2"/>
                  </angle>
                  <angle>
                    <activevideoangle>false</activevideoangle>
                    <activeaudioangle>false</activeaudioangle>
                    <clip id="clip-3"/>
                  </angle>
                  <angle>
                    <activevideoangle>false</activevideoangle>
                    <activeaudioangle>false</activeaudioangle>
                    <clip id="clip-4"/>
                  </angle>
                  <angle>
                    <activevideoangle>true</activevideoangle>
                    <activeaudioangle>true</activeaudioangle>
                    <clip id="clip-5"/>
                  </angle>
                  <angle>
                    <activevideoangle>false</activevideoangle>
                    <activeaudioangle>false</activeaudioangle>
                    <clip id="clip-6"/>
                  </angle>
                  <angle>
                    <activevideoangle>false</activevideoangle>
                    <activeaudioangle>false</activeaudioangle>
                    <clip id="clip-7"/>
                  </angle>
                  <angle>
                    <activevideoangle>false</activevideoangle>
                    <activeaudioangle>false</activeaudioangle>
                    <clip id="clip-8"/>
                  </angle>
                  <angle>
                    <activevideoangle>false</activevideoangle>
                    <activeaudioangle>false</activeaudioangle>
                    <clip id="clip-9"/>
                  </angle>
                  <masterclipid>clip-master</masterclipid>
                </multiclip>
              </clipitem>
              <clipitem id="cs-286">
                <duration>184</duration>
                <rate>
                  <ntsc>false</ntsc>
                  <timebase>25</timebase>
                </rate>
                <in>2332</in>
                <out>2515</out>
                <start>2332</start>
                <end>2515</end>
                <file id="src-3"/>
                <sourcetrack>
                  <mediatype>video</mediatype>
                  <trackindex>1</trackindex>
                </sourcetrack>
                <multiclip id="mcs-286">
                  <name>MCS-286</name>
                  <masterclipid>clip-master</masterclipid>
                  <collapsed>false</collapsed>
                  <angle>
                    <activevideoangle>false</activevideoangle>
                    <activeaudioangle>false</activeaudioangle>
                    <clip id="clip-1"/>
                  </angle>
                  <angle>
                    <activevideoangle>false</activevideoangle>
                    <activeaudioangle>false</activeaudioangle>
                    <clip id="clip-2"/>
                  </angle>
                  <angle>
                    <activevideoangle>true</activevideoangle>
                    <activeaudioangle>true</activeaudioangle>
                    <clip id="clip-3"/>
                  </angle>
                  <angle>
                    <activevideoangle>false</activevideoangle>
                    <activeaudioangle>false</activeaudioangle>
                    <clip id="clip-4"/>
                  </angle>
                  <angle>
                    <activevideoangle>false</activevideoangle>
                    <activeaudioangle>false</activeaudioangle>
                    <clip id="clip-5"/>
                  </angle>
                  <angle>
                    <activevideoangle>false</activevideoangle>
                    <activeaudioangle>false</activeaudioangle>
                    <clip id="clip-6"/>
                  </angle>
                  <angle>
                    <activevideoangle>false</activevideoangle>
                    <activeaudioangle>false</activeaudioangle>
                    <clip id="clip-7"/>
                  </angle>
                  <angle>
                    <activevideoangle>false</activevideoangle>
                    <activeaudioangle>false</activeaudioangle>
                    <clip id="clip-8"/>
                  </angle>
                  <angle>
                    <activevideoangle>false</activevideoangle>
                    <activeaudioangle>false</activeaudioangle>
                    <clip id="clip-9"/>
                  </angle>
                  <masterclipid>clip-master</masterclipid>
                </multiclip>
              </clipitem>
              <clipitem id="cs-287">
                <duration>64</duration>
                <rate>
                  <ntsc>false</ntsc>
                  <timebase>25</timebase>
                </rate>
                <in>2515</in>
                <out>2578</out>
                <start>2515</start>
                <end>2578</end>
                <file id="src-6"/>
                <sourcetrack>
                  <mediatype>video</mediatype>
                  <trackindex>1</trackindex>
                </sourcetrack>
                <multiclip id="mcs-287">
                  <name>MCS-287</name>
                  <masterclipid>clip-master</masterclipid>
                  <collapsed>false</collapsed>
                  <angle>
                    <activevideoangle>false</activevideoangle>
                    <activeaudioangle>false</activeaudioangle>
                    <clip id="clip-1"/>
                  </angle>
                  <angle>
                    <activevideoangle>false</activevideoangle>
                    <activeaudioangle>false</activeaudioangle>
                    <clip id="clip-2"/>
                  </angle>
                  <angle>
                    <activevideoangle>false</activevideoangle>
                    <activeaudioangle>false</activeaudioangle>
                    <clip id="clip-3"/>
                  </angle>
                  <angle>
                    <activevideoangle>false</activevideoangle>
                    <activeaudioangle>false</activeaudioangle>
                    <clip id="clip-4"/>
                  </angle>
                  <angle>
                    <activevideoangle>false</activevideoangle>
                    <activeaudioangle>false</activeaudioangle>
                    <clip id="clip-5"/>
                  </angle>
                  <angle>
                    <activevideoangle>true</activevideoangle>
                    <activeaudioangle>true</activeaudioangle>
                    <clip id="clip-6"/>
                  </angle>
                  <angle>
                    <activevideoangle>false</activevideoangle>
                    <activeaudioangle>false</activeaudioangle>
                    <clip id="clip-7"/>
                  </angle>
                  <angle>
                    <activevideoangle>false</activevideoangle>
                    <activeaudioangle>false</activeaudioangle>
                    <clip id="clip-8"/>
                  </angle>
                  <angle>
                    <activevideoangle>false</activevideoangle>
                    <activeaudioangle>false</activeaudioangle>
                    <clip id="clip-9"/>
                  </angle>
                  <masterclipid>clip-master</masterclipid>
                </multiclip>
              </clipitem>
              <clipitem id="cs-288">
                <duration>72</duration>
                <rate>
                  <ntsc>false</ntsc>
                  <timebase>25</timebase>
                </rate>
                <in>2578</in>
                <out>2649</out>
                <start>2578</start>
                <end>2649</end>
                <file id="src-4"/>
                <sourcetrack>
                  <mediatype>video</mediatype>
                  <trackindex>1</trackindex>
                </sourcetrack>
                <multiclip id="mcs-288">
                  <name>MCS-288</name>
                  <masterclipid>clip-master</masterclipid>
                  <collapsed>false</collapsed>
                  <angle>
                    <activevideoangle>false</activevideoangle>
                    <activeaudioangle>false</activeaudioangle>
                    <clip id="clip-1"/>
                  </angle>
                  <angle>
                    <activevideoangle>false</activevideoangle>
                    <activeaudioangle>false</activeaudioangle>
                    <clip id="clip-2"/>
                  </angle>
                  <angle>
                    <activevideoangle>false</activevideoangle>
                    <activeaudioangle>false</activeaudioangle>
                    <clip id="clip-3"/>
                  </angle>
                  <angle>
                    <activevideoangle>true</activevideoangle>
                    <activeaudioangle>true</activeaudioangle>
                    <clip id="clip-4"/>
                  </angle>
                  <angle>
                    <activevideoangle>false</activevideoangle>
                    <activeaudioangle>false</activeaudioangle>
                    <clip id="clip-5"/>
                  </angle>
                  <angle>
                    <activevideoangle>false</activevideoangle>
                    <activeaudioangle>false</activeaudioangle>
                    <clip id="clip-6"/>
                  </angle>
                  <angle>
                    <activevideoangle>false</activevideoangle>
                    <activeaudioangle>false</activeaudioangle>
                    <clip id="clip-7"/>
                  </angle>
                  <angle>
                    <activevideoangle>false</activevideoangle>
                    <activeaudioangle>false</activeaudioangle>
                    <clip id="clip-8"/>
                  </angle>
                  <angle>
                    <activevideoangle>false</activevideoangle>
                    <activeaudioangle>false</activeaudioangle>
                    <clip id="clip-9"/>
                  </angle>
                  <masterclipid>clip-master</masterclipid>
                </multiclip>
              </clipitem>
              <clipitem id="cs-289">
                <duration>94</duration>
                <rate>
                  <ntsc>false</ntsc>
                  <timebase>25</timebase>
                </rate>
                <in>2649</in>
                <out>2742</out>
                <start>2649</start>
                <end>2742</end>
                <file id="src-2"/>
                <sourcetrack>
                  <mediatype>video</mediatype>
                  <trackindex>1</trackindex>
                </sourcetrack>
                <multiclip id="mcs-289">
                  <name>MCS-289</name>
                  <masterclipid>clip-master</masterclipid>
                  <collapsed>false</collapsed>
                  <angle>
                    <activevideoangle>false</activevideoangle>
                    <activeaudioangle>false</activeaudioangle>
                    <clip id="clip-1"/>
                  </angle>
                  <angle>
                    <activevideoangle>true</activevideoangle>
                    <activeaudioangle>true</activeaudioangle>
                    <clip id="clip-2"/>
                  </angle>
                  <angle>
                    <activevideoangle>false</activevideoangle>
                    <activeaudioangle>false</activeaudioangle>
                    <clip id="clip-3"/>
                  </angle>
                  <angle>
                    <activevideoangle>false</activevideoangle>
                    <activeaudioangle>false</activeaudioangle>
                    <clip id="clip-4"/>
                  </angle>
                  <angle>
                    <activevideoangle>false</activevideoangle>
                    <activeaudioangle>false</activeaudioangle>
                    <clip id="clip-5"/>
                  </angle>
                  <angle>
                    <activevideoangle>false</activevideoangle>
                    <activeaudioangle>false</activeaudioangle>
                    <clip id="clip-6"/>
                  </angle>
                  <angle>
                    <activevideoangle>false</activevideoangle>
                    <activeaudioangle>false</activeaudioangle>
                    <clip id="clip-7"/>
                  </angle>
                  <angle>
                    <activevideoangle>false</activevideoangle>
                    <activeaudioangle>false</activeaudioangle>
                    <clip id="clip-8"/>
                  </angle>
                  <angle>
                    <activevideoangle>false</activevideoangle>
                    <activeaudioangle>false</activeaudioangle>
                    <clip id="clip-9"/>
                  </angle>
                  <masterclipid>clip-master</masterclipid>
                </multiclip>
              </clipitem>
              <clipitem id="cs-290">
                <duration>121</duration>
                <rate>
                  <ntsc>false</ntsc>
                  <timebase>25</timebase>
                </rate>
                <in>2742</in>
                <out>2862</out>
                <start>2742</start>
                <end>2862</end>
                <file id="src-7"/>
                <sourcetrack>
                  <mediatype>video</mediatype>
                  <trackindex>1</trackindex>
                </sourcetrack>
                <multiclip id="mcs-290">
                  <name>MCS-290</name>
                  <masterclipid>clip-master</masterclipid>
                  <collapsed>false</collapsed>
                  <angle>
                    <activevideoangle>false</activevideoangle>
                    <activeaudioangle>false</activeaudioangle>
                    <clip id="clip-1"/>
                  </angle>
                  <angle>
                    <activevideoangle>false</activevideoangle>
                    <activeaudioangle>false</activeaudioangle>
                    <clip id="clip-2"/>
                  </angle>
                  <angle>
                    <activevideoangle>false</activevideoangle>
                    <activeaudioangle>false</activeaudioangle>
                    <clip id="clip-3"/>
                  </angle>
                  <angle>
                    <activevideoangle>false</activevideoangle>
                    <activeaudioangle>false</activeaudioangle>
                    <clip id="clip-4"/>
                  </angle>
                  <angle>
                    <activevideoangle>false</activevideoangle>
                    <activeaudioangle>false</activeaudioangle>
                    <clip id="clip-5"/>
                  </angle>
                  <angle>
                    <activevideoangle>false</activevideoangle>
                    <activeaudioangle>false</activeaudioangle>
                    <clip id="clip-6"/>
                  </angle>
                  <angle>
                    <activevideoangle>true</activevideoangle>
                    <activeaudioangle>true</activeaudioangle>
                    <clip id="clip-7"/>
                  </angle>
                  <angle>
                    <activevideoangle>false</activevideoangle>
                    <activeaudioangle>false</activeaudioangle>
                    <clip id="clip-8"/>
                  </angle>
                  <angle>
                    <activevideoangle>false</activevideoangle>
                    <activeaudioangle>false</activeaudioangle>
                    <clip id="clip-9"/>
                  </angle>
                  <masterclipid>clip-master</masterclipid>
                </multiclip>
              </clipitem>
              <clipitem id="cs-291">
                <duration>66</duration>
                <rate>
                  <ntsc>false</ntsc>
                  <timebase>25</timebase>
                </rate>
                <in>2862</in>
                <out>2927</out>
                <start>2862</start>
                <end>2927</end>
                <file id="src-4"/>
                <sourcetrack>
                  <mediatype>video</mediatype>
                  <trackindex>1</trackindex>
                </sourcetrack>
                <multiclip id="mcs-291">
                  <name>MCS-291</name>
                  <masterclipid>clip-master</masterclipid>
                  <collapsed>false</collapsed>
                  <angle>
                    <activevideoangle>false</activevideoangle>
                    <activeaudioangle>false</activeaudioangle>
                    <clip id="clip-1"/>
                  </angle>
                  <angle>
                    <activevideoangle>false</activevideoangle>
                    <activeaudioangle>false</activeaudioangle>
                    <clip id="clip-2"/>
                  </angle>
                  <angle>
                    <activevideoangle>false</activevideoangle>
                    <activeaudioangle>false</activeaudioangle>
                    <clip id="clip-3"/>
                  </angle>
                  <angle>
                    <activevideoangle>true</activevideoangle>
                    <activeaudioangle>true</activeaudioangle>
                    <clip id="clip-4"/>
                  </angle>
                  <angle>
                    <activevideoangle>false</activevideoangle>
                    <activeaudioangle>false</activeaudioangle>
                    <clip id="clip-5"/>
                  </angle>
                  <angle>
                    <activevideoangle>false</activevideoangle>
                    <activeaudioangle>false</activeaudioangle>
                    <clip id="clip-6"/>
                  </angle>
                  <angle>
                    <activevideoangle>false</activevideoangle>
                    <activeaudioangle>false</activeaudioangle>
                    <clip id="clip-7"/>
                  </angle>
                  <angle>
                    <activevideoangle>false</activevideoangle>
                    <activeaudioangle>false</activeaudioangle>
                    <clip id="clip-8"/>
                  </angle>
                  <angle>
                    <activevideoangle>false</activevideoangle>
                    <activeaudioangle>false</activeaudioangle>
                    <clip id="clip-9"/>
                  </angle>
                  <masterclipid>clip-master</masterclipid>
                </multiclip>
              </clipitem>
              <clipitem id="cs-292">
                <duration>228</duration>
                <rate>
                  <ntsc>false</ntsc>
                  <timebase>25</timebase>
                </rate>
                <in>2927</in>
                <out>3154</out>
                <start>2927</start>
                <end>3154</end>
                <file id="src-3"/>
                <sourcetrack>
                  <mediatype>video</mediatype>
                  <trackindex>1</trackindex>
                </sourcetrack>
                <multiclip id="mcs-292">
                  <name>MCS-292</name>
                  <masterclipid>clip-master</masterclipid>
                  <collapsed>false</collapsed>
                  <angle>
                    <activevideoangle>false</activevideoangle>
                    <activeaudioangle>false</activeaudioangle>
                    <clip id="clip-1"/>
                  </angle>
                  <angle>
                    <activevideoangle>false</activevideoangle>
                    <activeaudioangle>false</activeaudioangle>
                    <clip id="clip-2"/>
                  </angle>
                  <angle>
                    <activevideoangle>true</activevideoangle>
                    <activeaudioangle>true</activeaudioangle>
                    <clip id="clip-3"/>
                  </angle>
                  <angle>
                    <activevideoangle>false</activevideoangle>
                    <activeaudioangle>false</activeaudioangle>
                    <clip id="clip-4"/>
                  </angle>
                  <angle>
                    <activevideoangle>false</activevideoangle>
                    <activeaudioangle>false</activeaudioangle>
                    <clip id="clip-5"/>
                  </angle>
                  <angle>
                    <activevideoangle>false</activevideoangle>
                    <activeaudioangle>false</activeaudioangle>
                    <clip id="clip-6"/>
                  </angle>
                  <angle>
                    <activevideoangle>false</activevideoangle>
                    <activeaudioangle>false</activeaudioangle>
                    <clip id="clip-7"/>
                  </angle>
                  <angle>
                    <activevideoangle>false</activevideoangle>
                    <activeaudioangle>false</activeaudioangle>
                    <clip id="clip-8"/>
                  </angle>
                  <angle>
                    <activevideoangle>false</activevideoangle>
                    <activeaudioangle>false</activeaudioangle>
                    <clip id="clip-9"/>
                  </angle>
                  <masterclipid>clip-master</masterclipid>
                </multiclip>
              </clipitem>
              <clipitem id="cs-293">
                <duration>237</duration>
                <rate>
                  <ntsc>false</ntsc>
                  <timebase>25</timebase>
                </rate>
                <in>3154</in>
                <out>3390</out>
                <start>3154</start>
                <end>3390</end>
                <file id="src-2"/>
                <sourcetrack>
                  <mediatype>video</mediatype>
                  <trackindex>1</trackindex>
                </sourcetrack>
                <multiclip id="mcs-293">
                  <name>MCS-293</name>
                  <masterclipid>clip-master</masterclipid>
                  <collapsed>false</collapsed>
                  <angle>
                    <activevideoangle>false</activevideoangle>
                    <activeaudioangle>false</activeaudioangle>
                    <clip id="clip-1"/>
                  </angle>
                  <angle>
                    <activevideoangle>true</activevideoangle>
                    <activeaudioangle>true</activeaudioangle>
                    <clip id="clip-2"/>
                  </angle>
                  <angle>
                    <activevideoangle>false</activevideoangle>
                    <activeaudioangle>false</activeaudioangle>
                    <clip id="clip-3"/>
                  </angle>
                  <angle>
                    <activevideoangle>false</activevideoangle>
                    <activeaudioangle>false</activeaudioangle>
                    <clip id="clip-4"/>
                  </angle>
                  <angle>
                    <activevideoangle>false</activevideoangle>
                    <activeaudioangle>false</activeaudioangle>
                    <clip id="clip-5"/>
                  </angle>
                  <angle>
                    <activevideoangle>false</activevideoangle>
                    <activeaudioangle>false</activeaudioangle>
                    <clip id="clip-6"/>
                  </angle>
                  <angle>
                    <activevideoangle>false</activevideoangle>
                    <activeaudioangle>false</activeaudioangle>
                    <clip id="clip-7"/>
                  </angle>
                  <angle>
                    <activevideoangle>false</activevideoangle>
                    <activeaudioangle>false</activeaudioangle>
                    <clip id="clip-8"/>
                  </angle>
                  <angle>
                    <activevideoangle>false</activevideoangle>
                    <activeaudioangle>false</activeaudioangle>
                    <clip id="clip-9"/>
                  </angle>
                  <masterclipid>clip-master</masterclipid>
                </multiclip>
              </clipitem>
              <clipitem id="cs-294">
                <duration>119</duration>
                <rate>
                  <ntsc>false</ntsc>
                  <timebase>25</timebase>
                </rate>
                <in>3390</in>
                <out>3508</out>
                <start>3390</start>
                <end>3508</end>
                <file id="src-4"/>
                <sourcetrack>
                  <mediatype>video</mediatype>
                  <trackindex>1</trackindex>
                </sourcetrack>
                <multiclip id="mcs-294">
                  <name>MCS-294</name>
                  <masterclipid>clip-master</masterclipid>
                  <collapsed>false</collapsed>
                  <angle>
                    <activevideoangle>false</activevideoangle>
                    <activeaudioangle>false</activeaudioangle>
                    <clip id="clip-1"/>
                  </angle>
                  <angle>
                    <activevideoangle>false</activevideoangle>
                    <activeaudioangle>false</activeaudioangle>
                    <clip id="clip-2"/>
                  </angle>
                  <angle>
                    <activevideoangle>false</activevideoangle>
                    <activeaudioangle>false</activeaudioangle>
                    <clip id="clip-3"/>
                  </angle>
                  <angle>
                    <activevideoangle>true</activevideoangle>
                    <activeaudioangle>true</activeaudioangle>
                    <clip id="clip-4"/>
                  </angle>
                  <angle>
                    <activevideoangle>false</activevideoangle>
                    <activeaudioangle>false</activeaudioangle>
                    <clip id="clip-5"/>
                  </angle>
                  <angle>
                    <activevideoangle>false</activevideoangle>
                    <activeaudioangle>false</activeaudioangle>
                    <clip id="clip-6"/>
                  </angle>
                  <angle>
                    <activevideoangle>false</activevideoangle>
                    <activeaudioangle>false</activeaudioangle>
                    <clip id="clip-7"/>
                  </angle>
                  <angle>
                    <activevideoangle>false</activevideoangle>
                    <activeaudioangle>false</activeaudioangle>
                    <clip id="clip-8"/>
                  </angle>
                  <angle>
                    <activevideoangle>false</activevideoangle>
                    <activeaudioangle>false</activeaudioangle>
                    <clip id="clip-9"/>
                  </angle>
                  <masterclipid>clip-master</masterclipid>
                </multiclip>
              </clipitem>
              <clipitem id="cs-295">
                <duration>78</duration>
                <rate>
                  <ntsc>false</ntsc>
                  <timebase>25</timebase>
                </rate>
                <in>3508</in>
                <out>3585</out>
                <start>3508</start>
                <end>3585</end>
                <file id="src-3"/>
                <sourcetrack>
                  <mediatype>video</mediatype>
                  <trackindex>1</trackindex>
                </sourcetrack>
                <multiclip id="mcs-295">
                  <name>MCS-295</name>
                  <masterclipid>clip-master</masterclipid>
                  <collapsed>false</collapsed>
                  <angle>
                    <activevideoangle>false</activevideoangle>
                    <activeaudioangle>false</activeaudioangle>
                    <clip id="clip-1"/>
                  </angle>
                  <angle>
                    <activevideoangle>false</activevideoangle>
                    <activeaudioangle>false</activeaudioangle>
                    <clip id="clip-2"/>
                  </angle>
                  <angle>
                    <activevideoangle>true</activevideoangle>
                    <activeaudioangle>true</activeaudioangle>
                    <clip id="clip-3"/>
                  </angle>
                  <angle>
                    <activevideoangle>false</activevideoangle>
                    <activeaudioangle>false</activeaudioangle>
                    <clip id="clip-4"/>
                  </angle>
                  <angle>
                    <activevideoangle>false</activevideoangle>
                    <activeaudioangle>false</activeaudioangle>
                    <clip id="clip-5"/>
                  </angle>
                  <angle>
                    <activevideoangle>false</activevideoangle>
                    <activeaudioangle>false</activeaudioangle>
                    <clip id="clip-6"/>
                  </angle>
                  <angle>
                    <activevideoangle>false</activevideoangle>
                    <activeaudioangle>false</activeaudioangle>
                    <clip id="clip-7"/>
                  </angle>
                  <angle>
                    <activevideoangle>false</activevideoangle>
                    <activeaudioangle>false</activeaudioangle>
                    <clip id="clip-8"/>
                  </angle>
                  <angle>
                    <activevideoangle>false</activevideoangle>
                    <activeaudioangle>false</activeaudioangle>
                    <clip id="clip-9"/>
                  </angle>
                  <masterclipid>clip-master</masterclipid>
                </multiclip>
              </clipitem>
              <clipitem id="cs-296">
                <duration>88</duration>
                <rate>
                  <ntsc>false</ntsc>
                  <timebase>25</timebase>
                </rate>
                <in>3585</in>
                <out>3672</out>
                <start>3585</start>
                <end>3672</end>
                <file id="src-2"/>
                <sourcetrack>
                  <mediatype>video</mediatype>
                  <trackindex>1</trackindex>
                </sourcetrack>
                <multiclip id="mcs-296">
                  <name>MCS-296</name>
                  <masterclipid>clip-master</masterclipid>
                  <collapsed>false</collapsed>
                  <angle>
                    <activevideoangle>false</activevideoangle>
                    <activeaudioangle>false</activeaudioangle>
                    <clip id="clip-1"/>
                  </angle>
                  <angle>
                    <activevideoangle>true</activevideoangle>
                    <activeaudioangle>true</activeaudioangle>
                    <clip id="clip-2"/>
                  </angle>
                  <angle>
                    <activevideoangle>false</activevideoangle>
                    <activeaudioangle>false</activeaudioangle>
                    <clip id="clip-3"/>
                  </angle>
                  <angle>
                    <activevideoangle>false</activevideoangle>
                    <activeaudioangle>false</activeaudioangle>
                    <clip id="clip-4"/>
                  </angle>
                  <angle>
                    <activevideoangle>false</activevideoangle>
                    <activeaudioangle>false</activeaudioangle>
                    <clip id="clip-5"/>
                  </angle>
                  <angle>
                    <activevideoangle>false</activevideoangle>
                    <activeaudioangle>false</activeaudioangle>
                    <clip id="clip-6"/>
                  </angle>
                  <angle>
                    <activevideoangle>false</activevideoangle>
                    <activeaudioangle>false</activeaudioangle>
                    <clip id="clip-7"/>
                  </angle>
                  <angle>
                    <activevideoangle>false</activevideoangle>
                    <activeaudioangle>false</activeaudioangle>
                    <clip id="clip-8"/>
                  </angle>
                  <angle>
                    <activevideoangle>false</activevideoangle>
                    <activeaudioangle>false</activeaudioangle>
                    <clip id="clip-9"/>
                  </angle>
                  <masterclipid>clip-master</masterclipid>
                </multiclip>
              </clipitem>
              <clipitem id="cs-297">
                <duration>162</duration>
                <rate>
                  <ntsc>false</ntsc>
                  <timebase>25</timebase>
                </rate>
                <in>3672</in>
                <out>3833</out>
                <start>3672</start>
                <end>3833</end>
                <file id="src-4"/>
                <sourcetrack>
                  <mediatype>video</mediatype>
                  <trackindex>1</trackindex>
                </sourcetrack>
                <multiclip id="mcs-297">
                  <name>MCS-297</name>
                  <masterclipid>clip-master</masterclipid>
                  <collapsed>false</collapsed>
                  <angle>
                    <activevideoangle>false</activevideoangle>
                    <activeaudioangle>false</activeaudioangle>
                    <clip id="clip-1"/>
                  </angle>
                  <angle>
                    <activevideoangle>false</activevideoangle>
                    <activeaudioangle>false</activeaudioangle>
                    <clip id="clip-2"/>
                  </angle>
                  <angle>
                    <activevideoangle>false</activevideoangle>
                    <activeaudioangle>false</activeaudioangle>
                    <clip id="clip-3"/>
                  </angle>
                  <angle>
                    <activevideoangle>true</activevideoangle>
                    <activeaudioangle>true</activeaudioangle>
                    <clip id="clip-4"/>
                  </angle>
                  <angle>
                    <activevideoangle>false</activevideoangle>
                    <activeaudioangle>false</activeaudioangle>
                    <clip id="clip-5"/>
                  </angle>
                  <angle>
                    <activevideoangle>false</activevideoangle>
                    <activeaudioangle>false</activeaudioangle>
                    <clip id="clip-6"/>
                  </angle>
                  <angle>
                    <activevideoangle>false</activevideoangle>
                    <activeaudioangle>false</activeaudioangle>
                    <clip id="clip-7"/>
                  </angle>
                  <angle>
                    <activevideoangle>false</activevideoangle>
                    <activeaudioangle>false</activeaudioangle>
                    <clip id="clip-8"/>
                  </angle>
                  <angle>
                    <activevideoangle>false</activevideoangle>
                    <activeaudioangle>false</activeaudioangle>
                    <clip id="clip-9"/>
                  </angle>
                  <masterclipid>clip-master</masterclipid>
                </multiclip>
              </clipitem>
              <clipitem id="cs-298">
                <duration>81</duration>
                <rate>
                  <ntsc>false</ntsc>
                  <timebase>25</timebase>
                </rate>
                <in>3833</in>
                <out>3913</out>
                <start>3833</start>
                <end>3913</end>
                <file id="src-8"/>
                <sourcetrack>
                  <mediatype>video</mediatype>
                  <trackindex>1</trackindex>
                </sourcetrack>
                <multiclip id="mcs-298">
                  <name>MCS-298</name>
                  <masterclipid>clip-master</masterclipid>
                  <collapsed>false</collapsed>
                  <angle>
                    <activevideoangle>false</activevideoangle>
                    <activeaudioangle>false</activeaudioangle>
                    <clip id="clip-1"/>
                  </angle>
                  <angle>
                    <activevideoangle>false</activevideoangle>
                    <activeaudioangle>false</activeaudioangle>
                    <clip id="clip-2"/>
                  </angle>
                  <angle>
                    <activevideoangle>false</activevideoangle>
                    <activeaudioangle>false</activeaudioangle>
                    <clip id="clip-3"/>
                  </angle>
                  <angle>
                    <activevideoangle>false</activevideoangle>
                    <activeaudioangle>false</activeaudioangle>
                    <clip id="clip-4"/>
                  </angle>
                  <angle>
                    <activevideoangle>false</activevideoangle>
                    <activeaudioangle>false</activeaudioangle>
                    <clip id="clip-5"/>
                  </angle>
                  <angle>
                    <activevideoangle>false</activevideoangle>
                    <activeaudioangle>false</activeaudioangle>
                    <clip id="clip-6"/>
                  </angle>
                  <angle>
                    <activevideoangle>false</activevideoangle>
                    <activeaudioangle>false</activeaudioangle>
                    <clip id="clip-7"/>
                  </angle>
                  <angle>
                    <activevideoangle>true</activevideoangle>
                    <activeaudioangle>true</activeaudioangle>
                    <clip id="clip-8"/>
                  </angle>
                  <angle>
                    <activevideoangle>false</activevideoangle>
                    <activeaudioangle>false</activeaudioangle>
                    <clip id="clip-9"/>
                  </angle>
                  <masterclipid>clip-master</masterclipid>
                </multiclip>
              </clipitem>
              <clipitem id="cs-299">
                <duration>97</duration>
                <rate>
                  <ntsc>false</ntsc>
                  <timebase>25</timebase>
                </rate>
                <in>3913</in>
                <out>4009</out>
                <start>3913</start>
                <end>4009</end>
                <file id="src-3"/>
                <sourcetrack>
                  <mediatype>video</mediatype>
                  <trackindex>1</trackindex>
                </sourcetrack>
                <multiclip id="mcs-299">
                  <name>MCS-299</name>
                  <masterclipid>clip-master</masterclipid>
                  <collapsed>false</collapsed>
                  <angle>
                    <activevideoangle>false</activevideoangle>
                    <activeaudioangle>false</activeaudioangle>
                    <clip id="clip-1"/>
                  </angle>
                  <angle>
                    <activevideoangle>false</activevideoangle>
                    <activeaudioangle>false</activeaudioangle>
                    <clip id="clip-2"/>
                  </angle>
                  <angle>
                    <activevideoangle>true</activevideoangle>
                    <activeaudioangle>true</activeaudioangle>
                    <clip id="clip-3"/>
                  </angle>
                  <angle>
                    <activevideoangle>false</activevideoangle>
                    <activeaudioangle>false</activeaudioangle>
                    <clip id="clip-4"/>
                  </angle>
                  <angle>
                    <activevideoangle>false</activevideoangle>
                    <activeaudioangle>false</activeaudioangle>
                    <clip id="clip-5"/>
                  </angle>
                  <angle>
                    <activevideoangle>false</activevideoangle>
                    <activeaudioangle>false</activeaudioangle>
                    <clip id="clip-6"/>
                  </angle>
                  <angle>
                    <activevideoangle>false</activevideoangle>
                    <activeaudioangle>false</activeaudioangle>
                    <clip id="clip-7"/>
                  </angle>
                  <angle>
                    <activevideoangle>false</activevideoangle>
                    <activeaudioangle>false</activeaudioangle>
                    <clip id="clip-8"/>
                  </angle>
                  <angle>
                    <activevideoangle>false</activevideoangle>
                    <activeaudioangle>false</activeaudioangle>
                    <clip id="clip-9"/>
                  </angle>
                  <masterclipid>clip-master</masterclipid>
                </multiclip>
              </clipitem>
              <clipitem id="cs-300">
                <duration>478</duration>
                <rate>
                  <ntsc>false</ntsc>
                  <timebase>25</timebase>
                </rate>
                <in>4009</in>
                <out>4486</out>
                <start>4009</start>
                <end>4486</end>
                <file id="src-4"/>
                <sourcetrack>
                  <mediatype>video</mediatype>
                  <trackindex>1</trackindex>
                </sourcetrack>
                <multiclip id="mcs-300">
                  <name>MCS-300</name>
                  <masterclipid>clip-master</masterclipid>
                  <collapsed>false</collapsed>
                  <angle>
                    <activevideoangle>false</activevideoangle>
                    <activeaudioangle>false</activeaudioangle>
                    <clip id="clip-1"/>
                  </angle>
                  <angle>
                    <activevideoangle>false</activevideoangle>
                    <activeaudioangle>false</activeaudioangle>
                    <clip id="clip-2"/>
                  </angle>
                  <angle>
                    <activevideoangle>false</activevideoangle>
                    <activeaudioangle>false</activeaudioangle>
                    <clip id="clip-3"/>
                  </angle>
                  <angle>
                    <activevideoangle>true</activevideoangle>
                    <activeaudioangle>true</activeaudioangle>
                    <clip id="clip-4"/>
                  </angle>
                  <angle>
                    <activevideoangle>false</activevideoangle>
                    <activeaudioangle>false</activeaudioangle>
                    <clip id="clip-5"/>
                  </angle>
                  <angle>
                    <activevideoangle>false</activevideoangle>
                    <activeaudioangle>false</activeaudioangle>
                    <clip id="clip-6"/>
                  </angle>
                  <angle>
                    <activevideoangle>false</activevideoangle>
                    <activeaudioangle>false</activeaudioangle>
                    <clip id="clip-7"/>
                  </angle>
                  <angle>
                    <activevideoangle>false</activevideoangle>
                    <activeaudioangle>false</activeaudioangle>
                    <clip id="clip-8"/>
                  </angle>
                  <angle>
                    <activevideoangle>false</activevideoangle>
                    <activeaudioangle>false</activeaudioangle>
                    <clip id="clip-9"/>
                  </angle>
                  <masterclipid>clip-master</masterclipid>
                </multiclip>
              </clipitem>
              <clipitem id="cs-301">
                <duration>71</duration>
                <rate>
                  <ntsc>false</ntsc>
                  <timebase>25</timebase>
                </rate>
                <in>4486</in>
                <out>4556</out>
                <start>4486</start>
                <end>4556</end>
                <file id="src-2"/>
                <sourcetrack>
                  <mediatype>video</mediatype>
                  <trackindex>1</trackindex>
                </sourcetrack>
                <multiclip id="mcs-301">
                  <name>MCS-301</name>
                  <masterclipid>clip-master</masterclipid>
                  <collapsed>false</collapsed>
                  <angle>
                    <activevideoangle>false</activevideoangle>
                    <activeaudioangle>false</activeaudioangle>
                    <clip id="clip-1"/>
                  </angle>
                  <angle>
                    <activevideoangle>true</activevideoangle>
                    <activeaudioangle>true</activeaudioangle>
                    <clip id="clip-2"/>
                  </angle>
                  <angle>
                    <activevideoangle>false</activevideoangle>
                    <activeaudioangle>false</activeaudioangle>
                    <clip id="clip-3"/>
                  </angle>
                  <angle>
                    <activevideoangle>false</activevideoangle>
                    <activeaudioangle>false</activeaudioangle>
                    <clip id="clip-4"/>
                  </angle>
                  <angle>
                    <activevideoangle>false</activevideoangle>
                    <activeaudioangle>false</activeaudioangle>
                    <clip id="clip-5"/>
                  </angle>
                  <angle>
                    <activevideoangle>false</activevideoangle>
                    <activeaudioangle>false</activeaudioangle>
                    <clip id="clip-6"/>
                  </angle>
                  <angle>
                    <activevideoangle>false</activevideoangle>
                    <activeaudioangle>false</activeaudioangle>
                    <clip id="clip-7"/>
                  </angle>
                  <angle>
                    <activevideoangle>false</activevideoangle>
                    <activeaudioangle>false</activeaudioangle>
                    <clip id="clip-8"/>
                  </angle>
                  <angle>
                    <activevideoangle>false</activevideoangle>
                    <activeaudioangle>false</activeaudioangle>
                    <clip id="clip-9"/>
                  </angle>
                  <masterclipid>clip-master</masterclipid>
                </multiclip>
              </clipitem>
              <clipitem id="cs-302">
                <duration>227</duration>
                <rate>
                  <ntsc>false</ntsc>
                  <timebase>25</timebase>
                </rate>
                <in>4556</in>
                <out>4782</out>
                <start>4556</start>
                <end>4782</end>
                <file id="src-3"/>
                <sourcetrack>
                  <mediatype>video</mediatype>
                  <trackindex>1</trackindex>
                </sourcetrack>
                <multiclip id="mcs-302">
                  <name>MCS-302</name>
                  <masterclipid>clip-master</masterclipid>
                  <collapsed>false</collapsed>
                  <angle>
                    <activevideoangle>false</activevideoangle>
                    <activeaudioangle>false</activeaudioangle>
                    <clip id="clip-1"/>
                  </angle>
                  <angle>
                    <activevideoangle>false</activevideoangle>
                    <activeaudioangle>false</activeaudioangle>
                    <clip id="clip-2"/>
                  </angle>
                  <angle>
                    <activevideoangle>true</activevideoangle>
                    <activeaudioangle>true</activeaudioangle>
                    <clip id="clip-3"/>
                  </angle>
                  <angle>
                    <activevideoangle>false</activevideoangle>
                    <activeaudioangle>false</activeaudioangle>
                    <clip id="clip-4"/>
                  </angle>
                  <angle>
                    <activevideoangle>false</activevideoangle>
                    <activeaudioangle>false</activeaudioangle>
                    <clip id="clip-5"/>
                  </angle>
                  <angle>
                    <activevideoangle>false</activevideoangle>
                    <activeaudioangle>false</activeaudioangle>
                    <clip id="clip-6"/>
                  </angle>
                  <angle>
                    <activevideoangle>false</activevideoangle>
                    <activeaudioangle>false</activeaudioangle>
                    <clip id="clip-7"/>
                  </angle>
                  <angle>
                    <activevideoangle>false</activevideoangle>
                    <activeaudioangle>false</activeaudioangle>
                    <clip id="clip-8"/>
                  </angle>
                  <angle>
                    <activevideoangle>false</activevideoangle>
                    <activeaudioangle>false</activeaudioangle>
                    <clip id="clip-9"/>
                  </angle>
                  <masterclipid>clip-master</masterclipid>
                </multiclip>
              </clipitem>
              <clipitem id="cs-303">
                <duration>94</duration>
                <rate>
                  <ntsc>false</ntsc>
                  <timebase>25</timebase>
                </rate>
                <in>4782</in>
                <out>4875</out>
                <start>4782</start>
                <end>4875</end>
                <file id="src-4"/>
                <sourcetrack>
                  <mediatype>video</mediatype>
                  <trackindex>1</trackindex>
                </sourcetrack>
                <multiclip id="mcs-303">
                  <name>MCS-303</name>
                  <masterclipid>clip-master</masterclipid>
                  <collapsed>false</collapsed>
                  <angle>
                    <activevideoangle>false</activevideoangle>
                    <activeaudioangle>false</activeaudioangle>
                    <clip id="clip-1"/>
                  </angle>
                  <angle>
                    <activevideoangle>false</activevideoangle>
                    <activeaudioangle>false</activeaudioangle>
                    <clip id="clip-2"/>
                  </angle>
                  <angle>
                    <activevideoangle>false</activevideoangle>
                    <activeaudioangle>false</activeaudioangle>
                    <clip id="clip-3"/>
                  </angle>
                  <angle>
                    <activevideoangle>true</activevideoangle>
                    <activeaudioangle>true</activeaudioangle>
                    <clip id="clip-4"/>
                  </angle>
                  <angle>
                    <activevideoangle>false</activevideoangle>
                    <activeaudioangle>false</activeaudioangle>
                    <clip id="clip-5"/>
                  </angle>
                  <angle>
                    <activevideoangle>false</activevideoangle>
                    <activeaudioangle>false</activeaudioangle>
                    <clip id="clip-6"/>
                  </angle>
                  <angle>
                    <activevideoangle>false</activevideoangle>
                    <activeaudioangle>false</activeaudioangle>
                    <clip id="clip-7"/>
                  </angle>
                  <angle>
                    <activevideoangle>false</activevideoangle>
                    <activeaudioangle>false</activeaudioangle>
                    <clip id="clip-8"/>
                  </angle>
                  <angle>
                    <activevideoangle>false</activevideoangle>
                    <activeaudioangle>false</activeaudioangle>
                    <clip id="clip-9"/>
                  </angle>
                  <masterclipid>clip-master</masterclipid>
                </multiclip>
              </clipitem>
              <clipitem id="cs-304">
                <duration>71</duration>
                <rate>
                  <ntsc>false</ntsc>
                  <timebase>25</timebase>
                </rate>
                <in>4875</in>
                <out>4945</out>
                <start>4875</start>
                <end>4945</end>
                <file id="src-7"/>
                <sourcetrack>
                  <mediatype>video</mediatype>
                  <trackindex>1</trackindex>
                </sourcetrack>
                <multiclip id="mcs-304">
                  <name>MCS-304</name>
                  <masterclipid>clip-master</masterclipid>
                  <collapsed>false</collapsed>
                  <angle>
                    <activevideoangle>false</activevideoangle>
                    <activeaudioangle>false</activeaudioangle>
                    <clip id="clip-1"/>
                  </angle>
                  <angle>
                    <activevideoangle>false</activevideoangle>
                    <activeaudioangle>false</activeaudioangle>
                    <clip id="clip-2"/>
                  </angle>
                  <angle>
                    <activevideoangle>false</activevideoangle>
                    <activeaudioangle>false</activeaudioangle>
                    <clip id="clip-3"/>
                  </angle>
                  <angle>
                    <activevideoangle>false</activevideoangle>
                    <activeaudioangle>false</activeaudioangle>
                    <clip id="clip-4"/>
                  </angle>
                  <angle>
                    <activevideoangle>false</activevideoangle>
                    <activeaudioangle>false</activeaudioangle>
                    <clip id="clip-5"/>
                  </angle>
                  <angle>
                    <activevideoangle>false</activevideoangle>
                    <activeaudioangle>false</activeaudioangle>
                    <clip id="clip-6"/>
                  </angle>
                  <angle>
                    <activevideoangle>true</activevideoangle>
                    <activeaudioangle>true</activeaudioangle>
                    <clip id="clip-7"/>
                  </angle>
                  <angle>
                    <activevideoangle>false</activevideoangle>
                    <activeaudioangle>false</activeaudioangle>
                    <clip id="clip-8"/>
                  </angle>
                  <angle>
                    <activevideoangle>false</activevideoangle>
                    <activeaudioangle>false</activeaudioangle>
                    <clip id="clip-9"/>
                  </angle>
                  <masterclipid>clip-master</masterclipid>
                </multiclip>
              </clipitem>
              <clipitem id="cs-305">
                <duration>185</duration>
                <rate>
                  <ntsc>false</ntsc>
                  <timebase>25</timebase>
                </rate>
                <in>4945</in>
                <out>5129</out>
                <start>4945</start>
                <end>5129</end>
                <file id="src-3"/>
                <sourcetrack>
                  <mediatype>video</mediatype>
                  <trackindex>1</trackindex>
                </sourcetrack>
                <multiclip id="mcs-305">
                  <name>MCS-305</name>
                  <masterclipid>clip-master</masterclipid>
                  <collapsed>false</collapsed>
                  <angle>
                    <activevideoangle>false</activevideoangle>
                    <activeaudioangle>false</activeaudioangle>
                    <clip id="clip-1"/>
                  </angle>
                  <angle>
                    <activevideoangle>false</activevideoangle>
                    <activeaudioangle>false</activeaudioangle>
                    <clip id="clip-2"/>
                  </angle>
                  <angle>
                    <activevideoangle>true</activevideoangle>
                    <activeaudioangle>true</activeaudioangle>
                    <clip id="clip-3"/>
                  </angle>
                  <angle>
                    <activevideoangle>false</activevideoangle>
                    <activeaudioangle>false</activeaudioangle>
                    <clip id="clip-4"/>
                  </angle>
                  <angle>
                    <activevideoangle>false</activevideoangle>
                    <activeaudioangle>false</activeaudioangle>
                    <clip id="clip-5"/>
                  </angle>
                  <angle>
                    <activevideoangle>false</activevideoangle>
                    <activeaudioangle>false</activeaudioangle>
                    <clip id="clip-6"/>
                  </angle>
                  <angle>
                    <activevideoangle>false</activevideoangle>
                    <activeaudioangle>false</activeaudioangle>
                    <clip id="clip-7"/>
                  </angle>
                  <angle>
                    <activevideoangle>false</activevideoangle>
                    <activeaudioangle>false</activeaudioangle>
                    <clip id="clip-8"/>
                  </angle>
                  <angle>
                    <activevideoangle>false</activevideoangle>
                    <activeaudioangle>false</activeaudioangle>
                    <clip id="clip-9"/>
                  </angle>
                  <masterclipid>clip-master</masterclipid>
                </multiclip>
              </clipitem>
              <clipitem id="cs-306">
                <duration>233</duration>
                <rate>
                  <ntsc>false</ntsc>
                  <timebase>25</timebase>
                </rate>
                <in>5129</in>
                <out>5361</out>
                <start>5129</start>
                <end>5361</end>
                <file id="src-4"/>
                <sourcetrack>
                  <mediatype>video</mediatype>
                  <trackindex>1</trackindex>
                </sourcetrack>
                <multiclip id="mcs-306">
                  <name>MCS-306</name>
                  <masterclipid>clip-master</masterclipid>
                  <collapsed>false</collapsed>
                  <angle>
                    <activevideoangle>false</activevideoangle>
                    <activeaudioangle>false</activeaudioangle>
                    <clip id="clip-1"/>
                  </angle>
                  <angle>
                    <activevideoangle>false</activevideoangle>
                    <activeaudioangle>false</activeaudioangle>
                    <clip id="clip-2"/>
                  </angle>
                  <angle>
                    <activevideoangle>false</activevideoangle>
                    <activeaudioangle>false</activeaudioangle>
                    <clip id="clip-3"/>
                  </angle>
                  <angle>
                    <activevideoangle>true</activevideoangle>
                    <activeaudioangle>true</activeaudioangle>
                    <clip id="clip-4"/>
                  </angle>
                  <angle>
                    <activevideoangle>false</activevideoangle>
                    <activeaudioangle>false</activeaudioangle>
                    <clip id="clip-5"/>
                  </angle>
                  <angle>
                    <activevideoangle>false</activevideoangle>
                    <activeaudioangle>false</activeaudioangle>
                    <clip id="clip-6"/>
                  </angle>
                  <angle>
                    <activevideoangle>false</activevideoangle>
                    <activeaudioangle>false</activeaudioangle>
                    <clip id="clip-7"/>
                  </angle>
                  <angle>
                    <activevideoangle>false</activevideoangle>
                    <activeaudioangle>false</activeaudioangle>
                    <clip id="clip-8"/>
                  </angle>
                  <angle>
                    <activevideoangle>false</activevideoangle>
                    <activeaudioangle>false</activeaudioangle>
                    <clip id="clip-9"/>
                  </angle>
                  <masterclipid>clip-master</masterclipid>
                </multiclip>
              </clipitem>
              <clipitem id="cs-307">
                <duration>57</duration>
                <rate>
                  <ntsc>false</ntsc>
                  <timebase>25</timebase>
                </rate>
                <in>5361</in>
                <out>5417</out>
                <start>5361</start>
                <end>5417</end>
                <file id="src-3"/>
                <sourcetrack>
                  <mediatype>video</mediatype>
                  <trackindex>1</trackindex>
                </sourcetrack>
                <multiclip id="mcs-307">
                  <name>MCS-307</name>
                  <masterclipid>clip-master</masterclipid>
                  <collapsed>false</collapsed>
                  <angle>
                    <activevideoangle>false</activevideoangle>
                    <activeaudioangle>false</activeaudioangle>
                    <clip id="clip-1"/>
                  </angle>
                  <angle>
                    <activevideoangle>false</activevideoangle>
                    <activeaudioangle>false</activeaudioangle>
                    <clip id="clip-2"/>
                  </angle>
                  <angle>
                    <activevideoangle>true</activevideoangle>
                    <activeaudioangle>true</activeaudioangle>
                    <clip id="clip-3"/>
                  </angle>
                  <angle>
                    <activevideoangle>false</activevideoangle>
                    <activeaudioangle>false</activeaudioangle>
                    <clip id="clip-4"/>
                  </angle>
                  <angle>
                    <activevideoangle>false</activevideoangle>
                    <activeaudioangle>false</activeaudioangle>
                    <clip id="clip-5"/>
                  </angle>
                  <angle>
                    <activevideoangle>false</activevideoangle>
                    <activeaudioangle>false</activeaudioangle>
                    <clip id="clip-6"/>
                  </angle>
                  <angle>
                    <activevideoangle>false</activevideoangle>
                    <activeaudioangle>false</activeaudioangle>
                    <clip id="clip-7"/>
                  </angle>
                  <angle>
                    <activevideoangle>false</activevideoangle>
                    <activeaudioangle>false</activeaudioangle>
                    <clip id="clip-8"/>
                  </angle>
                  <angle>
                    <activevideoangle>false</activevideoangle>
                    <activeaudioangle>false</activeaudioangle>
                    <clip id="clip-9"/>
                  </angle>
                  <masterclipid>clip-master</masterclipid>
                </multiclip>
              </clipitem>
              <clipitem id="cs-308">
                <duration>98</duration>
                <rate>
                  <ntsc>false</ntsc>
                  <timebase>25</timebase>
                </rate>
                <in>5417</in>
                <out>5514</out>
                <start>5417</start>
                <end>5514</end>
                <file id="src-2"/>
                <sourcetrack>
                  <mediatype>video</mediatype>
                  <trackindex>1</trackindex>
                </sourcetrack>
                <multiclip id="mcs-308">
                  <name>MCS-308</name>
                  <masterclipid>clip-master</masterclipid>
                  <collapsed>false</collapsed>
                  <angle>
                    <activevideoangle>false</activevideoangle>
                    <activeaudioangle>false</activeaudioangle>
                    <clip id="clip-1"/>
                  </angle>
                  <angle>
                    <activevideoangle>true</activevideoangle>
                    <activeaudioangle>true</activeaudioangle>
                    <clip id="clip-2"/>
                  </angle>
                  <angle>
                    <activevideoangle>false</activevideoangle>
                    <activeaudioangle>false</activeaudioangle>
                    <clip id="clip-3"/>
                  </angle>
                  <angle>
                    <activevideoangle>false</activevideoangle>
                    <activeaudioangle>false</activeaudioangle>
                    <clip id="clip-4"/>
                  </angle>
                  <angle>
                    <activevideoangle>false</activevideoangle>
                    <activeaudioangle>false</activeaudioangle>
                    <clip id="clip-5"/>
                  </angle>
                  <angle>
                    <activevideoangle>false</activevideoangle>
                    <activeaudioangle>false</activeaudioangle>
                    <clip id="clip-6"/>
                  </angle>
                  <angle>
                    <activevideoangle>false</activevideoangle>
                    <activeaudioangle>false</activeaudioangle>
                    <clip id="clip-7"/>
                  </angle>
                  <angle>
                    <activevideoangle>false</activevideoangle>
                    <activeaudioangle>false</activeaudioangle>
                    <clip id="clip-8"/>
                  </angle>
                  <angle>
                    <activevideoangle>false</activevideoangle>
                    <activeaudioangle>false</activeaudioangle>
                    <clip id="clip-9"/>
                  </angle>
                  <masterclipid>clip-master</masterclipid>
                </multiclip>
              </clipitem>
              <clipitem id="cs-309">
                <duration>573</duration>
                <rate>
                  <ntsc>false</ntsc>
                  <timebase>25</timebase>
                </rate>
                <in>5514</in>
                <out>6086</out>
                <start>5514</start>
                <end>6086</end>
                <file id="src-4"/>
                <sourcetrack>
                  <mediatype>video</mediatype>
                  <trackindex>1</trackindex>
                </sourcetrack>
                <multiclip id="mcs-309">
                  <name>MCS-309</name>
                  <masterclipid>clip-master</masterclipid>
                  <collapsed>false</collapsed>
                  <angle>
                    <activevideoangle>false</activevideoangle>
                    <activeaudioangle>false</activeaudioangle>
                    <clip id="clip-1"/>
                  </angle>
                  <angle>
                    <activevideoangle>false</activevideoangle>
                    <activeaudioangle>false</activeaudioangle>
                    <clip id="clip-2"/>
                  </angle>
                  <angle>
                    <activevideoangle>false</activevideoangle>
                    <activeaudioangle>false</activeaudioangle>
                    <clip id="clip-3"/>
                  </angle>
                  <angle>
                    <activevideoangle>true</activevideoangle>
                    <activeaudioangle>true</activeaudioangle>
                    <clip id="clip-4"/>
                  </angle>
                  <angle>
                    <activevideoangle>false</activevideoangle>
                    <activeaudioangle>false</activeaudioangle>
                    <clip id="clip-5"/>
                  </angle>
                  <angle>
                    <activevideoangle>false</activevideoangle>
                    <activeaudioangle>false</activeaudioangle>
                    <clip id="clip-6"/>
                  </angle>
                  <angle>
                    <activevideoangle>false</activevideoangle>
                    <activeaudioangle>false</activeaudioangle>
                    <clip id="clip-7"/>
                  </angle>
                  <angle>
                    <activevideoangle>false</activevideoangle>
                    <activeaudioangle>false</activeaudioangle>
                    <clip id="clip-8"/>
                  </angle>
                  <angle>
                    <activevideoangle>false</activevideoangle>
                    <activeaudioangle>false</activeaudioangle>
                    <clip id="clip-9"/>
                  </angle>
                  <masterclipid>clip-master</masterclipid>
                </multiclip>
              </clipitem>
              <clipitem id="cs-310">
                <duration>230</duration>
                <rate>
                  <ntsc>false</ntsc>
                  <timebase>25</timebase>
                </rate>
                <in>6086</in>
                <out>6315</out>
                <start>6086</start>
                <end>6315</end>
                <file id="src-2"/>
                <sourcetrack>
                  <mediatype>video</mediatype>
                  <trackindex>1</trackindex>
                </sourcetrack>
                <multiclip id="mcs-310">
                  <name>MCS-310</name>
                  <masterclipid>clip-master</masterclipid>
                  <collapsed>false</collapsed>
                  <angle>
                    <activevideoangle>false</activevideoangle>
                    <activeaudioangle>false</activeaudioangle>
                    <clip id="clip-1"/>
                  </angle>
                  <angle>
                    <activevideoangle>true</activevideoangle>
                    <activeaudioangle>true</activeaudioangle>
                    <clip id="clip-2"/>
                  </angle>
                  <angle>
                    <activevideoangle>false</activevideoangle>
                    <activeaudioangle>false</activeaudioangle>
                    <clip id="clip-3"/>
                  </angle>
                  <angle>
                    <activevideoangle>false</activevideoangle>
                    <activeaudioangle>false</activeaudioangle>
                    <clip id="clip-4"/>
                  </angle>
                  <angle>
                    <activevideoangle>false</activevideoangle>
                    <activeaudioangle>false</activeaudioangle>
                    <clip id="clip-5"/>
                  </angle>
                  <angle>
                    <activevideoangle>false</activevideoangle>
                    <activeaudioangle>false</activeaudioangle>
                    <clip id="clip-6"/>
                  </angle>
                  <angle>
                    <activevideoangle>false</activevideoangle>
                    <activeaudioangle>false</activeaudioangle>
                    <clip id="clip-7"/>
                  </angle>
                  <angle>
                    <activevideoangle>false</activevideoangle>
                    <activeaudioangle>false</activeaudioangle>
                    <clip id="clip-8"/>
                  </angle>
                  <angle>
                    <activevideoangle>false</activevideoangle>
                    <activeaudioangle>false</activeaudioangle>
                    <clip id="clip-9"/>
                  </angle>
                  <masterclipid>clip-master</masterclipid>
                </multiclip>
              </clipitem>
              <clipitem id="cs-311">
                <duration>384</duration>
                <rate>
                  <ntsc>false</ntsc>
                  <timebase>25</timebase>
                </rate>
                <in>6315</in>
                <out>6698</out>
                <start>6315</start>
                <end>6698</end>
                <file id="src-4"/>
                <sourcetrack>
                  <mediatype>video</mediatype>
                  <trackindex>1</trackindex>
                </sourcetrack>
                <multiclip id="mcs-311">
                  <name>MCS-311</name>
                  <masterclipid>clip-master</masterclipid>
                  <collapsed>false</collapsed>
                  <angle>
                    <activevideoangle>false</activevideoangle>
                    <activeaudioangle>false</activeaudioangle>
                    <clip id="clip-1"/>
                  </angle>
                  <angle>
                    <activevideoangle>false</activevideoangle>
                    <activeaudioangle>false</activeaudioangle>
                    <clip id="clip-2"/>
                  </angle>
                  <angle>
                    <activevideoangle>false</activevideoangle>
                    <activeaudioangle>false</activeaudioangle>
                    <clip id="clip-3"/>
                  </angle>
                  <angle>
                    <activevideoangle>true</activevideoangle>
                    <activeaudioangle>true</activeaudioangle>
                    <clip id="clip-4"/>
                  </angle>
                  <angle>
                    <activevideoangle>false</activevideoangle>
                    <activeaudioangle>false</activeaudioangle>
                    <clip id="clip-5"/>
                  </angle>
                  <angle>
                    <activevideoangle>false</activevideoangle>
                    <activeaudioangle>false</activeaudioangle>
                    <clip id="clip-6"/>
                  </angle>
                  <angle>
                    <activevideoangle>false</activevideoangle>
                    <activeaudioangle>false</activeaudioangle>
                    <clip id="clip-7"/>
                  </angle>
                  <angle>
                    <activevideoangle>false</activevideoangle>
                    <activeaudioangle>false</activeaudioangle>
                    <clip id="clip-8"/>
                  </angle>
                  <angle>
                    <activevideoangle>false</activevideoangle>
                    <activeaudioangle>false</activeaudioangle>
                    <clip id="clip-9"/>
                  </angle>
                  <masterclipid>clip-master</masterclipid>
                </multiclip>
              </clipitem>
              <clipitem id="cs-312">
                <duration>51</duration>
                <rate>
                  <ntsc>false</ntsc>
                  <timebase>25</timebase>
                </rate>
                <in>6698</in>
                <out>6748</out>
                <start>6698</start>
                <end>6748</end>
                <file id="src-2"/>
                <sourcetrack>
                  <mediatype>video</mediatype>
                  <trackindex>1</trackindex>
                </sourcetrack>
                <multiclip id="mcs-312">
                  <name>MCS-312</name>
                  <masterclipid>clip-master</masterclipid>
                  <collapsed>false</collapsed>
                  <angle>
                    <activevideoangle>false</activevideoangle>
                    <activeaudioangle>false</activeaudioangle>
                    <clip id="clip-1"/>
                  </angle>
                  <angle>
                    <activevideoangle>true</activevideoangle>
                    <activeaudioangle>true</activeaudioangle>
                    <clip id="clip-2"/>
                  </angle>
                  <angle>
                    <activevideoangle>false</activevideoangle>
                    <activeaudioangle>false</activeaudioangle>
                    <clip id="clip-3"/>
                  </angle>
                  <angle>
                    <activevideoangle>false</activevideoangle>
                    <activeaudioangle>false</activeaudioangle>
                    <clip id="clip-4"/>
                  </angle>
                  <angle>
                    <activevideoangle>false</activevideoangle>
                    <activeaudioangle>false</activeaudioangle>
                    <clip id="clip-5"/>
                  </angle>
                  <angle>
                    <activevideoangle>false</activevideoangle>
                    <activeaudioangle>false</activeaudioangle>
                    <clip id="clip-6"/>
                  </angle>
                  <angle>
                    <activevideoangle>false</activevideoangle>
                    <activeaudioangle>false</activeaudioangle>
                    <clip id="clip-7"/>
                  </angle>
                  <angle>
                    <activevideoangle>false</activevideoangle>
                    <activeaudioangle>false</activeaudioangle>
                    <clip id="clip-8"/>
                  </angle>
                  <angle>
                    <activevideoangle>false</activevideoangle>
                    <activeaudioangle>false</activeaudioangle>
                    <clip id="clip-9"/>
                  </angle>
                  <masterclipid>clip-master</masterclipid>
                </multiclip>
              </clipitem>
              <clipitem id="cs-313">
                <duration>41</duration>
                <rate>
                  <ntsc>false</ntsc>
                  <timebase>25</timebase>
                </rate>
                <in>6748</in>
                <out>6788</out>
                <start>6748</start>
                <end>6788</end>
                <file id="src-7"/>
                <sourcetrack>
                  <mediatype>video</mediatype>
                  <trackindex>1</trackindex>
                </sourcetrack>
                <multiclip id="mcs-313">
                  <name>MCS-313</name>
                  <masterclipid>clip-master</masterclipid>
                  <collapsed>false</collapsed>
                  <angle>
                    <activevideoangle>false</activevideoangle>
                    <activeaudioangle>false</activeaudioangle>
                    <clip id="clip-1"/>
                  </angle>
                  <angle>
                    <activevideoangle>false</activevideoangle>
                    <activeaudioangle>false</activeaudioangle>
                    <clip id="clip-2"/>
                  </angle>
                  <angle>
                    <activevideoangle>false</activevideoangle>
                    <activeaudioangle>false</activeaudioangle>
                    <clip id="clip-3"/>
                  </angle>
                  <angle>
                    <activevideoangle>false</activevideoangle>
                    <activeaudioangle>false</activeaudioangle>
                    <clip id="clip-4"/>
                  </angle>
                  <angle>
                    <activevideoangle>false</activevideoangle>
                    <activeaudioangle>false</activeaudioangle>
                    <clip id="clip-5"/>
                  </angle>
                  <angle>
                    <activevideoangle>false</activevideoangle>
                    <activeaudioangle>false</activeaudioangle>
                    <clip id="clip-6"/>
                  </angle>
                  <angle>
                    <activevideoangle>true</activevideoangle>
                    <activeaudioangle>true</activeaudioangle>
                    <clip id="clip-7"/>
                  </angle>
                  <angle>
                    <activevideoangle>false</activevideoangle>
                    <activeaudioangle>false</activeaudioangle>
                    <clip id="clip-8"/>
                  </angle>
                  <angle>
                    <activevideoangle>false</activevideoangle>
                    <activeaudioangle>false</activeaudioangle>
                    <clip id="clip-9"/>
                  </angle>
                  <masterclipid>clip-master</masterclipid>
                </multiclip>
              </clipitem>
              <clipitem id="cs-314">
                <duration>71</duration>
                <rate>
                  <ntsc>false</ntsc>
                  <timebase>25</timebase>
                </rate>
                <in>6788</in>
                <out>6858</out>
                <start>6788</start>
                <end>6858</end>
                <file id="src-6"/>
                <sourcetrack>
                  <mediatype>video</mediatype>
                  <trackindex>1</trackindex>
                </sourcetrack>
                <multiclip id="mcs-314">
                  <name>MCS-314</name>
                  <masterclipid>clip-master</masterclipid>
                  <collapsed>false</collapsed>
                  <angle>
                    <activevideoangle>false</activevideoangle>
                    <activeaudioangle>false</activeaudioangle>
                    <clip id="clip-1"/>
                  </angle>
                  <angle>
                    <activevideoangle>false</activevideoangle>
                    <activeaudioangle>false</activeaudioangle>
                    <clip id="clip-2"/>
                  </angle>
                  <angle>
                    <activevideoangle>false</activevideoangle>
                    <activeaudioangle>false</activeaudioangle>
                    <clip id="clip-3"/>
                  </angle>
                  <angle>
                    <activevideoangle>false</activevideoangle>
                    <activeaudioangle>false</activeaudioangle>
                    <clip id="clip-4"/>
                  </angle>
                  <angle>
                    <activevideoangle>false</activevideoangle>
                    <activeaudioangle>false</activeaudioangle>
                    <clip id="clip-5"/>
                  </angle>
                  <angle>
                    <activevideoangle>true</activevideoangle>
                    <activeaudioangle>true</activeaudioangle>
                    <clip id="clip-6"/>
                  </angle>
                  <angle>
                    <activevideoangle>false</activevideoangle>
                    <activeaudioangle>false</activeaudioangle>
                    <clip id="clip-7"/>
                  </angle>
                  <angle>
                    <activevideoangle>false</activevideoangle>
                    <activeaudioangle>false</activeaudioangle>
                    <clip id="clip-8"/>
                  </angle>
                  <angle>
                    <activevideoangle>false</activevideoangle>
                    <activeaudioangle>false</activeaudioangle>
                    <clip id="clip-9"/>
                  </angle>
                  <masterclipid>clip-master</masterclipid>
                </multiclip>
              </clipitem>
              <clipitem id="cs-315">
                <duration>47</duration>
                <rate>
                  <ntsc>false</ntsc>
                  <timebase>25</timebase>
                </rate>
                <in>6858</in>
                <out>6904</out>
                <start>6858</start>
                <end>6904</end>
                <file id="src-3"/>
                <sourcetrack>
                  <mediatype>video</mediatype>
                  <trackindex>1</trackindex>
                </sourcetrack>
                <multiclip id="mcs-315">
                  <name>MCS-315</name>
                  <masterclipid>clip-master</masterclipid>
                  <collapsed>false</collapsed>
                  <angle>
                    <activevideoangle>false</activevideoangle>
                    <activeaudioangle>false</activeaudioangle>
                    <clip id="clip-1"/>
                  </angle>
                  <angle>
                    <activevideoangle>false</activevideoangle>
                    <activeaudioangle>false</activeaudioangle>
                    <clip id="clip-2"/>
                  </angle>
                  <angle>
                    <activevideoangle>true</activevideoangle>
                    <activeaudioangle>true</activeaudioangle>
                    <clip id="clip-3"/>
                  </angle>
                  <angle>
                    <activevideoangle>false</activevideoangle>
                    <activeaudioangle>false</activeaudioangle>
                    <clip id="clip-4"/>
                  </angle>
                  <angle>
                    <activevideoangle>false</activevideoangle>
                    <activeaudioangle>false</activeaudioangle>
                    <clip id="clip-5"/>
                  </angle>
                  <angle>
                    <activevideoangle>false</activevideoangle>
                    <activeaudioangle>false</activeaudioangle>
                    <clip id="clip-6"/>
                  </angle>
                  <angle>
                    <activevideoangle>false</activevideoangle>
                    <activeaudioangle>false</activeaudioangle>
                    <clip id="clip-7"/>
                  </angle>
                  <angle>
                    <activevideoangle>false</activevideoangle>
                    <activeaudioangle>false</activeaudioangle>
                    <clip id="clip-8"/>
                  </angle>
                  <angle>
                    <activevideoangle>false</activevideoangle>
                    <activeaudioangle>false</activeaudioangle>
                    <clip id="clip-9"/>
                  </angle>
                  <masterclipid>clip-master</masterclipid>
                </multiclip>
              </clipitem>
              <clipitem id="cs-316">
                <duration>103</duration>
                <rate>
                  <ntsc>false</ntsc>
                  <timebase>25</timebase>
                </rate>
                <in>6904</in>
                <out>7006</out>
                <start>6904</start>
                <end>7006</end>
                <file id="src-2"/>
                <sourcetrack>
                  <mediatype>video</mediatype>
                  <trackindex>1</trackindex>
                </sourcetrack>
                <multiclip id="mcs-316">
                  <name>MCS-316</name>
                  <masterclipid>clip-master</masterclipid>
                  <collapsed>false</collapsed>
                  <angle>
                    <activevideoangle>false</activevideoangle>
                    <activeaudioangle>false</activeaudioangle>
                    <clip id="clip-1"/>
                  </angle>
                  <angle>
                    <activevideoangle>true</activevideoangle>
                    <activeaudioangle>true</activeaudioangle>
                    <clip id="clip-2"/>
                  </angle>
                  <angle>
                    <activevideoangle>false</activevideoangle>
                    <activeaudioangle>false</activeaudioangle>
                    <clip id="clip-3"/>
                  </angle>
                  <angle>
                    <activevideoangle>false</activevideoangle>
                    <activeaudioangle>false</activeaudioangle>
                    <clip id="clip-4"/>
                  </angle>
                  <angle>
                    <activevideoangle>false</activevideoangle>
                    <activeaudioangle>false</activeaudioangle>
                    <clip id="clip-5"/>
                  </angle>
                  <angle>
                    <activevideoangle>false</activevideoangle>
                    <activeaudioangle>false</activeaudioangle>
                    <clip id="clip-6"/>
                  </angle>
                  <angle>
                    <activevideoangle>false</activevideoangle>
                    <activeaudioangle>false</activeaudioangle>
                    <clip id="clip-7"/>
                  </angle>
                  <angle>
                    <activevideoangle>false</activevideoangle>
                    <activeaudioangle>false</activeaudioangle>
                    <clip id="clip-8"/>
                  </angle>
                  <angle>
                    <activevideoangle>false</activevideoangle>
                    <activeaudioangle>false</activeaudioangle>
                    <clip id="clip-9"/>
                  </angle>
                  <masterclipid>clip-master</masterclipid>
                </multiclip>
              </clipitem>
              <clipitem id="cs-317">
                <duration>87</duration>
                <rate>
                  <ntsc>false</ntsc>
                  <timebase>25</timebase>
                </rate>
                <in>7006</in>
                <out>7092</out>
                <start>7006</start>
                <end>7092</end>
                <file id="src-4"/>
                <sourcetrack>
                  <mediatype>video</mediatype>
                  <trackindex>1</trackindex>
                </sourcetrack>
                <multiclip id="mcs-317">
                  <name>MCS-317</name>
                  <masterclipid>clip-master</masterclipid>
                  <collapsed>false</collapsed>
                  <angle>
                    <activevideoangle>false</activevideoangle>
                    <activeaudioangle>false</activeaudioangle>
                    <clip id="clip-1"/>
                  </angle>
                  <angle>
                    <activevideoangle>false</activevideoangle>
                    <activeaudioangle>false</activeaudioangle>
                    <clip id="clip-2"/>
                  </angle>
                  <angle>
                    <activevideoangle>false</activevideoangle>
                    <activeaudioangle>false</activeaudioangle>
                    <clip id="clip-3"/>
                  </angle>
                  <angle>
                    <activevideoangle>true</activevideoangle>
                    <activeaudioangle>true</activeaudioangle>
                    <clip id="clip-4"/>
                  </angle>
                  <angle>
                    <activevideoangle>false</activevideoangle>
                    <activeaudioangle>false</activeaudioangle>
                    <clip id="clip-5"/>
                  </angle>
                  <angle>
                    <activevideoangle>false</activevideoangle>
                    <activeaudioangle>false</activeaudioangle>
                    <clip id="clip-6"/>
                  </angle>
                  <angle>
                    <activevideoangle>false</activevideoangle>
                    <activeaudioangle>false</activeaudioangle>
                    <clip id="clip-7"/>
                  </angle>
                  <angle>
                    <activevideoangle>false</activevideoangle>
                    <activeaudioangle>false</activeaudioangle>
                    <clip id="clip-8"/>
                  </angle>
                  <angle>
                    <activevideoangle>false</activevideoangle>
                    <activeaudioangle>false</activeaudioangle>
                    <clip id="clip-9"/>
                  </angle>
                  <masterclipid>clip-master</masterclipid>
                </multiclip>
              </clipitem>
              <clipitem id="cs-318">
                <duration>77</duration>
                <rate>
                  <ntsc>false</ntsc>
                  <timebase>25</timebase>
                </rate>
                <in>7092</in>
                <out>7168</out>
                <start>7092</start>
                <end>7168</end>
                <file id="src-8"/>
                <sourcetrack>
                  <mediatype>video</mediatype>
                  <trackindex>1</trackindex>
                </sourcetrack>
                <multiclip id="mcs-318">
                  <name>MCS-318</name>
                  <masterclipid>clip-master</masterclipid>
                  <collapsed>false</collapsed>
                  <angle>
                    <activevideoangle>false</activevideoangle>
                    <activeaudioangle>false</activeaudioangle>
                    <clip id="clip-1"/>
                  </angle>
                  <angle>
                    <activevideoangle>false</activevideoangle>
                    <activeaudioangle>false</activeaudioangle>
                    <clip id="clip-2"/>
                  </angle>
                  <angle>
                    <activevideoangle>false</activevideoangle>
                    <activeaudioangle>false</activeaudioangle>
                    <clip id="clip-3"/>
                  </angle>
                  <angle>
                    <activevideoangle>false</activevideoangle>
                    <activeaudioangle>false</activeaudioangle>
                    <clip id="clip-4"/>
                  </angle>
                  <angle>
                    <activevideoangle>false</activevideoangle>
                    <activeaudioangle>false</activeaudioangle>
                    <clip id="clip-5"/>
                  </angle>
                  <angle>
                    <activevideoangle>false</activevideoangle>
                    <activeaudioangle>false</activeaudioangle>
                    <clip id="clip-6"/>
                  </angle>
                  <angle>
                    <activevideoangle>false</activevideoangle>
                    <activeaudioangle>false</activeaudioangle>
                    <clip id="clip-7"/>
                  </angle>
                  <angle>
                    <activevideoangle>true</activevideoangle>
                    <activeaudioangle>true</activeaudioangle>
                    <clip id="clip-8"/>
                  </angle>
                  <angle>
                    <activevideoangle>false</activevideoangle>
                    <activeaudioangle>false</activeaudioangle>
                    <clip id="clip-9"/>
                  </angle>
                  <masterclipid>clip-master</masterclipid>
                </multiclip>
              </clipitem>
              <clipitem id="cs-319">
                <duration>84</duration>
                <rate>
                  <ntsc>false</ntsc>
                  <timebase>25</timebase>
                </rate>
                <in>7168</in>
                <out>7251</out>
                <start>7168</start>
                <end>7251</end>
                <file id="src-3"/>
                <sourcetrack>
                  <mediatype>video</mediatype>
                  <trackindex>1</trackindex>
                </sourcetrack>
                <multiclip id="mcs-319">
                  <name>MCS-319</name>
                  <masterclipid>clip-master</masterclipid>
                  <collapsed>false</collapsed>
                  <angle>
                    <activevideoangle>false</activevideoangle>
                    <activeaudioangle>false</activeaudioangle>
                    <clip id="clip-1"/>
                  </angle>
                  <angle>
                    <activevideoangle>false</activevideoangle>
                    <activeaudioangle>false</activeaudioangle>
                    <clip id="clip-2"/>
                  </angle>
                  <angle>
                    <activevideoangle>true</activevideoangle>
                    <activeaudioangle>true</activeaudioangle>
                    <clip id="clip-3"/>
                  </angle>
                  <angle>
                    <activevideoangle>false</activevideoangle>
                    <activeaudioangle>false</activeaudioangle>
                    <clip id="clip-4"/>
                  </angle>
                  <angle>
                    <activevideoangle>false</activevideoangle>
                    <activeaudioangle>false</activeaudioangle>
                    <clip id="clip-5"/>
                  </angle>
                  <angle>
                    <activevideoangle>false</activevideoangle>
                    <activeaudioangle>false</activeaudioangle>
                    <clip id="clip-6"/>
                  </angle>
                  <angle>
                    <activevideoangle>false</activevideoangle>
                    <activeaudioangle>false</activeaudioangle>
                    <clip id="clip-7"/>
                  </angle>
                  <angle>
                    <activevideoangle>false</activevideoangle>
                    <activeaudioangle>false</activeaudioangle>
                    <clip id="clip-8"/>
                  </angle>
                  <angle>
                    <activevideoangle>false</activevideoangle>
                    <activeaudioangle>false</activeaudioangle>
                    <clip id="clip-9"/>
                  </angle>
                  <masterclipid>clip-master</masterclipid>
                </multiclip>
              </clipitem>
              <clipitem id="cs-320">
                <duration>78</duration>
                <rate>
                  <ntsc>false</ntsc>
                  <timebase>25</timebase>
                </rate>
                <in>7251</in>
                <out>7328</out>
                <start>7251</start>
                <end>7328</end>
                <file id="src-4"/>
                <sourcetrack>
                  <mediatype>video</mediatype>
                  <trackindex>1</trackindex>
                </sourcetrack>
                <multiclip id="mcs-320">
                  <name>MCS-320</name>
                  <masterclipid>clip-master</masterclipid>
                  <collapsed>false</collapsed>
                  <angle>
                    <activevideoangle>false</activevideoangle>
                    <activeaudioangle>false</activeaudioangle>
                    <clip id="clip-1"/>
                  </angle>
                  <angle>
                    <activevideoangle>false</activevideoangle>
                    <activeaudioangle>false</activeaudioangle>
                    <clip id="clip-2"/>
                  </angle>
                  <angle>
                    <activevideoangle>false</activevideoangle>
                    <activeaudioangle>false</activeaudioangle>
                    <clip id="clip-3"/>
                  </angle>
                  <angle>
                    <activevideoangle>true</activevideoangle>
                    <activeaudioangle>true</activeaudioangle>
                    <clip id="clip-4"/>
                  </angle>
                  <angle>
                    <activevideoangle>false</activevideoangle>
                    <activeaudioangle>false</activeaudioangle>
                    <clip id="clip-5"/>
                  </angle>
                  <angle>
                    <activevideoangle>false</activevideoangle>
                    <activeaudioangle>false</activeaudioangle>
                    <clip id="clip-6"/>
                  </angle>
                  <angle>
                    <activevideoangle>false</activevideoangle>
                    <activeaudioangle>false</activeaudioangle>
                    <clip id="clip-7"/>
                  </angle>
                  <angle>
                    <activevideoangle>false</activevideoangle>
                    <activeaudioangle>false</activeaudioangle>
                    <clip id="clip-8"/>
                  </angle>
                  <angle>
                    <activevideoangle>false</activevideoangle>
                    <activeaudioangle>false</activeaudioangle>
                    <clip id="clip-9"/>
                  </angle>
                  <masterclipid>clip-master</masterclipid>
                </multiclip>
              </clipitem>
              <clipitem id="cs-321">
                <duration>87</duration>
                <rate>
                  <ntsc>false</ntsc>
                  <timebase>25</timebase>
                </rate>
                <in>7328</in>
                <out>7414</out>
                <start>7328</start>
                <end>7414</end>
                <file id="src-1"/>
                <sourcetrack>
                  <mediatype>video</mediatype>
                  <trackindex>1</trackindex>
                </sourcetrack>
                <multiclip id="mcs-321">
                  <name>MCS-321</name>
                  <masterclipid>clip-master</masterclipid>
                  <collapsed>false</collapsed>
                  <angle>
                    <activevideoangle>true</activevideoangle>
                    <activeaudioangle>true</activeaudioangle>
                    <clip id="clip-1"/>
                  </angle>
                  <angle>
                    <activevideoangle>false</activevideoangle>
                    <activeaudioangle>false</activeaudioangle>
                    <clip id="clip-2"/>
                  </angle>
                  <angle>
                    <activevideoangle>false</activevideoangle>
                    <activeaudioangle>false</activeaudioangle>
                    <clip id="clip-3"/>
                  </angle>
                  <angle>
                    <activevideoangle>false</activevideoangle>
                    <activeaudioangle>false</activeaudioangle>
                    <clip id="clip-4"/>
                  </angle>
                  <angle>
                    <activevideoangle>false</activevideoangle>
                    <activeaudioangle>false</activeaudioangle>
                    <clip id="clip-5"/>
                  </angle>
                  <angle>
                    <activevideoangle>false</activevideoangle>
                    <activeaudioangle>false</activeaudioangle>
                    <clip id="clip-6"/>
                  </angle>
                  <angle>
                    <activevideoangle>false</activevideoangle>
                    <activeaudioangle>false</activeaudioangle>
                    <clip id="clip-7"/>
                  </angle>
                  <angle>
                    <activevideoangle>false</activevideoangle>
                    <activeaudioangle>false</activeaudioangle>
                    <clip id="clip-8"/>
                  </angle>
                  <angle>
                    <activevideoangle>false</activevideoangle>
                    <activeaudioangle>false</activeaudioangle>
                    <clip id="clip-9"/>
                  </angle>
                  <masterclipid>clip-master</masterclipid>
                </multiclip>
              </clipitem>
              <clipitem id="cs-322">
                <duration>138</duration>
                <rate>
                  <ntsc>false</ntsc>
                  <timebase>25</timebase>
                </rate>
                <in>7414</in>
                <out>7551</out>
                <start>7414</start>
                <end>7551</end>
                <file id="src-4"/>
                <sourcetrack>
                  <mediatype>video</mediatype>
                  <trackindex>1</trackindex>
                </sourcetrack>
                <multiclip id="mcs-322">
                  <name>MCS-322</name>
                  <masterclipid>clip-master</masterclipid>
                  <collapsed>false</collapsed>
                  <angle>
                    <activevideoangle>false</activevideoangle>
                    <activeaudioangle>false</activeaudioangle>
                    <clip id="clip-1"/>
                  </angle>
                  <angle>
                    <activevideoangle>false</activevideoangle>
                    <activeaudioangle>false</activeaudioangle>
                    <clip id="clip-2"/>
                  </angle>
                  <angle>
                    <activevideoangle>false</activevideoangle>
                    <activeaudioangle>false</activeaudioangle>
                    <clip id="clip-3"/>
                  </angle>
                  <angle>
                    <activevideoangle>true</activevideoangle>
                    <activeaudioangle>true</activeaudioangle>
                    <clip id="clip-4"/>
                  </angle>
                  <angle>
                    <activevideoangle>false</activevideoangle>
                    <activeaudioangle>false</activeaudioangle>
                    <clip id="clip-5"/>
                  </angle>
                  <angle>
                    <activevideoangle>false</activevideoangle>
                    <activeaudioangle>false</activeaudioangle>
                    <clip id="clip-6"/>
                  </angle>
                  <angle>
                    <activevideoangle>false</activevideoangle>
                    <activeaudioangle>false</activeaudioangle>
                    <clip id="clip-7"/>
                  </angle>
                  <angle>
                    <activevideoangle>false</activevideoangle>
                    <activeaudioangle>false</activeaudioangle>
                    <clip id="clip-8"/>
                  </angle>
                  <angle>
                    <activevideoangle>false</activevideoangle>
                    <activeaudioangle>false</activeaudioangle>
                    <clip id="clip-9"/>
                  </angle>
                  <masterclipid>clip-master</masterclipid>
                </multiclip>
              </clipitem>
              <clipitem id="cs-323">
                <duration>82</duration>
                <rate>
                  <ntsc>false</ntsc>
                  <timebase>25</timebase>
                </rate>
                <in>7551</in>
                <out>7632</out>
                <start>7551</start>
                <end>7632</end>
                <file id="src-5"/>
                <sourcetrack>
                  <mediatype>video</mediatype>
                  <trackindex>1</trackindex>
                </sourcetrack>
                <multiclip id="mcs-323">
                  <name>MCS-323</name>
                  <masterclipid>clip-master</masterclipid>
                  <collapsed>false</collapsed>
                  <angle>
                    <activevideoangle>false</activevideoangle>
                    <activeaudioangle>false</activeaudioangle>
                    <clip id="clip-1"/>
                  </angle>
                  <angle>
                    <activevideoangle>false</activevideoangle>
                    <activeaudioangle>false</activeaudioangle>
                    <clip id="clip-2"/>
                  </angle>
                  <angle>
                    <activevideoangle>false</activevideoangle>
                    <activeaudioangle>false</activeaudioangle>
                    <clip id="clip-3"/>
                  </angle>
                  <angle>
                    <activevideoangle>false</activevideoangle>
                    <activeaudioangle>false</activeaudioangle>
                    <clip id="clip-4"/>
                  </angle>
                  <angle>
                    <activevideoangle>true</activevideoangle>
                    <activeaudioangle>true</activeaudioangle>
                    <clip id="clip-5"/>
                  </angle>
                  <angle>
                    <activevideoangle>false</activevideoangle>
                    <activeaudioangle>false</activeaudioangle>
                    <clip id="clip-6"/>
                  </angle>
                  <angle>
                    <activevideoangle>false</activevideoangle>
                    <activeaudioangle>false</activeaudioangle>
                    <clip id="clip-7"/>
                  </angle>
                  <angle>
                    <activevideoangle>false</activevideoangle>
                    <activeaudioangle>false</activeaudioangle>
                    <clip id="clip-8"/>
                  </angle>
                  <angle>
                    <activevideoangle>false</activevideoangle>
                    <activeaudioangle>false</activeaudioangle>
                    <clip id="clip-9"/>
                  </angle>
                  <masterclipid>clip-master</masterclipid>
                </multiclip>
              </clipitem>
              <clipitem id="cs-324">
                <duration>62</duration>
                <rate>
                  <ntsc>false</ntsc>
                  <timebase>25</timebase>
                </rate>
                <in>7632</in>
                <out>7693</out>
                <start>7632</start>
                <end>7693</end>
                <file id="src-3"/>
                <sourcetrack>
                  <mediatype>video</mediatype>
                  <trackindex>1</trackindex>
                </sourcetrack>
                <multiclip id="mcs-324">
                  <name>MCS-324</name>
                  <masterclipid>clip-master</masterclipid>
                  <collapsed>false</collapsed>
                  <angle>
                    <activevideoangle>false</activevideoangle>
                    <activeaudioangle>false</activeaudioangle>
                    <clip id="clip-1"/>
                  </angle>
                  <angle>
                    <activevideoangle>false</activevideoangle>
                    <activeaudioangle>false</activeaudioangle>
                    <clip id="clip-2"/>
                  </angle>
                  <angle>
                    <activevideoangle>true</activevideoangle>
                    <activeaudioangle>true</activeaudioangle>
                    <clip id="clip-3"/>
                  </angle>
                  <angle>
                    <activevideoangle>false</activevideoangle>
                    <activeaudioangle>false</activeaudioangle>
                    <clip id="clip-4"/>
                  </angle>
                  <angle>
                    <activevideoangle>false</activevideoangle>
                    <activeaudioangle>false</activeaudioangle>
                    <clip id="clip-5"/>
                  </angle>
                  <angle>
                    <activevideoangle>false</activevideoangle>
                    <activeaudioangle>false</activeaudioangle>
                    <clip id="clip-6"/>
                  </angle>
                  <angle>
                    <activevideoangle>false</activevideoangle>
                    <activeaudioangle>false</activeaudioangle>
                    <clip id="clip-7"/>
                  </angle>
                  <angle>
                    <activevideoangle>false</activevideoangle>
                    <activeaudioangle>false</activeaudioangle>
                    <clip id="clip-8"/>
                  </angle>
                  <angle>
                    <activevideoangle>false</activevideoangle>
                    <activeaudioangle>false</activeaudioangle>
                    <clip id="clip-9"/>
                  </angle>
                  <masterclipid>clip-master</masterclipid>
                </multiclip>
              </clipitem>
              <clipitem id="cs-325">
                <duration>353</duration>
                <rate>
                  <ntsc>false</ntsc>
                  <timebase>25</timebase>
                </rate>
                <in>7693</in>
                <out>8045</out>
                <start>7693</start>
                <end>8045</end>
                <file id="src-2"/>
                <sourcetrack>
                  <mediatype>video</mediatype>
                  <trackindex>1</trackindex>
                </sourcetrack>
                <multiclip id="mcs-325">
                  <name>MCS-325</name>
                  <masterclipid>clip-master</masterclipid>
                  <collapsed>false</collapsed>
                  <angle>
                    <activevideoangle>false</activevideoangle>
                    <activeaudioangle>false</activeaudioangle>
                    <clip id="clip-1"/>
                  </angle>
                  <angle>
                    <activevideoangle>true</activevideoangle>
                    <activeaudioangle>true</activeaudioangle>
                    <clip id="clip-2"/>
                  </angle>
                  <angle>
                    <activevideoangle>false</activevideoangle>
                    <activeaudioangle>false</activeaudioangle>
                    <clip id="clip-3"/>
                  </angle>
                  <angle>
                    <activevideoangle>false</activevideoangle>
                    <activeaudioangle>false</activeaudioangle>
                    <clip id="clip-4"/>
                  </angle>
                  <angle>
                    <activevideoangle>false</activevideoangle>
                    <activeaudioangle>false</activeaudioangle>
                    <clip id="clip-5"/>
                  </angle>
                  <angle>
                    <activevideoangle>false</activevideoangle>
                    <activeaudioangle>false</activeaudioangle>
                    <clip id="clip-6"/>
                  </angle>
                  <angle>
                    <activevideoangle>false</activevideoangle>
                    <activeaudioangle>false</activeaudioangle>
                    <clip id="clip-7"/>
                  </angle>
                  <angle>
                    <activevideoangle>false</activevideoangle>
                    <activeaudioangle>false</activeaudioangle>
                    <clip id="clip-8"/>
                  </angle>
                  <angle>
                    <activevideoangle>false</activevideoangle>
                    <activeaudioangle>false</activeaudioangle>
                    <clip id="clip-9"/>
                  </angle>
                  <masterclipid>clip-master</masterclipid>
                </multiclip>
              </clipitem>
              <clipitem id="cs-326">
                <duration>219</duration>
                <rate>
                  <ntsc>false</ntsc>
                  <timebase>25</timebase>
                </rate>
                <in>8045</in>
                <out>8263</out>
                <start>8045</start>
                <end>8263</end>
                <file id="src-3"/>
                <sourcetrack>
                  <mediatype>video</mediatype>
                  <trackindex>1</trackindex>
                </sourcetrack>
                <multiclip id="mcs-326">
                  <name>MCS-326</name>
                  <masterclipid>clip-master</masterclipid>
                  <collapsed>false</collapsed>
                  <angle>
                    <activevideoangle>false</activevideoangle>
                    <activeaudioangle>false</activeaudioangle>
                    <clip id="clip-1"/>
                  </angle>
                  <angle>
                    <activevideoangle>false</activevideoangle>
                    <activeaudioangle>false</activeaudioangle>
                    <clip id="clip-2"/>
                  </angle>
                  <angle>
                    <activevideoangle>true</activevideoangle>
                    <activeaudioangle>true</activeaudioangle>
                    <clip id="clip-3"/>
                  </angle>
                  <angle>
                    <activevideoangle>false</activevideoangle>
                    <activeaudioangle>false</activeaudioangle>
                    <clip id="clip-4"/>
                  </angle>
                  <angle>
                    <activevideoangle>false</activevideoangle>
                    <activeaudioangle>false</activeaudioangle>
                    <clip id="clip-5"/>
                  </angle>
                  <angle>
                    <activevideoangle>false</activevideoangle>
                    <activeaudioangle>false</activeaudioangle>
                    <clip id="clip-6"/>
                  </angle>
                  <angle>
                    <activevideoangle>false</activevideoangle>
                    <activeaudioangle>false</activeaudioangle>
                    <clip id="clip-7"/>
                  </angle>
                  <angle>
                    <activevideoangle>false</activevideoangle>
                    <activeaudioangle>false</activeaudioangle>
                    <clip id="clip-8"/>
                  </angle>
                  <angle>
                    <activevideoangle>false</activevideoangle>
                    <activeaudioangle>false</activeaudioangle>
                    <clip id="clip-9"/>
                  </angle>
                  <masterclipid>clip-master</masterclipid>
                </multiclip>
              </clipitem>
              <clipitem id="cs-327">
                <duration>85</duration>
                <rate>
                  <ntsc>false</ntsc>
                  <timebase>25</timebase>
                </rate>
                <in>8263</in>
                <out>8347</out>
                <start>8263</start>
                <end>8347</end>
                <file id="src-4"/>
                <sourcetrack>
                  <mediatype>video</mediatype>
                  <trackindex>1</trackindex>
                </sourcetrack>
                <multiclip id="mcs-327">
                  <name>MCS-327</name>
                  <masterclipid>clip-master</masterclipid>
                  <collapsed>false</collapsed>
                  <angle>
                    <activevideoangle>false</activevideoangle>
                    <activeaudioangle>false</activeaudioangle>
                    <clip id="clip-1"/>
                  </angle>
                  <angle>
                    <activevideoangle>false</activevideoangle>
                    <activeaudioangle>false</activeaudioangle>
                    <clip id="clip-2"/>
                  </angle>
                  <angle>
                    <activevideoangle>false</activevideoangle>
                    <activeaudioangle>false</activeaudioangle>
                    <clip id="clip-3"/>
                  </angle>
                  <angle>
                    <activevideoangle>true</activevideoangle>
                    <activeaudioangle>true</activeaudioangle>
                    <clip id="clip-4"/>
                  </angle>
                  <angle>
                    <activevideoangle>false</activevideoangle>
                    <activeaudioangle>false</activeaudioangle>
                    <clip id="clip-5"/>
                  </angle>
                  <angle>
                    <activevideoangle>false</activevideoangle>
                    <activeaudioangle>false</activeaudioangle>
                    <clip id="clip-6"/>
                  </angle>
                  <angle>
                    <activevideoangle>false</activevideoangle>
                    <activeaudioangle>false</activeaudioangle>
                    <clip id="clip-7"/>
                  </angle>
                  <angle>
                    <activevideoangle>false</activevideoangle>
                    <activeaudioangle>false</activeaudioangle>
                    <clip id="clip-8"/>
                  </angle>
                  <angle>
                    <activevideoangle>false</activevideoangle>
                    <activeaudioangle>false</activeaudioangle>
                    <clip id="clip-9"/>
                  </angle>
                  <masterclipid>clip-master</masterclipid>
                </multiclip>
              </clipitem>
              <clipitem id="cs-328">
                <duration>73</duration>
                <rate>
                  <ntsc>false</ntsc>
                  <timebase>25</timebase>
                </rate>
                <in>8347</in>
                <out>8419</out>
                <start>8347</start>
                <end>8419</end>
                <file id="src-3"/>
                <sourcetrack>
                  <mediatype>video</mediatype>
                  <trackindex>1</trackindex>
                </sourcetrack>
                <multiclip id="mcs-328">
                  <name>MCS-328</name>
                  <masterclipid>clip-master</masterclipid>
                  <collapsed>false</collapsed>
                  <angle>
                    <activevideoangle>false</activevideoangle>
                    <activeaudioangle>false</activeaudioangle>
                    <clip id="clip-1"/>
                  </angle>
                  <angle>
                    <activevideoangle>false</activevideoangle>
                    <activeaudioangle>false</activeaudioangle>
                    <clip id="clip-2"/>
                  </angle>
                  <angle>
                    <activevideoangle>true</activevideoangle>
                    <activeaudioangle>true</activeaudioangle>
                    <clip id="clip-3"/>
                  </angle>
                  <angle>
                    <activevideoangle>false</activevideoangle>
                    <activeaudioangle>false</activeaudioangle>
                    <clip id="clip-4"/>
                  </angle>
                  <angle>
                    <activevideoangle>false</activevideoangle>
                    <activeaudioangle>false</activeaudioangle>
                    <clip id="clip-5"/>
                  </angle>
                  <angle>
                    <activevideoangle>false</activevideoangle>
                    <activeaudioangle>false</activeaudioangle>
                    <clip id="clip-6"/>
                  </angle>
                  <angle>
                    <activevideoangle>false</activevideoangle>
                    <activeaudioangle>false</activeaudioangle>
                    <clip id="clip-7"/>
                  </angle>
                  <angle>
                    <activevideoangle>false</activevideoangle>
                    <activeaudioangle>false</activeaudioangle>
                    <clip id="clip-8"/>
                  </angle>
                  <angle>
                    <activevideoangle>false</activevideoangle>
                    <activeaudioangle>false</activeaudioangle>
                    <clip id="clip-9"/>
                  </angle>
                  <masterclipid>clip-master</masterclipid>
                </multiclip>
              </clipitem>
              <clipitem id="cs-329">
                <duration>101</duration>
                <rate>
                  <ntsc>false</ntsc>
                  <timebase>25</timebase>
                </rate>
                <in>8419</in>
                <out>8519</out>
                <start>8419</start>
                <end>8519</end>
                <file id="src-7"/>
                <sourcetrack>
                  <mediatype>video</mediatype>
                  <trackindex>1</trackindex>
                </sourcetrack>
                <multiclip id="mcs-329">
                  <name>MCS-329</name>
                  <masterclipid>clip-master</masterclipid>
                  <collapsed>false</collapsed>
                  <angle>
                    <activevideoangle>false</activevideoangle>
                    <activeaudioangle>false</activeaudioangle>
                    <clip id="clip-1"/>
                  </angle>
                  <angle>
                    <activevideoangle>false</activevideoangle>
                    <activeaudioangle>false</activeaudioangle>
                    <clip id="clip-2"/>
                  </angle>
                  <angle>
                    <activevideoangle>false</activevideoangle>
                    <activeaudioangle>false</activeaudioangle>
                    <clip id="clip-3"/>
                  </angle>
                  <angle>
                    <activevideoangle>false</activevideoangle>
                    <activeaudioangle>false</activeaudioangle>
                    <clip id="clip-4"/>
                  </angle>
                  <angle>
                    <activevideoangle>false</activevideoangle>
                    <activeaudioangle>false</activeaudioangle>
                    <clip id="clip-5"/>
                  </angle>
                  <angle>
                    <activevideoangle>false</activevideoangle>
                    <activeaudioangle>false</activeaudioangle>
                    <clip id="clip-6"/>
                  </angle>
                  <angle>
                    <activevideoangle>true</activevideoangle>
                    <activeaudioangle>true</activeaudioangle>
                    <clip id="clip-7"/>
                  </angle>
                  <angle>
                    <activevideoangle>false</activevideoangle>
                    <activeaudioangle>false</activeaudioangle>
                    <clip id="clip-8"/>
                  </angle>
                  <angle>
                    <activevideoangle>false</activevideoangle>
                    <activeaudioangle>false</activeaudioangle>
                    <clip id="clip-9"/>
                  </angle>
                  <masterclipid>clip-master</masterclipid>
                </multiclip>
              </clipitem>
              <clipitem id="cs-330">
                <duration>81</duration>
                <rate>
                  <ntsc>false</ntsc>
                  <timebase>25</timebase>
                </rate>
                <in>8519</in>
                <out>8599</out>
                <start>8519</start>
                <end>8599</end>
                <file id="src-3"/>
                <sourcetrack>
                  <mediatype>video</mediatype>
                  <trackindex>1</trackindex>
                </sourcetrack>
                <multiclip id="mcs-330">
                  <name>MCS-330</name>
                  <masterclipid>clip-master</masterclipid>
                  <collapsed>false</collapsed>
                  <angle>
                    <activevideoangle>false</activevideoangle>
                    <activeaudioangle>false</activeaudioangle>
                    <clip id="clip-1"/>
                  </angle>
                  <angle>
                    <activevideoangle>false</activevideoangle>
                    <activeaudioangle>false</activeaudioangle>
                    <clip id="clip-2"/>
                  </angle>
                  <angle>
                    <activevideoangle>true</activevideoangle>
                    <activeaudioangle>true</activeaudioangle>
                    <clip id="clip-3"/>
                  </angle>
                  <angle>
                    <activevideoangle>false</activevideoangle>
                    <activeaudioangle>false</activeaudioangle>
                    <clip id="clip-4"/>
                  </angle>
                  <angle>
                    <activevideoangle>false</activevideoangle>
                    <activeaudioangle>false</activeaudioangle>
                    <clip id="clip-5"/>
                  </angle>
                  <angle>
                    <activevideoangle>false</activevideoangle>
                    <activeaudioangle>false</activeaudioangle>
                    <clip id="clip-6"/>
                  </angle>
                  <angle>
                    <activevideoangle>false</activevideoangle>
                    <activeaudioangle>false</activeaudioangle>
                    <clip id="clip-7"/>
                  </angle>
                  <angle>
                    <activevideoangle>false</activevideoangle>
                    <activeaudioangle>false</activeaudioangle>
                    <clip id="clip-8"/>
                  </angle>
                  <angle>
                    <activevideoangle>false</activevideoangle>
                    <activeaudioangle>false</activeaudioangle>
                    <clip id="clip-9"/>
                  </angle>
                  <masterclipid>clip-master</masterclipid>
                </multiclip>
              </clipitem>
              <clipitem id="cs-331">
                <duration>51</duration>
                <rate>
                  <ntsc>false</ntsc>
                  <timebase>25</timebase>
                </rate>
                <in>8599</in>
                <out>8649</out>
                <start>8599</start>
                <end>8649</end>
                <file id="src-6"/>
                <sourcetrack>
                  <mediatype>video</mediatype>
                  <trackindex>1</trackindex>
                </sourcetrack>
                <multiclip id="mcs-331">
                  <name>MCS-331</name>
                  <masterclipid>clip-master</masterclipid>
                  <collapsed>false</collapsed>
                  <angle>
                    <activevideoangle>false</activevideoangle>
                    <activeaudioangle>false</activeaudioangle>
                    <clip id="clip-1"/>
                  </angle>
                  <angle>
                    <activevideoangle>false</activevideoangle>
                    <activeaudioangle>false</activeaudioangle>
                    <clip id="clip-2"/>
                  </angle>
                  <angle>
                    <activevideoangle>false</activevideoangle>
                    <activeaudioangle>false</activeaudioangle>
                    <clip id="clip-3"/>
                  </angle>
                  <angle>
                    <activevideoangle>false</activevideoangle>
                    <activeaudioangle>false</activeaudioangle>
                    <clip id="clip-4"/>
                  </angle>
                  <angle>
                    <activevideoangle>false</activevideoangle>
                    <activeaudioangle>false</activeaudioangle>
                    <clip id="clip-5"/>
                  </angle>
                  <angle>
                    <activevideoangle>true</activevideoangle>
                    <activeaudioangle>true</activeaudioangle>
                    <clip id="clip-6"/>
                  </angle>
                  <angle>
                    <activevideoangle>false</activevideoangle>
                    <activeaudioangle>false</activeaudioangle>
                    <clip id="clip-7"/>
                  </angle>
                  <angle>
                    <activevideoangle>false</activevideoangle>
                    <activeaudioangle>false</activeaudioangle>
                    <clip id="clip-8"/>
                  </angle>
                  <angle>
                    <activevideoangle>false</activevideoangle>
                    <activeaudioangle>false</activeaudioangle>
                    <clip id="clip-9"/>
                  </angle>
                  <masterclipid>clip-master</masterclipid>
                </multiclip>
              </clipitem>
              <clipitem id="cs-332">
                <duration>65</duration>
                <rate>
                  <ntsc>false</ntsc>
                  <timebase>25</timebase>
                </rate>
                <in>8649</in>
                <out>8713</out>
                <start>8649</start>
                <end>8713</end>
                <file id="src-4"/>
                <sourcetrack>
                  <mediatype>video</mediatype>
                  <trackindex>1</trackindex>
                </sourcetrack>
                <multiclip id="mcs-332">
                  <name>MCS-332</name>
                  <masterclipid>clip-master</masterclipid>
                  <collapsed>false</collapsed>
                  <angle>
                    <activevideoangle>false</activevideoangle>
                    <activeaudioangle>false</activeaudioangle>
                    <clip id="clip-1"/>
                  </angle>
                  <angle>
                    <activevideoangle>false</activevideoangle>
                    <activeaudioangle>false</activeaudioangle>
                    <clip id="clip-2"/>
                  </angle>
                  <angle>
                    <activevideoangle>false</activevideoangle>
                    <activeaudioangle>false</activeaudioangle>
                    <clip id="clip-3"/>
                  </angle>
                  <angle>
                    <activevideoangle>true</activevideoangle>
                    <activeaudioangle>true</activeaudioangle>
                    <clip id="clip-4"/>
                  </angle>
                  <angle>
                    <activevideoangle>false</activevideoangle>
                    <activeaudioangle>false</activeaudioangle>
                    <clip id="clip-5"/>
                  </angle>
                  <angle>
                    <activevideoangle>false</activevideoangle>
                    <activeaudioangle>false</activeaudioangle>
                    <clip id="clip-6"/>
                  </angle>
                  <angle>
                    <activevideoangle>false</activevideoangle>
                    <activeaudioangle>false</activeaudioangle>
                    <clip id="clip-7"/>
                  </angle>
                  <angle>
                    <activevideoangle>false</activevideoangle>
                    <activeaudioangle>false</activeaudioangle>
                    <clip id="clip-8"/>
                  </angle>
                  <angle>
                    <activevideoangle>false</activevideoangle>
                    <activeaudioangle>false</activeaudioangle>
                    <clip id="clip-9"/>
                  </angle>
                  <masterclipid>clip-master</masterclipid>
                </multiclip>
              </clipitem>
              <clipitem id="cs-333">
                <duration>246</duration>
                <rate>
                  <ntsc>false</ntsc>
                  <timebase>25</timebase>
                </rate>
                <in>8713</in>
                <out>8958</out>
                <start>8713</start>
                <end>8958</end>
                <file id="src-2"/>
                <sourcetrack>
                  <mediatype>video</mediatype>
                  <trackindex>1</trackindex>
                </sourcetrack>
                <multiclip id="mcs-333">
                  <name>MCS-333</name>
                  <masterclipid>clip-master</masterclipid>
                  <collapsed>false</collapsed>
                  <angle>
                    <activevideoangle>false</activevideoangle>
                    <activeaudioangle>false</activeaudioangle>
                    <clip id="clip-1"/>
                  </angle>
                  <angle>
                    <activevideoangle>true</activevideoangle>
                    <activeaudioangle>true</activeaudioangle>
                    <clip id="clip-2"/>
                  </angle>
                  <angle>
                    <activevideoangle>false</activevideoangle>
                    <activeaudioangle>false</activeaudioangle>
                    <clip id="clip-3"/>
                  </angle>
                  <angle>
                    <activevideoangle>false</activevideoangle>
                    <activeaudioangle>false</activeaudioangle>
                    <clip id="clip-4"/>
                  </angle>
                  <angle>
                    <activevideoangle>false</activevideoangle>
                    <activeaudioangle>false</activeaudioangle>
                    <clip id="clip-5"/>
                  </angle>
                  <angle>
                    <activevideoangle>false</activevideoangle>
                    <activeaudioangle>false</activeaudioangle>
                    <clip id="clip-6"/>
                  </angle>
                  <angle>
                    <activevideoangle>false</activevideoangle>
                    <activeaudioangle>false</activeaudioangle>
                    <clip id="clip-7"/>
                  </angle>
                  <angle>
                    <activevideoangle>false</activevideoangle>
                    <activeaudioangle>false</activeaudioangle>
                    <clip id="clip-8"/>
                  </angle>
                  <angle>
                    <activevideoangle>false</activevideoangle>
                    <activeaudioangle>false</activeaudioangle>
                    <clip id="clip-9"/>
                  </angle>
                  <masterclipid>clip-master</masterclipid>
                </multiclip>
              </clipitem>
              <clipitem id="cs-334">
                <duration>224</duration>
                <rate>
                  <ntsc>false</ntsc>
                  <timebase>25</timebase>
                </rate>
                <in>8958</in>
                <out>9181</out>
                <start>8958</start>
                <end>9181</end>
                <file id="src-4"/>
                <sourcetrack>
                  <mediatype>video</mediatype>
                  <trackindex>1</trackindex>
                </sourcetrack>
                <multiclip id="mcs-334">
                  <name>MCS-334</name>
                  <masterclipid>clip-master</masterclipid>
                  <collapsed>false</collapsed>
                  <angle>
                    <activevideoangle>false</activevideoangle>
                    <activeaudioangle>false</activeaudioangle>
                    <clip id="clip-1"/>
                  </angle>
                  <angle>
                    <activevideoangle>false</activevideoangle>
                    <activeaudioangle>false</activeaudioangle>
                    <clip id="clip-2"/>
                  </angle>
                  <angle>
                    <activevideoangle>false</activevideoangle>
                    <activeaudioangle>false</activeaudioangle>
                    <clip id="clip-3"/>
                  </angle>
                  <angle>
                    <activevideoangle>true</activevideoangle>
                    <activeaudioangle>true</activeaudioangle>
                    <clip id="clip-4"/>
                  </angle>
                  <angle>
                    <activevideoangle>false</activevideoangle>
                    <activeaudioangle>false</activeaudioangle>
                    <clip id="clip-5"/>
                  </angle>
                  <angle>
                    <activevideoangle>false</activevideoangle>
                    <activeaudioangle>false</activeaudioangle>
                    <clip id="clip-6"/>
                  </angle>
                  <angle>
                    <activevideoangle>false</activevideoangle>
                    <activeaudioangle>false</activeaudioangle>
                    <clip id="clip-7"/>
                  </angle>
                  <angle>
                    <activevideoangle>false</activevideoangle>
                    <activeaudioangle>false</activeaudioangle>
                    <clip id="clip-8"/>
                  </angle>
                  <angle>
                    <activevideoangle>false</activevideoangle>
                    <activeaudioangle>false</activeaudioangle>
                    <clip id="clip-9"/>
                  </angle>
                  <masterclipid>clip-master</masterclipid>
                </multiclip>
              </clipitem>
              <clipitem id="cs-335">
                <duration>100</duration>
                <rate>
                  <ntsc>false</ntsc>
                  <timebase>25</timebase>
                </rate>
                <in>9181</in>
                <out>9280</out>
                <start>9181</start>
                <end>9280</end>
                <file id="src-2"/>
                <sourcetrack>
                  <mediatype>video</mediatype>
                  <trackindex>1</trackindex>
                </sourcetrack>
                <multiclip id="mcs-335">
                  <name>MCS-335</name>
                  <masterclipid>clip-master</masterclipid>
                  <collapsed>false</collapsed>
                  <angle>
                    <activevideoangle>false</activevideoangle>
                    <activeaudioangle>false</activeaudioangle>
                    <clip id="clip-1"/>
                  </angle>
                  <angle>
                    <activevideoangle>true</activevideoangle>
                    <activeaudioangle>true</activeaudioangle>
                    <clip id="clip-2"/>
                  </angle>
                  <angle>
                    <activevideoangle>false</activevideoangle>
                    <activeaudioangle>false</activeaudioangle>
                    <clip id="clip-3"/>
                  </angle>
                  <angle>
                    <activevideoangle>false</activevideoangle>
                    <activeaudioangle>false</activeaudioangle>
                    <clip id="clip-4"/>
                  </angle>
                  <angle>
                    <activevideoangle>false</activevideoangle>
                    <activeaudioangle>false</activeaudioangle>
                    <clip id="clip-5"/>
                  </angle>
                  <angle>
                    <activevideoangle>false</activevideoangle>
                    <activeaudioangle>false</activeaudioangle>
                    <clip id="clip-6"/>
                  </angle>
                  <angle>
                    <activevideoangle>false</activevideoangle>
                    <activeaudioangle>false</activeaudioangle>
                    <clip id="clip-7"/>
                  </angle>
                  <angle>
                    <activevideoangle>false</activevideoangle>
                    <activeaudioangle>false</activeaudioangle>
                    <clip id="clip-8"/>
                  </angle>
                  <angle>
                    <activevideoangle>false</activevideoangle>
                    <activeaudioangle>false</activeaudioangle>
                    <clip id="clip-9"/>
                  </angle>
                  <masterclipid>clip-master</masterclipid>
                </multiclip>
              </clipitem>
              <clipitem id="cs-336">
                <duration>65</duration>
                <rate>
                  <ntsc>false</ntsc>
                  <timebase>25</timebase>
                </rate>
                <in>9280</in>
                <out>9344</out>
                <start>9280</start>
                <end>9344</end>
                <file id="src-4"/>
                <sourcetrack>
                  <mediatype>video</mediatype>
                  <trackindex>1</trackindex>
                </sourcetrack>
                <multiclip id="mcs-336">
                  <name>MCS-336</name>
                  <masterclipid>clip-master</masterclipid>
                  <collapsed>false</collapsed>
                  <angle>
                    <activevideoangle>false</activevideoangle>
                    <activeaudioangle>false</activeaudioangle>
                    <clip id="clip-1"/>
                  </angle>
                  <angle>
                    <activevideoangle>false</activevideoangle>
                    <activeaudioangle>false</activeaudioangle>
                    <clip id="clip-2"/>
                  </angle>
                  <angle>
                    <activevideoangle>false</activevideoangle>
                    <activeaudioangle>false</activeaudioangle>
                    <clip id="clip-3"/>
                  </angle>
                  <angle>
                    <activevideoangle>true</activevideoangle>
                    <activeaudioangle>true</activeaudioangle>
                    <clip id="clip-4"/>
                  </angle>
                  <angle>
                    <activevideoangle>false</activevideoangle>
                    <activeaudioangle>false</activeaudioangle>
                    <clip id="clip-5"/>
                  </angle>
                  <angle>
                    <activevideoangle>false</activevideoangle>
                    <activeaudioangle>false</activeaudioangle>
                    <clip id="clip-6"/>
                  </angle>
                  <angle>
                    <activevideoangle>false</activevideoangle>
                    <activeaudioangle>false</activeaudioangle>
                    <clip id="clip-7"/>
                  </angle>
                  <angle>
                    <activevideoangle>false</activevideoangle>
                    <activeaudioangle>false</activeaudioangle>
                    <clip id="clip-8"/>
                  </angle>
                  <angle>
                    <activevideoangle>false</activevideoangle>
                    <activeaudioangle>false</activeaudioangle>
                    <clip id="clip-9"/>
                  </angle>
                  <masterclipid>clip-master</masterclipid>
                </multiclip>
              </clipitem>
              <clipitem id="cs-337">
                <duration>69</duration>
                <rate>
                  <ntsc>false</ntsc>
                  <timebase>25</timebase>
                </rate>
                <in>9344</in>
                <out>9412</out>
                <start>9344</start>
                <end>9412</end>
                <file id="src-7"/>
                <sourcetrack>
                  <mediatype>video</mediatype>
                  <trackindex>1</trackindex>
                </sourcetrack>
                <multiclip id="mcs-337">
                  <name>MCS-337</name>
                  <masterclipid>clip-master</masterclipid>
                  <collapsed>false</collapsed>
                  <angle>
                    <activevideoangle>false</activevideoangle>
                    <activeaudioangle>false</activeaudioangle>
                    <clip id="clip-1"/>
                  </angle>
                  <angle>
                    <activevideoangle>false</activevideoangle>
                    <activeaudioangle>false</activeaudioangle>
                    <clip id="clip-2"/>
                  </angle>
                  <angle>
                    <activevideoangle>false</activevideoangle>
                    <activeaudioangle>false</activeaudioangle>
                    <clip id="clip-3"/>
                  </angle>
                  <angle>
                    <activevideoangle>false</activevideoangle>
                    <activeaudioangle>false</activeaudioangle>
                    <clip id="clip-4"/>
                  </angle>
                  <angle>
                    <activevideoangle>false</activevideoangle>
                    <activeaudioangle>false</activeaudioangle>
                    <clip id="clip-5"/>
                  </angle>
                  <angle>
                    <activevideoangle>false</activevideoangle>
                    <activeaudioangle>false</activeaudioangle>
                    <clip id="clip-6"/>
                  </angle>
                  <angle>
                    <activevideoangle>true</activevideoangle>
                    <activeaudioangle>true</activeaudioangle>
                    <clip id="clip-7"/>
                  </angle>
                  <angle>
                    <activevideoangle>false</activevideoangle>
                    <activeaudioangle>false</activeaudioangle>
                    <clip id="clip-8"/>
                  </angle>
                  <angle>
                    <activevideoangle>false</activevideoangle>
                    <activeaudioangle>false</activeaudioangle>
                    <clip id="clip-9"/>
                  </angle>
                  <masterclipid>clip-master</masterclipid>
                </multiclip>
              </clipitem>
              <clipitem id="cs-338">
                <duration>51</duration>
                <rate>
                  <ntsc>false</ntsc>
                  <timebase>25</timebase>
                </rate>
                <in>9412</in>
                <out>9462</out>
                <start>9412</start>
                <end>9462</end>
                <file id="src-3"/>
                <sourcetrack>
                  <mediatype>video</mediatype>
                  <trackindex>1</trackindex>
                </sourcetrack>
                <multiclip id="mcs-338">
                  <name>MCS-338</name>
                  <masterclipid>clip-master</masterclipid>
                  <collapsed>false</collapsed>
                  <angle>
                    <activevideoangle>false</activevideoangle>
                    <activeaudioangle>false</activeaudioangle>
                    <clip id="clip-1"/>
                  </angle>
                  <angle>
                    <activevideoangle>false</activevideoangle>
                    <activeaudioangle>false</activeaudioangle>
                    <clip id="clip-2"/>
                  </angle>
                  <angle>
                    <activevideoangle>true</activevideoangle>
                    <activeaudioangle>true</activeaudioangle>
                    <clip id="clip-3"/>
                  </angle>
                  <angle>
                    <activevideoangle>false</activevideoangle>
                    <activeaudioangle>false</activeaudioangle>
                    <clip id="clip-4"/>
                  </angle>
                  <angle>
                    <activevideoangle>false</activevideoangle>
                    <activeaudioangle>false</activeaudioangle>
                    <clip id="clip-5"/>
                  </angle>
                  <angle>
                    <activevideoangle>false</activevideoangle>
                    <activeaudioangle>false</activeaudioangle>
                    <clip id="clip-6"/>
                  </angle>
                  <angle>
                    <activevideoangle>false</activevideoangle>
                    <activeaudioangle>false</activeaudioangle>
                    <clip id="clip-7"/>
                  </angle>
                  <angle>
                    <activevideoangle>false</activevideoangle>
                    <activeaudioangle>false</activeaudioangle>
                    <clip id="clip-8"/>
                  </angle>
                  <angle>
                    <activevideoangle>false</activevideoangle>
                    <activeaudioangle>false</activeaudioangle>
                    <clip id="clip-9"/>
                  </angle>
                  <masterclipid>clip-master</masterclipid>
                </multiclip>
              </clipitem>
              <clipitem id="cs-339">
                <duration>76</duration>
                <rate>
                  <ntsc>false</ntsc>
                  <timebase>25</timebase>
                </rate>
                <in>9462</in>
                <out>9537</out>
                <start>9462</start>
                <end>9537</end>
                <file id="src-4"/>
                <sourcetrack>
                  <mediatype>video</mediatype>
                  <trackindex>1</trackindex>
                </sourcetrack>
                <multiclip id="mcs-339">
                  <name>MCS-339</name>
                  <masterclipid>clip-master</masterclipid>
                  <collapsed>false</collapsed>
                  <angle>
                    <activevideoangle>false</activevideoangle>
                    <activeaudioangle>false</activeaudioangle>
                    <clip id="clip-1"/>
                  </angle>
                  <angle>
                    <activevideoangle>false</activevideoangle>
                    <activeaudioangle>false</activeaudioangle>
                    <clip id="clip-2"/>
                  </angle>
                  <angle>
                    <activevideoangle>false</activevideoangle>
                    <activeaudioangle>false</activeaudioangle>
                    <clip id="clip-3"/>
                  </angle>
                  <angle>
                    <activevideoangle>true</activevideoangle>
                    <activeaudioangle>true</activeaudioangle>
                    <clip id="clip-4"/>
                  </angle>
                  <angle>
                    <activevideoangle>false</activevideoangle>
                    <activeaudioangle>false</activeaudioangle>
                    <clip id="clip-5"/>
                  </angle>
                  <angle>
                    <activevideoangle>false</activevideoangle>
                    <activeaudioangle>false</activeaudioangle>
                    <clip id="clip-6"/>
                  </angle>
                  <angle>
                    <activevideoangle>false</activevideoangle>
                    <activeaudioangle>false</activeaudioangle>
                    <clip id="clip-7"/>
                  </angle>
                  <angle>
                    <activevideoangle>false</activevideoangle>
                    <activeaudioangle>false</activeaudioangle>
                    <clip id="clip-8"/>
                  </angle>
                  <angle>
                    <activevideoangle>false</activevideoangle>
                    <activeaudioangle>false</activeaudioangle>
                    <clip id="clip-9"/>
                  </angle>
                  <masterclipid>clip-master</masterclipid>
                </multiclip>
              </clipitem>
              <clipitem id="cs-340">
                <duration>36</duration>
                <rate>
                  <ntsc>false</ntsc>
                  <timebase>25</timebase>
                </rate>
                <in>9537</in>
                <out>9572</out>
                <start>9537</start>
                <end>9572</end>
                <file id="src-5"/>
                <sourcetrack>
                  <mediatype>video</mediatype>
                  <trackindex>1</trackindex>
                </sourcetrack>
                <multiclip id="mcs-340">
                  <name>MCS-340</name>
                  <masterclipid>clip-master</masterclipid>
                  <collapsed>false</collapsed>
                  <angle>
                    <activevideoangle>false</activevideoangle>
                    <activeaudioangle>false</activeaudioangle>
                    <clip id="clip-1"/>
                  </angle>
                  <angle>
                    <activevideoangle>false</activevideoangle>
                    <activeaudioangle>false</activeaudioangle>
                    <clip id="clip-2"/>
                  </angle>
                  <angle>
                    <activevideoangle>false</activevideoangle>
                    <activeaudioangle>false</activeaudioangle>
                    <clip id="clip-3"/>
                  </angle>
                  <angle>
                    <activevideoangle>false</activevideoangle>
                    <activeaudioangle>false</activeaudioangle>
                    <clip id="clip-4"/>
                  </angle>
                  <angle>
                    <activevideoangle>true</activevideoangle>
                    <activeaudioangle>true</activeaudioangle>
                    <clip id="clip-5"/>
                  </angle>
                  <angle>
                    <activevideoangle>false</activevideoangle>
                    <activeaudioangle>false</activeaudioangle>
                    <clip id="clip-6"/>
                  </angle>
                  <angle>
                    <activevideoangle>false</activevideoangle>
                    <activeaudioangle>false</activeaudioangle>
                    <clip id="clip-7"/>
                  </angle>
                  <angle>
                    <activevideoangle>false</activevideoangle>
                    <activeaudioangle>false</activeaudioangle>
                    <clip id="clip-8"/>
                  </angle>
                  <angle>
                    <activevideoangle>false</activevideoangle>
                    <activeaudioangle>false</activeaudioangle>
                    <clip id="clip-9"/>
                  </angle>
                  <masterclipid>clip-master</masterclipid>
                </multiclip>
              </clipitem>
              <clipitem id="cs-341">
                <duration>88</duration>
                <rate>
                  <ntsc>false</ntsc>
                  <timebase>25</timebase>
                </rate>
                <in>9572</in>
                <out>9659</out>
                <start>9572</start>
                <end>9659</end>
                <file id="src-2"/>
                <sourcetrack>
                  <mediatype>video</mediatype>
                  <trackindex>1</trackindex>
                </sourcetrack>
                <multiclip id="mcs-341">
                  <name>MCS-341</name>
                  <masterclipid>clip-master</masterclipid>
                  <collapsed>false</collapsed>
                  <angle>
                    <activevideoangle>false</activevideoangle>
                    <activeaudioangle>false</activeaudioangle>
                    <clip id="clip-1"/>
                  </angle>
                  <angle>
                    <activevideoangle>true</activevideoangle>
                    <activeaudioangle>true</activeaudioangle>
                    <clip id="clip-2"/>
                  </angle>
                  <angle>
                    <activevideoangle>false</activevideoangle>
                    <activeaudioangle>false</activeaudioangle>
                    <clip id="clip-3"/>
                  </angle>
                  <angle>
                    <activevideoangle>false</activevideoangle>
                    <activeaudioangle>false</activeaudioangle>
                    <clip id="clip-4"/>
                  </angle>
                  <angle>
                    <activevideoangle>false</activevideoangle>
                    <activeaudioangle>false</activeaudioangle>
                    <clip id="clip-5"/>
                  </angle>
                  <angle>
                    <activevideoangle>false</activevideoangle>
                    <activeaudioangle>false</activeaudioangle>
                    <clip id="clip-6"/>
                  </angle>
                  <angle>
                    <activevideoangle>false</activevideoangle>
                    <activeaudioangle>false</activeaudioangle>
                    <clip id="clip-7"/>
                  </angle>
                  <angle>
                    <activevideoangle>false</activevideoangle>
                    <activeaudioangle>false</activeaudioangle>
                    <clip id="clip-8"/>
                  </angle>
                  <angle>
                    <activevideoangle>false</activevideoangle>
                    <activeaudioangle>false</activeaudioangle>
                    <clip id="clip-9"/>
                  </angle>
                  <masterclipid>clip-master</masterclipid>
                </multiclip>
              </clipitem>
              <clipitem id="cs-342">
                <duration>343</duration>
                <rate>
                  <ntsc>false</ntsc>
                  <timebase>25</timebase>
                </rate>
                <in>9659</in>
                <out>10001</out>
                <start>9659</start>
                <end>10001</end>
                <file id="src-3"/>
                <sourcetrack>
                  <mediatype>video</mediatype>
                  <trackindex>1</trackindex>
                </sourcetrack>
                <multiclip id="mcs-342">
                  <name>MCS-342</name>
                  <masterclipid>clip-master</masterclipid>
                  <collapsed>false</collapsed>
                  <angle>
                    <activevideoangle>false</activevideoangle>
                    <activeaudioangle>false</activeaudioangle>
                    <clip id="clip-1"/>
                  </angle>
                  <angle>
                    <activevideoangle>false</activevideoangle>
                    <activeaudioangle>false</activeaudioangle>
                    <clip id="clip-2"/>
                  </angle>
                  <angle>
                    <activevideoangle>true</activevideoangle>
                    <activeaudioangle>true</activeaudioangle>
                    <clip id="clip-3"/>
                  </angle>
                  <angle>
                    <activevideoangle>false</activevideoangle>
                    <activeaudioangle>false</activeaudioangle>
                    <clip id="clip-4"/>
                  </angle>
                  <angle>
                    <activevideoangle>false</activevideoangle>
                    <activeaudioangle>false</activeaudioangle>
                    <clip id="clip-5"/>
                  </angle>
                  <angle>
                    <activevideoangle>false</activevideoangle>
                    <activeaudioangle>false</activeaudioangle>
                    <clip id="clip-6"/>
                  </angle>
                  <angle>
                    <activevideoangle>false</activevideoangle>
                    <activeaudioangle>false</activeaudioangle>
                    <clip id="clip-7"/>
                  </angle>
                  <angle>
                    <activevideoangle>false</activevideoangle>
                    <activeaudioangle>false</activeaudioangle>
                    <clip id="clip-8"/>
                  </angle>
                  <angle>
                    <activevideoangle>false</activevideoangle>
                    <activeaudioangle>false</activeaudioangle>
                    <clip id="clip-9"/>
                  </angle>
                  <masterclipid>clip-master</masterclipid>
                </multiclip>
              </clipitem>
              <clipitem id="cs-343">
                <duration>354</duration>
                <rate>
                  <ntsc>false</ntsc>
                  <timebase>25</timebase>
                </rate>
                <in>10001</in>
                <out>10354</out>
                <start>10001</start>
                <end>10354</end>
                <file id="src-2"/>
                <sourcetrack>
                  <mediatype>video</mediatype>
                  <trackindex>1</trackindex>
                </sourcetrack>
                <multiclip id="mcs-343">
                  <name>MCS-343</name>
                  <masterclipid>clip-master</masterclipid>
                  <collapsed>false</collapsed>
                  <angle>
                    <activevideoangle>false</activevideoangle>
                    <activeaudioangle>false</activeaudioangle>
                    <clip id="clip-1"/>
                  </angle>
                  <angle>
                    <activevideoangle>true</activevideoangle>
                    <activeaudioangle>true</activeaudioangle>
                    <clip id="clip-2"/>
                  </angle>
                  <angle>
                    <activevideoangle>false</activevideoangle>
                    <activeaudioangle>false</activeaudioangle>
                    <clip id="clip-3"/>
                  </angle>
                  <angle>
                    <activevideoangle>false</activevideoangle>
                    <activeaudioangle>false</activeaudioangle>
                    <clip id="clip-4"/>
                  </angle>
                  <angle>
                    <activevideoangle>false</activevideoangle>
                    <activeaudioangle>false</activeaudioangle>
                    <clip id="clip-5"/>
                  </angle>
                  <angle>
                    <activevideoangle>false</activevideoangle>
                    <activeaudioangle>false</activeaudioangle>
                    <clip id="clip-6"/>
                  </angle>
                  <angle>
                    <activevideoangle>false</activevideoangle>
                    <activeaudioangle>false</activeaudioangle>
                    <clip id="clip-7"/>
                  </angle>
                  <angle>
                    <activevideoangle>false</activevideoangle>
                    <activeaudioangle>false</activeaudioangle>
                    <clip id="clip-8"/>
                  </angle>
                  <angle>
                    <activevideoangle>false</activevideoangle>
                    <activeaudioangle>false</activeaudioangle>
                    <clip id="clip-9"/>
                  </angle>
                  <masterclipid>clip-master</masterclipid>
                </multiclip>
              </clipitem>
              <clipitem id="cs-344">
                <duration>52</duration>
                <rate>
                  <ntsc>false</ntsc>
                  <timebase>25</timebase>
                </rate>
                <in>10354</in>
                <out>10405</out>
                <start>10354</start>
                <end>10405</end>
                <file id="src-8"/>
                <sourcetrack>
                  <mediatype>video</mediatype>
                  <trackindex>1</trackindex>
                </sourcetrack>
                <multiclip id="mcs-344">
                  <name>MCS-344</name>
                  <masterclipid>clip-master</masterclipid>
                  <collapsed>false</collapsed>
                  <angle>
                    <activevideoangle>false</activevideoangle>
                    <activeaudioangle>false</activeaudioangle>
                    <clip id="clip-1"/>
                  </angle>
                  <angle>
                    <activevideoangle>false</activevideoangle>
                    <activeaudioangle>false</activeaudioangle>
                    <clip id="clip-2"/>
                  </angle>
                  <angle>
                    <activevideoangle>false</activevideoangle>
                    <activeaudioangle>false</activeaudioangle>
                    <clip id="clip-3"/>
                  </angle>
                  <angle>
                    <activevideoangle>false</activevideoangle>
                    <activeaudioangle>false</activeaudioangle>
                    <clip id="clip-4"/>
                  </angle>
                  <angle>
                    <activevideoangle>false</activevideoangle>
                    <activeaudioangle>false</activeaudioangle>
                    <clip id="clip-5"/>
                  </angle>
                  <angle>
                    <activevideoangle>false</activevideoangle>
                    <activeaudioangle>false</activeaudioangle>
                    <clip id="clip-6"/>
                  </angle>
                  <angle>
                    <activevideoangle>false</activevideoangle>
                    <activeaudioangle>false</activeaudioangle>
                    <clip id="clip-7"/>
                  </angle>
                  <angle>
                    <activevideoangle>true</activevideoangle>
                    <activeaudioangle>true</activeaudioangle>
                    <clip id="clip-8"/>
                  </angle>
                  <angle>
                    <activevideoangle>false</activevideoangle>
                    <activeaudioangle>false</activeaudioangle>
                    <clip id="clip-9"/>
                  </angle>
                  <masterclipid>clip-master</masterclipid>
                </multiclip>
              </clipitem>
              <clipitem id="cs-345">
                <duration>89</duration>
                <rate>
                  <ntsc>false</ntsc>
                  <timebase>25</timebase>
                </rate>
                <in>10405</in>
                <out>10493</out>
                <start>10405</start>
                <end>10493</end>
                <file id="src-3"/>
                <sourcetrack>
                  <mediatype>video</mediatype>
                  <trackindex>1</trackindex>
                </sourcetrack>
                <multiclip id="mcs-345">
                  <name>MCS-345</name>
                  <masterclipid>clip-master</masterclipid>
                  <collapsed>false</collapsed>
                  <angle>
                    <activevideoangle>false</activevideoangle>
                    <activeaudioangle>false</activeaudioangle>
                    <clip id="clip-1"/>
                  </angle>
                  <angle>
                    <activevideoangle>false</activevideoangle>
                    <activeaudioangle>false</activeaudioangle>
                    <clip id="clip-2"/>
                  </angle>
                  <angle>
                    <activevideoangle>true</activevideoangle>
                    <activeaudioangle>true</activeaudioangle>
                    <clip id="clip-3"/>
                  </angle>
                  <angle>
                    <activevideoangle>false</activevideoangle>
                    <activeaudioangle>false</activeaudioangle>
                    <clip id="clip-4"/>
                  </angle>
                  <angle>
                    <activevideoangle>false</activevideoangle>
                    <activeaudioangle>false</activeaudioangle>
                    <clip id="clip-5"/>
                  </angle>
                  <angle>
                    <activevideoangle>false</activevideoangle>
                    <activeaudioangle>false</activeaudioangle>
                    <clip id="clip-6"/>
                  </angle>
                  <angle>
                    <activevideoangle>false</activevideoangle>
                    <activeaudioangle>false</activeaudioangle>
                    <clip id="clip-7"/>
                  </angle>
                  <angle>
                    <activevideoangle>false</activevideoangle>
                    <activeaudioangle>false</activeaudioangle>
                    <clip id="clip-8"/>
                  </angle>
                  <angle>
                    <activevideoangle>false</activevideoangle>
                    <activeaudioangle>false</activeaudioangle>
                    <clip id="clip-9"/>
                  </angle>
                  <masterclipid>clip-master</masterclipid>
                </multiclip>
              </clipitem>
              <clipitem id="cs-346">
                <duration>125</duration>
                <rate>
                  <ntsc>false</ntsc>
                  <timebase>25</timebase>
                </rate>
                <in>10493</in>
                <out>10617</out>
                <start>10493</start>
                <end>10617</end>
                <file id="src-2"/>
                <sourcetrack>
                  <mediatype>video</mediatype>
                  <trackindex>1</trackindex>
                </sourcetrack>
                <multiclip id="mcs-346">
                  <name>MCS-346</name>
                  <masterclipid>clip-master</masterclipid>
                  <collapsed>false</collapsed>
                  <angle>
                    <activevideoangle>false</activevideoangle>
                    <activeaudioangle>false</activeaudioangle>
                    <clip id="clip-1"/>
                  </angle>
                  <angle>
                    <activevideoangle>true</activevideoangle>
                    <activeaudioangle>true</activeaudioangle>
                    <clip id="clip-2"/>
                  </angle>
                  <angle>
                    <activevideoangle>false</activevideoangle>
                    <activeaudioangle>false</activeaudioangle>
                    <clip id="clip-3"/>
                  </angle>
                  <angle>
                    <activevideoangle>false</activevideoangle>
                    <activeaudioangle>false</activeaudioangle>
                    <clip id="clip-4"/>
                  </angle>
                  <angle>
                    <activevideoangle>false</activevideoangle>
                    <activeaudioangle>false</activeaudioangle>
                    <clip id="clip-5"/>
                  </angle>
                  <angle>
                    <activevideoangle>false</activevideoangle>
                    <activeaudioangle>false</activeaudioangle>
                    <clip id="clip-6"/>
                  </angle>
                  <angle>
                    <activevideoangle>false</activevideoangle>
                    <activeaudioangle>false</activeaudioangle>
                    <clip id="clip-7"/>
                  </angle>
                  <angle>
                    <activevideoangle>false</activevideoangle>
                    <activeaudioangle>false</activeaudioangle>
                    <clip id="clip-8"/>
                  </angle>
                  <angle>
                    <activevideoangle>false</activevideoangle>
                    <activeaudioangle>false</activeaudioangle>
                    <clip id="clip-9"/>
                  </angle>
                  <masterclipid>clip-master</masterclipid>
                </multiclip>
              </clipitem>
              <clipitem id="cs-347">
                <duration>99</duration>
                <rate>
                  <ntsc>false</ntsc>
                  <timebase>25</timebase>
                </rate>
                <in>10617</in>
                <out>10715</out>
                <start>10617</start>
                <end>10715</end>
                <file id="src-6"/>
                <sourcetrack>
                  <mediatype>video</mediatype>
                  <trackindex>1</trackindex>
                </sourcetrack>
                <multiclip id="mcs-347">
                  <name>MCS-347</name>
                  <masterclipid>clip-master</masterclipid>
                  <collapsed>false</collapsed>
                  <angle>
                    <activevideoangle>false</activevideoangle>
                    <activeaudioangle>false</activeaudioangle>
                    <clip id="clip-1"/>
                  </angle>
                  <angle>
                    <activevideoangle>false</activevideoangle>
                    <activeaudioangle>false</activeaudioangle>
                    <clip id="clip-2"/>
                  </angle>
                  <angle>
                    <activevideoangle>false</activevideoangle>
                    <activeaudioangle>false</activeaudioangle>
                    <clip id="clip-3"/>
                  </angle>
                  <angle>
                    <activevideoangle>false</activevideoangle>
                    <activeaudioangle>false</activeaudioangle>
                    <clip id="clip-4"/>
                  </angle>
                  <angle>
                    <activevideoangle>false</activevideoangle>
                    <activeaudioangle>false</activeaudioangle>
                    <clip id="clip-5"/>
                  </angle>
                  <angle>
                    <activevideoangle>true</activevideoangle>
                    <activeaudioangle>true</activeaudioangle>
                    <clip id="clip-6"/>
                  </angle>
                  <angle>
                    <activevideoangle>false</activevideoangle>
                    <activeaudioangle>false</activeaudioangle>
                    <clip id="clip-7"/>
                  </angle>
                  <angle>
                    <activevideoangle>false</activevideoangle>
                    <activeaudioangle>false</activeaudioangle>
                    <clip id="clip-8"/>
                  </angle>
                  <angle>
                    <activevideoangle>false</activevideoangle>
                    <activeaudioangle>false</activeaudioangle>
                    <clip id="clip-9"/>
                  </angle>
                  <masterclipid>clip-master</masterclipid>
                </multiclip>
              </clipitem>
              <clipitem id="cs-348">
                <duration>47</duration>
                <rate>
                  <ntsc>false</ntsc>
                  <timebase>25</timebase>
                </rate>
                <in>10715</in>
                <out>10761</out>
                <start>10715</start>
                <end>10761</end>
                <file id="src-4"/>
                <sourcetrack>
                  <mediatype>video</mediatype>
                  <trackindex>1</trackindex>
                </sourcetrack>
                <multiclip id="mcs-348">
                  <name>MCS-348</name>
                  <masterclipid>clip-master</masterclipid>
                  <collapsed>false</collapsed>
                  <angle>
                    <activevideoangle>false</activevideoangle>
                    <activeaudioangle>false</activeaudioangle>
                    <clip id="clip-1"/>
                  </angle>
                  <angle>
                    <activevideoangle>false</activevideoangle>
                    <activeaudioangle>false</activeaudioangle>
                    <clip id="clip-2"/>
                  </angle>
                  <angle>
                    <activevideoangle>false</activevideoangle>
                    <activeaudioangle>false</activeaudioangle>
                    <clip id="clip-3"/>
                  </angle>
                  <angle>
                    <activevideoangle>true</activevideoangle>
                    <activeaudioangle>true</activeaudioangle>
                    <clip id="clip-4"/>
                  </angle>
                  <angle>
                    <activevideoangle>false</activevideoangle>
                    <activeaudioangle>false</activeaudioangle>
                    <clip id="clip-5"/>
                  </angle>
                  <angle>
                    <activevideoangle>false</activevideoangle>
                    <activeaudioangle>false</activeaudioangle>
                    <clip id="clip-6"/>
                  </angle>
                  <angle>
                    <activevideoangle>false</activevideoangle>
                    <activeaudioangle>false</activeaudioangle>
                    <clip id="clip-7"/>
                  </angle>
                  <angle>
                    <activevideoangle>false</activevideoangle>
                    <activeaudioangle>false</activeaudioangle>
                    <clip id="clip-8"/>
                  </angle>
                  <angle>
                    <activevideoangle>false</activevideoangle>
                    <activeaudioangle>false</activeaudioangle>
                    <clip id="clip-9"/>
                  </angle>
                  <masterclipid>clip-master</masterclipid>
                </multiclip>
              </clipitem>
              <clipitem id="cs-349">
                <duration>57</duration>
                <rate>
                  <ntsc>false</ntsc>
                  <timebase>25</timebase>
                </rate>
                <in>10761</in>
                <out>10817</out>
                <start>10761</start>
                <end>10817</end>
                <file id="src-3"/>
                <sourcetrack>
                  <mediatype>video</mediatype>
                  <trackindex>1</trackindex>
                </sourcetrack>
                <multiclip id="mcs-349">
                  <name>MCS-349</name>
                  <masterclipid>clip-master</masterclipid>
                  <collapsed>false</collapsed>
                  <angle>
                    <activevideoangle>false</activevideoangle>
                    <activeaudioangle>false</activeaudioangle>
                    <clip id="clip-1"/>
                  </angle>
                  <angle>
                    <activevideoangle>false</activevideoangle>
                    <activeaudioangle>false</activeaudioangle>
                    <clip id="clip-2"/>
                  </angle>
                  <angle>
                    <activevideoangle>true</activevideoangle>
                    <activeaudioangle>true</activeaudioangle>
                    <clip id="clip-3"/>
                  </angle>
                  <angle>
                    <activevideoangle>false</activevideoangle>
                    <activeaudioangle>false</activeaudioangle>
                    <clip id="clip-4"/>
                  </angle>
                  <angle>
                    <activevideoangle>false</activevideoangle>
                    <activeaudioangle>false</activeaudioangle>
                    <clip id="clip-5"/>
                  </angle>
                  <angle>
                    <activevideoangle>false</activevideoangle>
                    <activeaudioangle>false</activeaudioangle>
                    <clip id="clip-6"/>
                  </angle>
                  <angle>
                    <activevideoangle>false</activevideoangle>
                    <activeaudioangle>false</activeaudioangle>
                    <clip id="clip-7"/>
                  </angle>
                  <angle>
                    <activevideoangle>false</activevideoangle>
                    <activeaudioangle>false</activeaudioangle>
                    <clip id="clip-8"/>
                  </angle>
                  <angle>
                    <activevideoangle>false</activevideoangle>
                    <activeaudioangle>false</activeaudioangle>
                    <clip id="clip-9"/>
                  </angle>
                  <masterclipid>clip-master</masterclipid>
                </multiclip>
              </clipitem>
              <clipitem id="cs-350">
                <duration>77</duration>
                <rate>
                  <ntsc>false</ntsc>
                  <timebase>25</timebase>
                </rate>
                <in>10817</in>
                <out>10893</out>
                <start>10817</start>
                <end>10893</end>
                <file id="src-5"/>
                <sourcetrack>
                  <mediatype>video</mediatype>
                  <trackindex>1</trackindex>
                </sourcetrack>
                <multiclip id="mcs-350">
                  <name>MCS-350</name>
                  <masterclipid>clip-master</masterclipid>
                  <collapsed>false</collapsed>
                  <angle>
                    <activevideoangle>false</activevideoangle>
                    <activeaudioangle>false</activeaudioangle>
                    <clip id="clip-1"/>
                  </angle>
                  <angle>
                    <activevideoangle>false</activevideoangle>
                    <activeaudioangle>false</activeaudioangle>
                    <clip id="clip-2"/>
                  </angle>
                  <angle>
                    <activevideoangle>false</activevideoangle>
                    <activeaudioangle>false</activeaudioangle>
                    <clip id="clip-3"/>
                  </angle>
                  <angle>
                    <activevideoangle>false</activevideoangle>
                    <activeaudioangle>false</activeaudioangle>
                    <clip id="clip-4"/>
                  </angle>
                  <angle>
                    <activevideoangle>true</activevideoangle>
                    <activeaudioangle>true</activeaudioangle>
                    <clip id="clip-5"/>
                  </angle>
                  <angle>
                    <activevideoangle>false</activevideoangle>
                    <activeaudioangle>false</activeaudioangle>
                    <clip id="clip-6"/>
                  </angle>
                  <angle>
                    <activevideoangle>false</activevideoangle>
                    <activeaudioangle>false</activeaudioangle>
                    <clip id="clip-7"/>
                  </angle>
                  <angle>
                    <activevideoangle>false</activevideoangle>
                    <activeaudioangle>false</activeaudioangle>
                    <clip id="clip-8"/>
                  </angle>
                  <angle>
                    <activevideoangle>false</activevideoangle>
                    <activeaudioangle>false</activeaudioangle>
                    <clip id="clip-9"/>
                  </angle>
                  <masterclipid>clip-master</masterclipid>
                </multiclip>
              </clipitem>
              <clipitem id="cs-351">
                <duration>49</duration>
                <rate>
                  <ntsc>false</ntsc>
                  <timebase>25</timebase>
                </rate>
                <in>10893</in>
                <out>10941</out>
                <start>10893</start>
                <end>10941</end>
                <file id="src-2"/>
                <sourcetrack>
                  <mediatype>video</mediatype>
                  <trackindex>1</trackindex>
                </sourcetrack>
                <multiclip id="mcs-351">
                  <name>MCS-351</name>
                  <masterclipid>clip-master</masterclipid>
                  <collapsed>false</collapsed>
                  <angle>
                    <activevideoangle>false</activevideoangle>
                    <activeaudioangle>false</activeaudioangle>
                    <clip id="clip-1"/>
                  </angle>
                  <angle>
                    <activevideoangle>true</activevideoangle>
                    <activeaudioangle>true</activeaudioangle>
                    <clip id="clip-2"/>
                  </angle>
                  <angle>
                    <activevideoangle>false</activevideoangle>
                    <activeaudioangle>false</activeaudioangle>
                    <clip id="clip-3"/>
                  </angle>
                  <angle>
                    <activevideoangle>false</activevideoangle>
                    <activeaudioangle>false</activeaudioangle>
                    <clip id="clip-4"/>
                  </angle>
                  <angle>
                    <activevideoangle>false</activevideoangle>
                    <activeaudioangle>false</activeaudioangle>
                    <clip id="clip-5"/>
                  </angle>
                  <angle>
                    <activevideoangle>false</activevideoangle>
                    <activeaudioangle>false</activeaudioangle>
                    <clip id="clip-6"/>
                  </angle>
                  <angle>
                    <activevideoangle>false</activevideoangle>
                    <activeaudioangle>false</activeaudioangle>
                    <clip id="clip-7"/>
                  </angle>
                  <angle>
                    <activevideoangle>false</activevideoangle>
                    <activeaudioangle>false</activeaudioangle>
                    <clip id="clip-8"/>
                  </angle>
                  <angle>
                    <activevideoangle>false</activevideoangle>
                    <activeaudioangle>false</activeaudioangle>
                    <clip id="clip-9"/>
                  </angle>
                  <masterclipid>clip-master</masterclipid>
                </multiclip>
              </clipitem>
              <clipitem id="cs-352">
                <duration>156</duration>
                <rate>
                  <ntsc>false</ntsc>
                  <timebase>25</timebase>
                </rate>
                <in>10941</in>
                <out>11096</out>
                <start>10941</start>
                <end>11096</end>
                <file id="src-3"/>
                <sourcetrack>
                  <mediatype>video</mediatype>
                  <trackindex>1</trackindex>
                </sourcetrack>
                <multiclip id="mcs-352">
                  <name>MCS-352</name>
                  <masterclipid>clip-master</masterclipid>
                  <collapsed>false</collapsed>
                  <angle>
                    <activevideoangle>false</activevideoangle>
                    <activeaudioangle>false</activeaudioangle>
                    <clip id="clip-1"/>
                  </angle>
                  <angle>
                    <activevideoangle>false</activevideoangle>
                    <activeaudioangle>false</activeaudioangle>
                    <clip id="clip-2"/>
                  </angle>
                  <angle>
                    <activevideoangle>true</activevideoangle>
                    <activeaudioangle>true</activeaudioangle>
                    <clip id="clip-3"/>
                  </angle>
                  <angle>
                    <activevideoangle>false</activevideoangle>
                    <activeaudioangle>false</activeaudioangle>
                    <clip id="clip-4"/>
                  </angle>
                  <angle>
                    <activevideoangle>false</activevideoangle>
                    <activeaudioangle>false</activeaudioangle>
                    <clip id="clip-5"/>
                  </angle>
                  <angle>
                    <activevideoangle>false</activevideoangle>
                    <activeaudioangle>false</activeaudioangle>
                    <clip id="clip-6"/>
                  </angle>
                  <angle>
                    <activevideoangle>false</activevideoangle>
                    <activeaudioangle>false</activeaudioangle>
                    <clip id="clip-7"/>
                  </angle>
                  <angle>
                    <activevideoangle>false</activevideoangle>
                    <activeaudioangle>false</activeaudioangle>
                    <clip id="clip-8"/>
                  </angle>
                  <angle>
                    <activevideoangle>false</activevideoangle>
                    <activeaudioangle>false</activeaudioangle>
                    <clip id="clip-9"/>
                  </angle>
                  <masterclipid>clip-master</masterclipid>
                </multiclip>
              </clipitem>
              <clipitem id="cs-353">
                <duration>181</duration>
                <rate>
                  <ntsc>false</ntsc>
                  <timebase>25</timebase>
                </rate>
                <in>11096</in>
                <out>11276</out>
                <start>11096</start>
                <end>11276</end>
                <file id="src-1"/>
                <sourcetrack>
                  <mediatype>video</mediatype>
                  <trackindex>1</trackindex>
                </sourcetrack>
                <multiclip id="mcs-353">
                  <name>MCS-353</name>
                  <masterclipid>clip-master</masterclipid>
                  <collapsed>false</collapsed>
                  <angle>
                    <activevideoangle>true</activevideoangle>
                    <activeaudioangle>true</activeaudioangle>
                    <clip id="clip-1"/>
                  </angle>
                  <angle>
                    <activevideoangle>false</activevideoangle>
                    <activeaudioangle>false</activeaudioangle>
                    <clip id="clip-2"/>
                  </angle>
                  <angle>
                    <activevideoangle>false</activevideoangle>
                    <activeaudioangle>false</activeaudioangle>
                    <clip id="clip-3"/>
                  </angle>
                  <angle>
                    <activevideoangle>false</activevideoangle>
                    <activeaudioangle>false</activeaudioangle>
                    <clip id="clip-4"/>
                  </angle>
                  <angle>
                    <activevideoangle>false</activevideoangle>
                    <activeaudioangle>false</activeaudioangle>
                    <clip id="clip-5"/>
                  </angle>
                  <angle>
                    <activevideoangle>false</activevideoangle>
                    <activeaudioangle>false</activeaudioangle>
                    <clip id="clip-6"/>
                  </angle>
                  <angle>
                    <activevideoangle>false</activevideoangle>
                    <activeaudioangle>false</activeaudioangle>
                    <clip id="clip-7"/>
                  </angle>
                  <angle>
                    <activevideoangle>false</activevideoangle>
                    <activeaudioangle>false</activeaudioangle>
                    <clip id="clip-8"/>
                  </angle>
                  <angle>
                    <activevideoangle>false</activevideoangle>
                    <activeaudioangle>false</activeaudioangle>
                    <clip id="clip-9"/>
                  </angle>
                  <masterclipid>clip-master</masterclipid>
                </multiclip>
              </clipitem>
              <clipitem id="cs-354">
                <duration>109</duration>
                <rate>
                  <ntsc>false</ntsc>
                  <timebase>25</timebase>
                </rate>
                <in>11276</in>
                <out>11384</out>
                <start>11276</start>
                <end>11384</end>
                <file id="src-5"/>
                <sourcetrack>
                  <mediatype>video</mediatype>
                  <trackindex>1</trackindex>
                </sourcetrack>
                <multiclip id="mcs-354">
                  <name>MCS-354</name>
                  <masterclipid>clip-master</masterclipid>
                  <collapsed>false</collapsed>
                  <angle>
                    <activevideoangle>false</activevideoangle>
                    <activeaudioangle>false</activeaudioangle>
                    <clip id="clip-1"/>
                  </angle>
                  <angle>
                    <activevideoangle>false</activevideoangle>
                    <activeaudioangle>false</activeaudioangle>
                    <clip id="clip-2"/>
                  </angle>
                  <angle>
                    <activevideoangle>false</activevideoangle>
                    <activeaudioangle>false</activeaudioangle>
                    <clip id="clip-3"/>
                  </angle>
                  <angle>
                    <activevideoangle>false</activevideoangle>
                    <activeaudioangle>false</activeaudioangle>
                    <clip id="clip-4"/>
                  </angle>
                  <angle>
                    <activevideoangle>true</activevideoangle>
                    <activeaudioangle>true</activeaudioangle>
                    <clip id="clip-5"/>
                  </angle>
                  <angle>
                    <activevideoangle>false</activevideoangle>
                    <activeaudioangle>false</activeaudioangle>
                    <clip id="clip-6"/>
                  </angle>
                  <angle>
                    <activevideoangle>false</activevideoangle>
                    <activeaudioangle>false</activeaudioangle>
                    <clip id="clip-7"/>
                  </angle>
                  <angle>
                    <activevideoangle>false</activevideoangle>
                    <activeaudioangle>false</activeaudioangle>
                    <clip id="clip-8"/>
                  </angle>
                  <angle>
                    <activevideoangle>false</activevideoangle>
                    <activeaudioangle>false</activeaudioangle>
                    <clip id="clip-9"/>
                  </angle>
                  <masterclipid>clip-master</masterclipid>
                </multiclip>
              </clipitem>
              <clipitem id="cs-355">
                <duration>53</duration>
                <rate>
                  <ntsc>false</ntsc>
                  <timebase>25</timebase>
                </rate>
                <in>11384</in>
                <out>11436</out>
                <start>11384</start>
                <end>11436</end>
                <file id="src-3"/>
                <sourcetrack>
                  <mediatype>video</mediatype>
                  <trackindex>1</trackindex>
                </sourcetrack>
                <multiclip id="mcs-355">
                  <name>MCS-355</name>
                  <masterclipid>clip-master</masterclipid>
                  <collapsed>false</collapsed>
                  <angle>
                    <activevideoangle>false</activevideoangle>
                    <activeaudioangle>false</activeaudioangle>
                    <clip id="clip-1"/>
                  </angle>
                  <angle>
                    <activevideoangle>false</activevideoangle>
                    <activeaudioangle>false</activeaudioangle>
                    <clip id="clip-2"/>
                  </angle>
                  <angle>
                    <activevideoangle>true</activevideoangle>
                    <activeaudioangle>true</activeaudioangle>
                    <clip id="clip-3"/>
                  </angle>
                  <angle>
                    <activevideoangle>false</activevideoangle>
                    <activeaudioangle>false</activeaudioangle>
                    <clip id="clip-4"/>
                  </angle>
                  <angle>
                    <activevideoangle>false</activevideoangle>
                    <activeaudioangle>false</activeaudioangle>
                    <clip id="clip-5"/>
                  </angle>
                  <angle>
                    <activevideoangle>false</activevideoangle>
                    <activeaudioangle>false</activeaudioangle>
                    <clip id="clip-6"/>
                  </angle>
                  <angle>
                    <activevideoangle>false</activevideoangle>
                    <activeaudioangle>false</activeaudioangle>
                    <clip id="clip-7"/>
                  </angle>
                  <angle>
                    <activevideoangle>false</activevideoangle>
                    <activeaudioangle>false</activeaudioangle>
                    <clip id="clip-8"/>
                  </angle>
                  <angle>
                    <activevideoangle>false</activevideoangle>
                    <activeaudioangle>false</activeaudioangle>
                    <clip id="clip-9"/>
                  </angle>
                  <masterclipid>clip-master</masterclipid>
                </multiclip>
              </clipitem>
              <clipitem id="cs-356">
                <duration>154</duration>
                <rate>
                  <ntsc>false</ntsc>
                  <timebase>25</timebase>
                </rate>
                <in>11436</in>
                <out>11589</out>
                <start>11436</start>
                <end>11589</end>
                <file id="src-2"/>
                <sourcetrack>
                  <mediatype>video</mediatype>
                  <trackindex>1</trackindex>
                </sourcetrack>
                <multiclip id="mcs-356">
                  <name>MCS-356</name>
                  <masterclipid>clip-master</masterclipid>
                  <collapsed>false</collapsed>
                  <angle>
                    <activevideoangle>false</activevideoangle>
                    <activeaudioangle>false</activeaudioangle>
                    <clip id="clip-1"/>
                  </angle>
                  <angle>
                    <activevideoangle>true</activevideoangle>
                    <activeaudioangle>true</activeaudioangle>
                    <clip id="clip-2"/>
                  </angle>
                  <angle>
                    <activevideoangle>false</activevideoangle>
                    <activeaudioangle>false</activeaudioangle>
                    <clip id="clip-3"/>
                  </angle>
                  <angle>
                    <activevideoangle>false</activevideoangle>
                    <activeaudioangle>false</activeaudioangle>
                    <clip id="clip-4"/>
                  </angle>
                  <angle>
                    <activevideoangle>false</activevideoangle>
                    <activeaudioangle>false</activeaudioangle>
                    <clip id="clip-5"/>
                  </angle>
                  <angle>
                    <activevideoangle>false</activevideoangle>
                    <activeaudioangle>false</activeaudioangle>
                    <clip id="clip-6"/>
                  </angle>
                  <angle>
                    <activevideoangle>false</activevideoangle>
                    <activeaudioangle>false</activeaudioangle>
                    <clip id="clip-7"/>
                  </angle>
                  <angle>
                    <activevideoangle>false</activevideoangle>
                    <activeaudioangle>false</activeaudioangle>
                    <clip id="clip-8"/>
                  </angle>
                  <angle>
                    <activevideoangle>false</activevideoangle>
                    <activeaudioangle>false</activeaudioangle>
                    <clip id="clip-9"/>
                  </angle>
                  <masterclipid>clip-master</masterclipid>
                </multiclip>
              </clipitem>
              <clipitem id="cs-357">
                <duration>187</duration>
                <rate>
                  <ntsc>false</ntsc>
                  <timebase>25</timebase>
                </rate>
                <in>11589</in>
                <out>11775</out>
                <start>11589</start>
                <end>11775</end>
                <file id="src-4"/>
                <sourcetrack>
                  <mediatype>video</mediatype>
                  <trackindex>1</trackindex>
                </sourcetrack>
                <multiclip id="mcs-357">
                  <name>MCS-357</name>
                  <masterclipid>clip-master</masterclipid>
                  <collapsed>false</collapsed>
                  <angle>
                    <activevideoangle>false</activevideoangle>
                    <activeaudioangle>false</activeaudioangle>
                    <clip id="clip-1"/>
                  </angle>
                  <angle>
                    <activevideoangle>false</activevideoangle>
                    <activeaudioangle>false</activeaudioangle>
                    <clip id="clip-2"/>
                  </angle>
                  <angle>
                    <activevideoangle>false</activevideoangle>
                    <activeaudioangle>false</activeaudioangle>
                    <clip id="clip-3"/>
                  </angle>
                  <angle>
                    <activevideoangle>true</activevideoangle>
                    <activeaudioangle>true</activeaudioangle>
                    <clip id="clip-4"/>
                  </angle>
                  <angle>
                    <activevideoangle>false</activevideoangle>
                    <activeaudioangle>false</activeaudioangle>
                    <clip id="clip-5"/>
                  </angle>
                  <angle>
                    <activevideoangle>false</activevideoangle>
                    <activeaudioangle>false</activeaudioangle>
                    <clip id="clip-6"/>
                  </angle>
                  <angle>
                    <activevideoangle>false</activevideoangle>
                    <activeaudioangle>false</activeaudioangle>
                    <clip id="clip-7"/>
                  </angle>
                  <angle>
                    <activevideoangle>false</activevideoangle>
                    <activeaudioangle>false</activeaudioangle>
                    <clip id="clip-8"/>
                  </angle>
                  <angle>
                    <activevideoangle>false</activevideoangle>
                    <activeaudioangle>false</activeaudioangle>
                    <clip id="clip-9"/>
                  </angle>
                  <masterclipid>clip-master</masterclipid>
                </multiclip>
              </clipitem>
              <clipitem id="cs-358">
                <duration>258</duration>
                <rate>
                  <ntsc>false</ntsc>
                  <timebase>25</timebase>
                </rate>
                <in>11775</in>
                <out>12032</out>
                <start>11775</start>
                <end>12032</end>
                <file id="src-2"/>
                <sourcetrack>
                  <mediatype>video</mediatype>
                  <trackindex>1</trackindex>
                </sourcetrack>
                <multiclip id="mcs-358">
                  <name>MCS-358</name>
                  <masterclipid>clip-master</masterclipid>
                  <collapsed>false</collapsed>
                  <angle>
                    <activevideoangle>false</activevideoangle>
                    <activeaudioangle>false</activeaudioangle>
                    <clip id="clip-1"/>
                  </angle>
                  <angle>
                    <activevideoangle>true</activevideoangle>
                    <activeaudioangle>true</activeaudioangle>
                    <clip id="clip-2"/>
                  </angle>
                  <angle>
                    <activevideoangle>false</activevideoangle>
                    <activeaudioangle>false</activeaudioangle>
                    <clip id="clip-3"/>
                  </angle>
                  <angle>
                    <activevideoangle>false</activevideoangle>
                    <activeaudioangle>false</activeaudioangle>
                    <clip id="clip-4"/>
                  </angle>
                  <angle>
                    <activevideoangle>false</activevideoangle>
                    <activeaudioangle>false</activeaudioangle>
                    <clip id="clip-5"/>
                  </angle>
                  <angle>
                    <activevideoangle>false</activevideoangle>
                    <activeaudioangle>false</activeaudioangle>
                    <clip id="clip-6"/>
                  </angle>
                  <angle>
                    <activevideoangle>false</activevideoangle>
                    <activeaudioangle>false</activeaudioangle>
                    <clip id="clip-7"/>
                  </angle>
                  <angle>
                    <activevideoangle>false</activevideoangle>
                    <activeaudioangle>false</activeaudioangle>
                    <clip id="clip-8"/>
                  </angle>
                  <angle>
                    <activevideoangle>false</activevideoangle>
                    <activeaudioangle>false</activeaudioangle>
                    <clip id="clip-9"/>
                  </angle>
                  <masterclipid>clip-master</masterclipid>
                </multiclip>
              </clipitem>
              <clipitem id="cs-359">
                <duration>75</duration>
                <rate>
                  <ntsc>false</ntsc>
                  <timebase>25</timebase>
                </rate>
                <in>12032</in>
                <out>12106</out>
                <start>12032</start>
                <end>12106</end>
                <file id="src-6"/>
                <sourcetrack>
                  <mediatype>video</mediatype>
                  <trackindex>1</trackindex>
                </sourcetrack>
                <multiclip id="mcs-359">
                  <name>MCS-359</name>
                  <masterclipid>clip-master</masterclipid>
                  <collapsed>false</collapsed>
                  <angle>
                    <activevideoangle>false</activevideoangle>
                    <activeaudioangle>false</activeaudioangle>
                    <clip id="clip-1"/>
                  </angle>
                  <angle>
                    <activevideoangle>false</activevideoangle>
                    <activeaudioangle>false</activeaudioangle>
                    <clip id="clip-2"/>
                  </angle>
                  <angle>
                    <activevideoangle>false</activevideoangle>
                    <activeaudioangle>false</activeaudioangle>
                    <clip id="clip-3"/>
                  </angle>
                  <angle>
                    <activevideoangle>false</activevideoangle>
                    <activeaudioangle>false</activeaudioangle>
                    <clip id="clip-4"/>
                  </angle>
                  <angle>
                    <activevideoangle>false</activevideoangle>
                    <activeaudioangle>false</activeaudioangle>
                    <clip id="clip-5"/>
                  </angle>
                  <angle>
                    <activevideoangle>true</activevideoangle>
                    <activeaudioangle>true</activeaudioangle>
                    <clip id="clip-6"/>
                  </angle>
                  <angle>
                    <activevideoangle>false</activevideoangle>
                    <activeaudioangle>false</activeaudioangle>
                    <clip id="clip-7"/>
                  </angle>
                  <angle>
                    <activevideoangle>false</activevideoangle>
                    <activeaudioangle>false</activeaudioangle>
                    <clip id="clip-8"/>
                  </angle>
                  <angle>
                    <activevideoangle>false</activevideoangle>
                    <activeaudioangle>false</activeaudioangle>
                    <clip id="clip-9"/>
                  </angle>
                  <masterclipid>clip-master</masterclipid>
                </multiclip>
              </clipitem>
              <clipitem id="cs-360">
                <duration>60</duration>
                <rate>
                  <ntsc>false</ntsc>
                  <timebase>25</timebase>
                </rate>
                <in>12106</in>
                <out>12165</out>
                <start>12106</start>
                <end>12165</end>
                <file id="src-3"/>
                <sourcetrack>
                  <mediatype>video</mediatype>
                  <trackindex>1</trackindex>
                </sourcetrack>
                <multiclip id="mcs-360">
                  <name>MCS-360</name>
                  <masterclipid>clip-master</masterclipid>
                  <collapsed>false</collapsed>
                  <angle>
                    <activevideoangle>false</activevideoangle>
                    <activeaudioangle>false</activeaudioangle>
                    <clip id="clip-1"/>
                  </angle>
                  <angle>
                    <activevideoangle>false</activevideoangle>
                    <activeaudioangle>false</activeaudioangle>
                    <clip id="clip-2"/>
                  </angle>
                  <angle>
                    <activevideoangle>true</activevideoangle>
                    <activeaudioangle>true</activeaudioangle>
                    <clip id="clip-3"/>
                  </angle>
                  <angle>
                    <activevideoangle>false</activevideoangle>
                    <activeaudioangle>false</activeaudioangle>
                    <clip id="clip-4"/>
                  </angle>
                  <angle>
                    <activevideoangle>false</activevideoangle>
                    <activeaudioangle>false</activeaudioangle>
                    <clip id="clip-5"/>
                  </angle>
                  <angle>
                    <activevideoangle>false</activevideoangle>
                    <activeaudioangle>false</activeaudioangle>
                    <clip id="clip-6"/>
                  </angle>
                  <angle>
                    <activevideoangle>false</activevideoangle>
                    <activeaudioangle>false</activeaudioangle>
                    <clip id="clip-7"/>
                  </angle>
                  <angle>
                    <activevideoangle>false</activevideoangle>
                    <activeaudioangle>false</activeaudioangle>
                    <clip id="clip-8"/>
                  </angle>
                  <angle>
                    <activevideoangle>false</activevideoangle>
                    <activeaudioangle>false</activeaudioangle>
                    <clip id="clip-9"/>
                  </angle>
                  <masterclipid>clip-master</masterclipid>
                </multiclip>
              </clipitem>
              <clipitem id="cs-361">
                <duration>71</duration>
                <rate>
                  <ntsc>false</ntsc>
                  <timebase>25</timebase>
                </rate>
                <in>12165</in>
                <out>12235</out>
                <start>12165</start>
                <end>12235</end>
                <file id="src-4"/>
                <sourcetrack>
                  <mediatype>video</mediatype>
                  <trackindex>1</trackindex>
                </sourcetrack>
                <multiclip id="mcs-361">
                  <name>MCS-361</name>
                  <masterclipid>clip-master</masterclipid>
                  <collapsed>false</collapsed>
                  <angle>
                    <activevideoangle>false</activevideoangle>
                    <activeaudioangle>false</activeaudioangle>
                    <clip id="clip-1"/>
                  </angle>
                  <angle>
                    <activevideoangle>false</activevideoangle>
                    <activeaudioangle>false</activeaudioangle>
                    <clip id="clip-2"/>
                  </angle>
                  <angle>
                    <activevideoangle>false</activevideoangle>
                    <activeaudioangle>false</activeaudioangle>
                    <clip id="clip-3"/>
                  </angle>
                  <angle>
                    <activevideoangle>true</activevideoangle>
                    <activeaudioangle>true</activeaudioangle>
                    <clip id="clip-4"/>
                  </angle>
                  <angle>
                    <activevideoangle>false</activevideoangle>
                    <activeaudioangle>false</activeaudioangle>
                    <clip id="clip-5"/>
                  </angle>
                  <angle>
                    <activevideoangle>false</activevideoangle>
                    <activeaudioangle>false</activeaudioangle>
                    <clip id="clip-6"/>
                  </angle>
                  <angle>
                    <activevideoangle>false</activevideoangle>
                    <activeaudioangle>false</activeaudioangle>
                    <clip id="clip-7"/>
                  </angle>
                  <angle>
                    <activevideoangle>false</activevideoangle>
                    <activeaudioangle>false</activeaudioangle>
                    <clip id="clip-8"/>
                  </angle>
                  <angle>
                    <activevideoangle>false</activevideoangle>
                    <activeaudioangle>false</activeaudioangle>
                    <clip id="clip-9"/>
                  </angle>
                  <masterclipid>clip-master</masterclipid>
                </multiclip>
              </clipitem>
              <clipitem id="cs-362">
                <duration>39</duration>
                <rate>
                  <ntsc>false</ntsc>
                  <timebase>25</timebase>
                </rate>
                <in>12235</in>
                <out>12273</out>
                <start>12235</start>
                <end>12273</end>
                <file id="src-2"/>
                <sourcetrack>
                  <mediatype>video</mediatype>
                  <trackindex>1</trackindex>
                </sourcetrack>
                <multiclip id="mcs-362">
                  <name>MCS-362</name>
                  <masterclipid>clip-master</masterclipid>
                  <collapsed>false</collapsed>
                  <angle>
                    <activevideoangle>false</activevideoangle>
                    <activeaudioangle>false</activeaudioangle>
                    <clip id="clip-1"/>
                  </angle>
                  <angle>
                    <activevideoangle>true</activevideoangle>
                    <activeaudioangle>true</activeaudioangle>
                    <clip id="clip-2"/>
                  </angle>
                  <angle>
                    <activevideoangle>false</activevideoangle>
                    <activeaudioangle>false</activeaudioangle>
                    <clip id="clip-3"/>
                  </angle>
                  <angle>
                    <activevideoangle>false</activevideoangle>
                    <activeaudioangle>false</activeaudioangle>
                    <clip id="clip-4"/>
                  </angle>
                  <angle>
                    <activevideoangle>false</activevideoangle>
                    <activeaudioangle>false</activeaudioangle>
                    <clip id="clip-5"/>
                  </angle>
                  <angle>
                    <activevideoangle>false</activevideoangle>
                    <activeaudioangle>false</activeaudioangle>
                    <clip id="clip-6"/>
                  </angle>
                  <angle>
                    <activevideoangle>false</activevideoangle>
                    <activeaudioangle>false</activeaudioangle>
                    <clip id="clip-7"/>
                  </angle>
                  <angle>
                    <activevideoangle>false</activevideoangle>
                    <activeaudioangle>false</activeaudioangle>
                    <clip id="clip-8"/>
                  </angle>
                  <angle>
                    <activevideoangle>false</activevideoangle>
                    <activeaudioangle>false</activeaudioangle>
                    <clip id="clip-9"/>
                  </angle>
                  <masterclipid>clip-master</masterclipid>
                </multiclip>
              </clipitem>
              <clipitem id="cs-363">
                <duration>52</duration>
                <rate>
                  <ntsc>false</ntsc>
                  <timebase>25</timebase>
                </rate>
                <in>12273</in>
                <out>12324</out>
                <start>12273</start>
                <end>12324</end>
                <file id="src-3"/>
                <sourcetrack>
                  <mediatype>video</mediatype>
                  <trackindex>1</trackindex>
                </sourcetrack>
                <multiclip id="mcs-363">
                  <name>MCS-363</name>
                  <masterclipid>clip-master</masterclipid>
                  <collapsed>false</collapsed>
                  <angle>
                    <activevideoangle>false</activevideoangle>
                    <activeaudioangle>false</activeaudioangle>
                    <clip id="clip-1"/>
                  </angle>
                  <angle>
                    <activevideoangle>false</activevideoangle>
                    <activeaudioangle>false</activeaudioangle>
                    <clip id="clip-2"/>
                  </angle>
                  <angle>
                    <activevideoangle>true</activevideoangle>
                    <activeaudioangle>true</activeaudioangle>
                    <clip id="clip-3"/>
                  </angle>
                  <angle>
                    <activevideoangle>false</activevideoangle>
                    <activeaudioangle>false</activeaudioangle>
                    <clip id="clip-4"/>
                  </angle>
                  <angle>
                    <activevideoangle>false</activevideoangle>
                    <activeaudioangle>false</activeaudioangle>
                    <clip id="clip-5"/>
                  </angle>
                  <angle>
                    <activevideoangle>false</activevideoangle>
                    <activeaudioangle>false</activeaudioangle>
                    <clip id="clip-6"/>
                  </angle>
                  <angle>
                    <activevideoangle>false</activevideoangle>
                    <activeaudioangle>false</activeaudioangle>
                    <clip id="clip-7"/>
                  </angle>
                  <angle>
                    <activevideoangle>false</activevideoangle>
                    <activeaudioangle>false</activeaudioangle>
                    <clip id="clip-8"/>
                  </angle>
                  <angle>
                    <activevideoangle>false</activevideoangle>
                    <activeaudioangle>false</activeaudioangle>
                    <clip id="clip-9"/>
                  </angle>
                  <masterclipid>clip-master</masterclipid>
                </multiclip>
              </clipitem>
              <clipitem id="cs-364">
                <duration>76</duration>
                <rate>
                  <ntsc>false</ntsc>
                  <timebase>25</timebase>
                </rate>
                <in>12324</in>
                <out>12399</out>
                <start>12324</start>
                <end>12399</end>
                <file id="src-5"/>
                <sourcetrack>
                  <mediatype>video</mediatype>
                  <trackindex>1</trackindex>
                </sourcetrack>
                <multiclip id="mcs-364">
                  <name>MCS-364</name>
                  <masterclipid>clip-master</masterclipid>
                  <collapsed>false</collapsed>
                  <angle>
                    <activevideoangle>false</activevideoangle>
                    <activeaudioangle>false</activeaudioangle>
                    <clip id="clip-1"/>
                  </angle>
                  <angle>
                    <activevideoangle>false</activevideoangle>
                    <activeaudioangle>false</activeaudioangle>
                    <clip id="clip-2"/>
                  </angle>
                  <angle>
                    <activevideoangle>false</activevideoangle>
                    <activeaudioangle>false</activeaudioangle>
                    <clip id="clip-3"/>
                  </angle>
                  <angle>
                    <activevideoangle>false</activevideoangle>
                    <activeaudioangle>false</activeaudioangle>
                    <clip id="clip-4"/>
                  </angle>
                  <angle>
                    <activevideoangle>true</activevideoangle>
                    <activeaudioangle>true</activeaudioangle>
                    <clip id="clip-5"/>
                  </angle>
                  <angle>
                    <activevideoangle>false</activevideoangle>
                    <activeaudioangle>false</activeaudioangle>
                    <clip id="clip-6"/>
                  </angle>
                  <angle>
                    <activevideoangle>false</activevideoangle>
                    <activeaudioangle>false</activeaudioangle>
                    <clip id="clip-7"/>
                  </angle>
                  <angle>
                    <activevideoangle>false</activevideoangle>
                    <activeaudioangle>false</activeaudioangle>
                    <clip id="clip-8"/>
                  </angle>
                  <angle>
                    <activevideoangle>false</activevideoangle>
                    <activeaudioangle>false</activeaudioangle>
                    <clip id="clip-9"/>
                  </angle>
                  <masterclipid>clip-master</masterclipid>
                </multiclip>
              </clipitem>
              <clipitem id="cs-365">
                <duration>77</duration>
                <rate>
                  <ntsc>false</ntsc>
                  <timebase>25</timebase>
                </rate>
                <in>12399</in>
                <out>12475</out>
                <start>12399</start>
                <end>12475</end>
                <file id="src-2"/>
                <sourcetrack>
                  <mediatype>video</mediatype>
                  <trackindex>1</trackindex>
                </sourcetrack>
                <multiclip id="mcs-365">
                  <name>MCS-365</name>
                  <masterclipid>clip-master</masterclipid>
                  <collapsed>false</collapsed>
                  <angle>
                    <activevideoangle>false</activevideoangle>
                    <activeaudioangle>false</activeaudioangle>
                    <clip id="clip-1"/>
                  </angle>
                  <angle>
                    <activevideoangle>true</activevideoangle>
                    <activeaudioangle>true</activeaudioangle>
                    <clip id="clip-2"/>
                  </angle>
                  <angle>
                    <activevideoangle>false</activevideoangle>
                    <activeaudioangle>false</activeaudioangle>
                    <clip id="clip-3"/>
                  </angle>
                  <angle>
                    <activevideoangle>false</activevideoangle>
                    <activeaudioangle>false</activeaudioangle>
                    <clip id="clip-4"/>
                  </angle>
                  <angle>
                    <activevideoangle>false</activevideoangle>
                    <activeaudioangle>false</activeaudioangle>
                    <clip id="clip-5"/>
                  </angle>
                  <angle>
                    <activevideoangle>false</activevideoangle>
                    <activeaudioangle>false</activeaudioangle>
                    <clip id="clip-6"/>
                  </angle>
                  <angle>
                    <activevideoangle>false</activevideoangle>
                    <activeaudioangle>false</activeaudioangle>
                    <clip id="clip-7"/>
                  </angle>
                  <angle>
                    <activevideoangle>false</activevideoangle>
                    <activeaudioangle>false</activeaudioangle>
                    <clip id="clip-8"/>
                  </angle>
                  <angle>
                    <activevideoangle>false</activevideoangle>
                    <activeaudioangle>false</activeaudioangle>
                    <clip id="clip-9"/>
                  </angle>
                  <masterclipid>clip-master</masterclipid>
                </multiclip>
              </clipitem>
              <clipitem id="cs-366">
                <duration>57</duration>
                <rate>
                  <ntsc>false</ntsc>
                  <timebase>25</timebase>
                </rate>
                <in>12475</in>
                <out>12531</out>
                <start>12475</start>
                <end>12531</end>
                <file id="src-4"/>
                <sourcetrack>
                  <mediatype>video</mediatype>
                  <trackindex>1</trackindex>
                </sourcetrack>
                <multiclip id="mcs-366">
                  <name>MCS-366</name>
                  <masterclipid>clip-master</masterclipid>
                  <collapsed>false</collapsed>
                  <angle>
                    <activevideoangle>false</activevideoangle>
                    <activeaudioangle>false</activeaudioangle>
                    <clip id="clip-1"/>
                  </angle>
                  <angle>
                    <activevideoangle>false</activevideoangle>
                    <activeaudioangle>false</activeaudioangle>
                    <clip id="clip-2"/>
                  </angle>
                  <angle>
                    <activevideoangle>false</activevideoangle>
                    <activeaudioangle>false</activeaudioangle>
                    <clip id="clip-3"/>
                  </angle>
                  <angle>
                    <activevideoangle>true</activevideoangle>
                    <activeaudioangle>true</activeaudioangle>
                    <clip id="clip-4"/>
                  </angle>
                  <angle>
                    <activevideoangle>false</activevideoangle>
                    <activeaudioangle>false</activeaudioangle>
                    <clip id="clip-5"/>
                  </angle>
                  <angle>
                    <activevideoangle>false</activevideoangle>
                    <activeaudioangle>false</activeaudioangle>
                    <clip id="clip-6"/>
                  </angle>
                  <angle>
                    <activevideoangle>false</activevideoangle>
                    <activeaudioangle>false</activeaudioangle>
                    <clip id="clip-7"/>
                  </angle>
                  <angle>
                    <activevideoangle>false</activevideoangle>
                    <activeaudioangle>false</activeaudioangle>
                    <clip id="clip-8"/>
                  </angle>
                  <angle>
                    <activevideoangle>false</activevideoangle>
                    <activeaudioangle>false</activeaudioangle>
                    <clip id="clip-9"/>
                  </angle>
                  <masterclipid>clip-master</masterclipid>
                </multiclip>
              </clipitem>
              <clipitem id="cs-367">
                <duration>64</duration>
                <rate>
                  <ntsc>false</ntsc>
                  <timebase>25</timebase>
                </rate>
                <in>12531</in>
                <out>12594</out>
                <start>12531</start>
                <end>12594</end>
                <file id="src-6"/>
                <sourcetrack>
                  <mediatype>video</mediatype>
                  <trackindex>1</trackindex>
                </sourcetrack>
                <multiclip id="mcs-367">
                  <name>MCS-367</name>
                  <masterclipid>clip-master</masterclipid>
                  <collapsed>false</collapsed>
                  <angle>
                    <activevideoangle>false</activevideoangle>
                    <activeaudioangle>false</activeaudioangle>
                    <clip id="clip-1"/>
                  </angle>
                  <angle>
                    <activevideoangle>false</activevideoangle>
                    <activeaudioangle>false</activeaudioangle>
                    <clip id="clip-2"/>
                  </angle>
                  <angle>
                    <activevideoangle>false</activevideoangle>
                    <activeaudioangle>false</activeaudioangle>
                    <clip id="clip-3"/>
                  </angle>
                  <angle>
                    <activevideoangle>false</activevideoangle>
                    <activeaudioangle>false</activeaudioangle>
                    <clip id="clip-4"/>
                  </angle>
                  <angle>
                    <activevideoangle>false</activevideoangle>
                    <activeaudioangle>false</activeaudioangle>
                    <clip id="clip-5"/>
                  </angle>
                  <angle>
                    <activevideoangle>true</activevideoangle>
                    <activeaudioangle>true</activeaudioangle>
                    <clip id="clip-6"/>
                  </angle>
                  <angle>
                    <activevideoangle>false</activevideoangle>
                    <activeaudioangle>false</activeaudioangle>
                    <clip id="clip-7"/>
                  </angle>
                  <angle>
                    <activevideoangle>false</activevideoangle>
                    <activeaudioangle>false</activeaudioangle>
                    <clip id="clip-8"/>
                  </angle>
                  <angle>
                    <activevideoangle>false</activevideoangle>
                    <activeaudioangle>false</activeaudioangle>
                    <clip id="clip-9"/>
                  </angle>
                  <masterclipid>clip-master</masterclipid>
                </multiclip>
              </clipitem>
              <clipitem id="cs-368">
                <duration>41</duration>
                <rate>
                  <ntsc>false</ntsc>
                  <timebase>25</timebase>
                </rate>
                <in>12594</in>
                <out>12634</out>
                <start>12594</start>
                <end>12634</end>
                <file id="src-2"/>
                <sourcetrack>
                  <mediatype>video</mediatype>
                  <trackindex>1</trackindex>
                </sourcetrack>
                <multiclip id="mcs-368">
                  <name>MCS-368</name>
                  <masterclipid>clip-master</masterclipid>
                  <collapsed>false</collapsed>
                  <angle>
                    <activevideoangle>false</activevideoangle>
                    <activeaudioangle>false</activeaudioangle>
                    <clip id="clip-1"/>
                  </angle>
                  <angle>
                    <activevideoangle>true</activevideoangle>
                    <activeaudioangle>true</activeaudioangle>
                    <clip id="clip-2"/>
                  </angle>
                  <angle>
                    <activevideoangle>false</activevideoangle>
                    <activeaudioangle>false</activeaudioangle>
                    <clip id="clip-3"/>
                  </angle>
                  <angle>
                    <activevideoangle>false</activevideoangle>
                    <activeaudioangle>false</activeaudioangle>
                    <clip id="clip-4"/>
                  </angle>
                  <angle>
                    <activevideoangle>false</activevideoangle>
                    <activeaudioangle>false</activeaudioangle>
                    <clip id="clip-5"/>
                  </angle>
                  <angle>
                    <activevideoangle>false</activevideoangle>
                    <activeaudioangle>false</activeaudioangle>
                    <clip id="clip-6"/>
                  </angle>
                  <angle>
                    <activevideoangle>false</activevideoangle>
                    <activeaudioangle>false</activeaudioangle>
                    <clip id="clip-7"/>
                  </angle>
                  <angle>
                    <activevideoangle>false</activevideoangle>
                    <activeaudioangle>false</activeaudioangle>
                    <clip id="clip-8"/>
                  </angle>
                  <angle>
                    <activevideoangle>false</activevideoangle>
                    <activeaudioangle>false</activeaudioangle>
                    <clip id="clip-9"/>
                  </angle>
                  <masterclipid>clip-master</masterclipid>
                </multiclip>
              </clipitem>
              <clipitem id="cs-369">
                <duration>48</duration>
                <rate>
                  <ntsc>false</ntsc>
                  <timebase>25</timebase>
                </rate>
                <in>12634</in>
                <out>12681</out>
                <start>12634</start>
                <end>12681</end>
                <file id="src-3"/>
                <sourcetrack>
                  <mediatype>video</mediatype>
                  <trackindex>1</trackindex>
                </sourcetrack>
                <multiclip id="mcs-369">
                  <name>MCS-369</name>
                  <masterclipid>clip-master</masterclipid>
                  <collapsed>false</collapsed>
                  <angle>
                    <activevideoangle>false</activevideoangle>
                    <activeaudioangle>false</activeaudioangle>
                    <clip id="clip-1"/>
                  </angle>
                  <angle>
                    <activevideoangle>false</activevideoangle>
                    <activeaudioangle>false</activeaudioangle>
                    <clip id="clip-2"/>
                  </angle>
                  <angle>
                    <activevideoangle>true</activevideoangle>
                    <activeaudioangle>true</activeaudioangle>
                    <clip id="clip-3"/>
                  </angle>
                  <angle>
                    <activevideoangle>false</activevideoangle>
                    <activeaudioangle>false</activeaudioangle>
                    <clip id="clip-4"/>
                  </angle>
                  <angle>
                    <activevideoangle>false</activevideoangle>
                    <activeaudioangle>false</activeaudioangle>
                    <clip id="clip-5"/>
                  </angle>
                  <angle>
                    <activevideoangle>false</activevideoangle>
                    <activeaudioangle>false</activeaudioangle>
                    <clip id="clip-6"/>
                  </angle>
                  <angle>
                    <activevideoangle>false</activevideoangle>
                    <activeaudioangle>false</activeaudioangle>
                    <clip id="clip-7"/>
                  </angle>
                  <angle>
                    <activevideoangle>false</activevideoangle>
                    <activeaudioangle>false</activeaudioangle>
                    <clip id="clip-8"/>
                  </angle>
                  <angle>
                    <activevideoangle>false</activevideoangle>
                    <activeaudioangle>false</activeaudioangle>
                    <clip id="clip-9"/>
                  </angle>
                  <masterclipid>clip-master</masterclipid>
                </multiclip>
              </clipitem>
              <clipitem id="cs-370">
                <duration>84</duration>
                <rate>
                  <ntsc>false</ntsc>
                  <timebase>25</timebase>
                </rate>
                <in>12681</in>
                <out>12764</out>
                <start>12681</start>
                <end>12764</end>
                <file id="src-4"/>
                <sourcetrack>
                  <mediatype>video</mediatype>
                  <trackindex>1</trackindex>
                </sourcetrack>
                <multiclip id="mcs-370">
                  <name>MCS-370</name>
                  <masterclipid>clip-master</masterclipid>
                  <collapsed>false</collapsed>
                  <angle>
                    <activevideoangle>false</activevideoangle>
                    <activeaudioangle>false</activeaudioangle>
                    <clip id="clip-1"/>
                  </angle>
                  <angle>
                    <activevideoangle>false</activevideoangle>
                    <activeaudioangle>false</activeaudioangle>
                    <clip id="clip-2"/>
                  </angle>
                  <angle>
                    <activevideoangle>false</activevideoangle>
                    <activeaudioangle>false</activeaudioangle>
                    <clip id="clip-3"/>
                  </angle>
                  <angle>
                    <activevideoangle>true</activevideoangle>
                    <activeaudioangle>true</activeaudioangle>
                    <clip id="clip-4"/>
                  </angle>
                  <angle>
                    <activevideoangle>false</activevideoangle>
                    <activeaudioangle>false</activeaudioangle>
                    <clip id="clip-5"/>
                  </angle>
                  <angle>
                    <activevideoangle>false</activevideoangle>
                    <activeaudioangle>false</activeaudioangle>
                    <clip id="clip-6"/>
                  </angle>
                  <angle>
                    <activevideoangle>false</activevideoangle>
                    <activeaudioangle>false</activeaudioangle>
                    <clip id="clip-7"/>
                  </angle>
                  <angle>
                    <activevideoangle>false</activevideoangle>
                    <activeaudioangle>false</activeaudioangle>
                    <clip id="clip-8"/>
                  </angle>
                  <angle>
                    <activevideoangle>false</activevideoangle>
                    <activeaudioangle>false</activeaudioangle>
                    <clip id="clip-9"/>
                  </angle>
                  <masterclipid>clip-master</masterclipid>
                </multiclip>
              </clipitem>
              <clipitem id="cs-371">
                <duration>51</duration>
                <rate>
                  <ntsc>false</ntsc>
                  <timebase>25</timebase>
                </rate>
                <in>12764</in>
                <out>12814</out>
                <start>12764</start>
                <end>12814</end>
                <file id="src-3"/>
                <sourcetrack>
                  <mediatype>video</mediatype>
                  <trackindex>1</trackindex>
                </sourcetrack>
                <multiclip id="mcs-371">
                  <name>MCS-371</name>
                  <masterclipid>clip-master</masterclipid>
                  <collapsed>false</collapsed>
                  <angle>
                    <activevideoangle>false</activevideoangle>
                    <activeaudioangle>false</activeaudioangle>
                    <clip id="clip-1"/>
                  </angle>
                  <angle>
                    <activevideoangle>false</activevideoangle>
                    <activeaudioangle>false</activeaudioangle>
                    <clip id="clip-2"/>
                  </angle>
                  <angle>
                    <activevideoangle>true</activevideoangle>
                    <activeaudioangle>true</activeaudioangle>
                    <clip id="clip-3"/>
                  </angle>
                  <angle>
                    <activevideoangle>false</activevideoangle>
                    <activeaudioangle>false</activeaudioangle>
                    <clip id="clip-4"/>
                  </angle>
                  <angle>
                    <activevideoangle>false</activevideoangle>
                    <activeaudioangle>false</activeaudioangle>
                    <clip id="clip-5"/>
                  </angle>
                  <angle>
                    <activevideoangle>false</activevideoangle>
                    <activeaudioangle>false</activeaudioangle>
                    <clip id="clip-6"/>
                  </angle>
                  <angle>
                    <activevideoangle>false</activevideoangle>
                    <activeaudioangle>false</activeaudioangle>
                    <clip id="clip-7"/>
                  </angle>
                  <angle>
                    <activevideoangle>false</activevideoangle>
                    <activeaudioangle>false</activeaudioangle>
                    <clip id="clip-8"/>
                  </angle>
                  <angle>
                    <activevideoangle>false</activevideoangle>
                    <activeaudioangle>false</activeaudioangle>
                    <clip id="clip-9"/>
                  </angle>
                  <masterclipid>clip-master</masterclipid>
                </multiclip>
              </clipitem>
              <clipitem id="cs-372">
                <duration>32</duration>
                <rate>
                  <ntsc>false</ntsc>
                  <timebase>25</timebase>
                </rate>
                <in>12814</in>
                <out>12845</out>
                <start>12814</start>
                <end>12845</end>
                <file id="src-4"/>
                <sourcetrack>
                  <mediatype>video</mediatype>
                  <trackindex>1</trackindex>
                </sourcetrack>
                <multiclip id="mcs-372">
                  <name>MCS-372</name>
                  <masterclipid>clip-master</masterclipid>
                  <collapsed>false</collapsed>
                  <angle>
                    <activevideoangle>false</activevideoangle>
                    <activeaudioangle>false</activeaudioangle>
                    <clip id="clip-1"/>
                  </angle>
                  <angle>
                    <activevideoangle>false</activevideoangle>
                    <activeaudioangle>false</activeaudioangle>
                    <clip id="clip-2"/>
                  </angle>
                  <angle>
                    <activevideoangle>false</activevideoangle>
                    <activeaudioangle>false</activeaudioangle>
                    <clip id="clip-3"/>
                  </angle>
                  <angle>
                    <activevideoangle>true</activevideoangle>
                    <activeaudioangle>true</activeaudioangle>
                    <clip id="clip-4"/>
                  </angle>
                  <angle>
                    <activevideoangle>false</activevideoangle>
                    <activeaudioangle>false</activeaudioangle>
                    <clip id="clip-5"/>
                  </angle>
                  <angle>
                    <activevideoangle>false</activevideoangle>
                    <activeaudioangle>false</activeaudioangle>
                    <clip id="clip-6"/>
                  </angle>
                  <angle>
                    <activevideoangle>false</activevideoangle>
                    <activeaudioangle>false</activeaudioangle>
                    <clip id="clip-7"/>
                  </angle>
                  <angle>
                    <activevideoangle>false</activevideoangle>
                    <activeaudioangle>false</activeaudioangle>
                    <clip id="clip-8"/>
                  </angle>
                  <angle>
                    <activevideoangle>false</activevideoangle>
                    <activeaudioangle>false</activeaudioangle>
                    <clip id="clip-9"/>
                  </angle>
                  <masterclipid>clip-master</masterclipid>
                </multiclip>
              </clipitem>
              <clipitem id="cs-373">
                <duration>34</duration>
                <rate>
                  <ntsc>false</ntsc>
                  <timebase>25</timebase>
                </rate>
                <in>12845</in>
                <out>12878</out>
                <start>12845</start>
                <end>12878</end>
                <file id="src-2"/>
                <sourcetrack>
                  <mediatype>video</mediatype>
                  <trackindex>1</trackindex>
                </sourcetrack>
                <multiclip id="mcs-373">
                  <name>MCS-373</name>
                  <masterclipid>clip-master</masterclipid>
                  <collapsed>false</collapsed>
                  <angle>
                    <activevideoangle>false</activevideoangle>
                    <activeaudioangle>false</activeaudioangle>
                    <clip id="clip-1"/>
                  </angle>
                  <angle>
                    <activevideoangle>true</activevideoangle>
                    <activeaudioangle>true</activeaudioangle>
                    <clip id="clip-2"/>
                  </angle>
                  <angle>
                    <activevideoangle>false</activevideoangle>
                    <activeaudioangle>false</activeaudioangle>
                    <clip id="clip-3"/>
                  </angle>
                  <angle>
                    <activevideoangle>false</activevideoangle>
                    <activeaudioangle>false</activeaudioangle>
                    <clip id="clip-4"/>
                  </angle>
                  <angle>
                    <activevideoangle>false</activevideoangle>
                    <activeaudioangle>false</activeaudioangle>
                    <clip id="clip-5"/>
                  </angle>
                  <angle>
                    <activevideoangle>false</activevideoangle>
                    <activeaudioangle>false</activeaudioangle>
                    <clip id="clip-6"/>
                  </angle>
                  <angle>
                    <activevideoangle>false</activevideoangle>
                    <activeaudioangle>false</activeaudioangle>
                    <clip id="clip-7"/>
                  </angle>
                  <angle>
                    <activevideoangle>false</activevideoangle>
                    <activeaudioangle>false</activeaudioangle>
                    <clip id="clip-8"/>
                  </angle>
                  <angle>
                    <activevideoangle>false</activevideoangle>
                    <activeaudioangle>false</activeaudioangle>
                    <clip id="clip-9"/>
                  </angle>
                  <masterclipid>clip-master</masterclipid>
                </multiclip>
              </clipitem>
              <clipitem id="cs-374">
                <duration>89</duration>
                <rate>
                  <ntsc>false</ntsc>
                  <timebase>25</timebase>
                </rate>
                <in>12878</in>
                <out>12966</out>
                <start>12878</start>
                <end>12966</end>
                <file id="src-1"/>
                <sourcetrack>
                  <mediatype>video</mediatype>
                  <trackindex>1</trackindex>
                </sourcetrack>
                <multiclip id="mcs-374">
                  <name>MCS-374</name>
                  <masterclipid>clip-master</masterclipid>
                  <collapsed>false</collapsed>
                  <angle>
                    <activevideoangle>true</activevideoangle>
                    <activeaudioangle>true</activeaudioangle>
                    <clip id="clip-1"/>
                  </angle>
                  <angle>
                    <activevideoangle>false</activevideoangle>
                    <activeaudioangle>false</activeaudioangle>
                    <clip id="clip-2"/>
                  </angle>
                  <angle>
                    <activevideoangle>false</activevideoangle>
                    <activeaudioangle>false</activeaudioangle>
                    <clip id="clip-3"/>
                  </angle>
                  <angle>
                    <activevideoangle>false</activevideoangle>
                    <activeaudioangle>false</activeaudioangle>
                    <clip id="clip-4"/>
                  </angle>
                  <angle>
                    <activevideoangle>false</activevideoangle>
                    <activeaudioangle>false</activeaudioangle>
                    <clip id="clip-5"/>
                  </angle>
                  <angle>
                    <activevideoangle>false</activevideoangle>
                    <activeaudioangle>false</activeaudioangle>
                    <clip id="clip-6"/>
                  </angle>
                  <angle>
                    <activevideoangle>false</activevideoangle>
                    <activeaudioangle>false</activeaudioangle>
                    <clip id="clip-7"/>
                  </angle>
                  <angle>
                    <activevideoangle>false</activevideoangle>
                    <activeaudioangle>false</activeaudioangle>
                    <clip id="clip-8"/>
                  </angle>
                  <angle>
                    <activevideoangle>false</activevideoangle>
                    <activeaudioangle>false</activeaudioangle>
                    <clip id="clip-9"/>
                  </angle>
                  <masterclipid>clip-master</masterclipid>
                </multiclip>
              </clipitem>
              <clipitem id="cs-375">
                <duration>58</duration>
                <rate>
                  <ntsc>false</ntsc>
                  <timebase>25</timebase>
                </rate>
                <in>12966</in>
                <out>13023</out>
                <start>12966</start>
                <end>13023</end>
                <file id="src-7"/>
                <sourcetrack>
                  <mediatype>video</mediatype>
                  <trackindex>1</trackindex>
                </sourcetrack>
                <multiclip id="mcs-375">
                  <name>MCS-375</name>
                  <masterclipid>clip-master</masterclipid>
                  <collapsed>false</collapsed>
                  <angle>
                    <activevideoangle>false</activevideoangle>
                    <activeaudioangle>false</activeaudioangle>
                    <clip id="clip-1"/>
                  </angle>
                  <angle>
                    <activevideoangle>false</activevideoangle>
                    <activeaudioangle>false</activeaudioangle>
                    <clip id="clip-2"/>
                  </angle>
                  <angle>
                    <activevideoangle>false</activevideoangle>
                    <activeaudioangle>false</activeaudioangle>
                    <clip id="clip-3"/>
                  </angle>
                  <angle>
                    <activevideoangle>false</activevideoangle>
                    <activeaudioangle>false</activeaudioangle>
                    <clip id="clip-4"/>
                  </angle>
                  <angle>
                    <activevideoangle>false</activevideoangle>
                    <activeaudioangle>false</activeaudioangle>
                    <clip id="clip-5"/>
                  </angle>
                  <angle>
                    <activevideoangle>false</activevideoangle>
                    <activeaudioangle>false</activeaudioangle>
                    <clip id="clip-6"/>
                  </angle>
                  <angle>
                    <activevideoangle>true</activevideoangle>
                    <activeaudioangle>true</activeaudioangle>
                    <clip id="clip-7"/>
                  </angle>
                  <angle>
                    <activevideoangle>false</activevideoangle>
                    <activeaudioangle>false</activeaudioangle>
                    <clip id="clip-8"/>
                  </angle>
                  <angle>
                    <activevideoangle>false</activevideoangle>
                    <activeaudioangle>false</activeaudioangle>
                    <clip id="clip-9"/>
                  </angle>
                  <masterclipid>clip-master</masterclipid>
                </multiclip>
              </clipitem>
              <clipitem id="cs-376">
                <duration>29</duration>
                <rate>
                  <ntsc>false</ntsc>
                  <timebase>25</timebase>
                </rate>
                <in>13023</in>
                <out>13051</out>
                <start>13023</start>
                <end>13051</end>
                <file id="src-3"/>
                <sourcetrack>
                  <mediatype>video</mediatype>
                  <trackindex>1</trackindex>
                </sourcetrack>
                <multiclip id="mcs-376">
                  <name>MCS-376</name>
                  <masterclipid>clip-master</masterclipid>
                  <collapsed>false</collapsed>
                  <angle>
                    <activevideoangle>false</activevideoangle>
                    <activeaudioangle>false</activeaudioangle>
                    <clip id="clip-1"/>
                  </angle>
                  <angle>
                    <activevideoangle>false</activevideoangle>
                    <activeaudioangle>false</activeaudioangle>
                    <clip id="clip-2"/>
                  </angle>
                  <angle>
                    <activevideoangle>true</activevideoangle>
                    <activeaudioangle>true</activeaudioangle>
                    <clip id="clip-3"/>
                  </angle>
                  <angle>
                    <activevideoangle>false</activevideoangle>
                    <activeaudioangle>false</activeaudioangle>
                    <clip id="clip-4"/>
                  </angle>
                  <angle>
                    <activevideoangle>false</activevideoangle>
                    <activeaudioangle>false</activeaudioangle>
                    <clip id="clip-5"/>
                  </angle>
                  <angle>
                    <activevideoangle>false</activevideoangle>
                    <activeaudioangle>false</activeaudioangle>
                    <clip id="clip-6"/>
                  </angle>
                  <angle>
                    <activevideoangle>false</activevideoangle>
                    <activeaudioangle>false</activeaudioangle>
                    <clip id="clip-7"/>
                  </angle>
                  <angle>
                    <activevideoangle>false</activevideoangle>
                    <activeaudioangle>false</activeaudioangle>
                    <clip id="clip-8"/>
                  </angle>
                  <angle>
                    <activevideoangle>false</activevideoangle>
                    <activeaudioangle>false</activeaudioangle>
                    <clip id="clip-9"/>
                  </angle>
                  <masterclipid>clip-master</masterclipid>
                </multiclip>
              </clipitem>
              <clipitem id="cs-377">
                <duration>38</duration>
                <rate>
                  <ntsc>false</ntsc>
                  <timebase>25</timebase>
                </rate>
                <in>13051</in>
                <out>13088</out>
                <start>13051</start>
                <end>13088</end>
                <file id="src-4"/>
                <sourcetrack>
                  <mediatype>video</mediatype>
                  <trackindex>1</trackindex>
                </sourcetrack>
                <multiclip id="mcs-377">
                  <name>MCS-377</name>
                  <masterclipid>clip-master</masterclipid>
                  <collapsed>false</collapsed>
                  <angle>
                    <activevideoangle>false</activevideoangle>
                    <activeaudioangle>false</activeaudioangle>
                    <clip id="clip-1"/>
                  </angle>
                  <angle>
                    <activevideoangle>false</activevideoangle>
                    <activeaudioangle>false</activeaudioangle>
                    <clip id="clip-2"/>
                  </angle>
                  <angle>
                    <activevideoangle>false</activevideoangle>
                    <activeaudioangle>false</activeaudioangle>
                    <clip id="clip-3"/>
                  </angle>
                  <angle>
                    <activevideoangle>true</activevideoangle>
                    <activeaudioangle>true</activeaudioangle>
                    <clip id="clip-4"/>
                  </angle>
                  <angle>
                    <activevideoangle>false</activevideoangle>
                    <activeaudioangle>false</activeaudioangle>
                    <clip id="clip-5"/>
                  </angle>
                  <angle>
                    <activevideoangle>false</activevideoangle>
                    <activeaudioangle>false</activeaudioangle>
                    <clip id="clip-6"/>
                  </angle>
                  <angle>
                    <activevideoangle>false</activevideoangle>
                    <activeaudioangle>false</activeaudioangle>
                    <clip id="clip-7"/>
                  </angle>
                  <angle>
                    <activevideoangle>false</activevideoangle>
                    <activeaudioangle>false</activeaudioangle>
                    <clip id="clip-8"/>
                  </angle>
                  <angle>
                    <activevideoangle>false</activevideoangle>
                    <activeaudioangle>false</activeaudioangle>
                    <clip id="clip-9"/>
                  </angle>
                  <masterclipid>clip-master</masterclipid>
                </multiclip>
              </clipitem>
              <clipitem id="cs-378">
                <duration>157</duration>
                <rate>
                  <ntsc>false</ntsc>
                  <timebase>25</timebase>
                </rate>
                <in>13088</in>
                <out>13244</out>
                <start>13088</start>
                <end>13244</end>
                <file id="src-2"/>
                <sourcetrack>
                  <mediatype>video</mediatype>
                  <trackindex>1</trackindex>
                </sourcetrack>
                <multiclip id="mcs-378">
                  <name>MCS-378</name>
                  <masterclipid>clip-master</masterclipid>
                  <collapsed>false</collapsed>
                  <angle>
                    <activevideoangle>false</activevideoangle>
                    <activeaudioangle>false</activeaudioangle>
                    <clip id="clip-1"/>
                  </angle>
                  <angle>
                    <activevideoangle>true</activevideoangle>
                    <activeaudioangle>true</activeaudioangle>
                    <clip id="clip-2"/>
                  </angle>
                  <angle>
                    <activevideoangle>false</activevideoangle>
                    <activeaudioangle>false</activeaudioangle>
                    <clip id="clip-3"/>
                  </angle>
                  <angle>
                    <activevideoangle>false</activevideoangle>
                    <activeaudioangle>false</activeaudioangle>
                    <clip id="clip-4"/>
                  </angle>
                  <angle>
                    <activevideoangle>false</activevideoangle>
                    <activeaudioangle>false</activeaudioangle>
                    <clip id="clip-5"/>
                  </angle>
                  <angle>
                    <activevideoangle>false</activevideoangle>
                    <activeaudioangle>false</activeaudioangle>
                    <clip id="clip-6"/>
                  </angle>
                  <angle>
                    <activevideoangle>false</activevideoangle>
                    <activeaudioangle>false</activeaudioangle>
                    <clip id="clip-7"/>
                  </angle>
                  <angle>
                    <activevideoangle>false</activevideoangle>
                    <activeaudioangle>false</activeaudioangle>
                    <clip id="clip-8"/>
                  </angle>
                  <angle>
                    <activevideoangle>false</activevideoangle>
                    <activeaudioangle>false</activeaudioangle>
                    <clip id="clip-9"/>
                  </angle>
                  <masterclipid>clip-master</masterclipid>
                </multiclip>
              </clipitem>
              <clipitem id="cs-379">
                <duration>104</duration>
                <rate>
                  <ntsc>false</ntsc>
                  <timebase>25</timebase>
                </rate>
                <in>13244</in>
                <out>13347</out>
                <start>13244</start>
                <end>13347</end>
                <file id="src-3"/>
                <sourcetrack>
                  <mediatype>video</mediatype>
                  <trackindex>1</trackindex>
                </sourcetrack>
                <multiclip id="mcs-379">
                  <name>MCS-379</name>
                  <masterclipid>clip-master</masterclipid>
                  <collapsed>false</collapsed>
                  <angle>
                    <activevideoangle>false</activevideoangle>
                    <activeaudioangle>false</activeaudioangle>
                    <clip id="clip-1"/>
                  </angle>
                  <angle>
                    <activevideoangle>false</activevideoangle>
                    <activeaudioangle>false</activeaudioangle>
                    <clip id="clip-2"/>
                  </angle>
                  <angle>
                    <activevideoangle>true</activevideoangle>
                    <activeaudioangle>true</activeaudioangle>
                    <clip id="clip-3"/>
                  </angle>
                  <angle>
                    <activevideoangle>false</activevideoangle>
                    <activeaudioangle>false</activeaudioangle>
                    <clip id="clip-4"/>
                  </angle>
                  <angle>
                    <activevideoangle>false</activevideoangle>
                    <activeaudioangle>false</activeaudioangle>
                    <clip id="clip-5"/>
                  </angle>
                  <angle>
                    <activevideoangle>false</activevideoangle>
                    <activeaudioangle>false</activeaudioangle>
                    <clip id="clip-6"/>
                  </angle>
                  <angle>
                    <activevideoangle>false</activevideoangle>
                    <activeaudioangle>false</activeaudioangle>
                    <clip id="clip-7"/>
                  </angle>
                  <angle>
                    <activevideoangle>false</activevideoangle>
                    <activeaudioangle>false</activeaudioangle>
                    <clip id="clip-8"/>
                  </angle>
                  <angle>
                    <activevideoangle>false</activevideoangle>
                    <activeaudioangle>false</activeaudioangle>
                    <clip id="clip-9"/>
                  </angle>
                  <masterclipid>clip-master</masterclipid>
                </multiclip>
              </clipitem>
              <clipitem id="cs-380">
                <duration>72</duration>
                <rate>
                  <ntsc>false</ntsc>
                  <timebase>25</timebase>
                </rate>
                <in>13347</in>
                <out>13418</out>
                <start>13347</start>
                <end>13418</end>
                <file id="src-6"/>
                <sourcetrack>
                  <mediatype>video</mediatype>
                  <trackindex>1</trackindex>
                </sourcetrack>
                <multiclip id="mcs-380">
                  <name>MCS-380</name>
                  <masterclipid>clip-master</masterclipid>
                  <collapsed>false</collapsed>
                  <angle>
                    <activevideoangle>false</activevideoangle>
                    <activeaudioangle>false</activeaudioangle>
                    <clip id="clip-1"/>
                  </angle>
                  <angle>
                    <activevideoangle>false</activevideoangle>
                    <activeaudioangle>false</activeaudioangle>
                    <clip id="clip-2"/>
                  </angle>
                  <angle>
                    <activevideoangle>false</activevideoangle>
                    <activeaudioangle>false</activeaudioangle>
                    <clip id="clip-3"/>
                  </angle>
                  <angle>
                    <activevideoangle>false</activevideoangle>
                    <activeaudioangle>false</activeaudioangle>
                    <clip id="clip-4"/>
                  </angle>
                  <angle>
                    <activevideoangle>false</activevideoangle>
                    <activeaudioangle>false</activeaudioangle>
                    <clip id="clip-5"/>
                  </angle>
                  <angle>
                    <activevideoangle>true</activevideoangle>
                    <activeaudioangle>true</activeaudioangle>
                    <clip id="clip-6"/>
                  </angle>
                  <angle>
                    <activevideoangle>false</activevideoangle>
                    <activeaudioangle>false</activeaudioangle>
                    <clip id="clip-7"/>
                  </angle>
                  <angle>
                    <activevideoangle>false</activevideoangle>
                    <activeaudioangle>false</activeaudioangle>
                    <clip id="clip-8"/>
                  </angle>
                  <angle>
                    <activevideoangle>false</activevideoangle>
                    <activeaudioangle>false</activeaudioangle>
                    <clip id="clip-9"/>
                  </angle>
                  <masterclipid>clip-master</masterclipid>
                </multiclip>
              </clipitem>
              <clipitem id="cs-381">
                <duration>99</duration>
                <rate>
                  <ntsc>false</ntsc>
                  <timebase>25</timebase>
                </rate>
                <in>13418</in>
                <out>13516</out>
                <start>13418</start>
                <end>13516</end>
                <file id="src-4"/>
                <sourcetrack>
                  <mediatype>video</mediatype>
                  <trackindex>1</trackindex>
                </sourcetrack>
                <multiclip id="mcs-381">
                  <name>MCS-381</name>
                  <masterclipid>clip-master</masterclipid>
                  <collapsed>false</collapsed>
                  <angle>
                    <activevideoangle>false</activevideoangle>
                    <activeaudioangle>false</activeaudioangle>
                    <clip id="clip-1"/>
                  </angle>
                  <angle>
                    <activevideoangle>false</activevideoangle>
                    <activeaudioangle>false</activeaudioangle>
                    <clip id="clip-2"/>
                  </angle>
                  <angle>
                    <activevideoangle>false</activevideoangle>
                    <activeaudioangle>false</activeaudioangle>
                    <clip id="clip-3"/>
                  </angle>
                  <angle>
                    <activevideoangle>true</activevideoangle>
                    <activeaudioangle>true</activeaudioangle>
                    <clip id="clip-4"/>
                  </angle>
                  <angle>
                    <activevideoangle>false</activevideoangle>
                    <activeaudioangle>false</activeaudioangle>
                    <clip id="clip-5"/>
                  </angle>
                  <angle>
                    <activevideoangle>false</activevideoangle>
                    <activeaudioangle>false</activeaudioangle>
                    <clip id="clip-6"/>
                  </angle>
                  <angle>
                    <activevideoangle>false</activevideoangle>
                    <activeaudioangle>false</activeaudioangle>
                    <clip id="clip-7"/>
                  </angle>
                  <angle>
                    <activevideoangle>false</activevideoangle>
                    <activeaudioangle>false</activeaudioangle>
                    <clip id="clip-8"/>
                  </angle>
                  <angle>
                    <activevideoangle>false</activevideoangle>
                    <activeaudioangle>false</activeaudioangle>
                    <clip id="clip-9"/>
                  </angle>
                  <masterclipid>clip-master</masterclipid>
                </multiclip>
              </clipitem>
              <clipitem id="cs-382">
                <duration>62</duration>
                <rate>
                  <ntsc>false</ntsc>
                  <timebase>25</timebase>
                </rate>
                <in>13516</in>
                <out>13577</out>
                <start>13516</start>
                <end>13577</end>
                <file id="src-5"/>
                <sourcetrack>
                  <mediatype>video</mediatype>
                  <trackindex>1</trackindex>
                </sourcetrack>
                <multiclip id="mcs-382">
                  <name>MCS-382</name>
                  <masterclipid>clip-master</masterclipid>
                  <collapsed>false</collapsed>
                  <angle>
                    <activevideoangle>false</activevideoangle>
                    <activeaudioangle>false</activeaudioangle>
                    <clip id="clip-1"/>
                  </angle>
                  <angle>
                    <activevideoangle>false</activevideoangle>
                    <activeaudioangle>false</activeaudioangle>
                    <clip id="clip-2"/>
                  </angle>
                  <angle>
                    <activevideoangle>false</activevideoangle>
                    <activeaudioangle>false</activeaudioangle>
                    <clip id="clip-3"/>
                  </angle>
                  <angle>
                    <activevideoangle>false</activevideoangle>
                    <activeaudioangle>false</activeaudioangle>
                    <clip id="clip-4"/>
                  </angle>
                  <angle>
                    <activevideoangle>true</activevideoangle>
                    <activeaudioangle>true</activeaudioangle>
                    <clip id="clip-5"/>
                  </angle>
                  <angle>
                    <activevideoangle>false</activevideoangle>
                    <activeaudioangle>false</activeaudioangle>
                    <clip id="clip-6"/>
                  </angle>
                  <angle>
                    <activevideoangle>false</activevideoangle>
                    <activeaudioangle>false</activeaudioangle>
                    <clip id="clip-7"/>
                  </angle>
                  <angle>
                    <activevideoangle>false</activevideoangle>
                    <activeaudioangle>false</activeaudioangle>
                    <clip id="clip-8"/>
                  </angle>
                  <angle>
                    <activevideoangle>false</activevideoangle>
                    <activeaudioangle>false</activeaudioangle>
                    <clip id="clip-9"/>
                  </angle>
                  <masterclipid>clip-master</masterclipid>
                </multiclip>
              </clipitem>
              <clipitem id="cs-383">
                <duration>52</duration>
                <rate>
                  <ntsc>false</ntsc>
                  <timebase>25</timebase>
                </rate>
                <in>13577</in>
                <out>13628</out>
                <start>13577</start>
                <end>13628</end>
                <file id="src-4"/>
                <sourcetrack>
                  <mediatype>video</mediatype>
                  <trackindex>1</trackindex>
                </sourcetrack>
                <multiclip id="mcs-383">
                  <name>MCS-383</name>
                  <masterclipid>clip-master</masterclipid>
                  <collapsed>false</collapsed>
                  <angle>
                    <activevideoangle>false</activevideoangle>
                    <activeaudioangle>false</activeaudioangle>
                    <clip id="clip-1"/>
                  </angle>
                  <angle>
                    <activevideoangle>false</activevideoangle>
                    <activeaudioangle>false</activeaudioangle>
                    <clip id="clip-2"/>
                  </angle>
                  <angle>
                    <activevideoangle>false</activevideoangle>
                    <activeaudioangle>false</activeaudioangle>
                    <clip id="clip-3"/>
                  </angle>
                  <angle>
                    <activevideoangle>true</activevideoangle>
                    <activeaudioangle>true</activeaudioangle>
                    <clip id="clip-4"/>
                  </angle>
                  <angle>
                    <activevideoangle>false</activevideoangle>
                    <activeaudioangle>false</activeaudioangle>
                    <clip id="clip-5"/>
                  </angle>
                  <angle>
                    <activevideoangle>false</activevideoangle>
                    <activeaudioangle>false</activeaudioangle>
                    <clip id="clip-6"/>
                  </angle>
                  <angle>
                    <activevideoangle>false</activevideoangle>
                    <activeaudioangle>false</activeaudioangle>
                    <clip id="clip-7"/>
                  </angle>
                  <angle>
                    <activevideoangle>false</activevideoangle>
                    <activeaudioangle>false</activeaudioangle>
                    <clip id="clip-8"/>
                  </angle>
                  <angle>
                    <activevideoangle>false</activevideoangle>
                    <activeaudioangle>false</activeaudioangle>
                    <clip id="clip-9"/>
                  </angle>
                  <masterclipid>clip-master</masterclipid>
                </multiclip>
              </clipitem>
              <clipitem id="cs-384">
                <duration>42</duration>
                <rate>
                  <ntsc>false</ntsc>
                  <timebase>25</timebase>
                </rate>
                <in>13628</in>
                <out>13669</out>
                <start>13628</start>
                <end>13669</end>
                <file id="src-3"/>
                <sourcetrack>
                  <mediatype>video</mediatype>
                  <trackindex>1</trackindex>
                </sourcetrack>
                <multiclip id="mcs-384">
                  <name>MCS-384</name>
                  <masterclipid>clip-master</masterclipid>
                  <collapsed>false</collapsed>
                  <angle>
                    <activevideoangle>false</activevideoangle>
                    <activeaudioangle>false</activeaudioangle>
                    <clip id="clip-1"/>
                  </angle>
                  <angle>
                    <activevideoangle>false</activevideoangle>
                    <activeaudioangle>false</activeaudioangle>
                    <clip id="clip-2"/>
                  </angle>
                  <angle>
                    <activevideoangle>true</activevideoangle>
                    <activeaudioangle>true</activeaudioangle>
                    <clip id="clip-3"/>
                  </angle>
                  <angle>
                    <activevideoangle>false</activevideoangle>
                    <activeaudioangle>false</activeaudioangle>
                    <clip id="clip-4"/>
                  </angle>
                  <angle>
                    <activevideoangle>false</activevideoangle>
                    <activeaudioangle>false</activeaudioangle>
                    <clip id="clip-5"/>
                  </angle>
                  <angle>
                    <activevideoangle>false</activevideoangle>
                    <activeaudioangle>false</activeaudioangle>
                    <clip id="clip-6"/>
                  </angle>
                  <angle>
                    <activevideoangle>false</activevideoangle>
                    <activeaudioangle>false</activeaudioangle>
                    <clip id="clip-7"/>
                  </angle>
                  <angle>
                    <activevideoangle>false</activevideoangle>
                    <activeaudioangle>false</activeaudioangle>
                    <clip id="clip-8"/>
                  </angle>
                  <angle>
                    <activevideoangle>false</activevideoangle>
                    <activeaudioangle>false</activeaudioangle>
                    <clip id="clip-9"/>
                  </angle>
                  <masterclipid>clip-master</masterclipid>
                </multiclip>
              </clipitem>
              <clipitem id="cs-385">
                <duration>67</duration>
                <rate>
                  <ntsc>false</ntsc>
                  <timebase>25</timebase>
                </rate>
                <in>13669</in>
                <out>13735</out>
                <start>13669</start>
                <end>13735</end>
                <file id="src-6"/>
                <sourcetrack>
                  <mediatype>video</mediatype>
                  <trackindex>1</trackindex>
                </sourcetrack>
                <multiclip id="mcs-385">
                  <name>MCS-385</name>
                  <masterclipid>clip-master</masterclipid>
                  <collapsed>false</collapsed>
                  <angle>
                    <activevideoangle>false</activevideoangle>
                    <activeaudioangle>false</activeaudioangle>
                    <clip id="clip-1"/>
                  </angle>
                  <angle>
                    <activevideoangle>false</activevideoangle>
                    <activeaudioangle>false</activeaudioangle>
                    <clip id="clip-2"/>
                  </angle>
                  <angle>
                    <activevideoangle>false</activevideoangle>
                    <activeaudioangle>false</activeaudioangle>
                    <clip id="clip-3"/>
                  </angle>
                  <angle>
                    <activevideoangle>false</activevideoangle>
                    <activeaudioangle>false</activeaudioangle>
                    <clip id="clip-4"/>
                  </angle>
                  <angle>
                    <activevideoangle>false</activevideoangle>
                    <activeaudioangle>false</activeaudioangle>
                    <clip id="clip-5"/>
                  </angle>
                  <angle>
                    <activevideoangle>true</activevideoangle>
                    <activeaudioangle>true</activeaudioangle>
                    <clip id="clip-6"/>
                  </angle>
                  <angle>
                    <activevideoangle>false</activevideoangle>
                    <activeaudioangle>false</activeaudioangle>
                    <clip id="clip-7"/>
                  </angle>
                  <angle>
                    <activevideoangle>false</activevideoangle>
                    <activeaudioangle>false</activeaudioangle>
                    <clip id="clip-8"/>
                  </angle>
                  <angle>
                    <activevideoangle>false</activevideoangle>
                    <activeaudioangle>false</activeaudioangle>
                    <clip id="clip-9"/>
                  </angle>
                  <masterclipid>clip-master</masterclipid>
                </multiclip>
              </clipitem>
              <clipitem id="cs-386">
                <duration>90</duration>
                <rate>
                  <ntsc>false</ntsc>
                  <timebase>25</timebase>
                </rate>
                <in>13735</in>
                <out>13824</out>
                <start>13735</start>
                <end>13824</end>
                <file id="src-1"/>
                <sourcetrack>
                  <mediatype>video</mediatype>
                  <trackindex>1</trackindex>
                </sourcetrack>
                <multiclip id="mcs-386">
                  <name>MCS-386</name>
                  <masterclipid>clip-master</masterclipid>
                  <collapsed>false</collapsed>
                  <angle>
                    <activevideoangle>true</activevideoangle>
                    <activeaudioangle>true</activeaudioangle>
                    <clip id="clip-1"/>
                  </angle>
                  <angle>
                    <activevideoangle>false</activevideoangle>
                    <activeaudioangle>false</activeaudioangle>
                    <clip id="clip-2"/>
                  </angle>
                  <angle>
                    <activevideoangle>false</activevideoangle>
                    <activeaudioangle>false</activeaudioangle>
                    <clip id="clip-3"/>
                  </angle>
                  <angle>
                    <activevideoangle>false</activevideoangle>
                    <activeaudioangle>false</activeaudioangle>
                    <clip id="clip-4"/>
                  </angle>
                  <angle>
                    <activevideoangle>false</activevideoangle>
                    <activeaudioangle>false</activeaudioangle>
                    <clip id="clip-5"/>
                  </angle>
                  <angle>
                    <activevideoangle>false</activevideoangle>
                    <activeaudioangle>false</activeaudioangle>
                    <clip id="clip-6"/>
                  </angle>
                  <angle>
                    <activevideoangle>false</activevideoangle>
                    <activeaudioangle>false</activeaudioangle>
                    <clip id="clip-7"/>
                  </angle>
                  <angle>
                    <activevideoangle>false</activevideoangle>
                    <activeaudioangle>false</activeaudioangle>
                    <clip id="clip-8"/>
                  </angle>
                  <angle>
                    <activevideoangle>false</activevideoangle>
                    <activeaudioangle>false</activeaudioangle>
                    <clip id="clip-9"/>
                  </angle>
                  <masterclipid>clip-master</masterclipid>
                </multiclip>
              </clipitem>
              <clipitem id="cs-387">
                <duration>48</duration>
                <rate>
                  <ntsc>false</ntsc>
                  <timebase>25</timebase>
                </rate>
                <in>13824</in>
                <out>13871</out>
                <start>13824</start>
                <end>13871</end>
                <file id="src-3"/>
                <sourcetrack>
                  <mediatype>video</mediatype>
                  <trackindex>1</trackindex>
                </sourcetrack>
                <multiclip id="mcs-387">
                  <name>MCS-387</name>
                  <masterclipid>clip-master</masterclipid>
                  <collapsed>false</collapsed>
                  <angle>
                    <activevideoangle>false</activevideoangle>
                    <activeaudioangle>false</activeaudioangle>
                    <clip id="clip-1"/>
                  </angle>
                  <angle>
                    <activevideoangle>false</activevideoangle>
                    <activeaudioangle>false</activeaudioangle>
                    <clip id="clip-2"/>
                  </angle>
                  <angle>
                    <activevideoangle>true</activevideoangle>
                    <activeaudioangle>true</activeaudioangle>
                    <clip id="clip-3"/>
                  </angle>
                  <angle>
                    <activevideoangle>false</activevideoangle>
                    <activeaudioangle>false</activeaudioangle>
                    <clip id="clip-4"/>
                  </angle>
                  <angle>
                    <activevideoangle>false</activevideoangle>
                    <activeaudioangle>false</activeaudioangle>
                    <clip id="clip-5"/>
                  </angle>
                  <angle>
                    <activevideoangle>false</activevideoangle>
                    <activeaudioangle>false</activeaudioangle>
                    <clip id="clip-6"/>
                  </angle>
                  <angle>
                    <activevideoangle>false</activevideoangle>
                    <activeaudioangle>false</activeaudioangle>
                    <clip id="clip-7"/>
                  </angle>
                  <angle>
                    <activevideoangle>false</activevideoangle>
                    <activeaudioangle>false</activeaudioangle>
                    <clip id="clip-8"/>
                  </angle>
                  <angle>
                    <activevideoangle>false</activevideoangle>
                    <activeaudioangle>false</activeaudioangle>
                    <clip id="clip-9"/>
                  </angle>
                  <masterclipid>clip-master</masterclipid>
                </multiclip>
              </clipitem>
              <clipitem id="cs-388">
                <duration>34</duration>
                <rate>
                  <ntsc>false</ntsc>
                  <timebase>25</timebase>
                </rate>
                <in>13871</in>
                <out>13904</out>
                <start>13871</start>
                <end>13904</end>
                <file id="src-2"/>
                <sourcetrack>
                  <mediatype>video</mediatype>
                  <trackindex>1</trackindex>
                </sourcetrack>
                <multiclip id="mcs-388">
                  <name>MCS-388</name>
                  <masterclipid>clip-master</masterclipid>
                  <collapsed>false</collapsed>
                  <angle>
                    <activevideoangle>false</activevideoangle>
                    <activeaudioangle>false</activeaudioangle>
                    <clip id="clip-1"/>
                  </angle>
                  <angle>
                    <activevideoangle>true</activevideoangle>
                    <activeaudioangle>true</activeaudioangle>
                    <clip id="clip-2"/>
                  </angle>
                  <angle>
                    <activevideoangle>false</activevideoangle>
                    <activeaudioangle>false</activeaudioangle>
                    <clip id="clip-3"/>
                  </angle>
                  <angle>
                    <activevideoangle>false</activevideoangle>
                    <activeaudioangle>false</activeaudioangle>
                    <clip id="clip-4"/>
                  </angle>
                  <angle>
                    <activevideoangle>false</activevideoangle>
                    <activeaudioangle>false</activeaudioangle>
                    <clip id="clip-5"/>
                  </angle>
                  <angle>
                    <activevideoangle>false</activevideoangle>
                    <activeaudioangle>false</activeaudioangle>
                    <clip id="clip-6"/>
                  </angle>
                  <angle>
                    <activevideoangle>false</activevideoangle>
                    <activeaudioangle>false</activeaudioangle>
                    <clip id="clip-7"/>
                  </angle>
                  <angle>
                    <activevideoangle>false</activevideoangle>
                    <activeaudioangle>false</activeaudioangle>
                    <clip id="clip-8"/>
                  </angle>
                  <angle>
                    <activevideoangle>false</activevideoangle>
                    <activeaudioangle>false</activeaudioangle>
                    <clip id="clip-9"/>
                  </angle>
                  <masterclipid>clip-master</masterclipid>
                </multiclip>
              </clipitem>
              <clipitem id="cs-389">
                <duration>41</duration>
                <rate>
                  <ntsc>false</ntsc>
                  <timebase>25</timebase>
                </rate>
                <in>13904</in>
                <out>13944</out>
                <start>13904</start>
                <end>13944</end>
                <file id="src-4"/>
                <sourcetrack>
                  <mediatype>video</mediatype>
                  <trackindex>1</trackindex>
                </sourcetrack>
                <multiclip id="mcs-389">
                  <name>MCS-389</name>
                  <masterclipid>clip-master</masterclipid>
                  <collapsed>false</collapsed>
                  <angle>
                    <activevideoangle>false</activevideoangle>
                    <activeaudioangle>false</activeaudioangle>
                    <clip id="clip-1"/>
                  </angle>
                  <angle>
                    <activevideoangle>false</activevideoangle>
                    <activeaudioangle>false</activeaudioangle>
                    <clip id="clip-2"/>
                  </angle>
                  <angle>
                    <activevideoangle>false</activevideoangle>
                    <activeaudioangle>false</activeaudioangle>
                    <clip id="clip-3"/>
                  </angle>
                  <angle>
                    <activevideoangle>true</activevideoangle>
                    <activeaudioangle>true</activeaudioangle>
                    <clip id="clip-4"/>
                  </angle>
                  <angle>
                    <activevideoangle>false</activevideoangle>
                    <activeaudioangle>false</activeaudioangle>
                    <clip id="clip-5"/>
                  </angle>
                  <angle>
                    <activevideoangle>false</activevideoangle>
                    <activeaudioangle>false</activeaudioangle>
                    <clip id="clip-6"/>
                  </angle>
                  <angle>
                    <activevideoangle>false</activevideoangle>
                    <activeaudioangle>false</activeaudioangle>
                    <clip id="clip-7"/>
                  </angle>
                  <angle>
                    <activevideoangle>false</activevideoangle>
                    <activeaudioangle>false</activeaudioangle>
                    <clip id="clip-8"/>
                  </angle>
                  <angle>
                    <activevideoangle>false</activevideoangle>
                    <activeaudioangle>false</activeaudioangle>
                    <clip id="clip-9"/>
                  </angle>
                  <masterclipid>clip-master</masterclipid>
                </multiclip>
              </clipitem>
              <clipitem id="cs-390">
                <duration>55</duration>
                <rate>
                  <ntsc>false</ntsc>
                  <timebase>25</timebase>
                </rate>
                <in>13944</in>
                <out>13998</out>
                <start>13944</start>
                <end>13998</end>
                <file id="src-5"/>
                <sourcetrack>
                  <mediatype>video</mediatype>
                  <trackindex>1</trackindex>
                </sourcetrack>
                <multiclip id="mcs-390">
                  <name>MCS-390</name>
                  <masterclipid>clip-master</masterclipid>
                  <collapsed>false</collapsed>
                  <angle>
                    <activevideoangle>false</activevideoangle>
                    <activeaudioangle>false</activeaudioangle>
                    <clip id="clip-1"/>
                  </angle>
                  <angle>
                    <activevideoangle>false</activevideoangle>
                    <activeaudioangle>false</activeaudioangle>
                    <clip id="clip-2"/>
                  </angle>
                  <angle>
                    <activevideoangle>false</activevideoangle>
                    <activeaudioangle>false</activeaudioangle>
                    <clip id="clip-3"/>
                  </angle>
                  <angle>
                    <activevideoangle>false</activevideoangle>
                    <activeaudioangle>false</activeaudioangle>
                    <clip id="clip-4"/>
                  </angle>
                  <angle>
                    <activevideoangle>true</activevideoangle>
                    <activeaudioangle>true</activeaudioangle>
                    <clip id="clip-5"/>
                  </angle>
                  <angle>
                    <activevideoangle>false</activevideoangle>
                    <activeaudioangle>false</activeaudioangle>
                    <clip id="clip-6"/>
                  </angle>
                  <angle>
                    <activevideoangle>false</activevideoangle>
                    <activeaudioangle>false</activeaudioangle>
                    <clip id="clip-7"/>
                  </angle>
                  <angle>
                    <activevideoangle>false</activevideoangle>
                    <activeaudioangle>false</activeaudioangle>
                    <clip id="clip-8"/>
                  </angle>
                  <angle>
                    <activevideoangle>false</activevideoangle>
                    <activeaudioangle>false</activeaudioangle>
                    <clip id="clip-9"/>
                  </angle>
                  <masterclipid>clip-master</masterclipid>
                </multiclip>
              </clipitem>
              <clipitem id="cs-391">
                <duration>127</duration>
                <rate>
                  <ntsc>false</ntsc>
                  <timebase>25</timebase>
                </rate>
                <in>13998</in>
                <out>14124</out>
                <start>13998</start>
                <end>14124</end>
                <file id="src-3"/>
                <sourcetrack>
                  <mediatype>video</mediatype>
                  <trackindex>1</trackindex>
                </sourcetrack>
                <multiclip id="mcs-391">
                  <name>MCS-391</name>
                  <masterclipid>clip-master</masterclipid>
                  <collapsed>false</collapsed>
                  <angle>
                    <activevideoangle>false</activevideoangle>
                    <activeaudioangle>false</activeaudioangle>
                    <clip id="clip-1"/>
                  </angle>
                  <angle>
                    <activevideoangle>false</activevideoangle>
                    <activeaudioangle>false</activeaudioangle>
                    <clip id="clip-2"/>
                  </angle>
                  <angle>
                    <activevideoangle>true</activevideoangle>
                    <activeaudioangle>true</activeaudioangle>
                    <clip id="clip-3"/>
                  </angle>
                  <angle>
                    <activevideoangle>false</activevideoangle>
                    <activeaudioangle>false</activeaudioangle>
                    <clip id="clip-4"/>
                  </angle>
                  <angle>
                    <activevideoangle>false</activevideoangle>
                    <activeaudioangle>false</activeaudioangle>
                    <clip id="clip-5"/>
                  </angle>
                  <angle>
                    <activevideoangle>false</activevideoangle>
                    <activeaudioangle>false</activeaudioangle>
                    <clip id="clip-6"/>
                  </angle>
                  <angle>
                    <activevideoangle>false</activevideoangle>
                    <activeaudioangle>false</activeaudioangle>
                    <clip id="clip-7"/>
                  </angle>
                  <angle>
                    <activevideoangle>false</activevideoangle>
                    <activeaudioangle>false</activeaudioangle>
                    <clip id="clip-8"/>
                  </angle>
                  <angle>
                    <activevideoangle>false</activevideoangle>
                    <activeaudioangle>false</activeaudioangle>
                    <clip id="clip-9"/>
                  </angle>
                  <masterclipid>clip-master</masterclipid>
                </multiclip>
              </clipitem>
              <clipitem id="cs-392">
                <duration>99</duration>
                <rate>
                  <ntsc>false</ntsc>
                  <timebase>25</timebase>
                </rate>
                <in>14124</in>
                <out>14222</out>
                <start>14124</start>
                <end>14222</end>
                <file id="src-4"/>
                <sourcetrack>
                  <mediatype>video</mediatype>
                  <trackindex>1</trackindex>
                </sourcetrack>
                <multiclip id="mcs-392">
                  <name>MCS-392</name>
                  <masterclipid>clip-master</masterclipid>
                  <collapsed>false</collapsed>
                  <angle>
                    <activevideoangle>false</activevideoangle>
                    <activeaudioangle>false</activeaudioangle>
                    <clip id="clip-1"/>
                  </angle>
                  <angle>
                    <activevideoangle>false</activevideoangle>
                    <activeaudioangle>false</activeaudioangle>
                    <clip id="clip-2"/>
                  </angle>
                  <angle>
                    <activevideoangle>false</activevideoangle>
                    <activeaudioangle>false</activeaudioangle>
                    <clip id="clip-3"/>
                  </angle>
                  <angle>
                    <activevideoangle>true</activevideoangle>
                    <activeaudioangle>true</activeaudioangle>
                    <clip id="clip-4"/>
                  </angle>
                  <angle>
                    <activevideoangle>false</activevideoangle>
                    <activeaudioangle>false</activeaudioangle>
                    <clip id="clip-5"/>
                  </angle>
                  <angle>
                    <activevideoangle>false</activevideoangle>
                    <activeaudioangle>false</activeaudioangle>
                    <clip id="clip-6"/>
                  </angle>
                  <angle>
                    <activevideoangle>false</activevideoangle>
                    <activeaudioangle>false</activeaudioangle>
                    <clip id="clip-7"/>
                  </angle>
                  <angle>
                    <activevideoangle>false</activevideoangle>
                    <activeaudioangle>false</activeaudioangle>
                    <clip id="clip-8"/>
                  </angle>
                  <angle>
                    <activevideoangle>false</activevideoangle>
                    <activeaudioangle>false</activeaudioangle>
                    <clip id="clip-9"/>
                  </angle>
                  <masterclipid>clip-master</masterclipid>
                </multiclip>
              </clipitem>
              <clipitem id="cs-393">
                <duration>51</duration>
                <rate>
                  <ntsc>false</ntsc>
                  <timebase>25</timebase>
                </rate>
                <in>14222</in>
                <out>14272</out>
                <start>14222</start>
                <end>14272</end>
                <file id="src-6"/>
                <sourcetrack>
                  <mediatype>video</mediatype>
                  <trackindex>1</trackindex>
                </sourcetrack>
                <multiclip id="mcs-393">
                  <name>MCS-393</name>
                  <masterclipid>clip-master</masterclipid>
                  <collapsed>false</collapsed>
                  <angle>
                    <activevideoangle>false</activevideoangle>
                    <activeaudioangle>false</activeaudioangle>
                    <clip id="clip-1"/>
                  </angle>
                  <angle>
                    <activevideoangle>false</activevideoangle>
                    <activeaudioangle>false</activeaudioangle>
                    <clip id="clip-2"/>
                  </angle>
                  <angle>
                    <activevideoangle>false</activevideoangle>
                    <activeaudioangle>false</activeaudioangle>
                    <clip id="clip-3"/>
                  </angle>
                  <angle>
                    <activevideoangle>false</activevideoangle>
                    <activeaudioangle>false</activeaudioangle>
                    <clip id="clip-4"/>
                  </angle>
                  <angle>
                    <activevideoangle>false</activevideoangle>
                    <activeaudioangle>false</activeaudioangle>
                    <clip id="clip-5"/>
                  </angle>
                  <angle>
                    <activevideoangle>true</activevideoangle>
                    <activeaudioangle>true</activeaudioangle>
                    <clip id="clip-6"/>
                  </angle>
                  <angle>
                    <activevideoangle>false</activevideoangle>
                    <activeaudioangle>false</activeaudioangle>
                    <clip id="clip-7"/>
                  </angle>
                  <angle>
                    <activevideoangle>false</activevideoangle>
                    <activeaudioangle>false</activeaudioangle>
                    <clip id="clip-8"/>
                  </angle>
                  <angle>
                    <activevideoangle>false</activevideoangle>
                    <activeaudioangle>false</activeaudioangle>
                    <clip id="clip-9"/>
                  </angle>
                  <masterclipid>clip-master</masterclipid>
                </multiclip>
              </clipitem>
              <clipitem id="cs-394">
                <duration>48</duration>
                <rate>
                  <ntsc>false</ntsc>
                  <timebase>25</timebase>
                </rate>
                <in>14272</in>
                <out>14319</out>
                <start>14272</start>
                <end>14319</end>
                <file id="src-3"/>
                <sourcetrack>
                  <mediatype>video</mediatype>
                  <trackindex>1</trackindex>
                </sourcetrack>
                <multiclip id="mcs-394">
                  <name>MCS-394</name>
                  <masterclipid>clip-master</masterclipid>
                  <collapsed>false</collapsed>
                  <angle>
                    <activevideoangle>false</activevideoangle>
                    <activeaudioangle>false</activeaudioangle>
                    <clip id="clip-1"/>
                  </angle>
                  <angle>
                    <activevideoangle>false</activevideoangle>
                    <activeaudioangle>false</activeaudioangle>
                    <clip id="clip-2"/>
                  </angle>
                  <angle>
                    <activevideoangle>true</activevideoangle>
                    <activeaudioangle>true</activeaudioangle>
                    <clip id="clip-3"/>
                  </angle>
                  <angle>
                    <activevideoangle>false</activevideoangle>
                    <activeaudioangle>false</activeaudioangle>
                    <clip id="clip-4"/>
                  </angle>
                  <angle>
                    <activevideoangle>false</activevideoangle>
                    <activeaudioangle>false</activeaudioangle>
                    <clip id="clip-5"/>
                  </angle>
                  <angle>
                    <activevideoangle>false</activevideoangle>
                    <activeaudioangle>false</activeaudioangle>
                    <clip id="clip-6"/>
                  </angle>
                  <angle>
                    <activevideoangle>false</activevideoangle>
                    <activeaudioangle>false</activeaudioangle>
                    <clip id="clip-7"/>
                  </angle>
                  <angle>
                    <activevideoangle>false</activevideoangle>
                    <activeaudioangle>false</activeaudioangle>
                    <clip id="clip-8"/>
                  </angle>
                  <angle>
                    <activevideoangle>false</activevideoangle>
                    <activeaudioangle>false</activeaudioangle>
                    <clip id="clip-9"/>
                  </angle>
                  <masterclipid>clip-master</masterclipid>
                </multiclip>
              </clipitem>
              <clipitem id="cs-395">
                <duration>95</duration>
                <rate>
                  <ntsc>false</ntsc>
                  <timebase>25</timebase>
                </rate>
                <in>14319</in>
                <out>14413</out>
                <start>14319</start>
                <end>14413</end>
                <file id="src-2"/>
                <sourcetrack>
                  <mediatype>video</mediatype>
                  <trackindex>1</trackindex>
                </sourcetrack>
                <multiclip id="mcs-395">
                  <name>MCS-395</name>
                  <masterclipid>clip-master</masterclipid>
                  <collapsed>false</collapsed>
                  <angle>
                    <activevideoangle>false</activevideoangle>
                    <activeaudioangle>false</activeaudioangle>
                    <clip id="clip-1"/>
                  </angle>
                  <angle>
                    <activevideoangle>true</activevideoangle>
                    <activeaudioangle>true</activeaudioangle>
                    <clip id="clip-2"/>
                  </angle>
                  <angle>
                    <activevideoangle>false</activevideoangle>
                    <activeaudioangle>false</activeaudioangle>
                    <clip id="clip-3"/>
                  </angle>
                  <angle>
                    <activevideoangle>false</activevideoangle>
                    <activeaudioangle>false</activeaudioangle>
                    <clip id="clip-4"/>
                  </angle>
                  <angle>
                    <activevideoangle>false</activevideoangle>
                    <activeaudioangle>false</activeaudioangle>
                    <clip id="clip-5"/>
                  </angle>
                  <angle>
                    <activevideoangle>false</activevideoangle>
                    <activeaudioangle>false</activeaudioangle>
                    <clip id="clip-6"/>
                  </angle>
                  <angle>
                    <activevideoangle>false</activevideoangle>
                    <activeaudioangle>false</activeaudioangle>
                    <clip id="clip-7"/>
                  </angle>
                  <angle>
                    <activevideoangle>false</activevideoangle>
                    <activeaudioangle>false</activeaudioangle>
                    <clip id="clip-8"/>
                  </angle>
                  <angle>
                    <activevideoangle>false</activevideoangle>
                    <activeaudioangle>false</activeaudioangle>
                    <clip id="clip-9"/>
                  </angle>
                  <masterclipid>clip-master</masterclipid>
                </multiclip>
              </clipitem>
              <clipitem id="cs-396">
                <duration>111</duration>
                <rate>
                  <ntsc>false</ntsc>
                  <timebase>25</timebase>
                </rate>
                <in>14413</in>
                <out>14523</out>
                <start>14413</start>
                <end>14523</end>
                <file id="src-4"/>
                <sourcetrack>
                  <mediatype>video</mediatype>
                  <trackindex>1</trackindex>
                </sourcetrack>
                <multiclip id="mcs-396">
                  <name>MCS-396</name>
                  <masterclipid>clip-master</masterclipid>
                  <collapsed>false</collapsed>
                  <angle>
                    <activevideoangle>false</activevideoangle>
                    <activeaudioangle>false</activeaudioangle>
                    <clip id="clip-1"/>
                  </angle>
                  <angle>
                    <activevideoangle>false</activevideoangle>
                    <activeaudioangle>false</activeaudioangle>
                    <clip id="clip-2"/>
                  </angle>
                  <angle>
                    <activevideoangle>false</activevideoangle>
                    <activeaudioangle>false</activeaudioangle>
                    <clip id="clip-3"/>
                  </angle>
                  <angle>
                    <activevideoangle>true</activevideoangle>
                    <activeaudioangle>true</activeaudioangle>
                    <clip id="clip-4"/>
                  </angle>
                  <angle>
                    <activevideoangle>false</activevideoangle>
                    <activeaudioangle>false</activeaudioangle>
                    <clip id="clip-5"/>
                  </angle>
                  <angle>
                    <activevideoangle>false</activevideoangle>
                    <activeaudioangle>false</activeaudioangle>
                    <clip id="clip-6"/>
                  </angle>
                  <angle>
                    <activevideoangle>false</activevideoangle>
                    <activeaudioangle>false</activeaudioangle>
                    <clip id="clip-7"/>
                  </angle>
                  <angle>
                    <activevideoangle>false</activevideoangle>
                    <activeaudioangle>false</activeaudioangle>
                    <clip id="clip-8"/>
                  </angle>
                  <angle>
                    <activevideoangle>false</activevideoangle>
                    <activeaudioangle>false</activeaudioangle>
                    <clip id="clip-9"/>
                  </angle>
                  <masterclipid>clip-master</masterclipid>
                </multiclip>
              </clipitem>
              <clipitem id="cs-397">
                <duration>94</duration>
                <rate>
                  <ntsc>false</ntsc>
                  <timebase>25</timebase>
                </rate>
                <in>14523</in>
                <out>14616</out>
                <start>14523</start>
                <end>14616</end>
                <file id="src-2"/>
                <sourcetrack>
                  <mediatype>video</mediatype>
                  <trackindex>1</trackindex>
                </sourcetrack>
                <multiclip id="mcs-397">
                  <name>MCS-397</name>
                  <masterclipid>clip-master</masterclipid>
                  <collapsed>false</collapsed>
                  <angle>
                    <activevideoangle>false</activevideoangle>
                    <activeaudioangle>false</activeaudioangle>
                    <clip id="clip-1"/>
                  </angle>
                  <angle>
                    <activevideoangle>true</activevideoangle>
                    <activeaudioangle>true</activeaudioangle>
                    <clip id="clip-2"/>
                  </angle>
                  <angle>
                    <activevideoangle>false</activevideoangle>
                    <activeaudioangle>false</activeaudioangle>
                    <clip id="clip-3"/>
                  </angle>
                  <angle>
                    <activevideoangle>false</activevideoangle>
                    <activeaudioangle>false</activeaudioangle>
                    <clip id="clip-4"/>
                  </angle>
                  <angle>
                    <activevideoangle>false</activevideoangle>
                    <activeaudioangle>false</activeaudioangle>
                    <clip id="clip-5"/>
                  </angle>
                  <angle>
                    <activevideoangle>false</activevideoangle>
                    <activeaudioangle>false</activeaudioangle>
                    <clip id="clip-6"/>
                  </angle>
                  <angle>
                    <activevideoangle>false</activevideoangle>
                    <activeaudioangle>false</activeaudioangle>
                    <clip id="clip-7"/>
                  </angle>
                  <angle>
                    <activevideoangle>false</activevideoangle>
                    <activeaudioangle>false</activeaudioangle>
                    <clip id="clip-8"/>
                  </angle>
                  <angle>
                    <activevideoangle>false</activevideoangle>
                    <activeaudioangle>false</activeaudioangle>
                    <clip id="clip-9"/>
                  </angle>
                  <masterclipid>clip-master</masterclipid>
                </multiclip>
              </clipitem>
              <clipitem id="cs-398">
                <duration>88</duration>
                <rate>
                  <ntsc>false</ntsc>
                  <timebase>25</timebase>
                </rate>
                <in>14616</in>
                <out>14703</out>
                <start>14616</start>
                <end>14703</end>
                <file id="src-3"/>
                <sourcetrack>
                  <mediatype>video</mediatype>
                  <trackindex>1</trackindex>
                </sourcetrack>
                <multiclip id="mcs-398">
                  <name>MCS-398</name>
                  <masterclipid>clip-master</masterclipid>
                  <collapsed>false</collapsed>
                  <angle>
                    <activevideoangle>false</activevideoangle>
                    <activeaudioangle>false</activeaudioangle>
                    <clip id="clip-1"/>
                  </angle>
                  <angle>
                    <activevideoangle>false</activevideoangle>
                    <activeaudioangle>false</activeaudioangle>
                    <clip id="clip-2"/>
                  </angle>
                  <angle>
                    <activevideoangle>true</activevideoangle>
                    <activeaudioangle>true</activeaudioangle>
                    <clip id="clip-3"/>
                  </angle>
                  <angle>
                    <activevideoangle>false</activevideoangle>
                    <activeaudioangle>false</activeaudioangle>
                    <clip id="clip-4"/>
                  </angle>
                  <angle>
                    <activevideoangle>false</activevideoangle>
                    <activeaudioangle>false</activeaudioangle>
                    <clip id="clip-5"/>
                  </angle>
                  <angle>
                    <activevideoangle>false</activevideoangle>
                    <activeaudioangle>false</activeaudioangle>
                    <clip id="clip-6"/>
                  </angle>
                  <angle>
                    <activevideoangle>false</activevideoangle>
                    <activeaudioangle>false</activeaudioangle>
                    <clip id="clip-7"/>
                  </angle>
                  <angle>
                    <activevideoangle>false</activevideoangle>
                    <activeaudioangle>false</activeaudioangle>
                    <clip id="clip-8"/>
                  </angle>
                  <angle>
                    <activevideoangle>false</activevideoangle>
                    <activeaudioangle>false</activeaudioangle>
                    <clip id="clip-9"/>
                  </angle>
                  <masterclipid>clip-master</masterclipid>
                </multiclip>
              </clipitem>
              <clipitem id="cs-399">
                <duration>50</duration>
                <rate>
                  <ntsc>false</ntsc>
                  <timebase>25</timebase>
                </rate>
                <in>14703</in>
                <out>14752</out>
                <start>14703</start>
                <end>14752</end>
                <file id="src-5"/>
                <sourcetrack>
                  <mediatype>video</mediatype>
                  <trackindex>1</trackindex>
                </sourcetrack>
                <multiclip id="mcs-399">
                  <name>MCS-399</name>
                  <masterclipid>clip-master</masterclipid>
                  <collapsed>false</collapsed>
                  <angle>
                    <activevideoangle>false</activevideoangle>
                    <activeaudioangle>false</activeaudioangle>
                    <clip id="clip-1"/>
                  </angle>
                  <angle>
                    <activevideoangle>false</activevideoangle>
                    <activeaudioangle>false</activeaudioangle>
                    <clip id="clip-2"/>
                  </angle>
                  <angle>
                    <activevideoangle>false</activevideoangle>
                    <activeaudioangle>false</activeaudioangle>
                    <clip id="clip-3"/>
                  </angle>
                  <angle>
                    <activevideoangle>false</activevideoangle>
                    <activeaudioangle>false</activeaudioangle>
                    <clip id="clip-4"/>
                  </angle>
                  <angle>
                    <activevideoangle>true</activevideoangle>
                    <activeaudioangle>true</activeaudioangle>
                    <clip id="clip-5"/>
                  </angle>
                  <angle>
                    <activevideoangle>false</activevideoangle>
                    <activeaudioangle>false</activeaudioangle>
                    <clip id="clip-6"/>
                  </angle>
                  <angle>
                    <activevideoangle>false</activevideoangle>
                    <activeaudioangle>false</activeaudioangle>
                    <clip id="clip-7"/>
                  </angle>
                  <angle>
                    <activevideoangle>false</activevideoangle>
                    <activeaudioangle>false</activeaudioangle>
                    <clip id="clip-8"/>
                  </angle>
                  <angle>
                    <activevideoangle>false</activevideoangle>
                    <activeaudioangle>false</activeaudioangle>
                    <clip id="clip-9"/>
                  </angle>
                  <masterclipid>clip-master</masterclipid>
                </multiclip>
              </clipitem>
              <clipitem id="cs-400">
                <duration>45</duration>
                <rate>
                  <ntsc>false</ntsc>
                  <timebase>25</timebase>
                </rate>
                <in>14752</in>
                <out>14796</out>
                <start>14752</start>
                <end>14796</end>
                <file id="src-4"/>
                <sourcetrack>
                  <mediatype>video</mediatype>
                  <trackindex>1</trackindex>
                </sourcetrack>
                <multiclip id="mcs-400">
                  <name>MCS-400</name>
                  <masterclipid>clip-master</masterclipid>
                  <collapsed>false</collapsed>
                  <angle>
                    <activevideoangle>false</activevideoangle>
                    <activeaudioangle>false</activeaudioangle>
                    <clip id="clip-1"/>
                  </angle>
                  <angle>
                    <activevideoangle>false</activevideoangle>
                    <activeaudioangle>false</activeaudioangle>
                    <clip id="clip-2"/>
                  </angle>
                  <angle>
                    <activevideoangle>false</activevideoangle>
                    <activeaudioangle>false</activeaudioangle>
                    <clip id="clip-3"/>
                  </angle>
                  <angle>
                    <activevideoangle>true</activevideoangle>
                    <activeaudioangle>true</activeaudioangle>
                    <clip id="clip-4"/>
                  </angle>
                  <angle>
                    <activevideoangle>false</activevideoangle>
                    <activeaudioangle>false</activeaudioangle>
                    <clip id="clip-5"/>
                  </angle>
                  <angle>
                    <activevideoangle>false</activevideoangle>
                    <activeaudioangle>false</activeaudioangle>
                    <clip id="clip-6"/>
                  </angle>
                  <angle>
                    <activevideoangle>false</activevideoangle>
                    <activeaudioangle>false</activeaudioangle>
                    <clip id="clip-7"/>
                  </angle>
                  <angle>
                    <activevideoangle>false</activevideoangle>
                    <activeaudioangle>false</activeaudioangle>
                    <clip id="clip-8"/>
                  </angle>
                  <angle>
                    <activevideoangle>false</activevideoangle>
                    <activeaudioangle>false</activeaudioangle>
                    <clip id="clip-9"/>
                  </angle>
                  <masterclipid>clip-master</masterclipid>
                </multiclip>
              </clipitem>
              <clipitem id="cs-401">
                <duration>74</duration>
                <rate>
                  <ntsc>false</ntsc>
                  <timebase>25</timebase>
                </rate>
                <in>14796</in>
                <out>14869</out>
                <start>14796</start>
                <end>14869</end>
                <file id="src-3"/>
                <sourcetrack>
                  <mediatype>video</mediatype>
                  <trackindex>1</trackindex>
                </sourcetrack>
                <multiclip id="mcs-401">
                  <name>MCS-401</name>
                  <masterclipid>clip-master</masterclipid>
                  <collapsed>false</collapsed>
                  <angle>
                    <activevideoangle>false</activevideoangle>
                    <activeaudioangle>false</activeaudioangle>
                    <clip id="clip-1"/>
                  </angle>
                  <angle>
                    <activevideoangle>false</activevideoangle>
                    <activeaudioangle>false</activeaudioangle>
                    <clip id="clip-2"/>
                  </angle>
                  <angle>
                    <activevideoangle>true</activevideoangle>
                    <activeaudioangle>true</activeaudioangle>
                    <clip id="clip-3"/>
                  </angle>
                  <angle>
                    <activevideoangle>false</activevideoangle>
                    <activeaudioangle>false</activeaudioangle>
                    <clip id="clip-4"/>
                  </angle>
                  <angle>
                    <activevideoangle>false</activevideoangle>
                    <activeaudioangle>false</activeaudioangle>
                    <clip id="clip-5"/>
                  </angle>
                  <angle>
                    <activevideoangle>false</activevideoangle>
                    <activeaudioangle>false</activeaudioangle>
                    <clip id="clip-6"/>
                  </angle>
                  <angle>
                    <activevideoangle>false</activevideoangle>
                    <activeaudioangle>false</activeaudioangle>
                    <clip id="clip-7"/>
                  </angle>
                  <angle>
                    <activevideoangle>false</activevideoangle>
                    <activeaudioangle>false</activeaudioangle>
                    <clip id="clip-8"/>
                  </angle>
                  <angle>
                    <activevideoangle>false</activevideoangle>
                    <activeaudioangle>false</activeaudioangle>
                    <clip id="clip-9"/>
                  </angle>
                  <masterclipid>clip-master</masterclipid>
                </multiclip>
              </clipitem>
              <clipitem id="cs-402">
                <duration>64</duration>
                <rate>
                  <ntsc>false</ntsc>
                  <timebase>25</timebase>
                </rate>
                <in>14869</in>
                <out>14932</out>
                <start>14869</start>
                <end>14932</end>
                <file id="src-6"/>
                <sourcetrack>
                  <mediatype>video</mediatype>
                  <trackindex>1</trackindex>
                </sourcetrack>
                <multiclip id="mcs-402">
                  <name>MCS-402</name>
                  <masterclipid>clip-master</masterclipid>
                  <collapsed>false</collapsed>
                  <angle>
                    <activevideoangle>false</activevideoangle>
                    <activeaudioangle>false</activeaudioangle>
                    <clip id="clip-1"/>
                  </angle>
                  <angle>
                    <activevideoangle>false</activevideoangle>
                    <activeaudioangle>false</activeaudioangle>
                    <clip id="clip-2"/>
                  </angle>
                  <angle>
                    <activevideoangle>false</activevideoangle>
                    <activeaudioangle>false</activeaudioangle>
                    <clip id="clip-3"/>
                  </angle>
                  <angle>
                    <activevideoangle>false</activevideoangle>
                    <activeaudioangle>false</activeaudioangle>
                    <clip id="clip-4"/>
                  </angle>
                  <angle>
                    <activevideoangle>false</activevideoangle>
                    <activeaudioangle>false</activeaudioangle>
                    <clip id="clip-5"/>
                  </angle>
                  <angle>
                    <activevideoangle>true</activevideoangle>
                    <activeaudioangle>true</activeaudioangle>
                    <clip id="clip-6"/>
                  </angle>
                  <angle>
                    <activevideoangle>false</activevideoangle>
                    <activeaudioangle>false</activeaudioangle>
                    <clip id="clip-7"/>
                  </angle>
                  <angle>
                    <activevideoangle>false</activevideoangle>
                    <activeaudioangle>false</activeaudioangle>
                    <clip id="clip-8"/>
                  </angle>
                  <angle>
                    <activevideoangle>false</activevideoangle>
                    <activeaudioangle>false</activeaudioangle>
                    <clip id="clip-9"/>
                  </angle>
                  <masterclipid>clip-master</masterclipid>
                </multiclip>
              </clipitem>
              <clipitem id="cs-403">
                <duration>40</duration>
                <rate>
                  <ntsc>false</ntsc>
                  <timebase>25</timebase>
                </rate>
                <in>14932</in>
                <out>14971</out>
                <start>14932</start>
                <end>14971</end>
                <file id="src-4"/>
                <sourcetrack>
                  <mediatype>video</mediatype>
                  <trackindex>1</trackindex>
                </sourcetrack>
                <multiclip id="mcs-403">
                  <name>MCS-403</name>
                  <masterclipid>clip-master</masterclipid>
                  <collapsed>false</collapsed>
                  <angle>
                    <activevideoangle>false</activevideoangle>
                    <activeaudioangle>false</activeaudioangle>
                    <clip id="clip-1"/>
                  </angle>
                  <angle>
                    <activevideoangle>false</activevideoangle>
                    <activeaudioangle>false</activeaudioangle>
                    <clip id="clip-2"/>
                  </angle>
                  <angle>
                    <activevideoangle>false</activevideoangle>
                    <activeaudioangle>false</activeaudioangle>
                    <clip id="clip-3"/>
                  </angle>
                  <angle>
                    <activevideoangle>true</activevideoangle>
                    <activeaudioangle>true</activeaudioangle>
                    <clip id="clip-4"/>
                  </angle>
                  <angle>
                    <activevideoangle>false</activevideoangle>
                    <activeaudioangle>false</activeaudioangle>
                    <clip id="clip-5"/>
                  </angle>
                  <angle>
                    <activevideoangle>false</activevideoangle>
                    <activeaudioangle>false</activeaudioangle>
                    <clip id="clip-6"/>
                  </angle>
                  <angle>
                    <activevideoangle>false</activevideoangle>
                    <activeaudioangle>false</activeaudioangle>
                    <clip id="clip-7"/>
                  </angle>
                  <angle>
                    <activevideoangle>false</activevideoangle>
                    <activeaudioangle>false</activeaudioangle>
                    <clip id="clip-8"/>
                  </angle>
                  <angle>
                    <activevideoangle>false</activevideoangle>
                    <activeaudioangle>false</activeaudioangle>
                    <clip id="clip-9"/>
                  </angle>
                  <masterclipid>clip-master</masterclipid>
                </multiclip>
              </clipitem>
              <clipitem id="cs-404">
                <duration>77</duration>
                <rate>
                  <ntsc>false</ntsc>
                  <timebase>25</timebase>
                </rate>
                <in>14971</in>
                <out>15047</out>
                <start>14971</start>
                <end>15047</end>
                <file id="src-1"/>
                <sourcetrack>
                  <mediatype>video</mediatype>
                  <trackindex>1</trackindex>
                </sourcetrack>
                <multiclip id="mcs-404">
                  <name>MCS-404</name>
                  <masterclipid>clip-master</masterclipid>
                  <collapsed>false</collapsed>
                  <angle>
                    <activevideoangle>true</activevideoangle>
                    <activeaudioangle>true</activeaudioangle>
                    <clip id="clip-1"/>
                  </angle>
                  <angle>
                    <activevideoangle>false</activevideoangle>
                    <activeaudioangle>false</activeaudioangle>
                    <clip id="clip-2"/>
                  </angle>
                  <angle>
                    <activevideoangle>false</activevideoangle>
                    <activeaudioangle>false</activeaudioangle>
                    <clip id="clip-3"/>
                  </angle>
                  <angle>
                    <activevideoangle>false</activevideoangle>
                    <activeaudioangle>false</activeaudioangle>
                    <clip id="clip-4"/>
                  </angle>
                  <angle>
                    <activevideoangle>false</activevideoangle>
                    <activeaudioangle>false</activeaudioangle>
                    <clip id="clip-5"/>
                  </angle>
                  <angle>
                    <activevideoangle>false</activevideoangle>
                    <activeaudioangle>false</activeaudioangle>
                    <clip id="clip-6"/>
                  </angle>
                  <angle>
                    <activevideoangle>false</activevideoangle>
                    <activeaudioangle>false</activeaudioangle>
                    <clip id="clip-7"/>
                  </angle>
                  <angle>
                    <activevideoangle>false</activevideoangle>
                    <activeaudioangle>false</activeaudioangle>
                    <clip id="clip-8"/>
                  </angle>
                  <angle>
                    <activevideoangle>false</activevideoangle>
                    <activeaudioangle>false</activeaudioangle>
                    <clip id="clip-9"/>
                  </angle>
                  <masterclipid>clip-master</masterclipid>
                </multiclip>
              </clipitem>
              <clipitem id="cs-405">
                <duration>49</duration>
                <rate>
                  <ntsc>false</ntsc>
                  <timebase>25</timebase>
                </rate>
                <in>15047</in>
                <out>15095</out>
                <start>15047</start>
                <end>15095</end>
                <file id="src-4"/>
                <sourcetrack>
                  <mediatype>video</mediatype>
                  <trackindex>1</trackindex>
                </sourcetrack>
                <multiclip id="mcs-405">
                  <name>MCS-405</name>
                  <masterclipid>clip-master</masterclipid>
                  <collapsed>false</collapsed>
                  <angle>
                    <activevideoangle>false</activevideoangle>
                    <activeaudioangle>false</activeaudioangle>
                    <clip id="clip-1"/>
                  </angle>
                  <angle>
                    <activevideoangle>false</activevideoangle>
                    <activeaudioangle>false</activeaudioangle>
                    <clip id="clip-2"/>
                  </angle>
                  <angle>
                    <activevideoangle>false</activevideoangle>
                    <activeaudioangle>false</activeaudioangle>
                    <clip id="clip-3"/>
                  </angle>
                  <angle>
                    <activevideoangle>true</activevideoangle>
                    <activeaudioangle>true</activeaudioangle>
                    <clip id="clip-4"/>
                  </angle>
                  <angle>
                    <activevideoangle>false</activevideoangle>
                    <activeaudioangle>false</activeaudioangle>
                    <clip id="clip-5"/>
                  </angle>
                  <angle>
                    <activevideoangle>false</activevideoangle>
                    <activeaudioangle>false</activeaudioangle>
                    <clip id="clip-6"/>
                  </angle>
                  <angle>
                    <activevideoangle>false</activevideoangle>
                    <activeaudioangle>false</activeaudioangle>
                    <clip id="clip-7"/>
                  </angle>
                  <angle>
                    <activevideoangle>false</activevideoangle>
                    <activeaudioangle>false</activeaudioangle>
                    <clip id="clip-8"/>
                  </angle>
                  <angle>
                    <activevideoangle>false</activevideoangle>
                    <activeaudioangle>false</activeaudioangle>
                    <clip id="clip-9"/>
                  </angle>
                  <masterclipid>clip-master</masterclipid>
                </multiclip>
              </clipitem>
              <clipitem id="cs-406">
                <duration>82</duration>
                <rate>
                  <ntsc>false</ntsc>
                  <timebase>25</timebase>
                </rate>
                <in>15095</in>
                <out>15176</out>
                <start>15095</start>
                <end>15176</end>
                <file id="src-2"/>
                <sourcetrack>
                  <mediatype>video</mediatype>
                  <trackindex>1</trackindex>
                </sourcetrack>
                <multiclip id="mcs-406">
                  <name>MCS-406</name>
                  <masterclipid>clip-master</masterclipid>
                  <collapsed>false</collapsed>
                  <angle>
                    <activevideoangle>false</activevideoangle>
                    <activeaudioangle>false</activeaudioangle>
                    <clip id="clip-1"/>
                  </angle>
                  <angle>
                    <activevideoangle>true</activevideoangle>
                    <activeaudioangle>true</activeaudioangle>
                    <clip id="clip-2"/>
                  </angle>
                  <angle>
                    <activevideoangle>false</activevideoangle>
                    <activeaudioangle>false</activeaudioangle>
                    <clip id="clip-3"/>
                  </angle>
                  <angle>
                    <activevideoangle>false</activevideoangle>
                    <activeaudioangle>false</activeaudioangle>
                    <clip id="clip-4"/>
                  </angle>
                  <angle>
                    <activevideoangle>false</activevideoangle>
                    <activeaudioangle>false</activeaudioangle>
                    <clip id="clip-5"/>
                  </angle>
                  <angle>
                    <activevideoangle>false</activevideoangle>
                    <activeaudioangle>false</activeaudioangle>
                    <clip id="clip-6"/>
                  </angle>
                  <angle>
                    <activevideoangle>false</activevideoangle>
                    <activeaudioangle>false</activeaudioangle>
                    <clip id="clip-7"/>
                  </angle>
                  <angle>
                    <activevideoangle>false</activevideoangle>
                    <activeaudioangle>false</activeaudioangle>
                    <clip id="clip-8"/>
                  </angle>
                  <angle>
                    <activevideoangle>false</activevideoangle>
                    <activeaudioangle>false</activeaudioangle>
                    <clip id="clip-9"/>
                  </angle>
                  <masterclipid>clip-master</masterclipid>
                </multiclip>
              </clipitem>
              <clipitem id="cs-407">
                <duration>198</duration>
                <rate>
                  <ntsc>false</ntsc>
                  <timebase>25</timebase>
                </rate>
                <in>15176</in>
                <out>15373</out>
                <start>15176</start>
                <end>15373</end>
                <file id="src-3"/>
                <sourcetrack>
                  <mediatype>video</mediatype>
                  <trackindex>1</trackindex>
                </sourcetrack>
                <multiclip id="mcs-407">
                  <name>MCS-407</name>
                  <masterclipid>clip-master</masterclipid>
                  <collapsed>false</collapsed>
                  <angle>
                    <activevideoangle>false</activevideoangle>
                    <activeaudioangle>false</activeaudioangle>
                    <clip id="clip-1"/>
                  </angle>
                  <angle>
                    <activevideoangle>false</activevideoangle>
                    <activeaudioangle>false</activeaudioangle>
                    <clip id="clip-2"/>
                  </angle>
                  <angle>
                    <activevideoangle>true</activevideoangle>
                    <activeaudioangle>true</activeaudioangle>
                    <clip id="clip-3"/>
                  </angle>
                  <angle>
                    <activevideoangle>false</activevideoangle>
                    <activeaudioangle>false</activeaudioangle>
                    <clip id="clip-4"/>
                  </angle>
                  <angle>
                    <activevideoangle>false</activevideoangle>
                    <activeaudioangle>false</activeaudioangle>
                    <clip id="clip-5"/>
                  </angle>
                  <angle>
                    <activevideoangle>false</activevideoangle>
                    <activeaudioangle>false</activeaudioangle>
                    <clip id="clip-6"/>
                  </angle>
                  <angle>
                    <activevideoangle>false</activevideoangle>
                    <activeaudioangle>false</activeaudioangle>
                    <clip id="clip-7"/>
                  </angle>
                  <angle>
                    <activevideoangle>false</activevideoangle>
                    <activeaudioangle>false</activeaudioangle>
                    <clip id="clip-8"/>
                  </angle>
                  <angle>
                    <activevideoangle>false</activevideoangle>
                    <activeaudioangle>false</activeaudioangle>
                    <clip id="clip-9"/>
                  </angle>
                  <masterclipid>clip-master</masterclipid>
                </multiclip>
              </clipitem>
              <clipitem id="cs-408">
                <duration>62</duration>
                <rate>
                  <ntsc>false</ntsc>
                  <timebase>25</timebase>
                </rate>
                <in>15373</in>
                <out>15434</out>
                <start>15373</start>
                <end>15434</end>
                <file id="src-2"/>
                <sourcetrack>
                  <mediatype>video</mediatype>
                  <trackindex>1</trackindex>
                </sourcetrack>
                <multiclip id="mcs-408">
                  <name>MCS-408</name>
                  <masterclipid>clip-master</masterclipid>
                  <collapsed>false</collapsed>
                  <angle>
                    <activevideoangle>false</activevideoangle>
                    <activeaudioangle>false</activeaudioangle>
                    <clip id="clip-1"/>
                  </angle>
                  <angle>
                    <activevideoangle>true</activevideoangle>
                    <activeaudioangle>true</activeaudioangle>
                    <clip id="clip-2"/>
                  </angle>
                  <angle>
                    <activevideoangle>false</activevideoangle>
                    <activeaudioangle>false</activeaudioangle>
                    <clip id="clip-3"/>
                  </angle>
                  <angle>
                    <activevideoangle>false</activevideoangle>
                    <activeaudioangle>false</activeaudioangle>
                    <clip id="clip-4"/>
                  </angle>
                  <angle>
                    <activevideoangle>false</activevideoangle>
                    <activeaudioangle>false</activeaudioangle>
                    <clip id="clip-5"/>
                  </angle>
                  <angle>
                    <activevideoangle>false</activevideoangle>
                    <activeaudioangle>false</activeaudioangle>
                    <clip id="clip-6"/>
                  </angle>
                  <angle>
                    <activevideoangle>false</activevideoangle>
                    <activeaudioangle>false</activeaudioangle>
                    <clip id="clip-7"/>
                  </angle>
                  <angle>
                    <activevideoangle>false</activevideoangle>
                    <activeaudioangle>false</activeaudioangle>
                    <clip id="clip-8"/>
                  </angle>
                  <angle>
                    <activevideoangle>false</activevideoangle>
                    <activeaudioangle>false</activeaudioangle>
                    <clip id="clip-9"/>
                  </angle>
                  <masterclipid>clip-master</masterclipid>
                </multiclip>
              </clipitem>
              <clipitem id="cs-409">
                <duration>93</duration>
                <rate>
                  <ntsc>false</ntsc>
                  <timebase>25</timebase>
                </rate>
                <in>15434</in>
                <out>15526</out>
                <start>15434</start>
                <end>15526</end>
                <file id="src-4"/>
                <sourcetrack>
                  <mediatype>video</mediatype>
                  <trackindex>1</trackindex>
                </sourcetrack>
                <multiclip id="mcs-409">
                  <name>MCS-409</name>
                  <masterclipid>clip-master</masterclipid>
                  <collapsed>false</collapsed>
                  <angle>
                    <activevideoangle>false</activevideoangle>
                    <activeaudioangle>false</activeaudioangle>
                    <clip id="clip-1"/>
                  </angle>
                  <angle>
                    <activevideoangle>false</activevideoangle>
                    <activeaudioangle>false</activeaudioangle>
                    <clip id="clip-2"/>
                  </angle>
                  <angle>
                    <activevideoangle>false</activevideoangle>
                    <activeaudioangle>false</activeaudioangle>
                    <clip id="clip-3"/>
                  </angle>
                  <angle>
                    <activevideoangle>true</activevideoangle>
                    <activeaudioangle>true</activeaudioangle>
                    <clip id="clip-4"/>
                  </angle>
                  <angle>
                    <activevideoangle>false</activevideoangle>
                    <activeaudioangle>false</activeaudioangle>
                    <clip id="clip-5"/>
                  </angle>
                  <angle>
                    <activevideoangle>false</activevideoangle>
                    <activeaudioangle>false</activeaudioangle>
                    <clip id="clip-6"/>
                  </angle>
                  <angle>
                    <activevideoangle>false</activevideoangle>
                    <activeaudioangle>false</activeaudioangle>
                    <clip id="clip-7"/>
                  </angle>
                  <angle>
                    <activevideoangle>false</activevideoangle>
                    <activeaudioangle>false</activeaudioangle>
                    <clip id="clip-8"/>
                  </angle>
                  <angle>
                    <activevideoangle>false</activevideoangle>
                    <activeaudioangle>false</activeaudioangle>
                    <clip id="clip-9"/>
                  </angle>
                  <masterclipid>clip-master</masterclipid>
                </multiclip>
              </clipitem>
              <clipitem id="cs-410">
                <duration>123</duration>
                <rate>
                  <ntsc>false</ntsc>
                  <timebase>25</timebase>
                </rate>
                <in>15526</in>
                <out>15648</out>
                <start>15526</start>
                <end>15648</end>
                <file id="src-3"/>
                <sourcetrack>
                  <mediatype>video</mediatype>
                  <trackindex>1</trackindex>
                </sourcetrack>
                <multiclip id="mcs-410">
                  <name>MCS-410</name>
                  <masterclipid>clip-master</masterclipid>
                  <collapsed>false</collapsed>
                  <angle>
                    <activevideoangle>false</activevideoangle>
                    <activeaudioangle>false</activeaudioangle>
                    <clip id="clip-1"/>
                  </angle>
                  <angle>
                    <activevideoangle>false</activevideoangle>
                    <activeaudioangle>false</activeaudioangle>
                    <clip id="clip-2"/>
                  </angle>
                  <angle>
                    <activevideoangle>true</activevideoangle>
                    <activeaudioangle>true</activeaudioangle>
                    <clip id="clip-3"/>
                  </angle>
                  <angle>
                    <activevideoangle>false</activevideoangle>
                    <activeaudioangle>false</activeaudioangle>
                    <clip id="clip-4"/>
                  </angle>
                  <angle>
                    <activevideoangle>false</activevideoangle>
                    <activeaudioangle>false</activeaudioangle>
                    <clip id="clip-5"/>
                  </angle>
                  <angle>
                    <activevideoangle>false</activevideoangle>
                    <activeaudioangle>false</activeaudioangle>
                    <clip id="clip-6"/>
                  </angle>
                  <angle>
                    <activevideoangle>false</activevideoangle>
                    <activeaudioangle>false</activeaudioangle>
                    <clip id="clip-7"/>
                  </angle>
                  <angle>
                    <activevideoangle>false</activevideoangle>
                    <activeaudioangle>false</activeaudioangle>
                    <clip id="clip-8"/>
                  </angle>
                  <angle>
                    <activevideoangle>false</activevideoangle>
                    <activeaudioangle>false</activeaudioangle>
                    <clip id="clip-9"/>
                  </angle>
                  <masterclipid>clip-master</masterclipid>
                </multiclip>
              </clipitem>
              <clipitem id="cs-411">
                <duration>129</duration>
                <rate>
                  <ntsc>false</ntsc>
                  <timebase>25</timebase>
                </rate>
                <in>15648</in>
                <out>15776</out>
                <start>15648</start>
                <end>15776</end>
                <file id="src-4"/>
                <sourcetrack>
                  <mediatype>video</mediatype>
                  <trackindex>1</trackindex>
                </sourcetrack>
                <multiclip id="mcs-411">
                  <name>MCS-411</name>
                  <masterclipid>clip-master</masterclipid>
                  <collapsed>false</collapsed>
                  <angle>
                    <activevideoangle>false</activevideoangle>
                    <activeaudioangle>false</activeaudioangle>
                    <clip id="clip-1"/>
                  </angle>
                  <angle>
                    <activevideoangle>false</activevideoangle>
                    <activeaudioangle>false</activeaudioangle>
                    <clip id="clip-2"/>
                  </angle>
                  <angle>
                    <activevideoangle>false</activevideoangle>
                    <activeaudioangle>false</activeaudioangle>
                    <clip id="clip-3"/>
                  </angle>
                  <angle>
                    <activevideoangle>true</activevideoangle>
                    <activeaudioangle>true</activeaudioangle>
                    <clip id="clip-4"/>
                  </angle>
                  <angle>
                    <activevideoangle>false</activevideoangle>
                    <activeaudioangle>false</activeaudioangle>
                    <clip id="clip-5"/>
                  </angle>
                  <angle>
                    <activevideoangle>false</activevideoangle>
                    <activeaudioangle>false</activeaudioangle>
                    <clip id="clip-6"/>
                  </angle>
                  <angle>
                    <activevideoangle>false</activevideoangle>
                    <activeaudioangle>false</activeaudioangle>
                    <clip id="clip-7"/>
                  </angle>
                  <angle>
                    <activevideoangle>false</activevideoangle>
                    <activeaudioangle>false</activeaudioangle>
                    <clip id="clip-8"/>
                  </angle>
                  <angle>
                    <activevideoangle>false</activevideoangle>
                    <activeaudioangle>false</activeaudioangle>
                    <clip id="clip-9"/>
                  </angle>
                  <masterclipid>clip-master</masterclipid>
                </multiclip>
              </clipitem>
              <clipitem id="cs-412">
                <duration>68</duration>
                <rate>
                  <ntsc>false</ntsc>
                  <timebase>25</timebase>
                </rate>
                <in>15776</in>
                <out>15843</out>
                <start>15776</start>
                <end>15843</end>
                <file id="src-8"/>
                <sourcetrack>
                  <mediatype>video</mediatype>
                  <trackindex>1</trackindex>
                </sourcetrack>
                <multiclip id="mcs-412">
                  <name>MCS-412</name>
                  <masterclipid>clip-master</masterclipid>
                  <collapsed>false</collapsed>
                  <angle>
                    <activevideoangle>false</activevideoangle>
                    <activeaudioangle>false</activeaudioangle>
                    <clip id="clip-1"/>
                  </angle>
                  <angle>
                    <activevideoangle>false</activevideoangle>
                    <activeaudioangle>false</activeaudioangle>
                    <clip id="clip-2"/>
                  </angle>
                  <angle>
                    <activevideoangle>false</activevideoangle>
                    <activeaudioangle>false</activeaudioangle>
                    <clip id="clip-3"/>
                  </angle>
                  <angle>
                    <activevideoangle>false</activevideoangle>
                    <activeaudioangle>false</activeaudioangle>
                    <clip id="clip-4"/>
                  </angle>
                  <angle>
                    <activevideoangle>false</activevideoangle>
                    <activeaudioangle>false</activeaudioangle>
                    <clip id="clip-5"/>
                  </angle>
                  <angle>
                    <activevideoangle>false</activevideoangle>
                    <activeaudioangle>false</activeaudioangle>
                    <clip id="clip-6"/>
                  </angle>
                  <angle>
                    <activevideoangle>false</activevideoangle>
                    <activeaudioangle>false</activeaudioangle>
                    <clip id="clip-7"/>
                  </angle>
                  <angle>
                    <activevideoangle>true</activevideoangle>
                    <activeaudioangle>true</activeaudioangle>
                    <clip id="clip-8"/>
                  </angle>
                  <angle>
                    <activevideoangle>false</activevideoangle>
                    <activeaudioangle>false</activeaudioangle>
                    <clip id="clip-9"/>
                  </angle>
                  <masterclipid>clip-master</masterclipid>
                </multiclip>
              </clipitem>
              <clipitem id="cs-413">
                <duration>52</duration>
                <rate>
                  <ntsc>false</ntsc>
                  <timebase>25</timebase>
                </rate>
                <in>15843</in>
                <out>15894</out>
                <start>15843</start>
                <end>15894</end>
                <file id="src-2"/>
                <sourcetrack>
                  <mediatype>video</mediatype>
                  <trackindex>1</trackindex>
                </sourcetrack>
                <multiclip id="mcs-413">
                  <name>MCS-413</name>
                  <masterclipid>clip-master</masterclipid>
                  <collapsed>false</collapsed>
                  <angle>
                    <activevideoangle>false</activevideoangle>
                    <activeaudioangle>false</activeaudioangle>
                    <clip id="clip-1"/>
                  </angle>
                  <angle>
                    <activevideoangle>true</activevideoangle>
                    <activeaudioangle>true</activeaudioangle>
                    <clip id="clip-2"/>
                  </angle>
                  <angle>
                    <activevideoangle>false</activevideoangle>
                    <activeaudioangle>false</activeaudioangle>
                    <clip id="clip-3"/>
                  </angle>
                  <angle>
                    <activevideoangle>false</activevideoangle>
                    <activeaudioangle>false</activeaudioangle>
                    <clip id="clip-4"/>
                  </angle>
                  <angle>
                    <activevideoangle>false</activevideoangle>
                    <activeaudioangle>false</activeaudioangle>
                    <clip id="clip-5"/>
                  </angle>
                  <angle>
                    <activevideoangle>false</activevideoangle>
                    <activeaudioangle>false</activeaudioangle>
                    <clip id="clip-6"/>
                  </angle>
                  <angle>
                    <activevideoangle>false</activevideoangle>
                    <activeaudioangle>false</activeaudioangle>
                    <clip id="clip-7"/>
                  </angle>
                  <angle>
                    <activevideoangle>false</activevideoangle>
                    <activeaudioangle>false</activeaudioangle>
                    <clip id="clip-8"/>
                  </angle>
                  <angle>
                    <activevideoangle>false</activevideoangle>
                    <activeaudioangle>false</activeaudioangle>
                    <clip id="clip-9"/>
                  </angle>
                  <masterclipid>clip-master</masterclipid>
                </multiclip>
              </clipitem>
              <clipitem id="cs-414">
                <duration>89</duration>
                <rate>
                  <ntsc>false</ntsc>
                  <timebase>25</timebase>
                </rate>
                <in>15894</in>
                <out>15982</out>
                <start>15894</start>
                <end>15982</end>
                <file id="src-4"/>
                <sourcetrack>
                  <mediatype>video</mediatype>
                  <trackindex>1</trackindex>
                </sourcetrack>
                <multiclip id="mcs-414">
                  <name>MCS-414</name>
                  <masterclipid>clip-master</masterclipid>
                  <collapsed>false</collapsed>
                  <angle>
                    <activevideoangle>false</activevideoangle>
                    <activeaudioangle>false</activeaudioangle>
                    <clip id="clip-1"/>
                  </angle>
                  <angle>
                    <activevideoangle>false</activevideoangle>
                    <activeaudioangle>false</activeaudioangle>
                    <clip id="clip-2"/>
                  </angle>
                  <angle>
                    <activevideoangle>false</activevideoangle>
                    <activeaudioangle>false</activeaudioangle>
                    <clip id="clip-3"/>
                  </angle>
                  <angle>
                    <activevideoangle>true</activevideoangle>
                    <activeaudioangle>true</activeaudioangle>
                    <clip id="clip-4"/>
                  </angle>
                  <angle>
                    <activevideoangle>false</activevideoangle>
                    <activeaudioangle>false</activeaudioangle>
                    <clip id="clip-5"/>
                  </angle>
                  <angle>
                    <activevideoangle>false</activevideoangle>
                    <activeaudioangle>false</activeaudioangle>
                    <clip id="clip-6"/>
                  </angle>
                  <angle>
                    <activevideoangle>false</activevideoangle>
                    <activeaudioangle>false</activeaudioangle>
                    <clip id="clip-7"/>
                  </angle>
                  <angle>
                    <activevideoangle>false</activevideoangle>
                    <activeaudioangle>false</activeaudioangle>
                    <clip id="clip-8"/>
                  </angle>
                  <angle>
                    <activevideoangle>false</activevideoangle>
                    <activeaudioangle>false</activeaudioangle>
                    <clip id="clip-9"/>
                  </angle>
                  <masterclipid>clip-master</masterclipid>
                </multiclip>
              </clipitem>
              <clipitem id="cs-415">
                <duration>104</duration>
                <rate>
                  <ntsc>false</ntsc>
                  <timebase>25</timebase>
                </rate>
                <in>15982</in>
                <out>16085</out>
                <start>15982</start>
                <end>16085</end>
                <file id="src-3"/>
                <sourcetrack>
                  <mediatype>video</mediatype>
                  <trackindex>1</trackindex>
                </sourcetrack>
                <multiclip id="mcs-415">
                  <name>MCS-415</name>
                  <masterclipid>clip-master</masterclipid>
                  <collapsed>false</collapsed>
                  <angle>
                    <activevideoangle>false</activevideoangle>
                    <activeaudioangle>false</activeaudioangle>
                    <clip id="clip-1"/>
                  </angle>
                  <angle>
                    <activevideoangle>false</activevideoangle>
                    <activeaudioangle>false</activeaudioangle>
                    <clip id="clip-2"/>
                  </angle>
                  <angle>
                    <activevideoangle>true</activevideoangle>
                    <activeaudioangle>true</activeaudioangle>
                    <clip id="clip-3"/>
                  </angle>
                  <angle>
                    <activevideoangle>false</activevideoangle>
                    <activeaudioangle>false</activeaudioangle>
                    <clip id="clip-4"/>
                  </angle>
                  <angle>
                    <activevideoangle>false</activevideoangle>
                    <activeaudioangle>false</activeaudioangle>
                    <clip id="clip-5"/>
                  </angle>
                  <angle>
                    <activevideoangle>false</activevideoangle>
                    <activeaudioangle>false</activeaudioangle>
                    <clip id="clip-6"/>
                  </angle>
                  <angle>
                    <activevideoangle>false</activevideoangle>
                    <activeaudioangle>false</activeaudioangle>
                    <clip id="clip-7"/>
                  </angle>
                  <angle>
                    <activevideoangle>false</activevideoangle>
                    <activeaudioangle>false</activeaudioangle>
                    <clip id="clip-8"/>
                  </angle>
                  <angle>
                    <activevideoangle>false</activevideoangle>
                    <activeaudioangle>false</activeaudioangle>
                    <clip id="clip-9"/>
                  </angle>
                  <masterclipid>clip-master</masterclipid>
                </multiclip>
              </clipitem>
              <clipitem id="cs-416">
                <duration>132</duration>
                <rate>
                  <ntsc>false</ntsc>
                  <timebase>25</timebase>
                </rate>
                <in>16085</in>
                <out>16216</out>
                <start>16085</start>
                <end>16216</end>
                <file id="src-4"/>
                <sourcetrack>
                  <mediatype>video</mediatype>
                  <trackindex>1</trackindex>
                </sourcetrack>
                <multiclip id="mcs-416">
                  <name>MCS-416</name>
                  <masterclipid>clip-master</masterclipid>
                  <collapsed>false</collapsed>
                  <angle>
                    <activevideoangle>false</activevideoangle>
                    <activeaudioangle>false</activeaudioangle>
                    <clip id="clip-1"/>
                  </angle>
                  <angle>
                    <activevideoangle>false</activevideoangle>
                    <activeaudioangle>false</activeaudioangle>
                    <clip id="clip-2"/>
                  </angle>
                  <angle>
                    <activevideoangle>false</activevideoangle>
                    <activeaudioangle>false</activeaudioangle>
                    <clip id="clip-3"/>
                  </angle>
                  <angle>
                    <activevideoangle>true</activevideoangle>
                    <activeaudioangle>true</activeaudioangle>
                    <clip id="clip-4"/>
                  </angle>
                  <angle>
                    <activevideoangle>false</activevideoangle>
                    <activeaudioangle>false</activeaudioangle>
                    <clip id="clip-5"/>
                  </angle>
                  <angle>
                    <activevideoangle>false</activevideoangle>
                    <activeaudioangle>false</activeaudioangle>
                    <clip id="clip-6"/>
                  </angle>
                  <angle>
                    <activevideoangle>false</activevideoangle>
                    <activeaudioangle>false</activeaudioangle>
                    <clip id="clip-7"/>
                  </angle>
                  <angle>
                    <activevideoangle>false</activevideoangle>
                    <activeaudioangle>false</activeaudioangle>
                    <clip id="clip-8"/>
                  </angle>
                  <angle>
                    <activevideoangle>false</activevideoangle>
                    <activeaudioangle>false</activeaudioangle>
                    <clip id="clip-9"/>
                  </angle>
                  <masterclipid>clip-master</masterclipid>
                </multiclip>
              </clipitem>
              <clipitem id="cs-417">
                <duration>109</duration>
                <rate>
                  <ntsc>false</ntsc>
                  <timebase>25</timebase>
                </rate>
                <in>16216</in>
                <out>16324</out>
                <start>16216</start>
                <end>16324</end>
                <file id="src-2"/>
                <sourcetrack>
                  <mediatype>video</mediatype>
                  <trackindex>1</trackindex>
                </sourcetrack>
                <multiclip id="mcs-417">
                  <name>MCS-417</name>
                  <masterclipid>clip-master</masterclipid>
                  <collapsed>false</collapsed>
                  <angle>
                    <activevideoangle>false</activevideoangle>
                    <activeaudioangle>false</activeaudioangle>
                    <clip id="clip-1"/>
                  </angle>
                  <angle>
                    <activevideoangle>true</activevideoangle>
                    <activeaudioangle>true</activeaudioangle>
                    <clip id="clip-2"/>
                  </angle>
                  <angle>
                    <activevideoangle>false</activevideoangle>
                    <activeaudioangle>false</activeaudioangle>
                    <clip id="clip-3"/>
                  </angle>
                  <angle>
                    <activevideoangle>false</activevideoangle>
                    <activeaudioangle>false</activeaudioangle>
                    <clip id="clip-4"/>
                  </angle>
                  <angle>
                    <activevideoangle>false</activevideoangle>
                    <activeaudioangle>false</activeaudioangle>
                    <clip id="clip-5"/>
                  </angle>
                  <angle>
                    <activevideoangle>false</activevideoangle>
                    <activeaudioangle>false</activeaudioangle>
                    <clip id="clip-6"/>
                  </angle>
                  <angle>
                    <activevideoangle>false</activevideoangle>
                    <activeaudioangle>false</activeaudioangle>
                    <clip id="clip-7"/>
                  </angle>
                  <angle>
                    <activevideoangle>false</activevideoangle>
                    <activeaudioangle>false</activeaudioangle>
                    <clip id="clip-8"/>
                  </angle>
                  <angle>
                    <activevideoangle>false</activevideoangle>
                    <activeaudioangle>false</activeaudioangle>
                    <clip id="clip-9"/>
                  </angle>
                  <masterclipid>clip-master</masterclipid>
                </multiclip>
              </clipitem>
              <clipitem id="cs-418">
                <duration>53</duration>
                <rate>
                  <ntsc>false</ntsc>
                  <timebase>25</timebase>
                </rate>
                <in>16324</in>
                <out>16376</out>
                <start>16324</start>
                <end>16376</end>
                <file id="src-6"/>
                <sourcetrack>
                  <mediatype>video</mediatype>
                  <trackindex>1</trackindex>
                </sourcetrack>
                <multiclip id="mcs-418">
                  <name>MCS-418</name>
                  <masterclipid>clip-master</masterclipid>
                  <collapsed>false</collapsed>
                  <angle>
                    <activevideoangle>false</activevideoangle>
                    <activeaudioangle>false</activeaudioangle>
                    <clip id="clip-1"/>
                  </angle>
                  <angle>
                    <activevideoangle>false</activevideoangle>
                    <activeaudioangle>false</activeaudioangle>
                    <clip id="clip-2"/>
                  </angle>
                  <angle>
                    <activevideoangle>false</activevideoangle>
                    <activeaudioangle>false</activeaudioangle>
                    <clip id="clip-3"/>
                  </angle>
                  <angle>
                    <activevideoangle>false</activevideoangle>
                    <activeaudioangle>false</activeaudioangle>
                    <clip id="clip-4"/>
                  </angle>
                  <angle>
                    <activevideoangle>false</activevideoangle>
                    <activeaudioangle>false</activeaudioangle>
                    <clip id="clip-5"/>
                  </angle>
                  <angle>
                    <activevideoangle>true</activevideoangle>
                    <activeaudioangle>true</activeaudioangle>
                    <clip id="clip-6"/>
                  </angle>
                  <angle>
                    <activevideoangle>false</activevideoangle>
                    <activeaudioangle>false</activeaudioangle>
                    <clip id="clip-7"/>
                  </angle>
                  <angle>
                    <activevideoangle>false</activevideoangle>
                    <activeaudioangle>false</activeaudioangle>
                    <clip id="clip-8"/>
                  </angle>
                  <angle>
                    <activevideoangle>false</activevideoangle>
                    <activeaudioangle>false</activeaudioangle>
                    <clip id="clip-9"/>
                  </angle>
                  <masterclipid>clip-master</masterclipid>
                </multiclip>
              </clipitem>
              <clipitem id="cs-419">
                <duration>48</duration>
                <rate>
                  <ntsc>false</ntsc>
                  <timebase>25</timebase>
                </rate>
                <in>16376</in>
                <out>16423</out>
                <start>16376</start>
                <end>16423</end>
                <file id="src-4"/>
                <sourcetrack>
                  <mediatype>video</mediatype>
                  <trackindex>1</trackindex>
                </sourcetrack>
                <multiclip id="mcs-419">
                  <name>MCS-419</name>
                  <masterclipid>clip-master</masterclipid>
                  <collapsed>false</collapsed>
                  <angle>
                    <activevideoangle>false</activevideoangle>
                    <activeaudioangle>false</activeaudioangle>
                    <clip id="clip-1"/>
                  </angle>
                  <angle>
                    <activevideoangle>false</activevideoangle>
                    <activeaudioangle>false</activeaudioangle>
                    <clip id="clip-2"/>
                  </angle>
                  <angle>
                    <activevideoangle>false</activevideoangle>
                    <activeaudioangle>false</activeaudioangle>
                    <clip id="clip-3"/>
                  </angle>
                  <angle>
                    <activevideoangle>true</activevideoangle>
                    <activeaudioangle>true</activeaudioangle>
                    <clip id="clip-4"/>
                  </angle>
                  <angle>
                    <activevideoangle>false</activevideoangle>
                    <activeaudioangle>false</activeaudioangle>
                    <clip id="clip-5"/>
                  </angle>
                  <angle>
                    <activevideoangle>false</activevideoangle>
                    <activeaudioangle>false</activeaudioangle>
                    <clip id="clip-6"/>
                  </angle>
                  <angle>
                    <activevideoangle>false</activevideoangle>
                    <activeaudioangle>false</activeaudioangle>
                    <clip id="clip-7"/>
                  </angle>
                  <angle>
                    <activevideoangle>false</activevideoangle>
                    <activeaudioangle>false</activeaudioangle>
                    <clip id="clip-8"/>
                  </angle>
                  <angle>
                    <activevideoangle>false</activevideoangle>
                    <activeaudioangle>false</activeaudioangle>
                    <clip id="clip-9"/>
                  </angle>
                  <masterclipid>clip-master</masterclipid>
                </multiclip>
              </clipitem>
              <clipitem id="cs-420">
                <duration>58</duration>
                <rate>
                  <ntsc>false</ntsc>
                  <timebase>25</timebase>
                </rate>
                <in>16423</in>
                <out>16480</out>
                <start>16423</start>
                <end>16480</end>
                <file id="src-3"/>
                <sourcetrack>
                  <mediatype>video</mediatype>
                  <trackindex>1</trackindex>
                </sourcetrack>
                <multiclip id="mcs-420">
                  <name>MCS-420</name>
                  <masterclipid>clip-master</masterclipid>
                  <collapsed>false</collapsed>
                  <angle>
                    <activevideoangle>false</activevideoangle>
                    <activeaudioangle>false</activeaudioangle>
                    <clip id="clip-1"/>
                  </angle>
                  <angle>
                    <activevideoangle>false</activevideoangle>
                    <activeaudioangle>false</activeaudioangle>
                    <clip id="clip-2"/>
                  </angle>
                  <angle>
                    <activevideoangle>true</activevideoangle>
                    <activeaudioangle>true</activeaudioangle>
                    <clip id="clip-3"/>
                  </angle>
                  <angle>
                    <activevideoangle>false</activevideoangle>
                    <activeaudioangle>false</activeaudioangle>
                    <clip id="clip-4"/>
                  </angle>
                  <angle>
                    <activevideoangle>false</activevideoangle>
                    <activeaudioangle>false</activeaudioangle>
                    <clip id="clip-5"/>
                  </angle>
                  <angle>
                    <activevideoangle>false</activevideoangle>
                    <activeaudioangle>false</activeaudioangle>
                    <clip id="clip-6"/>
                  </angle>
                  <angle>
                    <activevideoangle>false</activevideoangle>
                    <activeaudioangle>false</activeaudioangle>
                    <clip id="clip-7"/>
                  </angle>
                  <angle>
                    <activevideoangle>false</activevideoangle>
                    <activeaudioangle>false</activeaudioangle>
                    <clip id="clip-8"/>
                  </angle>
                  <angle>
                    <activevideoangle>false</activevideoangle>
                    <activeaudioangle>false</activeaudioangle>
                    <clip id="clip-9"/>
                  </angle>
                  <masterclipid>clip-master</masterclipid>
                </multiclip>
              </clipitem>
              <clipitem id="cs-421">
                <duration>52</duration>
                <rate>
                  <ntsc>false</ntsc>
                  <timebase>25</timebase>
                </rate>
                <in>16480</in>
                <out>16531</out>
                <start>16480</start>
                <end>16531</end>
                <file id="src-5"/>
                <sourcetrack>
                  <mediatype>video</mediatype>
                  <trackindex>1</trackindex>
                </sourcetrack>
                <multiclip id="mcs-421">
                  <name>MCS-421</name>
                  <masterclipid>clip-master</masterclipid>
                  <collapsed>false</collapsed>
                  <angle>
                    <activevideoangle>false</activevideoangle>
                    <activeaudioangle>false</activeaudioangle>
                    <clip id="clip-1"/>
                  </angle>
                  <angle>
                    <activevideoangle>false</activevideoangle>
                    <activeaudioangle>false</activeaudioangle>
                    <clip id="clip-2"/>
                  </angle>
                  <angle>
                    <activevideoangle>false</activevideoangle>
                    <activeaudioangle>false</activeaudioangle>
                    <clip id="clip-3"/>
                  </angle>
                  <angle>
                    <activevideoangle>false</activevideoangle>
                    <activeaudioangle>false</activeaudioangle>
                    <clip id="clip-4"/>
                  </angle>
                  <angle>
                    <activevideoangle>true</activevideoangle>
                    <activeaudioangle>true</activeaudioangle>
                    <clip id="clip-5"/>
                  </angle>
                  <angle>
                    <activevideoangle>false</activevideoangle>
                    <activeaudioangle>false</activeaudioangle>
                    <clip id="clip-6"/>
                  </angle>
                  <angle>
                    <activevideoangle>false</activevideoangle>
                    <activeaudioangle>false</activeaudioangle>
                    <clip id="clip-7"/>
                  </angle>
                  <angle>
                    <activevideoangle>false</activevideoangle>
                    <activeaudioangle>false</activeaudioangle>
                    <clip id="clip-8"/>
                  </angle>
                  <angle>
                    <activevideoangle>false</activevideoangle>
                    <activeaudioangle>false</activeaudioangle>
                    <clip id="clip-9"/>
                  </angle>
                  <masterclipid>clip-master</masterclipid>
                </multiclip>
              </clipitem>
              <clipitem id="cs-422">
                <duration>68</duration>
                <rate>
                  <ntsc>false</ntsc>
                  <timebase>25</timebase>
                </rate>
                <in>16531</in>
                <out>16598</out>
                <start>16531</start>
                <end>16598</end>
                <file id="src-8"/>
                <sourcetrack>
                  <mediatype>video</mediatype>
                  <trackindex>1</trackindex>
                </sourcetrack>
                <multiclip id="mcs-422">
                  <name>MCS-422</name>
                  <masterclipid>clip-master</masterclipid>
                  <collapsed>false</collapsed>
                  <angle>
                    <activevideoangle>false</activevideoangle>
                    <activeaudioangle>false</activeaudioangle>
                    <clip id="clip-1"/>
                  </angle>
                  <angle>
                    <activevideoangle>false</activevideoangle>
                    <activeaudioangle>false</activeaudioangle>
                    <clip id="clip-2"/>
                  </angle>
                  <angle>
                    <activevideoangle>false</activevideoangle>
                    <activeaudioangle>false</activeaudioangle>
                    <clip id="clip-3"/>
                  </angle>
                  <angle>
                    <activevideoangle>false</activevideoangle>
                    <activeaudioangle>false</activeaudioangle>
                    <clip id="clip-4"/>
                  </angle>
                  <angle>
                    <activevideoangle>false</activevideoangle>
                    <activeaudioangle>false</activeaudioangle>
                    <clip id="clip-5"/>
                  </angle>
                  <angle>
                    <activevideoangle>false</activevideoangle>
                    <activeaudioangle>false</activeaudioangle>
                    <clip id="clip-6"/>
                  </angle>
                  <angle>
                    <activevideoangle>false</activevideoangle>
                    <activeaudioangle>false</activeaudioangle>
                    <clip id="clip-7"/>
                  </angle>
                  <angle>
                    <activevideoangle>true</activevideoangle>
                    <activeaudioangle>true</activeaudioangle>
                    <clip id="clip-8"/>
                  </angle>
                  <angle>
                    <activevideoangle>false</activevideoangle>
                    <activeaudioangle>false</activeaudioangle>
                    <clip id="clip-9"/>
                  </angle>
                  <masterclipid>clip-master</masterclipid>
                </multiclip>
              </clipitem>
              <clipitem id="cs-423">
                <duration>32</duration>
                <rate>
                  <ntsc>false</ntsc>
                  <timebase>25</timebase>
                </rate>
                <in>16598</in>
                <out>16629</out>
                <start>16598</start>
                <end>16629</end>
                <file id="src-7"/>
                <sourcetrack>
                  <mediatype>video</mediatype>
                  <trackindex>1</trackindex>
                </sourcetrack>
                <multiclip id="mcs-423">
                  <name>MCS-423</name>
                  <masterclipid>clip-master</masterclipid>
                  <collapsed>false</collapsed>
                  <angle>
                    <activevideoangle>false</activevideoangle>
                    <activeaudioangle>false</activeaudioangle>
                    <clip id="clip-1"/>
                  </angle>
                  <angle>
                    <activevideoangle>false</activevideoangle>
                    <activeaudioangle>false</activeaudioangle>
                    <clip id="clip-2"/>
                  </angle>
                  <angle>
                    <activevideoangle>false</activevideoangle>
                    <activeaudioangle>false</activeaudioangle>
                    <clip id="clip-3"/>
                  </angle>
                  <angle>
                    <activevideoangle>false</activevideoangle>
                    <activeaudioangle>false</activeaudioangle>
                    <clip id="clip-4"/>
                  </angle>
                  <angle>
                    <activevideoangle>false</activevideoangle>
                    <activeaudioangle>false</activeaudioangle>
                    <clip id="clip-5"/>
                  </angle>
                  <angle>
                    <activevideoangle>false</activevideoangle>
                    <activeaudioangle>false</activeaudioangle>
                    <clip id="clip-6"/>
                  </angle>
                  <angle>
                    <activevideoangle>true</activevideoangle>
                    <activeaudioangle>true</activeaudioangle>
                    <clip id="clip-7"/>
                  </angle>
                  <angle>
                    <activevideoangle>false</activevideoangle>
                    <activeaudioangle>false</activeaudioangle>
                    <clip id="clip-8"/>
                  </angle>
                  <angle>
                    <activevideoangle>false</activevideoangle>
                    <activeaudioangle>false</activeaudioangle>
                    <clip id="clip-9"/>
                  </angle>
                  <masterclipid>clip-master</masterclipid>
                </multiclip>
              </clipitem>
              <clipitem id="cs-424">
                <duration>90</duration>
                <rate>
                  <ntsc>false</ntsc>
                  <timebase>25</timebase>
                </rate>
                <in>16629</in>
                <out>16718</out>
                <start>16629</start>
                <end>16718</end>
                <file id="src-4"/>
                <sourcetrack>
                  <mediatype>video</mediatype>
                  <trackindex>1</trackindex>
                </sourcetrack>
                <multiclip id="mcs-424">
                  <name>MCS-424</name>
                  <masterclipid>clip-master</masterclipid>
                  <collapsed>false</collapsed>
                  <angle>
                    <activevideoangle>false</activevideoangle>
                    <activeaudioangle>false</activeaudioangle>
                    <clip id="clip-1"/>
                  </angle>
                  <angle>
                    <activevideoangle>false</activevideoangle>
                    <activeaudioangle>false</activeaudioangle>
                    <clip id="clip-2"/>
                  </angle>
                  <angle>
                    <activevideoangle>false</activevideoangle>
                    <activeaudioangle>false</activeaudioangle>
                    <clip id="clip-3"/>
                  </angle>
                  <angle>
                    <activevideoangle>true</activevideoangle>
                    <activeaudioangle>true</activeaudioangle>
                    <clip id="clip-4"/>
                  </angle>
                  <angle>
                    <activevideoangle>false</activevideoangle>
                    <activeaudioangle>false</activeaudioangle>
                    <clip id="clip-5"/>
                  </angle>
                  <angle>
                    <activevideoangle>false</activevideoangle>
                    <activeaudioangle>false</activeaudioangle>
                    <clip id="clip-6"/>
                  </angle>
                  <angle>
                    <activevideoangle>false</activevideoangle>
                    <activeaudioangle>false</activeaudioangle>
                    <clip id="clip-7"/>
                  </angle>
                  <angle>
                    <activevideoangle>false</activevideoangle>
                    <activeaudioangle>false</activeaudioangle>
                    <clip id="clip-8"/>
                  </angle>
                  <angle>
                    <activevideoangle>false</activevideoangle>
                    <activeaudioangle>false</activeaudioangle>
                    <clip id="clip-9"/>
                  </angle>
                  <masterclipid>clip-master</masterclipid>
                </multiclip>
              </clipitem>
              <clipitem id="cs-425">
                <duration>170</duration>
                <rate>
                  <ntsc>false</ntsc>
                  <timebase>25</timebase>
                </rate>
                <in>16718</in>
                <out>16887</out>
                <start>16718</start>
                <end>16887</end>
                <file id="src-2"/>
                <sourcetrack>
                  <mediatype>video</mediatype>
                  <trackindex>1</trackindex>
                </sourcetrack>
                <multiclip id="mcs-425">
                  <name>MCS-425</name>
                  <masterclipid>clip-master</masterclipid>
                  <collapsed>false</collapsed>
                  <angle>
                    <activevideoangle>false</activevideoangle>
                    <activeaudioangle>false</activeaudioangle>
                    <clip id="clip-1"/>
                  </angle>
                  <angle>
                    <activevideoangle>true</activevideoangle>
                    <activeaudioangle>true</activeaudioangle>
                    <clip id="clip-2"/>
                  </angle>
                  <angle>
                    <activevideoangle>false</activevideoangle>
                    <activeaudioangle>false</activeaudioangle>
                    <clip id="clip-3"/>
                  </angle>
                  <angle>
                    <activevideoangle>false</activevideoangle>
                    <activeaudioangle>false</activeaudioangle>
                    <clip id="clip-4"/>
                  </angle>
                  <angle>
                    <activevideoangle>false</activevideoangle>
                    <activeaudioangle>false</activeaudioangle>
                    <clip id="clip-5"/>
                  </angle>
                  <angle>
                    <activevideoangle>false</activevideoangle>
                    <activeaudioangle>false</activeaudioangle>
                    <clip id="clip-6"/>
                  </angle>
                  <angle>
                    <activevideoangle>false</activevideoangle>
                    <activeaudioangle>false</activeaudioangle>
                    <clip id="clip-7"/>
                  </angle>
                  <angle>
                    <activevideoangle>false</activevideoangle>
                    <activeaudioangle>false</activeaudioangle>
                    <clip id="clip-8"/>
                  </angle>
                  <angle>
                    <activevideoangle>false</activevideoangle>
                    <activeaudioangle>false</activeaudioangle>
                    <clip id="clip-9"/>
                  </angle>
                  <masterclipid>clip-master</masterclipid>
                </multiclip>
              </clipitem>
              <clipitem id="cs-426">
                <duration>52</duration>
                <rate>
                  <ntsc>false</ntsc>
                  <timebase>25</timebase>
                </rate>
                <in>16887</in>
                <out>16938</out>
                <start>16887</start>
                <end>16938</end>
                <file id="src-3"/>
                <sourcetrack>
                  <mediatype>video</mediatype>
                  <trackindex>1</trackindex>
                </sourcetrack>
                <multiclip id="mcs-426">
                  <name>MCS-426</name>
                  <masterclipid>clip-master</masterclipid>
                  <collapsed>false</collapsed>
                  <angle>
                    <activevideoangle>false</activevideoangle>
                    <activeaudioangle>false</activeaudioangle>
                    <clip id="clip-1"/>
                  </angle>
                  <angle>
                    <activevideoangle>false</activevideoangle>
                    <activeaudioangle>false</activeaudioangle>
                    <clip id="clip-2"/>
                  </angle>
                  <angle>
                    <activevideoangle>true</activevideoangle>
                    <activeaudioangle>true</activeaudioangle>
                    <clip id="clip-3"/>
                  </angle>
                  <angle>
                    <activevideoangle>false</activevideoangle>
                    <activeaudioangle>false</activeaudioangle>
                    <clip id="clip-4"/>
                  </angle>
                  <angle>
                    <activevideoangle>false</activevideoangle>
                    <activeaudioangle>false</activeaudioangle>
                    <clip id="clip-5"/>
                  </angle>
                  <angle>
                    <activevideoangle>false</activevideoangle>
                    <activeaudioangle>false</activeaudioangle>
                    <clip id="clip-6"/>
                  </angle>
                  <angle>
                    <activevideoangle>false</activevideoangle>
                    <activeaudioangle>false</activeaudioangle>
                    <clip id="clip-7"/>
                  </angle>
                  <angle>
                    <activevideoangle>false</activevideoangle>
                    <activeaudioangle>false</activeaudioangle>
                    <clip id="clip-8"/>
                  </angle>
                  <angle>
                    <activevideoangle>false</activevideoangle>
                    <activeaudioangle>false</activeaudioangle>
                    <clip id="clip-9"/>
                  </angle>
                  <masterclipid>clip-master</masterclipid>
                </multiclip>
              </clipitem>
              <clipitem id="cs-427">
                <duration>46</duration>
                <rate>
                  <ntsc>false</ntsc>
                  <timebase>25</timebase>
                </rate>
                <in>16938</in>
                <out>16983</out>
                <start>16938</start>
                <end>16983</end>
                <file id="src-4"/>
                <sourcetrack>
                  <mediatype>video</mediatype>
                  <trackindex>1</trackindex>
                </sourcetrack>
                <multiclip id="mcs-427">
                  <name>MCS-427</name>
                  <masterclipid>clip-master</masterclipid>
                  <collapsed>false</collapsed>
                  <angle>
                    <activevideoangle>false</activevideoangle>
                    <activeaudioangle>false</activeaudioangle>
                    <clip id="clip-1"/>
                  </angle>
                  <angle>
                    <activevideoangle>false</activevideoangle>
                    <activeaudioangle>false</activeaudioangle>
                    <clip id="clip-2"/>
                  </angle>
                  <angle>
                    <activevideoangle>false</activevideoangle>
                    <activeaudioangle>false</activeaudioangle>
                    <clip id="clip-3"/>
                  </angle>
                  <angle>
                    <activevideoangle>true</activevideoangle>
                    <activeaudioangle>true</activeaudioangle>
                    <clip id="clip-4"/>
                  </angle>
                  <angle>
                    <activevideoangle>false</activevideoangle>
                    <activeaudioangle>false</activeaudioangle>
                    <clip id="clip-5"/>
                  </angle>
                  <angle>
                    <activevideoangle>false</activevideoangle>
                    <activeaudioangle>false</activeaudioangle>
                    <clip id="clip-6"/>
                  </angle>
                  <angle>
                    <activevideoangle>false</activevideoangle>
                    <activeaudioangle>false</activeaudioangle>
                    <clip id="clip-7"/>
                  </angle>
                  <angle>
                    <activevideoangle>false</activevideoangle>
                    <activeaudioangle>false</activeaudioangle>
                    <clip id="clip-8"/>
                  </angle>
                  <angle>
                    <activevideoangle>false</activevideoangle>
                    <activeaudioangle>false</activeaudioangle>
                    <clip id="clip-9"/>
                  </angle>
                  <masterclipid>clip-master</masterclipid>
                </multiclip>
              </clipitem>
              <clipitem id="cs-428">
                <duration>47</duration>
                <rate>
                  <ntsc>false</ntsc>
                  <timebase>25</timebase>
                </rate>
                <in>16983</in>
                <out>17029</out>
                <start>16983</start>
                <end>17029</end>
                <file id="src-5"/>
                <sourcetrack>
                  <mediatype>video</mediatype>
                  <trackindex>1</trackindex>
                </sourcetrack>
                <multiclip id="mcs-428">
                  <name>MCS-428</name>
                  <masterclipid>clip-master</masterclipid>
                  <collapsed>false</collapsed>
                  <angle>
                    <activevideoangle>false</activevideoangle>
                    <activeaudioangle>false</activeaudioangle>
                    <clip id="clip-1"/>
                  </angle>
                  <angle>
                    <activevideoangle>false</activevideoangle>
                    <activeaudioangle>false</activeaudioangle>
                    <clip id="clip-2"/>
                  </angle>
                  <angle>
                    <activevideoangle>false</activevideoangle>
                    <activeaudioangle>false</activeaudioangle>
                    <clip id="clip-3"/>
                  </angle>
                  <angle>
                    <activevideoangle>false</activevideoangle>
                    <activeaudioangle>false</activeaudioangle>
                    <clip id="clip-4"/>
                  </angle>
                  <angle>
                    <activevideoangle>true</activevideoangle>
                    <activeaudioangle>true</activeaudioangle>
                    <clip id="clip-5"/>
                  </angle>
                  <angle>
                    <activevideoangle>false</activevideoangle>
                    <activeaudioangle>false</activeaudioangle>
                    <clip id="clip-6"/>
                  </angle>
                  <angle>
                    <activevideoangle>false</activevideoangle>
                    <activeaudioangle>false</activeaudioangle>
                    <clip id="clip-7"/>
                  </angle>
                  <angle>
                    <activevideoangle>false</activevideoangle>
                    <activeaudioangle>false</activeaudioangle>
                    <clip id="clip-8"/>
                  </angle>
                  <angle>
                    <activevideoangle>false</activevideoangle>
                    <activeaudioangle>false</activeaudioangle>
                    <clip id="clip-9"/>
                  </angle>
                  <masterclipid>clip-master</masterclipid>
                </multiclip>
              </clipitem>
              <clipitem id="cs-429">
                <duration>50</duration>
                <rate>
                  <ntsc>false</ntsc>
                  <timebase>25</timebase>
                </rate>
                <in>17029</in>
                <out>17078</out>
                <start>17029</start>
                <end>17078</end>
                <file id="src-3"/>
                <sourcetrack>
                  <mediatype>video</mediatype>
                  <trackindex>1</trackindex>
                </sourcetrack>
                <multiclip id="mcs-429">
                  <name>MCS-429</name>
                  <masterclipid>clip-master</masterclipid>
                  <collapsed>false</collapsed>
                  <angle>
                    <activevideoangle>false</activevideoangle>
                    <activeaudioangle>false</activeaudioangle>
                    <clip id="clip-1"/>
                  </angle>
                  <angle>
                    <activevideoangle>false</activevideoangle>
                    <activeaudioangle>false</activeaudioangle>
                    <clip id="clip-2"/>
                  </angle>
                  <angle>
                    <activevideoangle>true</activevideoangle>
                    <activeaudioangle>true</activeaudioangle>
                    <clip id="clip-3"/>
                  </angle>
                  <angle>
                    <activevideoangle>false</activevideoangle>
                    <activeaudioangle>false</activeaudioangle>
                    <clip id="clip-4"/>
                  </angle>
                  <angle>
                    <activevideoangle>false</activevideoangle>
                    <activeaudioangle>false</activeaudioangle>
                    <clip id="clip-5"/>
                  </angle>
                  <angle>
                    <activevideoangle>false</activevideoangle>
                    <activeaudioangle>false</activeaudioangle>
                    <clip id="clip-6"/>
                  </angle>
                  <angle>
                    <activevideoangle>false</activevideoangle>
                    <activeaudioangle>false</activeaudioangle>
                    <clip id="clip-7"/>
                  </angle>
                  <angle>
                    <activevideoangle>false</activevideoangle>
                    <activeaudioangle>false</activeaudioangle>
                    <clip id="clip-8"/>
                  </angle>
                  <angle>
                    <activevideoangle>false</activevideoangle>
                    <activeaudioangle>false</activeaudioangle>
                    <clip id="clip-9"/>
                  </angle>
                  <masterclipid>clip-master</masterclipid>
                </multiclip>
              </clipitem>
              <clipitem id="cs-430">
                <duration>124</duration>
                <rate>
                  <ntsc>false</ntsc>
                  <timebase>25</timebase>
                </rate>
                <in>17078</in>
                <out>17201</out>
                <start>17078</start>
                <end>17201</end>
                <file id="src-2"/>
                <sourcetrack>
                  <mediatype>video</mediatype>
                  <trackindex>1</trackindex>
                </sourcetrack>
                <multiclip id="mcs-430">
                  <name>MCS-430</name>
                  <masterclipid>clip-master</masterclipid>
                  <collapsed>false</collapsed>
                  <angle>
                    <activevideoangle>false</activevideoangle>
                    <activeaudioangle>false</activeaudioangle>
                    <clip id="clip-1"/>
                  </angle>
                  <angle>
                    <activevideoangle>true</activevideoangle>
                    <activeaudioangle>true</activeaudioangle>
                    <clip id="clip-2"/>
                  </angle>
                  <angle>
                    <activevideoangle>false</activevideoangle>
                    <activeaudioangle>false</activeaudioangle>
                    <clip id="clip-3"/>
                  </angle>
                  <angle>
                    <activevideoangle>false</activevideoangle>
                    <activeaudioangle>false</activeaudioangle>
                    <clip id="clip-4"/>
                  </angle>
                  <angle>
                    <activevideoangle>false</activevideoangle>
                    <activeaudioangle>false</activeaudioangle>
                    <clip id="clip-5"/>
                  </angle>
                  <angle>
                    <activevideoangle>false</activevideoangle>
                    <activeaudioangle>false</activeaudioangle>
                    <clip id="clip-6"/>
                  </angle>
                  <angle>
                    <activevideoangle>false</activevideoangle>
                    <activeaudioangle>false</activeaudioangle>
                    <clip id="clip-7"/>
                  </angle>
                  <angle>
                    <activevideoangle>false</activevideoangle>
                    <activeaudioangle>false</activeaudioangle>
                    <clip id="clip-8"/>
                  </angle>
                  <angle>
                    <activevideoangle>false</activevideoangle>
                    <activeaudioangle>false</activeaudioangle>
                    <clip id="clip-9"/>
                  </angle>
                  <masterclipid>clip-master</masterclipid>
                </multiclip>
              </clipitem>
              <clipitem id="cs-431">
                <duration>54</duration>
                <rate>
                  <ntsc>false</ntsc>
                  <timebase>25</timebase>
                </rate>
                <in>17201</in>
                <out>17254</out>
                <start>17201</start>
                <end>17254</end>
                <file id="src-6"/>
                <sourcetrack>
                  <mediatype>video</mediatype>
                  <trackindex>1</trackindex>
                </sourcetrack>
                <multiclip id="mcs-431">
                  <name>MCS-431</name>
                  <masterclipid>clip-master</masterclipid>
                  <collapsed>false</collapsed>
                  <angle>
                    <activevideoangle>false</activevideoangle>
                    <activeaudioangle>false</activeaudioangle>
                    <clip id="clip-1"/>
                  </angle>
                  <angle>
                    <activevideoangle>false</activevideoangle>
                    <activeaudioangle>false</activeaudioangle>
                    <clip id="clip-2"/>
                  </angle>
                  <angle>
                    <activevideoangle>false</activevideoangle>
                    <activeaudioangle>false</activeaudioangle>
                    <clip id="clip-3"/>
                  </angle>
                  <angle>
                    <activevideoangle>false</activevideoangle>
                    <activeaudioangle>false</activeaudioangle>
                    <clip id="clip-4"/>
                  </angle>
                  <angle>
                    <activevideoangle>false</activevideoangle>
                    <activeaudioangle>false</activeaudioangle>
                    <clip id="clip-5"/>
                  </angle>
                  <angle>
                    <activevideoangle>true</activevideoangle>
                    <activeaudioangle>true</activeaudioangle>
                    <clip id="clip-6"/>
                  </angle>
                  <angle>
                    <activevideoangle>false</activevideoangle>
                    <activeaudioangle>false</activeaudioangle>
                    <clip id="clip-7"/>
                  </angle>
                  <angle>
                    <activevideoangle>false</activevideoangle>
                    <activeaudioangle>false</activeaudioangle>
                    <clip id="clip-8"/>
                  </angle>
                  <angle>
                    <activevideoangle>false</activevideoangle>
                    <activeaudioangle>false</activeaudioangle>
                    <clip id="clip-9"/>
                  </angle>
                  <masterclipid>clip-master</masterclipid>
                </multiclip>
              </clipitem>
              <clipitem id="cs-432">
                <duration>43</duration>
                <rate>
                  <ntsc>false</ntsc>
                  <timebase>25</timebase>
                </rate>
                <in>17254</in>
                <out>17296</out>
                <start>17254</start>
                <end>17296</end>
                <file id="src-4"/>
                <sourcetrack>
                  <mediatype>video</mediatype>
                  <trackindex>1</trackindex>
                </sourcetrack>
                <multiclip id="mcs-432">
                  <name>MCS-432</name>
                  <masterclipid>clip-master</masterclipid>
                  <collapsed>false</collapsed>
                  <angle>
                    <activevideoangle>false</activevideoangle>
                    <activeaudioangle>false</activeaudioangle>
                    <clip id="clip-1"/>
                  </angle>
                  <angle>
                    <activevideoangle>false</activevideoangle>
                    <activeaudioangle>false</activeaudioangle>
                    <clip id="clip-2"/>
                  </angle>
                  <angle>
                    <activevideoangle>false</activevideoangle>
                    <activeaudioangle>false</activeaudioangle>
                    <clip id="clip-3"/>
                  </angle>
                  <angle>
                    <activevideoangle>true</activevideoangle>
                    <activeaudioangle>true</activeaudioangle>
                    <clip id="clip-4"/>
                  </angle>
                  <angle>
                    <activevideoangle>false</activevideoangle>
                    <activeaudioangle>false</activeaudioangle>
                    <clip id="clip-5"/>
                  </angle>
                  <angle>
                    <activevideoangle>false</activevideoangle>
                    <activeaudioangle>false</activeaudioangle>
                    <clip id="clip-6"/>
                  </angle>
                  <angle>
                    <activevideoangle>false</activevideoangle>
                    <activeaudioangle>false</activeaudioangle>
                    <clip id="clip-7"/>
                  </angle>
                  <angle>
                    <activevideoangle>false</activevideoangle>
                    <activeaudioangle>false</activeaudioangle>
                    <clip id="clip-8"/>
                  </angle>
                  <angle>
                    <activevideoangle>false</activevideoangle>
                    <activeaudioangle>false</activeaudioangle>
                    <clip id="clip-9"/>
                  </angle>
                  <masterclipid>clip-master</masterclipid>
                </multiclip>
              </clipitem>
              <clipitem id="cs-433">
                <duration>94</duration>
                <rate>
                  <ntsc>false</ntsc>
                  <timebase>25</timebase>
                </rate>
                <in>17296</in>
                <out>17389</out>
                <start>17296</start>
                <end>17389</end>
                <file id="src-3"/>
                <sourcetrack>
                  <mediatype>video</mediatype>
                  <trackindex>1</trackindex>
                </sourcetrack>
                <multiclip id="mcs-433">
                  <name>MCS-433</name>
                  <masterclipid>clip-master</masterclipid>
                  <collapsed>false</collapsed>
                  <angle>
                    <activevideoangle>false</activevideoangle>
                    <activeaudioangle>false</activeaudioangle>
                    <clip id="clip-1"/>
                  </angle>
                  <angle>
                    <activevideoangle>false</activevideoangle>
                    <activeaudioangle>false</activeaudioangle>
                    <clip id="clip-2"/>
                  </angle>
                  <angle>
                    <activevideoangle>true</activevideoangle>
                    <activeaudioangle>true</activeaudioangle>
                    <clip id="clip-3"/>
                  </angle>
                  <angle>
                    <activevideoangle>false</activevideoangle>
                    <activeaudioangle>false</activeaudioangle>
                    <clip id="clip-4"/>
                  </angle>
                  <angle>
                    <activevideoangle>false</activevideoangle>
                    <activeaudioangle>false</activeaudioangle>
                    <clip id="clip-5"/>
                  </angle>
                  <angle>
                    <activevideoangle>false</activevideoangle>
                    <activeaudioangle>false</activeaudioangle>
                    <clip id="clip-6"/>
                  </angle>
                  <angle>
                    <activevideoangle>false</activevideoangle>
                    <activeaudioangle>false</activeaudioangle>
                    <clip id="clip-7"/>
                  </angle>
                  <angle>
                    <activevideoangle>false</activevideoangle>
                    <activeaudioangle>false</activeaudioangle>
                    <clip id="clip-8"/>
                  </angle>
                  <angle>
                    <activevideoangle>false</activevideoangle>
                    <activeaudioangle>false</activeaudioangle>
                    <clip id="clip-9"/>
                  </angle>
                  <masterclipid>clip-master</masterclipid>
                </multiclip>
              </clipitem>
              <clipitem id="cs-434">
                <duration>37</duration>
                <rate>
                  <ntsc>false</ntsc>
                  <timebase>25</timebase>
                </rate>
                <in>17389</in>
                <out>17425</out>
                <start>17389</start>
                <end>17425</end>
                <file id="src-5"/>
                <sourcetrack>
                  <mediatype>video</mediatype>
                  <trackindex>1</trackindex>
                </sourcetrack>
                <multiclip id="mcs-434">
                  <name>MCS-434</name>
                  <masterclipid>clip-master</masterclipid>
                  <collapsed>false</collapsed>
                  <angle>
                    <activevideoangle>false</activevideoangle>
                    <activeaudioangle>false</activeaudioangle>
                    <clip id="clip-1"/>
                  </angle>
                  <angle>
                    <activevideoangle>false</activevideoangle>
                    <activeaudioangle>false</activeaudioangle>
                    <clip id="clip-2"/>
                  </angle>
                  <angle>
                    <activevideoangle>false</activevideoangle>
                    <activeaudioangle>false</activeaudioangle>
                    <clip id="clip-3"/>
                  </angle>
                  <angle>
                    <activevideoangle>false</activevideoangle>
                    <activeaudioangle>false</activeaudioangle>
                    <clip id="clip-4"/>
                  </angle>
                  <angle>
                    <activevideoangle>true</activevideoangle>
                    <activeaudioangle>true</activeaudioangle>
                    <clip id="clip-5"/>
                  </angle>
                  <angle>
                    <activevideoangle>false</activevideoangle>
                    <activeaudioangle>false</activeaudioangle>
                    <clip id="clip-6"/>
                  </angle>
                  <angle>
                    <activevideoangle>false</activevideoangle>
                    <activeaudioangle>false</activeaudioangle>
                    <clip id="clip-7"/>
                  </angle>
                  <angle>
                    <activevideoangle>false</activevideoangle>
                    <activeaudioangle>false</activeaudioangle>
                    <clip id="clip-8"/>
                  </angle>
                  <angle>
                    <activevideoangle>false</activevideoangle>
                    <activeaudioangle>false</activeaudioangle>
                    <clip id="clip-9"/>
                  </angle>
                  <masterclipid>clip-master</masterclipid>
                </multiclip>
              </clipitem>
              <clipitem id="cs-435">
                <duration>63</duration>
                <rate>
                  <ntsc>false</ntsc>
                  <timebase>25</timebase>
                </rate>
                <in>17425</in>
                <out>17487</out>
                <start>17425</start>
                <end>17487</end>
                <file id="src-2"/>
                <sourcetrack>
                  <mediatype>video</mediatype>
                  <trackindex>1</trackindex>
                </sourcetrack>
                <multiclip id="mcs-435">
                  <name>MCS-435</name>
                  <masterclipid>clip-master</masterclipid>
                  <collapsed>false</collapsed>
                  <angle>
                    <activevideoangle>false</activevideoangle>
                    <activeaudioangle>false</activeaudioangle>
                    <clip id="clip-1"/>
                  </angle>
                  <angle>
                    <activevideoangle>true</activevideoangle>
                    <activeaudioangle>true</activeaudioangle>
                    <clip id="clip-2"/>
                  </angle>
                  <angle>
                    <activevideoangle>false</activevideoangle>
                    <activeaudioangle>false</activeaudioangle>
                    <clip id="clip-3"/>
                  </angle>
                  <angle>
                    <activevideoangle>false</activevideoangle>
                    <activeaudioangle>false</activeaudioangle>
                    <clip id="clip-4"/>
                  </angle>
                  <angle>
                    <activevideoangle>false</activevideoangle>
                    <activeaudioangle>false</activeaudioangle>
                    <clip id="clip-5"/>
                  </angle>
                  <angle>
                    <activevideoangle>false</activevideoangle>
                    <activeaudioangle>false</activeaudioangle>
                    <clip id="clip-6"/>
                  </angle>
                  <angle>
                    <activevideoangle>false</activevideoangle>
                    <activeaudioangle>false</activeaudioangle>
                    <clip id="clip-7"/>
                  </angle>
                  <angle>
                    <activevideoangle>false</activevideoangle>
                    <activeaudioangle>false</activeaudioangle>
                    <clip id="clip-8"/>
                  </angle>
                  <angle>
                    <activevideoangle>false</activevideoangle>
                    <activeaudioangle>false</activeaudioangle>
                    <clip id="clip-9"/>
                  </angle>
                  <masterclipid>clip-master</masterclipid>
                </multiclip>
              </clipitem>
              <clipitem id="cs-436">
                <duration>72</duration>
                <rate>
                  <ntsc>false</ntsc>
                  <timebase>25</timebase>
                </rate>
                <in>17487</in>
                <out>17558</out>
                <start>17487</start>
                <end>17558</end>
                <file id="src-3"/>
                <sourcetrack>
                  <mediatype>video</mediatype>
                  <trackindex>1</trackindex>
                </sourcetrack>
                <multiclip id="mcs-436">
                  <name>MCS-436</name>
                  <masterclipid>clip-master</masterclipid>
                  <collapsed>false</collapsed>
                  <angle>
                    <activevideoangle>false</activevideoangle>
                    <activeaudioangle>false</activeaudioangle>
                    <clip id="clip-1"/>
                  </angle>
                  <angle>
                    <activevideoangle>false</activevideoangle>
                    <activeaudioangle>false</activeaudioangle>
                    <clip id="clip-2"/>
                  </angle>
                  <angle>
                    <activevideoangle>true</activevideoangle>
                    <activeaudioangle>true</activeaudioangle>
                    <clip id="clip-3"/>
                  </angle>
                  <angle>
                    <activevideoangle>false</activevideoangle>
                    <activeaudioangle>false</activeaudioangle>
                    <clip id="clip-4"/>
                  </angle>
                  <angle>
                    <activevideoangle>false</activevideoangle>
                    <activeaudioangle>false</activeaudioangle>
                    <clip id="clip-5"/>
                  </angle>
                  <angle>
                    <activevideoangle>false</activevideoangle>
                    <activeaudioangle>false</activeaudioangle>
                    <clip id="clip-6"/>
                  </angle>
                  <angle>
                    <activevideoangle>false</activevideoangle>
                    <activeaudioangle>false</activeaudioangle>
                    <clip id="clip-7"/>
                  </angle>
                  <angle>
                    <activevideoangle>false</activevideoangle>
                    <activeaudioangle>false</activeaudioangle>
                    <clip id="clip-8"/>
                  </angle>
                  <angle>
                    <activevideoangle>false</activevideoangle>
                    <activeaudioangle>false</activeaudioangle>
                    <clip id="clip-9"/>
                  </angle>
                  <masterclipid>clip-master</masterclipid>
                </multiclip>
              </clipitem>
              <clipitem id="cs-437">
                <duration>59</duration>
                <rate>
                  <ntsc>false</ntsc>
                  <timebase>25</timebase>
                </rate>
                <in>17558</in>
                <out>17616</out>
                <start>17558</start>
                <end>17616</end>
                <file id="src-4"/>
                <sourcetrack>
                  <mediatype>video</mediatype>
                  <trackindex>1</trackindex>
                </sourcetrack>
                <multiclip id="mcs-437">
                  <name>MCS-437</name>
                  <masterclipid>clip-master</masterclipid>
                  <collapsed>false</collapsed>
                  <angle>
                    <activevideoangle>false</activevideoangle>
                    <activeaudioangle>false</activeaudioangle>
                    <clip id="clip-1"/>
                  </angle>
                  <angle>
                    <activevideoangle>false</activevideoangle>
                    <activeaudioangle>false</activeaudioangle>
                    <clip id="clip-2"/>
                  </angle>
                  <angle>
                    <activevideoangle>false</activevideoangle>
                    <activeaudioangle>false</activeaudioangle>
                    <clip id="clip-3"/>
                  </angle>
                  <angle>
                    <activevideoangle>true</activevideoangle>
                    <activeaudioangle>true</activeaudioangle>
                    <clip id="clip-4"/>
                  </angle>
                  <angle>
                    <activevideoangle>false</activevideoangle>
                    <activeaudioangle>false</activeaudioangle>
                    <clip id="clip-5"/>
                  </angle>
                  <angle>
                    <activevideoangle>false</activevideoangle>
                    <activeaudioangle>false</activeaudioangle>
                    <clip id="clip-6"/>
                  </angle>
                  <angle>
                    <activevideoangle>false</activevideoangle>
                    <activeaudioangle>false</activeaudioangle>
                    <clip id="clip-7"/>
                  </angle>
                  <angle>
                    <activevideoangle>false</activevideoangle>
                    <activeaudioangle>false</activeaudioangle>
                    <clip id="clip-8"/>
                  </angle>
                  <angle>
                    <activevideoangle>false</activevideoangle>
                    <activeaudioangle>false</activeaudioangle>
                    <clip id="clip-9"/>
                  </angle>
                  <masterclipid>clip-master</masterclipid>
                </multiclip>
              </clipitem>
              <clipitem id="cs-438">
                <duration>90</duration>
                <rate>
                  <ntsc>false</ntsc>
                  <timebase>25</timebase>
                </rate>
                <in>17616</in>
                <out>17705</out>
                <start>17616</start>
                <end>17705</end>
                <file id="src-3"/>
                <sourcetrack>
                  <mediatype>video</mediatype>
                  <trackindex>1</trackindex>
                </sourcetrack>
                <multiclip id="mcs-438">
                  <name>MCS-438</name>
                  <masterclipid>clip-master</masterclipid>
                  <collapsed>false</collapsed>
                  <angle>
                    <activevideoangle>false</activevideoangle>
                    <activeaudioangle>false</activeaudioangle>
                    <clip id="clip-1"/>
                  </angle>
                  <angle>
                    <activevideoangle>false</activevideoangle>
                    <activeaudioangle>false</activeaudioangle>
                    <clip id="clip-2"/>
                  </angle>
                  <angle>
                    <activevideoangle>true</activevideoangle>
                    <activeaudioangle>true</activeaudioangle>
                    <clip id="clip-3"/>
                  </angle>
                  <angle>
                    <activevideoangle>false</activevideoangle>
                    <activeaudioangle>false</activeaudioangle>
                    <clip id="clip-4"/>
                  </angle>
                  <angle>
                    <activevideoangle>false</activevideoangle>
                    <activeaudioangle>false</activeaudioangle>
                    <clip id="clip-5"/>
                  </angle>
                  <angle>
                    <activevideoangle>false</activevideoangle>
                    <activeaudioangle>false</activeaudioangle>
                    <clip id="clip-6"/>
                  </angle>
                  <angle>
                    <activevideoangle>false</activevideoangle>
                    <activeaudioangle>false</activeaudioangle>
                    <clip id="clip-7"/>
                  </angle>
                  <angle>
                    <activevideoangle>false</activevideoangle>
                    <activeaudioangle>false</activeaudioangle>
                    <clip id="clip-8"/>
                  </angle>
                  <angle>
                    <activevideoangle>false</activevideoangle>
                    <activeaudioangle>false</activeaudioangle>
                    <clip id="clip-9"/>
                  </angle>
                  <masterclipid>clip-master</masterclipid>
                </multiclip>
              </clipitem>
              <clipitem id="cs-439">
                <duration>64</duration>
                <rate>
                  <ntsc>false</ntsc>
                  <timebase>25</timebase>
                </rate>
                <in>17705</in>
                <out>17768</out>
                <start>17705</start>
                <end>17768</end>
                <file id="src-2"/>
                <sourcetrack>
                  <mediatype>video</mediatype>
                  <trackindex>1</trackindex>
                </sourcetrack>
                <multiclip id="mcs-439">
                  <name>MCS-439</name>
                  <masterclipid>clip-master</masterclipid>
                  <collapsed>false</collapsed>
                  <angle>
                    <activevideoangle>false</activevideoangle>
                    <activeaudioangle>false</activeaudioangle>
                    <clip id="clip-1"/>
                  </angle>
                  <angle>
                    <activevideoangle>true</activevideoangle>
                    <activeaudioangle>true</activeaudioangle>
                    <clip id="clip-2"/>
                  </angle>
                  <angle>
                    <activevideoangle>false</activevideoangle>
                    <activeaudioangle>false</activeaudioangle>
                    <clip id="clip-3"/>
                  </angle>
                  <angle>
                    <activevideoangle>false</activevideoangle>
                    <activeaudioangle>false</activeaudioangle>
                    <clip id="clip-4"/>
                  </angle>
                  <angle>
                    <activevideoangle>false</activevideoangle>
                    <activeaudioangle>false</activeaudioangle>
                    <clip id="clip-5"/>
                  </angle>
                  <angle>
                    <activevideoangle>false</activevideoangle>
                    <activeaudioangle>false</activeaudioangle>
                    <clip id="clip-6"/>
                  </angle>
                  <angle>
                    <activevideoangle>false</activevideoangle>
                    <activeaudioangle>false</activeaudioangle>
                    <clip id="clip-7"/>
                  </angle>
                  <angle>
                    <activevideoangle>false</activevideoangle>
                    <activeaudioangle>false</activeaudioangle>
                    <clip id="clip-8"/>
                  </angle>
                  <angle>
                    <activevideoangle>false</activevideoangle>
                    <activeaudioangle>false</activeaudioangle>
                    <clip id="clip-9"/>
                  </angle>
                  <masterclipid>clip-master</masterclipid>
                </multiclip>
              </clipitem>
              <clipitem id="cs-440">
                <duration>66</duration>
                <rate>
                  <ntsc>false</ntsc>
                  <timebase>25</timebase>
                </rate>
                <in>17768</in>
                <out>17833</out>
                <start>17768</start>
                <end>17833</end>
                <file id="src-4"/>
                <sourcetrack>
                  <mediatype>video</mediatype>
                  <trackindex>1</trackindex>
                </sourcetrack>
                <multiclip id="mcs-440">
                  <name>MCS-440</name>
                  <masterclipid>clip-master</masterclipid>
                  <collapsed>false</collapsed>
                  <angle>
                    <activevideoangle>false</activevideoangle>
                    <activeaudioangle>false</activeaudioangle>
                    <clip id="clip-1"/>
                  </angle>
                  <angle>
                    <activevideoangle>false</activevideoangle>
                    <activeaudioangle>false</activeaudioangle>
                    <clip id="clip-2"/>
                  </angle>
                  <angle>
                    <activevideoangle>false</activevideoangle>
                    <activeaudioangle>false</activeaudioangle>
                    <clip id="clip-3"/>
                  </angle>
                  <angle>
                    <activevideoangle>true</activevideoangle>
                    <activeaudioangle>true</activeaudioangle>
                    <clip id="clip-4"/>
                  </angle>
                  <angle>
                    <activevideoangle>false</activevideoangle>
                    <activeaudioangle>false</activeaudioangle>
                    <clip id="clip-5"/>
                  </angle>
                  <angle>
                    <activevideoangle>false</activevideoangle>
                    <activeaudioangle>false</activeaudioangle>
                    <clip id="clip-6"/>
                  </angle>
                  <angle>
                    <activevideoangle>false</activevideoangle>
                    <activeaudioangle>false</activeaudioangle>
                    <clip id="clip-7"/>
                  </angle>
                  <angle>
                    <activevideoangle>false</activevideoangle>
                    <activeaudioangle>false</activeaudioangle>
                    <clip id="clip-8"/>
                  </angle>
                  <angle>
                    <activevideoangle>false</activevideoangle>
                    <activeaudioangle>false</activeaudioangle>
                    <clip id="clip-9"/>
                  </angle>
                  <masterclipid>clip-master</masterclipid>
                </multiclip>
              </clipitem>
              <clipitem id="cs-441">
                <duration>72</duration>
                <rate>
                  <ntsc>false</ntsc>
                  <timebase>25</timebase>
                </rate>
                <in>17833</in>
                <out>17904</out>
                <start>17833</start>
                <end>17904</end>
                <file id="src-5"/>
                <sourcetrack>
                  <mediatype>video</mediatype>
                  <trackindex>1</trackindex>
                </sourcetrack>
                <multiclip id="mcs-441">
                  <name>MCS-441</name>
                  <masterclipid>clip-master</masterclipid>
                  <collapsed>false</collapsed>
                  <angle>
                    <activevideoangle>false</activevideoangle>
                    <activeaudioangle>false</activeaudioangle>
                    <clip id="clip-1"/>
                  </angle>
                  <angle>
                    <activevideoangle>false</activevideoangle>
                    <activeaudioangle>false</activeaudioangle>
                    <clip id="clip-2"/>
                  </angle>
                  <angle>
                    <activevideoangle>false</activevideoangle>
                    <activeaudioangle>false</activeaudioangle>
                    <clip id="clip-3"/>
                  </angle>
                  <angle>
                    <activevideoangle>false</activevideoangle>
                    <activeaudioangle>false</activeaudioangle>
                    <clip id="clip-4"/>
                  </angle>
                  <angle>
                    <activevideoangle>true</activevideoangle>
                    <activeaudioangle>true</activeaudioangle>
                    <clip id="clip-5"/>
                  </angle>
                  <angle>
                    <activevideoangle>false</activevideoangle>
                    <activeaudioangle>false</activeaudioangle>
                    <clip id="clip-6"/>
                  </angle>
                  <angle>
                    <activevideoangle>false</activevideoangle>
                    <activeaudioangle>false</activeaudioangle>
                    <clip id="clip-7"/>
                  </angle>
                  <angle>
                    <activevideoangle>false</activevideoangle>
                    <activeaudioangle>false</activeaudioangle>
                    <clip id="clip-8"/>
                  </angle>
                  <angle>
                    <activevideoangle>false</activevideoangle>
                    <activeaudioangle>false</activeaudioangle>
                    <clip id="clip-9"/>
                  </angle>
                  <masterclipid>clip-master</masterclipid>
                </multiclip>
              </clipitem>
              <clipitem id="cs-442">
                <duration>57</duration>
                <rate>
                  <ntsc>false</ntsc>
                  <timebase>25</timebase>
                </rate>
                <in>17904</in>
                <out>17960</out>
                <start>17904</start>
                <end>17960</end>
                <file id="src-4"/>
                <sourcetrack>
                  <mediatype>video</mediatype>
                  <trackindex>1</trackindex>
                </sourcetrack>
                <multiclip id="mcs-442">
                  <name>MCS-442</name>
                  <masterclipid>clip-master</masterclipid>
                  <collapsed>false</collapsed>
                  <angle>
                    <activevideoangle>false</activevideoangle>
                    <activeaudioangle>false</activeaudioangle>
                    <clip id="clip-1"/>
                  </angle>
                  <angle>
                    <activevideoangle>false</activevideoangle>
                    <activeaudioangle>false</activeaudioangle>
                    <clip id="clip-2"/>
                  </angle>
                  <angle>
                    <activevideoangle>false</activevideoangle>
                    <activeaudioangle>false</activeaudioangle>
                    <clip id="clip-3"/>
                  </angle>
                  <angle>
                    <activevideoangle>true</activevideoangle>
                    <activeaudioangle>true</activeaudioangle>
                    <clip id="clip-4"/>
                  </angle>
                  <angle>
                    <activevideoangle>false</activevideoangle>
                    <activeaudioangle>false</activeaudioangle>
                    <clip id="clip-5"/>
                  </angle>
                  <angle>
                    <activevideoangle>false</activevideoangle>
                    <activeaudioangle>false</activeaudioangle>
                    <clip id="clip-6"/>
                  </angle>
                  <angle>
                    <activevideoangle>false</activevideoangle>
                    <activeaudioangle>false</activeaudioangle>
                    <clip id="clip-7"/>
                  </angle>
                  <angle>
                    <activevideoangle>false</activevideoangle>
                    <activeaudioangle>false</activeaudioangle>
                    <clip id="clip-8"/>
                  </angle>
                  <angle>
                    <activevideoangle>false</activevideoangle>
                    <activeaudioangle>false</activeaudioangle>
                    <clip id="clip-9"/>
                  </angle>
                  <masterclipid>clip-master</masterclipid>
                </multiclip>
              </clipitem>
              <clipitem id="cs-443">
                <duration>89</duration>
                <rate>
                  <ntsc>false</ntsc>
                  <timebase>25</timebase>
                </rate>
                <in>17960</in>
                <out>18048</out>
                <start>17960</start>
                <end>18048</end>
                <file id="src-3"/>
                <sourcetrack>
                  <mediatype>video</mediatype>
                  <trackindex>1</trackindex>
                </sourcetrack>
                <multiclip id="mcs-443">
                  <name>MCS-443</name>
                  <masterclipid>clip-master</masterclipid>
                  <collapsed>false</collapsed>
                  <angle>
                    <activevideoangle>false</activevideoangle>
                    <activeaudioangle>false</activeaudioangle>
                    <clip id="clip-1"/>
                  </angle>
                  <angle>
                    <activevideoangle>false</activevideoangle>
                    <activeaudioangle>false</activeaudioangle>
                    <clip id="clip-2"/>
                  </angle>
                  <angle>
                    <activevideoangle>true</activevideoangle>
                    <activeaudioangle>true</activeaudioangle>
                    <clip id="clip-3"/>
                  </angle>
                  <angle>
                    <activevideoangle>false</activevideoangle>
                    <activeaudioangle>false</activeaudioangle>
                    <clip id="clip-4"/>
                  </angle>
                  <angle>
                    <activevideoangle>false</activevideoangle>
                    <activeaudioangle>false</activeaudioangle>
                    <clip id="clip-5"/>
                  </angle>
                  <angle>
                    <activevideoangle>false</activevideoangle>
                    <activeaudioangle>false</activeaudioangle>
                    <clip id="clip-6"/>
                  </angle>
                  <angle>
                    <activevideoangle>false</activevideoangle>
                    <activeaudioangle>false</activeaudioangle>
                    <clip id="clip-7"/>
                  </angle>
                  <angle>
                    <activevideoangle>false</activevideoangle>
                    <activeaudioangle>false</activeaudioangle>
                    <clip id="clip-8"/>
                  </angle>
                  <angle>
                    <activevideoangle>false</activevideoangle>
                    <activeaudioangle>false</activeaudioangle>
                    <clip id="clip-9"/>
                  </angle>
                  <masterclipid>clip-master</masterclipid>
                </multiclip>
              </clipitem>
              <clipitem id="cs-444">
                <duration>55</duration>
                <rate>
                  <ntsc>false</ntsc>
                  <timebase>25</timebase>
                </rate>
                <in>18048</in>
                <out>18102</out>
                <start>18048</start>
                <end>18102</end>
                <file id="src-5"/>
                <sourcetrack>
                  <mediatype>video</mediatype>
                  <trackindex>1</trackindex>
                </sourcetrack>
                <multiclip id="mcs-444">
                  <name>MCS-444</name>
                  <masterclipid>clip-master</masterclipid>
                  <collapsed>false</collapsed>
                  <angle>
                    <activevideoangle>false</activevideoangle>
                    <activeaudioangle>false</activeaudioangle>
                    <clip id="clip-1"/>
                  </angle>
                  <angle>
                    <activevideoangle>false</activevideoangle>
                    <activeaudioangle>false</activeaudioangle>
                    <clip id="clip-2"/>
                  </angle>
                  <angle>
                    <activevideoangle>false</activevideoangle>
                    <activeaudioangle>false</activeaudioangle>
                    <clip id="clip-3"/>
                  </angle>
                  <angle>
                    <activevideoangle>false</activevideoangle>
                    <activeaudioangle>false</activeaudioangle>
                    <clip id="clip-4"/>
                  </angle>
                  <angle>
                    <activevideoangle>true</activevideoangle>
                    <activeaudioangle>true</activeaudioangle>
                    <clip id="clip-5"/>
                  </angle>
                  <angle>
                    <activevideoangle>false</activevideoangle>
                    <activeaudioangle>false</activeaudioangle>
                    <clip id="clip-6"/>
                  </angle>
                  <angle>
                    <activevideoangle>false</activevideoangle>
                    <activeaudioangle>false</activeaudioangle>
                    <clip id="clip-7"/>
                  </angle>
                  <angle>
                    <activevideoangle>false</activevideoangle>
                    <activeaudioangle>false</activeaudioangle>
                    <clip id="clip-8"/>
                  </angle>
                  <angle>
                    <activevideoangle>false</activevideoangle>
                    <activeaudioangle>false</activeaudioangle>
                    <clip id="clip-9"/>
                  </angle>
                  <masterclipid>clip-master</masterclipid>
                </multiclip>
              </clipitem>
              <clipitem id="cs-445">
                <duration>245</duration>
                <rate>
                  <ntsc>false</ntsc>
                  <timebase>25</timebase>
                </rate>
                <in>18102</in>
                <out>18346</out>
                <start>18102</start>
                <end>18346</end>
                <file id="src-2"/>
                <sourcetrack>
                  <mediatype>video</mediatype>
                  <trackindex>1</trackindex>
                </sourcetrack>
                <multiclip id="mcs-445">
                  <name>MCS-445</name>
                  <masterclipid>clip-master</masterclipid>
                  <collapsed>false</collapsed>
                  <angle>
                    <activevideoangle>false</activevideoangle>
                    <activeaudioangle>false</activeaudioangle>
                    <clip id="clip-1"/>
                  </angle>
                  <angle>
                    <activevideoangle>true</activevideoangle>
                    <activeaudioangle>true</activeaudioangle>
                    <clip id="clip-2"/>
                  </angle>
                  <angle>
                    <activevideoangle>false</activevideoangle>
                    <activeaudioangle>false</activeaudioangle>
                    <clip id="clip-3"/>
                  </angle>
                  <angle>
                    <activevideoangle>false</activevideoangle>
                    <activeaudioangle>false</activeaudioangle>
                    <clip id="clip-4"/>
                  </angle>
                  <angle>
                    <activevideoangle>false</activevideoangle>
                    <activeaudioangle>false</activeaudioangle>
                    <clip id="clip-5"/>
                  </angle>
                  <angle>
                    <activevideoangle>false</activevideoangle>
                    <activeaudioangle>false</activeaudioangle>
                    <clip id="clip-6"/>
                  </angle>
                  <angle>
                    <activevideoangle>false</activevideoangle>
                    <activeaudioangle>false</activeaudioangle>
                    <clip id="clip-7"/>
                  </angle>
                  <angle>
                    <activevideoangle>false</activevideoangle>
                    <activeaudioangle>false</activeaudioangle>
                    <clip id="clip-8"/>
                  </angle>
                  <angle>
                    <activevideoangle>false</activevideoangle>
                    <activeaudioangle>false</activeaudioangle>
                    <clip id="clip-9"/>
                  </angle>
                  <masterclipid>clip-master</masterclipid>
                </multiclip>
              </clipitem>
              <clipitem id="cs-446">
                <duration>148</duration>
                <rate>
                  <ntsc>false</ntsc>
                  <timebase>25</timebase>
                </rate>
                <in>18346</in>
                <out>18493</out>
                <start>18346</start>
                <end>18493</end>
                <file id="src-5"/>
                <sourcetrack>
                  <mediatype>video</mediatype>
                  <trackindex>1</trackindex>
                </sourcetrack>
                <multiclip id="mcs-446">
                  <name>MCS-446</name>
                  <masterclipid>clip-master</masterclipid>
                  <collapsed>false</collapsed>
                  <angle>
                    <activevideoangle>false</activevideoangle>
                    <activeaudioangle>false</activeaudioangle>
                    <clip id="clip-1"/>
                  </angle>
                  <angle>
                    <activevideoangle>false</activevideoangle>
                    <activeaudioangle>false</activeaudioangle>
                    <clip id="clip-2"/>
                  </angle>
                  <angle>
                    <activevideoangle>false</activevideoangle>
                    <activeaudioangle>false</activeaudioangle>
                    <clip id="clip-3"/>
                  </angle>
                  <angle>
                    <activevideoangle>false</activevideoangle>
                    <activeaudioangle>false</activeaudioangle>
                    <clip id="clip-4"/>
                  </angle>
                  <angle>
                    <activevideoangle>true</activevideoangle>
                    <activeaudioangle>true</activeaudioangle>
                    <clip id="clip-5"/>
                  </angle>
                  <angle>
                    <activevideoangle>false</activevideoangle>
                    <activeaudioangle>false</activeaudioangle>
                    <clip id="clip-6"/>
                  </angle>
                  <angle>
                    <activevideoangle>false</activevideoangle>
                    <activeaudioangle>false</activeaudioangle>
                    <clip id="clip-7"/>
                  </angle>
                  <angle>
                    <activevideoangle>false</activevideoangle>
                    <activeaudioangle>false</activeaudioangle>
                    <clip id="clip-8"/>
                  </angle>
                  <angle>
                    <activevideoangle>false</activevideoangle>
                    <activeaudioangle>false</activeaudioangle>
                    <clip id="clip-9"/>
                  </angle>
                  <masterclipid>clip-master</masterclipid>
                </multiclip>
              </clipitem>
              <clipitem id="cs-447">
                <duration>176</duration>
                <rate>
                  <ntsc>false</ntsc>
                  <timebase>25</timebase>
                </rate>
                <in>18493</in>
                <out>18668</out>
                <start>18493</start>
                <end>18668</end>
                <file id="src-3"/>
                <sourcetrack>
                  <mediatype>video</mediatype>
                  <trackindex>1</trackindex>
                </sourcetrack>
                <multiclip id="mcs-447">
                  <name>MCS-447</name>
                  <masterclipid>clip-master</masterclipid>
                  <collapsed>false</collapsed>
                  <angle>
                    <activevideoangle>false</activevideoangle>
                    <activeaudioangle>false</activeaudioangle>
                    <clip id="clip-1"/>
                  </angle>
                  <angle>
                    <activevideoangle>false</activevideoangle>
                    <activeaudioangle>false</activeaudioangle>
                    <clip id="clip-2"/>
                  </angle>
                  <angle>
                    <activevideoangle>true</activevideoangle>
                    <activeaudioangle>true</activeaudioangle>
                    <clip id="clip-3"/>
                  </angle>
                  <angle>
                    <activevideoangle>false</activevideoangle>
                    <activeaudioangle>false</activeaudioangle>
                    <clip id="clip-4"/>
                  </angle>
                  <angle>
                    <activevideoangle>false</activevideoangle>
                    <activeaudioangle>false</activeaudioangle>
                    <clip id="clip-5"/>
                  </angle>
                  <angle>
                    <activevideoangle>false</activevideoangle>
                    <activeaudioangle>false</activeaudioangle>
                    <clip id="clip-6"/>
                  </angle>
                  <angle>
                    <activevideoangle>false</activevideoangle>
                    <activeaudioangle>false</activeaudioangle>
                    <clip id="clip-7"/>
                  </angle>
                  <angle>
                    <activevideoangle>false</activevideoangle>
                    <activeaudioangle>false</activeaudioangle>
                    <clip id="clip-8"/>
                  </angle>
                  <angle>
                    <activevideoangle>false</activevideoangle>
                    <activeaudioangle>false</activeaudioangle>
                    <clip id="clip-9"/>
                  </angle>
                  <masterclipid>clip-master</masterclipid>
                </multiclip>
              </clipitem>
              <clipitem id="cs-448">
                <duration>74</duration>
                <rate>
                  <ntsc>false</ntsc>
                  <timebase>25</timebase>
                </rate>
                <in>18668</in>
                <out>18741</out>
                <start>18668</start>
                <end>18741</end>
                <file id="src-5"/>
                <sourcetrack>
                  <mediatype>video</mediatype>
                  <trackindex>1</trackindex>
                </sourcetrack>
                <multiclip id="mcs-448">
                  <name>MCS-448</name>
                  <masterclipid>clip-master</masterclipid>
                  <collapsed>false</collapsed>
                  <angle>
                    <activevideoangle>false</activevideoangle>
                    <activeaudioangle>false</activeaudioangle>
                    <clip id="clip-1"/>
                  </angle>
                  <angle>
                    <activevideoangle>false</activevideoangle>
                    <activeaudioangle>false</activeaudioangle>
                    <clip id="clip-2"/>
                  </angle>
                  <angle>
                    <activevideoangle>false</activevideoangle>
                    <activeaudioangle>false</activeaudioangle>
                    <clip id="clip-3"/>
                  </angle>
                  <angle>
                    <activevideoangle>false</activevideoangle>
                    <activeaudioangle>false</activeaudioangle>
                    <clip id="clip-4"/>
                  </angle>
                  <angle>
                    <activevideoangle>true</activevideoangle>
                    <activeaudioangle>true</activeaudioangle>
                    <clip id="clip-5"/>
                  </angle>
                  <angle>
                    <activevideoangle>false</activevideoangle>
                    <activeaudioangle>false</activeaudioangle>
                    <clip id="clip-6"/>
                  </angle>
                  <angle>
                    <activevideoangle>false</activevideoangle>
                    <activeaudioangle>false</activeaudioangle>
                    <clip id="clip-7"/>
                  </angle>
                  <angle>
                    <activevideoangle>false</activevideoangle>
                    <activeaudioangle>false</activeaudioangle>
                    <clip id="clip-8"/>
                  </angle>
                  <angle>
                    <activevideoangle>false</activevideoangle>
                    <activeaudioangle>false</activeaudioangle>
                    <clip id="clip-9"/>
                  </angle>
                  <masterclipid>clip-master</masterclipid>
                </multiclip>
              </clipitem>
              <clipitem id="cs-449">
                <duration>71</duration>
                <rate>
                  <ntsc>false</ntsc>
                  <timebase>25</timebase>
                </rate>
                <in>18741</in>
                <out>18811</out>
                <start>18741</start>
                <end>18811</end>
                <file id="src-2"/>
                <sourcetrack>
                  <mediatype>video</mediatype>
                  <trackindex>1</trackindex>
                </sourcetrack>
                <multiclip id="mcs-449">
                  <name>MCS-449</name>
                  <masterclipid>clip-master</masterclipid>
                  <collapsed>false</collapsed>
                  <angle>
                    <activevideoangle>false</activevideoangle>
                    <activeaudioangle>false</activeaudioangle>
                    <clip id="clip-1"/>
                  </angle>
                  <angle>
                    <activevideoangle>true</activevideoangle>
                    <activeaudioangle>true</activeaudioangle>
                    <clip id="clip-2"/>
                  </angle>
                  <angle>
                    <activevideoangle>false</activevideoangle>
                    <activeaudioangle>false</activeaudioangle>
                    <clip id="clip-3"/>
                  </angle>
                  <angle>
                    <activevideoangle>false</activevideoangle>
                    <activeaudioangle>false</activeaudioangle>
                    <clip id="clip-4"/>
                  </angle>
                  <angle>
                    <activevideoangle>false</activevideoangle>
                    <activeaudioangle>false</activeaudioangle>
                    <clip id="clip-5"/>
                  </angle>
                  <angle>
                    <activevideoangle>false</activevideoangle>
                    <activeaudioangle>false</activeaudioangle>
                    <clip id="clip-6"/>
                  </angle>
                  <angle>
                    <activevideoangle>false</activevideoangle>
                    <activeaudioangle>false</activeaudioangle>
                    <clip id="clip-7"/>
                  </angle>
                  <angle>
                    <activevideoangle>false</activevideoangle>
                    <activeaudioangle>false</activeaudioangle>
                    <clip id="clip-8"/>
                  </angle>
                  <angle>
                    <activevideoangle>false</activevideoangle>
                    <activeaudioangle>false</activeaudioangle>
                    <clip id="clip-9"/>
                  </angle>
                  <masterclipid>clip-master</masterclipid>
                </multiclip>
              </clipitem>
              <clipitem id="cs-450">
                <duration>45</duration>
                <rate>
                  <ntsc>false</ntsc>
                  <timebase>25</timebase>
                </rate>
                <in>18811</in>
                <out>18855</out>
                <start>18811</start>
                <end>18855</end>
                <file id="src-3"/>
                <sourcetrack>
                  <mediatype>video</mediatype>
                  <trackindex>1</trackindex>
                </sourcetrack>
                <multiclip id="mcs-450">
                  <name>MCS-450</name>
                  <masterclipid>clip-master</masterclipid>
                  <collapsed>false</collapsed>
                  <angle>
                    <activevideoangle>false</activevideoangle>
                    <activeaudioangle>false</activeaudioangle>
                    <clip id="clip-1"/>
                  </angle>
                  <angle>
                    <activevideoangle>false</activevideoangle>
                    <activeaudioangle>false</activeaudioangle>
                    <clip id="clip-2"/>
                  </angle>
                  <angle>
                    <activevideoangle>true</activevideoangle>
                    <activeaudioangle>true</activeaudioangle>
                    <clip id="clip-3"/>
                  </angle>
                  <angle>
                    <activevideoangle>false</activevideoangle>
                    <activeaudioangle>false</activeaudioangle>
                    <clip id="clip-4"/>
                  </angle>
                  <angle>
                    <activevideoangle>false</activevideoangle>
                    <activeaudioangle>false</activeaudioangle>
                    <clip id="clip-5"/>
                  </angle>
                  <angle>
                    <activevideoangle>false</activevideoangle>
                    <activeaudioangle>false</activeaudioangle>
                    <clip id="clip-6"/>
                  </angle>
                  <angle>
                    <activevideoangle>false</activevideoangle>
                    <activeaudioangle>false</activeaudioangle>
                    <clip id="clip-7"/>
                  </angle>
                  <angle>
                    <activevideoangle>false</activevideoangle>
                    <activeaudioangle>false</activeaudioangle>
                    <clip id="clip-8"/>
                  </angle>
                  <angle>
                    <activevideoangle>false</activevideoangle>
                    <activeaudioangle>false</activeaudioangle>
                    <clip id="clip-9"/>
                  </angle>
                  <masterclipid>clip-master</masterclipid>
                </multiclip>
              </clipitem>
              <clipitem id="cs-451">
                <duration>51</duration>
                <rate>
                  <ntsc>false</ntsc>
                  <timebase>25</timebase>
                </rate>
                <in>18855</in>
                <out>18905</out>
                <start>18855</start>
                <end>18905</end>
                <file id="src-4"/>
                <sourcetrack>
                  <mediatype>video</mediatype>
                  <trackindex>1</trackindex>
                </sourcetrack>
                <multiclip id="mcs-451">
                  <name>MCS-451</name>
                  <masterclipid>clip-master</masterclipid>
                  <collapsed>false</collapsed>
                  <angle>
                    <activevideoangle>false</activevideoangle>
                    <activeaudioangle>false</activeaudioangle>
                    <clip id="clip-1"/>
                  </angle>
                  <angle>
                    <activevideoangle>false</activevideoangle>
                    <activeaudioangle>false</activeaudioangle>
                    <clip id="clip-2"/>
                  </angle>
                  <angle>
                    <activevideoangle>false</activevideoangle>
                    <activeaudioangle>false</activeaudioangle>
                    <clip id="clip-3"/>
                  </angle>
                  <angle>
                    <activevideoangle>true</activevideoangle>
                    <activeaudioangle>true</activeaudioangle>
                    <clip id="clip-4"/>
                  </angle>
                  <angle>
                    <activevideoangle>false</activevideoangle>
                    <activeaudioangle>false</activeaudioangle>
                    <clip id="clip-5"/>
                  </angle>
                  <angle>
                    <activevideoangle>false</activevideoangle>
                    <activeaudioangle>false</activeaudioangle>
                    <clip id="clip-6"/>
                  </angle>
                  <angle>
                    <activevideoangle>false</activevideoangle>
                    <activeaudioangle>false</activeaudioangle>
                    <clip id="clip-7"/>
                  </angle>
                  <angle>
                    <activevideoangle>false</activevideoangle>
                    <activeaudioangle>false</activeaudioangle>
                    <clip id="clip-8"/>
                  </angle>
                  <angle>
                    <activevideoangle>false</activevideoangle>
                    <activeaudioangle>false</activeaudioangle>
                    <clip id="clip-9"/>
                  </angle>
                  <masterclipid>clip-master</masterclipid>
                </multiclip>
              </clipitem>
              <clipitem id="cs-452">
                <duration>87</duration>
                <rate>
                  <ntsc>false</ntsc>
                  <timebase>25</timebase>
                </rate>
                <in>18905</in>
                <out>18991</out>
                <start>18905</start>
                <end>18991</end>
                <file id="src-8"/>
                <sourcetrack>
                  <mediatype>video</mediatype>
                  <trackindex>1</trackindex>
                </sourcetrack>
                <multiclip id="mcs-452">
                  <name>MCS-452</name>
                  <masterclipid>clip-master</masterclipid>
                  <collapsed>false</collapsed>
                  <angle>
                    <activevideoangle>false</activevideoangle>
                    <activeaudioangle>false</activeaudioangle>
                    <clip id="clip-1"/>
                  </angle>
                  <angle>
                    <activevideoangle>false</activevideoangle>
                    <activeaudioangle>false</activeaudioangle>
                    <clip id="clip-2"/>
                  </angle>
                  <angle>
                    <activevideoangle>false</activevideoangle>
                    <activeaudioangle>false</activeaudioangle>
                    <clip id="clip-3"/>
                  </angle>
                  <angle>
                    <activevideoangle>false</activevideoangle>
                    <activeaudioangle>false</activeaudioangle>
                    <clip id="clip-4"/>
                  </angle>
                  <angle>
                    <activevideoangle>false</activevideoangle>
                    <activeaudioangle>false</activeaudioangle>
                    <clip id="clip-5"/>
                  </angle>
                  <angle>
                    <activevideoangle>false</activevideoangle>
                    <activeaudioangle>false</activeaudioangle>
                    <clip id="clip-6"/>
                  </angle>
                  <angle>
                    <activevideoangle>false</activevideoangle>
                    <activeaudioangle>false</activeaudioangle>
                    <clip id="clip-7"/>
                  </angle>
                  <angle>
                    <activevideoangle>true</activevideoangle>
                    <activeaudioangle>true</activeaudioangle>
                    <clip id="clip-8"/>
                  </angle>
                  <angle>
                    <activevideoangle>false</activevideoangle>
                    <activeaudioangle>false</activeaudioangle>
                    <clip id="clip-9"/>
                  </angle>
                  <masterclipid>clip-master</masterclipid>
                </multiclip>
              </clipitem>
              <clipitem id="cs-453">
                <duration>79</duration>
                <rate>
                  <ntsc>false</ntsc>
                  <timebase>25</timebase>
                </rate>
                <in>18991</in>
                <out>19069</out>
                <start>18991</start>
                <end>19069</end>
                <file id="src-4"/>
                <sourcetrack>
                  <mediatype>video</mediatype>
                  <trackindex>1</trackindex>
                </sourcetrack>
                <multiclip id="mcs-453">
                  <name>MCS-453</name>
                  <masterclipid>clip-master</masterclipid>
                  <collapsed>false</collapsed>
                  <angle>
                    <activevideoangle>false</activevideoangle>
                    <activeaudioangle>false</activeaudioangle>
                    <clip id="clip-1"/>
                  </angle>
                  <angle>
                    <activevideoangle>false</activevideoangle>
                    <activeaudioangle>false</activeaudioangle>
                    <clip id="clip-2"/>
                  </angle>
                  <angle>
                    <activevideoangle>false</activevideoangle>
                    <activeaudioangle>false</activeaudioangle>
                    <clip id="clip-3"/>
                  </angle>
                  <angle>
                    <activevideoangle>true</activevideoangle>
                    <activeaudioangle>true</activeaudioangle>
                    <clip id="clip-4"/>
                  </angle>
                  <angle>
                    <activevideoangle>false</activevideoangle>
                    <activeaudioangle>false</activeaudioangle>
                    <clip id="clip-5"/>
                  </angle>
                  <angle>
                    <activevideoangle>false</activevideoangle>
                    <activeaudioangle>false</activeaudioangle>
                    <clip id="clip-6"/>
                  </angle>
                  <angle>
                    <activevideoangle>false</activevideoangle>
                    <activeaudioangle>false</activeaudioangle>
                    <clip id="clip-7"/>
                  </angle>
                  <angle>
                    <activevideoangle>false</activevideoangle>
                    <activeaudioangle>false</activeaudioangle>
                    <clip id="clip-8"/>
                  </angle>
                  <angle>
                    <activevideoangle>false</activevideoangle>
                    <activeaudioangle>false</activeaudioangle>
                    <clip id="clip-9"/>
                  </angle>
                  <masterclipid>clip-master</masterclipid>
                </multiclip>
              </clipitem>
              <clipitem id="cs-454">
                <duration>110</duration>
                <rate>
                  <ntsc>false</ntsc>
                  <timebase>25</timebase>
                </rate>
                <in>19069</in>
                <out>19178</out>
                <start>19069</start>
                <end>19178</end>
                <file id="src-3"/>
                <sourcetrack>
                  <mediatype>video</mediatype>
                  <trackindex>1</trackindex>
                </sourcetrack>
                <multiclip id="mcs-454">
                  <name>MCS-454</name>
                  <masterclipid>clip-master</masterclipid>
                  <collapsed>false</collapsed>
                  <angle>
                    <activevideoangle>false</activevideoangle>
                    <activeaudioangle>false</activeaudioangle>
                    <clip id="clip-1"/>
                  </angle>
                  <angle>
                    <activevideoangle>false</activevideoangle>
                    <activeaudioangle>false</activeaudioangle>
                    <clip id="clip-2"/>
                  </angle>
                  <angle>
                    <activevideoangle>true</activevideoangle>
                    <activeaudioangle>true</activeaudioangle>
                    <clip id="clip-3"/>
                  </angle>
                  <angle>
                    <activevideoangle>false</activevideoangle>
                    <activeaudioangle>false</activeaudioangle>
                    <clip id="clip-4"/>
                  </angle>
                  <angle>
                    <activevideoangle>false</activevideoangle>
                    <activeaudioangle>false</activeaudioangle>
                    <clip id="clip-5"/>
                  </angle>
                  <angle>
                    <activevideoangle>false</activevideoangle>
                    <activeaudioangle>false</activeaudioangle>
                    <clip id="clip-6"/>
                  </angle>
                  <angle>
                    <activevideoangle>false</activevideoangle>
                    <activeaudioangle>false</activeaudioangle>
                    <clip id="clip-7"/>
                  </angle>
                  <angle>
                    <activevideoangle>false</activevideoangle>
                    <activeaudioangle>false</activeaudioangle>
                    <clip id="clip-8"/>
                  </angle>
                  <angle>
                    <activevideoangle>false</activevideoangle>
                    <activeaudioangle>false</activeaudioangle>
                    <clip id="clip-9"/>
                  </angle>
                  <masterclipid>clip-master</masterclipid>
                </multiclip>
              </clipitem>
              <clipitem id="cs-455">
                <duration>97</duration>
                <rate>
                  <ntsc>false</ntsc>
                  <timebase>25</timebase>
                </rate>
                <in>19178</in>
                <out>19274</out>
                <start>19178</start>
                <end>19274</end>
                <file id="src-6"/>
                <sourcetrack>
                  <mediatype>video</mediatype>
                  <trackindex>1</trackindex>
                </sourcetrack>
                <multiclip id="mcs-455">
                  <name>MCS-455</name>
                  <masterclipid>clip-master</masterclipid>
                  <collapsed>false</collapsed>
                  <angle>
                    <activevideoangle>false</activevideoangle>
                    <activeaudioangle>false</activeaudioangle>
                    <clip id="clip-1"/>
                  </angle>
                  <angle>
                    <activevideoangle>false</activevideoangle>
                    <activeaudioangle>false</activeaudioangle>
                    <clip id="clip-2"/>
                  </angle>
                  <angle>
                    <activevideoangle>false</activevideoangle>
                    <activeaudioangle>false</activeaudioangle>
                    <clip id="clip-3"/>
                  </angle>
                  <angle>
                    <activevideoangle>false</activevideoangle>
                    <activeaudioangle>false</activeaudioangle>
                    <clip id="clip-4"/>
                  </angle>
                  <angle>
                    <activevideoangle>false</activevideoangle>
                    <activeaudioangle>false</activeaudioangle>
                    <clip id="clip-5"/>
                  </angle>
                  <angle>
                    <activevideoangle>true</activevideoangle>
                    <activeaudioangle>true</activeaudioangle>
                    <clip id="clip-6"/>
                  </angle>
                  <angle>
                    <activevideoangle>false</activevideoangle>
                    <activeaudioangle>false</activeaudioangle>
                    <clip id="clip-7"/>
                  </angle>
                  <angle>
                    <activevideoangle>false</activevideoangle>
                    <activeaudioangle>false</activeaudioangle>
                    <clip id="clip-8"/>
                  </angle>
                  <angle>
                    <activevideoangle>false</activevideoangle>
                    <activeaudioangle>false</activeaudioangle>
                    <clip id="clip-9"/>
                  </angle>
                  <masterclipid>clip-master</masterclipid>
                </multiclip>
              </clipitem>
              <clipitem id="cs-456">
                <duration>95</duration>
                <rate>
                  <ntsc>false</ntsc>
                  <timebase>25</timebase>
                </rate>
                <in>19274</in>
                <out>19368</out>
                <start>19274</start>
                <end>19368</end>
                <file id="src-3"/>
                <sourcetrack>
                  <mediatype>video</mediatype>
                  <trackindex>1</trackindex>
                </sourcetrack>
                <multiclip id="mcs-456">
                  <name>MCS-456</name>
                  <masterclipid>clip-master</masterclipid>
                  <collapsed>false</collapsed>
                  <angle>
                    <activevideoangle>false</activevideoangle>
                    <activeaudioangle>false</activeaudioangle>
                    <clip id="clip-1"/>
                  </angle>
                  <angle>
                    <activevideoangle>false</activevideoangle>
                    <activeaudioangle>false</activeaudioangle>
                    <clip id="clip-2"/>
                  </angle>
                  <angle>
                    <activevideoangle>true</activevideoangle>
                    <activeaudioangle>true</activeaudioangle>
                    <clip id="clip-3"/>
                  </angle>
                  <angle>
                    <activevideoangle>false</activevideoangle>
                    <activeaudioangle>false</activeaudioangle>
                    <clip id="clip-4"/>
                  </angle>
                  <angle>
                    <activevideoangle>false</activevideoangle>
                    <activeaudioangle>false</activeaudioangle>
                    <clip id="clip-5"/>
                  </angle>
                  <angle>
                    <activevideoangle>false</activevideoangle>
                    <activeaudioangle>false</activeaudioangle>
                    <clip id="clip-6"/>
                  </angle>
                  <angle>
                    <activevideoangle>false</activevideoangle>
                    <activeaudioangle>false</activeaudioangle>
                    <clip id="clip-7"/>
                  </angle>
                  <angle>
                    <activevideoangle>false</activevideoangle>
                    <activeaudioangle>false</activeaudioangle>
                    <clip id="clip-8"/>
                  </angle>
                  <angle>
                    <activevideoangle>false</activevideoangle>
                    <activeaudioangle>false</activeaudioangle>
                    <clip id="clip-9"/>
                  </angle>
                  <masterclipid>clip-master</masterclipid>
                </multiclip>
              </clipitem>
              <clipitem id="cs-457">
                <duration>182</duration>
                <rate>
                  <ntsc>false</ntsc>
                  <timebase>25</timebase>
                </rate>
                <in>19368</in>
                <out>19549</out>
                <start>19368</start>
                <end>19549</end>
                <file id="src-4"/>
                <sourcetrack>
                  <mediatype>video</mediatype>
                  <trackindex>1</trackindex>
                </sourcetrack>
                <multiclip id="mcs-457">
                  <name>MCS-457</name>
                  <masterclipid>clip-master</masterclipid>
                  <collapsed>false</collapsed>
                  <angle>
                    <activevideoangle>false</activevideoangle>
                    <activeaudioangle>false</activeaudioangle>
                    <clip id="clip-1"/>
                  </angle>
                  <angle>
                    <activevideoangle>false</activevideoangle>
                    <activeaudioangle>false</activeaudioangle>
                    <clip id="clip-2"/>
                  </angle>
                  <angle>
                    <activevideoangle>false</activevideoangle>
                    <activeaudioangle>false</activeaudioangle>
                    <clip id="clip-3"/>
                  </angle>
                  <angle>
                    <activevideoangle>true</activevideoangle>
                    <activeaudioangle>true</activeaudioangle>
                    <clip id="clip-4"/>
                  </angle>
                  <angle>
                    <activevideoangle>false</activevideoangle>
                    <activeaudioangle>false</activeaudioangle>
                    <clip id="clip-5"/>
                  </angle>
                  <angle>
                    <activevideoangle>false</activevideoangle>
                    <activeaudioangle>false</activeaudioangle>
                    <clip id="clip-6"/>
                  </angle>
                  <angle>
                    <activevideoangle>false</activevideoangle>
                    <activeaudioangle>false</activeaudioangle>
                    <clip id="clip-7"/>
                  </angle>
                  <angle>
                    <activevideoangle>false</activevideoangle>
                    <activeaudioangle>false</activeaudioangle>
                    <clip id="clip-8"/>
                  </angle>
                  <angle>
                    <activevideoangle>false</activevideoangle>
                    <activeaudioangle>false</activeaudioangle>
                    <clip id="clip-9"/>
                  </angle>
                  <masterclipid>clip-master</masterclipid>
                </multiclip>
              </clipitem>
              <clipitem id="cs-458">
                <duration>82</duration>
                <rate>
                  <ntsc>false</ntsc>
                  <timebase>25</timebase>
                </rate>
                <in>19549</in>
                <out>19630</out>
                <start>19549</start>
                <end>19630</end>
                <file id="src-2"/>
                <sourcetrack>
                  <mediatype>video</mediatype>
                  <trackindex>1</trackindex>
                </sourcetrack>
                <multiclip id="mcs-458">
                  <name>MCS-458</name>
                  <masterclipid>clip-master</masterclipid>
                  <collapsed>false</collapsed>
                  <angle>
                    <activevideoangle>false</activevideoangle>
                    <activeaudioangle>false</activeaudioangle>
                    <clip id="clip-1"/>
                  </angle>
                  <angle>
                    <activevideoangle>true</activevideoangle>
                    <activeaudioangle>true</activeaudioangle>
                    <clip id="clip-2"/>
                  </angle>
                  <angle>
                    <activevideoangle>false</activevideoangle>
                    <activeaudioangle>false</activeaudioangle>
                    <clip id="clip-3"/>
                  </angle>
                  <angle>
                    <activevideoangle>false</activevideoangle>
                    <activeaudioangle>false</activeaudioangle>
                    <clip id="clip-4"/>
                  </angle>
                  <angle>
                    <activevideoangle>false</activevideoangle>
                    <activeaudioangle>false</activeaudioangle>
                    <clip id="clip-5"/>
                  </angle>
                  <angle>
                    <activevideoangle>false</activevideoangle>
                    <activeaudioangle>false</activeaudioangle>
                    <clip id="clip-6"/>
                  </angle>
                  <angle>
                    <activevideoangle>false</activevideoangle>
                    <activeaudioangle>false</activeaudioangle>
                    <clip id="clip-7"/>
                  </angle>
                  <angle>
                    <activevideoangle>false</activevideoangle>
                    <activeaudioangle>false</activeaudioangle>
                    <clip id="clip-8"/>
                  </angle>
                  <angle>
                    <activevideoangle>false</activevideoangle>
                    <activeaudioangle>false</activeaudioangle>
                    <clip id="clip-9"/>
                  </angle>
                  <masterclipid>clip-master</masterclipid>
                </multiclip>
              </clipitem>
              <clipitem id="cs-459">
                <duration>82</duration>
                <rate>
                  <ntsc>false</ntsc>
                  <timebase>25</timebase>
                </rate>
                <in>19630</in>
                <out>19711</out>
                <start>19630</start>
                <end>19711</end>
                <file id="src-3"/>
                <sourcetrack>
                  <mediatype>video</mediatype>
                  <trackindex>1</trackindex>
                </sourcetrack>
                <multiclip id="mcs-459">
                  <name>MCS-459</name>
                  <masterclipid>clip-master</masterclipid>
                  <collapsed>false</collapsed>
                  <angle>
                    <activevideoangle>false</activevideoangle>
                    <activeaudioangle>false</activeaudioangle>
                    <clip id="clip-1"/>
                  </angle>
                  <angle>
                    <activevideoangle>false</activevideoangle>
                    <activeaudioangle>false</activeaudioangle>
                    <clip id="clip-2"/>
                  </angle>
                  <angle>
                    <activevideoangle>true</activevideoangle>
                    <activeaudioangle>true</activeaudioangle>
                    <clip id="clip-3"/>
                  </angle>
                  <angle>
                    <activevideoangle>false</activevideoangle>
                    <activeaudioangle>false</activeaudioangle>
                    <clip id="clip-4"/>
                  </angle>
                  <angle>
                    <activevideoangle>false</activevideoangle>
                    <activeaudioangle>false</activeaudioangle>
                    <clip id="clip-5"/>
                  </angle>
                  <angle>
                    <activevideoangle>false</activevideoangle>
                    <activeaudioangle>false</activeaudioangle>
                    <clip id="clip-6"/>
                  </angle>
                  <angle>
                    <activevideoangle>false</activevideoangle>
                    <activeaudioangle>false</activeaudioangle>
                    <clip id="clip-7"/>
                  </angle>
                  <angle>
                    <activevideoangle>false</activevideoangle>
                    <activeaudioangle>false</activeaudioangle>
                    <clip id="clip-8"/>
                  </angle>
                  <angle>
                    <activevideoangle>false</activevideoangle>
                    <activeaudioangle>false</activeaudioangle>
                    <clip id="clip-9"/>
                  </angle>
                  <masterclipid>clip-master</masterclipid>
                </multiclip>
              </clipitem>
              <clipitem id="cs-460">
                <duration>135</duration>
                <rate>
                  <ntsc>false</ntsc>
                  <timebase>25</timebase>
                </rate>
                <in>19711</in>
                <out>19845</out>
                <start>19711</start>
                <end>19845</end>
                <file id="src-4"/>
                <sourcetrack>
                  <mediatype>video</mediatype>
                  <trackindex>1</trackindex>
                </sourcetrack>
                <multiclip id="mcs-460">
                  <name>MCS-460</name>
                  <masterclipid>clip-master</masterclipid>
                  <collapsed>false</collapsed>
                  <angle>
                    <activevideoangle>false</activevideoangle>
                    <activeaudioangle>false</activeaudioangle>
                    <clip id="clip-1"/>
                  </angle>
                  <angle>
                    <activevideoangle>false</activevideoangle>
                    <activeaudioangle>false</activeaudioangle>
                    <clip id="clip-2"/>
                  </angle>
                  <angle>
                    <activevideoangle>false</activevideoangle>
                    <activeaudioangle>false</activeaudioangle>
                    <clip id="clip-3"/>
                  </angle>
                  <angle>
                    <activevideoangle>true</activevideoangle>
                    <activeaudioangle>true</activeaudioangle>
                    <clip id="clip-4"/>
                  </angle>
                  <angle>
                    <activevideoangle>false</activevideoangle>
                    <activeaudioangle>false</activeaudioangle>
                    <clip id="clip-5"/>
                  </angle>
                  <angle>
                    <activevideoangle>false</activevideoangle>
                    <activeaudioangle>false</activeaudioangle>
                    <clip id="clip-6"/>
                  </angle>
                  <angle>
                    <activevideoangle>false</activevideoangle>
                    <activeaudioangle>false</activeaudioangle>
                    <clip id="clip-7"/>
                  </angle>
                  <angle>
                    <activevideoangle>false</activevideoangle>
                    <activeaudioangle>false</activeaudioangle>
                    <clip id="clip-8"/>
                  </angle>
                  <angle>
                    <activevideoangle>false</activevideoangle>
                    <activeaudioangle>false</activeaudioangle>
                    <clip id="clip-9"/>
                  </angle>
                  <masterclipid>clip-master</masterclipid>
                </multiclip>
              </clipitem>
              <clipitem id="cs-461">
                <duration>60</duration>
                <rate>
                  <ntsc>false</ntsc>
                  <timebase>25</timebase>
                </rate>
                <in>19845</in>
                <out>19904</out>
                <start>19845</start>
                <end>19904</end>
                <file id="src-8"/>
                <sourcetrack>
                  <mediatype>video</mediatype>
                  <trackindex>1</trackindex>
                </sourcetrack>
                <multiclip id="mcs-461">
                  <name>MCS-461</name>
                  <masterclipid>clip-master</masterclipid>
                  <collapsed>false</collapsed>
                  <angle>
                    <activevideoangle>false</activevideoangle>
                    <activeaudioangle>false</activeaudioangle>
                    <clip id="clip-1"/>
                  </angle>
                  <angle>
                    <activevideoangle>false</activevideoangle>
                    <activeaudioangle>false</activeaudioangle>
                    <clip id="clip-2"/>
                  </angle>
                  <angle>
                    <activevideoangle>false</activevideoangle>
                    <activeaudioangle>false</activeaudioangle>
                    <clip id="clip-3"/>
                  </angle>
                  <angle>
                    <activevideoangle>false</activevideoangle>
                    <activeaudioangle>false</activeaudioangle>
                    <clip id="clip-4"/>
                  </angle>
                  <angle>
                    <activevideoangle>false</activevideoangle>
                    <activeaudioangle>false</activeaudioangle>
                    <clip id="clip-5"/>
                  </angle>
                  <angle>
                    <activevideoangle>false</activevideoangle>
                    <activeaudioangle>false</activeaudioangle>
                    <clip id="clip-6"/>
                  </angle>
                  <angle>
                    <activevideoangle>false</activevideoangle>
                    <activeaudioangle>false</activeaudioangle>
                    <clip id="clip-7"/>
                  </angle>
                  <angle>
                    <activevideoangle>true</activevideoangle>
                    <activeaudioangle>true</activeaudioangle>
                    <clip id="clip-8"/>
                  </angle>
                  <angle>
                    <activevideoangle>false</activevideoangle>
                    <activeaudioangle>false</activeaudioangle>
                    <clip id="clip-9"/>
                  </angle>
                  <masterclipid>clip-master</masterclipid>
                </multiclip>
              </clipitem>
              <clipitem id="cs-462">
                <duration>178</duration>
                <rate>
                  <ntsc>false</ntsc>
                  <timebase>25</timebase>
                </rate>
                <in>19904</in>
                <out>20081</out>
                <start>19904</start>
                <end>20081</end>
                <file id="src-3"/>
                <sourcetrack>
                  <mediatype>video</mediatype>
                  <trackindex>1</trackindex>
                </sourcetrack>
                <multiclip id="mcs-462">
                  <name>MCS-462</name>
                  <masterclipid>clip-master</masterclipid>
                  <collapsed>false</collapsed>
                  <angle>
                    <activevideoangle>false</activevideoangle>
                    <activeaudioangle>false</activeaudioangle>
                    <clip id="clip-1"/>
                  </angle>
                  <angle>
                    <activevideoangle>false</activevideoangle>
                    <activeaudioangle>false</activeaudioangle>
                    <clip id="clip-2"/>
                  </angle>
                  <angle>
                    <activevideoangle>true</activevideoangle>
                    <activeaudioangle>true</activeaudioangle>
                    <clip id="clip-3"/>
                  </angle>
                  <angle>
                    <activevideoangle>false</activevideoangle>
                    <activeaudioangle>false</activeaudioangle>
                    <clip id="clip-4"/>
                  </angle>
                  <angle>
                    <activevideoangle>false</activevideoangle>
                    <activeaudioangle>false</activeaudioangle>
                    <clip id="clip-5"/>
                  </angle>
                  <angle>
                    <activevideoangle>false</activevideoangle>
                    <activeaudioangle>false</activeaudioangle>
                    <clip id="clip-6"/>
                  </angle>
                  <angle>
                    <activevideoangle>false</activevideoangle>
                    <activeaudioangle>false</activeaudioangle>
                    <clip id="clip-7"/>
                  </angle>
                  <angle>
                    <activevideoangle>false</activevideoangle>
                    <activeaudioangle>false</activeaudioangle>
                    <clip id="clip-8"/>
                  </angle>
                  <angle>
                    <activevideoangle>false</activevideoangle>
                    <activeaudioangle>false</activeaudioangle>
                    <clip id="clip-9"/>
                  </angle>
                  <masterclipid>clip-master</masterclipid>
                </multiclip>
              </clipitem>
              <clipitem id="cs-463">
                <duration>49</duration>
                <rate>
                  <ntsc>false</ntsc>
                  <timebase>25</timebase>
                </rate>
                <in>20081</in>
                <out>20129</out>
                <start>20081</start>
                <end>20129</end>
                <file id="src-7"/>
                <sourcetrack>
                  <mediatype>video</mediatype>
                  <trackindex>1</trackindex>
                </sourcetrack>
                <multiclip id="mcs-463">
                  <name>MCS-463</name>
                  <masterclipid>clip-master</masterclipid>
                  <collapsed>false</collapsed>
                  <angle>
                    <activevideoangle>false</activevideoangle>
                    <activeaudioangle>false</activeaudioangle>
                    <clip id="clip-1"/>
                  </angle>
                  <angle>
                    <activevideoangle>false</activevideoangle>
                    <activeaudioangle>false</activeaudioangle>
                    <clip id="clip-2"/>
                  </angle>
                  <angle>
                    <activevideoangle>false</activevideoangle>
                    <activeaudioangle>false</activeaudioangle>
                    <clip id="clip-3"/>
                  </angle>
                  <angle>
                    <activevideoangle>false</activevideoangle>
                    <activeaudioangle>false</activeaudioangle>
                    <clip id="clip-4"/>
                  </angle>
                  <angle>
                    <activevideoangle>false</activevideoangle>
                    <activeaudioangle>false</activeaudioangle>
                    <clip id="clip-5"/>
                  </angle>
                  <angle>
                    <activevideoangle>false</activevideoangle>
                    <activeaudioangle>false</activeaudioangle>
                    <clip id="clip-6"/>
                  </angle>
                  <angle>
                    <activevideoangle>true</activevideoangle>
                    <activeaudioangle>true</activeaudioangle>
                    <clip id="clip-7"/>
                  </angle>
                  <angle>
                    <activevideoangle>false</activevideoangle>
                    <activeaudioangle>false</activeaudioangle>
                    <clip id="clip-8"/>
                  </angle>
                  <angle>
                    <activevideoangle>false</activevideoangle>
                    <activeaudioangle>false</activeaudioangle>
                    <clip id="clip-9"/>
                  </angle>
                  <masterclipid>clip-master</masterclipid>
                </multiclip>
              </clipitem>
              <clipitem id="cs-464">
                <duration>51</duration>
                <rate>
                  <ntsc>false</ntsc>
                  <timebase>25</timebase>
                </rate>
                <in>20129</in>
                <out>20179</out>
                <start>20129</start>
                <end>20179</end>
                <file id="src-2"/>
                <sourcetrack>
                  <mediatype>video</mediatype>
                  <trackindex>1</trackindex>
                </sourcetrack>
                <multiclip id="mcs-464">
                  <name>MCS-464</name>
                  <masterclipid>clip-master</masterclipid>
                  <collapsed>false</collapsed>
                  <angle>
                    <activevideoangle>false</activevideoangle>
                    <activeaudioangle>false</activeaudioangle>
                    <clip id="clip-1"/>
                  </angle>
                  <angle>
                    <activevideoangle>true</activevideoangle>
                    <activeaudioangle>true</activeaudioangle>
                    <clip id="clip-2"/>
                  </angle>
                  <angle>
                    <activevideoangle>false</activevideoangle>
                    <activeaudioangle>false</activeaudioangle>
                    <clip id="clip-3"/>
                  </angle>
                  <angle>
                    <activevideoangle>false</activevideoangle>
                    <activeaudioangle>false</activeaudioangle>
                    <clip id="clip-4"/>
                  </angle>
                  <angle>
                    <activevideoangle>false</activevideoangle>
                    <activeaudioangle>false</activeaudioangle>
                    <clip id="clip-5"/>
                  </angle>
                  <angle>
                    <activevideoangle>false</activevideoangle>
                    <activeaudioangle>false</activeaudioangle>
                    <clip id="clip-6"/>
                  </angle>
                  <angle>
                    <activevideoangle>false</activevideoangle>
                    <activeaudioangle>false</activeaudioangle>
                    <clip id="clip-7"/>
                  </angle>
                  <angle>
                    <activevideoangle>false</activevideoangle>
                    <activeaudioangle>false</activeaudioangle>
                    <clip id="clip-8"/>
                  </angle>
                  <angle>
                    <activevideoangle>false</activevideoangle>
                    <activeaudioangle>false</activeaudioangle>
                    <clip id="clip-9"/>
                  </angle>
                  <masterclipid>clip-master</masterclipid>
                </multiclip>
              </clipitem>
              <clipitem id="cs-465">
                <duration>93</duration>
                <rate>
                  <ntsc>false</ntsc>
                  <timebase>25</timebase>
                </rate>
                <in>20179</in>
                <out>20271</out>
                <start>20179</start>
                <end>20271</end>
                <file id="src-3"/>
                <sourcetrack>
                  <mediatype>video</mediatype>
                  <trackindex>1</trackindex>
                </sourcetrack>
                <multiclip id="mcs-465">
                  <name>MCS-465</name>
                  <masterclipid>clip-master</masterclipid>
                  <collapsed>false</collapsed>
                  <angle>
                    <activevideoangle>false</activevideoangle>
                    <activeaudioangle>false</activeaudioangle>
                    <clip id="clip-1"/>
                  </angle>
                  <angle>
                    <activevideoangle>false</activevideoangle>
                    <activeaudioangle>false</activeaudioangle>
                    <clip id="clip-2"/>
                  </angle>
                  <angle>
                    <activevideoangle>true</activevideoangle>
                    <activeaudioangle>true</activeaudioangle>
                    <clip id="clip-3"/>
                  </angle>
                  <angle>
                    <activevideoangle>false</activevideoangle>
                    <activeaudioangle>false</activeaudioangle>
                    <clip id="clip-4"/>
                  </angle>
                  <angle>
                    <activevideoangle>false</activevideoangle>
                    <activeaudioangle>false</activeaudioangle>
                    <clip id="clip-5"/>
                  </angle>
                  <angle>
                    <activevideoangle>false</activevideoangle>
                    <activeaudioangle>false</activeaudioangle>
                    <clip id="clip-6"/>
                  </angle>
                  <angle>
                    <activevideoangle>false</activevideoangle>
                    <activeaudioangle>false</activeaudioangle>
                    <clip id="clip-7"/>
                  </angle>
                  <angle>
                    <activevideoangle>false</activevideoangle>
                    <activeaudioangle>false</activeaudioangle>
                    <clip id="clip-8"/>
                  </angle>
                  <angle>
                    <activevideoangle>false</activevideoangle>
                    <activeaudioangle>false</activeaudioangle>
                    <clip id="clip-9"/>
                  </angle>
                  <masterclipid>clip-master</masterclipid>
                </multiclip>
              </clipitem>
              <clipitem id="cs-466">
                <duration>62</duration>
                <rate>
                  <ntsc>false</ntsc>
                  <timebase>25</timebase>
                </rate>
                <in>20271</in>
                <out>20332</out>
                <start>20271</start>
                <end>20332</end>
                <file id="src-5"/>
                <sourcetrack>
                  <mediatype>video</mediatype>
                  <trackindex>1</trackindex>
                </sourcetrack>
                <multiclip id="mcs-466">
                  <name>MCS-466</name>
                  <masterclipid>clip-master</masterclipid>
                  <collapsed>false</collapsed>
                  <angle>
                    <activevideoangle>false</activevideoangle>
                    <activeaudioangle>false</activeaudioangle>
                    <clip id="clip-1"/>
                  </angle>
                  <angle>
                    <activevideoangle>false</activevideoangle>
                    <activeaudioangle>false</activeaudioangle>
                    <clip id="clip-2"/>
                  </angle>
                  <angle>
                    <activevideoangle>false</activevideoangle>
                    <activeaudioangle>false</activeaudioangle>
                    <clip id="clip-3"/>
                  </angle>
                  <angle>
                    <activevideoangle>false</activevideoangle>
                    <activeaudioangle>false</activeaudioangle>
                    <clip id="clip-4"/>
                  </angle>
                  <angle>
                    <activevideoangle>true</activevideoangle>
                    <activeaudioangle>true</activeaudioangle>
                    <clip id="clip-5"/>
                  </angle>
                  <angle>
                    <activevideoangle>false</activevideoangle>
                    <activeaudioangle>false</activeaudioangle>
                    <clip id="clip-6"/>
                  </angle>
                  <angle>
                    <activevideoangle>false</activevideoangle>
                    <activeaudioangle>false</activeaudioangle>
                    <clip id="clip-7"/>
                  </angle>
                  <angle>
                    <activevideoangle>false</activevideoangle>
                    <activeaudioangle>false</activeaudioangle>
                    <clip id="clip-8"/>
                  </angle>
                  <angle>
                    <activevideoangle>false</activevideoangle>
                    <activeaudioangle>false</activeaudioangle>
                    <clip id="clip-9"/>
                  </angle>
                  <masterclipid>clip-master</masterclipid>
                </multiclip>
              </clipitem>
              <clipitem id="cs-467">
                <duration>48</duration>
                <rate>
                  <ntsc>false</ntsc>
                  <timebase>25</timebase>
                </rate>
                <in>20332</in>
                <out>20379</out>
                <start>20332</start>
                <end>20379</end>
                <file id="src-6"/>
                <sourcetrack>
                  <mediatype>video</mediatype>
                  <trackindex>1</trackindex>
                </sourcetrack>
                <multiclip id="mcs-467">
                  <name>MCS-467</name>
                  <masterclipid>clip-master</masterclipid>
                  <collapsed>false</collapsed>
                  <angle>
                    <activevideoangle>false</activevideoangle>
                    <activeaudioangle>false</activeaudioangle>
                    <clip id="clip-1"/>
                  </angle>
                  <angle>
                    <activevideoangle>false</activevideoangle>
                    <activeaudioangle>false</activeaudioangle>
                    <clip id="clip-2"/>
                  </angle>
                  <angle>
                    <activevideoangle>false</activevideoangle>
                    <activeaudioangle>false</activeaudioangle>
                    <clip id="clip-3"/>
                  </angle>
                  <angle>
                    <activevideoangle>false</activevideoangle>
                    <activeaudioangle>false</activeaudioangle>
                    <clip id="clip-4"/>
                  </angle>
                  <angle>
                    <activevideoangle>false</activevideoangle>
                    <activeaudioangle>false</activeaudioangle>
                    <clip id="clip-5"/>
                  </angle>
                  <angle>
                    <activevideoangle>true</activevideoangle>
                    <activeaudioangle>true</activeaudioangle>
                    <clip id="clip-6"/>
                  </angle>
                  <angle>
                    <activevideoangle>false</activevideoangle>
                    <activeaudioangle>false</activeaudioangle>
                    <clip id="clip-7"/>
                  </angle>
                  <angle>
                    <activevideoangle>false</activevideoangle>
                    <activeaudioangle>false</activeaudioangle>
                    <clip id="clip-8"/>
                  </angle>
                  <angle>
                    <activevideoangle>false</activevideoangle>
                    <activeaudioangle>false</activeaudioangle>
                    <clip id="clip-9"/>
                  </angle>
                  <masterclipid>clip-master</masterclipid>
                </multiclip>
              </clipitem>
              <clipitem id="cs-468">
                <duration>72</duration>
                <rate>
                  <ntsc>false</ntsc>
                  <timebase>25</timebase>
                </rate>
                <in>20379</in>
                <out>20450</out>
                <start>20379</start>
                <end>20450</end>
                <file id="src-4"/>
                <sourcetrack>
                  <mediatype>video</mediatype>
                  <trackindex>1</trackindex>
                </sourcetrack>
                <multiclip id="mcs-468">
                  <name>MCS-468</name>
                  <masterclipid>clip-master</masterclipid>
                  <collapsed>false</collapsed>
                  <angle>
                    <activevideoangle>false</activevideoangle>
                    <activeaudioangle>false</activeaudioangle>
                    <clip id="clip-1"/>
                  </angle>
                  <angle>
                    <activevideoangle>false</activevideoangle>
                    <activeaudioangle>false</activeaudioangle>
                    <clip id="clip-2"/>
                  </angle>
                  <angle>
                    <activevideoangle>false</activevideoangle>
                    <activeaudioangle>false</activeaudioangle>
                    <clip id="clip-3"/>
                  </angle>
                  <angle>
                    <activevideoangle>true</activevideoangle>
                    <activeaudioangle>true</activeaudioangle>
                    <clip id="clip-4"/>
                  </angle>
                  <angle>
                    <activevideoangle>false</activevideoangle>
                    <activeaudioangle>false</activeaudioangle>
                    <clip id="clip-5"/>
                  </angle>
                  <angle>
                    <activevideoangle>false</activevideoangle>
                    <activeaudioangle>false</activeaudioangle>
                    <clip id="clip-6"/>
                  </angle>
                  <angle>
                    <activevideoangle>false</activevideoangle>
                    <activeaudioangle>false</activeaudioangle>
                    <clip id="clip-7"/>
                  </angle>
                  <angle>
                    <activevideoangle>false</activevideoangle>
                    <activeaudioangle>false</activeaudioangle>
                    <clip id="clip-8"/>
                  </angle>
                  <angle>
                    <activevideoangle>false</activevideoangle>
                    <activeaudioangle>false</activeaudioangle>
                    <clip id="clip-9"/>
                  </angle>
                  <masterclipid>clip-master</masterclipid>
                </multiclip>
              </clipitem>
              <clipitem id="cs-469">
                <duration>152</duration>
                <rate>
                  <ntsc>false</ntsc>
                  <timebase>25</timebase>
                </rate>
                <in>20450</in>
                <out>20601</out>
                <start>20450</start>
                <end>20601</end>
                <file id="src-3"/>
                <sourcetrack>
                  <mediatype>video</mediatype>
                  <trackindex>1</trackindex>
                </sourcetrack>
                <multiclip id="mcs-469">
                  <name>MCS-469</name>
                  <masterclipid>clip-master</masterclipid>
                  <collapsed>false</collapsed>
                  <angle>
                    <activevideoangle>false</activevideoangle>
                    <activeaudioangle>false</activeaudioangle>
                    <clip id="clip-1"/>
                  </angle>
                  <angle>
                    <activevideoangle>false</activevideoangle>
                    <activeaudioangle>false</activeaudioangle>
                    <clip id="clip-2"/>
                  </angle>
                  <angle>
                    <activevideoangle>true</activevideoangle>
                    <activeaudioangle>true</activeaudioangle>
                    <clip id="clip-3"/>
                  </angle>
                  <angle>
                    <activevideoangle>false</activevideoangle>
                    <activeaudioangle>false</activeaudioangle>
                    <clip id="clip-4"/>
                  </angle>
                  <angle>
                    <activevideoangle>false</activevideoangle>
                    <activeaudioangle>false</activeaudioangle>
                    <clip id="clip-5"/>
                  </angle>
                  <angle>
                    <activevideoangle>false</activevideoangle>
                    <activeaudioangle>false</activeaudioangle>
                    <clip id="clip-6"/>
                  </angle>
                  <angle>
                    <activevideoangle>false</activevideoangle>
                    <activeaudioangle>false</activeaudioangle>
                    <clip id="clip-7"/>
                  </angle>
                  <angle>
                    <activevideoangle>false</activevideoangle>
                    <activeaudioangle>false</activeaudioangle>
                    <clip id="clip-8"/>
                  </angle>
                  <angle>
                    <activevideoangle>false</activevideoangle>
                    <activeaudioangle>false</activeaudioangle>
                    <clip id="clip-9"/>
                  </angle>
                  <masterclipid>clip-master</masterclipid>
                </multiclip>
              </clipitem>
              <clipitem id="cs-470">
                <duration>56</duration>
                <rate>
                  <ntsc>false</ntsc>
                  <timebase>25</timebase>
                </rate>
                <in>20601</in>
                <out>20656</out>
                <start>20601</start>
                <end>20656</end>
                <file id="src-7"/>
                <sourcetrack>
                  <mediatype>video</mediatype>
                  <trackindex>1</trackindex>
                </sourcetrack>
                <multiclip id="mcs-470">
                  <name>MCS-470</name>
                  <masterclipid>clip-master</masterclipid>
                  <collapsed>false</collapsed>
                  <angle>
                    <activevideoangle>false</activevideoangle>
                    <activeaudioangle>false</activeaudioangle>
                    <clip id="clip-1"/>
                  </angle>
                  <angle>
                    <activevideoangle>false</activevideoangle>
                    <activeaudioangle>false</activeaudioangle>
                    <clip id="clip-2"/>
                  </angle>
                  <angle>
                    <activevideoangle>false</activevideoangle>
                    <activeaudioangle>false</activeaudioangle>
                    <clip id="clip-3"/>
                  </angle>
                  <angle>
                    <activevideoangle>false</activevideoangle>
                    <activeaudioangle>false</activeaudioangle>
                    <clip id="clip-4"/>
                  </angle>
                  <angle>
                    <activevideoangle>false</activevideoangle>
                    <activeaudioangle>false</activeaudioangle>
                    <clip id="clip-5"/>
                  </angle>
                  <angle>
                    <activevideoangle>false</activevideoangle>
                    <activeaudioangle>false</activeaudioangle>
                    <clip id="clip-6"/>
                  </angle>
                  <angle>
                    <activevideoangle>true</activevideoangle>
                    <activeaudioangle>true</activeaudioangle>
                    <clip id="clip-7"/>
                  </angle>
                  <angle>
                    <activevideoangle>false</activevideoangle>
                    <activeaudioangle>false</activeaudioangle>
                    <clip id="clip-8"/>
                  </angle>
                  <angle>
                    <activevideoangle>false</activevideoangle>
                    <activeaudioangle>false</activeaudioangle>
                    <clip id="clip-9"/>
                  </angle>
                  <masterclipid>clip-master</masterclipid>
                </multiclip>
              </clipitem>
              <clipitem id="cs-471">
                <duration>34</duration>
                <rate>
                  <ntsc>false</ntsc>
                  <timebase>25</timebase>
                </rate>
                <in>20656</in>
                <out>20689</out>
                <start>20656</start>
                <end>20689</end>
                <file id="src-5"/>
                <sourcetrack>
                  <mediatype>video</mediatype>
                  <trackindex>1</trackindex>
                </sourcetrack>
                <multiclip id="mcs-471">
                  <name>MCS-471</name>
                  <masterclipid>clip-master</masterclipid>
                  <collapsed>false</collapsed>
                  <angle>
                    <activevideoangle>false</activevideoangle>
                    <activeaudioangle>false</activeaudioangle>
                    <clip id="clip-1"/>
                  </angle>
                  <angle>
                    <activevideoangle>false</activevideoangle>
                    <activeaudioangle>false</activeaudioangle>
                    <clip id="clip-2"/>
                  </angle>
                  <angle>
                    <activevideoangle>false</activevideoangle>
                    <activeaudioangle>false</activeaudioangle>
                    <clip id="clip-3"/>
                  </angle>
                  <angle>
                    <activevideoangle>false</activevideoangle>
                    <activeaudioangle>false</activeaudioangle>
                    <clip id="clip-4"/>
                  </angle>
                  <angle>
                    <activevideoangle>true</activevideoangle>
                    <activeaudioangle>true</activeaudioangle>
                    <clip id="clip-5"/>
                  </angle>
                  <angle>
                    <activevideoangle>false</activevideoangle>
                    <activeaudioangle>false</activeaudioangle>
                    <clip id="clip-6"/>
                  </angle>
                  <angle>
                    <activevideoangle>false</activevideoangle>
                    <activeaudioangle>false</activeaudioangle>
                    <clip id="clip-7"/>
                  </angle>
                  <angle>
                    <activevideoangle>false</activevideoangle>
                    <activeaudioangle>false</activeaudioangle>
                    <clip id="clip-8"/>
                  </angle>
                  <angle>
                    <activevideoangle>false</activevideoangle>
                    <activeaudioangle>false</activeaudioangle>
                    <clip id="clip-9"/>
                  </angle>
                  <masterclipid>clip-master</masterclipid>
                </multiclip>
              </clipitem>
              <clipitem id="cs-472">
                <duration>22</duration>
                <rate>
                  <ntsc>false</ntsc>
                  <timebase>25</timebase>
                </rate>
                <in>20689</in>
                <out>20710</out>
                <start>20689</start>
                <end>20710</end>
                <file id="src-2"/>
                <sourcetrack>
                  <mediatype>video</mediatype>
                  <trackindex>1</trackindex>
                </sourcetrack>
                <multiclip id="mcs-472">
                  <name>MCS-472</name>
                  <masterclipid>clip-master</masterclipid>
                  <collapsed>false</collapsed>
                  <angle>
                    <activevideoangle>false</activevideoangle>
                    <activeaudioangle>false</activeaudioangle>
                    <clip id="clip-1"/>
                  </angle>
                  <angle>
                    <activevideoangle>true</activevideoangle>
                    <activeaudioangle>true</activeaudioangle>
                    <clip id="clip-2"/>
                  </angle>
                  <angle>
                    <activevideoangle>false</activevideoangle>
                    <activeaudioangle>false</activeaudioangle>
                    <clip id="clip-3"/>
                  </angle>
                  <angle>
                    <activevideoangle>false</activevideoangle>
                    <activeaudioangle>false</activeaudioangle>
                    <clip id="clip-4"/>
                  </angle>
                  <angle>
                    <activevideoangle>false</activevideoangle>
                    <activeaudioangle>false</activeaudioangle>
                    <clip id="clip-5"/>
                  </angle>
                  <angle>
                    <activevideoangle>false</activevideoangle>
                    <activeaudioangle>false</activeaudioangle>
                    <clip id="clip-6"/>
                  </angle>
                  <angle>
                    <activevideoangle>false</activevideoangle>
                    <activeaudioangle>false</activeaudioangle>
                    <clip id="clip-7"/>
                  </angle>
                  <angle>
                    <activevideoangle>false</activevideoangle>
                    <activeaudioangle>false</activeaudioangle>
                    <clip id="clip-8"/>
                  </angle>
                  <angle>
                    <activevideoangle>false</activevideoangle>
                    <activeaudioangle>false</activeaudioangle>
                    <clip id="clip-9"/>
                  </angle>
                  <masterclipid>clip-master</masterclipid>
                </multiclip>
              </clipitem>
              <clipitem id="cs-473">
                <duration>148</duration>
                <rate>
                  <ntsc>false</ntsc>
                  <timebase>25</timebase>
                </rate>
                <in>20710</in>
                <out>20857</out>
                <start>20710</start>
                <end>20857</end>
                <file id="src-3"/>
                <sourcetrack>
                  <mediatype>video</mediatype>
                  <trackindex>1</trackindex>
                </sourcetrack>
                <multiclip id="mcs-473">
                  <name>MCS-473</name>
                  <masterclipid>clip-master</masterclipid>
                  <collapsed>false</collapsed>
                  <angle>
                    <activevideoangle>false</activevideoangle>
                    <activeaudioangle>false</activeaudioangle>
                    <clip id="clip-1"/>
                  </angle>
                  <angle>
                    <activevideoangle>false</activevideoangle>
                    <activeaudioangle>false</activeaudioangle>
                    <clip id="clip-2"/>
                  </angle>
                  <angle>
                    <activevideoangle>true</activevideoangle>
                    <activeaudioangle>true</activeaudioangle>
                    <clip id="clip-3"/>
                  </angle>
                  <angle>
                    <activevideoangle>false</activevideoangle>
                    <activeaudioangle>false</activeaudioangle>
                    <clip id="clip-4"/>
                  </angle>
                  <angle>
                    <activevideoangle>false</activevideoangle>
                    <activeaudioangle>false</activeaudioangle>
                    <clip id="clip-5"/>
                  </angle>
                  <angle>
                    <activevideoangle>false</activevideoangle>
                    <activeaudioangle>false</activeaudioangle>
                    <clip id="clip-6"/>
                  </angle>
                  <angle>
                    <activevideoangle>false</activevideoangle>
                    <activeaudioangle>false</activeaudioangle>
                    <clip id="clip-7"/>
                  </angle>
                  <angle>
                    <activevideoangle>false</activevideoangle>
                    <activeaudioangle>false</activeaudioangle>
                    <clip id="clip-8"/>
                  </angle>
                  <angle>
                    <activevideoangle>false</activevideoangle>
                    <activeaudioangle>false</activeaudioangle>
                    <clip id="clip-9"/>
                  </angle>
                  <masterclipid>clip-master</masterclipid>
                </multiclip>
              </clipitem>
              <clipitem id="cs-474">
                <duration>122</duration>
                <rate>
                  <ntsc>false</ntsc>
                  <timebase>25</timebase>
                </rate>
                <in>20857</in>
                <out>20978</out>
                <start>20857</start>
                <end>20978</end>
                <file id="src-4"/>
                <sourcetrack>
                  <mediatype>video</mediatype>
                  <trackindex>1</trackindex>
                </sourcetrack>
                <multiclip id="mcs-474">
                  <name>MCS-474</name>
                  <masterclipid>clip-master</masterclipid>
                  <collapsed>false</collapsed>
                  <angle>
                    <activevideoangle>false</activevideoangle>
                    <activeaudioangle>false</activeaudioangle>
                    <clip id="clip-1"/>
                  </angle>
                  <angle>
                    <activevideoangle>false</activevideoangle>
                    <activeaudioangle>false</activeaudioangle>
                    <clip id="clip-2"/>
                  </angle>
                  <angle>
                    <activevideoangle>false</activevideoangle>
                    <activeaudioangle>false</activeaudioangle>
                    <clip id="clip-3"/>
                  </angle>
                  <angle>
                    <activevideoangle>true</activevideoangle>
                    <activeaudioangle>true</activeaudioangle>
                    <clip id="clip-4"/>
                  </angle>
                  <angle>
                    <activevideoangle>false</activevideoangle>
                    <activeaudioangle>false</activeaudioangle>
                    <clip id="clip-5"/>
                  </angle>
                  <angle>
                    <activevideoangle>false</activevideoangle>
                    <activeaudioangle>false</activeaudioangle>
                    <clip id="clip-6"/>
                  </angle>
                  <angle>
                    <activevideoangle>false</activevideoangle>
                    <activeaudioangle>false</activeaudioangle>
                    <clip id="clip-7"/>
                  </angle>
                  <angle>
                    <activevideoangle>false</activevideoangle>
                    <activeaudioangle>false</activeaudioangle>
                    <clip id="clip-8"/>
                  </angle>
                  <angle>
                    <activevideoangle>false</activevideoangle>
                    <activeaudioangle>false</activeaudioangle>
                    <clip id="clip-9"/>
                  </angle>
                  <masterclipid>clip-master</masterclipid>
                </multiclip>
              </clipitem>
              <clipitem id="cs-475">
                <duration>55</duration>
                <rate>
                  <ntsc>false</ntsc>
                  <timebase>25</timebase>
                </rate>
                <in>20978</in>
                <out>21032</out>
                <start>20978</start>
                <end>21032</end>
                <file id="src-3"/>
                <sourcetrack>
                  <mediatype>video</mediatype>
                  <trackindex>1</trackindex>
                </sourcetrack>
                <multiclip id="mcs-475">
                  <name>MCS-475</name>
                  <masterclipid>clip-master</masterclipid>
                  <collapsed>false</collapsed>
                  <angle>
                    <activevideoangle>false</activevideoangle>
                    <activeaudioangle>false</activeaudioangle>
                    <clip id="clip-1"/>
                  </angle>
                  <angle>
                    <activevideoangle>false</activevideoangle>
                    <activeaudioangle>false</activeaudioangle>
                    <clip id="clip-2"/>
                  </angle>
                  <angle>
                    <activevideoangle>true</activevideoangle>
                    <activeaudioangle>true</activeaudioangle>
                    <clip id="clip-3"/>
                  </angle>
                  <angle>
                    <activevideoangle>false</activevideoangle>
                    <activeaudioangle>false</activeaudioangle>
                    <clip id="clip-4"/>
                  </angle>
                  <angle>
                    <activevideoangle>false</activevideoangle>
                    <activeaudioangle>false</activeaudioangle>
                    <clip id="clip-5"/>
                  </angle>
                  <angle>
                    <activevideoangle>false</activevideoangle>
                    <activeaudioangle>false</activeaudioangle>
                    <clip id="clip-6"/>
                  </angle>
                  <angle>
                    <activevideoangle>false</activevideoangle>
                    <activeaudioangle>false</activeaudioangle>
                    <clip id="clip-7"/>
                  </angle>
                  <angle>
                    <activevideoangle>false</activevideoangle>
                    <activeaudioangle>false</activeaudioangle>
                    <clip id="clip-8"/>
                  </angle>
                  <angle>
                    <activevideoangle>false</activevideoangle>
                    <activeaudioangle>false</activeaudioangle>
                    <clip id="clip-9"/>
                  </angle>
                  <masterclipid>clip-master</masterclipid>
                </multiclip>
              </clipitem>
              <clipitem id="cs-476">
                <duration>53</duration>
                <rate>
                  <ntsc>false</ntsc>
                  <timebase>25</timebase>
                </rate>
                <in>21032</in>
                <out>21084</out>
                <start>21032</start>
                <end>21084</end>
                <file id="src-2"/>
                <sourcetrack>
                  <mediatype>video</mediatype>
                  <trackindex>1</trackindex>
                </sourcetrack>
                <multiclip id="mcs-476">
                  <name>MCS-476</name>
                  <masterclipid>clip-master</masterclipid>
                  <collapsed>false</collapsed>
                  <angle>
                    <activevideoangle>false</activevideoangle>
                    <activeaudioangle>false</activeaudioangle>
                    <clip id="clip-1"/>
                  </angle>
                  <angle>
                    <activevideoangle>true</activevideoangle>
                    <activeaudioangle>true</activeaudioangle>
                    <clip id="clip-2"/>
                  </angle>
                  <angle>
                    <activevideoangle>false</activevideoangle>
                    <activeaudioangle>false</activeaudioangle>
                    <clip id="clip-3"/>
                  </angle>
                  <angle>
                    <activevideoangle>false</activevideoangle>
                    <activeaudioangle>false</activeaudioangle>
                    <clip id="clip-4"/>
                  </angle>
                  <angle>
                    <activevideoangle>false</activevideoangle>
                    <activeaudioangle>false</activeaudioangle>
                    <clip id="clip-5"/>
                  </angle>
                  <angle>
                    <activevideoangle>false</activevideoangle>
                    <activeaudioangle>false</activeaudioangle>
                    <clip id="clip-6"/>
                  </angle>
                  <angle>
                    <activevideoangle>false</activevideoangle>
                    <activeaudioangle>false</activeaudioangle>
                    <clip id="clip-7"/>
                  </angle>
                  <angle>
                    <activevideoangle>false</activevideoangle>
                    <activeaudioangle>false</activeaudioangle>
                    <clip id="clip-8"/>
                  </angle>
                  <angle>
                    <activevideoangle>false</activevideoangle>
                    <activeaudioangle>false</activeaudioangle>
                    <clip id="clip-9"/>
                  </angle>
                  <masterclipid>clip-master</masterclipid>
                </multiclip>
              </clipitem>
              <clipitem id="cs-477">
                <duration>104</duration>
                <rate>
                  <ntsc>false</ntsc>
                  <timebase>25</timebase>
                </rate>
                <in>21084</in>
                <out>21187</out>
                <start>21084</start>
                <end>21187</end>
                <file id="src-5"/>
                <sourcetrack>
                  <mediatype>video</mediatype>
                  <trackindex>1</trackindex>
                </sourcetrack>
                <multiclip id="mcs-477">
                  <name>MCS-477</name>
                  <masterclipid>clip-master</masterclipid>
                  <collapsed>false</collapsed>
                  <angle>
                    <activevideoangle>false</activevideoangle>
                    <activeaudioangle>false</activeaudioangle>
                    <clip id="clip-1"/>
                  </angle>
                  <angle>
                    <activevideoangle>false</activevideoangle>
                    <activeaudioangle>false</activeaudioangle>
                    <clip id="clip-2"/>
                  </angle>
                  <angle>
                    <activevideoangle>false</activevideoangle>
                    <activeaudioangle>false</activeaudioangle>
                    <clip id="clip-3"/>
                  </angle>
                  <angle>
                    <activevideoangle>false</activevideoangle>
                    <activeaudioangle>false</activeaudioangle>
                    <clip id="clip-4"/>
                  </angle>
                  <angle>
                    <activevideoangle>true</activevideoangle>
                    <activeaudioangle>true</activeaudioangle>
                    <clip id="clip-5"/>
                  </angle>
                  <angle>
                    <activevideoangle>false</activevideoangle>
                    <activeaudioangle>false</activeaudioangle>
                    <clip id="clip-6"/>
                  </angle>
                  <angle>
                    <activevideoangle>false</activevideoangle>
                    <activeaudioangle>false</activeaudioangle>
                    <clip id="clip-7"/>
                  </angle>
                  <angle>
                    <activevideoangle>false</activevideoangle>
                    <activeaudioangle>false</activeaudioangle>
                    <clip id="clip-8"/>
                  </angle>
                  <angle>
                    <activevideoangle>false</activevideoangle>
                    <activeaudioangle>false</activeaudioangle>
                    <clip id="clip-9"/>
                  </angle>
                  <masterclipid>clip-master</masterclipid>
                </multiclip>
              </clipitem>
              <clipitem id="cs-478">
                <duration>65</duration>
                <rate>
                  <ntsc>false</ntsc>
                  <timebase>25</timebase>
                </rate>
                <in>21187</in>
                <out>21251</out>
                <start>21187</start>
                <end>21251</end>
                <file id="src-2"/>
                <sourcetrack>
                  <mediatype>video</mediatype>
                  <trackindex>1</trackindex>
                </sourcetrack>
                <multiclip id="mcs-478">
                  <name>MCS-478</name>
                  <masterclipid>clip-master</masterclipid>
                  <collapsed>false</collapsed>
                  <angle>
                    <activevideoangle>false</activevideoangle>
                    <activeaudioangle>false</activeaudioangle>
                    <clip id="clip-1"/>
                  </angle>
                  <angle>
                    <activevideoangle>true</activevideoangle>
                    <activeaudioangle>true</activeaudioangle>
                    <clip id="clip-2"/>
                  </angle>
                  <angle>
                    <activevideoangle>false</activevideoangle>
                    <activeaudioangle>false</activeaudioangle>
                    <clip id="clip-3"/>
                  </angle>
                  <angle>
                    <activevideoangle>false</activevideoangle>
                    <activeaudioangle>false</activeaudioangle>
                    <clip id="clip-4"/>
                  </angle>
                  <angle>
                    <activevideoangle>false</activevideoangle>
                    <activeaudioangle>false</activeaudioangle>
                    <clip id="clip-5"/>
                  </angle>
                  <angle>
                    <activevideoangle>false</activevideoangle>
                    <activeaudioangle>false</activeaudioangle>
                    <clip id="clip-6"/>
                  </angle>
                  <angle>
                    <activevideoangle>false</activevideoangle>
                    <activeaudioangle>false</activeaudioangle>
                    <clip id="clip-7"/>
                  </angle>
                  <angle>
                    <activevideoangle>false</activevideoangle>
                    <activeaudioangle>false</activeaudioangle>
                    <clip id="clip-8"/>
                  </angle>
                  <angle>
                    <activevideoangle>false</activevideoangle>
                    <activeaudioangle>false</activeaudioangle>
                    <clip id="clip-9"/>
                  </angle>
                  <masterclipid>clip-master</masterclipid>
                </multiclip>
              </clipitem>
              <clipitem id="cs-479">
                <duration>63</duration>
                <rate>
                  <ntsc>false</ntsc>
                  <timebase>25</timebase>
                </rate>
                <in>21251</in>
                <out>21313</out>
                <start>21251</start>
                <end>21313</end>
                <file id="src-4"/>
                <sourcetrack>
                  <mediatype>video</mediatype>
                  <trackindex>1</trackindex>
                </sourcetrack>
                <multiclip id="mcs-479">
                  <name>MCS-479</name>
                  <masterclipid>clip-master</masterclipid>
                  <collapsed>false</collapsed>
                  <angle>
                    <activevideoangle>false</activevideoangle>
                    <activeaudioangle>false</activeaudioangle>
                    <clip id="clip-1"/>
                  </angle>
                  <angle>
                    <activevideoangle>false</activevideoangle>
                    <activeaudioangle>false</activeaudioangle>
                    <clip id="clip-2"/>
                  </angle>
                  <angle>
                    <activevideoangle>false</activevideoangle>
                    <activeaudioangle>false</activeaudioangle>
                    <clip id="clip-3"/>
                  </angle>
                  <angle>
                    <activevideoangle>true</activevideoangle>
                    <activeaudioangle>true</activeaudioangle>
                    <clip id="clip-4"/>
                  </angle>
                  <angle>
                    <activevideoangle>false</activevideoangle>
                    <activeaudioangle>false</activeaudioangle>
                    <clip id="clip-5"/>
                  </angle>
                  <angle>
                    <activevideoangle>false</activevideoangle>
                    <activeaudioangle>false</activeaudioangle>
                    <clip id="clip-6"/>
                  </angle>
                  <angle>
                    <activevideoangle>false</activevideoangle>
                    <activeaudioangle>false</activeaudioangle>
                    <clip id="clip-7"/>
                  </angle>
                  <angle>
                    <activevideoangle>false</activevideoangle>
                    <activeaudioangle>false</activeaudioangle>
                    <clip id="clip-8"/>
                  </angle>
                  <angle>
                    <activevideoangle>false</activevideoangle>
                    <activeaudioangle>false</activeaudioangle>
                    <clip id="clip-9"/>
                  </angle>
                  <masterclipid>clip-master</masterclipid>
                </multiclip>
              </clipitem>
              <clipitem id="cs-480">
                <duration>45</duration>
                <rate>
                  <ntsc>false</ntsc>
                  <timebase>25</timebase>
                </rate>
                <in>21313</in>
                <out>21357</out>
                <start>21313</start>
                <end>21357</end>
                <file id="src-7"/>
                <sourcetrack>
                  <mediatype>video</mediatype>
                  <trackindex>1</trackindex>
                </sourcetrack>
                <multiclip id="mcs-480">
                  <name>MCS-480</name>
                  <masterclipid>clip-master</masterclipid>
                  <collapsed>false</collapsed>
                  <angle>
                    <activevideoangle>false</activevideoangle>
                    <activeaudioangle>false</activeaudioangle>
                    <clip id="clip-1"/>
                  </angle>
                  <angle>
                    <activevideoangle>false</activevideoangle>
                    <activeaudioangle>false</activeaudioangle>
                    <clip id="clip-2"/>
                  </angle>
                  <angle>
                    <activevideoangle>false</activevideoangle>
                    <activeaudioangle>false</activeaudioangle>
                    <clip id="clip-3"/>
                  </angle>
                  <angle>
                    <activevideoangle>false</activevideoangle>
                    <activeaudioangle>false</activeaudioangle>
                    <clip id="clip-4"/>
                  </angle>
                  <angle>
                    <activevideoangle>false</activevideoangle>
                    <activeaudioangle>false</activeaudioangle>
                    <clip id="clip-5"/>
                  </angle>
                  <angle>
                    <activevideoangle>false</activevideoangle>
                    <activeaudioangle>false</activeaudioangle>
                    <clip id="clip-6"/>
                  </angle>
                  <angle>
                    <activevideoangle>true</activevideoangle>
                    <activeaudioangle>true</activeaudioangle>
                    <clip id="clip-7"/>
                  </angle>
                  <angle>
                    <activevideoangle>false</activevideoangle>
                    <activeaudioangle>false</activeaudioangle>
                    <clip id="clip-8"/>
                  </angle>
                  <angle>
                    <activevideoangle>false</activevideoangle>
                    <activeaudioangle>false</activeaudioangle>
                    <clip id="clip-9"/>
                  </angle>
                  <masterclipid>clip-master</masterclipid>
                </multiclip>
              </clipitem>
              <clipitem id="cs-481">
                <duration>36</duration>
                <rate>
                  <ntsc>false</ntsc>
                  <timebase>25</timebase>
                </rate>
                <in>21357</in>
                <out>21392</out>
                <start>21357</start>
                <end>21392</end>
                <file id="src-3"/>
                <sourcetrack>
                  <mediatype>video</mediatype>
                  <trackindex>1</trackindex>
                </sourcetrack>
                <multiclip id="mcs-481">
                  <name>MCS-481</name>
                  <masterclipid>clip-master</masterclipid>
                  <collapsed>false</collapsed>
                  <angle>
                    <activevideoangle>false</activevideoangle>
                    <activeaudioangle>false</activeaudioangle>
                    <clip id="clip-1"/>
                  </angle>
                  <angle>
                    <activevideoangle>false</activevideoangle>
                    <activeaudioangle>false</activeaudioangle>
                    <clip id="clip-2"/>
                  </angle>
                  <angle>
                    <activevideoangle>true</activevideoangle>
                    <activeaudioangle>true</activeaudioangle>
                    <clip id="clip-3"/>
                  </angle>
                  <angle>
                    <activevideoangle>false</activevideoangle>
                    <activeaudioangle>false</activeaudioangle>
                    <clip id="clip-4"/>
                  </angle>
                  <angle>
                    <activevideoangle>false</activevideoangle>
                    <activeaudioangle>false</activeaudioangle>
                    <clip id="clip-5"/>
                  </angle>
                  <angle>
                    <activevideoangle>false</activevideoangle>
                    <activeaudioangle>false</activeaudioangle>
                    <clip id="clip-6"/>
                  </angle>
                  <angle>
                    <activevideoangle>false</activevideoangle>
                    <activeaudioangle>false</activeaudioangle>
                    <clip id="clip-7"/>
                  </angle>
                  <angle>
                    <activevideoangle>false</activevideoangle>
                    <activeaudioangle>false</activeaudioangle>
                    <clip id="clip-8"/>
                  </angle>
                  <angle>
                    <activevideoangle>false</activevideoangle>
                    <activeaudioangle>false</activeaudioangle>
                    <clip id="clip-9"/>
                  </angle>
                  <masterclipid>clip-master</masterclipid>
                </multiclip>
              </clipitem>
              <clipitem id="cs-482">
                <duration>39</duration>
                <rate>
                  <ntsc>false</ntsc>
                  <timebase>25</timebase>
                </rate>
                <in>21392</in>
                <out>21430</out>
                <start>21392</start>
                <end>21430</end>
                <file id="src-4"/>
                <sourcetrack>
                  <mediatype>video</mediatype>
                  <trackindex>1</trackindex>
                </sourcetrack>
                <multiclip id="mcs-482">
                  <name>MCS-482</name>
                  <masterclipid>clip-master</masterclipid>
                  <collapsed>false</collapsed>
                  <angle>
                    <activevideoangle>false</activevideoangle>
                    <activeaudioangle>false</activeaudioangle>
                    <clip id="clip-1"/>
                  </angle>
                  <angle>
                    <activevideoangle>false</activevideoangle>
                    <activeaudioangle>false</activeaudioangle>
                    <clip id="clip-2"/>
                  </angle>
                  <angle>
                    <activevideoangle>false</activevideoangle>
                    <activeaudioangle>false</activeaudioangle>
                    <clip id="clip-3"/>
                  </angle>
                  <angle>
                    <activevideoangle>true</activevideoangle>
                    <activeaudioangle>true</activeaudioangle>
                    <clip id="clip-4"/>
                  </angle>
                  <angle>
                    <activevideoangle>false</activevideoangle>
                    <activeaudioangle>false</activeaudioangle>
                    <clip id="clip-5"/>
                  </angle>
                  <angle>
                    <activevideoangle>false</activevideoangle>
                    <activeaudioangle>false</activeaudioangle>
                    <clip id="clip-6"/>
                  </angle>
                  <angle>
                    <activevideoangle>false</activevideoangle>
                    <activeaudioangle>false</activeaudioangle>
                    <clip id="clip-7"/>
                  </angle>
                  <angle>
                    <activevideoangle>false</activevideoangle>
                    <activeaudioangle>false</activeaudioangle>
                    <clip id="clip-8"/>
                  </angle>
                  <angle>
                    <activevideoangle>false</activevideoangle>
                    <activeaudioangle>false</activeaudioangle>
                    <clip id="clip-9"/>
                  </angle>
                  <masterclipid>clip-master</masterclipid>
                </multiclip>
              </clipitem>
              <clipitem id="cs-483">
                <duration>37</duration>
                <rate>
                  <ntsc>false</ntsc>
                  <timebase>25</timebase>
                </rate>
                <in>21430</in>
                <out>21466</out>
                <start>21430</start>
                <end>21466</end>
                <file id="src-5"/>
                <sourcetrack>
                  <mediatype>video</mediatype>
                  <trackindex>1</trackindex>
                </sourcetrack>
                <multiclip id="mcs-483">
                  <name>MCS-483</name>
                  <masterclipid>clip-master</masterclipid>
                  <collapsed>false</collapsed>
                  <angle>
                    <activevideoangle>false</activevideoangle>
                    <activeaudioangle>false</activeaudioangle>
                    <clip id="clip-1"/>
                  </angle>
                  <angle>
                    <activevideoangle>false</activevideoangle>
                    <activeaudioangle>false</activeaudioangle>
                    <clip id="clip-2"/>
                  </angle>
                  <angle>
                    <activevideoangle>false</activevideoangle>
                    <activeaudioangle>false</activeaudioangle>
                    <clip id="clip-3"/>
                  </angle>
                  <angle>
                    <activevideoangle>false</activevideoangle>
                    <activeaudioangle>false</activeaudioangle>
                    <clip id="clip-4"/>
                  </angle>
                  <angle>
                    <activevideoangle>true</activevideoangle>
                    <activeaudioangle>true</activeaudioangle>
                    <clip id="clip-5"/>
                  </angle>
                  <angle>
                    <activevideoangle>false</activevideoangle>
                    <activeaudioangle>false</activeaudioangle>
                    <clip id="clip-6"/>
                  </angle>
                  <angle>
                    <activevideoangle>false</activevideoangle>
                    <activeaudioangle>false</activeaudioangle>
                    <clip id="clip-7"/>
                  </angle>
                  <angle>
                    <activevideoangle>false</activevideoangle>
                    <activeaudioangle>false</activeaudioangle>
                    <clip id="clip-8"/>
                  </angle>
                  <angle>
                    <activevideoangle>false</activevideoangle>
                    <activeaudioangle>false</activeaudioangle>
                    <clip id="clip-9"/>
                  </angle>
                  <masterclipid>clip-master</masterclipid>
                </multiclip>
              </clipitem>
              <clipitem id="cs-484">
                <duration>62</duration>
                <rate>
                  <ntsc>false</ntsc>
                  <timebase>25</timebase>
                </rate>
                <in>21466</in>
                <out>21527</out>
                <start>21466</start>
                <end>21527</end>
                <file id="src-2"/>
                <sourcetrack>
                  <mediatype>video</mediatype>
                  <trackindex>1</trackindex>
                </sourcetrack>
                <multiclip id="mcs-484">
                  <name>MCS-484</name>
                  <masterclipid>clip-master</masterclipid>
                  <collapsed>false</collapsed>
                  <angle>
                    <activevideoangle>false</activevideoangle>
                    <activeaudioangle>false</activeaudioangle>
                    <clip id="clip-1"/>
                  </angle>
                  <angle>
                    <activevideoangle>true</activevideoangle>
                    <activeaudioangle>true</activeaudioangle>
                    <clip id="clip-2"/>
                  </angle>
                  <angle>
                    <activevideoangle>false</activevideoangle>
                    <activeaudioangle>false</activeaudioangle>
                    <clip id="clip-3"/>
                  </angle>
                  <angle>
                    <activevideoangle>false</activevideoangle>
                    <activeaudioangle>false</activeaudioangle>
                    <clip id="clip-4"/>
                  </angle>
                  <angle>
                    <activevideoangle>false</activevideoangle>
                    <activeaudioangle>false</activeaudioangle>
                    <clip id="clip-5"/>
                  </angle>
                  <angle>
                    <activevideoangle>false</activevideoangle>
                    <activeaudioangle>false</activeaudioangle>
                    <clip id="clip-6"/>
                  </angle>
                  <angle>
                    <activevideoangle>false</activevideoangle>
                    <activeaudioangle>false</activeaudioangle>
                    <clip id="clip-7"/>
                  </angle>
                  <angle>
                    <activevideoangle>false</activevideoangle>
                    <activeaudioangle>false</activeaudioangle>
                    <clip id="clip-8"/>
                  </angle>
                  <angle>
                    <activevideoangle>false</activevideoangle>
                    <activeaudioangle>false</activeaudioangle>
                    <clip id="clip-9"/>
                  </angle>
                  <masterclipid>clip-master</masterclipid>
                </multiclip>
              </clipitem>
              <clipitem id="cs-485">
                <duration>90</duration>
                <rate>
                  <ntsc>false</ntsc>
                  <timebase>25</timebase>
                </rate>
                <in>21527</in>
                <out>21616</out>
                <start>21527</start>
                <end>21616</end>
                <file id="src-3"/>
                <sourcetrack>
                  <mediatype>video</mediatype>
                  <trackindex>1</trackindex>
                </sourcetrack>
                <multiclip id="mcs-485">
                  <name>MCS-485</name>
                  <masterclipid>clip-master</masterclipid>
                  <collapsed>false</collapsed>
                  <angle>
                    <activevideoangle>false</activevideoangle>
                    <activeaudioangle>false</activeaudioangle>
                    <clip id="clip-1"/>
                  </angle>
                  <angle>
                    <activevideoangle>false</activevideoangle>
                    <activeaudioangle>false</activeaudioangle>
                    <clip id="clip-2"/>
                  </angle>
                  <angle>
                    <activevideoangle>true</activevideoangle>
                    <activeaudioangle>true</activeaudioangle>
                    <clip id="clip-3"/>
                  </angle>
                  <angle>
                    <activevideoangle>false</activevideoangle>
                    <activeaudioangle>false</activeaudioangle>
                    <clip id="clip-4"/>
                  </angle>
                  <angle>
                    <activevideoangle>false</activevideoangle>
                    <activeaudioangle>false</activeaudioangle>
                    <clip id="clip-5"/>
                  </angle>
                  <angle>
                    <activevideoangle>false</activevideoangle>
                    <activeaudioangle>false</activeaudioangle>
                    <clip id="clip-6"/>
                  </angle>
                  <angle>
                    <activevideoangle>false</activevideoangle>
                    <activeaudioangle>false</activeaudioangle>
                    <clip id="clip-7"/>
                  </angle>
                  <angle>
                    <activevideoangle>false</activevideoangle>
                    <activeaudioangle>false</activeaudioangle>
                    <clip id="clip-8"/>
                  </angle>
                  <angle>
                    <activevideoangle>false</activevideoangle>
                    <activeaudioangle>false</activeaudioangle>
                    <clip id="clip-9"/>
                  </angle>
                  <masterclipid>clip-master</masterclipid>
                </multiclip>
              </clipitem>
              <clipitem id="cs-486">
                <duration>41</duration>
                <rate>
                  <ntsc>false</ntsc>
                  <timebase>25</timebase>
                </rate>
                <in>21616</in>
                <out>21656</out>
                <start>21616</start>
                <end>21656</end>
                <file id="src-5"/>
                <sourcetrack>
                  <mediatype>video</mediatype>
                  <trackindex>1</trackindex>
                </sourcetrack>
                <multiclip id="mcs-486">
                  <name>MCS-486</name>
                  <masterclipid>clip-master</masterclipid>
                  <collapsed>false</collapsed>
                  <angle>
                    <activevideoangle>false</activevideoangle>
                    <activeaudioangle>false</activeaudioangle>
                    <clip id="clip-1"/>
                  </angle>
                  <angle>
                    <activevideoangle>false</activevideoangle>
                    <activeaudioangle>false</activeaudioangle>
                    <clip id="clip-2"/>
                  </angle>
                  <angle>
                    <activevideoangle>false</activevideoangle>
                    <activeaudioangle>false</activeaudioangle>
                    <clip id="clip-3"/>
                  </angle>
                  <angle>
                    <activevideoangle>false</activevideoangle>
                    <activeaudioangle>false</activeaudioangle>
                    <clip id="clip-4"/>
                  </angle>
                  <angle>
                    <activevideoangle>true</activevideoangle>
                    <activeaudioangle>true</activeaudioangle>
                    <clip id="clip-5"/>
                  </angle>
                  <angle>
                    <activevideoangle>false</activevideoangle>
                    <activeaudioangle>false</activeaudioangle>
                    <clip id="clip-6"/>
                  </angle>
                  <angle>
                    <activevideoangle>false</activevideoangle>
                    <activeaudioangle>false</activeaudioangle>
                    <clip id="clip-7"/>
                  </angle>
                  <angle>
                    <activevideoangle>false</activevideoangle>
                    <activeaudioangle>false</activeaudioangle>
                    <clip id="clip-8"/>
                  </angle>
                  <angle>
                    <activevideoangle>false</activevideoangle>
                    <activeaudioangle>false</activeaudioangle>
                    <clip id="clip-9"/>
                  </angle>
                  <masterclipid>clip-master</masterclipid>
                </multiclip>
              </clipitem>
              <clipitem id="cs-487">
                <duration>95</duration>
                <rate>
                  <ntsc>false</ntsc>
                  <timebase>25</timebase>
                </rate>
                <in>21656</in>
                <out>21750</out>
                <start>21656</start>
                <end>21750</end>
                <file id="src-4"/>
                <sourcetrack>
                  <mediatype>video</mediatype>
                  <trackindex>1</trackindex>
                </sourcetrack>
                <multiclip id="mcs-487">
                  <name>MCS-487</name>
                  <masterclipid>clip-master</masterclipid>
                  <collapsed>false</collapsed>
                  <angle>
                    <activevideoangle>false</activevideoangle>
                    <activeaudioangle>false</activeaudioangle>
                    <clip id="clip-1"/>
                  </angle>
                  <angle>
                    <activevideoangle>false</activevideoangle>
                    <activeaudioangle>false</activeaudioangle>
                    <clip id="clip-2"/>
                  </angle>
                  <angle>
                    <activevideoangle>false</activevideoangle>
                    <activeaudioangle>false</activeaudioangle>
                    <clip id="clip-3"/>
                  </angle>
                  <angle>
                    <activevideoangle>true</activevideoangle>
                    <activeaudioangle>true</activeaudioangle>
                    <clip id="clip-4"/>
                  </angle>
                  <angle>
                    <activevideoangle>false</activevideoangle>
                    <activeaudioangle>false</activeaudioangle>
                    <clip id="clip-5"/>
                  </angle>
                  <angle>
                    <activevideoangle>false</activevideoangle>
                    <activeaudioangle>false</activeaudioangle>
                    <clip id="clip-6"/>
                  </angle>
                  <angle>
                    <activevideoangle>false</activevideoangle>
                    <activeaudioangle>false</activeaudioangle>
                    <clip id="clip-7"/>
                  </angle>
                  <angle>
                    <activevideoangle>false</activevideoangle>
                    <activeaudioangle>false</activeaudioangle>
                    <clip id="clip-8"/>
                  </angle>
                  <angle>
                    <activevideoangle>false</activevideoangle>
                    <activeaudioangle>false</activeaudioangle>
                    <clip id="clip-9"/>
                  </angle>
                  <masterclipid>clip-master</masterclipid>
                </multiclip>
              </clipitem>
              <clipitem id="cs-488">
                <duration>79</duration>
                <rate>
                  <ntsc>false</ntsc>
                  <timebase>25</timebase>
                </rate>
                <in>21750</in>
                <out>21828</out>
                <start>21750</start>
                <end>21828</end>
                <file id="src-1"/>
                <sourcetrack>
                  <mediatype>video</mediatype>
                  <trackindex>1</trackindex>
                </sourcetrack>
                <multiclip id="mcs-488">
                  <name>MCS-488</name>
                  <masterclipid>clip-master</masterclipid>
                  <collapsed>false</collapsed>
                  <angle>
                    <activevideoangle>true</activevideoangle>
                    <activeaudioangle>true</activeaudioangle>
                    <clip id="clip-1"/>
                  </angle>
                  <angle>
                    <activevideoangle>false</activevideoangle>
                    <activeaudioangle>false</activeaudioangle>
                    <clip id="clip-2"/>
                  </angle>
                  <angle>
                    <activevideoangle>false</activevideoangle>
                    <activeaudioangle>false</activeaudioangle>
                    <clip id="clip-3"/>
                  </angle>
                  <angle>
                    <activevideoangle>false</activevideoangle>
                    <activeaudioangle>false</activeaudioangle>
                    <clip id="clip-4"/>
                  </angle>
                  <angle>
                    <activevideoangle>false</activevideoangle>
                    <activeaudioangle>false</activeaudioangle>
                    <clip id="clip-5"/>
                  </angle>
                  <angle>
                    <activevideoangle>false</activevideoangle>
                    <activeaudioangle>false</activeaudioangle>
                    <clip id="clip-6"/>
                  </angle>
                  <angle>
                    <activevideoangle>false</activevideoangle>
                    <activeaudioangle>false</activeaudioangle>
                    <clip id="clip-7"/>
                  </angle>
                  <angle>
                    <activevideoangle>false</activevideoangle>
                    <activeaudioangle>false</activeaudioangle>
                    <clip id="clip-8"/>
                  </angle>
                  <angle>
                    <activevideoangle>false</activevideoangle>
                    <activeaudioangle>false</activeaudioangle>
                    <clip id="clip-9"/>
                  </angle>
                  <masterclipid>clip-master</masterclipid>
                </multiclip>
              </clipitem>
              <clipitem id="cs-489">
                <duration>183</duration>
                <rate>
                  <ntsc>false</ntsc>
                  <timebase>25</timebase>
                </rate>
                <in>21828</in>
                <out>22010</out>
                <start>21828</start>
                <end>22010</end>
                <file id="src-3"/>
                <sourcetrack>
                  <mediatype>video</mediatype>
                  <trackindex>1</trackindex>
                </sourcetrack>
                <multiclip id="mcs-489">
                  <name>MCS-489</name>
                  <masterclipid>clip-master</masterclipid>
                  <collapsed>false</collapsed>
                  <angle>
                    <activevideoangle>false</activevideoangle>
                    <activeaudioangle>false</activeaudioangle>
                    <clip id="clip-1"/>
                  </angle>
                  <angle>
                    <activevideoangle>false</activevideoangle>
                    <activeaudioangle>false</activeaudioangle>
                    <clip id="clip-2"/>
                  </angle>
                  <angle>
                    <activevideoangle>true</activevideoangle>
                    <activeaudioangle>true</activeaudioangle>
                    <clip id="clip-3"/>
                  </angle>
                  <angle>
                    <activevideoangle>false</activevideoangle>
                    <activeaudioangle>false</activeaudioangle>
                    <clip id="clip-4"/>
                  </angle>
                  <angle>
                    <activevideoangle>false</activevideoangle>
                    <activeaudioangle>false</activeaudioangle>
                    <clip id="clip-5"/>
                  </angle>
                  <angle>
                    <activevideoangle>false</activevideoangle>
                    <activeaudioangle>false</activeaudioangle>
                    <clip id="clip-6"/>
                  </angle>
                  <angle>
                    <activevideoangle>false</activevideoangle>
                    <activeaudioangle>false</activeaudioangle>
                    <clip id="clip-7"/>
                  </angle>
                  <angle>
                    <activevideoangle>false</activevideoangle>
                    <activeaudioangle>false</activeaudioangle>
                    <clip id="clip-8"/>
                  </angle>
                  <angle>
                    <activevideoangle>false</activevideoangle>
                    <activeaudioangle>false</activeaudioangle>
                    <clip id="clip-9"/>
                  </angle>
                  <masterclipid>clip-master</masterclipid>
                </multiclip>
              </clipitem>
              <clipitem id="cs-490">
                <duration>37</duration>
                <rate>
                  <ntsc>false</ntsc>
                  <timebase>25</timebase>
                </rate>
                <in>22010</in>
                <out>22046</out>
                <start>22010</start>
                <end>22046</end>
                <file id="src-7"/>
                <sourcetrack>
                  <mediatype>video</mediatype>
                  <trackindex>1</trackindex>
                </sourcetrack>
                <multiclip id="mcs-490">
                  <name>MCS-490</name>
                  <masterclipid>clip-master</masterclipid>
                  <collapsed>false</collapsed>
                  <angle>
                    <activevideoangle>false</activevideoangle>
                    <activeaudioangle>false</activeaudioangle>
                    <clip id="clip-1"/>
                  </angle>
                  <angle>
                    <activevideoangle>false</activevideoangle>
                    <activeaudioangle>false</activeaudioangle>
                    <clip id="clip-2"/>
                  </angle>
                  <angle>
                    <activevideoangle>false</activevideoangle>
                    <activeaudioangle>false</activeaudioangle>
                    <clip id="clip-3"/>
                  </angle>
                  <angle>
                    <activevideoangle>false</activevideoangle>
                    <activeaudioangle>false</activeaudioangle>
                    <clip id="clip-4"/>
                  </angle>
                  <angle>
                    <activevideoangle>false</activevideoangle>
                    <activeaudioangle>false</activeaudioangle>
                    <clip id="clip-5"/>
                  </angle>
                  <angle>
                    <activevideoangle>false</activevideoangle>
                    <activeaudioangle>false</activeaudioangle>
                    <clip id="clip-6"/>
                  </angle>
                  <angle>
                    <activevideoangle>true</activevideoangle>
                    <activeaudioangle>true</activeaudioangle>
                    <clip id="clip-7"/>
                  </angle>
                  <angle>
                    <activevideoangle>false</activevideoangle>
                    <activeaudioangle>false</activeaudioangle>
                    <clip id="clip-8"/>
                  </angle>
                  <angle>
                    <activevideoangle>false</activevideoangle>
                    <activeaudioangle>false</activeaudioangle>
                    <clip id="clip-9"/>
                  </angle>
                  <masterclipid>clip-master</masterclipid>
                </multiclip>
              </clipitem>
              <clipitem id="cs-491">
                <duration>76</duration>
                <rate>
                  <ntsc>false</ntsc>
                  <timebase>25</timebase>
                </rate>
                <in>22046</in>
                <out>22121</out>
                <start>22046</start>
                <end>22121</end>
                <file id="src-4"/>
                <sourcetrack>
                  <mediatype>video</mediatype>
                  <trackindex>1</trackindex>
                </sourcetrack>
                <multiclip id="mcs-491">
                  <name>MCS-491</name>
                  <masterclipid>clip-master</masterclipid>
                  <collapsed>false</collapsed>
                  <angle>
                    <activevideoangle>false</activevideoangle>
                    <activeaudioangle>false</activeaudioangle>
                    <clip id="clip-1"/>
                  </angle>
                  <angle>
                    <activevideoangle>false</activevideoangle>
                    <activeaudioangle>false</activeaudioangle>
                    <clip id="clip-2"/>
                  </angle>
                  <angle>
                    <activevideoangle>false</activevideoangle>
                    <activeaudioangle>false</activeaudioangle>
                    <clip id="clip-3"/>
                  </angle>
                  <angle>
                    <activevideoangle>true</activevideoangle>
                    <activeaudioangle>true</activeaudioangle>
                    <clip id="clip-4"/>
                  </angle>
                  <angle>
                    <activevideoangle>false</activevideoangle>
                    <activeaudioangle>false</activeaudioangle>
                    <clip id="clip-5"/>
                  </angle>
                  <angle>
                    <activevideoangle>false</activevideoangle>
                    <activeaudioangle>false</activeaudioangle>
                    <clip id="clip-6"/>
                  </angle>
                  <angle>
                    <activevideoangle>false</activevideoangle>
                    <activeaudioangle>false</activeaudioangle>
                    <clip id="clip-7"/>
                  </angle>
                  <angle>
                    <activevideoangle>false</activevideoangle>
                    <activeaudioangle>false</activeaudioangle>
                    <clip id="clip-8"/>
                  </angle>
                  <angle>
                    <activevideoangle>false</activevideoangle>
                    <activeaudioangle>false</activeaudioangle>
                    <clip id="clip-9"/>
                  </angle>
                  <masterclipid>clip-master</masterclipid>
                </multiclip>
              </clipitem>
              <clipitem id="cs-492">
                <duration>72</duration>
                <rate>
                  <ntsc>false</ntsc>
                  <timebase>25</timebase>
                </rate>
                <in>22121</in>
                <out>22192</out>
                <start>22121</start>
                <end>22192</end>
                <file id="src-3"/>
                <sourcetrack>
                  <mediatype>video</mediatype>
                  <trackindex>1</trackindex>
                </sourcetrack>
                <multiclip id="mcs-492">
                  <name>MCS-492</name>
                  <masterclipid>clip-master</masterclipid>
                  <collapsed>false</collapsed>
                  <angle>
                    <activevideoangle>false</activevideoangle>
                    <activeaudioangle>false</activeaudioangle>
                    <clip id="clip-1"/>
                  </angle>
                  <angle>
                    <activevideoangle>false</activevideoangle>
                    <activeaudioangle>false</activeaudioangle>
                    <clip id="clip-2"/>
                  </angle>
                  <angle>
                    <activevideoangle>true</activevideoangle>
                    <activeaudioangle>true</activeaudioangle>
                    <clip id="clip-3"/>
                  </angle>
                  <angle>
                    <activevideoangle>false</activevideoangle>
                    <activeaudioangle>false</activeaudioangle>
                    <clip id="clip-4"/>
                  </angle>
                  <angle>
                    <activevideoangle>false</activevideoangle>
                    <activeaudioangle>false</activeaudioangle>
                    <clip id="clip-5"/>
                  </angle>
                  <angle>
                    <activevideoangle>false</activevideoangle>
                    <activeaudioangle>false</activeaudioangle>
                    <clip id="clip-6"/>
                  </angle>
                  <angle>
                    <activevideoangle>false</activevideoangle>
                    <activeaudioangle>false</activeaudioangle>
                    <clip id="clip-7"/>
                  </angle>
                  <angle>
                    <activevideoangle>false</activevideoangle>
                    <activeaudioangle>false</activeaudioangle>
                    <clip id="clip-8"/>
                  </angle>
                  <angle>
                    <activevideoangle>false</activevideoangle>
                    <activeaudioangle>false</activeaudioangle>
                    <clip id="clip-9"/>
                  </angle>
                  <masterclipid>clip-master</masterclipid>
                </multiclip>
              </clipitem>
              <clipitem id="cs-493">
                <duration>95</duration>
                <rate>
                  <ntsc>false</ntsc>
                  <timebase>25</timebase>
                </rate>
                <in>22192</in>
                <out>22286</out>
                <start>22192</start>
                <end>22286</end>
                <file id="src-4"/>
                <sourcetrack>
                  <mediatype>video</mediatype>
                  <trackindex>1</trackindex>
                </sourcetrack>
                <multiclip id="mcs-493">
                  <name>MCS-493</name>
                  <masterclipid>clip-master</masterclipid>
                  <collapsed>false</collapsed>
                  <angle>
                    <activevideoangle>false</activevideoangle>
                    <activeaudioangle>false</activeaudioangle>
                    <clip id="clip-1"/>
                  </angle>
                  <angle>
                    <activevideoangle>false</activevideoangle>
                    <activeaudioangle>false</activeaudioangle>
                    <clip id="clip-2"/>
                  </angle>
                  <angle>
                    <activevideoangle>false</activevideoangle>
                    <activeaudioangle>false</activeaudioangle>
                    <clip id="clip-3"/>
                  </angle>
                  <angle>
                    <activevideoangle>true</activevideoangle>
                    <activeaudioangle>true</activeaudioangle>
                    <clip id="clip-4"/>
                  </angle>
                  <angle>
                    <activevideoangle>false</activevideoangle>
                    <activeaudioangle>false</activeaudioangle>
                    <clip id="clip-5"/>
                  </angle>
                  <angle>
                    <activevideoangle>false</activevideoangle>
                    <activeaudioangle>false</activeaudioangle>
                    <clip id="clip-6"/>
                  </angle>
                  <angle>
                    <activevideoangle>false</activevideoangle>
                    <activeaudioangle>false</activeaudioangle>
                    <clip id="clip-7"/>
                  </angle>
                  <angle>
                    <activevideoangle>false</activevideoangle>
                    <activeaudioangle>false</activeaudioangle>
                    <clip id="clip-8"/>
                  </angle>
                  <angle>
                    <activevideoangle>false</activevideoangle>
                    <activeaudioangle>false</activeaudioangle>
                    <clip id="clip-9"/>
                  </angle>
                  <masterclipid>clip-master</masterclipid>
                </multiclip>
              </clipitem>
              <clipitem id="cs-494">
                <duration>45</duration>
                <rate>
                  <ntsc>false</ntsc>
                  <timebase>25</timebase>
                </rate>
                <in>22286</in>
                <out>22330</out>
                <start>22286</start>
                <end>22330</end>
                <file id="src-7"/>
                <sourcetrack>
                  <mediatype>video</mediatype>
                  <trackindex>1</trackindex>
                </sourcetrack>
                <multiclip id="mcs-494">
                  <name>MCS-494</name>
                  <masterclipid>clip-master</masterclipid>
                  <collapsed>false</collapsed>
                  <angle>
                    <activevideoangle>false</activevideoangle>
                    <activeaudioangle>false</activeaudioangle>
                    <clip id="clip-1"/>
                  </angle>
                  <angle>
                    <activevideoangle>false</activevideoangle>
                    <activeaudioangle>false</activeaudioangle>
                    <clip id="clip-2"/>
                  </angle>
                  <angle>
                    <activevideoangle>false</activevideoangle>
                    <activeaudioangle>false</activeaudioangle>
                    <clip id="clip-3"/>
                  </angle>
                  <angle>
                    <activevideoangle>false</activevideoangle>
                    <activeaudioangle>false</activeaudioangle>
                    <clip id="clip-4"/>
                  </angle>
                  <angle>
                    <activevideoangle>false</activevideoangle>
                    <activeaudioangle>false</activeaudioangle>
                    <clip id="clip-5"/>
                  </angle>
                  <angle>
                    <activevideoangle>false</activevideoangle>
                    <activeaudioangle>false</activeaudioangle>
                    <clip id="clip-6"/>
                  </angle>
                  <angle>
                    <activevideoangle>true</activevideoangle>
                    <activeaudioangle>true</activeaudioangle>
                    <clip id="clip-7"/>
                  </angle>
                  <angle>
                    <activevideoangle>false</activevideoangle>
                    <activeaudioangle>false</activeaudioangle>
                    <clip id="clip-8"/>
                  </angle>
                  <angle>
                    <activevideoangle>false</activevideoangle>
                    <activeaudioangle>false</activeaudioangle>
                    <clip id="clip-9"/>
                  </angle>
                  <masterclipid>clip-master</masterclipid>
                </multiclip>
              </clipitem>
              <clipitem id="cs-495">
                <duration>98</duration>
                <rate>
                  <ntsc>false</ntsc>
                  <timebase>25</timebase>
                </rate>
                <in>22330</in>
                <out>22427</out>
                <start>22330</start>
                <end>22427</end>
                <file id="src-2"/>
                <sourcetrack>
                  <mediatype>video</mediatype>
                  <trackindex>1</trackindex>
                </sourcetrack>
                <multiclip id="mcs-495">
                  <name>MCS-495</name>
                  <masterclipid>clip-master</masterclipid>
                  <collapsed>false</collapsed>
                  <angle>
                    <activevideoangle>false</activevideoangle>
                    <activeaudioangle>false</activeaudioangle>
                    <clip id="clip-1"/>
                  </angle>
                  <angle>
                    <activevideoangle>true</activevideoangle>
                    <activeaudioangle>true</activeaudioangle>
                    <clip id="clip-2"/>
                  </angle>
                  <angle>
                    <activevideoangle>false</activevideoangle>
                    <activeaudioangle>false</activeaudioangle>
                    <clip id="clip-3"/>
                  </angle>
                  <angle>
                    <activevideoangle>false</activevideoangle>
                    <activeaudioangle>false</activeaudioangle>
                    <clip id="clip-4"/>
                  </angle>
                  <angle>
                    <activevideoangle>false</activevideoangle>
                    <activeaudioangle>false</activeaudioangle>
                    <clip id="clip-5"/>
                  </angle>
                  <angle>
                    <activevideoangle>false</activevideoangle>
                    <activeaudioangle>false</activeaudioangle>
                    <clip id="clip-6"/>
                  </angle>
                  <angle>
                    <activevideoangle>false</activevideoangle>
                    <activeaudioangle>false</activeaudioangle>
                    <clip id="clip-7"/>
                  </angle>
                  <angle>
                    <activevideoangle>false</activevideoangle>
                    <activeaudioangle>false</activeaudioangle>
                    <clip id="clip-8"/>
                  </angle>
                  <angle>
                    <activevideoangle>false</activevideoangle>
                    <activeaudioangle>false</activeaudioangle>
                    <clip id="clip-9"/>
                  </angle>
                  <masterclipid>clip-master</masterclipid>
                </multiclip>
              </clipitem>
              <clipitem id="cs-496">
                <duration>95</duration>
                <rate>
                  <ntsc>false</ntsc>
                  <timebase>25</timebase>
                </rate>
                <in>22427</in>
                <out>22521</out>
                <start>22427</start>
                <end>22521</end>
                <file id="src-4"/>
                <sourcetrack>
                  <mediatype>video</mediatype>
                  <trackindex>1</trackindex>
                </sourcetrack>
                <multiclip id="mcs-496">
                  <name>MCS-496</name>
                  <masterclipid>clip-master</masterclipid>
                  <collapsed>false</collapsed>
                  <angle>
                    <activevideoangle>false</activevideoangle>
                    <activeaudioangle>false</activeaudioangle>
                    <clip id="clip-1"/>
                  </angle>
                  <angle>
                    <activevideoangle>false</activevideoangle>
                    <activeaudioangle>false</activeaudioangle>
                    <clip id="clip-2"/>
                  </angle>
                  <angle>
                    <activevideoangle>false</activevideoangle>
                    <activeaudioangle>false</activeaudioangle>
                    <clip id="clip-3"/>
                  </angle>
                  <angle>
                    <activevideoangle>true</activevideoangle>
                    <activeaudioangle>true</activeaudioangle>
                    <clip id="clip-4"/>
                  </angle>
                  <angle>
                    <activevideoangle>false</activevideoangle>
                    <activeaudioangle>false</activeaudioangle>
                    <clip id="clip-5"/>
                  </angle>
                  <angle>
                    <activevideoangle>false</activevideoangle>
                    <activeaudioangle>false</activeaudioangle>
                    <clip id="clip-6"/>
                  </angle>
                  <angle>
                    <activevideoangle>false</activevideoangle>
                    <activeaudioangle>false</activeaudioangle>
                    <clip id="clip-7"/>
                  </angle>
                  <angle>
                    <activevideoangle>false</activevideoangle>
                    <activeaudioangle>false</activeaudioangle>
                    <clip id="clip-8"/>
                  </angle>
                  <angle>
                    <activevideoangle>false</activevideoangle>
                    <activeaudioangle>false</activeaudioangle>
                    <clip id="clip-9"/>
                  </angle>
                  <masterclipid>clip-master</masterclipid>
                </multiclip>
              </clipitem>
              <clipitem id="cs-497">
                <duration>86</duration>
                <rate>
                  <ntsc>false</ntsc>
                  <timebase>25</timebase>
                </rate>
                <in>22521</in>
                <out>22606</out>
                <start>22521</start>
                <end>22606</end>
                <file id="src-1"/>
                <sourcetrack>
                  <mediatype>video</mediatype>
                  <trackindex>1</trackindex>
                </sourcetrack>
                <multiclip id="mcs-497">
                  <name>MCS-497</name>
                  <masterclipid>clip-master</masterclipid>
                  <collapsed>false</collapsed>
                  <angle>
                    <activevideoangle>true</activevideoangle>
                    <activeaudioangle>true</activeaudioangle>
                    <clip id="clip-1"/>
                  </angle>
                  <angle>
                    <activevideoangle>false</activevideoangle>
                    <activeaudioangle>false</activeaudioangle>
                    <clip id="clip-2"/>
                  </angle>
                  <angle>
                    <activevideoangle>false</activevideoangle>
                    <activeaudioangle>false</activeaudioangle>
                    <clip id="clip-3"/>
                  </angle>
                  <angle>
                    <activevideoangle>false</activevideoangle>
                    <activeaudioangle>false</activeaudioangle>
                    <clip id="clip-4"/>
                  </angle>
                  <angle>
                    <activevideoangle>false</activevideoangle>
                    <activeaudioangle>false</activeaudioangle>
                    <clip id="clip-5"/>
                  </angle>
                  <angle>
                    <activevideoangle>false</activevideoangle>
                    <activeaudioangle>false</activeaudioangle>
                    <clip id="clip-6"/>
                  </angle>
                  <angle>
                    <activevideoangle>false</activevideoangle>
                    <activeaudioangle>false</activeaudioangle>
                    <clip id="clip-7"/>
                  </angle>
                  <angle>
                    <activevideoangle>false</activevideoangle>
                    <activeaudioangle>false</activeaudioangle>
                    <clip id="clip-8"/>
                  </angle>
                  <angle>
                    <activevideoangle>false</activevideoangle>
                    <activeaudioangle>false</activeaudioangle>
                    <clip id="clip-9"/>
                  </angle>
                  <masterclipid>clip-master</masterclipid>
                </multiclip>
              </clipitem>
              <clipitem id="cs-498">
                <duration>59</duration>
                <rate>
                  <ntsc>false</ntsc>
                  <timebase>25</timebase>
                </rate>
                <in>22606</in>
                <out>22664</out>
                <start>22606</start>
                <end>22664</end>
                <file id="src-4"/>
                <sourcetrack>
                  <mediatype>video</mediatype>
                  <trackindex>1</trackindex>
                </sourcetrack>
                <multiclip id="mcs-498">
                  <name>MCS-498</name>
                  <masterclipid>clip-master</masterclipid>
                  <collapsed>false</collapsed>
                  <angle>
                    <activevideoangle>false</activevideoangle>
                    <activeaudioangle>false</activeaudioangle>
                    <clip id="clip-1"/>
                  </angle>
                  <angle>
                    <activevideoangle>false</activevideoangle>
                    <activeaudioangle>false</activeaudioangle>
                    <clip id="clip-2"/>
                  </angle>
                  <angle>
                    <activevideoangle>false</activevideoangle>
                    <activeaudioangle>false</activeaudioangle>
                    <clip id="clip-3"/>
                  </angle>
                  <angle>
                    <activevideoangle>true</activevideoangle>
                    <activeaudioangle>true</activeaudioangle>
                    <clip id="clip-4"/>
                  </angle>
                  <angle>
                    <activevideoangle>false</activevideoangle>
                    <activeaudioangle>false</activeaudioangle>
                    <clip id="clip-5"/>
                  </angle>
                  <angle>
                    <activevideoangle>false</activevideoangle>
                    <activeaudioangle>false</activeaudioangle>
                    <clip id="clip-6"/>
                  </angle>
                  <angle>
                    <activevideoangle>false</activevideoangle>
                    <activeaudioangle>false</activeaudioangle>
                    <clip id="clip-7"/>
                  </angle>
                  <angle>
                    <activevideoangle>false</activevideoangle>
                    <activeaudioangle>false</activeaudioangle>
                    <clip id="clip-8"/>
                  </angle>
                  <angle>
                    <activevideoangle>false</activevideoangle>
                    <activeaudioangle>false</activeaudioangle>
                    <clip id="clip-9"/>
                  </angle>
                  <masterclipid>clip-master</masterclipid>
                </multiclip>
              </clipitem>
              <clipitem id="cs-499">
                <duration>50</duration>
                <rate>
                  <ntsc>false</ntsc>
                  <timebase>25</timebase>
                </rate>
                <in>22664</in>
                <out>22713</out>
                <start>22664</start>
                <end>22713</end>
                <file id="src-3"/>
                <sourcetrack>
                  <mediatype>video</mediatype>
                  <trackindex>1</trackindex>
                </sourcetrack>
                <multiclip id="mcs-499">
                  <name>MCS-499</name>
                  <masterclipid>clip-master</masterclipid>
                  <collapsed>false</collapsed>
                  <angle>
                    <activevideoangle>false</activevideoangle>
                    <activeaudioangle>false</activeaudioangle>
                    <clip id="clip-1"/>
                  </angle>
                  <angle>
                    <activevideoangle>false</activevideoangle>
                    <activeaudioangle>false</activeaudioangle>
                    <clip id="clip-2"/>
                  </angle>
                  <angle>
                    <activevideoangle>true</activevideoangle>
                    <activeaudioangle>true</activeaudioangle>
                    <clip id="clip-3"/>
                  </angle>
                  <angle>
                    <activevideoangle>false</activevideoangle>
                    <activeaudioangle>false</activeaudioangle>
                    <clip id="clip-4"/>
                  </angle>
                  <angle>
                    <activevideoangle>false</activevideoangle>
                    <activeaudioangle>false</activeaudioangle>
                    <clip id="clip-5"/>
                  </angle>
                  <angle>
                    <activevideoangle>false</activevideoangle>
                    <activeaudioangle>false</activeaudioangle>
                    <clip id="clip-6"/>
                  </angle>
                  <angle>
                    <activevideoangle>false</activevideoangle>
                    <activeaudioangle>false</activeaudioangle>
                    <clip id="clip-7"/>
                  </angle>
                  <angle>
                    <activevideoangle>false</activevideoangle>
                    <activeaudioangle>false</activeaudioangle>
                    <clip id="clip-8"/>
                  </angle>
                  <angle>
                    <activevideoangle>false</activevideoangle>
                    <activeaudioangle>false</activeaudioangle>
                    <clip id="clip-9"/>
                  </angle>
                  <masterclipid>clip-master</masterclipid>
                </multiclip>
              </clipitem>
              <clipitem id="cs-500">
                <duration>48</duration>
                <rate>
                  <ntsc>false</ntsc>
                  <timebase>25</timebase>
                </rate>
                <in>22713</in>
                <out>22760</out>
                <start>22713</start>
                <end>22760</end>
                <file id="src-7"/>
                <sourcetrack>
                  <mediatype>video</mediatype>
                  <trackindex>1</trackindex>
                </sourcetrack>
                <multiclip id="mcs-500">
                  <name>MCS-500</name>
                  <masterclipid>clip-master</masterclipid>
                  <collapsed>false</collapsed>
                  <angle>
                    <activevideoangle>false</activevideoangle>
                    <activeaudioangle>false</activeaudioangle>
                    <clip id="clip-1"/>
                  </angle>
                  <angle>
                    <activevideoangle>false</activevideoangle>
                    <activeaudioangle>false</activeaudioangle>
                    <clip id="clip-2"/>
                  </angle>
                  <angle>
                    <activevideoangle>false</activevideoangle>
                    <activeaudioangle>false</activeaudioangle>
                    <clip id="clip-3"/>
                  </angle>
                  <angle>
                    <activevideoangle>false</activevideoangle>
                    <activeaudioangle>false</activeaudioangle>
                    <clip id="clip-4"/>
                  </angle>
                  <angle>
                    <activevideoangle>false</activevideoangle>
                    <activeaudioangle>false</activeaudioangle>
                    <clip id="clip-5"/>
                  </angle>
                  <angle>
                    <activevideoangle>false</activevideoangle>
                    <activeaudioangle>false</activeaudioangle>
                    <clip id="clip-6"/>
                  </angle>
                  <angle>
                    <activevideoangle>true</activevideoangle>
                    <activeaudioangle>true</activeaudioangle>
                    <clip id="clip-7"/>
                  </angle>
                  <angle>
                    <activevideoangle>false</activevideoangle>
                    <activeaudioangle>false</activeaudioangle>
                    <clip id="clip-8"/>
                  </angle>
                  <angle>
                    <activevideoangle>false</activevideoangle>
                    <activeaudioangle>false</activeaudioangle>
                    <clip id="clip-9"/>
                  </angle>
                  <masterclipid>clip-master</masterclipid>
                </multiclip>
              </clipitem>
              <clipitem id="cs-501">
                <duration>36</duration>
                <rate>
                  <ntsc>false</ntsc>
                  <timebase>25</timebase>
                </rate>
                <in>22760</in>
                <out>22795</out>
                <start>22760</start>
                <end>22795</end>
                <file id="src-2"/>
                <sourcetrack>
                  <mediatype>video</mediatype>
                  <trackindex>1</trackindex>
                </sourcetrack>
                <multiclip id="mcs-501">
                  <name>MCS-501</name>
                  <masterclipid>clip-master</masterclipid>
                  <collapsed>false</collapsed>
                  <angle>
                    <activevideoangle>false</activevideoangle>
                    <activeaudioangle>false</activeaudioangle>
                    <clip id="clip-1"/>
                  </angle>
                  <angle>
                    <activevideoangle>true</activevideoangle>
                    <activeaudioangle>true</activeaudioangle>
                    <clip id="clip-2"/>
                  </angle>
                  <angle>
                    <activevideoangle>false</activevideoangle>
                    <activeaudioangle>false</activeaudioangle>
                    <clip id="clip-3"/>
                  </angle>
                  <angle>
                    <activevideoangle>false</activevideoangle>
                    <activeaudioangle>false</activeaudioangle>
                    <clip id="clip-4"/>
                  </angle>
                  <angle>
                    <activevideoangle>false</activevideoangle>
                    <activeaudioangle>false</activeaudioangle>
                    <clip id="clip-5"/>
                  </angle>
                  <angle>
                    <activevideoangle>false</activevideoangle>
                    <activeaudioangle>false</activeaudioangle>
                    <clip id="clip-6"/>
                  </angle>
                  <angle>
                    <activevideoangle>false</activevideoangle>
                    <activeaudioangle>false</activeaudioangle>
                    <clip id="clip-7"/>
                  </angle>
                  <angle>
                    <activevideoangle>false</activevideoangle>
                    <activeaudioangle>false</activeaudioangle>
                    <clip id="clip-8"/>
                  </angle>
                  <angle>
                    <activevideoangle>false</activevideoangle>
                    <activeaudioangle>false</activeaudioangle>
                    <clip id="clip-9"/>
                  </angle>
                  <masterclipid>clip-master</masterclipid>
                </multiclip>
              </clipitem>
              <clipitem id="cs-502">
                <duration>83</duration>
                <rate>
                  <ntsc>false</ntsc>
                  <timebase>25</timebase>
                </rate>
                <in>22795</in>
                <out>22877</out>
                <start>22795</start>
                <end>22877</end>
                <file id="src-3"/>
                <sourcetrack>
                  <mediatype>video</mediatype>
                  <trackindex>1</trackindex>
                </sourcetrack>
                <multiclip id="mcs-502">
                  <name>MCS-502</name>
                  <masterclipid>clip-master</masterclipid>
                  <collapsed>false</collapsed>
                  <angle>
                    <activevideoangle>false</activevideoangle>
                    <activeaudioangle>false</activeaudioangle>
                    <clip id="clip-1"/>
                  </angle>
                  <angle>
                    <activevideoangle>false</activevideoangle>
                    <activeaudioangle>false</activeaudioangle>
                    <clip id="clip-2"/>
                  </angle>
                  <angle>
                    <activevideoangle>true</activevideoangle>
                    <activeaudioangle>true</activeaudioangle>
                    <clip id="clip-3"/>
                  </angle>
                  <angle>
                    <activevideoangle>false</activevideoangle>
                    <activeaudioangle>false</activeaudioangle>
                    <clip id="clip-4"/>
                  </angle>
                  <angle>
                    <activevideoangle>false</activevideoangle>
                    <activeaudioangle>false</activeaudioangle>
                    <clip id="clip-5"/>
                  </angle>
                  <angle>
                    <activevideoangle>false</activevideoangle>
                    <activeaudioangle>false</activeaudioangle>
                    <clip id="clip-6"/>
                  </angle>
                  <angle>
                    <activevideoangle>false</activevideoangle>
                    <activeaudioangle>false</activeaudioangle>
                    <clip id="clip-7"/>
                  </angle>
                  <angle>
                    <activevideoangle>false</activevideoangle>
                    <activeaudioangle>false</activeaudioangle>
                    <clip id="clip-8"/>
                  </angle>
                  <angle>
                    <activevideoangle>false</activevideoangle>
                    <activeaudioangle>false</activeaudioangle>
                    <clip id="clip-9"/>
                  </angle>
                  <masterclipid>clip-master</masterclipid>
                </multiclip>
              </clipitem>
              <clipitem id="cs-503">
                <duration>202</duration>
                <rate>
                  <ntsc>false</ntsc>
                  <timebase>25</timebase>
                </rate>
                <in>22877</in>
                <out>23078</out>
                <start>22877</start>
                <end>23078</end>
                <file id="src-4"/>
                <sourcetrack>
                  <mediatype>video</mediatype>
                  <trackindex>1</trackindex>
                </sourcetrack>
                <multiclip id="mcs-503">
                  <name>MCS-503</name>
                  <masterclipid>clip-master</masterclipid>
                  <collapsed>false</collapsed>
                  <angle>
                    <activevideoangle>false</activevideoangle>
                    <activeaudioangle>false</activeaudioangle>
                    <clip id="clip-1"/>
                  </angle>
                  <angle>
                    <activevideoangle>false</activevideoangle>
                    <activeaudioangle>false</activeaudioangle>
                    <clip id="clip-2"/>
                  </angle>
                  <angle>
                    <activevideoangle>false</activevideoangle>
                    <activeaudioangle>false</activeaudioangle>
                    <clip id="clip-3"/>
                  </angle>
                  <angle>
                    <activevideoangle>true</activevideoangle>
                    <activeaudioangle>true</activeaudioangle>
                    <clip id="clip-4"/>
                  </angle>
                  <angle>
                    <activevideoangle>false</activevideoangle>
                    <activeaudioangle>false</activeaudioangle>
                    <clip id="clip-5"/>
                  </angle>
                  <angle>
                    <activevideoangle>false</activevideoangle>
                    <activeaudioangle>false</activeaudioangle>
                    <clip id="clip-6"/>
                  </angle>
                  <angle>
                    <activevideoangle>false</activevideoangle>
                    <activeaudioangle>false</activeaudioangle>
                    <clip id="clip-7"/>
                  </angle>
                  <angle>
                    <activevideoangle>false</activevideoangle>
                    <activeaudioangle>false</activeaudioangle>
                    <clip id="clip-8"/>
                  </angle>
                  <angle>
                    <activevideoangle>false</activevideoangle>
                    <activeaudioangle>false</activeaudioangle>
                    <clip id="clip-9"/>
                  </angle>
                  <masterclipid>clip-master</masterclipid>
                </multiclip>
              </clipitem>
              <clipitem id="cs-504">
                <duration>262</duration>
                <rate>
                  <ntsc>false</ntsc>
                  <timebase>25</timebase>
                </rate>
                <in>23078</in>
                <out>23339</out>
                <start>23078</start>
                <end>23339</end>
                <file id="src-2"/>
                <sourcetrack>
                  <mediatype>video</mediatype>
                  <trackindex>1</trackindex>
                </sourcetrack>
                <multiclip id="mcs-504">
                  <name>MCS-504</name>
                  <masterclipid>clip-master</masterclipid>
                  <collapsed>false</collapsed>
                  <angle>
                    <activevideoangle>false</activevideoangle>
                    <activeaudioangle>false</activeaudioangle>
                    <clip id="clip-1"/>
                  </angle>
                  <angle>
                    <activevideoangle>true</activevideoangle>
                    <activeaudioangle>true</activeaudioangle>
                    <clip id="clip-2"/>
                  </angle>
                  <angle>
                    <activevideoangle>false</activevideoangle>
                    <activeaudioangle>false</activeaudioangle>
                    <clip id="clip-3"/>
                  </angle>
                  <angle>
                    <activevideoangle>false</activevideoangle>
                    <activeaudioangle>false</activeaudioangle>
                    <clip id="clip-4"/>
                  </angle>
                  <angle>
                    <activevideoangle>false</activevideoangle>
                    <activeaudioangle>false</activeaudioangle>
                    <clip id="clip-5"/>
                  </angle>
                  <angle>
                    <activevideoangle>false</activevideoangle>
                    <activeaudioangle>false</activeaudioangle>
                    <clip id="clip-6"/>
                  </angle>
                  <angle>
                    <activevideoangle>false</activevideoangle>
                    <activeaudioangle>false</activeaudioangle>
                    <clip id="clip-7"/>
                  </angle>
                  <angle>
                    <activevideoangle>false</activevideoangle>
                    <activeaudioangle>false</activeaudioangle>
                    <clip id="clip-8"/>
                  </angle>
                  <angle>
                    <activevideoangle>false</activevideoangle>
                    <activeaudioangle>false</activeaudioangle>
                    <clip id="clip-9"/>
                  </angle>
                  <masterclipid>clip-master</masterclipid>
                </multiclip>
              </clipitem>
              <clipitem id="cs-505">
                <duration>140</duration>
                <rate>
                  <ntsc>false</ntsc>
                  <timebase>25</timebase>
                </rate>
                <in>23339</in>
                <out>23478</out>
                <start>23339</start>
                <end>23478</end>
                <file id="src-3"/>
                <sourcetrack>
                  <mediatype>video</mediatype>
                  <trackindex>1</trackindex>
                </sourcetrack>
                <multiclip id="mcs-505">
                  <name>MCS-505</name>
                  <masterclipid>clip-master</masterclipid>
                  <collapsed>false</collapsed>
                  <angle>
                    <activevideoangle>false</activevideoangle>
                    <activeaudioangle>false</activeaudioangle>
                    <clip id="clip-1"/>
                  </angle>
                  <angle>
                    <activevideoangle>false</activevideoangle>
                    <activeaudioangle>false</activeaudioangle>
                    <clip id="clip-2"/>
                  </angle>
                  <angle>
                    <activevideoangle>true</activevideoangle>
                    <activeaudioangle>true</activeaudioangle>
                    <clip id="clip-3"/>
                  </angle>
                  <angle>
                    <activevideoangle>false</activevideoangle>
                    <activeaudioangle>false</activeaudioangle>
                    <clip id="clip-4"/>
                  </angle>
                  <angle>
                    <activevideoangle>false</activevideoangle>
                    <activeaudioangle>false</activeaudioangle>
                    <clip id="clip-5"/>
                  </angle>
                  <angle>
                    <activevideoangle>false</activevideoangle>
                    <activeaudioangle>false</activeaudioangle>
                    <clip id="clip-6"/>
                  </angle>
                  <angle>
                    <activevideoangle>false</activevideoangle>
                    <activeaudioangle>false</activeaudioangle>
                    <clip id="clip-7"/>
                  </angle>
                  <angle>
                    <activevideoangle>false</activevideoangle>
                    <activeaudioangle>false</activeaudioangle>
                    <clip id="clip-8"/>
                  </angle>
                  <angle>
                    <activevideoangle>false</activevideoangle>
                    <activeaudioangle>false</activeaudioangle>
                    <clip id="clip-9"/>
                  </angle>
                  <masterclipid>clip-master</masterclipid>
                </multiclip>
              </clipitem>
              <clipitem id="cs-506">
                <duration>99</duration>
                <rate>
                  <ntsc>false</ntsc>
                  <timebase>25</timebase>
                </rate>
                <in>23478</in>
                <out>23576</out>
                <start>23478</start>
                <end>23576</end>
                <file id="src-7"/>
                <sourcetrack>
                  <mediatype>video</mediatype>
                  <trackindex>1</trackindex>
                </sourcetrack>
                <multiclip id="mcs-506">
                  <name>MCS-506</name>
                  <masterclipid>clip-master</masterclipid>
                  <collapsed>false</collapsed>
                  <angle>
                    <activevideoangle>false</activevideoangle>
                    <activeaudioangle>false</activeaudioangle>
                    <clip id="clip-1"/>
                  </angle>
                  <angle>
                    <activevideoangle>false</activevideoangle>
                    <activeaudioangle>false</activeaudioangle>
                    <clip id="clip-2"/>
                  </angle>
                  <angle>
                    <activevideoangle>false</activevideoangle>
                    <activeaudioangle>false</activeaudioangle>
                    <clip id="clip-3"/>
                  </angle>
                  <angle>
                    <activevideoangle>false</activevideoangle>
                    <activeaudioangle>false</activeaudioangle>
                    <clip id="clip-4"/>
                  </angle>
                  <angle>
                    <activevideoangle>false</activevideoangle>
                    <activeaudioangle>false</activeaudioangle>
                    <clip id="clip-5"/>
                  </angle>
                  <angle>
                    <activevideoangle>false</activevideoangle>
                    <activeaudioangle>false</activeaudioangle>
                    <clip id="clip-6"/>
                  </angle>
                  <angle>
                    <activevideoangle>true</activevideoangle>
                    <activeaudioangle>true</activeaudioangle>
                    <clip id="clip-7"/>
                  </angle>
                  <angle>
                    <activevideoangle>false</activevideoangle>
                    <activeaudioangle>false</activeaudioangle>
                    <clip id="clip-8"/>
                  </angle>
                  <angle>
                    <activevideoangle>false</activevideoangle>
                    <activeaudioangle>false</activeaudioangle>
                    <clip id="clip-9"/>
                  </angle>
                  <masterclipid>clip-master</masterclipid>
                </multiclip>
              </clipitem>
              <clipitem id="cs-507">
                <duration>152</duration>
                <rate>
                  <ntsc>false</ntsc>
                  <timebase>25</timebase>
                </rate>
                <in>23576</in>
                <out>23727</out>
                <start>23576</start>
                <end>23727</end>
                <file id="src-2"/>
                <sourcetrack>
                  <mediatype>video</mediatype>
                  <trackindex>1</trackindex>
                </sourcetrack>
                <multiclip id="mcs-507">
                  <name>MCS-507</name>
                  <masterclipid>clip-master</masterclipid>
                  <collapsed>false</collapsed>
                  <angle>
                    <activevideoangle>false</activevideoangle>
                    <activeaudioangle>false</activeaudioangle>
                    <clip id="clip-1"/>
                  </angle>
                  <angle>
                    <activevideoangle>true</activevideoangle>
                    <activeaudioangle>true</activeaudioangle>
                    <clip id="clip-2"/>
                  </angle>
                  <angle>
                    <activevideoangle>false</activevideoangle>
                    <activeaudioangle>false</activeaudioangle>
                    <clip id="clip-3"/>
                  </angle>
                  <angle>
                    <activevideoangle>false</activevideoangle>
                    <activeaudioangle>false</activeaudioangle>
                    <clip id="clip-4"/>
                  </angle>
                  <angle>
                    <activevideoangle>false</activevideoangle>
                    <activeaudioangle>false</activeaudioangle>
                    <clip id="clip-5"/>
                  </angle>
                  <angle>
                    <activevideoangle>false</activevideoangle>
                    <activeaudioangle>false</activeaudioangle>
                    <clip id="clip-6"/>
                  </angle>
                  <angle>
                    <activevideoangle>false</activevideoangle>
                    <activeaudioangle>false</activeaudioangle>
                    <clip id="clip-7"/>
                  </angle>
                  <angle>
                    <activevideoangle>false</activevideoangle>
                    <activeaudioangle>false</activeaudioangle>
                    <clip id="clip-8"/>
                  </angle>
                  <angle>
                    <activevideoangle>false</activevideoangle>
                    <activeaudioangle>false</activeaudioangle>
                    <clip id="clip-9"/>
                  </angle>
                  <masterclipid>clip-master</masterclipid>
                </multiclip>
              </clipitem>
              <clipitem id="cs-508">
                <duration>173</duration>
                <rate>
                  <ntsc>false</ntsc>
                  <timebase>25</timebase>
                </rate>
                <in>23727</in>
                <out>23899</out>
                <start>23727</start>
                <end>23899</end>
                <file id="src-4"/>
                <sourcetrack>
                  <mediatype>video</mediatype>
                  <trackindex>1</trackindex>
                </sourcetrack>
                <multiclip id="mcs-508">
                  <name>MCS-508</name>
                  <masterclipid>clip-master</masterclipid>
                  <collapsed>false</collapsed>
                  <angle>
                    <activevideoangle>false</activevideoangle>
                    <activeaudioangle>false</activeaudioangle>
                    <clip id="clip-1"/>
                  </angle>
                  <angle>
                    <activevideoangle>false</activevideoangle>
                    <activeaudioangle>false</activeaudioangle>
                    <clip id="clip-2"/>
                  </angle>
                  <angle>
                    <activevideoangle>false</activevideoangle>
                    <activeaudioangle>false</activeaudioangle>
                    <clip id="clip-3"/>
                  </angle>
                  <angle>
                    <activevideoangle>true</activevideoangle>
                    <activeaudioangle>true</activeaudioangle>
                    <clip id="clip-4"/>
                  </angle>
                  <angle>
                    <activevideoangle>false</activevideoangle>
                    <activeaudioangle>false</activeaudioangle>
                    <clip id="clip-5"/>
                  </angle>
                  <angle>
                    <activevideoangle>false</activevideoangle>
                    <activeaudioangle>false</activeaudioangle>
                    <clip id="clip-6"/>
                  </angle>
                  <angle>
                    <activevideoangle>false</activevideoangle>
                    <activeaudioangle>false</activeaudioangle>
                    <clip id="clip-7"/>
                  </angle>
                  <angle>
                    <activevideoangle>false</activevideoangle>
                    <activeaudioangle>false</activeaudioangle>
                    <clip id="clip-8"/>
                  </angle>
                  <angle>
                    <activevideoangle>false</activevideoangle>
                    <activeaudioangle>false</activeaudioangle>
                    <clip id="clip-9"/>
                  </angle>
                  <masterclipid>clip-master</masterclipid>
                </multiclip>
              </clipitem>
              <clipitem id="cs-509">
                <duration>127</duration>
                <rate>
                  <ntsc>false</ntsc>
                  <timebase>25</timebase>
                </rate>
                <in>23899</in>
                <out>24025</out>
                <start>23899</start>
                <end>24025</end>
                <file id="src-3"/>
                <sourcetrack>
                  <mediatype>video</mediatype>
                  <trackindex>1</trackindex>
                </sourcetrack>
                <multiclip id="mcs-509">
                  <name>MCS-509</name>
                  <masterclipid>clip-master</masterclipid>
                  <collapsed>false</collapsed>
                  <angle>
                    <activevideoangle>false</activevideoangle>
                    <activeaudioangle>false</activeaudioangle>
                    <clip id="clip-1"/>
                  </angle>
                  <angle>
                    <activevideoangle>false</activevideoangle>
                    <activeaudioangle>false</activeaudioangle>
                    <clip id="clip-2"/>
                  </angle>
                  <angle>
                    <activevideoangle>true</activevideoangle>
                    <activeaudioangle>true</activeaudioangle>
                    <clip id="clip-3"/>
                  </angle>
                  <angle>
                    <activevideoangle>false</activevideoangle>
                    <activeaudioangle>false</activeaudioangle>
                    <clip id="clip-4"/>
                  </angle>
                  <angle>
                    <activevideoangle>false</activevideoangle>
                    <activeaudioangle>false</activeaudioangle>
                    <clip id="clip-5"/>
                  </angle>
                  <angle>
                    <activevideoangle>false</activevideoangle>
                    <activeaudioangle>false</activeaudioangle>
                    <clip id="clip-6"/>
                  </angle>
                  <angle>
                    <activevideoangle>false</activevideoangle>
                    <activeaudioangle>false</activeaudioangle>
                    <clip id="clip-7"/>
                  </angle>
                  <angle>
                    <activevideoangle>false</activevideoangle>
                    <activeaudioangle>false</activeaudioangle>
                    <clip id="clip-8"/>
                  </angle>
                  <angle>
                    <activevideoangle>false</activevideoangle>
                    <activeaudioangle>false</activeaudioangle>
                    <clip id="clip-9"/>
                  </angle>
                  <masterclipid>clip-master</masterclipid>
                </multiclip>
              </clipitem>
              <clipitem id="cs-510">
                <duration>65</duration>
                <rate>
                  <ntsc>false</ntsc>
                  <timebase>25</timebase>
                </rate>
                <in>24025</in>
                <out>24089</out>
                <start>24025</start>
                <end>24089</end>
                <file id="src-6"/>
                <sourcetrack>
                  <mediatype>video</mediatype>
                  <trackindex>1</trackindex>
                </sourcetrack>
                <multiclip id="mcs-510">
                  <name>MCS-510</name>
                  <masterclipid>clip-master</masterclipid>
                  <collapsed>false</collapsed>
                  <angle>
                    <activevideoangle>false</activevideoangle>
                    <activeaudioangle>false</activeaudioangle>
                    <clip id="clip-1"/>
                  </angle>
                  <angle>
                    <activevideoangle>false</activevideoangle>
                    <activeaudioangle>false</activeaudioangle>
                    <clip id="clip-2"/>
                  </angle>
                  <angle>
                    <activevideoangle>false</activevideoangle>
                    <activeaudioangle>false</activeaudioangle>
                    <clip id="clip-3"/>
                  </angle>
                  <angle>
                    <activevideoangle>false</activevideoangle>
                    <activeaudioangle>false</activeaudioangle>
                    <clip id="clip-4"/>
                  </angle>
                  <angle>
                    <activevideoangle>false</activevideoangle>
                    <activeaudioangle>false</activeaudioangle>
                    <clip id="clip-5"/>
                  </angle>
                  <angle>
                    <activevideoangle>true</activevideoangle>
                    <activeaudioangle>true</activeaudioangle>
                    <clip id="clip-6"/>
                  </angle>
                  <angle>
                    <activevideoangle>false</activevideoangle>
                    <activeaudioangle>false</activeaudioangle>
                    <clip id="clip-7"/>
                  </angle>
                  <angle>
                    <activevideoangle>false</activevideoangle>
                    <activeaudioangle>false</activeaudioangle>
                    <clip id="clip-8"/>
                  </angle>
                  <angle>
                    <activevideoangle>false</activevideoangle>
                    <activeaudioangle>false</activeaudioangle>
                    <clip id="clip-9"/>
                  </angle>
                  <masterclipid>clip-master</masterclipid>
                </multiclip>
              </clipitem>
              <clipitem id="cs-511">
                <duration>594</duration>
                <rate>
                  <ntsc>false</ntsc>
                  <timebase>25</timebase>
                </rate>
                <in>24089</in>
                <out>24682</out>
                <start>24089</start>
                <end>24682</end>
                <file id="src-4"/>
                <sourcetrack>
                  <mediatype>video</mediatype>
                  <trackindex>1</trackindex>
                </sourcetrack>
                <multiclip id="mcs-511">
                  <name>MCS-511</name>
                  <masterclipid>clip-master</masterclipid>
                  <collapsed>false</collapsed>
                  <angle>
                    <activevideoangle>false</activevideoangle>
                    <activeaudioangle>false</activeaudioangle>
                    <clip id="clip-1"/>
                  </angle>
                  <angle>
                    <activevideoangle>false</activevideoangle>
                    <activeaudioangle>false</activeaudioangle>
                    <clip id="clip-2"/>
                  </angle>
                  <angle>
                    <activevideoangle>false</activevideoangle>
                    <activeaudioangle>false</activeaudioangle>
                    <clip id="clip-3"/>
                  </angle>
                  <angle>
                    <activevideoangle>true</activevideoangle>
                    <activeaudioangle>true</activeaudioangle>
                    <clip id="clip-4"/>
                  </angle>
                  <angle>
                    <activevideoangle>false</activevideoangle>
                    <activeaudioangle>false</activeaudioangle>
                    <clip id="clip-5"/>
                  </angle>
                  <angle>
                    <activevideoangle>false</activevideoangle>
                    <activeaudioangle>false</activeaudioangle>
                    <clip id="clip-6"/>
                  </angle>
                  <angle>
                    <activevideoangle>false</activevideoangle>
                    <activeaudioangle>false</activeaudioangle>
                    <clip id="clip-7"/>
                  </angle>
                  <angle>
                    <activevideoangle>false</activevideoangle>
                    <activeaudioangle>false</activeaudioangle>
                    <clip id="clip-8"/>
                  </angle>
                  <angle>
                    <activevideoangle>false</activevideoangle>
                    <activeaudioangle>false</activeaudioangle>
                    <clip id="clip-9"/>
                  </angle>
                  <masterclipid>clip-master</masterclipid>
                </multiclip>
              </clipitem>
              <clipitem id="cs-512">
                <duration>217</duration>
                <rate>
                  <ntsc>false</ntsc>
                  <timebase>25</timebase>
                </rate>
                <in>24682</in>
                <out>24898</out>
                <start>24682</start>
                <end>24898</end>
                <file id="src-3"/>
                <sourcetrack>
                  <mediatype>video</mediatype>
                  <trackindex>1</trackindex>
                </sourcetrack>
                <multiclip id="mcs-512">
                  <name>MCS-512</name>
                  <masterclipid>clip-master</masterclipid>
                  <collapsed>false</collapsed>
                  <angle>
                    <activevideoangle>false</activevideoangle>
                    <activeaudioangle>false</activeaudioangle>
                    <clip id="clip-1"/>
                  </angle>
                  <angle>
                    <activevideoangle>false</activevideoangle>
                    <activeaudioangle>false</activeaudioangle>
                    <clip id="clip-2"/>
                  </angle>
                  <angle>
                    <activevideoangle>true</activevideoangle>
                    <activeaudioangle>true</activeaudioangle>
                    <clip id="clip-3"/>
                  </angle>
                  <angle>
                    <activevideoangle>false</activevideoangle>
                    <activeaudioangle>false</activeaudioangle>
                    <clip id="clip-4"/>
                  </angle>
                  <angle>
                    <activevideoangle>false</activevideoangle>
                    <activeaudioangle>false</activeaudioangle>
                    <clip id="clip-5"/>
                  </angle>
                  <angle>
                    <activevideoangle>false</activevideoangle>
                    <activeaudioangle>false</activeaudioangle>
                    <clip id="clip-6"/>
                  </angle>
                  <angle>
                    <activevideoangle>false</activevideoangle>
                    <activeaudioangle>false</activeaudioangle>
                    <clip id="clip-7"/>
                  </angle>
                  <angle>
                    <activevideoangle>false</activevideoangle>
                    <activeaudioangle>false</activeaudioangle>
                    <clip id="clip-8"/>
                  </angle>
                  <angle>
                    <activevideoangle>false</activevideoangle>
                    <activeaudioangle>false</activeaudioangle>
                    <clip id="clip-9"/>
                  </angle>
                  <masterclipid>clip-master</masterclipid>
                </multiclip>
              </clipitem>
              <clipitem id="cs-513">
                <duration>163</duration>
                <rate>
                  <ntsc>false</ntsc>
                  <timebase>25</timebase>
                </rate>
                <in>24898</in>
                <out>25060</out>
                <start>24898</start>
                <end>25060</end>
                <file id="src-4"/>
                <sourcetrack>
                  <mediatype>video</mediatype>
                  <trackindex>1</trackindex>
                </sourcetrack>
                <multiclip id="mcs-513">
                  <name>MCS-513</name>
                  <masterclipid>clip-master</masterclipid>
                  <collapsed>false</collapsed>
                  <angle>
                    <activevideoangle>false</activevideoangle>
                    <activeaudioangle>false</activeaudioangle>
                    <clip id="clip-1"/>
                  </angle>
                  <angle>
                    <activevideoangle>false</activevideoangle>
                    <activeaudioangle>false</activeaudioangle>
                    <clip id="clip-2"/>
                  </angle>
                  <angle>
                    <activevideoangle>false</activevideoangle>
                    <activeaudioangle>false</activeaudioangle>
                    <clip id="clip-3"/>
                  </angle>
                  <angle>
                    <activevideoangle>true</activevideoangle>
                    <activeaudioangle>true</activeaudioangle>
                    <clip id="clip-4"/>
                  </angle>
                  <angle>
                    <activevideoangle>false</activevideoangle>
                    <activeaudioangle>false</activeaudioangle>
                    <clip id="clip-5"/>
                  </angle>
                  <angle>
                    <activevideoangle>false</activevideoangle>
                    <activeaudioangle>false</activeaudioangle>
                    <clip id="clip-6"/>
                  </angle>
                  <angle>
                    <activevideoangle>false</activevideoangle>
                    <activeaudioangle>false</activeaudioangle>
                    <clip id="clip-7"/>
                  </angle>
                  <angle>
                    <activevideoangle>false</activevideoangle>
                    <activeaudioangle>false</activeaudioangle>
                    <clip id="clip-8"/>
                  </angle>
                  <angle>
                    <activevideoangle>false</activevideoangle>
                    <activeaudioangle>false</activeaudioangle>
                    <clip id="clip-9"/>
                  </angle>
                  <masterclipid>clip-master</masterclipid>
                </multiclip>
              </clipitem>
              <clipitem id="cs-514">
                <duration>101</duration>
                <rate>
                  <ntsc>false</ntsc>
                  <timebase>25</timebase>
                </rate>
                <in>25060</in>
                <out>25160</out>
                <start>25060</start>
                <end>25160</end>
                <file id="src-3"/>
                <sourcetrack>
                  <mediatype>video</mediatype>
                  <trackindex>1</trackindex>
                </sourcetrack>
                <multiclip id="mcs-514">
                  <name>MCS-514</name>
                  <masterclipid>clip-master</masterclipid>
                  <collapsed>false</collapsed>
                  <angle>
                    <activevideoangle>false</activevideoangle>
                    <activeaudioangle>false</activeaudioangle>
                    <clip id="clip-1"/>
                  </angle>
                  <angle>
                    <activevideoangle>false</activevideoangle>
                    <activeaudioangle>false</activeaudioangle>
                    <clip id="clip-2"/>
                  </angle>
                  <angle>
                    <activevideoangle>true</activevideoangle>
                    <activeaudioangle>true</activeaudioangle>
                    <clip id="clip-3"/>
                  </angle>
                  <angle>
                    <activevideoangle>false</activevideoangle>
                    <activeaudioangle>false</activeaudioangle>
                    <clip id="clip-4"/>
                  </angle>
                  <angle>
                    <activevideoangle>false</activevideoangle>
                    <activeaudioangle>false</activeaudioangle>
                    <clip id="clip-5"/>
                  </angle>
                  <angle>
                    <activevideoangle>false</activevideoangle>
                    <activeaudioangle>false</activeaudioangle>
                    <clip id="clip-6"/>
                  </angle>
                  <angle>
                    <activevideoangle>false</activevideoangle>
                    <activeaudioangle>false</activeaudioangle>
                    <clip id="clip-7"/>
                  </angle>
                  <angle>
                    <activevideoangle>false</activevideoangle>
                    <activeaudioangle>false</activeaudioangle>
                    <clip id="clip-8"/>
                  </angle>
                  <angle>
                    <activevideoangle>false</activevideoangle>
                    <activeaudioangle>false</activeaudioangle>
                    <clip id="clip-9"/>
                  </angle>
                  <masterclipid>clip-master</masterclipid>
                </multiclip>
              </clipitem>
              <clipitem id="cs-515">
                <duration>93</duration>
                <rate>
                  <ntsc>false</ntsc>
                  <timebase>25</timebase>
                </rate>
                <in>25160</in>
                <out>25252</out>
                <start>25160</start>
                <end>25252</end>
                <file id="src-2"/>
                <sourcetrack>
                  <mediatype>video</mediatype>
                  <trackindex>1</trackindex>
                </sourcetrack>
                <multiclip id="mcs-515">
                  <name>MCS-515</name>
                  <masterclipid>clip-master</masterclipid>
                  <collapsed>false</collapsed>
                  <angle>
                    <activevideoangle>false</activevideoangle>
                    <activeaudioangle>false</activeaudioangle>
                    <clip id="clip-1"/>
                  </angle>
                  <angle>
                    <activevideoangle>true</activevideoangle>
                    <activeaudioangle>true</activeaudioangle>
                    <clip id="clip-2"/>
                  </angle>
                  <angle>
                    <activevideoangle>false</activevideoangle>
                    <activeaudioangle>false</activeaudioangle>
                    <clip id="clip-3"/>
                  </angle>
                  <angle>
                    <activevideoangle>false</activevideoangle>
                    <activeaudioangle>false</activeaudioangle>
                    <clip id="clip-4"/>
                  </angle>
                  <angle>
                    <activevideoangle>false</activevideoangle>
                    <activeaudioangle>false</activeaudioangle>
                    <clip id="clip-5"/>
                  </angle>
                  <angle>
                    <activevideoangle>false</activevideoangle>
                    <activeaudioangle>false</activeaudioangle>
                    <clip id="clip-6"/>
                  </angle>
                  <angle>
                    <activevideoangle>false</activevideoangle>
                    <activeaudioangle>false</activeaudioangle>
                    <clip id="clip-7"/>
                  </angle>
                  <angle>
                    <activevideoangle>false</activevideoangle>
                    <activeaudioangle>false</activeaudioangle>
                    <clip id="clip-8"/>
                  </angle>
                  <angle>
                    <activevideoangle>false</activevideoangle>
                    <activeaudioangle>false</activeaudioangle>
                    <clip id="clip-9"/>
                  </angle>
                  <masterclipid>clip-master</masterclipid>
                </multiclip>
              </clipitem>
              <clipitem id="cs-516">
                <duration>69</duration>
                <rate>
                  <ntsc>false</ntsc>
                  <timebase>25</timebase>
                </rate>
                <in>25252</in>
                <out>25320</out>
                <start>25252</start>
                <end>25320</end>
                <file id="src-4"/>
                <sourcetrack>
                  <mediatype>video</mediatype>
                  <trackindex>1</trackindex>
                </sourcetrack>
                <multiclip id="mcs-516">
                  <name>MCS-516</name>
                  <masterclipid>clip-master</masterclipid>
                  <collapsed>false</collapsed>
                  <angle>
                    <activevideoangle>false</activevideoangle>
                    <activeaudioangle>false</activeaudioangle>
                    <clip id="clip-1"/>
                  </angle>
                  <angle>
                    <activevideoangle>false</activevideoangle>
                    <activeaudioangle>false</activeaudioangle>
                    <clip id="clip-2"/>
                  </angle>
                  <angle>
                    <activevideoangle>false</activevideoangle>
                    <activeaudioangle>false</activeaudioangle>
                    <clip id="clip-3"/>
                  </angle>
                  <angle>
                    <activevideoangle>true</activevideoangle>
                    <activeaudioangle>true</activeaudioangle>
                    <clip id="clip-4"/>
                  </angle>
                  <angle>
                    <activevideoangle>false</activevideoangle>
                    <activeaudioangle>false</activeaudioangle>
                    <clip id="clip-5"/>
                  </angle>
                  <angle>
                    <activevideoangle>false</activevideoangle>
                    <activeaudioangle>false</activeaudioangle>
                    <clip id="clip-6"/>
                  </angle>
                  <angle>
                    <activevideoangle>false</activevideoangle>
                    <activeaudioangle>false</activeaudioangle>
                    <clip id="clip-7"/>
                  </angle>
                  <angle>
                    <activevideoangle>false</activevideoangle>
                    <activeaudioangle>false</activeaudioangle>
                    <clip id="clip-8"/>
                  </angle>
                  <angle>
                    <activevideoangle>false</activevideoangle>
                    <activeaudioangle>false</activeaudioangle>
                    <clip id="clip-9"/>
                  </angle>
                  <masterclipid>clip-master</masterclipid>
                </multiclip>
              </clipitem>
              <clipitem id="cs-517">
                <duration>73</duration>
                <rate>
                  <ntsc>false</ntsc>
                  <timebase>25</timebase>
                </rate>
                <in>25320</in>
                <out>25392</out>
                <start>25320</start>
                <end>25392</end>
                <file id="src-3"/>
                <sourcetrack>
                  <mediatype>video</mediatype>
                  <trackindex>1</trackindex>
                </sourcetrack>
                <multiclip id="mcs-517">
                  <name>MCS-517</name>
                  <masterclipid>clip-master</masterclipid>
                  <collapsed>false</collapsed>
                  <angle>
                    <activevideoangle>false</activevideoangle>
                    <activeaudioangle>false</activeaudioangle>
                    <clip id="clip-1"/>
                  </angle>
                  <angle>
                    <activevideoangle>false</activevideoangle>
                    <activeaudioangle>false</activeaudioangle>
                    <clip id="clip-2"/>
                  </angle>
                  <angle>
                    <activevideoangle>true</activevideoangle>
                    <activeaudioangle>true</activeaudioangle>
                    <clip id="clip-3"/>
                  </angle>
                  <angle>
                    <activevideoangle>false</activevideoangle>
                    <activeaudioangle>false</activeaudioangle>
                    <clip id="clip-4"/>
                  </angle>
                  <angle>
                    <activevideoangle>false</activevideoangle>
                    <activeaudioangle>false</activeaudioangle>
                    <clip id="clip-5"/>
                  </angle>
                  <angle>
                    <activevideoangle>false</activevideoangle>
                    <activeaudioangle>false</activeaudioangle>
                    <clip id="clip-6"/>
                  </angle>
                  <angle>
                    <activevideoangle>false</activevideoangle>
                    <activeaudioangle>false</activeaudioangle>
                    <clip id="clip-7"/>
                  </angle>
                  <angle>
                    <activevideoangle>false</activevideoangle>
                    <activeaudioangle>false</activeaudioangle>
                    <clip id="clip-8"/>
                  </angle>
                  <angle>
                    <activevideoangle>false</activevideoangle>
                    <activeaudioangle>false</activeaudioangle>
                    <clip id="clip-9"/>
                  </angle>
                  <masterclipid>clip-master</masterclipid>
                </multiclip>
              </clipitem>
              <clipitem id="cs-518">
                <duration>94</duration>
                <rate>
                  <ntsc>false</ntsc>
                  <timebase>25</timebase>
                </rate>
                <in>25392</in>
                <out>25485</out>
                <start>25392</start>
                <end>25485</end>
                <file id="src-2"/>
                <sourcetrack>
                  <mediatype>video</mediatype>
                  <trackindex>1</trackindex>
                </sourcetrack>
                <multiclip id="mcs-518">
                  <name>MCS-518</name>
                  <masterclipid>clip-master</masterclipid>
                  <collapsed>false</collapsed>
                  <angle>
                    <activevideoangle>false</activevideoangle>
                    <activeaudioangle>false</activeaudioangle>
                    <clip id="clip-1"/>
                  </angle>
                  <angle>
                    <activevideoangle>true</activevideoangle>
                    <activeaudioangle>true</activeaudioangle>
                    <clip id="clip-2"/>
                  </angle>
                  <angle>
                    <activevideoangle>false</activevideoangle>
                    <activeaudioangle>false</activeaudioangle>
                    <clip id="clip-3"/>
                  </angle>
                  <angle>
                    <activevideoangle>false</activevideoangle>
                    <activeaudioangle>false</activeaudioangle>
                    <clip id="clip-4"/>
                  </angle>
                  <angle>
                    <activevideoangle>false</activevideoangle>
                    <activeaudioangle>false</activeaudioangle>
                    <clip id="clip-5"/>
                  </angle>
                  <angle>
                    <activevideoangle>false</activevideoangle>
                    <activeaudioangle>false</activeaudioangle>
                    <clip id="clip-6"/>
                  </angle>
                  <angle>
                    <activevideoangle>false</activevideoangle>
                    <activeaudioangle>false</activeaudioangle>
                    <clip id="clip-7"/>
                  </angle>
                  <angle>
                    <activevideoangle>false</activevideoangle>
                    <activeaudioangle>false</activeaudioangle>
                    <clip id="clip-8"/>
                  </angle>
                  <angle>
                    <activevideoangle>false</activevideoangle>
                    <activeaudioangle>false</activeaudioangle>
                    <clip id="clip-9"/>
                  </angle>
                  <masterclipid>clip-master</masterclipid>
                </multiclip>
              </clipitem>
              <clipitem id="cs-519">
                <duration>64</duration>
                <rate>
                  <ntsc>false</ntsc>
                  <timebase>25</timebase>
                </rate>
                <in>25485</in>
                <out>25548</out>
                <start>25485</start>
                <end>25548</end>
                <file id="src-5"/>
                <sourcetrack>
                  <mediatype>video</mediatype>
                  <trackindex>1</trackindex>
                </sourcetrack>
                <multiclip id="mcs-519">
                  <name>MCS-519</name>
                  <masterclipid>clip-master</masterclipid>
                  <collapsed>false</collapsed>
                  <angle>
                    <activevideoangle>false</activevideoangle>
                    <activeaudioangle>false</activeaudioangle>
                    <clip id="clip-1"/>
                  </angle>
                  <angle>
                    <activevideoangle>false</activevideoangle>
                    <activeaudioangle>false</activeaudioangle>
                    <clip id="clip-2"/>
                  </angle>
                  <angle>
                    <activevideoangle>false</activevideoangle>
                    <activeaudioangle>false</activeaudioangle>
                    <clip id="clip-3"/>
                  </angle>
                  <angle>
                    <activevideoangle>false</activevideoangle>
                    <activeaudioangle>false</activeaudioangle>
                    <clip id="clip-4"/>
                  </angle>
                  <angle>
                    <activevideoangle>true</activevideoangle>
                    <activeaudioangle>true</activeaudioangle>
                    <clip id="clip-5"/>
                  </angle>
                  <angle>
                    <activevideoangle>false</activevideoangle>
                    <activeaudioangle>false</activeaudioangle>
                    <clip id="clip-6"/>
                  </angle>
                  <angle>
                    <activevideoangle>false</activevideoangle>
                    <activeaudioangle>false</activeaudioangle>
                    <clip id="clip-7"/>
                  </angle>
                  <angle>
                    <activevideoangle>false</activevideoangle>
                    <activeaudioangle>false</activeaudioangle>
                    <clip id="clip-8"/>
                  </angle>
                  <angle>
                    <activevideoangle>false</activevideoangle>
                    <activeaudioangle>false</activeaudioangle>
                    <clip id="clip-9"/>
                  </angle>
                  <masterclipid>clip-master</masterclipid>
                </multiclip>
              </clipitem>
              <clipitem id="cs-520">
                <duration>90</duration>
                <rate>
                  <ntsc>false</ntsc>
                  <timebase>25</timebase>
                </rate>
                <in>25548</in>
                <out>25637</out>
                <start>25548</start>
                <end>25637</end>
                <file id="src-2"/>
                <sourcetrack>
                  <mediatype>video</mediatype>
                  <trackindex>1</trackindex>
                </sourcetrack>
                <multiclip id="mcs-520">
                  <name>MCS-520</name>
                  <masterclipid>clip-master</masterclipid>
                  <collapsed>false</collapsed>
                  <angle>
                    <activevideoangle>false</activevideoangle>
                    <activeaudioangle>false</activeaudioangle>
                    <clip id="clip-1"/>
                  </angle>
                  <angle>
                    <activevideoangle>true</activevideoangle>
                    <activeaudioangle>true</activeaudioangle>
                    <clip id="clip-2"/>
                  </angle>
                  <angle>
                    <activevideoangle>false</activevideoangle>
                    <activeaudioangle>false</activeaudioangle>
                    <clip id="clip-3"/>
                  </angle>
                  <angle>
                    <activevideoangle>false</activevideoangle>
                    <activeaudioangle>false</activeaudioangle>
                    <clip id="clip-4"/>
                  </angle>
                  <angle>
                    <activevideoangle>false</activevideoangle>
                    <activeaudioangle>false</activeaudioangle>
                    <clip id="clip-5"/>
                  </angle>
                  <angle>
                    <activevideoangle>false</activevideoangle>
                    <activeaudioangle>false</activeaudioangle>
                    <clip id="clip-6"/>
                  </angle>
                  <angle>
                    <activevideoangle>false</activevideoangle>
                    <activeaudioangle>false</activeaudioangle>
                    <clip id="clip-7"/>
                  </angle>
                  <angle>
                    <activevideoangle>false</activevideoangle>
                    <activeaudioangle>false</activeaudioangle>
                    <clip id="clip-8"/>
                  </angle>
                  <angle>
                    <activevideoangle>false</activevideoangle>
                    <activeaudioangle>false</activeaudioangle>
                    <clip id="clip-9"/>
                  </angle>
                  <masterclipid>clip-master</masterclipid>
                </multiclip>
              </clipitem>
              <clipitem id="cs-521">
                <duration>64</duration>
                <rate>
                  <ntsc>false</ntsc>
                  <timebase>25</timebase>
                </rate>
                <in>25637</in>
                <out>25700</out>
                <start>25637</start>
                <end>25700</end>
                <file id="src-3"/>
                <sourcetrack>
                  <mediatype>video</mediatype>
                  <trackindex>1</trackindex>
                </sourcetrack>
                <multiclip id="mcs-521">
                  <name>MCS-521</name>
                  <masterclipid>clip-master</masterclipid>
                  <collapsed>false</collapsed>
                  <angle>
                    <activevideoangle>false</activevideoangle>
                    <activeaudioangle>false</activeaudioangle>
                    <clip id="clip-1"/>
                  </angle>
                  <angle>
                    <activevideoangle>false</activevideoangle>
                    <activeaudioangle>false</activeaudioangle>
                    <clip id="clip-2"/>
                  </angle>
                  <angle>
                    <activevideoangle>true</activevideoangle>
                    <activeaudioangle>true</activeaudioangle>
                    <clip id="clip-3"/>
                  </angle>
                  <angle>
                    <activevideoangle>false</activevideoangle>
                    <activeaudioangle>false</activeaudioangle>
                    <clip id="clip-4"/>
                  </angle>
                  <angle>
                    <activevideoangle>false</activevideoangle>
                    <activeaudioangle>false</activeaudioangle>
                    <clip id="clip-5"/>
                  </angle>
                  <angle>
                    <activevideoangle>false</activevideoangle>
                    <activeaudioangle>false</activeaudioangle>
                    <clip id="clip-6"/>
                  </angle>
                  <angle>
                    <activevideoangle>false</activevideoangle>
                    <activeaudioangle>false</activeaudioangle>
                    <clip id="clip-7"/>
                  </angle>
                  <angle>
                    <activevideoangle>false</activevideoangle>
                    <activeaudioangle>false</activeaudioangle>
                    <clip id="clip-8"/>
                  </angle>
                  <angle>
                    <activevideoangle>false</activevideoangle>
                    <activeaudioangle>false</activeaudioangle>
                    <clip id="clip-9"/>
                  </angle>
                  <masterclipid>clip-master</masterclipid>
                </multiclip>
              </clipitem>
              <clipitem id="cs-522">
                <duration>70</duration>
                <rate>
                  <ntsc>false</ntsc>
                  <timebase>25</timebase>
                </rate>
                <in>25700</in>
                <out>25769</out>
                <start>25700</start>
                <end>25769</end>
                <file id="src-4"/>
                <sourcetrack>
                  <mediatype>video</mediatype>
                  <trackindex>1</trackindex>
                </sourcetrack>
                <multiclip id="mcs-522">
                  <name>MCS-522</name>
                  <masterclipid>clip-master</masterclipid>
                  <collapsed>false</collapsed>
                  <angle>
                    <activevideoangle>false</activevideoangle>
                    <activeaudioangle>false</activeaudioangle>
                    <clip id="clip-1"/>
                  </angle>
                  <angle>
                    <activevideoangle>false</activevideoangle>
                    <activeaudioangle>false</activeaudioangle>
                    <clip id="clip-2"/>
                  </angle>
                  <angle>
                    <activevideoangle>false</activevideoangle>
                    <activeaudioangle>false</activeaudioangle>
                    <clip id="clip-3"/>
                  </angle>
                  <angle>
                    <activevideoangle>true</activevideoangle>
                    <activeaudioangle>true</activeaudioangle>
                    <clip id="clip-4"/>
                  </angle>
                  <angle>
                    <activevideoangle>false</activevideoangle>
                    <activeaudioangle>false</activeaudioangle>
                    <clip id="clip-5"/>
                  </angle>
                  <angle>
                    <activevideoangle>false</activevideoangle>
                    <activeaudioangle>false</activeaudioangle>
                    <clip id="clip-6"/>
                  </angle>
                  <angle>
                    <activevideoangle>false</activevideoangle>
                    <activeaudioangle>false</activeaudioangle>
                    <clip id="clip-7"/>
                  </angle>
                  <angle>
                    <activevideoangle>false</activevideoangle>
                    <activeaudioangle>false</activeaudioangle>
                    <clip id="clip-8"/>
                  </angle>
                  <angle>
                    <activevideoangle>false</activevideoangle>
                    <activeaudioangle>false</activeaudioangle>
                    <clip id="clip-9"/>
                  </angle>
                  <masterclipid>clip-master</masterclipid>
                </multiclip>
              </clipitem>
              <clipitem id="cs-523">
                <duration>119</duration>
                <rate>
                  <ntsc>false</ntsc>
                  <timebase>25</timebase>
                </rate>
                <in>25769</in>
                <out>25887</out>
                <start>25769</start>
                <end>25887</end>
                <file id="src-2"/>
                <sourcetrack>
                  <mediatype>video</mediatype>
                  <trackindex>1</trackindex>
                </sourcetrack>
                <multiclip id="mcs-523">
                  <name>MCS-523</name>
                  <masterclipid>clip-master</masterclipid>
                  <collapsed>false</collapsed>
                  <angle>
                    <activevideoangle>false</activevideoangle>
                    <activeaudioangle>false</activeaudioangle>
                    <clip id="clip-1"/>
                  </angle>
                  <angle>
                    <activevideoangle>true</activevideoangle>
                    <activeaudioangle>true</activeaudioangle>
                    <clip id="clip-2"/>
                  </angle>
                  <angle>
                    <activevideoangle>false</activevideoangle>
                    <activeaudioangle>false</activeaudioangle>
                    <clip id="clip-3"/>
                  </angle>
                  <angle>
                    <activevideoangle>false</activevideoangle>
                    <activeaudioangle>false</activeaudioangle>
                    <clip id="clip-4"/>
                  </angle>
                  <angle>
                    <activevideoangle>false</activevideoangle>
                    <activeaudioangle>false</activeaudioangle>
                    <clip id="clip-5"/>
                  </angle>
                  <angle>
                    <activevideoangle>false</activevideoangle>
                    <activeaudioangle>false</activeaudioangle>
                    <clip id="clip-6"/>
                  </angle>
                  <angle>
                    <activevideoangle>false</activevideoangle>
                    <activeaudioangle>false</activeaudioangle>
                    <clip id="clip-7"/>
                  </angle>
                  <angle>
                    <activevideoangle>false</activevideoangle>
                    <activeaudioangle>false</activeaudioangle>
                    <clip id="clip-8"/>
                  </angle>
                  <angle>
                    <activevideoangle>false</activevideoangle>
                    <activeaudioangle>false</activeaudioangle>
                    <clip id="clip-9"/>
                  </angle>
                  <masterclipid>clip-master</masterclipid>
                </multiclip>
              </clipitem>
              <clipitem id="cs-524">
                <duration>84</duration>
                <rate>
                  <ntsc>false</ntsc>
                  <timebase>25</timebase>
                </rate>
                <in>25887</in>
                <out>25970</out>
                <start>25887</start>
                <end>25970</end>
                <file id="src-6"/>
                <sourcetrack>
                  <mediatype>video</mediatype>
                  <trackindex>1</trackindex>
                </sourcetrack>
                <multiclip id="mcs-524">
                  <name>MCS-524</name>
                  <masterclipid>clip-master</masterclipid>
                  <collapsed>false</collapsed>
                  <angle>
                    <activevideoangle>false</activevideoangle>
                    <activeaudioangle>false</activeaudioangle>
                    <clip id="clip-1"/>
                  </angle>
                  <angle>
                    <activevideoangle>false</activevideoangle>
                    <activeaudioangle>false</activeaudioangle>
                    <clip id="clip-2"/>
                  </angle>
                  <angle>
                    <activevideoangle>false</activevideoangle>
                    <activeaudioangle>false</activeaudioangle>
                    <clip id="clip-3"/>
                  </angle>
                  <angle>
                    <activevideoangle>false</activevideoangle>
                    <activeaudioangle>false</activeaudioangle>
                    <clip id="clip-4"/>
                  </angle>
                  <angle>
                    <activevideoangle>false</activevideoangle>
                    <activeaudioangle>false</activeaudioangle>
                    <clip id="clip-5"/>
                  </angle>
                  <angle>
                    <activevideoangle>true</activevideoangle>
                    <activeaudioangle>true</activeaudioangle>
                    <clip id="clip-6"/>
                  </angle>
                  <angle>
                    <activevideoangle>false</activevideoangle>
                    <activeaudioangle>false</activeaudioangle>
                    <clip id="clip-7"/>
                  </angle>
                  <angle>
                    <activevideoangle>false</activevideoangle>
                    <activeaudioangle>false</activeaudioangle>
                    <clip id="clip-8"/>
                  </angle>
                  <angle>
                    <activevideoangle>false</activevideoangle>
                    <activeaudioangle>false</activeaudioangle>
                    <clip id="clip-9"/>
                  </angle>
                  <masterclipid>clip-master</masterclipid>
                </multiclip>
              </clipitem>
              <clipitem id="cs-525">
                <duration>91</duration>
                <rate>
                  <ntsc>false</ntsc>
                  <timebase>25</timebase>
                </rate>
                <in>25970</in>
                <out>26060</out>
                <start>25970</start>
                <end>26060</end>
                <file id="src-4"/>
                <sourcetrack>
                  <mediatype>video</mediatype>
                  <trackindex>1</trackindex>
                </sourcetrack>
                <multiclip id="mcs-525">
                  <name>MCS-525</name>
                  <masterclipid>clip-master</masterclipid>
                  <collapsed>false</collapsed>
                  <angle>
                    <activevideoangle>false</activevideoangle>
                    <activeaudioangle>false</activeaudioangle>
                    <clip id="clip-1"/>
                  </angle>
                  <angle>
                    <activevideoangle>false</activevideoangle>
                    <activeaudioangle>false</activeaudioangle>
                    <clip id="clip-2"/>
                  </angle>
                  <angle>
                    <activevideoangle>false</activevideoangle>
                    <activeaudioangle>false</activeaudioangle>
                    <clip id="clip-3"/>
                  </angle>
                  <angle>
                    <activevideoangle>true</activevideoangle>
                    <activeaudioangle>true</activeaudioangle>
                    <clip id="clip-4"/>
                  </angle>
                  <angle>
                    <activevideoangle>false</activevideoangle>
                    <activeaudioangle>false</activeaudioangle>
                    <clip id="clip-5"/>
                  </angle>
                  <angle>
                    <activevideoangle>false</activevideoangle>
                    <activeaudioangle>false</activeaudioangle>
                    <clip id="clip-6"/>
                  </angle>
                  <angle>
                    <activevideoangle>false</activevideoangle>
                    <activeaudioangle>false</activeaudioangle>
                    <clip id="clip-7"/>
                  </angle>
                  <angle>
                    <activevideoangle>false</activevideoangle>
                    <activeaudioangle>false</activeaudioangle>
                    <clip id="clip-8"/>
                  </angle>
                  <angle>
                    <activevideoangle>false</activevideoangle>
                    <activeaudioangle>false</activeaudioangle>
                    <clip id="clip-9"/>
                  </angle>
                  <masterclipid>clip-master</masterclipid>
                </multiclip>
              </clipitem>
              <clipitem id="cs-526">
                <duration>94</duration>
                <rate>
                  <ntsc>false</ntsc>
                  <timebase>25</timebase>
                </rate>
                <in>26060</in>
                <out>26153</out>
                <start>26060</start>
                <end>26153</end>
                <file id="src-3"/>
                <sourcetrack>
                  <mediatype>video</mediatype>
                  <trackindex>1</trackindex>
                </sourcetrack>
                <multiclip id="mcs-526">
                  <name>MCS-526</name>
                  <masterclipid>clip-master</masterclipid>
                  <collapsed>false</collapsed>
                  <angle>
                    <activevideoangle>false</activevideoangle>
                    <activeaudioangle>false</activeaudioangle>
                    <clip id="clip-1"/>
                  </angle>
                  <angle>
                    <activevideoangle>false</activevideoangle>
                    <activeaudioangle>false</activeaudioangle>
                    <clip id="clip-2"/>
                  </angle>
                  <angle>
                    <activevideoangle>true</activevideoangle>
                    <activeaudioangle>true</activeaudioangle>
                    <clip id="clip-3"/>
                  </angle>
                  <angle>
                    <activevideoangle>false</activevideoangle>
                    <activeaudioangle>false</activeaudioangle>
                    <clip id="clip-4"/>
                  </angle>
                  <angle>
                    <activevideoangle>false</activevideoangle>
                    <activeaudioangle>false</activeaudioangle>
                    <clip id="clip-5"/>
                  </angle>
                  <angle>
                    <activevideoangle>false</activevideoangle>
                    <activeaudioangle>false</activeaudioangle>
                    <clip id="clip-6"/>
                  </angle>
                  <angle>
                    <activevideoangle>false</activevideoangle>
                    <activeaudioangle>false</activeaudioangle>
                    <clip id="clip-7"/>
                  </angle>
                  <angle>
                    <activevideoangle>false</activevideoangle>
                    <activeaudioangle>false</activeaudioangle>
                    <clip id="clip-8"/>
                  </angle>
                  <angle>
                    <activevideoangle>false</activevideoangle>
                    <activeaudioangle>false</activeaudioangle>
                    <clip id="clip-9"/>
                  </angle>
                  <masterclipid>clip-master</masterclipid>
                </multiclip>
              </clipitem>
              <clipitem id="cs-527">
                <duration>73</duration>
                <rate>
                  <ntsc>false</ntsc>
                  <timebase>25</timebase>
                </rate>
                <in>26153</in>
                <out>26225</out>
                <start>26153</start>
                <end>26225</end>
                <file id="src-5"/>
                <sourcetrack>
                  <mediatype>video</mediatype>
                  <trackindex>1</trackindex>
                </sourcetrack>
                <multiclip id="mcs-527">
                  <name>MCS-527</name>
                  <masterclipid>clip-master</masterclipid>
                  <collapsed>false</collapsed>
                  <angle>
                    <activevideoangle>false</activevideoangle>
                    <activeaudioangle>false</activeaudioangle>
                    <clip id="clip-1"/>
                  </angle>
                  <angle>
                    <activevideoangle>false</activevideoangle>
                    <activeaudioangle>false</activeaudioangle>
                    <clip id="clip-2"/>
                  </angle>
                  <angle>
                    <activevideoangle>false</activevideoangle>
                    <activeaudioangle>false</activeaudioangle>
                    <clip id="clip-3"/>
                  </angle>
                  <angle>
                    <activevideoangle>false</activevideoangle>
                    <activeaudioangle>false</activeaudioangle>
                    <clip id="clip-4"/>
                  </angle>
                  <angle>
                    <activevideoangle>true</activevideoangle>
                    <activeaudioangle>true</activeaudioangle>
                    <clip id="clip-5"/>
                  </angle>
                  <angle>
                    <activevideoangle>false</activevideoangle>
                    <activeaudioangle>false</activeaudioangle>
                    <clip id="clip-6"/>
                  </angle>
                  <angle>
                    <activevideoangle>false</activevideoangle>
                    <activeaudioangle>false</activeaudioangle>
                    <clip id="clip-7"/>
                  </angle>
                  <angle>
                    <activevideoangle>false</activevideoangle>
                    <activeaudioangle>false</activeaudioangle>
                    <clip id="clip-8"/>
                  </angle>
                  <angle>
                    <activevideoangle>false</activevideoangle>
                    <activeaudioangle>false</activeaudioangle>
                    <clip id="clip-9"/>
                  </angle>
                  <masterclipid>clip-master</masterclipid>
                </multiclip>
              </clipitem>
              <clipitem id="cs-528">
                <duration>168</duration>
                <rate>
                  <ntsc>false</ntsc>
                  <timebase>25</timebase>
                </rate>
                <in>26225</in>
                <out>26392</out>
                <start>26225</start>
                <end>26392</end>
                <file id="src-3"/>
                <sourcetrack>
                  <mediatype>video</mediatype>
                  <trackindex>1</trackindex>
                </sourcetrack>
                <multiclip id="mcs-528">
                  <name>MCS-528</name>
                  <masterclipid>clip-master</masterclipid>
                  <collapsed>false</collapsed>
                  <angle>
                    <activevideoangle>false</activevideoangle>
                    <activeaudioangle>false</activeaudioangle>
                    <clip id="clip-1"/>
                  </angle>
                  <angle>
                    <activevideoangle>false</activevideoangle>
                    <activeaudioangle>false</activeaudioangle>
                    <clip id="clip-2"/>
                  </angle>
                  <angle>
                    <activevideoangle>true</activevideoangle>
                    <activeaudioangle>true</activeaudioangle>
                    <clip id="clip-3"/>
                  </angle>
                  <angle>
                    <activevideoangle>false</activevideoangle>
                    <activeaudioangle>false</activeaudioangle>
                    <clip id="clip-4"/>
                  </angle>
                  <angle>
                    <activevideoangle>false</activevideoangle>
                    <activeaudioangle>false</activeaudioangle>
                    <clip id="clip-5"/>
                  </angle>
                  <angle>
                    <activevideoangle>false</activevideoangle>
                    <activeaudioangle>false</activeaudioangle>
                    <clip id="clip-6"/>
                  </angle>
                  <angle>
                    <activevideoangle>false</activevideoangle>
                    <activeaudioangle>false</activeaudioangle>
                    <clip id="clip-7"/>
                  </angle>
                  <angle>
                    <activevideoangle>false</activevideoangle>
                    <activeaudioangle>false</activeaudioangle>
                    <clip id="clip-8"/>
                  </angle>
                  <angle>
                    <activevideoangle>false</activevideoangle>
                    <activeaudioangle>false</activeaudioangle>
                    <clip id="clip-9"/>
                  </angle>
                  <masterclipid>clip-master</masterclipid>
                </multiclip>
              </clipitem>
              <clipitem id="cs-529">
                <duration>179</duration>
                <rate>
                  <ntsc>false</ntsc>
                  <timebase>25</timebase>
                </rate>
                <in>26392</in>
                <out>26570</out>
                <start>26392</start>
                <end>26570</end>
                <file id="src-2"/>
                <sourcetrack>
                  <mediatype>video</mediatype>
                  <trackindex>1</trackindex>
                </sourcetrack>
                <multiclip id="mcs-529">
                  <name>MCS-529</name>
                  <masterclipid>clip-master</masterclipid>
                  <collapsed>false</collapsed>
                  <angle>
                    <activevideoangle>false</activevideoangle>
                    <activeaudioangle>false</activeaudioangle>
                    <clip id="clip-1"/>
                  </angle>
                  <angle>
                    <activevideoangle>true</activevideoangle>
                    <activeaudioangle>true</activeaudioangle>
                    <clip id="clip-2"/>
                  </angle>
                  <angle>
                    <activevideoangle>false</activevideoangle>
                    <activeaudioangle>false</activeaudioangle>
                    <clip id="clip-3"/>
                  </angle>
                  <angle>
                    <activevideoangle>false</activevideoangle>
                    <activeaudioangle>false</activeaudioangle>
                    <clip id="clip-4"/>
                  </angle>
                  <angle>
                    <activevideoangle>false</activevideoangle>
                    <activeaudioangle>false</activeaudioangle>
                    <clip id="clip-5"/>
                  </angle>
                  <angle>
                    <activevideoangle>false</activevideoangle>
                    <activeaudioangle>false</activeaudioangle>
                    <clip id="clip-6"/>
                  </angle>
                  <angle>
                    <activevideoangle>false</activevideoangle>
                    <activeaudioangle>false</activeaudioangle>
                    <clip id="clip-7"/>
                  </angle>
                  <angle>
                    <activevideoangle>false</activevideoangle>
                    <activeaudioangle>false</activeaudioangle>
                    <clip id="clip-8"/>
                  </angle>
                  <angle>
                    <activevideoangle>false</activevideoangle>
                    <activeaudioangle>false</activeaudioangle>
                    <clip id="clip-9"/>
                  </angle>
                  <masterclipid>clip-master</masterclipid>
                </multiclip>
              </clipitem>
              <clipitem id="cs-530">
                <duration>160</duration>
                <rate>
                  <ntsc>false</ntsc>
                  <timebase>25</timebase>
                </rate>
                <in>26570</in>
                <out>26729</out>
                <start>26570</start>
                <end>26729</end>
                <file id="src-7"/>
                <sourcetrack>
                  <mediatype>video</mediatype>
                  <trackindex>1</trackindex>
                </sourcetrack>
                <multiclip id="mcs-530">
                  <name>MCS-530</name>
                  <masterclipid>clip-master</masterclipid>
                  <collapsed>false</collapsed>
                  <angle>
                    <activevideoangle>false</activevideoangle>
                    <activeaudioangle>false</activeaudioangle>
                    <clip id="clip-1"/>
                  </angle>
                  <angle>
                    <activevideoangle>false</activevideoangle>
                    <activeaudioangle>false</activeaudioangle>
                    <clip id="clip-2"/>
                  </angle>
                  <angle>
                    <activevideoangle>false</activevideoangle>
                    <activeaudioangle>false</activeaudioangle>
                    <clip id="clip-3"/>
                  </angle>
                  <angle>
                    <activevideoangle>false</activevideoangle>
                    <activeaudioangle>false</activeaudioangle>
                    <clip id="clip-4"/>
                  </angle>
                  <angle>
                    <activevideoangle>false</activevideoangle>
                    <activeaudioangle>false</activeaudioangle>
                    <clip id="clip-5"/>
                  </angle>
                  <angle>
                    <activevideoangle>false</activevideoangle>
                    <activeaudioangle>false</activeaudioangle>
                    <clip id="clip-6"/>
                  </angle>
                  <angle>
                    <activevideoangle>true</activevideoangle>
                    <activeaudioangle>true</activeaudioangle>
                    <clip id="clip-7"/>
                  </angle>
                  <angle>
                    <activevideoangle>false</activevideoangle>
                    <activeaudioangle>false</activeaudioangle>
                    <clip id="clip-8"/>
                  </angle>
                  <angle>
                    <activevideoangle>false</activevideoangle>
                    <activeaudioangle>false</activeaudioangle>
                    <clip id="clip-9"/>
                  </angle>
                  <masterclipid>clip-master</masterclipid>
                </multiclip>
              </clipitem>
              <clipitem id="cs-531">
                <duration>140</duration>
                <rate>
                  <ntsc>false</ntsc>
                  <timebase>25</timebase>
                </rate>
                <in>26729</in>
                <out>26868</out>
                <start>26729</start>
                <end>26868</end>
                <file id="src-4"/>
                <sourcetrack>
                  <mediatype>video</mediatype>
                  <trackindex>1</trackindex>
                </sourcetrack>
                <multiclip id="mcs-531">
                  <name>MCS-531</name>
                  <masterclipid>clip-master</masterclipid>
                  <collapsed>false</collapsed>
                  <angle>
                    <activevideoangle>false</activevideoangle>
                    <activeaudioangle>false</activeaudioangle>
                    <clip id="clip-1"/>
                  </angle>
                  <angle>
                    <activevideoangle>false</activevideoangle>
                    <activeaudioangle>false</activeaudioangle>
                    <clip id="clip-2"/>
                  </angle>
                  <angle>
                    <activevideoangle>false</activevideoangle>
                    <activeaudioangle>false</activeaudioangle>
                    <clip id="clip-3"/>
                  </angle>
                  <angle>
                    <activevideoangle>true</activevideoangle>
                    <activeaudioangle>true</activeaudioangle>
                    <clip id="clip-4"/>
                  </angle>
                  <angle>
                    <activevideoangle>false</activevideoangle>
                    <activeaudioangle>false</activeaudioangle>
                    <clip id="clip-5"/>
                  </angle>
                  <angle>
                    <activevideoangle>false</activevideoangle>
                    <activeaudioangle>false</activeaudioangle>
                    <clip id="clip-6"/>
                  </angle>
                  <angle>
                    <activevideoangle>false</activevideoangle>
                    <activeaudioangle>false</activeaudioangle>
                    <clip id="clip-7"/>
                  </angle>
                  <angle>
                    <activevideoangle>false</activevideoangle>
                    <activeaudioangle>false</activeaudioangle>
                    <clip id="clip-8"/>
                  </angle>
                  <angle>
                    <activevideoangle>false</activevideoangle>
                    <activeaudioangle>false</activeaudioangle>
                    <clip id="clip-9"/>
                  </angle>
                  <masterclipid>clip-master</masterclipid>
                </multiclip>
              </clipitem>
              <clipitem id="cs-532">
                <duration>353</duration>
                <rate>
                  <ntsc>false</ntsc>
                  <timebase>25</timebase>
                </rate>
                <in>26868</in>
                <out>27220</out>
                <start>26868</start>
                <end>27220</end>
                <file id="src-3"/>
                <sourcetrack>
                  <mediatype>video</mediatype>
                  <trackindex>1</trackindex>
                </sourcetrack>
                <multiclip id="mcs-532">
                  <name>MCS-532</name>
                  <masterclipid>clip-master</masterclipid>
                  <collapsed>false</collapsed>
                  <angle>
                    <activevideoangle>false</activevideoangle>
                    <activeaudioangle>false</activeaudioangle>
                    <clip id="clip-1"/>
                  </angle>
                  <angle>
                    <activevideoangle>false</activevideoangle>
                    <activeaudioangle>false</activeaudioangle>
                    <clip id="clip-2"/>
                  </angle>
                  <angle>
                    <activevideoangle>true</activevideoangle>
                    <activeaudioangle>true</activeaudioangle>
                    <clip id="clip-3"/>
                  </angle>
                  <angle>
                    <activevideoangle>false</activevideoangle>
                    <activeaudioangle>false</activeaudioangle>
                    <clip id="clip-4"/>
                  </angle>
                  <angle>
                    <activevideoangle>false</activevideoangle>
                    <activeaudioangle>false</activeaudioangle>
                    <clip id="clip-5"/>
                  </angle>
                  <angle>
                    <activevideoangle>false</activevideoangle>
                    <activeaudioangle>false</activeaudioangle>
                    <clip id="clip-6"/>
                  </angle>
                  <angle>
                    <activevideoangle>false</activevideoangle>
                    <activeaudioangle>false</activeaudioangle>
                    <clip id="clip-7"/>
                  </angle>
                  <angle>
                    <activevideoangle>false</activevideoangle>
                    <activeaudioangle>false</activeaudioangle>
                    <clip id="clip-8"/>
                  </angle>
                  <angle>
                    <activevideoangle>false</activevideoangle>
                    <activeaudioangle>false</activeaudioangle>
                    <clip id="clip-9"/>
                  </angle>
                  <masterclipid>clip-master</masterclipid>
                </multiclip>
              </clipitem>
              <clipitem id="cs-533">
                <duration>96</duration>
                <rate>
                  <ntsc>false</ntsc>
                  <timebase>25</timebase>
                </rate>
                <in>27220</in>
                <out>27315</out>
                <start>27220</start>
                <end>27315</end>
                <file id="src-4"/>
                <sourcetrack>
                  <mediatype>video</mediatype>
                  <trackindex>1</trackindex>
                </sourcetrack>
                <multiclip id="mcs-533">
                  <name>MCS-533</name>
                  <masterclipid>clip-master</masterclipid>
                  <collapsed>false</collapsed>
                  <angle>
                    <activevideoangle>false</activevideoangle>
                    <activeaudioangle>false</activeaudioangle>
                    <clip id="clip-1"/>
                  </angle>
                  <angle>
                    <activevideoangle>false</activevideoangle>
                    <activeaudioangle>false</activeaudioangle>
                    <clip id="clip-2"/>
                  </angle>
                  <angle>
                    <activevideoangle>false</activevideoangle>
                    <activeaudioangle>false</activeaudioangle>
                    <clip id="clip-3"/>
                  </angle>
                  <angle>
                    <activevideoangle>true</activevideoangle>
                    <activeaudioangle>true</activeaudioangle>
                    <clip id="clip-4"/>
                  </angle>
                  <angle>
                    <activevideoangle>false</activevideoangle>
                    <activeaudioangle>false</activeaudioangle>
                    <clip id="clip-5"/>
                  </angle>
                  <angle>
                    <activevideoangle>false</activevideoangle>
                    <activeaudioangle>false</activeaudioangle>
                    <clip id="clip-6"/>
                  </angle>
                  <angle>
                    <activevideoangle>false</activevideoangle>
                    <activeaudioangle>false</activeaudioangle>
                    <clip id="clip-7"/>
                  </angle>
                  <angle>
                    <activevideoangle>false</activevideoangle>
                    <activeaudioangle>false</activeaudioangle>
                    <clip id="clip-8"/>
                  </angle>
                  <angle>
                    <activevideoangle>false</activevideoangle>
                    <activeaudioangle>false</activeaudioangle>
                    <clip id="clip-9"/>
                  </angle>
                  <masterclipid>clip-master</masterclipid>
                </multiclip>
              </clipitem>
              <clipitem id="cs-534">
                <duration>99</duration>
                <rate>
                  <ntsc>false</ntsc>
                  <timebase>25</timebase>
                </rate>
                <in>27315</in>
                <out>27413</out>
                <start>27315</start>
                <end>27413</end>
                <file id="src-5"/>
                <sourcetrack>
                  <mediatype>video</mediatype>
                  <trackindex>1</trackindex>
                </sourcetrack>
                <multiclip id="mcs-534">
                  <name>MCS-534</name>
                  <masterclipid>clip-master</masterclipid>
                  <collapsed>false</collapsed>
                  <angle>
                    <activevideoangle>false</activevideoangle>
                    <activeaudioangle>false</activeaudioangle>
                    <clip id="clip-1"/>
                  </angle>
                  <angle>
                    <activevideoangle>false</activevideoangle>
                    <activeaudioangle>false</activeaudioangle>
                    <clip id="clip-2"/>
                  </angle>
                  <angle>
                    <activevideoangle>false</activevideoangle>
                    <activeaudioangle>false</activeaudioangle>
                    <clip id="clip-3"/>
                  </angle>
                  <angle>
                    <activevideoangle>false</activevideoangle>
                    <activeaudioangle>false</activeaudioangle>
                    <clip id="clip-4"/>
                  </angle>
                  <angle>
                    <activevideoangle>true</activevideoangle>
                    <activeaudioangle>true</activeaudioangle>
                    <clip id="clip-5"/>
                  </angle>
                  <angle>
                    <activevideoangle>false</activevideoangle>
                    <activeaudioangle>false</activeaudioangle>
                    <clip id="clip-6"/>
                  </angle>
                  <angle>
                    <activevideoangle>false</activevideoangle>
                    <activeaudioangle>false</activeaudioangle>
                    <clip id="clip-7"/>
                  </angle>
                  <angle>
                    <activevideoangle>false</activevideoangle>
                    <activeaudioangle>false</activeaudioangle>
                    <clip id="clip-8"/>
                  </angle>
                  <angle>
                    <activevideoangle>false</activevideoangle>
                    <activeaudioangle>false</activeaudioangle>
                    <clip id="clip-9"/>
                  </angle>
                  <masterclipid>clip-master</masterclipid>
                </multiclip>
              </clipitem>
              <clipitem id="cs-535">
                <duration>63</duration>
                <rate>
                  <ntsc>false</ntsc>
                  <timebase>25</timebase>
                </rate>
                <in>27413</in>
                <out>27475</out>
                <start>27413</start>
                <end>27475</end>
                <file id="src-3"/>
                <sourcetrack>
                  <mediatype>video</mediatype>
                  <trackindex>1</trackindex>
                </sourcetrack>
                <multiclip id="mcs-535">
                  <name>MCS-535</name>
                  <masterclipid>clip-master</masterclipid>
                  <collapsed>false</collapsed>
                  <angle>
                    <activevideoangle>false</activevideoangle>
                    <activeaudioangle>false</activeaudioangle>
                    <clip id="clip-1"/>
                  </angle>
                  <angle>
                    <activevideoangle>false</activevideoangle>
                    <activeaudioangle>false</activeaudioangle>
                    <clip id="clip-2"/>
                  </angle>
                  <angle>
                    <activevideoangle>true</activevideoangle>
                    <activeaudioangle>true</activeaudioangle>
                    <clip id="clip-3"/>
                  </angle>
                  <angle>
                    <activevideoangle>false</activevideoangle>
                    <activeaudioangle>false</activeaudioangle>
                    <clip id="clip-4"/>
                  </angle>
                  <angle>
                    <activevideoangle>false</activevideoangle>
                    <activeaudioangle>false</activeaudioangle>
                    <clip id="clip-5"/>
                  </angle>
                  <angle>
                    <activevideoangle>false</activevideoangle>
                    <activeaudioangle>false</activeaudioangle>
                    <clip id="clip-6"/>
                  </angle>
                  <angle>
                    <activevideoangle>false</activevideoangle>
                    <activeaudioangle>false</activeaudioangle>
                    <clip id="clip-7"/>
                  </angle>
                  <angle>
                    <activevideoangle>false</activevideoangle>
                    <activeaudioangle>false</activeaudioangle>
                    <clip id="clip-8"/>
                  </angle>
                  <angle>
                    <activevideoangle>false</activevideoangle>
                    <activeaudioangle>false</activeaudioangle>
                    <clip id="clip-9"/>
                  </angle>
                  <masterclipid>clip-master</masterclipid>
                </multiclip>
              </clipitem>
              <clipitem id="cs-536">
                <duration>54</duration>
                <rate>
                  <ntsc>false</ntsc>
                  <timebase>25</timebase>
                </rate>
                <in>27475</in>
                <out>27528</out>
                <start>27475</start>
                <end>27528</end>
                <file id="src-4"/>
                <sourcetrack>
                  <mediatype>video</mediatype>
                  <trackindex>1</trackindex>
                </sourcetrack>
                <multiclip id="mcs-536">
                  <name>MCS-536</name>
                  <masterclipid>clip-master</masterclipid>
                  <collapsed>false</collapsed>
                  <angle>
                    <activevideoangle>false</activevideoangle>
                    <activeaudioangle>false</activeaudioangle>
                    <clip id="clip-1"/>
                  </angle>
                  <angle>
                    <activevideoangle>false</activevideoangle>
                    <activeaudioangle>false</activeaudioangle>
                    <clip id="clip-2"/>
                  </angle>
                  <angle>
                    <activevideoangle>false</activevideoangle>
                    <activeaudioangle>false</activeaudioangle>
                    <clip id="clip-3"/>
                  </angle>
                  <angle>
                    <activevideoangle>true</activevideoangle>
                    <activeaudioangle>true</activeaudioangle>
                    <clip id="clip-4"/>
                  </angle>
                  <angle>
                    <activevideoangle>false</activevideoangle>
                    <activeaudioangle>false</activeaudioangle>
                    <clip id="clip-5"/>
                  </angle>
                  <angle>
                    <activevideoangle>false</activevideoangle>
                    <activeaudioangle>false</activeaudioangle>
                    <clip id="clip-6"/>
                  </angle>
                  <angle>
                    <activevideoangle>false</activevideoangle>
                    <activeaudioangle>false</activeaudioangle>
                    <clip id="clip-7"/>
                  </angle>
                  <angle>
                    <activevideoangle>false</activevideoangle>
                    <activeaudioangle>false</activeaudioangle>
                    <clip id="clip-8"/>
                  </angle>
                  <angle>
                    <activevideoangle>false</activevideoangle>
                    <activeaudioangle>false</activeaudioangle>
                    <clip id="clip-9"/>
                  </angle>
                  <masterclipid>clip-master</masterclipid>
                </multiclip>
              </clipitem>
              <clipitem id="cs-537">
                <duration>66</duration>
                <rate>
                  <ntsc>false</ntsc>
                  <timebase>25</timebase>
                </rate>
                <in>27528</in>
                <out>27593</out>
                <start>27528</start>
                <end>27593</end>
                <file id="src-6"/>
                <sourcetrack>
                  <mediatype>video</mediatype>
                  <trackindex>1</trackindex>
                </sourcetrack>
                <multiclip id="mcs-537">
                  <name>MCS-537</name>
                  <masterclipid>clip-master</masterclipid>
                  <collapsed>false</collapsed>
                  <angle>
                    <activevideoangle>false</activevideoangle>
                    <activeaudioangle>false</activeaudioangle>
                    <clip id="clip-1"/>
                  </angle>
                  <angle>
                    <activevideoangle>false</activevideoangle>
                    <activeaudioangle>false</activeaudioangle>
                    <clip id="clip-2"/>
                  </angle>
                  <angle>
                    <activevideoangle>false</activevideoangle>
                    <activeaudioangle>false</activeaudioangle>
                    <clip id="clip-3"/>
                  </angle>
                  <angle>
                    <activevideoangle>false</activevideoangle>
                    <activeaudioangle>false</activeaudioangle>
                    <clip id="clip-4"/>
                  </angle>
                  <angle>
                    <activevideoangle>false</activevideoangle>
                    <activeaudioangle>false</activeaudioangle>
                    <clip id="clip-5"/>
                  </angle>
                  <angle>
                    <activevideoangle>true</activevideoangle>
                    <activeaudioangle>true</activeaudioangle>
                    <clip id="clip-6"/>
                  </angle>
                  <angle>
                    <activevideoangle>false</activevideoangle>
                    <activeaudioangle>false</activeaudioangle>
                    <clip id="clip-7"/>
                  </angle>
                  <angle>
                    <activevideoangle>false</activevideoangle>
                    <activeaudioangle>false</activeaudioangle>
                    <clip id="clip-8"/>
                  </angle>
                  <angle>
                    <activevideoangle>false</activevideoangle>
                    <activeaudioangle>false</activeaudioangle>
                    <clip id="clip-9"/>
                  </angle>
                  <masterclipid>clip-master</masterclipid>
                </multiclip>
              </clipitem>
              <clipitem id="cs-538">
                <duration>53</duration>
                <rate>
                  <ntsc>false</ntsc>
                  <timebase>25</timebase>
                </rate>
                <in>27593</in>
                <out>27645</out>
                <start>27593</start>
                <end>27645</end>
                <file id="src-3"/>
                <sourcetrack>
                  <mediatype>video</mediatype>
                  <trackindex>1</trackindex>
                </sourcetrack>
                <multiclip id="mcs-538">
                  <name>MCS-538</name>
                  <masterclipid>clip-master</masterclipid>
                  <collapsed>false</collapsed>
                  <angle>
                    <activevideoangle>false</activevideoangle>
                    <activeaudioangle>false</activeaudioangle>
                    <clip id="clip-1"/>
                  </angle>
                  <angle>
                    <activevideoangle>false</activevideoangle>
                    <activeaudioangle>false</activeaudioangle>
                    <clip id="clip-2"/>
                  </angle>
                  <angle>
                    <activevideoangle>true</activevideoangle>
                    <activeaudioangle>true</activeaudioangle>
                    <clip id="clip-3"/>
                  </angle>
                  <angle>
                    <activevideoangle>false</activevideoangle>
                    <activeaudioangle>false</activeaudioangle>
                    <clip id="clip-4"/>
                  </angle>
                  <angle>
                    <activevideoangle>false</activevideoangle>
                    <activeaudioangle>false</activeaudioangle>
                    <clip id="clip-5"/>
                  </angle>
                  <angle>
                    <activevideoangle>false</activevideoangle>
                    <activeaudioangle>false</activeaudioangle>
                    <clip id="clip-6"/>
                  </angle>
                  <angle>
                    <activevideoangle>false</activevideoangle>
                    <activeaudioangle>false</activeaudioangle>
                    <clip id="clip-7"/>
                  </angle>
                  <angle>
                    <activevideoangle>false</activevideoangle>
                    <activeaudioangle>false</activeaudioangle>
                    <clip id="clip-8"/>
                  </angle>
                  <angle>
                    <activevideoangle>false</activevideoangle>
                    <activeaudioangle>false</activeaudioangle>
                    <clip id="clip-9"/>
                  </angle>
                  <masterclipid>clip-master</masterclipid>
                </multiclip>
              </clipitem>
              <clipitem id="cs-539">
                <duration>66</duration>
                <rate>
                  <ntsc>false</ntsc>
                  <timebase>25</timebase>
                </rate>
                <in>27645</in>
                <out>27710</out>
                <start>27645</start>
                <end>27710</end>
                <file id="src-4"/>
                <sourcetrack>
                  <mediatype>video</mediatype>
                  <trackindex>1</trackindex>
                </sourcetrack>
                <multiclip id="mcs-539">
                  <name>MCS-539</name>
                  <masterclipid>clip-master</masterclipid>
                  <collapsed>false</collapsed>
                  <angle>
                    <activevideoangle>false</activevideoangle>
                    <activeaudioangle>false</activeaudioangle>
                    <clip id="clip-1"/>
                  </angle>
                  <angle>
                    <activevideoangle>false</activevideoangle>
                    <activeaudioangle>false</activeaudioangle>
                    <clip id="clip-2"/>
                  </angle>
                  <angle>
                    <activevideoangle>false</activevideoangle>
                    <activeaudioangle>false</activeaudioangle>
                    <clip id="clip-3"/>
                  </angle>
                  <angle>
                    <activevideoangle>true</activevideoangle>
                    <activeaudioangle>true</activeaudioangle>
                    <clip id="clip-4"/>
                  </angle>
                  <angle>
                    <activevideoangle>false</activevideoangle>
                    <activeaudioangle>false</activeaudioangle>
                    <clip id="clip-5"/>
                  </angle>
                  <angle>
                    <activevideoangle>false</activevideoangle>
                    <activeaudioangle>false</activeaudioangle>
                    <clip id="clip-6"/>
                  </angle>
                  <angle>
                    <activevideoangle>false</activevideoangle>
                    <activeaudioangle>false</activeaudioangle>
                    <clip id="clip-7"/>
                  </angle>
                  <angle>
                    <activevideoangle>false</activevideoangle>
                    <activeaudioangle>false</activeaudioangle>
                    <clip id="clip-8"/>
                  </angle>
                  <angle>
                    <activevideoangle>false</activevideoangle>
                    <activeaudioangle>false</activeaudioangle>
                    <clip id="clip-9"/>
                  </angle>
                  <masterclipid>clip-master</masterclipid>
                </multiclip>
              </clipitem>
              <clipitem id="cs-540">
                <duration>110</duration>
                <rate>
                  <ntsc>false</ntsc>
                  <timebase>25</timebase>
                </rate>
                <in>27710</in>
                <out>27819</out>
                <start>27710</start>
                <end>27819</end>
                <file id="src-2"/>
                <sourcetrack>
                  <mediatype>video</mediatype>
                  <trackindex>1</trackindex>
                </sourcetrack>
                <multiclip id="mcs-540">
                  <name>MCS-540</name>
                  <masterclipid>clip-master</masterclipid>
                  <collapsed>false</collapsed>
                  <angle>
                    <activevideoangle>false</activevideoangle>
                    <activeaudioangle>false</activeaudioangle>
                    <clip id="clip-1"/>
                  </angle>
                  <angle>
                    <activevideoangle>true</activevideoangle>
                    <activeaudioangle>true</activeaudioangle>
                    <clip id="clip-2"/>
                  </angle>
                  <angle>
                    <activevideoangle>false</activevideoangle>
                    <activeaudioangle>false</activeaudioangle>
                    <clip id="clip-3"/>
                  </angle>
                  <angle>
                    <activevideoangle>false</activevideoangle>
                    <activeaudioangle>false</activeaudioangle>
                    <clip id="clip-4"/>
                  </angle>
                  <angle>
                    <activevideoangle>false</activevideoangle>
                    <activeaudioangle>false</activeaudioangle>
                    <clip id="clip-5"/>
                  </angle>
                  <angle>
                    <activevideoangle>false</activevideoangle>
                    <activeaudioangle>false</activeaudioangle>
                    <clip id="clip-6"/>
                  </angle>
                  <angle>
                    <activevideoangle>false</activevideoangle>
                    <activeaudioangle>false</activeaudioangle>
                    <clip id="clip-7"/>
                  </angle>
                  <angle>
                    <activevideoangle>false</activevideoangle>
                    <activeaudioangle>false</activeaudioangle>
                    <clip id="clip-8"/>
                  </angle>
                  <angle>
                    <activevideoangle>false</activevideoangle>
                    <activeaudioangle>false</activeaudioangle>
                    <clip id="clip-9"/>
                  </angle>
                  <masterclipid>clip-master</masterclipid>
                </multiclip>
              </clipitem>
              <clipitem id="cs-541">
                <duration>80</duration>
                <rate>
                  <ntsc>false</ntsc>
                  <timebase>25</timebase>
                </rate>
                <in>27819</in>
                <out>27898</out>
                <start>27819</start>
                <end>27898</end>
                <file id="src-4"/>
                <sourcetrack>
                  <mediatype>video</mediatype>
                  <trackindex>1</trackindex>
                </sourcetrack>
                <multiclip id="mcs-541">
                  <name>MCS-541</name>
                  <masterclipid>clip-master</masterclipid>
                  <collapsed>false</collapsed>
                  <angle>
                    <activevideoangle>false</activevideoangle>
                    <activeaudioangle>false</activeaudioangle>
                    <clip id="clip-1"/>
                  </angle>
                  <angle>
                    <activevideoangle>false</activevideoangle>
                    <activeaudioangle>false</activeaudioangle>
                    <clip id="clip-2"/>
                  </angle>
                  <angle>
                    <activevideoangle>false</activevideoangle>
                    <activeaudioangle>false</activeaudioangle>
                    <clip id="clip-3"/>
                  </angle>
                  <angle>
                    <activevideoangle>true</activevideoangle>
                    <activeaudioangle>true</activeaudioangle>
                    <clip id="clip-4"/>
                  </angle>
                  <angle>
                    <activevideoangle>false</activevideoangle>
                    <activeaudioangle>false</activeaudioangle>
                    <clip id="clip-5"/>
                  </angle>
                  <angle>
                    <activevideoangle>false</activevideoangle>
                    <activeaudioangle>false</activeaudioangle>
                    <clip id="clip-6"/>
                  </angle>
                  <angle>
                    <activevideoangle>false</activevideoangle>
                    <activeaudioangle>false</activeaudioangle>
                    <clip id="clip-7"/>
                  </angle>
                  <angle>
                    <activevideoangle>false</activevideoangle>
                    <activeaudioangle>false</activeaudioangle>
                    <clip id="clip-8"/>
                  </angle>
                  <angle>
                    <activevideoangle>false</activevideoangle>
                    <activeaudioangle>false</activeaudioangle>
                    <clip id="clip-9"/>
                  </angle>
                  <masterclipid>clip-master</masterclipid>
                </multiclip>
              </clipitem>
              <clipitem id="cs-542">
                <duration>57</duration>
                <rate>
                  <ntsc>false</ntsc>
                  <timebase>25</timebase>
                </rate>
                <in>27898</in>
                <out>27954</out>
                <start>27898</start>
                <end>27954</end>
                <file id="src-5"/>
                <sourcetrack>
                  <mediatype>video</mediatype>
                  <trackindex>1</trackindex>
                </sourcetrack>
                <multiclip id="mcs-542">
                  <name>MCS-542</name>
                  <masterclipid>clip-master</masterclipid>
                  <collapsed>false</collapsed>
                  <angle>
                    <activevideoangle>false</activevideoangle>
                    <activeaudioangle>false</activeaudioangle>
                    <clip id="clip-1"/>
                  </angle>
                  <angle>
                    <activevideoangle>false</activevideoangle>
                    <activeaudioangle>false</activeaudioangle>
                    <clip id="clip-2"/>
                  </angle>
                  <angle>
                    <activevideoangle>false</activevideoangle>
                    <activeaudioangle>false</activeaudioangle>
                    <clip id="clip-3"/>
                  </angle>
                  <angle>
                    <activevideoangle>false</activevideoangle>
                    <activeaudioangle>false</activeaudioangle>
                    <clip id="clip-4"/>
                  </angle>
                  <angle>
                    <activevideoangle>true</activevideoangle>
                    <activeaudioangle>true</activeaudioangle>
                    <clip id="clip-5"/>
                  </angle>
                  <angle>
                    <activevideoangle>false</activevideoangle>
                    <activeaudioangle>false</activeaudioangle>
                    <clip id="clip-6"/>
                  </angle>
                  <angle>
                    <activevideoangle>false</activevideoangle>
                    <activeaudioangle>false</activeaudioangle>
                    <clip id="clip-7"/>
                  </angle>
                  <angle>
                    <activevideoangle>false</activevideoangle>
                    <activeaudioangle>false</activeaudioangle>
                    <clip id="clip-8"/>
                  </angle>
                  <angle>
                    <activevideoangle>false</activevideoangle>
                    <activeaudioangle>false</activeaudioangle>
                    <clip id="clip-9"/>
                  </angle>
                  <masterclipid>clip-master</masterclipid>
                </multiclip>
              </clipitem>
              <clipitem id="cs-543">
                <duration>64</duration>
                <rate>
                  <ntsc>false</ntsc>
                  <timebase>25</timebase>
                </rate>
                <in>27954</in>
                <out>28017</out>
                <start>27954</start>
                <end>28017</end>
                <file id="src-3"/>
                <sourcetrack>
                  <mediatype>video</mediatype>
                  <trackindex>1</trackindex>
                </sourcetrack>
                <multiclip id="mcs-543">
                  <name>MCS-543</name>
                  <masterclipid>clip-master</masterclipid>
                  <collapsed>false</collapsed>
                  <angle>
                    <activevideoangle>false</activevideoangle>
                    <activeaudioangle>false</activeaudioangle>
                    <clip id="clip-1"/>
                  </angle>
                  <angle>
                    <activevideoangle>false</activevideoangle>
                    <activeaudioangle>false</activeaudioangle>
                    <clip id="clip-2"/>
                  </angle>
                  <angle>
                    <activevideoangle>true</activevideoangle>
                    <activeaudioangle>true</activeaudioangle>
                    <clip id="clip-3"/>
                  </angle>
                  <angle>
                    <activevideoangle>false</activevideoangle>
                    <activeaudioangle>false</activeaudioangle>
                    <clip id="clip-4"/>
                  </angle>
                  <angle>
                    <activevideoangle>false</activevideoangle>
                    <activeaudioangle>false</activeaudioangle>
                    <clip id="clip-5"/>
                  </angle>
                  <angle>
                    <activevideoangle>false</activevideoangle>
                    <activeaudioangle>false</activeaudioangle>
                    <clip id="clip-6"/>
                  </angle>
                  <angle>
                    <activevideoangle>false</activevideoangle>
                    <activeaudioangle>false</activeaudioangle>
                    <clip id="clip-7"/>
                  </angle>
                  <angle>
                    <activevideoangle>false</activevideoangle>
                    <activeaudioangle>false</activeaudioangle>
                    <clip id="clip-8"/>
                  </angle>
                  <angle>
                    <activevideoangle>false</activevideoangle>
                    <activeaudioangle>false</activeaudioangle>
                    <clip id="clip-9"/>
                  </angle>
                  <masterclipid>clip-master</masterclipid>
                </multiclip>
              </clipitem>
              <clipitem id="cs-544">
                <duration>67</duration>
                <rate>
                  <ntsc>false</ntsc>
                  <timebase>25</timebase>
                </rate>
                <in>28017</in>
                <out>28083</out>
                <start>28017</start>
                <end>28083</end>
                <file id="src-4"/>
                <sourcetrack>
                  <mediatype>video</mediatype>
                  <trackindex>1</trackindex>
                </sourcetrack>
                <multiclip id="mcs-544">
                  <name>MCS-544</name>
                  <masterclipid>clip-master</masterclipid>
                  <collapsed>false</collapsed>
                  <angle>
                    <activevideoangle>false</activevideoangle>
                    <activeaudioangle>false</activeaudioangle>
                    <clip id="clip-1"/>
                  </angle>
                  <angle>
                    <activevideoangle>false</activevideoangle>
                    <activeaudioangle>false</activeaudioangle>
                    <clip id="clip-2"/>
                  </angle>
                  <angle>
                    <activevideoangle>false</activevideoangle>
                    <activeaudioangle>false</activeaudioangle>
                    <clip id="clip-3"/>
                  </angle>
                  <angle>
                    <activevideoangle>true</activevideoangle>
                    <activeaudioangle>true</activeaudioangle>
                    <clip id="clip-4"/>
                  </angle>
                  <angle>
                    <activevideoangle>false</activevideoangle>
                    <activeaudioangle>false</activeaudioangle>
                    <clip id="clip-5"/>
                  </angle>
                  <angle>
                    <activevideoangle>false</activevideoangle>
                    <activeaudioangle>false</activeaudioangle>
                    <clip id="clip-6"/>
                  </angle>
                  <angle>
                    <activevideoangle>false</activevideoangle>
                    <activeaudioangle>false</activeaudioangle>
                    <clip id="clip-7"/>
                  </angle>
                  <angle>
                    <activevideoangle>false</activevideoangle>
                    <activeaudioangle>false</activeaudioangle>
                    <clip id="clip-8"/>
                  </angle>
                  <angle>
                    <activevideoangle>false</activevideoangle>
                    <activeaudioangle>false</activeaudioangle>
                    <clip id="clip-9"/>
                  </angle>
                  <masterclipid>clip-master</masterclipid>
                </multiclip>
              </clipitem>
              <clipitem id="cs-545">
                <duration>88</duration>
                <rate>
                  <ntsc>false</ntsc>
                  <timebase>25</timebase>
                </rate>
                <in>28083</in>
                <out>28170</out>
                <start>28083</start>
                <end>28170</end>
                <file id="src-2"/>
                <sourcetrack>
                  <mediatype>video</mediatype>
                  <trackindex>1</trackindex>
                </sourcetrack>
                <multiclip id="mcs-545">
                  <name>MCS-545</name>
                  <masterclipid>clip-master</masterclipid>
                  <collapsed>false</collapsed>
                  <angle>
                    <activevideoangle>false</activevideoangle>
                    <activeaudioangle>false</activeaudioangle>
                    <clip id="clip-1"/>
                  </angle>
                  <angle>
                    <activevideoangle>true</activevideoangle>
                    <activeaudioangle>true</activeaudioangle>
                    <clip id="clip-2"/>
                  </angle>
                  <angle>
                    <activevideoangle>false</activevideoangle>
                    <activeaudioangle>false</activeaudioangle>
                    <clip id="clip-3"/>
                  </angle>
                  <angle>
                    <activevideoangle>false</activevideoangle>
                    <activeaudioangle>false</activeaudioangle>
                    <clip id="clip-4"/>
                  </angle>
                  <angle>
                    <activevideoangle>false</activevideoangle>
                    <activeaudioangle>false</activeaudioangle>
                    <clip id="clip-5"/>
                  </angle>
                  <angle>
                    <activevideoangle>false</activevideoangle>
                    <activeaudioangle>false</activeaudioangle>
                    <clip id="clip-6"/>
                  </angle>
                  <angle>
                    <activevideoangle>false</activevideoangle>
                    <activeaudioangle>false</activeaudioangle>
                    <clip id="clip-7"/>
                  </angle>
                  <angle>
                    <activevideoangle>false</activevideoangle>
                    <activeaudioangle>false</activeaudioangle>
                    <clip id="clip-8"/>
                  </angle>
                  <angle>
                    <activevideoangle>false</activevideoangle>
                    <activeaudioangle>false</activeaudioangle>
                    <clip id="clip-9"/>
                  </angle>
                  <masterclipid>clip-master</masterclipid>
                </multiclip>
              </clipitem>
              <clipitem id="cs-546">
                <duration>64</duration>
                <rate>
                  <ntsc>false</ntsc>
                  <timebase>25</timebase>
                </rate>
                <in>28170</in>
                <out>28233</out>
                <start>28170</start>
                <end>28233</end>
                <file id="src-5"/>
                <sourcetrack>
                  <mediatype>video</mediatype>
                  <trackindex>1</trackindex>
                </sourcetrack>
                <multiclip id="mcs-546">
                  <name>MCS-546</name>
                  <masterclipid>clip-master</masterclipid>
                  <collapsed>false</collapsed>
                  <angle>
                    <activevideoangle>false</activevideoangle>
                    <activeaudioangle>false</activeaudioangle>
                    <clip id="clip-1"/>
                  </angle>
                  <angle>
                    <activevideoangle>false</activevideoangle>
                    <activeaudioangle>false</activeaudioangle>
                    <clip id="clip-2"/>
                  </angle>
                  <angle>
                    <activevideoangle>false</activevideoangle>
                    <activeaudioangle>false</activeaudioangle>
                    <clip id="clip-3"/>
                  </angle>
                  <angle>
                    <activevideoangle>false</activevideoangle>
                    <activeaudioangle>false</activeaudioangle>
                    <clip id="clip-4"/>
                  </angle>
                  <angle>
                    <activevideoangle>true</activevideoangle>
                    <activeaudioangle>true</activeaudioangle>
                    <clip id="clip-5"/>
                  </angle>
                  <angle>
                    <activevideoangle>false</activevideoangle>
                    <activeaudioangle>false</activeaudioangle>
                    <clip id="clip-6"/>
                  </angle>
                  <angle>
                    <activevideoangle>false</activevideoangle>
                    <activeaudioangle>false</activeaudioangle>
                    <clip id="clip-7"/>
                  </angle>
                  <angle>
                    <activevideoangle>false</activevideoangle>
                    <activeaudioangle>false</activeaudioangle>
                    <clip id="clip-8"/>
                  </angle>
                  <angle>
                    <activevideoangle>false</activevideoangle>
                    <activeaudioangle>false</activeaudioangle>
                    <clip id="clip-9"/>
                  </angle>
                  <masterclipid>clip-master</masterclipid>
                </multiclip>
              </clipitem>
              <clipitem id="cs-547">
                <duration>326</duration>
                <rate>
                  <ntsc>false</ntsc>
                  <timebase>25</timebase>
                </rate>
                <in>28233</in>
                <out>28558</out>
                <start>28233</start>
                <end>28558</end>
                <file id="src-3"/>
                <sourcetrack>
                  <mediatype>video</mediatype>
                  <trackindex>1</trackindex>
                </sourcetrack>
                <multiclip id="mcs-547">
                  <name>MCS-547</name>
                  <masterclipid>clip-master</masterclipid>
                  <collapsed>false</collapsed>
                  <angle>
                    <activevideoangle>false</activevideoangle>
                    <activeaudioangle>false</activeaudioangle>
                    <clip id="clip-1"/>
                  </angle>
                  <angle>
                    <activevideoangle>false</activevideoangle>
                    <activeaudioangle>false</activeaudioangle>
                    <clip id="clip-2"/>
                  </angle>
                  <angle>
                    <activevideoangle>true</activevideoangle>
                    <activeaudioangle>true</activeaudioangle>
                    <clip id="clip-3"/>
                  </angle>
                  <angle>
                    <activevideoangle>false</activevideoangle>
                    <activeaudioangle>false</activeaudioangle>
                    <clip id="clip-4"/>
                  </angle>
                  <angle>
                    <activevideoangle>false</activevideoangle>
                    <activeaudioangle>false</activeaudioangle>
                    <clip id="clip-5"/>
                  </angle>
                  <angle>
                    <activevideoangle>false</activevideoangle>
                    <activeaudioangle>false</activeaudioangle>
                    <clip id="clip-6"/>
                  </angle>
                  <angle>
                    <activevideoangle>false</activevideoangle>
                    <activeaudioangle>false</activeaudioangle>
                    <clip id="clip-7"/>
                  </angle>
                  <angle>
                    <activevideoangle>false</activevideoangle>
                    <activeaudioangle>false</activeaudioangle>
                    <clip id="clip-8"/>
                  </angle>
                  <angle>
                    <activevideoangle>false</activevideoangle>
                    <activeaudioangle>false</activeaudioangle>
                    <clip id="clip-9"/>
                  </angle>
                  <masterclipid>clip-master</masterclipid>
                </multiclip>
              </clipitem>
              <clipitem id="cs-548">
                <duration>75</duration>
                <rate>
                  <ntsc>false</ntsc>
                  <timebase>25</timebase>
                </rate>
                <in>28558</in>
                <out>28632</out>
                <start>28558</start>
                <end>28632</end>
                <file id="src-1"/>
                <sourcetrack>
                  <mediatype>video</mediatype>
                  <trackindex>1</trackindex>
                </sourcetrack>
                <multiclip id="mcs-548">
                  <name>MCS-548</name>
                  <masterclipid>clip-master</masterclipid>
                  <collapsed>false</collapsed>
                  <angle>
                    <activevideoangle>true</activevideoangle>
                    <activeaudioangle>true</activeaudioangle>
                    <clip id="clip-1"/>
                  </angle>
                  <angle>
                    <activevideoangle>false</activevideoangle>
                    <activeaudioangle>false</activeaudioangle>
                    <clip id="clip-2"/>
                  </angle>
                  <angle>
                    <activevideoangle>false</activevideoangle>
                    <activeaudioangle>false</activeaudioangle>
                    <clip id="clip-3"/>
                  </angle>
                  <angle>
                    <activevideoangle>false</activevideoangle>
                    <activeaudioangle>false</activeaudioangle>
                    <clip id="clip-4"/>
                  </angle>
                  <angle>
                    <activevideoangle>false</activevideoangle>
                    <activeaudioangle>false</activeaudioangle>
                    <clip id="clip-5"/>
                  </angle>
                  <angle>
                    <activevideoangle>false</activevideoangle>
                    <activeaudioangle>false</activeaudioangle>
                    <clip id="clip-6"/>
                  </angle>
                  <angle>
                    <activevideoangle>false</activevideoangle>
                    <activeaudioangle>false</activeaudioangle>
                    <clip id="clip-7"/>
                  </angle>
                  <angle>
                    <activevideoangle>false</activevideoangle>
                    <activeaudioangle>false</activeaudioangle>
                    <clip id="clip-8"/>
                  </angle>
                  <angle>
                    <activevideoangle>false</activevideoangle>
                    <activeaudioangle>false</activeaudioangle>
                    <clip id="clip-9"/>
                  </angle>
                  <masterclipid>clip-master</masterclipid>
                </multiclip>
              </clipitem>
              <clipitem id="cs-549">
                <duration>78</duration>
                <rate>
                  <ntsc>false</ntsc>
                  <timebase>25</timebase>
                </rate>
                <in>28632</in>
                <out>28709</out>
                <start>28632</start>
                <end>28709</end>
                <file id="src-2"/>
                <sourcetrack>
                  <mediatype>video</mediatype>
                  <trackindex>1</trackindex>
                </sourcetrack>
                <multiclip id="mcs-549">
                  <name>MCS-549</name>
                  <masterclipid>clip-master</masterclipid>
                  <collapsed>false</collapsed>
                  <angle>
                    <activevideoangle>false</activevideoangle>
                    <activeaudioangle>false</activeaudioangle>
                    <clip id="clip-1"/>
                  </angle>
                  <angle>
                    <activevideoangle>true</activevideoangle>
                    <activeaudioangle>true</activeaudioangle>
                    <clip id="clip-2"/>
                  </angle>
                  <angle>
                    <activevideoangle>false</activevideoangle>
                    <activeaudioangle>false</activeaudioangle>
                    <clip id="clip-3"/>
                  </angle>
                  <angle>
                    <activevideoangle>false</activevideoangle>
                    <activeaudioangle>false</activeaudioangle>
                    <clip id="clip-4"/>
                  </angle>
                  <angle>
                    <activevideoangle>false</activevideoangle>
                    <activeaudioangle>false</activeaudioangle>
                    <clip id="clip-5"/>
                  </angle>
                  <angle>
                    <activevideoangle>false</activevideoangle>
                    <activeaudioangle>false</activeaudioangle>
                    <clip id="clip-6"/>
                  </angle>
                  <angle>
                    <activevideoangle>false</activevideoangle>
                    <activeaudioangle>false</activeaudioangle>
                    <clip id="clip-7"/>
                  </angle>
                  <angle>
                    <activevideoangle>false</activevideoangle>
                    <activeaudioangle>false</activeaudioangle>
                    <clip id="clip-8"/>
                  </angle>
                  <angle>
                    <activevideoangle>false</activevideoangle>
                    <activeaudioangle>false</activeaudioangle>
                    <clip id="clip-9"/>
                  </angle>
                  <masterclipid>clip-master</masterclipid>
                </multiclip>
              </clipitem>
              <clipitem id="cs-550">
                <duration>214</duration>
                <rate>
                  <ntsc>false</ntsc>
                  <timebase>25</timebase>
                </rate>
                <in>28709</in>
                <out>28922</out>
                <start>28709</start>
                <end>28922</end>
                <file id="src-4"/>
                <sourcetrack>
                  <mediatype>video</mediatype>
                  <trackindex>1</trackindex>
                </sourcetrack>
                <multiclip id="mcs-550">
                  <name>MCS-550</name>
                  <masterclipid>clip-master</masterclipid>
                  <collapsed>false</collapsed>
                  <angle>
                    <activevideoangle>false</activevideoangle>
                    <activeaudioangle>false</activeaudioangle>
                    <clip id="clip-1"/>
                  </angle>
                  <angle>
                    <activevideoangle>false</activevideoangle>
                    <activeaudioangle>false</activeaudioangle>
                    <clip id="clip-2"/>
                  </angle>
                  <angle>
                    <activevideoangle>false</activevideoangle>
                    <activeaudioangle>false</activeaudioangle>
                    <clip id="clip-3"/>
                  </angle>
                  <angle>
                    <activevideoangle>true</activevideoangle>
                    <activeaudioangle>true</activeaudioangle>
                    <clip id="clip-4"/>
                  </angle>
                  <angle>
                    <activevideoangle>false</activevideoangle>
                    <activeaudioangle>false</activeaudioangle>
                    <clip id="clip-5"/>
                  </angle>
                  <angle>
                    <activevideoangle>false</activevideoangle>
                    <activeaudioangle>false</activeaudioangle>
                    <clip id="clip-6"/>
                  </angle>
                  <angle>
                    <activevideoangle>false</activevideoangle>
                    <activeaudioangle>false</activeaudioangle>
                    <clip id="clip-7"/>
                  </angle>
                  <angle>
                    <activevideoangle>false</activevideoangle>
                    <activeaudioangle>false</activeaudioangle>
                    <clip id="clip-8"/>
                  </angle>
                  <angle>
                    <activevideoangle>false</activevideoangle>
                    <activeaudioangle>false</activeaudioangle>
                    <clip id="clip-9"/>
                  </angle>
                  <masterclipid>clip-master</masterclipid>
                </multiclip>
              </clipitem>
              <clipitem id="cs-551">
                <duration>229</duration>
                <rate>
                  <ntsc>false</ntsc>
                  <timebase>25</timebase>
                </rate>
                <in>28922</in>
                <out>29150</out>
                <start>28922</start>
                <end>29150</end>
                <file id="src-3"/>
                <sourcetrack>
                  <mediatype>video</mediatype>
                  <trackindex>1</trackindex>
                </sourcetrack>
                <multiclip id="mcs-551">
                  <name>MCS-551</name>
                  <masterclipid>clip-master</masterclipid>
                  <collapsed>false</collapsed>
                  <angle>
                    <activevideoangle>false</activevideoangle>
                    <activeaudioangle>false</activeaudioangle>
                    <clip id="clip-1"/>
                  </angle>
                  <angle>
                    <activevideoangle>false</activevideoangle>
                    <activeaudioangle>false</activeaudioangle>
                    <clip id="clip-2"/>
                  </angle>
                  <angle>
                    <activevideoangle>true</activevideoangle>
                    <activeaudioangle>true</activeaudioangle>
                    <clip id="clip-3"/>
                  </angle>
                  <angle>
                    <activevideoangle>false</activevideoangle>
                    <activeaudioangle>false</activeaudioangle>
                    <clip id="clip-4"/>
                  </angle>
                  <angle>
                    <activevideoangle>false</activevideoangle>
                    <activeaudioangle>false</activeaudioangle>
                    <clip id="clip-5"/>
                  </angle>
                  <angle>
                    <activevideoangle>false</activevideoangle>
                    <activeaudioangle>false</activeaudioangle>
                    <clip id="clip-6"/>
                  </angle>
                  <angle>
                    <activevideoangle>false</activevideoangle>
                    <activeaudioangle>false</activeaudioangle>
                    <clip id="clip-7"/>
                  </angle>
                  <angle>
                    <activevideoangle>false</activevideoangle>
                    <activeaudioangle>false</activeaudioangle>
                    <clip id="clip-8"/>
                  </angle>
                  <angle>
                    <activevideoangle>false</activevideoangle>
                    <activeaudioangle>false</activeaudioangle>
                    <clip id="clip-9"/>
                  </angle>
                  <masterclipid>clip-master</masterclipid>
                </multiclip>
              </clipitem>
              <clipitem id="cs-552">
                <duration>118</duration>
                <rate>
                  <ntsc>false</ntsc>
                  <timebase>25</timebase>
                </rate>
                <in>29150</in>
                <out>29267</out>
                <start>29150</start>
                <end>29267</end>
                <file id="src-4"/>
                <sourcetrack>
                  <mediatype>video</mediatype>
                  <trackindex>1</trackindex>
                </sourcetrack>
                <multiclip id="mcs-552">
                  <name>MCS-552</name>
                  <masterclipid>clip-master</masterclipid>
                  <collapsed>false</collapsed>
                  <angle>
                    <activevideoangle>false</activevideoangle>
                    <activeaudioangle>false</activeaudioangle>
                    <clip id="clip-1"/>
                  </angle>
                  <angle>
                    <activevideoangle>false</activevideoangle>
                    <activeaudioangle>false</activeaudioangle>
                    <clip id="clip-2"/>
                  </angle>
                  <angle>
                    <activevideoangle>false</activevideoangle>
                    <activeaudioangle>false</activeaudioangle>
                    <clip id="clip-3"/>
                  </angle>
                  <angle>
                    <activevideoangle>true</activevideoangle>
                    <activeaudioangle>true</activeaudioangle>
                    <clip id="clip-4"/>
                  </angle>
                  <angle>
                    <activevideoangle>false</activevideoangle>
                    <activeaudioangle>false</activeaudioangle>
                    <clip id="clip-5"/>
                  </angle>
                  <angle>
                    <activevideoangle>false</activevideoangle>
                    <activeaudioangle>false</activeaudioangle>
                    <clip id="clip-6"/>
                  </angle>
                  <angle>
                    <activevideoangle>false</activevideoangle>
                    <activeaudioangle>false</activeaudioangle>
                    <clip id="clip-7"/>
                  </angle>
                  <angle>
                    <activevideoangle>false</activevideoangle>
                    <activeaudioangle>false</activeaudioangle>
                    <clip id="clip-8"/>
                  </angle>
                  <angle>
                    <activevideoangle>false</activevideoangle>
                    <activeaudioangle>false</activeaudioangle>
                    <clip id="clip-9"/>
                  </angle>
                  <masterclipid>clip-master</masterclipid>
                </multiclip>
              </clipitem>
              <clipitem id="cs-553">
                <duration>168</duration>
                <rate>
                  <ntsc>false</ntsc>
                  <timebase>25</timebase>
                </rate>
                <in>29267</in>
                <out>29434</out>
                <start>29267</start>
                <end>29434</end>
                <file id="src-2"/>
                <sourcetrack>
                  <mediatype>video</mediatype>
                  <trackindex>1</trackindex>
                </sourcetrack>
                <multiclip id="mcs-553">
                  <name>MCS-553</name>
                  <masterclipid>clip-master</masterclipid>
                  <collapsed>false</collapsed>
                  <angle>
                    <activevideoangle>false</activevideoangle>
                    <activeaudioangle>false</activeaudioangle>
                    <clip id="clip-1"/>
                  </angle>
                  <angle>
                    <activevideoangle>true</activevideoangle>
                    <activeaudioangle>true</activeaudioangle>
                    <clip id="clip-2"/>
                  </angle>
                  <angle>
                    <activevideoangle>false</activevideoangle>
                    <activeaudioangle>false</activeaudioangle>
                    <clip id="clip-3"/>
                  </angle>
                  <angle>
                    <activevideoangle>false</activevideoangle>
                    <activeaudioangle>false</activeaudioangle>
                    <clip id="clip-4"/>
                  </angle>
                  <angle>
                    <activevideoangle>false</activevideoangle>
                    <activeaudioangle>false</activeaudioangle>
                    <clip id="clip-5"/>
                  </angle>
                  <angle>
                    <activevideoangle>false</activevideoangle>
                    <activeaudioangle>false</activeaudioangle>
                    <clip id="clip-6"/>
                  </angle>
                  <angle>
                    <activevideoangle>false</activevideoangle>
                    <activeaudioangle>false</activeaudioangle>
                    <clip id="clip-7"/>
                  </angle>
                  <angle>
                    <activevideoangle>false</activevideoangle>
                    <activeaudioangle>false</activeaudioangle>
                    <clip id="clip-8"/>
                  </angle>
                  <angle>
                    <activevideoangle>false</activevideoangle>
                    <activeaudioangle>false</activeaudioangle>
                    <clip id="clip-9"/>
                  </angle>
                  <masterclipid>clip-master</masterclipid>
                </multiclip>
              </clipitem>
              <clipitem id="cs-554">
                <duration>176</duration>
                <rate>
                  <ntsc>false</ntsc>
                  <timebase>25</timebase>
                </rate>
                <in>29434</in>
                <out>29609</out>
                <start>29434</start>
                <end>29609</end>
                <file id="src-4"/>
                <sourcetrack>
                  <mediatype>video</mediatype>
                  <trackindex>1</trackindex>
                </sourcetrack>
                <multiclip id="mcs-554">
                  <name>MCS-554</name>
                  <masterclipid>clip-master</masterclipid>
                  <collapsed>false</collapsed>
                  <angle>
                    <activevideoangle>false</activevideoangle>
                    <activeaudioangle>false</activeaudioangle>
                    <clip id="clip-1"/>
                  </angle>
                  <angle>
                    <activevideoangle>false</activevideoangle>
                    <activeaudioangle>false</activeaudioangle>
                    <clip id="clip-2"/>
                  </angle>
                  <angle>
                    <activevideoangle>false</activevideoangle>
                    <activeaudioangle>false</activeaudioangle>
                    <clip id="clip-3"/>
                  </angle>
                  <angle>
                    <activevideoangle>true</activevideoangle>
                    <activeaudioangle>true</activeaudioangle>
                    <clip id="clip-4"/>
                  </angle>
                  <angle>
                    <activevideoangle>false</activevideoangle>
                    <activeaudioangle>false</activeaudioangle>
                    <clip id="clip-5"/>
                  </angle>
                  <angle>
                    <activevideoangle>false</activevideoangle>
                    <activeaudioangle>false</activeaudioangle>
                    <clip id="clip-6"/>
                  </angle>
                  <angle>
                    <activevideoangle>false</activevideoangle>
                    <activeaudioangle>false</activeaudioangle>
                    <clip id="clip-7"/>
                  </angle>
                  <angle>
                    <activevideoangle>false</activevideoangle>
                    <activeaudioangle>false</activeaudioangle>
                    <clip id="clip-8"/>
                  </angle>
                  <angle>
                    <activevideoangle>false</activevideoangle>
                    <activeaudioangle>false</activeaudioangle>
                    <clip id="clip-9"/>
                  </angle>
                  <masterclipid>clip-master</masterclipid>
                </multiclip>
              </clipitem>
              <clipitem id="cs-555">
                <duration>127</duration>
                <rate>
                  <ntsc>false</ntsc>
                  <timebase>25</timebase>
                </rate>
                <in>29609</in>
                <out>29735</out>
                <start>29609</start>
                <end>29735</end>
                <file id="src-5"/>
                <sourcetrack>
                  <mediatype>video</mediatype>
                  <trackindex>1</trackindex>
                </sourcetrack>
                <multiclip id="mcs-555">
                  <name>MCS-555</name>
                  <masterclipid>clip-master</masterclipid>
                  <collapsed>false</collapsed>
                  <angle>
                    <activevideoangle>false</activevideoangle>
                    <activeaudioangle>false</activeaudioangle>
                    <clip id="clip-1"/>
                  </angle>
                  <angle>
                    <activevideoangle>false</activevideoangle>
                    <activeaudioangle>false</activeaudioangle>
                    <clip id="clip-2"/>
                  </angle>
                  <angle>
                    <activevideoangle>false</activevideoangle>
                    <activeaudioangle>false</activeaudioangle>
                    <clip id="clip-3"/>
                  </angle>
                  <angle>
                    <activevideoangle>false</activevideoangle>
                    <activeaudioangle>false</activeaudioangle>
                    <clip id="clip-4"/>
                  </angle>
                  <angle>
                    <activevideoangle>true</activevideoangle>
                    <activeaudioangle>true</activeaudioangle>
                    <clip id="clip-5"/>
                  </angle>
                  <angle>
                    <activevideoangle>false</activevideoangle>
                    <activeaudioangle>false</activeaudioangle>
                    <clip id="clip-6"/>
                  </angle>
                  <angle>
                    <activevideoangle>false</activevideoangle>
                    <activeaudioangle>false</activeaudioangle>
                    <clip id="clip-7"/>
                  </angle>
                  <angle>
                    <activevideoangle>false</activevideoangle>
                    <activeaudioangle>false</activeaudioangle>
                    <clip id="clip-8"/>
                  </angle>
                  <angle>
                    <activevideoangle>false</activevideoangle>
                    <activeaudioangle>false</activeaudioangle>
                    <clip id="clip-9"/>
                  </angle>
                  <masterclipid>clip-master</masterclipid>
                </multiclip>
              </clipitem>
              <clipitem id="cs-556">
                <duration>73</duration>
                <rate>
                  <ntsc>false</ntsc>
                  <timebase>25</timebase>
                </rate>
                <in>29735</in>
                <out>29807</out>
                <start>29735</start>
                <end>29807</end>
                <file id="src-4"/>
                <sourcetrack>
                  <mediatype>video</mediatype>
                  <trackindex>1</trackindex>
                </sourcetrack>
                <multiclip id="mcs-556">
                  <name>MCS-556</name>
                  <masterclipid>clip-master</masterclipid>
                  <collapsed>false</collapsed>
                  <angle>
                    <activevideoangle>false</activevideoangle>
                    <activeaudioangle>false</activeaudioangle>
                    <clip id="clip-1"/>
                  </angle>
                  <angle>
                    <activevideoangle>false</activevideoangle>
                    <activeaudioangle>false</activeaudioangle>
                    <clip id="clip-2"/>
                  </angle>
                  <angle>
                    <activevideoangle>false</activevideoangle>
                    <activeaudioangle>false</activeaudioangle>
                    <clip id="clip-3"/>
                  </angle>
                  <angle>
                    <activevideoangle>true</activevideoangle>
                    <activeaudioangle>true</activeaudioangle>
                    <clip id="clip-4"/>
                  </angle>
                  <angle>
                    <activevideoangle>false</activevideoangle>
                    <activeaudioangle>false</activeaudioangle>
                    <clip id="clip-5"/>
                  </angle>
                  <angle>
                    <activevideoangle>false</activevideoangle>
                    <activeaudioangle>false</activeaudioangle>
                    <clip id="clip-6"/>
                  </angle>
                  <angle>
                    <activevideoangle>false</activevideoangle>
                    <activeaudioangle>false</activeaudioangle>
                    <clip id="clip-7"/>
                  </angle>
                  <angle>
                    <activevideoangle>false</activevideoangle>
                    <activeaudioangle>false</activeaudioangle>
                    <clip id="clip-8"/>
                  </angle>
                  <angle>
                    <activevideoangle>false</activevideoangle>
                    <activeaudioangle>false</activeaudioangle>
                    <clip id="clip-9"/>
                  </angle>
                  <masterclipid>clip-master</masterclipid>
                </multiclip>
              </clipitem>
              <clipitem id="cs-557">
                <duration>75</duration>
                <rate>
                  <ntsc>false</ntsc>
                  <timebase>25</timebase>
                </rate>
                <in>29807</in>
                <out>29881</out>
                <start>29807</start>
                <end>29881</end>
                <file id="src-3"/>
                <sourcetrack>
                  <mediatype>video</mediatype>
                  <trackindex>1</trackindex>
                </sourcetrack>
                <multiclip id="mcs-557">
                  <name>MCS-557</name>
                  <masterclipid>clip-master</masterclipid>
                  <collapsed>false</collapsed>
                  <angle>
                    <activevideoangle>false</activevideoangle>
                    <activeaudioangle>false</activeaudioangle>
                    <clip id="clip-1"/>
                  </angle>
                  <angle>
                    <activevideoangle>false</activevideoangle>
                    <activeaudioangle>false</activeaudioangle>
                    <clip id="clip-2"/>
                  </angle>
                  <angle>
                    <activevideoangle>true</activevideoangle>
                    <activeaudioangle>true</activeaudioangle>
                    <clip id="clip-3"/>
                  </angle>
                  <angle>
                    <activevideoangle>false</activevideoangle>
                    <activeaudioangle>false</activeaudioangle>
                    <clip id="clip-4"/>
                  </angle>
                  <angle>
                    <activevideoangle>false</activevideoangle>
                    <activeaudioangle>false</activeaudioangle>
                    <clip id="clip-5"/>
                  </angle>
                  <angle>
                    <activevideoangle>false</activevideoangle>
                    <activeaudioangle>false</activeaudioangle>
                    <clip id="clip-6"/>
                  </angle>
                  <angle>
                    <activevideoangle>false</activevideoangle>
                    <activeaudioangle>false</activeaudioangle>
                    <clip id="clip-7"/>
                  </angle>
                  <angle>
                    <activevideoangle>false</activevideoangle>
                    <activeaudioangle>false</activeaudioangle>
                    <clip id="clip-8"/>
                  </angle>
                  <angle>
                    <activevideoangle>false</activevideoangle>
                    <activeaudioangle>false</activeaudioangle>
                    <clip id="clip-9"/>
                  </angle>
                  <masterclipid>clip-master</masterclipid>
                </multiclip>
              </clipitem>
              <clipitem id="cs-558">
                <duration>108</duration>
                <rate>
                  <ntsc>false</ntsc>
                  <timebase>25</timebase>
                </rate>
                <in>29881</in>
                <out>29988</out>
                <start>29881</start>
                <end>29988</end>
                <file id="src-2"/>
                <sourcetrack>
                  <mediatype>video</mediatype>
                  <trackindex>1</trackindex>
                </sourcetrack>
                <multiclip id="mcs-558">
                  <name>MCS-558</name>
                  <masterclipid>clip-master</masterclipid>
                  <collapsed>false</collapsed>
                  <angle>
                    <activevideoangle>false</activevideoangle>
                    <activeaudioangle>false</activeaudioangle>
                    <clip id="clip-1"/>
                  </angle>
                  <angle>
                    <activevideoangle>true</activevideoangle>
                    <activeaudioangle>true</activeaudioangle>
                    <clip id="clip-2"/>
                  </angle>
                  <angle>
                    <activevideoangle>false</activevideoangle>
                    <activeaudioangle>false</activeaudioangle>
                    <clip id="clip-3"/>
                  </angle>
                  <angle>
                    <activevideoangle>false</activevideoangle>
                    <activeaudioangle>false</activeaudioangle>
                    <clip id="clip-4"/>
                  </angle>
                  <angle>
                    <activevideoangle>false</activevideoangle>
                    <activeaudioangle>false</activeaudioangle>
                    <clip id="clip-5"/>
                  </angle>
                  <angle>
                    <activevideoangle>false</activevideoangle>
                    <activeaudioangle>false</activeaudioangle>
                    <clip id="clip-6"/>
                  </angle>
                  <angle>
                    <activevideoangle>false</activevideoangle>
                    <activeaudioangle>false</activeaudioangle>
                    <clip id="clip-7"/>
                  </angle>
                  <angle>
                    <activevideoangle>false</activevideoangle>
                    <activeaudioangle>false</activeaudioangle>
                    <clip id="clip-8"/>
                  </angle>
                  <angle>
                    <activevideoangle>false</activevideoangle>
                    <activeaudioangle>false</activeaudioangle>
                    <clip id="clip-9"/>
                  </angle>
                  <masterclipid>clip-master</masterclipid>
                </multiclip>
              </clipitem>
              <clipitem id="cs-559">
                <duration>187</duration>
                <rate>
                  <ntsc>false</ntsc>
                  <timebase>25</timebase>
                </rate>
                <in>29988</in>
                <out>30174</out>
                <start>29988</start>
                <end>30174</end>
                <file id="src-4"/>
                <sourcetrack>
                  <mediatype>video</mediatype>
                  <trackindex>1</trackindex>
                </sourcetrack>
                <multiclip id="mcs-559">
                  <name>MCS-559</name>
                  <masterclipid>clip-master</masterclipid>
                  <collapsed>false</collapsed>
                  <angle>
                    <activevideoangle>false</activevideoangle>
                    <activeaudioangle>false</activeaudioangle>
                    <clip id="clip-1"/>
                  </angle>
                  <angle>
                    <activevideoangle>false</activevideoangle>
                    <activeaudioangle>false</activeaudioangle>
                    <clip id="clip-2"/>
                  </angle>
                  <angle>
                    <activevideoangle>false</activevideoangle>
                    <activeaudioangle>false</activeaudioangle>
                    <clip id="clip-3"/>
                  </angle>
                  <angle>
                    <activevideoangle>true</activevideoangle>
                    <activeaudioangle>true</activeaudioangle>
                    <clip id="clip-4"/>
                  </angle>
                  <angle>
                    <activevideoangle>false</activevideoangle>
                    <activeaudioangle>false</activeaudioangle>
                    <clip id="clip-5"/>
                  </angle>
                  <angle>
                    <activevideoangle>false</activevideoangle>
                    <activeaudioangle>false</activeaudioangle>
                    <clip id="clip-6"/>
                  </angle>
                  <angle>
                    <activevideoangle>false</activevideoangle>
                    <activeaudioangle>false</activeaudioangle>
                    <clip id="clip-7"/>
                  </angle>
                  <angle>
                    <activevideoangle>false</activevideoangle>
                    <activeaudioangle>false</activeaudioangle>
                    <clip id="clip-8"/>
                  </angle>
                  <angle>
                    <activevideoangle>false</activevideoangle>
                    <activeaudioangle>false</activeaudioangle>
                    <clip id="clip-9"/>
                  </angle>
                  <masterclipid>clip-master</masterclipid>
                </multiclip>
              </clipitem>
              <clipitem id="cs-560">
                <duration>47</duration>
                <rate>
                  <ntsc>false</ntsc>
                  <timebase>25</timebase>
                </rate>
                <in>30174</in>
                <out>30220</out>
                <start>30174</start>
                <end>30220</end>
                <file id="src-3"/>
                <sourcetrack>
                  <mediatype>video</mediatype>
                  <trackindex>1</trackindex>
                </sourcetrack>
                <multiclip id="mcs-560">
                  <name>MCS-560</name>
                  <masterclipid>clip-master</masterclipid>
                  <collapsed>false</collapsed>
                  <angle>
                    <activevideoangle>false</activevideoangle>
                    <activeaudioangle>false</activeaudioangle>
                    <clip id="clip-1"/>
                  </angle>
                  <angle>
                    <activevideoangle>false</activevideoangle>
                    <activeaudioangle>false</activeaudioangle>
                    <clip id="clip-2"/>
                  </angle>
                  <angle>
                    <activevideoangle>true</activevideoangle>
                    <activeaudioangle>true</activeaudioangle>
                    <clip id="clip-3"/>
                  </angle>
                  <angle>
                    <activevideoangle>false</activevideoangle>
                    <activeaudioangle>false</activeaudioangle>
                    <clip id="clip-4"/>
                  </angle>
                  <angle>
                    <activevideoangle>false</activevideoangle>
                    <activeaudioangle>false</activeaudioangle>
                    <clip id="clip-5"/>
                  </angle>
                  <angle>
                    <activevideoangle>false</activevideoangle>
                    <activeaudioangle>false</activeaudioangle>
                    <clip id="clip-6"/>
                  </angle>
                  <angle>
                    <activevideoangle>false</activevideoangle>
                    <activeaudioangle>false</activeaudioangle>
                    <clip id="clip-7"/>
                  </angle>
                  <angle>
                    <activevideoangle>false</activevideoangle>
                    <activeaudioangle>false</activeaudioangle>
                    <clip id="clip-8"/>
                  </angle>
                  <angle>
                    <activevideoangle>false</activevideoangle>
                    <activeaudioangle>false</activeaudioangle>
                    <clip id="clip-9"/>
                  </angle>
                  <masterclipid>clip-master</masterclipid>
                </multiclip>
              </clipitem>
              <clipitem id="cs-561">
                <duration>115</duration>
                <rate>
                  <ntsc>false</ntsc>
                  <timebase>25</timebase>
                </rate>
                <in>30220</in>
                <out>30334</out>
                <start>30220</start>
                <end>30334</end>
                <file id="src-5"/>
                <sourcetrack>
                  <mediatype>video</mediatype>
                  <trackindex>1</trackindex>
                </sourcetrack>
                <multiclip id="mcs-561">
                  <name>MCS-561</name>
                  <masterclipid>clip-master</masterclipid>
                  <collapsed>false</collapsed>
                  <angle>
                    <activevideoangle>false</activevideoangle>
                    <activeaudioangle>false</activeaudioangle>
                    <clip id="clip-1"/>
                  </angle>
                  <angle>
                    <activevideoangle>false</activevideoangle>
                    <activeaudioangle>false</activeaudioangle>
                    <clip id="clip-2"/>
                  </angle>
                  <angle>
                    <activevideoangle>false</activevideoangle>
                    <activeaudioangle>false</activeaudioangle>
                    <clip id="clip-3"/>
                  </angle>
                  <angle>
                    <activevideoangle>false</activevideoangle>
                    <activeaudioangle>false</activeaudioangle>
                    <clip id="clip-4"/>
                  </angle>
                  <angle>
                    <activevideoangle>true</activevideoangle>
                    <activeaudioangle>true</activeaudioangle>
                    <clip id="clip-5"/>
                  </angle>
                  <angle>
                    <activevideoangle>false</activevideoangle>
                    <activeaudioangle>false</activeaudioangle>
                    <clip id="clip-6"/>
                  </angle>
                  <angle>
                    <activevideoangle>false</activevideoangle>
                    <activeaudioangle>false</activeaudioangle>
                    <clip id="clip-7"/>
                  </angle>
                  <angle>
                    <activevideoangle>false</activevideoangle>
                    <activeaudioangle>false</activeaudioangle>
                    <clip id="clip-8"/>
                  </angle>
                  <angle>
                    <activevideoangle>false</activevideoangle>
                    <activeaudioangle>false</activeaudioangle>
                    <clip id="clip-9"/>
                  </angle>
                  <masterclipid>clip-master</masterclipid>
                </multiclip>
              </clipitem>
              <clipitem id="cs-562">
                <duration>37</duration>
                <rate>
                  <ntsc>false</ntsc>
                  <timebase>25</timebase>
                </rate>
                <in>30334</in>
                <out>30370</out>
                <start>30334</start>
                <end>30370</end>
                <file id="src-2"/>
                <sourcetrack>
                  <mediatype>video</mediatype>
                  <trackindex>1</trackindex>
                </sourcetrack>
                <multiclip id="mcs-562">
                  <name>MCS-562</name>
                  <masterclipid>clip-master</masterclipid>
                  <collapsed>false</collapsed>
                  <angle>
                    <activevideoangle>false</activevideoangle>
                    <activeaudioangle>false</activeaudioangle>
                    <clip id="clip-1"/>
                  </angle>
                  <angle>
                    <activevideoangle>true</activevideoangle>
                    <activeaudioangle>true</activeaudioangle>
                    <clip id="clip-2"/>
                  </angle>
                  <angle>
                    <activevideoangle>false</activevideoangle>
                    <activeaudioangle>false</activeaudioangle>
                    <clip id="clip-3"/>
                  </angle>
                  <angle>
                    <activevideoangle>false</activevideoangle>
                    <activeaudioangle>false</activeaudioangle>
                    <clip id="clip-4"/>
                  </angle>
                  <angle>
                    <activevideoangle>false</activevideoangle>
                    <activeaudioangle>false</activeaudioangle>
                    <clip id="clip-5"/>
                  </angle>
                  <angle>
                    <activevideoangle>false</activevideoangle>
                    <activeaudioangle>false</activeaudioangle>
                    <clip id="clip-6"/>
                  </angle>
                  <angle>
                    <activevideoangle>false</activevideoangle>
                    <activeaudioangle>false</activeaudioangle>
                    <clip id="clip-7"/>
                  </angle>
                  <angle>
                    <activevideoangle>false</activevideoangle>
                    <activeaudioangle>false</activeaudioangle>
                    <clip id="clip-8"/>
                  </angle>
                  <angle>
                    <activevideoangle>false</activevideoangle>
                    <activeaudioangle>false</activeaudioangle>
                    <clip id="clip-9"/>
                  </angle>
                  <masterclipid>clip-master</masterclipid>
                </multiclip>
              </clipitem>
              <clipitem id="cs-563">
                <duration>66</duration>
                <rate>
                  <ntsc>false</ntsc>
                  <timebase>25</timebase>
                </rate>
                <in>30370</in>
                <out>30435</out>
                <start>30370</start>
                <end>30435</end>
                <file id="src-4"/>
                <sourcetrack>
                  <mediatype>video</mediatype>
                  <trackindex>1</trackindex>
                </sourcetrack>
                <multiclip id="mcs-563">
                  <name>MCS-563</name>
                  <masterclipid>clip-master</masterclipid>
                  <collapsed>false</collapsed>
                  <angle>
                    <activevideoangle>false</activevideoangle>
                    <activeaudioangle>false</activeaudioangle>
                    <clip id="clip-1"/>
                  </angle>
                  <angle>
                    <activevideoangle>false</activevideoangle>
                    <activeaudioangle>false</activeaudioangle>
                    <clip id="clip-2"/>
                  </angle>
                  <angle>
                    <activevideoangle>false</activevideoangle>
                    <activeaudioangle>false</activeaudioangle>
                    <clip id="clip-3"/>
                  </angle>
                  <angle>
                    <activevideoangle>true</activevideoangle>
                    <activeaudioangle>true</activeaudioangle>
                    <clip id="clip-4"/>
                  </angle>
                  <angle>
                    <activevideoangle>false</activevideoangle>
                    <activeaudioangle>false</activeaudioangle>
                    <clip id="clip-5"/>
                  </angle>
                  <angle>
                    <activevideoangle>false</activevideoangle>
                    <activeaudioangle>false</activeaudioangle>
                    <clip id="clip-6"/>
                  </angle>
                  <angle>
                    <activevideoangle>false</activevideoangle>
                    <activeaudioangle>false</activeaudioangle>
                    <clip id="clip-7"/>
                  </angle>
                  <angle>
                    <activevideoangle>false</activevideoangle>
                    <activeaudioangle>false</activeaudioangle>
                    <clip id="clip-8"/>
                  </angle>
                  <angle>
                    <activevideoangle>false</activevideoangle>
                    <activeaudioangle>false</activeaudioangle>
                    <clip id="clip-9"/>
                  </angle>
                  <masterclipid>clip-master</masterclipid>
                </multiclip>
              </clipitem>
              <clipitem id="cs-564">
                <duration>89</duration>
                <rate>
                  <ntsc>false</ntsc>
                  <timebase>25</timebase>
                </rate>
                <in>30435</in>
                <out>30523</out>
                <start>30435</start>
                <end>30523</end>
                <file id="src-3"/>
                <sourcetrack>
                  <mediatype>video</mediatype>
                  <trackindex>1</trackindex>
                </sourcetrack>
                <multiclip id="mcs-564">
                  <name>MCS-564</name>
                  <masterclipid>clip-master</masterclipid>
                  <collapsed>false</collapsed>
                  <angle>
                    <activevideoangle>false</activevideoangle>
                    <activeaudioangle>false</activeaudioangle>
                    <clip id="clip-1"/>
                  </angle>
                  <angle>
                    <activevideoangle>false</activevideoangle>
                    <activeaudioangle>false</activeaudioangle>
                    <clip id="clip-2"/>
                  </angle>
                  <angle>
                    <activevideoangle>true</activevideoangle>
                    <activeaudioangle>true</activeaudioangle>
                    <clip id="clip-3"/>
                  </angle>
                  <angle>
                    <activevideoangle>false</activevideoangle>
                    <activeaudioangle>false</activeaudioangle>
                    <clip id="clip-4"/>
                  </angle>
                  <angle>
                    <activevideoangle>false</activevideoangle>
                    <activeaudioangle>false</activeaudioangle>
                    <clip id="clip-5"/>
                  </angle>
                  <angle>
                    <activevideoangle>false</activevideoangle>
                    <activeaudioangle>false</activeaudioangle>
                    <clip id="clip-6"/>
                  </angle>
                  <angle>
                    <activevideoangle>false</activevideoangle>
                    <activeaudioangle>false</activeaudioangle>
                    <clip id="clip-7"/>
                  </angle>
                  <angle>
                    <activevideoangle>false</activevideoangle>
                    <activeaudioangle>false</activeaudioangle>
                    <clip id="clip-8"/>
                  </angle>
                  <angle>
                    <activevideoangle>false</activevideoangle>
                    <activeaudioangle>false</activeaudioangle>
                    <clip id="clip-9"/>
                  </angle>
                  <masterclipid>clip-master</masterclipid>
                </multiclip>
              </clipitem>
              <clipitem id="cs-565">
                <duration>196</duration>
                <rate>
                  <ntsc>false</ntsc>
                  <timebase>25</timebase>
                </rate>
                <in>30523</in>
                <out>30718</out>
                <start>30523</start>
                <end>30718</end>
                <file id="src-2"/>
                <sourcetrack>
                  <mediatype>video</mediatype>
                  <trackindex>1</trackindex>
                </sourcetrack>
                <multiclip id="mcs-565">
                  <name>MCS-565</name>
                  <masterclipid>clip-master</masterclipid>
                  <collapsed>false</collapsed>
                  <angle>
                    <activevideoangle>false</activevideoangle>
                    <activeaudioangle>false</activeaudioangle>
                    <clip id="clip-1"/>
                  </angle>
                  <angle>
                    <activevideoangle>true</activevideoangle>
                    <activeaudioangle>true</activeaudioangle>
                    <clip id="clip-2"/>
                  </angle>
                  <angle>
                    <activevideoangle>false</activevideoangle>
                    <activeaudioangle>false</activeaudioangle>
                    <clip id="clip-3"/>
                  </angle>
                  <angle>
                    <activevideoangle>false</activevideoangle>
                    <activeaudioangle>false</activeaudioangle>
                    <clip id="clip-4"/>
                  </angle>
                  <angle>
                    <activevideoangle>false</activevideoangle>
                    <activeaudioangle>false</activeaudioangle>
                    <clip id="clip-5"/>
                  </angle>
                  <angle>
                    <activevideoangle>false</activevideoangle>
                    <activeaudioangle>false</activeaudioangle>
                    <clip id="clip-6"/>
                  </angle>
                  <angle>
                    <activevideoangle>false</activevideoangle>
                    <activeaudioangle>false</activeaudioangle>
                    <clip id="clip-7"/>
                  </angle>
                  <angle>
                    <activevideoangle>false</activevideoangle>
                    <activeaudioangle>false</activeaudioangle>
                    <clip id="clip-8"/>
                  </angle>
                  <angle>
                    <activevideoangle>false</activevideoangle>
                    <activeaudioangle>false</activeaudioangle>
                    <clip id="clip-9"/>
                  </angle>
                  <masterclipid>clip-master</masterclipid>
                </multiclip>
              </clipitem>
              <clipitem id="cs-566">
                <duration>75</duration>
                <rate>
                  <ntsc>false</ntsc>
                  <timebase>25</timebase>
                </rate>
                <in>30718</in>
                <out>30792</out>
                <start>30718</start>
                <end>30792</end>
                <file id="src-6"/>
                <sourcetrack>
                  <mediatype>video</mediatype>
                  <trackindex>1</trackindex>
                </sourcetrack>
                <multiclip id="mcs-566">
                  <name>MCS-566</name>
                  <masterclipid>clip-master</masterclipid>
                  <collapsed>false</collapsed>
                  <angle>
                    <activevideoangle>false</activevideoangle>
                    <activeaudioangle>false</activeaudioangle>
                    <clip id="clip-1"/>
                  </angle>
                  <angle>
                    <activevideoangle>false</activevideoangle>
                    <activeaudioangle>false</activeaudioangle>
                    <clip id="clip-2"/>
                  </angle>
                  <angle>
                    <activevideoangle>false</activevideoangle>
                    <activeaudioangle>false</activeaudioangle>
                    <clip id="clip-3"/>
                  </angle>
                  <angle>
                    <activevideoangle>false</activevideoangle>
                    <activeaudioangle>false</activeaudioangle>
                    <clip id="clip-4"/>
                  </angle>
                  <angle>
                    <activevideoangle>false</activevideoangle>
                    <activeaudioangle>false</activeaudioangle>
                    <clip id="clip-5"/>
                  </angle>
                  <angle>
                    <activevideoangle>true</activevideoangle>
                    <activeaudioangle>true</activeaudioangle>
                    <clip id="clip-6"/>
                  </angle>
                  <angle>
                    <activevideoangle>false</activevideoangle>
                    <activeaudioangle>false</activeaudioangle>
                    <clip id="clip-7"/>
                  </angle>
                  <angle>
                    <activevideoangle>false</activevideoangle>
                    <activeaudioangle>false</activeaudioangle>
                    <clip id="clip-8"/>
                  </angle>
                  <angle>
                    <activevideoangle>false</activevideoangle>
                    <activeaudioangle>false</activeaudioangle>
                    <clip id="clip-9"/>
                  </angle>
                  <masterclipid>clip-master</masterclipid>
                </multiclip>
              </clipitem>
              <clipitem id="cs-567">
                <duration>69</duration>
                <rate>
                  <ntsc>false</ntsc>
                  <timebase>25</timebase>
                </rate>
                <in>30792</in>
                <out>30860</out>
                <start>30792</start>
                <end>30860</end>
                <file id="src-3"/>
                <sourcetrack>
                  <mediatype>video</mediatype>
                  <trackindex>1</trackindex>
                </sourcetrack>
                <multiclip id="mcs-567">
                  <name>MCS-567</name>
                  <masterclipid>clip-master</masterclipid>
                  <collapsed>false</collapsed>
                  <angle>
                    <activevideoangle>false</activevideoangle>
                    <activeaudioangle>false</activeaudioangle>
                    <clip id="clip-1"/>
                  </angle>
                  <angle>
                    <activevideoangle>false</activevideoangle>
                    <activeaudioangle>false</activeaudioangle>
                    <clip id="clip-2"/>
                  </angle>
                  <angle>
                    <activevideoangle>true</activevideoangle>
                    <activeaudioangle>true</activeaudioangle>
                    <clip id="clip-3"/>
                  </angle>
                  <angle>
                    <activevideoangle>false</activevideoangle>
                    <activeaudioangle>false</activeaudioangle>
                    <clip id="clip-4"/>
                  </angle>
                  <angle>
                    <activevideoangle>false</activevideoangle>
                    <activeaudioangle>false</activeaudioangle>
                    <clip id="clip-5"/>
                  </angle>
                  <angle>
                    <activevideoangle>false</activevideoangle>
                    <activeaudioangle>false</activeaudioangle>
                    <clip id="clip-6"/>
                  </angle>
                  <angle>
                    <activevideoangle>false</activevideoangle>
                    <activeaudioangle>false</activeaudioangle>
                    <clip id="clip-7"/>
                  </angle>
                  <angle>
                    <activevideoangle>false</activevideoangle>
                    <activeaudioangle>false</activeaudioangle>
                    <clip id="clip-8"/>
                  </angle>
                  <angle>
                    <activevideoangle>false</activevideoangle>
                    <activeaudioangle>false</activeaudioangle>
                    <clip id="clip-9"/>
                  </angle>
                  <masterclipid>clip-master</masterclipid>
                </multiclip>
              </clipitem>
              <clipitem id="cs-568">
                <duration>64</duration>
                <rate>
                  <ntsc>false</ntsc>
                  <timebase>25</timebase>
                </rate>
                <in>30860</in>
                <out>30923</out>
                <start>30860</start>
                <end>30923</end>
                <file id="src-4"/>
                <sourcetrack>
                  <mediatype>video</mediatype>
                  <trackindex>1</trackindex>
                </sourcetrack>
                <multiclip id="mcs-568">
                  <name>MCS-568</name>
                  <masterclipid>clip-master</masterclipid>
                  <collapsed>false</collapsed>
                  <angle>
                    <activevideoangle>false</activevideoangle>
                    <activeaudioangle>false</activeaudioangle>
                    <clip id="clip-1"/>
                  </angle>
                  <angle>
                    <activevideoangle>false</activevideoangle>
                    <activeaudioangle>false</activeaudioangle>
                    <clip id="clip-2"/>
                  </angle>
                  <angle>
                    <activevideoangle>false</activevideoangle>
                    <activeaudioangle>false</activeaudioangle>
                    <clip id="clip-3"/>
                  </angle>
                  <angle>
                    <activevideoangle>true</activevideoangle>
                    <activeaudioangle>true</activeaudioangle>
                    <clip id="clip-4"/>
                  </angle>
                  <angle>
                    <activevideoangle>false</activevideoangle>
                    <activeaudioangle>false</activeaudioangle>
                    <clip id="clip-5"/>
                  </angle>
                  <angle>
                    <activevideoangle>false</activevideoangle>
                    <activeaudioangle>false</activeaudioangle>
                    <clip id="clip-6"/>
                  </angle>
                  <angle>
                    <activevideoangle>false</activevideoangle>
                    <activeaudioangle>false</activeaudioangle>
                    <clip id="clip-7"/>
                  </angle>
                  <angle>
                    <activevideoangle>false</activevideoangle>
                    <activeaudioangle>false</activeaudioangle>
                    <clip id="clip-8"/>
                  </angle>
                  <angle>
                    <activevideoangle>false</activevideoangle>
                    <activeaudioangle>false</activeaudioangle>
                    <clip id="clip-9"/>
                  </angle>
                  <masterclipid>clip-master</masterclipid>
                </multiclip>
              </clipitem>
              <clipitem id="cs-569">
                <duration>78</duration>
                <rate>
                  <ntsc>false</ntsc>
                  <timebase>25</timebase>
                </rate>
                <in>30923</in>
                <out>31000</out>
                <start>30923</start>
                <end>31000</end>
                <file id="src-5"/>
                <sourcetrack>
                  <mediatype>video</mediatype>
                  <trackindex>1</trackindex>
                </sourcetrack>
                <multiclip id="mcs-569">
                  <name>MCS-569</name>
                  <masterclipid>clip-master</masterclipid>
                  <collapsed>false</collapsed>
                  <angle>
                    <activevideoangle>false</activevideoangle>
                    <activeaudioangle>false</activeaudioangle>
                    <clip id="clip-1"/>
                  </angle>
                  <angle>
                    <activevideoangle>false</activevideoangle>
                    <activeaudioangle>false</activeaudioangle>
                    <clip id="clip-2"/>
                  </angle>
                  <angle>
                    <activevideoangle>false</activevideoangle>
                    <activeaudioangle>false</activeaudioangle>
                    <clip id="clip-3"/>
                  </angle>
                  <angle>
                    <activevideoangle>false</activevideoangle>
                    <activeaudioangle>false</activeaudioangle>
                    <clip id="clip-4"/>
                  </angle>
                  <angle>
                    <activevideoangle>true</activevideoangle>
                    <activeaudioangle>true</activeaudioangle>
                    <clip id="clip-5"/>
                  </angle>
                  <angle>
                    <activevideoangle>false</activevideoangle>
                    <activeaudioangle>false</activeaudioangle>
                    <clip id="clip-6"/>
                  </angle>
                  <angle>
                    <activevideoangle>false</activevideoangle>
                    <activeaudioangle>false</activeaudioangle>
                    <clip id="clip-7"/>
                  </angle>
                  <angle>
                    <activevideoangle>false</activevideoangle>
                    <activeaudioangle>false</activeaudioangle>
                    <clip id="clip-8"/>
                  </angle>
                  <angle>
                    <activevideoangle>false</activevideoangle>
                    <activeaudioangle>false</activeaudioangle>
                    <clip id="clip-9"/>
                  </angle>
                  <masterclipid>clip-master</masterclipid>
                </multiclip>
              </clipitem>
              <clipitem id="cs-570">
                <duration>60</duration>
                <rate>
                  <ntsc>false</ntsc>
                  <timebase>25</timebase>
                </rate>
                <in>31000</in>
                <out>31059</out>
                <start>31000</start>
                <end>31059</end>
                <file id="src-2"/>
                <sourcetrack>
                  <mediatype>video</mediatype>
                  <trackindex>1</trackindex>
                </sourcetrack>
                <multiclip id="mcs-570">
                  <name>MCS-570</name>
                  <masterclipid>clip-master</masterclipid>
                  <collapsed>false</collapsed>
                  <angle>
                    <activevideoangle>false</activevideoangle>
                    <activeaudioangle>false</activeaudioangle>
                    <clip id="clip-1"/>
                  </angle>
                  <angle>
                    <activevideoangle>true</activevideoangle>
                    <activeaudioangle>true</activeaudioangle>
                    <clip id="clip-2"/>
                  </angle>
                  <angle>
                    <activevideoangle>false</activevideoangle>
                    <activeaudioangle>false</activeaudioangle>
                    <clip id="clip-3"/>
                  </angle>
                  <angle>
                    <activevideoangle>false</activevideoangle>
                    <activeaudioangle>false</activeaudioangle>
                    <clip id="clip-4"/>
                  </angle>
                  <angle>
                    <activevideoangle>false</activevideoangle>
                    <activeaudioangle>false</activeaudioangle>
                    <clip id="clip-5"/>
                  </angle>
                  <angle>
                    <activevideoangle>false</activevideoangle>
                    <activeaudioangle>false</activeaudioangle>
                    <clip id="clip-6"/>
                  </angle>
                  <angle>
                    <activevideoangle>false</activevideoangle>
                    <activeaudioangle>false</activeaudioangle>
                    <clip id="clip-7"/>
                  </angle>
                  <angle>
                    <activevideoangle>false</activevideoangle>
                    <activeaudioangle>false</activeaudioangle>
                    <clip id="clip-8"/>
                  </angle>
                  <angle>
                    <activevideoangle>false</activevideoangle>
                    <activeaudioangle>false</activeaudioangle>
                    <clip id="clip-9"/>
                  </angle>
                  <masterclipid>clip-master</masterclipid>
                </multiclip>
              </clipitem>
              <clipitem id="cs-571">
                <duration>55</duration>
                <rate>
                  <ntsc>false</ntsc>
                  <timebase>25</timebase>
                </rate>
                <in>31059</in>
                <out>31113</out>
                <start>31059</start>
                <end>31113</end>
                <file id="src-3"/>
                <sourcetrack>
                  <mediatype>video</mediatype>
                  <trackindex>1</trackindex>
                </sourcetrack>
                <multiclip id="mcs-571">
                  <name>MCS-571</name>
                  <masterclipid>clip-master</masterclipid>
                  <collapsed>false</collapsed>
                  <angle>
                    <activevideoangle>false</activevideoangle>
                    <activeaudioangle>false</activeaudioangle>
                    <clip id="clip-1"/>
                  </angle>
                  <angle>
                    <activevideoangle>false</activevideoangle>
                    <activeaudioangle>false</activeaudioangle>
                    <clip id="clip-2"/>
                  </angle>
                  <angle>
                    <activevideoangle>true</activevideoangle>
                    <activeaudioangle>true</activeaudioangle>
                    <clip id="clip-3"/>
                  </angle>
                  <angle>
                    <activevideoangle>false</activevideoangle>
                    <activeaudioangle>false</activeaudioangle>
                    <clip id="clip-4"/>
                  </angle>
                  <angle>
                    <activevideoangle>false</activevideoangle>
                    <activeaudioangle>false</activeaudioangle>
                    <clip id="clip-5"/>
                  </angle>
                  <angle>
                    <activevideoangle>false</activevideoangle>
                    <activeaudioangle>false</activeaudioangle>
                    <clip id="clip-6"/>
                  </angle>
                  <angle>
                    <activevideoangle>false</activevideoangle>
                    <activeaudioangle>false</activeaudioangle>
                    <clip id="clip-7"/>
                  </angle>
                  <angle>
                    <activevideoangle>false</activevideoangle>
                    <activeaudioangle>false</activeaudioangle>
                    <clip id="clip-8"/>
                  </angle>
                  <angle>
                    <activevideoangle>false</activevideoangle>
                    <activeaudioangle>false</activeaudioangle>
                    <clip id="clip-9"/>
                  </angle>
                  <masterclipid>clip-master</masterclipid>
                </multiclip>
              </clipitem>
              <clipitem id="cs-572">
                <duration>65</duration>
                <rate>
                  <ntsc>false</ntsc>
                  <timebase>25</timebase>
                </rate>
                <in>31113</in>
                <out>31177</out>
                <start>31113</start>
                <end>31177</end>
                <file id="src-4"/>
                <sourcetrack>
                  <mediatype>video</mediatype>
                  <trackindex>1</trackindex>
                </sourcetrack>
                <multiclip id="mcs-572">
                  <name>MCS-572</name>
                  <masterclipid>clip-master</masterclipid>
                  <collapsed>false</collapsed>
                  <angle>
                    <activevideoangle>false</activevideoangle>
                    <activeaudioangle>false</activeaudioangle>
                    <clip id="clip-1"/>
                  </angle>
                  <angle>
                    <activevideoangle>false</activevideoangle>
                    <activeaudioangle>false</activeaudioangle>
                    <clip id="clip-2"/>
                  </angle>
                  <angle>
                    <activevideoangle>false</activevideoangle>
                    <activeaudioangle>false</activeaudioangle>
                    <clip id="clip-3"/>
                  </angle>
                  <angle>
                    <activevideoangle>true</activevideoangle>
                    <activeaudioangle>true</activeaudioangle>
                    <clip id="clip-4"/>
                  </angle>
                  <angle>
                    <activevideoangle>false</activevideoangle>
                    <activeaudioangle>false</activeaudioangle>
                    <clip id="clip-5"/>
                  </angle>
                  <angle>
                    <activevideoangle>false</activevideoangle>
                    <activeaudioangle>false</activeaudioangle>
                    <clip id="clip-6"/>
                  </angle>
                  <angle>
                    <activevideoangle>false</activevideoangle>
                    <activeaudioangle>false</activeaudioangle>
                    <clip id="clip-7"/>
                  </angle>
                  <angle>
                    <activevideoangle>false</activevideoangle>
                    <activeaudioangle>false</activeaudioangle>
                    <clip id="clip-8"/>
                  </angle>
                  <angle>
                    <activevideoangle>false</activevideoangle>
                    <activeaudioangle>false</activeaudioangle>
                    <clip id="clip-9"/>
                  </angle>
                  <masterclipid>clip-master</masterclipid>
                </multiclip>
              </clipitem>
              <clipitem id="cs-573">
                <duration>117</duration>
                <rate>
                  <ntsc>false</ntsc>
                  <timebase>25</timebase>
                </rate>
                <in>31177</in>
                <out>31293</out>
                <start>31177</start>
                <end>31293</end>
                <file id="src-3"/>
                <sourcetrack>
                  <mediatype>video</mediatype>
                  <trackindex>1</trackindex>
                </sourcetrack>
                <multiclip id="mcs-573">
                  <name>MCS-573</name>
                  <masterclipid>clip-master</masterclipid>
                  <collapsed>false</collapsed>
                  <angle>
                    <activevideoangle>false</activevideoangle>
                    <activeaudioangle>false</activeaudioangle>
                    <clip id="clip-1"/>
                  </angle>
                  <angle>
                    <activevideoangle>false</activevideoangle>
                    <activeaudioangle>false</activeaudioangle>
                    <clip id="clip-2"/>
                  </angle>
                  <angle>
                    <activevideoangle>true</activevideoangle>
                    <activeaudioangle>true</activeaudioangle>
                    <clip id="clip-3"/>
                  </angle>
                  <angle>
                    <activevideoangle>false</activevideoangle>
                    <activeaudioangle>false</activeaudioangle>
                    <clip id="clip-4"/>
                  </angle>
                  <angle>
                    <activevideoangle>false</activevideoangle>
                    <activeaudioangle>false</activeaudioangle>
                    <clip id="clip-5"/>
                  </angle>
                  <angle>
                    <activevideoangle>false</activevideoangle>
                    <activeaudioangle>false</activeaudioangle>
                    <clip id="clip-6"/>
                  </angle>
                  <angle>
                    <activevideoangle>false</activevideoangle>
                    <activeaudioangle>false</activeaudioangle>
                    <clip id="clip-7"/>
                  </angle>
                  <angle>
                    <activevideoangle>false</activevideoangle>
                    <activeaudioangle>false</activeaudioangle>
                    <clip id="clip-8"/>
                  </angle>
                  <angle>
                    <activevideoangle>false</activevideoangle>
                    <activeaudioangle>false</activeaudioangle>
                    <clip id="clip-9"/>
                  </angle>
                  <masterclipid>clip-master</masterclipid>
                </multiclip>
              </clipitem>
              <clipitem id="cs-574">
                <duration>140</duration>
                <rate>
                  <ntsc>false</ntsc>
                  <timebase>25</timebase>
                </rate>
                <in>31293</in>
                <out>31432</out>
                <start>31293</start>
                <end>31432</end>
                <file id="src-2"/>
                <sourcetrack>
                  <mediatype>video</mediatype>
                  <trackindex>1</trackindex>
                </sourcetrack>
                <multiclip id="mcs-574">
                  <name>MCS-574</name>
                  <masterclipid>clip-master</masterclipid>
                  <collapsed>false</collapsed>
                  <angle>
                    <activevideoangle>false</activevideoangle>
                    <activeaudioangle>false</activeaudioangle>
                    <clip id="clip-1"/>
                  </angle>
                  <angle>
                    <activevideoangle>true</activevideoangle>
                    <activeaudioangle>true</activeaudioangle>
                    <clip id="clip-2"/>
                  </angle>
                  <angle>
                    <activevideoangle>false</activevideoangle>
                    <activeaudioangle>false</activeaudioangle>
                    <clip id="clip-3"/>
                  </angle>
                  <angle>
                    <activevideoangle>false</activevideoangle>
                    <activeaudioangle>false</activeaudioangle>
                    <clip id="clip-4"/>
                  </angle>
                  <angle>
                    <activevideoangle>false</activevideoangle>
                    <activeaudioangle>false</activeaudioangle>
                    <clip id="clip-5"/>
                  </angle>
                  <angle>
                    <activevideoangle>false</activevideoangle>
                    <activeaudioangle>false</activeaudioangle>
                    <clip id="clip-6"/>
                  </angle>
                  <angle>
                    <activevideoangle>false</activevideoangle>
                    <activeaudioangle>false</activeaudioangle>
                    <clip id="clip-7"/>
                  </angle>
                  <angle>
                    <activevideoangle>false</activevideoangle>
                    <activeaudioangle>false</activeaudioangle>
                    <clip id="clip-8"/>
                  </angle>
                  <angle>
                    <activevideoangle>false</activevideoangle>
                    <activeaudioangle>false</activeaudioangle>
                    <clip id="clip-9"/>
                  </angle>
                  <masterclipid>clip-master</masterclipid>
                </multiclip>
              </clipitem>
              <clipitem id="cs-575">
                <duration>157</duration>
                <rate>
                  <ntsc>false</ntsc>
                  <timebase>25</timebase>
                </rate>
                <in>31432</in>
                <out>31588</out>
                <start>31432</start>
                <end>31588</end>
                <file id="src-4"/>
                <sourcetrack>
                  <mediatype>video</mediatype>
                  <trackindex>1</trackindex>
                </sourcetrack>
                <multiclip id="mcs-575">
                  <name>MCS-575</name>
                  <masterclipid>clip-master</masterclipid>
                  <collapsed>false</collapsed>
                  <angle>
                    <activevideoangle>false</activevideoangle>
                    <activeaudioangle>false</activeaudioangle>
                    <clip id="clip-1"/>
                  </angle>
                  <angle>
                    <activevideoangle>false</activevideoangle>
                    <activeaudioangle>false</activeaudioangle>
                    <clip id="clip-2"/>
                  </angle>
                  <angle>
                    <activevideoangle>false</activevideoangle>
                    <activeaudioangle>false</activeaudioangle>
                    <clip id="clip-3"/>
                  </angle>
                  <angle>
                    <activevideoangle>true</activevideoangle>
                    <activeaudioangle>true</activeaudioangle>
                    <clip id="clip-4"/>
                  </angle>
                  <angle>
                    <activevideoangle>false</activevideoangle>
                    <activeaudioangle>false</activeaudioangle>
                    <clip id="clip-5"/>
                  </angle>
                  <angle>
                    <activevideoangle>false</activevideoangle>
                    <activeaudioangle>false</activeaudioangle>
                    <clip id="clip-6"/>
                  </angle>
                  <angle>
                    <activevideoangle>false</activevideoangle>
                    <activeaudioangle>false</activeaudioangle>
                    <clip id="clip-7"/>
                  </angle>
                  <angle>
                    <activevideoangle>false</activevideoangle>
                    <activeaudioangle>false</activeaudioangle>
                    <clip id="clip-8"/>
                  </angle>
                  <angle>
                    <activevideoangle>false</activevideoangle>
                    <activeaudioangle>false</activeaudioangle>
                    <clip id="clip-9"/>
                  </angle>
                  <masterclipid>clip-master</masterclipid>
                </multiclip>
              </clipitem>
              <clipitem id="cs-576">
                <duration>55</duration>
                <rate>
                  <ntsc>false</ntsc>
                  <timebase>25</timebase>
                </rate>
                <in>31588</in>
                <out>31642</out>
                <start>31588</start>
                <end>31642</end>
                <file id="src-5"/>
                <sourcetrack>
                  <mediatype>video</mediatype>
                  <trackindex>1</trackindex>
                </sourcetrack>
                <multiclip id="mcs-576">
                  <name>MCS-576</name>
                  <masterclipid>clip-master</masterclipid>
                  <collapsed>false</collapsed>
                  <angle>
                    <activevideoangle>false</activevideoangle>
                    <activeaudioangle>false</activeaudioangle>
                    <clip id="clip-1"/>
                  </angle>
                  <angle>
                    <activevideoangle>false</activevideoangle>
                    <activeaudioangle>false</activeaudioangle>
                    <clip id="clip-2"/>
                  </angle>
                  <angle>
                    <activevideoangle>false</activevideoangle>
                    <activeaudioangle>false</activeaudioangle>
                    <clip id="clip-3"/>
                  </angle>
                  <angle>
                    <activevideoangle>false</activevideoangle>
                    <activeaudioangle>false</activeaudioangle>
                    <clip id="clip-4"/>
                  </angle>
                  <angle>
                    <activevideoangle>true</activevideoangle>
                    <activeaudioangle>true</activeaudioangle>
                    <clip id="clip-5"/>
                  </angle>
                  <angle>
                    <activevideoangle>false</activevideoangle>
                    <activeaudioangle>false</activeaudioangle>
                    <clip id="clip-6"/>
                  </angle>
                  <angle>
                    <activevideoangle>false</activevideoangle>
                    <activeaudioangle>false</activeaudioangle>
                    <clip id="clip-7"/>
                  </angle>
                  <angle>
                    <activevideoangle>false</activevideoangle>
                    <activeaudioangle>false</activeaudioangle>
                    <clip id="clip-8"/>
                  </angle>
                  <angle>
                    <activevideoangle>false</activevideoangle>
                    <activeaudioangle>false</activeaudioangle>
                    <clip id="clip-9"/>
                  </angle>
                  <masterclipid>clip-master</masterclipid>
                </multiclip>
              </clipitem>
              <clipitem id="cs-577">
                <duration>60</duration>
                <rate>
                  <ntsc>false</ntsc>
                  <timebase>25</timebase>
                </rate>
                <in>31642</in>
                <out>31701</out>
                <start>31642</start>
                <end>31701</end>
                <file id="src-3"/>
                <sourcetrack>
                  <mediatype>video</mediatype>
                  <trackindex>1</trackindex>
                </sourcetrack>
                <multiclip id="mcs-577">
                  <name>MCS-577</name>
                  <masterclipid>clip-master</masterclipid>
                  <collapsed>false</collapsed>
                  <angle>
                    <activevideoangle>false</activevideoangle>
                    <activeaudioangle>false</activeaudioangle>
                    <clip id="clip-1"/>
                  </angle>
                  <angle>
                    <activevideoangle>false</activevideoangle>
                    <activeaudioangle>false</activeaudioangle>
                    <clip id="clip-2"/>
                  </angle>
                  <angle>
                    <activevideoangle>true</activevideoangle>
                    <activeaudioangle>true</activeaudioangle>
                    <clip id="clip-3"/>
                  </angle>
                  <angle>
                    <activevideoangle>false</activevideoangle>
                    <activeaudioangle>false</activeaudioangle>
                    <clip id="clip-4"/>
                  </angle>
                  <angle>
                    <activevideoangle>false</activevideoangle>
                    <activeaudioangle>false</activeaudioangle>
                    <clip id="clip-5"/>
                  </angle>
                  <angle>
                    <activevideoangle>false</activevideoangle>
                    <activeaudioangle>false</activeaudioangle>
                    <clip id="clip-6"/>
                  </angle>
                  <angle>
                    <activevideoangle>false</activevideoangle>
                    <activeaudioangle>false</activeaudioangle>
                    <clip id="clip-7"/>
                  </angle>
                  <angle>
                    <activevideoangle>false</activevideoangle>
                    <activeaudioangle>false</activeaudioangle>
                    <clip id="clip-8"/>
                  </angle>
                  <angle>
                    <activevideoangle>false</activevideoangle>
                    <activeaudioangle>false</activeaudioangle>
                    <clip id="clip-9"/>
                  </angle>
                  <masterclipid>clip-master</masterclipid>
                </multiclip>
              </clipitem>
              <clipitem id="cs-578">
                <duration>119</duration>
                <rate>
                  <ntsc>false</ntsc>
                  <timebase>25</timebase>
                </rate>
                <in>31701</in>
                <out>31819</out>
                <start>31701</start>
                <end>31819</end>
                <file id="src-2"/>
                <sourcetrack>
                  <mediatype>video</mediatype>
                  <trackindex>1</trackindex>
                </sourcetrack>
                <multiclip id="mcs-578">
                  <name>MCS-578</name>
                  <masterclipid>clip-master</masterclipid>
                  <collapsed>false</collapsed>
                  <angle>
                    <activevideoangle>false</activevideoangle>
                    <activeaudioangle>false</activeaudioangle>
                    <clip id="clip-1"/>
                  </angle>
                  <angle>
                    <activevideoangle>true</activevideoangle>
                    <activeaudioangle>true</activeaudioangle>
                    <clip id="clip-2"/>
                  </angle>
                  <angle>
                    <activevideoangle>false</activevideoangle>
                    <activeaudioangle>false</activeaudioangle>
                    <clip id="clip-3"/>
                  </angle>
                  <angle>
                    <activevideoangle>false</activevideoangle>
                    <activeaudioangle>false</activeaudioangle>
                    <clip id="clip-4"/>
                  </angle>
                  <angle>
                    <activevideoangle>false</activevideoangle>
                    <activeaudioangle>false</activeaudioangle>
                    <clip id="clip-5"/>
                  </angle>
                  <angle>
                    <activevideoangle>false</activevideoangle>
                    <activeaudioangle>false</activeaudioangle>
                    <clip id="clip-6"/>
                  </angle>
                  <angle>
                    <activevideoangle>false</activevideoangle>
                    <activeaudioangle>false</activeaudioangle>
                    <clip id="clip-7"/>
                  </angle>
                  <angle>
                    <activevideoangle>false</activevideoangle>
                    <activeaudioangle>false</activeaudioangle>
                    <clip id="clip-8"/>
                  </angle>
                  <angle>
                    <activevideoangle>false</activevideoangle>
                    <activeaudioangle>false</activeaudioangle>
                    <clip id="clip-9"/>
                  </angle>
                  <masterclipid>clip-master</masterclipid>
                </multiclip>
              </clipitem>
              <clipitem id="cs-579">
                <duration>47</duration>
                <rate>
                  <ntsc>false</ntsc>
                  <timebase>25</timebase>
                </rate>
                <in>31819</in>
                <out>31865</out>
                <start>31819</start>
                <end>31865</end>
                <file id="src-4"/>
                <sourcetrack>
                  <mediatype>video</mediatype>
                  <trackindex>1</trackindex>
                </sourcetrack>
                <multiclip id="mcs-579">
                  <name>MCS-579</name>
                  <masterclipid>clip-master</masterclipid>
                  <collapsed>false</collapsed>
                  <angle>
                    <activevideoangle>false</activevideoangle>
                    <activeaudioangle>false</activeaudioangle>
                    <clip id="clip-1"/>
                  </angle>
                  <angle>
                    <activevideoangle>false</activevideoangle>
                    <activeaudioangle>false</activeaudioangle>
                    <clip id="clip-2"/>
                  </angle>
                  <angle>
                    <activevideoangle>false</activevideoangle>
                    <activeaudioangle>false</activeaudioangle>
                    <clip id="clip-3"/>
                  </angle>
                  <angle>
                    <activevideoangle>true</activevideoangle>
                    <activeaudioangle>true</activeaudioangle>
                    <clip id="clip-4"/>
                  </angle>
                  <angle>
                    <activevideoangle>false</activevideoangle>
                    <activeaudioangle>false</activeaudioangle>
                    <clip id="clip-5"/>
                  </angle>
                  <angle>
                    <activevideoangle>false</activevideoangle>
                    <activeaudioangle>false</activeaudioangle>
                    <clip id="clip-6"/>
                  </angle>
                  <angle>
                    <activevideoangle>false</activevideoangle>
                    <activeaudioangle>false</activeaudioangle>
                    <clip id="clip-7"/>
                  </angle>
                  <angle>
                    <activevideoangle>false</activevideoangle>
                    <activeaudioangle>false</activeaudioangle>
                    <clip id="clip-8"/>
                  </angle>
                  <angle>
                    <activevideoangle>false</activevideoangle>
                    <activeaudioangle>false</activeaudioangle>
                    <clip id="clip-9"/>
                  </angle>
                  <masterclipid>clip-master</masterclipid>
                </multiclip>
              </clipitem>
              <clipitem id="cs-580">
                <duration>111</duration>
                <rate>
                  <ntsc>false</ntsc>
                  <timebase>25</timebase>
                </rate>
                <in>31865</in>
                <out>31975</out>
                <start>31865</start>
                <end>31975</end>
                <file id="src-3"/>
                <sourcetrack>
                  <mediatype>video</mediatype>
                  <trackindex>1</trackindex>
                </sourcetrack>
                <multiclip id="mcs-580">
                  <name>MCS-580</name>
                  <masterclipid>clip-master</masterclipid>
                  <collapsed>false</collapsed>
                  <angle>
                    <activevideoangle>false</activevideoangle>
                    <activeaudioangle>false</activeaudioangle>
                    <clip id="clip-1"/>
                  </angle>
                  <angle>
                    <activevideoangle>false</activevideoangle>
                    <activeaudioangle>false</activeaudioangle>
                    <clip id="clip-2"/>
                  </angle>
                  <angle>
                    <activevideoangle>true</activevideoangle>
                    <activeaudioangle>true</activeaudioangle>
                    <clip id="clip-3"/>
                  </angle>
                  <angle>
                    <activevideoangle>false</activevideoangle>
                    <activeaudioangle>false</activeaudioangle>
                    <clip id="clip-4"/>
                  </angle>
                  <angle>
                    <activevideoangle>false</activevideoangle>
                    <activeaudioangle>false</activeaudioangle>
                    <clip id="clip-5"/>
                  </angle>
                  <angle>
                    <activevideoangle>false</activevideoangle>
                    <activeaudioangle>false</activeaudioangle>
                    <clip id="clip-6"/>
                  </angle>
                  <angle>
                    <activevideoangle>false</activevideoangle>
                    <activeaudioangle>false</activeaudioangle>
                    <clip id="clip-7"/>
                  </angle>
                  <angle>
                    <activevideoangle>false</activevideoangle>
                    <activeaudioangle>false</activeaudioangle>
                    <clip id="clip-8"/>
                  </angle>
                  <angle>
                    <activevideoangle>false</activevideoangle>
                    <activeaudioangle>false</activeaudioangle>
                    <clip id="clip-9"/>
                  </angle>
                  <masterclipid>clip-master</masterclipid>
                </multiclip>
              </clipitem>
              <clipitem id="cs-581">
                <duration>56</duration>
                <rate>
                  <ntsc>false</ntsc>
                  <timebase>25</timebase>
                </rate>
                <in>31975</in>
                <out>32030</out>
                <start>31975</start>
                <end>32030</end>
                <file id="src-4"/>
                <sourcetrack>
                  <mediatype>video</mediatype>
                  <trackindex>1</trackindex>
                </sourcetrack>
                <multiclip id="mcs-581">
                  <name>MCS-581</name>
                  <masterclipid>clip-master</masterclipid>
                  <collapsed>false</collapsed>
                  <angle>
                    <activevideoangle>false</activevideoangle>
                    <activeaudioangle>false</activeaudioangle>
                    <clip id="clip-1"/>
                  </angle>
                  <angle>
                    <activevideoangle>false</activevideoangle>
                    <activeaudioangle>false</activeaudioangle>
                    <clip id="clip-2"/>
                  </angle>
                  <angle>
                    <activevideoangle>false</activevideoangle>
                    <activeaudioangle>false</activeaudioangle>
                    <clip id="clip-3"/>
                  </angle>
                  <angle>
                    <activevideoangle>true</activevideoangle>
                    <activeaudioangle>true</activeaudioangle>
                    <clip id="clip-4"/>
                  </angle>
                  <angle>
                    <activevideoangle>false</activevideoangle>
                    <activeaudioangle>false</activeaudioangle>
                    <clip id="clip-5"/>
                  </angle>
                  <angle>
                    <activevideoangle>false</activevideoangle>
                    <activeaudioangle>false</activeaudioangle>
                    <clip id="clip-6"/>
                  </angle>
                  <angle>
                    <activevideoangle>false</activevideoangle>
                    <activeaudioangle>false</activeaudioangle>
                    <clip id="clip-7"/>
                  </angle>
                  <angle>
                    <activevideoangle>false</activevideoangle>
                    <activeaudioangle>false</activeaudioangle>
                    <clip id="clip-8"/>
                  </angle>
                  <angle>
                    <activevideoangle>false</activevideoangle>
                    <activeaudioangle>false</activeaudioangle>
                    <clip id="clip-9"/>
                  </angle>
                  <masterclipid>clip-master</masterclipid>
                </multiclip>
              </clipitem>
              <clipitem id="cs-582">
                <duration>94</duration>
                <rate>
                  <ntsc>false</ntsc>
                  <timebase>25</timebase>
                </rate>
                <in>32030</in>
                <out>32123</out>
                <start>32030</start>
                <end>32123</end>
                <file id="src-7"/>
                <sourcetrack>
                  <mediatype>video</mediatype>
                  <trackindex>1</trackindex>
                </sourcetrack>
                <multiclip id="mcs-582">
                  <name>MCS-582</name>
                  <masterclipid>clip-master</masterclipid>
                  <collapsed>false</collapsed>
                  <angle>
                    <activevideoangle>false</activevideoangle>
                    <activeaudioangle>false</activeaudioangle>
                    <clip id="clip-1"/>
                  </angle>
                  <angle>
                    <activevideoangle>false</activevideoangle>
                    <activeaudioangle>false</activeaudioangle>
                    <clip id="clip-2"/>
                  </angle>
                  <angle>
                    <activevideoangle>false</activevideoangle>
                    <activeaudioangle>false</activeaudioangle>
                    <clip id="clip-3"/>
                  </angle>
                  <angle>
                    <activevideoangle>false</activevideoangle>
                    <activeaudioangle>false</activeaudioangle>
                    <clip id="clip-4"/>
                  </angle>
                  <angle>
                    <activevideoangle>false</activevideoangle>
                    <activeaudioangle>false</activeaudioangle>
                    <clip id="clip-5"/>
                  </angle>
                  <angle>
                    <activevideoangle>false</activevideoangle>
                    <activeaudioangle>false</activeaudioangle>
                    <clip id="clip-6"/>
                  </angle>
                  <angle>
                    <activevideoangle>true</activevideoangle>
                    <activeaudioangle>true</activeaudioangle>
                    <clip id="clip-7"/>
                  </angle>
                  <angle>
                    <activevideoangle>false</activevideoangle>
                    <activeaudioangle>false</activeaudioangle>
                    <clip id="clip-8"/>
                  </angle>
                  <angle>
                    <activevideoangle>false</activevideoangle>
                    <activeaudioangle>false</activeaudioangle>
                    <clip id="clip-9"/>
                  </angle>
                  <masterclipid>clip-master</masterclipid>
                </multiclip>
              </clipitem>
              <clipitem id="cs-583">
                <duration>62</duration>
                <rate>
                  <ntsc>false</ntsc>
                  <timebase>25</timebase>
                </rate>
                <in>32123</in>
                <out>32184</out>
                <start>32123</start>
                <end>32184</end>
                <file id="src-5"/>
                <sourcetrack>
                  <mediatype>video</mediatype>
                  <trackindex>1</trackindex>
                </sourcetrack>
                <multiclip id="mcs-583">
                  <name>MCS-583</name>
                  <masterclipid>clip-master</masterclipid>
                  <collapsed>false</collapsed>
                  <angle>
                    <activevideoangle>false</activevideoangle>
                    <activeaudioangle>false</activeaudioangle>
                    <clip id="clip-1"/>
                  </angle>
                  <angle>
                    <activevideoangle>false</activevideoangle>
                    <activeaudioangle>false</activeaudioangle>
                    <clip id="clip-2"/>
                  </angle>
                  <angle>
                    <activevideoangle>false</activevideoangle>
                    <activeaudioangle>false</activeaudioangle>
                    <clip id="clip-3"/>
                  </angle>
                  <angle>
                    <activevideoangle>false</activevideoangle>
                    <activeaudioangle>false</activeaudioangle>
                    <clip id="clip-4"/>
                  </angle>
                  <angle>
                    <activevideoangle>true</activevideoangle>
                    <activeaudioangle>true</activeaudioangle>
                    <clip id="clip-5"/>
                  </angle>
                  <angle>
                    <activevideoangle>false</activevideoangle>
                    <activeaudioangle>false</activeaudioangle>
                    <clip id="clip-6"/>
                  </angle>
                  <angle>
                    <activevideoangle>false</activevideoangle>
                    <activeaudioangle>false</activeaudioangle>
                    <clip id="clip-7"/>
                  </angle>
                  <angle>
                    <activevideoangle>false</activevideoangle>
                    <activeaudioangle>false</activeaudioangle>
                    <clip id="clip-8"/>
                  </angle>
                  <angle>
                    <activevideoangle>false</activevideoangle>
                    <activeaudioangle>false</activeaudioangle>
                    <clip id="clip-9"/>
                  </angle>
                  <masterclipid>clip-master</masterclipid>
                </multiclip>
              </clipitem>
              <clipitem id="cs-584">
                <duration>53</duration>
                <rate>
                  <ntsc>false</ntsc>
                  <timebase>25</timebase>
                </rate>
                <in>32184</in>
                <out>32236</out>
                <start>32184</start>
                <end>32236</end>
                <file id="src-2"/>
                <sourcetrack>
                  <mediatype>video</mediatype>
                  <trackindex>1</trackindex>
                </sourcetrack>
                <multiclip id="mcs-584">
                  <name>MCS-584</name>
                  <masterclipid>clip-master</masterclipid>
                  <collapsed>false</collapsed>
                  <angle>
                    <activevideoangle>false</activevideoangle>
                    <activeaudioangle>false</activeaudioangle>
                    <clip id="clip-1"/>
                  </angle>
                  <angle>
                    <activevideoangle>true</activevideoangle>
                    <activeaudioangle>true</activeaudioangle>
                    <clip id="clip-2"/>
                  </angle>
                  <angle>
                    <activevideoangle>false</activevideoangle>
                    <activeaudioangle>false</activeaudioangle>
                    <clip id="clip-3"/>
                  </angle>
                  <angle>
                    <activevideoangle>false</activevideoangle>
                    <activeaudioangle>false</activeaudioangle>
                    <clip id="clip-4"/>
                  </angle>
                  <angle>
                    <activevideoangle>false</activevideoangle>
                    <activeaudioangle>false</activeaudioangle>
                    <clip id="clip-5"/>
                  </angle>
                  <angle>
                    <activevideoangle>false</activevideoangle>
                    <activeaudioangle>false</activeaudioangle>
                    <clip id="clip-6"/>
                  </angle>
                  <angle>
                    <activevideoangle>false</activevideoangle>
                    <activeaudioangle>false</activeaudioangle>
                    <clip id="clip-7"/>
                  </angle>
                  <angle>
                    <activevideoangle>false</activevideoangle>
                    <activeaudioangle>false</activeaudioangle>
                    <clip id="clip-8"/>
                  </angle>
                  <angle>
                    <activevideoangle>false</activevideoangle>
                    <activeaudioangle>false</activeaudioangle>
                    <clip id="clip-9"/>
                  </angle>
                  <masterclipid>clip-master</masterclipid>
                </multiclip>
              </clipitem>
              <clipitem id="cs-585">
                <duration>373</duration>
                <rate>
                  <ntsc>false</ntsc>
                  <timebase>25</timebase>
                </rate>
                <in>32236</in>
                <out>32608</out>
                <start>32236</start>
                <end>32608</end>
                <file id="src-3"/>
                <sourcetrack>
                  <mediatype>video</mediatype>
                  <trackindex>1</trackindex>
                </sourcetrack>
                <multiclip id="mcs-585">
                  <name>MCS-585</name>
                  <masterclipid>clip-master</masterclipid>
                  <collapsed>false</collapsed>
                  <angle>
                    <activevideoangle>false</activevideoangle>
                    <activeaudioangle>false</activeaudioangle>
                    <clip id="clip-1"/>
                  </angle>
                  <angle>
                    <activevideoangle>false</activevideoangle>
                    <activeaudioangle>false</activeaudioangle>
                    <clip id="clip-2"/>
                  </angle>
                  <angle>
                    <activevideoangle>true</activevideoangle>
                    <activeaudioangle>true</activeaudioangle>
                    <clip id="clip-3"/>
                  </angle>
                  <angle>
                    <activevideoangle>false</activevideoangle>
                    <activeaudioangle>false</activeaudioangle>
                    <clip id="clip-4"/>
                  </angle>
                  <angle>
                    <activevideoangle>false</activevideoangle>
                    <activeaudioangle>false</activeaudioangle>
                    <clip id="clip-5"/>
                  </angle>
                  <angle>
                    <activevideoangle>false</activevideoangle>
                    <activeaudioangle>false</activeaudioangle>
                    <clip id="clip-6"/>
                  </angle>
                  <angle>
                    <activevideoangle>false</activevideoangle>
                    <activeaudioangle>false</activeaudioangle>
                    <clip id="clip-7"/>
                  </angle>
                  <angle>
                    <activevideoangle>false</activevideoangle>
                    <activeaudioangle>false</activeaudioangle>
                    <clip id="clip-8"/>
                  </angle>
                  <angle>
                    <activevideoangle>false</activevideoangle>
                    <activeaudioangle>false</activeaudioangle>
                    <clip id="clip-9"/>
                  </angle>
                  <masterclipid>clip-master</masterclipid>
                </multiclip>
              </clipitem>
              <clipitem id="cs-586">
                <duration>143</duration>
                <rate>
                  <ntsc>false</ntsc>
                  <timebase>25</timebase>
                </rate>
                <in>32608</in>
                <out>32750</out>
                <start>32608</start>
                <end>32750</end>
                <file id="src-6"/>
                <sourcetrack>
                  <mediatype>video</mediatype>
                  <trackindex>1</trackindex>
                </sourcetrack>
                <multiclip id="mcs-586">
                  <name>MCS-586</name>
                  <masterclipid>clip-master</masterclipid>
                  <collapsed>false</collapsed>
                  <angle>
                    <activevideoangle>false</activevideoangle>
                    <activeaudioangle>false</activeaudioangle>
                    <clip id="clip-1"/>
                  </angle>
                  <angle>
                    <activevideoangle>false</activevideoangle>
                    <activeaudioangle>false</activeaudioangle>
                    <clip id="clip-2"/>
                  </angle>
                  <angle>
                    <activevideoangle>false</activevideoangle>
                    <activeaudioangle>false</activeaudioangle>
                    <clip id="clip-3"/>
                  </angle>
                  <angle>
                    <activevideoangle>false</activevideoangle>
                    <activeaudioangle>false</activeaudioangle>
                    <clip id="clip-4"/>
                  </angle>
                  <angle>
                    <activevideoangle>false</activevideoangle>
                    <activeaudioangle>false</activeaudioangle>
                    <clip id="clip-5"/>
                  </angle>
                  <angle>
                    <activevideoangle>true</activevideoangle>
                    <activeaudioangle>true</activeaudioangle>
                    <clip id="clip-6"/>
                  </angle>
                  <angle>
                    <activevideoangle>false</activevideoangle>
                    <activeaudioangle>false</activeaudioangle>
                    <clip id="clip-7"/>
                  </angle>
                  <angle>
                    <activevideoangle>false</activevideoangle>
                    <activeaudioangle>false</activeaudioangle>
                    <clip id="clip-8"/>
                  </angle>
                  <angle>
                    <activevideoangle>false</activevideoangle>
                    <activeaudioangle>false</activeaudioangle>
                    <clip id="clip-9"/>
                  </angle>
                  <masterclipid>clip-master</masterclipid>
                </multiclip>
              </clipitem>
              <clipitem id="cs-587">
                <duration>111</duration>
                <rate>
                  <ntsc>false</ntsc>
                  <timebase>25</timebase>
                </rate>
                <in>32750</in>
                <out>32860</out>
                <start>32750</start>
                <end>32860</end>
                <file id="src-3"/>
                <sourcetrack>
                  <mediatype>video</mediatype>
                  <trackindex>1</trackindex>
                </sourcetrack>
                <multiclip id="mcs-587">
                  <name>MCS-587</name>
                  <masterclipid>clip-master</masterclipid>
                  <collapsed>false</collapsed>
                  <angle>
                    <activevideoangle>false</activevideoangle>
                    <activeaudioangle>false</activeaudioangle>
                    <clip id="clip-1"/>
                  </angle>
                  <angle>
                    <activevideoangle>false</activevideoangle>
                    <activeaudioangle>false</activeaudioangle>
                    <clip id="clip-2"/>
                  </angle>
                  <angle>
                    <activevideoangle>true</activevideoangle>
                    <activeaudioangle>true</activeaudioangle>
                    <clip id="clip-3"/>
                  </angle>
                  <angle>
                    <activevideoangle>false</activevideoangle>
                    <activeaudioangle>false</activeaudioangle>
                    <clip id="clip-4"/>
                  </angle>
                  <angle>
                    <activevideoangle>false</activevideoangle>
                    <activeaudioangle>false</activeaudioangle>
                    <clip id="clip-5"/>
                  </angle>
                  <angle>
                    <activevideoangle>false</activevideoangle>
                    <activeaudioangle>false</activeaudioangle>
                    <clip id="clip-6"/>
                  </angle>
                  <angle>
                    <activevideoangle>false</activevideoangle>
                    <activeaudioangle>false</activeaudioangle>
                    <clip id="clip-7"/>
                  </angle>
                  <angle>
                    <activevideoangle>false</activevideoangle>
                    <activeaudioangle>false</activeaudioangle>
                    <clip id="clip-8"/>
                  </angle>
                  <angle>
                    <activevideoangle>false</activevideoangle>
                    <activeaudioangle>false</activeaudioangle>
                    <clip id="clip-9"/>
                  </angle>
                  <masterclipid>clip-master</masterclipid>
                </multiclip>
              </clipitem>
              <clipitem id="cs-588">
                <duration>113</duration>
                <rate>
                  <ntsc>false</ntsc>
                  <timebase>25</timebase>
                </rate>
                <in>32860</in>
                <out>32972</out>
                <start>32860</start>
                <end>32972</end>
                <file id="src-2"/>
                <sourcetrack>
                  <mediatype>video</mediatype>
                  <trackindex>1</trackindex>
                </sourcetrack>
                <multiclip id="mcs-588">
                  <name>MCS-588</name>
                  <masterclipid>clip-master</masterclipid>
                  <collapsed>false</collapsed>
                  <angle>
                    <activevideoangle>false</activevideoangle>
                    <activeaudioangle>false</activeaudioangle>
                    <clip id="clip-1"/>
                  </angle>
                  <angle>
                    <activevideoangle>true</activevideoangle>
                    <activeaudioangle>true</activeaudioangle>
                    <clip id="clip-2"/>
                  </angle>
                  <angle>
                    <activevideoangle>false</activevideoangle>
                    <activeaudioangle>false</activeaudioangle>
                    <clip id="clip-3"/>
                  </angle>
                  <angle>
                    <activevideoangle>false</activevideoangle>
                    <activeaudioangle>false</activeaudioangle>
                    <clip id="clip-4"/>
                  </angle>
                  <angle>
                    <activevideoangle>false</activevideoangle>
                    <activeaudioangle>false</activeaudioangle>
                    <clip id="clip-5"/>
                  </angle>
                  <angle>
                    <activevideoangle>false</activevideoangle>
                    <activeaudioangle>false</activeaudioangle>
                    <clip id="clip-6"/>
                  </angle>
                  <angle>
                    <activevideoangle>false</activevideoangle>
                    <activeaudioangle>false</activeaudioangle>
                    <clip id="clip-7"/>
                  </angle>
                  <angle>
                    <activevideoangle>false</activevideoangle>
                    <activeaudioangle>false</activeaudioangle>
                    <clip id="clip-8"/>
                  </angle>
                  <angle>
                    <activevideoangle>false</activevideoangle>
                    <activeaudioangle>false</activeaudioangle>
                    <clip id="clip-9"/>
                  </angle>
                  <masterclipid>clip-master</masterclipid>
                </multiclip>
              </clipitem>
              <clipitem id="cs-589">
                <duration>164</duration>
                <rate>
                  <ntsc>false</ntsc>
                  <timebase>25</timebase>
                </rate>
                <in>32972</in>
                <out>33135</out>
                <start>32972</start>
                <end>33135</end>
                <file id="src-5"/>
                <sourcetrack>
                  <mediatype>video</mediatype>
                  <trackindex>1</trackindex>
                </sourcetrack>
                <multiclip id="mcs-589">
                  <name>MCS-589</name>
                  <masterclipid>clip-master</masterclipid>
                  <collapsed>false</collapsed>
                  <angle>
                    <activevideoangle>false</activevideoangle>
                    <activeaudioangle>false</activeaudioangle>
                    <clip id="clip-1"/>
                  </angle>
                  <angle>
                    <activevideoangle>false</activevideoangle>
                    <activeaudioangle>false</activeaudioangle>
                    <clip id="clip-2"/>
                  </angle>
                  <angle>
                    <activevideoangle>false</activevideoangle>
                    <activeaudioangle>false</activeaudioangle>
                    <clip id="clip-3"/>
                  </angle>
                  <angle>
                    <activevideoangle>false</activevideoangle>
                    <activeaudioangle>false</activeaudioangle>
                    <clip id="clip-4"/>
                  </angle>
                  <angle>
                    <activevideoangle>true</activevideoangle>
                    <activeaudioangle>true</activeaudioangle>
                    <clip id="clip-5"/>
                  </angle>
                  <angle>
                    <activevideoangle>false</activevideoangle>
                    <activeaudioangle>false</activeaudioangle>
                    <clip id="clip-6"/>
                  </angle>
                  <angle>
                    <activevideoangle>false</activevideoangle>
                    <activeaudioangle>false</activeaudioangle>
                    <clip id="clip-7"/>
                  </angle>
                  <angle>
                    <activevideoangle>false</activevideoangle>
                    <activeaudioangle>false</activeaudioangle>
                    <clip id="clip-8"/>
                  </angle>
                  <angle>
                    <activevideoangle>false</activevideoangle>
                    <activeaudioangle>false</activeaudioangle>
                    <clip id="clip-9"/>
                  </angle>
                  <masterclipid>clip-master</masterclipid>
                </multiclip>
              </clipitem>
              <clipitem id="cs-590">
                <duration>123</duration>
                <rate>
                  <ntsc>false</ntsc>
                  <timebase>25</timebase>
                </rate>
                <in>33135</in>
                <out>33257</out>
                <start>33135</start>
                <end>33257</end>
                <file id="src-7"/>
                <sourcetrack>
                  <mediatype>video</mediatype>
                  <trackindex>1</trackindex>
                </sourcetrack>
                <multiclip id="mcs-590">
                  <name>MCS-590</name>
                  <masterclipid>clip-master</masterclipid>
                  <collapsed>false</collapsed>
                  <angle>
                    <activevideoangle>false</activevideoangle>
                    <activeaudioangle>false</activeaudioangle>
                    <clip id="clip-1"/>
                  </angle>
                  <angle>
                    <activevideoangle>false</activevideoangle>
                    <activeaudioangle>false</activeaudioangle>
                    <clip id="clip-2"/>
                  </angle>
                  <angle>
                    <activevideoangle>false</activevideoangle>
                    <activeaudioangle>false</activeaudioangle>
                    <clip id="clip-3"/>
                  </angle>
                  <angle>
                    <activevideoangle>false</activevideoangle>
                    <activeaudioangle>false</activeaudioangle>
                    <clip id="clip-4"/>
                  </angle>
                  <angle>
                    <activevideoangle>false</activevideoangle>
                    <activeaudioangle>false</activeaudioangle>
                    <clip id="clip-5"/>
                  </angle>
                  <angle>
                    <activevideoangle>false</activevideoangle>
                    <activeaudioangle>false</activeaudioangle>
                    <clip id="clip-6"/>
                  </angle>
                  <angle>
                    <activevideoangle>true</activevideoangle>
                    <activeaudioangle>true</activeaudioangle>
                    <clip id="clip-7"/>
                  </angle>
                  <angle>
                    <activevideoangle>false</activevideoangle>
                    <activeaudioangle>false</activeaudioangle>
                    <clip id="clip-8"/>
                  </angle>
                  <angle>
                    <activevideoangle>false</activevideoangle>
                    <activeaudioangle>false</activeaudioangle>
                    <clip id="clip-9"/>
                  </angle>
                  <masterclipid>clip-master</masterclipid>
                </multiclip>
              </clipitem>
              <clipitem id="cs-591">
                <duration>66</duration>
                <rate>
                  <ntsc>false</ntsc>
                  <timebase>25</timebase>
                </rate>
                <in>33257</in>
                <out>33322</out>
                <start>33257</start>
                <end>33322</end>
                <file id="src-2"/>
                <sourcetrack>
                  <mediatype>video</mediatype>
                  <trackindex>1</trackindex>
                </sourcetrack>
                <multiclip id="mcs-591">
                  <name>MCS-591</name>
                  <masterclipid>clip-master</masterclipid>
                  <collapsed>false</collapsed>
                  <angle>
                    <activevideoangle>false</activevideoangle>
                    <activeaudioangle>false</activeaudioangle>
                    <clip id="clip-1"/>
                  </angle>
                  <angle>
                    <activevideoangle>true</activevideoangle>
                    <activeaudioangle>true</activeaudioangle>
                    <clip id="clip-2"/>
                  </angle>
                  <angle>
                    <activevideoangle>false</activevideoangle>
                    <activeaudioangle>false</activeaudioangle>
                    <clip id="clip-3"/>
                  </angle>
                  <angle>
                    <activevideoangle>false</activevideoangle>
                    <activeaudioangle>false</activeaudioangle>
                    <clip id="clip-4"/>
                  </angle>
                  <angle>
                    <activevideoangle>false</activevideoangle>
                    <activeaudioangle>false</activeaudioangle>
                    <clip id="clip-5"/>
                  </angle>
                  <angle>
                    <activevideoangle>false</activevideoangle>
                    <activeaudioangle>false</activeaudioangle>
                    <clip id="clip-6"/>
                  </angle>
                  <angle>
                    <activevideoangle>false</activevideoangle>
                    <activeaudioangle>false</activeaudioangle>
                    <clip id="clip-7"/>
                  </angle>
                  <angle>
                    <activevideoangle>false</activevideoangle>
                    <activeaudioangle>false</activeaudioangle>
                    <clip id="clip-8"/>
                  </angle>
                  <angle>
                    <activevideoangle>false</activevideoangle>
                    <activeaudioangle>false</activeaudioangle>
                    <clip id="clip-9"/>
                  </angle>
                  <masterclipid>clip-master</masterclipid>
                </multiclip>
              </clipitem>
              <clipitem id="cs-592">
                <duration>113</duration>
                <rate>
                  <ntsc>false</ntsc>
                  <timebase>25</timebase>
                </rate>
                <in>33322</in>
                <out>33434</out>
                <start>33322</start>
                <end>33434</end>
                <file id="src-3"/>
                <sourcetrack>
                  <mediatype>video</mediatype>
                  <trackindex>1</trackindex>
                </sourcetrack>
                <multiclip id="mcs-592">
                  <name>MCS-592</name>
                  <masterclipid>clip-master</masterclipid>
                  <collapsed>false</collapsed>
                  <angle>
                    <activevideoangle>false</activevideoangle>
                    <activeaudioangle>false</activeaudioangle>
                    <clip id="clip-1"/>
                  </angle>
                  <angle>
                    <activevideoangle>false</activevideoangle>
                    <activeaudioangle>false</activeaudioangle>
                    <clip id="clip-2"/>
                  </angle>
                  <angle>
                    <activevideoangle>true</activevideoangle>
                    <activeaudioangle>true</activeaudioangle>
                    <clip id="clip-3"/>
                  </angle>
                  <angle>
                    <activevideoangle>false</activevideoangle>
                    <activeaudioangle>false</activeaudioangle>
                    <clip id="clip-4"/>
                  </angle>
                  <angle>
                    <activevideoangle>false</activevideoangle>
                    <activeaudioangle>false</activeaudioangle>
                    <clip id="clip-5"/>
                  </angle>
                  <angle>
                    <activevideoangle>false</activevideoangle>
                    <activeaudioangle>false</activeaudioangle>
                    <clip id="clip-6"/>
                  </angle>
                  <angle>
                    <activevideoangle>false</activevideoangle>
                    <activeaudioangle>false</activeaudioangle>
                    <clip id="clip-7"/>
                  </angle>
                  <angle>
                    <activevideoangle>false</activevideoangle>
                    <activeaudioangle>false</activeaudioangle>
                    <clip id="clip-8"/>
                  </angle>
                  <angle>
                    <activevideoangle>false</activevideoangle>
                    <activeaudioangle>false</activeaudioangle>
                    <clip id="clip-9"/>
                  </angle>
                  <masterclipid>clip-master</masterclipid>
                </multiclip>
              </clipitem>
              <clipitem id="cs-593">
                <duration>75</duration>
                <rate>
                  <ntsc>false</ntsc>
                  <timebase>25</timebase>
                </rate>
                <in>33434</in>
                <out>33508</out>
                <start>33434</start>
                <end>33508</end>
                <file id="src-5"/>
                <sourcetrack>
                  <mediatype>video</mediatype>
                  <trackindex>1</trackindex>
                </sourcetrack>
                <multiclip id="mcs-593">
                  <name>MCS-593</name>
                  <masterclipid>clip-master</masterclipid>
                  <collapsed>false</collapsed>
                  <angle>
                    <activevideoangle>false</activevideoangle>
                    <activeaudioangle>false</activeaudioangle>
                    <clip id="clip-1"/>
                  </angle>
                  <angle>
                    <activevideoangle>false</activevideoangle>
                    <activeaudioangle>false</activeaudioangle>
                    <clip id="clip-2"/>
                  </angle>
                  <angle>
                    <activevideoangle>false</activevideoangle>
                    <activeaudioangle>false</activeaudioangle>
                    <clip id="clip-3"/>
                  </angle>
                  <angle>
                    <activevideoangle>false</activevideoangle>
                    <activeaudioangle>false</activeaudioangle>
                    <clip id="clip-4"/>
                  </angle>
                  <angle>
                    <activevideoangle>true</activevideoangle>
                    <activeaudioangle>true</activeaudioangle>
                    <clip id="clip-5"/>
                  </angle>
                  <angle>
                    <activevideoangle>false</activevideoangle>
                    <activeaudioangle>false</activeaudioangle>
                    <clip id="clip-6"/>
                  </angle>
                  <angle>
                    <activevideoangle>false</activevideoangle>
                    <activeaudioangle>false</activeaudioangle>
                    <clip id="clip-7"/>
                  </angle>
                  <angle>
                    <activevideoangle>false</activevideoangle>
                    <activeaudioangle>false</activeaudioangle>
                    <clip id="clip-8"/>
                  </angle>
                  <angle>
                    <activevideoangle>false</activevideoangle>
                    <activeaudioangle>false</activeaudioangle>
                    <clip id="clip-9"/>
                  </angle>
                  <masterclipid>clip-master</masterclipid>
                </multiclip>
              </clipitem>
              <clipitem id="cs-594">
                <duration>43</duration>
                <rate>
                  <ntsc>false</ntsc>
                  <timebase>25</timebase>
                </rate>
                <in>33508</in>
                <out>33550</out>
                <start>33508</start>
                <end>33550</end>
                <file id="src-2"/>
                <sourcetrack>
                  <mediatype>video</mediatype>
                  <trackindex>1</trackindex>
                </sourcetrack>
                <multiclip id="mcs-594">
                  <name>MCS-594</name>
                  <masterclipid>clip-master</masterclipid>
                  <collapsed>false</collapsed>
                  <angle>
                    <activevideoangle>false</activevideoangle>
                    <activeaudioangle>false</activeaudioangle>
                    <clip id="clip-1"/>
                  </angle>
                  <angle>
                    <activevideoangle>true</activevideoangle>
                    <activeaudioangle>true</activeaudioangle>
                    <clip id="clip-2"/>
                  </angle>
                  <angle>
                    <activevideoangle>false</activevideoangle>
                    <activeaudioangle>false</activeaudioangle>
                    <clip id="clip-3"/>
                  </angle>
                  <angle>
                    <activevideoangle>false</activevideoangle>
                    <activeaudioangle>false</activeaudioangle>
                    <clip id="clip-4"/>
                  </angle>
                  <angle>
                    <activevideoangle>false</activevideoangle>
                    <activeaudioangle>false</activeaudioangle>
                    <clip id="clip-5"/>
                  </angle>
                  <angle>
                    <activevideoangle>false</activevideoangle>
                    <activeaudioangle>false</activeaudioangle>
                    <clip id="clip-6"/>
                  </angle>
                  <angle>
                    <activevideoangle>false</activevideoangle>
                    <activeaudioangle>false</activeaudioangle>
                    <clip id="clip-7"/>
                  </angle>
                  <angle>
                    <activevideoangle>false</activevideoangle>
                    <activeaudioangle>false</activeaudioangle>
                    <clip id="clip-8"/>
                  </angle>
                  <angle>
                    <activevideoangle>false</activevideoangle>
                    <activeaudioangle>false</activeaudioangle>
                    <clip id="clip-9"/>
                  </angle>
                  <masterclipid>clip-master</masterclipid>
                </multiclip>
              </clipitem>
              <clipitem id="cs-595">
                <duration>178</duration>
                <rate>
                  <ntsc>false</ntsc>
                  <timebase>25</timebase>
                </rate>
                <in>33550</in>
                <out>33727</out>
                <start>33550</start>
                <end>33727</end>
                <file id="src-4"/>
                <sourcetrack>
                  <mediatype>video</mediatype>
                  <trackindex>1</trackindex>
                </sourcetrack>
                <multiclip id="mcs-595">
                  <name>MCS-595</name>
                  <masterclipid>clip-master</masterclipid>
                  <collapsed>false</collapsed>
                  <angle>
                    <activevideoangle>false</activevideoangle>
                    <activeaudioangle>false</activeaudioangle>
                    <clip id="clip-1"/>
                  </angle>
                  <angle>
                    <activevideoangle>false</activevideoangle>
                    <activeaudioangle>false</activeaudioangle>
                    <clip id="clip-2"/>
                  </angle>
                  <angle>
                    <activevideoangle>false</activevideoangle>
                    <activeaudioangle>false</activeaudioangle>
                    <clip id="clip-3"/>
                  </angle>
                  <angle>
                    <activevideoangle>true</activevideoangle>
                    <activeaudioangle>true</activeaudioangle>
                    <clip id="clip-4"/>
                  </angle>
                  <angle>
                    <activevideoangle>false</activevideoangle>
                    <activeaudioangle>false</activeaudioangle>
                    <clip id="clip-5"/>
                  </angle>
                  <angle>
                    <activevideoangle>false</activevideoangle>
                    <activeaudioangle>false</activeaudioangle>
                    <clip id="clip-6"/>
                  </angle>
                  <angle>
                    <activevideoangle>false</activevideoangle>
                    <activeaudioangle>false</activeaudioangle>
                    <clip id="clip-7"/>
                  </angle>
                  <angle>
                    <activevideoangle>false</activevideoangle>
                    <activeaudioangle>false</activeaudioangle>
                    <clip id="clip-8"/>
                  </angle>
                  <angle>
                    <activevideoangle>false</activevideoangle>
                    <activeaudioangle>false</activeaudioangle>
                    <clip id="clip-9"/>
                  </angle>
                  <masterclipid>clip-master</masterclipid>
                </multiclip>
              </clipitem>
              <clipitem id="cs-596">
                <duration>80</duration>
                <rate>
                  <ntsc>false</ntsc>
                  <timebase>25</timebase>
                </rate>
                <in>33727</in>
                <out>33806</out>
                <start>33727</start>
                <end>33806</end>
                <file id="src-3"/>
                <sourcetrack>
                  <mediatype>video</mediatype>
                  <trackindex>1</trackindex>
                </sourcetrack>
                <multiclip id="mcs-596">
                  <name>MCS-596</name>
                  <masterclipid>clip-master</masterclipid>
                  <collapsed>false</collapsed>
                  <angle>
                    <activevideoangle>false</activevideoangle>
                    <activeaudioangle>false</activeaudioangle>
                    <clip id="clip-1"/>
                  </angle>
                  <angle>
                    <activevideoangle>false</activevideoangle>
                    <activeaudioangle>false</activeaudioangle>
                    <clip id="clip-2"/>
                  </angle>
                  <angle>
                    <activevideoangle>true</activevideoangle>
                    <activeaudioangle>true</activeaudioangle>
                    <clip id="clip-3"/>
                  </angle>
                  <angle>
                    <activevideoangle>false</activevideoangle>
                    <activeaudioangle>false</activeaudioangle>
                    <clip id="clip-4"/>
                  </angle>
                  <angle>
                    <activevideoangle>false</activevideoangle>
                    <activeaudioangle>false</activeaudioangle>
                    <clip id="clip-5"/>
                  </angle>
                  <angle>
                    <activevideoangle>false</activevideoangle>
                    <activeaudioangle>false</activeaudioangle>
                    <clip id="clip-6"/>
                  </angle>
                  <angle>
                    <activevideoangle>false</activevideoangle>
                    <activeaudioangle>false</activeaudioangle>
                    <clip id="clip-7"/>
                  </angle>
                  <angle>
                    <activevideoangle>false</activevideoangle>
                    <activeaudioangle>false</activeaudioangle>
                    <clip id="clip-8"/>
                  </angle>
                  <angle>
                    <activevideoangle>false</activevideoangle>
                    <activeaudioangle>false</activeaudioangle>
                    <clip id="clip-9"/>
                  </angle>
                  <masterclipid>clip-master</masterclipid>
                </multiclip>
              </clipitem>
              <clipitem id="cs-597">
                <duration>123</duration>
                <rate>
                  <ntsc>false</ntsc>
                  <timebase>25</timebase>
                </rate>
                <in>33806</in>
                <out>33928</out>
                <start>33806</start>
                <end>33928</end>
                <file id="src-6"/>
                <sourcetrack>
                  <mediatype>video</mediatype>
                  <trackindex>1</trackindex>
                </sourcetrack>
                <multiclip id="mcs-597">
                  <name>MCS-597</name>
                  <masterclipid>clip-master</masterclipid>
                  <collapsed>false</collapsed>
                  <angle>
                    <activevideoangle>false</activevideoangle>
                    <activeaudioangle>false</activeaudioangle>
                    <clip id="clip-1"/>
                  </angle>
                  <angle>
                    <activevideoangle>false</activevideoangle>
                    <activeaudioangle>false</activeaudioangle>
                    <clip id="clip-2"/>
                  </angle>
                  <angle>
                    <activevideoangle>false</activevideoangle>
                    <activeaudioangle>false</activeaudioangle>
                    <clip id="clip-3"/>
                  </angle>
                  <angle>
                    <activevideoangle>false</activevideoangle>
                    <activeaudioangle>false</activeaudioangle>
                    <clip id="clip-4"/>
                  </angle>
                  <angle>
                    <activevideoangle>false</activevideoangle>
                    <activeaudioangle>false</activeaudioangle>
                    <clip id="clip-5"/>
                  </angle>
                  <angle>
                    <activevideoangle>true</activevideoangle>
                    <activeaudioangle>true</activeaudioangle>
                    <clip id="clip-6"/>
                  </angle>
                  <angle>
                    <activevideoangle>false</activevideoangle>
                    <activeaudioangle>false</activeaudioangle>
                    <clip id="clip-7"/>
                  </angle>
                  <angle>
                    <activevideoangle>false</activevideoangle>
                    <activeaudioangle>false</activeaudioangle>
                    <clip id="clip-8"/>
                  </angle>
                  <angle>
                    <activevideoangle>false</activevideoangle>
                    <activeaudioangle>false</activeaudioangle>
                    <clip id="clip-9"/>
                  </angle>
                  <masterclipid>clip-master</masterclipid>
                </multiclip>
              </clipitem>
              <clipitem id="cs-598">
                <duration>326</duration>
                <rate>
                  <ntsc>false</ntsc>
                  <timebase>25</timebase>
                </rate>
                <in>33928</in>
                <out>34253</out>
                <start>33928</start>
                <end>34253</end>
                <file id="src-4"/>
                <sourcetrack>
                  <mediatype>video</mediatype>
                  <trackindex>1</trackindex>
                </sourcetrack>
                <multiclip id="mcs-598">
                  <name>MCS-598</name>
                  <masterclipid>clip-master</masterclipid>
                  <collapsed>false</collapsed>
                  <angle>
                    <activevideoangle>false</activevideoangle>
                    <activeaudioangle>false</activeaudioangle>
                    <clip id="clip-1"/>
                  </angle>
                  <angle>
                    <activevideoangle>false</activevideoangle>
                    <activeaudioangle>false</activeaudioangle>
                    <clip id="clip-2"/>
                  </angle>
                  <angle>
                    <activevideoangle>false</activevideoangle>
                    <activeaudioangle>false</activeaudioangle>
                    <clip id="clip-3"/>
                  </angle>
                  <angle>
                    <activevideoangle>true</activevideoangle>
                    <activeaudioangle>true</activeaudioangle>
                    <clip id="clip-4"/>
                  </angle>
                  <angle>
                    <activevideoangle>false</activevideoangle>
                    <activeaudioangle>false</activeaudioangle>
                    <clip id="clip-5"/>
                  </angle>
                  <angle>
                    <activevideoangle>false</activevideoangle>
                    <activeaudioangle>false</activeaudioangle>
                    <clip id="clip-6"/>
                  </angle>
                  <angle>
                    <activevideoangle>false</activevideoangle>
                    <activeaudioangle>false</activeaudioangle>
                    <clip id="clip-7"/>
                  </angle>
                  <angle>
                    <activevideoangle>false</activevideoangle>
                    <activeaudioangle>false</activeaudioangle>
                    <clip id="clip-8"/>
                  </angle>
                  <angle>
                    <activevideoangle>false</activevideoangle>
                    <activeaudioangle>false</activeaudioangle>
                    <clip id="clip-9"/>
                  </angle>
                  <masterclipid>clip-master</masterclipid>
                </multiclip>
              </clipitem>
              <clipitem id="cs-599">
                <duration>199</duration>
                <rate>
                  <ntsc>false</ntsc>
                  <timebase>25</timebase>
                </rate>
                <in>34253</in>
                <out>34451</out>
                <start>34253</start>
                <end>34451</end>
                <file id="src-3"/>
                <sourcetrack>
                  <mediatype>video</mediatype>
                  <trackindex>1</trackindex>
                </sourcetrack>
                <multiclip id="mcs-599">
                  <name>MCS-599</name>
                  <masterclipid>clip-master</masterclipid>
                  <collapsed>false</collapsed>
                  <angle>
                    <activevideoangle>false</activevideoangle>
                    <activeaudioangle>false</activeaudioangle>
                    <clip id="clip-1"/>
                  </angle>
                  <angle>
                    <activevideoangle>false</activevideoangle>
                    <activeaudioangle>false</activeaudioangle>
                    <clip id="clip-2"/>
                  </angle>
                  <angle>
                    <activevideoangle>true</activevideoangle>
                    <activeaudioangle>true</activeaudioangle>
                    <clip id="clip-3"/>
                  </angle>
                  <angle>
                    <activevideoangle>false</activevideoangle>
                    <activeaudioangle>false</activeaudioangle>
                    <clip id="clip-4"/>
                  </angle>
                  <angle>
                    <activevideoangle>false</activevideoangle>
                    <activeaudioangle>false</activeaudioangle>
                    <clip id="clip-5"/>
                  </angle>
                  <angle>
                    <activevideoangle>false</activevideoangle>
                    <activeaudioangle>false</activeaudioangle>
                    <clip id="clip-6"/>
                  </angle>
                  <angle>
                    <activevideoangle>false</activevideoangle>
                    <activeaudioangle>false</activeaudioangle>
                    <clip id="clip-7"/>
                  </angle>
                  <angle>
                    <activevideoangle>false</activevideoangle>
                    <activeaudioangle>false</activeaudioangle>
                    <clip id="clip-8"/>
                  </angle>
                  <angle>
                    <activevideoangle>false</activevideoangle>
                    <activeaudioangle>false</activeaudioangle>
                    <clip id="clip-9"/>
                  </angle>
                  <masterclipid>clip-master</masterclipid>
                </multiclip>
              </clipitem>
              <clipitem id="cs-600">
                <duration>56</duration>
                <rate>
                  <ntsc>false</ntsc>
                  <timebase>25</timebase>
                </rate>
                <in>34451</in>
                <out>34506</out>
                <start>34451</start>
                <end>34506</end>
                <file id="src-2"/>
                <sourcetrack>
                  <mediatype>video</mediatype>
                  <trackindex>1</trackindex>
                </sourcetrack>
                <multiclip id="mcs-600">
                  <name>MCS-600</name>
                  <masterclipid>clip-master</masterclipid>
                  <collapsed>false</collapsed>
                  <angle>
                    <activevideoangle>false</activevideoangle>
                    <activeaudioangle>false</activeaudioangle>
                    <clip id="clip-1"/>
                  </angle>
                  <angle>
                    <activevideoangle>true</activevideoangle>
                    <activeaudioangle>true</activeaudioangle>
                    <clip id="clip-2"/>
                  </angle>
                  <angle>
                    <activevideoangle>false</activevideoangle>
                    <activeaudioangle>false</activeaudioangle>
                    <clip id="clip-3"/>
                  </angle>
                  <angle>
                    <activevideoangle>false</activevideoangle>
                    <activeaudioangle>false</activeaudioangle>
                    <clip id="clip-4"/>
                  </angle>
                  <angle>
                    <activevideoangle>false</activevideoangle>
                    <activeaudioangle>false</activeaudioangle>
                    <clip id="clip-5"/>
                  </angle>
                  <angle>
                    <activevideoangle>false</activevideoangle>
                    <activeaudioangle>false</activeaudioangle>
                    <clip id="clip-6"/>
                  </angle>
                  <angle>
                    <activevideoangle>false</activevideoangle>
                    <activeaudioangle>false</activeaudioangle>
                    <clip id="clip-7"/>
                  </angle>
                  <angle>
                    <activevideoangle>false</activevideoangle>
                    <activeaudioangle>false</activeaudioangle>
                    <clip id="clip-8"/>
                  </angle>
                  <angle>
                    <activevideoangle>false</activevideoangle>
                    <activeaudioangle>false</activeaudioangle>
                    <clip id="clip-9"/>
                  </angle>
                  <masterclipid>clip-master</masterclipid>
                </multiclip>
              </clipitem>
              <clipitem id="cs-601">
                <duration>82</duration>
                <rate>
                  <ntsc>false</ntsc>
                  <timebase>25</timebase>
                </rate>
                <in>34506</in>
                <out>34587</out>
                <start>34506</start>
                <end>34587</end>
                <file id="src-4"/>
                <sourcetrack>
                  <mediatype>video</mediatype>
                  <trackindex>1</trackindex>
                </sourcetrack>
                <multiclip id="mcs-601">
                  <name>MCS-601</name>
                  <masterclipid>clip-master</masterclipid>
                  <collapsed>false</collapsed>
                  <angle>
                    <activevideoangle>false</activevideoangle>
                    <activeaudioangle>false</activeaudioangle>
                    <clip id="clip-1"/>
                  </angle>
                  <angle>
                    <activevideoangle>false</activevideoangle>
                    <activeaudioangle>false</activeaudioangle>
                    <clip id="clip-2"/>
                  </angle>
                  <angle>
                    <activevideoangle>false</activevideoangle>
                    <activeaudioangle>false</activeaudioangle>
                    <clip id="clip-3"/>
                  </angle>
                  <angle>
                    <activevideoangle>true</activevideoangle>
                    <activeaudioangle>true</activeaudioangle>
                    <clip id="clip-4"/>
                  </angle>
                  <angle>
                    <activevideoangle>false</activevideoangle>
                    <activeaudioangle>false</activeaudioangle>
                    <clip id="clip-5"/>
                  </angle>
                  <angle>
                    <activevideoangle>false</activevideoangle>
                    <activeaudioangle>false</activeaudioangle>
                    <clip id="clip-6"/>
                  </angle>
                  <angle>
                    <activevideoangle>false</activevideoangle>
                    <activeaudioangle>false</activeaudioangle>
                    <clip id="clip-7"/>
                  </angle>
                  <angle>
                    <activevideoangle>false</activevideoangle>
                    <activeaudioangle>false</activeaudioangle>
                    <clip id="clip-8"/>
                  </angle>
                  <angle>
                    <activevideoangle>false</activevideoangle>
                    <activeaudioangle>false</activeaudioangle>
                    <clip id="clip-9"/>
                  </angle>
                  <masterclipid>clip-master</masterclipid>
                </multiclip>
              </clipitem>
              <clipitem id="cs-602">
                <duration>71</duration>
                <rate>
                  <ntsc>false</ntsc>
                  <timebase>25</timebase>
                </rate>
                <in>34587</in>
                <out>34657</out>
                <start>34587</start>
                <end>34657</end>
                <file id="src-5"/>
                <sourcetrack>
                  <mediatype>video</mediatype>
                  <trackindex>1</trackindex>
                </sourcetrack>
                <multiclip id="mcs-602">
                  <name>MCS-602</name>
                  <masterclipid>clip-master</masterclipid>
                  <collapsed>false</collapsed>
                  <angle>
                    <activevideoangle>false</activevideoangle>
                    <activeaudioangle>false</activeaudioangle>
                    <clip id="clip-1"/>
                  </angle>
                  <angle>
                    <activevideoangle>false</activevideoangle>
                    <activeaudioangle>false</activeaudioangle>
                    <clip id="clip-2"/>
                  </angle>
                  <angle>
                    <activevideoangle>false</activevideoangle>
                    <activeaudioangle>false</activeaudioangle>
                    <clip id="clip-3"/>
                  </angle>
                  <angle>
                    <activevideoangle>false</activevideoangle>
                    <activeaudioangle>false</activeaudioangle>
                    <clip id="clip-4"/>
                  </angle>
                  <angle>
                    <activevideoangle>true</activevideoangle>
                    <activeaudioangle>true</activeaudioangle>
                    <clip id="clip-5"/>
                  </angle>
                  <angle>
                    <activevideoangle>false</activevideoangle>
                    <activeaudioangle>false</activeaudioangle>
                    <clip id="clip-6"/>
                  </angle>
                  <angle>
                    <activevideoangle>false</activevideoangle>
                    <activeaudioangle>false</activeaudioangle>
                    <clip id="clip-7"/>
                  </angle>
                  <angle>
                    <activevideoangle>false</activevideoangle>
                    <activeaudioangle>false</activeaudioangle>
                    <clip id="clip-8"/>
                  </angle>
                  <angle>
                    <activevideoangle>false</activevideoangle>
                    <activeaudioangle>false</activeaudioangle>
                    <clip id="clip-9"/>
                  </angle>
                  <masterclipid>clip-master</masterclipid>
                </multiclip>
              </clipitem>
              <clipitem id="cs-603">
                <duration>51</duration>
                <rate>
                  <ntsc>false</ntsc>
                  <timebase>25</timebase>
                </rate>
                <in>34657</in>
                <out>34707</out>
                <start>34657</start>
                <end>34707</end>
                <file id="src-3"/>
                <sourcetrack>
                  <mediatype>video</mediatype>
                  <trackindex>1</trackindex>
                </sourcetrack>
                <multiclip id="mcs-603">
                  <name>MCS-603</name>
                  <masterclipid>clip-master</masterclipid>
                  <collapsed>false</collapsed>
                  <angle>
                    <activevideoangle>false</activevideoangle>
                    <activeaudioangle>false</activeaudioangle>
                    <clip id="clip-1"/>
                  </angle>
                  <angle>
                    <activevideoangle>false</activevideoangle>
                    <activeaudioangle>false</activeaudioangle>
                    <clip id="clip-2"/>
                  </angle>
                  <angle>
                    <activevideoangle>true</activevideoangle>
                    <activeaudioangle>true</activeaudioangle>
                    <clip id="clip-3"/>
                  </angle>
                  <angle>
                    <activevideoangle>false</activevideoangle>
                    <activeaudioangle>false</activeaudioangle>
                    <clip id="clip-4"/>
                  </angle>
                  <angle>
                    <activevideoangle>false</activevideoangle>
                    <activeaudioangle>false</activeaudioangle>
                    <clip id="clip-5"/>
                  </angle>
                  <angle>
                    <activevideoangle>false</activevideoangle>
                    <activeaudioangle>false</activeaudioangle>
                    <clip id="clip-6"/>
                  </angle>
                  <angle>
                    <activevideoangle>false</activevideoangle>
                    <activeaudioangle>false</activeaudioangle>
                    <clip id="clip-7"/>
                  </angle>
                  <angle>
                    <activevideoangle>false</activevideoangle>
                    <activeaudioangle>false</activeaudioangle>
                    <clip id="clip-8"/>
                  </angle>
                  <angle>
                    <activevideoangle>false</activevideoangle>
                    <activeaudioangle>false</activeaudioangle>
                    <clip id="clip-9"/>
                  </angle>
                  <masterclipid>clip-master</masterclipid>
                </multiclip>
              </clipitem>
              <clipitem id="cs-604">
                <duration>38</duration>
                <rate>
                  <ntsc>false</ntsc>
                  <timebase>25</timebase>
                </rate>
                <in>34707</in>
                <out>34744</out>
                <start>34707</start>
                <end>34744</end>
                <file id="src-2"/>
                <sourcetrack>
                  <mediatype>video</mediatype>
                  <trackindex>1</trackindex>
                </sourcetrack>
                <multiclip id="mcs-604">
                  <name>MCS-604</name>
                  <masterclipid>clip-master</masterclipid>
                  <collapsed>false</collapsed>
                  <angle>
                    <activevideoangle>false</activevideoangle>
                    <activeaudioangle>false</activeaudioangle>
                    <clip id="clip-1"/>
                  </angle>
                  <angle>
                    <activevideoangle>true</activevideoangle>
                    <activeaudioangle>true</activeaudioangle>
                    <clip id="clip-2"/>
                  </angle>
                  <angle>
                    <activevideoangle>false</activevideoangle>
                    <activeaudioangle>false</activeaudioangle>
                    <clip id="clip-3"/>
                  </angle>
                  <angle>
                    <activevideoangle>false</activevideoangle>
                    <activeaudioangle>false</activeaudioangle>
                    <clip id="clip-4"/>
                  </angle>
                  <angle>
                    <activevideoangle>false</activevideoangle>
                    <activeaudioangle>false</activeaudioangle>
                    <clip id="clip-5"/>
                  </angle>
                  <angle>
                    <activevideoangle>false</activevideoangle>
                    <activeaudioangle>false</activeaudioangle>
                    <clip id="clip-6"/>
                  </angle>
                  <angle>
                    <activevideoangle>false</activevideoangle>
                    <activeaudioangle>false</activeaudioangle>
                    <clip id="clip-7"/>
                  </angle>
                  <angle>
                    <activevideoangle>false</activevideoangle>
                    <activeaudioangle>false</activeaudioangle>
                    <clip id="clip-8"/>
                  </angle>
                  <angle>
                    <activevideoangle>false</activevideoangle>
                    <activeaudioangle>false</activeaudioangle>
                    <clip id="clip-9"/>
                  </angle>
                  <masterclipid>clip-master</masterclipid>
                </multiclip>
              </clipitem>
              <clipitem id="cs-605">
                <duration>151</duration>
                <rate>
                  <ntsc>false</ntsc>
                  <timebase>25</timebase>
                </rate>
                <in>34744</in>
                <out>34894</out>
                <start>34744</start>
                <end>34894</end>
                <file id="src-4"/>
                <sourcetrack>
                  <mediatype>video</mediatype>
                  <trackindex>1</trackindex>
                </sourcetrack>
                <multiclip id="mcs-605">
                  <name>MCS-605</name>
                  <masterclipid>clip-master</masterclipid>
                  <collapsed>false</collapsed>
                  <angle>
                    <activevideoangle>false</activevideoangle>
                    <activeaudioangle>false</activeaudioangle>
                    <clip id="clip-1"/>
                  </angle>
                  <angle>
                    <activevideoangle>false</activevideoangle>
                    <activeaudioangle>false</activeaudioangle>
                    <clip id="clip-2"/>
                  </angle>
                  <angle>
                    <activevideoangle>false</activevideoangle>
                    <activeaudioangle>false</activeaudioangle>
                    <clip id="clip-3"/>
                  </angle>
                  <angle>
                    <activevideoangle>true</activevideoangle>
                    <activeaudioangle>true</activeaudioangle>
                    <clip id="clip-4"/>
                  </angle>
                  <angle>
                    <activevideoangle>false</activevideoangle>
                    <activeaudioangle>false</activeaudioangle>
                    <clip id="clip-5"/>
                  </angle>
                  <angle>
                    <activevideoangle>false</activevideoangle>
                    <activeaudioangle>false</activeaudioangle>
                    <clip id="clip-6"/>
                  </angle>
                  <angle>
                    <activevideoangle>false</activevideoangle>
                    <activeaudioangle>false</activeaudioangle>
                    <clip id="clip-7"/>
                  </angle>
                  <angle>
                    <activevideoangle>false</activevideoangle>
                    <activeaudioangle>false</activeaudioangle>
                    <clip id="clip-8"/>
                  </angle>
                  <angle>
                    <activevideoangle>false</activevideoangle>
                    <activeaudioangle>false</activeaudioangle>
                    <clip id="clip-9"/>
                  </angle>
                  <masterclipid>clip-master</masterclipid>
                </multiclip>
              </clipitem>
              <clipitem id="cs-606">
                <duration>75</duration>
                <rate>
                  <ntsc>false</ntsc>
                  <timebase>25</timebase>
                </rate>
                <in>34894</in>
                <out>34968</out>
                <start>34894</start>
                <end>34968</end>
                <file id="src-6"/>
                <sourcetrack>
                  <mediatype>video</mediatype>
                  <trackindex>1</trackindex>
                </sourcetrack>
                <multiclip id="mcs-606">
                  <name>MCS-606</name>
                  <masterclipid>clip-master</masterclipid>
                  <collapsed>false</collapsed>
                  <angle>
                    <activevideoangle>false</activevideoangle>
                    <activeaudioangle>false</activeaudioangle>
                    <clip id="clip-1"/>
                  </angle>
                  <angle>
                    <activevideoangle>false</activevideoangle>
                    <activeaudioangle>false</activeaudioangle>
                    <clip id="clip-2"/>
                  </angle>
                  <angle>
                    <activevideoangle>false</activevideoangle>
                    <activeaudioangle>false</activeaudioangle>
                    <clip id="clip-3"/>
                  </angle>
                  <angle>
                    <activevideoangle>false</activevideoangle>
                    <activeaudioangle>false</activeaudioangle>
                    <clip id="clip-4"/>
                  </angle>
                  <angle>
                    <activevideoangle>false</activevideoangle>
                    <activeaudioangle>false</activeaudioangle>
                    <clip id="clip-5"/>
                  </angle>
                  <angle>
                    <activevideoangle>true</activevideoangle>
                    <activeaudioangle>true</activeaudioangle>
                    <clip id="clip-6"/>
                  </angle>
                  <angle>
                    <activevideoangle>false</activevideoangle>
                    <activeaudioangle>false</activeaudioangle>
                    <clip id="clip-7"/>
                  </angle>
                  <angle>
                    <activevideoangle>false</activevideoangle>
                    <activeaudioangle>false</activeaudioangle>
                    <clip id="clip-8"/>
                  </angle>
                  <angle>
                    <activevideoangle>false</activevideoangle>
                    <activeaudioangle>false</activeaudioangle>
                    <clip id="clip-9"/>
                  </angle>
                  <masterclipid>clip-master</masterclipid>
                </multiclip>
              </clipitem>
              <clipitem id="cs-607">
                <duration>56</duration>
                <rate>
                  <ntsc>false</ntsc>
                  <timebase>25</timebase>
                </rate>
                <in>34968</in>
                <out>35023</out>
                <start>34968</start>
                <end>35023</end>
                <file id="src-3"/>
                <sourcetrack>
                  <mediatype>video</mediatype>
                  <trackindex>1</trackindex>
                </sourcetrack>
                <multiclip id="mcs-607">
                  <name>MCS-607</name>
                  <masterclipid>clip-master</masterclipid>
                  <collapsed>false</collapsed>
                  <angle>
                    <activevideoangle>false</activevideoangle>
                    <activeaudioangle>false</activeaudioangle>
                    <clip id="clip-1"/>
                  </angle>
                  <angle>
                    <activevideoangle>false</activevideoangle>
                    <activeaudioangle>false</activeaudioangle>
                    <clip id="clip-2"/>
                  </angle>
                  <angle>
                    <activevideoangle>true</activevideoangle>
                    <activeaudioangle>true</activeaudioangle>
                    <clip id="clip-3"/>
                  </angle>
                  <angle>
                    <activevideoangle>false</activevideoangle>
                    <activeaudioangle>false</activeaudioangle>
                    <clip id="clip-4"/>
                  </angle>
                  <angle>
                    <activevideoangle>false</activevideoangle>
                    <activeaudioangle>false</activeaudioangle>
                    <clip id="clip-5"/>
                  </angle>
                  <angle>
                    <activevideoangle>false</activevideoangle>
                    <activeaudioangle>false</activeaudioangle>
                    <clip id="clip-6"/>
                  </angle>
                  <angle>
                    <activevideoangle>false</activevideoangle>
                    <activeaudioangle>false</activeaudioangle>
                    <clip id="clip-7"/>
                  </angle>
                  <angle>
                    <activevideoangle>false</activevideoangle>
                    <activeaudioangle>false</activeaudioangle>
                    <clip id="clip-8"/>
                  </angle>
                  <angle>
                    <activevideoangle>false</activevideoangle>
                    <activeaudioangle>false</activeaudioangle>
                    <clip id="clip-9"/>
                  </angle>
                  <masterclipid>clip-master</masterclipid>
                </multiclip>
              </clipitem>
              <clipitem id="cs-608">
                <duration>100</duration>
                <rate>
                  <ntsc>false</ntsc>
                  <timebase>25</timebase>
                </rate>
                <in>35023</in>
                <out>35122</out>
                <start>35023</start>
                <end>35122</end>
                <file id="src-7"/>
                <sourcetrack>
                  <mediatype>video</mediatype>
                  <trackindex>1</trackindex>
                </sourcetrack>
                <multiclip id="mcs-608">
                  <name>MCS-608</name>
                  <masterclipid>clip-master</masterclipid>
                  <collapsed>false</collapsed>
                  <angle>
                    <activevideoangle>false</activevideoangle>
                    <activeaudioangle>false</activeaudioangle>
                    <clip id="clip-1"/>
                  </angle>
                  <angle>
                    <activevideoangle>false</activevideoangle>
                    <activeaudioangle>false</activeaudioangle>
                    <clip id="clip-2"/>
                  </angle>
                  <angle>
                    <activevideoangle>false</activevideoangle>
                    <activeaudioangle>false</activeaudioangle>
                    <clip id="clip-3"/>
                  </angle>
                  <angle>
                    <activevideoangle>false</activevideoangle>
                    <activeaudioangle>false</activeaudioangle>
                    <clip id="clip-4"/>
                  </angle>
                  <angle>
                    <activevideoangle>false</activevideoangle>
                    <activeaudioangle>false</activeaudioangle>
                    <clip id="clip-5"/>
                  </angle>
                  <angle>
                    <activevideoangle>false</activevideoangle>
                    <activeaudioangle>false</activeaudioangle>
                    <clip id="clip-6"/>
                  </angle>
                  <angle>
                    <activevideoangle>true</activevideoangle>
                    <activeaudioangle>true</activeaudioangle>
                    <clip id="clip-7"/>
                  </angle>
                  <angle>
                    <activevideoangle>false</activevideoangle>
                    <activeaudioangle>false</activeaudioangle>
                    <clip id="clip-8"/>
                  </angle>
                  <angle>
                    <activevideoangle>false</activevideoangle>
                    <activeaudioangle>false</activeaudioangle>
                    <clip id="clip-9"/>
                  </angle>
                  <masterclipid>clip-master</masterclipid>
                </multiclip>
              </clipitem>
              <clipitem id="cs-609">
                <duration>66</duration>
                <rate>
                  <ntsc>false</ntsc>
                  <timebase>25</timebase>
                </rate>
                <in>35122</in>
                <out>35187</out>
                <start>35122</start>
                <end>35187</end>
                <file id="src-4"/>
                <sourcetrack>
                  <mediatype>video</mediatype>
                  <trackindex>1</trackindex>
                </sourcetrack>
                <multiclip id="mcs-609">
                  <name>MCS-609</name>
                  <masterclipid>clip-master</masterclipid>
                  <collapsed>false</collapsed>
                  <angle>
                    <activevideoangle>false</activevideoangle>
                    <activeaudioangle>false</activeaudioangle>
                    <clip id="clip-1"/>
                  </angle>
                  <angle>
                    <activevideoangle>false</activevideoangle>
                    <activeaudioangle>false</activeaudioangle>
                    <clip id="clip-2"/>
                  </angle>
                  <angle>
                    <activevideoangle>false</activevideoangle>
                    <activeaudioangle>false</activeaudioangle>
                    <clip id="clip-3"/>
                  </angle>
                  <angle>
                    <activevideoangle>true</activevideoangle>
                    <activeaudioangle>true</activeaudioangle>
                    <clip id="clip-4"/>
                  </angle>
                  <angle>
                    <activevideoangle>false</activevideoangle>
                    <activeaudioangle>false</activeaudioangle>
                    <clip id="clip-5"/>
                  </angle>
                  <angle>
                    <activevideoangle>false</activevideoangle>
                    <activeaudioangle>false</activeaudioangle>
                    <clip id="clip-6"/>
                  </angle>
                  <angle>
                    <activevideoangle>false</activevideoangle>
                    <activeaudioangle>false</activeaudioangle>
                    <clip id="clip-7"/>
                  </angle>
                  <angle>
                    <activevideoangle>false</activevideoangle>
                    <activeaudioangle>false</activeaudioangle>
                    <clip id="clip-8"/>
                  </angle>
                  <angle>
                    <activevideoangle>false</activevideoangle>
                    <activeaudioangle>false</activeaudioangle>
                    <clip id="clip-9"/>
                  </angle>
                  <masterclipid>clip-master</masterclipid>
                </multiclip>
              </clipitem>
              <clipitem id="cs-610">
                <duration>118</duration>
                <rate>
                  <ntsc>false</ntsc>
                  <timebase>25</timebase>
                </rate>
                <in>35187</in>
                <out>35304</out>
                <start>35187</start>
                <end>35304</end>
                <file id="src-2"/>
                <sourcetrack>
                  <mediatype>video</mediatype>
                  <trackindex>1</trackindex>
                </sourcetrack>
                <multiclip id="mcs-610">
                  <name>MCS-610</name>
                  <masterclipid>clip-master</masterclipid>
                  <collapsed>false</collapsed>
                  <angle>
                    <activevideoangle>false</activevideoangle>
                    <activeaudioangle>false</activeaudioangle>
                    <clip id="clip-1"/>
                  </angle>
                  <angle>
                    <activevideoangle>true</activevideoangle>
                    <activeaudioangle>true</activeaudioangle>
                    <clip id="clip-2"/>
                  </angle>
                  <angle>
                    <activevideoangle>false</activevideoangle>
                    <activeaudioangle>false</activeaudioangle>
                    <clip id="clip-3"/>
                  </angle>
                  <angle>
                    <activevideoangle>false</activevideoangle>
                    <activeaudioangle>false</activeaudioangle>
                    <clip id="clip-4"/>
                  </angle>
                  <angle>
                    <activevideoangle>false</activevideoangle>
                    <activeaudioangle>false</activeaudioangle>
                    <clip id="clip-5"/>
                  </angle>
                  <angle>
                    <activevideoangle>false</activevideoangle>
                    <activeaudioangle>false</activeaudioangle>
                    <clip id="clip-6"/>
                  </angle>
                  <angle>
                    <activevideoangle>false</activevideoangle>
                    <activeaudioangle>false</activeaudioangle>
                    <clip id="clip-7"/>
                  </angle>
                  <angle>
                    <activevideoangle>false</activevideoangle>
                    <activeaudioangle>false</activeaudioangle>
                    <clip id="clip-8"/>
                  </angle>
                  <angle>
                    <activevideoangle>false</activevideoangle>
                    <activeaudioangle>false</activeaudioangle>
                    <clip id="clip-9"/>
                  </angle>
                  <masterclipid>clip-master</masterclipid>
                </multiclip>
              </clipitem>
              <clipitem id="cs-611">
                <duration>124</duration>
                <rate>
                  <ntsc>false</ntsc>
                  <timebase>25</timebase>
                </rate>
                <in>35304</in>
                <out>35427</out>
                <start>35304</start>
                <end>35427</end>
                <file id="src-4"/>
                <sourcetrack>
                  <mediatype>video</mediatype>
                  <trackindex>1</trackindex>
                </sourcetrack>
                <multiclip id="mcs-611">
                  <name>MCS-611</name>
                  <masterclipid>clip-master</masterclipid>
                  <collapsed>false</collapsed>
                  <angle>
                    <activevideoangle>false</activevideoangle>
                    <activeaudioangle>false</activeaudioangle>
                    <clip id="clip-1"/>
                  </angle>
                  <angle>
                    <activevideoangle>false</activevideoangle>
                    <activeaudioangle>false</activeaudioangle>
                    <clip id="clip-2"/>
                  </angle>
                  <angle>
                    <activevideoangle>false</activevideoangle>
                    <activeaudioangle>false</activeaudioangle>
                    <clip id="clip-3"/>
                  </angle>
                  <angle>
                    <activevideoangle>true</activevideoangle>
                    <activeaudioangle>true</activeaudioangle>
                    <clip id="clip-4"/>
                  </angle>
                  <angle>
                    <activevideoangle>false</activevideoangle>
                    <activeaudioangle>false</activeaudioangle>
                    <clip id="clip-5"/>
                  </angle>
                  <angle>
                    <activevideoangle>false</activevideoangle>
                    <activeaudioangle>false</activeaudioangle>
                    <clip id="clip-6"/>
                  </angle>
                  <angle>
                    <activevideoangle>false</activevideoangle>
                    <activeaudioangle>false</activeaudioangle>
                    <clip id="clip-7"/>
                  </angle>
                  <angle>
                    <activevideoangle>false</activevideoangle>
                    <activeaudioangle>false</activeaudioangle>
                    <clip id="clip-8"/>
                  </angle>
                  <angle>
                    <activevideoangle>false</activevideoangle>
                    <activeaudioangle>false</activeaudioangle>
                    <clip id="clip-9"/>
                  </angle>
                  <masterclipid>clip-master</masterclipid>
                </multiclip>
              </clipitem>
              <clipitem id="cs-612">
                <duration>215</duration>
                <rate>
                  <ntsc>false</ntsc>
                  <timebase>25</timebase>
                </rate>
                <in>35427</in>
                <out>35641</out>
                <start>35427</start>
                <end>35641</end>
                <file id="src-5"/>
                <sourcetrack>
                  <mediatype>video</mediatype>
                  <trackindex>1</trackindex>
                </sourcetrack>
                <multiclip id="mcs-612">
                  <name>MCS-612</name>
                  <masterclipid>clip-master</masterclipid>
                  <collapsed>false</collapsed>
                  <angle>
                    <activevideoangle>false</activevideoangle>
                    <activeaudioangle>false</activeaudioangle>
                    <clip id="clip-1"/>
                  </angle>
                  <angle>
                    <activevideoangle>false</activevideoangle>
                    <activeaudioangle>false</activeaudioangle>
                    <clip id="clip-2"/>
                  </angle>
                  <angle>
                    <activevideoangle>false</activevideoangle>
                    <activeaudioangle>false</activeaudioangle>
                    <clip id="clip-3"/>
                  </angle>
                  <angle>
                    <activevideoangle>false</activevideoangle>
                    <activeaudioangle>false</activeaudioangle>
                    <clip id="clip-4"/>
                  </angle>
                  <angle>
                    <activevideoangle>true</activevideoangle>
                    <activeaudioangle>true</activeaudioangle>
                    <clip id="clip-5"/>
                  </angle>
                  <angle>
                    <activevideoangle>false</activevideoangle>
                    <activeaudioangle>false</activeaudioangle>
                    <clip id="clip-6"/>
                  </angle>
                  <angle>
                    <activevideoangle>false</activevideoangle>
                    <activeaudioangle>false</activeaudioangle>
                    <clip id="clip-7"/>
                  </angle>
                  <angle>
                    <activevideoangle>false</activevideoangle>
                    <activeaudioangle>false</activeaudioangle>
                    <clip id="clip-8"/>
                  </angle>
                  <angle>
                    <activevideoangle>false</activevideoangle>
                    <activeaudioangle>false</activeaudioangle>
                    <clip id="clip-9"/>
                  </angle>
                  <masterclipid>clip-master</masterclipid>
                </multiclip>
              </clipitem>
              <clipitem id="cs-613">
                <duration>160</duration>
                <rate>
                  <ntsc>false</ntsc>
                  <timebase>25</timebase>
                </rate>
                <in>35641</in>
                <out>35800</out>
                <start>35641</start>
                <end>35800</end>
                <file id="src-2"/>
                <sourcetrack>
                  <mediatype>video</mediatype>
                  <trackindex>1</trackindex>
                </sourcetrack>
                <multiclip id="mcs-613">
                  <name>MCS-613</name>
                  <masterclipid>clip-master</masterclipid>
                  <collapsed>false</collapsed>
                  <angle>
                    <activevideoangle>false</activevideoangle>
                    <activeaudioangle>false</activeaudioangle>
                    <clip id="clip-1"/>
                  </angle>
                  <angle>
                    <activevideoangle>true</activevideoangle>
                    <activeaudioangle>true</activeaudioangle>
                    <clip id="clip-2"/>
                  </angle>
                  <angle>
                    <activevideoangle>false</activevideoangle>
                    <activeaudioangle>false</activeaudioangle>
                    <clip id="clip-3"/>
                  </angle>
                  <angle>
                    <activevideoangle>false</activevideoangle>
                    <activeaudioangle>false</activeaudioangle>
                    <clip id="clip-4"/>
                  </angle>
                  <angle>
                    <activevideoangle>false</activevideoangle>
                    <activeaudioangle>false</activeaudioangle>
                    <clip id="clip-5"/>
                  </angle>
                  <angle>
                    <activevideoangle>false</activevideoangle>
                    <activeaudioangle>false</activeaudioangle>
                    <clip id="clip-6"/>
                  </angle>
                  <angle>
                    <activevideoangle>false</activevideoangle>
                    <activeaudioangle>false</activeaudioangle>
                    <clip id="clip-7"/>
                  </angle>
                  <angle>
                    <activevideoangle>false</activevideoangle>
                    <activeaudioangle>false</activeaudioangle>
                    <clip id="clip-8"/>
                  </angle>
                  <angle>
                    <activevideoangle>false</activevideoangle>
                    <activeaudioangle>false</activeaudioangle>
                    <clip id="clip-9"/>
                  </angle>
                  <masterclipid>clip-master</masterclipid>
                </multiclip>
              </clipitem>
              <clipitem id="cs-614">
                <duration>134</duration>
                <rate>
                  <ntsc>false</ntsc>
                  <timebase>25</timebase>
                </rate>
                <in>35800</in>
                <out>35933</out>
                <start>35800</start>
                <end>35933</end>
                <file id="src-4"/>
                <sourcetrack>
                  <mediatype>video</mediatype>
                  <trackindex>1</trackindex>
                </sourcetrack>
                <multiclip id="mcs-614">
                  <name>MCS-614</name>
                  <masterclipid>clip-master</masterclipid>
                  <collapsed>false</collapsed>
                  <angle>
                    <activevideoangle>false</activevideoangle>
                    <activeaudioangle>false</activeaudioangle>
                    <clip id="clip-1"/>
                  </angle>
                  <angle>
                    <activevideoangle>false</activevideoangle>
                    <activeaudioangle>false</activeaudioangle>
                    <clip id="clip-2"/>
                  </angle>
                  <angle>
                    <activevideoangle>false</activevideoangle>
                    <activeaudioangle>false</activeaudioangle>
                    <clip id="clip-3"/>
                  </angle>
                  <angle>
                    <activevideoangle>true</activevideoangle>
                    <activeaudioangle>true</activeaudioangle>
                    <clip id="clip-4"/>
                  </angle>
                  <angle>
                    <activevideoangle>false</activevideoangle>
                    <activeaudioangle>false</activeaudioangle>
                    <clip id="clip-5"/>
                  </angle>
                  <angle>
                    <activevideoangle>false</activevideoangle>
                    <activeaudioangle>false</activeaudioangle>
                    <clip id="clip-6"/>
                  </angle>
                  <angle>
                    <activevideoangle>false</activevideoangle>
                    <activeaudioangle>false</activeaudioangle>
                    <clip id="clip-7"/>
                  </angle>
                  <angle>
                    <activevideoangle>false</activevideoangle>
                    <activeaudioangle>false</activeaudioangle>
                    <clip id="clip-8"/>
                  </angle>
                  <angle>
                    <activevideoangle>false</activevideoangle>
                    <activeaudioangle>false</activeaudioangle>
                    <clip id="clip-9"/>
                  </angle>
                  <masterclipid>clip-master</masterclipid>
                </multiclip>
              </clipitem>
              <clipitem id="cs-615">
                <duration>288</duration>
                <rate>
                  <ntsc>false</ntsc>
                  <timebase>25</timebase>
                </rate>
                <in>35933</in>
                <out>36220</out>
                <start>35933</start>
                <end>36220</end>
                <file id="src-3"/>
                <sourcetrack>
                  <mediatype>video</mediatype>
                  <trackindex>1</trackindex>
                </sourcetrack>
                <multiclip id="mcs-615">
                  <name>MCS-615</name>
                  <masterclipid>clip-master</masterclipid>
                  <collapsed>false</collapsed>
                  <angle>
                    <activevideoangle>false</activevideoangle>
                    <activeaudioangle>false</activeaudioangle>
                    <clip id="clip-1"/>
                  </angle>
                  <angle>
                    <activevideoangle>false</activevideoangle>
                    <activeaudioangle>false</activeaudioangle>
                    <clip id="clip-2"/>
                  </angle>
                  <angle>
                    <activevideoangle>true</activevideoangle>
                    <activeaudioangle>true</activeaudioangle>
                    <clip id="clip-3"/>
                  </angle>
                  <angle>
                    <activevideoangle>false</activevideoangle>
                    <activeaudioangle>false</activeaudioangle>
                    <clip id="clip-4"/>
                  </angle>
                  <angle>
                    <activevideoangle>false</activevideoangle>
                    <activeaudioangle>false</activeaudioangle>
                    <clip id="clip-5"/>
                  </angle>
                  <angle>
                    <activevideoangle>false</activevideoangle>
                    <activeaudioangle>false</activeaudioangle>
                    <clip id="clip-6"/>
                  </angle>
                  <angle>
                    <activevideoangle>false</activevideoangle>
                    <activeaudioangle>false</activeaudioangle>
                    <clip id="clip-7"/>
                  </angle>
                  <angle>
                    <activevideoangle>false</activevideoangle>
                    <activeaudioangle>false</activeaudioangle>
                    <clip id="clip-8"/>
                  </angle>
                  <angle>
                    <activevideoangle>false</activevideoangle>
                    <activeaudioangle>false</activeaudioangle>
                    <clip id="clip-9"/>
                  </angle>
                  <masterclipid>clip-master</masterclipid>
                </multiclip>
              </clipitem>
              <clipitem id="cs-616">
                <duration>652</duration>
                <rate>
                  <ntsc>false</ntsc>
                  <timebase>25</timebase>
                </rate>
                <in>36220</in>
                <out>36871</out>
                <start>36220</start>
                <end>36871</end>
                <file id="src-4"/>
                <sourcetrack>
                  <mediatype>video</mediatype>
                  <trackindex>1</trackindex>
                </sourcetrack>
                <multiclip id="mcs-616">
                  <name>MCS-616</name>
                  <masterclipid>clip-master</masterclipid>
                  <collapsed>false</collapsed>
                  <angle>
                    <activevideoangle>false</activevideoangle>
                    <activeaudioangle>false</activeaudioangle>
                    <clip id="clip-1"/>
                  </angle>
                  <angle>
                    <activevideoangle>false</activevideoangle>
                    <activeaudioangle>false</activeaudioangle>
                    <clip id="clip-2"/>
                  </angle>
                  <angle>
                    <activevideoangle>false</activevideoangle>
                    <activeaudioangle>false</activeaudioangle>
                    <clip id="clip-3"/>
                  </angle>
                  <angle>
                    <activevideoangle>true</activevideoangle>
                    <activeaudioangle>true</activeaudioangle>
                    <clip id="clip-4"/>
                  </angle>
                  <angle>
                    <activevideoangle>false</activevideoangle>
                    <activeaudioangle>false</activeaudioangle>
                    <clip id="clip-5"/>
                  </angle>
                  <angle>
                    <activevideoangle>false</activevideoangle>
                    <activeaudioangle>false</activeaudioangle>
                    <clip id="clip-6"/>
                  </angle>
                  <angle>
                    <activevideoangle>false</activevideoangle>
                    <activeaudioangle>false</activeaudioangle>
                    <clip id="clip-7"/>
                  </angle>
                  <angle>
                    <activevideoangle>false</activevideoangle>
                    <activeaudioangle>false</activeaudioangle>
                    <clip id="clip-8"/>
                  </angle>
                  <angle>
                    <activevideoangle>false</activevideoangle>
                    <activeaudioangle>false</activeaudioangle>
                    <clip id="clip-9"/>
                  </angle>
                  <masterclipid>clip-master</masterclipid>
                </multiclip>
              </clipitem>
              <clipitem id="cs-617">
                <duration>324</duration>
                <rate>
                  <ntsc>false</ntsc>
                  <timebase>25</timebase>
                </rate>
                <in>36871</in>
                <out>37194</out>
                <start>36871</start>
                <end>37194</end>
                <file id="src-3"/>
                <sourcetrack>
                  <mediatype>video</mediatype>
                  <trackindex>1</trackindex>
                </sourcetrack>
                <multiclip id="mcs-617">
                  <name>MCS-617</name>
                  <masterclipid>clip-master</masterclipid>
                  <collapsed>false</collapsed>
                  <angle>
                    <activevideoangle>false</activevideoangle>
                    <activeaudioangle>false</activeaudioangle>
                    <clip id="clip-1"/>
                  </angle>
                  <angle>
                    <activevideoangle>false</activevideoangle>
                    <activeaudioangle>false</activeaudioangle>
                    <clip id="clip-2"/>
                  </angle>
                  <angle>
                    <activevideoangle>true</activevideoangle>
                    <activeaudioangle>true</activeaudioangle>
                    <clip id="clip-3"/>
                  </angle>
                  <angle>
                    <activevideoangle>false</activevideoangle>
                    <activeaudioangle>false</activeaudioangle>
                    <clip id="clip-4"/>
                  </angle>
                  <angle>
                    <activevideoangle>false</activevideoangle>
                    <activeaudioangle>false</activeaudioangle>
                    <clip id="clip-5"/>
                  </angle>
                  <angle>
                    <activevideoangle>false</activevideoangle>
                    <activeaudioangle>false</activeaudioangle>
                    <clip id="clip-6"/>
                  </angle>
                  <angle>
                    <activevideoangle>false</activevideoangle>
                    <activeaudioangle>false</activeaudioangle>
                    <clip id="clip-7"/>
                  </angle>
                  <angle>
                    <activevideoangle>false</activevideoangle>
                    <activeaudioangle>false</activeaudioangle>
                    <clip id="clip-8"/>
                  </angle>
                  <angle>
                    <activevideoangle>false</activevideoangle>
                    <activeaudioangle>false</activeaudioangle>
                    <clip id="clip-9"/>
                  </angle>
                  <masterclipid>clip-master</masterclipid>
                </multiclip>
              </clipitem>
              <clipitem id="cs-618">
                <duration>339</duration>
                <rate>
                  <ntsc>false</ntsc>
                  <timebase>25</timebase>
                </rate>
                <in>37194</in>
                <out>37532</out>
                <start>37194</start>
                <end>37532</end>
                <file id="src-4"/>
                <sourcetrack>
                  <mediatype>video</mediatype>
                  <trackindex>1</trackindex>
                </sourcetrack>
                <multiclip id="mcs-618">
                  <name>MCS-618</name>
                  <masterclipid>clip-master</masterclipid>
                  <collapsed>false</collapsed>
                  <angle>
                    <activevideoangle>false</activevideoangle>
                    <activeaudioangle>false</activeaudioangle>
                    <clip id="clip-1"/>
                  </angle>
                  <angle>
                    <activevideoangle>false</activevideoangle>
                    <activeaudioangle>false</activeaudioangle>
                    <clip id="clip-2"/>
                  </angle>
                  <angle>
                    <activevideoangle>false</activevideoangle>
                    <activeaudioangle>false</activeaudioangle>
                    <clip id="clip-3"/>
                  </angle>
                  <angle>
                    <activevideoangle>true</activevideoangle>
                    <activeaudioangle>true</activeaudioangle>
                    <clip id="clip-4"/>
                  </angle>
                  <angle>
                    <activevideoangle>false</activevideoangle>
                    <activeaudioangle>false</activeaudioangle>
                    <clip id="clip-5"/>
                  </angle>
                  <angle>
                    <activevideoangle>false</activevideoangle>
                    <activeaudioangle>false</activeaudioangle>
                    <clip id="clip-6"/>
                  </angle>
                  <angle>
                    <activevideoangle>false</activevideoangle>
                    <activeaudioangle>false</activeaudioangle>
                    <clip id="clip-7"/>
                  </angle>
                  <angle>
                    <activevideoangle>false</activevideoangle>
                    <activeaudioangle>false</activeaudioangle>
                    <clip id="clip-8"/>
                  </angle>
                  <angle>
                    <activevideoangle>false</activevideoangle>
                    <activeaudioangle>false</activeaudioangle>
                    <clip id="clip-9"/>
                  </angle>
                  <masterclipid>clip-master</masterclipid>
                </multiclip>
              </clipitem>
              <clipitem id="cs-619">
                <duration>142</duration>
                <rate>
                  <ntsc>false</ntsc>
                  <timebase>25</timebase>
                </rate>
                <in>37532</in>
                <out>37673</out>
                <start>37532</start>
                <end>37673</end>
                <file id="src-3"/>
                <sourcetrack>
                  <mediatype>video</mediatype>
                  <trackindex>1</trackindex>
                </sourcetrack>
                <multiclip id="mcs-619">
                  <name>MCS-619</name>
                  <masterclipid>clip-master</masterclipid>
                  <collapsed>false</collapsed>
                  <angle>
                    <activevideoangle>false</activevideoangle>
                    <activeaudioangle>false</activeaudioangle>
                    <clip id="clip-1"/>
                  </angle>
                  <angle>
                    <activevideoangle>false</activevideoangle>
                    <activeaudioangle>false</activeaudioangle>
                    <clip id="clip-2"/>
                  </angle>
                  <angle>
                    <activevideoangle>true</activevideoangle>
                    <activeaudioangle>true</activeaudioangle>
                    <clip id="clip-3"/>
                  </angle>
                  <angle>
                    <activevideoangle>false</activevideoangle>
                    <activeaudioangle>false</activeaudioangle>
                    <clip id="clip-4"/>
                  </angle>
                  <angle>
                    <activevideoangle>false</activevideoangle>
                    <activeaudioangle>false</activeaudioangle>
                    <clip id="clip-5"/>
                  </angle>
                  <angle>
                    <activevideoangle>false</activevideoangle>
                    <activeaudioangle>false</activeaudioangle>
                    <clip id="clip-6"/>
                  </angle>
                  <angle>
                    <activevideoangle>false</activevideoangle>
                    <activeaudioangle>false</activeaudioangle>
                    <clip id="clip-7"/>
                  </angle>
                  <angle>
                    <activevideoangle>false</activevideoangle>
                    <activeaudioangle>false</activeaudioangle>
                    <clip id="clip-8"/>
                  </angle>
                  <angle>
                    <activevideoangle>false</activevideoangle>
                    <activeaudioangle>false</activeaudioangle>
                    <clip id="clip-9"/>
                  </angle>
                  <masterclipid>clip-master</masterclipid>
                </multiclip>
              </clipitem>
              <clipitem id="cs-620">
                <duration>79</duration>
                <rate>
                  <ntsc>false</ntsc>
                  <timebase>25</timebase>
                </rate>
                <in>37673</in>
                <out>37751</out>
                <start>37673</start>
                <end>37751</end>
                <file id="src-2"/>
                <sourcetrack>
                  <mediatype>video</mediatype>
                  <trackindex>1</trackindex>
                </sourcetrack>
                <multiclip id="mcs-620">
                  <name>MCS-620</name>
                  <masterclipid>clip-master</masterclipid>
                  <collapsed>false</collapsed>
                  <angle>
                    <activevideoangle>false</activevideoangle>
                    <activeaudioangle>false</activeaudioangle>
                    <clip id="clip-1"/>
                  </angle>
                  <angle>
                    <activevideoangle>true</activevideoangle>
                    <activeaudioangle>true</activeaudioangle>
                    <clip id="clip-2"/>
                  </angle>
                  <angle>
                    <activevideoangle>false</activevideoangle>
                    <activeaudioangle>false</activeaudioangle>
                    <clip id="clip-3"/>
                  </angle>
                  <angle>
                    <activevideoangle>false</activevideoangle>
                    <activeaudioangle>false</activeaudioangle>
                    <clip id="clip-4"/>
                  </angle>
                  <angle>
                    <activevideoangle>false</activevideoangle>
                    <activeaudioangle>false</activeaudioangle>
                    <clip id="clip-5"/>
                  </angle>
                  <angle>
                    <activevideoangle>false</activevideoangle>
                    <activeaudioangle>false</activeaudioangle>
                    <clip id="clip-6"/>
                  </angle>
                  <angle>
                    <activevideoangle>false</activevideoangle>
                    <activeaudioangle>false</activeaudioangle>
                    <clip id="clip-7"/>
                  </angle>
                  <angle>
                    <activevideoangle>false</activevideoangle>
                    <activeaudioangle>false</activeaudioangle>
                    <clip id="clip-8"/>
                  </angle>
                  <angle>
                    <activevideoangle>false</activevideoangle>
                    <activeaudioangle>false</activeaudioangle>
                    <clip id="clip-9"/>
                  </angle>
                  <masterclipid>clip-master</masterclipid>
                </multiclip>
              </clipitem>
              <clipitem id="cs-621">
                <duration>398</duration>
                <rate>
                  <ntsc>false</ntsc>
                  <timebase>25</timebase>
                </rate>
                <in>37751</in>
                <out>38148</out>
                <start>37751</start>
                <end>38148</end>
                <file id="src-4"/>
                <sourcetrack>
                  <mediatype>video</mediatype>
                  <trackindex>1</trackindex>
                </sourcetrack>
                <multiclip id="mcs-621">
                  <name>MCS-621</name>
                  <masterclipid>clip-master</masterclipid>
                  <collapsed>false</collapsed>
                  <angle>
                    <activevideoangle>false</activevideoangle>
                    <activeaudioangle>false</activeaudioangle>
                    <clip id="clip-1"/>
                  </angle>
                  <angle>
                    <activevideoangle>false</activevideoangle>
                    <activeaudioangle>false</activeaudioangle>
                    <clip id="clip-2"/>
                  </angle>
                  <angle>
                    <activevideoangle>false</activevideoangle>
                    <activeaudioangle>false</activeaudioangle>
                    <clip id="clip-3"/>
                  </angle>
                  <angle>
                    <activevideoangle>true</activevideoangle>
                    <activeaudioangle>true</activeaudioangle>
                    <clip id="clip-4"/>
                  </angle>
                  <angle>
                    <activevideoangle>false</activevideoangle>
                    <activeaudioangle>false</activeaudioangle>
                    <clip id="clip-5"/>
                  </angle>
                  <angle>
                    <activevideoangle>false</activevideoangle>
                    <activeaudioangle>false</activeaudioangle>
                    <clip id="clip-6"/>
                  </angle>
                  <angle>
                    <activevideoangle>false</activevideoangle>
                    <activeaudioangle>false</activeaudioangle>
                    <clip id="clip-7"/>
                  </angle>
                  <angle>
                    <activevideoangle>false</activevideoangle>
                    <activeaudioangle>false</activeaudioangle>
                    <clip id="clip-8"/>
                  </angle>
                  <angle>
                    <activevideoangle>false</activevideoangle>
                    <activeaudioangle>false</activeaudioangle>
                    <clip id="clip-9"/>
                  </angle>
                  <masterclipid>clip-master</masterclipid>
                </multiclip>
              </clipitem>
              <clipitem id="cs-622">
                <duration>163</duration>
                <rate>
                  <ntsc>false</ntsc>
                  <timebase>25</timebase>
                </rate>
                <in>38148</in>
                <out>38310</out>
                <start>38148</start>
                <end>38310</end>
                <file id="src-2"/>
                <sourcetrack>
                  <mediatype>video</mediatype>
                  <trackindex>1</trackindex>
                </sourcetrack>
                <multiclip id="mcs-622">
                  <name>MCS-622</name>
                  <masterclipid>clip-master</masterclipid>
                  <collapsed>false</collapsed>
                  <angle>
                    <activevideoangle>false</activevideoangle>
                    <activeaudioangle>false</activeaudioangle>
                    <clip id="clip-1"/>
                  </angle>
                  <angle>
                    <activevideoangle>true</activevideoangle>
                    <activeaudioangle>true</activeaudioangle>
                    <clip id="clip-2"/>
                  </angle>
                  <angle>
                    <activevideoangle>false</activevideoangle>
                    <activeaudioangle>false</activeaudioangle>
                    <clip id="clip-3"/>
                  </angle>
                  <angle>
                    <activevideoangle>false</activevideoangle>
                    <activeaudioangle>false</activeaudioangle>
                    <clip id="clip-4"/>
                  </angle>
                  <angle>
                    <activevideoangle>false</activevideoangle>
                    <activeaudioangle>false</activeaudioangle>
                    <clip id="clip-5"/>
                  </angle>
                  <angle>
                    <activevideoangle>false</activevideoangle>
                    <activeaudioangle>false</activeaudioangle>
                    <clip id="clip-6"/>
                  </angle>
                  <angle>
                    <activevideoangle>false</activevideoangle>
                    <activeaudioangle>false</activeaudioangle>
                    <clip id="clip-7"/>
                  </angle>
                  <angle>
                    <activevideoangle>false</activevideoangle>
                    <activeaudioangle>false</activeaudioangle>
                    <clip id="clip-8"/>
                  </angle>
                  <angle>
                    <activevideoangle>false</activevideoangle>
                    <activeaudioangle>false</activeaudioangle>
                    <clip id="clip-9"/>
                  </angle>
                  <masterclipid>clip-master</masterclipid>
                </multiclip>
              </clipitem>
              <clipitem id="cs-623">
                <duration>245</duration>
                <rate>
                  <ntsc>false</ntsc>
                  <timebase>25</timebase>
                </rate>
                <in>38310</in>
                <out>38554</out>
                <start>38310</start>
                <end>38554</end>
                <file id="src-4"/>
                <sourcetrack>
                  <mediatype>video</mediatype>
                  <trackindex>1</trackindex>
                </sourcetrack>
                <multiclip id="mcs-623">
                  <name>MCS-623</name>
                  <masterclipid>clip-master</masterclipid>
                  <collapsed>false</collapsed>
                  <angle>
                    <activevideoangle>false</activevideoangle>
                    <activeaudioangle>false</activeaudioangle>
                    <clip id="clip-1"/>
                  </angle>
                  <angle>
                    <activevideoangle>false</activevideoangle>
                    <activeaudioangle>false</activeaudioangle>
                    <clip id="clip-2"/>
                  </angle>
                  <angle>
                    <activevideoangle>false</activevideoangle>
                    <activeaudioangle>false</activeaudioangle>
                    <clip id="clip-3"/>
                  </angle>
                  <angle>
                    <activevideoangle>true</activevideoangle>
                    <activeaudioangle>true</activeaudioangle>
                    <clip id="clip-4"/>
                  </angle>
                  <angle>
                    <activevideoangle>false</activevideoangle>
                    <activeaudioangle>false</activeaudioangle>
                    <clip id="clip-5"/>
                  </angle>
                  <angle>
                    <activevideoangle>false</activevideoangle>
                    <activeaudioangle>false</activeaudioangle>
                    <clip id="clip-6"/>
                  </angle>
                  <angle>
                    <activevideoangle>false</activevideoangle>
                    <activeaudioangle>false</activeaudioangle>
                    <clip id="clip-7"/>
                  </angle>
                  <angle>
                    <activevideoangle>false</activevideoangle>
                    <activeaudioangle>false</activeaudioangle>
                    <clip id="clip-8"/>
                  </angle>
                  <angle>
                    <activevideoangle>false</activevideoangle>
                    <activeaudioangle>false</activeaudioangle>
                    <clip id="clip-9"/>
                  </angle>
                  <masterclipid>clip-master</masterclipid>
                </multiclip>
              </clipitem>
              <clipitem id="cs-624">
                <duration>203</duration>
                <rate>
                  <ntsc>false</ntsc>
                  <timebase>25</timebase>
                </rate>
                <in>38554</in>
                <out>38756</out>
                <start>38554</start>
                <end>38756</end>
                <file id="src-2"/>
                <sourcetrack>
                  <mediatype>video</mediatype>
                  <trackindex>1</trackindex>
                </sourcetrack>
                <multiclip id="mcs-624">
                  <name>MCS-624</name>
                  <masterclipid>clip-master</masterclipid>
                  <collapsed>false</collapsed>
                  <angle>
                    <activevideoangle>false</activevideoangle>
                    <activeaudioangle>false</activeaudioangle>
                    <clip id="clip-1"/>
                  </angle>
                  <angle>
                    <activevideoangle>true</activevideoangle>
                    <activeaudioangle>true</activeaudioangle>
                    <clip id="clip-2"/>
                  </angle>
                  <angle>
                    <activevideoangle>false</activevideoangle>
                    <activeaudioangle>false</activeaudioangle>
                    <clip id="clip-3"/>
                  </angle>
                  <angle>
                    <activevideoangle>false</activevideoangle>
                    <activeaudioangle>false</activeaudioangle>
                    <clip id="clip-4"/>
                  </angle>
                  <angle>
                    <activevideoangle>false</activevideoangle>
                    <activeaudioangle>false</activeaudioangle>
                    <clip id="clip-5"/>
                  </angle>
                  <angle>
                    <activevideoangle>false</activevideoangle>
                    <activeaudioangle>false</activeaudioangle>
                    <clip id="clip-6"/>
                  </angle>
                  <angle>
                    <activevideoangle>false</activevideoangle>
                    <activeaudioangle>false</activeaudioangle>
                    <clip id="clip-7"/>
                  </angle>
                  <angle>
                    <activevideoangle>false</activevideoangle>
                    <activeaudioangle>false</activeaudioangle>
                    <clip id="clip-8"/>
                  </angle>
                  <angle>
                    <activevideoangle>false</activevideoangle>
                    <activeaudioangle>false</activeaudioangle>
                    <clip id="clip-9"/>
                  </angle>
                  <masterclipid>clip-master</masterclipid>
                </multiclip>
              </clipitem>
              <clipitem id="cs-625">
                <duration>62</duration>
                <rate>
                  <ntsc>false</ntsc>
                  <timebase>25</timebase>
                </rate>
                <in>38756</in>
                <out>38817</out>
                <start>38756</start>
                <end>38817</end>
                <file id="src-4"/>
                <sourcetrack>
                  <mediatype>video</mediatype>
                  <trackindex>1</trackindex>
                </sourcetrack>
                <multiclip id="mcs-625">
                  <name>MCS-625</name>
                  <masterclipid>clip-master</masterclipid>
                  <collapsed>false</collapsed>
                  <angle>
                    <activevideoangle>false</activevideoangle>
                    <activeaudioangle>false</activeaudioangle>
                    <clip id="clip-1"/>
                  </angle>
                  <angle>
                    <activevideoangle>false</activevideoangle>
                    <activeaudioangle>false</activeaudioangle>
                    <clip id="clip-2"/>
                  </angle>
                  <angle>
                    <activevideoangle>false</activevideoangle>
                    <activeaudioangle>false</activeaudioangle>
                    <clip id="clip-3"/>
                  </angle>
                  <angle>
                    <activevideoangle>true</activevideoangle>
                    <activeaudioangle>true</activeaudioangle>
                    <clip id="clip-4"/>
                  </angle>
                  <angle>
                    <activevideoangle>false</activevideoangle>
                    <activeaudioangle>false</activeaudioangle>
                    <clip id="clip-5"/>
                  </angle>
                  <angle>
                    <activevideoangle>false</activevideoangle>
                    <activeaudioangle>false</activeaudioangle>
                    <clip id="clip-6"/>
                  </angle>
                  <angle>
                    <activevideoangle>false</activevideoangle>
                    <activeaudioangle>false</activeaudioangle>
                    <clip id="clip-7"/>
                  </angle>
                  <angle>
                    <activevideoangle>false</activevideoangle>
                    <activeaudioangle>false</activeaudioangle>
                    <clip id="clip-8"/>
                  </angle>
                  <angle>
                    <activevideoangle>false</activevideoangle>
                    <activeaudioangle>false</activeaudioangle>
                    <clip id="clip-9"/>
                  </angle>
                  <masterclipid>clip-master</masterclipid>
                </multiclip>
              </clipitem>
              <clipitem id="cs-626">
                <duration>87</duration>
                <rate>
                  <ntsc>false</ntsc>
                  <timebase>25</timebase>
                </rate>
                <in>38817</in>
                <out>38903</out>
                <start>38817</start>
                <end>38903</end>
                <file id="src-3"/>
                <sourcetrack>
                  <mediatype>video</mediatype>
                  <trackindex>1</trackindex>
                </sourcetrack>
                <multiclip id="mcs-626">
                  <name>MCS-626</name>
                  <masterclipid>clip-master</masterclipid>
                  <collapsed>false</collapsed>
                  <angle>
                    <activevideoangle>false</activevideoangle>
                    <activeaudioangle>false</activeaudioangle>
                    <clip id="clip-1"/>
                  </angle>
                  <angle>
                    <activevideoangle>false</activevideoangle>
                    <activeaudioangle>false</activeaudioangle>
                    <clip id="clip-2"/>
                  </angle>
                  <angle>
                    <activevideoangle>true</activevideoangle>
                    <activeaudioangle>true</activeaudioangle>
                    <clip id="clip-3"/>
                  </angle>
                  <angle>
                    <activevideoangle>false</activevideoangle>
                    <activeaudioangle>false</activeaudioangle>
                    <clip id="clip-4"/>
                  </angle>
                  <angle>
                    <activevideoangle>false</activevideoangle>
                    <activeaudioangle>false</activeaudioangle>
                    <clip id="clip-5"/>
                  </angle>
                  <angle>
                    <activevideoangle>false</activevideoangle>
                    <activeaudioangle>false</activeaudioangle>
                    <clip id="clip-6"/>
                  </angle>
                  <angle>
                    <activevideoangle>false</activevideoangle>
                    <activeaudioangle>false</activeaudioangle>
                    <clip id="clip-7"/>
                  </angle>
                  <angle>
                    <activevideoangle>false</activevideoangle>
                    <activeaudioangle>false</activeaudioangle>
                    <clip id="clip-8"/>
                  </angle>
                  <angle>
                    <activevideoangle>false</activevideoangle>
                    <activeaudioangle>false</activeaudioangle>
                    <clip id="clip-9"/>
                  </angle>
                  <masterclipid>clip-master</masterclipid>
                </multiclip>
              </clipitem>
              <clipitem id="cs-627">
                <duration>82</duration>
                <rate>
                  <ntsc>false</ntsc>
                  <timebase>25</timebase>
                </rate>
                <in>38903</in>
                <out>38984</out>
                <start>38903</start>
                <end>38984</end>
                <file id="src-2"/>
                <sourcetrack>
                  <mediatype>video</mediatype>
                  <trackindex>1</trackindex>
                </sourcetrack>
                <multiclip id="mcs-627">
                  <name>MCS-627</name>
                  <masterclipid>clip-master</masterclipid>
                  <collapsed>false</collapsed>
                  <angle>
                    <activevideoangle>false</activevideoangle>
                    <activeaudioangle>false</activeaudioangle>
                    <clip id="clip-1"/>
                  </angle>
                  <angle>
                    <activevideoangle>true</activevideoangle>
                    <activeaudioangle>true</activeaudioangle>
                    <clip id="clip-2"/>
                  </angle>
                  <angle>
                    <activevideoangle>false</activevideoangle>
                    <activeaudioangle>false</activeaudioangle>
                    <clip id="clip-3"/>
                  </angle>
                  <angle>
                    <activevideoangle>false</activevideoangle>
                    <activeaudioangle>false</activeaudioangle>
                    <clip id="clip-4"/>
                  </angle>
                  <angle>
                    <activevideoangle>false</activevideoangle>
                    <activeaudioangle>false</activeaudioangle>
                    <clip id="clip-5"/>
                  </angle>
                  <angle>
                    <activevideoangle>false</activevideoangle>
                    <activeaudioangle>false</activeaudioangle>
                    <clip id="clip-6"/>
                  </angle>
                  <angle>
                    <activevideoangle>false</activevideoangle>
                    <activeaudioangle>false</activeaudioangle>
                    <clip id="clip-7"/>
                  </angle>
                  <angle>
                    <activevideoangle>false</activevideoangle>
                    <activeaudioangle>false</activeaudioangle>
                    <clip id="clip-8"/>
                  </angle>
                  <angle>
                    <activevideoangle>false</activevideoangle>
                    <activeaudioangle>false</activeaudioangle>
                    <clip id="clip-9"/>
                  </angle>
                  <masterclipid>clip-master</masterclipid>
                </multiclip>
              </clipitem>
              <clipitem id="cs-628">
                <duration>101</duration>
                <rate>
                  <ntsc>false</ntsc>
                  <timebase>25</timebase>
                </rate>
                <in>38984</in>
                <out>39084</out>
                <start>38984</start>
                <end>39084</end>
                <file id="src-7"/>
                <sourcetrack>
                  <mediatype>video</mediatype>
                  <trackindex>1</trackindex>
                </sourcetrack>
                <multiclip id="mcs-628">
                  <name>MCS-628</name>
                  <masterclipid>clip-master</masterclipid>
                  <collapsed>false</collapsed>
                  <angle>
                    <activevideoangle>false</activevideoangle>
                    <activeaudioangle>false</activeaudioangle>
                    <clip id="clip-1"/>
                  </angle>
                  <angle>
                    <activevideoangle>false</activevideoangle>
                    <activeaudioangle>false</activeaudioangle>
                    <clip id="clip-2"/>
                  </angle>
                  <angle>
                    <activevideoangle>false</activevideoangle>
                    <activeaudioangle>false</activeaudioangle>
                    <clip id="clip-3"/>
                  </angle>
                  <angle>
                    <activevideoangle>false</activevideoangle>
                    <activeaudioangle>false</activeaudioangle>
                    <clip id="clip-4"/>
                  </angle>
                  <angle>
                    <activevideoangle>false</activevideoangle>
                    <activeaudioangle>false</activeaudioangle>
                    <clip id="clip-5"/>
                  </angle>
                  <angle>
                    <activevideoangle>false</activevideoangle>
                    <activeaudioangle>false</activeaudioangle>
                    <clip id="clip-6"/>
                  </angle>
                  <angle>
                    <activevideoangle>true</activevideoangle>
                    <activeaudioangle>true</activeaudioangle>
                    <clip id="clip-7"/>
                  </angle>
                  <angle>
                    <activevideoangle>false</activevideoangle>
                    <activeaudioangle>false</activeaudioangle>
                    <clip id="clip-8"/>
                  </angle>
                  <angle>
                    <activevideoangle>false</activevideoangle>
                    <activeaudioangle>false</activeaudioangle>
                    <clip id="clip-9"/>
                  </angle>
                  <masterclipid>clip-master</masterclipid>
                </multiclip>
              </clipitem>
              <clipitem id="cs-629">
                <duration>86</duration>
                <rate>
                  <ntsc>false</ntsc>
                  <timebase>25</timebase>
                </rate>
                <in>39084</in>
                <out>39169</out>
                <start>39084</start>
                <end>39169</end>
                <file id="src-6"/>
                <sourcetrack>
                  <mediatype>video</mediatype>
                  <trackindex>1</trackindex>
                </sourcetrack>
                <multiclip id="mcs-629">
                  <name>MCS-629</name>
                  <masterclipid>clip-master</masterclipid>
                  <collapsed>false</collapsed>
                  <angle>
                    <activevideoangle>false</activevideoangle>
                    <activeaudioangle>false</activeaudioangle>
                    <clip id="clip-1"/>
                  </angle>
                  <angle>
                    <activevideoangle>false</activevideoangle>
                    <activeaudioangle>false</activeaudioangle>
                    <clip id="clip-2"/>
                  </angle>
                  <angle>
                    <activevideoangle>false</activevideoangle>
                    <activeaudioangle>false</activeaudioangle>
                    <clip id="clip-3"/>
                  </angle>
                  <angle>
                    <activevideoangle>false</activevideoangle>
                    <activeaudioangle>false</activeaudioangle>
                    <clip id="clip-4"/>
                  </angle>
                  <angle>
                    <activevideoangle>false</activevideoangle>
                    <activeaudioangle>false</activeaudioangle>
                    <clip id="clip-5"/>
                  </angle>
                  <angle>
                    <activevideoangle>true</activevideoangle>
                    <activeaudioangle>true</activeaudioangle>
                    <clip id="clip-6"/>
                  </angle>
                  <angle>
                    <activevideoangle>false</activevideoangle>
                    <activeaudioangle>false</activeaudioangle>
                    <clip id="clip-7"/>
                  </angle>
                  <angle>
                    <activevideoangle>false</activevideoangle>
                    <activeaudioangle>false</activeaudioangle>
                    <clip id="clip-8"/>
                  </angle>
                  <angle>
                    <activevideoangle>false</activevideoangle>
                    <activeaudioangle>false</activeaudioangle>
                    <clip id="clip-9"/>
                  </angle>
                  <masterclipid>clip-master</masterclipid>
                </multiclip>
              </clipitem>
              <clipitem id="cs-630">
                <duration>146</duration>
                <rate>
                  <ntsc>false</ntsc>
                  <timebase>25</timebase>
                </rate>
                <in>39169</in>
                <out>39314</out>
                <start>39169</start>
                <end>39314</end>
                <file id="src-4"/>
                <sourcetrack>
                  <mediatype>video</mediatype>
                  <trackindex>1</trackindex>
                </sourcetrack>
                <multiclip id="mcs-630">
                  <name>MCS-630</name>
                  <masterclipid>clip-master</masterclipid>
                  <collapsed>false</collapsed>
                  <angle>
                    <activevideoangle>false</activevideoangle>
                    <activeaudioangle>false</activeaudioangle>
                    <clip id="clip-1"/>
                  </angle>
                  <angle>
                    <activevideoangle>false</activevideoangle>
                    <activeaudioangle>false</activeaudioangle>
                    <clip id="clip-2"/>
                  </angle>
                  <angle>
                    <activevideoangle>false</activevideoangle>
                    <activeaudioangle>false</activeaudioangle>
                    <clip id="clip-3"/>
                  </angle>
                  <angle>
                    <activevideoangle>true</activevideoangle>
                    <activeaudioangle>true</activeaudioangle>
                    <clip id="clip-4"/>
                  </angle>
                  <angle>
                    <activevideoangle>false</activevideoangle>
                    <activeaudioangle>false</activeaudioangle>
                    <clip id="clip-5"/>
                  </angle>
                  <angle>
                    <activevideoangle>false</activevideoangle>
                    <activeaudioangle>false</activeaudioangle>
                    <clip id="clip-6"/>
                  </angle>
                  <angle>
                    <activevideoangle>false</activevideoangle>
                    <activeaudioangle>false</activeaudioangle>
                    <clip id="clip-7"/>
                  </angle>
                  <angle>
                    <activevideoangle>false</activevideoangle>
                    <activeaudioangle>false</activeaudioangle>
                    <clip id="clip-8"/>
                  </angle>
                  <angle>
                    <activevideoangle>false</activevideoangle>
                    <activeaudioangle>false</activeaudioangle>
                    <clip id="clip-9"/>
                  </angle>
                  <masterclipid>clip-master</masterclipid>
                </multiclip>
              </clipitem>
              <clipitem id="cs-631">
                <duration>201</duration>
                <rate>
                  <ntsc>false</ntsc>
                  <timebase>25</timebase>
                </rate>
                <in>39314</in>
                <out>39514</out>
                <start>39314</start>
                <end>39514</end>
                <file id="src-3"/>
                <sourcetrack>
                  <mediatype>video</mediatype>
                  <trackindex>1</trackindex>
                </sourcetrack>
                <multiclip id="mcs-631">
                  <name>MCS-631</name>
                  <masterclipid>clip-master</masterclipid>
                  <collapsed>false</collapsed>
                  <angle>
                    <activevideoangle>false</activevideoangle>
                    <activeaudioangle>false</activeaudioangle>
                    <clip id="clip-1"/>
                  </angle>
                  <angle>
                    <activevideoangle>false</activevideoangle>
                    <activeaudioangle>false</activeaudioangle>
                    <clip id="clip-2"/>
                  </angle>
                  <angle>
                    <activevideoangle>true</activevideoangle>
                    <activeaudioangle>true</activeaudioangle>
                    <clip id="clip-3"/>
                  </angle>
                  <angle>
                    <activevideoangle>false</activevideoangle>
                    <activeaudioangle>false</activeaudioangle>
                    <clip id="clip-4"/>
                  </angle>
                  <angle>
                    <activevideoangle>false</activevideoangle>
                    <activeaudioangle>false</activeaudioangle>
                    <clip id="clip-5"/>
                  </angle>
                  <angle>
                    <activevideoangle>false</activevideoangle>
                    <activeaudioangle>false</activeaudioangle>
                    <clip id="clip-6"/>
                  </angle>
                  <angle>
                    <activevideoangle>false</activevideoangle>
                    <activeaudioangle>false</activeaudioangle>
                    <clip id="clip-7"/>
                  </angle>
                  <angle>
                    <activevideoangle>false</activevideoangle>
                    <activeaudioangle>false</activeaudioangle>
                    <clip id="clip-8"/>
                  </angle>
                  <angle>
                    <activevideoangle>false</activevideoangle>
                    <activeaudioangle>false</activeaudioangle>
                    <clip id="clip-9"/>
                  </angle>
                  <masterclipid>clip-master</masterclipid>
                </multiclip>
              </clipitem>
              <clipitem id="cs-632">
                <duration>122</duration>
                <rate>
                  <ntsc>false</ntsc>
                  <timebase>25</timebase>
                </rate>
                <in>39514</in>
                <out>39635</out>
                <start>39514</start>
                <end>39635</end>
                <file id="src-4"/>
                <sourcetrack>
                  <mediatype>video</mediatype>
                  <trackindex>1</trackindex>
                </sourcetrack>
                <multiclip id="mcs-632">
                  <name>MCS-632</name>
                  <masterclipid>clip-master</masterclipid>
                  <collapsed>false</collapsed>
                  <angle>
                    <activevideoangle>false</activevideoangle>
                    <activeaudioangle>false</activeaudioangle>
                    <clip id="clip-1"/>
                  </angle>
                  <angle>
                    <activevideoangle>false</activevideoangle>
                    <activeaudioangle>false</activeaudioangle>
                    <clip id="clip-2"/>
                  </angle>
                  <angle>
                    <activevideoangle>false</activevideoangle>
                    <activeaudioangle>false</activeaudioangle>
                    <clip id="clip-3"/>
                  </angle>
                  <angle>
                    <activevideoangle>true</activevideoangle>
                    <activeaudioangle>true</activeaudioangle>
                    <clip id="clip-4"/>
                  </angle>
                  <angle>
                    <activevideoangle>false</activevideoangle>
                    <activeaudioangle>false</activeaudioangle>
                    <clip id="clip-5"/>
                  </angle>
                  <angle>
                    <activevideoangle>false</activevideoangle>
                    <activeaudioangle>false</activeaudioangle>
                    <clip id="clip-6"/>
                  </angle>
                  <angle>
                    <activevideoangle>false</activevideoangle>
                    <activeaudioangle>false</activeaudioangle>
                    <clip id="clip-7"/>
                  </angle>
                  <angle>
                    <activevideoangle>false</activevideoangle>
                    <activeaudioangle>false</activeaudioangle>
                    <clip id="clip-8"/>
                  </angle>
                  <angle>
                    <activevideoangle>false</activevideoangle>
                    <activeaudioangle>false</activeaudioangle>
                    <clip id="clip-9"/>
                  </angle>
                  <masterclipid>clip-master</masterclipid>
                </multiclip>
              </clipitem>
              <clipitem id="cs-633">
                <duration>89</duration>
                <rate>
                  <ntsc>false</ntsc>
                  <timebase>25</timebase>
                </rate>
                <in>39635</in>
                <out>39723</out>
                <start>39635</start>
                <end>39723</end>
                <file id="src-2"/>
                <sourcetrack>
                  <mediatype>video</mediatype>
                  <trackindex>1</trackindex>
                </sourcetrack>
                <multiclip id="mcs-633">
                  <name>MCS-633</name>
                  <masterclipid>clip-master</masterclipid>
                  <collapsed>false</collapsed>
                  <angle>
                    <activevideoangle>false</activevideoangle>
                    <activeaudioangle>false</activeaudioangle>
                    <clip id="clip-1"/>
                  </angle>
                  <angle>
                    <activevideoangle>true</activevideoangle>
                    <activeaudioangle>true</activeaudioangle>
                    <clip id="clip-2"/>
                  </angle>
                  <angle>
                    <activevideoangle>false</activevideoangle>
                    <activeaudioangle>false</activeaudioangle>
                    <clip id="clip-3"/>
                  </angle>
                  <angle>
                    <activevideoangle>false</activevideoangle>
                    <activeaudioangle>false</activeaudioangle>
                    <clip id="clip-4"/>
                  </angle>
                  <angle>
                    <activevideoangle>false</activevideoangle>
                    <activeaudioangle>false</activeaudioangle>
                    <clip id="clip-5"/>
                  </angle>
                  <angle>
                    <activevideoangle>false</activevideoangle>
                    <activeaudioangle>false</activeaudioangle>
                    <clip id="clip-6"/>
                  </angle>
                  <angle>
                    <activevideoangle>false</activevideoangle>
                    <activeaudioangle>false</activeaudioangle>
                    <clip id="clip-7"/>
                  </angle>
                  <angle>
                    <activevideoangle>false</activevideoangle>
                    <activeaudioangle>false</activeaudioangle>
                    <clip id="clip-8"/>
                  </angle>
                  <angle>
                    <activevideoangle>false</activevideoangle>
                    <activeaudioangle>false</activeaudioangle>
                    <clip id="clip-9"/>
                  </angle>
                  <masterclipid>clip-master</masterclipid>
                </multiclip>
              </clipitem>
              <clipitem id="cs-634">
                <duration>55</duration>
                <rate>
                  <ntsc>false</ntsc>
                  <timebase>25</timebase>
                </rate>
                <in>39723</in>
                <out>39777</out>
                <start>39723</start>
                <end>39777</end>
                <file id="src-3"/>
                <sourcetrack>
                  <mediatype>video</mediatype>
                  <trackindex>1</trackindex>
                </sourcetrack>
                <multiclip id="mcs-634">
                  <name>MCS-634</name>
                  <masterclipid>clip-master</masterclipid>
                  <collapsed>false</collapsed>
                  <angle>
                    <activevideoangle>false</activevideoangle>
                    <activeaudioangle>false</activeaudioangle>
                    <clip id="clip-1"/>
                  </angle>
                  <angle>
                    <activevideoangle>false</activevideoangle>
                    <activeaudioangle>false</activeaudioangle>
                    <clip id="clip-2"/>
                  </angle>
                  <angle>
                    <activevideoangle>true</activevideoangle>
                    <activeaudioangle>true</activeaudioangle>
                    <clip id="clip-3"/>
                  </angle>
                  <angle>
                    <activevideoangle>false</activevideoangle>
                    <activeaudioangle>false</activeaudioangle>
                    <clip id="clip-4"/>
                  </angle>
                  <angle>
                    <activevideoangle>false</activevideoangle>
                    <activeaudioangle>false</activeaudioangle>
                    <clip id="clip-5"/>
                  </angle>
                  <angle>
                    <activevideoangle>false</activevideoangle>
                    <activeaudioangle>false</activeaudioangle>
                    <clip id="clip-6"/>
                  </angle>
                  <angle>
                    <activevideoangle>false</activevideoangle>
                    <activeaudioangle>false</activeaudioangle>
                    <clip id="clip-7"/>
                  </angle>
                  <angle>
                    <activevideoangle>false</activevideoangle>
                    <activeaudioangle>false</activeaudioangle>
                    <clip id="clip-8"/>
                  </angle>
                  <angle>
                    <activevideoangle>false</activevideoangle>
                    <activeaudioangle>false</activeaudioangle>
                    <clip id="clip-9"/>
                  </angle>
                  <masterclipid>clip-master</masterclipid>
                </multiclip>
              </clipitem>
              <clipitem id="cs-635">
                <duration>92</duration>
                <rate>
                  <ntsc>false</ntsc>
                  <timebase>25</timebase>
                </rate>
                <in>39777</in>
                <out>39868</out>
                <start>39777</start>
                <end>39868</end>
                <file id="src-4"/>
                <sourcetrack>
                  <mediatype>video</mediatype>
                  <trackindex>1</trackindex>
                </sourcetrack>
                <multiclip id="mcs-635">
                  <name>MCS-635</name>
                  <masterclipid>clip-master</masterclipid>
                  <collapsed>false</collapsed>
                  <angle>
                    <activevideoangle>false</activevideoangle>
                    <activeaudioangle>false</activeaudioangle>
                    <clip id="clip-1"/>
                  </angle>
                  <angle>
                    <activevideoangle>false</activevideoangle>
                    <activeaudioangle>false</activeaudioangle>
                    <clip id="clip-2"/>
                  </angle>
                  <angle>
                    <activevideoangle>false</activevideoangle>
                    <activeaudioangle>false</activeaudioangle>
                    <clip id="clip-3"/>
                  </angle>
                  <angle>
                    <activevideoangle>true</activevideoangle>
                    <activeaudioangle>true</activeaudioangle>
                    <clip id="clip-4"/>
                  </angle>
                  <angle>
                    <activevideoangle>false</activevideoangle>
                    <activeaudioangle>false</activeaudioangle>
                    <clip id="clip-5"/>
                  </angle>
                  <angle>
                    <activevideoangle>false</activevideoangle>
                    <activeaudioangle>false</activeaudioangle>
                    <clip id="clip-6"/>
                  </angle>
                  <angle>
                    <activevideoangle>false</activevideoangle>
                    <activeaudioangle>false</activeaudioangle>
                    <clip id="clip-7"/>
                  </angle>
                  <angle>
                    <activevideoangle>false</activevideoangle>
                    <activeaudioangle>false</activeaudioangle>
                    <clip id="clip-8"/>
                  </angle>
                  <angle>
                    <activevideoangle>false</activevideoangle>
                    <activeaudioangle>false</activeaudioangle>
                    <clip id="clip-9"/>
                  </angle>
                  <masterclipid>clip-master</masterclipid>
                </multiclip>
              </clipitem>
              <clipitem id="cs-636">
                <duration>55</duration>
                <rate>
                  <ntsc>false</ntsc>
                  <timebase>25</timebase>
                </rate>
                <in>39868</in>
                <out>39922</out>
                <start>39868</start>
                <end>39922</end>
                <file id="src-3"/>
                <sourcetrack>
                  <mediatype>video</mediatype>
                  <trackindex>1</trackindex>
                </sourcetrack>
                <multiclip id="mcs-636">
                  <name>MCS-636</name>
                  <masterclipid>clip-master</masterclipid>
                  <collapsed>false</collapsed>
                  <angle>
                    <activevideoangle>false</activevideoangle>
                    <activeaudioangle>false</activeaudioangle>
                    <clip id="clip-1"/>
                  </angle>
                  <angle>
                    <activevideoangle>false</activevideoangle>
                    <activeaudioangle>false</activeaudioangle>
                    <clip id="clip-2"/>
                  </angle>
                  <angle>
                    <activevideoangle>true</activevideoangle>
                    <activeaudioangle>true</activeaudioangle>
                    <clip id="clip-3"/>
                  </angle>
                  <angle>
                    <activevideoangle>false</activevideoangle>
                    <activeaudioangle>false</activeaudioangle>
                    <clip id="clip-4"/>
                  </angle>
                  <angle>
                    <activevideoangle>false</activevideoangle>
                    <activeaudioangle>false</activeaudioangle>
                    <clip id="clip-5"/>
                  </angle>
                  <angle>
                    <activevideoangle>false</activevideoangle>
                    <activeaudioangle>false</activeaudioangle>
                    <clip id="clip-6"/>
                  </angle>
                  <angle>
                    <activevideoangle>false</activevideoangle>
                    <activeaudioangle>false</activeaudioangle>
                    <clip id="clip-7"/>
                  </angle>
                  <angle>
                    <activevideoangle>false</activevideoangle>
                    <activeaudioangle>false</activeaudioangle>
                    <clip id="clip-8"/>
                  </angle>
                  <angle>
                    <activevideoangle>false</activevideoangle>
                    <activeaudioangle>false</activeaudioangle>
                    <clip id="clip-9"/>
                  </angle>
                  <masterclipid>clip-master</masterclipid>
                </multiclip>
              </clipitem>
              <clipitem id="cs-637">
                <duration>130</duration>
                <rate>
                  <ntsc>false</ntsc>
                  <timebase>25</timebase>
                </rate>
                <in>39922</in>
                <out>40051</out>
                <start>39922</start>
                <end>40051</end>
                <file id="src-2"/>
                <sourcetrack>
                  <mediatype>video</mediatype>
                  <trackindex>1</trackindex>
                </sourcetrack>
                <multiclip id="mcs-637">
                  <name>MCS-637</name>
                  <masterclipid>clip-master</masterclipid>
                  <collapsed>false</collapsed>
                  <angle>
                    <activevideoangle>false</activevideoangle>
                    <activeaudioangle>false</activeaudioangle>
                    <clip id="clip-1"/>
                  </angle>
                  <angle>
                    <activevideoangle>true</activevideoangle>
                    <activeaudioangle>true</activeaudioangle>
                    <clip id="clip-2"/>
                  </angle>
                  <angle>
                    <activevideoangle>false</activevideoangle>
                    <activeaudioangle>false</activeaudioangle>
                    <clip id="clip-3"/>
                  </angle>
                  <angle>
                    <activevideoangle>false</activevideoangle>
                    <activeaudioangle>false</activeaudioangle>
                    <clip id="clip-4"/>
                  </angle>
                  <angle>
                    <activevideoangle>false</activevideoangle>
                    <activeaudioangle>false</activeaudioangle>
                    <clip id="clip-5"/>
                  </angle>
                  <angle>
                    <activevideoangle>false</activevideoangle>
                    <activeaudioangle>false</activeaudioangle>
                    <clip id="clip-6"/>
                  </angle>
                  <angle>
                    <activevideoangle>false</activevideoangle>
                    <activeaudioangle>false</activeaudioangle>
                    <clip id="clip-7"/>
                  </angle>
                  <angle>
                    <activevideoangle>false</activevideoangle>
                    <activeaudioangle>false</activeaudioangle>
                    <clip id="clip-8"/>
                  </angle>
                  <angle>
                    <activevideoangle>false</activevideoangle>
                    <activeaudioangle>false</activeaudioangle>
                    <clip id="clip-9"/>
                  </angle>
                  <masterclipid>clip-master</masterclipid>
                </multiclip>
              </clipitem>
              <clipitem id="cs-638">
                <duration>102</duration>
                <rate>
                  <ntsc>false</ntsc>
                  <timebase>25</timebase>
                </rate>
                <in>40051</in>
                <out>40152</out>
                <start>40051</start>
                <end>40152</end>
                <file id="src-5"/>
                <sourcetrack>
                  <mediatype>video</mediatype>
                  <trackindex>1</trackindex>
                </sourcetrack>
                <multiclip id="mcs-638">
                  <name>MCS-638</name>
                  <masterclipid>clip-master</masterclipid>
                  <collapsed>false</collapsed>
                  <angle>
                    <activevideoangle>false</activevideoangle>
                    <activeaudioangle>false</activeaudioangle>
                    <clip id="clip-1"/>
                  </angle>
                  <angle>
                    <activevideoangle>false</activevideoangle>
                    <activeaudioangle>false</activeaudioangle>
                    <clip id="clip-2"/>
                  </angle>
                  <angle>
                    <activevideoangle>false</activevideoangle>
                    <activeaudioangle>false</activeaudioangle>
                    <clip id="clip-3"/>
                  </angle>
                  <angle>
                    <activevideoangle>false</activevideoangle>
                    <activeaudioangle>false</activeaudioangle>
                    <clip id="clip-4"/>
                  </angle>
                  <angle>
                    <activevideoangle>true</activevideoangle>
                    <activeaudioangle>true</activeaudioangle>
                    <clip id="clip-5"/>
                  </angle>
                  <angle>
                    <activevideoangle>false</activevideoangle>
                    <activeaudioangle>false</activeaudioangle>
                    <clip id="clip-6"/>
                  </angle>
                  <angle>
                    <activevideoangle>false</activevideoangle>
                    <activeaudioangle>false</activeaudioangle>
                    <clip id="clip-7"/>
                  </angle>
                  <angle>
                    <activevideoangle>false</activevideoangle>
                    <activeaudioangle>false</activeaudioangle>
                    <clip id="clip-8"/>
                  </angle>
                  <angle>
                    <activevideoangle>false</activevideoangle>
                    <activeaudioangle>false</activeaudioangle>
                    <clip id="clip-9"/>
                  </angle>
                  <masterclipid>clip-master</masterclipid>
                </multiclip>
              </clipitem>
              <clipitem id="cs-639">
                <duration>70</duration>
                <rate>
                  <ntsc>false</ntsc>
                  <timebase>25</timebase>
                </rate>
                <in>40152</in>
                <out>40221</out>
                <start>40152</start>
                <end>40221</end>
                <file id="src-4"/>
                <sourcetrack>
                  <mediatype>video</mediatype>
                  <trackindex>1</trackindex>
                </sourcetrack>
                <multiclip id="mcs-639">
                  <name>MCS-639</name>
                  <masterclipid>clip-master</masterclipid>
                  <collapsed>false</collapsed>
                  <angle>
                    <activevideoangle>false</activevideoangle>
                    <activeaudioangle>false</activeaudioangle>
                    <clip id="clip-1"/>
                  </angle>
                  <angle>
                    <activevideoangle>false</activevideoangle>
                    <activeaudioangle>false</activeaudioangle>
                    <clip id="clip-2"/>
                  </angle>
                  <angle>
                    <activevideoangle>false</activevideoangle>
                    <activeaudioangle>false</activeaudioangle>
                    <clip id="clip-3"/>
                  </angle>
                  <angle>
                    <activevideoangle>true</activevideoangle>
                    <activeaudioangle>true</activeaudioangle>
                    <clip id="clip-4"/>
                  </angle>
                  <angle>
                    <activevideoangle>false</activevideoangle>
                    <activeaudioangle>false</activeaudioangle>
                    <clip id="clip-5"/>
                  </angle>
                  <angle>
                    <activevideoangle>false</activevideoangle>
                    <activeaudioangle>false</activeaudioangle>
                    <clip id="clip-6"/>
                  </angle>
                  <angle>
                    <activevideoangle>false</activevideoangle>
                    <activeaudioangle>false</activeaudioangle>
                    <clip id="clip-7"/>
                  </angle>
                  <angle>
                    <activevideoangle>false</activevideoangle>
                    <activeaudioangle>false</activeaudioangle>
                    <clip id="clip-8"/>
                  </angle>
                  <angle>
                    <activevideoangle>false</activevideoangle>
                    <activeaudioangle>false</activeaudioangle>
                    <clip id="clip-9"/>
                  </angle>
                  <masterclipid>clip-master</masterclipid>
                </multiclip>
              </clipitem>
              <clipitem id="cs-640">
                <duration>60</duration>
                <rate>
                  <ntsc>false</ntsc>
                  <timebase>25</timebase>
                </rate>
                <in>40221</in>
                <out>40280</out>
                <start>40221</start>
                <end>40280</end>
                <file id="src-3"/>
                <sourcetrack>
                  <mediatype>video</mediatype>
                  <trackindex>1</trackindex>
                </sourcetrack>
                <multiclip id="mcs-640">
                  <name>MCS-640</name>
                  <masterclipid>clip-master</masterclipid>
                  <collapsed>false</collapsed>
                  <angle>
                    <activevideoangle>false</activevideoangle>
                    <activeaudioangle>false</activeaudioangle>
                    <clip id="clip-1"/>
                  </angle>
                  <angle>
                    <activevideoangle>false</activevideoangle>
                    <activeaudioangle>false</activeaudioangle>
                    <clip id="clip-2"/>
                  </angle>
                  <angle>
                    <activevideoangle>true</activevideoangle>
                    <activeaudioangle>true</activeaudioangle>
                    <clip id="clip-3"/>
                  </angle>
                  <angle>
                    <activevideoangle>false</activevideoangle>
                    <activeaudioangle>false</activeaudioangle>
                    <clip id="clip-4"/>
                  </angle>
                  <angle>
                    <activevideoangle>false</activevideoangle>
                    <activeaudioangle>false</activeaudioangle>
                    <clip id="clip-5"/>
                  </angle>
                  <angle>
                    <activevideoangle>false</activevideoangle>
                    <activeaudioangle>false</activeaudioangle>
                    <clip id="clip-6"/>
                  </angle>
                  <angle>
                    <activevideoangle>false</activevideoangle>
                    <activeaudioangle>false</activeaudioangle>
                    <clip id="clip-7"/>
                  </angle>
                  <angle>
                    <activevideoangle>false</activevideoangle>
                    <activeaudioangle>false</activeaudioangle>
                    <clip id="clip-8"/>
                  </angle>
                  <angle>
                    <activevideoangle>false</activevideoangle>
                    <activeaudioangle>false</activeaudioangle>
                    <clip id="clip-9"/>
                  </angle>
                  <masterclipid>clip-master</masterclipid>
                </multiclip>
              </clipitem>
              <clipitem id="cs-641">
                <duration>119</duration>
                <rate>
                  <ntsc>false</ntsc>
                  <timebase>25</timebase>
                </rate>
                <in>40280</in>
                <out>40398</out>
                <start>40280</start>
                <end>40398</end>
                <file id="src-2"/>
                <sourcetrack>
                  <mediatype>video</mediatype>
                  <trackindex>1</trackindex>
                </sourcetrack>
                <multiclip id="mcs-641">
                  <name>MCS-641</name>
                  <masterclipid>clip-master</masterclipid>
                  <collapsed>false</collapsed>
                  <angle>
                    <activevideoangle>false</activevideoangle>
                    <activeaudioangle>false</activeaudioangle>
                    <clip id="clip-1"/>
                  </angle>
                  <angle>
                    <activevideoangle>true</activevideoangle>
                    <activeaudioangle>true</activeaudioangle>
                    <clip id="clip-2"/>
                  </angle>
                  <angle>
                    <activevideoangle>false</activevideoangle>
                    <activeaudioangle>false</activeaudioangle>
                    <clip id="clip-3"/>
                  </angle>
                  <angle>
                    <activevideoangle>false</activevideoangle>
                    <activeaudioangle>false</activeaudioangle>
                    <clip id="clip-4"/>
                  </angle>
                  <angle>
                    <activevideoangle>false</activevideoangle>
                    <activeaudioangle>false</activeaudioangle>
                    <clip id="clip-5"/>
                  </angle>
                  <angle>
                    <activevideoangle>false</activevideoangle>
                    <activeaudioangle>false</activeaudioangle>
                    <clip id="clip-6"/>
                  </angle>
                  <angle>
                    <activevideoangle>false</activevideoangle>
                    <activeaudioangle>false</activeaudioangle>
                    <clip id="clip-7"/>
                  </angle>
                  <angle>
                    <activevideoangle>false</activevideoangle>
                    <activeaudioangle>false</activeaudioangle>
                    <clip id="clip-8"/>
                  </angle>
                  <angle>
                    <activevideoangle>false</activevideoangle>
                    <activeaudioangle>false</activeaudioangle>
                    <clip id="clip-9"/>
                  </angle>
                  <masterclipid>clip-master</masterclipid>
                </multiclip>
              </clipitem>
              <clipitem id="cs-642">
                <duration>137</duration>
                <rate>
                  <ntsc>false</ntsc>
                  <timebase>25</timebase>
                </rate>
                <in>40398</in>
                <out>40534</out>
                <start>40398</start>
                <end>40534</end>
                <file id="src-3"/>
                <sourcetrack>
                  <mediatype>video</mediatype>
                  <trackindex>1</trackindex>
                </sourcetrack>
                <multiclip id="mcs-642">
                  <name>MCS-642</name>
                  <masterclipid>clip-master</masterclipid>
                  <collapsed>false</collapsed>
                  <angle>
                    <activevideoangle>false</activevideoangle>
                    <activeaudioangle>false</activeaudioangle>
                    <clip id="clip-1"/>
                  </angle>
                  <angle>
                    <activevideoangle>false</activevideoangle>
                    <activeaudioangle>false</activeaudioangle>
                    <clip id="clip-2"/>
                  </angle>
                  <angle>
                    <activevideoangle>true</activevideoangle>
                    <activeaudioangle>true</activeaudioangle>
                    <clip id="clip-3"/>
                  </angle>
                  <angle>
                    <activevideoangle>false</activevideoangle>
                    <activeaudioangle>false</activeaudioangle>
                    <clip id="clip-4"/>
                  </angle>
                  <angle>
                    <activevideoangle>false</activevideoangle>
                    <activeaudioangle>false</activeaudioangle>
                    <clip id="clip-5"/>
                  </angle>
                  <angle>
                    <activevideoangle>false</activevideoangle>
                    <activeaudioangle>false</activeaudioangle>
                    <clip id="clip-6"/>
                  </angle>
                  <angle>
                    <activevideoangle>false</activevideoangle>
                    <activeaudioangle>false</activeaudioangle>
                    <clip id="clip-7"/>
                  </angle>
                  <angle>
                    <activevideoangle>false</activevideoangle>
                    <activeaudioangle>false</activeaudioangle>
                    <clip id="clip-8"/>
                  </angle>
                  <angle>
                    <activevideoangle>false</activevideoangle>
                    <activeaudioangle>false</activeaudioangle>
                    <clip id="clip-9"/>
                  </angle>
                  <masterclipid>clip-master</masterclipid>
                </multiclip>
              </clipitem>
              <clipitem id="cs-643">
                <duration>111</duration>
                <rate>
                  <ntsc>false</ntsc>
                  <timebase>25</timebase>
                </rate>
                <in>40534</in>
                <out>40644</out>
                <start>40534</start>
                <end>40644</end>
                <file id="src-4"/>
                <sourcetrack>
                  <mediatype>video</mediatype>
                  <trackindex>1</trackindex>
                </sourcetrack>
                <multiclip id="mcs-643">
                  <name>MCS-643</name>
                  <masterclipid>clip-master</masterclipid>
                  <collapsed>false</collapsed>
                  <angle>
                    <activevideoangle>false</activevideoangle>
                    <activeaudioangle>false</activeaudioangle>
                    <clip id="clip-1"/>
                  </angle>
                  <angle>
                    <activevideoangle>false</activevideoangle>
                    <activeaudioangle>false</activeaudioangle>
                    <clip id="clip-2"/>
                  </angle>
                  <angle>
                    <activevideoangle>false</activevideoangle>
                    <activeaudioangle>false</activeaudioangle>
                    <clip id="clip-3"/>
                  </angle>
                  <angle>
                    <activevideoangle>true</activevideoangle>
                    <activeaudioangle>true</activeaudioangle>
                    <clip id="clip-4"/>
                  </angle>
                  <angle>
                    <activevideoangle>false</activevideoangle>
                    <activeaudioangle>false</activeaudioangle>
                    <clip id="clip-5"/>
                  </angle>
                  <angle>
                    <activevideoangle>false</activevideoangle>
                    <activeaudioangle>false</activeaudioangle>
                    <clip id="clip-6"/>
                  </angle>
                  <angle>
                    <activevideoangle>false</activevideoangle>
                    <activeaudioangle>false</activeaudioangle>
                    <clip id="clip-7"/>
                  </angle>
                  <angle>
                    <activevideoangle>false</activevideoangle>
                    <activeaudioangle>false</activeaudioangle>
                    <clip id="clip-8"/>
                  </angle>
                  <angle>
                    <activevideoangle>false</activevideoangle>
                    <activeaudioangle>false</activeaudioangle>
                    <clip id="clip-9"/>
                  </angle>
                  <masterclipid>clip-master</masterclipid>
                </multiclip>
              </clipitem>
              <clipitem id="cs-644">
                <duration>72</duration>
                <rate>
                  <ntsc>false</ntsc>
                  <timebase>25</timebase>
                </rate>
                <in>40644</in>
                <out>40715</out>
                <start>40644</start>
                <end>40715</end>
                <file id="src-2"/>
                <sourcetrack>
                  <mediatype>video</mediatype>
                  <trackindex>1</trackindex>
                </sourcetrack>
                <multiclip id="mcs-644">
                  <name>MCS-644</name>
                  <masterclipid>clip-master</masterclipid>
                  <collapsed>false</collapsed>
                  <angle>
                    <activevideoangle>false</activevideoangle>
                    <activeaudioangle>false</activeaudioangle>
                    <clip id="clip-1"/>
                  </angle>
                  <angle>
                    <activevideoangle>true</activevideoangle>
                    <activeaudioangle>true</activeaudioangle>
                    <clip id="clip-2"/>
                  </angle>
                  <angle>
                    <activevideoangle>false</activevideoangle>
                    <activeaudioangle>false</activeaudioangle>
                    <clip id="clip-3"/>
                  </angle>
                  <angle>
                    <activevideoangle>false</activevideoangle>
                    <activeaudioangle>false</activeaudioangle>
                    <clip id="clip-4"/>
                  </angle>
                  <angle>
                    <activevideoangle>false</activevideoangle>
                    <activeaudioangle>false</activeaudioangle>
                    <clip id="clip-5"/>
                  </angle>
                  <angle>
                    <activevideoangle>false</activevideoangle>
                    <activeaudioangle>false</activeaudioangle>
                    <clip id="clip-6"/>
                  </angle>
                  <angle>
                    <activevideoangle>false</activevideoangle>
                    <activeaudioangle>false</activeaudioangle>
                    <clip id="clip-7"/>
                  </angle>
                  <angle>
                    <activevideoangle>false</activevideoangle>
                    <activeaudioangle>false</activeaudioangle>
                    <clip id="clip-8"/>
                  </angle>
                  <angle>
                    <activevideoangle>false</activevideoangle>
                    <activeaudioangle>false</activeaudioangle>
                    <clip id="clip-9"/>
                  </angle>
                  <masterclipid>clip-master</masterclipid>
                </multiclip>
              </clipitem>
              <clipitem id="cs-645">
                <duration>122</duration>
                <rate>
                  <ntsc>false</ntsc>
                  <timebase>25</timebase>
                </rate>
                <in>40715</in>
                <out>40836</out>
                <start>40715</start>
                <end>40836</end>
                <file id="src-3"/>
                <sourcetrack>
                  <mediatype>video</mediatype>
                  <trackindex>1</trackindex>
                </sourcetrack>
                <multiclip id="mcs-645">
                  <name>MCS-645</name>
                  <masterclipid>clip-master</masterclipid>
                  <collapsed>false</collapsed>
                  <angle>
                    <activevideoangle>false</activevideoangle>
                    <activeaudioangle>false</activeaudioangle>
                    <clip id="clip-1"/>
                  </angle>
                  <angle>
                    <activevideoangle>false</activevideoangle>
                    <activeaudioangle>false</activeaudioangle>
                    <clip id="clip-2"/>
                  </angle>
                  <angle>
                    <activevideoangle>true</activevideoangle>
                    <activeaudioangle>true</activeaudioangle>
                    <clip id="clip-3"/>
                  </angle>
                  <angle>
                    <activevideoangle>false</activevideoangle>
                    <activeaudioangle>false</activeaudioangle>
                    <clip id="clip-4"/>
                  </angle>
                  <angle>
                    <activevideoangle>false</activevideoangle>
                    <activeaudioangle>false</activeaudioangle>
                    <clip id="clip-5"/>
                  </angle>
                  <angle>
                    <activevideoangle>false</activevideoangle>
                    <activeaudioangle>false</activeaudioangle>
                    <clip id="clip-6"/>
                  </angle>
                  <angle>
                    <activevideoangle>false</activevideoangle>
                    <activeaudioangle>false</activeaudioangle>
                    <clip id="clip-7"/>
                  </angle>
                  <angle>
                    <activevideoangle>false</activevideoangle>
                    <activeaudioangle>false</activeaudioangle>
                    <clip id="clip-8"/>
                  </angle>
                  <angle>
                    <activevideoangle>false</activevideoangle>
                    <activeaudioangle>false</activeaudioangle>
                    <clip id="clip-9"/>
                  </angle>
                  <masterclipid>clip-master</masterclipid>
                </multiclip>
              </clipitem>
              <clipitem id="cs-646">
                <duration>68</duration>
                <rate>
                  <ntsc>false</ntsc>
                  <timebase>25</timebase>
                </rate>
                <in>40836</in>
                <out>40903</out>
                <start>40836</start>
                <end>40903</end>
                <file id="src-4"/>
                <sourcetrack>
                  <mediatype>video</mediatype>
                  <trackindex>1</trackindex>
                </sourcetrack>
                <multiclip id="mcs-646">
                  <name>MCS-646</name>
                  <masterclipid>clip-master</masterclipid>
                  <collapsed>false</collapsed>
                  <angle>
                    <activevideoangle>false</activevideoangle>
                    <activeaudioangle>false</activeaudioangle>
                    <clip id="clip-1"/>
                  </angle>
                  <angle>
                    <activevideoangle>false</activevideoangle>
                    <activeaudioangle>false</activeaudioangle>
                    <clip id="clip-2"/>
                  </angle>
                  <angle>
                    <activevideoangle>false</activevideoangle>
                    <activeaudioangle>false</activeaudioangle>
                    <clip id="clip-3"/>
                  </angle>
                  <angle>
                    <activevideoangle>true</activevideoangle>
                    <activeaudioangle>true</activeaudioangle>
                    <clip id="clip-4"/>
                  </angle>
                  <angle>
                    <activevideoangle>false</activevideoangle>
                    <activeaudioangle>false</activeaudioangle>
                    <clip id="clip-5"/>
                  </angle>
                  <angle>
                    <activevideoangle>false</activevideoangle>
                    <activeaudioangle>false</activeaudioangle>
                    <clip id="clip-6"/>
                  </angle>
                  <angle>
                    <activevideoangle>false</activevideoangle>
                    <activeaudioangle>false</activeaudioangle>
                    <clip id="clip-7"/>
                  </angle>
                  <angle>
                    <activevideoangle>false</activevideoangle>
                    <activeaudioangle>false</activeaudioangle>
                    <clip id="clip-8"/>
                  </angle>
                  <angle>
                    <activevideoangle>false</activevideoangle>
                    <activeaudioangle>false</activeaudioangle>
                    <clip id="clip-9"/>
                  </angle>
                  <masterclipid>clip-master</masterclipid>
                </multiclip>
              </clipitem>
              <clipitem id="cs-647">
                <duration>229</duration>
                <rate>
                  <ntsc>false</ntsc>
                  <timebase>25</timebase>
                </rate>
                <in>40903</in>
                <out>41131</out>
                <start>40903</start>
                <end>41131</end>
                <file id="src-3"/>
                <sourcetrack>
                  <mediatype>video</mediatype>
                  <trackindex>1</trackindex>
                </sourcetrack>
                <multiclip id="mcs-647">
                  <name>MCS-647</name>
                  <masterclipid>clip-master</masterclipid>
                  <collapsed>false</collapsed>
                  <angle>
                    <activevideoangle>false</activevideoangle>
                    <activeaudioangle>false</activeaudioangle>
                    <clip id="clip-1"/>
                  </angle>
                  <angle>
                    <activevideoangle>false</activevideoangle>
                    <activeaudioangle>false</activeaudioangle>
                    <clip id="clip-2"/>
                  </angle>
                  <angle>
                    <activevideoangle>true</activevideoangle>
                    <activeaudioangle>true</activeaudioangle>
                    <clip id="clip-3"/>
                  </angle>
                  <angle>
                    <activevideoangle>false</activevideoangle>
                    <activeaudioangle>false</activeaudioangle>
                    <clip id="clip-4"/>
                  </angle>
                  <angle>
                    <activevideoangle>false</activevideoangle>
                    <activeaudioangle>false</activeaudioangle>
                    <clip id="clip-5"/>
                  </angle>
                  <angle>
                    <activevideoangle>false</activevideoangle>
                    <activeaudioangle>false</activeaudioangle>
                    <clip id="clip-6"/>
                  </angle>
                  <angle>
                    <activevideoangle>false</activevideoangle>
                    <activeaudioangle>false</activeaudioangle>
                    <clip id="clip-7"/>
                  </angle>
                  <angle>
                    <activevideoangle>false</activevideoangle>
                    <activeaudioangle>false</activeaudioangle>
                    <clip id="clip-8"/>
                  </angle>
                  <angle>
                    <activevideoangle>false</activevideoangle>
                    <activeaudioangle>false</activeaudioangle>
                    <clip id="clip-9"/>
                  </angle>
                  <masterclipid>clip-master</masterclipid>
                </multiclip>
              </clipitem>
              <clipitem id="cs-648">
                <duration>105</duration>
                <rate>
                  <ntsc>false</ntsc>
                  <timebase>25</timebase>
                </rate>
                <in>41131</in>
                <out>41235</out>
                <start>41131</start>
                <end>41235</end>
                <file id="src-4"/>
                <sourcetrack>
                  <mediatype>video</mediatype>
                  <trackindex>1</trackindex>
                </sourcetrack>
                <multiclip id="mcs-648">
                  <name>MCS-648</name>
                  <masterclipid>clip-master</masterclipid>
                  <collapsed>false</collapsed>
                  <angle>
                    <activevideoangle>false</activevideoangle>
                    <activeaudioangle>false</activeaudioangle>
                    <clip id="clip-1"/>
                  </angle>
                  <angle>
                    <activevideoangle>false</activevideoangle>
                    <activeaudioangle>false</activeaudioangle>
                    <clip id="clip-2"/>
                  </angle>
                  <angle>
                    <activevideoangle>false</activevideoangle>
                    <activeaudioangle>false</activeaudioangle>
                    <clip id="clip-3"/>
                  </angle>
                  <angle>
                    <activevideoangle>true</activevideoangle>
                    <activeaudioangle>true</activeaudioangle>
                    <clip id="clip-4"/>
                  </angle>
                  <angle>
                    <activevideoangle>false</activevideoangle>
                    <activeaudioangle>false</activeaudioangle>
                    <clip id="clip-5"/>
                  </angle>
                  <angle>
                    <activevideoangle>false</activevideoangle>
                    <activeaudioangle>false</activeaudioangle>
                    <clip id="clip-6"/>
                  </angle>
                  <angle>
                    <activevideoangle>false</activevideoangle>
                    <activeaudioangle>false</activeaudioangle>
                    <clip id="clip-7"/>
                  </angle>
                  <angle>
                    <activevideoangle>false</activevideoangle>
                    <activeaudioangle>false</activeaudioangle>
                    <clip id="clip-8"/>
                  </angle>
                  <angle>
                    <activevideoangle>false</activevideoangle>
                    <activeaudioangle>false</activeaudioangle>
                    <clip id="clip-9"/>
                  </angle>
                  <masterclipid>clip-master</masterclipid>
                </multiclip>
              </clipitem>
              <clipitem id="cs-649">
                <duration>61</duration>
                <rate>
                  <ntsc>false</ntsc>
                  <timebase>25</timebase>
                </rate>
                <in>41235</in>
                <out>41295</out>
                <start>41235</start>
                <end>41295</end>
                <file id="src-3"/>
                <sourcetrack>
                  <mediatype>video</mediatype>
                  <trackindex>1</trackindex>
                </sourcetrack>
                <multiclip id="mcs-649">
                  <name>MCS-649</name>
                  <masterclipid>clip-master</masterclipid>
                  <collapsed>false</collapsed>
                  <angle>
                    <activevideoangle>false</activevideoangle>
                    <activeaudioangle>false</activeaudioangle>
                    <clip id="clip-1"/>
                  </angle>
                  <angle>
                    <activevideoangle>false</activevideoangle>
                    <activeaudioangle>false</activeaudioangle>
                    <clip id="clip-2"/>
                  </angle>
                  <angle>
                    <activevideoangle>true</activevideoangle>
                    <activeaudioangle>true</activeaudioangle>
                    <clip id="clip-3"/>
                  </angle>
                  <angle>
                    <activevideoangle>false</activevideoangle>
                    <activeaudioangle>false</activeaudioangle>
                    <clip id="clip-4"/>
                  </angle>
                  <angle>
                    <activevideoangle>false</activevideoangle>
                    <activeaudioangle>false</activeaudioangle>
                    <clip id="clip-5"/>
                  </angle>
                  <angle>
                    <activevideoangle>false</activevideoangle>
                    <activeaudioangle>false</activeaudioangle>
                    <clip id="clip-6"/>
                  </angle>
                  <angle>
                    <activevideoangle>false</activevideoangle>
                    <activeaudioangle>false</activeaudioangle>
                    <clip id="clip-7"/>
                  </angle>
                  <angle>
                    <activevideoangle>false</activevideoangle>
                    <activeaudioangle>false</activeaudioangle>
                    <clip id="clip-8"/>
                  </angle>
                  <angle>
                    <activevideoangle>false</activevideoangle>
                    <activeaudioangle>false</activeaudioangle>
                    <clip id="clip-9"/>
                  </angle>
                  <masterclipid>clip-master</masterclipid>
                </multiclip>
              </clipitem>
              <clipitem id="cs-650">
                <duration>65</duration>
                <rate>
                  <ntsc>false</ntsc>
                  <timebase>25</timebase>
                </rate>
                <in>41295</in>
                <out>41359</out>
                <start>41295</start>
                <end>41359</end>
                <file id="src-5"/>
                <sourcetrack>
                  <mediatype>video</mediatype>
                  <trackindex>1</trackindex>
                </sourcetrack>
                <multiclip id="mcs-650">
                  <name>MCS-650</name>
                  <masterclipid>clip-master</masterclipid>
                  <collapsed>false</collapsed>
                  <angle>
                    <activevideoangle>false</activevideoangle>
                    <activeaudioangle>false</activeaudioangle>
                    <clip id="clip-1"/>
                  </angle>
                  <angle>
                    <activevideoangle>false</activevideoangle>
                    <activeaudioangle>false</activeaudioangle>
                    <clip id="clip-2"/>
                  </angle>
                  <angle>
                    <activevideoangle>false</activevideoangle>
                    <activeaudioangle>false</activeaudioangle>
                    <clip id="clip-3"/>
                  </angle>
                  <angle>
                    <activevideoangle>false</activevideoangle>
                    <activeaudioangle>false</activeaudioangle>
                    <clip id="clip-4"/>
                  </angle>
                  <angle>
                    <activevideoangle>true</activevideoangle>
                    <activeaudioangle>true</activeaudioangle>
                    <clip id="clip-5"/>
                  </angle>
                  <angle>
                    <activevideoangle>false</activevideoangle>
                    <activeaudioangle>false</activeaudioangle>
                    <clip id="clip-6"/>
                  </angle>
                  <angle>
                    <activevideoangle>false</activevideoangle>
                    <activeaudioangle>false</activeaudioangle>
                    <clip id="clip-7"/>
                  </angle>
                  <angle>
                    <activevideoangle>false</activevideoangle>
                    <activeaudioangle>false</activeaudioangle>
                    <clip id="clip-8"/>
                  </angle>
                  <angle>
                    <activevideoangle>false</activevideoangle>
                    <activeaudioangle>false</activeaudioangle>
                    <clip id="clip-9"/>
                  </angle>
                  <masterclipid>clip-master</masterclipid>
                </multiclip>
              </clipitem>
              <clipitem id="cs-651">
                <duration>82</duration>
                <rate>
                  <ntsc>false</ntsc>
                  <timebase>25</timebase>
                </rate>
                <in>41359</in>
                <out>41440</out>
                <start>41359</start>
                <end>41440</end>
                <file id="src-2"/>
                <sourcetrack>
                  <mediatype>video</mediatype>
                  <trackindex>1</trackindex>
                </sourcetrack>
                <multiclip id="mcs-651">
                  <name>MCS-651</name>
                  <masterclipid>clip-master</masterclipid>
                  <collapsed>false</collapsed>
                  <angle>
                    <activevideoangle>false</activevideoangle>
                    <activeaudioangle>false</activeaudioangle>
                    <clip id="clip-1"/>
                  </angle>
                  <angle>
                    <activevideoangle>true</activevideoangle>
                    <activeaudioangle>true</activeaudioangle>
                    <clip id="clip-2"/>
                  </angle>
                  <angle>
                    <activevideoangle>false</activevideoangle>
                    <activeaudioangle>false</activeaudioangle>
                    <clip id="clip-3"/>
                  </angle>
                  <angle>
                    <activevideoangle>false</activevideoangle>
                    <activeaudioangle>false</activeaudioangle>
                    <clip id="clip-4"/>
                  </angle>
                  <angle>
                    <activevideoangle>false</activevideoangle>
                    <activeaudioangle>false</activeaudioangle>
                    <clip id="clip-5"/>
                  </angle>
                  <angle>
                    <activevideoangle>false</activevideoangle>
                    <activeaudioangle>false</activeaudioangle>
                    <clip id="clip-6"/>
                  </angle>
                  <angle>
                    <activevideoangle>false</activevideoangle>
                    <activeaudioangle>false</activeaudioangle>
                    <clip id="clip-7"/>
                  </angle>
                  <angle>
                    <activevideoangle>false</activevideoangle>
                    <activeaudioangle>false</activeaudioangle>
                    <clip id="clip-8"/>
                  </angle>
                  <angle>
                    <activevideoangle>false</activevideoangle>
                    <activeaudioangle>false</activeaudioangle>
                    <clip id="clip-9"/>
                  </angle>
                  <masterclipid>clip-master</masterclipid>
                </multiclip>
              </clipitem>
              <clipitem id="cs-652">
                <duration>58</duration>
                <rate>
                  <ntsc>false</ntsc>
                  <timebase>25</timebase>
                </rate>
                <in>41440</in>
                <out>41497</out>
                <start>41440</start>
                <end>41497</end>
                <file id="src-7"/>
                <sourcetrack>
                  <mediatype>video</mediatype>
                  <trackindex>1</trackindex>
                </sourcetrack>
                <multiclip id="mcs-652">
                  <name>MCS-652</name>
                  <masterclipid>clip-master</masterclipid>
                  <collapsed>false</collapsed>
                  <angle>
                    <activevideoangle>false</activevideoangle>
                    <activeaudioangle>false</activeaudioangle>
                    <clip id="clip-1"/>
                  </angle>
                  <angle>
                    <activevideoangle>false</activevideoangle>
                    <activeaudioangle>false</activeaudioangle>
                    <clip id="clip-2"/>
                  </angle>
                  <angle>
                    <activevideoangle>false</activevideoangle>
                    <activeaudioangle>false</activeaudioangle>
                    <clip id="clip-3"/>
                  </angle>
                  <angle>
                    <activevideoangle>false</activevideoangle>
                    <activeaudioangle>false</activeaudioangle>
                    <clip id="clip-4"/>
                  </angle>
                  <angle>
                    <activevideoangle>false</activevideoangle>
                    <activeaudioangle>false</activeaudioangle>
                    <clip id="clip-5"/>
                  </angle>
                  <angle>
                    <activevideoangle>false</activevideoangle>
                    <activeaudioangle>false</activeaudioangle>
                    <clip id="clip-6"/>
                  </angle>
                  <angle>
                    <activevideoangle>true</activevideoangle>
                    <activeaudioangle>true</activeaudioangle>
                    <clip id="clip-7"/>
                  </angle>
                  <angle>
                    <activevideoangle>false</activevideoangle>
                    <activeaudioangle>false</activeaudioangle>
                    <clip id="clip-8"/>
                  </angle>
                  <angle>
                    <activevideoangle>false</activevideoangle>
                    <activeaudioangle>false</activeaudioangle>
                    <clip id="clip-9"/>
                  </angle>
                  <masterclipid>clip-master</masterclipid>
                </multiclip>
              </clipitem>
              <clipitem id="cs-653">
                <duration>80</duration>
                <rate>
                  <ntsc>false</ntsc>
                  <timebase>25</timebase>
                </rate>
                <in>41497</in>
                <out>41576</out>
                <start>41497</start>
                <end>41576</end>
                <file id="src-8"/>
                <sourcetrack>
                  <mediatype>video</mediatype>
                  <trackindex>1</trackindex>
                </sourcetrack>
                <multiclip id="mcs-653">
                  <name>MCS-653</name>
                  <masterclipid>clip-master</masterclipid>
                  <collapsed>false</collapsed>
                  <angle>
                    <activevideoangle>false</activevideoangle>
                    <activeaudioangle>false</activeaudioangle>
                    <clip id="clip-1"/>
                  </angle>
                  <angle>
                    <activevideoangle>false</activevideoangle>
                    <activeaudioangle>false</activeaudioangle>
                    <clip id="clip-2"/>
                  </angle>
                  <angle>
                    <activevideoangle>false</activevideoangle>
                    <activeaudioangle>false</activeaudioangle>
                    <clip id="clip-3"/>
                  </angle>
                  <angle>
                    <activevideoangle>false</activevideoangle>
                    <activeaudioangle>false</activeaudioangle>
                    <clip id="clip-4"/>
                  </angle>
                  <angle>
                    <activevideoangle>false</activevideoangle>
                    <activeaudioangle>false</activeaudioangle>
                    <clip id="clip-5"/>
                  </angle>
                  <angle>
                    <activevideoangle>false</activevideoangle>
                    <activeaudioangle>false</activeaudioangle>
                    <clip id="clip-6"/>
                  </angle>
                  <angle>
                    <activevideoangle>false</activevideoangle>
                    <activeaudioangle>false</activeaudioangle>
                    <clip id="clip-7"/>
                  </angle>
                  <angle>
                    <activevideoangle>true</activevideoangle>
                    <activeaudioangle>true</activeaudioangle>
                    <clip id="clip-8"/>
                  </angle>
                  <angle>
                    <activevideoangle>false</activevideoangle>
                    <activeaudioangle>false</activeaudioangle>
                    <clip id="clip-9"/>
                  </angle>
                  <masterclipid>clip-master</masterclipid>
                </multiclip>
              </clipitem>
              <clipitem id="cs-654">
                <duration>208</duration>
                <rate>
                  <ntsc>false</ntsc>
                  <timebase>25</timebase>
                </rate>
                <in>41576</in>
                <out>41783</out>
                <start>41576</start>
                <end>41783</end>
                <file id="src-4"/>
                <sourcetrack>
                  <mediatype>video</mediatype>
                  <trackindex>1</trackindex>
                </sourcetrack>
                <multiclip id="mcs-654">
                  <name>MCS-654</name>
                  <masterclipid>clip-master</masterclipid>
                  <collapsed>false</collapsed>
                  <angle>
                    <activevideoangle>false</activevideoangle>
                    <activeaudioangle>false</activeaudioangle>
                    <clip id="clip-1"/>
                  </angle>
                  <angle>
                    <activevideoangle>false</activevideoangle>
                    <activeaudioangle>false</activeaudioangle>
                    <clip id="clip-2"/>
                  </angle>
                  <angle>
                    <activevideoangle>false</activevideoangle>
                    <activeaudioangle>false</activeaudioangle>
                    <clip id="clip-3"/>
                  </angle>
                  <angle>
                    <activevideoangle>true</activevideoangle>
                    <activeaudioangle>true</activeaudioangle>
                    <clip id="clip-4"/>
                  </angle>
                  <angle>
                    <activevideoangle>false</activevideoangle>
                    <activeaudioangle>false</activeaudioangle>
                    <clip id="clip-5"/>
                  </angle>
                  <angle>
                    <activevideoangle>false</activevideoangle>
                    <activeaudioangle>false</activeaudioangle>
                    <clip id="clip-6"/>
                  </angle>
                  <angle>
                    <activevideoangle>false</activevideoangle>
                    <activeaudioangle>false</activeaudioangle>
                    <clip id="clip-7"/>
                  </angle>
                  <angle>
                    <activevideoangle>false</activevideoangle>
                    <activeaudioangle>false</activeaudioangle>
                    <clip id="clip-8"/>
                  </angle>
                  <angle>
                    <activevideoangle>false</activevideoangle>
                    <activeaudioangle>false</activeaudioangle>
                    <clip id="clip-9"/>
                  </angle>
                  <masterclipid>clip-master</masterclipid>
                </multiclip>
              </clipitem>
              <clipitem id="cs-655">
                <duration>124</duration>
                <rate>
                  <ntsc>false</ntsc>
                  <timebase>25</timebase>
                </rate>
                <in>41783</in>
                <out>41906</out>
                <start>41783</start>
                <end>41906</end>
                <file id="src-3"/>
                <sourcetrack>
                  <mediatype>video</mediatype>
                  <trackindex>1</trackindex>
                </sourcetrack>
                <multiclip id="mcs-655">
                  <name>MCS-655</name>
                  <masterclipid>clip-master</masterclipid>
                  <collapsed>false</collapsed>
                  <angle>
                    <activevideoangle>false</activevideoangle>
                    <activeaudioangle>false</activeaudioangle>
                    <clip id="clip-1"/>
                  </angle>
                  <angle>
                    <activevideoangle>false</activevideoangle>
                    <activeaudioangle>false</activeaudioangle>
                    <clip id="clip-2"/>
                  </angle>
                  <angle>
                    <activevideoangle>true</activevideoangle>
                    <activeaudioangle>true</activeaudioangle>
                    <clip id="clip-3"/>
                  </angle>
                  <angle>
                    <activevideoangle>false</activevideoangle>
                    <activeaudioangle>false</activeaudioangle>
                    <clip id="clip-4"/>
                  </angle>
                  <angle>
                    <activevideoangle>false</activevideoangle>
                    <activeaudioangle>false</activeaudioangle>
                    <clip id="clip-5"/>
                  </angle>
                  <angle>
                    <activevideoangle>false</activevideoangle>
                    <activeaudioangle>false</activeaudioangle>
                    <clip id="clip-6"/>
                  </angle>
                  <angle>
                    <activevideoangle>false</activevideoangle>
                    <activeaudioangle>false</activeaudioangle>
                    <clip id="clip-7"/>
                  </angle>
                  <angle>
                    <activevideoangle>false</activevideoangle>
                    <activeaudioangle>false</activeaudioangle>
                    <clip id="clip-8"/>
                  </angle>
                  <angle>
                    <activevideoangle>false</activevideoangle>
                    <activeaudioangle>false</activeaudioangle>
                    <clip id="clip-9"/>
                  </angle>
                  <masterclipid>clip-master</masterclipid>
                </multiclip>
              </clipitem>
              <clipitem id="cs-656">
                <duration>40</duration>
                <rate>
                  <ntsc>false</ntsc>
                  <timebase>25</timebase>
                </rate>
                <in>41906</in>
                <out>41945</out>
                <start>41906</start>
                <end>41945</end>
                <file id="src-4"/>
                <sourcetrack>
                  <mediatype>video</mediatype>
                  <trackindex>1</trackindex>
                </sourcetrack>
                <multiclip id="mcs-656">
                  <name>MCS-656</name>
                  <masterclipid>clip-master</masterclipid>
                  <collapsed>false</collapsed>
                  <angle>
                    <activevideoangle>false</activevideoangle>
                    <activeaudioangle>false</activeaudioangle>
                    <clip id="clip-1"/>
                  </angle>
                  <angle>
                    <activevideoangle>false</activevideoangle>
                    <activeaudioangle>false</activeaudioangle>
                    <clip id="clip-2"/>
                  </angle>
                  <angle>
                    <activevideoangle>false</activevideoangle>
                    <activeaudioangle>false</activeaudioangle>
                    <clip id="clip-3"/>
                  </angle>
                  <angle>
                    <activevideoangle>true</activevideoangle>
                    <activeaudioangle>true</activeaudioangle>
                    <clip id="clip-4"/>
                  </angle>
                  <angle>
                    <activevideoangle>false</activevideoangle>
                    <activeaudioangle>false</activeaudioangle>
                    <clip id="clip-5"/>
                  </angle>
                  <angle>
                    <activevideoangle>false</activevideoangle>
                    <activeaudioangle>false</activeaudioangle>
                    <clip id="clip-6"/>
                  </angle>
                  <angle>
                    <activevideoangle>false</activevideoangle>
                    <activeaudioangle>false</activeaudioangle>
                    <clip id="clip-7"/>
                  </angle>
                  <angle>
                    <activevideoangle>false</activevideoangle>
                    <activeaudioangle>false</activeaudioangle>
                    <clip id="clip-8"/>
                  </angle>
                  <angle>
                    <activevideoangle>false</activevideoangle>
                    <activeaudioangle>false</activeaudioangle>
                    <clip id="clip-9"/>
                  </angle>
                  <masterclipid>clip-master</masterclipid>
                </multiclip>
              </clipitem>
              <clipitem id="cs-657">
                <duration>56</duration>
                <rate>
                  <ntsc>false</ntsc>
                  <timebase>25</timebase>
                </rate>
                <in>41945</in>
                <out>42000</out>
                <start>41945</start>
                <end>42000</end>
                <file id="src-2"/>
                <sourcetrack>
                  <mediatype>video</mediatype>
                  <trackindex>1</trackindex>
                </sourcetrack>
                <multiclip id="mcs-657">
                  <name>MCS-657</name>
                  <masterclipid>clip-master</masterclipid>
                  <collapsed>false</collapsed>
                  <angle>
                    <activevideoangle>false</activevideoangle>
                    <activeaudioangle>false</activeaudioangle>
                    <clip id="clip-1"/>
                  </angle>
                  <angle>
                    <activevideoangle>true</activevideoangle>
                    <activeaudioangle>true</activeaudioangle>
                    <clip id="clip-2"/>
                  </angle>
                  <angle>
                    <activevideoangle>false</activevideoangle>
                    <activeaudioangle>false</activeaudioangle>
                    <clip id="clip-3"/>
                  </angle>
                  <angle>
                    <activevideoangle>false</activevideoangle>
                    <activeaudioangle>false</activeaudioangle>
                    <clip id="clip-4"/>
                  </angle>
                  <angle>
                    <activevideoangle>false</activevideoangle>
                    <activeaudioangle>false</activeaudioangle>
                    <clip id="clip-5"/>
                  </angle>
                  <angle>
                    <activevideoangle>false</activevideoangle>
                    <activeaudioangle>false</activeaudioangle>
                    <clip id="clip-6"/>
                  </angle>
                  <angle>
                    <activevideoangle>false</activevideoangle>
                    <activeaudioangle>false</activeaudioangle>
                    <clip id="clip-7"/>
                  </angle>
                  <angle>
                    <activevideoangle>false</activevideoangle>
                    <activeaudioangle>false</activeaudioangle>
                    <clip id="clip-8"/>
                  </angle>
                  <angle>
                    <activevideoangle>false</activevideoangle>
                    <activeaudioangle>false</activeaudioangle>
                    <clip id="clip-9"/>
                  </angle>
                  <masterclipid>clip-master</masterclipid>
                </multiclip>
              </clipitem>
              <clipitem id="cs-658">
                <duration>95</duration>
                <rate>
                  <ntsc>false</ntsc>
                  <timebase>25</timebase>
                </rate>
                <in>42000</in>
                <out>42094</out>
                <start>42000</start>
                <end>42094</end>
                <file id="src-3"/>
                <sourcetrack>
                  <mediatype>video</mediatype>
                  <trackindex>1</trackindex>
                </sourcetrack>
                <multiclip id="mcs-658">
                  <name>MCS-658</name>
                  <masterclipid>clip-master</masterclipid>
                  <collapsed>false</collapsed>
                  <angle>
                    <activevideoangle>false</activevideoangle>
                    <activeaudioangle>false</activeaudioangle>
                    <clip id="clip-1"/>
                  </angle>
                  <angle>
                    <activevideoangle>false</activevideoangle>
                    <activeaudioangle>false</activeaudioangle>
                    <clip id="clip-2"/>
                  </angle>
                  <angle>
                    <activevideoangle>true</activevideoangle>
                    <activeaudioangle>true</activeaudioangle>
                    <clip id="clip-3"/>
                  </angle>
                  <angle>
                    <activevideoangle>false</activevideoangle>
                    <activeaudioangle>false</activeaudioangle>
                    <clip id="clip-4"/>
                  </angle>
                  <angle>
                    <activevideoangle>false</activevideoangle>
                    <activeaudioangle>false</activeaudioangle>
                    <clip id="clip-5"/>
                  </angle>
                  <angle>
                    <activevideoangle>false</activevideoangle>
                    <activeaudioangle>false</activeaudioangle>
                    <clip id="clip-6"/>
                  </angle>
                  <angle>
                    <activevideoangle>false</activevideoangle>
                    <activeaudioangle>false</activeaudioangle>
                    <clip id="clip-7"/>
                  </angle>
                  <angle>
                    <activevideoangle>false</activevideoangle>
                    <activeaudioangle>false</activeaudioangle>
                    <clip id="clip-8"/>
                  </angle>
                  <angle>
                    <activevideoangle>false</activevideoangle>
                    <activeaudioangle>false</activeaudioangle>
                    <clip id="clip-9"/>
                  </angle>
                  <masterclipid>clip-master</masterclipid>
                </multiclip>
              </clipitem>
              <clipitem id="cs-659">
                <duration>85</duration>
                <rate>
                  <ntsc>false</ntsc>
                  <timebase>25</timebase>
                </rate>
                <in>42094</in>
                <out>42178</out>
                <start>42094</start>
                <end>42178</end>
                <file id="src-6"/>
                <sourcetrack>
                  <mediatype>video</mediatype>
                  <trackindex>1</trackindex>
                </sourcetrack>
                <multiclip id="mcs-659">
                  <name>MCS-659</name>
                  <masterclipid>clip-master</masterclipid>
                  <collapsed>false</collapsed>
                  <angle>
                    <activevideoangle>false</activevideoangle>
                    <activeaudioangle>false</activeaudioangle>
                    <clip id="clip-1"/>
                  </angle>
                  <angle>
                    <activevideoangle>false</activevideoangle>
                    <activeaudioangle>false</activeaudioangle>
                    <clip id="clip-2"/>
                  </angle>
                  <angle>
                    <activevideoangle>false</activevideoangle>
                    <activeaudioangle>false</activeaudioangle>
                    <clip id="clip-3"/>
                  </angle>
                  <angle>
                    <activevideoangle>false</activevideoangle>
                    <activeaudioangle>false</activeaudioangle>
                    <clip id="clip-4"/>
                  </angle>
                  <angle>
                    <activevideoangle>false</activevideoangle>
                    <activeaudioangle>false</activeaudioangle>
                    <clip id="clip-5"/>
                  </angle>
                  <angle>
                    <activevideoangle>true</activevideoangle>
                    <activeaudioangle>true</activeaudioangle>
                    <clip id="clip-6"/>
                  </angle>
                  <angle>
                    <activevideoangle>false</activevideoangle>
                    <activeaudioangle>false</activeaudioangle>
                    <clip id="clip-7"/>
                  </angle>
                  <angle>
                    <activevideoangle>false</activevideoangle>
                    <activeaudioangle>false</activeaudioangle>
                    <clip id="clip-8"/>
                  </angle>
                  <angle>
                    <activevideoangle>false</activevideoangle>
                    <activeaudioangle>false</activeaudioangle>
                    <clip id="clip-9"/>
                  </angle>
                  <masterclipid>clip-master</masterclipid>
                </multiclip>
              </clipitem>
              <clipitem id="cs-660">
                <duration>198</duration>
                <rate>
                  <ntsc>false</ntsc>
                  <timebase>25</timebase>
                </rate>
                <in>42178</in>
                <out>42375</out>
                <start>42178</start>
                <end>42375</end>
                <file id="src-3"/>
                <sourcetrack>
                  <mediatype>video</mediatype>
                  <trackindex>1</trackindex>
                </sourcetrack>
                <multiclip id="mcs-660">
                  <name>MCS-660</name>
                  <masterclipid>clip-master</masterclipid>
                  <collapsed>false</collapsed>
                  <angle>
                    <activevideoangle>false</activevideoangle>
                    <activeaudioangle>false</activeaudioangle>
                    <clip id="clip-1"/>
                  </angle>
                  <angle>
                    <activevideoangle>false</activevideoangle>
                    <activeaudioangle>false</activeaudioangle>
                    <clip id="clip-2"/>
                  </angle>
                  <angle>
                    <activevideoangle>true</activevideoangle>
                    <activeaudioangle>true</activeaudioangle>
                    <clip id="clip-3"/>
                  </angle>
                  <angle>
                    <activevideoangle>false</activevideoangle>
                    <activeaudioangle>false</activeaudioangle>
                    <clip id="clip-4"/>
                  </angle>
                  <angle>
                    <activevideoangle>false</activevideoangle>
                    <activeaudioangle>false</activeaudioangle>
                    <clip id="clip-5"/>
                  </angle>
                  <angle>
                    <activevideoangle>false</activevideoangle>
                    <activeaudioangle>false</activeaudioangle>
                    <clip id="clip-6"/>
                  </angle>
                  <angle>
                    <activevideoangle>false</activevideoangle>
                    <activeaudioangle>false</activeaudioangle>
                    <clip id="clip-7"/>
                  </angle>
                  <angle>
                    <activevideoangle>false</activevideoangle>
                    <activeaudioangle>false</activeaudioangle>
                    <clip id="clip-8"/>
                  </angle>
                  <angle>
                    <activevideoangle>false</activevideoangle>
                    <activeaudioangle>false</activeaudioangle>
                    <clip id="clip-9"/>
                  </angle>
                  <masterclipid>clip-master</masterclipid>
                </multiclip>
              </clipitem>
              <clipitem id="cs-661">
                <duration>82</duration>
                <rate>
                  <ntsc>false</ntsc>
                  <timebase>25</timebase>
                </rate>
                <in>42375</in>
                <out>42456</out>
                <start>42375</start>
                <end>42456</end>
                <file id="src-6"/>
                <sourcetrack>
                  <mediatype>video</mediatype>
                  <trackindex>1</trackindex>
                </sourcetrack>
                <multiclip id="mcs-661">
                  <name>MCS-661</name>
                  <masterclipid>clip-master</masterclipid>
                  <collapsed>false</collapsed>
                  <angle>
                    <activevideoangle>false</activevideoangle>
                    <activeaudioangle>false</activeaudioangle>
                    <clip id="clip-1"/>
                  </angle>
                  <angle>
                    <activevideoangle>false</activevideoangle>
                    <activeaudioangle>false</activeaudioangle>
                    <clip id="clip-2"/>
                  </angle>
                  <angle>
                    <activevideoangle>false</activevideoangle>
                    <activeaudioangle>false</activeaudioangle>
                    <clip id="clip-3"/>
                  </angle>
                  <angle>
                    <activevideoangle>false</activevideoangle>
                    <activeaudioangle>false</activeaudioangle>
                    <clip id="clip-4"/>
                  </angle>
                  <angle>
                    <activevideoangle>false</activevideoangle>
                    <activeaudioangle>false</activeaudioangle>
                    <clip id="clip-5"/>
                  </angle>
                  <angle>
                    <activevideoangle>true</activevideoangle>
                    <activeaudioangle>true</activeaudioangle>
                    <clip id="clip-6"/>
                  </angle>
                  <angle>
                    <activevideoangle>false</activevideoangle>
                    <activeaudioangle>false</activeaudioangle>
                    <clip id="clip-7"/>
                  </angle>
                  <angle>
                    <activevideoangle>false</activevideoangle>
                    <activeaudioangle>false</activeaudioangle>
                    <clip id="clip-8"/>
                  </angle>
                  <angle>
                    <activevideoangle>false</activevideoangle>
                    <activeaudioangle>false</activeaudioangle>
                    <clip id="clip-9"/>
                  </angle>
                  <masterclipid>clip-master</masterclipid>
                </multiclip>
              </clipitem>
              <clipitem id="cs-662">
                <duration>91</duration>
                <rate>
                  <ntsc>false</ntsc>
                  <timebase>25</timebase>
                </rate>
                <in>42456</in>
                <out>42546</out>
                <start>42456</start>
                <end>42546</end>
                <file id="src-3"/>
                <sourcetrack>
                  <mediatype>video</mediatype>
                  <trackindex>1</trackindex>
                </sourcetrack>
                <multiclip id="mcs-662">
                  <name>MCS-662</name>
                  <masterclipid>clip-master</masterclipid>
                  <collapsed>false</collapsed>
                  <angle>
                    <activevideoangle>false</activevideoangle>
                    <activeaudioangle>false</activeaudioangle>
                    <clip id="clip-1"/>
                  </angle>
                  <angle>
                    <activevideoangle>false</activevideoangle>
                    <activeaudioangle>false</activeaudioangle>
                    <clip id="clip-2"/>
                  </angle>
                  <angle>
                    <activevideoangle>true</activevideoangle>
                    <activeaudioangle>true</activeaudioangle>
                    <clip id="clip-3"/>
                  </angle>
                  <angle>
                    <activevideoangle>false</activevideoangle>
                    <activeaudioangle>false</activeaudioangle>
                    <clip id="clip-4"/>
                  </angle>
                  <angle>
                    <activevideoangle>false</activevideoangle>
                    <activeaudioangle>false</activeaudioangle>
                    <clip id="clip-5"/>
                  </angle>
                  <angle>
                    <activevideoangle>false</activevideoangle>
                    <activeaudioangle>false</activeaudioangle>
                    <clip id="clip-6"/>
                  </angle>
                  <angle>
                    <activevideoangle>false</activevideoangle>
                    <activeaudioangle>false</activeaudioangle>
                    <clip id="clip-7"/>
                  </angle>
                  <angle>
                    <activevideoangle>false</activevideoangle>
                    <activeaudioangle>false</activeaudioangle>
                    <clip id="clip-8"/>
                  </angle>
                  <angle>
                    <activevideoangle>false</activevideoangle>
                    <activeaudioangle>false</activeaudioangle>
                    <clip id="clip-9"/>
                  </angle>
                  <masterclipid>clip-master</masterclipid>
                </multiclip>
              </clipitem>
              <clipitem id="cs-663">
                <duration>69</duration>
                <rate>
                  <ntsc>false</ntsc>
                  <timebase>25</timebase>
                </rate>
                <in>42546</in>
                <out>42614</out>
                <start>42546</start>
                <end>42614</end>
                <file id="src-2"/>
                <sourcetrack>
                  <mediatype>video</mediatype>
                  <trackindex>1</trackindex>
                </sourcetrack>
                <multiclip id="mcs-663">
                  <name>MCS-663</name>
                  <masterclipid>clip-master</masterclipid>
                  <collapsed>false</collapsed>
                  <angle>
                    <activevideoangle>false</activevideoangle>
                    <activeaudioangle>false</activeaudioangle>
                    <clip id="clip-1"/>
                  </angle>
                  <angle>
                    <activevideoangle>true</activevideoangle>
                    <activeaudioangle>true</activeaudioangle>
                    <clip id="clip-2"/>
                  </angle>
                  <angle>
                    <activevideoangle>false</activevideoangle>
                    <activeaudioangle>false</activeaudioangle>
                    <clip id="clip-3"/>
                  </angle>
                  <angle>
                    <activevideoangle>false</activevideoangle>
                    <activeaudioangle>false</activeaudioangle>
                    <clip id="clip-4"/>
                  </angle>
                  <angle>
                    <activevideoangle>false</activevideoangle>
                    <activeaudioangle>false</activeaudioangle>
                    <clip id="clip-5"/>
                  </angle>
                  <angle>
                    <activevideoangle>false</activevideoangle>
                    <activeaudioangle>false</activeaudioangle>
                    <clip id="clip-6"/>
                  </angle>
                  <angle>
                    <activevideoangle>false</activevideoangle>
                    <activeaudioangle>false</activeaudioangle>
                    <clip id="clip-7"/>
                  </angle>
                  <angle>
                    <activevideoangle>false</activevideoangle>
                    <activeaudioangle>false</activeaudioangle>
                    <clip id="clip-8"/>
                  </angle>
                  <angle>
                    <activevideoangle>false</activevideoangle>
                    <activeaudioangle>false</activeaudioangle>
                    <clip id="clip-9"/>
                  </angle>
                  <masterclipid>clip-master</masterclipid>
                </multiclip>
              </clipitem>
              <clipitem id="cs-664">
                <duration>81</duration>
                <rate>
                  <ntsc>false</ntsc>
                  <timebase>25</timebase>
                </rate>
                <in>42614</in>
                <out>42694</out>
                <start>42614</start>
                <end>42694</end>
                <file id="src-4"/>
                <sourcetrack>
                  <mediatype>video</mediatype>
                  <trackindex>1</trackindex>
                </sourcetrack>
                <multiclip id="mcs-664">
                  <name>MCS-664</name>
                  <masterclipid>clip-master</masterclipid>
                  <collapsed>false</collapsed>
                  <angle>
                    <activevideoangle>false</activevideoangle>
                    <activeaudioangle>false</activeaudioangle>
                    <clip id="clip-1"/>
                  </angle>
                  <angle>
                    <activevideoangle>false</activevideoangle>
                    <activeaudioangle>false</activeaudioangle>
                    <clip id="clip-2"/>
                  </angle>
                  <angle>
                    <activevideoangle>false</activevideoangle>
                    <activeaudioangle>false</activeaudioangle>
                    <clip id="clip-3"/>
                  </angle>
                  <angle>
                    <activevideoangle>true</activevideoangle>
                    <activeaudioangle>true</activeaudioangle>
                    <clip id="clip-4"/>
                  </angle>
                  <angle>
                    <activevideoangle>false</activevideoangle>
                    <activeaudioangle>false</activeaudioangle>
                    <clip id="clip-5"/>
                  </angle>
                  <angle>
                    <activevideoangle>false</activevideoangle>
                    <activeaudioangle>false</activeaudioangle>
                    <clip id="clip-6"/>
                  </angle>
                  <angle>
                    <activevideoangle>false</activevideoangle>
                    <activeaudioangle>false</activeaudioangle>
                    <clip id="clip-7"/>
                  </angle>
                  <angle>
                    <activevideoangle>false</activevideoangle>
                    <activeaudioangle>false</activeaudioangle>
                    <clip id="clip-8"/>
                  </angle>
                  <angle>
                    <activevideoangle>false</activevideoangle>
                    <activeaudioangle>false</activeaudioangle>
                    <clip id="clip-9"/>
                  </angle>
                  <masterclipid>clip-master</masterclipid>
                </multiclip>
              </clipitem>
              <clipitem id="cs-665">
                <duration>66</duration>
                <rate>
                  <ntsc>false</ntsc>
                  <timebase>25</timebase>
                </rate>
                <in>42694</in>
                <out>42759</out>
                <start>42694</start>
                <end>42759</end>
                <file id="src-7"/>
                <sourcetrack>
                  <mediatype>video</mediatype>
                  <trackindex>1</trackindex>
                </sourcetrack>
                <multiclip id="mcs-665">
                  <name>MCS-665</name>
                  <masterclipid>clip-master</masterclipid>
                  <collapsed>false</collapsed>
                  <angle>
                    <activevideoangle>false</activevideoangle>
                    <activeaudioangle>false</activeaudioangle>
                    <clip id="clip-1"/>
                  </angle>
                  <angle>
                    <activevideoangle>false</activevideoangle>
                    <activeaudioangle>false</activeaudioangle>
                    <clip id="clip-2"/>
                  </angle>
                  <angle>
                    <activevideoangle>false</activevideoangle>
                    <activeaudioangle>false</activeaudioangle>
                    <clip id="clip-3"/>
                  </angle>
                  <angle>
                    <activevideoangle>false</activevideoangle>
                    <activeaudioangle>false</activeaudioangle>
                    <clip id="clip-4"/>
                  </angle>
                  <angle>
                    <activevideoangle>false</activevideoangle>
                    <activeaudioangle>false</activeaudioangle>
                    <clip id="clip-5"/>
                  </angle>
                  <angle>
                    <activevideoangle>false</activevideoangle>
                    <activeaudioangle>false</activeaudioangle>
                    <clip id="clip-6"/>
                  </angle>
                  <angle>
                    <activevideoangle>true</activevideoangle>
                    <activeaudioangle>true</activeaudioangle>
                    <clip id="clip-7"/>
                  </angle>
                  <angle>
                    <activevideoangle>false</activevideoangle>
                    <activeaudioangle>false</activeaudioangle>
                    <clip id="clip-8"/>
                  </angle>
                  <angle>
                    <activevideoangle>false</activevideoangle>
                    <activeaudioangle>false</activeaudioangle>
                    <clip id="clip-9"/>
                  </angle>
                  <masterclipid>clip-master</masterclipid>
                </multiclip>
              </clipitem>
              <clipitem id="cs-666">
                <duration>42</duration>
                <rate>
                  <ntsc>false</ntsc>
                  <timebase>25</timebase>
                </rate>
                <in>42759</in>
                <out>42800</out>
                <start>42759</start>
                <end>42800</end>
                <file id="src-8"/>
                <sourcetrack>
                  <mediatype>video</mediatype>
                  <trackindex>1</trackindex>
                </sourcetrack>
                <multiclip id="mcs-666">
                  <name>MCS-666</name>
                  <masterclipid>clip-master</masterclipid>
                  <collapsed>false</collapsed>
                  <angle>
                    <activevideoangle>false</activevideoangle>
                    <activeaudioangle>false</activeaudioangle>
                    <clip id="clip-1"/>
                  </angle>
                  <angle>
                    <activevideoangle>false</activevideoangle>
                    <activeaudioangle>false</activeaudioangle>
                    <clip id="clip-2"/>
                  </angle>
                  <angle>
                    <activevideoangle>false</activevideoangle>
                    <activeaudioangle>false</activeaudioangle>
                    <clip id="clip-3"/>
                  </angle>
                  <angle>
                    <activevideoangle>false</activevideoangle>
                    <activeaudioangle>false</activeaudioangle>
                    <clip id="clip-4"/>
                  </angle>
                  <angle>
                    <activevideoangle>false</activevideoangle>
                    <activeaudioangle>false</activeaudioangle>
                    <clip id="clip-5"/>
                  </angle>
                  <angle>
                    <activevideoangle>false</activevideoangle>
                    <activeaudioangle>false</activeaudioangle>
                    <clip id="clip-6"/>
                  </angle>
                  <angle>
                    <activevideoangle>false</activevideoangle>
                    <activeaudioangle>false</activeaudioangle>
                    <clip id="clip-7"/>
                  </angle>
                  <angle>
                    <activevideoangle>true</activevideoangle>
                    <activeaudioangle>true</activeaudioangle>
                    <clip id="clip-8"/>
                  </angle>
                  <angle>
                    <activevideoangle>false</activevideoangle>
                    <activeaudioangle>false</activeaudioangle>
                    <clip id="clip-9"/>
                  </angle>
                  <masterclipid>clip-master</masterclipid>
                </multiclip>
              </clipitem>
              <clipitem id="cs-667">
                <duration>40</duration>
                <rate>
                  <ntsc>false</ntsc>
                  <timebase>25</timebase>
                </rate>
                <in>42800</in>
                <out>42839</out>
                <start>42800</start>
                <end>42839</end>
                <file id="src-3"/>
                <sourcetrack>
                  <mediatype>video</mediatype>
                  <trackindex>1</trackindex>
                </sourcetrack>
                <multiclip id="mcs-667">
                  <name>MCS-667</name>
                  <masterclipid>clip-master</masterclipid>
                  <collapsed>false</collapsed>
                  <angle>
                    <activevideoangle>false</activevideoangle>
                    <activeaudioangle>false</activeaudioangle>
                    <clip id="clip-1"/>
                  </angle>
                  <angle>
                    <activevideoangle>false</activevideoangle>
                    <activeaudioangle>false</activeaudioangle>
                    <clip id="clip-2"/>
                  </angle>
                  <angle>
                    <activevideoangle>true</activevideoangle>
                    <activeaudioangle>true</activeaudioangle>
                    <clip id="clip-3"/>
                  </angle>
                  <angle>
                    <activevideoangle>false</activevideoangle>
                    <activeaudioangle>false</activeaudioangle>
                    <clip id="clip-4"/>
                  </angle>
                  <angle>
                    <activevideoangle>false</activevideoangle>
                    <activeaudioangle>false</activeaudioangle>
                    <clip id="clip-5"/>
                  </angle>
                  <angle>
                    <activevideoangle>false</activevideoangle>
                    <activeaudioangle>false</activeaudioangle>
                    <clip id="clip-6"/>
                  </angle>
                  <angle>
                    <activevideoangle>false</activevideoangle>
                    <activeaudioangle>false</activeaudioangle>
                    <clip id="clip-7"/>
                  </angle>
                  <angle>
                    <activevideoangle>false</activevideoangle>
                    <activeaudioangle>false</activeaudioangle>
                    <clip id="clip-8"/>
                  </angle>
                  <angle>
                    <activevideoangle>false</activevideoangle>
                    <activeaudioangle>false</activeaudioangle>
                    <clip id="clip-9"/>
                  </angle>
                  <masterclipid>clip-master</masterclipid>
                </multiclip>
              </clipitem>
              <clipitem id="cs-668">
                <duration>39</duration>
                <rate>
                  <ntsc>false</ntsc>
                  <timebase>25</timebase>
                </rate>
                <in>42839</in>
                <out>42877</out>
                <start>42839</start>
                <end>42877</end>
                <file id="src-5"/>
                <sourcetrack>
                  <mediatype>video</mediatype>
                  <trackindex>1</trackindex>
                </sourcetrack>
                <multiclip id="mcs-668">
                  <name>MCS-668</name>
                  <masterclipid>clip-master</masterclipid>
                  <collapsed>false</collapsed>
                  <angle>
                    <activevideoangle>false</activevideoangle>
                    <activeaudioangle>false</activeaudioangle>
                    <clip id="clip-1"/>
                  </angle>
                  <angle>
                    <activevideoangle>false</activevideoangle>
                    <activeaudioangle>false</activeaudioangle>
                    <clip id="clip-2"/>
                  </angle>
                  <angle>
                    <activevideoangle>false</activevideoangle>
                    <activeaudioangle>false</activeaudioangle>
                    <clip id="clip-3"/>
                  </angle>
                  <angle>
                    <activevideoangle>false</activevideoangle>
                    <activeaudioangle>false</activeaudioangle>
                    <clip id="clip-4"/>
                  </angle>
                  <angle>
                    <activevideoangle>true</activevideoangle>
                    <activeaudioangle>true</activeaudioangle>
                    <clip id="clip-5"/>
                  </angle>
                  <angle>
                    <activevideoangle>false</activevideoangle>
                    <activeaudioangle>false</activeaudioangle>
                    <clip id="clip-6"/>
                  </angle>
                  <angle>
                    <activevideoangle>false</activevideoangle>
                    <activeaudioangle>false</activeaudioangle>
                    <clip id="clip-7"/>
                  </angle>
                  <angle>
                    <activevideoangle>false</activevideoangle>
                    <activeaudioangle>false</activeaudioangle>
                    <clip id="clip-8"/>
                  </angle>
                  <angle>
                    <activevideoangle>false</activevideoangle>
                    <activeaudioangle>false</activeaudioangle>
                    <clip id="clip-9"/>
                  </angle>
                  <masterclipid>clip-master</masterclipid>
                </multiclip>
              </clipitem>
              <clipitem id="cs-669">
                <duration>35</duration>
                <rate>
                  <ntsc>false</ntsc>
                  <timebase>25</timebase>
                </rate>
                <in>42877</in>
                <out>42911</out>
                <start>42877</start>
                <end>42911</end>
                <file id="src-4"/>
                <sourcetrack>
                  <mediatype>video</mediatype>
                  <trackindex>1</trackindex>
                </sourcetrack>
                <multiclip id="mcs-669">
                  <name>MCS-669</name>
                  <masterclipid>clip-master</masterclipid>
                  <collapsed>false</collapsed>
                  <angle>
                    <activevideoangle>false</activevideoangle>
                    <activeaudioangle>false</activeaudioangle>
                    <clip id="clip-1"/>
                  </angle>
                  <angle>
                    <activevideoangle>false</activevideoangle>
                    <activeaudioangle>false</activeaudioangle>
                    <clip id="clip-2"/>
                  </angle>
                  <angle>
                    <activevideoangle>false</activevideoangle>
                    <activeaudioangle>false</activeaudioangle>
                    <clip id="clip-3"/>
                  </angle>
                  <angle>
                    <activevideoangle>true</activevideoangle>
                    <activeaudioangle>true</activeaudioangle>
                    <clip id="clip-4"/>
                  </angle>
                  <angle>
                    <activevideoangle>false</activevideoangle>
                    <activeaudioangle>false</activeaudioangle>
                    <clip id="clip-5"/>
                  </angle>
                  <angle>
                    <activevideoangle>false</activevideoangle>
                    <activeaudioangle>false</activeaudioangle>
                    <clip id="clip-6"/>
                  </angle>
                  <angle>
                    <activevideoangle>false</activevideoangle>
                    <activeaudioangle>false</activeaudioangle>
                    <clip id="clip-7"/>
                  </angle>
                  <angle>
                    <activevideoangle>false</activevideoangle>
                    <activeaudioangle>false</activeaudioangle>
                    <clip id="clip-8"/>
                  </angle>
                  <angle>
                    <activevideoangle>false</activevideoangle>
                    <activeaudioangle>false</activeaudioangle>
                    <clip id="clip-9"/>
                  </angle>
                  <masterclipid>clip-master</masterclipid>
                </multiclip>
              </clipitem>
              <clipitem id="cs-670">
                <duration>34</duration>
                <rate>
                  <ntsc>false</ntsc>
                  <timebase>25</timebase>
                </rate>
                <in>42911</in>
                <out>42944</out>
                <start>42911</start>
                <end>42944</end>
                <file id="src-2"/>
                <sourcetrack>
                  <mediatype>video</mediatype>
                  <trackindex>1</trackindex>
                </sourcetrack>
                <multiclip id="mcs-670">
                  <name>MCS-670</name>
                  <masterclipid>clip-master</masterclipid>
                  <collapsed>false</collapsed>
                  <angle>
                    <activevideoangle>false</activevideoangle>
                    <activeaudioangle>false</activeaudioangle>
                    <clip id="clip-1"/>
                  </angle>
                  <angle>
                    <activevideoangle>true</activevideoangle>
                    <activeaudioangle>true</activeaudioangle>
                    <clip id="clip-2"/>
                  </angle>
                  <angle>
                    <activevideoangle>false</activevideoangle>
                    <activeaudioangle>false</activeaudioangle>
                    <clip id="clip-3"/>
                  </angle>
                  <angle>
                    <activevideoangle>false</activevideoangle>
                    <activeaudioangle>false</activeaudioangle>
                    <clip id="clip-4"/>
                  </angle>
                  <angle>
                    <activevideoangle>false</activevideoangle>
                    <activeaudioangle>false</activeaudioangle>
                    <clip id="clip-5"/>
                  </angle>
                  <angle>
                    <activevideoangle>false</activevideoangle>
                    <activeaudioangle>false</activeaudioangle>
                    <clip id="clip-6"/>
                  </angle>
                  <angle>
                    <activevideoangle>false</activevideoangle>
                    <activeaudioangle>false</activeaudioangle>
                    <clip id="clip-7"/>
                  </angle>
                  <angle>
                    <activevideoangle>false</activevideoangle>
                    <activeaudioangle>false</activeaudioangle>
                    <clip id="clip-8"/>
                  </angle>
                  <angle>
                    <activevideoangle>false</activevideoangle>
                    <activeaudioangle>false</activeaudioangle>
                    <clip id="clip-9"/>
                  </angle>
                  <masterclipid>clip-master</masterclipid>
                </multiclip>
              </clipitem>
              <clipitem id="cs-671">
                <duration>83</duration>
                <rate>
                  <ntsc>false</ntsc>
                  <timebase>25</timebase>
                </rate>
                <in>42944</in>
                <out>43026</out>
                <start>42944</start>
                <end>43026</end>
                <file id="src-3"/>
                <sourcetrack>
                  <mediatype>video</mediatype>
                  <trackindex>1</trackindex>
                </sourcetrack>
                <multiclip id="mcs-671">
                  <name>MCS-671</name>
                  <masterclipid>clip-master</masterclipid>
                  <collapsed>false</collapsed>
                  <angle>
                    <activevideoangle>false</activevideoangle>
                    <activeaudioangle>false</activeaudioangle>
                    <clip id="clip-1"/>
                  </angle>
                  <angle>
                    <activevideoangle>false</activevideoangle>
                    <activeaudioangle>false</activeaudioangle>
                    <clip id="clip-2"/>
                  </angle>
                  <angle>
                    <activevideoangle>true</activevideoangle>
                    <activeaudioangle>true</activeaudioangle>
                    <clip id="clip-3"/>
                  </angle>
                  <angle>
                    <activevideoangle>false</activevideoangle>
                    <activeaudioangle>false</activeaudioangle>
                    <clip id="clip-4"/>
                  </angle>
                  <angle>
                    <activevideoangle>false</activevideoangle>
                    <activeaudioangle>false</activeaudioangle>
                    <clip id="clip-5"/>
                  </angle>
                  <angle>
                    <activevideoangle>false</activevideoangle>
                    <activeaudioangle>false</activeaudioangle>
                    <clip id="clip-6"/>
                  </angle>
                  <angle>
                    <activevideoangle>false</activevideoangle>
                    <activeaudioangle>false</activeaudioangle>
                    <clip id="clip-7"/>
                  </angle>
                  <angle>
                    <activevideoangle>false</activevideoangle>
                    <activeaudioangle>false</activeaudioangle>
                    <clip id="clip-8"/>
                  </angle>
                  <angle>
                    <activevideoangle>false</activevideoangle>
                    <activeaudioangle>false</activeaudioangle>
                    <clip id="clip-9"/>
                  </angle>
                  <masterclipid>clip-master</masterclipid>
                </multiclip>
              </clipitem>
              <clipitem id="cs-672">
                <duration>31</duration>
                <rate>
                  <ntsc>false</ntsc>
                  <timebase>25</timebase>
                </rate>
                <in>43026</in>
                <out>43056</out>
                <start>43026</start>
                <end>43056</end>
                <file id="src-7"/>
                <sourcetrack>
                  <mediatype>video</mediatype>
                  <trackindex>1</trackindex>
                </sourcetrack>
                <multiclip id="mcs-672">
                  <name>MCS-672</name>
                  <masterclipid>clip-master</masterclipid>
                  <collapsed>false</collapsed>
                  <angle>
                    <activevideoangle>false</activevideoangle>
                    <activeaudioangle>false</activeaudioangle>
                    <clip id="clip-1"/>
                  </angle>
                  <angle>
                    <activevideoangle>false</activevideoangle>
                    <activeaudioangle>false</activeaudioangle>
                    <clip id="clip-2"/>
                  </angle>
                  <angle>
                    <activevideoangle>false</activevideoangle>
                    <activeaudioangle>false</activeaudioangle>
                    <clip id="clip-3"/>
                  </angle>
                  <angle>
                    <activevideoangle>false</activevideoangle>
                    <activeaudioangle>false</activeaudioangle>
                    <clip id="clip-4"/>
                  </angle>
                  <angle>
                    <activevideoangle>false</activevideoangle>
                    <activeaudioangle>false</activeaudioangle>
                    <clip id="clip-5"/>
                  </angle>
                  <angle>
                    <activevideoangle>false</activevideoangle>
                    <activeaudioangle>false</activeaudioangle>
                    <clip id="clip-6"/>
                  </angle>
                  <angle>
                    <activevideoangle>true</activevideoangle>
                    <activeaudioangle>true</activeaudioangle>
                    <clip id="clip-7"/>
                  </angle>
                  <angle>
                    <activevideoangle>false</activevideoangle>
                    <activeaudioangle>false</activeaudioangle>
                    <clip id="clip-8"/>
                  </angle>
                  <angle>
                    <activevideoangle>false</activevideoangle>
                    <activeaudioangle>false</activeaudioangle>
                    <clip id="clip-9"/>
                  </angle>
                  <masterclipid>clip-master</masterclipid>
                </multiclip>
              </clipitem>
              <clipitem id="cs-673">
                <duration>48</duration>
                <rate>
                  <ntsc>false</ntsc>
                  <timebase>25</timebase>
                </rate>
                <in>43056</in>
                <out>43103</out>
                <start>43056</start>
                <end>43103</end>
                <file id="src-6"/>
                <sourcetrack>
                  <mediatype>video</mediatype>
                  <trackindex>1</trackindex>
                </sourcetrack>
                <multiclip id="mcs-673">
                  <name>MCS-673</name>
                  <masterclipid>clip-master</masterclipid>
                  <collapsed>false</collapsed>
                  <angle>
                    <activevideoangle>false</activevideoangle>
                    <activeaudioangle>false</activeaudioangle>
                    <clip id="clip-1"/>
                  </angle>
                  <angle>
                    <activevideoangle>false</activevideoangle>
                    <activeaudioangle>false</activeaudioangle>
                    <clip id="clip-2"/>
                  </angle>
                  <angle>
                    <activevideoangle>false</activevideoangle>
                    <activeaudioangle>false</activeaudioangle>
                    <clip id="clip-3"/>
                  </angle>
                  <angle>
                    <activevideoangle>false</activevideoangle>
                    <activeaudioangle>false</activeaudioangle>
                    <clip id="clip-4"/>
                  </angle>
                  <angle>
                    <activevideoangle>false</activevideoangle>
                    <activeaudioangle>false</activeaudioangle>
                    <clip id="clip-5"/>
                  </angle>
                  <angle>
                    <activevideoangle>true</activevideoangle>
                    <activeaudioangle>true</activeaudioangle>
                    <clip id="clip-6"/>
                  </angle>
                  <angle>
                    <activevideoangle>false</activevideoangle>
                    <activeaudioangle>false</activeaudioangle>
                    <clip id="clip-7"/>
                  </angle>
                  <angle>
                    <activevideoangle>false</activevideoangle>
                    <activeaudioangle>false</activeaudioangle>
                    <clip id="clip-8"/>
                  </angle>
                  <angle>
                    <activevideoangle>false</activevideoangle>
                    <activeaudioangle>false</activeaudioangle>
                    <clip id="clip-9"/>
                  </angle>
                  <masterclipid>clip-master</masterclipid>
                </multiclip>
              </clipitem>
              <clipitem id="cs-674">
                <duration>36</duration>
                <rate>
                  <ntsc>false</ntsc>
                  <timebase>25</timebase>
                </rate>
                <in>43103</in>
                <out>43138</out>
                <start>43103</start>
                <end>43138</end>
                <file id="src-4"/>
                <sourcetrack>
                  <mediatype>video</mediatype>
                  <trackindex>1</trackindex>
                </sourcetrack>
                <multiclip id="mcs-674">
                  <name>MCS-674</name>
                  <masterclipid>clip-master</masterclipid>
                  <collapsed>false</collapsed>
                  <angle>
                    <activevideoangle>false</activevideoangle>
                    <activeaudioangle>false</activeaudioangle>
                    <clip id="clip-1"/>
                  </angle>
                  <angle>
                    <activevideoangle>false</activevideoangle>
                    <activeaudioangle>false</activeaudioangle>
                    <clip id="clip-2"/>
                  </angle>
                  <angle>
                    <activevideoangle>false</activevideoangle>
                    <activeaudioangle>false</activeaudioangle>
                    <clip id="clip-3"/>
                  </angle>
                  <angle>
                    <activevideoangle>true</activevideoangle>
                    <activeaudioangle>true</activeaudioangle>
                    <clip id="clip-4"/>
                  </angle>
                  <angle>
                    <activevideoangle>false</activevideoangle>
                    <activeaudioangle>false</activeaudioangle>
                    <clip id="clip-5"/>
                  </angle>
                  <angle>
                    <activevideoangle>false</activevideoangle>
                    <activeaudioangle>false</activeaudioangle>
                    <clip id="clip-6"/>
                  </angle>
                  <angle>
                    <activevideoangle>false</activevideoangle>
                    <activeaudioangle>false</activeaudioangle>
                    <clip id="clip-7"/>
                  </angle>
                  <angle>
                    <activevideoangle>false</activevideoangle>
                    <activeaudioangle>false</activeaudioangle>
                    <clip id="clip-8"/>
                  </angle>
                  <angle>
                    <activevideoangle>false</activevideoangle>
                    <activeaudioangle>false</activeaudioangle>
                    <clip id="clip-9"/>
                  </angle>
                  <masterclipid>clip-master</masterclipid>
                </multiclip>
              </clipitem>
              <clipitem id="cs-675">
                <duration>211</duration>
                <rate>
                  <ntsc>false</ntsc>
                  <timebase>25</timebase>
                </rate>
                <in>43138</in>
                <out>43348</out>
                <start>43138</start>
                <end>43348</end>
                <file id="src-3"/>
                <sourcetrack>
                  <mediatype>video</mediatype>
                  <trackindex>1</trackindex>
                </sourcetrack>
                <multiclip id="mcs-675">
                  <name>MCS-675</name>
                  <masterclipid>clip-master</masterclipid>
                  <collapsed>false</collapsed>
                  <angle>
                    <activevideoangle>false</activevideoangle>
                    <activeaudioangle>false</activeaudioangle>
                    <clip id="clip-1"/>
                  </angle>
                  <angle>
                    <activevideoangle>false</activevideoangle>
                    <activeaudioangle>false</activeaudioangle>
                    <clip id="clip-2"/>
                  </angle>
                  <angle>
                    <activevideoangle>true</activevideoangle>
                    <activeaudioangle>true</activeaudioangle>
                    <clip id="clip-3"/>
                  </angle>
                  <angle>
                    <activevideoangle>false</activevideoangle>
                    <activeaudioangle>false</activeaudioangle>
                    <clip id="clip-4"/>
                  </angle>
                  <angle>
                    <activevideoangle>false</activevideoangle>
                    <activeaudioangle>false</activeaudioangle>
                    <clip id="clip-5"/>
                  </angle>
                  <angle>
                    <activevideoangle>false</activevideoangle>
                    <activeaudioangle>false</activeaudioangle>
                    <clip id="clip-6"/>
                  </angle>
                  <angle>
                    <activevideoangle>false</activevideoangle>
                    <activeaudioangle>false</activeaudioangle>
                    <clip id="clip-7"/>
                  </angle>
                  <angle>
                    <activevideoangle>false</activevideoangle>
                    <activeaudioangle>false</activeaudioangle>
                    <clip id="clip-8"/>
                  </angle>
                  <angle>
                    <activevideoangle>false</activevideoangle>
                    <activeaudioangle>false</activeaudioangle>
                    <clip id="clip-9"/>
                  </angle>
                  <masterclipid>clip-master</masterclipid>
                </multiclip>
              </clipitem>
              <clipitem id="cs-676">
                <duration>41</duration>
                <rate>
                  <ntsc>false</ntsc>
                  <timebase>25</timebase>
                </rate>
                <in>43348</in>
                <out>43388</out>
                <start>43348</start>
                <end>43388</end>
                <file id="src-2"/>
                <sourcetrack>
                  <mediatype>video</mediatype>
                  <trackindex>1</trackindex>
                </sourcetrack>
                <multiclip id="mcs-676">
                  <name>MCS-676</name>
                  <masterclipid>clip-master</masterclipid>
                  <collapsed>false</collapsed>
                  <angle>
                    <activevideoangle>false</activevideoangle>
                    <activeaudioangle>false</activeaudioangle>
                    <clip id="clip-1"/>
                  </angle>
                  <angle>
                    <activevideoangle>true</activevideoangle>
                    <activeaudioangle>true</activeaudioangle>
                    <clip id="clip-2"/>
                  </angle>
                  <angle>
                    <activevideoangle>false</activevideoangle>
                    <activeaudioangle>false</activeaudioangle>
                    <clip id="clip-3"/>
                  </angle>
                  <angle>
                    <activevideoangle>false</activevideoangle>
                    <activeaudioangle>false</activeaudioangle>
                    <clip id="clip-4"/>
                  </angle>
                  <angle>
                    <activevideoangle>false</activevideoangle>
                    <activeaudioangle>false</activeaudioangle>
                    <clip id="clip-5"/>
                  </angle>
                  <angle>
                    <activevideoangle>false</activevideoangle>
                    <activeaudioangle>false</activeaudioangle>
                    <clip id="clip-6"/>
                  </angle>
                  <angle>
                    <activevideoangle>false</activevideoangle>
                    <activeaudioangle>false</activeaudioangle>
                    <clip id="clip-7"/>
                  </angle>
                  <angle>
                    <activevideoangle>false</activevideoangle>
                    <activeaudioangle>false</activeaudioangle>
                    <clip id="clip-8"/>
                  </angle>
                  <angle>
                    <activevideoangle>false</activevideoangle>
                    <activeaudioangle>false</activeaudioangle>
                    <clip id="clip-9"/>
                  </angle>
                  <masterclipid>clip-master</masterclipid>
                </multiclip>
              </clipitem>
              <clipitem id="cs-677">
                <duration>170</duration>
                <rate>
                  <ntsc>false</ntsc>
                  <timebase>25</timebase>
                </rate>
                <in>43388</in>
                <out>43557</out>
                <start>43388</start>
                <end>43557</end>
                <file id="src-4"/>
                <sourcetrack>
                  <mediatype>video</mediatype>
                  <trackindex>1</trackindex>
                </sourcetrack>
                <multiclip id="mcs-677">
                  <name>MCS-677</name>
                  <masterclipid>clip-master</masterclipid>
                  <collapsed>false</collapsed>
                  <angle>
                    <activevideoangle>false</activevideoangle>
                    <activeaudioangle>false</activeaudioangle>
                    <clip id="clip-1"/>
                  </angle>
                  <angle>
                    <activevideoangle>false</activevideoangle>
                    <activeaudioangle>false</activeaudioangle>
                    <clip id="clip-2"/>
                  </angle>
                  <angle>
                    <activevideoangle>false</activevideoangle>
                    <activeaudioangle>false</activeaudioangle>
                    <clip id="clip-3"/>
                  </angle>
                  <angle>
                    <activevideoangle>true</activevideoangle>
                    <activeaudioangle>true</activeaudioangle>
                    <clip id="clip-4"/>
                  </angle>
                  <angle>
                    <activevideoangle>false</activevideoangle>
                    <activeaudioangle>false</activeaudioangle>
                    <clip id="clip-5"/>
                  </angle>
                  <angle>
                    <activevideoangle>false</activevideoangle>
                    <activeaudioangle>false</activeaudioangle>
                    <clip id="clip-6"/>
                  </angle>
                  <angle>
                    <activevideoangle>false</activevideoangle>
                    <activeaudioangle>false</activeaudioangle>
                    <clip id="clip-7"/>
                  </angle>
                  <angle>
                    <activevideoangle>false</activevideoangle>
                    <activeaudioangle>false</activeaudioangle>
                    <clip id="clip-8"/>
                  </angle>
                  <angle>
                    <activevideoangle>false</activevideoangle>
                    <activeaudioangle>false</activeaudioangle>
                    <clip id="clip-9"/>
                  </angle>
                  <masterclipid>clip-master</masterclipid>
                </multiclip>
              </clipitem>
              <clipitem id="cs-678">
                <duration>77</duration>
                <rate>
                  <ntsc>false</ntsc>
                  <timebase>25</timebase>
                </rate>
                <in>43557</in>
                <out>43633</out>
                <start>43557</start>
                <end>43633</end>
                <file id="src-7"/>
                <sourcetrack>
                  <mediatype>video</mediatype>
                  <trackindex>1</trackindex>
                </sourcetrack>
                <multiclip id="mcs-678">
                  <name>MCS-678</name>
                  <masterclipid>clip-master</masterclipid>
                  <collapsed>false</collapsed>
                  <angle>
                    <activevideoangle>false</activevideoangle>
                    <activeaudioangle>false</activeaudioangle>
                    <clip id="clip-1"/>
                  </angle>
                  <angle>
                    <activevideoangle>false</activevideoangle>
                    <activeaudioangle>false</activeaudioangle>
                    <clip id="clip-2"/>
                  </angle>
                  <angle>
                    <activevideoangle>false</activevideoangle>
                    <activeaudioangle>false</activeaudioangle>
                    <clip id="clip-3"/>
                  </angle>
                  <angle>
                    <activevideoangle>false</activevideoangle>
                    <activeaudioangle>false</activeaudioangle>
                    <clip id="clip-4"/>
                  </angle>
                  <angle>
                    <activevideoangle>false</activevideoangle>
                    <activeaudioangle>false</activeaudioangle>
                    <clip id="clip-5"/>
                  </angle>
                  <angle>
                    <activevideoangle>false</activevideoangle>
                    <activeaudioangle>false</activeaudioangle>
                    <clip id="clip-6"/>
                  </angle>
                  <angle>
                    <activevideoangle>true</activevideoangle>
                    <activeaudioangle>true</activeaudioangle>
                    <clip id="clip-7"/>
                  </angle>
                  <angle>
                    <activevideoangle>false</activevideoangle>
                    <activeaudioangle>false</activeaudioangle>
                    <clip id="clip-8"/>
                  </angle>
                  <angle>
                    <activevideoangle>false</activevideoangle>
                    <activeaudioangle>false</activeaudioangle>
                    <clip id="clip-9"/>
                  </angle>
                  <masterclipid>clip-master</masterclipid>
                </multiclip>
              </clipitem>
              <clipitem id="cs-679">
                <duration>106</duration>
                <rate>
                  <ntsc>false</ntsc>
                  <timebase>25</timebase>
                </rate>
                <in>43633</in>
                <out>43738</out>
                <start>43633</start>
                <end>43738</end>
                <file id="src-2"/>
                <sourcetrack>
                  <mediatype>video</mediatype>
                  <trackindex>1</trackindex>
                </sourcetrack>
                <multiclip id="mcs-679">
                  <name>MCS-679</name>
                  <masterclipid>clip-master</masterclipid>
                  <collapsed>false</collapsed>
                  <angle>
                    <activevideoangle>false</activevideoangle>
                    <activeaudioangle>false</activeaudioangle>
                    <clip id="clip-1"/>
                  </angle>
                  <angle>
                    <activevideoangle>true</activevideoangle>
                    <activeaudioangle>true</activeaudioangle>
                    <clip id="clip-2"/>
                  </angle>
                  <angle>
                    <activevideoangle>false</activevideoangle>
                    <activeaudioangle>false</activeaudioangle>
                    <clip id="clip-3"/>
                  </angle>
                  <angle>
                    <activevideoangle>false</activevideoangle>
                    <activeaudioangle>false</activeaudioangle>
                    <clip id="clip-4"/>
                  </angle>
                  <angle>
                    <activevideoangle>false</activevideoangle>
                    <activeaudioangle>false</activeaudioangle>
                    <clip id="clip-5"/>
                  </angle>
                  <angle>
                    <activevideoangle>false</activevideoangle>
                    <activeaudioangle>false</activeaudioangle>
                    <clip id="clip-6"/>
                  </angle>
                  <angle>
                    <activevideoangle>false</activevideoangle>
                    <activeaudioangle>false</activeaudioangle>
                    <clip id="clip-7"/>
                  </angle>
                  <angle>
                    <activevideoangle>false</activevideoangle>
                    <activeaudioangle>false</activeaudioangle>
                    <clip id="clip-8"/>
                  </angle>
                  <angle>
                    <activevideoangle>false</activevideoangle>
                    <activeaudioangle>false</activeaudioangle>
                    <clip id="clip-9"/>
                  </angle>
                  <masterclipid>clip-master</masterclipid>
                </multiclip>
              </clipitem>
              <clipitem id="cs-680">
                <duration>258</duration>
                <rate>
                  <ntsc>false</ntsc>
                  <timebase>25</timebase>
                </rate>
                <in>43738</in>
                <out>43995</out>
                <start>43738</start>
                <end>43995</end>
                <file id="src-4"/>
                <sourcetrack>
                  <mediatype>video</mediatype>
                  <trackindex>1</trackindex>
                </sourcetrack>
                <multiclip id="mcs-680">
                  <name>MCS-680</name>
                  <masterclipid>clip-master</masterclipid>
                  <collapsed>false</collapsed>
                  <angle>
                    <activevideoangle>false</activevideoangle>
                    <activeaudioangle>false</activeaudioangle>
                    <clip id="clip-1"/>
                  </angle>
                  <angle>
                    <activevideoangle>false</activevideoangle>
                    <activeaudioangle>false</activeaudioangle>
                    <clip id="clip-2"/>
                  </angle>
                  <angle>
                    <activevideoangle>false</activevideoangle>
                    <activeaudioangle>false</activeaudioangle>
                    <clip id="clip-3"/>
                  </angle>
                  <angle>
                    <activevideoangle>true</activevideoangle>
                    <activeaudioangle>true</activeaudioangle>
                    <clip id="clip-4"/>
                  </angle>
                  <angle>
                    <activevideoangle>false</activevideoangle>
                    <activeaudioangle>false</activeaudioangle>
                    <clip id="clip-5"/>
                  </angle>
                  <angle>
                    <activevideoangle>false</activevideoangle>
                    <activeaudioangle>false</activeaudioangle>
                    <clip id="clip-6"/>
                  </angle>
                  <angle>
                    <activevideoangle>false</activevideoangle>
                    <activeaudioangle>false</activeaudioangle>
                    <clip id="clip-7"/>
                  </angle>
                  <angle>
                    <activevideoangle>false</activevideoangle>
                    <activeaudioangle>false</activeaudioangle>
                    <clip id="clip-8"/>
                  </angle>
                  <angle>
                    <activevideoangle>false</activevideoangle>
                    <activeaudioangle>false</activeaudioangle>
                    <clip id="clip-9"/>
                  </angle>
                  <masterclipid>clip-master</masterclipid>
                </multiclip>
              </clipitem>
              <clipitem id="cs-681">
                <duration>186</duration>
                <rate>
                  <ntsc>false</ntsc>
                  <timebase>25</timebase>
                </rate>
                <in>43995</in>
                <out>44180</out>
                <start>43995</start>
                <end>44180</end>
                <file id="src-2"/>
                <sourcetrack>
                  <mediatype>video</mediatype>
                  <trackindex>1</trackindex>
                </sourcetrack>
                <multiclip id="mcs-681">
                  <name>MCS-681</name>
                  <masterclipid>clip-master</masterclipid>
                  <collapsed>false</collapsed>
                  <angle>
                    <activevideoangle>false</activevideoangle>
                    <activeaudioangle>false</activeaudioangle>
                    <clip id="clip-1"/>
                  </angle>
                  <angle>
                    <activevideoangle>true</activevideoangle>
                    <activeaudioangle>true</activeaudioangle>
                    <clip id="clip-2"/>
                  </angle>
                  <angle>
                    <activevideoangle>false</activevideoangle>
                    <activeaudioangle>false</activeaudioangle>
                    <clip id="clip-3"/>
                  </angle>
                  <angle>
                    <activevideoangle>false</activevideoangle>
                    <activeaudioangle>false</activeaudioangle>
                    <clip id="clip-4"/>
                  </angle>
                  <angle>
                    <activevideoangle>false</activevideoangle>
                    <activeaudioangle>false</activeaudioangle>
                    <clip id="clip-5"/>
                  </angle>
                  <angle>
                    <activevideoangle>false</activevideoangle>
                    <activeaudioangle>false</activeaudioangle>
                    <clip id="clip-6"/>
                  </angle>
                  <angle>
                    <activevideoangle>false</activevideoangle>
                    <activeaudioangle>false</activeaudioangle>
                    <clip id="clip-7"/>
                  </angle>
                  <angle>
                    <activevideoangle>false</activevideoangle>
                    <activeaudioangle>false</activeaudioangle>
                    <clip id="clip-8"/>
                  </angle>
                  <angle>
                    <activevideoangle>false</activevideoangle>
                    <activeaudioangle>false</activeaudioangle>
                    <clip id="clip-9"/>
                  </angle>
                  <masterclipid>clip-master</masterclipid>
                </multiclip>
              </clipitem>
              <clipitem id="cs-682">
                <duration>139</duration>
                <rate>
                  <ntsc>false</ntsc>
                  <timebase>25</timebase>
                </rate>
                <in>44180</in>
                <out>44318</out>
                <start>44180</start>
                <end>44318</end>
                <file id="src-3"/>
                <sourcetrack>
                  <mediatype>video</mediatype>
                  <trackindex>1</trackindex>
                </sourcetrack>
                <multiclip id="mcs-682">
                  <name>MCS-682</name>
                  <masterclipid>clip-master</masterclipid>
                  <collapsed>false</collapsed>
                  <angle>
                    <activevideoangle>false</activevideoangle>
                    <activeaudioangle>false</activeaudioangle>
                    <clip id="clip-1"/>
                  </angle>
                  <angle>
                    <activevideoangle>false</activevideoangle>
                    <activeaudioangle>false</activeaudioangle>
                    <clip id="clip-2"/>
                  </angle>
                  <angle>
                    <activevideoangle>true</activevideoangle>
                    <activeaudioangle>true</activeaudioangle>
                    <clip id="clip-3"/>
                  </angle>
                  <angle>
                    <activevideoangle>false</activevideoangle>
                    <activeaudioangle>false</activeaudioangle>
                    <clip id="clip-4"/>
                  </angle>
                  <angle>
                    <activevideoangle>false</activevideoangle>
                    <activeaudioangle>false</activeaudioangle>
                    <clip id="clip-5"/>
                  </angle>
                  <angle>
                    <activevideoangle>false</activevideoangle>
                    <activeaudioangle>false</activeaudioangle>
                    <clip id="clip-6"/>
                  </angle>
                  <angle>
                    <activevideoangle>false</activevideoangle>
                    <activeaudioangle>false</activeaudioangle>
                    <clip id="clip-7"/>
                  </angle>
                  <angle>
                    <activevideoangle>false</activevideoangle>
                    <activeaudioangle>false</activeaudioangle>
                    <clip id="clip-8"/>
                  </angle>
                  <angle>
                    <activevideoangle>false</activevideoangle>
                    <activeaudioangle>false</activeaudioangle>
                    <clip id="clip-9"/>
                  </angle>
                  <masterclipid>clip-master</masterclipid>
                </multiclip>
              </clipitem>
              <clipitem id="cs-683">
                <duration>102</duration>
                <rate>
                  <ntsc>false</ntsc>
                  <timebase>25</timebase>
                </rate>
                <in>44318</in>
                <out>44419</out>
                <start>44318</start>
                <end>44419</end>
                <file id="src-6"/>
                <sourcetrack>
                  <mediatype>video</mediatype>
                  <trackindex>1</trackindex>
                </sourcetrack>
                <multiclip id="mcs-683">
                  <name>MCS-683</name>
                  <masterclipid>clip-master</masterclipid>
                  <collapsed>false</collapsed>
                  <angle>
                    <activevideoangle>false</activevideoangle>
                    <activeaudioangle>false</activeaudioangle>
                    <clip id="clip-1"/>
                  </angle>
                  <angle>
                    <activevideoangle>false</activevideoangle>
                    <activeaudioangle>false</activeaudioangle>
                    <clip id="clip-2"/>
                  </angle>
                  <angle>
                    <activevideoangle>false</activevideoangle>
                    <activeaudioangle>false</activeaudioangle>
                    <clip id="clip-3"/>
                  </angle>
                  <angle>
                    <activevideoangle>false</activevideoangle>
                    <activeaudioangle>false</activeaudioangle>
                    <clip id="clip-4"/>
                  </angle>
                  <angle>
                    <activevideoangle>false</activevideoangle>
                    <activeaudioangle>false</activeaudioangle>
                    <clip id="clip-5"/>
                  </angle>
                  <angle>
                    <activevideoangle>true</activevideoangle>
                    <activeaudioangle>true</activeaudioangle>
                    <clip id="clip-6"/>
                  </angle>
                  <angle>
                    <activevideoangle>false</activevideoangle>
                    <activeaudioangle>false</activeaudioangle>
                    <clip id="clip-7"/>
                  </angle>
                  <angle>
                    <activevideoangle>false</activevideoangle>
                    <activeaudioangle>false</activeaudioangle>
                    <clip id="clip-8"/>
                  </angle>
                  <angle>
                    <activevideoangle>false</activevideoangle>
                    <activeaudioangle>false</activeaudioangle>
                    <clip id="clip-9"/>
                  </angle>
                  <masterclipid>clip-master</masterclipid>
                </multiclip>
              </clipitem>
              <clipitem id="cs-684">
                <duration>184</duration>
                <rate>
                  <ntsc>false</ntsc>
                  <timebase>25</timebase>
                </rate>
                <in>44419</in>
                <out>44602</out>
                <start>44419</start>
                <end>44602</end>
                <file id="src-4"/>
                <sourcetrack>
                  <mediatype>video</mediatype>
                  <trackindex>1</trackindex>
                </sourcetrack>
                <multiclip id="mcs-684">
                  <name>MCS-684</name>
                  <masterclipid>clip-master</masterclipid>
                  <collapsed>false</collapsed>
                  <angle>
                    <activevideoangle>false</activevideoangle>
                    <activeaudioangle>false</activeaudioangle>
                    <clip id="clip-1"/>
                  </angle>
                  <angle>
                    <activevideoangle>false</activevideoangle>
                    <activeaudioangle>false</activeaudioangle>
                    <clip id="clip-2"/>
                  </angle>
                  <angle>
                    <activevideoangle>false</activevideoangle>
                    <activeaudioangle>false</activeaudioangle>
                    <clip id="clip-3"/>
                  </angle>
                  <angle>
                    <activevideoangle>true</activevideoangle>
                    <activeaudioangle>true</activeaudioangle>
                    <clip id="clip-4"/>
                  </angle>
                  <angle>
                    <activevideoangle>false</activevideoangle>
                    <activeaudioangle>false</activeaudioangle>
                    <clip id="clip-5"/>
                  </angle>
                  <angle>
                    <activevideoangle>false</activevideoangle>
                    <activeaudioangle>false</activeaudioangle>
                    <clip id="clip-6"/>
                  </angle>
                  <angle>
                    <activevideoangle>false</activevideoangle>
                    <activeaudioangle>false</activeaudioangle>
                    <clip id="clip-7"/>
                  </angle>
                  <angle>
                    <activevideoangle>false</activevideoangle>
                    <activeaudioangle>false</activeaudioangle>
                    <clip id="clip-8"/>
                  </angle>
                  <angle>
                    <activevideoangle>false</activevideoangle>
                    <activeaudioangle>false</activeaudioangle>
                    <clip id="clip-9"/>
                  </angle>
                  <masterclipid>clip-master</masterclipid>
                </multiclip>
              </clipitem>
              <clipitem id="cs-685">
                <duration>57</duration>
                <rate>
                  <ntsc>false</ntsc>
                  <timebase>25</timebase>
                </rate>
                <in>44602</in>
                <out>44658</out>
                <start>44602</start>
                <end>44658</end>
                <file id="src-5"/>
                <sourcetrack>
                  <mediatype>video</mediatype>
                  <trackindex>1</trackindex>
                </sourcetrack>
                <multiclip id="mcs-685">
                  <name>MCS-685</name>
                  <masterclipid>clip-master</masterclipid>
                  <collapsed>false</collapsed>
                  <angle>
                    <activevideoangle>false</activevideoangle>
                    <activeaudioangle>false</activeaudioangle>
                    <clip id="clip-1"/>
                  </angle>
                  <angle>
                    <activevideoangle>false</activevideoangle>
                    <activeaudioangle>false</activeaudioangle>
                    <clip id="clip-2"/>
                  </angle>
                  <angle>
                    <activevideoangle>false</activevideoangle>
                    <activeaudioangle>false</activeaudioangle>
                    <clip id="clip-3"/>
                  </angle>
                  <angle>
                    <activevideoangle>false</activevideoangle>
                    <activeaudioangle>false</activeaudioangle>
                    <clip id="clip-4"/>
                  </angle>
                  <angle>
                    <activevideoangle>true</activevideoangle>
                    <activeaudioangle>true</activeaudioangle>
                    <clip id="clip-5"/>
                  </angle>
                  <angle>
                    <activevideoangle>false</activevideoangle>
                    <activeaudioangle>false</activeaudioangle>
                    <clip id="clip-6"/>
                  </angle>
                  <angle>
                    <activevideoangle>false</activevideoangle>
                    <activeaudioangle>false</activeaudioangle>
                    <clip id="clip-7"/>
                  </angle>
                  <angle>
                    <activevideoangle>false</activevideoangle>
                    <activeaudioangle>false</activeaudioangle>
                    <clip id="clip-8"/>
                  </angle>
                  <angle>
                    <activevideoangle>false</activevideoangle>
                    <activeaudioangle>false</activeaudioangle>
                    <clip id="clip-9"/>
                  </angle>
                  <masterclipid>clip-master</masterclipid>
                </multiclip>
              </clipitem>
              <clipitem id="cs-686">
                <duration>60</duration>
                <rate>
                  <ntsc>false</ntsc>
                  <timebase>25</timebase>
                </rate>
                <in>44658</in>
                <out>44717</out>
                <start>44658</start>
                <end>44717</end>
                <file id="src-4"/>
                <sourcetrack>
                  <mediatype>video</mediatype>
                  <trackindex>1</trackindex>
                </sourcetrack>
                <multiclip id="mcs-686">
                  <name>MCS-686</name>
                  <masterclipid>clip-master</masterclipid>
                  <collapsed>false</collapsed>
                  <angle>
                    <activevideoangle>false</activevideoangle>
                    <activeaudioangle>false</activeaudioangle>
                    <clip id="clip-1"/>
                  </angle>
                  <angle>
                    <activevideoangle>false</activevideoangle>
                    <activeaudioangle>false</activeaudioangle>
                    <clip id="clip-2"/>
                  </angle>
                  <angle>
                    <activevideoangle>false</activevideoangle>
                    <activeaudioangle>false</activeaudioangle>
                    <clip id="clip-3"/>
                  </angle>
                  <angle>
                    <activevideoangle>true</activevideoangle>
                    <activeaudioangle>true</activeaudioangle>
                    <clip id="clip-4"/>
                  </angle>
                  <angle>
                    <activevideoangle>false</activevideoangle>
                    <activeaudioangle>false</activeaudioangle>
                    <clip id="clip-5"/>
                  </angle>
                  <angle>
                    <activevideoangle>false</activevideoangle>
                    <activeaudioangle>false</activeaudioangle>
                    <clip id="clip-6"/>
                  </angle>
                  <angle>
                    <activevideoangle>false</activevideoangle>
                    <activeaudioangle>false</activeaudioangle>
                    <clip id="clip-7"/>
                  </angle>
                  <angle>
                    <activevideoangle>false</activevideoangle>
                    <activeaudioangle>false</activeaudioangle>
                    <clip id="clip-8"/>
                  </angle>
                  <angle>
                    <activevideoangle>false</activevideoangle>
                    <activeaudioangle>false</activeaudioangle>
                    <clip id="clip-9"/>
                  </angle>
                  <masterclipid>clip-master</masterclipid>
                </multiclip>
              </clipitem>
              <clipitem id="cs-687">
                <duration>234</duration>
                <rate>
                  <ntsc>false</ntsc>
                  <timebase>25</timebase>
                </rate>
                <in>44717</in>
                <out>44950</out>
                <start>44717</start>
                <end>44950</end>
                <file id="src-8"/>
                <sourcetrack>
                  <mediatype>video</mediatype>
                  <trackindex>1</trackindex>
                </sourcetrack>
                <multiclip id="mcs-687">
                  <name>MCS-687</name>
                  <masterclipid>clip-master</masterclipid>
                  <collapsed>false</collapsed>
                  <angle>
                    <activevideoangle>false</activevideoangle>
                    <activeaudioangle>false</activeaudioangle>
                    <clip id="clip-1"/>
                  </angle>
                  <angle>
                    <activevideoangle>false</activevideoangle>
                    <activeaudioangle>false</activeaudioangle>
                    <clip id="clip-2"/>
                  </angle>
                  <angle>
                    <activevideoangle>false</activevideoangle>
                    <activeaudioangle>false</activeaudioangle>
                    <clip id="clip-3"/>
                  </angle>
                  <angle>
                    <activevideoangle>false</activevideoangle>
                    <activeaudioangle>false</activeaudioangle>
                    <clip id="clip-4"/>
                  </angle>
                  <angle>
                    <activevideoangle>false</activevideoangle>
                    <activeaudioangle>false</activeaudioangle>
                    <clip id="clip-5"/>
                  </angle>
                  <angle>
                    <activevideoangle>false</activevideoangle>
                    <activeaudioangle>false</activeaudioangle>
                    <clip id="clip-6"/>
                  </angle>
                  <angle>
                    <activevideoangle>false</activevideoangle>
                    <activeaudioangle>false</activeaudioangle>
                    <clip id="clip-7"/>
                  </angle>
                  <angle>
                    <activevideoangle>true</activevideoangle>
                    <activeaudioangle>true</activeaudioangle>
                    <clip id="clip-8"/>
                  </angle>
                  <angle>
                    <activevideoangle>false</activevideoangle>
                    <activeaudioangle>false</activeaudioangle>
                    <clip id="clip-9"/>
                  </angle>
                  <masterclipid>clip-master</masterclipid>
                </multiclip>
              </clipitem>
              <clipitem id="cs-688">
                <duration>122</duration>
                <rate>
                  <ntsc>false</ntsc>
                  <timebase>25</timebase>
                </rate>
                <in>44950</in>
                <out>45071</out>
                <start>44950</start>
                <end>45071</end>
                <file id="src-5"/>
                <sourcetrack>
                  <mediatype>video</mediatype>
                  <trackindex>1</trackindex>
                </sourcetrack>
                <multiclip id="mcs-688">
                  <name>MCS-688</name>
                  <masterclipid>clip-master</masterclipid>
                  <collapsed>false</collapsed>
                  <angle>
                    <activevideoangle>false</activevideoangle>
                    <activeaudioangle>false</activeaudioangle>
                    <clip id="clip-1"/>
                  </angle>
                  <angle>
                    <activevideoangle>false</activevideoangle>
                    <activeaudioangle>false</activeaudioangle>
                    <clip id="clip-2"/>
                  </angle>
                  <angle>
                    <activevideoangle>false</activevideoangle>
                    <activeaudioangle>false</activeaudioangle>
                    <clip id="clip-3"/>
                  </angle>
                  <angle>
                    <activevideoangle>false</activevideoangle>
                    <activeaudioangle>false</activeaudioangle>
                    <clip id="clip-4"/>
                  </angle>
                  <angle>
                    <activevideoangle>true</activevideoangle>
                    <activeaudioangle>true</activeaudioangle>
                    <clip id="clip-5"/>
                  </angle>
                  <angle>
                    <activevideoangle>false</activevideoangle>
                    <activeaudioangle>false</activeaudioangle>
                    <clip id="clip-6"/>
                  </angle>
                  <angle>
                    <activevideoangle>false</activevideoangle>
                    <activeaudioangle>false</activeaudioangle>
                    <clip id="clip-7"/>
                  </angle>
                  <angle>
                    <activevideoangle>false</activevideoangle>
                    <activeaudioangle>false</activeaudioangle>
                    <clip id="clip-8"/>
                  </angle>
                  <angle>
                    <activevideoangle>false</activevideoangle>
                    <activeaudioangle>false</activeaudioangle>
                    <clip id="clip-9"/>
                  </angle>
                  <masterclipid>clip-master</masterclipid>
                </multiclip>
              </clipitem>
              <clipitem id="cs-689">
                <duration>183</duration>
                <rate>
                  <ntsc>false</ntsc>
                  <timebase>25</timebase>
                </rate>
                <in>45071</in>
                <out>45253</out>
                <start>45071</start>
                <end>45253</end>
                <file id="src-4"/>
                <sourcetrack>
                  <mediatype>video</mediatype>
                  <trackindex>1</trackindex>
                </sourcetrack>
                <multiclip id="mcs-689">
                  <name>MCS-689</name>
                  <masterclipid>clip-master</masterclipid>
                  <collapsed>false</collapsed>
                  <angle>
                    <activevideoangle>false</activevideoangle>
                    <activeaudioangle>false</activeaudioangle>
                    <clip id="clip-1"/>
                  </angle>
                  <angle>
                    <activevideoangle>false</activevideoangle>
                    <activeaudioangle>false</activeaudioangle>
                    <clip id="clip-2"/>
                  </angle>
                  <angle>
                    <activevideoangle>false</activevideoangle>
                    <activeaudioangle>false</activeaudioangle>
                    <clip id="clip-3"/>
                  </angle>
                  <angle>
                    <activevideoangle>true</activevideoangle>
                    <activeaudioangle>true</activeaudioangle>
                    <clip id="clip-4"/>
                  </angle>
                  <angle>
                    <activevideoangle>false</activevideoangle>
                    <activeaudioangle>false</activeaudioangle>
                    <clip id="clip-5"/>
                  </angle>
                  <angle>
                    <activevideoangle>false</activevideoangle>
                    <activeaudioangle>false</activeaudioangle>
                    <clip id="clip-6"/>
                  </angle>
                  <angle>
                    <activevideoangle>false</activevideoangle>
                    <activeaudioangle>false</activeaudioangle>
                    <clip id="clip-7"/>
                  </angle>
                  <angle>
                    <activevideoangle>false</activevideoangle>
                    <activeaudioangle>false</activeaudioangle>
                    <clip id="clip-8"/>
                  </angle>
                  <angle>
                    <activevideoangle>false</activevideoangle>
                    <activeaudioangle>false</activeaudioangle>
                    <clip id="clip-9"/>
                  </angle>
                  <masterclipid>clip-master</masterclipid>
                </multiclip>
              </clipitem>
              <clipitem id="cs-690">
                <duration>203</duration>
                <rate>
                  <ntsc>false</ntsc>
                  <timebase>25</timebase>
                </rate>
                <in>45253</in>
                <out>45455</out>
                <start>45253</start>
                <end>45455</end>
                <file id="src-1"/>
                <sourcetrack>
                  <mediatype>video</mediatype>
                  <trackindex>1</trackindex>
                </sourcetrack>
                <multiclip id="mcs-690">
                  <name>MCS-690</name>
                  <masterclipid>clip-master</masterclipid>
                  <collapsed>false</collapsed>
                  <angle>
                    <activevideoangle>true</activevideoangle>
                    <activeaudioangle>true</activeaudioangle>
                    <clip id="clip-1"/>
                  </angle>
                  <angle>
                    <activevideoangle>false</activevideoangle>
                    <activeaudioangle>false</activeaudioangle>
                    <clip id="clip-2"/>
                  </angle>
                  <angle>
                    <activevideoangle>false</activevideoangle>
                    <activeaudioangle>false</activeaudioangle>
                    <clip id="clip-3"/>
                  </angle>
                  <angle>
                    <activevideoangle>false</activevideoangle>
                    <activeaudioangle>false</activeaudioangle>
                    <clip id="clip-4"/>
                  </angle>
                  <angle>
                    <activevideoangle>false</activevideoangle>
                    <activeaudioangle>false</activeaudioangle>
                    <clip id="clip-5"/>
                  </angle>
                  <angle>
                    <activevideoangle>false</activevideoangle>
                    <activeaudioangle>false</activeaudioangle>
                    <clip id="clip-6"/>
                  </angle>
                  <angle>
                    <activevideoangle>false</activevideoangle>
                    <activeaudioangle>false</activeaudioangle>
                    <clip id="clip-7"/>
                  </angle>
                  <angle>
                    <activevideoangle>false</activevideoangle>
                    <activeaudioangle>false</activeaudioangle>
                    <clip id="clip-8"/>
                  </angle>
                  <angle>
                    <activevideoangle>false</activevideoangle>
                    <activeaudioangle>false</activeaudioangle>
                    <clip id="clip-9"/>
                  </angle>
                  <masterclipid>clip-master</masterclipid>
                </multiclip>
              </clipitem>
              <clipitem id="cs-691">
                <duration>444</duration>
                <rate>
                  <ntsc>false</ntsc>
                  <timebase>25</timebase>
                </rate>
                <in>45455</in>
                <out>45898</out>
                <start>45455</start>
                <end>45898</end>
                <file id="src-4"/>
                <sourcetrack>
                  <mediatype>video</mediatype>
                  <trackindex>1</trackindex>
                </sourcetrack>
                <multiclip id="mcs-691">
                  <name>MCS-691</name>
                  <masterclipid>clip-master</masterclipid>
                  <collapsed>false</collapsed>
                  <angle>
                    <activevideoangle>false</activevideoangle>
                    <activeaudioangle>false</activeaudioangle>
                    <clip id="clip-1"/>
                  </angle>
                  <angle>
                    <activevideoangle>false</activevideoangle>
                    <activeaudioangle>false</activeaudioangle>
                    <clip id="clip-2"/>
                  </angle>
                  <angle>
                    <activevideoangle>false</activevideoangle>
                    <activeaudioangle>false</activeaudioangle>
                    <clip id="clip-3"/>
                  </angle>
                  <angle>
                    <activevideoangle>true</activevideoangle>
                    <activeaudioangle>true</activeaudioangle>
                    <clip id="clip-4"/>
                  </angle>
                  <angle>
                    <activevideoangle>false</activevideoangle>
                    <activeaudioangle>false</activeaudioangle>
                    <clip id="clip-5"/>
                  </angle>
                  <angle>
                    <activevideoangle>false</activevideoangle>
                    <activeaudioangle>false</activeaudioangle>
                    <clip id="clip-6"/>
                  </angle>
                  <angle>
                    <activevideoangle>false</activevideoangle>
                    <activeaudioangle>false</activeaudioangle>
                    <clip id="clip-7"/>
                  </angle>
                  <angle>
                    <activevideoangle>false</activevideoangle>
                    <activeaudioangle>false</activeaudioangle>
                    <clip id="clip-8"/>
                  </angle>
                  <angle>
                    <activevideoangle>false</activevideoangle>
                    <activeaudioangle>false</activeaudioangle>
                    <clip id="clip-9"/>
                  </angle>
                  <masterclipid>clip-master</masterclipid>
                </multiclip>
              </clipitem>
              <clipitem id="cs-692">
                <duration>202</duration>
                <rate>
                  <ntsc>false</ntsc>
                  <timebase>25</timebase>
                </rate>
                <in>45898</in>
                <out>46099</out>
                <start>45898</start>
                <end>46099</end>
                <file id="src-1"/>
                <sourcetrack>
                  <mediatype>video</mediatype>
                  <trackindex>1</trackindex>
                </sourcetrack>
                <multiclip id="mcs-692">
                  <name>MCS-692</name>
                  <masterclipid>clip-master</masterclipid>
                  <collapsed>false</collapsed>
                  <angle>
                    <activevideoangle>true</activevideoangle>
                    <activeaudioangle>true</activeaudioangle>
                    <clip id="clip-1"/>
                  </angle>
                  <angle>
                    <activevideoangle>false</activevideoangle>
                    <activeaudioangle>false</activeaudioangle>
                    <clip id="clip-2"/>
                  </angle>
                  <angle>
                    <activevideoangle>false</activevideoangle>
                    <activeaudioangle>false</activeaudioangle>
                    <clip id="clip-3"/>
                  </angle>
                  <angle>
                    <activevideoangle>false</activevideoangle>
                    <activeaudioangle>false</activeaudioangle>
                    <clip id="clip-4"/>
                  </angle>
                  <angle>
                    <activevideoangle>false</activevideoangle>
                    <activeaudioangle>false</activeaudioangle>
                    <clip id="clip-5"/>
                  </angle>
                  <angle>
                    <activevideoangle>false</activevideoangle>
                    <activeaudioangle>false</activeaudioangle>
                    <clip id="clip-6"/>
                  </angle>
                  <angle>
                    <activevideoangle>false</activevideoangle>
                    <activeaudioangle>false</activeaudioangle>
                    <clip id="clip-7"/>
                  </angle>
                  <angle>
                    <activevideoangle>false</activevideoangle>
                    <activeaudioangle>false</activeaudioangle>
                    <clip id="clip-8"/>
                  </angle>
                  <angle>
                    <activevideoangle>false</activevideoangle>
                    <activeaudioangle>false</activeaudioangle>
                    <clip id="clip-9"/>
                  </angle>
                  <masterclipid>clip-master</masterclipid>
                </multiclip>
              </clipitem>
              <clipitem id="cs-693">
                <duration>157</duration>
                <rate>
                  <ntsc>false</ntsc>
                  <timebase>25</timebase>
                </rate>
                <in>46099</in>
                <out>46255</out>
                <start>46099</start>
                <end>46255</end>
                <file id="src-3"/>
                <sourcetrack>
                  <mediatype>video</mediatype>
                  <trackindex>1</trackindex>
                </sourcetrack>
                <multiclip id="mcs-693">
                  <name>MCS-693</name>
                  <masterclipid>clip-master</masterclipid>
                  <collapsed>false</collapsed>
                  <angle>
                    <activevideoangle>false</activevideoangle>
                    <activeaudioangle>false</activeaudioangle>
                    <clip id="clip-1"/>
                  </angle>
                  <angle>
                    <activevideoangle>false</activevideoangle>
                    <activeaudioangle>false</activeaudioangle>
                    <clip id="clip-2"/>
                  </angle>
                  <angle>
                    <activevideoangle>true</activevideoangle>
                    <activeaudioangle>true</activeaudioangle>
                    <clip id="clip-3"/>
                  </angle>
                  <angle>
                    <activevideoangle>false</activevideoangle>
                    <activeaudioangle>false</activeaudioangle>
                    <clip id="clip-4"/>
                  </angle>
                  <angle>
                    <activevideoangle>false</activevideoangle>
                    <activeaudioangle>false</activeaudioangle>
                    <clip id="clip-5"/>
                  </angle>
                  <angle>
                    <activevideoangle>false</activevideoangle>
                    <activeaudioangle>false</activeaudioangle>
                    <clip id="clip-6"/>
                  </angle>
                  <angle>
                    <activevideoangle>false</activevideoangle>
                    <activeaudioangle>false</activeaudioangle>
                    <clip id="clip-7"/>
                  </angle>
                  <angle>
                    <activevideoangle>false</activevideoangle>
                    <activeaudioangle>false</activeaudioangle>
                    <clip id="clip-8"/>
                  </angle>
                  <angle>
                    <activevideoangle>false</activevideoangle>
                    <activeaudioangle>false</activeaudioangle>
                    <clip id="clip-9"/>
                  </angle>
                  <masterclipid>clip-master</masterclipid>
                </multiclip>
              </clipitem>
              <clipitem id="cs-694">
                <duration>187</duration>
                <rate>
                  <ntsc>false</ntsc>
                  <timebase>25</timebase>
                </rate>
                <in>46255</in>
                <out>46441</out>
                <start>46255</start>
                <end>46441</end>
                <file id="src-4"/>
                <sourcetrack>
                  <mediatype>video</mediatype>
                  <trackindex>1</trackindex>
                </sourcetrack>
                <multiclip id="mcs-694">
                  <name>MCS-694</name>
                  <masterclipid>clip-master</masterclipid>
                  <collapsed>false</collapsed>
                  <angle>
                    <activevideoangle>false</activevideoangle>
                    <activeaudioangle>false</activeaudioangle>
                    <clip id="clip-1"/>
                  </angle>
                  <angle>
                    <activevideoangle>false</activevideoangle>
                    <activeaudioangle>false</activeaudioangle>
                    <clip id="clip-2"/>
                  </angle>
                  <angle>
                    <activevideoangle>false</activevideoangle>
                    <activeaudioangle>false</activeaudioangle>
                    <clip id="clip-3"/>
                  </angle>
                  <angle>
                    <activevideoangle>true</activevideoangle>
                    <activeaudioangle>true</activeaudioangle>
                    <clip id="clip-4"/>
                  </angle>
                  <angle>
                    <activevideoangle>false</activevideoangle>
                    <activeaudioangle>false</activeaudioangle>
                    <clip id="clip-5"/>
                  </angle>
                  <angle>
                    <activevideoangle>false</activevideoangle>
                    <activeaudioangle>false</activeaudioangle>
                    <clip id="clip-6"/>
                  </angle>
                  <angle>
                    <activevideoangle>false</activevideoangle>
                    <activeaudioangle>false</activeaudioangle>
                    <clip id="clip-7"/>
                  </angle>
                  <angle>
                    <activevideoangle>false</activevideoangle>
                    <activeaudioangle>false</activeaudioangle>
                    <clip id="clip-8"/>
                  </angle>
                  <angle>
                    <activevideoangle>false</activevideoangle>
                    <activeaudioangle>false</activeaudioangle>
                    <clip id="clip-9"/>
                  </angle>
                  <masterclipid>clip-master</masterclipid>
                </multiclip>
              </clipitem>
              <clipitem id="cs-695">
                <duration>105</duration>
                <rate>
                  <ntsc>false</ntsc>
                  <timebase>25</timebase>
                </rate>
                <in>46441</in>
                <out>46545</out>
                <start>46441</start>
                <end>46545</end>
                <file id="src-6"/>
                <sourcetrack>
                  <mediatype>video</mediatype>
                  <trackindex>1</trackindex>
                </sourcetrack>
                <multiclip id="mcs-695">
                  <name>MCS-695</name>
                  <masterclipid>clip-master</masterclipid>
                  <collapsed>false</collapsed>
                  <angle>
                    <activevideoangle>false</activevideoangle>
                    <activeaudioangle>false</activeaudioangle>
                    <clip id="clip-1"/>
                  </angle>
                  <angle>
                    <activevideoangle>false</activevideoangle>
                    <activeaudioangle>false</activeaudioangle>
                    <clip id="clip-2"/>
                  </angle>
                  <angle>
                    <activevideoangle>false</activevideoangle>
                    <activeaudioangle>false</activeaudioangle>
                    <clip id="clip-3"/>
                  </angle>
                  <angle>
                    <activevideoangle>false</activevideoangle>
                    <activeaudioangle>false</activeaudioangle>
                    <clip id="clip-4"/>
                  </angle>
                  <angle>
                    <activevideoangle>false</activevideoangle>
                    <activeaudioangle>false</activeaudioangle>
                    <clip id="clip-5"/>
                  </angle>
                  <angle>
                    <activevideoangle>true</activevideoangle>
                    <activeaudioangle>true</activeaudioangle>
                    <clip id="clip-6"/>
                  </angle>
                  <angle>
                    <activevideoangle>false</activevideoangle>
                    <activeaudioangle>false</activeaudioangle>
                    <clip id="clip-7"/>
                  </angle>
                  <angle>
                    <activevideoangle>false</activevideoangle>
                    <activeaudioangle>false</activeaudioangle>
                    <clip id="clip-8"/>
                  </angle>
                  <angle>
                    <activevideoangle>false</activevideoangle>
                    <activeaudioangle>false</activeaudioangle>
                    <clip id="clip-9"/>
                  </angle>
                  <masterclipid>clip-master</masterclipid>
                </multiclip>
              </clipitem>
              <clipitem id="cs-696">
                <duration>101</duration>
                <rate>
                  <ntsc>false</ntsc>
                  <timebase>25</timebase>
                </rate>
                <in>46545</in>
                <out>46645</out>
                <start>46545</start>
                <end>46645</end>
                <file id="src-3"/>
                <sourcetrack>
                  <mediatype>video</mediatype>
                  <trackindex>1</trackindex>
                </sourcetrack>
                <multiclip id="mcs-696">
                  <name>MCS-696</name>
                  <masterclipid>clip-master</masterclipid>
                  <collapsed>false</collapsed>
                  <angle>
                    <activevideoangle>false</activevideoangle>
                    <activeaudioangle>false</activeaudioangle>
                    <clip id="clip-1"/>
                  </angle>
                  <angle>
                    <activevideoangle>false</activevideoangle>
                    <activeaudioangle>false</activeaudioangle>
                    <clip id="clip-2"/>
                  </angle>
                  <angle>
                    <activevideoangle>true</activevideoangle>
                    <activeaudioangle>true</activeaudioangle>
                    <clip id="clip-3"/>
                  </angle>
                  <angle>
                    <activevideoangle>false</activevideoangle>
                    <activeaudioangle>false</activeaudioangle>
                    <clip id="clip-4"/>
                  </angle>
                  <angle>
                    <activevideoangle>false</activevideoangle>
                    <activeaudioangle>false</activeaudioangle>
                    <clip id="clip-5"/>
                  </angle>
                  <angle>
                    <activevideoangle>false</activevideoangle>
                    <activeaudioangle>false</activeaudioangle>
                    <clip id="clip-6"/>
                  </angle>
                  <angle>
                    <activevideoangle>false</activevideoangle>
                    <activeaudioangle>false</activeaudioangle>
                    <clip id="clip-7"/>
                  </angle>
                  <angle>
                    <activevideoangle>false</activevideoangle>
                    <activeaudioangle>false</activeaudioangle>
                    <clip id="clip-8"/>
                  </angle>
                  <angle>
                    <activevideoangle>false</activevideoangle>
                    <activeaudioangle>false</activeaudioangle>
                    <clip id="clip-9"/>
                  </angle>
                  <masterclipid>clip-master</masterclipid>
                </multiclip>
              </clipitem>
              <clipitem id="cs-697">
                <duration>59</duration>
                <rate>
                  <ntsc>false</ntsc>
                  <timebase>25</timebase>
                </rate>
                <in>46645</in>
                <out>46703</out>
                <start>46645</start>
                <end>46703</end>
                <file id="src-4"/>
                <sourcetrack>
                  <mediatype>video</mediatype>
                  <trackindex>1</trackindex>
                </sourcetrack>
                <multiclip id="mcs-697">
                  <name>MCS-697</name>
                  <masterclipid>clip-master</masterclipid>
                  <collapsed>false</collapsed>
                  <angle>
                    <activevideoangle>false</activevideoangle>
                    <activeaudioangle>false</activeaudioangle>
                    <clip id="clip-1"/>
                  </angle>
                  <angle>
                    <activevideoangle>false</activevideoangle>
                    <activeaudioangle>false</activeaudioangle>
                    <clip id="clip-2"/>
                  </angle>
                  <angle>
                    <activevideoangle>false</activevideoangle>
                    <activeaudioangle>false</activeaudioangle>
                    <clip id="clip-3"/>
                  </angle>
                  <angle>
                    <activevideoangle>true</activevideoangle>
                    <activeaudioangle>true</activeaudioangle>
                    <clip id="clip-4"/>
                  </angle>
                  <angle>
                    <activevideoangle>false</activevideoangle>
                    <activeaudioangle>false</activeaudioangle>
                    <clip id="clip-5"/>
                  </angle>
                  <angle>
                    <activevideoangle>false</activevideoangle>
                    <activeaudioangle>false</activeaudioangle>
                    <clip id="clip-6"/>
                  </angle>
                  <angle>
                    <activevideoangle>false</activevideoangle>
                    <activeaudioangle>false</activeaudioangle>
                    <clip id="clip-7"/>
                  </angle>
                  <angle>
                    <activevideoangle>false</activevideoangle>
                    <activeaudioangle>false</activeaudioangle>
                    <clip id="clip-8"/>
                  </angle>
                  <angle>
                    <activevideoangle>false</activevideoangle>
                    <activeaudioangle>false</activeaudioangle>
                    <clip id="clip-9"/>
                  </angle>
                  <masterclipid>clip-master</masterclipid>
                </multiclip>
              </clipitem>
              <clipitem id="cs-698">
                <duration>77</duration>
                <rate>
                  <ntsc>false</ntsc>
                  <timebase>25</timebase>
                </rate>
                <in>46703</in>
                <out>46779</out>
                <start>46703</start>
                <end>46779</end>
                <file id="src-2"/>
                <sourcetrack>
                  <mediatype>video</mediatype>
                  <trackindex>1</trackindex>
                </sourcetrack>
                <multiclip id="mcs-698">
                  <name>MCS-698</name>
                  <masterclipid>clip-master</masterclipid>
                  <collapsed>false</collapsed>
                  <angle>
                    <activevideoangle>false</activevideoangle>
                    <activeaudioangle>false</activeaudioangle>
                    <clip id="clip-1"/>
                  </angle>
                  <angle>
                    <activevideoangle>true</activevideoangle>
                    <activeaudioangle>true</activeaudioangle>
                    <clip id="clip-2"/>
                  </angle>
                  <angle>
                    <activevideoangle>false</activevideoangle>
                    <activeaudioangle>false</activeaudioangle>
                    <clip id="clip-3"/>
                  </angle>
                  <angle>
                    <activevideoangle>false</activevideoangle>
                    <activeaudioangle>false</activeaudioangle>
                    <clip id="clip-4"/>
                  </angle>
                  <angle>
                    <activevideoangle>false</activevideoangle>
                    <activeaudioangle>false</activeaudioangle>
                    <clip id="clip-5"/>
                  </angle>
                  <angle>
                    <activevideoangle>false</activevideoangle>
                    <activeaudioangle>false</activeaudioangle>
                    <clip id="clip-6"/>
                  </angle>
                  <angle>
                    <activevideoangle>false</activevideoangle>
                    <activeaudioangle>false</activeaudioangle>
                    <clip id="clip-7"/>
                  </angle>
                  <angle>
                    <activevideoangle>false</activevideoangle>
                    <activeaudioangle>false</activeaudioangle>
                    <clip id="clip-8"/>
                  </angle>
                  <angle>
                    <activevideoangle>false</activevideoangle>
                    <activeaudioangle>false</activeaudioangle>
                    <clip id="clip-9"/>
                  </angle>
                  <masterclipid>clip-master</masterclipid>
                </multiclip>
              </clipitem>
              <clipitem id="cs-699">
                <duration>116</duration>
                <rate>
                  <ntsc>false</ntsc>
                  <timebase>25</timebase>
                </rate>
                <in>46779</in>
                <out>46894</out>
                <start>46779</start>
                <end>46894</end>
                <file id="src-5"/>
                <sourcetrack>
                  <mediatype>video</mediatype>
                  <trackindex>1</trackindex>
                </sourcetrack>
                <multiclip id="mcs-699">
                  <name>MCS-699</name>
                  <masterclipid>clip-master</masterclipid>
                  <collapsed>false</collapsed>
                  <angle>
                    <activevideoangle>false</activevideoangle>
                    <activeaudioangle>false</activeaudioangle>
                    <clip id="clip-1"/>
                  </angle>
                  <angle>
                    <activevideoangle>false</activevideoangle>
                    <activeaudioangle>false</activeaudioangle>
                    <clip id="clip-2"/>
                  </angle>
                  <angle>
                    <activevideoangle>false</activevideoangle>
                    <activeaudioangle>false</activeaudioangle>
                    <clip id="clip-3"/>
                  </angle>
                  <angle>
                    <activevideoangle>false</activevideoangle>
                    <activeaudioangle>false</activeaudioangle>
                    <clip id="clip-4"/>
                  </angle>
                  <angle>
                    <activevideoangle>true</activevideoangle>
                    <activeaudioangle>true</activeaudioangle>
                    <clip id="clip-5"/>
                  </angle>
                  <angle>
                    <activevideoangle>false</activevideoangle>
                    <activeaudioangle>false</activeaudioangle>
                    <clip id="clip-6"/>
                  </angle>
                  <angle>
                    <activevideoangle>false</activevideoangle>
                    <activeaudioangle>false</activeaudioangle>
                    <clip id="clip-7"/>
                  </angle>
                  <angle>
                    <activevideoangle>false</activevideoangle>
                    <activeaudioangle>false</activeaudioangle>
                    <clip id="clip-8"/>
                  </angle>
                  <angle>
                    <activevideoangle>false</activevideoangle>
                    <activeaudioangle>false</activeaudioangle>
                    <clip id="clip-9"/>
                  </angle>
                  <masterclipid>clip-master</masterclipid>
                </multiclip>
              </clipitem>
              <clipitem id="cs-700">
                <duration>60</duration>
                <rate>
                  <ntsc>false</ntsc>
                  <timebase>25</timebase>
                </rate>
                <in>46894</in>
                <out>46953</out>
                <start>46894</start>
                <end>46953</end>
                <file id="src-3"/>
                <sourcetrack>
                  <mediatype>video</mediatype>
                  <trackindex>1</trackindex>
                </sourcetrack>
                <multiclip id="mcs-700">
                  <name>MCS-700</name>
                  <masterclipid>clip-master</masterclipid>
                  <collapsed>false</collapsed>
                  <angle>
                    <activevideoangle>false</activevideoangle>
                    <activeaudioangle>false</activeaudioangle>
                    <clip id="clip-1"/>
                  </angle>
                  <angle>
                    <activevideoangle>false</activevideoangle>
                    <activeaudioangle>false</activeaudioangle>
                    <clip id="clip-2"/>
                  </angle>
                  <angle>
                    <activevideoangle>true</activevideoangle>
                    <activeaudioangle>true</activeaudioangle>
                    <clip id="clip-3"/>
                  </angle>
                  <angle>
                    <activevideoangle>false</activevideoangle>
                    <activeaudioangle>false</activeaudioangle>
                    <clip id="clip-4"/>
                  </angle>
                  <angle>
                    <activevideoangle>false</activevideoangle>
                    <activeaudioangle>false</activeaudioangle>
                    <clip id="clip-5"/>
                  </angle>
                  <angle>
                    <activevideoangle>false</activevideoangle>
                    <activeaudioangle>false</activeaudioangle>
                    <clip id="clip-6"/>
                  </angle>
                  <angle>
                    <activevideoangle>false</activevideoangle>
                    <activeaudioangle>false</activeaudioangle>
                    <clip id="clip-7"/>
                  </angle>
                  <angle>
                    <activevideoangle>false</activevideoangle>
                    <activeaudioangle>false</activeaudioangle>
                    <clip id="clip-8"/>
                  </angle>
                  <angle>
                    <activevideoangle>false</activevideoangle>
                    <activeaudioangle>false</activeaudioangle>
                    <clip id="clip-9"/>
                  </angle>
                  <masterclipid>clip-master</masterclipid>
                </multiclip>
              </clipitem>
              <clipitem id="cs-701">
                <duration>173</duration>
                <rate>
                  <ntsc>false</ntsc>
                  <timebase>25</timebase>
                </rate>
                <in>46953</in>
                <out>47125</out>
                <start>46953</start>
                <end>47125</end>
                <file id="src-2"/>
                <sourcetrack>
                  <mediatype>video</mediatype>
                  <trackindex>1</trackindex>
                </sourcetrack>
                <multiclip id="mcs-701">
                  <name>MCS-701</name>
                  <masterclipid>clip-master</masterclipid>
                  <collapsed>false</collapsed>
                  <angle>
                    <activevideoangle>false</activevideoangle>
                    <activeaudioangle>false</activeaudioangle>
                    <clip id="clip-1"/>
                  </angle>
                  <angle>
                    <activevideoangle>true</activevideoangle>
                    <activeaudioangle>true</activeaudioangle>
                    <clip id="clip-2"/>
                  </angle>
                  <angle>
                    <activevideoangle>false</activevideoangle>
                    <activeaudioangle>false</activeaudioangle>
                    <clip id="clip-3"/>
                  </angle>
                  <angle>
                    <activevideoangle>false</activevideoangle>
                    <activeaudioangle>false</activeaudioangle>
                    <clip id="clip-4"/>
                  </angle>
                  <angle>
                    <activevideoangle>false</activevideoangle>
                    <activeaudioangle>false</activeaudioangle>
                    <clip id="clip-5"/>
                  </angle>
                  <angle>
                    <activevideoangle>false</activevideoangle>
                    <activeaudioangle>false</activeaudioangle>
                    <clip id="clip-6"/>
                  </angle>
                  <angle>
                    <activevideoangle>false</activevideoangle>
                    <activeaudioangle>false</activeaudioangle>
                    <clip id="clip-7"/>
                  </angle>
                  <angle>
                    <activevideoangle>false</activevideoangle>
                    <activeaudioangle>false</activeaudioangle>
                    <clip id="clip-8"/>
                  </angle>
                  <angle>
                    <activevideoangle>false</activevideoangle>
                    <activeaudioangle>false</activeaudioangle>
                    <clip id="clip-9"/>
                  </angle>
                  <masterclipid>clip-master</masterclipid>
                </multiclip>
              </clipitem>
              <clipitem id="cs-702">
                <duration>126</duration>
                <rate>
                  <ntsc>false</ntsc>
                  <timebase>25</timebase>
                </rate>
                <in>47125</in>
                <out>47250</out>
                <start>47125</start>
                <end>47250</end>
                <file id="src-3"/>
                <sourcetrack>
                  <mediatype>video</mediatype>
                  <trackindex>1</trackindex>
                </sourcetrack>
                <multiclip id="mcs-702">
                  <name>MCS-702</name>
                  <masterclipid>clip-master</masterclipid>
                  <collapsed>false</collapsed>
                  <angle>
                    <activevideoangle>false</activevideoangle>
                    <activeaudioangle>false</activeaudioangle>
                    <clip id="clip-1"/>
                  </angle>
                  <angle>
                    <activevideoangle>false</activevideoangle>
                    <activeaudioangle>false</activeaudioangle>
                    <clip id="clip-2"/>
                  </angle>
                  <angle>
                    <activevideoangle>true</activevideoangle>
                    <activeaudioangle>true</activeaudioangle>
                    <clip id="clip-3"/>
                  </angle>
                  <angle>
                    <activevideoangle>false</activevideoangle>
                    <activeaudioangle>false</activeaudioangle>
                    <clip id="clip-4"/>
                  </angle>
                  <angle>
                    <activevideoangle>false</activevideoangle>
                    <activeaudioangle>false</activeaudioangle>
                    <clip id="clip-5"/>
                  </angle>
                  <angle>
                    <activevideoangle>false</activevideoangle>
                    <activeaudioangle>false</activeaudioangle>
                    <clip id="clip-6"/>
                  </angle>
                  <angle>
                    <activevideoangle>false</activevideoangle>
                    <activeaudioangle>false</activeaudioangle>
                    <clip id="clip-7"/>
                  </angle>
                  <angle>
                    <activevideoangle>false</activevideoangle>
                    <activeaudioangle>false</activeaudioangle>
                    <clip id="clip-8"/>
                  </angle>
                  <angle>
                    <activevideoangle>false</activevideoangle>
                    <activeaudioangle>false</activeaudioangle>
                    <clip id="clip-9"/>
                  </angle>
                  <masterclipid>clip-master</masterclipid>
                </multiclip>
              </clipitem>
              <clipitem id="cs-703">
                <duration>42</duration>
                <rate>
                  <ntsc>false</ntsc>
                  <timebase>25</timebase>
                </rate>
                <in>47250</in>
                <out>47291</out>
                <start>47250</start>
                <end>47291</end>
                <file id="src-7"/>
                <sourcetrack>
                  <mediatype>video</mediatype>
                  <trackindex>1</trackindex>
                </sourcetrack>
                <multiclip id="mcs-703">
                  <name>MCS-703</name>
                  <masterclipid>clip-master</masterclipid>
                  <collapsed>false</collapsed>
                  <angle>
                    <activevideoangle>false</activevideoangle>
                    <activeaudioangle>false</activeaudioangle>
                    <clip id="clip-1"/>
                  </angle>
                  <angle>
                    <activevideoangle>false</activevideoangle>
                    <activeaudioangle>false</activeaudioangle>
                    <clip id="clip-2"/>
                  </angle>
                  <angle>
                    <activevideoangle>false</activevideoangle>
                    <activeaudioangle>false</activeaudioangle>
                    <clip id="clip-3"/>
                  </angle>
                  <angle>
                    <activevideoangle>false</activevideoangle>
                    <activeaudioangle>false</activeaudioangle>
                    <clip id="clip-4"/>
                  </angle>
                  <angle>
                    <activevideoangle>false</activevideoangle>
                    <activeaudioangle>false</activeaudioangle>
                    <clip id="clip-5"/>
                  </angle>
                  <angle>
                    <activevideoangle>false</activevideoangle>
                    <activeaudioangle>false</activeaudioangle>
                    <clip id="clip-6"/>
                  </angle>
                  <angle>
                    <activevideoangle>true</activevideoangle>
                    <activeaudioangle>true</activeaudioangle>
                    <clip id="clip-7"/>
                  </angle>
                  <angle>
                    <activevideoangle>false</activevideoangle>
                    <activeaudioangle>false</activeaudioangle>
                    <clip id="clip-8"/>
                  </angle>
                  <angle>
                    <activevideoangle>false</activevideoangle>
                    <activeaudioangle>false</activeaudioangle>
                    <clip id="clip-9"/>
                  </angle>
                  <masterclipid>clip-master</masterclipid>
                </multiclip>
              </clipitem>
              <clipitem id="cs-704">
                <duration>61</duration>
                <rate>
                  <ntsc>false</ntsc>
                  <timebase>25</timebase>
                </rate>
                <in>47291</in>
                <out>47351</out>
                <start>47291</start>
                <end>47351</end>
                <file id="src-4"/>
                <sourcetrack>
                  <mediatype>video</mediatype>
                  <trackindex>1</trackindex>
                </sourcetrack>
                <multiclip id="mcs-704">
                  <name>MCS-704</name>
                  <masterclipid>clip-master</masterclipid>
                  <collapsed>false</collapsed>
                  <angle>
                    <activevideoangle>false</activevideoangle>
                    <activeaudioangle>false</activeaudioangle>
                    <clip id="clip-1"/>
                  </angle>
                  <angle>
                    <activevideoangle>false</activevideoangle>
                    <activeaudioangle>false</activeaudioangle>
                    <clip id="clip-2"/>
                  </angle>
                  <angle>
                    <activevideoangle>false</activevideoangle>
                    <activeaudioangle>false</activeaudioangle>
                    <clip id="clip-3"/>
                  </angle>
                  <angle>
                    <activevideoangle>true</activevideoangle>
                    <activeaudioangle>true</activeaudioangle>
                    <clip id="clip-4"/>
                  </angle>
                  <angle>
                    <activevideoangle>false</activevideoangle>
                    <activeaudioangle>false</activeaudioangle>
                    <clip id="clip-5"/>
                  </angle>
                  <angle>
                    <activevideoangle>false</activevideoangle>
                    <activeaudioangle>false</activeaudioangle>
                    <clip id="clip-6"/>
                  </angle>
                  <angle>
                    <activevideoangle>false</activevideoangle>
                    <activeaudioangle>false</activeaudioangle>
                    <clip id="clip-7"/>
                  </angle>
                  <angle>
                    <activevideoangle>false</activevideoangle>
                    <activeaudioangle>false</activeaudioangle>
                    <clip id="clip-8"/>
                  </angle>
                  <angle>
                    <activevideoangle>false</activevideoangle>
                    <activeaudioangle>false</activeaudioangle>
                    <clip id="clip-9"/>
                  </angle>
                  <masterclipid>clip-master</masterclipid>
                </multiclip>
              </clipitem>
              <clipitem id="cs-705">
                <duration>55</duration>
                <rate>
                  <ntsc>false</ntsc>
                  <timebase>25</timebase>
                </rate>
                <in>47351</in>
                <out>47405</out>
                <start>47351</start>
                <end>47405</end>
                <file id="src-5"/>
                <sourcetrack>
                  <mediatype>video</mediatype>
                  <trackindex>1</trackindex>
                </sourcetrack>
                <multiclip id="mcs-705">
                  <name>MCS-705</name>
                  <masterclipid>clip-master</masterclipid>
                  <collapsed>false</collapsed>
                  <angle>
                    <activevideoangle>false</activevideoangle>
                    <activeaudioangle>false</activeaudioangle>
                    <clip id="clip-1"/>
                  </angle>
                  <angle>
                    <activevideoangle>false</activevideoangle>
                    <activeaudioangle>false</activeaudioangle>
                    <clip id="clip-2"/>
                  </angle>
                  <angle>
                    <activevideoangle>false</activevideoangle>
                    <activeaudioangle>false</activeaudioangle>
                    <clip id="clip-3"/>
                  </angle>
                  <angle>
                    <activevideoangle>false</activevideoangle>
                    <activeaudioangle>false</activeaudioangle>
                    <clip id="clip-4"/>
                  </angle>
                  <angle>
                    <activevideoangle>true</activevideoangle>
                    <activeaudioangle>true</activeaudioangle>
                    <clip id="clip-5"/>
                  </angle>
                  <angle>
                    <activevideoangle>false</activevideoangle>
                    <activeaudioangle>false</activeaudioangle>
                    <clip id="clip-6"/>
                  </angle>
                  <angle>
                    <activevideoangle>false</activevideoangle>
                    <activeaudioangle>false</activeaudioangle>
                    <clip id="clip-7"/>
                  </angle>
                  <angle>
                    <activevideoangle>false</activevideoangle>
                    <activeaudioangle>false</activeaudioangle>
                    <clip id="clip-8"/>
                  </angle>
                  <angle>
                    <activevideoangle>false</activevideoangle>
                    <activeaudioangle>false</activeaudioangle>
                    <clip id="clip-9"/>
                  </angle>
                  <masterclipid>clip-master</masterclipid>
                </multiclip>
              </clipitem>
              <clipitem id="cs-706">
                <duration>93</duration>
                <rate>
                  <ntsc>false</ntsc>
                  <timebase>25</timebase>
                </rate>
                <in>47405</in>
                <out>47497</out>
                <start>47405</start>
                <end>47497</end>
                <file id="src-2"/>
                <sourcetrack>
                  <mediatype>video</mediatype>
                  <trackindex>1</trackindex>
                </sourcetrack>
                <multiclip id="mcs-706">
                  <name>MCS-706</name>
                  <masterclipid>clip-master</masterclipid>
                  <collapsed>false</collapsed>
                  <angle>
                    <activevideoangle>false</activevideoangle>
                    <activeaudioangle>false</activeaudioangle>
                    <clip id="clip-1"/>
                  </angle>
                  <angle>
                    <activevideoangle>true</activevideoangle>
                    <activeaudioangle>true</activeaudioangle>
                    <clip id="clip-2"/>
                  </angle>
                  <angle>
                    <activevideoangle>false</activevideoangle>
                    <activeaudioangle>false</activeaudioangle>
                    <clip id="clip-3"/>
                  </angle>
                  <angle>
                    <activevideoangle>false</activevideoangle>
                    <activeaudioangle>false</activeaudioangle>
                    <clip id="clip-4"/>
                  </angle>
                  <angle>
                    <activevideoangle>false</activevideoangle>
                    <activeaudioangle>false</activeaudioangle>
                    <clip id="clip-5"/>
                  </angle>
                  <angle>
                    <activevideoangle>false</activevideoangle>
                    <activeaudioangle>false</activeaudioangle>
                    <clip id="clip-6"/>
                  </angle>
                  <angle>
                    <activevideoangle>false</activevideoangle>
                    <activeaudioangle>false</activeaudioangle>
                    <clip id="clip-7"/>
                  </angle>
                  <angle>
                    <activevideoangle>false</activevideoangle>
                    <activeaudioangle>false</activeaudioangle>
                    <clip id="clip-8"/>
                  </angle>
                  <angle>
                    <activevideoangle>false</activevideoangle>
                    <activeaudioangle>false</activeaudioangle>
                    <clip id="clip-9"/>
                  </angle>
                  <masterclipid>clip-master</masterclipid>
                </multiclip>
              </clipitem>
              <clipitem id="cs-707">
                <duration>141</duration>
                <rate>
                  <ntsc>false</ntsc>
                  <timebase>25</timebase>
                </rate>
                <in>47497</in>
                <out>47637</out>
                <start>47497</start>
                <end>47637</end>
                <file id="src-4"/>
                <sourcetrack>
                  <mediatype>video</mediatype>
                  <trackindex>1</trackindex>
                </sourcetrack>
                <multiclip id="mcs-707">
                  <name>MCS-707</name>
                  <masterclipid>clip-master</masterclipid>
                  <collapsed>false</collapsed>
                  <angle>
                    <activevideoangle>false</activevideoangle>
                    <activeaudioangle>false</activeaudioangle>
                    <clip id="clip-1"/>
                  </angle>
                  <angle>
                    <activevideoangle>false</activevideoangle>
                    <activeaudioangle>false</activeaudioangle>
                    <clip id="clip-2"/>
                  </angle>
                  <angle>
                    <activevideoangle>false</activevideoangle>
                    <activeaudioangle>false</activeaudioangle>
                    <clip id="clip-3"/>
                  </angle>
                  <angle>
                    <activevideoangle>true</activevideoangle>
                    <activeaudioangle>true</activeaudioangle>
                    <clip id="clip-4"/>
                  </angle>
                  <angle>
                    <activevideoangle>false</activevideoangle>
                    <activeaudioangle>false</activeaudioangle>
                    <clip id="clip-5"/>
                  </angle>
                  <angle>
                    <activevideoangle>false</activevideoangle>
                    <activeaudioangle>false</activeaudioangle>
                    <clip id="clip-6"/>
                  </angle>
                  <angle>
                    <activevideoangle>false</activevideoangle>
                    <activeaudioangle>false</activeaudioangle>
                    <clip id="clip-7"/>
                  </angle>
                  <angle>
                    <activevideoangle>false</activevideoangle>
                    <activeaudioangle>false</activeaudioangle>
                    <clip id="clip-8"/>
                  </angle>
                  <angle>
                    <activevideoangle>false</activevideoangle>
                    <activeaudioangle>false</activeaudioangle>
                    <clip id="clip-9"/>
                  </angle>
                  <masterclipid>clip-master</masterclipid>
                </multiclip>
              </clipitem>
              <clipitem id="cs-708">
                <duration>57</duration>
                <rate>
                  <ntsc>false</ntsc>
                  <timebase>25</timebase>
                </rate>
                <in>47637</in>
                <out>47693</out>
                <start>47637</start>
                <end>47693</end>
                <file id="src-2"/>
                <sourcetrack>
                  <mediatype>video</mediatype>
                  <trackindex>1</trackindex>
                </sourcetrack>
                <multiclip id="mcs-708">
                  <name>MCS-708</name>
                  <masterclipid>clip-master</masterclipid>
                  <collapsed>false</collapsed>
                  <angle>
                    <activevideoangle>false</activevideoangle>
                    <activeaudioangle>false</activeaudioangle>
                    <clip id="clip-1"/>
                  </angle>
                  <angle>
                    <activevideoangle>true</activevideoangle>
                    <activeaudioangle>true</activeaudioangle>
                    <clip id="clip-2"/>
                  </angle>
                  <angle>
                    <activevideoangle>false</activevideoangle>
                    <activeaudioangle>false</activeaudioangle>
                    <clip id="clip-3"/>
                  </angle>
                  <angle>
                    <activevideoangle>false</activevideoangle>
                    <activeaudioangle>false</activeaudioangle>
                    <clip id="clip-4"/>
                  </angle>
                  <angle>
                    <activevideoangle>false</activevideoangle>
                    <activeaudioangle>false</activeaudioangle>
                    <clip id="clip-5"/>
                  </angle>
                  <angle>
                    <activevideoangle>false</activevideoangle>
                    <activeaudioangle>false</activeaudioangle>
                    <clip id="clip-6"/>
                  </angle>
                  <angle>
                    <activevideoangle>false</activevideoangle>
                    <activeaudioangle>false</activeaudioangle>
                    <clip id="clip-7"/>
                  </angle>
                  <angle>
                    <activevideoangle>false</activevideoangle>
                    <activeaudioangle>false</activeaudioangle>
                    <clip id="clip-8"/>
                  </angle>
                  <angle>
                    <activevideoangle>false</activevideoangle>
                    <activeaudioangle>false</activeaudioangle>
                    <clip id="clip-9"/>
                  </angle>
                  <masterclipid>clip-master</masterclipid>
                </multiclip>
              </clipitem>
              <clipitem id="cs-709">
                <duration>56</duration>
                <rate>
                  <ntsc>false</ntsc>
                  <timebase>25</timebase>
                </rate>
                <in>47693</in>
                <out>47748</out>
                <start>47693</start>
                <end>47748</end>
                <file id="src-3"/>
                <sourcetrack>
                  <mediatype>video</mediatype>
                  <trackindex>1</trackindex>
                </sourcetrack>
                <multiclip id="mcs-709">
                  <name>MCS-709</name>
                  <masterclipid>clip-master</masterclipid>
                  <collapsed>false</collapsed>
                  <angle>
                    <activevideoangle>false</activevideoangle>
                    <activeaudioangle>false</activeaudioangle>
                    <clip id="clip-1"/>
                  </angle>
                  <angle>
                    <activevideoangle>false</activevideoangle>
                    <activeaudioangle>false</activeaudioangle>
                    <clip id="clip-2"/>
                  </angle>
                  <angle>
                    <activevideoangle>true</activevideoangle>
                    <activeaudioangle>true</activeaudioangle>
                    <clip id="clip-3"/>
                  </angle>
                  <angle>
                    <activevideoangle>false</activevideoangle>
                    <activeaudioangle>false</activeaudioangle>
                    <clip id="clip-4"/>
                  </angle>
                  <angle>
                    <activevideoangle>false</activevideoangle>
                    <activeaudioangle>false</activeaudioangle>
                    <clip id="clip-5"/>
                  </angle>
                  <angle>
                    <activevideoangle>false</activevideoangle>
                    <activeaudioangle>false</activeaudioangle>
                    <clip id="clip-6"/>
                  </angle>
                  <angle>
                    <activevideoangle>false</activevideoangle>
                    <activeaudioangle>false</activeaudioangle>
                    <clip id="clip-7"/>
                  </angle>
                  <angle>
                    <activevideoangle>false</activevideoangle>
                    <activeaudioangle>false</activeaudioangle>
                    <clip id="clip-8"/>
                  </angle>
                  <angle>
                    <activevideoangle>false</activevideoangle>
                    <activeaudioangle>false</activeaudioangle>
                    <clip id="clip-9"/>
                  </angle>
                  <masterclipid>clip-master</masterclipid>
                </multiclip>
              </clipitem>
              <clipitem id="cs-710">
                <duration>313</duration>
                <rate>
                  <ntsc>false</ntsc>
                  <timebase>25</timebase>
                </rate>
                <in>47748</in>
                <out>48060</out>
                <start>47748</start>
                <end>48060</end>
                <file id="src-4"/>
                <sourcetrack>
                  <mediatype>video</mediatype>
                  <trackindex>1</trackindex>
                </sourcetrack>
                <multiclip id="mcs-710">
                  <name>MCS-710</name>
                  <masterclipid>clip-master</masterclipid>
                  <collapsed>false</collapsed>
                  <angle>
                    <activevideoangle>false</activevideoangle>
                    <activeaudioangle>false</activeaudioangle>
                    <clip id="clip-1"/>
                  </angle>
                  <angle>
                    <activevideoangle>false</activevideoangle>
                    <activeaudioangle>false</activeaudioangle>
                    <clip id="clip-2"/>
                  </angle>
                  <angle>
                    <activevideoangle>false</activevideoangle>
                    <activeaudioangle>false</activeaudioangle>
                    <clip id="clip-3"/>
                  </angle>
                  <angle>
                    <activevideoangle>true</activevideoangle>
                    <activeaudioangle>true</activeaudioangle>
                    <clip id="clip-4"/>
                  </angle>
                  <angle>
                    <activevideoangle>false</activevideoangle>
                    <activeaudioangle>false</activeaudioangle>
                    <clip id="clip-5"/>
                  </angle>
                  <angle>
                    <activevideoangle>false</activevideoangle>
                    <activeaudioangle>false</activeaudioangle>
                    <clip id="clip-6"/>
                  </angle>
                  <angle>
                    <activevideoangle>false</activevideoangle>
                    <activeaudioangle>false</activeaudioangle>
                    <clip id="clip-7"/>
                  </angle>
                  <angle>
                    <activevideoangle>false</activevideoangle>
                    <activeaudioangle>false</activeaudioangle>
                    <clip id="clip-8"/>
                  </angle>
                  <angle>
                    <activevideoangle>false</activevideoangle>
                    <activeaudioangle>false</activeaudioangle>
                    <clip id="clip-9"/>
                  </angle>
                  <masterclipid>clip-master</masterclipid>
                </multiclip>
              </clipitem>
              <clipitem id="cs-711">
                <duration>153</duration>
                <rate>
                  <ntsc>false</ntsc>
                  <timebase>25</timebase>
                </rate>
                <in>48060</in>
                <out>48212</out>
                <start>48060</start>
                <end>48212</end>
                <file id="src-1"/>
                <sourcetrack>
                  <mediatype>video</mediatype>
                  <trackindex>1</trackindex>
                </sourcetrack>
                <multiclip id="mcs-711">
                  <name>MCS-711</name>
                  <masterclipid>clip-master</masterclipid>
                  <collapsed>false</collapsed>
                  <angle>
                    <activevideoangle>true</activevideoangle>
                    <activeaudioangle>true</activeaudioangle>
                    <clip id="clip-1"/>
                  </angle>
                  <angle>
                    <activevideoangle>false</activevideoangle>
                    <activeaudioangle>false</activeaudioangle>
                    <clip id="clip-2"/>
                  </angle>
                  <angle>
                    <activevideoangle>false</activevideoangle>
                    <activeaudioangle>false</activeaudioangle>
                    <clip id="clip-3"/>
                  </angle>
                  <angle>
                    <activevideoangle>false</activevideoangle>
                    <activeaudioangle>false</activeaudioangle>
                    <clip id="clip-4"/>
                  </angle>
                  <angle>
                    <activevideoangle>false</activevideoangle>
                    <activeaudioangle>false</activeaudioangle>
                    <clip id="clip-5"/>
                  </angle>
                  <angle>
                    <activevideoangle>false</activevideoangle>
                    <activeaudioangle>false</activeaudioangle>
                    <clip id="clip-6"/>
                  </angle>
                  <angle>
                    <activevideoangle>false</activevideoangle>
                    <activeaudioangle>false</activeaudioangle>
                    <clip id="clip-7"/>
                  </angle>
                  <angle>
                    <activevideoangle>false</activevideoangle>
                    <activeaudioangle>false</activeaudioangle>
                    <clip id="clip-8"/>
                  </angle>
                  <angle>
                    <activevideoangle>false</activevideoangle>
                    <activeaudioangle>false</activeaudioangle>
                    <clip id="clip-9"/>
                  </angle>
                  <masterclipid>clip-master</masterclipid>
                </multiclip>
              </clipitem>
              <clipitem id="cs-712">
                <duration>42</duration>
                <rate>
                  <ntsc>false</ntsc>
                  <timebase>25</timebase>
                </rate>
                <in>48212</in>
                <out>48253</out>
                <start>48212</start>
                <end>48253</end>
                <file id="src-4"/>
                <sourcetrack>
                  <mediatype>video</mediatype>
                  <trackindex>1</trackindex>
                </sourcetrack>
                <multiclip id="mcs-712">
                  <name>MCS-712</name>
                  <masterclipid>clip-master</masterclipid>
                  <collapsed>false</collapsed>
                  <angle>
                    <activevideoangle>false</activevideoangle>
                    <activeaudioangle>false</activeaudioangle>
                    <clip id="clip-1"/>
                  </angle>
                  <angle>
                    <activevideoangle>false</activevideoangle>
                    <activeaudioangle>false</activeaudioangle>
                    <clip id="clip-2"/>
                  </angle>
                  <angle>
                    <activevideoangle>false</activevideoangle>
                    <activeaudioangle>false</activeaudioangle>
                    <clip id="clip-3"/>
                  </angle>
                  <angle>
                    <activevideoangle>true</activevideoangle>
                    <activeaudioangle>true</activeaudioangle>
                    <clip id="clip-4"/>
                  </angle>
                  <angle>
                    <activevideoangle>false</activevideoangle>
                    <activeaudioangle>false</activeaudioangle>
                    <clip id="clip-5"/>
                  </angle>
                  <angle>
                    <activevideoangle>false</activevideoangle>
                    <activeaudioangle>false</activeaudioangle>
                    <clip id="clip-6"/>
                  </angle>
                  <angle>
                    <activevideoangle>false</activevideoangle>
                    <activeaudioangle>false</activeaudioangle>
                    <clip id="clip-7"/>
                  </angle>
                  <angle>
                    <activevideoangle>false</activevideoangle>
                    <activeaudioangle>false</activeaudioangle>
                    <clip id="clip-8"/>
                  </angle>
                  <angle>
                    <activevideoangle>false</activevideoangle>
                    <activeaudioangle>false</activeaudioangle>
                    <clip id="clip-9"/>
                  </angle>
                  <masterclipid>clip-master</masterclipid>
                </multiclip>
              </clipitem>
              <clipitem id="cs-713">
                <duration>96</duration>
                <rate>
                  <ntsc>false</ntsc>
                  <timebase>25</timebase>
                </rate>
                <in>48253</in>
                <out>48348</out>
                <start>48253</start>
                <end>48348</end>
                <file id="src-2"/>
                <sourcetrack>
                  <mediatype>video</mediatype>
                  <trackindex>1</trackindex>
                </sourcetrack>
                <multiclip id="mcs-713">
                  <name>MCS-713</name>
                  <masterclipid>clip-master</masterclipid>
                  <collapsed>false</collapsed>
                  <angle>
                    <activevideoangle>false</activevideoangle>
                    <activeaudioangle>false</activeaudioangle>
                    <clip id="clip-1"/>
                  </angle>
                  <angle>
                    <activevideoangle>true</activevideoangle>
                    <activeaudioangle>true</activeaudioangle>
                    <clip id="clip-2"/>
                  </angle>
                  <angle>
                    <activevideoangle>false</activevideoangle>
                    <activeaudioangle>false</activeaudioangle>
                    <clip id="clip-3"/>
                  </angle>
                  <angle>
                    <activevideoangle>false</activevideoangle>
                    <activeaudioangle>false</activeaudioangle>
                    <clip id="clip-4"/>
                  </angle>
                  <angle>
                    <activevideoangle>false</activevideoangle>
                    <activeaudioangle>false</activeaudioangle>
                    <clip id="clip-5"/>
                  </angle>
                  <angle>
                    <activevideoangle>false</activevideoangle>
                    <activeaudioangle>false</activeaudioangle>
                    <clip id="clip-6"/>
                  </angle>
                  <angle>
                    <activevideoangle>false</activevideoangle>
                    <activeaudioangle>false</activeaudioangle>
                    <clip id="clip-7"/>
                  </angle>
                  <angle>
                    <activevideoangle>false</activevideoangle>
                    <activeaudioangle>false</activeaudioangle>
                    <clip id="clip-8"/>
                  </angle>
                  <angle>
                    <activevideoangle>false</activevideoangle>
                    <activeaudioangle>false</activeaudioangle>
                    <clip id="clip-9"/>
                  </angle>
                  <masterclipid>clip-master</masterclipid>
                </multiclip>
              </clipitem>
              <clipitem id="cs-714">
                <duration>47</duration>
                <rate>
                  <ntsc>false</ntsc>
                  <timebase>25</timebase>
                </rate>
                <in>48348</in>
                <out>48394</out>
                <start>48348</start>
                <end>48394</end>
                <file id="src-5"/>
                <sourcetrack>
                  <mediatype>video</mediatype>
                  <trackindex>1</trackindex>
                </sourcetrack>
                <multiclip id="mcs-714">
                  <name>MCS-714</name>
                  <masterclipid>clip-master</masterclipid>
                  <collapsed>false</collapsed>
                  <angle>
                    <activevideoangle>false</activevideoangle>
                    <activeaudioangle>false</activeaudioangle>
                    <clip id="clip-1"/>
                  </angle>
                  <angle>
                    <activevideoangle>false</activevideoangle>
                    <activeaudioangle>false</activeaudioangle>
                    <clip id="clip-2"/>
                  </angle>
                  <angle>
                    <activevideoangle>false</activevideoangle>
                    <activeaudioangle>false</activeaudioangle>
                    <clip id="clip-3"/>
                  </angle>
                  <angle>
                    <activevideoangle>false</activevideoangle>
                    <activeaudioangle>false</activeaudioangle>
                    <clip id="clip-4"/>
                  </angle>
                  <angle>
                    <activevideoangle>true</activevideoangle>
                    <activeaudioangle>true</activeaudioangle>
                    <clip id="clip-5"/>
                  </angle>
                  <angle>
                    <activevideoangle>false</activevideoangle>
                    <activeaudioangle>false</activeaudioangle>
                    <clip id="clip-6"/>
                  </angle>
                  <angle>
                    <activevideoangle>false</activevideoangle>
                    <activeaudioangle>false</activeaudioangle>
                    <clip id="clip-7"/>
                  </angle>
                  <angle>
                    <activevideoangle>false</activevideoangle>
                    <activeaudioangle>false</activeaudioangle>
                    <clip id="clip-8"/>
                  </angle>
                  <angle>
                    <activevideoangle>false</activevideoangle>
                    <activeaudioangle>false</activeaudioangle>
                    <clip id="clip-9"/>
                  </angle>
                  <masterclipid>clip-master</masterclipid>
                </multiclip>
              </clipitem>
              <clipitem id="cs-715">
                <duration>60</duration>
                <rate>
                  <ntsc>false</ntsc>
                  <timebase>25</timebase>
                </rate>
                <in>48394</in>
                <out>48453</out>
                <start>48394</start>
                <end>48453</end>
                <file id="src-4"/>
                <sourcetrack>
                  <mediatype>video</mediatype>
                  <trackindex>1</trackindex>
                </sourcetrack>
                <multiclip id="mcs-715">
                  <name>MCS-715</name>
                  <masterclipid>clip-master</masterclipid>
                  <collapsed>false</collapsed>
                  <angle>
                    <activevideoangle>false</activevideoangle>
                    <activeaudioangle>false</activeaudioangle>
                    <clip id="clip-1"/>
                  </angle>
                  <angle>
                    <activevideoangle>false</activevideoangle>
                    <activeaudioangle>false</activeaudioangle>
                    <clip id="clip-2"/>
                  </angle>
                  <angle>
                    <activevideoangle>false</activevideoangle>
                    <activeaudioangle>false</activeaudioangle>
                    <clip id="clip-3"/>
                  </angle>
                  <angle>
                    <activevideoangle>true</activevideoangle>
                    <activeaudioangle>true</activeaudioangle>
                    <clip id="clip-4"/>
                  </angle>
                  <angle>
                    <activevideoangle>false</activevideoangle>
                    <activeaudioangle>false</activeaudioangle>
                    <clip id="clip-5"/>
                  </angle>
                  <angle>
                    <activevideoangle>false</activevideoangle>
                    <activeaudioangle>false</activeaudioangle>
                    <clip id="clip-6"/>
                  </angle>
                  <angle>
                    <activevideoangle>false</activevideoangle>
                    <activeaudioangle>false</activeaudioangle>
                    <clip id="clip-7"/>
                  </angle>
                  <angle>
                    <activevideoangle>false</activevideoangle>
                    <activeaudioangle>false</activeaudioangle>
                    <clip id="clip-8"/>
                  </angle>
                  <angle>
                    <activevideoangle>false</activevideoangle>
                    <activeaudioangle>false</activeaudioangle>
                    <clip id="clip-9"/>
                  </angle>
                  <masterclipid>clip-master</masterclipid>
                </multiclip>
              </clipitem>
              <clipitem id="cs-716">
                <duration>113</duration>
                <rate>
                  <ntsc>false</ntsc>
                  <timebase>25</timebase>
                </rate>
                <in>48453</in>
                <out>48565</out>
                <start>48453</start>
                <end>48565</end>
                <file id="src-2"/>
                <sourcetrack>
                  <mediatype>video</mediatype>
                  <trackindex>1</trackindex>
                </sourcetrack>
                <multiclip id="mcs-716">
                  <name>MCS-716</name>
                  <masterclipid>clip-master</masterclipid>
                  <collapsed>false</collapsed>
                  <angle>
                    <activevideoangle>false</activevideoangle>
                    <activeaudioangle>false</activeaudioangle>
                    <clip id="clip-1"/>
                  </angle>
                  <angle>
                    <activevideoangle>true</activevideoangle>
                    <activeaudioangle>true</activeaudioangle>
                    <clip id="clip-2"/>
                  </angle>
                  <angle>
                    <activevideoangle>false</activevideoangle>
                    <activeaudioangle>false</activeaudioangle>
                    <clip id="clip-3"/>
                  </angle>
                  <angle>
                    <activevideoangle>false</activevideoangle>
                    <activeaudioangle>false</activeaudioangle>
                    <clip id="clip-4"/>
                  </angle>
                  <angle>
                    <activevideoangle>false</activevideoangle>
                    <activeaudioangle>false</activeaudioangle>
                    <clip id="clip-5"/>
                  </angle>
                  <angle>
                    <activevideoangle>false</activevideoangle>
                    <activeaudioangle>false</activeaudioangle>
                    <clip id="clip-6"/>
                  </angle>
                  <angle>
                    <activevideoangle>false</activevideoangle>
                    <activeaudioangle>false</activeaudioangle>
                    <clip id="clip-7"/>
                  </angle>
                  <angle>
                    <activevideoangle>false</activevideoangle>
                    <activeaudioangle>false</activeaudioangle>
                    <clip id="clip-8"/>
                  </angle>
                  <angle>
                    <activevideoangle>false</activevideoangle>
                    <activeaudioangle>false</activeaudioangle>
                    <clip id="clip-9"/>
                  </angle>
                  <masterclipid>clip-master</masterclipid>
                </multiclip>
              </clipitem>
              <clipitem id="cs-717">
                <duration>194</duration>
                <rate>
                  <ntsc>false</ntsc>
                  <timebase>25</timebase>
                </rate>
                <in>48565</in>
                <out>48758</out>
                <start>48565</start>
                <end>48758</end>
                <file id="src-3"/>
                <sourcetrack>
                  <mediatype>video</mediatype>
                  <trackindex>1</trackindex>
                </sourcetrack>
                <multiclip id="mcs-717">
                  <name>MCS-717</name>
                  <masterclipid>clip-master</masterclipid>
                  <collapsed>false</collapsed>
                  <angle>
                    <activevideoangle>false</activevideoangle>
                    <activeaudioangle>false</activeaudioangle>
                    <clip id="clip-1"/>
                  </angle>
                  <angle>
                    <activevideoangle>false</activevideoangle>
                    <activeaudioangle>false</activeaudioangle>
                    <clip id="clip-2"/>
                  </angle>
                  <angle>
                    <activevideoangle>true</activevideoangle>
                    <activeaudioangle>true</activeaudioangle>
                    <clip id="clip-3"/>
                  </angle>
                  <angle>
                    <activevideoangle>false</activevideoangle>
                    <activeaudioangle>false</activeaudioangle>
                    <clip id="clip-4"/>
                  </angle>
                  <angle>
                    <activevideoangle>false</activevideoangle>
                    <activeaudioangle>false</activeaudioangle>
                    <clip id="clip-5"/>
                  </angle>
                  <angle>
                    <activevideoangle>false</activevideoangle>
                    <activeaudioangle>false</activeaudioangle>
                    <clip id="clip-6"/>
                  </angle>
                  <angle>
                    <activevideoangle>false</activevideoangle>
                    <activeaudioangle>false</activeaudioangle>
                    <clip id="clip-7"/>
                  </angle>
                  <angle>
                    <activevideoangle>false</activevideoangle>
                    <activeaudioangle>false</activeaudioangle>
                    <clip id="clip-8"/>
                  </angle>
                  <angle>
                    <activevideoangle>false</activevideoangle>
                    <activeaudioangle>false</activeaudioangle>
                    <clip id="clip-9"/>
                  </angle>
                  <masterclipid>clip-master</masterclipid>
                </multiclip>
              </clipitem>
              <clipitem id="cs-718">
                <duration>67</duration>
                <rate>
                  <ntsc>false</ntsc>
                  <timebase>25</timebase>
                </rate>
                <in>48758</in>
                <out>48824</out>
                <start>48758</start>
                <end>48824</end>
                <file id="src-7"/>
                <sourcetrack>
                  <mediatype>video</mediatype>
                  <trackindex>1</trackindex>
                </sourcetrack>
                <multiclip id="mcs-718">
                  <name>MCS-718</name>
                  <masterclipid>clip-master</masterclipid>
                  <collapsed>false</collapsed>
                  <angle>
                    <activevideoangle>false</activevideoangle>
                    <activeaudioangle>false</activeaudioangle>
                    <clip id="clip-1"/>
                  </angle>
                  <angle>
                    <activevideoangle>false</activevideoangle>
                    <activeaudioangle>false</activeaudioangle>
                    <clip id="clip-2"/>
                  </angle>
                  <angle>
                    <activevideoangle>false</activevideoangle>
                    <activeaudioangle>false</activeaudioangle>
                    <clip id="clip-3"/>
                  </angle>
                  <angle>
                    <activevideoangle>false</activevideoangle>
                    <activeaudioangle>false</activeaudioangle>
                    <clip id="clip-4"/>
                  </angle>
                  <angle>
                    <activevideoangle>false</activevideoangle>
                    <activeaudioangle>false</activeaudioangle>
                    <clip id="clip-5"/>
                  </angle>
                  <angle>
                    <activevideoangle>false</activevideoangle>
                    <activeaudioangle>false</activeaudioangle>
                    <clip id="clip-6"/>
                  </angle>
                  <angle>
                    <activevideoangle>true</activevideoangle>
                    <activeaudioangle>true</activeaudioangle>
                    <clip id="clip-7"/>
                  </angle>
                  <angle>
                    <activevideoangle>false</activevideoangle>
                    <activeaudioangle>false</activeaudioangle>
                    <clip id="clip-8"/>
                  </angle>
                  <angle>
                    <activevideoangle>false</activevideoangle>
                    <activeaudioangle>false</activeaudioangle>
                    <clip id="clip-9"/>
                  </angle>
                  <masterclipid>clip-master</masterclipid>
                </multiclip>
              </clipitem>
              <clipitem id="cs-719">
                <duration>138</duration>
                <rate>
                  <ntsc>false</ntsc>
                  <timebase>25</timebase>
                </rate>
                <in>48824</in>
                <out>48961</out>
                <start>48824</start>
                <end>48961</end>
                <file id="src-4"/>
                <sourcetrack>
                  <mediatype>video</mediatype>
                  <trackindex>1</trackindex>
                </sourcetrack>
                <multiclip id="mcs-719">
                  <name>MCS-719</name>
                  <masterclipid>clip-master</masterclipid>
                  <collapsed>false</collapsed>
                  <angle>
                    <activevideoangle>false</activevideoangle>
                    <activeaudioangle>false</activeaudioangle>
                    <clip id="clip-1"/>
                  </angle>
                  <angle>
                    <activevideoangle>false</activevideoangle>
                    <activeaudioangle>false</activeaudioangle>
                    <clip id="clip-2"/>
                  </angle>
                  <angle>
                    <activevideoangle>false</activevideoangle>
                    <activeaudioangle>false</activeaudioangle>
                    <clip id="clip-3"/>
                  </angle>
                  <angle>
                    <activevideoangle>true</activevideoangle>
                    <activeaudioangle>true</activeaudioangle>
                    <clip id="clip-4"/>
                  </angle>
                  <angle>
                    <activevideoangle>false</activevideoangle>
                    <activeaudioangle>false</activeaudioangle>
                    <clip id="clip-5"/>
                  </angle>
                  <angle>
                    <activevideoangle>false</activevideoangle>
                    <activeaudioangle>false</activeaudioangle>
                    <clip id="clip-6"/>
                  </angle>
                  <angle>
                    <activevideoangle>false</activevideoangle>
                    <activeaudioangle>false</activeaudioangle>
                    <clip id="clip-7"/>
                  </angle>
                  <angle>
                    <activevideoangle>false</activevideoangle>
                    <activeaudioangle>false</activeaudioangle>
                    <clip id="clip-8"/>
                  </angle>
                  <angle>
                    <activevideoangle>false</activevideoangle>
                    <activeaudioangle>false</activeaudioangle>
                    <clip id="clip-9"/>
                  </angle>
                  <masterclipid>clip-master</masterclipid>
                </multiclip>
              </clipitem>
              <clipitem id="cs-720">
                <duration>79</duration>
                <rate>
                  <ntsc>false</ntsc>
                  <timebase>25</timebase>
                </rate>
                <in>48961</in>
                <out>49039</out>
                <start>48961</start>
                <end>49039</end>
                <file id="src-2"/>
                <sourcetrack>
                  <mediatype>video</mediatype>
                  <trackindex>1</trackindex>
                </sourcetrack>
                <multiclip id="mcs-720">
                  <name>MCS-720</name>
                  <masterclipid>clip-master</masterclipid>
                  <collapsed>false</collapsed>
                  <angle>
                    <activevideoangle>false</activevideoangle>
                    <activeaudioangle>false</activeaudioangle>
                    <clip id="clip-1"/>
                  </angle>
                  <angle>
                    <activevideoangle>true</activevideoangle>
                    <activeaudioangle>true</activeaudioangle>
                    <clip id="clip-2"/>
                  </angle>
                  <angle>
                    <activevideoangle>false</activevideoangle>
                    <activeaudioangle>false</activeaudioangle>
                    <clip id="clip-3"/>
                  </angle>
                  <angle>
                    <activevideoangle>false</activevideoangle>
                    <activeaudioangle>false</activeaudioangle>
                    <clip id="clip-4"/>
                  </angle>
                  <angle>
                    <activevideoangle>false</activevideoangle>
                    <activeaudioangle>false</activeaudioangle>
                    <clip id="clip-5"/>
                  </angle>
                  <angle>
                    <activevideoangle>false</activevideoangle>
                    <activeaudioangle>false</activeaudioangle>
                    <clip id="clip-6"/>
                  </angle>
                  <angle>
                    <activevideoangle>false</activevideoangle>
                    <activeaudioangle>false</activeaudioangle>
                    <clip id="clip-7"/>
                  </angle>
                  <angle>
                    <activevideoangle>false</activevideoangle>
                    <activeaudioangle>false</activeaudioangle>
                    <clip id="clip-8"/>
                  </angle>
                  <angle>
                    <activevideoangle>false</activevideoangle>
                    <activeaudioangle>false</activeaudioangle>
                    <clip id="clip-9"/>
                  </angle>
                  <masterclipid>clip-master</masterclipid>
                </multiclip>
              </clipitem>
              <clipitem id="cs-721">
                <duration>99</duration>
                <rate>
                  <ntsc>false</ntsc>
                  <timebase>25</timebase>
                </rate>
                <in>49039</in>
                <out>49137</out>
                <start>49039</start>
                <end>49137</end>
                <file id="src-3"/>
                <sourcetrack>
                  <mediatype>video</mediatype>
                  <trackindex>1</trackindex>
                </sourcetrack>
                <multiclip id="mcs-721">
                  <name>MCS-721</name>
                  <masterclipid>clip-master</masterclipid>
                  <collapsed>false</collapsed>
                  <angle>
                    <activevideoangle>false</activevideoangle>
                    <activeaudioangle>false</activeaudioangle>
                    <clip id="clip-1"/>
                  </angle>
                  <angle>
                    <activevideoangle>false</activevideoangle>
                    <activeaudioangle>false</activeaudioangle>
                    <clip id="clip-2"/>
                  </angle>
                  <angle>
                    <activevideoangle>true</activevideoangle>
                    <activeaudioangle>true</activeaudioangle>
                    <clip id="clip-3"/>
                  </angle>
                  <angle>
                    <activevideoangle>false</activevideoangle>
                    <activeaudioangle>false</activeaudioangle>
                    <clip id="clip-4"/>
                  </angle>
                  <angle>
                    <activevideoangle>false</activevideoangle>
                    <activeaudioangle>false</activeaudioangle>
                    <clip id="clip-5"/>
                  </angle>
                  <angle>
                    <activevideoangle>false</activevideoangle>
                    <activeaudioangle>false</activeaudioangle>
                    <clip id="clip-6"/>
                  </angle>
                  <angle>
                    <activevideoangle>false</activevideoangle>
                    <activeaudioangle>false</activeaudioangle>
                    <clip id="clip-7"/>
                  </angle>
                  <angle>
                    <activevideoangle>false</activevideoangle>
                    <activeaudioangle>false</activeaudioangle>
                    <clip id="clip-8"/>
                  </angle>
                  <angle>
                    <activevideoangle>false</activevideoangle>
                    <activeaudioangle>false</activeaudioangle>
                    <clip id="clip-9"/>
                  </angle>
                  <masterclipid>clip-master</masterclipid>
                </multiclip>
              </clipitem>
              <clipitem id="cs-722">
                <duration>99</duration>
                <rate>
                  <ntsc>false</ntsc>
                  <timebase>25</timebase>
                </rate>
                <in>49137</in>
                <out>49235</out>
                <start>49137</start>
                <end>49235</end>
                <file id="src-5"/>
                <sourcetrack>
                  <mediatype>video</mediatype>
                  <trackindex>1</trackindex>
                </sourcetrack>
                <multiclip id="mcs-722">
                  <name>MCS-722</name>
                  <masterclipid>clip-master</masterclipid>
                  <collapsed>false</collapsed>
                  <angle>
                    <activevideoangle>false</activevideoangle>
                    <activeaudioangle>false</activeaudioangle>
                    <clip id="clip-1"/>
                  </angle>
                  <angle>
                    <activevideoangle>false</activevideoangle>
                    <activeaudioangle>false</activeaudioangle>
                    <clip id="clip-2"/>
                  </angle>
                  <angle>
                    <activevideoangle>false</activevideoangle>
                    <activeaudioangle>false</activeaudioangle>
                    <clip id="clip-3"/>
                  </angle>
                  <angle>
                    <activevideoangle>false</activevideoangle>
                    <activeaudioangle>false</activeaudioangle>
                    <clip id="clip-4"/>
                  </angle>
                  <angle>
                    <activevideoangle>true</activevideoangle>
                    <activeaudioangle>true</activeaudioangle>
                    <clip id="clip-5"/>
                  </angle>
                  <angle>
                    <activevideoangle>false</activevideoangle>
                    <activeaudioangle>false</activeaudioangle>
                    <clip id="clip-6"/>
                  </angle>
                  <angle>
                    <activevideoangle>false</activevideoangle>
                    <activeaudioangle>false</activeaudioangle>
                    <clip id="clip-7"/>
                  </angle>
                  <angle>
                    <activevideoangle>false</activevideoangle>
                    <activeaudioangle>false</activeaudioangle>
                    <clip id="clip-8"/>
                  </angle>
                  <angle>
                    <activevideoangle>false</activevideoangle>
                    <activeaudioangle>false</activeaudioangle>
                    <clip id="clip-9"/>
                  </angle>
                  <masterclipid>clip-master</masterclipid>
                </multiclip>
              </clipitem>
              <clipitem id="cs-723">
                <duration>43</duration>
                <rate>
                  <ntsc>false</ntsc>
                  <timebase>25</timebase>
                </rate>
                <in>49235</in>
                <out>49277</out>
                <start>49235</start>
                <end>49277</end>
                <file id="src-3"/>
                <sourcetrack>
                  <mediatype>video</mediatype>
                  <trackindex>1</trackindex>
                </sourcetrack>
                <multiclip id="mcs-723">
                  <name>MCS-723</name>
                  <masterclipid>clip-master</masterclipid>
                  <collapsed>false</collapsed>
                  <angle>
                    <activevideoangle>false</activevideoangle>
                    <activeaudioangle>false</activeaudioangle>
                    <clip id="clip-1"/>
                  </angle>
                  <angle>
                    <activevideoangle>false</activevideoangle>
                    <activeaudioangle>false</activeaudioangle>
                    <clip id="clip-2"/>
                  </angle>
                  <angle>
                    <activevideoangle>true</activevideoangle>
                    <activeaudioangle>true</activeaudioangle>
                    <clip id="clip-3"/>
                  </angle>
                  <angle>
                    <activevideoangle>false</activevideoangle>
                    <activeaudioangle>false</activeaudioangle>
                    <clip id="clip-4"/>
                  </angle>
                  <angle>
                    <activevideoangle>false</activevideoangle>
                    <activeaudioangle>false</activeaudioangle>
                    <clip id="clip-5"/>
                  </angle>
                  <angle>
                    <activevideoangle>false</activevideoangle>
                    <activeaudioangle>false</activeaudioangle>
                    <clip id="clip-6"/>
                  </angle>
                  <angle>
                    <activevideoangle>false</activevideoangle>
                    <activeaudioangle>false</activeaudioangle>
                    <clip id="clip-7"/>
                  </angle>
                  <angle>
                    <activevideoangle>false</activevideoangle>
                    <activeaudioangle>false</activeaudioangle>
                    <clip id="clip-8"/>
                  </angle>
                  <angle>
                    <activevideoangle>false</activevideoangle>
                    <activeaudioangle>false</activeaudioangle>
                    <clip id="clip-9"/>
                  </angle>
                  <masterclipid>clip-master</masterclipid>
                </multiclip>
              </clipitem>
              <clipitem id="cs-724">
                <duration>184</duration>
                <rate>
                  <ntsc>false</ntsc>
                  <timebase>25</timebase>
                </rate>
                <in>49277</in>
                <out>49460</out>
                <start>49277</start>
                <end>49460</end>
                <file id="src-4"/>
                <sourcetrack>
                  <mediatype>video</mediatype>
                  <trackindex>1</trackindex>
                </sourcetrack>
                <multiclip id="mcs-724">
                  <name>MCS-724</name>
                  <masterclipid>clip-master</masterclipid>
                  <collapsed>false</collapsed>
                  <angle>
                    <activevideoangle>false</activevideoangle>
                    <activeaudioangle>false</activeaudioangle>
                    <clip id="clip-1"/>
                  </angle>
                  <angle>
                    <activevideoangle>false</activevideoangle>
                    <activeaudioangle>false</activeaudioangle>
                    <clip id="clip-2"/>
                  </angle>
                  <angle>
                    <activevideoangle>false</activevideoangle>
                    <activeaudioangle>false</activeaudioangle>
                    <clip id="clip-3"/>
                  </angle>
                  <angle>
                    <activevideoangle>true</activevideoangle>
                    <activeaudioangle>true</activeaudioangle>
                    <clip id="clip-4"/>
                  </angle>
                  <angle>
                    <activevideoangle>false</activevideoangle>
                    <activeaudioangle>false</activeaudioangle>
                    <clip id="clip-5"/>
                  </angle>
                  <angle>
                    <activevideoangle>false</activevideoangle>
                    <activeaudioangle>false</activeaudioangle>
                    <clip id="clip-6"/>
                  </angle>
                  <angle>
                    <activevideoangle>false</activevideoangle>
                    <activeaudioangle>false</activeaudioangle>
                    <clip id="clip-7"/>
                  </angle>
                  <angle>
                    <activevideoangle>false</activevideoangle>
                    <activeaudioangle>false</activeaudioangle>
                    <clip id="clip-8"/>
                  </angle>
                  <angle>
                    <activevideoangle>false</activevideoangle>
                    <activeaudioangle>false</activeaudioangle>
                    <clip id="clip-9"/>
                  </angle>
                  <masterclipid>clip-master</masterclipid>
                </multiclip>
              </clipitem>
              <clipitem id="cs-725">
                <duration>132</duration>
                <rate>
                  <ntsc>false</ntsc>
                  <timebase>25</timebase>
                </rate>
                <in>49460</in>
                <out>49591</out>
                <start>49460</start>
                <end>49591</end>
                <file id="src-5"/>
                <sourcetrack>
                  <mediatype>video</mediatype>
                  <trackindex>1</trackindex>
                </sourcetrack>
                <multiclip id="mcs-725">
                  <name>MCS-725</name>
                  <masterclipid>clip-master</masterclipid>
                  <collapsed>false</collapsed>
                  <angle>
                    <activevideoangle>false</activevideoangle>
                    <activeaudioangle>false</activeaudioangle>
                    <clip id="clip-1"/>
                  </angle>
                  <angle>
                    <activevideoangle>false</activevideoangle>
                    <activeaudioangle>false</activeaudioangle>
                    <clip id="clip-2"/>
                  </angle>
                  <angle>
                    <activevideoangle>false</activevideoangle>
                    <activeaudioangle>false</activeaudioangle>
                    <clip id="clip-3"/>
                  </angle>
                  <angle>
                    <activevideoangle>false</activevideoangle>
                    <activeaudioangle>false</activeaudioangle>
                    <clip id="clip-4"/>
                  </angle>
                  <angle>
                    <activevideoangle>true</activevideoangle>
                    <activeaudioangle>true</activeaudioangle>
                    <clip id="clip-5"/>
                  </angle>
                  <angle>
                    <activevideoangle>false</activevideoangle>
                    <activeaudioangle>false</activeaudioangle>
                    <clip id="clip-6"/>
                  </angle>
                  <angle>
                    <activevideoangle>false</activevideoangle>
                    <activeaudioangle>false</activeaudioangle>
                    <clip id="clip-7"/>
                  </angle>
                  <angle>
                    <activevideoangle>false</activevideoangle>
                    <activeaudioangle>false</activeaudioangle>
                    <clip id="clip-8"/>
                  </angle>
                  <angle>
                    <activevideoangle>false</activevideoangle>
                    <activeaudioangle>false</activeaudioangle>
                    <clip id="clip-9"/>
                  </angle>
                  <masterclipid>clip-master</masterclipid>
                </multiclip>
              </clipitem>
              <clipitem id="cs-726">
                <duration>65</duration>
                <rate>
                  <ntsc>false</ntsc>
                  <timebase>25</timebase>
                </rate>
                <in>49591</in>
                <out>49655</out>
                <start>49591</start>
                <end>49655</end>
                <file id="src-3"/>
                <sourcetrack>
                  <mediatype>video</mediatype>
                  <trackindex>1</trackindex>
                </sourcetrack>
                <multiclip id="mcs-726">
                  <name>MCS-726</name>
                  <masterclipid>clip-master</masterclipid>
                  <collapsed>false</collapsed>
                  <angle>
                    <activevideoangle>false</activevideoangle>
                    <activeaudioangle>false</activeaudioangle>
                    <clip id="clip-1"/>
                  </angle>
                  <angle>
                    <activevideoangle>false</activevideoangle>
                    <activeaudioangle>false</activeaudioangle>
                    <clip id="clip-2"/>
                  </angle>
                  <angle>
                    <activevideoangle>true</activevideoangle>
                    <activeaudioangle>true</activeaudioangle>
                    <clip id="clip-3"/>
                  </angle>
                  <angle>
                    <activevideoangle>false</activevideoangle>
                    <activeaudioangle>false</activeaudioangle>
                    <clip id="clip-4"/>
                  </angle>
                  <angle>
                    <activevideoangle>false</activevideoangle>
                    <activeaudioangle>false</activeaudioangle>
                    <clip id="clip-5"/>
                  </angle>
                  <angle>
                    <activevideoangle>false</activevideoangle>
                    <activeaudioangle>false</activeaudioangle>
                    <clip id="clip-6"/>
                  </angle>
                  <angle>
                    <activevideoangle>false</activevideoangle>
                    <activeaudioangle>false</activeaudioangle>
                    <clip id="clip-7"/>
                  </angle>
                  <angle>
                    <activevideoangle>false</activevideoangle>
                    <activeaudioangle>false</activeaudioangle>
                    <clip id="clip-8"/>
                  </angle>
                  <angle>
                    <activevideoangle>false</activevideoangle>
                    <activeaudioangle>false</activeaudioangle>
                    <clip id="clip-9"/>
                  </angle>
                  <masterclipid>clip-master</masterclipid>
                </multiclip>
              </clipitem>
              <clipitem id="cs-727">
                <duration>166</duration>
                <rate>
                  <ntsc>false</ntsc>
                  <timebase>25</timebase>
                </rate>
                <in>49655</in>
                <out>49820</out>
                <start>49655</start>
                <end>49820</end>
                <file id="src-4"/>
                <sourcetrack>
                  <mediatype>video</mediatype>
                  <trackindex>1</trackindex>
                </sourcetrack>
                <multiclip id="mcs-727">
                  <name>MCS-727</name>
                  <masterclipid>clip-master</masterclipid>
                  <collapsed>false</collapsed>
                  <angle>
                    <activevideoangle>false</activevideoangle>
                    <activeaudioangle>false</activeaudioangle>
                    <clip id="clip-1"/>
                  </angle>
                  <angle>
                    <activevideoangle>false</activevideoangle>
                    <activeaudioangle>false</activeaudioangle>
                    <clip id="clip-2"/>
                  </angle>
                  <angle>
                    <activevideoangle>false</activevideoangle>
                    <activeaudioangle>false</activeaudioangle>
                    <clip id="clip-3"/>
                  </angle>
                  <angle>
                    <activevideoangle>true</activevideoangle>
                    <activeaudioangle>true</activeaudioangle>
                    <clip id="clip-4"/>
                  </angle>
                  <angle>
                    <activevideoangle>false</activevideoangle>
                    <activeaudioangle>false</activeaudioangle>
                    <clip id="clip-5"/>
                  </angle>
                  <angle>
                    <activevideoangle>false</activevideoangle>
                    <activeaudioangle>false</activeaudioangle>
                    <clip id="clip-6"/>
                  </angle>
                  <angle>
                    <activevideoangle>false</activevideoangle>
                    <activeaudioangle>false</activeaudioangle>
                    <clip id="clip-7"/>
                  </angle>
                  <angle>
                    <activevideoangle>false</activevideoangle>
                    <activeaudioangle>false</activeaudioangle>
                    <clip id="clip-8"/>
                  </angle>
                  <angle>
                    <activevideoangle>false</activevideoangle>
                    <activeaudioangle>false</activeaudioangle>
                    <clip id="clip-9"/>
                  </angle>
                  <masterclipid>clip-master</masterclipid>
                </multiclip>
              </clipitem>
              <clipitem id="cs-728">
                <duration>172</duration>
                <rate>
                  <ntsc>false</ntsc>
                  <timebase>25</timebase>
                </rate>
                <in>49820</in>
                <out>49991</out>
                <start>49820</start>
                <end>49991</end>
                <file id="src-6"/>
                <sourcetrack>
                  <mediatype>video</mediatype>
                  <trackindex>1</trackindex>
                </sourcetrack>
                <multiclip id="mcs-728">
                  <name>MCS-728</name>
                  <masterclipid>clip-master</masterclipid>
                  <collapsed>false</collapsed>
                  <angle>
                    <activevideoangle>false</activevideoangle>
                    <activeaudioangle>false</activeaudioangle>
                    <clip id="clip-1"/>
                  </angle>
                  <angle>
                    <activevideoangle>false</activevideoangle>
                    <activeaudioangle>false</activeaudioangle>
                    <clip id="clip-2"/>
                  </angle>
                  <angle>
                    <activevideoangle>false</activevideoangle>
                    <activeaudioangle>false</activeaudioangle>
                    <clip id="clip-3"/>
                  </angle>
                  <angle>
                    <activevideoangle>false</activevideoangle>
                    <activeaudioangle>false</activeaudioangle>
                    <clip id="clip-4"/>
                  </angle>
                  <angle>
                    <activevideoangle>false</activevideoangle>
                    <activeaudioangle>false</activeaudioangle>
                    <clip id="clip-5"/>
                  </angle>
                  <angle>
                    <activevideoangle>true</activevideoangle>
                    <activeaudioangle>true</activeaudioangle>
                    <clip id="clip-6"/>
                  </angle>
                  <angle>
                    <activevideoangle>false</activevideoangle>
                    <activeaudioangle>false</activeaudioangle>
                    <clip id="clip-7"/>
                  </angle>
                  <angle>
                    <activevideoangle>false</activevideoangle>
                    <activeaudioangle>false</activeaudioangle>
                    <clip id="clip-8"/>
                  </angle>
                  <angle>
                    <activevideoangle>false</activevideoangle>
                    <activeaudioangle>false</activeaudioangle>
                    <clip id="clip-9"/>
                  </angle>
                  <masterclipid>clip-master</masterclipid>
                </multiclip>
              </clipitem>
              <clipitem id="cs-729">
                <duration>46</duration>
                <rate>
                  <ntsc>false</ntsc>
                  <timebase>25</timebase>
                </rate>
                <in>49991</in>
                <out>50036</out>
                <start>49991</start>
                <end>50036</end>
                <file id="src-7"/>
                <sourcetrack>
                  <mediatype>video</mediatype>
                  <trackindex>1</trackindex>
                </sourcetrack>
                <multiclip id="mcs-729">
                  <name>MCS-729</name>
                  <masterclipid>clip-master</masterclipid>
                  <collapsed>false</collapsed>
                  <angle>
                    <activevideoangle>false</activevideoangle>
                    <activeaudioangle>false</activeaudioangle>
                    <clip id="clip-1"/>
                  </angle>
                  <angle>
                    <activevideoangle>false</activevideoangle>
                    <activeaudioangle>false</activeaudioangle>
                    <clip id="clip-2"/>
                  </angle>
                  <angle>
                    <activevideoangle>false</activevideoangle>
                    <activeaudioangle>false</activeaudioangle>
                    <clip id="clip-3"/>
                  </angle>
                  <angle>
                    <activevideoangle>false</activevideoangle>
                    <activeaudioangle>false</activeaudioangle>
                    <clip id="clip-4"/>
                  </angle>
                  <angle>
                    <activevideoangle>false</activevideoangle>
                    <activeaudioangle>false</activeaudioangle>
                    <clip id="clip-5"/>
                  </angle>
                  <angle>
                    <activevideoangle>false</activevideoangle>
                    <activeaudioangle>false</activeaudioangle>
                    <clip id="clip-6"/>
                  </angle>
                  <angle>
                    <activevideoangle>true</activevideoangle>
                    <activeaudioangle>true</activeaudioangle>
                    <clip id="clip-7"/>
                  </angle>
                  <angle>
                    <activevideoangle>false</activevideoangle>
                    <activeaudioangle>false</activeaudioangle>
                    <clip id="clip-8"/>
                  </angle>
                  <angle>
                    <activevideoangle>false</activevideoangle>
                    <activeaudioangle>false</activeaudioangle>
                    <clip id="clip-9"/>
                  </angle>
                  <masterclipid>clip-master</masterclipid>
                </multiclip>
              </clipitem>
              <clipitem id="cs-730">
                <duration>89</duration>
                <rate>
                  <ntsc>false</ntsc>
                  <timebase>25</timebase>
                </rate>
                <in>50036</in>
                <out>50124</out>
                <start>50036</start>
                <end>50124</end>
                <file id="src-4"/>
                <sourcetrack>
                  <mediatype>video</mediatype>
                  <trackindex>1</trackindex>
                </sourcetrack>
                <multiclip id="mcs-730">
                  <name>MCS-730</name>
                  <masterclipid>clip-master</masterclipid>
                  <collapsed>false</collapsed>
                  <angle>
                    <activevideoangle>false</activevideoangle>
                    <activeaudioangle>false</activeaudioangle>
                    <clip id="clip-1"/>
                  </angle>
                  <angle>
                    <activevideoangle>false</activevideoangle>
                    <activeaudioangle>false</activeaudioangle>
                    <clip id="clip-2"/>
                  </angle>
                  <angle>
                    <activevideoangle>false</activevideoangle>
                    <activeaudioangle>false</activeaudioangle>
                    <clip id="clip-3"/>
                  </angle>
                  <angle>
                    <activevideoangle>true</activevideoangle>
                    <activeaudioangle>true</activeaudioangle>
                    <clip id="clip-4"/>
                  </angle>
                  <angle>
                    <activevideoangle>false</activevideoangle>
                    <activeaudioangle>false</activeaudioangle>
                    <clip id="clip-5"/>
                  </angle>
                  <angle>
                    <activevideoangle>false</activevideoangle>
                    <activeaudioangle>false</activeaudioangle>
                    <clip id="clip-6"/>
                  </angle>
                  <angle>
                    <activevideoangle>false</activevideoangle>
                    <activeaudioangle>false</activeaudioangle>
                    <clip id="clip-7"/>
                  </angle>
                  <angle>
                    <activevideoangle>false</activevideoangle>
                    <activeaudioangle>false</activeaudioangle>
                    <clip id="clip-8"/>
                  </angle>
                  <angle>
                    <activevideoangle>false</activevideoangle>
                    <activeaudioangle>false</activeaudioangle>
                    <clip id="clip-9"/>
                  </angle>
                  <masterclipid>clip-master</masterclipid>
                </multiclip>
              </clipitem>
              <clipitem id="cs-731">
                <duration>158</duration>
                <rate>
                  <ntsc>false</ntsc>
                  <timebase>25</timebase>
                </rate>
                <in>50124</in>
                <out>50281</out>
                <start>50124</start>
                <end>50281</end>
                <file id="src-2"/>
                <sourcetrack>
                  <mediatype>video</mediatype>
                  <trackindex>1</trackindex>
                </sourcetrack>
                <multiclip id="mcs-731">
                  <name>MCS-731</name>
                  <masterclipid>clip-master</masterclipid>
                  <collapsed>false</collapsed>
                  <angle>
                    <activevideoangle>false</activevideoangle>
                    <activeaudioangle>false</activeaudioangle>
                    <clip id="clip-1"/>
                  </angle>
                  <angle>
                    <activevideoangle>true</activevideoangle>
                    <activeaudioangle>true</activeaudioangle>
                    <clip id="clip-2"/>
                  </angle>
                  <angle>
                    <activevideoangle>false</activevideoangle>
                    <activeaudioangle>false</activeaudioangle>
                    <clip id="clip-3"/>
                  </angle>
                  <angle>
                    <activevideoangle>false</activevideoangle>
                    <activeaudioangle>false</activeaudioangle>
                    <clip id="clip-4"/>
                  </angle>
                  <angle>
                    <activevideoangle>false</activevideoangle>
                    <activeaudioangle>false</activeaudioangle>
                    <clip id="clip-5"/>
                  </angle>
                  <angle>
                    <activevideoangle>false</activevideoangle>
                    <activeaudioangle>false</activeaudioangle>
                    <clip id="clip-6"/>
                  </angle>
                  <angle>
                    <activevideoangle>false</activevideoangle>
                    <activeaudioangle>false</activeaudioangle>
                    <clip id="clip-7"/>
                  </angle>
                  <angle>
                    <activevideoangle>false</activevideoangle>
                    <activeaudioangle>false</activeaudioangle>
                    <clip id="clip-8"/>
                  </angle>
                  <angle>
                    <activevideoangle>false</activevideoangle>
                    <activeaudioangle>false</activeaudioangle>
                    <clip id="clip-9"/>
                  </angle>
                  <masterclipid>clip-master</masterclipid>
                </multiclip>
              </clipitem>
              <clipitem id="cs-732">
                <duration>93</duration>
                <rate>
                  <ntsc>false</ntsc>
                  <timebase>25</timebase>
                </rate>
                <in>50281</in>
                <out>50373</out>
                <start>50281</start>
                <end>50373</end>
                <file id="src-3"/>
                <sourcetrack>
                  <mediatype>video</mediatype>
                  <trackindex>1</trackindex>
                </sourcetrack>
                <multiclip id="mcs-732">
                  <name>MCS-732</name>
                  <masterclipid>clip-master</masterclipid>
                  <collapsed>false</collapsed>
                  <angle>
                    <activevideoangle>false</activevideoangle>
                    <activeaudioangle>false</activeaudioangle>
                    <clip id="clip-1"/>
                  </angle>
                  <angle>
                    <activevideoangle>false</activevideoangle>
                    <activeaudioangle>false</activeaudioangle>
                    <clip id="clip-2"/>
                  </angle>
                  <angle>
                    <activevideoangle>true</activevideoangle>
                    <activeaudioangle>true</activeaudioangle>
                    <clip id="clip-3"/>
                  </angle>
                  <angle>
                    <activevideoangle>false</activevideoangle>
                    <activeaudioangle>false</activeaudioangle>
                    <clip id="clip-4"/>
                  </angle>
                  <angle>
                    <activevideoangle>false</activevideoangle>
                    <activeaudioangle>false</activeaudioangle>
                    <clip id="clip-5"/>
                  </angle>
                  <angle>
                    <activevideoangle>false</activevideoangle>
                    <activeaudioangle>false</activeaudioangle>
                    <clip id="clip-6"/>
                  </angle>
                  <angle>
                    <activevideoangle>false</activevideoangle>
                    <activeaudioangle>false</activeaudioangle>
                    <clip id="clip-7"/>
                  </angle>
                  <angle>
                    <activevideoangle>false</activevideoangle>
                    <activeaudioangle>false</activeaudioangle>
                    <clip id="clip-8"/>
                  </angle>
                  <angle>
                    <activevideoangle>false</activevideoangle>
                    <activeaudioangle>false</activeaudioangle>
                    <clip id="clip-9"/>
                  </angle>
                  <masterclipid>clip-master</masterclipid>
                </multiclip>
              </clipitem>
              <clipitem id="cs-733">
                <duration>63</duration>
                <rate>
                  <ntsc>false</ntsc>
                  <timebase>25</timebase>
                </rate>
                <in>50373</in>
                <out>50435</out>
                <start>50373</start>
                <end>50435</end>
                <file id="src-4"/>
                <sourcetrack>
                  <mediatype>video</mediatype>
                  <trackindex>1</trackindex>
                </sourcetrack>
                <multiclip id="mcs-733">
                  <name>MCS-733</name>
                  <masterclipid>clip-master</masterclipid>
                  <collapsed>false</collapsed>
                  <angle>
                    <activevideoangle>false</activevideoangle>
                    <activeaudioangle>false</activeaudioangle>
                    <clip id="clip-1"/>
                  </angle>
                  <angle>
                    <activevideoangle>false</activevideoangle>
                    <activeaudioangle>false</activeaudioangle>
                    <clip id="clip-2"/>
                  </angle>
                  <angle>
                    <activevideoangle>false</activevideoangle>
                    <activeaudioangle>false</activeaudioangle>
                    <clip id="clip-3"/>
                  </angle>
                  <angle>
                    <activevideoangle>true</activevideoangle>
                    <activeaudioangle>true</activeaudioangle>
                    <clip id="clip-4"/>
                  </angle>
                  <angle>
                    <activevideoangle>false</activevideoangle>
                    <activeaudioangle>false</activeaudioangle>
                    <clip id="clip-5"/>
                  </angle>
                  <angle>
                    <activevideoangle>false</activevideoangle>
                    <activeaudioangle>false</activeaudioangle>
                    <clip id="clip-6"/>
                  </angle>
                  <angle>
                    <activevideoangle>false</activevideoangle>
                    <activeaudioangle>false</activeaudioangle>
                    <clip id="clip-7"/>
                  </angle>
                  <angle>
                    <activevideoangle>false</activevideoangle>
                    <activeaudioangle>false</activeaudioangle>
                    <clip id="clip-8"/>
                  </angle>
                  <angle>
                    <activevideoangle>false</activevideoangle>
                    <activeaudioangle>false</activeaudioangle>
                    <clip id="clip-9"/>
                  </angle>
                  <masterclipid>clip-master</masterclipid>
                </multiclip>
              </clipitem>
              <clipitem id="cs-734">
                <duration>80</duration>
                <rate>
                  <ntsc>false</ntsc>
                  <timebase>25</timebase>
                </rate>
                <in>50435</in>
                <out>50514</out>
                <start>50435</start>
                <end>50514</end>
                <file id="src-1"/>
                <sourcetrack>
                  <mediatype>video</mediatype>
                  <trackindex>1</trackindex>
                </sourcetrack>
                <multiclip id="mcs-734">
                  <name>MCS-734</name>
                  <masterclipid>clip-master</masterclipid>
                  <collapsed>false</collapsed>
                  <angle>
                    <activevideoangle>true</activevideoangle>
                    <activeaudioangle>true</activeaudioangle>
                    <clip id="clip-1"/>
                  </angle>
                  <angle>
                    <activevideoangle>false</activevideoangle>
                    <activeaudioangle>false</activeaudioangle>
                    <clip id="clip-2"/>
                  </angle>
                  <angle>
                    <activevideoangle>false</activevideoangle>
                    <activeaudioangle>false</activeaudioangle>
                    <clip id="clip-3"/>
                  </angle>
                  <angle>
                    <activevideoangle>false</activevideoangle>
                    <activeaudioangle>false</activeaudioangle>
                    <clip id="clip-4"/>
                  </angle>
                  <angle>
                    <activevideoangle>false</activevideoangle>
                    <activeaudioangle>false</activeaudioangle>
                    <clip id="clip-5"/>
                  </angle>
                  <angle>
                    <activevideoangle>false</activevideoangle>
                    <activeaudioangle>false</activeaudioangle>
                    <clip id="clip-6"/>
                  </angle>
                  <angle>
                    <activevideoangle>false</activevideoangle>
                    <activeaudioangle>false</activeaudioangle>
                    <clip id="clip-7"/>
                  </angle>
                  <angle>
                    <activevideoangle>false</activevideoangle>
                    <activeaudioangle>false</activeaudioangle>
                    <clip id="clip-8"/>
                  </angle>
                  <angle>
                    <activevideoangle>false</activevideoangle>
                    <activeaudioangle>false</activeaudioangle>
                    <clip id="clip-9"/>
                  </angle>
                  <masterclipid>clip-master</masterclipid>
                </multiclip>
              </clipitem>
              <clipitem id="cs-735">
                <duration>62</duration>
                <rate>
                  <ntsc>false</ntsc>
                  <timebase>25</timebase>
                </rate>
                <in>50514</in>
                <out>50575</out>
                <start>50514</start>
                <end>50575</end>
                <file id="src-4"/>
                <sourcetrack>
                  <mediatype>video</mediatype>
                  <trackindex>1</trackindex>
                </sourcetrack>
                <multiclip id="mcs-735">
                  <name>MCS-735</name>
                  <masterclipid>clip-master</masterclipid>
                  <collapsed>false</collapsed>
                  <angle>
                    <activevideoangle>false</activevideoangle>
                    <activeaudioangle>false</activeaudioangle>
                    <clip id="clip-1"/>
                  </angle>
                  <angle>
                    <activevideoangle>false</activevideoangle>
                    <activeaudioangle>false</activeaudioangle>
                    <clip id="clip-2"/>
                  </angle>
                  <angle>
                    <activevideoangle>false</activevideoangle>
                    <activeaudioangle>false</activeaudioangle>
                    <clip id="clip-3"/>
                  </angle>
                  <angle>
                    <activevideoangle>true</activevideoangle>
                    <activeaudioangle>true</activeaudioangle>
                    <clip id="clip-4"/>
                  </angle>
                  <angle>
                    <activevideoangle>false</activevideoangle>
                    <activeaudioangle>false</activeaudioangle>
                    <clip id="clip-5"/>
                  </angle>
                  <angle>
                    <activevideoangle>false</activevideoangle>
                    <activeaudioangle>false</activeaudioangle>
                    <clip id="clip-6"/>
                  </angle>
                  <angle>
                    <activevideoangle>false</activevideoangle>
                    <activeaudioangle>false</activeaudioangle>
                    <clip id="clip-7"/>
                  </angle>
                  <angle>
                    <activevideoangle>false</activevideoangle>
                    <activeaudioangle>false</activeaudioangle>
                    <clip id="clip-8"/>
                  </angle>
                  <angle>
                    <activevideoangle>false</activevideoangle>
                    <activeaudioangle>false</activeaudioangle>
                    <clip id="clip-9"/>
                  </angle>
                  <masterclipid>clip-master</masterclipid>
                </multiclip>
              </clipitem>
              <clipitem id="cs-736">
                <duration>42</duration>
                <rate>
                  <ntsc>false</ntsc>
                  <timebase>25</timebase>
                </rate>
                <in>50575</in>
                <out>50616</out>
                <start>50575</start>
                <end>50616</end>
                <file id="src-2"/>
                <sourcetrack>
                  <mediatype>video</mediatype>
                  <trackindex>1</trackindex>
                </sourcetrack>
                <multiclip id="mcs-736">
                  <name>MCS-736</name>
                  <masterclipid>clip-master</masterclipid>
                  <collapsed>false</collapsed>
                  <angle>
                    <activevideoangle>false</activevideoangle>
                    <activeaudioangle>false</activeaudioangle>
                    <clip id="clip-1"/>
                  </angle>
                  <angle>
                    <activevideoangle>true</activevideoangle>
                    <activeaudioangle>true</activeaudioangle>
                    <clip id="clip-2"/>
                  </angle>
                  <angle>
                    <activevideoangle>false</activevideoangle>
                    <activeaudioangle>false</activeaudioangle>
                    <clip id="clip-3"/>
                  </angle>
                  <angle>
                    <activevideoangle>false</activevideoangle>
                    <activeaudioangle>false</activeaudioangle>
                    <clip id="clip-4"/>
                  </angle>
                  <angle>
                    <activevideoangle>false</activevideoangle>
                    <activeaudioangle>false</activeaudioangle>
                    <clip id="clip-5"/>
                  </angle>
                  <angle>
                    <activevideoangle>false</activevideoangle>
                    <activeaudioangle>false</activeaudioangle>
                    <clip id="clip-6"/>
                  </angle>
                  <angle>
                    <activevideoangle>false</activevideoangle>
                    <activeaudioangle>false</activeaudioangle>
                    <clip id="clip-7"/>
                  </angle>
                  <angle>
                    <activevideoangle>false</activevideoangle>
                    <activeaudioangle>false</activeaudioangle>
                    <clip id="clip-8"/>
                  </angle>
                  <angle>
                    <activevideoangle>false</activevideoangle>
                    <activeaudioangle>false</activeaudioangle>
                    <clip id="clip-9"/>
                  </angle>
                  <masterclipid>clip-master</masterclipid>
                </multiclip>
              </clipitem>
              <clipitem id="cs-737">
                <duration>62</duration>
                <rate>
                  <ntsc>false</ntsc>
                  <timebase>25</timebase>
                </rate>
                <in>50616</in>
                <out>50677</out>
                <start>50616</start>
                <end>50677</end>
                <file id="src-3"/>
                <sourcetrack>
                  <mediatype>video</mediatype>
                  <trackindex>1</trackindex>
                </sourcetrack>
                <multiclip id="mcs-737">
                  <name>MCS-737</name>
                  <masterclipid>clip-master</masterclipid>
                  <collapsed>false</collapsed>
                  <angle>
                    <activevideoangle>false</activevideoangle>
                    <activeaudioangle>false</activeaudioangle>
                    <clip id="clip-1"/>
                  </angle>
                  <angle>
                    <activevideoangle>false</activevideoangle>
                    <activeaudioangle>false</activeaudioangle>
                    <clip id="clip-2"/>
                  </angle>
                  <angle>
                    <activevideoangle>true</activevideoangle>
                    <activeaudioangle>true</activeaudioangle>
                    <clip id="clip-3"/>
                  </angle>
                  <angle>
                    <activevideoangle>false</activevideoangle>
                    <activeaudioangle>false</activeaudioangle>
                    <clip id="clip-4"/>
                  </angle>
                  <angle>
                    <activevideoangle>false</activevideoangle>
                    <activeaudioangle>false</activeaudioangle>
                    <clip id="clip-5"/>
                  </angle>
                  <angle>
                    <activevideoangle>false</activevideoangle>
                    <activeaudioangle>false</activeaudioangle>
                    <clip id="clip-6"/>
                  </angle>
                  <angle>
                    <activevideoangle>false</activevideoangle>
                    <activeaudioangle>false</activeaudioangle>
                    <clip id="clip-7"/>
                  </angle>
                  <angle>
                    <activevideoangle>false</activevideoangle>
                    <activeaudioangle>false</activeaudioangle>
                    <clip id="clip-8"/>
                  </angle>
                  <angle>
                    <activevideoangle>false</activevideoangle>
                    <activeaudioangle>false</activeaudioangle>
                    <clip id="clip-9"/>
                  </angle>
                  <masterclipid>clip-master</masterclipid>
                </multiclip>
              </clipitem>
              <clipitem id="cs-738">
                <duration>63</duration>
                <rate>
                  <ntsc>false</ntsc>
                  <timebase>25</timebase>
                </rate>
                <in>50677</in>
                <out>50739</out>
                <start>50677</start>
                <end>50739</end>
                <file id="src-6"/>
                <sourcetrack>
                  <mediatype>video</mediatype>
                  <trackindex>1</trackindex>
                </sourcetrack>
                <multiclip id="mcs-738">
                  <name>MCS-738</name>
                  <masterclipid>clip-master</masterclipid>
                  <collapsed>false</collapsed>
                  <angle>
                    <activevideoangle>false</activevideoangle>
                    <activeaudioangle>false</activeaudioangle>
                    <clip id="clip-1"/>
                  </angle>
                  <angle>
                    <activevideoangle>false</activevideoangle>
                    <activeaudioangle>false</activeaudioangle>
                    <clip id="clip-2"/>
                  </angle>
                  <angle>
                    <activevideoangle>false</activevideoangle>
                    <activeaudioangle>false</activeaudioangle>
                    <clip id="clip-3"/>
                  </angle>
                  <angle>
                    <activevideoangle>false</activevideoangle>
                    <activeaudioangle>false</activeaudioangle>
                    <clip id="clip-4"/>
                  </angle>
                  <angle>
                    <activevideoangle>false</activevideoangle>
                    <activeaudioangle>false</activeaudioangle>
                    <clip id="clip-5"/>
                  </angle>
                  <angle>
                    <activevideoangle>true</activevideoangle>
                    <activeaudioangle>true</activeaudioangle>
                    <clip id="clip-6"/>
                  </angle>
                  <angle>
                    <activevideoangle>false</activevideoangle>
                    <activeaudioangle>false</activeaudioangle>
                    <clip id="clip-7"/>
                  </angle>
                  <angle>
                    <activevideoangle>false</activevideoangle>
                    <activeaudioangle>false</activeaudioangle>
                    <clip id="clip-8"/>
                  </angle>
                  <angle>
                    <activevideoangle>false</activevideoangle>
                    <activeaudioangle>false</activeaudioangle>
                    <clip id="clip-9"/>
                  </angle>
                  <masterclipid>clip-master</masterclipid>
                </multiclip>
              </clipitem>
              <clipitem id="cs-739">
                <duration>42</duration>
                <rate>
                  <ntsc>false</ntsc>
                  <timebase>25</timebase>
                </rate>
                <in>50739</in>
                <out>50780</out>
                <start>50739</start>
                <end>50780</end>
                <file id="src-4"/>
                <sourcetrack>
                  <mediatype>video</mediatype>
                  <trackindex>1</trackindex>
                </sourcetrack>
                <multiclip id="mcs-739">
                  <name>MCS-739</name>
                  <masterclipid>clip-master</masterclipid>
                  <collapsed>false</collapsed>
                  <angle>
                    <activevideoangle>false</activevideoangle>
                    <activeaudioangle>false</activeaudioangle>
                    <clip id="clip-1"/>
                  </angle>
                  <angle>
                    <activevideoangle>false</activevideoangle>
                    <activeaudioangle>false</activeaudioangle>
                    <clip id="clip-2"/>
                  </angle>
                  <angle>
                    <activevideoangle>false</activevideoangle>
                    <activeaudioangle>false</activeaudioangle>
                    <clip id="clip-3"/>
                  </angle>
                  <angle>
                    <activevideoangle>true</activevideoangle>
                    <activeaudioangle>true</activeaudioangle>
                    <clip id="clip-4"/>
                  </angle>
                  <angle>
                    <activevideoangle>false</activevideoangle>
                    <activeaudioangle>false</activeaudioangle>
                    <clip id="clip-5"/>
                  </angle>
                  <angle>
                    <activevideoangle>false</activevideoangle>
                    <activeaudioangle>false</activeaudioangle>
                    <clip id="clip-6"/>
                  </angle>
                  <angle>
                    <activevideoangle>false</activevideoangle>
                    <activeaudioangle>false</activeaudioangle>
                    <clip id="clip-7"/>
                  </angle>
                  <angle>
                    <activevideoangle>false</activevideoangle>
                    <activeaudioangle>false</activeaudioangle>
                    <clip id="clip-8"/>
                  </angle>
                  <angle>
                    <activevideoangle>false</activevideoangle>
                    <activeaudioangle>false</activeaudioangle>
                    <clip id="clip-9"/>
                  </angle>
                  <masterclipid>clip-master</masterclipid>
                </multiclip>
              </clipitem>
              <clipitem id="cs-740">
                <duration>202</duration>
                <rate>
                  <ntsc>false</ntsc>
                  <timebase>25</timebase>
                </rate>
                <in>50780</in>
                <out>50981</out>
                <start>50780</start>
                <end>50981</end>
                <file id="src-3"/>
                <sourcetrack>
                  <mediatype>video</mediatype>
                  <trackindex>1</trackindex>
                </sourcetrack>
                <multiclip id="mcs-740">
                  <name>MCS-740</name>
                  <masterclipid>clip-master</masterclipid>
                  <collapsed>false</collapsed>
                  <angle>
                    <activevideoangle>false</activevideoangle>
                    <activeaudioangle>false</activeaudioangle>
                    <clip id="clip-1"/>
                  </angle>
                  <angle>
                    <activevideoangle>false</activevideoangle>
                    <activeaudioangle>false</activeaudioangle>
                    <clip id="clip-2"/>
                  </angle>
                  <angle>
                    <activevideoangle>true</activevideoangle>
                    <activeaudioangle>true</activeaudioangle>
                    <clip id="clip-3"/>
                  </angle>
                  <angle>
                    <activevideoangle>false</activevideoangle>
                    <activeaudioangle>false</activeaudioangle>
                    <clip id="clip-4"/>
                  </angle>
                  <angle>
                    <activevideoangle>false</activevideoangle>
                    <activeaudioangle>false</activeaudioangle>
                    <clip id="clip-5"/>
                  </angle>
                  <angle>
                    <activevideoangle>false</activevideoangle>
                    <activeaudioangle>false</activeaudioangle>
                    <clip id="clip-6"/>
                  </angle>
                  <angle>
                    <activevideoangle>false</activevideoangle>
                    <activeaudioangle>false</activeaudioangle>
                    <clip id="clip-7"/>
                  </angle>
                  <angle>
                    <activevideoangle>false</activevideoangle>
                    <activeaudioangle>false</activeaudioangle>
                    <clip id="clip-8"/>
                  </angle>
                  <angle>
                    <activevideoangle>false</activevideoangle>
                    <activeaudioangle>false</activeaudioangle>
                    <clip id="clip-9"/>
                  </angle>
                  <masterclipid>clip-master</masterclipid>
                </multiclip>
              </clipitem>
              <clipitem id="cs-741">
                <duration>40</duration>
                <rate>
                  <ntsc>false</ntsc>
                  <timebase>25</timebase>
                </rate>
                <in>50981</in>
                <out>51020</out>
                <start>50981</start>
                <end>51020</end>
                <file id="src-7"/>
                <sourcetrack>
                  <mediatype>video</mediatype>
                  <trackindex>1</trackindex>
                </sourcetrack>
                <multiclip id="mcs-741">
                  <name>MCS-741</name>
                  <masterclipid>clip-master</masterclipid>
                  <collapsed>false</collapsed>
                  <angle>
                    <activevideoangle>false</activevideoangle>
                    <activeaudioangle>false</activeaudioangle>
                    <clip id="clip-1"/>
                  </angle>
                  <angle>
                    <activevideoangle>false</activevideoangle>
                    <activeaudioangle>false</activeaudioangle>
                    <clip id="clip-2"/>
                  </angle>
                  <angle>
                    <activevideoangle>false</activevideoangle>
                    <activeaudioangle>false</activeaudioangle>
                    <clip id="clip-3"/>
                  </angle>
                  <angle>
                    <activevideoangle>false</activevideoangle>
                    <activeaudioangle>false</activeaudioangle>
                    <clip id="clip-4"/>
                  </angle>
                  <angle>
                    <activevideoangle>false</activevideoangle>
                    <activeaudioangle>false</activeaudioangle>
                    <clip id="clip-5"/>
                  </angle>
                  <angle>
                    <activevideoangle>false</activevideoangle>
                    <activeaudioangle>false</activeaudioangle>
                    <clip id="clip-6"/>
                  </angle>
                  <angle>
                    <activevideoangle>true</activevideoangle>
                    <activeaudioangle>true</activeaudioangle>
                    <clip id="clip-7"/>
                  </angle>
                  <angle>
                    <activevideoangle>false</activevideoangle>
                    <activeaudioangle>false</activeaudioangle>
                    <clip id="clip-8"/>
                  </angle>
                  <angle>
                    <activevideoangle>false</activevideoangle>
                    <activeaudioangle>false</activeaudioangle>
                    <clip id="clip-9"/>
                  </angle>
                  <masterclipid>clip-master</masterclipid>
                </multiclip>
              </clipitem>
              <clipitem id="cs-742">
                <duration>85</duration>
                <rate>
                  <ntsc>false</ntsc>
                  <timebase>25</timebase>
                </rate>
                <in>51020</in>
                <out>51104</out>
                <start>51020</start>
                <end>51104</end>
                <file id="src-4"/>
                <sourcetrack>
                  <mediatype>video</mediatype>
                  <trackindex>1</trackindex>
                </sourcetrack>
                <multiclip id="mcs-742">
                  <name>MCS-742</name>
                  <masterclipid>clip-master</masterclipid>
                  <collapsed>false</collapsed>
                  <angle>
                    <activevideoangle>false</activevideoangle>
                    <activeaudioangle>false</activeaudioangle>
                    <clip id="clip-1"/>
                  </angle>
                  <angle>
                    <activevideoangle>false</activevideoangle>
                    <activeaudioangle>false</activeaudioangle>
                    <clip id="clip-2"/>
                  </angle>
                  <angle>
                    <activevideoangle>false</activevideoangle>
                    <activeaudioangle>false</activeaudioangle>
                    <clip id="clip-3"/>
                  </angle>
                  <angle>
                    <activevideoangle>true</activevideoangle>
                    <activeaudioangle>true</activeaudioangle>
                    <clip id="clip-4"/>
                  </angle>
                  <angle>
                    <activevideoangle>false</activevideoangle>
                    <activeaudioangle>false</activeaudioangle>
                    <clip id="clip-5"/>
                  </angle>
                  <angle>
                    <activevideoangle>false</activevideoangle>
                    <activeaudioangle>false</activeaudioangle>
                    <clip id="clip-6"/>
                  </angle>
                  <angle>
                    <activevideoangle>false</activevideoangle>
                    <activeaudioangle>false</activeaudioangle>
                    <clip id="clip-7"/>
                  </angle>
                  <angle>
                    <activevideoangle>false</activevideoangle>
                    <activeaudioangle>false</activeaudioangle>
                    <clip id="clip-8"/>
                  </angle>
                  <angle>
                    <activevideoangle>false</activevideoangle>
                    <activeaudioangle>false</activeaudioangle>
                    <clip id="clip-9"/>
                  </angle>
                  <masterclipid>clip-master</masterclipid>
                </multiclip>
              </clipitem>
              <clipitem id="cs-743">
                <duration>86</duration>
                <rate>
                  <ntsc>false</ntsc>
                  <timebase>25</timebase>
                </rate>
                <in>51104</in>
                <out>51189</out>
                <start>51104</start>
                <end>51189</end>
                <file id="src-2"/>
                <sourcetrack>
                  <mediatype>video</mediatype>
                  <trackindex>1</trackindex>
                </sourcetrack>
                <multiclip id="mcs-743">
                  <name>MCS-743</name>
                  <masterclipid>clip-master</masterclipid>
                  <collapsed>false</collapsed>
                  <angle>
                    <activevideoangle>false</activevideoangle>
                    <activeaudioangle>false</activeaudioangle>
                    <clip id="clip-1"/>
                  </angle>
                  <angle>
                    <activevideoangle>true</activevideoangle>
                    <activeaudioangle>true</activeaudioangle>
                    <clip id="clip-2"/>
                  </angle>
                  <angle>
                    <activevideoangle>false</activevideoangle>
                    <activeaudioangle>false</activeaudioangle>
                    <clip id="clip-3"/>
                  </angle>
                  <angle>
                    <activevideoangle>false</activevideoangle>
                    <activeaudioangle>false</activeaudioangle>
                    <clip id="clip-4"/>
                  </angle>
                  <angle>
                    <activevideoangle>false</activevideoangle>
                    <activeaudioangle>false</activeaudioangle>
                    <clip id="clip-5"/>
                  </angle>
                  <angle>
                    <activevideoangle>false</activevideoangle>
                    <activeaudioangle>false</activeaudioangle>
                    <clip id="clip-6"/>
                  </angle>
                  <angle>
                    <activevideoangle>false</activevideoangle>
                    <activeaudioangle>false</activeaudioangle>
                    <clip id="clip-7"/>
                  </angle>
                  <angle>
                    <activevideoangle>false</activevideoangle>
                    <activeaudioangle>false</activeaudioangle>
                    <clip id="clip-8"/>
                  </angle>
                  <angle>
                    <activevideoangle>false</activevideoangle>
                    <activeaudioangle>false</activeaudioangle>
                    <clip id="clip-9"/>
                  </angle>
                  <masterclipid>clip-master</masterclipid>
                </multiclip>
              </clipitem>
              <clipitem id="cs-744">
                <duration>82</duration>
                <rate>
                  <ntsc>false</ntsc>
                  <timebase>25</timebase>
                </rate>
                <in>51189</in>
                <out>51270</out>
                <start>51189</start>
                <end>51270</end>
                <file id="src-3"/>
                <sourcetrack>
                  <mediatype>video</mediatype>
                  <trackindex>1</trackindex>
                </sourcetrack>
                <multiclip id="mcs-744">
                  <name>MCS-744</name>
                  <masterclipid>clip-master</masterclipid>
                  <collapsed>false</collapsed>
                  <angle>
                    <activevideoangle>false</activevideoangle>
                    <activeaudioangle>false</activeaudioangle>
                    <clip id="clip-1"/>
                  </angle>
                  <angle>
                    <activevideoangle>false</activevideoangle>
                    <activeaudioangle>false</activeaudioangle>
                    <clip id="clip-2"/>
                  </angle>
                  <angle>
                    <activevideoangle>true</activevideoangle>
                    <activeaudioangle>true</activeaudioangle>
                    <clip id="clip-3"/>
                  </angle>
                  <angle>
                    <activevideoangle>false</activevideoangle>
                    <activeaudioangle>false</activeaudioangle>
                    <clip id="clip-4"/>
                  </angle>
                  <angle>
                    <activevideoangle>false</activevideoangle>
                    <activeaudioangle>false</activeaudioangle>
                    <clip id="clip-5"/>
                  </angle>
                  <angle>
                    <activevideoangle>false</activevideoangle>
                    <activeaudioangle>false</activeaudioangle>
                    <clip id="clip-6"/>
                  </angle>
                  <angle>
                    <activevideoangle>false</activevideoangle>
                    <activeaudioangle>false</activeaudioangle>
                    <clip id="clip-7"/>
                  </angle>
                  <angle>
                    <activevideoangle>false</activevideoangle>
                    <activeaudioangle>false</activeaudioangle>
                    <clip id="clip-8"/>
                  </angle>
                  <angle>
                    <activevideoangle>false</activevideoangle>
                    <activeaudioangle>false</activeaudioangle>
                    <clip id="clip-9"/>
                  </angle>
                  <masterclipid>clip-master</masterclipid>
                </multiclip>
              </clipitem>
              <clipitem id="cs-745">
                <duration>63</duration>
                <rate>
                  <ntsc>false</ntsc>
                  <timebase>25</timebase>
                </rate>
                <in>51270</in>
                <out>51332</out>
                <start>51270</start>
                <end>51332</end>
                <file id="src-5"/>
                <sourcetrack>
                  <mediatype>video</mediatype>
                  <trackindex>1</trackindex>
                </sourcetrack>
                <multiclip id="mcs-745">
                  <name>MCS-745</name>
                  <masterclipid>clip-master</masterclipid>
                  <collapsed>false</collapsed>
                  <angle>
                    <activevideoangle>false</activevideoangle>
                    <activeaudioangle>false</activeaudioangle>
                    <clip id="clip-1"/>
                  </angle>
                  <angle>
                    <activevideoangle>false</activevideoangle>
                    <activeaudioangle>false</activeaudioangle>
                    <clip id="clip-2"/>
                  </angle>
                  <angle>
                    <activevideoangle>false</activevideoangle>
                    <activeaudioangle>false</activeaudioangle>
                    <clip id="clip-3"/>
                  </angle>
                  <angle>
                    <activevideoangle>false</activevideoangle>
                    <activeaudioangle>false</activeaudioangle>
                    <clip id="clip-4"/>
                  </angle>
                  <angle>
                    <activevideoangle>true</activevideoangle>
                    <activeaudioangle>true</activeaudioangle>
                    <clip id="clip-5"/>
                  </angle>
                  <angle>
                    <activevideoangle>false</activevideoangle>
                    <activeaudioangle>false</activeaudioangle>
                    <clip id="clip-6"/>
                  </angle>
                  <angle>
                    <activevideoangle>false</activevideoangle>
                    <activeaudioangle>false</activeaudioangle>
                    <clip id="clip-7"/>
                  </angle>
                  <angle>
                    <activevideoangle>false</activevideoangle>
                    <activeaudioangle>false</activeaudioangle>
                    <clip id="clip-8"/>
                  </angle>
                  <angle>
                    <activevideoangle>false</activevideoangle>
                    <activeaudioangle>false</activeaudioangle>
                    <clip id="clip-9"/>
                  </angle>
                  <masterclipid>clip-master</masterclipid>
                </multiclip>
              </clipitem>
              <clipitem id="cs-746">
                <duration>101</duration>
                <rate>
                  <ntsc>false</ntsc>
                  <timebase>25</timebase>
                </rate>
                <in>51332</in>
                <out>51432</out>
                <start>51332</start>
                <end>51432</end>
                <file id="src-4"/>
                <sourcetrack>
                  <mediatype>video</mediatype>
                  <trackindex>1</trackindex>
                </sourcetrack>
                <multiclip id="mcs-746">
                  <name>MCS-746</name>
                  <masterclipid>clip-master</masterclipid>
                  <collapsed>false</collapsed>
                  <angle>
                    <activevideoangle>false</activevideoangle>
                    <activeaudioangle>false</activeaudioangle>
                    <clip id="clip-1"/>
                  </angle>
                  <angle>
                    <activevideoangle>false</activevideoangle>
                    <activeaudioangle>false</activeaudioangle>
                    <clip id="clip-2"/>
                  </angle>
                  <angle>
                    <activevideoangle>false</activevideoangle>
                    <activeaudioangle>false</activeaudioangle>
                    <clip id="clip-3"/>
                  </angle>
                  <angle>
                    <activevideoangle>true</activevideoangle>
                    <activeaudioangle>true</activeaudioangle>
                    <clip id="clip-4"/>
                  </angle>
                  <angle>
                    <activevideoangle>false</activevideoangle>
                    <activeaudioangle>false</activeaudioangle>
                    <clip id="clip-5"/>
                  </angle>
                  <angle>
                    <activevideoangle>false</activevideoangle>
                    <activeaudioangle>false</activeaudioangle>
                    <clip id="clip-6"/>
                  </angle>
                  <angle>
                    <activevideoangle>false</activevideoangle>
                    <activeaudioangle>false</activeaudioangle>
                    <clip id="clip-7"/>
                  </angle>
                  <angle>
                    <activevideoangle>false</activevideoangle>
                    <activeaudioangle>false</activeaudioangle>
                    <clip id="clip-8"/>
                  </angle>
                  <angle>
                    <activevideoangle>false</activevideoangle>
                    <activeaudioangle>false</activeaudioangle>
                    <clip id="clip-9"/>
                  </angle>
                  <masterclipid>clip-master</masterclipid>
                </multiclip>
              </clipitem>
              <clipitem id="cs-747">
                <duration>85</duration>
                <rate>
                  <ntsc>false</ntsc>
                  <timebase>25</timebase>
                </rate>
                <in>51432</in>
                <out>51516</out>
                <start>51432</start>
                <end>51516</end>
                <file id="src-6"/>
                <sourcetrack>
                  <mediatype>video</mediatype>
                  <trackindex>1</trackindex>
                </sourcetrack>
                <multiclip id="mcs-747">
                  <name>MCS-747</name>
                  <masterclipid>clip-master</masterclipid>
                  <collapsed>false</collapsed>
                  <angle>
                    <activevideoangle>false</activevideoangle>
                    <activeaudioangle>false</activeaudioangle>
                    <clip id="clip-1"/>
                  </angle>
                  <angle>
                    <activevideoangle>false</activevideoangle>
                    <activeaudioangle>false</activeaudioangle>
                    <clip id="clip-2"/>
                  </angle>
                  <angle>
                    <activevideoangle>false</activevideoangle>
                    <activeaudioangle>false</activeaudioangle>
                    <clip id="clip-3"/>
                  </angle>
                  <angle>
                    <activevideoangle>false</activevideoangle>
                    <activeaudioangle>false</activeaudioangle>
                    <clip id="clip-4"/>
                  </angle>
                  <angle>
                    <activevideoangle>false</activevideoangle>
                    <activeaudioangle>false</activeaudioangle>
                    <clip id="clip-5"/>
                  </angle>
                  <angle>
                    <activevideoangle>true</activevideoangle>
                    <activeaudioangle>true</activeaudioangle>
                    <clip id="clip-6"/>
                  </angle>
                  <angle>
                    <activevideoangle>false</activevideoangle>
                    <activeaudioangle>false</activeaudioangle>
                    <clip id="clip-7"/>
                  </angle>
                  <angle>
                    <activevideoangle>false</activevideoangle>
                    <activeaudioangle>false</activeaudioangle>
                    <clip id="clip-8"/>
                  </angle>
                  <angle>
                    <activevideoangle>false</activevideoangle>
                    <activeaudioangle>false</activeaudioangle>
                    <clip id="clip-9"/>
                  </angle>
                  <masterclipid>clip-master</masterclipid>
                </multiclip>
              </clipitem>
              <clipitem id="cs-748">
                <duration>178</duration>
                <rate>
                  <ntsc>false</ntsc>
                  <timebase>25</timebase>
                </rate>
                <in>51516</in>
                <out>51693</out>
                <start>51516</start>
                <end>51693</end>
                <file id="src-3"/>
                <sourcetrack>
                  <mediatype>video</mediatype>
                  <trackindex>1</trackindex>
                </sourcetrack>
                <multiclip id="mcs-748">
                  <name>MCS-748</name>
                  <masterclipid>clip-master</masterclipid>
                  <collapsed>false</collapsed>
                  <angle>
                    <activevideoangle>false</activevideoangle>
                    <activeaudioangle>false</activeaudioangle>
                    <clip id="clip-1"/>
                  </angle>
                  <angle>
                    <activevideoangle>false</activevideoangle>
                    <activeaudioangle>false</activeaudioangle>
                    <clip id="clip-2"/>
                  </angle>
                  <angle>
                    <activevideoangle>true</activevideoangle>
                    <activeaudioangle>true</activeaudioangle>
                    <clip id="clip-3"/>
                  </angle>
                  <angle>
                    <activevideoangle>false</activevideoangle>
                    <activeaudioangle>false</activeaudioangle>
                    <clip id="clip-4"/>
                  </angle>
                  <angle>
                    <activevideoangle>false</activevideoangle>
                    <activeaudioangle>false</activeaudioangle>
                    <clip id="clip-5"/>
                  </angle>
                  <angle>
                    <activevideoangle>false</activevideoangle>
                    <activeaudioangle>false</activeaudioangle>
                    <clip id="clip-6"/>
                  </angle>
                  <angle>
                    <activevideoangle>false</activevideoangle>
                    <activeaudioangle>false</activeaudioangle>
                    <clip id="clip-7"/>
                  </angle>
                  <angle>
                    <activevideoangle>false</activevideoangle>
                    <activeaudioangle>false</activeaudioangle>
                    <clip id="clip-8"/>
                  </angle>
                  <angle>
                    <activevideoangle>false</activevideoangle>
                    <activeaudioangle>false</activeaudioangle>
                    <clip id="clip-9"/>
                  </angle>
                  <masterclipid>clip-master</masterclipid>
                </multiclip>
              </clipitem>
              <clipitem id="cs-749">
                <duration>120</duration>
                <rate>
                  <ntsc>false</ntsc>
                  <timebase>25</timebase>
                </rate>
                <in>51693</in>
                <out>51812</out>
                <start>51693</start>
                <end>51812</end>
                <file id="src-6"/>
                <sourcetrack>
                  <mediatype>video</mediatype>
                  <trackindex>1</trackindex>
                </sourcetrack>
                <multiclip id="mcs-749">
                  <name>MCS-749</name>
                  <masterclipid>clip-master</masterclipid>
                  <collapsed>false</collapsed>
                  <angle>
                    <activevideoangle>false</activevideoangle>
                    <activeaudioangle>false</activeaudioangle>
                    <clip id="clip-1"/>
                  </angle>
                  <angle>
                    <activevideoangle>false</activevideoangle>
                    <activeaudioangle>false</activeaudioangle>
                    <clip id="clip-2"/>
                  </angle>
                  <angle>
                    <activevideoangle>false</activevideoangle>
                    <activeaudioangle>false</activeaudioangle>
                    <clip id="clip-3"/>
                  </angle>
                  <angle>
                    <activevideoangle>false</activevideoangle>
                    <activeaudioangle>false</activeaudioangle>
                    <clip id="clip-4"/>
                  </angle>
                  <angle>
                    <activevideoangle>false</activevideoangle>
                    <activeaudioangle>false</activeaudioangle>
                    <clip id="clip-5"/>
                  </angle>
                  <angle>
                    <activevideoangle>true</activevideoangle>
                    <activeaudioangle>true</activeaudioangle>
                    <clip id="clip-6"/>
                  </angle>
                  <angle>
                    <activevideoangle>false</activevideoangle>
                    <activeaudioangle>false</activeaudioangle>
                    <clip id="clip-7"/>
                  </angle>
                  <angle>
                    <activevideoangle>false</activevideoangle>
                    <activeaudioangle>false</activeaudioangle>
                    <clip id="clip-8"/>
                  </angle>
                  <angle>
                    <activevideoangle>false</activevideoangle>
                    <activeaudioangle>false</activeaudioangle>
                    <clip id="clip-9"/>
                  </angle>
                  <masterclipid>clip-master</masterclipid>
                </multiclip>
              </clipitem>
              <clipitem id="cs-750">
                <duration>221</duration>
                <rate>
                  <ntsc>false</ntsc>
                  <timebase>25</timebase>
                </rate>
                <in>51812</in>
                <out>52032</out>
                <start>51812</start>
                <end>52032</end>
                <file id="src-4"/>
                <sourcetrack>
                  <mediatype>video</mediatype>
                  <trackindex>1</trackindex>
                </sourcetrack>
                <multiclip id="mcs-750">
                  <name>MCS-750</name>
                  <masterclipid>clip-master</masterclipid>
                  <collapsed>false</collapsed>
                  <angle>
                    <activevideoangle>false</activevideoangle>
                    <activeaudioangle>false</activeaudioangle>
                    <clip id="clip-1"/>
                  </angle>
                  <angle>
                    <activevideoangle>false</activevideoangle>
                    <activeaudioangle>false</activeaudioangle>
                    <clip id="clip-2"/>
                  </angle>
                  <angle>
                    <activevideoangle>false</activevideoangle>
                    <activeaudioangle>false</activeaudioangle>
                    <clip id="clip-3"/>
                  </angle>
                  <angle>
                    <activevideoangle>true</activevideoangle>
                    <activeaudioangle>true</activeaudioangle>
                    <clip id="clip-4"/>
                  </angle>
                  <angle>
                    <activevideoangle>false</activevideoangle>
                    <activeaudioangle>false</activeaudioangle>
                    <clip id="clip-5"/>
                  </angle>
                  <angle>
                    <activevideoangle>false</activevideoangle>
                    <activeaudioangle>false</activeaudioangle>
                    <clip id="clip-6"/>
                  </angle>
                  <angle>
                    <activevideoangle>false</activevideoangle>
                    <activeaudioangle>false</activeaudioangle>
                    <clip id="clip-7"/>
                  </angle>
                  <angle>
                    <activevideoangle>false</activevideoangle>
                    <activeaudioangle>false</activeaudioangle>
                    <clip id="clip-8"/>
                  </angle>
                  <angle>
                    <activevideoangle>false</activevideoangle>
                    <activeaudioangle>false</activeaudioangle>
                    <clip id="clip-9"/>
                  </angle>
                  <masterclipid>clip-master</masterclipid>
                </multiclip>
              </clipitem>
              <clipitem id="cs-751">
                <duration>188</duration>
                <rate>
                  <ntsc>false</ntsc>
                  <timebase>25</timebase>
                </rate>
                <in>52032</in>
                <out>52219</out>
                <start>52032</start>
                <end>52219</end>
                <file id="src-2"/>
                <sourcetrack>
                  <mediatype>video</mediatype>
                  <trackindex>1</trackindex>
                </sourcetrack>
                <multiclip id="mcs-751">
                  <name>MCS-751</name>
                  <masterclipid>clip-master</masterclipid>
                  <collapsed>false</collapsed>
                  <angle>
                    <activevideoangle>false</activevideoangle>
                    <activeaudioangle>false</activeaudioangle>
                    <clip id="clip-1"/>
                  </angle>
                  <angle>
                    <activevideoangle>true</activevideoangle>
                    <activeaudioangle>true</activeaudioangle>
                    <clip id="clip-2"/>
                  </angle>
                  <angle>
                    <activevideoangle>false</activevideoangle>
                    <activeaudioangle>false</activeaudioangle>
                    <clip id="clip-3"/>
                  </angle>
                  <angle>
                    <activevideoangle>false</activevideoangle>
                    <activeaudioangle>false</activeaudioangle>
                    <clip id="clip-4"/>
                  </angle>
                  <angle>
                    <activevideoangle>false</activevideoangle>
                    <activeaudioangle>false</activeaudioangle>
                    <clip id="clip-5"/>
                  </angle>
                  <angle>
                    <activevideoangle>false</activevideoangle>
                    <activeaudioangle>false</activeaudioangle>
                    <clip id="clip-6"/>
                  </angle>
                  <angle>
                    <activevideoangle>false</activevideoangle>
                    <activeaudioangle>false</activeaudioangle>
                    <clip id="clip-7"/>
                  </angle>
                  <angle>
                    <activevideoangle>false</activevideoangle>
                    <activeaudioangle>false</activeaudioangle>
                    <clip id="clip-8"/>
                  </angle>
                  <angle>
                    <activevideoangle>false</activevideoangle>
                    <activeaudioangle>false</activeaudioangle>
                    <clip id="clip-9"/>
                  </angle>
                  <masterclipid>clip-master</masterclipid>
                </multiclip>
              </clipitem>
              <clipitem id="cs-752">
                <duration>105</duration>
                <rate>
                  <ntsc>false</ntsc>
                  <timebase>25</timebase>
                </rate>
                <in>52219</in>
                <out>52323</out>
                <start>52219</start>
                <end>52323</end>
                <file id="src-4"/>
                <sourcetrack>
                  <mediatype>video</mediatype>
                  <trackindex>1</trackindex>
                </sourcetrack>
                <multiclip id="mcs-752">
                  <name>MCS-752</name>
                  <masterclipid>clip-master</masterclipid>
                  <collapsed>false</collapsed>
                  <angle>
                    <activevideoangle>false</activevideoangle>
                    <activeaudioangle>false</activeaudioangle>
                    <clip id="clip-1"/>
                  </angle>
                  <angle>
                    <activevideoangle>false</activevideoangle>
                    <activeaudioangle>false</activeaudioangle>
                    <clip id="clip-2"/>
                  </angle>
                  <angle>
                    <activevideoangle>false</activevideoangle>
                    <activeaudioangle>false</activeaudioangle>
                    <clip id="clip-3"/>
                  </angle>
                  <angle>
                    <activevideoangle>true</activevideoangle>
                    <activeaudioangle>true</activeaudioangle>
                    <clip id="clip-4"/>
                  </angle>
                  <angle>
                    <activevideoangle>false</activevideoangle>
                    <activeaudioangle>false</activeaudioangle>
                    <clip id="clip-5"/>
                  </angle>
                  <angle>
                    <activevideoangle>false</activevideoangle>
                    <activeaudioangle>false</activeaudioangle>
                    <clip id="clip-6"/>
                  </angle>
                  <angle>
                    <activevideoangle>false</activevideoangle>
                    <activeaudioangle>false</activeaudioangle>
                    <clip id="clip-7"/>
                  </angle>
                  <angle>
                    <activevideoangle>false</activevideoangle>
                    <activeaudioangle>false</activeaudioangle>
                    <clip id="clip-8"/>
                  </angle>
                  <angle>
                    <activevideoangle>false</activevideoangle>
                    <activeaudioangle>false</activeaudioangle>
                    <clip id="clip-9"/>
                  </angle>
                  <masterclipid>clip-master</masterclipid>
                </multiclip>
              </clipitem>
              <clipitem id="cs-753">
                <duration>186</duration>
                <rate>
                  <ntsc>false</ntsc>
                  <timebase>25</timebase>
                </rate>
                <in>52323</in>
                <out>52508</out>
                <start>52323</start>
                <end>52508</end>
                <file id="src-3"/>
                <sourcetrack>
                  <mediatype>video</mediatype>
                  <trackindex>1</trackindex>
                </sourcetrack>
                <multiclip id="mcs-753">
                  <name>MCS-753</name>
                  <masterclipid>clip-master</masterclipid>
                  <collapsed>false</collapsed>
                  <angle>
                    <activevideoangle>false</activevideoangle>
                    <activeaudioangle>false</activeaudioangle>
                    <clip id="clip-1"/>
                  </angle>
                  <angle>
                    <activevideoangle>false</activevideoangle>
                    <activeaudioangle>false</activeaudioangle>
                    <clip id="clip-2"/>
                  </angle>
                  <angle>
                    <activevideoangle>true</activevideoangle>
                    <activeaudioangle>true</activeaudioangle>
                    <clip id="clip-3"/>
                  </angle>
                  <angle>
                    <activevideoangle>false</activevideoangle>
                    <activeaudioangle>false</activeaudioangle>
                    <clip id="clip-4"/>
                  </angle>
                  <angle>
                    <activevideoangle>false</activevideoangle>
                    <activeaudioangle>false</activeaudioangle>
                    <clip id="clip-5"/>
                  </angle>
                  <angle>
                    <activevideoangle>false</activevideoangle>
                    <activeaudioangle>false</activeaudioangle>
                    <clip id="clip-6"/>
                  </angle>
                  <angle>
                    <activevideoangle>false</activevideoangle>
                    <activeaudioangle>false</activeaudioangle>
                    <clip id="clip-7"/>
                  </angle>
                  <angle>
                    <activevideoangle>false</activevideoangle>
                    <activeaudioangle>false</activeaudioangle>
                    <clip id="clip-8"/>
                  </angle>
                  <angle>
                    <activevideoangle>false</activevideoangle>
                    <activeaudioangle>false</activeaudioangle>
                    <clip id="clip-9"/>
                  </angle>
                  <masterclipid>clip-master</masterclipid>
                </multiclip>
              </clipitem>
              <clipitem id="cs-754">
                <duration>71</duration>
                <rate>
                  <ntsc>false</ntsc>
                  <timebase>25</timebase>
                </rate>
                <in>52508</in>
                <out>52578</out>
                <start>52508</start>
                <end>52578</end>
                <file id="src-2"/>
                <sourcetrack>
                  <mediatype>video</mediatype>
                  <trackindex>1</trackindex>
                </sourcetrack>
                <multiclip id="mcs-754">
                  <name>MCS-754</name>
                  <masterclipid>clip-master</masterclipid>
                  <collapsed>false</collapsed>
                  <angle>
                    <activevideoangle>false</activevideoangle>
                    <activeaudioangle>false</activeaudioangle>
                    <clip id="clip-1"/>
                  </angle>
                  <angle>
                    <activevideoangle>true</activevideoangle>
                    <activeaudioangle>true</activeaudioangle>
                    <clip id="clip-2"/>
                  </angle>
                  <angle>
                    <activevideoangle>false</activevideoangle>
                    <activeaudioangle>false</activeaudioangle>
                    <clip id="clip-3"/>
                  </angle>
                  <angle>
                    <activevideoangle>false</activevideoangle>
                    <activeaudioangle>false</activeaudioangle>
                    <clip id="clip-4"/>
                  </angle>
                  <angle>
                    <activevideoangle>false</activevideoangle>
                    <activeaudioangle>false</activeaudioangle>
                    <clip id="clip-5"/>
                  </angle>
                  <angle>
                    <activevideoangle>false</activevideoangle>
                    <activeaudioangle>false</activeaudioangle>
                    <clip id="clip-6"/>
                  </angle>
                  <angle>
                    <activevideoangle>false</activevideoangle>
                    <activeaudioangle>false</activeaudioangle>
                    <clip id="clip-7"/>
                  </angle>
                  <angle>
                    <activevideoangle>false</activevideoangle>
                    <activeaudioangle>false</activeaudioangle>
                    <clip id="clip-8"/>
                  </angle>
                  <angle>
                    <activevideoangle>false</activevideoangle>
                    <activeaudioangle>false</activeaudioangle>
                    <clip id="clip-9"/>
                  </angle>
                  <masterclipid>clip-master</masterclipid>
                </multiclip>
              </clipitem>
              <clipitem id="cs-755">
                <duration>50</duration>
                <rate>
                  <ntsc>false</ntsc>
                  <timebase>25</timebase>
                </rate>
                <in>52578</in>
                <out>52627</out>
                <start>52578</start>
                <end>52627</end>
                <file id="src-4"/>
                <sourcetrack>
                  <mediatype>video</mediatype>
                  <trackindex>1</trackindex>
                </sourcetrack>
                <multiclip id="mcs-755">
                  <name>MCS-755</name>
                  <masterclipid>clip-master</masterclipid>
                  <collapsed>false</collapsed>
                  <angle>
                    <activevideoangle>false</activevideoangle>
                    <activeaudioangle>false</activeaudioangle>
                    <clip id="clip-1"/>
                  </angle>
                  <angle>
                    <activevideoangle>false</activevideoangle>
                    <activeaudioangle>false</activeaudioangle>
                    <clip id="clip-2"/>
                  </angle>
                  <angle>
                    <activevideoangle>false</activevideoangle>
                    <activeaudioangle>false</activeaudioangle>
                    <clip id="clip-3"/>
                  </angle>
                  <angle>
                    <activevideoangle>true</activevideoangle>
                    <activeaudioangle>true</activeaudioangle>
                    <clip id="clip-4"/>
                  </angle>
                  <angle>
                    <activevideoangle>false</activevideoangle>
                    <activeaudioangle>false</activeaudioangle>
                    <clip id="clip-5"/>
                  </angle>
                  <angle>
                    <activevideoangle>false</activevideoangle>
                    <activeaudioangle>false</activeaudioangle>
                    <clip id="clip-6"/>
                  </angle>
                  <angle>
                    <activevideoangle>false</activevideoangle>
                    <activeaudioangle>false</activeaudioangle>
                    <clip id="clip-7"/>
                  </angle>
                  <angle>
                    <activevideoangle>false</activevideoangle>
                    <activeaudioangle>false</activeaudioangle>
                    <clip id="clip-8"/>
                  </angle>
                  <angle>
                    <activevideoangle>false</activevideoangle>
                    <activeaudioangle>false</activeaudioangle>
                    <clip id="clip-9"/>
                  </angle>
                  <masterclipid>clip-master</masterclipid>
                </multiclip>
              </clipitem>
              <clipitem id="cs-756">
                <duration>160</duration>
                <rate>
                  <ntsc>false</ntsc>
                  <timebase>25</timebase>
                </rate>
                <in>52627</in>
                <out>52786</out>
                <start>52627</start>
                <end>52786</end>
                <file id="src-1"/>
                <sourcetrack>
                  <mediatype>video</mediatype>
                  <trackindex>1</trackindex>
                </sourcetrack>
                <multiclip id="mcs-756">
                  <name>MCS-756</name>
                  <masterclipid>clip-master</masterclipid>
                  <collapsed>false</collapsed>
                  <angle>
                    <activevideoangle>true</activevideoangle>
                    <activeaudioangle>true</activeaudioangle>
                    <clip id="clip-1"/>
                  </angle>
                  <angle>
                    <activevideoangle>false</activevideoangle>
                    <activeaudioangle>false</activeaudioangle>
                    <clip id="clip-2"/>
                  </angle>
                  <angle>
                    <activevideoangle>false</activevideoangle>
                    <activeaudioangle>false</activeaudioangle>
                    <clip id="clip-3"/>
                  </angle>
                  <angle>
                    <activevideoangle>false</activevideoangle>
                    <activeaudioangle>false</activeaudioangle>
                    <clip id="clip-4"/>
                  </angle>
                  <angle>
                    <activevideoangle>false</activevideoangle>
                    <activeaudioangle>false</activeaudioangle>
                    <clip id="clip-5"/>
                  </angle>
                  <angle>
                    <activevideoangle>false</activevideoangle>
                    <activeaudioangle>false</activeaudioangle>
                    <clip id="clip-6"/>
                  </angle>
                  <angle>
                    <activevideoangle>false</activevideoangle>
                    <activeaudioangle>false</activeaudioangle>
                    <clip id="clip-7"/>
                  </angle>
                  <angle>
                    <activevideoangle>false</activevideoangle>
                    <activeaudioangle>false</activeaudioangle>
                    <clip id="clip-8"/>
                  </angle>
                  <angle>
                    <activevideoangle>false</activevideoangle>
                    <activeaudioangle>false</activeaudioangle>
                    <clip id="clip-9"/>
                  </angle>
                  <masterclipid>clip-master</masterclipid>
                </multiclip>
              </clipitem>
              <clipitem id="cs-757">
                <duration>80</duration>
                <rate>
                  <ntsc>false</ntsc>
                  <timebase>25</timebase>
                </rate>
                <in>52786</in>
                <out>52865</out>
                <start>52786</start>
                <end>52865</end>
                <file id="src-3"/>
                <sourcetrack>
                  <mediatype>video</mediatype>
                  <trackindex>1</trackindex>
                </sourcetrack>
                <multiclip id="mcs-757">
                  <name>MCS-757</name>
                  <masterclipid>clip-master</masterclipid>
                  <collapsed>false</collapsed>
                  <angle>
                    <activevideoangle>false</activevideoangle>
                    <activeaudioangle>false</activeaudioangle>
                    <clip id="clip-1"/>
                  </angle>
                  <angle>
                    <activevideoangle>false</activevideoangle>
                    <activeaudioangle>false</activeaudioangle>
                    <clip id="clip-2"/>
                  </angle>
                  <angle>
                    <activevideoangle>true</activevideoangle>
                    <activeaudioangle>true</activeaudioangle>
                    <clip id="clip-3"/>
                  </angle>
                  <angle>
                    <activevideoangle>false</activevideoangle>
                    <activeaudioangle>false</activeaudioangle>
                    <clip id="clip-4"/>
                  </angle>
                  <angle>
                    <activevideoangle>false</activevideoangle>
                    <activeaudioangle>false</activeaudioangle>
                    <clip id="clip-5"/>
                  </angle>
                  <angle>
                    <activevideoangle>false</activevideoangle>
                    <activeaudioangle>false</activeaudioangle>
                    <clip id="clip-6"/>
                  </angle>
                  <angle>
                    <activevideoangle>false</activevideoangle>
                    <activeaudioangle>false</activeaudioangle>
                    <clip id="clip-7"/>
                  </angle>
                  <angle>
                    <activevideoangle>false</activevideoangle>
                    <activeaudioangle>false</activeaudioangle>
                    <clip id="clip-8"/>
                  </angle>
                  <angle>
                    <activevideoangle>false</activevideoangle>
                    <activeaudioangle>false</activeaudioangle>
                    <clip id="clip-9"/>
                  </angle>
                  <masterclipid>clip-master</masterclipid>
                </multiclip>
              </clipitem>
              <clipitem id="cs-758">
                <duration>63</duration>
                <rate>
                  <ntsc>false</ntsc>
                  <timebase>25</timebase>
                </rate>
                <in>52865</in>
                <out>52927</out>
                <start>52865</start>
                <end>52927</end>
                <file id="src-2"/>
                <sourcetrack>
                  <mediatype>video</mediatype>
                  <trackindex>1</trackindex>
                </sourcetrack>
                <multiclip id="mcs-758">
                  <name>MCS-758</name>
                  <masterclipid>clip-master</masterclipid>
                  <collapsed>false</collapsed>
                  <angle>
                    <activevideoangle>false</activevideoangle>
                    <activeaudioangle>false</activeaudioangle>
                    <clip id="clip-1"/>
                  </angle>
                  <angle>
                    <activevideoangle>true</activevideoangle>
                    <activeaudioangle>true</activeaudioangle>
                    <clip id="clip-2"/>
                  </angle>
                  <angle>
                    <activevideoangle>false</activevideoangle>
                    <activeaudioangle>false</activeaudioangle>
                    <clip id="clip-3"/>
                  </angle>
                  <angle>
                    <activevideoangle>false</activevideoangle>
                    <activeaudioangle>false</activeaudioangle>
                    <clip id="clip-4"/>
                  </angle>
                  <angle>
                    <activevideoangle>false</activevideoangle>
                    <activeaudioangle>false</activeaudioangle>
                    <clip id="clip-5"/>
                  </angle>
                  <angle>
                    <activevideoangle>false</activevideoangle>
                    <activeaudioangle>false</activeaudioangle>
                    <clip id="clip-6"/>
                  </angle>
                  <angle>
                    <activevideoangle>false</activevideoangle>
                    <activeaudioangle>false</activeaudioangle>
                    <clip id="clip-7"/>
                  </angle>
                  <angle>
                    <activevideoangle>false</activevideoangle>
                    <activeaudioangle>false</activeaudioangle>
                    <clip id="clip-8"/>
                  </angle>
                  <angle>
                    <activevideoangle>false</activevideoangle>
                    <activeaudioangle>false</activeaudioangle>
                    <clip id="clip-9"/>
                  </angle>
                  <masterclipid>clip-master</masterclipid>
                </multiclip>
              </clipitem>
              <clipitem id="cs-759">
                <duration>138</duration>
                <rate>
                  <ntsc>false</ntsc>
                  <timebase>25</timebase>
                </rate>
                <in>52927</in>
                <out>53064</out>
                <start>52927</start>
                <end>53064</end>
                <file id="src-4"/>
                <sourcetrack>
                  <mediatype>video</mediatype>
                  <trackindex>1</trackindex>
                </sourcetrack>
                <multiclip id="mcs-759">
                  <name>MCS-759</name>
                  <masterclipid>clip-master</masterclipid>
                  <collapsed>false</collapsed>
                  <angle>
                    <activevideoangle>false</activevideoangle>
                    <activeaudioangle>false</activeaudioangle>
                    <clip id="clip-1"/>
                  </angle>
                  <angle>
                    <activevideoangle>false</activevideoangle>
                    <activeaudioangle>false</activeaudioangle>
                    <clip id="clip-2"/>
                  </angle>
                  <angle>
                    <activevideoangle>false</activevideoangle>
                    <activeaudioangle>false</activeaudioangle>
                    <clip id="clip-3"/>
                  </angle>
                  <angle>
                    <activevideoangle>true</activevideoangle>
                    <activeaudioangle>true</activeaudioangle>
                    <clip id="clip-4"/>
                  </angle>
                  <angle>
                    <activevideoangle>false</activevideoangle>
                    <activeaudioangle>false</activeaudioangle>
                    <clip id="clip-5"/>
                  </angle>
                  <angle>
                    <activevideoangle>false</activevideoangle>
                    <activeaudioangle>false</activeaudioangle>
                    <clip id="clip-6"/>
                  </angle>
                  <angle>
                    <activevideoangle>false</activevideoangle>
                    <activeaudioangle>false</activeaudioangle>
                    <clip id="clip-7"/>
                  </angle>
                  <angle>
                    <activevideoangle>false</activevideoangle>
                    <activeaudioangle>false</activeaudioangle>
                    <clip id="clip-8"/>
                  </angle>
                  <angle>
                    <activevideoangle>false</activevideoangle>
                    <activeaudioangle>false</activeaudioangle>
                    <clip id="clip-9"/>
                  </angle>
                  <masterclipid>clip-master</masterclipid>
                </multiclip>
              </clipitem>
              <clipitem id="cs-760">
                <duration>59</duration>
                <rate>
                  <ntsc>false</ntsc>
                  <timebase>25</timebase>
                </rate>
                <in>53064</in>
                <out>53122</out>
                <start>53064</start>
                <end>53122</end>
                <file id="src-3"/>
                <sourcetrack>
                  <mediatype>video</mediatype>
                  <trackindex>1</trackindex>
                </sourcetrack>
                <multiclip id="mcs-760">
                  <name>MCS-760</name>
                  <masterclipid>clip-master</masterclipid>
                  <collapsed>false</collapsed>
                  <angle>
                    <activevideoangle>false</activevideoangle>
                    <activeaudioangle>false</activeaudioangle>
                    <clip id="clip-1"/>
                  </angle>
                  <angle>
                    <activevideoangle>false</activevideoangle>
                    <activeaudioangle>false</activeaudioangle>
                    <clip id="clip-2"/>
                  </angle>
                  <angle>
                    <activevideoangle>true</activevideoangle>
                    <activeaudioangle>true</activeaudioangle>
                    <clip id="clip-3"/>
                  </angle>
                  <angle>
                    <activevideoangle>false</activevideoangle>
                    <activeaudioangle>false</activeaudioangle>
                    <clip id="clip-4"/>
                  </angle>
                  <angle>
                    <activevideoangle>false</activevideoangle>
                    <activeaudioangle>false</activeaudioangle>
                    <clip id="clip-5"/>
                  </angle>
                  <angle>
                    <activevideoangle>false</activevideoangle>
                    <activeaudioangle>false</activeaudioangle>
                    <clip id="clip-6"/>
                  </angle>
                  <angle>
                    <activevideoangle>false</activevideoangle>
                    <activeaudioangle>false</activeaudioangle>
                    <clip id="clip-7"/>
                  </angle>
                  <angle>
                    <activevideoangle>false</activevideoangle>
                    <activeaudioangle>false</activeaudioangle>
                    <clip id="clip-8"/>
                  </angle>
                  <angle>
                    <activevideoangle>false</activevideoangle>
                    <activeaudioangle>false</activeaudioangle>
                    <clip id="clip-9"/>
                  </angle>
                  <masterclipid>clip-master</masterclipid>
                </multiclip>
              </clipitem>
              <clipitem id="cs-761">
                <duration>50</duration>
                <rate>
                  <ntsc>false</ntsc>
                  <timebase>25</timebase>
                </rate>
                <in>53122</in>
                <out>53171</out>
                <start>53122</start>
                <end>53171</end>
                <file id="src-5"/>
                <sourcetrack>
                  <mediatype>video</mediatype>
                  <trackindex>1</trackindex>
                </sourcetrack>
                <multiclip id="mcs-761">
                  <name>MCS-761</name>
                  <masterclipid>clip-master</masterclipid>
                  <collapsed>false</collapsed>
                  <angle>
                    <activevideoangle>false</activevideoangle>
                    <activeaudioangle>false</activeaudioangle>
                    <clip id="clip-1"/>
                  </angle>
                  <angle>
                    <activevideoangle>false</activevideoangle>
                    <activeaudioangle>false</activeaudioangle>
                    <clip id="clip-2"/>
                  </angle>
                  <angle>
                    <activevideoangle>false</activevideoangle>
                    <activeaudioangle>false</activeaudioangle>
                    <clip id="clip-3"/>
                  </angle>
                  <angle>
                    <activevideoangle>false</activevideoangle>
                    <activeaudioangle>false</activeaudioangle>
                    <clip id="clip-4"/>
                  </angle>
                  <angle>
                    <activevideoangle>true</activevideoangle>
                    <activeaudioangle>true</activeaudioangle>
                    <clip id="clip-5"/>
                  </angle>
                  <angle>
                    <activevideoangle>false</activevideoangle>
                    <activeaudioangle>false</activeaudioangle>
                    <clip id="clip-6"/>
                  </angle>
                  <angle>
                    <activevideoangle>false</activevideoangle>
                    <activeaudioangle>false</activeaudioangle>
                    <clip id="clip-7"/>
                  </angle>
                  <angle>
                    <activevideoangle>false</activevideoangle>
                    <activeaudioangle>false</activeaudioangle>
                    <clip id="clip-8"/>
                  </angle>
                  <angle>
                    <activevideoangle>false</activevideoangle>
                    <activeaudioangle>false</activeaudioangle>
                    <clip id="clip-9"/>
                  </angle>
                  <masterclipid>clip-master</masterclipid>
                </multiclip>
              </clipitem>
              <clipitem id="cs-762">
                <duration>39</duration>
                <rate>
                  <ntsc>false</ntsc>
                  <timebase>25</timebase>
                </rate>
                <in>53171</in>
                <out>53209</out>
                <start>53171</start>
                <end>53209</end>
                <file id="src-7"/>
                <sourcetrack>
                  <mediatype>video</mediatype>
                  <trackindex>1</trackindex>
                </sourcetrack>
                <multiclip id="mcs-762">
                  <name>MCS-762</name>
                  <masterclipid>clip-master</masterclipid>
                  <collapsed>false</collapsed>
                  <angle>
                    <activevideoangle>false</activevideoangle>
                    <activeaudioangle>false</activeaudioangle>
                    <clip id="clip-1"/>
                  </angle>
                  <angle>
                    <activevideoangle>false</activevideoangle>
                    <activeaudioangle>false</activeaudioangle>
                    <clip id="clip-2"/>
                  </angle>
                  <angle>
                    <activevideoangle>false</activevideoangle>
                    <activeaudioangle>false</activeaudioangle>
                    <clip id="clip-3"/>
                  </angle>
                  <angle>
                    <activevideoangle>false</activevideoangle>
                    <activeaudioangle>false</activeaudioangle>
                    <clip id="clip-4"/>
                  </angle>
                  <angle>
                    <activevideoangle>false</activevideoangle>
                    <activeaudioangle>false</activeaudioangle>
                    <clip id="clip-5"/>
                  </angle>
                  <angle>
                    <activevideoangle>false</activevideoangle>
                    <activeaudioangle>false</activeaudioangle>
                    <clip id="clip-6"/>
                  </angle>
                  <angle>
                    <activevideoangle>true</activevideoangle>
                    <activeaudioangle>true</activeaudioangle>
                    <clip id="clip-7"/>
                  </angle>
                  <angle>
                    <activevideoangle>false</activevideoangle>
                    <activeaudioangle>false</activeaudioangle>
                    <clip id="clip-8"/>
                  </angle>
                  <angle>
                    <activevideoangle>false</activevideoangle>
                    <activeaudioangle>false</activeaudioangle>
                    <clip id="clip-9"/>
                  </angle>
                  <masterclipid>clip-master</masterclipid>
                </multiclip>
              </clipitem>
              <clipitem id="cs-763">
                <duration>194</duration>
                <rate>
                  <ntsc>false</ntsc>
                  <timebase>25</timebase>
                </rate>
                <in>53209</in>
                <out>53402</out>
                <start>53209</start>
                <end>53402</end>
                <file id="src-2"/>
                <sourcetrack>
                  <mediatype>video</mediatype>
                  <trackindex>1</trackindex>
                </sourcetrack>
                <multiclip id="mcs-763">
                  <name>MCS-763</name>
                  <masterclipid>clip-master</masterclipid>
                  <collapsed>false</collapsed>
                  <angle>
                    <activevideoangle>false</activevideoangle>
                    <activeaudioangle>false</activeaudioangle>
                    <clip id="clip-1"/>
                  </angle>
                  <angle>
                    <activevideoangle>true</activevideoangle>
                    <activeaudioangle>true</activeaudioangle>
                    <clip id="clip-2"/>
                  </angle>
                  <angle>
                    <activevideoangle>false</activevideoangle>
                    <activeaudioangle>false</activeaudioangle>
                    <clip id="clip-3"/>
                  </angle>
                  <angle>
                    <activevideoangle>false</activevideoangle>
                    <activeaudioangle>false</activeaudioangle>
                    <clip id="clip-4"/>
                  </angle>
                  <angle>
                    <activevideoangle>false</activevideoangle>
                    <activeaudioangle>false</activeaudioangle>
                    <clip id="clip-5"/>
                  </angle>
                  <angle>
                    <activevideoangle>false</activevideoangle>
                    <activeaudioangle>false</activeaudioangle>
                    <clip id="clip-6"/>
                  </angle>
                  <angle>
                    <activevideoangle>false</activevideoangle>
                    <activeaudioangle>false</activeaudioangle>
                    <clip id="clip-7"/>
                  </angle>
                  <angle>
                    <activevideoangle>false</activevideoangle>
                    <activeaudioangle>false</activeaudioangle>
                    <clip id="clip-8"/>
                  </angle>
                  <angle>
                    <activevideoangle>false</activevideoangle>
                    <activeaudioangle>false</activeaudioangle>
                    <clip id="clip-9"/>
                  </angle>
                  <masterclipid>clip-master</masterclipid>
                </multiclip>
              </clipitem>
              <clipitem id="cs-764">
                <duration>316</duration>
                <rate>
                  <ntsc>false</ntsc>
                  <timebase>25</timebase>
                </rate>
                <in>53402</in>
                <out>53717</out>
                <start>53402</start>
                <end>53717</end>
                <file id="src-4"/>
                <sourcetrack>
                  <mediatype>video</mediatype>
                  <trackindex>1</trackindex>
                </sourcetrack>
                <multiclip id="mcs-764">
                  <name>MCS-764</name>
                  <masterclipid>clip-master</masterclipid>
                  <collapsed>false</collapsed>
                  <angle>
                    <activevideoangle>false</activevideoangle>
                    <activeaudioangle>false</activeaudioangle>
                    <clip id="clip-1"/>
                  </angle>
                  <angle>
                    <activevideoangle>false</activevideoangle>
                    <activeaudioangle>false</activeaudioangle>
                    <clip id="clip-2"/>
                  </angle>
                  <angle>
                    <activevideoangle>false</activevideoangle>
                    <activeaudioangle>false</activeaudioangle>
                    <clip id="clip-3"/>
                  </angle>
                  <angle>
                    <activevideoangle>true</activevideoangle>
                    <activeaudioangle>true</activeaudioangle>
                    <clip id="clip-4"/>
                  </angle>
                  <angle>
                    <activevideoangle>false</activevideoangle>
                    <activeaudioangle>false</activeaudioangle>
                    <clip id="clip-5"/>
                  </angle>
                  <angle>
                    <activevideoangle>false</activevideoangle>
                    <activeaudioangle>false</activeaudioangle>
                    <clip id="clip-6"/>
                  </angle>
                  <angle>
                    <activevideoangle>false</activevideoangle>
                    <activeaudioangle>false</activeaudioangle>
                    <clip id="clip-7"/>
                  </angle>
                  <angle>
                    <activevideoangle>false</activevideoangle>
                    <activeaudioangle>false</activeaudioangle>
                    <clip id="clip-8"/>
                  </angle>
                  <angle>
                    <activevideoangle>false</activevideoangle>
                    <activeaudioangle>false</activeaudioangle>
                    <clip id="clip-9"/>
                  </angle>
                  <masterclipid>clip-master</masterclipid>
                </multiclip>
              </clipitem>
              <clipitem id="cs-765">
                <duration>123</duration>
                <rate>
                  <ntsc>false</ntsc>
                  <timebase>25</timebase>
                </rate>
                <in>53717</in>
                <out>53839</out>
                <start>53717</start>
                <end>53839</end>
                <file id="src-5"/>
                <sourcetrack>
                  <mediatype>video</mediatype>
                  <trackindex>1</trackindex>
                </sourcetrack>
                <multiclip id="mcs-765">
                  <name>MCS-765</name>
                  <masterclipid>clip-master</masterclipid>
                  <collapsed>false</collapsed>
                  <angle>
                    <activevideoangle>false</activevideoangle>
                    <activeaudioangle>false</activeaudioangle>
                    <clip id="clip-1"/>
                  </angle>
                  <angle>
                    <activevideoangle>false</activevideoangle>
                    <activeaudioangle>false</activeaudioangle>
                    <clip id="clip-2"/>
                  </angle>
                  <angle>
                    <activevideoangle>false</activevideoangle>
                    <activeaudioangle>false</activeaudioangle>
                    <clip id="clip-3"/>
                  </angle>
                  <angle>
                    <activevideoangle>false</activevideoangle>
                    <activeaudioangle>false</activeaudioangle>
                    <clip id="clip-4"/>
                  </angle>
                  <angle>
                    <activevideoangle>true</activevideoangle>
                    <activeaudioangle>true</activeaudioangle>
                    <clip id="clip-5"/>
                  </angle>
                  <angle>
                    <activevideoangle>false</activevideoangle>
                    <activeaudioangle>false</activeaudioangle>
                    <clip id="clip-6"/>
                  </angle>
                  <angle>
                    <activevideoangle>false</activevideoangle>
                    <activeaudioangle>false</activeaudioangle>
                    <clip id="clip-7"/>
                  </angle>
                  <angle>
                    <activevideoangle>false</activevideoangle>
                    <activeaudioangle>false</activeaudioangle>
                    <clip id="clip-8"/>
                  </angle>
                  <angle>
                    <activevideoangle>false</activevideoangle>
                    <activeaudioangle>false</activeaudioangle>
                    <clip id="clip-9"/>
                  </angle>
                  <masterclipid>clip-master</masterclipid>
                </multiclip>
              </clipitem>
              <clipitem id="cs-766">
                <duration>150</duration>
                <rate>
                  <ntsc>false</ntsc>
                  <timebase>25</timebase>
                </rate>
                <in>53839</in>
                <out>53988</out>
                <start>53839</start>
                <end>53988</end>
                <file id="src-2"/>
                <sourcetrack>
                  <mediatype>video</mediatype>
                  <trackindex>1</trackindex>
                </sourcetrack>
                <multiclip id="mcs-766">
                  <name>MCS-766</name>
                  <masterclipid>clip-master</masterclipid>
                  <collapsed>false</collapsed>
                  <angle>
                    <activevideoangle>false</activevideoangle>
                    <activeaudioangle>false</activeaudioangle>
                    <clip id="clip-1"/>
                  </angle>
                  <angle>
                    <activevideoangle>true</activevideoangle>
                    <activeaudioangle>true</activeaudioangle>
                    <clip id="clip-2"/>
                  </angle>
                  <angle>
                    <activevideoangle>false</activevideoangle>
                    <activeaudioangle>false</activeaudioangle>
                    <clip id="clip-3"/>
                  </angle>
                  <angle>
                    <activevideoangle>false</activevideoangle>
                    <activeaudioangle>false</activeaudioangle>
                    <clip id="clip-4"/>
                  </angle>
                  <angle>
                    <activevideoangle>false</activevideoangle>
                    <activeaudioangle>false</activeaudioangle>
                    <clip id="clip-5"/>
                  </angle>
                  <angle>
                    <activevideoangle>false</activevideoangle>
                    <activeaudioangle>false</activeaudioangle>
                    <clip id="clip-6"/>
                  </angle>
                  <angle>
                    <activevideoangle>false</activevideoangle>
                    <activeaudioangle>false</activeaudioangle>
                    <clip id="clip-7"/>
                  </angle>
                  <angle>
                    <activevideoangle>false</activevideoangle>
                    <activeaudioangle>false</activeaudioangle>
                    <clip id="clip-8"/>
                  </angle>
                  <angle>
                    <activevideoangle>false</activevideoangle>
                    <activeaudioangle>false</activeaudioangle>
                    <clip id="clip-9"/>
                  </angle>
                  <masterclipid>clip-master</masterclipid>
                </multiclip>
              </clipitem>
              <clipitem id="cs-767">
                <duration>201</duration>
                <rate>
                  <ntsc>false</ntsc>
                  <timebase>25</timebase>
                </rate>
                <in>53988</in>
                <out>54188</out>
                <start>53988</start>
                <end>54188</end>
                <file id="src-4"/>
                <sourcetrack>
                  <mediatype>video</mediatype>
                  <trackindex>1</trackindex>
                </sourcetrack>
                <multiclip id="mcs-767">
                  <name>MCS-767</name>
                  <masterclipid>clip-master</masterclipid>
                  <collapsed>false</collapsed>
                  <angle>
                    <activevideoangle>false</activevideoangle>
                    <activeaudioangle>false</activeaudioangle>
                    <clip id="clip-1"/>
                  </angle>
                  <angle>
                    <activevideoangle>false</activevideoangle>
                    <activeaudioangle>false</activeaudioangle>
                    <clip id="clip-2"/>
                  </angle>
                  <angle>
                    <activevideoangle>false</activevideoangle>
                    <activeaudioangle>false</activeaudioangle>
                    <clip id="clip-3"/>
                  </angle>
                  <angle>
                    <activevideoangle>true</activevideoangle>
                    <activeaudioangle>true</activeaudioangle>
                    <clip id="clip-4"/>
                  </angle>
                  <angle>
                    <activevideoangle>false</activevideoangle>
                    <activeaudioangle>false</activeaudioangle>
                    <clip id="clip-5"/>
                  </angle>
                  <angle>
                    <activevideoangle>false</activevideoangle>
                    <activeaudioangle>false</activeaudioangle>
                    <clip id="clip-6"/>
                  </angle>
                  <angle>
                    <activevideoangle>false</activevideoangle>
                    <activeaudioangle>false</activeaudioangle>
                    <clip id="clip-7"/>
                  </angle>
                  <angle>
                    <activevideoangle>false</activevideoangle>
                    <activeaudioangle>false</activeaudioangle>
                    <clip id="clip-8"/>
                  </angle>
                  <angle>
                    <activevideoangle>false</activevideoangle>
                    <activeaudioangle>false</activeaudioangle>
                    <clip id="clip-9"/>
                  </angle>
                  <masterclipid>clip-master</masterclipid>
                </multiclip>
              </clipitem>
              <clipitem id="cs-768">
                <duration>40</duration>
                <rate>
                  <ntsc>false</ntsc>
                  <timebase>25</timebase>
                </rate>
                <in>54188</in>
                <out>54227</out>
                <start>54188</start>
                <end>54227</end>
                <file id="src-5"/>
                <sourcetrack>
                  <mediatype>video</mediatype>
                  <trackindex>1</trackindex>
                </sourcetrack>
                <multiclip id="mcs-768">
                  <name>MCS-768</name>
                  <masterclipid>clip-master</masterclipid>
                  <collapsed>false</collapsed>
                  <angle>
                    <activevideoangle>false</activevideoangle>
                    <activeaudioangle>false</activeaudioangle>
                    <clip id="clip-1"/>
                  </angle>
                  <angle>
                    <activevideoangle>false</activevideoangle>
                    <activeaudioangle>false</activeaudioangle>
                    <clip id="clip-2"/>
                  </angle>
                  <angle>
                    <activevideoangle>false</activevideoangle>
                    <activeaudioangle>false</activeaudioangle>
                    <clip id="clip-3"/>
                  </angle>
                  <angle>
                    <activevideoangle>false</activevideoangle>
                    <activeaudioangle>false</activeaudioangle>
                    <clip id="clip-4"/>
                  </angle>
                  <angle>
                    <activevideoangle>true</activevideoangle>
                    <activeaudioangle>true</activeaudioangle>
                    <clip id="clip-5"/>
                  </angle>
                  <angle>
                    <activevideoangle>false</activevideoangle>
                    <activeaudioangle>false</activeaudioangle>
                    <clip id="clip-6"/>
                  </angle>
                  <angle>
                    <activevideoangle>false</activevideoangle>
                    <activeaudioangle>false</activeaudioangle>
                    <clip id="clip-7"/>
                  </angle>
                  <angle>
                    <activevideoangle>false</activevideoangle>
                    <activeaudioangle>false</activeaudioangle>
                    <clip id="clip-8"/>
                  </angle>
                  <angle>
                    <activevideoangle>false</activevideoangle>
                    <activeaudioangle>false</activeaudioangle>
                    <clip id="clip-9"/>
                  </angle>
                  <masterclipid>clip-master</masterclipid>
                </multiclip>
              </clipitem>
              <clipitem id="cs-769">
                <duration>79</duration>
                <rate>
                  <ntsc>false</ntsc>
                  <timebase>25</timebase>
                </rate>
                <in>54227</in>
                <out>54305</out>
                <start>54227</start>
                <end>54305</end>
                <file id="src-3"/>
                <sourcetrack>
                  <mediatype>video</mediatype>
                  <trackindex>1</trackindex>
                </sourcetrack>
                <multiclip id="mcs-769">
                  <name>MCS-769</name>
                  <masterclipid>clip-master</masterclipid>
                  <collapsed>false</collapsed>
                  <angle>
                    <activevideoangle>false</activevideoangle>
                    <activeaudioangle>false</activeaudioangle>
                    <clip id="clip-1"/>
                  </angle>
                  <angle>
                    <activevideoangle>false</activevideoangle>
                    <activeaudioangle>false</activeaudioangle>
                    <clip id="clip-2"/>
                  </angle>
                  <angle>
                    <activevideoangle>true</activevideoangle>
                    <activeaudioangle>true</activeaudioangle>
                    <clip id="clip-3"/>
                  </angle>
                  <angle>
                    <activevideoangle>false</activevideoangle>
                    <activeaudioangle>false</activeaudioangle>
                    <clip id="clip-4"/>
                  </angle>
                  <angle>
                    <activevideoangle>false</activevideoangle>
                    <activeaudioangle>false</activeaudioangle>
                    <clip id="clip-5"/>
                  </angle>
                  <angle>
                    <activevideoangle>false</activevideoangle>
                    <activeaudioangle>false</activeaudioangle>
                    <clip id="clip-6"/>
                  </angle>
                  <angle>
                    <activevideoangle>false</activevideoangle>
                    <activeaudioangle>false</activeaudioangle>
                    <clip id="clip-7"/>
                  </angle>
                  <angle>
                    <activevideoangle>false</activevideoangle>
                    <activeaudioangle>false</activeaudioangle>
                    <clip id="clip-8"/>
                  </angle>
                  <angle>
                    <activevideoangle>false</activevideoangle>
                    <activeaudioangle>false</activeaudioangle>
                    <clip id="clip-9"/>
                  </angle>
                  <masterclipid>clip-master</masterclipid>
                </multiclip>
              </clipitem>
              <clipitem id="cs-770">
                <duration>170</duration>
                <rate>
                  <ntsc>false</ntsc>
                  <timebase>25</timebase>
                </rate>
                <in>54305</in>
                <out>54474</out>
                <start>54305</start>
                <end>54474</end>
                <file id="src-2"/>
                <sourcetrack>
                  <mediatype>video</mediatype>
                  <trackindex>1</trackindex>
                </sourcetrack>
                <multiclip id="mcs-770">
                  <name>MCS-770</name>
                  <masterclipid>clip-master</masterclipid>
                  <collapsed>false</collapsed>
                  <angle>
                    <activevideoangle>false</activevideoangle>
                    <activeaudioangle>false</activeaudioangle>
                    <clip id="clip-1"/>
                  </angle>
                  <angle>
                    <activevideoangle>true</activevideoangle>
                    <activeaudioangle>true</activeaudioangle>
                    <clip id="clip-2"/>
                  </angle>
                  <angle>
                    <activevideoangle>false</activevideoangle>
                    <activeaudioangle>false</activeaudioangle>
                    <clip id="clip-3"/>
                  </angle>
                  <angle>
                    <activevideoangle>false</activevideoangle>
                    <activeaudioangle>false</activeaudioangle>
                    <clip id="clip-4"/>
                  </angle>
                  <angle>
                    <activevideoangle>false</activevideoangle>
                    <activeaudioangle>false</activeaudioangle>
                    <clip id="clip-5"/>
                  </angle>
                  <angle>
                    <activevideoangle>false</activevideoangle>
                    <activeaudioangle>false</activeaudioangle>
                    <clip id="clip-6"/>
                  </angle>
                  <angle>
                    <activevideoangle>false</activevideoangle>
                    <activeaudioangle>false</activeaudioangle>
                    <clip id="clip-7"/>
                  </angle>
                  <angle>
                    <activevideoangle>false</activevideoangle>
                    <activeaudioangle>false</activeaudioangle>
                    <clip id="clip-8"/>
                  </angle>
                  <angle>
                    <activevideoangle>false</activevideoangle>
                    <activeaudioangle>false</activeaudioangle>
                    <clip id="clip-9"/>
                  </angle>
                  <masterclipid>clip-master</masterclipid>
                </multiclip>
              </clipitem>
              <clipitem id="cs-771">
                <duration>76</duration>
                <rate>
                  <ntsc>false</ntsc>
                  <timebase>25</timebase>
                </rate>
                <in>54474</in>
                <out>54549</out>
                <start>54474</start>
                <end>54549</end>
                <file id="src-5"/>
                <sourcetrack>
                  <mediatype>video</mediatype>
                  <trackindex>1</trackindex>
                </sourcetrack>
                <multiclip id="mcs-771">
                  <name>MCS-771</name>
                  <masterclipid>clip-master</masterclipid>
                  <collapsed>false</collapsed>
                  <angle>
                    <activevideoangle>false</activevideoangle>
                    <activeaudioangle>false</activeaudioangle>
                    <clip id="clip-1"/>
                  </angle>
                  <angle>
                    <activevideoangle>false</activevideoangle>
                    <activeaudioangle>false</activeaudioangle>
                    <clip id="clip-2"/>
                  </angle>
                  <angle>
                    <activevideoangle>false</activevideoangle>
                    <activeaudioangle>false</activeaudioangle>
                    <clip id="clip-3"/>
                  </angle>
                  <angle>
                    <activevideoangle>false</activevideoangle>
                    <activeaudioangle>false</activeaudioangle>
                    <clip id="clip-4"/>
                  </angle>
                  <angle>
                    <activevideoangle>true</activevideoangle>
                    <activeaudioangle>true</activeaudioangle>
                    <clip id="clip-5"/>
                  </angle>
                  <angle>
                    <activevideoangle>false</activevideoangle>
                    <activeaudioangle>false</activeaudioangle>
                    <clip id="clip-6"/>
                  </angle>
                  <angle>
                    <activevideoangle>false</activevideoangle>
                    <activeaudioangle>false</activeaudioangle>
                    <clip id="clip-7"/>
                  </angle>
                  <angle>
                    <activevideoangle>false</activevideoangle>
                    <activeaudioangle>false</activeaudioangle>
                    <clip id="clip-8"/>
                  </angle>
                  <angle>
                    <activevideoangle>false</activevideoangle>
                    <activeaudioangle>false</activeaudioangle>
                    <clip id="clip-9"/>
                  </angle>
                  <masterclipid>clip-master</masterclipid>
                </multiclip>
              </clipitem>
              <clipitem id="cs-772">
                <duration>66</duration>
                <rate>
                  <ntsc>false</ntsc>
                  <timebase>25</timebase>
                </rate>
                <in>54549</in>
                <out>54614</out>
                <start>54549</start>
                <end>54614</end>
                <file id="src-3"/>
                <sourcetrack>
                  <mediatype>video</mediatype>
                  <trackindex>1</trackindex>
                </sourcetrack>
                <multiclip id="mcs-772">
                  <name>MCS-772</name>
                  <masterclipid>clip-master</masterclipid>
                  <collapsed>false</collapsed>
                  <angle>
                    <activevideoangle>false</activevideoangle>
                    <activeaudioangle>false</activeaudioangle>
                    <clip id="clip-1"/>
                  </angle>
                  <angle>
                    <activevideoangle>false</activevideoangle>
                    <activeaudioangle>false</activeaudioangle>
                    <clip id="clip-2"/>
                  </angle>
                  <angle>
                    <activevideoangle>true</activevideoangle>
                    <activeaudioangle>true</activeaudioangle>
                    <clip id="clip-3"/>
                  </angle>
                  <angle>
                    <activevideoangle>false</activevideoangle>
                    <activeaudioangle>false</activeaudioangle>
                    <clip id="clip-4"/>
                  </angle>
                  <angle>
                    <activevideoangle>false</activevideoangle>
                    <activeaudioangle>false</activeaudioangle>
                    <clip id="clip-5"/>
                  </angle>
                  <angle>
                    <activevideoangle>false</activevideoangle>
                    <activeaudioangle>false</activeaudioangle>
                    <clip id="clip-6"/>
                  </angle>
                  <angle>
                    <activevideoangle>false</activevideoangle>
                    <activeaudioangle>false</activeaudioangle>
                    <clip id="clip-7"/>
                  </angle>
                  <angle>
                    <activevideoangle>false</activevideoangle>
                    <activeaudioangle>false</activeaudioangle>
                    <clip id="clip-8"/>
                  </angle>
                  <angle>
                    <activevideoangle>false</activevideoangle>
                    <activeaudioangle>false</activeaudioangle>
                    <clip id="clip-9"/>
                  </angle>
                  <masterclipid>clip-master</masterclipid>
                </multiclip>
              </clipitem>
              <clipitem id="cs-773">
                <duration>112</duration>
                <rate>
                  <ntsc>false</ntsc>
                  <timebase>25</timebase>
                </rate>
                <in>54614</in>
                <out>54725</out>
                <start>54614</start>
                <end>54725</end>
                <file id="src-4"/>
                <sourcetrack>
                  <mediatype>video</mediatype>
                  <trackindex>1</trackindex>
                </sourcetrack>
                <multiclip id="mcs-773">
                  <name>MCS-773</name>
                  <masterclipid>clip-master</masterclipid>
                  <collapsed>false</collapsed>
                  <angle>
                    <activevideoangle>false</activevideoangle>
                    <activeaudioangle>false</activeaudioangle>
                    <clip id="clip-1"/>
                  </angle>
                  <angle>
                    <activevideoangle>false</activevideoangle>
                    <activeaudioangle>false</activeaudioangle>
                    <clip id="clip-2"/>
                  </angle>
                  <angle>
                    <activevideoangle>false</activevideoangle>
                    <activeaudioangle>false</activeaudioangle>
                    <clip id="clip-3"/>
                  </angle>
                  <angle>
                    <activevideoangle>true</activevideoangle>
                    <activeaudioangle>true</activeaudioangle>
                    <clip id="clip-4"/>
                  </angle>
                  <angle>
                    <activevideoangle>false</activevideoangle>
                    <activeaudioangle>false</activeaudioangle>
                    <clip id="clip-5"/>
                  </angle>
                  <angle>
                    <activevideoangle>false</activevideoangle>
                    <activeaudioangle>false</activeaudioangle>
                    <clip id="clip-6"/>
                  </angle>
                  <angle>
                    <activevideoangle>false</activevideoangle>
                    <activeaudioangle>false</activeaudioangle>
                    <clip id="clip-7"/>
                  </angle>
                  <angle>
                    <activevideoangle>false</activevideoangle>
                    <activeaudioangle>false</activeaudioangle>
                    <clip id="clip-8"/>
                  </angle>
                  <angle>
                    <activevideoangle>false</activevideoangle>
                    <activeaudioangle>false</activeaudioangle>
                    <clip id="clip-9"/>
                  </angle>
                  <masterclipid>clip-master</masterclipid>
                </multiclip>
              </clipitem>
              <clipitem id="cs-774">
                <duration>108</duration>
                <rate>
                  <ntsc>false</ntsc>
                  <timebase>25</timebase>
                </rate>
                <in>54725</in>
                <out>54832</out>
                <start>54725</start>
                <end>54832</end>
                <file id="src-1"/>
                <sourcetrack>
                  <mediatype>video</mediatype>
                  <trackindex>1</trackindex>
                </sourcetrack>
                <multiclip id="mcs-774">
                  <name>MCS-774</name>
                  <masterclipid>clip-master</masterclipid>
                  <collapsed>false</collapsed>
                  <angle>
                    <activevideoangle>true</activevideoangle>
                    <activeaudioangle>true</activeaudioangle>
                    <clip id="clip-1"/>
                  </angle>
                  <angle>
                    <activevideoangle>false</activevideoangle>
                    <activeaudioangle>false</activeaudioangle>
                    <clip id="clip-2"/>
                  </angle>
                  <angle>
                    <activevideoangle>false</activevideoangle>
                    <activeaudioangle>false</activeaudioangle>
                    <clip id="clip-3"/>
                  </angle>
                  <angle>
                    <activevideoangle>false</activevideoangle>
                    <activeaudioangle>false</activeaudioangle>
                    <clip id="clip-4"/>
                  </angle>
                  <angle>
                    <activevideoangle>false</activevideoangle>
                    <activeaudioangle>false</activeaudioangle>
                    <clip id="clip-5"/>
                  </angle>
                  <angle>
                    <activevideoangle>false</activevideoangle>
                    <activeaudioangle>false</activeaudioangle>
                    <clip id="clip-6"/>
                  </angle>
                  <angle>
                    <activevideoangle>false</activevideoangle>
                    <activeaudioangle>false</activeaudioangle>
                    <clip id="clip-7"/>
                  </angle>
                  <angle>
                    <activevideoangle>false</activevideoangle>
                    <activeaudioangle>false</activeaudioangle>
                    <clip id="clip-8"/>
                  </angle>
                  <angle>
                    <activevideoangle>false</activevideoangle>
                    <activeaudioangle>false</activeaudioangle>
                    <clip id="clip-9"/>
                  </angle>
                  <masterclipid>clip-master</masterclipid>
                </multiclip>
              </clipitem>
              <clipitem id="cs-775">
                <duration>69</duration>
                <rate>
                  <ntsc>false</ntsc>
                  <timebase>25</timebase>
                </rate>
                <in>54832</in>
                <out>54900</out>
                <start>54832</start>
                <end>54900</end>
                <file id="src-3"/>
                <sourcetrack>
                  <mediatype>video</mediatype>
                  <trackindex>1</trackindex>
                </sourcetrack>
                <multiclip id="mcs-775">
                  <name>MCS-775</name>
                  <masterclipid>clip-master</masterclipid>
                  <collapsed>false</collapsed>
                  <angle>
                    <activevideoangle>false</activevideoangle>
                    <activeaudioangle>false</activeaudioangle>
                    <clip id="clip-1"/>
                  </angle>
                  <angle>
                    <activevideoangle>false</activevideoangle>
                    <activeaudioangle>false</activeaudioangle>
                    <clip id="clip-2"/>
                  </angle>
                  <angle>
                    <activevideoangle>true</activevideoangle>
                    <activeaudioangle>true</activeaudioangle>
                    <clip id="clip-3"/>
                  </angle>
                  <angle>
                    <activevideoangle>false</activevideoangle>
                    <activeaudioangle>false</activeaudioangle>
                    <clip id="clip-4"/>
                  </angle>
                  <angle>
                    <activevideoangle>false</activevideoangle>
                    <activeaudioangle>false</activeaudioangle>
                    <clip id="clip-5"/>
                  </angle>
                  <angle>
                    <activevideoangle>false</activevideoangle>
                    <activeaudioangle>false</activeaudioangle>
                    <clip id="clip-6"/>
                  </angle>
                  <angle>
                    <activevideoangle>false</activevideoangle>
                    <activeaudioangle>false</activeaudioangle>
                    <clip id="clip-7"/>
                  </angle>
                  <angle>
                    <activevideoangle>false</activevideoangle>
                    <activeaudioangle>false</activeaudioangle>
                    <clip id="clip-8"/>
                  </angle>
                  <angle>
                    <activevideoangle>false</activevideoangle>
                    <activeaudioangle>false</activeaudioangle>
                    <clip id="clip-9"/>
                  </angle>
                  <masterclipid>clip-master</masterclipid>
                </multiclip>
              </clipitem>
              <clipitem id="cs-776">
                <duration>87</duration>
                <rate>
                  <ntsc>false</ntsc>
                  <timebase>25</timebase>
                </rate>
                <in>54900</in>
                <out>54986</out>
                <start>54900</start>
                <end>54986</end>
                <file id="src-4"/>
                <sourcetrack>
                  <mediatype>video</mediatype>
                  <trackindex>1</trackindex>
                </sourcetrack>
                <multiclip id="mcs-776">
                  <name>MCS-776</name>
                  <masterclipid>clip-master</masterclipid>
                  <collapsed>false</collapsed>
                  <angle>
                    <activevideoangle>false</activevideoangle>
                    <activeaudioangle>false</activeaudioangle>
                    <clip id="clip-1"/>
                  </angle>
                  <angle>
                    <activevideoangle>false</activevideoangle>
                    <activeaudioangle>false</activeaudioangle>
                    <clip id="clip-2"/>
                  </angle>
                  <angle>
                    <activevideoangle>false</activevideoangle>
                    <activeaudioangle>false</activeaudioangle>
                    <clip id="clip-3"/>
                  </angle>
                  <angle>
                    <activevideoangle>true</activevideoangle>
                    <activeaudioangle>true</activeaudioangle>
                    <clip id="clip-4"/>
                  </angle>
                  <angle>
                    <activevideoangle>false</activevideoangle>
                    <activeaudioangle>false</activeaudioangle>
                    <clip id="clip-5"/>
                  </angle>
                  <angle>
                    <activevideoangle>false</activevideoangle>
                    <activeaudioangle>false</activeaudioangle>
                    <clip id="clip-6"/>
                  </angle>
                  <angle>
                    <activevideoangle>false</activevideoangle>
                    <activeaudioangle>false</activeaudioangle>
                    <clip id="clip-7"/>
                  </angle>
                  <angle>
                    <activevideoangle>false</activevideoangle>
                    <activeaudioangle>false</activeaudioangle>
                    <clip id="clip-8"/>
                  </angle>
                  <angle>
                    <activevideoangle>false</activevideoangle>
                    <activeaudioangle>false</activeaudioangle>
                    <clip id="clip-9"/>
                  </angle>
                  <masterclipid>clip-master</masterclipid>
                </multiclip>
              </clipitem>
              <clipitem id="cs-777">
                <duration>74</duration>
                <rate>
                  <ntsc>false</ntsc>
                  <timebase>25</timebase>
                </rate>
                <in>54986</in>
                <out>55059</out>
                <start>54986</start>
                <end>55059</end>
                <file id="src-2"/>
                <sourcetrack>
                  <mediatype>video</mediatype>
                  <trackindex>1</trackindex>
                </sourcetrack>
                <multiclip id="mcs-777">
                  <name>MCS-777</name>
                  <masterclipid>clip-master</masterclipid>
                  <collapsed>false</collapsed>
                  <angle>
                    <activevideoangle>false</activevideoangle>
                    <activeaudioangle>false</activeaudioangle>
                    <clip id="clip-1"/>
                  </angle>
                  <angle>
                    <activevideoangle>true</activevideoangle>
                    <activeaudioangle>true</activeaudioangle>
                    <clip id="clip-2"/>
                  </angle>
                  <angle>
                    <activevideoangle>false</activevideoangle>
                    <activeaudioangle>false</activeaudioangle>
                    <clip id="clip-3"/>
                  </angle>
                  <angle>
                    <activevideoangle>false</activevideoangle>
                    <activeaudioangle>false</activeaudioangle>
                    <clip id="clip-4"/>
                  </angle>
                  <angle>
                    <activevideoangle>false</activevideoangle>
                    <activeaudioangle>false</activeaudioangle>
                    <clip id="clip-5"/>
                  </angle>
                  <angle>
                    <activevideoangle>false</activevideoangle>
                    <activeaudioangle>false</activeaudioangle>
                    <clip id="clip-6"/>
                  </angle>
                  <angle>
                    <activevideoangle>false</activevideoangle>
                    <activeaudioangle>false</activeaudioangle>
                    <clip id="clip-7"/>
                  </angle>
                  <angle>
                    <activevideoangle>false</activevideoangle>
                    <activeaudioangle>false</activeaudioangle>
                    <clip id="clip-8"/>
                  </angle>
                  <angle>
                    <activevideoangle>false</activevideoangle>
                    <activeaudioangle>false</activeaudioangle>
                    <clip id="clip-9"/>
                  </angle>
                  <masterclipid>clip-master</masterclipid>
                </multiclip>
              </clipitem>
              <clipitem id="cs-778">
                <duration>126</duration>
                <rate>
                  <ntsc>false</ntsc>
                  <timebase>25</timebase>
                </rate>
                <in>55059</in>
                <out>55184</out>
                <start>55059</start>
                <end>55184</end>
                <file id="src-1"/>
                <sourcetrack>
                  <mediatype>video</mediatype>
                  <trackindex>1</trackindex>
                </sourcetrack>
                <multiclip id="mcs-778">
                  <name>MCS-778</name>
                  <masterclipid>clip-master</masterclipid>
                  <collapsed>false</collapsed>
                  <angle>
                    <activevideoangle>true</activevideoangle>
                    <activeaudioangle>true</activeaudioangle>
                    <clip id="clip-1"/>
                  </angle>
                  <angle>
                    <activevideoangle>false</activevideoangle>
                    <activeaudioangle>false</activeaudioangle>
                    <clip id="clip-2"/>
                  </angle>
                  <angle>
                    <activevideoangle>false</activevideoangle>
                    <activeaudioangle>false</activeaudioangle>
                    <clip id="clip-3"/>
                  </angle>
                  <angle>
                    <activevideoangle>false</activevideoangle>
                    <activeaudioangle>false</activeaudioangle>
                    <clip id="clip-4"/>
                  </angle>
                  <angle>
                    <activevideoangle>false</activevideoangle>
                    <activeaudioangle>false</activeaudioangle>
                    <clip id="clip-5"/>
                  </angle>
                  <angle>
                    <activevideoangle>false</activevideoangle>
                    <activeaudioangle>false</activeaudioangle>
                    <clip id="clip-6"/>
                  </angle>
                  <angle>
                    <activevideoangle>false</activevideoangle>
                    <activeaudioangle>false</activeaudioangle>
                    <clip id="clip-7"/>
                  </angle>
                  <angle>
                    <activevideoangle>false</activevideoangle>
                    <activeaudioangle>false</activeaudioangle>
                    <clip id="clip-8"/>
                  </angle>
                  <angle>
                    <activevideoangle>false</activevideoangle>
                    <activeaudioangle>false</activeaudioangle>
                    <clip id="clip-9"/>
                  </angle>
                  <masterclipid>clip-master</masterclipid>
                </multiclip>
              </clipitem>
              <clipitem id="cs-779">
                <duration>51</duration>
                <rate>
                  <ntsc>false</ntsc>
                  <timebase>25</timebase>
                </rate>
                <in>55184</in>
                <out>55234</out>
                <start>55184</start>
                <end>55234</end>
                <file id="src-3"/>
                <sourcetrack>
                  <mediatype>video</mediatype>
                  <trackindex>1</trackindex>
                </sourcetrack>
                <multiclip id="mcs-779">
                  <name>MCS-779</name>
                  <masterclipid>clip-master</masterclipid>
                  <collapsed>false</collapsed>
                  <angle>
                    <activevideoangle>false</activevideoangle>
                    <activeaudioangle>false</activeaudioangle>
                    <clip id="clip-1"/>
                  </angle>
                  <angle>
                    <activevideoangle>false</activevideoangle>
                    <activeaudioangle>false</activeaudioangle>
                    <clip id="clip-2"/>
                  </angle>
                  <angle>
                    <activevideoangle>true</activevideoangle>
                    <activeaudioangle>true</activeaudioangle>
                    <clip id="clip-3"/>
                  </angle>
                  <angle>
                    <activevideoangle>false</activevideoangle>
                    <activeaudioangle>false</activeaudioangle>
                    <clip id="clip-4"/>
                  </angle>
                  <angle>
                    <activevideoangle>false</activevideoangle>
                    <activeaudioangle>false</activeaudioangle>
                    <clip id="clip-5"/>
                  </angle>
                  <angle>
                    <activevideoangle>false</activevideoangle>
                    <activeaudioangle>false</activeaudioangle>
                    <clip id="clip-6"/>
                  </angle>
                  <angle>
                    <activevideoangle>false</activevideoangle>
                    <activeaudioangle>false</activeaudioangle>
                    <clip id="clip-7"/>
                  </angle>
                  <angle>
                    <activevideoangle>false</activevideoangle>
                    <activeaudioangle>false</activeaudioangle>
                    <clip id="clip-8"/>
                  </angle>
                  <angle>
                    <activevideoangle>false</activevideoangle>
                    <activeaudioangle>false</activeaudioangle>
                    <clip id="clip-9"/>
                  </angle>
                  <masterclipid>clip-master</masterclipid>
                </multiclip>
              </clipitem>
              <clipitem id="cs-780">
                <duration>104</duration>
                <rate>
                  <ntsc>false</ntsc>
                  <timebase>25</timebase>
                </rate>
                <in>55234</in>
                <out>55337</out>
                <start>55234</start>
                <end>55337</end>
                <file id="src-4"/>
                <sourcetrack>
                  <mediatype>video</mediatype>
                  <trackindex>1</trackindex>
                </sourcetrack>
                <multiclip id="mcs-780">
                  <name>MCS-780</name>
                  <masterclipid>clip-master</masterclipid>
                  <collapsed>false</collapsed>
                  <angle>
                    <activevideoangle>false</activevideoangle>
                    <activeaudioangle>false</activeaudioangle>
                    <clip id="clip-1"/>
                  </angle>
                  <angle>
                    <activevideoangle>false</activevideoangle>
                    <activeaudioangle>false</activeaudioangle>
                    <clip id="clip-2"/>
                  </angle>
                  <angle>
                    <activevideoangle>false</activevideoangle>
                    <activeaudioangle>false</activeaudioangle>
                    <clip id="clip-3"/>
                  </angle>
                  <angle>
                    <activevideoangle>true</activevideoangle>
                    <activeaudioangle>true</activeaudioangle>
                    <clip id="clip-4"/>
                  </angle>
                  <angle>
                    <activevideoangle>false</activevideoangle>
                    <activeaudioangle>false</activeaudioangle>
                    <clip id="clip-5"/>
                  </angle>
                  <angle>
                    <activevideoangle>false</activevideoangle>
                    <activeaudioangle>false</activeaudioangle>
                    <clip id="clip-6"/>
                  </angle>
                  <angle>
                    <activevideoangle>false</activevideoangle>
                    <activeaudioangle>false</activeaudioangle>
                    <clip id="clip-7"/>
                  </angle>
                  <angle>
                    <activevideoangle>false</activevideoangle>
                    <activeaudioangle>false</activeaudioangle>
                    <clip id="clip-8"/>
                  </angle>
                  <angle>
                    <activevideoangle>false</activevideoangle>
                    <activeaudioangle>false</activeaudioangle>
                    <clip id="clip-9"/>
                  </angle>
                  <masterclipid>clip-master</masterclipid>
                </multiclip>
              </clipitem>
              <clipitem id="cs-781">
                <duration>99</duration>
                <rate>
                  <ntsc>false</ntsc>
                  <timebase>25</timebase>
                </rate>
                <in>55337</in>
                <out>55435</out>
                <start>55337</start>
                <end>55435</end>
                <file id="src-3"/>
                <sourcetrack>
                  <mediatype>video</mediatype>
                  <trackindex>1</trackindex>
                </sourcetrack>
                <multiclip id="mcs-781">
                  <name>MCS-781</name>
                  <masterclipid>clip-master</masterclipid>
                  <collapsed>false</collapsed>
                  <angle>
                    <activevideoangle>false</activevideoangle>
                    <activeaudioangle>false</activeaudioangle>
                    <clip id="clip-1"/>
                  </angle>
                  <angle>
                    <activevideoangle>false</activevideoangle>
                    <activeaudioangle>false</activeaudioangle>
                    <clip id="clip-2"/>
                  </angle>
                  <angle>
                    <activevideoangle>true</activevideoangle>
                    <activeaudioangle>true</activeaudioangle>
                    <clip id="clip-3"/>
                  </angle>
                  <angle>
                    <activevideoangle>false</activevideoangle>
                    <activeaudioangle>false</activeaudioangle>
                    <clip id="clip-4"/>
                  </angle>
                  <angle>
                    <activevideoangle>false</activevideoangle>
                    <activeaudioangle>false</activeaudioangle>
                    <clip id="clip-5"/>
                  </angle>
                  <angle>
                    <activevideoangle>false</activevideoangle>
                    <activeaudioangle>false</activeaudioangle>
                    <clip id="clip-6"/>
                  </angle>
                  <angle>
                    <activevideoangle>false</activevideoangle>
                    <activeaudioangle>false</activeaudioangle>
                    <clip id="clip-7"/>
                  </angle>
                  <angle>
                    <activevideoangle>false</activevideoangle>
                    <activeaudioangle>false</activeaudioangle>
                    <clip id="clip-8"/>
                  </angle>
                  <angle>
                    <activevideoangle>false</activevideoangle>
                    <activeaudioangle>false</activeaudioangle>
                    <clip id="clip-9"/>
                  </angle>
                  <masterclipid>clip-master</masterclipid>
                </multiclip>
              </clipitem>
              <clipitem id="cs-782">
                <duration>147</duration>
                <rate>
                  <ntsc>false</ntsc>
                  <timebase>25</timebase>
                </rate>
                <in>55435</in>
                <out>55581</out>
                <start>55435</start>
                <end>55581</end>
                <file id="src-2"/>
                <sourcetrack>
                  <mediatype>video</mediatype>
                  <trackindex>1</trackindex>
                </sourcetrack>
                <multiclip id="mcs-782">
                  <name>MCS-782</name>
                  <masterclipid>clip-master</masterclipid>
                  <collapsed>false</collapsed>
                  <angle>
                    <activevideoangle>false</activevideoangle>
                    <activeaudioangle>false</activeaudioangle>
                    <clip id="clip-1"/>
                  </angle>
                  <angle>
                    <activevideoangle>true</activevideoangle>
                    <activeaudioangle>true</activeaudioangle>
                    <clip id="clip-2"/>
                  </angle>
                  <angle>
                    <activevideoangle>false</activevideoangle>
                    <activeaudioangle>false</activeaudioangle>
                    <clip id="clip-3"/>
                  </angle>
                  <angle>
                    <activevideoangle>false</activevideoangle>
                    <activeaudioangle>false</activeaudioangle>
                    <clip id="clip-4"/>
                  </angle>
                  <angle>
                    <activevideoangle>false</activevideoangle>
                    <activeaudioangle>false</activeaudioangle>
                    <clip id="clip-5"/>
                  </angle>
                  <angle>
                    <activevideoangle>false</activevideoangle>
                    <activeaudioangle>false</activeaudioangle>
                    <clip id="clip-6"/>
                  </angle>
                  <angle>
                    <activevideoangle>false</activevideoangle>
                    <activeaudioangle>false</activeaudioangle>
                    <clip id="clip-7"/>
                  </angle>
                  <angle>
                    <activevideoangle>false</activevideoangle>
                    <activeaudioangle>false</activeaudioangle>
                    <clip id="clip-8"/>
                  </angle>
                  <angle>
                    <activevideoangle>false</activevideoangle>
                    <activeaudioangle>false</activeaudioangle>
                    <clip id="clip-9"/>
                  </angle>
                  <masterclipid>clip-master</masterclipid>
                </multiclip>
              </clipitem>
              <clipitem id="cs-783">
                <duration>54</duration>
                <rate>
                  <ntsc>false</ntsc>
                  <timebase>25</timebase>
                </rate>
                <in>55581</in>
                <out>55634</out>
                <start>55581</start>
                <end>55634</end>
                <file id="src-6"/>
                <sourcetrack>
                  <mediatype>video</mediatype>
                  <trackindex>1</trackindex>
                </sourcetrack>
                <multiclip id="mcs-783">
                  <name>MCS-783</name>
                  <masterclipid>clip-master</masterclipid>
                  <collapsed>false</collapsed>
                  <angle>
                    <activevideoangle>false</activevideoangle>
                    <activeaudioangle>false</activeaudioangle>
                    <clip id="clip-1"/>
                  </angle>
                  <angle>
                    <activevideoangle>false</activevideoangle>
                    <activeaudioangle>false</activeaudioangle>
                    <clip id="clip-2"/>
                  </angle>
                  <angle>
                    <activevideoangle>false</activevideoangle>
                    <activeaudioangle>false</activeaudioangle>
                    <clip id="clip-3"/>
                  </angle>
                  <angle>
                    <activevideoangle>false</activevideoangle>
                    <activeaudioangle>false</activeaudioangle>
                    <clip id="clip-4"/>
                  </angle>
                  <angle>
                    <activevideoangle>false</activevideoangle>
                    <activeaudioangle>false</activeaudioangle>
                    <clip id="clip-5"/>
                  </angle>
                  <angle>
                    <activevideoangle>true</activevideoangle>
                    <activeaudioangle>true</activeaudioangle>
                    <clip id="clip-6"/>
                  </angle>
                  <angle>
                    <activevideoangle>false</activevideoangle>
                    <activeaudioangle>false</activeaudioangle>
                    <clip id="clip-7"/>
                  </angle>
                  <angle>
                    <activevideoangle>false</activevideoangle>
                    <activeaudioangle>false</activeaudioangle>
                    <clip id="clip-8"/>
                  </angle>
                  <angle>
                    <activevideoangle>false</activevideoangle>
                    <activeaudioangle>false</activeaudioangle>
                    <clip id="clip-9"/>
                  </angle>
                  <masterclipid>clip-master</masterclipid>
                </multiclip>
              </clipitem>
              <clipitem id="cs-784">
                <duration>68</duration>
                <rate>
                  <ntsc>false</ntsc>
                  <timebase>25</timebase>
                </rate>
                <in>55634</in>
                <out>55701</out>
                <start>55634</start>
                <end>55701</end>
                <file id="src-5"/>
                <sourcetrack>
                  <mediatype>video</mediatype>
                  <trackindex>1</trackindex>
                </sourcetrack>
                <multiclip id="mcs-784">
                  <name>MCS-784</name>
                  <masterclipid>clip-master</masterclipid>
                  <collapsed>false</collapsed>
                  <angle>
                    <activevideoangle>false</activevideoangle>
                    <activeaudioangle>false</activeaudioangle>
                    <clip id="clip-1"/>
                  </angle>
                  <angle>
                    <activevideoangle>false</activevideoangle>
                    <activeaudioangle>false</activeaudioangle>
                    <clip id="clip-2"/>
                  </angle>
                  <angle>
                    <activevideoangle>false</activevideoangle>
                    <activeaudioangle>false</activeaudioangle>
                    <clip id="clip-3"/>
                  </angle>
                  <angle>
                    <activevideoangle>false</activevideoangle>
                    <activeaudioangle>false</activeaudioangle>
                    <clip id="clip-4"/>
                  </angle>
                  <angle>
                    <activevideoangle>true</activevideoangle>
                    <activeaudioangle>true</activeaudioangle>
                    <clip id="clip-5"/>
                  </angle>
                  <angle>
                    <activevideoangle>false</activevideoangle>
                    <activeaudioangle>false</activeaudioangle>
                    <clip id="clip-6"/>
                  </angle>
                  <angle>
                    <activevideoangle>false</activevideoangle>
                    <activeaudioangle>false</activeaudioangle>
                    <clip id="clip-7"/>
                  </angle>
                  <angle>
                    <activevideoangle>false</activevideoangle>
                    <activeaudioangle>false</activeaudioangle>
                    <clip id="clip-8"/>
                  </angle>
                  <angle>
                    <activevideoangle>false</activevideoangle>
                    <activeaudioangle>false</activeaudioangle>
                    <clip id="clip-9"/>
                  </angle>
                  <masterclipid>clip-master</masterclipid>
                </multiclip>
              </clipitem>
              <clipitem id="cs-785">
                <duration>62</duration>
                <rate>
                  <ntsc>false</ntsc>
                  <timebase>25</timebase>
                </rate>
                <in>55701</in>
                <out>55762</out>
                <start>55701</start>
                <end>55762</end>
                <file id="src-4"/>
                <sourcetrack>
                  <mediatype>video</mediatype>
                  <trackindex>1</trackindex>
                </sourcetrack>
                <multiclip id="mcs-785">
                  <name>MCS-785</name>
                  <masterclipid>clip-master</masterclipid>
                  <collapsed>false</collapsed>
                  <angle>
                    <activevideoangle>false</activevideoangle>
                    <activeaudioangle>false</activeaudioangle>
                    <clip id="clip-1"/>
                  </angle>
                  <angle>
                    <activevideoangle>false</activevideoangle>
                    <activeaudioangle>false</activeaudioangle>
                    <clip id="clip-2"/>
                  </angle>
                  <angle>
                    <activevideoangle>false</activevideoangle>
                    <activeaudioangle>false</activeaudioangle>
                    <clip id="clip-3"/>
                  </angle>
                  <angle>
                    <activevideoangle>true</activevideoangle>
                    <activeaudioangle>true</activeaudioangle>
                    <clip id="clip-4"/>
                  </angle>
                  <angle>
                    <activevideoangle>false</activevideoangle>
                    <activeaudioangle>false</activeaudioangle>
                    <clip id="clip-5"/>
                  </angle>
                  <angle>
                    <activevideoangle>false</activevideoangle>
                    <activeaudioangle>false</activeaudioangle>
                    <clip id="clip-6"/>
                  </angle>
                  <angle>
                    <activevideoangle>false</activevideoangle>
                    <activeaudioangle>false</activeaudioangle>
                    <clip id="clip-7"/>
                  </angle>
                  <angle>
                    <activevideoangle>false</activevideoangle>
                    <activeaudioangle>false</activeaudioangle>
                    <clip id="clip-8"/>
                  </angle>
                  <angle>
                    <activevideoangle>false</activevideoangle>
                    <activeaudioangle>false</activeaudioangle>
                    <clip id="clip-9"/>
                  </angle>
                  <masterclipid>clip-master</masterclipid>
                </multiclip>
              </clipitem>
              <clipitem id="cs-786">
                <duration>106</duration>
                <rate>
                  <ntsc>false</ntsc>
                  <timebase>25</timebase>
                </rate>
                <in>55762</in>
                <out>55867</out>
                <start>55762</start>
                <end>55867</end>
                <file id="src-7"/>
                <sourcetrack>
                  <mediatype>video</mediatype>
                  <trackindex>1</trackindex>
                </sourcetrack>
                <multiclip id="mcs-786">
                  <name>MCS-786</name>
                  <masterclipid>clip-master</masterclipid>
                  <collapsed>false</collapsed>
                  <angle>
                    <activevideoangle>false</activevideoangle>
                    <activeaudioangle>false</activeaudioangle>
                    <clip id="clip-1"/>
                  </angle>
                  <angle>
                    <activevideoangle>false</activevideoangle>
                    <activeaudioangle>false</activeaudioangle>
                    <clip id="clip-2"/>
                  </angle>
                  <angle>
                    <activevideoangle>false</activevideoangle>
                    <activeaudioangle>false</activeaudioangle>
                    <clip id="clip-3"/>
                  </angle>
                  <angle>
                    <activevideoangle>false</activevideoangle>
                    <activeaudioangle>false</activeaudioangle>
                    <clip id="clip-4"/>
                  </angle>
                  <angle>
                    <activevideoangle>false</activevideoangle>
                    <activeaudioangle>false</activeaudioangle>
                    <clip id="clip-5"/>
                  </angle>
                  <angle>
                    <activevideoangle>false</activevideoangle>
                    <activeaudioangle>false</activeaudioangle>
                    <clip id="clip-6"/>
                  </angle>
                  <angle>
                    <activevideoangle>true</activevideoangle>
                    <activeaudioangle>true</activeaudioangle>
                    <clip id="clip-7"/>
                  </angle>
                  <angle>
                    <activevideoangle>false</activevideoangle>
                    <activeaudioangle>false</activeaudioangle>
                    <clip id="clip-8"/>
                  </angle>
                  <angle>
                    <activevideoangle>false</activevideoangle>
                    <activeaudioangle>false</activeaudioangle>
                    <clip id="clip-9"/>
                  </angle>
                  <masterclipid>clip-master</masterclipid>
                </multiclip>
              </clipitem>
              <clipitem id="cs-787">
                <duration>109</duration>
                <rate>
                  <ntsc>false</ntsc>
                  <timebase>25</timebase>
                </rate>
                <in>55867</in>
                <out>55975</out>
                <start>55867</start>
                <end>55975</end>
                <file id="src-4"/>
                <sourcetrack>
                  <mediatype>video</mediatype>
                  <trackindex>1</trackindex>
                </sourcetrack>
                <multiclip id="mcs-787">
                  <name>MCS-787</name>
                  <masterclipid>clip-master</masterclipid>
                  <collapsed>false</collapsed>
                  <angle>
                    <activevideoangle>false</activevideoangle>
                    <activeaudioangle>false</activeaudioangle>
                    <clip id="clip-1"/>
                  </angle>
                  <angle>
                    <activevideoangle>false</activevideoangle>
                    <activeaudioangle>false</activeaudioangle>
                    <clip id="clip-2"/>
                  </angle>
                  <angle>
                    <activevideoangle>false</activevideoangle>
                    <activeaudioangle>false</activeaudioangle>
                    <clip id="clip-3"/>
                  </angle>
                  <angle>
                    <activevideoangle>true</activevideoangle>
                    <activeaudioangle>true</activeaudioangle>
                    <clip id="clip-4"/>
                  </angle>
                  <angle>
                    <activevideoangle>false</activevideoangle>
                    <activeaudioangle>false</activeaudioangle>
                    <clip id="clip-5"/>
                  </angle>
                  <angle>
                    <activevideoangle>false</activevideoangle>
                    <activeaudioangle>false</activeaudioangle>
                    <clip id="clip-6"/>
                  </angle>
                  <angle>
                    <activevideoangle>false</activevideoangle>
                    <activeaudioangle>false</activeaudioangle>
                    <clip id="clip-7"/>
                  </angle>
                  <angle>
                    <activevideoangle>false</activevideoangle>
                    <activeaudioangle>false</activeaudioangle>
                    <clip id="clip-8"/>
                  </angle>
                  <angle>
                    <activevideoangle>false</activevideoangle>
                    <activeaudioangle>false</activeaudioangle>
                    <clip id="clip-9"/>
                  </angle>
                  <masterclipid>clip-master</masterclipid>
                </multiclip>
              </clipitem>
              <clipitem id="cs-788">
                <duration>90</duration>
                <rate>
                  <ntsc>false</ntsc>
                  <timebase>25</timebase>
                </rate>
                <in>55975</in>
                <out>56064</out>
                <start>55975</start>
                <end>56064</end>
                <file id="src-3"/>
                <sourcetrack>
                  <mediatype>video</mediatype>
                  <trackindex>1</trackindex>
                </sourcetrack>
                <multiclip id="mcs-788">
                  <name>MCS-788</name>
                  <masterclipid>clip-master</masterclipid>
                  <collapsed>false</collapsed>
                  <angle>
                    <activevideoangle>false</activevideoangle>
                    <activeaudioangle>false</activeaudioangle>
                    <clip id="clip-1"/>
                  </angle>
                  <angle>
                    <activevideoangle>false</activevideoangle>
                    <activeaudioangle>false</activeaudioangle>
                    <clip id="clip-2"/>
                  </angle>
                  <angle>
                    <activevideoangle>true</activevideoangle>
                    <activeaudioangle>true</activeaudioangle>
                    <clip id="clip-3"/>
                  </angle>
                  <angle>
                    <activevideoangle>false</activevideoangle>
                    <activeaudioangle>false</activeaudioangle>
                    <clip id="clip-4"/>
                  </angle>
                  <angle>
                    <activevideoangle>false</activevideoangle>
                    <activeaudioangle>false</activeaudioangle>
                    <clip id="clip-5"/>
                  </angle>
                  <angle>
                    <activevideoangle>false</activevideoangle>
                    <activeaudioangle>false</activeaudioangle>
                    <clip id="clip-6"/>
                  </angle>
                  <angle>
                    <activevideoangle>false</activevideoangle>
                    <activeaudioangle>false</activeaudioangle>
                    <clip id="clip-7"/>
                  </angle>
                  <angle>
                    <activevideoangle>false</activevideoangle>
                    <activeaudioangle>false</activeaudioangle>
                    <clip id="clip-8"/>
                  </angle>
                  <angle>
                    <activevideoangle>false</activevideoangle>
                    <activeaudioangle>false</activeaudioangle>
                    <clip id="clip-9"/>
                  </angle>
                  <masterclipid>clip-master</masterclipid>
                </multiclip>
              </clipitem>
              <clipitem id="cs-789">
                <duration>201</duration>
                <rate>
                  <ntsc>false</ntsc>
                  <timebase>25</timebase>
                </rate>
                <in>56064</in>
                <out>56264</out>
                <start>56064</start>
                <end>56264</end>
                <file id="src-2"/>
                <sourcetrack>
                  <mediatype>video</mediatype>
                  <trackindex>1</trackindex>
                </sourcetrack>
                <multiclip id="mcs-789">
                  <name>MCS-789</name>
                  <masterclipid>clip-master</masterclipid>
                  <collapsed>false</collapsed>
                  <angle>
                    <activevideoangle>false</activevideoangle>
                    <activeaudioangle>false</activeaudioangle>
                    <clip id="clip-1"/>
                  </angle>
                  <angle>
                    <activevideoangle>true</activevideoangle>
                    <activeaudioangle>true</activeaudioangle>
                    <clip id="clip-2"/>
                  </angle>
                  <angle>
                    <activevideoangle>false</activevideoangle>
                    <activeaudioangle>false</activeaudioangle>
                    <clip id="clip-3"/>
                  </angle>
                  <angle>
                    <activevideoangle>false</activevideoangle>
                    <activeaudioangle>false</activeaudioangle>
                    <clip id="clip-4"/>
                  </angle>
                  <angle>
                    <activevideoangle>false</activevideoangle>
                    <activeaudioangle>false</activeaudioangle>
                    <clip id="clip-5"/>
                  </angle>
                  <angle>
                    <activevideoangle>false</activevideoangle>
                    <activeaudioangle>false</activeaudioangle>
                    <clip id="clip-6"/>
                  </angle>
                  <angle>
                    <activevideoangle>false</activevideoangle>
                    <activeaudioangle>false</activeaudioangle>
                    <clip id="clip-7"/>
                  </angle>
                  <angle>
                    <activevideoangle>false</activevideoangle>
                    <activeaudioangle>false</activeaudioangle>
                    <clip id="clip-8"/>
                  </angle>
                  <angle>
                    <activevideoangle>false</activevideoangle>
                    <activeaudioangle>false</activeaudioangle>
                    <clip id="clip-9"/>
                  </angle>
                  <masterclipid>clip-master</masterclipid>
                </multiclip>
              </clipitem>
              <clipitem id="cs-790">
                <duration>46</duration>
                <rate>
                  <ntsc>false</ntsc>
                  <timebase>25</timebase>
                </rate>
                <in>56264</in>
                <out>56309</out>
                <start>56264</start>
                <end>56309</end>
                <file id="src-3"/>
                <sourcetrack>
                  <mediatype>video</mediatype>
                  <trackindex>1</trackindex>
                </sourcetrack>
                <multiclip id="mcs-790">
                  <name>MCS-790</name>
                  <masterclipid>clip-master</masterclipid>
                  <collapsed>false</collapsed>
                  <angle>
                    <activevideoangle>false</activevideoangle>
                    <activeaudioangle>false</activeaudioangle>
                    <clip id="clip-1"/>
                  </angle>
                  <angle>
                    <activevideoangle>false</activevideoangle>
                    <activeaudioangle>false</activeaudioangle>
                    <clip id="clip-2"/>
                  </angle>
                  <angle>
                    <activevideoangle>true</activevideoangle>
                    <activeaudioangle>true</activeaudioangle>
                    <clip id="clip-3"/>
                  </angle>
                  <angle>
                    <activevideoangle>false</activevideoangle>
                    <activeaudioangle>false</activeaudioangle>
                    <clip id="clip-4"/>
                  </angle>
                  <angle>
                    <activevideoangle>false</activevideoangle>
                    <activeaudioangle>false</activeaudioangle>
                    <clip id="clip-5"/>
                  </angle>
                  <angle>
                    <activevideoangle>false</activevideoangle>
                    <activeaudioangle>false</activeaudioangle>
                    <clip id="clip-6"/>
                  </angle>
                  <angle>
                    <activevideoangle>false</activevideoangle>
                    <activeaudioangle>false</activeaudioangle>
                    <clip id="clip-7"/>
                  </angle>
                  <angle>
                    <activevideoangle>false</activevideoangle>
                    <activeaudioangle>false</activeaudioangle>
                    <clip id="clip-8"/>
                  </angle>
                  <angle>
                    <activevideoangle>false</activevideoangle>
                    <activeaudioangle>false</activeaudioangle>
                    <clip id="clip-9"/>
                  </angle>
                  <masterclipid>clip-master</masterclipid>
                </multiclip>
              </clipitem>
              <clipitem id="cs-791">
                <duration>140</duration>
                <rate>
                  <ntsc>false</ntsc>
                  <timebase>25</timebase>
                </rate>
                <in>56309</in>
                <out>56448</out>
                <start>56309</start>
                <end>56448</end>
                <file id="src-4"/>
                <sourcetrack>
                  <mediatype>video</mediatype>
                  <trackindex>1</trackindex>
                </sourcetrack>
                <multiclip id="mcs-791">
                  <name>MCS-791</name>
                  <masterclipid>clip-master</masterclipid>
                  <collapsed>false</collapsed>
                  <angle>
                    <activevideoangle>false</activevideoangle>
                    <activeaudioangle>false</activeaudioangle>
                    <clip id="clip-1"/>
                  </angle>
                  <angle>
                    <activevideoangle>false</activevideoangle>
                    <activeaudioangle>false</activeaudioangle>
                    <clip id="clip-2"/>
                  </angle>
                  <angle>
                    <activevideoangle>false</activevideoangle>
                    <activeaudioangle>false</activeaudioangle>
                    <clip id="clip-3"/>
                  </angle>
                  <angle>
                    <activevideoangle>true</activevideoangle>
                    <activeaudioangle>true</activeaudioangle>
                    <clip id="clip-4"/>
                  </angle>
                  <angle>
                    <activevideoangle>false</activevideoangle>
                    <activeaudioangle>false</activeaudioangle>
                    <clip id="clip-5"/>
                  </angle>
                  <angle>
                    <activevideoangle>false</activevideoangle>
                    <activeaudioangle>false</activeaudioangle>
                    <clip id="clip-6"/>
                  </angle>
                  <angle>
                    <activevideoangle>false</activevideoangle>
                    <activeaudioangle>false</activeaudioangle>
                    <clip id="clip-7"/>
                  </angle>
                  <angle>
                    <activevideoangle>false</activevideoangle>
                    <activeaudioangle>false</activeaudioangle>
                    <clip id="clip-8"/>
                  </angle>
                  <angle>
                    <activevideoangle>false</activevideoangle>
                    <activeaudioangle>false</activeaudioangle>
                    <clip id="clip-9"/>
                  </angle>
                  <masterclipid>clip-master</masterclipid>
                </multiclip>
              </clipitem>
              <clipitem id="cs-792">
                <duration>117</duration>
                <rate>
                  <ntsc>false</ntsc>
                  <timebase>25</timebase>
                </rate>
                <in>56448</in>
                <out>56564</out>
                <start>56448</start>
                <end>56564</end>
                <file id="src-6"/>
                <sourcetrack>
                  <mediatype>video</mediatype>
                  <trackindex>1</trackindex>
                </sourcetrack>
                <multiclip id="mcs-792">
                  <name>MCS-792</name>
                  <masterclipid>clip-master</masterclipid>
                  <collapsed>false</collapsed>
                  <angle>
                    <activevideoangle>false</activevideoangle>
                    <activeaudioangle>false</activeaudioangle>
                    <clip id="clip-1"/>
                  </angle>
                  <angle>
                    <activevideoangle>false</activevideoangle>
                    <activeaudioangle>false</activeaudioangle>
                    <clip id="clip-2"/>
                  </angle>
                  <angle>
                    <activevideoangle>false</activevideoangle>
                    <activeaudioangle>false</activeaudioangle>
                    <clip id="clip-3"/>
                  </angle>
                  <angle>
                    <activevideoangle>false</activevideoangle>
                    <activeaudioangle>false</activeaudioangle>
                    <clip id="clip-4"/>
                  </angle>
                  <angle>
                    <activevideoangle>false</activevideoangle>
                    <activeaudioangle>false</activeaudioangle>
                    <clip id="clip-5"/>
                  </angle>
                  <angle>
                    <activevideoangle>true</activevideoangle>
                    <activeaudioangle>true</activeaudioangle>
                    <clip id="clip-6"/>
                  </angle>
                  <angle>
                    <activevideoangle>false</activevideoangle>
                    <activeaudioangle>false</activeaudioangle>
                    <clip id="clip-7"/>
                  </angle>
                  <angle>
                    <activevideoangle>false</activevideoangle>
                    <activeaudioangle>false</activeaudioangle>
                    <clip id="clip-8"/>
                  </angle>
                  <angle>
                    <activevideoangle>false</activevideoangle>
                    <activeaudioangle>false</activeaudioangle>
                    <clip id="clip-9"/>
                  </angle>
                  <masterclipid>clip-master</masterclipid>
                </multiclip>
              </clipitem>
              <clipitem id="cs-793">
                <duration>160</duration>
                <rate>
                  <ntsc>false</ntsc>
                  <timebase>25</timebase>
                </rate>
                <in>56564</in>
                <out>56723</out>
                <start>56564</start>
                <end>56723</end>
                <file id="src-4"/>
                <sourcetrack>
                  <mediatype>video</mediatype>
                  <trackindex>1</trackindex>
                </sourcetrack>
                <multiclip id="mcs-793">
                  <name>MCS-793</name>
                  <masterclipid>clip-master</masterclipid>
                  <collapsed>false</collapsed>
                  <angle>
                    <activevideoangle>false</activevideoangle>
                    <activeaudioangle>false</activeaudioangle>
                    <clip id="clip-1"/>
                  </angle>
                  <angle>
                    <activevideoangle>false</activevideoangle>
                    <activeaudioangle>false</activeaudioangle>
                    <clip id="clip-2"/>
                  </angle>
                  <angle>
                    <activevideoangle>false</activevideoangle>
                    <activeaudioangle>false</activeaudioangle>
                    <clip id="clip-3"/>
                  </angle>
                  <angle>
                    <activevideoangle>true</activevideoangle>
                    <activeaudioangle>true</activeaudioangle>
                    <clip id="clip-4"/>
                  </angle>
                  <angle>
                    <activevideoangle>false</activevideoangle>
                    <activeaudioangle>false</activeaudioangle>
                    <clip id="clip-5"/>
                  </angle>
                  <angle>
                    <activevideoangle>false</activevideoangle>
                    <activeaudioangle>false</activeaudioangle>
                    <clip id="clip-6"/>
                  </angle>
                  <angle>
                    <activevideoangle>false</activevideoangle>
                    <activeaudioangle>false</activeaudioangle>
                    <clip id="clip-7"/>
                  </angle>
                  <angle>
                    <activevideoangle>false</activevideoangle>
                    <activeaudioangle>false</activeaudioangle>
                    <clip id="clip-8"/>
                  </angle>
                  <angle>
                    <activevideoangle>false</activevideoangle>
                    <activeaudioangle>false</activeaudioangle>
                    <clip id="clip-9"/>
                  </angle>
                  <masterclipid>clip-master</masterclipid>
                </multiclip>
              </clipitem>
              <clipitem id="cs-794">
                <duration>90</duration>
                <rate>
                  <ntsc>false</ntsc>
                  <timebase>25</timebase>
                </rate>
                <in>56723</in>
                <out>56812</out>
                <start>56723</start>
                <end>56812</end>
                <file id="src-5"/>
                <sourcetrack>
                  <mediatype>video</mediatype>
                  <trackindex>1</trackindex>
                </sourcetrack>
                <multiclip id="mcs-794">
                  <name>MCS-794</name>
                  <masterclipid>clip-master</masterclipid>
                  <collapsed>false</collapsed>
                  <angle>
                    <activevideoangle>false</activevideoangle>
                    <activeaudioangle>false</activeaudioangle>
                    <clip id="clip-1"/>
                  </angle>
                  <angle>
                    <activevideoangle>false</activevideoangle>
                    <activeaudioangle>false</activeaudioangle>
                    <clip id="clip-2"/>
                  </angle>
                  <angle>
                    <activevideoangle>false</activevideoangle>
                    <activeaudioangle>false</activeaudioangle>
                    <clip id="clip-3"/>
                  </angle>
                  <angle>
                    <activevideoangle>false</activevideoangle>
                    <activeaudioangle>false</activeaudioangle>
                    <clip id="clip-4"/>
                  </angle>
                  <angle>
                    <activevideoangle>true</activevideoangle>
                    <activeaudioangle>true</activeaudioangle>
                    <clip id="clip-5"/>
                  </angle>
                  <angle>
                    <activevideoangle>false</activevideoangle>
                    <activeaudioangle>false</activeaudioangle>
                    <clip id="clip-6"/>
                  </angle>
                  <angle>
                    <activevideoangle>false</activevideoangle>
                    <activeaudioangle>false</activeaudioangle>
                    <clip id="clip-7"/>
                  </angle>
                  <angle>
                    <activevideoangle>false</activevideoangle>
                    <activeaudioangle>false</activeaudioangle>
                    <clip id="clip-8"/>
                  </angle>
                  <angle>
                    <activevideoangle>false</activevideoangle>
                    <activeaudioangle>false</activeaudioangle>
                    <clip id="clip-9"/>
                  </angle>
                  <masterclipid>clip-master</masterclipid>
                </multiclip>
              </clipitem>
              <clipitem id="cs-795">
                <duration>81</duration>
                <rate>
                  <ntsc>false</ntsc>
                  <timebase>25</timebase>
                </rate>
                <in>56812</in>
                <out>56892</out>
                <start>56812</start>
                <end>56892</end>
                <file id="src-2"/>
                <sourcetrack>
                  <mediatype>video</mediatype>
                  <trackindex>1</trackindex>
                </sourcetrack>
                <multiclip id="mcs-795">
                  <name>MCS-795</name>
                  <masterclipid>clip-master</masterclipid>
                  <collapsed>false</collapsed>
                  <angle>
                    <activevideoangle>false</activevideoangle>
                    <activeaudioangle>false</activeaudioangle>
                    <clip id="clip-1"/>
                  </angle>
                  <angle>
                    <activevideoangle>true</activevideoangle>
                    <activeaudioangle>true</activeaudioangle>
                    <clip id="clip-2"/>
                  </angle>
                  <angle>
                    <activevideoangle>false</activevideoangle>
                    <activeaudioangle>false</activeaudioangle>
                    <clip id="clip-3"/>
                  </angle>
                  <angle>
                    <activevideoangle>false</activevideoangle>
                    <activeaudioangle>false</activeaudioangle>
                    <clip id="clip-4"/>
                  </angle>
                  <angle>
                    <activevideoangle>false</activevideoangle>
                    <activeaudioangle>false</activeaudioangle>
                    <clip id="clip-5"/>
                  </angle>
                  <angle>
                    <activevideoangle>false</activevideoangle>
                    <activeaudioangle>false</activeaudioangle>
                    <clip id="clip-6"/>
                  </angle>
                  <angle>
                    <activevideoangle>false</activevideoangle>
                    <activeaudioangle>false</activeaudioangle>
                    <clip id="clip-7"/>
                  </angle>
                  <angle>
                    <activevideoangle>false</activevideoangle>
                    <activeaudioangle>false</activeaudioangle>
                    <clip id="clip-8"/>
                  </angle>
                  <angle>
                    <activevideoangle>false</activevideoangle>
                    <activeaudioangle>false</activeaudioangle>
                    <clip id="clip-9"/>
                  </angle>
                  <masterclipid>clip-master</masterclipid>
                </multiclip>
              </clipitem>
              <clipitem id="cs-796">
                <duration>198</duration>
                <rate>
                  <ntsc>false</ntsc>
                  <timebase>25</timebase>
                </rate>
                <in>56892</in>
                <out>57089</out>
                <start>56892</start>
                <end>57089</end>
                <file id="src-3"/>
                <sourcetrack>
                  <mediatype>video</mediatype>
                  <trackindex>1</trackindex>
                </sourcetrack>
                <multiclip id="mcs-796">
                  <name>MCS-796</name>
                  <masterclipid>clip-master</masterclipid>
                  <collapsed>false</collapsed>
                  <angle>
                    <activevideoangle>false</activevideoangle>
                    <activeaudioangle>false</activeaudioangle>
                    <clip id="clip-1"/>
                  </angle>
                  <angle>
                    <activevideoangle>false</activevideoangle>
                    <activeaudioangle>false</activeaudioangle>
                    <clip id="clip-2"/>
                  </angle>
                  <angle>
                    <activevideoangle>true</activevideoangle>
                    <activeaudioangle>true</activeaudioangle>
                    <clip id="clip-3"/>
                  </angle>
                  <angle>
                    <activevideoangle>false</activevideoangle>
                    <activeaudioangle>false</activeaudioangle>
                    <clip id="clip-4"/>
                  </angle>
                  <angle>
                    <activevideoangle>false</activevideoangle>
                    <activeaudioangle>false</activeaudioangle>
                    <clip id="clip-5"/>
                  </angle>
                  <angle>
                    <activevideoangle>false</activevideoangle>
                    <activeaudioangle>false</activeaudioangle>
                    <clip id="clip-6"/>
                  </angle>
                  <angle>
                    <activevideoangle>false</activevideoangle>
                    <activeaudioangle>false</activeaudioangle>
                    <clip id="clip-7"/>
                  </angle>
                  <angle>
                    <activevideoangle>false</activevideoangle>
                    <activeaudioangle>false</activeaudioangle>
                    <clip id="clip-8"/>
                  </angle>
                  <angle>
                    <activevideoangle>false</activevideoangle>
                    <activeaudioangle>false</activeaudioangle>
                    <clip id="clip-9"/>
                  </angle>
                  <masterclipid>clip-master</masterclipid>
                </multiclip>
              </clipitem>
              <clipitem id="cs-797">
                <duration>97</duration>
                <rate>
                  <ntsc>false</ntsc>
                  <timebase>25</timebase>
                </rate>
                <in>57089</in>
                <out>57185</out>
                <start>57089</start>
                <end>57185</end>
                <file id="src-4"/>
                <sourcetrack>
                  <mediatype>video</mediatype>
                  <trackindex>1</trackindex>
                </sourcetrack>
                <multiclip id="mcs-797">
                  <name>MCS-797</name>
                  <masterclipid>clip-master</masterclipid>
                  <collapsed>false</collapsed>
                  <angle>
                    <activevideoangle>false</activevideoangle>
                    <activeaudioangle>false</activeaudioangle>
                    <clip id="clip-1"/>
                  </angle>
                  <angle>
                    <activevideoangle>false</activevideoangle>
                    <activeaudioangle>false</activeaudioangle>
                    <clip id="clip-2"/>
                  </angle>
                  <angle>
                    <activevideoangle>false</activevideoangle>
                    <activeaudioangle>false</activeaudioangle>
                    <clip id="clip-3"/>
                  </angle>
                  <angle>
                    <activevideoangle>true</activevideoangle>
                    <activeaudioangle>true</activeaudioangle>
                    <clip id="clip-4"/>
                  </angle>
                  <angle>
                    <activevideoangle>false</activevideoangle>
                    <activeaudioangle>false</activeaudioangle>
                    <clip id="clip-5"/>
                  </angle>
                  <angle>
                    <activevideoangle>false</activevideoangle>
                    <activeaudioangle>false</activeaudioangle>
                    <clip id="clip-6"/>
                  </angle>
                  <angle>
                    <activevideoangle>false</activevideoangle>
                    <activeaudioangle>false</activeaudioangle>
                    <clip id="clip-7"/>
                  </angle>
                  <angle>
                    <activevideoangle>false</activevideoangle>
                    <activeaudioangle>false</activeaudioangle>
                    <clip id="clip-8"/>
                  </angle>
                  <angle>
                    <activevideoangle>false</activevideoangle>
                    <activeaudioangle>false</activeaudioangle>
                    <clip id="clip-9"/>
                  </angle>
                  <masterclipid>clip-master</masterclipid>
                </multiclip>
              </clipitem>
              <clipitem id="cs-798">
                <duration>132</duration>
                <rate>
                  <ntsc>false</ntsc>
                  <timebase>25</timebase>
                </rate>
                <in>57185</in>
                <out>57316</out>
                <start>57185</start>
                <end>57316</end>
                <file id="src-2"/>
                <sourcetrack>
                  <mediatype>video</mediatype>
                  <trackindex>1</trackindex>
                </sourcetrack>
                <multiclip id="mcs-798">
                  <name>MCS-798</name>
                  <masterclipid>clip-master</masterclipid>
                  <collapsed>false</collapsed>
                  <angle>
                    <activevideoangle>false</activevideoangle>
                    <activeaudioangle>false</activeaudioangle>
                    <clip id="clip-1"/>
                  </angle>
                  <angle>
                    <activevideoangle>true</activevideoangle>
                    <activeaudioangle>true</activeaudioangle>
                    <clip id="clip-2"/>
                  </angle>
                  <angle>
                    <activevideoangle>false</activevideoangle>
                    <activeaudioangle>false</activeaudioangle>
                    <clip id="clip-3"/>
                  </angle>
                  <angle>
                    <activevideoangle>false</activevideoangle>
                    <activeaudioangle>false</activeaudioangle>
                    <clip id="clip-4"/>
                  </angle>
                  <angle>
                    <activevideoangle>false</activevideoangle>
                    <activeaudioangle>false</activeaudioangle>
                    <clip id="clip-5"/>
                  </angle>
                  <angle>
                    <activevideoangle>false</activevideoangle>
                    <activeaudioangle>false</activeaudioangle>
                    <clip id="clip-6"/>
                  </angle>
                  <angle>
                    <activevideoangle>false</activevideoangle>
                    <activeaudioangle>false</activeaudioangle>
                    <clip id="clip-7"/>
                  </angle>
                  <angle>
                    <activevideoangle>false</activevideoangle>
                    <activeaudioangle>false</activeaudioangle>
                    <clip id="clip-8"/>
                  </angle>
                  <angle>
                    <activevideoangle>false</activevideoangle>
                    <activeaudioangle>false</activeaudioangle>
                    <clip id="clip-9"/>
                  </angle>
                  <masterclipid>clip-master</masterclipid>
                </multiclip>
              </clipitem>
              <clipitem id="cs-799">
                <duration>66</duration>
                <rate>
                  <ntsc>false</ntsc>
                  <timebase>25</timebase>
                </rate>
                <in>57316</in>
                <out>57381</out>
                <start>57316</start>
                <end>57381</end>
                <file id="src-3"/>
                <sourcetrack>
                  <mediatype>video</mediatype>
                  <trackindex>1</trackindex>
                </sourcetrack>
                <multiclip id="mcs-799">
                  <name>MCS-799</name>
                  <masterclipid>clip-master</masterclipid>
                  <collapsed>false</collapsed>
                  <angle>
                    <activevideoangle>false</activevideoangle>
                    <activeaudioangle>false</activeaudioangle>
                    <clip id="clip-1"/>
                  </angle>
                  <angle>
                    <activevideoangle>false</activevideoangle>
                    <activeaudioangle>false</activeaudioangle>
                    <clip id="clip-2"/>
                  </angle>
                  <angle>
                    <activevideoangle>true</activevideoangle>
                    <activeaudioangle>true</activeaudioangle>
                    <clip id="clip-3"/>
                  </angle>
                  <angle>
                    <activevideoangle>false</activevideoangle>
                    <activeaudioangle>false</activeaudioangle>
                    <clip id="clip-4"/>
                  </angle>
                  <angle>
                    <activevideoangle>false</activevideoangle>
                    <activeaudioangle>false</activeaudioangle>
                    <clip id="clip-5"/>
                  </angle>
                  <angle>
                    <activevideoangle>false</activevideoangle>
                    <activeaudioangle>false</activeaudioangle>
                    <clip id="clip-6"/>
                  </angle>
                  <angle>
                    <activevideoangle>false</activevideoangle>
                    <activeaudioangle>false</activeaudioangle>
                    <clip id="clip-7"/>
                  </angle>
                  <angle>
                    <activevideoangle>false</activevideoangle>
                    <activeaudioangle>false</activeaudioangle>
                    <clip id="clip-8"/>
                  </angle>
                  <angle>
                    <activevideoangle>false</activevideoangle>
                    <activeaudioangle>false</activeaudioangle>
                    <clip id="clip-9"/>
                  </angle>
                  <masterclipid>clip-master</masterclipid>
                </multiclip>
              </clipitem>
              <clipitem id="cs-800">
                <duration>81</duration>
                <rate>
                  <ntsc>false</ntsc>
                  <timebase>25</timebase>
                </rate>
                <in>57381</in>
                <out>57461</out>
                <start>57381</start>
                <end>57461</end>
                <file id="src-4"/>
                <sourcetrack>
                  <mediatype>video</mediatype>
                  <trackindex>1</trackindex>
                </sourcetrack>
                <multiclip id="mcs-800">
                  <name>MCS-800</name>
                  <masterclipid>clip-master</masterclipid>
                  <collapsed>false</collapsed>
                  <angle>
                    <activevideoangle>false</activevideoangle>
                    <activeaudioangle>false</activeaudioangle>
                    <clip id="clip-1"/>
                  </angle>
                  <angle>
                    <activevideoangle>false</activevideoangle>
                    <activeaudioangle>false</activeaudioangle>
                    <clip id="clip-2"/>
                  </angle>
                  <angle>
                    <activevideoangle>false</activevideoangle>
                    <activeaudioangle>false</activeaudioangle>
                    <clip id="clip-3"/>
                  </angle>
                  <angle>
                    <activevideoangle>true</activevideoangle>
                    <activeaudioangle>true</activeaudioangle>
                    <clip id="clip-4"/>
                  </angle>
                  <angle>
                    <activevideoangle>false</activevideoangle>
                    <activeaudioangle>false</activeaudioangle>
                    <clip id="clip-5"/>
                  </angle>
                  <angle>
                    <activevideoangle>false</activevideoangle>
                    <activeaudioangle>false</activeaudioangle>
                    <clip id="clip-6"/>
                  </angle>
                  <angle>
                    <activevideoangle>false</activevideoangle>
                    <activeaudioangle>false</activeaudioangle>
                    <clip id="clip-7"/>
                  </angle>
                  <angle>
                    <activevideoangle>false</activevideoangle>
                    <activeaudioangle>false</activeaudioangle>
                    <clip id="clip-8"/>
                  </angle>
                  <angle>
                    <activevideoangle>false</activevideoangle>
                    <activeaudioangle>false</activeaudioangle>
                    <clip id="clip-9"/>
                  </angle>
                  <masterclipid>clip-master</masterclipid>
                </multiclip>
              </clipitem>
              <clipitem id="cs-801">
                <duration>53</duration>
                <rate>
                  <ntsc>false</ntsc>
                  <timebase>25</timebase>
                </rate>
                <in>57461</in>
                <out>57513</out>
                <start>57461</start>
                <end>57513</end>
                <file id="src-6"/>
                <sourcetrack>
                  <mediatype>video</mediatype>
                  <trackindex>1</trackindex>
                </sourcetrack>
                <multiclip id="mcs-801">
                  <name>MCS-801</name>
                  <masterclipid>clip-master</masterclipid>
                  <collapsed>false</collapsed>
                  <angle>
                    <activevideoangle>false</activevideoangle>
                    <activeaudioangle>false</activeaudioangle>
                    <clip id="clip-1"/>
                  </angle>
                  <angle>
                    <activevideoangle>false</activevideoangle>
                    <activeaudioangle>false</activeaudioangle>
                    <clip id="clip-2"/>
                  </angle>
                  <angle>
                    <activevideoangle>false</activevideoangle>
                    <activeaudioangle>false</activeaudioangle>
                    <clip id="clip-3"/>
                  </angle>
                  <angle>
                    <activevideoangle>false</activevideoangle>
                    <activeaudioangle>false</activeaudioangle>
                    <clip id="clip-4"/>
                  </angle>
                  <angle>
                    <activevideoangle>false</activevideoangle>
                    <activeaudioangle>false</activeaudioangle>
                    <clip id="clip-5"/>
                  </angle>
                  <angle>
                    <activevideoangle>true</activevideoangle>
                    <activeaudioangle>true</activeaudioangle>
                    <clip id="clip-6"/>
                  </angle>
                  <angle>
                    <activevideoangle>false</activevideoangle>
                    <activeaudioangle>false</activeaudioangle>
                    <clip id="clip-7"/>
                  </angle>
                  <angle>
                    <activevideoangle>false</activevideoangle>
                    <activeaudioangle>false</activeaudioangle>
                    <clip id="clip-8"/>
                  </angle>
                  <angle>
                    <activevideoangle>false</activevideoangle>
                    <activeaudioangle>false</activeaudioangle>
                    <clip id="clip-9"/>
                  </angle>
                  <masterclipid>clip-master</masterclipid>
                </multiclip>
              </clipitem>
              <clipitem id="cs-802">
                <duration>134</duration>
                <rate>
                  <ntsc>false</ntsc>
                  <timebase>25</timebase>
                </rate>
                <in>57513</in>
                <out>57646</out>
                <start>57513</start>
                <end>57646</end>
                <file id="src-3"/>
                <sourcetrack>
                  <mediatype>video</mediatype>
                  <trackindex>1</trackindex>
                </sourcetrack>
                <multiclip id="mcs-802">
                  <name>MCS-802</name>
                  <masterclipid>clip-master</masterclipid>
                  <collapsed>false</collapsed>
                  <angle>
                    <activevideoangle>false</activevideoangle>
                    <activeaudioangle>false</activeaudioangle>
                    <clip id="clip-1"/>
                  </angle>
                  <angle>
                    <activevideoangle>false</activevideoangle>
                    <activeaudioangle>false</activeaudioangle>
                    <clip id="clip-2"/>
                  </angle>
                  <angle>
                    <activevideoangle>true</activevideoangle>
                    <activeaudioangle>true</activeaudioangle>
                    <clip id="clip-3"/>
                  </angle>
                  <angle>
                    <activevideoangle>false</activevideoangle>
                    <activeaudioangle>false</activeaudioangle>
                    <clip id="clip-4"/>
                  </angle>
                  <angle>
                    <activevideoangle>false</activevideoangle>
                    <activeaudioangle>false</activeaudioangle>
                    <clip id="clip-5"/>
                  </angle>
                  <angle>
                    <activevideoangle>false</activevideoangle>
                    <activeaudioangle>false</activeaudioangle>
                    <clip id="clip-6"/>
                  </angle>
                  <angle>
                    <activevideoangle>false</activevideoangle>
                    <activeaudioangle>false</activeaudioangle>
                    <clip id="clip-7"/>
                  </angle>
                  <angle>
                    <activevideoangle>false</activevideoangle>
                    <activeaudioangle>false</activeaudioangle>
                    <clip id="clip-8"/>
                  </angle>
                  <angle>
                    <activevideoangle>false</activevideoangle>
                    <activeaudioangle>false</activeaudioangle>
                    <clip id="clip-9"/>
                  </angle>
                  <masterclipid>clip-master</masterclipid>
                </multiclip>
              </clipitem>
              <clipitem id="cs-803">
                <duration>258</duration>
                <rate>
                  <ntsc>false</ntsc>
                  <timebase>25</timebase>
                </rate>
                <in>57646</in>
                <out>57903</out>
                <start>57646</start>
                <end>57903</end>
                <file id="src-1"/>
                <sourcetrack>
                  <mediatype>video</mediatype>
                  <trackindex>1</trackindex>
                </sourcetrack>
                <multiclip id="mcs-803">
                  <name>MCS-803</name>
                  <masterclipid>clip-master</masterclipid>
                  <collapsed>false</collapsed>
                  <angle>
                    <activevideoangle>true</activevideoangle>
                    <activeaudioangle>true</activeaudioangle>
                    <clip id="clip-1"/>
                  </angle>
                  <angle>
                    <activevideoangle>false</activevideoangle>
                    <activeaudioangle>false</activeaudioangle>
                    <clip id="clip-2"/>
                  </angle>
                  <angle>
                    <activevideoangle>false</activevideoangle>
                    <activeaudioangle>false</activeaudioangle>
                    <clip id="clip-3"/>
                  </angle>
                  <angle>
                    <activevideoangle>false</activevideoangle>
                    <activeaudioangle>false</activeaudioangle>
                    <clip id="clip-4"/>
                  </angle>
                  <angle>
                    <activevideoangle>false</activevideoangle>
                    <activeaudioangle>false</activeaudioangle>
                    <clip id="clip-5"/>
                  </angle>
                  <angle>
                    <activevideoangle>false</activevideoangle>
                    <activeaudioangle>false</activeaudioangle>
                    <clip id="clip-6"/>
                  </angle>
                  <angle>
                    <activevideoangle>false</activevideoangle>
                    <activeaudioangle>false</activeaudioangle>
                    <clip id="clip-7"/>
                  </angle>
                  <angle>
                    <activevideoangle>false</activevideoangle>
                    <activeaudioangle>false</activeaudioangle>
                    <clip id="clip-8"/>
                  </angle>
                  <angle>
                    <activevideoangle>false</activevideoangle>
                    <activeaudioangle>false</activeaudioangle>
                    <clip id="clip-9"/>
                  </angle>
                  <masterclipid>clip-master</masterclipid>
                </multiclip>
              </clipitem>
              <clipitem id="cs-804">
                <duration>413</duration>
                <rate>
                  <ntsc>false</ntsc>
                  <timebase>25</timebase>
                </rate>
                <in>57903</in>
                <out>58315</out>
                <start>57903</start>
                <end>58315</end>
                <file id="src-3"/>
                <sourcetrack>
                  <mediatype>video</mediatype>
                  <trackindex>1</trackindex>
                </sourcetrack>
                <multiclip id="mcs-804">
                  <name>MCS-804</name>
                  <masterclipid>clip-master</masterclipid>
                  <collapsed>false</collapsed>
                  <angle>
                    <activevideoangle>false</activevideoangle>
                    <activeaudioangle>false</activeaudioangle>
                    <clip id="clip-1"/>
                  </angle>
                  <angle>
                    <activevideoangle>false</activevideoangle>
                    <activeaudioangle>false</activeaudioangle>
                    <clip id="clip-2"/>
                  </angle>
                  <angle>
                    <activevideoangle>true</activevideoangle>
                    <activeaudioangle>true</activeaudioangle>
                    <clip id="clip-3"/>
                  </angle>
                  <angle>
                    <activevideoangle>false</activevideoangle>
                    <activeaudioangle>false</activeaudioangle>
                    <clip id="clip-4"/>
                  </angle>
                  <angle>
                    <activevideoangle>false</activevideoangle>
                    <activeaudioangle>false</activeaudioangle>
                    <clip id="clip-5"/>
                  </angle>
                  <angle>
                    <activevideoangle>false</activevideoangle>
                    <activeaudioangle>false</activeaudioangle>
                    <clip id="clip-6"/>
                  </angle>
                  <angle>
                    <activevideoangle>false</activevideoangle>
                    <activeaudioangle>false</activeaudioangle>
                    <clip id="clip-7"/>
                  </angle>
                  <angle>
                    <activevideoangle>false</activevideoangle>
                    <activeaudioangle>false</activeaudioangle>
                    <clip id="clip-8"/>
                  </angle>
                  <angle>
                    <activevideoangle>false</activevideoangle>
                    <activeaudioangle>false</activeaudioangle>
                    <clip id="clip-9"/>
                  </angle>
                  <masterclipid>clip-master</masterclipid>
                </multiclip>
              </clipitem>
              <clipitem id="cs-805">
                <duration>204</duration>
                <rate>
                  <ntsc>false</ntsc>
                  <timebase>25</timebase>
                </rate>
                <in>58315</in>
                <out>58518</out>
                <start>58315</start>
                <end>58518</end>
                <file id="src-4"/>
                <sourcetrack>
                  <mediatype>video</mediatype>
                  <trackindex>1</trackindex>
                </sourcetrack>
                <multiclip id="mcs-805">
                  <name>MCS-805</name>
                  <masterclipid>clip-master</masterclipid>
                  <collapsed>false</collapsed>
                  <angle>
                    <activevideoangle>false</activevideoangle>
                    <activeaudioangle>false</activeaudioangle>
                    <clip id="clip-1"/>
                  </angle>
                  <angle>
                    <activevideoangle>false</activevideoangle>
                    <activeaudioangle>false</activeaudioangle>
                    <clip id="clip-2"/>
                  </angle>
                  <angle>
                    <activevideoangle>false</activevideoangle>
                    <activeaudioangle>false</activeaudioangle>
                    <clip id="clip-3"/>
                  </angle>
                  <angle>
                    <activevideoangle>true</activevideoangle>
                    <activeaudioangle>true</activeaudioangle>
                    <clip id="clip-4"/>
                  </angle>
                  <angle>
                    <activevideoangle>false</activevideoangle>
                    <activeaudioangle>false</activeaudioangle>
                    <clip id="clip-5"/>
                  </angle>
                  <angle>
                    <activevideoangle>false</activevideoangle>
                    <activeaudioangle>false</activeaudioangle>
                    <clip id="clip-6"/>
                  </angle>
                  <angle>
                    <activevideoangle>false</activevideoangle>
                    <activeaudioangle>false</activeaudioangle>
                    <clip id="clip-7"/>
                  </angle>
                  <angle>
                    <activevideoangle>false</activevideoangle>
                    <activeaudioangle>false</activeaudioangle>
                    <clip id="clip-8"/>
                  </angle>
                  <angle>
                    <activevideoangle>false</activevideoangle>
                    <activeaudioangle>false</activeaudioangle>
                    <clip id="clip-9"/>
                  </angle>
                  <masterclipid>clip-master</masterclipid>
                </multiclip>
              </clipitem>
              <clipitem id="cs-806">
                <duration>263</duration>
                <rate>
                  <ntsc>false</ntsc>
                  <timebase>25</timebase>
                </rate>
                <in>58518</in>
                <out>58780</out>
                <start>58518</start>
                <end>58780</end>
                <file id="src-3"/>
                <sourcetrack>
                  <mediatype>video</mediatype>
                  <trackindex>1</trackindex>
                </sourcetrack>
                <multiclip id="mcs-806">
                  <name>MCS-806</name>
                  <masterclipid>clip-master</masterclipid>
                  <collapsed>false</collapsed>
                  <angle>
                    <activevideoangle>false</activevideoangle>
                    <activeaudioangle>false</activeaudioangle>
                    <clip id="clip-1"/>
                  </angle>
                  <angle>
                    <activevideoangle>false</activevideoangle>
                    <activeaudioangle>false</activeaudioangle>
                    <clip id="clip-2"/>
                  </angle>
                  <angle>
                    <activevideoangle>true</activevideoangle>
                    <activeaudioangle>true</activeaudioangle>
                    <clip id="clip-3"/>
                  </angle>
                  <angle>
                    <activevideoangle>false</activevideoangle>
                    <activeaudioangle>false</activeaudioangle>
                    <clip id="clip-4"/>
                  </angle>
                  <angle>
                    <activevideoangle>false</activevideoangle>
                    <activeaudioangle>false</activeaudioangle>
                    <clip id="clip-5"/>
                  </angle>
                  <angle>
                    <activevideoangle>false</activevideoangle>
                    <activeaudioangle>false</activeaudioangle>
                    <clip id="clip-6"/>
                  </angle>
                  <angle>
                    <activevideoangle>false</activevideoangle>
                    <activeaudioangle>false</activeaudioangle>
                    <clip id="clip-7"/>
                  </angle>
                  <angle>
                    <activevideoangle>false</activevideoangle>
                    <activeaudioangle>false</activeaudioangle>
                    <clip id="clip-8"/>
                  </angle>
                  <angle>
                    <activevideoangle>false</activevideoangle>
                    <activeaudioangle>false</activeaudioangle>
                    <clip id="clip-9"/>
                  </angle>
                  <masterclipid>clip-master</masterclipid>
                </multiclip>
              </clipitem>
              <clipitem id="cs-807">
                <duration>274</duration>
                <rate>
                  <ntsc>false</ntsc>
                  <timebase>25</timebase>
                </rate>
                <in>58780</in>
                <out>59053</out>
                <start>58780</start>
                <end>59053</end>
                <file id="src-2"/>
                <sourcetrack>
                  <mediatype>video</mediatype>
                  <trackindex>1</trackindex>
                </sourcetrack>
                <multiclip id="mcs-807">
                  <name>MCS-807</name>
                  <masterclipid>clip-master</masterclipid>
                  <collapsed>false</collapsed>
                  <angle>
                    <activevideoangle>false</activevideoangle>
                    <activeaudioangle>false</activeaudioangle>
                    <clip id="clip-1"/>
                  </angle>
                  <angle>
                    <activevideoangle>true</activevideoangle>
                    <activeaudioangle>true</activeaudioangle>
                    <clip id="clip-2"/>
                  </angle>
                  <angle>
                    <activevideoangle>false</activevideoangle>
                    <activeaudioangle>false</activeaudioangle>
                    <clip id="clip-3"/>
                  </angle>
                  <angle>
                    <activevideoangle>false</activevideoangle>
                    <activeaudioangle>false</activeaudioangle>
                    <clip id="clip-4"/>
                  </angle>
                  <angle>
                    <activevideoangle>false</activevideoangle>
                    <activeaudioangle>false</activeaudioangle>
                    <clip id="clip-5"/>
                  </angle>
                  <angle>
                    <activevideoangle>false</activevideoangle>
                    <activeaudioangle>false</activeaudioangle>
                    <clip id="clip-6"/>
                  </angle>
                  <angle>
                    <activevideoangle>false</activevideoangle>
                    <activeaudioangle>false</activeaudioangle>
                    <clip id="clip-7"/>
                  </angle>
                  <angle>
                    <activevideoangle>false</activevideoangle>
                    <activeaudioangle>false</activeaudioangle>
                    <clip id="clip-8"/>
                  </angle>
                  <angle>
                    <activevideoangle>false</activevideoangle>
                    <activeaudioangle>false</activeaudioangle>
                    <clip id="clip-9"/>
                  </angle>
                  <masterclipid>clip-master</masterclipid>
                </multiclip>
              </clipitem>
              <clipitem id="cs-808">
                <duration>299</duration>
                <rate>
                  <ntsc>false</ntsc>
                  <timebase>25</timebase>
                </rate>
                <in>59053</in>
                <out>59351</out>
                <start>59053</start>
                <end>59351</end>
                <file id="src-4"/>
                <sourcetrack>
                  <mediatype>video</mediatype>
                  <trackindex>1</trackindex>
                </sourcetrack>
                <multiclip id="mcs-808">
                  <name>MCS-808</name>
                  <masterclipid>clip-master</masterclipid>
                  <collapsed>false</collapsed>
                  <angle>
                    <activevideoangle>false</activevideoangle>
                    <activeaudioangle>false</activeaudioangle>
                    <clip id="clip-1"/>
                  </angle>
                  <angle>
                    <activevideoangle>false</activevideoangle>
                    <activeaudioangle>false</activeaudioangle>
                    <clip id="clip-2"/>
                  </angle>
                  <angle>
                    <activevideoangle>false</activevideoangle>
                    <activeaudioangle>false</activeaudioangle>
                    <clip id="clip-3"/>
                  </angle>
                  <angle>
                    <activevideoangle>true</activevideoangle>
                    <activeaudioangle>true</activeaudioangle>
                    <clip id="clip-4"/>
                  </angle>
                  <angle>
                    <activevideoangle>false</activevideoangle>
                    <activeaudioangle>false</activeaudioangle>
                    <clip id="clip-5"/>
                  </angle>
                  <angle>
                    <activevideoangle>false</activevideoangle>
                    <activeaudioangle>false</activeaudioangle>
                    <clip id="clip-6"/>
                  </angle>
                  <angle>
                    <activevideoangle>false</activevideoangle>
                    <activeaudioangle>false</activeaudioangle>
                    <clip id="clip-7"/>
                  </angle>
                  <angle>
                    <activevideoangle>false</activevideoangle>
                    <activeaudioangle>false</activeaudioangle>
                    <clip id="clip-8"/>
                  </angle>
                  <angle>
                    <activevideoangle>false</activevideoangle>
                    <activeaudioangle>false</activeaudioangle>
                    <clip id="clip-9"/>
                  </angle>
                  <masterclipid>clip-master</masterclipid>
                </multiclip>
              </clipitem>
              <clipitem id="cs-809">
                <duration>118</duration>
                <rate>
                  <ntsc>false</ntsc>
                  <timebase>25</timebase>
                </rate>
                <in>59351</in>
                <out>59468</out>
                <start>59351</start>
                <end>59468</end>
                <file id="src-2"/>
                <sourcetrack>
                  <mediatype>video</mediatype>
                  <trackindex>1</trackindex>
                </sourcetrack>
                <multiclip id="mcs-809">
                  <name>MCS-809</name>
                  <masterclipid>clip-master</masterclipid>
                  <collapsed>false</collapsed>
                  <angle>
                    <activevideoangle>false</activevideoangle>
                    <activeaudioangle>false</activeaudioangle>
                    <clip id="clip-1"/>
                  </angle>
                  <angle>
                    <activevideoangle>true</activevideoangle>
                    <activeaudioangle>true</activeaudioangle>
                    <clip id="clip-2"/>
                  </angle>
                  <angle>
                    <activevideoangle>false</activevideoangle>
                    <activeaudioangle>false</activeaudioangle>
                    <clip id="clip-3"/>
                  </angle>
                  <angle>
                    <activevideoangle>false</activevideoangle>
                    <activeaudioangle>false</activeaudioangle>
                    <clip id="clip-4"/>
                  </angle>
                  <angle>
                    <activevideoangle>false</activevideoangle>
                    <activeaudioangle>false</activeaudioangle>
                    <clip id="clip-5"/>
                  </angle>
                  <angle>
                    <activevideoangle>false</activevideoangle>
                    <activeaudioangle>false</activeaudioangle>
                    <clip id="clip-6"/>
                  </angle>
                  <angle>
                    <activevideoangle>false</activevideoangle>
                    <activeaudioangle>false</activeaudioangle>
                    <clip id="clip-7"/>
                  </angle>
                  <angle>
                    <activevideoangle>false</activevideoangle>
                    <activeaudioangle>false</activeaudioangle>
                    <clip id="clip-8"/>
                  </angle>
                  <angle>
                    <activevideoangle>false</activevideoangle>
                    <activeaudioangle>false</activeaudioangle>
                    <clip id="clip-9"/>
                  </angle>
                  <masterclipid>clip-master</masterclipid>
                </multiclip>
              </clipitem>
              <clipitem id="cs-810">
                <duration>35</duration>
                <rate>
                  <ntsc>false</ntsc>
                  <timebase>25</timebase>
                </rate>
                <in>59468</in>
                <out>59502</out>
                <start>59468</start>
                <end>59502</end>
                <file id="src-6"/>
                <sourcetrack>
                  <mediatype>video</mediatype>
                  <trackindex>1</trackindex>
                </sourcetrack>
                <multiclip id="mcs-810">
                  <name>MCS-810</name>
                  <masterclipid>clip-master</masterclipid>
                  <collapsed>false</collapsed>
                  <angle>
                    <activevideoangle>false</activevideoangle>
                    <activeaudioangle>false</activeaudioangle>
                    <clip id="clip-1"/>
                  </angle>
                  <angle>
                    <activevideoangle>false</activevideoangle>
                    <activeaudioangle>false</activeaudioangle>
                    <clip id="clip-2"/>
                  </angle>
                  <angle>
                    <activevideoangle>false</activevideoangle>
                    <activeaudioangle>false</activeaudioangle>
                    <clip id="clip-3"/>
                  </angle>
                  <angle>
                    <activevideoangle>false</activevideoangle>
                    <activeaudioangle>false</activeaudioangle>
                    <clip id="clip-4"/>
                  </angle>
                  <angle>
                    <activevideoangle>false</activevideoangle>
                    <activeaudioangle>false</activeaudioangle>
                    <clip id="clip-5"/>
                  </angle>
                  <angle>
                    <activevideoangle>true</activevideoangle>
                    <activeaudioangle>true</activeaudioangle>
                    <clip id="clip-6"/>
                  </angle>
                  <angle>
                    <activevideoangle>false</activevideoangle>
                    <activeaudioangle>false</activeaudioangle>
                    <clip id="clip-7"/>
                  </angle>
                  <angle>
                    <activevideoangle>false</activevideoangle>
                    <activeaudioangle>false</activeaudioangle>
                    <clip id="clip-8"/>
                  </angle>
                  <angle>
                    <activevideoangle>false</activevideoangle>
                    <activeaudioangle>false</activeaudioangle>
                    <clip id="clip-9"/>
                  </angle>
                  <masterclipid>clip-master</masterclipid>
                </multiclip>
              </clipitem>
              <clipitem id="cs-811">
                <duration>150</duration>
                <rate>
                  <ntsc>false</ntsc>
                  <timebase>25</timebase>
                </rate>
                <in>59502</in>
                <out>59651</out>
                <start>59502</start>
                <end>59651</end>
                <file id="src-4"/>
                <sourcetrack>
                  <mediatype>video</mediatype>
                  <trackindex>1</trackindex>
                </sourcetrack>
                <multiclip id="mcs-811">
                  <name>MCS-811</name>
                  <masterclipid>clip-master</masterclipid>
                  <collapsed>false</collapsed>
                  <angle>
                    <activevideoangle>false</activevideoangle>
                    <activeaudioangle>false</activeaudioangle>
                    <clip id="clip-1"/>
                  </angle>
                  <angle>
                    <activevideoangle>false</activevideoangle>
                    <activeaudioangle>false</activeaudioangle>
                    <clip id="clip-2"/>
                  </angle>
                  <angle>
                    <activevideoangle>false</activevideoangle>
                    <activeaudioangle>false</activeaudioangle>
                    <clip id="clip-3"/>
                  </angle>
                  <angle>
                    <activevideoangle>true</activevideoangle>
                    <activeaudioangle>true</activeaudioangle>
                    <clip id="clip-4"/>
                  </angle>
                  <angle>
                    <activevideoangle>false</activevideoangle>
                    <activeaudioangle>false</activeaudioangle>
                    <clip id="clip-5"/>
                  </angle>
                  <angle>
                    <activevideoangle>false</activevideoangle>
                    <activeaudioangle>false</activeaudioangle>
                    <clip id="clip-6"/>
                  </angle>
                  <angle>
                    <activevideoangle>false</activevideoangle>
                    <activeaudioangle>false</activeaudioangle>
                    <clip id="clip-7"/>
                  </angle>
                  <angle>
                    <activevideoangle>false</activevideoangle>
                    <activeaudioangle>false</activeaudioangle>
                    <clip id="clip-8"/>
                  </angle>
                  <angle>
                    <activevideoangle>false</activevideoangle>
                    <activeaudioangle>false</activeaudioangle>
                    <clip id="clip-9"/>
                  </angle>
                  <masterclipid>clip-master</masterclipid>
                </multiclip>
              </clipitem>
              <clipitem id="cs-812">
                <duration>119</duration>
                <rate>
                  <ntsc>false</ntsc>
                  <timebase>25</timebase>
                </rate>
                <in>59651</in>
                <out>59769</out>
                <start>59651</start>
                <end>59769</end>
                <file id="src-8"/>
                <sourcetrack>
                  <mediatype>video</mediatype>
                  <trackindex>1</trackindex>
                </sourcetrack>
                <multiclip id="mcs-812">
                  <name>MCS-812</name>
                  <masterclipid>clip-master</masterclipid>
                  <collapsed>false</collapsed>
                  <angle>
                    <activevideoangle>false</activevideoangle>
                    <activeaudioangle>false</activeaudioangle>
                    <clip id="clip-1"/>
                  </angle>
                  <angle>
                    <activevideoangle>false</activevideoangle>
                    <activeaudioangle>false</activeaudioangle>
                    <clip id="clip-2"/>
                  </angle>
                  <angle>
                    <activevideoangle>false</activevideoangle>
                    <activeaudioangle>false</activeaudioangle>
                    <clip id="clip-3"/>
                  </angle>
                  <angle>
                    <activevideoangle>false</activevideoangle>
                    <activeaudioangle>false</activeaudioangle>
                    <clip id="clip-4"/>
                  </angle>
                  <angle>
                    <activevideoangle>false</activevideoangle>
                    <activeaudioangle>false</activeaudioangle>
                    <clip id="clip-5"/>
                  </angle>
                  <angle>
                    <activevideoangle>false</activevideoangle>
                    <activeaudioangle>false</activeaudioangle>
                    <clip id="clip-6"/>
                  </angle>
                  <angle>
                    <activevideoangle>false</activevideoangle>
                    <activeaudioangle>false</activeaudioangle>
                    <clip id="clip-7"/>
                  </angle>
                  <angle>
                    <activevideoangle>true</activevideoangle>
                    <activeaudioangle>true</activeaudioangle>
                    <clip id="clip-8"/>
                  </angle>
                  <angle>
                    <activevideoangle>false</activevideoangle>
                    <activeaudioangle>false</activeaudioangle>
                    <clip id="clip-9"/>
                  </angle>
                  <masterclipid>clip-master</masterclipid>
                </multiclip>
              </clipitem>
              <clipitem id="cs-813">
                <duration>93</duration>
                <rate>
                  <ntsc>false</ntsc>
                  <timebase>25</timebase>
                </rate>
                <in>59769</in>
                <out>59861</out>
                <start>59769</start>
                <end>59861</end>
                <file id="src-4"/>
                <sourcetrack>
                  <mediatype>video</mediatype>
                  <trackindex>1</trackindex>
                </sourcetrack>
                <multiclip id="mcs-813">
                  <name>MCS-813</name>
                  <masterclipid>clip-master</masterclipid>
                  <collapsed>false</collapsed>
                  <angle>
                    <activevideoangle>false</activevideoangle>
                    <activeaudioangle>false</activeaudioangle>
                    <clip id="clip-1"/>
                  </angle>
                  <angle>
                    <activevideoangle>false</activevideoangle>
                    <activeaudioangle>false</activeaudioangle>
                    <clip id="clip-2"/>
                  </angle>
                  <angle>
                    <activevideoangle>false</activevideoangle>
                    <activeaudioangle>false</activeaudioangle>
                    <clip id="clip-3"/>
                  </angle>
                  <angle>
                    <activevideoangle>true</activevideoangle>
                    <activeaudioangle>true</activeaudioangle>
                    <clip id="clip-4"/>
                  </angle>
                  <angle>
                    <activevideoangle>false</activevideoangle>
                    <activeaudioangle>false</activeaudioangle>
                    <clip id="clip-5"/>
                  </angle>
                  <angle>
                    <activevideoangle>false</activevideoangle>
                    <activeaudioangle>false</activeaudioangle>
                    <clip id="clip-6"/>
                  </angle>
                  <angle>
                    <activevideoangle>false</activevideoangle>
                    <activeaudioangle>false</activeaudioangle>
                    <clip id="clip-7"/>
                  </angle>
                  <angle>
                    <activevideoangle>false</activevideoangle>
                    <activeaudioangle>false</activeaudioangle>
                    <clip id="clip-8"/>
                  </angle>
                  <angle>
                    <activevideoangle>false</activevideoangle>
                    <activeaudioangle>false</activeaudioangle>
                    <clip id="clip-9"/>
                  </angle>
                  <masterclipid>clip-master</masterclipid>
                </multiclip>
              </clipitem>
              <clipitem id="cs-814">
                <duration>83</duration>
                <rate>
                  <ntsc>false</ntsc>
                  <timebase>25</timebase>
                </rate>
                <in>59861</in>
                <out>59943</out>
                <start>59861</start>
                <end>59943</end>
                <file id="src-1"/>
                <sourcetrack>
                  <mediatype>video</mediatype>
                  <trackindex>1</trackindex>
                </sourcetrack>
                <multiclip id="mcs-814">
                  <name>MCS-814</name>
                  <masterclipid>clip-master</masterclipid>
                  <collapsed>false</collapsed>
                  <angle>
                    <activevideoangle>true</activevideoangle>
                    <activeaudioangle>true</activeaudioangle>
                    <clip id="clip-1"/>
                  </angle>
                  <angle>
                    <activevideoangle>false</activevideoangle>
                    <activeaudioangle>false</activeaudioangle>
                    <clip id="clip-2"/>
                  </angle>
                  <angle>
                    <activevideoangle>false</activevideoangle>
                    <activeaudioangle>false</activeaudioangle>
                    <clip id="clip-3"/>
                  </angle>
                  <angle>
                    <activevideoangle>false</activevideoangle>
                    <activeaudioangle>false</activeaudioangle>
                    <clip id="clip-4"/>
                  </angle>
                  <angle>
                    <activevideoangle>false</activevideoangle>
                    <activeaudioangle>false</activeaudioangle>
                    <clip id="clip-5"/>
                  </angle>
                  <angle>
                    <activevideoangle>false</activevideoangle>
                    <activeaudioangle>false</activeaudioangle>
                    <clip id="clip-6"/>
                  </angle>
                  <angle>
                    <activevideoangle>false</activevideoangle>
                    <activeaudioangle>false</activeaudioangle>
                    <clip id="clip-7"/>
                  </angle>
                  <angle>
                    <activevideoangle>false</activevideoangle>
                    <activeaudioangle>false</activeaudioangle>
                    <clip id="clip-8"/>
                  </angle>
                  <angle>
                    <activevideoangle>false</activevideoangle>
                    <activeaudioangle>false</activeaudioangle>
                    <clip id="clip-9"/>
                  </angle>
                  <masterclipid>clip-master</masterclipid>
                </multiclip>
              </clipitem>
              <clipitem id="cs-815">
                <duration>83</duration>
                <rate>
                  <ntsc>false</ntsc>
                  <timebase>25</timebase>
                </rate>
                <in>59943</in>
                <out>60025</out>
                <start>59943</start>
                <end>60025</end>
                <file id="src-4"/>
                <sourcetrack>
                  <mediatype>video</mediatype>
                  <trackindex>1</trackindex>
                </sourcetrack>
                <multiclip id="mcs-815">
                  <name>MCS-815</name>
                  <masterclipid>clip-master</masterclipid>
                  <collapsed>false</collapsed>
                  <angle>
                    <activevideoangle>false</activevideoangle>
                    <activeaudioangle>false</activeaudioangle>
                    <clip id="clip-1"/>
                  </angle>
                  <angle>
                    <activevideoangle>false</activevideoangle>
                    <activeaudioangle>false</activeaudioangle>
                    <clip id="clip-2"/>
                  </angle>
                  <angle>
                    <activevideoangle>false</activevideoangle>
                    <activeaudioangle>false</activeaudioangle>
                    <clip id="clip-3"/>
                  </angle>
                  <angle>
                    <activevideoangle>true</activevideoangle>
                    <activeaudioangle>true</activeaudioangle>
                    <clip id="clip-4"/>
                  </angle>
                  <angle>
                    <activevideoangle>false</activevideoangle>
                    <activeaudioangle>false</activeaudioangle>
                    <clip id="clip-5"/>
                  </angle>
                  <angle>
                    <activevideoangle>false</activevideoangle>
                    <activeaudioangle>false</activeaudioangle>
                    <clip id="clip-6"/>
                  </angle>
                  <angle>
                    <activevideoangle>false</activevideoangle>
                    <activeaudioangle>false</activeaudioangle>
                    <clip id="clip-7"/>
                  </angle>
                  <angle>
                    <activevideoangle>false</activevideoangle>
                    <activeaudioangle>false</activeaudioangle>
                    <clip id="clip-8"/>
                  </angle>
                  <angle>
                    <activevideoangle>false</activevideoangle>
                    <activeaudioangle>false</activeaudioangle>
                    <clip id="clip-9"/>
                  </angle>
                  <masterclipid>clip-master</masterclipid>
                </multiclip>
              </clipitem>
              <clipitem id="cs-816">
                <duration>149</duration>
                <rate>
                  <ntsc>false</ntsc>
                  <timebase>25</timebase>
                </rate>
                <in>60025</in>
                <out>60173</out>
                <start>60025</start>
                <end>60173</end>
                <file id="src-2"/>
                <sourcetrack>
                  <mediatype>video</mediatype>
                  <trackindex>1</trackindex>
                </sourcetrack>
                <multiclip id="mcs-816">
                  <name>MCS-816</name>
                  <masterclipid>clip-master</masterclipid>
                  <collapsed>false</collapsed>
                  <angle>
                    <activevideoangle>false</activevideoangle>
                    <activeaudioangle>false</activeaudioangle>
                    <clip id="clip-1"/>
                  </angle>
                  <angle>
                    <activevideoangle>true</activevideoangle>
                    <activeaudioangle>true</activeaudioangle>
                    <clip id="clip-2"/>
                  </angle>
                  <angle>
                    <activevideoangle>false</activevideoangle>
                    <activeaudioangle>false</activeaudioangle>
                    <clip id="clip-3"/>
                  </angle>
                  <angle>
                    <activevideoangle>false</activevideoangle>
                    <activeaudioangle>false</activeaudioangle>
                    <clip id="clip-4"/>
                  </angle>
                  <angle>
                    <activevideoangle>false</activevideoangle>
                    <activeaudioangle>false</activeaudioangle>
                    <clip id="clip-5"/>
                  </angle>
                  <angle>
                    <activevideoangle>false</activevideoangle>
                    <activeaudioangle>false</activeaudioangle>
                    <clip id="clip-6"/>
                  </angle>
                  <angle>
                    <activevideoangle>false</activevideoangle>
                    <activeaudioangle>false</activeaudioangle>
                    <clip id="clip-7"/>
                  </angle>
                  <angle>
                    <activevideoangle>false</activevideoangle>
                    <activeaudioangle>false</activeaudioangle>
                    <clip id="clip-8"/>
                  </angle>
                  <angle>
                    <activevideoangle>false</activevideoangle>
                    <activeaudioangle>false</activeaudioangle>
                    <clip id="clip-9"/>
                  </angle>
                  <masterclipid>clip-master</masterclipid>
                </multiclip>
              </clipitem>
              <clipitem id="cs-817">
                <duration>55</duration>
                <rate>
                  <ntsc>false</ntsc>
                  <timebase>25</timebase>
                </rate>
                <in>60173</in>
                <out>60227</out>
                <start>60173</start>
                <end>60227</end>
                <file id="src-6"/>
                <sourcetrack>
                  <mediatype>video</mediatype>
                  <trackindex>1</trackindex>
                </sourcetrack>
                <multiclip id="mcs-817">
                  <name>MCS-817</name>
                  <masterclipid>clip-master</masterclipid>
                  <collapsed>false</collapsed>
                  <angle>
                    <activevideoangle>false</activevideoangle>
                    <activeaudioangle>false</activeaudioangle>
                    <clip id="clip-1"/>
                  </angle>
                  <angle>
                    <activevideoangle>false</activevideoangle>
                    <activeaudioangle>false</activeaudioangle>
                    <clip id="clip-2"/>
                  </angle>
                  <angle>
                    <activevideoangle>false</activevideoangle>
                    <activeaudioangle>false</activeaudioangle>
                    <clip id="clip-3"/>
                  </angle>
                  <angle>
                    <activevideoangle>false</activevideoangle>
                    <activeaudioangle>false</activeaudioangle>
                    <clip id="clip-4"/>
                  </angle>
                  <angle>
                    <activevideoangle>false</activevideoangle>
                    <activeaudioangle>false</activeaudioangle>
                    <clip id="clip-5"/>
                  </angle>
                  <angle>
                    <activevideoangle>true</activevideoangle>
                    <activeaudioangle>true</activeaudioangle>
                    <clip id="clip-6"/>
                  </angle>
                  <angle>
                    <activevideoangle>false</activevideoangle>
                    <activeaudioangle>false</activeaudioangle>
                    <clip id="clip-7"/>
                  </angle>
                  <angle>
                    <activevideoangle>false</activevideoangle>
                    <activeaudioangle>false</activeaudioangle>
                    <clip id="clip-8"/>
                  </angle>
                  <angle>
                    <activevideoangle>false</activevideoangle>
                    <activeaudioangle>false</activeaudioangle>
                    <clip id="clip-9"/>
                  </angle>
                  <masterclipid>clip-master</masterclipid>
                </multiclip>
              </clipitem>
              <clipitem id="cs-818">
                <duration>154</duration>
                <rate>
                  <ntsc>false</ntsc>
                  <timebase>25</timebase>
                </rate>
                <in>60227</in>
                <out>60380</out>
                <start>60227</start>
                <end>60380</end>
                <file id="src-3"/>
                <sourcetrack>
                  <mediatype>video</mediatype>
                  <trackindex>1</trackindex>
                </sourcetrack>
                <multiclip id="mcs-818">
                  <name>MCS-818</name>
                  <masterclipid>clip-master</masterclipid>
                  <collapsed>false</collapsed>
                  <angle>
                    <activevideoangle>false</activevideoangle>
                    <activeaudioangle>false</activeaudioangle>
                    <clip id="clip-1"/>
                  </angle>
                  <angle>
                    <activevideoangle>false</activevideoangle>
                    <activeaudioangle>false</activeaudioangle>
                    <clip id="clip-2"/>
                  </angle>
                  <angle>
                    <activevideoangle>true</activevideoangle>
                    <activeaudioangle>true</activeaudioangle>
                    <clip id="clip-3"/>
                  </angle>
                  <angle>
                    <activevideoangle>false</activevideoangle>
                    <activeaudioangle>false</activeaudioangle>
                    <clip id="clip-4"/>
                  </angle>
                  <angle>
                    <activevideoangle>false</activevideoangle>
                    <activeaudioangle>false</activeaudioangle>
                    <clip id="clip-5"/>
                  </angle>
                  <angle>
                    <activevideoangle>false</activevideoangle>
                    <activeaudioangle>false</activeaudioangle>
                    <clip id="clip-6"/>
                  </angle>
                  <angle>
                    <activevideoangle>false</activevideoangle>
                    <activeaudioangle>false</activeaudioangle>
                    <clip id="clip-7"/>
                  </angle>
                  <angle>
                    <activevideoangle>false</activevideoangle>
                    <activeaudioangle>false</activeaudioangle>
                    <clip id="clip-8"/>
                  </angle>
                  <angle>
                    <activevideoangle>false</activevideoangle>
                    <activeaudioangle>false</activeaudioangle>
                    <clip id="clip-9"/>
                  </angle>
                  <masterclipid>clip-master</masterclipid>
                </multiclip>
              </clipitem>
              <clipitem id="cs-819">
                <duration>54</duration>
                <rate>
                  <ntsc>false</ntsc>
                  <timebase>25</timebase>
                </rate>
                <in>60380</in>
                <out>60433</out>
                <start>60380</start>
                <end>60433</end>
                <file id="src-2"/>
                <sourcetrack>
                  <mediatype>video</mediatype>
                  <trackindex>1</trackindex>
                </sourcetrack>
                <multiclip id="mcs-819">
                  <name>MCS-819</name>
                  <masterclipid>clip-master</masterclipid>
                  <collapsed>false</collapsed>
                  <angle>
                    <activevideoangle>false</activevideoangle>
                    <activeaudioangle>false</activeaudioangle>
                    <clip id="clip-1"/>
                  </angle>
                  <angle>
                    <activevideoangle>true</activevideoangle>
                    <activeaudioangle>true</activeaudioangle>
                    <clip id="clip-2"/>
                  </angle>
                  <angle>
                    <activevideoangle>false</activevideoangle>
                    <activeaudioangle>false</activeaudioangle>
                    <clip id="clip-3"/>
                  </angle>
                  <angle>
                    <activevideoangle>false</activevideoangle>
                    <activeaudioangle>false</activeaudioangle>
                    <clip id="clip-4"/>
                  </angle>
                  <angle>
                    <activevideoangle>false</activevideoangle>
                    <activeaudioangle>false</activeaudioangle>
                    <clip id="clip-5"/>
                  </angle>
                  <angle>
                    <activevideoangle>false</activevideoangle>
                    <activeaudioangle>false</activeaudioangle>
                    <clip id="clip-6"/>
                  </angle>
                  <angle>
                    <activevideoangle>false</activevideoangle>
                    <activeaudioangle>false</activeaudioangle>
                    <clip id="clip-7"/>
                  </angle>
                  <angle>
                    <activevideoangle>false</activevideoangle>
                    <activeaudioangle>false</activeaudioangle>
                    <clip id="clip-8"/>
                  </angle>
                  <angle>
                    <activevideoangle>false</activevideoangle>
                    <activeaudioangle>false</activeaudioangle>
                    <clip id="clip-9"/>
                  </angle>
                  <masterclipid>clip-master</masterclipid>
                </multiclip>
              </clipitem>
              <clipitem id="cs-820">
                <duration>109</duration>
                <rate>
                  <ntsc>false</ntsc>
                  <timebase>25</timebase>
                </rate>
                <in>60433</in>
                <out>60541</out>
                <start>60433</start>
                <end>60541</end>
                <file id="src-4"/>
                <sourcetrack>
                  <mediatype>video</mediatype>
                  <trackindex>1</trackindex>
                </sourcetrack>
                <multiclip id="mcs-820">
                  <name>MCS-820</name>
                  <masterclipid>clip-master</masterclipid>
                  <collapsed>false</collapsed>
                  <angle>
                    <activevideoangle>false</activevideoangle>
                    <activeaudioangle>false</activeaudioangle>
                    <clip id="clip-1"/>
                  </angle>
                  <angle>
                    <activevideoangle>false</activevideoangle>
                    <activeaudioangle>false</activeaudioangle>
                    <clip id="clip-2"/>
                  </angle>
                  <angle>
                    <activevideoangle>false</activevideoangle>
                    <activeaudioangle>false</activeaudioangle>
                    <clip id="clip-3"/>
                  </angle>
                  <angle>
                    <activevideoangle>true</activevideoangle>
                    <activeaudioangle>true</activeaudioangle>
                    <clip id="clip-4"/>
                  </angle>
                  <angle>
                    <activevideoangle>false</activevideoangle>
                    <activeaudioangle>false</activeaudioangle>
                    <clip id="clip-5"/>
                  </angle>
                  <angle>
                    <activevideoangle>false</activevideoangle>
                    <activeaudioangle>false</activeaudioangle>
                    <clip id="clip-6"/>
                  </angle>
                  <angle>
                    <activevideoangle>false</activevideoangle>
                    <activeaudioangle>false</activeaudioangle>
                    <clip id="clip-7"/>
                  </angle>
                  <angle>
                    <activevideoangle>false</activevideoangle>
                    <activeaudioangle>false</activeaudioangle>
                    <clip id="clip-8"/>
                  </angle>
                  <angle>
                    <activevideoangle>false</activevideoangle>
                    <activeaudioangle>false</activeaudioangle>
                    <clip id="clip-9"/>
                  </angle>
                  <masterclipid>clip-master</masterclipid>
                </multiclip>
              </clipitem>
              <clipitem id="cs-821">
                <duration>63</duration>
                <rate>
                  <ntsc>false</ntsc>
                  <timebase>25</timebase>
                </rate>
                <in>60541</in>
                <out>60603</out>
                <start>60541</start>
                <end>60603</end>
                <file id="src-3"/>
                <sourcetrack>
                  <mediatype>video</mediatype>
                  <trackindex>1</trackindex>
                </sourcetrack>
                <multiclip id="mcs-821">
                  <name>MCS-821</name>
                  <masterclipid>clip-master</masterclipid>
                  <collapsed>false</collapsed>
                  <angle>
                    <activevideoangle>false</activevideoangle>
                    <activeaudioangle>false</activeaudioangle>
                    <clip id="clip-1"/>
                  </angle>
                  <angle>
                    <activevideoangle>false</activevideoangle>
                    <activeaudioangle>false</activeaudioangle>
                    <clip id="clip-2"/>
                  </angle>
                  <angle>
                    <activevideoangle>true</activevideoangle>
                    <activeaudioangle>true</activeaudioangle>
                    <clip id="clip-3"/>
                  </angle>
                  <angle>
                    <activevideoangle>false</activevideoangle>
                    <activeaudioangle>false</activeaudioangle>
                    <clip id="clip-4"/>
                  </angle>
                  <angle>
                    <activevideoangle>false</activevideoangle>
                    <activeaudioangle>false</activeaudioangle>
                    <clip id="clip-5"/>
                  </angle>
                  <angle>
                    <activevideoangle>false</activevideoangle>
                    <activeaudioangle>false</activeaudioangle>
                    <clip id="clip-6"/>
                  </angle>
                  <angle>
                    <activevideoangle>false</activevideoangle>
                    <activeaudioangle>false</activeaudioangle>
                    <clip id="clip-7"/>
                  </angle>
                  <angle>
                    <activevideoangle>false</activevideoangle>
                    <activeaudioangle>false</activeaudioangle>
                    <clip id="clip-8"/>
                  </angle>
                  <angle>
                    <activevideoangle>false</activevideoangle>
                    <activeaudioangle>false</activeaudioangle>
                    <clip id="clip-9"/>
                  </angle>
                  <masterclipid>clip-master</masterclipid>
                </multiclip>
              </clipitem>
              <clipitem id="cs-822">
                <duration>133</duration>
                <rate>
                  <ntsc>false</ntsc>
                  <timebase>25</timebase>
                </rate>
                <in>60603</in>
                <out>60735</out>
                <start>60603</start>
                <end>60735</end>
                <file id="src-2"/>
                <sourcetrack>
                  <mediatype>video</mediatype>
                  <trackindex>1</trackindex>
                </sourcetrack>
                <multiclip id="mcs-822">
                  <name>MCS-822</name>
                  <masterclipid>clip-master</masterclipid>
                  <collapsed>false</collapsed>
                  <angle>
                    <activevideoangle>false</activevideoangle>
                    <activeaudioangle>false</activeaudioangle>
                    <clip id="clip-1"/>
                  </angle>
                  <angle>
                    <activevideoangle>true</activevideoangle>
                    <activeaudioangle>true</activeaudioangle>
                    <clip id="clip-2"/>
                  </angle>
                  <angle>
                    <activevideoangle>false</activevideoangle>
                    <activeaudioangle>false</activeaudioangle>
                    <clip id="clip-3"/>
                  </angle>
                  <angle>
                    <activevideoangle>false</activevideoangle>
                    <activeaudioangle>false</activeaudioangle>
                    <clip id="clip-4"/>
                  </angle>
                  <angle>
                    <activevideoangle>false</activevideoangle>
                    <activeaudioangle>false</activeaudioangle>
                    <clip id="clip-5"/>
                  </angle>
                  <angle>
                    <activevideoangle>false</activevideoangle>
                    <activeaudioangle>false</activeaudioangle>
                    <clip id="clip-6"/>
                  </angle>
                  <angle>
                    <activevideoangle>false</activevideoangle>
                    <activeaudioangle>false</activeaudioangle>
                    <clip id="clip-7"/>
                  </angle>
                  <angle>
                    <activevideoangle>false</activevideoangle>
                    <activeaudioangle>false</activeaudioangle>
                    <clip id="clip-8"/>
                  </angle>
                  <angle>
                    <activevideoangle>false</activevideoangle>
                    <activeaudioangle>false</activeaudioangle>
                    <clip id="clip-9"/>
                  </angle>
                  <masterclipid>clip-master</masterclipid>
                </multiclip>
              </clipitem>
              <clipitem id="cs-823">
                <duration>55</duration>
                <rate>
                  <ntsc>false</ntsc>
                  <timebase>25</timebase>
                </rate>
                <in>60735</in>
                <out>60789</out>
                <start>60735</start>
                <end>60789</end>
                <file id="src-4"/>
                <sourcetrack>
                  <mediatype>video</mediatype>
                  <trackindex>1</trackindex>
                </sourcetrack>
                <multiclip id="mcs-823">
                  <name>MCS-823</name>
                  <masterclipid>clip-master</masterclipid>
                  <collapsed>false</collapsed>
                  <angle>
                    <activevideoangle>false</activevideoangle>
                    <activeaudioangle>false</activeaudioangle>
                    <clip id="clip-1"/>
                  </angle>
                  <angle>
                    <activevideoangle>false</activevideoangle>
                    <activeaudioangle>false</activeaudioangle>
                    <clip id="clip-2"/>
                  </angle>
                  <angle>
                    <activevideoangle>false</activevideoangle>
                    <activeaudioangle>false</activeaudioangle>
                    <clip id="clip-3"/>
                  </angle>
                  <angle>
                    <activevideoangle>true</activevideoangle>
                    <activeaudioangle>true</activeaudioangle>
                    <clip id="clip-4"/>
                  </angle>
                  <angle>
                    <activevideoangle>false</activevideoangle>
                    <activeaudioangle>false</activeaudioangle>
                    <clip id="clip-5"/>
                  </angle>
                  <angle>
                    <activevideoangle>false</activevideoangle>
                    <activeaudioangle>false</activeaudioangle>
                    <clip id="clip-6"/>
                  </angle>
                  <angle>
                    <activevideoangle>false</activevideoangle>
                    <activeaudioangle>false</activeaudioangle>
                    <clip id="clip-7"/>
                  </angle>
                  <angle>
                    <activevideoangle>false</activevideoangle>
                    <activeaudioangle>false</activeaudioangle>
                    <clip id="clip-8"/>
                  </angle>
                  <angle>
                    <activevideoangle>false</activevideoangle>
                    <activeaudioangle>false</activeaudioangle>
                    <clip id="clip-9"/>
                  </angle>
                  <masterclipid>clip-master</masterclipid>
                </multiclip>
              </clipitem>
              <clipitem id="cs-824">
                <duration>111</duration>
                <rate>
                  <ntsc>false</ntsc>
                  <timebase>25</timebase>
                </rate>
                <in>60789</in>
                <out>60899</out>
                <start>60789</start>
                <end>60899</end>
                <file id="src-5"/>
                <sourcetrack>
                  <mediatype>video</mediatype>
                  <trackindex>1</trackindex>
                </sourcetrack>
                <multiclip id="mcs-824">
                  <name>MCS-824</name>
                  <masterclipid>clip-master</masterclipid>
                  <collapsed>false</collapsed>
                  <angle>
                    <activevideoangle>false</activevideoangle>
                    <activeaudioangle>false</activeaudioangle>
                    <clip id="clip-1"/>
                  </angle>
                  <angle>
                    <activevideoangle>false</activevideoangle>
                    <activeaudioangle>false</activeaudioangle>
                    <clip id="clip-2"/>
                  </angle>
                  <angle>
                    <activevideoangle>false</activevideoangle>
                    <activeaudioangle>false</activeaudioangle>
                    <clip id="clip-3"/>
                  </angle>
                  <angle>
                    <activevideoangle>false</activevideoangle>
                    <activeaudioangle>false</activeaudioangle>
                    <clip id="clip-4"/>
                  </angle>
                  <angle>
                    <activevideoangle>true</activevideoangle>
                    <activeaudioangle>true</activeaudioangle>
                    <clip id="clip-5"/>
                  </angle>
                  <angle>
                    <activevideoangle>false</activevideoangle>
                    <activeaudioangle>false</activeaudioangle>
                    <clip id="clip-6"/>
                  </angle>
                  <angle>
                    <activevideoangle>false</activevideoangle>
                    <activeaudioangle>false</activeaudioangle>
                    <clip id="clip-7"/>
                  </angle>
                  <angle>
                    <activevideoangle>false</activevideoangle>
                    <activeaudioangle>false</activeaudioangle>
                    <clip id="clip-8"/>
                  </angle>
                  <angle>
                    <activevideoangle>false</activevideoangle>
                    <activeaudioangle>false</activeaudioangle>
                    <clip id="clip-9"/>
                  </angle>
                  <masterclipid>clip-master</masterclipid>
                </multiclip>
              </clipitem>
              <clipitem id="cs-825">
                <duration>206</duration>
                <rate>
                  <ntsc>false</ntsc>
                  <timebase>25</timebase>
                </rate>
                <in>60899</in>
                <out>61104</out>
                <start>60899</start>
                <end>61104</end>
                <file id="src-3"/>
                <sourcetrack>
                  <mediatype>video</mediatype>
                  <trackindex>1</trackindex>
                </sourcetrack>
                <multiclip id="mcs-825">
                  <name>MCS-825</name>
                  <masterclipid>clip-master</masterclipid>
                  <collapsed>false</collapsed>
                  <angle>
                    <activevideoangle>false</activevideoangle>
                    <activeaudioangle>false</activeaudioangle>
                    <clip id="clip-1"/>
                  </angle>
                  <angle>
                    <activevideoangle>false</activevideoangle>
                    <activeaudioangle>false</activeaudioangle>
                    <clip id="clip-2"/>
                  </angle>
                  <angle>
                    <activevideoangle>true</activevideoangle>
                    <activeaudioangle>true</activeaudioangle>
                    <clip id="clip-3"/>
                  </angle>
                  <angle>
                    <activevideoangle>false</activevideoangle>
                    <activeaudioangle>false</activeaudioangle>
                    <clip id="clip-4"/>
                  </angle>
                  <angle>
                    <activevideoangle>false</activevideoangle>
                    <activeaudioangle>false</activeaudioangle>
                    <clip id="clip-5"/>
                  </angle>
                  <angle>
                    <activevideoangle>false</activevideoangle>
                    <activeaudioangle>false</activeaudioangle>
                    <clip id="clip-6"/>
                  </angle>
                  <angle>
                    <activevideoangle>false</activevideoangle>
                    <activeaudioangle>false</activeaudioangle>
                    <clip id="clip-7"/>
                  </angle>
                  <angle>
                    <activevideoangle>false</activevideoangle>
                    <activeaudioangle>false</activeaudioangle>
                    <clip id="clip-8"/>
                  </angle>
                  <angle>
                    <activevideoangle>false</activevideoangle>
                    <activeaudioangle>false</activeaudioangle>
                    <clip id="clip-9"/>
                  </angle>
                  <masterclipid>clip-master</masterclipid>
                </multiclip>
              </clipitem>
              <clipitem id="cs-826">
                <duration>169</duration>
                <rate>
                  <ntsc>false</ntsc>
                  <timebase>25</timebase>
                </rate>
                <in>61104</in>
                <out>61272</out>
                <start>61104</start>
                <end>61272</end>
                <file id="src-4"/>
                <sourcetrack>
                  <mediatype>video</mediatype>
                  <trackindex>1</trackindex>
                </sourcetrack>
                <multiclip id="mcs-826">
                  <name>MCS-826</name>
                  <masterclipid>clip-master</masterclipid>
                  <collapsed>false</collapsed>
                  <angle>
                    <activevideoangle>false</activevideoangle>
                    <activeaudioangle>false</activeaudioangle>
                    <clip id="clip-1"/>
                  </angle>
                  <angle>
                    <activevideoangle>false</activevideoangle>
                    <activeaudioangle>false</activeaudioangle>
                    <clip id="clip-2"/>
                  </angle>
                  <angle>
                    <activevideoangle>false</activevideoangle>
                    <activeaudioangle>false</activeaudioangle>
                    <clip id="clip-3"/>
                  </angle>
                  <angle>
                    <activevideoangle>true</activevideoangle>
                    <activeaudioangle>true</activeaudioangle>
                    <clip id="clip-4"/>
                  </angle>
                  <angle>
                    <activevideoangle>false</activevideoangle>
                    <activeaudioangle>false</activeaudioangle>
                    <clip id="clip-5"/>
                  </angle>
                  <angle>
                    <activevideoangle>false</activevideoangle>
                    <activeaudioangle>false</activeaudioangle>
                    <clip id="clip-6"/>
                  </angle>
                  <angle>
                    <activevideoangle>false</activevideoangle>
                    <activeaudioangle>false</activeaudioangle>
                    <clip id="clip-7"/>
                  </angle>
                  <angle>
                    <activevideoangle>false</activevideoangle>
                    <activeaudioangle>false</activeaudioangle>
                    <clip id="clip-8"/>
                  </angle>
                  <angle>
                    <activevideoangle>false</activevideoangle>
                    <activeaudioangle>false</activeaudioangle>
                    <clip id="clip-9"/>
                  </angle>
                  <masterclipid>clip-master</masterclipid>
                </multiclip>
              </clipitem>
              <clipitem id="cs-827">
                <duration>117</duration>
                <rate>
                  <ntsc>false</ntsc>
                  <timebase>25</timebase>
                </rate>
                <in>61272</in>
                <out>61388</out>
                <start>61272</start>
                <end>61388</end>
                <file id="src-6"/>
                <sourcetrack>
                  <mediatype>video</mediatype>
                  <trackindex>1</trackindex>
                </sourcetrack>
                <multiclip id="mcs-827">
                  <name>MCS-827</name>
                  <masterclipid>clip-master</masterclipid>
                  <collapsed>false</collapsed>
                  <angle>
                    <activevideoangle>false</activevideoangle>
                    <activeaudioangle>false</activeaudioangle>
                    <clip id="clip-1"/>
                  </angle>
                  <angle>
                    <activevideoangle>false</activevideoangle>
                    <activeaudioangle>false</activeaudioangle>
                    <clip id="clip-2"/>
                  </angle>
                  <angle>
                    <activevideoangle>false</activevideoangle>
                    <activeaudioangle>false</activeaudioangle>
                    <clip id="clip-3"/>
                  </angle>
                  <angle>
                    <activevideoangle>false</activevideoangle>
                    <activeaudioangle>false</activeaudioangle>
                    <clip id="clip-4"/>
                  </angle>
                  <angle>
                    <activevideoangle>false</activevideoangle>
                    <activeaudioangle>false</activeaudioangle>
                    <clip id="clip-5"/>
                  </angle>
                  <angle>
                    <activevideoangle>true</activevideoangle>
                    <activeaudioangle>true</activeaudioangle>
                    <clip id="clip-6"/>
                  </angle>
                  <angle>
                    <activevideoangle>false</activevideoangle>
                    <activeaudioangle>false</activeaudioangle>
                    <clip id="clip-7"/>
                  </angle>
                  <angle>
                    <activevideoangle>false</activevideoangle>
                    <activeaudioangle>false</activeaudioangle>
                    <clip id="clip-8"/>
                  </angle>
                  <angle>
                    <activevideoangle>false</activevideoangle>
                    <activeaudioangle>false</activeaudioangle>
                    <clip id="clip-9"/>
                  </angle>
                  <masterclipid>clip-master</masterclipid>
                </multiclip>
              </clipitem>
              <clipitem id="cs-828">
                <duration>167</duration>
                <rate>
                  <ntsc>false</ntsc>
                  <timebase>25</timebase>
                </rate>
                <in>61388</in>
                <out>61554</out>
                <start>61388</start>
                <end>61554</end>
                <file id="src-3"/>
                <sourcetrack>
                  <mediatype>video</mediatype>
                  <trackindex>1</trackindex>
                </sourcetrack>
                <multiclip id="mcs-828">
                  <name>MCS-828</name>
                  <masterclipid>clip-master</masterclipid>
                  <collapsed>false</collapsed>
                  <angle>
                    <activevideoangle>false</activevideoangle>
                    <activeaudioangle>false</activeaudioangle>
                    <clip id="clip-1"/>
                  </angle>
                  <angle>
                    <activevideoangle>false</activevideoangle>
                    <activeaudioangle>false</activeaudioangle>
                    <clip id="clip-2"/>
                  </angle>
                  <angle>
                    <activevideoangle>true</activevideoangle>
                    <activeaudioangle>true</activeaudioangle>
                    <clip id="clip-3"/>
                  </angle>
                  <angle>
                    <activevideoangle>false</activevideoangle>
                    <activeaudioangle>false</activeaudioangle>
                    <clip id="clip-4"/>
                  </angle>
                  <angle>
                    <activevideoangle>false</activevideoangle>
                    <activeaudioangle>false</activeaudioangle>
                    <clip id="clip-5"/>
                  </angle>
                  <angle>
                    <activevideoangle>false</activevideoangle>
                    <activeaudioangle>false</activeaudioangle>
                    <clip id="clip-6"/>
                  </angle>
                  <angle>
                    <activevideoangle>false</activevideoangle>
                    <activeaudioangle>false</activeaudioangle>
                    <clip id="clip-7"/>
                  </angle>
                  <angle>
                    <activevideoangle>false</activevideoangle>
                    <activeaudioangle>false</activeaudioangle>
                    <clip id="clip-8"/>
                  </angle>
                  <angle>
                    <activevideoangle>false</activevideoangle>
                    <activeaudioangle>false</activeaudioangle>
                    <clip id="clip-9"/>
                  </angle>
                  <masterclipid>clip-master</masterclipid>
                </multiclip>
              </clipitem>
              <clipitem id="cs-829">
                <duration>161</duration>
                <rate>
                  <ntsc>false</ntsc>
                  <timebase>25</timebase>
                </rate>
                <in>61554</in>
                <out>61714</out>
                <start>61554</start>
                <end>61714</end>
                <file id="src-4"/>
                <sourcetrack>
                  <mediatype>video</mediatype>
                  <trackindex>1</trackindex>
                </sourcetrack>
                <multiclip id="mcs-829">
                  <name>MCS-829</name>
                  <masterclipid>clip-master</masterclipid>
                  <collapsed>false</collapsed>
                  <angle>
                    <activevideoangle>false</activevideoangle>
                    <activeaudioangle>false</activeaudioangle>
                    <clip id="clip-1"/>
                  </angle>
                  <angle>
                    <activevideoangle>false</activevideoangle>
                    <activeaudioangle>false</activeaudioangle>
                    <clip id="clip-2"/>
                  </angle>
                  <angle>
                    <activevideoangle>false</activevideoangle>
                    <activeaudioangle>false</activeaudioangle>
                    <clip id="clip-3"/>
                  </angle>
                  <angle>
                    <activevideoangle>true</activevideoangle>
                    <activeaudioangle>true</activeaudioangle>
                    <clip id="clip-4"/>
                  </angle>
                  <angle>
                    <activevideoangle>false</activevideoangle>
                    <activeaudioangle>false</activeaudioangle>
                    <clip id="clip-5"/>
                  </angle>
                  <angle>
                    <activevideoangle>false</activevideoangle>
                    <activeaudioangle>false</activeaudioangle>
                    <clip id="clip-6"/>
                  </angle>
                  <angle>
                    <activevideoangle>false</activevideoangle>
                    <activeaudioangle>false</activeaudioangle>
                    <clip id="clip-7"/>
                  </angle>
                  <angle>
                    <activevideoangle>false</activevideoangle>
                    <activeaudioangle>false</activeaudioangle>
                    <clip id="clip-8"/>
                  </angle>
                  <angle>
                    <activevideoangle>false</activevideoangle>
                    <activeaudioangle>false</activeaudioangle>
                    <clip id="clip-9"/>
                  </angle>
                  <masterclipid>clip-master</masterclipid>
                </multiclip>
              </clipitem>
              <clipitem id="cs-830">
                <duration>149</duration>
                <rate>
                  <ntsc>false</ntsc>
                  <timebase>25</timebase>
                </rate>
                <in>61714</in>
                <out>61862</out>
                <start>61714</start>
                <end>61862</end>
                <file id="src-2"/>
                <sourcetrack>
                  <mediatype>video</mediatype>
                  <trackindex>1</trackindex>
                </sourcetrack>
                <multiclip id="mcs-830">
                  <name>MCS-830</name>
                  <masterclipid>clip-master</masterclipid>
                  <collapsed>false</collapsed>
                  <angle>
                    <activevideoangle>false</activevideoangle>
                    <activeaudioangle>false</activeaudioangle>
                    <clip id="clip-1"/>
                  </angle>
                  <angle>
                    <activevideoangle>true</activevideoangle>
                    <activeaudioangle>true</activeaudioangle>
                    <clip id="clip-2"/>
                  </angle>
                  <angle>
                    <activevideoangle>false</activevideoangle>
                    <activeaudioangle>false</activeaudioangle>
                    <clip id="clip-3"/>
                  </angle>
                  <angle>
                    <activevideoangle>false</activevideoangle>
                    <activeaudioangle>false</activeaudioangle>
                    <clip id="clip-4"/>
                  </angle>
                  <angle>
                    <activevideoangle>false</activevideoangle>
                    <activeaudioangle>false</activeaudioangle>
                    <clip id="clip-5"/>
                  </angle>
                  <angle>
                    <activevideoangle>false</activevideoangle>
                    <activeaudioangle>false</activeaudioangle>
                    <clip id="clip-6"/>
                  </angle>
                  <angle>
                    <activevideoangle>false</activevideoangle>
                    <activeaudioangle>false</activeaudioangle>
                    <clip id="clip-7"/>
                  </angle>
                  <angle>
                    <activevideoangle>false</activevideoangle>
                    <activeaudioangle>false</activeaudioangle>
                    <clip id="clip-8"/>
                  </angle>
                  <angle>
                    <activevideoangle>false</activevideoangle>
                    <activeaudioangle>false</activeaudioangle>
                    <clip id="clip-9"/>
                  </angle>
                  <masterclipid>clip-master</masterclipid>
                </multiclip>
              </clipitem>
              <clipitem id="cs-831">
                <duration>105</duration>
                <rate>
                  <ntsc>false</ntsc>
                  <timebase>25</timebase>
                </rate>
                <in>61862</in>
                <out>61966</out>
                <start>61862</start>
                <end>61966</end>
                <file id="src-3"/>
                <sourcetrack>
                  <mediatype>video</mediatype>
                  <trackindex>1</trackindex>
                </sourcetrack>
                <multiclip id="mcs-831">
                  <name>MCS-831</name>
                  <masterclipid>clip-master</masterclipid>
                  <collapsed>false</collapsed>
                  <angle>
                    <activevideoangle>false</activevideoangle>
                    <activeaudioangle>false</activeaudioangle>
                    <clip id="clip-1"/>
                  </angle>
                  <angle>
                    <activevideoangle>false</activevideoangle>
                    <activeaudioangle>false</activeaudioangle>
                    <clip id="clip-2"/>
                  </angle>
                  <angle>
                    <activevideoangle>true</activevideoangle>
                    <activeaudioangle>true</activeaudioangle>
                    <clip id="clip-3"/>
                  </angle>
                  <angle>
                    <activevideoangle>false</activevideoangle>
                    <activeaudioangle>false</activeaudioangle>
                    <clip id="clip-4"/>
                  </angle>
                  <angle>
                    <activevideoangle>false</activevideoangle>
                    <activeaudioangle>false</activeaudioangle>
                    <clip id="clip-5"/>
                  </angle>
                  <angle>
                    <activevideoangle>false</activevideoangle>
                    <activeaudioangle>false</activeaudioangle>
                    <clip id="clip-6"/>
                  </angle>
                  <angle>
                    <activevideoangle>false</activevideoangle>
                    <activeaudioangle>false</activeaudioangle>
                    <clip id="clip-7"/>
                  </angle>
                  <angle>
                    <activevideoangle>false</activevideoangle>
                    <activeaudioangle>false</activeaudioangle>
                    <clip id="clip-8"/>
                  </angle>
                  <angle>
                    <activevideoangle>false</activevideoangle>
                    <activeaudioangle>false</activeaudioangle>
                    <clip id="clip-9"/>
                  </angle>
                  <masterclipid>clip-master</masterclipid>
                </multiclip>
              </clipitem>
              <clipitem id="cs-832">
                <duration>76</duration>
                <rate>
                  <ntsc>false</ntsc>
                  <timebase>25</timebase>
                </rate>
                <in>61966</in>
                <out>62041</out>
                <start>61966</start>
                <end>62041</end>
                <file id="src-5"/>
                <sourcetrack>
                  <mediatype>video</mediatype>
                  <trackindex>1</trackindex>
                </sourcetrack>
                <multiclip id="mcs-832">
                  <name>MCS-832</name>
                  <masterclipid>clip-master</masterclipid>
                  <collapsed>false</collapsed>
                  <angle>
                    <activevideoangle>false</activevideoangle>
                    <activeaudioangle>false</activeaudioangle>
                    <clip id="clip-1"/>
                  </angle>
                  <angle>
                    <activevideoangle>false</activevideoangle>
                    <activeaudioangle>false</activeaudioangle>
                    <clip id="clip-2"/>
                  </angle>
                  <angle>
                    <activevideoangle>false</activevideoangle>
                    <activeaudioangle>false</activeaudioangle>
                    <clip id="clip-3"/>
                  </angle>
                  <angle>
                    <activevideoangle>false</activevideoangle>
                    <activeaudioangle>false</activeaudioangle>
                    <clip id="clip-4"/>
                  </angle>
                  <angle>
                    <activevideoangle>true</activevideoangle>
                    <activeaudioangle>true</activeaudioangle>
                    <clip id="clip-5"/>
                  </angle>
                  <angle>
                    <activevideoangle>false</activevideoangle>
                    <activeaudioangle>false</activeaudioangle>
                    <clip id="clip-6"/>
                  </angle>
                  <angle>
                    <activevideoangle>false</activevideoangle>
                    <activeaudioangle>false</activeaudioangle>
                    <clip id="clip-7"/>
                  </angle>
                  <angle>
                    <activevideoangle>false</activevideoangle>
                    <activeaudioangle>false</activeaudioangle>
                    <clip id="clip-8"/>
                  </angle>
                  <angle>
                    <activevideoangle>false</activevideoangle>
                    <activeaudioangle>false</activeaudioangle>
                    <clip id="clip-9"/>
                  </angle>
                  <masterclipid>clip-master</masterclipid>
                </multiclip>
              </clipitem>
              <clipitem id="cs-833">
                <duration>117</duration>
                <rate>
                  <ntsc>false</ntsc>
                  <timebase>25</timebase>
                </rate>
                <in>62041</in>
                <out>62157</out>
                <start>62041</start>
                <end>62157</end>
                <file id="src-1"/>
                <sourcetrack>
                  <mediatype>video</mediatype>
                  <trackindex>1</trackindex>
                </sourcetrack>
                <multiclip id="mcs-833">
                  <name>MCS-833</name>
                  <masterclipid>clip-master</masterclipid>
                  <collapsed>false</collapsed>
                  <angle>
                    <activevideoangle>true</activevideoangle>
                    <activeaudioangle>true</activeaudioangle>
                    <clip id="clip-1"/>
                  </angle>
                  <angle>
                    <activevideoangle>false</activevideoangle>
                    <activeaudioangle>false</activeaudioangle>
                    <clip id="clip-2"/>
                  </angle>
                  <angle>
                    <activevideoangle>false</activevideoangle>
                    <activeaudioangle>false</activeaudioangle>
                    <clip id="clip-3"/>
                  </angle>
                  <angle>
                    <activevideoangle>false</activevideoangle>
                    <activeaudioangle>false</activeaudioangle>
                    <clip id="clip-4"/>
                  </angle>
                  <angle>
                    <activevideoangle>false</activevideoangle>
                    <activeaudioangle>false</activeaudioangle>
                    <clip id="clip-5"/>
                  </angle>
                  <angle>
                    <activevideoangle>false</activevideoangle>
                    <activeaudioangle>false</activeaudioangle>
                    <clip id="clip-6"/>
                  </angle>
                  <angle>
                    <activevideoangle>false</activevideoangle>
                    <activeaudioangle>false</activeaudioangle>
                    <clip id="clip-7"/>
                  </angle>
                  <angle>
                    <activevideoangle>false</activevideoangle>
                    <activeaudioangle>false</activeaudioangle>
                    <clip id="clip-8"/>
                  </angle>
                  <angle>
                    <activevideoangle>false</activevideoangle>
                    <activeaudioangle>false</activeaudioangle>
                    <clip id="clip-9"/>
                  </angle>
                  <masterclipid>clip-master</masterclipid>
                </multiclip>
              </clipitem>
              <clipitem id="cs-834">
                <duration>179</duration>
                <rate>
                  <ntsc>false</ntsc>
                  <timebase>25</timebase>
                </rate>
                <in>62157</in>
                <out>62335</out>
                <start>62157</start>
                <end>62335</end>
                <file id="src-3"/>
                <sourcetrack>
                  <mediatype>video</mediatype>
                  <trackindex>1</trackindex>
                </sourcetrack>
                <multiclip id="mcs-834">
                  <name>MCS-834</name>
                  <masterclipid>clip-master</masterclipid>
                  <collapsed>false</collapsed>
                  <angle>
                    <activevideoangle>false</activevideoangle>
                    <activeaudioangle>false</activeaudioangle>
                    <clip id="clip-1"/>
                  </angle>
                  <angle>
                    <activevideoangle>false</activevideoangle>
                    <activeaudioangle>false</activeaudioangle>
                    <clip id="clip-2"/>
                  </angle>
                  <angle>
                    <activevideoangle>true</activevideoangle>
                    <activeaudioangle>true</activeaudioangle>
                    <clip id="clip-3"/>
                  </angle>
                  <angle>
                    <activevideoangle>false</activevideoangle>
                    <activeaudioangle>false</activeaudioangle>
                    <clip id="clip-4"/>
                  </angle>
                  <angle>
                    <activevideoangle>false</activevideoangle>
                    <activeaudioangle>false</activeaudioangle>
                    <clip id="clip-5"/>
                  </angle>
                  <angle>
                    <activevideoangle>false</activevideoangle>
                    <activeaudioangle>false</activeaudioangle>
                    <clip id="clip-6"/>
                  </angle>
                  <angle>
                    <activevideoangle>false</activevideoangle>
                    <activeaudioangle>false</activeaudioangle>
                    <clip id="clip-7"/>
                  </angle>
                  <angle>
                    <activevideoangle>false</activevideoangle>
                    <activeaudioangle>false</activeaudioangle>
                    <clip id="clip-8"/>
                  </angle>
                  <angle>
                    <activevideoangle>false</activevideoangle>
                    <activeaudioangle>false</activeaudioangle>
                    <clip id="clip-9"/>
                  </angle>
                  <masterclipid>clip-master</masterclipid>
                </multiclip>
              </clipitem>
              <clipitem id="cs-835">
                <duration>212</duration>
                <rate>
                  <ntsc>false</ntsc>
                  <timebase>25</timebase>
                </rate>
                <in>62335</in>
                <out>62546</out>
                <start>62335</start>
                <end>62546</end>
                <file id="src-2"/>
                <sourcetrack>
                  <mediatype>video</mediatype>
                  <trackindex>1</trackindex>
                </sourcetrack>
                <multiclip id="mcs-835">
                  <name>MCS-835</name>
                  <masterclipid>clip-master</masterclipid>
                  <collapsed>false</collapsed>
                  <angle>
                    <activevideoangle>false</activevideoangle>
                    <activeaudioangle>false</activeaudioangle>
                    <clip id="clip-1"/>
                  </angle>
                  <angle>
                    <activevideoangle>true</activevideoangle>
                    <activeaudioangle>true</activeaudioangle>
                    <clip id="clip-2"/>
                  </angle>
                  <angle>
                    <activevideoangle>false</activevideoangle>
                    <activeaudioangle>false</activeaudioangle>
                    <clip id="clip-3"/>
                  </angle>
                  <angle>
                    <activevideoangle>false</activevideoangle>
                    <activeaudioangle>false</activeaudioangle>
                    <clip id="clip-4"/>
                  </angle>
                  <angle>
                    <activevideoangle>false</activevideoangle>
                    <activeaudioangle>false</activeaudioangle>
                    <clip id="clip-5"/>
                  </angle>
                  <angle>
                    <activevideoangle>false</activevideoangle>
                    <activeaudioangle>false</activeaudioangle>
                    <clip id="clip-6"/>
                  </angle>
                  <angle>
                    <activevideoangle>false</activevideoangle>
                    <activeaudioangle>false</activeaudioangle>
                    <clip id="clip-7"/>
                  </angle>
                  <angle>
                    <activevideoangle>false</activevideoangle>
                    <activeaudioangle>false</activeaudioangle>
                    <clip id="clip-8"/>
                  </angle>
                  <angle>
                    <activevideoangle>false</activevideoangle>
                    <activeaudioangle>false</activeaudioangle>
                    <clip id="clip-9"/>
                  </angle>
                  <masterclipid>clip-master</masterclipid>
                </multiclip>
              </clipitem>
              <clipitem id="cs-836">
                <duration>635</duration>
                <rate>
                  <ntsc>false</ntsc>
                  <timebase>25</timebase>
                </rate>
                <in>62546</in>
                <out>63180</out>
                <start>62546</start>
                <end>63180</end>
                <file id="src-3"/>
                <sourcetrack>
                  <mediatype>video</mediatype>
                  <trackindex>1</trackindex>
                </sourcetrack>
                <multiclip id="mcs-836">
                  <name>MCS-836</name>
                  <masterclipid>clip-master</masterclipid>
                  <collapsed>false</collapsed>
                  <angle>
                    <activevideoangle>false</activevideoangle>
                    <activeaudioangle>false</activeaudioangle>
                    <clip id="clip-1"/>
                  </angle>
                  <angle>
                    <activevideoangle>false</activevideoangle>
                    <activeaudioangle>false</activeaudioangle>
                    <clip id="clip-2"/>
                  </angle>
                  <angle>
                    <activevideoangle>true</activevideoangle>
                    <activeaudioangle>true</activeaudioangle>
                    <clip id="clip-3"/>
                  </angle>
                  <angle>
                    <activevideoangle>false</activevideoangle>
                    <activeaudioangle>false</activeaudioangle>
                    <clip id="clip-4"/>
                  </angle>
                  <angle>
                    <activevideoangle>false</activevideoangle>
                    <activeaudioangle>false</activeaudioangle>
                    <clip id="clip-5"/>
                  </angle>
                  <angle>
                    <activevideoangle>false</activevideoangle>
                    <activeaudioangle>false</activeaudioangle>
                    <clip id="clip-6"/>
                  </angle>
                  <angle>
                    <activevideoangle>false</activevideoangle>
                    <activeaudioangle>false</activeaudioangle>
                    <clip id="clip-7"/>
                  </angle>
                  <angle>
                    <activevideoangle>false</activevideoangle>
                    <activeaudioangle>false</activeaudioangle>
                    <clip id="clip-8"/>
                  </angle>
                  <angle>
                    <activevideoangle>false</activevideoangle>
                    <activeaudioangle>false</activeaudioangle>
                    <clip id="clip-9"/>
                  </angle>
                  <masterclipid>clip-master</masterclipid>
                </multiclip>
              </clipitem>
              <clipitem id="cs-837">
                <duration>377</duration>
                <rate>
                  <ntsc>false</ntsc>
                  <timebase>25</timebase>
                </rate>
                <in>63180</in>
                <out>63556</out>
                <start>63180</start>
                <end>63556</end>
                <file id="src-1"/>
                <sourcetrack>
                  <mediatype>video</mediatype>
                  <trackindex>1</trackindex>
                </sourcetrack>
                <multiclip id="mcs-837">
                  <name>MCS-837</name>
                  <masterclipid>clip-master</masterclipid>
                  <collapsed>false</collapsed>
                  <angle>
                    <activevideoangle>true</activevideoangle>
                    <activeaudioangle>true</activeaudioangle>
                    <clip id="clip-1"/>
                  </angle>
                  <angle>
                    <activevideoangle>false</activevideoangle>
                    <activeaudioangle>false</activeaudioangle>
                    <clip id="clip-2"/>
                  </angle>
                  <angle>
                    <activevideoangle>false</activevideoangle>
                    <activeaudioangle>false</activeaudioangle>
                    <clip id="clip-3"/>
                  </angle>
                  <angle>
                    <activevideoangle>false</activevideoangle>
                    <activeaudioangle>false</activeaudioangle>
                    <clip id="clip-4"/>
                  </angle>
                  <angle>
                    <activevideoangle>false</activevideoangle>
                    <activeaudioangle>false</activeaudioangle>
                    <clip id="clip-5"/>
                  </angle>
                  <angle>
                    <activevideoangle>false</activevideoangle>
                    <activeaudioangle>false</activeaudioangle>
                    <clip id="clip-6"/>
                  </angle>
                  <angle>
                    <activevideoangle>false</activevideoangle>
                    <activeaudioangle>false</activeaudioangle>
                    <clip id="clip-7"/>
                  </angle>
                  <angle>
                    <activevideoangle>false</activevideoangle>
                    <activeaudioangle>false</activeaudioangle>
                    <clip id="clip-8"/>
                  </angle>
                  <angle>
                    <activevideoangle>false</activevideoangle>
                    <activeaudioangle>false</activeaudioangle>
                    <clip id="clip-9"/>
                  </angle>
                  <masterclipid>clip-master</masterclipid>
                </multiclip>
              </clipitem>
              <clipitem id="cs-838">
                <duration>127</duration>
                <rate>
                  <ntsc>false</ntsc>
                  <timebase>25</timebase>
                </rate>
                <in>63556</in>
                <out>63682</out>
                <start>63556</start>
                <end>63682</end>
                <file id="src-6"/>
                <sourcetrack>
                  <mediatype>video</mediatype>
                  <trackindex>1</trackindex>
                </sourcetrack>
                <multiclip id="mcs-838">
                  <name>MCS-838</name>
                  <masterclipid>clip-master</masterclipid>
                  <collapsed>false</collapsed>
                  <angle>
                    <activevideoangle>false</activevideoangle>
                    <activeaudioangle>false</activeaudioangle>
                    <clip id="clip-1"/>
                  </angle>
                  <angle>
                    <activevideoangle>false</activevideoangle>
                    <activeaudioangle>false</activeaudioangle>
                    <clip id="clip-2"/>
                  </angle>
                  <angle>
                    <activevideoangle>false</activevideoangle>
                    <activeaudioangle>false</activeaudioangle>
                    <clip id="clip-3"/>
                  </angle>
                  <angle>
                    <activevideoangle>false</activevideoangle>
                    <activeaudioangle>false</activeaudioangle>
                    <clip id="clip-4"/>
                  </angle>
                  <angle>
                    <activevideoangle>false</activevideoangle>
                    <activeaudioangle>false</activeaudioangle>
                    <clip id="clip-5"/>
                  </angle>
                  <angle>
                    <activevideoangle>true</activevideoangle>
                    <activeaudioangle>true</activeaudioangle>
                    <clip id="clip-6"/>
                  </angle>
                  <angle>
                    <activevideoangle>false</activevideoangle>
                    <activeaudioangle>false</activeaudioangle>
                    <clip id="clip-7"/>
                  </angle>
                  <angle>
                    <activevideoangle>false</activevideoangle>
                    <activeaudioangle>false</activeaudioangle>
                    <clip id="clip-8"/>
                  </angle>
                  <angle>
                    <activevideoangle>false</activevideoangle>
                    <activeaudioangle>false</activeaudioangle>
                    <clip id="clip-9"/>
                  </angle>
                  <masterclipid>clip-master</masterclipid>
                </multiclip>
              </clipitem>
              <clipitem id="cs-839">
                <duration>148</duration>
                <rate>
                  <ntsc>false</ntsc>
                  <timebase>25</timebase>
                </rate>
                <in>63682</in>
                <out>63829</out>
                <start>63682</start>
                <end>63829</end>
                <file id="src-3"/>
                <sourcetrack>
                  <mediatype>video</mediatype>
                  <trackindex>1</trackindex>
                </sourcetrack>
                <multiclip id="mcs-839">
                  <name>MCS-839</name>
                  <masterclipid>clip-master</masterclipid>
                  <collapsed>false</collapsed>
                  <angle>
                    <activevideoangle>false</activevideoangle>
                    <activeaudioangle>false</activeaudioangle>
                    <clip id="clip-1"/>
                  </angle>
                  <angle>
                    <activevideoangle>false</activevideoangle>
                    <activeaudioangle>false</activeaudioangle>
                    <clip id="clip-2"/>
                  </angle>
                  <angle>
                    <activevideoangle>true</activevideoangle>
                    <activeaudioangle>true</activeaudioangle>
                    <clip id="clip-3"/>
                  </angle>
                  <angle>
                    <activevideoangle>false</activevideoangle>
                    <activeaudioangle>false</activeaudioangle>
                    <clip id="clip-4"/>
                  </angle>
                  <angle>
                    <activevideoangle>false</activevideoangle>
                    <activeaudioangle>false</activeaudioangle>
                    <clip id="clip-5"/>
                  </angle>
                  <angle>
                    <activevideoangle>false</activevideoangle>
                    <activeaudioangle>false</activeaudioangle>
                    <clip id="clip-6"/>
                  </angle>
                  <angle>
                    <activevideoangle>false</activevideoangle>
                    <activeaudioangle>false</activeaudioangle>
                    <clip id="clip-7"/>
                  </angle>
                  <angle>
                    <activevideoangle>false</activevideoangle>
                    <activeaudioangle>false</activeaudioangle>
                    <clip id="clip-8"/>
                  </angle>
                  <angle>
                    <activevideoangle>false</activevideoangle>
                    <activeaudioangle>false</activeaudioangle>
                    <clip id="clip-9"/>
                  </angle>
                  <masterclipid>clip-master</masterclipid>
                </multiclip>
              </clipitem>
              <clipitem id="cs-840">
                <duration>158</duration>
                <rate>
                  <ntsc>false</ntsc>
                  <timebase>25</timebase>
                </rate>
                <in>63829</in>
                <out>63986</out>
                <start>63829</start>
                <end>63986</end>
                <file id="src-4"/>
                <sourcetrack>
                  <mediatype>video</mediatype>
                  <trackindex>1</trackindex>
                </sourcetrack>
                <multiclip id="mcs-840">
                  <name>MCS-840</name>
                  <masterclipid>clip-master</masterclipid>
                  <collapsed>false</collapsed>
                  <angle>
                    <activevideoangle>false</activevideoangle>
                    <activeaudioangle>false</activeaudioangle>
                    <clip id="clip-1"/>
                  </angle>
                  <angle>
                    <activevideoangle>false</activevideoangle>
                    <activeaudioangle>false</activeaudioangle>
                    <clip id="clip-2"/>
                  </angle>
                  <angle>
                    <activevideoangle>false</activevideoangle>
                    <activeaudioangle>false</activeaudioangle>
                    <clip id="clip-3"/>
                  </angle>
                  <angle>
                    <activevideoangle>true</activevideoangle>
                    <activeaudioangle>true</activeaudioangle>
                    <clip id="clip-4"/>
                  </angle>
                  <angle>
                    <activevideoangle>false</activevideoangle>
                    <activeaudioangle>false</activeaudioangle>
                    <clip id="clip-5"/>
                  </angle>
                  <angle>
                    <activevideoangle>false</activevideoangle>
                    <activeaudioangle>false</activeaudioangle>
                    <clip id="clip-6"/>
                  </angle>
                  <angle>
                    <activevideoangle>false</activevideoangle>
                    <activeaudioangle>false</activeaudioangle>
                    <clip id="clip-7"/>
                  </angle>
                  <angle>
                    <activevideoangle>false</activevideoangle>
                    <activeaudioangle>false</activeaudioangle>
                    <clip id="clip-8"/>
                  </angle>
                  <angle>
                    <activevideoangle>false</activevideoangle>
                    <activeaudioangle>false</activeaudioangle>
                    <clip id="clip-9"/>
                  </angle>
                  <masterclipid>clip-master</masterclipid>
                </multiclip>
              </clipitem>
              <clipitem id="cs-841">
                <duration>514</duration>
                <rate>
                  <ntsc>false</ntsc>
                  <timebase>25</timebase>
                </rate>
                <in>63986</in>
                <out>64499</out>
                <start>63986</start>
                <end>64499</end>
                <file id="src-2"/>
                <sourcetrack>
                  <mediatype>video</mediatype>
                  <trackindex>1</trackindex>
                </sourcetrack>
                <multiclip id="mcs-841">
                  <name>MCS-841</name>
                  <masterclipid>clip-master</masterclipid>
                  <collapsed>false</collapsed>
                  <angle>
                    <activevideoangle>false</activevideoangle>
                    <activeaudioangle>false</activeaudioangle>
                    <clip id="clip-1"/>
                  </angle>
                  <angle>
                    <activevideoangle>true</activevideoangle>
                    <activeaudioangle>true</activeaudioangle>
                    <clip id="clip-2"/>
                  </angle>
                  <angle>
                    <activevideoangle>false</activevideoangle>
                    <activeaudioangle>false</activeaudioangle>
                    <clip id="clip-3"/>
                  </angle>
                  <angle>
                    <activevideoangle>false</activevideoangle>
                    <activeaudioangle>false</activeaudioangle>
                    <clip id="clip-4"/>
                  </angle>
                  <angle>
                    <activevideoangle>false</activevideoangle>
                    <activeaudioangle>false</activeaudioangle>
                    <clip id="clip-5"/>
                  </angle>
                  <angle>
                    <activevideoangle>false</activevideoangle>
                    <activeaudioangle>false</activeaudioangle>
                    <clip id="clip-6"/>
                  </angle>
                  <angle>
                    <activevideoangle>false</activevideoangle>
                    <activeaudioangle>false</activeaudioangle>
                    <clip id="clip-7"/>
                  </angle>
                  <angle>
                    <activevideoangle>false</activevideoangle>
                    <activeaudioangle>false</activeaudioangle>
                    <clip id="clip-8"/>
                  </angle>
                  <angle>
                    <activevideoangle>false</activevideoangle>
                    <activeaudioangle>false</activeaudioangle>
                    <clip id="clip-9"/>
                  </angle>
                  <masterclipid>clip-master</masterclipid>
                </multiclip>
              </clipitem>
              <clipitem id="cs-842">
                <duration>112</duration>
                <rate>
                  <ntsc>false</ntsc>
                  <timebase>25</timebase>
                </rate>
                <in>64499</in>
                <out>64610</out>
                <start>64499</start>
                <end>64610</end>
                <file id="src-4"/>
                <sourcetrack>
                  <mediatype>video</mediatype>
                  <trackindex>1</trackindex>
                </sourcetrack>
                <multiclip id="mcs-842">
                  <name>MCS-842</name>
                  <masterclipid>clip-master</masterclipid>
                  <collapsed>false</collapsed>
                  <angle>
                    <activevideoangle>false</activevideoangle>
                    <activeaudioangle>false</activeaudioangle>
                    <clip id="clip-1"/>
                  </angle>
                  <angle>
                    <activevideoangle>false</activevideoangle>
                    <activeaudioangle>false</activeaudioangle>
                    <clip id="clip-2"/>
                  </angle>
                  <angle>
                    <activevideoangle>false</activevideoangle>
                    <activeaudioangle>false</activeaudioangle>
                    <clip id="clip-3"/>
                  </angle>
                  <angle>
                    <activevideoangle>true</activevideoangle>
                    <activeaudioangle>true</activeaudioangle>
                    <clip id="clip-4"/>
                  </angle>
                  <angle>
                    <activevideoangle>false</activevideoangle>
                    <activeaudioangle>false</activeaudioangle>
                    <clip id="clip-5"/>
                  </angle>
                  <angle>
                    <activevideoangle>false</activevideoangle>
                    <activeaudioangle>false</activeaudioangle>
                    <clip id="clip-6"/>
                  </angle>
                  <angle>
                    <activevideoangle>false</activevideoangle>
                    <activeaudioangle>false</activeaudioangle>
                    <clip id="clip-7"/>
                  </angle>
                  <angle>
                    <activevideoangle>false</activevideoangle>
                    <activeaudioangle>false</activeaudioangle>
                    <clip id="clip-8"/>
                  </angle>
                  <angle>
                    <activevideoangle>false</activevideoangle>
                    <activeaudioangle>false</activeaudioangle>
                    <clip id="clip-9"/>
                  </angle>
                  <masterclipid>clip-master</masterclipid>
                </multiclip>
              </clipitem>
              <clipitem id="cs-843">
                <duration>100</duration>
                <rate>
                  <ntsc>false</ntsc>
                  <timebase>25</timebase>
                </rate>
                <in>64610</in>
                <out>64709</out>
                <start>64610</start>
                <end>64709</end>
                <file id="src-3"/>
                <sourcetrack>
                  <mediatype>video</mediatype>
                  <trackindex>1</trackindex>
                </sourcetrack>
                <multiclip id="mcs-843">
                  <name>MCS-843</name>
                  <masterclipid>clip-master</masterclipid>
                  <collapsed>false</collapsed>
                  <angle>
                    <activevideoangle>false</activevideoangle>
                    <activeaudioangle>false</activeaudioangle>
                    <clip id="clip-1"/>
                  </angle>
                  <angle>
                    <activevideoangle>false</activevideoangle>
                    <activeaudioangle>false</activeaudioangle>
                    <clip id="clip-2"/>
                  </angle>
                  <angle>
                    <activevideoangle>true</activevideoangle>
                    <activeaudioangle>true</activeaudioangle>
                    <clip id="clip-3"/>
                  </angle>
                  <angle>
                    <activevideoangle>false</activevideoangle>
                    <activeaudioangle>false</activeaudioangle>
                    <clip id="clip-4"/>
                  </angle>
                  <angle>
                    <activevideoangle>false</activevideoangle>
                    <activeaudioangle>false</activeaudioangle>
                    <clip id="clip-5"/>
                  </angle>
                  <angle>
                    <activevideoangle>false</activevideoangle>
                    <activeaudioangle>false</activeaudioangle>
                    <clip id="clip-6"/>
                  </angle>
                  <angle>
                    <activevideoangle>false</activevideoangle>
                    <activeaudioangle>false</activeaudioangle>
                    <clip id="clip-7"/>
                  </angle>
                  <angle>
                    <activevideoangle>false</activevideoangle>
                    <activeaudioangle>false</activeaudioangle>
                    <clip id="clip-8"/>
                  </angle>
                  <angle>
                    <activevideoangle>false</activevideoangle>
                    <activeaudioangle>false</activeaudioangle>
                    <clip id="clip-9"/>
                  </angle>
                  <masterclipid>clip-master</masterclipid>
                </multiclip>
              </clipitem>
              <clipitem id="cs-844">
                <duration>370</duration>
                <rate>
                  <ntsc>false</ntsc>
                  <timebase>25</timebase>
                </rate>
                <in>64709</in>
                <out>65078</out>
                <start>64709</start>
                <end>65078</end>
                <file id="src-2"/>
                <sourcetrack>
                  <mediatype>video</mediatype>
                  <trackindex>1</trackindex>
                </sourcetrack>
                <multiclip id="mcs-844">
                  <name>MCS-844</name>
                  <masterclipid>clip-master</masterclipid>
                  <collapsed>false</collapsed>
                  <angle>
                    <activevideoangle>false</activevideoangle>
                    <activeaudioangle>false</activeaudioangle>
                    <clip id="clip-1"/>
                  </angle>
                  <angle>
                    <activevideoangle>true</activevideoangle>
                    <activeaudioangle>true</activeaudioangle>
                    <clip id="clip-2"/>
                  </angle>
                  <angle>
                    <activevideoangle>false</activevideoangle>
                    <activeaudioangle>false</activeaudioangle>
                    <clip id="clip-3"/>
                  </angle>
                  <angle>
                    <activevideoangle>false</activevideoangle>
                    <activeaudioangle>false</activeaudioangle>
                    <clip id="clip-4"/>
                  </angle>
                  <angle>
                    <activevideoangle>false</activevideoangle>
                    <activeaudioangle>false</activeaudioangle>
                    <clip id="clip-5"/>
                  </angle>
                  <angle>
                    <activevideoangle>false</activevideoangle>
                    <activeaudioangle>false</activeaudioangle>
                    <clip id="clip-6"/>
                  </angle>
                  <angle>
                    <activevideoangle>false</activevideoangle>
                    <activeaudioangle>false</activeaudioangle>
                    <clip id="clip-7"/>
                  </angle>
                  <angle>
                    <activevideoangle>false</activevideoangle>
                    <activeaudioangle>false</activeaudioangle>
                    <clip id="clip-8"/>
                  </angle>
                  <angle>
                    <activevideoangle>false</activevideoangle>
                    <activeaudioangle>false</activeaudioangle>
                    <clip id="clip-9"/>
                  </angle>
                  <masterclipid>clip-master</masterclipid>
                </multiclip>
              </clipitem>
              <clipitem id="cs-845">
                <duration>123</duration>
                <rate>
                  <ntsc>false</ntsc>
                  <timebase>25</timebase>
                </rate>
                <in>65078</in>
                <out>65200</out>
                <start>65078</start>
                <end>65200</end>
                <file id="src-4"/>
                <sourcetrack>
                  <mediatype>video</mediatype>
                  <trackindex>1</trackindex>
                </sourcetrack>
                <multiclip id="mcs-845">
                  <name>MCS-845</name>
                  <masterclipid>clip-master</masterclipid>
                  <collapsed>false</collapsed>
                  <angle>
                    <activevideoangle>false</activevideoangle>
                    <activeaudioangle>false</activeaudioangle>
                    <clip id="clip-1"/>
                  </angle>
                  <angle>
                    <activevideoangle>false</activevideoangle>
                    <activeaudioangle>false</activeaudioangle>
                    <clip id="clip-2"/>
                  </angle>
                  <angle>
                    <activevideoangle>false</activevideoangle>
                    <activeaudioangle>false</activeaudioangle>
                    <clip id="clip-3"/>
                  </angle>
                  <angle>
                    <activevideoangle>true</activevideoangle>
                    <activeaudioangle>true</activeaudioangle>
                    <clip id="clip-4"/>
                  </angle>
                  <angle>
                    <activevideoangle>false</activevideoangle>
                    <activeaudioangle>false</activeaudioangle>
                    <clip id="clip-5"/>
                  </angle>
                  <angle>
                    <activevideoangle>false</activevideoangle>
                    <activeaudioangle>false</activeaudioangle>
                    <clip id="clip-6"/>
                  </angle>
                  <angle>
                    <activevideoangle>false</activevideoangle>
                    <activeaudioangle>false</activeaudioangle>
                    <clip id="clip-7"/>
                  </angle>
                  <angle>
                    <activevideoangle>false</activevideoangle>
                    <activeaudioangle>false</activeaudioangle>
                    <clip id="clip-8"/>
                  </angle>
                  <angle>
                    <activevideoangle>false</activevideoangle>
                    <activeaudioangle>false</activeaudioangle>
                    <clip id="clip-9"/>
                  </angle>
                  <masterclipid>clip-master</masterclipid>
                </multiclip>
              </clipitem>
              <clipitem id="cs-846">
                <duration>257</duration>
                <rate>
                  <ntsc>false</ntsc>
                  <timebase>25</timebase>
                </rate>
                <in>65200</in>
                <out>65456</out>
                <start>65200</start>
                <end>65456</end>
                <file id="src-3"/>
                <sourcetrack>
                  <mediatype>video</mediatype>
                  <trackindex>1</trackindex>
                </sourcetrack>
                <multiclip id="mcs-846">
                  <name>MCS-846</name>
                  <masterclipid>clip-master</masterclipid>
                  <collapsed>false</collapsed>
                  <angle>
                    <activevideoangle>false</activevideoangle>
                    <activeaudioangle>false</activeaudioangle>
                    <clip id="clip-1"/>
                  </angle>
                  <angle>
                    <activevideoangle>false</activevideoangle>
                    <activeaudioangle>false</activeaudioangle>
                    <clip id="clip-2"/>
                  </angle>
                  <angle>
                    <activevideoangle>true</activevideoangle>
                    <activeaudioangle>true</activeaudioangle>
                    <clip id="clip-3"/>
                  </angle>
                  <angle>
                    <activevideoangle>false</activevideoangle>
                    <activeaudioangle>false</activeaudioangle>
                    <clip id="clip-4"/>
                  </angle>
                  <angle>
                    <activevideoangle>false</activevideoangle>
                    <activeaudioangle>false</activeaudioangle>
                    <clip id="clip-5"/>
                  </angle>
                  <angle>
                    <activevideoangle>false</activevideoangle>
                    <activeaudioangle>false</activeaudioangle>
                    <clip id="clip-6"/>
                  </angle>
                  <angle>
                    <activevideoangle>false</activevideoangle>
                    <activeaudioangle>false</activeaudioangle>
                    <clip id="clip-7"/>
                  </angle>
                  <angle>
                    <activevideoangle>false</activevideoangle>
                    <activeaudioangle>false</activeaudioangle>
                    <clip id="clip-8"/>
                  </angle>
                  <angle>
                    <activevideoangle>false</activevideoangle>
                    <activeaudioangle>false</activeaudioangle>
                    <clip id="clip-9"/>
                  </angle>
                  <masterclipid>clip-master</masterclipid>
                </multiclip>
              </clipitem>
              <clipitem id="cs-847">
                <duration>328</duration>
                <rate>
                  <ntsc>false</ntsc>
                  <timebase>25</timebase>
                </rate>
                <in>65456</in>
                <out>65783</out>
                <start>65456</start>
                <end>65783</end>
                <file id="src-4"/>
                <sourcetrack>
                  <mediatype>video</mediatype>
                  <trackindex>1</trackindex>
                </sourcetrack>
                <multiclip id="mcs-847">
                  <name>MCS-847</name>
                  <masterclipid>clip-master</masterclipid>
                  <collapsed>false</collapsed>
                  <angle>
                    <activevideoangle>false</activevideoangle>
                    <activeaudioangle>false</activeaudioangle>
                    <clip id="clip-1"/>
                  </angle>
                  <angle>
                    <activevideoangle>false</activevideoangle>
                    <activeaudioangle>false</activeaudioangle>
                    <clip id="clip-2"/>
                  </angle>
                  <angle>
                    <activevideoangle>false</activevideoangle>
                    <activeaudioangle>false</activeaudioangle>
                    <clip id="clip-3"/>
                  </angle>
                  <angle>
                    <activevideoangle>true</activevideoangle>
                    <activeaudioangle>true</activeaudioangle>
                    <clip id="clip-4"/>
                  </angle>
                  <angle>
                    <activevideoangle>false</activevideoangle>
                    <activeaudioangle>false</activeaudioangle>
                    <clip id="clip-5"/>
                  </angle>
                  <angle>
                    <activevideoangle>false</activevideoangle>
                    <activeaudioangle>false</activeaudioangle>
                    <clip id="clip-6"/>
                  </angle>
                  <angle>
                    <activevideoangle>false</activevideoangle>
                    <activeaudioangle>false</activeaudioangle>
                    <clip id="clip-7"/>
                  </angle>
                  <angle>
                    <activevideoangle>false</activevideoangle>
                    <activeaudioangle>false</activeaudioangle>
                    <clip id="clip-8"/>
                  </angle>
                  <angle>
                    <activevideoangle>false</activevideoangle>
                    <activeaudioangle>false</activeaudioangle>
                    <clip id="clip-9"/>
                  </angle>
                  <masterclipid>clip-master</masterclipid>
                </multiclip>
              </clipitem>
              <clipitem id="cs-848">
                <duration>227</duration>
                <rate>
                  <ntsc>false</ntsc>
                  <timebase>25</timebase>
                </rate>
                <in>65783</in>
                <out>66009</out>
                <start>65783</start>
                <end>66009</end>
                <file id="src-3"/>
                <sourcetrack>
                  <mediatype>video</mediatype>
                  <trackindex>1</trackindex>
                </sourcetrack>
                <multiclip id="mcs-848">
                  <name>MCS-848</name>
                  <masterclipid>clip-master</masterclipid>
                  <collapsed>false</collapsed>
                  <angle>
                    <activevideoangle>false</activevideoangle>
                    <activeaudioangle>false</activeaudioangle>
                    <clip id="clip-1"/>
                  </angle>
                  <angle>
                    <activevideoangle>false</activevideoangle>
                    <activeaudioangle>false</activeaudioangle>
                    <clip id="clip-2"/>
                  </angle>
                  <angle>
                    <activevideoangle>true</activevideoangle>
                    <activeaudioangle>true</activeaudioangle>
                    <clip id="clip-3"/>
                  </angle>
                  <angle>
                    <activevideoangle>false</activevideoangle>
                    <activeaudioangle>false</activeaudioangle>
                    <clip id="clip-4"/>
                  </angle>
                  <angle>
                    <activevideoangle>false</activevideoangle>
                    <activeaudioangle>false</activeaudioangle>
                    <clip id="clip-5"/>
                  </angle>
                  <angle>
                    <activevideoangle>false</activevideoangle>
                    <activeaudioangle>false</activeaudioangle>
                    <clip id="clip-6"/>
                  </angle>
                  <angle>
                    <activevideoangle>false</activevideoangle>
                    <activeaudioangle>false</activeaudioangle>
                    <clip id="clip-7"/>
                  </angle>
                  <angle>
                    <activevideoangle>false</activevideoangle>
                    <activeaudioangle>false</activeaudioangle>
                    <clip id="clip-8"/>
                  </angle>
                  <angle>
                    <activevideoangle>false</activevideoangle>
                    <activeaudioangle>false</activeaudioangle>
                    <clip id="clip-9"/>
                  </angle>
                  <masterclipid>clip-master</masterclipid>
                </multiclip>
              </clipitem>
              <clipitem id="cs-849">
                <duration>230</duration>
                <rate>
                  <ntsc>false</ntsc>
                  <timebase>25</timebase>
                </rate>
                <in>66009</in>
                <out>66238</out>
                <start>66009</start>
                <end>66238</end>
                <file id="src-1"/>
                <sourcetrack>
                  <mediatype>video</mediatype>
                  <trackindex>1</trackindex>
                </sourcetrack>
                <multiclip id="mcs-849">
                  <name>MCS-849</name>
                  <masterclipid>clip-master</masterclipid>
                  <collapsed>false</collapsed>
                  <angle>
                    <activevideoangle>true</activevideoangle>
                    <activeaudioangle>true</activeaudioangle>
                    <clip id="clip-1"/>
                  </angle>
                  <angle>
                    <activevideoangle>false</activevideoangle>
                    <activeaudioangle>false</activeaudioangle>
                    <clip id="clip-2"/>
                  </angle>
                  <angle>
                    <activevideoangle>false</activevideoangle>
                    <activeaudioangle>false</activeaudioangle>
                    <clip id="clip-3"/>
                  </angle>
                  <angle>
                    <activevideoangle>false</activevideoangle>
                    <activeaudioangle>false</activeaudioangle>
                    <clip id="clip-4"/>
                  </angle>
                  <angle>
                    <activevideoangle>false</activevideoangle>
                    <activeaudioangle>false</activeaudioangle>
                    <clip id="clip-5"/>
                  </angle>
                  <angle>
                    <activevideoangle>false</activevideoangle>
                    <activeaudioangle>false</activeaudioangle>
                    <clip id="clip-6"/>
                  </angle>
                  <angle>
                    <activevideoangle>false</activevideoangle>
                    <activeaudioangle>false</activeaudioangle>
                    <clip id="clip-7"/>
                  </angle>
                  <angle>
                    <activevideoangle>false</activevideoangle>
                    <activeaudioangle>false</activeaudioangle>
                    <clip id="clip-8"/>
                  </angle>
                  <angle>
                    <activevideoangle>false</activevideoangle>
                    <activeaudioangle>false</activeaudioangle>
                    <clip id="clip-9"/>
                  </angle>
                  <masterclipid>clip-master</masterclipid>
                </multiclip>
              </clipitem>
              <clipitem id="cs-850">
                <duration>111</duration>
                <rate>
                  <ntsc>false</ntsc>
                  <timebase>25</timebase>
                </rate>
                <in>66238</in>
                <out>66348</out>
                <start>66238</start>
                <end>66348</end>
                <file id="src-4"/>
                <sourcetrack>
                  <mediatype>video</mediatype>
                  <trackindex>1</trackindex>
                </sourcetrack>
                <multiclip id="mcs-850">
                  <name>MCS-850</name>
                  <masterclipid>clip-master</masterclipid>
                  <collapsed>false</collapsed>
                  <angle>
                    <activevideoangle>false</activevideoangle>
                    <activeaudioangle>false</activeaudioangle>
                    <clip id="clip-1"/>
                  </angle>
                  <angle>
                    <activevideoangle>false</activevideoangle>
                    <activeaudioangle>false</activeaudioangle>
                    <clip id="clip-2"/>
                  </angle>
                  <angle>
                    <activevideoangle>false</activevideoangle>
                    <activeaudioangle>false</activeaudioangle>
                    <clip id="clip-3"/>
                  </angle>
                  <angle>
                    <activevideoangle>true</activevideoangle>
                    <activeaudioangle>true</activeaudioangle>
                    <clip id="clip-4"/>
                  </angle>
                  <angle>
                    <activevideoangle>false</activevideoangle>
                    <activeaudioangle>false</activeaudioangle>
                    <clip id="clip-5"/>
                  </angle>
                  <angle>
                    <activevideoangle>false</activevideoangle>
                    <activeaudioangle>false</activeaudioangle>
                    <clip id="clip-6"/>
                  </angle>
                  <angle>
                    <activevideoangle>false</activevideoangle>
                    <activeaudioangle>false</activeaudioangle>
                    <clip id="clip-7"/>
                  </angle>
                  <angle>
                    <activevideoangle>false</activevideoangle>
                    <activeaudioangle>false</activeaudioangle>
                    <clip id="clip-8"/>
                  </angle>
                  <angle>
                    <activevideoangle>false</activevideoangle>
                    <activeaudioangle>false</activeaudioangle>
                    <clip id="clip-9"/>
                  </angle>
                  <masterclipid>clip-master</masterclipid>
                </multiclip>
              </clipitem>
              <clipitem id="cs-851">
                <duration>127</duration>
                <rate>
                  <ntsc>false</ntsc>
                  <timebase>25</timebase>
                </rate>
                <in>66348</in>
                <out>66474</out>
                <start>66348</start>
                <end>66474</end>
                <file id="src-3"/>
                <sourcetrack>
                  <mediatype>video</mediatype>
                  <trackindex>1</trackindex>
                </sourcetrack>
                <multiclip id="mcs-851">
                  <name>MCS-851</name>
                  <masterclipid>clip-master</masterclipid>
                  <collapsed>false</collapsed>
                  <angle>
                    <activevideoangle>false</activevideoangle>
                    <activeaudioangle>false</activeaudioangle>
                    <clip id="clip-1"/>
                  </angle>
                  <angle>
                    <activevideoangle>false</activevideoangle>
                    <activeaudioangle>false</activeaudioangle>
                    <clip id="clip-2"/>
                  </angle>
                  <angle>
                    <activevideoangle>true</activevideoangle>
                    <activeaudioangle>true</activeaudioangle>
                    <clip id="clip-3"/>
                  </angle>
                  <angle>
                    <activevideoangle>false</activevideoangle>
                    <activeaudioangle>false</activeaudioangle>
                    <clip id="clip-4"/>
                  </angle>
                  <angle>
                    <activevideoangle>false</activevideoangle>
                    <activeaudioangle>false</activeaudioangle>
                    <clip id="clip-5"/>
                  </angle>
                  <angle>
                    <activevideoangle>false</activevideoangle>
                    <activeaudioangle>false</activeaudioangle>
                    <clip id="clip-6"/>
                  </angle>
                  <angle>
                    <activevideoangle>false</activevideoangle>
                    <activeaudioangle>false</activeaudioangle>
                    <clip id="clip-7"/>
                  </angle>
                  <angle>
                    <activevideoangle>false</activevideoangle>
                    <activeaudioangle>false</activeaudioangle>
                    <clip id="clip-8"/>
                  </angle>
                  <angle>
                    <activevideoangle>false</activevideoangle>
                    <activeaudioangle>false</activeaudioangle>
                    <clip id="clip-9"/>
                  </angle>
                  <masterclipid>clip-master</masterclipid>
                </multiclip>
              </clipitem>
              <clipitem id="cs-852">
                <duration>204</duration>
                <rate>
                  <ntsc>false</ntsc>
                  <timebase>25</timebase>
                </rate>
                <in>66474</in>
                <out>66677</out>
                <start>66474</start>
                <end>66677</end>
                <file id="src-4"/>
                <sourcetrack>
                  <mediatype>video</mediatype>
                  <trackindex>1</trackindex>
                </sourcetrack>
                <multiclip id="mcs-852">
                  <name>MCS-852</name>
                  <masterclipid>clip-master</masterclipid>
                  <collapsed>false</collapsed>
                  <angle>
                    <activevideoangle>false</activevideoangle>
                    <activeaudioangle>false</activeaudioangle>
                    <clip id="clip-1"/>
                  </angle>
                  <angle>
                    <activevideoangle>false</activevideoangle>
                    <activeaudioangle>false</activeaudioangle>
                    <clip id="clip-2"/>
                  </angle>
                  <angle>
                    <activevideoangle>false</activevideoangle>
                    <activeaudioangle>false</activeaudioangle>
                    <clip id="clip-3"/>
                  </angle>
                  <angle>
                    <activevideoangle>true</activevideoangle>
                    <activeaudioangle>true</activeaudioangle>
                    <clip id="clip-4"/>
                  </angle>
                  <angle>
                    <activevideoangle>false</activevideoangle>
                    <activeaudioangle>false</activeaudioangle>
                    <clip id="clip-5"/>
                  </angle>
                  <angle>
                    <activevideoangle>false</activevideoangle>
                    <activeaudioangle>false</activeaudioangle>
                    <clip id="clip-6"/>
                  </angle>
                  <angle>
                    <activevideoangle>false</activevideoangle>
                    <activeaudioangle>false</activeaudioangle>
                    <clip id="clip-7"/>
                  </angle>
                  <angle>
                    <activevideoangle>false</activevideoangle>
                    <activeaudioangle>false</activeaudioangle>
                    <clip id="clip-8"/>
                  </angle>
                  <angle>
                    <activevideoangle>false</activevideoangle>
                    <activeaudioangle>false</activeaudioangle>
                    <clip id="clip-9"/>
                  </angle>
                  <masterclipid>clip-master</masterclipid>
                </multiclip>
              </clipitem>
              <clipitem id="cs-853">
                <duration>111</duration>
                <rate>
                  <ntsc>false</ntsc>
                  <timebase>25</timebase>
                </rate>
                <in>66677</in>
                <out>66787</out>
                <start>66677</start>
                <end>66787</end>
                <file id="src-3"/>
                <sourcetrack>
                  <mediatype>video</mediatype>
                  <trackindex>1</trackindex>
                </sourcetrack>
                <multiclip id="mcs-853">
                  <name>MCS-853</name>
                  <masterclipid>clip-master</masterclipid>
                  <collapsed>false</collapsed>
                  <angle>
                    <activevideoangle>false</activevideoangle>
                    <activeaudioangle>false</activeaudioangle>
                    <clip id="clip-1"/>
                  </angle>
                  <angle>
                    <activevideoangle>false</activevideoangle>
                    <activeaudioangle>false</activeaudioangle>
                    <clip id="clip-2"/>
                  </angle>
                  <angle>
                    <activevideoangle>true</activevideoangle>
                    <activeaudioangle>true</activeaudioangle>
                    <clip id="clip-3"/>
                  </angle>
                  <angle>
                    <activevideoangle>false</activevideoangle>
                    <activeaudioangle>false</activeaudioangle>
                    <clip id="clip-4"/>
                  </angle>
                  <angle>
                    <activevideoangle>false</activevideoangle>
                    <activeaudioangle>false</activeaudioangle>
                    <clip id="clip-5"/>
                  </angle>
                  <angle>
                    <activevideoangle>false</activevideoangle>
                    <activeaudioangle>false</activeaudioangle>
                    <clip id="clip-6"/>
                  </angle>
                  <angle>
                    <activevideoangle>false</activevideoangle>
                    <activeaudioangle>false</activeaudioangle>
                    <clip id="clip-7"/>
                  </angle>
                  <angle>
                    <activevideoangle>false</activevideoangle>
                    <activeaudioangle>false</activeaudioangle>
                    <clip id="clip-8"/>
                  </angle>
                  <angle>
                    <activevideoangle>false</activevideoangle>
                    <activeaudioangle>false</activeaudioangle>
                    <clip id="clip-9"/>
                  </angle>
                  <masterclipid>clip-master</masterclipid>
                </multiclip>
              </clipitem>
              <clipitem id="cs-854">
                <duration>110</duration>
                <rate>
                  <ntsc>false</ntsc>
                  <timebase>25</timebase>
                </rate>
                <in>66787</in>
                <out>66896</out>
                <start>66787</start>
                <end>66896</end>
                <file id="src-2"/>
                <sourcetrack>
                  <mediatype>video</mediatype>
                  <trackindex>1</trackindex>
                </sourcetrack>
                <multiclip id="mcs-854">
                  <name>MCS-854</name>
                  <masterclipid>clip-master</masterclipid>
                  <collapsed>false</collapsed>
                  <angle>
                    <activevideoangle>false</activevideoangle>
                    <activeaudioangle>false</activeaudioangle>
                    <clip id="clip-1"/>
                  </angle>
                  <angle>
                    <activevideoangle>true</activevideoangle>
                    <activeaudioangle>true</activeaudioangle>
                    <clip id="clip-2"/>
                  </angle>
                  <angle>
                    <activevideoangle>false</activevideoangle>
                    <activeaudioangle>false</activeaudioangle>
                    <clip id="clip-3"/>
                  </angle>
                  <angle>
                    <activevideoangle>false</activevideoangle>
                    <activeaudioangle>false</activeaudioangle>
                    <clip id="clip-4"/>
                  </angle>
                  <angle>
                    <activevideoangle>false</activevideoangle>
                    <activeaudioangle>false</activeaudioangle>
                    <clip id="clip-5"/>
                  </angle>
                  <angle>
                    <activevideoangle>false</activevideoangle>
                    <activeaudioangle>false</activeaudioangle>
                    <clip id="clip-6"/>
                  </angle>
                  <angle>
                    <activevideoangle>false</activevideoangle>
                    <activeaudioangle>false</activeaudioangle>
                    <clip id="clip-7"/>
                  </angle>
                  <angle>
                    <activevideoangle>false</activevideoangle>
                    <activeaudioangle>false</activeaudioangle>
                    <clip id="clip-8"/>
                  </angle>
                  <angle>
                    <activevideoangle>false</activevideoangle>
                    <activeaudioangle>false</activeaudioangle>
                    <clip id="clip-9"/>
                  </angle>
                  <masterclipid>clip-master</masterclipid>
                </multiclip>
              </clipitem>
              <clipitem id="cs-855">
                <duration>142</duration>
                <rate>
                  <ntsc>false</ntsc>
                  <timebase>25</timebase>
                </rate>
                <in>66896</in>
                <out>67037</out>
                <start>66896</start>
                <end>67037</end>
                <file id="src-4"/>
                <sourcetrack>
                  <mediatype>video</mediatype>
                  <trackindex>1</trackindex>
                </sourcetrack>
                <multiclip id="mcs-855">
                  <name>MCS-855</name>
                  <masterclipid>clip-master</masterclipid>
                  <collapsed>false</collapsed>
                  <angle>
                    <activevideoangle>false</activevideoangle>
                    <activeaudioangle>false</activeaudioangle>
                    <clip id="clip-1"/>
                  </angle>
                  <angle>
                    <activevideoangle>false</activevideoangle>
                    <activeaudioangle>false</activeaudioangle>
                    <clip id="clip-2"/>
                  </angle>
                  <angle>
                    <activevideoangle>false</activevideoangle>
                    <activeaudioangle>false</activeaudioangle>
                    <clip id="clip-3"/>
                  </angle>
                  <angle>
                    <activevideoangle>true</activevideoangle>
                    <activeaudioangle>true</activeaudioangle>
                    <clip id="clip-4"/>
                  </angle>
                  <angle>
                    <activevideoangle>false</activevideoangle>
                    <activeaudioangle>false</activeaudioangle>
                    <clip id="clip-5"/>
                  </angle>
                  <angle>
                    <activevideoangle>false</activevideoangle>
                    <activeaudioangle>false</activeaudioangle>
                    <clip id="clip-6"/>
                  </angle>
                  <angle>
                    <activevideoangle>false</activevideoangle>
                    <activeaudioangle>false</activeaudioangle>
                    <clip id="clip-7"/>
                  </angle>
                  <angle>
                    <activevideoangle>false</activevideoangle>
                    <activeaudioangle>false</activeaudioangle>
                    <clip id="clip-8"/>
                  </angle>
                  <angle>
                    <activevideoangle>false</activevideoangle>
                    <activeaudioangle>false</activeaudioangle>
                    <clip id="clip-9"/>
                  </angle>
                  <masterclipid>clip-master</masterclipid>
                </multiclip>
              </clipitem>
              <clipitem id="cs-856">
                <duration>83</duration>
                <rate>
                  <ntsc>false</ntsc>
                  <timebase>25</timebase>
                </rate>
                <in>67037</in>
                <out>67119</out>
                <start>67037</start>
                <end>67119</end>
                <file id="src-3"/>
                <sourcetrack>
                  <mediatype>video</mediatype>
                  <trackindex>1</trackindex>
                </sourcetrack>
                <multiclip id="mcs-856">
                  <name>MCS-856</name>
                  <masterclipid>clip-master</masterclipid>
                  <collapsed>false</collapsed>
                  <angle>
                    <activevideoangle>false</activevideoangle>
                    <activeaudioangle>false</activeaudioangle>
                    <clip id="clip-1"/>
                  </angle>
                  <angle>
                    <activevideoangle>false</activevideoangle>
                    <activeaudioangle>false</activeaudioangle>
                    <clip id="clip-2"/>
                  </angle>
                  <angle>
                    <activevideoangle>true</activevideoangle>
                    <activeaudioangle>true</activeaudioangle>
                    <clip id="clip-3"/>
                  </angle>
                  <angle>
                    <activevideoangle>false</activevideoangle>
                    <activeaudioangle>false</activeaudioangle>
                    <clip id="clip-4"/>
                  </angle>
                  <angle>
                    <activevideoangle>false</activevideoangle>
                    <activeaudioangle>false</activeaudioangle>
                    <clip id="clip-5"/>
                  </angle>
                  <angle>
                    <activevideoangle>false</activevideoangle>
                    <activeaudioangle>false</activeaudioangle>
                    <clip id="clip-6"/>
                  </angle>
                  <angle>
                    <activevideoangle>false</activevideoangle>
                    <activeaudioangle>false</activeaudioangle>
                    <clip id="clip-7"/>
                  </angle>
                  <angle>
                    <activevideoangle>false</activevideoangle>
                    <activeaudioangle>false</activeaudioangle>
                    <clip id="clip-8"/>
                  </angle>
                  <angle>
                    <activevideoangle>false</activevideoangle>
                    <activeaudioangle>false</activeaudioangle>
                    <clip id="clip-9"/>
                  </angle>
                  <masterclipid>clip-master</masterclipid>
                </multiclip>
              </clipitem>
              <clipitem id="cs-857">
                <duration>199</duration>
                <rate>
                  <ntsc>false</ntsc>
                  <timebase>25</timebase>
                </rate>
                <in>67119</in>
                <out>67317</out>
                <start>67119</start>
                <end>67317</end>
                <file id="src-8"/>
                <sourcetrack>
                  <mediatype>video</mediatype>
                  <trackindex>1</trackindex>
                </sourcetrack>
                <multiclip id="mcs-857">
                  <name>MCS-857</name>
                  <masterclipid>clip-master</masterclipid>
                  <collapsed>false</collapsed>
                  <angle>
                    <activevideoangle>false</activevideoangle>
                    <activeaudioangle>false</activeaudioangle>
                    <clip id="clip-1"/>
                  </angle>
                  <angle>
                    <activevideoangle>false</activevideoangle>
                    <activeaudioangle>false</activeaudioangle>
                    <clip id="clip-2"/>
                  </angle>
                  <angle>
                    <activevideoangle>false</activevideoangle>
                    <activeaudioangle>false</activeaudioangle>
                    <clip id="clip-3"/>
                  </angle>
                  <angle>
                    <activevideoangle>false</activevideoangle>
                    <activeaudioangle>false</activeaudioangle>
                    <clip id="clip-4"/>
                  </angle>
                  <angle>
                    <activevideoangle>false</activevideoangle>
                    <activeaudioangle>false</activeaudioangle>
                    <clip id="clip-5"/>
                  </angle>
                  <angle>
                    <activevideoangle>false</activevideoangle>
                    <activeaudioangle>false</activeaudioangle>
                    <clip id="clip-6"/>
                  </angle>
                  <angle>
                    <activevideoangle>false</activevideoangle>
                    <activeaudioangle>false</activeaudioangle>
                    <clip id="clip-7"/>
                  </angle>
                  <angle>
                    <activevideoangle>true</activevideoangle>
                    <activeaudioangle>true</activeaudioangle>
                    <clip id="clip-8"/>
                  </angle>
                  <angle>
                    <activevideoangle>false</activevideoangle>
                    <activeaudioangle>false</activeaudioangle>
                    <clip id="clip-9"/>
                  </angle>
                  <masterclipid>clip-master</masterclipid>
                </multiclip>
              </clipitem>
              <clipitem id="cs-858">
                <duration>93</duration>
                <rate>
                  <ntsc>false</ntsc>
                  <timebase>25</timebase>
                </rate>
                <in>67317</in>
                <out>67409</out>
                <start>67317</start>
                <end>67409</end>
                <file id="src-3"/>
                <sourcetrack>
                  <mediatype>video</mediatype>
                  <trackindex>1</trackindex>
                </sourcetrack>
                <multiclip id="mcs-858">
                  <name>MCS-858</name>
                  <masterclipid>clip-master</masterclipid>
                  <collapsed>false</collapsed>
                  <angle>
                    <activevideoangle>false</activevideoangle>
                    <activeaudioangle>false</activeaudioangle>
                    <clip id="clip-1"/>
                  </angle>
                  <angle>
                    <activevideoangle>false</activevideoangle>
                    <activeaudioangle>false</activeaudioangle>
                    <clip id="clip-2"/>
                  </angle>
                  <angle>
                    <activevideoangle>true</activevideoangle>
                    <activeaudioangle>true</activeaudioangle>
                    <clip id="clip-3"/>
                  </angle>
                  <angle>
                    <activevideoangle>false</activevideoangle>
                    <activeaudioangle>false</activeaudioangle>
                    <clip id="clip-4"/>
                  </angle>
                  <angle>
                    <activevideoangle>false</activevideoangle>
                    <activeaudioangle>false</activeaudioangle>
                    <clip id="clip-5"/>
                  </angle>
                  <angle>
                    <activevideoangle>false</activevideoangle>
                    <activeaudioangle>false</activeaudioangle>
                    <clip id="clip-6"/>
                  </angle>
                  <angle>
                    <activevideoangle>false</activevideoangle>
                    <activeaudioangle>false</activeaudioangle>
                    <clip id="clip-7"/>
                  </angle>
                  <angle>
                    <activevideoangle>false</activevideoangle>
                    <activeaudioangle>false</activeaudioangle>
                    <clip id="clip-8"/>
                  </angle>
                  <angle>
                    <activevideoangle>false</activevideoangle>
                    <activeaudioangle>false</activeaudioangle>
                    <clip id="clip-9"/>
                  </angle>
                  <masterclipid>clip-master</masterclipid>
                </multiclip>
              </clipitem>
              <clipitem id="cs-859">
                <duration>57</duration>
                <rate>
                  <ntsc>false</ntsc>
                  <timebase>25</timebase>
                </rate>
                <in>67409</in>
                <out>67465</out>
                <start>67409</start>
                <end>67465</end>
                <file id="src-2"/>
                <sourcetrack>
                  <mediatype>video</mediatype>
                  <trackindex>1</trackindex>
                </sourcetrack>
                <multiclip id="mcs-859">
                  <name>MCS-859</name>
                  <masterclipid>clip-master</masterclipid>
                  <collapsed>false</collapsed>
                  <angle>
                    <activevideoangle>false</activevideoangle>
                    <activeaudioangle>false</activeaudioangle>
                    <clip id="clip-1"/>
                  </angle>
                  <angle>
                    <activevideoangle>true</activevideoangle>
                    <activeaudioangle>true</activeaudioangle>
                    <clip id="clip-2"/>
                  </angle>
                  <angle>
                    <activevideoangle>false</activevideoangle>
                    <activeaudioangle>false</activeaudioangle>
                    <clip id="clip-3"/>
                  </angle>
                  <angle>
                    <activevideoangle>false</activevideoangle>
                    <activeaudioangle>false</activeaudioangle>
                    <clip id="clip-4"/>
                  </angle>
                  <angle>
                    <activevideoangle>false</activevideoangle>
                    <activeaudioangle>false</activeaudioangle>
                    <clip id="clip-5"/>
                  </angle>
                  <angle>
                    <activevideoangle>false</activevideoangle>
                    <activeaudioangle>false</activeaudioangle>
                    <clip id="clip-6"/>
                  </angle>
                  <angle>
                    <activevideoangle>false</activevideoangle>
                    <activeaudioangle>false</activeaudioangle>
                    <clip id="clip-7"/>
                  </angle>
                  <angle>
                    <activevideoangle>false</activevideoangle>
                    <activeaudioangle>false</activeaudioangle>
                    <clip id="clip-8"/>
                  </angle>
                  <angle>
                    <activevideoangle>false</activevideoangle>
                    <activeaudioangle>false</activeaudioangle>
                    <clip id="clip-9"/>
                  </angle>
                  <masterclipid>clip-master</masterclipid>
                </multiclip>
              </clipitem>
              <clipitem id="cs-860">
                <duration>466</duration>
                <rate>
                  <ntsc>false</ntsc>
                  <timebase>25</timebase>
                </rate>
                <in>67465</in>
                <out>67930</out>
                <start>67465</start>
                <end>67930</end>
                <file id="src-4"/>
                <sourcetrack>
                  <mediatype>video</mediatype>
                  <trackindex>1</trackindex>
                </sourcetrack>
                <multiclip id="mcs-860">
                  <name>MCS-860</name>
                  <masterclipid>clip-master</masterclipid>
                  <collapsed>false</collapsed>
                  <angle>
                    <activevideoangle>false</activevideoangle>
                    <activeaudioangle>false</activeaudioangle>
                    <clip id="clip-1"/>
                  </angle>
                  <angle>
                    <activevideoangle>false</activevideoangle>
                    <activeaudioangle>false</activeaudioangle>
                    <clip id="clip-2"/>
                  </angle>
                  <angle>
                    <activevideoangle>false</activevideoangle>
                    <activeaudioangle>false</activeaudioangle>
                    <clip id="clip-3"/>
                  </angle>
                  <angle>
                    <activevideoangle>true</activevideoangle>
                    <activeaudioangle>true</activeaudioangle>
                    <clip id="clip-4"/>
                  </angle>
                  <angle>
                    <activevideoangle>false</activevideoangle>
                    <activeaudioangle>false</activeaudioangle>
                    <clip id="clip-5"/>
                  </angle>
                  <angle>
                    <activevideoangle>false</activevideoangle>
                    <activeaudioangle>false</activeaudioangle>
                    <clip id="clip-6"/>
                  </angle>
                  <angle>
                    <activevideoangle>false</activevideoangle>
                    <activeaudioangle>false</activeaudioangle>
                    <clip id="clip-7"/>
                  </angle>
                  <angle>
                    <activevideoangle>false</activevideoangle>
                    <activeaudioangle>false</activeaudioangle>
                    <clip id="clip-8"/>
                  </angle>
                  <angle>
                    <activevideoangle>false</activevideoangle>
                    <activeaudioangle>false</activeaudioangle>
                    <clip id="clip-9"/>
                  </angle>
                  <masterclipid>clip-master</masterclipid>
                </multiclip>
              </clipitem>
              <clipitem id="cs-861">
                <duration>129</duration>
                <rate>
                  <ntsc>false</ntsc>
                  <timebase>25</timebase>
                </rate>
                <in>67930</in>
                <out>68058</out>
                <start>67930</start>
                <end>68058</end>
                <file id="src-8"/>
                <sourcetrack>
                  <mediatype>video</mediatype>
                  <trackindex>1</trackindex>
                </sourcetrack>
                <multiclip id="mcs-861">
                  <name>MCS-861</name>
                  <masterclipid>clip-master</masterclipid>
                  <collapsed>false</collapsed>
                  <angle>
                    <activevideoangle>false</activevideoangle>
                    <activeaudioangle>false</activeaudioangle>
                    <clip id="clip-1"/>
                  </angle>
                  <angle>
                    <activevideoangle>false</activevideoangle>
                    <activeaudioangle>false</activeaudioangle>
                    <clip id="clip-2"/>
                  </angle>
                  <angle>
                    <activevideoangle>false</activevideoangle>
                    <activeaudioangle>false</activeaudioangle>
                    <clip id="clip-3"/>
                  </angle>
                  <angle>
                    <activevideoangle>false</activevideoangle>
                    <activeaudioangle>false</activeaudioangle>
                    <clip id="clip-4"/>
                  </angle>
                  <angle>
                    <activevideoangle>false</activevideoangle>
                    <activeaudioangle>false</activeaudioangle>
                    <clip id="clip-5"/>
                  </angle>
                  <angle>
                    <activevideoangle>false</activevideoangle>
                    <activeaudioangle>false</activeaudioangle>
                    <clip id="clip-6"/>
                  </angle>
                  <angle>
                    <activevideoangle>false</activevideoangle>
                    <activeaudioangle>false</activeaudioangle>
                    <clip id="clip-7"/>
                  </angle>
                  <angle>
                    <activevideoangle>true</activevideoangle>
                    <activeaudioangle>true</activeaudioangle>
                    <clip id="clip-8"/>
                  </angle>
                  <angle>
                    <activevideoangle>false</activevideoangle>
                    <activeaudioangle>false</activeaudioangle>
                    <clip id="clip-9"/>
                  </angle>
                  <masterclipid>clip-master</masterclipid>
                </multiclip>
              </clipitem>
              <clipitem id="cs-862">
                <duration>171</duration>
                <rate>
                  <ntsc>false</ntsc>
                  <timebase>25</timebase>
                </rate>
                <in>68058</in>
                <out>68228</out>
                <start>68058</start>
                <end>68228</end>
                <file id="src-3"/>
                <sourcetrack>
                  <mediatype>video</mediatype>
                  <trackindex>1</trackindex>
                </sourcetrack>
                <multiclip id="mcs-862">
                  <name>MCS-862</name>
                  <masterclipid>clip-master</masterclipid>
                  <collapsed>false</collapsed>
                  <angle>
                    <activevideoangle>false</activevideoangle>
                    <activeaudioangle>false</activeaudioangle>
                    <clip id="clip-1"/>
                  </angle>
                  <angle>
                    <activevideoangle>false</activevideoangle>
                    <activeaudioangle>false</activeaudioangle>
                    <clip id="clip-2"/>
                  </angle>
                  <angle>
                    <activevideoangle>true</activevideoangle>
                    <activeaudioangle>true</activeaudioangle>
                    <clip id="clip-3"/>
                  </angle>
                  <angle>
                    <activevideoangle>false</activevideoangle>
                    <activeaudioangle>false</activeaudioangle>
                    <clip id="clip-4"/>
                  </angle>
                  <angle>
                    <activevideoangle>false</activevideoangle>
                    <activeaudioangle>false</activeaudioangle>
                    <clip id="clip-5"/>
                  </angle>
                  <angle>
                    <activevideoangle>false</activevideoangle>
                    <activeaudioangle>false</activeaudioangle>
                    <clip id="clip-6"/>
                  </angle>
                  <angle>
                    <activevideoangle>false</activevideoangle>
                    <activeaudioangle>false</activeaudioangle>
                    <clip id="clip-7"/>
                  </angle>
                  <angle>
                    <activevideoangle>false</activevideoangle>
                    <activeaudioangle>false</activeaudioangle>
                    <clip id="clip-8"/>
                  </angle>
                  <angle>
                    <activevideoangle>false</activevideoangle>
                    <activeaudioangle>false</activeaudioangle>
                    <clip id="clip-9"/>
                  </angle>
                  <masterclipid>clip-master</masterclipid>
                </multiclip>
              </clipitem>
              <clipitem id="cs-863">
                <duration>258</duration>
                <rate>
                  <ntsc>false</ntsc>
                  <timebase>25</timebase>
                </rate>
                <in>68228</in>
                <out>68485</out>
                <start>68228</start>
                <end>68485</end>
                <file id="src-4"/>
                <sourcetrack>
                  <mediatype>video</mediatype>
                  <trackindex>1</trackindex>
                </sourcetrack>
                <multiclip id="mcs-863">
                  <name>MCS-863</name>
                  <masterclipid>clip-master</masterclipid>
                  <collapsed>false</collapsed>
                  <angle>
                    <activevideoangle>false</activevideoangle>
                    <activeaudioangle>false</activeaudioangle>
                    <clip id="clip-1"/>
                  </angle>
                  <angle>
                    <activevideoangle>false</activevideoangle>
                    <activeaudioangle>false</activeaudioangle>
                    <clip id="clip-2"/>
                  </angle>
                  <angle>
                    <activevideoangle>false</activevideoangle>
                    <activeaudioangle>false</activeaudioangle>
                    <clip id="clip-3"/>
                  </angle>
                  <angle>
                    <activevideoangle>true</activevideoangle>
                    <activeaudioangle>true</activeaudioangle>
                    <clip id="clip-4"/>
                  </angle>
                  <angle>
                    <activevideoangle>false</activevideoangle>
                    <activeaudioangle>false</activeaudioangle>
                    <clip id="clip-5"/>
                  </angle>
                  <angle>
                    <activevideoangle>false</activevideoangle>
                    <activeaudioangle>false</activeaudioangle>
                    <clip id="clip-6"/>
                  </angle>
                  <angle>
                    <activevideoangle>false</activevideoangle>
                    <activeaudioangle>false</activeaudioangle>
                    <clip id="clip-7"/>
                  </angle>
                  <angle>
                    <activevideoangle>false</activevideoangle>
                    <activeaudioangle>false</activeaudioangle>
                    <clip id="clip-8"/>
                  </angle>
                  <angle>
                    <activevideoangle>false</activevideoangle>
                    <activeaudioangle>false</activeaudioangle>
                    <clip id="clip-9"/>
                  </angle>
                  <masterclipid>clip-master</masterclipid>
                </multiclip>
              </clipitem>
              <clipitem id="cs-864">
                <duration>183</duration>
                <rate>
                  <ntsc>false</ntsc>
                  <timebase>25</timebase>
                </rate>
                <in>68485</in>
                <out>68667</out>
                <start>68485</start>
                <end>68667</end>
                <file id="src-3"/>
                <sourcetrack>
                  <mediatype>video</mediatype>
                  <trackindex>1</trackindex>
                </sourcetrack>
                <multiclip id="mcs-864">
                  <name>MCS-864</name>
                  <masterclipid>clip-master</masterclipid>
                  <collapsed>false</collapsed>
                  <angle>
                    <activevideoangle>false</activevideoangle>
                    <activeaudioangle>false</activeaudioangle>
                    <clip id="clip-1"/>
                  </angle>
                  <angle>
                    <activevideoangle>false</activevideoangle>
                    <activeaudioangle>false</activeaudioangle>
                    <clip id="clip-2"/>
                  </angle>
                  <angle>
                    <activevideoangle>true</activevideoangle>
                    <activeaudioangle>true</activeaudioangle>
                    <clip id="clip-3"/>
                  </angle>
                  <angle>
                    <activevideoangle>false</activevideoangle>
                    <activeaudioangle>false</activeaudioangle>
                    <clip id="clip-4"/>
                  </angle>
                  <angle>
                    <activevideoangle>false</activevideoangle>
                    <activeaudioangle>false</activeaudioangle>
                    <clip id="clip-5"/>
                  </angle>
                  <angle>
                    <activevideoangle>false</activevideoangle>
                    <activeaudioangle>false</activeaudioangle>
                    <clip id="clip-6"/>
                  </angle>
                  <angle>
                    <activevideoangle>false</activevideoangle>
                    <activeaudioangle>false</activeaudioangle>
                    <clip id="clip-7"/>
                  </angle>
                  <angle>
                    <activevideoangle>false</activevideoangle>
                    <activeaudioangle>false</activeaudioangle>
                    <clip id="clip-8"/>
                  </angle>
                  <angle>
                    <activevideoangle>false</activevideoangle>
                    <activeaudioangle>false</activeaudioangle>
                    <clip id="clip-9"/>
                  </angle>
                  <masterclipid>clip-master</masterclipid>
                </multiclip>
              </clipitem>
              <clipitem id="cs-865">
                <duration>88</duration>
                <rate>
                  <ntsc>false</ntsc>
                  <timebase>25</timebase>
                </rate>
                <in>68667</in>
                <out>68754</out>
                <start>68667</start>
                <end>68754</end>
                <file id="src-6"/>
                <sourcetrack>
                  <mediatype>video</mediatype>
                  <trackindex>1</trackindex>
                </sourcetrack>
                <multiclip id="mcs-865">
                  <name>MCS-865</name>
                  <masterclipid>clip-master</masterclipid>
                  <collapsed>false</collapsed>
                  <angle>
                    <activevideoangle>false</activevideoangle>
                    <activeaudioangle>false</activeaudioangle>
                    <clip id="clip-1"/>
                  </angle>
                  <angle>
                    <activevideoangle>false</activevideoangle>
                    <activeaudioangle>false</activeaudioangle>
                    <clip id="clip-2"/>
                  </angle>
                  <angle>
                    <activevideoangle>false</activevideoangle>
                    <activeaudioangle>false</activeaudioangle>
                    <clip id="clip-3"/>
                  </angle>
                  <angle>
                    <activevideoangle>false</activevideoangle>
                    <activeaudioangle>false</activeaudioangle>
                    <clip id="clip-4"/>
                  </angle>
                  <angle>
                    <activevideoangle>false</activevideoangle>
                    <activeaudioangle>false</activeaudioangle>
                    <clip id="clip-5"/>
                  </angle>
                  <angle>
                    <activevideoangle>true</activevideoangle>
                    <activeaudioangle>true</activeaudioangle>
                    <clip id="clip-6"/>
                  </angle>
                  <angle>
                    <activevideoangle>false</activevideoangle>
                    <activeaudioangle>false</activeaudioangle>
                    <clip id="clip-7"/>
                  </angle>
                  <angle>
                    <activevideoangle>false</activevideoangle>
                    <activeaudioangle>false</activeaudioangle>
                    <clip id="clip-8"/>
                  </angle>
                  <angle>
                    <activevideoangle>false</activevideoangle>
                    <activeaudioangle>false</activeaudioangle>
                    <clip id="clip-9"/>
                  </angle>
                  <masterclipid>clip-master</masterclipid>
                </multiclip>
              </clipitem>
              <clipitem id="cs-866">
                <duration>65</duration>
                <rate>
                  <ntsc>false</ntsc>
                  <timebase>25</timebase>
                </rate>
                <in>68754</in>
                <out>68818</out>
                <start>68754</start>
                <end>68818</end>
                <file id="src-4"/>
                <sourcetrack>
                  <mediatype>video</mediatype>
                  <trackindex>1</trackindex>
                </sourcetrack>
                <multiclip id="mcs-866">
                  <name>MCS-866</name>
                  <masterclipid>clip-master</masterclipid>
                  <collapsed>false</collapsed>
                  <angle>
                    <activevideoangle>false</activevideoangle>
                    <activeaudioangle>false</activeaudioangle>
                    <clip id="clip-1"/>
                  </angle>
                  <angle>
                    <activevideoangle>false</activevideoangle>
                    <activeaudioangle>false</activeaudioangle>
                    <clip id="clip-2"/>
                  </angle>
                  <angle>
                    <activevideoangle>false</activevideoangle>
                    <activeaudioangle>false</activeaudioangle>
                    <clip id="clip-3"/>
                  </angle>
                  <angle>
                    <activevideoangle>true</activevideoangle>
                    <activeaudioangle>true</activeaudioangle>
                    <clip id="clip-4"/>
                  </angle>
                  <angle>
                    <activevideoangle>false</activevideoangle>
                    <activeaudioangle>false</activeaudioangle>
                    <clip id="clip-5"/>
                  </angle>
                  <angle>
                    <activevideoangle>false</activevideoangle>
                    <activeaudioangle>false</activeaudioangle>
                    <clip id="clip-6"/>
                  </angle>
                  <angle>
                    <activevideoangle>false</activevideoangle>
                    <activeaudioangle>false</activeaudioangle>
                    <clip id="clip-7"/>
                  </angle>
                  <angle>
                    <activevideoangle>false</activevideoangle>
                    <activeaudioangle>false</activeaudioangle>
                    <clip id="clip-8"/>
                  </angle>
                  <angle>
                    <activevideoangle>false</activevideoangle>
                    <activeaudioangle>false</activeaudioangle>
                    <clip id="clip-9"/>
                  </angle>
                  <masterclipid>clip-master</masterclipid>
                </multiclip>
              </clipitem>
              <clipitem id="cs-867">
                <duration>416</duration>
                <rate>
                  <ntsc>false</ntsc>
                  <timebase>25</timebase>
                </rate>
                <in>68818</in>
                <out>69233</out>
                <start>68818</start>
                <end>69233</end>
                <file id="src-3"/>
                <sourcetrack>
                  <mediatype>video</mediatype>
                  <trackindex>1</trackindex>
                </sourcetrack>
                <multiclip id="mcs-867">
                  <name>MCS-867</name>
                  <masterclipid>clip-master</masterclipid>
                  <collapsed>false</collapsed>
                  <angle>
                    <activevideoangle>false</activevideoangle>
                    <activeaudioangle>false</activeaudioangle>
                    <clip id="clip-1"/>
                  </angle>
                  <angle>
                    <activevideoangle>false</activevideoangle>
                    <activeaudioangle>false</activeaudioangle>
                    <clip id="clip-2"/>
                  </angle>
                  <angle>
                    <activevideoangle>true</activevideoangle>
                    <activeaudioangle>true</activeaudioangle>
                    <clip id="clip-3"/>
                  </angle>
                  <angle>
                    <activevideoangle>false</activevideoangle>
                    <activeaudioangle>false</activeaudioangle>
                    <clip id="clip-4"/>
                  </angle>
                  <angle>
                    <activevideoangle>false</activevideoangle>
                    <activeaudioangle>false</activeaudioangle>
                    <clip id="clip-5"/>
                  </angle>
                  <angle>
                    <activevideoangle>false</activevideoangle>
                    <activeaudioangle>false</activeaudioangle>
                    <clip id="clip-6"/>
                  </angle>
                  <angle>
                    <activevideoangle>false</activevideoangle>
                    <activeaudioangle>false</activeaudioangle>
                    <clip id="clip-7"/>
                  </angle>
                  <angle>
                    <activevideoangle>false</activevideoangle>
                    <activeaudioangle>false</activeaudioangle>
                    <clip id="clip-8"/>
                  </angle>
                  <angle>
                    <activevideoangle>false</activevideoangle>
                    <activeaudioangle>false</activeaudioangle>
                    <clip id="clip-9"/>
                  </angle>
                  <masterclipid>clip-master</masterclipid>
                </multiclip>
              </clipitem>
              <clipitem id="cs-868">
                <duration>87</duration>
                <rate>
                  <ntsc>false</ntsc>
                  <timebase>25</timebase>
                </rate>
                <in>69233</in>
                <out>69319</out>
                <start>69233</start>
                <end>69319</end>
                <file id="src-4"/>
                <sourcetrack>
                  <mediatype>video</mediatype>
                  <trackindex>1</trackindex>
                </sourcetrack>
                <multiclip id="mcs-868">
                  <name>MCS-868</name>
                  <masterclipid>clip-master</masterclipid>
                  <collapsed>false</collapsed>
                  <angle>
                    <activevideoangle>false</activevideoangle>
                    <activeaudioangle>false</activeaudioangle>
                    <clip id="clip-1"/>
                  </angle>
                  <angle>
                    <activevideoangle>false</activevideoangle>
                    <activeaudioangle>false</activeaudioangle>
                    <clip id="clip-2"/>
                  </angle>
                  <angle>
                    <activevideoangle>false</activevideoangle>
                    <activeaudioangle>false</activeaudioangle>
                    <clip id="clip-3"/>
                  </angle>
                  <angle>
                    <activevideoangle>true</activevideoangle>
                    <activeaudioangle>true</activeaudioangle>
                    <clip id="clip-4"/>
                  </angle>
                  <angle>
                    <activevideoangle>false</activevideoangle>
                    <activeaudioangle>false</activeaudioangle>
                    <clip id="clip-5"/>
                  </angle>
                  <angle>
                    <activevideoangle>false</activevideoangle>
                    <activeaudioangle>false</activeaudioangle>
                    <clip id="clip-6"/>
                  </angle>
                  <angle>
                    <activevideoangle>false</activevideoangle>
                    <activeaudioangle>false</activeaudioangle>
                    <clip id="clip-7"/>
                  </angle>
                  <angle>
                    <activevideoangle>false</activevideoangle>
                    <activeaudioangle>false</activeaudioangle>
                    <clip id="clip-8"/>
                  </angle>
                  <angle>
                    <activevideoangle>false</activevideoangle>
                    <activeaudioangle>false</activeaudioangle>
                    <clip id="clip-9"/>
                  </angle>
                  <masterclipid>clip-master</masterclipid>
                </multiclip>
              </clipitem>
              <clipitem id="cs-869">
                <duration>95</duration>
                <rate>
                  <ntsc>false</ntsc>
                  <timebase>25</timebase>
                </rate>
                <in>69319</in>
                <out>69413</out>
                <start>69319</start>
                <end>69413</end>
                <file id="src-3"/>
                <sourcetrack>
                  <mediatype>video</mediatype>
                  <trackindex>1</trackindex>
                </sourcetrack>
                <multiclip id="mcs-869">
                  <name>MCS-869</name>
                  <masterclipid>clip-master</masterclipid>
                  <collapsed>false</collapsed>
                  <angle>
                    <activevideoangle>false</activevideoangle>
                    <activeaudioangle>false</activeaudioangle>
                    <clip id="clip-1"/>
                  </angle>
                  <angle>
                    <activevideoangle>false</activevideoangle>
                    <activeaudioangle>false</activeaudioangle>
                    <clip id="clip-2"/>
                  </angle>
                  <angle>
                    <activevideoangle>true</activevideoangle>
                    <activeaudioangle>true</activeaudioangle>
                    <clip id="clip-3"/>
                  </angle>
                  <angle>
                    <activevideoangle>false</activevideoangle>
                    <activeaudioangle>false</activeaudioangle>
                    <clip id="clip-4"/>
                  </angle>
                  <angle>
                    <activevideoangle>false</activevideoangle>
                    <activeaudioangle>false</activeaudioangle>
                    <clip id="clip-5"/>
                  </angle>
                  <angle>
                    <activevideoangle>false</activevideoangle>
                    <activeaudioangle>false</activeaudioangle>
                    <clip id="clip-6"/>
                  </angle>
                  <angle>
                    <activevideoangle>false</activevideoangle>
                    <activeaudioangle>false</activeaudioangle>
                    <clip id="clip-7"/>
                  </angle>
                  <angle>
                    <activevideoangle>false</activevideoangle>
                    <activeaudioangle>false</activeaudioangle>
                    <clip id="clip-8"/>
                  </angle>
                  <angle>
                    <activevideoangle>false</activevideoangle>
                    <activeaudioangle>false</activeaudioangle>
                    <clip id="clip-9"/>
                  </angle>
                  <masterclipid>clip-master</masterclipid>
                </multiclip>
              </clipitem>
              <clipitem id="cs-870">
                <duration>215</duration>
                <rate>
                  <ntsc>false</ntsc>
                  <timebase>25</timebase>
                </rate>
                <in>69413</in>
                <out>69627</out>
                <start>69413</start>
                <end>69627</end>
                <file id="src-6"/>
                <sourcetrack>
                  <mediatype>video</mediatype>
                  <trackindex>1</trackindex>
                </sourcetrack>
                <multiclip id="mcs-870">
                  <name>MCS-870</name>
                  <masterclipid>clip-master</masterclipid>
                  <collapsed>false</collapsed>
                  <angle>
                    <activevideoangle>false</activevideoangle>
                    <activeaudioangle>false</activeaudioangle>
                    <clip id="clip-1"/>
                  </angle>
                  <angle>
                    <activevideoangle>false</activevideoangle>
                    <activeaudioangle>false</activeaudioangle>
                    <clip id="clip-2"/>
                  </angle>
                  <angle>
                    <activevideoangle>false</activevideoangle>
                    <activeaudioangle>false</activeaudioangle>
                    <clip id="clip-3"/>
                  </angle>
                  <angle>
                    <activevideoangle>false</activevideoangle>
                    <activeaudioangle>false</activeaudioangle>
                    <clip id="clip-4"/>
                  </angle>
                  <angle>
                    <activevideoangle>false</activevideoangle>
                    <activeaudioangle>false</activeaudioangle>
                    <clip id="clip-5"/>
                  </angle>
                  <angle>
                    <activevideoangle>true</activevideoangle>
                    <activeaudioangle>true</activeaudioangle>
                    <clip id="clip-6"/>
                  </angle>
                  <angle>
                    <activevideoangle>false</activevideoangle>
                    <activeaudioangle>false</activeaudioangle>
                    <clip id="clip-7"/>
                  </angle>
                  <angle>
                    <activevideoangle>false</activevideoangle>
                    <activeaudioangle>false</activeaudioangle>
                    <clip id="clip-8"/>
                  </angle>
                  <angle>
                    <activevideoangle>false</activevideoangle>
                    <activeaudioangle>false</activeaudioangle>
                    <clip id="clip-9"/>
                  </angle>
                  <masterclipid>clip-master</masterclipid>
                </multiclip>
              </clipitem>
              <clipitem id="cs-871">
                <duration>161</duration>
                <rate>
                  <ntsc>false</ntsc>
                  <timebase>25</timebase>
                </rate>
                <in>69627</in>
                <out>69787</out>
                <start>69627</start>
                <end>69787</end>
                <file id="src-4"/>
                <sourcetrack>
                  <mediatype>video</mediatype>
                  <trackindex>1</trackindex>
                </sourcetrack>
                <multiclip id="mcs-871">
                  <name>MCS-871</name>
                  <masterclipid>clip-master</masterclipid>
                  <collapsed>false</collapsed>
                  <angle>
                    <activevideoangle>false</activevideoangle>
                    <activeaudioangle>false</activeaudioangle>
                    <clip id="clip-1"/>
                  </angle>
                  <angle>
                    <activevideoangle>false</activevideoangle>
                    <activeaudioangle>false</activeaudioangle>
                    <clip id="clip-2"/>
                  </angle>
                  <angle>
                    <activevideoangle>false</activevideoangle>
                    <activeaudioangle>false</activeaudioangle>
                    <clip id="clip-3"/>
                  </angle>
                  <angle>
                    <activevideoangle>true</activevideoangle>
                    <activeaudioangle>true</activeaudioangle>
                    <clip id="clip-4"/>
                  </angle>
                  <angle>
                    <activevideoangle>false</activevideoangle>
                    <activeaudioangle>false</activeaudioangle>
                    <clip id="clip-5"/>
                  </angle>
                  <angle>
                    <activevideoangle>false</activevideoangle>
                    <activeaudioangle>false</activeaudioangle>
                    <clip id="clip-6"/>
                  </angle>
                  <angle>
                    <activevideoangle>false</activevideoangle>
                    <activeaudioangle>false</activeaudioangle>
                    <clip id="clip-7"/>
                  </angle>
                  <angle>
                    <activevideoangle>false</activevideoangle>
                    <activeaudioangle>false</activeaudioangle>
                    <clip id="clip-8"/>
                  </angle>
                  <angle>
                    <activevideoangle>false</activevideoangle>
                    <activeaudioangle>false</activeaudioangle>
                    <clip id="clip-9"/>
                  </angle>
                  <masterclipid>clip-master</masterclipid>
                </multiclip>
              </clipitem>
              <clipitem id="cs-872">
                <duration>106</duration>
                <rate>
                  <ntsc>false</ntsc>
                  <timebase>25</timebase>
                </rate>
                <in>69787</in>
                <out>69892</out>
                <start>69787</start>
                <end>69892</end>
                <file id="src-1"/>
                <sourcetrack>
                  <mediatype>video</mediatype>
                  <trackindex>1</trackindex>
                </sourcetrack>
                <multiclip id="mcs-872">
                  <name>MCS-872</name>
                  <masterclipid>clip-master</masterclipid>
                  <collapsed>false</collapsed>
                  <angle>
                    <activevideoangle>true</activevideoangle>
                    <activeaudioangle>true</activeaudioangle>
                    <clip id="clip-1"/>
                  </angle>
                  <angle>
                    <activevideoangle>false</activevideoangle>
                    <activeaudioangle>false</activeaudioangle>
                    <clip id="clip-2"/>
                  </angle>
                  <angle>
                    <activevideoangle>false</activevideoangle>
                    <activeaudioangle>false</activeaudioangle>
                    <clip id="clip-3"/>
                  </angle>
                  <angle>
                    <activevideoangle>false</activevideoangle>
                    <activeaudioangle>false</activeaudioangle>
                    <clip id="clip-4"/>
                  </angle>
                  <angle>
                    <activevideoangle>false</activevideoangle>
                    <activeaudioangle>false</activeaudioangle>
                    <clip id="clip-5"/>
                  </angle>
                  <angle>
                    <activevideoangle>false</activevideoangle>
                    <activeaudioangle>false</activeaudioangle>
                    <clip id="clip-6"/>
                  </angle>
                  <angle>
                    <activevideoangle>false</activevideoangle>
                    <activeaudioangle>false</activeaudioangle>
                    <clip id="clip-7"/>
                  </angle>
                  <angle>
                    <activevideoangle>false</activevideoangle>
                    <activeaudioangle>false</activeaudioangle>
                    <clip id="clip-8"/>
                  </angle>
                  <angle>
                    <activevideoangle>false</activevideoangle>
                    <activeaudioangle>false</activeaudioangle>
                    <clip id="clip-9"/>
                  </angle>
                  <masterclipid>clip-master</masterclipid>
                </multiclip>
              </clipitem>
              <clipitem id="cs-873">
                <duration>93</duration>
                <rate>
                  <ntsc>false</ntsc>
                  <timebase>25</timebase>
                </rate>
                <in>69892</in>
                <out>69984</out>
                <start>69892</start>
                <end>69984</end>
                <file id="src-4"/>
                <sourcetrack>
                  <mediatype>video</mediatype>
                  <trackindex>1</trackindex>
                </sourcetrack>
                <multiclip id="mcs-873">
                  <name>MCS-873</name>
                  <masterclipid>clip-master</masterclipid>
                  <collapsed>false</collapsed>
                  <angle>
                    <activevideoangle>false</activevideoangle>
                    <activeaudioangle>false</activeaudioangle>
                    <clip id="clip-1"/>
                  </angle>
                  <angle>
                    <activevideoangle>false</activevideoangle>
                    <activeaudioangle>false</activeaudioangle>
                    <clip id="clip-2"/>
                  </angle>
                  <angle>
                    <activevideoangle>false</activevideoangle>
                    <activeaudioangle>false</activeaudioangle>
                    <clip id="clip-3"/>
                  </angle>
                  <angle>
                    <activevideoangle>true</activevideoangle>
                    <activeaudioangle>true</activeaudioangle>
                    <clip id="clip-4"/>
                  </angle>
                  <angle>
                    <activevideoangle>false</activevideoangle>
                    <activeaudioangle>false</activeaudioangle>
                    <clip id="clip-5"/>
                  </angle>
                  <angle>
                    <activevideoangle>false</activevideoangle>
                    <activeaudioangle>false</activeaudioangle>
                    <clip id="clip-6"/>
                  </angle>
                  <angle>
                    <activevideoangle>false</activevideoangle>
                    <activeaudioangle>false</activeaudioangle>
                    <clip id="clip-7"/>
                  </angle>
                  <angle>
                    <activevideoangle>false</activevideoangle>
                    <activeaudioangle>false</activeaudioangle>
                    <clip id="clip-8"/>
                  </angle>
                  <angle>
                    <activevideoangle>false</activevideoangle>
                    <activeaudioangle>false</activeaudioangle>
                    <clip id="clip-9"/>
                  </angle>
                  <masterclipid>clip-master</masterclipid>
                </multiclip>
              </clipitem>
              <clipitem id="cs-874">
                <duration>156</duration>
                <rate>
                  <ntsc>false</ntsc>
                  <timebase>25</timebase>
                </rate>
                <in>69984</in>
                <out>70139</out>
                <start>69984</start>
                <end>70139</end>
                <file id="src-3"/>
                <sourcetrack>
                  <mediatype>video</mediatype>
                  <trackindex>1</trackindex>
                </sourcetrack>
                <multiclip id="mcs-874">
                  <name>MCS-874</name>
                  <masterclipid>clip-master</masterclipid>
                  <collapsed>false</collapsed>
                  <angle>
                    <activevideoangle>false</activevideoangle>
                    <activeaudioangle>false</activeaudioangle>
                    <clip id="clip-1"/>
                  </angle>
                  <angle>
                    <activevideoangle>false</activevideoangle>
                    <activeaudioangle>false</activeaudioangle>
                    <clip id="clip-2"/>
                  </angle>
                  <angle>
                    <activevideoangle>true</activevideoangle>
                    <activeaudioangle>true</activeaudioangle>
                    <clip id="clip-3"/>
                  </angle>
                  <angle>
                    <activevideoangle>false</activevideoangle>
                    <activeaudioangle>false</activeaudioangle>
                    <clip id="clip-4"/>
                  </angle>
                  <angle>
                    <activevideoangle>false</activevideoangle>
                    <activeaudioangle>false</activeaudioangle>
                    <clip id="clip-5"/>
                  </angle>
                  <angle>
                    <activevideoangle>false</activevideoangle>
                    <activeaudioangle>false</activeaudioangle>
                    <clip id="clip-6"/>
                  </angle>
                  <angle>
                    <activevideoangle>false</activevideoangle>
                    <activeaudioangle>false</activeaudioangle>
                    <clip id="clip-7"/>
                  </angle>
                  <angle>
                    <activevideoangle>false</activevideoangle>
                    <activeaudioangle>false</activeaudioangle>
                    <clip id="clip-8"/>
                  </angle>
                  <angle>
                    <activevideoangle>false</activevideoangle>
                    <activeaudioangle>false</activeaudioangle>
                    <clip id="clip-9"/>
                  </angle>
                  <masterclipid>clip-master</masterclipid>
                </multiclip>
              </clipitem>
              <clipitem id="cs-875">
                <duration>202</duration>
                <rate>
                  <ntsc>false</ntsc>
                  <timebase>25</timebase>
                </rate>
                <in>70139</in>
                <out>70340</out>
                <start>70139</start>
                <end>70340</end>
                <file id="src-5"/>
                <sourcetrack>
                  <mediatype>video</mediatype>
                  <trackindex>1</trackindex>
                </sourcetrack>
                <multiclip id="mcs-875">
                  <name>MCS-875</name>
                  <masterclipid>clip-master</masterclipid>
                  <collapsed>false</collapsed>
                  <angle>
                    <activevideoangle>false</activevideoangle>
                    <activeaudioangle>false</activeaudioangle>
                    <clip id="clip-1"/>
                  </angle>
                  <angle>
                    <activevideoangle>false</activevideoangle>
                    <activeaudioangle>false</activeaudioangle>
                    <clip id="clip-2"/>
                  </angle>
                  <angle>
                    <activevideoangle>false</activevideoangle>
                    <activeaudioangle>false</activeaudioangle>
                    <clip id="clip-3"/>
                  </angle>
                  <angle>
                    <activevideoangle>false</activevideoangle>
                    <activeaudioangle>false</activeaudioangle>
                    <clip id="clip-4"/>
                  </angle>
                  <angle>
                    <activevideoangle>true</activevideoangle>
                    <activeaudioangle>true</activeaudioangle>
                    <clip id="clip-5"/>
                  </angle>
                  <angle>
                    <activevideoangle>false</activevideoangle>
                    <activeaudioangle>false</activeaudioangle>
                    <clip id="clip-6"/>
                  </angle>
                  <angle>
                    <activevideoangle>false</activevideoangle>
                    <activeaudioangle>false</activeaudioangle>
                    <clip id="clip-7"/>
                  </angle>
                  <angle>
                    <activevideoangle>false</activevideoangle>
                    <activeaudioangle>false</activeaudioangle>
                    <clip id="clip-8"/>
                  </angle>
                  <angle>
                    <activevideoangle>false</activevideoangle>
                    <activeaudioangle>false</activeaudioangle>
                    <clip id="clip-9"/>
                  </angle>
                  <masterclipid>clip-master</masterclipid>
                </multiclip>
              </clipitem>
              <clipitem id="cs-876">
                <duration>100</duration>
                <rate>
                  <ntsc>false</ntsc>
                  <timebase>25</timebase>
                </rate>
                <in>70340</in>
                <out>70439</out>
                <start>70340</start>
                <end>70439</end>
                <file id="src-4"/>
                <sourcetrack>
                  <mediatype>video</mediatype>
                  <trackindex>1</trackindex>
                </sourcetrack>
                <multiclip id="mcs-876">
                  <name>MCS-876</name>
                  <masterclipid>clip-master</masterclipid>
                  <collapsed>false</collapsed>
                  <angle>
                    <activevideoangle>false</activevideoangle>
                    <activeaudioangle>false</activeaudioangle>
                    <clip id="clip-1"/>
                  </angle>
                  <angle>
                    <activevideoangle>false</activevideoangle>
                    <activeaudioangle>false</activeaudioangle>
                    <clip id="clip-2"/>
                  </angle>
                  <angle>
                    <activevideoangle>false</activevideoangle>
                    <activeaudioangle>false</activeaudioangle>
                    <clip id="clip-3"/>
                  </angle>
                  <angle>
                    <activevideoangle>true</activevideoangle>
                    <activeaudioangle>true</activeaudioangle>
                    <clip id="clip-4"/>
                  </angle>
                  <angle>
                    <activevideoangle>false</activevideoangle>
                    <activeaudioangle>false</activeaudioangle>
                    <clip id="clip-5"/>
                  </angle>
                  <angle>
                    <activevideoangle>false</activevideoangle>
                    <activeaudioangle>false</activeaudioangle>
                    <clip id="clip-6"/>
                  </angle>
                  <angle>
                    <activevideoangle>false</activevideoangle>
                    <activeaudioangle>false</activeaudioangle>
                    <clip id="clip-7"/>
                  </angle>
                  <angle>
                    <activevideoangle>false</activevideoangle>
                    <activeaudioangle>false</activeaudioangle>
                    <clip id="clip-8"/>
                  </angle>
                  <angle>
                    <activevideoangle>false</activevideoangle>
                    <activeaudioangle>false</activeaudioangle>
                    <clip id="clip-9"/>
                  </angle>
                  <masterclipid>clip-master</masterclipid>
                </multiclip>
              </clipitem>
              <clipitem id="cs-877">
                <duration>155</duration>
                <rate>
                  <ntsc>false</ntsc>
                  <timebase>25</timebase>
                </rate>
                <in>70439</in>
                <out>70593</out>
                <start>70439</start>
                <end>70593</end>
                <file id="src-3"/>
                <sourcetrack>
                  <mediatype>video</mediatype>
                  <trackindex>1</trackindex>
                </sourcetrack>
                <multiclip id="mcs-877">
                  <name>MCS-877</name>
                  <masterclipid>clip-master</masterclipid>
                  <collapsed>false</collapsed>
                  <angle>
                    <activevideoangle>false</activevideoangle>
                    <activeaudioangle>false</activeaudioangle>
                    <clip id="clip-1"/>
                  </angle>
                  <angle>
                    <activevideoangle>false</activevideoangle>
                    <activeaudioangle>false</activeaudioangle>
                    <clip id="clip-2"/>
                  </angle>
                  <angle>
                    <activevideoangle>true</activevideoangle>
                    <activeaudioangle>true</activeaudioangle>
                    <clip id="clip-3"/>
                  </angle>
                  <angle>
                    <activevideoangle>false</activevideoangle>
                    <activeaudioangle>false</activeaudioangle>
                    <clip id="clip-4"/>
                  </angle>
                  <angle>
                    <activevideoangle>false</activevideoangle>
                    <activeaudioangle>false</activeaudioangle>
                    <clip id="clip-5"/>
                  </angle>
                  <angle>
                    <activevideoangle>false</activevideoangle>
                    <activeaudioangle>false</activeaudioangle>
                    <clip id="clip-6"/>
                  </angle>
                  <angle>
                    <activevideoangle>false</activevideoangle>
                    <activeaudioangle>false</activeaudioangle>
                    <clip id="clip-7"/>
                  </angle>
                  <angle>
                    <activevideoangle>false</activevideoangle>
                    <activeaudioangle>false</activeaudioangle>
                    <clip id="clip-8"/>
                  </angle>
                  <angle>
                    <activevideoangle>false</activevideoangle>
                    <activeaudioangle>false</activeaudioangle>
                    <clip id="clip-9"/>
                  </angle>
                  <masterclipid>clip-master</masterclipid>
                </multiclip>
              </clipitem>
              <clipitem id="cs-878">
                <duration>116</duration>
                <rate>
                  <ntsc>false</ntsc>
                  <timebase>25</timebase>
                </rate>
                <in>70593</in>
                <out>70708</out>
                <start>70593</start>
                <end>70708</end>
                <file id="src-4"/>
                <sourcetrack>
                  <mediatype>video</mediatype>
                  <trackindex>1</trackindex>
                </sourcetrack>
                <multiclip id="mcs-878">
                  <name>MCS-878</name>
                  <masterclipid>clip-master</masterclipid>
                  <collapsed>false</collapsed>
                  <angle>
                    <activevideoangle>false</activevideoangle>
                    <activeaudioangle>false</activeaudioangle>
                    <clip id="clip-1"/>
                  </angle>
                  <angle>
                    <activevideoangle>false</activevideoangle>
                    <activeaudioangle>false</activeaudioangle>
                    <clip id="clip-2"/>
                  </angle>
                  <angle>
                    <activevideoangle>false</activevideoangle>
                    <activeaudioangle>false</activeaudioangle>
                    <clip id="clip-3"/>
                  </angle>
                  <angle>
                    <activevideoangle>true</activevideoangle>
                    <activeaudioangle>true</activeaudioangle>
                    <clip id="clip-4"/>
                  </angle>
                  <angle>
                    <activevideoangle>false</activevideoangle>
                    <activeaudioangle>false</activeaudioangle>
                    <clip id="clip-5"/>
                  </angle>
                  <angle>
                    <activevideoangle>false</activevideoangle>
                    <activeaudioangle>false</activeaudioangle>
                    <clip id="clip-6"/>
                  </angle>
                  <angle>
                    <activevideoangle>false</activevideoangle>
                    <activeaudioangle>false</activeaudioangle>
                    <clip id="clip-7"/>
                  </angle>
                  <angle>
                    <activevideoangle>false</activevideoangle>
                    <activeaudioangle>false</activeaudioangle>
                    <clip id="clip-8"/>
                  </angle>
                  <angle>
                    <activevideoangle>false</activevideoangle>
                    <activeaudioangle>false</activeaudioangle>
                    <clip id="clip-9"/>
                  </angle>
                  <masterclipid>clip-master</masterclipid>
                </multiclip>
              </clipitem>
              <clipitem id="cs-879">
                <duration>65</duration>
                <rate>
                  <ntsc>false</ntsc>
                  <timebase>25</timebase>
                </rate>
                <in>70708</in>
                <out>70772</out>
                <start>70708</start>
                <end>70772</end>
                <file id="src-6"/>
                <sourcetrack>
                  <mediatype>video</mediatype>
                  <trackindex>1</trackindex>
                </sourcetrack>
                <multiclip id="mcs-879">
                  <name>MCS-879</name>
                  <masterclipid>clip-master</masterclipid>
                  <collapsed>false</collapsed>
                  <angle>
                    <activevideoangle>false</activevideoangle>
                    <activeaudioangle>false</activeaudioangle>
                    <clip id="clip-1"/>
                  </angle>
                  <angle>
                    <activevideoangle>false</activevideoangle>
                    <activeaudioangle>false</activeaudioangle>
                    <clip id="clip-2"/>
                  </angle>
                  <angle>
                    <activevideoangle>false</activevideoangle>
                    <activeaudioangle>false</activeaudioangle>
                    <clip id="clip-3"/>
                  </angle>
                  <angle>
                    <activevideoangle>false</activevideoangle>
                    <activeaudioangle>false</activeaudioangle>
                    <clip id="clip-4"/>
                  </angle>
                  <angle>
                    <activevideoangle>false</activevideoangle>
                    <activeaudioangle>false</activeaudioangle>
                    <clip id="clip-5"/>
                  </angle>
                  <angle>
                    <activevideoangle>true</activevideoangle>
                    <activeaudioangle>true</activeaudioangle>
                    <clip id="clip-6"/>
                  </angle>
                  <angle>
                    <activevideoangle>false</activevideoangle>
                    <activeaudioangle>false</activeaudioangle>
                    <clip id="clip-7"/>
                  </angle>
                  <angle>
                    <activevideoangle>false</activevideoangle>
                    <activeaudioangle>false</activeaudioangle>
                    <clip id="clip-8"/>
                  </angle>
                  <angle>
                    <activevideoangle>false</activevideoangle>
                    <activeaudioangle>false</activeaudioangle>
                    <clip id="clip-9"/>
                  </angle>
                  <masterclipid>clip-master</masterclipid>
                </multiclip>
              </clipitem>
              <clipitem id="cs-880">
                <duration>42</duration>
                <rate>
                  <ntsc>false</ntsc>
                  <timebase>25</timebase>
                </rate>
                <in>70772</in>
                <out>70813</out>
                <start>70772</start>
                <end>70813</end>
                <file id="src-3"/>
                <sourcetrack>
                  <mediatype>video</mediatype>
                  <trackindex>1</trackindex>
                </sourcetrack>
                <multiclip id="mcs-880">
                  <name>MCS-880</name>
                  <masterclipid>clip-master</masterclipid>
                  <collapsed>false</collapsed>
                  <angle>
                    <activevideoangle>false</activevideoangle>
                    <activeaudioangle>false</activeaudioangle>
                    <clip id="clip-1"/>
                  </angle>
                  <angle>
                    <activevideoangle>false</activevideoangle>
                    <activeaudioangle>false</activeaudioangle>
                    <clip id="clip-2"/>
                  </angle>
                  <angle>
                    <activevideoangle>true</activevideoangle>
                    <activeaudioangle>true</activeaudioangle>
                    <clip id="clip-3"/>
                  </angle>
                  <angle>
                    <activevideoangle>false</activevideoangle>
                    <activeaudioangle>false</activeaudioangle>
                    <clip id="clip-4"/>
                  </angle>
                  <angle>
                    <activevideoangle>false</activevideoangle>
                    <activeaudioangle>false</activeaudioangle>
                    <clip id="clip-5"/>
                  </angle>
                  <angle>
                    <activevideoangle>false</activevideoangle>
                    <activeaudioangle>false</activeaudioangle>
                    <clip id="clip-6"/>
                  </angle>
                  <angle>
                    <activevideoangle>false</activevideoangle>
                    <activeaudioangle>false</activeaudioangle>
                    <clip id="clip-7"/>
                  </angle>
                  <angle>
                    <activevideoangle>false</activevideoangle>
                    <activeaudioangle>false</activeaudioangle>
                    <clip id="clip-8"/>
                  </angle>
                  <angle>
                    <activevideoangle>false</activevideoangle>
                    <activeaudioangle>false</activeaudioangle>
                    <clip id="clip-9"/>
                  </angle>
                  <masterclipid>clip-master</masterclipid>
                </multiclip>
              </clipitem>
              <clipitem id="cs-881">
                <duration>94</duration>
                <rate>
                  <ntsc>false</ntsc>
                  <timebase>25</timebase>
                </rate>
                <in>70813</in>
                <out>70906</out>
                <start>70813</start>
                <end>70906</end>
                <file id="src-4"/>
                <sourcetrack>
                  <mediatype>video</mediatype>
                  <trackindex>1</trackindex>
                </sourcetrack>
                <multiclip id="mcs-881">
                  <name>MCS-881</name>
                  <masterclipid>clip-master</masterclipid>
                  <collapsed>false</collapsed>
                  <angle>
                    <activevideoangle>false</activevideoangle>
                    <activeaudioangle>false</activeaudioangle>
                    <clip id="clip-1"/>
                  </angle>
                  <angle>
                    <activevideoangle>false</activevideoangle>
                    <activeaudioangle>false</activeaudioangle>
                    <clip id="clip-2"/>
                  </angle>
                  <angle>
                    <activevideoangle>false</activevideoangle>
                    <activeaudioangle>false</activeaudioangle>
                    <clip id="clip-3"/>
                  </angle>
                  <angle>
                    <activevideoangle>true</activevideoangle>
                    <activeaudioangle>true</activeaudioangle>
                    <clip id="clip-4"/>
                  </angle>
                  <angle>
                    <activevideoangle>false</activevideoangle>
                    <activeaudioangle>false</activeaudioangle>
                    <clip id="clip-5"/>
                  </angle>
                  <angle>
                    <activevideoangle>false</activevideoangle>
                    <activeaudioangle>false</activeaudioangle>
                    <clip id="clip-6"/>
                  </angle>
                  <angle>
                    <activevideoangle>false</activevideoangle>
                    <activeaudioangle>false</activeaudioangle>
                    <clip id="clip-7"/>
                  </angle>
                  <angle>
                    <activevideoangle>false</activevideoangle>
                    <activeaudioangle>false</activeaudioangle>
                    <clip id="clip-8"/>
                  </angle>
                  <angle>
                    <activevideoangle>false</activevideoangle>
                    <activeaudioangle>false</activeaudioangle>
                    <clip id="clip-9"/>
                  </angle>
                  <masterclipid>clip-master</masterclipid>
                </multiclip>
              </clipitem>
              <clipitem id="cs-882">
                <duration>261</duration>
                <rate>
                  <ntsc>false</ntsc>
                  <timebase>25</timebase>
                </rate>
                <in>70906</in>
                <out>71166</out>
                <start>70906</start>
                <end>71166</end>
                <file id="src-3"/>
                <sourcetrack>
                  <mediatype>video</mediatype>
                  <trackindex>1</trackindex>
                </sourcetrack>
                <multiclip id="mcs-882">
                  <name>MCS-882</name>
                  <masterclipid>clip-master</masterclipid>
                  <collapsed>false</collapsed>
                  <angle>
                    <activevideoangle>false</activevideoangle>
                    <activeaudioangle>false</activeaudioangle>
                    <clip id="clip-1"/>
                  </angle>
                  <angle>
                    <activevideoangle>false</activevideoangle>
                    <activeaudioangle>false</activeaudioangle>
                    <clip id="clip-2"/>
                  </angle>
                  <angle>
                    <activevideoangle>true</activevideoangle>
                    <activeaudioangle>true</activeaudioangle>
                    <clip id="clip-3"/>
                  </angle>
                  <angle>
                    <activevideoangle>false</activevideoangle>
                    <activeaudioangle>false</activeaudioangle>
                    <clip id="clip-4"/>
                  </angle>
                  <angle>
                    <activevideoangle>false</activevideoangle>
                    <activeaudioangle>false</activeaudioangle>
                    <clip id="clip-5"/>
                  </angle>
                  <angle>
                    <activevideoangle>false</activevideoangle>
                    <activeaudioangle>false</activeaudioangle>
                    <clip id="clip-6"/>
                  </angle>
                  <angle>
                    <activevideoangle>false</activevideoangle>
                    <activeaudioangle>false</activeaudioangle>
                    <clip id="clip-7"/>
                  </angle>
                  <angle>
                    <activevideoangle>false</activevideoangle>
                    <activeaudioangle>false</activeaudioangle>
                    <clip id="clip-8"/>
                  </angle>
                  <angle>
                    <activevideoangle>false</activevideoangle>
                    <activeaudioangle>false</activeaudioangle>
                    <clip id="clip-9"/>
                  </angle>
                  <masterclipid>clip-master</masterclipid>
                </multiclip>
              </clipitem>
              <clipitem id="cs-883">
                <duration>121</duration>
                <rate>
                  <ntsc>false</ntsc>
                  <timebase>25</timebase>
                </rate>
                <in>71166</in>
                <out>71286</out>
                <start>71166</start>
                <end>71286</end>
                <file id="src-2"/>
                <sourcetrack>
                  <mediatype>video</mediatype>
                  <trackindex>1</trackindex>
                </sourcetrack>
                <multiclip id="mcs-883">
                  <name>MCS-883</name>
                  <masterclipid>clip-master</masterclipid>
                  <collapsed>false</collapsed>
                  <angle>
                    <activevideoangle>false</activevideoangle>
                    <activeaudioangle>false</activeaudioangle>
                    <clip id="clip-1"/>
                  </angle>
                  <angle>
                    <activevideoangle>true</activevideoangle>
                    <activeaudioangle>true</activeaudioangle>
                    <clip id="clip-2"/>
                  </angle>
                  <angle>
                    <activevideoangle>false</activevideoangle>
                    <activeaudioangle>false</activeaudioangle>
                    <clip id="clip-3"/>
                  </angle>
                  <angle>
                    <activevideoangle>false</activevideoangle>
                    <activeaudioangle>false</activeaudioangle>
                    <clip id="clip-4"/>
                  </angle>
                  <angle>
                    <activevideoangle>false</activevideoangle>
                    <activeaudioangle>false</activeaudioangle>
                    <clip id="clip-5"/>
                  </angle>
                  <angle>
                    <activevideoangle>false</activevideoangle>
                    <activeaudioangle>false</activeaudioangle>
                    <clip id="clip-6"/>
                  </angle>
                  <angle>
                    <activevideoangle>false</activevideoangle>
                    <activeaudioangle>false</activeaudioangle>
                    <clip id="clip-7"/>
                  </angle>
                  <angle>
                    <activevideoangle>false</activevideoangle>
                    <activeaudioangle>false</activeaudioangle>
                    <clip id="clip-8"/>
                  </angle>
                  <angle>
                    <activevideoangle>false</activevideoangle>
                    <activeaudioangle>false</activeaudioangle>
                    <clip id="clip-9"/>
                  </angle>
                  <masterclipid>clip-master</masterclipid>
                </multiclip>
              </clipitem>
              <clipitem id="cs-884">
                <duration>234</duration>
                <rate>
                  <ntsc>false</ntsc>
                  <timebase>25</timebase>
                </rate>
                <in>71286</in>
                <out>71519</out>
                <start>71286</start>
                <end>71519</end>
                <file id="src-3"/>
                <sourcetrack>
                  <mediatype>video</mediatype>
                  <trackindex>1</trackindex>
                </sourcetrack>
                <multiclip id="mcs-884">
                  <name>MCS-884</name>
                  <masterclipid>clip-master</masterclipid>
                  <collapsed>false</collapsed>
                  <angle>
                    <activevideoangle>false</activevideoangle>
                    <activeaudioangle>false</activeaudioangle>
                    <clip id="clip-1"/>
                  </angle>
                  <angle>
                    <activevideoangle>false</activevideoangle>
                    <activeaudioangle>false</activeaudioangle>
                    <clip id="clip-2"/>
                  </angle>
                  <angle>
                    <activevideoangle>true</activevideoangle>
                    <activeaudioangle>true</activeaudioangle>
                    <clip id="clip-3"/>
                  </angle>
                  <angle>
                    <activevideoangle>false</activevideoangle>
                    <activeaudioangle>false</activeaudioangle>
                    <clip id="clip-4"/>
                  </angle>
                  <angle>
                    <activevideoangle>false</activevideoangle>
                    <activeaudioangle>false</activeaudioangle>
                    <clip id="clip-5"/>
                  </angle>
                  <angle>
                    <activevideoangle>false</activevideoangle>
                    <activeaudioangle>false</activeaudioangle>
                    <clip id="clip-6"/>
                  </angle>
                  <angle>
                    <activevideoangle>false</activevideoangle>
                    <activeaudioangle>false</activeaudioangle>
                    <clip id="clip-7"/>
                  </angle>
                  <angle>
                    <activevideoangle>false</activevideoangle>
                    <activeaudioangle>false</activeaudioangle>
                    <clip id="clip-8"/>
                  </angle>
                  <angle>
                    <activevideoangle>false</activevideoangle>
                    <activeaudioangle>false</activeaudioangle>
                    <clip id="clip-9"/>
                  </angle>
                  <masterclipid>clip-master</masterclipid>
                </multiclip>
              </clipitem>
              <clipitem id="cs-885">
                <duration>118</duration>
                <rate>
                  <ntsc>false</ntsc>
                  <timebase>25</timebase>
                </rate>
                <in>71519</in>
                <out>71636</out>
                <start>71519</start>
                <end>71636</end>
                <file id="src-4"/>
                <sourcetrack>
                  <mediatype>video</mediatype>
                  <trackindex>1</trackindex>
                </sourcetrack>
                <multiclip id="mcs-885">
                  <name>MCS-885</name>
                  <masterclipid>clip-master</masterclipid>
                  <collapsed>false</collapsed>
                  <angle>
                    <activevideoangle>false</activevideoangle>
                    <activeaudioangle>false</activeaudioangle>
                    <clip id="clip-1"/>
                  </angle>
                  <angle>
                    <activevideoangle>false</activevideoangle>
                    <activeaudioangle>false</activeaudioangle>
                    <clip id="clip-2"/>
                  </angle>
                  <angle>
                    <activevideoangle>false</activevideoangle>
                    <activeaudioangle>false</activeaudioangle>
                    <clip id="clip-3"/>
                  </angle>
                  <angle>
                    <activevideoangle>true</activevideoangle>
                    <activeaudioangle>true</activeaudioangle>
                    <clip id="clip-4"/>
                  </angle>
                  <angle>
                    <activevideoangle>false</activevideoangle>
                    <activeaudioangle>false</activeaudioangle>
                    <clip id="clip-5"/>
                  </angle>
                  <angle>
                    <activevideoangle>false</activevideoangle>
                    <activeaudioangle>false</activeaudioangle>
                    <clip id="clip-6"/>
                  </angle>
                  <angle>
                    <activevideoangle>false</activevideoangle>
                    <activeaudioangle>false</activeaudioangle>
                    <clip id="clip-7"/>
                  </angle>
                  <angle>
                    <activevideoangle>false</activevideoangle>
                    <activeaudioangle>false</activeaudioangle>
                    <clip id="clip-8"/>
                  </angle>
                  <angle>
                    <activevideoangle>false</activevideoangle>
                    <activeaudioangle>false</activeaudioangle>
                    <clip id="clip-9"/>
                  </angle>
                  <masterclipid>clip-master</masterclipid>
                </multiclip>
              </clipitem>
              <clipitem id="cs-886">
                <duration>104</duration>
                <rate>
                  <ntsc>false</ntsc>
                  <timebase>25</timebase>
                </rate>
                <in>71636</in>
                <out>71739</out>
                <start>71636</start>
                <end>71739</end>
                <file id="src-3"/>
                <sourcetrack>
                  <mediatype>video</mediatype>
                  <trackindex>1</trackindex>
                </sourcetrack>
                <multiclip id="mcs-886">
                  <name>MCS-886</name>
                  <masterclipid>clip-master</masterclipid>
                  <collapsed>false</collapsed>
                  <angle>
                    <activevideoangle>false</activevideoangle>
                    <activeaudioangle>false</activeaudioangle>
                    <clip id="clip-1"/>
                  </angle>
                  <angle>
                    <activevideoangle>false</activevideoangle>
                    <activeaudioangle>false</activeaudioangle>
                    <clip id="clip-2"/>
                  </angle>
                  <angle>
                    <activevideoangle>true</activevideoangle>
                    <activeaudioangle>true</activeaudioangle>
                    <clip id="clip-3"/>
                  </angle>
                  <angle>
                    <activevideoangle>false</activevideoangle>
                    <activeaudioangle>false</activeaudioangle>
                    <clip id="clip-4"/>
                  </angle>
                  <angle>
                    <activevideoangle>false</activevideoangle>
                    <activeaudioangle>false</activeaudioangle>
                    <clip id="clip-5"/>
                  </angle>
                  <angle>
                    <activevideoangle>false</activevideoangle>
                    <activeaudioangle>false</activeaudioangle>
                    <clip id="clip-6"/>
                  </angle>
                  <angle>
                    <activevideoangle>false</activevideoangle>
                    <activeaudioangle>false</activeaudioangle>
                    <clip id="clip-7"/>
                  </angle>
                  <angle>
                    <activevideoangle>false</activevideoangle>
                    <activeaudioangle>false</activeaudioangle>
                    <clip id="clip-8"/>
                  </angle>
                  <angle>
                    <activevideoangle>false</activevideoangle>
                    <activeaudioangle>false</activeaudioangle>
                    <clip id="clip-9"/>
                  </angle>
                  <masterclipid>clip-master</masterclipid>
                </multiclip>
              </clipitem>
              <clipitem id="cs-887">
                <duration>159</duration>
                <rate>
                  <ntsc>false</ntsc>
                  <timebase>25</timebase>
                </rate>
                <in>71739</in>
                <out>71897</out>
                <start>71739</start>
                <end>71897</end>
                <file id="src-6"/>
                <sourcetrack>
                  <mediatype>video</mediatype>
                  <trackindex>1</trackindex>
                </sourcetrack>
                <multiclip id="mcs-887">
                  <name>MCS-887</name>
                  <masterclipid>clip-master</masterclipid>
                  <collapsed>false</collapsed>
                  <angle>
                    <activevideoangle>false</activevideoangle>
                    <activeaudioangle>false</activeaudioangle>
                    <clip id="clip-1"/>
                  </angle>
                  <angle>
                    <activevideoangle>false</activevideoangle>
                    <activeaudioangle>false</activeaudioangle>
                    <clip id="clip-2"/>
                  </angle>
                  <angle>
                    <activevideoangle>false</activevideoangle>
                    <activeaudioangle>false</activeaudioangle>
                    <clip id="clip-3"/>
                  </angle>
                  <angle>
                    <activevideoangle>false</activevideoangle>
                    <activeaudioangle>false</activeaudioangle>
                    <clip id="clip-4"/>
                  </angle>
                  <angle>
                    <activevideoangle>false</activevideoangle>
                    <activeaudioangle>false</activeaudioangle>
                    <clip id="clip-5"/>
                  </angle>
                  <angle>
                    <activevideoangle>true</activevideoangle>
                    <activeaudioangle>true</activeaudioangle>
                    <clip id="clip-6"/>
                  </angle>
                  <angle>
                    <activevideoangle>false</activevideoangle>
                    <activeaudioangle>false</activeaudioangle>
                    <clip id="clip-7"/>
                  </angle>
                  <angle>
                    <activevideoangle>false</activevideoangle>
                    <activeaudioangle>false</activeaudioangle>
                    <clip id="clip-8"/>
                  </angle>
                  <angle>
                    <activevideoangle>false</activevideoangle>
                    <activeaudioangle>false</activeaudioangle>
                    <clip id="clip-9"/>
                  </angle>
                  <masterclipid>clip-master</masterclipid>
                </multiclip>
              </clipitem>
              <clipitem id="cs-888">
                <duration>70</duration>
                <rate>
                  <ntsc>false</ntsc>
                  <timebase>25</timebase>
                </rate>
                <in>71897</in>
                <out>71966</out>
                <start>71897</start>
                <end>71966</end>
                <file id="src-4"/>
                <sourcetrack>
                  <mediatype>video</mediatype>
                  <trackindex>1</trackindex>
                </sourcetrack>
                <multiclip id="mcs-888">
                  <name>MCS-888</name>
                  <masterclipid>clip-master</masterclipid>
                  <collapsed>false</collapsed>
                  <angle>
                    <activevideoangle>false</activevideoangle>
                    <activeaudioangle>false</activeaudioangle>
                    <clip id="clip-1"/>
                  </angle>
                  <angle>
                    <activevideoangle>false</activevideoangle>
                    <activeaudioangle>false</activeaudioangle>
                    <clip id="clip-2"/>
                  </angle>
                  <angle>
                    <activevideoangle>false</activevideoangle>
                    <activeaudioangle>false</activeaudioangle>
                    <clip id="clip-3"/>
                  </angle>
                  <angle>
                    <activevideoangle>true</activevideoangle>
                    <activeaudioangle>true</activeaudioangle>
                    <clip id="clip-4"/>
                  </angle>
                  <angle>
                    <activevideoangle>false</activevideoangle>
                    <activeaudioangle>false</activeaudioangle>
                    <clip id="clip-5"/>
                  </angle>
                  <angle>
                    <activevideoangle>false</activevideoangle>
                    <activeaudioangle>false</activeaudioangle>
                    <clip id="clip-6"/>
                  </angle>
                  <angle>
                    <activevideoangle>false</activevideoangle>
                    <activeaudioangle>false</activeaudioangle>
                    <clip id="clip-7"/>
                  </angle>
                  <angle>
                    <activevideoangle>false</activevideoangle>
                    <activeaudioangle>false</activeaudioangle>
                    <clip id="clip-8"/>
                  </angle>
                  <angle>
                    <activevideoangle>false</activevideoangle>
                    <activeaudioangle>false</activeaudioangle>
                    <clip id="clip-9"/>
                  </angle>
                  <masterclipid>clip-master</masterclipid>
                </multiclip>
              </clipitem>
              <clipitem id="cs-889">
                <duration>334</duration>
                <rate>
                  <ntsc>false</ntsc>
                  <timebase>25</timebase>
                </rate>
                <in>71966</in>
                <out>72299</out>
                <start>71966</start>
                <end>72299</end>
                <file id="src-3"/>
                <sourcetrack>
                  <mediatype>video</mediatype>
                  <trackindex>1</trackindex>
                </sourcetrack>
                <multiclip id="mcs-889">
                  <name>MCS-889</name>
                  <masterclipid>clip-master</masterclipid>
                  <collapsed>false</collapsed>
                  <angle>
                    <activevideoangle>false</activevideoangle>
                    <activeaudioangle>false</activeaudioangle>
                    <clip id="clip-1"/>
                  </angle>
                  <angle>
                    <activevideoangle>false</activevideoangle>
                    <activeaudioangle>false</activeaudioangle>
                    <clip id="clip-2"/>
                  </angle>
                  <angle>
                    <activevideoangle>true</activevideoangle>
                    <activeaudioangle>true</activeaudioangle>
                    <clip id="clip-3"/>
                  </angle>
                  <angle>
                    <activevideoangle>false</activevideoangle>
                    <activeaudioangle>false</activeaudioangle>
                    <clip id="clip-4"/>
                  </angle>
                  <angle>
                    <activevideoangle>false</activevideoangle>
                    <activeaudioangle>false</activeaudioangle>
                    <clip id="clip-5"/>
                  </angle>
                  <angle>
                    <activevideoangle>false</activevideoangle>
                    <activeaudioangle>false</activeaudioangle>
                    <clip id="clip-6"/>
                  </angle>
                  <angle>
                    <activevideoangle>false</activevideoangle>
                    <activeaudioangle>false</activeaudioangle>
                    <clip id="clip-7"/>
                  </angle>
                  <angle>
                    <activevideoangle>false</activevideoangle>
                    <activeaudioangle>false</activeaudioangle>
                    <clip id="clip-8"/>
                  </angle>
                  <angle>
                    <activevideoangle>false</activevideoangle>
                    <activeaudioangle>false</activeaudioangle>
                    <clip id="clip-9"/>
                  </angle>
                  <masterclipid>clip-master</masterclipid>
                </multiclip>
              </clipitem>
              <clipitem id="cs-890">
                <duration>172</duration>
                <rate>
                  <ntsc>false</ntsc>
                  <timebase>25</timebase>
                </rate>
                <in>72299</in>
                <out>72470</out>
                <start>72299</start>
                <end>72470</end>
                <file id="src-4"/>
                <sourcetrack>
                  <mediatype>video</mediatype>
                  <trackindex>1</trackindex>
                </sourcetrack>
                <multiclip id="mcs-890">
                  <name>MCS-890</name>
                  <masterclipid>clip-master</masterclipid>
                  <collapsed>false</collapsed>
                  <angle>
                    <activevideoangle>false</activevideoangle>
                    <activeaudioangle>false</activeaudioangle>
                    <clip id="clip-1"/>
                  </angle>
                  <angle>
                    <activevideoangle>false</activevideoangle>
                    <activeaudioangle>false</activeaudioangle>
                    <clip id="clip-2"/>
                  </angle>
                  <angle>
                    <activevideoangle>false</activevideoangle>
                    <activeaudioangle>false</activeaudioangle>
                    <clip id="clip-3"/>
                  </angle>
                  <angle>
                    <activevideoangle>true</activevideoangle>
                    <activeaudioangle>true</activeaudioangle>
                    <clip id="clip-4"/>
                  </angle>
                  <angle>
                    <activevideoangle>false</activevideoangle>
                    <activeaudioangle>false</activeaudioangle>
                    <clip id="clip-5"/>
                  </angle>
                  <angle>
                    <activevideoangle>false</activevideoangle>
                    <activeaudioangle>false</activeaudioangle>
                    <clip id="clip-6"/>
                  </angle>
                  <angle>
                    <activevideoangle>false</activevideoangle>
                    <activeaudioangle>false</activeaudioangle>
                    <clip id="clip-7"/>
                  </angle>
                  <angle>
                    <activevideoangle>false</activevideoangle>
                    <activeaudioangle>false</activeaudioangle>
                    <clip id="clip-8"/>
                  </angle>
                  <angle>
                    <activevideoangle>false</activevideoangle>
                    <activeaudioangle>false</activeaudioangle>
                    <clip id="clip-9"/>
                  </angle>
                  <masterclipid>clip-master</masterclipid>
                </multiclip>
              </clipitem>
              <clipitem id="cs-891">
                <duration>390</duration>
                <rate>
                  <ntsc>false</ntsc>
                  <timebase>25</timebase>
                </rate>
                <in>72470</in>
                <out>72859</out>
                <start>72470</start>
                <end>72859</end>
                <file id="src-3"/>
                <sourcetrack>
                  <mediatype>video</mediatype>
                  <trackindex>1</trackindex>
                </sourcetrack>
                <multiclip id="mcs-891">
                  <name>MCS-891</name>
                  <masterclipid>clip-master</masterclipid>
                  <collapsed>false</collapsed>
                  <angle>
                    <activevideoangle>false</activevideoangle>
                    <activeaudioangle>false</activeaudioangle>
                    <clip id="clip-1"/>
                  </angle>
                  <angle>
                    <activevideoangle>false</activevideoangle>
                    <activeaudioangle>false</activeaudioangle>
                    <clip id="clip-2"/>
                  </angle>
                  <angle>
                    <activevideoangle>true</activevideoangle>
                    <activeaudioangle>true</activeaudioangle>
                    <clip id="clip-3"/>
                  </angle>
                  <angle>
                    <activevideoangle>false</activevideoangle>
                    <activeaudioangle>false</activeaudioangle>
                    <clip id="clip-4"/>
                  </angle>
                  <angle>
                    <activevideoangle>false</activevideoangle>
                    <activeaudioangle>false</activeaudioangle>
                    <clip id="clip-5"/>
                  </angle>
                  <angle>
                    <activevideoangle>false</activevideoangle>
                    <activeaudioangle>false</activeaudioangle>
                    <clip id="clip-6"/>
                  </angle>
                  <angle>
                    <activevideoangle>false</activevideoangle>
                    <activeaudioangle>false</activeaudioangle>
                    <clip id="clip-7"/>
                  </angle>
                  <angle>
                    <activevideoangle>false</activevideoangle>
                    <activeaudioangle>false</activeaudioangle>
                    <clip id="clip-8"/>
                  </angle>
                  <angle>
                    <activevideoangle>false</activevideoangle>
                    <activeaudioangle>false</activeaudioangle>
                    <clip id="clip-9"/>
                  </angle>
                  <masterclipid>clip-master</masterclipid>
                </multiclip>
              </clipitem>
              <clipitem id="cs-892">
                <duration>81</duration>
                <rate>
                  <ntsc>false</ntsc>
                  <timebase>25</timebase>
                </rate>
                <in>72859</in>
                <out>72939</out>
                <start>72859</start>
                <end>72939</end>
                <file id="src-6"/>
                <sourcetrack>
                  <mediatype>video</mediatype>
                  <trackindex>1</trackindex>
                </sourcetrack>
                <multiclip id="mcs-892">
                  <name>MCS-892</name>
                  <masterclipid>clip-master</masterclipid>
                  <collapsed>false</collapsed>
                  <angle>
                    <activevideoangle>false</activevideoangle>
                    <activeaudioangle>false</activeaudioangle>
                    <clip id="clip-1"/>
                  </angle>
                  <angle>
                    <activevideoangle>false</activevideoangle>
                    <activeaudioangle>false</activeaudioangle>
                    <clip id="clip-2"/>
                  </angle>
                  <angle>
                    <activevideoangle>false</activevideoangle>
                    <activeaudioangle>false</activeaudioangle>
                    <clip id="clip-3"/>
                  </angle>
                  <angle>
                    <activevideoangle>false</activevideoangle>
                    <activeaudioangle>false</activeaudioangle>
                    <clip id="clip-4"/>
                  </angle>
                  <angle>
                    <activevideoangle>false</activevideoangle>
                    <activeaudioangle>false</activeaudioangle>
                    <clip id="clip-5"/>
                  </angle>
                  <angle>
                    <activevideoangle>true</activevideoangle>
                    <activeaudioangle>true</activeaudioangle>
                    <clip id="clip-6"/>
                  </angle>
                  <angle>
                    <activevideoangle>false</activevideoangle>
                    <activeaudioangle>false</activeaudioangle>
                    <clip id="clip-7"/>
                  </angle>
                  <angle>
                    <activevideoangle>false</activevideoangle>
                    <activeaudioangle>false</activeaudioangle>
                    <clip id="clip-8"/>
                  </angle>
                  <angle>
                    <activevideoangle>false</activevideoangle>
                    <activeaudioangle>false</activeaudioangle>
                    <clip id="clip-9"/>
                  </angle>
                  <masterclipid>clip-master</masterclipid>
                </multiclip>
              </clipitem>
              <clipitem id="cs-893">
                <duration>64</duration>
                <rate>
                  <ntsc>false</ntsc>
                  <timebase>25</timebase>
                </rate>
                <in>72939</in>
                <out>73002</out>
                <start>72939</start>
                <end>73002</end>
                <file id="src-4"/>
                <sourcetrack>
                  <mediatype>video</mediatype>
                  <trackindex>1</trackindex>
                </sourcetrack>
                <multiclip id="mcs-893">
                  <name>MCS-893</name>
                  <masterclipid>clip-master</masterclipid>
                  <collapsed>false</collapsed>
                  <angle>
                    <activevideoangle>false</activevideoangle>
                    <activeaudioangle>false</activeaudioangle>
                    <clip id="clip-1"/>
                  </angle>
                  <angle>
                    <activevideoangle>false</activevideoangle>
                    <activeaudioangle>false</activeaudioangle>
                    <clip id="clip-2"/>
                  </angle>
                  <angle>
                    <activevideoangle>false</activevideoangle>
                    <activeaudioangle>false</activeaudioangle>
                    <clip id="clip-3"/>
                  </angle>
                  <angle>
                    <activevideoangle>true</activevideoangle>
                    <activeaudioangle>true</activeaudioangle>
                    <clip id="clip-4"/>
                  </angle>
                  <angle>
                    <activevideoangle>false</activevideoangle>
                    <activeaudioangle>false</activeaudioangle>
                    <clip id="clip-5"/>
                  </angle>
                  <angle>
                    <activevideoangle>false</activevideoangle>
                    <activeaudioangle>false</activeaudioangle>
                    <clip id="clip-6"/>
                  </angle>
                  <angle>
                    <activevideoangle>false</activevideoangle>
                    <activeaudioangle>false</activeaudioangle>
                    <clip id="clip-7"/>
                  </angle>
                  <angle>
                    <activevideoangle>false</activevideoangle>
                    <activeaudioangle>false</activeaudioangle>
                    <clip id="clip-8"/>
                  </angle>
                  <angle>
                    <activevideoangle>false</activevideoangle>
                    <activeaudioangle>false</activeaudioangle>
                    <clip id="clip-9"/>
                  </angle>
                  <masterclipid>clip-master</masterclipid>
                </multiclip>
              </clipitem>
              <clipitem id="cs-894">
                <duration>211</duration>
                <rate>
                  <ntsc>false</ntsc>
                  <timebase>25</timebase>
                </rate>
                <in>73002</in>
                <out>73212</out>
                <start>73002</start>
                <end>73212</end>
                <file id="src-3"/>
                <sourcetrack>
                  <mediatype>video</mediatype>
                  <trackindex>1</trackindex>
                </sourcetrack>
                <multiclip id="mcs-894">
                  <name>MCS-894</name>
                  <masterclipid>clip-master</masterclipid>
                  <collapsed>false</collapsed>
                  <angle>
                    <activevideoangle>false</activevideoangle>
                    <activeaudioangle>false</activeaudioangle>
                    <clip id="clip-1"/>
                  </angle>
                  <angle>
                    <activevideoangle>false</activevideoangle>
                    <activeaudioangle>false</activeaudioangle>
                    <clip id="clip-2"/>
                  </angle>
                  <angle>
                    <activevideoangle>true</activevideoangle>
                    <activeaudioangle>true</activeaudioangle>
                    <clip id="clip-3"/>
                  </angle>
                  <angle>
                    <activevideoangle>false</activevideoangle>
                    <activeaudioangle>false</activeaudioangle>
                    <clip id="clip-4"/>
                  </angle>
                  <angle>
                    <activevideoangle>false</activevideoangle>
                    <activeaudioangle>false</activeaudioangle>
                    <clip id="clip-5"/>
                  </angle>
                  <angle>
                    <activevideoangle>false</activevideoangle>
                    <activeaudioangle>false</activeaudioangle>
                    <clip id="clip-6"/>
                  </angle>
                  <angle>
                    <activevideoangle>false</activevideoangle>
                    <activeaudioangle>false</activeaudioangle>
                    <clip id="clip-7"/>
                  </angle>
                  <angle>
                    <activevideoangle>false</activevideoangle>
                    <activeaudioangle>false</activeaudioangle>
                    <clip id="clip-8"/>
                  </angle>
                  <angle>
                    <activevideoangle>false</activevideoangle>
                    <activeaudioangle>false</activeaudioangle>
                    <clip id="clip-9"/>
                  </angle>
                  <masterclipid>clip-master</masterclipid>
                </multiclip>
              </clipitem>
              <clipitem id="cs-895">
                <duration>79</duration>
                <rate>
                  <ntsc>false</ntsc>
                  <timebase>25</timebase>
                </rate>
                <in>73212</in>
                <out>73290</out>
                <start>73212</start>
                <end>73290</end>
                <file id="src-4"/>
                <sourcetrack>
                  <mediatype>video</mediatype>
                  <trackindex>1</trackindex>
                </sourcetrack>
                <multiclip id="mcs-895">
                  <name>MCS-895</name>
                  <masterclipid>clip-master</masterclipid>
                  <collapsed>false</collapsed>
                  <angle>
                    <activevideoangle>false</activevideoangle>
                    <activeaudioangle>false</activeaudioangle>
                    <clip id="clip-1"/>
                  </angle>
                  <angle>
                    <activevideoangle>false</activevideoangle>
                    <activeaudioangle>false</activeaudioangle>
                    <clip id="clip-2"/>
                  </angle>
                  <angle>
                    <activevideoangle>false</activevideoangle>
                    <activeaudioangle>false</activeaudioangle>
                    <clip id="clip-3"/>
                  </angle>
                  <angle>
                    <activevideoangle>true</activevideoangle>
                    <activeaudioangle>true</activeaudioangle>
                    <clip id="clip-4"/>
                  </angle>
                  <angle>
                    <activevideoangle>false</activevideoangle>
                    <activeaudioangle>false</activeaudioangle>
                    <clip id="clip-5"/>
                  </angle>
                  <angle>
                    <activevideoangle>false</activevideoangle>
                    <activeaudioangle>false</activeaudioangle>
                    <clip id="clip-6"/>
                  </angle>
                  <angle>
                    <activevideoangle>false</activevideoangle>
                    <activeaudioangle>false</activeaudioangle>
                    <clip id="clip-7"/>
                  </angle>
                  <angle>
                    <activevideoangle>false</activevideoangle>
                    <activeaudioangle>false</activeaudioangle>
                    <clip id="clip-8"/>
                  </angle>
                  <angle>
                    <activevideoangle>false</activevideoangle>
                    <activeaudioangle>false</activeaudioangle>
                    <clip id="clip-9"/>
                  </angle>
                  <masterclipid>clip-master</masterclipid>
                </multiclip>
              </clipitem>
              <clipitem id="cs-896">
                <duration>102</duration>
                <rate>
                  <ntsc>false</ntsc>
                  <timebase>25</timebase>
                </rate>
                <in>73290</in>
                <out>73391</out>
                <start>73290</start>
                <end>73391</end>
                <file id="src-2"/>
                <sourcetrack>
                  <mediatype>video</mediatype>
                  <trackindex>1</trackindex>
                </sourcetrack>
                <multiclip id="mcs-896">
                  <name>MCS-896</name>
                  <masterclipid>clip-master</masterclipid>
                  <collapsed>false</collapsed>
                  <angle>
                    <activevideoangle>false</activevideoangle>
                    <activeaudioangle>false</activeaudioangle>
                    <clip id="clip-1"/>
                  </angle>
                  <angle>
                    <activevideoangle>true</activevideoangle>
                    <activeaudioangle>true</activeaudioangle>
                    <clip id="clip-2"/>
                  </angle>
                  <angle>
                    <activevideoangle>false</activevideoangle>
                    <activeaudioangle>false</activeaudioangle>
                    <clip id="clip-3"/>
                  </angle>
                  <angle>
                    <activevideoangle>false</activevideoangle>
                    <activeaudioangle>false</activeaudioangle>
                    <clip id="clip-4"/>
                  </angle>
                  <angle>
                    <activevideoangle>false</activevideoangle>
                    <activeaudioangle>false</activeaudioangle>
                    <clip id="clip-5"/>
                  </angle>
                  <angle>
                    <activevideoangle>false</activevideoangle>
                    <activeaudioangle>false</activeaudioangle>
                    <clip id="clip-6"/>
                  </angle>
                  <angle>
                    <activevideoangle>false</activevideoangle>
                    <activeaudioangle>false</activeaudioangle>
                    <clip id="clip-7"/>
                  </angle>
                  <angle>
                    <activevideoangle>false</activevideoangle>
                    <activeaudioangle>false</activeaudioangle>
                    <clip id="clip-8"/>
                  </angle>
                  <angle>
                    <activevideoangle>false</activevideoangle>
                    <activeaudioangle>false</activeaudioangle>
                    <clip id="clip-9"/>
                  </angle>
                  <masterclipid>clip-master</masterclipid>
                </multiclip>
              </clipitem>
              <clipitem id="cs-897">
                <duration>119</duration>
                <rate>
                  <ntsc>false</ntsc>
                  <timebase>25</timebase>
                </rate>
                <in>73391</in>
                <out>73509</out>
                <start>73391</start>
                <end>73509</end>
                <file id="src-3"/>
                <sourcetrack>
                  <mediatype>video</mediatype>
                  <trackindex>1</trackindex>
                </sourcetrack>
                <multiclip id="mcs-897">
                  <name>MCS-897</name>
                  <masterclipid>clip-master</masterclipid>
                  <collapsed>false</collapsed>
                  <angle>
                    <activevideoangle>false</activevideoangle>
                    <activeaudioangle>false</activeaudioangle>
                    <clip id="clip-1"/>
                  </angle>
                  <angle>
                    <activevideoangle>false</activevideoangle>
                    <activeaudioangle>false</activeaudioangle>
                    <clip id="clip-2"/>
                  </angle>
                  <angle>
                    <activevideoangle>true</activevideoangle>
                    <activeaudioangle>true</activeaudioangle>
                    <clip id="clip-3"/>
                  </angle>
                  <angle>
                    <activevideoangle>false</activevideoangle>
                    <activeaudioangle>false</activeaudioangle>
                    <clip id="clip-4"/>
                  </angle>
                  <angle>
                    <activevideoangle>false</activevideoangle>
                    <activeaudioangle>false</activeaudioangle>
                    <clip id="clip-5"/>
                  </angle>
                  <angle>
                    <activevideoangle>false</activevideoangle>
                    <activeaudioangle>false</activeaudioangle>
                    <clip id="clip-6"/>
                  </angle>
                  <angle>
                    <activevideoangle>false</activevideoangle>
                    <activeaudioangle>false</activeaudioangle>
                    <clip id="clip-7"/>
                  </angle>
                  <angle>
                    <activevideoangle>false</activevideoangle>
                    <activeaudioangle>false</activeaudioangle>
                    <clip id="clip-8"/>
                  </angle>
                  <angle>
                    <activevideoangle>false</activevideoangle>
                    <activeaudioangle>false</activeaudioangle>
                    <clip id="clip-9"/>
                  </angle>
                  <masterclipid>clip-master</masterclipid>
                </multiclip>
              </clipitem>
              <clipitem id="cs-898">
                <duration>211</duration>
                <rate>
                  <ntsc>false</ntsc>
                  <timebase>25</timebase>
                </rate>
                <in>73509</in>
                <out>73719</out>
                <start>73509</start>
                <end>73719</end>
                <file id="src-6"/>
                <sourcetrack>
                  <mediatype>video</mediatype>
                  <trackindex>1</trackindex>
                </sourcetrack>
                <multiclip id="mcs-898">
                  <name>MCS-898</name>
                  <masterclipid>clip-master</masterclipid>
                  <collapsed>false</collapsed>
                  <angle>
                    <activevideoangle>false</activevideoangle>
                    <activeaudioangle>false</activeaudioangle>
                    <clip id="clip-1"/>
                  </angle>
                  <angle>
                    <activevideoangle>false</activevideoangle>
                    <activeaudioangle>false</activeaudioangle>
                    <clip id="clip-2"/>
                  </angle>
                  <angle>
                    <activevideoangle>false</activevideoangle>
                    <activeaudioangle>false</activeaudioangle>
                    <clip id="clip-3"/>
                  </angle>
                  <angle>
                    <activevideoangle>false</activevideoangle>
                    <activeaudioangle>false</activeaudioangle>
                    <clip id="clip-4"/>
                  </angle>
                  <angle>
                    <activevideoangle>false</activevideoangle>
                    <activeaudioangle>false</activeaudioangle>
                    <clip id="clip-5"/>
                  </angle>
                  <angle>
                    <activevideoangle>true</activevideoangle>
                    <activeaudioangle>true</activeaudioangle>
                    <clip id="clip-6"/>
                  </angle>
                  <angle>
                    <activevideoangle>false</activevideoangle>
                    <activeaudioangle>false</activeaudioangle>
                    <clip id="clip-7"/>
                  </angle>
                  <angle>
                    <activevideoangle>false</activevideoangle>
                    <activeaudioangle>false</activeaudioangle>
                    <clip id="clip-8"/>
                  </angle>
                  <angle>
                    <activevideoangle>false</activevideoangle>
                    <activeaudioangle>false</activeaudioangle>
                    <clip id="clip-9"/>
                  </angle>
                  <masterclipid>clip-master</masterclipid>
                </multiclip>
              </clipitem>
              <clipitem id="cs-899">
                <duration>82</duration>
                <rate>
                  <ntsc>false</ntsc>
                  <timebase>25</timebase>
                </rate>
                <in>73719</in>
                <out>73800</out>
                <start>73719</start>
                <end>73800</end>
                <file id="src-3"/>
                <sourcetrack>
                  <mediatype>video</mediatype>
                  <trackindex>1</trackindex>
                </sourcetrack>
                <multiclip id="mcs-899">
                  <name>MCS-899</name>
                  <masterclipid>clip-master</masterclipid>
                  <collapsed>false</collapsed>
                  <angle>
                    <activevideoangle>false</activevideoangle>
                    <activeaudioangle>false</activeaudioangle>
                    <clip id="clip-1"/>
                  </angle>
                  <angle>
                    <activevideoangle>false</activevideoangle>
                    <activeaudioangle>false</activeaudioangle>
                    <clip id="clip-2"/>
                  </angle>
                  <angle>
                    <activevideoangle>true</activevideoangle>
                    <activeaudioangle>true</activeaudioangle>
                    <clip id="clip-3"/>
                  </angle>
                  <angle>
                    <activevideoangle>false</activevideoangle>
                    <activeaudioangle>false</activeaudioangle>
                    <clip id="clip-4"/>
                  </angle>
                  <angle>
                    <activevideoangle>false</activevideoangle>
                    <activeaudioangle>false</activeaudioangle>
                    <clip id="clip-5"/>
                  </angle>
                  <angle>
                    <activevideoangle>false</activevideoangle>
                    <activeaudioangle>false</activeaudioangle>
                    <clip id="clip-6"/>
                  </angle>
                  <angle>
                    <activevideoangle>false</activevideoangle>
                    <activeaudioangle>false</activeaudioangle>
                    <clip id="clip-7"/>
                  </angle>
                  <angle>
                    <activevideoangle>false</activevideoangle>
                    <activeaudioangle>false</activeaudioangle>
                    <clip id="clip-8"/>
                  </angle>
                  <angle>
                    <activevideoangle>false</activevideoangle>
                    <activeaudioangle>false</activeaudioangle>
                    <clip id="clip-9"/>
                  </angle>
                  <masterclipid>clip-master</masterclipid>
                </multiclip>
              </clipitem>
              <clipitem id="cs-900">
                <duration>581</duration>
                <rate>
                  <ntsc>false</ntsc>
                  <timebase>25</timebase>
                </rate>
                <in>73800</in>
                <out>74380</out>
                <start>73800</start>
                <end>74380</end>
                <file id="src-2"/>
                <sourcetrack>
                  <mediatype>video</mediatype>
                  <trackindex>1</trackindex>
                </sourcetrack>
                <multiclip id="mcs-900">
                  <name>MCS-900</name>
                  <masterclipid>clip-master</masterclipid>
                  <collapsed>false</collapsed>
                  <angle>
                    <activevideoangle>false</activevideoangle>
                    <activeaudioangle>false</activeaudioangle>
                    <clip id="clip-1"/>
                  </angle>
                  <angle>
                    <activevideoangle>true</activevideoangle>
                    <activeaudioangle>true</activeaudioangle>
                    <clip id="clip-2"/>
                  </angle>
                  <angle>
                    <activevideoangle>false</activevideoangle>
                    <activeaudioangle>false</activeaudioangle>
                    <clip id="clip-3"/>
                  </angle>
                  <angle>
                    <activevideoangle>false</activevideoangle>
                    <activeaudioangle>false</activeaudioangle>
                    <clip id="clip-4"/>
                  </angle>
                  <angle>
                    <activevideoangle>false</activevideoangle>
                    <activeaudioangle>false</activeaudioangle>
                    <clip id="clip-5"/>
                  </angle>
                  <angle>
                    <activevideoangle>false</activevideoangle>
                    <activeaudioangle>false</activeaudioangle>
                    <clip id="clip-6"/>
                  </angle>
                  <angle>
                    <activevideoangle>false</activevideoangle>
                    <activeaudioangle>false</activeaudioangle>
                    <clip id="clip-7"/>
                  </angle>
                  <angle>
                    <activevideoangle>false</activevideoangle>
                    <activeaudioangle>false</activeaudioangle>
                    <clip id="clip-8"/>
                  </angle>
                  <angle>
                    <activevideoangle>false</activevideoangle>
                    <activeaudioangle>false</activeaudioangle>
                    <clip id="clip-9"/>
                  </angle>
                  <masterclipid>clip-master</masterclipid>
                </multiclip>
              </clipitem>
              <clipitem id="cs-901">
                <duration>53</duration>
                <rate>
                  <ntsc>false</ntsc>
                  <timebase>25</timebase>
                </rate>
                <in>74380</in>
                <out>74432</out>
                <start>74380</start>
                <end>74432</end>
                <file id="src-3"/>
                <sourcetrack>
                  <mediatype>video</mediatype>
                  <trackindex>1</trackindex>
                </sourcetrack>
                <multiclip id="mcs-901">
                  <name>MCS-901</name>
                  <masterclipid>clip-master</masterclipid>
                  <collapsed>false</collapsed>
                  <angle>
                    <activevideoangle>false</activevideoangle>
                    <activeaudioangle>false</activeaudioangle>
                    <clip id="clip-1"/>
                  </angle>
                  <angle>
                    <activevideoangle>false</activevideoangle>
                    <activeaudioangle>false</activeaudioangle>
                    <clip id="clip-2"/>
                  </angle>
                  <angle>
                    <activevideoangle>true</activevideoangle>
                    <activeaudioangle>true</activeaudioangle>
                    <clip id="clip-3"/>
                  </angle>
                  <angle>
                    <activevideoangle>false</activevideoangle>
                    <activeaudioangle>false</activeaudioangle>
                    <clip id="clip-4"/>
                  </angle>
                  <angle>
                    <activevideoangle>false</activevideoangle>
                    <activeaudioangle>false</activeaudioangle>
                    <clip id="clip-5"/>
                  </angle>
                  <angle>
                    <activevideoangle>false</activevideoangle>
                    <activeaudioangle>false</activeaudioangle>
                    <clip id="clip-6"/>
                  </angle>
                  <angle>
                    <activevideoangle>false</activevideoangle>
                    <activeaudioangle>false</activeaudioangle>
                    <clip id="clip-7"/>
                  </angle>
                  <angle>
                    <activevideoangle>false</activevideoangle>
                    <activeaudioangle>false</activeaudioangle>
                    <clip id="clip-8"/>
                  </angle>
                  <angle>
                    <activevideoangle>false</activevideoangle>
                    <activeaudioangle>false</activeaudioangle>
                    <clip id="clip-9"/>
                  </angle>
                  <masterclipid>clip-master</masterclipid>
                </multiclip>
              </clipitem>
              <clipitem id="cs-902">
                <duration>252</duration>
                <rate>
                  <ntsc>false</ntsc>
                  <timebase>25</timebase>
                </rate>
                <in>74432</in>
                <out>74683</out>
                <start>74432</start>
                <end>74683</end>
                <file id="src-1"/>
                <sourcetrack>
                  <mediatype>video</mediatype>
                  <trackindex>1</trackindex>
                </sourcetrack>
                <multiclip id="mcs-902">
                  <name>MCS-902</name>
                  <masterclipid>clip-master</masterclipid>
                  <collapsed>false</collapsed>
                  <angle>
                    <activevideoangle>true</activevideoangle>
                    <activeaudioangle>true</activeaudioangle>
                    <clip id="clip-1"/>
                  </angle>
                  <angle>
                    <activevideoangle>false</activevideoangle>
                    <activeaudioangle>false</activeaudioangle>
                    <clip id="clip-2"/>
                  </angle>
                  <angle>
                    <activevideoangle>false</activevideoangle>
                    <activeaudioangle>false</activeaudioangle>
                    <clip id="clip-3"/>
                  </angle>
                  <angle>
                    <activevideoangle>false</activevideoangle>
                    <activeaudioangle>false</activeaudioangle>
                    <clip id="clip-4"/>
                  </angle>
                  <angle>
                    <activevideoangle>false</activevideoangle>
                    <activeaudioangle>false</activeaudioangle>
                    <clip id="clip-5"/>
                  </angle>
                  <angle>
                    <activevideoangle>false</activevideoangle>
                    <activeaudioangle>false</activeaudioangle>
                    <clip id="clip-6"/>
                  </angle>
                  <angle>
                    <activevideoangle>false</activevideoangle>
                    <activeaudioangle>false</activeaudioangle>
                    <clip id="clip-7"/>
                  </angle>
                  <angle>
                    <activevideoangle>false</activevideoangle>
                    <activeaudioangle>false</activeaudioangle>
                    <clip id="clip-8"/>
                  </angle>
                  <angle>
                    <activevideoangle>false</activevideoangle>
                    <activeaudioangle>false</activeaudioangle>
                    <clip id="clip-9"/>
                  </angle>
                  <masterclipid>clip-master</masterclipid>
                </multiclip>
              </clipitem>
              <clipitem id="cs-903">
                <duration>88</duration>
                <rate>
                  <ntsc>false</ntsc>
                  <timebase>25</timebase>
                </rate>
                <in>74683</in>
                <out>74770</out>
                <start>74683</start>
                <end>74770</end>
                <file id="src-3"/>
                <sourcetrack>
                  <mediatype>video</mediatype>
                  <trackindex>1</trackindex>
                </sourcetrack>
                <multiclip id="mcs-903">
                  <name>MCS-903</name>
                  <masterclipid>clip-master</masterclipid>
                  <collapsed>false</collapsed>
                  <angle>
                    <activevideoangle>false</activevideoangle>
                    <activeaudioangle>false</activeaudioangle>
                    <clip id="clip-1"/>
                  </angle>
                  <angle>
                    <activevideoangle>false</activevideoangle>
                    <activeaudioangle>false</activeaudioangle>
                    <clip id="clip-2"/>
                  </angle>
                  <angle>
                    <activevideoangle>true</activevideoangle>
                    <activeaudioangle>true</activeaudioangle>
                    <clip id="clip-3"/>
                  </angle>
                  <angle>
                    <activevideoangle>false</activevideoangle>
                    <activeaudioangle>false</activeaudioangle>
                    <clip id="clip-4"/>
                  </angle>
                  <angle>
                    <activevideoangle>false</activevideoangle>
                    <activeaudioangle>false</activeaudioangle>
                    <clip id="clip-5"/>
                  </angle>
                  <angle>
                    <activevideoangle>false</activevideoangle>
                    <activeaudioangle>false</activeaudioangle>
                    <clip id="clip-6"/>
                  </angle>
                  <angle>
                    <activevideoangle>false</activevideoangle>
                    <activeaudioangle>false</activeaudioangle>
                    <clip id="clip-7"/>
                  </angle>
                  <angle>
                    <activevideoangle>false</activevideoangle>
                    <activeaudioangle>false</activeaudioangle>
                    <clip id="clip-8"/>
                  </angle>
                  <angle>
                    <activevideoangle>false</activevideoangle>
                    <activeaudioangle>false</activeaudioangle>
                    <clip id="clip-9"/>
                  </angle>
                  <masterclipid>clip-master</masterclipid>
                </multiclip>
              </clipitem>
              <clipitem id="cs-904">
                <duration>101</duration>
                <rate>
                  <ntsc>false</ntsc>
                  <timebase>25</timebase>
                </rate>
                <in>74770</in>
                <out>74870</out>
                <start>74770</start>
                <end>74870</end>
                <file id="src-4"/>
                <sourcetrack>
                  <mediatype>video</mediatype>
                  <trackindex>1</trackindex>
                </sourcetrack>
                <multiclip id="mcs-904">
                  <name>MCS-904</name>
                  <masterclipid>clip-master</masterclipid>
                  <collapsed>false</collapsed>
                  <angle>
                    <activevideoangle>false</activevideoangle>
                    <activeaudioangle>false</activeaudioangle>
                    <clip id="clip-1"/>
                  </angle>
                  <angle>
                    <activevideoangle>false</activevideoangle>
                    <activeaudioangle>false</activeaudioangle>
                    <clip id="clip-2"/>
                  </angle>
                  <angle>
                    <activevideoangle>false</activevideoangle>
                    <activeaudioangle>false</activeaudioangle>
                    <clip id="clip-3"/>
                  </angle>
                  <angle>
                    <activevideoangle>true</activevideoangle>
                    <activeaudioangle>true</activeaudioangle>
                    <clip id="clip-4"/>
                  </angle>
                  <angle>
                    <activevideoangle>false</activevideoangle>
                    <activeaudioangle>false</activeaudioangle>
                    <clip id="clip-5"/>
                  </angle>
                  <angle>
                    <activevideoangle>false</activevideoangle>
                    <activeaudioangle>false</activeaudioangle>
                    <clip id="clip-6"/>
                  </angle>
                  <angle>
                    <activevideoangle>false</activevideoangle>
                    <activeaudioangle>false</activeaudioangle>
                    <clip id="clip-7"/>
                  </angle>
                  <angle>
                    <activevideoangle>false</activevideoangle>
                    <activeaudioangle>false</activeaudioangle>
                    <clip id="clip-8"/>
                  </angle>
                  <angle>
                    <activevideoangle>false</activevideoangle>
                    <activeaudioangle>false</activeaudioangle>
                    <clip id="clip-9"/>
                  </angle>
                  <masterclipid>clip-master</masterclipid>
                </multiclip>
              </clipitem>
              <clipitem id="cs-905">
                <duration>95</duration>
                <rate>
                  <ntsc>false</ntsc>
                  <timebase>25</timebase>
                </rate>
                <in>74870</in>
                <out>74964</out>
                <start>74870</start>
                <end>74964</end>
                <file id="src-5"/>
                <sourcetrack>
                  <mediatype>video</mediatype>
                  <trackindex>1</trackindex>
                </sourcetrack>
                <multiclip id="mcs-905">
                  <name>MCS-905</name>
                  <masterclipid>clip-master</masterclipid>
                  <collapsed>false</collapsed>
                  <angle>
                    <activevideoangle>false</activevideoangle>
                    <activeaudioangle>false</activeaudioangle>
                    <clip id="clip-1"/>
                  </angle>
                  <angle>
                    <activevideoangle>false</activevideoangle>
                    <activeaudioangle>false</activeaudioangle>
                    <clip id="clip-2"/>
                  </angle>
                  <angle>
                    <activevideoangle>false</activevideoangle>
                    <activeaudioangle>false</activeaudioangle>
                    <clip id="clip-3"/>
                  </angle>
                  <angle>
                    <activevideoangle>false</activevideoangle>
                    <activeaudioangle>false</activeaudioangle>
                    <clip id="clip-4"/>
                  </angle>
                  <angle>
                    <activevideoangle>true</activevideoangle>
                    <activeaudioangle>true</activeaudioangle>
                    <clip id="clip-5"/>
                  </angle>
                  <angle>
                    <activevideoangle>false</activevideoangle>
                    <activeaudioangle>false</activeaudioangle>
                    <clip id="clip-6"/>
                  </angle>
                  <angle>
                    <activevideoangle>false</activevideoangle>
                    <activeaudioangle>false</activeaudioangle>
                    <clip id="clip-7"/>
                  </angle>
                  <angle>
                    <activevideoangle>false</activevideoangle>
                    <activeaudioangle>false</activeaudioangle>
                    <clip id="clip-8"/>
                  </angle>
                  <angle>
                    <activevideoangle>false</activevideoangle>
                    <activeaudioangle>false</activeaudioangle>
                    <clip id="clip-9"/>
                  </angle>
                  <masterclipid>clip-master</masterclipid>
                </multiclip>
              </clipitem>
              <clipitem id="cs-906">
                <duration>98</duration>
                <rate>
                  <ntsc>false</ntsc>
                  <timebase>25</timebase>
                </rate>
                <in>74964</in>
                <out>75061</out>
                <start>74964</start>
                <end>75061</end>
                <file id="src-2"/>
                <sourcetrack>
                  <mediatype>video</mediatype>
                  <trackindex>1</trackindex>
                </sourcetrack>
                <multiclip id="mcs-906">
                  <name>MCS-906</name>
                  <masterclipid>clip-master</masterclipid>
                  <collapsed>false</collapsed>
                  <angle>
                    <activevideoangle>false</activevideoangle>
                    <activeaudioangle>false</activeaudioangle>
                    <clip id="clip-1"/>
                  </angle>
                  <angle>
                    <activevideoangle>true</activevideoangle>
                    <activeaudioangle>true</activeaudioangle>
                    <clip id="clip-2"/>
                  </angle>
                  <angle>
                    <activevideoangle>false</activevideoangle>
                    <activeaudioangle>false</activeaudioangle>
                    <clip id="clip-3"/>
                  </angle>
                  <angle>
                    <activevideoangle>false</activevideoangle>
                    <activeaudioangle>false</activeaudioangle>
                    <clip id="clip-4"/>
                  </angle>
                  <angle>
                    <activevideoangle>false</activevideoangle>
                    <activeaudioangle>false</activeaudioangle>
                    <clip id="clip-5"/>
                  </angle>
                  <angle>
                    <activevideoangle>false</activevideoangle>
                    <activeaudioangle>false</activeaudioangle>
                    <clip id="clip-6"/>
                  </angle>
                  <angle>
                    <activevideoangle>false</activevideoangle>
                    <activeaudioangle>false</activeaudioangle>
                    <clip id="clip-7"/>
                  </angle>
                  <angle>
                    <activevideoangle>false</activevideoangle>
                    <activeaudioangle>false</activeaudioangle>
                    <clip id="clip-8"/>
                  </angle>
                  <angle>
                    <activevideoangle>false</activevideoangle>
                    <activeaudioangle>false</activeaudioangle>
                    <clip id="clip-9"/>
                  </angle>
                  <masterclipid>clip-master</masterclipid>
                </multiclip>
              </clipitem>
              <clipitem id="cs-907">
                <duration>300</duration>
                <rate>
                  <ntsc>false</ntsc>
                  <timebase>25</timebase>
                </rate>
                <in>75061</in>
                <out>75360</out>
                <start>75061</start>
                <end>75360</end>
                <file id="src-6"/>
                <sourcetrack>
                  <mediatype>video</mediatype>
                  <trackindex>1</trackindex>
                </sourcetrack>
                <multiclip id="mcs-907">
                  <name>MCS-907</name>
                  <masterclipid>clip-master</masterclipid>
                  <collapsed>false</collapsed>
                  <angle>
                    <activevideoangle>false</activevideoangle>
                    <activeaudioangle>false</activeaudioangle>
                    <clip id="clip-1"/>
                  </angle>
                  <angle>
                    <activevideoangle>false</activevideoangle>
                    <activeaudioangle>false</activeaudioangle>
                    <clip id="clip-2"/>
                  </angle>
                  <angle>
                    <activevideoangle>false</activevideoangle>
                    <activeaudioangle>false</activeaudioangle>
                    <clip id="clip-3"/>
                  </angle>
                  <angle>
                    <activevideoangle>false</activevideoangle>
                    <activeaudioangle>false</activeaudioangle>
                    <clip id="clip-4"/>
                  </angle>
                  <angle>
                    <activevideoangle>false</activevideoangle>
                    <activeaudioangle>false</activeaudioangle>
                    <clip id="clip-5"/>
                  </angle>
                  <angle>
                    <activevideoangle>true</activevideoangle>
                    <activeaudioangle>true</activeaudioangle>
                    <clip id="clip-6"/>
                  </angle>
                  <angle>
                    <activevideoangle>false</activevideoangle>
                    <activeaudioangle>false</activeaudioangle>
                    <clip id="clip-7"/>
                  </angle>
                  <angle>
                    <activevideoangle>false</activevideoangle>
                    <activeaudioangle>false</activeaudioangle>
                    <clip id="clip-8"/>
                  </angle>
                  <angle>
                    <activevideoangle>false</activevideoangle>
                    <activeaudioangle>false</activeaudioangle>
                    <clip id="clip-9"/>
                  </angle>
                  <masterclipid>clip-master</masterclipid>
                </multiclip>
              </clipitem>
              <clipitem id="cs-908">
                <duration>148</duration>
                <rate>
                  <ntsc>false</ntsc>
                  <timebase>25</timebase>
                </rate>
                <in>75360</in>
                <out>75507</out>
                <start>75360</start>
                <end>75507</end>
                <file id="src-7"/>
                <sourcetrack>
                  <mediatype>video</mediatype>
                  <trackindex>1</trackindex>
                </sourcetrack>
                <multiclip id="mcs-908">
                  <name>MCS-908</name>
                  <masterclipid>clip-master</masterclipid>
                  <collapsed>false</collapsed>
                  <angle>
                    <activevideoangle>false</activevideoangle>
                    <activeaudioangle>false</activeaudioangle>
                    <clip id="clip-1"/>
                  </angle>
                  <angle>
                    <activevideoangle>false</activevideoangle>
                    <activeaudioangle>false</activeaudioangle>
                    <clip id="clip-2"/>
                  </angle>
                  <angle>
                    <activevideoangle>false</activevideoangle>
                    <activeaudioangle>false</activeaudioangle>
                    <clip id="clip-3"/>
                  </angle>
                  <angle>
                    <activevideoangle>false</activevideoangle>
                    <activeaudioangle>false</activeaudioangle>
                    <clip id="clip-4"/>
                  </angle>
                  <angle>
                    <activevideoangle>false</activevideoangle>
                    <activeaudioangle>false</activeaudioangle>
                    <clip id="clip-5"/>
                  </angle>
                  <angle>
                    <activevideoangle>false</activevideoangle>
                    <activeaudioangle>false</activeaudioangle>
                    <clip id="clip-6"/>
                  </angle>
                  <angle>
                    <activevideoangle>true</activevideoangle>
                    <activeaudioangle>true</activeaudioangle>
                    <clip id="clip-7"/>
                  </angle>
                  <angle>
                    <activevideoangle>false</activevideoangle>
                    <activeaudioangle>false</activeaudioangle>
                    <clip id="clip-8"/>
                  </angle>
                  <angle>
                    <activevideoangle>false</activevideoangle>
                    <activeaudioangle>false</activeaudioangle>
                    <clip id="clip-9"/>
                  </angle>
                  <masterclipid>clip-master</masterclipid>
                </multiclip>
              </clipitem>
              <clipitem id="cs-909">
                <duration>105</duration>
                <rate>
                  <ntsc>false</ntsc>
                  <timebase>25</timebase>
                </rate>
                <in>75507</in>
                <out>75611</out>
                <start>75507</start>
                <end>75611</end>
                <file id="src-2"/>
                <sourcetrack>
                  <mediatype>video</mediatype>
                  <trackindex>1</trackindex>
                </sourcetrack>
                <multiclip id="mcs-909">
                  <name>MCS-909</name>
                  <masterclipid>clip-master</masterclipid>
                  <collapsed>false</collapsed>
                  <angle>
                    <activevideoangle>false</activevideoangle>
                    <activeaudioangle>false</activeaudioangle>
                    <clip id="clip-1"/>
                  </angle>
                  <angle>
                    <activevideoangle>true</activevideoangle>
                    <activeaudioangle>true</activeaudioangle>
                    <clip id="clip-2"/>
                  </angle>
                  <angle>
                    <activevideoangle>false</activevideoangle>
                    <activeaudioangle>false</activeaudioangle>
                    <clip id="clip-3"/>
                  </angle>
                  <angle>
                    <activevideoangle>false</activevideoangle>
                    <activeaudioangle>false</activeaudioangle>
                    <clip id="clip-4"/>
                  </angle>
                  <angle>
                    <activevideoangle>false</activevideoangle>
                    <activeaudioangle>false</activeaudioangle>
                    <clip id="clip-5"/>
                  </angle>
                  <angle>
                    <activevideoangle>false</activevideoangle>
                    <activeaudioangle>false</activeaudioangle>
                    <clip id="clip-6"/>
                  </angle>
                  <angle>
                    <activevideoangle>false</activevideoangle>
                    <activeaudioangle>false</activeaudioangle>
                    <clip id="clip-7"/>
                  </angle>
                  <angle>
                    <activevideoangle>false</activevideoangle>
                    <activeaudioangle>false</activeaudioangle>
                    <clip id="clip-8"/>
                  </angle>
                  <angle>
                    <activevideoangle>false</activevideoangle>
                    <activeaudioangle>false</activeaudioangle>
                    <clip id="clip-9"/>
                  </angle>
                  <masterclipid>clip-master</masterclipid>
                </multiclip>
              </clipitem>
              <clipitem id="cs-910">
                <duration>85</duration>
                <rate>
                  <ntsc>false</ntsc>
                  <timebase>25</timebase>
                </rate>
                <in>75611</in>
                <out>75695</out>
                <start>75611</start>
                <end>75695</end>
                <file id="src-4"/>
                <sourcetrack>
                  <mediatype>video</mediatype>
                  <trackindex>1</trackindex>
                </sourcetrack>
                <multiclip id="mcs-910">
                  <name>MCS-910</name>
                  <masterclipid>clip-master</masterclipid>
                  <collapsed>false</collapsed>
                  <angle>
                    <activevideoangle>false</activevideoangle>
                    <activeaudioangle>false</activeaudioangle>
                    <clip id="clip-1"/>
                  </angle>
                  <angle>
                    <activevideoangle>false</activevideoangle>
                    <activeaudioangle>false</activeaudioangle>
                    <clip id="clip-2"/>
                  </angle>
                  <angle>
                    <activevideoangle>false</activevideoangle>
                    <activeaudioangle>false</activeaudioangle>
                    <clip id="clip-3"/>
                  </angle>
                  <angle>
                    <activevideoangle>true</activevideoangle>
                    <activeaudioangle>true</activeaudioangle>
                    <clip id="clip-4"/>
                  </angle>
                  <angle>
                    <activevideoangle>false</activevideoangle>
                    <activeaudioangle>false</activeaudioangle>
                    <clip id="clip-5"/>
                  </angle>
                  <angle>
                    <activevideoangle>false</activevideoangle>
                    <activeaudioangle>false</activeaudioangle>
                    <clip id="clip-6"/>
                  </angle>
                  <angle>
                    <activevideoangle>false</activevideoangle>
                    <activeaudioangle>false</activeaudioangle>
                    <clip id="clip-7"/>
                  </angle>
                  <angle>
                    <activevideoangle>false</activevideoangle>
                    <activeaudioangle>false</activeaudioangle>
                    <clip id="clip-8"/>
                  </angle>
                  <angle>
                    <activevideoangle>false</activevideoangle>
                    <activeaudioangle>false</activeaudioangle>
                    <clip id="clip-9"/>
                  </angle>
                  <masterclipid>clip-master</masterclipid>
                </multiclip>
              </clipitem>
              <clipitem id="cs-911">
                <duration>141</duration>
                <rate>
                  <ntsc>false</ntsc>
                  <timebase>25</timebase>
                </rate>
                <in>75695</in>
                <out>75835</out>
                <start>75695</start>
                <end>75835</end>
                <file id="src-3"/>
                <sourcetrack>
                  <mediatype>video</mediatype>
                  <trackindex>1</trackindex>
                </sourcetrack>
                <multiclip id="mcs-911">
                  <name>MCS-911</name>
                  <masterclipid>clip-master</masterclipid>
                  <collapsed>false</collapsed>
                  <angle>
                    <activevideoangle>false</activevideoangle>
                    <activeaudioangle>false</activeaudioangle>
                    <clip id="clip-1"/>
                  </angle>
                  <angle>
                    <activevideoangle>false</activevideoangle>
                    <activeaudioangle>false</activeaudioangle>
                    <clip id="clip-2"/>
                  </angle>
                  <angle>
                    <activevideoangle>true</activevideoangle>
                    <activeaudioangle>true</activeaudioangle>
                    <clip id="clip-3"/>
                  </angle>
                  <angle>
                    <activevideoangle>false</activevideoangle>
                    <activeaudioangle>false</activeaudioangle>
                    <clip id="clip-4"/>
                  </angle>
                  <angle>
                    <activevideoangle>false</activevideoangle>
                    <activeaudioangle>false</activeaudioangle>
                    <clip id="clip-5"/>
                  </angle>
                  <angle>
                    <activevideoangle>false</activevideoangle>
                    <activeaudioangle>false</activeaudioangle>
                    <clip id="clip-6"/>
                  </angle>
                  <angle>
                    <activevideoangle>false</activevideoangle>
                    <activeaudioangle>false</activeaudioangle>
                    <clip id="clip-7"/>
                  </angle>
                  <angle>
                    <activevideoangle>false</activevideoangle>
                    <activeaudioangle>false</activeaudioangle>
                    <clip id="clip-8"/>
                  </angle>
                  <angle>
                    <activevideoangle>false</activevideoangle>
                    <activeaudioangle>false</activeaudioangle>
                    <clip id="clip-9"/>
                  </angle>
                  <masterclipid>clip-master</masterclipid>
                </multiclip>
              </clipitem>
              <clipitem id="cs-912">
                <duration>105</duration>
                <rate>
                  <ntsc>false</ntsc>
                  <timebase>25</timebase>
                </rate>
                <in>75835</in>
                <out>75939</out>
                <start>75835</start>
                <end>75939</end>
                <file id="src-6"/>
                <sourcetrack>
                  <mediatype>video</mediatype>
                  <trackindex>1</trackindex>
                </sourcetrack>
                <multiclip id="mcs-912">
                  <name>MCS-912</name>
                  <masterclipid>clip-master</masterclipid>
                  <collapsed>false</collapsed>
                  <angle>
                    <activevideoangle>false</activevideoangle>
                    <activeaudioangle>false</activeaudioangle>
                    <clip id="clip-1"/>
                  </angle>
                  <angle>
                    <activevideoangle>false</activevideoangle>
                    <activeaudioangle>false</activeaudioangle>
                    <clip id="clip-2"/>
                  </angle>
                  <angle>
                    <activevideoangle>false</activevideoangle>
                    <activeaudioangle>false</activeaudioangle>
                    <clip id="clip-3"/>
                  </angle>
                  <angle>
                    <activevideoangle>false</activevideoangle>
                    <activeaudioangle>false</activeaudioangle>
                    <clip id="clip-4"/>
                  </angle>
                  <angle>
                    <activevideoangle>false</activevideoangle>
                    <activeaudioangle>false</activeaudioangle>
                    <clip id="clip-5"/>
                  </angle>
                  <angle>
                    <activevideoangle>true</activevideoangle>
                    <activeaudioangle>true</activeaudioangle>
                    <clip id="clip-6"/>
                  </angle>
                  <angle>
                    <activevideoangle>false</activevideoangle>
                    <activeaudioangle>false</activeaudioangle>
                    <clip id="clip-7"/>
                  </angle>
                  <angle>
                    <activevideoangle>false</activevideoangle>
                    <activeaudioangle>false</activeaudioangle>
                    <clip id="clip-8"/>
                  </angle>
                  <angle>
                    <activevideoangle>false</activevideoangle>
                    <activeaudioangle>false</activeaudioangle>
                    <clip id="clip-9"/>
                  </angle>
                  <masterclipid>clip-master</masterclipid>
                </multiclip>
              </clipitem>
              <clipitem id="cs-913">
                <duration>123</duration>
                <rate>
                  <ntsc>false</ntsc>
                  <timebase>25</timebase>
                </rate>
                <in>75939</in>
                <out>76061</out>
                <start>75939</start>
                <end>76061</end>
                <file id="src-3"/>
                <sourcetrack>
                  <mediatype>video</mediatype>
                  <trackindex>1</trackindex>
                </sourcetrack>
                <multiclip id="mcs-913">
                  <name>MCS-913</name>
                  <masterclipid>clip-master</masterclipid>
                  <collapsed>false</collapsed>
                  <angle>
                    <activevideoangle>false</activevideoangle>
                    <activeaudioangle>false</activeaudioangle>
                    <clip id="clip-1"/>
                  </angle>
                  <angle>
                    <activevideoangle>false</activevideoangle>
                    <activeaudioangle>false</activeaudioangle>
                    <clip id="clip-2"/>
                  </angle>
                  <angle>
                    <activevideoangle>true</activevideoangle>
                    <activeaudioangle>true</activeaudioangle>
                    <clip id="clip-3"/>
                  </angle>
                  <angle>
                    <activevideoangle>false</activevideoangle>
                    <activeaudioangle>false</activeaudioangle>
                    <clip id="clip-4"/>
                  </angle>
                  <angle>
                    <activevideoangle>false</activevideoangle>
                    <activeaudioangle>false</activeaudioangle>
                    <clip id="clip-5"/>
                  </angle>
                  <angle>
                    <activevideoangle>false</activevideoangle>
                    <activeaudioangle>false</activeaudioangle>
                    <clip id="clip-6"/>
                  </angle>
                  <angle>
                    <activevideoangle>false</activevideoangle>
                    <activeaudioangle>false</activeaudioangle>
                    <clip id="clip-7"/>
                  </angle>
                  <angle>
                    <activevideoangle>false</activevideoangle>
                    <activeaudioangle>false</activeaudioangle>
                    <clip id="clip-8"/>
                  </angle>
                  <angle>
                    <activevideoangle>false</activevideoangle>
                    <activeaudioangle>false</activeaudioangle>
                    <clip id="clip-9"/>
                  </angle>
                  <masterclipid>clip-master</masterclipid>
                </multiclip>
              </clipitem>
              <clipitem id="cs-914">
                <duration>89</duration>
                <rate>
                  <ntsc>false</ntsc>
                  <timebase>25</timebase>
                </rate>
                <in>76061</in>
                <out>76149</out>
                <start>76061</start>
                <end>76149</end>
                <file id="src-4"/>
                <sourcetrack>
                  <mediatype>video</mediatype>
                  <trackindex>1</trackindex>
                </sourcetrack>
                <multiclip id="mcs-914">
                  <name>MCS-914</name>
                  <masterclipid>clip-master</masterclipid>
                  <collapsed>false</collapsed>
                  <angle>
                    <activevideoangle>false</activevideoangle>
                    <activeaudioangle>false</activeaudioangle>
                    <clip id="clip-1"/>
                  </angle>
                  <angle>
                    <activevideoangle>false</activevideoangle>
                    <activeaudioangle>false</activeaudioangle>
                    <clip id="clip-2"/>
                  </angle>
                  <angle>
                    <activevideoangle>false</activevideoangle>
                    <activeaudioangle>false</activeaudioangle>
                    <clip id="clip-3"/>
                  </angle>
                  <angle>
                    <activevideoangle>true</activevideoangle>
                    <activeaudioangle>true</activeaudioangle>
                    <clip id="clip-4"/>
                  </angle>
                  <angle>
                    <activevideoangle>false</activevideoangle>
                    <activeaudioangle>false</activeaudioangle>
                    <clip id="clip-5"/>
                  </angle>
                  <angle>
                    <activevideoangle>false</activevideoangle>
                    <activeaudioangle>false</activeaudioangle>
                    <clip id="clip-6"/>
                  </angle>
                  <angle>
                    <activevideoangle>false</activevideoangle>
                    <activeaudioangle>false</activeaudioangle>
                    <clip id="clip-7"/>
                  </angle>
                  <angle>
                    <activevideoangle>false</activevideoangle>
                    <activeaudioangle>false</activeaudioangle>
                    <clip id="clip-8"/>
                  </angle>
                  <angle>
                    <activevideoangle>false</activevideoangle>
                    <activeaudioangle>false</activeaudioangle>
                    <clip id="clip-9"/>
                  </angle>
                  <masterclipid>clip-master</masterclipid>
                </multiclip>
              </clipitem>
              <clipitem id="cs-915">
                <duration>114</duration>
                <rate>
                  <ntsc>false</ntsc>
                  <timebase>25</timebase>
                </rate>
                <in>76149</in>
                <out>76262</out>
                <start>76149</start>
                <end>76262</end>
                <file id="src-2"/>
                <sourcetrack>
                  <mediatype>video</mediatype>
                  <trackindex>1</trackindex>
                </sourcetrack>
                <multiclip id="mcs-915">
                  <name>MCS-915</name>
                  <masterclipid>clip-master</masterclipid>
                  <collapsed>false</collapsed>
                  <angle>
                    <activevideoangle>false</activevideoangle>
                    <activeaudioangle>false</activeaudioangle>
                    <clip id="clip-1"/>
                  </angle>
                  <angle>
                    <activevideoangle>true</activevideoangle>
                    <activeaudioangle>true</activeaudioangle>
                    <clip id="clip-2"/>
                  </angle>
                  <angle>
                    <activevideoangle>false</activevideoangle>
                    <activeaudioangle>false</activeaudioangle>
                    <clip id="clip-3"/>
                  </angle>
                  <angle>
                    <activevideoangle>false</activevideoangle>
                    <activeaudioangle>false</activeaudioangle>
                    <clip id="clip-4"/>
                  </angle>
                  <angle>
                    <activevideoangle>false</activevideoangle>
                    <activeaudioangle>false</activeaudioangle>
                    <clip id="clip-5"/>
                  </angle>
                  <angle>
                    <activevideoangle>false</activevideoangle>
                    <activeaudioangle>false</activeaudioangle>
                    <clip id="clip-6"/>
                  </angle>
                  <angle>
                    <activevideoangle>false</activevideoangle>
                    <activeaudioangle>false</activeaudioangle>
                    <clip id="clip-7"/>
                  </angle>
                  <angle>
                    <activevideoangle>false</activevideoangle>
                    <activeaudioangle>false</activeaudioangle>
                    <clip id="clip-8"/>
                  </angle>
                  <angle>
                    <activevideoangle>false</activevideoangle>
                    <activeaudioangle>false</activeaudioangle>
                    <clip id="clip-9"/>
                  </angle>
                  <masterclipid>clip-master</masterclipid>
                </multiclip>
              </clipitem>
              <clipitem id="cs-916">
                <duration>114</duration>
                <rate>
                  <ntsc>false</ntsc>
                  <timebase>25</timebase>
                </rate>
                <in>76262</in>
                <out>76375</out>
                <start>76262</start>
                <end>76375</end>
                <file id="src-1"/>
                <sourcetrack>
                  <mediatype>video</mediatype>
                  <trackindex>1</trackindex>
                </sourcetrack>
                <multiclip id="mcs-916">
                  <name>MCS-916</name>
                  <masterclipid>clip-master</masterclipid>
                  <collapsed>false</collapsed>
                  <angle>
                    <activevideoangle>true</activevideoangle>
                    <activeaudioangle>true</activeaudioangle>
                    <clip id="clip-1"/>
                  </angle>
                  <angle>
                    <activevideoangle>false</activevideoangle>
                    <activeaudioangle>false</activeaudioangle>
                    <clip id="clip-2"/>
                  </angle>
                  <angle>
                    <activevideoangle>false</activevideoangle>
                    <activeaudioangle>false</activeaudioangle>
                    <clip id="clip-3"/>
                  </angle>
                  <angle>
                    <activevideoangle>false</activevideoangle>
                    <activeaudioangle>false</activeaudioangle>
                    <clip id="clip-4"/>
                  </angle>
                  <angle>
                    <activevideoangle>false</activevideoangle>
                    <activeaudioangle>false</activeaudioangle>
                    <clip id="clip-5"/>
                  </angle>
                  <angle>
                    <activevideoangle>false</activevideoangle>
                    <activeaudioangle>false</activeaudioangle>
                    <clip id="clip-6"/>
                  </angle>
                  <angle>
                    <activevideoangle>false</activevideoangle>
                    <activeaudioangle>false</activeaudioangle>
                    <clip id="clip-7"/>
                  </angle>
                  <angle>
                    <activevideoangle>false</activevideoangle>
                    <activeaudioangle>false</activeaudioangle>
                    <clip id="clip-8"/>
                  </angle>
                  <angle>
                    <activevideoangle>false</activevideoangle>
                    <activeaudioangle>false</activeaudioangle>
                    <clip id="clip-9"/>
                  </angle>
                  <masterclipid>clip-master</masterclipid>
                </multiclip>
              </clipitem>
              <clipitem id="cs-917">
                <duration>105</duration>
                <rate>
                  <ntsc>false</ntsc>
                  <timebase>25</timebase>
                </rate>
                <in>76375</in>
                <out>76479</out>
                <start>76375</start>
                <end>76479</end>
                <file id="src-4"/>
                <sourcetrack>
                  <mediatype>video</mediatype>
                  <trackindex>1</trackindex>
                </sourcetrack>
                <multiclip id="mcs-917">
                  <name>MCS-917</name>
                  <masterclipid>clip-master</masterclipid>
                  <collapsed>false</collapsed>
                  <angle>
                    <activevideoangle>false</activevideoangle>
                    <activeaudioangle>false</activeaudioangle>
                    <clip id="clip-1"/>
                  </angle>
                  <angle>
                    <activevideoangle>false</activevideoangle>
                    <activeaudioangle>false</activeaudioangle>
                    <clip id="clip-2"/>
                  </angle>
                  <angle>
                    <activevideoangle>false</activevideoangle>
                    <activeaudioangle>false</activeaudioangle>
                    <clip id="clip-3"/>
                  </angle>
                  <angle>
                    <activevideoangle>true</activevideoangle>
                    <activeaudioangle>true</activeaudioangle>
                    <clip id="clip-4"/>
                  </angle>
                  <angle>
                    <activevideoangle>false</activevideoangle>
                    <activeaudioangle>false</activeaudioangle>
                    <clip id="clip-5"/>
                  </angle>
                  <angle>
                    <activevideoangle>false</activevideoangle>
                    <activeaudioangle>false</activeaudioangle>
                    <clip id="clip-6"/>
                  </angle>
                  <angle>
                    <activevideoangle>false</activevideoangle>
                    <activeaudioangle>false</activeaudioangle>
                    <clip id="clip-7"/>
                  </angle>
                  <angle>
                    <activevideoangle>false</activevideoangle>
                    <activeaudioangle>false</activeaudioangle>
                    <clip id="clip-8"/>
                  </angle>
                  <angle>
                    <activevideoangle>false</activevideoangle>
                    <activeaudioangle>false</activeaudioangle>
                    <clip id="clip-9"/>
                  </angle>
                  <masterclipid>clip-master</masterclipid>
                </multiclip>
              </clipitem>
              <clipitem id="cs-918">
                <duration>166</duration>
                <rate>
                  <ntsc>false</ntsc>
                  <timebase>25</timebase>
                </rate>
                <in>76479</in>
                <out>76644</out>
                <start>76479</start>
                <end>76644</end>
                <file id="src-3"/>
                <sourcetrack>
                  <mediatype>video</mediatype>
                  <trackindex>1</trackindex>
                </sourcetrack>
                <multiclip id="mcs-918">
                  <name>MCS-918</name>
                  <masterclipid>clip-master</masterclipid>
                  <collapsed>false</collapsed>
                  <angle>
                    <activevideoangle>false</activevideoangle>
                    <activeaudioangle>false</activeaudioangle>
                    <clip id="clip-1"/>
                  </angle>
                  <angle>
                    <activevideoangle>false</activevideoangle>
                    <activeaudioangle>false</activeaudioangle>
                    <clip id="clip-2"/>
                  </angle>
                  <angle>
                    <activevideoangle>true</activevideoangle>
                    <activeaudioangle>true</activeaudioangle>
                    <clip id="clip-3"/>
                  </angle>
                  <angle>
                    <activevideoangle>false</activevideoangle>
                    <activeaudioangle>false</activeaudioangle>
                    <clip id="clip-4"/>
                  </angle>
                  <angle>
                    <activevideoangle>false</activevideoangle>
                    <activeaudioangle>false</activeaudioangle>
                    <clip id="clip-5"/>
                  </angle>
                  <angle>
                    <activevideoangle>false</activevideoangle>
                    <activeaudioangle>false</activeaudioangle>
                    <clip id="clip-6"/>
                  </angle>
                  <angle>
                    <activevideoangle>false</activevideoangle>
                    <activeaudioangle>false</activeaudioangle>
                    <clip id="clip-7"/>
                  </angle>
                  <angle>
                    <activevideoangle>false</activevideoangle>
                    <activeaudioangle>false</activeaudioangle>
                    <clip id="clip-8"/>
                  </angle>
                  <angle>
                    <activevideoangle>false</activevideoangle>
                    <activeaudioangle>false</activeaudioangle>
                    <clip id="clip-9"/>
                  </angle>
                  <masterclipid>clip-master</masterclipid>
                </multiclip>
              </clipitem>
              <clipitem id="cs-919">
                <duration>109</duration>
                <rate>
                  <ntsc>false</ntsc>
                  <timebase>25</timebase>
                </rate>
                <in>76644</in>
                <out>76752</out>
                <start>76644</start>
                <end>76752</end>
                <file id="src-5"/>
                <sourcetrack>
                  <mediatype>video</mediatype>
                  <trackindex>1</trackindex>
                </sourcetrack>
                <multiclip id="mcs-919">
                  <name>MCS-919</name>
                  <masterclipid>clip-master</masterclipid>
                  <collapsed>false</collapsed>
                  <angle>
                    <activevideoangle>false</activevideoangle>
                    <activeaudioangle>false</activeaudioangle>
                    <clip id="clip-1"/>
                  </angle>
                  <angle>
                    <activevideoangle>false</activevideoangle>
                    <activeaudioangle>false</activeaudioangle>
                    <clip id="clip-2"/>
                  </angle>
                  <angle>
                    <activevideoangle>false</activevideoangle>
                    <activeaudioangle>false</activeaudioangle>
                    <clip id="clip-3"/>
                  </angle>
                  <angle>
                    <activevideoangle>false</activevideoangle>
                    <activeaudioangle>false</activeaudioangle>
                    <clip id="clip-4"/>
                  </angle>
                  <angle>
                    <activevideoangle>true</activevideoangle>
                    <activeaudioangle>true</activeaudioangle>
                    <clip id="clip-5"/>
                  </angle>
                  <angle>
                    <activevideoangle>false</activevideoangle>
                    <activeaudioangle>false</activeaudioangle>
                    <clip id="clip-6"/>
                  </angle>
                  <angle>
                    <activevideoangle>false</activevideoangle>
                    <activeaudioangle>false</activeaudioangle>
                    <clip id="clip-7"/>
                  </angle>
                  <angle>
                    <activevideoangle>false</activevideoangle>
                    <activeaudioangle>false</activeaudioangle>
                    <clip id="clip-8"/>
                  </angle>
                  <angle>
                    <activevideoangle>false</activevideoangle>
                    <activeaudioangle>false</activeaudioangle>
                    <clip id="clip-9"/>
                  </angle>
                  <masterclipid>clip-master</masterclipid>
                </multiclip>
              </clipitem>
              <clipitem id="cs-920">
                <duration>85</duration>
                <rate>
                  <ntsc>false</ntsc>
                  <timebase>25</timebase>
                </rate>
                <in>76752</in>
                <out>76836</out>
                <start>76752</start>
                <end>76836</end>
                <file id="src-3"/>
                <sourcetrack>
                  <mediatype>video</mediatype>
                  <trackindex>1</trackindex>
                </sourcetrack>
                <multiclip id="mcs-920">
                  <name>MCS-920</name>
                  <masterclipid>clip-master</masterclipid>
                  <collapsed>false</collapsed>
                  <angle>
                    <activevideoangle>false</activevideoangle>
                    <activeaudioangle>false</activeaudioangle>
                    <clip id="clip-1"/>
                  </angle>
                  <angle>
                    <activevideoangle>false</activevideoangle>
                    <activeaudioangle>false</activeaudioangle>
                    <clip id="clip-2"/>
                  </angle>
                  <angle>
                    <activevideoangle>true</activevideoangle>
                    <activeaudioangle>true</activeaudioangle>
                    <clip id="clip-3"/>
                  </angle>
                  <angle>
                    <activevideoangle>false</activevideoangle>
                    <activeaudioangle>false</activeaudioangle>
                    <clip id="clip-4"/>
                  </angle>
                  <angle>
                    <activevideoangle>false</activevideoangle>
                    <activeaudioangle>false</activeaudioangle>
                    <clip id="clip-5"/>
                  </angle>
                  <angle>
                    <activevideoangle>false</activevideoangle>
                    <activeaudioangle>false</activeaudioangle>
                    <clip id="clip-6"/>
                  </angle>
                  <angle>
                    <activevideoangle>false</activevideoangle>
                    <activeaudioangle>false</activeaudioangle>
                    <clip id="clip-7"/>
                  </angle>
                  <angle>
                    <activevideoangle>false</activevideoangle>
                    <activeaudioangle>false</activeaudioangle>
                    <clip id="clip-8"/>
                  </angle>
                  <angle>
                    <activevideoangle>false</activevideoangle>
                    <activeaudioangle>false</activeaudioangle>
                    <clip id="clip-9"/>
                  </angle>
                  <masterclipid>clip-master</masterclipid>
                </multiclip>
              </clipitem>
              <clipitem id="cs-921">
                <duration>94</duration>
                <rate>
                  <ntsc>false</ntsc>
                  <timebase>25</timebase>
                </rate>
                <in>76836</in>
                <out>76929</out>
                <start>76836</start>
                <end>76929</end>
                <file id="src-2"/>
                <sourcetrack>
                  <mediatype>video</mediatype>
                  <trackindex>1</trackindex>
                </sourcetrack>
                <multiclip id="mcs-921">
                  <name>MCS-921</name>
                  <masterclipid>clip-master</masterclipid>
                  <collapsed>false</collapsed>
                  <angle>
                    <activevideoangle>false</activevideoangle>
                    <activeaudioangle>false</activeaudioangle>
                    <clip id="clip-1"/>
                  </angle>
                  <angle>
                    <activevideoangle>true</activevideoangle>
                    <activeaudioangle>true</activeaudioangle>
                    <clip id="clip-2"/>
                  </angle>
                  <angle>
                    <activevideoangle>false</activevideoangle>
                    <activeaudioangle>false</activeaudioangle>
                    <clip id="clip-3"/>
                  </angle>
                  <angle>
                    <activevideoangle>false</activevideoangle>
                    <activeaudioangle>false</activeaudioangle>
                    <clip id="clip-4"/>
                  </angle>
                  <angle>
                    <activevideoangle>false</activevideoangle>
                    <activeaudioangle>false</activeaudioangle>
                    <clip id="clip-5"/>
                  </angle>
                  <angle>
                    <activevideoangle>false</activevideoangle>
                    <activeaudioangle>false</activeaudioangle>
                    <clip id="clip-6"/>
                  </angle>
                  <angle>
                    <activevideoangle>false</activevideoangle>
                    <activeaudioangle>false</activeaudioangle>
                    <clip id="clip-7"/>
                  </angle>
                  <angle>
                    <activevideoangle>false</activevideoangle>
                    <activeaudioangle>false</activeaudioangle>
                    <clip id="clip-8"/>
                  </angle>
                  <angle>
                    <activevideoangle>false</activevideoangle>
                    <activeaudioangle>false</activeaudioangle>
                    <clip id="clip-9"/>
                  </angle>
                  <masterclipid>clip-master</masterclipid>
                </multiclip>
              </clipitem>
              <clipitem id="cs-922">
                <duration>126</duration>
                <rate>
                  <ntsc>false</ntsc>
                  <timebase>25</timebase>
                </rate>
                <in>76929</in>
                <out>77054</out>
                <start>76929</start>
                <end>77054</end>
                <file id="src-4"/>
                <sourcetrack>
                  <mediatype>video</mediatype>
                  <trackindex>1</trackindex>
                </sourcetrack>
                <multiclip id="mcs-922">
                  <name>MCS-922</name>
                  <masterclipid>clip-master</masterclipid>
                  <collapsed>false</collapsed>
                  <angle>
                    <activevideoangle>false</activevideoangle>
                    <activeaudioangle>false</activeaudioangle>
                    <clip id="clip-1"/>
                  </angle>
                  <angle>
                    <activevideoangle>false</activevideoangle>
                    <activeaudioangle>false</activeaudioangle>
                    <clip id="clip-2"/>
                  </angle>
                  <angle>
                    <activevideoangle>false</activevideoangle>
                    <activeaudioangle>false</activeaudioangle>
                    <clip id="clip-3"/>
                  </angle>
                  <angle>
                    <activevideoangle>true</activevideoangle>
                    <activeaudioangle>true</activeaudioangle>
                    <clip id="clip-4"/>
                  </angle>
                  <angle>
                    <activevideoangle>false</activevideoangle>
                    <activeaudioangle>false</activeaudioangle>
                    <clip id="clip-5"/>
                  </angle>
                  <angle>
                    <activevideoangle>false</activevideoangle>
                    <activeaudioangle>false</activeaudioangle>
                    <clip id="clip-6"/>
                  </angle>
                  <angle>
                    <activevideoangle>false</activevideoangle>
                    <activeaudioangle>false</activeaudioangle>
                    <clip id="clip-7"/>
                  </angle>
                  <angle>
                    <activevideoangle>false</activevideoangle>
                    <activeaudioangle>false</activeaudioangle>
                    <clip id="clip-8"/>
                  </angle>
                  <angle>
                    <activevideoangle>false</activevideoangle>
                    <activeaudioangle>false</activeaudioangle>
                    <clip id="clip-9"/>
                  </angle>
                  <masterclipid>clip-master</masterclipid>
                </multiclip>
              </clipitem>
              <clipitem id="cs-923">
                <duration>77</duration>
                <rate>
                  <ntsc>false</ntsc>
                  <timebase>25</timebase>
                </rate>
                <in>77054</in>
                <out>77130</out>
                <start>77054</start>
                <end>77130</end>
                <file id="src-3"/>
                <sourcetrack>
                  <mediatype>video</mediatype>
                  <trackindex>1</trackindex>
                </sourcetrack>
                <multiclip id="mcs-923">
                  <name>MCS-923</name>
                  <masterclipid>clip-master</masterclipid>
                  <collapsed>false</collapsed>
                  <angle>
                    <activevideoangle>false</activevideoangle>
                    <activeaudioangle>false</activeaudioangle>
                    <clip id="clip-1"/>
                  </angle>
                  <angle>
                    <activevideoangle>false</activevideoangle>
                    <activeaudioangle>false</activeaudioangle>
                    <clip id="clip-2"/>
                  </angle>
                  <angle>
                    <activevideoangle>true</activevideoangle>
                    <activeaudioangle>true</activeaudioangle>
                    <clip id="clip-3"/>
                  </angle>
                  <angle>
                    <activevideoangle>false</activevideoangle>
                    <activeaudioangle>false</activeaudioangle>
                    <clip id="clip-4"/>
                  </angle>
                  <angle>
                    <activevideoangle>false</activevideoangle>
                    <activeaudioangle>false</activeaudioangle>
                    <clip id="clip-5"/>
                  </angle>
                  <angle>
                    <activevideoangle>false</activevideoangle>
                    <activeaudioangle>false</activeaudioangle>
                    <clip id="clip-6"/>
                  </angle>
                  <angle>
                    <activevideoangle>false</activevideoangle>
                    <activeaudioangle>false</activeaudioangle>
                    <clip id="clip-7"/>
                  </angle>
                  <angle>
                    <activevideoangle>false</activevideoangle>
                    <activeaudioangle>false</activeaudioangle>
                    <clip id="clip-8"/>
                  </angle>
                  <angle>
                    <activevideoangle>false</activevideoangle>
                    <activeaudioangle>false</activeaudioangle>
                    <clip id="clip-9"/>
                  </angle>
                  <masterclipid>clip-master</masterclipid>
                </multiclip>
              </clipitem>
              <clipitem id="cs-924">
                <duration>69</duration>
                <rate>
                  <ntsc>false</ntsc>
                  <timebase>25</timebase>
                </rate>
                <in>77130</in>
                <out>77198</out>
                <start>77130</start>
                <end>77198</end>
                <file id="src-6"/>
                <sourcetrack>
                  <mediatype>video</mediatype>
                  <trackindex>1</trackindex>
                </sourcetrack>
                <multiclip id="mcs-924">
                  <name>MCS-924</name>
                  <masterclipid>clip-master</masterclipid>
                  <collapsed>false</collapsed>
                  <angle>
                    <activevideoangle>false</activevideoangle>
                    <activeaudioangle>false</activeaudioangle>
                    <clip id="clip-1"/>
                  </angle>
                  <angle>
                    <activevideoangle>false</activevideoangle>
                    <activeaudioangle>false</activeaudioangle>
                    <clip id="clip-2"/>
                  </angle>
                  <angle>
                    <activevideoangle>false</activevideoangle>
                    <activeaudioangle>false</activeaudioangle>
                    <clip id="clip-3"/>
                  </angle>
                  <angle>
                    <activevideoangle>false</activevideoangle>
                    <activeaudioangle>false</activeaudioangle>
                    <clip id="clip-4"/>
                  </angle>
                  <angle>
                    <activevideoangle>false</activevideoangle>
                    <activeaudioangle>false</activeaudioangle>
                    <clip id="clip-5"/>
                  </angle>
                  <angle>
                    <activevideoangle>true</activevideoangle>
                    <activeaudioangle>true</activeaudioangle>
                    <clip id="clip-6"/>
                  </angle>
                  <angle>
                    <activevideoangle>false</activevideoangle>
                    <activeaudioangle>false</activeaudioangle>
                    <clip id="clip-7"/>
                  </angle>
                  <angle>
                    <activevideoangle>false</activevideoangle>
                    <activeaudioangle>false</activeaudioangle>
                    <clip id="clip-8"/>
                  </angle>
                  <angle>
                    <activevideoangle>false</activevideoangle>
                    <activeaudioangle>false</activeaudioangle>
                    <clip id="clip-9"/>
                  </angle>
                  <masterclipid>clip-master</masterclipid>
                </multiclip>
              </clipitem>
              <clipitem id="cs-925">
                <duration>55</duration>
                <rate>
                  <ntsc>false</ntsc>
                  <timebase>25</timebase>
                </rate>
                <in>77198</in>
                <out>77252</out>
                <start>77198</start>
                <end>77252</end>
                <file id="src-7"/>
                <sourcetrack>
                  <mediatype>video</mediatype>
                  <trackindex>1</trackindex>
                </sourcetrack>
                <multiclip id="mcs-925">
                  <name>MCS-925</name>
                  <masterclipid>clip-master</masterclipid>
                  <collapsed>false</collapsed>
                  <angle>
                    <activevideoangle>false</activevideoangle>
                    <activeaudioangle>false</activeaudioangle>
                    <clip id="clip-1"/>
                  </angle>
                  <angle>
                    <activevideoangle>false</activevideoangle>
                    <activeaudioangle>false</activeaudioangle>
                    <clip id="clip-2"/>
                  </angle>
                  <angle>
                    <activevideoangle>false</activevideoangle>
                    <activeaudioangle>false</activeaudioangle>
                    <clip id="clip-3"/>
                  </angle>
                  <angle>
                    <activevideoangle>false</activevideoangle>
                    <activeaudioangle>false</activeaudioangle>
                    <clip id="clip-4"/>
                  </angle>
                  <angle>
                    <activevideoangle>false</activevideoangle>
                    <activeaudioangle>false</activeaudioangle>
                    <clip id="clip-5"/>
                  </angle>
                  <angle>
                    <activevideoangle>false</activevideoangle>
                    <activeaudioangle>false</activeaudioangle>
                    <clip id="clip-6"/>
                  </angle>
                  <angle>
                    <activevideoangle>true</activevideoangle>
                    <activeaudioangle>true</activeaudioangle>
                    <clip id="clip-7"/>
                  </angle>
                  <angle>
                    <activevideoangle>false</activevideoangle>
                    <activeaudioangle>false</activeaudioangle>
                    <clip id="clip-8"/>
                  </angle>
                  <angle>
                    <activevideoangle>false</activevideoangle>
                    <activeaudioangle>false</activeaudioangle>
                    <clip id="clip-9"/>
                  </angle>
                  <masterclipid>clip-master</masterclipid>
                </multiclip>
              </clipitem>
              <clipitem id="cs-926">
                <duration>48</duration>
                <rate>
                  <ntsc>false</ntsc>
                  <timebase>25</timebase>
                </rate>
                <in>77252</in>
                <out>77299</out>
                <start>77252</start>
                <end>77299</end>
                <file id="src-4"/>
                <sourcetrack>
                  <mediatype>video</mediatype>
                  <trackindex>1</trackindex>
                </sourcetrack>
                <multiclip id="mcs-926">
                  <name>MCS-926</name>
                  <masterclipid>clip-master</masterclipid>
                  <collapsed>false</collapsed>
                  <angle>
                    <activevideoangle>false</activevideoangle>
                    <activeaudioangle>false</activeaudioangle>
                    <clip id="clip-1"/>
                  </angle>
                  <angle>
                    <activevideoangle>false</activevideoangle>
                    <activeaudioangle>false</activeaudioangle>
                    <clip id="clip-2"/>
                  </angle>
                  <angle>
                    <activevideoangle>false</activevideoangle>
                    <activeaudioangle>false</activeaudioangle>
                    <clip id="clip-3"/>
                  </angle>
                  <angle>
                    <activevideoangle>true</activevideoangle>
                    <activeaudioangle>true</activeaudioangle>
                    <clip id="clip-4"/>
                  </angle>
                  <angle>
                    <activevideoangle>false</activevideoangle>
                    <activeaudioangle>false</activeaudioangle>
                    <clip id="clip-5"/>
                  </angle>
                  <angle>
                    <activevideoangle>false</activevideoangle>
                    <activeaudioangle>false</activeaudioangle>
                    <clip id="clip-6"/>
                  </angle>
                  <angle>
                    <activevideoangle>false</activevideoangle>
                    <activeaudioangle>false</activeaudioangle>
                    <clip id="clip-7"/>
                  </angle>
                  <angle>
                    <activevideoangle>false</activevideoangle>
                    <activeaudioangle>false</activeaudioangle>
                    <clip id="clip-8"/>
                  </angle>
                  <angle>
                    <activevideoangle>false</activevideoangle>
                    <activeaudioangle>false</activeaudioangle>
                    <clip id="clip-9"/>
                  </angle>
                  <masterclipid>clip-master</masterclipid>
                </multiclip>
              </clipitem>
              <clipitem id="cs-927">
                <duration>61</duration>
                <rate>
                  <ntsc>false</ntsc>
                  <timebase>25</timebase>
                </rate>
                <in>77299</in>
                <out>77359</out>
                <start>77299</start>
                <end>77359</end>
                <file id="src-3"/>
                <sourcetrack>
                  <mediatype>video</mediatype>
                  <trackindex>1</trackindex>
                </sourcetrack>
                <multiclip id="mcs-927">
                  <name>MCS-927</name>
                  <masterclipid>clip-master</masterclipid>
                  <collapsed>false</collapsed>
                  <angle>
                    <activevideoangle>false</activevideoangle>
                    <activeaudioangle>false</activeaudioangle>
                    <clip id="clip-1"/>
                  </angle>
                  <angle>
                    <activevideoangle>false</activevideoangle>
                    <activeaudioangle>false</activeaudioangle>
                    <clip id="clip-2"/>
                  </angle>
                  <angle>
                    <activevideoangle>true</activevideoangle>
                    <activeaudioangle>true</activeaudioangle>
                    <clip id="clip-3"/>
                  </angle>
                  <angle>
                    <activevideoangle>false</activevideoangle>
                    <activeaudioangle>false</activeaudioangle>
                    <clip id="clip-4"/>
                  </angle>
                  <angle>
                    <activevideoangle>false</activevideoangle>
                    <activeaudioangle>false</activeaudioangle>
                    <clip id="clip-5"/>
                  </angle>
                  <angle>
                    <activevideoangle>false</activevideoangle>
                    <activeaudioangle>false</activeaudioangle>
                    <clip id="clip-6"/>
                  </angle>
                  <angle>
                    <activevideoangle>false</activevideoangle>
                    <activeaudioangle>false</activeaudioangle>
                    <clip id="clip-7"/>
                  </angle>
                  <angle>
                    <activevideoangle>false</activevideoangle>
                    <activeaudioangle>false</activeaudioangle>
                    <clip id="clip-8"/>
                  </angle>
                  <angle>
                    <activevideoangle>false</activevideoangle>
                    <activeaudioangle>false</activeaudioangle>
                    <clip id="clip-9"/>
                  </angle>
                  <masterclipid>clip-master</masterclipid>
                </multiclip>
              </clipitem>
              <clipitem id="cs-928">
                <duration>45</duration>
                <rate>
                  <ntsc>false</ntsc>
                  <timebase>25</timebase>
                </rate>
                <in>77359</in>
                <out>77403</out>
                <start>77359</start>
                <end>77403</end>
                <file id="src-2"/>
                <sourcetrack>
                  <mediatype>video</mediatype>
                  <trackindex>1</trackindex>
                </sourcetrack>
                <multiclip id="mcs-928">
                  <name>MCS-928</name>
                  <masterclipid>clip-master</masterclipid>
                  <collapsed>false</collapsed>
                  <angle>
                    <activevideoangle>false</activevideoangle>
                    <activeaudioangle>false</activeaudioangle>
                    <clip id="clip-1"/>
                  </angle>
                  <angle>
                    <activevideoangle>true</activevideoangle>
                    <activeaudioangle>true</activeaudioangle>
                    <clip id="clip-2"/>
                  </angle>
                  <angle>
                    <activevideoangle>false</activevideoangle>
                    <activeaudioangle>false</activeaudioangle>
                    <clip id="clip-3"/>
                  </angle>
                  <angle>
                    <activevideoangle>false</activevideoangle>
                    <activeaudioangle>false</activeaudioangle>
                    <clip id="clip-4"/>
                  </angle>
                  <angle>
                    <activevideoangle>false</activevideoangle>
                    <activeaudioangle>false</activeaudioangle>
                    <clip id="clip-5"/>
                  </angle>
                  <angle>
                    <activevideoangle>false</activevideoangle>
                    <activeaudioangle>false</activeaudioangle>
                    <clip id="clip-6"/>
                  </angle>
                  <angle>
                    <activevideoangle>false</activevideoangle>
                    <activeaudioangle>false</activeaudioangle>
                    <clip id="clip-7"/>
                  </angle>
                  <angle>
                    <activevideoangle>false</activevideoangle>
                    <activeaudioangle>false</activeaudioangle>
                    <clip id="clip-8"/>
                  </angle>
                  <angle>
                    <activevideoangle>false</activevideoangle>
                    <activeaudioangle>false</activeaudioangle>
                    <clip id="clip-9"/>
                  </angle>
                  <masterclipid>clip-master</masterclipid>
                </multiclip>
              </clipitem>
              <clipitem id="cs-929">
                <duration>75</duration>
                <rate>
                  <ntsc>false</ntsc>
                  <timebase>25</timebase>
                </rate>
                <in>77403</in>
                <out>77477</out>
                <start>77403</start>
                <end>77477</end>
                <file id="src-5"/>
                <sourcetrack>
                  <mediatype>video</mediatype>
                  <trackindex>1</trackindex>
                </sourcetrack>
                <multiclip id="mcs-929">
                  <name>MCS-929</name>
                  <masterclipid>clip-master</masterclipid>
                  <collapsed>false</collapsed>
                  <angle>
                    <activevideoangle>false</activevideoangle>
                    <activeaudioangle>false</activeaudioangle>
                    <clip id="clip-1"/>
                  </angle>
                  <angle>
                    <activevideoangle>false</activevideoangle>
                    <activeaudioangle>false</activeaudioangle>
                    <clip id="clip-2"/>
                  </angle>
                  <angle>
                    <activevideoangle>false</activevideoangle>
                    <activeaudioangle>false</activeaudioangle>
                    <clip id="clip-3"/>
                  </angle>
                  <angle>
                    <activevideoangle>false</activevideoangle>
                    <activeaudioangle>false</activeaudioangle>
                    <clip id="clip-4"/>
                  </angle>
                  <angle>
                    <activevideoangle>true</activevideoangle>
                    <activeaudioangle>true</activeaudioangle>
                    <clip id="clip-5"/>
                  </angle>
                  <angle>
                    <activevideoangle>false</activevideoangle>
                    <activeaudioangle>false</activeaudioangle>
                    <clip id="clip-6"/>
                  </angle>
                  <angle>
                    <activevideoangle>false</activevideoangle>
                    <activeaudioangle>false</activeaudioangle>
                    <clip id="clip-7"/>
                  </angle>
                  <angle>
                    <activevideoangle>false</activevideoangle>
                    <activeaudioangle>false</activeaudioangle>
                    <clip id="clip-8"/>
                  </angle>
                  <angle>
                    <activevideoangle>false</activevideoangle>
                    <activeaudioangle>false</activeaudioangle>
                    <clip id="clip-9"/>
                  </angle>
                  <masterclipid>clip-master</masterclipid>
                </multiclip>
              </clipitem>
              <clipitem id="cs-930">
                <duration>38</duration>
                <rate>
                  <ntsc>false</ntsc>
                  <timebase>25</timebase>
                </rate>
                <in>77477</in>
                <out>77514</out>
                <start>77477</start>
                <end>77514</end>
                <file id="src-4"/>
                <sourcetrack>
                  <mediatype>video</mediatype>
                  <trackindex>1</trackindex>
                </sourcetrack>
                <multiclip id="mcs-930">
                  <name>MCS-930</name>
                  <masterclipid>clip-master</masterclipid>
                  <collapsed>false</collapsed>
                  <angle>
                    <activevideoangle>false</activevideoangle>
                    <activeaudioangle>false</activeaudioangle>
                    <clip id="clip-1"/>
                  </angle>
                  <angle>
                    <activevideoangle>false</activevideoangle>
                    <activeaudioangle>false</activeaudioangle>
                    <clip id="clip-2"/>
                  </angle>
                  <angle>
                    <activevideoangle>false</activevideoangle>
                    <activeaudioangle>false</activeaudioangle>
                    <clip id="clip-3"/>
                  </angle>
                  <angle>
                    <activevideoangle>true</activevideoangle>
                    <activeaudioangle>true</activeaudioangle>
                    <clip id="clip-4"/>
                  </angle>
                  <angle>
                    <activevideoangle>false</activevideoangle>
                    <activeaudioangle>false</activeaudioangle>
                    <clip id="clip-5"/>
                  </angle>
                  <angle>
                    <activevideoangle>false</activevideoangle>
                    <activeaudioangle>false</activeaudioangle>
                    <clip id="clip-6"/>
                  </angle>
                  <angle>
                    <activevideoangle>false</activevideoangle>
                    <activeaudioangle>false</activeaudioangle>
                    <clip id="clip-7"/>
                  </angle>
                  <angle>
                    <activevideoangle>false</activevideoangle>
                    <activeaudioangle>false</activeaudioangle>
                    <clip id="clip-8"/>
                  </angle>
                  <angle>
                    <activevideoangle>false</activevideoangle>
                    <activeaudioangle>false</activeaudioangle>
                    <clip id="clip-9"/>
                  </angle>
                  <masterclipid>clip-master</masterclipid>
                </multiclip>
              </clipitem>
              <clipitem id="cs-931">
                <duration>97</duration>
                <rate>
                  <ntsc>false</ntsc>
                  <timebase>25</timebase>
                </rate>
                <in>77514</in>
                <out>77610</out>
                <start>77514</start>
                <end>77610</end>
                <file id="src-3"/>
                <sourcetrack>
                  <mediatype>video</mediatype>
                  <trackindex>1</trackindex>
                </sourcetrack>
                <multiclip id="mcs-931">
                  <name>MCS-931</name>
                  <masterclipid>clip-master</masterclipid>
                  <collapsed>false</collapsed>
                  <angle>
                    <activevideoangle>false</activevideoangle>
                    <activeaudioangle>false</activeaudioangle>
                    <clip id="clip-1"/>
                  </angle>
                  <angle>
                    <activevideoangle>false</activevideoangle>
                    <activeaudioangle>false</activeaudioangle>
                    <clip id="clip-2"/>
                  </angle>
                  <angle>
                    <activevideoangle>true</activevideoangle>
                    <activeaudioangle>true</activeaudioangle>
                    <clip id="clip-3"/>
                  </angle>
                  <angle>
                    <activevideoangle>false</activevideoangle>
                    <activeaudioangle>false</activeaudioangle>
                    <clip id="clip-4"/>
                  </angle>
                  <angle>
                    <activevideoangle>false</activevideoangle>
                    <activeaudioangle>false</activeaudioangle>
                    <clip id="clip-5"/>
                  </angle>
                  <angle>
                    <activevideoangle>false</activevideoangle>
                    <activeaudioangle>false</activeaudioangle>
                    <clip id="clip-6"/>
                  </angle>
                  <angle>
                    <activevideoangle>false</activevideoangle>
                    <activeaudioangle>false</activeaudioangle>
                    <clip id="clip-7"/>
                  </angle>
                  <angle>
                    <activevideoangle>false</activevideoangle>
                    <activeaudioangle>false</activeaudioangle>
                    <clip id="clip-8"/>
                  </angle>
                  <angle>
                    <activevideoangle>false</activevideoangle>
                    <activeaudioangle>false</activeaudioangle>
                    <clip id="clip-9"/>
                  </angle>
                  <masterclipid>clip-master</masterclipid>
                </multiclip>
              </clipitem>
              <clipitem id="cs-932">
                <duration>55</duration>
                <rate>
                  <ntsc>false</ntsc>
                  <timebase>25</timebase>
                </rate>
                <in>77610</in>
                <out>77664</out>
                <start>77610</start>
                <end>77664</end>
                <file id="src-6"/>
                <sourcetrack>
                  <mediatype>video</mediatype>
                  <trackindex>1</trackindex>
                </sourcetrack>
                <multiclip id="mcs-932">
                  <name>MCS-932</name>
                  <masterclipid>clip-master</masterclipid>
                  <collapsed>false</collapsed>
                  <angle>
                    <activevideoangle>false</activevideoangle>
                    <activeaudioangle>false</activeaudioangle>
                    <clip id="clip-1"/>
                  </angle>
                  <angle>
                    <activevideoangle>false</activevideoangle>
                    <activeaudioangle>false</activeaudioangle>
                    <clip id="clip-2"/>
                  </angle>
                  <angle>
                    <activevideoangle>false</activevideoangle>
                    <activeaudioangle>false</activeaudioangle>
                    <clip id="clip-3"/>
                  </angle>
                  <angle>
                    <activevideoangle>false</activevideoangle>
                    <activeaudioangle>false</activeaudioangle>
                    <clip id="clip-4"/>
                  </angle>
                  <angle>
                    <activevideoangle>false</activevideoangle>
                    <activeaudioangle>false</activeaudioangle>
                    <clip id="clip-5"/>
                  </angle>
                  <angle>
                    <activevideoangle>true</activevideoangle>
                    <activeaudioangle>true</activeaudioangle>
                    <clip id="clip-6"/>
                  </angle>
                  <angle>
                    <activevideoangle>false</activevideoangle>
                    <activeaudioangle>false</activeaudioangle>
                    <clip id="clip-7"/>
                  </angle>
                  <angle>
                    <activevideoangle>false</activevideoangle>
                    <activeaudioangle>false</activeaudioangle>
                    <clip id="clip-8"/>
                  </angle>
                  <angle>
                    <activevideoangle>false</activevideoangle>
                    <activeaudioangle>false</activeaudioangle>
                    <clip id="clip-9"/>
                  </angle>
                  <masterclipid>clip-master</masterclipid>
                </multiclip>
              </clipitem>
              <clipitem id="cs-933">
                <duration>126</duration>
                <rate>
                  <ntsc>false</ntsc>
                  <timebase>25</timebase>
                </rate>
                <in>77664</in>
                <out>77789</out>
                <start>77664</start>
                <end>77789</end>
                <file id="src-3"/>
                <sourcetrack>
                  <mediatype>video</mediatype>
                  <trackindex>1</trackindex>
                </sourcetrack>
                <multiclip id="mcs-933">
                  <name>MCS-933</name>
                  <masterclipid>clip-master</masterclipid>
                  <collapsed>false</collapsed>
                  <angle>
                    <activevideoangle>false</activevideoangle>
                    <activeaudioangle>false</activeaudioangle>
                    <clip id="clip-1"/>
                  </angle>
                  <angle>
                    <activevideoangle>false</activevideoangle>
                    <activeaudioangle>false</activeaudioangle>
                    <clip id="clip-2"/>
                  </angle>
                  <angle>
                    <activevideoangle>true</activevideoangle>
                    <activeaudioangle>true</activeaudioangle>
                    <clip id="clip-3"/>
                  </angle>
                  <angle>
                    <activevideoangle>false</activevideoangle>
                    <activeaudioangle>false</activeaudioangle>
                    <clip id="clip-4"/>
                  </angle>
                  <angle>
                    <activevideoangle>false</activevideoangle>
                    <activeaudioangle>false</activeaudioangle>
                    <clip id="clip-5"/>
                  </angle>
                  <angle>
                    <activevideoangle>false</activevideoangle>
                    <activeaudioangle>false</activeaudioangle>
                    <clip id="clip-6"/>
                  </angle>
                  <angle>
                    <activevideoangle>false</activevideoangle>
                    <activeaudioangle>false</activeaudioangle>
                    <clip id="clip-7"/>
                  </angle>
                  <angle>
                    <activevideoangle>false</activevideoangle>
                    <activeaudioangle>false</activeaudioangle>
                    <clip id="clip-8"/>
                  </angle>
                  <angle>
                    <activevideoangle>false</activevideoangle>
                    <activeaudioangle>false</activeaudioangle>
                    <clip id="clip-9"/>
                  </angle>
                  <masterclipid>clip-master</masterclipid>
                </multiclip>
              </clipitem>
              <clipitem id="cs-934">
                <duration>106</duration>
                <rate>
                  <ntsc>false</ntsc>
                  <timebase>25</timebase>
                </rate>
                <in>77789</in>
                <out>77894</out>
                <start>77789</start>
                <end>77894</end>
                <file id="src-4"/>
                <sourcetrack>
                  <mediatype>video</mediatype>
                  <trackindex>1</trackindex>
                </sourcetrack>
                <multiclip id="mcs-934">
                  <name>MCS-934</name>
                  <masterclipid>clip-master</masterclipid>
                  <collapsed>false</collapsed>
                  <angle>
                    <activevideoangle>false</activevideoangle>
                    <activeaudioangle>false</activeaudioangle>
                    <clip id="clip-1"/>
                  </angle>
                  <angle>
                    <activevideoangle>false</activevideoangle>
                    <activeaudioangle>false</activeaudioangle>
                    <clip id="clip-2"/>
                  </angle>
                  <angle>
                    <activevideoangle>false</activevideoangle>
                    <activeaudioangle>false</activeaudioangle>
                    <clip id="clip-3"/>
                  </angle>
                  <angle>
                    <activevideoangle>true</activevideoangle>
                    <activeaudioangle>true</activeaudioangle>
                    <clip id="clip-4"/>
                  </angle>
                  <angle>
                    <activevideoangle>false</activevideoangle>
                    <activeaudioangle>false</activeaudioangle>
                    <clip id="clip-5"/>
                  </angle>
                  <angle>
                    <activevideoangle>false</activevideoangle>
                    <activeaudioangle>false</activeaudioangle>
                    <clip id="clip-6"/>
                  </angle>
                  <angle>
                    <activevideoangle>false</activevideoangle>
                    <activeaudioangle>false</activeaudioangle>
                    <clip id="clip-7"/>
                  </angle>
                  <angle>
                    <activevideoangle>false</activevideoangle>
                    <activeaudioangle>false</activeaudioangle>
                    <clip id="clip-8"/>
                  </angle>
                  <angle>
                    <activevideoangle>false</activevideoangle>
                    <activeaudioangle>false</activeaudioangle>
                    <clip id="clip-9"/>
                  </angle>
                  <masterclipid>clip-master</masterclipid>
                </multiclip>
              </clipitem>
              <clipitem id="cs-935">
                <duration>181</duration>
                <rate>
                  <ntsc>false</ntsc>
                  <timebase>25</timebase>
                </rate>
                <in>77894</in>
                <out>78074</out>
                <start>77894</start>
                <end>78074</end>
                <file id="src-2"/>
                <sourcetrack>
                  <mediatype>video</mediatype>
                  <trackindex>1</trackindex>
                </sourcetrack>
                <multiclip id="mcs-935">
                  <name>MCS-935</name>
                  <masterclipid>clip-master</masterclipid>
                  <collapsed>false</collapsed>
                  <angle>
                    <activevideoangle>false</activevideoangle>
                    <activeaudioangle>false</activeaudioangle>
                    <clip id="clip-1"/>
                  </angle>
                  <angle>
                    <activevideoangle>true</activevideoangle>
                    <activeaudioangle>true</activeaudioangle>
                    <clip id="clip-2"/>
                  </angle>
                  <angle>
                    <activevideoangle>false</activevideoangle>
                    <activeaudioangle>false</activeaudioangle>
                    <clip id="clip-3"/>
                  </angle>
                  <angle>
                    <activevideoangle>false</activevideoangle>
                    <activeaudioangle>false</activeaudioangle>
                    <clip id="clip-4"/>
                  </angle>
                  <angle>
                    <activevideoangle>false</activevideoangle>
                    <activeaudioangle>false</activeaudioangle>
                    <clip id="clip-5"/>
                  </angle>
                  <angle>
                    <activevideoangle>false</activevideoangle>
                    <activeaudioangle>false</activeaudioangle>
                    <clip id="clip-6"/>
                  </angle>
                  <angle>
                    <activevideoangle>false</activevideoangle>
                    <activeaudioangle>false</activeaudioangle>
                    <clip id="clip-7"/>
                  </angle>
                  <angle>
                    <activevideoangle>false</activevideoangle>
                    <activeaudioangle>false</activeaudioangle>
                    <clip id="clip-8"/>
                  </angle>
                  <angle>
                    <activevideoangle>false</activevideoangle>
                    <activeaudioangle>false</activeaudioangle>
                    <clip id="clip-9"/>
                  </angle>
                  <masterclipid>clip-master</masterclipid>
                </multiclip>
              </clipitem>
              <clipitem id="cs-936">
                <duration>71</duration>
                <rate>
                  <ntsc>false</ntsc>
                  <timebase>25</timebase>
                </rate>
                <in>78074</in>
                <out>78144</out>
                <start>78074</start>
                <end>78144</end>
                <file id="src-5"/>
                <sourcetrack>
                  <mediatype>video</mediatype>
                  <trackindex>1</trackindex>
                </sourcetrack>
                <multiclip id="mcs-936">
                  <name>MCS-936</name>
                  <masterclipid>clip-master</masterclipid>
                  <collapsed>false</collapsed>
                  <angle>
                    <activevideoangle>false</activevideoangle>
                    <activeaudioangle>false</activeaudioangle>
                    <clip id="clip-1"/>
                  </angle>
                  <angle>
                    <activevideoangle>false</activevideoangle>
                    <activeaudioangle>false</activeaudioangle>
                    <clip id="clip-2"/>
                  </angle>
                  <angle>
                    <activevideoangle>false</activevideoangle>
                    <activeaudioangle>false</activeaudioangle>
                    <clip id="clip-3"/>
                  </angle>
                  <angle>
                    <activevideoangle>false</activevideoangle>
                    <activeaudioangle>false</activeaudioangle>
                    <clip id="clip-4"/>
                  </angle>
                  <angle>
                    <activevideoangle>true</activevideoangle>
                    <activeaudioangle>true</activeaudioangle>
                    <clip id="clip-5"/>
                  </angle>
                  <angle>
                    <activevideoangle>false</activevideoangle>
                    <activeaudioangle>false</activeaudioangle>
                    <clip id="clip-6"/>
                  </angle>
                  <angle>
                    <activevideoangle>false</activevideoangle>
                    <activeaudioangle>false</activeaudioangle>
                    <clip id="clip-7"/>
                  </angle>
                  <angle>
                    <activevideoangle>false</activevideoangle>
                    <activeaudioangle>false</activeaudioangle>
                    <clip id="clip-8"/>
                  </angle>
                  <angle>
                    <activevideoangle>false</activevideoangle>
                    <activeaudioangle>false</activeaudioangle>
                    <clip id="clip-9"/>
                  </angle>
                  <masterclipid>clip-master</masterclipid>
                </multiclip>
              </clipitem>
              <clipitem id="cs-937">
                <duration>105</duration>
                <rate>
                  <ntsc>false</ntsc>
                  <timebase>25</timebase>
                </rate>
                <in>78144</in>
                <out>78248</out>
                <start>78144</start>
                <end>78248</end>
                <file id="src-3"/>
                <sourcetrack>
                  <mediatype>video</mediatype>
                  <trackindex>1</trackindex>
                </sourcetrack>
                <multiclip id="mcs-937">
                  <name>MCS-937</name>
                  <masterclipid>clip-master</masterclipid>
                  <collapsed>false</collapsed>
                  <angle>
                    <activevideoangle>false</activevideoangle>
                    <activeaudioangle>false</activeaudioangle>
                    <clip id="clip-1"/>
                  </angle>
                  <angle>
                    <activevideoangle>false</activevideoangle>
                    <activeaudioangle>false</activeaudioangle>
                    <clip id="clip-2"/>
                  </angle>
                  <angle>
                    <activevideoangle>true</activevideoangle>
                    <activeaudioangle>true</activeaudioangle>
                    <clip id="clip-3"/>
                  </angle>
                  <angle>
                    <activevideoangle>false</activevideoangle>
                    <activeaudioangle>false</activeaudioangle>
                    <clip id="clip-4"/>
                  </angle>
                  <angle>
                    <activevideoangle>false</activevideoangle>
                    <activeaudioangle>false</activeaudioangle>
                    <clip id="clip-5"/>
                  </angle>
                  <angle>
                    <activevideoangle>false</activevideoangle>
                    <activeaudioangle>false</activeaudioangle>
                    <clip id="clip-6"/>
                  </angle>
                  <angle>
                    <activevideoangle>false</activevideoangle>
                    <activeaudioangle>false</activeaudioangle>
                    <clip id="clip-7"/>
                  </angle>
                  <angle>
                    <activevideoangle>false</activevideoangle>
                    <activeaudioangle>false</activeaudioangle>
                    <clip id="clip-8"/>
                  </angle>
                  <angle>
                    <activevideoangle>false</activevideoangle>
                    <activeaudioangle>false</activeaudioangle>
                    <clip id="clip-9"/>
                  </angle>
                  <masterclipid>clip-master</masterclipid>
                </multiclip>
              </clipitem>
              <clipitem id="cs-938">
                <duration>134</duration>
                <rate>
                  <ntsc>false</ntsc>
                  <timebase>25</timebase>
                </rate>
                <in>78248</in>
                <out>78381</out>
                <start>78248</start>
                <end>78381</end>
                <file id="src-6"/>
                <sourcetrack>
                  <mediatype>video</mediatype>
                  <trackindex>1</trackindex>
                </sourcetrack>
                <multiclip id="mcs-938">
                  <name>MCS-938</name>
                  <masterclipid>clip-master</masterclipid>
                  <collapsed>false</collapsed>
                  <angle>
                    <activevideoangle>false</activevideoangle>
                    <activeaudioangle>false</activeaudioangle>
                    <clip id="clip-1"/>
                  </angle>
                  <angle>
                    <activevideoangle>false</activevideoangle>
                    <activeaudioangle>false</activeaudioangle>
                    <clip id="clip-2"/>
                  </angle>
                  <angle>
                    <activevideoangle>false</activevideoangle>
                    <activeaudioangle>false</activeaudioangle>
                    <clip id="clip-3"/>
                  </angle>
                  <angle>
                    <activevideoangle>false</activevideoangle>
                    <activeaudioangle>false</activeaudioangle>
                    <clip id="clip-4"/>
                  </angle>
                  <angle>
                    <activevideoangle>false</activevideoangle>
                    <activeaudioangle>false</activeaudioangle>
                    <clip id="clip-5"/>
                  </angle>
                  <angle>
                    <activevideoangle>true</activevideoangle>
                    <activeaudioangle>true</activeaudioangle>
                    <clip id="clip-6"/>
                  </angle>
                  <angle>
                    <activevideoangle>false</activevideoangle>
                    <activeaudioangle>false</activeaudioangle>
                    <clip id="clip-7"/>
                  </angle>
                  <angle>
                    <activevideoangle>false</activevideoangle>
                    <activeaudioangle>false</activeaudioangle>
                    <clip id="clip-8"/>
                  </angle>
                  <angle>
                    <activevideoangle>false</activevideoangle>
                    <activeaudioangle>false</activeaudioangle>
                    <clip id="clip-9"/>
                  </angle>
                  <masterclipid>clip-master</masterclipid>
                </multiclip>
              </clipitem>
              <clipitem id="cs-939">
                <duration>105</duration>
                <rate>
                  <ntsc>false</ntsc>
                  <timebase>25</timebase>
                </rate>
                <in>78381</in>
                <out>78485</out>
                <start>78381</start>
                <end>78485</end>
                <file id="src-4"/>
                <sourcetrack>
                  <mediatype>video</mediatype>
                  <trackindex>1</trackindex>
                </sourcetrack>
                <multiclip id="mcs-939">
                  <name>MCS-939</name>
                  <masterclipid>clip-master</masterclipid>
                  <collapsed>false</collapsed>
                  <angle>
                    <activevideoangle>false</activevideoangle>
                    <activeaudioangle>false</activeaudioangle>
                    <clip id="clip-1"/>
                  </angle>
                  <angle>
                    <activevideoangle>false</activevideoangle>
                    <activeaudioangle>false</activeaudioangle>
                    <clip id="clip-2"/>
                  </angle>
                  <angle>
                    <activevideoangle>false</activevideoangle>
                    <activeaudioangle>false</activeaudioangle>
                    <clip id="clip-3"/>
                  </angle>
                  <angle>
                    <activevideoangle>true</activevideoangle>
                    <activeaudioangle>true</activeaudioangle>
                    <clip id="clip-4"/>
                  </angle>
                  <angle>
                    <activevideoangle>false</activevideoangle>
                    <activeaudioangle>false</activeaudioangle>
                    <clip id="clip-5"/>
                  </angle>
                  <angle>
                    <activevideoangle>false</activevideoangle>
                    <activeaudioangle>false</activeaudioangle>
                    <clip id="clip-6"/>
                  </angle>
                  <angle>
                    <activevideoangle>false</activevideoangle>
                    <activeaudioangle>false</activeaudioangle>
                    <clip id="clip-7"/>
                  </angle>
                  <angle>
                    <activevideoangle>false</activevideoangle>
                    <activeaudioangle>false</activeaudioangle>
                    <clip id="clip-8"/>
                  </angle>
                  <angle>
                    <activevideoangle>false</activevideoangle>
                    <activeaudioangle>false</activeaudioangle>
                    <clip id="clip-9"/>
                  </angle>
                  <masterclipid>clip-master</masterclipid>
                </multiclip>
              </clipitem>
              <clipitem id="cs-940">
                <duration>57</duration>
                <rate>
                  <ntsc>false</ntsc>
                  <timebase>25</timebase>
                </rate>
                <in>78485</in>
                <out>78541</out>
                <start>78485</start>
                <end>78541</end>
                <file id="src-2"/>
                <sourcetrack>
                  <mediatype>video</mediatype>
                  <trackindex>1</trackindex>
                </sourcetrack>
                <multiclip id="mcs-940">
                  <name>MCS-940</name>
                  <masterclipid>clip-master</masterclipid>
                  <collapsed>false</collapsed>
                  <angle>
                    <activevideoangle>false</activevideoangle>
                    <activeaudioangle>false</activeaudioangle>
                    <clip id="clip-1"/>
                  </angle>
                  <angle>
                    <activevideoangle>true</activevideoangle>
                    <activeaudioangle>true</activeaudioangle>
                    <clip id="clip-2"/>
                  </angle>
                  <angle>
                    <activevideoangle>false</activevideoangle>
                    <activeaudioangle>false</activeaudioangle>
                    <clip id="clip-3"/>
                  </angle>
                  <angle>
                    <activevideoangle>false</activevideoangle>
                    <activeaudioangle>false</activeaudioangle>
                    <clip id="clip-4"/>
                  </angle>
                  <angle>
                    <activevideoangle>false</activevideoangle>
                    <activeaudioangle>false</activeaudioangle>
                    <clip id="clip-5"/>
                  </angle>
                  <angle>
                    <activevideoangle>false</activevideoangle>
                    <activeaudioangle>false</activeaudioangle>
                    <clip id="clip-6"/>
                  </angle>
                  <angle>
                    <activevideoangle>false</activevideoangle>
                    <activeaudioangle>false</activeaudioangle>
                    <clip id="clip-7"/>
                  </angle>
                  <angle>
                    <activevideoangle>false</activevideoangle>
                    <activeaudioangle>false</activeaudioangle>
                    <clip id="clip-8"/>
                  </angle>
                  <angle>
                    <activevideoangle>false</activevideoangle>
                    <activeaudioangle>false</activeaudioangle>
                    <clip id="clip-9"/>
                  </angle>
                  <masterclipid>clip-master</masterclipid>
                </multiclip>
              </clipitem>
              <clipitem id="cs-941">
                <duration>99</duration>
                <rate>
                  <ntsc>false</ntsc>
                  <timebase>25</timebase>
                </rate>
                <in>78541</in>
                <out>78639</out>
                <start>78541</start>
                <end>78639</end>
                <file id="src-7"/>
                <sourcetrack>
                  <mediatype>video</mediatype>
                  <trackindex>1</trackindex>
                </sourcetrack>
                <multiclip id="mcs-941">
                  <name>MCS-941</name>
                  <masterclipid>clip-master</masterclipid>
                  <collapsed>false</collapsed>
                  <angle>
                    <activevideoangle>false</activevideoangle>
                    <activeaudioangle>false</activeaudioangle>
                    <clip id="clip-1"/>
                  </angle>
                  <angle>
                    <activevideoangle>false</activevideoangle>
                    <activeaudioangle>false</activeaudioangle>
                    <clip id="clip-2"/>
                  </angle>
                  <angle>
                    <activevideoangle>false</activevideoangle>
                    <activeaudioangle>false</activeaudioangle>
                    <clip id="clip-3"/>
                  </angle>
                  <angle>
                    <activevideoangle>false</activevideoangle>
                    <activeaudioangle>false</activeaudioangle>
                    <clip id="clip-4"/>
                  </angle>
                  <angle>
                    <activevideoangle>false</activevideoangle>
                    <activeaudioangle>false</activeaudioangle>
                    <clip id="clip-5"/>
                  </angle>
                  <angle>
                    <activevideoangle>false</activevideoangle>
                    <activeaudioangle>false</activeaudioangle>
                    <clip id="clip-6"/>
                  </angle>
                  <angle>
                    <activevideoangle>true</activevideoangle>
                    <activeaudioangle>true</activeaudioangle>
                    <clip id="clip-7"/>
                  </angle>
                  <angle>
                    <activevideoangle>false</activevideoangle>
                    <activeaudioangle>false</activeaudioangle>
                    <clip id="clip-8"/>
                  </angle>
                  <angle>
                    <activevideoangle>false</activevideoangle>
                    <activeaudioangle>false</activeaudioangle>
                    <clip id="clip-9"/>
                  </angle>
                  <masterclipid>clip-master</masterclipid>
                </multiclip>
              </clipitem>
              <clipitem id="cs-942">
                <duration>47</duration>
                <rate>
                  <ntsc>false</ntsc>
                  <timebase>25</timebase>
                </rate>
                <in>78639</in>
                <out>78685</out>
                <start>78639</start>
                <end>78685</end>
                <file id="src-3"/>
                <sourcetrack>
                  <mediatype>video</mediatype>
                  <trackindex>1</trackindex>
                </sourcetrack>
                <multiclip id="mcs-942">
                  <name>MCS-942</name>
                  <masterclipid>clip-master</masterclipid>
                  <collapsed>false</collapsed>
                  <angle>
                    <activevideoangle>false</activevideoangle>
                    <activeaudioangle>false</activeaudioangle>
                    <clip id="clip-1"/>
                  </angle>
                  <angle>
                    <activevideoangle>false</activevideoangle>
                    <activeaudioangle>false</activeaudioangle>
                    <clip id="clip-2"/>
                  </angle>
                  <angle>
                    <activevideoangle>true</activevideoangle>
                    <activeaudioangle>true</activeaudioangle>
                    <clip id="clip-3"/>
                  </angle>
                  <angle>
                    <activevideoangle>false</activevideoangle>
                    <activeaudioangle>false</activeaudioangle>
                    <clip id="clip-4"/>
                  </angle>
                  <angle>
                    <activevideoangle>false</activevideoangle>
                    <activeaudioangle>false</activeaudioangle>
                    <clip id="clip-5"/>
                  </angle>
                  <angle>
                    <activevideoangle>false</activevideoangle>
                    <activeaudioangle>false</activeaudioangle>
                    <clip id="clip-6"/>
                  </angle>
                  <angle>
                    <activevideoangle>false</activevideoangle>
                    <activeaudioangle>false</activeaudioangle>
                    <clip id="clip-7"/>
                  </angle>
                  <angle>
                    <activevideoangle>false</activevideoangle>
                    <activeaudioangle>false</activeaudioangle>
                    <clip id="clip-8"/>
                  </angle>
                  <angle>
                    <activevideoangle>false</activevideoangle>
                    <activeaudioangle>false</activeaudioangle>
                    <clip id="clip-9"/>
                  </angle>
                  <masterclipid>clip-master</masterclipid>
                </multiclip>
              </clipitem>
              <clipitem id="cs-943">
                <duration>128</duration>
                <rate>
                  <ntsc>false</ntsc>
                  <timebase>25</timebase>
                </rate>
                <in>78685</in>
                <out>78812</out>
                <start>78685</start>
                <end>78812</end>
                <file id="src-4"/>
                <sourcetrack>
                  <mediatype>video</mediatype>
                  <trackindex>1</trackindex>
                </sourcetrack>
                <multiclip id="mcs-943">
                  <name>MCS-943</name>
                  <masterclipid>clip-master</masterclipid>
                  <collapsed>false</collapsed>
                  <angle>
                    <activevideoangle>false</activevideoangle>
                    <activeaudioangle>false</activeaudioangle>
                    <clip id="clip-1"/>
                  </angle>
                  <angle>
                    <activevideoangle>false</activevideoangle>
                    <activeaudioangle>false</activeaudioangle>
                    <clip id="clip-2"/>
                  </angle>
                  <angle>
                    <activevideoangle>false</activevideoangle>
                    <activeaudioangle>false</activeaudioangle>
                    <clip id="clip-3"/>
                  </angle>
                  <angle>
                    <activevideoangle>true</activevideoangle>
                    <activeaudioangle>true</activeaudioangle>
                    <clip id="clip-4"/>
                  </angle>
                  <angle>
                    <activevideoangle>false</activevideoangle>
                    <activeaudioangle>false</activeaudioangle>
                    <clip id="clip-5"/>
                  </angle>
                  <angle>
                    <activevideoangle>false</activevideoangle>
                    <activeaudioangle>false</activeaudioangle>
                    <clip id="clip-6"/>
                  </angle>
                  <angle>
                    <activevideoangle>false</activevideoangle>
                    <activeaudioangle>false</activeaudioangle>
                    <clip id="clip-7"/>
                  </angle>
                  <angle>
                    <activevideoangle>false</activevideoangle>
                    <activeaudioangle>false</activeaudioangle>
                    <clip id="clip-8"/>
                  </angle>
                  <angle>
                    <activevideoangle>false</activevideoangle>
                    <activeaudioangle>false</activeaudioangle>
                    <clip id="clip-9"/>
                  </angle>
                  <masterclipid>clip-master</masterclipid>
                </multiclip>
              </clipitem>
              <clipitem id="cs-944">
                <duration>173</duration>
                <rate>
                  <ntsc>false</ntsc>
                  <timebase>25</timebase>
                </rate>
                <in>78812</in>
                <out>78984</out>
                <start>78812</start>
                <end>78984</end>
                <file id="src-6"/>
                <sourcetrack>
                  <mediatype>video</mediatype>
                  <trackindex>1</trackindex>
                </sourcetrack>
                <multiclip id="mcs-944">
                  <name>MCS-944</name>
                  <masterclipid>clip-master</masterclipid>
                  <collapsed>false</collapsed>
                  <angle>
                    <activevideoangle>false</activevideoangle>
                    <activeaudioangle>false</activeaudioangle>
                    <clip id="clip-1"/>
                  </angle>
                  <angle>
                    <activevideoangle>false</activevideoangle>
                    <activeaudioangle>false</activeaudioangle>
                    <clip id="clip-2"/>
                  </angle>
                  <angle>
                    <activevideoangle>false</activevideoangle>
                    <activeaudioangle>false</activeaudioangle>
                    <clip id="clip-3"/>
                  </angle>
                  <angle>
                    <activevideoangle>false</activevideoangle>
                    <activeaudioangle>false</activeaudioangle>
                    <clip id="clip-4"/>
                  </angle>
                  <angle>
                    <activevideoangle>false</activevideoangle>
                    <activeaudioangle>false</activeaudioangle>
                    <clip id="clip-5"/>
                  </angle>
                  <angle>
                    <activevideoangle>true</activevideoangle>
                    <activeaudioangle>true</activeaudioangle>
                    <clip id="clip-6"/>
                  </angle>
                  <angle>
                    <activevideoangle>false</activevideoangle>
                    <activeaudioangle>false</activeaudioangle>
                    <clip id="clip-7"/>
                  </angle>
                  <angle>
                    <activevideoangle>false</activevideoangle>
                    <activeaudioangle>false</activeaudioangle>
                    <clip id="clip-8"/>
                  </angle>
                  <angle>
                    <activevideoangle>false</activevideoangle>
                    <activeaudioangle>false</activeaudioangle>
                    <clip id="clip-9"/>
                  </angle>
                  <masterclipid>clip-master</masterclipid>
                </multiclip>
              </clipitem>
              <clipitem id="cs-945">
                <duration>127</duration>
                <rate>
                  <ntsc>false</ntsc>
                  <timebase>25</timebase>
                </rate>
                <in>78984</in>
                <out>79110</out>
                <start>78984</start>
                <end>79110</end>
                <file id="src-2"/>
                <sourcetrack>
                  <mediatype>video</mediatype>
                  <trackindex>1</trackindex>
                </sourcetrack>
                <multiclip id="mcs-945">
                  <name>MCS-945</name>
                  <masterclipid>clip-master</masterclipid>
                  <collapsed>false</collapsed>
                  <angle>
                    <activevideoangle>false</activevideoangle>
                    <activeaudioangle>false</activeaudioangle>
                    <clip id="clip-1"/>
                  </angle>
                  <angle>
                    <activevideoangle>true</activevideoangle>
                    <activeaudioangle>true</activeaudioangle>
                    <clip id="clip-2"/>
                  </angle>
                  <angle>
                    <activevideoangle>false</activevideoangle>
                    <activeaudioangle>false</activeaudioangle>
                    <clip id="clip-3"/>
                  </angle>
                  <angle>
                    <activevideoangle>false</activevideoangle>
                    <activeaudioangle>false</activeaudioangle>
                    <clip id="clip-4"/>
                  </angle>
                  <angle>
                    <activevideoangle>false</activevideoangle>
                    <activeaudioangle>false</activeaudioangle>
                    <clip id="clip-5"/>
                  </angle>
                  <angle>
                    <activevideoangle>false</activevideoangle>
                    <activeaudioangle>false</activeaudioangle>
                    <clip id="clip-6"/>
                  </angle>
                  <angle>
                    <activevideoangle>false</activevideoangle>
                    <activeaudioangle>false</activeaudioangle>
                    <clip id="clip-7"/>
                  </angle>
                  <angle>
                    <activevideoangle>false</activevideoangle>
                    <activeaudioangle>false</activeaudioangle>
                    <clip id="clip-8"/>
                  </angle>
                  <angle>
                    <activevideoangle>false</activevideoangle>
                    <activeaudioangle>false</activeaudioangle>
                    <clip id="clip-9"/>
                  </angle>
                  <masterclipid>clip-master</masterclipid>
                </multiclip>
              </clipitem>
              <clipitem id="cs-946">
                <duration>257</duration>
                <rate>
                  <ntsc>false</ntsc>
                  <timebase>25</timebase>
                </rate>
                <in>79110</in>
                <out>79366</out>
                <start>79110</start>
                <end>79366</end>
                <file id="src-4"/>
                <sourcetrack>
                  <mediatype>video</mediatype>
                  <trackindex>1</trackindex>
                </sourcetrack>
                <multiclip id="mcs-946">
                  <name>MCS-946</name>
                  <masterclipid>clip-master</masterclipid>
                  <collapsed>false</collapsed>
                  <angle>
                    <activevideoangle>false</activevideoangle>
                    <activeaudioangle>false</activeaudioangle>
                    <clip id="clip-1"/>
                  </angle>
                  <angle>
                    <activevideoangle>false</activevideoangle>
                    <activeaudioangle>false</activeaudioangle>
                    <clip id="clip-2"/>
                  </angle>
                  <angle>
                    <activevideoangle>false</activevideoangle>
                    <activeaudioangle>false</activeaudioangle>
                    <clip id="clip-3"/>
                  </angle>
                  <angle>
                    <activevideoangle>true</activevideoangle>
                    <activeaudioangle>true</activeaudioangle>
                    <clip id="clip-4"/>
                  </angle>
                  <angle>
                    <activevideoangle>false</activevideoangle>
                    <activeaudioangle>false</activeaudioangle>
                    <clip id="clip-5"/>
                  </angle>
                  <angle>
                    <activevideoangle>false</activevideoangle>
                    <activeaudioangle>false</activeaudioangle>
                    <clip id="clip-6"/>
                  </angle>
                  <angle>
                    <activevideoangle>false</activevideoangle>
                    <activeaudioangle>false</activeaudioangle>
                    <clip id="clip-7"/>
                  </angle>
                  <angle>
                    <activevideoangle>false</activevideoangle>
                    <activeaudioangle>false</activeaudioangle>
                    <clip id="clip-8"/>
                  </angle>
                  <angle>
                    <activevideoangle>false</activevideoangle>
                    <activeaudioangle>false</activeaudioangle>
                    <clip id="clip-9"/>
                  </angle>
                  <masterclipid>clip-master</masterclipid>
                </multiclip>
              </clipitem>
              <clipitem id="cs-947">
                <duration>114</duration>
                <rate>
                  <ntsc>false</ntsc>
                  <timebase>25</timebase>
                </rate>
                <in>79366</in>
                <out>79479</out>
                <start>79366</start>
                <end>79479</end>
                <file id="src-3"/>
                <sourcetrack>
                  <mediatype>video</mediatype>
                  <trackindex>1</trackindex>
                </sourcetrack>
                <multiclip id="mcs-947">
                  <name>MCS-947</name>
                  <masterclipid>clip-master</masterclipid>
                  <collapsed>false</collapsed>
                  <angle>
                    <activevideoangle>false</activevideoangle>
                    <activeaudioangle>false</activeaudioangle>
                    <clip id="clip-1"/>
                  </angle>
                  <angle>
                    <activevideoangle>false</activevideoangle>
                    <activeaudioangle>false</activeaudioangle>
                    <clip id="clip-2"/>
                  </angle>
                  <angle>
                    <activevideoangle>true</activevideoangle>
                    <activeaudioangle>true</activeaudioangle>
                    <clip id="clip-3"/>
                  </angle>
                  <angle>
                    <activevideoangle>false</activevideoangle>
                    <activeaudioangle>false</activeaudioangle>
                    <clip id="clip-4"/>
                  </angle>
                  <angle>
                    <activevideoangle>false</activevideoangle>
                    <activeaudioangle>false</activeaudioangle>
                    <clip id="clip-5"/>
                  </angle>
                  <angle>
                    <activevideoangle>false</activevideoangle>
                    <activeaudioangle>false</activeaudioangle>
                    <clip id="clip-6"/>
                  </angle>
                  <angle>
                    <activevideoangle>false</activevideoangle>
                    <activeaudioangle>false</activeaudioangle>
                    <clip id="clip-7"/>
                  </angle>
                  <angle>
                    <activevideoangle>false</activevideoangle>
                    <activeaudioangle>false</activeaudioangle>
                    <clip id="clip-8"/>
                  </angle>
                  <angle>
                    <activevideoangle>false</activevideoangle>
                    <activeaudioangle>false</activeaudioangle>
                    <clip id="clip-9"/>
                  </angle>
                  <masterclipid>clip-master</masterclipid>
                </multiclip>
              </clipitem>
              <clipitem id="cs-948">
                <duration>163</duration>
                <rate>
                  <ntsc>false</ntsc>
                  <timebase>25</timebase>
                </rate>
                <in>79479</in>
                <out>79641</out>
                <start>79479</start>
                <end>79641</end>
                <file id="src-2"/>
                <sourcetrack>
                  <mediatype>video</mediatype>
                  <trackindex>1</trackindex>
                </sourcetrack>
                <multiclip id="mcs-948">
                  <name>MCS-948</name>
                  <masterclipid>clip-master</masterclipid>
                  <collapsed>false</collapsed>
                  <angle>
                    <activevideoangle>false</activevideoangle>
                    <activeaudioangle>false</activeaudioangle>
                    <clip id="clip-1"/>
                  </angle>
                  <angle>
                    <activevideoangle>true</activevideoangle>
                    <activeaudioangle>true</activeaudioangle>
                    <clip id="clip-2"/>
                  </angle>
                  <angle>
                    <activevideoangle>false</activevideoangle>
                    <activeaudioangle>false</activeaudioangle>
                    <clip id="clip-3"/>
                  </angle>
                  <angle>
                    <activevideoangle>false</activevideoangle>
                    <activeaudioangle>false</activeaudioangle>
                    <clip id="clip-4"/>
                  </angle>
                  <angle>
                    <activevideoangle>false</activevideoangle>
                    <activeaudioangle>false</activeaudioangle>
                    <clip id="clip-5"/>
                  </angle>
                  <angle>
                    <activevideoangle>false</activevideoangle>
                    <activeaudioangle>false</activeaudioangle>
                    <clip id="clip-6"/>
                  </angle>
                  <angle>
                    <activevideoangle>false</activevideoangle>
                    <activeaudioangle>false</activeaudioangle>
                    <clip id="clip-7"/>
                  </angle>
                  <angle>
                    <activevideoangle>false</activevideoangle>
                    <activeaudioangle>false</activeaudioangle>
                    <clip id="clip-8"/>
                  </angle>
                  <angle>
                    <activevideoangle>false</activevideoangle>
                    <activeaudioangle>false</activeaudioangle>
                    <clip id="clip-9"/>
                  </angle>
                  <masterclipid>clip-master</masterclipid>
                </multiclip>
              </clipitem>
              <clipitem id="cs-949">
                <duration>111</duration>
                <rate>
                  <ntsc>false</ntsc>
                  <timebase>25</timebase>
                </rate>
                <in>79641</in>
                <out>79751</out>
                <start>79641</start>
                <end>79751</end>
                <file id="src-4"/>
                <sourcetrack>
                  <mediatype>video</mediatype>
                  <trackindex>1</trackindex>
                </sourcetrack>
                <multiclip id="mcs-949">
                  <name>MCS-949</name>
                  <masterclipid>clip-master</masterclipid>
                  <collapsed>false</collapsed>
                  <angle>
                    <activevideoangle>false</activevideoangle>
                    <activeaudioangle>false</activeaudioangle>
                    <clip id="clip-1"/>
                  </angle>
                  <angle>
                    <activevideoangle>false</activevideoangle>
                    <activeaudioangle>false</activeaudioangle>
                    <clip id="clip-2"/>
                  </angle>
                  <angle>
                    <activevideoangle>false</activevideoangle>
                    <activeaudioangle>false</activeaudioangle>
                    <clip id="clip-3"/>
                  </angle>
                  <angle>
                    <activevideoangle>true</activevideoangle>
                    <activeaudioangle>true</activeaudioangle>
                    <clip id="clip-4"/>
                  </angle>
                  <angle>
                    <activevideoangle>false</activevideoangle>
                    <activeaudioangle>false</activeaudioangle>
                    <clip id="clip-5"/>
                  </angle>
                  <angle>
                    <activevideoangle>false</activevideoangle>
                    <activeaudioangle>false</activeaudioangle>
                    <clip id="clip-6"/>
                  </angle>
                  <angle>
                    <activevideoangle>false</activevideoangle>
                    <activeaudioangle>false</activeaudioangle>
                    <clip id="clip-7"/>
                  </angle>
                  <angle>
                    <activevideoangle>false</activevideoangle>
                    <activeaudioangle>false</activeaudioangle>
                    <clip id="clip-8"/>
                  </angle>
                  <angle>
                    <activevideoangle>false</activevideoangle>
                    <activeaudioangle>false</activeaudioangle>
                    <clip id="clip-9"/>
                  </angle>
                  <masterclipid>clip-master</masterclipid>
                </multiclip>
              </clipitem>
              <clipitem id="cs-950">
                <duration>86</duration>
                <rate>
                  <ntsc>false</ntsc>
                  <timebase>25</timebase>
                </rate>
                <in>79751</in>
                <out>79836</out>
                <start>79751</start>
                <end>79836</end>
                <file id="src-3"/>
                <sourcetrack>
                  <mediatype>video</mediatype>
                  <trackindex>1</trackindex>
                </sourcetrack>
                <multiclip id="mcs-950">
                  <name>MCS-950</name>
                  <masterclipid>clip-master</masterclipid>
                  <collapsed>false</collapsed>
                  <angle>
                    <activevideoangle>false</activevideoangle>
                    <activeaudioangle>false</activeaudioangle>
                    <clip id="clip-1"/>
                  </angle>
                  <angle>
                    <activevideoangle>false</activevideoangle>
                    <activeaudioangle>false</activeaudioangle>
                    <clip id="clip-2"/>
                  </angle>
                  <angle>
                    <activevideoangle>true</activevideoangle>
                    <activeaudioangle>true</activeaudioangle>
                    <clip id="clip-3"/>
                  </angle>
                  <angle>
                    <activevideoangle>false</activevideoangle>
                    <activeaudioangle>false</activeaudioangle>
                    <clip id="clip-4"/>
                  </angle>
                  <angle>
                    <activevideoangle>false</activevideoangle>
                    <activeaudioangle>false</activeaudioangle>
                    <clip id="clip-5"/>
                  </angle>
                  <angle>
                    <activevideoangle>false</activevideoangle>
                    <activeaudioangle>false</activeaudioangle>
                    <clip id="clip-6"/>
                  </angle>
                  <angle>
                    <activevideoangle>false</activevideoangle>
                    <activeaudioangle>false</activeaudioangle>
                    <clip id="clip-7"/>
                  </angle>
                  <angle>
                    <activevideoangle>false</activevideoangle>
                    <activeaudioangle>false</activeaudioangle>
                    <clip id="clip-8"/>
                  </angle>
                  <angle>
                    <activevideoangle>false</activevideoangle>
                    <activeaudioangle>false</activeaudioangle>
                    <clip id="clip-9"/>
                  </angle>
                  <masterclipid>clip-master</masterclipid>
                </multiclip>
              </clipitem>
              <clipitem id="cs-951">
                <duration>156</duration>
                <rate>
                  <ntsc>false</ntsc>
                  <timebase>25</timebase>
                </rate>
                <in>79836</in>
                <out>79991</out>
                <start>79836</start>
                <end>79991</end>
                <file id="src-1"/>
                <sourcetrack>
                  <mediatype>video</mediatype>
                  <trackindex>1</trackindex>
                </sourcetrack>
                <multiclip id="mcs-951">
                  <name>MCS-951</name>
                  <masterclipid>clip-master</masterclipid>
                  <collapsed>false</collapsed>
                  <angle>
                    <activevideoangle>true</activevideoangle>
                    <activeaudioangle>true</activeaudioangle>
                    <clip id="clip-1"/>
                  </angle>
                  <angle>
                    <activevideoangle>false</activevideoangle>
                    <activeaudioangle>false</activeaudioangle>
                    <clip id="clip-2"/>
                  </angle>
                  <angle>
                    <activevideoangle>false</activevideoangle>
                    <activeaudioangle>false</activeaudioangle>
                    <clip id="clip-3"/>
                  </angle>
                  <angle>
                    <activevideoangle>false</activevideoangle>
                    <activeaudioangle>false</activeaudioangle>
                    <clip id="clip-4"/>
                  </angle>
                  <angle>
                    <activevideoangle>false</activevideoangle>
                    <activeaudioangle>false</activeaudioangle>
                    <clip id="clip-5"/>
                  </angle>
                  <angle>
                    <activevideoangle>false</activevideoangle>
                    <activeaudioangle>false</activeaudioangle>
                    <clip id="clip-6"/>
                  </angle>
                  <angle>
                    <activevideoangle>false</activevideoangle>
                    <activeaudioangle>false</activeaudioangle>
                    <clip id="clip-7"/>
                  </angle>
                  <angle>
                    <activevideoangle>false</activevideoangle>
                    <activeaudioangle>false</activeaudioangle>
                    <clip id="clip-8"/>
                  </angle>
                  <angle>
                    <activevideoangle>false</activevideoangle>
                    <activeaudioangle>false</activeaudioangle>
                    <clip id="clip-9"/>
                  </angle>
                  <masterclipid>clip-master</masterclipid>
                </multiclip>
              </clipitem>
              <clipitem id="cs-952">
                <duration>63</duration>
                <rate>
                  <ntsc>false</ntsc>
                  <timebase>25</timebase>
                </rate>
                <in>79991</in>
                <out>80053</out>
                <start>79991</start>
                <end>80053</end>
                <file id="src-2"/>
                <sourcetrack>
                  <mediatype>video</mediatype>
                  <trackindex>1</trackindex>
                </sourcetrack>
                <multiclip id="mcs-952">
                  <name>MCS-952</name>
                  <masterclipid>clip-master</masterclipid>
                  <collapsed>false</collapsed>
                  <angle>
                    <activevideoangle>false</activevideoangle>
                    <activeaudioangle>false</activeaudioangle>
                    <clip id="clip-1"/>
                  </angle>
                  <angle>
                    <activevideoangle>true</activevideoangle>
                    <activeaudioangle>true</activeaudioangle>
                    <clip id="clip-2"/>
                  </angle>
                  <angle>
                    <activevideoangle>false</activevideoangle>
                    <activeaudioangle>false</activeaudioangle>
                    <clip id="clip-3"/>
                  </angle>
                  <angle>
                    <activevideoangle>false</activevideoangle>
                    <activeaudioangle>false</activeaudioangle>
                    <clip id="clip-4"/>
                  </angle>
                  <angle>
                    <activevideoangle>false</activevideoangle>
                    <activeaudioangle>false</activeaudioangle>
                    <clip id="clip-5"/>
                  </angle>
                  <angle>
                    <activevideoangle>false</activevideoangle>
                    <activeaudioangle>false</activeaudioangle>
                    <clip id="clip-6"/>
                  </angle>
                  <angle>
                    <activevideoangle>false</activevideoangle>
                    <activeaudioangle>false</activeaudioangle>
                    <clip id="clip-7"/>
                  </angle>
                  <angle>
                    <activevideoangle>false</activevideoangle>
                    <activeaudioangle>false</activeaudioangle>
                    <clip id="clip-8"/>
                  </angle>
                  <angle>
                    <activevideoangle>false</activevideoangle>
                    <activeaudioangle>false</activeaudioangle>
                    <clip id="clip-9"/>
                  </angle>
                  <masterclipid>clip-master</masterclipid>
                </multiclip>
              </clipitem>
              <clipitem id="cs-953">
                <duration>105</duration>
                <rate>
                  <ntsc>false</ntsc>
                  <timebase>25</timebase>
                </rate>
                <in>80053</in>
                <out>80157</out>
                <start>80053</start>
                <end>80157</end>
                <file id="src-4"/>
                <sourcetrack>
                  <mediatype>video</mediatype>
                  <trackindex>1</trackindex>
                </sourcetrack>
                <multiclip id="mcs-953">
                  <name>MCS-953</name>
                  <masterclipid>clip-master</masterclipid>
                  <collapsed>false</collapsed>
                  <angle>
                    <activevideoangle>false</activevideoangle>
                    <activeaudioangle>false</activeaudioangle>
                    <clip id="clip-1"/>
                  </angle>
                  <angle>
                    <activevideoangle>false</activevideoangle>
                    <activeaudioangle>false</activeaudioangle>
                    <clip id="clip-2"/>
                  </angle>
                  <angle>
                    <activevideoangle>false</activevideoangle>
                    <activeaudioangle>false</activeaudioangle>
                    <clip id="clip-3"/>
                  </angle>
                  <angle>
                    <activevideoangle>true</activevideoangle>
                    <activeaudioangle>true</activeaudioangle>
                    <clip id="clip-4"/>
                  </angle>
                  <angle>
                    <activevideoangle>false</activevideoangle>
                    <activeaudioangle>false</activeaudioangle>
                    <clip id="clip-5"/>
                  </angle>
                  <angle>
                    <activevideoangle>false</activevideoangle>
                    <activeaudioangle>false</activeaudioangle>
                    <clip id="clip-6"/>
                  </angle>
                  <angle>
                    <activevideoangle>false</activevideoangle>
                    <activeaudioangle>false</activeaudioangle>
                    <clip id="clip-7"/>
                  </angle>
                  <angle>
                    <activevideoangle>false</activevideoangle>
                    <activeaudioangle>false</activeaudioangle>
                    <clip id="clip-8"/>
                  </angle>
                  <angle>
                    <activevideoangle>false</activevideoangle>
                    <activeaudioangle>false</activeaudioangle>
                    <clip id="clip-9"/>
                  </angle>
                  <masterclipid>clip-master</masterclipid>
                </multiclip>
              </clipitem>
              <clipitem id="cs-954">
                <duration>68</duration>
                <rate>
                  <ntsc>false</ntsc>
                  <timebase>25</timebase>
                </rate>
                <in>80157</in>
                <out>80224</out>
                <start>80157</start>
                <end>80224</end>
                <file id="src-5"/>
                <sourcetrack>
                  <mediatype>video</mediatype>
                  <trackindex>1</trackindex>
                </sourcetrack>
                <multiclip id="mcs-954">
                  <name>MCS-954</name>
                  <masterclipid>clip-master</masterclipid>
                  <collapsed>false</collapsed>
                  <angle>
                    <activevideoangle>false</activevideoangle>
                    <activeaudioangle>false</activeaudioangle>
                    <clip id="clip-1"/>
                  </angle>
                  <angle>
                    <activevideoangle>false</activevideoangle>
                    <activeaudioangle>false</activeaudioangle>
                    <clip id="clip-2"/>
                  </angle>
                  <angle>
                    <activevideoangle>false</activevideoangle>
                    <activeaudioangle>false</activeaudioangle>
                    <clip id="clip-3"/>
                  </angle>
                  <angle>
                    <activevideoangle>false</activevideoangle>
                    <activeaudioangle>false</activeaudioangle>
                    <clip id="clip-4"/>
                  </angle>
                  <angle>
                    <activevideoangle>true</activevideoangle>
                    <activeaudioangle>true</activeaudioangle>
                    <clip id="clip-5"/>
                  </angle>
                  <angle>
                    <activevideoangle>false</activevideoangle>
                    <activeaudioangle>false</activeaudioangle>
                    <clip id="clip-6"/>
                  </angle>
                  <angle>
                    <activevideoangle>false</activevideoangle>
                    <activeaudioangle>false</activeaudioangle>
                    <clip id="clip-7"/>
                  </angle>
                  <angle>
                    <activevideoangle>false</activevideoangle>
                    <activeaudioangle>false</activeaudioangle>
                    <clip id="clip-8"/>
                  </angle>
                  <angle>
                    <activevideoangle>false</activevideoangle>
                    <activeaudioangle>false</activeaudioangle>
                    <clip id="clip-9"/>
                  </angle>
                  <masterclipid>clip-master</masterclipid>
                </multiclip>
              </clipitem>
              <clipitem id="cs-955">
                <duration>135</duration>
                <rate>
                  <ntsc>false</ntsc>
                  <timebase>25</timebase>
                </rate>
                <in>80224</in>
                <out>80358</out>
                <start>80224</start>
                <end>80358</end>
                <file id="src-3"/>
                <sourcetrack>
                  <mediatype>video</mediatype>
                  <trackindex>1</trackindex>
                </sourcetrack>
                <multiclip id="mcs-955">
                  <name>MCS-955</name>
                  <masterclipid>clip-master</masterclipid>
                  <collapsed>false</collapsed>
                  <angle>
                    <activevideoangle>false</activevideoangle>
                    <activeaudioangle>false</activeaudioangle>
                    <clip id="clip-1"/>
                  </angle>
                  <angle>
                    <activevideoangle>false</activevideoangle>
                    <activeaudioangle>false</activeaudioangle>
                    <clip id="clip-2"/>
                  </angle>
                  <angle>
                    <activevideoangle>true</activevideoangle>
                    <activeaudioangle>true</activeaudioangle>
                    <clip id="clip-3"/>
                  </angle>
                  <angle>
                    <activevideoangle>false</activevideoangle>
                    <activeaudioangle>false</activeaudioangle>
                    <clip id="clip-4"/>
                  </angle>
                  <angle>
                    <activevideoangle>false</activevideoangle>
                    <activeaudioangle>false</activeaudioangle>
                    <clip id="clip-5"/>
                  </angle>
                  <angle>
                    <activevideoangle>false</activevideoangle>
                    <activeaudioangle>false</activeaudioangle>
                    <clip id="clip-6"/>
                  </angle>
                  <angle>
                    <activevideoangle>false</activevideoangle>
                    <activeaudioangle>false</activeaudioangle>
                    <clip id="clip-7"/>
                  </angle>
                  <angle>
                    <activevideoangle>false</activevideoangle>
                    <activeaudioangle>false</activeaudioangle>
                    <clip id="clip-8"/>
                  </angle>
                  <angle>
                    <activevideoangle>false</activevideoangle>
                    <activeaudioangle>false</activeaudioangle>
                    <clip id="clip-9"/>
                  </angle>
                  <masterclipid>clip-master</masterclipid>
                </multiclip>
              </clipitem>
              <clipitem id="cs-956">
                <duration>74</duration>
                <rate>
                  <ntsc>false</ntsc>
                  <timebase>25</timebase>
                </rate>
                <in>80358</in>
                <out>80431</out>
                <start>80358</start>
                <end>80431</end>
                <file id="src-6"/>
                <sourcetrack>
                  <mediatype>video</mediatype>
                  <trackindex>1</trackindex>
                </sourcetrack>
                <multiclip id="mcs-956">
                  <name>MCS-956</name>
                  <masterclipid>clip-master</masterclipid>
                  <collapsed>false</collapsed>
                  <angle>
                    <activevideoangle>false</activevideoangle>
                    <activeaudioangle>false</activeaudioangle>
                    <clip id="clip-1"/>
                  </angle>
                  <angle>
                    <activevideoangle>false</activevideoangle>
                    <activeaudioangle>false</activeaudioangle>
                    <clip id="clip-2"/>
                  </angle>
                  <angle>
                    <activevideoangle>false</activevideoangle>
                    <activeaudioangle>false</activeaudioangle>
                    <clip id="clip-3"/>
                  </angle>
                  <angle>
                    <activevideoangle>false</activevideoangle>
                    <activeaudioangle>false</activeaudioangle>
                    <clip id="clip-4"/>
                  </angle>
                  <angle>
                    <activevideoangle>false</activevideoangle>
                    <activeaudioangle>false</activeaudioangle>
                    <clip id="clip-5"/>
                  </angle>
                  <angle>
                    <activevideoangle>true</activevideoangle>
                    <activeaudioangle>true</activeaudioangle>
                    <clip id="clip-6"/>
                  </angle>
                  <angle>
                    <activevideoangle>false</activevideoangle>
                    <activeaudioangle>false</activeaudioangle>
                    <clip id="clip-7"/>
                  </angle>
                  <angle>
                    <activevideoangle>false</activevideoangle>
                    <activeaudioangle>false</activeaudioangle>
                    <clip id="clip-8"/>
                  </angle>
                  <angle>
                    <activevideoangle>false</activevideoangle>
                    <activeaudioangle>false</activeaudioangle>
                    <clip id="clip-9"/>
                  </angle>
                  <masterclipid>clip-master</masterclipid>
                </multiclip>
              </clipitem>
              <clipitem id="cs-957">
                <duration>168</duration>
                <rate>
                  <ntsc>false</ntsc>
                  <timebase>25</timebase>
                </rate>
                <in>80431</in>
                <out>80598</out>
                <start>80431</start>
                <end>80598</end>
                <file id="src-1"/>
                <sourcetrack>
                  <mediatype>video</mediatype>
                  <trackindex>1</trackindex>
                </sourcetrack>
                <multiclip id="mcs-957">
                  <name>MCS-957</name>
                  <masterclipid>clip-master</masterclipid>
                  <collapsed>false</collapsed>
                  <angle>
                    <activevideoangle>true</activevideoangle>
                    <activeaudioangle>true</activeaudioangle>
                    <clip id="clip-1"/>
                  </angle>
                  <angle>
                    <activevideoangle>false</activevideoangle>
                    <activeaudioangle>false</activeaudioangle>
                    <clip id="clip-2"/>
                  </angle>
                  <angle>
                    <activevideoangle>false</activevideoangle>
                    <activeaudioangle>false</activeaudioangle>
                    <clip id="clip-3"/>
                  </angle>
                  <angle>
                    <activevideoangle>false</activevideoangle>
                    <activeaudioangle>false</activeaudioangle>
                    <clip id="clip-4"/>
                  </angle>
                  <angle>
                    <activevideoangle>false</activevideoangle>
                    <activeaudioangle>false</activeaudioangle>
                    <clip id="clip-5"/>
                  </angle>
                  <angle>
                    <activevideoangle>false</activevideoangle>
                    <activeaudioangle>false</activeaudioangle>
                    <clip id="clip-6"/>
                  </angle>
                  <angle>
                    <activevideoangle>false</activevideoangle>
                    <activeaudioangle>false</activeaudioangle>
                    <clip id="clip-7"/>
                  </angle>
                  <angle>
                    <activevideoangle>false</activevideoangle>
                    <activeaudioangle>false</activeaudioangle>
                    <clip id="clip-8"/>
                  </angle>
                  <angle>
                    <activevideoangle>false</activevideoangle>
                    <activeaudioangle>false</activeaudioangle>
                    <clip id="clip-9"/>
                  </angle>
                  <masterclipid>clip-master</masterclipid>
                </multiclip>
              </clipitem>
              <clipitem id="cs-958">
                <duration>244</duration>
                <rate>
                  <ntsc>false</ntsc>
                  <timebase>25</timebase>
                </rate>
                <in>80598</in>
                <out>80841</out>
                <start>80598</start>
                <end>80841</end>
                <file id="src-4"/>
                <sourcetrack>
                  <mediatype>video</mediatype>
                  <trackindex>1</trackindex>
                </sourcetrack>
                <multiclip id="mcs-958">
                  <name>MCS-958</name>
                  <masterclipid>clip-master</masterclipid>
                  <collapsed>false</collapsed>
                  <angle>
                    <activevideoangle>false</activevideoangle>
                    <activeaudioangle>false</activeaudioangle>
                    <clip id="clip-1"/>
                  </angle>
                  <angle>
                    <activevideoangle>false</activevideoangle>
                    <activeaudioangle>false</activeaudioangle>
                    <clip id="clip-2"/>
                  </angle>
                  <angle>
                    <activevideoangle>false</activevideoangle>
                    <activeaudioangle>false</activeaudioangle>
                    <clip id="clip-3"/>
                  </angle>
                  <angle>
                    <activevideoangle>true</activevideoangle>
                    <activeaudioangle>true</activeaudioangle>
                    <clip id="clip-4"/>
                  </angle>
                  <angle>
                    <activevideoangle>false</activevideoangle>
                    <activeaudioangle>false</activeaudioangle>
                    <clip id="clip-5"/>
                  </angle>
                  <angle>
                    <activevideoangle>false</activevideoangle>
                    <activeaudioangle>false</activeaudioangle>
                    <clip id="clip-6"/>
                  </angle>
                  <angle>
                    <activevideoangle>false</activevideoangle>
                    <activeaudioangle>false</activeaudioangle>
                    <clip id="clip-7"/>
                  </angle>
                  <angle>
                    <activevideoangle>false</activevideoangle>
                    <activeaudioangle>false</activeaudioangle>
                    <clip id="clip-8"/>
                  </angle>
                  <angle>
                    <activevideoangle>false</activevideoangle>
                    <activeaudioangle>false</activeaudioangle>
                    <clip id="clip-9"/>
                  </angle>
                  <masterclipid>clip-master</masterclipid>
                </multiclip>
              </clipitem>
              <clipitem id="cs-959">
                <duration>112</duration>
                <rate>
                  <ntsc>false</ntsc>
                  <timebase>25</timebase>
                </rate>
                <in>80841</in>
                <out>80952</out>
                <start>80841</start>
                <end>80952</end>
                <file id="src-5"/>
                <sourcetrack>
                  <mediatype>video</mediatype>
                  <trackindex>1</trackindex>
                </sourcetrack>
                <multiclip id="mcs-959">
                  <name>MCS-959</name>
                  <masterclipid>clip-master</masterclipid>
                  <collapsed>false</collapsed>
                  <angle>
                    <activevideoangle>false</activevideoangle>
                    <activeaudioangle>false</activeaudioangle>
                    <clip id="clip-1"/>
                  </angle>
                  <angle>
                    <activevideoangle>false</activevideoangle>
                    <activeaudioangle>false</activeaudioangle>
                    <clip id="clip-2"/>
                  </angle>
                  <angle>
                    <activevideoangle>false</activevideoangle>
                    <activeaudioangle>false</activeaudioangle>
                    <clip id="clip-3"/>
                  </angle>
                  <angle>
                    <activevideoangle>false</activevideoangle>
                    <activeaudioangle>false</activeaudioangle>
                    <clip id="clip-4"/>
                  </angle>
                  <angle>
                    <activevideoangle>true</activevideoangle>
                    <activeaudioangle>true</activeaudioangle>
                    <clip id="clip-5"/>
                  </angle>
                  <angle>
                    <activevideoangle>false</activevideoangle>
                    <activeaudioangle>false</activeaudioangle>
                    <clip id="clip-6"/>
                  </angle>
                  <angle>
                    <activevideoangle>false</activevideoangle>
                    <activeaudioangle>false</activeaudioangle>
                    <clip id="clip-7"/>
                  </angle>
                  <angle>
                    <activevideoangle>false</activevideoangle>
                    <activeaudioangle>false</activeaudioangle>
                    <clip id="clip-8"/>
                  </angle>
                  <angle>
                    <activevideoangle>false</activevideoangle>
                    <activeaudioangle>false</activeaudioangle>
                    <clip id="clip-9"/>
                  </angle>
                  <masterclipid>clip-master</masterclipid>
                </multiclip>
              </clipitem>
              <clipitem id="cs-960">
                <duration>129</duration>
                <rate>
                  <ntsc>false</ntsc>
                  <timebase>25</timebase>
                </rate>
                <in>80952</in>
                <out>81080</out>
                <start>80952</start>
                <end>81080</end>
                <file id="src-3"/>
                <sourcetrack>
                  <mediatype>video</mediatype>
                  <trackindex>1</trackindex>
                </sourcetrack>
                <multiclip id="mcs-960">
                  <name>MCS-960</name>
                  <masterclipid>clip-master</masterclipid>
                  <collapsed>false</collapsed>
                  <angle>
                    <activevideoangle>false</activevideoangle>
                    <activeaudioangle>false</activeaudioangle>
                    <clip id="clip-1"/>
                  </angle>
                  <angle>
                    <activevideoangle>false</activevideoangle>
                    <activeaudioangle>false</activeaudioangle>
                    <clip id="clip-2"/>
                  </angle>
                  <angle>
                    <activevideoangle>true</activevideoangle>
                    <activeaudioangle>true</activeaudioangle>
                    <clip id="clip-3"/>
                  </angle>
                  <angle>
                    <activevideoangle>false</activevideoangle>
                    <activeaudioangle>false</activeaudioangle>
                    <clip id="clip-4"/>
                  </angle>
                  <angle>
                    <activevideoangle>false</activevideoangle>
                    <activeaudioangle>false</activeaudioangle>
                    <clip id="clip-5"/>
                  </angle>
                  <angle>
                    <activevideoangle>false</activevideoangle>
                    <activeaudioangle>false</activeaudioangle>
                    <clip id="clip-6"/>
                  </angle>
                  <angle>
                    <activevideoangle>false</activevideoangle>
                    <activeaudioangle>false</activeaudioangle>
                    <clip id="clip-7"/>
                  </angle>
                  <angle>
                    <activevideoangle>false</activevideoangle>
                    <activeaudioangle>false</activeaudioangle>
                    <clip id="clip-8"/>
                  </angle>
                  <angle>
                    <activevideoangle>false</activevideoangle>
                    <activeaudioangle>false</activeaudioangle>
                    <clip id="clip-9"/>
                  </angle>
                  <masterclipid>clip-master</masterclipid>
                </multiclip>
              </clipitem>
              <clipitem id="cs-961">
                <duration>260</duration>
                <rate>
                  <ntsc>false</ntsc>
                  <timebase>25</timebase>
                </rate>
                <in>81080</in>
                <out>81339</out>
                <start>81080</start>
                <end>81339</end>
                <file id="src-4"/>
                <sourcetrack>
                  <mediatype>video</mediatype>
                  <trackindex>1</trackindex>
                </sourcetrack>
                <multiclip id="mcs-961">
                  <name>MCS-961</name>
                  <masterclipid>clip-master</masterclipid>
                  <collapsed>false</collapsed>
                  <angle>
                    <activevideoangle>false</activevideoangle>
                    <activeaudioangle>false</activeaudioangle>
                    <clip id="clip-1"/>
                  </angle>
                  <angle>
                    <activevideoangle>false</activevideoangle>
                    <activeaudioangle>false</activeaudioangle>
                    <clip id="clip-2"/>
                  </angle>
                  <angle>
                    <activevideoangle>false</activevideoangle>
                    <activeaudioangle>false</activeaudioangle>
                    <clip id="clip-3"/>
                  </angle>
                  <angle>
                    <activevideoangle>true</activevideoangle>
                    <activeaudioangle>true</activeaudioangle>
                    <clip id="clip-4"/>
                  </angle>
                  <angle>
                    <activevideoangle>false</activevideoangle>
                    <activeaudioangle>false</activeaudioangle>
                    <clip id="clip-5"/>
                  </angle>
                  <angle>
                    <activevideoangle>false</activevideoangle>
                    <activeaudioangle>false</activeaudioangle>
                    <clip id="clip-6"/>
                  </angle>
                  <angle>
                    <activevideoangle>false</activevideoangle>
                    <activeaudioangle>false</activeaudioangle>
                    <clip id="clip-7"/>
                  </angle>
                  <angle>
                    <activevideoangle>false</activevideoangle>
                    <activeaudioangle>false</activeaudioangle>
                    <clip id="clip-8"/>
                  </angle>
                  <angle>
                    <activevideoangle>false</activevideoangle>
                    <activeaudioangle>false</activeaudioangle>
                    <clip id="clip-9"/>
                  </angle>
                  <masterclipid>clip-master</masterclipid>
                </multiclip>
              </clipitem>
              <clipitem id="cs-962">
                <duration>182</duration>
                <rate>
                  <ntsc>false</ntsc>
                  <timebase>25</timebase>
                </rate>
                <in>81339</in>
                <out>81520</out>
                <start>81339</start>
                <end>81520</end>
                <file id="src-5"/>
                <sourcetrack>
                  <mediatype>video</mediatype>
                  <trackindex>1</trackindex>
                </sourcetrack>
                <multiclip id="mcs-962">
                  <name>MCS-962</name>
                  <masterclipid>clip-master</masterclipid>
                  <collapsed>false</collapsed>
                  <angle>
                    <activevideoangle>false</activevideoangle>
                    <activeaudioangle>false</activeaudioangle>
                    <clip id="clip-1"/>
                  </angle>
                  <angle>
                    <activevideoangle>false</activevideoangle>
                    <activeaudioangle>false</activeaudioangle>
                    <clip id="clip-2"/>
                  </angle>
                  <angle>
                    <activevideoangle>false</activevideoangle>
                    <activeaudioangle>false</activeaudioangle>
                    <clip id="clip-3"/>
                  </angle>
                  <angle>
                    <activevideoangle>false</activevideoangle>
                    <activeaudioangle>false</activeaudioangle>
                    <clip id="clip-4"/>
                  </angle>
                  <angle>
                    <activevideoangle>true</activevideoangle>
                    <activeaudioangle>true</activeaudioangle>
                    <clip id="clip-5"/>
                  </angle>
                  <angle>
                    <activevideoangle>false</activevideoangle>
                    <activeaudioangle>false</activeaudioangle>
                    <clip id="clip-6"/>
                  </angle>
                  <angle>
                    <activevideoangle>false</activevideoangle>
                    <activeaudioangle>false</activeaudioangle>
                    <clip id="clip-7"/>
                  </angle>
                  <angle>
                    <activevideoangle>false</activevideoangle>
                    <activeaudioangle>false</activeaudioangle>
                    <clip id="clip-8"/>
                  </angle>
                  <angle>
                    <activevideoangle>false</activevideoangle>
                    <activeaudioangle>false</activeaudioangle>
                    <clip id="clip-9"/>
                  </angle>
                  <masterclipid>clip-master</masterclipid>
                </multiclip>
              </clipitem>
              <clipitem id="cs-963">
                <duration>185</duration>
                <rate>
                  <ntsc>false</ntsc>
                  <timebase>25</timebase>
                </rate>
                <in>81520</in>
                <out>81704</out>
                <start>81520</start>
                <end>81704</end>
                <file id="src-6"/>
                <sourcetrack>
                  <mediatype>video</mediatype>
                  <trackindex>1</trackindex>
                </sourcetrack>
                <multiclip id="mcs-963">
                  <name>MCS-963</name>
                  <masterclipid>clip-master</masterclipid>
                  <collapsed>false</collapsed>
                  <angle>
                    <activevideoangle>false</activevideoangle>
                    <activeaudioangle>false</activeaudioangle>
                    <clip id="clip-1"/>
                  </angle>
                  <angle>
                    <activevideoangle>false</activevideoangle>
                    <activeaudioangle>false</activeaudioangle>
                    <clip id="clip-2"/>
                  </angle>
                  <angle>
                    <activevideoangle>false</activevideoangle>
                    <activeaudioangle>false</activeaudioangle>
                    <clip id="clip-3"/>
                  </angle>
                  <angle>
                    <activevideoangle>false</activevideoangle>
                    <activeaudioangle>false</activeaudioangle>
                    <clip id="clip-4"/>
                  </angle>
                  <angle>
                    <activevideoangle>false</activevideoangle>
                    <activeaudioangle>false</activeaudioangle>
                    <clip id="clip-5"/>
                  </angle>
                  <angle>
                    <activevideoangle>true</activevideoangle>
                    <activeaudioangle>true</activeaudioangle>
                    <clip id="clip-6"/>
                  </angle>
                  <angle>
                    <activevideoangle>false</activevideoangle>
                    <activeaudioangle>false</activeaudioangle>
                    <clip id="clip-7"/>
                  </angle>
                  <angle>
                    <activevideoangle>false</activevideoangle>
                    <activeaudioangle>false</activeaudioangle>
                    <clip id="clip-8"/>
                  </angle>
                  <angle>
                    <activevideoangle>false</activevideoangle>
                    <activeaudioangle>false</activeaudioangle>
                    <clip id="clip-9"/>
                  </angle>
                  <masterclipid>clip-master</masterclipid>
                </multiclip>
              </clipitem>
              <clipitem id="cs-964">
                <duration>94</duration>
                <rate>
                  <ntsc>false</ntsc>
                  <timebase>25</timebase>
                </rate>
                <in>81704</in>
                <out>81797</out>
                <start>81704</start>
                <end>81797</end>
                <file id="src-8"/>
                <sourcetrack>
                  <mediatype>video</mediatype>
                  <trackindex>1</trackindex>
                </sourcetrack>
                <multiclip id="mcs-964">
                  <name>MCS-964</name>
                  <masterclipid>clip-master</masterclipid>
                  <collapsed>false</collapsed>
                  <angle>
                    <activevideoangle>false</activevideoangle>
                    <activeaudioangle>false</activeaudioangle>
                    <clip id="clip-1"/>
                  </angle>
                  <angle>
                    <activevideoangle>false</activevideoangle>
                    <activeaudioangle>false</activeaudioangle>
                    <clip id="clip-2"/>
                  </angle>
                  <angle>
                    <activevideoangle>false</activevideoangle>
                    <activeaudioangle>false</activeaudioangle>
                    <clip id="clip-3"/>
                  </angle>
                  <angle>
                    <activevideoangle>false</activevideoangle>
                    <activeaudioangle>false</activeaudioangle>
                    <clip id="clip-4"/>
                  </angle>
                  <angle>
                    <activevideoangle>false</activevideoangle>
                    <activeaudioangle>false</activeaudioangle>
                    <clip id="clip-5"/>
                  </angle>
                  <angle>
                    <activevideoangle>false</activevideoangle>
                    <activeaudioangle>false</activeaudioangle>
                    <clip id="clip-6"/>
                  </angle>
                  <angle>
                    <activevideoangle>false</activevideoangle>
                    <activeaudioangle>false</activeaudioangle>
                    <clip id="clip-7"/>
                  </angle>
                  <angle>
                    <activevideoangle>true</activevideoangle>
                    <activeaudioangle>true</activeaudioangle>
                    <clip id="clip-8"/>
                  </angle>
                  <angle>
                    <activevideoangle>false</activevideoangle>
                    <activeaudioangle>false</activeaudioangle>
                    <clip id="clip-9"/>
                  </angle>
                  <masterclipid>clip-master</masterclipid>
                </multiclip>
              </clipitem>
              <clipitem id="cs-965">
                <duration>78</duration>
                <rate>
                  <ntsc>false</ntsc>
                  <timebase>25</timebase>
                </rate>
                <in>81797</in>
                <out>81874</out>
                <start>81797</start>
                <end>81874</end>
                <file id="src-4"/>
                <sourcetrack>
                  <mediatype>video</mediatype>
                  <trackindex>1</trackindex>
                </sourcetrack>
                <multiclip id="mcs-965">
                  <name>MCS-965</name>
                  <masterclipid>clip-master</masterclipid>
                  <collapsed>false</collapsed>
                  <angle>
                    <activevideoangle>false</activevideoangle>
                    <activeaudioangle>false</activeaudioangle>
                    <clip id="clip-1"/>
                  </angle>
                  <angle>
                    <activevideoangle>false</activevideoangle>
                    <activeaudioangle>false</activeaudioangle>
                    <clip id="clip-2"/>
                  </angle>
                  <angle>
                    <activevideoangle>false</activevideoangle>
                    <activeaudioangle>false</activeaudioangle>
                    <clip id="clip-3"/>
                  </angle>
                  <angle>
                    <activevideoangle>true</activevideoangle>
                    <activeaudioangle>true</activeaudioangle>
                    <clip id="clip-4"/>
                  </angle>
                  <angle>
                    <activevideoangle>false</activevideoangle>
                    <activeaudioangle>false</activeaudioangle>
                    <clip id="clip-5"/>
                  </angle>
                  <angle>
                    <activevideoangle>false</activevideoangle>
                    <activeaudioangle>false</activeaudioangle>
                    <clip id="clip-6"/>
                  </angle>
                  <angle>
                    <activevideoangle>false</activevideoangle>
                    <activeaudioangle>false</activeaudioangle>
                    <clip id="clip-7"/>
                  </angle>
                  <angle>
                    <activevideoangle>false</activevideoangle>
                    <activeaudioangle>false</activeaudioangle>
                    <clip id="clip-8"/>
                  </angle>
                  <angle>
                    <activevideoangle>false</activevideoangle>
                    <activeaudioangle>false</activeaudioangle>
                    <clip id="clip-9"/>
                  </angle>
                  <masterclipid>clip-master</masterclipid>
                </multiclip>
              </clipitem>
              <clipitem id="cs-966">
                <duration>62</duration>
                <rate>
                  <ntsc>false</ntsc>
                  <timebase>25</timebase>
                </rate>
                <in>81874</in>
                <out>81935</out>
                <start>81874</start>
                <end>81935</end>
                <file id="src-3"/>
                <sourcetrack>
                  <mediatype>video</mediatype>
                  <trackindex>1</trackindex>
                </sourcetrack>
                <multiclip id="mcs-966">
                  <name>MCS-966</name>
                  <masterclipid>clip-master</masterclipid>
                  <collapsed>false</collapsed>
                  <angle>
                    <activevideoangle>false</activevideoangle>
                    <activeaudioangle>false</activeaudioangle>
                    <clip id="clip-1"/>
                  </angle>
                  <angle>
                    <activevideoangle>false</activevideoangle>
                    <activeaudioangle>false</activeaudioangle>
                    <clip id="clip-2"/>
                  </angle>
                  <angle>
                    <activevideoangle>true</activevideoangle>
                    <activeaudioangle>true</activeaudioangle>
                    <clip id="clip-3"/>
                  </angle>
                  <angle>
                    <activevideoangle>false</activevideoangle>
                    <activeaudioangle>false</activeaudioangle>
                    <clip id="clip-4"/>
                  </angle>
                  <angle>
                    <activevideoangle>false</activevideoangle>
                    <activeaudioangle>false</activeaudioangle>
                    <clip id="clip-5"/>
                  </angle>
                  <angle>
                    <activevideoangle>false</activevideoangle>
                    <activeaudioangle>false</activeaudioangle>
                    <clip id="clip-6"/>
                  </angle>
                  <angle>
                    <activevideoangle>false</activevideoangle>
                    <activeaudioangle>false</activeaudioangle>
                    <clip id="clip-7"/>
                  </angle>
                  <angle>
                    <activevideoangle>false</activevideoangle>
                    <activeaudioangle>false</activeaudioangle>
                    <clip id="clip-8"/>
                  </angle>
                  <angle>
                    <activevideoangle>false</activevideoangle>
                    <activeaudioangle>false</activeaudioangle>
                    <clip id="clip-9"/>
                  </angle>
                  <masterclipid>clip-master</masterclipid>
                </multiclip>
              </clipitem>
              <clipitem id="cs-967">
                <duration>71</duration>
                <rate>
                  <ntsc>false</ntsc>
                  <timebase>25</timebase>
                </rate>
                <in>81935</in>
                <out>82005</out>
                <start>81935</start>
                <end>82005</end>
                <file id="src-5"/>
                <sourcetrack>
                  <mediatype>video</mediatype>
                  <trackindex>1</trackindex>
                </sourcetrack>
                <multiclip id="mcs-967">
                  <name>MCS-967</name>
                  <masterclipid>clip-master</masterclipid>
                  <collapsed>false</collapsed>
                  <angle>
                    <activevideoangle>false</activevideoangle>
                    <activeaudioangle>false</activeaudioangle>
                    <clip id="clip-1"/>
                  </angle>
                  <angle>
                    <activevideoangle>false</activevideoangle>
                    <activeaudioangle>false</activeaudioangle>
                    <clip id="clip-2"/>
                  </angle>
                  <angle>
                    <activevideoangle>false</activevideoangle>
                    <activeaudioangle>false</activeaudioangle>
                    <clip id="clip-3"/>
                  </angle>
                  <angle>
                    <activevideoangle>false</activevideoangle>
                    <activeaudioangle>false</activeaudioangle>
                    <clip id="clip-4"/>
                  </angle>
                  <angle>
                    <activevideoangle>true</activevideoangle>
                    <activeaudioangle>true</activeaudioangle>
                    <clip id="clip-5"/>
                  </angle>
                  <angle>
                    <activevideoangle>false</activevideoangle>
                    <activeaudioangle>false</activeaudioangle>
                    <clip id="clip-6"/>
                  </angle>
                  <angle>
                    <activevideoangle>false</activevideoangle>
                    <activeaudioangle>false</activeaudioangle>
                    <clip id="clip-7"/>
                  </angle>
                  <angle>
                    <activevideoangle>false</activevideoangle>
                    <activeaudioangle>false</activeaudioangle>
                    <clip id="clip-8"/>
                  </angle>
                  <angle>
                    <activevideoangle>false</activevideoangle>
                    <activeaudioangle>false</activeaudioangle>
                    <clip id="clip-9"/>
                  </angle>
                  <masterclipid>clip-master</masterclipid>
                </multiclip>
              </clipitem>
              <clipitem id="cs-968">
                <duration>69</duration>
                <rate>
                  <ntsc>false</ntsc>
                  <timebase>25</timebase>
                </rate>
                <in>82005</in>
                <out>82073</out>
                <start>82005</start>
                <end>82073</end>
                <file id="src-2"/>
                <sourcetrack>
                  <mediatype>video</mediatype>
                  <trackindex>1</trackindex>
                </sourcetrack>
                <multiclip id="mcs-968">
                  <name>MCS-968</name>
                  <masterclipid>clip-master</masterclipid>
                  <collapsed>false</collapsed>
                  <angle>
                    <activevideoangle>false</activevideoangle>
                    <activeaudioangle>false</activeaudioangle>
                    <clip id="clip-1"/>
                  </angle>
                  <angle>
                    <activevideoangle>true</activevideoangle>
                    <activeaudioangle>true</activeaudioangle>
                    <clip id="clip-2"/>
                  </angle>
                  <angle>
                    <activevideoangle>false</activevideoangle>
                    <activeaudioangle>false</activeaudioangle>
                    <clip id="clip-3"/>
                  </angle>
                  <angle>
                    <activevideoangle>false</activevideoangle>
                    <activeaudioangle>false</activeaudioangle>
                    <clip id="clip-4"/>
                  </angle>
                  <angle>
                    <activevideoangle>false</activevideoangle>
                    <activeaudioangle>false</activeaudioangle>
                    <clip id="clip-5"/>
                  </angle>
                  <angle>
                    <activevideoangle>false</activevideoangle>
                    <activeaudioangle>false</activeaudioangle>
                    <clip id="clip-6"/>
                  </angle>
                  <angle>
                    <activevideoangle>false</activevideoangle>
                    <activeaudioangle>false</activeaudioangle>
                    <clip id="clip-7"/>
                  </angle>
                  <angle>
                    <activevideoangle>false</activevideoangle>
                    <activeaudioangle>false</activeaudioangle>
                    <clip id="clip-8"/>
                  </angle>
                  <angle>
                    <activevideoangle>false</activevideoangle>
                    <activeaudioangle>false</activeaudioangle>
                    <clip id="clip-9"/>
                  </angle>
                  <masterclipid>clip-master</masterclipid>
                </multiclip>
              </clipitem>
              <clipitem id="cs-969">
                <duration>62</duration>
                <rate>
                  <ntsc>false</ntsc>
                  <timebase>25</timebase>
                </rate>
                <in>82073</in>
                <out>82134</out>
                <start>82073</start>
                <end>82134</end>
                <file id="src-4"/>
                <sourcetrack>
                  <mediatype>video</mediatype>
                  <trackindex>1</trackindex>
                </sourcetrack>
                <multiclip id="mcs-969">
                  <name>MCS-969</name>
                  <masterclipid>clip-master</masterclipid>
                  <collapsed>false</collapsed>
                  <angle>
                    <activevideoangle>false</activevideoangle>
                    <activeaudioangle>false</activeaudioangle>
                    <clip id="clip-1"/>
                  </angle>
                  <angle>
                    <activevideoangle>false</activevideoangle>
                    <activeaudioangle>false</activeaudioangle>
                    <clip id="clip-2"/>
                  </angle>
                  <angle>
                    <activevideoangle>false</activevideoangle>
                    <activeaudioangle>false</activeaudioangle>
                    <clip id="clip-3"/>
                  </angle>
                  <angle>
                    <activevideoangle>true</activevideoangle>
                    <activeaudioangle>true</activeaudioangle>
                    <clip id="clip-4"/>
                  </angle>
                  <angle>
                    <activevideoangle>false</activevideoangle>
                    <activeaudioangle>false</activeaudioangle>
                    <clip id="clip-5"/>
                  </angle>
                  <angle>
                    <activevideoangle>false</activevideoangle>
                    <activeaudioangle>false</activeaudioangle>
                    <clip id="clip-6"/>
                  </angle>
                  <angle>
                    <activevideoangle>false</activevideoangle>
                    <activeaudioangle>false</activeaudioangle>
                    <clip id="clip-7"/>
                  </angle>
                  <angle>
                    <activevideoangle>false</activevideoangle>
                    <activeaudioangle>false</activeaudioangle>
                    <clip id="clip-8"/>
                  </angle>
                  <angle>
                    <activevideoangle>false</activevideoangle>
                    <activeaudioangle>false</activeaudioangle>
                    <clip id="clip-9"/>
                  </angle>
                  <masterclipid>clip-master</masterclipid>
                </multiclip>
              </clipitem>
              <clipitem id="cs-970">
                <duration>63</duration>
                <rate>
                  <ntsc>false</ntsc>
                  <timebase>25</timebase>
                </rate>
                <in>82134</in>
                <out>82196</out>
                <start>82134</start>
                <end>82196</end>
                <file id="src-7"/>
                <sourcetrack>
                  <mediatype>video</mediatype>
                  <trackindex>1</trackindex>
                </sourcetrack>
                <multiclip id="mcs-970">
                  <name>MCS-970</name>
                  <masterclipid>clip-master</masterclipid>
                  <collapsed>false</collapsed>
                  <angle>
                    <activevideoangle>false</activevideoangle>
                    <activeaudioangle>false</activeaudioangle>
                    <clip id="clip-1"/>
                  </angle>
                  <angle>
                    <activevideoangle>false</activevideoangle>
                    <activeaudioangle>false</activeaudioangle>
                    <clip id="clip-2"/>
                  </angle>
                  <angle>
                    <activevideoangle>false</activevideoangle>
                    <activeaudioangle>false</activeaudioangle>
                    <clip id="clip-3"/>
                  </angle>
                  <angle>
                    <activevideoangle>false</activevideoangle>
                    <activeaudioangle>false</activeaudioangle>
                    <clip id="clip-4"/>
                  </angle>
                  <angle>
                    <activevideoangle>false</activevideoangle>
                    <activeaudioangle>false</activeaudioangle>
                    <clip id="clip-5"/>
                  </angle>
                  <angle>
                    <activevideoangle>false</activevideoangle>
                    <activeaudioangle>false</activeaudioangle>
                    <clip id="clip-6"/>
                  </angle>
                  <angle>
                    <activevideoangle>true</activevideoangle>
                    <activeaudioangle>true</activeaudioangle>
                    <clip id="clip-7"/>
                  </angle>
                  <angle>
                    <activevideoangle>false</activevideoangle>
                    <activeaudioangle>false</activeaudioangle>
                    <clip id="clip-8"/>
                  </angle>
                  <angle>
                    <activevideoangle>false</activevideoangle>
                    <activeaudioangle>false</activeaudioangle>
                    <clip id="clip-9"/>
                  </angle>
                  <masterclipid>clip-master</masterclipid>
                </multiclip>
              </clipitem>
              <clipitem id="cs-971">
                <duration>68</duration>
                <rate>
                  <ntsc>false</ntsc>
                  <timebase>25</timebase>
                </rate>
                <in>82196</in>
                <out>82263</out>
                <start>82196</start>
                <end>82263</end>
                <file id="src-3"/>
                <sourcetrack>
                  <mediatype>video</mediatype>
                  <trackindex>1</trackindex>
                </sourcetrack>
                <multiclip id="mcs-971">
                  <name>MCS-971</name>
                  <masterclipid>clip-master</masterclipid>
                  <collapsed>false</collapsed>
                  <angle>
                    <activevideoangle>false</activevideoangle>
                    <activeaudioangle>false</activeaudioangle>
                    <clip id="clip-1"/>
                  </angle>
                  <angle>
                    <activevideoangle>false</activevideoangle>
                    <activeaudioangle>false</activeaudioangle>
                    <clip id="clip-2"/>
                  </angle>
                  <angle>
                    <activevideoangle>true</activevideoangle>
                    <activeaudioangle>true</activeaudioangle>
                    <clip id="clip-3"/>
                  </angle>
                  <angle>
                    <activevideoangle>false</activevideoangle>
                    <activeaudioangle>false</activeaudioangle>
                    <clip id="clip-4"/>
                  </angle>
                  <angle>
                    <activevideoangle>false</activevideoangle>
                    <activeaudioangle>false</activeaudioangle>
                    <clip id="clip-5"/>
                  </angle>
                  <angle>
                    <activevideoangle>false</activevideoangle>
                    <activeaudioangle>false</activeaudioangle>
                    <clip id="clip-6"/>
                  </angle>
                  <angle>
                    <activevideoangle>false</activevideoangle>
                    <activeaudioangle>false</activeaudioangle>
                    <clip id="clip-7"/>
                  </angle>
                  <angle>
                    <activevideoangle>false</activevideoangle>
                    <activeaudioangle>false</activeaudioangle>
                    <clip id="clip-8"/>
                  </angle>
                  <angle>
                    <activevideoangle>false</activevideoangle>
                    <activeaudioangle>false</activeaudioangle>
                    <clip id="clip-9"/>
                  </angle>
                  <masterclipid>clip-master</masterclipid>
                </multiclip>
              </clipitem>
              <clipitem id="cs-972">
                <duration>37</duration>
                <rate>
                  <ntsc>false</ntsc>
                  <timebase>25</timebase>
                </rate>
                <in>82263</in>
                <out>82299</out>
                <start>82263</start>
                <end>82299</end>
                <file id="src-6"/>
                <sourcetrack>
                  <mediatype>video</mediatype>
                  <trackindex>1</trackindex>
                </sourcetrack>
                <multiclip id="mcs-972">
                  <name>MCS-972</name>
                  <masterclipid>clip-master</masterclipid>
                  <collapsed>false</collapsed>
                  <angle>
                    <activevideoangle>false</activevideoangle>
                    <activeaudioangle>false</activeaudioangle>
                    <clip id="clip-1"/>
                  </angle>
                  <angle>
                    <activevideoangle>false</activevideoangle>
                    <activeaudioangle>false</activeaudioangle>
                    <clip id="clip-2"/>
                  </angle>
                  <angle>
                    <activevideoangle>false</activevideoangle>
                    <activeaudioangle>false</activeaudioangle>
                    <clip id="clip-3"/>
                  </angle>
                  <angle>
                    <activevideoangle>false</activevideoangle>
                    <activeaudioangle>false</activeaudioangle>
                    <clip id="clip-4"/>
                  </angle>
                  <angle>
                    <activevideoangle>false</activevideoangle>
                    <activeaudioangle>false</activeaudioangle>
                    <clip id="clip-5"/>
                  </angle>
                  <angle>
                    <activevideoangle>true</activevideoangle>
                    <activeaudioangle>true</activeaudioangle>
                    <clip id="clip-6"/>
                  </angle>
                  <angle>
                    <activevideoangle>false</activevideoangle>
                    <activeaudioangle>false</activeaudioangle>
                    <clip id="clip-7"/>
                  </angle>
                  <angle>
                    <activevideoangle>false</activevideoangle>
                    <activeaudioangle>false</activeaudioangle>
                    <clip id="clip-8"/>
                  </angle>
                  <angle>
                    <activevideoangle>false</activevideoangle>
                    <activeaudioangle>false</activeaudioangle>
                    <clip id="clip-9"/>
                  </angle>
                  <masterclipid>clip-master</masterclipid>
                </multiclip>
              </clipitem>
              <clipitem id="cs-973">
                <duration>54</duration>
                <rate>
                  <ntsc>false</ntsc>
                  <timebase>25</timebase>
                </rate>
                <in>82299</in>
                <out>82352</out>
                <start>82299</start>
                <end>82352</end>
                <file id="src-4"/>
                <sourcetrack>
                  <mediatype>video</mediatype>
                  <trackindex>1</trackindex>
                </sourcetrack>
                <multiclip id="mcs-973">
                  <name>MCS-973</name>
                  <masterclipid>clip-master</masterclipid>
                  <collapsed>false</collapsed>
                  <angle>
                    <activevideoangle>false</activevideoangle>
                    <activeaudioangle>false</activeaudioangle>
                    <clip id="clip-1"/>
                  </angle>
                  <angle>
                    <activevideoangle>false</activevideoangle>
                    <activeaudioangle>false</activeaudioangle>
                    <clip id="clip-2"/>
                  </angle>
                  <angle>
                    <activevideoangle>false</activevideoangle>
                    <activeaudioangle>false</activeaudioangle>
                    <clip id="clip-3"/>
                  </angle>
                  <angle>
                    <activevideoangle>true</activevideoangle>
                    <activeaudioangle>true</activeaudioangle>
                    <clip id="clip-4"/>
                  </angle>
                  <angle>
                    <activevideoangle>false</activevideoangle>
                    <activeaudioangle>false</activeaudioangle>
                    <clip id="clip-5"/>
                  </angle>
                  <angle>
                    <activevideoangle>false</activevideoangle>
                    <activeaudioangle>false</activeaudioangle>
                    <clip id="clip-6"/>
                  </angle>
                  <angle>
                    <activevideoangle>false</activevideoangle>
                    <activeaudioangle>false</activeaudioangle>
                    <clip id="clip-7"/>
                  </angle>
                  <angle>
                    <activevideoangle>false</activevideoangle>
                    <activeaudioangle>false</activeaudioangle>
                    <clip id="clip-8"/>
                  </angle>
                  <angle>
                    <activevideoangle>false</activevideoangle>
                    <activeaudioangle>false</activeaudioangle>
                    <clip id="clip-9"/>
                  </angle>
                  <masterclipid>clip-master</masterclipid>
                </multiclip>
              </clipitem>
              <clipitem id="cs-974">
                <duration>156</duration>
                <rate>
                  <ntsc>false</ntsc>
                  <timebase>25</timebase>
                </rate>
                <in>82352</in>
                <out>82507</out>
                <start>82352</start>
                <end>82507</end>
                <file id="src-3"/>
                <sourcetrack>
                  <mediatype>video</mediatype>
                  <trackindex>1</trackindex>
                </sourcetrack>
                <multiclip id="mcs-974">
                  <name>MCS-974</name>
                  <masterclipid>clip-master</masterclipid>
                  <collapsed>false</collapsed>
                  <angle>
                    <activevideoangle>false</activevideoangle>
                    <activeaudioangle>false</activeaudioangle>
                    <clip id="clip-1"/>
                  </angle>
                  <angle>
                    <activevideoangle>false</activevideoangle>
                    <activeaudioangle>false</activeaudioangle>
                    <clip id="clip-2"/>
                  </angle>
                  <angle>
                    <activevideoangle>true</activevideoangle>
                    <activeaudioangle>true</activeaudioangle>
                    <clip id="clip-3"/>
                  </angle>
                  <angle>
                    <activevideoangle>false</activevideoangle>
                    <activeaudioangle>false</activeaudioangle>
                    <clip id="clip-4"/>
                  </angle>
                  <angle>
                    <activevideoangle>false</activevideoangle>
                    <activeaudioangle>false</activeaudioangle>
                    <clip id="clip-5"/>
                  </angle>
                  <angle>
                    <activevideoangle>false</activevideoangle>
                    <activeaudioangle>false</activeaudioangle>
                    <clip id="clip-6"/>
                  </angle>
                  <angle>
                    <activevideoangle>false</activevideoangle>
                    <activeaudioangle>false</activeaudioangle>
                    <clip id="clip-7"/>
                  </angle>
                  <angle>
                    <activevideoangle>false</activevideoangle>
                    <activeaudioangle>false</activeaudioangle>
                    <clip id="clip-8"/>
                  </angle>
                  <angle>
                    <activevideoangle>false</activevideoangle>
                    <activeaudioangle>false</activeaudioangle>
                    <clip id="clip-9"/>
                  </angle>
                  <masterclipid>clip-master</masterclipid>
                </multiclip>
              </clipitem>
              <clipitem id="cs-975">
                <duration>41</duration>
                <rate>
                  <ntsc>false</ntsc>
                  <timebase>25</timebase>
                </rate>
                <in>82507</in>
                <out>82547</out>
                <start>82507</start>
                <end>82547</end>
                <file id="src-6"/>
                <sourcetrack>
                  <mediatype>video</mediatype>
                  <trackindex>1</trackindex>
                </sourcetrack>
                <multiclip id="mcs-975">
                  <name>MCS-975</name>
                  <masterclipid>clip-master</masterclipid>
                  <collapsed>false</collapsed>
                  <angle>
                    <activevideoangle>false</activevideoangle>
                    <activeaudioangle>false</activeaudioangle>
                    <clip id="clip-1"/>
                  </angle>
                  <angle>
                    <activevideoangle>false</activevideoangle>
                    <activeaudioangle>false</activeaudioangle>
                    <clip id="clip-2"/>
                  </angle>
                  <angle>
                    <activevideoangle>false</activevideoangle>
                    <activeaudioangle>false</activeaudioangle>
                    <clip id="clip-3"/>
                  </angle>
                  <angle>
                    <activevideoangle>false</activevideoangle>
                    <activeaudioangle>false</activeaudioangle>
                    <clip id="clip-4"/>
                  </angle>
                  <angle>
                    <activevideoangle>false</activevideoangle>
                    <activeaudioangle>false</activeaudioangle>
                    <clip id="clip-5"/>
                  </angle>
                  <angle>
                    <activevideoangle>true</activevideoangle>
                    <activeaudioangle>true</activeaudioangle>
                    <clip id="clip-6"/>
                  </angle>
                  <angle>
                    <activevideoangle>false</activevideoangle>
                    <activeaudioangle>false</activeaudioangle>
                    <clip id="clip-7"/>
                  </angle>
                  <angle>
                    <activevideoangle>false</activevideoangle>
                    <activeaudioangle>false</activeaudioangle>
                    <clip id="clip-8"/>
                  </angle>
                  <angle>
                    <activevideoangle>false</activevideoangle>
                    <activeaudioangle>false</activeaudioangle>
                    <clip id="clip-9"/>
                  </angle>
                  <masterclipid>clip-master</masterclipid>
                </multiclip>
              </clipitem>
              <clipitem id="cs-976">
                <duration>80</duration>
                <rate>
                  <ntsc>false</ntsc>
                  <timebase>25</timebase>
                </rate>
                <in>82547</in>
                <out>82626</out>
                <start>82547</start>
                <end>82626</end>
                <file id="src-4"/>
                <sourcetrack>
                  <mediatype>video</mediatype>
                  <trackindex>1</trackindex>
                </sourcetrack>
                <multiclip id="mcs-976">
                  <name>MCS-976</name>
                  <masterclipid>clip-master</masterclipid>
                  <collapsed>false</collapsed>
                  <angle>
                    <activevideoangle>false</activevideoangle>
                    <activeaudioangle>false</activeaudioangle>
                    <clip id="clip-1"/>
                  </angle>
                  <angle>
                    <activevideoangle>false</activevideoangle>
                    <activeaudioangle>false</activeaudioangle>
                    <clip id="clip-2"/>
                  </angle>
                  <angle>
                    <activevideoangle>false</activevideoangle>
                    <activeaudioangle>false</activeaudioangle>
                    <clip id="clip-3"/>
                  </angle>
                  <angle>
                    <activevideoangle>true</activevideoangle>
                    <activeaudioangle>true</activeaudioangle>
                    <clip id="clip-4"/>
                  </angle>
                  <angle>
                    <activevideoangle>false</activevideoangle>
                    <activeaudioangle>false</activeaudioangle>
                    <clip id="clip-5"/>
                  </angle>
                  <angle>
                    <activevideoangle>false</activevideoangle>
                    <activeaudioangle>false</activeaudioangle>
                    <clip id="clip-6"/>
                  </angle>
                  <angle>
                    <activevideoangle>false</activevideoangle>
                    <activeaudioangle>false</activeaudioangle>
                    <clip id="clip-7"/>
                  </angle>
                  <angle>
                    <activevideoangle>false</activevideoangle>
                    <activeaudioangle>false</activeaudioangle>
                    <clip id="clip-8"/>
                  </angle>
                  <angle>
                    <activevideoangle>false</activevideoangle>
                    <activeaudioangle>false</activeaudioangle>
                    <clip id="clip-9"/>
                  </angle>
                  <masterclipid>clip-master</masterclipid>
                </multiclip>
              </clipitem>
              <clipitem id="cs-977">
                <duration>64</duration>
                <rate>
                  <ntsc>false</ntsc>
                  <timebase>25</timebase>
                </rate>
                <in>82626</in>
                <out>82689</out>
                <start>82626</start>
                <end>82689</end>
                <file id="src-7"/>
                <sourcetrack>
                  <mediatype>video</mediatype>
                  <trackindex>1</trackindex>
                </sourcetrack>
                <multiclip id="mcs-977">
                  <name>MCS-977</name>
                  <masterclipid>clip-master</masterclipid>
                  <collapsed>false</collapsed>
                  <angle>
                    <activevideoangle>false</activevideoangle>
                    <activeaudioangle>false</activeaudioangle>
                    <clip id="clip-1"/>
                  </angle>
                  <angle>
                    <activevideoangle>false</activevideoangle>
                    <activeaudioangle>false</activeaudioangle>
                    <clip id="clip-2"/>
                  </angle>
                  <angle>
                    <activevideoangle>false</activevideoangle>
                    <activeaudioangle>false</activeaudioangle>
                    <clip id="clip-3"/>
                  </angle>
                  <angle>
                    <activevideoangle>false</activevideoangle>
                    <activeaudioangle>false</activeaudioangle>
                    <clip id="clip-4"/>
                  </angle>
                  <angle>
                    <activevideoangle>false</activevideoangle>
                    <activeaudioangle>false</activeaudioangle>
                    <clip id="clip-5"/>
                  </angle>
                  <angle>
                    <activevideoangle>false</activevideoangle>
                    <activeaudioangle>false</activeaudioangle>
                    <clip id="clip-6"/>
                  </angle>
                  <angle>
                    <activevideoangle>true</activevideoangle>
                    <activeaudioangle>true</activeaudioangle>
                    <clip id="clip-7"/>
                  </angle>
                  <angle>
                    <activevideoangle>false</activevideoangle>
                    <activeaudioangle>false</activeaudioangle>
                    <clip id="clip-8"/>
                  </angle>
                  <angle>
                    <activevideoangle>false</activevideoangle>
                    <activeaudioangle>false</activeaudioangle>
                    <clip id="clip-9"/>
                  </angle>
                  <masterclipid>clip-master</masterclipid>
                </multiclip>
              </clipitem>
              <clipitem id="cs-978">
                <duration>42</duration>
                <rate>
                  <ntsc>false</ntsc>
                  <timebase>25</timebase>
                </rate>
                <in>82689</in>
                <out>82730</out>
                <start>82689</start>
                <end>82730</end>
                <file id="src-2"/>
                <sourcetrack>
                  <mediatype>video</mediatype>
                  <trackindex>1</trackindex>
                </sourcetrack>
                <multiclip id="mcs-978">
                  <name>MCS-978</name>
                  <masterclipid>clip-master</masterclipid>
                  <collapsed>false</collapsed>
                  <angle>
                    <activevideoangle>false</activevideoangle>
                    <activeaudioangle>false</activeaudioangle>
                    <clip id="clip-1"/>
                  </angle>
                  <angle>
                    <activevideoangle>true</activevideoangle>
                    <activeaudioangle>true</activeaudioangle>
                    <clip id="clip-2"/>
                  </angle>
                  <angle>
                    <activevideoangle>false</activevideoangle>
                    <activeaudioangle>false</activeaudioangle>
                    <clip id="clip-3"/>
                  </angle>
                  <angle>
                    <activevideoangle>false</activevideoangle>
                    <activeaudioangle>false</activeaudioangle>
                    <clip id="clip-4"/>
                  </angle>
                  <angle>
                    <activevideoangle>false</activevideoangle>
                    <activeaudioangle>false</activeaudioangle>
                    <clip id="clip-5"/>
                  </angle>
                  <angle>
                    <activevideoangle>false</activevideoangle>
                    <activeaudioangle>false</activeaudioangle>
                    <clip id="clip-6"/>
                  </angle>
                  <angle>
                    <activevideoangle>false</activevideoangle>
                    <activeaudioangle>false</activeaudioangle>
                    <clip id="clip-7"/>
                  </angle>
                  <angle>
                    <activevideoangle>false</activevideoangle>
                    <activeaudioangle>false</activeaudioangle>
                    <clip id="clip-8"/>
                  </angle>
                  <angle>
                    <activevideoangle>false</activevideoangle>
                    <activeaudioangle>false</activeaudioangle>
                    <clip id="clip-9"/>
                  </angle>
                  <masterclipid>clip-master</masterclipid>
                </multiclip>
              </clipitem>
              <clipitem id="cs-979">
                <duration>60</duration>
                <rate>
                  <ntsc>false</ntsc>
                  <timebase>25</timebase>
                </rate>
                <in>82730</in>
                <out>82789</out>
                <start>82730</start>
                <end>82789</end>
                <file id="src-4"/>
                <sourcetrack>
                  <mediatype>video</mediatype>
                  <trackindex>1</trackindex>
                </sourcetrack>
                <multiclip id="mcs-979">
                  <name>MCS-979</name>
                  <masterclipid>clip-master</masterclipid>
                  <collapsed>false</collapsed>
                  <angle>
                    <activevideoangle>false</activevideoangle>
                    <activeaudioangle>false</activeaudioangle>
                    <clip id="clip-1"/>
                  </angle>
                  <angle>
                    <activevideoangle>false</activevideoangle>
                    <activeaudioangle>false</activeaudioangle>
                    <clip id="clip-2"/>
                  </angle>
                  <angle>
                    <activevideoangle>false</activevideoangle>
                    <activeaudioangle>false</activeaudioangle>
                    <clip id="clip-3"/>
                  </angle>
                  <angle>
                    <activevideoangle>true</activevideoangle>
                    <activeaudioangle>true</activeaudioangle>
                    <clip id="clip-4"/>
                  </angle>
                  <angle>
                    <activevideoangle>false</activevideoangle>
                    <activeaudioangle>false</activeaudioangle>
                    <clip id="clip-5"/>
                  </angle>
                  <angle>
                    <activevideoangle>false</activevideoangle>
                    <activeaudioangle>false</activeaudioangle>
                    <clip id="clip-6"/>
                  </angle>
                  <angle>
                    <activevideoangle>false</activevideoangle>
                    <activeaudioangle>false</activeaudioangle>
                    <clip id="clip-7"/>
                  </angle>
                  <angle>
                    <activevideoangle>false</activevideoangle>
                    <activeaudioangle>false</activeaudioangle>
                    <clip id="clip-8"/>
                  </angle>
                  <angle>
                    <activevideoangle>false</activevideoangle>
                    <activeaudioangle>false</activeaudioangle>
                    <clip id="clip-9"/>
                  </angle>
                  <masterclipid>clip-master</masterclipid>
                </multiclip>
              </clipitem>
              <clipitem id="cs-980">
                <duration>81</duration>
                <rate>
                  <ntsc>false</ntsc>
                  <timebase>25</timebase>
                </rate>
                <in>82789</in>
                <out>82869</out>
                <start>82789</start>
                <end>82869</end>
                <file id="src-3"/>
                <sourcetrack>
                  <mediatype>video</mediatype>
                  <trackindex>1</trackindex>
                </sourcetrack>
                <multiclip id="mcs-980">
                  <name>MCS-980</name>
                  <masterclipid>clip-master</masterclipid>
                  <collapsed>false</collapsed>
                  <angle>
                    <activevideoangle>false</activevideoangle>
                    <activeaudioangle>false</activeaudioangle>
                    <clip id="clip-1"/>
                  </angle>
                  <angle>
                    <activevideoangle>false</activevideoangle>
                    <activeaudioangle>false</activeaudioangle>
                    <clip id="clip-2"/>
                  </angle>
                  <angle>
                    <activevideoangle>true</activevideoangle>
                    <activeaudioangle>true</activeaudioangle>
                    <clip id="clip-3"/>
                  </angle>
                  <angle>
                    <activevideoangle>false</activevideoangle>
                    <activeaudioangle>false</activeaudioangle>
                    <clip id="clip-4"/>
                  </angle>
                  <angle>
                    <activevideoangle>false</activevideoangle>
                    <activeaudioangle>false</activeaudioangle>
                    <clip id="clip-5"/>
                  </angle>
                  <angle>
                    <activevideoangle>false</activevideoangle>
                    <activeaudioangle>false</activeaudioangle>
                    <clip id="clip-6"/>
                  </angle>
                  <angle>
                    <activevideoangle>false</activevideoangle>
                    <activeaudioangle>false</activeaudioangle>
                    <clip id="clip-7"/>
                  </angle>
                  <angle>
                    <activevideoangle>false</activevideoangle>
                    <activeaudioangle>false</activeaudioangle>
                    <clip id="clip-8"/>
                  </angle>
                  <angle>
                    <activevideoangle>false</activevideoangle>
                    <activeaudioangle>false</activeaudioangle>
                    <clip id="clip-9"/>
                  </angle>
                  <masterclipid>clip-master</masterclipid>
                </multiclip>
              </clipitem>
              <clipitem id="cs-981">
                <duration>64</duration>
                <rate>
                  <ntsc>false</ntsc>
                  <timebase>25</timebase>
                </rate>
                <in>82869</in>
                <out>82932</out>
                <start>82869</start>
                <end>82932</end>
                <file id="src-7"/>
                <sourcetrack>
                  <mediatype>video</mediatype>
                  <trackindex>1</trackindex>
                </sourcetrack>
                <multiclip id="mcs-981">
                  <name>MCS-981</name>
                  <masterclipid>clip-master</masterclipid>
                  <collapsed>false</collapsed>
                  <angle>
                    <activevideoangle>false</activevideoangle>
                    <activeaudioangle>false</activeaudioangle>
                    <clip id="clip-1"/>
                  </angle>
                  <angle>
                    <activevideoangle>false</activevideoangle>
                    <activeaudioangle>false</activeaudioangle>
                    <clip id="clip-2"/>
                  </angle>
                  <angle>
                    <activevideoangle>false</activevideoangle>
                    <activeaudioangle>false</activeaudioangle>
                    <clip id="clip-3"/>
                  </angle>
                  <angle>
                    <activevideoangle>false</activevideoangle>
                    <activeaudioangle>false</activeaudioangle>
                    <clip id="clip-4"/>
                  </angle>
                  <angle>
                    <activevideoangle>false</activevideoangle>
                    <activeaudioangle>false</activeaudioangle>
                    <clip id="clip-5"/>
                  </angle>
                  <angle>
                    <activevideoangle>false</activevideoangle>
                    <activeaudioangle>false</activeaudioangle>
                    <clip id="clip-6"/>
                  </angle>
                  <angle>
                    <activevideoangle>true</activevideoangle>
                    <activeaudioangle>true</activeaudioangle>
                    <clip id="clip-7"/>
                  </angle>
                  <angle>
                    <activevideoangle>false</activevideoangle>
                    <activeaudioangle>false</activeaudioangle>
                    <clip id="clip-8"/>
                  </angle>
                  <angle>
                    <activevideoangle>false</activevideoangle>
                    <activeaudioangle>false</activeaudioangle>
                    <clip id="clip-9"/>
                  </angle>
                  <masterclipid>clip-master</masterclipid>
                </multiclip>
              </clipitem>
              <clipitem id="cs-982">
                <duration>100</duration>
                <rate>
                  <ntsc>false</ntsc>
                  <timebase>25</timebase>
                </rate>
                <in>82932</in>
                <out>83031</out>
                <start>82932</start>
                <end>83031</end>
                <file id="src-4"/>
                <sourcetrack>
                  <mediatype>video</mediatype>
                  <trackindex>1</trackindex>
                </sourcetrack>
                <multiclip id="mcs-982">
                  <name>MCS-982</name>
                  <masterclipid>clip-master</masterclipid>
                  <collapsed>false</collapsed>
                  <angle>
                    <activevideoangle>false</activevideoangle>
                    <activeaudioangle>false</activeaudioangle>
                    <clip id="clip-1"/>
                  </angle>
                  <angle>
                    <activevideoangle>false</activevideoangle>
                    <activeaudioangle>false</activeaudioangle>
                    <clip id="clip-2"/>
                  </angle>
                  <angle>
                    <activevideoangle>false</activevideoangle>
                    <activeaudioangle>false</activeaudioangle>
                    <clip id="clip-3"/>
                  </angle>
                  <angle>
                    <activevideoangle>true</activevideoangle>
                    <activeaudioangle>true</activeaudioangle>
                    <clip id="clip-4"/>
                  </angle>
                  <angle>
                    <activevideoangle>false</activevideoangle>
                    <activeaudioangle>false</activeaudioangle>
                    <clip id="clip-5"/>
                  </angle>
                  <angle>
                    <activevideoangle>false</activevideoangle>
                    <activeaudioangle>false</activeaudioangle>
                    <clip id="clip-6"/>
                  </angle>
                  <angle>
                    <activevideoangle>false</activevideoangle>
                    <activeaudioangle>false</activeaudioangle>
                    <clip id="clip-7"/>
                  </angle>
                  <angle>
                    <activevideoangle>false</activevideoangle>
                    <activeaudioangle>false</activeaudioangle>
                    <clip id="clip-8"/>
                  </angle>
                  <angle>
                    <activevideoangle>false</activevideoangle>
                    <activeaudioangle>false</activeaudioangle>
                    <clip id="clip-9"/>
                  </angle>
                  <masterclipid>clip-master</masterclipid>
                </multiclip>
              </clipitem>
              <clipitem id="cs-983">
                <duration>55</duration>
                <rate>
                  <ntsc>false</ntsc>
                  <timebase>25</timebase>
                </rate>
                <in>83031</in>
                <out>83085</out>
                <start>83031</start>
                <end>83085</end>
                <file id="src-5"/>
                <sourcetrack>
                  <mediatype>video</mediatype>
                  <trackindex>1</trackindex>
                </sourcetrack>
                <multiclip id="mcs-983">
                  <name>MCS-983</name>
                  <masterclipid>clip-master</masterclipid>
                  <collapsed>false</collapsed>
                  <angle>
                    <activevideoangle>false</activevideoangle>
                    <activeaudioangle>false</activeaudioangle>
                    <clip id="clip-1"/>
                  </angle>
                  <angle>
                    <activevideoangle>false</activevideoangle>
                    <activeaudioangle>false</activeaudioangle>
                    <clip id="clip-2"/>
                  </angle>
                  <angle>
                    <activevideoangle>false</activevideoangle>
                    <activeaudioangle>false</activeaudioangle>
                    <clip id="clip-3"/>
                  </angle>
                  <angle>
                    <activevideoangle>false</activevideoangle>
                    <activeaudioangle>false</activeaudioangle>
                    <clip id="clip-4"/>
                  </angle>
                  <angle>
                    <activevideoangle>true</activevideoangle>
                    <activeaudioangle>true</activeaudioangle>
                    <clip id="clip-5"/>
                  </angle>
                  <angle>
                    <activevideoangle>false</activevideoangle>
                    <activeaudioangle>false</activeaudioangle>
                    <clip id="clip-6"/>
                  </angle>
                  <angle>
                    <activevideoangle>false</activevideoangle>
                    <activeaudioangle>false</activeaudioangle>
                    <clip id="clip-7"/>
                  </angle>
                  <angle>
                    <activevideoangle>false</activevideoangle>
                    <activeaudioangle>false</activeaudioangle>
                    <clip id="clip-8"/>
                  </angle>
                  <angle>
                    <activevideoangle>false</activevideoangle>
                    <activeaudioangle>false</activeaudioangle>
                    <clip id="clip-9"/>
                  </angle>
                  <masterclipid>clip-master</masterclipid>
                </multiclip>
              </clipitem>
              <clipitem id="cs-984">
                <duration>53</duration>
                <rate>
                  <ntsc>false</ntsc>
                  <timebase>25</timebase>
                </rate>
                <in>83085</in>
                <out>83137</out>
                <start>83085</start>
                <end>83137</end>
                <file id="src-2"/>
                <sourcetrack>
                  <mediatype>video</mediatype>
                  <trackindex>1</trackindex>
                </sourcetrack>
                <multiclip id="mcs-984">
                  <name>MCS-984</name>
                  <masterclipid>clip-master</masterclipid>
                  <collapsed>false</collapsed>
                  <angle>
                    <activevideoangle>false</activevideoangle>
                    <activeaudioangle>false</activeaudioangle>
                    <clip id="clip-1"/>
                  </angle>
                  <angle>
                    <activevideoangle>true</activevideoangle>
                    <activeaudioangle>true</activeaudioangle>
                    <clip id="clip-2"/>
                  </angle>
                  <angle>
                    <activevideoangle>false</activevideoangle>
                    <activeaudioangle>false</activeaudioangle>
                    <clip id="clip-3"/>
                  </angle>
                  <angle>
                    <activevideoangle>false</activevideoangle>
                    <activeaudioangle>false</activeaudioangle>
                    <clip id="clip-4"/>
                  </angle>
                  <angle>
                    <activevideoangle>false</activevideoangle>
                    <activeaudioangle>false</activeaudioangle>
                    <clip id="clip-5"/>
                  </angle>
                  <angle>
                    <activevideoangle>false</activevideoangle>
                    <activeaudioangle>false</activeaudioangle>
                    <clip id="clip-6"/>
                  </angle>
                  <angle>
                    <activevideoangle>false</activevideoangle>
                    <activeaudioangle>false</activeaudioangle>
                    <clip id="clip-7"/>
                  </angle>
                  <angle>
                    <activevideoangle>false</activevideoangle>
                    <activeaudioangle>false</activeaudioangle>
                    <clip id="clip-8"/>
                  </angle>
                  <angle>
                    <activevideoangle>false</activevideoangle>
                    <activeaudioangle>false</activeaudioangle>
                    <clip id="clip-9"/>
                  </angle>
                  <masterclipid>clip-master</masterclipid>
                </multiclip>
              </clipitem>
              <clipitem id="cs-985">
                <duration>62</duration>
                <rate>
                  <ntsc>false</ntsc>
                  <timebase>25</timebase>
                </rate>
                <in>83137</in>
                <out>83198</out>
                <start>83137</start>
                <end>83198</end>
                <file id="src-3"/>
                <sourcetrack>
                  <mediatype>video</mediatype>
                  <trackindex>1</trackindex>
                </sourcetrack>
                <multiclip id="mcs-985">
                  <name>MCS-985</name>
                  <masterclipid>clip-master</masterclipid>
                  <collapsed>false</collapsed>
                  <angle>
                    <activevideoangle>false</activevideoangle>
                    <activeaudioangle>false</activeaudioangle>
                    <clip id="clip-1"/>
                  </angle>
                  <angle>
                    <activevideoangle>false</activevideoangle>
                    <activeaudioangle>false</activeaudioangle>
                    <clip id="clip-2"/>
                  </angle>
                  <angle>
                    <activevideoangle>true</activevideoangle>
                    <activeaudioangle>true</activeaudioangle>
                    <clip id="clip-3"/>
                  </angle>
                  <angle>
                    <activevideoangle>false</activevideoangle>
                    <activeaudioangle>false</activeaudioangle>
                    <clip id="clip-4"/>
                  </angle>
                  <angle>
                    <activevideoangle>false</activevideoangle>
                    <activeaudioangle>false</activeaudioangle>
                    <clip id="clip-5"/>
                  </angle>
                  <angle>
                    <activevideoangle>false</activevideoangle>
                    <activeaudioangle>false</activeaudioangle>
                    <clip id="clip-6"/>
                  </angle>
                  <angle>
                    <activevideoangle>false</activevideoangle>
                    <activeaudioangle>false</activeaudioangle>
                    <clip id="clip-7"/>
                  </angle>
                  <angle>
                    <activevideoangle>false</activevideoangle>
                    <activeaudioangle>false</activeaudioangle>
                    <clip id="clip-8"/>
                  </angle>
                  <angle>
                    <activevideoangle>false</activevideoangle>
                    <activeaudioangle>false</activeaudioangle>
                    <clip id="clip-9"/>
                  </angle>
                  <masterclipid>clip-master</masterclipid>
                </multiclip>
              </clipitem>
              <clipitem id="cs-986">
                <duration>83</duration>
                <rate>
                  <ntsc>false</ntsc>
                  <timebase>25</timebase>
                </rate>
                <in>83198</in>
                <out>83280</out>
                <start>83198</start>
                <end>83280</end>
                <file id="src-4"/>
                <sourcetrack>
                  <mediatype>video</mediatype>
                  <trackindex>1</trackindex>
                </sourcetrack>
                <multiclip id="mcs-986">
                  <name>MCS-986</name>
                  <masterclipid>clip-master</masterclipid>
                  <collapsed>false</collapsed>
                  <angle>
                    <activevideoangle>false</activevideoangle>
                    <activeaudioangle>false</activeaudioangle>
                    <clip id="clip-1"/>
                  </angle>
                  <angle>
                    <activevideoangle>false</activevideoangle>
                    <activeaudioangle>false</activeaudioangle>
                    <clip id="clip-2"/>
                  </angle>
                  <angle>
                    <activevideoangle>false</activevideoangle>
                    <activeaudioangle>false</activeaudioangle>
                    <clip id="clip-3"/>
                  </angle>
                  <angle>
                    <activevideoangle>true</activevideoangle>
                    <activeaudioangle>true</activeaudioangle>
                    <clip id="clip-4"/>
                  </angle>
                  <angle>
                    <activevideoangle>false</activevideoangle>
                    <activeaudioangle>false</activeaudioangle>
                    <clip id="clip-5"/>
                  </angle>
                  <angle>
                    <activevideoangle>false</activevideoangle>
                    <activeaudioangle>false</activeaudioangle>
                    <clip id="clip-6"/>
                  </angle>
                  <angle>
                    <activevideoangle>false</activevideoangle>
                    <activeaudioangle>false</activeaudioangle>
                    <clip id="clip-7"/>
                  </angle>
                  <angle>
                    <activevideoangle>false</activevideoangle>
                    <activeaudioangle>false</activeaudioangle>
                    <clip id="clip-8"/>
                  </angle>
                  <angle>
                    <activevideoangle>false</activevideoangle>
                    <activeaudioangle>false</activeaudioangle>
                    <clip id="clip-9"/>
                  </angle>
                  <masterclipid>clip-master</masterclipid>
                </multiclip>
              </clipitem>
              <clipitem id="cs-987">
                <duration>115</duration>
                <rate>
                  <ntsc>false</ntsc>
                  <timebase>25</timebase>
                </rate>
                <in>83280</in>
                <out>83394</out>
                <start>83280</start>
                <end>83394</end>
                <file id="src-7"/>
                <sourcetrack>
                  <mediatype>video</mediatype>
                  <trackindex>1</trackindex>
                </sourcetrack>
                <multiclip id="mcs-987">
                  <name>MCS-987</name>
                  <masterclipid>clip-master</masterclipid>
                  <collapsed>false</collapsed>
                  <angle>
                    <activevideoangle>false</activevideoangle>
                    <activeaudioangle>false</activeaudioangle>
                    <clip id="clip-1"/>
                  </angle>
                  <angle>
                    <activevideoangle>false</activevideoangle>
                    <activeaudioangle>false</activeaudioangle>
                    <clip id="clip-2"/>
                  </angle>
                  <angle>
                    <activevideoangle>false</activevideoangle>
                    <activeaudioangle>false</activeaudioangle>
                    <clip id="clip-3"/>
                  </angle>
                  <angle>
                    <activevideoangle>false</activevideoangle>
                    <activeaudioangle>false</activeaudioangle>
                    <clip id="clip-4"/>
                  </angle>
                  <angle>
                    <activevideoangle>false</activevideoangle>
                    <activeaudioangle>false</activeaudioangle>
                    <clip id="clip-5"/>
                  </angle>
                  <angle>
                    <activevideoangle>false</activevideoangle>
                    <activeaudioangle>false</activeaudioangle>
                    <clip id="clip-6"/>
                  </angle>
                  <angle>
                    <activevideoangle>true</activevideoangle>
                    <activeaudioangle>true</activeaudioangle>
                    <clip id="clip-7"/>
                  </angle>
                  <angle>
                    <activevideoangle>false</activevideoangle>
                    <activeaudioangle>false</activeaudioangle>
                    <clip id="clip-8"/>
                  </angle>
                  <angle>
                    <activevideoangle>false</activevideoangle>
                    <activeaudioangle>false</activeaudioangle>
                    <clip id="clip-9"/>
                  </angle>
                  <masterclipid>clip-master</masterclipid>
                </multiclip>
              </clipitem>
              <clipitem id="cs-988">
                <duration>72</duration>
                <rate>
                  <ntsc>false</ntsc>
                  <timebase>25</timebase>
                </rate>
                <in>83394</in>
                <out>83465</out>
                <start>83394</start>
                <end>83465</end>
                <file id="src-2"/>
                <sourcetrack>
                  <mediatype>video</mediatype>
                  <trackindex>1</trackindex>
                </sourcetrack>
                <multiclip id="mcs-988">
                  <name>MCS-988</name>
                  <masterclipid>clip-master</masterclipid>
                  <collapsed>false</collapsed>
                  <angle>
                    <activevideoangle>false</activevideoangle>
                    <activeaudioangle>false</activeaudioangle>
                    <clip id="clip-1"/>
                  </angle>
                  <angle>
                    <activevideoangle>true</activevideoangle>
                    <activeaudioangle>true</activeaudioangle>
                    <clip id="clip-2"/>
                  </angle>
                  <angle>
                    <activevideoangle>false</activevideoangle>
                    <activeaudioangle>false</activeaudioangle>
                    <clip id="clip-3"/>
                  </angle>
                  <angle>
                    <activevideoangle>false</activevideoangle>
                    <activeaudioangle>false</activeaudioangle>
                    <clip id="clip-4"/>
                  </angle>
                  <angle>
                    <activevideoangle>false</activevideoangle>
                    <activeaudioangle>false</activeaudioangle>
                    <clip id="clip-5"/>
                  </angle>
                  <angle>
                    <activevideoangle>false</activevideoangle>
                    <activeaudioangle>false</activeaudioangle>
                    <clip id="clip-6"/>
                  </angle>
                  <angle>
                    <activevideoangle>false</activevideoangle>
                    <activeaudioangle>false</activeaudioangle>
                    <clip id="clip-7"/>
                  </angle>
                  <angle>
                    <activevideoangle>false</activevideoangle>
                    <activeaudioangle>false</activeaudioangle>
                    <clip id="clip-8"/>
                  </angle>
                  <angle>
                    <activevideoangle>false</activevideoangle>
                    <activeaudioangle>false</activeaudioangle>
                    <clip id="clip-9"/>
                  </angle>
                  <masterclipid>clip-master</masterclipid>
                </multiclip>
              </clipitem>
              <clipitem id="cs-989">
                <duration>34</duration>
                <rate>
                  <ntsc>false</ntsc>
                  <timebase>25</timebase>
                </rate>
                <in>83465</in>
                <out>83498</out>
                <start>83465</start>
                <end>83498</end>
                <file id="src-4"/>
                <sourcetrack>
                  <mediatype>video</mediatype>
                  <trackindex>1</trackindex>
                </sourcetrack>
                <multiclip id="mcs-989">
                  <name>MCS-989</name>
                  <masterclipid>clip-master</masterclipid>
                  <collapsed>false</collapsed>
                  <angle>
                    <activevideoangle>false</activevideoangle>
                    <activeaudioangle>false</activeaudioangle>
                    <clip id="clip-1"/>
                  </angle>
                  <angle>
                    <activevideoangle>false</activevideoangle>
                    <activeaudioangle>false</activeaudioangle>
                    <clip id="clip-2"/>
                  </angle>
                  <angle>
                    <activevideoangle>false</activevideoangle>
                    <activeaudioangle>false</activeaudioangle>
                    <clip id="clip-3"/>
                  </angle>
                  <angle>
                    <activevideoangle>true</activevideoangle>
                    <activeaudioangle>true</activeaudioangle>
                    <clip id="clip-4"/>
                  </angle>
                  <angle>
                    <activevideoangle>false</activevideoangle>
                    <activeaudioangle>false</activeaudioangle>
                    <clip id="clip-5"/>
                  </angle>
                  <angle>
                    <activevideoangle>false</activevideoangle>
                    <activeaudioangle>false</activeaudioangle>
                    <clip id="clip-6"/>
                  </angle>
                  <angle>
                    <activevideoangle>false</activevideoangle>
                    <activeaudioangle>false</activeaudioangle>
                    <clip id="clip-7"/>
                  </angle>
                  <angle>
                    <activevideoangle>false</activevideoangle>
                    <activeaudioangle>false</activeaudioangle>
                    <clip id="clip-8"/>
                  </angle>
                  <angle>
                    <activevideoangle>false</activevideoangle>
                    <activeaudioangle>false</activeaudioangle>
                    <clip id="clip-9"/>
                  </angle>
                  <masterclipid>clip-master</masterclipid>
                </multiclip>
              </clipitem>
              <clipitem id="cs-990">
                <duration>46</duration>
                <rate>
                  <ntsc>false</ntsc>
                  <timebase>25</timebase>
                </rate>
                <in>83498</in>
                <out>83543</out>
                <start>83498</start>
                <end>83543</end>
                <file id="src-3"/>
                <sourcetrack>
                  <mediatype>video</mediatype>
                  <trackindex>1</trackindex>
                </sourcetrack>
                <multiclip id="mcs-990">
                  <name>MCS-990</name>
                  <masterclipid>clip-master</masterclipid>
                  <collapsed>false</collapsed>
                  <angle>
                    <activevideoangle>false</activevideoangle>
                    <activeaudioangle>false</activeaudioangle>
                    <clip id="clip-1"/>
                  </angle>
                  <angle>
                    <activevideoangle>false</activevideoangle>
                    <activeaudioangle>false</activeaudioangle>
                    <clip id="clip-2"/>
                  </angle>
                  <angle>
                    <activevideoangle>true</activevideoangle>
                    <activeaudioangle>true</activeaudioangle>
                    <clip id="clip-3"/>
                  </angle>
                  <angle>
                    <activevideoangle>false</activevideoangle>
                    <activeaudioangle>false</activeaudioangle>
                    <clip id="clip-4"/>
                  </angle>
                  <angle>
                    <activevideoangle>false</activevideoangle>
                    <activeaudioangle>false</activeaudioangle>
                    <clip id="clip-5"/>
                  </angle>
                  <angle>
                    <activevideoangle>false</activevideoangle>
                    <activeaudioangle>false</activeaudioangle>
                    <clip id="clip-6"/>
                  </angle>
                  <angle>
                    <activevideoangle>false</activevideoangle>
                    <activeaudioangle>false</activeaudioangle>
                    <clip id="clip-7"/>
                  </angle>
                  <angle>
                    <activevideoangle>false</activevideoangle>
                    <activeaudioangle>false</activeaudioangle>
                    <clip id="clip-8"/>
                  </angle>
                  <angle>
                    <activevideoangle>false</activevideoangle>
                    <activeaudioangle>false</activeaudioangle>
                    <clip id="clip-9"/>
                  </angle>
                  <masterclipid>clip-master</masterclipid>
                </multiclip>
              </clipitem>
              <clipitem id="cs-991">
                <duration>48</duration>
                <rate>
                  <ntsc>false</ntsc>
                  <timebase>25</timebase>
                </rate>
                <in>83543</in>
                <out>83590</out>
                <start>83543</start>
                <end>83590</end>
                <file id="src-5"/>
                <sourcetrack>
                  <mediatype>video</mediatype>
                  <trackindex>1</trackindex>
                </sourcetrack>
                <multiclip id="mcs-991">
                  <name>MCS-991</name>
                  <masterclipid>clip-master</masterclipid>
                  <collapsed>false</collapsed>
                  <angle>
                    <activevideoangle>false</activevideoangle>
                    <activeaudioangle>false</activeaudioangle>
                    <clip id="clip-1"/>
                  </angle>
                  <angle>
                    <activevideoangle>false</activevideoangle>
                    <activeaudioangle>false</activeaudioangle>
                    <clip id="clip-2"/>
                  </angle>
                  <angle>
                    <activevideoangle>false</activevideoangle>
                    <activeaudioangle>false</activeaudioangle>
                    <clip id="clip-3"/>
                  </angle>
                  <angle>
                    <activevideoangle>false</activevideoangle>
                    <activeaudioangle>false</activeaudioangle>
                    <clip id="clip-4"/>
                  </angle>
                  <angle>
                    <activevideoangle>true</activevideoangle>
                    <activeaudioangle>true</activeaudioangle>
                    <clip id="clip-5"/>
                  </angle>
                  <angle>
                    <activevideoangle>false</activevideoangle>
                    <activeaudioangle>false</activeaudioangle>
                    <clip id="clip-6"/>
                  </angle>
                  <angle>
                    <activevideoangle>false</activevideoangle>
                    <activeaudioangle>false</activeaudioangle>
                    <clip id="clip-7"/>
                  </angle>
                  <angle>
                    <activevideoangle>false</activevideoangle>
                    <activeaudioangle>false</activeaudioangle>
                    <clip id="clip-8"/>
                  </angle>
                  <angle>
                    <activevideoangle>false</activevideoangle>
                    <activeaudioangle>false</activeaudioangle>
                    <clip id="clip-9"/>
                  </angle>
                  <masterclipid>clip-master</masterclipid>
                </multiclip>
              </clipitem>
              <clipitem id="cs-992">
                <duration>141</duration>
                <rate>
                  <ntsc>false</ntsc>
                  <timebase>25</timebase>
                </rate>
                <in>83590</in>
                <out>83730</out>
                <start>83590</start>
                <end>83730</end>
                <file id="src-4"/>
                <sourcetrack>
                  <mediatype>video</mediatype>
                  <trackindex>1</trackindex>
                </sourcetrack>
                <multiclip id="mcs-992">
                  <name>MCS-992</name>
                  <masterclipid>clip-master</masterclipid>
                  <collapsed>false</collapsed>
                  <angle>
                    <activevideoangle>false</activevideoangle>
                    <activeaudioangle>false</activeaudioangle>
                    <clip id="clip-1"/>
                  </angle>
                  <angle>
                    <activevideoangle>false</activevideoangle>
                    <activeaudioangle>false</activeaudioangle>
                    <clip id="clip-2"/>
                  </angle>
                  <angle>
                    <activevideoangle>false</activevideoangle>
                    <activeaudioangle>false</activeaudioangle>
                    <clip id="clip-3"/>
                  </angle>
                  <angle>
                    <activevideoangle>true</activevideoangle>
                    <activeaudioangle>true</activeaudioangle>
                    <clip id="clip-4"/>
                  </angle>
                  <angle>
                    <activevideoangle>false</activevideoangle>
                    <activeaudioangle>false</activeaudioangle>
                    <clip id="clip-5"/>
                  </angle>
                  <angle>
                    <activevideoangle>false</activevideoangle>
                    <activeaudioangle>false</activeaudioangle>
                    <clip id="clip-6"/>
                  </angle>
                  <angle>
                    <activevideoangle>false</activevideoangle>
                    <activeaudioangle>false</activeaudioangle>
                    <clip id="clip-7"/>
                  </angle>
                  <angle>
                    <activevideoangle>false</activevideoangle>
                    <activeaudioangle>false</activeaudioangle>
                    <clip id="clip-8"/>
                  </angle>
                  <angle>
                    <activevideoangle>false</activevideoangle>
                    <activeaudioangle>false</activeaudioangle>
                    <clip id="clip-9"/>
                  </angle>
                  <masterclipid>clip-master</masterclipid>
                </multiclip>
              </clipitem>
              <clipitem id="cs-993">
                <duration>244</duration>
                <rate>
                  <ntsc>false</ntsc>
                  <timebase>25</timebase>
                </rate>
                <in>83730</in>
                <out>83973</out>
                <start>83730</start>
                <end>83973</end>
                <file id="src-2"/>
                <sourcetrack>
                  <mediatype>video</mediatype>
                  <trackindex>1</trackindex>
                </sourcetrack>
                <multiclip id="mcs-993">
                  <name>MCS-993</name>
                  <masterclipid>clip-master</masterclipid>
                  <collapsed>false</collapsed>
                  <angle>
                    <activevideoangle>false</activevideoangle>
                    <activeaudioangle>false</activeaudioangle>
                    <clip id="clip-1"/>
                  </angle>
                  <angle>
                    <activevideoangle>true</activevideoangle>
                    <activeaudioangle>true</activeaudioangle>
                    <clip id="clip-2"/>
                  </angle>
                  <angle>
                    <activevideoangle>false</activevideoangle>
                    <activeaudioangle>false</activeaudioangle>
                    <clip id="clip-3"/>
                  </angle>
                  <angle>
                    <activevideoangle>false</activevideoangle>
                    <activeaudioangle>false</activeaudioangle>
                    <clip id="clip-4"/>
                  </angle>
                  <angle>
                    <activevideoangle>false</activevideoangle>
                    <activeaudioangle>false</activeaudioangle>
                    <clip id="clip-5"/>
                  </angle>
                  <angle>
                    <activevideoangle>false</activevideoangle>
                    <activeaudioangle>false</activeaudioangle>
                    <clip id="clip-6"/>
                  </angle>
                  <angle>
                    <activevideoangle>false</activevideoangle>
                    <activeaudioangle>false</activeaudioangle>
                    <clip id="clip-7"/>
                  </angle>
                  <angle>
                    <activevideoangle>false</activevideoangle>
                    <activeaudioangle>false</activeaudioangle>
                    <clip id="clip-8"/>
                  </angle>
                  <angle>
                    <activevideoangle>false</activevideoangle>
                    <activeaudioangle>false</activeaudioangle>
                    <clip id="clip-9"/>
                  </angle>
                  <masterclipid>clip-master</masterclipid>
                </multiclip>
              </clipitem>
              <clipitem id="cs-994">
                <duration>137</duration>
                <rate>
                  <ntsc>false</ntsc>
                  <timebase>25</timebase>
                </rate>
                <in>83973</in>
                <out>84109</out>
                <start>83973</start>
                <end>84109</end>
                <file id="src-3"/>
                <sourcetrack>
                  <mediatype>video</mediatype>
                  <trackindex>1</trackindex>
                </sourcetrack>
                <multiclip id="mcs-994">
                  <name>MCS-994</name>
                  <masterclipid>clip-master</masterclipid>
                  <collapsed>false</collapsed>
                  <angle>
                    <activevideoangle>false</activevideoangle>
                    <activeaudioangle>false</activeaudioangle>
                    <clip id="clip-1"/>
                  </angle>
                  <angle>
                    <activevideoangle>false</activevideoangle>
                    <activeaudioangle>false</activeaudioangle>
                    <clip id="clip-2"/>
                  </angle>
                  <angle>
                    <activevideoangle>true</activevideoangle>
                    <activeaudioangle>true</activeaudioangle>
                    <clip id="clip-3"/>
                  </angle>
                  <angle>
                    <activevideoangle>false</activevideoangle>
                    <activeaudioangle>false</activeaudioangle>
                    <clip id="clip-4"/>
                  </angle>
                  <angle>
                    <activevideoangle>false</activevideoangle>
                    <activeaudioangle>false</activeaudioangle>
                    <clip id="clip-5"/>
                  </angle>
                  <angle>
                    <activevideoangle>false</activevideoangle>
                    <activeaudioangle>false</activeaudioangle>
                    <clip id="clip-6"/>
                  </angle>
                  <angle>
                    <activevideoangle>false</activevideoangle>
                    <activeaudioangle>false</activeaudioangle>
                    <clip id="clip-7"/>
                  </angle>
                  <angle>
                    <activevideoangle>false</activevideoangle>
                    <activeaudioangle>false</activeaudioangle>
                    <clip id="clip-8"/>
                  </angle>
                  <angle>
                    <activevideoangle>false</activevideoangle>
                    <activeaudioangle>false</activeaudioangle>
                    <clip id="clip-9"/>
                  </angle>
                  <masterclipid>clip-master</masterclipid>
                </multiclip>
              </clipitem>
              <clipitem id="cs-995">
                <duration>159</duration>
                <rate>
                  <ntsc>false</ntsc>
                  <timebase>25</timebase>
                </rate>
                <in>84109</in>
                <out>84267</out>
                <start>84109</start>
                <end>84267</end>
                <file id="src-5"/>
                <sourcetrack>
                  <mediatype>video</mediatype>
                  <trackindex>1</trackindex>
                </sourcetrack>
                <multiclip id="mcs-995">
                  <name>MCS-995</name>
                  <masterclipid>clip-master</masterclipid>
                  <collapsed>false</collapsed>
                  <angle>
                    <activevideoangle>false</activevideoangle>
                    <activeaudioangle>false</activeaudioangle>
                    <clip id="clip-1"/>
                  </angle>
                  <angle>
                    <activevideoangle>false</activevideoangle>
                    <activeaudioangle>false</activeaudioangle>
                    <clip id="clip-2"/>
                  </angle>
                  <angle>
                    <activevideoangle>false</activevideoangle>
                    <activeaudioangle>false</activeaudioangle>
                    <clip id="clip-3"/>
                  </angle>
                  <angle>
                    <activevideoangle>false</activevideoangle>
                    <activeaudioangle>false</activeaudioangle>
                    <clip id="clip-4"/>
                  </angle>
                  <angle>
                    <activevideoangle>true</activevideoangle>
                    <activeaudioangle>true</activeaudioangle>
                    <clip id="clip-5"/>
                  </angle>
                  <angle>
                    <activevideoangle>false</activevideoangle>
                    <activeaudioangle>false</activeaudioangle>
                    <clip id="clip-6"/>
                  </angle>
                  <angle>
                    <activevideoangle>false</activevideoangle>
                    <activeaudioangle>false</activeaudioangle>
                    <clip id="clip-7"/>
                  </angle>
                  <angle>
                    <activevideoangle>false</activevideoangle>
                    <activeaudioangle>false</activeaudioangle>
                    <clip id="clip-8"/>
                  </angle>
                  <angle>
                    <activevideoangle>false</activevideoangle>
                    <activeaudioangle>false</activeaudioangle>
                    <clip id="clip-9"/>
                  </angle>
                  <masterclipid>clip-master</masterclipid>
                </multiclip>
              </clipitem>
              <clipitem id="cs-996">
                <duration>100</duration>
                <rate>
                  <ntsc>false</ntsc>
                  <timebase>25</timebase>
                </rate>
                <in>84267</in>
                <out>84366</out>
                <start>84267</start>
                <end>84366</end>
                <file id="src-8"/>
                <sourcetrack>
                  <mediatype>video</mediatype>
                  <trackindex>1</trackindex>
                </sourcetrack>
                <multiclip id="mcs-996">
                  <name>MCS-996</name>
                  <masterclipid>clip-master</masterclipid>
                  <collapsed>false</collapsed>
                  <angle>
                    <activevideoangle>false</activevideoangle>
                    <activeaudioangle>false</activeaudioangle>
                    <clip id="clip-1"/>
                  </angle>
                  <angle>
                    <activevideoangle>false</activevideoangle>
                    <activeaudioangle>false</activeaudioangle>
                    <clip id="clip-2"/>
                  </angle>
                  <angle>
                    <activevideoangle>false</activevideoangle>
                    <activeaudioangle>false</activeaudioangle>
                    <clip id="clip-3"/>
                  </angle>
                  <angle>
                    <activevideoangle>false</activevideoangle>
                    <activeaudioangle>false</activeaudioangle>
                    <clip id="clip-4"/>
                  </angle>
                  <angle>
                    <activevideoangle>false</activevideoangle>
                    <activeaudioangle>false</activeaudioangle>
                    <clip id="clip-5"/>
                  </angle>
                  <angle>
                    <activevideoangle>false</activevideoangle>
                    <activeaudioangle>false</activeaudioangle>
                    <clip id="clip-6"/>
                  </angle>
                  <angle>
                    <activevideoangle>false</activevideoangle>
                    <activeaudioangle>false</activeaudioangle>
                    <clip id="clip-7"/>
                  </angle>
                  <angle>
                    <activevideoangle>true</activevideoangle>
                    <activeaudioangle>true</activeaudioangle>
                    <clip id="clip-8"/>
                  </angle>
                  <angle>
                    <activevideoangle>false</activevideoangle>
                    <activeaudioangle>false</activeaudioangle>
                    <clip id="clip-9"/>
                  </angle>
                  <masterclipid>clip-master</masterclipid>
                </multiclip>
              </clipitem>
              <clipitem id="cs-997">
                <duration>1041</duration>
                <rate>
                  <ntsc>false</ntsc>
                  <timebase>25</timebase>
                </rate>
                <in>84366</in>
                <out>85406</out>
                <start>84366</start>
                <end>85406</end>
                <file id="src-3"/>
                <sourcetrack>
                  <mediatype>video</mediatype>
                  <trackindex>1</trackindex>
                </sourcetrack>
                <multiclip id="mcs-997">
                  <name>MCS-997</name>
                  <masterclipid>clip-master</masterclipid>
                  <collapsed>false</collapsed>
                  <angle>
                    <activevideoangle>false</activevideoangle>
                    <activeaudioangle>false</activeaudioangle>
                    <clip id="clip-1"/>
                  </angle>
                  <angle>
                    <activevideoangle>false</activevideoangle>
                    <activeaudioangle>false</activeaudioangle>
                    <clip id="clip-2"/>
                  </angle>
                  <angle>
                    <activevideoangle>true</activevideoangle>
                    <activeaudioangle>true</activeaudioangle>
                    <clip id="clip-3"/>
                  </angle>
                  <angle>
                    <activevideoangle>false</activevideoangle>
                    <activeaudioangle>false</activeaudioangle>
                    <clip id="clip-4"/>
                  </angle>
                  <angle>
                    <activevideoangle>false</activevideoangle>
                    <activeaudioangle>false</activeaudioangle>
                    <clip id="clip-5"/>
                  </angle>
                  <angle>
                    <activevideoangle>false</activevideoangle>
                    <activeaudioangle>false</activeaudioangle>
                    <clip id="clip-6"/>
                  </angle>
                  <angle>
                    <activevideoangle>false</activevideoangle>
                    <activeaudioangle>false</activeaudioangle>
                    <clip id="clip-7"/>
                  </angle>
                  <angle>
                    <activevideoangle>false</activevideoangle>
                    <activeaudioangle>false</activeaudioangle>
                    <clip id="clip-8"/>
                  </angle>
                  <angle>
                    <activevideoangle>false</activevideoangle>
                    <activeaudioangle>false</activeaudioangle>
                    <clip id="clip-9"/>
                  </angle>
                  <masterclipid>clip-master</masterclipid>
                </multiclip>
              </clipitem>
              <clipitem id="cs-998">
                <duration>229</duration>
                <rate>
                  <ntsc>false</ntsc>
                  <timebase>25</timebase>
                </rate>
                <in>85406</in>
                <out>85634</out>
                <start>85406</start>
                <end>85634</end>
                <file id="src-2"/>
                <sourcetrack>
                  <mediatype>video</mediatype>
                  <trackindex>1</trackindex>
                </sourcetrack>
                <multiclip id="mcs-998">
                  <name>MCS-998</name>
                  <masterclipid>clip-master</masterclipid>
                  <collapsed>false</collapsed>
                  <angle>
                    <activevideoangle>false</activevideoangle>
                    <activeaudioangle>false</activeaudioangle>
                    <clip id="clip-1"/>
                  </angle>
                  <angle>
                    <activevideoangle>true</activevideoangle>
                    <activeaudioangle>true</activeaudioangle>
                    <clip id="clip-2"/>
                  </angle>
                  <angle>
                    <activevideoangle>false</activevideoangle>
                    <activeaudioangle>false</activeaudioangle>
                    <clip id="clip-3"/>
                  </angle>
                  <angle>
                    <activevideoangle>false</activevideoangle>
                    <activeaudioangle>false</activeaudioangle>
                    <clip id="clip-4"/>
                  </angle>
                  <angle>
                    <activevideoangle>false</activevideoangle>
                    <activeaudioangle>false</activeaudioangle>
                    <clip id="clip-5"/>
                  </angle>
                  <angle>
                    <activevideoangle>false</activevideoangle>
                    <activeaudioangle>false</activeaudioangle>
                    <clip id="clip-6"/>
                  </angle>
                  <angle>
                    <activevideoangle>false</activevideoangle>
                    <activeaudioangle>false</activeaudioangle>
                    <clip id="clip-7"/>
                  </angle>
                  <angle>
                    <activevideoangle>false</activevideoangle>
                    <activeaudioangle>false</activeaudioangle>
                    <clip id="clip-8"/>
                  </angle>
                  <angle>
                    <activevideoangle>false</activevideoangle>
                    <activeaudioangle>false</activeaudioangle>
                    <clip id="clip-9"/>
                  </angle>
                  <masterclipid>clip-master</masterclipid>
                </multiclip>
              </clipitem>
              <clipitem id="cs-999">
                <duration>268</duration>
                <rate>
                  <ntsc>false</ntsc>
                  <timebase>25</timebase>
                </rate>
                <in>85634</in>
                <out>85901</out>
                <start>85634</start>
                <end>85901</end>
                <file id="src-3"/>
                <sourcetrack>
                  <mediatype>video</mediatype>
                  <trackindex>1</trackindex>
                </sourcetrack>
                <multiclip id="mcs-999">
                  <name>MCS-999</name>
                  <masterclipid>clip-master</masterclipid>
                  <collapsed>false</collapsed>
                  <angle>
                    <activevideoangle>false</activevideoangle>
                    <activeaudioangle>false</activeaudioangle>
                    <clip id="clip-1"/>
                  </angle>
                  <angle>
                    <activevideoangle>false</activevideoangle>
                    <activeaudioangle>false</activeaudioangle>
                    <clip id="clip-2"/>
                  </angle>
                  <angle>
                    <activevideoangle>true</activevideoangle>
                    <activeaudioangle>true</activeaudioangle>
                    <clip id="clip-3"/>
                  </angle>
                  <angle>
                    <activevideoangle>false</activevideoangle>
                    <activeaudioangle>false</activeaudioangle>
                    <clip id="clip-4"/>
                  </angle>
                  <angle>
                    <activevideoangle>false</activevideoangle>
                    <activeaudioangle>false</activeaudioangle>
                    <clip id="clip-5"/>
                  </angle>
                  <angle>
                    <activevideoangle>false</activevideoangle>
                    <activeaudioangle>false</activeaudioangle>
                    <clip id="clip-6"/>
                  </angle>
                  <angle>
                    <activevideoangle>false</activevideoangle>
                    <activeaudioangle>false</activeaudioangle>
                    <clip id="clip-7"/>
                  </angle>
                  <angle>
                    <activevideoangle>false</activevideoangle>
                    <activeaudioangle>false</activeaudioangle>
                    <clip id="clip-8"/>
                  </angle>
                  <angle>
                    <activevideoangle>false</activevideoangle>
                    <activeaudioangle>false</activeaudioangle>
                    <clip id="clip-9"/>
                  </angle>
                  <masterclipid>clip-master</masterclipid>
                </multiclip>
              </clipitem>
              <clipitem id="cs-1000">
                <duration>113</duration>
                <rate>
                  <ntsc>false</ntsc>
                  <timebase>25</timebase>
                </rate>
                <in>85901</in>
                <out>86013</out>
                <start>85901</start>
                <end>86013</end>
                <file id="src-2"/>
                <sourcetrack>
                  <mediatype>video</mediatype>
                  <trackindex>1</trackindex>
                </sourcetrack>
                <multiclip id="mcs-1000">
                  <name>MCS-1000</name>
                  <masterclipid>clip-master</masterclipid>
                  <collapsed>false</collapsed>
                  <angle>
                    <activevideoangle>false</activevideoangle>
                    <activeaudioangle>false</activeaudioangle>
                    <clip id="clip-1"/>
                  </angle>
                  <angle>
                    <activevideoangle>true</activevideoangle>
                    <activeaudioangle>true</activeaudioangle>
                    <clip id="clip-2"/>
                  </angle>
                  <angle>
                    <activevideoangle>false</activevideoangle>
                    <activeaudioangle>false</activeaudioangle>
                    <clip id="clip-3"/>
                  </angle>
                  <angle>
                    <activevideoangle>false</activevideoangle>
                    <activeaudioangle>false</activeaudioangle>
                    <clip id="clip-4"/>
                  </angle>
                  <angle>
                    <activevideoangle>false</activevideoangle>
                    <activeaudioangle>false</activeaudioangle>
                    <clip id="clip-5"/>
                  </angle>
                  <angle>
                    <activevideoangle>false</activevideoangle>
                    <activeaudioangle>false</activeaudioangle>
                    <clip id="clip-6"/>
                  </angle>
                  <angle>
                    <activevideoangle>false</activevideoangle>
                    <activeaudioangle>false</activeaudioangle>
                    <clip id="clip-7"/>
                  </angle>
                  <angle>
                    <activevideoangle>false</activevideoangle>
                    <activeaudioangle>false</activeaudioangle>
                    <clip id="clip-8"/>
                  </angle>
                  <angle>
                    <activevideoangle>false</activevideoangle>
                    <activeaudioangle>false</activeaudioangle>
                    <clip id="clip-9"/>
                  </angle>
                  <masterclipid>clip-master</masterclipid>
                </multiclip>
              </clipitem>
              <clipitem id="cs-1001">
                <duration>280</duration>
                <rate>
                  <ntsc>false</ntsc>
                  <timebase>25</timebase>
                </rate>
                <in>86013</in>
                <out>86292</out>
                <start>86013</start>
                <end>86292</end>
                <file id="src-7"/>
                <sourcetrack>
                  <mediatype>video</mediatype>
                  <trackindex>1</trackindex>
                </sourcetrack>
                <multiclip id="mcs-1001">
                  <name>MCS-1001</name>
                  <masterclipid>clip-master</masterclipid>
                  <collapsed>false</collapsed>
                  <angle>
                    <activevideoangle>false</activevideoangle>
                    <activeaudioangle>false</activeaudioangle>
                    <clip id="clip-1"/>
                  </angle>
                  <angle>
                    <activevideoangle>false</activevideoangle>
                    <activeaudioangle>false</activeaudioangle>
                    <clip id="clip-2"/>
                  </angle>
                  <angle>
                    <activevideoangle>false</activevideoangle>
                    <activeaudioangle>false</activeaudioangle>
                    <clip id="clip-3"/>
                  </angle>
                  <angle>
                    <activevideoangle>false</activevideoangle>
                    <activeaudioangle>false</activeaudioangle>
                    <clip id="clip-4"/>
                  </angle>
                  <angle>
                    <activevideoangle>false</activevideoangle>
                    <activeaudioangle>false</activeaudioangle>
                    <clip id="clip-5"/>
                  </angle>
                  <angle>
                    <activevideoangle>false</activevideoangle>
                    <activeaudioangle>false</activeaudioangle>
                    <clip id="clip-6"/>
                  </angle>
                  <angle>
                    <activevideoangle>true</activevideoangle>
                    <activeaudioangle>true</activeaudioangle>
                    <clip id="clip-7"/>
                  </angle>
                  <angle>
                    <activevideoangle>false</activevideoangle>
                    <activeaudioangle>false</activeaudioangle>
                    <clip id="clip-8"/>
                  </angle>
                  <angle>
                    <activevideoangle>false</activevideoangle>
                    <activeaudioangle>false</activeaudioangle>
                    <clip id="clip-9"/>
                  </angle>
                  <masterclipid>clip-master</masterclipid>
                </multiclip>
              </clipitem>
              <clipitem id="cs-1002">
                <duration>139</duration>
                <rate>
                  <ntsc>false</ntsc>
                  <timebase>25</timebase>
                </rate>
                <in>86292</in>
                <out>86430</out>
                <start>86292</start>
                <end>86430</end>
                <file id="src-3"/>
                <sourcetrack>
                  <mediatype>video</mediatype>
                  <trackindex>1</trackindex>
                </sourcetrack>
                <multiclip id="mcs-1002">
                  <name>MCS-1002</name>
                  <masterclipid>clip-master</masterclipid>
                  <collapsed>false</collapsed>
                  <angle>
                    <activevideoangle>false</activevideoangle>
                    <activeaudioangle>false</activeaudioangle>
                    <clip id="clip-1"/>
                  </angle>
                  <angle>
                    <activevideoangle>false</activevideoangle>
                    <activeaudioangle>false</activeaudioangle>
                    <clip id="clip-2"/>
                  </angle>
                  <angle>
                    <activevideoangle>true</activevideoangle>
                    <activeaudioangle>true</activeaudioangle>
                    <clip id="clip-3"/>
                  </angle>
                  <angle>
                    <activevideoangle>false</activevideoangle>
                    <activeaudioangle>false</activeaudioangle>
                    <clip id="clip-4"/>
                  </angle>
                  <angle>
                    <activevideoangle>false</activevideoangle>
                    <activeaudioangle>false</activeaudioangle>
                    <clip id="clip-5"/>
                  </angle>
                  <angle>
                    <activevideoangle>false</activevideoangle>
                    <activeaudioangle>false</activeaudioangle>
                    <clip id="clip-6"/>
                  </angle>
                  <angle>
                    <activevideoangle>false</activevideoangle>
                    <activeaudioangle>false</activeaudioangle>
                    <clip id="clip-7"/>
                  </angle>
                  <angle>
                    <activevideoangle>false</activevideoangle>
                    <activeaudioangle>false</activeaudioangle>
                    <clip id="clip-8"/>
                  </angle>
                  <angle>
                    <activevideoangle>false</activevideoangle>
                    <activeaudioangle>false</activeaudioangle>
                    <clip id="clip-9"/>
                  </angle>
                  <masterclipid>clip-master</masterclipid>
                </multiclip>
              </clipitem>
              <clipitem id="cs-1003">
                <duration>132</duration>
                <rate>
                  <ntsc>false</ntsc>
                  <timebase>25</timebase>
                </rate>
                <in>86430</in>
                <out>86561</out>
                <start>86430</start>
                <end>86561</end>
                <file id="src-2"/>
                <sourcetrack>
                  <mediatype>video</mediatype>
                  <trackindex>1</trackindex>
                </sourcetrack>
                <multiclip id="mcs-1003">
                  <name>MCS-1003</name>
                  <masterclipid>clip-master</masterclipid>
                  <collapsed>false</collapsed>
                  <angle>
                    <activevideoangle>false</activevideoangle>
                    <activeaudioangle>false</activeaudioangle>
                    <clip id="clip-1"/>
                  </angle>
                  <angle>
                    <activevideoangle>true</activevideoangle>
                    <activeaudioangle>true</activeaudioangle>
                    <clip id="clip-2"/>
                  </angle>
                  <angle>
                    <activevideoangle>false</activevideoangle>
                    <activeaudioangle>false</activeaudioangle>
                    <clip id="clip-3"/>
                  </angle>
                  <angle>
                    <activevideoangle>false</activevideoangle>
                    <activeaudioangle>false</activeaudioangle>
                    <clip id="clip-4"/>
                  </angle>
                  <angle>
                    <activevideoangle>false</activevideoangle>
                    <activeaudioangle>false</activeaudioangle>
                    <clip id="clip-5"/>
                  </angle>
                  <angle>
                    <activevideoangle>false</activevideoangle>
                    <activeaudioangle>false</activeaudioangle>
                    <clip id="clip-6"/>
                  </angle>
                  <angle>
                    <activevideoangle>false</activevideoangle>
                    <activeaudioangle>false</activeaudioangle>
                    <clip id="clip-7"/>
                  </angle>
                  <angle>
                    <activevideoangle>false</activevideoangle>
                    <activeaudioangle>false</activeaudioangle>
                    <clip id="clip-8"/>
                  </angle>
                  <angle>
                    <activevideoangle>false</activevideoangle>
                    <activeaudioangle>false</activeaudioangle>
                    <clip id="clip-9"/>
                  </angle>
                  <masterclipid>clip-master</masterclipid>
                </multiclip>
              </clipitem>
              <clipitem id="cs-1004">
                <duration>46</duration>
                <rate>
                  <ntsc>false</ntsc>
                  <timebase>25</timebase>
                </rate>
                <in>86561</in>
                <out>86606</out>
                <start>86561</start>
                <end>86606</end>
                <file id="src-3"/>
                <sourcetrack>
                  <mediatype>video</mediatype>
                  <trackindex>1</trackindex>
                </sourcetrack>
                <multiclip id="mcs-1004">
                  <name>MCS-1004</name>
                  <masterclipid>clip-master</masterclipid>
                  <collapsed>false</collapsed>
                  <angle>
                    <activevideoangle>false</activevideoangle>
                    <activeaudioangle>false</activeaudioangle>
                    <clip id="clip-1"/>
                  </angle>
                  <angle>
                    <activevideoangle>false</activevideoangle>
                    <activeaudioangle>false</activeaudioangle>
                    <clip id="clip-2"/>
                  </angle>
                  <angle>
                    <activevideoangle>true</activevideoangle>
                    <activeaudioangle>true</activeaudioangle>
                    <clip id="clip-3"/>
                  </angle>
                  <angle>
                    <activevideoangle>false</activevideoangle>
                    <activeaudioangle>false</activeaudioangle>
                    <clip id="clip-4"/>
                  </angle>
                  <angle>
                    <activevideoangle>false</activevideoangle>
                    <activeaudioangle>false</activeaudioangle>
                    <clip id="clip-5"/>
                  </angle>
                  <angle>
                    <activevideoangle>false</activevideoangle>
                    <activeaudioangle>false</activeaudioangle>
                    <clip id="clip-6"/>
                  </angle>
                  <angle>
                    <activevideoangle>false</activevideoangle>
                    <activeaudioangle>false</activeaudioangle>
                    <clip id="clip-7"/>
                  </angle>
                  <angle>
                    <activevideoangle>false</activevideoangle>
                    <activeaudioangle>false</activeaudioangle>
                    <clip id="clip-8"/>
                  </angle>
                  <angle>
                    <activevideoangle>false</activevideoangle>
                    <activeaudioangle>false</activeaudioangle>
                    <clip id="clip-9"/>
                  </angle>
                  <masterclipid>clip-master</masterclipid>
                </multiclip>
              </clipitem>
              <clipitem id="cs-1005">
                <duration>243</duration>
                <rate>
                  <ntsc>false</ntsc>
                  <timebase>25</timebase>
                </rate>
                <in>86606</in>
                <out>86848</out>
                <start>86606</start>
                <end>86848</end>
                <file id="src-5"/>
                <sourcetrack>
                  <mediatype>video</mediatype>
                  <trackindex>1</trackindex>
                </sourcetrack>
                <multiclip id="mcs-1005">
                  <name>MCS-1005</name>
                  <masterclipid>clip-master</masterclipid>
                  <collapsed>false</collapsed>
                  <angle>
                    <activevideoangle>false</activevideoangle>
                    <activeaudioangle>false</activeaudioangle>
                    <clip id="clip-1"/>
                  </angle>
                  <angle>
                    <activevideoangle>false</activevideoangle>
                    <activeaudioangle>false</activeaudioangle>
                    <clip id="clip-2"/>
                  </angle>
                  <angle>
                    <activevideoangle>false</activevideoangle>
                    <activeaudioangle>false</activeaudioangle>
                    <clip id="clip-3"/>
                  </angle>
                  <angle>
                    <activevideoangle>false</activevideoangle>
                    <activeaudioangle>false</activeaudioangle>
                    <clip id="clip-4"/>
                  </angle>
                  <angle>
                    <activevideoangle>true</activevideoangle>
                    <activeaudioangle>true</activeaudioangle>
                    <clip id="clip-5"/>
                  </angle>
                  <angle>
                    <activevideoangle>false</activevideoangle>
                    <activeaudioangle>false</activeaudioangle>
                    <clip id="clip-6"/>
                  </angle>
                  <angle>
                    <activevideoangle>false</activevideoangle>
                    <activeaudioangle>false</activeaudioangle>
                    <clip id="clip-7"/>
                  </angle>
                  <angle>
                    <activevideoangle>false</activevideoangle>
                    <activeaudioangle>false</activeaudioangle>
                    <clip id="clip-8"/>
                  </angle>
                  <angle>
                    <activevideoangle>false</activevideoangle>
                    <activeaudioangle>false</activeaudioangle>
                    <clip id="clip-9"/>
                  </angle>
                  <masterclipid>clip-master</masterclipid>
                </multiclip>
              </clipitem>
              <clipitem id="cs-1006">
                <duration>186</duration>
                <rate>
                  <ntsc>false</ntsc>
                  <timebase>25</timebase>
                </rate>
                <in>86848</in>
                <out>87033</out>
                <start>86848</start>
                <end>87033</end>
                <file id="src-3"/>
                <sourcetrack>
                  <mediatype>video</mediatype>
                  <trackindex>1</trackindex>
                </sourcetrack>
                <multiclip id="mcs-1006">
                  <name>MCS-1006</name>
                  <masterclipid>clip-master</masterclipid>
                  <collapsed>false</collapsed>
                  <angle>
                    <activevideoangle>false</activevideoangle>
                    <activeaudioangle>false</activeaudioangle>
                    <clip id="clip-1"/>
                  </angle>
                  <angle>
                    <activevideoangle>false</activevideoangle>
                    <activeaudioangle>false</activeaudioangle>
                    <clip id="clip-2"/>
                  </angle>
                  <angle>
                    <activevideoangle>true</activevideoangle>
                    <activeaudioangle>true</activeaudioangle>
                    <clip id="clip-3"/>
                  </angle>
                  <angle>
                    <activevideoangle>false</activevideoangle>
                    <activeaudioangle>false</activeaudioangle>
                    <clip id="clip-4"/>
                  </angle>
                  <angle>
                    <activevideoangle>false</activevideoangle>
                    <activeaudioangle>false</activeaudioangle>
                    <clip id="clip-5"/>
                  </angle>
                  <angle>
                    <activevideoangle>false</activevideoangle>
                    <activeaudioangle>false</activeaudioangle>
                    <clip id="clip-6"/>
                  </angle>
                  <angle>
                    <activevideoangle>false</activevideoangle>
                    <activeaudioangle>false</activeaudioangle>
                    <clip id="clip-7"/>
                  </angle>
                  <angle>
                    <activevideoangle>false</activevideoangle>
                    <activeaudioangle>false</activeaudioangle>
                    <clip id="clip-8"/>
                  </angle>
                  <angle>
                    <activevideoangle>false</activevideoangle>
                    <activeaudioangle>false</activeaudioangle>
                    <clip id="clip-9"/>
                  </angle>
                  <masterclipid>clip-master</masterclipid>
                </multiclip>
              </clipitem>
              <clipitem id="cs-1007">
                <duration>95</duration>
                <rate>
                  <ntsc>false</ntsc>
                  <timebase>25</timebase>
                </rate>
                <in>87033</in>
                <out>87127</out>
                <start>87033</start>
                <end>87127</end>
                <file id="src-2"/>
                <sourcetrack>
                  <mediatype>video</mediatype>
                  <trackindex>1</trackindex>
                </sourcetrack>
                <multiclip id="mcs-1007">
                  <name>MCS-1007</name>
                  <masterclipid>clip-master</masterclipid>
                  <collapsed>false</collapsed>
                  <angle>
                    <activevideoangle>false</activevideoangle>
                    <activeaudioangle>false</activeaudioangle>
                    <clip id="clip-1"/>
                  </angle>
                  <angle>
                    <activevideoangle>true</activevideoangle>
                    <activeaudioangle>true</activeaudioangle>
                    <clip id="clip-2"/>
                  </angle>
                  <angle>
                    <activevideoangle>false</activevideoangle>
                    <activeaudioangle>false</activeaudioangle>
                    <clip id="clip-3"/>
                  </angle>
                  <angle>
                    <activevideoangle>false</activevideoangle>
                    <activeaudioangle>false</activeaudioangle>
                    <clip id="clip-4"/>
                  </angle>
                  <angle>
                    <activevideoangle>false</activevideoangle>
                    <activeaudioangle>false</activeaudioangle>
                    <clip id="clip-5"/>
                  </angle>
                  <angle>
                    <activevideoangle>false</activevideoangle>
                    <activeaudioangle>false</activeaudioangle>
                    <clip id="clip-6"/>
                  </angle>
                  <angle>
                    <activevideoangle>false</activevideoangle>
                    <activeaudioangle>false</activeaudioangle>
                    <clip id="clip-7"/>
                  </angle>
                  <angle>
                    <activevideoangle>false</activevideoangle>
                    <activeaudioangle>false</activeaudioangle>
                    <clip id="clip-8"/>
                  </angle>
                  <angle>
                    <activevideoangle>false</activevideoangle>
                    <activeaudioangle>false</activeaudioangle>
                    <clip id="clip-9"/>
                  </angle>
                  <masterclipid>clip-master</masterclipid>
                </multiclip>
              </clipitem>
              <clipitem id="cs-1008">
                <duration>85</duration>
                <rate>
                  <ntsc>false</ntsc>
                  <timebase>25</timebase>
                </rate>
                <in>87127</in>
                <out>87211</out>
                <start>87127</start>
                <end>87211</end>
                <file id="src-3"/>
                <sourcetrack>
                  <mediatype>video</mediatype>
                  <trackindex>1</trackindex>
                </sourcetrack>
                <multiclip id="mcs-1008">
                  <name>MCS-1008</name>
                  <masterclipid>clip-master</masterclipid>
                  <collapsed>false</collapsed>
                  <angle>
                    <activevideoangle>false</activevideoangle>
                    <activeaudioangle>false</activeaudioangle>
                    <clip id="clip-1"/>
                  </angle>
                  <angle>
                    <activevideoangle>false</activevideoangle>
                    <activeaudioangle>false</activeaudioangle>
                    <clip id="clip-2"/>
                  </angle>
                  <angle>
                    <activevideoangle>true</activevideoangle>
                    <activeaudioangle>true</activeaudioangle>
                    <clip id="clip-3"/>
                  </angle>
                  <angle>
                    <activevideoangle>false</activevideoangle>
                    <activeaudioangle>false</activeaudioangle>
                    <clip id="clip-4"/>
                  </angle>
                  <angle>
                    <activevideoangle>false</activevideoangle>
                    <activeaudioangle>false</activeaudioangle>
                    <clip id="clip-5"/>
                  </angle>
                  <angle>
                    <activevideoangle>false</activevideoangle>
                    <activeaudioangle>false</activeaudioangle>
                    <clip id="clip-6"/>
                  </angle>
                  <angle>
                    <activevideoangle>false</activevideoangle>
                    <activeaudioangle>false</activeaudioangle>
                    <clip id="clip-7"/>
                  </angle>
                  <angle>
                    <activevideoangle>false</activevideoangle>
                    <activeaudioangle>false</activeaudioangle>
                    <clip id="clip-8"/>
                  </angle>
                  <angle>
                    <activevideoangle>false</activevideoangle>
                    <activeaudioangle>false</activeaudioangle>
                    <clip id="clip-9"/>
                  </angle>
                  <masterclipid>clip-master</masterclipid>
                </multiclip>
              </clipitem>
              <clipitem id="cs-1009">
                <duration>182</duration>
                <rate>
                  <ntsc>false</ntsc>
                  <timebase>25</timebase>
                </rate>
                <in>87211</in>
                <out>87392</out>
                <start>87211</start>
                <end>87392</end>
                <file id="src-7"/>
                <sourcetrack>
                  <mediatype>video</mediatype>
                  <trackindex>1</trackindex>
                </sourcetrack>
                <multiclip id="mcs-1009">
                  <name>MCS-1009</name>
                  <masterclipid>clip-master</masterclipid>
                  <collapsed>false</collapsed>
                  <angle>
                    <activevideoangle>false</activevideoangle>
                    <activeaudioangle>false</activeaudioangle>
                    <clip id="clip-1"/>
                  </angle>
                  <angle>
                    <activevideoangle>false</activevideoangle>
                    <activeaudioangle>false</activeaudioangle>
                    <clip id="clip-2"/>
                  </angle>
                  <angle>
                    <activevideoangle>false</activevideoangle>
                    <activeaudioangle>false</activeaudioangle>
                    <clip id="clip-3"/>
                  </angle>
                  <angle>
                    <activevideoangle>false</activevideoangle>
                    <activeaudioangle>false</activeaudioangle>
                    <clip id="clip-4"/>
                  </angle>
                  <angle>
                    <activevideoangle>false</activevideoangle>
                    <activeaudioangle>false</activeaudioangle>
                    <clip id="clip-5"/>
                  </angle>
                  <angle>
                    <activevideoangle>false</activevideoangle>
                    <activeaudioangle>false</activeaudioangle>
                    <clip id="clip-6"/>
                  </angle>
                  <angle>
                    <activevideoangle>true</activevideoangle>
                    <activeaudioangle>true</activeaudioangle>
                    <clip id="clip-7"/>
                  </angle>
                  <angle>
                    <activevideoangle>false</activevideoangle>
                    <activeaudioangle>false</activeaudioangle>
                    <clip id="clip-8"/>
                  </angle>
                  <angle>
                    <activevideoangle>false</activevideoangle>
                    <activeaudioangle>false</activeaudioangle>
                    <clip id="clip-9"/>
                  </angle>
                  <masterclipid>clip-master</masterclipid>
                </multiclip>
              </clipitem>
              <clipitem id="cs-1010">
                <duration>211</duration>
                <rate>
                  <ntsc>false</ntsc>
                  <timebase>25</timebase>
                </rate>
                <in>87392</in>
                <out>87602</out>
                <start>87392</start>
                <end>87602</end>
                <file id="src-4"/>
                <sourcetrack>
                  <mediatype>video</mediatype>
                  <trackindex>1</trackindex>
                </sourcetrack>
                <multiclip id="mcs-1010">
                  <name>MCS-1010</name>
                  <masterclipid>clip-master</masterclipid>
                  <collapsed>false</collapsed>
                  <angle>
                    <activevideoangle>false</activevideoangle>
                    <activeaudioangle>false</activeaudioangle>
                    <clip id="clip-1"/>
                  </angle>
                  <angle>
                    <activevideoangle>false</activevideoangle>
                    <activeaudioangle>false</activeaudioangle>
                    <clip id="clip-2"/>
                  </angle>
                  <angle>
                    <activevideoangle>false</activevideoangle>
                    <activeaudioangle>false</activeaudioangle>
                    <clip id="clip-3"/>
                  </angle>
                  <angle>
                    <activevideoangle>true</activevideoangle>
                    <activeaudioangle>true</activeaudioangle>
                    <clip id="clip-4"/>
                  </angle>
                  <angle>
                    <activevideoangle>false</activevideoangle>
                    <activeaudioangle>false</activeaudioangle>
                    <clip id="clip-5"/>
                  </angle>
                  <angle>
                    <activevideoangle>false</activevideoangle>
                    <activeaudioangle>false</activeaudioangle>
                    <clip id="clip-6"/>
                  </angle>
                  <angle>
                    <activevideoangle>false</activevideoangle>
                    <activeaudioangle>false</activeaudioangle>
                    <clip id="clip-7"/>
                  </angle>
                  <angle>
                    <activevideoangle>false</activevideoangle>
                    <activeaudioangle>false</activeaudioangle>
                    <clip id="clip-8"/>
                  </angle>
                  <angle>
                    <activevideoangle>false</activevideoangle>
                    <activeaudioangle>false</activeaudioangle>
                    <clip id="clip-9"/>
                  </angle>
                  <masterclipid>clip-master</masterclipid>
                </multiclip>
              </clipitem>
              <clipitem id="cs-1011">
                <duration>101</duration>
                <rate>
                  <ntsc>false</ntsc>
                  <timebase>25</timebase>
                </rate>
                <in>87602</in>
                <out>87702</out>
                <start>87602</start>
                <end>87702</end>
                <file id="src-3"/>
                <sourcetrack>
                  <mediatype>video</mediatype>
                  <trackindex>1</trackindex>
                </sourcetrack>
                <multiclip id="mcs-1011">
                  <name>MCS-1011</name>
                  <masterclipid>clip-master</masterclipid>
                  <collapsed>false</collapsed>
                  <angle>
                    <activevideoangle>false</activevideoangle>
                    <activeaudioangle>false</activeaudioangle>
                    <clip id="clip-1"/>
                  </angle>
                  <angle>
                    <activevideoangle>false</activevideoangle>
                    <activeaudioangle>false</activeaudioangle>
                    <clip id="clip-2"/>
                  </angle>
                  <angle>
                    <activevideoangle>true</activevideoangle>
                    <activeaudioangle>true</activeaudioangle>
                    <clip id="clip-3"/>
                  </angle>
                  <angle>
                    <activevideoangle>false</activevideoangle>
                    <activeaudioangle>false</activeaudioangle>
                    <clip id="clip-4"/>
                  </angle>
                  <angle>
                    <activevideoangle>false</activevideoangle>
                    <activeaudioangle>false</activeaudioangle>
                    <clip id="clip-5"/>
                  </angle>
                  <angle>
                    <activevideoangle>false</activevideoangle>
                    <activeaudioangle>false</activeaudioangle>
                    <clip id="clip-6"/>
                  </angle>
                  <angle>
                    <activevideoangle>false</activevideoangle>
                    <activeaudioangle>false</activeaudioangle>
                    <clip id="clip-7"/>
                  </angle>
                  <angle>
                    <activevideoangle>false</activevideoangle>
                    <activeaudioangle>false</activeaudioangle>
                    <clip id="clip-8"/>
                  </angle>
                  <angle>
                    <activevideoangle>false</activevideoangle>
                    <activeaudioangle>false</activeaudioangle>
                    <clip id="clip-9"/>
                  </angle>
                  <masterclipid>clip-master</masterclipid>
                </multiclip>
              </clipitem>
              <clipitem id="cs-1012">
                <duration>81</duration>
                <rate>
                  <ntsc>false</ntsc>
                  <timebase>25</timebase>
                </rate>
                <in>87702</in>
                <out>87782</out>
                <start>87702</start>
                <end>87782</end>
                <file id="src-4"/>
                <sourcetrack>
                  <mediatype>video</mediatype>
                  <trackindex>1</trackindex>
                </sourcetrack>
                <multiclip id="mcs-1012">
                  <name>MCS-1012</name>
                  <masterclipid>clip-master</masterclipid>
                  <collapsed>false</collapsed>
                  <angle>
                    <activevideoangle>false</activevideoangle>
                    <activeaudioangle>false</activeaudioangle>
                    <clip id="clip-1"/>
                  </angle>
                  <angle>
                    <activevideoangle>false</activevideoangle>
                    <activeaudioangle>false</activeaudioangle>
                    <clip id="clip-2"/>
                  </angle>
                  <angle>
                    <activevideoangle>false</activevideoangle>
                    <activeaudioangle>false</activeaudioangle>
                    <clip id="clip-3"/>
                  </angle>
                  <angle>
                    <activevideoangle>true</activevideoangle>
                    <activeaudioangle>true</activeaudioangle>
                    <clip id="clip-4"/>
                  </angle>
                  <angle>
                    <activevideoangle>false</activevideoangle>
                    <activeaudioangle>false</activeaudioangle>
                    <clip id="clip-5"/>
                  </angle>
                  <angle>
                    <activevideoangle>false</activevideoangle>
                    <activeaudioangle>false</activeaudioangle>
                    <clip id="clip-6"/>
                  </angle>
                  <angle>
                    <activevideoangle>false</activevideoangle>
                    <activeaudioangle>false</activeaudioangle>
                    <clip id="clip-7"/>
                  </angle>
                  <angle>
                    <activevideoangle>false</activevideoangle>
                    <activeaudioangle>false</activeaudioangle>
                    <clip id="clip-8"/>
                  </angle>
                  <angle>
                    <activevideoangle>false</activevideoangle>
                    <activeaudioangle>false</activeaudioangle>
                    <clip id="clip-9"/>
                  </angle>
                  <masterclipid>clip-master</masterclipid>
                </multiclip>
              </clipitem>
              <clipitem id="cs-1013">
                <duration>174</duration>
                <rate>
                  <ntsc>false</ntsc>
                  <timebase>25</timebase>
                </rate>
                <in>87782</in>
                <out>87955</out>
                <start>87782</start>
                <end>87955</end>
                <file id="src-3"/>
                <sourcetrack>
                  <mediatype>video</mediatype>
                  <trackindex>1</trackindex>
                </sourcetrack>
                <multiclip id="mcs-1013">
                  <name>MCS-1013</name>
                  <masterclipid>clip-master</masterclipid>
                  <collapsed>false</collapsed>
                  <angle>
                    <activevideoangle>false</activevideoangle>
                    <activeaudioangle>false</activeaudioangle>
                    <clip id="clip-1"/>
                  </angle>
                  <angle>
                    <activevideoangle>false</activevideoangle>
                    <activeaudioangle>false</activeaudioangle>
                    <clip id="clip-2"/>
                  </angle>
                  <angle>
                    <activevideoangle>true</activevideoangle>
                    <activeaudioangle>true</activeaudioangle>
                    <clip id="clip-3"/>
                  </angle>
                  <angle>
                    <activevideoangle>false</activevideoangle>
                    <activeaudioangle>false</activeaudioangle>
                    <clip id="clip-4"/>
                  </angle>
                  <angle>
                    <activevideoangle>false</activevideoangle>
                    <activeaudioangle>false</activeaudioangle>
                    <clip id="clip-5"/>
                  </angle>
                  <angle>
                    <activevideoangle>false</activevideoangle>
                    <activeaudioangle>false</activeaudioangle>
                    <clip id="clip-6"/>
                  </angle>
                  <angle>
                    <activevideoangle>false</activevideoangle>
                    <activeaudioangle>false</activeaudioangle>
                    <clip id="clip-7"/>
                  </angle>
                  <angle>
                    <activevideoangle>false</activevideoangle>
                    <activeaudioangle>false</activeaudioangle>
                    <clip id="clip-8"/>
                  </angle>
                  <angle>
                    <activevideoangle>false</activevideoangle>
                    <activeaudioangle>false</activeaudioangle>
                    <clip id="clip-9"/>
                  </angle>
                  <masterclipid>clip-master</masterclipid>
                </multiclip>
              </clipitem>
              <clipitem id="cs-1014">
                <duration>143</duration>
                <rate>
                  <ntsc>false</ntsc>
                  <timebase>25</timebase>
                </rate>
                <in>87955</in>
                <out>88097</out>
                <start>87955</start>
                <end>88097</end>
                <file id="src-2"/>
                <sourcetrack>
                  <mediatype>video</mediatype>
                  <trackindex>1</trackindex>
                </sourcetrack>
                <multiclip id="mcs-1014">
                  <name>MCS-1014</name>
                  <masterclipid>clip-master</masterclipid>
                  <collapsed>false</collapsed>
                  <angle>
                    <activevideoangle>false</activevideoangle>
                    <activeaudioangle>false</activeaudioangle>
                    <clip id="clip-1"/>
                  </angle>
                  <angle>
                    <activevideoangle>true</activevideoangle>
                    <activeaudioangle>true</activeaudioangle>
                    <clip id="clip-2"/>
                  </angle>
                  <angle>
                    <activevideoangle>false</activevideoangle>
                    <activeaudioangle>false</activeaudioangle>
                    <clip id="clip-3"/>
                  </angle>
                  <angle>
                    <activevideoangle>false</activevideoangle>
                    <activeaudioangle>false</activeaudioangle>
                    <clip id="clip-4"/>
                  </angle>
                  <angle>
                    <activevideoangle>false</activevideoangle>
                    <activeaudioangle>false</activeaudioangle>
                    <clip id="clip-5"/>
                  </angle>
                  <angle>
                    <activevideoangle>false</activevideoangle>
                    <activeaudioangle>false</activeaudioangle>
                    <clip id="clip-6"/>
                  </angle>
                  <angle>
                    <activevideoangle>false</activevideoangle>
                    <activeaudioangle>false</activeaudioangle>
                    <clip id="clip-7"/>
                  </angle>
                  <angle>
                    <activevideoangle>false</activevideoangle>
                    <activeaudioangle>false</activeaudioangle>
                    <clip id="clip-8"/>
                  </angle>
                  <angle>
                    <activevideoangle>false</activevideoangle>
                    <activeaudioangle>false</activeaudioangle>
                    <clip id="clip-9"/>
                  </angle>
                  <masterclipid>clip-master</masterclipid>
                </multiclip>
              </clipitem>
              <clipitem id="cs-1015">
                <duration>156</duration>
                <rate>
                  <ntsc>false</ntsc>
                  <timebase>25</timebase>
                </rate>
                <in>88097</in>
                <out>88252</out>
                <start>88097</start>
                <end>88252</end>
                <file id="src-3"/>
                <sourcetrack>
                  <mediatype>video</mediatype>
                  <trackindex>1</trackindex>
                </sourcetrack>
                <multiclip id="mcs-1015">
                  <name>MCS-1015</name>
                  <masterclipid>clip-master</masterclipid>
                  <collapsed>false</collapsed>
                  <angle>
                    <activevideoangle>false</activevideoangle>
                    <activeaudioangle>false</activeaudioangle>
                    <clip id="clip-1"/>
                  </angle>
                  <angle>
                    <activevideoangle>false</activevideoangle>
                    <activeaudioangle>false</activeaudioangle>
                    <clip id="clip-2"/>
                  </angle>
                  <angle>
                    <activevideoangle>true</activevideoangle>
                    <activeaudioangle>true</activeaudioangle>
                    <clip id="clip-3"/>
                  </angle>
                  <angle>
                    <activevideoangle>false</activevideoangle>
                    <activeaudioangle>false</activeaudioangle>
                    <clip id="clip-4"/>
                  </angle>
                  <angle>
                    <activevideoangle>false</activevideoangle>
                    <activeaudioangle>false</activeaudioangle>
                    <clip id="clip-5"/>
                  </angle>
                  <angle>
                    <activevideoangle>false</activevideoangle>
                    <activeaudioangle>false</activeaudioangle>
                    <clip id="clip-6"/>
                  </angle>
                  <angle>
                    <activevideoangle>false</activevideoangle>
                    <activeaudioangle>false</activeaudioangle>
                    <clip id="clip-7"/>
                  </angle>
                  <angle>
                    <activevideoangle>false</activevideoangle>
                    <activeaudioangle>false</activeaudioangle>
                    <clip id="clip-8"/>
                  </angle>
                  <angle>
                    <activevideoangle>false</activevideoangle>
                    <activeaudioangle>false</activeaudioangle>
                    <clip id="clip-9"/>
                  </angle>
                  <masterclipid>clip-master</masterclipid>
                </multiclip>
              </clipitem>
              <clipitem id="cs-1016">
                <duration>170</duration>
                <rate>
                  <ntsc>false</ntsc>
                  <timebase>25</timebase>
                </rate>
                <in>88252</in>
                <out>88421</out>
                <start>88252</start>
                <end>88421</end>
                <file id="src-1"/>
                <sourcetrack>
                  <mediatype>video</mediatype>
                  <trackindex>1</trackindex>
                </sourcetrack>
                <multiclip id="mcs-1016">
                  <name>MCS-1016</name>
                  <masterclipid>clip-master</masterclipid>
                  <collapsed>false</collapsed>
                  <angle>
                    <activevideoangle>true</activevideoangle>
                    <activeaudioangle>true</activeaudioangle>
                    <clip id="clip-1"/>
                  </angle>
                  <angle>
                    <activevideoangle>false</activevideoangle>
                    <activeaudioangle>false</activeaudioangle>
                    <clip id="clip-2"/>
                  </angle>
                  <angle>
                    <activevideoangle>false</activevideoangle>
                    <activeaudioangle>false</activeaudioangle>
                    <clip id="clip-3"/>
                  </angle>
                  <angle>
                    <activevideoangle>false</activevideoangle>
                    <activeaudioangle>false</activeaudioangle>
                    <clip id="clip-4"/>
                  </angle>
                  <angle>
                    <activevideoangle>false</activevideoangle>
                    <activeaudioangle>false</activeaudioangle>
                    <clip id="clip-5"/>
                  </angle>
                  <angle>
                    <activevideoangle>false</activevideoangle>
                    <activeaudioangle>false</activeaudioangle>
                    <clip id="clip-6"/>
                  </angle>
                  <angle>
                    <activevideoangle>false</activevideoangle>
                    <activeaudioangle>false</activeaudioangle>
                    <clip id="clip-7"/>
                  </angle>
                  <angle>
                    <activevideoangle>false</activevideoangle>
                    <activeaudioangle>false</activeaudioangle>
                    <clip id="clip-8"/>
                  </angle>
                  <angle>
                    <activevideoangle>false</activevideoangle>
                    <activeaudioangle>false</activeaudioangle>
                    <clip id="clip-9"/>
                  </angle>
                  <masterclipid>clip-master</masterclipid>
                </multiclip>
              </clipitem>
              <clipitem id="cs-1017">
                <duration>79</duration>
                <rate>
                  <ntsc>false</ntsc>
                  <timebase>25</timebase>
                </rate>
                <in>88421</in>
                <out>88499</out>
                <start>88421</start>
                <end>88499</end>
                <file id="src-7"/>
                <sourcetrack>
                  <mediatype>video</mediatype>
                  <trackindex>1</trackindex>
                </sourcetrack>
                <multiclip id="mcs-1017">
                  <name>MCS-1017</name>
                  <masterclipid>clip-master</masterclipid>
                  <collapsed>false</collapsed>
                  <angle>
                    <activevideoangle>false</activevideoangle>
                    <activeaudioangle>false</activeaudioangle>
                    <clip id="clip-1"/>
                  </angle>
                  <angle>
                    <activevideoangle>false</activevideoangle>
                    <activeaudioangle>false</activeaudioangle>
                    <clip id="clip-2"/>
                  </angle>
                  <angle>
                    <activevideoangle>false</activevideoangle>
                    <activeaudioangle>false</activeaudioangle>
                    <clip id="clip-3"/>
                  </angle>
                  <angle>
                    <activevideoangle>false</activevideoangle>
                    <activeaudioangle>false</activeaudioangle>
                    <clip id="clip-4"/>
                  </angle>
                  <angle>
                    <activevideoangle>false</activevideoangle>
                    <activeaudioangle>false</activeaudioangle>
                    <clip id="clip-5"/>
                  </angle>
                  <angle>
                    <activevideoangle>false</activevideoangle>
                    <activeaudioangle>false</activeaudioangle>
                    <clip id="clip-6"/>
                  </angle>
                  <angle>
                    <activevideoangle>true</activevideoangle>
                    <activeaudioangle>true</activeaudioangle>
                    <clip id="clip-7"/>
                  </angle>
                  <angle>
                    <activevideoangle>false</activevideoangle>
                    <activeaudioangle>false</activeaudioangle>
                    <clip id="clip-8"/>
                  </angle>
                  <angle>
                    <activevideoangle>false</activevideoangle>
                    <activeaudioangle>false</activeaudioangle>
                    <clip id="clip-9"/>
                  </angle>
                  <masterclipid>clip-master</masterclipid>
                </multiclip>
              </clipitem>
              <clipitem id="cs-1018">
                <duration>45</duration>
                <rate>
                  <ntsc>false</ntsc>
                  <timebase>25</timebase>
                </rate>
                <in>88499</in>
                <out>88543</out>
                <start>88499</start>
                <end>88543</end>
                <file id="src-4"/>
                <sourcetrack>
                  <mediatype>video</mediatype>
                  <trackindex>1</trackindex>
                </sourcetrack>
                <multiclip id="mcs-1018">
                  <name>MCS-1018</name>
                  <masterclipid>clip-master</masterclipid>
                  <collapsed>false</collapsed>
                  <angle>
                    <activevideoangle>false</activevideoangle>
                    <activeaudioangle>false</activeaudioangle>
                    <clip id="clip-1"/>
                  </angle>
                  <angle>
                    <activevideoangle>false</activevideoangle>
                    <activeaudioangle>false</activeaudioangle>
                    <clip id="clip-2"/>
                  </angle>
                  <angle>
                    <activevideoangle>false</activevideoangle>
                    <activeaudioangle>false</activeaudioangle>
                    <clip id="clip-3"/>
                  </angle>
                  <angle>
                    <activevideoangle>true</activevideoangle>
                    <activeaudioangle>true</activeaudioangle>
                    <clip id="clip-4"/>
                  </angle>
                  <angle>
                    <activevideoangle>false</activevideoangle>
                    <activeaudioangle>false</activeaudioangle>
                    <clip id="clip-5"/>
                  </angle>
                  <angle>
                    <activevideoangle>false</activevideoangle>
                    <activeaudioangle>false</activeaudioangle>
                    <clip id="clip-6"/>
                  </angle>
                  <angle>
                    <activevideoangle>false</activevideoangle>
                    <activeaudioangle>false</activeaudioangle>
                    <clip id="clip-7"/>
                  </angle>
                  <angle>
                    <activevideoangle>false</activevideoangle>
                    <activeaudioangle>false</activeaudioangle>
                    <clip id="clip-8"/>
                  </angle>
                  <angle>
                    <activevideoangle>false</activevideoangle>
                    <activeaudioangle>false</activeaudioangle>
                    <clip id="clip-9"/>
                  </angle>
                  <masterclipid>clip-master</masterclipid>
                </multiclip>
              </clipitem>
              <clipitem id="cs-1019">
                <duration>41</duration>
                <rate>
                  <ntsc>false</ntsc>
                  <timebase>25</timebase>
                </rate>
                <in>88543</in>
                <out>88583</out>
                <start>88543</start>
                <end>88583</end>
                <file id="src-3"/>
                <sourcetrack>
                  <mediatype>video</mediatype>
                  <trackindex>1</trackindex>
                </sourcetrack>
                <multiclip id="mcs-1019">
                  <name>MCS-1019</name>
                  <masterclipid>clip-master</masterclipid>
                  <collapsed>false</collapsed>
                  <angle>
                    <activevideoangle>false</activevideoangle>
                    <activeaudioangle>false</activeaudioangle>
                    <clip id="clip-1"/>
                  </angle>
                  <angle>
                    <activevideoangle>false</activevideoangle>
                    <activeaudioangle>false</activeaudioangle>
                    <clip id="clip-2"/>
                  </angle>
                  <angle>
                    <activevideoangle>true</activevideoangle>
                    <activeaudioangle>true</activeaudioangle>
                    <clip id="clip-3"/>
                  </angle>
                  <angle>
                    <activevideoangle>false</activevideoangle>
                    <activeaudioangle>false</activeaudioangle>
                    <clip id="clip-4"/>
                  </angle>
                  <angle>
                    <activevideoangle>false</activevideoangle>
                    <activeaudioangle>false</activeaudioangle>
                    <clip id="clip-5"/>
                  </angle>
                  <angle>
                    <activevideoangle>false</activevideoangle>
                    <activeaudioangle>false</activeaudioangle>
                    <clip id="clip-6"/>
                  </angle>
                  <angle>
                    <activevideoangle>false</activevideoangle>
                    <activeaudioangle>false</activeaudioangle>
                    <clip id="clip-7"/>
                  </angle>
                  <angle>
                    <activevideoangle>false</activevideoangle>
                    <activeaudioangle>false</activeaudioangle>
                    <clip id="clip-8"/>
                  </angle>
                  <angle>
                    <activevideoangle>false</activevideoangle>
                    <activeaudioangle>false</activeaudioangle>
                    <clip id="clip-9"/>
                  </angle>
                  <masterclipid>clip-master</masterclipid>
                </multiclip>
              </clipitem>
              <clipitem id="cs-1020">
                <duration>156</duration>
                <rate>
                  <ntsc>false</ntsc>
                  <timebase>25</timebase>
                </rate>
                <in>88583</in>
                <out>88738</out>
                <start>88583</start>
                <end>88738</end>
                <file id="src-2"/>
                <sourcetrack>
                  <mediatype>video</mediatype>
                  <trackindex>1</trackindex>
                </sourcetrack>
                <multiclip id="mcs-1020">
                  <name>MCS-1020</name>
                  <masterclipid>clip-master</masterclipid>
                  <collapsed>false</collapsed>
                  <angle>
                    <activevideoangle>false</activevideoangle>
                    <activeaudioangle>false</activeaudioangle>
                    <clip id="clip-1"/>
                  </angle>
                  <angle>
                    <activevideoangle>true</activevideoangle>
                    <activeaudioangle>true</activeaudioangle>
                    <clip id="clip-2"/>
                  </angle>
                  <angle>
                    <activevideoangle>false</activevideoangle>
                    <activeaudioangle>false</activeaudioangle>
                    <clip id="clip-3"/>
                  </angle>
                  <angle>
                    <activevideoangle>false</activevideoangle>
                    <activeaudioangle>false</activeaudioangle>
                    <clip id="clip-4"/>
                  </angle>
                  <angle>
                    <activevideoangle>false</activevideoangle>
                    <activeaudioangle>false</activeaudioangle>
                    <clip id="clip-5"/>
                  </angle>
                  <angle>
                    <activevideoangle>false</activevideoangle>
                    <activeaudioangle>false</activeaudioangle>
                    <clip id="clip-6"/>
                  </angle>
                  <angle>
                    <activevideoangle>false</activevideoangle>
                    <activeaudioangle>false</activeaudioangle>
                    <clip id="clip-7"/>
                  </angle>
                  <angle>
                    <activevideoangle>false</activevideoangle>
                    <activeaudioangle>false</activeaudioangle>
                    <clip id="clip-8"/>
                  </angle>
                  <angle>
                    <activevideoangle>false</activevideoangle>
                    <activeaudioangle>false</activeaudioangle>
                    <clip id="clip-9"/>
                  </angle>
                  <masterclipid>clip-master</masterclipid>
                </multiclip>
              </clipitem>
              <clipitem id="cs-1021">
                <duration>55</duration>
                <rate>
                  <ntsc>false</ntsc>
                  <timebase>25</timebase>
                </rate>
                <in>88738</in>
                <out>88792</out>
                <start>88738</start>
                <end>88792</end>
                <file id="src-4"/>
                <sourcetrack>
                  <mediatype>video</mediatype>
                  <trackindex>1</trackindex>
                </sourcetrack>
                <multiclip id="mcs-1021">
                  <name>MCS-1021</name>
                  <masterclipid>clip-master</masterclipid>
                  <collapsed>false</collapsed>
                  <angle>
                    <activevideoangle>false</activevideoangle>
                    <activeaudioangle>false</activeaudioangle>
                    <clip id="clip-1"/>
                  </angle>
                  <angle>
                    <activevideoangle>false</activevideoangle>
                    <activeaudioangle>false</activeaudioangle>
                    <clip id="clip-2"/>
                  </angle>
                  <angle>
                    <activevideoangle>false</activevideoangle>
                    <activeaudioangle>false</activeaudioangle>
                    <clip id="clip-3"/>
                  </angle>
                  <angle>
                    <activevideoangle>true</activevideoangle>
                    <activeaudioangle>true</activeaudioangle>
                    <clip id="clip-4"/>
                  </angle>
                  <angle>
                    <activevideoangle>false</activevideoangle>
                    <activeaudioangle>false</activeaudioangle>
                    <clip id="clip-5"/>
                  </angle>
                  <angle>
                    <activevideoangle>false</activevideoangle>
                    <activeaudioangle>false</activeaudioangle>
                    <clip id="clip-6"/>
                  </angle>
                  <angle>
                    <activevideoangle>false</activevideoangle>
                    <activeaudioangle>false</activeaudioangle>
                    <clip id="clip-7"/>
                  </angle>
                  <angle>
                    <activevideoangle>false</activevideoangle>
                    <activeaudioangle>false</activeaudioangle>
                    <clip id="clip-8"/>
                  </angle>
                  <angle>
                    <activevideoangle>false</activevideoangle>
                    <activeaudioangle>false</activeaudioangle>
                    <clip id="clip-9"/>
                  </angle>
                  <masterclipid>clip-master</masterclipid>
                </multiclip>
              </clipitem>
              <clipitem id="cs-1022">
                <duration>224</duration>
                <rate>
                  <ntsc>false</ntsc>
                  <timebase>25</timebase>
                </rate>
                <in>88792</in>
                <out>89015</out>
                <start>88792</start>
                <end>89015</end>
                <file id="src-3"/>
                <sourcetrack>
                  <mediatype>video</mediatype>
                  <trackindex>1</trackindex>
                </sourcetrack>
                <multiclip id="mcs-1022">
                  <name>MCS-1022</name>
                  <masterclipid>clip-master</masterclipid>
                  <collapsed>false</collapsed>
                  <angle>
                    <activevideoangle>false</activevideoangle>
                    <activeaudioangle>false</activeaudioangle>
                    <clip id="clip-1"/>
                  </angle>
                  <angle>
                    <activevideoangle>false</activevideoangle>
                    <activeaudioangle>false</activeaudioangle>
                    <clip id="clip-2"/>
                  </angle>
                  <angle>
                    <activevideoangle>true</activevideoangle>
                    <activeaudioangle>true</activeaudioangle>
                    <clip id="clip-3"/>
                  </angle>
                  <angle>
                    <activevideoangle>false</activevideoangle>
                    <activeaudioangle>false</activeaudioangle>
                    <clip id="clip-4"/>
                  </angle>
                  <angle>
                    <activevideoangle>false</activevideoangle>
                    <activeaudioangle>false</activeaudioangle>
                    <clip id="clip-5"/>
                  </angle>
                  <angle>
                    <activevideoangle>false</activevideoangle>
                    <activeaudioangle>false</activeaudioangle>
                    <clip id="clip-6"/>
                  </angle>
                  <angle>
                    <activevideoangle>false</activevideoangle>
                    <activeaudioangle>false</activeaudioangle>
                    <clip id="clip-7"/>
                  </angle>
                  <angle>
                    <activevideoangle>false</activevideoangle>
                    <activeaudioangle>false</activeaudioangle>
                    <clip id="clip-8"/>
                  </angle>
                  <angle>
                    <activevideoangle>false</activevideoangle>
                    <activeaudioangle>false</activeaudioangle>
                    <clip id="clip-9"/>
                  </angle>
                  <masterclipid>clip-master</masterclipid>
                </multiclip>
              </clipitem>
              <clipitem id="cs-1023">
                <duration>56</duration>
                <rate>
                  <ntsc>false</ntsc>
                  <timebase>25</timebase>
                </rate>
                <in>89015</in>
                <out>89070</out>
                <start>89015</start>
                <end>89070</end>
                <file id="src-2"/>
                <sourcetrack>
                  <mediatype>video</mediatype>
                  <trackindex>1</trackindex>
                </sourcetrack>
                <multiclip id="mcs-1023">
                  <name>MCS-1023</name>
                  <masterclipid>clip-master</masterclipid>
                  <collapsed>false</collapsed>
                  <angle>
                    <activevideoangle>false</activevideoangle>
                    <activeaudioangle>false</activeaudioangle>
                    <clip id="clip-1"/>
                  </angle>
                  <angle>
                    <activevideoangle>true</activevideoangle>
                    <activeaudioangle>true</activeaudioangle>
                    <clip id="clip-2"/>
                  </angle>
                  <angle>
                    <activevideoangle>false</activevideoangle>
                    <activeaudioangle>false</activeaudioangle>
                    <clip id="clip-3"/>
                  </angle>
                  <angle>
                    <activevideoangle>false</activevideoangle>
                    <activeaudioangle>false</activeaudioangle>
                    <clip id="clip-4"/>
                  </angle>
                  <angle>
                    <activevideoangle>false</activevideoangle>
                    <activeaudioangle>false</activeaudioangle>
                    <clip id="clip-5"/>
                  </angle>
                  <angle>
                    <activevideoangle>false</activevideoangle>
                    <activeaudioangle>false</activeaudioangle>
                    <clip id="clip-6"/>
                  </angle>
                  <angle>
                    <activevideoangle>false</activevideoangle>
                    <activeaudioangle>false</activeaudioangle>
                    <clip id="clip-7"/>
                  </angle>
                  <angle>
                    <activevideoangle>false</activevideoangle>
                    <activeaudioangle>false</activeaudioangle>
                    <clip id="clip-8"/>
                  </angle>
                  <angle>
                    <activevideoangle>false</activevideoangle>
                    <activeaudioangle>false</activeaudioangle>
                    <clip id="clip-9"/>
                  </angle>
                  <masterclipid>clip-master</masterclipid>
                </multiclip>
              </clipitem>
              <clipitem id="cs-1024">
                <duration>37</duration>
                <rate>
                  <ntsc>false</ntsc>
                  <timebase>25</timebase>
                </rate>
                <in>89070</in>
                <out>89106</out>
                <start>89070</start>
                <end>89106</end>
                <file id="src-7"/>
                <sourcetrack>
                  <mediatype>video</mediatype>
                  <trackindex>1</trackindex>
                </sourcetrack>
                <multiclip id="mcs-1024">
                  <name>MCS-1024</name>
                  <masterclipid>clip-master</masterclipid>
                  <collapsed>false</collapsed>
                  <angle>
                    <activevideoangle>false</activevideoangle>
                    <activeaudioangle>false</activeaudioangle>
                    <clip id="clip-1"/>
                  </angle>
                  <angle>
                    <activevideoangle>false</activevideoangle>
                    <activeaudioangle>false</activeaudioangle>
                    <clip id="clip-2"/>
                  </angle>
                  <angle>
                    <activevideoangle>false</activevideoangle>
                    <activeaudioangle>false</activeaudioangle>
                    <clip id="clip-3"/>
                  </angle>
                  <angle>
                    <activevideoangle>false</activevideoangle>
                    <activeaudioangle>false</activeaudioangle>
                    <clip id="clip-4"/>
                  </angle>
                  <angle>
                    <activevideoangle>false</activevideoangle>
                    <activeaudioangle>false</activeaudioangle>
                    <clip id="clip-5"/>
                  </angle>
                  <angle>
                    <activevideoangle>false</activevideoangle>
                    <activeaudioangle>false</activeaudioangle>
                    <clip id="clip-6"/>
                  </angle>
                  <angle>
                    <activevideoangle>true</activevideoangle>
                    <activeaudioangle>true</activeaudioangle>
                    <clip id="clip-7"/>
                  </angle>
                  <angle>
                    <activevideoangle>false</activevideoangle>
                    <activeaudioangle>false</activeaudioangle>
                    <clip id="clip-8"/>
                  </angle>
                  <angle>
                    <activevideoangle>false</activevideoangle>
                    <activeaudioangle>false</activeaudioangle>
                    <clip id="clip-9"/>
                  </angle>
                  <masterclipid>clip-master</masterclipid>
                </multiclip>
              </clipitem>
              <clipitem id="cs-1025">
                <duration>193</duration>
                <rate>
                  <ntsc>false</ntsc>
                  <timebase>25</timebase>
                </rate>
                <in>89106</in>
                <out>89298</out>
                <start>89106</start>
                <end>89298</end>
                <file id="src-4"/>
                <sourcetrack>
                  <mediatype>video</mediatype>
                  <trackindex>1</trackindex>
                </sourcetrack>
                <multiclip id="mcs-1025">
                  <name>MCS-1025</name>
                  <masterclipid>clip-master</masterclipid>
                  <collapsed>false</collapsed>
                  <angle>
                    <activevideoangle>false</activevideoangle>
                    <activeaudioangle>false</activeaudioangle>
                    <clip id="clip-1"/>
                  </angle>
                  <angle>
                    <activevideoangle>false</activevideoangle>
                    <activeaudioangle>false</activeaudioangle>
                    <clip id="clip-2"/>
                  </angle>
                  <angle>
                    <activevideoangle>false</activevideoangle>
                    <activeaudioangle>false</activeaudioangle>
                    <clip id="clip-3"/>
                  </angle>
                  <angle>
                    <activevideoangle>true</activevideoangle>
                    <activeaudioangle>true</activeaudioangle>
                    <clip id="clip-4"/>
                  </angle>
                  <angle>
                    <activevideoangle>false</activevideoangle>
                    <activeaudioangle>false</activeaudioangle>
                    <clip id="clip-5"/>
                  </angle>
                  <angle>
                    <activevideoangle>false</activevideoangle>
                    <activeaudioangle>false</activeaudioangle>
                    <clip id="clip-6"/>
                  </angle>
                  <angle>
                    <activevideoangle>false</activevideoangle>
                    <activeaudioangle>false</activeaudioangle>
                    <clip id="clip-7"/>
                  </angle>
                  <angle>
                    <activevideoangle>false</activevideoangle>
                    <activeaudioangle>false</activeaudioangle>
                    <clip id="clip-8"/>
                  </angle>
                  <angle>
                    <activevideoangle>false</activevideoangle>
                    <activeaudioangle>false</activeaudioangle>
                    <clip id="clip-9"/>
                  </angle>
                  <masterclipid>clip-master</masterclipid>
                </multiclip>
              </clipitem>
              <clipitem id="cs-1026">
                <duration>64</duration>
                <rate>
                  <ntsc>false</ntsc>
                  <timebase>25</timebase>
                </rate>
                <in>89298</in>
                <out>89361</out>
                <start>89298</start>
                <end>89361</end>
                <file id="src-3"/>
                <sourcetrack>
                  <mediatype>video</mediatype>
                  <trackindex>1</trackindex>
                </sourcetrack>
                <multiclip id="mcs-1026">
                  <name>MCS-1026</name>
                  <masterclipid>clip-master</masterclipid>
                  <collapsed>false</collapsed>
                  <angle>
                    <activevideoangle>false</activevideoangle>
                    <activeaudioangle>false</activeaudioangle>
                    <clip id="clip-1"/>
                  </angle>
                  <angle>
                    <activevideoangle>false</activevideoangle>
                    <activeaudioangle>false</activeaudioangle>
                    <clip id="clip-2"/>
                  </angle>
                  <angle>
                    <activevideoangle>true</activevideoangle>
                    <activeaudioangle>true</activeaudioangle>
                    <clip id="clip-3"/>
                  </angle>
                  <angle>
                    <activevideoangle>false</activevideoangle>
                    <activeaudioangle>false</activeaudioangle>
                    <clip id="clip-4"/>
                  </angle>
                  <angle>
                    <activevideoangle>false</activevideoangle>
                    <activeaudioangle>false</activeaudioangle>
                    <clip id="clip-5"/>
                  </angle>
                  <angle>
                    <activevideoangle>false</activevideoangle>
                    <activeaudioangle>false</activeaudioangle>
                    <clip id="clip-6"/>
                  </angle>
                  <angle>
                    <activevideoangle>false</activevideoangle>
                    <activeaudioangle>false</activeaudioangle>
                    <clip id="clip-7"/>
                  </angle>
                  <angle>
                    <activevideoangle>false</activevideoangle>
                    <activeaudioangle>false</activeaudioangle>
                    <clip id="clip-8"/>
                  </angle>
                  <angle>
                    <activevideoangle>false</activevideoangle>
                    <activeaudioangle>false</activeaudioangle>
                    <clip id="clip-9"/>
                  </angle>
                  <masterclipid>clip-master</masterclipid>
                </multiclip>
              </clipitem>
              <clipitem id="cs-1027">
                <duration>238</duration>
                <rate>
                  <ntsc>false</ntsc>
                  <timebase>25</timebase>
                </rate>
                <in>89361</in>
                <out>89598</out>
                <start>89361</start>
                <end>89598</end>
                <file id="src-2"/>
                <sourcetrack>
                  <mediatype>video</mediatype>
                  <trackindex>1</trackindex>
                </sourcetrack>
                <multiclip id="mcs-1027">
                  <name>MCS-1027</name>
                  <masterclipid>clip-master</masterclipid>
                  <collapsed>false</collapsed>
                  <angle>
                    <activevideoangle>false</activevideoangle>
                    <activeaudioangle>false</activeaudioangle>
                    <clip id="clip-1"/>
                  </angle>
                  <angle>
                    <activevideoangle>true</activevideoangle>
                    <activeaudioangle>true</activeaudioangle>
                    <clip id="clip-2"/>
                  </angle>
                  <angle>
                    <activevideoangle>false</activevideoangle>
                    <activeaudioangle>false</activeaudioangle>
                    <clip id="clip-3"/>
                  </angle>
                  <angle>
                    <activevideoangle>false</activevideoangle>
                    <activeaudioangle>false</activeaudioangle>
                    <clip id="clip-4"/>
                  </angle>
                  <angle>
                    <activevideoangle>false</activevideoangle>
                    <activeaudioangle>false</activeaudioangle>
                    <clip id="clip-5"/>
                  </angle>
                  <angle>
                    <activevideoangle>false</activevideoangle>
                    <activeaudioangle>false</activeaudioangle>
                    <clip id="clip-6"/>
                  </angle>
                  <angle>
                    <activevideoangle>false</activevideoangle>
                    <activeaudioangle>false</activeaudioangle>
                    <clip id="clip-7"/>
                  </angle>
                  <angle>
                    <activevideoangle>false</activevideoangle>
                    <activeaudioangle>false</activeaudioangle>
                    <clip id="clip-8"/>
                  </angle>
                  <angle>
                    <activevideoangle>false</activevideoangle>
                    <activeaudioangle>false</activeaudioangle>
                    <clip id="clip-9"/>
                  </angle>
                  <masterclipid>clip-master</masterclipid>
                </multiclip>
              </clipitem>
              <clipitem id="cs-1028">
                <duration>78</duration>
                <rate>
                  <ntsc>false</ntsc>
                  <timebase>25</timebase>
                </rate>
                <in>89598</in>
                <out>89675</out>
                <start>89598</start>
                <end>89675</end>
                <file id="src-3"/>
                <sourcetrack>
                  <mediatype>video</mediatype>
                  <trackindex>1</trackindex>
                </sourcetrack>
                <multiclip id="mcs-1028">
                  <name>MCS-1028</name>
                  <masterclipid>clip-master</masterclipid>
                  <collapsed>false</collapsed>
                  <angle>
                    <activevideoangle>false</activevideoangle>
                    <activeaudioangle>false</activeaudioangle>
                    <clip id="clip-1"/>
                  </angle>
                  <angle>
                    <activevideoangle>false</activevideoangle>
                    <activeaudioangle>false</activeaudioangle>
                    <clip id="clip-2"/>
                  </angle>
                  <angle>
                    <activevideoangle>true</activevideoangle>
                    <activeaudioangle>true</activeaudioangle>
                    <clip id="clip-3"/>
                  </angle>
                  <angle>
                    <activevideoangle>false</activevideoangle>
                    <activeaudioangle>false</activeaudioangle>
                    <clip id="clip-4"/>
                  </angle>
                  <angle>
                    <activevideoangle>false</activevideoangle>
                    <activeaudioangle>false</activeaudioangle>
                    <clip id="clip-5"/>
                  </angle>
                  <angle>
                    <activevideoangle>false</activevideoangle>
                    <activeaudioangle>false</activeaudioangle>
                    <clip id="clip-6"/>
                  </angle>
                  <angle>
                    <activevideoangle>false</activevideoangle>
                    <activeaudioangle>false</activeaudioangle>
                    <clip id="clip-7"/>
                  </angle>
                  <angle>
                    <activevideoangle>false</activevideoangle>
                    <activeaudioangle>false</activeaudioangle>
                    <clip id="clip-8"/>
                  </angle>
                  <angle>
                    <activevideoangle>false</activevideoangle>
                    <activeaudioangle>false</activeaudioangle>
                    <clip id="clip-9"/>
                  </angle>
                  <masterclipid>clip-master</masterclipid>
                </multiclip>
              </clipitem>
              <clipitem id="cs-1029">
                <duration>33</duration>
                <rate>
                  <ntsc>false</ntsc>
                  <timebase>25</timebase>
                </rate>
                <in>89675</in>
                <out>89707</out>
                <start>89675</start>
                <end>89707</end>
                <file id="src-5"/>
                <sourcetrack>
                  <mediatype>video</mediatype>
                  <trackindex>1</trackindex>
                </sourcetrack>
                <multiclip id="mcs-1029">
                  <name>MCS-1029</name>
                  <masterclipid>clip-master</masterclipid>
                  <collapsed>false</collapsed>
                  <angle>
                    <activevideoangle>false</activevideoangle>
                    <activeaudioangle>false</activeaudioangle>
                    <clip id="clip-1"/>
                  </angle>
                  <angle>
                    <activevideoangle>false</activevideoangle>
                    <activeaudioangle>false</activeaudioangle>
                    <clip id="clip-2"/>
                  </angle>
                  <angle>
                    <activevideoangle>false</activevideoangle>
                    <activeaudioangle>false</activeaudioangle>
                    <clip id="clip-3"/>
                  </angle>
                  <angle>
                    <activevideoangle>false</activevideoangle>
                    <activeaudioangle>false</activeaudioangle>
                    <clip id="clip-4"/>
                  </angle>
                  <angle>
                    <activevideoangle>true</activevideoangle>
                    <activeaudioangle>true</activeaudioangle>
                    <clip id="clip-5"/>
                  </angle>
                  <angle>
                    <activevideoangle>false</activevideoangle>
                    <activeaudioangle>false</activeaudioangle>
                    <clip id="clip-6"/>
                  </angle>
                  <angle>
                    <activevideoangle>false</activevideoangle>
                    <activeaudioangle>false</activeaudioangle>
                    <clip id="clip-7"/>
                  </angle>
                  <angle>
                    <activevideoangle>false</activevideoangle>
                    <activeaudioangle>false</activeaudioangle>
                    <clip id="clip-8"/>
                  </angle>
                  <angle>
                    <activevideoangle>false</activevideoangle>
                    <activeaudioangle>false</activeaudioangle>
                    <clip id="clip-9"/>
                  </angle>
                  <masterclipid>clip-master</masterclipid>
                </multiclip>
              </clipitem>
              <clipitem id="cs-1030">
                <duration>32</duration>
                <rate>
                  <ntsc>false</ntsc>
                  <timebase>25</timebase>
                </rate>
                <in>89707</in>
                <out>89738</out>
                <start>89707</start>
                <end>89738</end>
                <file id="src-4"/>
                <sourcetrack>
                  <mediatype>video</mediatype>
                  <trackindex>1</trackindex>
                </sourcetrack>
                <multiclip id="mcs-1030">
                  <name>MCS-1030</name>
                  <masterclipid>clip-master</masterclipid>
                  <collapsed>false</collapsed>
                  <angle>
                    <activevideoangle>false</activevideoangle>
                    <activeaudioangle>false</activeaudioangle>
                    <clip id="clip-1"/>
                  </angle>
                  <angle>
                    <activevideoangle>false</activevideoangle>
                    <activeaudioangle>false</activeaudioangle>
                    <clip id="clip-2"/>
                  </angle>
                  <angle>
                    <activevideoangle>false</activevideoangle>
                    <activeaudioangle>false</activeaudioangle>
                    <clip id="clip-3"/>
                  </angle>
                  <angle>
                    <activevideoangle>true</activevideoangle>
                    <activeaudioangle>true</activeaudioangle>
                    <clip id="clip-4"/>
                  </angle>
                  <angle>
                    <activevideoangle>false</activevideoangle>
                    <activeaudioangle>false</activeaudioangle>
                    <clip id="clip-5"/>
                  </angle>
                  <angle>
                    <activevideoangle>false</activevideoangle>
                    <activeaudioangle>false</activeaudioangle>
                    <clip id="clip-6"/>
                  </angle>
                  <angle>
                    <activevideoangle>false</activevideoangle>
                    <activeaudioangle>false</activeaudioangle>
                    <clip id="clip-7"/>
                  </angle>
                  <angle>
                    <activevideoangle>false</activevideoangle>
                    <activeaudioangle>false</activeaudioangle>
                    <clip id="clip-8"/>
                  </angle>
                  <angle>
                    <activevideoangle>false</activevideoangle>
                    <activeaudioangle>false</activeaudioangle>
                    <clip id="clip-9"/>
                  </angle>
                  <masterclipid>clip-master</masterclipid>
                </multiclip>
              </clipitem>
              <clipitem id="cs-1031">
                <duration>35</duration>
                <rate>
                  <ntsc>false</ntsc>
                  <timebase>25</timebase>
                </rate>
                <in>89738</in>
                <out>89772</out>
                <start>89738</start>
                <end>89772</end>
                <file id="src-3"/>
                <sourcetrack>
                  <mediatype>video</mediatype>
                  <trackindex>1</trackindex>
                </sourcetrack>
                <multiclip id="mcs-1031">
                  <name>MCS-1031</name>
                  <masterclipid>clip-master</masterclipid>
                  <collapsed>false</collapsed>
                  <angle>
                    <activevideoangle>false</activevideoangle>
                    <activeaudioangle>false</activeaudioangle>
                    <clip id="clip-1"/>
                  </angle>
                  <angle>
                    <activevideoangle>false</activevideoangle>
                    <activeaudioangle>false</activeaudioangle>
                    <clip id="clip-2"/>
                  </angle>
                  <angle>
                    <activevideoangle>true</activevideoangle>
                    <activeaudioangle>true</activeaudioangle>
                    <clip id="clip-3"/>
                  </angle>
                  <angle>
                    <activevideoangle>false</activevideoangle>
                    <activeaudioangle>false</activeaudioangle>
                    <clip id="clip-4"/>
                  </angle>
                  <angle>
                    <activevideoangle>false</activevideoangle>
                    <activeaudioangle>false</activeaudioangle>
                    <clip id="clip-5"/>
                  </angle>
                  <angle>
                    <activevideoangle>false</activevideoangle>
                    <activeaudioangle>false</activeaudioangle>
                    <clip id="clip-6"/>
                  </angle>
                  <angle>
                    <activevideoangle>false</activevideoangle>
                    <activeaudioangle>false</activeaudioangle>
                    <clip id="clip-7"/>
                  </angle>
                  <angle>
                    <activevideoangle>false</activevideoangle>
                    <activeaudioangle>false</activeaudioangle>
                    <clip id="clip-8"/>
                  </angle>
                  <angle>
                    <activevideoangle>false</activevideoangle>
                    <activeaudioangle>false</activeaudioangle>
                    <clip id="clip-9"/>
                  </angle>
                  <masterclipid>clip-master</masterclipid>
                </multiclip>
              </clipitem>
              <clipitem id="cs-1032">
                <duration>84</duration>
                <rate>
                  <ntsc>false</ntsc>
                  <timebase>25</timebase>
                </rate>
                <in>89772</in>
                <out>89855</out>
                <start>89772</start>
                <end>89855</end>
                <file id="src-2"/>
                <sourcetrack>
                  <mediatype>video</mediatype>
                  <trackindex>1</trackindex>
                </sourcetrack>
                <multiclip id="mcs-1032">
                  <name>MCS-1032</name>
                  <masterclipid>clip-master</masterclipid>
                  <collapsed>false</collapsed>
                  <angle>
                    <activevideoangle>false</activevideoangle>
                    <activeaudioangle>false</activeaudioangle>
                    <clip id="clip-1"/>
                  </angle>
                  <angle>
                    <activevideoangle>true</activevideoangle>
                    <activeaudioangle>true</activeaudioangle>
                    <clip id="clip-2"/>
                  </angle>
                  <angle>
                    <activevideoangle>false</activevideoangle>
                    <activeaudioangle>false</activeaudioangle>
                    <clip id="clip-3"/>
                  </angle>
                  <angle>
                    <activevideoangle>false</activevideoangle>
                    <activeaudioangle>false</activeaudioangle>
                    <clip id="clip-4"/>
                  </angle>
                  <angle>
                    <activevideoangle>false</activevideoangle>
                    <activeaudioangle>false</activeaudioangle>
                    <clip id="clip-5"/>
                  </angle>
                  <angle>
                    <activevideoangle>false</activevideoangle>
                    <activeaudioangle>false</activeaudioangle>
                    <clip id="clip-6"/>
                  </angle>
                  <angle>
                    <activevideoangle>false</activevideoangle>
                    <activeaudioangle>false</activeaudioangle>
                    <clip id="clip-7"/>
                  </angle>
                  <angle>
                    <activevideoangle>false</activevideoangle>
                    <activeaudioangle>false</activeaudioangle>
                    <clip id="clip-8"/>
                  </angle>
                  <angle>
                    <activevideoangle>false</activevideoangle>
                    <activeaudioangle>false</activeaudioangle>
                    <clip id="clip-9"/>
                  </angle>
                  <masterclipid>clip-master</masterclipid>
                </multiclip>
              </clipitem>
              <clipitem id="cs-1033">
                <duration>258</duration>
                <rate>
                  <ntsc>false</ntsc>
                  <timebase>25</timebase>
                </rate>
                <in>89855</in>
                <out>90112</out>
                <start>89855</start>
                <end>90112</end>
                <file id="src-1"/>
                <sourcetrack>
                  <mediatype>video</mediatype>
                  <trackindex>1</trackindex>
                </sourcetrack>
                <multiclip id="mcs-1033">
                  <name>MCS-1033</name>
                  <masterclipid>clip-master</masterclipid>
                  <collapsed>false</collapsed>
                  <angle>
                    <activevideoangle>true</activevideoangle>
                    <activeaudioangle>true</activeaudioangle>
                    <clip id="clip-1"/>
                  </angle>
                  <angle>
                    <activevideoangle>false</activevideoangle>
                    <activeaudioangle>false</activeaudioangle>
                    <clip id="clip-2"/>
                  </angle>
                  <angle>
                    <activevideoangle>false</activevideoangle>
                    <activeaudioangle>false</activeaudioangle>
                    <clip id="clip-3"/>
                  </angle>
                  <angle>
                    <activevideoangle>false</activevideoangle>
                    <activeaudioangle>false</activeaudioangle>
                    <clip id="clip-4"/>
                  </angle>
                  <angle>
                    <activevideoangle>false</activevideoangle>
                    <activeaudioangle>false</activeaudioangle>
                    <clip id="clip-5"/>
                  </angle>
                  <angle>
                    <activevideoangle>false</activevideoangle>
                    <activeaudioangle>false</activeaudioangle>
                    <clip id="clip-6"/>
                  </angle>
                  <angle>
                    <activevideoangle>false</activevideoangle>
                    <activeaudioangle>false</activeaudioangle>
                    <clip id="clip-7"/>
                  </angle>
                  <angle>
                    <activevideoangle>false</activevideoangle>
                    <activeaudioangle>false</activeaudioangle>
                    <clip id="clip-8"/>
                  </angle>
                  <angle>
                    <activevideoangle>false</activevideoangle>
                    <activeaudioangle>false</activeaudioangle>
                    <clip id="clip-9"/>
                  </angle>
                  <masterclipid>clip-master</masterclipid>
                </multiclip>
              </clipitem>
              <clipitem id="cs-1034">
                <duration>347</duration>
                <rate>
                  <ntsc>false</ntsc>
                  <timebase>25</timebase>
                </rate>
                <in>90112</in>
                <out>90458</out>
                <start>90112</start>
                <end>90458</end>
                <file id="src-4"/>
                <sourcetrack>
                  <mediatype>video</mediatype>
                  <trackindex>1</trackindex>
                </sourcetrack>
                <multiclip id="mcs-1034">
                  <name>MCS-1034</name>
                  <masterclipid>clip-master</masterclipid>
                  <collapsed>false</collapsed>
                  <angle>
                    <activevideoangle>false</activevideoangle>
                    <activeaudioangle>false</activeaudioangle>
                    <clip id="clip-1"/>
                  </angle>
                  <angle>
                    <activevideoangle>false</activevideoangle>
                    <activeaudioangle>false</activeaudioangle>
                    <clip id="clip-2"/>
                  </angle>
                  <angle>
                    <activevideoangle>false</activevideoangle>
                    <activeaudioangle>false</activeaudioangle>
                    <clip id="clip-3"/>
                  </angle>
                  <angle>
                    <activevideoangle>true</activevideoangle>
                    <activeaudioangle>true</activeaudioangle>
                    <clip id="clip-4"/>
                  </angle>
                  <angle>
                    <activevideoangle>false</activevideoangle>
                    <activeaudioangle>false</activeaudioangle>
                    <clip id="clip-5"/>
                  </angle>
                  <angle>
                    <activevideoangle>false</activevideoangle>
                    <activeaudioangle>false</activeaudioangle>
                    <clip id="clip-6"/>
                  </angle>
                  <angle>
                    <activevideoangle>false</activevideoangle>
                    <activeaudioangle>false</activeaudioangle>
                    <clip id="clip-7"/>
                  </angle>
                  <angle>
                    <activevideoangle>false</activevideoangle>
                    <activeaudioangle>false</activeaudioangle>
                    <clip id="clip-8"/>
                  </angle>
                  <angle>
                    <activevideoangle>false</activevideoangle>
                    <activeaudioangle>false</activeaudioangle>
                    <clip id="clip-9"/>
                  </angle>
                  <masterclipid>clip-master</masterclipid>
                </multiclip>
              </clipitem>
              <clipitem id="cs-1035">
                <duration>77</duration>
                <rate>
                  <ntsc>false</ntsc>
                  <timebase>25</timebase>
                </rate>
                <in>90458</in>
                <out>90534</out>
                <start>90458</start>
                <end>90534</end>
                <file id="src-5"/>
                <sourcetrack>
                  <mediatype>video</mediatype>
                  <trackindex>1</trackindex>
                </sourcetrack>
                <multiclip id="mcs-1035">
                  <name>MCS-1035</name>
                  <masterclipid>clip-master</masterclipid>
                  <collapsed>false</collapsed>
                  <angle>
                    <activevideoangle>false</activevideoangle>
                    <activeaudioangle>false</activeaudioangle>
                    <clip id="clip-1"/>
                  </angle>
                  <angle>
                    <activevideoangle>false</activevideoangle>
                    <activeaudioangle>false</activeaudioangle>
                    <clip id="clip-2"/>
                  </angle>
                  <angle>
                    <activevideoangle>false</activevideoangle>
                    <activeaudioangle>false</activeaudioangle>
                    <clip id="clip-3"/>
                  </angle>
                  <angle>
                    <activevideoangle>false</activevideoangle>
                    <activeaudioangle>false</activeaudioangle>
                    <clip id="clip-4"/>
                  </angle>
                  <angle>
                    <activevideoangle>true</activevideoangle>
                    <activeaudioangle>true</activeaudioangle>
                    <clip id="clip-5"/>
                  </angle>
                  <angle>
                    <activevideoangle>false</activevideoangle>
                    <activeaudioangle>false</activeaudioangle>
                    <clip id="clip-6"/>
                  </angle>
                  <angle>
                    <activevideoangle>false</activevideoangle>
                    <activeaudioangle>false</activeaudioangle>
                    <clip id="clip-7"/>
                  </angle>
                  <angle>
                    <activevideoangle>false</activevideoangle>
                    <activeaudioangle>false</activeaudioangle>
                    <clip id="clip-8"/>
                  </angle>
                  <angle>
                    <activevideoangle>false</activevideoangle>
                    <activeaudioangle>false</activeaudioangle>
                    <clip id="clip-9"/>
                  </angle>
                  <masterclipid>clip-master</masterclipid>
                </multiclip>
              </clipitem>
              <clipitem id="cs-1036">
                <duration>54</duration>
                <rate>
                  <ntsc>false</ntsc>
                  <timebase>25</timebase>
                </rate>
                <in>90534</in>
                <out>90587</out>
                <start>90534</start>
                <end>90587</end>
                <file id="src-3"/>
                <sourcetrack>
                  <mediatype>video</mediatype>
                  <trackindex>1</trackindex>
                </sourcetrack>
                <multiclip id="mcs-1036">
                  <name>MCS-1036</name>
                  <masterclipid>clip-master</masterclipid>
                  <collapsed>false</collapsed>
                  <angle>
                    <activevideoangle>false</activevideoangle>
                    <activeaudioangle>false</activeaudioangle>
                    <clip id="clip-1"/>
                  </angle>
                  <angle>
                    <activevideoangle>false</activevideoangle>
                    <activeaudioangle>false</activeaudioangle>
                    <clip id="clip-2"/>
                  </angle>
                  <angle>
                    <activevideoangle>true</activevideoangle>
                    <activeaudioangle>true</activeaudioangle>
                    <clip id="clip-3"/>
                  </angle>
                  <angle>
                    <activevideoangle>false</activevideoangle>
                    <activeaudioangle>false</activeaudioangle>
                    <clip id="clip-4"/>
                  </angle>
                  <angle>
                    <activevideoangle>false</activevideoangle>
                    <activeaudioangle>false</activeaudioangle>
                    <clip id="clip-5"/>
                  </angle>
                  <angle>
                    <activevideoangle>false</activevideoangle>
                    <activeaudioangle>false</activeaudioangle>
                    <clip id="clip-6"/>
                  </angle>
                  <angle>
                    <activevideoangle>false</activevideoangle>
                    <activeaudioangle>false</activeaudioangle>
                    <clip id="clip-7"/>
                  </angle>
                  <angle>
                    <activevideoangle>false</activevideoangle>
                    <activeaudioangle>false</activeaudioangle>
                    <clip id="clip-8"/>
                  </angle>
                  <angle>
                    <activevideoangle>false</activevideoangle>
                    <activeaudioangle>false</activeaudioangle>
                    <clip id="clip-9"/>
                  </angle>
                  <masterclipid>clip-master</masterclipid>
                </multiclip>
              </clipitem>
              <clipitem id="cs-1037">
                <duration>239</duration>
                <rate>
                  <ntsc>false</ntsc>
                  <timebase>25</timebase>
                </rate>
                <in>90587</in>
                <out>90825</out>
                <start>90587</start>
                <end>90825</end>
                <file id="src-2"/>
                <sourcetrack>
                  <mediatype>video</mediatype>
                  <trackindex>1</trackindex>
                </sourcetrack>
                <multiclip id="mcs-1037">
                  <name>MCS-1037</name>
                  <masterclipid>clip-master</masterclipid>
                  <collapsed>false</collapsed>
                  <angle>
                    <activevideoangle>false</activevideoangle>
                    <activeaudioangle>false</activeaudioangle>
                    <clip id="clip-1"/>
                  </angle>
                  <angle>
                    <activevideoangle>true</activevideoangle>
                    <activeaudioangle>true</activeaudioangle>
                    <clip id="clip-2"/>
                  </angle>
                  <angle>
                    <activevideoangle>false</activevideoangle>
                    <activeaudioangle>false</activeaudioangle>
                    <clip id="clip-3"/>
                  </angle>
                  <angle>
                    <activevideoangle>false</activevideoangle>
                    <activeaudioangle>false</activeaudioangle>
                    <clip id="clip-4"/>
                  </angle>
                  <angle>
                    <activevideoangle>false</activevideoangle>
                    <activeaudioangle>false</activeaudioangle>
                    <clip id="clip-5"/>
                  </angle>
                  <angle>
                    <activevideoangle>false</activevideoangle>
                    <activeaudioangle>false</activeaudioangle>
                    <clip id="clip-6"/>
                  </angle>
                  <angle>
                    <activevideoangle>false</activevideoangle>
                    <activeaudioangle>false</activeaudioangle>
                    <clip id="clip-7"/>
                  </angle>
                  <angle>
                    <activevideoangle>false</activevideoangle>
                    <activeaudioangle>false</activeaudioangle>
                    <clip id="clip-8"/>
                  </angle>
                  <angle>
                    <activevideoangle>false</activevideoangle>
                    <activeaudioangle>false</activeaudioangle>
                    <clip id="clip-9"/>
                  </angle>
                  <masterclipid>clip-master</masterclipid>
                </multiclip>
              </clipitem>
              <clipitem id="cs-1038">
                <duration>34</duration>
                <rate>
                  <ntsc>false</ntsc>
                  <timebase>25</timebase>
                </rate>
                <in>90825</in>
                <out>90858</out>
                <start>90825</start>
                <end>90858</end>
                <file id="src-5"/>
                <sourcetrack>
                  <mediatype>video</mediatype>
                  <trackindex>1</trackindex>
                </sourcetrack>
                <multiclip id="mcs-1038">
                  <name>MCS-1038</name>
                  <masterclipid>clip-master</masterclipid>
                  <collapsed>false</collapsed>
                  <angle>
                    <activevideoangle>false</activevideoangle>
                    <activeaudioangle>false</activeaudioangle>
                    <clip id="clip-1"/>
                  </angle>
                  <angle>
                    <activevideoangle>false</activevideoangle>
                    <activeaudioangle>false</activeaudioangle>
                    <clip id="clip-2"/>
                  </angle>
                  <angle>
                    <activevideoangle>false</activevideoangle>
                    <activeaudioangle>false</activeaudioangle>
                    <clip id="clip-3"/>
                  </angle>
                  <angle>
                    <activevideoangle>false</activevideoangle>
                    <activeaudioangle>false</activeaudioangle>
                    <clip id="clip-4"/>
                  </angle>
                  <angle>
                    <activevideoangle>true</activevideoangle>
                    <activeaudioangle>true</activeaudioangle>
                    <clip id="clip-5"/>
                  </angle>
                  <angle>
                    <activevideoangle>false</activevideoangle>
                    <activeaudioangle>false</activeaudioangle>
                    <clip id="clip-6"/>
                  </angle>
                  <angle>
                    <activevideoangle>false</activevideoangle>
                    <activeaudioangle>false</activeaudioangle>
                    <clip id="clip-7"/>
                  </angle>
                  <angle>
                    <activevideoangle>false</activevideoangle>
                    <activeaudioangle>false</activeaudioangle>
                    <clip id="clip-8"/>
                  </angle>
                  <angle>
                    <activevideoangle>false</activevideoangle>
                    <activeaudioangle>false</activeaudioangle>
                    <clip id="clip-9"/>
                  </angle>
                  <masterclipid>clip-master</masterclipid>
                </multiclip>
              </clipitem>
              <clipitem id="cs-1039">
                <duration>72</duration>
                <rate>
                  <ntsc>false</ntsc>
                  <timebase>25</timebase>
                </rate>
                <in>90858</in>
                <out>90929</out>
                <start>90858</start>
                <end>90929</end>
                <file id="src-3"/>
                <sourcetrack>
                  <mediatype>video</mediatype>
                  <trackindex>1</trackindex>
                </sourcetrack>
                <multiclip id="mcs-1039">
                  <name>MCS-1039</name>
                  <masterclipid>clip-master</masterclipid>
                  <collapsed>false</collapsed>
                  <angle>
                    <activevideoangle>false</activevideoangle>
                    <activeaudioangle>false</activeaudioangle>
                    <clip id="clip-1"/>
                  </angle>
                  <angle>
                    <activevideoangle>false</activevideoangle>
                    <activeaudioangle>false</activeaudioangle>
                    <clip id="clip-2"/>
                  </angle>
                  <angle>
                    <activevideoangle>true</activevideoangle>
                    <activeaudioangle>true</activeaudioangle>
                    <clip id="clip-3"/>
                  </angle>
                  <angle>
                    <activevideoangle>false</activevideoangle>
                    <activeaudioangle>false</activeaudioangle>
                    <clip id="clip-4"/>
                  </angle>
                  <angle>
                    <activevideoangle>false</activevideoangle>
                    <activeaudioangle>false</activeaudioangle>
                    <clip id="clip-5"/>
                  </angle>
                  <angle>
                    <activevideoangle>false</activevideoangle>
                    <activeaudioangle>false</activeaudioangle>
                    <clip id="clip-6"/>
                  </angle>
                  <angle>
                    <activevideoangle>false</activevideoangle>
                    <activeaudioangle>false</activeaudioangle>
                    <clip id="clip-7"/>
                  </angle>
                  <angle>
                    <activevideoangle>false</activevideoangle>
                    <activeaudioangle>false</activeaudioangle>
                    <clip id="clip-8"/>
                  </angle>
                  <angle>
                    <activevideoangle>false</activevideoangle>
                    <activeaudioangle>false</activeaudioangle>
                    <clip id="clip-9"/>
                  </angle>
                  <masterclipid>clip-master</masterclipid>
                </multiclip>
              </clipitem>
              <clipitem id="cs-1040">
                <duration>79</duration>
                <rate>
                  <ntsc>false</ntsc>
                  <timebase>25</timebase>
                </rate>
                <in>90929</in>
                <out>91007</out>
                <start>90929</start>
                <end>91007</end>
                <file id="src-2"/>
                <sourcetrack>
                  <mediatype>video</mediatype>
                  <trackindex>1</trackindex>
                </sourcetrack>
                <multiclip id="mcs-1040">
                  <name>MCS-1040</name>
                  <masterclipid>clip-master</masterclipid>
                  <collapsed>false</collapsed>
                  <angle>
                    <activevideoangle>false</activevideoangle>
                    <activeaudioangle>false</activeaudioangle>
                    <clip id="clip-1"/>
                  </angle>
                  <angle>
                    <activevideoangle>true</activevideoangle>
                    <activeaudioangle>true</activeaudioangle>
                    <clip id="clip-2"/>
                  </angle>
                  <angle>
                    <activevideoangle>false</activevideoangle>
                    <activeaudioangle>false</activeaudioangle>
                    <clip id="clip-3"/>
                  </angle>
                  <angle>
                    <activevideoangle>false</activevideoangle>
                    <activeaudioangle>false</activeaudioangle>
                    <clip id="clip-4"/>
                  </angle>
                  <angle>
                    <activevideoangle>false</activevideoangle>
                    <activeaudioangle>false</activeaudioangle>
                    <clip id="clip-5"/>
                  </angle>
                  <angle>
                    <activevideoangle>false</activevideoangle>
                    <activeaudioangle>false</activeaudioangle>
                    <clip id="clip-6"/>
                  </angle>
                  <angle>
                    <activevideoangle>false</activevideoangle>
                    <activeaudioangle>false</activeaudioangle>
                    <clip id="clip-7"/>
                  </angle>
                  <angle>
                    <activevideoangle>false</activevideoangle>
                    <activeaudioangle>false</activeaudioangle>
                    <clip id="clip-8"/>
                  </angle>
                  <angle>
                    <activevideoangle>false</activevideoangle>
                    <activeaudioangle>false</activeaudioangle>
                    <clip id="clip-9"/>
                  </angle>
                  <masterclipid>clip-master</masterclipid>
                </multiclip>
              </clipitem>
              <clipitem id="cs-1041">
                <duration>57</duration>
                <rate>
                  <ntsc>false</ntsc>
                  <timebase>25</timebase>
                </rate>
                <in>91007</in>
                <out>91063</out>
                <start>91007</start>
                <end>91063</end>
                <file id="src-3"/>
                <sourcetrack>
                  <mediatype>video</mediatype>
                  <trackindex>1</trackindex>
                </sourcetrack>
                <multiclip id="mcs-1041">
                  <name>MCS-1041</name>
                  <masterclipid>clip-master</masterclipid>
                  <collapsed>false</collapsed>
                  <angle>
                    <activevideoangle>false</activevideoangle>
                    <activeaudioangle>false</activeaudioangle>
                    <clip id="clip-1"/>
                  </angle>
                  <angle>
                    <activevideoangle>false</activevideoangle>
                    <activeaudioangle>false</activeaudioangle>
                    <clip id="clip-2"/>
                  </angle>
                  <angle>
                    <activevideoangle>true</activevideoangle>
                    <activeaudioangle>true</activeaudioangle>
                    <clip id="clip-3"/>
                  </angle>
                  <angle>
                    <activevideoangle>false</activevideoangle>
                    <activeaudioangle>false</activeaudioangle>
                    <clip id="clip-4"/>
                  </angle>
                  <angle>
                    <activevideoangle>false</activevideoangle>
                    <activeaudioangle>false</activeaudioangle>
                    <clip id="clip-5"/>
                  </angle>
                  <angle>
                    <activevideoangle>false</activevideoangle>
                    <activeaudioangle>false</activeaudioangle>
                    <clip id="clip-6"/>
                  </angle>
                  <angle>
                    <activevideoangle>false</activevideoangle>
                    <activeaudioangle>false</activeaudioangle>
                    <clip id="clip-7"/>
                  </angle>
                  <angle>
                    <activevideoangle>false</activevideoangle>
                    <activeaudioangle>false</activeaudioangle>
                    <clip id="clip-8"/>
                  </angle>
                  <angle>
                    <activevideoangle>false</activevideoangle>
                    <activeaudioangle>false</activeaudioangle>
                    <clip id="clip-9"/>
                  </angle>
                  <masterclipid>clip-master</masterclipid>
                </multiclip>
              </clipitem>
              <clipitem id="cs-1042">
                <duration>87</duration>
                <rate>
                  <ntsc>false</ntsc>
                  <timebase>25</timebase>
                </rate>
                <in>91063</in>
                <out>91149</out>
                <start>91063</start>
                <end>91149</end>
                <file id="src-4"/>
                <sourcetrack>
                  <mediatype>video</mediatype>
                  <trackindex>1</trackindex>
                </sourcetrack>
                <multiclip id="mcs-1042">
                  <name>MCS-1042</name>
                  <masterclipid>clip-master</masterclipid>
                  <collapsed>false</collapsed>
                  <angle>
                    <activevideoangle>false</activevideoangle>
                    <activeaudioangle>false</activeaudioangle>
                    <clip id="clip-1"/>
                  </angle>
                  <angle>
                    <activevideoangle>false</activevideoangle>
                    <activeaudioangle>false</activeaudioangle>
                    <clip id="clip-2"/>
                  </angle>
                  <angle>
                    <activevideoangle>false</activevideoangle>
                    <activeaudioangle>false</activeaudioangle>
                    <clip id="clip-3"/>
                  </angle>
                  <angle>
                    <activevideoangle>true</activevideoangle>
                    <activeaudioangle>true</activeaudioangle>
                    <clip id="clip-4"/>
                  </angle>
                  <angle>
                    <activevideoangle>false</activevideoangle>
                    <activeaudioangle>false</activeaudioangle>
                    <clip id="clip-5"/>
                  </angle>
                  <angle>
                    <activevideoangle>false</activevideoangle>
                    <activeaudioangle>false</activeaudioangle>
                    <clip id="clip-6"/>
                  </angle>
                  <angle>
                    <activevideoangle>false</activevideoangle>
                    <activeaudioangle>false</activeaudioangle>
                    <clip id="clip-7"/>
                  </angle>
                  <angle>
                    <activevideoangle>false</activevideoangle>
                    <activeaudioangle>false</activeaudioangle>
                    <clip id="clip-8"/>
                  </angle>
                  <angle>
                    <activevideoangle>false</activevideoangle>
                    <activeaudioangle>false</activeaudioangle>
                    <clip id="clip-9"/>
                  </angle>
                  <masterclipid>clip-master</masterclipid>
                </multiclip>
              </clipitem>
              <clipitem id="cs-1043">
                <duration>29</duration>
                <rate>
                  <ntsc>false</ntsc>
                  <timebase>25</timebase>
                </rate>
                <in>91149</in>
                <out>91177</out>
                <start>91149</start>
                <end>91177</end>
                <file id="src-6"/>
                <sourcetrack>
                  <mediatype>video</mediatype>
                  <trackindex>1</trackindex>
                </sourcetrack>
                <multiclip id="mcs-1043">
                  <name>MCS-1043</name>
                  <masterclipid>clip-master</masterclipid>
                  <collapsed>false</collapsed>
                  <angle>
                    <activevideoangle>false</activevideoangle>
                    <activeaudioangle>false</activeaudioangle>
                    <clip id="clip-1"/>
                  </angle>
                  <angle>
                    <activevideoangle>false</activevideoangle>
                    <activeaudioangle>false</activeaudioangle>
                    <clip id="clip-2"/>
                  </angle>
                  <angle>
                    <activevideoangle>false</activevideoangle>
                    <activeaudioangle>false</activeaudioangle>
                    <clip id="clip-3"/>
                  </angle>
                  <angle>
                    <activevideoangle>false</activevideoangle>
                    <activeaudioangle>false</activeaudioangle>
                    <clip id="clip-4"/>
                  </angle>
                  <angle>
                    <activevideoangle>false</activevideoangle>
                    <activeaudioangle>false</activeaudioangle>
                    <clip id="clip-5"/>
                  </angle>
                  <angle>
                    <activevideoangle>true</activevideoangle>
                    <activeaudioangle>true</activeaudioangle>
                    <clip id="clip-6"/>
                  </angle>
                  <angle>
                    <activevideoangle>false</activevideoangle>
                    <activeaudioangle>false</activeaudioangle>
                    <clip id="clip-7"/>
                  </angle>
                  <angle>
                    <activevideoangle>false</activevideoangle>
                    <activeaudioangle>false</activeaudioangle>
                    <clip id="clip-8"/>
                  </angle>
                  <angle>
                    <activevideoangle>false</activevideoangle>
                    <activeaudioangle>false</activeaudioangle>
                    <clip id="clip-9"/>
                  </angle>
                  <masterclipid>clip-master</masterclipid>
                </multiclip>
              </clipitem>
              <clipitem id="cs-1044">
                <duration>73</duration>
                <rate>
                  <ntsc>false</ntsc>
                  <timebase>25</timebase>
                </rate>
                <in>91177</in>
                <out>91249</out>
                <start>91177</start>
                <end>91249</end>
                <file id="src-3"/>
                <sourcetrack>
                  <mediatype>video</mediatype>
                  <trackindex>1</trackindex>
                </sourcetrack>
                <multiclip id="mcs-1044">
                  <name>MCS-1044</name>
                  <masterclipid>clip-master</masterclipid>
                  <collapsed>false</collapsed>
                  <angle>
                    <activevideoangle>false</activevideoangle>
                    <activeaudioangle>false</activeaudioangle>
                    <clip id="clip-1"/>
                  </angle>
                  <angle>
                    <activevideoangle>false</activevideoangle>
                    <activeaudioangle>false</activeaudioangle>
                    <clip id="clip-2"/>
                  </angle>
                  <angle>
                    <activevideoangle>true</activevideoangle>
                    <activeaudioangle>true</activeaudioangle>
                    <clip id="clip-3"/>
                  </angle>
                  <angle>
                    <activevideoangle>false</activevideoangle>
                    <activeaudioangle>false</activeaudioangle>
                    <clip id="clip-4"/>
                  </angle>
                  <angle>
                    <activevideoangle>false</activevideoangle>
                    <activeaudioangle>false</activeaudioangle>
                    <clip id="clip-5"/>
                  </angle>
                  <angle>
                    <activevideoangle>false</activevideoangle>
                    <activeaudioangle>false</activeaudioangle>
                    <clip id="clip-6"/>
                  </angle>
                  <angle>
                    <activevideoangle>false</activevideoangle>
                    <activeaudioangle>false</activeaudioangle>
                    <clip id="clip-7"/>
                  </angle>
                  <angle>
                    <activevideoangle>false</activevideoangle>
                    <activeaudioangle>false</activeaudioangle>
                    <clip id="clip-8"/>
                  </angle>
                  <angle>
                    <activevideoangle>false</activevideoangle>
                    <activeaudioangle>false</activeaudioangle>
                    <clip id="clip-9"/>
                  </angle>
                  <masterclipid>clip-master</masterclipid>
                </multiclip>
              </clipitem>
              <clipitem id="cs-1045">
                <duration>69</duration>
                <rate>
                  <ntsc>false</ntsc>
                  <timebase>25</timebase>
                </rate>
                <in>91249</in>
                <out>91317</out>
                <start>91249</start>
                <end>91317</end>
                <file id="src-4"/>
                <sourcetrack>
                  <mediatype>video</mediatype>
                  <trackindex>1</trackindex>
                </sourcetrack>
                <multiclip id="mcs-1045">
                  <name>MCS-1045</name>
                  <masterclipid>clip-master</masterclipid>
                  <collapsed>false</collapsed>
                  <angle>
                    <activevideoangle>false</activevideoangle>
                    <activeaudioangle>false</activeaudioangle>
                    <clip id="clip-1"/>
                  </angle>
                  <angle>
                    <activevideoangle>false</activevideoangle>
                    <activeaudioangle>false</activeaudioangle>
                    <clip id="clip-2"/>
                  </angle>
                  <angle>
                    <activevideoangle>false</activevideoangle>
                    <activeaudioangle>false</activeaudioangle>
                    <clip id="clip-3"/>
                  </angle>
                  <angle>
                    <activevideoangle>true</activevideoangle>
                    <activeaudioangle>true</activeaudioangle>
                    <clip id="clip-4"/>
                  </angle>
                  <angle>
                    <activevideoangle>false</activevideoangle>
                    <activeaudioangle>false</activeaudioangle>
                    <clip id="clip-5"/>
                  </angle>
                  <angle>
                    <activevideoangle>false</activevideoangle>
                    <activeaudioangle>false</activeaudioangle>
                    <clip id="clip-6"/>
                  </angle>
                  <angle>
                    <activevideoangle>false</activevideoangle>
                    <activeaudioangle>false</activeaudioangle>
                    <clip id="clip-7"/>
                  </angle>
                  <angle>
                    <activevideoangle>false</activevideoangle>
                    <activeaudioangle>false</activeaudioangle>
                    <clip id="clip-8"/>
                  </angle>
                  <angle>
                    <activevideoangle>false</activevideoangle>
                    <activeaudioangle>false</activeaudioangle>
                    <clip id="clip-9"/>
                  </angle>
                  <masterclipid>clip-master</masterclipid>
                </multiclip>
              </clipitem>
              <clipitem id="cs-1046">
                <duration>71</duration>
                <rate>
                  <ntsc>false</ntsc>
                  <timebase>25</timebase>
                </rate>
                <in>91317</in>
                <out>91387</out>
                <start>91317</start>
                <end>91387</end>
                <file id="src-2"/>
                <sourcetrack>
                  <mediatype>video</mediatype>
                  <trackindex>1</trackindex>
                </sourcetrack>
                <multiclip id="mcs-1046">
                  <name>MCS-1046</name>
                  <masterclipid>clip-master</masterclipid>
                  <collapsed>false</collapsed>
                  <angle>
                    <activevideoangle>false</activevideoangle>
                    <activeaudioangle>false</activeaudioangle>
                    <clip id="clip-1"/>
                  </angle>
                  <angle>
                    <activevideoangle>true</activevideoangle>
                    <activeaudioangle>true</activeaudioangle>
                    <clip id="clip-2"/>
                  </angle>
                  <angle>
                    <activevideoangle>false</activevideoangle>
                    <activeaudioangle>false</activeaudioangle>
                    <clip id="clip-3"/>
                  </angle>
                  <angle>
                    <activevideoangle>false</activevideoangle>
                    <activeaudioangle>false</activeaudioangle>
                    <clip id="clip-4"/>
                  </angle>
                  <angle>
                    <activevideoangle>false</activevideoangle>
                    <activeaudioangle>false</activeaudioangle>
                    <clip id="clip-5"/>
                  </angle>
                  <angle>
                    <activevideoangle>false</activevideoangle>
                    <activeaudioangle>false</activeaudioangle>
                    <clip id="clip-6"/>
                  </angle>
                  <angle>
                    <activevideoangle>false</activevideoangle>
                    <activeaudioangle>false</activeaudioangle>
                    <clip id="clip-7"/>
                  </angle>
                  <angle>
                    <activevideoangle>false</activevideoangle>
                    <activeaudioangle>false</activeaudioangle>
                    <clip id="clip-8"/>
                  </angle>
                  <angle>
                    <activevideoangle>false</activevideoangle>
                    <activeaudioangle>false</activeaudioangle>
                    <clip id="clip-9"/>
                  </angle>
                  <masterclipid>clip-master</masterclipid>
                </multiclip>
              </clipitem>
              <clipitem id="cs-1047">
                <duration>72</duration>
                <rate>
                  <ntsc>false</ntsc>
                  <timebase>25</timebase>
                </rate>
                <in>91387</in>
                <out>91458</out>
                <start>91387</start>
                <end>91458</end>
                <file id="src-3"/>
                <sourcetrack>
                  <mediatype>video</mediatype>
                  <trackindex>1</trackindex>
                </sourcetrack>
                <multiclip id="mcs-1047">
                  <name>MCS-1047</name>
                  <masterclipid>clip-master</masterclipid>
                  <collapsed>false</collapsed>
                  <angle>
                    <activevideoangle>false</activevideoangle>
                    <activeaudioangle>false</activeaudioangle>
                    <clip id="clip-1"/>
                  </angle>
                  <angle>
                    <activevideoangle>false</activevideoangle>
                    <activeaudioangle>false</activeaudioangle>
                    <clip id="clip-2"/>
                  </angle>
                  <angle>
                    <activevideoangle>true</activevideoangle>
                    <activeaudioangle>true</activeaudioangle>
                    <clip id="clip-3"/>
                  </angle>
                  <angle>
                    <activevideoangle>false</activevideoangle>
                    <activeaudioangle>false</activeaudioangle>
                    <clip id="clip-4"/>
                  </angle>
                  <angle>
                    <activevideoangle>false</activevideoangle>
                    <activeaudioangle>false</activeaudioangle>
                    <clip id="clip-5"/>
                  </angle>
                  <angle>
                    <activevideoangle>false</activevideoangle>
                    <activeaudioangle>false</activeaudioangle>
                    <clip id="clip-6"/>
                  </angle>
                  <angle>
                    <activevideoangle>false</activevideoangle>
                    <activeaudioangle>false</activeaudioangle>
                    <clip id="clip-7"/>
                  </angle>
                  <angle>
                    <activevideoangle>false</activevideoangle>
                    <activeaudioangle>false</activeaudioangle>
                    <clip id="clip-8"/>
                  </angle>
                  <angle>
                    <activevideoangle>false</activevideoangle>
                    <activeaudioangle>false</activeaudioangle>
                    <clip id="clip-9"/>
                  </angle>
                  <masterclipid>clip-master</masterclipid>
                </multiclip>
              </clipitem>
              <clipitem id="cs-1048">
                <duration>125</duration>
                <rate>
                  <ntsc>false</ntsc>
                  <timebase>25</timebase>
                </rate>
                <in>91458</in>
                <out>91582</out>
                <start>91458</start>
                <end>91582</end>
                <file id="src-4"/>
                <sourcetrack>
                  <mediatype>video</mediatype>
                  <trackindex>1</trackindex>
                </sourcetrack>
                <multiclip id="mcs-1048">
                  <name>MCS-1048</name>
                  <masterclipid>clip-master</masterclipid>
                  <collapsed>false</collapsed>
                  <angle>
                    <activevideoangle>false</activevideoangle>
                    <activeaudioangle>false</activeaudioangle>
                    <clip id="clip-1"/>
                  </angle>
                  <angle>
                    <activevideoangle>false</activevideoangle>
                    <activeaudioangle>false</activeaudioangle>
                    <clip id="clip-2"/>
                  </angle>
                  <angle>
                    <activevideoangle>false</activevideoangle>
                    <activeaudioangle>false</activeaudioangle>
                    <clip id="clip-3"/>
                  </angle>
                  <angle>
                    <activevideoangle>true</activevideoangle>
                    <activeaudioangle>true</activeaudioangle>
                    <clip id="clip-4"/>
                  </angle>
                  <angle>
                    <activevideoangle>false</activevideoangle>
                    <activeaudioangle>false</activeaudioangle>
                    <clip id="clip-5"/>
                  </angle>
                  <angle>
                    <activevideoangle>false</activevideoangle>
                    <activeaudioangle>false</activeaudioangle>
                    <clip id="clip-6"/>
                  </angle>
                  <angle>
                    <activevideoangle>false</activevideoangle>
                    <activeaudioangle>false</activeaudioangle>
                    <clip id="clip-7"/>
                  </angle>
                  <angle>
                    <activevideoangle>false</activevideoangle>
                    <activeaudioangle>false</activeaudioangle>
                    <clip id="clip-8"/>
                  </angle>
                  <angle>
                    <activevideoangle>false</activevideoangle>
                    <activeaudioangle>false</activeaudioangle>
                    <clip id="clip-9"/>
                  </angle>
                  <masterclipid>clip-master</masterclipid>
                </multiclip>
              </clipitem>
              <clipitem id="cs-1049">
                <duration>129</duration>
                <rate>
                  <ntsc>false</ntsc>
                  <timebase>25</timebase>
                </rate>
                <in>91582</in>
                <out>91710</out>
                <start>91582</start>
                <end>91710</end>
                <file id="src-3"/>
                <sourcetrack>
                  <mediatype>video</mediatype>
                  <trackindex>1</trackindex>
                </sourcetrack>
                <multiclip id="mcs-1049">
                  <name>MCS-1049</name>
                  <masterclipid>clip-master</masterclipid>
                  <collapsed>false</collapsed>
                  <angle>
                    <activevideoangle>false</activevideoangle>
                    <activeaudioangle>false</activeaudioangle>
                    <clip id="clip-1"/>
                  </angle>
                  <angle>
                    <activevideoangle>false</activevideoangle>
                    <activeaudioangle>false</activeaudioangle>
                    <clip id="clip-2"/>
                  </angle>
                  <angle>
                    <activevideoangle>true</activevideoangle>
                    <activeaudioangle>true</activeaudioangle>
                    <clip id="clip-3"/>
                  </angle>
                  <angle>
                    <activevideoangle>false</activevideoangle>
                    <activeaudioangle>false</activeaudioangle>
                    <clip id="clip-4"/>
                  </angle>
                  <angle>
                    <activevideoangle>false</activevideoangle>
                    <activeaudioangle>false</activeaudioangle>
                    <clip id="clip-5"/>
                  </angle>
                  <angle>
                    <activevideoangle>false</activevideoangle>
                    <activeaudioangle>false</activeaudioangle>
                    <clip id="clip-6"/>
                  </angle>
                  <angle>
                    <activevideoangle>false</activevideoangle>
                    <activeaudioangle>false</activeaudioangle>
                    <clip id="clip-7"/>
                  </angle>
                  <angle>
                    <activevideoangle>false</activevideoangle>
                    <activeaudioangle>false</activeaudioangle>
                    <clip id="clip-8"/>
                  </angle>
                  <angle>
                    <activevideoangle>false</activevideoangle>
                    <activeaudioangle>false</activeaudioangle>
                    <clip id="clip-9"/>
                  </angle>
                  <masterclipid>clip-master</masterclipid>
                </multiclip>
              </clipitem>
              <clipitem id="cs-1050">
                <duration>148</duration>
                <rate>
                  <ntsc>false</ntsc>
                  <timebase>25</timebase>
                </rate>
                <in>91710</in>
                <out>91857</out>
                <start>91710</start>
                <end>91857</end>
                <file id="src-2"/>
                <sourcetrack>
                  <mediatype>video</mediatype>
                  <trackindex>1</trackindex>
                </sourcetrack>
                <multiclip id="mcs-1050">
                  <name>MCS-1050</name>
                  <masterclipid>clip-master</masterclipid>
                  <collapsed>false</collapsed>
                  <angle>
                    <activevideoangle>false</activevideoangle>
                    <activeaudioangle>false</activeaudioangle>
                    <clip id="clip-1"/>
                  </angle>
                  <angle>
                    <activevideoangle>true</activevideoangle>
                    <activeaudioangle>true</activeaudioangle>
                    <clip id="clip-2"/>
                  </angle>
                  <angle>
                    <activevideoangle>false</activevideoangle>
                    <activeaudioangle>false</activeaudioangle>
                    <clip id="clip-3"/>
                  </angle>
                  <angle>
                    <activevideoangle>false</activevideoangle>
                    <activeaudioangle>false</activeaudioangle>
                    <clip id="clip-4"/>
                  </angle>
                  <angle>
                    <activevideoangle>false</activevideoangle>
                    <activeaudioangle>false</activeaudioangle>
                    <clip id="clip-5"/>
                  </angle>
                  <angle>
                    <activevideoangle>false</activevideoangle>
                    <activeaudioangle>false</activeaudioangle>
                    <clip id="clip-6"/>
                  </angle>
                  <angle>
                    <activevideoangle>false</activevideoangle>
                    <activeaudioangle>false</activeaudioangle>
                    <clip id="clip-7"/>
                  </angle>
                  <angle>
                    <activevideoangle>false</activevideoangle>
                    <activeaudioangle>false</activeaudioangle>
                    <clip id="clip-8"/>
                  </angle>
                  <angle>
                    <activevideoangle>false</activevideoangle>
                    <activeaudioangle>false</activeaudioangle>
                    <clip id="clip-9"/>
                  </angle>
                  <masterclipid>clip-master</masterclipid>
                </multiclip>
              </clipitem>
              <clipitem id="cs-1051">
                <duration>178</duration>
                <rate>
                  <ntsc>false</ntsc>
                  <timebase>25</timebase>
                </rate>
                <in>91857</in>
                <out>92034</out>
                <start>91857</start>
                <end>92034</end>
                <file id="src-4"/>
                <sourcetrack>
                  <mediatype>video</mediatype>
                  <trackindex>1</trackindex>
                </sourcetrack>
                <multiclip id="mcs-1051">
                  <name>MCS-1051</name>
                  <masterclipid>clip-master</masterclipid>
                  <collapsed>false</collapsed>
                  <angle>
                    <activevideoangle>false</activevideoangle>
                    <activeaudioangle>false</activeaudioangle>
                    <clip id="clip-1"/>
                  </angle>
                  <angle>
                    <activevideoangle>false</activevideoangle>
                    <activeaudioangle>false</activeaudioangle>
                    <clip id="clip-2"/>
                  </angle>
                  <angle>
                    <activevideoangle>false</activevideoangle>
                    <activeaudioangle>false</activeaudioangle>
                    <clip id="clip-3"/>
                  </angle>
                  <angle>
                    <activevideoangle>true</activevideoangle>
                    <activeaudioangle>true</activeaudioangle>
                    <clip id="clip-4"/>
                  </angle>
                  <angle>
                    <activevideoangle>false</activevideoangle>
                    <activeaudioangle>false</activeaudioangle>
                    <clip id="clip-5"/>
                  </angle>
                  <angle>
                    <activevideoangle>false</activevideoangle>
                    <activeaudioangle>false</activeaudioangle>
                    <clip id="clip-6"/>
                  </angle>
                  <angle>
                    <activevideoangle>false</activevideoangle>
                    <activeaudioangle>false</activeaudioangle>
                    <clip id="clip-7"/>
                  </angle>
                  <angle>
                    <activevideoangle>false</activevideoangle>
                    <activeaudioangle>false</activeaudioangle>
                    <clip id="clip-8"/>
                  </angle>
                  <angle>
                    <activevideoangle>false</activevideoangle>
                    <activeaudioangle>false</activeaudioangle>
                    <clip id="clip-9"/>
                  </angle>
                  <masterclipid>clip-master</masterclipid>
                </multiclip>
              </clipitem>
              <clipitem id="cs-1052">
                <duration>123</duration>
                <rate>
                  <ntsc>false</ntsc>
                  <timebase>25</timebase>
                </rate>
                <in>92034</in>
                <out>92156</out>
                <start>92034</start>
                <end>92156</end>
                <file id="src-5"/>
                <sourcetrack>
                  <mediatype>video</mediatype>
                  <trackindex>1</trackindex>
                </sourcetrack>
                <multiclip id="mcs-1052">
                  <name>MCS-1052</name>
                  <masterclipid>clip-master</masterclipid>
                  <collapsed>false</collapsed>
                  <angle>
                    <activevideoangle>false</activevideoangle>
                    <activeaudioangle>false</activeaudioangle>
                    <clip id="clip-1"/>
                  </angle>
                  <angle>
                    <activevideoangle>false</activevideoangle>
                    <activeaudioangle>false</activeaudioangle>
                    <clip id="clip-2"/>
                  </angle>
                  <angle>
                    <activevideoangle>false</activevideoangle>
                    <activeaudioangle>false</activeaudioangle>
                    <clip id="clip-3"/>
                  </angle>
                  <angle>
                    <activevideoangle>false</activevideoangle>
                    <activeaudioangle>false</activeaudioangle>
                    <clip id="clip-4"/>
                  </angle>
                  <angle>
                    <activevideoangle>true</activevideoangle>
                    <activeaudioangle>true</activeaudioangle>
                    <clip id="clip-5"/>
                  </angle>
                  <angle>
                    <activevideoangle>false</activevideoangle>
                    <activeaudioangle>false</activeaudioangle>
                    <clip id="clip-6"/>
                  </angle>
                  <angle>
                    <activevideoangle>false</activevideoangle>
                    <activeaudioangle>false</activeaudioangle>
                    <clip id="clip-7"/>
                  </angle>
                  <angle>
                    <activevideoangle>false</activevideoangle>
                    <activeaudioangle>false</activeaudioangle>
                    <clip id="clip-8"/>
                  </angle>
                  <angle>
                    <activevideoangle>false</activevideoangle>
                    <activeaudioangle>false</activeaudioangle>
                    <clip id="clip-9"/>
                  </angle>
                  <masterclipid>clip-master</masterclipid>
                </multiclip>
              </clipitem>
              <clipitem id="cs-1053">
                <duration>87</duration>
                <rate>
                  <ntsc>false</ntsc>
                  <timebase>25</timebase>
                </rate>
                <in>92156</in>
                <out>92242</out>
                <start>92156</start>
                <end>92242</end>
                <file id="src-7"/>
                <sourcetrack>
                  <mediatype>video</mediatype>
                  <trackindex>1</trackindex>
                </sourcetrack>
                <multiclip id="mcs-1053">
                  <name>MCS-1053</name>
                  <masterclipid>clip-master</masterclipid>
                  <collapsed>false</collapsed>
                  <angle>
                    <activevideoangle>false</activevideoangle>
                    <activeaudioangle>false</activeaudioangle>
                    <clip id="clip-1"/>
                  </angle>
                  <angle>
                    <activevideoangle>false</activevideoangle>
                    <activeaudioangle>false</activeaudioangle>
                    <clip id="clip-2"/>
                  </angle>
                  <angle>
                    <activevideoangle>false</activevideoangle>
                    <activeaudioangle>false</activeaudioangle>
                    <clip id="clip-3"/>
                  </angle>
                  <angle>
                    <activevideoangle>false</activevideoangle>
                    <activeaudioangle>false</activeaudioangle>
                    <clip id="clip-4"/>
                  </angle>
                  <angle>
                    <activevideoangle>false</activevideoangle>
                    <activeaudioangle>false</activeaudioangle>
                    <clip id="clip-5"/>
                  </angle>
                  <angle>
                    <activevideoangle>false</activevideoangle>
                    <activeaudioangle>false</activeaudioangle>
                    <clip id="clip-6"/>
                  </angle>
                  <angle>
                    <activevideoangle>true</activevideoangle>
                    <activeaudioangle>true</activeaudioangle>
                    <clip id="clip-7"/>
                  </angle>
                  <angle>
                    <activevideoangle>false</activevideoangle>
                    <activeaudioangle>false</activeaudioangle>
                    <clip id="clip-8"/>
                  </angle>
                  <angle>
                    <activevideoangle>false</activevideoangle>
                    <activeaudioangle>false</activeaudioangle>
                    <clip id="clip-9"/>
                  </angle>
                  <masterclipid>clip-master</masterclipid>
                </multiclip>
              </clipitem>
              <clipitem id="cs-1054">
                <duration>54</duration>
                <rate>
                  <ntsc>false</ntsc>
                  <timebase>25</timebase>
                </rate>
                <in>92242</in>
                <out>92295</out>
                <start>92242</start>
                <end>92295</end>
                <file id="src-3"/>
                <sourcetrack>
                  <mediatype>video</mediatype>
                  <trackindex>1</trackindex>
                </sourcetrack>
                <multiclip id="mcs-1054">
                  <name>MCS-1054</name>
                  <masterclipid>clip-master</masterclipid>
                  <collapsed>false</collapsed>
                  <angle>
                    <activevideoangle>false</activevideoangle>
                    <activeaudioangle>false</activeaudioangle>
                    <clip id="clip-1"/>
                  </angle>
                  <angle>
                    <activevideoangle>false</activevideoangle>
                    <activeaudioangle>false</activeaudioangle>
                    <clip id="clip-2"/>
                  </angle>
                  <angle>
                    <activevideoangle>true</activevideoangle>
                    <activeaudioangle>true</activeaudioangle>
                    <clip id="clip-3"/>
                  </angle>
                  <angle>
                    <activevideoangle>false</activevideoangle>
                    <activeaudioangle>false</activeaudioangle>
                    <clip id="clip-4"/>
                  </angle>
                  <angle>
                    <activevideoangle>false</activevideoangle>
                    <activeaudioangle>false</activeaudioangle>
                    <clip id="clip-5"/>
                  </angle>
                  <angle>
                    <activevideoangle>false</activevideoangle>
                    <activeaudioangle>false</activeaudioangle>
                    <clip id="clip-6"/>
                  </angle>
                  <angle>
                    <activevideoangle>false</activevideoangle>
                    <activeaudioangle>false</activeaudioangle>
                    <clip id="clip-7"/>
                  </angle>
                  <angle>
                    <activevideoangle>false</activevideoangle>
                    <activeaudioangle>false</activeaudioangle>
                    <clip id="clip-8"/>
                  </angle>
                  <angle>
                    <activevideoangle>false</activevideoangle>
                    <activeaudioangle>false</activeaudioangle>
                    <clip id="clip-9"/>
                  </angle>
                  <masterclipid>clip-master</masterclipid>
                </multiclip>
              </clipitem>
              <clipitem id="cs-1055">
                <duration>229</duration>
                <rate>
                  <ntsc>false</ntsc>
                  <timebase>25</timebase>
                </rate>
                <in>92295</in>
                <out>92523</out>
                <start>92295</start>
                <end>92523</end>
                <file id="src-2"/>
                <sourcetrack>
                  <mediatype>video</mediatype>
                  <trackindex>1</trackindex>
                </sourcetrack>
                <multiclip id="mcs-1055">
                  <name>MCS-1055</name>
                  <masterclipid>clip-master</masterclipid>
                  <collapsed>false</collapsed>
                  <angle>
                    <activevideoangle>false</activevideoangle>
                    <activeaudioangle>false</activeaudioangle>
                    <clip id="clip-1"/>
                  </angle>
                  <angle>
                    <activevideoangle>true</activevideoangle>
                    <activeaudioangle>true</activeaudioangle>
                    <clip id="clip-2"/>
                  </angle>
                  <angle>
                    <activevideoangle>false</activevideoangle>
                    <activeaudioangle>false</activeaudioangle>
                    <clip id="clip-3"/>
                  </angle>
                  <angle>
                    <activevideoangle>false</activevideoangle>
                    <activeaudioangle>false</activeaudioangle>
                    <clip id="clip-4"/>
                  </angle>
                  <angle>
                    <activevideoangle>false</activevideoangle>
                    <activeaudioangle>false</activeaudioangle>
                    <clip id="clip-5"/>
                  </angle>
                  <angle>
                    <activevideoangle>false</activevideoangle>
                    <activeaudioangle>false</activeaudioangle>
                    <clip id="clip-6"/>
                  </angle>
                  <angle>
                    <activevideoangle>false</activevideoangle>
                    <activeaudioangle>false</activeaudioangle>
                    <clip id="clip-7"/>
                  </angle>
                  <angle>
                    <activevideoangle>false</activevideoangle>
                    <activeaudioangle>false</activeaudioangle>
                    <clip id="clip-8"/>
                  </angle>
                  <angle>
                    <activevideoangle>false</activevideoangle>
                    <activeaudioangle>false</activeaudioangle>
                    <clip id="clip-9"/>
                  </angle>
                  <masterclipid>clip-master</masterclipid>
                </multiclip>
              </clipitem>
              <clipitem id="cs-1056">
                <duration>111</duration>
                <rate>
                  <ntsc>false</ntsc>
                  <timebase>25</timebase>
                </rate>
                <in>92523</in>
                <out>92633</out>
                <start>92523</start>
                <end>92633</end>
                <file id="src-4"/>
                <sourcetrack>
                  <mediatype>video</mediatype>
                  <trackindex>1</trackindex>
                </sourcetrack>
                <multiclip id="mcs-1056">
                  <name>MCS-1056</name>
                  <masterclipid>clip-master</masterclipid>
                  <collapsed>false</collapsed>
                  <angle>
                    <activevideoangle>false</activevideoangle>
                    <activeaudioangle>false</activeaudioangle>
                    <clip id="clip-1"/>
                  </angle>
                  <angle>
                    <activevideoangle>false</activevideoangle>
                    <activeaudioangle>false</activeaudioangle>
                    <clip id="clip-2"/>
                  </angle>
                  <angle>
                    <activevideoangle>false</activevideoangle>
                    <activeaudioangle>false</activeaudioangle>
                    <clip id="clip-3"/>
                  </angle>
                  <angle>
                    <activevideoangle>true</activevideoangle>
                    <activeaudioangle>true</activeaudioangle>
                    <clip id="clip-4"/>
                  </angle>
                  <angle>
                    <activevideoangle>false</activevideoangle>
                    <activeaudioangle>false</activeaudioangle>
                    <clip id="clip-5"/>
                  </angle>
                  <angle>
                    <activevideoangle>false</activevideoangle>
                    <activeaudioangle>false</activeaudioangle>
                    <clip id="clip-6"/>
                  </angle>
                  <angle>
                    <activevideoangle>false</activevideoangle>
                    <activeaudioangle>false</activeaudioangle>
                    <clip id="clip-7"/>
                  </angle>
                  <angle>
                    <activevideoangle>false</activevideoangle>
                    <activeaudioangle>false</activeaudioangle>
                    <clip id="clip-8"/>
                  </angle>
                  <angle>
                    <activevideoangle>false</activevideoangle>
                    <activeaudioangle>false</activeaudioangle>
                    <clip id="clip-9"/>
                  </angle>
                  <masterclipid>clip-master</masterclipid>
                </multiclip>
              </clipitem>
              <clipitem id="cs-1057">
                <duration>109</duration>
                <rate>
                  <ntsc>false</ntsc>
                  <timebase>25</timebase>
                </rate>
                <in>92633</in>
                <out>92741</out>
                <start>92633</start>
                <end>92741</end>
                <file id="src-3"/>
                <sourcetrack>
                  <mediatype>video</mediatype>
                  <trackindex>1</trackindex>
                </sourcetrack>
                <multiclip id="mcs-1057">
                  <name>MCS-1057</name>
                  <masterclipid>clip-master</masterclipid>
                  <collapsed>false</collapsed>
                  <angle>
                    <activevideoangle>false</activevideoangle>
                    <activeaudioangle>false</activeaudioangle>
                    <clip id="clip-1"/>
                  </angle>
                  <angle>
                    <activevideoangle>false</activevideoangle>
                    <activeaudioangle>false</activeaudioangle>
                    <clip id="clip-2"/>
                  </angle>
                  <angle>
                    <activevideoangle>true</activevideoangle>
                    <activeaudioangle>true</activeaudioangle>
                    <clip id="clip-3"/>
                  </angle>
                  <angle>
                    <activevideoangle>false</activevideoangle>
                    <activeaudioangle>false</activeaudioangle>
                    <clip id="clip-4"/>
                  </angle>
                  <angle>
                    <activevideoangle>false</activevideoangle>
                    <activeaudioangle>false</activeaudioangle>
                    <clip id="clip-5"/>
                  </angle>
                  <angle>
                    <activevideoangle>false</activevideoangle>
                    <activeaudioangle>false</activeaudioangle>
                    <clip id="clip-6"/>
                  </angle>
                  <angle>
                    <activevideoangle>false</activevideoangle>
                    <activeaudioangle>false</activeaudioangle>
                    <clip id="clip-7"/>
                  </angle>
                  <angle>
                    <activevideoangle>false</activevideoangle>
                    <activeaudioangle>false</activeaudioangle>
                    <clip id="clip-8"/>
                  </angle>
                  <angle>
                    <activevideoangle>false</activevideoangle>
                    <activeaudioangle>false</activeaudioangle>
                    <clip id="clip-9"/>
                  </angle>
                  <masterclipid>clip-master</masterclipid>
                </multiclip>
              </clipitem>
              <clipitem id="cs-1058">
                <duration>55</duration>
                <rate>
                  <ntsc>false</ntsc>
                  <timebase>25</timebase>
                </rate>
                <in>92741</in>
                <out>92795</out>
                <start>92741</start>
                <end>92795</end>
                <file id="src-7"/>
                <sourcetrack>
                  <mediatype>video</mediatype>
                  <trackindex>1</trackindex>
                </sourcetrack>
                <multiclip id="mcs-1058">
                  <name>MCS-1058</name>
                  <masterclipid>clip-master</masterclipid>
                  <collapsed>false</collapsed>
                  <angle>
                    <activevideoangle>false</activevideoangle>
                    <activeaudioangle>false</activeaudioangle>
                    <clip id="clip-1"/>
                  </angle>
                  <angle>
                    <activevideoangle>false</activevideoangle>
                    <activeaudioangle>false</activeaudioangle>
                    <clip id="clip-2"/>
                  </angle>
                  <angle>
                    <activevideoangle>false</activevideoangle>
                    <activeaudioangle>false</activeaudioangle>
                    <clip id="clip-3"/>
                  </angle>
                  <angle>
                    <activevideoangle>false</activevideoangle>
                    <activeaudioangle>false</activeaudioangle>
                    <clip id="clip-4"/>
                  </angle>
                  <angle>
                    <activevideoangle>false</activevideoangle>
                    <activeaudioangle>false</activeaudioangle>
                    <clip id="clip-5"/>
                  </angle>
                  <angle>
                    <activevideoangle>false</activevideoangle>
                    <activeaudioangle>false</activeaudioangle>
                    <clip id="clip-6"/>
                  </angle>
                  <angle>
                    <activevideoangle>true</activevideoangle>
                    <activeaudioangle>true</activeaudioangle>
                    <clip id="clip-7"/>
                  </angle>
                  <angle>
                    <activevideoangle>false</activevideoangle>
                    <activeaudioangle>false</activeaudioangle>
                    <clip id="clip-8"/>
                  </angle>
                  <angle>
                    <activevideoangle>false</activevideoangle>
                    <activeaudioangle>false</activeaudioangle>
                    <clip id="clip-9"/>
                  </angle>
                  <masterclipid>clip-master</masterclipid>
                </multiclip>
              </clipitem>
              <clipitem id="cs-1059">
                <duration>225</duration>
                <rate>
                  <ntsc>false</ntsc>
                  <timebase>25</timebase>
                </rate>
                <in>92795</in>
                <out>93019</out>
                <start>92795</start>
                <end>93019</end>
                <file id="src-4"/>
                <sourcetrack>
                  <mediatype>video</mediatype>
                  <trackindex>1</trackindex>
                </sourcetrack>
                <multiclip id="mcs-1059">
                  <name>MCS-1059</name>
                  <masterclipid>clip-master</masterclipid>
                  <collapsed>false</collapsed>
                  <angle>
                    <activevideoangle>false</activevideoangle>
                    <activeaudioangle>false</activeaudioangle>
                    <clip id="clip-1"/>
                  </angle>
                  <angle>
                    <activevideoangle>false</activevideoangle>
                    <activeaudioangle>false</activeaudioangle>
                    <clip id="clip-2"/>
                  </angle>
                  <angle>
                    <activevideoangle>false</activevideoangle>
                    <activeaudioangle>false</activeaudioangle>
                    <clip id="clip-3"/>
                  </angle>
                  <angle>
                    <activevideoangle>true</activevideoangle>
                    <activeaudioangle>true</activeaudioangle>
                    <clip id="clip-4"/>
                  </angle>
                  <angle>
                    <activevideoangle>false</activevideoangle>
                    <activeaudioangle>false</activeaudioangle>
                    <clip id="clip-5"/>
                  </angle>
                  <angle>
                    <activevideoangle>false</activevideoangle>
                    <activeaudioangle>false</activeaudioangle>
                    <clip id="clip-6"/>
                  </angle>
                  <angle>
                    <activevideoangle>false</activevideoangle>
                    <activeaudioangle>false</activeaudioangle>
                    <clip id="clip-7"/>
                  </angle>
                  <angle>
                    <activevideoangle>false</activevideoangle>
                    <activeaudioangle>false</activeaudioangle>
                    <clip id="clip-8"/>
                  </angle>
                  <angle>
                    <activevideoangle>false</activevideoangle>
                    <activeaudioangle>false</activeaudioangle>
                    <clip id="clip-9"/>
                  </angle>
                  <masterclipid>clip-master</masterclipid>
                </multiclip>
              </clipitem>
              <clipitem id="cs-1060">
                <duration>92</duration>
                <rate>
                  <ntsc>false</ntsc>
                  <timebase>25</timebase>
                </rate>
                <in>93019</in>
                <out>93110</out>
                <start>93019</start>
                <end>93110</end>
                <file id="src-2"/>
                <sourcetrack>
                  <mediatype>video</mediatype>
                  <trackindex>1</trackindex>
                </sourcetrack>
                <multiclip id="mcs-1060">
                  <name>MCS-1060</name>
                  <masterclipid>clip-master</masterclipid>
                  <collapsed>false</collapsed>
                  <angle>
                    <activevideoangle>false</activevideoangle>
                    <activeaudioangle>false</activeaudioangle>
                    <clip id="clip-1"/>
                  </angle>
                  <angle>
                    <activevideoangle>true</activevideoangle>
                    <activeaudioangle>true</activeaudioangle>
                    <clip id="clip-2"/>
                  </angle>
                  <angle>
                    <activevideoangle>false</activevideoangle>
                    <activeaudioangle>false</activeaudioangle>
                    <clip id="clip-3"/>
                  </angle>
                  <angle>
                    <activevideoangle>false</activevideoangle>
                    <activeaudioangle>false</activeaudioangle>
                    <clip id="clip-4"/>
                  </angle>
                  <angle>
                    <activevideoangle>false</activevideoangle>
                    <activeaudioangle>false</activeaudioangle>
                    <clip id="clip-5"/>
                  </angle>
                  <angle>
                    <activevideoangle>false</activevideoangle>
                    <activeaudioangle>false</activeaudioangle>
                    <clip id="clip-6"/>
                  </angle>
                  <angle>
                    <activevideoangle>false</activevideoangle>
                    <activeaudioangle>false</activeaudioangle>
                    <clip id="clip-7"/>
                  </angle>
                  <angle>
                    <activevideoangle>false</activevideoangle>
                    <activeaudioangle>false</activeaudioangle>
                    <clip id="clip-8"/>
                  </angle>
                  <angle>
                    <activevideoangle>false</activevideoangle>
                    <activeaudioangle>false</activeaudioangle>
                    <clip id="clip-9"/>
                  </angle>
                  <masterclipid>clip-master</masterclipid>
                </multiclip>
              </clipitem>
              <clipitem id="cs-1061">
                <duration>61</duration>
                <rate>
                  <ntsc>false</ntsc>
                  <timebase>25</timebase>
                </rate>
                <in>93110</in>
                <out>93170</out>
                <start>93110</start>
                <end>93170</end>
                <file id="src-4"/>
                <sourcetrack>
                  <mediatype>video</mediatype>
                  <trackindex>1</trackindex>
                </sourcetrack>
                <multiclip id="mcs-1061">
                  <name>MCS-1061</name>
                  <masterclipid>clip-master</masterclipid>
                  <collapsed>false</collapsed>
                  <angle>
                    <activevideoangle>false</activevideoangle>
                    <activeaudioangle>false</activeaudioangle>
                    <clip id="clip-1"/>
                  </angle>
                  <angle>
                    <activevideoangle>false</activevideoangle>
                    <activeaudioangle>false</activeaudioangle>
                    <clip id="clip-2"/>
                  </angle>
                  <angle>
                    <activevideoangle>false</activevideoangle>
                    <activeaudioangle>false</activeaudioangle>
                    <clip id="clip-3"/>
                  </angle>
                  <angle>
                    <activevideoangle>true</activevideoangle>
                    <activeaudioangle>true</activeaudioangle>
                    <clip id="clip-4"/>
                  </angle>
                  <angle>
                    <activevideoangle>false</activevideoangle>
                    <activeaudioangle>false</activeaudioangle>
                    <clip id="clip-5"/>
                  </angle>
                  <angle>
                    <activevideoangle>false</activevideoangle>
                    <activeaudioangle>false</activeaudioangle>
                    <clip id="clip-6"/>
                  </angle>
                  <angle>
                    <activevideoangle>false</activevideoangle>
                    <activeaudioangle>false</activeaudioangle>
                    <clip id="clip-7"/>
                  </angle>
                  <angle>
                    <activevideoangle>false</activevideoangle>
                    <activeaudioangle>false</activeaudioangle>
                    <clip id="clip-8"/>
                  </angle>
                  <angle>
                    <activevideoangle>false</activevideoangle>
                    <activeaudioangle>false</activeaudioangle>
                    <clip id="clip-9"/>
                  </angle>
                  <masterclipid>clip-master</masterclipid>
                </multiclip>
              </clipitem>
              <clipitem id="cs-1062">
                <duration>66</duration>
                <rate>
                  <ntsc>false</ntsc>
                  <timebase>25</timebase>
                </rate>
                <in>93170</in>
                <out>93235</out>
                <start>93170</start>
                <end>93235</end>
                <file id="src-5"/>
                <sourcetrack>
                  <mediatype>video</mediatype>
                  <trackindex>1</trackindex>
                </sourcetrack>
                <multiclip id="mcs-1062">
                  <name>MCS-1062</name>
                  <masterclipid>clip-master</masterclipid>
                  <collapsed>false</collapsed>
                  <angle>
                    <activevideoangle>false</activevideoangle>
                    <activeaudioangle>false</activeaudioangle>
                    <clip id="clip-1"/>
                  </angle>
                  <angle>
                    <activevideoangle>false</activevideoangle>
                    <activeaudioangle>false</activeaudioangle>
                    <clip id="clip-2"/>
                  </angle>
                  <angle>
                    <activevideoangle>false</activevideoangle>
                    <activeaudioangle>false</activeaudioangle>
                    <clip id="clip-3"/>
                  </angle>
                  <angle>
                    <activevideoangle>false</activevideoangle>
                    <activeaudioangle>false</activeaudioangle>
                    <clip id="clip-4"/>
                  </angle>
                  <angle>
                    <activevideoangle>true</activevideoangle>
                    <activeaudioangle>true</activeaudioangle>
                    <clip id="clip-5"/>
                  </angle>
                  <angle>
                    <activevideoangle>false</activevideoangle>
                    <activeaudioangle>false</activeaudioangle>
                    <clip id="clip-6"/>
                  </angle>
                  <angle>
                    <activevideoangle>false</activevideoangle>
                    <activeaudioangle>false</activeaudioangle>
                    <clip id="clip-7"/>
                  </angle>
                  <angle>
                    <activevideoangle>false</activevideoangle>
                    <activeaudioangle>false</activeaudioangle>
                    <clip id="clip-8"/>
                  </angle>
                  <angle>
                    <activevideoangle>false</activevideoangle>
                    <activeaudioangle>false</activeaudioangle>
                    <clip id="clip-9"/>
                  </angle>
                  <masterclipid>clip-master</masterclipid>
                </multiclip>
              </clipitem>
              <clipitem id="cs-1063">
                <duration>113</duration>
                <rate>
                  <ntsc>false</ntsc>
                  <timebase>25</timebase>
                </rate>
                <in>93235</in>
                <out>93347</out>
                <start>93235</start>
                <end>93347</end>
                <file id="src-2"/>
                <sourcetrack>
                  <mediatype>video</mediatype>
                  <trackindex>1</trackindex>
                </sourcetrack>
                <multiclip id="mcs-1063">
                  <name>MCS-1063</name>
                  <masterclipid>clip-master</masterclipid>
                  <collapsed>false</collapsed>
                  <angle>
                    <activevideoangle>false</activevideoangle>
                    <activeaudioangle>false</activeaudioangle>
                    <clip id="clip-1"/>
                  </angle>
                  <angle>
                    <activevideoangle>true</activevideoangle>
                    <activeaudioangle>true</activeaudioangle>
                    <clip id="clip-2"/>
                  </angle>
                  <angle>
                    <activevideoangle>false</activevideoangle>
                    <activeaudioangle>false</activeaudioangle>
                    <clip id="clip-3"/>
                  </angle>
                  <angle>
                    <activevideoangle>false</activevideoangle>
                    <activeaudioangle>false</activeaudioangle>
                    <clip id="clip-4"/>
                  </angle>
                  <angle>
                    <activevideoangle>false</activevideoangle>
                    <activeaudioangle>false</activeaudioangle>
                    <clip id="clip-5"/>
                  </angle>
                  <angle>
                    <activevideoangle>false</activevideoangle>
                    <activeaudioangle>false</activeaudioangle>
                    <clip id="clip-6"/>
                  </angle>
                  <angle>
                    <activevideoangle>false</activevideoangle>
                    <activeaudioangle>false</activeaudioangle>
                    <clip id="clip-7"/>
                  </angle>
                  <angle>
                    <activevideoangle>false</activevideoangle>
                    <activeaudioangle>false</activeaudioangle>
                    <clip id="clip-8"/>
                  </angle>
                  <angle>
                    <activevideoangle>false</activevideoangle>
                    <activeaudioangle>false</activeaudioangle>
                    <clip id="clip-9"/>
                  </angle>
                  <masterclipid>clip-master</masterclipid>
                </multiclip>
              </clipitem>
              <clipitem id="cs-1064">
                <duration>77</duration>
                <rate>
                  <ntsc>false</ntsc>
                  <timebase>25</timebase>
                </rate>
                <in>93347</in>
                <out>93423</out>
                <start>93347</start>
                <end>93423</end>
                <file id="src-3"/>
                <sourcetrack>
                  <mediatype>video</mediatype>
                  <trackindex>1</trackindex>
                </sourcetrack>
                <multiclip id="mcs-1064">
                  <name>MCS-1064</name>
                  <masterclipid>clip-master</masterclipid>
                  <collapsed>false</collapsed>
                  <angle>
                    <activevideoangle>false</activevideoangle>
                    <activeaudioangle>false</activeaudioangle>
                    <clip id="clip-1"/>
                  </angle>
                  <angle>
                    <activevideoangle>false</activevideoangle>
                    <activeaudioangle>false</activeaudioangle>
                    <clip id="clip-2"/>
                  </angle>
                  <angle>
                    <activevideoangle>true</activevideoangle>
                    <activeaudioangle>true</activeaudioangle>
                    <clip id="clip-3"/>
                  </angle>
                  <angle>
                    <activevideoangle>false</activevideoangle>
                    <activeaudioangle>false</activeaudioangle>
                    <clip id="clip-4"/>
                  </angle>
                  <angle>
                    <activevideoangle>false</activevideoangle>
                    <activeaudioangle>false</activeaudioangle>
                    <clip id="clip-5"/>
                  </angle>
                  <angle>
                    <activevideoangle>false</activevideoangle>
                    <activeaudioangle>false</activeaudioangle>
                    <clip id="clip-6"/>
                  </angle>
                  <angle>
                    <activevideoangle>false</activevideoangle>
                    <activeaudioangle>false</activeaudioangle>
                    <clip id="clip-7"/>
                  </angle>
                  <angle>
                    <activevideoangle>false</activevideoangle>
                    <activeaudioangle>false</activeaudioangle>
                    <clip id="clip-8"/>
                  </angle>
                  <angle>
                    <activevideoangle>false</activevideoangle>
                    <activeaudioangle>false</activeaudioangle>
                    <clip id="clip-9"/>
                  </angle>
                  <masterclipid>clip-master</masterclipid>
                </multiclip>
              </clipitem>
              <clipitem id="cs-1065">
                <duration>74</duration>
                <rate>
                  <ntsc>false</ntsc>
                  <timebase>25</timebase>
                </rate>
                <in>93423</in>
                <out>93496</out>
                <start>93423</start>
                <end>93496</end>
                <file id="src-6"/>
                <sourcetrack>
                  <mediatype>video</mediatype>
                  <trackindex>1</trackindex>
                </sourcetrack>
                <multiclip id="mcs-1065">
                  <name>MCS-1065</name>
                  <masterclipid>clip-master</masterclipid>
                  <collapsed>false</collapsed>
                  <angle>
                    <activevideoangle>false</activevideoangle>
                    <activeaudioangle>false</activeaudioangle>
                    <clip id="clip-1"/>
                  </angle>
                  <angle>
                    <activevideoangle>false</activevideoangle>
                    <activeaudioangle>false</activeaudioangle>
                    <clip id="clip-2"/>
                  </angle>
                  <angle>
                    <activevideoangle>false</activevideoangle>
                    <activeaudioangle>false</activeaudioangle>
                    <clip id="clip-3"/>
                  </angle>
                  <angle>
                    <activevideoangle>false</activevideoangle>
                    <activeaudioangle>false</activeaudioangle>
                    <clip id="clip-4"/>
                  </angle>
                  <angle>
                    <activevideoangle>false</activevideoangle>
                    <activeaudioangle>false</activeaudioangle>
                    <clip id="clip-5"/>
                  </angle>
                  <angle>
                    <activevideoangle>true</activevideoangle>
                    <activeaudioangle>true</activeaudioangle>
                    <clip id="clip-6"/>
                  </angle>
                  <angle>
                    <activevideoangle>false</activevideoangle>
                    <activeaudioangle>false</activeaudioangle>
                    <clip id="clip-7"/>
                  </angle>
                  <angle>
                    <activevideoangle>false</activevideoangle>
                    <activeaudioangle>false</activeaudioangle>
                    <clip id="clip-8"/>
                  </angle>
                  <angle>
                    <activevideoangle>false</activevideoangle>
                    <activeaudioangle>false</activeaudioangle>
                    <clip id="clip-9"/>
                  </angle>
                  <masterclipid>clip-master</masterclipid>
                </multiclip>
              </clipitem>
              <clipitem id="cs-1066">
                <duration>171</duration>
                <rate>
                  <ntsc>false</ntsc>
                  <timebase>25</timebase>
                </rate>
                <in>93496</in>
                <out>93666</out>
                <start>93496</start>
                <end>93666</end>
                <file id="src-4"/>
                <sourcetrack>
                  <mediatype>video</mediatype>
                  <trackindex>1</trackindex>
                </sourcetrack>
                <multiclip id="mcs-1066">
                  <name>MCS-1066</name>
                  <masterclipid>clip-master</masterclipid>
                  <collapsed>false</collapsed>
                  <angle>
                    <activevideoangle>false</activevideoangle>
                    <activeaudioangle>false</activeaudioangle>
                    <clip id="clip-1"/>
                  </angle>
                  <angle>
                    <activevideoangle>false</activevideoangle>
                    <activeaudioangle>false</activeaudioangle>
                    <clip id="clip-2"/>
                  </angle>
                  <angle>
                    <activevideoangle>false</activevideoangle>
                    <activeaudioangle>false</activeaudioangle>
                    <clip id="clip-3"/>
                  </angle>
                  <angle>
                    <activevideoangle>true</activevideoangle>
                    <activeaudioangle>true</activeaudioangle>
                    <clip id="clip-4"/>
                  </angle>
                  <angle>
                    <activevideoangle>false</activevideoangle>
                    <activeaudioangle>false</activeaudioangle>
                    <clip id="clip-5"/>
                  </angle>
                  <angle>
                    <activevideoangle>false</activevideoangle>
                    <activeaudioangle>false</activeaudioangle>
                    <clip id="clip-6"/>
                  </angle>
                  <angle>
                    <activevideoangle>false</activevideoangle>
                    <activeaudioangle>false</activeaudioangle>
                    <clip id="clip-7"/>
                  </angle>
                  <angle>
                    <activevideoangle>false</activevideoangle>
                    <activeaudioangle>false</activeaudioangle>
                    <clip id="clip-8"/>
                  </angle>
                  <angle>
                    <activevideoangle>false</activevideoangle>
                    <activeaudioangle>false</activeaudioangle>
                    <clip id="clip-9"/>
                  </angle>
                  <masterclipid>clip-master</masterclipid>
                </multiclip>
              </clipitem>
              <clipitem id="cs-1067">
                <duration>129</duration>
                <rate>
                  <ntsc>false</ntsc>
                  <timebase>25</timebase>
                </rate>
                <in>93666</in>
                <out>93794</out>
                <start>93666</start>
                <end>93794</end>
                <file id="src-1"/>
                <sourcetrack>
                  <mediatype>video</mediatype>
                  <trackindex>1</trackindex>
                </sourcetrack>
                <multiclip id="mcs-1067">
                  <name>MCS-1067</name>
                  <masterclipid>clip-master</masterclipid>
                  <collapsed>false</collapsed>
                  <angle>
                    <activevideoangle>true</activevideoangle>
                    <activeaudioangle>true</activeaudioangle>
                    <clip id="clip-1"/>
                  </angle>
                  <angle>
                    <activevideoangle>false</activevideoangle>
                    <activeaudioangle>false</activeaudioangle>
                    <clip id="clip-2"/>
                  </angle>
                  <angle>
                    <activevideoangle>false</activevideoangle>
                    <activeaudioangle>false</activeaudioangle>
                    <clip id="clip-3"/>
                  </angle>
                  <angle>
                    <activevideoangle>false</activevideoangle>
                    <activeaudioangle>false</activeaudioangle>
                    <clip id="clip-4"/>
                  </angle>
                  <angle>
                    <activevideoangle>false</activevideoangle>
                    <activeaudioangle>false</activeaudioangle>
                    <clip id="clip-5"/>
                  </angle>
                  <angle>
                    <activevideoangle>false</activevideoangle>
                    <activeaudioangle>false</activeaudioangle>
                    <clip id="clip-6"/>
                  </angle>
                  <angle>
                    <activevideoangle>false</activevideoangle>
                    <activeaudioangle>false</activeaudioangle>
                    <clip id="clip-7"/>
                  </angle>
                  <angle>
                    <activevideoangle>false</activevideoangle>
                    <activeaudioangle>false</activeaudioangle>
                    <clip id="clip-8"/>
                  </angle>
                  <angle>
                    <activevideoangle>false</activevideoangle>
                    <activeaudioangle>false</activeaudioangle>
                    <clip id="clip-9"/>
                  </angle>
                  <masterclipid>clip-master</masterclipid>
                </multiclip>
              </clipitem>
              <clipitem id="cs-1068">
                <duration>188</duration>
                <rate>
                  <ntsc>false</ntsc>
                  <timebase>25</timebase>
                </rate>
                <in>93794</in>
                <out>93981</out>
                <start>93794</start>
                <end>93981</end>
                <file id="src-4"/>
                <sourcetrack>
                  <mediatype>video</mediatype>
                  <trackindex>1</trackindex>
                </sourcetrack>
                <multiclip id="mcs-1068">
                  <name>MCS-1068</name>
                  <masterclipid>clip-master</masterclipid>
                  <collapsed>false</collapsed>
                  <angle>
                    <activevideoangle>false</activevideoangle>
                    <activeaudioangle>false</activeaudioangle>
                    <clip id="clip-1"/>
                  </angle>
                  <angle>
                    <activevideoangle>false</activevideoangle>
                    <activeaudioangle>false</activeaudioangle>
                    <clip id="clip-2"/>
                  </angle>
                  <angle>
                    <activevideoangle>false</activevideoangle>
                    <activeaudioangle>false</activeaudioangle>
                    <clip id="clip-3"/>
                  </angle>
                  <angle>
                    <activevideoangle>true</activevideoangle>
                    <activeaudioangle>true</activeaudioangle>
                    <clip id="clip-4"/>
                  </angle>
                  <angle>
                    <activevideoangle>false</activevideoangle>
                    <activeaudioangle>false</activeaudioangle>
                    <clip id="clip-5"/>
                  </angle>
                  <angle>
                    <activevideoangle>false</activevideoangle>
                    <activeaudioangle>false</activeaudioangle>
                    <clip id="clip-6"/>
                  </angle>
                  <angle>
                    <activevideoangle>false</activevideoangle>
                    <activeaudioangle>false</activeaudioangle>
                    <clip id="clip-7"/>
                  </angle>
                  <angle>
                    <activevideoangle>false</activevideoangle>
                    <activeaudioangle>false</activeaudioangle>
                    <clip id="clip-8"/>
                  </angle>
                  <angle>
                    <activevideoangle>false</activevideoangle>
                    <activeaudioangle>false</activeaudioangle>
                    <clip id="clip-9"/>
                  </angle>
                  <masterclipid>clip-master</masterclipid>
                </multiclip>
              </clipitem>
              <clipitem id="cs-1069">
                <duration>95</duration>
                <rate>
                  <ntsc>false</ntsc>
                  <timebase>25</timebase>
                </rate>
                <in>93981</in>
                <out>94075</out>
                <start>93981</start>
                <end>94075</end>
                <file id="src-3"/>
                <sourcetrack>
                  <mediatype>video</mediatype>
                  <trackindex>1</trackindex>
                </sourcetrack>
                <multiclip id="mcs-1069">
                  <name>MCS-1069</name>
                  <masterclipid>clip-master</masterclipid>
                  <collapsed>false</collapsed>
                  <angle>
                    <activevideoangle>false</activevideoangle>
                    <activeaudioangle>false</activeaudioangle>
                    <clip id="clip-1"/>
                  </angle>
                  <angle>
                    <activevideoangle>false</activevideoangle>
                    <activeaudioangle>false</activeaudioangle>
                    <clip id="clip-2"/>
                  </angle>
                  <angle>
                    <activevideoangle>true</activevideoangle>
                    <activeaudioangle>true</activeaudioangle>
                    <clip id="clip-3"/>
                  </angle>
                  <angle>
                    <activevideoangle>false</activevideoangle>
                    <activeaudioangle>false</activeaudioangle>
                    <clip id="clip-4"/>
                  </angle>
                  <angle>
                    <activevideoangle>false</activevideoangle>
                    <activeaudioangle>false</activeaudioangle>
                    <clip id="clip-5"/>
                  </angle>
                  <angle>
                    <activevideoangle>false</activevideoangle>
                    <activeaudioangle>false</activeaudioangle>
                    <clip id="clip-6"/>
                  </angle>
                  <angle>
                    <activevideoangle>false</activevideoangle>
                    <activeaudioangle>false</activeaudioangle>
                    <clip id="clip-7"/>
                  </angle>
                  <angle>
                    <activevideoangle>false</activevideoangle>
                    <activeaudioangle>false</activeaudioangle>
                    <clip id="clip-8"/>
                  </angle>
                  <angle>
                    <activevideoangle>false</activevideoangle>
                    <activeaudioangle>false</activeaudioangle>
                    <clip id="clip-9"/>
                  </angle>
                  <masterclipid>clip-master</masterclipid>
                </multiclip>
              </clipitem>
              <clipitem id="cs-1070">
                <duration>138</duration>
                <rate>
                  <ntsc>false</ntsc>
                  <timebase>25</timebase>
                </rate>
                <in>94075</in>
                <out>94212</out>
                <start>94075</start>
                <end>94212</end>
                <file id="src-2"/>
                <sourcetrack>
                  <mediatype>video</mediatype>
                  <trackindex>1</trackindex>
                </sourcetrack>
                <multiclip id="mcs-1070">
                  <name>MCS-1070</name>
                  <masterclipid>clip-master</masterclipid>
                  <collapsed>false</collapsed>
                  <angle>
                    <activevideoangle>false</activevideoangle>
                    <activeaudioangle>false</activeaudioangle>
                    <clip id="clip-1"/>
                  </angle>
                  <angle>
                    <activevideoangle>true</activevideoangle>
                    <activeaudioangle>true</activeaudioangle>
                    <clip id="clip-2"/>
                  </angle>
                  <angle>
                    <activevideoangle>false</activevideoangle>
                    <activeaudioangle>false</activeaudioangle>
                    <clip id="clip-3"/>
                  </angle>
                  <angle>
                    <activevideoangle>false</activevideoangle>
                    <activeaudioangle>false</activeaudioangle>
                    <clip id="clip-4"/>
                  </angle>
                  <angle>
                    <activevideoangle>false</activevideoangle>
                    <activeaudioangle>false</activeaudioangle>
                    <clip id="clip-5"/>
                  </angle>
                  <angle>
                    <activevideoangle>false</activevideoangle>
                    <activeaudioangle>false</activeaudioangle>
                    <clip id="clip-6"/>
                  </angle>
                  <angle>
                    <activevideoangle>false</activevideoangle>
                    <activeaudioangle>false</activeaudioangle>
                    <clip id="clip-7"/>
                  </angle>
                  <angle>
                    <activevideoangle>false</activevideoangle>
                    <activeaudioangle>false</activeaudioangle>
                    <clip id="clip-8"/>
                  </angle>
                  <angle>
                    <activevideoangle>false</activevideoangle>
                    <activeaudioangle>false</activeaudioangle>
                    <clip id="clip-9"/>
                  </angle>
                  <masterclipid>clip-master</masterclipid>
                </multiclip>
              </clipitem>
              <clipitem id="cs-1071">
                <duration>92</duration>
                <rate>
                  <ntsc>false</ntsc>
                  <timebase>25</timebase>
                </rate>
                <in>94212</in>
                <out>94303</out>
                <start>94212</start>
                <end>94303</end>
                <file id="src-7"/>
                <sourcetrack>
                  <mediatype>video</mediatype>
                  <trackindex>1</trackindex>
                </sourcetrack>
                <multiclip id="mcs-1071">
                  <name>MCS-1071</name>
                  <masterclipid>clip-master</masterclipid>
                  <collapsed>false</collapsed>
                  <angle>
                    <activevideoangle>false</activevideoangle>
                    <activeaudioangle>false</activeaudioangle>
                    <clip id="clip-1"/>
                  </angle>
                  <angle>
                    <activevideoangle>false</activevideoangle>
                    <activeaudioangle>false</activeaudioangle>
                    <clip id="clip-2"/>
                  </angle>
                  <angle>
                    <activevideoangle>false</activevideoangle>
                    <activeaudioangle>false</activeaudioangle>
                    <clip id="clip-3"/>
                  </angle>
                  <angle>
                    <activevideoangle>false</activevideoangle>
                    <activeaudioangle>false</activeaudioangle>
                    <clip id="clip-4"/>
                  </angle>
                  <angle>
                    <activevideoangle>false</activevideoangle>
                    <activeaudioangle>false</activeaudioangle>
                    <clip id="clip-5"/>
                  </angle>
                  <angle>
                    <activevideoangle>false</activevideoangle>
                    <activeaudioangle>false</activeaudioangle>
                    <clip id="clip-6"/>
                  </angle>
                  <angle>
                    <activevideoangle>true</activevideoangle>
                    <activeaudioangle>true</activeaudioangle>
                    <clip id="clip-7"/>
                  </angle>
                  <angle>
                    <activevideoangle>false</activevideoangle>
                    <activeaudioangle>false</activeaudioangle>
                    <clip id="clip-8"/>
                  </angle>
                  <angle>
                    <activevideoangle>false</activevideoangle>
                    <activeaudioangle>false</activeaudioangle>
                    <clip id="clip-9"/>
                  </angle>
                  <masterclipid>clip-master</masterclipid>
                </multiclip>
              </clipitem>
              <clipitem id="cs-1072">
                <duration>108</duration>
                <rate>
                  <ntsc>false</ntsc>
                  <timebase>25</timebase>
                </rate>
                <in>94303</in>
                <out>94410</out>
                <start>94303</start>
                <end>94410</end>
                <file id="src-4"/>
                <sourcetrack>
                  <mediatype>video</mediatype>
                  <trackindex>1</trackindex>
                </sourcetrack>
                <multiclip id="mcs-1072">
                  <name>MCS-1072</name>
                  <masterclipid>clip-master</masterclipid>
                  <collapsed>false</collapsed>
                  <angle>
                    <activevideoangle>false</activevideoangle>
                    <activeaudioangle>false</activeaudioangle>
                    <clip id="clip-1"/>
                  </angle>
                  <angle>
                    <activevideoangle>false</activevideoangle>
                    <activeaudioangle>false</activeaudioangle>
                    <clip id="clip-2"/>
                  </angle>
                  <angle>
                    <activevideoangle>false</activevideoangle>
                    <activeaudioangle>false</activeaudioangle>
                    <clip id="clip-3"/>
                  </angle>
                  <angle>
                    <activevideoangle>true</activevideoangle>
                    <activeaudioangle>true</activeaudioangle>
                    <clip id="clip-4"/>
                  </angle>
                  <angle>
                    <activevideoangle>false</activevideoangle>
                    <activeaudioangle>false</activeaudioangle>
                    <clip id="clip-5"/>
                  </angle>
                  <angle>
                    <activevideoangle>false</activevideoangle>
                    <activeaudioangle>false</activeaudioangle>
                    <clip id="clip-6"/>
                  </angle>
                  <angle>
                    <activevideoangle>false</activevideoangle>
                    <activeaudioangle>false</activeaudioangle>
                    <clip id="clip-7"/>
                  </angle>
                  <angle>
                    <activevideoangle>false</activevideoangle>
                    <activeaudioangle>false</activeaudioangle>
                    <clip id="clip-8"/>
                  </angle>
                  <angle>
                    <activevideoangle>false</activevideoangle>
                    <activeaudioangle>false</activeaudioangle>
                    <clip id="clip-9"/>
                  </angle>
                  <masterclipid>clip-master</masterclipid>
                </multiclip>
              </clipitem>
              <clipitem id="cs-1073">
                <duration>137</duration>
                <rate>
                  <ntsc>false</ntsc>
                  <timebase>25</timebase>
                </rate>
                <in>94410</in>
                <out>94546</out>
                <start>94410</start>
                <end>94546</end>
                <file id="src-2"/>
                <sourcetrack>
                  <mediatype>video</mediatype>
                  <trackindex>1</trackindex>
                </sourcetrack>
                <multiclip id="mcs-1073">
                  <name>MCS-1073</name>
                  <masterclipid>clip-master</masterclipid>
                  <collapsed>false</collapsed>
                  <angle>
                    <activevideoangle>false</activevideoangle>
                    <activeaudioangle>false</activeaudioangle>
                    <clip id="clip-1"/>
                  </angle>
                  <angle>
                    <activevideoangle>true</activevideoangle>
                    <activeaudioangle>true</activeaudioangle>
                    <clip id="clip-2"/>
                  </angle>
                  <angle>
                    <activevideoangle>false</activevideoangle>
                    <activeaudioangle>false</activeaudioangle>
                    <clip id="clip-3"/>
                  </angle>
                  <angle>
                    <activevideoangle>false</activevideoangle>
                    <activeaudioangle>false</activeaudioangle>
                    <clip id="clip-4"/>
                  </angle>
                  <angle>
                    <activevideoangle>false</activevideoangle>
                    <activeaudioangle>false</activeaudioangle>
                    <clip id="clip-5"/>
                  </angle>
                  <angle>
                    <activevideoangle>false</activevideoangle>
                    <activeaudioangle>false</activeaudioangle>
                    <clip id="clip-6"/>
                  </angle>
                  <angle>
                    <activevideoangle>false</activevideoangle>
                    <activeaudioangle>false</activeaudioangle>
                    <clip id="clip-7"/>
                  </angle>
                  <angle>
                    <activevideoangle>false</activevideoangle>
                    <activeaudioangle>false</activeaudioangle>
                    <clip id="clip-8"/>
                  </angle>
                  <angle>
                    <activevideoangle>false</activevideoangle>
                    <activeaudioangle>false</activeaudioangle>
                    <clip id="clip-9"/>
                  </angle>
                  <masterclipid>clip-master</masterclipid>
                </multiclip>
              </clipitem>
              <clipitem id="cs-1074">
                <duration>88</duration>
                <rate>
                  <ntsc>false</ntsc>
                  <timebase>25</timebase>
                </rate>
                <in>94546</in>
                <out>94633</out>
                <start>94546</start>
                <end>94633</end>
                <file id="src-3"/>
                <sourcetrack>
                  <mediatype>video</mediatype>
                  <trackindex>1</trackindex>
                </sourcetrack>
                <multiclip id="mcs-1074">
                  <name>MCS-1074</name>
                  <masterclipid>clip-master</masterclipid>
                  <collapsed>false</collapsed>
                  <angle>
                    <activevideoangle>false</activevideoangle>
                    <activeaudioangle>false</activeaudioangle>
                    <clip id="clip-1"/>
                  </angle>
                  <angle>
                    <activevideoangle>false</activevideoangle>
                    <activeaudioangle>false</activeaudioangle>
                    <clip id="clip-2"/>
                  </angle>
                  <angle>
                    <activevideoangle>true</activevideoangle>
                    <activeaudioangle>true</activeaudioangle>
                    <clip id="clip-3"/>
                  </angle>
                  <angle>
                    <activevideoangle>false</activevideoangle>
                    <activeaudioangle>false</activeaudioangle>
                    <clip id="clip-4"/>
                  </angle>
                  <angle>
                    <activevideoangle>false</activevideoangle>
                    <activeaudioangle>false</activeaudioangle>
                    <clip id="clip-5"/>
                  </angle>
                  <angle>
                    <activevideoangle>false</activevideoangle>
                    <activeaudioangle>false</activeaudioangle>
                    <clip id="clip-6"/>
                  </angle>
                  <angle>
                    <activevideoangle>false</activevideoangle>
                    <activeaudioangle>false</activeaudioangle>
                    <clip id="clip-7"/>
                  </angle>
                  <angle>
                    <activevideoangle>false</activevideoangle>
                    <activeaudioangle>false</activeaudioangle>
                    <clip id="clip-8"/>
                  </angle>
                  <angle>
                    <activevideoangle>false</activevideoangle>
                    <activeaudioangle>false</activeaudioangle>
                    <clip id="clip-9"/>
                  </angle>
                  <masterclipid>clip-master</masterclipid>
                </multiclip>
              </clipitem>
              <clipitem id="cs-1075">
                <duration>71</duration>
                <rate>
                  <ntsc>false</ntsc>
                  <timebase>25</timebase>
                </rate>
                <in>94633</in>
                <out>94703</out>
                <start>94633</start>
                <end>94703</end>
                <file id="src-2"/>
                <sourcetrack>
                  <mediatype>video</mediatype>
                  <trackindex>1</trackindex>
                </sourcetrack>
                <multiclip id="mcs-1075">
                  <name>MCS-1075</name>
                  <masterclipid>clip-master</masterclipid>
                  <collapsed>false</collapsed>
                  <angle>
                    <activevideoangle>false</activevideoangle>
                    <activeaudioangle>false</activeaudioangle>
                    <clip id="clip-1"/>
                  </angle>
                  <angle>
                    <activevideoangle>true</activevideoangle>
                    <activeaudioangle>true</activeaudioangle>
                    <clip id="clip-2"/>
                  </angle>
                  <angle>
                    <activevideoangle>false</activevideoangle>
                    <activeaudioangle>false</activeaudioangle>
                    <clip id="clip-3"/>
                  </angle>
                  <angle>
                    <activevideoangle>false</activevideoangle>
                    <activeaudioangle>false</activeaudioangle>
                    <clip id="clip-4"/>
                  </angle>
                  <angle>
                    <activevideoangle>false</activevideoangle>
                    <activeaudioangle>false</activeaudioangle>
                    <clip id="clip-5"/>
                  </angle>
                  <angle>
                    <activevideoangle>false</activevideoangle>
                    <activeaudioangle>false</activeaudioangle>
                    <clip id="clip-6"/>
                  </angle>
                  <angle>
                    <activevideoangle>false</activevideoangle>
                    <activeaudioangle>false</activeaudioangle>
                    <clip id="clip-7"/>
                  </angle>
                  <angle>
                    <activevideoangle>false</activevideoangle>
                    <activeaudioangle>false</activeaudioangle>
                    <clip id="clip-8"/>
                  </angle>
                  <angle>
                    <activevideoangle>false</activevideoangle>
                    <activeaudioangle>false</activeaudioangle>
                    <clip id="clip-9"/>
                  </angle>
                  <masterclipid>clip-master</masterclipid>
                </multiclip>
              </clipitem>
              <clipitem id="cs-1076">
                <duration>51</duration>
                <rate>
                  <ntsc>false</ntsc>
                  <timebase>25</timebase>
                </rate>
                <in>94703</in>
                <out>94753</out>
                <start>94703</start>
                <end>94753</end>
                <file id="src-5"/>
                <sourcetrack>
                  <mediatype>video</mediatype>
                  <trackindex>1</trackindex>
                </sourcetrack>
                <multiclip id="mcs-1076">
                  <name>MCS-1076</name>
                  <masterclipid>clip-master</masterclipid>
                  <collapsed>false</collapsed>
                  <angle>
                    <activevideoangle>false</activevideoangle>
                    <activeaudioangle>false</activeaudioangle>
                    <clip id="clip-1"/>
                  </angle>
                  <angle>
                    <activevideoangle>false</activevideoangle>
                    <activeaudioangle>false</activeaudioangle>
                    <clip id="clip-2"/>
                  </angle>
                  <angle>
                    <activevideoangle>false</activevideoangle>
                    <activeaudioangle>false</activeaudioangle>
                    <clip id="clip-3"/>
                  </angle>
                  <angle>
                    <activevideoangle>false</activevideoangle>
                    <activeaudioangle>false</activeaudioangle>
                    <clip id="clip-4"/>
                  </angle>
                  <angle>
                    <activevideoangle>true</activevideoangle>
                    <activeaudioangle>true</activeaudioangle>
                    <clip id="clip-5"/>
                  </angle>
                  <angle>
                    <activevideoangle>false</activevideoangle>
                    <activeaudioangle>false</activeaudioangle>
                    <clip id="clip-6"/>
                  </angle>
                  <angle>
                    <activevideoangle>false</activevideoangle>
                    <activeaudioangle>false</activeaudioangle>
                    <clip id="clip-7"/>
                  </angle>
                  <angle>
                    <activevideoangle>false</activevideoangle>
                    <activeaudioangle>false</activeaudioangle>
                    <clip id="clip-8"/>
                  </angle>
                  <angle>
                    <activevideoangle>false</activevideoangle>
                    <activeaudioangle>false</activeaudioangle>
                    <clip id="clip-9"/>
                  </angle>
                  <masterclipid>clip-master</masterclipid>
                </multiclip>
              </clipitem>
              <clipitem id="cs-1077">
                <duration>63</duration>
                <rate>
                  <ntsc>false</ntsc>
                  <timebase>25</timebase>
                </rate>
                <in>94753</in>
                <out>94815</out>
                <start>94753</start>
                <end>94815</end>
                <file id="src-4"/>
                <sourcetrack>
                  <mediatype>video</mediatype>
                  <trackindex>1</trackindex>
                </sourcetrack>
                <multiclip id="mcs-1077">
                  <name>MCS-1077</name>
                  <masterclipid>clip-master</masterclipid>
                  <collapsed>false</collapsed>
                  <angle>
                    <activevideoangle>false</activevideoangle>
                    <activeaudioangle>false</activeaudioangle>
                    <clip id="clip-1"/>
                  </angle>
                  <angle>
                    <activevideoangle>false</activevideoangle>
                    <activeaudioangle>false</activeaudioangle>
                    <clip id="clip-2"/>
                  </angle>
                  <angle>
                    <activevideoangle>false</activevideoangle>
                    <activeaudioangle>false</activeaudioangle>
                    <clip id="clip-3"/>
                  </angle>
                  <angle>
                    <activevideoangle>true</activevideoangle>
                    <activeaudioangle>true</activeaudioangle>
                    <clip id="clip-4"/>
                  </angle>
                  <angle>
                    <activevideoangle>false</activevideoangle>
                    <activeaudioangle>false</activeaudioangle>
                    <clip id="clip-5"/>
                  </angle>
                  <angle>
                    <activevideoangle>false</activevideoangle>
                    <activeaudioangle>false</activeaudioangle>
                    <clip id="clip-6"/>
                  </angle>
                  <angle>
                    <activevideoangle>false</activevideoangle>
                    <activeaudioangle>false</activeaudioangle>
                    <clip id="clip-7"/>
                  </angle>
                  <angle>
                    <activevideoangle>false</activevideoangle>
                    <activeaudioangle>false</activeaudioangle>
                    <clip id="clip-8"/>
                  </angle>
                  <angle>
                    <activevideoangle>false</activevideoangle>
                    <activeaudioangle>false</activeaudioangle>
                    <clip id="clip-9"/>
                  </angle>
                  <masterclipid>clip-master</masterclipid>
                </multiclip>
              </clipitem>
              <clipitem id="cs-1078">
                <duration>94</duration>
                <rate>
                  <ntsc>false</ntsc>
                  <timebase>25</timebase>
                </rate>
                <in>94815</in>
                <out>94908</out>
                <start>94815</start>
                <end>94908</end>
                <file id="src-3"/>
                <sourcetrack>
                  <mediatype>video</mediatype>
                  <trackindex>1</trackindex>
                </sourcetrack>
                <multiclip id="mcs-1078">
                  <name>MCS-1078</name>
                  <masterclipid>clip-master</masterclipid>
                  <collapsed>false</collapsed>
                  <angle>
                    <activevideoangle>false</activevideoangle>
                    <activeaudioangle>false</activeaudioangle>
                    <clip id="clip-1"/>
                  </angle>
                  <angle>
                    <activevideoangle>false</activevideoangle>
                    <activeaudioangle>false</activeaudioangle>
                    <clip id="clip-2"/>
                  </angle>
                  <angle>
                    <activevideoangle>true</activevideoangle>
                    <activeaudioangle>true</activeaudioangle>
                    <clip id="clip-3"/>
                  </angle>
                  <angle>
                    <activevideoangle>false</activevideoangle>
                    <activeaudioangle>false</activeaudioangle>
                    <clip id="clip-4"/>
                  </angle>
                  <angle>
                    <activevideoangle>false</activevideoangle>
                    <activeaudioangle>false</activeaudioangle>
                    <clip id="clip-5"/>
                  </angle>
                  <angle>
                    <activevideoangle>false</activevideoangle>
                    <activeaudioangle>false</activeaudioangle>
                    <clip id="clip-6"/>
                  </angle>
                  <angle>
                    <activevideoangle>false</activevideoangle>
                    <activeaudioangle>false</activeaudioangle>
                    <clip id="clip-7"/>
                  </angle>
                  <angle>
                    <activevideoangle>false</activevideoangle>
                    <activeaudioangle>false</activeaudioangle>
                    <clip id="clip-8"/>
                  </angle>
                  <angle>
                    <activevideoangle>false</activevideoangle>
                    <activeaudioangle>false</activeaudioangle>
                    <clip id="clip-9"/>
                  </angle>
                  <masterclipid>clip-master</masterclipid>
                </multiclip>
              </clipitem>
              <clipitem id="cs-1079">
                <duration>87</duration>
                <rate>
                  <ntsc>false</ntsc>
                  <timebase>25</timebase>
                </rate>
                <in>94908</in>
                <out>94994</out>
                <start>94908</start>
                <end>94994</end>
                <file id="src-2"/>
                <sourcetrack>
                  <mediatype>video</mediatype>
                  <trackindex>1</trackindex>
                </sourcetrack>
                <multiclip id="mcs-1079">
                  <name>MCS-1079</name>
                  <masterclipid>clip-master</masterclipid>
                  <collapsed>false</collapsed>
                  <angle>
                    <activevideoangle>false</activevideoangle>
                    <activeaudioangle>false</activeaudioangle>
                    <clip id="clip-1"/>
                  </angle>
                  <angle>
                    <activevideoangle>true</activevideoangle>
                    <activeaudioangle>true</activeaudioangle>
                    <clip id="clip-2"/>
                  </angle>
                  <angle>
                    <activevideoangle>false</activevideoangle>
                    <activeaudioangle>false</activeaudioangle>
                    <clip id="clip-3"/>
                  </angle>
                  <angle>
                    <activevideoangle>false</activevideoangle>
                    <activeaudioangle>false</activeaudioangle>
                    <clip id="clip-4"/>
                  </angle>
                  <angle>
                    <activevideoangle>false</activevideoangle>
                    <activeaudioangle>false</activeaudioangle>
                    <clip id="clip-5"/>
                  </angle>
                  <angle>
                    <activevideoangle>false</activevideoangle>
                    <activeaudioangle>false</activeaudioangle>
                    <clip id="clip-6"/>
                  </angle>
                  <angle>
                    <activevideoangle>false</activevideoangle>
                    <activeaudioangle>false</activeaudioangle>
                    <clip id="clip-7"/>
                  </angle>
                  <angle>
                    <activevideoangle>false</activevideoangle>
                    <activeaudioangle>false</activeaudioangle>
                    <clip id="clip-8"/>
                  </angle>
                  <angle>
                    <activevideoangle>false</activevideoangle>
                    <activeaudioangle>false</activeaudioangle>
                    <clip id="clip-9"/>
                  </angle>
                  <masterclipid>clip-master</masterclipid>
                </multiclip>
              </clipitem>
              <clipitem id="cs-1080">
                <duration>78</duration>
                <rate>
                  <ntsc>false</ntsc>
                  <timebase>25</timebase>
                </rate>
                <in>94994</in>
                <out>95071</out>
                <start>94994</start>
                <end>95071</end>
                <file id="src-7"/>
                <sourcetrack>
                  <mediatype>video</mediatype>
                  <trackindex>1</trackindex>
                </sourcetrack>
                <multiclip id="mcs-1080">
                  <name>MCS-1080</name>
                  <masterclipid>clip-master</masterclipid>
                  <collapsed>false</collapsed>
                  <angle>
                    <activevideoangle>false</activevideoangle>
                    <activeaudioangle>false</activeaudioangle>
                    <clip id="clip-1"/>
                  </angle>
                  <angle>
                    <activevideoangle>false</activevideoangle>
                    <activeaudioangle>false</activeaudioangle>
                    <clip id="clip-2"/>
                  </angle>
                  <angle>
                    <activevideoangle>false</activevideoangle>
                    <activeaudioangle>false</activeaudioangle>
                    <clip id="clip-3"/>
                  </angle>
                  <angle>
                    <activevideoangle>false</activevideoangle>
                    <activeaudioangle>false</activeaudioangle>
                    <clip id="clip-4"/>
                  </angle>
                  <angle>
                    <activevideoangle>false</activevideoangle>
                    <activeaudioangle>false</activeaudioangle>
                    <clip id="clip-5"/>
                  </angle>
                  <angle>
                    <activevideoangle>false</activevideoangle>
                    <activeaudioangle>false</activeaudioangle>
                    <clip id="clip-6"/>
                  </angle>
                  <angle>
                    <activevideoangle>true</activevideoangle>
                    <activeaudioangle>true</activeaudioangle>
                    <clip id="clip-7"/>
                  </angle>
                  <angle>
                    <activevideoangle>false</activevideoangle>
                    <activeaudioangle>false</activeaudioangle>
                    <clip id="clip-8"/>
                  </angle>
                  <angle>
                    <activevideoangle>false</activevideoangle>
                    <activeaudioangle>false</activeaudioangle>
                    <clip id="clip-9"/>
                  </angle>
                  <masterclipid>clip-master</masterclipid>
                </multiclip>
              </clipitem>
              <clipitem id="cs-1081">
                <duration>49</duration>
                <rate>
                  <ntsc>false</ntsc>
                  <timebase>25</timebase>
                </rate>
                <in>95071</in>
                <out>95119</out>
                <start>95071</start>
                <end>95119</end>
                <file id="src-3"/>
                <sourcetrack>
                  <mediatype>video</mediatype>
                  <trackindex>1</trackindex>
                </sourcetrack>
                <multiclip id="mcs-1081">
                  <name>MCS-1081</name>
                  <masterclipid>clip-master</masterclipid>
                  <collapsed>false</collapsed>
                  <angle>
                    <activevideoangle>false</activevideoangle>
                    <activeaudioangle>false</activeaudioangle>
                    <clip id="clip-1"/>
                  </angle>
                  <angle>
                    <activevideoangle>false</activevideoangle>
                    <activeaudioangle>false</activeaudioangle>
                    <clip id="clip-2"/>
                  </angle>
                  <angle>
                    <activevideoangle>true</activevideoangle>
                    <activeaudioangle>true</activeaudioangle>
                    <clip id="clip-3"/>
                  </angle>
                  <angle>
                    <activevideoangle>false</activevideoangle>
                    <activeaudioangle>false</activeaudioangle>
                    <clip id="clip-4"/>
                  </angle>
                  <angle>
                    <activevideoangle>false</activevideoangle>
                    <activeaudioangle>false</activeaudioangle>
                    <clip id="clip-5"/>
                  </angle>
                  <angle>
                    <activevideoangle>false</activevideoangle>
                    <activeaudioangle>false</activeaudioangle>
                    <clip id="clip-6"/>
                  </angle>
                  <angle>
                    <activevideoangle>false</activevideoangle>
                    <activeaudioangle>false</activeaudioangle>
                    <clip id="clip-7"/>
                  </angle>
                  <angle>
                    <activevideoangle>false</activevideoangle>
                    <activeaudioangle>false</activeaudioangle>
                    <clip id="clip-8"/>
                  </angle>
                  <angle>
                    <activevideoangle>false</activevideoangle>
                    <activeaudioangle>false</activeaudioangle>
                    <clip id="clip-9"/>
                  </angle>
                  <masterclipid>clip-master</masterclipid>
                </multiclip>
              </clipitem>
              <clipitem id="cs-1082">
                <duration>126</duration>
                <rate>
                  <ntsc>false</ntsc>
                  <timebase>25</timebase>
                </rate>
                <in>95119</in>
                <out>95244</out>
                <start>95119</start>
                <end>95244</end>
                <file id="src-2"/>
                <sourcetrack>
                  <mediatype>video</mediatype>
                  <trackindex>1</trackindex>
                </sourcetrack>
                <multiclip id="mcs-1082">
                  <name>MCS-1082</name>
                  <masterclipid>clip-master</masterclipid>
                  <collapsed>false</collapsed>
                  <angle>
                    <activevideoangle>false</activevideoangle>
                    <activeaudioangle>false</activeaudioangle>
                    <clip id="clip-1"/>
                  </angle>
                  <angle>
                    <activevideoangle>true</activevideoangle>
                    <activeaudioangle>true</activeaudioangle>
                    <clip id="clip-2"/>
                  </angle>
                  <angle>
                    <activevideoangle>false</activevideoangle>
                    <activeaudioangle>false</activeaudioangle>
                    <clip id="clip-3"/>
                  </angle>
                  <angle>
                    <activevideoangle>false</activevideoangle>
                    <activeaudioangle>false</activeaudioangle>
                    <clip id="clip-4"/>
                  </angle>
                  <angle>
                    <activevideoangle>false</activevideoangle>
                    <activeaudioangle>false</activeaudioangle>
                    <clip id="clip-5"/>
                  </angle>
                  <angle>
                    <activevideoangle>false</activevideoangle>
                    <activeaudioangle>false</activeaudioangle>
                    <clip id="clip-6"/>
                  </angle>
                  <angle>
                    <activevideoangle>false</activevideoangle>
                    <activeaudioangle>false</activeaudioangle>
                    <clip id="clip-7"/>
                  </angle>
                  <angle>
                    <activevideoangle>false</activevideoangle>
                    <activeaudioangle>false</activeaudioangle>
                    <clip id="clip-8"/>
                  </angle>
                  <angle>
                    <activevideoangle>false</activevideoangle>
                    <activeaudioangle>false</activeaudioangle>
                    <clip id="clip-9"/>
                  </angle>
                  <masterclipid>clip-master</masterclipid>
                </multiclip>
              </clipitem>
              <clipitem id="cs-1083">
                <duration>319</duration>
                <rate>
                  <ntsc>false</ntsc>
                  <timebase>25</timebase>
                </rate>
                <in>95244</in>
                <out>95562</out>
                <start>95244</start>
                <end>95562</end>
                <file id="src-4"/>
                <sourcetrack>
                  <mediatype>video</mediatype>
                  <trackindex>1</trackindex>
                </sourcetrack>
                <multiclip id="mcs-1083">
                  <name>MCS-1083</name>
                  <masterclipid>clip-master</masterclipid>
                  <collapsed>false</collapsed>
                  <angle>
                    <activevideoangle>false</activevideoangle>
                    <activeaudioangle>false</activeaudioangle>
                    <clip id="clip-1"/>
                  </angle>
                  <angle>
                    <activevideoangle>false</activevideoangle>
                    <activeaudioangle>false</activeaudioangle>
                    <clip id="clip-2"/>
                  </angle>
                  <angle>
                    <activevideoangle>false</activevideoangle>
                    <activeaudioangle>false</activeaudioangle>
                    <clip id="clip-3"/>
                  </angle>
                  <angle>
                    <activevideoangle>true</activevideoangle>
                    <activeaudioangle>true</activeaudioangle>
                    <clip id="clip-4"/>
                  </angle>
                  <angle>
                    <activevideoangle>false</activevideoangle>
                    <activeaudioangle>false</activeaudioangle>
                    <clip id="clip-5"/>
                  </angle>
                  <angle>
                    <activevideoangle>false</activevideoangle>
                    <activeaudioangle>false</activeaudioangle>
                    <clip id="clip-6"/>
                  </angle>
                  <angle>
                    <activevideoangle>false</activevideoangle>
                    <activeaudioangle>false</activeaudioangle>
                    <clip id="clip-7"/>
                  </angle>
                  <angle>
                    <activevideoangle>false</activevideoangle>
                    <activeaudioangle>false</activeaudioangle>
                    <clip id="clip-8"/>
                  </angle>
                  <angle>
                    <activevideoangle>false</activevideoangle>
                    <activeaudioangle>false</activeaudioangle>
                    <clip id="clip-9"/>
                  </angle>
                  <masterclipid>clip-master</masterclipid>
                </multiclip>
              </clipitem>
              <clipitem id="cs-1084">
                <duration>85</duration>
                <rate>
                  <ntsc>false</ntsc>
                  <timebase>25</timebase>
                </rate>
                <in>95562</in>
                <out>95646</out>
                <start>95562</start>
                <end>95646</end>
                <file id="src-3"/>
                <sourcetrack>
                  <mediatype>video</mediatype>
                  <trackindex>1</trackindex>
                </sourcetrack>
                <multiclip id="mcs-1084">
                  <name>MCS-1084</name>
                  <masterclipid>clip-master</masterclipid>
                  <collapsed>false</collapsed>
                  <angle>
                    <activevideoangle>false</activevideoangle>
                    <activeaudioangle>false</activeaudioangle>
                    <clip id="clip-1"/>
                  </angle>
                  <angle>
                    <activevideoangle>false</activevideoangle>
                    <activeaudioangle>false</activeaudioangle>
                    <clip id="clip-2"/>
                  </angle>
                  <angle>
                    <activevideoangle>true</activevideoangle>
                    <activeaudioangle>true</activeaudioangle>
                    <clip id="clip-3"/>
                  </angle>
                  <angle>
                    <activevideoangle>false</activevideoangle>
                    <activeaudioangle>false</activeaudioangle>
                    <clip id="clip-4"/>
                  </angle>
                  <angle>
                    <activevideoangle>false</activevideoangle>
                    <activeaudioangle>false</activeaudioangle>
                    <clip id="clip-5"/>
                  </angle>
                  <angle>
                    <activevideoangle>false</activevideoangle>
                    <activeaudioangle>false</activeaudioangle>
                    <clip id="clip-6"/>
                  </angle>
                  <angle>
                    <activevideoangle>false</activevideoangle>
                    <activeaudioangle>false</activeaudioangle>
                    <clip id="clip-7"/>
                  </angle>
                  <angle>
                    <activevideoangle>false</activevideoangle>
                    <activeaudioangle>false</activeaudioangle>
                    <clip id="clip-8"/>
                  </angle>
                  <angle>
                    <activevideoangle>false</activevideoangle>
                    <activeaudioangle>false</activeaudioangle>
                    <clip id="clip-9"/>
                  </angle>
                  <masterclipid>clip-master</masterclipid>
                </multiclip>
              </clipitem>
              <clipitem id="cs-1085">
                <duration>135</duration>
                <rate>
                  <ntsc>false</ntsc>
                  <timebase>25</timebase>
                </rate>
                <in>95646</in>
                <out>95780</out>
                <start>95646</start>
                <end>95780</end>
                <file id="src-6"/>
                <sourcetrack>
                  <mediatype>video</mediatype>
                  <trackindex>1</trackindex>
                </sourcetrack>
                <multiclip id="mcs-1085">
                  <name>MCS-1085</name>
                  <masterclipid>clip-master</masterclipid>
                  <collapsed>false</collapsed>
                  <angle>
                    <activevideoangle>false</activevideoangle>
                    <activeaudioangle>false</activeaudioangle>
                    <clip id="clip-1"/>
                  </angle>
                  <angle>
                    <activevideoangle>false</activevideoangle>
                    <activeaudioangle>false</activeaudioangle>
                    <clip id="clip-2"/>
                  </angle>
                  <angle>
                    <activevideoangle>false</activevideoangle>
                    <activeaudioangle>false</activeaudioangle>
                    <clip id="clip-3"/>
                  </angle>
                  <angle>
                    <activevideoangle>false</activevideoangle>
                    <activeaudioangle>false</activeaudioangle>
                    <clip id="clip-4"/>
                  </angle>
                  <angle>
                    <activevideoangle>false</activevideoangle>
                    <activeaudioangle>false</activeaudioangle>
                    <clip id="clip-5"/>
                  </angle>
                  <angle>
                    <activevideoangle>true</activevideoangle>
                    <activeaudioangle>true</activeaudioangle>
                    <clip id="clip-6"/>
                  </angle>
                  <angle>
                    <activevideoangle>false</activevideoangle>
                    <activeaudioangle>false</activeaudioangle>
                    <clip id="clip-7"/>
                  </angle>
                  <angle>
                    <activevideoangle>false</activevideoangle>
                    <activeaudioangle>false</activeaudioangle>
                    <clip id="clip-8"/>
                  </angle>
                  <angle>
                    <activevideoangle>false</activevideoangle>
                    <activeaudioangle>false</activeaudioangle>
                    <clip id="clip-9"/>
                  </angle>
                  <masterclipid>clip-master</masterclipid>
                </multiclip>
              </clipitem>
              <clipitem id="cs-1086">
                <duration>152</duration>
                <rate>
                  <ntsc>false</ntsc>
                  <timebase>25</timebase>
                </rate>
                <in>95780</in>
                <out>95931</out>
                <start>95780</start>
                <end>95931</end>
                <file id="src-3"/>
                <sourcetrack>
                  <mediatype>video</mediatype>
                  <trackindex>1</trackindex>
                </sourcetrack>
                <multiclip id="mcs-1086">
                  <name>MCS-1086</name>
                  <masterclipid>clip-master</masterclipid>
                  <collapsed>false</collapsed>
                  <angle>
                    <activevideoangle>false</activevideoangle>
                    <activeaudioangle>false</activeaudioangle>
                    <clip id="clip-1"/>
                  </angle>
                  <angle>
                    <activevideoangle>false</activevideoangle>
                    <activeaudioangle>false</activeaudioangle>
                    <clip id="clip-2"/>
                  </angle>
                  <angle>
                    <activevideoangle>true</activevideoangle>
                    <activeaudioangle>true</activeaudioangle>
                    <clip id="clip-3"/>
                  </angle>
                  <angle>
                    <activevideoangle>false</activevideoangle>
                    <activeaudioangle>false</activeaudioangle>
                    <clip id="clip-4"/>
                  </angle>
                  <angle>
                    <activevideoangle>false</activevideoangle>
                    <activeaudioangle>false</activeaudioangle>
                    <clip id="clip-5"/>
                  </angle>
                  <angle>
                    <activevideoangle>false</activevideoangle>
                    <activeaudioangle>false</activeaudioangle>
                    <clip id="clip-6"/>
                  </angle>
                  <angle>
                    <activevideoangle>false</activevideoangle>
                    <activeaudioangle>false</activeaudioangle>
                    <clip id="clip-7"/>
                  </angle>
                  <angle>
                    <activevideoangle>false</activevideoangle>
                    <activeaudioangle>false</activeaudioangle>
                    <clip id="clip-8"/>
                  </angle>
                  <angle>
                    <activevideoangle>false</activevideoangle>
                    <activeaudioangle>false</activeaudioangle>
                    <clip id="clip-9"/>
                  </angle>
                  <masterclipid>clip-master</masterclipid>
                </multiclip>
              </clipitem>
              <clipitem id="cs-1087">
                <duration>55</duration>
                <rate>
                  <ntsc>false</ntsc>
                  <timebase>25</timebase>
                </rate>
                <in>95931</in>
                <out>95985</out>
                <start>95931</start>
                <end>95985</end>
                <file id="src-7"/>
                <sourcetrack>
                  <mediatype>video</mediatype>
                  <trackindex>1</trackindex>
                </sourcetrack>
                <multiclip id="mcs-1087">
                  <name>MCS-1087</name>
                  <masterclipid>clip-master</masterclipid>
                  <collapsed>false</collapsed>
                  <angle>
                    <activevideoangle>false</activevideoangle>
                    <activeaudioangle>false</activeaudioangle>
                    <clip id="clip-1"/>
                  </angle>
                  <angle>
                    <activevideoangle>false</activevideoangle>
                    <activeaudioangle>false</activeaudioangle>
                    <clip id="clip-2"/>
                  </angle>
                  <angle>
                    <activevideoangle>false</activevideoangle>
                    <activeaudioangle>false</activeaudioangle>
                    <clip id="clip-3"/>
                  </angle>
                  <angle>
                    <activevideoangle>false</activevideoangle>
                    <activeaudioangle>false</activeaudioangle>
                    <clip id="clip-4"/>
                  </angle>
                  <angle>
                    <activevideoangle>false</activevideoangle>
                    <activeaudioangle>false</activeaudioangle>
                    <clip id="clip-5"/>
                  </angle>
                  <angle>
                    <activevideoangle>false</activevideoangle>
                    <activeaudioangle>false</activeaudioangle>
                    <clip id="clip-6"/>
                  </angle>
                  <angle>
                    <activevideoangle>true</activevideoangle>
                    <activeaudioangle>true</activeaudioangle>
                    <clip id="clip-7"/>
                  </angle>
                  <angle>
                    <activevideoangle>false</activevideoangle>
                    <activeaudioangle>false</activeaudioangle>
                    <clip id="clip-8"/>
                  </angle>
                  <angle>
                    <activevideoangle>false</activevideoangle>
                    <activeaudioangle>false</activeaudioangle>
                    <clip id="clip-9"/>
                  </angle>
                  <masterclipid>clip-master</masterclipid>
                </multiclip>
              </clipitem>
              <clipitem id="cs-1088">
                <duration>84</duration>
                <rate>
                  <ntsc>false</ntsc>
                  <timebase>25</timebase>
                </rate>
                <in>95985</in>
                <out>96068</out>
                <start>95985</start>
                <end>96068</end>
                <file id="src-4"/>
                <sourcetrack>
                  <mediatype>video</mediatype>
                  <trackindex>1</trackindex>
                </sourcetrack>
                <multiclip id="mcs-1088">
                  <name>MCS-1088</name>
                  <masterclipid>clip-master</masterclipid>
                  <collapsed>false</collapsed>
                  <angle>
                    <activevideoangle>false</activevideoangle>
                    <activeaudioangle>false</activeaudioangle>
                    <clip id="clip-1"/>
                  </angle>
                  <angle>
                    <activevideoangle>false</activevideoangle>
                    <activeaudioangle>false</activeaudioangle>
                    <clip id="clip-2"/>
                  </angle>
                  <angle>
                    <activevideoangle>false</activevideoangle>
                    <activeaudioangle>false</activeaudioangle>
                    <clip id="clip-3"/>
                  </angle>
                  <angle>
                    <activevideoangle>true</activevideoangle>
                    <activeaudioangle>true</activeaudioangle>
                    <clip id="clip-4"/>
                  </angle>
                  <angle>
                    <activevideoangle>false</activevideoangle>
                    <activeaudioangle>false</activeaudioangle>
                    <clip id="clip-5"/>
                  </angle>
                  <angle>
                    <activevideoangle>false</activevideoangle>
                    <activeaudioangle>false</activeaudioangle>
                    <clip id="clip-6"/>
                  </angle>
                  <angle>
                    <activevideoangle>false</activevideoangle>
                    <activeaudioangle>false</activeaudioangle>
                    <clip id="clip-7"/>
                  </angle>
                  <angle>
                    <activevideoangle>false</activevideoangle>
                    <activeaudioangle>false</activeaudioangle>
                    <clip id="clip-8"/>
                  </angle>
                  <angle>
                    <activevideoangle>false</activevideoangle>
                    <activeaudioangle>false</activeaudioangle>
                    <clip id="clip-9"/>
                  </angle>
                  <masterclipid>clip-master</masterclipid>
                </multiclip>
              </clipitem>
              <clipitem id="cs-1089">
                <duration>168</duration>
                <rate>
                  <ntsc>false</ntsc>
                  <timebase>25</timebase>
                </rate>
                <in>96068</in>
                <out>96235</out>
                <start>96068</start>
                <end>96235</end>
                <file id="src-3"/>
                <sourcetrack>
                  <mediatype>video</mediatype>
                  <trackindex>1</trackindex>
                </sourcetrack>
                <multiclip id="mcs-1089">
                  <name>MCS-1089</name>
                  <masterclipid>clip-master</masterclipid>
                  <collapsed>false</collapsed>
                  <angle>
                    <activevideoangle>false</activevideoangle>
                    <activeaudioangle>false</activeaudioangle>
                    <clip id="clip-1"/>
                  </angle>
                  <angle>
                    <activevideoangle>false</activevideoangle>
                    <activeaudioangle>false</activeaudioangle>
                    <clip id="clip-2"/>
                  </angle>
                  <angle>
                    <activevideoangle>true</activevideoangle>
                    <activeaudioangle>true</activeaudioangle>
                    <clip id="clip-3"/>
                  </angle>
                  <angle>
                    <activevideoangle>false</activevideoangle>
                    <activeaudioangle>false</activeaudioangle>
                    <clip id="clip-4"/>
                  </angle>
                  <angle>
                    <activevideoangle>false</activevideoangle>
                    <activeaudioangle>false</activeaudioangle>
                    <clip id="clip-5"/>
                  </angle>
                  <angle>
                    <activevideoangle>false</activevideoangle>
                    <activeaudioangle>false</activeaudioangle>
                    <clip id="clip-6"/>
                  </angle>
                  <angle>
                    <activevideoangle>false</activevideoangle>
                    <activeaudioangle>false</activeaudioangle>
                    <clip id="clip-7"/>
                  </angle>
                  <angle>
                    <activevideoangle>false</activevideoangle>
                    <activeaudioangle>false</activeaudioangle>
                    <clip id="clip-8"/>
                  </angle>
                  <angle>
                    <activevideoangle>false</activevideoangle>
                    <activeaudioangle>false</activeaudioangle>
                    <clip id="clip-9"/>
                  </angle>
                  <masterclipid>clip-master</masterclipid>
                </multiclip>
              </clipitem>
              <clipitem id="cs-1090">
                <duration>107</duration>
                <rate>
                  <ntsc>false</ntsc>
                  <timebase>25</timebase>
                </rate>
                <in>96235</in>
                <out>96341</out>
                <start>96235</start>
                <end>96341</end>
                <file id="src-2"/>
                <sourcetrack>
                  <mediatype>video</mediatype>
                  <trackindex>1</trackindex>
                </sourcetrack>
                <multiclip id="mcs-1090">
                  <name>MCS-1090</name>
                  <masterclipid>clip-master</masterclipid>
                  <collapsed>false</collapsed>
                  <angle>
                    <activevideoangle>false</activevideoangle>
                    <activeaudioangle>false</activeaudioangle>
                    <clip id="clip-1"/>
                  </angle>
                  <angle>
                    <activevideoangle>true</activevideoangle>
                    <activeaudioangle>true</activeaudioangle>
                    <clip id="clip-2"/>
                  </angle>
                  <angle>
                    <activevideoangle>false</activevideoangle>
                    <activeaudioangle>false</activeaudioangle>
                    <clip id="clip-3"/>
                  </angle>
                  <angle>
                    <activevideoangle>false</activevideoangle>
                    <activeaudioangle>false</activeaudioangle>
                    <clip id="clip-4"/>
                  </angle>
                  <angle>
                    <activevideoangle>false</activevideoangle>
                    <activeaudioangle>false</activeaudioangle>
                    <clip id="clip-5"/>
                  </angle>
                  <angle>
                    <activevideoangle>false</activevideoangle>
                    <activeaudioangle>false</activeaudioangle>
                    <clip id="clip-6"/>
                  </angle>
                  <angle>
                    <activevideoangle>false</activevideoangle>
                    <activeaudioangle>false</activeaudioangle>
                    <clip id="clip-7"/>
                  </angle>
                  <angle>
                    <activevideoangle>false</activevideoangle>
                    <activeaudioangle>false</activeaudioangle>
                    <clip id="clip-8"/>
                  </angle>
                  <angle>
                    <activevideoangle>false</activevideoangle>
                    <activeaudioangle>false</activeaudioangle>
                    <clip id="clip-9"/>
                  </angle>
                  <masterclipid>clip-master</masterclipid>
                </multiclip>
              </clipitem>
              <clipitem id="cs-1091">
                <duration>157</duration>
                <rate>
                  <ntsc>false</ntsc>
                  <timebase>25</timebase>
                </rate>
                <in>96341</in>
                <out>96497</out>
                <start>96341</start>
                <end>96497</end>
                <file id="src-4"/>
                <sourcetrack>
                  <mediatype>video</mediatype>
                  <trackindex>1</trackindex>
                </sourcetrack>
                <multiclip id="mcs-1091">
                  <name>MCS-1091</name>
                  <masterclipid>clip-master</masterclipid>
                  <collapsed>false</collapsed>
                  <angle>
                    <activevideoangle>false</activevideoangle>
                    <activeaudioangle>false</activeaudioangle>
                    <clip id="clip-1"/>
                  </angle>
                  <angle>
                    <activevideoangle>false</activevideoangle>
                    <activeaudioangle>false</activeaudioangle>
                    <clip id="clip-2"/>
                  </angle>
                  <angle>
                    <activevideoangle>false</activevideoangle>
                    <activeaudioangle>false</activeaudioangle>
                    <clip id="clip-3"/>
                  </angle>
                  <angle>
                    <activevideoangle>true</activevideoangle>
                    <activeaudioangle>true</activeaudioangle>
                    <clip id="clip-4"/>
                  </angle>
                  <angle>
                    <activevideoangle>false</activevideoangle>
                    <activeaudioangle>false</activeaudioangle>
                    <clip id="clip-5"/>
                  </angle>
                  <angle>
                    <activevideoangle>false</activevideoangle>
                    <activeaudioangle>false</activeaudioangle>
                    <clip id="clip-6"/>
                  </angle>
                  <angle>
                    <activevideoangle>false</activevideoangle>
                    <activeaudioangle>false</activeaudioangle>
                    <clip id="clip-7"/>
                  </angle>
                  <angle>
                    <activevideoangle>false</activevideoangle>
                    <activeaudioangle>false</activeaudioangle>
                    <clip id="clip-8"/>
                  </angle>
                  <angle>
                    <activevideoangle>false</activevideoangle>
                    <activeaudioangle>false</activeaudioangle>
                    <clip id="clip-9"/>
                  </angle>
                  <masterclipid>clip-master</masterclipid>
                </multiclip>
              </clipitem>
              <clipitem id="cs-1092">
                <duration>163</duration>
                <rate>
                  <ntsc>false</ntsc>
                  <timebase>25</timebase>
                </rate>
                <in>96497</in>
                <out>96659</out>
                <start>96497</start>
                <end>96659</end>
                <file id="src-3"/>
                <sourcetrack>
                  <mediatype>video</mediatype>
                  <trackindex>1</trackindex>
                </sourcetrack>
                <multiclip id="mcs-1092">
                  <name>MCS-1092</name>
                  <masterclipid>clip-master</masterclipid>
                  <collapsed>false</collapsed>
                  <angle>
                    <activevideoangle>false</activevideoangle>
                    <activeaudioangle>false</activeaudioangle>
                    <clip id="clip-1"/>
                  </angle>
                  <angle>
                    <activevideoangle>false</activevideoangle>
                    <activeaudioangle>false</activeaudioangle>
                    <clip id="clip-2"/>
                  </angle>
                  <angle>
                    <activevideoangle>true</activevideoangle>
                    <activeaudioangle>true</activeaudioangle>
                    <clip id="clip-3"/>
                  </angle>
                  <angle>
                    <activevideoangle>false</activevideoangle>
                    <activeaudioangle>false</activeaudioangle>
                    <clip id="clip-4"/>
                  </angle>
                  <angle>
                    <activevideoangle>false</activevideoangle>
                    <activeaudioangle>false</activeaudioangle>
                    <clip id="clip-5"/>
                  </angle>
                  <angle>
                    <activevideoangle>false</activevideoangle>
                    <activeaudioangle>false</activeaudioangle>
                    <clip id="clip-6"/>
                  </angle>
                  <angle>
                    <activevideoangle>false</activevideoangle>
                    <activeaudioangle>false</activeaudioangle>
                    <clip id="clip-7"/>
                  </angle>
                  <angle>
                    <activevideoangle>false</activevideoangle>
                    <activeaudioangle>false</activeaudioangle>
                    <clip id="clip-8"/>
                  </angle>
                  <angle>
                    <activevideoangle>false</activevideoangle>
                    <activeaudioangle>false</activeaudioangle>
                    <clip id="clip-9"/>
                  </angle>
                  <masterclipid>clip-master</masterclipid>
                </multiclip>
              </clipitem>
              <clipitem id="cs-1093">
                <duration>177</duration>
                <rate>
                  <ntsc>false</ntsc>
                  <timebase>25</timebase>
                </rate>
                <in>96659</in>
                <out>96835</out>
                <start>96659</start>
                <end>96835</end>
                <file id="src-2"/>
                <sourcetrack>
                  <mediatype>video</mediatype>
                  <trackindex>1</trackindex>
                </sourcetrack>
                <multiclip id="mcs-1093">
                  <name>MCS-1093</name>
                  <masterclipid>clip-master</masterclipid>
                  <collapsed>false</collapsed>
                  <angle>
                    <activevideoangle>false</activevideoangle>
                    <activeaudioangle>false</activeaudioangle>
                    <clip id="clip-1"/>
                  </angle>
                  <angle>
                    <activevideoangle>true</activevideoangle>
                    <activeaudioangle>true</activeaudioangle>
                    <clip id="clip-2"/>
                  </angle>
                  <angle>
                    <activevideoangle>false</activevideoangle>
                    <activeaudioangle>false</activeaudioangle>
                    <clip id="clip-3"/>
                  </angle>
                  <angle>
                    <activevideoangle>false</activevideoangle>
                    <activeaudioangle>false</activeaudioangle>
                    <clip id="clip-4"/>
                  </angle>
                  <angle>
                    <activevideoangle>false</activevideoangle>
                    <activeaudioangle>false</activeaudioangle>
                    <clip id="clip-5"/>
                  </angle>
                  <angle>
                    <activevideoangle>false</activevideoangle>
                    <activeaudioangle>false</activeaudioangle>
                    <clip id="clip-6"/>
                  </angle>
                  <angle>
                    <activevideoangle>false</activevideoangle>
                    <activeaudioangle>false</activeaudioangle>
                    <clip id="clip-7"/>
                  </angle>
                  <angle>
                    <activevideoangle>false</activevideoangle>
                    <activeaudioangle>false</activeaudioangle>
                    <clip id="clip-8"/>
                  </angle>
                  <angle>
                    <activevideoangle>false</activevideoangle>
                    <activeaudioangle>false</activeaudioangle>
                    <clip id="clip-9"/>
                  </angle>
                  <masterclipid>clip-master</masterclipid>
                </multiclip>
              </clipitem>
              <clipitem id="cs-1094">
                <duration>81</duration>
                <rate>
                  <ntsc>false</ntsc>
                  <timebase>25</timebase>
                </rate>
                <in>96835</in>
                <out>96915</out>
                <start>96835</start>
                <end>96915</end>
                <file id="src-4"/>
                <sourcetrack>
                  <mediatype>video</mediatype>
                  <trackindex>1</trackindex>
                </sourcetrack>
                <multiclip id="mcs-1094">
                  <name>MCS-1094</name>
                  <masterclipid>clip-master</masterclipid>
                  <collapsed>false</collapsed>
                  <angle>
                    <activevideoangle>false</activevideoangle>
                    <activeaudioangle>false</activeaudioangle>
                    <clip id="clip-1"/>
                  </angle>
                  <angle>
                    <activevideoangle>false</activevideoangle>
                    <activeaudioangle>false</activeaudioangle>
                    <clip id="clip-2"/>
                  </angle>
                  <angle>
                    <activevideoangle>false</activevideoangle>
                    <activeaudioangle>false</activeaudioangle>
                    <clip id="clip-3"/>
                  </angle>
                  <angle>
                    <activevideoangle>true</activevideoangle>
                    <activeaudioangle>true</activeaudioangle>
                    <clip id="clip-4"/>
                  </angle>
                  <angle>
                    <activevideoangle>false</activevideoangle>
                    <activeaudioangle>false</activeaudioangle>
                    <clip id="clip-5"/>
                  </angle>
                  <angle>
                    <activevideoangle>false</activevideoangle>
                    <activeaudioangle>false</activeaudioangle>
                    <clip id="clip-6"/>
                  </angle>
                  <angle>
                    <activevideoangle>false</activevideoangle>
                    <activeaudioangle>false</activeaudioangle>
                    <clip id="clip-7"/>
                  </angle>
                  <angle>
                    <activevideoangle>false</activevideoangle>
                    <activeaudioangle>false</activeaudioangle>
                    <clip id="clip-8"/>
                  </angle>
                  <angle>
                    <activevideoangle>false</activevideoangle>
                    <activeaudioangle>false</activeaudioangle>
                    <clip id="clip-9"/>
                  </angle>
                  <masterclipid>clip-master</masterclipid>
                </multiclip>
              </clipitem>
              <clipitem id="cs-1095">
                <duration>116</duration>
                <rate>
                  <ntsc>false</ntsc>
                  <timebase>25</timebase>
                </rate>
                <in>96915</in>
                <out>97030</out>
                <start>96915</start>
                <end>97030</end>
                <file id="src-3"/>
                <sourcetrack>
                  <mediatype>video</mediatype>
                  <trackindex>1</trackindex>
                </sourcetrack>
                <multiclip id="mcs-1095">
                  <name>MCS-1095</name>
                  <masterclipid>clip-master</masterclipid>
                  <collapsed>false</collapsed>
                  <angle>
                    <activevideoangle>false</activevideoangle>
                    <activeaudioangle>false</activeaudioangle>
                    <clip id="clip-1"/>
                  </angle>
                  <angle>
                    <activevideoangle>false</activevideoangle>
                    <activeaudioangle>false</activeaudioangle>
                    <clip id="clip-2"/>
                  </angle>
                  <angle>
                    <activevideoangle>true</activevideoangle>
                    <activeaudioangle>true</activeaudioangle>
                    <clip id="clip-3"/>
                  </angle>
                  <angle>
                    <activevideoangle>false</activevideoangle>
                    <activeaudioangle>false</activeaudioangle>
                    <clip id="clip-4"/>
                  </angle>
                  <angle>
                    <activevideoangle>false</activevideoangle>
                    <activeaudioangle>false</activeaudioangle>
                    <clip id="clip-5"/>
                  </angle>
                  <angle>
                    <activevideoangle>false</activevideoangle>
                    <activeaudioangle>false</activeaudioangle>
                    <clip id="clip-6"/>
                  </angle>
                  <angle>
                    <activevideoangle>false</activevideoangle>
                    <activeaudioangle>false</activeaudioangle>
                    <clip id="clip-7"/>
                  </angle>
                  <angle>
                    <activevideoangle>false</activevideoangle>
                    <activeaudioangle>false</activeaudioangle>
                    <clip id="clip-8"/>
                  </angle>
                  <angle>
                    <activevideoangle>false</activevideoangle>
                    <activeaudioangle>false</activeaudioangle>
                    <clip id="clip-9"/>
                  </angle>
                  <masterclipid>clip-master</masterclipid>
                </multiclip>
              </clipitem>
              <clipitem id="cs-1096">
                <duration>195</duration>
                <rate>
                  <ntsc>false</ntsc>
                  <timebase>25</timebase>
                </rate>
                <in>97030</in>
                <out>97224</out>
                <start>97030</start>
                <end>97224</end>
                <file id="src-4"/>
                <sourcetrack>
                  <mediatype>video</mediatype>
                  <trackindex>1</trackindex>
                </sourcetrack>
                <multiclip id="mcs-1096">
                  <name>MCS-1096</name>
                  <masterclipid>clip-master</masterclipid>
                  <collapsed>false</collapsed>
                  <angle>
                    <activevideoangle>false</activevideoangle>
                    <activeaudioangle>false</activeaudioangle>
                    <clip id="clip-1"/>
                  </angle>
                  <angle>
                    <activevideoangle>false</activevideoangle>
                    <activeaudioangle>false</activeaudioangle>
                    <clip id="clip-2"/>
                  </angle>
                  <angle>
                    <activevideoangle>false</activevideoangle>
                    <activeaudioangle>false</activeaudioangle>
                    <clip id="clip-3"/>
                  </angle>
                  <angle>
                    <activevideoangle>true</activevideoangle>
                    <activeaudioangle>true</activeaudioangle>
                    <clip id="clip-4"/>
                  </angle>
                  <angle>
                    <activevideoangle>false</activevideoangle>
                    <activeaudioangle>false</activeaudioangle>
                    <clip id="clip-5"/>
                  </angle>
                  <angle>
                    <activevideoangle>false</activevideoangle>
                    <activeaudioangle>false</activeaudioangle>
                    <clip id="clip-6"/>
                  </angle>
                  <angle>
                    <activevideoangle>false</activevideoangle>
                    <activeaudioangle>false</activeaudioangle>
                    <clip id="clip-7"/>
                  </angle>
                  <angle>
                    <activevideoangle>false</activevideoangle>
                    <activeaudioangle>false</activeaudioangle>
                    <clip id="clip-8"/>
                  </angle>
                  <angle>
                    <activevideoangle>false</activevideoangle>
                    <activeaudioangle>false</activeaudioangle>
                    <clip id="clip-9"/>
                  </angle>
                  <masterclipid>clip-master</masterclipid>
                </multiclip>
              </clipitem>
              <clipitem id="cs-1097">
                <duration>140</duration>
                <rate>
                  <ntsc>false</ntsc>
                  <timebase>25</timebase>
                </rate>
                <in>97224</in>
                <out>97363</out>
                <start>97224</start>
                <end>97363</end>
                <file id="src-1"/>
                <sourcetrack>
                  <mediatype>video</mediatype>
                  <trackindex>1</trackindex>
                </sourcetrack>
                <multiclip id="mcs-1097">
                  <name>MCS-1097</name>
                  <masterclipid>clip-master</masterclipid>
                  <collapsed>false</collapsed>
                  <angle>
                    <activevideoangle>true</activevideoangle>
                    <activeaudioangle>true</activeaudioangle>
                    <clip id="clip-1"/>
                  </angle>
                  <angle>
                    <activevideoangle>false</activevideoangle>
                    <activeaudioangle>false</activeaudioangle>
                    <clip id="clip-2"/>
                  </angle>
                  <angle>
                    <activevideoangle>false</activevideoangle>
                    <activeaudioangle>false</activeaudioangle>
                    <clip id="clip-3"/>
                  </angle>
                  <angle>
                    <activevideoangle>false</activevideoangle>
                    <activeaudioangle>false</activeaudioangle>
                    <clip id="clip-4"/>
                  </angle>
                  <angle>
                    <activevideoangle>false</activevideoangle>
                    <activeaudioangle>false</activeaudioangle>
                    <clip id="clip-5"/>
                  </angle>
                  <angle>
                    <activevideoangle>false</activevideoangle>
                    <activeaudioangle>false</activeaudioangle>
                    <clip id="clip-6"/>
                  </angle>
                  <angle>
                    <activevideoangle>false</activevideoangle>
                    <activeaudioangle>false</activeaudioangle>
                    <clip id="clip-7"/>
                  </angle>
                  <angle>
                    <activevideoangle>false</activevideoangle>
                    <activeaudioangle>false</activeaudioangle>
                    <clip id="clip-8"/>
                  </angle>
                  <angle>
                    <activevideoangle>false</activevideoangle>
                    <activeaudioangle>false</activeaudioangle>
                    <clip id="clip-9"/>
                  </angle>
                  <masterclipid>clip-master</masterclipid>
                </multiclip>
              </clipitem>
              <clipitem id="cs-1098">
                <duration>75</duration>
                <rate>
                  <ntsc>false</ntsc>
                  <timebase>25</timebase>
                </rate>
                <in>97363</in>
                <out>97437</out>
                <start>97363</start>
                <end>97437</end>
                <file id="src-4"/>
                <sourcetrack>
                  <mediatype>video</mediatype>
                  <trackindex>1</trackindex>
                </sourcetrack>
                <multiclip id="mcs-1098">
                  <name>MCS-1098</name>
                  <masterclipid>clip-master</masterclipid>
                  <collapsed>false</collapsed>
                  <angle>
                    <activevideoangle>false</activevideoangle>
                    <activeaudioangle>false</activeaudioangle>
                    <clip id="clip-1"/>
                  </angle>
                  <angle>
                    <activevideoangle>false</activevideoangle>
                    <activeaudioangle>false</activeaudioangle>
                    <clip id="clip-2"/>
                  </angle>
                  <angle>
                    <activevideoangle>false</activevideoangle>
                    <activeaudioangle>false</activeaudioangle>
                    <clip id="clip-3"/>
                  </angle>
                  <angle>
                    <activevideoangle>true</activevideoangle>
                    <activeaudioangle>true</activeaudioangle>
                    <clip id="clip-4"/>
                  </angle>
                  <angle>
                    <activevideoangle>false</activevideoangle>
                    <activeaudioangle>false</activeaudioangle>
                    <clip id="clip-5"/>
                  </angle>
                  <angle>
                    <activevideoangle>false</activevideoangle>
                    <activeaudioangle>false</activeaudioangle>
                    <clip id="clip-6"/>
                  </angle>
                  <angle>
                    <activevideoangle>false</activevideoangle>
                    <activeaudioangle>false</activeaudioangle>
                    <clip id="clip-7"/>
                  </angle>
                  <angle>
                    <activevideoangle>false</activevideoangle>
                    <activeaudioangle>false</activeaudioangle>
                    <clip id="clip-8"/>
                  </angle>
                  <angle>
                    <activevideoangle>false</activevideoangle>
                    <activeaudioangle>false</activeaudioangle>
                    <clip id="clip-9"/>
                  </angle>
                  <masterclipid>clip-master</masterclipid>
                </multiclip>
              </clipitem>
              <clipitem id="cs-1099">
                <duration>142</duration>
                <rate>
                  <ntsc>false</ntsc>
                  <timebase>25</timebase>
                </rate>
                <in>97437</in>
                <out>97578</out>
                <start>97437</start>
                <end>97578</end>
                <file id="src-3"/>
                <sourcetrack>
                  <mediatype>video</mediatype>
                  <trackindex>1</trackindex>
                </sourcetrack>
                <multiclip id="mcs-1099">
                  <name>MCS-1099</name>
                  <masterclipid>clip-master</masterclipid>
                  <collapsed>false</collapsed>
                  <angle>
                    <activevideoangle>false</activevideoangle>
                    <activeaudioangle>false</activeaudioangle>
                    <clip id="clip-1"/>
                  </angle>
                  <angle>
                    <activevideoangle>false</activevideoangle>
                    <activeaudioangle>false</activeaudioangle>
                    <clip id="clip-2"/>
                  </angle>
                  <angle>
                    <activevideoangle>true</activevideoangle>
                    <activeaudioangle>true</activeaudioangle>
                    <clip id="clip-3"/>
                  </angle>
                  <angle>
                    <activevideoangle>false</activevideoangle>
                    <activeaudioangle>false</activeaudioangle>
                    <clip id="clip-4"/>
                  </angle>
                  <angle>
                    <activevideoangle>false</activevideoangle>
                    <activeaudioangle>false</activeaudioangle>
                    <clip id="clip-5"/>
                  </angle>
                  <angle>
                    <activevideoangle>false</activevideoangle>
                    <activeaudioangle>false</activeaudioangle>
                    <clip id="clip-6"/>
                  </angle>
                  <angle>
                    <activevideoangle>false</activevideoangle>
                    <activeaudioangle>false</activeaudioangle>
                    <clip id="clip-7"/>
                  </angle>
                  <angle>
                    <activevideoangle>false</activevideoangle>
                    <activeaudioangle>false</activeaudioangle>
                    <clip id="clip-8"/>
                  </angle>
                  <angle>
                    <activevideoangle>false</activevideoangle>
                    <activeaudioangle>false</activeaudioangle>
                    <clip id="clip-9"/>
                  </angle>
                  <masterclipid>clip-master</masterclipid>
                </multiclip>
              </clipitem>
              <clipitem id="cs-1100">
                <duration>213</duration>
                <rate>
                  <ntsc>false</ntsc>
                  <timebase>25</timebase>
                </rate>
                <in>97578</in>
                <out>97790</out>
                <start>97578</start>
                <end>97790</end>
                <file id="src-2"/>
                <sourcetrack>
                  <mediatype>video</mediatype>
                  <trackindex>1</trackindex>
                </sourcetrack>
                <multiclip id="mcs-1100">
                  <name>MCS-1100</name>
                  <masterclipid>clip-master</masterclipid>
                  <collapsed>false</collapsed>
                  <angle>
                    <activevideoangle>false</activevideoangle>
                    <activeaudioangle>false</activeaudioangle>
                    <clip id="clip-1"/>
                  </angle>
                  <angle>
                    <activevideoangle>true</activevideoangle>
                    <activeaudioangle>true</activeaudioangle>
                    <clip id="clip-2"/>
                  </angle>
                  <angle>
                    <activevideoangle>false</activevideoangle>
                    <activeaudioangle>false</activeaudioangle>
                    <clip id="clip-3"/>
                  </angle>
                  <angle>
                    <activevideoangle>false</activevideoangle>
                    <activeaudioangle>false</activeaudioangle>
                    <clip id="clip-4"/>
                  </angle>
                  <angle>
                    <activevideoangle>false</activevideoangle>
                    <activeaudioangle>false</activeaudioangle>
                    <clip id="clip-5"/>
                  </angle>
                  <angle>
                    <activevideoangle>false</activevideoangle>
                    <activeaudioangle>false</activeaudioangle>
                    <clip id="clip-6"/>
                  </angle>
                  <angle>
                    <activevideoangle>false</activevideoangle>
                    <activeaudioangle>false</activeaudioangle>
                    <clip id="clip-7"/>
                  </angle>
                  <angle>
                    <activevideoangle>false</activevideoangle>
                    <activeaudioangle>false</activeaudioangle>
                    <clip id="clip-8"/>
                  </angle>
                  <angle>
                    <activevideoangle>false</activevideoangle>
                    <activeaudioangle>false</activeaudioangle>
                    <clip id="clip-9"/>
                  </angle>
                  <masterclipid>clip-master</masterclipid>
                </multiclip>
              </clipitem>
              <clipitem id="cs-1101">
                <duration>168</duration>
                <rate>
                  <ntsc>false</ntsc>
                  <timebase>25</timebase>
                </rate>
                <in>97790</in>
                <out>97957</out>
                <start>97790</start>
                <end>97957</end>
                <file id="src-4"/>
                <sourcetrack>
                  <mediatype>video</mediatype>
                  <trackindex>1</trackindex>
                </sourcetrack>
                <multiclip id="mcs-1101">
                  <name>MCS-1101</name>
                  <masterclipid>clip-master</masterclipid>
                  <collapsed>false</collapsed>
                  <angle>
                    <activevideoangle>false</activevideoangle>
                    <activeaudioangle>false</activeaudioangle>
                    <clip id="clip-1"/>
                  </angle>
                  <angle>
                    <activevideoangle>false</activevideoangle>
                    <activeaudioangle>false</activeaudioangle>
                    <clip id="clip-2"/>
                  </angle>
                  <angle>
                    <activevideoangle>false</activevideoangle>
                    <activeaudioangle>false</activeaudioangle>
                    <clip id="clip-3"/>
                  </angle>
                  <angle>
                    <activevideoangle>true</activevideoangle>
                    <activeaudioangle>true</activeaudioangle>
                    <clip id="clip-4"/>
                  </angle>
                  <angle>
                    <activevideoangle>false</activevideoangle>
                    <activeaudioangle>false</activeaudioangle>
                    <clip id="clip-5"/>
                  </angle>
                  <angle>
                    <activevideoangle>false</activevideoangle>
                    <activeaudioangle>false</activeaudioangle>
                    <clip id="clip-6"/>
                  </angle>
                  <angle>
                    <activevideoangle>false</activevideoangle>
                    <activeaudioangle>false</activeaudioangle>
                    <clip id="clip-7"/>
                  </angle>
                  <angle>
                    <activevideoangle>false</activevideoangle>
                    <activeaudioangle>false</activeaudioangle>
                    <clip id="clip-8"/>
                  </angle>
                  <angle>
                    <activevideoangle>false</activevideoangle>
                    <activeaudioangle>false</activeaudioangle>
                    <clip id="clip-9"/>
                  </angle>
                  <masterclipid>clip-master</masterclipid>
                </multiclip>
              </clipitem>
              <clipitem id="cs-1102">
                <duration>164</duration>
                <rate>
                  <ntsc>false</ntsc>
                  <timebase>25</timebase>
                </rate>
                <in>97957</in>
                <out>98120</out>
                <start>97957</start>
                <end>98120</end>
                <file id="src-2"/>
                <sourcetrack>
                  <mediatype>video</mediatype>
                  <trackindex>1</trackindex>
                </sourcetrack>
                <multiclip id="mcs-1102">
                  <name>MCS-1102</name>
                  <masterclipid>clip-master</masterclipid>
                  <collapsed>false</collapsed>
                  <angle>
                    <activevideoangle>false</activevideoangle>
                    <activeaudioangle>false</activeaudioangle>
                    <clip id="clip-1"/>
                  </angle>
                  <angle>
                    <activevideoangle>true</activevideoangle>
                    <activeaudioangle>true</activeaudioangle>
                    <clip id="clip-2"/>
                  </angle>
                  <angle>
                    <activevideoangle>false</activevideoangle>
                    <activeaudioangle>false</activeaudioangle>
                    <clip id="clip-3"/>
                  </angle>
                  <angle>
                    <activevideoangle>false</activevideoangle>
                    <activeaudioangle>false</activeaudioangle>
                    <clip id="clip-4"/>
                  </angle>
                  <angle>
                    <activevideoangle>false</activevideoangle>
                    <activeaudioangle>false</activeaudioangle>
                    <clip id="clip-5"/>
                  </angle>
                  <angle>
                    <activevideoangle>false</activevideoangle>
                    <activeaudioangle>false</activeaudioangle>
                    <clip id="clip-6"/>
                  </angle>
                  <angle>
                    <activevideoangle>false</activevideoangle>
                    <activeaudioangle>false</activeaudioangle>
                    <clip id="clip-7"/>
                  </angle>
                  <angle>
                    <activevideoangle>false</activevideoangle>
                    <activeaudioangle>false</activeaudioangle>
                    <clip id="clip-8"/>
                  </angle>
                  <angle>
                    <activevideoangle>false</activevideoangle>
                    <activeaudioangle>false</activeaudioangle>
                    <clip id="clip-9"/>
                  </angle>
                  <masterclipid>clip-master</masterclipid>
                </multiclip>
              </clipitem>
              <clipitem id="cs-1103">
                <duration>141</duration>
                <rate>
                  <ntsc>false</ntsc>
                  <timebase>25</timebase>
                </rate>
                <in>98120</in>
                <out>98260</out>
                <start>98120</start>
                <end>98260</end>
                <file id="src-4"/>
                <sourcetrack>
                  <mediatype>video</mediatype>
                  <trackindex>1</trackindex>
                </sourcetrack>
                <multiclip id="mcs-1103">
                  <name>MCS-1103</name>
                  <masterclipid>clip-master</masterclipid>
                  <collapsed>false</collapsed>
                  <angle>
                    <activevideoangle>false</activevideoangle>
                    <activeaudioangle>false</activeaudioangle>
                    <clip id="clip-1"/>
                  </angle>
                  <angle>
                    <activevideoangle>false</activevideoangle>
                    <activeaudioangle>false</activeaudioangle>
                    <clip id="clip-2"/>
                  </angle>
                  <angle>
                    <activevideoangle>false</activevideoangle>
                    <activeaudioangle>false</activeaudioangle>
                    <clip id="clip-3"/>
                  </angle>
                  <angle>
                    <activevideoangle>true</activevideoangle>
                    <activeaudioangle>true</activeaudioangle>
                    <clip id="clip-4"/>
                  </angle>
                  <angle>
                    <activevideoangle>false</activevideoangle>
                    <activeaudioangle>false</activeaudioangle>
                    <clip id="clip-5"/>
                  </angle>
                  <angle>
                    <activevideoangle>false</activevideoangle>
                    <activeaudioangle>false</activeaudioangle>
                    <clip id="clip-6"/>
                  </angle>
                  <angle>
                    <activevideoangle>false</activevideoangle>
                    <activeaudioangle>false</activeaudioangle>
                    <clip id="clip-7"/>
                  </angle>
                  <angle>
                    <activevideoangle>false</activevideoangle>
                    <activeaudioangle>false</activeaudioangle>
                    <clip id="clip-8"/>
                  </angle>
                  <angle>
                    <activevideoangle>false</activevideoangle>
                    <activeaudioangle>false</activeaudioangle>
                    <clip id="clip-9"/>
                  </angle>
                  <masterclipid>clip-master</masterclipid>
                </multiclip>
              </clipitem>
              <clipitem id="cs-1104">
                <duration>309</duration>
                <rate>
                  <ntsc>false</ntsc>
                  <timebase>25</timebase>
                </rate>
                <in>98260</in>
                <out>98568</out>
                <start>98260</start>
                <end>98568</end>
                <file id="src-1"/>
                <sourcetrack>
                  <mediatype>video</mediatype>
                  <trackindex>1</trackindex>
                </sourcetrack>
                <multiclip id="mcs-1104">
                  <name>MCS-1104</name>
                  <masterclipid>clip-master</masterclipid>
                  <collapsed>false</collapsed>
                  <angle>
                    <activevideoangle>true</activevideoangle>
                    <activeaudioangle>true</activeaudioangle>
                    <clip id="clip-1"/>
                  </angle>
                  <angle>
                    <activevideoangle>false</activevideoangle>
                    <activeaudioangle>false</activeaudioangle>
                    <clip id="clip-2"/>
                  </angle>
                  <angle>
                    <activevideoangle>false</activevideoangle>
                    <activeaudioangle>false</activeaudioangle>
                    <clip id="clip-3"/>
                  </angle>
                  <angle>
                    <activevideoangle>false</activevideoangle>
                    <activeaudioangle>false</activeaudioangle>
                    <clip id="clip-4"/>
                  </angle>
                  <angle>
                    <activevideoangle>false</activevideoangle>
                    <activeaudioangle>false</activeaudioangle>
                    <clip id="clip-5"/>
                  </angle>
                  <angle>
                    <activevideoangle>false</activevideoangle>
                    <activeaudioangle>false</activeaudioangle>
                    <clip id="clip-6"/>
                  </angle>
                  <angle>
                    <activevideoangle>false</activevideoangle>
                    <activeaudioangle>false</activeaudioangle>
                    <clip id="clip-7"/>
                  </angle>
                  <angle>
                    <activevideoangle>false</activevideoangle>
                    <activeaudioangle>false</activeaudioangle>
                    <clip id="clip-8"/>
                  </angle>
                  <angle>
                    <activevideoangle>false</activevideoangle>
                    <activeaudioangle>false</activeaudioangle>
                    <clip id="clip-9"/>
                  </angle>
                  <masterclipid>clip-master</masterclipid>
                </multiclip>
              </clipitem>
              <clipitem id="cs-1105">
                <duration>181</duration>
                <rate>
                  <ntsc>false</ntsc>
                  <timebase>25</timebase>
                </rate>
                <in>98568</in>
                <out>98748</out>
                <start>98568</start>
                <end>98748</end>
                <file id="src-3"/>
                <sourcetrack>
                  <mediatype>video</mediatype>
                  <trackindex>1</trackindex>
                </sourcetrack>
                <multiclip id="mcs-1105">
                  <name>MCS-1105</name>
                  <masterclipid>clip-master</masterclipid>
                  <collapsed>false</collapsed>
                  <angle>
                    <activevideoangle>false</activevideoangle>
                    <activeaudioangle>false</activeaudioangle>
                    <clip id="clip-1"/>
                  </angle>
                  <angle>
                    <activevideoangle>false</activevideoangle>
                    <activeaudioangle>false</activeaudioangle>
                    <clip id="clip-2"/>
                  </angle>
                  <angle>
                    <activevideoangle>true</activevideoangle>
                    <activeaudioangle>true</activeaudioangle>
                    <clip id="clip-3"/>
                  </angle>
                  <angle>
                    <activevideoangle>false</activevideoangle>
                    <activeaudioangle>false</activeaudioangle>
                    <clip id="clip-4"/>
                  </angle>
                  <angle>
                    <activevideoangle>false</activevideoangle>
                    <activeaudioangle>false</activeaudioangle>
                    <clip id="clip-5"/>
                  </angle>
                  <angle>
                    <activevideoangle>false</activevideoangle>
                    <activeaudioangle>false</activeaudioangle>
                    <clip id="clip-6"/>
                  </angle>
                  <angle>
                    <activevideoangle>false</activevideoangle>
                    <activeaudioangle>false</activeaudioangle>
                    <clip id="clip-7"/>
                  </angle>
                  <angle>
                    <activevideoangle>false</activevideoangle>
                    <activeaudioangle>false</activeaudioangle>
                    <clip id="clip-8"/>
                  </angle>
                  <angle>
                    <activevideoangle>false</activevideoangle>
                    <activeaudioangle>false</activeaudioangle>
                    <clip id="clip-9"/>
                  </angle>
                  <masterclipid>clip-master</masterclipid>
                </multiclip>
              </clipitem>
              <clipitem id="cs-1106">
                <duration>129</duration>
                <rate>
                  <ntsc>false</ntsc>
                  <timebase>25</timebase>
                </rate>
                <in>98748</in>
                <out>98876</out>
                <start>98748</start>
                <end>98876</end>
                <file id="src-4"/>
                <sourcetrack>
                  <mediatype>video</mediatype>
                  <trackindex>1</trackindex>
                </sourcetrack>
                <multiclip id="mcs-1106">
                  <name>MCS-1106</name>
                  <masterclipid>clip-master</masterclipid>
                  <collapsed>false</collapsed>
                  <angle>
                    <activevideoangle>false</activevideoangle>
                    <activeaudioangle>false</activeaudioangle>
                    <clip id="clip-1"/>
                  </angle>
                  <angle>
                    <activevideoangle>false</activevideoangle>
                    <activeaudioangle>false</activeaudioangle>
                    <clip id="clip-2"/>
                  </angle>
                  <angle>
                    <activevideoangle>false</activevideoangle>
                    <activeaudioangle>false</activeaudioangle>
                    <clip id="clip-3"/>
                  </angle>
                  <angle>
                    <activevideoangle>true</activevideoangle>
                    <activeaudioangle>true</activeaudioangle>
                    <clip id="clip-4"/>
                  </angle>
                  <angle>
                    <activevideoangle>false</activevideoangle>
                    <activeaudioangle>false</activeaudioangle>
                    <clip id="clip-5"/>
                  </angle>
                  <angle>
                    <activevideoangle>false</activevideoangle>
                    <activeaudioangle>false</activeaudioangle>
                    <clip id="clip-6"/>
                  </angle>
                  <angle>
                    <activevideoangle>false</activevideoangle>
                    <activeaudioangle>false</activeaudioangle>
                    <clip id="clip-7"/>
                  </angle>
                  <angle>
                    <activevideoangle>false</activevideoangle>
                    <activeaudioangle>false</activeaudioangle>
                    <clip id="clip-8"/>
                  </angle>
                  <angle>
                    <activevideoangle>false</activevideoangle>
                    <activeaudioangle>false</activeaudioangle>
                    <clip id="clip-9"/>
                  </angle>
                  <masterclipid>clip-master</masterclipid>
                </multiclip>
              </clipitem>
              <clipitem id="cs-1107">
                <duration>104</duration>
                <rate>
                  <ntsc>false</ntsc>
                  <timebase>25</timebase>
                </rate>
                <in>98876</in>
                <out>98979</out>
                <start>98876</start>
                <end>98979</end>
                <file id="src-2"/>
                <sourcetrack>
                  <mediatype>video</mediatype>
                  <trackindex>1</trackindex>
                </sourcetrack>
                <multiclip id="mcs-1107">
                  <name>MCS-1107</name>
                  <masterclipid>clip-master</masterclipid>
                  <collapsed>false</collapsed>
                  <angle>
                    <activevideoangle>false</activevideoangle>
                    <activeaudioangle>false</activeaudioangle>
                    <clip id="clip-1"/>
                  </angle>
                  <angle>
                    <activevideoangle>true</activevideoangle>
                    <activeaudioangle>true</activeaudioangle>
                    <clip id="clip-2"/>
                  </angle>
                  <angle>
                    <activevideoangle>false</activevideoangle>
                    <activeaudioangle>false</activeaudioangle>
                    <clip id="clip-3"/>
                  </angle>
                  <angle>
                    <activevideoangle>false</activevideoangle>
                    <activeaudioangle>false</activeaudioangle>
                    <clip id="clip-4"/>
                  </angle>
                  <angle>
                    <activevideoangle>false</activevideoangle>
                    <activeaudioangle>false</activeaudioangle>
                    <clip id="clip-5"/>
                  </angle>
                  <angle>
                    <activevideoangle>false</activevideoangle>
                    <activeaudioangle>false</activeaudioangle>
                    <clip id="clip-6"/>
                  </angle>
                  <angle>
                    <activevideoangle>false</activevideoangle>
                    <activeaudioangle>false</activeaudioangle>
                    <clip id="clip-7"/>
                  </angle>
                  <angle>
                    <activevideoangle>false</activevideoangle>
                    <activeaudioangle>false</activeaudioangle>
                    <clip id="clip-8"/>
                  </angle>
                  <angle>
                    <activevideoangle>false</activevideoangle>
                    <activeaudioangle>false</activeaudioangle>
                    <clip id="clip-9"/>
                  </angle>
                  <masterclipid>clip-master</masterclipid>
                </multiclip>
              </clipitem>
              <clipitem id="cs-1108">
                <duration>93</duration>
                <rate>
                  <ntsc>false</ntsc>
                  <timebase>25</timebase>
                </rate>
                <in>98979</in>
                <out>99071</out>
                <start>98979</start>
                <end>99071</end>
                <file id="src-3"/>
                <sourcetrack>
                  <mediatype>video</mediatype>
                  <trackindex>1</trackindex>
                </sourcetrack>
                <multiclip id="mcs-1108">
                  <name>MCS-1108</name>
                  <masterclipid>clip-master</masterclipid>
                  <collapsed>false</collapsed>
                  <angle>
                    <activevideoangle>false</activevideoangle>
                    <activeaudioangle>false</activeaudioangle>
                    <clip id="clip-1"/>
                  </angle>
                  <angle>
                    <activevideoangle>false</activevideoangle>
                    <activeaudioangle>false</activeaudioangle>
                    <clip id="clip-2"/>
                  </angle>
                  <angle>
                    <activevideoangle>true</activevideoangle>
                    <activeaudioangle>true</activeaudioangle>
                    <clip id="clip-3"/>
                  </angle>
                  <angle>
                    <activevideoangle>false</activevideoangle>
                    <activeaudioangle>false</activeaudioangle>
                    <clip id="clip-4"/>
                  </angle>
                  <angle>
                    <activevideoangle>false</activevideoangle>
                    <activeaudioangle>false</activeaudioangle>
                    <clip id="clip-5"/>
                  </angle>
                  <angle>
                    <activevideoangle>false</activevideoangle>
                    <activeaudioangle>false</activeaudioangle>
                    <clip id="clip-6"/>
                  </angle>
                  <angle>
                    <activevideoangle>false</activevideoangle>
                    <activeaudioangle>false</activeaudioangle>
                    <clip id="clip-7"/>
                  </angle>
                  <angle>
                    <activevideoangle>false</activevideoangle>
                    <activeaudioangle>false</activeaudioangle>
                    <clip id="clip-8"/>
                  </angle>
                  <angle>
                    <activevideoangle>false</activevideoangle>
                    <activeaudioangle>false</activeaudioangle>
                    <clip id="clip-9"/>
                  </angle>
                  <masterclipid>clip-master</masterclipid>
                </multiclip>
              </clipitem>
              <clipitem id="cs-1109">
                <duration>278</duration>
                <rate>
                  <ntsc>false</ntsc>
                  <timebase>25</timebase>
                </rate>
                <in>99071</in>
                <out>99348</out>
                <start>99071</start>
                <end>99348</end>
                <file id="src-4"/>
                <sourcetrack>
                  <mediatype>video</mediatype>
                  <trackindex>1</trackindex>
                </sourcetrack>
                <multiclip id="mcs-1109">
                  <name>MCS-1109</name>
                  <masterclipid>clip-master</masterclipid>
                  <collapsed>false</collapsed>
                  <angle>
                    <activevideoangle>false</activevideoangle>
                    <activeaudioangle>false</activeaudioangle>
                    <clip id="clip-1"/>
                  </angle>
                  <angle>
                    <activevideoangle>false</activevideoangle>
                    <activeaudioangle>false</activeaudioangle>
                    <clip id="clip-2"/>
                  </angle>
                  <angle>
                    <activevideoangle>false</activevideoangle>
                    <activeaudioangle>false</activeaudioangle>
                    <clip id="clip-3"/>
                  </angle>
                  <angle>
                    <activevideoangle>true</activevideoangle>
                    <activeaudioangle>true</activeaudioangle>
                    <clip id="clip-4"/>
                  </angle>
                  <angle>
                    <activevideoangle>false</activevideoangle>
                    <activeaudioangle>false</activeaudioangle>
                    <clip id="clip-5"/>
                  </angle>
                  <angle>
                    <activevideoangle>false</activevideoangle>
                    <activeaudioangle>false</activeaudioangle>
                    <clip id="clip-6"/>
                  </angle>
                  <angle>
                    <activevideoangle>false</activevideoangle>
                    <activeaudioangle>false</activeaudioangle>
                    <clip id="clip-7"/>
                  </angle>
                  <angle>
                    <activevideoangle>false</activevideoangle>
                    <activeaudioangle>false</activeaudioangle>
                    <clip id="clip-8"/>
                  </angle>
                  <angle>
                    <activevideoangle>false</activevideoangle>
                    <activeaudioangle>false</activeaudioangle>
                    <clip id="clip-9"/>
                  </angle>
                  <masterclipid>clip-master</masterclipid>
                </multiclip>
              </clipitem>
              <clipitem id="cs-1110">
                <duration>57</duration>
                <rate>
                  <ntsc>false</ntsc>
                  <timebase>25</timebase>
                </rate>
                <in>99348</in>
                <out>99404</out>
                <start>99348</start>
                <end>99404</end>
                <file id="src-3"/>
                <sourcetrack>
                  <mediatype>video</mediatype>
                  <trackindex>1</trackindex>
                </sourcetrack>
                <multiclip id="mcs-1110">
                  <name>MCS-1110</name>
                  <masterclipid>clip-master</masterclipid>
                  <collapsed>false</collapsed>
                  <angle>
                    <activevideoangle>false</activevideoangle>
                    <activeaudioangle>false</activeaudioangle>
                    <clip id="clip-1"/>
                  </angle>
                  <angle>
                    <activevideoangle>false</activevideoangle>
                    <activeaudioangle>false</activeaudioangle>
                    <clip id="clip-2"/>
                  </angle>
                  <angle>
                    <activevideoangle>true</activevideoangle>
                    <activeaudioangle>true</activeaudioangle>
                    <clip id="clip-3"/>
                  </angle>
                  <angle>
                    <activevideoangle>false</activevideoangle>
                    <activeaudioangle>false</activeaudioangle>
                    <clip id="clip-4"/>
                  </angle>
                  <angle>
                    <activevideoangle>false</activevideoangle>
                    <activeaudioangle>false</activeaudioangle>
                    <clip id="clip-5"/>
                  </angle>
                  <angle>
                    <activevideoangle>false</activevideoangle>
                    <activeaudioangle>false</activeaudioangle>
                    <clip id="clip-6"/>
                  </angle>
                  <angle>
                    <activevideoangle>false</activevideoangle>
                    <activeaudioangle>false</activeaudioangle>
                    <clip id="clip-7"/>
                  </angle>
                  <angle>
                    <activevideoangle>false</activevideoangle>
                    <activeaudioangle>false</activeaudioangle>
                    <clip id="clip-8"/>
                  </angle>
                  <angle>
                    <activevideoangle>false</activevideoangle>
                    <activeaudioangle>false</activeaudioangle>
                    <clip id="clip-9"/>
                  </angle>
                  <masterclipid>clip-master</masterclipid>
                </multiclip>
              </clipitem>
              <clipitem id="cs-1111">
                <duration>145</duration>
                <rate>
                  <ntsc>false</ntsc>
                  <timebase>25</timebase>
                </rate>
                <in>99404</in>
                <out>99548</out>
                <start>99404</start>
                <end>99548</end>
                <file id="src-7"/>
                <sourcetrack>
                  <mediatype>video</mediatype>
                  <trackindex>1</trackindex>
                </sourcetrack>
                <multiclip id="mcs-1111">
                  <name>MCS-1111</name>
                  <masterclipid>clip-master</masterclipid>
                  <collapsed>false</collapsed>
                  <angle>
                    <activevideoangle>false</activevideoangle>
                    <activeaudioangle>false</activeaudioangle>
                    <clip id="clip-1"/>
                  </angle>
                  <angle>
                    <activevideoangle>false</activevideoangle>
                    <activeaudioangle>false</activeaudioangle>
                    <clip id="clip-2"/>
                  </angle>
                  <angle>
                    <activevideoangle>false</activevideoangle>
                    <activeaudioangle>false</activeaudioangle>
                    <clip id="clip-3"/>
                  </angle>
                  <angle>
                    <activevideoangle>false</activevideoangle>
                    <activeaudioangle>false</activeaudioangle>
                    <clip id="clip-4"/>
                  </angle>
                  <angle>
                    <activevideoangle>false</activevideoangle>
                    <activeaudioangle>false</activeaudioangle>
                    <clip id="clip-5"/>
                  </angle>
                  <angle>
                    <activevideoangle>false</activevideoangle>
                    <activeaudioangle>false</activeaudioangle>
                    <clip id="clip-6"/>
                  </angle>
                  <angle>
                    <activevideoangle>true</activevideoangle>
                    <activeaudioangle>true</activeaudioangle>
                    <clip id="clip-7"/>
                  </angle>
                  <angle>
                    <activevideoangle>false</activevideoangle>
                    <activeaudioangle>false</activeaudioangle>
                    <clip id="clip-8"/>
                  </angle>
                  <angle>
                    <activevideoangle>false</activevideoangle>
                    <activeaudioangle>false</activeaudioangle>
                    <clip id="clip-9"/>
                  </angle>
                  <masterclipid>clip-master</masterclipid>
                </multiclip>
              </clipitem>
              <clipitem id="cs-1112">
                <duration>242</duration>
                <rate>
                  <ntsc>false</ntsc>
                  <timebase>25</timebase>
                </rate>
                <in>99548</in>
                <out>99789</out>
                <start>99548</start>
                <end>99789</end>
                <file id="src-4"/>
                <sourcetrack>
                  <mediatype>video</mediatype>
                  <trackindex>1</trackindex>
                </sourcetrack>
                <multiclip id="mcs-1112">
                  <name>MCS-1112</name>
                  <masterclipid>clip-master</masterclipid>
                  <collapsed>false</collapsed>
                  <angle>
                    <activevideoangle>false</activevideoangle>
                    <activeaudioangle>false</activeaudioangle>
                    <clip id="clip-1"/>
                  </angle>
                  <angle>
                    <activevideoangle>false</activevideoangle>
                    <activeaudioangle>false</activeaudioangle>
                    <clip id="clip-2"/>
                  </angle>
                  <angle>
                    <activevideoangle>false</activevideoangle>
                    <activeaudioangle>false</activeaudioangle>
                    <clip id="clip-3"/>
                  </angle>
                  <angle>
                    <activevideoangle>true</activevideoangle>
                    <activeaudioangle>true</activeaudioangle>
                    <clip id="clip-4"/>
                  </angle>
                  <angle>
                    <activevideoangle>false</activevideoangle>
                    <activeaudioangle>false</activeaudioangle>
                    <clip id="clip-5"/>
                  </angle>
                  <angle>
                    <activevideoangle>false</activevideoangle>
                    <activeaudioangle>false</activeaudioangle>
                    <clip id="clip-6"/>
                  </angle>
                  <angle>
                    <activevideoangle>false</activevideoangle>
                    <activeaudioangle>false</activeaudioangle>
                    <clip id="clip-7"/>
                  </angle>
                  <angle>
                    <activevideoangle>false</activevideoangle>
                    <activeaudioangle>false</activeaudioangle>
                    <clip id="clip-8"/>
                  </angle>
                  <angle>
                    <activevideoangle>false</activevideoangle>
                    <activeaudioangle>false</activeaudioangle>
                    <clip id="clip-9"/>
                  </angle>
                  <masterclipid>clip-master</masterclipid>
                </multiclip>
              </clipitem>
              <clipitem id="cs-1113">
                <duration>152</duration>
                <rate>
                  <ntsc>false</ntsc>
                  <timebase>25</timebase>
                </rate>
                <in>99789</in>
                <out>99940</out>
                <start>99789</start>
                <end>99940</end>
                <file id="src-2"/>
                <sourcetrack>
                  <mediatype>video</mediatype>
                  <trackindex>1</trackindex>
                </sourcetrack>
                <multiclip id="mcs-1113">
                  <name>MCS-1113</name>
                  <masterclipid>clip-master</masterclipid>
                  <collapsed>false</collapsed>
                  <angle>
                    <activevideoangle>false</activevideoangle>
                    <activeaudioangle>false</activeaudioangle>
                    <clip id="clip-1"/>
                  </angle>
                  <angle>
                    <activevideoangle>true</activevideoangle>
                    <activeaudioangle>true</activeaudioangle>
                    <clip id="clip-2"/>
                  </angle>
                  <angle>
                    <activevideoangle>false</activevideoangle>
                    <activeaudioangle>false</activeaudioangle>
                    <clip id="clip-3"/>
                  </angle>
                  <angle>
                    <activevideoangle>false</activevideoangle>
                    <activeaudioangle>false</activeaudioangle>
                    <clip id="clip-4"/>
                  </angle>
                  <angle>
                    <activevideoangle>false</activevideoangle>
                    <activeaudioangle>false</activeaudioangle>
                    <clip id="clip-5"/>
                  </angle>
                  <angle>
                    <activevideoangle>false</activevideoangle>
                    <activeaudioangle>false</activeaudioangle>
                    <clip id="clip-6"/>
                  </angle>
                  <angle>
                    <activevideoangle>false</activevideoangle>
                    <activeaudioangle>false</activeaudioangle>
                    <clip id="clip-7"/>
                  </angle>
                  <angle>
                    <activevideoangle>false</activevideoangle>
                    <activeaudioangle>false</activeaudioangle>
                    <clip id="clip-8"/>
                  </angle>
                  <angle>
                    <activevideoangle>false</activevideoangle>
                    <activeaudioangle>false</activeaudioangle>
                    <clip id="clip-9"/>
                  </angle>
                  <masterclipid>clip-master</masterclipid>
                </multiclip>
              </clipitem>
              <clipitem id="cs-1114">
                <duration>114</duration>
                <rate>
                  <ntsc>false</ntsc>
                  <timebase>25</timebase>
                </rate>
                <in>99940</in>
                <out>100053</out>
                <start>99940</start>
                <end>100053</end>
                <file id="src-3"/>
                <sourcetrack>
                  <mediatype>video</mediatype>
                  <trackindex>1</trackindex>
                </sourcetrack>
                <multiclip id="mcs-1114">
                  <name>MCS-1114</name>
                  <masterclipid>clip-master</masterclipid>
                  <collapsed>false</collapsed>
                  <angle>
                    <activevideoangle>false</activevideoangle>
                    <activeaudioangle>false</activeaudioangle>
                    <clip id="clip-1"/>
                  </angle>
                  <angle>
                    <activevideoangle>false</activevideoangle>
                    <activeaudioangle>false</activeaudioangle>
                    <clip id="clip-2"/>
                  </angle>
                  <angle>
                    <activevideoangle>true</activevideoangle>
                    <activeaudioangle>true</activeaudioangle>
                    <clip id="clip-3"/>
                  </angle>
                  <angle>
                    <activevideoangle>false</activevideoangle>
                    <activeaudioangle>false</activeaudioangle>
                    <clip id="clip-4"/>
                  </angle>
                  <angle>
                    <activevideoangle>false</activevideoangle>
                    <activeaudioangle>false</activeaudioangle>
                    <clip id="clip-5"/>
                  </angle>
                  <angle>
                    <activevideoangle>false</activevideoangle>
                    <activeaudioangle>false</activeaudioangle>
                    <clip id="clip-6"/>
                  </angle>
                  <angle>
                    <activevideoangle>false</activevideoangle>
                    <activeaudioangle>false</activeaudioangle>
                    <clip id="clip-7"/>
                  </angle>
                  <angle>
                    <activevideoangle>false</activevideoangle>
                    <activeaudioangle>false</activeaudioangle>
                    <clip id="clip-8"/>
                  </angle>
                  <angle>
                    <activevideoangle>false</activevideoangle>
                    <activeaudioangle>false</activeaudioangle>
                    <clip id="clip-9"/>
                  </angle>
                  <masterclipid>clip-master</masterclipid>
                </multiclip>
              </clipitem>
              <clipitem id="cs-1115">
                <duration>68</duration>
                <rate>
                  <ntsc>false</ntsc>
                  <timebase>25</timebase>
                </rate>
                <in>100053</in>
                <out>100120</out>
                <start>100053</start>
                <end>100120</end>
                <file id="src-6"/>
                <sourcetrack>
                  <mediatype>video</mediatype>
                  <trackindex>1</trackindex>
                </sourcetrack>
                <multiclip id="mcs-1115">
                  <name>MCS-1115</name>
                  <masterclipid>clip-master</masterclipid>
                  <collapsed>false</collapsed>
                  <angle>
                    <activevideoangle>false</activevideoangle>
                    <activeaudioangle>false</activeaudioangle>
                    <clip id="clip-1"/>
                  </angle>
                  <angle>
                    <activevideoangle>false</activevideoangle>
                    <activeaudioangle>false</activeaudioangle>
                    <clip id="clip-2"/>
                  </angle>
                  <angle>
                    <activevideoangle>false</activevideoangle>
                    <activeaudioangle>false</activeaudioangle>
                    <clip id="clip-3"/>
                  </angle>
                  <angle>
                    <activevideoangle>false</activevideoangle>
                    <activeaudioangle>false</activeaudioangle>
                    <clip id="clip-4"/>
                  </angle>
                  <angle>
                    <activevideoangle>false</activevideoangle>
                    <activeaudioangle>false</activeaudioangle>
                    <clip id="clip-5"/>
                  </angle>
                  <angle>
                    <activevideoangle>true</activevideoangle>
                    <activeaudioangle>true</activeaudioangle>
                    <clip id="clip-6"/>
                  </angle>
                  <angle>
                    <activevideoangle>false</activevideoangle>
                    <activeaudioangle>false</activeaudioangle>
                    <clip id="clip-7"/>
                  </angle>
                  <angle>
                    <activevideoangle>false</activevideoangle>
                    <activeaudioangle>false</activeaudioangle>
                    <clip id="clip-8"/>
                  </angle>
                  <angle>
                    <activevideoangle>false</activevideoangle>
                    <activeaudioangle>false</activeaudioangle>
                    <clip id="clip-9"/>
                  </angle>
                  <masterclipid>clip-master</masterclipid>
                </multiclip>
              </clipitem>
              <clipitem id="cs-1116">
                <duration>464</duration>
                <rate>
                  <ntsc>false</ntsc>
                  <timebase>25</timebase>
                </rate>
                <in>100120</in>
                <out>100583</out>
                <start>100120</start>
                <end>100583</end>
                <file id="src-4"/>
                <sourcetrack>
                  <mediatype>video</mediatype>
                  <trackindex>1</trackindex>
                </sourcetrack>
                <multiclip id="mcs-1116">
                  <name>MCS-1116</name>
                  <masterclipid>clip-master</masterclipid>
                  <collapsed>false</collapsed>
                  <angle>
                    <activevideoangle>false</activevideoangle>
                    <activeaudioangle>false</activeaudioangle>
                    <clip id="clip-1"/>
                  </angle>
                  <angle>
                    <activevideoangle>false</activevideoangle>
                    <activeaudioangle>false</activeaudioangle>
                    <clip id="clip-2"/>
                  </angle>
                  <angle>
                    <activevideoangle>false</activevideoangle>
                    <activeaudioangle>false</activeaudioangle>
                    <clip id="clip-3"/>
                  </angle>
                  <angle>
                    <activevideoangle>true</activevideoangle>
                    <activeaudioangle>true</activeaudioangle>
                    <clip id="clip-4"/>
                  </angle>
                  <angle>
                    <activevideoangle>false</activevideoangle>
                    <activeaudioangle>false</activeaudioangle>
                    <clip id="clip-5"/>
                  </angle>
                  <angle>
                    <activevideoangle>false</activevideoangle>
                    <activeaudioangle>false</activeaudioangle>
                    <clip id="clip-6"/>
                  </angle>
                  <angle>
                    <activevideoangle>false</activevideoangle>
                    <activeaudioangle>false</activeaudioangle>
                    <clip id="clip-7"/>
                  </angle>
                  <angle>
                    <activevideoangle>false</activevideoangle>
                    <activeaudioangle>false</activeaudioangle>
                    <clip id="clip-8"/>
                  </angle>
                  <angle>
                    <activevideoangle>false</activevideoangle>
                    <activeaudioangle>false</activeaudioangle>
                    <clip id="clip-9"/>
                  </angle>
                  <masterclipid>clip-master</masterclipid>
                </multiclip>
              </clipitem>
              <clipitem id="cs-1117">
                <duration>110</duration>
                <rate>
                  <ntsc>false</ntsc>
                  <timebase>25</timebase>
                </rate>
                <in>100583</in>
                <out>100692</out>
                <start>100583</start>
                <end>100692</end>
                <file id="src-1"/>
                <sourcetrack>
                  <mediatype>video</mediatype>
                  <trackindex>1</trackindex>
                </sourcetrack>
                <multiclip id="mcs-1117">
                  <name>MCS-1117</name>
                  <masterclipid>clip-master</masterclipid>
                  <collapsed>false</collapsed>
                  <angle>
                    <activevideoangle>true</activevideoangle>
                    <activeaudioangle>true</activeaudioangle>
                    <clip id="clip-1"/>
                  </angle>
                  <angle>
                    <activevideoangle>false</activevideoangle>
                    <activeaudioangle>false</activeaudioangle>
                    <clip id="clip-2"/>
                  </angle>
                  <angle>
                    <activevideoangle>false</activevideoangle>
                    <activeaudioangle>false</activeaudioangle>
                    <clip id="clip-3"/>
                  </angle>
                  <angle>
                    <activevideoangle>false</activevideoangle>
                    <activeaudioangle>false</activeaudioangle>
                    <clip id="clip-4"/>
                  </angle>
                  <angle>
                    <activevideoangle>false</activevideoangle>
                    <activeaudioangle>false</activeaudioangle>
                    <clip id="clip-5"/>
                  </angle>
                  <angle>
                    <activevideoangle>false</activevideoangle>
                    <activeaudioangle>false</activeaudioangle>
                    <clip id="clip-6"/>
                  </angle>
                  <angle>
                    <activevideoangle>false</activevideoangle>
                    <activeaudioangle>false</activeaudioangle>
                    <clip id="clip-7"/>
                  </angle>
                  <angle>
                    <activevideoangle>false</activevideoangle>
                    <activeaudioangle>false</activeaudioangle>
                    <clip id="clip-8"/>
                  </angle>
                  <angle>
                    <activevideoangle>false</activevideoangle>
                    <activeaudioangle>false</activeaudioangle>
                    <clip id="clip-9"/>
                  </angle>
                  <masterclipid>clip-master</masterclipid>
                </multiclip>
              </clipitem>
              <clipitem id="cs-1118">
                <duration>147</duration>
                <rate>
                  <ntsc>false</ntsc>
                  <timebase>25</timebase>
                </rate>
                <in>100692</in>
                <out>100838</out>
                <start>100692</start>
                <end>100838</end>
                <file id="src-4"/>
                <sourcetrack>
                  <mediatype>video</mediatype>
                  <trackindex>1</trackindex>
                </sourcetrack>
                <multiclip id="mcs-1118">
                  <name>MCS-1118</name>
                  <masterclipid>clip-master</masterclipid>
                  <collapsed>false</collapsed>
                  <angle>
                    <activevideoangle>false</activevideoangle>
                    <activeaudioangle>false</activeaudioangle>
                    <clip id="clip-1"/>
                  </angle>
                  <angle>
                    <activevideoangle>false</activevideoangle>
                    <activeaudioangle>false</activeaudioangle>
                    <clip id="clip-2"/>
                  </angle>
                  <angle>
                    <activevideoangle>false</activevideoangle>
                    <activeaudioangle>false</activeaudioangle>
                    <clip id="clip-3"/>
                  </angle>
                  <angle>
                    <activevideoangle>true</activevideoangle>
                    <activeaudioangle>true</activeaudioangle>
                    <clip id="clip-4"/>
                  </angle>
                  <angle>
                    <activevideoangle>false</activevideoangle>
                    <activeaudioangle>false</activeaudioangle>
                    <clip id="clip-5"/>
                  </angle>
                  <angle>
                    <activevideoangle>false</activevideoangle>
                    <activeaudioangle>false</activeaudioangle>
                    <clip id="clip-6"/>
                  </angle>
                  <angle>
                    <activevideoangle>false</activevideoangle>
                    <activeaudioangle>false</activeaudioangle>
                    <clip id="clip-7"/>
                  </angle>
                  <angle>
                    <activevideoangle>false</activevideoangle>
                    <activeaudioangle>false</activeaudioangle>
                    <clip id="clip-8"/>
                  </angle>
                  <angle>
                    <activevideoangle>false</activevideoangle>
                    <activeaudioangle>false</activeaudioangle>
                    <clip id="clip-9"/>
                  </angle>
                  <masterclipid>clip-master</masterclipid>
                </multiclip>
              </clipitem>
              <clipitem id="cs-1119">
                <duration>100</duration>
                <rate>
                  <ntsc>false</ntsc>
                  <timebase>25</timebase>
                </rate>
                <in>100838</in>
                <out>100937</out>
                <start>100838</start>
                <end>100937</end>
                <file id="src-2"/>
                <sourcetrack>
                  <mediatype>video</mediatype>
                  <trackindex>1</trackindex>
                </sourcetrack>
                <multiclip id="mcs-1119">
                  <name>MCS-1119</name>
                  <masterclipid>clip-master</masterclipid>
                  <collapsed>false</collapsed>
                  <angle>
                    <activevideoangle>false</activevideoangle>
                    <activeaudioangle>false</activeaudioangle>
                    <clip id="clip-1"/>
                  </angle>
                  <angle>
                    <activevideoangle>true</activevideoangle>
                    <activeaudioangle>true</activeaudioangle>
                    <clip id="clip-2"/>
                  </angle>
                  <angle>
                    <activevideoangle>false</activevideoangle>
                    <activeaudioangle>false</activeaudioangle>
                    <clip id="clip-3"/>
                  </angle>
                  <angle>
                    <activevideoangle>false</activevideoangle>
                    <activeaudioangle>false</activeaudioangle>
                    <clip id="clip-4"/>
                  </angle>
                  <angle>
                    <activevideoangle>false</activevideoangle>
                    <activeaudioangle>false</activeaudioangle>
                    <clip id="clip-5"/>
                  </angle>
                  <angle>
                    <activevideoangle>false</activevideoangle>
                    <activeaudioangle>false</activeaudioangle>
                    <clip id="clip-6"/>
                  </angle>
                  <angle>
                    <activevideoangle>false</activevideoangle>
                    <activeaudioangle>false</activeaudioangle>
                    <clip id="clip-7"/>
                  </angle>
                  <angle>
                    <activevideoangle>false</activevideoangle>
                    <activeaudioangle>false</activeaudioangle>
                    <clip id="clip-8"/>
                  </angle>
                  <angle>
                    <activevideoangle>false</activevideoangle>
                    <activeaudioangle>false</activeaudioangle>
                    <clip id="clip-9"/>
                  </angle>
                  <masterclipid>clip-master</masterclipid>
                </multiclip>
              </clipitem>
              <clipitem id="cs-1120">
                <duration>102</duration>
                <rate>
                  <ntsc>false</ntsc>
                  <timebase>25</timebase>
                </rate>
                <in>100937</in>
                <out>101038</out>
                <start>100937</start>
                <end>101038</end>
                <file id="src-6"/>
                <sourcetrack>
                  <mediatype>video</mediatype>
                  <trackindex>1</trackindex>
                </sourcetrack>
                <multiclip id="mcs-1120">
                  <name>MCS-1120</name>
                  <masterclipid>clip-master</masterclipid>
                  <collapsed>false</collapsed>
                  <angle>
                    <activevideoangle>false</activevideoangle>
                    <activeaudioangle>false</activeaudioangle>
                    <clip id="clip-1"/>
                  </angle>
                  <angle>
                    <activevideoangle>false</activevideoangle>
                    <activeaudioangle>false</activeaudioangle>
                    <clip id="clip-2"/>
                  </angle>
                  <angle>
                    <activevideoangle>false</activevideoangle>
                    <activeaudioangle>false</activeaudioangle>
                    <clip id="clip-3"/>
                  </angle>
                  <angle>
                    <activevideoangle>false</activevideoangle>
                    <activeaudioangle>false</activeaudioangle>
                    <clip id="clip-4"/>
                  </angle>
                  <angle>
                    <activevideoangle>false</activevideoangle>
                    <activeaudioangle>false</activeaudioangle>
                    <clip id="clip-5"/>
                  </angle>
                  <angle>
                    <activevideoangle>true</activevideoangle>
                    <activeaudioangle>true</activeaudioangle>
                    <clip id="clip-6"/>
                  </angle>
                  <angle>
                    <activevideoangle>false</activevideoangle>
                    <activeaudioangle>false</activeaudioangle>
                    <clip id="clip-7"/>
                  </angle>
                  <angle>
                    <activevideoangle>false</activevideoangle>
                    <activeaudioangle>false</activeaudioangle>
                    <clip id="clip-8"/>
                  </angle>
                  <angle>
                    <activevideoangle>false</activevideoangle>
                    <activeaudioangle>false</activeaudioangle>
                    <clip id="clip-9"/>
                  </angle>
                  <masterclipid>clip-master</masterclipid>
                </multiclip>
              </clipitem>
              <clipitem id="cs-1121">
                <duration>162</duration>
                <rate>
                  <ntsc>false</ntsc>
                  <timebase>25</timebase>
                </rate>
                <in>101038</in>
                <out>101199</out>
                <start>101038</start>
                <end>101199</end>
                <file id="src-3"/>
                <sourcetrack>
                  <mediatype>video</mediatype>
                  <trackindex>1</trackindex>
                </sourcetrack>
                <multiclip id="mcs-1121">
                  <name>MCS-1121</name>
                  <masterclipid>clip-master</masterclipid>
                  <collapsed>false</collapsed>
                  <angle>
                    <activevideoangle>false</activevideoangle>
                    <activeaudioangle>false</activeaudioangle>
                    <clip id="clip-1"/>
                  </angle>
                  <angle>
                    <activevideoangle>false</activevideoangle>
                    <activeaudioangle>false</activeaudioangle>
                    <clip id="clip-2"/>
                  </angle>
                  <angle>
                    <activevideoangle>true</activevideoangle>
                    <activeaudioangle>true</activeaudioangle>
                    <clip id="clip-3"/>
                  </angle>
                  <angle>
                    <activevideoangle>false</activevideoangle>
                    <activeaudioangle>false</activeaudioangle>
                    <clip id="clip-4"/>
                  </angle>
                  <angle>
                    <activevideoangle>false</activevideoangle>
                    <activeaudioangle>false</activeaudioangle>
                    <clip id="clip-5"/>
                  </angle>
                  <angle>
                    <activevideoangle>false</activevideoangle>
                    <activeaudioangle>false</activeaudioangle>
                    <clip id="clip-6"/>
                  </angle>
                  <angle>
                    <activevideoangle>false</activevideoangle>
                    <activeaudioangle>false</activeaudioangle>
                    <clip id="clip-7"/>
                  </angle>
                  <angle>
                    <activevideoangle>false</activevideoangle>
                    <activeaudioangle>false</activeaudioangle>
                    <clip id="clip-8"/>
                  </angle>
                  <angle>
                    <activevideoangle>false</activevideoangle>
                    <activeaudioangle>false</activeaudioangle>
                    <clip id="clip-9"/>
                  </angle>
                  <masterclipid>clip-master</masterclipid>
                </multiclip>
              </clipitem>
              <clipitem id="cs-1122">
                <duration>70</duration>
                <rate>
                  <ntsc>false</ntsc>
                  <timebase>25</timebase>
                </rate>
                <in>101199</in>
                <out>101268</out>
                <start>101199</start>
                <end>101268</end>
                <file id="src-7"/>
                <sourcetrack>
                  <mediatype>video</mediatype>
                  <trackindex>1</trackindex>
                </sourcetrack>
                <multiclip id="mcs-1122">
                  <name>MCS-1122</name>
                  <masterclipid>clip-master</masterclipid>
                  <collapsed>false</collapsed>
                  <angle>
                    <activevideoangle>false</activevideoangle>
                    <activeaudioangle>false</activeaudioangle>
                    <clip id="clip-1"/>
                  </angle>
                  <angle>
                    <activevideoangle>false</activevideoangle>
                    <activeaudioangle>false</activeaudioangle>
                    <clip id="clip-2"/>
                  </angle>
                  <angle>
                    <activevideoangle>false</activevideoangle>
                    <activeaudioangle>false</activeaudioangle>
                    <clip id="clip-3"/>
                  </angle>
                  <angle>
                    <activevideoangle>false</activevideoangle>
                    <activeaudioangle>false</activeaudioangle>
                    <clip id="clip-4"/>
                  </angle>
                  <angle>
                    <activevideoangle>false</activevideoangle>
                    <activeaudioangle>false</activeaudioangle>
                    <clip id="clip-5"/>
                  </angle>
                  <angle>
                    <activevideoangle>false</activevideoangle>
                    <activeaudioangle>false</activeaudioangle>
                    <clip id="clip-6"/>
                  </angle>
                  <angle>
                    <activevideoangle>true</activevideoangle>
                    <activeaudioangle>true</activeaudioangle>
                    <clip id="clip-7"/>
                  </angle>
                  <angle>
                    <activevideoangle>false</activevideoangle>
                    <activeaudioangle>false</activeaudioangle>
                    <clip id="clip-8"/>
                  </angle>
                  <angle>
                    <activevideoangle>false</activevideoangle>
                    <activeaudioangle>false</activeaudioangle>
                    <clip id="clip-9"/>
                  </angle>
                  <masterclipid>clip-master</masterclipid>
                </multiclip>
              </clipitem>
              <clipitem id="cs-1123">
                <duration>85</duration>
                <rate>
                  <ntsc>false</ntsc>
                  <timebase>25</timebase>
                </rate>
                <in>101268</in>
                <out>101352</out>
                <start>101268</start>
                <end>101352</end>
                <file id="src-4"/>
                <sourcetrack>
                  <mediatype>video</mediatype>
                  <trackindex>1</trackindex>
                </sourcetrack>
                <multiclip id="mcs-1123">
                  <name>MCS-1123</name>
                  <masterclipid>clip-master</masterclipid>
                  <collapsed>false</collapsed>
                  <angle>
                    <activevideoangle>false</activevideoangle>
                    <activeaudioangle>false</activeaudioangle>
                    <clip id="clip-1"/>
                  </angle>
                  <angle>
                    <activevideoangle>false</activevideoangle>
                    <activeaudioangle>false</activeaudioangle>
                    <clip id="clip-2"/>
                  </angle>
                  <angle>
                    <activevideoangle>false</activevideoangle>
                    <activeaudioangle>false</activeaudioangle>
                    <clip id="clip-3"/>
                  </angle>
                  <angle>
                    <activevideoangle>true</activevideoangle>
                    <activeaudioangle>true</activeaudioangle>
                    <clip id="clip-4"/>
                  </angle>
                  <angle>
                    <activevideoangle>false</activevideoangle>
                    <activeaudioangle>false</activeaudioangle>
                    <clip id="clip-5"/>
                  </angle>
                  <angle>
                    <activevideoangle>false</activevideoangle>
                    <activeaudioangle>false</activeaudioangle>
                    <clip id="clip-6"/>
                  </angle>
                  <angle>
                    <activevideoangle>false</activevideoangle>
                    <activeaudioangle>false</activeaudioangle>
                    <clip id="clip-7"/>
                  </angle>
                  <angle>
                    <activevideoangle>false</activevideoangle>
                    <activeaudioangle>false</activeaudioangle>
                    <clip id="clip-8"/>
                  </angle>
                  <angle>
                    <activevideoangle>false</activevideoangle>
                    <activeaudioangle>false</activeaudioangle>
                    <clip id="clip-9"/>
                  </angle>
                  <masterclipid>clip-master</masterclipid>
                </multiclip>
              </clipitem>
              <clipitem id="cs-1124">
                <duration>54</duration>
                <rate>
                  <ntsc>false</ntsc>
                  <timebase>25</timebase>
                </rate>
                <in>101352</in>
                <out>101405</out>
                <start>101352</start>
                <end>101405</end>
                <file id="src-3"/>
                <sourcetrack>
                  <mediatype>video</mediatype>
                  <trackindex>1</trackindex>
                </sourcetrack>
                <multiclip id="mcs-1124">
                  <name>MCS-1124</name>
                  <masterclipid>clip-master</masterclipid>
                  <collapsed>false</collapsed>
                  <angle>
                    <activevideoangle>false</activevideoangle>
                    <activeaudioangle>false</activeaudioangle>
                    <clip id="clip-1"/>
                  </angle>
                  <angle>
                    <activevideoangle>false</activevideoangle>
                    <activeaudioangle>false</activeaudioangle>
                    <clip id="clip-2"/>
                  </angle>
                  <angle>
                    <activevideoangle>true</activevideoangle>
                    <activeaudioangle>true</activeaudioangle>
                    <clip id="clip-3"/>
                  </angle>
                  <angle>
                    <activevideoangle>false</activevideoangle>
                    <activeaudioangle>false</activeaudioangle>
                    <clip id="clip-4"/>
                  </angle>
                  <angle>
                    <activevideoangle>false</activevideoangle>
                    <activeaudioangle>false</activeaudioangle>
                    <clip id="clip-5"/>
                  </angle>
                  <angle>
                    <activevideoangle>false</activevideoangle>
                    <activeaudioangle>false</activeaudioangle>
                    <clip id="clip-6"/>
                  </angle>
                  <angle>
                    <activevideoangle>false</activevideoangle>
                    <activeaudioangle>false</activeaudioangle>
                    <clip id="clip-7"/>
                  </angle>
                  <angle>
                    <activevideoangle>false</activevideoangle>
                    <activeaudioangle>false</activeaudioangle>
                    <clip id="clip-8"/>
                  </angle>
                  <angle>
                    <activevideoangle>false</activevideoangle>
                    <activeaudioangle>false</activeaudioangle>
                    <clip id="clip-9"/>
                  </angle>
                  <masterclipid>clip-master</masterclipid>
                </multiclip>
              </clipitem>
              <clipitem id="cs-1125">
                <duration>137</duration>
                <rate>
                  <ntsc>false</ntsc>
                  <timebase>25</timebase>
                </rate>
                <in>101405</in>
                <out>101541</out>
                <start>101405</start>
                <end>101541</end>
                <file id="src-2"/>
                <sourcetrack>
                  <mediatype>video</mediatype>
                  <trackindex>1</trackindex>
                </sourcetrack>
                <multiclip id="mcs-1125">
                  <name>MCS-1125</name>
                  <masterclipid>clip-master</masterclipid>
                  <collapsed>false</collapsed>
                  <angle>
                    <activevideoangle>false</activevideoangle>
                    <activeaudioangle>false</activeaudioangle>
                    <clip id="clip-1"/>
                  </angle>
                  <angle>
                    <activevideoangle>true</activevideoangle>
                    <activeaudioangle>true</activeaudioangle>
                    <clip id="clip-2"/>
                  </angle>
                  <angle>
                    <activevideoangle>false</activevideoangle>
                    <activeaudioangle>false</activeaudioangle>
                    <clip id="clip-3"/>
                  </angle>
                  <angle>
                    <activevideoangle>false</activevideoangle>
                    <activeaudioangle>false</activeaudioangle>
                    <clip id="clip-4"/>
                  </angle>
                  <angle>
                    <activevideoangle>false</activevideoangle>
                    <activeaudioangle>false</activeaudioangle>
                    <clip id="clip-5"/>
                  </angle>
                  <angle>
                    <activevideoangle>false</activevideoangle>
                    <activeaudioangle>false</activeaudioangle>
                    <clip id="clip-6"/>
                  </angle>
                  <angle>
                    <activevideoangle>false</activevideoangle>
                    <activeaudioangle>false</activeaudioangle>
                    <clip id="clip-7"/>
                  </angle>
                  <angle>
                    <activevideoangle>false</activevideoangle>
                    <activeaudioangle>false</activeaudioangle>
                    <clip id="clip-8"/>
                  </angle>
                  <angle>
                    <activevideoangle>false</activevideoangle>
                    <activeaudioangle>false</activeaudioangle>
                    <clip id="clip-9"/>
                  </angle>
                  <masterclipid>clip-master</masterclipid>
                </multiclip>
              </clipitem>
              <clipitem id="cs-1126">
                <duration>97</duration>
                <rate>
                  <ntsc>false</ntsc>
                  <timebase>25</timebase>
                </rate>
                <in>101541</in>
                <out>101637</out>
                <start>101541</start>
                <end>101637</end>
                <file id="src-4"/>
                <sourcetrack>
                  <mediatype>video</mediatype>
                  <trackindex>1</trackindex>
                </sourcetrack>
                <multiclip id="mcs-1126">
                  <name>MCS-1126</name>
                  <masterclipid>clip-master</masterclipid>
                  <collapsed>false</collapsed>
                  <angle>
                    <activevideoangle>false</activevideoangle>
                    <activeaudioangle>false</activeaudioangle>
                    <clip id="clip-1"/>
                  </angle>
                  <angle>
                    <activevideoangle>false</activevideoangle>
                    <activeaudioangle>false</activeaudioangle>
                    <clip id="clip-2"/>
                  </angle>
                  <angle>
                    <activevideoangle>false</activevideoangle>
                    <activeaudioangle>false</activeaudioangle>
                    <clip id="clip-3"/>
                  </angle>
                  <angle>
                    <activevideoangle>true</activevideoangle>
                    <activeaudioangle>true</activeaudioangle>
                    <clip id="clip-4"/>
                  </angle>
                  <angle>
                    <activevideoangle>false</activevideoangle>
                    <activeaudioangle>false</activeaudioangle>
                    <clip id="clip-5"/>
                  </angle>
                  <angle>
                    <activevideoangle>false</activevideoangle>
                    <activeaudioangle>false</activeaudioangle>
                    <clip id="clip-6"/>
                  </angle>
                  <angle>
                    <activevideoangle>false</activevideoangle>
                    <activeaudioangle>false</activeaudioangle>
                    <clip id="clip-7"/>
                  </angle>
                  <angle>
                    <activevideoangle>false</activevideoangle>
                    <activeaudioangle>false</activeaudioangle>
                    <clip id="clip-8"/>
                  </angle>
                  <angle>
                    <activevideoangle>false</activevideoangle>
                    <activeaudioangle>false</activeaudioangle>
                    <clip id="clip-9"/>
                  </angle>
                  <masterclipid>clip-master</masterclipid>
                </multiclip>
              </clipitem>
              <clipitem id="cs-1127">
                <duration>99</duration>
                <rate>
                  <ntsc>false</ntsc>
                  <timebase>25</timebase>
                </rate>
                <in>101637</in>
                <out>101735</out>
                <start>101637</start>
                <end>101735</end>
                <file id="src-1"/>
                <sourcetrack>
                  <mediatype>video</mediatype>
                  <trackindex>1</trackindex>
                </sourcetrack>
                <multiclip id="mcs-1127">
                  <name>MCS-1127</name>
                  <masterclipid>clip-master</masterclipid>
                  <collapsed>false</collapsed>
                  <angle>
                    <activevideoangle>true</activevideoangle>
                    <activeaudioangle>true</activeaudioangle>
                    <clip id="clip-1"/>
                  </angle>
                  <angle>
                    <activevideoangle>false</activevideoangle>
                    <activeaudioangle>false</activeaudioangle>
                    <clip id="clip-2"/>
                  </angle>
                  <angle>
                    <activevideoangle>false</activevideoangle>
                    <activeaudioangle>false</activeaudioangle>
                    <clip id="clip-3"/>
                  </angle>
                  <angle>
                    <activevideoangle>false</activevideoangle>
                    <activeaudioangle>false</activeaudioangle>
                    <clip id="clip-4"/>
                  </angle>
                  <angle>
                    <activevideoangle>false</activevideoangle>
                    <activeaudioangle>false</activeaudioangle>
                    <clip id="clip-5"/>
                  </angle>
                  <angle>
                    <activevideoangle>false</activevideoangle>
                    <activeaudioangle>false</activeaudioangle>
                    <clip id="clip-6"/>
                  </angle>
                  <angle>
                    <activevideoangle>false</activevideoangle>
                    <activeaudioangle>false</activeaudioangle>
                    <clip id="clip-7"/>
                  </angle>
                  <angle>
                    <activevideoangle>false</activevideoangle>
                    <activeaudioangle>false</activeaudioangle>
                    <clip id="clip-8"/>
                  </angle>
                  <angle>
                    <activevideoangle>false</activevideoangle>
                    <activeaudioangle>false</activeaudioangle>
                    <clip id="clip-9"/>
                  </angle>
                  <masterclipid>clip-master</masterclipid>
                </multiclip>
              </clipitem>
              <clipitem id="cs-1128">
                <duration>114</duration>
                <rate>
                  <ntsc>false</ntsc>
                  <timebase>25</timebase>
                </rate>
                <in>101735</in>
                <out>101848</out>
                <start>101735</start>
                <end>101848</end>
                <file id="src-4"/>
                <sourcetrack>
                  <mediatype>video</mediatype>
                  <trackindex>1</trackindex>
                </sourcetrack>
                <multiclip id="mcs-1128">
                  <name>MCS-1128</name>
                  <masterclipid>clip-master</masterclipid>
                  <collapsed>false</collapsed>
                  <angle>
                    <activevideoangle>false</activevideoangle>
                    <activeaudioangle>false</activeaudioangle>
                    <clip id="clip-1"/>
                  </angle>
                  <angle>
                    <activevideoangle>false</activevideoangle>
                    <activeaudioangle>false</activeaudioangle>
                    <clip id="clip-2"/>
                  </angle>
                  <angle>
                    <activevideoangle>false</activevideoangle>
                    <activeaudioangle>false</activeaudioangle>
                    <clip id="clip-3"/>
                  </angle>
                  <angle>
                    <activevideoangle>true</activevideoangle>
                    <activeaudioangle>true</activeaudioangle>
                    <clip id="clip-4"/>
                  </angle>
                  <angle>
                    <activevideoangle>false</activevideoangle>
                    <activeaudioangle>false</activeaudioangle>
                    <clip id="clip-5"/>
                  </angle>
                  <angle>
                    <activevideoangle>false</activevideoangle>
                    <activeaudioangle>false</activeaudioangle>
                    <clip id="clip-6"/>
                  </angle>
                  <angle>
                    <activevideoangle>false</activevideoangle>
                    <activeaudioangle>false</activeaudioangle>
                    <clip id="clip-7"/>
                  </angle>
                  <angle>
                    <activevideoangle>false</activevideoangle>
                    <activeaudioangle>false</activeaudioangle>
                    <clip id="clip-8"/>
                  </angle>
                  <angle>
                    <activevideoangle>false</activevideoangle>
                    <activeaudioangle>false</activeaudioangle>
                    <clip id="clip-9"/>
                  </angle>
                  <masterclipid>clip-master</masterclipid>
                </multiclip>
              </clipitem>
              <clipitem id="cs-1129">
                <duration>156</duration>
                <rate>
                  <ntsc>false</ntsc>
                  <timebase>25</timebase>
                </rate>
                <in>101848</in>
                <out>102003</out>
                <start>101848</start>
                <end>102003</end>
                <file id="src-6"/>
                <sourcetrack>
                  <mediatype>video</mediatype>
                  <trackindex>1</trackindex>
                </sourcetrack>
                <multiclip id="mcs-1129">
                  <name>MCS-1129</name>
                  <masterclipid>clip-master</masterclipid>
                  <collapsed>false</collapsed>
                  <angle>
                    <activevideoangle>false</activevideoangle>
                    <activeaudioangle>false</activeaudioangle>
                    <clip id="clip-1"/>
                  </angle>
                  <angle>
                    <activevideoangle>false</activevideoangle>
                    <activeaudioangle>false</activeaudioangle>
                    <clip id="clip-2"/>
                  </angle>
                  <angle>
                    <activevideoangle>false</activevideoangle>
                    <activeaudioangle>false</activeaudioangle>
                    <clip id="clip-3"/>
                  </angle>
                  <angle>
                    <activevideoangle>false</activevideoangle>
                    <activeaudioangle>false</activeaudioangle>
                    <clip id="clip-4"/>
                  </angle>
                  <angle>
                    <activevideoangle>false</activevideoangle>
                    <activeaudioangle>false</activeaudioangle>
                    <clip id="clip-5"/>
                  </angle>
                  <angle>
                    <activevideoangle>true</activevideoangle>
                    <activeaudioangle>true</activeaudioangle>
                    <clip id="clip-6"/>
                  </angle>
                  <angle>
                    <activevideoangle>false</activevideoangle>
                    <activeaudioangle>false</activeaudioangle>
                    <clip id="clip-7"/>
                  </angle>
                  <angle>
                    <activevideoangle>false</activevideoangle>
                    <activeaudioangle>false</activeaudioangle>
                    <clip id="clip-8"/>
                  </angle>
                  <angle>
                    <activevideoangle>false</activevideoangle>
                    <activeaudioangle>false</activeaudioangle>
                    <clip id="clip-9"/>
                  </angle>
                  <masterclipid>clip-master</masterclipid>
                </multiclip>
              </clipitem>
              <clipitem id="cs-1130">
                <duration>76</duration>
                <rate>
                  <ntsc>false</ntsc>
                  <timebase>25</timebase>
                </rate>
                <in>102003</in>
                <out>102078</out>
                <start>102003</start>
                <end>102078</end>
                <file id="src-2"/>
                <sourcetrack>
                  <mediatype>video</mediatype>
                  <trackindex>1</trackindex>
                </sourcetrack>
                <multiclip id="mcs-1130">
                  <name>MCS-1130</name>
                  <masterclipid>clip-master</masterclipid>
                  <collapsed>false</collapsed>
                  <angle>
                    <activevideoangle>false</activevideoangle>
                    <activeaudioangle>false</activeaudioangle>
                    <clip id="clip-1"/>
                  </angle>
                  <angle>
                    <activevideoangle>true</activevideoangle>
                    <activeaudioangle>true</activeaudioangle>
                    <clip id="clip-2"/>
                  </angle>
                  <angle>
                    <activevideoangle>false</activevideoangle>
                    <activeaudioangle>false</activeaudioangle>
                    <clip id="clip-3"/>
                  </angle>
                  <angle>
                    <activevideoangle>false</activevideoangle>
                    <activeaudioangle>false</activeaudioangle>
                    <clip id="clip-4"/>
                  </angle>
                  <angle>
                    <activevideoangle>false</activevideoangle>
                    <activeaudioangle>false</activeaudioangle>
                    <clip id="clip-5"/>
                  </angle>
                  <angle>
                    <activevideoangle>false</activevideoangle>
                    <activeaudioangle>false</activeaudioangle>
                    <clip id="clip-6"/>
                  </angle>
                  <angle>
                    <activevideoangle>false</activevideoangle>
                    <activeaudioangle>false</activeaudioangle>
                    <clip id="clip-7"/>
                  </angle>
                  <angle>
                    <activevideoangle>false</activevideoangle>
                    <activeaudioangle>false</activeaudioangle>
                    <clip id="clip-8"/>
                  </angle>
                  <angle>
                    <activevideoangle>false</activevideoangle>
                    <activeaudioangle>false</activeaudioangle>
                    <clip id="clip-9"/>
                  </angle>
                  <masterclipid>clip-master</masterclipid>
                </multiclip>
              </clipitem>
              <clipitem id="cs-1131">
                <duration>150</duration>
                <rate>
                  <ntsc>false</ntsc>
                  <timebase>25</timebase>
                </rate>
                <in>102078</in>
                <out>102227</out>
                <start>102078</start>
                <end>102227</end>
                <file id="src-4"/>
                <sourcetrack>
                  <mediatype>video</mediatype>
                  <trackindex>1</trackindex>
                </sourcetrack>
                <multiclip id="mcs-1131">
                  <name>MCS-1131</name>
                  <masterclipid>clip-master</masterclipid>
                  <collapsed>false</collapsed>
                  <angle>
                    <activevideoangle>false</activevideoangle>
                    <activeaudioangle>false</activeaudioangle>
                    <clip id="clip-1"/>
                  </angle>
                  <angle>
                    <activevideoangle>false</activevideoangle>
                    <activeaudioangle>false</activeaudioangle>
                    <clip id="clip-2"/>
                  </angle>
                  <angle>
                    <activevideoangle>false</activevideoangle>
                    <activeaudioangle>false</activeaudioangle>
                    <clip id="clip-3"/>
                  </angle>
                  <angle>
                    <activevideoangle>true</activevideoangle>
                    <activeaudioangle>true</activeaudioangle>
                    <clip id="clip-4"/>
                  </angle>
                  <angle>
                    <activevideoangle>false</activevideoangle>
                    <activeaudioangle>false</activeaudioangle>
                    <clip id="clip-5"/>
                  </angle>
                  <angle>
                    <activevideoangle>false</activevideoangle>
                    <activeaudioangle>false</activeaudioangle>
                    <clip id="clip-6"/>
                  </angle>
                  <angle>
                    <activevideoangle>false</activevideoangle>
                    <activeaudioangle>false</activeaudioangle>
                    <clip id="clip-7"/>
                  </angle>
                  <angle>
                    <activevideoangle>false</activevideoangle>
                    <activeaudioangle>false</activeaudioangle>
                    <clip id="clip-8"/>
                  </angle>
                  <angle>
                    <activevideoangle>false</activevideoangle>
                    <activeaudioangle>false</activeaudioangle>
                    <clip id="clip-9"/>
                  </angle>
                  <masterclipid>clip-master</masterclipid>
                </multiclip>
              </clipitem>
              <clipitem id="cs-1132">
                <duration>195</duration>
                <rate>
                  <ntsc>false</ntsc>
                  <timebase>25</timebase>
                </rate>
                <in>102227</in>
                <out>102421</out>
                <start>102227</start>
                <end>102421</end>
                <file id="src-3"/>
                <sourcetrack>
                  <mediatype>video</mediatype>
                  <trackindex>1</trackindex>
                </sourcetrack>
                <multiclip id="mcs-1132">
                  <name>MCS-1132</name>
                  <masterclipid>clip-master</masterclipid>
                  <collapsed>false</collapsed>
                  <angle>
                    <activevideoangle>false</activevideoangle>
                    <activeaudioangle>false</activeaudioangle>
                    <clip id="clip-1"/>
                  </angle>
                  <angle>
                    <activevideoangle>false</activevideoangle>
                    <activeaudioangle>false</activeaudioangle>
                    <clip id="clip-2"/>
                  </angle>
                  <angle>
                    <activevideoangle>true</activevideoangle>
                    <activeaudioangle>true</activeaudioangle>
                    <clip id="clip-3"/>
                  </angle>
                  <angle>
                    <activevideoangle>false</activevideoangle>
                    <activeaudioangle>false</activeaudioangle>
                    <clip id="clip-4"/>
                  </angle>
                  <angle>
                    <activevideoangle>false</activevideoangle>
                    <activeaudioangle>false</activeaudioangle>
                    <clip id="clip-5"/>
                  </angle>
                  <angle>
                    <activevideoangle>false</activevideoangle>
                    <activeaudioangle>false</activeaudioangle>
                    <clip id="clip-6"/>
                  </angle>
                  <angle>
                    <activevideoangle>false</activevideoangle>
                    <activeaudioangle>false</activeaudioangle>
                    <clip id="clip-7"/>
                  </angle>
                  <angle>
                    <activevideoangle>false</activevideoangle>
                    <activeaudioangle>false</activeaudioangle>
                    <clip id="clip-8"/>
                  </angle>
                  <angle>
                    <activevideoangle>false</activevideoangle>
                    <activeaudioangle>false</activeaudioangle>
                    <clip id="clip-9"/>
                  </angle>
                  <masterclipid>clip-master</masterclipid>
                </multiclip>
              </clipitem>
              <clipitem id="cs-1133">
                <duration>107</duration>
                <rate>
                  <ntsc>false</ntsc>
                  <timebase>25</timebase>
                </rate>
                <in>102421</in>
                <out>102527</out>
                <start>102421</start>
                <end>102527</end>
                <file id="src-2"/>
                <sourcetrack>
                  <mediatype>video</mediatype>
                  <trackindex>1</trackindex>
                </sourcetrack>
                <multiclip id="mcs-1133">
                  <name>MCS-1133</name>
                  <masterclipid>clip-master</masterclipid>
                  <collapsed>false</collapsed>
                  <angle>
                    <activevideoangle>false</activevideoangle>
                    <activeaudioangle>false</activeaudioangle>
                    <clip id="clip-1"/>
                  </angle>
                  <angle>
                    <activevideoangle>true</activevideoangle>
                    <activeaudioangle>true</activeaudioangle>
                    <clip id="clip-2"/>
                  </angle>
                  <angle>
                    <activevideoangle>false</activevideoangle>
                    <activeaudioangle>false</activeaudioangle>
                    <clip id="clip-3"/>
                  </angle>
                  <angle>
                    <activevideoangle>false</activevideoangle>
                    <activeaudioangle>false</activeaudioangle>
                    <clip id="clip-4"/>
                  </angle>
                  <angle>
                    <activevideoangle>false</activevideoangle>
                    <activeaudioangle>false</activeaudioangle>
                    <clip id="clip-5"/>
                  </angle>
                  <angle>
                    <activevideoangle>false</activevideoangle>
                    <activeaudioangle>false</activeaudioangle>
                    <clip id="clip-6"/>
                  </angle>
                  <angle>
                    <activevideoangle>false</activevideoangle>
                    <activeaudioangle>false</activeaudioangle>
                    <clip id="clip-7"/>
                  </angle>
                  <angle>
                    <activevideoangle>false</activevideoangle>
                    <activeaudioangle>false</activeaudioangle>
                    <clip id="clip-8"/>
                  </angle>
                  <angle>
                    <activevideoangle>false</activevideoangle>
                    <activeaudioangle>false</activeaudioangle>
                    <clip id="clip-9"/>
                  </angle>
                  <masterclipid>clip-master</masterclipid>
                </multiclip>
              </clipitem>
              <clipitem id="cs-1134">
                <duration>128</duration>
                <rate>
                  <ntsc>false</ntsc>
                  <timebase>25</timebase>
                </rate>
                <in>102527</in>
                <out>102654</out>
                <start>102527</start>
                <end>102654</end>
                <file id="src-4"/>
                <sourcetrack>
                  <mediatype>video</mediatype>
                  <trackindex>1</trackindex>
                </sourcetrack>
                <multiclip id="mcs-1134">
                  <name>MCS-1134</name>
                  <masterclipid>clip-master</masterclipid>
                  <collapsed>false</collapsed>
                  <angle>
                    <activevideoangle>false</activevideoangle>
                    <activeaudioangle>false</activeaudioangle>
                    <clip id="clip-1"/>
                  </angle>
                  <angle>
                    <activevideoangle>false</activevideoangle>
                    <activeaudioangle>false</activeaudioangle>
                    <clip id="clip-2"/>
                  </angle>
                  <angle>
                    <activevideoangle>false</activevideoangle>
                    <activeaudioangle>false</activeaudioangle>
                    <clip id="clip-3"/>
                  </angle>
                  <angle>
                    <activevideoangle>true</activevideoangle>
                    <activeaudioangle>true</activeaudioangle>
                    <clip id="clip-4"/>
                  </angle>
                  <angle>
                    <activevideoangle>false</activevideoangle>
                    <activeaudioangle>false</activeaudioangle>
                    <clip id="clip-5"/>
                  </angle>
                  <angle>
                    <activevideoangle>false</activevideoangle>
                    <activeaudioangle>false</activeaudioangle>
                    <clip id="clip-6"/>
                  </angle>
                  <angle>
                    <activevideoangle>false</activevideoangle>
                    <activeaudioangle>false</activeaudioangle>
                    <clip id="clip-7"/>
                  </angle>
                  <angle>
                    <activevideoangle>false</activevideoangle>
                    <activeaudioangle>false</activeaudioangle>
                    <clip id="clip-8"/>
                  </angle>
                  <angle>
                    <activevideoangle>false</activevideoangle>
                    <activeaudioangle>false</activeaudioangle>
                    <clip id="clip-9"/>
                  </angle>
                  <masterclipid>clip-master</masterclipid>
                </multiclip>
              </clipitem>
              <clipitem id="cs-1135">
                <duration>69</duration>
                <rate>
                  <ntsc>false</ntsc>
                  <timebase>25</timebase>
                </rate>
                <in>102654</in>
                <out>102722</out>
                <start>102654</start>
                <end>102722</end>
                <file id="src-3"/>
                <sourcetrack>
                  <mediatype>video</mediatype>
                  <trackindex>1</trackindex>
                </sourcetrack>
                <multiclip id="mcs-1135">
                  <name>MCS-1135</name>
                  <masterclipid>clip-master</masterclipid>
                  <collapsed>false</collapsed>
                  <angle>
                    <activevideoangle>false</activevideoangle>
                    <activeaudioangle>false</activeaudioangle>
                    <clip id="clip-1"/>
                  </angle>
                  <angle>
                    <activevideoangle>false</activevideoangle>
                    <activeaudioangle>false</activeaudioangle>
                    <clip id="clip-2"/>
                  </angle>
                  <angle>
                    <activevideoangle>true</activevideoangle>
                    <activeaudioangle>true</activeaudioangle>
                    <clip id="clip-3"/>
                  </angle>
                  <angle>
                    <activevideoangle>false</activevideoangle>
                    <activeaudioangle>false</activeaudioangle>
                    <clip id="clip-4"/>
                  </angle>
                  <angle>
                    <activevideoangle>false</activevideoangle>
                    <activeaudioangle>false</activeaudioangle>
                    <clip id="clip-5"/>
                  </angle>
                  <angle>
                    <activevideoangle>false</activevideoangle>
                    <activeaudioangle>false</activeaudioangle>
                    <clip id="clip-6"/>
                  </angle>
                  <angle>
                    <activevideoangle>false</activevideoangle>
                    <activeaudioangle>false</activeaudioangle>
                    <clip id="clip-7"/>
                  </angle>
                  <angle>
                    <activevideoangle>false</activevideoangle>
                    <activeaudioangle>false</activeaudioangle>
                    <clip id="clip-8"/>
                  </angle>
                  <angle>
                    <activevideoangle>false</activevideoangle>
                    <activeaudioangle>false</activeaudioangle>
                    <clip id="clip-9"/>
                  </angle>
                  <masterclipid>clip-master</masterclipid>
                </multiclip>
              </clipitem>
              <clipitem id="cs-1136">
                <duration>61</duration>
                <rate>
                  <ntsc>false</ntsc>
                  <timebase>25</timebase>
                </rate>
                <in>102722</in>
                <out>102782</out>
                <start>102722</start>
                <end>102782</end>
                <file id="src-6"/>
                <sourcetrack>
                  <mediatype>video</mediatype>
                  <trackindex>1</trackindex>
                </sourcetrack>
                <multiclip id="mcs-1136">
                  <name>MCS-1136</name>
                  <masterclipid>clip-master</masterclipid>
                  <collapsed>false</collapsed>
                  <angle>
                    <activevideoangle>false</activevideoangle>
                    <activeaudioangle>false</activeaudioangle>
                    <clip id="clip-1"/>
                  </angle>
                  <angle>
                    <activevideoangle>false</activevideoangle>
                    <activeaudioangle>false</activeaudioangle>
                    <clip id="clip-2"/>
                  </angle>
                  <angle>
                    <activevideoangle>false</activevideoangle>
                    <activeaudioangle>false</activeaudioangle>
                    <clip id="clip-3"/>
                  </angle>
                  <angle>
                    <activevideoangle>false</activevideoangle>
                    <activeaudioangle>false</activeaudioangle>
                    <clip id="clip-4"/>
                  </angle>
                  <angle>
                    <activevideoangle>false</activevideoangle>
                    <activeaudioangle>false</activeaudioangle>
                    <clip id="clip-5"/>
                  </angle>
                  <angle>
                    <activevideoangle>true</activevideoangle>
                    <activeaudioangle>true</activeaudioangle>
                    <clip id="clip-6"/>
                  </angle>
                  <angle>
                    <activevideoangle>false</activevideoangle>
                    <activeaudioangle>false</activeaudioangle>
                    <clip id="clip-7"/>
                  </angle>
                  <angle>
                    <activevideoangle>false</activevideoangle>
                    <activeaudioangle>false</activeaudioangle>
                    <clip id="clip-8"/>
                  </angle>
                  <angle>
                    <activevideoangle>false</activevideoangle>
                    <activeaudioangle>false</activeaudioangle>
                    <clip id="clip-9"/>
                  </angle>
                  <masterclipid>clip-master</masterclipid>
                </multiclip>
              </clipitem>
              <clipitem id="cs-1137">
                <duration>195</duration>
                <rate>
                  <ntsc>false</ntsc>
                  <timebase>25</timebase>
                </rate>
                <in>102782</in>
                <out>102976</out>
                <start>102782</start>
                <end>102976</end>
                <file id="src-3"/>
                <sourcetrack>
                  <mediatype>video</mediatype>
                  <trackindex>1</trackindex>
                </sourcetrack>
                <multiclip id="mcs-1137">
                  <name>MCS-1137</name>
                  <masterclipid>clip-master</masterclipid>
                  <collapsed>false</collapsed>
                  <angle>
                    <activevideoangle>false</activevideoangle>
                    <activeaudioangle>false</activeaudioangle>
                    <clip id="clip-1"/>
                  </angle>
                  <angle>
                    <activevideoangle>false</activevideoangle>
                    <activeaudioangle>false</activeaudioangle>
                    <clip id="clip-2"/>
                  </angle>
                  <angle>
                    <activevideoangle>true</activevideoangle>
                    <activeaudioangle>true</activeaudioangle>
                    <clip id="clip-3"/>
                  </angle>
                  <angle>
                    <activevideoangle>false</activevideoangle>
                    <activeaudioangle>false</activeaudioangle>
                    <clip id="clip-4"/>
                  </angle>
                  <angle>
                    <activevideoangle>false</activevideoangle>
                    <activeaudioangle>false</activeaudioangle>
                    <clip id="clip-5"/>
                  </angle>
                  <angle>
                    <activevideoangle>false</activevideoangle>
                    <activeaudioangle>false</activeaudioangle>
                    <clip id="clip-6"/>
                  </angle>
                  <angle>
                    <activevideoangle>false</activevideoangle>
                    <activeaudioangle>false</activeaudioangle>
                    <clip id="clip-7"/>
                  </angle>
                  <angle>
                    <activevideoangle>false</activevideoangle>
                    <activeaudioangle>false</activeaudioangle>
                    <clip id="clip-8"/>
                  </angle>
                  <angle>
                    <activevideoangle>false</activevideoangle>
                    <activeaudioangle>false</activeaudioangle>
                    <clip id="clip-9"/>
                  </angle>
                  <masterclipid>clip-master</masterclipid>
                </multiclip>
              </clipitem>
              <clipitem id="cs-1138">
                <duration>98</duration>
                <rate>
                  <ntsc>false</ntsc>
                  <timebase>25</timebase>
                </rate>
                <in>102976</in>
                <out>103073</out>
                <start>102976</start>
                <end>103073</end>
                <file id="src-4"/>
                <sourcetrack>
                  <mediatype>video</mediatype>
                  <trackindex>1</trackindex>
                </sourcetrack>
                <multiclip id="mcs-1138">
                  <name>MCS-1138</name>
                  <masterclipid>clip-master</masterclipid>
                  <collapsed>false</collapsed>
                  <angle>
                    <activevideoangle>false</activevideoangle>
                    <activeaudioangle>false</activeaudioangle>
                    <clip id="clip-1"/>
                  </angle>
                  <angle>
                    <activevideoangle>false</activevideoangle>
                    <activeaudioangle>false</activeaudioangle>
                    <clip id="clip-2"/>
                  </angle>
                  <angle>
                    <activevideoangle>false</activevideoangle>
                    <activeaudioangle>false</activeaudioangle>
                    <clip id="clip-3"/>
                  </angle>
                  <angle>
                    <activevideoangle>true</activevideoangle>
                    <activeaudioangle>true</activeaudioangle>
                    <clip id="clip-4"/>
                  </angle>
                  <angle>
                    <activevideoangle>false</activevideoangle>
                    <activeaudioangle>false</activeaudioangle>
                    <clip id="clip-5"/>
                  </angle>
                  <angle>
                    <activevideoangle>false</activevideoangle>
                    <activeaudioangle>false</activeaudioangle>
                    <clip id="clip-6"/>
                  </angle>
                  <angle>
                    <activevideoangle>false</activevideoangle>
                    <activeaudioangle>false</activeaudioangle>
                    <clip id="clip-7"/>
                  </angle>
                  <angle>
                    <activevideoangle>false</activevideoangle>
                    <activeaudioangle>false</activeaudioangle>
                    <clip id="clip-8"/>
                  </angle>
                  <angle>
                    <activevideoangle>false</activevideoangle>
                    <activeaudioangle>false</activeaudioangle>
                    <clip id="clip-9"/>
                  </angle>
                  <masterclipid>clip-master</masterclipid>
                </multiclip>
              </clipitem>
              <clipitem id="cs-1139">
                <duration>38</duration>
                <rate>
                  <ntsc>false</ntsc>
                  <timebase>25</timebase>
                </rate>
                <in>103073</in>
                <out>103110</out>
                <start>103073</start>
                <end>103110</end>
                <file id="src-6"/>
                <sourcetrack>
                  <mediatype>video</mediatype>
                  <trackindex>1</trackindex>
                </sourcetrack>
                <multiclip id="mcs-1139">
                  <name>MCS-1139</name>
                  <masterclipid>clip-master</masterclipid>
                  <collapsed>false</collapsed>
                  <angle>
                    <activevideoangle>false</activevideoangle>
                    <activeaudioangle>false</activeaudioangle>
                    <clip id="clip-1"/>
                  </angle>
                  <angle>
                    <activevideoangle>false</activevideoangle>
                    <activeaudioangle>false</activeaudioangle>
                    <clip id="clip-2"/>
                  </angle>
                  <angle>
                    <activevideoangle>false</activevideoangle>
                    <activeaudioangle>false</activeaudioangle>
                    <clip id="clip-3"/>
                  </angle>
                  <angle>
                    <activevideoangle>false</activevideoangle>
                    <activeaudioangle>false</activeaudioangle>
                    <clip id="clip-4"/>
                  </angle>
                  <angle>
                    <activevideoangle>false</activevideoangle>
                    <activeaudioangle>false</activeaudioangle>
                    <clip id="clip-5"/>
                  </angle>
                  <angle>
                    <activevideoangle>true</activevideoangle>
                    <activeaudioangle>true</activeaudioangle>
                    <clip id="clip-6"/>
                  </angle>
                  <angle>
                    <activevideoangle>false</activevideoangle>
                    <activeaudioangle>false</activeaudioangle>
                    <clip id="clip-7"/>
                  </angle>
                  <angle>
                    <activevideoangle>false</activevideoangle>
                    <activeaudioangle>false</activeaudioangle>
                    <clip id="clip-8"/>
                  </angle>
                  <angle>
                    <activevideoangle>false</activevideoangle>
                    <activeaudioangle>false</activeaudioangle>
                    <clip id="clip-9"/>
                  </angle>
                  <masterclipid>clip-master</masterclipid>
                </multiclip>
              </clipitem>
              <clipitem id="cs-1140">
                <duration>49</duration>
                <rate>
                  <ntsc>false</ntsc>
                  <timebase>25</timebase>
                </rate>
                <in>103110</in>
                <out>103158</out>
                <start>103110</start>
                <end>103158</end>
                <file id="src-7"/>
                <sourcetrack>
                  <mediatype>video</mediatype>
                  <trackindex>1</trackindex>
                </sourcetrack>
                <multiclip id="mcs-1140">
                  <name>MCS-1140</name>
                  <masterclipid>clip-master</masterclipid>
                  <collapsed>false</collapsed>
                  <angle>
                    <activevideoangle>false</activevideoangle>
                    <activeaudioangle>false</activeaudioangle>
                    <clip id="clip-1"/>
                  </angle>
                  <angle>
                    <activevideoangle>false</activevideoangle>
                    <activeaudioangle>false</activeaudioangle>
                    <clip id="clip-2"/>
                  </angle>
                  <angle>
                    <activevideoangle>false</activevideoangle>
                    <activeaudioangle>false</activeaudioangle>
                    <clip id="clip-3"/>
                  </angle>
                  <angle>
                    <activevideoangle>false</activevideoangle>
                    <activeaudioangle>false</activeaudioangle>
                    <clip id="clip-4"/>
                  </angle>
                  <angle>
                    <activevideoangle>false</activevideoangle>
                    <activeaudioangle>false</activeaudioangle>
                    <clip id="clip-5"/>
                  </angle>
                  <angle>
                    <activevideoangle>false</activevideoangle>
                    <activeaudioangle>false</activeaudioangle>
                    <clip id="clip-6"/>
                  </angle>
                  <angle>
                    <activevideoangle>true</activevideoangle>
                    <activeaudioangle>true</activeaudioangle>
                    <clip id="clip-7"/>
                  </angle>
                  <angle>
                    <activevideoangle>false</activevideoangle>
                    <activeaudioangle>false</activeaudioangle>
                    <clip id="clip-8"/>
                  </angle>
                  <angle>
                    <activevideoangle>false</activevideoangle>
                    <activeaudioangle>false</activeaudioangle>
                    <clip id="clip-9"/>
                  </angle>
                  <masterclipid>clip-master</masterclipid>
                </multiclip>
              </clipitem>
              <clipitem id="cs-1141">
                <duration>94</duration>
                <rate>
                  <ntsc>false</ntsc>
                  <timebase>25</timebase>
                </rate>
                <in>103158</in>
                <out>103251</out>
                <start>103158</start>
                <end>103251</end>
                <file id="src-3"/>
                <sourcetrack>
                  <mediatype>video</mediatype>
                  <trackindex>1</trackindex>
                </sourcetrack>
                <multiclip id="mcs-1141">
                  <name>MCS-1141</name>
                  <masterclipid>clip-master</masterclipid>
                  <collapsed>false</collapsed>
                  <angle>
                    <activevideoangle>false</activevideoangle>
                    <activeaudioangle>false</activeaudioangle>
                    <clip id="clip-1"/>
                  </angle>
                  <angle>
                    <activevideoangle>false</activevideoangle>
                    <activeaudioangle>false</activeaudioangle>
                    <clip id="clip-2"/>
                  </angle>
                  <angle>
                    <activevideoangle>true</activevideoangle>
                    <activeaudioangle>true</activeaudioangle>
                    <clip id="clip-3"/>
                  </angle>
                  <angle>
                    <activevideoangle>false</activevideoangle>
                    <activeaudioangle>false</activeaudioangle>
                    <clip id="clip-4"/>
                  </angle>
                  <angle>
                    <activevideoangle>false</activevideoangle>
                    <activeaudioangle>false</activeaudioangle>
                    <clip id="clip-5"/>
                  </angle>
                  <angle>
                    <activevideoangle>false</activevideoangle>
                    <activeaudioangle>false</activeaudioangle>
                    <clip id="clip-6"/>
                  </angle>
                  <angle>
                    <activevideoangle>false</activevideoangle>
                    <activeaudioangle>false</activeaudioangle>
                    <clip id="clip-7"/>
                  </angle>
                  <angle>
                    <activevideoangle>false</activevideoangle>
                    <activeaudioangle>false</activeaudioangle>
                    <clip id="clip-8"/>
                  </angle>
                  <angle>
                    <activevideoangle>false</activevideoangle>
                    <activeaudioangle>false</activeaudioangle>
                    <clip id="clip-9"/>
                  </angle>
                  <masterclipid>clip-master</masterclipid>
                </multiclip>
              </clipitem>
              <clipitem id="cs-1142">
                <duration>103</duration>
                <rate>
                  <ntsc>false</ntsc>
                  <timebase>25</timebase>
                </rate>
                <in>103251</in>
                <out>103353</out>
                <start>103251</start>
                <end>103353</end>
                <file id="src-2"/>
                <sourcetrack>
                  <mediatype>video</mediatype>
                  <trackindex>1</trackindex>
                </sourcetrack>
                <multiclip id="mcs-1142">
                  <name>MCS-1142</name>
                  <masterclipid>clip-master</masterclipid>
                  <collapsed>false</collapsed>
                  <angle>
                    <activevideoangle>false</activevideoangle>
                    <activeaudioangle>false</activeaudioangle>
                    <clip id="clip-1"/>
                  </angle>
                  <angle>
                    <activevideoangle>true</activevideoangle>
                    <activeaudioangle>true</activeaudioangle>
                    <clip id="clip-2"/>
                  </angle>
                  <angle>
                    <activevideoangle>false</activevideoangle>
                    <activeaudioangle>false</activeaudioangle>
                    <clip id="clip-3"/>
                  </angle>
                  <angle>
                    <activevideoangle>false</activevideoangle>
                    <activeaudioangle>false</activeaudioangle>
                    <clip id="clip-4"/>
                  </angle>
                  <angle>
                    <activevideoangle>false</activevideoangle>
                    <activeaudioangle>false</activeaudioangle>
                    <clip id="clip-5"/>
                  </angle>
                  <angle>
                    <activevideoangle>false</activevideoangle>
                    <activeaudioangle>false</activeaudioangle>
                    <clip id="clip-6"/>
                  </angle>
                  <angle>
                    <activevideoangle>false</activevideoangle>
                    <activeaudioangle>false</activeaudioangle>
                    <clip id="clip-7"/>
                  </angle>
                  <angle>
                    <activevideoangle>false</activevideoangle>
                    <activeaudioangle>false</activeaudioangle>
                    <clip id="clip-8"/>
                  </angle>
                  <angle>
                    <activevideoangle>false</activevideoangle>
                    <activeaudioangle>false</activeaudioangle>
                    <clip id="clip-9"/>
                  </angle>
                  <masterclipid>clip-master</masterclipid>
                </multiclip>
              </clipitem>
              <clipitem id="cs-1143">
                <duration>65</duration>
                <rate>
                  <ntsc>false</ntsc>
                  <timebase>25</timebase>
                </rate>
                <in>103353</in>
                <out>103417</out>
                <start>103353</start>
                <end>103417</end>
                <file id="src-4"/>
                <sourcetrack>
                  <mediatype>video</mediatype>
                  <trackindex>1</trackindex>
                </sourcetrack>
                <multiclip id="mcs-1143">
                  <name>MCS-1143</name>
                  <masterclipid>clip-master</masterclipid>
                  <collapsed>false</collapsed>
                  <angle>
                    <activevideoangle>false</activevideoangle>
                    <activeaudioangle>false</activeaudioangle>
                    <clip id="clip-1"/>
                  </angle>
                  <angle>
                    <activevideoangle>false</activevideoangle>
                    <activeaudioangle>false</activeaudioangle>
                    <clip id="clip-2"/>
                  </angle>
                  <angle>
                    <activevideoangle>false</activevideoangle>
                    <activeaudioangle>false</activeaudioangle>
                    <clip id="clip-3"/>
                  </angle>
                  <angle>
                    <activevideoangle>true</activevideoangle>
                    <activeaudioangle>true</activeaudioangle>
                    <clip id="clip-4"/>
                  </angle>
                  <angle>
                    <activevideoangle>false</activevideoangle>
                    <activeaudioangle>false</activeaudioangle>
                    <clip id="clip-5"/>
                  </angle>
                  <angle>
                    <activevideoangle>false</activevideoangle>
                    <activeaudioangle>false</activeaudioangle>
                    <clip id="clip-6"/>
                  </angle>
                  <angle>
                    <activevideoangle>false</activevideoangle>
                    <activeaudioangle>false</activeaudioangle>
                    <clip id="clip-7"/>
                  </angle>
                  <angle>
                    <activevideoangle>false</activevideoangle>
                    <activeaudioangle>false</activeaudioangle>
                    <clip id="clip-8"/>
                  </angle>
                  <angle>
                    <activevideoangle>false</activevideoangle>
                    <activeaudioangle>false</activeaudioangle>
                    <clip id="clip-9"/>
                  </angle>
                  <masterclipid>clip-master</masterclipid>
                </multiclip>
              </clipitem>
              <clipitem id="cs-1144">
                <duration>66</duration>
                <rate>
                  <ntsc>false</ntsc>
                  <timebase>25</timebase>
                </rate>
                <in>103417</in>
                <out>103482</out>
                <start>103417</start>
                <end>103482</end>
                <file id="src-6"/>
                <sourcetrack>
                  <mediatype>video</mediatype>
                  <trackindex>1</trackindex>
                </sourcetrack>
                <multiclip id="mcs-1144">
                  <name>MCS-1144</name>
                  <masterclipid>clip-master</masterclipid>
                  <collapsed>false</collapsed>
                  <angle>
                    <activevideoangle>false</activevideoangle>
                    <activeaudioangle>false</activeaudioangle>
                    <clip id="clip-1"/>
                  </angle>
                  <angle>
                    <activevideoangle>false</activevideoangle>
                    <activeaudioangle>false</activeaudioangle>
                    <clip id="clip-2"/>
                  </angle>
                  <angle>
                    <activevideoangle>false</activevideoangle>
                    <activeaudioangle>false</activeaudioangle>
                    <clip id="clip-3"/>
                  </angle>
                  <angle>
                    <activevideoangle>false</activevideoangle>
                    <activeaudioangle>false</activeaudioangle>
                    <clip id="clip-4"/>
                  </angle>
                  <angle>
                    <activevideoangle>false</activevideoangle>
                    <activeaudioangle>false</activeaudioangle>
                    <clip id="clip-5"/>
                  </angle>
                  <angle>
                    <activevideoangle>true</activevideoangle>
                    <activeaudioangle>true</activeaudioangle>
                    <clip id="clip-6"/>
                  </angle>
                  <angle>
                    <activevideoangle>false</activevideoangle>
                    <activeaudioangle>false</activeaudioangle>
                    <clip id="clip-7"/>
                  </angle>
                  <angle>
                    <activevideoangle>false</activevideoangle>
                    <activeaudioangle>false</activeaudioangle>
                    <clip id="clip-8"/>
                  </angle>
                  <angle>
                    <activevideoangle>false</activevideoangle>
                    <activeaudioangle>false</activeaudioangle>
                    <clip id="clip-9"/>
                  </angle>
                  <masterclipid>clip-master</masterclipid>
                </multiclip>
              </clipitem>
              <clipitem id="cs-1145">
                <duration>73</duration>
                <rate>
                  <ntsc>false</ntsc>
                  <timebase>25</timebase>
                </rate>
                <in>103482</in>
                <out>103554</out>
                <start>103482</start>
                <end>103554</end>
                <file id="src-4"/>
                <sourcetrack>
                  <mediatype>video</mediatype>
                  <trackindex>1</trackindex>
                </sourcetrack>
                <multiclip id="mcs-1145">
                  <name>MCS-1145</name>
                  <masterclipid>clip-master</masterclipid>
                  <collapsed>false</collapsed>
                  <angle>
                    <activevideoangle>false</activevideoangle>
                    <activeaudioangle>false</activeaudioangle>
                    <clip id="clip-1"/>
                  </angle>
                  <angle>
                    <activevideoangle>false</activevideoangle>
                    <activeaudioangle>false</activeaudioangle>
                    <clip id="clip-2"/>
                  </angle>
                  <angle>
                    <activevideoangle>false</activevideoangle>
                    <activeaudioangle>false</activeaudioangle>
                    <clip id="clip-3"/>
                  </angle>
                  <angle>
                    <activevideoangle>true</activevideoangle>
                    <activeaudioangle>true</activeaudioangle>
                    <clip id="clip-4"/>
                  </angle>
                  <angle>
                    <activevideoangle>false</activevideoangle>
                    <activeaudioangle>false</activeaudioangle>
                    <clip id="clip-5"/>
                  </angle>
                  <angle>
                    <activevideoangle>false</activevideoangle>
                    <activeaudioangle>false</activeaudioangle>
                    <clip id="clip-6"/>
                  </angle>
                  <angle>
                    <activevideoangle>false</activevideoangle>
                    <activeaudioangle>false</activeaudioangle>
                    <clip id="clip-7"/>
                  </angle>
                  <angle>
                    <activevideoangle>false</activevideoangle>
                    <activeaudioangle>false</activeaudioangle>
                    <clip id="clip-8"/>
                  </angle>
                  <angle>
                    <activevideoangle>false</activevideoangle>
                    <activeaudioangle>false</activeaudioangle>
                    <clip id="clip-9"/>
                  </angle>
                  <masterclipid>clip-master</masterclipid>
                </multiclip>
              </clipitem>
              <clipitem id="cs-1146">
                <duration>95</duration>
                <rate>
                  <ntsc>false</ntsc>
                  <timebase>25</timebase>
                </rate>
                <in>103554</in>
                <out>103648</out>
                <start>103554</start>
                <end>103648</end>
                <file id="src-2"/>
                <sourcetrack>
                  <mediatype>video</mediatype>
                  <trackindex>1</trackindex>
                </sourcetrack>
                <multiclip id="mcs-1146">
                  <name>MCS-1146</name>
                  <masterclipid>clip-master</masterclipid>
                  <collapsed>false</collapsed>
                  <angle>
                    <activevideoangle>false</activevideoangle>
                    <activeaudioangle>false</activeaudioangle>
                    <clip id="clip-1"/>
                  </angle>
                  <angle>
                    <activevideoangle>true</activevideoangle>
                    <activeaudioangle>true</activeaudioangle>
                    <clip id="clip-2"/>
                  </angle>
                  <angle>
                    <activevideoangle>false</activevideoangle>
                    <activeaudioangle>false</activeaudioangle>
                    <clip id="clip-3"/>
                  </angle>
                  <angle>
                    <activevideoangle>false</activevideoangle>
                    <activeaudioangle>false</activeaudioangle>
                    <clip id="clip-4"/>
                  </angle>
                  <angle>
                    <activevideoangle>false</activevideoangle>
                    <activeaudioangle>false</activeaudioangle>
                    <clip id="clip-5"/>
                  </angle>
                  <angle>
                    <activevideoangle>false</activevideoangle>
                    <activeaudioangle>false</activeaudioangle>
                    <clip id="clip-6"/>
                  </angle>
                  <angle>
                    <activevideoangle>false</activevideoangle>
                    <activeaudioangle>false</activeaudioangle>
                    <clip id="clip-7"/>
                  </angle>
                  <angle>
                    <activevideoangle>false</activevideoangle>
                    <activeaudioangle>false</activeaudioangle>
                    <clip id="clip-8"/>
                  </angle>
                  <angle>
                    <activevideoangle>false</activevideoangle>
                    <activeaudioangle>false</activeaudioangle>
                    <clip id="clip-9"/>
                  </angle>
                  <masterclipid>clip-master</masterclipid>
                </multiclip>
              </clipitem>
              <clipitem id="cs-1147">
                <duration>60</duration>
                <rate>
                  <ntsc>false</ntsc>
                  <timebase>25</timebase>
                </rate>
                <in>103648</in>
                <out>103707</out>
                <start>103648</start>
                <end>103707</end>
                <file id="src-7"/>
                <sourcetrack>
                  <mediatype>video</mediatype>
                  <trackindex>1</trackindex>
                </sourcetrack>
                <multiclip id="mcs-1147">
                  <name>MCS-1147</name>
                  <masterclipid>clip-master</masterclipid>
                  <collapsed>false</collapsed>
                  <angle>
                    <activevideoangle>false</activevideoangle>
                    <activeaudioangle>false</activeaudioangle>
                    <clip id="clip-1"/>
                  </angle>
                  <angle>
                    <activevideoangle>false</activevideoangle>
                    <activeaudioangle>false</activeaudioangle>
                    <clip id="clip-2"/>
                  </angle>
                  <angle>
                    <activevideoangle>false</activevideoangle>
                    <activeaudioangle>false</activeaudioangle>
                    <clip id="clip-3"/>
                  </angle>
                  <angle>
                    <activevideoangle>false</activevideoangle>
                    <activeaudioangle>false</activeaudioangle>
                    <clip id="clip-4"/>
                  </angle>
                  <angle>
                    <activevideoangle>false</activevideoangle>
                    <activeaudioangle>false</activeaudioangle>
                    <clip id="clip-5"/>
                  </angle>
                  <angle>
                    <activevideoangle>false</activevideoangle>
                    <activeaudioangle>false</activeaudioangle>
                    <clip id="clip-6"/>
                  </angle>
                  <angle>
                    <activevideoangle>true</activevideoangle>
                    <activeaudioangle>true</activeaudioangle>
                    <clip id="clip-7"/>
                  </angle>
                  <angle>
                    <activevideoangle>false</activevideoangle>
                    <activeaudioangle>false</activeaudioangle>
                    <clip id="clip-8"/>
                  </angle>
                  <angle>
                    <activevideoangle>false</activevideoangle>
                    <activeaudioangle>false</activeaudioangle>
                    <clip id="clip-9"/>
                  </angle>
                  <masterclipid>clip-master</masterclipid>
                </multiclip>
              </clipitem>
              <clipitem id="cs-1148">
                <duration>139</duration>
                <rate>
                  <ntsc>false</ntsc>
                  <timebase>25</timebase>
                </rate>
                <in>103707</in>
                <out>103845</out>
                <start>103707</start>
                <end>103845</end>
                <file id="src-3"/>
                <sourcetrack>
                  <mediatype>video</mediatype>
                  <trackindex>1</trackindex>
                </sourcetrack>
                <multiclip id="mcs-1148">
                  <name>MCS-1148</name>
                  <masterclipid>clip-master</masterclipid>
                  <collapsed>false</collapsed>
                  <angle>
                    <activevideoangle>false</activevideoangle>
                    <activeaudioangle>false</activeaudioangle>
                    <clip id="clip-1"/>
                  </angle>
                  <angle>
                    <activevideoangle>false</activevideoangle>
                    <activeaudioangle>false</activeaudioangle>
                    <clip id="clip-2"/>
                  </angle>
                  <angle>
                    <activevideoangle>true</activevideoangle>
                    <activeaudioangle>true</activeaudioangle>
                    <clip id="clip-3"/>
                  </angle>
                  <angle>
                    <activevideoangle>false</activevideoangle>
                    <activeaudioangle>false</activeaudioangle>
                    <clip id="clip-4"/>
                  </angle>
                  <angle>
                    <activevideoangle>false</activevideoangle>
                    <activeaudioangle>false</activeaudioangle>
                    <clip id="clip-5"/>
                  </angle>
                  <angle>
                    <activevideoangle>false</activevideoangle>
                    <activeaudioangle>false</activeaudioangle>
                    <clip id="clip-6"/>
                  </angle>
                  <angle>
                    <activevideoangle>false</activevideoangle>
                    <activeaudioangle>false</activeaudioangle>
                    <clip id="clip-7"/>
                  </angle>
                  <angle>
                    <activevideoangle>false</activevideoangle>
                    <activeaudioangle>false</activeaudioangle>
                    <clip id="clip-8"/>
                  </angle>
                  <angle>
                    <activevideoangle>false</activevideoangle>
                    <activeaudioangle>false</activeaudioangle>
                    <clip id="clip-9"/>
                  </angle>
                  <masterclipid>clip-master</masterclipid>
                </multiclip>
              </clipitem>
              <clipitem id="cs-1149">
                <duration>117</duration>
                <rate>
                  <ntsc>false</ntsc>
                  <timebase>25</timebase>
                </rate>
                <in>103845</in>
                <out>103961</out>
                <start>103845</start>
                <end>103961</end>
                <file id="src-5"/>
                <sourcetrack>
                  <mediatype>video</mediatype>
                  <trackindex>1</trackindex>
                </sourcetrack>
                <multiclip id="mcs-1149">
                  <name>MCS-1149</name>
                  <masterclipid>clip-master</masterclipid>
                  <collapsed>false</collapsed>
                  <angle>
                    <activevideoangle>false</activevideoangle>
                    <activeaudioangle>false</activeaudioangle>
                    <clip id="clip-1"/>
                  </angle>
                  <angle>
                    <activevideoangle>false</activevideoangle>
                    <activeaudioangle>false</activeaudioangle>
                    <clip id="clip-2"/>
                  </angle>
                  <angle>
                    <activevideoangle>false</activevideoangle>
                    <activeaudioangle>false</activeaudioangle>
                    <clip id="clip-3"/>
                  </angle>
                  <angle>
                    <activevideoangle>false</activevideoangle>
                    <activeaudioangle>false</activeaudioangle>
                    <clip id="clip-4"/>
                  </angle>
                  <angle>
                    <activevideoangle>true</activevideoangle>
                    <activeaudioangle>true</activeaudioangle>
                    <clip id="clip-5"/>
                  </angle>
                  <angle>
                    <activevideoangle>false</activevideoangle>
                    <activeaudioangle>false</activeaudioangle>
                    <clip id="clip-6"/>
                  </angle>
                  <angle>
                    <activevideoangle>false</activevideoangle>
                    <activeaudioangle>false</activeaudioangle>
                    <clip id="clip-7"/>
                  </angle>
                  <angle>
                    <activevideoangle>false</activevideoangle>
                    <activeaudioangle>false</activeaudioangle>
                    <clip id="clip-8"/>
                  </angle>
                  <angle>
                    <activevideoangle>false</activevideoangle>
                    <activeaudioangle>false</activeaudioangle>
                    <clip id="clip-9"/>
                  </angle>
                  <masterclipid>clip-master</masterclipid>
                </multiclip>
              </clipitem>
              <clipitem id="cs-1150">
                <duration>82</duration>
                <rate>
                  <ntsc>false</ntsc>
                  <timebase>25</timebase>
                </rate>
                <in>103961</in>
                <out>104042</out>
                <start>103961</start>
                <end>104042</end>
                <file id="src-4"/>
                <sourcetrack>
                  <mediatype>video</mediatype>
                  <trackindex>1</trackindex>
                </sourcetrack>
                <multiclip id="mcs-1150">
                  <name>MCS-1150</name>
                  <masterclipid>clip-master</masterclipid>
                  <collapsed>false</collapsed>
                  <angle>
                    <activevideoangle>false</activevideoangle>
                    <activeaudioangle>false</activeaudioangle>
                    <clip id="clip-1"/>
                  </angle>
                  <angle>
                    <activevideoangle>false</activevideoangle>
                    <activeaudioangle>false</activeaudioangle>
                    <clip id="clip-2"/>
                  </angle>
                  <angle>
                    <activevideoangle>false</activevideoangle>
                    <activeaudioangle>false</activeaudioangle>
                    <clip id="clip-3"/>
                  </angle>
                  <angle>
                    <activevideoangle>true</activevideoangle>
                    <activeaudioangle>true</activeaudioangle>
                    <clip id="clip-4"/>
                  </angle>
                  <angle>
                    <activevideoangle>false</activevideoangle>
                    <activeaudioangle>false</activeaudioangle>
                    <clip id="clip-5"/>
                  </angle>
                  <angle>
                    <activevideoangle>false</activevideoangle>
                    <activeaudioangle>false</activeaudioangle>
                    <clip id="clip-6"/>
                  </angle>
                  <angle>
                    <activevideoangle>false</activevideoangle>
                    <activeaudioangle>false</activeaudioangle>
                    <clip id="clip-7"/>
                  </angle>
                  <angle>
                    <activevideoangle>false</activevideoangle>
                    <activeaudioangle>false</activeaudioangle>
                    <clip id="clip-8"/>
                  </angle>
                  <angle>
                    <activevideoangle>false</activevideoangle>
                    <activeaudioangle>false</activeaudioangle>
                    <clip id="clip-9"/>
                  </angle>
                  <masterclipid>clip-master</masterclipid>
                </multiclip>
              </clipitem>
              <clipitem id="cs-1151">
                <duration>105</duration>
                <rate>
                  <ntsc>false</ntsc>
                  <timebase>25</timebase>
                </rate>
                <in>104042</in>
                <out>104146</out>
                <start>104042</start>
                <end>104146</end>
                <file id="src-3"/>
                <sourcetrack>
                  <mediatype>video</mediatype>
                  <trackindex>1</trackindex>
                </sourcetrack>
                <multiclip id="mcs-1151">
                  <name>MCS-1151</name>
                  <masterclipid>clip-master</masterclipid>
                  <collapsed>false</collapsed>
                  <angle>
                    <activevideoangle>false</activevideoangle>
                    <activeaudioangle>false</activeaudioangle>
                    <clip id="clip-1"/>
                  </angle>
                  <angle>
                    <activevideoangle>false</activevideoangle>
                    <activeaudioangle>false</activeaudioangle>
                    <clip id="clip-2"/>
                  </angle>
                  <angle>
                    <activevideoangle>true</activevideoangle>
                    <activeaudioangle>true</activeaudioangle>
                    <clip id="clip-3"/>
                  </angle>
                  <angle>
                    <activevideoangle>false</activevideoangle>
                    <activeaudioangle>false</activeaudioangle>
                    <clip id="clip-4"/>
                  </angle>
                  <angle>
                    <activevideoangle>false</activevideoangle>
                    <activeaudioangle>false</activeaudioangle>
                    <clip id="clip-5"/>
                  </angle>
                  <angle>
                    <activevideoangle>false</activevideoangle>
                    <activeaudioangle>false</activeaudioangle>
                    <clip id="clip-6"/>
                  </angle>
                  <angle>
                    <activevideoangle>false</activevideoangle>
                    <activeaudioangle>false</activeaudioangle>
                    <clip id="clip-7"/>
                  </angle>
                  <angle>
                    <activevideoangle>false</activevideoangle>
                    <activeaudioangle>false</activeaudioangle>
                    <clip id="clip-8"/>
                  </angle>
                  <angle>
                    <activevideoangle>false</activevideoangle>
                    <activeaudioangle>false</activeaudioangle>
                    <clip id="clip-9"/>
                  </angle>
                  <masterclipid>clip-master</masterclipid>
                </multiclip>
              </clipitem>
              <clipitem id="cs-1152">
                <duration>117</duration>
                <rate>
                  <ntsc>false</ntsc>
                  <timebase>25</timebase>
                </rate>
                <in>104146</in>
                <out>104262</out>
                <start>104146</start>
                <end>104262</end>
                <file id="src-6"/>
                <sourcetrack>
                  <mediatype>video</mediatype>
                  <trackindex>1</trackindex>
                </sourcetrack>
                <multiclip id="mcs-1152">
                  <name>MCS-1152</name>
                  <masterclipid>clip-master</masterclipid>
                  <collapsed>false</collapsed>
                  <angle>
                    <activevideoangle>false</activevideoangle>
                    <activeaudioangle>false</activeaudioangle>
                    <clip id="clip-1"/>
                  </angle>
                  <angle>
                    <activevideoangle>false</activevideoangle>
                    <activeaudioangle>false</activeaudioangle>
                    <clip id="clip-2"/>
                  </angle>
                  <angle>
                    <activevideoangle>false</activevideoangle>
                    <activeaudioangle>false</activeaudioangle>
                    <clip id="clip-3"/>
                  </angle>
                  <angle>
                    <activevideoangle>false</activevideoangle>
                    <activeaudioangle>false</activeaudioangle>
                    <clip id="clip-4"/>
                  </angle>
                  <angle>
                    <activevideoangle>false</activevideoangle>
                    <activeaudioangle>false</activeaudioangle>
                    <clip id="clip-5"/>
                  </angle>
                  <angle>
                    <activevideoangle>true</activevideoangle>
                    <activeaudioangle>true</activeaudioangle>
                    <clip id="clip-6"/>
                  </angle>
                  <angle>
                    <activevideoangle>false</activevideoangle>
                    <activeaudioangle>false</activeaudioangle>
                    <clip id="clip-7"/>
                  </angle>
                  <angle>
                    <activevideoangle>false</activevideoangle>
                    <activeaudioangle>false</activeaudioangle>
                    <clip id="clip-8"/>
                  </angle>
                  <angle>
                    <activevideoangle>false</activevideoangle>
                    <activeaudioangle>false</activeaudioangle>
                    <clip id="clip-9"/>
                  </angle>
                  <masterclipid>clip-master</masterclipid>
                </multiclip>
              </clipitem>
              <clipitem id="cs-1153">
                <duration>85</duration>
                <rate>
                  <ntsc>false</ntsc>
                  <timebase>25</timebase>
                </rate>
                <in>104262</in>
                <out>104346</out>
                <start>104262</start>
                <end>104346</end>
                <file id="src-4"/>
                <sourcetrack>
                  <mediatype>video</mediatype>
                  <trackindex>1</trackindex>
                </sourcetrack>
                <multiclip id="mcs-1153">
                  <name>MCS-1153</name>
                  <masterclipid>clip-master</masterclipid>
                  <collapsed>false</collapsed>
                  <angle>
                    <activevideoangle>false</activevideoangle>
                    <activeaudioangle>false</activeaudioangle>
                    <clip id="clip-1"/>
                  </angle>
                  <angle>
                    <activevideoangle>false</activevideoangle>
                    <activeaudioangle>false</activeaudioangle>
                    <clip id="clip-2"/>
                  </angle>
                  <angle>
                    <activevideoangle>false</activevideoangle>
                    <activeaudioangle>false</activeaudioangle>
                    <clip id="clip-3"/>
                  </angle>
                  <angle>
                    <activevideoangle>true</activevideoangle>
                    <activeaudioangle>true</activeaudioangle>
                    <clip id="clip-4"/>
                  </angle>
                  <angle>
                    <activevideoangle>false</activevideoangle>
                    <activeaudioangle>false</activeaudioangle>
                    <clip id="clip-5"/>
                  </angle>
                  <angle>
                    <activevideoangle>false</activevideoangle>
                    <activeaudioangle>false</activeaudioangle>
                    <clip id="clip-6"/>
                  </angle>
                  <angle>
                    <activevideoangle>false</activevideoangle>
                    <activeaudioangle>false</activeaudioangle>
                    <clip id="clip-7"/>
                  </angle>
                  <angle>
                    <activevideoangle>false</activevideoangle>
                    <activeaudioangle>false</activeaudioangle>
                    <clip id="clip-8"/>
                  </angle>
                  <angle>
                    <activevideoangle>false</activevideoangle>
                    <activeaudioangle>false</activeaudioangle>
                    <clip id="clip-9"/>
                  </angle>
                  <masterclipid>clip-master</masterclipid>
                </multiclip>
              </clipitem>
              <clipitem id="cs-1154">
                <duration>173</duration>
                <rate>
                  <ntsc>false</ntsc>
                  <timebase>25</timebase>
                </rate>
                <in>104346</in>
                <out>104518</out>
                <start>104346</start>
                <end>104518</end>
                <file id="src-3"/>
                <sourcetrack>
                  <mediatype>video</mediatype>
                  <trackindex>1</trackindex>
                </sourcetrack>
                <multiclip id="mcs-1154">
                  <name>MCS-1154</name>
                  <masterclipid>clip-master</masterclipid>
                  <collapsed>false</collapsed>
                  <angle>
                    <activevideoangle>false</activevideoangle>
                    <activeaudioangle>false</activeaudioangle>
                    <clip id="clip-1"/>
                  </angle>
                  <angle>
                    <activevideoangle>false</activevideoangle>
                    <activeaudioangle>false</activeaudioangle>
                    <clip id="clip-2"/>
                  </angle>
                  <angle>
                    <activevideoangle>true</activevideoangle>
                    <activeaudioangle>true</activeaudioangle>
                    <clip id="clip-3"/>
                  </angle>
                  <angle>
                    <activevideoangle>false</activevideoangle>
                    <activeaudioangle>false</activeaudioangle>
                    <clip id="clip-4"/>
                  </angle>
                  <angle>
                    <activevideoangle>false</activevideoangle>
                    <activeaudioangle>false</activeaudioangle>
                    <clip id="clip-5"/>
                  </angle>
                  <angle>
                    <activevideoangle>false</activevideoangle>
                    <activeaudioangle>false</activeaudioangle>
                    <clip id="clip-6"/>
                  </angle>
                  <angle>
                    <activevideoangle>false</activevideoangle>
                    <activeaudioangle>false</activeaudioangle>
                    <clip id="clip-7"/>
                  </angle>
                  <angle>
                    <activevideoangle>false</activevideoangle>
                    <activeaudioangle>false</activeaudioangle>
                    <clip id="clip-8"/>
                  </angle>
                  <angle>
                    <activevideoangle>false</activevideoangle>
                    <activeaudioangle>false</activeaudioangle>
                    <clip id="clip-9"/>
                  </angle>
                  <masterclipid>clip-master</masterclipid>
                </multiclip>
              </clipitem>
              <clipitem id="cs-1155">
                <duration>44</duration>
                <rate>
                  <ntsc>false</ntsc>
                  <timebase>25</timebase>
                </rate>
                <in>104518</in>
                <out>104561</out>
                <start>104518</start>
                <end>104561</end>
                <file id="src-6"/>
                <sourcetrack>
                  <mediatype>video</mediatype>
                  <trackindex>1</trackindex>
                </sourcetrack>
                <multiclip id="mcs-1155">
                  <name>MCS-1155</name>
                  <masterclipid>clip-master</masterclipid>
                  <collapsed>false</collapsed>
                  <angle>
                    <activevideoangle>false</activevideoangle>
                    <activeaudioangle>false</activeaudioangle>
                    <clip id="clip-1"/>
                  </angle>
                  <angle>
                    <activevideoangle>false</activevideoangle>
                    <activeaudioangle>false</activeaudioangle>
                    <clip id="clip-2"/>
                  </angle>
                  <angle>
                    <activevideoangle>false</activevideoangle>
                    <activeaudioangle>false</activeaudioangle>
                    <clip id="clip-3"/>
                  </angle>
                  <angle>
                    <activevideoangle>false</activevideoangle>
                    <activeaudioangle>false</activeaudioangle>
                    <clip id="clip-4"/>
                  </angle>
                  <angle>
                    <activevideoangle>false</activevideoangle>
                    <activeaudioangle>false</activeaudioangle>
                    <clip id="clip-5"/>
                  </angle>
                  <angle>
                    <activevideoangle>true</activevideoangle>
                    <activeaudioangle>true</activeaudioangle>
                    <clip id="clip-6"/>
                  </angle>
                  <angle>
                    <activevideoangle>false</activevideoangle>
                    <activeaudioangle>false</activeaudioangle>
                    <clip id="clip-7"/>
                  </angle>
                  <angle>
                    <activevideoangle>false</activevideoangle>
                    <activeaudioangle>false</activeaudioangle>
                    <clip id="clip-8"/>
                  </angle>
                  <angle>
                    <activevideoangle>false</activevideoangle>
                    <activeaudioangle>false</activeaudioangle>
                    <clip id="clip-9"/>
                  </angle>
                  <masterclipid>clip-master</masterclipid>
                </multiclip>
              </clipitem>
              <clipitem id="cs-1156">
                <duration>84</duration>
                <rate>
                  <ntsc>false</ntsc>
                  <timebase>25</timebase>
                </rate>
                <in>104561</in>
                <out>104644</out>
                <start>104561</start>
                <end>104644</end>
                <file id="src-4"/>
                <sourcetrack>
                  <mediatype>video</mediatype>
                  <trackindex>1</trackindex>
                </sourcetrack>
                <multiclip id="mcs-1156">
                  <name>MCS-1156</name>
                  <masterclipid>clip-master</masterclipid>
                  <collapsed>false</collapsed>
                  <angle>
                    <activevideoangle>false</activevideoangle>
                    <activeaudioangle>false</activeaudioangle>
                    <clip id="clip-1"/>
                  </angle>
                  <angle>
                    <activevideoangle>false</activevideoangle>
                    <activeaudioangle>false</activeaudioangle>
                    <clip id="clip-2"/>
                  </angle>
                  <angle>
                    <activevideoangle>false</activevideoangle>
                    <activeaudioangle>false</activeaudioangle>
                    <clip id="clip-3"/>
                  </angle>
                  <angle>
                    <activevideoangle>true</activevideoangle>
                    <activeaudioangle>true</activeaudioangle>
                    <clip id="clip-4"/>
                  </angle>
                  <angle>
                    <activevideoangle>false</activevideoangle>
                    <activeaudioangle>false</activeaudioangle>
                    <clip id="clip-5"/>
                  </angle>
                  <angle>
                    <activevideoangle>false</activevideoangle>
                    <activeaudioangle>false</activeaudioangle>
                    <clip id="clip-6"/>
                  </angle>
                  <angle>
                    <activevideoangle>false</activevideoangle>
                    <activeaudioangle>false</activeaudioangle>
                    <clip id="clip-7"/>
                  </angle>
                  <angle>
                    <activevideoangle>false</activevideoangle>
                    <activeaudioangle>false</activeaudioangle>
                    <clip id="clip-8"/>
                  </angle>
                  <angle>
                    <activevideoangle>false</activevideoangle>
                    <activeaudioangle>false</activeaudioangle>
                    <clip id="clip-9"/>
                  </angle>
                  <masterclipid>clip-master</masterclipid>
                </multiclip>
              </clipitem>
              <clipitem id="cs-1157">
                <duration>70</duration>
                <rate>
                  <ntsc>false</ntsc>
                  <timebase>25</timebase>
                </rate>
                <in>104644</in>
                <out>104713</out>
                <start>104644</start>
                <end>104713</end>
                <file id="src-3"/>
                <sourcetrack>
                  <mediatype>video</mediatype>
                  <trackindex>1</trackindex>
                </sourcetrack>
                <multiclip id="mcs-1157">
                  <name>MCS-1157</name>
                  <masterclipid>clip-master</masterclipid>
                  <collapsed>false</collapsed>
                  <angle>
                    <activevideoangle>false</activevideoangle>
                    <activeaudioangle>false</activeaudioangle>
                    <clip id="clip-1"/>
                  </angle>
                  <angle>
                    <activevideoangle>false</activevideoangle>
                    <activeaudioangle>false</activeaudioangle>
                    <clip id="clip-2"/>
                  </angle>
                  <angle>
                    <activevideoangle>true</activevideoangle>
                    <activeaudioangle>true</activeaudioangle>
                    <clip id="clip-3"/>
                  </angle>
                  <angle>
                    <activevideoangle>false</activevideoangle>
                    <activeaudioangle>false</activeaudioangle>
                    <clip id="clip-4"/>
                  </angle>
                  <angle>
                    <activevideoangle>false</activevideoangle>
                    <activeaudioangle>false</activeaudioangle>
                    <clip id="clip-5"/>
                  </angle>
                  <angle>
                    <activevideoangle>false</activevideoangle>
                    <activeaudioangle>false</activeaudioangle>
                    <clip id="clip-6"/>
                  </angle>
                  <angle>
                    <activevideoangle>false</activevideoangle>
                    <activeaudioangle>false</activeaudioangle>
                    <clip id="clip-7"/>
                  </angle>
                  <angle>
                    <activevideoangle>false</activevideoangle>
                    <activeaudioangle>false</activeaudioangle>
                    <clip id="clip-8"/>
                  </angle>
                  <angle>
                    <activevideoangle>false</activevideoangle>
                    <activeaudioangle>false</activeaudioangle>
                    <clip id="clip-9"/>
                  </angle>
                  <masterclipid>clip-master</masterclipid>
                </multiclip>
              </clipitem>
              <clipitem id="cs-1158">
                <duration>93</duration>
                <rate>
                  <ntsc>false</ntsc>
                  <timebase>25</timebase>
                </rate>
                <in>104713</in>
                <out>104805</out>
                <start>104713</start>
                <end>104805</end>
                <file id="src-2"/>
                <sourcetrack>
                  <mediatype>video</mediatype>
                  <trackindex>1</trackindex>
                </sourcetrack>
                <multiclip id="mcs-1158">
                  <name>MCS-1158</name>
                  <masterclipid>clip-master</masterclipid>
                  <collapsed>false</collapsed>
                  <angle>
                    <activevideoangle>false</activevideoangle>
                    <activeaudioangle>false</activeaudioangle>
                    <clip id="clip-1"/>
                  </angle>
                  <angle>
                    <activevideoangle>true</activevideoangle>
                    <activeaudioangle>true</activeaudioangle>
                    <clip id="clip-2"/>
                  </angle>
                  <angle>
                    <activevideoangle>false</activevideoangle>
                    <activeaudioangle>false</activeaudioangle>
                    <clip id="clip-3"/>
                  </angle>
                  <angle>
                    <activevideoangle>false</activevideoangle>
                    <activeaudioangle>false</activeaudioangle>
                    <clip id="clip-4"/>
                  </angle>
                  <angle>
                    <activevideoangle>false</activevideoangle>
                    <activeaudioangle>false</activeaudioangle>
                    <clip id="clip-5"/>
                  </angle>
                  <angle>
                    <activevideoangle>false</activevideoangle>
                    <activeaudioangle>false</activeaudioangle>
                    <clip id="clip-6"/>
                  </angle>
                  <angle>
                    <activevideoangle>false</activevideoangle>
                    <activeaudioangle>false</activeaudioangle>
                    <clip id="clip-7"/>
                  </angle>
                  <angle>
                    <activevideoangle>false</activevideoangle>
                    <activeaudioangle>false</activeaudioangle>
                    <clip id="clip-8"/>
                  </angle>
                  <angle>
                    <activevideoangle>false</activevideoangle>
                    <activeaudioangle>false</activeaudioangle>
                    <clip id="clip-9"/>
                  </angle>
                  <masterclipid>clip-master</masterclipid>
                </multiclip>
              </clipitem>
              <clipitem id="cs-1159">
                <duration>290</duration>
                <rate>
                  <ntsc>false</ntsc>
                  <timebase>25</timebase>
                </rate>
                <in>104805</in>
                <out>105094</out>
                <start>104805</start>
                <end>105094</end>
                <file id="src-4"/>
                <sourcetrack>
                  <mediatype>video</mediatype>
                  <trackindex>1</trackindex>
                </sourcetrack>
                <multiclip id="mcs-1159">
                  <name>MCS-1159</name>
                  <masterclipid>clip-master</masterclipid>
                  <collapsed>false</collapsed>
                  <angle>
                    <activevideoangle>false</activevideoangle>
                    <activeaudioangle>false</activeaudioangle>
                    <clip id="clip-1"/>
                  </angle>
                  <angle>
                    <activevideoangle>false</activevideoangle>
                    <activeaudioangle>false</activeaudioangle>
                    <clip id="clip-2"/>
                  </angle>
                  <angle>
                    <activevideoangle>false</activevideoangle>
                    <activeaudioangle>false</activeaudioangle>
                    <clip id="clip-3"/>
                  </angle>
                  <angle>
                    <activevideoangle>true</activevideoangle>
                    <activeaudioangle>true</activeaudioangle>
                    <clip id="clip-4"/>
                  </angle>
                  <angle>
                    <activevideoangle>false</activevideoangle>
                    <activeaudioangle>false</activeaudioangle>
                    <clip id="clip-5"/>
                  </angle>
                  <angle>
                    <activevideoangle>false</activevideoangle>
                    <activeaudioangle>false</activeaudioangle>
                    <clip id="clip-6"/>
                  </angle>
                  <angle>
                    <activevideoangle>false</activevideoangle>
                    <activeaudioangle>false</activeaudioangle>
                    <clip id="clip-7"/>
                  </angle>
                  <angle>
                    <activevideoangle>false</activevideoangle>
                    <activeaudioangle>false</activeaudioangle>
                    <clip id="clip-8"/>
                  </angle>
                  <angle>
                    <activevideoangle>false</activevideoangle>
                    <activeaudioangle>false</activeaudioangle>
                    <clip id="clip-9"/>
                  </angle>
                  <masterclipid>clip-master</masterclipid>
                </multiclip>
              </clipitem>
              <clipitem id="cs-1160">
                <duration>148</duration>
                <rate>
                  <ntsc>false</ntsc>
                  <timebase>25</timebase>
                </rate>
                <in>105094</in>
                <out>105241</out>
                <start>105094</start>
                <end>105241</end>
                <file id="src-7"/>
                <sourcetrack>
                  <mediatype>video</mediatype>
                  <trackindex>1</trackindex>
                </sourcetrack>
                <multiclip id="mcs-1160">
                  <name>MCS-1160</name>
                  <masterclipid>clip-master</masterclipid>
                  <collapsed>false</collapsed>
                  <angle>
                    <activevideoangle>false</activevideoangle>
                    <activeaudioangle>false</activeaudioangle>
                    <clip id="clip-1"/>
                  </angle>
                  <angle>
                    <activevideoangle>false</activevideoangle>
                    <activeaudioangle>false</activeaudioangle>
                    <clip id="clip-2"/>
                  </angle>
                  <angle>
                    <activevideoangle>false</activevideoangle>
                    <activeaudioangle>false</activeaudioangle>
                    <clip id="clip-3"/>
                  </angle>
                  <angle>
                    <activevideoangle>false</activevideoangle>
                    <activeaudioangle>false</activeaudioangle>
                    <clip id="clip-4"/>
                  </angle>
                  <angle>
                    <activevideoangle>false</activevideoangle>
                    <activeaudioangle>false</activeaudioangle>
                    <clip id="clip-5"/>
                  </angle>
                  <angle>
                    <activevideoangle>false</activevideoangle>
                    <activeaudioangle>false</activeaudioangle>
                    <clip id="clip-6"/>
                  </angle>
                  <angle>
                    <activevideoangle>true</activevideoangle>
                    <activeaudioangle>true</activeaudioangle>
                    <clip id="clip-7"/>
                  </angle>
                  <angle>
                    <activevideoangle>false</activevideoangle>
                    <activeaudioangle>false</activeaudioangle>
                    <clip id="clip-8"/>
                  </angle>
                  <angle>
                    <activevideoangle>false</activevideoangle>
                    <activeaudioangle>false</activeaudioangle>
                    <clip id="clip-9"/>
                  </angle>
                  <masterclipid>clip-master</masterclipid>
                </multiclip>
              </clipitem>
              <clipitem id="cs-1161">
                <duration>127</duration>
                <rate>
                  <ntsc>false</ntsc>
                  <timebase>25</timebase>
                </rate>
                <in>105241</in>
                <out>105367</out>
                <start>105241</start>
                <end>105367</end>
                <file id="src-6"/>
                <sourcetrack>
                  <mediatype>video</mediatype>
                  <trackindex>1</trackindex>
                </sourcetrack>
                <multiclip id="mcs-1161">
                  <name>MCS-1161</name>
                  <masterclipid>clip-master</masterclipid>
                  <collapsed>false</collapsed>
                  <angle>
                    <activevideoangle>false</activevideoangle>
                    <activeaudioangle>false</activeaudioangle>
                    <clip id="clip-1"/>
                  </angle>
                  <angle>
                    <activevideoangle>false</activevideoangle>
                    <activeaudioangle>false</activeaudioangle>
                    <clip id="clip-2"/>
                  </angle>
                  <angle>
                    <activevideoangle>false</activevideoangle>
                    <activeaudioangle>false</activeaudioangle>
                    <clip id="clip-3"/>
                  </angle>
                  <angle>
                    <activevideoangle>false</activevideoangle>
                    <activeaudioangle>false</activeaudioangle>
                    <clip id="clip-4"/>
                  </angle>
                  <angle>
                    <activevideoangle>false</activevideoangle>
                    <activeaudioangle>false</activeaudioangle>
                    <clip id="clip-5"/>
                  </angle>
                  <angle>
                    <activevideoangle>true</activevideoangle>
                    <activeaudioangle>true</activeaudioangle>
                    <clip id="clip-6"/>
                  </angle>
                  <angle>
                    <activevideoangle>false</activevideoangle>
                    <activeaudioangle>false</activeaudioangle>
                    <clip id="clip-7"/>
                  </angle>
                  <angle>
                    <activevideoangle>false</activevideoangle>
                    <activeaudioangle>false</activeaudioangle>
                    <clip id="clip-8"/>
                  </angle>
                  <angle>
                    <activevideoangle>false</activevideoangle>
                    <activeaudioangle>false</activeaudioangle>
                    <clip id="clip-9"/>
                  </angle>
                  <masterclipid>clip-master</masterclipid>
                </multiclip>
              </clipitem>
              <clipitem id="cs-1162">
                <duration>223</duration>
                <rate>
                  <ntsc>false</ntsc>
                  <timebase>25</timebase>
                </rate>
                <in>105367</in>
                <out>105589</out>
                <start>105367</start>
                <end>105589</end>
                <file id="src-4"/>
                <sourcetrack>
                  <mediatype>video</mediatype>
                  <trackindex>1</trackindex>
                </sourcetrack>
                <multiclip id="mcs-1162">
                  <name>MCS-1162</name>
                  <masterclipid>clip-master</masterclipid>
                  <collapsed>false</collapsed>
                  <angle>
                    <activevideoangle>false</activevideoangle>
                    <activeaudioangle>false</activeaudioangle>
                    <clip id="clip-1"/>
                  </angle>
                  <angle>
                    <activevideoangle>false</activevideoangle>
                    <activeaudioangle>false</activeaudioangle>
                    <clip id="clip-2"/>
                  </angle>
                  <angle>
                    <activevideoangle>false</activevideoangle>
                    <activeaudioangle>false</activeaudioangle>
                    <clip id="clip-3"/>
                  </angle>
                  <angle>
                    <activevideoangle>true</activevideoangle>
                    <activeaudioangle>true</activeaudioangle>
                    <clip id="clip-4"/>
                  </angle>
                  <angle>
                    <activevideoangle>false</activevideoangle>
                    <activeaudioangle>false</activeaudioangle>
                    <clip id="clip-5"/>
                  </angle>
                  <angle>
                    <activevideoangle>false</activevideoangle>
                    <activeaudioangle>false</activeaudioangle>
                    <clip id="clip-6"/>
                  </angle>
                  <angle>
                    <activevideoangle>false</activevideoangle>
                    <activeaudioangle>false</activeaudioangle>
                    <clip id="clip-7"/>
                  </angle>
                  <angle>
                    <activevideoangle>false</activevideoangle>
                    <activeaudioangle>false</activeaudioangle>
                    <clip id="clip-8"/>
                  </angle>
                  <angle>
                    <activevideoangle>false</activevideoangle>
                    <activeaudioangle>false</activeaudioangle>
                    <clip id="clip-9"/>
                  </angle>
                  <masterclipid>clip-master</masterclipid>
                </multiclip>
              </clipitem>
              <clipitem id="cs-1163">
                <duration>132</duration>
                <rate>
                  <ntsc>false</ntsc>
                  <timebase>25</timebase>
                </rate>
                <in>105589</in>
                <out>105720</out>
                <start>105589</start>
                <end>105720</end>
                <file id="src-2"/>
                <sourcetrack>
                  <mediatype>video</mediatype>
                  <trackindex>1</trackindex>
                </sourcetrack>
                <multiclip id="mcs-1163">
                  <name>MCS-1163</name>
                  <masterclipid>clip-master</masterclipid>
                  <collapsed>false</collapsed>
                  <angle>
                    <activevideoangle>false</activevideoangle>
                    <activeaudioangle>false</activeaudioangle>
                    <clip id="clip-1"/>
                  </angle>
                  <angle>
                    <activevideoangle>true</activevideoangle>
                    <activeaudioangle>true</activeaudioangle>
                    <clip id="clip-2"/>
                  </angle>
                  <angle>
                    <activevideoangle>false</activevideoangle>
                    <activeaudioangle>false</activeaudioangle>
                    <clip id="clip-3"/>
                  </angle>
                  <angle>
                    <activevideoangle>false</activevideoangle>
                    <activeaudioangle>false</activeaudioangle>
                    <clip id="clip-4"/>
                  </angle>
                  <angle>
                    <activevideoangle>false</activevideoangle>
                    <activeaudioangle>false</activeaudioangle>
                    <clip id="clip-5"/>
                  </angle>
                  <angle>
                    <activevideoangle>false</activevideoangle>
                    <activeaudioangle>false</activeaudioangle>
                    <clip id="clip-6"/>
                  </angle>
                  <angle>
                    <activevideoangle>false</activevideoangle>
                    <activeaudioangle>false</activeaudioangle>
                    <clip id="clip-7"/>
                  </angle>
                  <angle>
                    <activevideoangle>false</activevideoangle>
                    <activeaudioangle>false</activeaudioangle>
                    <clip id="clip-8"/>
                  </angle>
                  <angle>
                    <activevideoangle>false</activevideoangle>
                    <activeaudioangle>false</activeaudioangle>
                    <clip id="clip-9"/>
                  </angle>
                  <masterclipid>clip-master</masterclipid>
                </multiclip>
              </clipitem>
              <clipitem id="cs-1164">
                <duration>221</duration>
                <rate>
                  <ntsc>false</ntsc>
                  <timebase>25</timebase>
                </rate>
                <in>105720</in>
                <out>105940</out>
                <start>105720</start>
                <end>105940</end>
                <file id="src-4"/>
                <sourcetrack>
                  <mediatype>video</mediatype>
                  <trackindex>1</trackindex>
                </sourcetrack>
                <multiclip id="mcs-1164">
                  <name>MCS-1164</name>
                  <masterclipid>clip-master</masterclipid>
                  <collapsed>false</collapsed>
                  <angle>
                    <activevideoangle>false</activevideoangle>
                    <activeaudioangle>false</activeaudioangle>
                    <clip id="clip-1"/>
                  </angle>
                  <angle>
                    <activevideoangle>false</activevideoangle>
                    <activeaudioangle>false</activeaudioangle>
                    <clip id="clip-2"/>
                  </angle>
                  <angle>
                    <activevideoangle>false</activevideoangle>
                    <activeaudioangle>false</activeaudioangle>
                    <clip id="clip-3"/>
                  </angle>
                  <angle>
                    <activevideoangle>true</activevideoangle>
                    <activeaudioangle>true</activeaudioangle>
                    <clip id="clip-4"/>
                  </angle>
                  <angle>
                    <activevideoangle>false</activevideoangle>
                    <activeaudioangle>false</activeaudioangle>
                    <clip id="clip-5"/>
                  </angle>
                  <angle>
                    <activevideoangle>false</activevideoangle>
                    <activeaudioangle>false</activeaudioangle>
                    <clip id="clip-6"/>
                  </angle>
                  <angle>
                    <activevideoangle>false</activevideoangle>
                    <activeaudioangle>false</activeaudioangle>
                    <clip id="clip-7"/>
                  </angle>
                  <angle>
                    <activevideoangle>false</activevideoangle>
                    <activeaudioangle>false</activeaudioangle>
                    <clip id="clip-8"/>
                  </angle>
                  <angle>
                    <activevideoangle>false</activevideoangle>
                    <activeaudioangle>false</activeaudioangle>
                    <clip id="clip-9"/>
                  </angle>
                  <masterclipid>clip-master</masterclipid>
                </multiclip>
              </clipitem>
              <clipitem id="cs-1165">
                <duration>111</duration>
                <rate>
                  <ntsc>false</ntsc>
                  <timebase>25</timebase>
                </rate>
                <in>105940</in>
                <out>106050</out>
                <start>105940</start>
                <end>106050</end>
                <file id="src-3"/>
                <sourcetrack>
                  <mediatype>video</mediatype>
                  <trackindex>1</trackindex>
                </sourcetrack>
                <multiclip id="mcs-1165">
                  <name>MCS-1165</name>
                  <masterclipid>clip-master</masterclipid>
                  <collapsed>false</collapsed>
                  <angle>
                    <activevideoangle>false</activevideoangle>
                    <activeaudioangle>false</activeaudioangle>
                    <clip id="clip-1"/>
                  </angle>
                  <angle>
                    <activevideoangle>false</activevideoangle>
                    <activeaudioangle>false</activeaudioangle>
                    <clip id="clip-2"/>
                  </angle>
                  <angle>
                    <activevideoangle>true</activevideoangle>
                    <activeaudioangle>true</activeaudioangle>
                    <clip id="clip-3"/>
                  </angle>
                  <angle>
                    <activevideoangle>false</activevideoangle>
                    <activeaudioangle>false</activeaudioangle>
                    <clip id="clip-4"/>
                  </angle>
                  <angle>
                    <activevideoangle>false</activevideoangle>
                    <activeaudioangle>false</activeaudioangle>
                    <clip id="clip-5"/>
                  </angle>
                  <angle>
                    <activevideoangle>false</activevideoangle>
                    <activeaudioangle>false</activeaudioangle>
                    <clip id="clip-6"/>
                  </angle>
                  <angle>
                    <activevideoangle>false</activevideoangle>
                    <activeaudioangle>false</activeaudioangle>
                    <clip id="clip-7"/>
                  </angle>
                  <angle>
                    <activevideoangle>false</activevideoangle>
                    <activeaudioangle>false</activeaudioangle>
                    <clip id="clip-8"/>
                  </angle>
                  <angle>
                    <activevideoangle>false</activevideoangle>
                    <activeaudioangle>false</activeaudioangle>
                    <clip id="clip-9"/>
                  </angle>
                  <masterclipid>clip-master</masterclipid>
                </multiclip>
              </clipitem>
              <clipitem id="cs-1166">
                <duration>83</duration>
                <rate>
                  <ntsc>false</ntsc>
                  <timebase>25</timebase>
                </rate>
                <in>106050</in>
                <out>106132</out>
                <start>106050</start>
                <end>106132</end>
                <file id="src-2"/>
                <sourcetrack>
                  <mediatype>video</mediatype>
                  <trackindex>1</trackindex>
                </sourcetrack>
                <multiclip id="mcs-1166">
                  <name>MCS-1166</name>
                  <masterclipid>clip-master</masterclipid>
                  <collapsed>false</collapsed>
                  <angle>
                    <activevideoangle>false</activevideoangle>
                    <activeaudioangle>false</activeaudioangle>
                    <clip id="clip-1"/>
                  </angle>
                  <angle>
                    <activevideoangle>true</activevideoangle>
                    <activeaudioangle>true</activeaudioangle>
                    <clip id="clip-2"/>
                  </angle>
                  <angle>
                    <activevideoangle>false</activevideoangle>
                    <activeaudioangle>false</activeaudioangle>
                    <clip id="clip-3"/>
                  </angle>
                  <angle>
                    <activevideoangle>false</activevideoangle>
                    <activeaudioangle>false</activeaudioangle>
                    <clip id="clip-4"/>
                  </angle>
                  <angle>
                    <activevideoangle>false</activevideoangle>
                    <activeaudioangle>false</activeaudioangle>
                    <clip id="clip-5"/>
                  </angle>
                  <angle>
                    <activevideoangle>false</activevideoangle>
                    <activeaudioangle>false</activeaudioangle>
                    <clip id="clip-6"/>
                  </angle>
                  <angle>
                    <activevideoangle>false</activevideoangle>
                    <activeaudioangle>false</activeaudioangle>
                    <clip id="clip-7"/>
                  </angle>
                  <angle>
                    <activevideoangle>false</activevideoangle>
                    <activeaudioangle>false</activeaudioangle>
                    <clip id="clip-8"/>
                  </angle>
                  <angle>
                    <activevideoangle>false</activevideoangle>
                    <activeaudioangle>false</activeaudioangle>
                    <clip id="clip-9"/>
                  </angle>
                  <masterclipid>clip-master</masterclipid>
                </multiclip>
              </clipitem>
              <clipitem id="cs-1167">
                <duration>91</duration>
                <rate>
                  <ntsc>false</ntsc>
                  <timebase>25</timebase>
                </rate>
                <in>106132</in>
                <out>106222</out>
                <start>106132</start>
                <end>106222</end>
                <file id="src-4"/>
                <sourcetrack>
                  <mediatype>video</mediatype>
                  <trackindex>1</trackindex>
                </sourcetrack>
                <multiclip id="mcs-1167">
                  <name>MCS-1167</name>
                  <masterclipid>clip-master</masterclipid>
                  <collapsed>false</collapsed>
                  <angle>
                    <activevideoangle>false</activevideoangle>
                    <activeaudioangle>false</activeaudioangle>
                    <clip id="clip-1"/>
                  </angle>
                  <angle>
                    <activevideoangle>false</activevideoangle>
                    <activeaudioangle>false</activeaudioangle>
                    <clip id="clip-2"/>
                  </angle>
                  <angle>
                    <activevideoangle>false</activevideoangle>
                    <activeaudioangle>false</activeaudioangle>
                    <clip id="clip-3"/>
                  </angle>
                  <angle>
                    <activevideoangle>true</activevideoangle>
                    <activeaudioangle>true</activeaudioangle>
                    <clip id="clip-4"/>
                  </angle>
                  <angle>
                    <activevideoangle>false</activevideoangle>
                    <activeaudioangle>false</activeaudioangle>
                    <clip id="clip-5"/>
                  </angle>
                  <angle>
                    <activevideoangle>false</activevideoangle>
                    <activeaudioangle>false</activeaudioangle>
                    <clip id="clip-6"/>
                  </angle>
                  <angle>
                    <activevideoangle>false</activevideoangle>
                    <activeaudioangle>false</activeaudioangle>
                    <clip id="clip-7"/>
                  </angle>
                  <angle>
                    <activevideoangle>false</activevideoangle>
                    <activeaudioangle>false</activeaudioangle>
                    <clip id="clip-8"/>
                  </angle>
                  <angle>
                    <activevideoangle>false</activevideoangle>
                    <activeaudioangle>false</activeaudioangle>
                    <clip id="clip-9"/>
                  </angle>
                  <masterclipid>clip-master</masterclipid>
                </multiclip>
              </clipitem>
              <clipitem id="cs-1168">
                <duration>163</duration>
                <rate>
                  <ntsc>false</ntsc>
                  <timebase>25</timebase>
                </rate>
                <in>106222</in>
                <out>106384</out>
                <start>106222</start>
                <end>106384</end>
                <file id="src-6"/>
                <sourcetrack>
                  <mediatype>video</mediatype>
                  <trackindex>1</trackindex>
                </sourcetrack>
                <multiclip id="mcs-1168">
                  <name>MCS-1168</name>
                  <masterclipid>clip-master</masterclipid>
                  <collapsed>false</collapsed>
                  <angle>
                    <activevideoangle>false</activevideoangle>
                    <activeaudioangle>false</activeaudioangle>
                    <clip id="clip-1"/>
                  </angle>
                  <angle>
                    <activevideoangle>false</activevideoangle>
                    <activeaudioangle>false</activeaudioangle>
                    <clip id="clip-2"/>
                  </angle>
                  <angle>
                    <activevideoangle>false</activevideoangle>
                    <activeaudioangle>false</activeaudioangle>
                    <clip id="clip-3"/>
                  </angle>
                  <angle>
                    <activevideoangle>false</activevideoangle>
                    <activeaudioangle>false</activeaudioangle>
                    <clip id="clip-4"/>
                  </angle>
                  <angle>
                    <activevideoangle>false</activevideoangle>
                    <activeaudioangle>false</activeaudioangle>
                    <clip id="clip-5"/>
                  </angle>
                  <angle>
                    <activevideoangle>true</activevideoangle>
                    <activeaudioangle>true</activeaudioangle>
                    <clip id="clip-6"/>
                  </angle>
                  <angle>
                    <activevideoangle>false</activevideoangle>
                    <activeaudioangle>false</activeaudioangle>
                    <clip id="clip-7"/>
                  </angle>
                  <angle>
                    <activevideoangle>false</activevideoangle>
                    <activeaudioangle>false</activeaudioangle>
                    <clip id="clip-8"/>
                  </angle>
                  <angle>
                    <activevideoangle>false</activevideoangle>
                    <activeaudioangle>false</activeaudioangle>
                    <clip id="clip-9"/>
                  </angle>
                  <masterclipid>clip-master</masterclipid>
                </multiclip>
              </clipitem>
              <clipitem id="cs-1169">
                <duration>97</duration>
                <rate>
                  <ntsc>false</ntsc>
                  <timebase>25</timebase>
                </rate>
                <in>106384</in>
                <out>106480</out>
                <start>106384</start>
                <end>106480</end>
                <file id="src-4"/>
                <sourcetrack>
                  <mediatype>video</mediatype>
                  <trackindex>1</trackindex>
                </sourcetrack>
                <multiclip id="mcs-1169">
                  <name>MCS-1169</name>
                  <masterclipid>clip-master</masterclipid>
                  <collapsed>false</collapsed>
                  <angle>
                    <activevideoangle>false</activevideoangle>
                    <activeaudioangle>false</activeaudioangle>
                    <clip id="clip-1"/>
                  </angle>
                  <angle>
                    <activevideoangle>false</activevideoangle>
                    <activeaudioangle>false</activeaudioangle>
                    <clip id="clip-2"/>
                  </angle>
                  <angle>
                    <activevideoangle>false</activevideoangle>
                    <activeaudioangle>false</activeaudioangle>
                    <clip id="clip-3"/>
                  </angle>
                  <angle>
                    <activevideoangle>true</activevideoangle>
                    <activeaudioangle>true</activeaudioangle>
                    <clip id="clip-4"/>
                  </angle>
                  <angle>
                    <activevideoangle>false</activevideoangle>
                    <activeaudioangle>false</activeaudioangle>
                    <clip id="clip-5"/>
                  </angle>
                  <angle>
                    <activevideoangle>false</activevideoangle>
                    <activeaudioangle>false</activeaudioangle>
                    <clip id="clip-6"/>
                  </angle>
                  <angle>
                    <activevideoangle>false</activevideoangle>
                    <activeaudioangle>false</activeaudioangle>
                    <clip id="clip-7"/>
                  </angle>
                  <angle>
                    <activevideoangle>false</activevideoangle>
                    <activeaudioangle>false</activeaudioangle>
                    <clip id="clip-8"/>
                  </angle>
                  <angle>
                    <activevideoangle>false</activevideoangle>
                    <activeaudioangle>false</activeaudioangle>
                    <clip id="clip-9"/>
                  </angle>
                  <masterclipid>clip-master</masterclipid>
                </multiclip>
              </clipitem>
              <clipitem id="cs-1170">
                <duration>93</duration>
                <rate>
                  <ntsc>false</ntsc>
                  <timebase>25</timebase>
                </rate>
                <in>106480</in>
                <out>106572</out>
                <start>106480</start>
                <end>106572</end>
                <file id="src-2"/>
                <sourcetrack>
                  <mediatype>video</mediatype>
                  <trackindex>1</trackindex>
                </sourcetrack>
                <multiclip id="mcs-1170">
                  <name>MCS-1170</name>
                  <masterclipid>clip-master</masterclipid>
                  <collapsed>false</collapsed>
                  <angle>
                    <activevideoangle>false</activevideoangle>
                    <activeaudioangle>false</activeaudioangle>
                    <clip id="clip-1"/>
                  </angle>
                  <angle>
                    <activevideoangle>true</activevideoangle>
                    <activeaudioangle>true</activeaudioangle>
                    <clip id="clip-2"/>
                  </angle>
                  <angle>
                    <activevideoangle>false</activevideoangle>
                    <activeaudioangle>false</activeaudioangle>
                    <clip id="clip-3"/>
                  </angle>
                  <angle>
                    <activevideoangle>false</activevideoangle>
                    <activeaudioangle>false</activeaudioangle>
                    <clip id="clip-4"/>
                  </angle>
                  <angle>
                    <activevideoangle>false</activevideoangle>
                    <activeaudioangle>false</activeaudioangle>
                    <clip id="clip-5"/>
                  </angle>
                  <angle>
                    <activevideoangle>false</activevideoangle>
                    <activeaudioangle>false</activeaudioangle>
                    <clip id="clip-6"/>
                  </angle>
                  <angle>
                    <activevideoangle>false</activevideoangle>
                    <activeaudioangle>false</activeaudioangle>
                    <clip id="clip-7"/>
                  </angle>
                  <angle>
                    <activevideoangle>false</activevideoangle>
                    <activeaudioangle>false</activeaudioangle>
                    <clip id="clip-8"/>
                  </angle>
                  <angle>
                    <activevideoangle>false</activevideoangle>
                    <activeaudioangle>false</activeaudioangle>
                    <clip id="clip-9"/>
                  </angle>
                  <masterclipid>clip-master</masterclipid>
                </multiclip>
              </clipitem>
              <clipitem id="cs-1171">
                <duration>71</duration>
                <rate>
                  <ntsc>false</ntsc>
                  <timebase>25</timebase>
                </rate>
                <in>106572</in>
                <out>106642</out>
                <start>106572</start>
                <end>106642</end>
                <file id="src-3"/>
                <sourcetrack>
                  <mediatype>video</mediatype>
                  <trackindex>1</trackindex>
                </sourcetrack>
                <multiclip id="mcs-1171">
                  <name>MCS-1171</name>
                  <masterclipid>clip-master</masterclipid>
                  <collapsed>false</collapsed>
                  <angle>
                    <activevideoangle>false</activevideoangle>
                    <activeaudioangle>false</activeaudioangle>
                    <clip id="clip-1"/>
                  </angle>
                  <angle>
                    <activevideoangle>false</activevideoangle>
                    <activeaudioangle>false</activeaudioangle>
                    <clip id="clip-2"/>
                  </angle>
                  <angle>
                    <activevideoangle>true</activevideoangle>
                    <activeaudioangle>true</activeaudioangle>
                    <clip id="clip-3"/>
                  </angle>
                  <angle>
                    <activevideoangle>false</activevideoangle>
                    <activeaudioangle>false</activeaudioangle>
                    <clip id="clip-4"/>
                  </angle>
                  <angle>
                    <activevideoangle>false</activevideoangle>
                    <activeaudioangle>false</activeaudioangle>
                    <clip id="clip-5"/>
                  </angle>
                  <angle>
                    <activevideoangle>false</activevideoangle>
                    <activeaudioangle>false</activeaudioangle>
                    <clip id="clip-6"/>
                  </angle>
                  <angle>
                    <activevideoangle>false</activevideoangle>
                    <activeaudioangle>false</activeaudioangle>
                    <clip id="clip-7"/>
                  </angle>
                  <angle>
                    <activevideoangle>false</activevideoangle>
                    <activeaudioangle>false</activeaudioangle>
                    <clip id="clip-8"/>
                  </angle>
                  <angle>
                    <activevideoangle>false</activevideoangle>
                    <activeaudioangle>false</activeaudioangle>
                    <clip id="clip-9"/>
                  </angle>
                  <masterclipid>clip-master</masterclipid>
                </multiclip>
              </clipitem>
              <clipitem id="cs-1172">
                <duration>87</duration>
                <rate>
                  <ntsc>false</ntsc>
                  <timebase>25</timebase>
                </rate>
                <in>106642</in>
                <out>106728</out>
                <start>106642</start>
                <end>106728</end>
                <file id="src-4"/>
                <sourcetrack>
                  <mediatype>video</mediatype>
                  <trackindex>1</trackindex>
                </sourcetrack>
                <multiclip id="mcs-1172">
                  <name>MCS-1172</name>
                  <masterclipid>clip-master</masterclipid>
                  <collapsed>false</collapsed>
                  <angle>
                    <activevideoangle>false</activevideoangle>
                    <activeaudioangle>false</activeaudioangle>
                    <clip id="clip-1"/>
                  </angle>
                  <angle>
                    <activevideoangle>false</activevideoangle>
                    <activeaudioangle>false</activeaudioangle>
                    <clip id="clip-2"/>
                  </angle>
                  <angle>
                    <activevideoangle>false</activevideoangle>
                    <activeaudioangle>false</activeaudioangle>
                    <clip id="clip-3"/>
                  </angle>
                  <angle>
                    <activevideoangle>true</activevideoangle>
                    <activeaudioangle>true</activeaudioangle>
                    <clip id="clip-4"/>
                  </angle>
                  <angle>
                    <activevideoangle>false</activevideoangle>
                    <activeaudioangle>false</activeaudioangle>
                    <clip id="clip-5"/>
                  </angle>
                  <angle>
                    <activevideoangle>false</activevideoangle>
                    <activeaudioangle>false</activeaudioangle>
                    <clip id="clip-6"/>
                  </angle>
                  <angle>
                    <activevideoangle>false</activevideoangle>
                    <activeaudioangle>false</activeaudioangle>
                    <clip id="clip-7"/>
                  </angle>
                  <angle>
                    <activevideoangle>false</activevideoangle>
                    <activeaudioangle>false</activeaudioangle>
                    <clip id="clip-8"/>
                  </angle>
                  <angle>
                    <activevideoangle>false</activevideoangle>
                    <activeaudioangle>false</activeaudioangle>
                    <clip id="clip-9"/>
                  </angle>
                  <masterclipid>clip-master</masterclipid>
                </multiclip>
              </clipitem>
              <clipitem id="cs-1173">
                <duration>270</duration>
                <rate>
                  <ntsc>false</ntsc>
                  <timebase>25</timebase>
                </rate>
                <in>106728</in>
                <out>106997</out>
                <start>106728</start>
                <end>106997</end>
                <file id="src-3"/>
                <sourcetrack>
                  <mediatype>video</mediatype>
                  <trackindex>1</trackindex>
                </sourcetrack>
                <multiclip id="mcs-1173">
                  <name>MCS-1173</name>
                  <masterclipid>clip-master</masterclipid>
                  <collapsed>false</collapsed>
                  <angle>
                    <activevideoangle>false</activevideoangle>
                    <activeaudioangle>false</activeaudioangle>
                    <clip id="clip-1"/>
                  </angle>
                  <angle>
                    <activevideoangle>false</activevideoangle>
                    <activeaudioangle>false</activeaudioangle>
                    <clip id="clip-2"/>
                  </angle>
                  <angle>
                    <activevideoangle>true</activevideoangle>
                    <activeaudioangle>true</activeaudioangle>
                    <clip id="clip-3"/>
                  </angle>
                  <angle>
                    <activevideoangle>false</activevideoangle>
                    <activeaudioangle>false</activeaudioangle>
                    <clip id="clip-4"/>
                  </angle>
                  <angle>
                    <activevideoangle>false</activevideoangle>
                    <activeaudioangle>false</activeaudioangle>
                    <clip id="clip-5"/>
                  </angle>
                  <angle>
                    <activevideoangle>false</activevideoangle>
                    <activeaudioangle>false</activeaudioangle>
                    <clip id="clip-6"/>
                  </angle>
                  <angle>
                    <activevideoangle>false</activevideoangle>
                    <activeaudioangle>false</activeaudioangle>
                    <clip id="clip-7"/>
                  </angle>
                  <angle>
                    <activevideoangle>false</activevideoangle>
                    <activeaudioangle>false</activeaudioangle>
                    <clip id="clip-8"/>
                  </angle>
                  <angle>
                    <activevideoangle>false</activevideoangle>
                    <activeaudioangle>false</activeaudioangle>
                    <clip id="clip-9"/>
                  </angle>
                  <masterclipid>clip-master</masterclipid>
                </multiclip>
              </clipitem>
              <clipitem id="cs-1174">
                <duration>135</duration>
                <rate>
                  <ntsc>false</ntsc>
                  <timebase>25</timebase>
                </rate>
                <in>106997</in>
                <out>107131</out>
                <start>106997</start>
                <end>107131</end>
                <file id="src-4"/>
                <sourcetrack>
                  <mediatype>video</mediatype>
                  <trackindex>1</trackindex>
                </sourcetrack>
                <multiclip id="mcs-1174">
                  <name>MCS-1174</name>
                  <masterclipid>clip-master</masterclipid>
                  <collapsed>false</collapsed>
                  <angle>
                    <activevideoangle>false</activevideoangle>
                    <activeaudioangle>false</activeaudioangle>
                    <clip id="clip-1"/>
                  </angle>
                  <angle>
                    <activevideoangle>false</activevideoangle>
                    <activeaudioangle>false</activeaudioangle>
                    <clip id="clip-2"/>
                  </angle>
                  <angle>
                    <activevideoangle>false</activevideoangle>
                    <activeaudioangle>false</activeaudioangle>
                    <clip id="clip-3"/>
                  </angle>
                  <angle>
                    <activevideoangle>true</activevideoangle>
                    <activeaudioangle>true</activeaudioangle>
                    <clip id="clip-4"/>
                  </angle>
                  <angle>
                    <activevideoangle>false</activevideoangle>
                    <activeaudioangle>false</activeaudioangle>
                    <clip id="clip-5"/>
                  </angle>
                  <angle>
                    <activevideoangle>false</activevideoangle>
                    <activeaudioangle>false</activeaudioangle>
                    <clip id="clip-6"/>
                  </angle>
                  <angle>
                    <activevideoangle>false</activevideoangle>
                    <activeaudioangle>false</activeaudioangle>
                    <clip id="clip-7"/>
                  </angle>
                  <angle>
                    <activevideoangle>false</activevideoangle>
                    <activeaudioangle>false</activeaudioangle>
                    <clip id="clip-8"/>
                  </angle>
                  <angle>
                    <activevideoangle>false</activevideoangle>
                    <activeaudioangle>false</activeaudioangle>
                    <clip id="clip-9"/>
                  </angle>
                  <masterclipid>clip-master</masterclipid>
                </multiclip>
              </clipitem>
              <clipitem id="cs-1175">
                <duration>78</duration>
                <rate>
                  <ntsc>false</ntsc>
                  <timebase>25</timebase>
                </rate>
                <in>107131</in>
                <out>107208</out>
                <start>107131</start>
                <end>107208</end>
                <file id="src-2"/>
                <sourcetrack>
                  <mediatype>video</mediatype>
                  <trackindex>1</trackindex>
                </sourcetrack>
                <multiclip id="mcs-1175">
                  <name>MCS-1175</name>
                  <masterclipid>clip-master</masterclipid>
                  <collapsed>false</collapsed>
                  <angle>
                    <activevideoangle>false</activevideoangle>
                    <activeaudioangle>false</activeaudioangle>
                    <clip id="clip-1"/>
                  </angle>
                  <angle>
                    <activevideoangle>true</activevideoangle>
                    <activeaudioangle>true</activeaudioangle>
                    <clip id="clip-2"/>
                  </angle>
                  <angle>
                    <activevideoangle>false</activevideoangle>
                    <activeaudioangle>false</activeaudioangle>
                    <clip id="clip-3"/>
                  </angle>
                  <angle>
                    <activevideoangle>false</activevideoangle>
                    <activeaudioangle>false</activeaudioangle>
                    <clip id="clip-4"/>
                  </angle>
                  <angle>
                    <activevideoangle>false</activevideoangle>
                    <activeaudioangle>false</activeaudioangle>
                    <clip id="clip-5"/>
                  </angle>
                  <angle>
                    <activevideoangle>false</activevideoangle>
                    <activeaudioangle>false</activeaudioangle>
                    <clip id="clip-6"/>
                  </angle>
                  <angle>
                    <activevideoangle>false</activevideoangle>
                    <activeaudioangle>false</activeaudioangle>
                    <clip id="clip-7"/>
                  </angle>
                  <angle>
                    <activevideoangle>false</activevideoangle>
                    <activeaudioangle>false</activeaudioangle>
                    <clip id="clip-8"/>
                  </angle>
                  <angle>
                    <activevideoangle>false</activevideoangle>
                    <activeaudioangle>false</activeaudioangle>
                    <clip id="clip-9"/>
                  </angle>
                  <masterclipid>clip-master</masterclipid>
                </multiclip>
              </clipitem>
              <clipitem id="cs-1176">
                <duration>75</duration>
                <rate>
                  <ntsc>false</ntsc>
                  <timebase>25</timebase>
                </rate>
                <in>107208</in>
                <out>107282</out>
                <start>107208</start>
                <end>107282</end>
                <file id="src-4"/>
                <sourcetrack>
                  <mediatype>video</mediatype>
                  <trackindex>1</trackindex>
                </sourcetrack>
                <multiclip id="mcs-1176">
                  <name>MCS-1176</name>
                  <masterclipid>clip-master</masterclipid>
                  <collapsed>false</collapsed>
                  <angle>
                    <activevideoangle>false</activevideoangle>
                    <activeaudioangle>false</activeaudioangle>
                    <clip id="clip-1"/>
                  </angle>
                  <angle>
                    <activevideoangle>false</activevideoangle>
                    <activeaudioangle>false</activeaudioangle>
                    <clip id="clip-2"/>
                  </angle>
                  <angle>
                    <activevideoangle>false</activevideoangle>
                    <activeaudioangle>false</activeaudioangle>
                    <clip id="clip-3"/>
                  </angle>
                  <angle>
                    <activevideoangle>true</activevideoangle>
                    <activeaudioangle>true</activeaudioangle>
                    <clip id="clip-4"/>
                  </angle>
                  <angle>
                    <activevideoangle>false</activevideoangle>
                    <activeaudioangle>false</activeaudioangle>
                    <clip id="clip-5"/>
                  </angle>
                  <angle>
                    <activevideoangle>false</activevideoangle>
                    <activeaudioangle>false</activeaudioangle>
                    <clip id="clip-6"/>
                  </angle>
                  <angle>
                    <activevideoangle>false</activevideoangle>
                    <activeaudioangle>false</activeaudioangle>
                    <clip id="clip-7"/>
                  </angle>
                  <angle>
                    <activevideoangle>false</activevideoangle>
                    <activeaudioangle>false</activeaudioangle>
                    <clip id="clip-8"/>
                  </angle>
                  <angle>
                    <activevideoangle>false</activevideoangle>
                    <activeaudioangle>false</activeaudioangle>
                    <clip id="clip-9"/>
                  </angle>
                  <masterclipid>clip-master</masterclipid>
                </multiclip>
              </clipitem>
              <clipitem id="cs-1177">
                <duration>114</duration>
                <rate>
                  <ntsc>false</ntsc>
                  <timebase>25</timebase>
                </rate>
                <in>107282</in>
                <out>107395</out>
                <start>107282</start>
                <end>107395</end>
                <file id="src-6"/>
                <sourcetrack>
                  <mediatype>video</mediatype>
                  <trackindex>1</trackindex>
                </sourcetrack>
                <multiclip id="mcs-1177">
                  <name>MCS-1177</name>
                  <masterclipid>clip-master</masterclipid>
                  <collapsed>false</collapsed>
                  <angle>
                    <activevideoangle>false</activevideoangle>
                    <activeaudioangle>false</activeaudioangle>
                    <clip id="clip-1"/>
                  </angle>
                  <angle>
                    <activevideoangle>false</activevideoangle>
                    <activeaudioangle>false</activeaudioangle>
                    <clip id="clip-2"/>
                  </angle>
                  <angle>
                    <activevideoangle>false</activevideoangle>
                    <activeaudioangle>false</activeaudioangle>
                    <clip id="clip-3"/>
                  </angle>
                  <angle>
                    <activevideoangle>false</activevideoangle>
                    <activeaudioangle>false</activeaudioangle>
                    <clip id="clip-4"/>
                  </angle>
                  <angle>
                    <activevideoangle>false</activevideoangle>
                    <activeaudioangle>false</activeaudioangle>
                    <clip id="clip-5"/>
                  </angle>
                  <angle>
                    <activevideoangle>true</activevideoangle>
                    <activeaudioangle>true</activeaudioangle>
                    <clip id="clip-6"/>
                  </angle>
                  <angle>
                    <activevideoangle>false</activevideoangle>
                    <activeaudioangle>false</activeaudioangle>
                    <clip id="clip-7"/>
                  </angle>
                  <angle>
                    <activevideoangle>false</activevideoangle>
                    <activeaudioangle>false</activeaudioangle>
                    <clip id="clip-8"/>
                  </angle>
                  <angle>
                    <activevideoangle>false</activevideoangle>
                    <activeaudioangle>false</activeaudioangle>
                    <clip id="clip-9"/>
                  </angle>
                  <masterclipid>clip-master</masterclipid>
                </multiclip>
              </clipitem>
              <clipitem id="cs-1178">
                <duration>85</duration>
                <rate>
                  <ntsc>false</ntsc>
                  <timebase>25</timebase>
                </rate>
                <in>107395</in>
                <out>107479</out>
                <start>107395</start>
                <end>107479</end>
                <file id="src-3"/>
                <sourcetrack>
                  <mediatype>video</mediatype>
                  <trackindex>1</trackindex>
                </sourcetrack>
                <multiclip id="mcs-1178">
                  <name>MCS-1178</name>
                  <masterclipid>clip-master</masterclipid>
                  <collapsed>false</collapsed>
                  <angle>
                    <activevideoangle>false</activevideoangle>
                    <activeaudioangle>false</activeaudioangle>
                    <clip id="clip-1"/>
                  </angle>
                  <angle>
                    <activevideoangle>false</activevideoangle>
                    <activeaudioangle>false</activeaudioangle>
                    <clip id="clip-2"/>
                  </angle>
                  <angle>
                    <activevideoangle>true</activevideoangle>
                    <activeaudioangle>true</activeaudioangle>
                    <clip id="clip-3"/>
                  </angle>
                  <angle>
                    <activevideoangle>false</activevideoangle>
                    <activeaudioangle>false</activeaudioangle>
                    <clip id="clip-4"/>
                  </angle>
                  <angle>
                    <activevideoangle>false</activevideoangle>
                    <activeaudioangle>false</activeaudioangle>
                    <clip id="clip-5"/>
                  </angle>
                  <angle>
                    <activevideoangle>false</activevideoangle>
                    <activeaudioangle>false</activeaudioangle>
                    <clip id="clip-6"/>
                  </angle>
                  <angle>
                    <activevideoangle>false</activevideoangle>
                    <activeaudioangle>false</activeaudioangle>
                    <clip id="clip-7"/>
                  </angle>
                  <angle>
                    <activevideoangle>false</activevideoangle>
                    <activeaudioangle>false</activeaudioangle>
                    <clip id="clip-8"/>
                  </angle>
                  <angle>
                    <activevideoangle>false</activevideoangle>
                    <activeaudioangle>false</activeaudioangle>
                    <clip id="clip-9"/>
                  </angle>
                  <masterclipid>clip-master</masterclipid>
                </multiclip>
              </clipitem>
              <clipitem id="cs-1179">
                <duration>48</duration>
                <rate>
                  <ntsc>false</ntsc>
                  <timebase>25</timebase>
                </rate>
                <in>107479</in>
                <out>107526</out>
                <start>107479</start>
                <end>107526</end>
                <file id="src-2"/>
                <sourcetrack>
                  <mediatype>video</mediatype>
                  <trackindex>1</trackindex>
                </sourcetrack>
                <multiclip id="mcs-1179">
                  <name>MCS-1179</name>
                  <masterclipid>clip-master</masterclipid>
                  <collapsed>false</collapsed>
                  <angle>
                    <activevideoangle>false</activevideoangle>
                    <activeaudioangle>false</activeaudioangle>
                    <clip id="clip-1"/>
                  </angle>
                  <angle>
                    <activevideoangle>true</activevideoangle>
                    <activeaudioangle>true</activeaudioangle>
                    <clip id="clip-2"/>
                  </angle>
                  <angle>
                    <activevideoangle>false</activevideoangle>
                    <activeaudioangle>false</activeaudioangle>
                    <clip id="clip-3"/>
                  </angle>
                  <angle>
                    <activevideoangle>false</activevideoangle>
                    <activeaudioangle>false</activeaudioangle>
                    <clip id="clip-4"/>
                  </angle>
                  <angle>
                    <activevideoangle>false</activevideoangle>
                    <activeaudioangle>false</activeaudioangle>
                    <clip id="clip-5"/>
                  </angle>
                  <angle>
                    <activevideoangle>false</activevideoangle>
                    <activeaudioangle>false</activeaudioangle>
                    <clip id="clip-6"/>
                  </angle>
                  <angle>
                    <activevideoangle>false</activevideoangle>
                    <activeaudioangle>false</activeaudioangle>
                    <clip id="clip-7"/>
                  </angle>
                  <angle>
                    <activevideoangle>false</activevideoangle>
                    <activeaudioangle>false</activeaudioangle>
                    <clip id="clip-8"/>
                  </angle>
                  <angle>
                    <activevideoangle>false</activevideoangle>
                    <activeaudioangle>false</activeaudioangle>
                    <clip id="clip-9"/>
                  </angle>
                  <masterclipid>clip-master</masterclipid>
                </multiclip>
              </clipitem>
              <clipitem id="cs-1180">
                <duration>45</duration>
                <rate>
                  <ntsc>false</ntsc>
                  <timebase>25</timebase>
                </rate>
                <in>107526</in>
                <out>107570</out>
                <start>107526</start>
                <end>107570</end>
                <file id="src-7"/>
                <sourcetrack>
                  <mediatype>video</mediatype>
                  <trackindex>1</trackindex>
                </sourcetrack>
                <multiclip id="mcs-1180">
                  <name>MCS-1180</name>
                  <masterclipid>clip-master</masterclipid>
                  <collapsed>false</collapsed>
                  <angle>
                    <activevideoangle>false</activevideoangle>
                    <activeaudioangle>false</activeaudioangle>
                    <clip id="clip-1"/>
                  </angle>
                  <angle>
                    <activevideoangle>false</activevideoangle>
                    <activeaudioangle>false</activeaudioangle>
                    <clip id="clip-2"/>
                  </angle>
                  <angle>
                    <activevideoangle>false</activevideoangle>
                    <activeaudioangle>false</activeaudioangle>
                    <clip id="clip-3"/>
                  </angle>
                  <angle>
                    <activevideoangle>false</activevideoangle>
                    <activeaudioangle>false</activeaudioangle>
                    <clip id="clip-4"/>
                  </angle>
                  <angle>
                    <activevideoangle>false</activevideoangle>
                    <activeaudioangle>false</activeaudioangle>
                    <clip id="clip-5"/>
                  </angle>
                  <angle>
                    <activevideoangle>false</activevideoangle>
                    <activeaudioangle>false</activeaudioangle>
                    <clip id="clip-6"/>
                  </angle>
                  <angle>
                    <activevideoangle>true</activevideoangle>
                    <activeaudioangle>true</activeaudioangle>
                    <clip id="clip-7"/>
                  </angle>
                  <angle>
                    <activevideoangle>false</activevideoangle>
                    <activeaudioangle>false</activeaudioangle>
                    <clip id="clip-8"/>
                  </angle>
                  <angle>
                    <activevideoangle>false</activevideoangle>
                    <activeaudioangle>false</activeaudioangle>
                    <clip id="clip-9"/>
                  </angle>
                  <masterclipid>clip-master</masterclipid>
                </multiclip>
              </clipitem>
              <clipitem id="cs-1181">
                <duration>43</duration>
                <rate>
                  <ntsc>false</ntsc>
                  <timebase>25</timebase>
                </rate>
                <in>107570</in>
                <out>107612</out>
                <start>107570</start>
                <end>107612</end>
                <file id="src-4"/>
                <sourcetrack>
                  <mediatype>video</mediatype>
                  <trackindex>1</trackindex>
                </sourcetrack>
                <multiclip id="mcs-1181">
                  <name>MCS-1181</name>
                  <masterclipid>clip-master</masterclipid>
                  <collapsed>false</collapsed>
                  <angle>
                    <activevideoangle>false</activevideoangle>
                    <activeaudioangle>false</activeaudioangle>
                    <clip id="clip-1"/>
                  </angle>
                  <angle>
                    <activevideoangle>false</activevideoangle>
                    <activeaudioangle>false</activeaudioangle>
                    <clip id="clip-2"/>
                  </angle>
                  <angle>
                    <activevideoangle>false</activevideoangle>
                    <activeaudioangle>false</activeaudioangle>
                    <clip id="clip-3"/>
                  </angle>
                  <angle>
                    <activevideoangle>true</activevideoangle>
                    <activeaudioangle>true</activeaudioangle>
                    <clip id="clip-4"/>
                  </angle>
                  <angle>
                    <activevideoangle>false</activevideoangle>
                    <activeaudioangle>false</activeaudioangle>
                    <clip id="clip-5"/>
                  </angle>
                  <angle>
                    <activevideoangle>false</activevideoangle>
                    <activeaudioangle>false</activeaudioangle>
                    <clip id="clip-6"/>
                  </angle>
                  <angle>
                    <activevideoangle>false</activevideoangle>
                    <activeaudioangle>false</activeaudioangle>
                    <clip id="clip-7"/>
                  </angle>
                  <angle>
                    <activevideoangle>false</activevideoangle>
                    <activeaudioangle>false</activeaudioangle>
                    <clip id="clip-8"/>
                  </angle>
                  <angle>
                    <activevideoangle>false</activevideoangle>
                    <activeaudioangle>false</activeaudioangle>
                    <clip id="clip-9"/>
                  </angle>
                  <masterclipid>clip-master</masterclipid>
                </multiclip>
              </clipitem>
              <clipitem id="cs-1182">
                <duration>73</duration>
                <rate>
                  <ntsc>false</ntsc>
                  <timebase>25</timebase>
                </rate>
                <in>107612</in>
                <out>107684</out>
                <start>107612</start>
                <end>107684</end>
                <file id="src-1"/>
                <sourcetrack>
                  <mediatype>video</mediatype>
                  <trackindex>1</trackindex>
                </sourcetrack>
                <multiclip id="mcs-1182">
                  <name>MCS-1182</name>
                  <masterclipid>clip-master</masterclipid>
                  <collapsed>false</collapsed>
                  <angle>
                    <activevideoangle>true</activevideoangle>
                    <activeaudioangle>true</activeaudioangle>
                    <clip id="clip-1"/>
                  </angle>
                  <angle>
                    <activevideoangle>false</activevideoangle>
                    <activeaudioangle>false</activeaudioangle>
                    <clip id="clip-2"/>
                  </angle>
                  <angle>
                    <activevideoangle>false</activevideoangle>
                    <activeaudioangle>false</activeaudioangle>
                    <clip id="clip-3"/>
                  </angle>
                  <angle>
                    <activevideoangle>false</activevideoangle>
                    <activeaudioangle>false</activeaudioangle>
                    <clip id="clip-4"/>
                  </angle>
                  <angle>
                    <activevideoangle>false</activevideoangle>
                    <activeaudioangle>false</activeaudioangle>
                    <clip id="clip-5"/>
                  </angle>
                  <angle>
                    <activevideoangle>false</activevideoangle>
                    <activeaudioangle>false</activeaudioangle>
                    <clip id="clip-6"/>
                  </angle>
                  <angle>
                    <activevideoangle>false</activevideoangle>
                    <activeaudioangle>false</activeaudioangle>
                    <clip id="clip-7"/>
                  </angle>
                  <angle>
                    <activevideoangle>false</activevideoangle>
                    <activeaudioangle>false</activeaudioangle>
                    <clip id="clip-8"/>
                  </angle>
                  <angle>
                    <activevideoangle>false</activevideoangle>
                    <activeaudioangle>false</activeaudioangle>
                    <clip id="clip-9"/>
                  </angle>
                  <masterclipid>clip-master</masterclipid>
                </multiclip>
              </clipitem>
              <clipitem id="cs-1183">
                <duration>58</duration>
                <rate>
                  <ntsc>false</ntsc>
                  <timebase>25</timebase>
                </rate>
                <in>107684</in>
                <out>107741</out>
                <start>107684</start>
                <end>107741</end>
                <file id="src-4"/>
                <sourcetrack>
                  <mediatype>video</mediatype>
                  <trackindex>1</trackindex>
                </sourcetrack>
                <multiclip id="mcs-1183">
                  <name>MCS-1183</name>
                  <masterclipid>clip-master</masterclipid>
                  <collapsed>false</collapsed>
                  <angle>
                    <activevideoangle>false</activevideoangle>
                    <activeaudioangle>false</activeaudioangle>
                    <clip id="clip-1"/>
                  </angle>
                  <angle>
                    <activevideoangle>false</activevideoangle>
                    <activeaudioangle>false</activeaudioangle>
                    <clip id="clip-2"/>
                  </angle>
                  <angle>
                    <activevideoangle>false</activevideoangle>
                    <activeaudioangle>false</activeaudioangle>
                    <clip id="clip-3"/>
                  </angle>
                  <angle>
                    <activevideoangle>true</activevideoangle>
                    <activeaudioangle>true</activeaudioangle>
                    <clip id="clip-4"/>
                  </angle>
                  <angle>
                    <activevideoangle>false</activevideoangle>
                    <activeaudioangle>false</activeaudioangle>
                    <clip id="clip-5"/>
                  </angle>
                  <angle>
                    <activevideoangle>false</activevideoangle>
                    <activeaudioangle>false</activeaudioangle>
                    <clip id="clip-6"/>
                  </angle>
                  <angle>
                    <activevideoangle>false</activevideoangle>
                    <activeaudioangle>false</activeaudioangle>
                    <clip id="clip-7"/>
                  </angle>
                  <angle>
                    <activevideoangle>false</activevideoangle>
                    <activeaudioangle>false</activeaudioangle>
                    <clip id="clip-8"/>
                  </angle>
                  <angle>
                    <activevideoangle>false</activevideoangle>
                    <activeaudioangle>false</activeaudioangle>
                    <clip id="clip-9"/>
                  </angle>
                  <masterclipid>clip-master</masterclipid>
                </multiclip>
              </clipitem>
              <clipitem id="cs-1184">
                <duration>72</duration>
                <rate>
                  <ntsc>false</ntsc>
                  <timebase>25</timebase>
                </rate>
                <in>107741</in>
                <out>107812</out>
                <start>107741</start>
                <end>107812</end>
                <file id="src-2"/>
                <sourcetrack>
                  <mediatype>video</mediatype>
                  <trackindex>1</trackindex>
                </sourcetrack>
                <multiclip id="mcs-1184">
                  <name>MCS-1184</name>
                  <masterclipid>clip-master</masterclipid>
                  <collapsed>false</collapsed>
                  <angle>
                    <activevideoangle>false</activevideoangle>
                    <activeaudioangle>false</activeaudioangle>
                    <clip id="clip-1"/>
                  </angle>
                  <angle>
                    <activevideoangle>true</activevideoangle>
                    <activeaudioangle>true</activeaudioangle>
                    <clip id="clip-2"/>
                  </angle>
                  <angle>
                    <activevideoangle>false</activevideoangle>
                    <activeaudioangle>false</activeaudioangle>
                    <clip id="clip-3"/>
                  </angle>
                  <angle>
                    <activevideoangle>false</activevideoangle>
                    <activeaudioangle>false</activeaudioangle>
                    <clip id="clip-4"/>
                  </angle>
                  <angle>
                    <activevideoangle>false</activevideoangle>
                    <activeaudioangle>false</activeaudioangle>
                    <clip id="clip-5"/>
                  </angle>
                  <angle>
                    <activevideoangle>false</activevideoangle>
                    <activeaudioangle>false</activeaudioangle>
                    <clip id="clip-6"/>
                  </angle>
                  <angle>
                    <activevideoangle>false</activevideoangle>
                    <activeaudioangle>false</activeaudioangle>
                    <clip id="clip-7"/>
                  </angle>
                  <angle>
                    <activevideoangle>false</activevideoangle>
                    <activeaudioangle>false</activeaudioangle>
                    <clip id="clip-8"/>
                  </angle>
                  <angle>
                    <activevideoangle>false</activevideoangle>
                    <activeaudioangle>false</activeaudioangle>
                    <clip id="clip-9"/>
                  </angle>
                  <masterclipid>clip-master</masterclipid>
                </multiclip>
              </clipitem>
              <clipitem id="cs-1185">
                <duration>70</duration>
                <rate>
                  <ntsc>false</ntsc>
                  <timebase>25</timebase>
                </rate>
                <in>107812</in>
                <out>107881</out>
                <start>107812</start>
                <end>107881</end>
                <file id="src-6"/>
                <sourcetrack>
                  <mediatype>video</mediatype>
                  <trackindex>1</trackindex>
                </sourcetrack>
                <multiclip id="mcs-1185">
                  <name>MCS-1185</name>
                  <masterclipid>clip-master</masterclipid>
                  <collapsed>false</collapsed>
                  <angle>
                    <activevideoangle>false</activevideoangle>
                    <activeaudioangle>false</activeaudioangle>
                    <clip id="clip-1"/>
                  </angle>
                  <angle>
                    <activevideoangle>false</activevideoangle>
                    <activeaudioangle>false</activeaudioangle>
                    <clip id="clip-2"/>
                  </angle>
                  <angle>
                    <activevideoangle>false</activevideoangle>
                    <activeaudioangle>false</activeaudioangle>
                    <clip id="clip-3"/>
                  </angle>
                  <angle>
                    <activevideoangle>false</activevideoangle>
                    <activeaudioangle>false</activeaudioangle>
                    <clip id="clip-4"/>
                  </angle>
                  <angle>
                    <activevideoangle>false</activevideoangle>
                    <activeaudioangle>false</activeaudioangle>
                    <clip id="clip-5"/>
                  </angle>
                  <angle>
                    <activevideoangle>true</activevideoangle>
                    <activeaudioangle>true</activeaudioangle>
                    <clip id="clip-6"/>
                  </angle>
                  <angle>
                    <activevideoangle>false</activevideoangle>
                    <activeaudioangle>false</activeaudioangle>
                    <clip id="clip-7"/>
                  </angle>
                  <angle>
                    <activevideoangle>false</activevideoangle>
                    <activeaudioangle>false</activeaudioangle>
                    <clip id="clip-8"/>
                  </angle>
                  <angle>
                    <activevideoangle>false</activevideoangle>
                    <activeaudioangle>false</activeaudioangle>
                    <clip id="clip-9"/>
                  </angle>
                  <masterclipid>clip-master</masterclipid>
                </multiclip>
              </clipitem>
              <clipitem id="cs-1186">
                <duration>71</duration>
                <rate>
                  <ntsc>false</ntsc>
                  <timebase>25</timebase>
                </rate>
                <in>107881</in>
                <out>107951</out>
                <start>107881</start>
                <end>107951</end>
                <file id="src-4"/>
                <sourcetrack>
                  <mediatype>video</mediatype>
                  <trackindex>1</trackindex>
                </sourcetrack>
                <multiclip id="mcs-1186">
                  <name>MCS-1186</name>
                  <masterclipid>clip-master</masterclipid>
                  <collapsed>false</collapsed>
                  <angle>
                    <activevideoangle>false</activevideoangle>
                    <activeaudioangle>false</activeaudioangle>
                    <clip id="clip-1"/>
                  </angle>
                  <angle>
                    <activevideoangle>false</activevideoangle>
                    <activeaudioangle>false</activeaudioangle>
                    <clip id="clip-2"/>
                  </angle>
                  <angle>
                    <activevideoangle>false</activevideoangle>
                    <activeaudioangle>false</activeaudioangle>
                    <clip id="clip-3"/>
                  </angle>
                  <angle>
                    <activevideoangle>true</activevideoangle>
                    <activeaudioangle>true</activeaudioangle>
                    <clip id="clip-4"/>
                  </angle>
                  <angle>
                    <activevideoangle>false</activevideoangle>
                    <activeaudioangle>false</activeaudioangle>
                    <clip id="clip-5"/>
                  </angle>
                  <angle>
                    <activevideoangle>false</activevideoangle>
                    <activeaudioangle>false</activeaudioangle>
                    <clip id="clip-6"/>
                  </angle>
                  <angle>
                    <activevideoangle>false</activevideoangle>
                    <activeaudioangle>false</activeaudioangle>
                    <clip id="clip-7"/>
                  </angle>
                  <angle>
                    <activevideoangle>false</activevideoangle>
                    <activeaudioangle>false</activeaudioangle>
                    <clip id="clip-8"/>
                  </angle>
                  <angle>
                    <activevideoangle>false</activevideoangle>
                    <activeaudioangle>false</activeaudioangle>
                    <clip id="clip-9"/>
                  </angle>
                  <masterclipid>clip-master</masterclipid>
                </multiclip>
              </clipitem>
              <clipitem id="cs-1187">
                <duration>50</duration>
                <rate>
                  <ntsc>false</ntsc>
                  <timebase>25</timebase>
                </rate>
                <in>107951</in>
                <out>108000</out>
                <start>107951</start>
                <end>108000</end>
                <file id="src-7"/>
                <sourcetrack>
                  <mediatype>video</mediatype>
                  <trackindex>1</trackindex>
                </sourcetrack>
                <multiclip id="mcs-1187">
                  <name>MCS-1187</name>
                  <masterclipid>clip-master</masterclipid>
                  <collapsed>false</collapsed>
                  <angle>
                    <activevideoangle>false</activevideoangle>
                    <activeaudioangle>false</activeaudioangle>
                    <clip id="clip-1"/>
                  </angle>
                  <angle>
                    <activevideoangle>false</activevideoangle>
                    <activeaudioangle>false</activeaudioangle>
                    <clip id="clip-2"/>
                  </angle>
                  <angle>
                    <activevideoangle>false</activevideoangle>
                    <activeaudioangle>false</activeaudioangle>
                    <clip id="clip-3"/>
                  </angle>
                  <angle>
                    <activevideoangle>false</activevideoangle>
                    <activeaudioangle>false</activeaudioangle>
                    <clip id="clip-4"/>
                  </angle>
                  <angle>
                    <activevideoangle>false</activevideoangle>
                    <activeaudioangle>false</activeaudioangle>
                    <clip id="clip-5"/>
                  </angle>
                  <angle>
                    <activevideoangle>false</activevideoangle>
                    <activeaudioangle>false</activeaudioangle>
                    <clip id="clip-6"/>
                  </angle>
                  <angle>
                    <activevideoangle>true</activevideoangle>
                    <activeaudioangle>true</activeaudioangle>
                    <clip id="clip-7"/>
                  </angle>
                  <angle>
                    <activevideoangle>false</activevideoangle>
                    <activeaudioangle>false</activeaudioangle>
                    <clip id="clip-8"/>
                  </angle>
                  <angle>
                    <activevideoangle>false</activevideoangle>
                    <activeaudioangle>false</activeaudioangle>
                    <clip id="clip-9"/>
                  </angle>
                  <masterclipid>clip-master</masterclipid>
                </multiclip>
              </clipitem>
              <clipitem id="cs-1188">
                <duration>100</duration>
                <rate>
                  <ntsc>false</ntsc>
                  <timebase>25</timebase>
                </rate>
                <in>108000</in>
                <out>108099</out>
                <start>108000</start>
                <end>108099</end>
                <file id="src-2"/>
                <sourcetrack>
                  <mediatype>video</mediatype>
                  <trackindex>1</trackindex>
                </sourcetrack>
                <multiclip id="mcs-1188">
                  <name>MCS-1188</name>
                  <masterclipid>clip-master</masterclipid>
                  <collapsed>false</collapsed>
                  <angle>
                    <activevideoangle>false</activevideoangle>
                    <activeaudioangle>false</activeaudioangle>
                    <clip id="clip-1"/>
                  </angle>
                  <angle>
                    <activevideoangle>true</activevideoangle>
                    <activeaudioangle>true</activeaudioangle>
                    <clip id="clip-2"/>
                  </angle>
                  <angle>
                    <activevideoangle>false</activevideoangle>
                    <activeaudioangle>false</activeaudioangle>
                    <clip id="clip-3"/>
                  </angle>
                  <angle>
                    <activevideoangle>false</activevideoangle>
                    <activeaudioangle>false</activeaudioangle>
                    <clip id="clip-4"/>
                  </angle>
                  <angle>
                    <activevideoangle>false</activevideoangle>
                    <activeaudioangle>false</activeaudioangle>
                    <clip id="clip-5"/>
                  </angle>
                  <angle>
                    <activevideoangle>false</activevideoangle>
                    <activeaudioangle>false</activeaudioangle>
                    <clip id="clip-6"/>
                  </angle>
                  <angle>
                    <activevideoangle>false</activevideoangle>
                    <activeaudioangle>false</activeaudioangle>
                    <clip id="clip-7"/>
                  </angle>
                  <angle>
                    <activevideoangle>false</activevideoangle>
                    <activeaudioangle>false</activeaudioangle>
                    <clip id="clip-8"/>
                  </angle>
                  <angle>
                    <activevideoangle>false</activevideoangle>
                    <activeaudioangle>false</activeaudioangle>
                    <clip id="clip-9"/>
                  </angle>
                  <masterclipid>clip-master</masterclipid>
                </multiclip>
              </clipitem>
              <clipitem id="cs-1189">
                <duration>70</duration>
                <rate>
                  <ntsc>false</ntsc>
                  <timebase>25</timebase>
                </rate>
                <in>108099</in>
                <out>108168</out>
                <start>108099</start>
                <end>108168</end>
                <file id="src-4"/>
                <sourcetrack>
                  <mediatype>video</mediatype>
                  <trackindex>1</trackindex>
                </sourcetrack>
                <multiclip id="mcs-1189">
                  <name>MCS-1189</name>
                  <masterclipid>clip-master</masterclipid>
                  <collapsed>false</collapsed>
                  <angle>
                    <activevideoangle>false</activevideoangle>
                    <activeaudioangle>false</activeaudioangle>
                    <clip id="clip-1"/>
                  </angle>
                  <angle>
                    <activevideoangle>false</activevideoangle>
                    <activeaudioangle>false</activeaudioangle>
                    <clip id="clip-2"/>
                  </angle>
                  <angle>
                    <activevideoangle>false</activevideoangle>
                    <activeaudioangle>false</activeaudioangle>
                    <clip id="clip-3"/>
                  </angle>
                  <angle>
                    <activevideoangle>true</activevideoangle>
                    <activeaudioangle>true</activeaudioangle>
                    <clip id="clip-4"/>
                  </angle>
                  <angle>
                    <activevideoangle>false</activevideoangle>
                    <activeaudioangle>false</activeaudioangle>
                    <clip id="clip-5"/>
                  </angle>
                  <angle>
                    <activevideoangle>false</activevideoangle>
                    <activeaudioangle>false</activeaudioangle>
                    <clip id="clip-6"/>
                  </angle>
                  <angle>
                    <activevideoangle>false</activevideoangle>
                    <activeaudioangle>false</activeaudioangle>
                    <clip id="clip-7"/>
                  </angle>
                  <angle>
                    <activevideoangle>false</activevideoangle>
                    <activeaudioangle>false</activeaudioangle>
                    <clip id="clip-8"/>
                  </angle>
                  <angle>
                    <activevideoangle>false</activevideoangle>
                    <activeaudioangle>false</activeaudioangle>
                    <clip id="clip-9"/>
                  </angle>
                  <masterclipid>clip-master</masterclipid>
                </multiclip>
              </clipitem>
              <clipitem id="cs-1190">
                <duration>77</duration>
                <rate>
                  <ntsc>false</ntsc>
                  <timebase>25</timebase>
                </rate>
                <in>108168</in>
                <out>108244</out>
                <start>108168</start>
                <end>108244</end>
                <file id="src-8"/>
                <sourcetrack>
                  <mediatype>video</mediatype>
                  <trackindex>1</trackindex>
                </sourcetrack>
                <multiclip id="mcs-1190">
                  <name>MCS-1190</name>
                  <masterclipid>clip-master</masterclipid>
                  <collapsed>false</collapsed>
                  <angle>
                    <activevideoangle>false</activevideoangle>
                    <activeaudioangle>false</activeaudioangle>
                    <clip id="clip-1"/>
                  </angle>
                  <angle>
                    <activevideoangle>false</activevideoangle>
                    <activeaudioangle>false</activeaudioangle>
                    <clip id="clip-2"/>
                  </angle>
                  <angle>
                    <activevideoangle>false</activevideoangle>
                    <activeaudioangle>false</activeaudioangle>
                    <clip id="clip-3"/>
                  </angle>
                  <angle>
                    <activevideoangle>false</activevideoangle>
                    <activeaudioangle>false</activeaudioangle>
                    <clip id="clip-4"/>
                  </angle>
                  <angle>
                    <activevideoangle>false</activevideoangle>
                    <activeaudioangle>false</activeaudioangle>
                    <clip id="clip-5"/>
                  </angle>
                  <angle>
                    <activevideoangle>false</activevideoangle>
                    <activeaudioangle>false</activeaudioangle>
                    <clip id="clip-6"/>
                  </angle>
                  <angle>
                    <activevideoangle>false</activevideoangle>
                    <activeaudioangle>false</activeaudioangle>
                    <clip id="clip-7"/>
                  </angle>
                  <angle>
                    <activevideoangle>true</activevideoangle>
                    <activeaudioangle>true</activeaudioangle>
                    <clip id="clip-8"/>
                  </angle>
                  <angle>
                    <activevideoangle>false</activevideoangle>
                    <activeaudioangle>false</activeaudioangle>
                    <clip id="clip-9"/>
                  </angle>
                  <masterclipid>clip-master</masterclipid>
                </multiclip>
              </clipitem>
              <clipitem id="cs-1191">
                <duration>58</duration>
                <rate>
                  <ntsc>false</ntsc>
                  <timebase>25</timebase>
                </rate>
                <in>108244</in>
                <out>108301</out>
                <start>108244</start>
                <end>108301</end>
                <file id="src-3"/>
                <sourcetrack>
                  <mediatype>video</mediatype>
                  <trackindex>1</trackindex>
                </sourcetrack>
                <multiclip id="mcs-1191">
                  <name>MCS-1191</name>
                  <masterclipid>clip-master</masterclipid>
                  <collapsed>false</collapsed>
                  <angle>
                    <activevideoangle>false</activevideoangle>
                    <activeaudioangle>false</activeaudioangle>
                    <clip id="clip-1"/>
                  </angle>
                  <angle>
                    <activevideoangle>false</activevideoangle>
                    <activeaudioangle>false</activeaudioangle>
                    <clip id="clip-2"/>
                  </angle>
                  <angle>
                    <activevideoangle>true</activevideoangle>
                    <activeaudioangle>true</activeaudioangle>
                    <clip id="clip-3"/>
                  </angle>
                  <angle>
                    <activevideoangle>false</activevideoangle>
                    <activeaudioangle>false</activeaudioangle>
                    <clip id="clip-4"/>
                  </angle>
                  <angle>
                    <activevideoangle>false</activevideoangle>
                    <activeaudioangle>false</activeaudioangle>
                    <clip id="clip-5"/>
                  </angle>
                  <angle>
                    <activevideoangle>false</activevideoangle>
                    <activeaudioangle>false</activeaudioangle>
                    <clip id="clip-6"/>
                  </angle>
                  <angle>
                    <activevideoangle>false</activevideoangle>
                    <activeaudioangle>false</activeaudioangle>
                    <clip id="clip-7"/>
                  </angle>
                  <angle>
                    <activevideoangle>false</activevideoangle>
                    <activeaudioangle>false</activeaudioangle>
                    <clip id="clip-8"/>
                  </angle>
                  <angle>
                    <activevideoangle>false</activevideoangle>
                    <activeaudioangle>false</activeaudioangle>
                    <clip id="clip-9"/>
                  </angle>
                  <masterclipid>clip-master</masterclipid>
                </multiclip>
              </clipitem>
              <clipitem id="cs-1192">
                <duration>90</duration>
                <rate>
                  <ntsc>false</ntsc>
                  <timebase>25</timebase>
                </rate>
                <in>108301</in>
                <out>108390</out>
                <start>108301</start>
                <end>108390</end>
                <file id="src-4"/>
                <sourcetrack>
                  <mediatype>video</mediatype>
                  <trackindex>1</trackindex>
                </sourcetrack>
                <multiclip id="mcs-1192">
                  <name>MCS-1192</name>
                  <masterclipid>clip-master</masterclipid>
                  <collapsed>false</collapsed>
                  <angle>
                    <activevideoangle>false</activevideoangle>
                    <activeaudioangle>false</activeaudioangle>
                    <clip id="clip-1"/>
                  </angle>
                  <angle>
                    <activevideoangle>false</activevideoangle>
                    <activeaudioangle>false</activeaudioangle>
                    <clip id="clip-2"/>
                  </angle>
                  <angle>
                    <activevideoangle>false</activevideoangle>
                    <activeaudioangle>false</activeaudioangle>
                    <clip id="clip-3"/>
                  </angle>
                  <angle>
                    <activevideoangle>true</activevideoangle>
                    <activeaudioangle>true</activeaudioangle>
                    <clip id="clip-4"/>
                  </angle>
                  <angle>
                    <activevideoangle>false</activevideoangle>
                    <activeaudioangle>false</activeaudioangle>
                    <clip id="clip-5"/>
                  </angle>
                  <angle>
                    <activevideoangle>false</activevideoangle>
                    <activeaudioangle>false</activeaudioangle>
                    <clip id="clip-6"/>
                  </angle>
                  <angle>
                    <activevideoangle>false</activevideoangle>
                    <activeaudioangle>false</activeaudioangle>
                    <clip id="clip-7"/>
                  </angle>
                  <angle>
                    <activevideoangle>false</activevideoangle>
                    <activeaudioangle>false</activeaudioangle>
                    <clip id="clip-8"/>
                  </angle>
                  <angle>
                    <activevideoangle>false</activevideoangle>
                    <activeaudioangle>false</activeaudioangle>
                    <clip id="clip-9"/>
                  </angle>
                  <masterclipid>clip-master</masterclipid>
                </multiclip>
              </clipitem>
              <clipitem id="cs-1193">
                <duration>58</duration>
                <rate>
                  <ntsc>false</ntsc>
                  <timebase>25</timebase>
                </rate>
                <in>108390</in>
                <out>108447</out>
                <start>108390</start>
                <end>108447</end>
                <file id="src-7"/>
                <sourcetrack>
                  <mediatype>video</mediatype>
                  <trackindex>1</trackindex>
                </sourcetrack>
                <multiclip id="mcs-1193">
                  <name>MCS-1193</name>
                  <masterclipid>clip-master</masterclipid>
                  <collapsed>false</collapsed>
                  <angle>
                    <activevideoangle>false</activevideoangle>
                    <activeaudioangle>false</activeaudioangle>
                    <clip id="clip-1"/>
                  </angle>
                  <angle>
                    <activevideoangle>false</activevideoangle>
                    <activeaudioangle>false</activeaudioangle>
                    <clip id="clip-2"/>
                  </angle>
                  <angle>
                    <activevideoangle>false</activevideoangle>
                    <activeaudioangle>false</activeaudioangle>
                    <clip id="clip-3"/>
                  </angle>
                  <angle>
                    <activevideoangle>false</activevideoangle>
                    <activeaudioangle>false</activeaudioangle>
                    <clip id="clip-4"/>
                  </angle>
                  <angle>
                    <activevideoangle>false</activevideoangle>
                    <activeaudioangle>false</activeaudioangle>
                    <clip id="clip-5"/>
                  </angle>
                  <angle>
                    <activevideoangle>false</activevideoangle>
                    <activeaudioangle>false</activeaudioangle>
                    <clip id="clip-6"/>
                  </angle>
                  <angle>
                    <activevideoangle>true</activevideoangle>
                    <activeaudioangle>true</activeaudioangle>
                    <clip id="clip-7"/>
                  </angle>
                  <angle>
                    <activevideoangle>false</activevideoangle>
                    <activeaudioangle>false</activeaudioangle>
                    <clip id="clip-8"/>
                  </angle>
                  <angle>
                    <activevideoangle>false</activevideoangle>
                    <activeaudioangle>false</activeaudioangle>
                    <clip id="clip-9"/>
                  </angle>
                  <masterclipid>clip-master</masterclipid>
                </multiclip>
              </clipitem>
              <clipitem id="cs-1194">
                <duration>71</duration>
                <rate>
                  <ntsc>false</ntsc>
                  <timebase>25</timebase>
                </rate>
                <in>108447</in>
                <out>108517</out>
                <start>108447</start>
                <end>108517</end>
                <file id="src-3"/>
                <sourcetrack>
                  <mediatype>video</mediatype>
                  <trackindex>1</trackindex>
                </sourcetrack>
                <multiclip id="mcs-1194">
                  <name>MCS-1194</name>
                  <masterclipid>clip-master</masterclipid>
                  <collapsed>false</collapsed>
                  <angle>
                    <activevideoangle>false</activevideoangle>
                    <activeaudioangle>false</activeaudioangle>
                    <clip id="clip-1"/>
                  </angle>
                  <angle>
                    <activevideoangle>false</activevideoangle>
                    <activeaudioangle>false</activeaudioangle>
                    <clip id="clip-2"/>
                  </angle>
                  <angle>
                    <activevideoangle>true</activevideoangle>
                    <activeaudioangle>true</activeaudioangle>
                    <clip id="clip-3"/>
                  </angle>
                  <angle>
                    <activevideoangle>false</activevideoangle>
                    <activeaudioangle>false</activeaudioangle>
                    <clip id="clip-4"/>
                  </angle>
                  <angle>
                    <activevideoangle>false</activevideoangle>
                    <activeaudioangle>false</activeaudioangle>
                    <clip id="clip-5"/>
                  </angle>
                  <angle>
                    <activevideoangle>false</activevideoangle>
                    <activeaudioangle>false</activeaudioangle>
                    <clip id="clip-6"/>
                  </angle>
                  <angle>
                    <activevideoangle>false</activevideoangle>
                    <activeaudioangle>false</activeaudioangle>
                    <clip id="clip-7"/>
                  </angle>
                  <angle>
                    <activevideoangle>false</activevideoangle>
                    <activeaudioangle>false</activeaudioangle>
                    <clip id="clip-8"/>
                  </angle>
                  <angle>
                    <activevideoangle>false</activevideoangle>
                    <activeaudioangle>false</activeaudioangle>
                    <clip id="clip-9"/>
                  </angle>
                  <masterclipid>clip-master</masterclipid>
                </multiclip>
              </clipitem>
              <clipitem id="cs-1195">
                <duration>73</duration>
                <rate>
                  <ntsc>false</ntsc>
                  <timebase>25</timebase>
                </rate>
                <in>108517</in>
                <out>108589</out>
                <start>108517</start>
                <end>108589</end>
                <file id="src-1"/>
                <sourcetrack>
                  <mediatype>video</mediatype>
                  <trackindex>1</trackindex>
                </sourcetrack>
                <multiclip id="mcs-1195">
                  <name>MCS-1195</name>
                  <masterclipid>clip-master</masterclipid>
                  <collapsed>false</collapsed>
                  <angle>
                    <activevideoangle>true</activevideoangle>
                    <activeaudioangle>true</activeaudioangle>
                    <clip id="clip-1"/>
                  </angle>
                  <angle>
                    <activevideoangle>false</activevideoangle>
                    <activeaudioangle>false</activeaudioangle>
                    <clip id="clip-2"/>
                  </angle>
                  <angle>
                    <activevideoangle>false</activevideoangle>
                    <activeaudioangle>false</activeaudioangle>
                    <clip id="clip-3"/>
                  </angle>
                  <angle>
                    <activevideoangle>false</activevideoangle>
                    <activeaudioangle>false</activeaudioangle>
                    <clip id="clip-4"/>
                  </angle>
                  <angle>
                    <activevideoangle>false</activevideoangle>
                    <activeaudioangle>false</activeaudioangle>
                    <clip id="clip-5"/>
                  </angle>
                  <angle>
                    <activevideoangle>false</activevideoangle>
                    <activeaudioangle>false</activeaudioangle>
                    <clip id="clip-6"/>
                  </angle>
                  <angle>
                    <activevideoangle>false</activevideoangle>
                    <activeaudioangle>false</activeaudioangle>
                    <clip id="clip-7"/>
                  </angle>
                  <angle>
                    <activevideoangle>false</activevideoangle>
                    <activeaudioangle>false</activeaudioangle>
                    <clip id="clip-8"/>
                  </angle>
                  <angle>
                    <activevideoangle>false</activevideoangle>
                    <activeaudioangle>false</activeaudioangle>
                    <clip id="clip-9"/>
                  </angle>
                  <masterclipid>clip-master</masterclipid>
                </multiclip>
              </clipitem>
              <clipitem id="cs-1196">
                <duration>32</duration>
                <rate>
                  <ntsc>false</ntsc>
                  <timebase>25</timebase>
                </rate>
                <in>108589</in>
                <out>108620</out>
                <start>108589</start>
                <end>108620</end>
                <file id="src-3"/>
                <sourcetrack>
                  <mediatype>video</mediatype>
                  <trackindex>1</trackindex>
                </sourcetrack>
                <multiclip id="mcs-1196">
                  <name>MCS-1196</name>
                  <masterclipid>clip-master</masterclipid>
                  <collapsed>false</collapsed>
                  <angle>
                    <activevideoangle>false</activevideoangle>
                    <activeaudioangle>false</activeaudioangle>
                    <clip id="clip-1"/>
                  </angle>
                  <angle>
                    <activevideoangle>false</activevideoangle>
                    <activeaudioangle>false</activeaudioangle>
                    <clip id="clip-2"/>
                  </angle>
                  <angle>
                    <activevideoangle>true</activevideoangle>
                    <activeaudioangle>true</activeaudioangle>
                    <clip id="clip-3"/>
                  </angle>
                  <angle>
                    <activevideoangle>false</activevideoangle>
                    <activeaudioangle>false</activeaudioangle>
                    <clip id="clip-4"/>
                  </angle>
                  <angle>
                    <activevideoangle>false</activevideoangle>
                    <activeaudioangle>false</activeaudioangle>
                    <clip id="clip-5"/>
                  </angle>
                  <angle>
                    <activevideoangle>false</activevideoangle>
                    <activeaudioangle>false</activeaudioangle>
                    <clip id="clip-6"/>
                  </angle>
                  <angle>
                    <activevideoangle>false</activevideoangle>
                    <activeaudioangle>false</activeaudioangle>
                    <clip id="clip-7"/>
                  </angle>
                  <angle>
                    <activevideoangle>false</activevideoangle>
                    <activeaudioangle>false</activeaudioangle>
                    <clip id="clip-8"/>
                  </angle>
                  <angle>
                    <activevideoangle>false</activevideoangle>
                    <activeaudioangle>false</activeaudioangle>
                    <clip id="clip-9"/>
                  </angle>
                  <masterclipid>clip-master</masterclipid>
                </multiclip>
              </clipitem>
              <clipitem id="cs-1197">
                <duration>109</duration>
                <rate>
                  <ntsc>false</ntsc>
                  <timebase>25</timebase>
                </rate>
                <in>108620</in>
                <out>108728</out>
                <start>108620</start>
                <end>108728</end>
                <file id="src-4"/>
                <sourcetrack>
                  <mediatype>video</mediatype>
                  <trackindex>1</trackindex>
                </sourcetrack>
                <multiclip id="mcs-1197">
                  <name>MCS-1197</name>
                  <masterclipid>clip-master</masterclipid>
                  <collapsed>false</collapsed>
                  <angle>
                    <activevideoangle>false</activevideoangle>
                    <activeaudioangle>false</activeaudioangle>
                    <clip id="clip-1"/>
                  </angle>
                  <angle>
                    <activevideoangle>false</activevideoangle>
                    <activeaudioangle>false</activeaudioangle>
                    <clip id="clip-2"/>
                  </angle>
                  <angle>
                    <activevideoangle>false</activevideoangle>
                    <activeaudioangle>false</activeaudioangle>
                    <clip id="clip-3"/>
                  </angle>
                  <angle>
                    <activevideoangle>true</activevideoangle>
                    <activeaudioangle>true</activeaudioangle>
                    <clip id="clip-4"/>
                  </angle>
                  <angle>
                    <activevideoangle>false</activevideoangle>
                    <activeaudioangle>false</activeaudioangle>
                    <clip id="clip-5"/>
                  </angle>
                  <angle>
                    <activevideoangle>false</activevideoangle>
                    <activeaudioangle>false</activeaudioangle>
                    <clip id="clip-6"/>
                  </angle>
                  <angle>
                    <activevideoangle>false</activevideoangle>
                    <activeaudioangle>false</activeaudioangle>
                    <clip id="clip-7"/>
                  </angle>
                  <angle>
                    <activevideoangle>false</activevideoangle>
                    <activeaudioangle>false</activeaudioangle>
                    <clip id="clip-8"/>
                  </angle>
                  <angle>
                    <activevideoangle>false</activevideoangle>
                    <activeaudioangle>false</activeaudioangle>
                    <clip id="clip-9"/>
                  </angle>
                  <masterclipid>clip-master</masterclipid>
                </multiclip>
              </clipitem>
              <clipitem id="cs-1198">
                <duration>88</duration>
                <rate>
                  <ntsc>false</ntsc>
                  <timebase>25</timebase>
                </rate>
                <in>108728</in>
                <out>108815</out>
                <start>108728</start>
                <end>108815</end>
                <file id="src-6"/>
                <sourcetrack>
                  <mediatype>video</mediatype>
                  <trackindex>1</trackindex>
                </sourcetrack>
                <multiclip id="mcs-1198">
                  <name>MCS-1198</name>
                  <masterclipid>clip-master</masterclipid>
                  <collapsed>false</collapsed>
                  <angle>
                    <activevideoangle>false</activevideoangle>
                    <activeaudioangle>false</activeaudioangle>
                    <clip id="clip-1"/>
                  </angle>
                  <angle>
                    <activevideoangle>false</activevideoangle>
                    <activeaudioangle>false</activeaudioangle>
                    <clip id="clip-2"/>
                  </angle>
                  <angle>
                    <activevideoangle>false</activevideoangle>
                    <activeaudioangle>false</activeaudioangle>
                    <clip id="clip-3"/>
                  </angle>
                  <angle>
                    <activevideoangle>false</activevideoangle>
                    <activeaudioangle>false</activeaudioangle>
                    <clip id="clip-4"/>
                  </angle>
                  <angle>
                    <activevideoangle>false</activevideoangle>
                    <activeaudioangle>false</activeaudioangle>
                    <clip id="clip-5"/>
                  </angle>
                  <angle>
                    <activevideoangle>true</activevideoangle>
                    <activeaudioangle>true</activeaudioangle>
                    <clip id="clip-6"/>
                  </angle>
                  <angle>
                    <activevideoangle>false</activevideoangle>
                    <activeaudioangle>false</activeaudioangle>
                    <clip id="clip-7"/>
                  </angle>
                  <angle>
                    <activevideoangle>false</activevideoangle>
                    <activeaudioangle>false</activeaudioangle>
                    <clip id="clip-8"/>
                  </angle>
                  <angle>
                    <activevideoangle>false</activevideoangle>
                    <activeaudioangle>false</activeaudioangle>
                    <clip id="clip-9"/>
                  </angle>
                  <masterclipid>clip-master</masterclipid>
                </multiclip>
              </clipitem>
              <clipitem id="cs-1199">
                <duration>56</duration>
                <rate>
                  <ntsc>false</ntsc>
                  <timebase>25</timebase>
                </rate>
                <in>108815</in>
                <out>108870</out>
                <start>108815</start>
                <end>108870</end>
                <file id="src-7"/>
                <sourcetrack>
                  <mediatype>video</mediatype>
                  <trackindex>1</trackindex>
                </sourcetrack>
                <multiclip id="mcs-1199">
                  <name>MCS-1199</name>
                  <masterclipid>clip-master</masterclipid>
                  <collapsed>false</collapsed>
                  <angle>
                    <activevideoangle>false</activevideoangle>
                    <activeaudioangle>false</activeaudioangle>
                    <clip id="clip-1"/>
                  </angle>
                  <angle>
                    <activevideoangle>false</activevideoangle>
                    <activeaudioangle>false</activeaudioangle>
                    <clip id="clip-2"/>
                  </angle>
                  <angle>
                    <activevideoangle>false</activevideoangle>
                    <activeaudioangle>false</activeaudioangle>
                    <clip id="clip-3"/>
                  </angle>
                  <angle>
                    <activevideoangle>false</activevideoangle>
                    <activeaudioangle>false</activeaudioangle>
                    <clip id="clip-4"/>
                  </angle>
                  <angle>
                    <activevideoangle>false</activevideoangle>
                    <activeaudioangle>false</activeaudioangle>
                    <clip id="clip-5"/>
                  </angle>
                  <angle>
                    <activevideoangle>false</activevideoangle>
                    <activeaudioangle>false</activeaudioangle>
                    <clip id="clip-6"/>
                  </angle>
                  <angle>
                    <activevideoangle>true</activevideoangle>
                    <activeaudioangle>true</activeaudioangle>
                    <clip id="clip-7"/>
                  </angle>
                  <angle>
                    <activevideoangle>false</activevideoangle>
                    <activeaudioangle>false</activeaudioangle>
                    <clip id="clip-8"/>
                  </angle>
                  <angle>
                    <activevideoangle>false</activevideoangle>
                    <activeaudioangle>false</activeaudioangle>
                    <clip id="clip-9"/>
                  </angle>
                  <masterclipid>clip-master</masterclipid>
                </multiclip>
              </clipitem>
              <clipitem id="cs-1200">
                <duration>130</duration>
                <rate>
                  <ntsc>false</ntsc>
                  <timebase>25</timebase>
                </rate>
                <in>108870</in>
                <out>108999</out>
                <start>108870</start>
                <end>108999</end>
                <file id="src-4"/>
                <sourcetrack>
                  <mediatype>video</mediatype>
                  <trackindex>1</trackindex>
                </sourcetrack>
                <multiclip id="mcs-1200">
                  <name>MCS-1200</name>
                  <masterclipid>clip-master</masterclipid>
                  <collapsed>false</collapsed>
                  <angle>
                    <activevideoangle>false</activevideoangle>
                    <activeaudioangle>false</activeaudioangle>
                    <clip id="clip-1"/>
                  </angle>
                  <angle>
                    <activevideoangle>false</activevideoangle>
                    <activeaudioangle>false</activeaudioangle>
                    <clip id="clip-2"/>
                  </angle>
                  <angle>
                    <activevideoangle>false</activevideoangle>
                    <activeaudioangle>false</activeaudioangle>
                    <clip id="clip-3"/>
                  </angle>
                  <angle>
                    <activevideoangle>true</activevideoangle>
                    <activeaudioangle>true</activeaudioangle>
                    <clip id="clip-4"/>
                  </angle>
                  <angle>
                    <activevideoangle>false</activevideoangle>
                    <activeaudioangle>false</activeaudioangle>
                    <clip id="clip-5"/>
                  </angle>
                  <angle>
                    <activevideoangle>false</activevideoangle>
                    <activeaudioangle>false</activeaudioangle>
                    <clip id="clip-6"/>
                  </angle>
                  <angle>
                    <activevideoangle>false</activevideoangle>
                    <activeaudioangle>false</activeaudioangle>
                    <clip id="clip-7"/>
                  </angle>
                  <angle>
                    <activevideoangle>false</activevideoangle>
                    <activeaudioangle>false</activeaudioangle>
                    <clip id="clip-8"/>
                  </angle>
                  <angle>
                    <activevideoangle>false</activevideoangle>
                    <activeaudioangle>false</activeaudioangle>
                    <clip id="clip-9"/>
                  </angle>
                  <masterclipid>clip-master</masterclipid>
                </multiclip>
              </clipitem>
              <clipitem id="cs-1201">
                <duration>163</duration>
                <rate>
                  <ntsc>false</ntsc>
                  <timebase>25</timebase>
                </rate>
                <in>108999</in>
                <out>109161</out>
                <start>108999</start>
                <end>109161</end>
                <file id="src-3"/>
                <sourcetrack>
                  <mediatype>video</mediatype>
                  <trackindex>1</trackindex>
                </sourcetrack>
                <multiclip id="mcs-1201">
                  <name>MCS-1201</name>
                  <masterclipid>clip-master</masterclipid>
                  <collapsed>false</collapsed>
                  <angle>
                    <activevideoangle>false</activevideoangle>
                    <activeaudioangle>false</activeaudioangle>
                    <clip id="clip-1"/>
                  </angle>
                  <angle>
                    <activevideoangle>false</activevideoangle>
                    <activeaudioangle>false</activeaudioangle>
                    <clip id="clip-2"/>
                  </angle>
                  <angle>
                    <activevideoangle>true</activevideoangle>
                    <activeaudioangle>true</activeaudioangle>
                    <clip id="clip-3"/>
                  </angle>
                  <angle>
                    <activevideoangle>false</activevideoangle>
                    <activeaudioangle>false</activeaudioangle>
                    <clip id="clip-4"/>
                  </angle>
                  <angle>
                    <activevideoangle>false</activevideoangle>
                    <activeaudioangle>false</activeaudioangle>
                    <clip id="clip-5"/>
                  </angle>
                  <angle>
                    <activevideoangle>false</activevideoangle>
                    <activeaudioangle>false</activeaudioangle>
                    <clip id="clip-6"/>
                  </angle>
                  <angle>
                    <activevideoangle>false</activevideoangle>
                    <activeaudioangle>false</activeaudioangle>
                    <clip id="clip-7"/>
                  </angle>
                  <angle>
                    <activevideoangle>false</activevideoangle>
                    <activeaudioangle>false</activeaudioangle>
                    <clip id="clip-8"/>
                  </angle>
                  <angle>
                    <activevideoangle>false</activevideoangle>
                    <activeaudioangle>false</activeaudioangle>
                    <clip id="clip-9"/>
                  </angle>
                  <masterclipid>clip-master</masterclipid>
                </multiclip>
              </clipitem>
              <clipitem id="cs-1202">
                <duration>93</duration>
                <rate>
                  <ntsc>false</ntsc>
                  <timebase>25</timebase>
                </rate>
                <in>109161</in>
                <out>109253</out>
                <start>109161</start>
                <end>109253</end>
                <file id="src-6"/>
                <sourcetrack>
                  <mediatype>video</mediatype>
                  <trackindex>1</trackindex>
                </sourcetrack>
                <multiclip id="mcs-1202">
                  <name>MCS-1202</name>
                  <masterclipid>clip-master</masterclipid>
                  <collapsed>false</collapsed>
                  <angle>
                    <activevideoangle>false</activevideoangle>
                    <activeaudioangle>false</activeaudioangle>
                    <clip id="clip-1"/>
                  </angle>
                  <angle>
                    <activevideoangle>false</activevideoangle>
                    <activeaudioangle>false</activeaudioangle>
                    <clip id="clip-2"/>
                  </angle>
                  <angle>
                    <activevideoangle>false</activevideoangle>
                    <activeaudioangle>false</activeaudioangle>
                    <clip id="clip-3"/>
                  </angle>
                  <angle>
                    <activevideoangle>false</activevideoangle>
                    <activeaudioangle>false</activeaudioangle>
                    <clip id="clip-4"/>
                  </angle>
                  <angle>
                    <activevideoangle>false</activevideoangle>
                    <activeaudioangle>false</activeaudioangle>
                    <clip id="clip-5"/>
                  </angle>
                  <angle>
                    <activevideoangle>true</activevideoangle>
                    <activeaudioangle>true</activeaudioangle>
                    <clip id="clip-6"/>
                  </angle>
                  <angle>
                    <activevideoangle>false</activevideoangle>
                    <activeaudioangle>false</activeaudioangle>
                    <clip id="clip-7"/>
                  </angle>
                  <angle>
                    <activevideoangle>false</activevideoangle>
                    <activeaudioangle>false</activeaudioangle>
                    <clip id="clip-8"/>
                  </angle>
                  <angle>
                    <activevideoangle>false</activevideoangle>
                    <activeaudioangle>false</activeaudioangle>
                    <clip id="clip-9"/>
                  </angle>
                  <masterclipid>clip-master</masterclipid>
                </multiclip>
              </clipitem>
              <clipitem id="cs-1203">
                <duration>192</duration>
                <rate>
                  <ntsc>false</ntsc>
                  <timebase>25</timebase>
                </rate>
                <in>109253</in>
                <out>109444</out>
                <start>109253</start>
                <end>109444</end>
                <file id="src-3"/>
                <sourcetrack>
                  <mediatype>video</mediatype>
                  <trackindex>1</trackindex>
                </sourcetrack>
                <multiclip id="mcs-1203">
                  <name>MCS-1203</name>
                  <masterclipid>clip-master</masterclipid>
                  <collapsed>false</collapsed>
                  <angle>
                    <activevideoangle>false</activevideoangle>
                    <activeaudioangle>false</activeaudioangle>
                    <clip id="clip-1"/>
                  </angle>
                  <angle>
                    <activevideoangle>false</activevideoangle>
                    <activeaudioangle>false</activeaudioangle>
                    <clip id="clip-2"/>
                  </angle>
                  <angle>
                    <activevideoangle>true</activevideoangle>
                    <activeaudioangle>true</activeaudioangle>
                    <clip id="clip-3"/>
                  </angle>
                  <angle>
                    <activevideoangle>false</activevideoangle>
                    <activeaudioangle>false</activeaudioangle>
                    <clip id="clip-4"/>
                  </angle>
                  <angle>
                    <activevideoangle>false</activevideoangle>
                    <activeaudioangle>false</activeaudioangle>
                    <clip id="clip-5"/>
                  </angle>
                  <angle>
                    <activevideoangle>false</activevideoangle>
                    <activeaudioangle>false</activeaudioangle>
                    <clip id="clip-6"/>
                  </angle>
                  <angle>
                    <activevideoangle>false</activevideoangle>
                    <activeaudioangle>false</activeaudioangle>
                    <clip id="clip-7"/>
                  </angle>
                  <angle>
                    <activevideoangle>false</activevideoangle>
                    <activeaudioangle>false</activeaudioangle>
                    <clip id="clip-8"/>
                  </angle>
                  <angle>
                    <activevideoangle>false</activevideoangle>
                    <activeaudioangle>false</activeaudioangle>
                    <clip id="clip-9"/>
                  </angle>
                  <masterclipid>clip-master</masterclipid>
                </multiclip>
              </clipitem>
              <clipitem id="cs-1204">
                <duration>144</duration>
                <rate>
                  <ntsc>false</ntsc>
                  <timebase>25</timebase>
                </rate>
                <in>109444</in>
                <out>109587</out>
                <start>109444</start>
                <end>109587</end>
                <file id="src-4"/>
                <sourcetrack>
                  <mediatype>video</mediatype>
                  <trackindex>1</trackindex>
                </sourcetrack>
                <multiclip id="mcs-1204">
                  <name>MCS-1204</name>
                  <masterclipid>clip-master</masterclipid>
                  <collapsed>false</collapsed>
                  <angle>
                    <activevideoangle>false</activevideoangle>
                    <activeaudioangle>false</activeaudioangle>
                    <clip id="clip-1"/>
                  </angle>
                  <angle>
                    <activevideoangle>false</activevideoangle>
                    <activeaudioangle>false</activeaudioangle>
                    <clip id="clip-2"/>
                  </angle>
                  <angle>
                    <activevideoangle>false</activevideoangle>
                    <activeaudioangle>false</activeaudioangle>
                    <clip id="clip-3"/>
                  </angle>
                  <angle>
                    <activevideoangle>true</activevideoangle>
                    <activeaudioangle>true</activeaudioangle>
                    <clip id="clip-4"/>
                  </angle>
                  <angle>
                    <activevideoangle>false</activevideoangle>
                    <activeaudioangle>false</activeaudioangle>
                    <clip id="clip-5"/>
                  </angle>
                  <angle>
                    <activevideoangle>false</activevideoangle>
                    <activeaudioangle>false</activeaudioangle>
                    <clip id="clip-6"/>
                  </angle>
                  <angle>
                    <activevideoangle>false</activevideoangle>
                    <activeaudioangle>false</activeaudioangle>
                    <clip id="clip-7"/>
                  </angle>
                  <angle>
                    <activevideoangle>false</activevideoangle>
                    <activeaudioangle>false</activeaudioangle>
                    <clip id="clip-8"/>
                  </angle>
                  <angle>
                    <activevideoangle>false</activevideoangle>
                    <activeaudioangle>false</activeaudioangle>
                    <clip id="clip-9"/>
                  </angle>
                  <masterclipid>clip-master</masterclipid>
                </multiclip>
              </clipitem>
              <clipitem id="cs-1205">
                <duration>144</duration>
                <rate>
                  <ntsc>false</ntsc>
                  <timebase>25</timebase>
                </rate>
                <in>109587</in>
                <out>109730</out>
                <start>109587</start>
                <end>109730</end>
                <file id="src-1"/>
                <sourcetrack>
                  <mediatype>video</mediatype>
                  <trackindex>1</trackindex>
                </sourcetrack>
                <multiclip id="mcs-1205">
                  <name>MCS-1205</name>
                  <masterclipid>clip-master</masterclipid>
                  <collapsed>false</collapsed>
                  <angle>
                    <activevideoangle>true</activevideoangle>
                    <activeaudioangle>true</activeaudioangle>
                    <clip id="clip-1"/>
                  </angle>
                  <angle>
                    <activevideoangle>false</activevideoangle>
                    <activeaudioangle>false</activeaudioangle>
                    <clip id="clip-2"/>
                  </angle>
                  <angle>
                    <activevideoangle>false</activevideoangle>
                    <activeaudioangle>false</activeaudioangle>
                    <clip id="clip-3"/>
                  </angle>
                  <angle>
                    <activevideoangle>false</activevideoangle>
                    <activeaudioangle>false</activeaudioangle>
                    <clip id="clip-4"/>
                  </angle>
                  <angle>
                    <activevideoangle>false</activevideoangle>
                    <activeaudioangle>false</activeaudioangle>
                    <clip id="clip-5"/>
                  </angle>
                  <angle>
                    <activevideoangle>false</activevideoangle>
                    <activeaudioangle>false</activeaudioangle>
                    <clip id="clip-6"/>
                  </angle>
                  <angle>
                    <activevideoangle>false</activevideoangle>
                    <activeaudioangle>false</activeaudioangle>
                    <clip id="clip-7"/>
                  </angle>
                  <angle>
                    <activevideoangle>false</activevideoangle>
                    <activeaudioangle>false</activeaudioangle>
                    <clip id="clip-8"/>
                  </angle>
                  <angle>
                    <activevideoangle>false</activevideoangle>
                    <activeaudioangle>false</activeaudioangle>
                    <clip id="clip-9"/>
                  </angle>
                  <masterclipid>clip-master</masterclipid>
                </multiclip>
              </clipitem>
              <clipitem id="cs-1206">
                <duration>97</duration>
                <rate>
                  <ntsc>false</ntsc>
                  <timebase>25</timebase>
                </rate>
                <in>109730</in>
                <out>109826</out>
                <start>109730</start>
                <end>109826</end>
                <file id="src-3"/>
                <sourcetrack>
                  <mediatype>video</mediatype>
                  <trackindex>1</trackindex>
                </sourcetrack>
                <multiclip id="mcs-1206">
                  <name>MCS-1206</name>
                  <masterclipid>clip-master</masterclipid>
                  <collapsed>false</collapsed>
                  <angle>
                    <activevideoangle>false</activevideoangle>
                    <activeaudioangle>false</activeaudioangle>
                    <clip id="clip-1"/>
                  </angle>
                  <angle>
                    <activevideoangle>false</activevideoangle>
                    <activeaudioangle>false</activeaudioangle>
                    <clip id="clip-2"/>
                  </angle>
                  <angle>
                    <activevideoangle>true</activevideoangle>
                    <activeaudioangle>true</activeaudioangle>
                    <clip id="clip-3"/>
                  </angle>
                  <angle>
                    <activevideoangle>false</activevideoangle>
                    <activeaudioangle>false</activeaudioangle>
                    <clip id="clip-4"/>
                  </angle>
                  <angle>
                    <activevideoangle>false</activevideoangle>
                    <activeaudioangle>false</activeaudioangle>
                    <clip id="clip-5"/>
                  </angle>
                  <angle>
                    <activevideoangle>false</activevideoangle>
                    <activeaudioangle>false</activeaudioangle>
                    <clip id="clip-6"/>
                  </angle>
                  <angle>
                    <activevideoangle>false</activevideoangle>
                    <activeaudioangle>false</activeaudioangle>
                    <clip id="clip-7"/>
                  </angle>
                  <angle>
                    <activevideoangle>false</activevideoangle>
                    <activeaudioangle>false</activeaudioangle>
                    <clip id="clip-8"/>
                  </angle>
                  <angle>
                    <activevideoangle>false</activevideoangle>
                    <activeaudioangle>false</activeaudioangle>
                    <clip id="clip-9"/>
                  </angle>
                  <masterclipid>clip-master</masterclipid>
                </multiclip>
              </clipitem>
              <clipitem id="cs-1207">
                <duration>163</duration>
                <rate>
                  <ntsc>false</ntsc>
                  <timebase>25</timebase>
                </rate>
                <in>109826</in>
                <out>109988</out>
                <start>109826</start>
                <end>109988</end>
                <file id="src-4"/>
                <sourcetrack>
                  <mediatype>video</mediatype>
                  <trackindex>1</trackindex>
                </sourcetrack>
                <multiclip id="mcs-1207">
                  <name>MCS-1207</name>
                  <masterclipid>clip-master</masterclipid>
                  <collapsed>false</collapsed>
                  <angle>
                    <activevideoangle>false</activevideoangle>
                    <activeaudioangle>false</activeaudioangle>
                    <clip id="clip-1"/>
                  </angle>
                  <angle>
                    <activevideoangle>false</activevideoangle>
                    <activeaudioangle>false</activeaudioangle>
                    <clip id="clip-2"/>
                  </angle>
                  <angle>
                    <activevideoangle>false</activevideoangle>
                    <activeaudioangle>false</activeaudioangle>
                    <clip id="clip-3"/>
                  </angle>
                  <angle>
                    <activevideoangle>true</activevideoangle>
                    <activeaudioangle>true</activeaudioangle>
                    <clip id="clip-4"/>
                  </angle>
                  <angle>
                    <activevideoangle>false</activevideoangle>
                    <activeaudioangle>false</activeaudioangle>
                    <clip id="clip-5"/>
                  </angle>
                  <angle>
                    <activevideoangle>false</activevideoangle>
                    <activeaudioangle>false</activeaudioangle>
                    <clip id="clip-6"/>
                  </angle>
                  <angle>
                    <activevideoangle>false</activevideoangle>
                    <activeaudioangle>false</activeaudioangle>
                    <clip id="clip-7"/>
                  </angle>
                  <angle>
                    <activevideoangle>false</activevideoangle>
                    <activeaudioangle>false</activeaudioangle>
                    <clip id="clip-8"/>
                  </angle>
                  <angle>
                    <activevideoangle>false</activevideoangle>
                    <activeaudioangle>false</activeaudioangle>
                    <clip id="clip-9"/>
                  </angle>
                  <masterclipid>clip-master</masterclipid>
                </multiclip>
              </clipitem>
              <clipitem id="cs-1208">
                <duration>82</duration>
                <rate>
                  <ntsc>false</ntsc>
                  <timebase>25</timebase>
                </rate>
                <in>109988</in>
                <out>110069</out>
                <start>109988</start>
                <end>110069</end>
                <file id="src-3"/>
                <sourcetrack>
                  <mediatype>video</mediatype>
                  <trackindex>1</trackindex>
                </sourcetrack>
                <multiclip id="mcs-1208">
                  <name>MCS-1208</name>
                  <masterclipid>clip-master</masterclipid>
                  <collapsed>false</collapsed>
                  <angle>
                    <activevideoangle>false</activevideoangle>
                    <activeaudioangle>false</activeaudioangle>
                    <clip id="clip-1"/>
                  </angle>
                  <angle>
                    <activevideoangle>false</activevideoangle>
                    <activeaudioangle>false</activeaudioangle>
                    <clip id="clip-2"/>
                  </angle>
                  <angle>
                    <activevideoangle>true</activevideoangle>
                    <activeaudioangle>true</activeaudioangle>
                    <clip id="clip-3"/>
                  </angle>
                  <angle>
                    <activevideoangle>false</activevideoangle>
                    <activeaudioangle>false</activeaudioangle>
                    <clip id="clip-4"/>
                  </angle>
                  <angle>
                    <activevideoangle>false</activevideoangle>
                    <activeaudioangle>false</activeaudioangle>
                    <clip id="clip-5"/>
                  </angle>
                  <angle>
                    <activevideoangle>false</activevideoangle>
                    <activeaudioangle>false</activeaudioangle>
                    <clip id="clip-6"/>
                  </angle>
                  <angle>
                    <activevideoangle>false</activevideoangle>
                    <activeaudioangle>false</activeaudioangle>
                    <clip id="clip-7"/>
                  </angle>
                  <angle>
                    <activevideoangle>false</activevideoangle>
                    <activeaudioangle>false</activeaudioangle>
                    <clip id="clip-8"/>
                  </angle>
                  <angle>
                    <activevideoangle>false</activevideoangle>
                    <activeaudioangle>false</activeaudioangle>
                    <clip id="clip-9"/>
                  </angle>
                  <masterclipid>clip-master</masterclipid>
                </multiclip>
              </clipitem>
              <clipitem id="cs-1209">
                <duration>270</duration>
                <rate>
                  <ntsc>false</ntsc>
                  <timebase>25</timebase>
                </rate>
                <in>110069</in>
                <out>110338</out>
                <start>110069</start>
                <end>110338</end>
                <file id="src-1"/>
                <sourcetrack>
                  <mediatype>video</mediatype>
                  <trackindex>1</trackindex>
                </sourcetrack>
                <multiclip id="mcs-1209">
                  <name>MCS-1209</name>
                  <masterclipid>clip-master</masterclipid>
                  <collapsed>false</collapsed>
                  <angle>
                    <activevideoangle>true</activevideoangle>
                    <activeaudioangle>true</activeaudioangle>
                    <clip id="clip-1"/>
                  </angle>
                  <angle>
                    <activevideoangle>false</activevideoangle>
                    <activeaudioangle>false</activeaudioangle>
                    <clip id="clip-2"/>
                  </angle>
                  <angle>
                    <activevideoangle>false</activevideoangle>
                    <activeaudioangle>false</activeaudioangle>
                    <clip id="clip-3"/>
                  </angle>
                  <angle>
                    <activevideoangle>false</activevideoangle>
                    <activeaudioangle>false</activeaudioangle>
                    <clip id="clip-4"/>
                  </angle>
                  <angle>
                    <activevideoangle>false</activevideoangle>
                    <activeaudioangle>false</activeaudioangle>
                    <clip id="clip-5"/>
                  </angle>
                  <angle>
                    <activevideoangle>false</activevideoangle>
                    <activeaudioangle>false</activeaudioangle>
                    <clip id="clip-6"/>
                  </angle>
                  <angle>
                    <activevideoangle>false</activevideoangle>
                    <activeaudioangle>false</activeaudioangle>
                    <clip id="clip-7"/>
                  </angle>
                  <angle>
                    <activevideoangle>false</activevideoangle>
                    <activeaudioangle>false</activeaudioangle>
                    <clip id="clip-8"/>
                  </angle>
                  <angle>
                    <activevideoangle>false</activevideoangle>
                    <activeaudioangle>false</activeaudioangle>
                    <clip id="clip-9"/>
                  </angle>
                  <masterclipid>clip-master</masterclipid>
                </multiclip>
              </clipitem>
              <clipitem id="cs-1210">
                <duration>132</duration>
                <rate>
                  <ntsc>false</ntsc>
                  <timebase>25</timebase>
                </rate>
                <in>110338</in>
                <out>110469</out>
                <start>110338</start>
                <end>110469</end>
                <file id="src-4"/>
                <sourcetrack>
                  <mediatype>video</mediatype>
                  <trackindex>1</trackindex>
                </sourcetrack>
                <multiclip id="mcs-1210">
                  <name>MCS-1210</name>
                  <masterclipid>clip-master</masterclipid>
                  <collapsed>false</collapsed>
                  <angle>
                    <activevideoangle>false</activevideoangle>
                    <activeaudioangle>false</activeaudioangle>
                    <clip id="clip-1"/>
                  </angle>
                  <angle>
                    <activevideoangle>false</activevideoangle>
                    <activeaudioangle>false</activeaudioangle>
                    <clip id="clip-2"/>
                  </angle>
                  <angle>
                    <activevideoangle>false</activevideoangle>
                    <activeaudioangle>false</activeaudioangle>
                    <clip id="clip-3"/>
                  </angle>
                  <angle>
                    <activevideoangle>true</activevideoangle>
                    <activeaudioangle>true</activeaudioangle>
                    <clip id="clip-4"/>
                  </angle>
                  <angle>
                    <activevideoangle>false</activevideoangle>
                    <activeaudioangle>false</activeaudioangle>
                    <clip id="clip-5"/>
                  </angle>
                  <angle>
                    <activevideoangle>false</activevideoangle>
                    <activeaudioangle>false</activeaudioangle>
                    <clip id="clip-6"/>
                  </angle>
                  <angle>
                    <activevideoangle>false</activevideoangle>
                    <activeaudioangle>false</activeaudioangle>
                    <clip id="clip-7"/>
                  </angle>
                  <angle>
                    <activevideoangle>false</activevideoangle>
                    <activeaudioangle>false</activeaudioangle>
                    <clip id="clip-8"/>
                  </angle>
                  <angle>
                    <activevideoangle>false</activevideoangle>
                    <activeaudioangle>false</activeaudioangle>
                    <clip id="clip-9"/>
                  </angle>
                  <masterclipid>clip-master</masterclipid>
                </multiclip>
              </clipitem>
              <clipitem id="cs-1211">
                <duration>92</duration>
                <rate>
                  <ntsc>false</ntsc>
                  <timebase>25</timebase>
                </rate>
                <in>110469</in>
                <out>110560</out>
                <start>110469</start>
                <end>110560</end>
                <file id="src-2"/>
                <sourcetrack>
                  <mediatype>video</mediatype>
                  <trackindex>1</trackindex>
                </sourcetrack>
                <multiclip id="mcs-1211">
                  <name>MCS-1211</name>
                  <masterclipid>clip-master</masterclipid>
                  <collapsed>false</collapsed>
                  <angle>
                    <activevideoangle>false</activevideoangle>
                    <activeaudioangle>false</activeaudioangle>
                    <clip id="clip-1"/>
                  </angle>
                  <angle>
                    <activevideoangle>true</activevideoangle>
                    <activeaudioangle>true</activeaudioangle>
                    <clip id="clip-2"/>
                  </angle>
                  <angle>
                    <activevideoangle>false</activevideoangle>
                    <activeaudioangle>false</activeaudioangle>
                    <clip id="clip-3"/>
                  </angle>
                  <angle>
                    <activevideoangle>false</activevideoangle>
                    <activeaudioangle>false</activeaudioangle>
                    <clip id="clip-4"/>
                  </angle>
                  <angle>
                    <activevideoangle>false</activevideoangle>
                    <activeaudioangle>false</activeaudioangle>
                    <clip id="clip-5"/>
                  </angle>
                  <angle>
                    <activevideoangle>false</activevideoangle>
                    <activeaudioangle>false</activeaudioangle>
                    <clip id="clip-6"/>
                  </angle>
                  <angle>
                    <activevideoangle>false</activevideoangle>
                    <activeaudioangle>false</activeaudioangle>
                    <clip id="clip-7"/>
                  </angle>
                  <angle>
                    <activevideoangle>false</activevideoangle>
                    <activeaudioangle>false</activeaudioangle>
                    <clip id="clip-8"/>
                  </angle>
                  <angle>
                    <activevideoangle>false</activevideoangle>
                    <activeaudioangle>false</activeaudioangle>
                    <clip id="clip-9"/>
                  </angle>
                  <masterclipid>clip-master</masterclipid>
                </multiclip>
              </clipitem>
              <clipitem id="cs-1212">
                <duration>115</duration>
                <rate>
                  <ntsc>false</ntsc>
                  <timebase>25</timebase>
                </rate>
                <in>110560</in>
                <out>110674</out>
                <start>110560</start>
                <end>110674</end>
                <file id="src-6"/>
                <sourcetrack>
                  <mediatype>video</mediatype>
                  <trackindex>1</trackindex>
                </sourcetrack>
                <multiclip id="mcs-1212">
                  <name>MCS-1212</name>
                  <masterclipid>clip-master</masterclipid>
                  <collapsed>false</collapsed>
                  <angle>
                    <activevideoangle>false</activevideoangle>
                    <activeaudioangle>false</activeaudioangle>
                    <clip id="clip-1"/>
                  </angle>
                  <angle>
                    <activevideoangle>false</activevideoangle>
                    <activeaudioangle>false</activeaudioangle>
                    <clip id="clip-2"/>
                  </angle>
                  <angle>
                    <activevideoangle>false</activevideoangle>
                    <activeaudioangle>false</activeaudioangle>
                    <clip id="clip-3"/>
                  </angle>
                  <angle>
                    <activevideoangle>false</activevideoangle>
                    <activeaudioangle>false</activeaudioangle>
                    <clip id="clip-4"/>
                  </angle>
                  <angle>
                    <activevideoangle>false</activevideoangle>
                    <activeaudioangle>false</activeaudioangle>
                    <clip id="clip-5"/>
                  </angle>
                  <angle>
                    <activevideoangle>true</activevideoangle>
                    <activeaudioangle>true</activeaudioangle>
                    <clip id="clip-6"/>
                  </angle>
                  <angle>
                    <activevideoangle>false</activevideoangle>
                    <activeaudioangle>false</activeaudioangle>
                    <clip id="clip-7"/>
                  </angle>
                  <angle>
                    <activevideoangle>false</activevideoangle>
                    <activeaudioangle>false</activeaudioangle>
                    <clip id="clip-8"/>
                  </angle>
                  <angle>
                    <activevideoangle>false</activevideoangle>
                    <activeaudioangle>false</activeaudioangle>
                    <clip id="clip-9"/>
                  </angle>
                  <masterclipid>clip-master</masterclipid>
                </multiclip>
              </clipitem>
              <clipitem id="cs-1213">
                <duration>68</duration>
                <rate>
                  <ntsc>false</ntsc>
                  <timebase>25</timebase>
                </rate>
                <in>110674</in>
                <out>110741</out>
                <start>110674</start>
                <end>110741</end>
                <file id="src-4"/>
                <sourcetrack>
                  <mediatype>video</mediatype>
                  <trackindex>1</trackindex>
                </sourcetrack>
                <multiclip id="mcs-1213">
                  <name>MCS-1213</name>
                  <masterclipid>clip-master</masterclipid>
                  <collapsed>false</collapsed>
                  <angle>
                    <activevideoangle>false</activevideoangle>
                    <activeaudioangle>false</activeaudioangle>
                    <clip id="clip-1"/>
                  </angle>
                  <angle>
                    <activevideoangle>false</activevideoangle>
                    <activeaudioangle>false</activeaudioangle>
                    <clip id="clip-2"/>
                  </angle>
                  <angle>
                    <activevideoangle>false</activevideoangle>
                    <activeaudioangle>false</activeaudioangle>
                    <clip id="clip-3"/>
                  </angle>
                  <angle>
                    <activevideoangle>true</activevideoangle>
                    <activeaudioangle>true</activeaudioangle>
                    <clip id="clip-4"/>
                  </angle>
                  <angle>
                    <activevideoangle>false</activevideoangle>
                    <activeaudioangle>false</activeaudioangle>
                    <clip id="clip-5"/>
                  </angle>
                  <angle>
                    <activevideoangle>false</activevideoangle>
                    <activeaudioangle>false</activeaudioangle>
                    <clip id="clip-6"/>
                  </angle>
                  <angle>
                    <activevideoangle>false</activevideoangle>
                    <activeaudioangle>false</activeaudioangle>
                    <clip id="clip-7"/>
                  </angle>
                  <angle>
                    <activevideoangle>false</activevideoangle>
                    <activeaudioangle>false</activeaudioangle>
                    <clip id="clip-8"/>
                  </angle>
                  <angle>
                    <activevideoangle>false</activevideoangle>
                    <activeaudioangle>false</activeaudioangle>
                    <clip id="clip-9"/>
                  </angle>
                  <masterclipid>clip-master</masterclipid>
                </multiclip>
              </clipitem>
              <clipitem id="cs-1214">
                <duration>48</duration>
                <rate>
                  <ntsc>false</ntsc>
                  <timebase>25</timebase>
                </rate>
                <in>110741</in>
                <out>110788</out>
                <start>110741</start>
                <end>110788</end>
                <file id="src-3"/>
                <sourcetrack>
                  <mediatype>video</mediatype>
                  <trackindex>1</trackindex>
                </sourcetrack>
                <multiclip id="mcs-1214">
                  <name>MCS-1214</name>
                  <masterclipid>clip-master</masterclipid>
                  <collapsed>false</collapsed>
                  <angle>
                    <activevideoangle>false</activevideoangle>
                    <activeaudioangle>false</activeaudioangle>
                    <clip id="clip-1"/>
                  </angle>
                  <angle>
                    <activevideoangle>false</activevideoangle>
                    <activeaudioangle>false</activeaudioangle>
                    <clip id="clip-2"/>
                  </angle>
                  <angle>
                    <activevideoangle>true</activevideoangle>
                    <activeaudioangle>true</activeaudioangle>
                    <clip id="clip-3"/>
                  </angle>
                  <angle>
                    <activevideoangle>false</activevideoangle>
                    <activeaudioangle>false</activeaudioangle>
                    <clip id="clip-4"/>
                  </angle>
                  <angle>
                    <activevideoangle>false</activevideoangle>
                    <activeaudioangle>false</activeaudioangle>
                    <clip id="clip-5"/>
                  </angle>
                  <angle>
                    <activevideoangle>false</activevideoangle>
                    <activeaudioangle>false</activeaudioangle>
                    <clip id="clip-6"/>
                  </angle>
                  <angle>
                    <activevideoangle>false</activevideoangle>
                    <activeaudioangle>false</activeaudioangle>
                    <clip id="clip-7"/>
                  </angle>
                  <angle>
                    <activevideoangle>false</activevideoangle>
                    <activeaudioangle>false</activeaudioangle>
                    <clip id="clip-8"/>
                  </angle>
                  <angle>
                    <activevideoangle>false</activevideoangle>
                    <activeaudioangle>false</activeaudioangle>
                    <clip id="clip-9"/>
                  </angle>
                  <masterclipid>clip-master</masterclipid>
                </multiclip>
              </clipitem>
              <clipitem id="cs-1215">
                <duration>79</duration>
                <rate>
                  <ntsc>false</ntsc>
                  <timebase>25</timebase>
                </rate>
                <in>110788</in>
                <out>110866</out>
                <start>110788</start>
                <end>110866</end>
                <file id="src-2"/>
                <sourcetrack>
                  <mediatype>video</mediatype>
                  <trackindex>1</trackindex>
                </sourcetrack>
                <multiclip id="mcs-1215">
                  <name>MCS-1215</name>
                  <masterclipid>clip-master</masterclipid>
                  <collapsed>false</collapsed>
                  <angle>
                    <activevideoangle>false</activevideoangle>
                    <activeaudioangle>false</activeaudioangle>
                    <clip id="clip-1"/>
                  </angle>
                  <angle>
                    <activevideoangle>true</activevideoangle>
                    <activeaudioangle>true</activeaudioangle>
                    <clip id="clip-2"/>
                  </angle>
                  <angle>
                    <activevideoangle>false</activevideoangle>
                    <activeaudioangle>false</activeaudioangle>
                    <clip id="clip-3"/>
                  </angle>
                  <angle>
                    <activevideoangle>false</activevideoangle>
                    <activeaudioangle>false</activeaudioangle>
                    <clip id="clip-4"/>
                  </angle>
                  <angle>
                    <activevideoangle>false</activevideoangle>
                    <activeaudioangle>false</activeaudioangle>
                    <clip id="clip-5"/>
                  </angle>
                  <angle>
                    <activevideoangle>false</activevideoangle>
                    <activeaudioangle>false</activeaudioangle>
                    <clip id="clip-6"/>
                  </angle>
                  <angle>
                    <activevideoangle>false</activevideoangle>
                    <activeaudioangle>false</activeaudioangle>
                    <clip id="clip-7"/>
                  </angle>
                  <angle>
                    <activevideoangle>false</activevideoangle>
                    <activeaudioangle>false</activeaudioangle>
                    <clip id="clip-8"/>
                  </angle>
                  <angle>
                    <activevideoangle>false</activevideoangle>
                    <activeaudioangle>false</activeaudioangle>
                    <clip id="clip-9"/>
                  </angle>
                  <masterclipid>clip-master</masterclipid>
                </multiclip>
              </clipitem>
            </track>
          </video>
          <audio>
            <track>
              <clipitem id="csa1">
                <duration>110867</duration>
                <in>0</in>
                <out>110866</out>
                <start>0</start>
                <end>110866</end>
                <file id="src-9"/>
                <sourcetrack>
                  <mediatype>audio</mediatype>
                  <trackindex>1</trackindex>
                </sourcetrack>
                <filter>
                  <effect>
                    <name>Audio Pan</name>
                    <effectid>audiopan</effectid>
                    <effectcategory>audiopan</effectcategory>
                    <effecttype>audiopan</effecttype>
                    <mediatype>audio</mediatype>
                    <parameter>
                      <name>Pan</name>
                      <parameterid>pan</parameterid>
                      <valuemin>-1</valuemin>
                      <valuemax>1</valuemax>
                      <value>-1</value>
                    </parameter>
                  </effect>
                </filter>
                <multiclip id="mcsa-1">
                  <name>MCS Audio 1</name>
                  <masterclipid>clip-master</masterclipid>
                  <collapsed>false</collapsed>
                  <angle>
                    <activevideoangle>false</activevideoangle>
                    <activeaudioangle>false</activeaudioangle>
                    <clip id="clip-1"/>
                  </angle>
                  <angle>
                    <activevideoangle>false</activevideoangle>
                    <activeaudioangle>false</activeaudioangle>
                    <clip id="clip-2"/>
                  </angle>
                  <angle>
                    <activevideoangle>false</activevideoangle>
                    <activeaudioangle>false</activeaudioangle>
                    <clip id="clip-3"/>
                  </angle>
                  <angle>
                    <activevideoangle>false</activevideoangle>
                    <activeaudioangle>false</activeaudioangle>
                    <clip id="clip-4"/>
                  </angle>
                  <angle>
                    <activevideoangle>false</activevideoangle>
                    <activeaudioangle>false</activeaudioangle>
                    <clip id="clip-5"/>
                  </angle>
                  <angle>
                    <activevideoangle>false</activevideoangle>
                    <activeaudioangle>false</activeaudioangle>
                    <clip id="clip-6"/>
                  </angle>
                  <angle>
                    <activevideoangle>false</activevideoangle>
                    <activeaudioangle>false</activeaudioangle>
                    <clip id="clip-7"/>
                  </angle>
                  <angle>
                    <activevideoangle>false</activevideoangle>
                    <activeaudioangle>false</activeaudioangle>
                    <clip id="clip-8"/>
                  </angle>
                  <angle>
                    <activevideoangle>true</activevideoangle>
                    <activeaudioangle>true</activeaudioangle>
                    <clip id="clip-9"/>
                  </angle>
                  <angle>
                    <activevideoangle>false</activevideoangle>
                    <activeaudioangle>false</activeaudioangle>
                    <clip id="clip-10"/>
                  </angle>
                  <angle>
                    <activevideoangle>false</activevideoangle>
                    <activeaudioangle>false</activeaudioangle>
                    <clip id="clip-11"/>
                  </angle>
                  <angle>
                    <activevideoangle>false</activevideoangle>
                    <activeaudioangle>false</activeaudioangle>
                    <clip id="clip-12"/>
                  </angle>
                  <masterclipid>clip-master</masterclipid>
                </multiclip>
                <link>
                  <linkclipref>cs-0</linkclipref>
                  <mediatype>video</mediatype>
                  <trackindex>1</trackindex>
                  <clipindex>1</clipindex>
                </link>
                <link>
                  <linkclipref>csa1</linkclipref>
                  <mediatype>audio</mediatype>
                  <trackindex>1</trackindex>
                  <clipindex>1</clipindex>
                  <groupindex>1</groupindex>
                </link>
                <link>
                  <linkclipref>csa2</linkclipref>
                  <mediatype>audio</mediatype>
                  <trackindex>2</trackindex>
                  <clipindex>1</clipindex>
                  <groupindex>1</groupindex>
                </link>
              </clipitem>
            </track>
            <track>
              <clipitem id="csa2">
                <duration>110867</duration>
                <in>0</in>
                <out>110866</out>
                <start>0</start>
                <end>110866</end>
                <file id="src-9"/>
                <sourcetrack>
                  <mediatype>audio</mediatype>
                  <trackindex>2</trackindex>
                </sourcetrack>
                <filter>
                  <effect>
                    <name>Audio Pan</name>
                    <effectid>audiopan</effectid>
                    <effectcategory>audiopan</effectcategory>
                    <effecttype>audiopan</effecttype>
                    <mediatype>audio</mediatype>
                    <parameter>
                      <name>Pan</name>
                      <parameterid>pan</parameterid>
                      <valuemin>-1</valuemin>
                      <valuemax>1</valuemax>
                      <value>1</value>
                    </parameter>
                  </effect>
                </filter>
                <multiclip id="mcsa-2">
                  <name>MCS Audio 2</name>
                  <masterclipid>clip-master</masterclipid>
                  <collapsed>false</collapsed>
                  <angle>
                    <activevideoangle>false</activevideoangle>
                    <activeaudioangle>false</activeaudioangle>
                    <clip id="clip-1"/>
                  </angle>
                  <angle>
                    <activevideoangle>false</activevideoangle>
                    <activeaudioangle>false</activeaudioangle>
                    <clip id="clip-2"/>
                  </angle>
                  <angle>
                    <activevideoangle>false</activevideoangle>
                    <activeaudioangle>false</activeaudioangle>
                    <clip id="clip-3"/>
                  </angle>
                  <angle>
                    <activevideoangle>false</activevideoangle>
                    <activeaudioangle>false</activeaudioangle>
                    <clip id="clip-4"/>
                  </angle>
                  <angle>
                    <activevideoangle>false</activevideoangle>
                    <activeaudioangle>false</activeaudioangle>
                    <clip id="clip-5"/>
                  </angle>
                  <angle>
                    <activevideoangle>false</activevideoangle>
                    <activeaudioangle>false</activeaudioangle>
                    <clip id="clip-6"/>
                  </angle>
                  <angle>
                    <activevideoangle>false</activevideoangle>
                    <activeaudioangle>false</activeaudioangle>
                    <clip id="clip-7"/>
                  </angle>
                  <angle>
                    <activevideoangle>false</activevideoangle>
                    <activeaudioangle>false</activeaudioangle>
                    <clip id="clip-8"/>
                  </angle>
                  <angle>
                    <activevideoangle>true</activevideoangle>
                    <activeaudioangle>true</activeaudioangle>
                    <clip id="clip-9"/>
                  </angle>
                  <angle>
                    <activevideoangle>false</activevideoangle>
                    <activeaudioangle>false</activeaudioangle>
                    <clip id="clip-10"/>
                  </angle>
                  <angle>
                    <activevideoangle>false</activevideoangle>
                    <activeaudioangle>false</activeaudioangle>
                    <clip id="clip-11"/>
                  </angle>
                  <angle>
                    <activevideoangle>false</activevideoangle>
                    <activeaudioangle>false</activeaudioangle>
                    <clip id="clip-12"/>
                  </angle>
                  <masterclipid>clip-master</masterclipid>
                </multiclip>
                <link>
                  <linkclipref>cs-0</linkclipref>
                  <mediatype>video</mediatype>
                  <trackindex>1</trackindex>
                  <clipindex>1</clipindex>
                </link>
                <link>
                  <linkclipref>csa1</linkclipref>
                  <mediatype>audio</mediatype>
                  <trackindex>1</trackindex>
                  <clipindex>1</clipindex>
                  <groupindex>1</groupindex>
                </link>
                <link>
                  <linkclipref>csa2</linkclipref>
                  <mediatype>audio</mediatype>
                  <trackindex>2</trackindex>
                  <clipindex>1</clipindex>
                  <groupindex>1</groupindex>
                </link>
              </clipitem>
            </track>
          </audio>
        </media>
      </sequence>
    </children>
  </project>
</xmeml>
