<?xml version="1.0" encoding="UTF-8"?>
<xmeml version="5">
  <project>
    <name>2024-07-11_CASINO_KOKOROKO_EDL</name>
    <children>
      <bin>
        <name>Sources</name>
        <children>
          <clip id="clip-1">
            <duration>96719</duration>
            <rate>
              <ntsc>false</ntsc>
              <timebase>25</timebase>
            </rate>
            <name>2024-07-05_CASINO_KOKOROKO_CAM01.mxf</name>
            <defaultangle>1</defaultangle>
            <media>
              <video>
                <track>
                  <clipitem id="clipv-1">
                    <duration>96719</duration>
                    <rate>
                      <ntsc>false</ntsc>
                      <timebase>25</timebase>
                    </rate>
                    <file id="src-1">
                      <name>2024-07-05_CASINO_KOKOROKO_CAM01.mxf</name>
                      <timecode>
                        <string>08:34:42:14</string>
                        <source>source</source>
                        <frame>772064</frame>
                      </timecode>
                      <pathurl>./2024-07-05_CASINO_KOKOROKO_CAM01.mxf</pathurl>
                      <media>
                        <audio>
                          <channelcount>2</channelcount>
                        </audio>
                        <video>
                          <samplecharacteristics>
                            <width>3840</width>
                            <height>2160</height>
                            <anamorphic>false</anamorphic>
                            <pixelaspectratio>square</pixelaspectratio>
                          </samplecharacteristics>
                        </video>
                      </media>
                    </file>
                    <sourcetrack>
                      <mediatype>video</mediatype>
                    </sourcetrack>
                    <link>
                      <linkclipref>clipv-1</linkclipref>
                      <mediatype>video</mediatype>
                      <trackindex>1</trackindex>
                    </link>
                    <link>
                      <linkclipref>clipa1-1</linkclipref>
                      <mediatype>audio</mediatype>
                      <trackindex>1</trackindex>
                      <groupindex>1</groupindex>
                    </link>
                    <link>
                      <linkclipref>clipa2-1</linkclipref>
                      <mediatype>audio</mediatype>
                      <trackindex>2</trackindex>
                      <groupindex>1</groupindex>
                    </link>
                  </clipitem>
                </track>
              </video>
              <audio>
                <track>
                  <clipitem id="clipa1-1">
                    <rate>
                      <ntsc>false</ntsc>
                      <timebase>25</timebase>
                    </rate>
                    <name>2024-07-05_CASINO_KOKOROKO_CAM01.mxf</name>
                    <file id="src-1"/>
                    <filter>
                      <effect>
                        <name>Audio Pan</name>
                        <effectid>audiopan</effectid>
                        <effectcategory>audiopan</effectcategory>
                        <effecttype>audiopan</effecttype>
                        <mediatype>audio</mediatype>
                        <parameter>
                          <name>Pan</name>
                          <parameterid>pan</parameterid>
                          <valuemin>-1</valuemin>
                          <valuemax>1</valuemax>
                          <value>-1</value>
                        </parameter>
                      </effect>
                    </filter>
                    <sourcetrack>
                      <mediatype>audio</mediatype>
                      <trackindex>1</trackindex>
                    </sourcetrack>
                    <link>
                      <linkclipref>clipv-1</linkclipref>
                      <mediatype>video</mediatype>
                      <trackindex>1</trackindex>
                    </link>
                    <link>
                      <linkclipref>clipa1-1</linkclipref>
                      <mediatype>audio</mediatype>
                      <trackindex>1</trackindex>
                      <groupindex>1</groupindex>
                    </link>
                    <link>
                      <linkclipref>clipa2-1</linkclipref>
                      <mediatype>audio</mediatype>
                      <trackindex>2</trackindex>
                      <groupindex>1</groupindex>
                    </link>
                  </clipitem>
                </track>
                <track>
                  <clipitem id="clipa2-1">
                    <rate>
                      <ntsc>false</ntsc>
                      <timebase>25</timebase>
                    </rate>
                    <name>2024-07-05_CASINO_KOKOROKO_CAM01.mxf</name>
                    <file id="src-1"/>
                    <filter>
                      <effect>
                        <name>Audio Pan</name>
                        <effectid>audiopan</effectid>
                        <effectcategory>audiopan</effectcategory>
                        <effecttype>audiopan</effecttype>
                        <mediatype>audio</mediatype>
                        <parameter>
                          <name>Pan</name>
                          <parameterid>pan</parameterid>
                          <valuemin>-1</valuemin>
                          <valuemax>1</valuemax>
                          <value>1</value>
                        </parameter>
                      </effect>
                    </filter>
                    <sourcetrack>
                      <mediatype>audio</mediatype>
                      <trackindex>2</trackindex>
                    </sourcetrack>
                    <link>
                      <linkclipref>clipv-1</linkclipref>
                      <mediatype>video</mediatype>
                      <trackindex>1</trackindex>
                    </link>
                    <link>
                      <linkclipref>clipa1-1</linkclipref>
                      <mediatype>audio</mediatype>
                      <trackindex>1</trackindex>
                      <groupindex>1</groupindex>
                    </link>
                    <link>
                      <linkclipref>clipa2-1</linkclipref>
                      <mediatype>audio</mediatype>
                      <trackindex>2</trackindex>
                      <groupindex>1</groupindex>
                    </link>
                  </clipitem>
                </track>
              </audio>
            </media>
          </clip>
          <clip id="clip-2">
            <duration>96719</duration>
            <rate>
              <ntsc>false</ntsc>
              <timebase>25</timebase>
            </rate>
            <name>2024-07-05_CASINO_KOKOROKO_CAM02.mxf</name>
            <defaultangle>2</defaultangle>
            <media>
              <video>
                <track>
                  <clipitem id="clipv-2">
                    <duration>96719</duration>
                    <rate>
                      <ntsc>false</ntsc>
                      <timebase>25</timebase>
                    </rate>
                    <file id="src-2">
                      <name>2024-07-05_CASINO_KOKOROKO_CAM02.mxf</name>
                      <timecode>
                        <string>08:34:42:14</string>
                        <source>source</source>
                        <frame>772064</frame>
                      </timecode>
                      <pathurl>./2024-07-05_CASINO_KOKOROKO_CAM02.mxf</pathurl>
                      <media>
                        <audio>
                          <channelcount>2</channelcount>
                        </audio>
                        <video>
                          <samplecharacteristics>
                            <width>3840</width>
                            <height>2160</height>
                            <anamorphic>false</anamorphic>
                            <pixelaspectratio>square</pixelaspectratio>
                          </samplecharacteristics>
                        </video>
                      </media>
                    </file>
                    <sourcetrack>
                      <mediatype>video</mediatype>
                    </sourcetrack>
                    <link>
                      <linkclipref>clipv-2</linkclipref>
                      <mediatype>video</mediatype>
                      <trackindex>1</trackindex>
                    </link>
                    <link>
                      <linkclipref>clipa1-2</linkclipref>
                      <mediatype>audio</mediatype>
                      <trackindex>1</trackindex>
                      <groupindex>1</groupindex>
                    </link>
                    <link>
                      <linkclipref>clipa2-2</linkclipref>
                      <mediatype>audio</mediatype>
                      <trackindex>2</trackindex>
                      <groupindex>1</groupindex>
                    </link>
                  </clipitem>
                </track>
              </video>
              <audio>
                <track>
                  <clipitem id="clipa1-2">
                    <rate>
                      <ntsc>false</ntsc>
                      <timebase>25</timebase>
                    </rate>
                    <name>2024-07-05_CASINO_KOKOROKO_CAM02.mxf</name>
                    <file id="src-2"/>
                    <filter>
                      <effect>
                        <name>Audio Pan</name>
                        <effectid>audiopan</effectid>
                        <effectcategory>audiopan</effectcategory>
                        <effecttype>audiopan</effecttype>
                        <mediatype>audio</mediatype>
                        <parameter>
                          <name>Pan</name>
                          <parameterid>pan</parameterid>
                          <valuemin>-1</valuemin>
                          <valuemax>1</valuemax>
                          <value>-1</value>
                        </parameter>
                      </effect>
                    </filter>
                    <sourcetrack>
                      <mediatype>audio</mediatype>
                      <trackindex>1</trackindex>
                    </sourcetrack>
                    <link>
                      <linkclipref>clipv-2</linkclipref>
                      <mediatype>video</mediatype>
                      <trackindex>1</trackindex>
                    </link>
                    <link>
                      <linkclipref>clipa1-2</linkclipref>
                      <mediatype>audio</mediatype>
                      <trackindex>1</trackindex>
                      <groupindex>1</groupindex>
                    </link>
                    <link>
                      <linkclipref>clipa2-2</linkclipref>
                      <mediatype>audio</mediatype>
                      <trackindex>2</trackindex>
                      <groupindex>1</groupindex>
                    </link>
                  </clipitem>
                </track>
                <track>
                  <clipitem id="clipa2-2">
                    <rate>
                      <ntsc>false</ntsc>
                      <timebase>25</timebase>
                    </rate>
                    <name>2024-07-05_CASINO_KOKOROKO_CAM02.mxf</name>
                    <file id="src-2"/>
                    <filter>
                      <effect>
                        <name>Audio Pan</name>
                        <effectid>audiopan</effectid>
                        <effectcategory>audiopan</effectcategory>
                        <effecttype>audiopan</effecttype>
                        <mediatype>audio</mediatype>
                        <parameter>
                          <name>Pan</name>
                          <parameterid>pan</parameterid>
                          <valuemin>-1</valuemin>
                          <valuemax>1</valuemax>
                          <value>1</value>
                        </parameter>
                      </effect>
                    </filter>
                    <sourcetrack>
                      <mediatype>audio</mediatype>
                      <trackindex>2</trackindex>
                    </sourcetrack>
                    <link>
                      <linkclipref>clipv-2</linkclipref>
                      <mediatype>video</mediatype>
                      <trackindex>1</trackindex>
                    </link>
                    <link>
                      <linkclipref>clipa1-2</linkclipref>
                      <mediatype>audio</mediatype>
                      <trackindex>1</trackindex>
                      <groupindex>1</groupindex>
                    </link>
                    <link>
                      <linkclipref>clipa2-2</linkclipref>
                      <mediatype>audio</mediatype>
                      <trackindex>2</trackindex>
                      <groupindex>1</groupindex>
                    </link>
                  </clipitem>
                </track>
              </audio>
            </media>
          </clip>
          <clip id="clip-3">
            <duration>96719</duration>
            <rate>
              <ntsc>false</ntsc>
              <timebase>25</timebase>
            </rate>
            <name>2024-07-05_CASINO_KOKOROKO_CAM03.mxf</name>
            <defaultangle>3</defaultangle>
            <media>
              <video>
                <track>
                  <clipitem id="clipv-3">
                    <duration>96719</duration>
                    <rate>
                      <ntsc>false</ntsc>
                      <timebase>25</timebase>
                    </rate>
                    <file id="src-3">
                      <name>2024-07-05_CASINO_KOKOROKO_CAM03.mxf</name>
                      <timecode>
                        <string>08:34:42:14</string>
                        <source>source</source>
                        <frame>772064</frame>
                      </timecode>
                      <pathurl>./2024-07-05_CASINO_KOKOROKO_CAM03.mxf</pathurl>
                      <media>
                        <audio>
                          <channelcount>2</channelcount>
                        </audio>
                        <video>
                          <samplecharacteristics>
                            <width>3840</width>
                            <height>2160</height>
                            <anamorphic>false</anamorphic>
                            <pixelaspectratio>square</pixelaspectratio>
                          </samplecharacteristics>
                        </video>
                      </media>
                    </file>
                    <sourcetrack>
                      <mediatype>video</mediatype>
                    </sourcetrack>
                    <link>
                      <linkclipref>clipv-3</linkclipref>
                      <mediatype>video</mediatype>
                      <trackindex>1</trackindex>
                    </link>
                    <link>
                      <linkclipref>clipa1-3</linkclipref>
                      <mediatype>audio</mediatype>
                      <trackindex>1</trackindex>
                      <groupindex>1</groupindex>
                    </link>
                    <link>
                      <linkclipref>clipa2-3</linkclipref>
                      <mediatype>audio</mediatype>
                      <trackindex>2</trackindex>
                      <groupindex>1</groupindex>
                    </link>
                  </clipitem>
                </track>
              </video>
              <audio>
                <track>
                  <clipitem id="clipa1-3">
                    <rate>
                      <ntsc>false</ntsc>
                      <timebase>25</timebase>
                    </rate>
                    <name>2024-07-05_CASINO_KOKOROKO_CAM03.mxf</name>
                    <file id="src-3"/>
                    <filter>
                      <effect>
                        <name>Audio Pan</name>
                        <effectid>audiopan</effectid>
                        <effectcategory>audiopan</effectcategory>
                        <effecttype>audiopan</effecttype>
                        <mediatype>audio</mediatype>
                        <parameter>
                          <name>Pan</name>
                          <parameterid>pan</parameterid>
                          <valuemin>-1</valuemin>
                          <valuemax>1</valuemax>
                          <value>-1</value>
                        </parameter>
                      </effect>
                    </filter>
                    <sourcetrack>
                      <mediatype>audio</mediatype>
                      <trackindex>1</trackindex>
                    </sourcetrack>
                    <link>
                      <linkclipref>clipv-3</linkclipref>
                      <mediatype>video</mediatype>
                      <trackindex>1</trackindex>
                    </link>
                    <link>
                      <linkclipref>clipa1-3</linkclipref>
                      <mediatype>audio</mediatype>
                      <trackindex>1</trackindex>
                      <groupindex>1</groupindex>
                    </link>
                    <link>
                      <linkclipref>clipa2-3</linkclipref>
                      <mediatype>audio</mediatype>
                      <trackindex>2</trackindex>
                      <groupindex>1</groupindex>
                    </link>
                  </clipitem>
                </track>
                <track>
                  <clipitem id="clipa2-3">
                    <rate>
                      <ntsc>false</ntsc>
                      <timebase>25</timebase>
                    </rate>
                    <name>2024-07-05_CASINO_KOKOROKO_CAM03.mxf</name>
                    <file id="src-3"/>
                    <filter>
                      <effect>
                        <name>Audio Pan</name>
                        <effectid>audiopan</effectid>
                        <effectcategory>audiopan</effectcategory>
                        <effecttype>audiopan</effecttype>
                        <mediatype>audio</mediatype>
                        <parameter>
                          <name>Pan</name>
                          <parameterid>pan</parameterid>
                          <valuemin>-1</valuemin>
                          <valuemax>1</valuemax>
                          <value>1</value>
                        </parameter>
                      </effect>
                    </filter>
                    <sourcetrack>
                      <mediatype>audio</mediatype>
                      <trackindex>2</trackindex>
                    </sourcetrack>
                    <link>
                      <linkclipref>clipv-3</linkclipref>
                      <mediatype>video</mediatype>
                      <trackindex>1</trackindex>
                    </link>
                    <link>
                      <linkclipref>clipa1-3</linkclipref>
                      <mediatype>audio</mediatype>
                      <trackindex>1</trackindex>
                      <groupindex>1</groupindex>
                    </link>
                    <link>
                      <linkclipref>clipa2-3</linkclipref>
                      <mediatype>audio</mediatype>
                      <trackindex>2</trackindex>
                      <groupindex>1</groupindex>
                    </link>
                  </clipitem>
                </track>
              </audio>
            </media>
          </clip>
          <clip id="clip-4">
            <duration>96719</duration>
            <rate>
              <ntsc>false</ntsc>
              <timebase>25</timebase>
            </rate>
            <name>2024-07-05_CASINO_KOKOROKO_CAM04.mxf</name>
            <defaultangle>4</defaultangle>
            <media>
              <video>
                <track>
                  <clipitem id="clipv-4">
                    <duration>96719</duration>
                    <rate>
                      <ntsc>false</ntsc>
                      <timebase>25</timebase>
                    </rate>
                    <file id="src-4">
                      <name>2024-07-05_CASINO_KOKOROKO_CAM04.mxf</name>
                      <timecode>
                        <string>08:34:42:14</string>
                        <source>source</source>
                        <frame>772064</frame>
                      </timecode>
                      <pathurl>./2024-07-05_CASINO_KOKOROKO_CAM04.mxf</pathurl>
                      <media>
                        <audio>
                          <channelcount>2</channelcount>
                        </audio>
                        <video>
                          <samplecharacteristics>
                            <width>3840</width>
                            <height>2160</height>
                            <anamorphic>false</anamorphic>
                            <pixelaspectratio>square</pixelaspectratio>
                          </samplecharacteristics>
                        </video>
                      </media>
                    </file>
                    <sourcetrack>
                      <mediatype>video</mediatype>
                    </sourcetrack>
                    <link>
                      <linkclipref>clipv-4</linkclipref>
                      <mediatype>video</mediatype>
                      <trackindex>1</trackindex>
                    </link>
                    <link>
                      <linkclipref>clipa1-4</linkclipref>
                      <mediatype>audio</mediatype>
                      <trackindex>1</trackindex>
                      <groupindex>1</groupindex>
                    </link>
                    <link>
                      <linkclipref>clipa2-4</linkclipref>
                      <mediatype>audio</mediatype>
                      <trackindex>2</trackindex>
                      <groupindex>1</groupindex>
                    </link>
                  </clipitem>
                </track>
              </video>
              <audio>
                <track>
                  <clipitem id="clipa1-4">
                    <rate>
                      <ntsc>false</ntsc>
                      <timebase>25</timebase>
                    </rate>
                    <name>2024-07-05_CASINO_KOKOROKO_CAM04.mxf</name>
                    <file id="src-4"/>
                    <filter>
                      <effect>
                        <name>Audio Pan</name>
                        <effectid>audiopan</effectid>
                        <effectcategory>audiopan</effectcategory>
                        <effecttype>audiopan</effecttype>
                        <mediatype>audio</mediatype>
                        <parameter>
                          <name>Pan</name>
                          <parameterid>pan</parameterid>
                          <valuemin>-1</valuemin>
                          <valuemax>1</valuemax>
                          <value>-1</value>
                        </parameter>
                      </effect>
                    </filter>
                    <sourcetrack>
                      <mediatype>audio</mediatype>
                      <trackindex>1</trackindex>
                    </sourcetrack>
                    <link>
                      <linkclipref>clipv-4</linkclipref>
                      <mediatype>video</mediatype>
                      <trackindex>1</trackindex>
                    </link>
                    <link>
                      <linkclipref>clipa1-4</linkclipref>
                      <mediatype>audio</mediatype>
                      <trackindex>1</trackindex>
                      <groupindex>1</groupindex>
                    </link>
                    <link>
                      <linkclipref>clipa2-4</linkclipref>
                      <mediatype>audio</mediatype>
                      <trackindex>2</trackindex>
                      <groupindex>1</groupindex>
                    </link>
                  </clipitem>
                </track>
                <track>
                  <clipitem id="clipa2-4">
                    <rate>
                      <ntsc>false</ntsc>
                      <timebase>25</timebase>
                    </rate>
                    <name>2024-07-05_CASINO_KOKOROKO_CAM04.mxf</name>
                    <file id="src-4"/>
                    <filter>
                      <effect>
                        <name>Audio Pan</name>
                        <effectid>audiopan</effectid>
                        <effectcategory>audiopan</effectcategory>
                        <effecttype>audiopan</effecttype>
                        <mediatype>audio</mediatype>
                        <parameter>
                          <name>Pan</name>
                          <parameterid>pan</parameterid>
                          <valuemin>-1</valuemin>
                          <valuemax>1</valuemax>
                          <value>1</value>
                        </parameter>
                      </effect>
                    </filter>
                    <sourcetrack>
                      <mediatype>audio</mediatype>
                      <trackindex>2</trackindex>
                    </sourcetrack>
                    <link>
                      <linkclipref>clipv-4</linkclipref>
                      <mediatype>video</mediatype>
                      <trackindex>1</trackindex>
                    </link>
                    <link>
                      <linkclipref>clipa1-4</linkclipref>
                      <mediatype>audio</mediatype>
                      <trackindex>1</trackindex>
                      <groupindex>1</groupindex>
                    </link>
                    <link>
                      <linkclipref>clipa2-4</linkclipref>
                      <mediatype>audio</mediatype>
                      <trackindex>2</trackindex>
                      <groupindex>1</groupindex>
                    </link>
                  </clipitem>
                </track>
              </audio>
            </media>
          </clip>
          <clip id="clip-5">
            <duration>96719</duration>
            <rate>
              <ntsc>false</ntsc>
              <timebase>25</timebase>
            </rate>
            <name>2024-07-05_CASINO_KOKOROKO_CAM05.mxf</name>
            <defaultangle>5</defaultangle>
            <media>
              <video>
                <track>
                  <clipitem id="clipv-5">
                    <duration>96719</duration>
                    <rate>
                      <ntsc>false</ntsc>
                      <timebase>25</timebase>
                    </rate>
                    <file id="src-5">
                      <name>2024-07-05_CASINO_KOKOROKO_CAM05.mxf</name>
                      <timecode>
                        <string>08:34:42:14</string>
                        <source>source</source>
                        <frame>772064</frame>
                      </timecode>
                      <pathurl>./2024-07-05_CASINO_KOKOROKO_CAM05.mxf</pathurl>
                      <media>
                        <audio>
                          <channelcount>2</channelcount>
                        </audio>
                        <video>
                          <samplecharacteristics>
                            <width>3840</width>
                            <height>2160</height>
                            <anamorphic>false</anamorphic>
                            <pixelaspectratio>square</pixelaspectratio>
                          </samplecharacteristics>
                        </video>
                      </media>
                    </file>
                    <sourcetrack>
                      <mediatype>video</mediatype>
                    </sourcetrack>
                    <link>
                      <linkclipref>clipv-5</linkclipref>
                      <mediatype>video</mediatype>
                      <trackindex>1</trackindex>
                    </link>
                    <link>
                      <linkclipref>clipa1-5</linkclipref>
                      <mediatype>audio</mediatype>
                      <trackindex>1</trackindex>
                      <groupindex>1</groupindex>
                    </link>
                    <link>
                      <linkclipref>clipa2-5</linkclipref>
                      <mediatype>audio</mediatype>
                      <trackindex>2</trackindex>
                      <groupindex>1</groupindex>
                    </link>
                  </clipitem>
                </track>
              </video>
              <audio>
                <track>
                  <clipitem id="clipa1-5">
                    <rate>
                      <ntsc>false</ntsc>
                      <timebase>25</timebase>
                    </rate>
                    <name>2024-07-05_CASINO_KOKOROKO_CAM05.mxf</name>
                    <file id="src-5"/>
                    <filter>
                      <effect>
                        <name>Audio Pan</name>
                        <effectid>audiopan</effectid>
                        <effectcategory>audiopan</effectcategory>
                        <effecttype>audiopan</effecttype>
                        <mediatype>audio</mediatype>
                        <parameter>
                          <name>Pan</name>
                          <parameterid>pan</parameterid>
                          <valuemin>-1</valuemin>
                          <valuemax>1</valuemax>
                          <value>-1</value>
                        </parameter>
                      </effect>
                    </filter>
                    <sourcetrack>
                      <mediatype>audio</mediatype>
                      <trackindex>1</trackindex>
                    </sourcetrack>
                    <link>
                      <linkclipref>clipv-5</linkclipref>
                      <mediatype>video</mediatype>
                      <trackindex>1</trackindex>
                    </link>
                    <link>
                      <linkclipref>clipa1-5</linkclipref>
                      <mediatype>audio</mediatype>
                      <trackindex>1</trackindex>
                      <groupindex>1</groupindex>
                    </link>
                    <link>
                      <linkclipref>clipa2-5</linkclipref>
                      <mediatype>audio</mediatype>
                      <trackindex>2</trackindex>
                      <groupindex>1</groupindex>
                    </link>
                  </clipitem>
                </track>
                <track>
                  <clipitem id="clipa2-5">
                    <rate>
                      <ntsc>false</ntsc>
                      <timebase>25</timebase>
                    </rate>
                    <name>2024-07-05_CASINO_KOKOROKO_CAM05.mxf</name>
                    <file id="src-5"/>
                    <filter>
                      <effect>
                        <name>Audio Pan</name>
                        <effectid>audiopan</effectid>
                        <effectcategory>audiopan</effectcategory>
                        <effecttype>audiopan</effecttype>
                        <mediatype>audio</mediatype>
                        <parameter>
                          <name>Pan</name>
                          <parameterid>pan</parameterid>
                          <valuemin>-1</valuemin>
                          <valuemax>1</valuemax>
                          <value>1</value>
                        </parameter>
                      </effect>
                    </filter>
                    <sourcetrack>
                      <mediatype>audio</mediatype>
                      <trackindex>2</trackindex>
                    </sourcetrack>
                    <link>
                      <linkclipref>clipv-5</linkclipref>
                      <mediatype>video</mediatype>
                      <trackindex>1</trackindex>
                    </link>
                    <link>
                      <linkclipref>clipa1-5</linkclipref>
                      <mediatype>audio</mediatype>
                      <trackindex>1</trackindex>
                      <groupindex>1</groupindex>
                    </link>
                    <link>
                      <linkclipref>clipa2-5</linkclipref>
                      <mediatype>audio</mediatype>
                      <trackindex>2</trackindex>
                      <groupindex>1</groupindex>
                    </link>
                  </clipitem>
                </track>
              </audio>
            </media>
          </clip>
          <clip id="clip-6">
            <duration>96719</duration>
            <rate>
              <ntsc>false</ntsc>
              <timebase>25</timebase>
            </rate>
            <name>2024-07-05_CASINO_KOKOROKO_CAM06.mxf</name>
            <defaultangle>6</defaultangle>
            <media>
              <video>
                <track>
                  <clipitem id="clipv-6">
                    <duration>96719</duration>
                    <rate>
                      <ntsc>false</ntsc>
                      <timebase>25</timebase>
                    </rate>
                    <file id="src-6">
                      <name>2024-07-05_CASINO_KOKOROKO_CAM06.mxf</name>
                      <timecode>
                        <string>08:34:42:14</string>
                        <source>source</source>
                        <frame>772064</frame>
                      </timecode>
                      <pathurl>./2024-07-05_CASINO_KOKOROKO_CAM06.mxf</pathurl>
                      <media>
                        <audio>
                          <channelcount>2</channelcount>
                        </audio>
                        <video>
                          <samplecharacteristics>
                            <width>3840</width>
                            <height>2160</height>
                            <anamorphic>false</anamorphic>
                            <pixelaspectratio>square</pixelaspectratio>
                          </samplecharacteristics>
                        </video>
                      </media>
                    </file>
                    <sourcetrack>
                      <mediatype>video</mediatype>
                    </sourcetrack>
                    <link>
                      <linkclipref>clipv-6</linkclipref>
                      <mediatype>video</mediatype>
                      <trackindex>1</trackindex>
                    </link>
                    <link>
                      <linkclipref>clipa1-6</linkclipref>
                      <mediatype>audio</mediatype>
                      <trackindex>1</trackindex>
                      <groupindex>1</groupindex>
                    </link>
                    <link>
                      <linkclipref>clipa2-6</linkclipref>
                      <mediatype>audio</mediatype>
                      <trackindex>2</trackindex>
                      <groupindex>1</groupindex>
                    </link>
                  </clipitem>
                </track>
              </video>
              <audio>
                <track>
                  <clipitem id="clipa1-6">
                    <rate>
                      <ntsc>false</ntsc>
                      <timebase>25</timebase>
                    </rate>
                    <name>2024-07-05_CASINO_KOKOROKO_CAM06.mxf</name>
                    <file id="src-6"/>
                    <filter>
                      <effect>
                        <name>Audio Pan</name>
                        <effectid>audiopan</effectid>
                        <effectcategory>audiopan</effectcategory>
                        <effecttype>audiopan</effecttype>
                        <mediatype>audio</mediatype>
                        <parameter>
                          <name>Pan</name>
                          <parameterid>pan</parameterid>
                          <valuemin>-1</valuemin>
                          <valuemax>1</valuemax>
                          <value>-1</value>
                        </parameter>
                      </effect>
                    </filter>
                    <sourcetrack>
                      <mediatype>audio</mediatype>
                      <trackindex>1</trackindex>
                    </sourcetrack>
                    <link>
                      <linkclipref>clipv-6</linkclipref>
                      <mediatype>video</mediatype>
                      <trackindex>1</trackindex>
                    </link>
                    <link>
                      <linkclipref>clipa1-6</linkclipref>
                      <mediatype>audio</mediatype>
                      <trackindex>1</trackindex>
                      <groupindex>1</groupindex>
                    </link>
                    <link>
                      <linkclipref>clipa2-6</linkclipref>
                      <mediatype>audio</mediatype>
                      <trackindex>2</trackindex>
                      <groupindex>1</groupindex>
                    </link>
                  </clipitem>
                </track>
                <track>
                  <clipitem id="clipa2-6">
                    <rate>
                      <ntsc>false</ntsc>
                      <timebase>25</timebase>
                    </rate>
                    <name>2024-07-05_CASINO_KOKOROKO_CAM06.mxf</name>
                    <file id="src-6"/>
                    <filter>
                      <effect>
                        <name>Audio Pan</name>
                        <effectid>audiopan</effectid>
                        <effectcategory>audiopan</effectcategory>
                        <effecttype>audiopan</effecttype>
                        <mediatype>audio</mediatype>
                        <parameter>
                          <name>Pan</name>
                          <parameterid>pan</parameterid>
                          <valuemin>-1</valuemin>
                          <valuemax>1</valuemax>
                          <value>1</value>
                        </parameter>
                      </effect>
                    </filter>
                    <sourcetrack>
                      <mediatype>audio</mediatype>
                      <trackindex>2</trackindex>
                    </sourcetrack>
                    <link>
                      <linkclipref>clipv-6</linkclipref>
                      <mediatype>video</mediatype>
                      <trackindex>1</trackindex>
                    </link>
                    <link>
                      <linkclipref>clipa1-6</linkclipref>
                      <mediatype>audio</mediatype>
                      <trackindex>1</trackindex>
                      <groupindex>1</groupindex>
                    </link>
                    <link>
                      <linkclipref>clipa2-6</linkclipref>
                      <mediatype>audio</mediatype>
                      <trackindex>2</trackindex>
                      <groupindex>1</groupindex>
                    </link>
                  </clipitem>
                </track>
              </audio>
            </media>
          </clip>
          <clip id="clip-7">
            <duration>96719</duration>
            <rate>
              <ntsc>false</ntsc>
              <timebase>25</timebase>
            </rate>
            <name>2024-07-05_CASINO_KOKOROKO_PGM.mxf</name>
            <defaultangle>7</defaultangle>
            <media>
              <video>
                <track>
                  <clipitem id="clipv-7">
                    <duration>96719</duration>
                    <rate>
                      <ntsc>false</ntsc>
                      <timebase>25</timebase>
                    </rate>
                    <file id="src-7">
                      <name>2024-07-05_CASINO_KOKOROKO_PGM.mxf</name>
                      <timecode>
                        <string>08:34:42:13</string>
                        <source>source</source>
                        <frame>772063</frame>
                      </timecode>
                      <pathurl>./2024-07-05_CASINO_KOKOROKO_PGM.mxf</pathurl>
                      <media>
                        <audio>
                          <channelcount>2</channelcount>
                        </audio>
                        <video>
                          <samplecharacteristics>
                            <width>3840</width>
                            <height>2160</height>
                            <anamorphic>false</anamorphic>
                            <pixelaspectratio>square</pixelaspectratio>
                          </samplecharacteristics>
                        </video>
                      </media>
                    </file>
                    <sourcetrack>
                      <mediatype>video</mediatype>
                    </sourcetrack>
                    <link>
                      <linkclipref>clipv-7</linkclipref>
                      <mediatype>video</mediatype>
                      <trackindex>1</trackindex>
                    </link>
                    <link>
                      <linkclipref>clipa1-7</linkclipref>
                      <mediatype>audio</mediatype>
                      <trackindex>1</trackindex>
                      <groupindex>1</groupindex>
                    </link>
                    <link>
                      <linkclipref>clipa2-7</linkclipref>
                      <mediatype>audio</mediatype>
                      <trackindex>2</trackindex>
                      <groupindex>1</groupindex>
                    </link>
                  </clipitem>
                </track>
              </video>
              <audio>
                <track>
                  <clipitem id="clipa1-7">
                    <rate>
                      <ntsc>false</ntsc>
                      <timebase>25</timebase>
                    </rate>
                    <name>2024-07-05_CASINO_KOKOROKO_PGM.mxf</name>
                    <file id="src-7"/>
                    <filter>
                      <effect>
                        <name>Audio Pan</name>
                        <effectid>audiopan</effectid>
                        <effectcategory>audiopan</effectcategory>
                        <effecttype>audiopan</effecttype>
                        <mediatype>audio</mediatype>
                        <parameter>
                          <name>Pan</name>
                          <parameterid>pan</parameterid>
                          <valuemin>-1</valuemin>
                          <valuemax>1</valuemax>
                          <value>-1</value>
                        </parameter>
                      </effect>
                    </filter>
                    <sourcetrack>
                      <mediatype>audio</mediatype>
                      <trackindex>1</trackindex>
                    </sourcetrack>
                    <link>
                      <linkclipref>clipv-7</linkclipref>
                      <mediatype>video</mediatype>
                      <trackindex>1</trackindex>
                    </link>
                    <link>
                      <linkclipref>clipa1-7</linkclipref>
                      <mediatype>audio</mediatype>
                      <trackindex>1</trackindex>
                      <groupindex>1</groupindex>
                    </link>
                    <link>
                      <linkclipref>clipa2-7</linkclipref>
                      <mediatype>audio</mediatype>
                      <trackindex>2</trackindex>
                      <groupindex>1</groupindex>
                    </link>
                  </clipitem>
                </track>
                <track>
                  <clipitem id="clipa2-7">
                    <rate>
                      <ntsc>false</ntsc>
                      <timebase>25</timebase>
                    </rate>
                    <name>2024-07-05_CASINO_KOKOROKO_PGM.mxf</name>
                    <file id="src-7"/>
                    <filter>
                      <effect>
                        <name>Audio Pan</name>
                        <effectid>audiopan</effectid>
                        <effectcategory>audiopan</effectcategory>
                        <effecttype>audiopan</effecttype>
                        <mediatype>audio</mediatype>
                        <parameter>
                          <name>Pan</name>
                          <parameterid>pan</parameterid>
                          <valuemin>-1</valuemin>
                          <valuemax>1</valuemax>
                          <value>1</value>
                        </parameter>
                      </effect>
                    </filter>
                    <sourcetrack>
                      <mediatype>audio</mediatype>
                      <trackindex>2</trackindex>
                    </sourcetrack>
                    <link>
                      <linkclipref>clipv-7</linkclipref>
                      <mediatype>video</mediatype>
                      <trackindex>1</trackindex>
                    </link>
                    <link>
                      <linkclipref>clipa1-7</linkclipref>
                      <mediatype>audio</mediatype>
                      <trackindex>1</trackindex>
                      <groupindex>1</groupindex>
                    </link>
                    <link>
                      <linkclipref>clipa2-7</linkclipref>
                      <mediatype>audio</mediatype>
                      <trackindex>2</trackindex>
                      <groupindex>1</groupindex>
                    </link>
                  </clipitem>
                </track>
              </audio>
            </media>
          </clip>
        </children>
      </bin>
      <bin>
        <name>Bin</name>
        <children>
          <clip id="clip-master">
            <duration>96719</duration>
            <rate>
              <ntsc>false</ntsc>
              <timebase>25</timebase>
            </rate>
            <anamorphic>false</anamorphic>
            <ismasterclip>true</ismasterclip>
            <media>
              <video>
                <track>
                  <enabled>true</enabled>
                  <locked>false</locked>
                  <clipitem id="clip-multi">
                    <duration>96719</duration>
                    <rate>
                      <ntsc>false</ntsc>
                      <timebase>25</timebase>
                    </rate>
                    <name>Multiclip</name>
                    <sourcetrack>
                      <mediatype>video</mediatype>
                      <trackindex>1</trackindex>
                    </sourcetrack>
                    <anamorphic>false</anamorphic>
                    <multiclip id="multiclip-bin">
                      <name>MultiClip</name>
                      <collapsed>false</collapsed>
                      <masterclipid>clip-master</masterclipid>
                      <angle>
                        <clip id="clip-1"/>
                      </angle>
                      <angle>
                        <clip id="clip-2"/>
                      </angle>
                      <angle>
                        <clip id="clip-3"/>
                      </angle>
                      <angle>
                        <clip id="clip-4"/>
                      </angle>
                      <angle>
                        <clip id="clip-5"/>
                      </angle>
                      <angle>
                        <clip id="clip-6"/>
                      </angle>
                      <angle>
                        <clip id="clip-7"/>
                      </angle>
                    </multiclip>
                  </clipitem>
                </track>
              </video>
              <audio>
                <track>
                  <clipitem id="clipa1-multi">
                    <name>Multiclip</name>
                    <file id="src-1"/>
                    <sourcetrack>
                      <mediatype>audio</mediatype>
                      <trackindex>1</trackindex>
                    </sourcetrack>
                    <link>
                      <linkclipref>clip-multi</linkclipref>
                      <mediatype>video</mediatype>
                      <trackindex>1</trackindex>
                    </link>
                    <link>
                      <linkclipref>clipa1-multi</linkclipref>
                      <mediatype>audio</mediatype>
                      <trackindex>1</trackindex>
                      <groupindex>1</groupindex>
                    </link>
                    <link>
                      <linkclipref>clipa2-multi</linkclipref>
                      <mediatype>audio</mediatype>
                      <trackindex>2</trackindex>
                      <groupindex>1</groupindex>
                    </link>
                    <multiclip id="multiclip-bin"/>
                  </clipitem>
                </track>
                <track>
                  <clipitem id="clipa2-multi">
                    <name>Multiclip</name>
                    <file id="src-1"/>
                    <sourcetrack>
                      <mediatype>audio</mediatype>
                      <trackindex>2</trackindex>
                    </sourcetrack>
                    <link>
                      <linkclipref>clip-multi</linkclipref>
                      <mediatype>video</mediatype>
                      <trackindex>1</trackindex>
                    </link>
                    <link>
                      <linkclipref>clipa1-multi</linkclipref>
                      <mediatype>audio</mediatype>
                      <trackindex>1</trackindex>
                      <groupindex>1</groupindex>
                    </link>
                    <link>
                      <linkclipref>clipa2-multi</linkclipref>
                      <mediatype>audio</mediatype>
                      <trackindex>2</trackindex>
                      <groupindex>1</groupindex>
                    </link>
                    <multiclip id="multiclip-bin"/>
                  </clipitem>
                </track>
              </audio>
            </media>
          </clip>
        </children>
      </bin>
      <sequence>
        <name>Sequence</name>
        <duration>96719</duration>
        <rate>
          <ntsc>false</ntsc>
          <timebase>25</timebase>
        </rate>
        <timecode>
          <string>08:34:42:14</string>
          <frame>772064</frame>
        </timecode>
        <media>
          <video>
            <format>
              <samplecharacteristics>
                <width>3840</width>
                <height>2160</height>
                <anamorphic>false</anamorphic>
                <pixelaspectratio>square</pixelaspectratio>
                <rate>
                  <ntsc>false</ntsc>
                  <timebase>25</timebase>
                </rate>
              </samplecharacteristics>
            </format>
            <track>
              <clipitem id="cs-25">
                <duration>262</duration>
                <rate>
                  <ntsc>false</ntsc>
                  <timebase>25</timebase>
                </rate>
                <in>0</in>
                <out>261</out>
                <start>0</start>
                <end>261</end>
                <file id="src-6"/>
                <sourcetrack>
                  <mediatype>video</mediatype>
                  <trackindex>1</trackindex>
                </sourcetrack>
                <multiclip id="mcs-25">
                  <name>MCS-25</name>
                  <masterclipid>clip-master</masterclipid>
                  <collapsed>false</collapsed>
                  <angle>
                    <activevideoangle>false</activevideoangle>
                    <activeaudioangle>false</activeaudioangle>
                    <clip id="clip-1"/>
                  </angle>
                  <angle>
                    <activevideoangle>false</activevideoangle>
                    <activeaudioangle>false</activeaudioangle>
                    <clip id="clip-2"/>
                  </angle>
                  <angle>
                    <activevideoangle>false</activevideoangle>
                    <activeaudioangle>false</activeaudioangle>
                    <clip id="clip-3"/>
                  </angle>
                  <angle>
                    <activevideoangle>false</activevideoangle>
                    <activeaudioangle>false</activeaudioangle>
                    <clip id="clip-4"/>
                  </angle>
                  <angle>
                    <activevideoangle>false</activevideoangle>
                    <activeaudioangle>false</activeaudioangle>
                    <clip id="clip-5"/>
                  </angle>
                  <angle>
                    <activevideoangle>true</activevideoangle>
                    <activeaudioangle>true</activeaudioangle>
                    <clip id="clip-6"/>
                  </angle>
                  <angle>
                    <activevideoangle>false</activevideoangle>
                    <activeaudioangle>false</activeaudioangle>
                    <clip id="clip-7"/>
                  </angle>
                  <masterclipid>clip-master</masterclipid>
                </multiclip>
              </clipitem>
              <clipitem id="cs-26">
                <duration>117</duration>
                <rate>
                  <ntsc>false</ntsc>
                  <timebase>25</timebase>
                </rate>
                <in>261</in>
                <out>377</out>
                <start>261</start>
                <end>377</end>
                <file id="src-1"/>
                <sourcetrack>
                  <mediatype>video</mediatype>
                  <trackindex>1</trackindex>
                </sourcetrack>
                <multiclip id="mcs-26">
                  <name>MCS-26</name>
                  <masterclipid>clip-master</masterclipid>
                  <collapsed>false</collapsed>
                  <angle>
                    <activevideoangle>true</activevideoangle>
                    <activeaudioangle>true</activeaudioangle>
                    <clip id="clip-1"/>
                  </angle>
                  <angle>
                    <activevideoangle>false</activevideoangle>
                    <activeaudioangle>false</activeaudioangle>
                    <clip id="clip-2"/>
                  </angle>
                  <angle>
                    <activevideoangle>false</activevideoangle>
                    <activeaudioangle>false</activeaudioangle>
                    <clip id="clip-3"/>
                  </angle>
                  <angle>
                    <activevideoangle>false</activevideoangle>
                    <activeaudioangle>false</activeaudioangle>
                    <clip id="clip-4"/>
                  </angle>
                  <angle>
                    <activevideoangle>false</activevideoangle>
                    <activeaudioangle>false</activeaudioangle>
                    <clip id="clip-5"/>
                  </angle>
                  <angle>
                    <activevideoangle>false</activevideoangle>
                    <activeaudioangle>false</activeaudioangle>
                    <clip id="clip-6"/>
                  </angle>
                  <angle>
                    <activevideoangle>false</activevideoangle>
                    <activeaudioangle>false</activeaudioangle>
                    <clip id="clip-7"/>
                  </angle>
                  <masterclipid>clip-master</masterclipid>
                </multiclip>
              </clipitem>
              <clipitem id="cs-27">
                <duration>333</duration>
                <rate>
                  <ntsc>false</ntsc>
                  <timebase>25</timebase>
                </rate>
                <in>377</in>
                <out>709</out>
                <start>377</start>
                <end>709</end>
                <file id="src-4"/>
                <sourcetrack>
                  <mediatype>video</mediatype>
                  <trackindex>1</trackindex>
                </sourcetrack>
                <multiclip id="mcs-27">
                  <name>MCS-27</name>
                  <masterclipid>clip-master</masterclipid>
                  <collapsed>false</collapsed>
                  <angle>
                    <activevideoangle>false</activevideoangle>
                    <activeaudioangle>false</activeaudioangle>
                    <clip id="clip-1"/>
                  </angle>
                  <angle>
                    <activevideoangle>false</activevideoangle>
                    <activeaudioangle>false</activeaudioangle>
                    <clip id="clip-2"/>
                  </angle>
                  <angle>
                    <activevideoangle>false</activevideoangle>
                    <activeaudioangle>false</activeaudioangle>
                    <clip id="clip-3"/>
                  </angle>
                  <angle>
                    <activevideoangle>true</activevideoangle>
                    <activeaudioangle>true</activeaudioangle>
                    <clip id="clip-4"/>
                  </angle>
                  <angle>
                    <activevideoangle>false</activevideoangle>
                    <activeaudioangle>false</activeaudioangle>
                    <clip id="clip-5"/>
                  </angle>
                  <angle>
                    <activevideoangle>false</activevideoangle>
                    <activeaudioangle>false</activeaudioangle>
                    <clip id="clip-6"/>
                  </angle>
                  <angle>
                    <activevideoangle>false</activevideoangle>
                    <activeaudioangle>false</activeaudioangle>
                    <clip id="clip-7"/>
                  </angle>
                  <masterclipid>clip-master</masterclipid>
                </multiclip>
              </clipitem>
              <clipitem id="cs-28">
                <duration>215</duration>
                <rate>
                  <ntsc>false</ntsc>
                  <timebase>25</timebase>
                </rate>
                <in>709</in>
                <out>923</out>
                <start>709</start>
                <end>923</end>
                <file id="src-5"/>
                <sourcetrack>
                  <mediatype>video</mediatype>
                  <trackindex>1</trackindex>
                </sourcetrack>
                <multiclip id="mcs-28">
                  <name>MCS-28</name>
                  <masterclipid>clip-master</masterclipid>
                  <collapsed>false</collapsed>
                  <angle>
                    <activevideoangle>false</activevideoangle>
                    <activeaudioangle>false</activeaudioangle>
                    <clip id="clip-1"/>
                  </angle>
                  <angle>
                    <activevideoangle>false</activevideoangle>
                    <activeaudioangle>false</activeaudioangle>
                    <clip id="clip-2"/>
                  </angle>
                  <angle>
                    <activevideoangle>false</activevideoangle>
                    <activeaudioangle>false</activeaudioangle>
                    <clip id="clip-3"/>
                  </angle>
                  <angle>
                    <activevideoangle>false</activevideoangle>
                    <activeaudioangle>false</activeaudioangle>
                    <clip id="clip-4"/>
                  </angle>
                  <angle>
                    <activevideoangle>true</activevideoangle>
                    <activeaudioangle>true</activeaudioangle>
                    <clip id="clip-5"/>
                  </angle>
                  <angle>
                    <activevideoangle>false</activevideoangle>
                    <activeaudioangle>false</activeaudioangle>
                    <clip id="clip-6"/>
                  </angle>
                  <angle>
                    <activevideoangle>false</activevideoangle>
                    <activeaudioangle>false</activeaudioangle>
                    <clip id="clip-7"/>
                  </angle>
                  <masterclipid>clip-master</masterclipid>
                </multiclip>
              </clipitem>
              <clipitem id="cs-29">
                <duration>161</duration>
                <rate>
                  <ntsc>false</ntsc>
                  <timebase>25</timebase>
                </rate>
                <in>923</in>
                <out>1083</out>
                <start>923</start>
                <end>1083</end>
                <file id="src-1"/>
                <sourcetrack>
                  <mediatype>video</mediatype>
                  <trackindex>1</trackindex>
                </sourcetrack>
                <multiclip id="mcs-29">
                  <name>MCS-29</name>
                  <masterclipid>clip-master</masterclipid>
                  <collapsed>false</collapsed>
                  <angle>
                    <activevideoangle>true</activevideoangle>
                    <activeaudioangle>true</activeaudioangle>
                    <clip id="clip-1"/>
                  </angle>
                  <angle>
                    <activevideoangle>false</activevideoangle>
                    <activeaudioangle>false</activeaudioangle>
                    <clip id="clip-2"/>
                  </angle>
                  <angle>
                    <activevideoangle>false</activevideoangle>
                    <activeaudioangle>false</activeaudioangle>
                    <clip id="clip-3"/>
                  </angle>
                  <angle>
                    <activevideoangle>false</activevideoangle>
                    <activeaudioangle>false</activeaudioangle>
                    <clip id="clip-4"/>
                  </angle>
                  <angle>
                    <activevideoangle>false</activevideoangle>
                    <activeaudioangle>false</activeaudioangle>
                    <clip id="clip-5"/>
                  </angle>
                  <angle>
                    <activevideoangle>false</activevideoangle>
                    <activeaudioangle>false</activeaudioangle>
                    <clip id="clip-6"/>
                  </angle>
                  <angle>
                    <activevideoangle>false</activevideoangle>
                    <activeaudioangle>false</activeaudioangle>
                    <clip id="clip-7"/>
                  </angle>
                  <masterclipid>clip-master</masterclipid>
                </multiclip>
              </clipitem>
              <clipitem id="cs-30">
                <duration>80</duration>
                <rate>
                  <ntsc>false</ntsc>
                  <timebase>25</timebase>
                </rate>
                <in>1083</in>
                <out>1162</out>
                <start>1083</start>
                <end>1162</end>
                <file id="src-6"/>
                <sourcetrack>
                  <mediatype>video</mediatype>
                  <trackindex>1</trackindex>
                </sourcetrack>
                <multiclip id="mcs-30">
                  <name>MCS-30</name>
                  <masterclipid>clip-master</masterclipid>
                  <collapsed>false</collapsed>
                  <angle>
                    <activevideoangle>false</activevideoangle>
                    <activeaudioangle>false</activeaudioangle>
                    <clip id="clip-1"/>
                  </angle>
                  <angle>
                    <activevideoangle>false</activevideoangle>
                    <activeaudioangle>false</activeaudioangle>
                    <clip id="clip-2"/>
                  </angle>
                  <angle>
                    <activevideoangle>false</activevideoangle>
                    <activeaudioangle>false</activeaudioangle>
                    <clip id="clip-3"/>
                  </angle>
                  <angle>
                    <activevideoangle>false</activevideoangle>
                    <activeaudioangle>false</activeaudioangle>
                    <clip id="clip-4"/>
                  </angle>
                  <angle>
                    <activevideoangle>false</activevideoangle>
                    <activeaudioangle>false</activeaudioangle>
                    <clip id="clip-5"/>
                  </angle>
                  <angle>
                    <activevideoangle>true</activevideoangle>
                    <activeaudioangle>true</activeaudioangle>
                    <clip id="clip-6"/>
                  </angle>
                  <angle>
                    <activevideoangle>false</activevideoangle>
                    <activeaudioangle>false</activeaudioangle>
                    <clip id="clip-7"/>
                  </angle>
                  <masterclipid>clip-master</masterclipid>
                </multiclip>
              </clipitem>
              <clipitem id="cs-31">
                <duration>96</duration>
                <rate>
                  <ntsc>false</ntsc>
                  <timebase>25</timebase>
                </rate>
                <in>1162</in>
                <out>1257</out>
                <start>1162</start>
                <end>1257</end>
                <file id="src-3"/>
                <sourcetrack>
                  <mediatype>video</mediatype>
                  <trackindex>1</trackindex>
                </sourcetrack>
                <multiclip id="mcs-31">
                  <name>MCS-31</name>
                  <masterclipid>clip-master</masterclipid>
                  <collapsed>false</collapsed>
                  <angle>
                    <activevideoangle>false</activevideoangle>
                    <activeaudioangle>false</activeaudioangle>
                    <clip id="clip-1"/>
                  </angle>
                  <angle>
                    <activevideoangle>false</activevideoangle>
                    <activeaudioangle>false</activeaudioangle>
                    <clip id="clip-2"/>
                  </angle>
                  <angle>
                    <activevideoangle>true</activevideoangle>
                    <activeaudioangle>true</activeaudioangle>
                    <clip id="clip-3"/>
                  </angle>
                  <angle>
                    <activevideoangle>false</activevideoangle>
                    <activeaudioangle>false</activeaudioangle>
                    <clip id="clip-4"/>
                  </angle>
                  <angle>
                    <activevideoangle>false</activevideoangle>
                    <activeaudioangle>false</activeaudioangle>
                    <clip id="clip-5"/>
                  </angle>
                  <angle>
                    <activevideoangle>false</activevideoangle>
                    <activeaudioangle>false</activeaudioangle>
                    <clip id="clip-6"/>
                  </angle>
                  <angle>
                    <activevideoangle>false</activevideoangle>
                    <activeaudioangle>false</activeaudioangle>
                    <clip id="clip-7"/>
                  </angle>
                  <masterclipid>clip-master</masterclipid>
                </multiclip>
              </clipitem>
              <clipitem id="cs-32">
                <duration>63</duration>
                <rate>
                  <ntsc>false</ntsc>
                  <timebase>25</timebase>
                </rate>
                <in>1257</in>
                <out>1319</out>
                <start>1257</start>
                <end>1319</end>
                <file id="src-2"/>
                <sourcetrack>
                  <mediatype>video</mediatype>
                  <trackindex>1</trackindex>
                </sourcetrack>
                <multiclip id="mcs-32">
                  <name>MCS-32</name>
                  <masterclipid>clip-master</masterclipid>
                  <collapsed>false</collapsed>
                  <angle>
                    <activevideoangle>false</activevideoangle>
                    <activeaudioangle>false</activeaudioangle>
                    <clip id="clip-1"/>
                  </angle>
                  <angle>
                    <activevideoangle>true</activevideoangle>
                    <activeaudioangle>true</activeaudioangle>
                    <clip id="clip-2"/>
                  </angle>
                  <angle>
                    <activevideoangle>false</activevideoangle>
                    <activeaudioangle>false</activeaudioangle>
                    <clip id="clip-3"/>
                  </angle>
                  <angle>
                    <activevideoangle>false</activevideoangle>
                    <activeaudioangle>false</activeaudioangle>
                    <clip id="clip-4"/>
                  </angle>
                  <angle>
                    <activevideoangle>false</activevideoangle>
                    <activeaudioangle>false</activeaudioangle>
                    <clip id="clip-5"/>
                  </angle>
                  <angle>
                    <activevideoangle>false</activevideoangle>
                    <activeaudioangle>false</activeaudioangle>
                    <clip id="clip-6"/>
                  </angle>
                  <angle>
                    <activevideoangle>false</activevideoangle>
                    <activeaudioangle>false</activeaudioangle>
                    <clip id="clip-7"/>
                  </angle>
                  <masterclipid>clip-master</masterclipid>
                </multiclip>
              </clipitem>
              <clipitem id="cs-33">
                <duration>48</duration>
                <rate>
                  <ntsc>false</ntsc>
                  <timebase>25</timebase>
                </rate>
                <in>1319</in>
                <out>1366</out>
                <start>1319</start>
                <end>1366</end>
                <file id="src-1"/>
                <sourcetrack>
                  <mediatype>video</mediatype>
                  <trackindex>1</trackindex>
                </sourcetrack>
                <multiclip id="mcs-33">
                  <name>MCS-33</name>
                  <masterclipid>clip-master</masterclipid>
                  <collapsed>false</collapsed>
                  <angle>
                    <activevideoangle>true</activevideoangle>
                    <activeaudioangle>true</activeaudioangle>
                    <clip id="clip-1"/>
                  </angle>
                  <angle>
                    <activevideoangle>false</activevideoangle>
                    <activeaudioangle>false</activeaudioangle>
                    <clip id="clip-2"/>
                  </angle>
                  <angle>
                    <activevideoangle>false</activevideoangle>
                    <activeaudioangle>false</activeaudioangle>
                    <clip id="clip-3"/>
                  </angle>
                  <angle>
                    <activevideoangle>false</activevideoangle>
                    <activeaudioangle>false</activeaudioangle>
                    <clip id="clip-4"/>
                  </angle>
                  <angle>
                    <activevideoangle>false</activevideoangle>
                    <activeaudioangle>false</activeaudioangle>
                    <clip id="clip-5"/>
                  </angle>
                  <angle>
                    <activevideoangle>false</activevideoangle>
                    <activeaudioangle>false</activeaudioangle>
                    <clip id="clip-6"/>
                  </angle>
                  <angle>
                    <activevideoangle>false</activevideoangle>
                    <activeaudioangle>false</activeaudioangle>
                    <clip id="clip-7"/>
                  </angle>
                  <masterclipid>clip-master</masterclipid>
                </multiclip>
              </clipitem>
              <clipitem id="cs-34">
                <duration>88</duration>
                <rate>
                  <ntsc>false</ntsc>
                  <timebase>25</timebase>
                </rate>
                <in>1366</in>
                <out>1453</out>
                <start>1366</start>
                <end>1453</end>
                <file id="src-3"/>
                <sourcetrack>
                  <mediatype>video</mediatype>
                  <trackindex>1</trackindex>
                </sourcetrack>
                <multiclip id="mcs-34">
                  <name>MCS-34</name>
                  <masterclipid>clip-master</masterclipid>
                  <collapsed>false</collapsed>
                  <angle>
                    <activevideoangle>false</activevideoangle>
                    <activeaudioangle>false</activeaudioangle>
                    <clip id="clip-1"/>
                  </angle>
                  <angle>
                    <activevideoangle>false</activevideoangle>
                    <activeaudioangle>false</activeaudioangle>
                    <clip id="clip-2"/>
                  </angle>
                  <angle>
                    <activevideoangle>true</activevideoangle>
                    <activeaudioangle>true</activeaudioangle>
                    <clip id="clip-3"/>
                  </angle>
                  <angle>
                    <activevideoangle>false</activevideoangle>
                    <activeaudioangle>false</activeaudioangle>
                    <clip id="clip-4"/>
                  </angle>
                  <angle>
                    <activevideoangle>false</activevideoangle>
                    <activeaudioangle>false</activeaudioangle>
                    <clip id="clip-5"/>
                  </angle>
                  <angle>
                    <activevideoangle>false</activevideoangle>
                    <activeaudioangle>false</activeaudioangle>
                    <clip id="clip-6"/>
                  </angle>
                  <angle>
                    <activevideoangle>false</activevideoangle>
                    <activeaudioangle>false</activeaudioangle>
                    <clip id="clip-7"/>
                  </angle>
                  <masterclipid>clip-master</masterclipid>
                </multiclip>
              </clipitem>
              <clipitem id="cs-35">
                <duration>164</duration>
                <rate>
                  <ntsc>false</ntsc>
                  <timebase>25</timebase>
                </rate>
                <in>1453</in>
                <out>1616</out>
                <start>1453</start>
                <end>1616</end>
                <file id="src-2"/>
                <sourcetrack>
                  <mediatype>video</mediatype>
                  <trackindex>1</trackindex>
                </sourcetrack>
                <multiclip id="mcs-35">
                  <name>MCS-35</name>
                  <masterclipid>clip-master</masterclipid>
                  <collapsed>false</collapsed>
                  <angle>
                    <activevideoangle>false</activevideoangle>
                    <activeaudioangle>false</activeaudioangle>
                    <clip id="clip-1"/>
                  </angle>
                  <angle>
                    <activevideoangle>true</activevideoangle>
                    <activeaudioangle>true</activeaudioangle>
                    <clip id="clip-2"/>
                  </angle>
                  <angle>
                    <activevideoangle>false</activevideoangle>
                    <activeaudioangle>false</activeaudioangle>
                    <clip id="clip-3"/>
                  </angle>
                  <angle>
                    <activevideoangle>false</activevideoangle>
                    <activeaudioangle>false</activeaudioangle>
                    <clip id="clip-4"/>
                  </angle>
                  <angle>
                    <activevideoangle>false</activevideoangle>
                    <activeaudioangle>false</activeaudioangle>
                    <clip id="clip-5"/>
                  </angle>
                  <angle>
                    <activevideoangle>false</activevideoangle>
                    <activeaudioangle>false</activeaudioangle>
                    <clip id="clip-6"/>
                  </angle>
                  <angle>
                    <activevideoangle>false</activevideoangle>
                    <activeaudioangle>false</activeaudioangle>
                    <clip id="clip-7"/>
                  </angle>
                  <masterclipid>clip-master</masterclipid>
                </multiclip>
              </clipitem>
              <clipitem id="cs-36">
                <duration>249</duration>
                <rate>
                  <ntsc>false</ntsc>
                  <timebase>25</timebase>
                </rate>
                <in>1616</in>
                <out>1864</out>
                <start>1616</start>
                <end>1864</end>
                <file id="src-3"/>
                <sourcetrack>
                  <mediatype>video</mediatype>
                  <trackindex>1</trackindex>
                </sourcetrack>
                <multiclip id="mcs-36">
                  <name>MCS-36</name>
                  <masterclipid>clip-master</masterclipid>
                  <collapsed>false</collapsed>
                  <angle>
                    <activevideoangle>false</activevideoangle>
                    <activeaudioangle>false</activeaudioangle>
                    <clip id="clip-1"/>
                  </angle>
                  <angle>
                    <activevideoangle>false</activevideoangle>
                    <activeaudioangle>false</activeaudioangle>
                    <clip id="clip-2"/>
                  </angle>
                  <angle>
                    <activevideoangle>true</activevideoangle>
                    <activeaudioangle>true</activeaudioangle>
                    <clip id="clip-3"/>
                  </angle>
                  <angle>
                    <activevideoangle>false</activevideoangle>
                    <activeaudioangle>false</activeaudioangle>
                    <clip id="clip-4"/>
                  </angle>
                  <angle>
                    <activevideoangle>false</activevideoangle>
                    <activeaudioangle>false</activeaudioangle>
                    <clip id="clip-5"/>
                  </angle>
                  <angle>
                    <activevideoangle>false</activevideoangle>
                    <activeaudioangle>false</activeaudioangle>
                    <clip id="clip-6"/>
                  </angle>
                  <angle>
                    <activevideoangle>false</activevideoangle>
                    <activeaudioangle>false</activeaudioangle>
                    <clip id="clip-7"/>
                  </angle>
                  <masterclipid>clip-master</masterclipid>
                </multiclip>
              </clipitem>
              <clipitem id="cs-37">
                <duration>99</duration>
                <rate>
                  <ntsc>false</ntsc>
                  <timebase>25</timebase>
                </rate>
                <in>1864</in>
                <out>1962</out>
                <start>1864</start>
                <end>1962</end>
                <file id="src-6"/>
                <sourcetrack>
                  <mediatype>video</mediatype>
                  <trackindex>1</trackindex>
                </sourcetrack>
                <multiclip id="mcs-37">
                  <name>MCS-37</name>
                  <masterclipid>clip-master</masterclipid>
                  <collapsed>false</collapsed>
                  <angle>
                    <activevideoangle>false</activevideoangle>
                    <activeaudioangle>false</activeaudioangle>
                    <clip id="clip-1"/>
                  </angle>
                  <angle>
                    <activevideoangle>false</activevideoangle>
                    <activeaudioangle>false</activeaudioangle>
                    <clip id="clip-2"/>
                  </angle>
                  <angle>
                    <activevideoangle>false</activevideoangle>
                    <activeaudioangle>false</activeaudioangle>
                    <clip id="clip-3"/>
                  </angle>
                  <angle>
                    <activevideoangle>false</activevideoangle>
                    <activeaudioangle>false</activeaudioangle>
                    <clip id="clip-4"/>
                  </angle>
                  <angle>
                    <activevideoangle>false</activevideoangle>
                    <activeaudioangle>false</activeaudioangle>
                    <clip id="clip-5"/>
                  </angle>
                  <angle>
                    <activevideoangle>true</activevideoangle>
                    <activeaudioangle>true</activeaudioangle>
                    <clip id="clip-6"/>
                  </angle>
                  <angle>
                    <activevideoangle>false</activevideoangle>
                    <activeaudioangle>false</activeaudioangle>
                    <clip id="clip-7"/>
                  </angle>
                  <masterclipid>clip-master</masterclipid>
                </multiclip>
              </clipitem>
              <clipitem id="cs-38">
                <duration>88</duration>
                <rate>
                  <ntsc>false</ntsc>
                  <timebase>25</timebase>
                </rate>
                <in>1962</in>
                <out>2049</out>
                <start>1962</start>
                <end>2049</end>
                <file id="src-3"/>
                <sourcetrack>
                  <mediatype>video</mediatype>
                  <trackindex>1</trackindex>
                </sourcetrack>
                <multiclip id="mcs-38">
                  <name>MCS-38</name>
                  <masterclipid>clip-master</masterclipid>
                  <collapsed>false</collapsed>
                  <angle>
                    <activevideoangle>false</activevideoangle>
                    <activeaudioangle>false</activeaudioangle>
                    <clip id="clip-1"/>
                  </angle>
                  <angle>
                    <activevideoangle>false</activevideoangle>
                    <activeaudioangle>false</activeaudioangle>
                    <clip id="clip-2"/>
                  </angle>
                  <angle>
                    <activevideoangle>true</activevideoangle>
                    <activeaudioangle>true</activeaudioangle>
                    <clip id="clip-3"/>
                  </angle>
                  <angle>
                    <activevideoangle>false</activevideoangle>
                    <activeaudioangle>false</activeaudioangle>
                    <clip id="clip-4"/>
                  </angle>
                  <angle>
                    <activevideoangle>false</activevideoangle>
                    <activeaudioangle>false</activeaudioangle>
                    <clip id="clip-5"/>
                  </angle>
                  <angle>
                    <activevideoangle>false</activevideoangle>
                    <activeaudioangle>false</activeaudioangle>
                    <clip id="clip-6"/>
                  </angle>
                  <angle>
                    <activevideoangle>false</activevideoangle>
                    <activeaudioangle>false</activeaudioangle>
                    <clip id="clip-7"/>
                  </angle>
                  <masterclipid>clip-master</masterclipid>
                </multiclip>
              </clipitem>
              <clipitem id="cs-39">
                <duration>83</duration>
                <rate>
                  <ntsc>false</ntsc>
                  <timebase>25</timebase>
                </rate>
                <in>2049</in>
                <out>2131</out>
                <start>2049</start>
                <end>2131</end>
                <file id="src-2"/>
                <sourcetrack>
                  <mediatype>video</mediatype>
                  <trackindex>1</trackindex>
                </sourcetrack>
                <multiclip id="mcs-39">
                  <name>MCS-39</name>
                  <masterclipid>clip-master</masterclipid>
                  <collapsed>false</collapsed>
                  <angle>
                    <activevideoangle>false</activevideoangle>
                    <activeaudioangle>false</activeaudioangle>
                    <clip id="clip-1"/>
                  </angle>
                  <angle>
                    <activevideoangle>true</activevideoangle>
                    <activeaudioangle>true</activeaudioangle>
                    <clip id="clip-2"/>
                  </angle>
                  <angle>
                    <activevideoangle>false</activevideoangle>
                    <activeaudioangle>false</activeaudioangle>
                    <clip id="clip-3"/>
                  </angle>
                  <angle>
                    <activevideoangle>false</activevideoangle>
                    <activeaudioangle>false</activeaudioangle>
                    <clip id="clip-4"/>
                  </angle>
                  <angle>
                    <activevideoangle>false</activevideoangle>
                    <activeaudioangle>false</activeaudioangle>
                    <clip id="clip-5"/>
                  </angle>
                  <angle>
                    <activevideoangle>false</activevideoangle>
                    <activeaudioangle>false</activeaudioangle>
                    <clip id="clip-6"/>
                  </angle>
                  <angle>
                    <activevideoangle>false</activevideoangle>
                    <activeaudioangle>false</activeaudioangle>
                    <clip id="clip-7"/>
                  </angle>
                  <masterclipid>clip-master</masterclipid>
                </multiclip>
              </clipitem>
              <clipitem id="cs-40">
                <duration>122</duration>
                <rate>
                  <ntsc>false</ntsc>
                  <timebase>25</timebase>
                </rate>
                <in>2131</in>
                <out>2252</out>
                <start>2131</start>
                <end>2252</end>
                <file id="src-3"/>
                <sourcetrack>
                  <mediatype>video</mediatype>
                  <trackindex>1</trackindex>
                </sourcetrack>
                <multiclip id="mcs-40">
                  <name>MCS-40</name>
                  <masterclipid>clip-master</masterclipid>
                  <collapsed>false</collapsed>
                  <angle>
                    <activevideoangle>false</activevideoangle>
                    <activeaudioangle>false</activeaudioangle>
                    <clip id="clip-1"/>
                  </angle>
                  <angle>
                    <activevideoangle>false</activevideoangle>
                    <activeaudioangle>false</activeaudioangle>
                    <clip id="clip-2"/>
                  </angle>
                  <angle>
                    <activevideoangle>true</activevideoangle>
                    <activeaudioangle>true</activeaudioangle>
                    <clip id="clip-3"/>
                  </angle>
                  <angle>
                    <activevideoangle>false</activevideoangle>
                    <activeaudioangle>false</activeaudioangle>
                    <clip id="clip-4"/>
                  </angle>
                  <angle>
                    <activevideoangle>false</activevideoangle>
                    <activeaudioangle>false</activeaudioangle>
                    <clip id="clip-5"/>
                  </angle>
                  <angle>
                    <activevideoangle>false</activevideoangle>
                    <activeaudioangle>false</activeaudioangle>
                    <clip id="clip-6"/>
                  </angle>
                  <angle>
                    <activevideoangle>false</activevideoangle>
                    <activeaudioangle>false</activeaudioangle>
                    <clip id="clip-7"/>
                  </angle>
                  <masterclipid>clip-master</masterclipid>
                </multiclip>
              </clipitem>
              <clipitem id="cs-41">
                <duration>57</duration>
                <rate>
                  <ntsc>false</ntsc>
                  <timebase>25</timebase>
                </rate>
                <in>2252</in>
                <out>2308</out>
                <start>2252</start>
                <end>2308</end>
                <file id="src-4"/>
                <sourcetrack>
                  <mediatype>video</mediatype>
                  <trackindex>1</trackindex>
                </sourcetrack>
                <multiclip id="mcs-41">
                  <name>MCS-41</name>
                  <masterclipid>clip-master</masterclipid>
                  <collapsed>false</collapsed>
                  <angle>
                    <activevideoangle>false</activevideoangle>
                    <activeaudioangle>false</activeaudioangle>
                    <clip id="clip-1"/>
                  </angle>
                  <angle>
                    <activevideoangle>false</activevideoangle>
                    <activeaudioangle>false</activeaudioangle>
                    <clip id="clip-2"/>
                  </angle>
                  <angle>
                    <activevideoangle>false</activevideoangle>
                    <activeaudioangle>false</activeaudioangle>
                    <clip id="clip-3"/>
                  </angle>
                  <angle>
                    <activevideoangle>true</activevideoangle>
                    <activeaudioangle>true</activeaudioangle>
                    <clip id="clip-4"/>
                  </angle>
                  <angle>
                    <activevideoangle>false</activevideoangle>
                    <activeaudioangle>false</activeaudioangle>
                    <clip id="clip-5"/>
                  </angle>
                  <angle>
                    <activevideoangle>false</activevideoangle>
                    <activeaudioangle>false</activeaudioangle>
                    <clip id="clip-6"/>
                  </angle>
                  <angle>
                    <activevideoangle>false</activevideoangle>
                    <activeaudioangle>false</activeaudioangle>
                    <clip id="clip-7"/>
                  </angle>
                  <masterclipid>clip-master</masterclipid>
                </multiclip>
              </clipitem>
              <clipitem id="cs-42">
                <duration>52</duration>
                <rate>
                  <ntsc>false</ntsc>
                  <timebase>25</timebase>
                </rate>
                <in>2308</in>
                <out>2359</out>
                <start>2308</start>
                <end>2359</end>
                <file id="src-2"/>
                <sourcetrack>
                  <mediatype>video</mediatype>
                  <trackindex>1</trackindex>
                </sourcetrack>
                <multiclip id="mcs-42">
                  <name>MCS-42</name>
                  <masterclipid>clip-master</masterclipid>
                  <collapsed>false</collapsed>
                  <angle>
                    <activevideoangle>false</activevideoangle>
                    <activeaudioangle>false</activeaudioangle>
                    <clip id="clip-1"/>
                  </angle>
                  <angle>
                    <activevideoangle>true</activevideoangle>
                    <activeaudioangle>true</activeaudioangle>
                    <clip id="clip-2"/>
                  </angle>
                  <angle>
                    <activevideoangle>false</activevideoangle>
                    <activeaudioangle>false</activeaudioangle>
                    <clip id="clip-3"/>
                  </angle>
                  <angle>
                    <activevideoangle>false</activevideoangle>
                    <activeaudioangle>false</activeaudioangle>
                    <clip id="clip-4"/>
                  </angle>
                  <angle>
                    <activevideoangle>false</activevideoangle>
                    <activeaudioangle>false</activeaudioangle>
                    <clip id="clip-5"/>
                  </angle>
                  <angle>
                    <activevideoangle>false</activevideoangle>
                    <activeaudioangle>false</activeaudioangle>
                    <clip id="clip-6"/>
                  </angle>
                  <angle>
                    <activevideoangle>false</activevideoangle>
                    <activeaudioangle>false</activeaudioangle>
                    <clip id="clip-7"/>
                  </angle>
                  <masterclipid>clip-master</masterclipid>
                </multiclip>
              </clipitem>
              <clipitem id="cs-43">
                <duration>146</duration>
                <rate>
                  <ntsc>false</ntsc>
                  <timebase>25</timebase>
                </rate>
                <in>2359</in>
                <out>2504</out>
                <start>2359</start>
                <end>2504</end>
                <file id="src-3"/>
                <sourcetrack>
                  <mediatype>video</mediatype>
                  <trackindex>1</trackindex>
                </sourcetrack>
                <multiclip id="mcs-43">
                  <name>MCS-43</name>
                  <masterclipid>clip-master</masterclipid>
                  <collapsed>false</collapsed>
                  <angle>
                    <activevideoangle>false</activevideoangle>
                    <activeaudioangle>false</activeaudioangle>
                    <clip id="clip-1"/>
                  </angle>
                  <angle>
                    <activevideoangle>false</activevideoangle>
                    <activeaudioangle>false</activeaudioangle>
                    <clip id="clip-2"/>
                  </angle>
                  <angle>
                    <activevideoangle>true</activevideoangle>
                    <activeaudioangle>true</activeaudioangle>
                    <clip id="clip-3"/>
                  </angle>
                  <angle>
                    <activevideoangle>false</activevideoangle>
                    <activeaudioangle>false</activeaudioangle>
                    <clip id="clip-4"/>
                  </angle>
                  <angle>
                    <activevideoangle>false</activevideoangle>
                    <activeaudioangle>false</activeaudioangle>
                    <clip id="clip-5"/>
                  </angle>
                  <angle>
                    <activevideoangle>false</activevideoangle>
                    <activeaudioangle>false</activeaudioangle>
                    <clip id="clip-6"/>
                  </angle>
                  <angle>
                    <activevideoangle>false</activevideoangle>
                    <activeaudioangle>false</activeaudioangle>
                    <clip id="clip-7"/>
                  </angle>
                  <masterclipid>clip-master</masterclipid>
                </multiclip>
              </clipitem>
              <clipitem id="cs-44">
                <duration>55</duration>
                <rate>
                  <ntsc>false</ntsc>
                  <timebase>25</timebase>
                </rate>
                <in>2504</in>
                <out>2558</out>
                <start>2504</start>
                <end>2558</end>
                <file id="src-6"/>
                <sourcetrack>
                  <mediatype>video</mediatype>
                  <trackindex>1</trackindex>
                </sourcetrack>
                <multiclip id="mcs-44">
                  <name>MCS-44</name>
                  <masterclipid>clip-master</masterclipid>
                  <collapsed>false</collapsed>
                  <angle>
                    <activevideoangle>false</activevideoangle>
                    <activeaudioangle>false</activeaudioangle>
                    <clip id="clip-1"/>
                  </angle>
                  <angle>
                    <activevideoangle>false</activevideoangle>
                    <activeaudioangle>false</activeaudioangle>
                    <clip id="clip-2"/>
                  </angle>
                  <angle>
                    <activevideoangle>false</activevideoangle>
                    <activeaudioangle>false</activeaudioangle>
                    <clip id="clip-3"/>
                  </angle>
                  <angle>
                    <activevideoangle>false</activevideoangle>
                    <activeaudioangle>false</activeaudioangle>
                    <clip id="clip-4"/>
                  </angle>
                  <angle>
                    <activevideoangle>false</activevideoangle>
                    <activeaudioangle>false</activeaudioangle>
                    <clip id="clip-5"/>
                  </angle>
                  <angle>
                    <activevideoangle>true</activevideoangle>
                    <activeaudioangle>true</activeaudioangle>
                    <clip id="clip-6"/>
                  </angle>
                  <angle>
                    <activevideoangle>false</activevideoangle>
                    <activeaudioangle>false</activeaudioangle>
                    <clip id="clip-7"/>
                  </angle>
                  <masterclipid>clip-master</masterclipid>
                </multiclip>
              </clipitem>
              <clipitem id="cs-45">
                <duration>81</duration>
                <rate>
                  <ntsc>false</ntsc>
                  <timebase>25</timebase>
                </rate>
                <in>2558</in>
                <out>2638</out>
                <start>2558</start>
                <end>2638</end>
                <file id="src-3"/>
                <sourcetrack>
                  <mediatype>video</mediatype>
                  <trackindex>1</trackindex>
                </sourcetrack>
                <multiclip id="mcs-45">
                  <name>MCS-45</name>
                  <masterclipid>clip-master</masterclipid>
                  <collapsed>false</collapsed>
                  <angle>
                    <activevideoangle>false</activevideoangle>
                    <activeaudioangle>false</activeaudioangle>
                    <clip id="clip-1"/>
                  </angle>
                  <angle>
                    <activevideoangle>false</activevideoangle>
                    <activeaudioangle>false</activeaudioangle>
                    <clip id="clip-2"/>
                  </angle>
                  <angle>
                    <activevideoangle>true</activevideoangle>
                    <activeaudioangle>true</activeaudioangle>
                    <clip id="clip-3"/>
                  </angle>
                  <angle>
                    <activevideoangle>false</activevideoangle>
                    <activeaudioangle>false</activeaudioangle>
                    <clip id="clip-4"/>
                  </angle>
                  <angle>
                    <activevideoangle>false</activevideoangle>
                    <activeaudioangle>false</activeaudioangle>
                    <clip id="clip-5"/>
                  </angle>
                  <angle>
                    <activevideoangle>false</activevideoangle>
                    <activeaudioangle>false</activeaudioangle>
                    <clip id="clip-6"/>
                  </angle>
                  <angle>
                    <activevideoangle>false</activevideoangle>
                    <activeaudioangle>false</activeaudioangle>
                    <clip id="clip-7"/>
                  </angle>
                  <masterclipid>clip-master</masterclipid>
                </multiclip>
              </clipitem>
              <clipitem id="cs-46">
                <duration>65</duration>
                <rate>
                  <ntsc>false</ntsc>
                  <timebase>25</timebase>
                </rate>
                <in>2638</in>
                <out>2702</out>
                <start>2638</start>
                <end>2702</end>
                <file id="src-1"/>
                <sourcetrack>
                  <mediatype>video</mediatype>
                  <trackindex>1</trackindex>
                </sourcetrack>
                <multiclip id="mcs-46">
                  <name>MCS-46</name>
                  <masterclipid>clip-master</masterclipid>
                  <collapsed>false</collapsed>
                  <angle>
                    <activevideoangle>true</activevideoangle>
                    <activeaudioangle>true</activeaudioangle>
                    <clip id="clip-1"/>
                  </angle>
                  <angle>
                    <activevideoangle>false</activevideoangle>
                    <activeaudioangle>false</activeaudioangle>
                    <clip id="clip-2"/>
                  </angle>
                  <angle>
                    <activevideoangle>false</activevideoangle>
                    <activeaudioangle>false</activeaudioangle>
                    <clip id="clip-3"/>
                  </angle>
                  <angle>
                    <activevideoangle>false</activevideoangle>
                    <activeaudioangle>false</activeaudioangle>
                    <clip id="clip-4"/>
                  </angle>
                  <angle>
                    <activevideoangle>false</activevideoangle>
                    <activeaudioangle>false</activeaudioangle>
                    <clip id="clip-5"/>
                  </angle>
                  <angle>
                    <activevideoangle>false</activevideoangle>
                    <activeaudioangle>false</activeaudioangle>
                    <clip id="clip-6"/>
                  </angle>
                  <angle>
                    <activevideoangle>false</activevideoangle>
                    <activeaudioangle>false</activeaudioangle>
                    <clip id="clip-7"/>
                  </angle>
                  <masterclipid>clip-master</masterclipid>
                </multiclip>
              </clipitem>
              <clipitem id="cs-47">
                <duration>113</duration>
                <rate>
                  <ntsc>false</ntsc>
                  <timebase>25</timebase>
                </rate>
                <in>2702</in>
                <out>2814</out>
                <start>2702</start>
                <end>2814</end>
                <file id="src-2"/>
                <sourcetrack>
                  <mediatype>video</mediatype>
                  <trackindex>1</trackindex>
                </sourcetrack>
                <multiclip id="mcs-47">
                  <name>MCS-47</name>
                  <masterclipid>clip-master</masterclipid>
                  <collapsed>false</collapsed>
                  <angle>
                    <activevideoangle>false</activevideoangle>
                    <activeaudioangle>false</activeaudioangle>
                    <clip id="clip-1"/>
                  </angle>
                  <angle>
                    <activevideoangle>true</activevideoangle>
                    <activeaudioangle>true</activeaudioangle>
                    <clip id="clip-2"/>
                  </angle>
                  <angle>
                    <activevideoangle>false</activevideoangle>
                    <activeaudioangle>false</activeaudioangle>
                    <clip id="clip-3"/>
                  </angle>
                  <angle>
                    <activevideoangle>false</activevideoangle>
                    <activeaudioangle>false</activeaudioangle>
                    <clip id="clip-4"/>
                  </angle>
                  <angle>
                    <activevideoangle>false</activevideoangle>
                    <activeaudioangle>false</activeaudioangle>
                    <clip id="clip-5"/>
                  </angle>
                  <angle>
                    <activevideoangle>false</activevideoangle>
                    <activeaudioangle>false</activeaudioangle>
                    <clip id="clip-6"/>
                  </angle>
                  <angle>
                    <activevideoangle>false</activevideoangle>
                    <activeaudioangle>false</activeaudioangle>
                    <clip id="clip-7"/>
                  </angle>
                  <masterclipid>clip-master</masterclipid>
                </multiclip>
              </clipitem>
              <clipitem id="cs-48">
                <duration>100</duration>
                <rate>
                  <ntsc>false</ntsc>
                  <timebase>25</timebase>
                </rate>
                <in>2814</in>
                <out>2913</out>
                <start>2814</start>
                <end>2913</end>
                <file id="src-6"/>
                <sourcetrack>
                  <mediatype>video</mediatype>
                  <trackindex>1</trackindex>
                </sourcetrack>
                <multiclip id="mcs-48">
                  <name>MCS-48</name>
                  <masterclipid>clip-master</masterclipid>
                  <collapsed>false</collapsed>
                  <angle>
                    <activevideoangle>false</activevideoangle>
                    <activeaudioangle>false</activeaudioangle>
                    <clip id="clip-1"/>
                  </angle>
                  <angle>
                    <activevideoangle>false</activevideoangle>
                    <activeaudioangle>false</activeaudioangle>
                    <clip id="clip-2"/>
                  </angle>
                  <angle>
                    <activevideoangle>false</activevideoangle>
                    <activeaudioangle>false</activeaudioangle>
                    <clip id="clip-3"/>
                  </angle>
                  <angle>
                    <activevideoangle>false</activevideoangle>
                    <activeaudioangle>false</activeaudioangle>
                    <clip id="clip-4"/>
                  </angle>
                  <angle>
                    <activevideoangle>false</activevideoangle>
                    <activeaudioangle>false</activeaudioangle>
                    <clip id="clip-5"/>
                  </angle>
                  <angle>
                    <activevideoangle>true</activevideoangle>
                    <activeaudioangle>true</activeaudioangle>
                    <clip id="clip-6"/>
                  </angle>
                  <angle>
                    <activevideoangle>false</activevideoangle>
                    <activeaudioangle>false</activeaudioangle>
                    <clip id="clip-7"/>
                  </angle>
                  <masterclipid>clip-master</masterclipid>
                </multiclip>
              </clipitem>
              <clipitem id="cs-49">
                <duration>88</duration>
                <rate>
                  <ntsc>false</ntsc>
                  <timebase>25</timebase>
                </rate>
                <in>2913</in>
                <out>3000</out>
                <start>2913</start>
                <end>3000</end>
                <file id="src-4"/>
                <sourcetrack>
                  <mediatype>video</mediatype>
                  <trackindex>1</trackindex>
                </sourcetrack>
                <multiclip id="mcs-49">
                  <name>MCS-49</name>
                  <masterclipid>clip-master</masterclipid>
                  <collapsed>false</collapsed>
                  <angle>
                    <activevideoangle>false</activevideoangle>
                    <activeaudioangle>false</activeaudioangle>
                    <clip id="clip-1"/>
                  </angle>
                  <angle>
                    <activevideoangle>false</activevideoangle>
                    <activeaudioangle>false</activeaudioangle>
                    <clip id="clip-2"/>
                  </angle>
                  <angle>
                    <activevideoangle>false</activevideoangle>
                    <activeaudioangle>false</activeaudioangle>
                    <clip id="clip-3"/>
                  </angle>
                  <angle>
                    <activevideoangle>true</activevideoangle>
                    <activeaudioangle>true</activeaudioangle>
                    <clip id="clip-4"/>
                  </angle>
                  <angle>
                    <activevideoangle>false</activevideoangle>
                    <activeaudioangle>false</activeaudioangle>
                    <clip id="clip-5"/>
                  </angle>
                  <angle>
                    <activevideoangle>false</activevideoangle>
                    <activeaudioangle>false</activeaudioangle>
                    <clip id="clip-6"/>
                  </angle>
                  <angle>
                    <activevideoangle>false</activevideoangle>
                    <activeaudioangle>false</activeaudioangle>
                    <clip id="clip-7"/>
                  </angle>
                  <masterclipid>clip-master</masterclipid>
                </multiclip>
              </clipitem>
              <clipitem id="cs-50">
                <duration>64</duration>
                <rate>
                  <ntsc>false</ntsc>
                  <timebase>25</timebase>
                </rate>
                <in>3000</in>
                <out>3063</out>
                <start>3000</start>
                <end>3063</end>
                <file id="src-2"/>
                <sourcetrack>
                  <mediatype>video</mediatype>
                  <trackindex>1</trackindex>
                </sourcetrack>
                <multiclip id="mcs-50">
                  <name>MCS-50</name>
                  <masterclipid>clip-master</masterclipid>
                  <collapsed>false</collapsed>
                  <angle>
                    <activevideoangle>false</activevideoangle>
                    <activeaudioangle>false</activeaudioangle>
                    <clip id="clip-1"/>
                  </angle>
                  <angle>
                    <activevideoangle>true</activevideoangle>
                    <activeaudioangle>true</activeaudioangle>
                    <clip id="clip-2"/>
                  </angle>
                  <angle>
                    <activevideoangle>false</activevideoangle>
                    <activeaudioangle>false</activeaudioangle>
                    <clip id="clip-3"/>
                  </angle>
                  <angle>
                    <activevideoangle>false</activevideoangle>
                    <activeaudioangle>false</activeaudioangle>
                    <clip id="clip-4"/>
                  </angle>
                  <angle>
                    <activevideoangle>false</activevideoangle>
                    <activeaudioangle>false</activeaudioangle>
                    <clip id="clip-5"/>
                  </angle>
                  <angle>
                    <activevideoangle>false</activevideoangle>
                    <activeaudioangle>false</activeaudioangle>
                    <clip id="clip-6"/>
                  </angle>
                  <angle>
                    <activevideoangle>false</activevideoangle>
                    <activeaudioangle>false</activeaudioangle>
                    <clip id="clip-7"/>
                  </angle>
                  <masterclipid>clip-master</masterclipid>
                </multiclip>
              </clipitem>
              <clipitem id="cs-51">
                <duration>108</duration>
                <rate>
                  <ntsc>false</ntsc>
                  <timebase>25</timebase>
                </rate>
                <in>3063</in>
                <out>3170</out>
                <start>3063</start>
                <end>3170</end>
                <file id="src-3"/>
                <sourcetrack>
                  <mediatype>video</mediatype>
                  <trackindex>1</trackindex>
                </sourcetrack>
                <multiclip id="mcs-51">
                  <name>MCS-51</name>
                  <masterclipid>clip-master</masterclipid>
                  <collapsed>false</collapsed>
                  <angle>
                    <activevideoangle>false</activevideoangle>
                    <activeaudioangle>false</activeaudioangle>
                    <clip id="clip-1"/>
                  </angle>
                  <angle>
                    <activevideoangle>false</activevideoangle>
                    <activeaudioangle>false</activeaudioangle>
                    <clip id="clip-2"/>
                  </angle>
                  <angle>
                    <activevideoangle>true</activevideoangle>
                    <activeaudioangle>true</activeaudioangle>
                    <clip id="clip-3"/>
                  </angle>
                  <angle>
                    <activevideoangle>false</activevideoangle>
                    <activeaudioangle>false</activeaudioangle>
                    <clip id="clip-4"/>
                  </angle>
                  <angle>
                    <activevideoangle>false</activevideoangle>
                    <activeaudioangle>false</activeaudioangle>
                    <clip id="clip-5"/>
                  </angle>
                  <angle>
                    <activevideoangle>false</activevideoangle>
                    <activeaudioangle>false</activeaudioangle>
                    <clip id="clip-6"/>
                  </angle>
                  <angle>
                    <activevideoangle>false</activevideoangle>
                    <activeaudioangle>false</activeaudioangle>
                    <clip id="clip-7"/>
                  </angle>
                  <masterclipid>clip-master</masterclipid>
                </multiclip>
              </clipitem>
              <clipitem id="cs-52">
                <duration>251</duration>
                <rate>
                  <ntsc>false</ntsc>
                  <timebase>25</timebase>
                </rate>
                <in>3170</in>
                <out>3420</out>
                <start>3170</start>
                <end>3420</end>
                <file id="src-2"/>
                <sourcetrack>
                  <mediatype>video</mediatype>
                  <trackindex>1</trackindex>
                </sourcetrack>
                <multiclip id="mcs-52">
                  <name>MCS-52</name>
                  <masterclipid>clip-master</masterclipid>
                  <collapsed>false</collapsed>
                  <angle>
                    <activevideoangle>false</activevideoangle>
                    <activeaudioangle>false</activeaudioangle>
                    <clip id="clip-1"/>
                  </angle>
                  <angle>
                    <activevideoangle>true</activevideoangle>
                    <activeaudioangle>true</activeaudioangle>
                    <clip id="clip-2"/>
                  </angle>
                  <angle>
                    <activevideoangle>false</activevideoangle>
                    <activeaudioangle>false</activeaudioangle>
                    <clip id="clip-3"/>
                  </angle>
                  <angle>
                    <activevideoangle>false</activevideoangle>
                    <activeaudioangle>false</activeaudioangle>
                    <clip id="clip-4"/>
                  </angle>
                  <angle>
                    <activevideoangle>false</activevideoangle>
                    <activeaudioangle>false</activeaudioangle>
                    <clip id="clip-5"/>
                  </angle>
                  <angle>
                    <activevideoangle>false</activevideoangle>
                    <activeaudioangle>false</activeaudioangle>
                    <clip id="clip-6"/>
                  </angle>
                  <angle>
                    <activevideoangle>false</activevideoangle>
                    <activeaudioangle>false</activeaudioangle>
                    <clip id="clip-7"/>
                  </angle>
                  <masterclipid>clip-master</masterclipid>
                </multiclip>
              </clipitem>
              <clipitem id="cs-53">
                <duration>197</duration>
                <rate>
                  <ntsc>false</ntsc>
                  <timebase>25</timebase>
                </rate>
                <in>3420</in>
                <out>3616</out>
                <start>3420</start>
                <end>3616</end>
                <file id="src-3"/>
                <sourcetrack>
                  <mediatype>video</mediatype>
                  <trackindex>1</trackindex>
                </sourcetrack>
                <multiclip id="mcs-53">
                  <name>MCS-53</name>
                  <masterclipid>clip-master</masterclipid>
                  <collapsed>false</collapsed>
                  <angle>
                    <activevideoangle>false</activevideoangle>
                    <activeaudioangle>false</activeaudioangle>
                    <clip id="clip-1"/>
                  </angle>
                  <angle>
                    <activevideoangle>false</activevideoangle>
                    <activeaudioangle>false</activeaudioangle>
                    <clip id="clip-2"/>
                  </angle>
                  <angle>
                    <activevideoangle>true</activevideoangle>
                    <activeaudioangle>true</activeaudioangle>
                    <clip id="clip-3"/>
                  </angle>
                  <angle>
                    <activevideoangle>false</activevideoangle>
                    <activeaudioangle>false</activeaudioangle>
                    <clip id="clip-4"/>
                  </angle>
                  <angle>
                    <activevideoangle>false</activevideoangle>
                    <activeaudioangle>false</activeaudioangle>
                    <clip id="clip-5"/>
                  </angle>
                  <angle>
                    <activevideoangle>false</activevideoangle>
                    <activeaudioangle>false</activeaudioangle>
                    <clip id="clip-6"/>
                  </angle>
                  <angle>
                    <activevideoangle>false</activevideoangle>
                    <activeaudioangle>false</activeaudioangle>
                    <clip id="clip-7"/>
                  </angle>
                  <masterclipid>clip-master</masterclipid>
                </multiclip>
              </clipitem>
              <clipitem id="cs-54">
                <duration>55</duration>
                <rate>
                  <ntsc>false</ntsc>
                  <timebase>25</timebase>
                </rate>
                <in>3616</in>
                <out>3670</out>
                <start>3616</start>
                <end>3670</end>
                <file id="src-6"/>
                <sourcetrack>
                  <mediatype>video</mediatype>
                  <trackindex>1</trackindex>
                </sourcetrack>
                <multiclip id="mcs-54">
                  <name>MCS-54</name>
                  <masterclipid>clip-master</masterclipid>
                  <collapsed>false</collapsed>
                  <angle>
                    <activevideoangle>false</activevideoangle>
                    <activeaudioangle>false</activeaudioangle>
                    <clip id="clip-1"/>
                  </angle>
                  <angle>
                    <activevideoangle>false</activevideoangle>
                    <activeaudioangle>false</activeaudioangle>
                    <clip id="clip-2"/>
                  </angle>
                  <angle>
                    <activevideoangle>false</activevideoangle>
                    <activeaudioangle>false</activeaudioangle>
                    <clip id="clip-3"/>
                  </angle>
                  <angle>
                    <activevideoangle>false</activevideoangle>
                    <activeaudioangle>false</activeaudioangle>
                    <clip id="clip-4"/>
                  </angle>
                  <angle>
                    <activevideoangle>false</activevideoangle>
                    <activeaudioangle>false</activeaudioangle>
                    <clip id="clip-5"/>
                  </angle>
                  <angle>
                    <activevideoangle>true</activevideoangle>
                    <activeaudioangle>true</activeaudioangle>
                    <clip id="clip-6"/>
                  </angle>
                  <angle>
                    <activevideoangle>false</activevideoangle>
                    <activeaudioangle>false</activeaudioangle>
                    <clip id="clip-7"/>
                  </angle>
                  <masterclipid>clip-master</masterclipid>
                </multiclip>
              </clipitem>
              <clipitem id="cs-55">
                <duration>101</duration>
                <rate>
                  <ntsc>false</ntsc>
                  <timebase>25</timebase>
                </rate>
                <in>3670</in>
                <out>3770</out>
                <start>3670</start>
                <end>3770</end>
                <file id="src-2"/>
                <sourcetrack>
                  <mediatype>video</mediatype>
                  <trackindex>1</trackindex>
                </sourcetrack>
                <multiclip id="mcs-55">
                  <name>MCS-55</name>
                  <masterclipid>clip-master</masterclipid>
                  <collapsed>false</collapsed>
                  <angle>
                    <activevideoangle>false</activevideoangle>
                    <activeaudioangle>false</activeaudioangle>
                    <clip id="clip-1"/>
                  </angle>
                  <angle>
                    <activevideoangle>true</activevideoangle>
                    <activeaudioangle>true</activeaudioangle>
                    <clip id="clip-2"/>
                  </angle>
                  <angle>
                    <activevideoangle>false</activevideoangle>
                    <activeaudioangle>false</activeaudioangle>
                    <clip id="clip-3"/>
                  </angle>
                  <angle>
                    <activevideoangle>false</activevideoangle>
                    <activeaudioangle>false</activeaudioangle>
                    <clip id="clip-4"/>
                  </angle>
                  <angle>
                    <activevideoangle>false</activevideoangle>
                    <activeaudioangle>false</activeaudioangle>
                    <clip id="clip-5"/>
                  </angle>
                  <angle>
                    <activevideoangle>false</activevideoangle>
                    <activeaudioangle>false</activeaudioangle>
                    <clip id="clip-6"/>
                  </angle>
                  <angle>
                    <activevideoangle>false</activevideoangle>
                    <activeaudioangle>false</activeaudioangle>
                    <clip id="clip-7"/>
                  </angle>
                  <masterclipid>clip-master</masterclipid>
                </multiclip>
              </clipitem>
              <clipitem id="cs-56">
                <duration>71</duration>
                <rate>
                  <ntsc>false</ntsc>
                  <timebase>25</timebase>
                </rate>
                <in>3770</in>
                <out>3840</out>
                <start>3770</start>
                <end>3840</end>
                <file id="src-3"/>
                <sourcetrack>
                  <mediatype>video</mediatype>
                  <trackindex>1</trackindex>
                </sourcetrack>
                <multiclip id="mcs-56">
                  <name>MCS-56</name>
                  <masterclipid>clip-master</masterclipid>
                  <collapsed>false</collapsed>
                  <angle>
                    <activevideoangle>false</activevideoangle>
                    <activeaudioangle>false</activeaudioangle>
                    <clip id="clip-1"/>
                  </angle>
                  <angle>
                    <activevideoangle>false</activevideoangle>
                    <activeaudioangle>false</activeaudioangle>
                    <clip id="clip-2"/>
                  </angle>
                  <angle>
                    <activevideoangle>true</activevideoangle>
                    <activeaudioangle>true</activeaudioangle>
                    <clip id="clip-3"/>
                  </angle>
                  <angle>
                    <activevideoangle>false</activevideoangle>
                    <activeaudioangle>false</activeaudioangle>
                    <clip id="clip-4"/>
                  </angle>
                  <angle>
                    <activevideoangle>false</activevideoangle>
                    <activeaudioangle>false</activeaudioangle>
                    <clip id="clip-5"/>
                  </angle>
                  <angle>
                    <activevideoangle>false</activevideoangle>
                    <activeaudioangle>false</activeaudioangle>
                    <clip id="clip-6"/>
                  </angle>
                  <angle>
                    <activevideoangle>false</activevideoangle>
                    <activeaudioangle>false</activeaudioangle>
                    <clip id="clip-7"/>
                  </angle>
                  <masterclipid>clip-master</masterclipid>
                </multiclip>
              </clipitem>
              <clipitem id="cs-57">
                <duration>94</duration>
                <rate>
                  <ntsc>false</ntsc>
                  <timebase>25</timebase>
                </rate>
                <in>3840</in>
                <out>3933</out>
                <start>3840</start>
                <end>3933</end>
                <file id="src-4"/>
                <sourcetrack>
                  <mediatype>video</mediatype>
                  <trackindex>1</trackindex>
                </sourcetrack>
                <multiclip id="mcs-57">
                  <name>MCS-57</name>
                  <masterclipid>clip-master</masterclipid>
                  <collapsed>false</collapsed>
                  <angle>
                    <activevideoangle>false</activevideoangle>
                    <activeaudioangle>false</activeaudioangle>
                    <clip id="clip-1"/>
                  </angle>
                  <angle>
                    <activevideoangle>false</activevideoangle>
                    <activeaudioangle>false</activeaudioangle>
                    <clip id="clip-2"/>
                  </angle>
                  <angle>
                    <activevideoangle>false</activevideoangle>
                    <activeaudioangle>false</activeaudioangle>
                    <clip id="clip-3"/>
                  </angle>
                  <angle>
                    <activevideoangle>true</activevideoangle>
                    <activeaudioangle>true</activeaudioangle>
                    <clip id="clip-4"/>
                  </angle>
                  <angle>
                    <activevideoangle>false</activevideoangle>
                    <activeaudioangle>false</activeaudioangle>
                    <clip id="clip-5"/>
                  </angle>
                  <angle>
                    <activevideoangle>false</activevideoangle>
                    <activeaudioangle>false</activeaudioangle>
                    <clip id="clip-6"/>
                  </angle>
                  <angle>
                    <activevideoangle>false</activevideoangle>
                    <activeaudioangle>false</activeaudioangle>
                    <clip id="clip-7"/>
                  </angle>
                  <masterclipid>clip-master</masterclipid>
                </multiclip>
              </clipitem>
              <clipitem id="cs-58">
                <duration>134</duration>
                <rate>
                  <ntsc>false</ntsc>
                  <timebase>25</timebase>
                </rate>
                <in>3933</in>
                <out>4066</out>
                <start>3933</start>
                <end>4066</end>
                <file id="src-3"/>
                <sourcetrack>
                  <mediatype>video</mediatype>
                  <trackindex>1</trackindex>
                </sourcetrack>
                <multiclip id="mcs-58">
                  <name>MCS-58</name>
                  <masterclipid>clip-master</masterclipid>
                  <collapsed>false</collapsed>
                  <angle>
                    <activevideoangle>false</activevideoangle>
                    <activeaudioangle>false</activeaudioangle>
                    <clip id="clip-1"/>
                  </angle>
                  <angle>
                    <activevideoangle>false</activevideoangle>
                    <activeaudioangle>false</activeaudioangle>
                    <clip id="clip-2"/>
                  </angle>
                  <angle>
                    <activevideoangle>true</activevideoangle>
                    <activeaudioangle>true</activeaudioangle>
                    <clip id="clip-3"/>
                  </angle>
                  <angle>
                    <activevideoangle>false</activevideoangle>
                    <activeaudioangle>false</activeaudioangle>
                    <clip id="clip-4"/>
                  </angle>
                  <angle>
                    <activevideoangle>false</activevideoangle>
                    <activeaudioangle>false</activeaudioangle>
                    <clip id="clip-5"/>
                  </angle>
                  <angle>
                    <activevideoangle>false</activevideoangle>
                    <activeaudioangle>false</activeaudioangle>
                    <clip id="clip-6"/>
                  </angle>
                  <angle>
                    <activevideoangle>false</activevideoangle>
                    <activeaudioangle>false</activeaudioangle>
                    <clip id="clip-7"/>
                  </angle>
                  <masterclipid>clip-master</masterclipid>
                </multiclip>
              </clipitem>
              <clipitem id="cs-59">
                <duration>106</duration>
                <rate>
                  <ntsc>false</ntsc>
                  <timebase>25</timebase>
                </rate>
                <in>4066</in>
                <out>4171</out>
                <start>4066</start>
                <end>4171</end>
                <file id="src-2"/>
                <sourcetrack>
                  <mediatype>video</mediatype>
                  <trackindex>1</trackindex>
                </sourcetrack>
                <multiclip id="mcs-59">
                  <name>MCS-59</name>
                  <masterclipid>clip-master</masterclipid>
                  <collapsed>false</collapsed>
                  <angle>
                    <activevideoangle>false</activevideoangle>
                    <activeaudioangle>false</activeaudioangle>
                    <clip id="clip-1"/>
                  </angle>
                  <angle>
                    <activevideoangle>true</activevideoangle>
                    <activeaudioangle>true</activeaudioangle>
                    <clip id="clip-2"/>
                  </angle>
                  <angle>
                    <activevideoangle>false</activevideoangle>
                    <activeaudioangle>false</activeaudioangle>
                    <clip id="clip-3"/>
                  </angle>
                  <angle>
                    <activevideoangle>false</activevideoangle>
                    <activeaudioangle>false</activeaudioangle>
                    <clip id="clip-4"/>
                  </angle>
                  <angle>
                    <activevideoangle>false</activevideoangle>
                    <activeaudioangle>false</activeaudioangle>
                    <clip id="clip-5"/>
                  </angle>
                  <angle>
                    <activevideoangle>false</activevideoangle>
                    <activeaudioangle>false</activeaudioangle>
                    <clip id="clip-6"/>
                  </angle>
                  <angle>
                    <activevideoangle>false</activevideoangle>
                    <activeaudioangle>false</activeaudioangle>
                    <clip id="clip-7"/>
                  </angle>
                  <masterclipid>clip-master</masterclipid>
                </multiclip>
              </clipitem>
              <clipitem id="cs-60">
                <duration>106</duration>
                <rate>
                  <ntsc>false</ntsc>
                  <timebase>25</timebase>
                </rate>
                <in>4171</in>
                <out>4276</out>
                <start>4171</start>
                <end>4276</end>
                <file id="src-3"/>
                <sourcetrack>
                  <mediatype>video</mediatype>
                  <trackindex>1</trackindex>
                </sourcetrack>
                <multiclip id="mcs-60">
                  <name>MCS-60</name>
                  <masterclipid>clip-master</masterclipid>
                  <collapsed>false</collapsed>
                  <angle>
                    <activevideoangle>false</activevideoangle>
                    <activeaudioangle>false</activeaudioangle>
                    <clip id="clip-1"/>
                  </angle>
                  <angle>
                    <activevideoangle>false</activevideoangle>
                    <activeaudioangle>false</activeaudioangle>
                    <clip id="clip-2"/>
                  </angle>
                  <angle>
                    <activevideoangle>true</activevideoangle>
                    <activeaudioangle>true</activeaudioangle>
                    <clip id="clip-3"/>
                  </angle>
                  <angle>
                    <activevideoangle>false</activevideoangle>
                    <activeaudioangle>false</activeaudioangle>
                    <clip id="clip-4"/>
                  </angle>
                  <angle>
                    <activevideoangle>false</activevideoangle>
                    <activeaudioangle>false</activeaudioangle>
                    <clip id="clip-5"/>
                  </angle>
                  <angle>
                    <activevideoangle>false</activevideoangle>
                    <activeaudioangle>false</activeaudioangle>
                    <clip id="clip-6"/>
                  </angle>
                  <angle>
                    <activevideoangle>false</activevideoangle>
                    <activeaudioangle>false</activeaudioangle>
                    <clip id="clip-7"/>
                  </angle>
                  <masterclipid>clip-master</masterclipid>
                </multiclip>
              </clipitem>
              <clipitem id="cs-61">
                <duration>72</duration>
                <rate>
                  <ntsc>false</ntsc>
                  <timebase>25</timebase>
                </rate>
                <in>4276</in>
                <out>4347</out>
                <start>4276</start>
                <end>4347</end>
                <file id="src-6"/>
                <sourcetrack>
                  <mediatype>video</mediatype>
                  <trackindex>1</trackindex>
                </sourcetrack>
                <multiclip id="mcs-61">
                  <name>MCS-61</name>
                  <masterclipid>clip-master</masterclipid>
                  <collapsed>false</collapsed>
                  <angle>
                    <activevideoangle>false</activevideoangle>
                    <activeaudioangle>false</activeaudioangle>
                    <clip id="clip-1"/>
                  </angle>
                  <angle>
                    <activevideoangle>false</activevideoangle>
                    <activeaudioangle>false</activeaudioangle>
                    <clip id="clip-2"/>
                  </angle>
                  <angle>
                    <activevideoangle>false</activevideoangle>
                    <activeaudioangle>false</activeaudioangle>
                    <clip id="clip-3"/>
                  </angle>
                  <angle>
                    <activevideoangle>false</activevideoangle>
                    <activeaudioangle>false</activeaudioangle>
                    <clip id="clip-4"/>
                  </angle>
                  <angle>
                    <activevideoangle>false</activevideoangle>
                    <activeaudioangle>false</activeaudioangle>
                    <clip id="clip-5"/>
                  </angle>
                  <angle>
                    <activevideoangle>true</activevideoangle>
                    <activeaudioangle>true</activeaudioangle>
                    <clip id="clip-6"/>
                  </angle>
                  <angle>
                    <activevideoangle>false</activevideoangle>
                    <activeaudioangle>false</activeaudioangle>
                    <clip id="clip-7"/>
                  </angle>
                  <masterclipid>clip-master</masterclipid>
                </multiclip>
              </clipitem>
              <clipitem id="cs-62">
                <duration>185</duration>
                <rate>
                  <ntsc>false</ntsc>
                  <timebase>25</timebase>
                </rate>
                <in>4347</in>
                <out>4531</out>
                <start>4347</start>
                <end>4531</end>
                <file id="src-2"/>
                <sourcetrack>
                  <mediatype>video</mediatype>
                  <trackindex>1</trackindex>
                </sourcetrack>
                <multiclip id="mcs-62">
                  <name>MCS-62</name>
                  <masterclipid>clip-master</masterclipid>
                  <collapsed>false</collapsed>
                  <angle>
                    <activevideoangle>false</activevideoangle>
                    <activeaudioangle>false</activeaudioangle>
                    <clip id="clip-1"/>
                  </angle>
                  <angle>
                    <activevideoangle>true</activevideoangle>
                    <activeaudioangle>true</activeaudioangle>
                    <clip id="clip-2"/>
                  </angle>
                  <angle>
                    <activevideoangle>false</activevideoangle>
                    <activeaudioangle>false</activeaudioangle>
                    <clip id="clip-3"/>
                  </angle>
                  <angle>
                    <activevideoangle>false</activevideoangle>
                    <activeaudioangle>false</activeaudioangle>
                    <clip id="clip-4"/>
                  </angle>
                  <angle>
                    <activevideoangle>false</activevideoangle>
                    <activeaudioangle>false</activeaudioangle>
                    <clip id="clip-5"/>
                  </angle>
                  <angle>
                    <activevideoangle>false</activevideoangle>
                    <activeaudioangle>false</activeaudioangle>
                    <clip id="clip-6"/>
                  </angle>
                  <angle>
                    <activevideoangle>false</activevideoangle>
                    <activeaudioangle>false</activeaudioangle>
                    <clip id="clip-7"/>
                  </angle>
                  <masterclipid>clip-master</masterclipid>
                </multiclip>
              </clipitem>
              <clipitem id="cs-63">
                <duration>162</duration>
                <rate>
                  <ntsc>false</ntsc>
                  <timebase>25</timebase>
                </rate>
                <in>4531</in>
                <out>4692</out>
                <start>4531</start>
                <end>4692</end>
                <file id="src-4"/>
                <sourcetrack>
                  <mediatype>video</mediatype>
                  <trackindex>1</trackindex>
                </sourcetrack>
                <multiclip id="mcs-63">
                  <name>MCS-63</name>
                  <masterclipid>clip-master</masterclipid>
                  <collapsed>false</collapsed>
                  <angle>
                    <activevideoangle>false</activevideoangle>
                    <activeaudioangle>false</activeaudioangle>
                    <clip id="clip-1"/>
                  </angle>
                  <angle>
                    <activevideoangle>false</activevideoangle>
                    <activeaudioangle>false</activeaudioangle>
                    <clip id="clip-2"/>
                  </angle>
                  <angle>
                    <activevideoangle>false</activevideoangle>
                    <activeaudioangle>false</activeaudioangle>
                    <clip id="clip-3"/>
                  </angle>
                  <angle>
                    <activevideoangle>true</activevideoangle>
                    <activeaudioangle>true</activeaudioangle>
                    <clip id="clip-4"/>
                  </angle>
                  <angle>
                    <activevideoangle>false</activevideoangle>
                    <activeaudioangle>false</activeaudioangle>
                    <clip id="clip-5"/>
                  </angle>
                  <angle>
                    <activevideoangle>false</activevideoangle>
                    <activeaudioangle>false</activeaudioangle>
                    <clip id="clip-6"/>
                  </angle>
                  <angle>
                    <activevideoangle>false</activevideoangle>
                    <activeaudioangle>false</activeaudioangle>
                    <clip id="clip-7"/>
                  </angle>
                  <masterclipid>clip-master</masterclipid>
                </multiclip>
              </clipitem>
              <clipitem id="cs-64">
                <duration>67</duration>
                <rate>
                  <ntsc>false</ntsc>
                  <timebase>25</timebase>
                </rate>
                <in>4692</in>
                <out>4758</out>
                <start>4692</start>
                <end>4758</end>
                <file id="src-2"/>
                <sourcetrack>
                  <mediatype>video</mediatype>
                  <trackindex>1</trackindex>
                </sourcetrack>
                <multiclip id="mcs-64">
                  <name>MCS-64</name>
                  <masterclipid>clip-master</masterclipid>
                  <collapsed>false</collapsed>
                  <angle>
                    <activevideoangle>false</activevideoangle>
                    <activeaudioangle>false</activeaudioangle>
                    <clip id="clip-1"/>
                  </angle>
                  <angle>
                    <activevideoangle>true</activevideoangle>
                    <activeaudioangle>true</activeaudioangle>
                    <clip id="clip-2"/>
                  </angle>
                  <angle>
                    <activevideoangle>false</activevideoangle>
                    <activeaudioangle>false</activeaudioangle>
                    <clip id="clip-3"/>
                  </angle>
                  <angle>
                    <activevideoangle>false</activevideoangle>
                    <activeaudioangle>false</activeaudioangle>
                    <clip id="clip-4"/>
                  </angle>
                  <angle>
                    <activevideoangle>false</activevideoangle>
                    <activeaudioangle>false</activeaudioangle>
                    <clip id="clip-5"/>
                  </angle>
                  <angle>
                    <activevideoangle>false</activevideoangle>
                    <activeaudioangle>false</activeaudioangle>
                    <clip id="clip-6"/>
                  </angle>
                  <angle>
                    <activevideoangle>false</activevideoangle>
                    <activeaudioangle>false</activeaudioangle>
                    <clip id="clip-7"/>
                  </angle>
                  <masterclipid>clip-master</masterclipid>
                </multiclip>
              </clipitem>
              <clipitem id="cs-65">
                <duration>165</duration>
                <rate>
                  <ntsc>false</ntsc>
                  <timebase>25</timebase>
                </rate>
                <in>4758</in>
                <out>4922</out>
                <start>4758</start>
                <end>4922</end>
                <file id="src-3"/>
                <sourcetrack>
                  <mediatype>video</mediatype>
                  <trackindex>1</trackindex>
                </sourcetrack>
                <multiclip id="mcs-65">
                  <name>MCS-65</name>
                  <masterclipid>clip-master</masterclipid>
                  <collapsed>false</collapsed>
                  <angle>
                    <activevideoangle>false</activevideoangle>
                    <activeaudioangle>false</activeaudioangle>
                    <clip id="clip-1"/>
                  </angle>
                  <angle>
                    <activevideoangle>false</activevideoangle>
                    <activeaudioangle>false</activeaudioangle>
                    <clip id="clip-2"/>
                  </angle>
                  <angle>
                    <activevideoangle>true</activevideoangle>
                    <activeaudioangle>true</activeaudioangle>
                    <clip id="clip-3"/>
                  </angle>
                  <angle>
                    <activevideoangle>false</activevideoangle>
                    <activeaudioangle>false</activeaudioangle>
                    <clip id="clip-4"/>
                  </angle>
                  <angle>
                    <activevideoangle>false</activevideoangle>
                    <activeaudioangle>false</activeaudioangle>
                    <clip id="clip-5"/>
                  </angle>
                  <angle>
                    <activevideoangle>false</activevideoangle>
                    <activeaudioangle>false</activeaudioangle>
                    <clip id="clip-6"/>
                  </angle>
                  <angle>
                    <activevideoangle>false</activevideoangle>
                    <activeaudioangle>false</activeaudioangle>
                    <clip id="clip-7"/>
                  </angle>
                  <masterclipid>clip-master</masterclipid>
                </multiclip>
              </clipitem>
              <clipitem id="cs-66">
                <duration>193</duration>
                <rate>
                  <ntsc>false</ntsc>
                  <timebase>25</timebase>
                </rate>
                <in>4922</in>
                <out>5114</out>
                <start>4922</start>
                <end>5114</end>
                <file id="src-2"/>
                <sourcetrack>
                  <mediatype>video</mediatype>
                  <trackindex>1</trackindex>
                </sourcetrack>
                <multiclip id="mcs-66">
                  <name>MCS-66</name>
                  <masterclipid>clip-master</masterclipid>
                  <collapsed>false</collapsed>
                  <angle>
                    <activevideoangle>false</activevideoangle>
                    <activeaudioangle>false</activeaudioangle>
                    <clip id="clip-1"/>
                  </angle>
                  <angle>
                    <activevideoangle>true</activevideoangle>
                    <activeaudioangle>true</activeaudioangle>
                    <clip id="clip-2"/>
                  </angle>
                  <angle>
                    <activevideoangle>false</activevideoangle>
                    <activeaudioangle>false</activeaudioangle>
                    <clip id="clip-3"/>
                  </angle>
                  <angle>
                    <activevideoangle>false</activevideoangle>
                    <activeaudioangle>false</activeaudioangle>
                    <clip id="clip-4"/>
                  </angle>
                  <angle>
                    <activevideoangle>false</activevideoangle>
                    <activeaudioangle>false</activeaudioangle>
                    <clip id="clip-5"/>
                  </angle>
                  <angle>
                    <activevideoangle>false</activevideoangle>
                    <activeaudioangle>false</activeaudioangle>
                    <clip id="clip-6"/>
                  </angle>
                  <angle>
                    <activevideoangle>false</activevideoangle>
                    <activeaudioangle>false</activeaudioangle>
                    <clip id="clip-7"/>
                  </angle>
                  <masterclipid>clip-master</masterclipid>
                </multiclip>
              </clipitem>
              <clipitem id="cs-67">
                <duration>111</duration>
                <rate>
                  <ntsc>false</ntsc>
                  <timebase>25</timebase>
                </rate>
                <in>5114</in>
                <out>5224</out>
                <start>5114</start>
                <end>5224</end>
                <file id="src-3"/>
                <sourcetrack>
                  <mediatype>video</mediatype>
                  <trackindex>1</trackindex>
                </sourcetrack>
                <multiclip id="mcs-67">
                  <name>MCS-67</name>
                  <masterclipid>clip-master</masterclipid>
                  <collapsed>false</collapsed>
                  <angle>
                    <activevideoangle>false</activevideoangle>
                    <activeaudioangle>false</activeaudioangle>
                    <clip id="clip-1"/>
                  </angle>
                  <angle>
                    <activevideoangle>false</activevideoangle>
                    <activeaudioangle>false</activeaudioangle>
                    <clip id="clip-2"/>
                  </angle>
                  <angle>
                    <activevideoangle>true</activevideoangle>
                    <activeaudioangle>true</activeaudioangle>
                    <clip id="clip-3"/>
                  </angle>
                  <angle>
                    <activevideoangle>false</activevideoangle>
                    <activeaudioangle>false</activeaudioangle>
                    <clip id="clip-4"/>
                  </angle>
                  <angle>
                    <activevideoangle>false</activevideoangle>
                    <activeaudioangle>false</activeaudioangle>
                    <clip id="clip-5"/>
                  </angle>
                  <angle>
                    <activevideoangle>false</activevideoangle>
                    <activeaudioangle>false</activeaudioangle>
                    <clip id="clip-6"/>
                  </angle>
                  <angle>
                    <activevideoangle>false</activevideoangle>
                    <activeaudioangle>false</activeaudioangle>
                    <clip id="clip-7"/>
                  </angle>
                  <masterclipid>clip-master</masterclipid>
                </multiclip>
              </clipitem>
              <clipitem id="cs-68">
                <duration>72</duration>
                <rate>
                  <ntsc>false</ntsc>
                  <timebase>25</timebase>
                </rate>
                <in>5224</in>
                <out>5295</out>
                <start>5224</start>
                <end>5295</end>
                <file id="src-6"/>
                <sourcetrack>
                  <mediatype>video</mediatype>
                  <trackindex>1</trackindex>
                </sourcetrack>
                <multiclip id="mcs-68">
                  <name>MCS-68</name>
                  <masterclipid>clip-master</masterclipid>
                  <collapsed>false</collapsed>
                  <angle>
                    <activevideoangle>false</activevideoangle>
                    <activeaudioangle>false</activeaudioangle>
                    <clip id="clip-1"/>
                  </angle>
                  <angle>
                    <activevideoangle>false</activevideoangle>
                    <activeaudioangle>false</activeaudioangle>
                    <clip id="clip-2"/>
                  </angle>
                  <angle>
                    <activevideoangle>false</activevideoangle>
                    <activeaudioangle>false</activeaudioangle>
                    <clip id="clip-3"/>
                  </angle>
                  <angle>
                    <activevideoangle>false</activevideoangle>
                    <activeaudioangle>false</activeaudioangle>
                    <clip id="clip-4"/>
                  </angle>
                  <angle>
                    <activevideoangle>false</activevideoangle>
                    <activeaudioangle>false</activeaudioangle>
                    <clip id="clip-5"/>
                  </angle>
                  <angle>
                    <activevideoangle>true</activevideoangle>
                    <activeaudioangle>true</activeaudioangle>
                    <clip id="clip-6"/>
                  </angle>
                  <angle>
                    <activevideoangle>false</activevideoangle>
                    <activeaudioangle>false</activeaudioangle>
                    <clip id="clip-7"/>
                  </angle>
                  <masterclipid>clip-master</masterclipid>
                </multiclip>
              </clipitem>
              <clipitem id="cs-69">
                <duration>99</duration>
                <rate>
                  <ntsc>false</ntsc>
                  <timebase>25</timebase>
                </rate>
                <in>5295</in>
                <out>5393</out>
                <start>5295</start>
                <end>5393</end>
                <file id="src-4"/>
                <sourcetrack>
                  <mediatype>video</mediatype>
                  <trackindex>1</trackindex>
                </sourcetrack>
                <multiclip id="mcs-69">
                  <name>MCS-69</name>
                  <masterclipid>clip-master</masterclipid>
                  <collapsed>false</collapsed>
                  <angle>
                    <activevideoangle>false</activevideoangle>
                    <activeaudioangle>false</activeaudioangle>
                    <clip id="clip-1"/>
                  </angle>
                  <angle>
                    <activevideoangle>false</activevideoangle>
                    <activeaudioangle>false</activeaudioangle>
                    <clip id="clip-2"/>
                  </angle>
                  <angle>
                    <activevideoangle>false</activevideoangle>
                    <activeaudioangle>false</activeaudioangle>
                    <clip id="clip-3"/>
                  </angle>
                  <angle>
                    <activevideoangle>true</activevideoangle>
                    <activeaudioangle>true</activeaudioangle>
                    <clip id="clip-4"/>
                  </angle>
                  <angle>
                    <activevideoangle>false</activevideoangle>
                    <activeaudioangle>false</activeaudioangle>
                    <clip id="clip-5"/>
                  </angle>
                  <angle>
                    <activevideoangle>false</activevideoangle>
                    <activeaudioangle>false</activeaudioangle>
                    <clip id="clip-6"/>
                  </angle>
                  <angle>
                    <activevideoangle>false</activevideoangle>
                    <activeaudioangle>false</activeaudioangle>
                    <clip id="clip-7"/>
                  </angle>
                  <masterclipid>clip-master</masterclipid>
                </multiclip>
              </clipitem>
              <clipitem id="cs-70">
                <duration>125</duration>
                <rate>
                  <ntsc>false</ntsc>
                  <timebase>25</timebase>
                </rate>
                <in>5393</in>
                <out>5517</out>
                <start>5393</start>
                <end>5517</end>
                <file id="src-2"/>
                <sourcetrack>
                  <mediatype>video</mediatype>
                  <trackindex>1</trackindex>
                </sourcetrack>
                <multiclip id="mcs-70">
                  <name>MCS-70</name>
                  <masterclipid>clip-master</masterclipid>
                  <collapsed>false</collapsed>
                  <angle>
                    <activevideoangle>false</activevideoangle>
                    <activeaudioangle>false</activeaudioangle>
                    <clip id="clip-1"/>
                  </angle>
                  <angle>
                    <activevideoangle>true</activevideoangle>
                    <activeaudioangle>true</activeaudioangle>
                    <clip id="clip-2"/>
                  </angle>
                  <angle>
                    <activevideoangle>false</activevideoangle>
                    <activeaudioangle>false</activeaudioangle>
                    <clip id="clip-3"/>
                  </angle>
                  <angle>
                    <activevideoangle>false</activevideoangle>
                    <activeaudioangle>false</activeaudioangle>
                    <clip id="clip-4"/>
                  </angle>
                  <angle>
                    <activevideoangle>false</activevideoangle>
                    <activeaudioangle>false</activeaudioangle>
                    <clip id="clip-5"/>
                  </angle>
                  <angle>
                    <activevideoangle>false</activevideoangle>
                    <activeaudioangle>false</activeaudioangle>
                    <clip id="clip-6"/>
                  </angle>
                  <angle>
                    <activevideoangle>false</activevideoangle>
                    <activeaudioangle>false</activeaudioangle>
                    <clip id="clip-7"/>
                  </angle>
                  <masterclipid>clip-master</masterclipid>
                </multiclip>
              </clipitem>
              <clipitem id="cs-71">
                <duration>90</duration>
                <rate>
                  <ntsc>false</ntsc>
                  <timebase>25</timebase>
                </rate>
                <in>5517</in>
                <out>5606</out>
                <start>5517</start>
                <end>5606</end>
                <file id="src-3"/>
                <sourcetrack>
                  <mediatype>video</mediatype>
                  <trackindex>1</trackindex>
                </sourcetrack>
                <multiclip id="mcs-71">
                  <name>MCS-71</name>
                  <masterclipid>clip-master</masterclipid>
                  <collapsed>false</collapsed>
                  <angle>
                    <activevideoangle>false</activevideoangle>
                    <activeaudioangle>false</activeaudioangle>
                    <clip id="clip-1"/>
                  </angle>
                  <angle>
                    <activevideoangle>false</activevideoangle>
                    <activeaudioangle>false</activeaudioangle>
                    <clip id="clip-2"/>
                  </angle>
                  <angle>
                    <activevideoangle>true</activevideoangle>
                    <activeaudioangle>true</activeaudioangle>
                    <clip id="clip-3"/>
                  </angle>
                  <angle>
                    <activevideoangle>false</activevideoangle>
                    <activeaudioangle>false</activeaudioangle>
                    <clip id="clip-4"/>
                  </angle>
                  <angle>
                    <activevideoangle>false</activevideoangle>
                    <activeaudioangle>false</activeaudioangle>
                    <clip id="clip-5"/>
                  </angle>
                  <angle>
                    <activevideoangle>false</activevideoangle>
                    <activeaudioangle>false</activeaudioangle>
                    <clip id="clip-6"/>
                  </angle>
                  <angle>
                    <activevideoangle>false</activevideoangle>
                    <activeaudioangle>false</activeaudioangle>
                    <clip id="clip-7"/>
                  </angle>
                  <masterclipid>clip-master</masterclipid>
                </multiclip>
              </clipitem>
              <clipitem id="cs-72">
                <duration>176</duration>
                <rate>
                  <ntsc>false</ntsc>
                  <timebase>25</timebase>
                </rate>
                <in>5606</in>
                <out>5781</out>
                <start>5606</start>
                <end>5781</end>
                <file id="src-2"/>
                <sourcetrack>
                  <mediatype>video</mediatype>
                  <trackindex>1</trackindex>
                </sourcetrack>
                <multiclip id="mcs-72">
                  <name>MCS-72</name>
                  <masterclipid>clip-master</masterclipid>
                  <collapsed>false</collapsed>
                  <angle>
                    <activevideoangle>false</activevideoangle>
                    <activeaudioangle>false</activeaudioangle>
                    <clip id="clip-1"/>
                  </angle>
                  <angle>
                    <activevideoangle>true</activevideoangle>
                    <activeaudioangle>true</activeaudioangle>
                    <clip id="clip-2"/>
                  </angle>
                  <angle>
                    <activevideoangle>false</activevideoangle>
                    <activeaudioangle>false</activeaudioangle>
                    <clip id="clip-3"/>
                  </angle>
                  <angle>
                    <activevideoangle>false</activevideoangle>
                    <activeaudioangle>false</activeaudioangle>
                    <clip id="clip-4"/>
                  </angle>
                  <angle>
                    <activevideoangle>false</activevideoangle>
                    <activeaudioangle>false</activeaudioangle>
                    <clip id="clip-5"/>
                  </angle>
                  <angle>
                    <activevideoangle>false</activevideoangle>
                    <activeaudioangle>false</activeaudioangle>
                    <clip id="clip-6"/>
                  </angle>
                  <angle>
                    <activevideoangle>false</activevideoangle>
                    <activeaudioangle>false</activeaudioangle>
                    <clip id="clip-7"/>
                  </angle>
                  <masterclipid>clip-master</masterclipid>
                </multiclip>
              </clipitem>
              <clipitem id="cs-73">
                <duration>108</duration>
                <rate>
                  <ntsc>false</ntsc>
                  <timebase>25</timebase>
                </rate>
                <in>5781</in>
                <out>5888</out>
                <start>5781</start>
                <end>5888</end>
                <file id="src-4"/>
                <sourcetrack>
                  <mediatype>video</mediatype>
                  <trackindex>1</trackindex>
                </sourcetrack>
                <multiclip id="mcs-73">
                  <name>MCS-73</name>
                  <masterclipid>clip-master</masterclipid>
                  <collapsed>false</collapsed>
                  <angle>
                    <activevideoangle>false</activevideoangle>
                    <activeaudioangle>false</activeaudioangle>
                    <clip id="clip-1"/>
                  </angle>
                  <angle>
                    <activevideoangle>false</activevideoangle>
                    <activeaudioangle>false</activeaudioangle>
                    <clip id="clip-2"/>
                  </angle>
                  <angle>
                    <activevideoangle>false</activevideoangle>
                    <activeaudioangle>false</activeaudioangle>
                    <clip id="clip-3"/>
                  </angle>
                  <angle>
                    <activevideoangle>true</activevideoangle>
                    <activeaudioangle>true</activeaudioangle>
                    <clip id="clip-4"/>
                  </angle>
                  <angle>
                    <activevideoangle>false</activevideoangle>
                    <activeaudioangle>false</activeaudioangle>
                    <clip id="clip-5"/>
                  </angle>
                  <angle>
                    <activevideoangle>false</activevideoangle>
                    <activeaudioangle>false</activeaudioangle>
                    <clip id="clip-6"/>
                  </angle>
                  <angle>
                    <activevideoangle>false</activevideoangle>
                    <activeaudioangle>false</activeaudioangle>
                    <clip id="clip-7"/>
                  </angle>
                  <masterclipid>clip-master</masterclipid>
                </multiclip>
              </clipitem>
              <clipitem id="cs-74">
                <duration>109</duration>
                <rate>
                  <ntsc>false</ntsc>
                  <timebase>25</timebase>
                </rate>
                <in>5888</in>
                <out>5996</out>
                <start>5888</start>
                <end>5996</end>
                <file id="src-3"/>
                <sourcetrack>
                  <mediatype>video</mediatype>
                  <trackindex>1</trackindex>
                </sourcetrack>
                <multiclip id="mcs-74">
                  <name>MCS-74</name>
                  <masterclipid>clip-master</masterclipid>
                  <collapsed>false</collapsed>
                  <angle>
                    <activevideoangle>false</activevideoangle>
                    <activeaudioangle>false</activeaudioangle>
                    <clip id="clip-1"/>
                  </angle>
                  <angle>
                    <activevideoangle>false</activevideoangle>
                    <activeaudioangle>false</activeaudioangle>
                    <clip id="clip-2"/>
                  </angle>
                  <angle>
                    <activevideoangle>true</activevideoangle>
                    <activeaudioangle>true</activeaudioangle>
                    <clip id="clip-3"/>
                  </angle>
                  <angle>
                    <activevideoangle>false</activevideoangle>
                    <activeaudioangle>false</activeaudioangle>
                    <clip id="clip-4"/>
                  </angle>
                  <angle>
                    <activevideoangle>false</activevideoangle>
                    <activeaudioangle>false</activeaudioangle>
                    <clip id="clip-5"/>
                  </angle>
                  <angle>
                    <activevideoangle>false</activevideoangle>
                    <activeaudioangle>false</activeaudioangle>
                    <clip id="clip-6"/>
                  </angle>
                  <angle>
                    <activevideoangle>false</activevideoangle>
                    <activeaudioangle>false</activeaudioangle>
                    <clip id="clip-7"/>
                  </angle>
                  <masterclipid>clip-master</masterclipid>
                </multiclip>
              </clipitem>
              <clipitem id="cs-75">
                <duration>92</duration>
                <rate>
                  <ntsc>false</ntsc>
                  <timebase>25</timebase>
                </rate>
                <in>5996</in>
                <out>6087</out>
                <start>5996</start>
                <end>6087</end>
                <file id="src-5"/>
                <sourcetrack>
                  <mediatype>video</mediatype>
                  <trackindex>1</trackindex>
                </sourcetrack>
                <multiclip id="mcs-75">
                  <name>MCS-75</name>
                  <masterclipid>clip-master</masterclipid>
                  <collapsed>false</collapsed>
                  <angle>
                    <activevideoangle>false</activevideoangle>
                    <activeaudioangle>false</activeaudioangle>
                    <clip id="clip-1"/>
                  </angle>
                  <angle>
                    <activevideoangle>false</activevideoangle>
                    <activeaudioangle>false</activeaudioangle>
                    <clip id="clip-2"/>
                  </angle>
                  <angle>
                    <activevideoangle>false</activevideoangle>
                    <activeaudioangle>false</activeaudioangle>
                    <clip id="clip-3"/>
                  </angle>
                  <angle>
                    <activevideoangle>false</activevideoangle>
                    <activeaudioangle>false</activeaudioangle>
                    <clip id="clip-4"/>
                  </angle>
                  <angle>
                    <activevideoangle>true</activevideoangle>
                    <activeaudioangle>true</activeaudioangle>
                    <clip id="clip-5"/>
                  </angle>
                  <angle>
                    <activevideoangle>false</activevideoangle>
                    <activeaudioangle>false</activeaudioangle>
                    <clip id="clip-6"/>
                  </angle>
                  <angle>
                    <activevideoangle>false</activevideoangle>
                    <activeaudioangle>false</activeaudioangle>
                    <clip id="clip-7"/>
                  </angle>
                  <masterclipid>clip-master</masterclipid>
                </multiclip>
              </clipitem>
              <clipitem id="cs-76">
                <duration>99</duration>
                <rate>
                  <ntsc>false</ntsc>
                  <timebase>25</timebase>
                </rate>
                <in>6087</in>
                <out>6185</out>
                <start>6087</start>
                <end>6185</end>
                <file id="src-2"/>
                <sourcetrack>
                  <mediatype>video</mediatype>
                  <trackindex>1</trackindex>
                </sourcetrack>
                <multiclip id="mcs-76">
                  <name>MCS-76</name>
                  <masterclipid>clip-master</masterclipid>
                  <collapsed>false</collapsed>
                  <angle>
                    <activevideoangle>false</activevideoangle>
                    <activeaudioangle>false</activeaudioangle>
                    <clip id="clip-1"/>
                  </angle>
                  <angle>
                    <activevideoangle>true</activevideoangle>
                    <activeaudioangle>true</activeaudioangle>
                    <clip id="clip-2"/>
                  </angle>
                  <angle>
                    <activevideoangle>false</activevideoangle>
                    <activeaudioangle>false</activeaudioangle>
                    <clip id="clip-3"/>
                  </angle>
                  <angle>
                    <activevideoangle>false</activevideoangle>
                    <activeaudioangle>false</activeaudioangle>
                    <clip id="clip-4"/>
                  </angle>
                  <angle>
                    <activevideoangle>false</activevideoangle>
                    <activeaudioangle>false</activeaudioangle>
                    <clip id="clip-5"/>
                  </angle>
                  <angle>
                    <activevideoangle>false</activevideoangle>
                    <activeaudioangle>false</activeaudioangle>
                    <clip id="clip-6"/>
                  </angle>
                  <angle>
                    <activevideoangle>false</activevideoangle>
                    <activeaudioangle>false</activeaudioangle>
                    <clip id="clip-7"/>
                  </angle>
                  <masterclipid>clip-master</masterclipid>
                </multiclip>
              </clipitem>
              <clipitem id="cs-77">
                <duration>146</duration>
                <rate>
                  <ntsc>false</ntsc>
                  <timebase>25</timebase>
                </rate>
                <in>6185</in>
                <out>6330</out>
                <start>6185</start>
                <end>6330</end>
                <file id="src-3"/>
                <sourcetrack>
                  <mediatype>video</mediatype>
                  <trackindex>1</trackindex>
                </sourcetrack>
                <multiclip id="mcs-77">
                  <name>MCS-77</name>
                  <masterclipid>clip-master</masterclipid>
                  <collapsed>false</collapsed>
                  <angle>
                    <activevideoangle>false</activevideoangle>
                    <activeaudioangle>false</activeaudioangle>
                    <clip id="clip-1"/>
                  </angle>
                  <angle>
                    <activevideoangle>false</activevideoangle>
                    <activeaudioangle>false</activeaudioangle>
                    <clip id="clip-2"/>
                  </angle>
                  <angle>
                    <activevideoangle>true</activevideoangle>
                    <activeaudioangle>true</activeaudioangle>
                    <clip id="clip-3"/>
                  </angle>
                  <angle>
                    <activevideoangle>false</activevideoangle>
                    <activeaudioangle>false</activeaudioangle>
                    <clip id="clip-4"/>
                  </angle>
                  <angle>
                    <activevideoangle>false</activevideoangle>
                    <activeaudioangle>false</activeaudioangle>
                    <clip id="clip-5"/>
                  </angle>
                  <angle>
                    <activevideoangle>false</activevideoangle>
                    <activeaudioangle>false</activeaudioangle>
                    <clip id="clip-6"/>
                  </angle>
                  <angle>
                    <activevideoangle>false</activevideoangle>
                    <activeaudioangle>false</activeaudioangle>
                    <clip id="clip-7"/>
                  </angle>
                  <masterclipid>clip-master</masterclipid>
                </multiclip>
              </clipitem>
              <clipitem id="cs-78">
                <duration>118</duration>
                <rate>
                  <ntsc>false</ntsc>
                  <timebase>25</timebase>
                </rate>
                <in>6330</in>
                <out>6447</out>
                <start>6330</start>
                <end>6447</end>
                <file id="src-2"/>
                <sourcetrack>
                  <mediatype>video</mediatype>
                  <trackindex>1</trackindex>
                </sourcetrack>
                <multiclip id="mcs-78">
                  <name>MCS-78</name>
                  <masterclipid>clip-master</masterclipid>
                  <collapsed>false</collapsed>
                  <angle>
                    <activevideoangle>false</activevideoangle>
                    <activeaudioangle>false</activeaudioangle>
                    <clip id="clip-1"/>
                  </angle>
                  <angle>
                    <activevideoangle>true</activevideoangle>
                    <activeaudioangle>true</activeaudioangle>
                    <clip id="clip-2"/>
                  </angle>
                  <angle>
                    <activevideoangle>false</activevideoangle>
                    <activeaudioangle>false</activeaudioangle>
                    <clip id="clip-3"/>
                  </angle>
                  <angle>
                    <activevideoangle>false</activevideoangle>
                    <activeaudioangle>false</activeaudioangle>
                    <clip id="clip-4"/>
                  </angle>
                  <angle>
                    <activevideoangle>false</activevideoangle>
                    <activeaudioangle>false</activeaudioangle>
                    <clip id="clip-5"/>
                  </angle>
                  <angle>
                    <activevideoangle>false</activevideoangle>
                    <activeaudioangle>false</activeaudioangle>
                    <clip id="clip-6"/>
                  </angle>
                  <angle>
                    <activevideoangle>false</activevideoangle>
                    <activeaudioangle>false</activeaudioangle>
                    <clip id="clip-7"/>
                  </angle>
                  <masterclipid>clip-master</masterclipid>
                </multiclip>
              </clipitem>
              <clipitem id="cs-79">
                <duration>113</duration>
                <rate>
                  <ntsc>false</ntsc>
                  <timebase>25</timebase>
                </rate>
                <in>6447</in>
                <out>6559</out>
                <start>6447</start>
                <end>6559</end>
                <file id="src-3"/>
                <sourcetrack>
                  <mediatype>video</mediatype>
                  <trackindex>1</trackindex>
                </sourcetrack>
                <multiclip id="mcs-79">
                  <name>MCS-79</name>
                  <masterclipid>clip-master</masterclipid>
                  <collapsed>false</collapsed>
                  <angle>
                    <activevideoangle>false</activevideoangle>
                    <activeaudioangle>false</activeaudioangle>
                    <clip id="clip-1"/>
                  </angle>
                  <angle>
                    <activevideoangle>false</activevideoangle>
                    <activeaudioangle>false</activeaudioangle>
                    <clip id="clip-2"/>
                  </angle>
                  <angle>
                    <activevideoangle>true</activevideoangle>
                    <activeaudioangle>true</activeaudioangle>
                    <clip id="clip-3"/>
                  </angle>
                  <angle>
                    <activevideoangle>false</activevideoangle>
                    <activeaudioangle>false</activeaudioangle>
                    <clip id="clip-4"/>
                  </angle>
                  <angle>
                    <activevideoangle>false</activevideoangle>
                    <activeaudioangle>false</activeaudioangle>
                    <clip id="clip-5"/>
                  </angle>
                  <angle>
                    <activevideoangle>false</activevideoangle>
                    <activeaudioangle>false</activeaudioangle>
                    <clip id="clip-6"/>
                  </angle>
                  <angle>
                    <activevideoangle>false</activevideoangle>
                    <activeaudioangle>false</activeaudioangle>
                    <clip id="clip-7"/>
                  </angle>
                  <masterclipid>clip-master</masterclipid>
                </multiclip>
              </clipitem>
              <clipitem id="cs-80">
                <duration>67</duration>
                <rate>
                  <ntsc>false</ntsc>
                  <timebase>25</timebase>
                </rate>
                <in>6559</in>
                <out>6625</out>
                <start>6559</start>
                <end>6625</end>
                <file id="src-6"/>
                <sourcetrack>
                  <mediatype>video</mediatype>
                  <trackindex>1</trackindex>
                </sourcetrack>
                <multiclip id="mcs-80">
                  <name>MCS-80</name>
                  <masterclipid>clip-master</masterclipid>
                  <collapsed>false</collapsed>
                  <angle>
                    <activevideoangle>false</activevideoangle>
                    <activeaudioangle>false</activeaudioangle>
                    <clip id="clip-1"/>
                  </angle>
                  <angle>
                    <activevideoangle>false</activevideoangle>
                    <activeaudioangle>false</activeaudioangle>
                    <clip id="clip-2"/>
                  </angle>
                  <angle>
                    <activevideoangle>false</activevideoangle>
                    <activeaudioangle>false</activeaudioangle>
                    <clip id="clip-3"/>
                  </angle>
                  <angle>
                    <activevideoangle>false</activevideoangle>
                    <activeaudioangle>false</activeaudioangle>
                    <clip id="clip-4"/>
                  </angle>
                  <angle>
                    <activevideoangle>false</activevideoangle>
                    <activeaudioangle>false</activeaudioangle>
                    <clip id="clip-5"/>
                  </angle>
                  <angle>
                    <activevideoangle>true</activevideoangle>
                    <activeaudioangle>true</activeaudioangle>
                    <clip id="clip-6"/>
                  </angle>
                  <angle>
                    <activevideoangle>false</activevideoangle>
                    <activeaudioangle>false</activeaudioangle>
                    <clip id="clip-7"/>
                  </angle>
                  <masterclipid>clip-master</masterclipid>
                </multiclip>
              </clipitem>
              <clipitem id="cs-81">
                <duration>128</duration>
                <rate>
                  <ntsc>false</ntsc>
                  <timebase>25</timebase>
                </rate>
                <in>6625</in>
                <out>6752</out>
                <start>6625</start>
                <end>6752</end>
                <file id="src-2"/>
                <sourcetrack>
                  <mediatype>video</mediatype>
                  <trackindex>1</trackindex>
                </sourcetrack>
                <multiclip id="mcs-81">
                  <name>MCS-81</name>
                  <masterclipid>clip-master</masterclipid>
                  <collapsed>false</collapsed>
                  <angle>
                    <activevideoangle>false</activevideoangle>
                    <activeaudioangle>false</activeaudioangle>
                    <clip id="clip-1"/>
                  </angle>
                  <angle>
                    <activevideoangle>true</activevideoangle>
                    <activeaudioangle>true</activeaudioangle>
                    <clip id="clip-2"/>
                  </angle>
                  <angle>
                    <activevideoangle>false</activevideoangle>
                    <activeaudioangle>false</activeaudioangle>
                    <clip id="clip-3"/>
                  </angle>
                  <angle>
                    <activevideoangle>false</activevideoangle>
                    <activeaudioangle>false</activeaudioangle>
                    <clip id="clip-4"/>
                  </angle>
                  <angle>
                    <activevideoangle>false</activevideoangle>
                    <activeaudioangle>false</activeaudioangle>
                    <clip id="clip-5"/>
                  </angle>
                  <angle>
                    <activevideoangle>false</activevideoangle>
                    <activeaudioangle>false</activeaudioangle>
                    <clip id="clip-6"/>
                  </angle>
                  <angle>
                    <activevideoangle>false</activevideoangle>
                    <activeaudioangle>false</activeaudioangle>
                    <clip id="clip-7"/>
                  </angle>
                  <masterclipid>clip-master</masterclipid>
                </multiclip>
              </clipitem>
              <clipitem id="cs-82">
                <duration>94</duration>
                <rate>
                  <ntsc>false</ntsc>
                  <timebase>25</timebase>
                </rate>
                <in>6752</in>
                <out>6845</out>
                <start>6752</start>
                <end>6845</end>
                <file id="src-3"/>
                <sourcetrack>
                  <mediatype>video</mediatype>
                  <trackindex>1</trackindex>
                </sourcetrack>
                <multiclip id="mcs-82">
                  <name>MCS-82</name>
                  <masterclipid>clip-master</masterclipid>
                  <collapsed>false</collapsed>
                  <angle>
                    <activevideoangle>false</activevideoangle>
                    <activeaudioangle>false</activeaudioangle>
                    <clip id="clip-1"/>
                  </angle>
                  <angle>
                    <activevideoangle>false</activevideoangle>
                    <activeaudioangle>false</activeaudioangle>
                    <clip id="clip-2"/>
                  </angle>
                  <angle>
                    <activevideoangle>true</activevideoangle>
                    <activeaudioangle>true</activeaudioangle>
                    <clip id="clip-3"/>
                  </angle>
                  <angle>
                    <activevideoangle>false</activevideoangle>
                    <activeaudioangle>false</activeaudioangle>
                    <clip id="clip-4"/>
                  </angle>
                  <angle>
                    <activevideoangle>false</activevideoangle>
                    <activeaudioangle>false</activeaudioangle>
                    <clip id="clip-5"/>
                  </angle>
                  <angle>
                    <activevideoangle>false</activevideoangle>
                    <activeaudioangle>false</activeaudioangle>
                    <clip id="clip-6"/>
                  </angle>
                  <angle>
                    <activevideoangle>false</activevideoangle>
                    <activeaudioangle>false</activeaudioangle>
                    <clip id="clip-7"/>
                  </angle>
                  <masterclipid>clip-master</masterclipid>
                </multiclip>
              </clipitem>
              <clipitem id="cs-83">
                <duration>45</duration>
                <rate>
                  <ntsc>false</ntsc>
                  <timebase>25</timebase>
                </rate>
                <in>6845</in>
                <out>6889</out>
                <start>6845</start>
                <end>6889</end>
                <file id="src-6"/>
                <sourcetrack>
                  <mediatype>video</mediatype>
                  <trackindex>1</trackindex>
                </sourcetrack>
                <multiclip id="mcs-83">
                  <name>MCS-83</name>
                  <masterclipid>clip-master</masterclipid>
                  <collapsed>false</collapsed>
                  <angle>
                    <activevideoangle>false</activevideoangle>
                    <activeaudioangle>false</activeaudioangle>
                    <clip id="clip-1"/>
                  </angle>
                  <angle>
                    <activevideoangle>false</activevideoangle>
                    <activeaudioangle>false</activeaudioangle>
                    <clip id="clip-2"/>
                  </angle>
                  <angle>
                    <activevideoangle>false</activevideoangle>
                    <activeaudioangle>false</activeaudioangle>
                    <clip id="clip-3"/>
                  </angle>
                  <angle>
                    <activevideoangle>false</activevideoangle>
                    <activeaudioangle>false</activeaudioangle>
                    <clip id="clip-4"/>
                  </angle>
                  <angle>
                    <activevideoangle>false</activevideoangle>
                    <activeaudioangle>false</activeaudioangle>
                    <clip id="clip-5"/>
                  </angle>
                  <angle>
                    <activevideoangle>true</activevideoangle>
                    <activeaudioangle>true</activeaudioangle>
                    <clip id="clip-6"/>
                  </angle>
                  <angle>
                    <activevideoangle>false</activevideoangle>
                    <activeaudioangle>false</activeaudioangle>
                    <clip id="clip-7"/>
                  </angle>
                  <masterclipid>clip-master</masterclipid>
                </multiclip>
              </clipitem>
              <clipitem id="cs-84">
                <duration>288</duration>
                <rate>
                  <ntsc>false</ntsc>
                  <timebase>25</timebase>
                </rate>
                <in>6889</in>
                <out>7176</out>
                <start>6889</start>
                <end>7176</end>
                <file id="src-2"/>
                <sourcetrack>
                  <mediatype>video</mediatype>
                  <trackindex>1</trackindex>
                </sourcetrack>
                <multiclip id="mcs-84">
                  <name>MCS-84</name>
                  <masterclipid>clip-master</masterclipid>
                  <collapsed>false</collapsed>
                  <angle>
                    <activevideoangle>false</activevideoangle>
                    <activeaudioangle>false</activeaudioangle>
                    <clip id="clip-1"/>
                  </angle>
                  <angle>
                    <activevideoangle>true</activevideoangle>
                    <activeaudioangle>true</activeaudioangle>
                    <clip id="clip-2"/>
                  </angle>
                  <angle>
                    <activevideoangle>false</activevideoangle>
                    <activeaudioangle>false</activeaudioangle>
                    <clip id="clip-3"/>
                  </angle>
                  <angle>
                    <activevideoangle>false</activevideoangle>
                    <activeaudioangle>false</activeaudioangle>
                    <clip id="clip-4"/>
                  </angle>
                  <angle>
                    <activevideoangle>false</activevideoangle>
                    <activeaudioangle>false</activeaudioangle>
                    <clip id="clip-5"/>
                  </angle>
                  <angle>
                    <activevideoangle>false</activevideoangle>
                    <activeaudioangle>false</activeaudioangle>
                    <clip id="clip-6"/>
                  </angle>
                  <angle>
                    <activevideoangle>false</activevideoangle>
                    <activeaudioangle>false</activeaudioangle>
                    <clip id="clip-7"/>
                  </angle>
                  <masterclipid>clip-master</masterclipid>
                </multiclip>
              </clipitem>
              <clipitem id="cs-85">
                <duration>67</duration>
                <rate>
                  <ntsc>false</ntsc>
                  <timebase>25</timebase>
                </rate>
                <in>7176</in>
                <out>7242</out>
                <start>7176</start>
                <end>7242</end>
                <file id="src-4"/>
                <sourcetrack>
                  <mediatype>video</mediatype>
                  <trackindex>1</trackindex>
                </sourcetrack>
                <multiclip id="mcs-85">
                  <name>MCS-85</name>
                  <masterclipid>clip-master</masterclipid>
                  <collapsed>false</collapsed>
                  <angle>
                    <activevideoangle>false</activevideoangle>
                    <activeaudioangle>false</activeaudioangle>
                    <clip id="clip-1"/>
                  </angle>
                  <angle>
                    <activevideoangle>false</activevideoangle>
                    <activeaudioangle>false</activeaudioangle>
                    <clip id="clip-2"/>
                  </angle>
                  <angle>
                    <activevideoangle>false</activevideoangle>
                    <activeaudioangle>false</activeaudioangle>
                    <clip id="clip-3"/>
                  </angle>
                  <angle>
                    <activevideoangle>true</activevideoangle>
                    <activeaudioangle>true</activeaudioangle>
                    <clip id="clip-4"/>
                  </angle>
                  <angle>
                    <activevideoangle>false</activevideoangle>
                    <activeaudioangle>false</activeaudioangle>
                    <clip id="clip-5"/>
                  </angle>
                  <angle>
                    <activevideoangle>false</activevideoangle>
                    <activeaudioangle>false</activeaudioangle>
                    <clip id="clip-6"/>
                  </angle>
                  <angle>
                    <activevideoangle>false</activevideoangle>
                    <activeaudioangle>false</activeaudioangle>
                    <clip id="clip-7"/>
                  </angle>
                  <masterclipid>clip-master</masterclipid>
                </multiclip>
              </clipitem>
              <clipitem id="cs-86">
                <duration>68</duration>
                <rate>
                  <ntsc>false</ntsc>
                  <timebase>25</timebase>
                </rate>
                <in>7242</in>
                <out>7309</out>
                <start>7242</start>
                <end>7309</end>
                <file id="src-6"/>
                <sourcetrack>
                  <mediatype>video</mediatype>
                  <trackindex>1</trackindex>
                </sourcetrack>
                <multiclip id="mcs-86">
                  <name>MCS-86</name>
                  <masterclipid>clip-master</masterclipid>
                  <collapsed>false</collapsed>
                  <angle>
                    <activevideoangle>false</activevideoangle>
                    <activeaudioangle>false</activeaudioangle>
                    <clip id="clip-1"/>
                  </angle>
                  <angle>
                    <activevideoangle>false</activevideoangle>
                    <activeaudioangle>false</activeaudioangle>
                    <clip id="clip-2"/>
                  </angle>
                  <angle>
                    <activevideoangle>false</activevideoangle>
                    <activeaudioangle>false</activeaudioangle>
                    <clip id="clip-3"/>
                  </angle>
                  <angle>
                    <activevideoangle>false</activevideoangle>
                    <activeaudioangle>false</activeaudioangle>
                    <clip id="clip-4"/>
                  </angle>
                  <angle>
                    <activevideoangle>false</activevideoangle>
                    <activeaudioangle>false</activeaudioangle>
                    <clip id="clip-5"/>
                  </angle>
                  <angle>
                    <activevideoangle>true</activevideoangle>
                    <activeaudioangle>true</activeaudioangle>
                    <clip id="clip-6"/>
                  </angle>
                  <angle>
                    <activevideoangle>false</activevideoangle>
                    <activeaudioangle>false</activeaudioangle>
                    <clip id="clip-7"/>
                  </angle>
                  <masterclipid>clip-master</masterclipid>
                </multiclip>
              </clipitem>
              <clipitem id="cs-87">
                <duration>97</duration>
                <rate>
                  <ntsc>false</ntsc>
                  <timebase>25</timebase>
                </rate>
                <in>7309</in>
                <out>7405</out>
                <start>7309</start>
                <end>7405</end>
                <file id="src-2"/>
                <sourcetrack>
                  <mediatype>video</mediatype>
                  <trackindex>1</trackindex>
                </sourcetrack>
                <multiclip id="mcs-87">
                  <name>MCS-87</name>
                  <masterclipid>clip-master</masterclipid>
                  <collapsed>false</collapsed>
                  <angle>
                    <activevideoangle>false</activevideoangle>
                    <activeaudioangle>false</activeaudioangle>
                    <clip id="clip-1"/>
                  </angle>
                  <angle>
                    <activevideoangle>true</activevideoangle>
                    <activeaudioangle>true</activeaudioangle>
                    <clip id="clip-2"/>
                  </angle>
                  <angle>
                    <activevideoangle>false</activevideoangle>
                    <activeaudioangle>false</activeaudioangle>
                    <clip id="clip-3"/>
                  </angle>
                  <angle>
                    <activevideoangle>false</activevideoangle>
                    <activeaudioangle>false</activeaudioangle>
                    <clip id="clip-4"/>
                  </angle>
                  <angle>
                    <activevideoangle>false</activevideoangle>
                    <activeaudioangle>false</activeaudioangle>
                    <clip id="clip-5"/>
                  </angle>
                  <angle>
                    <activevideoangle>false</activevideoangle>
                    <activeaudioangle>false</activeaudioangle>
                    <clip id="clip-6"/>
                  </angle>
                  <angle>
                    <activevideoangle>false</activevideoangle>
                    <activeaudioangle>false</activeaudioangle>
                    <clip id="clip-7"/>
                  </angle>
                  <masterclipid>clip-master</masterclipid>
                </multiclip>
              </clipitem>
              <clipitem id="cs-88">
                <duration>106</duration>
                <rate>
                  <ntsc>false</ntsc>
                  <timebase>25</timebase>
                </rate>
                <in>7405</in>
                <out>7510</out>
                <start>7405</start>
                <end>7510</end>
                <file id="src-3"/>
                <sourcetrack>
                  <mediatype>video</mediatype>
                  <trackindex>1</trackindex>
                </sourcetrack>
                <multiclip id="mcs-88">
                  <name>MCS-88</name>
                  <masterclipid>clip-master</masterclipid>
                  <collapsed>false</collapsed>
                  <angle>
                    <activevideoangle>false</activevideoangle>
                    <activeaudioangle>false</activeaudioangle>
                    <clip id="clip-1"/>
                  </angle>
                  <angle>
                    <activevideoangle>false</activevideoangle>
                    <activeaudioangle>false</activeaudioangle>
                    <clip id="clip-2"/>
                  </angle>
                  <angle>
                    <activevideoangle>true</activevideoangle>
                    <activeaudioangle>true</activeaudioangle>
                    <clip id="clip-3"/>
                  </angle>
                  <angle>
                    <activevideoangle>false</activevideoangle>
                    <activeaudioangle>false</activeaudioangle>
                    <clip id="clip-4"/>
                  </angle>
                  <angle>
                    <activevideoangle>false</activevideoangle>
                    <activeaudioangle>false</activeaudioangle>
                    <clip id="clip-5"/>
                  </angle>
                  <angle>
                    <activevideoangle>false</activevideoangle>
                    <activeaudioangle>false</activeaudioangle>
                    <clip id="clip-6"/>
                  </angle>
                  <angle>
                    <activevideoangle>false</activevideoangle>
                    <activeaudioangle>false</activeaudioangle>
                    <clip id="clip-7"/>
                  </angle>
                  <masterclipid>clip-master</masterclipid>
                </multiclip>
              </clipitem>
              <clipitem id="cs-89">
                <duration>81</duration>
                <rate>
                  <ntsc>false</ntsc>
                  <timebase>25</timebase>
                </rate>
                <in>7510</in>
                <out>7590</out>
                <start>7510</start>
                <end>7590</end>
                <file id="src-4"/>
                <sourcetrack>
                  <mediatype>video</mediatype>
                  <trackindex>1</trackindex>
                </sourcetrack>
                <multiclip id="mcs-89">
                  <name>MCS-89</name>
                  <masterclipid>clip-master</masterclipid>
                  <collapsed>false</collapsed>
                  <angle>
                    <activevideoangle>false</activevideoangle>
                    <activeaudioangle>false</activeaudioangle>
                    <clip id="clip-1"/>
                  </angle>
                  <angle>
                    <activevideoangle>false</activevideoangle>
                    <activeaudioangle>false</activeaudioangle>
                    <clip id="clip-2"/>
                  </angle>
                  <angle>
                    <activevideoangle>false</activevideoangle>
                    <activeaudioangle>false</activeaudioangle>
                    <clip id="clip-3"/>
                  </angle>
                  <angle>
                    <activevideoangle>true</activevideoangle>
                    <activeaudioangle>true</activeaudioangle>
                    <clip id="clip-4"/>
                  </angle>
                  <angle>
                    <activevideoangle>false</activevideoangle>
                    <activeaudioangle>false</activeaudioangle>
                    <clip id="clip-5"/>
                  </angle>
                  <angle>
                    <activevideoangle>false</activevideoangle>
                    <activeaudioangle>false</activeaudioangle>
                    <clip id="clip-6"/>
                  </angle>
                  <angle>
                    <activevideoangle>false</activevideoangle>
                    <activeaudioangle>false</activeaudioangle>
                    <clip id="clip-7"/>
                  </angle>
                  <masterclipid>clip-master</masterclipid>
                </multiclip>
              </clipitem>
              <clipitem id="cs-90">
                <duration>132</duration>
                <rate>
                  <ntsc>false</ntsc>
                  <timebase>25</timebase>
                </rate>
                <in>7590</in>
                <out>7721</out>
                <start>7590</start>
                <end>7721</end>
                <file id="src-3"/>
                <sourcetrack>
                  <mediatype>video</mediatype>
                  <trackindex>1</trackindex>
                </sourcetrack>
                <multiclip id="mcs-90">
                  <name>MCS-90</name>
                  <masterclipid>clip-master</masterclipid>
                  <collapsed>false</collapsed>
                  <angle>
                    <activevideoangle>false</activevideoangle>
                    <activeaudioangle>false</activeaudioangle>
                    <clip id="clip-1"/>
                  </angle>
                  <angle>
                    <activevideoangle>false</activevideoangle>
                    <activeaudioangle>false</activeaudioangle>
                    <clip id="clip-2"/>
                  </angle>
                  <angle>
                    <activevideoangle>true</activevideoangle>
                    <activeaudioangle>true</activeaudioangle>
                    <clip id="clip-3"/>
                  </angle>
                  <angle>
                    <activevideoangle>false</activevideoangle>
                    <activeaudioangle>false</activeaudioangle>
                    <clip id="clip-4"/>
                  </angle>
                  <angle>
                    <activevideoangle>false</activevideoangle>
                    <activeaudioangle>false</activeaudioangle>
                    <clip id="clip-5"/>
                  </angle>
                  <angle>
                    <activevideoangle>false</activevideoangle>
                    <activeaudioangle>false</activeaudioangle>
                    <clip id="clip-6"/>
                  </angle>
                  <angle>
                    <activevideoangle>false</activevideoangle>
                    <activeaudioangle>false</activeaudioangle>
                    <clip id="clip-7"/>
                  </angle>
                  <masterclipid>clip-master</masterclipid>
                </multiclip>
              </clipitem>
              <clipitem id="cs-91">
                <duration>59</duration>
                <rate>
                  <ntsc>false</ntsc>
                  <timebase>25</timebase>
                </rate>
                <in>7721</in>
                <out>7779</out>
                <start>7721</start>
                <end>7779</end>
                <file id="src-1"/>
                <sourcetrack>
                  <mediatype>video</mediatype>
                  <trackindex>1</trackindex>
                </sourcetrack>
                <multiclip id="mcs-91">
                  <name>MCS-91</name>
                  <masterclipid>clip-master</masterclipid>
                  <collapsed>false</collapsed>
                  <angle>
                    <activevideoangle>true</activevideoangle>
                    <activeaudioangle>true</activeaudioangle>
                    <clip id="clip-1"/>
                  </angle>
                  <angle>
                    <activevideoangle>false</activevideoangle>
                    <activeaudioangle>false</activeaudioangle>
                    <clip id="clip-2"/>
                  </angle>
                  <angle>
                    <activevideoangle>false</activevideoangle>
                    <activeaudioangle>false</activeaudioangle>
                    <clip id="clip-3"/>
                  </angle>
                  <angle>
                    <activevideoangle>false</activevideoangle>
                    <activeaudioangle>false</activeaudioangle>
                    <clip id="clip-4"/>
                  </angle>
                  <angle>
                    <activevideoangle>false</activevideoangle>
                    <activeaudioangle>false</activeaudioangle>
                    <clip id="clip-5"/>
                  </angle>
                  <angle>
                    <activevideoangle>false</activevideoangle>
                    <activeaudioangle>false</activeaudioangle>
                    <clip id="clip-6"/>
                  </angle>
                  <angle>
                    <activevideoangle>false</activevideoangle>
                    <activeaudioangle>false</activeaudioangle>
                    <clip id="clip-7"/>
                  </angle>
                  <masterclipid>clip-master</masterclipid>
                </multiclip>
              </clipitem>
              <clipitem id="cs-92">
                <duration>127</duration>
                <rate>
                  <ntsc>false</ntsc>
                  <timebase>25</timebase>
                </rate>
                <in>7779</in>
                <out>7905</out>
                <start>7779</start>
                <end>7905</end>
                <file id="src-2"/>
                <sourcetrack>
                  <mediatype>video</mediatype>
                  <trackindex>1</trackindex>
                </sourcetrack>
                <multiclip id="mcs-92">
                  <name>MCS-92</name>
                  <masterclipid>clip-master</masterclipid>
                  <collapsed>false</collapsed>
                  <angle>
                    <activevideoangle>false</activevideoangle>
                    <activeaudioangle>false</activeaudioangle>
                    <clip id="clip-1"/>
                  </angle>
                  <angle>
                    <activevideoangle>true</activevideoangle>
                    <activeaudioangle>true</activeaudioangle>
                    <clip id="clip-2"/>
                  </angle>
                  <angle>
                    <activevideoangle>false</activevideoangle>
                    <activeaudioangle>false</activeaudioangle>
                    <clip id="clip-3"/>
                  </angle>
                  <angle>
                    <activevideoangle>false</activevideoangle>
                    <activeaudioangle>false</activeaudioangle>
                    <clip id="clip-4"/>
                  </angle>
                  <angle>
                    <activevideoangle>false</activevideoangle>
                    <activeaudioangle>false</activeaudioangle>
                    <clip id="clip-5"/>
                  </angle>
                  <angle>
                    <activevideoangle>false</activevideoangle>
                    <activeaudioangle>false</activeaudioangle>
                    <clip id="clip-6"/>
                  </angle>
                  <angle>
                    <activevideoangle>false</activevideoangle>
                    <activeaudioangle>false</activeaudioangle>
                    <clip id="clip-7"/>
                  </angle>
                  <masterclipid>clip-master</masterclipid>
                </multiclip>
              </clipitem>
              <clipitem id="cs-93">
                <duration>135</duration>
                <rate>
                  <ntsc>false</ntsc>
                  <timebase>25</timebase>
                </rate>
                <in>7905</in>
                <out>8039</out>
                <start>7905</start>
                <end>8039</end>
                <file id="src-3"/>
                <sourcetrack>
                  <mediatype>video</mediatype>
                  <trackindex>1</trackindex>
                </sourcetrack>
                <multiclip id="mcs-93">
                  <name>MCS-93</name>
                  <masterclipid>clip-master</masterclipid>
                  <collapsed>false</collapsed>
                  <angle>
                    <activevideoangle>false</activevideoangle>
                    <activeaudioangle>false</activeaudioangle>
                    <clip id="clip-1"/>
                  </angle>
                  <angle>
                    <activevideoangle>false</activevideoangle>
                    <activeaudioangle>false</activeaudioangle>
                    <clip id="clip-2"/>
                  </angle>
                  <angle>
                    <activevideoangle>true</activevideoangle>
                    <activeaudioangle>true</activeaudioangle>
                    <clip id="clip-3"/>
                  </angle>
                  <angle>
                    <activevideoangle>false</activevideoangle>
                    <activeaudioangle>false</activeaudioangle>
                    <clip id="clip-4"/>
                  </angle>
                  <angle>
                    <activevideoangle>false</activevideoangle>
                    <activeaudioangle>false</activeaudioangle>
                    <clip id="clip-5"/>
                  </angle>
                  <angle>
                    <activevideoangle>false</activevideoangle>
                    <activeaudioangle>false</activeaudioangle>
                    <clip id="clip-6"/>
                  </angle>
                  <angle>
                    <activevideoangle>false</activevideoangle>
                    <activeaudioangle>false</activeaudioangle>
                    <clip id="clip-7"/>
                  </angle>
                  <masterclipid>clip-master</masterclipid>
                </multiclip>
              </clipitem>
              <clipitem id="cs-94">
                <duration>99</duration>
                <rate>
                  <ntsc>false</ntsc>
                  <timebase>25</timebase>
                </rate>
                <in>8039</in>
                <out>8137</out>
                <start>8039</start>
                <end>8137</end>
                <file id="src-2"/>
                <sourcetrack>
                  <mediatype>video</mediatype>
                  <trackindex>1</trackindex>
                </sourcetrack>
                <multiclip id="mcs-94">
                  <name>MCS-94</name>
                  <masterclipid>clip-master</masterclipid>
                  <collapsed>false</collapsed>
                  <angle>
                    <activevideoangle>false</activevideoangle>
                    <activeaudioangle>false</activeaudioangle>
                    <clip id="clip-1"/>
                  </angle>
                  <angle>
                    <activevideoangle>true</activevideoangle>
                    <activeaudioangle>true</activeaudioangle>
                    <clip id="clip-2"/>
                  </angle>
                  <angle>
                    <activevideoangle>false</activevideoangle>
                    <activeaudioangle>false</activeaudioangle>
                    <clip id="clip-3"/>
                  </angle>
                  <angle>
                    <activevideoangle>false</activevideoangle>
                    <activeaudioangle>false</activeaudioangle>
                    <clip id="clip-4"/>
                  </angle>
                  <angle>
                    <activevideoangle>false</activevideoangle>
                    <activeaudioangle>false</activeaudioangle>
                    <clip id="clip-5"/>
                  </angle>
                  <angle>
                    <activevideoangle>false</activevideoangle>
                    <activeaudioangle>false</activeaudioangle>
                    <clip id="clip-6"/>
                  </angle>
                  <angle>
                    <activevideoangle>false</activevideoangle>
                    <activeaudioangle>false</activeaudioangle>
                    <clip id="clip-7"/>
                  </angle>
                  <masterclipid>clip-master</masterclipid>
                </multiclip>
              </clipitem>
              <clipitem id="cs-95">
                <duration>66</duration>
                <rate>
                  <ntsc>false</ntsc>
                  <timebase>25</timebase>
                </rate>
                <in>8137</in>
                <out>8202</out>
                <start>8137</start>
                <end>8202</end>
                <file id="src-6"/>
                <sourcetrack>
                  <mediatype>video</mediatype>
                  <trackindex>1</trackindex>
                </sourcetrack>
                <multiclip id="mcs-95">
                  <name>MCS-95</name>
                  <masterclipid>clip-master</masterclipid>
                  <collapsed>false</collapsed>
                  <angle>
                    <activevideoangle>false</activevideoangle>
                    <activeaudioangle>false</activeaudioangle>
                    <clip id="clip-1"/>
                  </angle>
                  <angle>
                    <activevideoangle>false</activevideoangle>
                    <activeaudioangle>false</activeaudioangle>
                    <clip id="clip-2"/>
                  </angle>
                  <angle>
                    <activevideoangle>false</activevideoangle>
                    <activeaudioangle>false</activeaudioangle>
                    <clip id="clip-3"/>
                  </angle>
                  <angle>
                    <activevideoangle>false</activevideoangle>
                    <activeaudioangle>false</activeaudioangle>
                    <clip id="clip-4"/>
                  </angle>
                  <angle>
                    <activevideoangle>false</activevideoangle>
                    <activeaudioangle>false</activeaudioangle>
                    <clip id="clip-5"/>
                  </angle>
                  <angle>
                    <activevideoangle>true</activevideoangle>
                    <activeaudioangle>true</activeaudioangle>
                    <clip id="clip-6"/>
                  </angle>
                  <angle>
                    <activevideoangle>false</activevideoangle>
                    <activeaudioangle>false</activeaudioangle>
                    <clip id="clip-7"/>
                  </angle>
                  <masterclipid>clip-master</masterclipid>
                </multiclip>
              </clipitem>
              <clipitem id="cs-96">
                <duration>97</duration>
                <rate>
                  <ntsc>false</ntsc>
                  <timebase>25</timebase>
                </rate>
                <in>8202</in>
                <out>8298</out>
                <start>8202</start>
                <end>8298</end>
                <file id="src-3"/>
                <sourcetrack>
                  <mediatype>video</mediatype>
                  <trackindex>1</trackindex>
                </sourcetrack>
                <multiclip id="mcs-96">
                  <name>MCS-96</name>
                  <masterclipid>clip-master</masterclipid>
                  <collapsed>false</collapsed>
                  <angle>
                    <activevideoangle>false</activevideoangle>
                    <activeaudioangle>false</activeaudioangle>
                    <clip id="clip-1"/>
                  </angle>
                  <angle>
                    <activevideoangle>false</activevideoangle>
                    <activeaudioangle>false</activeaudioangle>
                    <clip id="clip-2"/>
                  </angle>
                  <angle>
                    <activevideoangle>true</activevideoangle>
                    <activeaudioangle>true</activeaudioangle>
                    <clip id="clip-3"/>
                  </angle>
                  <angle>
                    <activevideoangle>false</activevideoangle>
                    <activeaudioangle>false</activeaudioangle>
                    <clip id="clip-4"/>
                  </angle>
                  <angle>
                    <activevideoangle>false</activevideoangle>
                    <activeaudioangle>false</activeaudioangle>
                    <clip id="clip-5"/>
                  </angle>
                  <angle>
                    <activevideoangle>false</activevideoangle>
                    <activeaudioangle>false</activeaudioangle>
                    <clip id="clip-6"/>
                  </angle>
                  <angle>
                    <activevideoangle>false</activevideoangle>
                    <activeaudioangle>false</activeaudioangle>
                    <clip id="clip-7"/>
                  </angle>
                  <masterclipid>clip-master</masterclipid>
                </multiclip>
              </clipitem>
              <clipitem id="cs-97">
                <duration>109</duration>
                <rate>
                  <ntsc>false</ntsc>
                  <timebase>25</timebase>
                </rate>
                <in>8298</in>
                <out>8406</out>
                <start>8298</start>
                <end>8406</end>
                <file id="src-4"/>
                <sourcetrack>
                  <mediatype>video</mediatype>
                  <trackindex>1</trackindex>
                </sourcetrack>
                <multiclip id="mcs-97">
                  <name>MCS-97</name>
                  <masterclipid>clip-master</masterclipid>
                  <collapsed>false</collapsed>
                  <angle>
                    <activevideoangle>false</activevideoangle>
                    <activeaudioangle>false</activeaudioangle>
                    <clip id="clip-1"/>
                  </angle>
                  <angle>
                    <activevideoangle>false</activevideoangle>
                    <activeaudioangle>false</activeaudioangle>
                    <clip id="clip-2"/>
                  </angle>
                  <angle>
                    <activevideoangle>false</activevideoangle>
                    <activeaudioangle>false</activeaudioangle>
                    <clip id="clip-3"/>
                  </angle>
                  <angle>
                    <activevideoangle>true</activevideoangle>
                    <activeaudioangle>true</activeaudioangle>
                    <clip id="clip-4"/>
                  </angle>
                  <angle>
                    <activevideoangle>false</activevideoangle>
                    <activeaudioangle>false</activeaudioangle>
                    <clip id="clip-5"/>
                  </angle>
                  <angle>
                    <activevideoangle>false</activevideoangle>
                    <activeaudioangle>false</activeaudioangle>
                    <clip id="clip-6"/>
                  </angle>
                  <angle>
                    <activevideoangle>false</activevideoangle>
                    <activeaudioangle>false</activeaudioangle>
                    <clip id="clip-7"/>
                  </angle>
                  <masterclipid>clip-master</masterclipid>
                </multiclip>
              </clipitem>
              <clipitem id="cs-98">
                <duration>74</duration>
                <rate>
                  <ntsc>false</ntsc>
                  <timebase>25</timebase>
                </rate>
                <in>8406</in>
                <out>8479</out>
                <start>8406</start>
                <end>8479</end>
                <file id="src-2"/>
                <sourcetrack>
                  <mediatype>video</mediatype>
                  <trackindex>1</trackindex>
                </sourcetrack>
                <multiclip id="mcs-98">
                  <name>MCS-98</name>
                  <masterclipid>clip-master</masterclipid>
                  <collapsed>false</collapsed>
                  <angle>
                    <activevideoangle>false</activevideoangle>
                    <activeaudioangle>false</activeaudioangle>
                    <clip id="clip-1"/>
                  </angle>
                  <angle>
                    <activevideoangle>true</activevideoangle>
                    <activeaudioangle>true</activeaudioangle>
                    <clip id="clip-2"/>
                  </angle>
                  <angle>
                    <activevideoangle>false</activevideoangle>
                    <activeaudioangle>false</activeaudioangle>
                    <clip id="clip-3"/>
                  </angle>
                  <angle>
                    <activevideoangle>false</activevideoangle>
                    <activeaudioangle>false</activeaudioangle>
                    <clip id="clip-4"/>
                  </angle>
                  <angle>
                    <activevideoangle>false</activevideoangle>
                    <activeaudioangle>false</activeaudioangle>
                    <clip id="clip-5"/>
                  </angle>
                  <angle>
                    <activevideoangle>false</activevideoangle>
                    <activeaudioangle>false</activeaudioangle>
                    <clip id="clip-6"/>
                  </angle>
                  <angle>
                    <activevideoangle>false</activevideoangle>
                    <activeaudioangle>false</activeaudioangle>
                    <clip id="clip-7"/>
                  </angle>
                  <masterclipid>clip-master</masterclipid>
                </multiclip>
              </clipitem>
              <clipitem id="cs-99">
                <duration>97</duration>
                <rate>
                  <ntsc>false</ntsc>
                  <timebase>25</timebase>
                </rate>
                <in>8479</in>
                <out>8575</out>
                <start>8479</start>
                <end>8575</end>
                <file id="src-3"/>
                <sourcetrack>
                  <mediatype>video</mediatype>
                  <trackindex>1</trackindex>
                </sourcetrack>
                <multiclip id="mcs-99">
                  <name>MCS-99</name>
                  <masterclipid>clip-master</masterclipid>
                  <collapsed>false</collapsed>
                  <angle>
                    <activevideoangle>false</activevideoangle>
                    <activeaudioangle>false</activeaudioangle>
                    <clip id="clip-1"/>
                  </angle>
                  <angle>
                    <activevideoangle>false</activevideoangle>
                    <activeaudioangle>false</activeaudioangle>
                    <clip id="clip-2"/>
                  </angle>
                  <angle>
                    <activevideoangle>true</activevideoangle>
                    <activeaudioangle>true</activeaudioangle>
                    <clip id="clip-3"/>
                  </angle>
                  <angle>
                    <activevideoangle>false</activevideoangle>
                    <activeaudioangle>false</activeaudioangle>
                    <clip id="clip-4"/>
                  </angle>
                  <angle>
                    <activevideoangle>false</activevideoangle>
                    <activeaudioangle>false</activeaudioangle>
                    <clip id="clip-5"/>
                  </angle>
                  <angle>
                    <activevideoangle>false</activevideoangle>
                    <activeaudioangle>false</activeaudioangle>
                    <clip id="clip-6"/>
                  </angle>
                  <angle>
                    <activevideoangle>false</activevideoangle>
                    <activeaudioangle>false</activeaudioangle>
                    <clip id="clip-7"/>
                  </angle>
                  <masterclipid>clip-master</masterclipid>
                </multiclip>
              </clipitem>
              <clipitem id="cs-100">
                <duration>105</duration>
                <rate>
                  <ntsc>false</ntsc>
                  <timebase>25</timebase>
                </rate>
                <in>8575</in>
                <out>8679</out>
                <start>8575</start>
                <end>8679</end>
                <file id="src-2"/>
                <sourcetrack>
                  <mediatype>video</mediatype>
                  <trackindex>1</trackindex>
                </sourcetrack>
                <multiclip id="mcs-100">
                  <name>MCS-100</name>
                  <masterclipid>clip-master</masterclipid>
                  <collapsed>false</collapsed>
                  <angle>
                    <activevideoangle>false</activevideoangle>
                    <activeaudioangle>false</activeaudioangle>
                    <clip id="clip-1"/>
                  </angle>
                  <angle>
                    <activevideoangle>true</activevideoangle>
                    <activeaudioangle>true</activeaudioangle>
                    <clip id="clip-2"/>
                  </angle>
                  <angle>
                    <activevideoangle>false</activevideoangle>
                    <activeaudioangle>false</activeaudioangle>
                    <clip id="clip-3"/>
                  </angle>
                  <angle>
                    <activevideoangle>false</activevideoangle>
                    <activeaudioangle>false</activeaudioangle>
                    <clip id="clip-4"/>
                  </angle>
                  <angle>
                    <activevideoangle>false</activevideoangle>
                    <activeaudioangle>false</activeaudioangle>
                    <clip id="clip-5"/>
                  </angle>
                  <angle>
                    <activevideoangle>false</activevideoangle>
                    <activeaudioangle>false</activeaudioangle>
                    <clip id="clip-6"/>
                  </angle>
                  <angle>
                    <activevideoangle>false</activevideoangle>
                    <activeaudioangle>false</activeaudioangle>
                    <clip id="clip-7"/>
                  </angle>
                  <masterclipid>clip-master</masterclipid>
                </multiclip>
              </clipitem>
              <clipitem id="cs-101">
                <duration>105</duration>
                <rate>
                  <ntsc>false</ntsc>
                  <timebase>25</timebase>
                </rate>
                <in>8679</in>
                <out>8783</out>
                <start>8679</start>
                <end>8783</end>
                <file id="src-1"/>
                <sourcetrack>
                  <mediatype>video</mediatype>
                  <trackindex>1</trackindex>
                </sourcetrack>
                <multiclip id="mcs-101">
                  <name>MCS-101</name>
                  <masterclipid>clip-master</masterclipid>
                  <collapsed>false</collapsed>
                  <angle>
                    <activevideoangle>true</activevideoangle>
                    <activeaudioangle>true</activeaudioangle>
                    <clip id="clip-1"/>
                  </angle>
                  <angle>
                    <activevideoangle>false</activevideoangle>
                    <activeaudioangle>false</activeaudioangle>
                    <clip id="clip-2"/>
                  </angle>
                  <angle>
                    <activevideoangle>false</activevideoangle>
                    <activeaudioangle>false</activeaudioangle>
                    <clip id="clip-3"/>
                  </angle>
                  <angle>
                    <activevideoangle>false</activevideoangle>
                    <activeaudioangle>false</activeaudioangle>
                    <clip id="clip-4"/>
                  </angle>
                  <angle>
                    <activevideoangle>false</activevideoangle>
                    <activeaudioangle>false</activeaudioangle>
                    <clip id="clip-5"/>
                  </angle>
                  <angle>
                    <activevideoangle>false</activevideoangle>
                    <activeaudioangle>false</activeaudioangle>
                    <clip id="clip-6"/>
                  </angle>
                  <angle>
                    <activevideoangle>false</activevideoangle>
                    <activeaudioangle>false</activeaudioangle>
                    <clip id="clip-7"/>
                  </angle>
                  <masterclipid>clip-master</masterclipid>
                </multiclip>
              </clipitem>
              <clipitem id="cs-102">
                <duration>67</duration>
                <rate>
                  <ntsc>false</ntsc>
                  <timebase>25</timebase>
                </rate>
                <in>8783</in>
                <out>8849</out>
                <start>8783</start>
                <end>8849</end>
                <file id="src-6"/>
                <sourcetrack>
                  <mediatype>video</mediatype>
                  <trackindex>1</trackindex>
                </sourcetrack>
                <multiclip id="mcs-102">
                  <name>MCS-102</name>
                  <masterclipid>clip-master</masterclipid>
                  <collapsed>false</collapsed>
                  <angle>
                    <activevideoangle>false</activevideoangle>
                    <activeaudioangle>false</activeaudioangle>
                    <clip id="clip-1"/>
                  </angle>
                  <angle>
                    <activevideoangle>false</activevideoangle>
                    <activeaudioangle>false</activeaudioangle>
                    <clip id="clip-2"/>
                  </angle>
                  <angle>
                    <activevideoangle>false</activevideoangle>
                    <activeaudioangle>false</activeaudioangle>
                    <clip id="clip-3"/>
                  </angle>
                  <angle>
                    <activevideoangle>false</activevideoangle>
                    <activeaudioangle>false</activeaudioangle>
                    <clip id="clip-4"/>
                  </angle>
                  <angle>
                    <activevideoangle>false</activevideoangle>
                    <activeaudioangle>false</activeaudioangle>
                    <clip id="clip-5"/>
                  </angle>
                  <angle>
                    <activevideoangle>true</activevideoangle>
                    <activeaudioangle>true</activeaudioangle>
                    <clip id="clip-6"/>
                  </angle>
                  <angle>
                    <activevideoangle>false</activevideoangle>
                    <activeaudioangle>false</activeaudioangle>
                    <clip id="clip-7"/>
                  </angle>
                  <masterclipid>clip-master</masterclipid>
                </multiclip>
              </clipitem>
              <clipitem id="cs-103">
                <duration>145</duration>
                <rate>
                  <ntsc>false</ntsc>
                  <timebase>25</timebase>
                </rate>
                <in>8849</in>
                <out>8993</out>
                <start>8849</start>
                <end>8993</end>
                <file id="src-3"/>
                <sourcetrack>
                  <mediatype>video</mediatype>
                  <trackindex>1</trackindex>
                </sourcetrack>
                <multiclip id="mcs-103">
                  <name>MCS-103</name>
                  <masterclipid>clip-master</masterclipid>
                  <collapsed>false</collapsed>
                  <angle>
                    <activevideoangle>false</activevideoangle>
                    <activeaudioangle>false</activeaudioangle>
                    <clip id="clip-1"/>
                  </angle>
                  <angle>
                    <activevideoangle>false</activevideoangle>
                    <activeaudioangle>false</activeaudioangle>
                    <clip id="clip-2"/>
                  </angle>
                  <angle>
                    <activevideoangle>true</activevideoangle>
                    <activeaudioangle>true</activeaudioangle>
                    <clip id="clip-3"/>
                  </angle>
                  <angle>
                    <activevideoangle>false</activevideoangle>
                    <activeaudioangle>false</activeaudioangle>
                    <clip id="clip-4"/>
                  </angle>
                  <angle>
                    <activevideoangle>false</activevideoangle>
                    <activeaudioangle>false</activeaudioangle>
                    <clip id="clip-5"/>
                  </angle>
                  <angle>
                    <activevideoangle>false</activevideoangle>
                    <activeaudioangle>false</activeaudioangle>
                    <clip id="clip-6"/>
                  </angle>
                  <angle>
                    <activevideoangle>false</activevideoangle>
                    <activeaudioangle>false</activeaudioangle>
                    <clip id="clip-7"/>
                  </angle>
                  <masterclipid>clip-master</masterclipid>
                </multiclip>
              </clipitem>
              <clipitem id="cs-104">
                <duration>137</duration>
                <rate>
                  <ntsc>false</ntsc>
                  <timebase>25</timebase>
                </rate>
                <in>8993</in>
                <out>9129</out>
                <start>8993</start>
                <end>9129</end>
                <file id="src-4"/>
                <sourcetrack>
                  <mediatype>video</mediatype>
                  <trackindex>1</trackindex>
                </sourcetrack>
                <multiclip id="mcs-104">
                  <name>MCS-104</name>
                  <masterclipid>clip-master</masterclipid>
                  <collapsed>false</collapsed>
                  <angle>
                    <activevideoangle>false</activevideoangle>
                    <activeaudioangle>false</activeaudioangle>
                    <clip id="clip-1"/>
                  </angle>
                  <angle>
                    <activevideoangle>false</activevideoangle>
                    <activeaudioangle>false</activeaudioangle>
                    <clip id="clip-2"/>
                  </angle>
                  <angle>
                    <activevideoangle>false</activevideoangle>
                    <activeaudioangle>false</activeaudioangle>
                    <clip id="clip-3"/>
                  </angle>
                  <angle>
                    <activevideoangle>true</activevideoangle>
                    <activeaudioangle>true</activeaudioangle>
                    <clip id="clip-4"/>
                  </angle>
                  <angle>
                    <activevideoangle>false</activevideoangle>
                    <activeaudioangle>false</activeaudioangle>
                    <clip id="clip-5"/>
                  </angle>
                  <angle>
                    <activevideoangle>false</activevideoangle>
                    <activeaudioangle>false</activeaudioangle>
                    <clip id="clip-6"/>
                  </angle>
                  <angle>
                    <activevideoangle>false</activevideoangle>
                    <activeaudioangle>false</activeaudioangle>
                    <clip id="clip-7"/>
                  </angle>
                  <masterclipid>clip-master</masterclipid>
                </multiclip>
              </clipitem>
              <clipitem id="cs-105">
                <duration>73</duration>
                <rate>
                  <ntsc>false</ntsc>
                  <timebase>25</timebase>
                </rate>
                <in>9129</in>
                <out>9201</out>
                <start>9129</start>
                <end>9201</end>
                <file id="src-6"/>
                <sourcetrack>
                  <mediatype>video</mediatype>
                  <trackindex>1</trackindex>
                </sourcetrack>
                <multiclip id="mcs-105">
                  <name>MCS-105</name>
                  <masterclipid>clip-master</masterclipid>
                  <collapsed>false</collapsed>
                  <angle>
                    <activevideoangle>false</activevideoangle>
                    <activeaudioangle>false</activeaudioangle>
                    <clip id="clip-1"/>
                  </angle>
                  <angle>
                    <activevideoangle>false</activevideoangle>
                    <activeaudioangle>false</activeaudioangle>
                    <clip id="clip-2"/>
                  </angle>
                  <angle>
                    <activevideoangle>false</activevideoangle>
                    <activeaudioangle>false</activeaudioangle>
                    <clip id="clip-3"/>
                  </angle>
                  <angle>
                    <activevideoangle>false</activevideoangle>
                    <activeaudioangle>false</activeaudioangle>
                    <clip id="clip-4"/>
                  </angle>
                  <angle>
                    <activevideoangle>false</activevideoangle>
                    <activeaudioangle>false</activeaudioangle>
                    <clip id="clip-5"/>
                  </angle>
                  <angle>
                    <activevideoangle>true</activevideoangle>
                    <activeaudioangle>true</activeaudioangle>
                    <clip id="clip-6"/>
                  </angle>
                  <angle>
                    <activevideoangle>false</activevideoangle>
                    <activeaudioangle>false</activeaudioangle>
                    <clip id="clip-7"/>
                  </angle>
                  <masterclipid>clip-master</masterclipid>
                </multiclip>
              </clipitem>
              <clipitem id="cs-106">
                <duration>93</duration>
                <rate>
                  <ntsc>false</ntsc>
                  <timebase>25</timebase>
                </rate>
                <in>9201</in>
                <out>9293</out>
                <start>9201</start>
                <end>9293</end>
                <file id="src-3"/>
                <sourcetrack>
                  <mediatype>video</mediatype>
                  <trackindex>1</trackindex>
                </sourcetrack>
                <multiclip id="mcs-106">
                  <name>MCS-106</name>
                  <masterclipid>clip-master</masterclipid>
                  <collapsed>false</collapsed>
                  <angle>
                    <activevideoangle>false</activevideoangle>
                    <activeaudioangle>false</activeaudioangle>
                    <clip id="clip-1"/>
                  </angle>
                  <angle>
                    <activevideoangle>false</activevideoangle>
                    <activeaudioangle>false</activeaudioangle>
                    <clip id="clip-2"/>
                  </angle>
                  <angle>
                    <activevideoangle>true</activevideoangle>
                    <activeaudioangle>true</activeaudioangle>
                    <clip id="clip-3"/>
                  </angle>
                  <angle>
                    <activevideoangle>false</activevideoangle>
                    <activeaudioangle>false</activeaudioangle>
                    <clip id="clip-4"/>
                  </angle>
                  <angle>
                    <activevideoangle>false</activevideoangle>
                    <activeaudioangle>false</activeaudioangle>
                    <clip id="clip-5"/>
                  </angle>
                  <angle>
                    <activevideoangle>false</activevideoangle>
                    <activeaudioangle>false</activeaudioangle>
                    <clip id="clip-6"/>
                  </angle>
                  <angle>
                    <activevideoangle>false</activevideoangle>
                    <activeaudioangle>false</activeaudioangle>
                    <clip id="clip-7"/>
                  </angle>
                  <masterclipid>clip-master</masterclipid>
                </multiclip>
              </clipitem>
              <clipitem id="cs-107">
                <duration>129</duration>
                <rate>
                  <ntsc>false</ntsc>
                  <timebase>25</timebase>
                </rate>
                <in>9293</in>
                <out>9421</out>
                <start>9293</start>
                <end>9421</end>
                <file id="src-4"/>
                <sourcetrack>
                  <mediatype>video</mediatype>
                  <trackindex>1</trackindex>
                </sourcetrack>
                <multiclip id="mcs-107">
                  <name>MCS-107</name>
                  <masterclipid>clip-master</masterclipid>
                  <collapsed>false</collapsed>
                  <angle>
                    <activevideoangle>false</activevideoangle>
                    <activeaudioangle>false</activeaudioangle>
                    <clip id="clip-1"/>
                  </angle>
                  <angle>
                    <activevideoangle>false</activevideoangle>
                    <activeaudioangle>false</activeaudioangle>
                    <clip id="clip-2"/>
                  </angle>
                  <angle>
                    <activevideoangle>false</activevideoangle>
                    <activeaudioangle>false</activeaudioangle>
                    <clip id="clip-3"/>
                  </angle>
                  <angle>
                    <activevideoangle>true</activevideoangle>
                    <activeaudioangle>true</activeaudioangle>
                    <clip id="clip-4"/>
                  </angle>
                  <angle>
                    <activevideoangle>false</activevideoangle>
                    <activeaudioangle>false</activeaudioangle>
                    <clip id="clip-5"/>
                  </angle>
                  <angle>
                    <activevideoangle>false</activevideoangle>
                    <activeaudioangle>false</activeaudioangle>
                    <clip id="clip-6"/>
                  </angle>
                  <angle>
                    <activevideoangle>false</activevideoangle>
                    <activeaudioangle>false</activeaudioangle>
                    <clip id="clip-7"/>
                  </angle>
                  <masterclipid>clip-master</masterclipid>
                </multiclip>
              </clipitem>
              <clipitem id="cs-108">
                <duration>114</duration>
                <rate>
                  <ntsc>false</ntsc>
                  <timebase>25</timebase>
                </rate>
                <in>9421</in>
                <out>9534</out>
                <start>9421</start>
                <end>9534</end>
                <file id="src-2"/>
                <sourcetrack>
                  <mediatype>video</mediatype>
                  <trackindex>1</trackindex>
                </sourcetrack>
                <multiclip id="mcs-108">
                  <name>MCS-108</name>
                  <masterclipid>clip-master</masterclipid>
                  <collapsed>false</collapsed>
                  <angle>
                    <activevideoangle>false</activevideoangle>
                    <activeaudioangle>false</activeaudioangle>
                    <clip id="clip-1"/>
                  </angle>
                  <angle>
                    <activevideoangle>true</activevideoangle>
                    <activeaudioangle>true</activeaudioangle>
                    <clip id="clip-2"/>
                  </angle>
                  <angle>
                    <activevideoangle>false</activevideoangle>
                    <activeaudioangle>false</activeaudioangle>
                    <clip id="clip-3"/>
                  </angle>
                  <angle>
                    <activevideoangle>false</activevideoangle>
                    <activeaudioangle>false</activeaudioangle>
                    <clip id="clip-4"/>
                  </angle>
                  <angle>
                    <activevideoangle>false</activevideoangle>
                    <activeaudioangle>false</activeaudioangle>
                    <clip id="clip-5"/>
                  </angle>
                  <angle>
                    <activevideoangle>false</activevideoangle>
                    <activeaudioangle>false</activeaudioangle>
                    <clip id="clip-6"/>
                  </angle>
                  <angle>
                    <activevideoangle>false</activevideoangle>
                    <activeaudioangle>false</activeaudioangle>
                    <clip id="clip-7"/>
                  </angle>
                  <masterclipid>clip-master</masterclipid>
                </multiclip>
              </clipitem>
              <clipitem id="cs-109">
                <duration>179</duration>
                <rate>
                  <ntsc>false</ntsc>
                  <timebase>25</timebase>
                </rate>
                <in>9534</in>
                <out>9712</out>
                <start>9534</start>
                <end>9712</end>
                <file id="src-3"/>
                <sourcetrack>
                  <mediatype>video</mediatype>
                  <trackindex>1</trackindex>
                </sourcetrack>
                <multiclip id="mcs-109">
                  <name>MCS-109</name>
                  <masterclipid>clip-master</masterclipid>
                  <collapsed>false</collapsed>
                  <angle>
                    <activevideoangle>false</activevideoangle>
                    <activeaudioangle>false</activeaudioangle>
                    <clip id="clip-1"/>
                  </angle>
                  <angle>
                    <activevideoangle>false</activevideoangle>
                    <activeaudioangle>false</activeaudioangle>
                    <clip id="clip-2"/>
                  </angle>
                  <angle>
                    <activevideoangle>true</activevideoangle>
                    <activeaudioangle>true</activeaudioangle>
                    <clip id="clip-3"/>
                  </angle>
                  <angle>
                    <activevideoangle>false</activevideoangle>
                    <activeaudioangle>false</activeaudioangle>
                    <clip id="clip-4"/>
                  </angle>
                  <angle>
                    <activevideoangle>false</activevideoangle>
                    <activeaudioangle>false</activeaudioangle>
                    <clip id="clip-5"/>
                  </angle>
                  <angle>
                    <activevideoangle>false</activevideoangle>
                    <activeaudioangle>false</activeaudioangle>
                    <clip id="clip-6"/>
                  </angle>
                  <angle>
                    <activevideoangle>false</activevideoangle>
                    <activeaudioangle>false</activeaudioangle>
                    <clip id="clip-7"/>
                  </angle>
                  <masterclipid>clip-master</masterclipid>
                </multiclip>
              </clipitem>
              <clipitem id="cs-110">
                <duration>146</duration>
                <rate>
                  <ntsc>false</ntsc>
                  <timebase>25</timebase>
                </rate>
                <in>9712</in>
                <out>9857</out>
                <start>9712</start>
                <end>9857</end>
                <file id="src-4"/>
                <sourcetrack>
                  <mediatype>video</mediatype>
                  <trackindex>1</trackindex>
                </sourcetrack>
                <multiclip id="mcs-110">
                  <name>MCS-110</name>
                  <masterclipid>clip-master</masterclipid>
                  <collapsed>false</collapsed>
                  <angle>
                    <activevideoangle>false</activevideoangle>
                    <activeaudioangle>false</activeaudioangle>
                    <clip id="clip-1"/>
                  </angle>
                  <angle>
                    <activevideoangle>false</activevideoangle>
                    <activeaudioangle>false</activeaudioangle>
                    <clip id="clip-2"/>
                  </angle>
                  <angle>
                    <activevideoangle>false</activevideoangle>
                    <activeaudioangle>false</activeaudioangle>
                    <clip id="clip-3"/>
                  </angle>
                  <angle>
                    <activevideoangle>true</activevideoangle>
                    <activeaudioangle>true</activeaudioangle>
                    <clip id="clip-4"/>
                  </angle>
                  <angle>
                    <activevideoangle>false</activevideoangle>
                    <activeaudioangle>false</activeaudioangle>
                    <clip id="clip-5"/>
                  </angle>
                  <angle>
                    <activevideoangle>false</activevideoangle>
                    <activeaudioangle>false</activeaudioangle>
                    <clip id="clip-6"/>
                  </angle>
                  <angle>
                    <activevideoangle>false</activevideoangle>
                    <activeaudioangle>false</activeaudioangle>
                    <clip id="clip-7"/>
                  </angle>
                  <masterclipid>clip-master</masterclipid>
                </multiclip>
              </clipitem>
              <clipitem id="cs-111">
                <duration>103</duration>
                <rate>
                  <ntsc>false</ntsc>
                  <timebase>25</timebase>
                </rate>
                <in>9857</in>
                <out>9959</out>
                <start>9857</start>
                <end>9959</end>
                <file id="src-1"/>
                <sourcetrack>
                  <mediatype>video</mediatype>
                  <trackindex>1</trackindex>
                </sourcetrack>
                <multiclip id="mcs-111">
                  <name>MCS-111</name>
                  <masterclipid>clip-master</masterclipid>
                  <collapsed>false</collapsed>
                  <angle>
                    <activevideoangle>true</activevideoangle>
                    <activeaudioangle>true</activeaudioangle>
                    <clip id="clip-1"/>
                  </angle>
                  <angle>
                    <activevideoangle>false</activevideoangle>
                    <activeaudioangle>false</activeaudioangle>
                    <clip id="clip-2"/>
                  </angle>
                  <angle>
                    <activevideoangle>false</activevideoangle>
                    <activeaudioangle>false</activeaudioangle>
                    <clip id="clip-3"/>
                  </angle>
                  <angle>
                    <activevideoangle>false</activevideoangle>
                    <activeaudioangle>false</activeaudioangle>
                    <clip id="clip-4"/>
                  </angle>
                  <angle>
                    <activevideoangle>false</activevideoangle>
                    <activeaudioangle>false</activeaudioangle>
                    <clip id="clip-5"/>
                  </angle>
                  <angle>
                    <activevideoangle>false</activevideoangle>
                    <activeaudioangle>false</activeaudioangle>
                    <clip id="clip-6"/>
                  </angle>
                  <angle>
                    <activevideoangle>false</activevideoangle>
                    <activeaudioangle>false</activeaudioangle>
                    <clip id="clip-7"/>
                  </angle>
                  <masterclipid>clip-master</masterclipid>
                </multiclip>
              </clipitem>
              <clipitem id="cs-112">
                <duration>89</duration>
                <rate>
                  <ntsc>false</ntsc>
                  <timebase>25</timebase>
                </rate>
                <in>9959</in>
                <out>10047</out>
                <start>9959</start>
                <end>10047</end>
                <file id="src-2"/>
                <sourcetrack>
                  <mediatype>video</mediatype>
                  <trackindex>1</trackindex>
                </sourcetrack>
                <multiclip id="mcs-112">
                  <name>MCS-112</name>
                  <masterclipid>clip-master</masterclipid>
                  <collapsed>false</collapsed>
                  <angle>
                    <activevideoangle>false</activevideoangle>
                    <activeaudioangle>false</activeaudioangle>
                    <clip id="clip-1"/>
                  </angle>
                  <angle>
                    <activevideoangle>true</activevideoangle>
                    <activeaudioangle>true</activeaudioangle>
                    <clip id="clip-2"/>
                  </angle>
                  <angle>
                    <activevideoangle>false</activevideoangle>
                    <activeaudioangle>false</activeaudioangle>
                    <clip id="clip-3"/>
                  </angle>
                  <angle>
                    <activevideoangle>false</activevideoangle>
                    <activeaudioangle>false</activeaudioangle>
                    <clip id="clip-4"/>
                  </angle>
                  <angle>
                    <activevideoangle>false</activevideoangle>
                    <activeaudioangle>false</activeaudioangle>
                    <clip id="clip-5"/>
                  </angle>
                  <angle>
                    <activevideoangle>false</activevideoangle>
                    <activeaudioangle>false</activeaudioangle>
                    <clip id="clip-6"/>
                  </angle>
                  <angle>
                    <activevideoangle>false</activevideoangle>
                    <activeaudioangle>false</activeaudioangle>
                    <clip id="clip-7"/>
                  </angle>
                  <masterclipid>clip-master</masterclipid>
                </multiclip>
              </clipitem>
              <clipitem id="cs-113">
                <duration>84</duration>
                <rate>
                  <ntsc>false</ntsc>
                  <timebase>25</timebase>
                </rate>
                <in>10047</in>
                <out>10130</out>
                <start>10047</start>
                <end>10130</end>
                <file id="src-6"/>
                <sourcetrack>
                  <mediatype>video</mediatype>
                  <trackindex>1</trackindex>
                </sourcetrack>
                <multiclip id="mcs-113">
                  <name>MCS-113</name>
                  <masterclipid>clip-master</masterclipid>
                  <collapsed>false</collapsed>
                  <angle>
                    <activevideoangle>false</activevideoangle>
                    <activeaudioangle>false</activeaudioangle>
                    <clip id="clip-1"/>
                  </angle>
                  <angle>
                    <activevideoangle>false</activevideoangle>
                    <activeaudioangle>false</activeaudioangle>
                    <clip id="clip-2"/>
                  </angle>
                  <angle>
                    <activevideoangle>false</activevideoangle>
                    <activeaudioangle>false</activeaudioangle>
                    <clip id="clip-3"/>
                  </angle>
                  <angle>
                    <activevideoangle>false</activevideoangle>
                    <activeaudioangle>false</activeaudioangle>
                    <clip id="clip-4"/>
                  </angle>
                  <angle>
                    <activevideoangle>false</activevideoangle>
                    <activeaudioangle>false</activeaudioangle>
                    <clip id="clip-5"/>
                  </angle>
                  <angle>
                    <activevideoangle>true</activevideoangle>
                    <activeaudioangle>true</activeaudioangle>
                    <clip id="clip-6"/>
                  </angle>
                  <angle>
                    <activevideoangle>false</activevideoangle>
                    <activeaudioangle>false</activeaudioangle>
                    <clip id="clip-7"/>
                  </angle>
                  <masterclipid>clip-master</masterclipid>
                </multiclip>
              </clipitem>
              <clipitem id="cs-114">
                <duration>89</duration>
                <rate>
                  <ntsc>false</ntsc>
                  <timebase>25</timebase>
                </rate>
                <in>10130</in>
                <out>10218</out>
                <start>10130</start>
                <end>10218</end>
                <file id="src-3"/>
                <sourcetrack>
                  <mediatype>video</mediatype>
                  <trackindex>1</trackindex>
                </sourcetrack>
                <multiclip id="mcs-114">
                  <name>MCS-114</name>
                  <masterclipid>clip-master</masterclipid>
                  <collapsed>false</collapsed>
                  <angle>
                    <activevideoangle>false</activevideoangle>
                    <activeaudioangle>false</activeaudioangle>
                    <clip id="clip-1"/>
                  </angle>
                  <angle>
                    <activevideoangle>false</activevideoangle>
                    <activeaudioangle>false</activeaudioangle>
                    <clip id="clip-2"/>
                  </angle>
                  <angle>
                    <activevideoangle>true</activevideoangle>
                    <activeaudioangle>true</activeaudioangle>
                    <clip id="clip-3"/>
                  </angle>
                  <angle>
                    <activevideoangle>false</activevideoangle>
                    <activeaudioangle>false</activeaudioangle>
                    <clip id="clip-4"/>
                  </angle>
                  <angle>
                    <activevideoangle>false</activevideoangle>
                    <activeaudioangle>false</activeaudioangle>
                    <clip id="clip-5"/>
                  </angle>
                  <angle>
                    <activevideoangle>false</activevideoangle>
                    <activeaudioangle>false</activeaudioangle>
                    <clip id="clip-6"/>
                  </angle>
                  <angle>
                    <activevideoangle>false</activevideoangle>
                    <activeaudioangle>false</activeaudioangle>
                    <clip id="clip-7"/>
                  </angle>
                  <masterclipid>clip-master</masterclipid>
                </multiclip>
              </clipitem>
              <clipitem id="cs-115">
                <duration>120</duration>
                <rate>
                  <ntsc>false</ntsc>
                  <timebase>25</timebase>
                </rate>
                <in>10218</in>
                <out>10337</out>
                <start>10218</start>
                <end>10337</end>
                <file id="src-2"/>
                <sourcetrack>
                  <mediatype>video</mediatype>
                  <trackindex>1</trackindex>
                </sourcetrack>
                <multiclip id="mcs-115">
                  <name>MCS-115</name>
                  <masterclipid>clip-master</masterclipid>
                  <collapsed>false</collapsed>
                  <angle>
                    <activevideoangle>false</activevideoangle>
                    <activeaudioangle>false</activeaudioangle>
                    <clip id="clip-1"/>
                  </angle>
                  <angle>
                    <activevideoangle>true</activevideoangle>
                    <activeaudioangle>true</activeaudioangle>
                    <clip id="clip-2"/>
                  </angle>
                  <angle>
                    <activevideoangle>false</activevideoangle>
                    <activeaudioangle>false</activeaudioangle>
                    <clip id="clip-3"/>
                  </angle>
                  <angle>
                    <activevideoangle>false</activevideoangle>
                    <activeaudioangle>false</activeaudioangle>
                    <clip id="clip-4"/>
                  </angle>
                  <angle>
                    <activevideoangle>false</activevideoangle>
                    <activeaudioangle>false</activeaudioangle>
                    <clip id="clip-5"/>
                  </angle>
                  <angle>
                    <activevideoangle>false</activevideoangle>
                    <activeaudioangle>false</activeaudioangle>
                    <clip id="clip-6"/>
                  </angle>
                  <angle>
                    <activevideoangle>false</activevideoangle>
                    <activeaudioangle>false</activeaudioangle>
                    <clip id="clip-7"/>
                  </angle>
                  <masterclipid>clip-master</masterclipid>
                </multiclip>
              </clipitem>
              <clipitem id="cs-116">
                <duration>122</duration>
                <rate>
                  <ntsc>false</ntsc>
                  <timebase>25</timebase>
                </rate>
                <in>10337</in>
                <out>10458</out>
                <start>10337</start>
                <end>10458</end>
                <file id="src-6"/>
                <sourcetrack>
                  <mediatype>video</mediatype>
                  <trackindex>1</trackindex>
                </sourcetrack>
                <multiclip id="mcs-116">
                  <name>MCS-116</name>
                  <masterclipid>clip-master</masterclipid>
                  <collapsed>false</collapsed>
                  <angle>
                    <activevideoangle>false</activevideoangle>
                    <activeaudioangle>false</activeaudioangle>
                    <clip id="clip-1"/>
                  </angle>
                  <angle>
                    <activevideoangle>false</activevideoangle>
                    <activeaudioangle>false</activeaudioangle>
                    <clip id="clip-2"/>
                  </angle>
                  <angle>
                    <activevideoangle>false</activevideoangle>
                    <activeaudioangle>false</activeaudioangle>
                    <clip id="clip-3"/>
                  </angle>
                  <angle>
                    <activevideoangle>false</activevideoangle>
                    <activeaudioangle>false</activeaudioangle>
                    <clip id="clip-4"/>
                  </angle>
                  <angle>
                    <activevideoangle>false</activevideoangle>
                    <activeaudioangle>false</activeaudioangle>
                    <clip id="clip-5"/>
                  </angle>
                  <angle>
                    <activevideoangle>true</activevideoangle>
                    <activeaudioangle>true</activeaudioangle>
                    <clip id="clip-6"/>
                  </angle>
                  <angle>
                    <activevideoangle>false</activevideoangle>
                    <activeaudioangle>false</activeaudioangle>
                    <clip id="clip-7"/>
                  </angle>
                  <masterclipid>clip-master</masterclipid>
                </multiclip>
              </clipitem>
              <clipitem id="cs-117">
                <duration>417</duration>
                <rate>
                  <ntsc>false</ntsc>
                  <timebase>25</timebase>
                </rate>
                <in>10458</in>
                <out>10874</out>
                <start>10458</start>
                <end>10874</end>
                <file id="src-3"/>
                <sourcetrack>
                  <mediatype>video</mediatype>
                  <trackindex>1</trackindex>
                </sourcetrack>
                <multiclip id="mcs-117">
                  <name>MCS-117</name>
                  <masterclipid>clip-master</masterclipid>
                  <collapsed>false</collapsed>
                  <angle>
                    <activevideoangle>false</activevideoangle>
                    <activeaudioangle>false</activeaudioangle>
                    <clip id="clip-1"/>
                  </angle>
                  <angle>
                    <activevideoangle>false</activevideoangle>
                    <activeaudioangle>false</activeaudioangle>
                    <clip id="clip-2"/>
                  </angle>
                  <angle>
                    <activevideoangle>true</activevideoangle>
                    <activeaudioangle>true</activeaudioangle>
                    <clip id="clip-3"/>
                  </angle>
                  <angle>
                    <activevideoangle>false</activevideoangle>
                    <activeaudioangle>false</activeaudioangle>
                    <clip id="clip-4"/>
                  </angle>
                  <angle>
                    <activevideoangle>false</activevideoangle>
                    <activeaudioangle>false</activeaudioangle>
                    <clip id="clip-5"/>
                  </angle>
                  <angle>
                    <activevideoangle>false</activevideoangle>
                    <activeaudioangle>false</activeaudioangle>
                    <clip id="clip-6"/>
                  </angle>
                  <angle>
                    <activevideoangle>false</activevideoangle>
                    <activeaudioangle>false</activeaudioangle>
                    <clip id="clip-7"/>
                  </angle>
                  <masterclipid>clip-master</masterclipid>
                </multiclip>
              </clipitem>
              <clipitem id="cs-118">
                <duration>91</duration>
                <rate>
                  <ntsc>false</ntsc>
                  <timebase>25</timebase>
                </rate>
                <in>10874</in>
                <out>10964</out>
                <start>10874</start>
                <end>10964</end>
                <file id="src-5"/>
                <sourcetrack>
                  <mediatype>video</mediatype>
                  <trackindex>1</trackindex>
                </sourcetrack>
                <multiclip id="mcs-118">
                  <name>MCS-118</name>
                  <masterclipid>clip-master</masterclipid>
                  <collapsed>false</collapsed>
                  <angle>
                    <activevideoangle>false</activevideoangle>
                    <activeaudioangle>false</activeaudioangle>
                    <clip id="clip-1"/>
                  </angle>
                  <angle>
                    <activevideoangle>false</activevideoangle>
                    <activeaudioangle>false</activeaudioangle>
                    <clip id="clip-2"/>
                  </angle>
                  <angle>
                    <activevideoangle>false</activevideoangle>
                    <activeaudioangle>false</activeaudioangle>
                    <clip id="clip-3"/>
                  </angle>
                  <angle>
                    <activevideoangle>false</activevideoangle>
                    <activeaudioangle>false</activeaudioangle>
                    <clip id="clip-4"/>
                  </angle>
                  <angle>
                    <activevideoangle>true</activevideoangle>
                    <activeaudioangle>true</activeaudioangle>
                    <clip id="clip-5"/>
                  </angle>
                  <angle>
                    <activevideoangle>false</activevideoangle>
                    <activeaudioangle>false</activeaudioangle>
                    <clip id="clip-6"/>
                  </angle>
                  <angle>
                    <activevideoangle>false</activevideoangle>
                    <activeaudioangle>false</activeaudioangle>
                    <clip id="clip-7"/>
                  </angle>
                  <masterclipid>clip-master</masterclipid>
                </multiclip>
              </clipitem>
              <clipitem id="cs-119">
                <duration>127</duration>
                <rate>
                  <ntsc>false</ntsc>
                  <timebase>25</timebase>
                </rate>
                <in>10964</in>
                <out>11090</out>
                <start>10964</start>
                <end>11090</end>
                <file id="src-2"/>
                <sourcetrack>
                  <mediatype>video</mediatype>
                  <trackindex>1</trackindex>
                </sourcetrack>
                <multiclip id="mcs-119">
                  <name>MCS-119</name>
                  <masterclipid>clip-master</masterclipid>
                  <collapsed>false</collapsed>
                  <angle>
                    <activevideoangle>false</activevideoangle>
                    <activeaudioangle>false</activeaudioangle>
                    <clip id="clip-1"/>
                  </angle>
                  <angle>
                    <activevideoangle>true</activevideoangle>
                    <activeaudioangle>true</activeaudioangle>
                    <clip id="clip-2"/>
                  </angle>
                  <angle>
                    <activevideoangle>false</activevideoangle>
                    <activeaudioangle>false</activeaudioangle>
                    <clip id="clip-3"/>
                  </angle>
                  <angle>
                    <activevideoangle>false</activevideoangle>
                    <activeaudioangle>false</activeaudioangle>
                    <clip id="clip-4"/>
                  </angle>
                  <angle>
                    <activevideoangle>false</activevideoangle>
                    <activeaudioangle>false</activeaudioangle>
                    <clip id="clip-5"/>
                  </angle>
                  <angle>
                    <activevideoangle>false</activevideoangle>
                    <activeaudioangle>false</activeaudioangle>
                    <clip id="clip-6"/>
                  </angle>
                  <angle>
                    <activevideoangle>false</activevideoangle>
                    <activeaudioangle>false</activeaudioangle>
                    <clip id="clip-7"/>
                  </angle>
                  <masterclipid>clip-master</masterclipid>
                </multiclip>
              </clipitem>
              <clipitem id="cs-120">
                <duration>157</duration>
                <rate>
                  <ntsc>false</ntsc>
                  <timebase>25</timebase>
                </rate>
                <in>11090</in>
                <out>11246</out>
                <start>11090</start>
                <end>11246</end>
                <file id="src-3"/>
                <sourcetrack>
                  <mediatype>video</mediatype>
                  <trackindex>1</trackindex>
                </sourcetrack>
                <multiclip id="mcs-120">
                  <name>MCS-120</name>
                  <masterclipid>clip-master</masterclipid>
                  <collapsed>false</collapsed>
                  <angle>
                    <activevideoangle>false</activevideoangle>
                    <activeaudioangle>false</activeaudioangle>
                    <clip id="clip-1"/>
                  </angle>
                  <angle>
                    <activevideoangle>false</activevideoangle>
                    <activeaudioangle>false</activeaudioangle>
                    <clip id="clip-2"/>
                  </angle>
                  <angle>
                    <activevideoangle>true</activevideoangle>
                    <activeaudioangle>true</activeaudioangle>
                    <clip id="clip-3"/>
                  </angle>
                  <angle>
                    <activevideoangle>false</activevideoangle>
                    <activeaudioangle>false</activeaudioangle>
                    <clip id="clip-4"/>
                  </angle>
                  <angle>
                    <activevideoangle>false</activevideoangle>
                    <activeaudioangle>false</activeaudioangle>
                    <clip id="clip-5"/>
                  </angle>
                  <angle>
                    <activevideoangle>false</activevideoangle>
                    <activeaudioangle>false</activeaudioangle>
                    <clip id="clip-6"/>
                  </angle>
                  <angle>
                    <activevideoangle>false</activevideoangle>
                    <activeaudioangle>false</activeaudioangle>
                    <clip id="clip-7"/>
                  </angle>
                  <masterclipid>clip-master</masterclipid>
                </multiclip>
              </clipitem>
              <clipitem id="cs-121">
                <duration>234</duration>
                <rate>
                  <ntsc>false</ntsc>
                  <timebase>25</timebase>
                </rate>
                <in>11246</in>
                <out>11479</out>
                <start>11246</start>
                <end>11479</end>
                <file id="src-2"/>
                <sourcetrack>
                  <mediatype>video</mediatype>
                  <trackindex>1</trackindex>
                </sourcetrack>
                <multiclip id="mcs-121">
                  <name>MCS-121</name>
                  <masterclipid>clip-master</masterclipid>
                  <collapsed>false</collapsed>
                  <angle>
                    <activevideoangle>false</activevideoangle>
                    <activeaudioangle>false</activeaudioangle>
                    <clip id="clip-1"/>
                  </angle>
                  <angle>
                    <activevideoangle>true</activevideoangle>
                    <activeaudioangle>true</activeaudioangle>
                    <clip id="clip-2"/>
                  </angle>
                  <angle>
                    <activevideoangle>false</activevideoangle>
                    <activeaudioangle>false</activeaudioangle>
                    <clip id="clip-3"/>
                  </angle>
                  <angle>
                    <activevideoangle>false</activevideoangle>
                    <activeaudioangle>false</activeaudioangle>
                    <clip id="clip-4"/>
                  </angle>
                  <angle>
                    <activevideoangle>false</activevideoangle>
                    <activeaudioangle>false</activeaudioangle>
                    <clip id="clip-5"/>
                  </angle>
                  <angle>
                    <activevideoangle>false</activevideoangle>
                    <activeaudioangle>false</activeaudioangle>
                    <clip id="clip-6"/>
                  </angle>
                  <angle>
                    <activevideoangle>false</activevideoangle>
                    <activeaudioangle>false</activeaudioangle>
                    <clip id="clip-7"/>
                  </angle>
                  <masterclipid>clip-master</masterclipid>
                </multiclip>
              </clipitem>
              <clipitem id="cs-122">
                <duration>58</duration>
                <rate>
                  <ntsc>false</ntsc>
                  <timebase>25</timebase>
                </rate>
                <in>11479</in>
                <out>11536</out>
                <start>11479</start>
                <end>11536</end>
                <file id="src-4"/>
                <sourcetrack>
                  <mediatype>video</mediatype>
                  <trackindex>1</trackindex>
                </sourcetrack>
                <multiclip id="mcs-122">
                  <name>MCS-122</name>
                  <masterclipid>clip-master</masterclipid>
                  <collapsed>false</collapsed>
                  <angle>
                    <activevideoangle>false</activevideoangle>
                    <activeaudioangle>false</activeaudioangle>
                    <clip id="clip-1"/>
                  </angle>
                  <angle>
                    <activevideoangle>false</activevideoangle>
                    <activeaudioangle>false</activeaudioangle>
                    <clip id="clip-2"/>
                  </angle>
                  <angle>
                    <activevideoangle>false</activevideoangle>
                    <activeaudioangle>false</activeaudioangle>
                    <clip id="clip-3"/>
                  </angle>
                  <angle>
                    <activevideoangle>true</activevideoangle>
                    <activeaudioangle>true</activeaudioangle>
                    <clip id="clip-4"/>
                  </angle>
                  <angle>
                    <activevideoangle>false</activevideoangle>
                    <activeaudioangle>false</activeaudioangle>
                    <clip id="clip-5"/>
                  </angle>
                  <angle>
                    <activevideoangle>false</activevideoangle>
                    <activeaudioangle>false</activeaudioangle>
                    <clip id="clip-6"/>
                  </angle>
                  <angle>
                    <activevideoangle>false</activevideoangle>
                    <activeaudioangle>false</activeaudioangle>
                    <clip id="clip-7"/>
                  </angle>
                  <masterclipid>clip-master</masterclipid>
                </multiclip>
              </clipitem>
              <clipitem id="cs-123">
                <duration>79</duration>
                <rate>
                  <ntsc>false</ntsc>
                  <timebase>25</timebase>
                </rate>
                <in>11536</in>
                <out>11614</out>
                <start>11536</start>
                <end>11614</end>
                <file id="src-6"/>
                <sourcetrack>
                  <mediatype>video</mediatype>
                  <trackindex>1</trackindex>
                </sourcetrack>
                <multiclip id="mcs-123">
                  <name>MCS-123</name>
                  <masterclipid>clip-master</masterclipid>
                  <collapsed>false</collapsed>
                  <angle>
                    <activevideoangle>false</activevideoangle>
                    <activeaudioangle>false</activeaudioangle>
                    <clip id="clip-1"/>
                  </angle>
                  <angle>
                    <activevideoangle>false</activevideoangle>
                    <activeaudioangle>false</activeaudioangle>
                    <clip id="clip-2"/>
                  </angle>
                  <angle>
                    <activevideoangle>false</activevideoangle>
                    <activeaudioangle>false</activeaudioangle>
                    <clip id="clip-3"/>
                  </angle>
                  <angle>
                    <activevideoangle>false</activevideoangle>
                    <activeaudioangle>false</activeaudioangle>
                    <clip id="clip-4"/>
                  </angle>
                  <angle>
                    <activevideoangle>false</activevideoangle>
                    <activeaudioangle>false</activeaudioangle>
                    <clip id="clip-5"/>
                  </angle>
                  <angle>
                    <activevideoangle>true</activevideoangle>
                    <activeaudioangle>true</activeaudioangle>
                    <clip id="clip-6"/>
                  </angle>
                  <angle>
                    <activevideoangle>false</activevideoangle>
                    <activeaudioangle>false</activeaudioangle>
                    <clip id="clip-7"/>
                  </angle>
                  <masterclipid>clip-master</masterclipid>
                </multiclip>
              </clipitem>
              <clipitem id="cs-124">
                <duration>174</duration>
                <rate>
                  <ntsc>false</ntsc>
                  <timebase>25</timebase>
                </rate>
                <in>11614</in>
                <out>11787</out>
                <start>11614</start>
                <end>11787</end>
                <file id="src-3"/>
                <sourcetrack>
                  <mediatype>video</mediatype>
                  <trackindex>1</trackindex>
                </sourcetrack>
                <multiclip id="mcs-124">
                  <name>MCS-124</name>
                  <masterclipid>clip-master</masterclipid>
                  <collapsed>false</collapsed>
                  <angle>
                    <activevideoangle>false</activevideoangle>
                    <activeaudioangle>false</activeaudioangle>
                    <clip id="clip-1"/>
                  </angle>
                  <angle>
                    <activevideoangle>false</activevideoangle>
                    <activeaudioangle>false</activeaudioangle>
                    <clip id="clip-2"/>
                  </angle>
                  <angle>
                    <activevideoangle>true</activevideoangle>
                    <activeaudioangle>true</activeaudioangle>
                    <clip id="clip-3"/>
                  </angle>
                  <angle>
                    <activevideoangle>false</activevideoangle>
                    <activeaudioangle>false</activeaudioangle>
                    <clip id="clip-4"/>
                  </angle>
                  <angle>
                    <activevideoangle>false</activevideoangle>
                    <activeaudioangle>false</activeaudioangle>
                    <clip id="clip-5"/>
                  </angle>
                  <angle>
                    <activevideoangle>false</activevideoangle>
                    <activeaudioangle>false</activeaudioangle>
                    <clip id="clip-6"/>
                  </angle>
                  <angle>
                    <activevideoangle>false</activevideoangle>
                    <activeaudioangle>false</activeaudioangle>
                    <clip id="clip-7"/>
                  </angle>
                  <masterclipid>clip-master</masterclipid>
                </multiclip>
              </clipitem>
              <clipitem id="cs-125">
                <duration>130</duration>
                <rate>
                  <ntsc>false</ntsc>
                  <timebase>25</timebase>
                </rate>
                <in>11787</in>
                <out>11916</out>
                <start>11787</start>
                <end>11916</end>
                <file id="src-1"/>
                <sourcetrack>
                  <mediatype>video</mediatype>
                  <trackindex>1</trackindex>
                </sourcetrack>
                <multiclip id="mcs-125">
                  <name>MCS-125</name>
                  <masterclipid>clip-master</masterclipid>
                  <collapsed>false</collapsed>
                  <angle>
                    <activevideoangle>true</activevideoangle>
                    <activeaudioangle>true</activeaudioangle>
                    <clip id="clip-1"/>
                  </angle>
                  <angle>
                    <activevideoangle>false</activevideoangle>
                    <activeaudioangle>false</activeaudioangle>
                    <clip id="clip-2"/>
                  </angle>
                  <angle>
                    <activevideoangle>false</activevideoangle>
                    <activeaudioangle>false</activeaudioangle>
                    <clip id="clip-3"/>
                  </angle>
                  <angle>
                    <activevideoangle>false</activevideoangle>
                    <activeaudioangle>false</activeaudioangle>
                    <clip id="clip-4"/>
                  </angle>
                  <angle>
                    <activevideoangle>false</activevideoangle>
                    <activeaudioangle>false</activeaudioangle>
                    <clip id="clip-5"/>
                  </angle>
                  <angle>
                    <activevideoangle>false</activevideoangle>
                    <activeaudioangle>false</activeaudioangle>
                    <clip id="clip-6"/>
                  </angle>
                  <angle>
                    <activevideoangle>false</activevideoangle>
                    <activeaudioangle>false</activeaudioangle>
                    <clip id="clip-7"/>
                  </angle>
                  <masterclipid>clip-master</masterclipid>
                </multiclip>
              </clipitem>
              <clipitem id="cs-126">
                <duration>115</duration>
                <rate>
                  <ntsc>false</ntsc>
                  <timebase>25</timebase>
                </rate>
                <in>11916</in>
                <out>12030</out>
                <start>11916</start>
                <end>12030</end>
                <file id="src-3"/>
                <sourcetrack>
                  <mediatype>video</mediatype>
                  <trackindex>1</trackindex>
                </sourcetrack>
                <multiclip id="mcs-126">
                  <name>MCS-126</name>
                  <masterclipid>clip-master</masterclipid>
                  <collapsed>false</collapsed>
                  <angle>
                    <activevideoangle>false</activevideoangle>
                    <activeaudioangle>false</activeaudioangle>
                    <clip id="clip-1"/>
                  </angle>
                  <angle>
                    <activevideoangle>false</activevideoangle>
                    <activeaudioangle>false</activeaudioangle>
                    <clip id="clip-2"/>
                  </angle>
                  <angle>
                    <activevideoangle>true</activevideoangle>
                    <activeaudioangle>true</activeaudioangle>
                    <clip id="clip-3"/>
                  </angle>
                  <angle>
                    <activevideoangle>false</activevideoangle>
                    <activeaudioangle>false</activeaudioangle>
                    <clip id="clip-4"/>
                  </angle>
                  <angle>
                    <activevideoangle>false</activevideoangle>
                    <activeaudioangle>false</activeaudioangle>
                    <clip id="clip-5"/>
                  </angle>
                  <angle>
                    <activevideoangle>false</activevideoangle>
                    <activeaudioangle>false</activeaudioangle>
                    <clip id="clip-6"/>
                  </angle>
                  <angle>
                    <activevideoangle>false</activevideoangle>
                    <activeaudioangle>false</activeaudioangle>
                    <clip id="clip-7"/>
                  </angle>
                  <masterclipid>clip-master</masterclipid>
                </multiclip>
              </clipitem>
              <clipitem id="cs-127">
                <duration>73</duration>
                <rate>
                  <ntsc>false</ntsc>
                  <timebase>25</timebase>
                </rate>
                <in>12030</in>
                <out>12102</out>
                <start>12030</start>
                <end>12102</end>
                <file id="src-6"/>
                <sourcetrack>
                  <mediatype>video</mediatype>
                  <trackindex>1</trackindex>
                </sourcetrack>
                <multiclip id="mcs-127">
                  <name>MCS-127</name>
                  <masterclipid>clip-master</masterclipid>
                  <collapsed>false</collapsed>
                  <angle>
                    <activevideoangle>false</activevideoangle>
                    <activeaudioangle>false</activeaudioangle>
                    <clip id="clip-1"/>
                  </angle>
                  <angle>
                    <activevideoangle>false</activevideoangle>
                    <activeaudioangle>false</activeaudioangle>
                    <clip id="clip-2"/>
                  </angle>
                  <angle>
                    <activevideoangle>false</activevideoangle>
                    <activeaudioangle>false</activeaudioangle>
                    <clip id="clip-3"/>
                  </angle>
                  <angle>
                    <activevideoangle>false</activevideoangle>
                    <activeaudioangle>false</activeaudioangle>
                    <clip id="clip-4"/>
                  </angle>
                  <angle>
                    <activevideoangle>false</activevideoangle>
                    <activeaudioangle>false</activeaudioangle>
                    <clip id="clip-5"/>
                  </angle>
                  <angle>
                    <activevideoangle>true</activevideoangle>
                    <activeaudioangle>true</activeaudioangle>
                    <clip id="clip-6"/>
                  </angle>
                  <angle>
                    <activevideoangle>false</activevideoangle>
                    <activeaudioangle>false</activeaudioangle>
                    <clip id="clip-7"/>
                  </angle>
                  <masterclipid>clip-master</masterclipid>
                </multiclip>
              </clipitem>
              <clipitem id="cs-128">
                <duration>157</duration>
                <rate>
                  <ntsc>false</ntsc>
                  <timebase>25</timebase>
                </rate>
                <in>12102</in>
                <out>12258</out>
                <start>12102</start>
                <end>12258</end>
                <file id="src-3"/>
                <sourcetrack>
                  <mediatype>video</mediatype>
                  <trackindex>1</trackindex>
                </sourcetrack>
                <multiclip id="mcs-128">
                  <name>MCS-128</name>
                  <masterclipid>clip-master</masterclipid>
                  <collapsed>false</collapsed>
                  <angle>
                    <activevideoangle>false</activevideoangle>
                    <activeaudioangle>false</activeaudioangle>
                    <clip id="clip-1"/>
                  </angle>
                  <angle>
                    <activevideoangle>false</activevideoangle>
                    <activeaudioangle>false</activeaudioangle>
                    <clip id="clip-2"/>
                  </angle>
                  <angle>
                    <activevideoangle>true</activevideoangle>
                    <activeaudioangle>true</activeaudioangle>
                    <clip id="clip-3"/>
                  </angle>
                  <angle>
                    <activevideoangle>false</activevideoangle>
                    <activeaudioangle>false</activeaudioangle>
                    <clip id="clip-4"/>
                  </angle>
                  <angle>
                    <activevideoangle>false</activevideoangle>
                    <activeaudioangle>false</activeaudioangle>
                    <clip id="clip-5"/>
                  </angle>
                  <angle>
                    <activevideoangle>false</activevideoangle>
                    <activeaudioangle>false</activeaudioangle>
                    <clip id="clip-6"/>
                  </angle>
                  <angle>
                    <activevideoangle>false</activevideoangle>
                    <activeaudioangle>false</activeaudioangle>
                    <clip id="clip-7"/>
                  </angle>
                  <masterclipid>clip-master</masterclipid>
                </multiclip>
              </clipitem>
              <clipitem id="cs-129">
                <duration>136</duration>
                <rate>
                  <ntsc>false</ntsc>
                  <timebase>25</timebase>
                </rate>
                <in>12258</in>
                <out>12393</out>
                <start>12258</start>
                <end>12393</end>
                <file id="src-2"/>
                <sourcetrack>
                  <mediatype>video</mediatype>
                  <trackindex>1</trackindex>
                </sourcetrack>
                <multiclip id="mcs-129">
                  <name>MCS-129</name>
                  <masterclipid>clip-master</masterclipid>
                  <collapsed>false</collapsed>
                  <angle>
                    <activevideoangle>false</activevideoangle>
                    <activeaudioangle>false</activeaudioangle>
                    <clip id="clip-1"/>
                  </angle>
                  <angle>
                    <activevideoangle>true</activevideoangle>
                    <activeaudioangle>true</activeaudioangle>
                    <clip id="clip-2"/>
                  </angle>
                  <angle>
                    <activevideoangle>false</activevideoangle>
                    <activeaudioangle>false</activeaudioangle>
                    <clip id="clip-3"/>
                  </angle>
                  <angle>
                    <activevideoangle>false</activevideoangle>
                    <activeaudioangle>false</activeaudioangle>
                    <clip id="clip-4"/>
                  </angle>
                  <angle>
                    <activevideoangle>false</activevideoangle>
                    <activeaudioangle>false</activeaudioangle>
                    <clip id="clip-5"/>
                  </angle>
                  <angle>
                    <activevideoangle>false</activevideoangle>
                    <activeaudioangle>false</activeaudioangle>
                    <clip id="clip-6"/>
                  </angle>
                  <angle>
                    <activevideoangle>false</activevideoangle>
                    <activeaudioangle>false</activeaudioangle>
                    <clip id="clip-7"/>
                  </angle>
                  <masterclipid>clip-master</masterclipid>
                </multiclip>
              </clipitem>
              <clipitem id="cs-130">
                <duration>217</duration>
                <rate>
                  <ntsc>false</ntsc>
                  <timebase>25</timebase>
                </rate>
                <in>12393</in>
                <out>12609</out>
                <start>12393</start>
                <end>12609</end>
                <file id="src-4"/>
                <sourcetrack>
                  <mediatype>video</mediatype>
                  <trackindex>1</trackindex>
                </sourcetrack>
                <multiclip id="mcs-130">
                  <name>MCS-130</name>
                  <masterclipid>clip-master</masterclipid>
                  <collapsed>false</collapsed>
                  <angle>
                    <activevideoangle>false</activevideoangle>
                    <activeaudioangle>false</activeaudioangle>
                    <clip id="clip-1"/>
                  </angle>
                  <angle>
                    <activevideoangle>false</activevideoangle>
                    <activeaudioangle>false</activeaudioangle>
                    <clip id="clip-2"/>
                  </angle>
                  <angle>
                    <activevideoangle>false</activevideoangle>
                    <activeaudioangle>false</activeaudioangle>
                    <clip id="clip-3"/>
                  </angle>
                  <angle>
                    <activevideoangle>true</activevideoangle>
                    <activeaudioangle>true</activeaudioangle>
                    <clip id="clip-4"/>
                  </angle>
                  <angle>
                    <activevideoangle>false</activevideoangle>
                    <activeaudioangle>false</activeaudioangle>
                    <clip id="clip-5"/>
                  </angle>
                  <angle>
                    <activevideoangle>false</activevideoangle>
                    <activeaudioangle>false</activeaudioangle>
                    <clip id="clip-6"/>
                  </angle>
                  <angle>
                    <activevideoangle>false</activevideoangle>
                    <activeaudioangle>false</activeaudioangle>
                    <clip id="clip-7"/>
                  </angle>
                  <masterclipid>clip-master</masterclipid>
                </multiclip>
              </clipitem>
              <clipitem id="cs-131">
                <duration>199</duration>
                <rate>
                  <ntsc>false</ntsc>
                  <timebase>25</timebase>
                </rate>
                <in>12609</in>
                <out>12807</out>
                <start>12609</start>
                <end>12807</end>
                <file id="src-2"/>
                <sourcetrack>
                  <mediatype>video</mediatype>
                  <trackindex>1</trackindex>
                </sourcetrack>
                <multiclip id="mcs-131">
                  <name>MCS-131</name>
                  <masterclipid>clip-master</masterclipid>
                  <collapsed>false</collapsed>
                  <angle>
                    <activevideoangle>false</activevideoangle>
                    <activeaudioangle>false</activeaudioangle>
                    <clip id="clip-1"/>
                  </angle>
                  <angle>
                    <activevideoangle>true</activevideoangle>
                    <activeaudioangle>true</activeaudioangle>
                    <clip id="clip-2"/>
                  </angle>
                  <angle>
                    <activevideoangle>false</activevideoangle>
                    <activeaudioangle>false</activeaudioangle>
                    <clip id="clip-3"/>
                  </angle>
                  <angle>
                    <activevideoangle>false</activevideoangle>
                    <activeaudioangle>false</activeaudioangle>
                    <clip id="clip-4"/>
                  </angle>
                  <angle>
                    <activevideoangle>false</activevideoangle>
                    <activeaudioangle>false</activeaudioangle>
                    <clip id="clip-5"/>
                  </angle>
                  <angle>
                    <activevideoangle>false</activevideoangle>
                    <activeaudioangle>false</activeaudioangle>
                    <clip id="clip-6"/>
                  </angle>
                  <angle>
                    <activevideoangle>false</activevideoangle>
                    <activeaudioangle>false</activeaudioangle>
                    <clip id="clip-7"/>
                  </angle>
                  <masterclipid>clip-master</masterclipid>
                </multiclip>
              </clipitem>
              <clipitem id="cs-132">
                <duration>54</duration>
                <rate>
                  <ntsc>false</ntsc>
                  <timebase>25</timebase>
                </rate>
                <in>12807</in>
                <out>12860</out>
                <start>12807</start>
                <end>12860</end>
                <file id="src-3"/>
                <sourcetrack>
                  <mediatype>video</mediatype>
                  <trackindex>1</trackindex>
                </sourcetrack>
                <multiclip id="mcs-132">
                  <name>MCS-132</name>
                  <masterclipid>clip-master</masterclipid>
                  <collapsed>false</collapsed>
                  <angle>
                    <activevideoangle>false</activevideoangle>
                    <activeaudioangle>false</activeaudioangle>
                    <clip id="clip-1"/>
                  </angle>
                  <angle>
                    <activevideoangle>false</activevideoangle>
                    <activeaudioangle>false</activeaudioangle>
                    <clip id="clip-2"/>
                  </angle>
                  <angle>
                    <activevideoangle>true</activevideoangle>
                    <activeaudioangle>true</activeaudioangle>
                    <clip id="clip-3"/>
                  </angle>
                  <angle>
                    <activevideoangle>false</activevideoangle>
                    <activeaudioangle>false</activeaudioangle>
                    <clip id="clip-4"/>
                  </angle>
                  <angle>
                    <activevideoangle>false</activevideoangle>
                    <activeaudioangle>false</activeaudioangle>
                    <clip id="clip-5"/>
                  </angle>
                  <angle>
                    <activevideoangle>false</activevideoangle>
                    <activeaudioangle>false</activeaudioangle>
                    <clip id="clip-6"/>
                  </angle>
                  <angle>
                    <activevideoangle>false</activevideoangle>
                    <activeaudioangle>false</activeaudioangle>
                    <clip id="clip-7"/>
                  </angle>
                  <masterclipid>clip-master</masterclipid>
                </multiclip>
              </clipitem>
              <clipitem id="cs-133">
                <duration>88</duration>
                <rate>
                  <ntsc>false</ntsc>
                  <timebase>25</timebase>
                </rate>
                <in>12860</in>
                <out>12947</out>
                <start>12860</start>
                <end>12947</end>
                <file id="src-6"/>
                <sourcetrack>
                  <mediatype>video</mediatype>
                  <trackindex>1</trackindex>
                </sourcetrack>
                <multiclip id="mcs-133">
                  <name>MCS-133</name>
                  <masterclipid>clip-master</masterclipid>
                  <collapsed>false</collapsed>
                  <angle>
                    <activevideoangle>false</activevideoangle>
                    <activeaudioangle>false</activeaudioangle>
                    <clip id="clip-1"/>
                  </angle>
                  <angle>
                    <activevideoangle>false</activevideoangle>
                    <activeaudioangle>false</activeaudioangle>
                    <clip id="clip-2"/>
                  </angle>
                  <angle>
                    <activevideoangle>false</activevideoangle>
                    <activeaudioangle>false</activeaudioangle>
                    <clip id="clip-3"/>
                  </angle>
                  <angle>
                    <activevideoangle>false</activevideoangle>
                    <activeaudioangle>false</activeaudioangle>
                    <clip id="clip-4"/>
                  </angle>
                  <angle>
                    <activevideoangle>false</activevideoangle>
                    <activeaudioangle>false</activeaudioangle>
                    <clip id="clip-5"/>
                  </angle>
                  <angle>
                    <activevideoangle>true</activevideoangle>
                    <activeaudioangle>true</activeaudioangle>
                    <clip id="clip-6"/>
                  </angle>
                  <angle>
                    <activevideoangle>false</activevideoangle>
                    <activeaudioangle>false</activeaudioangle>
                    <clip id="clip-7"/>
                  </angle>
                  <masterclipid>clip-master</masterclipid>
                </multiclip>
              </clipitem>
              <clipitem id="cs-134">
                <duration>275</duration>
                <rate>
                  <ntsc>false</ntsc>
                  <timebase>25</timebase>
                </rate>
                <in>12947</in>
                <out>13221</out>
                <start>12947</start>
                <end>13221</end>
                <file id="src-3"/>
                <sourcetrack>
                  <mediatype>video</mediatype>
                  <trackindex>1</trackindex>
                </sourcetrack>
                <multiclip id="mcs-134">
                  <name>MCS-134</name>
                  <masterclipid>clip-master</masterclipid>
                  <collapsed>false</collapsed>
                  <angle>
                    <activevideoangle>false</activevideoangle>
                    <activeaudioangle>false</activeaudioangle>
                    <clip id="clip-1"/>
                  </angle>
                  <angle>
                    <activevideoangle>false</activevideoangle>
                    <activeaudioangle>false</activeaudioangle>
                    <clip id="clip-2"/>
                  </angle>
                  <angle>
                    <activevideoangle>true</activevideoangle>
                    <activeaudioangle>true</activeaudioangle>
                    <clip id="clip-3"/>
                  </angle>
                  <angle>
                    <activevideoangle>false</activevideoangle>
                    <activeaudioangle>false</activeaudioangle>
                    <clip id="clip-4"/>
                  </angle>
                  <angle>
                    <activevideoangle>false</activevideoangle>
                    <activeaudioangle>false</activeaudioangle>
                    <clip id="clip-5"/>
                  </angle>
                  <angle>
                    <activevideoangle>false</activevideoangle>
                    <activeaudioangle>false</activeaudioangle>
                    <clip id="clip-6"/>
                  </angle>
                  <angle>
                    <activevideoangle>false</activevideoangle>
                    <activeaudioangle>false</activeaudioangle>
                    <clip id="clip-7"/>
                  </angle>
                  <masterclipid>clip-master</masterclipid>
                </multiclip>
              </clipitem>
              <clipitem id="cs-135">
                <duration>102</duration>
                <rate>
                  <ntsc>false</ntsc>
                  <timebase>25</timebase>
                </rate>
                <in>13221</in>
                <out>13322</out>
                <start>13221</start>
                <end>13322</end>
                <file id="src-6"/>
                <sourcetrack>
                  <mediatype>video</mediatype>
                  <trackindex>1</trackindex>
                </sourcetrack>
                <multiclip id="mcs-135">
                  <name>MCS-135</name>
                  <masterclipid>clip-master</masterclipid>
                  <collapsed>false</collapsed>
                  <angle>
                    <activevideoangle>false</activevideoangle>
                    <activeaudioangle>false</activeaudioangle>
                    <clip id="clip-1"/>
                  </angle>
                  <angle>
                    <activevideoangle>false</activevideoangle>
                    <activeaudioangle>false</activeaudioangle>
                    <clip id="clip-2"/>
                  </angle>
                  <angle>
                    <activevideoangle>false</activevideoangle>
                    <activeaudioangle>false</activeaudioangle>
                    <clip id="clip-3"/>
                  </angle>
                  <angle>
                    <activevideoangle>false</activevideoangle>
                    <activeaudioangle>false</activeaudioangle>
                    <clip id="clip-4"/>
                  </angle>
                  <angle>
                    <activevideoangle>false</activevideoangle>
                    <activeaudioangle>false</activeaudioangle>
                    <clip id="clip-5"/>
                  </angle>
                  <angle>
                    <activevideoangle>true</activevideoangle>
                    <activeaudioangle>true</activeaudioangle>
                    <clip id="clip-6"/>
                  </angle>
                  <angle>
                    <activevideoangle>false</activevideoangle>
                    <activeaudioangle>false</activeaudioangle>
                    <clip id="clip-7"/>
                  </angle>
                  <masterclipid>clip-master</masterclipid>
                </multiclip>
              </clipitem>
              <clipitem id="cs-136">
                <duration>128</duration>
                <rate>
                  <ntsc>false</ntsc>
                  <timebase>25</timebase>
                </rate>
                <in>13322</in>
                <out>13449</out>
                <start>13322</start>
                <end>13449</end>
                <file id="src-3"/>
                <sourcetrack>
                  <mediatype>video</mediatype>
                  <trackindex>1</trackindex>
                </sourcetrack>
                <multiclip id="mcs-136">
                  <name>MCS-136</name>
                  <masterclipid>clip-master</masterclipid>
                  <collapsed>false</collapsed>
                  <angle>
                    <activevideoangle>false</activevideoangle>
                    <activeaudioangle>false</activeaudioangle>
                    <clip id="clip-1"/>
                  </angle>
                  <angle>
                    <activevideoangle>false</activevideoangle>
                    <activeaudioangle>false</activeaudioangle>
                    <clip id="clip-2"/>
                  </angle>
                  <angle>
                    <activevideoangle>true</activevideoangle>
                    <activeaudioangle>true</activeaudioangle>
                    <clip id="clip-3"/>
                  </angle>
                  <angle>
                    <activevideoangle>false</activevideoangle>
                    <activeaudioangle>false</activeaudioangle>
                    <clip id="clip-4"/>
                  </angle>
                  <angle>
                    <activevideoangle>false</activevideoangle>
                    <activeaudioangle>false</activeaudioangle>
                    <clip id="clip-5"/>
                  </angle>
                  <angle>
                    <activevideoangle>false</activevideoangle>
                    <activeaudioangle>false</activeaudioangle>
                    <clip id="clip-6"/>
                  </angle>
                  <angle>
                    <activevideoangle>false</activevideoangle>
                    <activeaudioangle>false</activeaudioangle>
                    <clip id="clip-7"/>
                  </angle>
                  <masterclipid>clip-master</masterclipid>
                </multiclip>
              </clipitem>
              <clipitem id="cs-137">
                <duration>99</duration>
                <rate>
                  <ntsc>false</ntsc>
                  <timebase>25</timebase>
                </rate>
                <in>13449</in>
                <out>13547</out>
                <start>13449</start>
                <end>13547</end>
                <file id="src-2"/>
                <sourcetrack>
                  <mediatype>video</mediatype>
                  <trackindex>1</trackindex>
                </sourcetrack>
                <multiclip id="mcs-137">
                  <name>MCS-137</name>
                  <masterclipid>clip-master</masterclipid>
                  <collapsed>false</collapsed>
                  <angle>
                    <activevideoangle>false</activevideoangle>
                    <activeaudioangle>false</activeaudioangle>
                    <clip id="clip-1"/>
                  </angle>
                  <angle>
                    <activevideoangle>true</activevideoangle>
                    <activeaudioangle>true</activeaudioangle>
                    <clip id="clip-2"/>
                  </angle>
                  <angle>
                    <activevideoangle>false</activevideoangle>
                    <activeaudioangle>false</activeaudioangle>
                    <clip id="clip-3"/>
                  </angle>
                  <angle>
                    <activevideoangle>false</activevideoangle>
                    <activeaudioangle>false</activeaudioangle>
                    <clip id="clip-4"/>
                  </angle>
                  <angle>
                    <activevideoangle>false</activevideoangle>
                    <activeaudioangle>false</activeaudioangle>
                    <clip id="clip-5"/>
                  </angle>
                  <angle>
                    <activevideoangle>false</activevideoangle>
                    <activeaudioangle>false</activeaudioangle>
                    <clip id="clip-6"/>
                  </angle>
                  <angle>
                    <activevideoangle>false</activevideoangle>
                    <activeaudioangle>false</activeaudioangle>
                    <clip id="clip-7"/>
                  </angle>
                  <masterclipid>clip-master</masterclipid>
                </multiclip>
              </clipitem>
              <clipitem id="cs-138">
                <duration>145</duration>
                <rate>
                  <ntsc>false</ntsc>
                  <timebase>25</timebase>
                </rate>
                <in>13547</in>
                <out>13691</out>
                <start>13547</start>
                <end>13691</end>
                <file id="src-3"/>
                <sourcetrack>
                  <mediatype>video</mediatype>
                  <trackindex>1</trackindex>
                </sourcetrack>
                <multiclip id="mcs-138">
                  <name>MCS-138</name>
                  <masterclipid>clip-master</masterclipid>
                  <collapsed>false</collapsed>
                  <angle>
                    <activevideoangle>false</activevideoangle>
                    <activeaudioangle>false</activeaudioangle>
                    <clip id="clip-1"/>
                  </angle>
                  <angle>
                    <activevideoangle>false</activevideoangle>
                    <activeaudioangle>false</activeaudioangle>
                    <clip id="clip-2"/>
                  </angle>
                  <angle>
                    <activevideoangle>true</activevideoangle>
                    <activeaudioangle>true</activeaudioangle>
                    <clip id="clip-3"/>
                  </angle>
                  <angle>
                    <activevideoangle>false</activevideoangle>
                    <activeaudioangle>false</activeaudioangle>
                    <clip id="clip-4"/>
                  </angle>
                  <angle>
                    <activevideoangle>false</activevideoangle>
                    <activeaudioangle>false</activeaudioangle>
                    <clip id="clip-5"/>
                  </angle>
                  <angle>
                    <activevideoangle>false</activevideoangle>
                    <activeaudioangle>false</activeaudioangle>
                    <clip id="clip-6"/>
                  </angle>
                  <angle>
                    <activevideoangle>false</activevideoangle>
                    <activeaudioangle>false</activeaudioangle>
                    <clip id="clip-7"/>
                  </angle>
                  <masterclipid>clip-master</masterclipid>
                </multiclip>
              </clipitem>
              <clipitem id="cs-139">
                <duration>74</duration>
                <rate>
                  <ntsc>false</ntsc>
                  <timebase>25</timebase>
                </rate>
                <in>13691</in>
                <out>13764</out>
                <start>13691</start>
                <end>13764</end>
                <file id="src-4"/>
                <sourcetrack>
                  <mediatype>video</mediatype>
                  <trackindex>1</trackindex>
                </sourcetrack>
                <multiclip id="mcs-139">
                  <name>MCS-139</name>
                  <masterclipid>clip-master</masterclipid>
                  <collapsed>false</collapsed>
                  <angle>
                    <activevideoangle>false</activevideoangle>
                    <activeaudioangle>false</activeaudioangle>
                    <clip id="clip-1"/>
                  </angle>
                  <angle>
                    <activevideoangle>false</activevideoangle>
                    <activeaudioangle>false</activeaudioangle>
                    <clip id="clip-2"/>
                  </angle>
                  <angle>
                    <activevideoangle>false</activevideoangle>
                    <activeaudioangle>false</activeaudioangle>
                    <clip id="clip-3"/>
                  </angle>
                  <angle>
                    <activevideoangle>true</activevideoangle>
                    <activeaudioangle>true</activeaudioangle>
                    <clip id="clip-4"/>
                  </angle>
                  <angle>
                    <activevideoangle>false</activevideoangle>
                    <activeaudioangle>false</activeaudioangle>
                    <clip id="clip-5"/>
                  </angle>
                  <angle>
                    <activevideoangle>false</activevideoangle>
                    <activeaudioangle>false</activeaudioangle>
                    <clip id="clip-6"/>
                  </angle>
                  <angle>
                    <activevideoangle>false</activevideoangle>
                    <activeaudioangle>false</activeaudioangle>
                    <clip id="clip-7"/>
                  </angle>
                  <masterclipid>clip-master</masterclipid>
                </multiclip>
              </clipitem>
              <clipitem id="cs-140">
                <duration>52</duration>
                <rate>
                  <ntsc>false</ntsc>
                  <timebase>25</timebase>
                </rate>
                <in>13764</in>
                <out>13815</out>
                <start>13764</start>
                <end>13815</end>
                <file id="src-6"/>
                <sourcetrack>
                  <mediatype>video</mediatype>
                  <trackindex>1</trackindex>
                </sourcetrack>
                <multiclip id="mcs-140">
                  <name>MCS-140</name>
                  <masterclipid>clip-master</masterclipid>
                  <collapsed>false</collapsed>
                  <angle>
                    <activevideoangle>false</activevideoangle>
                    <activeaudioangle>false</activeaudioangle>
                    <clip id="clip-1"/>
                  </angle>
                  <angle>
                    <activevideoangle>false</activevideoangle>
                    <activeaudioangle>false</activeaudioangle>
                    <clip id="clip-2"/>
                  </angle>
                  <angle>
                    <activevideoangle>false</activevideoangle>
                    <activeaudioangle>false</activeaudioangle>
                    <clip id="clip-3"/>
                  </angle>
                  <angle>
                    <activevideoangle>false</activevideoangle>
                    <activeaudioangle>false</activeaudioangle>
                    <clip id="clip-4"/>
                  </angle>
                  <angle>
                    <activevideoangle>false</activevideoangle>
                    <activeaudioangle>false</activeaudioangle>
                    <clip id="clip-5"/>
                  </angle>
                  <angle>
                    <activevideoangle>true</activevideoangle>
                    <activeaudioangle>true</activeaudioangle>
                    <clip id="clip-6"/>
                  </angle>
                  <angle>
                    <activevideoangle>false</activevideoangle>
                    <activeaudioangle>false</activeaudioangle>
                    <clip id="clip-7"/>
                  </angle>
                  <masterclipid>clip-master</masterclipid>
                </multiclip>
              </clipitem>
              <clipitem id="cs-141">
                <duration>131</duration>
                <rate>
                  <ntsc>false</ntsc>
                  <timebase>25</timebase>
                </rate>
                <in>13815</in>
                <out>13945</out>
                <start>13815</start>
                <end>13945</end>
                <file id="src-1"/>
                <sourcetrack>
                  <mediatype>video</mediatype>
                  <trackindex>1</trackindex>
                </sourcetrack>
                <multiclip id="mcs-141">
                  <name>MCS-141</name>
                  <masterclipid>clip-master</masterclipid>
                  <collapsed>false</collapsed>
                  <angle>
                    <activevideoangle>true</activevideoangle>
                    <activeaudioangle>true</activeaudioangle>
                    <clip id="clip-1"/>
                  </angle>
                  <angle>
                    <activevideoangle>false</activevideoangle>
                    <activeaudioangle>false</activeaudioangle>
                    <clip id="clip-2"/>
                  </angle>
                  <angle>
                    <activevideoangle>false</activevideoangle>
                    <activeaudioangle>false</activeaudioangle>
                    <clip id="clip-3"/>
                  </angle>
                  <angle>
                    <activevideoangle>false</activevideoangle>
                    <activeaudioangle>false</activeaudioangle>
                    <clip id="clip-4"/>
                  </angle>
                  <angle>
                    <activevideoangle>false</activevideoangle>
                    <activeaudioangle>false</activeaudioangle>
                    <clip id="clip-5"/>
                  </angle>
                  <angle>
                    <activevideoangle>false</activevideoangle>
                    <activeaudioangle>false</activeaudioangle>
                    <clip id="clip-6"/>
                  </angle>
                  <angle>
                    <activevideoangle>false</activevideoangle>
                    <activeaudioangle>false</activeaudioangle>
                    <clip id="clip-7"/>
                  </angle>
                  <masterclipid>clip-master</masterclipid>
                </multiclip>
              </clipitem>
              <clipitem id="cs-142">
                <duration>69</duration>
                <rate>
                  <ntsc>false</ntsc>
                  <timebase>25</timebase>
                </rate>
                <in>13945</in>
                <out>14013</out>
                <start>13945</start>
                <end>14013</end>
                <file id="src-3"/>
                <sourcetrack>
                  <mediatype>video</mediatype>
                  <trackindex>1</trackindex>
                </sourcetrack>
                <multiclip id="mcs-142">
                  <name>MCS-142</name>
                  <masterclipid>clip-master</masterclipid>
                  <collapsed>false</collapsed>
                  <angle>
                    <activevideoangle>false</activevideoangle>
                    <activeaudioangle>false</activeaudioangle>
                    <clip id="clip-1"/>
                  </angle>
                  <angle>
                    <activevideoangle>false</activevideoangle>
                    <activeaudioangle>false</activeaudioangle>
                    <clip id="clip-2"/>
                  </angle>
                  <angle>
                    <activevideoangle>true</activevideoangle>
                    <activeaudioangle>true</activeaudioangle>
                    <clip id="clip-3"/>
                  </angle>
                  <angle>
                    <activevideoangle>false</activevideoangle>
                    <activeaudioangle>false</activeaudioangle>
                    <clip id="clip-4"/>
                  </angle>
                  <angle>
                    <activevideoangle>false</activevideoangle>
                    <activeaudioangle>false</activeaudioangle>
                    <clip id="clip-5"/>
                  </angle>
                  <angle>
                    <activevideoangle>false</activevideoangle>
                    <activeaudioangle>false</activeaudioangle>
                    <clip id="clip-6"/>
                  </angle>
                  <angle>
                    <activevideoangle>false</activevideoangle>
                    <activeaudioangle>false</activeaudioangle>
                    <clip id="clip-7"/>
                  </angle>
                  <masterclipid>clip-master</masterclipid>
                </multiclip>
              </clipitem>
              <clipitem id="cs-143">
                <duration>98</duration>
                <rate>
                  <ntsc>false</ntsc>
                  <timebase>25</timebase>
                </rate>
                <in>14013</in>
                <out>14110</out>
                <start>14013</start>
                <end>14110</end>
                <file id="src-4"/>
                <sourcetrack>
                  <mediatype>video</mediatype>
                  <trackindex>1</trackindex>
                </sourcetrack>
                <multiclip id="mcs-143">
                  <name>MCS-143</name>
                  <masterclipid>clip-master</masterclipid>
                  <collapsed>false</collapsed>
                  <angle>
                    <activevideoangle>false</activevideoangle>
                    <activeaudioangle>false</activeaudioangle>
                    <clip id="clip-1"/>
                  </angle>
                  <angle>
                    <activevideoangle>false</activevideoangle>
                    <activeaudioangle>false</activeaudioangle>
                    <clip id="clip-2"/>
                  </angle>
                  <angle>
                    <activevideoangle>false</activevideoangle>
                    <activeaudioangle>false</activeaudioangle>
                    <clip id="clip-3"/>
                  </angle>
                  <angle>
                    <activevideoangle>true</activevideoangle>
                    <activeaudioangle>true</activeaudioangle>
                    <clip id="clip-4"/>
                  </angle>
                  <angle>
                    <activevideoangle>false</activevideoangle>
                    <activeaudioangle>false</activeaudioangle>
                    <clip id="clip-5"/>
                  </angle>
                  <angle>
                    <activevideoangle>false</activevideoangle>
                    <activeaudioangle>false</activeaudioangle>
                    <clip id="clip-6"/>
                  </angle>
                  <angle>
                    <activevideoangle>false</activevideoangle>
                    <activeaudioangle>false</activeaudioangle>
                    <clip id="clip-7"/>
                  </angle>
                  <masterclipid>clip-master</masterclipid>
                </multiclip>
              </clipitem>
              <clipitem id="cs-144">
                <duration>143</duration>
                <rate>
                  <ntsc>false</ntsc>
                  <timebase>25</timebase>
                </rate>
                <in>14110</in>
                <out>14252</out>
                <start>14110</start>
                <end>14252</end>
                <file id="src-1"/>
                <sourcetrack>
                  <mediatype>video</mediatype>
                  <trackindex>1</trackindex>
                </sourcetrack>
                <multiclip id="mcs-144">
                  <name>MCS-144</name>
                  <masterclipid>clip-master</masterclipid>
                  <collapsed>false</collapsed>
                  <angle>
                    <activevideoangle>true</activevideoangle>
                    <activeaudioangle>true</activeaudioangle>
                    <clip id="clip-1"/>
                  </angle>
                  <angle>
                    <activevideoangle>false</activevideoangle>
                    <activeaudioangle>false</activeaudioangle>
                    <clip id="clip-2"/>
                  </angle>
                  <angle>
                    <activevideoangle>false</activevideoangle>
                    <activeaudioangle>false</activeaudioangle>
                    <clip id="clip-3"/>
                  </angle>
                  <angle>
                    <activevideoangle>false</activevideoangle>
                    <activeaudioangle>false</activeaudioangle>
                    <clip id="clip-4"/>
                  </angle>
                  <angle>
                    <activevideoangle>false</activevideoangle>
                    <activeaudioangle>false</activeaudioangle>
                    <clip id="clip-5"/>
                  </angle>
                  <angle>
                    <activevideoangle>false</activevideoangle>
                    <activeaudioangle>false</activeaudioangle>
                    <clip id="clip-6"/>
                  </angle>
                  <angle>
                    <activevideoangle>false</activevideoangle>
                    <activeaudioangle>false</activeaudioangle>
                    <clip id="clip-7"/>
                  </angle>
                  <masterclipid>clip-master</masterclipid>
                </multiclip>
              </clipitem>
              <clipitem id="cs-145">
                <duration>116</duration>
                <rate>
                  <ntsc>false</ntsc>
                  <timebase>25</timebase>
                </rate>
                <in>14252</in>
                <out>14367</out>
                <start>14252</start>
                <end>14367</end>
                <file id="src-6"/>
                <sourcetrack>
                  <mediatype>video</mediatype>
                  <trackindex>1</trackindex>
                </sourcetrack>
                <multiclip id="mcs-145">
                  <name>MCS-145</name>
                  <masterclipid>clip-master</masterclipid>
                  <collapsed>false</collapsed>
                  <angle>
                    <activevideoangle>false</activevideoangle>
                    <activeaudioangle>false</activeaudioangle>
                    <clip id="clip-1"/>
                  </angle>
                  <angle>
                    <activevideoangle>false</activevideoangle>
                    <activeaudioangle>false</activeaudioangle>
                    <clip id="clip-2"/>
                  </angle>
                  <angle>
                    <activevideoangle>false</activevideoangle>
                    <activeaudioangle>false</activeaudioangle>
                    <clip id="clip-3"/>
                  </angle>
                  <angle>
                    <activevideoangle>false</activevideoangle>
                    <activeaudioangle>false</activeaudioangle>
                    <clip id="clip-4"/>
                  </angle>
                  <angle>
                    <activevideoangle>false</activevideoangle>
                    <activeaudioangle>false</activeaudioangle>
                    <clip id="clip-5"/>
                  </angle>
                  <angle>
                    <activevideoangle>true</activevideoangle>
                    <activeaudioangle>true</activeaudioangle>
                    <clip id="clip-6"/>
                  </angle>
                  <angle>
                    <activevideoangle>false</activevideoangle>
                    <activeaudioangle>false</activeaudioangle>
                    <clip id="clip-7"/>
                  </angle>
                  <masterclipid>clip-master</masterclipid>
                </multiclip>
              </clipitem>
              <clipitem id="cs-146">
                <duration>95</duration>
                <rate>
                  <ntsc>false</ntsc>
                  <timebase>25</timebase>
                </rate>
                <in>14367</in>
                <out>14461</out>
                <start>14367</start>
                <end>14461</end>
                <file id="src-3"/>
                <sourcetrack>
                  <mediatype>video</mediatype>
                  <trackindex>1</trackindex>
                </sourcetrack>
                <multiclip id="mcs-146">
                  <name>MCS-146</name>
                  <masterclipid>clip-master</masterclipid>
                  <collapsed>false</collapsed>
                  <angle>
                    <activevideoangle>false</activevideoangle>
                    <activeaudioangle>false</activeaudioangle>
                    <clip id="clip-1"/>
                  </angle>
                  <angle>
                    <activevideoangle>false</activevideoangle>
                    <activeaudioangle>false</activeaudioangle>
                    <clip id="clip-2"/>
                  </angle>
                  <angle>
                    <activevideoangle>true</activevideoangle>
                    <activeaudioangle>true</activeaudioangle>
                    <clip id="clip-3"/>
                  </angle>
                  <angle>
                    <activevideoangle>false</activevideoangle>
                    <activeaudioangle>false</activeaudioangle>
                    <clip id="clip-4"/>
                  </angle>
                  <angle>
                    <activevideoangle>false</activevideoangle>
                    <activeaudioangle>false</activeaudioangle>
                    <clip id="clip-5"/>
                  </angle>
                  <angle>
                    <activevideoangle>false</activevideoangle>
                    <activeaudioangle>false</activeaudioangle>
                    <clip id="clip-6"/>
                  </angle>
                  <angle>
                    <activevideoangle>false</activevideoangle>
                    <activeaudioangle>false</activeaudioangle>
                    <clip id="clip-7"/>
                  </angle>
                  <masterclipid>clip-master</masterclipid>
                </multiclip>
              </clipitem>
              <clipitem id="cs-147">
                <duration>188</duration>
                <rate>
                  <ntsc>false</ntsc>
                  <timebase>25</timebase>
                </rate>
                <in>14461</in>
                <out>14648</out>
                <start>14461</start>
                <end>14648</end>
                <file id="src-2"/>
                <sourcetrack>
                  <mediatype>video</mediatype>
                  <trackindex>1</trackindex>
                </sourcetrack>
                <multiclip id="mcs-147">
                  <name>MCS-147</name>
                  <masterclipid>clip-master</masterclipid>
                  <collapsed>false</collapsed>
                  <angle>
                    <activevideoangle>false</activevideoangle>
                    <activeaudioangle>false</activeaudioangle>
                    <clip id="clip-1"/>
                  </angle>
                  <angle>
                    <activevideoangle>true</activevideoangle>
                    <activeaudioangle>true</activeaudioangle>
                    <clip id="clip-2"/>
                  </angle>
                  <angle>
                    <activevideoangle>false</activevideoangle>
                    <activeaudioangle>false</activeaudioangle>
                    <clip id="clip-3"/>
                  </angle>
                  <angle>
                    <activevideoangle>false</activevideoangle>
                    <activeaudioangle>false</activeaudioangle>
                    <clip id="clip-4"/>
                  </angle>
                  <angle>
                    <activevideoangle>false</activevideoangle>
                    <activeaudioangle>false</activeaudioangle>
                    <clip id="clip-5"/>
                  </angle>
                  <angle>
                    <activevideoangle>false</activevideoangle>
                    <activeaudioangle>false</activeaudioangle>
                    <clip id="clip-6"/>
                  </angle>
                  <angle>
                    <activevideoangle>false</activevideoangle>
                    <activeaudioangle>false</activeaudioangle>
                    <clip id="clip-7"/>
                  </angle>
                  <masterclipid>clip-master</masterclipid>
                </multiclip>
              </clipitem>
              <clipitem id="cs-148">
                <duration>84</duration>
                <rate>
                  <ntsc>false</ntsc>
                  <timebase>25</timebase>
                </rate>
                <in>14648</in>
                <out>14731</out>
                <start>14648</start>
                <end>14731</end>
                <file id="src-4"/>
                <sourcetrack>
                  <mediatype>video</mediatype>
                  <trackindex>1</trackindex>
                </sourcetrack>
                <multiclip id="mcs-148">
                  <name>MCS-148</name>
                  <masterclipid>clip-master</masterclipid>
                  <collapsed>false</collapsed>
                  <angle>
                    <activevideoangle>false</activevideoangle>
                    <activeaudioangle>false</activeaudioangle>
                    <clip id="clip-1"/>
                  </angle>
                  <angle>
                    <activevideoangle>false</activevideoangle>
                    <activeaudioangle>false</activeaudioangle>
                    <clip id="clip-2"/>
                  </angle>
                  <angle>
                    <activevideoangle>false</activevideoangle>
                    <activeaudioangle>false</activeaudioangle>
                    <clip id="clip-3"/>
                  </angle>
                  <angle>
                    <activevideoangle>true</activevideoangle>
                    <activeaudioangle>true</activeaudioangle>
                    <clip id="clip-4"/>
                  </angle>
                  <angle>
                    <activevideoangle>false</activevideoangle>
                    <activeaudioangle>false</activeaudioangle>
                    <clip id="clip-5"/>
                  </angle>
                  <angle>
                    <activevideoangle>false</activevideoangle>
                    <activeaudioangle>false</activeaudioangle>
                    <clip id="clip-6"/>
                  </angle>
                  <angle>
                    <activevideoangle>false</activevideoangle>
                    <activeaudioangle>false</activeaudioangle>
                    <clip id="clip-7"/>
                  </angle>
                  <masterclipid>clip-master</masterclipid>
                </multiclip>
              </clipitem>
              <clipitem id="cs-149">
                <duration>155</duration>
                <rate>
                  <ntsc>false</ntsc>
                  <timebase>25</timebase>
                </rate>
                <in>14731</in>
                <out>14885</out>
                <start>14731</start>
                <end>14885</end>
                <file id="src-2"/>
                <sourcetrack>
                  <mediatype>video</mediatype>
                  <trackindex>1</trackindex>
                </sourcetrack>
                <multiclip id="mcs-149">
                  <name>MCS-149</name>
                  <masterclipid>clip-master</masterclipid>
                  <collapsed>false</collapsed>
                  <angle>
                    <activevideoangle>false</activevideoangle>
                    <activeaudioangle>false</activeaudioangle>
                    <clip id="clip-1"/>
                  </angle>
                  <angle>
                    <activevideoangle>true</activevideoangle>
                    <activeaudioangle>true</activeaudioangle>
                    <clip id="clip-2"/>
                  </angle>
                  <angle>
                    <activevideoangle>false</activevideoangle>
                    <activeaudioangle>false</activeaudioangle>
                    <clip id="clip-3"/>
                  </angle>
                  <angle>
                    <activevideoangle>false</activevideoangle>
                    <activeaudioangle>false</activeaudioangle>
                    <clip id="clip-4"/>
                  </angle>
                  <angle>
                    <activevideoangle>false</activevideoangle>
                    <activeaudioangle>false</activeaudioangle>
                    <clip id="clip-5"/>
                  </angle>
                  <angle>
                    <activevideoangle>false</activevideoangle>
                    <activeaudioangle>false</activeaudioangle>
                    <clip id="clip-6"/>
                  </angle>
                  <angle>
                    <activevideoangle>false</activevideoangle>
                    <activeaudioangle>false</activeaudioangle>
                    <clip id="clip-7"/>
                  </angle>
                  <masterclipid>clip-master</masterclipid>
                </multiclip>
              </clipitem>
              <clipitem id="cs-150">
                <duration>142</duration>
                <rate>
                  <ntsc>false</ntsc>
                  <timebase>25</timebase>
                </rate>
                <in>14885</in>
                <out>15026</out>
                <start>14885</start>
                <end>15026</end>
                <file id="src-3"/>
                <sourcetrack>
                  <mediatype>video</mediatype>
                  <trackindex>1</trackindex>
                </sourcetrack>
                <multiclip id="mcs-150">
                  <name>MCS-150</name>
                  <masterclipid>clip-master</masterclipid>
                  <collapsed>false</collapsed>
                  <angle>
                    <activevideoangle>false</activevideoangle>
                    <activeaudioangle>false</activeaudioangle>
                    <clip id="clip-1"/>
                  </angle>
                  <angle>
                    <activevideoangle>false</activevideoangle>
                    <activeaudioangle>false</activeaudioangle>
                    <clip id="clip-2"/>
                  </angle>
                  <angle>
                    <activevideoangle>true</activevideoangle>
                    <activeaudioangle>true</activeaudioangle>
                    <clip id="clip-3"/>
                  </angle>
                  <angle>
                    <activevideoangle>false</activevideoangle>
                    <activeaudioangle>false</activeaudioangle>
                    <clip id="clip-4"/>
                  </angle>
                  <angle>
                    <activevideoangle>false</activevideoangle>
                    <activeaudioangle>false</activeaudioangle>
                    <clip id="clip-5"/>
                  </angle>
                  <angle>
                    <activevideoangle>false</activevideoangle>
                    <activeaudioangle>false</activeaudioangle>
                    <clip id="clip-6"/>
                  </angle>
                  <angle>
                    <activevideoangle>false</activevideoangle>
                    <activeaudioangle>false</activeaudioangle>
                    <clip id="clip-7"/>
                  </angle>
                  <masterclipid>clip-master</masterclipid>
                </multiclip>
              </clipitem>
              <clipitem id="cs-151">
                <duration>85</duration>
                <rate>
                  <ntsc>false</ntsc>
                  <timebase>25</timebase>
                </rate>
                <in>15026</in>
                <out>15110</out>
                <start>15026</start>
                <end>15110</end>
                <file id="src-2"/>
                <sourcetrack>
                  <mediatype>video</mediatype>
                  <trackindex>1</trackindex>
                </sourcetrack>
                <multiclip id="mcs-151">
                  <name>MCS-151</name>
                  <masterclipid>clip-master</masterclipid>
                  <collapsed>false</collapsed>
                  <angle>
                    <activevideoangle>false</activevideoangle>
                    <activeaudioangle>false</activeaudioangle>
                    <clip id="clip-1"/>
                  </angle>
                  <angle>
                    <activevideoangle>true</activevideoangle>
                    <activeaudioangle>true</activeaudioangle>
                    <clip id="clip-2"/>
                  </angle>
                  <angle>
                    <activevideoangle>false</activevideoangle>
                    <activeaudioangle>false</activeaudioangle>
                    <clip id="clip-3"/>
                  </angle>
                  <angle>
                    <activevideoangle>false</activevideoangle>
                    <activeaudioangle>false</activeaudioangle>
                    <clip id="clip-4"/>
                  </angle>
                  <angle>
                    <activevideoangle>false</activevideoangle>
                    <activeaudioangle>false</activeaudioangle>
                    <clip id="clip-5"/>
                  </angle>
                  <angle>
                    <activevideoangle>false</activevideoangle>
                    <activeaudioangle>false</activeaudioangle>
                    <clip id="clip-6"/>
                  </angle>
                  <angle>
                    <activevideoangle>false</activevideoangle>
                    <activeaudioangle>false</activeaudioangle>
                    <clip id="clip-7"/>
                  </angle>
                  <masterclipid>clip-master</masterclipid>
                </multiclip>
              </clipitem>
              <clipitem id="cs-152">
                <duration>79</duration>
                <rate>
                  <ntsc>false</ntsc>
                  <timebase>25</timebase>
                </rate>
                <in>15110</in>
                <out>15188</out>
                <start>15110</start>
                <end>15188</end>
                <file id="src-4"/>
                <sourcetrack>
                  <mediatype>video</mediatype>
                  <trackindex>1</trackindex>
                </sourcetrack>
                <multiclip id="mcs-152">
                  <name>MCS-152</name>
                  <masterclipid>clip-master</masterclipid>
                  <collapsed>false</collapsed>
                  <angle>
                    <activevideoangle>false</activevideoangle>
                    <activeaudioangle>false</activeaudioangle>
                    <clip id="clip-1"/>
                  </angle>
                  <angle>
                    <activevideoangle>false</activevideoangle>
                    <activeaudioangle>false</activeaudioangle>
                    <clip id="clip-2"/>
                  </angle>
                  <angle>
                    <activevideoangle>false</activevideoangle>
                    <activeaudioangle>false</activeaudioangle>
                    <clip id="clip-3"/>
                  </angle>
                  <angle>
                    <activevideoangle>true</activevideoangle>
                    <activeaudioangle>true</activeaudioangle>
                    <clip id="clip-4"/>
                  </angle>
                  <angle>
                    <activevideoangle>false</activevideoangle>
                    <activeaudioangle>false</activeaudioangle>
                    <clip id="clip-5"/>
                  </angle>
                  <angle>
                    <activevideoangle>false</activevideoangle>
                    <activeaudioangle>false</activeaudioangle>
                    <clip id="clip-6"/>
                  </angle>
                  <angle>
                    <activevideoangle>false</activevideoangle>
                    <activeaudioangle>false</activeaudioangle>
                    <clip id="clip-7"/>
                  </angle>
                  <masterclipid>clip-master</masterclipid>
                </multiclip>
              </clipitem>
              <clipitem id="cs-153">
                <duration>154</duration>
                <rate>
                  <ntsc>false</ntsc>
                  <timebase>25</timebase>
                </rate>
                <in>15188</in>
                <out>15341</out>
                <start>15188</start>
                <end>15341</end>
                <file id="src-3"/>
                <sourcetrack>
                  <mediatype>video</mediatype>
                  <trackindex>1</trackindex>
                </sourcetrack>
                <multiclip id="mcs-153">
                  <name>MCS-153</name>
                  <masterclipid>clip-master</masterclipid>
                  <collapsed>false</collapsed>
                  <angle>
                    <activevideoangle>false</activevideoangle>
                    <activeaudioangle>false</activeaudioangle>
                    <clip id="clip-1"/>
                  </angle>
                  <angle>
                    <activevideoangle>false</activevideoangle>
                    <activeaudioangle>false</activeaudioangle>
                    <clip id="clip-2"/>
                  </angle>
                  <angle>
                    <activevideoangle>true</activevideoangle>
                    <activeaudioangle>true</activeaudioangle>
                    <clip id="clip-3"/>
                  </angle>
                  <angle>
                    <activevideoangle>false</activevideoangle>
                    <activeaudioangle>false</activeaudioangle>
                    <clip id="clip-4"/>
                  </angle>
                  <angle>
                    <activevideoangle>false</activevideoangle>
                    <activeaudioangle>false</activeaudioangle>
                    <clip id="clip-5"/>
                  </angle>
                  <angle>
                    <activevideoangle>false</activevideoangle>
                    <activeaudioangle>false</activeaudioangle>
                    <clip id="clip-6"/>
                  </angle>
                  <angle>
                    <activevideoangle>false</activevideoangle>
                    <activeaudioangle>false</activeaudioangle>
                    <clip id="clip-7"/>
                  </angle>
                  <masterclipid>clip-master</masterclipid>
                </multiclip>
              </clipitem>
              <clipitem id="cs-154">
                <duration>124</duration>
                <rate>
                  <ntsc>false</ntsc>
                  <timebase>25</timebase>
                </rate>
                <in>15341</in>
                <out>15464</out>
                <start>15341</start>
                <end>15464</end>
                <file id="src-2"/>
                <sourcetrack>
                  <mediatype>video</mediatype>
                  <trackindex>1</trackindex>
                </sourcetrack>
                <multiclip id="mcs-154">
                  <name>MCS-154</name>
                  <masterclipid>clip-master</masterclipid>
                  <collapsed>false</collapsed>
                  <angle>
                    <activevideoangle>false</activevideoangle>
                    <activeaudioangle>false</activeaudioangle>
                    <clip id="clip-1"/>
                  </angle>
                  <angle>
                    <activevideoangle>true</activevideoangle>
                    <activeaudioangle>true</activeaudioangle>
                    <clip id="clip-2"/>
                  </angle>
                  <angle>
                    <activevideoangle>false</activevideoangle>
                    <activeaudioangle>false</activeaudioangle>
                    <clip id="clip-3"/>
                  </angle>
                  <angle>
                    <activevideoangle>false</activevideoangle>
                    <activeaudioangle>false</activeaudioangle>
                    <clip id="clip-4"/>
                  </angle>
                  <angle>
                    <activevideoangle>false</activevideoangle>
                    <activeaudioangle>false</activeaudioangle>
                    <clip id="clip-5"/>
                  </angle>
                  <angle>
                    <activevideoangle>false</activevideoangle>
                    <activeaudioangle>false</activeaudioangle>
                    <clip id="clip-6"/>
                  </angle>
                  <angle>
                    <activevideoangle>false</activevideoangle>
                    <activeaudioangle>false</activeaudioangle>
                    <clip id="clip-7"/>
                  </angle>
                  <masterclipid>clip-master</masterclipid>
                </multiclip>
              </clipitem>
              <clipitem id="cs-155">
                <duration>228</duration>
                <rate>
                  <ntsc>false</ntsc>
                  <timebase>25</timebase>
                </rate>
                <in>15464</in>
                <out>15691</out>
                <start>15464</start>
                <end>15691</end>
                <file id="src-3"/>
                <sourcetrack>
                  <mediatype>video</mediatype>
                  <trackindex>1</trackindex>
                </sourcetrack>
                <multiclip id="mcs-155">
                  <name>MCS-155</name>
                  <masterclipid>clip-master</masterclipid>
                  <collapsed>false</collapsed>
                  <angle>
                    <activevideoangle>false</activevideoangle>
                    <activeaudioangle>false</activeaudioangle>
                    <clip id="clip-1"/>
                  </angle>
                  <angle>
                    <activevideoangle>false</activevideoangle>
                    <activeaudioangle>false</activeaudioangle>
                    <clip id="clip-2"/>
                  </angle>
                  <angle>
                    <activevideoangle>true</activevideoangle>
                    <activeaudioangle>true</activeaudioangle>
                    <clip id="clip-3"/>
                  </angle>
                  <angle>
                    <activevideoangle>false</activevideoangle>
                    <activeaudioangle>false</activeaudioangle>
                    <clip id="clip-4"/>
                  </angle>
                  <angle>
                    <activevideoangle>false</activevideoangle>
                    <activeaudioangle>false</activeaudioangle>
                    <clip id="clip-5"/>
                  </angle>
                  <angle>
                    <activevideoangle>false</activevideoangle>
                    <activeaudioangle>false</activeaudioangle>
                    <clip id="clip-6"/>
                  </angle>
                  <angle>
                    <activevideoangle>false</activevideoangle>
                    <activeaudioangle>false</activeaudioangle>
                    <clip id="clip-7"/>
                  </angle>
                  <masterclipid>clip-master</masterclipid>
                </multiclip>
              </clipitem>
              <clipitem id="cs-156">
                <duration>71</duration>
                <rate>
                  <ntsc>false</ntsc>
                  <timebase>25</timebase>
                </rate>
                <in>15691</in>
                <out>15761</out>
                <start>15691</start>
                <end>15761</end>
                <file id="src-6"/>
                <sourcetrack>
                  <mediatype>video</mediatype>
                  <trackindex>1</trackindex>
                </sourcetrack>
                <multiclip id="mcs-156">
                  <name>MCS-156</name>
                  <masterclipid>clip-master</masterclipid>
                  <collapsed>false</collapsed>
                  <angle>
                    <activevideoangle>false</activevideoangle>
                    <activeaudioangle>false</activeaudioangle>
                    <clip id="clip-1"/>
                  </angle>
                  <angle>
                    <activevideoangle>false</activevideoangle>
                    <activeaudioangle>false</activeaudioangle>
                    <clip id="clip-2"/>
                  </angle>
                  <angle>
                    <activevideoangle>false</activevideoangle>
                    <activeaudioangle>false</activeaudioangle>
                    <clip id="clip-3"/>
                  </angle>
                  <angle>
                    <activevideoangle>false</activevideoangle>
                    <activeaudioangle>false</activeaudioangle>
                    <clip id="clip-4"/>
                  </angle>
                  <angle>
                    <activevideoangle>false</activevideoangle>
                    <activeaudioangle>false</activeaudioangle>
                    <clip id="clip-5"/>
                  </angle>
                  <angle>
                    <activevideoangle>true</activevideoangle>
                    <activeaudioangle>true</activeaudioangle>
                    <clip id="clip-6"/>
                  </angle>
                  <angle>
                    <activevideoangle>false</activevideoangle>
                    <activeaudioangle>false</activeaudioangle>
                    <clip id="clip-7"/>
                  </angle>
                  <masterclipid>clip-master</masterclipid>
                </multiclip>
              </clipitem>
              <clipitem id="cs-157">
                <duration>152</duration>
                <rate>
                  <ntsc>false</ntsc>
                  <timebase>25</timebase>
                </rate>
                <in>15761</in>
                <out>15912</out>
                <start>15761</start>
                <end>15912</end>
                <file id="src-3"/>
                <sourcetrack>
                  <mediatype>video</mediatype>
                  <trackindex>1</trackindex>
                </sourcetrack>
                <multiclip id="mcs-157">
                  <name>MCS-157</name>
                  <masterclipid>clip-master</masterclipid>
                  <collapsed>false</collapsed>
                  <angle>
                    <activevideoangle>false</activevideoangle>
                    <activeaudioangle>false</activeaudioangle>
                    <clip id="clip-1"/>
                  </angle>
                  <angle>
                    <activevideoangle>false</activevideoangle>
                    <activeaudioangle>false</activeaudioangle>
                    <clip id="clip-2"/>
                  </angle>
                  <angle>
                    <activevideoangle>true</activevideoangle>
                    <activeaudioangle>true</activeaudioangle>
                    <clip id="clip-3"/>
                  </angle>
                  <angle>
                    <activevideoangle>false</activevideoangle>
                    <activeaudioangle>false</activeaudioangle>
                    <clip id="clip-4"/>
                  </angle>
                  <angle>
                    <activevideoangle>false</activevideoangle>
                    <activeaudioangle>false</activeaudioangle>
                    <clip id="clip-5"/>
                  </angle>
                  <angle>
                    <activevideoangle>false</activevideoangle>
                    <activeaudioangle>false</activeaudioangle>
                    <clip id="clip-6"/>
                  </angle>
                  <angle>
                    <activevideoangle>false</activevideoangle>
                    <activeaudioangle>false</activeaudioangle>
                    <clip id="clip-7"/>
                  </angle>
                  <masterclipid>clip-master</masterclipid>
                </multiclip>
              </clipitem>
              <clipitem id="cs-158">
                <duration>321</duration>
                <rate>
                  <ntsc>false</ntsc>
                  <timebase>25</timebase>
                </rate>
                <in>15912</in>
                <out>16232</out>
                <start>15912</start>
                <end>16232</end>
                <file id="src-2"/>
                <sourcetrack>
                  <mediatype>video</mediatype>
                  <trackindex>1</trackindex>
                </sourcetrack>
                <multiclip id="mcs-158">
                  <name>MCS-158</name>
                  <masterclipid>clip-master</masterclipid>
                  <collapsed>false</collapsed>
                  <angle>
                    <activevideoangle>false</activevideoangle>
                    <activeaudioangle>false</activeaudioangle>
                    <clip id="clip-1"/>
                  </angle>
                  <angle>
                    <activevideoangle>true</activevideoangle>
                    <activeaudioangle>true</activeaudioangle>
                    <clip id="clip-2"/>
                  </angle>
                  <angle>
                    <activevideoangle>false</activevideoangle>
                    <activeaudioangle>false</activeaudioangle>
                    <clip id="clip-3"/>
                  </angle>
                  <angle>
                    <activevideoangle>false</activevideoangle>
                    <activeaudioangle>false</activeaudioangle>
                    <clip id="clip-4"/>
                  </angle>
                  <angle>
                    <activevideoangle>false</activevideoangle>
                    <activeaudioangle>false</activeaudioangle>
                    <clip id="clip-5"/>
                  </angle>
                  <angle>
                    <activevideoangle>false</activevideoangle>
                    <activeaudioangle>false</activeaudioangle>
                    <clip id="clip-6"/>
                  </angle>
                  <angle>
                    <activevideoangle>false</activevideoangle>
                    <activeaudioangle>false</activeaudioangle>
                    <clip id="clip-7"/>
                  </angle>
                  <masterclipid>clip-master</masterclipid>
                </multiclip>
              </clipitem>
              <clipitem id="cs-159">
                <duration>81</duration>
                <rate>
                  <ntsc>false</ntsc>
                  <timebase>25</timebase>
                </rate>
                <in>16232</in>
                <out>16312</out>
                <start>16232</start>
                <end>16312</end>
                <file id="src-1"/>
                <sourcetrack>
                  <mediatype>video</mediatype>
                  <trackindex>1</trackindex>
                </sourcetrack>
                <multiclip id="mcs-159">
                  <name>MCS-159</name>
                  <masterclipid>clip-master</masterclipid>
                  <collapsed>false</collapsed>
                  <angle>
                    <activevideoangle>true</activevideoangle>
                    <activeaudioangle>true</activeaudioangle>
                    <clip id="clip-1"/>
                  </angle>
                  <angle>
                    <activevideoangle>false</activevideoangle>
                    <activeaudioangle>false</activeaudioangle>
                    <clip id="clip-2"/>
                  </angle>
                  <angle>
                    <activevideoangle>false</activevideoangle>
                    <activeaudioangle>false</activeaudioangle>
                    <clip id="clip-3"/>
                  </angle>
                  <angle>
                    <activevideoangle>false</activevideoangle>
                    <activeaudioangle>false</activeaudioangle>
                    <clip id="clip-4"/>
                  </angle>
                  <angle>
                    <activevideoangle>false</activevideoangle>
                    <activeaudioangle>false</activeaudioangle>
                    <clip id="clip-5"/>
                  </angle>
                  <angle>
                    <activevideoangle>false</activevideoangle>
                    <activeaudioangle>false</activeaudioangle>
                    <clip id="clip-6"/>
                  </angle>
                  <angle>
                    <activevideoangle>false</activevideoangle>
                    <activeaudioangle>false</activeaudioangle>
                    <clip id="clip-7"/>
                  </angle>
                  <masterclipid>clip-master</masterclipid>
                </multiclip>
              </clipitem>
              <clipitem id="cs-160">
                <duration>74</duration>
                <rate>
                  <ntsc>false</ntsc>
                  <timebase>25</timebase>
                </rate>
                <in>16312</in>
                <out>16385</out>
                <start>16312</start>
                <end>16385</end>
                <file id="src-6"/>
                <sourcetrack>
                  <mediatype>video</mediatype>
                  <trackindex>1</trackindex>
                </sourcetrack>
                <multiclip id="mcs-160">
                  <name>MCS-160</name>
                  <masterclipid>clip-master</masterclipid>
                  <collapsed>false</collapsed>
                  <angle>
                    <activevideoangle>false</activevideoangle>
                    <activeaudioangle>false</activeaudioangle>
                    <clip id="clip-1"/>
                  </angle>
                  <angle>
                    <activevideoangle>false</activevideoangle>
                    <activeaudioangle>false</activeaudioangle>
                    <clip id="clip-2"/>
                  </angle>
                  <angle>
                    <activevideoangle>false</activevideoangle>
                    <activeaudioangle>false</activeaudioangle>
                    <clip id="clip-3"/>
                  </angle>
                  <angle>
                    <activevideoangle>false</activevideoangle>
                    <activeaudioangle>false</activeaudioangle>
                    <clip id="clip-4"/>
                  </angle>
                  <angle>
                    <activevideoangle>false</activevideoangle>
                    <activeaudioangle>false</activeaudioangle>
                    <clip id="clip-5"/>
                  </angle>
                  <angle>
                    <activevideoangle>true</activevideoangle>
                    <activeaudioangle>true</activeaudioangle>
                    <clip id="clip-6"/>
                  </angle>
                  <angle>
                    <activevideoangle>false</activevideoangle>
                    <activeaudioangle>false</activeaudioangle>
                    <clip id="clip-7"/>
                  </angle>
                  <masterclipid>clip-master</masterclipid>
                </multiclip>
              </clipitem>
              <clipitem id="cs-161">
                <duration>169</duration>
                <rate>
                  <ntsc>false</ntsc>
                  <timebase>25</timebase>
                </rate>
                <in>16385</in>
                <out>16553</out>
                <start>16385</start>
                <end>16553</end>
                <file id="src-3"/>
                <sourcetrack>
                  <mediatype>video</mediatype>
                  <trackindex>1</trackindex>
                </sourcetrack>
                <multiclip id="mcs-161">
                  <name>MCS-161</name>
                  <masterclipid>clip-master</masterclipid>
                  <collapsed>false</collapsed>
                  <angle>
                    <activevideoangle>false</activevideoangle>
                    <activeaudioangle>false</activeaudioangle>
                    <clip id="clip-1"/>
                  </angle>
                  <angle>
                    <activevideoangle>false</activevideoangle>
                    <activeaudioangle>false</activeaudioangle>
                    <clip id="clip-2"/>
                  </angle>
                  <angle>
                    <activevideoangle>true</activevideoangle>
                    <activeaudioangle>true</activeaudioangle>
                    <clip id="clip-3"/>
                  </angle>
                  <angle>
                    <activevideoangle>false</activevideoangle>
                    <activeaudioangle>false</activeaudioangle>
                    <clip id="clip-4"/>
                  </angle>
                  <angle>
                    <activevideoangle>false</activevideoangle>
                    <activeaudioangle>false</activeaudioangle>
                    <clip id="clip-5"/>
                  </angle>
                  <angle>
                    <activevideoangle>false</activevideoangle>
                    <activeaudioangle>false</activeaudioangle>
                    <clip id="clip-6"/>
                  </angle>
                  <angle>
                    <activevideoangle>false</activevideoangle>
                    <activeaudioangle>false</activeaudioangle>
                    <clip id="clip-7"/>
                  </angle>
                  <masterclipid>clip-master</masterclipid>
                </multiclip>
              </clipitem>
              <clipitem id="cs-162">
                <duration>118</duration>
                <rate>
                  <ntsc>false</ntsc>
                  <timebase>25</timebase>
                </rate>
                <in>16553</in>
                <out>16670</out>
                <start>16553</start>
                <end>16670</end>
                <file id="src-2"/>
                <sourcetrack>
                  <mediatype>video</mediatype>
                  <trackindex>1</trackindex>
                </sourcetrack>
                <multiclip id="mcs-162">
                  <name>MCS-162</name>
                  <masterclipid>clip-master</masterclipid>
                  <collapsed>false</collapsed>
                  <angle>
                    <activevideoangle>false</activevideoangle>
                    <activeaudioangle>false</activeaudioangle>
                    <clip id="clip-1"/>
                  </angle>
                  <angle>
                    <activevideoangle>true</activevideoangle>
                    <activeaudioangle>true</activeaudioangle>
                    <clip id="clip-2"/>
                  </angle>
                  <angle>
                    <activevideoangle>false</activevideoangle>
                    <activeaudioangle>false</activeaudioangle>
                    <clip id="clip-3"/>
                  </angle>
                  <angle>
                    <activevideoangle>false</activevideoangle>
                    <activeaudioangle>false</activeaudioangle>
                    <clip id="clip-4"/>
                  </angle>
                  <angle>
                    <activevideoangle>false</activevideoangle>
                    <activeaudioangle>false</activeaudioangle>
                    <clip id="clip-5"/>
                  </angle>
                  <angle>
                    <activevideoangle>false</activevideoangle>
                    <activeaudioangle>false</activeaudioangle>
                    <clip id="clip-6"/>
                  </angle>
                  <angle>
                    <activevideoangle>false</activevideoangle>
                    <activeaudioangle>false</activeaudioangle>
                    <clip id="clip-7"/>
                  </angle>
                  <masterclipid>clip-master</masterclipid>
                </multiclip>
              </clipitem>
              <clipitem id="cs-163">
                <duration>224</duration>
                <rate>
                  <ntsc>false</ntsc>
                  <timebase>25</timebase>
                </rate>
                <in>16670</in>
                <out>16893</out>
                <start>16670</start>
                <end>16893</end>
                <file id="src-3"/>
                <sourcetrack>
                  <mediatype>video</mediatype>
                  <trackindex>1</trackindex>
                </sourcetrack>
                <multiclip id="mcs-163">
                  <name>MCS-163</name>
                  <masterclipid>clip-master</masterclipid>
                  <collapsed>false</collapsed>
                  <angle>
                    <activevideoangle>false</activevideoangle>
                    <activeaudioangle>false</activeaudioangle>
                    <clip id="clip-1"/>
                  </angle>
                  <angle>
                    <activevideoangle>false</activevideoangle>
                    <activeaudioangle>false</activeaudioangle>
                    <clip id="clip-2"/>
                  </angle>
                  <angle>
                    <activevideoangle>true</activevideoangle>
                    <activeaudioangle>true</activeaudioangle>
                    <clip id="clip-3"/>
                  </angle>
                  <angle>
                    <activevideoangle>false</activevideoangle>
                    <activeaudioangle>false</activeaudioangle>
                    <clip id="clip-4"/>
                  </angle>
                  <angle>
                    <activevideoangle>false</activevideoangle>
                    <activeaudioangle>false</activeaudioangle>
                    <clip id="clip-5"/>
                  </angle>
                  <angle>
                    <activevideoangle>false</activevideoangle>
                    <activeaudioangle>false</activeaudioangle>
                    <clip id="clip-6"/>
                  </angle>
                  <angle>
                    <activevideoangle>false</activevideoangle>
                    <activeaudioangle>false</activeaudioangle>
                    <clip id="clip-7"/>
                  </angle>
                  <masterclipid>clip-master</masterclipid>
                </multiclip>
              </clipitem>
              <clipitem id="cs-164">
                <duration>70</duration>
                <rate>
                  <ntsc>false</ntsc>
                  <timebase>25</timebase>
                </rate>
                <in>16893</in>
                <out>16962</out>
                <start>16893</start>
                <end>16962</end>
                <file id="src-4"/>
                <sourcetrack>
                  <mediatype>video</mediatype>
                  <trackindex>1</trackindex>
                </sourcetrack>
                <multiclip id="mcs-164">
                  <name>MCS-164</name>
                  <masterclipid>clip-master</masterclipid>
                  <collapsed>false</collapsed>
                  <angle>
                    <activevideoangle>false</activevideoangle>
                    <activeaudioangle>false</activeaudioangle>
                    <clip id="clip-1"/>
                  </angle>
                  <angle>
                    <activevideoangle>false</activevideoangle>
                    <activeaudioangle>false</activeaudioangle>
                    <clip id="clip-2"/>
                  </angle>
                  <angle>
                    <activevideoangle>false</activevideoangle>
                    <activeaudioangle>false</activeaudioangle>
                    <clip id="clip-3"/>
                  </angle>
                  <angle>
                    <activevideoangle>true</activevideoangle>
                    <activeaudioangle>true</activeaudioangle>
                    <clip id="clip-4"/>
                  </angle>
                  <angle>
                    <activevideoangle>false</activevideoangle>
                    <activeaudioangle>false</activeaudioangle>
                    <clip id="clip-5"/>
                  </angle>
                  <angle>
                    <activevideoangle>false</activevideoangle>
                    <activeaudioangle>false</activeaudioangle>
                    <clip id="clip-6"/>
                  </angle>
                  <angle>
                    <activevideoangle>false</activevideoangle>
                    <activeaudioangle>false</activeaudioangle>
                    <clip id="clip-7"/>
                  </angle>
                  <masterclipid>clip-master</masterclipid>
                </multiclip>
              </clipitem>
              <clipitem id="cs-165">
                <duration>121</duration>
                <rate>
                  <ntsc>false</ntsc>
                  <timebase>25</timebase>
                </rate>
                <in>16962</in>
                <out>17082</out>
                <start>16962</start>
                <end>17082</end>
                <file id="src-2"/>
                <sourcetrack>
                  <mediatype>video</mediatype>
                  <trackindex>1</trackindex>
                </sourcetrack>
                <multiclip id="mcs-165">
                  <name>MCS-165</name>
                  <masterclipid>clip-master</masterclipid>
                  <collapsed>false</collapsed>
                  <angle>
                    <activevideoangle>false</activevideoangle>
                    <activeaudioangle>false</activeaudioangle>
                    <clip id="clip-1"/>
                  </angle>
                  <angle>
                    <activevideoangle>true</activevideoangle>
                    <activeaudioangle>true</activeaudioangle>
                    <clip id="clip-2"/>
                  </angle>
                  <angle>
                    <activevideoangle>false</activevideoangle>
                    <activeaudioangle>false</activeaudioangle>
                    <clip id="clip-3"/>
                  </angle>
                  <angle>
                    <activevideoangle>false</activevideoangle>
                    <activeaudioangle>false</activeaudioangle>
                    <clip id="clip-4"/>
                  </angle>
                  <angle>
                    <activevideoangle>false</activevideoangle>
                    <activeaudioangle>false</activeaudioangle>
                    <clip id="clip-5"/>
                  </angle>
                  <angle>
                    <activevideoangle>false</activevideoangle>
                    <activeaudioangle>false</activeaudioangle>
                    <clip id="clip-6"/>
                  </angle>
                  <angle>
                    <activevideoangle>false</activevideoangle>
                    <activeaudioangle>false</activeaudioangle>
                    <clip id="clip-7"/>
                  </angle>
                  <masterclipid>clip-master</masterclipid>
                </multiclip>
              </clipitem>
              <clipitem id="cs-166">
                <duration>131</duration>
                <rate>
                  <ntsc>false</ntsc>
                  <timebase>25</timebase>
                </rate>
                <in>17082</in>
                <out>17212</out>
                <start>17082</start>
                <end>17212</end>
                <file id="src-3"/>
                <sourcetrack>
                  <mediatype>video</mediatype>
                  <trackindex>1</trackindex>
                </sourcetrack>
                <multiclip id="mcs-166">
                  <name>MCS-166</name>
                  <masterclipid>clip-master</masterclipid>
                  <collapsed>false</collapsed>
                  <angle>
                    <activevideoangle>false</activevideoangle>
                    <activeaudioangle>false</activeaudioangle>
                    <clip id="clip-1"/>
                  </angle>
                  <angle>
                    <activevideoangle>false</activevideoangle>
                    <activeaudioangle>false</activeaudioangle>
                    <clip id="clip-2"/>
                  </angle>
                  <angle>
                    <activevideoangle>true</activevideoangle>
                    <activeaudioangle>true</activeaudioangle>
                    <clip id="clip-3"/>
                  </angle>
                  <angle>
                    <activevideoangle>false</activevideoangle>
                    <activeaudioangle>false</activeaudioangle>
                    <clip id="clip-4"/>
                  </angle>
                  <angle>
                    <activevideoangle>false</activevideoangle>
                    <activeaudioangle>false</activeaudioangle>
                    <clip id="clip-5"/>
                  </angle>
                  <angle>
                    <activevideoangle>false</activevideoangle>
                    <activeaudioangle>false</activeaudioangle>
                    <clip id="clip-6"/>
                  </angle>
                  <angle>
                    <activevideoangle>false</activevideoangle>
                    <activeaudioangle>false</activeaudioangle>
                    <clip id="clip-7"/>
                  </angle>
                  <masterclipid>clip-master</masterclipid>
                </multiclip>
              </clipitem>
              <clipitem id="cs-167">
                <duration>149</duration>
                <rate>
                  <ntsc>false</ntsc>
                  <timebase>25</timebase>
                </rate>
                <in>17212</in>
                <out>17360</out>
                <start>17212</start>
                <end>17360</end>
                <file id="src-2"/>
                <sourcetrack>
                  <mediatype>video</mediatype>
                  <trackindex>1</trackindex>
                </sourcetrack>
                <multiclip id="mcs-167">
                  <name>MCS-167</name>
                  <masterclipid>clip-master</masterclipid>
                  <collapsed>false</collapsed>
                  <angle>
                    <activevideoangle>false</activevideoangle>
                    <activeaudioangle>false</activeaudioangle>
                    <clip id="clip-1"/>
                  </angle>
                  <angle>
                    <activevideoangle>true</activevideoangle>
                    <activeaudioangle>true</activeaudioangle>
                    <clip id="clip-2"/>
                  </angle>
                  <angle>
                    <activevideoangle>false</activevideoangle>
                    <activeaudioangle>false</activeaudioangle>
                    <clip id="clip-3"/>
                  </angle>
                  <angle>
                    <activevideoangle>false</activevideoangle>
                    <activeaudioangle>false</activeaudioangle>
                    <clip id="clip-4"/>
                  </angle>
                  <angle>
                    <activevideoangle>false</activevideoangle>
                    <activeaudioangle>false</activeaudioangle>
                    <clip id="clip-5"/>
                  </angle>
                  <angle>
                    <activevideoangle>false</activevideoangle>
                    <activeaudioangle>false</activeaudioangle>
                    <clip id="clip-6"/>
                  </angle>
                  <angle>
                    <activevideoangle>false</activevideoangle>
                    <activeaudioangle>false</activeaudioangle>
                    <clip id="clip-7"/>
                  </angle>
                  <masterclipid>clip-master</masterclipid>
                </multiclip>
              </clipitem>
              <clipitem id="cs-168">
                <duration>139</duration>
                <rate>
                  <ntsc>false</ntsc>
                  <timebase>25</timebase>
                </rate>
                <in>17360</in>
                <out>17498</out>
                <start>17360</start>
                <end>17498</end>
                <file id="src-4"/>
                <sourcetrack>
                  <mediatype>video</mediatype>
                  <trackindex>1</trackindex>
                </sourcetrack>
                <multiclip id="mcs-168">
                  <name>MCS-168</name>
                  <masterclipid>clip-master</masterclipid>
                  <collapsed>false</collapsed>
                  <angle>
                    <activevideoangle>false</activevideoangle>
                    <activeaudioangle>false</activeaudioangle>
                    <clip id="clip-1"/>
                  </angle>
                  <angle>
                    <activevideoangle>false</activevideoangle>
                    <activeaudioangle>false</activeaudioangle>
                    <clip id="clip-2"/>
                  </angle>
                  <angle>
                    <activevideoangle>false</activevideoangle>
                    <activeaudioangle>false</activeaudioangle>
                    <clip id="clip-3"/>
                  </angle>
                  <angle>
                    <activevideoangle>true</activevideoangle>
                    <activeaudioangle>true</activeaudioangle>
                    <clip id="clip-4"/>
                  </angle>
                  <angle>
                    <activevideoangle>false</activevideoangle>
                    <activeaudioangle>false</activeaudioangle>
                    <clip id="clip-5"/>
                  </angle>
                  <angle>
                    <activevideoangle>false</activevideoangle>
                    <activeaudioangle>false</activeaudioangle>
                    <clip id="clip-6"/>
                  </angle>
                  <angle>
                    <activevideoangle>false</activevideoangle>
                    <activeaudioangle>false</activeaudioangle>
                    <clip id="clip-7"/>
                  </angle>
                  <masterclipid>clip-master</masterclipid>
                </multiclip>
              </clipitem>
              <clipitem id="cs-169">
                <duration>84</duration>
                <rate>
                  <ntsc>false</ntsc>
                  <timebase>25</timebase>
                </rate>
                <in>17498</in>
                <out>17581</out>
                <start>17498</start>
                <end>17581</end>
                <file id="src-1"/>
                <sourcetrack>
                  <mediatype>video</mediatype>
                  <trackindex>1</trackindex>
                </sourcetrack>
                <multiclip id="mcs-169">
                  <name>MCS-169</name>
                  <masterclipid>clip-master</masterclipid>
                  <collapsed>false</collapsed>
                  <angle>
                    <activevideoangle>true</activevideoangle>
                    <activeaudioangle>true</activeaudioangle>
                    <clip id="clip-1"/>
                  </angle>
                  <angle>
                    <activevideoangle>false</activevideoangle>
                    <activeaudioangle>false</activeaudioangle>
                    <clip id="clip-2"/>
                  </angle>
                  <angle>
                    <activevideoangle>false</activevideoangle>
                    <activeaudioangle>false</activeaudioangle>
                    <clip id="clip-3"/>
                  </angle>
                  <angle>
                    <activevideoangle>false</activevideoangle>
                    <activeaudioangle>false</activeaudioangle>
                    <clip id="clip-4"/>
                  </angle>
                  <angle>
                    <activevideoangle>false</activevideoangle>
                    <activeaudioangle>false</activeaudioangle>
                    <clip id="clip-5"/>
                  </angle>
                  <angle>
                    <activevideoangle>false</activevideoangle>
                    <activeaudioangle>false</activeaudioangle>
                    <clip id="clip-6"/>
                  </angle>
                  <angle>
                    <activevideoangle>false</activevideoangle>
                    <activeaudioangle>false</activeaudioangle>
                    <clip id="clip-7"/>
                  </angle>
                  <masterclipid>clip-master</masterclipid>
                </multiclip>
              </clipitem>
              <clipitem id="cs-170">
                <duration>212</duration>
                <rate>
                  <ntsc>false</ntsc>
                  <timebase>25</timebase>
                </rate>
                <in>17581</in>
                <out>17792</out>
                <start>17581</start>
                <end>17792</end>
                <file id="src-3"/>
                <sourcetrack>
                  <mediatype>video</mediatype>
                  <trackindex>1</trackindex>
                </sourcetrack>
                <multiclip id="mcs-170">
                  <name>MCS-170</name>
                  <masterclipid>clip-master</masterclipid>
                  <collapsed>false</collapsed>
                  <angle>
                    <activevideoangle>false</activevideoangle>
                    <activeaudioangle>false</activeaudioangle>
                    <clip id="clip-1"/>
                  </angle>
                  <angle>
                    <activevideoangle>false</activevideoangle>
                    <activeaudioangle>false</activeaudioangle>
                    <clip id="clip-2"/>
                  </angle>
                  <angle>
                    <activevideoangle>true</activevideoangle>
                    <activeaudioangle>true</activeaudioangle>
                    <clip id="clip-3"/>
                  </angle>
                  <angle>
                    <activevideoangle>false</activevideoangle>
                    <activeaudioangle>false</activeaudioangle>
                    <clip id="clip-4"/>
                  </angle>
                  <angle>
                    <activevideoangle>false</activevideoangle>
                    <activeaudioangle>false</activeaudioangle>
                    <clip id="clip-5"/>
                  </angle>
                  <angle>
                    <activevideoangle>false</activevideoangle>
                    <activeaudioangle>false</activeaudioangle>
                    <clip id="clip-6"/>
                  </angle>
                  <angle>
                    <activevideoangle>false</activevideoangle>
                    <activeaudioangle>false</activeaudioangle>
                    <clip id="clip-7"/>
                  </angle>
                  <masterclipid>clip-master</masterclipid>
                </multiclip>
              </clipitem>
              <clipitem id="cs-171">
                <duration>68</duration>
                <rate>
                  <ntsc>false</ntsc>
                  <timebase>25</timebase>
                </rate>
                <in>17792</in>
                <out>17859</out>
                <start>17792</start>
                <end>17859</end>
                <file id="src-2"/>
                <sourcetrack>
                  <mediatype>video</mediatype>
                  <trackindex>1</trackindex>
                </sourcetrack>
                <multiclip id="mcs-171">
                  <name>MCS-171</name>
                  <masterclipid>clip-master</masterclipid>
                  <collapsed>false</collapsed>
                  <angle>
                    <activevideoangle>false</activevideoangle>
                    <activeaudioangle>false</activeaudioangle>
                    <clip id="clip-1"/>
                  </angle>
                  <angle>
                    <activevideoangle>true</activevideoangle>
                    <activeaudioangle>true</activeaudioangle>
                    <clip id="clip-2"/>
                  </angle>
                  <angle>
                    <activevideoangle>false</activevideoangle>
                    <activeaudioangle>false</activeaudioangle>
                    <clip id="clip-3"/>
                  </angle>
                  <angle>
                    <activevideoangle>false</activevideoangle>
                    <activeaudioangle>false</activeaudioangle>
                    <clip id="clip-4"/>
                  </angle>
                  <angle>
                    <activevideoangle>false</activevideoangle>
                    <activeaudioangle>false</activeaudioangle>
                    <clip id="clip-5"/>
                  </angle>
                  <angle>
                    <activevideoangle>false</activevideoangle>
                    <activeaudioangle>false</activeaudioangle>
                    <clip id="clip-6"/>
                  </angle>
                  <angle>
                    <activevideoangle>false</activevideoangle>
                    <activeaudioangle>false</activeaudioangle>
                    <clip id="clip-7"/>
                  </angle>
                  <masterclipid>clip-master</masterclipid>
                </multiclip>
              </clipitem>
              <clipitem id="cs-172">
                <duration>83</duration>
                <rate>
                  <ntsc>false</ntsc>
                  <timebase>25</timebase>
                </rate>
                <in>17859</in>
                <out>17941</out>
                <start>17859</start>
                <end>17941</end>
                <file id="src-3"/>
                <sourcetrack>
                  <mediatype>video</mediatype>
                  <trackindex>1</trackindex>
                </sourcetrack>
                <multiclip id="mcs-172">
                  <name>MCS-172</name>
                  <masterclipid>clip-master</masterclipid>
                  <collapsed>false</collapsed>
                  <angle>
                    <activevideoangle>false</activevideoangle>
                    <activeaudioangle>false</activeaudioangle>
                    <clip id="clip-1"/>
                  </angle>
                  <angle>
                    <activevideoangle>false</activevideoangle>
                    <activeaudioangle>false</activeaudioangle>
                    <clip id="clip-2"/>
                  </angle>
                  <angle>
                    <activevideoangle>true</activevideoangle>
                    <activeaudioangle>true</activeaudioangle>
                    <clip id="clip-3"/>
                  </angle>
                  <angle>
                    <activevideoangle>false</activevideoangle>
                    <activeaudioangle>false</activeaudioangle>
                    <clip id="clip-4"/>
                  </angle>
                  <angle>
                    <activevideoangle>false</activevideoangle>
                    <activeaudioangle>false</activeaudioangle>
                    <clip id="clip-5"/>
                  </angle>
                  <angle>
                    <activevideoangle>false</activevideoangle>
                    <activeaudioangle>false</activeaudioangle>
                    <clip id="clip-6"/>
                  </angle>
                  <angle>
                    <activevideoangle>false</activevideoangle>
                    <activeaudioangle>false</activeaudioangle>
                    <clip id="clip-7"/>
                  </angle>
                  <masterclipid>clip-master</masterclipid>
                </multiclip>
              </clipitem>
              <clipitem id="cs-173">
                <duration>36</duration>
                <rate>
                  <ntsc>false</ntsc>
                  <timebase>25</timebase>
                </rate>
                <in>17941</in>
                <out>17976</out>
                <start>17941</start>
                <end>17976</end>
                <file id="src-1"/>
                <sourcetrack>
                  <mediatype>video</mediatype>
                  <trackindex>1</trackindex>
                </sourcetrack>
                <multiclip id="mcs-173">
                  <name>MCS-173</name>
                  <masterclipid>clip-master</masterclipid>
                  <collapsed>false</collapsed>
                  <angle>
                    <activevideoangle>true</activevideoangle>
                    <activeaudioangle>true</activeaudioangle>
                    <clip id="clip-1"/>
                  </angle>
                  <angle>
                    <activevideoangle>false</activevideoangle>
                    <activeaudioangle>false</activeaudioangle>
                    <clip id="clip-2"/>
                  </angle>
                  <angle>
                    <activevideoangle>false</activevideoangle>
                    <activeaudioangle>false</activeaudioangle>
                    <clip id="clip-3"/>
                  </angle>
                  <angle>
                    <activevideoangle>false</activevideoangle>
                    <activeaudioangle>false</activeaudioangle>
                    <clip id="clip-4"/>
                  </angle>
                  <angle>
                    <activevideoangle>false</activevideoangle>
                    <activeaudioangle>false</activeaudioangle>
                    <clip id="clip-5"/>
                  </angle>
                  <angle>
                    <activevideoangle>false</activevideoangle>
                    <activeaudioangle>false</activeaudioangle>
                    <clip id="clip-6"/>
                  </angle>
                  <angle>
                    <activevideoangle>false</activevideoangle>
                    <activeaudioangle>false</activeaudioangle>
                    <clip id="clip-7"/>
                  </angle>
                  <masterclipid>clip-master</masterclipid>
                </multiclip>
              </clipitem>
              <clipitem id="cs-174">
                <duration>205</duration>
                <rate>
                  <ntsc>false</ntsc>
                  <timebase>25</timebase>
                </rate>
                <in>17976</in>
                <out>18180</out>
                <start>17976</start>
                <end>18180</end>
                <file id="src-6"/>
                <sourcetrack>
                  <mediatype>video</mediatype>
                  <trackindex>1</trackindex>
                </sourcetrack>
                <multiclip id="mcs-174">
                  <name>MCS-174</name>
                  <masterclipid>clip-master</masterclipid>
                  <collapsed>false</collapsed>
                  <angle>
                    <activevideoangle>false</activevideoangle>
                    <activeaudioangle>false</activeaudioangle>
                    <clip id="clip-1"/>
                  </angle>
                  <angle>
                    <activevideoangle>false</activevideoangle>
                    <activeaudioangle>false</activeaudioangle>
                    <clip id="clip-2"/>
                  </angle>
                  <angle>
                    <activevideoangle>false</activevideoangle>
                    <activeaudioangle>false</activeaudioangle>
                    <clip id="clip-3"/>
                  </angle>
                  <angle>
                    <activevideoangle>false</activevideoangle>
                    <activeaudioangle>false</activeaudioangle>
                    <clip id="clip-4"/>
                  </angle>
                  <angle>
                    <activevideoangle>false</activevideoangle>
                    <activeaudioangle>false</activeaudioangle>
                    <clip id="clip-5"/>
                  </angle>
                  <angle>
                    <activevideoangle>true</activevideoangle>
                    <activeaudioangle>true</activeaudioangle>
                    <clip id="clip-6"/>
                  </angle>
                  <angle>
                    <activevideoangle>false</activevideoangle>
                    <activeaudioangle>false</activeaudioangle>
                    <clip id="clip-7"/>
                  </angle>
                  <masterclipid>clip-master</masterclipid>
                </multiclip>
              </clipitem>
              <clipitem id="cs-175">
                <duration>226</duration>
                <rate>
                  <ntsc>false</ntsc>
                  <timebase>25</timebase>
                </rate>
                <in>18180</in>
                <out>18405</out>
                <start>18180</start>
                <end>18405</end>
                <file id="src-3"/>
                <sourcetrack>
                  <mediatype>video</mediatype>
                  <trackindex>1</trackindex>
                </sourcetrack>
                <multiclip id="mcs-175">
                  <name>MCS-175</name>
                  <masterclipid>clip-master</masterclipid>
                  <collapsed>false</collapsed>
                  <angle>
                    <activevideoangle>false</activevideoangle>
                    <activeaudioangle>false</activeaudioangle>
                    <clip id="clip-1"/>
                  </angle>
                  <angle>
                    <activevideoangle>false</activevideoangle>
                    <activeaudioangle>false</activeaudioangle>
                    <clip id="clip-2"/>
                  </angle>
                  <angle>
                    <activevideoangle>true</activevideoangle>
                    <activeaudioangle>true</activeaudioangle>
                    <clip id="clip-3"/>
                  </angle>
                  <angle>
                    <activevideoangle>false</activevideoangle>
                    <activeaudioangle>false</activeaudioangle>
                    <clip id="clip-4"/>
                  </angle>
                  <angle>
                    <activevideoangle>false</activevideoangle>
                    <activeaudioangle>false</activeaudioangle>
                    <clip id="clip-5"/>
                  </angle>
                  <angle>
                    <activevideoangle>false</activevideoangle>
                    <activeaudioangle>false</activeaudioangle>
                    <clip id="clip-6"/>
                  </angle>
                  <angle>
                    <activevideoangle>false</activevideoangle>
                    <activeaudioangle>false</activeaudioangle>
                    <clip id="clip-7"/>
                  </angle>
                  <masterclipid>clip-master</masterclipid>
                </multiclip>
              </clipitem>
              <clipitem id="cs-176">
                <duration>86</duration>
                <rate>
                  <ntsc>false</ntsc>
                  <timebase>25</timebase>
                </rate>
                <in>18405</in>
                <out>18490</out>
                <start>18405</start>
                <end>18490</end>
                <file id="src-4"/>
                <sourcetrack>
                  <mediatype>video</mediatype>
                  <trackindex>1</trackindex>
                </sourcetrack>
                <multiclip id="mcs-176">
                  <name>MCS-176</name>
                  <masterclipid>clip-master</masterclipid>
                  <collapsed>false</collapsed>
                  <angle>
                    <activevideoangle>false</activevideoangle>
                    <activeaudioangle>false</activeaudioangle>
                    <clip id="clip-1"/>
                  </angle>
                  <angle>
                    <activevideoangle>false</activevideoangle>
                    <activeaudioangle>false</activeaudioangle>
                    <clip id="clip-2"/>
                  </angle>
                  <angle>
                    <activevideoangle>false</activevideoangle>
                    <activeaudioangle>false</activeaudioangle>
                    <clip id="clip-3"/>
                  </angle>
                  <angle>
                    <activevideoangle>true</activevideoangle>
                    <activeaudioangle>true</activeaudioangle>
                    <clip id="clip-4"/>
                  </angle>
                  <angle>
                    <activevideoangle>false</activevideoangle>
                    <activeaudioangle>false</activeaudioangle>
                    <clip id="clip-5"/>
                  </angle>
                  <angle>
                    <activevideoangle>false</activevideoangle>
                    <activeaudioangle>false</activeaudioangle>
                    <clip id="clip-6"/>
                  </angle>
                  <angle>
                    <activevideoangle>false</activevideoangle>
                    <activeaudioangle>false</activeaudioangle>
                    <clip id="clip-7"/>
                  </angle>
                  <masterclipid>clip-master</masterclipid>
                </multiclip>
              </clipitem>
              <clipitem id="cs-177">
                <duration>331</duration>
                <rate>
                  <ntsc>false</ntsc>
                  <timebase>25</timebase>
                </rate>
                <in>18490</in>
                <out>18820</out>
                <start>18490</start>
                <end>18820</end>
                <file id="src-3"/>
                <sourcetrack>
                  <mediatype>video</mediatype>
                  <trackindex>1</trackindex>
                </sourcetrack>
                <multiclip id="mcs-177">
                  <name>MCS-177</name>
                  <masterclipid>clip-master</masterclipid>
                  <collapsed>false</collapsed>
                  <angle>
                    <activevideoangle>false</activevideoangle>
                    <activeaudioangle>false</activeaudioangle>
                    <clip id="clip-1"/>
                  </angle>
                  <angle>
                    <activevideoangle>false</activevideoangle>
                    <activeaudioangle>false</activeaudioangle>
                    <clip id="clip-2"/>
                  </angle>
                  <angle>
                    <activevideoangle>true</activevideoangle>
                    <activeaudioangle>true</activeaudioangle>
                    <clip id="clip-3"/>
                  </angle>
                  <angle>
                    <activevideoangle>false</activevideoangle>
                    <activeaudioangle>false</activeaudioangle>
                    <clip id="clip-4"/>
                  </angle>
                  <angle>
                    <activevideoangle>false</activevideoangle>
                    <activeaudioangle>false</activeaudioangle>
                    <clip id="clip-5"/>
                  </angle>
                  <angle>
                    <activevideoangle>false</activevideoangle>
                    <activeaudioangle>false</activeaudioangle>
                    <clip id="clip-6"/>
                  </angle>
                  <angle>
                    <activevideoangle>false</activevideoangle>
                    <activeaudioangle>false</activeaudioangle>
                    <clip id="clip-7"/>
                  </angle>
                  <masterclipid>clip-master</masterclipid>
                </multiclip>
              </clipitem>
              <clipitem id="cs-178">
                <duration>164</duration>
                <rate>
                  <ntsc>false</ntsc>
                  <timebase>25</timebase>
                </rate>
                <in>18820</in>
                <out>18983</out>
                <start>18820</start>
                <end>18983</end>
                <file id="src-6"/>
                <sourcetrack>
                  <mediatype>video</mediatype>
                  <trackindex>1</trackindex>
                </sourcetrack>
                <multiclip id="mcs-178">
                  <name>MCS-178</name>
                  <masterclipid>clip-master</masterclipid>
                  <collapsed>false</collapsed>
                  <angle>
                    <activevideoangle>false</activevideoangle>
                    <activeaudioangle>false</activeaudioangle>
                    <clip id="clip-1"/>
                  </angle>
                  <angle>
                    <activevideoangle>false</activevideoangle>
                    <activeaudioangle>false</activeaudioangle>
                    <clip id="clip-2"/>
                  </angle>
                  <angle>
                    <activevideoangle>false</activevideoangle>
                    <activeaudioangle>false</activeaudioangle>
                    <clip id="clip-3"/>
                  </angle>
                  <angle>
                    <activevideoangle>false</activevideoangle>
                    <activeaudioangle>false</activeaudioangle>
                    <clip id="clip-4"/>
                  </angle>
                  <angle>
                    <activevideoangle>false</activevideoangle>
                    <activeaudioangle>false</activeaudioangle>
                    <clip id="clip-5"/>
                  </angle>
                  <angle>
                    <activevideoangle>true</activevideoangle>
                    <activeaudioangle>true</activeaudioangle>
                    <clip id="clip-6"/>
                  </angle>
                  <angle>
                    <activevideoangle>false</activevideoangle>
                    <activeaudioangle>false</activeaudioangle>
                    <clip id="clip-7"/>
                  </angle>
                  <masterclipid>clip-master</masterclipid>
                </multiclip>
              </clipitem>
              <clipitem id="cs-179">
                <duration>446</duration>
                <rate>
                  <ntsc>false</ntsc>
                  <timebase>25</timebase>
                </rate>
                <in>18983</in>
                <out>19428</out>
                <start>18983</start>
                <end>19428</end>
                <file id="src-2"/>
                <sourcetrack>
                  <mediatype>video</mediatype>
                  <trackindex>1</trackindex>
                </sourcetrack>
                <multiclip id="mcs-179">
                  <name>MCS-179</name>
                  <masterclipid>clip-master</masterclipid>
                  <collapsed>false</collapsed>
                  <angle>
                    <activevideoangle>false</activevideoangle>
                    <activeaudioangle>false</activeaudioangle>
                    <clip id="clip-1"/>
                  </angle>
                  <angle>
                    <activevideoangle>true</activevideoangle>
                    <activeaudioangle>true</activeaudioangle>
                    <clip id="clip-2"/>
                  </angle>
                  <angle>
                    <activevideoangle>false</activevideoangle>
                    <activeaudioangle>false</activeaudioangle>
                    <clip id="clip-3"/>
                  </angle>
                  <angle>
                    <activevideoangle>false</activevideoangle>
                    <activeaudioangle>false</activeaudioangle>
                    <clip id="clip-4"/>
                  </angle>
                  <angle>
                    <activevideoangle>false</activevideoangle>
                    <activeaudioangle>false</activeaudioangle>
                    <clip id="clip-5"/>
                  </angle>
                  <angle>
                    <activevideoangle>false</activevideoangle>
                    <activeaudioangle>false</activeaudioangle>
                    <clip id="clip-6"/>
                  </angle>
                  <angle>
                    <activevideoangle>false</activevideoangle>
                    <activeaudioangle>false</activeaudioangle>
                    <clip id="clip-7"/>
                  </angle>
                  <masterclipid>clip-master</masterclipid>
                </multiclip>
              </clipitem>
              <clipitem id="cs-180">
                <duration>92</duration>
                <rate>
                  <ntsc>false</ntsc>
                  <timebase>25</timebase>
                </rate>
                <in>19428</in>
                <out>19519</out>
                <start>19428</start>
                <end>19519</end>
                <file id="src-3"/>
                <sourcetrack>
                  <mediatype>video</mediatype>
                  <trackindex>1</trackindex>
                </sourcetrack>
                <multiclip id="mcs-180">
                  <name>MCS-180</name>
                  <masterclipid>clip-master</masterclipid>
                  <collapsed>false</collapsed>
                  <angle>
                    <activevideoangle>false</activevideoangle>
                    <activeaudioangle>false</activeaudioangle>
                    <clip id="clip-1"/>
                  </angle>
                  <angle>
                    <activevideoangle>false</activevideoangle>
                    <activeaudioangle>false</activeaudioangle>
                    <clip id="clip-2"/>
                  </angle>
                  <angle>
                    <activevideoangle>true</activevideoangle>
                    <activeaudioangle>true</activeaudioangle>
                    <clip id="clip-3"/>
                  </angle>
                  <angle>
                    <activevideoangle>false</activevideoangle>
                    <activeaudioangle>false</activeaudioangle>
                    <clip id="clip-4"/>
                  </angle>
                  <angle>
                    <activevideoangle>false</activevideoangle>
                    <activeaudioangle>false</activeaudioangle>
                    <clip id="clip-5"/>
                  </angle>
                  <angle>
                    <activevideoangle>false</activevideoangle>
                    <activeaudioangle>false</activeaudioangle>
                    <clip id="clip-6"/>
                  </angle>
                  <angle>
                    <activevideoangle>false</activevideoangle>
                    <activeaudioangle>false</activeaudioangle>
                    <clip id="clip-7"/>
                  </angle>
                  <masterclipid>clip-master</masterclipid>
                </multiclip>
              </clipitem>
              <clipitem id="cs-181">
                <duration>193</duration>
                <rate>
                  <ntsc>false</ntsc>
                  <timebase>25</timebase>
                </rate>
                <in>19519</in>
                <out>19711</out>
                <start>19519</start>
                <end>19711</end>
                <file id="src-2"/>
                <sourcetrack>
                  <mediatype>video</mediatype>
                  <trackindex>1</trackindex>
                </sourcetrack>
                <multiclip id="mcs-181">
                  <name>MCS-181</name>
                  <masterclipid>clip-master</masterclipid>
                  <collapsed>false</collapsed>
                  <angle>
                    <activevideoangle>false</activevideoangle>
                    <activeaudioangle>false</activeaudioangle>
                    <clip id="clip-1"/>
                  </angle>
                  <angle>
                    <activevideoangle>true</activevideoangle>
                    <activeaudioangle>true</activeaudioangle>
                    <clip id="clip-2"/>
                  </angle>
                  <angle>
                    <activevideoangle>false</activevideoangle>
                    <activeaudioangle>false</activeaudioangle>
                    <clip id="clip-3"/>
                  </angle>
                  <angle>
                    <activevideoangle>false</activevideoangle>
                    <activeaudioangle>false</activeaudioangle>
                    <clip id="clip-4"/>
                  </angle>
                  <angle>
                    <activevideoangle>false</activevideoangle>
                    <activeaudioangle>false</activeaudioangle>
                    <clip id="clip-5"/>
                  </angle>
                  <angle>
                    <activevideoangle>false</activevideoangle>
                    <activeaudioangle>false</activeaudioangle>
                    <clip id="clip-6"/>
                  </angle>
                  <angle>
                    <activevideoangle>false</activevideoangle>
                    <activeaudioangle>false</activeaudioangle>
                    <clip id="clip-7"/>
                  </angle>
                  <masterclipid>clip-master</masterclipid>
                </multiclip>
              </clipitem>
              <clipitem id="cs-182">
                <duration>129</duration>
                <rate>
                  <ntsc>false</ntsc>
                  <timebase>25</timebase>
                </rate>
                <in>19711</in>
                <out>19839</out>
                <start>19711</start>
                <end>19839</end>
                <file id="src-3"/>
                <sourcetrack>
                  <mediatype>video</mediatype>
                  <trackindex>1</trackindex>
                </sourcetrack>
                <multiclip id="mcs-182">
                  <name>MCS-182</name>
                  <masterclipid>clip-master</masterclipid>
                  <collapsed>false</collapsed>
                  <angle>
                    <activevideoangle>false</activevideoangle>
                    <activeaudioangle>false</activeaudioangle>
                    <clip id="clip-1"/>
                  </angle>
                  <angle>
                    <activevideoangle>false</activevideoangle>
                    <activeaudioangle>false</activeaudioangle>
                    <clip id="clip-2"/>
                  </angle>
                  <angle>
                    <activevideoangle>true</activevideoangle>
                    <activeaudioangle>true</activeaudioangle>
                    <clip id="clip-3"/>
                  </angle>
                  <angle>
                    <activevideoangle>false</activevideoangle>
                    <activeaudioangle>false</activeaudioangle>
                    <clip id="clip-4"/>
                  </angle>
                  <angle>
                    <activevideoangle>false</activevideoangle>
                    <activeaudioangle>false</activeaudioangle>
                    <clip id="clip-5"/>
                  </angle>
                  <angle>
                    <activevideoangle>false</activevideoangle>
                    <activeaudioangle>false</activeaudioangle>
                    <clip id="clip-6"/>
                  </angle>
                  <angle>
                    <activevideoangle>false</activevideoangle>
                    <activeaudioangle>false</activeaudioangle>
                    <clip id="clip-7"/>
                  </angle>
                  <masterclipid>clip-master</masterclipid>
                </multiclip>
              </clipitem>
              <clipitem id="cs-183">
                <duration>242</duration>
                <rate>
                  <ntsc>false</ntsc>
                  <timebase>25</timebase>
                </rate>
                <in>19839</in>
                <out>20080</out>
                <start>19839</start>
                <end>20080</end>
                <file id="src-4"/>
                <sourcetrack>
                  <mediatype>video</mediatype>
                  <trackindex>1</trackindex>
                </sourcetrack>
                <multiclip id="mcs-183">
                  <name>MCS-183</name>
                  <masterclipid>clip-master</masterclipid>
                  <collapsed>false</collapsed>
                  <angle>
                    <activevideoangle>false</activevideoangle>
                    <activeaudioangle>false</activeaudioangle>
                    <clip id="clip-1"/>
                  </angle>
                  <angle>
                    <activevideoangle>false</activevideoangle>
                    <activeaudioangle>false</activeaudioangle>
                    <clip id="clip-2"/>
                  </angle>
                  <angle>
                    <activevideoangle>false</activevideoangle>
                    <activeaudioangle>false</activeaudioangle>
                    <clip id="clip-3"/>
                  </angle>
                  <angle>
                    <activevideoangle>true</activevideoangle>
                    <activeaudioangle>true</activeaudioangle>
                    <clip id="clip-4"/>
                  </angle>
                  <angle>
                    <activevideoangle>false</activevideoangle>
                    <activeaudioangle>false</activeaudioangle>
                    <clip id="clip-5"/>
                  </angle>
                  <angle>
                    <activevideoangle>false</activevideoangle>
                    <activeaudioangle>false</activeaudioangle>
                    <clip id="clip-6"/>
                  </angle>
                  <angle>
                    <activevideoangle>false</activevideoangle>
                    <activeaudioangle>false</activeaudioangle>
                    <clip id="clip-7"/>
                  </angle>
                  <masterclipid>clip-master</masterclipid>
                </multiclip>
              </clipitem>
              <clipitem id="cs-184">
                <duration>125</duration>
                <rate>
                  <ntsc>false</ntsc>
                  <timebase>25</timebase>
                </rate>
                <in>20080</in>
                <out>20204</out>
                <start>20080</start>
                <end>20204</end>
                <file id="src-2"/>
                <sourcetrack>
                  <mediatype>video</mediatype>
                  <trackindex>1</trackindex>
                </sourcetrack>
                <multiclip id="mcs-184">
                  <name>MCS-184</name>
                  <masterclipid>clip-master</masterclipid>
                  <collapsed>false</collapsed>
                  <angle>
                    <activevideoangle>false</activevideoangle>
                    <activeaudioangle>false</activeaudioangle>
                    <clip id="clip-1"/>
                  </angle>
                  <angle>
                    <activevideoangle>true</activevideoangle>
                    <activeaudioangle>true</activeaudioangle>
                    <clip id="clip-2"/>
                  </angle>
                  <angle>
                    <activevideoangle>false</activevideoangle>
                    <activeaudioangle>false</activeaudioangle>
                    <clip id="clip-3"/>
                  </angle>
                  <angle>
                    <activevideoangle>false</activevideoangle>
                    <activeaudioangle>false</activeaudioangle>
                    <clip id="clip-4"/>
                  </angle>
                  <angle>
                    <activevideoangle>false</activevideoangle>
                    <activeaudioangle>false</activeaudioangle>
                    <clip id="clip-5"/>
                  </angle>
                  <angle>
                    <activevideoangle>false</activevideoangle>
                    <activeaudioangle>false</activeaudioangle>
                    <clip id="clip-6"/>
                  </angle>
                  <angle>
                    <activevideoangle>false</activevideoangle>
                    <activeaudioangle>false</activeaudioangle>
                    <clip id="clip-7"/>
                  </angle>
                  <masterclipid>clip-master</masterclipid>
                </multiclip>
              </clipitem>
              <clipitem id="cs-185">
                <duration>93</duration>
                <rate>
                  <ntsc>false</ntsc>
                  <timebase>25</timebase>
                </rate>
                <in>20204</in>
                <out>20296</out>
                <start>20204</start>
                <end>20296</end>
                <file id="src-3"/>
                <sourcetrack>
                  <mediatype>video</mediatype>
                  <trackindex>1</trackindex>
                </sourcetrack>
                <multiclip id="mcs-185">
                  <name>MCS-185</name>
                  <masterclipid>clip-master</masterclipid>
                  <collapsed>false</collapsed>
                  <angle>
                    <activevideoangle>false</activevideoangle>
                    <activeaudioangle>false</activeaudioangle>
                    <clip id="clip-1"/>
                  </angle>
                  <angle>
                    <activevideoangle>false</activevideoangle>
                    <activeaudioangle>false</activeaudioangle>
                    <clip id="clip-2"/>
                  </angle>
                  <angle>
                    <activevideoangle>true</activevideoangle>
                    <activeaudioangle>true</activeaudioangle>
                    <clip id="clip-3"/>
                  </angle>
                  <angle>
                    <activevideoangle>false</activevideoangle>
                    <activeaudioangle>false</activeaudioangle>
                    <clip id="clip-4"/>
                  </angle>
                  <angle>
                    <activevideoangle>false</activevideoangle>
                    <activeaudioangle>false</activeaudioangle>
                    <clip id="clip-5"/>
                  </angle>
                  <angle>
                    <activevideoangle>false</activevideoangle>
                    <activeaudioangle>false</activeaudioangle>
                    <clip id="clip-6"/>
                  </angle>
                  <angle>
                    <activevideoangle>false</activevideoangle>
                    <activeaudioangle>false</activeaudioangle>
                    <clip id="clip-7"/>
                  </angle>
                  <masterclipid>clip-master</masterclipid>
                </multiclip>
              </clipitem>
              <clipitem id="cs-186">
                <duration>84</duration>
                <rate>
                  <ntsc>false</ntsc>
                  <timebase>25</timebase>
                </rate>
                <in>20296</in>
                <out>20379</out>
                <start>20296</start>
                <end>20379</end>
                <file id="src-2"/>
                <sourcetrack>
                  <mediatype>video</mediatype>
                  <trackindex>1</trackindex>
                </sourcetrack>
                <multiclip id="mcs-186">
                  <name>MCS-186</name>
                  <masterclipid>clip-master</masterclipid>
                  <collapsed>false</collapsed>
                  <angle>
                    <activevideoangle>false</activevideoangle>
                    <activeaudioangle>false</activeaudioangle>
                    <clip id="clip-1"/>
                  </angle>
                  <angle>
                    <activevideoangle>true</activevideoangle>
                    <activeaudioangle>true</activeaudioangle>
                    <clip id="clip-2"/>
                  </angle>
                  <angle>
                    <activevideoangle>false</activevideoangle>
                    <activeaudioangle>false</activeaudioangle>
                    <clip id="clip-3"/>
                  </angle>
                  <angle>
                    <activevideoangle>false</activevideoangle>
                    <activeaudioangle>false</activeaudioangle>
                    <clip id="clip-4"/>
                  </angle>
                  <angle>
                    <activevideoangle>false</activevideoangle>
                    <activeaudioangle>false</activeaudioangle>
                    <clip id="clip-5"/>
                  </angle>
                  <angle>
                    <activevideoangle>false</activevideoangle>
                    <activeaudioangle>false</activeaudioangle>
                    <clip id="clip-6"/>
                  </angle>
                  <angle>
                    <activevideoangle>false</activevideoangle>
                    <activeaudioangle>false</activeaudioangle>
                    <clip id="clip-7"/>
                  </angle>
                  <masterclipid>clip-master</masterclipid>
                </multiclip>
              </clipitem>
              <clipitem id="cs-187">
                <duration>149</duration>
                <rate>
                  <ntsc>false</ntsc>
                  <timebase>25</timebase>
                </rate>
                <in>20379</in>
                <out>20527</out>
                <start>20379</start>
                <end>20527</end>
                <file id="src-1"/>
                <sourcetrack>
                  <mediatype>video</mediatype>
                  <trackindex>1</trackindex>
                </sourcetrack>
                <multiclip id="mcs-187">
                  <name>MCS-187</name>
                  <masterclipid>clip-master</masterclipid>
                  <collapsed>false</collapsed>
                  <angle>
                    <activevideoangle>true</activevideoangle>
                    <activeaudioangle>true</activeaudioangle>
                    <clip id="clip-1"/>
                  </angle>
                  <angle>
                    <activevideoangle>false</activevideoangle>
                    <activeaudioangle>false</activeaudioangle>
                    <clip id="clip-2"/>
                  </angle>
                  <angle>
                    <activevideoangle>false</activevideoangle>
                    <activeaudioangle>false</activeaudioangle>
                    <clip id="clip-3"/>
                  </angle>
                  <angle>
                    <activevideoangle>false</activevideoangle>
                    <activeaudioangle>false</activeaudioangle>
                    <clip id="clip-4"/>
                  </angle>
                  <angle>
                    <activevideoangle>false</activevideoangle>
                    <activeaudioangle>false</activeaudioangle>
                    <clip id="clip-5"/>
                  </angle>
                  <angle>
                    <activevideoangle>false</activevideoangle>
                    <activeaudioangle>false</activeaudioangle>
                    <clip id="clip-6"/>
                  </angle>
                  <angle>
                    <activevideoangle>false</activevideoangle>
                    <activeaudioangle>false</activeaudioangle>
                    <clip id="clip-7"/>
                  </angle>
                  <masterclipid>clip-master</masterclipid>
                </multiclip>
              </clipitem>
              <clipitem id="cs-188">
                <duration>95</duration>
                <rate>
                  <ntsc>false</ntsc>
                  <timebase>25</timebase>
                </rate>
                <in>20527</in>
                <out>20621</out>
                <start>20527</start>
                <end>20621</end>
                <file id="src-4"/>
                <sourcetrack>
                  <mediatype>video</mediatype>
                  <trackindex>1</trackindex>
                </sourcetrack>
                <multiclip id="mcs-188">
                  <name>MCS-188</name>
                  <masterclipid>clip-master</masterclipid>
                  <collapsed>false</collapsed>
                  <angle>
                    <activevideoangle>false</activevideoangle>
                    <activeaudioangle>false</activeaudioangle>
                    <clip id="clip-1"/>
                  </angle>
                  <angle>
                    <activevideoangle>false</activevideoangle>
                    <activeaudioangle>false</activeaudioangle>
                    <clip id="clip-2"/>
                  </angle>
                  <angle>
                    <activevideoangle>false</activevideoangle>
                    <activeaudioangle>false</activeaudioangle>
                    <clip id="clip-3"/>
                  </angle>
                  <angle>
                    <activevideoangle>true</activevideoangle>
                    <activeaudioangle>true</activeaudioangle>
                    <clip id="clip-4"/>
                  </angle>
                  <angle>
                    <activevideoangle>false</activevideoangle>
                    <activeaudioangle>false</activeaudioangle>
                    <clip id="clip-5"/>
                  </angle>
                  <angle>
                    <activevideoangle>false</activevideoangle>
                    <activeaudioangle>false</activeaudioangle>
                    <clip id="clip-6"/>
                  </angle>
                  <angle>
                    <activevideoangle>false</activevideoangle>
                    <activeaudioangle>false</activeaudioangle>
                    <clip id="clip-7"/>
                  </angle>
                  <masterclipid>clip-master</masterclipid>
                </multiclip>
              </clipitem>
              <clipitem id="cs-189">
                <duration>122</duration>
                <rate>
                  <ntsc>false</ntsc>
                  <timebase>25</timebase>
                </rate>
                <in>20621</in>
                <out>20742</out>
                <start>20621</start>
                <end>20742</end>
                <file id="src-6"/>
                <sourcetrack>
                  <mediatype>video</mediatype>
                  <trackindex>1</trackindex>
                </sourcetrack>
                <multiclip id="mcs-189">
                  <name>MCS-189</name>
                  <masterclipid>clip-master</masterclipid>
                  <collapsed>false</collapsed>
                  <angle>
                    <activevideoangle>false</activevideoangle>
                    <activeaudioangle>false</activeaudioangle>
                    <clip id="clip-1"/>
                  </angle>
                  <angle>
                    <activevideoangle>false</activevideoangle>
                    <activeaudioangle>false</activeaudioangle>
                    <clip id="clip-2"/>
                  </angle>
                  <angle>
                    <activevideoangle>false</activevideoangle>
                    <activeaudioangle>false</activeaudioangle>
                    <clip id="clip-3"/>
                  </angle>
                  <angle>
                    <activevideoangle>false</activevideoangle>
                    <activeaudioangle>false</activeaudioangle>
                    <clip id="clip-4"/>
                  </angle>
                  <angle>
                    <activevideoangle>false</activevideoangle>
                    <activeaudioangle>false</activeaudioangle>
                    <clip id="clip-5"/>
                  </angle>
                  <angle>
                    <activevideoangle>true</activevideoangle>
                    <activeaudioangle>true</activeaudioangle>
                    <clip id="clip-6"/>
                  </angle>
                  <angle>
                    <activevideoangle>false</activevideoangle>
                    <activeaudioangle>false</activeaudioangle>
                    <clip id="clip-7"/>
                  </angle>
                  <masterclipid>clip-master</masterclipid>
                </multiclip>
              </clipitem>
              <clipitem id="cs-190">
                <duration>109</duration>
                <rate>
                  <ntsc>false</ntsc>
                  <timebase>25</timebase>
                </rate>
                <in>20742</in>
                <out>20850</out>
                <start>20742</start>
                <end>20850</end>
                <file id="src-4"/>
                <sourcetrack>
                  <mediatype>video</mediatype>
                  <trackindex>1</trackindex>
                </sourcetrack>
                <multiclip id="mcs-190">
                  <name>MCS-190</name>
                  <masterclipid>clip-master</masterclipid>
                  <collapsed>false</collapsed>
                  <angle>
                    <activevideoangle>false</activevideoangle>
                    <activeaudioangle>false</activeaudioangle>
                    <clip id="clip-1"/>
                  </angle>
                  <angle>
                    <activevideoangle>false</activevideoangle>
                    <activeaudioangle>false</activeaudioangle>
                    <clip id="clip-2"/>
                  </angle>
                  <angle>
                    <activevideoangle>false</activevideoangle>
                    <activeaudioangle>false</activeaudioangle>
                    <clip id="clip-3"/>
                  </angle>
                  <angle>
                    <activevideoangle>true</activevideoangle>
                    <activeaudioangle>true</activeaudioangle>
                    <clip id="clip-4"/>
                  </angle>
                  <angle>
                    <activevideoangle>false</activevideoangle>
                    <activeaudioangle>false</activeaudioangle>
                    <clip id="clip-5"/>
                  </angle>
                  <angle>
                    <activevideoangle>false</activevideoangle>
                    <activeaudioangle>false</activeaudioangle>
                    <clip id="clip-6"/>
                  </angle>
                  <angle>
                    <activevideoangle>false</activevideoangle>
                    <activeaudioangle>false</activeaudioangle>
                    <clip id="clip-7"/>
                  </angle>
                  <masterclipid>clip-master</masterclipid>
                </multiclip>
              </clipitem>
              <clipitem id="cs-191">
                <duration>117</duration>
                <rate>
                  <ntsc>false</ntsc>
                  <timebase>25</timebase>
                </rate>
                <in>20850</in>
                <out>20966</out>
                <start>20850</start>
                <end>20966</end>
                <file id="src-3"/>
                <sourcetrack>
                  <mediatype>video</mediatype>
                  <trackindex>1</trackindex>
                </sourcetrack>
                <multiclip id="mcs-191">
                  <name>MCS-191</name>
                  <masterclipid>clip-master</masterclipid>
                  <collapsed>false</collapsed>
                  <angle>
                    <activevideoangle>false</activevideoangle>
                    <activeaudioangle>false</activeaudioangle>
                    <clip id="clip-1"/>
                  </angle>
                  <angle>
                    <activevideoangle>false</activevideoangle>
                    <activeaudioangle>false</activeaudioangle>
                    <clip id="clip-2"/>
                  </angle>
                  <angle>
                    <activevideoangle>true</activevideoangle>
                    <activeaudioangle>true</activeaudioangle>
                    <clip id="clip-3"/>
                  </angle>
                  <angle>
                    <activevideoangle>false</activevideoangle>
                    <activeaudioangle>false</activeaudioangle>
                    <clip id="clip-4"/>
                  </angle>
                  <angle>
                    <activevideoangle>false</activevideoangle>
                    <activeaudioangle>false</activeaudioangle>
                    <clip id="clip-5"/>
                  </angle>
                  <angle>
                    <activevideoangle>false</activevideoangle>
                    <activeaudioangle>false</activeaudioangle>
                    <clip id="clip-6"/>
                  </angle>
                  <angle>
                    <activevideoangle>false</activevideoangle>
                    <activeaudioangle>false</activeaudioangle>
                    <clip id="clip-7"/>
                  </angle>
                  <masterclipid>clip-master</masterclipid>
                </multiclip>
              </clipitem>
              <clipitem id="cs-192">
                <duration>53</duration>
                <rate>
                  <ntsc>false</ntsc>
                  <timebase>25</timebase>
                </rate>
                <in>20966</in>
                <out>21018</out>
                <start>20966</start>
                <end>21018</end>
                <file id="src-6"/>
                <sourcetrack>
                  <mediatype>video</mediatype>
                  <trackindex>1</trackindex>
                </sourcetrack>
                <multiclip id="mcs-192">
                  <name>MCS-192</name>
                  <masterclipid>clip-master</masterclipid>
                  <collapsed>false</collapsed>
                  <angle>
                    <activevideoangle>false</activevideoangle>
                    <activeaudioangle>false</activeaudioangle>
                    <clip id="clip-1"/>
                  </angle>
                  <angle>
                    <activevideoangle>false</activevideoangle>
                    <activeaudioangle>false</activeaudioangle>
                    <clip id="clip-2"/>
                  </angle>
                  <angle>
                    <activevideoangle>false</activevideoangle>
                    <activeaudioangle>false</activeaudioangle>
                    <clip id="clip-3"/>
                  </angle>
                  <angle>
                    <activevideoangle>false</activevideoangle>
                    <activeaudioangle>false</activeaudioangle>
                    <clip id="clip-4"/>
                  </angle>
                  <angle>
                    <activevideoangle>false</activevideoangle>
                    <activeaudioangle>false</activeaudioangle>
                    <clip id="clip-5"/>
                  </angle>
                  <angle>
                    <activevideoangle>true</activevideoangle>
                    <activeaudioangle>true</activeaudioangle>
                    <clip id="clip-6"/>
                  </angle>
                  <angle>
                    <activevideoangle>false</activevideoangle>
                    <activeaudioangle>false</activeaudioangle>
                    <clip id="clip-7"/>
                  </angle>
                  <masterclipid>clip-master</masterclipid>
                </multiclip>
              </clipitem>
              <clipitem id="cs-193">
                <duration>105</duration>
                <rate>
                  <ntsc>false</ntsc>
                  <timebase>25</timebase>
                </rate>
                <in>21018</in>
                <out>21122</out>
                <start>21018</start>
                <end>21122</end>
                <file id="src-2"/>
                <sourcetrack>
                  <mediatype>video</mediatype>
                  <trackindex>1</trackindex>
                </sourcetrack>
                <multiclip id="mcs-193">
                  <name>MCS-193</name>
                  <masterclipid>clip-master</masterclipid>
                  <collapsed>false</collapsed>
                  <angle>
                    <activevideoangle>false</activevideoangle>
                    <activeaudioangle>false</activeaudioangle>
                    <clip id="clip-1"/>
                  </angle>
                  <angle>
                    <activevideoangle>true</activevideoangle>
                    <activeaudioangle>true</activeaudioangle>
                    <clip id="clip-2"/>
                  </angle>
                  <angle>
                    <activevideoangle>false</activevideoangle>
                    <activeaudioangle>false</activeaudioangle>
                    <clip id="clip-3"/>
                  </angle>
                  <angle>
                    <activevideoangle>false</activevideoangle>
                    <activeaudioangle>false</activeaudioangle>
                    <clip id="clip-4"/>
                  </angle>
                  <angle>
                    <activevideoangle>false</activevideoangle>
                    <activeaudioangle>false</activeaudioangle>
                    <clip id="clip-5"/>
                  </angle>
                  <angle>
                    <activevideoangle>false</activevideoangle>
                    <activeaudioangle>false</activeaudioangle>
                    <clip id="clip-6"/>
                  </angle>
                  <angle>
                    <activevideoangle>false</activevideoangle>
                    <activeaudioangle>false</activeaudioangle>
                    <clip id="clip-7"/>
                  </angle>
                  <masterclipid>clip-master</masterclipid>
                </multiclip>
              </clipitem>
              <clipitem id="cs-194">
                <duration>119</duration>
                <rate>
                  <ntsc>false</ntsc>
                  <timebase>25</timebase>
                </rate>
                <in>21122</in>
                <out>21240</out>
                <start>21122</start>
                <end>21240</end>
                <file id="src-3"/>
                <sourcetrack>
                  <mediatype>video</mediatype>
                  <trackindex>1</trackindex>
                </sourcetrack>
                <multiclip id="mcs-194">
                  <name>MCS-194</name>
                  <masterclipid>clip-master</masterclipid>
                  <collapsed>false</collapsed>
                  <angle>
                    <activevideoangle>false</activevideoangle>
                    <activeaudioangle>false</activeaudioangle>
                    <clip id="clip-1"/>
                  </angle>
                  <angle>
                    <activevideoangle>false</activevideoangle>
                    <activeaudioangle>false</activeaudioangle>
                    <clip id="clip-2"/>
                  </angle>
                  <angle>
                    <activevideoangle>true</activevideoangle>
                    <activeaudioangle>true</activeaudioangle>
                    <clip id="clip-3"/>
                  </angle>
                  <angle>
                    <activevideoangle>false</activevideoangle>
                    <activeaudioangle>false</activeaudioangle>
                    <clip id="clip-4"/>
                  </angle>
                  <angle>
                    <activevideoangle>false</activevideoangle>
                    <activeaudioangle>false</activeaudioangle>
                    <clip id="clip-5"/>
                  </angle>
                  <angle>
                    <activevideoangle>false</activevideoangle>
                    <activeaudioangle>false</activeaudioangle>
                    <clip id="clip-6"/>
                  </angle>
                  <angle>
                    <activevideoangle>false</activevideoangle>
                    <activeaudioangle>false</activeaudioangle>
                    <clip id="clip-7"/>
                  </angle>
                  <masterclipid>clip-master</masterclipid>
                </multiclip>
              </clipitem>
              <clipitem id="cs-195">
                <duration>109</duration>
                <rate>
                  <ntsc>false</ntsc>
                  <timebase>25</timebase>
                </rate>
                <in>21240</in>
                <out>21348</out>
                <start>21240</start>
                <end>21348</end>
                <file id="src-4"/>
                <sourcetrack>
                  <mediatype>video</mediatype>
                  <trackindex>1</trackindex>
                </sourcetrack>
                <multiclip id="mcs-195">
                  <name>MCS-195</name>
                  <masterclipid>clip-master</masterclipid>
                  <collapsed>false</collapsed>
                  <angle>
                    <activevideoangle>false</activevideoangle>
                    <activeaudioangle>false</activeaudioangle>
                    <clip id="clip-1"/>
                  </angle>
                  <angle>
                    <activevideoangle>false</activevideoangle>
                    <activeaudioangle>false</activeaudioangle>
                    <clip id="clip-2"/>
                  </angle>
                  <angle>
                    <activevideoangle>false</activevideoangle>
                    <activeaudioangle>false</activeaudioangle>
                    <clip id="clip-3"/>
                  </angle>
                  <angle>
                    <activevideoangle>true</activevideoangle>
                    <activeaudioangle>true</activeaudioangle>
                    <clip id="clip-4"/>
                  </angle>
                  <angle>
                    <activevideoangle>false</activevideoangle>
                    <activeaudioangle>false</activeaudioangle>
                    <clip id="clip-5"/>
                  </angle>
                  <angle>
                    <activevideoangle>false</activevideoangle>
                    <activeaudioangle>false</activeaudioangle>
                    <clip id="clip-6"/>
                  </angle>
                  <angle>
                    <activevideoangle>false</activevideoangle>
                    <activeaudioangle>false</activeaudioangle>
                    <clip id="clip-7"/>
                  </angle>
                  <masterclipid>clip-master</masterclipid>
                </multiclip>
              </clipitem>
              <clipitem id="cs-196">
                <duration>83</duration>
                <rate>
                  <ntsc>false</ntsc>
                  <timebase>25</timebase>
                </rate>
                <in>21348</in>
                <out>21430</out>
                <start>21348</start>
                <end>21430</end>
                <file id="src-2"/>
                <sourcetrack>
                  <mediatype>video</mediatype>
                  <trackindex>1</trackindex>
                </sourcetrack>
                <multiclip id="mcs-196">
                  <name>MCS-196</name>
                  <masterclipid>clip-master</masterclipid>
                  <collapsed>false</collapsed>
                  <angle>
                    <activevideoangle>false</activevideoangle>
                    <activeaudioangle>false</activeaudioangle>
                    <clip id="clip-1"/>
                  </angle>
                  <angle>
                    <activevideoangle>true</activevideoangle>
                    <activeaudioangle>true</activeaudioangle>
                    <clip id="clip-2"/>
                  </angle>
                  <angle>
                    <activevideoangle>false</activevideoangle>
                    <activeaudioangle>false</activeaudioangle>
                    <clip id="clip-3"/>
                  </angle>
                  <angle>
                    <activevideoangle>false</activevideoangle>
                    <activeaudioangle>false</activeaudioangle>
                    <clip id="clip-4"/>
                  </angle>
                  <angle>
                    <activevideoangle>false</activevideoangle>
                    <activeaudioangle>false</activeaudioangle>
                    <clip id="clip-5"/>
                  </angle>
                  <angle>
                    <activevideoangle>false</activevideoangle>
                    <activeaudioangle>false</activeaudioangle>
                    <clip id="clip-6"/>
                  </angle>
                  <angle>
                    <activevideoangle>false</activevideoangle>
                    <activeaudioangle>false</activeaudioangle>
                    <clip id="clip-7"/>
                  </angle>
                  <masterclipid>clip-master</masterclipid>
                </multiclip>
              </clipitem>
              <clipitem id="cs-197">
                <duration>89</duration>
                <rate>
                  <ntsc>false</ntsc>
                  <timebase>25</timebase>
                </rate>
                <in>21430</in>
                <out>21518</out>
                <start>21430</start>
                <end>21518</end>
                <file id="src-4"/>
                <sourcetrack>
                  <mediatype>video</mediatype>
                  <trackindex>1</trackindex>
                </sourcetrack>
                <multiclip id="mcs-197">
                  <name>MCS-197</name>
                  <masterclipid>clip-master</masterclipid>
                  <collapsed>false</collapsed>
                  <angle>
                    <activevideoangle>false</activevideoangle>
                    <activeaudioangle>false</activeaudioangle>
                    <clip id="clip-1"/>
                  </angle>
                  <angle>
                    <activevideoangle>false</activevideoangle>
                    <activeaudioangle>false</activeaudioangle>
                    <clip id="clip-2"/>
                  </angle>
                  <angle>
                    <activevideoangle>false</activevideoangle>
                    <activeaudioangle>false</activeaudioangle>
                    <clip id="clip-3"/>
                  </angle>
                  <angle>
                    <activevideoangle>true</activevideoangle>
                    <activeaudioangle>true</activeaudioangle>
                    <clip id="clip-4"/>
                  </angle>
                  <angle>
                    <activevideoangle>false</activevideoangle>
                    <activeaudioangle>false</activeaudioangle>
                    <clip id="clip-5"/>
                  </angle>
                  <angle>
                    <activevideoangle>false</activevideoangle>
                    <activeaudioangle>false</activeaudioangle>
                    <clip id="clip-6"/>
                  </angle>
                  <angle>
                    <activevideoangle>false</activevideoangle>
                    <activeaudioangle>false</activeaudioangle>
                    <clip id="clip-7"/>
                  </angle>
                  <masterclipid>clip-master</masterclipid>
                </multiclip>
              </clipitem>
              <clipitem id="cs-198">
                <duration>41</duration>
                <rate>
                  <ntsc>false</ntsc>
                  <timebase>25</timebase>
                </rate>
                <in>21518</in>
                <out>21558</out>
                <start>21518</start>
                <end>21558</end>
                <file id="src-3"/>
                <sourcetrack>
                  <mediatype>video</mediatype>
                  <trackindex>1</trackindex>
                </sourcetrack>
                <multiclip id="mcs-198">
                  <name>MCS-198</name>
                  <masterclipid>clip-master</masterclipid>
                  <collapsed>false</collapsed>
                  <angle>
                    <activevideoangle>false</activevideoangle>
                    <activeaudioangle>false</activeaudioangle>
                    <clip id="clip-1"/>
                  </angle>
                  <angle>
                    <activevideoangle>false</activevideoangle>
                    <activeaudioangle>false</activeaudioangle>
                    <clip id="clip-2"/>
                  </angle>
                  <angle>
                    <activevideoangle>true</activevideoangle>
                    <activeaudioangle>true</activeaudioangle>
                    <clip id="clip-3"/>
                  </angle>
                  <angle>
                    <activevideoangle>false</activevideoangle>
                    <activeaudioangle>false</activeaudioangle>
                    <clip id="clip-4"/>
                  </angle>
                  <angle>
                    <activevideoangle>false</activevideoangle>
                    <activeaudioangle>false</activeaudioangle>
                    <clip id="clip-5"/>
                  </angle>
                  <angle>
                    <activevideoangle>false</activevideoangle>
                    <activeaudioangle>false</activeaudioangle>
                    <clip id="clip-6"/>
                  </angle>
                  <angle>
                    <activevideoangle>false</activevideoangle>
                    <activeaudioangle>false</activeaudioangle>
                    <clip id="clip-7"/>
                  </angle>
                  <masterclipid>clip-master</masterclipid>
                </multiclip>
              </clipitem>
              <clipitem id="cs-199">
                <duration>57</duration>
                <rate>
                  <ntsc>false</ntsc>
                  <timebase>25</timebase>
                </rate>
                <in>21558</in>
                <out>21614</out>
                <start>21558</start>
                <end>21614</end>
                <file id="src-6"/>
                <sourcetrack>
                  <mediatype>video</mediatype>
                  <trackindex>1</trackindex>
                </sourcetrack>
                <multiclip id="mcs-199">
                  <name>MCS-199</name>
                  <masterclipid>clip-master</masterclipid>
                  <collapsed>false</collapsed>
                  <angle>
                    <activevideoangle>false</activevideoangle>
                    <activeaudioangle>false</activeaudioangle>
                    <clip id="clip-1"/>
                  </angle>
                  <angle>
                    <activevideoangle>false</activevideoangle>
                    <activeaudioangle>false</activeaudioangle>
                    <clip id="clip-2"/>
                  </angle>
                  <angle>
                    <activevideoangle>false</activevideoangle>
                    <activeaudioangle>false</activeaudioangle>
                    <clip id="clip-3"/>
                  </angle>
                  <angle>
                    <activevideoangle>false</activevideoangle>
                    <activeaudioangle>false</activeaudioangle>
                    <clip id="clip-4"/>
                  </angle>
                  <angle>
                    <activevideoangle>false</activevideoangle>
                    <activeaudioangle>false</activeaudioangle>
                    <clip id="clip-5"/>
                  </angle>
                  <angle>
                    <activevideoangle>true</activevideoangle>
                    <activeaudioangle>true</activeaudioangle>
                    <clip id="clip-6"/>
                  </angle>
                  <angle>
                    <activevideoangle>false</activevideoangle>
                    <activeaudioangle>false</activeaudioangle>
                    <clip id="clip-7"/>
                  </angle>
                  <masterclipid>clip-master</masterclipid>
                </multiclip>
              </clipitem>
              <clipitem id="cs-200">
                <duration>88</duration>
                <rate>
                  <ntsc>false</ntsc>
                  <timebase>25</timebase>
                </rate>
                <in>21614</in>
                <out>21701</out>
                <start>21614</start>
                <end>21701</end>
                <file id="src-1"/>
                <sourcetrack>
                  <mediatype>video</mediatype>
                  <trackindex>1</trackindex>
                </sourcetrack>
                <multiclip id="mcs-200">
                  <name>MCS-200</name>
                  <masterclipid>clip-master</masterclipid>
                  <collapsed>false</collapsed>
                  <angle>
                    <activevideoangle>true</activevideoangle>
                    <activeaudioangle>true</activeaudioangle>
                    <clip id="clip-1"/>
                  </angle>
                  <angle>
                    <activevideoangle>false</activevideoangle>
                    <activeaudioangle>false</activeaudioangle>
                    <clip id="clip-2"/>
                  </angle>
                  <angle>
                    <activevideoangle>false</activevideoangle>
                    <activeaudioangle>false</activeaudioangle>
                    <clip id="clip-3"/>
                  </angle>
                  <angle>
                    <activevideoangle>false</activevideoangle>
                    <activeaudioangle>false</activeaudioangle>
                    <clip id="clip-4"/>
                  </angle>
                  <angle>
                    <activevideoangle>false</activevideoangle>
                    <activeaudioangle>false</activeaudioangle>
                    <clip id="clip-5"/>
                  </angle>
                  <angle>
                    <activevideoangle>false</activevideoangle>
                    <activeaudioangle>false</activeaudioangle>
                    <clip id="clip-6"/>
                  </angle>
                  <angle>
                    <activevideoangle>false</activevideoangle>
                    <activeaudioangle>false</activeaudioangle>
                    <clip id="clip-7"/>
                  </angle>
                  <masterclipid>clip-master</masterclipid>
                </multiclip>
              </clipitem>
              <clipitem id="cs-201">
                <duration>166</duration>
                <rate>
                  <ntsc>false</ntsc>
                  <timebase>25</timebase>
                </rate>
                <in>21701</in>
                <out>21866</out>
                <start>21701</start>
                <end>21866</end>
                <file id="src-3"/>
                <sourcetrack>
                  <mediatype>video</mediatype>
                  <trackindex>1</trackindex>
                </sourcetrack>
                <multiclip id="mcs-201">
                  <name>MCS-201</name>
                  <masterclipid>clip-master</masterclipid>
                  <collapsed>false</collapsed>
                  <angle>
                    <activevideoangle>false</activevideoangle>
                    <activeaudioangle>false</activeaudioangle>
                    <clip id="clip-1"/>
                  </angle>
                  <angle>
                    <activevideoangle>false</activevideoangle>
                    <activeaudioangle>false</activeaudioangle>
                    <clip id="clip-2"/>
                  </angle>
                  <angle>
                    <activevideoangle>true</activevideoangle>
                    <activeaudioangle>true</activeaudioangle>
                    <clip id="clip-3"/>
                  </angle>
                  <angle>
                    <activevideoangle>false</activevideoangle>
                    <activeaudioangle>false</activeaudioangle>
                    <clip id="clip-4"/>
                  </angle>
                  <angle>
                    <activevideoangle>false</activevideoangle>
                    <activeaudioangle>false</activeaudioangle>
                    <clip id="clip-5"/>
                  </angle>
                  <angle>
                    <activevideoangle>false</activevideoangle>
                    <activeaudioangle>false</activeaudioangle>
                    <clip id="clip-6"/>
                  </angle>
                  <angle>
                    <activevideoangle>false</activevideoangle>
                    <activeaudioangle>false</activeaudioangle>
                    <clip id="clip-7"/>
                  </angle>
                  <masterclipid>clip-master</masterclipid>
                </multiclip>
              </clipitem>
              <clipitem id="cs-202">
                <duration>121</duration>
                <rate>
                  <ntsc>false</ntsc>
                  <timebase>25</timebase>
                </rate>
                <in>21866</in>
                <out>21986</out>
                <start>21866</start>
                <end>21986</end>
                <file id="src-2"/>
                <sourcetrack>
                  <mediatype>video</mediatype>
                  <trackindex>1</trackindex>
                </sourcetrack>
                <multiclip id="mcs-202">
                  <name>MCS-202</name>
                  <masterclipid>clip-master</masterclipid>
                  <collapsed>false</collapsed>
                  <angle>
                    <activevideoangle>false</activevideoangle>
                    <activeaudioangle>false</activeaudioangle>
                    <clip id="clip-1"/>
                  </angle>
                  <angle>
                    <activevideoangle>true</activevideoangle>
                    <activeaudioangle>true</activeaudioangle>
                    <clip id="clip-2"/>
                  </angle>
                  <angle>
                    <activevideoangle>false</activevideoangle>
                    <activeaudioangle>false</activeaudioangle>
                    <clip id="clip-3"/>
                  </angle>
                  <angle>
                    <activevideoangle>false</activevideoangle>
                    <activeaudioangle>false</activeaudioangle>
                    <clip id="clip-4"/>
                  </angle>
                  <angle>
                    <activevideoangle>false</activevideoangle>
                    <activeaudioangle>false</activeaudioangle>
                    <clip id="clip-5"/>
                  </angle>
                  <angle>
                    <activevideoangle>false</activevideoangle>
                    <activeaudioangle>false</activeaudioangle>
                    <clip id="clip-6"/>
                  </angle>
                  <angle>
                    <activevideoangle>false</activevideoangle>
                    <activeaudioangle>false</activeaudioangle>
                    <clip id="clip-7"/>
                  </angle>
                  <masterclipid>clip-master</masterclipid>
                </multiclip>
              </clipitem>
              <clipitem id="cs-203">
                <duration>255</duration>
                <rate>
                  <ntsc>false</ntsc>
                  <timebase>25</timebase>
                </rate>
                <in>21986</in>
                <out>22240</out>
                <start>21986</start>
                <end>22240</end>
                <file id="src-3"/>
                <sourcetrack>
                  <mediatype>video</mediatype>
                  <trackindex>1</trackindex>
                </sourcetrack>
                <multiclip id="mcs-203">
                  <name>MCS-203</name>
                  <masterclipid>clip-master</masterclipid>
                  <collapsed>false</collapsed>
                  <angle>
                    <activevideoangle>false</activevideoangle>
                    <activeaudioangle>false</activeaudioangle>
                    <clip id="clip-1"/>
                  </angle>
                  <angle>
                    <activevideoangle>false</activevideoangle>
                    <activeaudioangle>false</activeaudioangle>
                    <clip id="clip-2"/>
                  </angle>
                  <angle>
                    <activevideoangle>true</activevideoangle>
                    <activeaudioangle>true</activeaudioangle>
                    <clip id="clip-3"/>
                  </angle>
                  <angle>
                    <activevideoangle>false</activevideoangle>
                    <activeaudioangle>false</activeaudioangle>
                    <clip id="clip-4"/>
                  </angle>
                  <angle>
                    <activevideoangle>false</activevideoangle>
                    <activeaudioangle>false</activeaudioangle>
                    <clip id="clip-5"/>
                  </angle>
                  <angle>
                    <activevideoangle>false</activevideoangle>
                    <activeaudioangle>false</activeaudioangle>
                    <clip id="clip-6"/>
                  </angle>
                  <angle>
                    <activevideoangle>false</activevideoangle>
                    <activeaudioangle>false</activeaudioangle>
                    <clip id="clip-7"/>
                  </angle>
                  <masterclipid>clip-master</masterclipid>
                </multiclip>
              </clipitem>
              <clipitem id="cs-204">
                <duration>73</duration>
                <rate>
                  <ntsc>false</ntsc>
                  <timebase>25</timebase>
                </rate>
                <in>22240</in>
                <out>22312</out>
                <start>22240</start>
                <end>22312</end>
                <file id="src-6"/>
                <sourcetrack>
                  <mediatype>video</mediatype>
                  <trackindex>1</trackindex>
                </sourcetrack>
                <multiclip id="mcs-204">
                  <name>MCS-204</name>
                  <masterclipid>clip-master</masterclipid>
                  <collapsed>false</collapsed>
                  <angle>
                    <activevideoangle>false</activevideoangle>
                    <activeaudioangle>false</activeaudioangle>
                    <clip id="clip-1"/>
                  </angle>
                  <angle>
                    <activevideoangle>false</activevideoangle>
                    <activeaudioangle>false</activeaudioangle>
                    <clip id="clip-2"/>
                  </angle>
                  <angle>
                    <activevideoangle>false</activevideoangle>
                    <activeaudioangle>false</activeaudioangle>
                    <clip id="clip-3"/>
                  </angle>
                  <angle>
                    <activevideoangle>false</activevideoangle>
                    <activeaudioangle>false</activeaudioangle>
                    <clip id="clip-4"/>
                  </angle>
                  <angle>
                    <activevideoangle>false</activevideoangle>
                    <activeaudioangle>false</activeaudioangle>
                    <clip id="clip-5"/>
                  </angle>
                  <angle>
                    <activevideoangle>true</activevideoangle>
                    <activeaudioangle>true</activeaudioangle>
                    <clip id="clip-6"/>
                  </angle>
                  <angle>
                    <activevideoangle>false</activevideoangle>
                    <activeaudioangle>false</activeaudioangle>
                    <clip id="clip-7"/>
                  </angle>
                  <masterclipid>clip-master</masterclipid>
                </multiclip>
              </clipitem>
              <clipitem id="cs-205">
                <duration>157</duration>
                <rate>
                  <ntsc>false</ntsc>
                  <timebase>25</timebase>
                </rate>
                <in>22312</in>
                <out>22468</out>
                <start>22312</start>
                <end>22468</end>
                <file id="src-2"/>
                <sourcetrack>
                  <mediatype>video</mediatype>
                  <trackindex>1</trackindex>
                </sourcetrack>
                <multiclip id="mcs-205">
                  <name>MCS-205</name>
                  <masterclipid>clip-master</masterclipid>
                  <collapsed>false</collapsed>
                  <angle>
                    <activevideoangle>false</activevideoangle>
                    <activeaudioangle>false</activeaudioangle>
                    <clip id="clip-1"/>
                  </angle>
                  <angle>
                    <activevideoangle>true</activevideoangle>
                    <activeaudioangle>true</activeaudioangle>
                    <clip id="clip-2"/>
                  </angle>
                  <angle>
                    <activevideoangle>false</activevideoangle>
                    <activeaudioangle>false</activeaudioangle>
                    <clip id="clip-3"/>
                  </angle>
                  <angle>
                    <activevideoangle>false</activevideoangle>
                    <activeaudioangle>false</activeaudioangle>
                    <clip id="clip-4"/>
                  </angle>
                  <angle>
                    <activevideoangle>false</activevideoangle>
                    <activeaudioangle>false</activeaudioangle>
                    <clip id="clip-5"/>
                  </angle>
                  <angle>
                    <activevideoangle>false</activevideoangle>
                    <activeaudioangle>false</activeaudioangle>
                    <clip id="clip-6"/>
                  </angle>
                  <angle>
                    <activevideoangle>false</activevideoangle>
                    <activeaudioangle>false</activeaudioangle>
                    <clip id="clip-7"/>
                  </angle>
                  <masterclipid>clip-master</masterclipid>
                </multiclip>
              </clipitem>
              <clipitem id="cs-206">
                <duration>155</duration>
                <rate>
                  <ntsc>false</ntsc>
                  <timebase>25</timebase>
                </rate>
                <in>22468</in>
                <out>22622</out>
                <start>22468</start>
                <end>22622</end>
                <file id="src-3"/>
                <sourcetrack>
                  <mediatype>video</mediatype>
                  <trackindex>1</trackindex>
                </sourcetrack>
                <multiclip id="mcs-206">
                  <name>MCS-206</name>
                  <masterclipid>clip-master</masterclipid>
                  <collapsed>false</collapsed>
                  <angle>
                    <activevideoangle>false</activevideoangle>
                    <activeaudioangle>false</activeaudioangle>
                    <clip id="clip-1"/>
                  </angle>
                  <angle>
                    <activevideoangle>false</activevideoangle>
                    <activeaudioangle>false</activeaudioangle>
                    <clip id="clip-2"/>
                  </angle>
                  <angle>
                    <activevideoangle>true</activevideoangle>
                    <activeaudioangle>true</activeaudioangle>
                    <clip id="clip-3"/>
                  </angle>
                  <angle>
                    <activevideoangle>false</activevideoangle>
                    <activeaudioangle>false</activeaudioangle>
                    <clip id="clip-4"/>
                  </angle>
                  <angle>
                    <activevideoangle>false</activevideoangle>
                    <activeaudioangle>false</activeaudioangle>
                    <clip id="clip-5"/>
                  </angle>
                  <angle>
                    <activevideoangle>false</activevideoangle>
                    <activeaudioangle>false</activeaudioangle>
                    <clip id="clip-6"/>
                  </angle>
                  <angle>
                    <activevideoangle>false</activevideoangle>
                    <activeaudioangle>false</activeaudioangle>
                    <clip id="clip-7"/>
                  </angle>
                  <masterclipid>clip-master</masterclipid>
                </multiclip>
              </clipitem>
              <clipitem id="cs-207">
                <duration>94</duration>
                <rate>
                  <ntsc>false</ntsc>
                  <timebase>25</timebase>
                </rate>
                <in>22622</in>
                <out>22715</out>
                <start>22622</start>
                <end>22715</end>
                <file id="src-4"/>
                <sourcetrack>
                  <mediatype>video</mediatype>
                  <trackindex>1</trackindex>
                </sourcetrack>
                <multiclip id="mcs-207">
                  <name>MCS-207</name>
                  <masterclipid>clip-master</masterclipid>
                  <collapsed>false</collapsed>
                  <angle>
                    <activevideoangle>false</activevideoangle>
                    <activeaudioangle>false</activeaudioangle>
                    <clip id="clip-1"/>
                  </angle>
                  <angle>
                    <activevideoangle>false</activevideoangle>
                    <activeaudioangle>false</activeaudioangle>
                    <clip id="clip-2"/>
                  </angle>
                  <angle>
                    <activevideoangle>false</activevideoangle>
                    <activeaudioangle>false</activeaudioangle>
                    <clip id="clip-3"/>
                  </angle>
                  <angle>
                    <activevideoangle>true</activevideoangle>
                    <activeaudioangle>true</activeaudioangle>
                    <clip id="clip-4"/>
                  </angle>
                  <angle>
                    <activevideoangle>false</activevideoangle>
                    <activeaudioangle>false</activeaudioangle>
                    <clip id="clip-5"/>
                  </angle>
                  <angle>
                    <activevideoangle>false</activevideoangle>
                    <activeaudioangle>false</activeaudioangle>
                    <clip id="clip-6"/>
                  </angle>
                  <angle>
                    <activevideoangle>false</activevideoangle>
                    <activeaudioangle>false</activeaudioangle>
                    <clip id="clip-7"/>
                  </angle>
                  <masterclipid>clip-master</masterclipid>
                </multiclip>
              </clipitem>
              <clipitem id="cs-208">
                <duration>211</duration>
                <rate>
                  <ntsc>false</ntsc>
                  <timebase>25</timebase>
                </rate>
                <in>22715</in>
                <out>22925</out>
                <start>22715</start>
                <end>22925</end>
                <file id="src-2"/>
                <sourcetrack>
                  <mediatype>video</mediatype>
                  <trackindex>1</trackindex>
                </sourcetrack>
                <multiclip id="mcs-208">
                  <name>MCS-208</name>
                  <masterclipid>clip-master</masterclipid>
                  <collapsed>false</collapsed>
                  <angle>
                    <activevideoangle>false</activevideoangle>
                    <activeaudioangle>false</activeaudioangle>
                    <clip id="clip-1"/>
                  </angle>
                  <angle>
                    <activevideoangle>true</activevideoangle>
                    <activeaudioangle>true</activeaudioangle>
                    <clip id="clip-2"/>
                  </angle>
                  <angle>
                    <activevideoangle>false</activevideoangle>
                    <activeaudioangle>false</activeaudioangle>
                    <clip id="clip-3"/>
                  </angle>
                  <angle>
                    <activevideoangle>false</activevideoangle>
                    <activeaudioangle>false</activeaudioangle>
                    <clip id="clip-4"/>
                  </angle>
                  <angle>
                    <activevideoangle>false</activevideoangle>
                    <activeaudioangle>false</activeaudioangle>
                    <clip id="clip-5"/>
                  </angle>
                  <angle>
                    <activevideoangle>false</activevideoangle>
                    <activeaudioangle>false</activeaudioangle>
                    <clip id="clip-6"/>
                  </angle>
                  <angle>
                    <activevideoangle>false</activevideoangle>
                    <activeaudioangle>false</activeaudioangle>
                    <clip id="clip-7"/>
                  </angle>
                  <masterclipid>clip-master</masterclipid>
                </multiclip>
              </clipitem>
              <clipitem id="cs-209">
                <duration>114</duration>
                <rate>
                  <ntsc>false</ntsc>
                  <timebase>25</timebase>
                </rate>
                <in>22925</in>
                <out>23038</out>
                <start>22925</start>
                <end>23038</end>
                <file id="src-3"/>
                <sourcetrack>
                  <mediatype>video</mediatype>
                  <trackindex>1</trackindex>
                </sourcetrack>
                <multiclip id="mcs-209">
                  <name>MCS-209</name>
                  <masterclipid>clip-master</masterclipid>
                  <collapsed>false</collapsed>
                  <angle>
                    <activevideoangle>false</activevideoangle>
                    <activeaudioangle>false</activeaudioangle>
                    <clip id="clip-1"/>
                  </angle>
                  <angle>
                    <activevideoangle>false</activevideoangle>
                    <activeaudioangle>false</activeaudioangle>
                    <clip id="clip-2"/>
                  </angle>
                  <angle>
                    <activevideoangle>true</activevideoangle>
                    <activeaudioangle>true</activeaudioangle>
                    <clip id="clip-3"/>
                  </angle>
                  <angle>
                    <activevideoangle>false</activevideoangle>
                    <activeaudioangle>false</activeaudioangle>
                    <clip id="clip-4"/>
                  </angle>
                  <angle>
                    <activevideoangle>false</activevideoangle>
                    <activeaudioangle>false</activeaudioangle>
                    <clip id="clip-5"/>
                  </angle>
                  <angle>
                    <activevideoangle>false</activevideoangle>
                    <activeaudioangle>false</activeaudioangle>
                    <clip id="clip-6"/>
                  </angle>
                  <angle>
                    <activevideoangle>false</activevideoangle>
                    <activeaudioangle>false</activeaudioangle>
                    <clip id="clip-7"/>
                  </angle>
                  <masterclipid>clip-master</masterclipid>
                </multiclip>
              </clipitem>
              <clipitem id="cs-210">
                <duration>286</duration>
                <rate>
                  <ntsc>false</ntsc>
                  <timebase>25</timebase>
                </rate>
                <in>23038</in>
                <out>23323</out>
                <start>23038</start>
                <end>23323</end>
                <file id="src-6"/>
                <sourcetrack>
                  <mediatype>video</mediatype>
                  <trackindex>1</trackindex>
                </sourcetrack>
                <multiclip id="mcs-210">
                  <name>MCS-210</name>
                  <masterclipid>clip-master</masterclipid>
                  <collapsed>false</collapsed>
                  <angle>
                    <activevideoangle>false</activevideoangle>
                    <activeaudioangle>false</activeaudioangle>
                    <clip id="clip-1"/>
                  </angle>
                  <angle>
                    <activevideoangle>false</activevideoangle>
                    <activeaudioangle>false</activeaudioangle>
                    <clip id="clip-2"/>
                  </angle>
                  <angle>
                    <activevideoangle>false</activevideoangle>
                    <activeaudioangle>false</activeaudioangle>
                    <clip id="clip-3"/>
                  </angle>
                  <angle>
                    <activevideoangle>false</activevideoangle>
                    <activeaudioangle>false</activeaudioangle>
                    <clip id="clip-4"/>
                  </angle>
                  <angle>
                    <activevideoangle>false</activevideoangle>
                    <activeaudioangle>false</activeaudioangle>
                    <clip id="clip-5"/>
                  </angle>
                  <angle>
                    <activevideoangle>true</activevideoangle>
                    <activeaudioangle>true</activeaudioangle>
                    <clip id="clip-6"/>
                  </angle>
                  <angle>
                    <activevideoangle>false</activevideoangle>
                    <activeaudioangle>false</activeaudioangle>
                    <clip id="clip-7"/>
                  </angle>
                  <masterclipid>clip-master</masterclipid>
                </multiclip>
              </clipitem>
              <clipitem id="cs-211">
                <duration>61</duration>
                <rate>
                  <ntsc>false</ntsc>
                  <timebase>25</timebase>
                </rate>
                <in>23323</in>
                <out>23383</out>
                <start>23323</start>
                <end>23383</end>
                <file id="src-2"/>
                <sourcetrack>
                  <mediatype>video</mediatype>
                  <trackindex>1</trackindex>
                </sourcetrack>
                <multiclip id="mcs-211">
                  <name>MCS-211</name>
                  <masterclipid>clip-master</masterclipid>
                  <collapsed>false</collapsed>
                  <angle>
                    <activevideoangle>false</activevideoangle>
                    <activeaudioangle>false</activeaudioangle>
                    <clip id="clip-1"/>
                  </angle>
                  <angle>
                    <activevideoangle>true</activevideoangle>
                    <activeaudioangle>true</activeaudioangle>
                    <clip id="clip-2"/>
                  </angle>
                  <angle>
                    <activevideoangle>false</activevideoangle>
                    <activeaudioangle>false</activeaudioangle>
                    <clip id="clip-3"/>
                  </angle>
                  <angle>
                    <activevideoangle>false</activevideoangle>
                    <activeaudioangle>false</activeaudioangle>
                    <clip id="clip-4"/>
                  </angle>
                  <angle>
                    <activevideoangle>false</activevideoangle>
                    <activeaudioangle>false</activeaudioangle>
                    <clip id="clip-5"/>
                  </angle>
                  <angle>
                    <activevideoangle>false</activevideoangle>
                    <activeaudioangle>false</activeaudioangle>
                    <clip id="clip-6"/>
                  </angle>
                  <angle>
                    <activevideoangle>false</activevideoangle>
                    <activeaudioangle>false</activeaudioangle>
                    <clip id="clip-7"/>
                  </angle>
                  <masterclipid>clip-master</masterclipid>
                </multiclip>
              </clipitem>
              <clipitem id="cs-212">
                <duration>127</duration>
                <rate>
                  <ntsc>false</ntsc>
                  <timebase>25</timebase>
                </rate>
                <in>23383</in>
                <out>23509</out>
                <start>23383</start>
                <end>23509</end>
                <file id="src-3"/>
                <sourcetrack>
                  <mediatype>video</mediatype>
                  <trackindex>1</trackindex>
                </sourcetrack>
                <multiclip id="mcs-212">
                  <name>MCS-212</name>
                  <masterclipid>clip-master</masterclipid>
                  <collapsed>false</collapsed>
                  <angle>
                    <activevideoangle>false</activevideoangle>
                    <activeaudioangle>false</activeaudioangle>
                    <clip id="clip-1"/>
                  </angle>
                  <angle>
                    <activevideoangle>false</activevideoangle>
                    <activeaudioangle>false</activeaudioangle>
                    <clip id="clip-2"/>
                  </angle>
                  <angle>
                    <activevideoangle>true</activevideoangle>
                    <activeaudioangle>true</activeaudioangle>
                    <clip id="clip-3"/>
                  </angle>
                  <angle>
                    <activevideoangle>false</activevideoangle>
                    <activeaudioangle>false</activeaudioangle>
                    <clip id="clip-4"/>
                  </angle>
                  <angle>
                    <activevideoangle>false</activevideoangle>
                    <activeaudioangle>false</activeaudioangle>
                    <clip id="clip-5"/>
                  </angle>
                  <angle>
                    <activevideoangle>false</activevideoangle>
                    <activeaudioangle>false</activeaudioangle>
                    <clip id="clip-6"/>
                  </angle>
                  <angle>
                    <activevideoangle>false</activevideoangle>
                    <activeaudioangle>false</activeaudioangle>
                    <clip id="clip-7"/>
                  </angle>
                  <masterclipid>clip-master</masterclipid>
                </multiclip>
              </clipitem>
              <clipitem id="cs-213">
                <duration>87</duration>
                <rate>
                  <ntsc>false</ntsc>
                  <timebase>25</timebase>
                </rate>
                <in>23509</in>
                <out>23595</out>
                <start>23509</start>
                <end>23595</end>
                <file id="src-4"/>
                <sourcetrack>
                  <mediatype>video</mediatype>
                  <trackindex>1</trackindex>
                </sourcetrack>
                <multiclip id="mcs-213">
                  <name>MCS-213</name>
                  <masterclipid>clip-master</masterclipid>
                  <collapsed>false</collapsed>
                  <angle>
                    <activevideoangle>false</activevideoangle>
                    <activeaudioangle>false</activeaudioangle>
                    <clip id="clip-1"/>
                  </angle>
                  <angle>
                    <activevideoangle>false</activevideoangle>
                    <activeaudioangle>false</activeaudioangle>
                    <clip id="clip-2"/>
                  </angle>
                  <angle>
                    <activevideoangle>false</activevideoangle>
                    <activeaudioangle>false</activeaudioangle>
                    <clip id="clip-3"/>
                  </angle>
                  <angle>
                    <activevideoangle>true</activevideoangle>
                    <activeaudioangle>true</activeaudioangle>
                    <clip id="clip-4"/>
                  </angle>
                  <angle>
                    <activevideoangle>false</activevideoangle>
                    <activeaudioangle>false</activeaudioangle>
                    <clip id="clip-5"/>
                  </angle>
                  <angle>
                    <activevideoangle>false</activevideoangle>
                    <activeaudioangle>false</activeaudioangle>
                    <clip id="clip-6"/>
                  </angle>
                  <angle>
                    <activevideoangle>false</activevideoangle>
                    <activeaudioangle>false</activeaudioangle>
                    <clip id="clip-7"/>
                  </angle>
                  <masterclipid>clip-master</masterclipid>
                </multiclip>
              </clipitem>
              <clipitem id="cs-214">
                <duration>133</duration>
                <rate>
                  <ntsc>false</ntsc>
                  <timebase>25</timebase>
                </rate>
                <in>23595</in>
                <out>23727</out>
                <start>23595</start>
                <end>23727</end>
                <file id="src-2"/>
                <sourcetrack>
                  <mediatype>video</mediatype>
                  <trackindex>1</trackindex>
                </sourcetrack>
                <multiclip id="mcs-214">
                  <name>MCS-214</name>
                  <masterclipid>clip-master</masterclipid>
                  <collapsed>false</collapsed>
                  <angle>
                    <activevideoangle>false</activevideoangle>
                    <activeaudioangle>false</activeaudioangle>
                    <clip id="clip-1"/>
                  </angle>
                  <angle>
                    <activevideoangle>true</activevideoangle>
                    <activeaudioangle>true</activeaudioangle>
                    <clip id="clip-2"/>
                  </angle>
                  <angle>
                    <activevideoangle>false</activevideoangle>
                    <activeaudioangle>false</activeaudioangle>
                    <clip id="clip-3"/>
                  </angle>
                  <angle>
                    <activevideoangle>false</activevideoangle>
                    <activeaudioangle>false</activeaudioangle>
                    <clip id="clip-4"/>
                  </angle>
                  <angle>
                    <activevideoangle>false</activevideoangle>
                    <activeaudioangle>false</activeaudioangle>
                    <clip id="clip-5"/>
                  </angle>
                  <angle>
                    <activevideoangle>false</activevideoangle>
                    <activeaudioangle>false</activeaudioangle>
                    <clip id="clip-6"/>
                  </angle>
                  <angle>
                    <activevideoangle>false</activevideoangle>
                    <activeaudioangle>false</activeaudioangle>
                    <clip id="clip-7"/>
                  </angle>
                  <masterclipid>clip-master</masterclipid>
                </multiclip>
              </clipitem>
              <clipitem id="cs-215">
                <duration>393</duration>
                <rate>
                  <ntsc>false</ntsc>
                  <timebase>25</timebase>
                </rate>
                <in>23727</in>
                <out>24119</out>
                <start>23727</start>
                <end>24119</end>
                <file id="src-1"/>
                <sourcetrack>
                  <mediatype>video</mediatype>
                  <trackindex>1</trackindex>
                </sourcetrack>
                <multiclip id="mcs-215">
                  <name>MCS-215</name>
                  <masterclipid>clip-master</masterclipid>
                  <collapsed>false</collapsed>
                  <angle>
                    <activevideoangle>true</activevideoangle>
                    <activeaudioangle>true</activeaudioangle>
                    <clip id="clip-1"/>
                  </angle>
                  <angle>
                    <activevideoangle>false</activevideoangle>
                    <activeaudioangle>false</activeaudioangle>
                    <clip id="clip-2"/>
                  </angle>
                  <angle>
                    <activevideoangle>false</activevideoangle>
                    <activeaudioangle>false</activeaudioangle>
                    <clip id="clip-3"/>
                  </angle>
                  <angle>
                    <activevideoangle>false</activevideoangle>
                    <activeaudioangle>false</activeaudioangle>
                    <clip id="clip-4"/>
                  </angle>
                  <angle>
                    <activevideoangle>false</activevideoangle>
                    <activeaudioangle>false</activeaudioangle>
                    <clip id="clip-5"/>
                  </angle>
                  <angle>
                    <activevideoangle>false</activevideoangle>
                    <activeaudioangle>false</activeaudioangle>
                    <clip id="clip-6"/>
                  </angle>
                  <angle>
                    <activevideoangle>false</activevideoangle>
                    <activeaudioangle>false</activeaudioangle>
                    <clip id="clip-7"/>
                  </angle>
                  <masterclipid>clip-master</masterclipid>
                </multiclip>
              </clipitem>
              <clipitem id="cs-216">
                <duration>125</duration>
                <rate>
                  <ntsc>false</ntsc>
                  <timebase>25</timebase>
                </rate>
                <in>24119</in>
                <out>24243</out>
                <start>24119</start>
                <end>24243</end>
                <file id="src-2"/>
                <sourcetrack>
                  <mediatype>video</mediatype>
                  <trackindex>1</trackindex>
                </sourcetrack>
                <multiclip id="mcs-216">
                  <name>MCS-216</name>
                  <masterclipid>clip-master</masterclipid>
                  <collapsed>false</collapsed>
                  <angle>
                    <activevideoangle>false</activevideoangle>
                    <activeaudioangle>false</activeaudioangle>
                    <clip id="clip-1"/>
                  </angle>
                  <angle>
                    <activevideoangle>true</activevideoangle>
                    <activeaudioangle>true</activeaudioangle>
                    <clip id="clip-2"/>
                  </angle>
                  <angle>
                    <activevideoangle>false</activevideoangle>
                    <activeaudioangle>false</activeaudioangle>
                    <clip id="clip-3"/>
                  </angle>
                  <angle>
                    <activevideoangle>false</activevideoangle>
                    <activeaudioangle>false</activeaudioangle>
                    <clip id="clip-4"/>
                  </angle>
                  <angle>
                    <activevideoangle>false</activevideoangle>
                    <activeaudioangle>false</activeaudioangle>
                    <clip id="clip-5"/>
                  </angle>
                  <angle>
                    <activevideoangle>false</activevideoangle>
                    <activeaudioangle>false</activeaudioangle>
                    <clip id="clip-6"/>
                  </angle>
                  <angle>
                    <activevideoangle>false</activevideoangle>
                    <activeaudioangle>false</activeaudioangle>
                    <clip id="clip-7"/>
                  </angle>
                  <masterclipid>clip-master</masterclipid>
                </multiclip>
              </clipitem>
              <clipitem id="cs-217">
                <duration>245</duration>
                <rate>
                  <ntsc>false</ntsc>
                  <timebase>25</timebase>
                </rate>
                <in>24243</in>
                <out>24487</out>
                <start>24243</start>
                <end>24487</end>
                <file id="src-1"/>
                <sourcetrack>
                  <mediatype>video</mediatype>
                  <trackindex>1</trackindex>
                </sourcetrack>
                <multiclip id="mcs-217">
                  <name>MCS-217</name>
                  <masterclipid>clip-master</masterclipid>
                  <collapsed>false</collapsed>
                  <angle>
                    <activevideoangle>true</activevideoangle>
                    <activeaudioangle>true</activeaudioangle>
                    <clip id="clip-1"/>
                  </angle>
                  <angle>
                    <activevideoangle>false</activevideoangle>
                    <activeaudioangle>false</activeaudioangle>
                    <clip id="clip-2"/>
                  </angle>
                  <angle>
                    <activevideoangle>false</activevideoangle>
                    <activeaudioangle>false</activeaudioangle>
                    <clip id="clip-3"/>
                  </angle>
                  <angle>
                    <activevideoangle>false</activevideoangle>
                    <activeaudioangle>false</activeaudioangle>
                    <clip id="clip-4"/>
                  </angle>
                  <angle>
                    <activevideoangle>false</activevideoangle>
                    <activeaudioangle>false</activeaudioangle>
                    <clip id="clip-5"/>
                  </angle>
                  <angle>
                    <activevideoangle>false</activevideoangle>
                    <activeaudioangle>false</activeaudioangle>
                    <clip id="clip-6"/>
                  </angle>
                  <angle>
                    <activevideoangle>false</activevideoangle>
                    <activeaudioangle>false</activeaudioangle>
                    <clip id="clip-7"/>
                  </angle>
                  <masterclipid>clip-master</masterclipid>
                </multiclip>
              </clipitem>
              <clipitem id="cs-218">
                <duration>311</duration>
                <rate>
                  <ntsc>false</ntsc>
                  <timebase>25</timebase>
                </rate>
                <in>24487</in>
                <out>24797</out>
                <start>24487</start>
                <end>24797</end>
                <file id="src-2"/>
                <sourcetrack>
                  <mediatype>video</mediatype>
                  <trackindex>1</trackindex>
                </sourcetrack>
                <multiclip id="mcs-218">
                  <name>MCS-218</name>
                  <masterclipid>clip-master</masterclipid>
                  <collapsed>false</collapsed>
                  <angle>
                    <activevideoangle>false</activevideoangle>
                    <activeaudioangle>false</activeaudioangle>
                    <clip id="clip-1"/>
                  </angle>
                  <angle>
                    <activevideoangle>true</activevideoangle>
                    <activeaudioangle>true</activeaudioangle>
                    <clip id="clip-2"/>
                  </angle>
                  <angle>
                    <activevideoangle>false</activevideoangle>
                    <activeaudioangle>false</activeaudioangle>
                    <clip id="clip-3"/>
                  </angle>
                  <angle>
                    <activevideoangle>false</activevideoangle>
                    <activeaudioangle>false</activeaudioangle>
                    <clip id="clip-4"/>
                  </angle>
                  <angle>
                    <activevideoangle>false</activevideoangle>
                    <activeaudioangle>false</activeaudioangle>
                    <clip id="clip-5"/>
                  </angle>
                  <angle>
                    <activevideoangle>false</activevideoangle>
                    <activeaudioangle>false</activeaudioangle>
                    <clip id="clip-6"/>
                  </angle>
                  <angle>
                    <activevideoangle>false</activevideoangle>
                    <activeaudioangle>false</activeaudioangle>
                    <clip id="clip-7"/>
                  </angle>
                  <masterclipid>clip-master</masterclipid>
                </multiclip>
              </clipitem>
              <clipitem id="cs-219">
                <duration>194</duration>
                <rate>
                  <ntsc>false</ntsc>
                  <timebase>25</timebase>
                </rate>
                <in>24797</in>
                <out>24990</out>
                <start>24797</start>
                <end>24990</end>
                <file id="src-3"/>
                <sourcetrack>
                  <mediatype>video</mediatype>
                  <trackindex>1</trackindex>
                </sourcetrack>
                <multiclip id="mcs-219">
                  <name>MCS-219</name>
                  <masterclipid>clip-master</masterclipid>
                  <collapsed>false</collapsed>
                  <angle>
                    <activevideoangle>false</activevideoangle>
                    <activeaudioangle>false</activeaudioangle>
                    <clip id="clip-1"/>
                  </angle>
                  <angle>
                    <activevideoangle>false</activevideoangle>
                    <activeaudioangle>false</activeaudioangle>
                    <clip id="clip-2"/>
                  </angle>
                  <angle>
                    <activevideoangle>true</activevideoangle>
                    <activeaudioangle>true</activeaudioangle>
                    <clip id="clip-3"/>
                  </angle>
                  <angle>
                    <activevideoangle>false</activevideoangle>
                    <activeaudioangle>false</activeaudioangle>
                    <clip id="clip-4"/>
                  </angle>
                  <angle>
                    <activevideoangle>false</activevideoangle>
                    <activeaudioangle>false</activeaudioangle>
                    <clip id="clip-5"/>
                  </angle>
                  <angle>
                    <activevideoangle>false</activevideoangle>
                    <activeaudioangle>false</activeaudioangle>
                    <clip id="clip-6"/>
                  </angle>
                  <angle>
                    <activevideoangle>false</activevideoangle>
                    <activeaudioangle>false</activeaudioangle>
                    <clip id="clip-7"/>
                  </angle>
                  <masterclipid>clip-master</masterclipid>
                </multiclip>
              </clipitem>
              <clipitem id="cs-220">
                <duration>406</duration>
                <rate>
                  <ntsc>false</ntsc>
                  <timebase>25</timebase>
                </rate>
                <in>24990</in>
                <out>25395</out>
                <start>24990</start>
                <end>25395</end>
                <file id="src-2"/>
                <sourcetrack>
                  <mediatype>video</mediatype>
                  <trackindex>1</trackindex>
                </sourcetrack>
                <multiclip id="mcs-220">
                  <name>MCS-220</name>
                  <masterclipid>clip-master</masterclipid>
                  <collapsed>false</collapsed>
                  <angle>
                    <activevideoangle>false</activevideoangle>
                    <activeaudioangle>false</activeaudioangle>
                    <clip id="clip-1"/>
                  </angle>
                  <angle>
                    <activevideoangle>true</activevideoangle>
                    <activeaudioangle>true</activeaudioangle>
                    <clip id="clip-2"/>
                  </angle>
                  <angle>
                    <activevideoangle>false</activevideoangle>
                    <activeaudioangle>false</activeaudioangle>
                    <clip id="clip-3"/>
                  </angle>
                  <angle>
                    <activevideoangle>false</activevideoangle>
                    <activeaudioangle>false</activeaudioangle>
                    <clip id="clip-4"/>
                  </angle>
                  <angle>
                    <activevideoangle>false</activevideoangle>
                    <activeaudioangle>false</activeaudioangle>
                    <clip id="clip-5"/>
                  </angle>
                  <angle>
                    <activevideoangle>false</activevideoangle>
                    <activeaudioangle>false</activeaudioangle>
                    <clip id="clip-6"/>
                  </angle>
                  <angle>
                    <activevideoangle>false</activevideoangle>
                    <activeaudioangle>false</activeaudioangle>
                    <clip id="clip-7"/>
                  </angle>
                  <masterclipid>clip-master</masterclipid>
                </multiclip>
              </clipitem>
              <clipitem id="cs-221">
                <duration>103</duration>
                <rate>
                  <ntsc>false</ntsc>
                  <timebase>25</timebase>
                </rate>
                <in>25395</in>
                <out>25497</out>
                <start>25395</start>
                <end>25497</end>
                <file id="src-3"/>
                <sourcetrack>
                  <mediatype>video</mediatype>
                  <trackindex>1</trackindex>
                </sourcetrack>
                <multiclip id="mcs-221">
                  <name>MCS-221</name>
                  <masterclipid>clip-master</masterclipid>
                  <collapsed>false</collapsed>
                  <angle>
                    <activevideoangle>false</activevideoangle>
                    <activeaudioangle>false</activeaudioangle>
                    <clip id="clip-1"/>
                  </angle>
                  <angle>
                    <activevideoangle>false</activevideoangle>
                    <activeaudioangle>false</activeaudioangle>
                    <clip id="clip-2"/>
                  </angle>
                  <angle>
                    <activevideoangle>true</activevideoangle>
                    <activeaudioangle>true</activeaudioangle>
                    <clip id="clip-3"/>
                  </angle>
                  <angle>
                    <activevideoangle>false</activevideoangle>
                    <activeaudioangle>false</activeaudioangle>
                    <clip id="clip-4"/>
                  </angle>
                  <angle>
                    <activevideoangle>false</activevideoangle>
                    <activeaudioangle>false</activeaudioangle>
                    <clip id="clip-5"/>
                  </angle>
                  <angle>
                    <activevideoangle>false</activevideoangle>
                    <activeaudioangle>false</activeaudioangle>
                    <clip id="clip-6"/>
                  </angle>
                  <angle>
                    <activevideoangle>false</activevideoangle>
                    <activeaudioangle>false</activeaudioangle>
                    <clip id="clip-7"/>
                  </angle>
                  <masterclipid>clip-master</masterclipid>
                </multiclip>
              </clipitem>
              <clipitem id="cs-222">
                <duration>133</duration>
                <rate>
                  <ntsc>false</ntsc>
                  <timebase>25</timebase>
                </rate>
                <in>25497</in>
                <out>25629</out>
                <start>25497</start>
                <end>25629</end>
                <file id="src-2"/>
                <sourcetrack>
                  <mediatype>video</mediatype>
                  <trackindex>1</trackindex>
                </sourcetrack>
                <multiclip id="mcs-222">
                  <name>MCS-222</name>
                  <masterclipid>clip-master</masterclipid>
                  <collapsed>false</collapsed>
                  <angle>
                    <activevideoangle>false</activevideoangle>
                    <activeaudioangle>false</activeaudioangle>
                    <clip id="clip-1"/>
                  </angle>
                  <angle>
                    <activevideoangle>true</activevideoangle>
                    <activeaudioangle>true</activeaudioangle>
                    <clip id="clip-2"/>
                  </angle>
                  <angle>
                    <activevideoangle>false</activevideoangle>
                    <activeaudioangle>false</activeaudioangle>
                    <clip id="clip-3"/>
                  </angle>
                  <angle>
                    <activevideoangle>false</activevideoangle>
                    <activeaudioangle>false</activeaudioangle>
                    <clip id="clip-4"/>
                  </angle>
                  <angle>
                    <activevideoangle>false</activevideoangle>
                    <activeaudioangle>false</activeaudioangle>
                    <clip id="clip-5"/>
                  </angle>
                  <angle>
                    <activevideoangle>false</activevideoangle>
                    <activeaudioangle>false</activeaudioangle>
                    <clip id="clip-6"/>
                  </angle>
                  <angle>
                    <activevideoangle>false</activevideoangle>
                    <activeaudioangle>false</activeaudioangle>
                    <clip id="clip-7"/>
                  </angle>
                  <masterclipid>clip-master</masterclipid>
                </multiclip>
              </clipitem>
              <clipitem id="cs-223">
                <duration>167</duration>
                <rate>
                  <ntsc>false</ntsc>
                  <timebase>25</timebase>
                </rate>
                <in>25629</in>
                <out>25795</out>
                <start>25629</start>
                <end>25795</end>
                <file id="src-1"/>
                <sourcetrack>
                  <mediatype>video</mediatype>
                  <trackindex>1</trackindex>
                </sourcetrack>
                <multiclip id="mcs-223">
                  <name>MCS-223</name>
                  <masterclipid>clip-master</masterclipid>
                  <collapsed>false</collapsed>
                  <angle>
                    <activevideoangle>true</activevideoangle>
                    <activeaudioangle>true</activeaudioangle>
                    <clip id="clip-1"/>
                  </angle>
                  <angle>
                    <activevideoangle>false</activevideoangle>
                    <activeaudioangle>false</activeaudioangle>
                    <clip id="clip-2"/>
                  </angle>
                  <angle>
                    <activevideoangle>false</activevideoangle>
                    <activeaudioangle>false</activeaudioangle>
                    <clip id="clip-3"/>
                  </angle>
                  <angle>
                    <activevideoangle>false</activevideoangle>
                    <activeaudioangle>false</activeaudioangle>
                    <clip id="clip-4"/>
                  </angle>
                  <angle>
                    <activevideoangle>false</activevideoangle>
                    <activeaudioangle>false</activeaudioangle>
                    <clip id="clip-5"/>
                  </angle>
                  <angle>
                    <activevideoangle>false</activevideoangle>
                    <activeaudioangle>false</activeaudioangle>
                    <clip id="clip-6"/>
                  </angle>
                  <angle>
                    <activevideoangle>false</activevideoangle>
                    <activeaudioangle>false</activeaudioangle>
                    <clip id="clip-7"/>
                  </angle>
                  <masterclipid>clip-master</masterclipid>
                </multiclip>
              </clipitem>
              <clipitem id="cs-224">
                <duration>119</duration>
                <rate>
                  <ntsc>false</ntsc>
                  <timebase>25</timebase>
                </rate>
                <in>25795</in>
                <out>25913</out>
                <start>25795</start>
                <end>25913</end>
                <file id="src-2"/>
                <sourcetrack>
                  <mediatype>video</mediatype>
                  <trackindex>1</trackindex>
                </sourcetrack>
                <multiclip id="mcs-224">
                  <name>MCS-224</name>
                  <masterclipid>clip-master</masterclipid>
                  <collapsed>false</collapsed>
                  <angle>
                    <activevideoangle>false</activevideoangle>
                    <activeaudioangle>false</activeaudioangle>
                    <clip id="clip-1"/>
                  </angle>
                  <angle>
                    <activevideoangle>true</activevideoangle>
                    <activeaudioangle>true</activeaudioangle>
                    <clip id="clip-2"/>
                  </angle>
                  <angle>
                    <activevideoangle>false</activevideoangle>
                    <activeaudioangle>false</activeaudioangle>
                    <clip id="clip-3"/>
                  </angle>
                  <angle>
                    <activevideoangle>false</activevideoangle>
                    <activeaudioangle>false</activeaudioangle>
                    <clip id="clip-4"/>
                  </angle>
                  <angle>
                    <activevideoangle>false</activevideoangle>
                    <activeaudioangle>false</activeaudioangle>
                    <clip id="clip-5"/>
                  </angle>
                  <angle>
                    <activevideoangle>false</activevideoangle>
                    <activeaudioangle>false</activeaudioangle>
                    <clip id="clip-6"/>
                  </angle>
                  <angle>
                    <activevideoangle>false</activevideoangle>
                    <activeaudioangle>false</activeaudioangle>
                    <clip id="clip-7"/>
                  </angle>
                  <masterclipid>clip-master</masterclipid>
                </multiclip>
              </clipitem>
              <clipitem id="cs-225">
                <duration>228</duration>
                <rate>
                  <ntsc>false</ntsc>
                  <timebase>25</timebase>
                </rate>
                <in>25913</in>
                <out>26140</out>
                <start>25913</start>
                <end>26140</end>
                <file id="src-3"/>
                <sourcetrack>
                  <mediatype>video</mediatype>
                  <trackindex>1</trackindex>
                </sourcetrack>
                <multiclip id="mcs-225">
                  <name>MCS-225</name>
                  <masterclipid>clip-master</masterclipid>
                  <collapsed>false</collapsed>
                  <angle>
                    <activevideoangle>false</activevideoangle>
                    <activeaudioangle>false</activeaudioangle>
                    <clip id="clip-1"/>
                  </angle>
                  <angle>
                    <activevideoangle>false</activevideoangle>
                    <activeaudioangle>false</activeaudioangle>
                    <clip id="clip-2"/>
                  </angle>
                  <angle>
                    <activevideoangle>true</activevideoangle>
                    <activeaudioangle>true</activeaudioangle>
                    <clip id="clip-3"/>
                  </angle>
                  <angle>
                    <activevideoangle>false</activevideoangle>
                    <activeaudioangle>false</activeaudioangle>
                    <clip id="clip-4"/>
                  </angle>
                  <angle>
                    <activevideoangle>false</activevideoangle>
                    <activeaudioangle>false</activeaudioangle>
                    <clip id="clip-5"/>
                  </angle>
                  <angle>
                    <activevideoangle>false</activevideoangle>
                    <activeaudioangle>false</activeaudioangle>
                    <clip id="clip-6"/>
                  </angle>
                  <angle>
                    <activevideoangle>false</activevideoangle>
                    <activeaudioangle>false</activeaudioangle>
                    <clip id="clip-7"/>
                  </angle>
                  <masterclipid>clip-master</masterclipid>
                </multiclip>
              </clipitem>
              <clipitem id="cs-226">
                <duration>95</duration>
                <rate>
                  <ntsc>false</ntsc>
                  <timebase>25</timebase>
                </rate>
                <in>26140</in>
                <out>26234</out>
                <start>26140</start>
                <end>26234</end>
                <file id="src-6"/>
                <sourcetrack>
                  <mediatype>video</mediatype>
                  <trackindex>1</trackindex>
                </sourcetrack>
                <multiclip id="mcs-226">
                  <name>MCS-226</name>
                  <masterclipid>clip-master</masterclipid>
                  <collapsed>false</collapsed>
                  <angle>
                    <activevideoangle>false</activevideoangle>
                    <activeaudioangle>false</activeaudioangle>
                    <clip id="clip-1"/>
                  </angle>
                  <angle>
                    <activevideoangle>false</activevideoangle>
                    <activeaudioangle>false</activeaudioangle>
                    <clip id="clip-2"/>
                  </angle>
                  <angle>
                    <activevideoangle>false</activevideoangle>
                    <activeaudioangle>false</activeaudioangle>
                    <clip id="clip-3"/>
                  </angle>
                  <angle>
                    <activevideoangle>false</activevideoangle>
                    <activeaudioangle>false</activeaudioangle>
                    <clip id="clip-4"/>
                  </angle>
                  <angle>
                    <activevideoangle>false</activevideoangle>
                    <activeaudioangle>false</activeaudioangle>
                    <clip id="clip-5"/>
                  </angle>
                  <angle>
                    <activevideoangle>true</activevideoangle>
                    <activeaudioangle>true</activeaudioangle>
                    <clip id="clip-6"/>
                  </angle>
                  <angle>
                    <activevideoangle>false</activevideoangle>
                    <activeaudioangle>false</activeaudioangle>
                    <clip id="clip-7"/>
                  </angle>
                  <masterclipid>clip-master</masterclipid>
                </multiclip>
              </clipitem>
              <clipitem id="cs-227">
                <duration>71</duration>
                <rate>
                  <ntsc>false</ntsc>
                  <timebase>25</timebase>
                </rate>
                <in>26234</in>
                <out>26304</out>
                <start>26234</start>
                <end>26304</end>
                <file id="src-2"/>
                <sourcetrack>
                  <mediatype>video</mediatype>
                  <trackindex>1</trackindex>
                </sourcetrack>
                <multiclip id="mcs-227">
                  <name>MCS-227</name>
                  <masterclipid>clip-master</masterclipid>
                  <collapsed>false</collapsed>
                  <angle>
                    <activevideoangle>false</activevideoangle>
                    <activeaudioangle>false</activeaudioangle>
                    <clip id="clip-1"/>
                  </angle>
                  <angle>
                    <activevideoangle>true</activevideoangle>
                    <activeaudioangle>true</activeaudioangle>
                    <clip id="clip-2"/>
                  </angle>
                  <angle>
                    <activevideoangle>false</activevideoangle>
                    <activeaudioangle>false</activeaudioangle>
                    <clip id="clip-3"/>
                  </angle>
                  <angle>
                    <activevideoangle>false</activevideoangle>
                    <activeaudioangle>false</activeaudioangle>
                    <clip id="clip-4"/>
                  </angle>
                  <angle>
                    <activevideoangle>false</activevideoangle>
                    <activeaudioangle>false</activeaudioangle>
                    <clip id="clip-5"/>
                  </angle>
                  <angle>
                    <activevideoangle>false</activevideoangle>
                    <activeaudioangle>false</activeaudioangle>
                    <clip id="clip-6"/>
                  </angle>
                  <angle>
                    <activevideoangle>false</activevideoangle>
                    <activeaudioangle>false</activeaudioangle>
                    <clip id="clip-7"/>
                  </angle>
                  <masterclipid>clip-master</masterclipid>
                </multiclip>
              </clipitem>
              <clipitem id="cs-228">
                <duration>151</duration>
                <rate>
                  <ntsc>false</ntsc>
                  <timebase>25</timebase>
                </rate>
                <in>26304</in>
                <out>26454</out>
                <start>26304</start>
                <end>26454</end>
                <file id="src-3"/>
                <sourcetrack>
                  <mediatype>video</mediatype>
                  <trackindex>1</trackindex>
                </sourcetrack>
                <multiclip id="mcs-228">
                  <name>MCS-228</name>
                  <masterclipid>clip-master</masterclipid>
                  <collapsed>false</collapsed>
                  <angle>
                    <activevideoangle>false</activevideoangle>
                    <activeaudioangle>false</activeaudioangle>
                    <clip id="clip-1"/>
                  </angle>
                  <angle>
                    <activevideoangle>false</activevideoangle>
                    <activeaudioangle>false</activeaudioangle>
                    <clip id="clip-2"/>
                  </angle>
                  <angle>
                    <activevideoangle>true</activevideoangle>
                    <activeaudioangle>true</activeaudioangle>
                    <clip id="clip-3"/>
                  </angle>
                  <angle>
                    <activevideoangle>false</activevideoangle>
                    <activeaudioangle>false</activeaudioangle>
                    <clip id="clip-4"/>
                  </angle>
                  <angle>
                    <activevideoangle>false</activevideoangle>
                    <activeaudioangle>false</activeaudioangle>
                    <clip id="clip-5"/>
                  </angle>
                  <angle>
                    <activevideoangle>false</activevideoangle>
                    <activeaudioangle>false</activeaudioangle>
                    <clip id="clip-6"/>
                  </angle>
                  <angle>
                    <activevideoangle>false</activevideoangle>
                    <activeaudioangle>false</activeaudioangle>
                    <clip id="clip-7"/>
                  </angle>
                  <masterclipid>clip-master</masterclipid>
                </multiclip>
              </clipitem>
              <clipitem id="cs-229">
                <duration>90</duration>
                <rate>
                  <ntsc>false</ntsc>
                  <timebase>25</timebase>
                </rate>
                <in>26454</in>
                <out>26543</out>
                <start>26454</start>
                <end>26543</end>
                <file id="src-4"/>
                <sourcetrack>
                  <mediatype>video</mediatype>
                  <trackindex>1</trackindex>
                </sourcetrack>
                <multiclip id="mcs-229">
                  <name>MCS-229</name>
                  <masterclipid>clip-master</masterclipid>
                  <collapsed>false</collapsed>
                  <angle>
                    <activevideoangle>false</activevideoangle>
                    <activeaudioangle>false</activeaudioangle>
                    <clip id="clip-1"/>
                  </angle>
                  <angle>
                    <activevideoangle>false</activevideoangle>
                    <activeaudioangle>false</activeaudioangle>
                    <clip id="clip-2"/>
                  </angle>
                  <angle>
                    <activevideoangle>false</activevideoangle>
                    <activeaudioangle>false</activeaudioangle>
                    <clip id="clip-3"/>
                  </angle>
                  <angle>
                    <activevideoangle>true</activevideoangle>
                    <activeaudioangle>true</activeaudioangle>
                    <clip id="clip-4"/>
                  </angle>
                  <angle>
                    <activevideoangle>false</activevideoangle>
                    <activeaudioangle>false</activeaudioangle>
                    <clip id="clip-5"/>
                  </angle>
                  <angle>
                    <activevideoangle>false</activevideoangle>
                    <activeaudioangle>false</activeaudioangle>
                    <clip id="clip-6"/>
                  </angle>
                  <angle>
                    <activevideoangle>false</activevideoangle>
                    <activeaudioangle>false</activeaudioangle>
                    <clip id="clip-7"/>
                  </angle>
                  <masterclipid>clip-master</masterclipid>
                </multiclip>
              </clipitem>
              <clipitem id="cs-230">
                <duration>338</duration>
                <rate>
                  <ntsc>false</ntsc>
                  <timebase>25</timebase>
                </rate>
                <in>26543</in>
                <out>26880</out>
                <start>26543</start>
                <end>26880</end>
                <file id="src-2"/>
                <sourcetrack>
                  <mediatype>video</mediatype>
                  <trackindex>1</trackindex>
                </sourcetrack>
                <multiclip id="mcs-230">
                  <name>MCS-230</name>
                  <masterclipid>clip-master</masterclipid>
                  <collapsed>false</collapsed>
                  <angle>
                    <activevideoangle>false</activevideoangle>
                    <activeaudioangle>false</activeaudioangle>
                    <clip id="clip-1"/>
                  </angle>
                  <angle>
                    <activevideoangle>true</activevideoangle>
                    <activeaudioangle>true</activeaudioangle>
                    <clip id="clip-2"/>
                  </angle>
                  <angle>
                    <activevideoangle>false</activevideoangle>
                    <activeaudioangle>false</activeaudioangle>
                    <clip id="clip-3"/>
                  </angle>
                  <angle>
                    <activevideoangle>false</activevideoangle>
                    <activeaudioangle>false</activeaudioangle>
                    <clip id="clip-4"/>
                  </angle>
                  <angle>
                    <activevideoangle>false</activevideoangle>
                    <activeaudioangle>false</activeaudioangle>
                    <clip id="clip-5"/>
                  </angle>
                  <angle>
                    <activevideoangle>false</activevideoangle>
                    <activeaudioangle>false</activeaudioangle>
                    <clip id="clip-6"/>
                  </angle>
                  <angle>
                    <activevideoangle>false</activevideoangle>
                    <activeaudioangle>false</activeaudioangle>
                    <clip id="clip-7"/>
                  </angle>
                  <masterclipid>clip-master</masterclipid>
                </multiclip>
              </clipitem>
              <clipitem id="cs-231">
                <duration>85</duration>
                <rate>
                  <ntsc>false</ntsc>
                  <timebase>25</timebase>
                </rate>
                <in>26880</in>
                <out>26964</out>
                <start>26880</start>
                <end>26964</end>
                <file id="src-6"/>
                <sourcetrack>
                  <mediatype>video</mediatype>
                  <trackindex>1</trackindex>
                </sourcetrack>
                <multiclip id="mcs-231">
                  <name>MCS-231</name>
                  <masterclipid>clip-master</masterclipid>
                  <collapsed>false</collapsed>
                  <angle>
                    <activevideoangle>false</activevideoangle>
                    <activeaudioangle>false</activeaudioangle>
                    <clip id="clip-1"/>
                  </angle>
                  <angle>
                    <activevideoangle>false</activevideoangle>
                    <activeaudioangle>false</activeaudioangle>
                    <clip id="clip-2"/>
                  </angle>
                  <angle>
                    <activevideoangle>false</activevideoangle>
                    <activeaudioangle>false</activeaudioangle>
                    <clip id="clip-3"/>
                  </angle>
                  <angle>
                    <activevideoangle>false</activevideoangle>
                    <activeaudioangle>false</activeaudioangle>
                    <clip id="clip-4"/>
                  </angle>
                  <angle>
                    <activevideoangle>false</activevideoangle>
                    <activeaudioangle>false</activeaudioangle>
                    <clip id="clip-5"/>
                  </angle>
                  <angle>
                    <activevideoangle>true</activevideoangle>
                    <activeaudioangle>true</activeaudioangle>
                    <clip id="clip-6"/>
                  </angle>
                  <angle>
                    <activevideoangle>false</activevideoangle>
                    <activeaudioangle>false</activeaudioangle>
                    <clip id="clip-7"/>
                  </angle>
                  <masterclipid>clip-master</masterclipid>
                </multiclip>
              </clipitem>
              <clipitem id="cs-232">
                <duration>422</duration>
                <rate>
                  <ntsc>false</ntsc>
                  <timebase>25</timebase>
                </rate>
                <in>26964</in>
                <out>27385</out>
                <start>26964</start>
                <end>27385</end>
                <file id="src-3"/>
                <sourcetrack>
                  <mediatype>video</mediatype>
                  <trackindex>1</trackindex>
                </sourcetrack>
                <multiclip id="mcs-232">
                  <name>MCS-232</name>
                  <masterclipid>clip-master</masterclipid>
                  <collapsed>false</collapsed>
                  <angle>
                    <activevideoangle>false</activevideoangle>
                    <activeaudioangle>false</activeaudioangle>
                    <clip id="clip-1"/>
                  </angle>
                  <angle>
                    <activevideoangle>false</activevideoangle>
                    <activeaudioangle>false</activeaudioangle>
                    <clip id="clip-2"/>
                  </angle>
                  <angle>
                    <activevideoangle>true</activevideoangle>
                    <activeaudioangle>true</activeaudioangle>
                    <clip id="clip-3"/>
                  </angle>
                  <angle>
                    <activevideoangle>false</activevideoangle>
                    <activeaudioangle>false</activeaudioangle>
                    <clip id="clip-4"/>
                  </angle>
                  <angle>
                    <activevideoangle>false</activevideoangle>
                    <activeaudioangle>false</activeaudioangle>
                    <clip id="clip-5"/>
                  </angle>
                  <angle>
                    <activevideoangle>false</activevideoangle>
                    <activeaudioangle>false</activeaudioangle>
                    <clip id="clip-6"/>
                  </angle>
                  <angle>
                    <activevideoangle>false</activevideoangle>
                    <activeaudioangle>false</activeaudioangle>
                    <clip id="clip-7"/>
                  </angle>
                  <masterclipid>clip-master</masterclipid>
                </multiclip>
              </clipitem>
              <clipitem id="cs-233">
                <duration>193</duration>
                <rate>
                  <ntsc>false</ntsc>
                  <timebase>25</timebase>
                </rate>
                <in>27385</in>
                <out>27577</out>
                <start>27385</start>
                <end>27577</end>
                <file id="src-2"/>
                <sourcetrack>
                  <mediatype>video</mediatype>
                  <trackindex>1</trackindex>
                </sourcetrack>
                <multiclip id="mcs-233">
                  <name>MCS-233</name>
                  <masterclipid>clip-master</masterclipid>
                  <collapsed>false</collapsed>
                  <angle>
                    <activevideoangle>false</activevideoangle>
                    <activeaudioangle>false</activeaudioangle>
                    <clip id="clip-1"/>
                  </angle>
                  <angle>
                    <activevideoangle>true</activevideoangle>
                    <activeaudioangle>true</activeaudioangle>
                    <clip id="clip-2"/>
                  </angle>
                  <angle>
                    <activevideoangle>false</activevideoangle>
                    <activeaudioangle>false</activeaudioangle>
                    <clip id="clip-3"/>
                  </angle>
                  <angle>
                    <activevideoangle>false</activevideoangle>
                    <activeaudioangle>false</activeaudioangle>
                    <clip id="clip-4"/>
                  </angle>
                  <angle>
                    <activevideoangle>false</activevideoangle>
                    <activeaudioangle>false</activeaudioangle>
                    <clip id="clip-5"/>
                  </angle>
                  <angle>
                    <activevideoangle>false</activevideoangle>
                    <activeaudioangle>false</activeaudioangle>
                    <clip id="clip-6"/>
                  </angle>
                  <angle>
                    <activevideoangle>false</activevideoangle>
                    <activeaudioangle>false</activeaudioangle>
                    <clip id="clip-7"/>
                  </angle>
                  <masterclipid>clip-master</masterclipid>
                </multiclip>
              </clipitem>
              <clipitem id="cs-234">
                <duration>245</duration>
                <rate>
                  <ntsc>false</ntsc>
                  <timebase>25</timebase>
                </rate>
                <in>27577</in>
                <out>27821</out>
                <start>27577</start>
                <end>27821</end>
                <file id="src-3"/>
                <sourcetrack>
                  <mediatype>video</mediatype>
                  <trackindex>1</trackindex>
                </sourcetrack>
                <multiclip id="mcs-234">
                  <name>MCS-234</name>
                  <masterclipid>clip-master</masterclipid>
                  <collapsed>false</collapsed>
                  <angle>
                    <activevideoangle>false</activevideoangle>
                    <activeaudioangle>false</activeaudioangle>
                    <clip id="clip-1"/>
                  </angle>
                  <angle>
                    <activevideoangle>false</activevideoangle>
                    <activeaudioangle>false</activeaudioangle>
                    <clip id="clip-2"/>
                  </angle>
                  <angle>
                    <activevideoangle>true</activevideoangle>
                    <activeaudioangle>true</activeaudioangle>
                    <clip id="clip-3"/>
                  </angle>
                  <angle>
                    <activevideoangle>false</activevideoangle>
                    <activeaudioangle>false</activeaudioangle>
                    <clip id="clip-4"/>
                  </angle>
                  <angle>
                    <activevideoangle>false</activevideoangle>
                    <activeaudioangle>false</activeaudioangle>
                    <clip id="clip-5"/>
                  </angle>
                  <angle>
                    <activevideoangle>false</activevideoangle>
                    <activeaudioangle>false</activeaudioangle>
                    <clip id="clip-6"/>
                  </angle>
                  <angle>
                    <activevideoangle>false</activevideoangle>
                    <activeaudioangle>false</activeaudioangle>
                    <clip id="clip-7"/>
                  </angle>
                  <masterclipid>clip-master</masterclipid>
                </multiclip>
              </clipitem>
              <clipitem id="cs-235">
                <duration>70</duration>
                <rate>
                  <ntsc>false</ntsc>
                  <timebase>25</timebase>
                </rate>
                <in>27821</in>
                <out>27890</out>
                <start>27821</start>
                <end>27890</end>
                <file id="src-4"/>
                <sourcetrack>
                  <mediatype>video</mediatype>
                  <trackindex>1</trackindex>
                </sourcetrack>
                <multiclip id="mcs-235">
                  <name>MCS-235</name>
                  <masterclipid>clip-master</masterclipid>
                  <collapsed>false</collapsed>
                  <angle>
                    <activevideoangle>false</activevideoangle>
                    <activeaudioangle>false</activeaudioangle>
                    <clip id="clip-1"/>
                  </angle>
                  <angle>
                    <activevideoangle>false</activevideoangle>
                    <activeaudioangle>false</activeaudioangle>
                    <clip id="clip-2"/>
                  </angle>
                  <angle>
                    <activevideoangle>false</activevideoangle>
                    <activeaudioangle>false</activeaudioangle>
                    <clip id="clip-3"/>
                  </angle>
                  <angle>
                    <activevideoangle>true</activevideoangle>
                    <activeaudioangle>true</activeaudioangle>
                    <clip id="clip-4"/>
                  </angle>
                  <angle>
                    <activevideoangle>false</activevideoangle>
                    <activeaudioangle>false</activeaudioangle>
                    <clip id="clip-5"/>
                  </angle>
                  <angle>
                    <activevideoangle>false</activevideoangle>
                    <activeaudioangle>false</activeaudioangle>
                    <clip id="clip-6"/>
                  </angle>
                  <angle>
                    <activevideoangle>false</activevideoangle>
                    <activeaudioangle>false</activeaudioangle>
                    <clip id="clip-7"/>
                  </angle>
                  <masterclipid>clip-master</masterclipid>
                </multiclip>
              </clipitem>
              <clipitem id="cs-236">
                <duration>90</duration>
                <rate>
                  <ntsc>false</ntsc>
                  <timebase>25</timebase>
                </rate>
                <in>27890</in>
                <out>27979</out>
                <start>27890</start>
                <end>27979</end>
                <file id="src-2"/>
                <sourcetrack>
                  <mediatype>video</mediatype>
                  <trackindex>1</trackindex>
                </sourcetrack>
                <multiclip id="mcs-236">
                  <name>MCS-236</name>
                  <masterclipid>clip-master</masterclipid>
                  <collapsed>false</collapsed>
                  <angle>
                    <activevideoangle>false</activevideoangle>
                    <activeaudioangle>false</activeaudioangle>
                    <clip id="clip-1"/>
                  </angle>
                  <angle>
                    <activevideoangle>true</activevideoangle>
                    <activeaudioangle>true</activeaudioangle>
                    <clip id="clip-2"/>
                  </angle>
                  <angle>
                    <activevideoangle>false</activevideoangle>
                    <activeaudioangle>false</activeaudioangle>
                    <clip id="clip-3"/>
                  </angle>
                  <angle>
                    <activevideoangle>false</activevideoangle>
                    <activeaudioangle>false</activeaudioangle>
                    <clip id="clip-4"/>
                  </angle>
                  <angle>
                    <activevideoangle>false</activevideoangle>
                    <activeaudioangle>false</activeaudioangle>
                    <clip id="clip-5"/>
                  </angle>
                  <angle>
                    <activevideoangle>false</activevideoangle>
                    <activeaudioangle>false</activeaudioangle>
                    <clip id="clip-6"/>
                  </angle>
                  <angle>
                    <activevideoangle>false</activevideoangle>
                    <activeaudioangle>false</activeaudioangle>
                    <clip id="clip-7"/>
                  </angle>
                  <masterclipid>clip-master</masterclipid>
                </multiclip>
              </clipitem>
              <clipitem id="cs-237">
                <duration>94</duration>
                <rate>
                  <ntsc>false</ntsc>
                  <timebase>25</timebase>
                </rate>
                <in>27979</in>
                <out>28072</out>
                <start>27979</start>
                <end>28072</end>
                <file id="src-3"/>
                <sourcetrack>
                  <mediatype>video</mediatype>
                  <trackindex>1</trackindex>
                </sourcetrack>
                <multiclip id="mcs-237">
                  <name>MCS-237</name>
                  <masterclipid>clip-master</masterclipid>
                  <collapsed>false</collapsed>
                  <angle>
                    <activevideoangle>false</activevideoangle>
                    <activeaudioangle>false</activeaudioangle>
                    <clip id="clip-1"/>
                  </angle>
                  <angle>
                    <activevideoangle>false</activevideoangle>
                    <activeaudioangle>false</activeaudioangle>
                    <clip id="clip-2"/>
                  </angle>
                  <angle>
                    <activevideoangle>true</activevideoangle>
                    <activeaudioangle>true</activeaudioangle>
                    <clip id="clip-3"/>
                  </angle>
                  <angle>
                    <activevideoangle>false</activevideoangle>
                    <activeaudioangle>false</activeaudioangle>
                    <clip id="clip-4"/>
                  </angle>
                  <angle>
                    <activevideoangle>false</activevideoangle>
                    <activeaudioangle>false</activeaudioangle>
                    <clip id="clip-5"/>
                  </angle>
                  <angle>
                    <activevideoangle>false</activevideoangle>
                    <activeaudioangle>false</activeaudioangle>
                    <clip id="clip-6"/>
                  </angle>
                  <angle>
                    <activevideoangle>false</activevideoangle>
                    <activeaudioangle>false</activeaudioangle>
                    <clip id="clip-7"/>
                  </angle>
                  <masterclipid>clip-master</masterclipid>
                </multiclip>
              </clipitem>
              <clipitem id="cs-238">
                <duration>115</duration>
                <rate>
                  <ntsc>false</ntsc>
                  <timebase>25</timebase>
                </rate>
                <in>28072</in>
                <out>28186</out>
                <start>28072</start>
                <end>28186</end>
                <file id="src-1"/>
                <sourcetrack>
                  <mediatype>video</mediatype>
                  <trackindex>1</trackindex>
                </sourcetrack>
                <multiclip id="mcs-238">
                  <name>MCS-238</name>
                  <masterclipid>clip-master</masterclipid>
                  <collapsed>false</collapsed>
                  <angle>
                    <activevideoangle>true</activevideoangle>
                    <activeaudioangle>true</activeaudioangle>
                    <clip id="clip-1"/>
                  </angle>
                  <angle>
                    <activevideoangle>false</activevideoangle>
                    <activeaudioangle>false</activeaudioangle>
                    <clip id="clip-2"/>
                  </angle>
                  <angle>
                    <activevideoangle>false</activevideoangle>
                    <activeaudioangle>false</activeaudioangle>
                    <clip id="clip-3"/>
                  </angle>
                  <angle>
                    <activevideoangle>false</activevideoangle>
                    <activeaudioangle>false</activeaudioangle>
                    <clip id="clip-4"/>
                  </angle>
                  <angle>
                    <activevideoangle>false</activevideoangle>
                    <activeaudioangle>false</activeaudioangle>
                    <clip id="clip-5"/>
                  </angle>
                  <angle>
                    <activevideoangle>false</activevideoangle>
                    <activeaudioangle>false</activeaudioangle>
                    <clip id="clip-6"/>
                  </angle>
                  <angle>
                    <activevideoangle>false</activevideoangle>
                    <activeaudioangle>false</activeaudioangle>
                    <clip id="clip-7"/>
                  </angle>
                  <masterclipid>clip-master</masterclipid>
                </multiclip>
              </clipitem>
              <clipitem id="cs-239">
                <duration>210</duration>
                <rate>
                  <ntsc>false</ntsc>
                  <timebase>25</timebase>
                </rate>
                <in>28186</in>
                <out>28395</out>
                <start>28186</start>
                <end>28395</end>
                <file id="src-3"/>
                <sourcetrack>
                  <mediatype>video</mediatype>
                  <trackindex>1</trackindex>
                </sourcetrack>
                <multiclip id="mcs-239">
                  <name>MCS-239</name>
                  <masterclipid>clip-master</masterclipid>
                  <collapsed>false</collapsed>
                  <angle>
                    <activevideoangle>false</activevideoangle>
                    <activeaudioangle>false</activeaudioangle>
                    <clip id="clip-1"/>
                  </angle>
                  <angle>
                    <activevideoangle>false</activevideoangle>
                    <activeaudioangle>false</activeaudioangle>
                    <clip id="clip-2"/>
                  </angle>
                  <angle>
                    <activevideoangle>true</activevideoangle>
                    <activeaudioangle>true</activeaudioangle>
                    <clip id="clip-3"/>
                  </angle>
                  <angle>
                    <activevideoangle>false</activevideoangle>
                    <activeaudioangle>false</activeaudioangle>
                    <clip id="clip-4"/>
                  </angle>
                  <angle>
                    <activevideoangle>false</activevideoangle>
                    <activeaudioangle>false</activeaudioangle>
                    <clip id="clip-5"/>
                  </angle>
                  <angle>
                    <activevideoangle>false</activevideoangle>
                    <activeaudioangle>false</activeaudioangle>
                    <clip id="clip-6"/>
                  </angle>
                  <angle>
                    <activevideoangle>false</activevideoangle>
                    <activeaudioangle>false</activeaudioangle>
                    <clip id="clip-7"/>
                  </angle>
                  <masterclipid>clip-master</masterclipid>
                </multiclip>
              </clipitem>
              <clipitem id="cs-240">
                <duration>144</duration>
                <rate>
                  <ntsc>false</ntsc>
                  <timebase>25</timebase>
                </rate>
                <in>28395</in>
                <out>28538</out>
                <start>28395</start>
                <end>28538</end>
                <file id="src-2"/>
                <sourcetrack>
                  <mediatype>video</mediatype>
                  <trackindex>1</trackindex>
                </sourcetrack>
                <multiclip id="mcs-240">
                  <name>MCS-240</name>
                  <masterclipid>clip-master</masterclipid>
                  <collapsed>false</collapsed>
                  <angle>
                    <activevideoangle>false</activevideoangle>
                    <activeaudioangle>false</activeaudioangle>
                    <clip id="clip-1"/>
                  </angle>
                  <angle>
                    <activevideoangle>true</activevideoangle>
                    <activeaudioangle>true</activeaudioangle>
                    <clip id="clip-2"/>
                  </angle>
                  <angle>
                    <activevideoangle>false</activevideoangle>
                    <activeaudioangle>false</activeaudioangle>
                    <clip id="clip-3"/>
                  </angle>
                  <angle>
                    <activevideoangle>false</activevideoangle>
                    <activeaudioangle>false</activeaudioangle>
                    <clip id="clip-4"/>
                  </angle>
                  <angle>
                    <activevideoangle>false</activevideoangle>
                    <activeaudioangle>false</activeaudioangle>
                    <clip id="clip-5"/>
                  </angle>
                  <angle>
                    <activevideoangle>false</activevideoangle>
                    <activeaudioangle>false</activeaudioangle>
                    <clip id="clip-6"/>
                  </angle>
                  <angle>
                    <activevideoangle>false</activevideoangle>
                    <activeaudioangle>false</activeaudioangle>
                    <clip id="clip-7"/>
                  </angle>
                  <masterclipid>clip-master</masterclipid>
                </multiclip>
              </clipitem>
              <clipitem id="cs-241">
                <duration>221</duration>
                <rate>
                  <ntsc>false</ntsc>
                  <timebase>25</timebase>
                </rate>
                <in>28538</in>
                <out>28758</out>
                <start>28538</start>
                <end>28758</end>
                <file id="src-3"/>
                <sourcetrack>
                  <mediatype>video</mediatype>
                  <trackindex>1</trackindex>
                </sourcetrack>
                <multiclip id="mcs-241">
                  <name>MCS-241</name>
                  <masterclipid>clip-master</masterclipid>
                  <collapsed>false</collapsed>
                  <angle>
                    <activevideoangle>false</activevideoangle>
                    <activeaudioangle>false</activeaudioangle>
                    <clip id="clip-1"/>
                  </angle>
                  <angle>
                    <activevideoangle>false</activevideoangle>
                    <activeaudioangle>false</activeaudioangle>
                    <clip id="clip-2"/>
                  </angle>
                  <angle>
                    <activevideoangle>true</activevideoangle>
                    <activeaudioangle>true</activeaudioangle>
                    <clip id="clip-3"/>
                  </angle>
                  <angle>
                    <activevideoangle>false</activevideoangle>
                    <activeaudioangle>false</activeaudioangle>
                    <clip id="clip-4"/>
                  </angle>
                  <angle>
                    <activevideoangle>false</activevideoangle>
                    <activeaudioangle>false</activeaudioangle>
                    <clip id="clip-5"/>
                  </angle>
                  <angle>
                    <activevideoangle>false</activevideoangle>
                    <activeaudioangle>false</activeaudioangle>
                    <clip id="clip-6"/>
                  </angle>
                  <angle>
                    <activevideoangle>false</activevideoangle>
                    <activeaudioangle>false</activeaudioangle>
                    <clip id="clip-7"/>
                  </angle>
                  <masterclipid>clip-master</masterclipid>
                </multiclip>
              </clipitem>
              <clipitem id="cs-242">
                <duration>65</duration>
                <rate>
                  <ntsc>false</ntsc>
                  <timebase>25</timebase>
                </rate>
                <in>28758</in>
                <out>28822</out>
                <start>28758</start>
                <end>28822</end>
                <file id="src-6"/>
                <sourcetrack>
                  <mediatype>video</mediatype>
                  <trackindex>1</trackindex>
                </sourcetrack>
                <multiclip id="mcs-242">
                  <name>MCS-242</name>
                  <masterclipid>clip-master</masterclipid>
                  <collapsed>false</collapsed>
                  <angle>
                    <activevideoangle>false</activevideoangle>
                    <activeaudioangle>false</activeaudioangle>
                    <clip id="clip-1"/>
                  </angle>
                  <angle>
                    <activevideoangle>false</activevideoangle>
                    <activeaudioangle>false</activeaudioangle>
                    <clip id="clip-2"/>
                  </angle>
                  <angle>
                    <activevideoangle>false</activevideoangle>
                    <activeaudioangle>false</activeaudioangle>
                    <clip id="clip-3"/>
                  </angle>
                  <angle>
                    <activevideoangle>false</activevideoangle>
                    <activeaudioangle>false</activeaudioangle>
                    <clip id="clip-4"/>
                  </angle>
                  <angle>
                    <activevideoangle>false</activevideoangle>
                    <activeaudioangle>false</activeaudioangle>
                    <clip id="clip-5"/>
                  </angle>
                  <angle>
                    <activevideoangle>true</activevideoangle>
                    <activeaudioangle>true</activeaudioangle>
                    <clip id="clip-6"/>
                  </angle>
                  <angle>
                    <activevideoangle>false</activevideoangle>
                    <activeaudioangle>false</activeaudioangle>
                    <clip id="clip-7"/>
                  </angle>
                  <masterclipid>clip-master</masterclipid>
                </multiclip>
              </clipitem>
              <clipitem id="cs-243">
                <duration>113</duration>
                <rate>
                  <ntsc>false</ntsc>
                  <timebase>25</timebase>
                </rate>
                <in>28822</in>
                <out>28934</out>
                <start>28822</start>
                <end>28934</end>
                <file id="src-3"/>
                <sourcetrack>
                  <mediatype>video</mediatype>
                  <trackindex>1</trackindex>
                </sourcetrack>
                <multiclip id="mcs-243">
                  <name>MCS-243</name>
                  <masterclipid>clip-master</masterclipid>
                  <collapsed>false</collapsed>
                  <angle>
                    <activevideoangle>false</activevideoangle>
                    <activeaudioangle>false</activeaudioangle>
                    <clip id="clip-1"/>
                  </angle>
                  <angle>
                    <activevideoangle>false</activevideoangle>
                    <activeaudioangle>false</activeaudioangle>
                    <clip id="clip-2"/>
                  </angle>
                  <angle>
                    <activevideoangle>true</activevideoangle>
                    <activeaudioangle>true</activeaudioangle>
                    <clip id="clip-3"/>
                  </angle>
                  <angle>
                    <activevideoangle>false</activevideoangle>
                    <activeaudioangle>false</activeaudioangle>
                    <clip id="clip-4"/>
                  </angle>
                  <angle>
                    <activevideoangle>false</activevideoangle>
                    <activeaudioangle>false</activeaudioangle>
                    <clip id="clip-5"/>
                  </angle>
                  <angle>
                    <activevideoangle>false</activevideoangle>
                    <activeaudioangle>false</activeaudioangle>
                    <clip id="clip-6"/>
                  </angle>
                  <angle>
                    <activevideoangle>false</activevideoangle>
                    <activeaudioangle>false</activeaudioangle>
                    <clip id="clip-7"/>
                  </angle>
                  <masterclipid>clip-master</masterclipid>
                </multiclip>
              </clipitem>
              <clipitem id="cs-244">
                <duration>66</duration>
                <rate>
                  <ntsc>false</ntsc>
                  <timebase>25</timebase>
                </rate>
                <in>28934</in>
                <out>28999</out>
                <start>28934</start>
                <end>28999</end>
                <file id="src-2"/>
                <sourcetrack>
                  <mediatype>video</mediatype>
                  <trackindex>1</trackindex>
                </sourcetrack>
                <multiclip id="mcs-244">
                  <name>MCS-244</name>
                  <masterclipid>clip-master</masterclipid>
                  <collapsed>false</collapsed>
                  <angle>
                    <activevideoangle>false</activevideoangle>
                    <activeaudioangle>false</activeaudioangle>
                    <clip id="clip-1"/>
                  </angle>
                  <angle>
                    <activevideoangle>true</activevideoangle>
                    <activeaudioangle>true</activeaudioangle>
                    <clip id="clip-2"/>
                  </angle>
                  <angle>
                    <activevideoangle>false</activevideoangle>
                    <activeaudioangle>false</activeaudioangle>
                    <clip id="clip-3"/>
                  </angle>
                  <angle>
                    <activevideoangle>false</activevideoangle>
                    <activeaudioangle>false</activeaudioangle>
                    <clip id="clip-4"/>
                  </angle>
                  <angle>
                    <activevideoangle>false</activevideoangle>
                    <activeaudioangle>false</activeaudioangle>
                    <clip id="clip-5"/>
                  </angle>
                  <angle>
                    <activevideoangle>false</activevideoangle>
                    <activeaudioangle>false</activeaudioangle>
                    <clip id="clip-6"/>
                  </angle>
                  <angle>
                    <activevideoangle>false</activevideoangle>
                    <activeaudioangle>false</activeaudioangle>
                    <clip id="clip-7"/>
                  </angle>
                  <masterclipid>clip-master</masterclipid>
                </multiclip>
              </clipitem>
              <clipitem id="cs-245">
                <duration>256</duration>
                <rate>
                  <ntsc>false</ntsc>
                  <timebase>25</timebase>
                </rate>
                <in>28999</in>
                <out>29254</out>
                <start>28999</start>
                <end>29254</end>
                <file id="src-3"/>
                <sourcetrack>
                  <mediatype>video</mediatype>
                  <trackindex>1</trackindex>
                </sourcetrack>
                <multiclip id="mcs-245">
                  <name>MCS-245</name>
                  <masterclipid>clip-master</masterclipid>
                  <collapsed>false</collapsed>
                  <angle>
                    <activevideoangle>false</activevideoangle>
                    <activeaudioangle>false</activeaudioangle>
                    <clip id="clip-1"/>
                  </angle>
                  <angle>
                    <activevideoangle>false</activevideoangle>
                    <activeaudioangle>false</activeaudioangle>
                    <clip id="clip-2"/>
                  </angle>
                  <angle>
                    <activevideoangle>true</activevideoangle>
                    <activeaudioangle>true</activeaudioangle>
                    <clip id="clip-3"/>
                  </angle>
                  <angle>
                    <activevideoangle>false</activevideoangle>
                    <activeaudioangle>false</activeaudioangle>
                    <clip id="clip-4"/>
                  </angle>
                  <angle>
                    <activevideoangle>false</activevideoangle>
                    <activeaudioangle>false</activeaudioangle>
                    <clip id="clip-5"/>
                  </angle>
                  <angle>
                    <activevideoangle>false</activevideoangle>
                    <activeaudioangle>false</activeaudioangle>
                    <clip id="clip-6"/>
                  </angle>
                  <angle>
                    <activevideoangle>false</activevideoangle>
                    <activeaudioangle>false</activeaudioangle>
                    <clip id="clip-7"/>
                  </angle>
                  <masterclipid>clip-master</masterclipid>
                </multiclip>
              </clipitem>
              <clipitem id="cs-246">
                <duration>93</duration>
                <rate>
                  <ntsc>false</ntsc>
                  <timebase>25</timebase>
                </rate>
                <in>29254</in>
                <out>29346</out>
                <start>29254</start>
                <end>29346</end>
                <file id="src-2"/>
                <sourcetrack>
                  <mediatype>video</mediatype>
                  <trackindex>1</trackindex>
                </sourcetrack>
                <multiclip id="mcs-246">
                  <name>MCS-246</name>
                  <masterclipid>clip-master</masterclipid>
                  <collapsed>false</collapsed>
                  <angle>
                    <activevideoangle>false</activevideoangle>
                    <activeaudioangle>false</activeaudioangle>
                    <clip id="clip-1"/>
                  </angle>
                  <angle>
                    <activevideoangle>true</activevideoangle>
                    <activeaudioangle>true</activeaudioangle>
                    <clip id="clip-2"/>
                  </angle>
                  <angle>
                    <activevideoangle>false</activevideoangle>
                    <activeaudioangle>false</activeaudioangle>
                    <clip id="clip-3"/>
                  </angle>
                  <angle>
                    <activevideoangle>false</activevideoangle>
                    <activeaudioangle>false</activeaudioangle>
                    <clip id="clip-4"/>
                  </angle>
                  <angle>
                    <activevideoangle>false</activevideoangle>
                    <activeaudioangle>false</activeaudioangle>
                    <clip id="clip-5"/>
                  </angle>
                  <angle>
                    <activevideoangle>false</activevideoangle>
                    <activeaudioangle>false</activeaudioangle>
                    <clip id="clip-6"/>
                  </angle>
                  <angle>
                    <activevideoangle>false</activevideoangle>
                    <activeaudioangle>false</activeaudioangle>
                    <clip id="clip-7"/>
                  </angle>
                  <masterclipid>clip-master</masterclipid>
                </multiclip>
              </clipitem>
              <clipitem id="cs-247">
                <duration>249</duration>
                <rate>
                  <ntsc>false</ntsc>
                  <timebase>25</timebase>
                </rate>
                <in>29346</in>
                <out>29594</out>
                <start>29346</start>
                <end>29594</end>
                <file id="src-4"/>
                <sourcetrack>
                  <mediatype>video</mediatype>
                  <trackindex>1</trackindex>
                </sourcetrack>
                <multiclip id="mcs-247">
                  <name>MCS-247</name>
                  <masterclipid>clip-master</masterclipid>
                  <collapsed>false</collapsed>
                  <angle>
                    <activevideoangle>false</activevideoangle>
                    <activeaudioangle>false</activeaudioangle>
                    <clip id="clip-1"/>
                  </angle>
                  <angle>
                    <activevideoangle>false</activevideoangle>
                    <activeaudioangle>false</activeaudioangle>
                    <clip id="clip-2"/>
                  </angle>
                  <angle>
                    <activevideoangle>false</activevideoangle>
                    <activeaudioangle>false</activeaudioangle>
                    <clip id="clip-3"/>
                  </angle>
                  <angle>
                    <activevideoangle>true</activevideoangle>
                    <activeaudioangle>true</activeaudioangle>
                    <clip id="clip-4"/>
                  </angle>
                  <angle>
                    <activevideoangle>false</activevideoangle>
                    <activeaudioangle>false</activeaudioangle>
                    <clip id="clip-5"/>
                  </angle>
                  <angle>
                    <activevideoangle>false</activevideoangle>
                    <activeaudioangle>false</activeaudioangle>
                    <clip id="clip-6"/>
                  </angle>
                  <angle>
                    <activevideoangle>false</activevideoangle>
                    <activeaudioangle>false</activeaudioangle>
                    <clip id="clip-7"/>
                  </angle>
                  <masterclipid>clip-master</masterclipid>
                </multiclip>
              </clipitem>
              <clipitem id="cs-248">
                <duration>66</duration>
                <rate>
                  <ntsc>false</ntsc>
                  <timebase>25</timebase>
                </rate>
                <in>29594</in>
                <out>29659</out>
                <start>29594</start>
                <end>29659</end>
                <file id="src-6"/>
                <sourcetrack>
                  <mediatype>video</mediatype>
                  <trackindex>1</trackindex>
                </sourcetrack>
                <multiclip id="mcs-248">
                  <name>MCS-248</name>
                  <masterclipid>clip-master</masterclipid>
                  <collapsed>false</collapsed>
                  <angle>
                    <activevideoangle>false</activevideoangle>
                    <activeaudioangle>false</activeaudioangle>
                    <clip id="clip-1"/>
                  </angle>
                  <angle>
                    <activevideoangle>false</activevideoangle>
                    <activeaudioangle>false</activeaudioangle>
                    <clip id="clip-2"/>
                  </angle>
                  <angle>
                    <activevideoangle>false</activevideoangle>
                    <activeaudioangle>false</activeaudioangle>
                    <clip id="clip-3"/>
                  </angle>
                  <angle>
                    <activevideoangle>false</activevideoangle>
                    <activeaudioangle>false</activeaudioangle>
                    <clip id="clip-4"/>
                  </angle>
                  <angle>
                    <activevideoangle>false</activevideoangle>
                    <activeaudioangle>false</activeaudioangle>
                    <clip id="clip-5"/>
                  </angle>
                  <angle>
                    <activevideoangle>true</activevideoangle>
                    <activeaudioangle>true</activeaudioangle>
                    <clip id="clip-6"/>
                  </angle>
                  <angle>
                    <activevideoangle>false</activevideoangle>
                    <activeaudioangle>false</activeaudioangle>
                    <clip id="clip-7"/>
                  </angle>
                  <masterclipid>clip-master</masterclipid>
                </multiclip>
              </clipitem>
              <clipitem id="cs-249">
                <duration>252</duration>
                <rate>
                  <ntsc>false</ntsc>
                  <timebase>25</timebase>
                </rate>
                <in>29659</in>
                <out>29910</out>
                <start>29659</start>
                <end>29910</end>
                <file id="src-3"/>
                <sourcetrack>
                  <mediatype>video</mediatype>
                  <trackindex>1</trackindex>
                </sourcetrack>
                <multiclip id="mcs-249">
                  <name>MCS-249</name>
                  <masterclipid>clip-master</masterclipid>
                  <collapsed>false</collapsed>
                  <angle>
                    <activevideoangle>false</activevideoangle>
                    <activeaudioangle>false</activeaudioangle>
                    <clip id="clip-1"/>
                  </angle>
                  <angle>
                    <activevideoangle>false</activevideoangle>
                    <activeaudioangle>false</activeaudioangle>
                    <clip id="clip-2"/>
                  </angle>
                  <angle>
                    <activevideoangle>true</activevideoangle>
                    <activeaudioangle>true</activeaudioangle>
                    <clip id="clip-3"/>
                  </angle>
                  <angle>
                    <activevideoangle>false</activevideoangle>
                    <activeaudioangle>false</activeaudioangle>
                    <clip id="clip-4"/>
                  </angle>
                  <angle>
                    <activevideoangle>false</activevideoangle>
                    <activeaudioangle>false</activeaudioangle>
                    <clip id="clip-5"/>
                  </angle>
                  <angle>
                    <activevideoangle>false</activevideoangle>
                    <activeaudioangle>false</activeaudioangle>
                    <clip id="clip-6"/>
                  </angle>
                  <angle>
                    <activevideoangle>false</activevideoangle>
                    <activeaudioangle>false</activeaudioangle>
                    <clip id="clip-7"/>
                  </angle>
                  <masterclipid>clip-master</masterclipid>
                </multiclip>
              </clipitem>
              <clipitem id="cs-250">
                <duration>104</duration>
                <rate>
                  <ntsc>false</ntsc>
                  <timebase>25</timebase>
                </rate>
                <in>29910</in>
                <out>30013</out>
                <start>29910</start>
                <end>30013</end>
                <file id="src-2"/>
                <sourcetrack>
                  <mediatype>video</mediatype>
                  <trackindex>1</trackindex>
                </sourcetrack>
                <multiclip id="mcs-250">
                  <name>MCS-250</name>
                  <masterclipid>clip-master</masterclipid>
                  <collapsed>false</collapsed>
                  <angle>
                    <activevideoangle>false</activevideoangle>
                    <activeaudioangle>false</activeaudioangle>
                    <clip id="clip-1"/>
                  </angle>
                  <angle>
                    <activevideoangle>true</activevideoangle>
                    <activeaudioangle>true</activeaudioangle>
                    <clip id="clip-2"/>
                  </angle>
                  <angle>
                    <activevideoangle>false</activevideoangle>
                    <activeaudioangle>false</activeaudioangle>
                    <clip id="clip-3"/>
                  </angle>
                  <angle>
                    <activevideoangle>false</activevideoangle>
                    <activeaudioangle>false</activeaudioangle>
                    <clip id="clip-4"/>
                  </angle>
                  <angle>
                    <activevideoangle>false</activevideoangle>
                    <activeaudioangle>false</activeaudioangle>
                    <clip id="clip-5"/>
                  </angle>
                  <angle>
                    <activevideoangle>false</activevideoangle>
                    <activeaudioangle>false</activeaudioangle>
                    <clip id="clip-6"/>
                  </angle>
                  <angle>
                    <activevideoangle>false</activevideoangle>
                    <activeaudioangle>false</activeaudioangle>
                    <clip id="clip-7"/>
                  </angle>
                  <masterclipid>clip-master</masterclipid>
                </multiclip>
              </clipitem>
              <clipitem id="cs-251">
                <duration>68</duration>
                <rate>
                  <ntsc>false</ntsc>
                  <timebase>25</timebase>
                </rate>
                <in>30013</in>
                <out>30080</out>
                <start>30013</start>
                <end>30080</end>
                <file id="src-6"/>
                <sourcetrack>
                  <mediatype>video</mediatype>
                  <trackindex>1</trackindex>
                </sourcetrack>
                <multiclip id="mcs-251">
                  <name>MCS-251</name>
                  <masterclipid>clip-master</masterclipid>
                  <collapsed>false</collapsed>
                  <angle>
                    <activevideoangle>false</activevideoangle>
                    <activeaudioangle>false</activeaudioangle>
                    <clip id="clip-1"/>
                  </angle>
                  <angle>
                    <activevideoangle>false</activevideoangle>
                    <activeaudioangle>false</activeaudioangle>
                    <clip id="clip-2"/>
                  </angle>
                  <angle>
                    <activevideoangle>false</activevideoangle>
                    <activeaudioangle>false</activeaudioangle>
                    <clip id="clip-3"/>
                  </angle>
                  <angle>
                    <activevideoangle>false</activevideoangle>
                    <activeaudioangle>false</activeaudioangle>
                    <clip id="clip-4"/>
                  </angle>
                  <angle>
                    <activevideoangle>false</activevideoangle>
                    <activeaudioangle>false</activeaudioangle>
                    <clip id="clip-5"/>
                  </angle>
                  <angle>
                    <activevideoangle>true</activevideoangle>
                    <activeaudioangle>true</activeaudioangle>
                    <clip id="clip-6"/>
                  </angle>
                  <angle>
                    <activevideoangle>false</activevideoangle>
                    <activeaudioangle>false</activeaudioangle>
                    <clip id="clip-7"/>
                  </angle>
                  <masterclipid>clip-master</masterclipid>
                </multiclip>
              </clipitem>
              <clipitem id="cs-252">
                <duration>117</duration>
                <rate>
                  <ntsc>false</ntsc>
                  <timebase>25</timebase>
                </rate>
                <in>30080</in>
                <out>30196</out>
                <start>30080</start>
                <end>30196</end>
                <file id="src-3"/>
                <sourcetrack>
                  <mediatype>video</mediatype>
                  <trackindex>1</trackindex>
                </sourcetrack>
                <multiclip id="mcs-252">
                  <name>MCS-252</name>
                  <masterclipid>clip-master</masterclipid>
                  <collapsed>false</collapsed>
                  <angle>
                    <activevideoangle>false</activevideoangle>
                    <activeaudioangle>false</activeaudioangle>
                    <clip id="clip-1"/>
                  </angle>
                  <angle>
                    <activevideoangle>false</activevideoangle>
                    <activeaudioangle>false</activeaudioangle>
                    <clip id="clip-2"/>
                  </angle>
                  <angle>
                    <activevideoangle>true</activevideoangle>
                    <activeaudioangle>true</activeaudioangle>
                    <clip id="clip-3"/>
                  </angle>
                  <angle>
                    <activevideoangle>false</activevideoangle>
                    <activeaudioangle>false</activeaudioangle>
                    <clip id="clip-4"/>
                  </angle>
                  <angle>
                    <activevideoangle>false</activevideoangle>
                    <activeaudioangle>false</activeaudioangle>
                    <clip id="clip-5"/>
                  </angle>
                  <angle>
                    <activevideoangle>false</activevideoangle>
                    <activeaudioangle>false</activeaudioangle>
                    <clip id="clip-6"/>
                  </angle>
                  <angle>
                    <activevideoangle>false</activevideoangle>
                    <activeaudioangle>false</activeaudioangle>
                    <clip id="clip-7"/>
                  </angle>
                  <masterclipid>clip-master</masterclipid>
                </multiclip>
              </clipitem>
              <clipitem id="cs-253">
                <duration>89</duration>
                <rate>
                  <ntsc>false</ntsc>
                  <timebase>25</timebase>
                </rate>
                <in>30196</in>
                <out>30284</out>
                <start>30196</start>
                <end>30284</end>
                <file id="src-4"/>
                <sourcetrack>
                  <mediatype>video</mediatype>
                  <trackindex>1</trackindex>
                </sourcetrack>
                <multiclip id="mcs-253">
                  <name>MCS-253</name>
                  <masterclipid>clip-master</masterclipid>
                  <collapsed>false</collapsed>
                  <angle>
                    <activevideoangle>false</activevideoangle>
                    <activeaudioangle>false</activeaudioangle>
                    <clip id="clip-1"/>
                  </angle>
                  <angle>
                    <activevideoangle>false</activevideoangle>
                    <activeaudioangle>false</activeaudioangle>
                    <clip id="clip-2"/>
                  </angle>
                  <angle>
                    <activevideoangle>false</activevideoangle>
                    <activeaudioangle>false</activeaudioangle>
                    <clip id="clip-3"/>
                  </angle>
                  <angle>
                    <activevideoangle>true</activevideoangle>
                    <activeaudioangle>true</activeaudioangle>
                    <clip id="clip-4"/>
                  </angle>
                  <angle>
                    <activevideoangle>false</activevideoangle>
                    <activeaudioangle>false</activeaudioangle>
                    <clip id="clip-5"/>
                  </angle>
                  <angle>
                    <activevideoangle>false</activevideoangle>
                    <activeaudioangle>false</activeaudioangle>
                    <clip id="clip-6"/>
                  </angle>
                  <angle>
                    <activevideoangle>false</activevideoangle>
                    <activeaudioangle>false</activeaudioangle>
                    <clip id="clip-7"/>
                  </angle>
                  <masterclipid>clip-master</masterclipid>
                </multiclip>
              </clipitem>
              <clipitem id="cs-254">
                <duration>103</duration>
                <rate>
                  <ntsc>false</ntsc>
                  <timebase>25</timebase>
                </rate>
                <in>30284</in>
                <out>30386</out>
                <start>30284</start>
                <end>30386</end>
                <file id="src-2"/>
                <sourcetrack>
                  <mediatype>video</mediatype>
                  <trackindex>1</trackindex>
                </sourcetrack>
                <multiclip id="mcs-254">
                  <name>MCS-254</name>
                  <masterclipid>clip-master</masterclipid>
                  <collapsed>false</collapsed>
                  <angle>
                    <activevideoangle>false</activevideoangle>
                    <activeaudioangle>false</activeaudioangle>
                    <clip id="clip-1"/>
                  </angle>
                  <angle>
                    <activevideoangle>true</activevideoangle>
                    <activeaudioangle>true</activeaudioangle>
                    <clip id="clip-2"/>
                  </angle>
                  <angle>
                    <activevideoangle>false</activevideoangle>
                    <activeaudioangle>false</activeaudioangle>
                    <clip id="clip-3"/>
                  </angle>
                  <angle>
                    <activevideoangle>false</activevideoangle>
                    <activeaudioangle>false</activeaudioangle>
                    <clip id="clip-4"/>
                  </angle>
                  <angle>
                    <activevideoangle>false</activevideoangle>
                    <activeaudioangle>false</activeaudioangle>
                    <clip id="clip-5"/>
                  </angle>
                  <angle>
                    <activevideoangle>false</activevideoangle>
                    <activeaudioangle>false</activeaudioangle>
                    <clip id="clip-6"/>
                  </angle>
                  <angle>
                    <activevideoangle>false</activevideoangle>
                    <activeaudioangle>false</activeaudioangle>
                    <clip id="clip-7"/>
                  </angle>
                  <masterclipid>clip-master</masterclipid>
                </multiclip>
              </clipitem>
              <clipitem id="cs-255">
                <duration>168</duration>
                <rate>
                  <ntsc>false</ntsc>
                  <timebase>25</timebase>
                </rate>
                <in>30386</in>
                <out>30553</out>
                <start>30386</start>
                <end>30553</end>
                <file id="src-3"/>
                <sourcetrack>
                  <mediatype>video</mediatype>
                  <trackindex>1</trackindex>
                </sourcetrack>
                <multiclip id="mcs-255">
                  <name>MCS-255</name>
                  <masterclipid>clip-master</masterclipid>
                  <collapsed>false</collapsed>
                  <angle>
                    <activevideoangle>false</activevideoangle>
                    <activeaudioangle>false</activeaudioangle>
                    <clip id="clip-1"/>
                  </angle>
                  <angle>
                    <activevideoangle>false</activevideoangle>
                    <activeaudioangle>false</activeaudioangle>
                    <clip id="clip-2"/>
                  </angle>
                  <angle>
                    <activevideoangle>true</activevideoangle>
                    <activeaudioangle>true</activeaudioangle>
                    <clip id="clip-3"/>
                  </angle>
                  <angle>
                    <activevideoangle>false</activevideoangle>
                    <activeaudioangle>false</activeaudioangle>
                    <clip id="clip-4"/>
                  </angle>
                  <angle>
                    <activevideoangle>false</activevideoangle>
                    <activeaudioangle>false</activeaudioangle>
                    <clip id="clip-5"/>
                  </angle>
                  <angle>
                    <activevideoangle>false</activevideoangle>
                    <activeaudioangle>false</activeaudioangle>
                    <clip id="clip-6"/>
                  </angle>
                  <angle>
                    <activevideoangle>false</activevideoangle>
                    <activeaudioangle>false</activeaudioangle>
                    <clip id="clip-7"/>
                  </angle>
                  <masterclipid>clip-master</masterclipid>
                </multiclip>
              </clipitem>
              <clipitem id="cs-256">
                <duration>155</duration>
                <rate>
                  <ntsc>false</ntsc>
                  <timebase>25</timebase>
                </rate>
                <in>30553</in>
                <out>30707</out>
                <start>30553</start>
                <end>30707</end>
                <file id="src-2"/>
                <sourcetrack>
                  <mediatype>video</mediatype>
                  <trackindex>1</trackindex>
                </sourcetrack>
                <multiclip id="mcs-256">
                  <name>MCS-256</name>
                  <masterclipid>clip-master</masterclipid>
                  <collapsed>false</collapsed>
                  <angle>
                    <activevideoangle>false</activevideoangle>
                    <activeaudioangle>false</activeaudioangle>
                    <clip id="clip-1"/>
                  </angle>
                  <angle>
                    <activevideoangle>true</activevideoangle>
                    <activeaudioangle>true</activeaudioangle>
                    <clip id="clip-2"/>
                  </angle>
                  <angle>
                    <activevideoangle>false</activevideoangle>
                    <activeaudioangle>false</activeaudioangle>
                    <clip id="clip-3"/>
                  </angle>
                  <angle>
                    <activevideoangle>false</activevideoangle>
                    <activeaudioangle>false</activeaudioangle>
                    <clip id="clip-4"/>
                  </angle>
                  <angle>
                    <activevideoangle>false</activevideoangle>
                    <activeaudioangle>false</activeaudioangle>
                    <clip id="clip-5"/>
                  </angle>
                  <angle>
                    <activevideoangle>false</activevideoangle>
                    <activeaudioangle>false</activeaudioangle>
                    <clip id="clip-6"/>
                  </angle>
                  <angle>
                    <activevideoangle>false</activevideoangle>
                    <activeaudioangle>false</activeaudioangle>
                    <clip id="clip-7"/>
                  </angle>
                  <masterclipid>clip-master</masterclipid>
                </multiclip>
              </clipitem>
              <clipitem id="cs-257">
                <duration>62</duration>
                <rate>
                  <ntsc>false</ntsc>
                  <timebase>25</timebase>
                </rate>
                <in>30707</in>
                <out>30768</out>
                <start>30707</start>
                <end>30768</end>
                <file id="src-6"/>
                <sourcetrack>
                  <mediatype>video</mediatype>
                  <trackindex>1</trackindex>
                </sourcetrack>
                <multiclip id="mcs-257">
                  <name>MCS-257</name>
                  <masterclipid>clip-master</masterclipid>
                  <collapsed>false</collapsed>
                  <angle>
                    <activevideoangle>false</activevideoangle>
                    <activeaudioangle>false</activeaudioangle>
                    <clip id="clip-1"/>
                  </angle>
                  <angle>
                    <activevideoangle>false</activevideoangle>
                    <activeaudioangle>false</activeaudioangle>
                    <clip id="clip-2"/>
                  </angle>
                  <angle>
                    <activevideoangle>false</activevideoangle>
                    <activeaudioangle>false</activeaudioangle>
                    <clip id="clip-3"/>
                  </angle>
                  <angle>
                    <activevideoangle>false</activevideoangle>
                    <activeaudioangle>false</activeaudioangle>
                    <clip id="clip-4"/>
                  </angle>
                  <angle>
                    <activevideoangle>false</activevideoangle>
                    <activeaudioangle>false</activeaudioangle>
                    <clip id="clip-5"/>
                  </angle>
                  <angle>
                    <activevideoangle>true</activevideoangle>
                    <activeaudioangle>true</activeaudioangle>
                    <clip id="clip-6"/>
                  </angle>
                  <angle>
                    <activevideoangle>false</activevideoangle>
                    <activeaudioangle>false</activeaudioangle>
                    <clip id="clip-7"/>
                  </angle>
                  <masterclipid>clip-master</masterclipid>
                </multiclip>
              </clipitem>
              <clipitem id="cs-258">
                <duration>232</duration>
                <rate>
                  <ntsc>false</ntsc>
                  <timebase>25</timebase>
                </rate>
                <in>30768</in>
                <out>30999</out>
                <start>30768</start>
                <end>30999</end>
                <file id="src-4"/>
                <sourcetrack>
                  <mediatype>video</mediatype>
                  <trackindex>1</trackindex>
                </sourcetrack>
                <multiclip id="mcs-258">
                  <name>MCS-258</name>
                  <masterclipid>clip-master</masterclipid>
                  <collapsed>false</collapsed>
                  <angle>
                    <activevideoangle>false</activevideoangle>
                    <activeaudioangle>false</activeaudioangle>
                    <clip id="clip-1"/>
                  </angle>
                  <angle>
                    <activevideoangle>false</activevideoangle>
                    <activeaudioangle>false</activeaudioangle>
                    <clip id="clip-2"/>
                  </angle>
                  <angle>
                    <activevideoangle>false</activevideoangle>
                    <activeaudioangle>false</activeaudioangle>
                    <clip id="clip-3"/>
                  </angle>
                  <angle>
                    <activevideoangle>true</activevideoangle>
                    <activeaudioangle>true</activeaudioangle>
                    <clip id="clip-4"/>
                  </angle>
                  <angle>
                    <activevideoangle>false</activevideoangle>
                    <activeaudioangle>false</activeaudioangle>
                    <clip id="clip-5"/>
                  </angle>
                  <angle>
                    <activevideoangle>false</activevideoangle>
                    <activeaudioangle>false</activeaudioangle>
                    <clip id="clip-6"/>
                  </angle>
                  <angle>
                    <activevideoangle>false</activevideoangle>
                    <activeaudioangle>false</activeaudioangle>
                    <clip id="clip-7"/>
                  </angle>
                  <masterclipid>clip-master</masterclipid>
                </multiclip>
              </clipitem>
              <clipitem id="cs-259">
                <duration>68</duration>
                <rate>
                  <ntsc>false</ntsc>
                  <timebase>25</timebase>
                </rate>
                <in>30999</in>
                <out>31066</out>
                <start>30999</start>
                <end>31066</end>
                <file id="src-2"/>
                <sourcetrack>
                  <mediatype>video</mediatype>
                  <trackindex>1</trackindex>
                </sourcetrack>
                <multiclip id="mcs-259">
                  <name>MCS-259</name>
                  <masterclipid>clip-master</masterclipid>
                  <collapsed>false</collapsed>
                  <angle>
                    <activevideoangle>false</activevideoangle>
                    <activeaudioangle>false</activeaudioangle>
                    <clip id="clip-1"/>
                  </angle>
                  <angle>
                    <activevideoangle>true</activevideoangle>
                    <activeaudioangle>true</activeaudioangle>
                    <clip id="clip-2"/>
                  </angle>
                  <angle>
                    <activevideoangle>false</activevideoangle>
                    <activeaudioangle>false</activeaudioangle>
                    <clip id="clip-3"/>
                  </angle>
                  <angle>
                    <activevideoangle>false</activevideoangle>
                    <activeaudioangle>false</activeaudioangle>
                    <clip id="clip-4"/>
                  </angle>
                  <angle>
                    <activevideoangle>false</activevideoangle>
                    <activeaudioangle>false</activeaudioangle>
                    <clip id="clip-5"/>
                  </angle>
                  <angle>
                    <activevideoangle>false</activevideoangle>
                    <activeaudioangle>false</activeaudioangle>
                    <clip id="clip-6"/>
                  </angle>
                  <angle>
                    <activevideoangle>false</activevideoangle>
                    <activeaudioangle>false</activeaudioangle>
                    <clip id="clip-7"/>
                  </angle>
                  <masterclipid>clip-master</masterclipid>
                </multiclip>
              </clipitem>
              <clipitem id="cs-260">
                <duration>24</duration>
                <rate>
                  <ntsc>false</ntsc>
                  <timebase>25</timebase>
                </rate>
                <in>31066</in>
                <out>31089</out>
                <start>31066</start>
                <end>31089</end>
                <file id="src-3"/>
                <sourcetrack>
                  <mediatype>video</mediatype>
                  <trackindex>1</trackindex>
                </sourcetrack>
                <multiclip id="mcs-260">
                  <name>MCS-260</name>
                  <masterclipid>clip-master</masterclipid>
                  <collapsed>false</collapsed>
                  <angle>
                    <activevideoangle>false</activevideoangle>
                    <activeaudioangle>false</activeaudioangle>
                    <clip id="clip-1"/>
                  </angle>
                  <angle>
                    <activevideoangle>false</activevideoangle>
                    <activeaudioangle>false</activeaudioangle>
                    <clip id="clip-2"/>
                  </angle>
                  <angle>
                    <activevideoangle>true</activevideoangle>
                    <activeaudioangle>true</activeaudioangle>
                    <clip id="clip-3"/>
                  </angle>
                  <angle>
                    <activevideoangle>false</activevideoangle>
                    <activeaudioangle>false</activeaudioangle>
                    <clip id="clip-4"/>
                  </angle>
                  <angle>
                    <activevideoangle>false</activevideoangle>
                    <activeaudioangle>false</activeaudioangle>
                    <clip id="clip-5"/>
                  </angle>
                  <angle>
                    <activevideoangle>false</activevideoangle>
                    <activeaudioangle>false</activeaudioangle>
                    <clip id="clip-6"/>
                  </angle>
                  <angle>
                    <activevideoangle>false</activevideoangle>
                    <activeaudioangle>false</activeaudioangle>
                    <clip id="clip-7"/>
                  </angle>
                  <masterclipid>clip-master</masterclipid>
                </multiclip>
              </clipitem>
              <clipitem id="cs-261">
                <duration>58</duration>
                <rate>
                  <ntsc>false</ntsc>
                  <timebase>25</timebase>
                </rate>
                <in>31089</in>
                <out>31146</out>
                <start>31089</start>
                <end>31146</end>
                <file id="src-6"/>
                <sourcetrack>
                  <mediatype>video</mediatype>
                  <trackindex>1</trackindex>
                </sourcetrack>
                <multiclip id="mcs-261">
                  <name>MCS-261</name>
                  <masterclipid>clip-master</masterclipid>
                  <collapsed>false</collapsed>
                  <angle>
                    <activevideoangle>false</activevideoangle>
                    <activeaudioangle>false</activeaudioangle>
                    <clip id="clip-1"/>
                  </angle>
                  <angle>
                    <activevideoangle>false</activevideoangle>
                    <activeaudioangle>false</activeaudioangle>
                    <clip id="clip-2"/>
                  </angle>
                  <angle>
                    <activevideoangle>false</activevideoangle>
                    <activeaudioangle>false</activeaudioangle>
                    <clip id="clip-3"/>
                  </angle>
                  <angle>
                    <activevideoangle>false</activevideoangle>
                    <activeaudioangle>false</activeaudioangle>
                    <clip id="clip-4"/>
                  </angle>
                  <angle>
                    <activevideoangle>false</activevideoangle>
                    <activeaudioangle>false</activeaudioangle>
                    <clip id="clip-5"/>
                  </angle>
                  <angle>
                    <activevideoangle>true</activevideoangle>
                    <activeaudioangle>true</activeaudioangle>
                    <clip id="clip-6"/>
                  </angle>
                  <angle>
                    <activevideoangle>false</activevideoangle>
                    <activeaudioangle>false</activeaudioangle>
                    <clip id="clip-7"/>
                  </angle>
                  <masterclipid>clip-master</masterclipid>
                </multiclip>
              </clipitem>
              <clipitem id="cs-262">
                <duration>69</duration>
                <rate>
                  <ntsc>false</ntsc>
                  <timebase>25</timebase>
                </rate>
                <in>31146</in>
                <out>31214</out>
                <start>31146</start>
                <end>31214</end>
                <file id="src-3"/>
                <sourcetrack>
                  <mediatype>video</mediatype>
                  <trackindex>1</trackindex>
                </sourcetrack>
                <multiclip id="mcs-262">
                  <name>MCS-262</name>
                  <masterclipid>clip-master</masterclipid>
                  <collapsed>false</collapsed>
                  <angle>
                    <activevideoangle>false</activevideoangle>
                    <activeaudioangle>false</activeaudioangle>
                    <clip id="clip-1"/>
                  </angle>
                  <angle>
                    <activevideoangle>false</activevideoangle>
                    <activeaudioangle>false</activeaudioangle>
                    <clip id="clip-2"/>
                  </angle>
                  <angle>
                    <activevideoangle>true</activevideoangle>
                    <activeaudioangle>true</activeaudioangle>
                    <clip id="clip-3"/>
                  </angle>
                  <angle>
                    <activevideoangle>false</activevideoangle>
                    <activeaudioangle>false</activeaudioangle>
                    <clip id="clip-4"/>
                  </angle>
                  <angle>
                    <activevideoangle>false</activevideoangle>
                    <activeaudioangle>false</activeaudioangle>
                    <clip id="clip-5"/>
                  </angle>
                  <angle>
                    <activevideoangle>false</activevideoangle>
                    <activeaudioangle>false</activeaudioangle>
                    <clip id="clip-6"/>
                  </angle>
                  <angle>
                    <activevideoangle>false</activevideoangle>
                    <activeaudioangle>false</activeaudioangle>
                    <clip id="clip-7"/>
                  </angle>
                  <masterclipid>clip-master</masterclipid>
                </multiclip>
              </clipitem>
              <clipitem id="cs-263">
                <duration>73</duration>
                <rate>
                  <ntsc>false</ntsc>
                  <timebase>25</timebase>
                </rate>
                <in>31214</in>
                <out>31286</out>
                <start>31214</start>
                <end>31286</end>
                <file id="src-4"/>
                <sourcetrack>
                  <mediatype>video</mediatype>
                  <trackindex>1</trackindex>
                </sourcetrack>
                <multiclip id="mcs-263">
                  <name>MCS-263</name>
                  <masterclipid>clip-master</masterclipid>
                  <collapsed>false</collapsed>
                  <angle>
                    <activevideoangle>false</activevideoangle>
                    <activeaudioangle>false</activeaudioangle>
                    <clip id="clip-1"/>
                  </angle>
                  <angle>
                    <activevideoangle>false</activevideoangle>
                    <activeaudioangle>false</activeaudioangle>
                    <clip id="clip-2"/>
                  </angle>
                  <angle>
                    <activevideoangle>false</activevideoangle>
                    <activeaudioangle>false</activeaudioangle>
                    <clip id="clip-3"/>
                  </angle>
                  <angle>
                    <activevideoangle>true</activevideoangle>
                    <activeaudioangle>true</activeaudioangle>
                    <clip id="clip-4"/>
                  </angle>
                  <angle>
                    <activevideoangle>false</activevideoangle>
                    <activeaudioangle>false</activeaudioangle>
                    <clip id="clip-5"/>
                  </angle>
                  <angle>
                    <activevideoangle>false</activevideoangle>
                    <activeaudioangle>false</activeaudioangle>
                    <clip id="clip-6"/>
                  </angle>
                  <angle>
                    <activevideoangle>false</activevideoangle>
                    <activeaudioangle>false</activeaudioangle>
                    <clip id="clip-7"/>
                  </angle>
                  <masterclipid>clip-master</masterclipid>
                </multiclip>
              </clipitem>
              <clipitem id="cs-264">
                <duration>62</duration>
                <rate>
                  <ntsc>false</ntsc>
                  <timebase>25</timebase>
                </rate>
                <in>31286</in>
                <out>31347</out>
                <start>31286</start>
                <end>31347</end>
                <file id="src-2"/>
                <sourcetrack>
                  <mediatype>video</mediatype>
                  <trackindex>1</trackindex>
                </sourcetrack>
                <multiclip id="mcs-264">
                  <name>MCS-264</name>
                  <masterclipid>clip-master</masterclipid>
                  <collapsed>false</collapsed>
                  <angle>
                    <activevideoangle>false</activevideoangle>
                    <activeaudioangle>false</activeaudioangle>
                    <clip id="clip-1"/>
                  </angle>
                  <angle>
                    <activevideoangle>true</activevideoangle>
                    <activeaudioangle>true</activeaudioangle>
                    <clip id="clip-2"/>
                  </angle>
                  <angle>
                    <activevideoangle>false</activevideoangle>
                    <activeaudioangle>false</activeaudioangle>
                    <clip id="clip-3"/>
                  </angle>
                  <angle>
                    <activevideoangle>false</activevideoangle>
                    <activeaudioangle>false</activeaudioangle>
                    <clip id="clip-4"/>
                  </angle>
                  <angle>
                    <activevideoangle>false</activevideoangle>
                    <activeaudioangle>false</activeaudioangle>
                    <clip id="clip-5"/>
                  </angle>
                  <angle>
                    <activevideoangle>false</activevideoangle>
                    <activeaudioangle>false</activeaudioangle>
                    <clip id="clip-6"/>
                  </angle>
                  <angle>
                    <activevideoangle>false</activevideoangle>
                    <activeaudioangle>false</activeaudioangle>
                    <clip id="clip-7"/>
                  </angle>
                  <masterclipid>clip-master</masterclipid>
                </multiclip>
              </clipitem>
              <clipitem id="cs-265">
                <duration>60</duration>
                <rate>
                  <ntsc>false</ntsc>
                  <timebase>25</timebase>
                </rate>
                <in>31347</in>
                <out>31406</out>
                <start>31347</start>
                <end>31406</end>
                <file id="src-3"/>
                <sourcetrack>
                  <mediatype>video</mediatype>
                  <trackindex>1</trackindex>
                </sourcetrack>
                <multiclip id="mcs-265">
                  <name>MCS-265</name>
                  <masterclipid>clip-master</masterclipid>
                  <collapsed>false</collapsed>
                  <angle>
                    <activevideoangle>false</activevideoangle>
                    <activeaudioangle>false</activeaudioangle>
                    <clip id="clip-1"/>
                  </angle>
                  <angle>
                    <activevideoangle>false</activevideoangle>
                    <activeaudioangle>false</activeaudioangle>
                    <clip id="clip-2"/>
                  </angle>
                  <angle>
                    <activevideoangle>true</activevideoangle>
                    <activeaudioangle>true</activeaudioangle>
                    <clip id="clip-3"/>
                  </angle>
                  <angle>
                    <activevideoangle>false</activevideoangle>
                    <activeaudioangle>false</activeaudioangle>
                    <clip id="clip-4"/>
                  </angle>
                  <angle>
                    <activevideoangle>false</activevideoangle>
                    <activeaudioangle>false</activeaudioangle>
                    <clip id="clip-5"/>
                  </angle>
                  <angle>
                    <activevideoangle>false</activevideoangle>
                    <activeaudioangle>false</activeaudioangle>
                    <clip id="clip-6"/>
                  </angle>
                  <angle>
                    <activevideoangle>false</activevideoangle>
                    <activeaudioangle>false</activeaudioangle>
                    <clip id="clip-7"/>
                  </angle>
                  <masterclipid>clip-master</masterclipid>
                </multiclip>
              </clipitem>
              <clipitem id="cs-266">
                <duration>72</duration>
                <rate>
                  <ntsc>false</ntsc>
                  <timebase>25</timebase>
                </rate>
                <in>31406</in>
                <out>31477</out>
                <start>31406</start>
                <end>31477</end>
                <file id="src-6"/>
                <sourcetrack>
                  <mediatype>video</mediatype>
                  <trackindex>1</trackindex>
                </sourcetrack>
                <multiclip id="mcs-266">
                  <name>MCS-266</name>
                  <masterclipid>clip-master</masterclipid>
                  <collapsed>false</collapsed>
                  <angle>
                    <activevideoangle>false</activevideoangle>
                    <activeaudioangle>false</activeaudioangle>
                    <clip id="clip-1"/>
                  </angle>
                  <angle>
                    <activevideoangle>false</activevideoangle>
                    <activeaudioangle>false</activeaudioangle>
                    <clip id="clip-2"/>
                  </angle>
                  <angle>
                    <activevideoangle>false</activevideoangle>
                    <activeaudioangle>false</activeaudioangle>
                    <clip id="clip-3"/>
                  </angle>
                  <angle>
                    <activevideoangle>false</activevideoangle>
                    <activeaudioangle>false</activeaudioangle>
                    <clip id="clip-4"/>
                  </angle>
                  <angle>
                    <activevideoangle>false</activevideoangle>
                    <activeaudioangle>false</activeaudioangle>
                    <clip id="clip-5"/>
                  </angle>
                  <angle>
                    <activevideoangle>true</activevideoangle>
                    <activeaudioangle>true</activeaudioangle>
                    <clip id="clip-6"/>
                  </angle>
                  <angle>
                    <activevideoangle>false</activevideoangle>
                    <activeaudioangle>false</activeaudioangle>
                    <clip id="clip-7"/>
                  </angle>
                  <masterclipid>clip-master</masterclipid>
                </multiclip>
              </clipitem>
              <clipitem id="cs-267">
                <duration>205</duration>
                <rate>
                  <ntsc>false</ntsc>
                  <timebase>25</timebase>
                </rate>
                <in>31477</in>
                <out>31681</out>
                <start>31477</start>
                <end>31681</end>
                <file id="src-1"/>
                <sourcetrack>
                  <mediatype>video</mediatype>
                  <trackindex>1</trackindex>
                </sourcetrack>
                <multiclip id="mcs-267">
                  <name>MCS-267</name>
                  <masterclipid>clip-master</masterclipid>
                  <collapsed>false</collapsed>
                  <angle>
                    <activevideoangle>true</activevideoangle>
                    <activeaudioangle>true</activeaudioangle>
                    <clip id="clip-1"/>
                  </angle>
                  <angle>
                    <activevideoangle>false</activevideoangle>
                    <activeaudioangle>false</activeaudioangle>
                    <clip id="clip-2"/>
                  </angle>
                  <angle>
                    <activevideoangle>false</activevideoangle>
                    <activeaudioangle>false</activeaudioangle>
                    <clip id="clip-3"/>
                  </angle>
                  <angle>
                    <activevideoangle>false</activevideoangle>
                    <activeaudioangle>false</activeaudioangle>
                    <clip id="clip-4"/>
                  </angle>
                  <angle>
                    <activevideoangle>false</activevideoangle>
                    <activeaudioangle>false</activeaudioangle>
                    <clip id="clip-5"/>
                  </angle>
                  <angle>
                    <activevideoangle>false</activevideoangle>
                    <activeaudioangle>false</activeaudioangle>
                    <clip id="clip-6"/>
                  </angle>
                  <angle>
                    <activevideoangle>false</activevideoangle>
                    <activeaudioangle>false</activeaudioangle>
                    <clip id="clip-7"/>
                  </angle>
                  <masterclipid>clip-master</masterclipid>
                </multiclip>
              </clipitem>
              <clipitem id="cs-268">
                <duration>53</duration>
                <rate>
                  <ntsc>false</ntsc>
                  <timebase>25</timebase>
                </rate>
                <in>31681</in>
                <out>31733</out>
                <start>31681</start>
                <end>31733</end>
                <file id="src-3"/>
                <sourcetrack>
                  <mediatype>video</mediatype>
                  <trackindex>1</trackindex>
                </sourcetrack>
                <multiclip id="mcs-268">
                  <name>MCS-268</name>
                  <masterclipid>clip-master</masterclipid>
                  <collapsed>false</collapsed>
                  <angle>
                    <activevideoangle>false</activevideoangle>
                    <activeaudioangle>false</activeaudioangle>
                    <clip id="clip-1"/>
                  </angle>
                  <angle>
                    <activevideoangle>false</activevideoangle>
                    <activeaudioangle>false</activeaudioangle>
                    <clip id="clip-2"/>
                  </angle>
                  <angle>
                    <activevideoangle>true</activevideoangle>
                    <activeaudioangle>true</activeaudioangle>
                    <clip id="clip-3"/>
                  </angle>
                  <angle>
                    <activevideoangle>false</activevideoangle>
                    <activeaudioangle>false</activeaudioangle>
                    <clip id="clip-4"/>
                  </angle>
                  <angle>
                    <activevideoangle>false</activevideoangle>
                    <activeaudioangle>false</activeaudioangle>
                    <clip id="clip-5"/>
                  </angle>
                  <angle>
                    <activevideoangle>false</activevideoangle>
                    <activeaudioangle>false</activeaudioangle>
                    <clip id="clip-6"/>
                  </angle>
                  <angle>
                    <activevideoangle>false</activevideoangle>
                    <activeaudioangle>false</activeaudioangle>
                    <clip id="clip-7"/>
                  </angle>
                  <masterclipid>clip-master</masterclipid>
                </multiclip>
              </clipitem>
              <clipitem id="cs-269">
                <duration>248</duration>
                <rate>
                  <ntsc>false</ntsc>
                  <timebase>25</timebase>
                </rate>
                <in>31733</in>
                <out>31980</out>
                <start>31733</start>
                <end>31980</end>
                <file id="src-2"/>
                <sourcetrack>
                  <mediatype>video</mediatype>
                  <trackindex>1</trackindex>
                </sourcetrack>
                <multiclip id="mcs-269">
                  <name>MCS-269</name>
                  <masterclipid>clip-master</masterclipid>
                  <collapsed>false</collapsed>
                  <angle>
                    <activevideoangle>false</activevideoangle>
                    <activeaudioangle>false</activeaudioangle>
                    <clip id="clip-1"/>
                  </angle>
                  <angle>
                    <activevideoangle>true</activevideoangle>
                    <activeaudioangle>true</activeaudioangle>
                    <clip id="clip-2"/>
                  </angle>
                  <angle>
                    <activevideoangle>false</activevideoangle>
                    <activeaudioangle>false</activeaudioangle>
                    <clip id="clip-3"/>
                  </angle>
                  <angle>
                    <activevideoangle>false</activevideoangle>
                    <activeaudioangle>false</activeaudioangle>
                    <clip id="clip-4"/>
                  </angle>
                  <angle>
                    <activevideoangle>false</activevideoangle>
                    <activeaudioangle>false</activeaudioangle>
                    <clip id="clip-5"/>
                  </angle>
                  <angle>
                    <activevideoangle>false</activevideoangle>
                    <activeaudioangle>false</activeaudioangle>
                    <clip id="clip-6"/>
                  </angle>
                  <angle>
                    <activevideoangle>false</activevideoangle>
                    <activeaudioangle>false</activeaudioangle>
                    <clip id="clip-7"/>
                  </angle>
                  <masterclipid>clip-master</masterclipid>
                </multiclip>
              </clipitem>
              <clipitem id="cs-270">
                <duration>130</duration>
                <rate>
                  <ntsc>false</ntsc>
                  <timebase>25</timebase>
                </rate>
                <in>31980</in>
                <out>32109</out>
                <start>31980</start>
                <end>32109</end>
                <file id="src-3"/>
                <sourcetrack>
                  <mediatype>video</mediatype>
                  <trackindex>1</trackindex>
                </sourcetrack>
                <multiclip id="mcs-270">
                  <name>MCS-270</name>
                  <masterclipid>clip-master</masterclipid>
                  <collapsed>false</collapsed>
                  <angle>
                    <activevideoangle>false</activevideoangle>
                    <activeaudioangle>false</activeaudioangle>
                    <clip id="clip-1"/>
                  </angle>
                  <angle>
                    <activevideoangle>false</activevideoangle>
                    <activeaudioangle>false</activeaudioangle>
                    <clip id="clip-2"/>
                  </angle>
                  <angle>
                    <activevideoangle>true</activevideoangle>
                    <activeaudioangle>true</activeaudioangle>
                    <clip id="clip-3"/>
                  </angle>
                  <angle>
                    <activevideoangle>false</activevideoangle>
                    <activeaudioangle>false</activeaudioangle>
                    <clip id="clip-4"/>
                  </angle>
                  <angle>
                    <activevideoangle>false</activevideoangle>
                    <activeaudioangle>false</activeaudioangle>
                    <clip id="clip-5"/>
                  </angle>
                  <angle>
                    <activevideoangle>false</activevideoangle>
                    <activeaudioangle>false</activeaudioangle>
                    <clip id="clip-6"/>
                  </angle>
                  <angle>
                    <activevideoangle>false</activevideoangle>
                    <activeaudioangle>false</activeaudioangle>
                    <clip id="clip-7"/>
                  </angle>
                  <masterclipid>clip-master</masterclipid>
                </multiclip>
              </clipitem>
              <clipitem id="cs-271">
                <duration>74</duration>
                <rate>
                  <ntsc>false</ntsc>
                  <timebase>25</timebase>
                </rate>
                <in>32109</in>
                <out>32182</out>
                <start>32109</start>
                <end>32182</end>
                <file id="src-6"/>
                <sourcetrack>
                  <mediatype>video</mediatype>
                  <trackindex>1</trackindex>
                </sourcetrack>
                <multiclip id="mcs-271">
                  <name>MCS-271</name>
                  <masterclipid>clip-master</masterclipid>
                  <collapsed>false</collapsed>
                  <angle>
                    <activevideoangle>false</activevideoangle>
                    <activeaudioangle>false</activeaudioangle>
                    <clip id="clip-1"/>
                  </angle>
                  <angle>
                    <activevideoangle>false</activevideoangle>
                    <activeaudioangle>false</activeaudioangle>
                    <clip id="clip-2"/>
                  </angle>
                  <angle>
                    <activevideoangle>false</activevideoangle>
                    <activeaudioangle>false</activeaudioangle>
                    <clip id="clip-3"/>
                  </angle>
                  <angle>
                    <activevideoangle>false</activevideoangle>
                    <activeaudioangle>false</activeaudioangle>
                    <clip id="clip-4"/>
                  </angle>
                  <angle>
                    <activevideoangle>false</activevideoangle>
                    <activeaudioangle>false</activeaudioangle>
                    <clip id="clip-5"/>
                  </angle>
                  <angle>
                    <activevideoangle>true</activevideoangle>
                    <activeaudioangle>true</activeaudioangle>
                    <clip id="clip-6"/>
                  </angle>
                  <angle>
                    <activevideoangle>false</activevideoangle>
                    <activeaudioangle>false</activeaudioangle>
                    <clip id="clip-7"/>
                  </angle>
                  <masterclipid>clip-master</masterclipid>
                </multiclip>
              </clipitem>
              <clipitem id="cs-272">
                <duration>109</duration>
                <rate>
                  <ntsc>false</ntsc>
                  <timebase>25</timebase>
                </rate>
                <in>32182</in>
                <out>32290</out>
                <start>32182</start>
                <end>32290</end>
                <file id="src-4"/>
                <sourcetrack>
                  <mediatype>video</mediatype>
                  <trackindex>1</trackindex>
                </sourcetrack>
                <multiclip id="mcs-272">
                  <name>MCS-272</name>
                  <masterclipid>clip-master</masterclipid>
                  <collapsed>false</collapsed>
                  <angle>
                    <activevideoangle>false</activevideoangle>
                    <activeaudioangle>false</activeaudioangle>
                    <clip id="clip-1"/>
                  </angle>
                  <angle>
                    <activevideoangle>false</activevideoangle>
                    <activeaudioangle>false</activeaudioangle>
                    <clip id="clip-2"/>
                  </angle>
                  <angle>
                    <activevideoangle>false</activevideoangle>
                    <activeaudioangle>false</activeaudioangle>
                    <clip id="clip-3"/>
                  </angle>
                  <angle>
                    <activevideoangle>true</activevideoangle>
                    <activeaudioangle>true</activeaudioangle>
                    <clip id="clip-4"/>
                  </angle>
                  <angle>
                    <activevideoangle>false</activevideoangle>
                    <activeaudioangle>false</activeaudioangle>
                    <clip id="clip-5"/>
                  </angle>
                  <angle>
                    <activevideoangle>false</activevideoangle>
                    <activeaudioangle>false</activeaudioangle>
                    <clip id="clip-6"/>
                  </angle>
                  <angle>
                    <activevideoangle>false</activevideoangle>
                    <activeaudioangle>false</activeaudioangle>
                    <clip id="clip-7"/>
                  </angle>
                  <masterclipid>clip-master</masterclipid>
                </multiclip>
              </clipitem>
              <clipitem id="cs-273">
                <duration>148</duration>
                <rate>
                  <ntsc>false</ntsc>
                  <timebase>25</timebase>
                </rate>
                <in>32290</in>
                <out>32437</out>
                <start>32290</start>
                <end>32437</end>
                <file id="src-3"/>
                <sourcetrack>
                  <mediatype>video</mediatype>
                  <trackindex>1</trackindex>
                </sourcetrack>
                <multiclip id="mcs-273">
                  <name>MCS-273</name>
                  <masterclipid>clip-master</masterclipid>
                  <collapsed>false</collapsed>
                  <angle>
                    <activevideoangle>false</activevideoangle>
                    <activeaudioangle>false</activeaudioangle>
                    <clip id="clip-1"/>
                  </angle>
                  <angle>
                    <activevideoangle>false</activevideoangle>
                    <activeaudioangle>false</activeaudioangle>
                    <clip id="clip-2"/>
                  </angle>
                  <angle>
                    <activevideoangle>true</activevideoangle>
                    <activeaudioangle>true</activeaudioangle>
                    <clip id="clip-3"/>
                  </angle>
                  <angle>
                    <activevideoangle>false</activevideoangle>
                    <activeaudioangle>false</activeaudioangle>
                    <clip id="clip-4"/>
                  </angle>
                  <angle>
                    <activevideoangle>false</activevideoangle>
                    <activeaudioangle>false</activeaudioangle>
                    <clip id="clip-5"/>
                  </angle>
                  <angle>
                    <activevideoangle>false</activevideoangle>
                    <activeaudioangle>false</activeaudioangle>
                    <clip id="clip-6"/>
                  </angle>
                  <angle>
                    <activevideoangle>false</activevideoangle>
                    <activeaudioangle>false</activeaudioangle>
                    <clip id="clip-7"/>
                  </angle>
                  <masterclipid>clip-master</masterclipid>
                </multiclip>
              </clipitem>
              <clipitem id="cs-274">
                <duration>188</duration>
                <rate>
                  <ntsc>false</ntsc>
                  <timebase>25</timebase>
                </rate>
                <in>32437</in>
                <out>32624</out>
                <start>32437</start>
                <end>32624</end>
                <file id="src-2"/>
                <sourcetrack>
                  <mediatype>video</mediatype>
                  <trackindex>1</trackindex>
                </sourcetrack>
                <multiclip id="mcs-274">
                  <name>MCS-274</name>
                  <masterclipid>clip-master</masterclipid>
                  <collapsed>false</collapsed>
                  <angle>
                    <activevideoangle>false</activevideoangle>
                    <activeaudioangle>false</activeaudioangle>
                    <clip id="clip-1"/>
                  </angle>
                  <angle>
                    <activevideoangle>true</activevideoangle>
                    <activeaudioangle>true</activeaudioangle>
                    <clip id="clip-2"/>
                  </angle>
                  <angle>
                    <activevideoangle>false</activevideoangle>
                    <activeaudioangle>false</activeaudioangle>
                    <clip id="clip-3"/>
                  </angle>
                  <angle>
                    <activevideoangle>false</activevideoangle>
                    <activeaudioangle>false</activeaudioangle>
                    <clip id="clip-4"/>
                  </angle>
                  <angle>
                    <activevideoangle>false</activevideoangle>
                    <activeaudioangle>false</activeaudioangle>
                    <clip id="clip-5"/>
                  </angle>
                  <angle>
                    <activevideoangle>false</activevideoangle>
                    <activeaudioangle>false</activeaudioangle>
                    <clip id="clip-6"/>
                  </angle>
                  <angle>
                    <activevideoangle>false</activevideoangle>
                    <activeaudioangle>false</activeaudioangle>
                    <clip id="clip-7"/>
                  </angle>
                  <masterclipid>clip-master</masterclipid>
                </multiclip>
              </clipitem>
              <clipitem id="cs-275">
                <duration>95</duration>
                <rate>
                  <ntsc>false</ntsc>
                  <timebase>25</timebase>
                </rate>
                <in>32624</in>
                <out>32718</out>
                <start>32624</start>
                <end>32718</end>
                <file id="src-4"/>
                <sourcetrack>
                  <mediatype>video</mediatype>
                  <trackindex>1</trackindex>
                </sourcetrack>
                <multiclip id="mcs-275">
                  <name>MCS-275</name>
                  <masterclipid>clip-master</masterclipid>
                  <collapsed>false</collapsed>
                  <angle>
                    <activevideoangle>false</activevideoangle>
                    <activeaudioangle>false</activeaudioangle>
                    <clip id="clip-1"/>
                  </angle>
                  <angle>
                    <activevideoangle>false</activevideoangle>
                    <activeaudioangle>false</activeaudioangle>
                    <clip id="clip-2"/>
                  </angle>
                  <angle>
                    <activevideoangle>false</activevideoangle>
                    <activeaudioangle>false</activeaudioangle>
                    <clip id="clip-3"/>
                  </angle>
                  <angle>
                    <activevideoangle>true</activevideoangle>
                    <activeaudioangle>true</activeaudioangle>
                    <clip id="clip-4"/>
                  </angle>
                  <angle>
                    <activevideoangle>false</activevideoangle>
                    <activeaudioangle>false</activeaudioangle>
                    <clip id="clip-5"/>
                  </angle>
                  <angle>
                    <activevideoangle>false</activevideoangle>
                    <activeaudioangle>false</activeaudioangle>
                    <clip id="clip-6"/>
                  </angle>
                  <angle>
                    <activevideoangle>false</activevideoangle>
                    <activeaudioangle>false</activeaudioangle>
                    <clip id="clip-7"/>
                  </angle>
                  <masterclipid>clip-master</masterclipid>
                </multiclip>
              </clipitem>
              <clipitem id="cs-276">
                <duration>188</duration>
                <rate>
                  <ntsc>false</ntsc>
                  <timebase>25</timebase>
                </rate>
                <in>32718</in>
                <out>32905</out>
                <start>32718</start>
                <end>32905</end>
                <file id="src-3"/>
                <sourcetrack>
                  <mediatype>video</mediatype>
                  <trackindex>1</trackindex>
                </sourcetrack>
                <multiclip id="mcs-276">
                  <name>MCS-276</name>
                  <masterclipid>clip-master</masterclipid>
                  <collapsed>false</collapsed>
                  <angle>
                    <activevideoangle>false</activevideoangle>
                    <activeaudioangle>false</activeaudioangle>
                    <clip id="clip-1"/>
                  </angle>
                  <angle>
                    <activevideoangle>false</activevideoangle>
                    <activeaudioangle>false</activeaudioangle>
                    <clip id="clip-2"/>
                  </angle>
                  <angle>
                    <activevideoangle>true</activevideoangle>
                    <activeaudioangle>true</activeaudioangle>
                    <clip id="clip-3"/>
                  </angle>
                  <angle>
                    <activevideoangle>false</activevideoangle>
                    <activeaudioangle>false</activeaudioangle>
                    <clip id="clip-4"/>
                  </angle>
                  <angle>
                    <activevideoangle>false</activevideoangle>
                    <activeaudioangle>false</activeaudioangle>
                    <clip id="clip-5"/>
                  </angle>
                  <angle>
                    <activevideoangle>false</activevideoangle>
                    <activeaudioangle>false</activeaudioangle>
                    <clip id="clip-6"/>
                  </angle>
                  <angle>
                    <activevideoangle>false</activevideoangle>
                    <activeaudioangle>false</activeaudioangle>
                    <clip id="clip-7"/>
                  </angle>
                  <masterclipid>clip-master</masterclipid>
                </multiclip>
              </clipitem>
              <clipitem id="cs-277">
                <duration>81</duration>
                <rate>
                  <ntsc>false</ntsc>
                  <timebase>25</timebase>
                </rate>
                <in>32905</in>
                <out>32985</out>
                <start>32905</start>
                <end>32985</end>
                <file id="src-6"/>
                <sourcetrack>
                  <mediatype>video</mediatype>
                  <trackindex>1</trackindex>
                </sourcetrack>
                <multiclip id="mcs-277">
                  <name>MCS-277</name>
                  <masterclipid>clip-master</masterclipid>
                  <collapsed>false</collapsed>
                  <angle>
                    <activevideoangle>false</activevideoangle>
                    <activeaudioangle>false</activeaudioangle>
                    <clip id="clip-1"/>
                  </angle>
                  <angle>
                    <activevideoangle>false</activevideoangle>
                    <activeaudioangle>false</activeaudioangle>
                    <clip id="clip-2"/>
                  </angle>
                  <angle>
                    <activevideoangle>false</activevideoangle>
                    <activeaudioangle>false</activeaudioangle>
                    <clip id="clip-3"/>
                  </angle>
                  <angle>
                    <activevideoangle>false</activevideoangle>
                    <activeaudioangle>false</activeaudioangle>
                    <clip id="clip-4"/>
                  </angle>
                  <angle>
                    <activevideoangle>false</activevideoangle>
                    <activeaudioangle>false</activeaudioangle>
                    <clip id="clip-5"/>
                  </angle>
                  <angle>
                    <activevideoangle>true</activevideoangle>
                    <activeaudioangle>true</activeaudioangle>
                    <clip id="clip-6"/>
                  </angle>
                  <angle>
                    <activevideoangle>false</activevideoangle>
                    <activeaudioangle>false</activeaudioangle>
                    <clip id="clip-7"/>
                  </angle>
                  <masterclipid>clip-master</masterclipid>
                </multiclip>
              </clipitem>
              <clipitem id="cs-278">
                <duration>145</duration>
                <rate>
                  <ntsc>false</ntsc>
                  <timebase>25</timebase>
                </rate>
                <in>32985</in>
                <out>33129</out>
                <start>32985</start>
                <end>33129</end>
                <file id="src-2"/>
                <sourcetrack>
                  <mediatype>video</mediatype>
                  <trackindex>1</trackindex>
                </sourcetrack>
                <multiclip id="mcs-278">
                  <name>MCS-278</name>
                  <masterclipid>clip-master</masterclipid>
                  <collapsed>false</collapsed>
                  <angle>
                    <activevideoangle>false</activevideoangle>
                    <activeaudioangle>false</activeaudioangle>
                    <clip id="clip-1"/>
                  </angle>
                  <angle>
                    <activevideoangle>true</activevideoangle>
                    <activeaudioangle>true</activeaudioangle>
                    <clip id="clip-2"/>
                  </angle>
                  <angle>
                    <activevideoangle>false</activevideoangle>
                    <activeaudioangle>false</activeaudioangle>
                    <clip id="clip-3"/>
                  </angle>
                  <angle>
                    <activevideoangle>false</activevideoangle>
                    <activeaudioangle>false</activeaudioangle>
                    <clip id="clip-4"/>
                  </angle>
                  <angle>
                    <activevideoangle>false</activevideoangle>
                    <activeaudioangle>false</activeaudioangle>
                    <clip id="clip-5"/>
                  </angle>
                  <angle>
                    <activevideoangle>false</activevideoangle>
                    <activeaudioangle>false</activeaudioangle>
                    <clip id="clip-6"/>
                  </angle>
                  <angle>
                    <activevideoangle>false</activevideoangle>
                    <activeaudioangle>false</activeaudioangle>
                    <clip id="clip-7"/>
                  </angle>
                  <masterclipid>clip-master</masterclipid>
                </multiclip>
              </clipitem>
              <clipitem id="cs-279">
                <duration>203</duration>
                <rate>
                  <ntsc>false</ntsc>
                  <timebase>25</timebase>
                </rate>
                <in>33129</in>
                <out>33331</out>
                <start>33129</start>
                <end>33331</end>
                <file id="src-3"/>
                <sourcetrack>
                  <mediatype>video</mediatype>
                  <trackindex>1</trackindex>
                </sourcetrack>
                <multiclip id="mcs-279">
                  <name>MCS-279</name>
                  <masterclipid>clip-master</masterclipid>
                  <collapsed>false</collapsed>
                  <angle>
                    <activevideoangle>false</activevideoangle>
                    <activeaudioangle>false</activeaudioangle>
                    <clip id="clip-1"/>
                  </angle>
                  <angle>
                    <activevideoangle>false</activevideoangle>
                    <activeaudioangle>false</activeaudioangle>
                    <clip id="clip-2"/>
                  </angle>
                  <angle>
                    <activevideoangle>true</activevideoangle>
                    <activeaudioangle>true</activeaudioangle>
                    <clip id="clip-3"/>
                  </angle>
                  <angle>
                    <activevideoangle>false</activevideoangle>
                    <activeaudioangle>false</activeaudioangle>
                    <clip id="clip-4"/>
                  </angle>
                  <angle>
                    <activevideoangle>false</activevideoangle>
                    <activeaudioangle>false</activeaudioangle>
                    <clip id="clip-5"/>
                  </angle>
                  <angle>
                    <activevideoangle>false</activevideoangle>
                    <activeaudioangle>false</activeaudioangle>
                    <clip id="clip-6"/>
                  </angle>
                  <angle>
                    <activevideoangle>false</activevideoangle>
                    <activeaudioangle>false</activeaudioangle>
                    <clip id="clip-7"/>
                  </angle>
                  <masterclipid>clip-master</masterclipid>
                </multiclip>
              </clipitem>
              <clipitem id="cs-280">
                <duration>66</duration>
                <rate>
                  <ntsc>false</ntsc>
                  <timebase>25</timebase>
                </rate>
                <in>33331</in>
                <out>33396</out>
                <start>33331</start>
                <end>33396</end>
                <file id="src-4"/>
                <sourcetrack>
                  <mediatype>video</mediatype>
                  <trackindex>1</trackindex>
                </sourcetrack>
                <multiclip id="mcs-280">
                  <name>MCS-280</name>
                  <masterclipid>clip-master</masterclipid>
                  <collapsed>false</collapsed>
                  <angle>
                    <activevideoangle>false</activevideoangle>
                    <activeaudioangle>false</activeaudioangle>
                    <clip id="clip-1"/>
                  </angle>
                  <angle>
                    <activevideoangle>false</activevideoangle>
                    <activeaudioangle>false</activeaudioangle>
                    <clip id="clip-2"/>
                  </angle>
                  <angle>
                    <activevideoangle>false</activevideoangle>
                    <activeaudioangle>false</activeaudioangle>
                    <clip id="clip-3"/>
                  </angle>
                  <angle>
                    <activevideoangle>true</activevideoangle>
                    <activeaudioangle>true</activeaudioangle>
                    <clip id="clip-4"/>
                  </angle>
                  <angle>
                    <activevideoangle>false</activevideoangle>
                    <activeaudioangle>false</activeaudioangle>
                    <clip id="clip-5"/>
                  </angle>
                  <angle>
                    <activevideoangle>false</activevideoangle>
                    <activeaudioangle>false</activeaudioangle>
                    <clip id="clip-6"/>
                  </angle>
                  <angle>
                    <activevideoangle>false</activevideoangle>
                    <activeaudioangle>false</activeaudioangle>
                    <clip id="clip-7"/>
                  </angle>
                  <masterclipid>clip-master</masterclipid>
                </multiclip>
              </clipitem>
              <clipitem id="cs-281">
                <duration>37</duration>
                <rate>
                  <ntsc>false</ntsc>
                  <timebase>25</timebase>
                </rate>
                <in>33396</in>
                <out>33432</out>
                <start>33396</start>
                <end>33432</end>
                <file id="src-6"/>
                <sourcetrack>
                  <mediatype>video</mediatype>
                  <trackindex>1</trackindex>
                </sourcetrack>
                <multiclip id="mcs-281">
                  <name>MCS-281</name>
                  <masterclipid>clip-master</masterclipid>
                  <collapsed>false</collapsed>
                  <angle>
                    <activevideoangle>false</activevideoangle>
                    <activeaudioangle>false</activeaudioangle>
                    <clip id="clip-1"/>
                  </angle>
                  <angle>
                    <activevideoangle>false</activevideoangle>
                    <activeaudioangle>false</activeaudioangle>
                    <clip id="clip-2"/>
                  </angle>
                  <angle>
                    <activevideoangle>false</activevideoangle>
                    <activeaudioangle>false</activeaudioangle>
                    <clip id="clip-3"/>
                  </angle>
                  <angle>
                    <activevideoangle>false</activevideoangle>
                    <activeaudioangle>false</activeaudioangle>
                    <clip id="clip-4"/>
                  </angle>
                  <angle>
                    <activevideoangle>false</activevideoangle>
                    <activeaudioangle>false</activeaudioangle>
                    <clip id="clip-5"/>
                  </angle>
                  <angle>
                    <activevideoangle>true</activevideoangle>
                    <activeaudioangle>true</activeaudioangle>
                    <clip id="clip-6"/>
                  </angle>
                  <angle>
                    <activevideoangle>false</activevideoangle>
                    <activeaudioangle>false</activeaudioangle>
                    <clip id="clip-7"/>
                  </angle>
                  <masterclipid>clip-master</masterclipid>
                </multiclip>
              </clipitem>
              <clipitem id="cs-282">
                <duration>120</duration>
                <rate>
                  <ntsc>false</ntsc>
                  <timebase>25</timebase>
                </rate>
                <in>33432</in>
                <out>33551</out>
                <start>33432</start>
                <end>33551</end>
                <file id="src-1"/>
                <sourcetrack>
                  <mediatype>video</mediatype>
                  <trackindex>1</trackindex>
                </sourcetrack>
                <multiclip id="mcs-282">
                  <name>MCS-282</name>
                  <masterclipid>clip-master</masterclipid>
                  <collapsed>false</collapsed>
                  <angle>
                    <activevideoangle>true</activevideoangle>
                    <activeaudioangle>true</activeaudioangle>
                    <clip id="clip-1"/>
                  </angle>
                  <angle>
                    <activevideoangle>false</activevideoangle>
                    <activeaudioangle>false</activeaudioangle>
                    <clip id="clip-2"/>
                  </angle>
                  <angle>
                    <activevideoangle>false</activevideoangle>
                    <activeaudioangle>false</activeaudioangle>
                    <clip id="clip-3"/>
                  </angle>
                  <angle>
                    <activevideoangle>false</activevideoangle>
                    <activeaudioangle>false</activeaudioangle>
                    <clip id="clip-4"/>
                  </angle>
                  <angle>
                    <activevideoangle>false</activevideoangle>
                    <activeaudioangle>false</activeaudioangle>
                    <clip id="clip-5"/>
                  </angle>
                  <angle>
                    <activevideoangle>false</activevideoangle>
                    <activeaudioangle>false</activeaudioangle>
                    <clip id="clip-6"/>
                  </angle>
                  <angle>
                    <activevideoangle>false</activevideoangle>
                    <activeaudioangle>false</activeaudioangle>
                    <clip id="clip-7"/>
                  </angle>
                  <masterclipid>clip-master</masterclipid>
                </multiclip>
              </clipitem>
              <clipitem id="cs-283">
                <duration>238</duration>
                <rate>
                  <ntsc>false</ntsc>
                  <timebase>25</timebase>
                </rate>
                <in>33551</in>
                <out>33788</out>
                <start>33551</start>
                <end>33788</end>
                <file id="src-3"/>
                <sourcetrack>
                  <mediatype>video</mediatype>
                  <trackindex>1</trackindex>
                </sourcetrack>
                <multiclip id="mcs-283">
                  <name>MCS-283</name>
                  <masterclipid>clip-master</masterclipid>
                  <collapsed>false</collapsed>
                  <angle>
                    <activevideoangle>false</activevideoangle>
                    <activeaudioangle>false</activeaudioangle>
                    <clip id="clip-1"/>
                  </angle>
                  <angle>
                    <activevideoangle>false</activevideoangle>
                    <activeaudioangle>false</activeaudioangle>
                    <clip id="clip-2"/>
                  </angle>
                  <angle>
                    <activevideoangle>true</activevideoangle>
                    <activeaudioangle>true</activeaudioangle>
                    <clip id="clip-3"/>
                  </angle>
                  <angle>
                    <activevideoangle>false</activevideoangle>
                    <activeaudioangle>false</activeaudioangle>
                    <clip id="clip-4"/>
                  </angle>
                  <angle>
                    <activevideoangle>false</activevideoangle>
                    <activeaudioangle>false</activeaudioangle>
                    <clip id="clip-5"/>
                  </angle>
                  <angle>
                    <activevideoangle>false</activevideoangle>
                    <activeaudioangle>false</activeaudioangle>
                    <clip id="clip-6"/>
                  </angle>
                  <angle>
                    <activevideoangle>false</activevideoangle>
                    <activeaudioangle>false</activeaudioangle>
                    <clip id="clip-7"/>
                  </angle>
                  <masterclipid>clip-master</masterclipid>
                </multiclip>
              </clipitem>
              <clipitem id="cs-284">
                <duration>94</duration>
                <rate>
                  <ntsc>false</ntsc>
                  <timebase>25</timebase>
                </rate>
                <in>33788</in>
                <out>33881</out>
                <start>33788</start>
                <end>33881</end>
                <file id="src-2"/>
                <sourcetrack>
                  <mediatype>video</mediatype>
                  <trackindex>1</trackindex>
                </sourcetrack>
                <multiclip id="mcs-284">
                  <name>MCS-284</name>
                  <masterclipid>clip-master</masterclipid>
                  <collapsed>false</collapsed>
                  <angle>
                    <activevideoangle>false</activevideoangle>
                    <activeaudioangle>false</activeaudioangle>
                    <clip id="clip-1"/>
                  </angle>
                  <angle>
                    <activevideoangle>true</activevideoangle>
                    <activeaudioangle>true</activeaudioangle>
                    <clip id="clip-2"/>
                  </angle>
                  <angle>
                    <activevideoangle>false</activevideoangle>
                    <activeaudioangle>false</activeaudioangle>
                    <clip id="clip-3"/>
                  </angle>
                  <angle>
                    <activevideoangle>false</activevideoangle>
                    <activeaudioangle>false</activeaudioangle>
                    <clip id="clip-4"/>
                  </angle>
                  <angle>
                    <activevideoangle>false</activevideoangle>
                    <activeaudioangle>false</activeaudioangle>
                    <clip id="clip-5"/>
                  </angle>
                  <angle>
                    <activevideoangle>false</activevideoangle>
                    <activeaudioangle>false</activeaudioangle>
                    <clip id="clip-6"/>
                  </angle>
                  <angle>
                    <activevideoangle>false</activevideoangle>
                    <activeaudioangle>false</activeaudioangle>
                    <clip id="clip-7"/>
                  </angle>
                  <masterclipid>clip-master</masterclipid>
                </multiclip>
              </clipitem>
              <clipitem id="cs-285">
                <duration>69</duration>
                <rate>
                  <ntsc>false</ntsc>
                  <timebase>25</timebase>
                </rate>
                <in>33881</in>
                <out>33949</out>
                <start>33881</start>
                <end>33949</end>
                <file id="src-3"/>
                <sourcetrack>
                  <mediatype>video</mediatype>
                  <trackindex>1</trackindex>
                </sourcetrack>
                <multiclip id="mcs-285">
                  <name>MCS-285</name>
                  <masterclipid>clip-master</masterclipid>
                  <collapsed>false</collapsed>
                  <angle>
                    <activevideoangle>false</activevideoangle>
                    <activeaudioangle>false</activeaudioangle>
                    <clip id="clip-1"/>
                  </angle>
                  <angle>
                    <activevideoangle>false</activevideoangle>
                    <activeaudioangle>false</activeaudioangle>
                    <clip id="clip-2"/>
                  </angle>
                  <angle>
                    <activevideoangle>true</activevideoangle>
                    <activeaudioangle>true</activeaudioangle>
                    <clip id="clip-3"/>
                  </angle>
                  <angle>
                    <activevideoangle>false</activevideoangle>
                    <activeaudioangle>false</activeaudioangle>
                    <clip id="clip-4"/>
                  </angle>
                  <angle>
                    <activevideoangle>false</activevideoangle>
                    <activeaudioangle>false</activeaudioangle>
                    <clip id="clip-5"/>
                  </angle>
                  <angle>
                    <activevideoangle>false</activevideoangle>
                    <activeaudioangle>false</activeaudioangle>
                    <clip id="clip-6"/>
                  </angle>
                  <angle>
                    <activevideoangle>false</activevideoangle>
                    <activeaudioangle>false</activeaudioangle>
                    <clip id="clip-7"/>
                  </angle>
                  <masterclipid>clip-master</masterclipid>
                </multiclip>
              </clipitem>
              <clipitem id="cs-286">
                <duration>194</duration>
                <rate>
                  <ntsc>false</ntsc>
                  <timebase>25</timebase>
                </rate>
                <in>33949</in>
                <out>34142</out>
                <start>33949</start>
                <end>34142</end>
                <file id="src-4"/>
                <sourcetrack>
                  <mediatype>video</mediatype>
                  <trackindex>1</trackindex>
                </sourcetrack>
                <multiclip id="mcs-286">
                  <name>MCS-286</name>
                  <masterclipid>clip-master</masterclipid>
                  <collapsed>false</collapsed>
                  <angle>
                    <activevideoangle>false</activevideoangle>
                    <activeaudioangle>false</activeaudioangle>
                    <clip id="clip-1"/>
                  </angle>
                  <angle>
                    <activevideoangle>false</activevideoangle>
                    <activeaudioangle>false</activeaudioangle>
                    <clip id="clip-2"/>
                  </angle>
                  <angle>
                    <activevideoangle>false</activevideoangle>
                    <activeaudioangle>false</activeaudioangle>
                    <clip id="clip-3"/>
                  </angle>
                  <angle>
                    <activevideoangle>true</activevideoangle>
                    <activeaudioangle>true</activeaudioangle>
                    <clip id="clip-4"/>
                  </angle>
                  <angle>
                    <activevideoangle>false</activevideoangle>
                    <activeaudioangle>false</activeaudioangle>
                    <clip id="clip-5"/>
                  </angle>
                  <angle>
                    <activevideoangle>false</activevideoangle>
                    <activeaudioangle>false</activeaudioangle>
                    <clip id="clip-6"/>
                  </angle>
                  <angle>
                    <activevideoangle>false</activevideoangle>
                    <activeaudioangle>false</activeaudioangle>
                    <clip id="clip-7"/>
                  </angle>
                  <masterclipid>clip-master</masterclipid>
                </multiclip>
              </clipitem>
              <clipitem id="cs-287">
                <duration>66</duration>
                <rate>
                  <ntsc>false</ntsc>
                  <timebase>25</timebase>
                </rate>
                <in>34142</in>
                <out>34207</out>
                <start>34142</start>
                <end>34207</end>
                <file id="src-6"/>
                <sourcetrack>
                  <mediatype>video</mediatype>
                  <trackindex>1</trackindex>
                </sourcetrack>
                <multiclip id="mcs-287">
                  <name>MCS-287</name>
                  <masterclipid>clip-master</masterclipid>
                  <collapsed>false</collapsed>
                  <angle>
                    <activevideoangle>false</activevideoangle>
                    <activeaudioangle>false</activeaudioangle>
                    <clip id="clip-1"/>
                  </angle>
                  <angle>
                    <activevideoangle>false</activevideoangle>
                    <activeaudioangle>false</activeaudioangle>
                    <clip id="clip-2"/>
                  </angle>
                  <angle>
                    <activevideoangle>false</activevideoangle>
                    <activeaudioangle>false</activeaudioangle>
                    <clip id="clip-3"/>
                  </angle>
                  <angle>
                    <activevideoangle>false</activevideoangle>
                    <activeaudioangle>false</activeaudioangle>
                    <clip id="clip-4"/>
                  </angle>
                  <angle>
                    <activevideoangle>false</activevideoangle>
                    <activeaudioangle>false</activeaudioangle>
                    <clip id="clip-5"/>
                  </angle>
                  <angle>
                    <activevideoangle>true</activevideoangle>
                    <activeaudioangle>true</activeaudioangle>
                    <clip id="clip-6"/>
                  </angle>
                  <angle>
                    <activevideoangle>false</activevideoangle>
                    <activeaudioangle>false</activeaudioangle>
                    <clip id="clip-7"/>
                  </angle>
                  <masterclipid>clip-master</masterclipid>
                </multiclip>
              </clipitem>
              <clipitem id="cs-288">
                <duration>70</duration>
                <rate>
                  <ntsc>false</ntsc>
                  <timebase>25</timebase>
                </rate>
                <in>34207</in>
                <out>34276</out>
                <start>34207</start>
                <end>34276</end>
                <file id="src-3"/>
                <sourcetrack>
                  <mediatype>video</mediatype>
                  <trackindex>1</trackindex>
                </sourcetrack>
                <multiclip id="mcs-288">
                  <name>MCS-288</name>
                  <masterclipid>clip-master</masterclipid>
                  <collapsed>false</collapsed>
                  <angle>
                    <activevideoangle>false</activevideoangle>
                    <activeaudioangle>false</activeaudioangle>
                    <clip id="clip-1"/>
                  </angle>
                  <angle>
                    <activevideoangle>false</activevideoangle>
                    <activeaudioangle>false</activeaudioangle>
                    <clip id="clip-2"/>
                  </angle>
                  <angle>
                    <activevideoangle>true</activevideoangle>
                    <activeaudioangle>true</activeaudioangle>
                    <clip id="clip-3"/>
                  </angle>
                  <angle>
                    <activevideoangle>false</activevideoangle>
                    <activeaudioangle>false</activeaudioangle>
                    <clip id="clip-4"/>
                  </angle>
                  <angle>
                    <activevideoangle>false</activevideoangle>
                    <activeaudioangle>false</activeaudioangle>
                    <clip id="clip-5"/>
                  </angle>
                  <angle>
                    <activevideoangle>false</activevideoangle>
                    <activeaudioangle>false</activeaudioangle>
                    <clip id="clip-6"/>
                  </angle>
                  <angle>
                    <activevideoangle>false</activevideoangle>
                    <activeaudioangle>false</activeaudioangle>
                    <clip id="clip-7"/>
                  </angle>
                  <masterclipid>clip-master</masterclipid>
                </multiclip>
              </clipitem>
              <clipitem id="cs-289">
                <duration>69</duration>
                <rate>
                  <ntsc>false</ntsc>
                  <timebase>25</timebase>
                </rate>
                <in>34276</in>
                <out>34344</out>
                <start>34276</start>
                <end>34344</end>
                <file id="src-2"/>
                <sourcetrack>
                  <mediatype>video</mediatype>
                  <trackindex>1</trackindex>
                </sourcetrack>
                <multiclip id="mcs-289">
                  <name>MCS-289</name>
                  <masterclipid>clip-master</masterclipid>
                  <collapsed>false</collapsed>
                  <angle>
                    <activevideoangle>false</activevideoangle>
                    <activeaudioangle>false</activeaudioangle>
                    <clip id="clip-1"/>
                  </angle>
                  <angle>
                    <activevideoangle>true</activevideoangle>
                    <activeaudioangle>true</activeaudioangle>
                    <clip id="clip-2"/>
                  </angle>
                  <angle>
                    <activevideoangle>false</activevideoangle>
                    <activeaudioangle>false</activeaudioangle>
                    <clip id="clip-3"/>
                  </angle>
                  <angle>
                    <activevideoangle>false</activevideoangle>
                    <activeaudioangle>false</activeaudioangle>
                    <clip id="clip-4"/>
                  </angle>
                  <angle>
                    <activevideoangle>false</activevideoangle>
                    <activeaudioangle>false</activeaudioangle>
                    <clip id="clip-5"/>
                  </angle>
                  <angle>
                    <activevideoangle>false</activevideoangle>
                    <activeaudioangle>false</activeaudioangle>
                    <clip id="clip-6"/>
                  </angle>
                  <angle>
                    <activevideoangle>false</activevideoangle>
                    <activeaudioangle>false</activeaudioangle>
                    <clip id="clip-7"/>
                  </angle>
                  <masterclipid>clip-master</masterclipid>
                </multiclip>
              </clipitem>
              <clipitem id="cs-290">
                <duration>51</duration>
                <rate>
                  <ntsc>false</ntsc>
                  <timebase>25</timebase>
                </rate>
                <in>34344</in>
                <out>34394</out>
                <start>34344</start>
                <end>34394</end>
                <file id="src-4"/>
                <sourcetrack>
                  <mediatype>video</mediatype>
                  <trackindex>1</trackindex>
                </sourcetrack>
                <multiclip id="mcs-290">
                  <name>MCS-290</name>
                  <masterclipid>clip-master</masterclipid>
                  <collapsed>false</collapsed>
                  <angle>
                    <activevideoangle>false</activevideoangle>
                    <activeaudioangle>false</activeaudioangle>
                    <clip id="clip-1"/>
                  </angle>
                  <angle>
                    <activevideoangle>false</activevideoangle>
                    <activeaudioangle>false</activeaudioangle>
                    <clip id="clip-2"/>
                  </angle>
                  <angle>
                    <activevideoangle>false</activevideoangle>
                    <activeaudioangle>false</activeaudioangle>
                    <clip id="clip-3"/>
                  </angle>
                  <angle>
                    <activevideoangle>true</activevideoangle>
                    <activeaudioangle>true</activeaudioangle>
                    <clip id="clip-4"/>
                  </angle>
                  <angle>
                    <activevideoangle>false</activevideoangle>
                    <activeaudioangle>false</activeaudioangle>
                    <clip id="clip-5"/>
                  </angle>
                  <angle>
                    <activevideoangle>false</activevideoangle>
                    <activeaudioangle>false</activeaudioangle>
                    <clip id="clip-6"/>
                  </angle>
                  <angle>
                    <activevideoangle>false</activevideoangle>
                    <activeaudioangle>false</activeaudioangle>
                    <clip id="clip-7"/>
                  </angle>
                  <masterclipid>clip-master</masterclipid>
                </multiclip>
              </clipitem>
              <clipitem id="cs-291">
                <duration>29</duration>
                <rate>
                  <ntsc>false</ntsc>
                  <timebase>25</timebase>
                </rate>
                <in>34394</in>
                <out>34422</out>
                <start>34394</start>
                <end>34422</end>
                <file id="src-6"/>
                <sourcetrack>
                  <mediatype>video</mediatype>
                  <trackindex>1</trackindex>
                </sourcetrack>
                <multiclip id="mcs-291">
                  <name>MCS-291</name>
                  <masterclipid>clip-master</masterclipid>
                  <collapsed>false</collapsed>
                  <angle>
                    <activevideoangle>false</activevideoangle>
                    <activeaudioangle>false</activeaudioangle>
                    <clip id="clip-1"/>
                  </angle>
                  <angle>
                    <activevideoangle>false</activevideoangle>
                    <activeaudioangle>false</activeaudioangle>
                    <clip id="clip-2"/>
                  </angle>
                  <angle>
                    <activevideoangle>false</activevideoangle>
                    <activeaudioangle>false</activeaudioangle>
                    <clip id="clip-3"/>
                  </angle>
                  <angle>
                    <activevideoangle>false</activevideoangle>
                    <activeaudioangle>false</activeaudioangle>
                    <clip id="clip-4"/>
                  </angle>
                  <angle>
                    <activevideoangle>false</activevideoangle>
                    <activeaudioangle>false</activeaudioangle>
                    <clip id="clip-5"/>
                  </angle>
                  <angle>
                    <activevideoangle>true</activevideoangle>
                    <activeaudioangle>true</activeaudioangle>
                    <clip id="clip-6"/>
                  </angle>
                  <angle>
                    <activevideoangle>false</activevideoangle>
                    <activeaudioangle>false</activeaudioangle>
                    <clip id="clip-7"/>
                  </angle>
                  <masterclipid>clip-master</masterclipid>
                </multiclip>
              </clipitem>
              <clipitem id="cs-292">
                <duration>66</duration>
                <rate>
                  <ntsc>false</ntsc>
                  <timebase>25</timebase>
                </rate>
                <in>34422</in>
                <out>34487</out>
                <start>34422</start>
                <end>34487</end>
                <file id="src-1"/>
                <sourcetrack>
                  <mediatype>video</mediatype>
                  <trackindex>1</trackindex>
                </sourcetrack>
                <multiclip id="mcs-292">
                  <name>MCS-292</name>
                  <masterclipid>clip-master</masterclipid>
                  <collapsed>false</collapsed>
                  <angle>
                    <activevideoangle>true</activevideoangle>
                    <activeaudioangle>true</activeaudioangle>
                    <clip id="clip-1"/>
                  </angle>
                  <angle>
                    <activevideoangle>false</activevideoangle>
                    <activeaudioangle>false</activeaudioangle>
                    <clip id="clip-2"/>
                  </angle>
                  <angle>
                    <activevideoangle>false</activevideoangle>
                    <activeaudioangle>false</activeaudioangle>
                    <clip id="clip-3"/>
                  </angle>
                  <angle>
                    <activevideoangle>false</activevideoangle>
                    <activeaudioangle>false</activeaudioangle>
                    <clip id="clip-4"/>
                  </angle>
                  <angle>
                    <activevideoangle>false</activevideoangle>
                    <activeaudioangle>false</activeaudioangle>
                    <clip id="clip-5"/>
                  </angle>
                  <angle>
                    <activevideoangle>false</activevideoangle>
                    <activeaudioangle>false</activeaudioangle>
                    <clip id="clip-6"/>
                  </angle>
                  <angle>
                    <activevideoangle>false</activevideoangle>
                    <activeaudioangle>false</activeaudioangle>
                    <clip id="clip-7"/>
                  </angle>
                  <masterclipid>clip-master</masterclipid>
                </multiclip>
              </clipitem>
              <clipitem id="cs-293">
                <duration>202</duration>
                <rate>
                  <ntsc>false</ntsc>
                  <timebase>25</timebase>
                </rate>
                <in>34487</in>
                <out>34688</out>
                <start>34487</start>
                <end>34688</end>
                <file id="src-3"/>
                <sourcetrack>
                  <mediatype>video</mediatype>
                  <trackindex>1</trackindex>
                </sourcetrack>
                <multiclip id="mcs-293">
                  <name>MCS-293</name>
                  <masterclipid>clip-master</masterclipid>
                  <collapsed>false</collapsed>
                  <angle>
                    <activevideoangle>false</activevideoangle>
                    <activeaudioangle>false</activeaudioangle>
                    <clip id="clip-1"/>
                  </angle>
                  <angle>
                    <activevideoangle>false</activevideoangle>
                    <activeaudioangle>false</activeaudioangle>
                    <clip id="clip-2"/>
                  </angle>
                  <angle>
                    <activevideoangle>true</activevideoangle>
                    <activeaudioangle>true</activeaudioangle>
                    <clip id="clip-3"/>
                  </angle>
                  <angle>
                    <activevideoangle>false</activevideoangle>
                    <activeaudioangle>false</activeaudioangle>
                    <clip id="clip-4"/>
                  </angle>
                  <angle>
                    <activevideoangle>false</activevideoangle>
                    <activeaudioangle>false</activeaudioangle>
                    <clip id="clip-5"/>
                  </angle>
                  <angle>
                    <activevideoangle>false</activevideoangle>
                    <activeaudioangle>false</activeaudioangle>
                    <clip id="clip-6"/>
                  </angle>
                  <angle>
                    <activevideoangle>false</activevideoangle>
                    <activeaudioangle>false</activeaudioangle>
                    <clip id="clip-7"/>
                  </angle>
                  <masterclipid>clip-master</masterclipid>
                </multiclip>
              </clipitem>
              <clipitem id="cs-294">
                <duration>160</duration>
                <rate>
                  <ntsc>false</ntsc>
                  <timebase>25</timebase>
                </rate>
                <in>34688</in>
                <out>34847</out>
                <start>34688</start>
                <end>34847</end>
                <file id="src-4"/>
                <sourcetrack>
                  <mediatype>video</mediatype>
                  <trackindex>1</trackindex>
                </sourcetrack>
                <multiclip id="mcs-294">
                  <name>MCS-294</name>
                  <masterclipid>clip-master</masterclipid>
                  <collapsed>false</collapsed>
                  <angle>
                    <activevideoangle>false</activevideoangle>
                    <activeaudioangle>false</activeaudioangle>
                    <clip id="clip-1"/>
                  </angle>
                  <angle>
                    <activevideoangle>false</activevideoangle>
                    <activeaudioangle>false</activeaudioangle>
                    <clip id="clip-2"/>
                  </angle>
                  <angle>
                    <activevideoangle>false</activevideoangle>
                    <activeaudioangle>false</activeaudioangle>
                    <clip id="clip-3"/>
                  </angle>
                  <angle>
                    <activevideoangle>true</activevideoangle>
                    <activeaudioangle>true</activeaudioangle>
                    <clip id="clip-4"/>
                  </angle>
                  <angle>
                    <activevideoangle>false</activevideoangle>
                    <activeaudioangle>false</activeaudioangle>
                    <clip id="clip-5"/>
                  </angle>
                  <angle>
                    <activevideoangle>false</activevideoangle>
                    <activeaudioangle>false</activeaudioangle>
                    <clip id="clip-6"/>
                  </angle>
                  <angle>
                    <activevideoangle>false</activevideoangle>
                    <activeaudioangle>false</activeaudioangle>
                    <clip id="clip-7"/>
                  </angle>
                  <masterclipid>clip-master</masterclipid>
                </multiclip>
              </clipitem>
              <clipitem id="cs-295">
                <duration>67</duration>
                <rate>
                  <ntsc>false</ntsc>
                  <timebase>25</timebase>
                </rate>
                <in>34847</in>
                <out>34913</out>
                <start>34847</start>
                <end>34913</end>
                <file id="src-5"/>
                <sourcetrack>
                  <mediatype>video</mediatype>
                  <trackindex>1</trackindex>
                </sourcetrack>
                <multiclip id="mcs-295">
                  <name>MCS-295</name>
                  <masterclipid>clip-master</masterclipid>
                  <collapsed>false</collapsed>
                  <angle>
                    <activevideoangle>false</activevideoangle>
                    <activeaudioangle>false</activeaudioangle>
                    <clip id="clip-1"/>
                  </angle>
                  <angle>
                    <activevideoangle>false</activevideoangle>
                    <activeaudioangle>false</activeaudioangle>
                    <clip id="clip-2"/>
                  </angle>
                  <angle>
                    <activevideoangle>false</activevideoangle>
                    <activeaudioangle>false</activeaudioangle>
                    <clip id="clip-3"/>
                  </angle>
                  <angle>
                    <activevideoangle>false</activevideoangle>
                    <activeaudioangle>false</activeaudioangle>
                    <clip id="clip-4"/>
                  </angle>
                  <angle>
                    <activevideoangle>true</activevideoangle>
                    <activeaudioangle>true</activeaudioangle>
                    <clip id="clip-5"/>
                  </angle>
                  <angle>
                    <activevideoangle>false</activevideoangle>
                    <activeaudioangle>false</activeaudioangle>
                    <clip id="clip-6"/>
                  </angle>
                  <angle>
                    <activevideoangle>false</activevideoangle>
                    <activeaudioangle>false</activeaudioangle>
                    <clip id="clip-7"/>
                  </angle>
                  <masterclipid>clip-master</masterclipid>
                </multiclip>
              </clipitem>
              <clipitem id="cs-296">
                <duration>78</duration>
                <rate>
                  <ntsc>false</ntsc>
                  <timebase>25</timebase>
                </rate>
                <in>34913</in>
                <out>34990</out>
                <start>34913</start>
                <end>34990</end>
                <file id="src-2"/>
                <sourcetrack>
                  <mediatype>video</mediatype>
                  <trackindex>1</trackindex>
                </sourcetrack>
                <multiclip id="mcs-296">
                  <name>MCS-296</name>
                  <masterclipid>clip-master</masterclipid>
                  <collapsed>false</collapsed>
                  <angle>
                    <activevideoangle>false</activevideoangle>
                    <activeaudioangle>false</activeaudioangle>
                    <clip id="clip-1"/>
                  </angle>
                  <angle>
                    <activevideoangle>true</activevideoangle>
                    <activeaudioangle>true</activeaudioangle>
                    <clip id="clip-2"/>
                  </angle>
                  <angle>
                    <activevideoangle>false</activevideoangle>
                    <activeaudioangle>false</activeaudioangle>
                    <clip id="clip-3"/>
                  </angle>
                  <angle>
                    <activevideoangle>false</activevideoangle>
                    <activeaudioangle>false</activeaudioangle>
                    <clip id="clip-4"/>
                  </angle>
                  <angle>
                    <activevideoangle>false</activevideoangle>
                    <activeaudioangle>false</activeaudioangle>
                    <clip id="clip-5"/>
                  </angle>
                  <angle>
                    <activevideoangle>false</activevideoangle>
                    <activeaudioangle>false</activeaudioangle>
                    <clip id="clip-6"/>
                  </angle>
                  <angle>
                    <activevideoangle>false</activevideoangle>
                    <activeaudioangle>false</activeaudioangle>
                    <clip id="clip-7"/>
                  </angle>
                  <masterclipid>clip-master</masterclipid>
                </multiclip>
              </clipitem>
              <clipitem id="cs-297">
                <duration>153</duration>
                <rate>
                  <ntsc>false</ntsc>
                  <timebase>25</timebase>
                </rate>
                <in>34990</in>
                <out>35142</out>
                <start>34990</start>
                <end>35142</end>
                <file id="src-3"/>
                <sourcetrack>
                  <mediatype>video</mediatype>
                  <trackindex>1</trackindex>
                </sourcetrack>
                <multiclip id="mcs-297">
                  <name>MCS-297</name>
                  <masterclipid>clip-master</masterclipid>
                  <collapsed>false</collapsed>
                  <angle>
                    <activevideoangle>false</activevideoangle>
                    <activeaudioangle>false</activeaudioangle>
                    <clip id="clip-1"/>
                  </angle>
                  <angle>
                    <activevideoangle>false</activevideoangle>
                    <activeaudioangle>false</activeaudioangle>
                    <clip id="clip-2"/>
                  </angle>
                  <angle>
                    <activevideoangle>true</activevideoangle>
                    <activeaudioangle>true</activeaudioangle>
                    <clip id="clip-3"/>
                  </angle>
                  <angle>
                    <activevideoangle>false</activevideoangle>
                    <activeaudioangle>false</activeaudioangle>
                    <clip id="clip-4"/>
                  </angle>
                  <angle>
                    <activevideoangle>false</activevideoangle>
                    <activeaudioangle>false</activeaudioangle>
                    <clip id="clip-5"/>
                  </angle>
                  <angle>
                    <activevideoangle>false</activevideoangle>
                    <activeaudioangle>false</activeaudioangle>
                    <clip id="clip-6"/>
                  </angle>
                  <angle>
                    <activevideoangle>false</activevideoangle>
                    <activeaudioangle>false</activeaudioangle>
                    <clip id="clip-7"/>
                  </angle>
                  <masterclipid>clip-master</masterclipid>
                </multiclip>
              </clipitem>
              <clipitem id="cs-298">
                <duration>95</duration>
                <rate>
                  <ntsc>false</ntsc>
                  <timebase>25</timebase>
                </rate>
                <in>35142</in>
                <out>35236</out>
                <start>35142</start>
                <end>35236</end>
                <file id="src-2"/>
                <sourcetrack>
                  <mediatype>video</mediatype>
                  <trackindex>1</trackindex>
                </sourcetrack>
                <multiclip id="mcs-298">
                  <name>MCS-298</name>
                  <masterclipid>clip-master</masterclipid>
                  <collapsed>false</collapsed>
                  <angle>
                    <activevideoangle>false</activevideoangle>
                    <activeaudioangle>false</activeaudioangle>
                    <clip id="clip-1"/>
                  </angle>
                  <angle>
                    <activevideoangle>true</activevideoangle>
                    <activeaudioangle>true</activeaudioangle>
                    <clip id="clip-2"/>
                  </angle>
                  <angle>
                    <activevideoangle>false</activevideoangle>
                    <activeaudioangle>false</activeaudioangle>
                    <clip id="clip-3"/>
                  </angle>
                  <angle>
                    <activevideoangle>false</activevideoangle>
                    <activeaudioangle>false</activeaudioangle>
                    <clip id="clip-4"/>
                  </angle>
                  <angle>
                    <activevideoangle>false</activevideoangle>
                    <activeaudioangle>false</activeaudioangle>
                    <clip id="clip-5"/>
                  </angle>
                  <angle>
                    <activevideoangle>false</activevideoangle>
                    <activeaudioangle>false</activeaudioangle>
                    <clip id="clip-6"/>
                  </angle>
                  <angle>
                    <activevideoangle>false</activevideoangle>
                    <activeaudioangle>false</activeaudioangle>
                    <clip id="clip-7"/>
                  </angle>
                  <masterclipid>clip-master</masterclipid>
                </multiclip>
              </clipitem>
              <clipitem id="cs-299">
                <duration>135</duration>
                <rate>
                  <ntsc>false</ntsc>
                  <timebase>25</timebase>
                </rate>
                <in>35236</in>
                <out>35370</out>
                <start>35236</start>
                <end>35370</end>
                <file id="src-3"/>
                <sourcetrack>
                  <mediatype>video</mediatype>
                  <trackindex>1</trackindex>
                </sourcetrack>
                <multiclip id="mcs-299">
                  <name>MCS-299</name>
                  <masterclipid>clip-master</masterclipid>
                  <collapsed>false</collapsed>
                  <angle>
                    <activevideoangle>false</activevideoangle>
                    <activeaudioangle>false</activeaudioangle>
                    <clip id="clip-1"/>
                  </angle>
                  <angle>
                    <activevideoangle>false</activevideoangle>
                    <activeaudioangle>false</activeaudioangle>
                    <clip id="clip-2"/>
                  </angle>
                  <angle>
                    <activevideoangle>true</activevideoangle>
                    <activeaudioangle>true</activeaudioangle>
                    <clip id="clip-3"/>
                  </angle>
                  <angle>
                    <activevideoangle>false</activevideoangle>
                    <activeaudioangle>false</activeaudioangle>
                    <clip id="clip-4"/>
                  </angle>
                  <angle>
                    <activevideoangle>false</activevideoangle>
                    <activeaudioangle>false</activeaudioangle>
                    <clip id="clip-5"/>
                  </angle>
                  <angle>
                    <activevideoangle>false</activevideoangle>
                    <activeaudioangle>false</activeaudioangle>
                    <clip id="clip-6"/>
                  </angle>
                  <angle>
                    <activevideoangle>false</activevideoangle>
                    <activeaudioangle>false</activeaudioangle>
                    <clip id="clip-7"/>
                  </angle>
                  <masterclipid>clip-master</masterclipid>
                </multiclip>
              </clipitem>
              <clipitem id="cs-300">
                <duration>89</duration>
                <rate>
                  <ntsc>false</ntsc>
                  <timebase>25</timebase>
                </rate>
                <in>35370</in>
                <out>35458</out>
                <start>35370</start>
                <end>35458</end>
                <file id="src-6"/>
                <sourcetrack>
                  <mediatype>video</mediatype>
                  <trackindex>1</trackindex>
                </sourcetrack>
                <multiclip id="mcs-300">
                  <name>MCS-300</name>
                  <masterclipid>clip-master</masterclipid>
                  <collapsed>false</collapsed>
                  <angle>
                    <activevideoangle>false</activevideoangle>
                    <activeaudioangle>false</activeaudioangle>
                    <clip id="clip-1"/>
                  </angle>
                  <angle>
                    <activevideoangle>false</activevideoangle>
                    <activeaudioangle>false</activeaudioangle>
                    <clip id="clip-2"/>
                  </angle>
                  <angle>
                    <activevideoangle>false</activevideoangle>
                    <activeaudioangle>false</activeaudioangle>
                    <clip id="clip-3"/>
                  </angle>
                  <angle>
                    <activevideoangle>false</activevideoangle>
                    <activeaudioangle>false</activeaudioangle>
                    <clip id="clip-4"/>
                  </angle>
                  <angle>
                    <activevideoangle>false</activevideoangle>
                    <activeaudioangle>false</activeaudioangle>
                    <clip id="clip-5"/>
                  </angle>
                  <angle>
                    <activevideoangle>true</activevideoangle>
                    <activeaudioangle>true</activeaudioangle>
                    <clip id="clip-6"/>
                  </angle>
                  <angle>
                    <activevideoangle>false</activevideoangle>
                    <activeaudioangle>false</activeaudioangle>
                    <clip id="clip-7"/>
                  </angle>
                  <masterclipid>clip-master</masterclipid>
                </multiclip>
              </clipitem>
              <clipitem id="cs-301">
                <duration>108</duration>
                <rate>
                  <ntsc>false</ntsc>
                  <timebase>25</timebase>
                </rate>
                <in>35458</in>
                <out>35565</out>
                <start>35458</start>
                <end>35565</end>
                <file id="src-4"/>
                <sourcetrack>
                  <mediatype>video</mediatype>
                  <trackindex>1</trackindex>
                </sourcetrack>
                <multiclip id="mcs-301">
                  <name>MCS-301</name>
                  <masterclipid>clip-master</masterclipid>
                  <collapsed>false</collapsed>
                  <angle>
                    <activevideoangle>false</activevideoangle>
                    <activeaudioangle>false</activeaudioangle>
                    <clip id="clip-1"/>
                  </angle>
                  <angle>
                    <activevideoangle>false</activevideoangle>
                    <activeaudioangle>false</activeaudioangle>
                    <clip id="clip-2"/>
                  </angle>
                  <angle>
                    <activevideoangle>false</activevideoangle>
                    <activeaudioangle>false</activeaudioangle>
                    <clip id="clip-3"/>
                  </angle>
                  <angle>
                    <activevideoangle>true</activevideoangle>
                    <activeaudioangle>true</activeaudioangle>
                    <clip id="clip-4"/>
                  </angle>
                  <angle>
                    <activevideoangle>false</activevideoangle>
                    <activeaudioangle>false</activeaudioangle>
                    <clip id="clip-5"/>
                  </angle>
                  <angle>
                    <activevideoangle>false</activevideoangle>
                    <activeaudioangle>false</activeaudioangle>
                    <clip id="clip-6"/>
                  </angle>
                  <angle>
                    <activevideoangle>false</activevideoangle>
                    <activeaudioangle>false</activeaudioangle>
                    <clip id="clip-7"/>
                  </angle>
                  <masterclipid>clip-master</masterclipid>
                </multiclip>
              </clipitem>
              <clipitem id="cs-302">
                <duration>80</duration>
                <rate>
                  <ntsc>false</ntsc>
                  <timebase>25</timebase>
                </rate>
                <in>35565</in>
                <out>35644</out>
                <start>35565</start>
                <end>35644</end>
                <file id="src-3"/>
                <sourcetrack>
                  <mediatype>video</mediatype>
                  <trackindex>1</trackindex>
                </sourcetrack>
                <multiclip id="mcs-302">
                  <name>MCS-302</name>
                  <masterclipid>clip-master</masterclipid>
                  <collapsed>false</collapsed>
                  <angle>
                    <activevideoangle>false</activevideoangle>
                    <activeaudioangle>false</activeaudioangle>
                    <clip id="clip-1"/>
                  </angle>
                  <angle>
                    <activevideoangle>false</activevideoangle>
                    <activeaudioangle>false</activeaudioangle>
                    <clip id="clip-2"/>
                  </angle>
                  <angle>
                    <activevideoangle>true</activevideoangle>
                    <activeaudioangle>true</activeaudioangle>
                    <clip id="clip-3"/>
                  </angle>
                  <angle>
                    <activevideoangle>false</activevideoangle>
                    <activeaudioangle>false</activeaudioangle>
                    <clip id="clip-4"/>
                  </angle>
                  <angle>
                    <activevideoangle>false</activevideoangle>
                    <activeaudioangle>false</activeaudioangle>
                    <clip id="clip-5"/>
                  </angle>
                  <angle>
                    <activevideoangle>false</activevideoangle>
                    <activeaudioangle>false</activeaudioangle>
                    <clip id="clip-6"/>
                  </angle>
                  <angle>
                    <activevideoangle>false</activevideoangle>
                    <activeaudioangle>false</activeaudioangle>
                    <clip id="clip-7"/>
                  </angle>
                  <masterclipid>clip-master</masterclipid>
                </multiclip>
              </clipitem>
              <clipitem id="cs-303">
                <duration>68</duration>
                <rate>
                  <ntsc>false</ntsc>
                  <timebase>25</timebase>
                </rate>
                <in>35644</in>
                <out>35711</out>
                <start>35644</start>
                <end>35711</end>
                <file id="src-1"/>
                <sourcetrack>
                  <mediatype>video</mediatype>
                  <trackindex>1</trackindex>
                </sourcetrack>
                <multiclip id="mcs-303">
                  <name>MCS-303</name>
                  <masterclipid>clip-master</masterclipid>
                  <collapsed>false</collapsed>
                  <angle>
                    <activevideoangle>true</activevideoangle>
                    <activeaudioangle>true</activeaudioangle>
                    <clip id="clip-1"/>
                  </angle>
                  <angle>
                    <activevideoangle>false</activevideoangle>
                    <activeaudioangle>false</activeaudioangle>
                    <clip id="clip-2"/>
                  </angle>
                  <angle>
                    <activevideoangle>false</activevideoangle>
                    <activeaudioangle>false</activeaudioangle>
                    <clip id="clip-3"/>
                  </angle>
                  <angle>
                    <activevideoangle>false</activevideoangle>
                    <activeaudioangle>false</activeaudioangle>
                    <clip id="clip-4"/>
                  </angle>
                  <angle>
                    <activevideoangle>false</activevideoangle>
                    <activeaudioangle>false</activeaudioangle>
                    <clip id="clip-5"/>
                  </angle>
                  <angle>
                    <activevideoangle>false</activevideoangle>
                    <activeaudioangle>false</activeaudioangle>
                    <clip id="clip-6"/>
                  </angle>
                  <angle>
                    <activevideoangle>false</activevideoangle>
                    <activeaudioangle>false</activeaudioangle>
                    <clip id="clip-7"/>
                  </angle>
                  <masterclipid>clip-master</masterclipid>
                </multiclip>
              </clipitem>
              <clipitem id="cs-304">
                <duration>172</duration>
                <rate>
                  <ntsc>false</ntsc>
                  <timebase>25</timebase>
                </rate>
                <in>35711</in>
                <out>35882</out>
                <start>35711</start>
                <end>35882</end>
                <file id="src-3"/>
                <sourcetrack>
                  <mediatype>video</mediatype>
                  <trackindex>1</trackindex>
                </sourcetrack>
                <multiclip id="mcs-304">
                  <name>MCS-304</name>
                  <masterclipid>clip-master</masterclipid>
                  <collapsed>false</collapsed>
                  <angle>
                    <activevideoangle>false</activevideoangle>
                    <activeaudioangle>false</activeaudioangle>
                    <clip id="clip-1"/>
                  </angle>
                  <angle>
                    <activevideoangle>false</activevideoangle>
                    <activeaudioangle>false</activeaudioangle>
                    <clip id="clip-2"/>
                  </angle>
                  <angle>
                    <activevideoangle>true</activevideoangle>
                    <activeaudioangle>true</activeaudioangle>
                    <clip id="clip-3"/>
                  </angle>
                  <angle>
                    <activevideoangle>false</activevideoangle>
                    <activeaudioangle>false</activeaudioangle>
                    <clip id="clip-4"/>
                  </angle>
                  <angle>
                    <activevideoangle>false</activevideoangle>
                    <activeaudioangle>false</activeaudioangle>
                    <clip id="clip-5"/>
                  </angle>
                  <angle>
                    <activevideoangle>false</activevideoangle>
                    <activeaudioangle>false</activeaudioangle>
                    <clip id="clip-6"/>
                  </angle>
                  <angle>
                    <activevideoangle>false</activevideoangle>
                    <activeaudioangle>false</activeaudioangle>
                    <clip id="clip-7"/>
                  </angle>
                  <masterclipid>clip-master</masterclipid>
                </multiclip>
              </clipitem>
              <clipitem id="cs-305">
                <duration>79</duration>
                <rate>
                  <ntsc>false</ntsc>
                  <timebase>25</timebase>
                </rate>
                <in>35882</in>
                <out>35960</out>
                <start>35882</start>
                <end>35960</end>
                <file id="src-4"/>
                <sourcetrack>
                  <mediatype>video</mediatype>
                  <trackindex>1</trackindex>
                </sourcetrack>
                <multiclip id="mcs-305">
                  <name>MCS-305</name>
                  <masterclipid>clip-master</masterclipid>
                  <collapsed>false</collapsed>
                  <angle>
                    <activevideoangle>false</activevideoangle>
                    <activeaudioangle>false</activeaudioangle>
                    <clip id="clip-1"/>
                  </angle>
                  <angle>
                    <activevideoangle>false</activevideoangle>
                    <activeaudioangle>false</activeaudioangle>
                    <clip id="clip-2"/>
                  </angle>
                  <angle>
                    <activevideoangle>false</activevideoangle>
                    <activeaudioangle>false</activeaudioangle>
                    <clip id="clip-3"/>
                  </angle>
                  <angle>
                    <activevideoangle>true</activevideoangle>
                    <activeaudioangle>true</activeaudioangle>
                    <clip id="clip-4"/>
                  </angle>
                  <angle>
                    <activevideoangle>false</activevideoangle>
                    <activeaudioangle>false</activeaudioangle>
                    <clip id="clip-5"/>
                  </angle>
                  <angle>
                    <activevideoangle>false</activevideoangle>
                    <activeaudioangle>false</activeaudioangle>
                    <clip id="clip-6"/>
                  </angle>
                  <angle>
                    <activevideoangle>false</activevideoangle>
                    <activeaudioangle>false</activeaudioangle>
                    <clip id="clip-7"/>
                  </angle>
                  <masterclipid>clip-master</masterclipid>
                </multiclip>
              </clipitem>
              <clipitem id="cs-306">
                <duration>171</duration>
                <rate>
                  <ntsc>false</ntsc>
                  <timebase>25</timebase>
                </rate>
                <in>35960</in>
                <out>36130</out>
                <start>35960</start>
                <end>36130</end>
                <file id="src-2"/>
                <sourcetrack>
                  <mediatype>video</mediatype>
                  <trackindex>1</trackindex>
                </sourcetrack>
                <multiclip id="mcs-306">
                  <name>MCS-306</name>
                  <masterclipid>clip-master</masterclipid>
                  <collapsed>false</collapsed>
                  <angle>
                    <activevideoangle>false</activevideoangle>
                    <activeaudioangle>false</activeaudioangle>
                    <clip id="clip-1"/>
                  </angle>
                  <angle>
                    <activevideoangle>true</activevideoangle>
                    <activeaudioangle>true</activeaudioangle>
                    <clip id="clip-2"/>
                  </angle>
                  <angle>
                    <activevideoangle>false</activevideoangle>
                    <activeaudioangle>false</activeaudioangle>
                    <clip id="clip-3"/>
                  </angle>
                  <angle>
                    <activevideoangle>false</activevideoangle>
                    <activeaudioangle>false</activeaudioangle>
                    <clip id="clip-4"/>
                  </angle>
                  <angle>
                    <activevideoangle>false</activevideoangle>
                    <activeaudioangle>false</activeaudioangle>
                    <clip id="clip-5"/>
                  </angle>
                  <angle>
                    <activevideoangle>false</activevideoangle>
                    <activeaudioangle>false</activeaudioangle>
                    <clip id="clip-6"/>
                  </angle>
                  <angle>
                    <activevideoangle>false</activevideoangle>
                    <activeaudioangle>false</activeaudioangle>
                    <clip id="clip-7"/>
                  </angle>
                  <masterclipid>clip-master</masterclipid>
                </multiclip>
              </clipitem>
              <clipitem id="cs-307">
                <duration>119</duration>
                <rate>
                  <ntsc>false</ntsc>
                  <timebase>25</timebase>
                </rate>
                <in>36130</in>
                <out>36248</out>
                <start>36130</start>
                <end>36248</end>
                <file id="src-6"/>
                <sourcetrack>
                  <mediatype>video</mediatype>
                  <trackindex>1</trackindex>
                </sourcetrack>
                <multiclip id="mcs-307">
                  <name>MCS-307</name>
                  <masterclipid>clip-master</masterclipid>
                  <collapsed>false</collapsed>
                  <angle>
                    <activevideoangle>false</activevideoangle>
                    <activeaudioangle>false</activeaudioangle>
                    <clip id="clip-1"/>
                  </angle>
                  <angle>
                    <activevideoangle>false</activevideoangle>
                    <activeaudioangle>false</activeaudioangle>
                    <clip id="clip-2"/>
                  </angle>
                  <angle>
                    <activevideoangle>false</activevideoangle>
                    <activeaudioangle>false</activeaudioangle>
                    <clip id="clip-3"/>
                  </angle>
                  <angle>
                    <activevideoangle>false</activevideoangle>
                    <activeaudioangle>false</activeaudioangle>
                    <clip id="clip-4"/>
                  </angle>
                  <angle>
                    <activevideoangle>false</activevideoangle>
                    <activeaudioangle>false</activeaudioangle>
                    <clip id="clip-5"/>
                  </angle>
                  <angle>
                    <activevideoangle>true</activevideoangle>
                    <activeaudioangle>true</activeaudioangle>
                    <clip id="clip-6"/>
                  </angle>
                  <angle>
                    <activevideoangle>false</activevideoangle>
                    <activeaudioangle>false</activeaudioangle>
                    <clip id="clip-7"/>
                  </angle>
                  <masterclipid>clip-master</masterclipid>
                </multiclip>
              </clipitem>
              <clipitem id="cs-308">
                <duration>102</duration>
                <rate>
                  <ntsc>false</ntsc>
                  <timebase>25</timebase>
                </rate>
                <in>36248</in>
                <out>36349</out>
                <start>36248</start>
                <end>36349</end>
                <file id="src-2"/>
                <sourcetrack>
                  <mediatype>video</mediatype>
                  <trackindex>1</trackindex>
                </sourcetrack>
                <multiclip id="mcs-308">
                  <name>MCS-308</name>
                  <masterclipid>clip-master</masterclipid>
                  <collapsed>false</collapsed>
                  <angle>
                    <activevideoangle>false</activevideoangle>
                    <activeaudioangle>false</activeaudioangle>
                    <clip id="clip-1"/>
                  </angle>
                  <angle>
                    <activevideoangle>true</activevideoangle>
                    <activeaudioangle>true</activeaudioangle>
                    <clip id="clip-2"/>
                  </angle>
                  <angle>
                    <activevideoangle>false</activevideoangle>
                    <activeaudioangle>false</activeaudioangle>
                    <clip id="clip-3"/>
                  </angle>
                  <angle>
                    <activevideoangle>false</activevideoangle>
                    <activeaudioangle>false</activeaudioangle>
                    <clip id="clip-4"/>
                  </angle>
                  <angle>
                    <activevideoangle>false</activevideoangle>
                    <activeaudioangle>false</activeaudioangle>
                    <clip id="clip-5"/>
                  </angle>
                  <angle>
                    <activevideoangle>false</activevideoangle>
                    <activeaudioangle>false</activeaudioangle>
                    <clip id="clip-6"/>
                  </angle>
                  <angle>
                    <activevideoangle>false</activevideoangle>
                    <activeaudioangle>false</activeaudioangle>
                    <clip id="clip-7"/>
                  </angle>
                  <masterclipid>clip-master</masterclipid>
                </multiclip>
              </clipitem>
              <clipitem id="cs-309">
                <duration>164</duration>
                <rate>
                  <ntsc>false</ntsc>
                  <timebase>25</timebase>
                </rate>
                <in>36349</in>
                <out>36512</out>
                <start>36349</start>
                <end>36512</end>
                <file id="src-4"/>
                <sourcetrack>
                  <mediatype>video</mediatype>
                  <trackindex>1</trackindex>
                </sourcetrack>
                <multiclip id="mcs-309">
                  <name>MCS-309</name>
                  <masterclipid>clip-master</masterclipid>
                  <collapsed>false</collapsed>
                  <angle>
                    <activevideoangle>false</activevideoangle>
                    <activeaudioangle>false</activeaudioangle>
                    <clip id="clip-1"/>
                  </angle>
                  <angle>
                    <activevideoangle>false</activevideoangle>
                    <activeaudioangle>false</activeaudioangle>
                    <clip id="clip-2"/>
                  </angle>
                  <angle>
                    <activevideoangle>false</activevideoangle>
                    <activeaudioangle>false</activeaudioangle>
                    <clip id="clip-3"/>
                  </angle>
                  <angle>
                    <activevideoangle>true</activevideoangle>
                    <activeaudioangle>true</activeaudioangle>
                    <clip id="clip-4"/>
                  </angle>
                  <angle>
                    <activevideoangle>false</activevideoangle>
                    <activeaudioangle>false</activeaudioangle>
                    <clip id="clip-5"/>
                  </angle>
                  <angle>
                    <activevideoangle>false</activevideoangle>
                    <activeaudioangle>false</activeaudioangle>
                    <clip id="clip-6"/>
                  </angle>
                  <angle>
                    <activevideoangle>false</activevideoangle>
                    <activeaudioangle>false</activeaudioangle>
                    <clip id="clip-7"/>
                  </angle>
                  <masterclipid>clip-master</masterclipid>
                </multiclip>
              </clipitem>
              <clipitem id="cs-310">
                <duration>96</duration>
                <rate>
                  <ntsc>false</ntsc>
                  <timebase>25</timebase>
                </rate>
                <in>36512</in>
                <out>36607</out>
                <start>36512</start>
                <end>36607</end>
                <file id="src-6"/>
                <sourcetrack>
                  <mediatype>video</mediatype>
                  <trackindex>1</trackindex>
                </sourcetrack>
                <multiclip id="mcs-310">
                  <name>MCS-310</name>
                  <masterclipid>clip-master</masterclipid>
                  <collapsed>false</collapsed>
                  <angle>
                    <activevideoangle>false</activevideoangle>
                    <activeaudioangle>false</activeaudioangle>
                    <clip id="clip-1"/>
                  </angle>
                  <angle>
                    <activevideoangle>false</activevideoangle>
                    <activeaudioangle>false</activeaudioangle>
                    <clip id="clip-2"/>
                  </angle>
                  <angle>
                    <activevideoangle>false</activevideoangle>
                    <activeaudioangle>false</activeaudioangle>
                    <clip id="clip-3"/>
                  </angle>
                  <angle>
                    <activevideoangle>false</activevideoangle>
                    <activeaudioangle>false</activeaudioangle>
                    <clip id="clip-4"/>
                  </angle>
                  <angle>
                    <activevideoangle>false</activevideoangle>
                    <activeaudioangle>false</activeaudioangle>
                    <clip id="clip-5"/>
                  </angle>
                  <angle>
                    <activevideoangle>true</activevideoangle>
                    <activeaudioangle>true</activeaudioangle>
                    <clip id="clip-6"/>
                  </angle>
                  <angle>
                    <activevideoangle>false</activevideoangle>
                    <activeaudioangle>false</activeaudioangle>
                    <clip id="clip-7"/>
                  </angle>
                  <masterclipid>clip-master</masterclipid>
                </multiclip>
              </clipitem>
              <clipitem id="cs-311">
                <duration>179</duration>
                <rate>
                  <ntsc>false</ntsc>
                  <timebase>25</timebase>
                </rate>
                <in>36607</in>
                <out>36785</out>
                <start>36607</start>
                <end>36785</end>
                <file id="src-2"/>
                <sourcetrack>
                  <mediatype>video</mediatype>
                  <trackindex>1</trackindex>
                </sourcetrack>
                <multiclip id="mcs-311">
                  <name>MCS-311</name>
                  <masterclipid>clip-master</masterclipid>
                  <collapsed>false</collapsed>
                  <angle>
                    <activevideoangle>false</activevideoangle>
                    <activeaudioangle>false</activeaudioangle>
                    <clip id="clip-1"/>
                  </angle>
                  <angle>
                    <activevideoangle>true</activevideoangle>
                    <activeaudioangle>true</activeaudioangle>
                    <clip id="clip-2"/>
                  </angle>
                  <angle>
                    <activevideoangle>false</activevideoangle>
                    <activeaudioangle>false</activeaudioangle>
                    <clip id="clip-3"/>
                  </angle>
                  <angle>
                    <activevideoangle>false</activevideoangle>
                    <activeaudioangle>false</activeaudioangle>
                    <clip id="clip-4"/>
                  </angle>
                  <angle>
                    <activevideoangle>false</activevideoangle>
                    <activeaudioangle>false</activeaudioangle>
                    <clip id="clip-5"/>
                  </angle>
                  <angle>
                    <activevideoangle>false</activevideoangle>
                    <activeaudioangle>false</activeaudioangle>
                    <clip id="clip-6"/>
                  </angle>
                  <angle>
                    <activevideoangle>false</activevideoangle>
                    <activeaudioangle>false</activeaudioangle>
                    <clip id="clip-7"/>
                  </angle>
                  <masterclipid>clip-master</masterclipid>
                </multiclip>
              </clipitem>
              <clipitem id="cs-312">
                <duration>68</duration>
                <rate>
                  <ntsc>false</ntsc>
                  <timebase>25</timebase>
                </rate>
                <in>36785</in>
                <out>36852</out>
                <start>36785</start>
                <end>36852</end>
                <file id="src-3"/>
                <sourcetrack>
                  <mediatype>video</mediatype>
                  <trackindex>1</trackindex>
                </sourcetrack>
                <multiclip id="mcs-312">
                  <name>MCS-312</name>
                  <masterclipid>clip-master</masterclipid>
                  <collapsed>false</collapsed>
                  <angle>
                    <activevideoangle>false</activevideoangle>
                    <activeaudioangle>false</activeaudioangle>
                    <clip id="clip-1"/>
                  </angle>
                  <angle>
                    <activevideoangle>false</activevideoangle>
                    <activeaudioangle>false</activeaudioangle>
                    <clip id="clip-2"/>
                  </angle>
                  <angle>
                    <activevideoangle>true</activevideoangle>
                    <activeaudioangle>true</activeaudioangle>
                    <clip id="clip-3"/>
                  </angle>
                  <angle>
                    <activevideoangle>false</activevideoangle>
                    <activeaudioangle>false</activeaudioangle>
                    <clip id="clip-4"/>
                  </angle>
                  <angle>
                    <activevideoangle>false</activevideoangle>
                    <activeaudioangle>false</activeaudioangle>
                    <clip id="clip-5"/>
                  </angle>
                  <angle>
                    <activevideoangle>false</activevideoangle>
                    <activeaudioangle>false</activeaudioangle>
                    <clip id="clip-6"/>
                  </angle>
                  <angle>
                    <activevideoangle>false</activevideoangle>
                    <activeaudioangle>false</activeaudioangle>
                    <clip id="clip-7"/>
                  </angle>
                  <masterclipid>clip-master</masterclipid>
                </multiclip>
              </clipitem>
              <clipitem id="cs-313">
                <duration>80</duration>
                <rate>
                  <ntsc>false</ntsc>
                  <timebase>25</timebase>
                </rate>
                <in>36852</in>
                <out>36931</out>
                <start>36852</start>
                <end>36931</end>
                <file id="src-6"/>
                <sourcetrack>
                  <mediatype>video</mediatype>
                  <trackindex>1</trackindex>
                </sourcetrack>
                <multiclip id="mcs-313">
                  <name>MCS-313</name>
                  <masterclipid>clip-master</masterclipid>
                  <collapsed>false</collapsed>
                  <angle>
                    <activevideoangle>false</activevideoangle>
                    <activeaudioangle>false</activeaudioangle>
                    <clip id="clip-1"/>
                  </angle>
                  <angle>
                    <activevideoangle>false</activevideoangle>
                    <activeaudioangle>false</activeaudioangle>
                    <clip id="clip-2"/>
                  </angle>
                  <angle>
                    <activevideoangle>false</activevideoangle>
                    <activeaudioangle>false</activeaudioangle>
                    <clip id="clip-3"/>
                  </angle>
                  <angle>
                    <activevideoangle>false</activevideoangle>
                    <activeaudioangle>false</activeaudioangle>
                    <clip id="clip-4"/>
                  </angle>
                  <angle>
                    <activevideoangle>false</activevideoangle>
                    <activeaudioangle>false</activeaudioangle>
                    <clip id="clip-5"/>
                  </angle>
                  <angle>
                    <activevideoangle>true</activevideoangle>
                    <activeaudioangle>true</activeaudioangle>
                    <clip id="clip-6"/>
                  </angle>
                  <angle>
                    <activevideoangle>false</activevideoangle>
                    <activeaudioangle>false</activeaudioangle>
                    <clip id="clip-7"/>
                  </angle>
                  <masterclipid>clip-master</masterclipid>
                </multiclip>
              </clipitem>
              <clipitem id="cs-314">
                <duration>74</duration>
                <rate>
                  <ntsc>false</ntsc>
                  <timebase>25</timebase>
                </rate>
                <in>36931</in>
                <out>37004</out>
                <start>36931</start>
                <end>37004</end>
                <file id="src-2"/>
                <sourcetrack>
                  <mediatype>video</mediatype>
                  <trackindex>1</trackindex>
                </sourcetrack>
                <multiclip id="mcs-314">
                  <name>MCS-314</name>
                  <masterclipid>clip-master</masterclipid>
                  <collapsed>false</collapsed>
                  <angle>
                    <activevideoangle>false</activevideoangle>
                    <activeaudioangle>false</activeaudioangle>
                    <clip id="clip-1"/>
                  </angle>
                  <angle>
                    <activevideoangle>true</activevideoangle>
                    <activeaudioangle>true</activeaudioangle>
                    <clip id="clip-2"/>
                  </angle>
                  <angle>
                    <activevideoangle>false</activevideoangle>
                    <activeaudioangle>false</activeaudioangle>
                    <clip id="clip-3"/>
                  </angle>
                  <angle>
                    <activevideoangle>false</activevideoangle>
                    <activeaudioangle>false</activeaudioangle>
                    <clip id="clip-4"/>
                  </angle>
                  <angle>
                    <activevideoangle>false</activevideoangle>
                    <activeaudioangle>false</activeaudioangle>
                    <clip id="clip-5"/>
                  </angle>
                  <angle>
                    <activevideoangle>false</activevideoangle>
                    <activeaudioangle>false</activeaudioangle>
                    <clip id="clip-6"/>
                  </angle>
                  <angle>
                    <activevideoangle>false</activevideoangle>
                    <activeaudioangle>false</activeaudioangle>
                    <clip id="clip-7"/>
                  </angle>
                  <masterclipid>clip-master</masterclipid>
                </multiclip>
              </clipitem>
              <clipitem id="cs-315">
                <duration>58</duration>
                <rate>
                  <ntsc>false</ntsc>
                  <timebase>25</timebase>
                </rate>
                <in>37004</in>
                <out>37061</out>
                <start>37004</start>
                <end>37061</end>
                <file id="src-3"/>
                <sourcetrack>
                  <mediatype>video</mediatype>
                  <trackindex>1</trackindex>
                </sourcetrack>
                <multiclip id="mcs-315">
                  <name>MCS-315</name>
                  <masterclipid>clip-master</masterclipid>
                  <collapsed>false</collapsed>
                  <angle>
                    <activevideoangle>false</activevideoangle>
                    <activeaudioangle>false</activeaudioangle>
                    <clip id="clip-1"/>
                  </angle>
                  <angle>
                    <activevideoangle>false</activevideoangle>
                    <activeaudioangle>false</activeaudioangle>
                    <clip id="clip-2"/>
                  </angle>
                  <angle>
                    <activevideoangle>true</activevideoangle>
                    <activeaudioangle>true</activeaudioangle>
                    <clip id="clip-3"/>
                  </angle>
                  <angle>
                    <activevideoangle>false</activevideoangle>
                    <activeaudioangle>false</activeaudioangle>
                    <clip id="clip-4"/>
                  </angle>
                  <angle>
                    <activevideoangle>false</activevideoangle>
                    <activeaudioangle>false</activeaudioangle>
                    <clip id="clip-5"/>
                  </angle>
                  <angle>
                    <activevideoangle>false</activevideoangle>
                    <activeaudioangle>false</activeaudioangle>
                    <clip id="clip-6"/>
                  </angle>
                  <angle>
                    <activevideoangle>false</activevideoangle>
                    <activeaudioangle>false</activeaudioangle>
                    <clip id="clip-7"/>
                  </angle>
                  <masterclipid>clip-master</masterclipid>
                </multiclip>
              </clipitem>
              <clipitem id="cs-316">
                <duration>52</duration>
                <rate>
                  <ntsc>false</ntsc>
                  <timebase>25</timebase>
                </rate>
                <in>37061</in>
                <out>37112</out>
                <start>37061</start>
                <end>37112</end>
                <file id="src-6"/>
                <sourcetrack>
                  <mediatype>video</mediatype>
                  <trackindex>1</trackindex>
                </sourcetrack>
                <multiclip id="mcs-316">
                  <name>MCS-316</name>
                  <masterclipid>clip-master</masterclipid>
                  <collapsed>false</collapsed>
                  <angle>
                    <activevideoangle>false</activevideoangle>
                    <activeaudioangle>false</activeaudioangle>
                    <clip id="clip-1"/>
                  </angle>
                  <angle>
                    <activevideoangle>false</activevideoangle>
                    <activeaudioangle>false</activeaudioangle>
                    <clip id="clip-2"/>
                  </angle>
                  <angle>
                    <activevideoangle>false</activevideoangle>
                    <activeaudioangle>false</activeaudioangle>
                    <clip id="clip-3"/>
                  </angle>
                  <angle>
                    <activevideoangle>false</activevideoangle>
                    <activeaudioangle>false</activeaudioangle>
                    <clip id="clip-4"/>
                  </angle>
                  <angle>
                    <activevideoangle>false</activevideoangle>
                    <activeaudioangle>false</activeaudioangle>
                    <clip id="clip-5"/>
                  </angle>
                  <angle>
                    <activevideoangle>true</activevideoangle>
                    <activeaudioangle>true</activeaudioangle>
                    <clip id="clip-6"/>
                  </angle>
                  <angle>
                    <activevideoangle>false</activevideoangle>
                    <activeaudioangle>false</activeaudioangle>
                    <clip id="clip-7"/>
                  </angle>
                  <masterclipid>clip-master</masterclipid>
                </multiclip>
              </clipitem>
              <clipitem id="cs-317">
                <duration>160</duration>
                <rate>
                  <ntsc>false</ntsc>
                  <timebase>25</timebase>
                </rate>
                <in>37112</in>
                <out>37271</out>
                <start>37112</start>
                <end>37271</end>
                <file id="src-4"/>
                <sourcetrack>
                  <mediatype>video</mediatype>
                  <trackindex>1</trackindex>
                </sourcetrack>
                <multiclip id="mcs-317">
                  <name>MCS-317</name>
                  <masterclipid>clip-master</masterclipid>
                  <collapsed>false</collapsed>
                  <angle>
                    <activevideoangle>false</activevideoangle>
                    <activeaudioangle>false</activeaudioangle>
                    <clip id="clip-1"/>
                  </angle>
                  <angle>
                    <activevideoangle>false</activevideoangle>
                    <activeaudioangle>false</activeaudioangle>
                    <clip id="clip-2"/>
                  </angle>
                  <angle>
                    <activevideoangle>false</activevideoangle>
                    <activeaudioangle>false</activeaudioangle>
                    <clip id="clip-3"/>
                  </angle>
                  <angle>
                    <activevideoangle>true</activevideoangle>
                    <activeaudioangle>true</activeaudioangle>
                    <clip id="clip-4"/>
                  </angle>
                  <angle>
                    <activevideoangle>false</activevideoangle>
                    <activeaudioangle>false</activeaudioangle>
                    <clip id="clip-5"/>
                  </angle>
                  <angle>
                    <activevideoangle>false</activevideoangle>
                    <activeaudioangle>false</activeaudioangle>
                    <clip id="clip-6"/>
                  </angle>
                  <angle>
                    <activevideoangle>false</activevideoangle>
                    <activeaudioangle>false</activeaudioangle>
                    <clip id="clip-7"/>
                  </angle>
                  <masterclipid>clip-master</masterclipid>
                </multiclip>
              </clipitem>
              <clipitem id="cs-318">
                <duration>117</duration>
                <rate>
                  <ntsc>false</ntsc>
                  <timebase>25</timebase>
                </rate>
                <in>37271</in>
                <out>37387</out>
                <start>37271</start>
                <end>37387</end>
                <file id="src-3"/>
                <sourcetrack>
                  <mediatype>video</mediatype>
                  <trackindex>1</trackindex>
                </sourcetrack>
                <multiclip id="mcs-318">
                  <name>MCS-318</name>
                  <masterclipid>clip-master</masterclipid>
                  <collapsed>false</collapsed>
                  <angle>
                    <activevideoangle>false</activevideoangle>
                    <activeaudioangle>false</activeaudioangle>
                    <clip id="clip-1"/>
                  </angle>
                  <angle>
                    <activevideoangle>false</activevideoangle>
                    <activeaudioangle>false</activeaudioangle>
                    <clip id="clip-2"/>
                  </angle>
                  <angle>
                    <activevideoangle>true</activevideoangle>
                    <activeaudioangle>true</activeaudioangle>
                    <clip id="clip-3"/>
                  </angle>
                  <angle>
                    <activevideoangle>false</activevideoangle>
                    <activeaudioangle>false</activeaudioangle>
                    <clip id="clip-4"/>
                  </angle>
                  <angle>
                    <activevideoangle>false</activevideoangle>
                    <activeaudioangle>false</activeaudioangle>
                    <clip id="clip-5"/>
                  </angle>
                  <angle>
                    <activevideoangle>false</activevideoangle>
                    <activeaudioangle>false</activeaudioangle>
                    <clip id="clip-6"/>
                  </angle>
                  <angle>
                    <activevideoangle>false</activevideoangle>
                    <activeaudioangle>false</activeaudioangle>
                    <clip id="clip-7"/>
                  </angle>
                  <masterclipid>clip-master</masterclipid>
                </multiclip>
              </clipitem>
              <clipitem id="cs-319">
                <duration>47</duration>
                <rate>
                  <ntsc>false</ntsc>
                  <timebase>25</timebase>
                </rate>
                <in>37387</in>
                <out>37433</out>
                <start>37387</start>
                <end>37433</end>
                <file id="src-1"/>
                <sourcetrack>
                  <mediatype>video</mediatype>
                  <trackindex>1</trackindex>
                </sourcetrack>
                <multiclip id="mcs-319">
                  <name>MCS-319</name>
                  <masterclipid>clip-master</masterclipid>
                  <collapsed>false</collapsed>
                  <angle>
                    <activevideoangle>true</activevideoangle>
                    <activeaudioangle>true</activeaudioangle>
                    <clip id="clip-1"/>
                  </angle>
                  <angle>
                    <activevideoangle>false</activevideoangle>
                    <activeaudioangle>false</activeaudioangle>
                    <clip id="clip-2"/>
                  </angle>
                  <angle>
                    <activevideoangle>false</activevideoangle>
                    <activeaudioangle>false</activeaudioangle>
                    <clip id="clip-3"/>
                  </angle>
                  <angle>
                    <activevideoangle>false</activevideoangle>
                    <activeaudioangle>false</activeaudioangle>
                    <clip id="clip-4"/>
                  </angle>
                  <angle>
                    <activevideoangle>false</activevideoangle>
                    <activeaudioangle>false</activeaudioangle>
                    <clip id="clip-5"/>
                  </angle>
                  <angle>
                    <activevideoangle>false</activevideoangle>
                    <activeaudioangle>false</activeaudioangle>
                    <clip id="clip-6"/>
                  </angle>
                  <angle>
                    <activevideoangle>false</activevideoangle>
                    <activeaudioangle>false</activeaudioangle>
                    <clip id="clip-7"/>
                  </angle>
                  <masterclipid>clip-master</masterclipid>
                </multiclip>
              </clipitem>
              <clipitem id="cs-320">
                <duration>88</duration>
                <rate>
                  <ntsc>false</ntsc>
                  <timebase>25</timebase>
                </rate>
                <in>37433</in>
                <out>37520</out>
                <start>37433</start>
                <end>37520</end>
                <file id="src-4"/>
                <sourcetrack>
                  <mediatype>video</mediatype>
                  <trackindex>1</trackindex>
                </sourcetrack>
                <multiclip id="mcs-320">
                  <name>MCS-320</name>
                  <masterclipid>clip-master</masterclipid>
                  <collapsed>false</collapsed>
                  <angle>
                    <activevideoangle>false</activevideoangle>
                    <activeaudioangle>false</activeaudioangle>
                    <clip id="clip-1"/>
                  </angle>
                  <angle>
                    <activevideoangle>false</activevideoangle>
                    <activeaudioangle>false</activeaudioangle>
                    <clip id="clip-2"/>
                  </angle>
                  <angle>
                    <activevideoangle>false</activevideoangle>
                    <activeaudioangle>false</activeaudioangle>
                    <clip id="clip-3"/>
                  </angle>
                  <angle>
                    <activevideoangle>true</activevideoangle>
                    <activeaudioangle>true</activeaudioangle>
                    <clip id="clip-4"/>
                  </angle>
                  <angle>
                    <activevideoangle>false</activevideoangle>
                    <activeaudioangle>false</activeaudioangle>
                    <clip id="clip-5"/>
                  </angle>
                  <angle>
                    <activevideoangle>false</activevideoangle>
                    <activeaudioangle>false</activeaudioangle>
                    <clip id="clip-6"/>
                  </angle>
                  <angle>
                    <activevideoangle>false</activevideoangle>
                    <activeaudioangle>false</activeaudioangle>
                    <clip id="clip-7"/>
                  </angle>
                  <masterclipid>clip-master</masterclipid>
                </multiclip>
              </clipitem>
              <clipitem id="cs-321">
                <duration>28</duration>
                <rate>
                  <ntsc>false</ntsc>
                  <timebase>25</timebase>
                </rate>
                <in>37520</in>
                <out>37547</out>
                <start>37520</start>
                <end>37547</end>
                <file id="src-6"/>
                <sourcetrack>
                  <mediatype>video</mediatype>
                  <trackindex>1</trackindex>
                </sourcetrack>
                <multiclip id="mcs-321">
                  <name>MCS-321</name>
                  <masterclipid>clip-master</masterclipid>
                  <collapsed>false</collapsed>
                  <angle>
                    <activevideoangle>false</activevideoangle>
                    <activeaudioangle>false</activeaudioangle>
                    <clip id="clip-1"/>
                  </angle>
                  <angle>
                    <activevideoangle>false</activevideoangle>
                    <activeaudioangle>false</activeaudioangle>
                    <clip id="clip-2"/>
                  </angle>
                  <angle>
                    <activevideoangle>false</activevideoangle>
                    <activeaudioangle>false</activeaudioangle>
                    <clip id="clip-3"/>
                  </angle>
                  <angle>
                    <activevideoangle>false</activevideoangle>
                    <activeaudioangle>false</activeaudioangle>
                    <clip id="clip-4"/>
                  </angle>
                  <angle>
                    <activevideoangle>false</activevideoangle>
                    <activeaudioangle>false</activeaudioangle>
                    <clip id="clip-5"/>
                  </angle>
                  <angle>
                    <activevideoangle>true</activevideoangle>
                    <activeaudioangle>true</activeaudioangle>
                    <clip id="clip-6"/>
                  </angle>
                  <angle>
                    <activevideoangle>false</activevideoangle>
                    <activeaudioangle>false</activeaudioangle>
                    <clip id="clip-7"/>
                  </angle>
                  <masterclipid>clip-master</masterclipid>
                </multiclip>
              </clipitem>
              <clipitem id="cs-322">
                <duration>59</duration>
                <rate>
                  <ntsc>false</ntsc>
                  <timebase>25</timebase>
                </rate>
                <in>37547</in>
                <out>37605</out>
                <start>37547</start>
                <end>37605</end>
                <file id="src-1"/>
                <sourcetrack>
                  <mediatype>video</mediatype>
                  <trackindex>1</trackindex>
                </sourcetrack>
                <multiclip id="mcs-322">
                  <name>MCS-322</name>
                  <masterclipid>clip-master</masterclipid>
                  <collapsed>false</collapsed>
                  <angle>
                    <activevideoangle>true</activevideoangle>
                    <activeaudioangle>true</activeaudioangle>
                    <clip id="clip-1"/>
                  </angle>
                  <angle>
                    <activevideoangle>false</activevideoangle>
                    <activeaudioangle>false</activeaudioangle>
                    <clip id="clip-2"/>
                  </angle>
                  <angle>
                    <activevideoangle>false</activevideoangle>
                    <activeaudioangle>false</activeaudioangle>
                    <clip id="clip-3"/>
                  </angle>
                  <angle>
                    <activevideoangle>false</activevideoangle>
                    <activeaudioangle>false</activeaudioangle>
                    <clip id="clip-4"/>
                  </angle>
                  <angle>
                    <activevideoangle>false</activevideoangle>
                    <activeaudioangle>false</activeaudioangle>
                    <clip id="clip-5"/>
                  </angle>
                  <angle>
                    <activevideoangle>false</activevideoangle>
                    <activeaudioangle>false</activeaudioangle>
                    <clip id="clip-6"/>
                  </angle>
                  <angle>
                    <activevideoangle>false</activevideoangle>
                    <activeaudioangle>false</activeaudioangle>
                    <clip id="clip-7"/>
                  </angle>
                  <masterclipid>clip-master</masterclipid>
                </multiclip>
              </clipitem>
              <clipitem id="cs-323">
                <duration>195</duration>
                <rate>
                  <ntsc>false</ntsc>
                  <timebase>25</timebase>
                </rate>
                <in>37605</in>
                <out>37799</out>
                <start>37605</start>
                <end>37799</end>
                <file id="src-4"/>
                <sourcetrack>
                  <mediatype>video</mediatype>
                  <trackindex>1</trackindex>
                </sourcetrack>
                <multiclip id="mcs-323">
                  <name>MCS-323</name>
                  <masterclipid>clip-master</masterclipid>
                  <collapsed>false</collapsed>
                  <angle>
                    <activevideoangle>false</activevideoangle>
                    <activeaudioangle>false</activeaudioangle>
                    <clip id="clip-1"/>
                  </angle>
                  <angle>
                    <activevideoangle>false</activevideoangle>
                    <activeaudioangle>false</activeaudioangle>
                    <clip id="clip-2"/>
                  </angle>
                  <angle>
                    <activevideoangle>false</activevideoangle>
                    <activeaudioangle>false</activeaudioangle>
                    <clip id="clip-3"/>
                  </angle>
                  <angle>
                    <activevideoangle>true</activevideoangle>
                    <activeaudioangle>true</activeaudioangle>
                    <clip id="clip-4"/>
                  </angle>
                  <angle>
                    <activevideoangle>false</activevideoangle>
                    <activeaudioangle>false</activeaudioangle>
                    <clip id="clip-5"/>
                  </angle>
                  <angle>
                    <activevideoangle>false</activevideoangle>
                    <activeaudioangle>false</activeaudioangle>
                    <clip id="clip-6"/>
                  </angle>
                  <angle>
                    <activevideoangle>false</activevideoangle>
                    <activeaudioangle>false</activeaudioangle>
                    <clip id="clip-7"/>
                  </angle>
                  <masterclipid>clip-master</masterclipid>
                </multiclip>
              </clipitem>
              <clipitem id="cs-324">
                <duration>135</duration>
                <rate>
                  <ntsc>false</ntsc>
                  <timebase>25</timebase>
                </rate>
                <in>37799</in>
                <out>37933</out>
                <start>37799</start>
                <end>37933</end>
                <file id="src-2"/>
                <sourcetrack>
                  <mediatype>video</mediatype>
                  <trackindex>1</trackindex>
                </sourcetrack>
                <multiclip id="mcs-324">
                  <name>MCS-324</name>
                  <masterclipid>clip-master</masterclipid>
                  <collapsed>false</collapsed>
                  <angle>
                    <activevideoangle>false</activevideoangle>
                    <activeaudioangle>false</activeaudioangle>
                    <clip id="clip-1"/>
                  </angle>
                  <angle>
                    <activevideoangle>true</activevideoangle>
                    <activeaudioangle>true</activeaudioangle>
                    <clip id="clip-2"/>
                  </angle>
                  <angle>
                    <activevideoangle>false</activevideoangle>
                    <activeaudioangle>false</activeaudioangle>
                    <clip id="clip-3"/>
                  </angle>
                  <angle>
                    <activevideoangle>false</activevideoangle>
                    <activeaudioangle>false</activeaudioangle>
                    <clip id="clip-4"/>
                  </angle>
                  <angle>
                    <activevideoangle>false</activevideoangle>
                    <activeaudioangle>false</activeaudioangle>
                    <clip id="clip-5"/>
                  </angle>
                  <angle>
                    <activevideoangle>false</activevideoangle>
                    <activeaudioangle>false</activeaudioangle>
                    <clip id="clip-6"/>
                  </angle>
                  <angle>
                    <activevideoangle>false</activevideoangle>
                    <activeaudioangle>false</activeaudioangle>
                    <clip id="clip-7"/>
                  </angle>
                  <masterclipid>clip-master</masterclipid>
                </multiclip>
              </clipitem>
              <clipitem id="cs-325">
                <duration>192</duration>
                <rate>
                  <ntsc>false</ntsc>
                  <timebase>25</timebase>
                </rate>
                <in>37933</in>
                <out>38124</out>
                <start>37933</start>
                <end>38124</end>
                <file id="src-4"/>
                <sourcetrack>
                  <mediatype>video</mediatype>
                  <trackindex>1</trackindex>
                </sourcetrack>
                <multiclip id="mcs-325">
                  <name>MCS-325</name>
                  <masterclipid>clip-master</masterclipid>
                  <collapsed>false</collapsed>
                  <angle>
                    <activevideoangle>false</activevideoangle>
                    <activeaudioangle>false</activeaudioangle>
                    <clip id="clip-1"/>
                  </angle>
                  <angle>
                    <activevideoangle>false</activevideoangle>
                    <activeaudioangle>false</activeaudioangle>
                    <clip id="clip-2"/>
                  </angle>
                  <angle>
                    <activevideoangle>false</activevideoangle>
                    <activeaudioangle>false</activeaudioangle>
                    <clip id="clip-3"/>
                  </angle>
                  <angle>
                    <activevideoangle>true</activevideoangle>
                    <activeaudioangle>true</activeaudioangle>
                    <clip id="clip-4"/>
                  </angle>
                  <angle>
                    <activevideoangle>false</activevideoangle>
                    <activeaudioangle>false</activeaudioangle>
                    <clip id="clip-5"/>
                  </angle>
                  <angle>
                    <activevideoangle>false</activevideoangle>
                    <activeaudioangle>false</activeaudioangle>
                    <clip id="clip-6"/>
                  </angle>
                  <angle>
                    <activevideoangle>false</activevideoangle>
                    <activeaudioangle>false</activeaudioangle>
                    <clip id="clip-7"/>
                  </angle>
                  <masterclipid>clip-master</masterclipid>
                </multiclip>
              </clipitem>
              <clipitem id="cs-326">
                <duration>107</duration>
                <rate>
                  <ntsc>false</ntsc>
                  <timebase>25</timebase>
                </rate>
                <in>38124</in>
                <out>38230</out>
                <start>38124</start>
                <end>38230</end>
                <file id="src-6"/>
                <sourcetrack>
                  <mediatype>video</mediatype>
                  <trackindex>1</trackindex>
                </sourcetrack>
                <multiclip id="mcs-326">
                  <name>MCS-326</name>
                  <masterclipid>clip-master</masterclipid>
                  <collapsed>false</collapsed>
                  <angle>
                    <activevideoangle>false</activevideoangle>
                    <activeaudioangle>false</activeaudioangle>
                    <clip id="clip-1"/>
                  </angle>
                  <angle>
                    <activevideoangle>false</activevideoangle>
                    <activeaudioangle>false</activeaudioangle>
                    <clip id="clip-2"/>
                  </angle>
                  <angle>
                    <activevideoangle>false</activevideoangle>
                    <activeaudioangle>false</activeaudioangle>
                    <clip id="clip-3"/>
                  </angle>
                  <angle>
                    <activevideoangle>false</activevideoangle>
                    <activeaudioangle>false</activeaudioangle>
                    <clip id="clip-4"/>
                  </angle>
                  <angle>
                    <activevideoangle>false</activevideoangle>
                    <activeaudioangle>false</activeaudioangle>
                    <clip id="clip-5"/>
                  </angle>
                  <angle>
                    <activevideoangle>true</activevideoangle>
                    <activeaudioangle>true</activeaudioangle>
                    <clip id="clip-6"/>
                  </angle>
                  <angle>
                    <activevideoangle>false</activevideoangle>
                    <activeaudioangle>false</activeaudioangle>
                    <clip id="clip-7"/>
                  </angle>
                  <masterclipid>clip-master</masterclipid>
                </multiclip>
              </clipitem>
              <clipitem id="cs-327">
                <duration>134</duration>
                <rate>
                  <ntsc>false</ntsc>
                  <timebase>25</timebase>
                </rate>
                <in>38230</in>
                <out>38363</out>
                <start>38230</start>
                <end>38363</end>
                <file id="src-4"/>
                <sourcetrack>
                  <mediatype>video</mediatype>
                  <trackindex>1</trackindex>
                </sourcetrack>
                <multiclip id="mcs-327">
                  <name>MCS-327</name>
                  <masterclipid>clip-master</masterclipid>
                  <collapsed>false</collapsed>
                  <angle>
                    <activevideoangle>false</activevideoangle>
                    <activeaudioangle>false</activeaudioangle>
                    <clip id="clip-1"/>
                  </angle>
                  <angle>
                    <activevideoangle>false</activevideoangle>
                    <activeaudioangle>false</activeaudioangle>
                    <clip id="clip-2"/>
                  </angle>
                  <angle>
                    <activevideoangle>false</activevideoangle>
                    <activeaudioangle>false</activeaudioangle>
                    <clip id="clip-3"/>
                  </angle>
                  <angle>
                    <activevideoangle>true</activevideoangle>
                    <activeaudioangle>true</activeaudioangle>
                    <clip id="clip-4"/>
                  </angle>
                  <angle>
                    <activevideoangle>false</activevideoangle>
                    <activeaudioangle>false</activeaudioangle>
                    <clip id="clip-5"/>
                  </angle>
                  <angle>
                    <activevideoangle>false</activevideoangle>
                    <activeaudioangle>false</activeaudioangle>
                    <clip id="clip-6"/>
                  </angle>
                  <angle>
                    <activevideoangle>false</activevideoangle>
                    <activeaudioangle>false</activeaudioangle>
                    <clip id="clip-7"/>
                  </angle>
                  <masterclipid>clip-master</masterclipid>
                </multiclip>
              </clipitem>
              <clipitem id="cs-328">
                <duration>32</duration>
                <rate>
                  <ntsc>false</ntsc>
                  <timebase>25</timebase>
                </rate>
                <in>38363</in>
                <out>38394</out>
                <start>38363</start>
                <end>38394</end>
                <file id="src-2"/>
                <sourcetrack>
                  <mediatype>video</mediatype>
                  <trackindex>1</trackindex>
                </sourcetrack>
                <multiclip id="mcs-328">
                  <name>MCS-328</name>
                  <masterclipid>clip-master</masterclipid>
                  <collapsed>false</collapsed>
                  <angle>
                    <activevideoangle>false</activevideoangle>
                    <activeaudioangle>false</activeaudioangle>
                    <clip id="clip-1"/>
                  </angle>
                  <angle>
                    <activevideoangle>true</activevideoangle>
                    <activeaudioangle>true</activeaudioangle>
                    <clip id="clip-2"/>
                  </angle>
                  <angle>
                    <activevideoangle>false</activevideoangle>
                    <activeaudioangle>false</activeaudioangle>
                    <clip id="clip-3"/>
                  </angle>
                  <angle>
                    <activevideoangle>false</activevideoangle>
                    <activeaudioangle>false</activeaudioangle>
                    <clip id="clip-4"/>
                  </angle>
                  <angle>
                    <activevideoangle>false</activevideoangle>
                    <activeaudioangle>false</activeaudioangle>
                    <clip id="clip-5"/>
                  </angle>
                  <angle>
                    <activevideoangle>false</activevideoangle>
                    <activeaudioangle>false</activeaudioangle>
                    <clip id="clip-6"/>
                  </angle>
                  <angle>
                    <activevideoangle>false</activevideoangle>
                    <activeaudioangle>false</activeaudioangle>
                    <clip id="clip-7"/>
                  </angle>
                  <masterclipid>clip-master</masterclipid>
                </multiclip>
              </clipitem>
              <clipitem id="cs-329">
                <duration>69</duration>
                <rate>
                  <ntsc>false</ntsc>
                  <timebase>25</timebase>
                </rate>
                <in>38394</in>
                <out>38462</out>
                <start>38394</start>
                <end>38462</end>
                <file id="src-6"/>
                <sourcetrack>
                  <mediatype>video</mediatype>
                  <trackindex>1</trackindex>
                </sourcetrack>
                <multiclip id="mcs-329">
                  <name>MCS-329</name>
                  <masterclipid>clip-master</masterclipid>
                  <collapsed>false</collapsed>
                  <angle>
                    <activevideoangle>false</activevideoangle>
                    <activeaudioangle>false</activeaudioangle>
                    <clip id="clip-1"/>
                  </angle>
                  <angle>
                    <activevideoangle>false</activevideoangle>
                    <activeaudioangle>false</activeaudioangle>
                    <clip id="clip-2"/>
                  </angle>
                  <angle>
                    <activevideoangle>false</activevideoangle>
                    <activeaudioangle>false</activeaudioangle>
                    <clip id="clip-3"/>
                  </angle>
                  <angle>
                    <activevideoangle>false</activevideoangle>
                    <activeaudioangle>false</activeaudioangle>
                    <clip id="clip-4"/>
                  </angle>
                  <angle>
                    <activevideoangle>false</activevideoangle>
                    <activeaudioangle>false</activeaudioangle>
                    <clip id="clip-5"/>
                  </angle>
                  <angle>
                    <activevideoangle>true</activevideoangle>
                    <activeaudioangle>true</activeaudioangle>
                    <clip id="clip-6"/>
                  </angle>
                  <angle>
                    <activevideoangle>false</activevideoangle>
                    <activeaudioangle>false</activeaudioangle>
                    <clip id="clip-7"/>
                  </angle>
                  <masterclipid>clip-master</masterclipid>
                </multiclip>
              </clipitem>
              <clipitem id="cs-330">
                <duration>99</duration>
                <rate>
                  <ntsc>false</ntsc>
                  <timebase>25</timebase>
                </rate>
                <in>38462</in>
                <out>38560</out>
                <start>38462</start>
                <end>38560</end>
                <file id="src-4"/>
                <sourcetrack>
                  <mediatype>video</mediatype>
                  <trackindex>1</trackindex>
                </sourcetrack>
                <multiclip id="mcs-330">
                  <name>MCS-330</name>
                  <masterclipid>clip-master</masterclipid>
                  <collapsed>false</collapsed>
                  <angle>
                    <activevideoangle>false</activevideoangle>
                    <activeaudioangle>false</activeaudioangle>
                    <clip id="clip-1"/>
                  </angle>
                  <angle>
                    <activevideoangle>false</activevideoangle>
                    <activeaudioangle>false</activeaudioangle>
                    <clip id="clip-2"/>
                  </angle>
                  <angle>
                    <activevideoangle>false</activevideoangle>
                    <activeaudioangle>false</activeaudioangle>
                    <clip id="clip-3"/>
                  </angle>
                  <angle>
                    <activevideoangle>true</activevideoangle>
                    <activeaudioangle>true</activeaudioangle>
                    <clip id="clip-4"/>
                  </angle>
                  <angle>
                    <activevideoangle>false</activevideoangle>
                    <activeaudioangle>false</activeaudioangle>
                    <clip id="clip-5"/>
                  </angle>
                  <angle>
                    <activevideoangle>false</activevideoangle>
                    <activeaudioangle>false</activeaudioangle>
                    <clip id="clip-6"/>
                  </angle>
                  <angle>
                    <activevideoangle>false</activevideoangle>
                    <activeaudioangle>false</activeaudioangle>
                    <clip id="clip-7"/>
                  </angle>
                  <masterclipid>clip-master</masterclipid>
                </multiclip>
              </clipitem>
              <clipitem id="cs-331">
                <duration>68</duration>
                <rate>
                  <ntsc>false</ntsc>
                  <timebase>25</timebase>
                </rate>
                <in>38560</in>
                <out>38627</out>
                <start>38560</start>
                <end>38627</end>
                <file id="src-2"/>
                <sourcetrack>
                  <mediatype>video</mediatype>
                  <trackindex>1</trackindex>
                </sourcetrack>
                <multiclip id="mcs-331">
                  <name>MCS-331</name>
                  <masterclipid>clip-master</masterclipid>
                  <collapsed>false</collapsed>
                  <angle>
                    <activevideoangle>false</activevideoangle>
                    <activeaudioangle>false</activeaudioangle>
                    <clip id="clip-1"/>
                  </angle>
                  <angle>
                    <activevideoangle>true</activevideoangle>
                    <activeaudioangle>true</activeaudioangle>
                    <clip id="clip-2"/>
                  </angle>
                  <angle>
                    <activevideoangle>false</activevideoangle>
                    <activeaudioangle>false</activeaudioangle>
                    <clip id="clip-3"/>
                  </angle>
                  <angle>
                    <activevideoangle>false</activevideoangle>
                    <activeaudioangle>false</activeaudioangle>
                    <clip id="clip-4"/>
                  </angle>
                  <angle>
                    <activevideoangle>false</activevideoangle>
                    <activeaudioangle>false</activeaudioangle>
                    <clip id="clip-5"/>
                  </angle>
                  <angle>
                    <activevideoangle>false</activevideoangle>
                    <activeaudioangle>false</activeaudioangle>
                    <clip id="clip-6"/>
                  </angle>
                  <angle>
                    <activevideoangle>false</activevideoangle>
                    <activeaudioangle>false</activeaudioangle>
                    <clip id="clip-7"/>
                  </angle>
                  <masterclipid>clip-master</masterclipid>
                </multiclip>
              </clipitem>
              <clipitem id="cs-332">
                <duration>244</duration>
                <rate>
                  <ntsc>false</ntsc>
                  <timebase>25</timebase>
                </rate>
                <in>38627</in>
                <out>38870</out>
                <start>38627</start>
                <end>38870</end>
                <file id="src-3"/>
                <sourcetrack>
                  <mediatype>video</mediatype>
                  <trackindex>1</trackindex>
                </sourcetrack>
                <multiclip id="mcs-332">
                  <name>MCS-332</name>
                  <masterclipid>clip-master</masterclipid>
                  <collapsed>false</collapsed>
                  <angle>
                    <activevideoangle>false</activevideoangle>
                    <activeaudioangle>false</activeaudioangle>
                    <clip id="clip-1"/>
                  </angle>
                  <angle>
                    <activevideoangle>false</activevideoangle>
                    <activeaudioangle>false</activeaudioangle>
                    <clip id="clip-2"/>
                  </angle>
                  <angle>
                    <activevideoangle>true</activevideoangle>
                    <activeaudioangle>true</activeaudioangle>
                    <clip id="clip-3"/>
                  </angle>
                  <angle>
                    <activevideoangle>false</activevideoangle>
                    <activeaudioangle>false</activeaudioangle>
                    <clip id="clip-4"/>
                  </angle>
                  <angle>
                    <activevideoangle>false</activevideoangle>
                    <activeaudioangle>false</activeaudioangle>
                    <clip id="clip-5"/>
                  </angle>
                  <angle>
                    <activevideoangle>false</activevideoangle>
                    <activeaudioangle>false</activeaudioangle>
                    <clip id="clip-6"/>
                  </angle>
                  <angle>
                    <activevideoangle>false</activevideoangle>
                    <activeaudioangle>false</activeaudioangle>
                    <clip id="clip-7"/>
                  </angle>
                  <masterclipid>clip-master</masterclipid>
                </multiclip>
              </clipitem>
              <clipitem id="cs-333">
                <duration>222</duration>
                <rate>
                  <ntsc>false</ntsc>
                  <timebase>25</timebase>
                </rate>
                <in>38870</in>
                <out>39091</out>
                <start>38870</start>
                <end>39091</end>
                <file id="src-4"/>
                <sourcetrack>
                  <mediatype>video</mediatype>
                  <trackindex>1</trackindex>
                </sourcetrack>
                <multiclip id="mcs-333">
                  <name>MCS-333</name>
                  <masterclipid>clip-master</masterclipid>
                  <collapsed>false</collapsed>
                  <angle>
                    <activevideoangle>false</activevideoangle>
                    <activeaudioangle>false</activeaudioangle>
                    <clip id="clip-1"/>
                  </angle>
                  <angle>
                    <activevideoangle>false</activevideoangle>
                    <activeaudioangle>false</activeaudioangle>
                    <clip id="clip-2"/>
                  </angle>
                  <angle>
                    <activevideoangle>false</activevideoangle>
                    <activeaudioangle>false</activeaudioangle>
                    <clip id="clip-3"/>
                  </angle>
                  <angle>
                    <activevideoangle>true</activevideoangle>
                    <activeaudioangle>true</activeaudioangle>
                    <clip id="clip-4"/>
                  </angle>
                  <angle>
                    <activevideoangle>false</activevideoangle>
                    <activeaudioangle>false</activeaudioangle>
                    <clip id="clip-5"/>
                  </angle>
                  <angle>
                    <activevideoangle>false</activevideoangle>
                    <activeaudioangle>false</activeaudioangle>
                    <clip id="clip-6"/>
                  </angle>
                  <angle>
                    <activevideoangle>false</activevideoangle>
                    <activeaudioangle>false</activeaudioangle>
                    <clip id="clip-7"/>
                  </angle>
                  <masterclipid>clip-master</masterclipid>
                </multiclip>
              </clipitem>
              <clipitem id="cs-334">
                <duration>36</duration>
                <rate>
                  <ntsc>false</ntsc>
                  <timebase>25</timebase>
                </rate>
                <in>39091</in>
                <out>39126</out>
                <start>39091</start>
                <end>39126</end>
                <file id="src-3"/>
                <sourcetrack>
                  <mediatype>video</mediatype>
                  <trackindex>1</trackindex>
                </sourcetrack>
                <multiclip id="mcs-334">
                  <name>MCS-334</name>
                  <masterclipid>clip-master</masterclipid>
                  <collapsed>false</collapsed>
                  <angle>
                    <activevideoangle>false</activevideoangle>
                    <activeaudioangle>false</activeaudioangle>
                    <clip id="clip-1"/>
                  </angle>
                  <angle>
                    <activevideoangle>false</activevideoangle>
                    <activeaudioangle>false</activeaudioangle>
                    <clip id="clip-2"/>
                  </angle>
                  <angle>
                    <activevideoangle>true</activevideoangle>
                    <activeaudioangle>true</activeaudioangle>
                    <clip id="clip-3"/>
                  </angle>
                  <angle>
                    <activevideoangle>false</activevideoangle>
                    <activeaudioangle>false</activeaudioangle>
                    <clip id="clip-4"/>
                  </angle>
                  <angle>
                    <activevideoangle>false</activevideoangle>
                    <activeaudioangle>false</activeaudioangle>
                    <clip id="clip-5"/>
                  </angle>
                  <angle>
                    <activevideoangle>false</activevideoangle>
                    <activeaudioangle>false</activeaudioangle>
                    <clip id="clip-6"/>
                  </angle>
                  <angle>
                    <activevideoangle>false</activevideoangle>
                    <activeaudioangle>false</activeaudioangle>
                    <clip id="clip-7"/>
                  </angle>
                  <masterclipid>clip-master</masterclipid>
                </multiclip>
              </clipitem>
              <clipitem id="cs-335">
                <duration>73</duration>
                <rate>
                  <ntsc>false</ntsc>
                  <timebase>25</timebase>
                </rate>
                <in>39126</in>
                <out>39198</out>
                <start>39126</start>
                <end>39198</end>
                <file id="src-6"/>
                <sourcetrack>
                  <mediatype>video</mediatype>
                  <trackindex>1</trackindex>
                </sourcetrack>
                <multiclip id="mcs-335">
                  <name>MCS-335</name>
                  <masterclipid>clip-master</masterclipid>
                  <collapsed>false</collapsed>
                  <angle>
                    <activevideoangle>false</activevideoangle>
                    <activeaudioangle>false</activeaudioangle>
                    <clip id="clip-1"/>
                  </angle>
                  <angle>
                    <activevideoangle>false</activevideoangle>
                    <activeaudioangle>false</activeaudioangle>
                    <clip id="clip-2"/>
                  </angle>
                  <angle>
                    <activevideoangle>false</activevideoangle>
                    <activeaudioangle>false</activeaudioangle>
                    <clip id="clip-3"/>
                  </angle>
                  <angle>
                    <activevideoangle>false</activevideoangle>
                    <activeaudioangle>false</activeaudioangle>
                    <clip id="clip-4"/>
                  </angle>
                  <angle>
                    <activevideoangle>false</activevideoangle>
                    <activeaudioangle>false</activeaudioangle>
                    <clip id="clip-5"/>
                  </angle>
                  <angle>
                    <activevideoangle>true</activevideoangle>
                    <activeaudioangle>true</activeaudioangle>
                    <clip id="clip-6"/>
                  </angle>
                  <angle>
                    <activevideoangle>false</activevideoangle>
                    <activeaudioangle>false</activeaudioangle>
                    <clip id="clip-7"/>
                  </angle>
                  <masterclipid>clip-master</masterclipid>
                </multiclip>
              </clipitem>
              <clipitem id="cs-336">
                <duration>111</duration>
                <rate>
                  <ntsc>false</ntsc>
                  <timebase>25</timebase>
                </rate>
                <in>39198</in>
                <out>39308</out>
                <start>39198</start>
                <end>39308</end>
                <file id="src-4"/>
                <sourcetrack>
                  <mediatype>video</mediatype>
                  <trackindex>1</trackindex>
                </sourcetrack>
                <multiclip id="mcs-336">
                  <name>MCS-336</name>
                  <masterclipid>clip-master</masterclipid>
                  <collapsed>false</collapsed>
                  <angle>
                    <activevideoangle>false</activevideoangle>
                    <activeaudioangle>false</activeaudioangle>
                    <clip id="clip-1"/>
                  </angle>
                  <angle>
                    <activevideoangle>false</activevideoangle>
                    <activeaudioangle>false</activeaudioangle>
                    <clip id="clip-2"/>
                  </angle>
                  <angle>
                    <activevideoangle>false</activevideoangle>
                    <activeaudioangle>false</activeaudioangle>
                    <clip id="clip-3"/>
                  </angle>
                  <angle>
                    <activevideoangle>true</activevideoangle>
                    <activeaudioangle>true</activeaudioangle>
                    <clip id="clip-4"/>
                  </angle>
                  <angle>
                    <activevideoangle>false</activevideoangle>
                    <activeaudioangle>false</activeaudioangle>
                    <clip id="clip-5"/>
                  </angle>
                  <angle>
                    <activevideoangle>false</activevideoangle>
                    <activeaudioangle>false</activeaudioangle>
                    <clip id="clip-6"/>
                  </angle>
                  <angle>
                    <activevideoangle>false</activevideoangle>
                    <activeaudioangle>false</activeaudioangle>
                    <clip id="clip-7"/>
                  </angle>
                  <masterclipid>clip-master</masterclipid>
                </multiclip>
              </clipitem>
              <clipitem id="cs-337">
                <duration>66</duration>
                <rate>
                  <ntsc>false</ntsc>
                  <timebase>25</timebase>
                </rate>
                <in>39308</in>
                <out>39373</out>
                <start>39308</start>
                <end>39373</end>
                <file id="src-3"/>
                <sourcetrack>
                  <mediatype>video</mediatype>
                  <trackindex>1</trackindex>
                </sourcetrack>
                <multiclip id="mcs-337">
                  <name>MCS-337</name>
                  <masterclipid>clip-master</masterclipid>
                  <collapsed>false</collapsed>
                  <angle>
                    <activevideoangle>false</activevideoangle>
                    <activeaudioangle>false</activeaudioangle>
                    <clip id="clip-1"/>
                  </angle>
                  <angle>
                    <activevideoangle>false</activevideoangle>
                    <activeaudioangle>false</activeaudioangle>
                    <clip id="clip-2"/>
                  </angle>
                  <angle>
                    <activevideoangle>true</activevideoangle>
                    <activeaudioangle>true</activeaudioangle>
                    <clip id="clip-3"/>
                  </angle>
                  <angle>
                    <activevideoangle>false</activevideoangle>
                    <activeaudioangle>false</activeaudioangle>
                    <clip id="clip-4"/>
                  </angle>
                  <angle>
                    <activevideoangle>false</activevideoangle>
                    <activeaudioangle>false</activeaudioangle>
                    <clip id="clip-5"/>
                  </angle>
                  <angle>
                    <activevideoangle>false</activevideoangle>
                    <activeaudioangle>false</activeaudioangle>
                    <clip id="clip-6"/>
                  </angle>
                  <angle>
                    <activevideoangle>false</activevideoangle>
                    <activeaudioangle>false</activeaudioangle>
                    <clip id="clip-7"/>
                  </angle>
                  <masterclipid>clip-master</masterclipid>
                </multiclip>
              </clipitem>
              <clipitem id="cs-338">
                <duration>152</duration>
                <rate>
                  <ntsc>false</ntsc>
                  <timebase>25</timebase>
                </rate>
                <in>39373</in>
                <out>39524</out>
                <start>39373</start>
                <end>39524</end>
                <file id="src-2"/>
                <sourcetrack>
                  <mediatype>video</mediatype>
                  <trackindex>1</trackindex>
                </sourcetrack>
                <multiclip id="mcs-338">
                  <name>MCS-338</name>
                  <masterclipid>clip-master</masterclipid>
                  <collapsed>false</collapsed>
                  <angle>
                    <activevideoangle>false</activevideoangle>
                    <activeaudioangle>false</activeaudioangle>
                    <clip id="clip-1"/>
                  </angle>
                  <angle>
                    <activevideoangle>true</activevideoangle>
                    <activeaudioangle>true</activeaudioangle>
                    <clip id="clip-2"/>
                  </angle>
                  <angle>
                    <activevideoangle>false</activevideoangle>
                    <activeaudioangle>false</activeaudioangle>
                    <clip id="clip-3"/>
                  </angle>
                  <angle>
                    <activevideoangle>false</activevideoangle>
                    <activeaudioangle>false</activeaudioangle>
                    <clip id="clip-4"/>
                  </angle>
                  <angle>
                    <activevideoangle>false</activevideoangle>
                    <activeaudioangle>false</activeaudioangle>
                    <clip id="clip-5"/>
                  </angle>
                  <angle>
                    <activevideoangle>false</activevideoangle>
                    <activeaudioangle>false</activeaudioangle>
                    <clip id="clip-6"/>
                  </angle>
                  <angle>
                    <activevideoangle>false</activevideoangle>
                    <activeaudioangle>false</activeaudioangle>
                    <clip id="clip-7"/>
                  </angle>
                  <masterclipid>clip-master</masterclipid>
                </multiclip>
              </clipitem>
              <clipitem id="cs-339">
                <duration>51</duration>
                <rate>
                  <ntsc>false</ntsc>
                  <timebase>25</timebase>
                </rate>
                <in>39524</in>
                <out>39574</out>
                <start>39524</start>
                <end>39574</end>
                <file id="src-5"/>
                <sourcetrack>
                  <mediatype>video</mediatype>
                  <trackindex>1</trackindex>
                </sourcetrack>
                <multiclip id="mcs-339">
                  <name>MCS-339</name>
                  <masterclipid>clip-master</masterclipid>
                  <collapsed>false</collapsed>
                  <angle>
                    <activevideoangle>false</activevideoangle>
                    <activeaudioangle>false</activeaudioangle>
                    <clip id="clip-1"/>
                  </angle>
                  <angle>
                    <activevideoangle>false</activevideoangle>
                    <activeaudioangle>false</activeaudioangle>
                    <clip id="clip-2"/>
                  </angle>
                  <angle>
                    <activevideoangle>false</activevideoangle>
                    <activeaudioangle>false</activeaudioangle>
                    <clip id="clip-3"/>
                  </angle>
                  <angle>
                    <activevideoangle>false</activevideoangle>
                    <activeaudioangle>false</activeaudioangle>
                    <clip id="clip-4"/>
                  </angle>
                  <angle>
                    <activevideoangle>true</activevideoangle>
                    <activeaudioangle>true</activeaudioangle>
                    <clip id="clip-5"/>
                  </angle>
                  <angle>
                    <activevideoangle>false</activevideoangle>
                    <activeaudioangle>false</activeaudioangle>
                    <clip id="clip-6"/>
                  </angle>
                  <angle>
                    <activevideoangle>false</activevideoangle>
                    <activeaudioangle>false</activeaudioangle>
                    <clip id="clip-7"/>
                  </angle>
                  <masterclipid>clip-master</masterclipid>
                </multiclip>
              </clipitem>
              <clipitem id="cs-340">
                <duration>56</duration>
                <rate>
                  <ntsc>false</ntsc>
                  <timebase>25</timebase>
                </rate>
                <in>39574</in>
                <out>39629</out>
                <start>39574</start>
                <end>39629</end>
                <file id="src-3"/>
                <sourcetrack>
                  <mediatype>video</mediatype>
                  <trackindex>1</trackindex>
                </sourcetrack>
                <multiclip id="mcs-340">
                  <name>MCS-340</name>
                  <masterclipid>clip-master</masterclipid>
                  <collapsed>false</collapsed>
                  <angle>
                    <activevideoangle>false</activevideoangle>
                    <activeaudioangle>false</activeaudioangle>
                    <clip id="clip-1"/>
                  </angle>
                  <angle>
                    <activevideoangle>false</activevideoangle>
                    <activeaudioangle>false</activeaudioangle>
                    <clip id="clip-2"/>
                  </angle>
                  <angle>
                    <activevideoangle>true</activevideoangle>
                    <activeaudioangle>true</activeaudioangle>
                    <clip id="clip-3"/>
                  </angle>
                  <angle>
                    <activevideoangle>false</activevideoangle>
                    <activeaudioangle>false</activeaudioangle>
                    <clip id="clip-4"/>
                  </angle>
                  <angle>
                    <activevideoangle>false</activevideoangle>
                    <activeaudioangle>false</activeaudioangle>
                    <clip id="clip-5"/>
                  </angle>
                  <angle>
                    <activevideoangle>false</activevideoangle>
                    <activeaudioangle>false</activeaudioangle>
                    <clip id="clip-6"/>
                  </angle>
                  <angle>
                    <activevideoangle>false</activevideoangle>
                    <activeaudioangle>false</activeaudioangle>
                    <clip id="clip-7"/>
                  </angle>
                  <masterclipid>clip-master</masterclipid>
                </multiclip>
              </clipitem>
              <clipitem id="cs-341">
                <duration>30</duration>
                <rate>
                  <ntsc>false</ntsc>
                  <timebase>25</timebase>
                </rate>
                <in>39629</in>
                <out>39658</out>
                <start>39629</start>
                <end>39658</end>
                <file id="src-6"/>
                <sourcetrack>
                  <mediatype>video</mediatype>
                  <trackindex>1</trackindex>
                </sourcetrack>
                <multiclip id="mcs-341">
                  <name>MCS-341</name>
                  <masterclipid>clip-master</masterclipid>
                  <collapsed>false</collapsed>
                  <angle>
                    <activevideoangle>false</activevideoangle>
                    <activeaudioangle>false</activeaudioangle>
                    <clip id="clip-1"/>
                  </angle>
                  <angle>
                    <activevideoangle>false</activevideoangle>
                    <activeaudioangle>false</activeaudioangle>
                    <clip id="clip-2"/>
                  </angle>
                  <angle>
                    <activevideoangle>false</activevideoangle>
                    <activeaudioangle>false</activeaudioangle>
                    <clip id="clip-3"/>
                  </angle>
                  <angle>
                    <activevideoangle>false</activevideoangle>
                    <activeaudioangle>false</activeaudioangle>
                    <clip id="clip-4"/>
                  </angle>
                  <angle>
                    <activevideoangle>false</activevideoangle>
                    <activeaudioangle>false</activeaudioangle>
                    <clip id="clip-5"/>
                  </angle>
                  <angle>
                    <activevideoangle>true</activevideoangle>
                    <activeaudioangle>true</activeaudioangle>
                    <clip id="clip-6"/>
                  </angle>
                  <angle>
                    <activevideoangle>false</activevideoangle>
                    <activeaudioangle>false</activeaudioangle>
                    <clip id="clip-7"/>
                  </angle>
                  <masterclipid>clip-master</masterclipid>
                </multiclip>
              </clipitem>
              <clipitem id="cs-342">
                <duration>94</duration>
                <rate>
                  <ntsc>false</ntsc>
                  <timebase>25</timebase>
                </rate>
                <in>39658</in>
                <out>39751</out>
                <start>39658</start>
                <end>39751</end>
                <file id="src-1"/>
                <sourcetrack>
                  <mediatype>video</mediatype>
                  <trackindex>1</trackindex>
                </sourcetrack>
                <multiclip id="mcs-342">
                  <name>MCS-342</name>
                  <masterclipid>clip-master</masterclipid>
                  <collapsed>false</collapsed>
                  <angle>
                    <activevideoangle>true</activevideoangle>
                    <activeaudioangle>true</activeaudioangle>
                    <clip id="clip-1"/>
                  </angle>
                  <angle>
                    <activevideoangle>false</activevideoangle>
                    <activeaudioangle>false</activeaudioangle>
                    <clip id="clip-2"/>
                  </angle>
                  <angle>
                    <activevideoangle>false</activevideoangle>
                    <activeaudioangle>false</activeaudioangle>
                    <clip id="clip-3"/>
                  </angle>
                  <angle>
                    <activevideoangle>false</activevideoangle>
                    <activeaudioangle>false</activeaudioangle>
                    <clip id="clip-4"/>
                  </angle>
                  <angle>
                    <activevideoangle>false</activevideoangle>
                    <activeaudioangle>false</activeaudioangle>
                    <clip id="clip-5"/>
                  </angle>
                  <angle>
                    <activevideoangle>false</activevideoangle>
                    <activeaudioangle>false</activeaudioangle>
                    <clip id="clip-6"/>
                  </angle>
                  <angle>
                    <activevideoangle>false</activevideoangle>
                    <activeaudioangle>false</activeaudioangle>
                    <clip id="clip-7"/>
                  </angle>
                  <masterclipid>clip-master</masterclipid>
                </multiclip>
              </clipitem>
              <clipitem id="cs-343">
                <duration>300</duration>
                <rate>
                  <ntsc>false</ntsc>
                  <timebase>25</timebase>
                </rate>
                <in>39751</in>
                <out>40050</out>
                <start>39751</start>
                <end>40050</end>
                <file id="src-2"/>
                <sourcetrack>
                  <mediatype>video</mediatype>
                  <trackindex>1</trackindex>
                </sourcetrack>
                <multiclip id="mcs-343">
                  <name>MCS-343</name>
                  <masterclipid>clip-master</masterclipid>
                  <collapsed>false</collapsed>
                  <angle>
                    <activevideoangle>false</activevideoangle>
                    <activeaudioangle>false</activeaudioangle>
                    <clip id="clip-1"/>
                  </angle>
                  <angle>
                    <activevideoangle>true</activevideoangle>
                    <activeaudioangle>true</activeaudioangle>
                    <clip id="clip-2"/>
                  </angle>
                  <angle>
                    <activevideoangle>false</activevideoangle>
                    <activeaudioangle>false</activeaudioangle>
                    <clip id="clip-3"/>
                  </angle>
                  <angle>
                    <activevideoangle>false</activevideoangle>
                    <activeaudioangle>false</activeaudioangle>
                    <clip id="clip-4"/>
                  </angle>
                  <angle>
                    <activevideoangle>false</activevideoangle>
                    <activeaudioangle>false</activeaudioangle>
                    <clip id="clip-5"/>
                  </angle>
                  <angle>
                    <activevideoangle>false</activevideoangle>
                    <activeaudioangle>false</activeaudioangle>
                    <clip id="clip-6"/>
                  </angle>
                  <angle>
                    <activevideoangle>false</activevideoangle>
                    <activeaudioangle>false</activeaudioangle>
                    <clip id="clip-7"/>
                  </angle>
                  <masterclipid>clip-master</masterclipid>
                </multiclip>
              </clipitem>
              <clipitem id="cs-344">
                <duration>89</duration>
                <rate>
                  <ntsc>false</ntsc>
                  <timebase>25</timebase>
                </rate>
                <in>40050</in>
                <out>40138</out>
                <start>40050</start>
                <end>40138</end>
                <file id="src-4"/>
                <sourcetrack>
                  <mediatype>video</mediatype>
                  <trackindex>1</trackindex>
                </sourcetrack>
                <multiclip id="mcs-344">
                  <name>MCS-344</name>
                  <masterclipid>clip-master</masterclipid>
                  <collapsed>false</collapsed>
                  <angle>
                    <activevideoangle>false</activevideoangle>
                    <activeaudioangle>false</activeaudioangle>
                    <clip id="clip-1"/>
                  </angle>
                  <angle>
                    <activevideoangle>false</activevideoangle>
                    <activeaudioangle>false</activeaudioangle>
                    <clip id="clip-2"/>
                  </angle>
                  <angle>
                    <activevideoangle>false</activevideoangle>
                    <activeaudioangle>false</activeaudioangle>
                    <clip id="clip-3"/>
                  </angle>
                  <angle>
                    <activevideoangle>true</activevideoangle>
                    <activeaudioangle>true</activeaudioangle>
                    <clip id="clip-4"/>
                  </angle>
                  <angle>
                    <activevideoangle>false</activevideoangle>
                    <activeaudioangle>false</activeaudioangle>
                    <clip id="clip-5"/>
                  </angle>
                  <angle>
                    <activevideoangle>false</activevideoangle>
                    <activeaudioangle>false</activeaudioangle>
                    <clip id="clip-6"/>
                  </angle>
                  <angle>
                    <activevideoangle>false</activevideoangle>
                    <activeaudioangle>false</activeaudioangle>
                    <clip id="clip-7"/>
                  </angle>
                  <masterclipid>clip-master</masterclipid>
                </multiclip>
              </clipitem>
              <clipitem id="cs-345">
                <duration>249</duration>
                <rate>
                  <ntsc>false</ntsc>
                  <timebase>25</timebase>
                </rate>
                <in>40138</in>
                <out>40386</out>
                <start>40138</start>
                <end>40386</end>
                <file id="src-2"/>
                <sourcetrack>
                  <mediatype>video</mediatype>
                  <trackindex>1</trackindex>
                </sourcetrack>
                <multiclip id="mcs-345">
                  <name>MCS-345</name>
                  <masterclipid>clip-master</masterclipid>
                  <collapsed>false</collapsed>
                  <angle>
                    <activevideoangle>false</activevideoangle>
                    <activeaudioangle>false</activeaudioangle>
                    <clip id="clip-1"/>
                  </angle>
                  <angle>
                    <activevideoangle>true</activevideoangle>
                    <activeaudioangle>true</activeaudioangle>
                    <clip id="clip-2"/>
                  </angle>
                  <angle>
                    <activevideoangle>false</activevideoangle>
                    <activeaudioangle>false</activeaudioangle>
                    <clip id="clip-3"/>
                  </angle>
                  <angle>
                    <activevideoangle>false</activevideoangle>
                    <activeaudioangle>false</activeaudioangle>
                    <clip id="clip-4"/>
                  </angle>
                  <angle>
                    <activevideoangle>false</activevideoangle>
                    <activeaudioangle>false</activeaudioangle>
                    <clip id="clip-5"/>
                  </angle>
                  <angle>
                    <activevideoangle>false</activevideoangle>
                    <activeaudioangle>false</activeaudioangle>
                    <clip id="clip-6"/>
                  </angle>
                  <angle>
                    <activevideoangle>false</activevideoangle>
                    <activeaudioangle>false</activeaudioangle>
                    <clip id="clip-7"/>
                  </angle>
                  <masterclipid>clip-master</masterclipid>
                </multiclip>
              </clipitem>
              <clipitem id="cs-346">
                <duration>42</duration>
                <rate>
                  <ntsc>false</ntsc>
                  <timebase>25</timebase>
                </rate>
                <in>40386</in>
                <out>40427</out>
                <start>40386</start>
                <end>40427</end>
                <file id="src-6"/>
                <sourcetrack>
                  <mediatype>video</mediatype>
                  <trackindex>1</trackindex>
                </sourcetrack>
                <multiclip id="mcs-346">
                  <name>MCS-346</name>
                  <masterclipid>clip-master</masterclipid>
                  <collapsed>false</collapsed>
                  <angle>
                    <activevideoangle>false</activevideoangle>
                    <activeaudioangle>false</activeaudioangle>
                    <clip id="clip-1"/>
                  </angle>
                  <angle>
                    <activevideoangle>false</activevideoangle>
                    <activeaudioangle>false</activeaudioangle>
                    <clip id="clip-2"/>
                  </angle>
                  <angle>
                    <activevideoangle>false</activevideoangle>
                    <activeaudioangle>false</activeaudioangle>
                    <clip id="clip-3"/>
                  </angle>
                  <angle>
                    <activevideoangle>false</activevideoangle>
                    <activeaudioangle>false</activeaudioangle>
                    <clip id="clip-4"/>
                  </angle>
                  <angle>
                    <activevideoangle>false</activevideoangle>
                    <activeaudioangle>false</activeaudioangle>
                    <clip id="clip-5"/>
                  </angle>
                  <angle>
                    <activevideoangle>true</activevideoangle>
                    <activeaudioangle>true</activeaudioangle>
                    <clip id="clip-6"/>
                  </angle>
                  <angle>
                    <activevideoangle>false</activevideoangle>
                    <activeaudioangle>false</activeaudioangle>
                    <clip id="clip-7"/>
                  </angle>
                  <masterclipid>clip-master</masterclipid>
                </multiclip>
              </clipitem>
              <clipitem id="cs-347">
                <duration>51</duration>
                <rate>
                  <ntsc>false</ntsc>
                  <timebase>25</timebase>
                </rate>
                <in>40427</in>
                <out>40477</out>
                <start>40427</start>
                <end>40477</end>
                <file id="src-4"/>
                <sourcetrack>
                  <mediatype>video</mediatype>
                  <trackindex>1</trackindex>
                </sourcetrack>
                <multiclip id="mcs-347">
                  <name>MCS-347</name>
                  <masterclipid>clip-master</masterclipid>
                  <collapsed>false</collapsed>
                  <angle>
                    <activevideoangle>false</activevideoangle>
                    <activeaudioangle>false</activeaudioangle>
                    <clip id="clip-1"/>
                  </angle>
                  <angle>
                    <activevideoangle>false</activevideoangle>
                    <activeaudioangle>false</activeaudioangle>
                    <clip id="clip-2"/>
                  </angle>
                  <angle>
                    <activevideoangle>false</activevideoangle>
                    <activeaudioangle>false</activeaudioangle>
                    <clip id="clip-3"/>
                  </angle>
                  <angle>
                    <activevideoangle>true</activevideoangle>
                    <activeaudioangle>true</activeaudioangle>
                    <clip id="clip-4"/>
                  </angle>
                  <angle>
                    <activevideoangle>false</activevideoangle>
                    <activeaudioangle>false</activeaudioangle>
                    <clip id="clip-5"/>
                  </angle>
                  <angle>
                    <activevideoangle>false</activevideoangle>
                    <activeaudioangle>false</activeaudioangle>
                    <clip id="clip-6"/>
                  </angle>
                  <angle>
                    <activevideoangle>false</activevideoangle>
                    <activeaudioangle>false</activeaudioangle>
                    <clip id="clip-7"/>
                  </angle>
                  <masterclipid>clip-master</masterclipid>
                </multiclip>
              </clipitem>
              <clipitem id="cs-348">
                <duration>383</duration>
                <rate>
                  <ntsc>false</ntsc>
                  <timebase>25</timebase>
                </rate>
                <in>40477</in>
                <out>40859</out>
                <start>40477</start>
                <end>40859</end>
                <file id="src-3"/>
                <sourcetrack>
                  <mediatype>video</mediatype>
                  <trackindex>1</trackindex>
                </sourcetrack>
                <multiclip id="mcs-348">
                  <name>MCS-348</name>
                  <masterclipid>clip-master</masterclipid>
                  <collapsed>false</collapsed>
                  <angle>
                    <activevideoangle>false</activevideoangle>
                    <activeaudioangle>false</activeaudioangle>
                    <clip id="clip-1"/>
                  </angle>
                  <angle>
                    <activevideoangle>false</activevideoangle>
                    <activeaudioangle>false</activeaudioangle>
                    <clip id="clip-2"/>
                  </angle>
                  <angle>
                    <activevideoangle>true</activevideoangle>
                    <activeaudioangle>true</activeaudioangle>
                    <clip id="clip-3"/>
                  </angle>
                  <angle>
                    <activevideoangle>false</activevideoangle>
                    <activeaudioangle>false</activeaudioangle>
                    <clip id="clip-4"/>
                  </angle>
                  <angle>
                    <activevideoangle>false</activevideoangle>
                    <activeaudioangle>false</activeaudioangle>
                    <clip id="clip-5"/>
                  </angle>
                  <angle>
                    <activevideoangle>false</activevideoangle>
                    <activeaudioangle>false</activeaudioangle>
                    <clip id="clip-6"/>
                  </angle>
                  <angle>
                    <activevideoangle>false</activevideoangle>
                    <activeaudioangle>false</activeaudioangle>
                    <clip id="clip-7"/>
                  </angle>
                  <masterclipid>clip-master</masterclipid>
                </multiclip>
              </clipitem>
              <clipitem id="cs-349">
                <duration>87</duration>
                <rate>
                  <ntsc>false</ntsc>
                  <timebase>25</timebase>
                </rate>
                <in>40859</in>
                <out>40945</out>
                <start>40859</start>
                <end>40945</end>
                <file id="src-2"/>
                <sourcetrack>
                  <mediatype>video</mediatype>
                  <trackindex>1</trackindex>
                </sourcetrack>
                <multiclip id="mcs-349">
                  <name>MCS-349</name>
                  <masterclipid>clip-master</masterclipid>
                  <collapsed>false</collapsed>
                  <angle>
                    <activevideoangle>false</activevideoangle>
                    <activeaudioangle>false</activeaudioangle>
                    <clip id="clip-1"/>
                  </angle>
                  <angle>
                    <activevideoangle>true</activevideoangle>
                    <activeaudioangle>true</activeaudioangle>
                    <clip id="clip-2"/>
                  </angle>
                  <angle>
                    <activevideoangle>false</activevideoangle>
                    <activeaudioangle>false</activeaudioangle>
                    <clip id="clip-3"/>
                  </angle>
                  <angle>
                    <activevideoangle>false</activevideoangle>
                    <activeaudioangle>false</activeaudioangle>
                    <clip id="clip-4"/>
                  </angle>
                  <angle>
                    <activevideoangle>false</activevideoangle>
                    <activeaudioangle>false</activeaudioangle>
                    <clip id="clip-5"/>
                  </angle>
                  <angle>
                    <activevideoangle>false</activevideoangle>
                    <activeaudioangle>false</activeaudioangle>
                    <clip id="clip-6"/>
                  </angle>
                  <angle>
                    <activevideoangle>false</activevideoangle>
                    <activeaudioangle>false</activeaudioangle>
                    <clip id="clip-7"/>
                  </angle>
                  <masterclipid>clip-master</masterclipid>
                </multiclip>
              </clipitem>
              <clipitem id="cs-350">
                <duration>177</duration>
                <rate>
                  <ntsc>false</ntsc>
                  <timebase>25</timebase>
                </rate>
                <in>40945</in>
                <out>41121</out>
                <start>40945</start>
                <end>41121</end>
                <file id="src-3"/>
                <sourcetrack>
                  <mediatype>video</mediatype>
                  <trackindex>1</trackindex>
                </sourcetrack>
                <multiclip id="mcs-350">
                  <name>MCS-350</name>
                  <masterclipid>clip-master</masterclipid>
                  <collapsed>false</collapsed>
                  <angle>
                    <activevideoangle>false</activevideoangle>
                    <activeaudioangle>false</activeaudioangle>
                    <clip id="clip-1"/>
                  </angle>
                  <angle>
                    <activevideoangle>false</activevideoangle>
                    <activeaudioangle>false</activeaudioangle>
                    <clip id="clip-2"/>
                  </angle>
                  <angle>
                    <activevideoangle>true</activevideoangle>
                    <activeaudioangle>true</activeaudioangle>
                    <clip id="clip-3"/>
                  </angle>
                  <angle>
                    <activevideoangle>false</activevideoangle>
                    <activeaudioangle>false</activeaudioangle>
                    <clip id="clip-4"/>
                  </angle>
                  <angle>
                    <activevideoangle>false</activevideoangle>
                    <activeaudioangle>false</activeaudioangle>
                    <clip id="clip-5"/>
                  </angle>
                  <angle>
                    <activevideoangle>false</activevideoangle>
                    <activeaudioangle>false</activeaudioangle>
                    <clip id="clip-6"/>
                  </angle>
                  <angle>
                    <activevideoangle>false</activevideoangle>
                    <activeaudioangle>false</activeaudioangle>
                    <clip id="clip-7"/>
                  </angle>
                  <masterclipid>clip-master</masterclipid>
                </multiclip>
              </clipitem>
              <clipitem id="cs-351">
                <duration>102</duration>
                <rate>
                  <ntsc>false</ntsc>
                  <timebase>25</timebase>
                </rate>
                <in>41121</in>
                <out>41222</out>
                <start>41121</start>
                <end>41222</end>
                <file id="src-2"/>
                <sourcetrack>
                  <mediatype>video</mediatype>
                  <trackindex>1</trackindex>
                </sourcetrack>
                <multiclip id="mcs-351">
                  <name>MCS-351</name>
                  <masterclipid>clip-master</masterclipid>
                  <collapsed>false</collapsed>
                  <angle>
                    <activevideoangle>false</activevideoangle>
                    <activeaudioangle>false</activeaudioangle>
                    <clip id="clip-1"/>
                  </angle>
                  <angle>
                    <activevideoangle>true</activevideoangle>
                    <activeaudioangle>true</activeaudioangle>
                    <clip id="clip-2"/>
                  </angle>
                  <angle>
                    <activevideoangle>false</activevideoangle>
                    <activeaudioangle>false</activeaudioangle>
                    <clip id="clip-3"/>
                  </angle>
                  <angle>
                    <activevideoangle>false</activevideoangle>
                    <activeaudioangle>false</activeaudioangle>
                    <clip id="clip-4"/>
                  </angle>
                  <angle>
                    <activevideoangle>false</activevideoangle>
                    <activeaudioangle>false</activeaudioangle>
                    <clip id="clip-5"/>
                  </angle>
                  <angle>
                    <activevideoangle>false</activevideoangle>
                    <activeaudioangle>false</activeaudioangle>
                    <clip id="clip-6"/>
                  </angle>
                  <angle>
                    <activevideoangle>false</activevideoangle>
                    <activeaudioangle>false</activeaudioangle>
                    <clip id="clip-7"/>
                  </angle>
                  <masterclipid>clip-master</masterclipid>
                </multiclip>
              </clipitem>
              <clipitem id="cs-352">
                <duration>63</duration>
                <rate>
                  <ntsc>false</ntsc>
                  <timebase>25</timebase>
                </rate>
                <in>41222</in>
                <out>41284</out>
                <start>41222</start>
                <end>41284</end>
                <file id="src-6"/>
                <sourcetrack>
                  <mediatype>video</mediatype>
                  <trackindex>1</trackindex>
                </sourcetrack>
                <multiclip id="mcs-352">
                  <name>MCS-352</name>
                  <masterclipid>clip-master</masterclipid>
                  <collapsed>false</collapsed>
                  <angle>
                    <activevideoangle>false</activevideoangle>
                    <activeaudioangle>false</activeaudioangle>
                    <clip id="clip-1"/>
                  </angle>
                  <angle>
                    <activevideoangle>false</activevideoangle>
                    <activeaudioangle>false</activeaudioangle>
                    <clip id="clip-2"/>
                  </angle>
                  <angle>
                    <activevideoangle>false</activevideoangle>
                    <activeaudioangle>false</activeaudioangle>
                    <clip id="clip-3"/>
                  </angle>
                  <angle>
                    <activevideoangle>false</activevideoangle>
                    <activeaudioangle>false</activeaudioangle>
                    <clip id="clip-4"/>
                  </angle>
                  <angle>
                    <activevideoangle>false</activevideoangle>
                    <activeaudioangle>false</activeaudioangle>
                    <clip id="clip-5"/>
                  </angle>
                  <angle>
                    <activevideoangle>true</activevideoangle>
                    <activeaudioangle>true</activeaudioangle>
                    <clip id="clip-6"/>
                  </angle>
                  <angle>
                    <activevideoangle>false</activevideoangle>
                    <activeaudioangle>false</activeaudioangle>
                    <clip id="clip-7"/>
                  </angle>
                  <masterclipid>clip-master</masterclipid>
                </multiclip>
              </clipitem>
              <clipitem id="cs-353">
                <duration>99</duration>
                <rate>
                  <ntsc>false</ntsc>
                  <timebase>25</timebase>
                </rate>
                <in>41284</in>
                <out>41382</out>
                <start>41284</start>
                <end>41382</end>
                <file id="src-3"/>
                <sourcetrack>
                  <mediatype>video</mediatype>
                  <trackindex>1</trackindex>
                </sourcetrack>
                <multiclip id="mcs-353">
                  <name>MCS-353</name>
                  <masterclipid>clip-master</masterclipid>
                  <collapsed>false</collapsed>
                  <angle>
                    <activevideoangle>false</activevideoangle>
                    <activeaudioangle>false</activeaudioangle>
                    <clip id="clip-1"/>
                  </angle>
                  <angle>
                    <activevideoangle>false</activevideoangle>
                    <activeaudioangle>false</activeaudioangle>
                    <clip id="clip-2"/>
                  </angle>
                  <angle>
                    <activevideoangle>true</activevideoangle>
                    <activeaudioangle>true</activeaudioangle>
                    <clip id="clip-3"/>
                  </angle>
                  <angle>
                    <activevideoangle>false</activevideoangle>
                    <activeaudioangle>false</activeaudioangle>
                    <clip id="clip-4"/>
                  </angle>
                  <angle>
                    <activevideoangle>false</activevideoangle>
                    <activeaudioangle>false</activeaudioangle>
                    <clip id="clip-5"/>
                  </angle>
                  <angle>
                    <activevideoangle>false</activevideoangle>
                    <activeaudioangle>false</activeaudioangle>
                    <clip id="clip-6"/>
                  </angle>
                  <angle>
                    <activevideoangle>false</activevideoangle>
                    <activeaudioangle>false</activeaudioangle>
                    <clip id="clip-7"/>
                  </angle>
                  <masterclipid>clip-master</masterclipid>
                </multiclip>
              </clipitem>
              <clipitem id="cs-354">
                <duration>154</duration>
                <rate>
                  <ntsc>false</ntsc>
                  <timebase>25</timebase>
                </rate>
                <in>41382</in>
                <out>41535</out>
                <start>41382</start>
                <end>41535</end>
                <file id="src-2"/>
                <sourcetrack>
                  <mediatype>video</mediatype>
                  <trackindex>1</trackindex>
                </sourcetrack>
                <multiclip id="mcs-354">
                  <name>MCS-354</name>
                  <masterclipid>clip-master</masterclipid>
                  <collapsed>false</collapsed>
                  <angle>
                    <activevideoangle>false</activevideoangle>
                    <activeaudioangle>false</activeaudioangle>
                    <clip id="clip-1"/>
                  </angle>
                  <angle>
                    <activevideoangle>true</activevideoangle>
                    <activeaudioangle>true</activeaudioangle>
                    <clip id="clip-2"/>
                  </angle>
                  <angle>
                    <activevideoangle>false</activevideoangle>
                    <activeaudioangle>false</activeaudioangle>
                    <clip id="clip-3"/>
                  </angle>
                  <angle>
                    <activevideoangle>false</activevideoangle>
                    <activeaudioangle>false</activeaudioangle>
                    <clip id="clip-4"/>
                  </angle>
                  <angle>
                    <activevideoangle>false</activevideoangle>
                    <activeaudioangle>false</activeaudioangle>
                    <clip id="clip-5"/>
                  </angle>
                  <angle>
                    <activevideoangle>false</activevideoangle>
                    <activeaudioangle>false</activeaudioangle>
                    <clip id="clip-6"/>
                  </angle>
                  <angle>
                    <activevideoangle>false</activevideoangle>
                    <activeaudioangle>false</activeaudioangle>
                    <clip id="clip-7"/>
                  </angle>
                  <masterclipid>clip-master</masterclipid>
                </multiclip>
              </clipitem>
              <clipitem id="cs-355">
                <duration>116</duration>
                <rate>
                  <ntsc>false</ntsc>
                  <timebase>25</timebase>
                </rate>
                <in>41535</in>
                <out>41650</out>
                <start>41535</start>
                <end>41650</end>
                <file id="src-3"/>
                <sourcetrack>
                  <mediatype>video</mediatype>
                  <trackindex>1</trackindex>
                </sourcetrack>
                <multiclip id="mcs-355">
                  <name>MCS-355</name>
                  <masterclipid>clip-master</masterclipid>
                  <collapsed>false</collapsed>
                  <angle>
                    <activevideoangle>false</activevideoangle>
                    <activeaudioangle>false</activeaudioangle>
                    <clip id="clip-1"/>
                  </angle>
                  <angle>
                    <activevideoangle>false</activevideoangle>
                    <activeaudioangle>false</activeaudioangle>
                    <clip id="clip-2"/>
                  </angle>
                  <angle>
                    <activevideoangle>true</activevideoangle>
                    <activeaudioangle>true</activeaudioangle>
                    <clip id="clip-3"/>
                  </angle>
                  <angle>
                    <activevideoangle>false</activevideoangle>
                    <activeaudioangle>false</activeaudioangle>
                    <clip id="clip-4"/>
                  </angle>
                  <angle>
                    <activevideoangle>false</activevideoangle>
                    <activeaudioangle>false</activeaudioangle>
                    <clip id="clip-5"/>
                  </angle>
                  <angle>
                    <activevideoangle>false</activevideoangle>
                    <activeaudioangle>false</activeaudioangle>
                    <clip id="clip-6"/>
                  </angle>
                  <angle>
                    <activevideoangle>false</activevideoangle>
                    <activeaudioangle>false</activeaudioangle>
                    <clip id="clip-7"/>
                  </angle>
                  <masterclipid>clip-master</masterclipid>
                </multiclip>
              </clipitem>
              <clipitem id="cs-356">
                <duration>117</duration>
                <rate>
                  <ntsc>false</ntsc>
                  <timebase>25</timebase>
                </rate>
                <in>41650</in>
                <out>41766</out>
                <start>41650</start>
                <end>41766</end>
                <file id="src-2"/>
                <sourcetrack>
                  <mediatype>video</mediatype>
                  <trackindex>1</trackindex>
                </sourcetrack>
                <multiclip id="mcs-356">
                  <name>MCS-356</name>
                  <masterclipid>clip-master</masterclipid>
                  <collapsed>false</collapsed>
                  <angle>
                    <activevideoangle>false</activevideoangle>
                    <activeaudioangle>false</activeaudioangle>
                    <clip id="clip-1"/>
                  </angle>
                  <angle>
                    <activevideoangle>true</activevideoangle>
                    <activeaudioangle>true</activeaudioangle>
                    <clip id="clip-2"/>
                  </angle>
                  <angle>
                    <activevideoangle>false</activevideoangle>
                    <activeaudioangle>false</activeaudioangle>
                    <clip id="clip-3"/>
                  </angle>
                  <angle>
                    <activevideoangle>false</activevideoangle>
                    <activeaudioangle>false</activeaudioangle>
                    <clip id="clip-4"/>
                  </angle>
                  <angle>
                    <activevideoangle>false</activevideoangle>
                    <activeaudioangle>false</activeaudioangle>
                    <clip id="clip-5"/>
                  </angle>
                  <angle>
                    <activevideoangle>false</activevideoangle>
                    <activeaudioangle>false</activeaudioangle>
                    <clip id="clip-6"/>
                  </angle>
                  <angle>
                    <activevideoangle>false</activevideoangle>
                    <activeaudioangle>false</activeaudioangle>
                    <clip id="clip-7"/>
                  </angle>
                  <masterclipid>clip-master</masterclipid>
                </multiclip>
              </clipitem>
              <clipitem id="cs-357">
                <duration>62</duration>
                <rate>
                  <ntsc>false</ntsc>
                  <timebase>25</timebase>
                </rate>
                <in>41766</in>
                <out>41827</out>
                <start>41766</start>
                <end>41827</end>
                <file id="src-4"/>
                <sourcetrack>
                  <mediatype>video</mediatype>
                  <trackindex>1</trackindex>
                </sourcetrack>
                <multiclip id="mcs-357">
                  <name>MCS-357</name>
                  <masterclipid>clip-master</masterclipid>
                  <collapsed>false</collapsed>
                  <angle>
                    <activevideoangle>false</activevideoangle>
                    <activeaudioangle>false</activeaudioangle>
                    <clip id="clip-1"/>
                  </angle>
                  <angle>
                    <activevideoangle>false</activevideoangle>
                    <activeaudioangle>false</activeaudioangle>
                    <clip id="clip-2"/>
                  </angle>
                  <angle>
                    <activevideoangle>false</activevideoangle>
                    <activeaudioangle>false</activeaudioangle>
                    <clip id="clip-3"/>
                  </angle>
                  <angle>
                    <activevideoangle>true</activevideoangle>
                    <activeaudioangle>true</activeaudioangle>
                    <clip id="clip-4"/>
                  </angle>
                  <angle>
                    <activevideoangle>false</activevideoangle>
                    <activeaudioangle>false</activeaudioangle>
                    <clip id="clip-5"/>
                  </angle>
                  <angle>
                    <activevideoangle>false</activevideoangle>
                    <activeaudioangle>false</activeaudioangle>
                    <clip id="clip-6"/>
                  </angle>
                  <angle>
                    <activevideoangle>false</activevideoangle>
                    <activeaudioangle>false</activeaudioangle>
                    <clip id="clip-7"/>
                  </angle>
                  <masterclipid>clip-master</masterclipid>
                </multiclip>
              </clipitem>
              <clipitem id="cs-358">
                <duration>529</duration>
                <rate>
                  <ntsc>false</ntsc>
                  <timebase>25</timebase>
                </rate>
                <in>41827</in>
                <out>42355</out>
                <start>41827</start>
                <end>42355</end>
                <file id="src-3"/>
                <sourcetrack>
                  <mediatype>video</mediatype>
                  <trackindex>1</trackindex>
                </sourcetrack>
                <multiclip id="mcs-358">
                  <name>MCS-358</name>
                  <masterclipid>clip-master</masterclipid>
                  <collapsed>false</collapsed>
                  <angle>
                    <activevideoangle>false</activevideoangle>
                    <activeaudioangle>false</activeaudioangle>
                    <clip id="clip-1"/>
                  </angle>
                  <angle>
                    <activevideoangle>false</activevideoangle>
                    <activeaudioangle>false</activeaudioangle>
                    <clip id="clip-2"/>
                  </angle>
                  <angle>
                    <activevideoangle>true</activevideoangle>
                    <activeaudioangle>true</activeaudioangle>
                    <clip id="clip-3"/>
                  </angle>
                  <angle>
                    <activevideoangle>false</activevideoangle>
                    <activeaudioangle>false</activeaudioangle>
                    <clip id="clip-4"/>
                  </angle>
                  <angle>
                    <activevideoangle>false</activevideoangle>
                    <activeaudioangle>false</activeaudioangle>
                    <clip id="clip-5"/>
                  </angle>
                  <angle>
                    <activevideoangle>false</activevideoangle>
                    <activeaudioangle>false</activeaudioangle>
                    <clip id="clip-6"/>
                  </angle>
                  <angle>
                    <activevideoangle>false</activevideoangle>
                    <activeaudioangle>false</activeaudioangle>
                    <clip id="clip-7"/>
                  </angle>
                  <masterclipid>clip-master</masterclipid>
                </multiclip>
              </clipitem>
              <clipitem id="cs-359">
                <duration>56</duration>
                <rate>
                  <ntsc>false</ntsc>
                  <timebase>25</timebase>
                </rate>
                <in>42355</in>
                <out>42410</out>
                <start>42355</start>
                <end>42410</end>
                <file id="src-6"/>
                <sourcetrack>
                  <mediatype>video</mediatype>
                  <trackindex>1</trackindex>
                </sourcetrack>
                <multiclip id="mcs-359">
                  <name>MCS-359</name>
                  <masterclipid>clip-master</masterclipid>
                  <collapsed>false</collapsed>
                  <angle>
                    <activevideoangle>false</activevideoangle>
                    <activeaudioangle>false</activeaudioangle>
                    <clip id="clip-1"/>
                  </angle>
                  <angle>
                    <activevideoangle>false</activevideoangle>
                    <activeaudioangle>false</activeaudioangle>
                    <clip id="clip-2"/>
                  </angle>
                  <angle>
                    <activevideoangle>false</activevideoangle>
                    <activeaudioangle>false</activeaudioangle>
                    <clip id="clip-3"/>
                  </angle>
                  <angle>
                    <activevideoangle>false</activevideoangle>
                    <activeaudioangle>false</activeaudioangle>
                    <clip id="clip-4"/>
                  </angle>
                  <angle>
                    <activevideoangle>false</activevideoangle>
                    <activeaudioangle>false</activeaudioangle>
                    <clip id="clip-5"/>
                  </angle>
                  <angle>
                    <activevideoangle>true</activevideoangle>
                    <activeaudioangle>true</activeaudioangle>
                    <clip id="clip-6"/>
                  </angle>
                  <angle>
                    <activevideoangle>false</activevideoangle>
                    <activeaudioangle>false</activeaudioangle>
                    <clip id="clip-7"/>
                  </angle>
                  <masterclipid>clip-master</masterclipid>
                </multiclip>
              </clipitem>
              <clipitem id="cs-360">
                <duration>63</duration>
                <rate>
                  <ntsc>false</ntsc>
                  <timebase>25</timebase>
                </rate>
                <in>42410</in>
                <out>42472</out>
                <start>42410</start>
                <end>42472</end>
                <file id="src-2"/>
                <sourcetrack>
                  <mediatype>video</mediatype>
                  <trackindex>1</trackindex>
                </sourcetrack>
                <multiclip id="mcs-360">
                  <name>MCS-360</name>
                  <masterclipid>clip-master</masterclipid>
                  <collapsed>false</collapsed>
                  <angle>
                    <activevideoangle>false</activevideoangle>
                    <activeaudioangle>false</activeaudioangle>
                    <clip id="clip-1"/>
                  </angle>
                  <angle>
                    <activevideoangle>true</activevideoangle>
                    <activeaudioangle>true</activeaudioangle>
                    <clip id="clip-2"/>
                  </angle>
                  <angle>
                    <activevideoangle>false</activevideoangle>
                    <activeaudioangle>false</activeaudioangle>
                    <clip id="clip-3"/>
                  </angle>
                  <angle>
                    <activevideoangle>false</activevideoangle>
                    <activeaudioangle>false</activeaudioangle>
                    <clip id="clip-4"/>
                  </angle>
                  <angle>
                    <activevideoangle>false</activevideoangle>
                    <activeaudioangle>false</activeaudioangle>
                    <clip id="clip-5"/>
                  </angle>
                  <angle>
                    <activevideoangle>false</activevideoangle>
                    <activeaudioangle>false</activeaudioangle>
                    <clip id="clip-6"/>
                  </angle>
                  <angle>
                    <activevideoangle>false</activevideoangle>
                    <activeaudioangle>false</activeaudioangle>
                    <clip id="clip-7"/>
                  </angle>
                  <masterclipid>clip-master</masterclipid>
                </multiclip>
              </clipitem>
              <clipitem id="cs-361">
                <duration>87</duration>
                <rate>
                  <ntsc>false</ntsc>
                  <timebase>25</timebase>
                </rate>
                <in>42472</in>
                <out>42558</out>
                <start>42472</start>
                <end>42558</end>
                <file id="src-4"/>
                <sourcetrack>
                  <mediatype>video</mediatype>
                  <trackindex>1</trackindex>
                </sourcetrack>
                <multiclip id="mcs-361">
                  <name>MCS-361</name>
                  <masterclipid>clip-master</masterclipid>
                  <collapsed>false</collapsed>
                  <angle>
                    <activevideoangle>false</activevideoangle>
                    <activeaudioangle>false</activeaudioangle>
                    <clip id="clip-1"/>
                  </angle>
                  <angle>
                    <activevideoangle>false</activevideoangle>
                    <activeaudioangle>false</activeaudioangle>
                    <clip id="clip-2"/>
                  </angle>
                  <angle>
                    <activevideoangle>false</activevideoangle>
                    <activeaudioangle>false</activeaudioangle>
                    <clip id="clip-3"/>
                  </angle>
                  <angle>
                    <activevideoangle>true</activevideoangle>
                    <activeaudioangle>true</activeaudioangle>
                    <clip id="clip-4"/>
                  </angle>
                  <angle>
                    <activevideoangle>false</activevideoangle>
                    <activeaudioangle>false</activeaudioangle>
                    <clip id="clip-5"/>
                  </angle>
                  <angle>
                    <activevideoangle>false</activevideoangle>
                    <activeaudioangle>false</activeaudioangle>
                    <clip id="clip-6"/>
                  </angle>
                  <angle>
                    <activevideoangle>false</activevideoangle>
                    <activeaudioangle>false</activeaudioangle>
                    <clip id="clip-7"/>
                  </angle>
                  <masterclipid>clip-master</masterclipid>
                </multiclip>
              </clipitem>
              <clipitem id="cs-362">
                <duration>204</duration>
                <rate>
                  <ntsc>false</ntsc>
                  <timebase>25</timebase>
                </rate>
                <in>42558</in>
                <out>42761</out>
                <start>42558</start>
                <end>42761</end>
                <file id="src-3"/>
                <sourcetrack>
                  <mediatype>video</mediatype>
                  <trackindex>1</trackindex>
                </sourcetrack>
                <multiclip id="mcs-362">
                  <name>MCS-362</name>
                  <masterclipid>clip-master</masterclipid>
                  <collapsed>false</collapsed>
                  <angle>
                    <activevideoangle>false</activevideoangle>
                    <activeaudioangle>false</activeaudioangle>
                    <clip id="clip-1"/>
                  </angle>
                  <angle>
                    <activevideoangle>false</activevideoangle>
                    <activeaudioangle>false</activeaudioangle>
                    <clip id="clip-2"/>
                  </angle>
                  <angle>
                    <activevideoangle>true</activevideoangle>
                    <activeaudioangle>true</activeaudioangle>
                    <clip id="clip-3"/>
                  </angle>
                  <angle>
                    <activevideoangle>false</activevideoangle>
                    <activeaudioangle>false</activeaudioangle>
                    <clip id="clip-4"/>
                  </angle>
                  <angle>
                    <activevideoangle>false</activevideoangle>
                    <activeaudioangle>false</activeaudioangle>
                    <clip id="clip-5"/>
                  </angle>
                  <angle>
                    <activevideoangle>false</activevideoangle>
                    <activeaudioangle>false</activeaudioangle>
                    <clip id="clip-6"/>
                  </angle>
                  <angle>
                    <activevideoangle>false</activevideoangle>
                    <activeaudioangle>false</activeaudioangle>
                    <clip id="clip-7"/>
                  </angle>
                  <masterclipid>clip-master</masterclipid>
                </multiclip>
              </clipitem>
              <clipitem id="cs-363">
                <duration>87</duration>
                <rate>
                  <ntsc>false</ntsc>
                  <timebase>25</timebase>
                </rate>
                <in>42761</in>
                <out>42847</out>
                <start>42761</start>
                <end>42847</end>
                <file id="src-1"/>
                <sourcetrack>
                  <mediatype>video</mediatype>
                  <trackindex>1</trackindex>
                </sourcetrack>
                <multiclip id="mcs-363">
                  <name>MCS-363</name>
                  <masterclipid>clip-master</masterclipid>
                  <collapsed>false</collapsed>
                  <angle>
                    <activevideoangle>true</activevideoangle>
                    <activeaudioangle>true</activeaudioangle>
                    <clip id="clip-1"/>
                  </angle>
                  <angle>
                    <activevideoangle>false</activevideoangle>
                    <activeaudioangle>false</activeaudioangle>
                    <clip id="clip-2"/>
                  </angle>
                  <angle>
                    <activevideoangle>false</activevideoangle>
                    <activeaudioangle>false</activeaudioangle>
                    <clip id="clip-3"/>
                  </angle>
                  <angle>
                    <activevideoangle>false</activevideoangle>
                    <activeaudioangle>false</activeaudioangle>
                    <clip id="clip-4"/>
                  </angle>
                  <angle>
                    <activevideoangle>false</activevideoangle>
                    <activeaudioangle>false</activeaudioangle>
                    <clip id="clip-5"/>
                  </angle>
                  <angle>
                    <activevideoangle>false</activevideoangle>
                    <activeaudioangle>false</activeaudioangle>
                    <clip id="clip-6"/>
                  </angle>
                  <angle>
                    <activevideoangle>false</activevideoangle>
                    <activeaudioangle>false</activeaudioangle>
                    <clip id="clip-7"/>
                  </angle>
                  <masterclipid>clip-master</masterclipid>
                </multiclip>
              </clipitem>
              <clipitem id="cs-364">
                <duration>145</duration>
                <rate>
                  <ntsc>false</ntsc>
                  <timebase>25</timebase>
                </rate>
                <in>42847</in>
                <out>42991</out>
                <start>42847</start>
                <end>42991</end>
                <file id="src-3"/>
                <sourcetrack>
                  <mediatype>video</mediatype>
                  <trackindex>1</trackindex>
                </sourcetrack>
                <multiclip id="mcs-364">
                  <name>MCS-364</name>
                  <masterclipid>clip-master</masterclipid>
                  <collapsed>false</collapsed>
                  <angle>
                    <activevideoangle>false</activevideoangle>
                    <activeaudioangle>false</activeaudioangle>
                    <clip id="clip-1"/>
                  </angle>
                  <angle>
                    <activevideoangle>false</activevideoangle>
                    <activeaudioangle>false</activeaudioangle>
                    <clip id="clip-2"/>
                  </angle>
                  <angle>
                    <activevideoangle>true</activevideoangle>
                    <activeaudioangle>true</activeaudioangle>
                    <clip id="clip-3"/>
                  </angle>
                  <angle>
                    <activevideoangle>false</activevideoangle>
                    <activeaudioangle>false</activeaudioangle>
                    <clip id="clip-4"/>
                  </angle>
                  <angle>
                    <activevideoangle>false</activevideoangle>
                    <activeaudioangle>false</activeaudioangle>
                    <clip id="clip-5"/>
                  </angle>
                  <angle>
                    <activevideoangle>false</activevideoangle>
                    <activeaudioangle>false</activeaudioangle>
                    <clip id="clip-6"/>
                  </angle>
                  <angle>
                    <activevideoangle>false</activevideoangle>
                    <activeaudioangle>false</activeaudioangle>
                    <clip id="clip-7"/>
                  </angle>
                  <masterclipid>clip-master</masterclipid>
                </multiclip>
              </clipitem>
              <clipitem id="cs-365">
                <duration>123</duration>
                <rate>
                  <ntsc>false</ntsc>
                  <timebase>25</timebase>
                </rate>
                <in>42991</in>
                <out>43113</out>
                <start>42991</start>
                <end>43113</end>
                <file id="src-2"/>
                <sourcetrack>
                  <mediatype>video</mediatype>
                  <trackindex>1</trackindex>
                </sourcetrack>
                <multiclip id="mcs-365">
                  <name>MCS-365</name>
                  <masterclipid>clip-master</masterclipid>
                  <collapsed>false</collapsed>
                  <angle>
                    <activevideoangle>false</activevideoangle>
                    <activeaudioangle>false</activeaudioangle>
                    <clip id="clip-1"/>
                  </angle>
                  <angle>
                    <activevideoangle>true</activevideoangle>
                    <activeaudioangle>true</activeaudioangle>
                    <clip id="clip-2"/>
                  </angle>
                  <angle>
                    <activevideoangle>false</activevideoangle>
                    <activeaudioangle>false</activeaudioangle>
                    <clip id="clip-3"/>
                  </angle>
                  <angle>
                    <activevideoangle>false</activevideoangle>
                    <activeaudioangle>false</activeaudioangle>
                    <clip id="clip-4"/>
                  </angle>
                  <angle>
                    <activevideoangle>false</activevideoangle>
                    <activeaudioangle>false</activeaudioangle>
                    <clip id="clip-5"/>
                  </angle>
                  <angle>
                    <activevideoangle>false</activevideoangle>
                    <activeaudioangle>false</activeaudioangle>
                    <clip id="clip-6"/>
                  </angle>
                  <angle>
                    <activevideoangle>false</activevideoangle>
                    <activeaudioangle>false</activeaudioangle>
                    <clip id="clip-7"/>
                  </angle>
                  <masterclipid>clip-master</masterclipid>
                </multiclip>
              </clipitem>
              <clipitem id="cs-366">
                <duration>264</duration>
                <rate>
                  <ntsc>false</ntsc>
                  <timebase>25</timebase>
                </rate>
                <in>43113</in>
                <out>43376</out>
                <start>43113</start>
                <end>43376</end>
                <file id="src-3"/>
                <sourcetrack>
                  <mediatype>video</mediatype>
                  <trackindex>1</trackindex>
                </sourcetrack>
                <multiclip id="mcs-366">
                  <name>MCS-366</name>
                  <masterclipid>clip-master</masterclipid>
                  <collapsed>false</collapsed>
                  <angle>
                    <activevideoangle>false</activevideoangle>
                    <activeaudioangle>false</activeaudioangle>
                    <clip id="clip-1"/>
                  </angle>
                  <angle>
                    <activevideoangle>false</activevideoangle>
                    <activeaudioangle>false</activeaudioangle>
                    <clip id="clip-2"/>
                  </angle>
                  <angle>
                    <activevideoangle>true</activevideoangle>
                    <activeaudioangle>true</activeaudioangle>
                    <clip id="clip-3"/>
                  </angle>
                  <angle>
                    <activevideoangle>false</activevideoangle>
                    <activeaudioangle>false</activeaudioangle>
                    <clip id="clip-4"/>
                  </angle>
                  <angle>
                    <activevideoangle>false</activevideoangle>
                    <activeaudioangle>false</activeaudioangle>
                    <clip id="clip-5"/>
                  </angle>
                  <angle>
                    <activevideoangle>false</activevideoangle>
                    <activeaudioangle>false</activeaudioangle>
                    <clip id="clip-6"/>
                  </angle>
                  <angle>
                    <activevideoangle>false</activevideoangle>
                    <activeaudioangle>false</activeaudioangle>
                    <clip id="clip-7"/>
                  </angle>
                  <masterclipid>clip-master</masterclipid>
                </multiclip>
              </clipitem>
              <clipitem id="cs-367">
                <duration>61</duration>
                <rate>
                  <ntsc>false</ntsc>
                  <timebase>25</timebase>
                </rate>
                <in>43376</in>
                <out>43436</out>
                <start>43376</start>
                <end>43436</end>
                <file id="src-6"/>
                <sourcetrack>
                  <mediatype>video</mediatype>
                  <trackindex>1</trackindex>
                </sourcetrack>
                <multiclip id="mcs-367">
                  <name>MCS-367</name>
                  <masterclipid>clip-master</masterclipid>
                  <collapsed>false</collapsed>
                  <angle>
                    <activevideoangle>false</activevideoangle>
                    <activeaudioangle>false</activeaudioangle>
                    <clip id="clip-1"/>
                  </angle>
                  <angle>
                    <activevideoangle>false</activevideoangle>
                    <activeaudioangle>false</activeaudioangle>
                    <clip id="clip-2"/>
                  </angle>
                  <angle>
                    <activevideoangle>false</activevideoangle>
                    <activeaudioangle>false</activeaudioangle>
                    <clip id="clip-3"/>
                  </angle>
                  <angle>
                    <activevideoangle>false</activevideoangle>
                    <activeaudioangle>false</activeaudioangle>
                    <clip id="clip-4"/>
                  </angle>
                  <angle>
                    <activevideoangle>false</activevideoangle>
                    <activeaudioangle>false</activeaudioangle>
                    <clip id="clip-5"/>
                  </angle>
                  <angle>
                    <activevideoangle>true</activevideoangle>
                    <activeaudioangle>true</activeaudioangle>
                    <clip id="clip-6"/>
                  </angle>
                  <angle>
                    <activevideoangle>false</activevideoangle>
                    <activeaudioangle>false</activeaudioangle>
                    <clip id="clip-7"/>
                  </angle>
                  <masterclipid>clip-master</masterclipid>
                </multiclip>
              </clipitem>
              <clipitem id="cs-368">
                <duration>115</duration>
                <rate>
                  <ntsc>false</ntsc>
                  <timebase>25</timebase>
                </rate>
                <in>43436</in>
                <out>43550</out>
                <start>43436</start>
                <end>43550</end>
                <file id="src-2"/>
                <sourcetrack>
                  <mediatype>video</mediatype>
                  <trackindex>1</trackindex>
                </sourcetrack>
                <multiclip id="mcs-368">
                  <name>MCS-368</name>
                  <masterclipid>clip-master</masterclipid>
                  <collapsed>false</collapsed>
                  <angle>
                    <activevideoangle>false</activevideoangle>
                    <activeaudioangle>false</activeaudioangle>
                    <clip id="clip-1"/>
                  </angle>
                  <angle>
                    <activevideoangle>true</activevideoangle>
                    <activeaudioangle>true</activeaudioangle>
                    <clip id="clip-2"/>
                  </angle>
                  <angle>
                    <activevideoangle>false</activevideoangle>
                    <activeaudioangle>false</activeaudioangle>
                    <clip id="clip-3"/>
                  </angle>
                  <angle>
                    <activevideoangle>false</activevideoangle>
                    <activeaudioangle>false</activeaudioangle>
                    <clip id="clip-4"/>
                  </angle>
                  <angle>
                    <activevideoangle>false</activevideoangle>
                    <activeaudioangle>false</activeaudioangle>
                    <clip id="clip-5"/>
                  </angle>
                  <angle>
                    <activevideoangle>false</activevideoangle>
                    <activeaudioangle>false</activeaudioangle>
                    <clip id="clip-6"/>
                  </angle>
                  <angle>
                    <activevideoangle>false</activevideoangle>
                    <activeaudioangle>false</activeaudioangle>
                    <clip id="clip-7"/>
                  </angle>
                  <masterclipid>clip-master</masterclipid>
                </multiclip>
              </clipitem>
              <clipitem id="cs-369">
                <duration>75</duration>
                <rate>
                  <ntsc>false</ntsc>
                  <timebase>25</timebase>
                </rate>
                <in>43550</in>
                <out>43624</out>
                <start>43550</start>
                <end>43624</end>
                <file id="src-4"/>
                <sourcetrack>
                  <mediatype>video</mediatype>
                  <trackindex>1</trackindex>
                </sourcetrack>
                <multiclip id="mcs-369">
                  <name>MCS-369</name>
                  <masterclipid>clip-master</masterclipid>
                  <collapsed>false</collapsed>
                  <angle>
                    <activevideoangle>false</activevideoangle>
                    <activeaudioangle>false</activeaudioangle>
                    <clip id="clip-1"/>
                  </angle>
                  <angle>
                    <activevideoangle>false</activevideoangle>
                    <activeaudioangle>false</activeaudioangle>
                    <clip id="clip-2"/>
                  </angle>
                  <angle>
                    <activevideoangle>false</activevideoangle>
                    <activeaudioangle>false</activeaudioangle>
                    <clip id="clip-3"/>
                  </angle>
                  <angle>
                    <activevideoangle>true</activevideoangle>
                    <activeaudioangle>true</activeaudioangle>
                    <clip id="clip-4"/>
                  </angle>
                  <angle>
                    <activevideoangle>false</activevideoangle>
                    <activeaudioangle>false</activeaudioangle>
                    <clip id="clip-5"/>
                  </angle>
                  <angle>
                    <activevideoangle>false</activevideoangle>
                    <activeaudioangle>false</activeaudioangle>
                    <clip id="clip-6"/>
                  </angle>
                  <angle>
                    <activevideoangle>false</activevideoangle>
                    <activeaudioangle>false</activeaudioangle>
                    <clip id="clip-7"/>
                  </angle>
                  <masterclipid>clip-master</masterclipid>
                </multiclip>
              </clipitem>
              <clipitem id="cs-370">
                <duration>159</duration>
                <rate>
                  <ntsc>false</ntsc>
                  <timebase>25</timebase>
                </rate>
                <in>43624</in>
                <out>43782</out>
                <start>43624</start>
                <end>43782</end>
                <file id="src-3"/>
                <sourcetrack>
                  <mediatype>video</mediatype>
                  <trackindex>1</trackindex>
                </sourcetrack>
                <multiclip id="mcs-370">
                  <name>MCS-370</name>
                  <masterclipid>clip-master</masterclipid>
                  <collapsed>false</collapsed>
                  <angle>
                    <activevideoangle>false</activevideoangle>
                    <activeaudioangle>false</activeaudioangle>
                    <clip id="clip-1"/>
                  </angle>
                  <angle>
                    <activevideoangle>false</activevideoangle>
                    <activeaudioangle>false</activeaudioangle>
                    <clip id="clip-2"/>
                  </angle>
                  <angle>
                    <activevideoangle>true</activevideoangle>
                    <activeaudioangle>true</activeaudioangle>
                    <clip id="clip-3"/>
                  </angle>
                  <angle>
                    <activevideoangle>false</activevideoangle>
                    <activeaudioangle>false</activeaudioangle>
                    <clip id="clip-4"/>
                  </angle>
                  <angle>
                    <activevideoangle>false</activevideoangle>
                    <activeaudioangle>false</activeaudioangle>
                    <clip id="clip-5"/>
                  </angle>
                  <angle>
                    <activevideoangle>false</activevideoangle>
                    <activeaudioangle>false</activeaudioangle>
                    <clip id="clip-6"/>
                  </angle>
                  <angle>
                    <activevideoangle>false</activevideoangle>
                    <activeaudioangle>false</activeaudioangle>
                    <clip id="clip-7"/>
                  </angle>
                  <masterclipid>clip-master</masterclipid>
                </multiclip>
              </clipitem>
              <clipitem id="cs-371">
                <duration>51</duration>
                <rate>
                  <ntsc>false</ntsc>
                  <timebase>25</timebase>
                </rate>
                <in>43782</in>
                <out>43832</out>
                <start>43782</start>
                <end>43832</end>
                <file id="src-6"/>
                <sourcetrack>
                  <mediatype>video</mediatype>
                  <trackindex>1</trackindex>
                </sourcetrack>
                <multiclip id="mcs-371">
                  <name>MCS-371</name>
                  <masterclipid>clip-master</masterclipid>
                  <collapsed>false</collapsed>
                  <angle>
                    <activevideoangle>false</activevideoangle>
                    <activeaudioangle>false</activeaudioangle>
                    <clip id="clip-1"/>
                  </angle>
                  <angle>
                    <activevideoangle>false</activevideoangle>
                    <activeaudioangle>false</activeaudioangle>
                    <clip id="clip-2"/>
                  </angle>
                  <angle>
                    <activevideoangle>false</activevideoangle>
                    <activeaudioangle>false</activeaudioangle>
                    <clip id="clip-3"/>
                  </angle>
                  <angle>
                    <activevideoangle>false</activevideoangle>
                    <activeaudioangle>false</activeaudioangle>
                    <clip id="clip-4"/>
                  </angle>
                  <angle>
                    <activevideoangle>false</activevideoangle>
                    <activeaudioangle>false</activeaudioangle>
                    <clip id="clip-5"/>
                  </angle>
                  <angle>
                    <activevideoangle>true</activevideoangle>
                    <activeaudioangle>true</activeaudioangle>
                    <clip id="clip-6"/>
                  </angle>
                  <angle>
                    <activevideoangle>false</activevideoangle>
                    <activeaudioangle>false</activeaudioangle>
                    <clip id="clip-7"/>
                  </angle>
                  <masterclipid>clip-master</masterclipid>
                </multiclip>
              </clipitem>
              <clipitem id="cs-372">
                <duration>68</duration>
                <rate>
                  <ntsc>false</ntsc>
                  <timebase>25</timebase>
                </rate>
                <in>43832</in>
                <out>43899</out>
                <start>43832</start>
                <end>43899</end>
                <file id="src-2"/>
                <sourcetrack>
                  <mediatype>video</mediatype>
                  <trackindex>1</trackindex>
                </sourcetrack>
                <multiclip id="mcs-372">
                  <name>MCS-372</name>
                  <masterclipid>clip-master</masterclipid>
                  <collapsed>false</collapsed>
                  <angle>
                    <activevideoangle>false</activevideoangle>
                    <activeaudioangle>false</activeaudioangle>
                    <clip id="clip-1"/>
                  </angle>
                  <angle>
                    <activevideoangle>true</activevideoangle>
                    <activeaudioangle>true</activeaudioangle>
                    <clip id="clip-2"/>
                  </angle>
                  <angle>
                    <activevideoangle>false</activevideoangle>
                    <activeaudioangle>false</activeaudioangle>
                    <clip id="clip-3"/>
                  </angle>
                  <angle>
                    <activevideoangle>false</activevideoangle>
                    <activeaudioangle>false</activeaudioangle>
                    <clip id="clip-4"/>
                  </angle>
                  <angle>
                    <activevideoangle>false</activevideoangle>
                    <activeaudioangle>false</activeaudioangle>
                    <clip id="clip-5"/>
                  </angle>
                  <angle>
                    <activevideoangle>false</activevideoangle>
                    <activeaudioangle>false</activeaudioangle>
                    <clip id="clip-6"/>
                  </angle>
                  <angle>
                    <activevideoangle>false</activevideoangle>
                    <activeaudioangle>false</activeaudioangle>
                    <clip id="clip-7"/>
                  </angle>
                  <masterclipid>clip-master</masterclipid>
                </multiclip>
              </clipitem>
              <clipitem id="cs-373">
                <duration>138</duration>
                <rate>
                  <ntsc>false</ntsc>
                  <timebase>25</timebase>
                </rate>
                <in>43899</in>
                <out>44036</out>
                <start>43899</start>
                <end>44036</end>
                <file id="src-3"/>
                <sourcetrack>
                  <mediatype>video</mediatype>
                  <trackindex>1</trackindex>
                </sourcetrack>
                <multiclip id="mcs-373">
                  <name>MCS-373</name>
                  <masterclipid>clip-master</masterclipid>
                  <collapsed>false</collapsed>
                  <angle>
                    <activevideoangle>false</activevideoangle>
                    <activeaudioangle>false</activeaudioangle>
                    <clip id="clip-1"/>
                  </angle>
                  <angle>
                    <activevideoangle>false</activevideoangle>
                    <activeaudioangle>false</activeaudioangle>
                    <clip id="clip-2"/>
                  </angle>
                  <angle>
                    <activevideoangle>true</activevideoangle>
                    <activeaudioangle>true</activeaudioangle>
                    <clip id="clip-3"/>
                  </angle>
                  <angle>
                    <activevideoangle>false</activevideoangle>
                    <activeaudioangle>false</activeaudioangle>
                    <clip id="clip-4"/>
                  </angle>
                  <angle>
                    <activevideoangle>false</activevideoangle>
                    <activeaudioangle>false</activeaudioangle>
                    <clip id="clip-5"/>
                  </angle>
                  <angle>
                    <activevideoangle>false</activevideoangle>
                    <activeaudioangle>false</activeaudioangle>
                    <clip id="clip-6"/>
                  </angle>
                  <angle>
                    <activevideoangle>false</activevideoangle>
                    <activeaudioangle>false</activeaudioangle>
                    <clip id="clip-7"/>
                  </angle>
                  <masterclipid>clip-master</masterclipid>
                </multiclip>
              </clipitem>
              <clipitem id="cs-374">
                <duration>72</duration>
                <rate>
                  <ntsc>false</ntsc>
                  <timebase>25</timebase>
                </rate>
                <in>44036</in>
                <out>44107</out>
                <start>44036</start>
                <end>44107</end>
                <file id="src-4"/>
                <sourcetrack>
                  <mediatype>video</mediatype>
                  <trackindex>1</trackindex>
                </sourcetrack>
                <multiclip id="mcs-374">
                  <name>MCS-374</name>
                  <masterclipid>clip-master</masterclipid>
                  <collapsed>false</collapsed>
                  <angle>
                    <activevideoangle>false</activevideoangle>
                    <activeaudioangle>false</activeaudioangle>
                    <clip id="clip-1"/>
                  </angle>
                  <angle>
                    <activevideoangle>false</activevideoangle>
                    <activeaudioangle>false</activeaudioangle>
                    <clip id="clip-2"/>
                  </angle>
                  <angle>
                    <activevideoangle>false</activevideoangle>
                    <activeaudioangle>false</activeaudioangle>
                    <clip id="clip-3"/>
                  </angle>
                  <angle>
                    <activevideoangle>true</activevideoangle>
                    <activeaudioangle>true</activeaudioangle>
                    <clip id="clip-4"/>
                  </angle>
                  <angle>
                    <activevideoangle>false</activevideoangle>
                    <activeaudioangle>false</activeaudioangle>
                    <clip id="clip-5"/>
                  </angle>
                  <angle>
                    <activevideoangle>false</activevideoangle>
                    <activeaudioangle>false</activeaudioangle>
                    <clip id="clip-6"/>
                  </angle>
                  <angle>
                    <activevideoangle>false</activevideoangle>
                    <activeaudioangle>false</activeaudioangle>
                    <clip id="clip-7"/>
                  </angle>
                  <masterclipid>clip-master</masterclipid>
                </multiclip>
              </clipitem>
              <clipitem id="cs-375">
                <duration>87</duration>
                <rate>
                  <ntsc>false</ntsc>
                  <timebase>25</timebase>
                </rate>
                <in>44107</in>
                <out>44193</out>
                <start>44107</start>
                <end>44193</end>
                <file id="src-2"/>
                <sourcetrack>
                  <mediatype>video</mediatype>
                  <trackindex>1</trackindex>
                </sourcetrack>
                <multiclip id="mcs-375">
                  <name>MCS-375</name>
                  <masterclipid>clip-master</masterclipid>
                  <collapsed>false</collapsed>
                  <angle>
                    <activevideoangle>false</activevideoangle>
                    <activeaudioangle>false</activeaudioangle>
                    <clip id="clip-1"/>
                  </angle>
                  <angle>
                    <activevideoangle>true</activevideoangle>
                    <activeaudioangle>true</activeaudioangle>
                    <clip id="clip-2"/>
                  </angle>
                  <angle>
                    <activevideoangle>false</activevideoangle>
                    <activeaudioangle>false</activeaudioangle>
                    <clip id="clip-3"/>
                  </angle>
                  <angle>
                    <activevideoangle>false</activevideoangle>
                    <activeaudioangle>false</activeaudioangle>
                    <clip id="clip-4"/>
                  </angle>
                  <angle>
                    <activevideoangle>false</activevideoangle>
                    <activeaudioangle>false</activeaudioangle>
                    <clip id="clip-5"/>
                  </angle>
                  <angle>
                    <activevideoangle>false</activevideoangle>
                    <activeaudioangle>false</activeaudioangle>
                    <clip id="clip-6"/>
                  </angle>
                  <angle>
                    <activevideoangle>false</activevideoangle>
                    <activeaudioangle>false</activeaudioangle>
                    <clip id="clip-7"/>
                  </angle>
                  <masterclipid>clip-master</masterclipid>
                </multiclip>
              </clipitem>
              <clipitem id="cs-376">
                <duration>150</duration>
                <rate>
                  <ntsc>false</ntsc>
                  <timebase>25</timebase>
                </rate>
                <in>44193</in>
                <out>44342</out>
                <start>44193</start>
                <end>44342</end>
                <file id="src-3"/>
                <sourcetrack>
                  <mediatype>video</mediatype>
                  <trackindex>1</trackindex>
                </sourcetrack>
                <multiclip id="mcs-376">
                  <name>MCS-376</name>
                  <masterclipid>clip-master</masterclipid>
                  <collapsed>false</collapsed>
                  <angle>
                    <activevideoangle>false</activevideoangle>
                    <activeaudioangle>false</activeaudioangle>
                    <clip id="clip-1"/>
                  </angle>
                  <angle>
                    <activevideoangle>false</activevideoangle>
                    <activeaudioangle>false</activeaudioangle>
                    <clip id="clip-2"/>
                  </angle>
                  <angle>
                    <activevideoangle>true</activevideoangle>
                    <activeaudioangle>true</activeaudioangle>
                    <clip id="clip-3"/>
                  </angle>
                  <angle>
                    <activevideoangle>false</activevideoangle>
                    <activeaudioangle>false</activeaudioangle>
                    <clip id="clip-4"/>
                  </angle>
                  <angle>
                    <activevideoangle>false</activevideoangle>
                    <activeaudioangle>false</activeaudioangle>
                    <clip id="clip-5"/>
                  </angle>
                  <angle>
                    <activevideoangle>false</activevideoangle>
                    <activeaudioangle>false</activeaudioangle>
                    <clip id="clip-6"/>
                  </angle>
                  <angle>
                    <activevideoangle>false</activevideoangle>
                    <activeaudioangle>false</activeaudioangle>
                    <clip id="clip-7"/>
                  </angle>
                  <masterclipid>clip-master</masterclipid>
                </multiclip>
              </clipitem>
              <clipitem id="cs-377">
                <duration>89</duration>
                <rate>
                  <ntsc>false</ntsc>
                  <timebase>25</timebase>
                </rate>
                <in>44342</in>
                <out>44430</out>
                <start>44342</start>
                <end>44430</end>
                <file id="src-2"/>
                <sourcetrack>
                  <mediatype>video</mediatype>
                  <trackindex>1</trackindex>
                </sourcetrack>
                <multiclip id="mcs-377">
                  <name>MCS-377</name>
                  <masterclipid>clip-master</masterclipid>
                  <collapsed>false</collapsed>
                  <angle>
                    <activevideoangle>false</activevideoangle>
                    <activeaudioangle>false</activeaudioangle>
                    <clip id="clip-1"/>
                  </angle>
                  <angle>
                    <activevideoangle>true</activevideoangle>
                    <activeaudioangle>true</activeaudioangle>
                    <clip id="clip-2"/>
                  </angle>
                  <angle>
                    <activevideoangle>false</activevideoangle>
                    <activeaudioangle>false</activeaudioangle>
                    <clip id="clip-3"/>
                  </angle>
                  <angle>
                    <activevideoangle>false</activevideoangle>
                    <activeaudioangle>false</activeaudioangle>
                    <clip id="clip-4"/>
                  </angle>
                  <angle>
                    <activevideoangle>false</activevideoangle>
                    <activeaudioangle>false</activeaudioangle>
                    <clip id="clip-5"/>
                  </angle>
                  <angle>
                    <activevideoangle>false</activevideoangle>
                    <activeaudioangle>false</activeaudioangle>
                    <clip id="clip-6"/>
                  </angle>
                  <angle>
                    <activevideoangle>false</activevideoangle>
                    <activeaudioangle>false</activeaudioangle>
                    <clip id="clip-7"/>
                  </angle>
                  <masterclipid>clip-master</masterclipid>
                </multiclip>
              </clipitem>
              <clipitem id="cs-378">
                <duration>44</duration>
                <rate>
                  <ntsc>false</ntsc>
                  <timebase>25</timebase>
                </rate>
                <in>44430</in>
                <out>44473</out>
                <start>44430</start>
                <end>44473</end>
                <file id="src-6"/>
                <sourcetrack>
                  <mediatype>video</mediatype>
                  <trackindex>1</trackindex>
                </sourcetrack>
                <multiclip id="mcs-378">
                  <name>MCS-378</name>
                  <masterclipid>clip-master</masterclipid>
                  <collapsed>false</collapsed>
                  <angle>
                    <activevideoangle>false</activevideoangle>
                    <activeaudioangle>false</activeaudioangle>
                    <clip id="clip-1"/>
                  </angle>
                  <angle>
                    <activevideoangle>false</activevideoangle>
                    <activeaudioangle>false</activeaudioangle>
                    <clip id="clip-2"/>
                  </angle>
                  <angle>
                    <activevideoangle>false</activevideoangle>
                    <activeaudioangle>false</activeaudioangle>
                    <clip id="clip-3"/>
                  </angle>
                  <angle>
                    <activevideoangle>false</activevideoangle>
                    <activeaudioangle>false</activeaudioangle>
                    <clip id="clip-4"/>
                  </angle>
                  <angle>
                    <activevideoangle>false</activevideoangle>
                    <activeaudioangle>false</activeaudioangle>
                    <clip id="clip-5"/>
                  </angle>
                  <angle>
                    <activevideoangle>true</activevideoangle>
                    <activeaudioangle>true</activeaudioangle>
                    <clip id="clip-6"/>
                  </angle>
                  <angle>
                    <activevideoangle>false</activevideoangle>
                    <activeaudioangle>false</activeaudioangle>
                    <clip id="clip-7"/>
                  </angle>
                  <masterclipid>clip-master</masterclipid>
                </multiclip>
              </clipitem>
              <clipitem id="cs-379">
                <duration>113</duration>
                <rate>
                  <ntsc>false</ntsc>
                  <timebase>25</timebase>
                </rate>
                <in>44473</in>
                <out>44585</out>
                <start>44473</start>
                <end>44585</end>
                <file id="src-3"/>
                <sourcetrack>
                  <mediatype>video</mediatype>
                  <trackindex>1</trackindex>
                </sourcetrack>
                <multiclip id="mcs-379">
                  <name>MCS-379</name>
                  <masterclipid>clip-master</masterclipid>
                  <collapsed>false</collapsed>
                  <angle>
                    <activevideoangle>false</activevideoangle>
                    <activeaudioangle>false</activeaudioangle>
                    <clip id="clip-1"/>
                  </angle>
                  <angle>
                    <activevideoangle>false</activevideoangle>
                    <activeaudioangle>false</activeaudioangle>
                    <clip id="clip-2"/>
                  </angle>
                  <angle>
                    <activevideoangle>true</activevideoangle>
                    <activeaudioangle>true</activeaudioangle>
                    <clip id="clip-3"/>
                  </angle>
                  <angle>
                    <activevideoangle>false</activevideoangle>
                    <activeaudioangle>false</activeaudioangle>
                    <clip id="clip-4"/>
                  </angle>
                  <angle>
                    <activevideoangle>false</activevideoangle>
                    <activeaudioangle>false</activeaudioangle>
                    <clip id="clip-5"/>
                  </angle>
                  <angle>
                    <activevideoangle>false</activevideoangle>
                    <activeaudioangle>false</activeaudioangle>
                    <clip id="clip-6"/>
                  </angle>
                  <angle>
                    <activevideoangle>false</activevideoangle>
                    <activeaudioangle>false</activeaudioangle>
                    <clip id="clip-7"/>
                  </angle>
                  <masterclipid>clip-master</masterclipid>
                </multiclip>
              </clipitem>
              <clipitem id="cs-380">
                <duration>152</duration>
                <rate>
                  <ntsc>false</ntsc>
                  <timebase>25</timebase>
                </rate>
                <in>44585</in>
                <out>44736</out>
                <start>44585</start>
                <end>44736</end>
                <file id="src-2"/>
                <sourcetrack>
                  <mediatype>video</mediatype>
                  <trackindex>1</trackindex>
                </sourcetrack>
                <multiclip id="mcs-380">
                  <name>MCS-380</name>
                  <masterclipid>clip-master</masterclipid>
                  <collapsed>false</collapsed>
                  <angle>
                    <activevideoangle>false</activevideoangle>
                    <activeaudioangle>false</activeaudioangle>
                    <clip id="clip-1"/>
                  </angle>
                  <angle>
                    <activevideoangle>true</activevideoangle>
                    <activeaudioangle>true</activeaudioangle>
                    <clip id="clip-2"/>
                  </angle>
                  <angle>
                    <activevideoangle>false</activevideoangle>
                    <activeaudioangle>false</activeaudioangle>
                    <clip id="clip-3"/>
                  </angle>
                  <angle>
                    <activevideoangle>false</activevideoangle>
                    <activeaudioangle>false</activeaudioangle>
                    <clip id="clip-4"/>
                  </angle>
                  <angle>
                    <activevideoangle>false</activevideoangle>
                    <activeaudioangle>false</activeaudioangle>
                    <clip id="clip-5"/>
                  </angle>
                  <angle>
                    <activevideoangle>false</activevideoangle>
                    <activeaudioangle>false</activeaudioangle>
                    <clip id="clip-6"/>
                  </angle>
                  <angle>
                    <activevideoangle>false</activevideoangle>
                    <activeaudioangle>false</activeaudioangle>
                    <clip id="clip-7"/>
                  </angle>
                  <masterclipid>clip-master</masterclipid>
                </multiclip>
              </clipitem>
              <clipitem id="cs-381">
                <duration>129</duration>
                <rate>
                  <ntsc>false</ntsc>
                  <timebase>25</timebase>
                </rate>
                <in>44736</in>
                <out>44864</out>
                <start>44736</start>
                <end>44864</end>
                <file id="src-3"/>
                <sourcetrack>
                  <mediatype>video</mediatype>
                  <trackindex>1</trackindex>
                </sourcetrack>
                <multiclip id="mcs-381">
                  <name>MCS-381</name>
                  <masterclipid>clip-master</masterclipid>
                  <collapsed>false</collapsed>
                  <angle>
                    <activevideoangle>false</activevideoangle>
                    <activeaudioangle>false</activeaudioangle>
                    <clip id="clip-1"/>
                  </angle>
                  <angle>
                    <activevideoangle>false</activevideoangle>
                    <activeaudioangle>false</activeaudioangle>
                    <clip id="clip-2"/>
                  </angle>
                  <angle>
                    <activevideoangle>true</activevideoangle>
                    <activeaudioangle>true</activeaudioangle>
                    <clip id="clip-3"/>
                  </angle>
                  <angle>
                    <activevideoangle>false</activevideoangle>
                    <activeaudioangle>false</activeaudioangle>
                    <clip id="clip-4"/>
                  </angle>
                  <angle>
                    <activevideoangle>false</activevideoangle>
                    <activeaudioangle>false</activeaudioangle>
                    <clip id="clip-5"/>
                  </angle>
                  <angle>
                    <activevideoangle>false</activevideoangle>
                    <activeaudioangle>false</activeaudioangle>
                    <clip id="clip-6"/>
                  </angle>
                  <angle>
                    <activevideoangle>false</activevideoangle>
                    <activeaudioangle>false</activeaudioangle>
                    <clip id="clip-7"/>
                  </angle>
                  <masterclipid>clip-master</masterclipid>
                </multiclip>
              </clipitem>
              <clipitem id="cs-382">
                <duration>110</duration>
                <rate>
                  <ntsc>false</ntsc>
                  <timebase>25</timebase>
                </rate>
                <in>44864</in>
                <out>44973</out>
                <start>44864</start>
                <end>44973</end>
                <file id="src-4"/>
                <sourcetrack>
                  <mediatype>video</mediatype>
                  <trackindex>1</trackindex>
                </sourcetrack>
                <multiclip id="mcs-382">
                  <name>MCS-382</name>
                  <masterclipid>clip-master</masterclipid>
                  <collapsed>false</collapsed>
                  <angle>
                    <activevideoangle>false</activevideoangle>
                    <activeaudioangle>false</activeaudioangle>
                    <clip id="clip-1"/>
                  </angle>
                  <angle>
                    <activevideoangle>false</activevideoangle>
                    <activeaudioangle>false</activeaudioangle>
                    <clip id="clip-2"/>
                  </angle>
                  <angle>
                    <activevideoangle>false</activevideoangle>
                    <activeaudioangle>false</activeaudioangle>
                    <clip id="clip-3"/>
                  </angle>
                  <angle>
                    <activevideoangle>true</activevideoangle>
                    <activeaudioangle>true</activeaudioangle>
                    <clip id="clip-4"/>
                  </angle>
                  <angle>
                    <activevideoangle>false</activevideoangle>
                    <activeaudioangle>false</activeaudioangle>
                    <clip id="clip-5"/>
                  </angle>
                  <angle>
                    <activevideoangle>false</activevideoangle>
                    <activeaudioangle>false</activeaudioangle>
                    <clip id="clip-6"/>
                  </angle>
                  <angle>
                    <activevideoangle>false</activevideoangle>
                    <activeaudioangle>false</activeaudioangle>
                    <clip id="clip-7"/>
                  </angle>
                  <masterclipid>clip-master</masterclipid>
                </multiclip>
              </clipitem>
              <clipitem id="cs-383">
                <duration>39</duration>
                <rate>
                  <ntsc>false</ntsc>
                  <timebase>25</timebase>
                </rate>
                <in>44973</in>
                <out>45011</out>
                <start>44973</start>
                <end>45011</end>
                <file id="src-6"/>
                <sourcetrack>
                  <mediatype>video</mediatype>
                  <trackindex>1</trackindex>
                </sourcetrack>
                <multiclip id="mcs-383">
                  <name>MCS-383</name>
                  <masterclipid>clip-master</masterclipid>
                  <collapsed>false</collapsed>
                  <angle>
                    <activevideoangle>false</activevideoangle>
                    <activeaudioangle>false</activeaudioangle>
                    <clip id="clip-1"/>
                  </angle>
                  <angle>
                    <activevideoangle>false</activevideoangle>
                    <activeaudioangle>false</activeaudioangle>
                    <clip id="clip-2"/>
                  </angle>
                  <angle>
                    <activevideoangle>false</activevideoangle>
                    <activeaudioangle>false</activeaudioangle>
                    <clip id="clip-3"/>
                  </angle>
                  <angle>
                    <activevideoangle>false</activevideoangle>
                    <activeaudioangle>false</activeaudioangle>
                    <clip id="clip-4"/>
                  </angle>
                  <angle>
                    <activevideoangle>false</activevideoangle>
                    <activeaudioangle>false</activeaudioangle>
                    <clip id="clip-5"/>
                  </angle>
                  <angle>
                    <activevideoangle>true</activevideoangle>
                    <activeaudioangle>true</activeaudioangle>
                    <clip id="clip-6"/>
                  </angle>
                  <angle>
                    <activevideoangle>false</activevideoangle>
                    <activeaudioangle>false</activeaudioangle>
                    <clip id="clip-7"/>
                  </angle>
                  <masterclipid>clip-master</masterclipid>
                </multiclip>
              </clipitem>
              <clipitem id="cs-384">
                <duration>90</duration>
                <rate>
                  <ntsc>false</ntsc>
                  <timebase>25</timebase>
                </rate>
                <in>45011</in>
                <out>45100</out>
                <start>45011</start>
                <end>45100</end>
                <file id="src-1"/>
                <sourcetrack>
                  <mediatype>video</mediatype>
                  <trackindex>1</trackindex>
                </sourcetrack>
                <multiclip id="mcs-384">
                  <name>MCS-384</name>
                  <masterclipid>clip-master</masterclipid>
                  <collapsed>false</collapsed>
                  <angle>
                    <activevideoangle>true</activevideoangle>
                    <activeaudioangle>true</activeaudioangle>
                    <clip id="clip-1"/>
                  </angle>
                  <angle>
                    <activevideoangle>false</activevideoangle>
                    <activeaudioangle>false</activeaudioangle>
                    <clip id="clip-2"/>
                  </angle>
                  <angle>
                    <activevideoangle>false</activevideoangle>
                    <activeaudioangle>false</activeaudioangle>
                    <clip id="clip-3"/>
                  </angle>
                  <angle>
                    <activevideoangle>false</activevideoangle>
                    <activeaudioangle>false</activeaudioangle>
                    <clip id="clip-4"/>
                  </angle>
                  <angle>
                    <activevideoangle>false</activevideoangle>
                    <activeaudioangle>false</activeaudioangle>
                    <clip id="clip-5"/>
                  </angle>
                  <angle>
                    <activevideoangle>false</activevideoangle>
                    <activeaudioangle>false</activeaudioangle>
                    <clip id="clip-6"/>
                  </angle>
                  <angle>
                    <activevideoangle>false</activevideoangle>
                    <activeaudioangle>false</activeaudioangle>
                    <clip id="clip-7"/>
                  </angle>
                  <masterclipid>clip-master</masterclipid>
                </multiclip>
              </clipitem>
              <clipitem id="cs-385">
                <duration>57</duration>
                <rate>
                  <ntsc>false</ntsc>
                  <timebase>25</timebase>
                </rate>
                <in>45100</in>
                <out>45156</out>
                <start>45100</start>
                <end>45156</end>
                <file id="src-4"/>
                <sourcetrack>
                  <mediatype>video</mediatype>
                  <trackindex>1</trackindex>
                </sourcetrack>
                <multiclip id="mcs-385">
                  <name>MCS-385</name>
                  <masterclipid>clip-master</masterclipid>
                  <collapsed>false</collapsed>
                  <angle>
                    <activevideoangle>false</activevideoangle>
                    <activeaudioangle>false</activeaudioangle>
                    <clip id="clip-1"/>
                  </angle>
                  <angle>
                    <activevideoangle>false</activevideoangle>
                    <activeaudioangle>false</activeaudioangle>
                    <clip id="clip-2"/>
                  </angle>
                  <angle>
                    <activevideoangle>false</activevideoangle>
                    <activeaudioangle>false</activeaudioangle>
                    <clip id="clip-3"/>
                  </angle>
                  <angle>
                    <activevideoangle>true</activevideoangle>
                    <activeaudioangle>true</activeaudioangle>
                    <clip id="clip-4"/>
                  </angle>
                  <angle>
                    <activevideoangle>false</activevideoangle>
                    <activeaudioangle>false</activeaudioangle>
                    <clip id="clip-5"/>
                  </angle>
                  <angle>
                    <activevideoangle>false</activevideoangle>
                    <activeaudioangle>false</activeaudioangle>
                    <clip id="clip-6"/>
                  </angle>
                  <angle>
                    <activevideoangle>false</activevideoangle>
                    <activeaudioangle>false</activeaudioangle>
                    <clip id="clip-7"/>
                  </angle>
                  <masterclipid>clip-master</masterclipid>
                </multiclip>
              </clipitem>
              <clipitem id="cs-386">
                <duration>63</duration>
                <rate>
                  <ntsc>false</ntsc>
                  <timebase>25</timebase>
                </rate>
                <in>45156</in>
                <out>45218</out>
                <start>45156</start>
                <end>45218</end>
                <file id="src-3"/>
                <sourcetrack>
                  <mediatype>video</mediatype>
                  <trackindex>1</trackindex>
                </sourcetrack>
                <multiclip id="mcs-386">
                  <name>MCS-386</name>
                  <masterclipid>clip-master</masterclipid>
                  <collapsed>false</collapsed>
                  <angle>
                    <activevideoangle>false</activevideoangle>
                    <activeaudioangle>false</activeaudioangle>
                    <clip id="clip-1"/>
                  </angle>
                  <angle>
                    <activevideoangle>false</activevideoangle>
                    <activeaudioangle>false</activeaudioangle>
                    <clip id="clip-2"/>
                  </angle>
                  <angle>
                    <activevideoangle>true</activevideoangle>
                    <activeaudioangle>true</activeaudioangle>
                    <clip id="clip-3"/>
                  </angle>
                  <angle>
                    <activevideoangle>false</activevideoangle>
                    <activeaudioangle>false</activeaudioangle>
                    <clip id="clip-4"/>
                  </angle>
                  <angle>
                    <activevideoangle>false</activevideoangle>
                    <activeaudioangle>false</activeaudioangle>
                    <clip id="clip-5"/>
                  </angle>
                  <angle>
                    <activevideoangle>false</activevideoangle>
                    <activeaudioangle>false</activeaudioangle>
                    <clip id="clip-6"/>
                  </angle>
                  <angle>
                    <activevideoangle>false</activevideoangle>
                    <activeaudioangle>false</activeaudioangle>
                    <clip id="clip-7"/>
                  </angle>
                  <masterclipid>clip-master</masterclipid>
                </multiclip>
              </clipitem>
              <clipitem id="cs-387">
                <duration>59</duration>
                <rate>
                  <ntsc>false</ntsc>
                  <timebase>25</timebase>
                </rate>
                <in>45218</in>
                <out>45276</out>
                <start>45218</start>
                <end>45276</end>
                <file id="src-1"/>
                <sourcetrack>
                  <mediatype>video</mediatype>
                  <trackindex>1</trackindex>
                </sourcetrack>
                <multiclip id="mcs-387">
                  <name>MCS-387</name>
                  <masterclipid>clip-master</masterclipid>
                  <collapsed>false</collapsed>
                  <angle>
                    <activevideoangle>true</activevideoangle>
                    <activeaudioangle>true</activeaudioangle>
                    <clip id="clip-1"/>
                  </angle>
                  <angle>
                    <activevideoangle>false</activevideoangle>
                    <activeaudioangle>false</activeaudioangle>
                    <clip id="clip-2"/>
                  </angle>
                  <angle>
                    <activevideoangle>false</activevideoangle>
                    <activeaudioangle>false</activeaudioangle>
                    <clip id="clip-3"/>
                  </angle>
                  <angle>
                    <activevideoangle>false</activevideoangle>
                    <activeaudioangle>false</activeaudioangle>
                    <clip id="clip-4"/>
                  </angle>
                  <angle>
                    <activevideoangle>false</activevideoangle>
                    <activeaudioangle>false</activeaudioangle>
                    <clip id="clip-5"/>
                  </angle>
                  <angle>
                    <activevideoangle>false</activevideoangle>
                    <activeaudioangle>false</activeaudioangle>
                    <clip id="clip-6"/>
                  </angle>
                  <angle>
                    <activevideoangle>false</activevideoangle>
                    <activeaudioangle>false</activeaudioangle>
                    <clip id="clip-7"/>
                  </angle>
                  <masterclipid>clip-master</masterclipid>
                </multiclip>
              </clipitem>
              <clipitem id="cs-388">
                <duration>85</duration>
                <rate>
                  <ntsc>false</ntsc>
                  <timebase>25</timebase>
                </rate>
                <in>45276</in>
                <out>45360</out>
                <start>45276</start>
                <end>45360</end>
                <file id="src-4"/>
                <sourcetrack>
                  <mediatype>video</mediatype>
                  <trackindex>1</trackindex>
                </sourcetrack>
                <multiclip id="mcs-388">
                  <name>MCS-388</name>
                  <masterclipid>clip-master</masterclipid>
                  <collapsed>false</collapsed>
                  <angle>
                    <activevideoangle>false</activevideoangle>
                    <activeaudioangle>false</activeaudioangle>
                    <clip id="clip-1"/>
                  </angle>
                  <angle>
                    <activevideoangle>false</activevideoangle>
                    <activeaudioangle>false</activeaudioangle>
                    <clip id="clip-2"/>
                  </angle>
                  <angle>
                    <activevideoangle>false</activevideoangle>
                    <activeaudioangle>false</activeaudioangle>
                    <clip id="clip-3"/>
                  </angle>
                  <angle>
                    <activevideoangle>true</activevideoangle>
                    <activeaudioangle>true</activeaudioangle>
                    <clip id="clip-4"/>
                  </angle>
                  <angle>
                    <activevideoangle>false</activevideoangle>
                    <activeaudioangle>false</activeaudioangle>
                    <clip id="clip-5"/>
                  </angle>
                  <angle>
                    <activevideoangle>false</activevideoangle>
                    <activeaudioangle>false</activeaudioangle>
                    <clip id="clip-6"/>
                  </angle>
                  <angle>
                    <activevideoangle>false</activevideoangle>
                    <activeaudioangle>false</activeaudioangle>
                    <clip id="clip-7"/>
                  </angle>
                  <masterclipid>clip-master</masterclipid>
                </multiclip>
              </clipitem>
              <clipitem id="cs-389">
                <duration>130</duration>
                <rate>
                  <ntsc>false</ntsc>
                  <timebase>25</timebase>
                </rate>
                <in>45360</in>
                <out>45489</out>
                <start>45360</start>
                <end>45489</end>
                <file id="src-3"/>
                <sourcetrack>
                  <mediatype>video</mediatype>
                  <trackindex>1</trackindex>
                </sourcetrack>
                <multiclip id="mcs-389">
                  <name>MCS-389</name>
                  <masterclipid>clip-master</masterclipid>
                  <collapsed>false</collapsed>
                  <angle>
                    <activevideoangle>false</activevideoangle>
                    <activeaudioangle>false</activeaudioangle>
                    <clip id="clip-1"/>
                  </angle>
                  <angle>
                    <activevideoangle>false</activevideoangle>
                    <activeaudioangle>false</activeaudioangle>
                    <clip id="clip-2"/>
                  </angle>
                  <angle>
                    <activevideoangle>true</activevideoangle>
                    <activeaudioangle>true</activeaudioangle>
                    <clip id="clip-3"/>
                  </angle>
                  <angle>
                    <activevideoangle>false</activevideoangle>
                    <activeaudioangle>false</activeaudioangle>
                    <clip id="clip-4"/>
                  </angle>
                  <angle>
                    <activevideoangle>false</activevideoangle>
                    <activeaudioangle>false</activeaudioangle>
                    <clip id="clip-5"/>
                  </angle>
                  <angle>
                    <activevideoangle>false</activevideoangle>
                    <activeaudioangle>false</activeaudioangle>
                    <clip id="clip-6"/>
                  </angle>
                  <angle>
                    <activevideoangle>false</activevideoangle>
                    <activeaudioangle>false</activeaudioangle>
                    <clip id="clip-7"/>
                  </angle>
                  <masterclipid>clip-master</masterclipid>
                </multiclip>
              </clipitem>
              <clipitem id="cs-390">
                <duration>107</duration>
                <rate>
                  <ntsc>false</ntsc>
                  <timebase>25</timebase>
                </rate>
                <in>45489</in>
                <out>45595</out>
                <start>45489</start>
                <end>45595</end>
                <file id="src-2"/>
                <sourcetrack>
                  <mediatype>video</mediatype>
                  <trackindex>1</trackindex>
                </sourcetrack>
                <multiclip id="mcs-390">
                  <name>MCS-390</name>
                  <masterclipid>clip-master</masterclipid>
                  <collapsed>false</collapsed>
                  <angle>
                    <activevideoangle>false</activevideoangle>
                    <activeaudioangle>false</activeaudioangle>
                    <clip id="clip-1"/>
                  </angle>
                  <angle>
                    <activevideoangle>true</activevideoangle>
                    <activeaudioangle>true</activeaudioangle>
                    <clip id="clip-2"/>
                  </angle>
                  <angle>
                    <activevideoangle>false</activevideoangle>
                    <activeaudioangle>false</activeaudioangle>
                    <clip id="clip-3"/>
                  </angle>
                  <angle>
                    <activevideoangle>false</activevideoangle>
                    <activeaudioangle>false</activeaudioangle>
                    <clip id="clip-4"/>
                  </angle>
                  <angle>
                    <activevideoangle>false</activevideoangle>
                    <activeaudioangle>false</activeaudioangle>
                    <clip id="clip-5"/>
                  </angle>
                  <angle>
                    <activevideoangle>false</activevideoangle>
                    <activeaudioangle>false</activeaudioangle>
                    <clip id="clip-6"/>
                  </angle>
                  <angle>
                    <activevideoangle>false</activevideoangle>
                    <activeaudioangle>false</activeaudioangle>
                    <clip id="clip-7"/>
                  </angle>
                  <masterclipid>clip-master</masterclipid>
                </multiclip>
              </clipitem>
              <clipitem id="cs-391">
                <duration>117</duration>
                <rate>
                  <ntsc>false</ntsc>
                  <timebase>25</timebase>
                </rate>
                <in>45595</in>
                <out>45711</out>
                <start>45595</start>
                <end>45711</end>
                <file id="src-3"/>
                <sourcetrack>
                  <mediatype>video</mediatype>
                  <trackindex>1</trackindex>
                </sourcetrack>
                <multiclip id="mcs-391">
                  <name>MCS-391</name>
                  <masterclipid>clip-master</masterclipid>
                  <collapsed>false</collapsed>
                  <angle>
                    <activevideoangle>false</activevideoangle>
                    <activeaudioangle>false</activeaudioangle>
                    <clip id="clip-1"/>
                  </angle>
                  <angle>
                    <activevideoangle>false</activevideoangle>
                    <activeaudioangle>false</activeaudioangle>
                    <clip id="clip-2"/>
                  </angle>
                  <angle>
                    <activevideoangle>true</activevideoangle>
                    <activeaudioangle>true</activeaudioangle>
                    <clip id="clip-3"/>
                  </angle>
                  <angle>
                    <activevideoangle>false</activevideoangle>
                    <activeaudioangle>false</activeaudioangle>
                    <clip id="clip-4"/>
                  </angle>
                  <angle>
                    <activevideoangle>false</activevideoangle>
                    <activeaudioangle>false</activeaudioangle>
                    <clip id="clip-5"/>
                  </angle>
                  <angle>
                    <activevideoangle>false</activevideoangle>
                    <activeaudioangle>false</activeaudioangle>
                    <clip id="clip-6"/>
                  </angle>
                  <angle>
                    <activevideoangle>false</activevideoangle>
                    <activeaudioangle>false</activeaudioangle>
                    <clip id="clip-7"/>
                  </angle>
                  <masterclipid>clip-master</masterclipid>
                </multiclip>
              </clipitem>
              <clipitem id="cs-392">
                <duration>165</duration>
                <rate>
                  <ntsc>false</ntsc>
                  <timebase>25</timebase>
                </rate>
                <in>45711</in>
                <out>45875</out>
                <start>45711</start>
                <end>45875</end>
                <file id="src-2"/>
                <sourcetrack>
                  <mediatype>video</mediatype>
                  <trackindex>1</trackindex>
                </sourcetrack>
                <multiclip id="mcs-392">
                  <name>MCS-392</name>
                  <masterclipid>clip-master</masterclipid>
                  <collapsed>false</collapsed>
                  <angle>
                    <activevideoangle>false</activevideoangle>
                    <activeaudioangle>false</activeaudioangle>
                    <clip id="clip-1"/>
                  </angle>
                  <angle>
                    <activevideoangle>true</activevideoangle>
                    <activeaudioangle>true</activeaudioangle>
                    <clip id="clip-2"/>
                  </angle>
                  <angle>
                    <activevideoangle>false</activevideoangle>
                    <activeaudioangle>false</activeaudioangle>
                    <clip id="clip-3"/>
                  </angle>
                  <angle>
                    <activevideoangle>false</activevideoangle>
                    <activeaudioangle>false</activeaudioangle>
                    <clip id="clip-4"/>
                  </angle>
                  <angle>
                    <activevideoangle>false</activevideoangle>
                    <activeaudioangle>false</activeaudioangle>
                    <clip id="clip-5"/>
                  </angle>
                  <angle>
                    <activevideoangle>false</activevideoangle>
                    <activeaudioangle>false</activeaudioangle>
                    <clip id="clip-6"/>
                  </angle>
                  <angle>
                    <activevideoangle>false</activevideoangle>
                    <activeaudioangle>false</activeaudioangle>
                    <clip id="clip-7"/>
                  </angle>
                  <masterclipid>clip-master</masterclipid>
                </multiclip>
              </clipitem>
              <clipitem id="cs-393">
                <duration>100</duration>
                <rate>
                  <ntsc>false</ntsc>
                  <timebase>25</timebase>
                </rate>
                <in>45875</in>
                <out>45974</out>
                <start>45875</start>
                <end>45974</end>
                <file id="src-4"/>
                <sourcetrack>
                  <mediatype>video</mediatype>
                  <trackindex>1</trackindex>
                </sourcetrack>
                <multiclip id="mcs-393">
                  <name>MCS-393</name>
                  <masterclipid>clip-master</masterclipid>
                  <collapsed>false</collapsed>
                  <angle>
                    <activevideoangle>false</activevideoangle>
                    <activeaudioangle>false</activeaudioangle>
                    <clip id="clip-1"/>
                  </angle>
                  <angle>
                    <activevideoangle>false</activevideoangle>
                    <activeaudioangle>false</activeaudioangle>
                    <clip id="clip-2"/>
                  </angle>
                  <angle>
                    <activevideoangle>false</activevideoangle>
                    <activeaudioangle>false</activeaudioangle>
                    <clip id="clip-3"/>
                  </angle>
                  <angle>
                    <activevideoangle>true</activevideoangle>
                    <activeaudioangle>true</activeaudioangle>
                    <clip id="clip-4"/>
                  </angle>
                  <angle>
                    <activevideoangle>false</activevideoangle>
                    <activeaudioangle>false</activeaudioangle>
                    <clip id="clip-5"/>
                  </angle>
                  <angle>
                    <activevideoangle>false</activevideoangle>
                    <activeaudioangle>false</activeaudioangle>
                    <clip id="clip-6"/>
                  </angle>
                  <angle>
                    <activevideoangle>false</activevideoangle>
                    <activeaudioangle>false</activeaudioangle>
                    <clip id="clip-7"/>
                  </angle>
                  <masterclipid>clip-master</masterclipid>
                </multiclip>
              </clipitem>
              <clipitem id="cs-394">
                <duration>61</duration>
                <rate>
                  <ntsc>false</ntsc>
                  <timebase>25</timebase>
                </rate>
                <in>45974</in>
                <out>46034</out>
                <start>45974</start>
                <end>46034</end>
                <file id="src-3"/>
                <sourcetrack>
                  <mediatype>video</mediatype>
                  <trackindex>1</trackindex>
                </sourcetrack>
                <multiclip id="mcs-394">
                  <name>MCS-394</name>
                  <masterclipid>clip-master</masterclipid>
                  <collapsed>false</collapsed>
                  <angle>
                    <activevideoangle>false</activevideoangle>
                    <activeaudioangle>false</activeaudioangle>
                    <clip id="clip-1"/>
                  </angle>
                  <angle>
                    <activevideoangle>false</activevideoangle>
                    <activeaudioangle>false</activeaudioangle>
                    <clip id="clip-2"/>
                  </angle>
                  <angle>
                    <activevideoangle>true</activevideoangle>
                    <activeaudioangle>true</activeaudioangle>
                    <clip id="clip-3"/>
                  </angle>
                  <angle>
                    <activevideoangle>false</activevideoangle>
                    <activeaudioangle>false</activeaudioangle>
                    <clip id="clip-4"/>
                  </angle>
                  <angle>
                    <activevideoangle>false</activevideoangle>
                    <activeaudioangle>false</activeaudioangle>
                    <clip id="clip-5"/>
                  </angle>
                  <angle>
                    <activevideoangle>false</activevideoangle>
                    <activeaudioangle>false</activeaudioangle>
                    <clip id="clip-6"/>
                  </angle>
                  <angle>
                    <activevideoangle>false</activevideoangle>
                    <activeaudioangle>false</activeaudioangle>
                    <clip id="clip-7"/>
                  </angle>
                  <masterclipid>clip-master</masterclipid>
                </multiclip>
              </clipitem>
              <clipitem id="cs-395">
                <duration>100</duration>
                <rate>
                  <ntsc>false</ntsc>
                  <timebase>25</timebase>
                </rate>
                <in>46034</in>
                <out>46133</out>
                <start>46034</start>
                <end>46133</end>
                <file id="src-6"/>
                <sourcetrack>
                  <mediatype>video</mediatype>
                  <trackindex>1</trackindex>
                </sourcetrack>
                <multiclip id="mcs-395">
                  <name>MCS-395</name>
                  <masterclipid>clip-master</masterclipid>
                  <collapsed>false</collapsed>
                  <angle>
                    <activevideoangle>false</activevideoangle>
                    <activeaudioangle>false</activeaudioangle>
                    <clip id="clip-1"/>
                  </angle>
                  <angle>
                    <activevideoangle>false</activevideoangle>
                    <activeaudioangle>false</activeaudioangle>
                    <clip id="clip-2"/>
                  </angle>
                  <angle>
                    <activevideoangle>false</activevideoangle>
                    <activeaudioangle>false</activeaudioangle>
                    <clip id="clip-3"/>
                  </angle>
                  <angle>
                    <activevideoangle>false</activevideoangle>
                    <activeaudioangle>false</activeaudioangle>
                    <clip id="clip-4"/>
                  </angle>
                  <angle>
                    <activevideoangle>false</activevideoangle>
                    <activeaudioangle>false</activeaudioangle>
                    <clip id="clip-5"/>
                  </angle>
                  <angle>
                    <activevideoangle>true</activevideoangle>
                    <activeaudioangle>true</activeaudioangle>
                    <clip id="clip-6"/>
                  </angle>
                  <angle>
                    <activevideoangle>false</activevideoangle>
                    <activeaudioangle>false</activeaudioangle>
                    <clip id="clip-7"/>
                  </angle>
                  <masterclipid>clip-master</masterclipid>
                </multiclip>
              </clipitem>
              <clipitem id="cs-396">
                <duration>76</duration>
                <rate>
                  <ntsc>false</ntsc>
                  <timebase>25</timebase>
                </rate>
                <in>46133</in>
                <out>46208</out>
                <start>46133</start>
                <end>46208</end>
                <file id="src-3"/>
                <sourcetrack>
                  <mediatype>video</mediatype>
                  <trackindex>1</trackindex>
                </sourcetrack>
                <multiclip id="mcs-396">
                  <name>MCS-396</name>
                  <masterclipid>clip-master</masterclipid>
                  <collapsed>false</collapsed>
                  <angle>
                    <activevideoangle>false</activevideoangle>
                    <activeaudioangle>false</activeaudioangle>
                    <clip id="clip-1"/>
                  </angle>
                  <angle>
                    <activevideoangle>false</activevideoangle>
                    <activeaudioangle>false</activeaudioangle>
                    <clip id="clip-2"/>
                  </angle>
                  <angle>
                    <activevideoangle>true</activevideoangle>
                    <activeaudioangle>true</activeaudioangle>
                    <clip id="clip-3"/>
                  </angle>
                  <angle>
                    <activevideoangle>false</activevideoangle>
                    <activeaudioangle>false</activeaudioangle>
                    <clip id="clip-4"/>
                  </angle>
                  <angle>
                    <activevideoangle>false</activevideoangle>
                    <activeaudioangle>false</activeaudioangle>
                    <clip id="clip-5"/>
                  </angle>
                  <angle>
                    <activevideoangle>false</activevideoangle>
                    <activeaudioangle>false</activeaudioangle>
                    <clip id="clip-6"/>
                  </angle>
                  <angle>
                    <activevideoangle>false</activevideoangle>
                    <activeaudioangle>false</activeaudioangle>
                    <clip id="clip-7"/>
                  </angle>
                  <masterclipid>clip-master</masterclipid>
                </multiclip>
              </clipitem>
              <clipitem id="cs-397">
                <duration>141</duration>
                <rate>
                  <ntsc>false</ntsc>
                  <timebase>25</timebase>
                </rate>
                <in>46208</in>
                <out>46348</out>
                <start>46208</start>
                <end>46348</end>
                <file id="src-2"/>
                <sourcetrack>
                  <mediatype>video</mediatype>
                  <trackindex>1</trackindex>
                </sourcetrack>
                <multiclip id="mcs-397">
                  <name>MCS-397</name>
                  <masterclipid>clip-master</masterclipid>
                  <collapsed>false</collapsed>
                  <angle>
                    <activevideoangle>false</activevideoangle>
                    <activeaudioangle>false</activeaudioangle>
                    <clip id="clip-1"/>
                  </angle>
                  <angle>
                    <activevideoangle>true</activevideoangle>
                    <activeaudioangle>true</activeaudioangle>
                    <clip id="clip-2"/>
                  </angle>
                  <angle>
                    <activevideoangle>false</activevideoangle>
                    <activeaudioangle>false</activeaudioangle>
                    <clip id="clip-3"/>
                  </angle>
                  <angle>
                    <activevideoangle>false</activevideoangle>
                    <activeaudioangle>false</activeaudioangle>
                    <clip id="clip-4"/>
                  </angle>
                  <angle>
                    <activevideoangle>false</activevideoangle>
                    <activeaudioangle>false</activeaudioangle>
                    <clip id="clip-5"/>
                  </angle>
                  <angle>
                    <activevideoangle>false</activevideoangle>
                    <activeaudioangle>false</activeaudioangle>
                    <clip id="clip-6"/>
                  </angle>
                  <angle>
                    <activevideoangle>false</activevideoangle>
                    <activeaudioangle>false</activeaudioangle>
                    <clip id="clip-7"/>
                  </angle>
                  <masterclipid>clip-master</masterclipid>
                </multiclip>
              </clipitem>
              <clipitem id="cs-398">
                <duration>146</duration>
                <rate>
                  <ntsc>false</ntsc>
                  <timebase>25</timebase>
                </rate>
                <in>46348</in>
                <out>46493</out>
                <start>46348</start>
                <end>46493</end>
                <file id="src-3"/>
                <sourcetrack>
                  <mediatype>video</mediatype>
                  <trackindex>1</trackindex>
                </sourcetrack>
                <multiclip id="mcs-398">
                  <name>MCS-398</name>
                  <masterclipid>clip-master</masterclipid>
                  <collapsed>false</collapsed>
                  <angle>
                    <activevideoangle>false</activevideoangle>
                    <activeaudioangle>false</activeaudioangle>
                    <clip id="clip-1"/>
                  </angle>
                  <angle>
                    <activevideoangle>false</activevideoangle>
                    <activeaudioangle>false</activeaudioangle>
                    <clip id="clip-2"/>
                  </angle>
                  <angle>
                    <activevideoangle>true</activevideoangle>
                    <activeaudioangle>true</activeaudioangle>
                    <clip id="clip-3"/>
                  </angle>
                  <angle>
                    <activevideoangle>false</activevideoangle>
                    <activeaudioangle>false</activeaudioangle>
                    <clip id="clip-4"/>
                  </angle>
                  <angle>
                    <activevideoangle>false</activevideoangle>
                    <activeaudioangle>false</activeaudioangle>
                    <clip id="clip-5"/>
                  </angle>
                  <angle>
                    <activevideoangle>false</activevideoangle>
                    <activeaudioangle>false</activeaudioangle>
                    <clip id="clip-6"/>
                  </angle>
                  <angle>
                    <activevideoangle>false</activevideoangle>
                    <activeaudioangle>false</activeaudioangle>
                    <clip id="clip-7"/>
                  </angle>
                  <masterclipid>clip-master</masterclipid>
                </multiclip>
              </clipitem>
              <clipitem id="cs-399">
                <duration>87</duration>
                <rate>
                  <ntsc>false</ntsc>
                  <timebase>25</timebase>
                </rate>
                <in>46493</in>
                <out>46579</out>
                <start>46493</start>
                <end>46579</end>
                <file id="src-4"/>
                <sourcetrack>
                  <mediatype>video</mediatype>
                  <trackindex>1</trackindex>
                </sourcetrack>
                <multiclip id="mcs-399">
                  <name>MCS-399</name>
                  <masterclipid>clip-master</masterclipid>
                  <collapsed>false</collapsed>
                  <angle>
                    <activevideoangle>false</activevideoangle>
                    <activeaudioangle>false</activeaudioangle>
                    <clip id="clip-1"/>
                  </angle>
                  <angle>
                    <activevideoangle>false</activevideoangle>
                    <activeaudioangle>false</activeaudioangle>
                    <clip id="clip-2"/>
                  </angle>
                  <angle>
                    <activevideoangle>false</activevideoangle>
                    <activeaudioangle>false</activeaudioangle>
                    <clip id="clip-3"/>
                  </angle>
                  <angle>
                    <activevideoangle>true</activevideoangle>
                    <activeaudioangle>true</activeaudioangle>
                    <clip id="clip-4"/>
                  </angle>
                  <angle>
                    <activevideoangle>false</activevideoangle>
                    <activeaudioangle>false</activeaudioangle>
                    <clip id="clip-5"/>
                  </angle>
                  <angle>
                    <activevideoangle>false</activevideoangle>
                    <activeaudioangle>false</activeaudioangle>
                    <clip id="clip-6"/>
                  </angle>
                  <angle>
                    <activevideoangle>false</activevideoangle>
                    <activeaudioangle>false</activeaudioangle>
                    <clip id="clip-7"/>
                  </angle>
                  <masterclipid>clip-master</masterclipid>
                </multiclip>
              </clipitem>
              <clipitem id="cs-400">
                <duration>79</duration>
                <rate>
                  <ntsc>false</ntsc>
                  <timebase>25</timebase>
                </rate>
                <in>46579</in>
                <out>46657</out>
                <start>46579</start>
                <end>46657</end>
                <file id="src-2"/>
                <sourcetrack>
                  <mediatype>video</mediatype>
                  <trackindex>1</trackindex>
                </sourcetrack>
                <multiclip id="mcs-400">
                  <name>MCS-400</name>
                  <masterclipid>clip-master</masterclipid>
                  <collapsed>false</collapsed>
                  <angle>
                    <activevideoangle>false</activevideoangle>
                    <activeaudioangle>false</activeaudioangle>
                    <clip id="clip-1"/>
                  </angle>
                  <angle>
                    <activevideoangle>true</activevideoangle>
                    <activeaudioangle>true</activeaudioangle>
                    <clip id="clip-2"/>
                  </angle>
                  <angle>
                    <activevideoangle>false</activevideoangle>
                    <activeaudioangle>false</activeaudioangle>
                    <clip id="clip-3"/>
                  </angle>
                  <angle>
                    <activevideoangle>false</activevideoangle>
                    <activeaudioangle>false</activeaudioangle>
                    <clip id="clip-4"/>
                  </angle>
                  <angle>
                    <activevideoangle>false</activevideoangle>
                    <activeaudioangle>false</activeaudioangle>
                    <clip id="clip-5"/>
                  </angle>
                  <angle>
                    <activevideoangle>false</activevideoangle>
                    <activeaudioangle>false</activeaudioangle>
                    <clip id="clip-6"/>
                  </angle>
                  <angle>
                    <activevideoangle>false</activevideoangle>
                    <activeaudioangle>false</activeaudioangle>
                    <clip id="clip-7"/>
                  </angle>
                  <masterclipid>clip-master</masterclipid>
                </multiclip>
              </clipitem>
              <clipitem id="cs-401">
                <duration>155</duration>
                <rate>
                  <ntsc>false</ntsc>
                  <timebase>25</timebase>
                </rate>
                <in>46657</in>
                <out>46811</out>
                <start>46657</start>
                <end>46811</end>
                <file id="src-3"/>
                <sourcetrack>
                  <mediatype>video</mediatype>
                  <trackindex>1</trackindex>
                </sourcetrack>
                <multiclip id="mcs-401">
                  <name>MCS-401</name>
                  <masterclipid>clip-master</masterclipid>
                  <collapsed>false</collapsed>
                  <angle>
                    <activevideoangle>false</activevideoangle>
                    <activeaudioangle>false</activeaudioangle>
                    <clip id="clip-1"/>
                  </angle>
                  <angle>
                    <activevideoangle>false</activevideoangle>
                    <activeaudioangle>false</activeaudioangle>
                    <clip id="clip-2"/>
                  </angle>
                  <angle>
                    <activevideoangle>true</activevideoangle>
                    <activeaudioangle>true</activeaudioangle>
                    <clip id="clip-3"/>
                  </angle>
                  <angle>
                    <activevideoangle>false</activevideoangle>
                    <activeaudioangle>false</activeaudioangle>
                    <clip id="clip-4"/>
                  </angle>
                  <angle>
                    <activevideoangle>false</activevideoangle>
                    <activeaudioangle>false</activeaudioangle>
                    <clip id="clip-5"/>
                  </angle>
                  <angle>
                    <activevideoangle>false</activevideoangle>
                    <activeaudioangle>false</activeaudioangle>
                    <clip id="clip-6"/>
                  </angle>
                  <angle>
                    <activevideoangle>false</activevideoangle>
                    <activeaudioangle>false</activeaudioangle>
                    <clip id="clip-7"/>
                  </angle>
                  <masterclipid>clip-master</masterclipid>
                </multiclip>
              </clipitem>
              <clipitem id="cs-402">
                <duration>91</duration>
                <rate>
                  <ntsc>false</ntsc>
                  <timebase>25</timebase>
                </rate>
                <in>46811</in>
                <out>46901</out>
                <start>46811</start>
                <end>46901</end>
                <file id="src-2"/>
                <sourcetrack>
                  <mediatype>video</mediatype>
                  <trackindex>1</trackindex>
                </sourcetrack>
                <multiclip id="mcs-402">
                  <name>MCS-402</name>
                  <masterclipid>clip-master</masterclipid>
                  <collapsed>false</collapsed>
                  <angle>
                    <activevideoangle>false</activevideoangle>
                    <activeaudioangle>false</activeaudioangle>
                    <clip id="clip-1"/>
                  </angle>
                  <angle>
                    <activevideoangle>true</activevideoangle>
                    <activeaudioangle>true</activeaudioangle>
                    <clip id="clip-2"/>
                  </angle>
                  <angle>
                    <activevideoangle>false</activevideoangle>
                    <activeaudioangle>false</activeaudioangle>
                    <clip id="clip-3"/>
                  </angle>
                  <angle>
                    <activevideoangle>false</activevideoangle>
                    <activeaudioangle>false</activeaudioangle>
                    <clip id="clip-4"/>
                  </angle>
                  <angle>
                    <activevideoangle>false</activevideoangle>
                    <activeaudioangle>false</activeaudioangle>
                    <clip id="clip-5"/>
                  </angle>
                  <angle>
                    <activevideoangle>false</activevideoangle>
                    <activeaudioangle>false</activeaudioangle>
                    <clip id="clip-6"/>
                  </angle>
                  <angle>
                    <activevideoangle>false</activevideoangle>
                    <activeaudioangle>false</activeaudioangle>
                    <clip id="clip-7"/>
                  </angle>
                  <masterclipid>clip-master</masterclipid>
                </multiclip>
              </clipitem>
              <clipitem id="cs-403">
                <duration>97</duration>
                <rate>
                  <ntsc>false</ntsc>
                  <timebase>25</timebase>
                </rate>
                <in>46901</in>
                <out>46997</out>
                <start>46901</start>
                <end>46997</end>
                <file id="src-3"/>
                <sourcetrack>
                  <mediatype>video</mediatype>
                  <trackindex>1</trackindex>
                </sourcetrack>
                <multiclip id="mcs-403">
                  <name>MCS-403</name>
                  <masterclipid>clip-master</masterclipid>
                  <collapsed>false</collapsed>
                  <angle>
                    <activevideoangle>false</activevideoangle>
                    <activeaudioangle>false</activeaudioangle>
                    <clip id="clip-1"/>
                  </angle>
                  <angle>
                    <activevideoangle>false</activevideoangle>
                    <activeaudioangle>false</activeaudioangle>
                    <clip id="clip-2"/>
                  </angle>
                  <angle>
                    <activevideoangle>true</activevideoangle>
                    <activeaudioangle>true</activeaudioangle>
                    <clip id="clip-3"/>
                  </angle>
                  <angle>
                    <activevideoangle>false</activevideoangle>
                    <activeaudioangle>false</activeaudioangle>
                    <clip id="clip-4"/>
                  </angle>
                  <angle>
                    <activevideoangle>false</activevideoangle>
                    <activeaudioangle>false</activeaudioangle>
                    <clip id="clip-5"/>
                  </angle>
                  <angle>
                    <activevideoangle>false</activevideoangle>
                    <activeaudioangle>false</activeaudioangle>
                    <clip id="clip-6"/>
                  </angle>
                  <angle>
                    <activevideoangle>false</activevideoangle>
                    <activeaudioangle>false</activeaudioangle>
                    <clip id="clip-7"/>
                  </angle>
                  <masterclipid>clip-master</masterclipid>
                </multiclip>
              </clipitem>
              <clipitem id="cs-404">
                <duration>87</duration>
                <rate>
                  <ntsc>false</ntsc>
                  <timebase>25</timebase>
                </rate>
                <in>46997</in>
                <out>47083</out>
                <start>46997</start>
                <end>47083</end>
                <file id="src-6"/>
                <sourcetrack>
                  <mediatype>video</mediatype>
                  <trackindex>1</trackindex>
                </sourcetrack>
                <multiclip id="mcs-404">
                  <name>MCS-404</name>
                  <masterclipid>clip-master</masterclipid>
                  <collapsed>false</collapsed>
                  <angle>
                    <activevideoangle>false</activevideoangle>
                    <activeaudioangle>false</activeaudioangle>
                    <clip id="clip-1"/>
                  </angle>
                  <angle>
                    <activevideoangle>false</activevideoangle>
                    <activeaudioangle>false</activeaudioangle>
                    <clip id="clip-2"/>
                  </angle>
                  <angle>
                    <activevideoangle>false</activevideoangle>
                    <activeaudioangle>false</activeaudioangle>
                    <clip id="clip-3"/>
                  </angle>
                  <angle>
                    <activevideoangle>false</activevideoangle>
                    <activeaudioangle>false</activeaudioangle>
                    <clip id="clip-4"/>
                  </angle>
                  <angle>
                    <activevideoangle>false</activevideoangle>
                    <activeaudioangle>false</activeaudioangle>
                    <clip id="clip-5"/>
                  </angle>
                  <angle>
                    <activevideoangle>true</activevideoangle>
                    <activeaudioangle>true</activeaudioangle>
                    <clip id="clip-6"/>
                  </angle>
                  <angle>
                    <activevideoangle>false</activevideoangle>
                    <activeaudioangle>false</activeaudioangle>
                    <clip id="clip-7"/>
                  </angle>
                  <masterclipid>clip-master</masterclipid>
                </multiclip>
              </clipitem>
              <clipitem id="cs-405">
                <duration>51</duration>
                <rate>
                  <ntsc>false</ntsc>
                  <timebase>25</timebase>
                </rate>
                <in>47083</in>
                <out>47133</out>
                <start>47083</start>
                <end>47133</end>
                <file id="src-3"/>
                <sourcetrack>
                  <mediatype>video</mediatype>
                  <trackindex>1</trackindex>
                </sourcetrack>
                <multiclip id="mcs-405">
                  <name>MCS-405</name>
                  <masterclipid>clip-master</masterclipid>
                  <collapsed>false</collapsed>
                  <angle>
                    <activevideoangle>false</activevideoangle>
                    <activeaudioangle>false</activeaudioangle>
                    <clip id="clip-1"/>
                  </angle>
                  <angle>
                    <activevideoangle>false</activevideoangle>
                    <activeaudioangle>false</activeaudioangle>
                    <clip id="clip-2"/>
                  </angle>
                  <angle>
                    <activevideoangle>true</activevideoangle>
                    <activeaudioangle>true</activeaudioangle>
                    <clip id="clip-3"/>
                  </angle>
                  <angle>
                    <activevideoangle>false</activevideoangle>
                    <activeaudioangle>false</activeaudioangle>
                    <clip id="clip-4"/>
                  </angle>
                  <angle>
                    <activevideoangle>false</activevideoangle>
                    <activeaudioangle>false</activeaudioangle>
                    <clip id="clip-5"/>
                  </angle>
                  <angle>
                    <activevideoangle>false</activevideoangle>
                    <activeaudioangle>false</activeaudioangle>
                    <clip id="clip-6"/>
                  </angle>
                  <angle>
                    <activevideoangle>false</activevideoangle>
                    <activeaudioangle>false</activeaudioangle>
                    <clip id="clip-7"/>
                  </angle>
                  <masterclipid>clip-master</masterclipid>
                </multiclip>
              </clipitem>
              <clipitem id="cs-406">
                <duration>320</duration>
                <rate>
                  <ntsc>false</ntsc>
                  <timebase>25</timebase>
                </rate>
                <in>47133</in>
                <out>47452</out>
                <start>47133</start>
                <end>47452</end>
                <file id="src-1"/>
                <sourcetrack>
                  <mediatype>video</mediatype>
                  <trackindex>1</trackindex>
                </sourcetrack>
                <multiclip id="mcs-406">
                  <name>MCS-406</name>
                  <masterclipid>clip-master</masterclipid>
                  <collapsed>false</collapsed>
                  <angle>
                    <activevideoangle>true</activevideoangle>
                    <activeaudioangle>true</activeaudioangle>
                    <clip id="clip-1"/>
                  </angle>
                  <angle>
                    <activevideoangle>false</activevideoangle>
                    <activeaudioangle>false</activeaudioangle>
                    <clip id="clip-2"/>
                  </angle>
                  <angle>
                    <activevideoangle>false</activevideoangle>
                    <activeaudioangle>false</activeaudioangle>
                    <clip id="clip-3"/>
                  </angle>
                  <angle>
                    <activevideoangle>false</activevideoangle>
                    <activeaudioangle>false</activeaudioangle>
                    <clip id="clip-4"/>
                  </angle>
                  <angle>
                    <activevideoangle>false</activevideoangle>
                    <activeaudioangle>false</activeaudioangle>
                    <clip id="clip-5"/>
                  </angle>
                  <angle>
                    <activevideoangle>false</activevideoangle>
                    <activeaudioangle>false</activeaudioangle>
                    <clip id="clip-6"/>
                  </angle>
                  <angle>
                    <activevideoangle>false</activevideoangle>
                    <activeaudioangle>false</activeaudioangle>
                    <clip id="clip-7"/>
                  </angle>
                  <masterclipid>clip-master</masterclipid>
                </multiclip>
              </clipitem>
              <clipitem id="cs-407">
                <duration>105</duration>
                <rate>
                  <ntsc>false</ntsc>
                  <timebase>25</timebase>
                </rate>
                <in>47452</in>
                <out>47556</out>
                <start>47452</start>
                <end>47556</end>
                <file id="src-5"/>
                <sourcetrack>
                  <mediatype>video</mediatype>
                  <trackindex>1</trackindex>
                </sourcetrack>
                <multiclip id="mcs-407">
                  <name>MCS-407</name>
                  <masterclipid>clip-master</masterclipid>
                  <collapsed>false</collapsed>
                  <angle>
                    <activevideoangle>false</activevideoangle>
                    <activeaudioangle>false</activeaudioangle>
                    <clip id="clip-1"/>
                  </angle>
                  <angle>
                    <activevideoangle>false</activevideoangle>
                    <activeaudioangle>false</activeaudioangle>
                    <clip id="clip-2"/>
                  </angle>
                  <angle>
                    <activevideoangle>false</activevideoangle>
                    <activeaudioangle>false</activeaudioangle>
                    <clip id="clip-3"/>
                  </angle>
                  <angle>
                    <activevideoangle>false</activevideoangle>
                    <activeaudioangle>false</activeaudioangle>
                    <clip id="clip-4"/>
                  </angle>
                  <angle>
                    <activevideoangle>true</activevideoangle>
                    <activeaudioangle>true</activeaudioangle>
                    <clip id="clip-5"/>
                  </angle>
                  <angle>
                    <activevideoangle>false</activevideoangle>
                    <activeaudioangle>false</activeaudioangle>
                    <clip id="clip-6"/>
                  </angle>
                  <angle>
                    <activevideoangle>false</activevideoangle>
                    <activeaudioangle>false</activeaudioangle>
                    <clip id="clip-7"/>
                  </angle>
                  <masterclipid>clip-master</masterclipid>
                </multiclip>
              </clipitem>
              <clipitem id="cs-408">
                <duration>65</duration>
                <rate>
                  <ntsc>false</ntsc>
                  <timebase>25</timebase>
                </rate>
                <in>47556</in>
                <out>47620</out>
                <start>47556</start>
                <end>47620</end>
                <file id="src-1"/>
                <sourcetrack>
                  <mediatype>video</mediatype>
                  <trackindex>1</trackindex>
                </sourcetrack>
                <multiclip id="mcs-408">
                  <name>MCS-408</name>
                  <masterclipid>clip-master</masterclipid>
                  <collapsed>false</collapsed>
                  <angle>
                    <activevideoangle>true</activevideoangle>
                    <activeaudioangle>true</activeaudioangle>
                    <clip id="clip-1"/>
                  </angle>
                  <angle>
                    <activevideoangle>false</activevideoangle>
                    <activeaudioangle>false</activeaudioangle>
                    <clip id="clip-2"/>
                  </angle>
                  <angle>
                    <activevideoangle>false</activevideoangle>
                    <activeaudioangle>false</activeaudioangle>
                    <clip id="clip-3"/>
                  </angle>
                  <angle>
                    <activevideoangle>false</activevideoangle>
                    <activeaudioangle>false</activeaudioangle>
                    <clip id="clip-4"/>
                  </angle>
                  <angle>
                    <activevideoangle>false</activevideoangle>
                    <activeaudioangle>false</activeaudioangle>
                    <clip id="clip-5"/>
                  </angle>
                  <angle>
                    <activevideoangle>false</activevideoangle>
                    <activeaudioangle>false</activeaudioangle>
                    <clip id="clip-6"/>
                  </angle>
                  <angle>
                    <activevideoangle>false</activevideoangle>
                    <activeaudioangle>false</activeaudioangle>
                    <clip id="clip-7"/>
                  </angle>
                  <masterclipid>clip-master</masterclipid>
                </multiclip>
              </clipitem>
              <clipitem id="cs-409">
                <duration>695</duration>
                <rate>
                  <ntsc>false</ntsc>
                  <timebase>25</timebase>
                </rate>
                <in>47620</in>
                <out>48314</out>
                <start>47620</start>
                <end>48314</end>
                <file id="src-2"/>
                <sourcetrack>
                  <mediatype>video</mediatype>
                  <trackindex>1</trackindex>
                </sourcetrack>
                <multiclip id="mcs-409">
                  <name>MCS-409</name>
                  <masterclipid>clip-master</masterclipid>
                  <collapsed>false</collapsed>
                  <angle>
                    <activevideoangle>false</activevideoangle>
                    <activeaudioangle>false</activeaudioangle>
                    <clip id="clip-1"/>
                  </angle>
                  <angle>
                    <activevideoangle>true</activevideoangle>
                    <activeaudioangle>true</activeaudioangle>
                    <clip id="clip-2"/>
                  </angle>
                  <angle>
                    <activevideoangle>false</activevideoangle>
                    <activeaudioangle>false</activeaudioangle>
                    <clip id="clip-3"/>
                  </angle>
                  <angle>
                    <activevideoangle>false</activevideoangle>
                    <activeaudioangle>false</activeaudioangle>
                    <clip id="clip-4"/>
                  </angle>
                  <angle>
                    <activevideoangle>false</activevideoangle>
                    <activeaudioangle>false</activeaudioangle>
                    <clip id="clip-5"/>
                  </angle>
                  <angle>
                    <activevideoangle>false</activevideoangle>
                    <activeaudioangle>false</activeaudioangle>
                    <clip id="clip-6"/>
                  </angle>
                  <angle>
                    <activevideoangle>false</activevideoangle>
                    <activeaudioangle>false</activeaudioangle>
                    <clip id="clip-7"/>
                  </angle>
                  <masterclipid>clip-master</masterclipid>
                </multiclip>
              </clipitem>
              <clipitem id="cs-410">
                <duration>488</duration>
                <rate>
                  <ntsc>false</ntsc>
                  <timebase>25</timebase>
                </rate>
                <in>48314</in>
                <out>48801</out>
                <start>48314</start>
                <end>48801</end>
                <file id="src-1"/>
                <sourcetrack>
                  <mediatype>video</mediatype>
                  <trackindex>1</trackindex>
                </sourcetrack>
                <multiclip id="mcs-410">
                  <name>MCS-410</name>
                  <masterclipid>clip-master</masterclipid>
                  <collapsed>false</collapsed>
                  <angle>
                    <activevideoangle>true</activevideoangle>
                    <activeaudioangle>true</activeaudioangle>
                    <clip id="clip-1"/>
                  </angle>
                  <angle>
                    <activevideoangle>false</activevideoangle>
                    <activeaudioangle>false</activeaudioangle>
                    <clip id="clip-2"/>
                  </angle>
                  <angle>
                    <activevideoangle>false</activevideoangle>
                    <activeaudioangle>false</activeaudioangle>
                    <clip id="clip-3"/>
                  </angle>
                  <angle>
                    <activevideoangle>false</activevideoangle>
                    <activeaudioangle>false</activeaudioangle>
                    <clip id="clip-4"/>
                  </angle>
                  <angle>
                    <activevideoangle>false</activevideoangle>
                    <activeaudioangle>false</activeaudioangle>
                    <clip id="clip-5"/>
                  </angle>
                  <angle>
                    <activevideoangle>false</activevideoangle>
                    <activeaudioangle>false</activeaudioangle>
                    <clip id="clip-6"/>
                  </angle>
                  <angle>
                    <activevideoangle>false</activevideoangle>
                    <activeaudioangle>false</activeaudioangle>
                    <clip id="clip-7"/>
                  </angle>
                  <masterclipid>clip-master</masterclipid>
                </multiclip>
              </clipitem>
              <clipitem id="cs-411">
                <duration>231</duration>
                <rate>
                  <ntsc>false</ntsc>
                  <timebase>25</timebase>
                </rate>
                <in>48801</in>
                <out>49031</out>
                <start>48801</start>
                <end>49031</end>
                <file id="src-4"/>
                <sourcetrack>
                  <mediatype>video</mediatype>
                  <trackindex>1</trackindex>
                </sourcetrack>
                <multiclip id="mcs-411">
                  <name>MCS-411</name>
                  <masterclipid>clip-master</masterclipid>
                  <collapsed>false</collapsed>
                  <angle>
                    <activevideoangle>false</activevideoangle>
                    <activeaudioangle>false</activeaudioangle>
                    <clip id="clip-1"/>
                  </angle>
                  <angle>
                    <activevideoangle>false</activevideoangle>
                    <activeaudioangle>false</activeaudioangle>
                    <clip id="clip-2"/>
                  </angle>
                  <angle>
                    <activevideoangle>false</activevideoangle>
                    <activeaudioangle>false</activeaudioangle>
                    <clip id="clip-3"/>
                  </angle>
                  <angle>
                    <activevideoangle>true</activevideoangle>
                    <activeaudioangle>true</activeaudioangle>
                    <clip id="clip-4"/>
                  </angle>
                  <angle>
                    <activevideoangle>false</activevideoangle>
                    <activeaudioangle>false</activeaudioangle>
                    <clip id="clip-5"/>
                  </angle>
                  <angle>
                    <activevideoangle>false</activevideoangle>
                    <activeaudioangle>false</activeaudioangle>
                    <clip id="clip-6"/>
                  </angle>
                  <angle>
                    <activevideoangle>false</activevideoangle>
                    <activeaudioangle>false</activeaudioangle>
                    <clip id="clip-7"/>
                  </angle>
                  <masterclipid>clip-master</masterclipid>
                </multiclip>
              </clipitem>
              <clipitem id="cs-412">
                <duration>264</duration>
                <rate>
                  <ntsc>false</ntsc>
                  <timebase>25</timebase>
                </rate>
                <in>49031</in>
                <out>49294</out>
                <start>49031</start>
                <end>49294</end>
                <file id="src-2"/>
                <sourcetrack>
                  <mediatype>video</mediatype>
                  <trackindex>1</trackindex>
                </sourcetrack>
                <multiclip id="mcs-412">
                  <name>MCS-412</name>
                  <masterclipid>clip-master</masterclipid>
                  <collapsed>false</collapsed>
                  <angle>
                    <activevideoangle>false</activevideoangle>
                    <activeaudioangle>false</activeaudioangle>
                    <clip id="clip-1"/>
                  </angle>
                  <angle>
                    <activevideoangle>true</activevideoangle>
                    <activeaudioangle>true</activeaudioangle>
                    <clip id="clip-2"/>
                  </angle>
                  <angle>
                    <activevideoangle>false</activevideoangle>
                    <activeaudioangle>false</activeaudioangle>
                    <clip id="clip-3"/>
                  </angle>
                  <angle>
                    <activevideoangle>false</activevideoangle>
                    <activeaudioangle>false</activeaudioangle>
                    <clip id="clip-4"/>
                  </angle>
                  <angle>
                    <activevideoangle>false</activevideoangle>
                    <activeaudioangle>false</activeaudioangle>
                    <clip id="clip-5"/>
                  </angle>
                  <angle>
                    <activevideoangle>false</activevideoangle>
                    <activeaudioangle>false</activeaudioangle>
                    <clip id="clip-6"/>
                  </angle>
                  <angle>
                    <activevideoangle>false</activevideoangle>
                    <activeaudioangle>false</activeaudioangle>
                    <clip id="clip-7"/>
                  </angle>
                  <masterclipid>clip-master</masterclipid>
                </multiclip>
              </clipitem>
              <clipitem id="cs-413">
                <duration>88</duration>
                <rate>
                  <ntsc>false</ntsc>
                  <timebase>25</timebase>
                </rate>
                <in>49294</in>
                <out>49381</out>
                <start>49294</start>
                <end>49381</end>
                <file id="src-6"/>
                <sourcetrack>
                  <mediatype>video</mediatype>
                  <trackindex>1</trackindex>
                </sourcetrack>
                <multiclip id="mcs-413">
                  <name>MCS-413</name>
                  <masterclipid>clip-master</masterclipid>
                  <collapsed>false</collapsed>
                  <angle>
                    <activevideoangle>false</activevideoangle>
                    <activeaudioangle>false</activeaudioangle>
                    <clip id="clip-1"/>
                  </angle>
                  <angle>
                    <activevideoangle>false</activevideoangle>
                    <activeaudioangle>false</activeaudioangle>
                    <clip id="clip-2"/>
                  </angle>
                  <angle>
                    <activevideoangle>false</activevideoangle>
                    <activeaudioangle>false</activeaudioangle>
                    <clip id="clip-3"/>
                  </angle>
                  <angle>
                    <activevideoangle>false</activevideoangle>
                    <activeaudioangle>false</activeaudioangle>
                    <clip id="clip-4"/>
                  </angle>
                  <angle>
                    <activevideoangle>false</activevideoangle>
                    <activeaudioangle>false</activeaudioangle>
                    <clip id="clip-5"/>
                  </angle>
                  <angle>
                    <activevideoangle>true</activevideoangle>
                    <activeaudioangle>true</activeaudioangle>
                    <clip id="clip-6"/>
                  </angle>
                  <angle>
                    <activevideoangle>false</activevideoangle>
                    <activeaudioangle>false</activeaudioangle>
                    <clip id="clip-7"/>
                  </angle>
                  <masterclipid>clip-master</masterclipid>
                </multiclip>
              </clipitem>
              <clipitem id="cs-414">
                <duration>92</duration>
                <rate>
                  <ntsc>false</ntsc>
                  <timebase>25</timebase>
                </rate>
                <in>49381</in>
                <out>49472</out>
                <start>49381</start>
                <end>49472</end>
                <file id="src-3"/>
                <sourcetrack>
                  <mediatype>video</mediatype>
                  <trackindex>1</trackindex>
                </sourcetrack>
                <multiclip id="mcs-414">
                  <name>MCS-414</name>
                  <masterclipid>clip-master</masterclipid>
                  <collapsed>false</collapsed>
                  <angle>
                    <activevideoangle>false</activevideoangle>
                    <activeaudioangle>false</activeaudioangle>
                    <clip id="clip-1"/>
                  </angle>
                  <angle>
                    <activevideoangle>false</activevideoangle>
                    <activeaudioangle>false</activeaudioangle>
                    <clip id="clip-2"/>
                  </angle>
                  <angle>
                    <activevideoangle>true</activevideoangle>
                    <activeaudioangle>true</activeaudioangle>
                    <clip id="clip-3"/>
                  </angle>
                  <angle>
                    <activevideoangle>false</activevideoangle>
                    <activeaudioangle>false</activeaudioangle>
                    <clip id="clip-4"/>
                  </angle>
                  <angle>
                    <activevideoangle>false</activevideoangle>
                    <activeaudioangle>false</activeaudioangle>
                    <clip id="clip-5"/>
                  </angle>
                  <angle>
                    <activevideoangle>false</activevideoangle>
                    <activeaudioangle>false</activeaudioangle>
                    <clip id="clip-6"/>
                  </angle>
                  <angle>
                    <activevideoangle>false</activevideoangle>
                    <activeaudioangle>false</activeaudioangle>
                    <clip id="clip-7"/>
                  </angle>
                  <masterclipid>clip-master</masterclipid>
                </multiclip>
              </clipitem>
              <clipitem id="cs-415">
                <duration>121</duration>
                <rate>
                  <ntsc>false</ntsc>
                  <timebase>25</timebase>
                </rate>
                <in>49472</in>
                <out>49592</out>
                <start>49472</start>
                <end>49592</end>
                <file id="src-2"/>
                <sourcetrack>
                  <mediatype>video</mediatype>
                  <trackindex>1</trackindex>
                </sourcetrack>
                <multiclip id="mcs-415">
                  <name>MCS-415</name>
                  <masterclipid>clip-master</masterclipid>
                  <collapsed>false</collapsed>
                  <angle>
                    <activevideoangle>false</activevideoangle>
                    <activeaudioangle>false</activeaudioangle>
                    <clip id="clip-1"/>
                  </angle>
                  <angle>
                    <activevideoangle>true</activevideoangle>
                    <activeaudioangle>true</activeaudioangle>
                    <clip id="clip-2"/>
                  </angle>
                  <angle>
                    <activevideoangle>false</activevideoangle>
                    <activeaudioangle>false</activeaudioangle>
                    <clip id="clip-3"/>
                  </angle>
                  <angle>
                    <activevideoangle>false</activevideoangle>
                    <activeaudioangle>false</activeaudioangle>
                    <clip id="clip-4"/>
                  </angle>
                  <angle>
                    <activevideoangle>false</activevideoangle>
                    <activeaudioangle>false</activeaudioangle>
                    <clip id="clip-5"/>
                  </angle>
                  <angle>
                    <activevideoangle>false</activevideoangle>
                    <activeaudioangle>false</activeaudioangle>
                    <clip id="clip-6"/>
                  </angle>
                  <angle>
                    <activevideoangle>false</activevideoangle>
                    <activeaudioangle>false</activeaudioangle>
                    <clip id="clip-7"/>
                  </angle>
                  <masterclipid>clip-master</masterclipid>
                </multiclip>
              </clipitem>
              <clipitem id="cs-416">
                <duration>120</duration>
                <rate>
                  <ntsc>false</ntsc>
                  <timebase>25</timebase>
                </rate>
                <in>49592</in>
                <out>49711</out>
                <start>49592</start>
                <end>49711</end>
                <file id="src-4"/>
                <sourcetrack>
                  <mediatype>video</mediatype>
                  <trackindex>1</trackindex>
                </sourcetrack>
                <multiclip id="mcs-416">
                  <name>MCS-416</name>
                  <masterclipid>clip-master</masterclipid>
                  <collapsed>false</collapsed>
                  <angle>
                    <activevideoangle>false</activevideoangle>
                    <activeaudioangle>false</activeaudioangle>
                    <clip id="clip-1"/>
                  </angle>
                  <angle>
                    <activevideoangle>false</activevideoangle>
                    <activeaudioangle>false</activeaudioangle>
                    <clip id="clip-2"/>
                  </angle>
                  <angle>
                    <activevideoangle>false</activevideoangle>
                    <activeaudioangle>false</activeaudioangle>
                    <clip id="clip-3"/>
                  </angle>
                  <angle>
                    <activevideoangle>true</activevideoangle>
                    <activeaudioangle>true</activeaudioangle>
                    <clip id="clip-4"/>
                  </angle>
                  <angle>
                    <activevideoangle>false</activevideoangle>
                    <activeaudioangle>false</activeaudioangle>
                    <clip id="clip-5"/>
                  </angle>
                  <angle>
                    <activevideoangle>false</activevideoangle>
                    <activeaudioangle>false</activeaudioangle>
                    <clip id="clip-6"/>
                  </angle>
                  <angle>
                    <activevideoangle>false</activevideoangle>
                    <activeaudioangle>false</activeaudioangle>
                    <clip id="clip-7"/>
                  </angle>
                  <masterclipid>clip-master</masterclipid>
                </multiclip>
              </clipitem>
              <clipitem id="cs-417">
                <duration>94</duration>
                <rate>
                  <ntsc>false</ntsc>
                  <timebase>25</timebase>
                </rate>
                <in>49711</in>
                <out>49804</out>
                <start>49711</start>
                <end>49804</end>
                <file id="src-3"/>
                <sourcetrack>
                  <mediatype>video</mediatype>
                  <trackindex>1</trackindex>
                </sourcetrack>
                <multiclip id="mcs-417">
                  <name>MCS-417</name>
                  <masterclipid>clip-master</masterclipid>
                  <collapsed>false</collapsed>
                  <angle>
                    <activevideoangle>false</activevideoangle>
                    <activeaudioangle>false</activeaudioangle>
                    <clip id="clip-1"/>
                  </angle>
                  <angle>
                    <activevideoangle>false</activevideoangle>
                    <activeaudioangle>false</activeaudioangle>
                    <clip id="clip-2"/>
                  </angle>
                  <angle>
                    <activevideoangle>true</activevideoangle>
                    <activeaudioangle>true</activeaudioangle>
                    <clip id="clip-3"/>
                  </angle>
                  <angle>
                    <activevideoangle>false</activevideoangle>
                    <activeaudioangle>false</activeaudioangle>
                    <clip id="clip-4"/>
                  </angle>
                  <angle>
                    <activevideoangle>false</activevideoangle>
                    <activeaudioangle>false</activeaudioangle>
                    <clip id="clip-5"/>
                  </angle>
                  <angle>
                    <activevideoangle>false</activevideoangle>
                    <activeaudioangle>false</activeaudioangle>
                    <clip id="clip-6"/>
                  </angle>
                  <angle>
                    <activevideoangle>false</activevideoangle>
                    <activeaudioangle>false</activeaudioangle>
                    <clip id="clip-7"/>
                  </angle>
                  <masterclipid>clip-master</masterclipid>
                </multiclip>
              </clipitem>
              <clipitem id="cs-418">
                <duration>75</duration>
                <rate>
                  <ntsc>false</ntsc>
                  <timebase>25</timebase>
                </rate>
                <in>49804</in>
                <out>49878</out>
                <start>49804</start>
                <end>49878</end>
                <file id="src-1"/>
                <sourcetrack>
                  <mediatype>video</mediatype>
                  <trackindex>1</trackindex>
                </sourcetrack>
                <multiclip id="mcs-418">
                  <name>MCS-418</name>
                  <masterclipid>clip-master</masterclipid>
                  <collapsed>false</collapsed>
                  <angle>
                    <activevideoangle>true</activevideoangle>
                    <activeaudioangle>true</activeaudioangle>
                    <clip id="clip-1"/>
                  </angle>
                  <angle>
                    <activevideoangle>false</activevideoangle>
                    <activeaudioangle>false</activeaudioangle>
                    <clip id="clip-2"/>
                  </angle>
                  <angle>
                    <activevideoangle>false</activevideoangle>
                    <activeaudioangle>false</activeaudioangle>
                    <clip id="clip-3"/>
                  </angle>
                  <angle>
                    <activevideoangle>false</activevideoangle>
                    <activeaudioangle>false</activeaudioangle>
                    <clip id="clip-4"/>
                  </angle>
                  <angle>
                    <activevideoangle>false</activevideoangle>
                    <activeaudioangle>false</activeaudioangle>
                    <clip id="clip-5"/>
                  </angle>
                  <angle>
                    <activevideoangle>false</activevideoangle>
                    <activeaudioangle>false</activeaudioangle>
                    <clip id="clip-6"/>
                  </angle>
                  <angle>
                    <activevideoangle>false</activevideoangle>
                    <activeaudioangle>false</activeaudioangle>
                    <clip id="clip-7"/>
                  </angle>
                  <masterclipid>clip-master</masterclipid>
                </multiclip>
              </clipitem>
              <clipitem id="cs-419">
                <duration>114</duration>
                <rate>
                  <ntsc>false</ntsc>
                  <timebase>25</timebase>
                </rate>
                <in>49878</in>
                <out>49991</out>
                <start>49878</start>
                <end>49991</end>
                <file id="src-3"/>
                <sourcetrack>
                  <mediatype>video</mediatype>
                  <trackindex>1</trackindex>
                </sourcetrack>
                <multiclip id="mcs-419">
                  <name>MCS-419</name>
                  <masterclipid>clip-master</masterclipid>
                  <collapsed>false</collapsed>
                  <angle>
                    <activevideoangle>false</activevideoangle>
                    <activeaudioangle>false</activeaudioangle>
                    <clip id="clip-1"/>
                  </angle>
                  <angle>
                    <activevideoangle>false</activevideoangle>
                    <activeaudioangle>false</activeaudioangle>
                    <clip id="clip-2"/>
                  </angle>
                  <angle>
                    <activevideoangle>true</activevideoangle>
                    <activeaudioangle>true</activeaudioangle>
                    <clip id="clip-3"/>
                  </angle>
                  <angle>
                    <activevideoangle>false</activevideoangle>
                    <activeaudioangle>false</activeaudioangle>
                    <clip id="clip-4"/>
                  </angle>
                  <angle>
                    <activevideoangle>false</activevideoangle>
                    <activeaudioangle>false</activeaudioangle>
                    <clip id="clip-5"/>
                  </angle>
                  <angle>
                    <activevideoangle>false</activevideoangle>
                    <activeaudioangle>false</activeaudioangle>
                    <clip id="clip-6"/>
                  </angle>
                  <angle>
                    <activevideoangle>false</activevideoangle>
                    <activeaudioangle>false</activeaudioangle>
                    <clip id="clip-7"/>
                  </angle>
                  <masterclipid>clip-master</masterclipid>
                </multiclip>
              </clipitem>
              <clipitem id="cs-420">
                <duration>156</duration>
                <rate>
                  <ntsc>false</ntsc>
                  <timebase>25</timebase>
                </rate>
                <in>49991</in>
                <out>50146</out>
                <start>49991</start>
                <end>50146</end>
                <file id="src-2"/>
                <sourcetrack>
                  <mediatype>video</mediatype>
                  <trackindex>1</trackindex>
                </sourcetrack>
                <multiclip id="mcs-420">
                  <name>MCS-420</name>
                  <masterclipid>clip-master</masterclipid>
                  <collapsed>false</collapsed>
                  <angle>
                    <activevideoangle>false</activevideoangle>
                    <activeaudioangle>false</activeaudioangle>
                    <clip id="clip-1"/>
                  </angle>
                  <angle>
                    <activevideoangle>true</activevideoangle>
                    <activeaudioangle>true</activeaudioangle>
                    <clip id="clip-2"/>
                  </angle>
                  <angle>
                    <activevideoangle>false</activevideoangle>
                    <activeaudioangle>false</activeaudioangle>
                    <clip id="clip-3"/>
                  </angle>
                  <angle>
                    <activevideoangle>false</activevideoangle>
                    <activeaudioangle>false</activeaudioangle>
                    <clip id="clip-4"/>
                  </angle>
                  <angle>
                    <activevideoangle>false</activevideoangle>
                    <activeaudioangle>false</activeaudioangle>
                    <clip id="clip-5"/>
                  </angle>
                  <angle>
                    <activevideoangle>false</activevideoangle>
                    <activeaudioangle>false</activeaudioangle>
                    <clip id="clip-6"/>
                  </angle>
                  <angle>
                    <activevideoangle>false</activevideoangle>
                    <activeaudioangle>false</activeaudioangle>
                    <clip id="clip-7"/>
                  </angle>
                  <masterclipid>clip-master</masterclipid>
                </multiclip>
              </clipitem>
              <clipitem id="cs-421">
                <duration>58</duration>
                <rate>
                  <ntsc>false</ntsc>
                  <timebase>25</timebase>
                </rate>
                <in>50146</in>
                <out>50203</out>
                <start>50146</start>
                <end>50203</end>
                <file id="src-4"/>
                <sourcetrack>
                  <mediatype>video</mediatype>
                  <trackindex>1</trackindex>
                </sourcetrack>
                <multiclip id="mcs-421">
                  <name>MCS-421</name>
                  <masterclipid>clip-master</masterclipid>
                  <collapsed>false</collapsed>
                  <angle>
                    <activevideoangle>false</activevideoangle>
                    <activeaudioangle>false</activeaudioangle>
                    <clip id="clip-1"/>
                  </angle>
                  <angle>
                    <activevideoangle>false</activevideoangle>
                    <activeaudioangle>false</activeaudioangle>
                    <clip id="clip-2"/>
                  </angle>
                  <angle>
                    <activevideoangle>false</activevideoangle>
                    <activeaudioangle>false</activeaudioangle>
                    <clip id="clip-3"/>
                  </angle>
                  <angle>
                    <activevideoangle>true</activevideoangle>
                    <activeaudioangle>true</activeaudioangle>
                    <clip id="clip-4"/>
                  </angle>
                  <angle>
                    <activevideoangle>false</activevideoangle>
                    <activeaudioangle>false</activeaudioangle>
                    <clip id="clip-5"/>
                  </angle>
                  <angle>
                    <activevideoangle>false</activevideoangle>
                    <activeaudioangle>false</activeaudioangle>
                    <clip id="clip-6"/>
                  </angle>
                  <angle>
                    <activevideoangle>false</activevideoangle>
                    <activeaudioangle>false</activeaudioangle>
                    <clip id="clip-7"/>
                  </angle>
                  <masterclipid>clip-master</masterclipid>
                </multiclip>
              </clipitem>
              <clipitem id="cs-422">
                <duration>59</duration>
                <rate>
                  <ntsc>false</ntsc>
                  <timebase>25</timebase>
                </rate>
                <in>50203</in>
                <out>50261</out>
                <start>50203</start>
                <end>50261</end>
                <file id="src-6"/>
                <sourcetrack>
                  <mediatype>video</mediatype>
                  <trackindex>1</trackindex>
                </sourcetrack>
                <multiclip id="mcs-422">
                  <name>MCS-422</name>
                  <masterclipid>clip-master</masterclipid>
                  <collapsed>false</collapsed>
                  <angle>
                    <activevideoangle>false</activevideoangle>
                    <activeaudioangle>false</activeaudioangle>
                    <clip id="clip-1"/>
                  </angle>
                  <angle>
                    <activevideoangle>false</activevideoangle>
                    <activeaudioangle>false</activeaudioangle>
                    <clip id="clip-2"/>
                  </angle>
                  <angle>
                    <activevideoangle>false</activevideoangle>
                    <activeaudioangle>false</activeaudioangle>
                    <clip id="clip-3"/>
                  </angle>
                  <angle>
                    <activevideoangle>false</activevideoangle>
                    <activeaudioangle>false</activeaudioangle>
                    <clip id="clip-4"/>
                  </angle>
                  <angle>
                    <activevideoangle>false</activevideoangle>
                    <activeaudioangle>false</activeaudioangle>
                    <clip id="clip-5"/>
                  </angle>
                  <angle>
                    <activevideoangle>true</activevideoangle>
                    <activeaudioangle>true</activeaudioangle>
                    <clip id="clip-6"/>
                  </angle>
                  <angle>
                    <activevideoangle>false</activevideoangle>
                    <activeaudioangle>false</activeaudioangle>
                    <clip id="clip-7"/>
                  </angle>
                  <masterclipid>clip-master</masterclipid>
                </multiclip>
              </clipitem>
              <clipitem id="cs-423">
                <duration>126</duration>
                <rate>
                  <ntsc>false</ntsc>
                  <timebase>25</timebase>
                </rate>
                <in>50261</in>
                <out>50386</out>
                <start>50261</start>
                <end>50386</end>
                <file id="src-3"/>
                <sourcetrack>
                  <mediatype>video</mediatype>
                  <trackindex>1</trackindex>
                </sourcetrack>
                <multiclip id="mcs-423">
                  <name>MCS-423</name>
                  <masterclipid>clip-master</masterclipid>
                  <collapsed>false</collapsed>
                  <angle>
                    <activevideoangle>false</activevideoangle>
                    <activeaudioangle>false</activeaudioangle>
                    <clip id="clip-1"/>
                  </angle>
                  <angle>
                    <activevideoangle>false</activevideoangle>
                    <activeaudioangle>false</activeaudioangle>
                    <clip id="clip-2"/>
                  </angle>
                  <angle>
                    <activevideoangle>true</activevideoangle>
                    <activeaudioangle>true</activeaudioangle>
                    <clip id="clip-3"/>
                  </angle>
                  <angle>
                    <activevideoangle>false</activevideoangle>
                    <activeaudioangle>false</activeaudioangle>
                    <clip id="clip-4"/>
                  </angle>
                  <angle>
                    <activevideoangle>false</activevideoangle>
                    <activeaudioangle>false</activeaudioangle>
                    <clip id="clip-5"/>
                  </angle>
                  <angle>
                    <activevideoangle>false</activevideoangle>
                    <activeaudioangle>false</activeaudioangle>
                    <clip id="clip-6"/>
                  </angle>
                  <angle>
                    <activevideoangle>false</activevideoangle>
                    <activeaudioangle>false</activeaudioangle>
                    <clip id="clip-7"/>
                  </angle>
                  <masterclipid>clip-master</masterclipid>
                </multiclip>
              </clipitem>
              <clipitem id="cs-424">
                <duration>42</duration>
                <rate>
                  <ntsc>false</ntsc>
                  <timebase>25</timebase>
                </rate>
                <in>50386</in>
                <out>50427</out>
                <start>50386</start>
                <end>50427</end>
                <file id="src-6"/>
                <sourcetrack>
                  <mediatype>video</mediatype>
                  <trackindex>1</trackindex>
                </sourcetrack>
                <multiclip id="mcs-424">
                  <name>MCS-424</name>
                  <masterclipid>clip-master</masterclipid>
                  <collapsed>false</collapsed>
                  <angle>
                    <activevideoangle>false</activevideoangle>
                    <activeaudioangle>false</activeaudioangle>
                    <clip id="clip-1"/>
                  </angle>
                  <angle>
                    <activevideoangle>false</activevideoangle>
                    <activeaudioangle>false</activeaudioangle>
                    <clip id="clip-2"/>
                  </angle>
                  <angle>
                    <activevideoangle>false</activevideoangle>
                    <activeaudioangle>false</activeaudioangle>
                    <clip id="clip-3"/>
                  </angle>
                  <angle>
                    <activevideoangle>false</activevideoangle>
                    <activeaudioangle>false</activeaudioangle>
                    <clip id="clip-4"/>
                  </angle>
                  <angle>
                    <activevideoangle>false</activevideoangle>
                    <activeaudioangle>false</activeaudioangle>
                    <clip id="clip-5"/>
                  </angle>
                  <angle>
                    <activevideoangle>true</activevideoangle>
                    <activeaudioangle>true</activeaudioangle>
                    <clip id="clip-6"/>
                  </angle>
                  <angle>
                    <activevideoangle>false</activevideoangle>
                    <activeaudioangle>false</activeaudioangle>
                    <clip id="clip-7"/>
                  </angle>
                  <masterclipid>clip-master</masterclipid>
                </multiclip>
              </clipitem>
              <clipitem id="cs-425">
                <duration>134</duration>
                <rate>
                  <ntsc>false</ntsc>
                  <timebase>25</timebase>
                </rate>
                <in>50427</in>
                <out>50560</out>
                <start>50427</start>
                <end>50560</end>
                <file id="src-1"/>
                <sourcetrack>
                  <mediatype>video</mediatype>
                  <trackindex>1</trackindex>
                </sourcetrack>
                <multiclip id="mcs-425">
                  <name>MCS-425</name>
                  <masterclipid>clip-master</masterclipid>
                  <collapsed>false</collapsed>
                  <angle>
                    <activevideoangle>true</activevideoangle>
                    <activeaudioangle>true</activeaudioangle>
                    <clip id="clip-1"/>
                  </angle>
                  <angle>
                    <activevideoangle>false</activevideoangle>
                    <activeaudioangle>false</activeaudioangle>
                    <clip id="clip-2"/>
                  </angle>
                  <angle>
                    <activevideoangle>false</activevideoangle>
                    <activeaudioangle>false</activeaudioangle>
                    <clip id="clip-3"/>
                  </angle>
                  <angle>
                    <activevideoangle>false</activevideoangle>
                    <activeaudioangle>false</activeaudioangle>
                    <clip id="clip-4"/>
                  </angle>
                  <angle>
                    <activevideoangle>false</activevideoangle>
                    <activeaudioangle>false</activeaudioangle>
                    <clip id="clip-5"/>
                  </angle>
                  <angle>
                    <activevideoangle>false</activevideoangle>
                    <activeaudioangle>false</activeaudioangle>
                    <clip id="clip-6"/>
                  </angle>
                  <angle>
                    <activevideoangle>false</activevideoangle>
                    <activeaudioangle>false</activeaudioangle>
                    <clip id="clip-7"/>
                  </angle>
                  <masterclipid>clip-master</masterclipid>
                </multiclip>
              </clipitem>
              <clipitem id="cs-426">
                <duration>111</duration>
                <rate>
                  <ntsc>false</ntsc>
                  <timebase>25</timebase>
                </rate>
                <in>50560</in>
                <out>50670</out>
                <start>50560</start>
                <end>50670</end>
                <file id="src-3"/>
                <sourcetrack>
                  <mediatype>video</mediatype>
                  <trackindex>1</trackindex>
                </sourcetrack>
                <multiclip id="mcs-426">
                  <name>MCS-426</name>
                  <masterclipid>clip-master</masterclipid>
                  <collapsed>false</collapsed>
                  <angle>
                    <activevideoangle>false</activevideoangle>
                    <activeaudioangle>false</activeaudioangle>
                    <clip id="clip-1"/>
                  </angle>
                  <angle>
                    <activevideoangle>false</activevideoangle>
                    <activeaudioangle>false</activeaudioangle>
                    <clip id="clip-2"/>
                  </angle>
                  <angle>
                    <activevideoangle>true</activevideoangle>
                    <activeaudioangle>true</activeaudioangle>
                    <clip id="clip-3"/>
                  </angle>
                  <angle>
                    <activevideoangle>false</activevideoangle>
                    <activeaudioangle>false</activeaudioangle>
                    <clip id="clip-4"/>
                  </angle>
                  <angle>
                    <activevideoangle>false</activevideoangle>
                    <activeaudioangle>false</activeaudioangle>
                    <clip id="clip-5"/>
                  </angle>
                  <angle>
                    <activevideoangle>false</activevideoangle>
                    <activeaudioangle>false</activeaudioangle>
                    <clip id="clip-6"/>
                  </angle>
                  <angle>
                    <activevideoangle>false</activevideoangle>
                    <activeaudioangle>false</activeaudioangle>
                    <clip id="clip-7"/>
                  </angle>
                  <masterclipid>clip-master</masterclipid>
                </multiclip>
              </clipitem>
              <clipitem id="cs-427">
                <duration>86</duration>
                <rate>
                  <ntsc>false</ntsc>
                  <timebase>25</timebase>
                </rate>
                <in>50670</in>
                <out>50755</out>
                <start>50670</start>
                <end>50755</end>
                <file id="src-2"/>
                <sourcetrack>
                  <mediatype>video</mediatype>
                  <trackindex>1</trackindex>
                </sourcetrack>
                <multiclip id="mcs-427">
                  <name>MCS-427</name>
                  <masterclipid>clip-master</masterclipid>
                  <collapsed>false</collapsed>
                  <angle>
                    <activevideoangle>false</activevideoangle>
                    <activeaudioangle>false</activeaudioangle>
                    <clip id="clip-1"/>
                  </angle>
                  <angle>
                    <activevideoangle>true</activevideoangle>
                    <activeaudioangle>true</activeaudioangle>
                    <clip id="clip-2"/>
                  </angle>
                  <angle>
                    <activevideoangle>false</activevideoangle>
                    <activeaudioangle>false</activeaudioangle>
                    <clip id="clip-3"/>
                  </angle>
                  <angle>
                    <activevideoangle>false</activevideoangle>
                    <activeaudioangle>false</activeaudioangle>
                    <clip id="clip-4"/>
                  </angle>
                  <angle>
                    <activevideoangle>false</activevideoangle>
                    <activeaudioangle>false</activeaudioangle>
                    <clip id="clip-5"/>
                  </angle>
                  <angle>
                    <activevideoangle>false</activevideoangle>
                    <activeaudioangle>false</activeaudioangle>
                    <clip id="clip-6"/>
                  </angle>
                  <angle>
                    <activevideoangle>false</activevideoangle>
                    <activeaudioangle>false</activeaudioangle>
                    <clip id="clip-7"/>
                  </angle>
                  <masterclipid>clip-master</masterclipid>
                </multiclip>
              </clipitem>
              <clipitem id="cs-428">
                <duration>27</duration>
                <rate>
                  <ntsc>false</ntsc>
                  <timebase>25</timebase>
                </rate>
                <in>50755</in>
                <out>50781</out>
                <start>50755</start>
                <end>50781</end>
                <file id="src-6"/>
                <sourcetrack>
                  <mediatype>video</mediatype>
                  <trackindex>1</trackindex>
                </sourcetrack>
                <multiclip id="mcs-428">
                  <name>MCS-428</name>
                  <masterclipid>clip-master</masterclipid>
                  <collapsed>false</collapsed>
                  <angle>
                    <activevideoangle>false</activevideoangle>
                    <activeaudioangle>false</activeaudioangle>
                    <clip id="clip-1"/>
                  </angle>
                  <angle>
                    <activevideoangle>false</activevideoangle>
                    <activeaudioangle>false</activeaudioangle>
                    <clip id="clip-2"/>
                  </angle>
                  <angle>
                    <activevideoangle>false</activevideoangle>
                    <activeaudioangle>false</activeaudioangle>
                    <clip id="clip-3"/>
                  </angle>
                  <angle>
                    <activevideoangle>false</activevideoangle>
                    <activeaudioangle>false</activeaudioangle>
                    <clip id="clip-4"/>
                  </angle>
                  <angle>
                    <activevideoangle>false</activevideoangle>
                    <activeaudioangle>false</activeaudioangle>
                    <clip id="clip-5"/>
                  </angle>
                  <angle>
                    <activevideoangle>true</activevideoangle>
                    <activeaudioangle>true</activeaudioangle>
                    <clip id="clip-6"/>
                  </angle>
                  <angle>
                    <activevideoangle>false</activevideoangle>
                    <activeaudioangle>false</activeaudioangle>
                    <clip id="clip-7"/>
                  </angle>
                  <masterclipid>clip-master</masterclipid>
                </multiclip>
              </clipitem>
              <clipitem id="cs-429">
                <duration>131</duration>
                <rate>
                  <ntsc>false</ntsc>
                  <timebase>25</timebase>
                </rate>
                <in>50781</in>
                <out>50911</out>
                <start>50781</start>
                <end>50911</end>
                <file id="src-3"/>
                <sourcetrack>
                  <mediatype>video</mediatype>
                  <trackindex>1</trackindex>
                </sourcetrack>
                <multiclip id="mcs-429">
                  <name>MCS-429</name>
                  <masterclipid>clip-master</masterclipid>
                  <collapsed>false</collapsed>
                  <angle>
                    <activevideoangle>false</activevideoangle>
                    <activeaudioangle>false</activeaudioangle>
                    <clip id="clip-1"/>
                  </angle>
                  <angle>
                    <activevideoangle>false</activevideoangle>
                    <activeaudioangle>false</activeaudioangle>
                    <clip id="clip-2"/>
                  </angle>
                  <angle>
                    <activevideoangle>true</activevideoangle>
                    <activeaudioangle>true</activeaudioangle>
                    <clip id="clip-3"/>
                  </angle>
                  <angle>
                    <activevideoangle>false</activevideoangle>
                    <activeaudioangle>false</activeaudioangle>
                    <clip id="clip-4"/>
                  </angle>
                  <angle>
                    <activevideoangle>false</activevideoangle>
                    <activeaudioangle>false</activeaudioangle>
                    <clip id="clip-5"/>
                  </angle>
                  <angle>
                    <activevideoangle>false</activevideoangle>
                    <activeaudioangle>false</activeaudioangle>
                    <clip id="clip-6"/>
                  </angle>
                  <angle>
                    <activevideoangle>false</activevideoangle>
                    <activeaudioangle>false</activeaudioangle>
                    <clip id="clip-7"/>
                  </angle>
                  <masterclipid>clip-master</masterclipid>
                </multiclip>
              </clipitem>
              <clipitem id="cs-430">
                <duration>47</duration>
                <rate>
                  <ntsc>false</ntsc>
                  <timebase>25</timebase>
                </rate>
                <in>50911</in>
                <out>50957</out>
                <start>50911</start>
                <end>50957</end>
                <file id="src-4"/>
                <sourcetrack>
                  <mediatype>video</mediatype>
                  <trackindex>1</trackindex>
                </sourcetrack>
                <multiclip id="mcs-430">
                  <name>MCS-430</name>
                  <masterclipid>clip-master</masterclipid>
                  <collapsed>false</collapsed>
                  <angle>
                    <activevideoangle>false</activevideoangle>
                    <activeaudioangle>false</activeaudioangle>
                    <clip id="clip-1"/>
                  </angle>
                  <angle>
                    <activevideoangle>false</activevideoangle>
                    <activeaudioangle>false</activeaudioangle>
                    <clip id="clip-2"/>
                  </angle>
                  <angle>
                    <activevideoangle>false</activevideoangle>
                    <activeaudioangle>false</activeaudioangle>
                    <clip id="clip-3"/>
                  </angle>
                  <angle>
                    <activevideoangle>true</activevideoangle>
                    <activeaudioangle>true</activeaudioangle>
                    <clip id="clip-4"/>
                  </angle>
                  <angle>
                    <activevideoangle>false</activevideoangle>
                    <activeaudioangle>false</activeaudioangle>
                    <clip id="clip-5"/>
                  </angle>
                  <angle>
                    <activevideoangle>false</activevideoangle>
                    <activeaudioangle>false</activeaudioangle>
                    <clip id="clip-6"/>
                  </angle>
                  <angle>
                    <activevideoangle>false</activevideoangle>
                    <activeaudioangle>false</activeaudioangle>
                    <clip id="clip-7"/>
                  </angle>
                  <masterclipid>clip-master</masterclipid>
                </multiclip>
              </clipitem>
              <clipitem id="cs-431">
                <duration>150</duration>
                <rate>
                  <ntsc>false</ntsc>
                  <timebase>25</timebase>
                </rate>
                <in>50957</in>
                <out>51106</out>
                <start>50957</start>
                <end>51106</end>
                <file id="src-2"/>
                <sourcetrack>
                  <mediatype>video</mediatype>
                  <trackindex>1</trackindex>
                </sourcetrack>
                <multiclip id="mcs-431">
                  <name>MCS-431</name>
                  <masterclipid>clip-master</masterclipid>
                  <collapsed>false</collapsed>
                  <angle>
                    <activevideoangle>false</activevideoangle>
                    <activeaudioangle>false</activeaudioangle>
                    <clip id="clip-1"/>
                  </angle>
                  <angle>
                    <activevideoangle>true</activevideoangle>
                    <activeaudioangle>true</activeaudioangle>
                    <clip id="clip-2"/>
                  </angle>
                  <angle>
                    <activevideoangle>false</activevideoangle>
                    <activeaudioangle>false</activeaudioangle>
                    <clip id="clip-3"/>
                  </angle>
                  <angle>
                    <activevideoangle>false</activevideoangle>
                    <activeaudioangle>false</activeaudioangle>
                    <clip id="clip-4"/>
                  </angle>
                  <angle>
                    <activevideoangle>false</activevideoangle>
                    <activeaudioangle>false</activeaudioangle>
                    <clip id="clip-5"/>
                  </angle>
                  <angle>
                    <activevideoangle>false</activevideoangle>
                    <activeaudioangle>false</activeaudioangle>
                    <clip id="clip-6"/>
                  </angle>
                  <angle>
                    <activevideoangle>false</activevideoangle>
                    <activeaudioangle>false</activeaudioangle>
                    <clip id="clip-7"/>
                  </angle>
                  <masterclipid>clip-master</masterclipid>
                </multiclip>
              </clipitem>
              <clipitem id="cs-432">
                <duration>82</duration>
                <rate>
                  <ntsc>false</ntsc>
                  <timebase>25</timebase>
                </rate>
                <in>51106</in>
                <out>51187</out>
                <start>51106</start>
                <end>51187</end>
                <file id="src-4"/>
                <sourcetrack>
                  <mediatype>video</mediatype>
                  <trackindex>1</trackindex>
                </sourcetrack>
                <multiclip id="mcs-432">
                  <name>MCS-432</name>
                  <masterclipid>clip-master</masterclipid>
                  <collapsed>false</collapsed>
                  <angle>
                    <activevideoangle>false</activevideoangle>
                    <activeaudioangle>false</activeaudioangle>
                    <clip id="clip-1"/>
                  </angle>
                  <angle>
                    <activevideoangle>false</activevideoangle>
                    <activeaudioangle>false</activeaudioangle>
                    <clip id="clip-2"/>
                  </angle>
                  <angle>
                    <activevideoangle>false</activevideoangle>
                    <activeaudioangle>false</activeaudioangle>
                    <clip id="clip-3"/>
                  </angle>
                  <angle>
                    <activevideoangle>true</activevideoangle>
                    <activeaudioangle>true</activeaudioangle>
                    <clip id="clip-4"/>
                  </angle>
                  <angle>
                    <activevideoangle>false</activevideoangle>
                    <activeaudioangle>false</activeaudioangle>
                    <clip id="clip-5"/>
                  </angle>
                  <angle>
                    <activevideoangle>false</activevideoangle>
                    <activeaudioangle>false</activeaudioangle>
                    <clip id="clip-6"/>
                  </angle>
                  <angle>
                    <activevideoangle>false</activevideoangle>
                    <activeaudioangle>false</activeaudioangle>
                    <clip id="clip-7"/>
                  </angle>
                  <masterclipid>clip-master</masterclipid>
                </multiclip>
              </clipitem>
              <clipitem id="cs-433">
                <duration>110</duration>
                <rate>
                  <ntsc>false</ntsc>
                  <timebase>25</timebase>
                </rate>
                <in>51187</in>
                <out>51296</out>
                <start>51187</start>
                <end>51296</end>
                <file id="src-3"/>
                <sourcetrack>
                  <mediatype>video</mediatype>
                  <trackindex>1</trackindex>
                </sourcetrack>
                <multiclip id="mcs-433">
                  <name>MCS-433</name>
                  <masterclipid>clip-master</masterclipid>
                  <collapsed>false</collapsed>
                  <angle>
                    <activevideoangle>false</activevideoangle>
                    <activeaudioangle>false</activeaudioangle>
                    <clip id="clip-1"/>
                  </angle>
                  <angle>
                    <activevideoangle>false</activevideoangle>
                    <activeaudioangle>false</activeaudioangle>
                    <clip id="clip-2"/>
                  </angle>
                  <angle>
                    <activevideoangle>true</activevideoangle>
                    <activeaudioangle>true</activeaudioangle>
                    <clip id="clip-3"/>
                  </angle>
                  <angle>
                    <activevideoangle>false</activevideoangle>
                    <activeaudioangle>false</activeaudioangle>
                    <clip id="clip-4"/>
                  </angle>
                  <angle>
                    <activevideoangle>false</activevideoangle>
                    <activeaudioangle>false</activeaudioangle>
                    <clip id="clip-5"/>
                  </angle>
                  <angle>
                    <activevideoangle>false</activevideoangle>
                    <activeaudioangle>false</activeaudioangle>
                    <clip id="clip-6"/>
                  </angle>
                  <angle>
                    <activevideoangle>false</activevideoangle>
                    <activeaudioangle>false</activeaudioangle>
                    <clip id="clip-7"/>
                  </angle>
                  <masterclipid>clip-master</masterclipid>
                </multiclip>
              </clipitem>
              <clipitem id="cs-434">
                <duration>82</duration>
                <rate>
                  <ntsc>false</ntsc>
                  <timebase>25</timebase>
                </rate>
                <in>51296</in>
                <out>51377</out>
                <start>51296</start>
                <end>51377</end>
                <file id="src-6"/>
                <sourcetrack>
                  <mediatype>video</mediatype>
                  <trackindex>1</trackindex>
                </sourcetrack>
                <multiclip id="mcs-434">
                  <name>MCS-434</name>
                  <masterclipid>clip-master</masterclipid>
                  <collapsed>false</collapsed>
                  <angle>
                    <activevideoangle>false</activevideoangle>
                    <activeaudioangle>false</activeaudioangle>
                    <clip id="clip-1"/>
                  </angle>
                  <angle>
                    <activevideoangle>false</activevideoangle>
                    <activeaudioangle>false</activeaudioangle>
                    <clip id="clip-2"/>
                  </angle>
                  <angle>
                    <activevideoangle>false</activevideoangle>
                    <activeaudioangle>false</activeaudioangle>
                    <clip id="clip-3"/>
                  </angle>
                  <angle>
                    <activevideoangle>false</activevideoangle>
                    <activeaudioangle>false</activeaudioangle>
                    <clip id="clip-4"/>
                  </angle>
                  <angle>
                    <activevideoangle>false</activevideoangle>
                    <activeaudioangle>false</activeaudioangle>
                    <clip id="clip-5"/>
                  </angle>
                  <angle>
                    <activevideoangle>true</activevideoangle>
                    <activeaudioangle>true</activeaudioangle>
                    <clip id="clip-6"/>
                  </angle>
                  <angle>
                    <activevideoangle>false</activevideoangle>
                    <activeaudioangle>false</activeaudioangle>
                    <clip id="clip-7"/>
                  </angle>
                  <masterclipid>clip-master</masterclipid>
                </multiclip>
              </clipitem>
              <clipitem id="cs-435">
                <duration>159</duration>
                <rate>
                  <ntsc>false</ntsc>
                  <timebase>25</timebase>
                </rate>
                <in>51377</in>
                <out>51535</out>
                <start>51377</start>
                <end>51535</end>
                <file id="src-3"/>
                <sourcetrack>
                  <mediatype>video</mediatype>
                  <trackindex>1</trackindex>
                </sourcetrack>
                <multiclip id="mcs-435">
                  <name>MCS-435</name>
                  <masterclipid>clip-master</masterclipid>
                  <collapsed>false</collapsed>
                  <angle>
                    <activevideoangle>false</activevideoangle>
                    <activeaudioangle>false</activeaudioangle>
                    <clip id="clip-1"/>
                  </angle>
                  <angle>
                    <activevideoangle>false</activevideoangle>
                    <activeaudioangle>false</activeaudioangle>
                    <clip id="clip-2"/>
                  </angle>
                  <angle>
                    <activevideoangle>true</activevideoangle>
                    <activeaudioangle>true</activeaudioangle>
                    <clip id="clip-3"/>
                  </angle>
                  <angle>
                    <activevideoangle>false</activevideoangle>
                    <activeaudioangle>false</activeaudioangle>
                    <clip id="clip-4"/>
                  </angle>
                  <angle>
                    <activevideoangle>false</activevideoangle>
                    <activeaudioangle>false</activeaudioangle>
                    <clip id="clip-5"/>
                  </angle>
                  <angle>
                    <activevideoangle>false</activevideoangle>
                    <activeaudioangle>false</activeaudioangle>
                    <clip id="clip-6"/>
                  </angle>
                  <angle>
                    <activevideoangle>false</activevideoangle>
                    <activeaudioangle>false</activeaudioangle>
                    <clip id="clip-7"/>
                  </angle>
                  <masterclipid>clip-master</masterclipid>
                </multiclip>
              </clipitem>
              <clipitem id="cs-436">
                <duration>119</duration>
                <rate>
                  <ntsc>false</ntsc>
                  <timebase>25</timebase>
                </rate>
                <in>51535</in>
                <out>51653</out>
                <start>51535</start>
                <end>51653</end>
                <file id="src-2"/>
                <sourcetrack>
                  <mediatype>video</mediatype>
                  <trackindex>1</trackindex>
                </sourcetrack>
                <multiclip id="mcs-436">
                  <name>MCS-436</name>
                  <masterclipid>clip-master</masterclipid>
                  <collapsed>false</collapsed>
                  <angle>
                    <activevideoangle>false</activevideoangle>
                    <activeaudioangle>false</activeaudioangle>
                    <clip id="clip-1"/>
                  </angle>
                  <angle>
                    <activevideoangle>true</activevideoangle>
                    <activeaudioangle>true</activeaudioangle>
                    <clip id="clip-2"/>
                  </angle>
                  <angle>
                    <activevideoangle>false</activevideoangle>
                    <activeaudioangle>false</activeaudioangle>
                    <clip id="clip-3"/>
                  </angle>
                  <angle>
                    <activevideoangle>false</activevideoangle>
                    <activeaudioangle>false</activeaudioangle>
                    <clip id="clip-4"/>
                  </angle>
                  <angle>
                    <activevideoangle>false</activevideoangle>
                    <activeaudioangle>false</activeaudioangle>
                    <clip id="clip-5"/>
                  </angle>
                  <angle>
                    <activevideoangle>false</activevideoangle>
                    <activeaudioangle>false</activeaudioangle>
                    <clip id="clip-6"/>
                  </angle>
                  <angle>
                    <activevideoangle>false</activevideoangle>
                    <activeaudioangle>false</activeaudioangle>
                    <clip id="clip-7"/>
                  </angle>
                  <masterclipid>clip-master</masterclipid>
                </multiclip>
              </clipitem>
              <clipitem id="cs-437">
                <duration>121</duration>
                <rate>
                  <ntsc>false</ntsc>
                  <timebase>25</timebase>
                </rate>
                <in>51653</in>
                <out>51773</out>
                <start>51653</start>
                <end>51773</end>
                <file id="src-3"/>
                <sourcetrack>
                  <mediatype>video</mediatype>
                  <trackindex>1</trackindex>
                </sourcetrack>
                <multiclip id="mcs-437">
                  <name>MCS-437</name>
                  <masterclipid>clip-master</masterclipid>
                  <collapsed>false</collapsed>
                  <angle>
                    <activevideoangle>false</activevideoangle>
                    <activeaudioangle>false</activeaudioangle>
                    <clip id="clip-1"/>
                  </angle>
                  <angle>
                    <activevideoangle>false</activevideoangle>
                    <activeaudioangle>false</activeaudioangle>
                    <clip id="clip-2"/>
                  </angle>
                  <angle>
                    <activevideoangle>true</activevideoangle>
                    <activeaudioangle>true</activeaudioangle>
                    <clip id="clip-3"/>
                  </angle>
                  <angle>
                    <activevideoangle>false</activevideoangle>
                    <activeaudioangle>false</activeaudioangle>
                    <clip id="clip-4"/>
                  </angle>
                  <angle>
                    <activevideoangle>false</activevideoangle>
                    <activeaudioangle>false</activeaudioangle>
                    <clip id="clip-5"/>
                  </angle>
                  <angle>
                    <activevideoangle>false</activevideoangle>
                    <activeaudioangle>false</activeaudioangle>
                    <clip id="clip-6"/>
                  </angle>
                  <angle>
                    <activevideoangle>false</activevideoangle>
                    <activeaudioangle>false</activeaudioangle>
                    <clip id="clip-7"/>
                  </angle>
                  <masterclipid>clip-master</masterclipid>
                </multiclip>
              </clipitem>
              <clipitem id="cs-438">
                <duration>48</duration>
                <rate>
                  <ntsc>false</ntsc>
                  <timebase>25</timebase>
                </rate>
                <in>51773</in>
                <out>51820</out>
                <start>51773</start>
                <end>51820</end>
                <file id="src-6"/>
                <sourcetrack>
                  <mediatype>video</mediatype>
                  <trackindex>1</trackindex>
                </sourcetrack>
                <multiclip id="mcs-438">
                  <name>MCS-438</name>
                  <masterclipid>clip-master</masterclipid>
                  <collapsed>false</collapsed>
                  <angle>
                    <activevideoangle>false</activevideoangle>
                    <activeaudioangle>false</activeaudioangle>
                    <clip id="clip-1"/>
                  </angle>
                  <angle>
                    <activevideoangle>false</activevideoangle>
                    <activeaudioangle>false</activeaudioangle>
                    <clip id="clip-2"/>
                  </angle>
                  <angle>
                    <activevideoangle>false</activevideoangle>
                    <activeaudioangle>false</activeaudioangle>
                    <clip id="clip-3"/>
                  </angle>
                  <angle>
                    <activevideoangle>false</activevideoangle>
                    <activeaudioangle>false</activeaudioangle>
                    <clip id="clip-4"/>
                  </angle>
                  <angle>
                    <activevideoangle>false</activevideoangle>
                    <activeaudioangle>false</activeaudioangle>
                    <clip id="clip-5"/>
                  </angle>
                  <angle>
                    <activevideoangle>true</activevideoangle>
                    <activeaudioangle>true</activeaudioangle>
                    <clip id="clip-6"/>
                  </angle>
                  <angle>
                    <activevideoangle>false</activevideoangle>
                    <activeaudioangle>false</activeaudioangle>
                    <clip id="clip-7"/>
                  </angle>
                  <masterclipid>clip-master</masterclipid>
                </multiclip>
              </clipitem>
              <clipitem id="cs-439">
                <duration>190</duration>
                <rate>
                  <ntsc>false</ntsc>
                  <timebase>25</timebase>
                </rate>
                <in>51820</in>
                <out>52009</out>
                <start>51820</start>
                <end>52009</end>
                <file id="src-2"/>
                <sourcetrack>
                  <mediatype>video</mediatype>
                  <trackindex>1</trackindex>
                </sourcetrack>
                <multiclip id="mcs-439">
                  <name>MCS-439</name>
                  <masterclipid>clip-master</masterclipid>
                  <collapsed>false</collapsed>
                  <angle>
                    <activevideoangle>false</activevideoangle>
                    <activeaudioangle>false</activeaudioangle>
                    <clip id="clip-1"/>
                  </angle>
                  <angle>
                    <activevideoangle>true</activevideoangle>
                    <activeaudioangle>true</activeaudioangle>
                    <clip id="clip-2"/>
                  </angle>
                  <angle>
                    <activevideoangle>false</activevideoangle>
                    <activeaudioangle>false</activeaudioangle>
                    <clip id="clip-3"/>
                  </angle>
                  <angle>
                    <activevideoangle>false</activevideoangle>
                    <activeaudioangle>false</activeaudioangle>
                    <clip id="clip-4"/>
                  </angle>
                  <angle>
                    <activevideoangle>false</activevideoangle>
                    <activeaudioangle>false</activeaudioangle>
                    <clip id="clip-5"/>
                  </angle>
                  <angle>
                    <activevideoangle>false</activevideoangle>
                    <activeaudioangle>false</activeaudioangle>
                    <clip id="clip-6"/>
                  </angle>
                  <angle>
                    <activevideoangle>false</activevideoangle>
                    <activeaudioangle>false</activeaudioangle>
                    <clip id="clip-7"/>
                  </angle>
                  <masterclipid>clip-master</masterclipid>
                </multiclip>
              </clipitem>
              <clipitem id="cs-440">
                <duration>112</duration>
                <rate>
                  <ntsc>false</ntsc>
                  <timebase>25</timebase>
                </rate>
                <in>52009</in>
                <out>52120</out>
                <start>52009</start>
                <end>52120</end>
                <file id="src-3"/>
                <sourcetrack>
                  <mediatype>video</mediatype>
                  <trackindex>1</trackindex>
                </sourcetrack>
                <multiclip id="mcs-440">
                  <name>MCS-440</name>
                  <masterclipid>clip-master</masterclipid>
                  <collapsed>false</collapsed>
                  <angle>
                    <activevideoangle>false</activevideoangle>
                    <activeaudioangle>false</activeaudioangle>
                    <clip id="clip-1"/>
                  </angle>
                  <angle>
                    <activevideoangle>false</activevideoangle>
                    <activeaudioangle>false</activeaudioangle>
                    <clip id="clip-2"/>
                  </angle>
                  <angle>
                    <activevideoangle>true</activevideoangle>
                    <activeaudioangle>true</activeaudioangle>
                    <clip id="clip-3"/>
                  </angle>
                  <angle>
                    <activevideoangle>false</activevideoangle>
                    <activeaudioangle>false</activeaudioangle>
                    <clip id="clip-4"/>
                  </angle>
                  <angle>
                    <activevideoangle>false</activevideoangle>
                    <activeaudioangle>false</activeaudioangle>
                    <clip id="clip-5"/>
                  </angle>
                  <angle>
                    <activevideoangle>false</activevideoangle>
                    <activeaudioangle>false</activeaudioangle>
                    <clip id="clip-6"/>
                  </angle>
                  <angle>
                    <activevideoangle>false</activevideoangle>
                    <activeaudioangle>false</activeaudioangle>
                    <clip id="clip-7"/>
                  </angle>
                  <masterclipid>clip-master</masterclipid>
                </multiclip>
              </clipitem>
              <clipitem id="cs-441">
                <duration>96</duration>
                <rate>
                  <ntsc>false</ntsc>
                  <timebase>25</timebase>
                </rate>
                <in>52120</in>
                <out>52215</out>
                <start>52120</start>
                <end>52215</end>
                <file id="src-6"/>
                <sourcetrack>
                  <mediatype>video</mediatype>
                  <trackindex>1</trackindex>
                </sourcetrack>
                <multiclip id="mcs-441">
                  <name>MCS-441</name>
                  <masterclipid>clip-master</masterclipid>
                  <collapsed>false</collapsed>
                  <angle>
                    <activevideoangle>false</activevideoangle>
                    <activeaudioangle>false</activeaudioangle>
                    <clip id="clip-1"/>
                  </angle>
                  <angle>
                    <activevideoangle>false</activevideoangle>
                    <activeaudioangle>false</activeaudioangle>
                    <clip id="clip-2"/>
                  </angle>
                  <angle>
                    <activevideoangle>false</activevideoangle>
                    <activeaudioangle>false</activeaudioangle>
                    <clip id="clip-3"/>
                  </angle>
                  <angle>
                    <activevideoangle>false</activevideoangle>
                    <activeaudioangle>false</activeaudioangle>
                    <clip id="clip-4"/>
                  </angle>
                  <angle>
                    <activevideoangle>false</activevideoangle>
                    <activeaudioangle>false</activeaudioangle>
                    <clip id="clip-5"/>
                  </angle>
                  <angle>
                    <activevideoangle>true</activevideoangle>
                    <activeaudioangle>true</activeaudioangle>
                    <clip id="clip-6"/>
                  </angle>
                  <angle>
                    <activevideoangle>false</activevideoangle>
                    <activeaudioangle>false</activeaudioangle>
                    <clip id="clip-7"/>
                  </angle>
                  <masterclipid>clip-master</masterclipid>
                </multiclip>
              </clipitem>
              <clipitem id="cs-442">
                <duration>82</duration>
                <rate>
                  <ntsc>false</ntsc>
                  <timebase>25</timebase>
                </rate>
                <in>52215</in>
                <out>52296</out>
                <start>52215</start>
                <end>52296</end>
                <file id="src-3"/>
                <sourcetrack>
                  <mediatype>video</mediatype>
                  <trackindex>1</trackindex>
                </sourcetrack>
                <multiclip id="mcs-442">
                  <name>MCS-442</name>
                  <masterclipid>clip-master</masterclipid>
                  <collapsed>false</collapsed>
                  <angle>
                    <activevideoangle>false</activevideoangle>
                    <activeaudioangle>false</activeaudioangle>
                    <clip id="clip-1"/>
                  </angle>
                  <angle>
                    <activevideoangle>false</activevideoangle>
                    <activeaudioangle>false</activeaudioangle>
                    <clip id="clip-2"/>
                  </angle>
                  <angle>
                    <activevideoangle>true</activevideoangle>
                    <activeaudioangle>true</activeaudioangle>
                    <clip id="clip-3"/>
                  </angle>
                  <angle>
                    <activevideoangle>false</activevideoangle>
                    <activeaudioangle>false</activeaudioangle>
                    <clip id="clip-4"/>
                  </angle>
                  <angle>
                    <activevideoangle>false</activevideoangle>
                    <activeaudioangle>false</activeaudioangle>
                    <clip id="clip-5"/>
                  </angle>
                  <angle>
                    <activevideoangle>false</activevideoangle>
                    <activeaudioangle>false</activeaudioangle>
                    <clip id="clip-6"/>
                  </angle>
                  <angle>
                    <activevideoangle>false</activevideoangle>
                    <activeaudioangle>false</activeaudioangle>
                    <clip id="clip-7"/>
                  </angle>
                  <masterclipid>clip-master</masterclipid>
                </multiclip>
              </clipitem>
              <clipitem id="cs-443">
                <duration>126</duration>
                <rate>
                  <ntsc>false</ntsc>
                  <timebase>25</timebase>
                </rate>
                <in>52296</in>
                <out>52421</out>
                <start>52296</start>
                <end>52421</end>
                <file id="src-6"/>
                <sourcetrack>
                  <mediatype>video</mediatype>
                  <trackindex>1</trackindex>
                </sourcetrack>
                <multiclip id="mcs-443">
                  <name>MCS-443</name>
                  <masterclipid>clip-master</masterclipid>
                  <collapsed>false</collapsed>
                  <angle>
                    <activevideoangle>false</activevideoangle>
                    <activeaudioangle>false</activeaudioangle>
                    <clip id="clip-1"/>
                  </angle>
                  <angle>
                    <activevideoangle>false</activevideoangle>
                    <activeaudioangle>false</activeaudioangle>
                    <clip id="clip-2"/>
                  </angle>
                  <angle>
                    <activevideoangle>false</activevideoangle>
                    <activeaudioangle>false</activeaudioangle>
                    <clip id="clip-3"/>
                  </angle>
                  <angle>
                    <activevideoangle>false</activevideoangle>
                    <activeaudioangle>false</activeaudioangle>
                    <clip id="clip-4"/>
                  </angle>
                  <angle>
                    <activevideoangle>false</activevideoangle>
                    <activeaudioangle>false</activeaudioangle>
                    <clip id="clip-5"/>
                  </angle>
                  <angle>
                    <activevideoangle>true</activevideoangle>
                    <activeaudioangle>true</activeaudioangle>
                    <clip id="clip-6"/>
                  </angle>
                  <angle>
                    <activevideoangle>false</activevideoangle>
                    <activeaudioangle>false</activeaudioangle>
                    <clip id="clip-7"/>
                  </angle>
                  <masterclipid>clip-master</masterclipid>
                </multiclip>
              </clipitem>
              <clipitem id="cs-444">
                <duration>111</duration>
                <rate>
                  <ntsc>false</ntsc>
                  <timebase>25</timebase>
                </rate>
                <in>52421</in>
                <out>52531</out>
                <start>52421</start>
                <end>52531</end>
                <file id="src-2"/>
                <sourcetrack>
                  <mediatype>video</mediatype>
                  <trackindex>1</trackindex>
                </sourcetrack>
                <multiclip id="mcs-444">
                  <name>MCS-444</name>
                  <masterclipid>clip-master</masterclipid>
                  <collapsed>false</collapsed>
                  <angle>
                    <activevideoangle>false</activevideoangle>
                    <activeaudioangle>false</activeaudioangle>
                    <clip id="clip-1"/>
                  </angle>
                  <angle>
                    <activevideoangle>true</activevideoangle>
                    <activeaudioangle>true</activeaudioangle>
                    <clip id="clip-2"/>
                  </angle>
                  <angle>
                    <activevideoangle>false</activevideoangle>
                    <activeaudioangle>false</activeaudioangle>
                    <clip id="clip-3"/>
                  </angle>
                  <angle>
                    <activevideoangle>false</activevideoangle>
                    <activeaudioangle>false</activeaudioangle>
                    <clip id="clip-4"/>
                  </angle>
                  <angle>
                    <activevideoangle>false</activevideoangle>
                    <activeaudioangle>false</activeaudioangle>
                    <clip id="clip-5"/>
                  </angle>
                  <angle>
                    <activevideoangle>false</activevideoangle>
                    <activeaudioangle>false</activeaudioangle>
                    <clip id="clip-6"/>
                  </angle>
                  <angle>
                    <activevideoangle>false</activevideoangle>
                    <activeaudioangle>false</activeaudioangle>
                    <clip id="clip-7"/>
                  </angle>
                  <masterclipid>clip-master</masterclipid>
                </multiclip>
              </clipitem>
              <clipitem id="cs-445">
                <duration>124</duration>
                <rate>
                  <ntsc>false</ntsc>
                  <timebase>25</timebase>
                </rate>
                <in>52531</in>
                <out>52654</out>
                <start>52531</start>
                <end>52654</end>
                <file id="src-3"/>
                <sourcetrack>
                  <mediatype>video</mediatype>
                  <trackindex>1</trackindex>
                </sourcetrack>
                <multiclip id="mcs-445">
                  <name>MCS-445</name>
                  <masterclipid>clip-master</masterclipid>
                  <collapsed>false</collapsed>
                  <angle>
                    <activevideoangle>false</activevideoangle>
                    <activeaudioangle>false</activeaudioangle>
                    <clip id="clip-1"/>
                  </angle>
                  <angle>
                    <activevideoangle>false</activevideoangle>
                    <activeaudioangle>false</activeaudioangle>
                    <clip id="clip-2"/>
                  </angle>
                  <angle>
                    <activevideoangle>true</activevideoangle>
                    <activeaudioangle>true</activeaudioangle>
                    <clip id="clip-3"/>
                  </angle>
                  <angle>
                    <activevideoangle>false</activevideoangle>
                    <activeaudioangle>false</activeaudioangle>
                    <clip id="clip-4"/>
                  </angle>
                  <angle>
                    <activevideoangle>false</activevideoangle>
                    <activeaudioangle>false</activeaudioangle>
                    <clip id="clip-5"/>
                  </angle>
                  <angle>
                    <activevideoangle>false</activevideoangle>
                    <activeaudioangle>false</activeaudioangle>
                    <clip id="clip-6"/>
                  </angle>
                  <angle>
                    <activevideoangle>false</activevideoangle>
                    <activeaudioangle>false</activeaudioangle>
                    <clip id="clip-7"/>
                  </angle>
                  <masterclipid>clip-master</masterclipid>
                </multiclip>
              </clipitem>
              <clipitem id="cs-446">
                <duration>98</duration>
                <rate>
                  <ntsc>false</ntsc>
                  <timebase>25</timebase>
                </rate>
                <in>52654</in>
                <out>52751</out>
                <start>52654</start>
                <end>52751</end>
                <file id="src-6"/>
                <sourcetrack>
                  <mediatype>video</mediatype>
                  <trackindex>1</trackindex>
                </sourcetrack>
                <multiclip id="mcs-446">
                  <name>MCS-446</name>
                  <masterclipid>clip-master</masterclipid>
                  <collapsed>false</collapsed>
                  <angle>
                    <activevideoangle>false</activevideoangle>
                    <activeaudioangle>false</activeaudioangle>
                    <clip id="clip-1"/>
                  </angle>
                  <angle>
                    <activevideoangle>false</activevideoangle>
                    <activeaudioangle>false</activeaudioangle>
                    <clip id="clip-2"/>
                  </angle>
                  <angle>
                    <activevideoangle>false</activevideoangle>
                    <activeaudioangle>false</activeaudioangle>
                    <clip id="clip-3"/>
                  </angle>
                  <angle>
                    <activevideoangle>false</activevideoangle>
                    <activeaudioangle>false</activeaudioangle>
                    <clip id="clip-4"/>
                  </angle>
                  <angle>
                    <activevideoangle>false</activevideoangle>
                    <activeaudioangle>false</activeaudioangle>
                    <clip id="clip-5"/>
                  </angle>
                  <angle>
                    <activevideoangle>true</activevideoangle>
                    <activeaudioangle>true</activeaudioangle>
                    <clip id="clip-6"/>
                  </angle>
                  <angle>
                    <activevideoangle>false</activevideoangle>
                    <activeaudioangle>false</activeaudioangle>
                    <clip id="clip-7"/>
                  </angle>
                  <masterclipid>clip-master</masterclipid>
                </multiclip>
              </clipitem>
              <clipitem id="cs-447">
                <duration>116</duration>
                <rate>
                  <ntsc>false</ntsc>
                  <timebase>25</timebase>
                </rate>
                <in>52751</in>
                <out>52866</out>
                <start>52751</start>
                <end>52866</end>
                <file id="src-3"/>
                <sourcetrack>
                  <mediatype>video</mediatype>
                  <trackindex>1</trackindex>
                </sourcetrack>
                <multiclip id="mcs-447">
                  <name>MCS-447</name>
                  <masterclipid>clip-master</masterclipid>
                  <collapsed>false</collapsed>
                  <angle>
                    <activevideoangle>false</activevideoangle>
                    <activeaudioangle>false</activeaudioangle>
                    <clip id="clip-1"/>
                  </angle>
                  <angle>
                    <activevideoangle>false</activevideoangle>
                    <activeaudioangle>false</activeaudioangle>
                    <clip id="clip-2"/>
                  </angle>
                  <angle>
                    <activevideoangle>true</activevideoangle>
                    <activeaudioangle>true</activeaudioangle>
                    <clip id="clip-3"/>
                  </angle>
                  <angle>
                    <activevideoangle>false</activevideoangle>
                    <activeaudioangle>false</activeaudioangle>
                    <clip id="clip-4"/>
                  </angle>
                  <angle>
                    <activevideoangle>false</activevideoangle>
                    <activeaudioangle>false</activeaudioangle>
                    <clip id="clip-5"/>
                  </angle>
                  <angle>
                    <activevideoangle>false</activevideoangle>
                    <activeaudioangle>false</activeaudioangle>
                    <clip id="clip-6"/>
                  </angle>
                  <angle>
                    <activevideoangle>false</activevideoangle>
                    <activeaudioangle>false</activeaudioangle>
                    <clip id="clip-7"/>
                  </angle>
                  <masterclipid>clip-master</masterclipid>
                </multiclip>
              </clipitem>
              <clipitem id="cs-448">
                <duration>144</duration>
                <rate>
                  <ntsc>false</ntsc>
                  <timebase>25</timebase>
                </rate>
                <in>52866</in>
                <out>53009</out>
                <start>52866</start>
                <end>53009</end>
                <file id="src-2"/>
                <sourcetrack>
                  <mediatype>video</mediatype>
                  <trackindex>1</trackindex>
                </sourcetrack>
                <multiclip id="mcs-448">
                  <name>MCS-448</name>
                  <masterclipid>clip-master</masterclipid>
                  <collapsed>false</collapsed>
                  <angle>
                    <activevideoangle>false</activevideoangle>
                    <activeaudioangle>false</activeaudioangle>
                    <clip id="clip-1"/>
                  </angle>
                  <angle>
                    <activevideoangle>true</activevideoangle>
                    <activeaudioangle>true</activeaudioangle>
                    <clip id="clip-2"/>
                  </angle>
                  <angle>
                    <activevideoangle>false</activevideoangle>
                    <activeaudioangle>false</activeaudioangle>
                    <clip id="clip-3"/>
                  </angle>
                  <angle>
                    <activevideoangle>false</activevideoangle>
                    <activeaudioangle>false</activeaudioangle>
                    <clip id="clip-4"/>
                  </angle>
                  <angle>
                    <activevideoangle>false</activevideoangle>
                    <activeaudioangle>false</activeaudioangle>
                    <clip id="clip-5"/>
                  </angle>
                  <angle>
                    <activevideoangle>false</activevideoangle>
                    <activeaudioangle>false</activeaudioangle>
                    <clip id="clip-6"/>
                  </angle>
                  <angle>
                    <activevideoangle>false</activevideoangle>
                    <activeaudioangle>false</activeaudioangle>
                    <clip id="clip-7"/>
                  </angle>
                  <masterclipid>clip-master</masterclipid>
                </multiclip>
              </clipitem>
              <clipitem id="cs-449">
                <duration>46</duration>
                <rate>
                  <ntsc>false</ntsc>
                  <timebase>25</timebase>
                </rate>
                <in>53009</in>
                <out>53054</out>
                <start>53009</start>
                <end>53054</end>
                <file id="src-3"/>
                <sourcetrack>
                  <mediatype>video</mediatype>
                  <trackindex>1</trackindex>
                </sourcetrack>
                <multiclip id="mcs-449">
                  <name>MCS-449</name>
                  <masterclipid>clip-master</masterclipid>
                  <collapsed>false</collapsed>
                  <angle>
                    <activevideoangle>false</activevideoangle>
                    <activeaudioangle>false</activeaudioangle>
                    <clip id="clip-1"/>
                  </angle>
                  <angle>
                    <activevideoangle>false</activevideoangle>
                    <activeaudioangle>false</activeaudioangle>
                    <clip id="clip-2"/>
                  </angle>
                  <angle>
                    <activevideoangle>true</activevideoangle>
                    <activeaudioangle>true</activeaudioangle>
                    <clip id="clip-3"/>
                  </angle>
                  <angle>
                    <activevideoangle>false</activevideoangle>
                    <activeaudioangle>false</activeaudioangle>
                    <clip id="clip-4"/>
                  </angle>
                  <angle>
                    <activevideoangle>false</activevideoangle>
                    <activeaudioangle>false</activeaudioangle>
                    <clip id="clip-5"/>
                  </angle>
                  <angle>
                    <activevideoangle>false</activevideoangle>
                    <activeaudioangle>false</activeaudioangle>
                    <clip id="clip-6"/>
                  </angle>
                  <angle>
                    <activevideoangle>false</activevideoangle>
                    <activeaudioangle>false</activeaudioangle>
                    <clip id="clip-7"/>
                  </angle>
                  <masterclipid>clip-master</masterclipid>
                </multiclip>
              </clipitem>
              <clipitem id="cs-450">
                <duration>46</duration>
                <rate>
                  <ntsc>false</ntsc>
                  <timebase>25</timebase>
                </rate>
                <in>53054</in>
                <out>53099</out>
                <start>53054</start>
                <end>53099</end>
                <file id="src-6"/>
                <sourcetrack>
                  <mediatype>video</mediatype>
                  <trackindex>1</trackindex>
                </sourcetrack>
                <multiclip id="mcs-450">
                  <name>MCS-450</name>
                  <masterclipid>clip-master</masterclipid>
                  <collapsed>false</collapsed>
                  <angle>
                    <activevideoangle>false</activevideoangle>
                    <activeaudioangle>false</activeaudioangle>
                    <clip id="clip-1"/>
                  </angle>
                  <angle>
                    <activevideoangle>false</activevideoangle>
                    <activeaudioangle>false</activeaudioangle>
                    <clip id="clip-2"/>
                  </angle>
                  <angle>
                    <activevideoangle>false</activevideoangle>
                    <activeaudioangle>false</activeaudioangle>
                    <clip id="clip-3"/>
                  </angle>
                  <angle>
                    <activevideoangle>false</activevideoangle>
                    <activeaudioangle>false</activeaudioangle>
                    <clip id="clip-4"/>
                  </angle>
                  <angle>
                    <activevideoangle>false</activevideoangle>
                    <activeaudioangle>false</activeaudioangle>
                    <clip id="clip-5"/>
                  </angle>
                  <angle>
                    <activevideoangle>true</activevideoangle>
                    <activeaudioangle>true</activeaudioangle>
                    <clip id="clip-6"/>
                  </angle>
                  <angle>
                    <activevideoangle>false</activevideoangle>
                    <activeaudioangle>false</activeaudioangle>
                    <clip id="clip-7"/>
                  </angle>
                  <masterclipid>clip-master</masterclipid>
                </multiclip>
              </clipitem>
              <clipitem id="cs-451">
                <duration>53</duration>
                <rate>
                  <ntsc>false</ntsc>
                  <timebase>25</timebase>
                </rate>
                <in>53099</in>
                <out>53151</out>
                <start>53099</start>
                <end>53151</end>
                <file id="src-1"/>
                <sourcetrack>
                  <mediatype>video</mediatype>
                  <trackindex>1</trackindex>
                </sourcetrack>
                <multiclip id="mcs-451">
                  <name>MCS-451</name>
                  <masterclipid>clip-master</masterclipid>
                  <collapsed>false</collapsed>
                  <angle>
                    <activevideoangle>true</activevideoangle>
                    <activeaudioangle>true</activeaudioangle>
                    <clip id="clip-1"/>
                  </angle>
                  <angle>
                    <activevideoangle>false</activevideoangle>
                    <activeaudioangle>false</activeaudioangle>
                    <clip id="clip-2"/>
                  </angle>
                  <angle>
                    <activevideoangle>false</activevideoangle>
                    <activeaudioangle>false</activeaudioangle>
                    <clip id="clip-3"/>
                  </angle>
                  <angle>
                    <activevideoangle>false</activevideoangle>
                    <activeaudioangle>false</activeaudioangle>
                    <clip id="clip-4"/>
                  </angle>
                  <angle>
                    <activevideoangle>false</activevideoangle>
                    <activeaudioangle>false</activeaudioangle>
                    <clip id="clip-5"/>
                  </angle>
                  <angle>
                    <activevideoangle>false</activevideoangle>
                    <activeaudioangle>false</activeaudioangle>
                    <clip id="clip-6"/>
                  </angle>
                  <angle>
                    <activevideoangle>false</activevideoangle>
                    <activeaudioangle>false</activeaudioangle>
                    <clip id="clip-7"/>
                  </angle>
                  <masterclipid>clip-master</masterclipid>
                </multiclip>
              </clipitem>
              <clipitem id="cs-452">
                <duration>147</duration>
                <rate>
                  <ntsc>false</ntsc>
                  <timebase>25</timebase>
                </rate>
                <in>53151</in>
                <out>53297</out>
                <start>53151</start>
                <end>53297</end>
                <file id="src-3"/>
                <sourcetrack>
                  <mediatype>video</mediatype>
                  <trackindex>1</trackindex>
                </sourcetrack>
                <multiclip id="mcs-452">
                  <name>MCS-452</name>
                  <masterclipid>clip-master</masterclipid>
                  <collapsed>false</collapsed>
                  <angle>
                    <activevideoangle>false</activevideoangle>
                    <activeaudioangle>false</activeaudioangle>
                    <clip id="clip-1"/>
                  </angle>
                  <angle>
                    <activevideoangle>false</activevideoangle>
                    <activeaudioangle>false</activeaudioangle>
                    <clip id="clip-2"/>
                  </angle>
                  <angle>
                    <activevideoangle>true</activevideoangle>
                    <activeaudioangle>true</activeaudioangle>
                    <clip id="clip-3"/>
                  </angle>
                  <angle>
                    <activevideoangle>false</activevideoangle>
                    <activeaudioangle>false</activeaudioangle>
                    <clip id="clip-4"/>
                  </angle>
                  <angle>
                    <activevideoangle>false</activevideoangle>
                    <activeaudioangle>false</activeaudioangle>
                    <clip id="clip-5"/>
                  </angle>
                  <angle>
                    <activevideoangle>false</activevideoangle>
                    <activeaudioangle>false</activeaudioangle>
                    <clip id="clip-6"/>
                  </angle>
                  <angle>
                    <activevideoangle>false</activevideoangle>
                    <activeaudioangle>false</activeaudioangle>
                    <clip id="clip-7"/>
                  </angle>
                  <masterclipid>clip-master</masterclipid>
                </multiclip>
              </clipitem>
              <clipitem id="cs-453">
                <duration>93</duration>
                <rate>
                  <ntsc>false</ntsc>
                  <timebase>25</timebase>
                </rate>
                <in>53297</in>
                <out>53389</out>
                <start>53297</start>
                <end>53389</end>
                <file id="src-2"/>
                <sourcetrack>
                  <mediatype>video</mediatype>
                  <trackindex>1</trackindex>
                </sourcetrack>
                <multiclip id="mcs-453">
                  <name>MCS-453</name>
                  <masterclipid>clip-master</masterclipid>
                  <collapsed>false</collapsed>
                  <angle>
                    <activevideoangle>false</activevideoangle>
                    <activeaudioangle>false</activeaudioangle>
                    <clip id="clip-1"/>
                  </angle>
                  <angle>
                    <activevideoangle>true</activevideoangle>
                    <activeaudioangle>true</activeaudioangle>
                    <clip id="clip-2"/>
                  </angle>
                  <angle>
                    <activevideoangle>false</activevideoangle>
                    <activeaudioangle>false</activeaudioangle>
                    <clip id="clip-3"/>
                  </angle>
                  <angle>
                    <activevideoangle>false</activevideoangle>
                    <activeaudioangle>false</activeaudioangle>
                    <clip id="clip-4"/>
                  </angle>
                  <angle>
                    <activevideoangle>false</activevideoangle>
                    <activeaudioangle>false</activeaudioangle>
                    <clip id="clip-5"/>
                  </angle>
                  <angle>
                    <activevideoangle>false</activevideoangle>
                    <activeaudioangle>false</activeaudioangle>
                    <clip id="clip-6"/>
                  </angle>
                  <angle>
                    <activevideoangle>false</activevideoangle>
                    <activeaudioangle>false</activeaudioangle>
                    <clip id="clip-7"/>
                  </angle>
                  <masterclipid>clip-master</masterclipid>
                </multiclip>
              </clipitem>
              <clipitem id="cs-454">
                <duration>28</duration>
                <rate>
                  <ntsc>false</ntsc>
                  <timebase>25</timebase>
                </rate>
                <in>53389</in>
                <out>53416</out>
                <start>53389</start>
                <end>53416</end>
                <file id="src-3"/>
                <sourcetrack>
                  <mediatype>video</mediatype>
                  <trackindex>1</trackindex>
                </sourcetrack>
                <multiclip id="mcs-454">
                  <name>MCS-454</name>
                  <masterclipid>clip-master</masterclipid>
                  <collapsed>false</collapsed>
                  <angle>
                    <activevideoangle>false</activevideoangle>
                    <activeaudioangle>false</activeaudioangle>
                    <clip id="clip-1"/>
                  </angle>
                  <angle>
                    <activevideoangle>false</activevideoangle>
                    <activeaudioangle>false</activeaudioangle>
                    <clip id="clip-2"/>
                  </angle>
                  <angle>
                    <activevideoangle>true</activevideoangle>
                    <activeaudioangle>true</activeaudioangle>
                    <clip id="clip-3"/>
                  </angle>
                  <angle>
                    <activevideoangle>false</activevideoangle>
                    <activeaudioangle>false</activeaudioangle>
                    <clip id="clip-4"/>
                  </angle>
                  <angle>
                    <activevideoangle>false</activevideoangle>
                    <activeaudioangle>false</activeaudioangle>
                    <clip id="clip-5"/>
                  </angle>
                  <angle>
                    <activevideoangle>false</activevideoangle>
                    <activeaudioangle>false</activeaudioangle>
                    <clip id="clip-6"/>
                  </angle>
                  <angle>
                    <activevideoangle>false</activevideoangle>
                    <activeaudioangle>false</activeaudioangle>
                    <clip id="clip-7"/>
                  </angle>
                  <masterclipid>clip-master</masterclipid>
                </multiclip>
              </clipitem>
              <clipitem id="cs-455">
                <duration>73</duration>
                <rate>
                  <ntsc>false</ntsc>
                  <timebase>25</timebase>
                </rate>
                <in>53416</in>
                <out>53488</out>
                <start>53416</start>
                <end>53488</end>
                <file id="src-6"/>
                <sourcetrack>
                  <mediatype>video</mediatype>
                  <trackindex>1</trackindex>
                </sourcetrack>
                <multiclip id="mcs-455">
                  <name>MCS-455</name>
                  <masterclipid>clip-master</masterclipid>
                  <collapsed>false</collapsed>
                  <angle>
                    <activevideoangle>false</activevideoangle>
                    <activeaudioangle>false</activeaudioangle>
                    <clip id="clip-1"/>
                  </angle>
                  <angle>
                    <activevideoangle>false</activevideoangle>
                    <activeaudioangle>false</activeaudioangle>
                    <clip id="clip-2"/>
                  </angle>
                  <angle>
                    <activevideoangle>false</activevideoangle>
                    <activeaudioangle>false</activeaudioangle>
                    <clip id="clip-3"/>
                  </angle>
                  <angle>
                    <activevideoangle>false</activevideoangle>
                    <activeaudioangle>false</activeaudioangle>
                    <clip id="clip-4"/>
                  </angle>
                  <angle>
                    <activevideoangle>false</activevideoangle>
                    <activeaudioangle>false</activeaudioangle>
                    <clip id="clip-5"/>
                  </angle>
                  <angle>
                    <activevideoangle>true</activevideoangle>
                    <activeaudioangle>true</activeaudioangle>
                    <clip id="clip-6"/>
                  </angle>
                  <angle>
                    <activevideoangle>false</activevideoangle>
                    <activeaudioangle>false</activeaudioangle>
                    <clip id="clip-7"/>
                  </angle>
                  <masterclipid>clip-master</masterclipid>
                </multiclip>
              </clipitem>
              <clipitem id="cs-456">
                <duration>95</duration>
                <rate>
                  <ntsc>false</ntsc>
                  <timebase>25</timebase>
                </rate>
                <in>53488</in>
                <out>53582</out>
                <start>53488</start>
                <end>53582</end>
                <file id="src-3"/>
                <sourcetrack>
                  <mediatype>video</mediatype>
                  <trackindex>1</trackindex>
                </sourcetrack>
                <multiclip id="mcs-456">
                  <name>MCS-456</name>
                  <masterclipid>clip-master</masterclipid>
                  <collapsed>false</collapsed>
                  <angle>
                    <activevideoangle>false</activevideoangle>
                    <activeaudioangle>false</activeaudioangle>
                    <clip id="clip-1"/>
                  </angle>
                  <angle>
                    <activevideoangle>false</activevideoangle>
                    <activeaudioangle>false</activeaudioangle>
                    <clip id="clip-2"/>
                  </angle>
                  <angle>
                    <activevideoangle>true</activevideoangle>
                    <activeaudioangle>true</activeaudioangle>
                    <clip id="clip-3"/>
                  </angle>
                  <angle>
                    <activevideoangle>false</activevideoangle>
                    <activeaudioangle>false</activeaudioangle>
                    <clip id="clip-4"/>
                  </angle>
                  <angle>
                    <activevideoangle>false</activevideoangle>
                    <activeaudioangle>false</activeaudioangle>
                    <clip id="clip-5"/>
                  </angle>
                  <angle>
                    <activevideoangle>false</activevideoangle>
                    <activeaudioangle>false</activeaudioangle>
                    <clip id="clip-6"/>
                  </angle>
                  <angle>
                    <activevideoangle>false</activevideoangle>
                    <activeaudioangle>false</activeaudioangle>
                    <clip id="clip-7"/>
                  </angle>
                  <masterclipid>clip-master</masterclipid>
                </multiclip>
              </clipitem>
              <clipitem id="cs-457">
                <duration>110</duration>
                <rate>
                  <ntsc>false</ntsc>
                  <timebase>25</timebase>
                </rate>
                <in>53582</in>
                <out>53691</out>
                <start>53582</start>
                <end>53691</end>
                <file id="src-2"/>
                <sourcetrack>
                  <mediatype>video</mediatype>
                  <trackindex>1</trackindex>
                </sourcetrack>
                <multiclip id="mcs-457">
                  <name>MCS-457</name>
                  <masterclipid>clip-master</masterclipid>
                  <collapsed>false</collapsed>
                  <angle>
                    <activevideoangle>false</activevideoangle>
                    <activeaudioangle>false</activeaudioangle>
                    <clip id="clip-1"/>
                  </angle>
                  <angle>
                    <activevideoangle>true</activevideoangle>
                    <activeaudioangle>true</activeaudioangle>
                    <clip id="clip-2"/>
                  </angle>
                  <angle>
                    <activevideoangle>false</activevideoangle>
                    <activeaudioangle>false</activeaudioangle>
                    <clip id="clip-3"/>
                  </angle>
                  <angle>
                    <activevideoangle>false</activevideoangle>
                    <activeaudioangle>false</activeaudioangle>
                    <clip id="clip-4"/>
                  </angle>
                  <angle>
                    <activevideoangle>false</activevideoangle>
                    <activeaudioangle>false</activeaudioangle>
                    <clip id="clip-5"/>
                  </angle>
                  <angle>
                    <activevideoangle>false</activevideoangle>
                    <activeaudioangle>false</activeaudioangle>
                    <clip id="clip-6"/>
                  </angle>
                  <angle>
                    <activevideoangle>false</activevideoangle>
                    <activeaudioangle>false</activeaudioangle>
                    <clip id="clip-7"/>
                  </angle>
                  <masterclipid>clip-master</masterclipid>
                </multiclip>
              </clipitem>
              <clipitem id="cs-458">
                <duration>85</duration>
                <rate>
                  <ntsc>false</ntsc>
                  <timebase>25</timebase>
                </rate>
                <in>53691</in>
                <out>53775</out>
                <start>53691</start>
                <end>53775</end>
                <file id="src-3"/>
                <sourcetrack>
                  <mediatype>video</mediatype>
                  <trackindex>1</trackindex>
                </sourcetrack>
                <multiclip id="mcs-458">
                  <name>MCS-458</name>
                  <masterclipid>clip-master</masterclipid>
                  <collapsed>false</collapsed>
                  <angle>
                    <activevideoangle>false</activevideoangle>
                    <activeaudioangle>false</activeaudioangle>
                    <clip id="clip-1"/>
                  </angle>
                  <angle>
                    <activevideoangle>false</activevideoangle>
                    <activeaudioangle>false</activeaudioangle>
                    <clip id="clip-2"/>
                  </angle>
                  <angle>
                    <activevideoangle>true</activevideoangle>
                    <activeaudioangle>true</activeaudioangle>
                    <clip id="clip-3"/>
                  </angle>
                  <angle>
                    <activevideoangle>false</activevideoangle>
                    <activeaudioangle>false</activeaudioangle>
                    <clip id="clip-4"/>
                  </angle>
                  <angle>
                    <activevideoangle>false</activevideoangle>
                    <activeaudioangle>false</activeaudioangle>
                    <clip id="clip-5"/>
                  </angle>
                  <angle>
                    <activevideoangle>false</activevideoangle>
                    <activeaudioangle>false</activeaudioangle>
                    <clip id="clip-6"/>
                  </angle>
                  <angle>
                    <activevideoangle>false</activevideoangle>
                    <activeaudioangle>false</activeaudioangle>
                    <clip id="clip-7"/>
                  </angle>
                  <masterclipid>clip-master</masterclipid>
                </multiclip>
              </clipitem>
              <clipitem id="cs-459">
                <duration>26</duration>
                <rate>
                  <ntsc>false</ntsc>
                  <timebase>25</timebase>
                </rate>
                <in>53775</in>
                <out>53800</out>
                <start>53775</start>
                <end>53800</end>
                <file id="src-4"/>
                <sourcetrack>
                  <mediatype>video</mediatype>
                  <trackindex>1</trackindex>
                </sourcetrack>
                <multiclip id="mcs-459">
                  <name>MCS-459</name>
                  <masterclipid>clip-master</masterclipid>
                  <collapsed>false</collapsed>
                  <angle>
                    <activevideoangle>false</activevideoangle>
                    <activeaudioangle>false</activeaudioangle>
                    <clip id="clip-1"/>
                  </angle>
                  <angle>
                    <activevideoangle>false</activevideoangle>
                    <activeaudioangle>false</activeaudioangle>
                    <clip id="clip-2"/>
                  </angle>
                  <angle>
                    <activevideoangle>false</activevideoangle>
                    <activeaudioangle>false</activeaudioangle>
                    <clip id="clip-3"/>
                  </angle>
                  <angle>
                    <activevideoangle>true</activevideoangle>
                    <activeaudioangle>true</activeaudioangle>
                    <clip id="clip-4"/>
                  </angle>
                  <angle>
                    <activevideoangle>false</activevideoangle>
                    <activeaudioangle>false</activeaudioangle>
                    <clip id="clip-5"/>
                  </angle>
                  <angle>
                    <activevideoangle>false</activevideoangle>
                    <activeaudioangle>false</activeaudioangle>
                    <clip id="clip-6"/>
                  </angle>
                  <angle>
                    <activevideoangle>false</activevideoangle>
                    <activeaudioangle>false</activeaudioangle>
                    <clip id="clip-7"/>
                  </angle>
                  <masterclipid>clip-master</masterclipid>
                </multiclip>
              </clipitem>
              <clipitem id="cs-460">
                <duration>24</duration>
                <rate>
                  <ntsc>false</ntsc>
                  <timebase>25</timebase>
                </rate>
                <in>53800</in>
                <out>53823</out>
                <start>53800</start>
                <end>53823</end>
                <file id="src-6"/>
                <sourcetrack>
                  <mediatype>video</mediatype>
                  <trackindex>1</trackindex>
                </sourcetrack>
                <multiclip id="mcs-460">
                  <name>MCS-460</name>
                  <masterclipid>clip-master</masterclipid>
                  <collapsed>false</collapsed>
                  <angle>
                    <activevideoangle>false</activevideoangle>
                    <activeaudioangle>false</activeaudioangle>
                    <clip id="clip-1"/>
                  </angle>
                  <angle>
                    <activevideoangle>false</activevideoangle>
                    <activeaudioangle>false</activeaudioangle>
                    <clip id="clip-2"/>
                  </angle>
                  <angle>
                    <activevideoangle>false</activevideoangle>
                    <activeaudioangle>false</activeaudioangle>
                    <clip id="clip-3"/>
                  </angle>
                  <angle>
                    <activevideoangle>false</activevideoangle>
                    <activeaudioangle>false</activeaudioangle>
                    <clip id="clip-4"/>
                  </angle>
                  <angle>
                    <activevideoangle>false</activevideoangle>
                    <activeaudioangle>false</activeaudioangle>
                    <clip id="clip-5"/>
                  </angle>
                  <angle>
                    <activevideoangle>true</activevideoangle>
                    <activeaudioangle>true</activeaudioangle>
                    <clip id="clip-6"/>
                  </angle>
                  <angle>
                    <activevideoangle>false</activevideoangle>
                    <activeaudioangle>false</activeaudioangle>
                    <clip id="clip-7"/>
                  </angle>
                  <masterclipid>clip-master</masterclipid>
                </multiclip>
              </clipitem>
              <clipitem id="cs-461">
                <duration>141</duration>
                <rate>
                  <ntsc>false</ntsc>
                  <timebase>25</timebase>
                </rate>
                <in>53823</in>
                <out>53963</out>
                <start>53823</start>
                <end>53963</end>
                <file id="src-1"/>
                <sourcetrack>
                  <mediatype>video</mediatype>
                  <trackindex>1</trackindex>
                </sourcetrack>
                <multiclip id="mcs-461">
                  <name>MCS-461</name>
                  <masterclipid>clip-master</masterclipid>
                  <collapsed>false</collapsed>
                  <angle>
                    <activevideoangle>true</activevideoangle>
                    <activeaudioangle>true</activeaudioangle>
                    <clip id="clip-1"/>
                  </angle>
                  <angle>
                    <activevideoangle>false</activevideoangle>
                    <activeaudioangle>false</activeaudioangle>
                    <clip id="clip-2"/>
                  </angle>
                  <angle>
                    <activevideoangle>false</activevideoangle>
                    <activeaudioangle>false</activeaudioangle>
                    <clip id="clip-3"/>
                  </angle>
                  <angle>
                    <activevideoangle>false</activevideoangle>
                    <activeaudioangle>false</activeaudioangle>
                    <clip id="clip-4"/>
                  </angle>
                  <angle>
                    <activevideoangle>false</activevideoangle>
                    <activeaudioangle>false</activeaudioangle>
                    <clip id="clip-5"/>
                  </angle>
                  <angle>
                    <activevideoangle>false</activevideoangle>
                    <activeaudioangle>false</activeaudioangle>
                    <clip id="clip-6"/>
                  </angle>
                  <angle>
                    <activevideoangle>false</activevideoangle>
                    <activeaudioangle>false</activeaudioangle>
                    <clip id="clip-7"/>
                  </angle>
                  <masterclipid>clip-master</masterclipid>
                </multiclip>
              </clipitem>
              <clipitem id="cs-462">
                <duration>155</duration>
                <rate>
                  <ntsc>false</ntsc>
                  <timebase>25</timebase>
                </rate>
                <in>53963</in>
                <out>54117</out>
                <start>53963</start>
                <end>54117</end>
                <file id="src-2"/>
                <sourcetrack>
                  <mediatype>video</mediatype>
                  <trackindex>1</trackindex>
                </sourcetrack>
                <multiclip id="mcs-462">
                  <name>MCS-462</name>
                  <masterclipid>clip-master</masterclipid>
                  <collapsed>false</collapsed>
                  <angle>
                    <activevideoangle>false</activevideoangle>
                    <activeaudioangle>false</activeaudioangle>
                    <clip id="clip-1"/>
                  </angle>
                  <angle>
                    <activevideoangle>true</activevideoangle>
                    <activeaudioangle>true</activeaudioangle>
                    <clip id="clip-2"/>
                  </angle>
                  <angle>
                    <activevideoangle>false</activevideoangle>
                    <activeaudioangle>false</activeaudioangle>
                    <clip id="clip-3"/>
                  </angle>
                  <angle>
                    <activevideoangle>false</activevideoangle>
                    <activeaudioangle>false</activeaudioangle>
                    <clip id="clip-4"/>
                  </angle>
                  <angle>
                    <activevideoangle>false</activevideoangle>
                    <activeaudioangle>false</activeaudioangle>
                    <clip id="clip-5"/>
                  </angle>
                  <angle>
                    <activevideoangle>false</activevideoangle>
                    <activeaudioangle>false</activeaudioangle>
                    <clip id="clip-6"/>
                  </angle>
                  <angle>
                    <activevideoangle>false</activevideoangle>
                    <activeaudioangle>false</activeaudioangle>
                    <clip id="clip-7"/>
                  </angle>
                  <masterclipid>clip-master</masterclipid>
                </multiclip>
              </clipitem>
              <clipitem id="cs-463">
                <duration>108</duration>
                <rate>
                  <ntsc>false</ntsc>
                  <timebase>25</timebase>
                </rate>
                <in>54117</in>
                <out>54224</out>
                <start>54117</start>
                <end>54224</end>
                <file id="src-3"/>
                <sourcetrack>
                  <mediatype>video</mediatype>
                  <trackindex>1</trackindex>
                </sourcetrack>
                <multiclip id="mcs-463">
                  <name>MCS-463</name>
                  <masterclipid>clip-master</masterclipid>
                  <collapsed>false</collapsed>
                  <angle>
                    <activevideoangle>false</activevideoangle>
                    <activeaudioangle>false</activeaudioangle>
                    <clip id="clip-1"/>
                  </angle>
                  <angle>
                    <activevideoangle>false</activevideoangle>
                    <activeaudioangle>false</activeaudioangle>
                    <clip id="clip-2"/>
                  </angle>
                  <angle>
                    <activevideoangle>true</activevideoangle>
                    <activeaudioangle>true</activeaudioangle>
                    <clip id="clip-3"/>
                  </angle>
                  <angle>
                    <activevideoangle>false</activevideoangle>
                    <activeaudioangle>false</activeaudioangle>
                    <clip id="clip-4"/>
                  </angle>
                  <angle>
                    <activevideoangle>false</activevideoangle>
                    <activeaudioangle>false</activeaudioangle>
                    <clip id="clip-5"/>
                  </angle>
                  <angle>
                    <activevideoangle>false</activevideoangle>
                    <activeaudioangle>false</activeaudioangle>
                    <clip id="clip-6"/>
                  </angle>
                  <angle>
                    <activevideoangle>false</activevideoangle>
                    <activeaudioangle>false</activeaudioangle>
                    <clip id="clip-7"/>
                  </angle>
                  <masterclipid>clip-master</masterclipid>
                </multiclip>
              </clipitem>
              <clipitem id="cs-464">
                <duration>69</duration>
                <rate>
                  <ntsc>false</ntsc>
                  <timebase>25</timebase>
                </rate>
                <in>54224</in>
                <out>54292</out>
                <start>54224</start>
                <end>54292</end>
                <file id="src-6"/>
                <sourcetrack>
                  <mediatype>video</mediatype>
                  <trackindex>1</trackindex>
                </sourcetrack>
                <multiclip id="mcs-464">
                  <name>MCS-464</name>
                  <masterclipid>clip-master</masterclipid>
                  <collapsed>false</collapsed>
                  <angle>
                    <activevideoangle>false</activevideoangle>
                    <activeaudioangle>false</activeaudioangle>
                    <clip id="clip-1"/>
                  </angle>
                  <angle>
                    <activevideoangle>false</activevideoangle>
                    <activeaudioangle>false</activeaudioangle>
                    <clip id="clip-2"/>
                  </angle>
                  <angle>
                    <activevideoangle>false</activevideoangle>
                    <activeaudioangle>false</activeaudioangle>
                    <clip id="clip-3"/>
                  </angle>
                  <angle>
                    <activevideoangle>false</activevideoangle>
                    <activeaudioangle>false</activeaudioangle>
                    <clip id="clip-4"/>
                  </angle>
                  <angle>
                    <activevideoangle>false</activevideoangle>
                    <activeaudioangle>false</activeaudioangle>
                    <clip id="clip-5"/>
                  </angle>
                  <angle>
                    <activevideoangle>true</activevideoangle>
                    <activeaudioangle>true</activeaudioangle>
                    <clip id="clip-6"/>
                  </angle>
                  <angle>
                    <activevideoangle>false</activevideoangle>
                    <activeaudioangle>false</activeaudioangle>
                    <clip id="clip-7"/>
                  </angle>
                  <masterclipid>clip-master</masterclipid>
                </multiclip>
              </clipitem>
              <clipitem id="cs-465">
                <duration>154</duration>
                <rate>
                  <ntsc>false</ntsc>
                  <timebase>25</timebase>
                </rate>
                <in>54292</in>
                <out>54445</out>
                <start>54292</start>
                <end>54445</end>
                <file id="src-2"/>
                <sourcetrack>
                  <mediatype>video</mediatype>
                  <trackindex>1</trackindex>
                </sourcetrack>
                <multiclip id="mcs-465">
                  <name>MCS-465</name>
                  <masterclipid>clip-master</masterclipid>
                  <collapsed>false</collapsed>
                  <angle>
                    <activevideoangle>false</activevideoangle>
                    <activeaudioangle>false</activeaudioangle>
                    <clip id="clip-1"/>
                  </angle>
                  <angle>
                    <activevideoangle>true</activevideoangle>
                    <activeaudioangle>true</activeaudioangle>
                    <clip id="clip-2"/>
                  </angle>
                  <angle>
                    <activevideoangle>false</activevideoangle>
                    <activeaudioangle>false</activeaudioangle>
                    <clip id="clip-3"/>
                  </angle>
                  <angle>
                    <activevideoangle>false</activevideoangle>
                    <activeaudioangle>false</activeaudioangle>
                    <clip id="clip-4"/>
                  </angle>
                  <angle>
                    <activevideoangle>false</activevideoangle>
                    <activeaudioangle>false</activeaudioangle>
                    <clip id="clip-5"/>
                  </angle>
                  <angle>
                    <activevideoangle>false</activevideoangle>
                    <activeaudioangle>false</activeaudioangle>
                    <clip id="clip-6"/>
                  </angle>
                  <angle>
                    <activevideoangle>false</activevideoangle>
                    <activeaudioangle>false</activeaudioangle>
                    <clip id="clip-7"/>
                  </angle>
                  <masterclipid>clip-master</masterclipid>
                </multiclip>
              </clipitem>
              <clipitem id="cs-466">
                <duration>172</duration>
                <rate>
                  <ntsc>false</ntsc>
                  <timebase>25</timebase>
                </rate>
                <in>54445</in>
                <out>54616</out>
                <start>54445</start>
                <end>54616</end>
                <file id="src-3"/>
                <sourcetrack>
                  <mediatype>video</mediatype>
                  <trackindex>1</trackindex>
                </sourcetrack>
                <multiclip id="mcs-466">
                  <name>MCS-466</name>
                  <masterclipid>clip-master</masterclipid>
                  <collapsed>false</collapsed>
                  <angle>
                    <activevideoangle>false</activevideoangle>
                    <activeaudioangle>false</activeaudioangle>
                    <clip id="clip-1"/>
                  </angle>
                  <angle>
                    <activevideoangle>false</activevideoangle>
                    <activeaudioangle>false</activeaudioangle>
                    <clip id="clip-2"/>
                  </angle>
                  <angle>
                    <activevideoangle>true</activevideoangle>
                    <activeaudioangle>true</activeaudioangle>
                    <clip id="clip-3"/>
                  </angle>
                  <angle>
                    <activevideoangle>false</activevideoangle>
                    <activeaudioangle>false</activeaudioangle>
                    <clip id="clip-4"/>
                  </angle>
                  <angle>
                    <activevideoangle>false</activevideoangle>
                    <activeaudioangle>false</activeaudioangle>
                    <clip id="clip-5"/>
                  </angle>
                  <angle>
                    <activevideoangle>false</activevideoangle>
                    <activeaudioangle>false</activeaudioangle>
                    <clip id="clip-6"/>
                  </angle>
                  <angle>
                    <activevideoangle>false</activevideoangle>
                    <activeaudioangle>false</activeaudioangle>
                    <clip id="clip-7"/>
                  </angle>
                  <masterclipid>clip-master</masterclipid>
                </multiclip>
              </clipitem>
              <clipitem id="cs-467">
                <duration>173</duration>
                <rate>
                  <ntsc>false</ntsc>
                  <timebase>25</timebase>
                </rate>
                <in>54616</in>
                <out>54788</out>
                <start>54616</start>
                <end>54788</end>
                <file id="src-1"/>
                <sourcetrack>
                  <mediatype>video</mediatype>
                  <trackindex>1</trackindex>
                </sourcetrack>
                <multiclip id="mcs-467">
                  <name>MCS-467</name>
                  <masterclipid>clip-master</masterclipid>
                  <collapsed>false</collapsed>
                  <angle>
                    <activevideoangle>true</activevideoangle>
                    <activeaudioangle>true</activeaudioangle>
                    <clip id="clip-1"/>
                  </angle>
                  <angle>
                    <activevideoangle>false</activevideoangle>
                    <activeaudioangle>false</activeaudioangle>
                    <clip id="clip-2"/>
                  </angle>
                  <angle>
                    <activevideoangle>false</activevideoangle>
                    <activeaudioangle>false</activeaudioangle>
                    <clip id="clip-3"/>
                  </angle>
                  <angle>
                    <activevideoangle>false</activevideoangle>
                    <activeaudioangle>false</activeaudioangle>
                    <clip id="clip-4"/>
                  </angle>
                  <angle>
                    <activevideoangle>false</activevideoangle>
                    <activeaudioangle>false</activeaudioangle>
                    <clip id="clip-5"/>
                  </angle>
                  <angle>
                    <activevideoangle>false</activevideoangle>
                    <activeaudioangle>false</activeaudioangle>
                    <clip id="clip-6"/>
                  </angle>
                  <angle>
                    <activevideoangle>false</activevideoangle>
                    <activeaudioangle>false</activeaudioangle>
                    <clip id="clip-7"/>
                  </angle>
                  <masterclipid>clip-master</masterclipid>
                </multiclip>
              </clipitem>
              <clipitem id="cs-468">
                <duration>109</duration>
                <rate>
                  <ntsc>false</ntsc>
                  <timebase>25</timebase>
                </rate>
                <in>54788</in>
                <out>54896</out>
                <start>54788</start>
                <end>54896</end>
                <file id="src-3"/>
                <sourcetrack>
                  <mediatype>video</mediatype>
                  <trackindex>1</trackindex>
                </sourcetrack>
                <multiclip id="mcs-468">
                  <name>MCS-468</name>
                  <masterclipid>clip-master</masterclipid>
                  <collapsed>false</collapsed>
                  <angle>
                    <activevideoangle>false</activevideoangle>
                    <activeaudioangle>false</activeaudioangle>
                    <clip id="clip-1"/>
                  </angle>
                  <angle>
                    <activevideoangle>false</activevideoangle>
                    <activeaudioangle>false</activeaudioangle>
                    <clip id="clip-2"/>
                  </angle>
                  <angle>
                    <activevideoangle>true</activevideoangle>
                    <activeaudioangle>true</activeaudioangle>
                    <clip id="clip-3"/>
                  </angle>
                  <angle>
                    <activevideoangle>false</activevideoangle>
                    <activeaudioangle>false</activeaudioangle>
                    <clip id="clip-4"/>
                  </angle>
                  <angle>
                    <activevideoangle>false</activevideoangle>
                    <activeaudioangle>false</activeaudioangle>
                    <clip id="clip-5"/>
                  </angle>
                  <angle>
                    <activevideoangle>false</activevideoangle>
                    <activeaudioangle>false</activeaudioangle>
                    <clip id="clip-6"/>
                  </angle>
                  <angle>
                    <activevideoangle>false</activevideoangle>
                    <activeaudioangle>false</activeaudioangle>
                    <clip id="clip-7"/>
                  </angle>
                  <masterclipid>clip-master</masterclipid>
                </multiclip>
              </clipitem>
              <clipitem id="cs-469">
                <duration>65</duration>
                <rate>
                  <ntsc>false</ntsc>
                  <timebase>25</timebase>
                </rate>
                <in>54896</in>
                <out>54960</out>
                <start>54896</start>
                <end>54960</end>
                <file id="src-2"/>
                <sourcetrack>
                  <mediatype>video</mediatype>
                  <trackindex>1</trackindex>
                </sourcetrack>
                <multiclip id="mcs-469">
                  <name>MCS-469</name>
                  <masterclipid>clip-master</masterclipid>
                  <collapsed>false</collapsed>
                  <angle>
                    <activevideoangle>false</activevideoangle>
                    <activeaudioangle>false</activeaudioangle>
                    <clip id="clip-1"/>
                  </angle>
                  <angle>
                    <activevideoangle>true</activevideoangle>
                    <activeaudioangle>true</activeaudioangle>
                    <clip id="clip-2"/>
                  </angle>
                  <angle>
                    <activevideoangle>false</activevideoangle>
                    <activeaudioangle>false</activeaudioangle>
                    <clip id="clip-3"/>
                  </angle>
                  <angle>
                    <activevideoangle>false</activevideoangle>
                    <activeaudioangle>false</activeaudioangle>
                    <clip id="clip-4"/>
                  </angle>
                  <angle>
                    <activevideoangle>false</activevideoangle>
                    <activeaudioangle>false</activeaudioangle>
                    <clip id="clip-5"/>
                  </angle>
                  <angle>
                    <activevideoangle>false</activevideoangle>
                    <activeaudioangle>false</activeaudioangle>
                    <clip id="clip-6"/>
                  </angle>
                  <angle>
                    <activevideoangle>false</activevideoangle>
                    <activeaudioangle>false</activeaudioangle>
                    <clip id="clip-7"/>
                  </angle>
                  <masterclipid>clip-master</masterclipid>
                </multiclip>
              </clipitem>
              <clipitem id="cs-470">
                <duration>65</duration>
                <rate>
                  <ntsc>false</ntsc>
                  <timebase>25</timebase>
                </rate>
                <in>54960</in>
                <out>55024</out>
                <start>54960</start>
                <end>55024</end>
                <file id="src-1"/>
                <sourcetrack>
                  <mediatype>video</mediatype>
                  <trackindex>1</trackindex>
                </sourcetrack>
                <multiclip id="mcs-470">
                  <name>MCS-470</name>
                  <masterclipid>clip-master</masterclipid>
                  <collapsed>false</collapsed>
                  <angle>
                    <activevideoangle>true</activevideoangle>
                    <activeaudioangle>true</activeaudioangle>
                    <clip id="clip-1"/>
                  </angle>
                  <angle>
                    <activevideoangle>false</activevideoangle>
                    <activeaudioangle>false</activeaudioangle>
                    <clip id="clip-2"/>
                  </angle>
                  <angle>
                    <activevideoangle>false</activevideoangle>
                    <activeaudioangle>false</activeaudioangle>
                    <clip id="clip-3"/>
                  </angle>
                  <angle>
                    <activevideoangle>false</activevideoangle>
                    <activeaudioangle>false</activeaudioangle>
                    <clip id="clip-4"/>
                  </angle>
                  <angle>
                    <activevideoangle>false</activevideoangle>
                    <activeaudioangle>false</activeaudioangle>
                    <clip id="clip-5"/>
                  </angle>
                  <angle>
                    <activevideoangle>false</activevideoangle>
                    <activeaudioangle>false</activeaudioangle>
                    <clip id="clip-6"/>
                  </angle>
                  <angle>
                    <activevideoangle>false</activevideoangle>
                    <activeaudioangle>false</activeaudioangle>
                    <clip id="clip-7"/>
                  </angle>
                  <masterclipid>clip-master</masterclipid>
                </multiclip>
              </clipitem>
              <clipitem id="cs-471">
                <duration>94</duration>
                <rate>
                  <ntsc>false</ntsc>
                  <timebase>25</timebase>
                </rate>
                <in>55024</in>
                <out>55117</out>
                <start>55024</start>
                <end>55117</end>
                <file id="src-6"/>
                <sourcetrack>
                  <mediatype>video</mediatype>
                  <trackindex>1</trackindex>
                </sourcetrack>
                <multiclip id="mcs-471">
                  <name>MCS-471</name>
                  <masterclipid>clip-master</masterclipid>
                  <collapsed>false</collapsed>
                  <angle>
                    <activevideoangle>false</activevideoangle>
                    <activeaudioangle>false</activeaudioangle>
                    <clip id="clip-1"/>
                  </angle>
                  <angle>
                    <activevideoangle>false</activevideoangle>
                    <activeaudioangle>false</activeaudioangle>
                    <clip id="clip-2"/>
                  </angle>
                  <angle>
                    <activevideoangle>false</activevideoangle>
                    <activeaudioangle>false</activeaudioangle>
                    <clip id="clip-3"/>
                  </angle>
                  <angle>
                    <activevideoangle>false</activevideoangle>
                    <activeaudioangle>false</activeaudioangle>
                    <clip id="clip-4"/>
                  </angle>
                  <angle>
                    <activevideoangle>false</activevideoangle>
                    <activeaudioangle>false</activeaudioangle>
                    <clip id="clip-5"/>
                  </angle>
                  <angle>
                    <activevideoangle>true</activevideoangle>
                    <activeaudioangle>true</activeaudioangle>
                    <clip id="clip-6"/>
                  </angle>
                  <angle>
                    <activevideoangle>false</activevideoangle>
                    <activeaudioangle>false</activeaudioangle>
                    <clip id="clip-7"/>
                  </angle>
                  <masterclipid>clip-master</masterclipid>
                </multiclip>
              </clipitem>
              <clipitem id="cs-472">
                <duration>190</duration>
                <rate>
                  <ntsc>false</ntsc>
                  <timebase>25</timebase>
                </rate>
                <in>55117</in>
                <out>55306</out>
                <start>55117</start>
                <end>55306</end>
                <file id="src-3"/>
                <sourcetrack>
                  <mediatype>video</mediatype>
                  <trackindex>1</trackindex>
                </sourcetrack>
                <multiclip id="mcs-472">
                  <name>MCS-472</name>
                  <masterclipid>clip-master</masterclipid>
                  <collapsed>false</collapsed>
                  <angle>
                    <activevideoangle>false</activevideoangle>
                    <activeaudioangle>false</activeaudioangle>
                    <clip id="clip-1"/>
                  </angle>
                  <angle>
                    <activevideoangle>false</activevideoangle>
                    <activeaudioangle>false</activeaudioangle>
                    <clip id="clip-2"/>
                  </angle>
                  <angle>
                    <activevideoangle>true</activevideoangle>
                    <activeaudioangle>true</activeaudioangle>
                    <clip id="clip-3"/>
                  </angle>
                  <angle>
                    <activevideoangle>false</activevideoangle>
                    <activeaudioangle>false</activeaudioangle>
                    <clip id="clip-4"/>
                  </angle>
                  <angle>
                    <activevideoangle>false</activevideoangle>
                    <activeaudioangle>false</activeaudioangle>
                    <clip id="clip-5"/>
                  </angle>
                  <angle>
                    <activevideoangle>false</activevideoangle>
                    <activeaudioangle>false</activeaudioangle>
                    <clip id="clip-6"/>
                  </angle>
                  <angle>
                    <activevideoangle>false</activevideoangle>
                    <activeaudioangle>false</activeaudioangle>
                    <clip id="clip-7"/>
                  </angle>
                  <masterclipid>clip-master</masterclipid>
                </multiclip>
              </clipitem>
              <clipitem id="cs-473">
                <duration>30</duration>
                <rate>
                  <ntsc>false</ntsc>
                  <timebase>25</timebase>
                </rate>
                <in>55306</in>
                <out>55335</out>
                <start>55306</start>
                <end>55335</end>
                <file id="src-2"/>
                <sourcetrack>
                  <mediatype>video</mediatype>
                  <trackindex>1</trackindex>
                </sourcetrack>
                <multiclip id="mcs-473">
                  <name>MCS-473</name>
                  <masterclipid>clip-master</masterclipid>
                  <collapsed>false</collapsed>
                  <angle>
                    <activevideoangle>false</activevideoangle>
                    <activeaudioangle>false</activeaudioangle>
                    <clip id="clip-1"/>
                  </angle>
                  <angle>
                    <activevideoangle>true</activevideoangle>
                    <activeaudioangle>true</activeaudioangle>
                    <clip id="clip-2"/>
                  </angle>
                  <angle>
                    <activevideoangle>false</activevideoangle>
                    <activeaudioangle>false</activeaudioangle>
                    <clip id="clip-3"/>
                  </angle>
                  <angle>
                    <activevideoangle>false</activevideoangle>
                    <activeaudioangle>false</activeaudioangle>
                    <clip id="clip-4"/>
                  </angle>
                  <angle>
                    <activevideoangle>false</activevideoangle>
                    <activeaudioangle>false</activeaudioangle>
                    <clip id="clip-5"/>
                  </angle>
                  <angle>
                    <activevideoangle>false</activevideoangle>
                    <activeaudioangle>false</activeaudioangle>
                    <clip id="clip-6"/>
                  </angle>
                  <angle>
                    <activevideoangle>false</activevideoangle>
                    <activeaudioangle>false</activeaudioangle>
                    <clip id="clip-7"/>
                  </angle>
                  <masterclipid>clip-master</masterclipid>
                </multiclip>
              </clipitem>
              <clipitem id="cs-474">
                <duration>263</duration>
                <rate>
                  <ntsc>false</ntsc>
                  <timebase>25</timebase>
                </rate>
                <in>55335</in>
                <out>55597</out>
                <start>55335</start>
                <end>55597</end>
                <file id="src-1"/>
                <sourcetrack>
                  <mediatype>video</mediatype>
                  <trackindex>1</trackindex>
                </sourcetrack>
                <multiclip id="mcs-474">
                  <name>MCS-474</name>
                  <masterclipid>clip-master</masterclipid>
                  <collapsed>false</collapsed>
                  <angle>
                    <activevideoangle>true</activevideoangle>
                    <activeaudioangle>true</activeaudioangle>
                    <clip id="clip-1"/>
                  </angle>
                  <angle>
                    <activevideoangle>false</activevideoangle>
                    <activeaudioangle>false</activeaudioangle>
                    <clip id="clip-2"/>
                  </angle>
                  <angle>
                    <activevideoangle>false</activevideoangle>
                    <activeaudioangle>false</activeaudioangle>
                    <clip id="clip-3"/>
                  </angle>
                  <angle>
                    <activevideoangle>false</activevideoangle>
                    <activeaudioangle>false</activeaudioangle>
                    <clip id="clip-4"/>
                  </angle>
                  <angle>
                    <activevideoangle>false</activevideoangle>
                    <activeaudioangle>false</activeaudioangle>
                    <clip id="clip-5"/>
                  </angle>
                  <angle>
                    <activevideoangle>false</activevideoangle>
                    <activeaudioangle>false</activeaudioangle>
                    <clip id="clip-6"/>
                  </angle>
                  <angle>
                    <activevideoangle>false</activevideoangle>
                    <activeaudioangle>false</activeaudioangle>
                    <clip id="clip-7"/>
                  </angle>
                  <masterclipid>clip-master</masterclipid>
                </multiclip>
              </clipitem>
              <clipitem id="cs-475">
                <duration>315</duration>
                <rate>
                  <ntsc>false</ntsc>
                  <timebase>25</timebase>
                </rate>
                <in>55597</in>
                <out>55911</out>
                <start>55597</start>
                <end>55911</end>
                <file id="src-2"/>
                <sourcetrack>
                  <mediatype>video</mediatype>
                  <trackindex>1</trackindex>
                </sourcetrack>
                <multiclip id="mcs-475">
                  <name>MCS-475</name>
                  <masterclipid>clip-master</masterclipid>
                  <collapsed>false</collapsed>
                  <angle>
                    <activevideoangle>false</activevideoangle>
                    <activeaudioangle>false</activeaudioangle>
                    <clip id="clip-1"/>
                  </angle>
                  <angle>
                    <activevideoangle>true</activevideoangle>
                    <activeaudioangle>true</activeaudioangle>
                    <clip id="clip-2"/>
                  </angle>
                  <angle>
                    <activevideoangle>false</activevideoangle>
                    <activeaudioangle>false</activeaudioangle>
                    <clip id="clip-3"/>
                  </angle>
                  <angle>
                    <activevideoangle>false</activevideoangle>
                    <activeaudioangle>false</activeaudioangle>
                    <clip id="clip-4"/>
                  </angle>
                  <angle>
                    <activevideoangle>false</activevideoangle>
                    <activeaudioangle>false</activeaudioangle>
                    <clip id="clip-5"/>
                  </angle>
                  <angle>
                    <activevideoangle>false</activevideoangle>
                    <activeaudioangle>false</activeaudioangle>
                    <clip id="clip-6"/>
                  </angle>
                  <angle>
                    <activevideoangle>false</activevideoangle>
                    <activeaudioangle>false</activeaudioangle>
                    <clip id="clip-7"/>
                  </angle>
                  <masterclipid>clip-master</masterclipid>
                </multiclip>
              </clipitem>
              <clipitem id="cs-476">
                <duration>84</duration>
                <rate>
                  <ntsc>false</ntsc>
                  <timebase>25</timebase>
                </rate>
                <in>55911</in>
                <out>55994</out>
                <start>55911</start>
                <end>55994</end>
                <file id="src-5"/>
                <sourcetrack>
                  <mediatype>video</mediatype>
                  <trackindex>1</trackindex>
                </sourcetrack>
                <multiclip id="mcs-476">
                  <name>MCS-476</name>
                  <masterclipid>clip-master</masterclipid>
                  <collapsed>false</collapsed>
                  <angle>
                    <activevideoangle>false</activevideoangle>
                    <activeaudioangle>false</activeaudioangle>
                    <clip id="clip-1"/>
                  </angle>
                  <angle>
                    <activevideoangle>false</activevideoangle>
                    <activeaudioangle>false</activeaudioangle>
                    <clip id="clip-2"/>
                  </angle>
                  <angle>
                    <activevideoangle>false</activevideoangle>
                    <activeaudioangle>false</activeaudioangle>
                    <clip id="clip-3"/>
                  </angle>
                  <angle>
                    <activevideoangle>false</activevideoangle>
                    <activeaudioangle>false</activeaudioangle>
                    <clip id="clip-4"/>
                  </angle>
                  <angle>
                    <activevideoangle>true</activevideoangle>
                    <activeaudioangle>true</activeaudioangle>
                    <clip id="clip-5"/>
                  </angle>
                  <angle>
                    <activevideoangle>false</activevideoangle>
                    <activeaudioangle>false</activeaudioangle>
                    <clip id="clip-6"/>
                  </angle>
                  <angle>
                    <activevideoangle>false</activevideoangle>
                    <activeaudioangle>false</activeaudioangle>
                    <clip id="clip-7"/>
                  </angle>
                  <masterclipid>clip-master</masterclipid>
                </multiclip>
              </clipitem>
              <clipitem id="cs-477">
                <duration>64</duration>
                <rate>
                  <ntsc>false</ntsc>
                  <timebase>25</timebase>
                </rate>
                <in>55994</in>
                <out>56057</out>
                <start>55994</start>
                <end>56057</end>
                <file id="src-3"/>
                <sourcetrack>
                  <mediatype>video</mediatype>
                  <trackindex>1</trackindex>
                </sourcetrack>
                <multiclip id="mcs-477">
                  <name>MCS-477</name>
                  <masterclipid>clip-master</masterclipid>
                  <collapsed>false</collapsed>
                  <angle>
                    <activevideoangle>false</activevideoangle>
                    <activeaudioangle>false</activeaudioangle>
                    <clip id="clip-1"/>
                  </angle>
                  <angle>
                    <activevideoangle>false</activevideoangle>
                    <activeaudioangle>false</activeaudioangle>
                    <clip id="clip-2"/>
                  </angle>
                  <angle>
                    <activevideoangle>true</activevideoangle>
                    <activeaudioangle>true</activeaudioangle>
                    <clip id="clip-3"/>
                  </angle>
                  <angle>
                    <activevideoangle>false</activevideoangle>
                    <activeaudioangle>false</activeaudioangle>
                    <clip id="clip-4"/>
                  </angle>
                  <angle>
                    <activevideoangle>false</activevideoangle>
                    <activeaudioangle>false</activeaudioangle>
                    <clip id="clip-5"/>
                  </angle>
                  <angle>
                    <activevideoangle>false</activevideoangle>
                    <activeaudioangle>false</activeaudioangle>
                    <clip id="clip-6"/>
                  </angle>
                  <angle>
                    <activevideoangle>false</activevideoangle>
                    <activeaudioangle>false</activeaudioangle>
                    <clip id="clip-7"/>
                  </angle>
                  <masterclipid>clip-master</masterclipid>
                </multiclip>
              </clipitem>
              <clipitem id="cs-478">
                <duration>77</duration>
                <rate>
                  <ntsc>false</ntsc>
                  <timebase>25</timebase>
                </rate>
                <in>56057</in>
                <out>56133</out>
                <start>56057</start>
                <end>56133</end>
                <file id="src-6"/>
                <sourcetrack>
                  <mediatype>video</mediatype>
                  <trackindex>1</trackindex>
                </sourcetrack>
                <multiclip id="mcs-478">
                  <name>MCS-478</name>
                  <masterclipid>clip-master</masterclipid>
                  <collapsed>false</collapsed>
                  <angle>
                    <activevideoangle>false</activevideoangle>
                    <activeaudioangle>false</activeaudioangle>
                    <clip id="clip-1"/>
                  </angle>
                  <angle>
                    <activevideoangle>false</activevideoangle>
                    <activeaudioangle>false</activeaudioangle>
                    <clip id="clip-2"/>
                  </angle>
                  <angle>
                    <activevideoangle>false</activevideoangle>
                    <activeaudioangle>false</activeaudioangle>
                    <clip id="clip-3"/>
                  </angle>
                  <angle>
                    <activevideoangle>false</activevideoangle>
                    <activeaudioangle>false</activeaudioangle>
                    <clip id="clip-4"/>
                  </angle>
                  <angle>
                    <activevideoangle>false</activevideoangle>
                    <activeaudioangle>false</activeaudioangle>
                    <clip id="clip-5"/>
                  </angle>
                  <angle>
                    <activevideoangle>true</activevideoangle>
                    <activeaudioangle>true</activeaudioangle>
                    <clip id="clip-6"/>
                  </angle>
                  <angle>
                    <activevideoangle>false</activevideoangle>
                    <activeaudioangle>false</activeaudioangle>
                    <clip id="clip-7"/>
                  </angle>
                  <masterclipid>clip-master</masterclipid>
                </multiclip>
              </clipitem>
              <clipitem id="cs-479">
                <duration>70</duration>
                <rate>
                  <ntsc>false</ntsc>
                  <timebase>25</timebase>
                </rate>
                <in>56133</in>
                <out>56202</out>
                <start>56133</start>
                <end>56202</end>
                <file id="src-2"/>
                <sourcetrack>
                  <mediatype>video</mediatype>
                  <trackindex>1</trackindex>
                </sourcetrack>
                <multiclip id="mcs-479">
                  <name>MCS-479</name>
                  <masterclipid>clip-master</masterclipid>
                  <collapsed>false</collapsed>
                  <angle>
                    <activevideoangle>false</activevideoangle>
                    <activeaudioangle>false</activeaudioangle>
                    <clip id="clip-1"/>
                  </angle>
                  <angle>
                    <activevideoangle>true</activevideoangle>
                    <activeaudioangle>true</activeaudioangle>
                    <clip id="clip-2"/>
                  </angle>
                  <angle>
                    <activevideoangle>false</activevideoangle>
                    <activeaudioangle>false</activeaudioangle>
                    <clip id="clip-3"/>
                  </angle>
                  <angle>
                    <activevideoangle>false</activevideoangle>
                    <activeaudioangle>false</activeaudioangle>
                    <clip id="clip-4"/>
                  </angle>
                  <angle>
                    <activevideoangle>false</activevideoangle>
                    <activeaudioangle>false</activeaudioangle>
                    <clip id="clip-5"/>
                  </angle>
                  <angle>
                    <activevideoangle>false</activevideoangle>
                    <activeaudioangle>false</activeaudioangle>
                    <clip id="clip-6"/>
                  </angle>
                  <angle>
                    <activevideoangle>false</activevideoangle>
                    <activeaudioangle>false</activeaudioangle>
                    <clip id="clip-7"/>
                  </angle>
                  <masterclipid>clip-master</masterclipid>
                </multiclip>
              </clipitem>
              <clipitem id="cs-480">
                <duration>153</duration>
                <rate>
                  <ntsc>false</ntsc>
                  <timebase>25</timebase>
                </rate>
                <in>56202</in>
                <out>56354</out>
                <start>56202</start>
                <end>56354</end>
                <file id="src-3"/>
                <sourcetrack>
                  <mediatype>video</mediatype>
                  <trackindex>1</trackindex>
                </sourcetrack>
                <multiclip id="mcs-480">
                  <name>MCS-480</name>
                  <masterclipid>clip-master</masterclipid>
                  <collapsed>false</collapsed>
                  <angle>
                    <activevideoangle>false</activevideoangle>
                    <activeaudioangle>false</activeaudioangle>
                    <clip id="clip-1"/>
                  </angle>
                  <angle>
                    <activevideoangle>false</activevideoangle>
                    <activeaudioangle>false</activeaudioangle>
                    <clip id="clip-2"/>
                  </angle>
                  <angle>
                    <activevideoangle>true</activevideoangle>
                    <activeaudioangle>true</activeaudioangle>
                    <clip id="clip-3"/>
                  </angle>
                  <angle>
                    <activevideoangle>false</activevideoangle>
                    <activeaudioangle>false</activeaudioangle>
                    <clip id="clip-4"/>
                  </angle>
                  <angle>
                    <activevideoangle>false</activevideoangle>
                    <activeaudioangle>false</activeaudioangle>
                    <clip id="clip-5"/>
                  </angle>
                  <angle>
                    <activevideoangle>false</activevideoangle>
                    <activeaudioangle>false</activeaudioangle>
                    <clip id="clip-6"/>
                  </angle>
                  <angle>
                    <activevideoangle>false</activevideoangle>
                    <activeaudioangle>false</activeaudioangle>
                    <clip id="clip-7"/>
                  </angle>
                  <masterclipid>clip-master</masterclipid>
                </multiclip>
              </clipitem>
              <clipitem id="cs-481">
                <duration>161</duration>
                <rate>
                  <ntsc>false</ntsc>
                  <timebase>25</timebase>
                </rate>
                <in>56354</in>
                <out>56514</out>
                <start>56354</start>
                <end>56514</end>
                <file id="src-4"/>
                <sourcetrack>
                  <mediatype>video</mediatype>
                  <trackindex>1</trackindex>
                </sourcetrack>
                <multiclip id="mcs-481">
                  <name>MCS-481</name>
                  <masterclipid>clip-master</masterclipid>
                  <collapsed>false</collapsed>
                  <angle>
                    <activevideoangle>false</activevideoangle>
                    <activeaudioangle>false</activeaudioangle>
                    <clip id="clip-1"/>
                  </angle>
                  <angle>
                    <activevideoangle>false</activevideoangle>
                    <activeaudioangle>false</activeaudioangle>
                    <clip id="clip-2"/>
                  </angle>
                  <angle>
                    <activevideoangle>false</activevideoangle>
                    <activeaudioangle>false</activeaudioangle>
                    <clip id="clip-3"/>
                  </angle>
                  <angle>
                    <activevideoangle>true</activevideoangle>
                    <activeaudioangle>true</activeaudioangle>
                    <clip id="clip-4"/>
                  </angle>
                  <angle>
                    <activevideoangle>false</activevideoangle>
                    <activeaudioangle>false</activeaudioangle>
                    <clip id="clip-5"/>
                  </angle>
                  <angle>
                    <activevideoangle>false</activevideoangle>
                    <activeaudioangle>false</activeaudioangle>
                    <clip id="clip-6"/>
                  </angle>
                  <angle>
                    <activevideoangle>false</activevideoangle>
                    <activeaudioangle>false</activeaudioangle>
                    <clip id="clip-7"/>
                  </angle>
                  <masterclipid>clip-master</masterclipid>
                </multiclip>
              </clipitem>
              <clipitem id="cs-482">
                <duration>64</duration>
                <rate>
                  <ntsc>false</ntsc>
                  <timebase>25</timebase>
                </rate>
                <in>56514</in>
                <out>56577</out>
                <start>56514</start>
                <end>56577</end>
                <file id="src-2"/>
                <sourcetrack>
                  <mediatype>video</mediatype>
                  <trackindex>1</trackindex>
                </sourcetrack>
                <multiclip id="mcs-482">
                  <name>MCS-482</name>
                  <masterclipid>clip-master</masterclipid>
                  <collapsed>false</collapsed>
                  <angle>
                    <activevideoangle>false</activevideoangle>
                    <activeaudioangle>false</activeaudioangle>
                    <clip id="clip-1"/>
                  </angle>
                  <angle>
                    <activevideoangle>true</activevideoangle>
                    <activeaudioangle>true</activeaudioangle>
                    <clip id="clip-2"/>
                  </angle>
                  <angle>
                    <activevideoangle>false</activevideoangle>
                    <activeaudioangle>false</activeaudioangle>
                    <clip id="clip-3"/>
                  </angle>
                  <angle>
                    <activevideoangle>false</activevideoangle>
                    <activeaudioangle>false</activeaudioangle>
                    <clip id="clip-4"/>
                  </angle>
                  <angle>
                    <activevideoangle>false</activevideoangle>
                    <activeaudioangle>false</activeaudioangle>
                    <clip id="clip-5"/>
                  </angle>
                  <angle>
                    <activevideoangle>false</activevideoangle>
                    <activeaudioangle>false</activeaudioangle>
                    <clip id="clip-6"/>
                  </angle>
                  <angle>
                    <activevideoangle>false</activevideoangle>
                    <activeaudioangle>false</activeaudioangle>
                    <clip id="clip-7"/>
                  </angle>
                  <masterclipid>clip-master</masterclipid>
                </multiclip>
              </clipitem>
              <clipitem id="cs-483">
                <duration>108</duration>
                <rate>
                  <ntsc>false</ntsc>
                  <timebase>25</timebase>
                </rate>
                <in>56577</in>
                <out>56684</out>
                <start>56577</start>
                <end>56684</end>
                <file id="src-6"/>
                <sourcetrack>
                  <mediatype>video</mediatype>
                  <trackindex>1</trackindex>
                </sourcetrack>
                <multiclip id="mcs-483">
                  <name>MCS-483</name>
                  <masterclipid>clip-master</masterclipid>
                  <collapsed>false</collapsed>
                  <angle>
                    <activevideoangle>false</activevideoangle>
                    <activeaudioangle>false</activeaudioangle>
                    <clip id="clip-1"/>
                  </angle>
                  <angle>
                    <activevideoangle>false</activevideoangle>
                    <activeaudioangle>false</activeaudioangle>
                    <clip id="clip-2"/>
                  </angle>
                  <angle>
                    <activevideoangle>false</activevideoangle>
                    <activeaudioangle>false</activeaudioangle>
                    <clip id="clip-3"/>
                  </angle>
                  <angle>
                    <activevideoangle>false</activevideoangle>
                    <activeaudioangle>false</activeaudioangle>
                    <clip id="clip-4"/>
                  </angle>
                  <angle>
                    <activevideoangle>false</activevideoangle>
                    <activeaudioangle>false</activeaudioangle>
                    <clip id="clip-5"/>
                  </angle>
                  <angle>
                    <activevideoangle>true</activevideoangle>
                    <activeaudioangle>true</activeaudioangle>
                    <clip id="clip-6"/>
                  </angle>
                  <angle>
                    <activevideoangle>false</activevideoangle>
                    <activeaudioangle>false</activeaudioangle>
                    <clip id="clip-7"/>
                  </angle>
                  <masterclipid>clip-master</masterclipid>
                </multiclip>
              </clipitem>
              <clipitem id="cs-484">
                <duration>86</duration>
                <rate>
                  <ntsc>false</ntsc>
                  <timebase>25</timebase>
                </rate>
                <in>56684</in>
                <out>56769</out>
                <start>56684</start>
                <end>56769</end>
                <file id="src-3"/>
                <sourcetrack>
                  <mediatype>video</mediatype>
                  <trackindex>1</trackindex>
                </sourcetrack>
                <multiclip id="mcs-484">
                  <name>MCS-484</name>
                  <masterclipid>clip-master</masterclipid>
                  <collapsed>false</collapsed>
                  <angle>
                    <activevideoangle>false</activevideoangle>
                    <activeaudioangle>false</activeaudioangle>
                    <clip id="clip-1"/>
                  </angle>
                  <angle>
                    <activevideoangle>false</activevideoangle>
                    <activeaudioangle>false</activeaudioangle>
                    <clip id="clip-2"/>
                  </angle>
                  <angle>
                    <activevideoangle>true</activevideoangle>
                    <activeaudioangle>true</activeaudioangle>
                    <clip id="clip-3"/>
                  </angle>
                  <angle>
                    <activevideoangle>false</activevideoangle>
                    <activeaudioangle>false</activeaudioangle>
                    <clip id="clip-4"/>
                  </angle>
                  <angle>
                    <activevideoangle>false</activevideoangle>
                    <activeaudioangle>false</activeaudioangle>
                    <clip id="clip-5"/>
                  </angle>
                  <angle>
                    <activevideoangle>false</activevideoangle>
                    <activeaudioangle>false</activeaudioangle>
                    <clip id="clip-6"/>
                  </angle>
                  <angle>
                    <activevideoangle>false</activevideoangle>
                    <activeaudioangle>false</activeaudioangle>
                    <clip id="clip-7"/>
                  </angle>
                  <masterclipid>clip-master</masterclipid>
                </multiclip>
              </clipitem>
              <clipitem id="cs-485">
                <duration>159</duration>
                <rate>
                  <ntsc>false</ntsc>
                  <timebase>25</timebase>
                </rate>
                <in>56769</in>
                <out>56927</out>
                <start>56769</start>
                <end>56927</end>
                <file id="src-2"/>
                <sourcetrack>
                  <mediatype>video</mediatype>
                  <trackindex>1</trackindex>
                </sourcetrack>
                <multiclip id="mcs-485">
                  <name>MCS-485</name>
                  <masterclipid>clip-master</masterclipid>
                  <collapsed>false</collapsed>
                  <angle>
                    <activevideoangle>false</activevideoangle>
                    <activeaudioangle>false</activeaudioangle>
                    <clip id="clip-1"/>
                  </angle>
                  <angle>
                    <activevideoangle>true</activevideoangle>
                    <activeaudioangle>true</activeaudioangle>
                    <clip id="clip-2"/>
                  </angle>
                  <angle>
                    <activevideoangle>false</activevideoangle>
                    <activeaudioangle>false</activeaudioangle>
                    <clip id="clip-3"/>
                  </angle>
                  <angle>
                    <activevideoangle>false</activevideoangle>
                    <activeaudioangle>false</activeaudioangle>
                    <clip id="clip-4"/>
                  </angle>
                  <angle>
                    <activevideoangle>false</activevideoangle>
                    <activeaudioangle>false</activeaudioangle>
                    <clip id="clip-5"/>
                  </angle>
                  <angle>
                    <activevideoangle>false</activevideoangle>
                    <activeaudioangle>false</activeaudioangle>
                    <clip id="clip-6"/>
                  </angle>
                  <angle>
                    <activevideoangle>false</activevideoangle>
                    <activeaudioangle>false</activeaudioangle>
                    <clip id="clip-7"/>
                  </angle>
                  <masterclipid>clip-master</masterclipid>
                </multiclip>
              </clipitem>
              <clipitem id="cs-486">
                <duration>56</duration>
                <rate>
                  <ntsc>false</ntsc>
                  <timebase>25</timebase>
                </rate>
                <in>56927</in>
                <out>56982</out>
                <start>56927</start>
                <end>56982</end>
                <file id="src-1"/>
                <sourcetrack>
                  <mediatype>video</mediatype>
                  <trackindex>1</trackindex>
                </sourcetrack>
                <multiclip id="mcs-486">
                  <name>MCS-486</name>
                  <masterclipid>clip-master</masterclipid>
                  <collapsed>false</collapsed>
                  <angle>
                    <activevideoangle>true</activevideoangle>
                    <activeaudioangle>true</activeaudioangle>
                    <clip id="clip-1"/>
                  </angle>
                  <angle>
                    <activevideoangle>false</activevideoangle>
                    <activeaudioangle>false</activeaudioangle>
                    <clip id="clip-2"/>
                  </angle>
                  <angle>
                    <activevideoangle>false</activevideoangle>
                    <activeaudioangle>false</activeaudioangle>
                    <clip id="clip-3"/>
                  </angle>
                  <angle>
                    <activevideoangle>false</activevideoangle>
                    <activeaudioangle>false</activeaudioangle>
                    <clip id="clip-4"/>
                  </angle>
                  <angle>
                    <activevideoangle>false</activevideoangle>
                    <activeaudioangle>false</activeaudioangle>
                    <clip id="clip-5"/>
                  </angle>
                  <angle>
                    <activevideoangle>false</activevideoangle>
                    <activeaudioangle>false</activeaudioangle>
                    <clip id="clip-6"/>
                  </angle>
                  <angle>
                    <activevideoangle>false</activevideoangle>
                    <activeaudioangle>false</activeaudioangle>
                    <clip id="clip-7"/>
                  </angle>
                  <masterclipid>clip-master</masterclipid>
                </multiclip>
              </clipitem>
              <clipitem id="cs-487">
                <duration>75</duration>
                <rate>
                  <ntsc>false</ntsc>
                  <timebase>25</timebase>
                </rate>
                <in>56982</in>
                <out>57056</out>
                <start>56982</start>
                <end>57056</end>
                <file id="src-4"/>
                <sourcetrack>
                  <mediatype>video</mediatype>
                  <trackindex>1</trackindex>
                </sourcetrack>
                <multiclip id="mcs-487">
                  <name>MCS-487</name>
                  <masterclipid>clip-master</masterclipid>
                  <collapsed>false</collapsed>
                  <angle>
                    <activevideoangle>false</activevideoangle>
                    <activeaudioangle>false</activeaudioangle>
                    <clip id="clip-1"/>
                  </angle>
                  <angle>
                    <activevideoangle>false</activevideoangle>
                    <activeaudioangle>false</activeaudioangle>
                    <clip id="clip-2"/>
                  </angle>
                  <angle>
                    <activevideoangle>false</activevideoangle>
                    <activeaudioangle>false</activeaudioangle>
                    <clip id="clip-3"/>
                  </angle>
                  <angle>
                    <activevideoangle>true</activevideoangle>
                    <activeaudioangle>true</activeaudioangle>
                    <clip id="clip-4"/>
                  </angle>
                  <angle>
                    <activevideoangle>false</activevideoangle>
                    <activeaudioangle>false</activeaudioangle>
                    <clip id="clip-5"/>
                  </angle>
                  <angle>
                    <activevideoangle>false</activevideoangle>
                    <activeaudioangle>false</activeaudioangle>
                    <clip id="clip-6"/>
                  </angle>
                  <angle>
                    <activevideoangle>false</activevideoangle>
                    <activeaudioangle>false</activeaudioangle>
                    <clip id="clip-7"/>
                  </angle>
                  <masterclipid>clip-master</masterclipid>
                </multiclip>
              </clipitem>
              <clipitem id="cs-488">
                <duration>127</duration>
                <rate>
                  <ntsc>false</ntsc>
                  <timebase>25</timebase>
                </rate>
                <in>57056</in>
                <out>57182</out>
                <start>57056</start>
                <end>57182</end>
                <file id="src-3"/>
                <sourcetrack>
                  <mediatype>video</mediatype>
                  <trackindex>1</trackindex>
                </sourcetrack>
                <multiclip id="mcs-488">
                  <name>MCS-488</name>
                  <masterclipid>clip-master</masterclipid>
                  <collapsed>false</collapsed>
                  <angle>
                    <activevideoangle>false</activevideoangle>
                    <activeaudioangle>false</activeaudioangle>
                    <clip id="clip-1"/>
                  </angle>
                  <angle>
                    <activevideoangle>false</activevideoangle>
                    <activeaudioangle>false</activeaudioangle>
                    <clip id="clip-2"/>
                  </angle>
                  <angle>
                    <activevideoangle>true</activevideoangle>
                    <activeaudioangle>true</activeaudioangle>
                    <clip id="clip-3"/>
                  </angle>
                  <angle>
                    <activevideoangle>false</activevideoangle>
                    <activeaudioangle>false</activeaudioangle>
                    <clip id="clip-4"/>
                  </angle>
                  <angle>
                    <activevideoangle>false</activevideoangle>
                    <activeaudioangle>false</activeaudioangle>
                    <clip id="clip-5"/>
                  </angle>
                  <angle>
                    <activevideoangle>false</activevideoangle>
                    <activeaudioangle>false</activeaudioangle>
                    <clip id="clip-6"/>
                  </angle>
                  <angle>
                    <activevideoangle>false</activevideoangle>
                    <activeaudioangle>false</activeaudioangle>
                    <clip id="clip-7"/>
                  </angle>
                  <masterclipid>clip-master</masterclipid>
                </multiclip>
              </clipitem>
              <clipitem id="cs-489">
                <duration>126</duration>
                <rate>
                  <ntsc>false</ntsc>
                  <timebase>25</timebase>
                </rate>
                <in>57182</in>
                <out>57307</out>
                <start>57182</start>
                <end>57307</end>
                <file id="src-6"/>
                <sourcetrack>
                  <mediatype>video</mediatype>
                  <trackindex>1</trackindex>
                </sourcetrack>
                <multiclip id="mcs-489">
                  <name>MCS-489</name>
                  <masterclipid>clip-master</masterclipid>
                  <collapsed>false</collapsed>
                  <angle>
                    <activevideoangle>false</activevideoangle>
                    <activeaudioangle>false</activeaudioangle>
                    <clip id="clip-1"/>
                  </angle>
                  <angle>
                    <activevideoangle>false</activevideoangle>
                    <activeaudioangle>false</activeaudioangle>
                    <clip id="clip-2"/>
                  </angle>
                  <angle>
                    <activevideoangle>false</activevideoangle>
                    <activeaudioangle>false</activeaudioangle>
                    <clip id="clip-3"/>
                  </angle>
                  <angle>
                    <activevideoangle>false</activevideoangle>
                    <activeaudioangle>false</activeaudioangle>
                    <clip id="clip-4"/>
                  </angle>
                  <angle>
                    <activevideoangle>false</activevideoangle>
                    <activeaudioangle>false</activeaudioangle>
                    <clip id="clip-5"/>
                  </angle>
                  <angle>
                    <activevideoangle>true</activevideoangle>
                    <activeaudioangle>true</activeaudioangle>
                    <clip id="clip-6"/>
                  </angle>
                  <angle>
                    <activevideoangle>false</activevideoangle>
                    <activeaudioangle>false</activeaudioangle>
                    <clip id="clip-7"/>
                  </angle>
                  <masterclipid>clip-master</masterclipid>
                </multiclip>
              </clipitem>
              <clipitem id="cs-490">
                <duration>83</duration>
                <rate>
                  <ntsc>false</ntsc>
                  <timebase>25</timebase>
                </rate>
                <in>57307</in>
                <out>57389</out>
                <start>57307</start>
                <end>57389</end>
                <file id="src-2"/>
                <sourcetrack>
                  <mediatype>video</mediatype>
                  <trackindex>1</trackindex>
                </sourcetrack>
                <multiclip id="mcs-490">
                  <name>MCS-490</name>
                  <masterclipid>clip-master</masterclipid>
                  <collapsed>false</collapsed>
                  <angle>
                    <activevideoangle>false</activevideoangle>
                    <activeaudioangle>false</activeaudioangle>
                    <clip id="clip-1"/>
                  </angle>
                  <angle>
                    <activevideoangle>true</activevideoangle>
                    <activeaudioangle>true</activeaudioangle>
                    <clip id="clip-2"/>
                  </angle>
                  <angle>
                    <activevideoangle>false</activevideoangle>
                    <activeaudioangle>false</activeaudioangle>
                    <clip id="clip-3"/>
                  </angle>
                  <angle>
                    <activevideoangle>false</activevideoangle>
                    <activeaudioangle>false</activeaudioangle>
                    <clip id="clip-4"/>
                  </angle>
                  <angle>
                    <activevideoangle>false</activevideoangle>
                    <activeaudioangle>false</activeaudioangle>
                    <clip id="clip-5"/>
                  </angle>
                  <angle>
                    <activevideoangle>false</activevideoangle>
                    <activeaudioangle>false</activeaudioangle>
                    <clip id="clip-6"/>
                  </angle>
                  <angle>
                    <activevideoangle>false</activevideoangle>
                    <activeaudioangle>false</activeaudioangle>
                    <clip id="clip-7"/>
                  </angle>
                  <masterclipid>clip-master</masterclipid>
                </multiclip>
              </clipitem>
              <clipitem id="cs-491">
                <duration>197</duration>
                <rate>
                  <ntsc>false</ntsc>
                  <timebase>25</timebase>
                </rate>
                <in>57389</in>
                <out>57585</out>
                <start>57389</start>
                <end>57585</end>
                <file id="src-3"/>
                <sourcetrack>
                  <mediatype>video</mediatype>
                  <trackindex>1</trackindex>
                </sourcetrack>
                <multiclip id="mcs-491">
                  <name>MCS-491</name>
                  <masterclipid>clip-master</masterclipid>
                  <collapsed>false</collapsed>
                  <angle>
                    <activevideoangle>false</activevideoangle>
                    <activeaudioangle>false</activeaudioangle>
                    <clip id="clip-1"/>
                  </angle>
                  <angle>
                    <activevideoangle>false</activevideoangle>
                    <activeaudioangle>false</activeaudioangle>
                    <clip id="clip-2"/>
                  </angle>
                  <angle>
                    <activevideoangle>true</activevideoangle>
                    <activeaudioangle>true</activeaudioangle>
                    <clip id="clip-3"/>
                  </angle>
                  <angle>
                    <activevideoangle>false</activevideoangle>
                    <activeaudioangle>false</activeaudioangle>
                    <clip id="clip-4"/>
                  </angle>
                  <angle>
                    <activevideoangle>false</activevideoangle>
                    <activeaudioangle>false</activeaudioangle>
                    <clip id="clip-5"/>
                  </angle>
                  <angle>
                    <activevideoangle>false</activevideoangle>
                    <activeaudioangle>false</activeaudioangle>
                    <clip id="clip-6"/>
                  </angle>
                  <angle>
                    <activevideoangle>false</activevideoangle>
                    <activeaudioangle>false</activeaudioangle>
                    <clip id="clip-7"/>
                  </angle>
                  <masterclipid>clip-master</masterclipid>
                </multiclip>
              </clipitem>
              <clipitem id="cs-492">
                <duration>71</duration>
                <rate>
                  <ntsc>false</ntsc>
                  <timebase>25</timebase>
                </rate>
                <in>57585</in>
                <out>57655</out>
                <start>57585</start>
                <end>57655</end>
                <file id="src-4"/>
                <sourcetrack>
                  <mediatype>video</mediatype>
                  <trackindex>1</trackindex>
                </sourcetrack>
                <multiclip id="mcs-492">
                  <name>MCS-492</name>
                  <masterclipid>clip-master</masterclipid>
                  <collapsed>false</collapsed>
                  <angle>
                    <activevideoangle>false</activevideoangle>
                    <activeaudioangle>false</activeaudioangle>
                    <clip id="clip-1"/>
                  </angle>
                  <angle>
                    <activevideoangle>false</activevideoangle>
                    <activeaudioangle>false</activeaudioangle>
                    <clip id="clip-2"/>
                  </angle>
                  <angle>
                    <activevideoangle>false</activevideoangle>
                    <activeaudioangle>false</activeaudioangle>
                    <clip id="clip-3"/>
                  </angle>
                  <angle>
                    <activevideoangle>true</activevideoangle>
                    <activeaudioangle>true</activeaudioangle>
                    <clip id="clip-4"/>
                  </angle>
                  <angle>
                    <activevideoangle>false</activevideoangle>
                    <activeaudioangle>false</activeaudioangle>
                    <clip id="clip-5"/>
                  </angle>
                  <angle>
                    <activevideoangle>false</activevideoangle>
                    <activeaudioangle>false</activeaudioangle>
                    <clip id="clip-6"/>
                  </angle>
                  <angle>
                    <activevideoangle>false</activevideoangle>
                    <activeaudioangle>false</activeaudioangle>
                    <clip id="clip-7"/>
                  </angle>
                  <masterclipid>clip-master</masterclipid>
                </multiclip>
              </clipitem>
              <clipitem id="cs-493">
                <duration>108</duration>
                <rate>
                  <ntsc>false</ntsc>
                  <timebase>25</timebase>
                </rate>
                <in>57655</in>
                <out>57762</out>
                <start>57655</start>
                <end>57762</end>
                <file id="src-6"/>
                <sourcetrack>
                  <mediatype>video</mediatype>
                  <trackindex>1</trackindex>
                </sourcetrack>
                <multiclip id="mcs-493">
                  <name>MCS-493</name>
                  <masterclipid>clip-master</masterclipid>
                  <collapsed>false</collapsed>
                  <angle>
                    <activevideoangle>false</activevideoangle>
                    <activeaudioangle>false</activeaudioangle>
                    <clip id="clip-1"/>
                  </angle>
                  <angle>
                    <activevideoangle>false</activevideoangle>
                    <activeaudioangle>false</activeaudioangle>
                    <clip id="clip-2"/>
                  </angle>
                  <angle>
                    <activevideoangle>false</activevideoangle>
                    <activeaudioangle>false</activeaudioangle>
                    <clip id="clip-3"/>
                  </angle>
                  <angle>
                    <activevideoangle>false</activevideoangle>
                    <activeaudioangle>false</activeaudioangle>
                    <clip id="clip-4"/>
                  </angle>
                  <angle>
                    <activevideoangle>false</activevideoangle>
                    <activeaudioangle>false</activeaudioangle>
                    <clip id="clip-5"/>
                  </angle>
                  <angle>
                    <activevideoangle>true</activevideoangle>
                    <activeaudioangle>true</activeaudioangle>
                    <clip id="clip-6"/>
                  </angle>
                  <angle>
                    <activevideoangle>false</activevideoangle>
                    <activeaudioangle>false</activeaudioangle>
                    <clip id="clip-7"/>
                  </angle>
                  <masterclipid>clip-master</masterclipid>
                </multiclip>
              </clipitem>
              <clipitem id="cs-494">
                <duration>133</duration>
                <rate>
                  <ntsc>false</ntsc>
                  <timebase>25</timebase>
                </rate>
                <in>57762</in>
                <out>57894</out>
                <start>57762</start>
                <end>57894</end>
                <file id="src-3"/>
                <sourcetrack>
                  <mediatype>video</mediatype>
                  <trackindex>1</trackindex>
                </sourcetrack>
                <multiclip id="mcs-494">
                  <name>MCS-494</name>
                  <masterclipid>clip-master</masterclipid>
                  <collapsed>false</collapsed>
                  <angle>
                    <activevideoangle>false</activevideoangle>
                    <activeaudioangle>false</activeaudioangle>
                    <clip id="clip-1"/>
                  </angle>
                  <angle>
                    <activevideoangle>false</activevideoangle>
                    <activeaudioangle>false</activeaudioangle>
                    <clip id="clip-2"/>
                  </angle>
                  <angle>
                    <activevideoangle>true</activevideoangle>
                    <activeaudioangle>true</activeaudioangle>
                    <clip id="clip-3"/>
                  </angle>
                  <angle>
                    <activevideoangle>false</activevideoangle>
                    <activeaudioangle>false</activeaudioangle>
                    <clip id="clip-4"/>
                  </angle>
                  <angle>
                    <activevideoangle>false</activevideoangle>
                    <activeaudioangle>false</activeaudioangle>
                    <clip id="clip-5"/>
                  </angle>
                  <angle>
                    <activevideoangle>false</activevideoangle>
                    <activeaudioangle>false</activeaudioangle>
                    <clip id="clip-6"/>
                  </angle>
                  <angle>
                    <activevideoangle>false</activevideoangle>
                    <activeaudioangle>false</activeaudioangle>
                    <clip id="clip-7"/>
                  </angle>
                  <masterclipid>clip-master</masterclipid>
                </multiclip>
              </clipitem>
              <clipitem id="cs-495">
                <duration>89</duration>
                <rate>
                  <ntsc>false</ntsc>
                  <timebase>25</timebase>
                </rate>
                <in>57894</in>
                <out>57982</out>
                <start>57894</start>
                <end>57982</end>
                <file id="src-2"/>
                <sourcetrack>
                  <mediatype>video</mediatype>
                  <trackindex>1</trackindex>
                </sourcetrack>
                <multiclip id="mcs-495">
                  <name>MCS-495</name>
                  <masterclipid>clip-master</masterclipid>
                  <collapsed>false</collapsed>
                  <angle>
                    <activevideoangle>false</activevideoangle>
                    <activeaudioangle>false</activeaudioangle>
                    <clip id="clip-1"/>
                  </angle>
                  <angle>
                    <activevideoangle>true</activevideoangle>
                    <activeaudioangle>true</activeaudioangle>
                    <clip id="clip-2"/>
                  </angle>
                  <angle>
                    <activevideoangle>false</activevideoangle>
                    <activeaudioangle>false</activeaudioangle>
                    <clip id="clip-3"/>
                  </angle>
                  <angle>
                    <activevideoangle>false</activevideoangle>
                    <activeaudioangle>false</activeaudioangle>
                    <clip id="clip-4"/>
                  </angle>
                  <angle>
                    <activevideoangle>false</activevideoangle>
                    <activeaudioangle>false</activeaudioangle>
                    <clip id="clip-5"/>
                  </angle>
                  <angle>
                    <activevideoangle>false</activevideoangle>
                    <activeaudioangle>false</activeaudioangle>
                    <clip id="clip-6"/>
                  </angle>
                  <angle>
                    <activevideoangle>false</activevideoangle>
                    <activeaudioangle>false</activeaudioangle>
                    <clip id="clip-7"/>
                  </angle>
                  <masterclipid>clip-master</masterclipid>
                </multiclip>
              </clipitem>
              <clipitem id="cs-496">
                <duration>126</duration>
                <rate>
                  <ntsc>false</ntsc>
                  <timebase>25</timebase>
                </rate>
                <in>57982</in>
                <out>58107</out>
                <start>57982</start>
                <end>58107</end>
                <file id="src-4"/>
                <sourcetrack>
                  <mediatype>video</mediatype>
                  <trackindex>1</trackindex>
                </sourcetrack>
                <multiclip id="mcs-496">
                  <name>MCS-496</name>
                  <masterclipid>clip-master</masterclipid>
                  <collapsed>false</collapsed>
                  <angle>
                    <activevideoangle>false</activevideoangle>
                    <activeaudioangle>false</activeaudioangle>
                    <clip id="clip-1"/>
                  </angle>
                  <angle>
                    <activevideoangle>false</activevideoangle>
                    <activeaudioangle>false</activeaudioangle>
                    <clip id="clip-2"/>
                  </angle>
                  <angle>
                    <activevideoangle>false</activevideoangle>
                    <activeaudioangle>false</activeaudioangle>
                    <clip id="clip-3"/>
                  </angle>
                  <angle>
                    <activevideoangle>true</activevideoangle>
                    <activeaudioangle>true</activeaudioangle>
                    <clip id="clip-4"/>
                  </angle>
                  <angle>
                    <activevideoangle>false</activevideoangle>
                    <activeaudioangle>false</activeaudioangle>
                    <clip id="clip-5"/>
                  </angle>
                  <angle>
                    <activevideoangle>false</activevideoangle>
                    <activeaudioangle>false</activeaudioangle>
                    <clip id="clip-6"/>
                  </angle>
                  <angle>
                    <activevideoangle>false</activevideoangle>
                    <activeaudioangle>false</activeaudioangle>
                    <clip id="clip-7"/>
                  </angle>
                  <masterclipid>clip-master</masterclipid>
                </multiclip>
              </clipitem>
              <clipitem id="cs-497">
                <duration>90</duration>
                <rate>
                  <ntsc>false</ntsc>
                  <timebase>25</timebase>
                </rate>
                <in>58107</in>
                <out>58196</out>
                <start>58107</start>
                <end>58196</end>
                <file id="src-3"/>
                <sourcetrack>
                  <mediatype>video</mediatype>
                  <trackindex>1</trackindex>
                </sourcetrack>
                <multiclip id="mcs-497">
                  <name>MCS-497</name>
                  <masterclipid>clip-master</masterclipid>
                  <collapsed>false</collapsed>
                  <angle>
                    <activevideoangle>false</activevideoangle>
                    <activeaudioangle>false</activeaudioangle>
                    <clip id="clip-1"/>
                  </angle>
                  <angle>
                    <activevideoangle>false</activevideoangle>
                    <activeaudioangle>false</activeaudioangle>
                    <clip id="clip-2"/>
                  </angle>
                  <angle>
                    <activevideoangle>true</activevideoangle>
                    <activeaudioangle>true</activeaudioangle>
                    <clip id="clip-3"/>
                  </angle>
                  <angle>
                    <activevideoangle>false</activevideoangle>
                    <activeaudioangle>false</activeaudioangle>
                    <clip id="clip-4"/>
                  </angle>
                  <angle>
                    <activevideoangle>false</activevideoangle>
                    <activeaudioangle>false</activeaudioangle>
                    <clip id="clip-5"/>
                  </angle>
                  <angle>
                    <activevideoangle>false</activevideoangle>
                    <activeaudioangle>false</activeaudioangle>
                    <clip id="clip-6"/>
                  </angle>
                  <angle>
                    <activevideoangle>false</activevideoangle>
                    <activeaudioangle>false</activeaudioangle>
                    <clip id="clip-7"/>
                  </angle>
                  <masterclipid>clip-master</masterclipid>
                </multiclip>
              </clipitem>
              <clipitem id="cs-498">
                <duration>99</duration>
                <rate>
                  <ntsc>false</ntsc>
                  <timebase>25</timebase>
                </rate>
                <in>58196</in>
                <out>58294</out>
                <start>58196</start>
                <end>58294</end>
                <file id="src-1"/>
                <sourcetrack>
                  <mediatype>video</mediatype>
                  <trackindex>1</trackindex>
                </sourcetrack>
                <multiclip id="mcs-498">
                  <name>MCS-498</name>
                  <masterclipid>clip-master</masterclipid>
                  <collapsed>false</collapsed>
                  <angle>
                    <activevideoangle>true</activevideoangle>
                    <activeaudioangle>true</activeaudioangle>
                    <clip id="clip-1"/>
                  </angle>
                  <angle>
                    <activevideoangle>false</activevideoangle>
                    <activeaudioangle>false</activeaudioangle>
                    <clip id="clip-2"/>
                  </angle>
                  <angle>
                    <activevideoangle>false</activevideoangle>
                    <activeaudioangle>false</activeaudioangle>
                    <clip id="clip-3"/>
                  </angle>
                  <angle>
                    <activevideoangle>false</activevideoangle>
                    <activeaudioangle>false</activeaudioangle>
                    <clip id="clip-4"/>
                  </angle>
                  <angle>
                    <activevideoangle>false</activevideoangle>
                    <activeaudioangle>false</activeaudioangle>
                    <clip id="clip-5"/>
                  </angle>
                  <angle>
                    <activevideoangle>false</activevideoangle>
                    <activeaudioangle>false</activeaudioangle>
                    <clip id="clip-6"/>
                  </angle>
                  <angle>
                    <activevideoangle>false</activevideoangle>
                    <activeaudioangle>false</activeaudioangle>
                    <clip id="clip-7"/>
                  </angle>
                  <masterclipid>clip-master</masterclipid>
                </multiclip>
              </clipitem>
              <clipitem id="cs-499">
                <duration>152</duration>
                <rate>
                  <ntsc>false</ntsc>
                  <timebase>25</timebase>
                </rate>
                <in>58294</in>
                <out>58445</out>
                <start>58294</start>
                <end>58445</end>
                <file id="src-3"/>
                <sourcetrack>
                  <mediatype>video</mediatype>
                  <trackindex>1</trackindex>
                </sourcetrack>
                <multiclip id="mcs-499">
                  <name>MCS-499</name>
                  <masterclipid>clip-master</masterclipid>
                  <collapsed>false</collapsed>
                  <angle>
                    <activevideoangle>false</activevideoangle>
                    <activeaudioangle>false</activeaudioangle>
                    <clip id="clip-1"/>
                  </angle>
                  <angle>
                    <activevideoangle>false</activevideoangle>
                    <activeaudioangle>false</activeaudioangle>
                    <clip id="clip-2"/>
                  </angle>
                  <angle>
                    <activevideoangle>true</activevideoangle>
                    <activeaudioangle>true</activeaudioangle>
                    <clip id="clip-3"/>
                  </angle>
                  <angle>
                    <activevideoangle>false</activevideoangle>
                    <activeaudioangle>false</activeaudioangle>
                    <clip id="clip-4"/>
                  </angle>
                  <angle>
                    <activevideoangle>false</activevideoangle>
                    <activeaudioangle>false</activeaudioangle>
                    <clip id="clip-5"/>
                  </angle>
                  <angle>
                    <activevideoangle>false</activevideoangle>
                    <activeaudioangle>false</activeaudioangle>
                    <clip id="clip-6"/>
                  </angle>
                  <angle>
                    <activevideoangle>false</activevideoangle>
                    <activeaudioangle>false</activeaudioangle>
                    <clip id="clip-7"/>
                  </angle>
                  <masterclipid>clip-master</masterclipid>
                </multiclip>
              </clipitem>
              <clipitem id="cs-500">
                <duration>102</duration>
                <rate>
                  <ntsc>false</ntsc>
                  <timebase>25</timebase>
                </rate>
                <in>58445</in>
                <out>58546</out>
                <start>58445</start>
                <end>58546</end>
                <file id="src-6"/>
                <sourcetrack>
                  <mediatype>video</mediatype>
                  <trackindex>1</trackindex>
                </sourcetrack>
                <multiclip id="mcs-500">
                  <name>MCS-500</name>
                  <masterclipid>clip-master</masterclipid>
                  <collapsed>false</collapsed>
                  <angle>
                    <activevideoangle>false</activevideoangle>
                    <activeaudioangle>false</activeaudioangle>
                    <clip id="clip-1"/>
                  </angle>
                  <angle>
                    <activevideoangle>false</activevideoangle>
                    <activeaudioangle>false</activeaudioangle>
                    <clip id="clip-2"/>
                  </angle>
                  <angle>
                    <activevideoangle>false</activevideoangle>
                    <activeaudioangle>false</activeaudioangle>
                    <clip id="clip-3"/>
                  </angle>
                  <angle>
                    <activevideoangle>false</activevideoangle>
                    <activeaudioangle>false</activeaudioangle>
                    <clip id="clip-4"/>
                  </angle>
                  <angle>
                    <activevideoangle>false</activevideoangle>
                    <activeaudioangle>false</activeaudioangle>
                    <clip id="clip-5"/>
                  </angle>
                  <angle>
                    <activevideoangle>true</activevideoangle>
                    <activeaudioangle>true</activeaudioangle>
                    <clip id="clip-6"/>
                  </angle>
                  <angle>
                    <activevideoangle>false</activevideoangle>
                    <activeaudioangle>false</activeaudioangle>
                    <clip id="clip-7"/>
                  </angle>
                  <masterclipid>clip-master</masterclipid>
                </multiclip>
              </clipitem>
              <clipitem id="cs-501">
                <duration>258</duration>
                <rate>
                  <ntsc>false</ntsc>
                  <timebase>25</timebase>
                </rate>
                <in>58546</in>
                <out>58803</out>
                <start>58546</start>
                <end>58803</end>
                <file id="src-3"/>
                <sourcetrack>
                  <mediatype>video</mediatype>
                  <trackindex>1</trackindex>
                </sourcetrack>
                <multiclip id="mcs-501">
                  <name>MCS-501</name>
                  <masterclipid>clip-master</masterclipid>
                  <collapsed>false</collapsed>
                  <angle>
                    <activevideoangle>false</activevideoangle>
                    <activeaudioangle>false</activeaudioangle>
                    <clip id="clip-1"/>
                  </angle>
                  <angle>
                    <activevideoangle>false</activevideoangle>
                    <activeaudioangle>false</activeaudioangle>
                    <clip id="clip-2"/>
                  </angle>
                  <angle>
                    <activevideoangle>true</activevideoangle>
                    <activeaudioangle>true</activeaudioangle>
                    <clip id="clip-3"/>
                  </angle>
                  <angle>
                    <activevideoangle>false</activevideoangle>
                    <activeaudioangle>false</activeaudioangle>
                    <clip id="clip-4"/>
                  </angle>
                  <angle>
                    <activevideoangle>false</activevideoangle>
                    <activeaudioangle>false</activeaudioangle>
                    <clip id="clip-5"/>
                  </angle>
                  <angle>
                    <activevideoangle>false</activevideoangle>
                    <activeaudioangle>false</activeaudioangle>
                    <clip id="clip-6"/>
                  </angle>
                  <angle>
                    <activevideoangle>false</activevideoangle>
                    <activeaudioangle>false</activeaudioangle>
                    <clip id="clip-7"/>
                  </angle>
                  <masterclipid>clip-master</masterclipid>
                </multiclip>
              </clipitem>
              <clipitem id="cs-502">
                <duration>260</duration>
                <rate>
                  <ntsc>false</ntsc>
                  <timebase>25</timebase>
                </rate>
                <in>58803</in>
                <out>59062</out>
                <start>58803</start>
                <end>59062</end>
                <file id="src-2"/>
                <sourcetrack>
                  <mediatype>video</mediatype>
                  <trackindex>1</trackindex>
                </sourcetrack>
                <multiclip id="mcs-502">
                  <name>MCS-502</name>
                  <masterclipid>clip-master</masterclipid>
                  <collapsed>false</collapsed>
                  <angle>
                    <activevideoangle>false</activevideoangle>
                    <activeaudioangle>false</activeaudioangle>
                    <clip id="clip-1"/>
                  </angle>
                  <angle>
                    <activevideoangle>true</activevideoangle>
                    <activeaudioangle>true</activeaudioangle>
                    <clip id="clip-2"/>
                  </angle>
                  <angle>
                    <activevideoangle>false</activevideoangle>
                    <activeaudioangle>false</activeaudioangle>
                    <clip id="clip-3"/>
                  </angle>
                  <angle>
                    <activevideoangle>false</activevideoangle>
                    <activeaudioangle>false</activeaudioangle>
                    <clip id="clip-4"/>
                  </angle>
                  <angle>
                    <activevideoangle>false</activevideoangle>
                    <activeaudioangle>false</activeaudioangle>
                    <clip id="clip-5"/>
                  </angle>
                  <angle>
                    <activevideoangle>false</activevideoangle>
                    <activeaudioangle>false</activeaudioangle>
                    <clip id="clip-6"/>
                  </angle>
                  <angle>
                    <activevideoangle>false</activevideoangle>
                    <activeaudioangle>false</activeaudioangle>
                    <clip id="clip-7"/>
                  </angle>
                  <masterclipid>clip-master</masterclipid>
                </multiclip>
              </clipitem>
              <clipitem id="cs-503">
                <duration>40</duration>
                <rate>
                  <ntsc>false</ntsc>
                  <timebase>25</timebase>
                </rate>
                <in>59062</in>
                <out>59101</out>
                <start>59062</start>
                <end>59101</end>
                <file id="src-6"/>
                <sourcetrack>
                  <mediatype>video</mediatype>
                  <trackindex>1</trackindex>
                </sourcetrack>
                <multiclip id="mcs-503">
                  <name>MCS-503</name>
                  <masterclipid>clip-master</masterclipid>
                  <collapsed>false</collapsed>
                  <angle>
                    <activevideoangle>false</activevideoangle>
                    <activeaudioangle>false</activeaudioangle>
                    <clip id="clip-1"/>
                  </angle>
                  <angle>
                    <activevideoangle>false</activevideoangle>
                    <activeaudioangle>false</activeaudioangle>
                    <clip id="clip-2"/>
                  </angle>
                  <angle>
                    <activevideoangle>false</activevideoangle>
                    <activeaudioangle>false</activeaudioangle>
                    <clip id="clip-3"/>
                  </angle>
                  <angle>
                    <activevideoangle>false</activevideoangle>
                    <activeaudioangle>false</activeaudioangle>
                    <clip id="clip-4"/>
                  </angle>
                  <angle>
                    <activevideoangle>false</activevideoangle>
                    <activeaudioangle>false</activeaudioangle>
                    <clip id="clip-5"/>
                  </angle>
                  <angle>
                    <activevideoangle>true</activevideoangle>
                    <activeaudioangle>true</activeaudioangle>
                    <clip id="clip-6"/>
                  </angle>
                  <angle>
                    <activevideoangle>false</activevideoangle>
                    <activeaudioangle>false</activeaudioangle>
                    <clip id="clip-7"/>
                  </angle>
                  <masterclipid>clip-master</masterclipid>
                </multiclip>
              </clipitem>
              <clipitem id="cs-504">
                <duration>122</duration>
                <rate>
                  <ntsc>false</ntsc>
                  <timebase>25</timebase>
                </rate>
                <in>59101</in>
                <out>59222</out>
                <start>59101</start>
                <end>59222</end>
                <file id="src-3"/>
                <sourcetrack>
                  <mediatype>video</mediatype>
                  <trackindex>1</trackindex>
                </sourcetrack>
                <multiclip id="mcs-504">
                  <name>MCS-504</name>
                  <masterclipid>clip-master</masterclipid>
                  <collapsed>false</collapsed>
                  <angle>
                    <activevideoangle>false</activevideoangle>
                    <activeaudioangle>false</activeaudioangle>
                    <clip id="clip-1"/>
                  </angle>
                  <angle>
                    <activevideoangle>false</activevideoangle>
                    <activeaudioangle>false</activeaudioangle>
                    <clip id="clip-2"/>
                  </angle>
                  <angle>
                    <activevideoangle>true</activevideoangle>
                    <activeaudioangle>true</activeaudioangle>
                    <clip id="clip-3"/>
                  </angle>
                  <angle>
                    <activevideoangle>false</activevideoangle>
                    <activeaudioangle>false</activeaudioangle>
                    <clip id="clip-4"/>
                  </angle>
                  <angle>
                    <activevideoangle>false</activevideoangle>
                    <activeaudioangle>false</activeaudioangle>
                    <clip id="clip-5"/>
                  </angle>
                  <angle>
                    <activevideoangle>false</activevideoangle>
                    <activeaudioangle>false</activeaudioangle>
                    <clip id="clip-6"/>
                  </angle>
                  <angle>
                    <activevideoangle>false</activevideoangle>
                    <activeaudioangle>false</activeaudioangle>
                    <clip id="clip-7"/>
                  </angle>
                  <masterclipid>clip-master</masterclipid>
                </multiclip>
              </clipitem>
              <clipitem id="cs-505">
                <duration>83</duration>
                <rate>
                  <ntsc>false</ntsc>
                  <timebase>25</timebase>
                </rate>
                <in>59222</in>
                <out>59304</out>
                <start>59222</start>
                <end>59304</end>
                <file id="src-4"/>
                <sourcetrack>
                  <mediatype>video</mediatype>
                  <trackindex>1</trackindex>
                </sourcetrack>
                <multiclip id="mcs-505">
                  <name>MCS-505</name>
                  <masterclipid>clip-master</masterclipid>
                  <collapsed>false</collapsed>
                  <angle>
                    <activevideoangle>false</activevideoangle>
                    <activeaudioangle>false</activeaudioangle>
                    <clip id="clip-1"/>
                  </angle>
                  <angle>
                    <activevideoangle>false</activevideoangle>
                    <activeaudioangle>false</activeaudioangle>
                    <clip id="clip-2"/>
                  </angle>
                  <angle>
                    <activevideoangle>false</activevideoangle>
                    <activeaudioangle>false</activeaudioangle>
                    <clip id="clip-3"/>
                  </angle>
                  <angle>
                    <activevideoangle>true</activevideoangle>
                    <activeaudioangle>true</activeaudioangle>
                    <clip id="clip-4"/>
                  </angle>
                  <angle>
                    <activevideoangle>false</activevideoangle>
                    <activeaudioangle>false</activeaudioangle>
                    <clip id="clip-5"/>
                  </angle>
                  <angle>
                    <activevideoangle>false</activevideoangle>
                    <activeaudioangle>false</activeaudioangle>
                    <clip id="clip-6"/>
                  </angle>
                  <angle>
                    <activevideoangle>false</activevideoangle>
                    <activeaudioangle>false</activeaudioangle>
                    <clip id="clip-7"/>
                  </angle>
                  <masterclipid>clip-master</masterclipid>
                </multiclip>
              </clipitem>
              <clipitem id="cs-506">
                <duration>139</duration>
                <rate>
                  <ntsc>false</ntsc>
                  <timebase>25</timebase>
                </rate>
                <in>59304</in>
                <out>59442</out>
                <start>59304</start>
                <end>59442</end>
                <file id="src-3"/>
                <sourcetrack>
                  <mediatype>video</mediatype>
                  <trackindex>1</trackindex>
                </sourcetrack>
                <multiclip id="mcs-506">
                  <name>MCS-506</name>
                  <masterclipid>clip-master</masterclipid>
                  <collapsed>false</collapsed>
                  <angle>
                    <activevideoangle>false</activevideoangle>
                    <activeaudioangle>false</activeaudioangle>
                    <clip id="clip-1"/>
                  </angle>
                  <angle>
                    <activevideoangle>false</activevideoangle>
                    <activeaudioangle>false</activeaudioangle>
                    <clip id="clip-2"/>
                  </angle>
                  <angle>
                    <activevideoangle>true</activevideoangle>
                    <activeaudioangle>true</activeaudioangle>
                    <clip id="clip-3"/>
                  </angle>
                  <angle>
                    <activevideoangle>false</activevideoangle>
                    <activeaudioangle>false</activeaudioangle>
                    <clip id="clip-4"/>
                  </angle>
                  <angle>
                    <activevideoangle>false</activevideoangle>
                    <activeaudioangle>false</activeaudioangle>
                    <clip id="clip-5"/>
                  </angle>
                  <angle>
                    <activevideoangle>false</activevideoangle>
                    <activeaudioangle>false</activeaudioangle>
                    <clip id="clip-6"/>
                  </angle>
                  <angle>
                    <activevideoangle>false</activevideoangle>
                    <activeaudioangle>false</activeaudioangle>
                    <clip id="clip-7"/>
                  </angle>
                  <masterclipid>clip-master</masterclipid>
                </multiclip>
              </clipitem>
              <clipitem id="cs-507">
                <duration>72</duration>
                <rate>
                  <ntsc>false</ntsc>
                  <timebase>25</timebase>
                </rate>
                <in>59442</in>
                <out>59513</out>
                <start>59442</start>
                <end>59513</end>
                <file id="src-2"/>
                <sourcetrack>
                  <mediatype>video</mediatype>
                  <trackindex>1</trackindex>
                </sourcetrack>
                <multiclip id="mcs-507">
                  <name>MCS-507</name>
                  <masterclipid>clip-master</masterclipid>
                  <collapsed>false</collapsed>
                  <angle>
                    <activevideoangle>false</activevideoangle>
                    <activeaudioangle>false</activeaudioangle>
                    <clip id="clip-1"/>
                  </angle>
                  <angle>
                    <activevideoangle>true</activevideoangle>
                    <activeaudioangle>true</activeaudioangle>
                    <clip id="clip-2"/>
                  </angle>
                  <angle>
                    <activevideoangle>false</activevideoangle>
                    <activeaudioangle>false</activeaudioangle>
                    <clip id="clip-3"/>
                  </angle>
                  <angle>
                    <activevideoangle>false</activevideoangle>
                    <activeaudioangle>false</activeaudioangle>
                    <clip id="clip-4"/>
                  </angle>
                  <angle>
                    <activevideoangle>false</activevideoangle>
                    <activeaudioangle>false</activeaudioangle>
                    <clip id="clip-5"/>
                  </angle>
                  <angle>
                    <activevideoangle>false</activevideoangle>
                    <activeaudioangle>false</activeaudioangle>
                    <clip id="clip-6"/>
                  </angle>
                  <angle>
                    <activevideoangle>false</activevideoangle>
                    <activeaudioangle>false</activeaudioangle>
                    <clip id="clip-7"/>
                  </angle>
                  <masterclipid>clip-master</masterclipid>
                </multiclip>
              </clipitem>
              <clipitem id="cs-508">
                <duration>67</duration>
                <rate>
                  <ntsc>false</ntsc>
                  <timebase>25</timebase>
                </rate>
                <in>59513</in>
                <out>59579</out>
                <start>59513</start>
                <end>59579</end>
                <file id="src-3"/>
                <sourcetrack>
                  <mediatype>video</mediatype>
                  <trackindex>1</trackindex>
                </sourcetrack>
                <multiclip id="mcs-508">
                  <name>MCS-508</name>
                  <masterclipid>clip-master</masterclipid>
                  <collapsed>false</collapsed>
                  <angle>
                    <activevideoangle>false</activevideoangle>
                    <activeaudioangle>false</activeaudioangle>
                    <clip id="clip-1"/>
                  </angle>
                  <angle>
                    <activevideoangle>false</activevideoangle>
                    <activeaudioangle>false</activeaudioangle>
                    <clip id="clip-2"/>
                  </angle>
                  <angle>
                    <activevideoangle>true</activevideoangle>
                    <activeaudioangle>true</activeaudioangle>
                    <clip id="clip-3"/>
                  </angle>
                  <angle>
                    <activevideoangle>false</activevideoangle>
                    <activeaudioangle>false</activeaudioangle>
                    <clip id="clip-4"/>
                  </angle>
                  <angle>
                    <activevideoangle>false</activevideoangle>
                    <activeaudioangle>false</activeaudioangle>
                    <clip id="clip-5"/>
                  </angle>
                  <angle>
                    <activevideoangle>false</activevideoangle>
                    <activeaudioangle>false</activeaudioangle>
                    <clip id="clip-6"/>
                  </angle>
                  <angle>
                    <activevideoangle>false</activevideoangle>
                    <activeaudioangle>false</activeaudioangle>
                    <clip id="clip-7"/>
                  </angle>
                  <masterclipid>clip-master</masterclipid>
                </multiclip>
              </clipitem>
              <clipitem id="cs-509">
                <duration>174</duration>
                <rate>
                  <ntsc>false</ntsc>
                  <timebase>25</timebase>
                </rate>
                <in>59579</in>
                <out>59752</out>
                <start>59579</start>
                <end>59752</end>
                <file id="src-6"/>
                <sourcetrack>
                  <mediatype>video</mediatype>
                  <trackindex>1</trackindex>
                </sourcetrack>
                <multiclip id="mcs-509">
                  <name>MCS-509</name>
                  <masterclipid>clip-master</masterclipid>
                  <collapsed>false</collapsed>
                  <angle>
                    <activevideoangle>false</activevideoangle>
                    <activeaudioangle>false</activeaudioangle>
                    <clip id="clip-1"/>
                  </angle>
                  <angle>
                    <activevideoangle>false</activevideoangle>
                    <activeaudioangle>false</activeaudioangle>
                    <clip id="clip-2"/>
                  </angle>
                  <angle>
                    <activevideoangle>false</activevideoangle>
                    <activeaudioangle>false</activeaudioangle>
                    <clip id="clip-3"/>
                  </angle>
                  <angle>
                    <activevideoangle>false</activevideoangle>
                    <activeaudioangle>false</activeaudioangle>
                    <clip id="clip-4"/>
                  </angle>
                  <angle>
                    <activevideoangle>false</activevideoangle>
                    <activeaudioangle>false</activeaudioangle>
                    <clip id="clip-5"/>
                  </angle>
                  <angle>
                    <activevideoangle>true</activevideoangle>
                    <activeaudioangle>true</activeaudioangle>
                    <clip id="clip-6"/>
                  </angle>
                  <angle>
                    <activevideoangle>false</activevideoangle>
                    <activeaudioangle>false</activeaudioangle>
                    <clip id="clip-7"/>
                  </angle>
                  <masterclipid>clip-master</masterclipid>
                </multiclip>
              </clipitem>
              <clipitem id="cs-510">
                <duration>100</duration>
                <rate>
                  <ntsc>false</ntsc>
                  <timebase>25</timebase>
                </rate>
                <in>59752</in>
                <out>59851</out>
                <start>59752</start>
                <end>59851</end>
                <file id="src-2"/>
                <sourcetrack>
                  <mediatype>video</mediatype>
                  <trackindex>1</trackindex>
                </sourcetrack>
                <multiclip id="mcs-510">
                  <name>MCS-510</name>
                  <masterclipid>clip-master</masterclipid>
                  <collapsed>false</collapsed>
                  <angle>
                    <activevideoangle>false</activevideoangle>
                    <activeaudioangle>false</activeaudioangle>
                    <clip id="clip-1"/>
                  </angle>
                  <angle>
                    <activevideoangle>true</activevideoangle>
                    <activeaudioangle>true</activeaudioangle>
                    <clip id="clip-2"/>
                  </angle>
                  <angle>
                    <activevideoangle>false</activevideoangle>
                    <activeaudioangle>false</activeaudioangle>
                    <clip id="clip-3"/>
                  </angle>
                  <angle>
                    <activevideoangle>false</activevideoangle>
                    <activeaudioangle>false</activeaudioangle>
                    <clip id="clip-4"/>
                  </angle>
                  <angle>
                    <activevideoangle>false</activevideoangle>
                    <activeaudioangle>false</activeaudioangle>
                    <clip id="clip-5"/>
                  </angle>
                  <angle>
                    <activevideoangle>false</activevideoangle>
                    <activeaudioangle>false</activeaudioangle>
                    <clip id="clip-6"/>
                  </angle>
                  <angle>
                    <activevideoangle>false</activevideoangle>
                    <activeaudioangle>false</activeaudioangle>
                    <clip id="clip-7"/>
                  </angle>
                  <masterclipid>clip-master</masterclipid>
                </multiclip>
              </clipitem>
              <clipitem id="cs-511">
                <duration>61</duration>
                <rate>
                  <ntsc>false</ntsc>
                  <timebase>25</timebase>
                </rate>
                <in>59851</in>
                <out>59911</out>
                <start>59851</start>
                <end>59911</end>
                <file id="src-6"/>
                <sourcetrack>
                  <mediatype>video</mediatype>
                  <trackindex>1</trackindex>
                </sourcetrack>
                <multiclip id="mcs-511">
                  <name>MCS-511</name>
                  <masterclipid>clip-master</masterclipid>
                  <collapsed>false</collapsed>
                  <angle>
                    <activevideoangle>false</activevideoangle>
                    <activeaudioangle>false</activeaudioangle>
                    <clip id="clip-1"/>
                  </angle>
                  <angle>
                    <activevideoangle>false</activevideoangle>
                    <activeaudioangle>false</activeaudioangle>
                    <clip id="clip-2"/>
                  </angle>
                  <angle>
                    <activevideoangle>false</activevideoangle>
                    <activeaudioangle>false</activeaudioangle>
                    <clip id="clip-3"/>
                  </angle>
                  <angle>
                    <activevideoangle>false</activevideoangle>
                    <activeaudioangle>false</activeaudioangle>
                    <clip id="clip-4"/>
                  </angle>
                  <angle>
                    <activevideoangle>false</activevideoangle>
                    <activeaudioangle>false</activeaudioangle>
                    <clip id="clip-5"/>
                  </angle>
                  <angle>
                    <activevideoangle>true</activevideoangle>
                    <activeaudioangle>true</activeaudioangle>
                    <clip id="clip-6"/>
                  </angle>
                  <angle>
                    <activevideoangle>false</activevideoangle>
                    <activeaudioangle>false</activeaudioangle>
                    <clip id="clip-7"/>
                  </angle>
                  <masterclipid>clip-master</masterclipid>
                </multiclip>
              </clipitem>
              <clipitem id="cs-512">
                <duration>119</duration>
                <rate>
                  <ntsc>false</ntsc>
                  <timebase>25</timebase>
                </rate>
                <in>59911</in>
                <out>60029</out>
                <start>59911</start>
                <end>60029</end>
                <file id="src-4"/>
                <sourcetrack>
                  <mediatype>video</mediatype>
                  <trackindex>1</trackindex>
                </sourcetrack>
                <multiclip id="mcs-512">
                  <name>MCS-512</name>
                  <masterclipid>clip-master</masterclipid>
                  <collapsed>false</collapsed>
                  <angle>
                    <activevideoangle>false</activevideoangle>
                    <activeaudioangle>false</activeaudioangle>
                    <clip id="clip-1"/>
                  </angle>
                  <angle>
                    <activevideoangle>false</activevideoangle>
                    <activeaudioangle>false</activeaudioangle>
                    <clip id="clip-2"/>
                  </angle>
                  <angle>
                    <activevideoangle>false</activevideoangle>
                    <activeaudioangle>false</activeaudioangle>
                    <clip id="clip-3"/>
                  </angle>
                  <angle>
                    <activevideoangle>true</activevideoangle>
                    <activeaudioangle>true</activeaudioangle>
                    <clip id="clip-4"/>
                  </angle>
                  <angle>
                    <activevideoangle>false</activevideoangle>
                    <activeaudioangle>false</activeaudioangle>
                    <clip id="clip-5"/>
                  </angle>
                  <angle>
                    <activevideoangle>false</activevideoangle>
                    <activeaudioangle>false</activeaudioangle>
                    <clip id="clip-6"/>
                  </angle>
                  <angle>
                    <activevideoangle>false</activevideoangle>
                    <activeaudioangle>false</activeaudioangle>
                    <clip id="clip-7"/>
                  </angle>
                  <masterclipid>clip-master</masterclipid>
                </multiclip>
              </clipitem>
              <clipitem id="cs-513">
                <duration>101</duration>
                <rate>
                  <ntsc>false</ntsc>
                  <timebase>25</timebase>
                </rate>
                <in>60029</in>
                <out>60129</out>
                <start>60029</start>
                <end>60129</end>
                <file id="src-3"/>
                <sourcetrack>
                  <mediatype>video</mediatype>
                  <trackindex>1</trackindex>
                </sourcetrack>
                <multiclip id="mcs-513">
                  <name>MCS-513</name>
                  <masterclipid>clip-master</masterclipid>
                  <collapsed>false</collapsed>
                  <angle>
                    <activevideoangle>false</activevideoangle>
                    <activeaudioangle>false</activeaudioangle>
                    <clip id="clip-1"/>
                  </angle>
                  <angle>
                    <activevideoangle>false</activevideoangle>
                    <activeaudioangle>false</activeaudioangle>
                    <clip id="clip-2"/>
                  </angle>
                  <angle>
                    <activevideoangle>true</activevideoangle>
                    <activeaudioangle>true</activeaudioangle>
                    <clip id="clip-3"/>
                  </angle>
                  <angle>
                    <activevideoangle>false</activevideoangle>
                    <activeaudioangle>false</activeaudioangle>
                    <clip id="clip-4"/>
                  </angle>
                  <angle>
                    <activevideoangle>false</activevideoangle>
                    <activeaudioangle>false</activeaudioangle>
                    <clip id="clip-5"/>
                  </angle>
                  <angle>
                    <activevideoangle>false</activevideoangle>
                    <activeaudioangle>false</activeaudioangle>
                    <clip id="clip-6"/>
                  </angle>
                  <angle>
                    <activevideoangle>false</activevideoangle>
                    <activeaudioangle>false</activeaudioangle>
                    <clip id="clip-7"/>
                  </angle>
                  <masterclipid>clip-master</masterclipid>
                </multiclip>
              </clipitem>
              <clipitem id="cs-514">
                <duration>48</duration>
                <rate>
                  <ntsc>false</ntsc>
                  <timebase>25</timebase>
                </rate>
                <in>60129</in>
                <out>60176</out>
                <start>60129</start>
                <end>60176</end>
                <file id="src-4"/>
                <sourcetrack>
                  <mediatype>video</mediatype>
                  <trackindex>1</trackindex>
                </sourcetrack>
                <multiclip id="mcs-514">
                  <name>MCS-514</name>
                  <masterclipid>clip-master</masterclipid>
                  <collapsed>false</collapsed>
                  <angle>
                    <activevideoangle>false</activevideoangle>
                    <activeaudioangle>false</activeaudioangle>
                    <clip id="clip-1"/>
                  </angle>
                  <angle>
                    <activevideoangle>false</activevideoangle>
                    <activeaudioangle>false</activeaudioangle>
                    <clip id="clip-2"/>
                  </angle>
                  <angle>
                    <activevideoangle>false</activevideoangle>
                    <activeaudioangle>false</activeaudioangle>
                    <clip id="clip-3"/>
                  </angle>
                  <angle>
                    <activevideoangle>true</activevideoangle>
                    <activeaudioangle>true</activeaudioangle>
                    <clip id="clip-4"/>
                  </angle>
                  <angle>
                    <activevideoangle>false</activevideoangle>
                    <activeaudioangle>false</activeaudioangle>
                    <clip id="clip-5"/>
                  </angle>
                  <angle>
                    <activevideoangle>false</activevideoangle>
                    <activeaudioangle>false</activeaudioangle>
                    <clip id="clip-6"/>
                  </angle>
                  <angle>
                    <activevideoangle>false</activevideoangle>
                    <activeaudioangle>false</activeaudioangle>
                    <clip id="clip-7"/>
                  </angle>
                  <masterclipid>clip-master</masterclipid>
                </multiclip>
              </clipitem>
              <clipitem id="cs-515">
                <duration>56</duration>
                <rate>
                  <ntsc>false</ntsc>
                  <timebase>25</timebase>
                </rate>
                <in>60176</in>
                <out>60231</out>
                <start>60176</start>
                <end>60231</end>
                <file id="src-6"/>
                <sourcetrack>
                  <mediatype>video</mediatype>
                  <trackindex>1</trackindex>
                </sourcetrack>
                <multiclip id="mcs-515">
                  <name>MCS-515</name>
                  <masterclipid>clip-master</masterclipid>
                  <collapsed>false</collapsed>
                  <angle>
                    <activevideoangle>false</activevideoangle>
                    <activeaudioangle>false</activeaudioangle>
                    <clip id="clip-1"/>
                  </angle>
                  <angle>
                    <activevideoangle>false</activevideoangle>
                    <activeaudioangle>false</activeaudioangle>
                    <clip id="clip-2"/>
                  </angle>
                  <angle>
                    <activevideoangle>false</activevideoangle>
                    <activeaudioangle>false</activeaudioangle>
                    <clip id="clip-3"/>
                  </angle>
                  <angle>
                    <activevideoangle>false</activevideoangle>
                    <activeaudioangle>false</activeaudioangle>
                    <clip id="clip-4"/>
                  </angle>
                  <angle>
                    <activevideoangle>false</activevideoangle>
                    <activeaudioangle>false</activeaudioangle>
                    <clip id="clip-5"/>
                  </angle>
                  <angle>
                    <activevideoangle>true</activevideoangle>
                    <activeaudioangle>true</activeaudioangle>
                    <clip id="clip-6"/>
                  </angle>
                  <angle>
                    <activevideoangle>false</activevideoangle>
                    <activeaudioangle>false</activeaudioangle>
                    <clip id="clip-7"/>
                  </angle>
                  <masterclipid>clip-master</masterclipid>
                </multiclip>
              </clipitem>
              <clipitem id="cs-516">
                <duration>74</duration>
                <rate>
                  <ntsc>false</ntsc>
                  <timebase>25</timebase>
                </rate>
                <in>60231</in>
                <out>60304</out>
                <start>60231</start>
                <end>60304</end>
                <file id="src-3"/>
                <sourcetrack>
                  <mediatype>video</mediatype>
                  <trackindex>1</trackindex>
                </sourcetrack>
                <multiclip id="mcs-516">
                  <name>MCS-516</name>
                  <masterclipid>clip-master</masterclipid>
                  <collapsed>false</collapsed>
                  <angle>
                    <activevideoangle>false</activevideoangle>
                    <activeaudioangle>false</activeaudioangle>
                    <clip id="clip-1"/>
                  </angle>
                  <angle>
                    <activevideoangle>false</activevideoangle>
                    <activeaudioangle>false</activeaudioangle>
                    <clip id="clip-2"/>
                  </angle>
                  <angle>
                    <activevideoangle>true</activevideoangle>
                    <activeaudioangle>true</activeaudioangle>
                    <clip id="clip-3"/>
                  </angle>
                  <angle>
                    <activevideoangle>false</activevideoangle>
                    <activeaudioangle>false</activeaudioangle>
                    <clip id="clip-4"/>
                  </angle>
                  <angle>
                    <activevideoangle>false</activevideoangle>
                    <activeaudioangle>false</activeaudioangle>
                    <clip id="clip-5"/>
                  </angle>
                  <angle>
                    <activevideoangle>false</activevideoangle>
                    <activeaudioangle>false</activeaudioangle>
                    <clip id="clip-6"/>
                  </angle>
                  <angle>
                    <activevideoangle>false</activevideoangle>
                    <activeaudioangle>false</activeaudioangle>
                    <clip id="clip-7"/>
                  </angle>
                  <masterclipid>clip-master</masterclipid>
                </multiclip>
              </clipitem>
              <clipitem id="cs-517">
                <duration>88</duration>
                <rate>
                  <ntsc>false</ntsc>
                  <timebase>25</timebase>
                </rate>
                <in>60304</in>
                <out>60391</out>
                <start>60304</start>
                <end>60391</end>
                <file id="src-2"/>
                <sourcetrack>
                  <mediatype>video</mediatype>
                  <trackindex>1</trackindex>
                </sourcetrack>
                <multiclip id="mcs-517">
                  <name>MCS-517</name>
                  <masterclipid>clip-master</masterclipid>
                  <collapsed>false</collapsed>
                  <angle>
                    <activevideoangle>false</activevideoangle>
                    <activeaudioangle>false</activeaudioangle>
                    <clip id="clip-1"/>
                  </angle>
                  <angle>
                    <activevideoangle>true</activevideoangle>
                    <activeaudioangle>true</activeaudioangle>
                    <clip id="clip-2"/>
                  </angle>
                  <angle>
                    <activevideoangle>false</activevideoangle>
                    <activeaudioangle>false</activeaudioangle>
                    <clip id="clip-3"/>
                  </angle>
                  <angle>
                    <activevideoangle>false</activevideoangle>
                    <activeaudioangle>false</activeaudioangle>
                    <clip id="clip-4"/>
                  </angle>
                  <angle>
                    <activevideoangle>false</activevideoangle>
                    <activeaudioangle>false</activeaudioangle>
                    <clip id="clip-5"/>
                  </angle>
                  <angle>
                    <activevideoangle>false</activevideoangle>
                    <activeaudioangle>false</activeaudioangle>
                    <clip id="clip-6"/>
                  </angle>
                  <angle>
                    <activevideoangle>false</activevideoangle>
                    <activeaudioangle>false</activeaudioangle>
                    <clip id="clip-7"/>
                  </angle>
                  <masterclipid>clip-master</masterclipid>
                </multiclip>
              </clipitem>
              <clipitem id="cs-518">
                <duration>139</duration>
                <rate>
                  <ntsc>false</ntsc>
                  <timebase>25</timebase>
                </rate>
                <in>60391</in>
                <out>60529</out>
                <start>60391</start>
                <end>60529</end>
                <file id="src-4"/>
                <sourcetrack>
                  <mediatype>video</mediatype>
                  <trackindex>1</trackindex>
                </sourcetrack>
                <multiclip id="mcs-518">
                  <name>MCS-518</name>
                  <masterclipid>clip-master</masterclipid>
                  <collapsed>false</collapsed>
                  <angle>
                    <activevideoangle>false</activevideoangle>
                    <activeaudioangle>false</activeaudioangle>
                    <clip id="clip-1"/>
                  </angle>
                  <angle>
                    <activevideoangle>false</activevideoangle>
                    <activeaudioangle>false</activeaudioangle>
                    <clip id="clip-2"/>
                  </angle>
                  <angle>
                    <activevideoangle>false</activevideoangle>
                    <activeaudioangle>false</activeaudioangle>
                    <clip id="clip-3"/>
                  </angle>
                  <angle>
                    <activevideoangle>true</activevideoangle>
                    <activeaudioangle>true</activeaudioangle>
                    <clip id="clip-4"/>
                  </angle>
                  <angle>
                    <activevideoangle>false</activevideoangle>
                    <activeaudioangle>false</activeaudioangle>
                    <clip id="clip-5"/>
                  </angle>
                  <angle>
                    <activevideoangle>false</activevideoangle>
                    <activeaudioangle>false</activeaudioangle>
                    <clip id="clip-6"/>
                  </angle>
                  <angle>
                    <activevideoangle>false</activevideoangle>
                    <activeaudioangle>false</activeaudioangle>
                    <clip id="clip-7"/>
                  </angle>
                  <masterclipid>clip-master</masterclipid>
                </multiclip>
              </clipitem>
              <clipitem id="cs-519">
                <duration>132</duration>
                <rate>
                  <ntsc>false</ntsc>
                  <timebase>25</timebase>
                </rate>
                <in>60529</in>
                <out>60660</out>
                <start>60529</start>
                <end>60660</end>
                <file id="src-1"/>
                <sourcetrack>
                  <mediatype>video</mediatype>
                  <trackindex>1</trackindex>
                </sourcetrack>
                <multiclip id="mcs-519">
                  <name>MCS-519</name>
                  <masterclipid>clip-master</masterclipid>
                  <collapsed>false</collapsed>
                  <angle>
                    <activevideoangle>true</activevideoangle>
                    <activeaudioangle>true</activeaudioangle>
                    <clip id="clip-1"/>
                  </angle>
                  <angle>
                    <activevideoangle>false</activevideoangle>
                    <activeaudioangle>false</activeaudioangle>
                    <clip id="clip-2"/>
                  </angle>
                  <angle>
                    <activevideoangle>false</activevideoangle>
                    <activeaudioangle>false</activeaudioangle>
                    <clip id="clip-3"/>
                  </angle>
                  <angle>
                    <activevideoangle>false</activevideoangle>
                    <activeaudioangle>false</activeaudioangle>
                    <clip id="clip-4"/>
                  </angle>
                  <angle>
                    <activevideoangle>false</activevideoangle>
                    <activeaudioangle>false</activeaudioangle>
                    <clip id="clip-5"/>
                  </angle>
                  <angle>
                    <activevideoangle>false</activevideoangle>
                    <activeaudioangle>false</activeaudioangle>
                    <clip id="clip-6"/>
                  </angle>
                  <angle>
                    <activevideoangle>false</activevideoangle>
                    <activeaudioangle>false</activeaudioangle>
                    <clip id="clip-7"/>
                  </angle>
                  <masterclipid>clip-master</masterclipid>
                </multiclip>
              </clipitem>
              <clipitem id="cs-520">
                <duration>141</duration>
                <rate>
                  <ntsc>false</ntsc>
                  <timebase>25</timebase>
                </rate>
                <in>60660</in>
                <out>60800</out>
                <start>60660</start>
                <end>60800</end>
                <file id="src-4"/>
                <sourcetrack>
                  <mediatype>video</mediatype>
                  <trackindex>1</trackindex>
                </sourcetrack>
                <multiclip id="mcs-520">
                  <name>MCS-520</name>
                  <masterclipid>clip-master</masterclipid>
                  <collapsed>false</collapsed>
                  <angle>
                    <activevideoangle>false</activevideoangle>
                    <activeaudioangle>false</activeaudioangle>
                    <clip id="clip-1"/>
                  </angle>
                  <angle>
                    <activevideoangle>false</activevideoangle>
                    <activeaudioangle>false</activeaudioangle>
                    <clip id="clip-2"/>
                  </angle>
                  <angle>
                    <activevideoangle>false</activevideoangle>
                    <activeaudioangle>false</activeaudioangle>
                    <clip id="clip-3"/>
                  </angle>
                  <angle>
                    <activevideoangle>true</activevideoangle>
                    <activeaudioangle>true</activeaudioangle>
                    <clip id="clip-4"/>
                  </angle>
                  <angle>
                    <activevideoangle>false</activevideoangle>
                    <activeaudioangle>false</activeaudioangle>
                    <clip id="clip-5"/>
                  </angle>
                  <angle>
                    <activevideoangle>false</activevideoangle>
                    <activeaudioangle>false</activeaudioangle>
                    <clip id="clip-6"/>
                  </angle>
                  <angle>
                    <activevideoangle>false</activevideoangle>
                    <activeaudioangle>false</activeaudioangle>
                    <clip id="clip-7"/>
                  </angle>
                  <masterclipid>clip-master</masterclipid>
                </multiclip>
              </clipitem>
              <clipitem id="cs-521">
                <duration>149</duration>
                <rate>
                  <ntsc>false</ntsc>
                  <timebase>25</timebase>
                </rate>
                <in>60800</in>
                <out>60948</out>
                <start>60800</start>
                <end>60948</end>
                <file id="src-2"/>
                <sourcetrack>
                  <mediatype>video</mediatype>
                  <trackindex>1</trackindex>
                </sourcetrack>
                <multiclip id="mcs-521">
                  <name>MCS-521</name>
                  <masterclipid>clip-master</masterclipid>
                  <collapsed>false</collapsed>
                  <angle>
                    <activevideoangle>false</activevideoangle>
                    <activeaudioangle>false</activeaudioangle>
                    <clip id="clip-1"/>
                  </angle>
                  <angle>
                    <activevideoangle>true</activevideoangle>
                    <activeaudioangle>true</activeaudioangle>
                    <clip id="clip-2"/>
                  </angle>
                  <angle>
                    <activevideoangle>false</activevideoangle>
                    <activeaudioangle>false</activeaudioangle>
                    <clip id="clip-3"/>
                  </angle>
                  <angle>
                    <activevideoangle>false</activevideoangle>
                    <activeaudioangle>false</activeaudioangle>
                    <clip id="clip-4"/>
                  </angle>
                  <angle>
                    <activevideoangle>false</activevideoangle>
                    <activeaudioangle>false</activeaudioangle>
                    <clip id="clip-5"/>
                  </angle>
                  <angle>
                    <activevideoangle>false</activevideoangle>
                    <activeaudioangle>false</activeaudioangle>
                    <clip id="clip-6"/>
                  </angle>
                  <angle>
                    <activevideoangle>false</activevideoangle>
                    <activeaudioangle>false</activeaudioangle>
                    <clip id="clip-7"/>
                  </angle>
                  <masterclipid>clip-master</masterclipid>
                </multiclip>
              </clipitem>
              <clipitem id="cs-522">
                <duration>48</duration>
                <rate>
                  <ntsc>false</ntsc>
                  <timebase>25</timebase>
                </rate>
                <in>60948</in>
                <out>60995</out>
                <start>60948</start>
                <end>60995</end>
                <file id="src-3"/>
                <sourcetrack>
                  <mediatype>video</mediatype>
                  <trackindex>1</trackindex>
                </sourcetrack>
                <multiclip id="mcs-522">
                  <name>MCS-522</name>
                  <masterclipid>clip-master</masterclipid>
                  <collapsed>false</collapsed>
                  <angle>
                    <activevideoangle>false</activevideoangle>
                    <activeaudioangle>false</activeaudioangle>
                    <clip id="clip-1"/>
                  </angle>
                  <angle>
                    <activevideoangle>false</activevideoangle>
                    <activeaudioangle>false</activeaudioangle>
                    <clip id="clip-2"/>
                  </angle>
                  <angle>
                    <activevideoangle>true</activevideoangle>
                    <activeaudioangle>true</activeaudioangle>
                    <clip id="clip-3"/>
                  </angle>
                  <angle>
                    <activevideoangle>false</activevideoangle>
                    <activeaudioangle>false</activeaudioangle>
                    <clip id="clip-4"/>
                  </angle>
                  <angle>
                    <activevideoangle>false</activevideoangle>
                    <activeaudioangle>false</activeaudioangle>
                    <clip id="clip-5"/>
                  </angle>
                  <angle>
                    <activevideoangle>false</activevideoangle>
                    <activeaudioangle>false</activeaudioangle>
                    <clip id="clip-6"/>
                  </angle>
                  <angle>
                    <activevideoangle>false</activevideoangle>
                    <activeaudioangle>false</activeaudioangle>
                    <clip id="clip-7"/>
                  </angle>
                  <masterclipid>clip-master</masterclipid>
                </multiclip>
              </clipitem>
              <clipitem id="cs-523">
                <duration>63</duration>
                <rate>
                  <ntsc>false</ntsc>
                  <timebase>25</timebase>
                </rate>
                <in>60995</in>
                <out>61057</out>
                <start>60995</start>
                <end>61057</end>
                <file id="src-6"/>
                <sourcetrack>
                  <mediatype>video</mediatype>
                  <trackindex>1</trackindex>
                </sourcetrack>
                <multiclip id="mcs-523">
                  <name>MCS-523</name>
                  <masterclipid>clip-master</masterclipid>
                  <collapsed>false</collapsed>
                  <angle>
                    <activevideoangle>false</activevideoangle>
                    <activeaudioangle>false</activeaudioangle>
                    <clip id="clip-1"/>
                  </angle>
                  <angle>
                    <activevideoangle>false</activevideoangle>
                    <activeaudioangle>false</activeaudioangle>
                    <clip id="clip-2"/>
                  </angle>
                  <angle>
                    <activevideoangle>false</activevideoangle>
                    <activeaudioangle>false</activeaudioangle>
                    <clip id="clip-3"/>
                  </angle>
                  <angle>
                    <activevideoangle>false</activevideoangle>
                    <activeaudioangle>false</activeaudioangle>
                    <clip id="clip-4"/>
                  </angle>
                  <angle>
                    <activevideoangle>false</activevideoangle>
                    <activeaudioangle>false</activeaudioangle>
                    <clip id="clip-5"/>
                  </angle>
                  <angle>
                    <activevideoangle>true</activevideoangle>
                    <activeaudioangle>true</activeaudioangle>
                    <clip id="clip-6"/>
                  </angle>
                  <angle>
                    <activevideoangle>false</activevideoangle>
                    <activeaudioangle>false</activeaudioangle>
                    <clip id="clip-7"/>
                  </angle>
                  <masterclipid>clip-master</masterclipid>
                </multiclip>
              </clipitem>
              <clipitem id="cs-524">
                <duration>161</duration>
                <rate>
                  <ntsc>false</ntsc>
                  <timebase>25</timebase>
                </rate>
                <in>61057</in>
                <out>61217</out>
                <start>61057</start>
                <end>61217</end>
                <file id="src-4"/>
                <sourcetrack>
                  <mediatype>video</mediatype>
                  <trackindex>1</trackindex>
                </sourcetrack>
                <multiclip id="mcs-524">
                  <name>MCS-524</name>
                  <masterclipid>clip-master</masterclipid>
                  <collapsed>false</collapsed>
                  <angle>
                    <activevideoangle>false</activevideoangle>
                    <activeaudioangle>false</activeaudioangle>
                    <clip id="clip-1"/>
                  </angle>
                  <angle>
                    <activevideoangle>false</activevideoangle>
                    <activeaudioangle>false</activeaudioangle>
                    <clip id="clip-2"/>
                  </angle>
                  <angle>
                    <activevideoangle>false</activevideoangle>
                    <activeaudioangle>false</activeaudioangle>
                    <clip id="clip-3"/>
                  </angle>
                  <angle>
                    <activevideoangle>true</activevideoangle>
                    <activeaudioangle>true</activeaudioangle>
                    <clip id="clip-4"/>
                  </angle>
                  <angle>
                    <activevideoangle>false</activevideoangle>
                    <activeaudioangle>false</activeaudioangle>
                    <clip id="clip-5"/>
                  </angle>
                  <angle>
                    <activevideoangle>false</activevideoangle>
                    <activeaudioangle>false</activeaudioangle>
                    <clip id="clip-6"/>
                  </angle>
                  <angle>
                    <activevideoangle>false</activevideoangle>
                    <activeaudioangle>false</activeaudioangle>
                    <clip id="clip-7"/>
                  </angle>
                  <masterclipid>clip-master</masterclipid>
                </multiclip>
              </clipitem>
              <clipitem id="cs-525">
                <duration>71</duration>
                <rate>
                  <ntsc>false</ntsc>
                  <timebase>25</timebase>
                </rate>
                <in>61217</in>
                <out>61287</out>
                <start>61217</start>
                <end>61287</end>
                <file id="src-2"/>
                <sourcetrack>
                  <mediatype>video</mediatype>
                  <trackindex>1</trackindex>
                </sourcetrack>
                <multiclip id="mcs-525">
                  <name>MCS-525</name>
                  <masterclipid>clip-master</masterclipid>
                  <collapsed>false</collapsed>
                  <angle>
                    <activevideoangle>false</activevideoangle>
                    <activeaudioangle>false</activeaudioangle>
                    <clip id="clip-1"/>
                  </angle>
                  <angle>
                    <activevideoangle>true</activevideoangle>
                    <activeaudioangle>true</activeaudioangle>
                    <clip id="clip-2"/>
                  </angle>
                  <angle>
                    <activevideoangle>false</activevideoangle>
                    <activeaudioangle>false</activeaudioangle>
                    <clip id="clip-3"/>
                  </angle>
                  <angle>
                    <activevideoangle>false</activevideoangle>
                    <activeaudioangle>false</activeaudioangle>
                    <clip id="clip-4"/>
                  </angle>
                  <angle>
                    <activevideoangle>false</activevideoangle>
                    <activeaudioangle>false</activeaudioangle>
                    <clip id="clip-5"/>
                  </angle>
                  <angle>
                    <activevideoangle>false</activevideoangle>
                    <activeaudioangle>false</activeaudioangle>
                    <clip id="clip-6"/>
                  </angle>
                  <angle>
                    <activevideoangle>false</activevideoangle>
                    <activeaudioangle>false</activeaudioangle>
                    <clip id="clip-7"/>
                  </angle>
                  <masterclipid>clip-master</masterclipid>
                </multiclip>
              </clipitem>
              <clipitem id="cs-526">
                <duration>182</duration>
                <rate>
                  <ntsc>false</ntsc>
                  <timebase>25</timebase>
                </rate>
                <in>61287</in>
                <out>61468</out>
                <start>61287</start>
                <end>61468</end>
                <file id="src-4"/>
                <sourcetrack>
                  <mediatype>video</mediatype>
                  <trackindex>1</trackindex>
                </sourcetrack>
                <multiclip id="mcs-526">
                  <name>MCS-526</name>
                  <masterclipid>clip-master</masterclipid>
                  <collapsed>false</collapsed>
                  <angle>
                    <activevideoangle>false</activevideoangle>
                    <activeaudioangle>false</activeaudioangle>
                    <clip id="clip-1"/>
                  </angle>
                  <angle>
                    <activevideoangle>false</activevideoangle>
                    <activeaudioangle>false</activeaudioangle>
                    <clip id="clip-2"/>
                  </angle>
                  <angle>
                    <activevideoangle>false</activevideoangle>
                    <activeaudioangle>false</activeaudioangle>
                    <clip id="clip-3"/>
                  </angle>
                  <angle>
                    <activevideoangle>true</activevideoangle>
                    <activeaudioangle>true</activeaudioangle>
                    <clip id="clip-4"/>
                  </angle>
                  <angle>
                    <activevideoangle>false</activevideoangle>
                    <activeaudioangle>false</activeaudioangle>
                    <clip id="clip-5"/>
                  </angle>
                  <angle>
                    <activevideoangle>false</activevideoangle>
                    <activeaudioangle>false</activeaudioangle>
                    <clip id="clip-6"/>
                  </angle>
                  <angle>
                    <activevideoangle>false</activevideoangle>
                    <activeaudioangle>false</activeaudioangle>
                    <clip id="clip-7"/>
                  </angle>
                  <masterclipid>clip-master</masterclipid>
                </multiclip>
              </clipitem>
              <clipitem id="cs-527">
                <duration>58</duration>
                <rate>
                  <ntsc>false</ntsc>
                  <timebase>25</timebase>
                </rate>
                <in>61468</in>
                <out>61525</out>
                <start>61468</start>
                <end>61525</end>
                <file id="src-6"/>
                <sourcetrack>
                  <mediatype>video</mediatype>
                  <trackindex>1</trackindex>
                </sourcetrack>
                <multiclip id="mcs-527">
                  <name>MCS-527</name>
                  <masterclipid>clip-master</masterclipid>
                  <collapsed>false</collapsed>
                  <angle>
                    <activevideoangle>false</activevideoangle>
                    <activeaudioangle>false</activeaudioangle>
                    <clip id="clip-1"/>
                  </angle>
                  <angle>
                    <activevideoangle>false</activevideoangle>
                    <activeaudioangle>false</activeaudioangle>
                    <clip id="clip-2"/>
                  </angle>
                  <angle>
                    <activevideoangle>false</activevideoangle>
                    <activeaudioangle>false</activeaudioangle>
                    <clip id="clip-3"/>
                  </angle>
                  <angle>
                    <activevideoangle>false</activevideoangle>
                    <activeaudioangle>false</activeaudioangle>
                    <clip id="clip-4"/>
                  </angle>
                  <angle>
                    <activevideoangle>false</activevideoangle>
                    <activeaudioangle>false</activeaudioangle>
                    <clip id="clip-5"/>
                  </angle>
                  <angle>
                    <activevideoangle>true</activevideoangle>
                    <activeaudioangle>true</activeaudioangle>
                    <clip id="clip-6"/>
                  </angle>
                  <angle>
                    <activevideoangle>false</activevideoangle>
                    <activeaudioangle>false</activeaudioangle>
                    <clip id="clip-7"/>
                  </angle>
                  <masterclipid>clip-master</masterclipid>
                </multiclip>
              </clipitem>
              <clipitem id="cs-528">
                <duration>95</duration>
                <rate>
                  <ntsc>false</ntsc>
                  <timebase>25</timebase>
                </rate>
                <in>61525</in>
                <out>61619</out>
                <start>61525</start>
                <end>61619</end>
                <file id="src-4"/>
                <sourcetrack>
                  <mediatype>video</mediatype>
                  <trackindex>1</trackindex>
                </sourcetrack>
                <multiclip id="mcs-528">
                  <name>MCS-528</name>
                  <masterclipid>clip-master</masterclipid>
                  <collapsed>false</collapsed>
                  <angle>
                    <activevideoangle>false</activevideoangle>
                    <activeaudioangle>false</activeaudioangle>
                    <clip id="clip-1"/>
                  </angle>
                  <angle>
                    <activevideoangle>false</activevideoangle>
                    <activeaudioangle>false</activeaudioangle>
                    <clip id="clip-2"/>
                  </angle>
                  <angle>
                    <activevideoangle>false</activevideoangle>
                    <activeaudioangle>false</activeaudioangle>
                    <clip id="clip-3"/>
                  </angle>
                  <angle>
                    <activevideoangle>true</activevideoangle>
                    <activeaudioangle>true</activeaudioangle>
                    <clip id="clip-4"/>
                  </angle>
                  <angle>
                    <activevideoangle>false</activevideoangle>
                    <activeaudioangle>false</activeaudioangle>
                    <clip id="clip-5"/>
                  </angle>
                  <angle>
                    <activevideoangle>false</activevideoangle>
                    <activeaudioangle>false</activeaudioangle>
                    <clip id="clip-6"/>
                  </angle>
                  <angle>
                    <activevideoangle>false</activevideoangle>
                    <activeaudioangle>false</activeaudioangle>
                    <clip id="clip-7"/>
                  </angle>
                  <masterclipid>clip-master</masterclipid>
                </multiclip>
              </clipitem>
              <clipitem id="cs-529">
                <duration>87</duration>
                <rate>
                  <ntsc>false</ntsc>
                  <timebase>25</timebase>
                </rate>
                <in>61619</in>
                <out>61705</out>
                <start>61619</start>
                <end>61705</end>
                <file id="src-2"/>
                <sourcetrack>
                  <mediatype>video</mediatype>
                  <trackindex>1</trackindex>
                </sourcetrack>
                <multiclip id="mcs-529">
                  <name>MCS-529</name>
                  <masterclipid>clip-master</masterclipid>
                  <collapsed>false</collapsed>
                  <angle>
                    <activevideoangle>false</activevideoangle>
                    <activeaudioangle>false</activeaudioangle>
                    <clip id="clip-1"/>
                  </angle>
                  <angle>
                    <activevideoangle>true</activevideoangle>
                    <activeaudioangle>true</activeaudioangle>
                    <clip id="clip-2"/>
                  </angle>
                  <angle>
                    <activevideoangle>false</activevideoangle>
                    <activeaudioangle>false</activeaudioangle>
                    <clip id="clip-3"/>
                  </angle>
                  <angle>
                    <activevideoangle>false</activevideoangle>
                    <activeaudioangle>false</activeaudioangle>
                    <clip id="clip-4"/>
                  </angle>
                  <angle>
                    <activevideoangle>false</activevideoangle>
                    <activeaudioangle>false</activeaudioangle>
                    <clip id="clip-5"/>
                  </angle>
                  <angle>
                    <activevideoangle>false</activevideoangle>
                    <activeaudioangle>false</activeaudioangle>
                    <clip id="clip-6"/>
                  </angle>
                  <angle>
                    <activevideoangle>false</activevideoangle>
                    <activeaudioangle>false</activeaudioangle>
                    <clip id="clip-7"/>
                  </angle>
                  <masterclipid>clip-master</masterclipid>
                </multiclip>
              </clipitem>
              <clipitem id="cs-530">
                <duration>83</duration>
                <rate>
                  <ntsc>false</ntsc>
                  <timebase>25</timebase>
                </rate>
                <in>61705</in>
                <out>61787</out>
                <start>61705</start>
                <end>61787</end>
                <file id="src-3"/>
                <sourcetrack>
                  <mediatype>video</mediatype>
                  <trackindex>1</trackindex>
                </sourcetrack>
                <multiclip id="mcs-530">
                  <name>MCS-530</name>
                  <masterclipid>clip-master</masterclipid>
                  <collapsed>false</collapsed>
                  <angle>
                    <activevideoangle>false</activevideoangle>
                    <activeaudioangle>false</activeaudioangle>
                    <clip id="clip-1"/>
                  </angle>
                  <angle>
                    <activevideoangle>false</activevideoangle>
                    <activeaudioangle>false</activeaudioangle>
                    <clip id="clip-2"/>
                  </angle>
                  <angle>
                    <activevideoangle>true</activevideoangle>
                    <activeaudioangle>true</activeaudioangle>
                    <clip id="clip-3"/>
                  </angle>
                  <angle>
                    <activevideoangle>false</activevideoangle>
                    <activeaudioangle>false</activeaudioangle>
                    <clip id="clip-4"/>
                  </angle>
                  <angle>
                    <activevideoangle>false</activevideoangle>
                    <activeaudioangle>false</activeaudioangle>
                    <clip id="clip-5"/>
                  </angle>
                  <angle>
                    <activevideoangle>false</activevideoangle>
                    <activeaudioangle>false</activeaudioangle>
                    <clip id="clip-6"/>
                  </angle>
                  <angle>
                    <activevideoangle>false</activevideoangle>
                    <activeaudioangle>false</activeaudioangle>
                    <clip id="clip-7"/>
                  </angle>
                  <masterclipid>clip-master</masterclipid>
                </multiclip>
              </clipitem>
              <clipitem id="cs-531">
                <duration>63</duration>
                <rate>
                  <ntsc>false</ntsc>
                  <timebase>25</timebase>
                </rate>
                <in>61787</in>
                <out>61849</out>
                <start>61787</start>
                <end>61849</end>
                <file id="src-2"/>
                <sourcetrack>
                  <mediatype>video</mediatype>
                  <trackindex>1</trackindex>
                </sourcetrack>
                <multiclip id="mcs-531">
                  <name>MCS-531</name>
                  <masterclipid>clip-master</masterclipid>
                  <collapsed>false</collapsed>
                  <angle>
                    <activevideoangle>false</activevideoangle>
                    <activeaudioangle>false</activeaudioangle>
                    <clip id="clip-1"/>
                  </angle>
                  <angle>
                    <activevideoangle>true</activevideoangle>
                    <activeaudioangle>true</activeaudioangle>
                    <clip id="clip-2"/>
                  </angle>
                  <angle>
                    <activevideoangle>false</activevideoangle>
                    <activeaudioangle>false</activeaudioangle>
                    <clip id="clip-3"/>
                  </angle>
                  <angle>
                    <activevideoangle>false</activevideoangle>
                    <activeaudioangle>false</activeaudioangle>
                    <clip id="clip-4"/>
                  </angle>
                  <angle>
                    <activevideoangle>false</activevideoangle>
                    <activeaudioangle>false</activeaudioangle>
                    <clip id="clip-5"/>
                  </angle>
                  <angle>
                    <activevideoangle>false</activevideoangle>
                    <activeaudioangle>false</activeaudioangle>
                    <clip id="clip-6"/>
                  </angle>
                  <angle>
                    <activevideoangle>false</activevideoangle>
                    <activeaudioangle>false</activeaudioangle>
                    <clip id="clip-7"/>
                  </angle>
                  <masterclipid>clip-master</masterclipid>
                </multiclip>
              </clipitem>
              <clipitem id="cs-532">
                <duration>59</duration>
                <rate>
                  <ntsc>false</ntsc>
                  <timebase>25</timebase>
                </rate>
                <in>61849</in>
                <out>61907</out>
                <start>61849</start>
                <end>61907</end>
                <file id="src-4"/>
                <sourcetrack>
                  <mediatype>video</mediatype>
                  <trackindex>1</trackindex>
                </sourcetrack>
                <multiclip id="mcs-532">
                  <name>MCS-532</name>
                  <masterclipid>clip-master</masterclipid>
                  <collapsed>false</collapsed>
                  <angle>
                    <activevideoangle>false</activevideoangle>
                    <activeaudioangle>false</activeaudioangle>
                    <clip id="clip-1"/>
                  </angle>
                  <angle>
                    <activevideoangle>false</activevideoangle>
                    <activeaudioangle>false</activeaudioangle>
                    <clip id="clip-2"/>
                  </angle>
                  <angle>
                    <activevideoangle>false</activevideoangle>
                    <activeaudioangle>false</activeaudioangle>
                    <clip id="clip-3"/>
                  </angle>
                  <angle>
                    <activevideoangle>true</activevideoangle>
                    <activeaudioangle>true</activeaudioangle>
                    <clip id="clip-4"/>
                  </angle>
                  <angle>
                    <activevideoangle>false</activevideoangle>
                    <activeaudioangle>false</activeaudioangle>
                    <clip id="clip-5"/>
                  </angle>
                  <angle>
                    <activevideoangle>false</activevideoangle>
                    <activeaudioangle>false</activeaudioangle>
                    <clip id="clip-6"/>
                  </angle>
                  <angle>
                    <activevideoangle>false</activevideoangle>
                    <activeaudioangle>false</activeaudioangle>
                    <clip id="clip-7"/>
                  </angle>
                  <masterclipid>clip-master</masterclipid>
                </multiclip>
              </clipitem>
              <clipitem id="cs-533">
                <duration>37</duration>
                <rate>
                  <ntsc>false</ntsc>
                  <timebase>25</timebase>
                </rate>
                <in>61907</in>
                <out>61943</out>
                <start>61907</start>
                <end>61943</end>
                <file id="src-6"/>
                <sourcetrack>
                  <mediatype>video</mediatype>
                  <trackindex>1</trackindex>
                </sourcetrack>
                <multiclip id="mcs-533">
                  <name>MCS-533</name>
                  <masterclipid>clip-master</masterclipid>
                  <collapsed>false</collapsed>
                  <angle>
                    <activevideoangle>false</activevideoangle>
                    <activeaudioangle>false</activeaudioangle>
                    <clip id="clip-1"/>
                  </angle>
                  <angle>
                    <activevideoangle>false</activevideoangle>
                    <activeaudioangle>false</activeaudioangle>
                    <clip id="clip-2"/>
                  </angle>
                  <angle>
                    <activevideoangle>false</activevideoangle>
                    <activeaudioangle>false</activeaudioangle>
                    <clip id="clip-3"/>
                  </angle>
                  <angle>
                    <activevideoangle>false</activevideoangle>
                    <activeaudioangle>false</activeaudioangle>
                    <clip id="clip-4"/>
                  </angle>
                  <angle>
                    <activevideoangle>false</activevideoangle>
                    <activeaudioangle>false</activeaudioangle>
                    <clip id="clip-5"/>
                  </angle>
                  <angle>
                    <activevideoangle>true</activevideoangle>
                    <activeaudioangle>true</activeaudioangle>
                    <clip id="clip-6"/>
                  </angle>
                  <angle>
                    <activevideoangle>false</activevideoangle>
                    <activeaudioangle>false</activeaudioangle>
                    <clip id="clip-7"/>
                  </angle>
                  <masterclipid>clip-master</masterclipid>
                </multiclip>
              </clipitem>
              <clipitem id="cs-534">
                <duration>77</duration>
                <rate>
                  <ntsc>false</ntsc>
                  <timebase>25</timebase>
                </rate>
                <in>61943</in>
                <out>62019</out>
                <start>61943</start>
                <end>62019</end>
                <file id="src-2"/>
                <sourcetrack>
                  <mediatype>video</mediatype>
                  <trackindex>1</trackindex>
                </sourcetrack>
                <multiclip id="mcs-534">
                  <name>MCS-534</name>
                  <masterclipid>clip-master</masterclipid>
                  <collapsed>false</collapsed>
                  <angle>
                    <activevideoangle>false</activevideoangle>
                    <activeaudioangle>false</activeaudioangle>
                    <clip id="clip-1"/>
                  </angle>
                  <angle>
                    <activevideoangle>true</activevideoangle>
                    <activeaudioangle>true</activeaudioangle>
                    <clip id="clip-2"/>
                  </angle>
                  <angle>
                    <activevideoangle>false</activevideoangle>
                    <activeaudioangle>false</activeaudioangle>
                    <clip id="clip-3"/>
                  </angle>
                  <angle>
                    <activevideoangle>false</activevideoangle>
                    <activeaudioangle>false</activeaudioangle>
                    <clip id="clip-4"/>
                  </angle>
                  <angle>
                    <activevideoangle>false</activevideoangle>
                    <activeaudioangle>false</activeaudioangle>
                    <clip id="clip-5"/>
                  </angle>
                  <angle>
                    <activevideoangle>false</activevideoangle>
                    <activeaudioangle>false</activeaudioangle>
                    <clip id="clip-6"/>
                  </angle>
                  <angle>
                    <activevideoangle>false</activevideoangle>
                    <activeaudioangle>false</activeaudioangle>
                    <clip id="clip-7"/>
                  </angle>
                  <masterclipid>clip-master</masterclipid>
                </multiclip>
              </clipitem>
              <clipitem id="cs-535">
                <duration>64</duration>
                <rate>
                  <ntsc>false</ntsc>
                  <timebase>25</timebase>
                </rate>
                <in>62019</in>
                <out>62082</out>
                <start>62019</start>
                <end>62082</end>
                <file id="src-1"/>
                <sourcetrack>
                  <mediatype>video</mediatype>
                  <trackindex>1</trackindex>
                </sourcetrack>
                <multiclip id="mcs-535">
                  <name>MCS-535</name>
                  <masterclipid>clip-master</masterclipid>
                  <collapsed>false</collapsed>
                  <angle>
                    <activevideoangle>true</activevideoangle>
                    <activeaudioangle>true</activeaudioangle>
                    <clip id="clip-1"/>
                  </angle>
                  <angle>
                    <activevideoangle>false</activevideoangle>
                    <activeaudioangle>false</activeaudioangle>
                    <clip id="clip-2"/>
                  </angle>
                  <angle>
                    <activevideoangle>false</activevideoangle>
                    <activeaudioangle>false</activeaudioangle>
                    <clip id="clip-3"/>
                  </angle>
                  <angle>
                    <activevideoangle>false</activevideoangle>
                    <activeaudioangle>false</activeaudioangle>
                    <clip id="clip-4"/>
                  </angle>
                  <angle>
                    <activevideoangle>false</activevideoangle>
                    <activeaudioangle>false</activeaudioangle>
                    <clip id="clip-5"/>
                  </angle>
                  <angle>
                    <activevideoangle>false</activevideoangle>
                    <activeaudioangle>false</activeaudioangle>
                    <clip id="clip-6"/>
                  </angle>
                  <angle>
                    <activevideoangle>false</activevideoangle>
                    <activeaudioangle>false</activeaudioangle>
                    <clip id="clip-7"/>
                  </angle>
                  <masterclipid>clip-master</masterclipid>
                </multiclip>
              </clipitem>
              <clipitem id="cs-536">
                <duration>157</duration>
                <rate>
                  <ntsc>false</ntsc>
                  <timebase>25</timebase>
                </rate>
                <in>62082</in>
                <out>62238</out>
                <start>62082</start>
                <end>62238</end>
                <file id="src-3"/>
                <sourcetrack>
                  <mediatype>video</mediatype>
                  <trackindex>1</trackindex>
                </sourcetrack>
                <multiclip id="mcs-536">
                  <name>MCS-536</name>
                  <masterclipid>clip-master</masterclipid>
                  <collapsed>false</collapsed>
                  <angle>
                    <activevideoangle>false</activevideoangle>
                    <activeaudioangle>false</activeaudioangle>
                    <clip id="clip-1"/>
                  </angle>
                  <angle>
                    <activevideoangle>false</activevideoangle>
                    <activeaudioangle>false</activeaudioangle>
                    <clip id="clip-2"/>
                  </angle>
                  <angle>
                    <activevideoangle>true</activevideoangle>
                    <activeaudioangle>true</activeaudioangle>
                    <clip id="clip-3"/>
                  </angle>
                  <angle>
                    <activevideoangle>false</activevideoangle>
                    <activeaudioangle>false</activeaudioangle>
                    <clip id="clip-4"/>
                  </angle>
                  <angle>
                    <activevideoangle>false</activevideoangle>
                    <activeaudioangle>false</activeaudioangle>
                    <clip id="clip-5"/>
                  </angle>
                  <angle>
                    <activevideoangle>false</activevideoangle>
                    <activeaudioangle>false</activeaudioangle>
                    <clip id="clip-6"/>
                  </angle>
                  <angle>
                    <activevideoangle>false</activevideoangle>
                    <activeaudioangle>false</activeaudioangle>
                    <clip id="clip-7"/>
                  </angle>
                  <masterclipid>clip-master</masterclipid>
                </multiclip>
              </clipitem>
              <clipitem id="cs-537">
                <duration>122</duration>
                <rate>
                  <ntsc>false</ntsc>
                  <timebase>25</timebase>
                </rate>
                <in>62238</in>
                <out>62359</out>
                <start>62238</start>
                <end>62359</end>
                <file id="src-4"/>
                <sourcetrack>
                  <mediatype>video</mediatype>
                  <trackindex>1</trackindex>
                </sourcetrack>
                <multiclip id="mcs-537">
                  <name>MCS-537</name>
                  <masterclipid>clip-master</masterclipid>
                  <collapsed>false</collapsed>
                  <angle>
                    <activevideoangle>false</activevideoangle>
                    <activeaudioangle>false</activeaudioangle>
                    <clip id="clip-1"/>
                  </angle>
                  <angle>
                    <activevideoangle>false</activevideoangle>
                    <activeaudioangle>false</activeaudioangle>
                    <clip id="clip-2"/>
                  </angle>
                  <angle>
                    <activevideoangle>false</activevideoangle>
                    <activeaudioangle>false</activeaudioangle>
                    <clip id="clip-3"/>
                  </angle>
                  <angle>
                    <activevideoangle>true</activevideoangle>
                    <activeaudioangle>true</activeaudioangle>
                    <clip id="clip-4"/>
                  </angle>
                  <angle>
                    <activevideoangle>false</activevideoangle>
                    <activeaudioangle>false</activeaudioangle>
                    <clip id="clip-5"/>
                  </angle>
                  <angle>
                    <activevideoangle>false</activevideoangle>
                    <activeaudioangle>false</activeaudioangle>
                    <clip id="clip-6"/>
                  </angle>
                  <angle>
                    <activevideoangle>false</activevideoangle>
                    <activeaudioangle>false</activeaudioangle>
                    <clip id="clip-7"/>
                  </angle>
                  <masterclipid>clip-master</masterclipid>
                </multiclip>
              </clipitem>
              <clipitem id="cs-538">
                <duration>94</duration>
                <rate>
                  <ntsc>false</ntsc>
                  <timebase>25</timebase>
                </rate>
                <in>62359</in>
                <out>62452</out>
                <start>62359</start>
                <end>62452</end>
                <file id="src-3"/>
                <sourcetrack>
                  <mediatype>video</mediatype>
                  <trackindex>1</trackindex>
                </sourcetrack>
                <multiclip id="mcs-538">
                  <name>MCS-538</name>
                  <masterclipid>clip-master</masterclipid>
                  <collapsed>false</collapsed>
                  <angle>
                    <activevideoangle>false</activevideoangle>
                    <activeaudioangle>false</activeaudioangle>
                    <clip id="clip-1"/>
                  </angle>
                  <angle>
                    <activevideoangle>false</activevideoangle>
                    <activeaudioangle>false</activeaudioangle>
                    <clip id="clip-2"/>
                  </angle>
                  <angle>
                    <activevideoangle>true</activevideoangle>
                    <activeaudioangle>true</activeaudioangle>
                    <clip id="clip-3"/>
                  </angle>
                  <angle>
                    <activevideoangle>false</activevideoangle>
                    <activeaudioangle>false</activeaudioangle>
                    <clip id="clip-4"/>
                  </angle>
                  <angle>
                    <activevideoangle>false</activevideoangle>
                    <activeaudioangle>false</activeaudioangle>
                    <clip id="clip-5"/>
                  </angle>
                  <angle>
                    <activevideoangle>false</activevideoangle>
                    <activeaudioangle>false</activeaudioangle>
                    <clip id="clip-6"/>
                  </angle>
                  <angle>
                    <activevideoangle>false</activevideoangle>
                    <activeaudioangle>false</activeaudioangle>
                    <clip id="clip-7"/>
                  </angle>
                  <masterclipid>clip-master</masterclipid>
                </multiclip>
              </clipitem>
              <clipitem id="cs-539">
                <duration>157</duration>
                <rate>
                  <ntsc>false</ntsc>
                  <timebase>25</timebase>
                </rate>
                <in>62452</in>
                <out>62608</out>
                <start>62452</start>
                <end>62608</end>
                <file id="src-2"/>
                <sourcetrack>
                  <mediatype>video</mediatype>
                  <trackindex>1</trackindex>
                </sourcetrack>
                <multiclip id="mcs-539">
                  <name>MCS-539</name>
                  <masterclipid>clip-master</masterclipid>
                  <collapsed>false</collapsed>
                  <angle>
                    <activevideoangle>false</activevideoangle>
                    <activeaudioangle>false</activeaudioangle>
                    <clip id="clip-1"/>
                  </angle>
                  <angle>
                    <activevideoangle>true</activevideoangle>
                    <activeaudioangle>true</activeaudioangle>
                    <clip id="clip-2"/>
                  </angle>
                  <angle>
                    <activevideoangle>false</activevideoangle>
                    <activeaudioangle>false</activeaudioangle>
                    <clip id="clip-3"/>
                  </angle>
                  <angle>
                    <activevideoangle>false</activevideoangle>
                    <activeaudioangle>false</activeaudioangle>
                    <clip id="clip-4"/>
                  </angle>
                  <angle>
                    <activevideoangle>false</activevideoangle>
                    <activeaudioangle>false</activeaudioangle>
                    <clip id="clip-5"/>
                  </angle>
                  <angle>
                    <activevideoangle>false</activevideoangle>
                    <activeaudioangle>false</activeaudioangle>
                    <clip id="clip-6"/>
                  </angle>
                  <angle>
                    <activevideoangle>false</activevideoangle>
                    <activeaudioangle>false</activeaudioangle>
                    <clip id="clip-7"/>
                  </angle>
                  <masterclipid>clip-master</masterclipid>
                </multiclip>
              </clipitem>
              <clipitem id="cs-540">
                <duration>163</duration>
                <rate>
                  <ntsc>false</ntsc>
                  <timebase>25</timebase>
                </rate>
                <in>62608</in>
                <out>62770</out>
                <start>62608</start>
                <end>62770</end>
                <file id="src-3"/>
                <sourcetrack>
                  <mediatype>video</mediatype>
                  <trackindex>1</trackindex>
                </sourcetrack>
                <multiclip id="mcs-540">
                  <name>MCS-540</name>
                  <masterclipid>clip-master</masterclipid>
                  <collapsed>false</collapsed>
                  <angle>
                    <activevideoangle>false</activevideoangle>
                    <activeaudioangle>false</activeaudioangle>
                    <clip id="clip-1"/>
                  </angle>
                  <angle>
                    <activevideoangle>false</activevideoangle>
                    <activeaudioangle>false</activeaudioangle>
                    <clip id="clip-2"/>
                  </angle>
                  <angle>
                    <activevideoangle>true</activevideoangle>
                    <activeaudioangle>true</activeaudioangle>
                    <clip id="clip-3"/>
                  </angle>
                  <angle>
                    <activevideoangle>false</activevideoangle>
                    <activeaudioangle>false</activeaudioangle>
                    <clip id="clip-4"/>
                  </angle>
                  <angle>
                    <activevideoangle>false</activevideoangle>
                    <activeaudioangle>false</activeaudioangle>
                    <clip id="clip-5"/>
                  </angle>
                  <angle>
                    <activevideoangle>false</activevideoangle>
                    <activeaudioangle>false</activeaudioangle>
                    <clip id="clip-6"/>
                  </angle>
                  <angle>
                    <activevideoangle>false</activevideoangle>
                    <activeaudioangle>false</activeaudioangle>
                    <clip id="clip-7"/>
                  </angle>
                  <masterclipid>clip-master</masterclipid>
                </multiclip>
              </clipitem>
              <clipitem id="cs-541">
                <duration>98</duration>
                <rate>
                  <ntsc>false</ntsc>
                  <timebase>25</timebase>
                </rate>
                <in>62770</in>
                <out>62867</out>
                <start>62770</start>
                <end>62867</end>
                <file id="src-6"/>
                <sourcetrack>
                  <mediatype>video</mediatype>
                  <trackindex>1</trackindex>
                </sourcetrack>
                <multiclip id="mcs-541">
                  <name>MCS-541</name>
                  <masterclipid>clip-master</masterclipid>
                  <collapsed>false</collapsed>
                  <angle>
                    <activevideoangle>false</activevideoangle>
                    <activeaudioangle>false</activeaudioangle>
                    <clip id="clip-1"/>
                  </angle>
                  <angle>
                    <activevideoangle>false</activevideoangle>
                    <activeaudioangle>false</activeaudioangle>
                    <clip id="clip-2"/>
                  </angle>
                  <angle>
                    <activevideoangle>false</activevideoangle>
                    <activeaudioangle>false</activeaudioangle>
                    <clip id="clip-3"/>
                  </angle>
                  <angle>
                    <activevideoangle>false</activevideoangle>
                    <activeaudioangle>false</activeaudioangle>
                    <clip id="clip-4"/>
                  </angle>
                  <angle>
                    <activevideoangle>false</activevideoangle>
                    <activeaudioangle>false</activeaudioangle>
                    <clip id="clip-5"/>
                  </angle>
                  <angle>
                    <activevideoangle>true</activevideoangle>
                    <activeaudioangle>true</activeaudioangle>
                    <clip id="clip-6"/>
                  </angle>
                  <angle>
                    <activevideoangle>false</activevideoangle>
                    <activeaudioangle>false</activeaudioangle>
                    <clip id="clip-7"/>
                  </angle>
                  <masterclipid>clip-master</masterclipid>
                </multiclip>
              </clipitem>
              <clipitem id="cs-542">
                <duration>79</duration>
                <rate>
                  <ntsc>false</ntsc>
                  <timebase>25</timebase>
                </rate>
                <in>62867</in>
                <out>62945</out>
                <start>62867</start>
                <end>62945</end>
                <file id="src-4"/>
                <sourcetrack>
                  <mediatype>video</mediatype>
                  <trackindex>1</trackindex>
                </sourcetrack>
                <multiclip id="mcs-542">
                  <name>MCS-542</name>
                  <masterclipid>clip-master</masterclipid>
                  <collapsed>false</collapsed>
                  <angle>
                    <activevideoangle>false</activevideoangle>
                    <activeaudioangle>false</activeaudioangle>
                    <clip id="clip-1"/>
                  </angle>
                  <angle>
                    <activevideoangle>false</activevideoangle>
                    <activeaudioangle>false</activeaudioangle>
                    <clip id="clip-2"/>
                  </angle>
                  <angle>
                    <activevideoangle>false</activevideoangle>
                    <activeaudioangle>false</activeaudioangle>
                    <clip id="clip-3"/>
                  </angle>
                  <angle>
                    <activevideoangle>true</activevideoangle>
                    <activeaudioangle>true</activeaudioangle>
                    <clip id="clip-4"/>
                  </angle>
                  <angle>
                    <activevideoangle>false</activevideoangle>
                    <activeaudioangle>false</activeaudioangle>
                    <clip id="clip-5"/>
                  </angle>
                  <angle>
                    <activevideoangle>false</activevideoangle>
                    <activeaudioangle>false</activeaudioangle>
                    <clip id="clip-6"/>
                  </angle>
                  <angle>
                    <activevideoangle>false</activevideoangle>
                    <activeaudioangle>false</activeaudioangle>
                    <clip id="clip-7"/>
                  </angle>
                  <masterclipid>clip-master</masterclipid>
                </multiclip>
              </clipitem>
              <clipitem id="cs-543">
                <duration>103</duration>
                <rate>
                  <ntsc>false</ntsc>
                  <timebase>25</timebase>
                </rate>
                <in>62945</in>
                <out>63047</out>
                <start>62945</start>
                <end>63047</end>
                <file id="src-2"/>
                <sourcetrack>
                  <mediatype>video</mediatype>
                  <trackindex>1</trackindex>
                </sourcetrack>
                <multiclip id="mcs-543">
                  <name>MCS-543</name>
                  <masterclipid>clip-master</masterclipid>
                  <collapsed>false</collapsed>
                  <angle>
                    <activevideoangle>false</activevideoangle>
                    <activeaudioangle>false</activeaudioangle>
                    <clip id="clip-1"/>
                  </angle>
                  <angle>
                    <activevideoangle>true</activevideoangle>
                    <activeaudioangle>true</activeaudioangle>
                    <clip id="clip-2"/>
                  </angle>
                  <angle>
                    <activevideoangle>false</activevideoangle>
                    <activeaudioangle>false</activeaudioangle>
                    <clip id="clip-3"/>
                  </angle>
                  <angle>
                    <activevideoangle>false</activevideoangle>
                    <activeaudioangle>false</activeaudioangle>
                    <clip id="clip-4"/>
                  </angle>
                  <angle>
                    <activevideoangle>false</activevideoangle>
                    <activeaudioangle>false</activeaudioangle>
                    <clip id="clip-5"/>
                  </angle>
                  <angle>
                    <activevideoangle>false</activevideoangle>
                    <activeaudioangle>false</activeaudioangle>
                    <clip id="clip-6"/>
                  </angle>
                  <angle>
                    <activevideoangle>false</activevideoangle>
                    <activeaudioangle>false</activeaudioangle>
                    <clip id="clip-7"/>
                  </angle>
                  <masterclipid>clip-master</masterclipid>
                </multiclip>
              </clipitem>
              <clipitem id="cs-544">
                <duration>92</duration>
                <rate>
                  <ntsc>false</ntsc>
                  <timebase>25</timebase>
                </rate>
                <in>63047</in>
                <out>63138</out>
                <start>63047</start>
                <end>63138</end>
                <file id="src-3"/>
                <sourcetrack>
                  <mediatype>video</mediatype>
                  <trackindex>1</trackindex>
                </sourcetrack>
                <multiclip id="mcs-544">
                  <name>MCS-544</name>
                  <masterclipid>clip-master</masterclipid>
                  <collapsed>false</collapsed>
                  <angle>
                    <activevideoangle>false</activevideoangle>
                    <activeaudioangle>false</activeaudioangle>
                    <clip id="clip-1"/>
                  </angle>
                  <angle>
                    <activevideoangle>false</activevideoangle>
                    <activeaudioangle>false</activeaudioangle>
                    <clip id="clip-2"/>
                  </angle>
                  <angle>
                    <activevideoangle>true</activevideoangle>
                    <activeaudioangle>true</activeaudioangle>
                    <clip id="clip-3"/>
                  </angle>
                  <angle>
                    <activevideoangle>false</activevideoangle>
                    <activeaudioangle>false</activeaudioangle>
                    <clip id="clip-4"/>
                  </angle>
                  <angle>
                    <activevideoangle>false</activevideoangle>
                    <activeaudioangle>false</activeaudioangle>
                    <clip id="clip-5"/>
                  </angle>
                  <angle>
                    <activevideoangle>false</activevideoangle>
                    <activeaudioangle>false</activeaudioangle>
                    <clip id="clip-6"/>
                  </angle>
                  <angle>
                    <activevideoangle>false</activevideoangle>
                    <activeaudioangle>false</activeaudioangle>
                    <clip id="clip-7"/>
                  </angle>
                  <masterclipid>clip-master</masterclipid>
                </multiclip>
              </clipitem>
              <clipitem id="cs-545">
                <duration>76</duration>
                <rate>
                  <ntsc>false</ntsc>
                  <timebase>25</timebase>
                </rate>
                <in>63138</in>
                <out>63213</out>
                <start>63138</start>
                <end>63213</end>
                <file id="src-2"/>
                <sourcetrack>
                  <mediatype>video</mediatype>
                  <trackindex>1</trackindex>
                </sourcetrack>
                <multiclip id="mcs-545">
                  <name>MCS-545</name>
                  <masterclipid>clip-master</masterclipid>
                  <collapsed>false</collapsed>
                  <angle>
                    <activevideoangle>false</activevideoangle>
                    <activeaudioangle>false</activeaudioangle>
                    <clip id="clip-1"/>
                  </angle>
                  <angle>
                    <activevideoangle>true</activevideoangle>
                    <activeaudioangle>true</activeaudioangle>
                    <clip id="clip-2"/>
                  </angle>
                  <angle>
                    <activevideoangle>false</activevideoangle>
                    <activeaudioangle>false</activeaudioangle>
                    <clip id="clip-3"/>
                  </angle>
                  <angle>
                    <activevideoangle>false</activevideoangle>
                    <activeaudioangle>false</activeaudioangle>
                    <clip id="clip-4"/>
                  </angle>
                  <angle>
                    <activevideoangle>false</activevideoangle>
                    <activeaudioangle>false</activeaudioangle>
                    <clip id="clip-5"/>
                  </angle>
                  <angle>
                    <activevideoangle>false</activevideoangle>
                    <activeaudioangle>false</activeaudioangle>
                    <clip id="clip-6"/>
                  </angle>
                  <angle>
                    <activevideoangle>false</activevideoangle>
                    <activeaudioangle>false</activeaudioangle>
                    <clip id="clip-7"/>
                  </angle>
                  <masterclipid>clip-master</masterclipid>
                </multiclip>
              </clipitem>
              <clipitem id="cs-546">
                <duration>36</duration>
                <rate>
                  <ntsc>false</ntsc>
                  <timebase>25</timebase>
                </rate>
                <in>63213</in>
                <out>63248</out>
                <start>63213</start>
                <end>63248</end>
                <file id="src-3"/>
                <sourcetrack>
                  <mediatype>video</mediatype>
                  <trackindex>1</trackindex>
                </sourcetrack>
                <multiclip id="mcs-546">
                  <name>MCS-546</name>
                  <masterclipid>clip-master</masterclipid>
                  <collapsed>false</collapsed>
                  <angle>
                    <activevideoangle>false</activevideoangle>
                    <activeaudioangle>false</activeaudioangle>
                    <clip id="clip-1"/>
                  </angle>
                  <angle>
                    <activevideoangle>false</activevideoangle>
                    <activeaudioangle>false</activeaudioangle>
                    <clip id="clip-2"/>
                  </angle>
                  <angle>
                    <activevideoangle>true</activevideoangle>
                    <activeaudioangle>true</activeaudioangle>
                    <clip id="clip-3"/>
                  </angle>
                  <angle>
                    <activevideoangle>false</activevideoangle>
                    <activeaudioangle>false</activeaudioangle>
                    <clip id="clip-4"/>
                  </angle>
                  <angle>
                    <activevideoangle>false</activevideoangle>
                    <activeaudioangle>false</activeaudioangle>
                    <clip id="clip-5"/>
                  </angle>
                  <angle>
                    <activevideoangle>false</activevideoangle>
                    <activeaudioangle>false</activeaudioangle>
                    <clip id="clip-6"/>
                  </angle>
                  <angle>
                    <activevideoangle>false</activevideoangle>
                    <activeaudioangle>false</activeaudioangle>
                    <clip id="clip-7"/>
                  </angle>
                  <masterclipid>clip-master</masterclipid>
                </multiclip>
              </clipitem>
              <clipitem id="cs-547">
                <duration>74</duration>
                <rate>
                  <ntsc>false</ntsc>
                  <timebase>25</timebase>
                </rate>
                <in>63248</in>
                <out>63321</out>
                <start>63248</start>
                <end>63321</end>
                <file id="src-6"/>
                <sourcetrack>
                  <mediatype>video</mediatype>
                  <trackindex>1</trackindex>
                </sourcetrack>
                <multiclip id="mcs-547">
                  <name>MCS-547</name>
                  <masterclipid>clip-master</masterclipid>
                  <collapsed>false</collapsed>
                  <angle>
                    <activevideoangle>false</activevideoangle>
                    <activeaudioangle>false</activeaudioangle>
                    <clip id="clip-1"/>
                  </angle>
                  <angle>
                    <activevideoangle>false</activevideoangle>
                    <activeaudioangle>false</activeaudioangle>
                    <clip id="clip-2"/>
                  </angle>
                  <angle>
                    <activevideoangle>false</activevideoangle>
                    <activeaudioangle>false</activeaudioangle>
                    <clip id="clip-3"/>
                  </angle>
                  <angle>
                    <activevideoangle>false</activevideoangle>
                    <activeaudioangle>false</activeaudioangle>
                    <clip id="clip-4"/>
                  </angle>
                  <angle>
                    <activevideoangle>false</activevideoangle>
                    <activeaudioangle>false</activeaudioangle>
                    <clip id="clip-5"/>
                  </angle>
                  <angle>
                    <activevideoangle>true</activevideoangle>
                    <activeaudioangle>true</activeaudioangle>
                    <clip id="clip-6"/>
                  </angle>
                  <angle>
                    <activevideoangle>false</activevideoangle>
                    <activeaudioangle>false</activeaudioangle>
                    <clip id="clip-7"/>
                  </angle>
                  <masterclipid>clip-master</masterclipid>
                </multiclip>
              </clipitem>
              <clipitem id="cs-548">
                <duration>121</duration>
                <rate>
                  <ntsc>false</ntsc>
                  <timebase>25</timebase>
                </rate>
                <in>63321</in>
                <out>63441</out>
                <start>63321</start>
                <end>63441</end>
                <file id="src-3"/>
                <sourcetrack>
                  <mediatype>video</mediatype>
                  <trackindex>1</trackindex>
                </sourcetrack>
                <multiclip id="mcs-548">
                  <name>MCS-548</name>
                  <masterclipid>clip-master</masterclipid>
                  <collapsed>false</collapsed>
                  <angle>
                    <activevideoangle>false</activevideoangle>
                    <activeaudioangle>false</activeaudioangle>
                    <clip id="clip-1"/>
                  </angle>
                  <angle>
                    <activevideoangle>false</activevideoangle>
                    <activeaudioangle>false</activeaudioangle>
                    <clip id="clip-2"/>
                  </angle>
                  <angle>
                    <activevideoangle>true</activevideoangle>
                    <activeaudioangle>true</activeaudioangle>
                    <clip id="clip-3"/>
                  </angle>
                  <angle>
                    <activevideoangle>false</activevideoangle>
                    <activeaudioangle>false</activeaudioangle>
                    <clip id="clip-4"/>
                  </angle>
                  <angle>
                    <activevideoangle>false</activevideoangle>
                    <activeaudioangle>false</activeaudioangle>
                    <clip id="clip-5"/>
                  </angle>
                  <angle>
                    <activevideoangle>false</activevideoangle>
                    <activeaudioangle>false</activeaudioangle>
                    <clip id="clip-6"/>
                  </angle>
                  <angle>
                    <activevideoangle>false</activevideoangle>
                    <activeaudioangle>false</activeaudioangle>
                    <clip id="clip-7"/>
                  </angle>
                  <masterclipid>clip-master</masterclipid>
                </multiclip>
              </clipitem>
              <clipitem id="cs-549">
                <duration>488</duration>
                <rate>
                  <ntsc>false</ntsc>
                  <timebase>25</timebase>
                </rate>
                <in>63441</in>
                <out>63928</out>
                <start>63441</start>
                <end>63928</end>
                <file id="src-1"/>
                <sourcetrack>
                  <mediatype>video</mediatype>
                  <trackindex>1</trackindex>
                </sourcetrack>
                <multiclip id="mcs-549">
                  <name>MCS-549</name>
                  <masterclipid>clip-master</masterclipid>
                  <collapsed>false</collapsed>
                  <angle>
                    <activevideoangle>true</activevideoangle>
                    <activeaudioangle>true</activeaudioangle>
                    <clip id="clip-1"/>
                  </angle>
                  <angle>
                    <activevideoangle>false</activevideoangle>
                    <activeaudioangle>false</activeaudioangle>
                    <clip id="clip-2"/>
                  </angle>
                  <angle>
                    <activevideoangle>false</activevideoangle>
                    <activeaudioangle>false</activeaudioangle>
                    <clip id="clip-3"/>
                  </angle>
                  <angle>
                    <activevideoangle>false</activevideoangle>
                    <activeaudioangle>false</activeaudioangle>
                    <clip id="clip-4"/>
                  </angle>
                  <angle>
                    <activevideoangle>false</activevideoangle>
                    <activeaudioangle>false</activeaudioangle>
                    <clip id="clip-5"/>
                  </angle>
                  <angle>
                    <activevideoangle>false</activevideoangle>
                    <activeaudioangle>false</activeaudioangle>
                    <clip id="clip-6"/>
                  </angle>
                  <angle>
                    <activevideoangle>false</activevideoangle>
                    <activeaudioangle>false</activeaudioangle>
                    <clip id="clip-7"/>
                  </angle>
                  <masterclipid>clip-master</masterclipid>
                </multiclip>
              </clipitem>
              <clipitem id="cs-550">
                <duration>184</duration>
                <rate>
                  <ntsc>false</ntsc>
                  <timebase>25</timebase>
                </rate>
                <in>63928</in>
                <out>64111</out>
                <start>63928</start>
                <end>64111</end>
                <file id="src-2"/>
                <sourcetrack>
                  <mediatype>video</mediatype>
                  <trackindex>1</trackindex>
                </sourcetrack>
                <multiclip id="mcs-550">
                  <name>MCS-550</name>
                  <masterclipid>clip-master</masterclipid>
                  <collapsed>false</collapsed>
                  <angle>
                    <activevideoangle>false</activevideoangle>
                    <activeaudioangle>false</activeaudioangle>
                    <clip id="clip-1"/>
                  </angle>
                  <angle>
                    <activevideoangle>true</activevideoangle>
                    <activeaudioangle>true</activeaudioangle>
                    <clip id="clip-2"/>
                  </angle>
                  <angle>
                    <activevideoangle>false</activevideoangle>
                    <activeaudioangle>false</activeaudioangle>
                    <clip id="clip-3"/>
                  </angle>
                  <angle>
                    <activevideoangle>false</activevideoangle>
                    <activeaudioangle>false</activeaudioangle>
                    <clip id="clip-4"/>
                  </angle>
                  <angle>
                    <activevideoangle>false</activevideoangle>
                    <activeaudioangle>false</activeaudioangle>
                    <clip id="clip-5"/>
                  </angle>
                  <angle>
                    <activevideoangle>false</activevideoangle>
                    <activeaudioangle>false</activeaudioangle>
                    <clip id="clip-6"/>
                  </angle>
                  <angle>
                    <activevideoangle>false</activevideoangle>
                    <activeaudioangle>false</activeaudioangle>
                    <clip id="clip-7"/>
                  </angle>
                  <masterclipid>clip-master</masterclipid>
                </multiclip>
              </clipitem>
              <clipitem id="cs-551">
                <duration>132</duration>
                <rate>
                  <ntsc>false</ntsc>
                  <timebase>25</timebase>
                </rate>
                <in>64111</in>
                <out>64242</out>
                <start>64111</start>
                <end>64242</end>
                <file id="src-1"/>
                <sourcetrack>
                  <mediatype>video</mediatype>
                  <trackindex>1</trackindex>
                </sourcetrack>
                <multiclip id="mcs-551">
                  <name>MCS-551</name>
                  <masterclipid>clip-master</masterclipid>
                  <collapsed>false</collapsed>
                  <angle>
                    <activevideoangle>true</activevideoangle>
                    <activeaudioangle>true</activeaudioangle>
                    <clip id="clip-1"/>
                  </angle>
                  <angle>
                    <activevideoangle>false</activevideoangle>
                    <activeaudioangle>false</activeaudioangle>
                    <clip id="clip-2"/>
                  </angle>
                  <angle>
                    <activevideoangle>false</activevideoangle>
                    <activeaudioangle>false</activeaudioangle>
                    <clip id="clip-3"/>
                  </angle>
                  <angle>
                    <activevideoangle>false</activevideoangle>
                    <activeaudioangle>false</activeaudioangle>
                    <clip id="clip-4"/>
                  </angle>
                  <angle>
                    <activevideoangle>false</activevideoangle>
                    <activeaudioangle>false</activeaudioangle>
                    <clip id="clip-5"/>
                  </angle>
                  <angle>
                    <activevideoangle>false</activevideoangle>
                    <activeaudioangle>false</activeaudioangle>
                    <clip id="clip-6"/>
                  </angle>
                  <angle>
                    <activevideoangle>false</activevideoangle>
                    <activeaudioangle>false</activeaudioangle>
                    <clip id="clip-7"/>
                  </angle>
                  <masterclipid>clip-master</masterclipid>
                </multiclip>
              </clipitem>
              <clipitem id="cs-552">
                <duration>75</duration>
                <rate>
                  <ntsc>false</ntsc>
                  <timebase>25</timebase>
                </rate>
                <in>64242</in>
                <out>64316</out>
                <start>64242</start>
                <end>64316</end>
                <file id="src-2"/>
                <sourcetrack>
                  <mediatype>video</mediatype>
                  <trackindex>1</trackindex>
                </sourcetrack>
                <multiclip id="mcs-552">
                  <name>MCS-552</name>
                  <masterclipid>clip-master</masterclipid>
                  <collapsed>false</collapsed>
                  <angle>
                    <activevideoangle>false</activevideoangle>
                    <activeaudioangle>false</activeaudioangle>
                    <clip id="clip-1"/>
                  </angle>
                  <angle>
                    <activevideoangle>true</activevideoangle>
                    <activeaudioangle>true</activeaudioangle>
                    <clip id="clip-2"/>
                  </angle>
                  <angle>
                    <activevideoangle>false</activevideoangle>
                    <activeaudioangle>false</activeaudioangle>
                    <clip id="clip-3"/>
                  </angle>
                  <angle>
                    <activevideoangle>false</activevideoangle>
                    <activeaudioangle>false</activeaudioangle>
                    <clip id="clip-4"/>
                  </angle>
                  <angle>
                    <activevideoangle>false</activevideoangle>
                    <activeaudioangle>false</activeaudioangle>
                    <clip id="clip-5"/>
                  </angle>
                  <angle>
                    <activevideoangle>false</activevideoangle>
                    <activeaudioangle>false</activeaudioangle>
                    <clip id="clip-6"/>
                  </angle>
                  <angle>
                    <activevideoangle>false</activevideoangle>
                    <activeaudioangle>false</activeaudioangle>
                    <clip id="clip-7"/>
                  </angle>
                  <masterclipid>clip-master</masterclipid>
                </multiclip>
              </clipitem>
              <clipitem id="cs-553">
                <duration>62</duration>
                <rate>
                  <ntsc>false</ntsc>
                  <timebase>25</timebase>
                </rate>
                <in>64316</in>
                <out>64377</out>
                <start>64316</start>
                <end>64377</end>
                <file id="src-3"/>
                <sourcetrack>
                  <mediatype>video</mediatype>
                  <trackindex>1</trackindex>
                </sourcetrack>
                <multiclip id="mcs-553">
                  <name>MCS-553</name>
                  <masterclipid>clip-master</masterclipid>
                  <collapsed>false</collapsed>
                  <angle>
                    <activevideoangle>false</activevideoangle>
                    <activeaudioangle>false</activeaudioangle>
                    <clip id="clip-1"/>
                  </angle>
                  <angle>
                    <activevideoangle>false</activevideoangle>
                    <activeaudioangle>false</activeaudioangle>
                    <clip id="clip-2"/>
                  </angle>
                  <angle>
                    <activevideoangle>true</activevideoangle>
                    <activeaudioangle>true</activeaudioangle>
                    <clip id="clip-3"/>
                  </angle>
                  <angle>
                    <activevideoangle>false</activevideoangle>
                    <activeaudioangle>false</activeaudioangle>
                    <clip id="clip-4"/>
                  </angle>
                  <angle>
                    <activevideoangle>false</activevideoangle>
                    <activeaudioangle>false</activeaudioangle>
                    <clip id="clip-5"/>
                  </angle>
                  <angle>
                    <activevideoangle>false</activevideoangle>
                    <activeaudioangle>false</activeaudioangle>
                    <clip id="clip-6"/>
                  </angle>
                  <angle>
                    <activevideoangle>false</activevideoangle>
                    <activeaudioangle>false</activeaudioangle>
                    <clip id="clip-7"/>
                  </angle>
                  <masterclipid>clip-master</masterclipid>
                </multiclip>
              </clipitem>
              <clipitem id="cs-554">
                <duration>52</duration>
                <rate>
                  <ntsc>false</ntsc>
                  <timebase>25</timebase>
                </rate>
                <in>64377</in>
                <out>64428</out>
                <start>64377</start>
                <end>64428</end>
                <file id="src-6"/>
                <sourcetrack>
                  <mediatype>video</mediatype>
                  <trackindex>1</trackindex>
                </sourcetrack>
                <multiclip id="mcs-554">
                  <name>MCS-554</name>
                  <masterclipid>clip-master</masterclipid>
                  <collapsed>false</collapsed>
                  <angle>
                    <activevideoangle>false</activevideoangle>
                    <activeaudioangle>false</activeaudioangle>
                    <clip id="clip-1"/>
                  </angle>
                  <angle>
                    <activevideoangle>false</activevideoangle>
                    <activeaudioangle>false</activeaudioangle>
                    <clip id="clip-2"/>
                  </angle>
                  <angle>
                    <activevideoangle>false</activevideoangle>
                    <activeaudioangle>false</activeaudioangle>
                    <clip id="clip-3"/>
                  </angle>
                  <angle>
                    <activevideoangle>false</activevideoangle>
                    <activeaudioangle>false</activeaudioangle>
                    <clip id="clip-4"/>
                  </angle>
                  <angle>
                    <activevideoangle>false</activevideoangle>
                    <activeaudioangle>false</activeaudioangle>
                    <clip id="clip-5"/>
                  </angle>
                  <angle>
                    <activevideoangle>true</activevideoangle>
                    <activeaudioangle>true</activeaudioangle>
                    <clip id="clip-6"/>
                  </angle>
                  <angle>
                    <activevideoangle>false</activevideoangle>
                    <activeaudioangle>false</activeaudioangle>
                    <clip id="clip-7"/>
                  </angle>
                  <masterclipid>clip-master</masterclipid>
                </multiclip>
              </clipitem>
              <clipitem id="cs-555">
                <duration>66</duration>
                <rate>
                  <ntsc>false</ntsc>
                  <timebase>25</timebase>
                </rate>
                <in>64428</in>
                <out>64493</out>
                <start>64428</start>
                <end>64493</end>
                <file id="src-1"/>
                <sourcetrack>
                  <mediatype>video</mediatype>
                  <trackindex>1</trackindex>
                </sourcetrack>
                <multiclip id="mcs-555">
                  <name>MCS-555</name>
                  <masterclipid>clip-master</masterclipid>
                  <collapsed>false</collapsed>
                  <angle>
                    <activevideoangle>true</activevideoangle>
                    <activeaudioangle>true</activeaudioangle>
                    <clip id="clip-1"/>
                  </angle>
                  <angle>
                    <activevideoangle>false</activevideoangle>
                    <activeaudioangle>false</activeaudioangle>
                    <clip id="clip-2"/>
                  </angle>
                  <angle>
                    <activevideoangle>false</activevideoangle>
                    <activeaudioangle>false</activeaudioangle>
                    <clip id="clip-3"/>
                  </angle>
                  <angle>
                    <activevideoangle>false</activevideoangle>
                    <activeaudioangle>false</activeaudioangle>
                    <clip id="clip-4"/>
                  </angle>
                  <angle>
                    <activevideoangle>false</activevideoangle>
                    <activeaudioangle>false</activeaudioangle>
                    <clip id="clip-5"/>
                  </angle>
                  <angle>
                    <activevideoangle>false</activevideoangle>
                    <activeaudioangle>false</activeaudioangle>
                    <clip id="clip-6"/>
                  </angle>
                  <angle>
                    <activevideoangle>false</activevideoangle>
                    <activeaudioangle>false</activeaudioangle>
                    <clip id="clip-7"/>
                  </angle>
                  <masterclipid>clip-master</masterclipid>
                </multiclip>
              </clipitem>
              <clipitem id="cs-556">
                <duration>169</duration>
                <rate>
                  <ntsc>false</ntsc>
                  <timebase>25</timebase>
                </rate>
                <in>64493</in>
                <out>64661</out>
                <start>64493</start>
                <end>64661</end>
                <file id="src-3"/>
                <sourcetrack>
                  <mediatype>video</mediatype>
                  <trackindex>1</trackindex>
                </sourcetrack>
                <multiclip id="mcs-556">
                  <name>MCS-556</name>
                  <masterclipid>clip-master</masterclipid>
                  <collapsed>false</collapsed>
                  <angle>
                    <activevideoangle>false</activevideoangle>
                    <activeaudioangle>false</activeaudioangle>
                    <clip id="clip-1"/>
                  </angle>
                  <angle>
                    <activevideoangle>false</activevideoangle>
                    <activeaudioangle>false</activeaudioangle>
                    <clip id="clip-2"/>
                  </angle>
                  <angle>
                    <activevideoangle>true</activevideoangle>
                    <activeaudioangle>true</activeaudioangle>
                    <clip id="clip-3"/>
                  </angle>
                  <angle>
                    <activevideoangle>false</activevideoangle>
                    <activeaudioangle>false</activeaudioangle>
                    <clip id="clip-4"/>
                  </angle>
                  <angle>
                    <activevideoangle>false</activevideoangle>
                    <activeaudioangle>false</activeaudioangle>
                    <clip id="clip-5"/>
                  </angle>
                  <angle>
                    <activevideoangle>false</activevideoangle>
                    <activeaudioangle>false</activeaudioangle>
                    <clip id="clip-6"/>
                  </angle>
                  <angle>
                    <activevideoangle>false</activevideoangle>
                    <activeaudioangle>false</activeaudioangle>
                    <clip id="clip-7"/>
                  </angle>
                  <masterclipid>clip-master</masterclipid>
                </multiclip>
              </clipitem>
              <clipitem id="cs-557">
                <duration>78</duration>
                <rate>
                  <ntsc>false</ntsc>
                  <timebase>25</timebase>
                </rate>
                <in>64661</in>
                <out>64738</out>
                <start>64661</start>
                <end>64738</end>
                <file id="src-2"/>
                <sourcetrack>
                  <mediatype>video</mediatype>
                  <trackindex>1</trackindex>
                </sourcetrack>
                <multiclip id="mcs-557">
                  <name>MCS-557</name>
                  <masterclipid>clip-master</masterclipid>
                  <collapsed>false</collapsed>
                  <angle>
                    <activevideoangle>false</activevideoangle>
                    <activeaudioangle>false</activeaudioangle>
                    <clip id="clip-1"/>
                  </angle>
                  <angle>
                    <activevideoangle>true</activevideoangle>
                    <activeaudioangle>true</activeaudioangle>
                    <clip id="clip-2"/>
                  </angle>
                  <angle>
                    <activevideoangle>false</activevideoangle>
                    <activeaudioangle>false</activeaudioangle>
                    <clip id="clip-3"/>
                  </angle>
                  <angle>
                    <activevideoangle>false</activevideoangle>
                    <activeaudioangle>false</activeaudioangle>
                    <clip id="clip-4"/>
                  </angle>
                  <angle>
                    <activevideoangle>false</activevideoangle>
                    <activeaudioangle>false</activeaudioangle>
                    <clip id="clip-5"/>
                  </angle>
                  <angle>
                    <activevideoangle>false</activevideoangle>
                    <activeaudioangle>false</activeaudioangle>
                    <clip id="clip-6"/>
                  </angle>
                  <angle>
                    <activevideoangle>false</activevideoangle>
                    <activeaudioangle>false</activeaudioangle>
                    <clip id="clip-7"/>
                  </angle>
                  <masterclipid>clip-master</masterclipid>
                </multiclip>
              </clipitem>
              <clipitem id="cs-558">
                <duration>66</duration>
                <rate>
                  <ntsc>false</ntsc>
                  <timebase>25</timebase>
                </rate>
                <in>64738</in>
                <out>64803</out>
                <start>64738</start>
                <end>64803</end>
                <file id="src-1"/>
                <sourcetrack>
                  <mediatype>video</mediatype>
                  <trackindex>1</trackindex>
                </sourcetrack>
                <multiclip id="mcs-558">
                  <name>MCS-558</name>
                  <masterclipid>clip-master</masterclipid>
                  <collapsed>false</collapsed>
                  <angle>
                    <activevideoangle>true</activevideoangle>
                    <activeaudioangle>true</activeaudioangle>
                    <clip id="clip-1"/>
                  </angle>
                  <angle>
                    <activevideoangle>false</activevideoangle>
                    <activeaudioangle>false</activeaudioangle>
                    <clip id="clip-2"/>
                  </angle>
                  <angle>
                    <activevideoangle>false</activevideoangle>
                    <activeaudioangle>false</activeaudioangle>
                    <clip id="clip-3"/>
                  </angle>
                  <angle>
                    <activevideoangle>false</activevideoangle>
                    <activeaudioangle>false</activeaudioangle>
                    <clip id="clip-4"/>
                  </angle>
                  <angle>
                    <activevideoangle>false</activevideoangle>
                    <activeaudioangle>false</activeaudioangle>
                    <clip id="clip-5"/>
                  </angle>
                  <angle>
                    <activevideoangle>false</activevideoangle>
                    <activeaudioangle>false</activeaudioangle>
                    <clip id="clip-6"/>
                  </angle>
                  <angle>
                    <activevideoangle>false</activevideoangle>
                    <activeaudioangle>false</activeaudioangle>
                    <clip id="clip-7"/>
                  </angle>
                  <masterclipid>clip-master</masterclipid>
                </multiclip>
              </clipitem>
              <clipitem id="cs-559">
                <duration>956</duration>
                <rate>
                  <ntsc>false</ntsc>
                  <timebase>25</timebase>
                </rate>
                <in>64803</in>
                <out>65758</out>
                <start>64803</start>
                <end>65758</end>
                <file id="src-2"/>
                <sourcetrack>
                  <mediatype>video</mediatype>
                  <trackindex>1</trackindex>
                </sourcetrack>
                <multiclip id="mcs-559">
                  <name>MCS-559</name>
                  <masterclipid>clip-master</masterclipid>
                  <collapsed>false</collapsed>
                  <angle>
                    <activevideoangle>false</activevideoangle>
                    <activeaudioangle>false</activeaudioangle>
                    <clip id="clip-1"/>
                  </angle>
                  <angle>
                    <activevideoangle>true</activevideoangle>
                    <activeaudioangle>true</activeaudioangle>
                    <clip id="clip-2"/>
                  </angle>
                  <angle>
                    <activevideoangle>false</activevideoangle>
                    <activeaudioangle>false</activeaudioangle>
                    <clip id="clip-3"/>
                  </angle>
                  <angle>
                    <activevideoangle>false</activevideoangle>
                    <activeaudioangle>false</activeaudioangle>
                    <clip id="clip-4"/>
                  </angle>
                  <angle>
                    <activevideoangle>false</activevideoangle>
                    <activeaudioangle>false</activeaudioangle>
                    <clip id="clip-5"/>
                  </angle>
                  <angle>
                    <activevideoangle>false</activevideoangle>
                    <activeaudioangle>false</activeaudioangle>
                    <clip id="clip-6"/>
                  </angle>
                  <angle>
                    <activevideoangle>false</activevideoangle>
                    <activeaudioangle>false</activeaudioangle>
                    <clip id="clip-7"/>
                  </angle>
                  <masterclipid>clip-master</masterclipid>
                </multiclip>
              </clipitem>
              <clipitem id="cs-560">
                <duration>214</duration>
                <rate>
                  <ntsc>false</ntsc>
                  <timebase>25</timebase>
                </rate>
                <in>65758</in>
                <out>65971</out>
                <start>65758</start>
                <end>65971</end>
                <file id="src-3"/>
                <sourcetrack>
                  <mediatype>video</mediatype>
                  <trackindex>1</trackindex>
                </sourcetrack>
                <multiclip id="mcs-560">
                  <name>MCS-560</name>
                  <masterclipid>clip-master</masterclipid>
                  <collapsed>false</collapsed>
                  <angle>
                    <activevideoangle>false</activevideoangle>
                    <activeaudioangle>false</activeaudioangle>
                    <clip id="clip-1"/>
                  </angle>
                  <angle>
                    <activevideoangle>false</activevideoangle>
                    <activeaudioangle>false</activeaudioangle>
                    <clip id="clip-2"/>
                  </angle>
                  <angle>
                    <activevideoangle>true</activevideoangle>
                    <activeaudioangle>true</activeaudioangle>
                    <clip id="clip-3"/>
                  </angle>
                  <angle>
                    <activevideoangle>false</activevideoangle>
                    <activeaudioangle>false</activeaudioangle>
                    <clip id="clip-4"/>
                  </angle>
                  <angle>
                    <activevideoangle>false</activevideoangle>
                    <activeaudioangle>false</activeaudioangle>
                    <clip id="clip-5"/>
                  </angle>
                  <angle>
                    <activevideoangle>false</activevideoangle>
                    <activeaudioangle>false</activeaudioangle>
                    <clip id="clip-6"/>
                  </angle>
                  <angle>
                    <activevideoangle>false</activevideoangle>
                    <activeaudioangle>false</activeaudioangle>
                    <clip id="clip-7"/>
                  </angle>
                  <masterclipid>clip-master</masterclipid>
                </multiclip>
              </clipitem>
              <clipitem id="cs-561">
                <duration>436</duration>
                <rate>
                  <ntsc>false</ntsc>
                  <timebase>25</timebase>
                </rate>
                <in>65971</in>
                <out>66406</out>
                <start>65971</start>
                <end>66406</end>
                <file id="src-2"/>
                <sourcetrack>
                  <mediatype>video</mediatype>
                  <trackindex>1</trackindex>
                </sourcetrack>
                <multiclip id="mcs-561">
                  <name>MCS-561</name>
                  <masterclipid>clip-master</masterclipid>
                  <collapsed>false</collapsed>
                  <angle>
                    <activevideoangle>false</activevideoangle>
                    <activeaudioangle>false</activeaudioangle>
                    <clip id="clip-1"/>
                  </angle>
                  <angle>
                    <activevideoangle>true</activevideoangle>
                    <activeaudioangle>true</activeaudioangle>
                    <clip id="clip-2"/>
                  </angle>
                  <angle>
                    <activevideoangle>false</activevideoangle>
                    <activeaudioangle>false</activeaudioangle>
                    <clip id="clip-3"/>
                  </angle>
                  <angle>
                    <activevideoangle>false</activevideoangle>
                    <activeaudioangle>false</activeaudioangle>
                    <clip id="clip-4"/>
                  </angle>
                  <angle>
                    <activevideoangle>false</activevideoangle>
                    <activeaudioangle>false</activeaudioangle>
                    <clip id="clip-5"/>
                  </angle>
                  <angle>
                    <activevideoangle>false</activevideoangle>
                    <activeaudioangle>false</activeaudioangle>
                    <clip id="clip-6"/>
                  </angle>
                  <angle>
                    <activevideoangle>false</activevideoangle>
                    <activeaudioangle>false</activeaudioangle>
                    <clip id="clip-7"/>
                  </angle>
                  <masterclipid>clip-master</masterclipid>
                </multiclip>
              </clipitem>
              <clipitem id="cs-562">
                <duration>104</duration>
                <rate>
                  <ntsc>false</ntsc>
                  <timebase>25</timebase>
                </rate>
                <in>66406</in>
                <out>66509</out>
                <start>66406</start>
                <end>66509</end>
                <file id="src-1"/>
                <sourcetrack>
                  <mediatype>video</mediatype>
                  <trackindex>1</trackindex>
                </sourcetrack>
                <multiclip id="mcs-562">
                  <name>MCS-562</name>
                  <masterclipid>clip-master</masterclipid>
                  <collapsed>false</collapsed>
                  <angle>
                    <activevideoangle>true</activevideoangle>
                    <activeaudioangle>true</activeaudioangle>
                    <clip id="clip-1"/>
                  </angle>
                  <angle>
                    <activevideoangle>false</activevideoangle>
                    <activeaudioangle>false</activeaudioangle>
                    <clip id="clip-2"/>
                  </angle>
                  <angle>
                    <activevideoangle>false</activevideoangle>
                    <activeaudioangle>false</activeaudioangle>
                    <clip id="clip-3"/>
                  </angle>
                  <angle>
                    <activevideoangle>false</activevideoangle>
                    <activeaudioangle>false</activeaudioangle>
                    <clip id="clip-4"/>
                  </angle>
                  <angle>
                    <activevideoangle>false</activevideoangle>
                    <activeaudioangle>false</activeaudioangle>
                    <clip id="clip-5"/>
                  </angle>
                  <angle>
                    <activevideoangle>false</activevideoangle>
                    <activeaudioangle>false</activeaudioangle>
                    <clip id="clip-6"/>
                  </angle>
                  <angle>
                    <activevideoangle>false</activevideoangle>
                    <activeaudioangle>false</activeaudioangle>
                    <clip id="clip-7"/>
                  </angle>
                  <masterclipid>clip-master</masterclipid>
                </multiclip>
              </clipitem>
              <clipitem id="cs-563">
                <duration>141</duration>
                <rate>
                  <ntsc>false</ntsc>
                  <timebase>25</timebase>
                </rate>
                <in>66509</in>
                <out>66649</out>
                <start>66509</start>
                <end>66649</end>
                <file id="src-2"/>
                <sourcetrack>
                  <mediatype>video</mediatype>
                  <trackindex>1</trackindex>
                </sourcetrack>
                <multiclip id="mcs-563">
                  <name>MCS-563</name>
                  <masterclipid>clip-master</masterclipid>
                  <collapsed>false</collapsed>
                  <angle>
                    <activevideoangle>false</activevideoangle>
                    <activeaudioangle>false</activeaudioangle>
                    <clip id="clip-1"/>
                  </angle>
                  <angle>
                    <activevideoangle>true</activevideoangle>
                    <activeaudioangle>true</activeaudioangle>
                    <clip id="clip-2"/>
                  </angle>
                  <angle>
                    <activevideoangle>false</activevideoangle>
                    <activeaudioangle>false</activeaudioangle>
                    <clip id="clip-3"/>
                  </angle>
                  <angle>
                    <activevideoangle>false</activevideoangle>
                    <activeaudioangle>false</activeaudioangle>
                    <clip id="clip-4"/>
                  </angle>
                  <angle>
                    <activevideoangle>false</activevideoangle>
                    <activeaudioangle>false</activeaudioangle>
                    <clip id="clip-5"/>
                  </angle>
                  <angle>
                    <activevideoangle>false</activevideoangle>
                    <activeaudioangle>false</activeaudioangle>
                    <clip id="clip-6"/>
                  </angle>
                  <angle>
                    <activevideoangle>false</activevideoangle>
                    <activeaudioangle>false</activeaudioangle>
                    <clip id="clip-7"/>
                  </angle>
                  <masterclipid>clip-master</masterclipid>
                </multiclip>
              </clipitem>
              <clipitem id="cs-564">
                <duration>89</duration>
                <rate>
                  <ntsc>false</ntsc>
                  <timebase>25</timebase>
                </rate>
                <in>66649</in>
                <out>66737</out>
                <start>66649</start>
                <end>66737</end>
                <file id="src-3"/>
                <sourcetrack>
                  <mediatype>video</mediatype>
                  <trackindex>1</trackindex>
                </sourcetrack>
                <multiclip id="mcs-564">
                  <name>MCS-564</name>
                  <masterclipid>clip-master</masterclipid>
                  <collapsed>false</collapsed>
                  <angle>
                    <activevideoangle>false</activevideoangle>
                    <activeaudioangle>false</activeaudioangle>
                    <clip id="clip-1"/>
                  </angle>
                  <angle>
                    <activevideoangle>false</activevideoangle>
                    <activeaudioangle>false</activeaudioangle>
                    <clip id="clip-2"/>
                  </angle>
                  <angle>
                    <activevideoangle>true</activevideoangle>
                    <activeaudioangle>true</activeaudioangle>
                    <clip id="clip-3"/>
                  </angle>
                  <angle>
                    <activevideoangle>false</activevideoangle>
                    <activeaudioangle>false</activeaudioangle>
                    <clip id="clip-4"/>
                  </angle>
                  <angle>
                    <activevideoangle>false</activevideoangle>
                    <activeaudioangle>false</activeaudioangle>
                    <clip id="clip-5"/>
                  </angle>
                  <angle>
                    <activevideoangle>false</activevideoangle>
                    <activeaudioangle>false</activeaudioangle>
                    <clip id="clip-6"/>
                  </angle>
                  <angle>
                    <activevideoangle>false</activevideoangle>
                    <activeaudioangle>false</activeaudioangle>
                    <clip id="clip-7"/>
                  </angle>
                  <masterclipid>clip-master</masterclipid>
                </multiclip>
              </clipitem>
              <clipitem id="cs-565">
                <duration>247</duration>
                <rate>
                  <ntsc>false</ntsc>
                  <timebase>25</timebase>
                </rate>
                <in>66737</in>
                <out>66983</out>
                <start>66737</start>
                <end>66983</end>
                <file id="src-2"/>
                <sourcetrack>
                  <mediatype>video</mediatype>
                  <trackindex>1</trackindex>
                </sourcetrack>
                <multiclip id="mcs-565">
                  <name>MCS-565</name>
                  <masterclipid>clip-master</masterclipid>
                  <collapsed>false</collapsed>
                  <angle>
                    <activevideoangle>false</activevideoangle>
                    <activeaudioangle>false</activeaudioangle>
                    <clip id="clip-1"/>
                  </angle>
                  <angle>
                    <activevideoangle>true</activevideoangle>
                    <activeaudioangle>true</activeaudioangle>
                    <clip id="clip-2"/>
                  </angle>
                  <angle>
                    <activevideoangle>false</activevideoangle>
                    <activeaudioangle>false</activeaudioangle>
                    <clip id="clip-3"/>
                  </angle>
                  <angle>
                    <activevideoangle>false</activevideoangle>
                    <activeaudioangle>false</activeaudioangle>
                    <clip id="clip-4"/>
                  </angle>
                  <angle>
                    <activevideoangle>false</activevideoangle>
                    <activeaudioangle>false</activeaudioangle>
                    <clip id="clip-5"/>
                  </angle>
                  <angle>
                    <activevideoangle>false</activevideoangle>
                    <activeaudioangle>false</activeaudioangle>
                    <clip id="clip-6"/>
                  </angle>
                  <angle>
                    <activevideoangle>false</activevideoangle>
                    <activeaudioangle>false</activeaudioangle>
                    <clip id="clip-7"/>
                  </angle>
                  <masterclipid>clip-master</masterclipid>
                </multiclip>
              </clipitem>
              <clipitem id="cs-566">
                <duration>316</duration>
                <rate>
                  <ntsc>false</ntsc>
                  <timebase>25</timebase>
                </rate>
                <in>66983</in>
                <out>67298</out>
                <start>66983</start>
                <end>67298</end>
                <file id="src-3"/>
                <sourcetrack>
                  <mediatype>video</mediatype>
                  <trackindex>1</trackindex>
                </sourcetrack>
                <multiclip id="mcs-566">
                  <name>MCS-566</name>
                  <masterclipid>clip-master</masterclipid>
                  <collapsed>false</collapsed>
                  <angle>
                    <activevideoangle>false</activevideoangle>
                    <activeaudioangle>false</activeaudioangle>
                    <clip id="clip-1"/>
                  </angle>
                  <angle>
                    <activevideoangle>false</activevideoangle>
                    <activeaudioangle>false</activeaudioangle>
                    <clip id="clip-2"/>
                  </angle>
                  <angle>
                    <activevideoangle>true</activevideoangle>
                    <activeaudioangle>true</activeaudioangle>
                    <clip id="clip-3"/>
                  </angle>
                  <angle>
                    <activevideoangle>false</activevideoangle>
                    <activeaudioangle>false</activeaudioangle>
                    <clip id="clip-4"/>
                  </angle>
                  <angle>
                    <activevideoangle>false</activevideoangle>
                    <activeaudioangle>false</activeaudioangle>
                    <clip id="clip-5"/>
                  </angle>
                  <angle>
                    <activevideoangle>false</activevideoangle>
                    <activeaudioangle>false</activeaudioangle>
                    <clip id="clip-6"/>
                  </angle>
                  <angle>
                    <activevideoangle>false</activevideoangle>
                    <activeaudioangle>false</activeaudioangle>
                    <clip id="clip-7"/>
                  </angle>
                  <masterclipid>clip-master</masterclipid>
                </multiclip>
              </clipitem>
              <clipitem id="cs-567">
                <duration>595</duration>
                <rate>
                  <ntsc>false</ntsc>
                  <timebase>25</timebase>
                </rate>
                <in>67298</in>
                <out>67892</out>
                <start>67298</start>
                <end>67892</end>
                <file id="src-2"/>
                <sourcetrack>
                  <mediatype>video</mediatype>
                  <trackindex>1</trackindex>
                </sourcetrack>
                <multiclip id="mcs-567">
                  <name>MCS-567</name>
                  <masterclipid>clip-master</masterclipid>
                  <collapsed>false</collapsed>
                  <angle>
                    <activevideoangle>false</activevideoangle>
                    <activeaudioangle>false</activeaudioangle>
                    <clip id="clip-1"/>
                  </angle>
                  <angle>
                    <activevideoangle>true</activevideoangle>
                    <activeaudioangle>true</activeaudioangle>
                    <clip id="clip-2"/>
                  </angle>
                  <angle>
                    <activevideoangle>false</activevideoangle>
                    <activeaudioangle>false</activeaudioangle>
                    <clip id="clip-3"/>
                  </angle>
                  <angle>
                    <activevideoangle>false</activevideoangle>
                    <activeaudioangle>false</activeaudioangle>
                    <clip id="clip-4"/>
                  </angle>
                  <angle>
                    <activevideoangle>false</activevideoangle>
                    <activeaudioangle>false</activeaudioangle>
                    <clip id="clip-5"/>
                  </angle>
                  <angle>
                    <activevideoangle>false</activevideoangle>
                    <activeaudioangle>false</activeaudioangle>
                    <clip id="clip-6"/>
                  </angle>
                  <angle>
                    <activevideoangle>false</activevideoangle>
                    <activeaudioangle>false</activeaudioangle>
                    <clip id="clip-7"/>
                  </angle>
                  <masterclipid>clip-master</masterclipid>
                </multiclip>
              </clipitem>
              <clipitem id="cs-568">
                <duration>93</duration>
                <rate>
                  <ntsc>false</ntsc>
                  <timebase>25</timebase>
                </rate>
                <in>67892</in>
                <out>67984</out>
                <start>67892</start>
                <end>67984</end>
                <file id="src-6"/>
                <sourcetrack>
                  <mediatype>video</mediatype>
                  <trackindex>1</trackindex>
                </sourcetrack>
                <multiclip id="mcs-568">
                  <name>MCS-568</name>
                  <masterclipid>clip-master</masterclipid>
                  <collapsed>false</collapsed>
                  <angle>
                    <activevideoangle>false</activevideoangle>
                    <activeaudioangle>false</activeaudioangle>
                    <clip id="clip-1"/>
                  </angle>
                  <angle>
                    <activevideoangle>false</activevideoangle>
                    <activeaudioangle>false</activeaudioangle>
                    <clip id="clip-2"/>
                  </angle>
                  <angle>
                    <activevideoangle>false</activevideoangle>
                    <activeaudioangle>false</activeaudioangle>
                    <clip id="clip-3"/>
                  </angle>
                  <angle>
                    <activevideoangle>false</activevideoangle>
                    <activeaudioangle>false</activeaudioangle>
                    <clip id="clip-4"/>
                  </angle>
                  <angle>
                    <activevideoangle>false</activevideoangle>
                    <activeaudioangle>false</activeaudioangle>
                    <clip id="clip-5"/>
                  </angle>
                  <angle>
                    <activevideoangle>true</activevideoangle>
                    <activeaudioangle>true</activeaudioangle>
                    <clip id="clip-6"/>
                  </angle>
                  <angle>
                    <activevideoangle>false</activevideoangle>
                    <activeaudioangle>false</activeaudioangle>
                    <clip id="clip-7"/>
                  </angle>
                  <masterclipid>clip-master</masterclipid>
                </multiclip>
              </clipitem>
              <clipitem id="cs-569">
                <duration>244</duration>
                <rate>
                  <ntsc>false</ntsc>
                  <timebase>25</timebase>
                </rate>
                <in>67984</in>
                <out>68227</out>
                <start>67984</start>
                <end>68227</end>
                <file id="src-3"/>
                <sourcetrack>
                  <mediatype>video</mediatype>
                  <trackindex>1</trackindex>
                </sourcetrack>
                <multiclip id="mcs-569">
                  <name>MCS-569</name>
                  <masterclipid>clip-master</masterclipid>
                  <collapsed>false</collapsed>
                  <angle>
                    <activevideoangle>false</activevideoangle>
                    <activeaudioangle>false</activeaudioangle>
                    <clip id="clip-1"/>
                  </angle>
                  <angle>
                    <activevideoangle>false</activevideoangle>
                    <activeaudioangle>false</activeaudioangle>
                    <clip id="clip-2"/>
                  </angle>
                  <angle>
                    <activevideoangle>true</activevideoangle>
                    <activeaudioangle>true</activeaudioangle>
                    <clip id="clip-3"/>
                  </angle>
                  <angle>
                    <activevideoangle>false</activevideoangle>
                    <activeaudioangle>false</activeaudioangle>
                    <clip id="clip-4"/>
                  </angle>
                  <angle>
                    <activevideoangle>false</activevideoangle>
                    <activeaudioangle>false</activeaudioangle>
                    <clip id="clip-5"/>
                  </angle>
                  <angle>
                    <activevideoangle>false</activevideoangle>
                    <activeaudioangle>false</activeaudioangle>
                    <clip id="clip-6"/>
                  </angle>
                  <angle>
                    <activevideoangle>false</activevideoangle>
                    <activeaudioangle>false</activeaudioangle>
                    <clip id="clip-7"/>
                  </angle>
                  <masterclipid>clip-master</masterclipid>
                </multiclip>
              </clipitem>
              <clipitem id="cs-570">
                <duration>129</duration>
                <rate>
                  <ntsc>false</ntsc>
                  <timebase>25</timebase>
                </rate>
                <in>68227</in>
                <out>68355</out>
                <start>68227</start>
                <end>68355</end>
                <file id="src-4"/>
                <sourcetrack>
                  <mediatype>video</mediatype>
                  <trackindex>1</trackindex>
                </sourcetrack>
                <multiclip id="mcs-570">
                  <name>MCS-570</name>
                  <masterclipid>clip-master</masterclipid>
                  <collapsed>false</collapsed>
                  <angle>
                    <activevideoangle>false</activevideoangle>
                    <activeaudioangle>false</activeaudioangle>
                    <clip id="clip-1"/>
                  </angle>
                  <angle>
                    <activevideoangle>false</activevideoangle>
                    <activeaudioangle>false</activeaudioangle>
                    <clip id="clip-2"/>
                  </angle>
                  <angle>
                    <activevideoangle>false</activevideoangle>
                    <activeaudioangle>false</activeaudioangle>
                    <clip id="clip-3"/>
                  </angle>
                  <angle>
                    <activevideoangle>true</activevideoangle>
                    <activeaudioangle>true</activeaudioangle>
                    <clip id="clip-4"/>
                  </angle>
                  <angle>
                    <activevideoangle>false</activevideoangle>
                    <activeaudioangle>false</activeaudioangle>
                    <clip id="clip-5"/>
                  </angle>
                  <angle>
                    <activevideoangle>false</activevideoangle>
                    <activeaudioangle>false</activeaudioangle>
                    <clip id="clip-6"/>
                  </angle>
                  <angle>
                    <activevideoangle>false</activevideoangle>
                    <activeaudioangle>false</activeaudioangle>
                    <clip id="clip-7"/>
                  </angle>
                  <masterclipid>clip-master</masterclipid>
                </multiclip>
              </clipitem>
              <clipitem id="cs-571">
                <duration>120</duration>
                <rate>
                  <ntsc>false</ntsc>
                  <timebase>25</timebase>
                </rate>
                <in>68355</in>
                <out>68474</out>
                <start>68355</start>
                <end>68474</end>
                <file id="src-2"/>
                <sourcetrack>
                  <mediatype>video</mediatype>
                  <trackindex>1</trackindex>
                </sourcetrack>
                <multiclip id="mcs-571">
                  <name>MCS-571</name>
                  <masterclipid>clip-master</masterclipid>
                  <collapsed>false</collapsed>
                  <angle>
                    <activevideoangle>false</activevideoangle>
                    <activeaudioangle>false</activeaudioangle>
                    <clip id="clip-1"/>
                  </angle>
                  <angle>
                    <activevideoangle>true</activevideoangle>
                    <activeaudioangle>true</activeaudioangle>
                    <clip id="clip-2"/>
                  </angle>
                  <angle>
                    <activevideoangle>false</activevideoangle>
                    <activeaudioangle>false</activeaudioangle>
                    <clip id="clip-3"/>
                  </angle>
                  <angle>
                    <activevideoangle>false</activevideoangle>
                    <activeaudioangle>false</activeaudioangle>
                    <clip id="clip-4"/>
                  </angle>
                  <angle>
                    <activevideoangle>false</activevideoangle>
                    <activeaudioangle>false</activeaudioangle>
                    <clip id="clip-5"/>
                  </angle>
                  <angle>
                    <activevideoangle>false</activevideoangle>
                    <activeaudioangle>false</activeaudioangle>
                    <clip id="clip-6"/>
                  </angle>
                  <angle>
                    <activevideoangle>false</activevideoangle>
                    <activeaudioangle>false</activeaudioangle>
                    <clip id="clip-7"/>
                  </angle>
                  <masterclipid>clip-master</masterclipid>
                </multiclip>
              </clipitem>
              <clipitem id="cs-572">
                <duration>200</duration>
                <rate>
                  <ntsc>false</ntsc>
                  <timebase>25</timebase>
                </rate>
                <in>68474</in>
                <out>68673</out>
                <start>68474</start>
                <end>68673</end>
                <file id="src-3"/>
                <sourcetrack>
                  <mediatype>video</mediatype>
                  <trackindex>1</trackindex>
                </sourcetrack>
                <multiclip id="mcs-572">
                  <name>MCS-572</name>
                  <masterclipid>clip-master</masterclipid>
                  <collapsed>false</collapsed>
                  <angle>
                    <activevideoangle>false</activevideoangle>
                    <activeaudioangle>false</activeaudioangle>
                    <clip id="clip-1"/>
                  </angle>
                  <angle>
                    <activevideoangle>false</activevideoangle>
                    <activeaudioangle>false</activeaudioangle>
                    <clip id="clip-2"/>
                  </angle>
                  <angle>
                    <activevideoangle>true</activevideoangle>
                    <activeaudioangle>true</activeaudioangle>
                    <clip id="clip-3"/>
                  </angle>
                  <angle>
                    <activevideoangle>false</activevideoangle>
                    <activeaudioangle>false</activeaudioangle>
                    <clip id="clip-4"/>
                  </angle>
                  <angle>
                    <activevideoangle>false</activevideoangle>
                    <activeaudioangle>false</activeaudioangle>
                    <clip id="clip-5"/>
                  </angle>
                  <angle>
                    <activevideoangle>false</activevideoangle>
                    <activeaudioangle>false</activeaudioangle>
                    <clip id="clip-6"/>
                  </angle>
                  <angle>
                    <activevideoangle>false</activevideoangle>
                    <activeaudioangle>false</activeaudioangle>
                    <clip id="clip-7"/>
                  </angle>
                  <masterclipid>clip-master</masterclipid>
                </multiclip>
              </clipitem>
              <clipitem id="cs-573">
                <duration>329</duration>
                <rate>
                  <ntsc>false</ntsc>
                  <timebase>25</timebase>
                </rate>
                <in>68673</in>
                <out>69001</out>
                <start>68673</start>
                <end>69001</end>
                <file id="src-6"/>
                <sourcetrack>
                  <mediatype>video</mediatype>
                  <trackindex>1</trackindex>
                </sourcetrack>
                <multiclip id="mcs-573">
                  <name>MCS-573</name>
                  <masterclipid>clip-master</masterclipid>
                  <collapsed>false</collapsed>
                  <angle>
                    <activevideoangle>false</activevideoangle>
                    <activeaudioangle>false</activeaudioangle>
                    <clip id="clip-1"/>
                  </angle>
                  <angle>
                    <activevideoangle>false</activevideoangle>
                    <activeaudioangle>false</activeaudioangle>
                    <clip id="clip-2"/>
                  </angle>
                  <angle>
                    <activevideoangle>false</activevideoangle>
                    <activeaudioangle>false</activeaudioangle>
                    <clip id="clip-3"/>
                  </angle>
                  <angle>
                    <activevideoangle>false</activevideoangle>
                    <activeaudioangle>false</activeaudioangle>
                    <clip id="clip-4"/>
                  </angle>
                  <angle>
                    <activevideoangle>false</activevideoangle>
                    <activeaudioangle>false</activeaudioangle>
                    <clip id="clip-5"/>
                  </angle>
                  <angle>
                    <activevideoangle>true</activevideoangle>
                    <activeaudioangle>true</activeaudioangle>
                    <clip id="clip-6"/>
                  </angle>
                  <angle>
                    <activevideoangle>false</activevideoangle>
                    <activeaudioangle>false</activeaudioangle>
                    <clip id="clip-7"/>
                  </angle>
                  <masterclipid>clip-master</masterclipid>
                </multiclip>
              </clipitem>
              <clipitem id="cs-574">
                <duration>187</duration>
                <rate>
                  <ntsc>false</ntsc>
                  <timebase>25</timebase>
                </rate>
                <in>69001</in>
                <out>69187</out>
                <start>69001</start>
                <end>69187</end>
                <file id="src-3"/>
                <sourcetrack>
                  <mediatype>video</mediatype>
                  <trackindex>1</trackindex>
                </sourcetrack>
                <multiclip id="mcs-574">
                  <name>MCS-574</name>
                  <masterclipid>clip-master</masterclipid>
                  <collapsed>false</collapsed>
                  <angle>
                    <activevideoangle>false</activevideoangle>
                    <activeaudioangle>false</activeaudioangle>
                    <clip id="clip-1"/>
                  </angle>
                  <angle>
                    <activevideoangle>false</activevideoangle>
                    <activeaudioangle>false</activeaudioangle>
                    <clip id="clip-2"/>
                  </angle>
                  <angle>
                    <activevideoangle>true</activevideoangle>
                    <activeaudioangle>true</activeaudioangle>
                    <clip id="clip-3"/>
                  </angle>
                  <angle>
                    <activevideoangle>false</activevideoangle>
                    <activeaudioangle>false</activeaudioangle>
                    <clip id="clip-4"/>
                  </angle>
                  <angle>
                    <activevideoangle>false</activevideoangle>
                    <activeaudioangle>false</activeaudioangle>
                    <clip id="clip-5"/>
                  </angle>
                  <angle>
                    <activevideoangle>false</activevideoangle>
                    <activeaudioangle>false</activeaudioangle>
                    <clip id="clip-6"/>
                  </angle>
                  <angle>
                    <activevideoangle>false</activevideoangle>
                    <activeaudioangle>false</activeaudioangle>
                    <clip id="clip-7"/>
                  </angle>
                  <masterclipid>clip-master</masterclipid>
                </multiclip>
              </clipitem>
              <clipitem id="cs-575">
                <duration>120</duration>
                <rate>
                  <ntsc>false</ntsc>
                  <timebase>25</timebase>
                </rate>
                <in>69187</in>
                <out>69306</out>
                <start>69187</start>
                <end>69306</end>
                <file id="src-4"/>
                <sourcetrack>
                  <mediatype>video</mediatype>
                  <trackindex>1</trackindex>
                </sourcetrack>
                <multiclip id="mcs-575">
                  <name>MCS-575</name>
                  <masterclipid>clip-master</masterclipid>
                  <collapsed>false</collapsed>
                  <angle>
                    <activevideoangle>false</activevideoangle>
                    <activeaudioangle>false</activeaudioangle>
                    <clip id="clip-1"/>
                  </angle>
                  <angle>
                    <activevideoangle>false</activevideoangle>
                    <activeaudioangle>false</activeaudioangle>
                    <clip id="clip-2"/>
                  </angle>
                  <angle>
                    <activevideoangle>false</activevideoangle>
                    <activeaudioangle>false</activeaudioangle>
                    <clip id="clip-3"/>
                  </angle>
                  <angle>
                    <activevideoangle>true</activevideoangle>
                    <activeaudioangle>true</activeaudioangle>
                    <clip id="clip-4"/>
                  </angle>
                  <angle>
                    <activevideoangle>false</activevideoangle>
                    <activeaudioangle>false</activeaudioangle>
                    <clip id="clip-5"/>
                  </angle>
                  <angle>
                    <activevideoangle>false</activevideoangle>
                    <activeaudioangle>false</activeaudioangle>
                    <clip id="clip-6"/>
                  </angle>
                  <angle>
                    <activevideoangle>false</activevideoangle>
                    <activeaudioangle>false</activeaudioangle>
                    <clip id="clip-7"/>
                  </angle>
                  <masterclipid>clip-master</masterclipid>
                </multiclip>
              </clipitem>
              <clipitem id="cs-576">
                <duration>67</duration>
                <rate>
                  <ntsc>false</ntsc>
                  <timebase>25</timebase>
                </rate>
                <in>69306</in>
                <out>69372</out>
                <start>69306</start>
                <end>69372</end>
                <file id="src-3"/>
                <sourcetrack>
                  <mediatype>video</mediatype>
                  <trackindex>1</trackindex>
                </sourcetrack>
                <multiclip id="mcs-576">
                  <name>MCS-576</name>
                  <masterclipid>clip-master</masterclipid>
                  <collapsed>false</collapsed>
                  <angle>
                    <activevideoangle>false</activevideoangle>
                    <activeaudioangle>false</activeaudioangle>
                    <clip id="clip-1"/>
                  </angle>
                  <angle>
                    <activevideoangle>false</activevideoangle>
                    <activeaudioangle>false</activeaudioangle>
                    <clip id="clip-2"/>
                  </angle>
                  <angle>
                    <activevideoangle>true</activevideoangle>
                    <activeaudioangle>true</activeaudioangle>
                    <clip id="clip-3"/>
                  </angle>
                  <angle>
                    <activevideoangle>false</activevideoangle>
                    <activeaudioangle>false</activeaudioangle>
                    <clip id="clip-4"/>
                  </angle>
                  <angle>
                    <activevideoangle>false</activevideoangle>
                    <activeaudioangle>false</activeaudioangle>
                    <clip id="clip-5"/>
                  </angle>
                  <angle>
                    <activevideoangle>false</activevideoangle>
                    <activeaudioangle>false</activeaudioangle>
                    <clip id="clip-6"/>
                  </angle>
                  <angle>
                    <activevideoangle>false</activevideoangle>
                    <activeaudioangle>false</activeaudioangle>
                    <clip id="clip-7"/>
                  </angle>
                  <masterclipid>clip-master</masterclipid>
                </multiclip>
              </clipitem>
              <clipitem id="cs-577">
                <duration>79</duration>
                <rate>
                  <ntsc>false</ntsc>
                  <timebase>25</timebase>
                </rate>
                <in>69372</in>
                <out>69450</out>
                <start>69372</start>
                <end>69450</end>
                <file id="src-2"/>
                <sourcetrack>
                  <mediatype>video</mediatype>
                  <trackindex>1</trackindex>
                </sourcetrack>
                <multiclip id="mcs-577">
                  <name>MCS-577</name>
                  <masterclipid>clip-master</masterclipid>
                  <collapsed>false</collapsed>
                  <angle>
                    <activevideoangle>false</activevideoangle>
                    <activeaudioangle>false</activeaudioangle>
                    <clip id="clip-1"/>
                  </angle>
                  <angle>
                    <activevideoangle>true</activevideoangle>
                    <activeaudioangle>true</activeaudioangle>
                    <clip id="clip-2"/>
                  </angle>
                  <angle>
                    <activevideoangle>false</activevideoangle>
                    <activeaudioangle>false</activeaudioangle>
                    <clip id="clip-3"/>
                  </angle>
                  <angle>
                    <activevideoangle>false</activevideoangle>
                    <activeaudioangle>false</activeaudioangle>
                    <clip id="clip-4"/>
                  </angle>
                  <angle>
                    <activevideoangle>false</activevideoangle>
                    <activeaudioangle>false</activeaudioangle>
                    <clip id="clip-5"/>
                  </angle>
                  <angle>
                    <activevideoangle>false</activevideoangle>
                    <activeaudioangle>false</activeaudioangle>
                    <clip id="clip-6"/>
                  </angle>
                  <angle>
                    <activevideoangle>false</activevideoangle>
                    <activeaudioangle>false</activeaudioangle>
                    <clip id="clip-7"/>
                  </angle>
                  <masterclipid>clip-master</masterclipid>
                </multiclip>
              </clipitem>
              <clipitem id="cs-578">
                <duration>473</duration>
                <rate>
                  <ntsc>false</ntsc>
                  <timebase>25</timebase>
                </rate>
                <in>69450</in>
                <out>69922</out>
                <start>69450</start>
                <end>69922</end>
                <file id="src-3"/>
                <sourcetrack>
                  <mediatype>video</mediatype>
                  <trackindex>1</trackindex>
                </sourcetrack>
                <multiclip id="mcs-578">
                  <name>MCS-578</name>
                  <masterclipid>clip-master</masterclipid>
                  <collapsed>false</collapsed>
                  <angle>
                    <activevideoangle>false</activevideoangle>
                    <activeaudioangle>false</activeaudioangle>
                    <clip id="clip-1"/>
                  </angle>
                  <angle>
                    <activevideoangle>false</activevideoangle>
                    <activeaudioangle>false</activeaudioangle>
                    <clip id="clip-2"/>
                  </angle>
                  <angle>
                    <activevideoangle>true</activevideoangle>
                    <activeaudioangle>true</activeaudioangle>
                    <clip id="clip-3"/>
                  </angle>
                  <angle>
                    <activevideoangle>false</activevideoangle>
                    <activeaudioangle>false</activeaudioangle>
                    <clip id="clip-4"/>
                  </angle>
                  <angle>
                    <activevideoangle>false</activevideoangle>
                    <activeaudioangle>false</activeaudioangle>
                    <clip id="clip-5"/>
                  </angle>
                  <angle>
                    <activevideoangle>false</activevideoangle>
                    <activeaudioangle>false</activeaudioangle>
                    <clip id="clip-6"/>
                  </angle>
                  <angle>
                    <activevideoangle>false</activevideoangle>
                    <activeaudioangle>false</activeaudioangle>
                    <clip id="clip-7"/>
                  </angle>
                  <masterclipid>clip-master</masterclipid>
                </multiclip>
              </clipitem>
              <clipitem id="cs-579">
                <duration>93</duration>
                <rate>
                  <ntsc>false</ntsc>
                  <timebase>25</timebase>
                </rate>
                <in>69922</in>
                <out>70014</out>
                <start>69922</start>
                <end>70014</end>
                <file id="src-6"/>
                <sourcetrack>
                  <mediatype>video</mediatype>
                  <trackindex>1</trackindex>
                </sourcetrack>
                <multiclip id="mcs-579">
                  <name>MCS-579</name>
                  <masterclipid>clip-master</masterclipid>
                  <collapsed>false</collapsed>
                  <angle>
                    <activevideoangle>false</activevideoangle>
                    <activeaudioangle>false</activeaudioangle>
                    <clip id="clip-1"/>
                  </angle>
                  <angle>
                    <activevideoangle>false</activevideoangle>
                    <activeaudioangle>false</activeaudioangle>
                    <clip id="clip-2"/>
                  </angle>
                  <angle>
                    <activevideoangle>false</activevideoangle>
                    <activeaudioangle>false</activeaudioangle>
                    <clip id="clip-3"/>
                  </angle>
                  <angle>
                    <activevideoangle>false</activevideoangle>
                    <activeaudioangle>false</activeaudioangle>
                    <clip id="clip-4"/>
                  </angle>
                  <angle>
                    <activevideoangle>false</activevideoangle>
                    <activeaudioangle>false</activeaudioangle>
                    <clip id="clip-5"/>
                  </angle>
                  <angle>
                    <activevideoangle>true</activevideoangle>
                    <activeaudioangle>true</activeaudioangle>
                    <clip id="clip-6"/>
                  </angle>
                  <angle>
                    <activevideoangle>false</activevideoangle>
                    <activeaudioangle>false</activeaudioangle>
                    <clip id="clip-7"/>
                  </angle>
                  <masterclipid>clip-master</masterclipid>
                </multiclip>
              </clipitem>
              <clipitem id="cs-580">
                <duration>262</duration>
                <rate>
                  <ntsc>false</ntsc>
                  <timebase>25</timebase>
                </rate>
                <in>70014</in>
                <out>70275</out>
                <start>70014</start>
                <end>70275</end>
                <file id="src-3"/>
                <sourcetrack>
                  <mediatype>video</mediatype>
                  <trackindex>1</trackindex>
                </sourcetrack>
                <multiclip id="mcs-580">
                  <name>MCS-580</name>
                  <masterclipid>clip-master</masterclipid>
                  <collapsed>false</collapsed>
                  <angle>
                    <activevideoangle>false</activevideoangle>
                    <activeaudioangle>false</activeaudioangle>
                    <clip id="clip-1"/>
                  </angle>
                  <angle>
                    <activevideoangle>false</activevideoangle>
                    <activeaudioangle>false</activeaudioangle>
                    <clip id="clip-2"/>
                  </angle>
                  <angle>
                    <activevideoangle>true</activevideoangle>
                    <activeaudioangle>true</activeaudioangle>
                    <clip id="clip-3"/>
                  </angle>
                  <angle>
                    <activevideoangle>false</activevideoangle>
                    <activeaudioangle>false</activeaudioangle>
                    <clip id="clip-4"/>
                  </angle>
                  <angle>
                    <activevideoangle>false</activevideoangle>
                    <activeaudioangle>false</activeaudioangle>
                    <clip id="clip-5"/>
                  </angle>
                  <angle>
                    <activevideoangle>false</activevideoangle>
                    <activeaudioangle>false</activeaudioangle>
                    <clip id="clip-6"/>
                  </angle>
                  <angle>
                    <activevideoangle>false</activevideoangle>
                    <activeaudioangle>false</activeaudioangle>
                    <clip id="clip-7"/>
                  </angle>
                  <masterclipid>clip-master</masterclipid>
                </multiclip>
              </clipitem>
              <clipitem id="cs-581">
                <duration>145</duration>
                <rate>
                  <ntsc>false</ntsc>
                  <timebase>25</timebase>
                </rate>
                <in>70275</in>
                <out>70419</out>
                <start>70275</start>
                <end>70419</end>
                <file id="src-2"/>
                <sourcetrack>
                  <mediatype>video</mediatype>
                  <trackindex>1</trackindex>
                </sourcetrack>
                <multiclip id="mcs-581">
                  <name>MCS-581</name>
                  <masterclipid>clip-master</masterclipid>
                  <collapsed>false</collapsed>
                  <angle>
                    <activevideoangle>false</activevideoangle>
                    <activeaudioangle>false</activeaudioangle>
                    <clip id="clip-1"/>
                  </angle>
                  <angle>
                    <activevideoangle>true</activevideoangle>
                    <activeaudioangle>true</activeaudioangle>
                    <clip id="clip-2"/>
                  </angle>
                  <angle>
                    <activevideoangle>false</activevideoangle>
                    <activeaudioangle>false</activeaudioangle>
                    <clip id="clip-3"/>
                  </angle>
                  <angle>
                    <activevideoangle>false</activevideoangle>
                    <activeaudioangle>false</activeaudioangle>
                    <clip id="clip-4"/>
                  </angle>
                  <angle>
                    <activevideoangle>false</activevideoangle>
                    <activeaudioangle>false</activeaudioangle>
                    <clip id="clip-5"/>
                  </angle>
                  <angle>
                    <activevideoangle>false</activevideoangle>
                    <activeaudioangle>false</activeaudioangle>
                    <clip id="clip-6"/>
                  </angle>
                  <angle>
                    <activevideoangle>false</activevideoangle>
                    <activeaudioangle>false</activeaudioangle>
                    <clip id="clip-7"/>
                  </angle>
                  <masterclipid>clip-master</masterclipid>
                </multiclip>
              </clipitem>
              <clipitem id="cs-582">
                <duration>355</duration>
                <rate>
                  <ntsc>false</ntsc>
                  <timebase>25</timebase>
                </rate>
                <in>70419</in>
                <out>70773</out>
                <start>70419</start>
                <end>70773</end>
                <file id="src-3"/>
                <sourcetrack>
                  <mediatype>video</mediatype>
                  <trackindex>1</trackindex>
                </sourcetrack>
                <multiclip id="mcs-582">
                  <name>MCS-582</name>
                  <masterclipid>clip-master</masterclipid>
                  <collapsed>false</collapsed>
                  <angle>
                    <activevideoangle>false</activevideoangle>
                    <activeaudioangle>false</activeaudioangle>
                    <clip id="clip-1"/>
                  </angle>
                  <angle>
                    <activevideoangle>false</activevideoangle>
                    <activeaudioangle>false</activeaudioangle>
                    <clip id="clip-2"/>
                  </angle>
                  <angle>
                    <activevideoangle>true</activevideoangle>
                    <activeaudioangle>true</activeaudioangle>
                    <clip id="clip-3"/>
                  </angle>
                  <angle>
                    <activevideoangle>false</activevideoangle>
                    <activeaudioangle>false</activeaudioangle>
                    <clip id="clip-4"/>
                  </angle>
                  <angle>
                    <activevideoangle>false</activevideoangle>
                    <activeaudioangle>false</activeaudioangle>
                    <clip id="clip-5"/>
                  </angle>
                  <angle>
                    <activevideoangle>false</activevideoangle>
                    <activeaudioangle>false</activeaudioangle>
                    <clip id="clip-6"/>
                  </angle>
                  <angle>
                    <activevideoangle>false</activevideoangle>
                    <activeaudioangle>false</activeaudioangle>
                    <clip id="clip-7"/>
                  </angle>
                  <masterclipid>clip-master</masterclipid>
                </multiclip>
              </clipitem>
              <clipitem id="cs-583">
                <duration>155</duration>
                <rate>
                  <ntsc>false</ntsc>
                  <timebase>25</timebase>
                </rate>
                <in>70773</in>
                <out>70927</out>
                <start>70773</start>
                <end>70927</end>
                <file id="src-2"/>
                <sourcetrack>
                  <mediatype>video</mediatype>
                  <trackindex>1</trackindex>
                </sourcetrack>
                <multiclip id="mcs-583">
                  <name>MCS-583</name>
                  <masterclipid>clip-master</masterclipid>
                  <collapsed>false</collapsed>
                  <angle>
                    <activevideoangle>false</activevideoangle>
                    <activeaudioangle>false</activeaudioangle>
                    <clip id="clip-1"/>
                  </angle>
                  <angle>
                    <activevideoangle>true</activevideoangle>
                    <activeaudioangle>true</activeaudioangle>
                    <clip id="clip-2"/>
                  </angle>
                  <angle>
                    <activevideoangle>false</activevideoangle>
                    <activeaudioangle>false</activeaudioangle>
                    <clip id="clip-3"/>
                  </angle>
                  <angle>
                    <activevideoangle>false</activevideoangle>
                    <activeaudioangle>false</activeaudioangle>
                    <clip id="clip-4"/>
                  </angle>
                  <angle>
                    <activevideoangle>false</activevideoangle>
                    <activeaudioangle>false</activeaudioangle>
                    <clip id="clip-5"/>
                  </angle>
                  <angle>
                    <activevideoangle>false</activevideoangle>
                    <activeaudioangle>false</activeaudioangle>
                    <clip id="clip-6"/>
                  </angle>
                  <angle>
                    <activevideoangle>false</activevideoangle>
                    <activeaudioangle>false</activeaudioangle>
                    <clip id="clip-7"/>
                  </angle>
                  <masterclipid>clip-master</masterclipid>
                </multiclip>
              </clipitem>
              <clipitem id="cs-584">
                <duration>167</duration>
                <rate>
                  <ntsc>false</ntsc>
                  <timebase>25</timebase>
                </rate>
                <in>70927</in>
                <out>71093</out>
                <start>70927</start>
                <end>71093</end>
                <file id="src-3"/>
                <sourcetrack>
                  <mediatype>video</mediatype>
                  <trackindex>1</trackindex>
                </sourcetrack>
                <multiclip id="mcs-584">
                  <name>MCS-584</name>
                  <masterclipid>clip-master</masterclipid>
                  <collapsed>false</collapsed>
                  <angle>
                    <activevideoangle>false</activevideoangle>
                    <activeaudioangle>false</activeaudioangle>
                    <clip id="clip-1"/>
                  </angle>
                  <angle>
                    <activevideoangle>false</activevideoangle>
                    <activeaudioangle>false</activeaudioangle>
                    <clip id="clip-2"/>
                  </angle>
                  <angle>
                    <activevideoangle>true</activevideoangle>
                    <activeaudioangle>true</activeaudioangle>
                    <clip id="clip-3"/>
                  </angle>
                  <angle>
                    <activevideoangle>false</activevideoangle>
                    <activeaudioangle>false</activeaudioangle>
                    <clip id="clip-4"/>
                  </angle>
                  <angle>
                    <activevideoangle>false</activevideoangle>
                    <activeaudioangle>false</activeaudioangle>
                    <clip id="clip-5"/>
                  </angle>
                  <angle>
                    <activevideoangle>false</activevideoangle>
                    <activeaudioangle>false</activeaudioangle>
                    <clip id="clip-6"/>
                  </angle>
                  <angle>
                    <activevideoangle>false</activevideoangle>
                    <activeaudioangle>false</activeaudioangle>
                    <clip id="clip-7"/>
                  </angle>
                  <masterclipid>clip-master</masterclipid>
                </multiclip>
              </clipitem>
              <clipitem id="cs-585">
                <duration>59</duration>
                <rate>
                  <ntsc>false</ntsc>
                  <timebase>25</timebase>
                </rate>
                <in>71093</in>
                <out>71151</out>
                <start>71093</start>
                <end>71151</end>
                <file id="src-6"/>
                <sourcetrack>
                  <mediatype>video</mediatype>
                  <trackindex>1</trackindex>
                </sourcetrack>
                <multiclip id="mcs-585">
                  <name>MCS-585</name>
                  <masterclipid>clip-master</masterclipid>
                  <collapsed>false</collapsed>
                  <angle>
                    <activevideoangle>false</activevideoangle>
                    <activeaudioangle>false</activeaudioangle>
                    <clip id="clip-1"/>
                  </angle>
                  <angle>
                    <activevideoangle>false</activevideoangle>
                    <activeaudioangle>false</activeaudioangle>
                    <clip id="clip-2"/>
                  </angle>
                  <angle>
                    <activevideoangle>false</activevideoangle>
                    <activeaudioangle>false</activeaudioangle>
                    <clip id="clip-3"/>
                  </angle>
                  <angle>
                    <activevideoangle>false</activevideoangle>
                    <activeaudioangle>false</activeaudioangle>
                    <clip id="clip-4"/>
                  </angle>
                  <angle>
                    <activevideoangle>false</activevideoangle>
                    <activeaudioangle>false</activeaudioangle>
                    <clip id="clip-5"/>
                  </angle>
                  <angle>
                    <activevideoangle>true</activevideoangle>
                    <activeaudioangle>true</activeaudioangle>
                    <clip id="clip-6"/>
                  </angle>
                  <angle>
                    <activevideoangle>false</activevideoangle>
                    <activeaudioangle>false</activeaudioangle>
                    <clip id="clip-7"/>
                  </angle>
                  <masterclipid>clip-master</masterclipid>
                </multiclip>
              </clipitem>
              <clipitem id="cs-586">
                <duration>216</duration>
                <rate>
                  <ntsc>false</ntsc>
                  <timebase>25</timebase>
                </rate>
                <in>71151</in>
                <out>71366</out>
                <start>71151</start>
                <end>71366</end>
                <file id="src-2"/>
                <sourcetrack>
                  <mediatype>video</mediatype>
                  <trackindex>1</trackindex>
                </sourcetrack>
                <multiclip id="mcs-586">
                  <name>MCS-586</name>
                  <masterclipid>clip-master</masterclipid>
                  <collapsed>false</collapsed>
                  <angle>
                    <activevideoangle>false</activevideoangle>
                    <activeaudioangle>false</activeaudioangle>
                    <clip id="clip-1"/>
                  </angle>
                  <angle>
                    <activevideoangle>true</activevideoangle>
                    <activeaudioangle>true</activeaudioangle>
                    <clip id="clip-2"/>
                  </angle>
                  <angle>
                    <activevideoangle>false</activevideoangle>
                    <activeaudioangle>false</activeaudioangle>
                    <clip id="clip-3"/>
                  </angle>
                  <angle>
                    <activevideoangle>false</activevideoangle>
                    <activeaudioangle>false</activeaudioangle>
                    <clip id="clip-4"/>
                  </angle>
                  <angle>
                    <activevideoangle>false</activevideoangle>
                    <activeaudioangle>false</activeaudioangle>
                    <clip id="clip-5"/>
                  </angle>
                  <angle>
                    <activevideoangle>false</activevideoangle>
                    <activeaudioangle>false</activeaudioangle>
                    <clip id="clip-6"/>
                  </angle>
                  <angle>
                    <activevideoangle>false</activevideoangle>
                    <activeaudioangle>false</activeaudioangle>
                    <clip id="clip-7"/>
                  </angle>
                  <masterclipid>clip-master</masterclipid>
                </multiclip>
              </clipitem>
              <clipitem id="cs-587">
                <duration>189</duration>
                <rate>
                  <ntsc>false</ntsc>
                  <timebase>25</timebase>
                </rate>
                <in>71366</in>
                <out>71554</out>
                <start>71366</start>
                <end>71554</end>
                <file id="src-3"/>
                <sourcetrack>
                  <mediatype>video</mediatype>
                  <trackindex>1</trackindex>
                </sourcetrack>
                <multiclip id="mcs-587">
                  <name>MCS-587</name>
                  <masterclipid>clip-master</masterclipid>
                  <collapsed>false</collapsed>
                  <angle>
                    <activevideoangle>false</activevideoangle>
                    <activeaudioangle>false</activeaudioangle>
                    <clip id="clip-1"/>
                  </angle>
                  <angle>
                    <activevideoangle>false</activevideoangle>
                    <activeaudioangle>false</activeaudioangle>
                    <clip id="clip-2"/>
                  </angle>
                  <angle>
                    <activevideoangle>true</activevideoangle>
                    <activeaudioangle>true</activeaudioangle>
                    <clip id="clip-3"/>
                  </angle>
                  <angle>
                    <activevideoangle>false</activevideoangle>
                    <activeaudioangle>false</activeaudioangle>
                    <clip id="clip-4"/>
                  </angle>
                  <angle>
                    <activevideoangle>false</activevideoangle>
                    <activeaudioangle>false</activeaudioangle>
                    <clip id="clip-5"/>
                  </angle>
                  <angle>
                    <activevideoangle>false</activevideoangle>
                    <activeaudioangle>false</activeaudioangle>
                    <clip id="clip-6"/>
                  </angle>
                  <angle>
                    <activevideoangle>false</activevideoangle>
                    <activeaudioangle>false</activeaudioangle>
                    <clip id="clip-7"/>
                  </angle>
                  <masterclipid>clip-master</masterclipid>
                </multiclip>
              </clipitem>
              <clipitem id="cs-588">
                <duration>110</duration>
                <rate>
                  <ntsc>false</ntsc>
                  <timebase>25</timebase>
                </rate>
                <in>71554</in>
                <out>71663</out>
                <start>71554</start>
                <end>71663</end>
                <file id="src-4"/>
                <sourcetrack>
                  <mediatype>video</mediatype>
                  <trackindex>1</trackindex>
                </sourcetrack>
                <multiclip id="mcs-588">
                  <name>MCS-588</name>
                  <masterclipid>clip-master</masterclipid>
                  <collapsed>false</collapsed>
                  <angle>
                    <activevideoangle>false</activevideoangle>
                    <activeaudioangle>false</activeaudioangle>
                    <clip id="clip-1"/>
                  </angle>
                  <angle>
                    <activevideoangle>false</activevideoangle>
                    <activeaudioangle>false</activeaudioangle>
                    <clip id="clip-2"/>
                  </angle>
                  <angle>
                    <activevideoangle>false</activevideoangle>
                    <activeaudioangle>false</activeaudioangle>
                    <clip id="clip-3"/>
                  </angle>
                  <angle>
                    <activevideoangle>true</activevideoangle>
                    <activeaudioangle>true</activeaudioangle>
                    <clip id="clip-4"/>
                  </angle>
                  <angle>
                    <activevideoangle>false</activevideoangle>
                    <activeaudioangle>false</activeaudioangle>
                    <clip id="clip-5"/>
                  </angle>
                  <angle>
                    <activevideoangle>false</activevideoangle>
                    <activeaudioangle>false</activeaudioangle>
                    <clip id="clip-6"/>
                  </angle>
                  <angle>
                    <activevideoangle>false</activevideoangle>
                    <activeaudioangle>false</activeaudioangle>
                    <clip id="clip-7"/>
                  </angle>
                  <masterclipid>clip-master</masterclipid>
                </multiclip>
              </clipitem>
              <clipitem id="cs-589">
                <duration>112</duration>
                <rate>
                  <ntsc>false</ntsc>
                  <timebase>25</timebase>
                </rate>
                <in>71663</in>
                <out>71774</out>
                <start>71663</start>
                <end>71774</end>
                <file id="src-3"/>
                <sourcetrack>
                  <mediatype>video</mediatype>
                  <trackindex>1</trackindex>
                </sourcetrack>
                <multiclip id="mcs-589">
                  <name>MCS-589</name>
                  <masterclipid>clip-master</masterclipid>
                  <collapsed>false</collapsed>
                  <angle>
                    <activevideoangle>false</activevideoangle>
                    <activeaudioangle>false</activeaudioangle>
                    <clip id="clip-1"/>
                  </angle>
                  <angle>
                    <activevideoangle>false</activevideoangle>
                    <activeaudioangle>false</activeaudioangle>
                    <clip id="clip-2"/>
                  </angle>
                  <angle>
                    <activevideoangle>true</activevideoangle>
                    <activeaudioangle>true</activeaudioangle>
                    <clip id="clip-3"/>
                  </angle>
                  <angle>
                    <activevideoangle>false</activevideoangle>
                    <activeaudioangle>false</activeaudioangle>
                    <clip id="clip-4"/>
                  </angle>
                  <angle>
                    <activevideoangle>false</activevideoangle>
                    <activeaudioangle>false</activeaudioangle>
                    <clip id="clip-5"/>
                  </angle>
                  <angle>
                    <activevideoangle>false</activevideoangle>
                    <activeaudioangle>false</activeaudioangle>
                    <clip id="clip-6"/>
                  </angle>
                  <angle>
                    <activevideoangle>false</activevideoangle>
                    <activeaudioangle>false</activeaudioangle>
                    <clip id="clip-7"/>
                  </angle>
                  <masterclipid>clip-master</masterclipid>
                </multiclip>
              </clipitem>
              <clipitem id="cs-590">
                <duration>134</duration>
                <rate>
                  <ntsc>false</ntsc>
                  <timebase>25</timebase>
                </rate>
                <in>71774</in>
                <out>71907</out>
                <start>71774</start>
                <end>71907</end>
                <file id="src-1"/>
                <sourcetrack>
                  <mediatype>video</mediatype>
                  <trackindex>1</trackindex>
                </sourcetrack>
                <multiclip id="mcs-590">
                  <name>MCS-590</name>
                  <masterclipid>clip-master</masterclipid>
                  <collapsed>false</collapsed>
                  <angle>
                    <activevideoangle>true</activevideoangle>
                    <activeaudioangle>true</activeaudioangle>
                    <clip id="clip-1"/>
                  </angle>
                  <angle>
                    <activevideoangle>false</activevideoangle>
                    <activeaudioangle>false</activeaudioangle>
                    <clip id="clip-2"/>
                  </angle>
                  <angle>
                    <activevideoangle>false</activevideoangle>
                    <activeaudioangle>false</activeaudioangle>
                    <clip id="clip-3"/>
                  </angle>
                  <angle>
                    <activevideoangle>false</activevideoangle>
                    <activeaudioangle>false</activeaudioangle>
                    <clip id="clip-4"/>
                  </angle>
                  <angle>
                    <activevideoangle>false</activevideoangle>
                    <activeaudioangle>false</activeaudioangle>
                    <clip id="clip-5"/>
                  </angle>
                  <angle>
                    <activevideoangle>false</activevideoangle>
                    <activeaudioangle>false</activeaudioangle>
                    <clip id="clip-6"/>
                  </angle>
                  <angle>
                    <activevideoangle>false</activevideoangle>
                    <activeaudioangle>false</activeaudioangle>
                    <clip id="clip-7"/>
                  </angle>
                  <masterclipid>clip-master</masterclipid>
                </multiclip>
              </clipitem>
              <clipitem id="cs-591">
                <duration>118</duration>
                <rate>
                  <ntsc>false</ntsc>
                  <timebase>25</timebase>
                </rate>
                <in>71907</in>
                <out>72024</out>
                <start>71907</start>
                <end>72024</end>
                <file id="src-4"/>
                <sourcetrack>
                  <mediatype>video</mediatype>
                  <trackindex>1</trackindex>
                </sourcetrack>
                <multiclip id="mcs-591">
                  <name>MCS-591</name>
                  <masterclipid>clip-master</masterclipid>
                  <collapsed>false</collapsed>
                  <angle>
                    <activevideoangle>false</activevideoangle>
                    <activeaudioangle>false</activeaudioangle>
                    <clip id="clip-1"/>
                  </angle>
                  <angle>
                    <activevideoangle>false</activevideoangle>
                    <activeaudioangle>false</activeaudioangle>
                    <clip id="clip-2"/>
                  </angle>
                  <angle>
                    <activevideoangle>false</activevideoangle>
                    <activeaudioangle>false</activeaudioangle>
                    <clip id="clip-3"/>
                  </angle>
                  <angle>
                    <activevideoangle>true</activevideoangle>
                    <activeaudioangle>true</activeaudioangle>
                    <clip id="clip-4"/>
                  </angle>
                  <angle>
                    <activevideoangle>false</activevideoangle>
                    <activeaudioangle>false</activeaudioangle>
                    <clip id="clip-5"/>
                  </angle>
                  <angle>
                    <activevideoangle>false</activevideoangle>
                    <activeaudioangle>false</activeaudioangle>
                    <clip id="clip-6"/>
                  </angle>
                  <angle>
                    <activevideoangle>false</activevideoangle>
                    <activeaudioangle>false</activeaudioangle>
                    <clip id="clip-7"/>
                  </angle>
                  <masterclipid>clip-master</masterclipid>
                </multiclip>
              </clipitem>
              <clipitem id="cs-592">
                <duration>239</duration>
                <rate>
                  <ntsc>false</ntsc>
                  <timebase>25</timebase>
                </rate>
                <in>72024</in>
                <out>72262</out>
                <start>72024</start>
                <end>72262</end>
                <file id="src-3"/>
                <sourcetrack>
                  <mediatype>video</mediatype>
                  <trackindex>1</trackindex>
                </sourcetrack>
                <multiclip id="mcs-592">
                  <name>MCS-592</name>
                  <masterclipid>clip-master</masterclipid>
                  <collapsed>false</collapsed>
                  <angle>
                    <activevideoangle>false</activevideoangle>
                    <activeaudioangle>false</activeaudioangle>
                    <clip id="clip-1"/>
                  </angle>
                  <angle>
                    <activevideoangle>false</activevideoangle>
                    <activeaudioangle>false</activeaudioangle>
                    <clip id="clip-2"/>
                  </angle>
                  <angle>
                    <activevideoangle>true</activevideoangle>
                    <activeaudioangle>true</activeaudioangle>
                    <clip id="clip-3"/>
                  </angle>
                  <angle>
                    <activevideoangle>false</activevideoangle>
                    <activeaudioangle>false</activeaudioangle>
                    <clip id="clip-4"/>
                  </angle>
                  <angle>
                    <activevideoangle>false</activevideoangle>
                    <activeaudioangle>false</activeaudioangle>
                    <clip id="clip-5"/>
                  </angle>
                  <angle>
                    <activevideoangle>false</activevideoangle>
                    <activeaudioangle>false</activeaudioangle>
                    <clip id="clip-6"/>
                  </angle>
                  <angle>
                    <activevideoangle>false</activevideoangle>
                    <activeaudioangle>false</activeaudioangle>
                    <clip id="clip-7"/>
                  </angle>
                  <masterclipid>clip-master</masterclipid>
                </multiclip>
              </clipitem>
              <clipitem id="cs-593">
                <duration>191</duration>
                <rate>
                  <ntsc>false</ntsc>
                  <timebase>25</timebase>
                </rate>
                <in>72262</in>
                <out>72452</out>
                <start>72262</start>
                <end>72452</end>
                <file id="src-2"/>
                <sourcetrack>
                  <mediatype>video</mediatype>
                  <trackindex>1</trackindex>
                </sourcetrack>
                <multiclip id="mcs-593">
                  <name>MCS-593</name>
                  <masterclipid>clip-master</masterclipid>
                  <collapsed>false</collapsed>
                  <angle>
                    <activevideoangle>false</activevideoangle>
                    <activeaudioangle>false</activeaudioangle>
                    <clip id="clip-1"/>
                  </angle>
                  <angle>
                    <activevideoangle>true</activevideoangle>
                    <activeaudioangle>true</activeaudioangle>
                    <clip id="clip-2"/>
                  </angle>
                  <angle>
                    <activevideoangle>false</activevideoangle>
                    <activeaudioangle>false</activeaudioangle>
                    <clip id="clip-3"/>
                  </angle>
                  <angle>
                    <activevideoangle>false</activevideoangle>
                    <activeaudioangle>false</activeaudioangle>
                    <clip id="clip-4"/>
                  </angle>
                  <angle>
                    <activevideoangle>false</activevideoangle>
                    <activeaudioangle>false</activeaudioangle>
                    <clip id="clip-5"/>
                  </angle>
                  <angle>
                    <activevideoangle>false</activevideoangle>
                    <activeaudioangle>false</activeaudioangle>
                    <clip id="clip-6"/>
                  </angle>
                  <angle>
                    <activevideoangle>false</activevideoangle>
                    <activeaudioangle>false</activeaudioangle>
                    <clip id="clip-7"/>
                  </angle>
                  <masterclipid>clip-master</masterclipid>
                </multiclip>
              </clipitem>
              <clipitem id="cs-594">
                <duration>227</duration>
                <rate>
                  <ntsc>false</ntsc>
                  <timebase>25</timebase>
                </rate>
                <in>72452</in>
                <out>72678</out>
                <start>72452</start>
                <end>72678</end>
                <file id="src-3"/>
                <sourcetrack>
                  <mediatype>video</mediatype>
                  <trackindex>1</trackindex>
                </sourcetrack>
                <multiclip id="mcs-594">
                  <name>MCS-594</name>
                  <masterclipid>clip-master</masterclipid>
                  <collapsed>false</collapsed>
                  <angle>
                    <activevideoangle>false</activevideoangle>
                    <activeaudioangle>false</activeaudioangle>
                    <clip id="clip-1"/>
                  </angle>
                  <angle>
                    <activevideoangle>false</activevideoangle>
                    <activeaudioangle>false</activeaudioangle>
                    <clip id="clip-2"/>
                  </angle>
                  <angle>
                    <activevideoangle>true</activevideoangle>
                    <activeaudioangle>true</activeaudioangle>
                    <clip id="clip-3"/>
                  </angle>
                  <angle>
                    <activevideoangle>false</activevideoangle>
                    <activeaudioangle>false</activeaudioangle>
                    <clip id="clip-4"/>
                  </angle>
                  <angle>
                    <activevideoangle>false</activevideoangle>
                    <activeaudioangle>false</activeaudioangle>
                    <clip id="clip-5"/>
                  </angle>
                  <angle>
                    <activevideoangle>false</activevideoangle>
                    <activeaudioangle>false</activeaudioangle>
                    <clip id="clip-6"/>
                  </angle>
                  <angle>
                    <activevideoangle>false</activevideoangle>
                    <activeaudioangle>false</activeaudioangle>
                    <clip id="clip-7"/>
                  </angle>
                  <masterclipid>clip-master</masterclipid>
                </multiclip>
              </clipitem>
              <clipitem id="cs-595">
                <duration>100</duration>
                <rate>
                  <ntsc>false</ntsc>
                  <timebase>25</timebase>
                </rate>
                <in>72678</in>
                <out>72777</out>
                <start>72678</start>
                <end>72777</end>
                <file id="src-6"/>
                <sourcetrack>
                  <mediatype>video</mediatype>
                  <trackindex>1</trackindex>
                </sourcetrack>
                <multiclip id="mcs-595">
                  <name>MCS-595</name>
                  <masterclipid>clip-master</masterclipid>
                  <collapsed>false</collapsed>
                  <angle>
                    <activevideoangle>false</activevideoangle>
                    <activeaudioangle>false</activeaudioangle>
                    <clip id="clip-1"/>
                  </angle>
                  <angle>
                    <activevideoangle>false</activevideoangle>
                    <activeaudioangle>false</activeaudioangle>
                    <clip id="clip-2"/>
                  </angle>
                  <angle>
                    <activevideoangle>false</activevideoangle>
                    <activeaudioangle>false</activeaudioangle>
                    <clip id="clip-3"/>
                  </angle>
                  <angle>
                    <activevideoangle>false</activevideoangle>
                    <activeaudioangle>false</activeaudioangle>
                    <clip id="clip-4"/>
                  </angle>
                  <angle>
                    <activevideoangle>false</activevideoangle>
                    <activeaudioangle>false</activeaudioangle>
                    <clip id="clip-5"/>
                  </angle>
                  <angle>
                    <activevideoangle>true</activevideoangle>
                    <activeaudioangle>true</activeaudioangle>
                    <clip id="clip-6"/>
                  </angle>
                  <angle>
                    <activevideoangle>false</activevideoangle>
                    <activeaudioangle>false</activeaudioangle>
                    <clip id="clip-7"/>
                  </angle>
                  <masterclipid>clip-master</masterclipid>
                </multiclip>
              </clipitem>
              <clipitem id="cs-596">
                <duration>255</duration>
                <rate>
                  <ntsc>false</ntsc>
                  <timebase>25</timebase>
                </rate>
                <in>72777</in>
                <out>73031</out>
                <start>72777</start>
                <end>73031</end>
                <file id="src-2"/>
                <sourcetrack>
                  <mediatype>video</mediatype>
                  <trackindex>1</trackindex>
                </sourcetrack>
                <multiclip id="mcs-596">
                  <name>MCS-596</name>
                  <masterclipid>clip-master</masterclipid>
                  <collapsed>false</collapsed>
                  <angle>
                    <activevideoangle>false</activevideoangle>
                    <activeaudioangle>false</activeaudioangle>
                    <clip id="clip-1"/>
                  </angle>
                  <angle>
                    <activevideoangle>true</activevideoangle>
                    <activeaudioangle>true</activeaudioangle>
                    <clip id="clip-2"/>
                  </angle>
                  <angle>
                    <activevideoangle>false</activevideoangle>
                    <activeaudioangle>false</activeaudioangle>
                    <clip id="clip-3"/>
                  </angle>
                  <angle>
                    <activevideoangle>false</activevideoangle>
                    <activeaudioangle>false</activeaudioangle>
                    <clip id="clip-4"/>
                  </angle>
                  <angle>
                    <activevideoangle>false</activevideoangle>
                    <activeaudioangle>false</activeaudioangle>
                    <clip id="clip-5"/>
                  </angle>
                  <angle>
                    <activevideoangle>false</activevideoangle>
                    <activeaudioangle>false</activeaudioangle>
                    <clip id="clip-6"/>
                  </angle>
                  <angle>
                    <activevideoangle>false</activevideoangle>
                    <activeaudioangle>false</activeaudioangle>
                    <clip id="clip-7"/>
                  </angle>
                  <masterclipid>clip-master</masterclipid>
                </multiclip>
              </clipitem>
              <clipitem id="cs-597">
                <duration>275</duration>
                <rate>
                  <ntsc>false</ntsc>
                  <timebase>25</timebase>
                </rate>
                <in>73031</in>
                <out>73305</out>
                <start>73031</start>
                <end>73305</end>
                <file id="src-3"/>
                <sourcetrack>
                  <mediatype>video</mediatype>
                  <trackindex>1</trackindex>
                </sourcetrack>
                <multiclip id="mcs-597">
                  <name>MCS-597</name>
                  <masterclipid>clip-master</masterclipid>
                  <collapsed>false</collapsed>
                  <angle>
                    <activevideoangle>false</activevideoangle>
                    <activeaudioangle>false</activeaudioangle>
                    <clip id="clip-1"/>
                  </angle>
                  <angle>
                    <activevideoangle>false</activevideoangle>
                    <activeaudioangle>false</activeaudioangle>
                    <clip id="clip-2"/>
                  </angle>
                  <angle>
                    <activevideoangle>true</activevideoangle>
                    <activeaudioangle>true</activeaudioangle>
                    <clip id="clip-3"/>
                  </angle>
                  <angle>
                    <activevideoangle>false</activevideoangle>
                    <activeaudioangle>false</activeaudioangle>
                    <clip id="clip-4"/>
                  </angle>
                  <angle>
                    <activevideoangle>false</activevideoangle>
                    <activeaudioangle>false</activeaudioangle>
                    <clip id="clip-5"/>
                  </angle>
                  <angle>
                    <activevideoangle>false</activevideoangle>
                    <activeaudioangle>false</activeaudioangle>
                    <clip id="clip-6"/>
                  </angle>
                  <angle>
                    <activevideoangle>false</activevideoangle>
                    <activeaudioangle>false</activeaudioangle>
                    <clip id="clip-7"/>
                  </angle>
                  <masterclipid>clip-master</masterclipid>
                </multiclip>
              </clipitem>
              <clipitem id="cs-598">
                <duration>98</duration>
                <rate>
                  <ntsc>false</ntsc>
                  <timebase>25</timebase>
                </rate>
                <in>73305</in>
                <out>73402</out>
                <start>73305</start>
                <end>73402</end>
                <file id="src-6"/>
                <sourcetrack>
                  <mediatype>video</mediatype>
                  <trackindex>1</trackindex>
                </sourcetrack>
                <multiclip id="mcs-598">
                  <name>MCS-598</name>
                  <masterclipid>clip-master</masterclipid>
                  <collapsed>false</collapsed>
                  <angle>
                    <activevideoangle>false</activevideoangle>
                    <activeaudioangle>false</activeaudioangle>
                    <clip id="clip-1"/>
                  </angle>
                  <angle>
                    <activevideoangle>false</activevideoangle>
                    <activeaudioangle>false</activeaudioangle>
                    <clip id="clip-2"/>
                  </angle>
                  <angle>
                    <activevideoangle>false</activevideoangle>
                    <activeaudioangle>false</activeaudioangle>
                    <clip id="clip-3"/>
                  </angle>
                  <angle>
                    <activevideoangle>false</activevideoangle>
                    <activeaudioangle>false</activeaudioangle>
                    <clip id="clip-4"/>
                  </angle>
                  <angle>
                    <activevideoangle>false</activevideoangle>
                    <activeaudioangle>false</activeaudioangle>
                    <clip id="clip-5"/>
                  </angle>
                  <angle>
                    <activevideoangle>true</activevideoangle>
                    <activeaudioangle>true</activeaudioangle>
                    <clip id="clip-6"/>
                  </angle>
                  <angle>
                    <activevideoangle>false</activevideoangle>
                    <activeaudioangle>false</activeaudioangle>
                    <clip id="clip-7"/>
                  </angle>
                  <masterclipid>clip-master</masterclipid>
                </multiclip>
              </clipitem>
              <clipitem id="cs-599">
                <duration>149</duration>
                <rate>
                  <ntsc>false</ntsc>
                  <timebase>25</timebase>
                </rate>
                <in>73402</in>
                <out>73550</out>
                <start>73402</start>
                <end>73550</end>
                <file id="src-3"/>
                <sourcetrack>
                  <mediatype>video</mediatype>
                  <trackindex>1</trackindex>
                </sourcetrack>
                <multiclip id="mcs-599">
                  <name>MCS-599</name>
                  <masterclipid>clip-master</masterclipid>
                  <collapsed>false</collapsed>
                  <angle>
                    <activevideoangle>false</activevideoangle>
                    <activeaudioangle>false</activeaudioangle>
                    <clip id="clip-1"/>
                  </angle>
                  <angle>
                    <activevideoangle>false</activevideoangle>
                    <activeaudioangle>false</activeaudioangle>
                    <clip id="clip-2"/>
                  </angle>
                  <angle>
                    <activevideoangle>true</activevideoangle>
                    <activeaudioangle>true</activeaudioangle>
                    <clip id="clip-3"/>
                  </angle>
                  <angle>
                    <activevideoangle>false</activevideoangle>
                    <activeaudioangle>false</activeaudioangle>
                    <clip id="clip-4"/>
                  </angle>
                  <angle>
                    <activevideoangle>false</activevideoangle>
                    <activeaudioangle>false</activeaudioangle>
                    <clip id="clip-5"/>
                  </angle>
                  <angle>
                    <activevideoangle>false</activevideoangle>
                    <activeaudioangle>false</activeaudioangle>
                    <clip id="clip-6"/>
                  </angle>
                  <angle>
                    <activevideoangle>false</activevideoangle>
                    <activeaudioangle>false</activeaudioangle>
                    <clip id="clip-7"/>
                  </angle>
                  <masterclipid>clip-master</masterclipid>
                </multiclip>
              </clipitem>
              <clipitem id="cs-600">
                <duration>130</duration>
                <rate>
                  <ntsc>false</ntsc>
                  <timebase>25</timebase>
                </rate>
                <in>73550</in>
                <out>73679</out>
                <start>73550</start>
                <end>73679</end>
                <file id="src-4"/>
                <sourcetrack>
                  <mediatype>video</mediatype>
                  <trackindex>1</trackindex>
                </sourcetrack>
                <multiclip id="mcs-600">
                  <name>MCS-600</name>
                  <masterclipid>clip-master</masterclipid>
                  <collapsed>false</collapsed>
                  <angle>
                    <activevideoangle>false</activevideoangle>
                    <activeaudioangle>false</activeaudioangle>
                    <clip id="clip-1"/>
                  </angle>
                  <angle>
                    <activevideoangle>false</activevideoangle>
                    <activeaudioangle>false</activeaudioangle>
                    <clip id="clip-2"/>
                  </angle>
                  <angle>
                    <activevideoangle>false</activevideoangle>
                    <activeaudioangle>false</activeaudioangle>
                    <clip id="clip-3"/>
                  </angle>
                  <angle>
                    <activevideoangle>true</activevideoangle>
                    <activeaudioangle>true</activeaudioangle>
                    <clip id="clip-4"/>
                  </angle>
                  <angle>
                    <activevideoangle>false</activevideoangle>
                    <activeaudioangle>false</activeaudioangle>
                    <clip id="clip-5"/>
                  </angle>
                  <angle>
                    <activevideoangle>false</activevideoangle>
                    <activeaudioangle>false</activeaudioangle>
                    <clip id="clip-6"/>
                  </angle>
                  <angle>
                    <activevideoangle>false</activevideoangle>
                    <activeaudioangle>false</activeaudioangle>
                    <clip id="clip-7"/>
                  </angle>
                  <masterclipid>clip-master</masterclipid>
                </multiclip>
              </clipitem>
              <clipitem id="cs-601">
                <duration>114</duration>
                <rate>
                  <ntsc>false</ntsc>
                  <timebase>25</timebase>
                </rate>
                <in>73679</in>
                <out>73792</out>
                <start>73679</start>
                <end>73792</end>
                <file id="src-2"/>
                <sourcetrack>
                  <mediatype>video</mediatype>
                  <trackindex>1</trackindex>
                </sourcetrack>
                <multiclip id="mcs-601">
                  <name>MCS-601</name>
                  <masterclipid>clip-master</masterclipid>
                  <collapsed>false</collapsed>
                  <angle>
                    <activevideoangle>false</activevideoangle>
                    <activeaudioangle>false</activeaudioangle>
                    <clip id="clip-1"/>
                  </angle>
                  <angle>
                    <activevideoangle>true</activevideoangle>
                    <activeaudioangle>true</activeaudioangle>
                    <clip id="clip-2"/>
                  </angle>
                  <angle>
                    <activevideoangle>false</activevideoangle>
                    <activeaudioangle>false</activeaudioangle>
                    <clip id="clip-3"/>
                  </angle>
                  <angle>
                    <activevideoangle>false</activevideoangle>
                    <activeaudioangle>false</activeaudioangle>
                    <clip id="clip-4"/>
                  </angle>
                  <angle>
                    <activevideoangle>false</activevideoangle>
                    <activeaudioangle>false</activeaudioangle>
                    <clip id="clip-5"/>
                  </angle>
                  <angle>
                    <activevideoangle>false</activevideoangle>
                    <activeaudioangle>false</activeaudioangle>
                    <clip id="clip-6"/>
                  </angle>
                  <angle>
                    <activevideoangle>false</activevideoangle>
                    <activeaudioangle>false</activeaudioangle>
                    <clip id="clip-7"/>
                  </angle>
                  <masterclipid>clip-master</masterclipid>
                </multiclip>
              </clipitem>
              <clipitem id="cs-602">
                <duration>116</duration>
                <rate>
                  <ntsc>false</ntsc>
                  <timebase>25</timebase>
                </rate>
                <in>73792</in>
                <out>73907</out>
                <start>73792</start>
                <end>73907</end>
                <file id="src-3"/>
                <sourcetrack>
                  <mediatype>video</mediatype>
                  <trackindex>1</trackindex>
                </sourcetrack>
                <multiclip id="mcs-602">
                  <name>MCS-602</name>
                  <masterclipid>clip-master</masterclipid>
                  <collapsed>false</collapsed>
                  <angle>
                    <activevideoangle>false</activevideoangle>
                    <activeaudioangle>false</activeaudioangle>
                    <clip id="clip-1"/>
                  </angle>
                  <angle>
                    <activevideoangle>false</activevideoangle>
                    <activeaudioangle>false</activeaudioangle>
                    <clip id="clip-2"/>
                  </angle>
                  <angle>
                    <activevideoangle>true</activevideoangle>
                    <activeaudioangle>true</activeaudioangle>
                    <clip id="clip-3"/>
                  </angle>
                  <angle>
                    <activevideoangle>false</activevideoangle>
                    <activeaudioangle>false</activeaudioangle>
                    <clip id="clip-4"/>
                  </angle>
                  <angle>
                    <activevideoangle>false</activevideoangle>
                    <activeaudioangle>false</activeaudioangle>
                    <clip id="clip-5"/>
                  </angle>
                  <angle>
                    <activevideoangle>false</activevideoangle>
                    <activeaudioangle>false</activeaudioangle>
                    <clip id="clip-6"/>
                  </angle>
                  <angle>
                    <activevideoangle>false</activevideoangle>
                    <activeaudioangle>false</activeaudioangle>
                    <clip id="clip-7"/>
                  </angle>
                  <masterclipid>clip-master</masterclipid>
                </multiclip>
              </clipitem>
              <clipitem id="cs-603">
                <duration>157</duration>
                <rate>
                  <ntsc>false</ntsc>
                  <timebase>25</timebase>
                </rate>
                <in>73907</in>
                <out>74063</out>
                <start>73907</start>
                <end>74063</end>
                <file id="src-6"/>
                <sourcetrack>
                  <mediatype>video</mediatype>
                  <trackindex>1</trackindex>
                </sourcetrack>
                <multiclip id="mcs-603">
                  <name>MCS-603</name>
                  <masterclipid>clip-master</masterclipid>
                  <collapsed>false</collapsed>
                  <angle>
                    <activevideoangle>false</activevideoangle>
                    <activeaudioangle>false</activeaudioangle>
                    <clip id="clip-1"/>
                  </angle>
                  <angle>
                    <activevideoangle>false</activevideoangle>
                    <activeaudioangle>false</activeaudioangle>
                    <clip id="clip-2"/>
                  </angle>
                  <angle>
                    <activevideoangle>false</activevideoangle>
                    <activeaudioangle>false</activeaudioangle>
                    <clip id="clip-3"/>
                  </angle>
                  <angle>
                    <activevideoangle>false</activevideoangle>
                    <activeaudioangle>false</activeaudioangle>
                    <clip id="clip-4"/>
                  </angle>
                  <angle>
                    <activevideoangle>false</activevideoangle>
                    <activeaudioangle>false</activeaudioangle>
                    <clip id="clip-5"/>
                  </angle>
                  <angle>
                    <activevideoangle>true</activevideoangle>
                    <activeaudioangle>true</activeaudioangle>
                    <clip id="clip-6"/>
                  </angle>
                  <angle>
                    <activevideoangle>false</activevideoangle>
                    <activeaudioangle>false</activeaudioangle>
                    <clip id="clip-7"/>
                  </angle>
                  <masterclipid>clip-master</masterclipid>
                </multiclip>
              </clipitem>
              <clipitem id="cs-604">
                <duration>115</duration>
                <rate>
                  <ntsc>false</ntsc>
                  <timebase>25</timebase>
                </rate>
                <in>74063</in>
                <out>74177</out>
                <start>74063</start>
                <end>74177</end>
                <file id="src-3"/>
                <sourcetrack>
                  <mediatype>video</mediatype>
                  <trackindex>1</trackindex>
                </sourcetrack>
                <multiclip id="mcs-604">
                  <name>MCS-604</name>
                  <masterclipid>clip-master</masterclipid>
                  <collapsed>false</collapsed>
                  <angle>
                    <activevideoangle>false</activevideoangle>
                    <activeaudioangle>false</activeaudioangle>
                    <clip id="clip-1"/>
                  </angle>
                  <angle>
                    <activevideoangle>false</activevideoangle>
                    <activeaudioangle>false</activeaudioangle>
                    <clip id="clip-2"/>
                  </angle>
                  <angle>
                    <activevideoangle>true</activevideoangle>
                    <activeaudioangle>true</activeaudioangle>
                    <clip id="clip-3"/>
                  </angle>
                  <angle>
                    <activevideoangle>false</activevideoangle>
                    <activeaudioangle>false</activeaudioangle>
                    <clip id="clip-4"/>
                  </angle>
                  <angle>
                    <activevideoangle>false</activevideoangle>
                    <activeaudioangle>false</activeaudioangle>
                    <clip id="clip-5"/>
                  </angle>
                  <angle>
                    <activevideoangle>false</activevideoangle>
                    <activeaudioangle>false</activeaudioangle>
                    <clip id="clip-6"/>
                  </angle>
                  <angle>
                    <activevideoangle>false</activevideoangle>
                    <activeaudioangle>false</activeaudioangle>
                    <clip id="clip-7"/>
                  </angle>
                  <masterclipid>clip-master</masterclipid>
                </multiclip>
              </clipitem>
              <clipitem id="cs-605">
                <duration>91</duration>
                <rate>
                  <ntsc>false</ntsc>
                  <timebase>25</timebase>
                </rate>
                <in>74177</in>
                <out>74267</out>
                <start>74177</start>
                <end>74267</end>
                <file id="src-4"/>
                <sourcetrack>
                  <mediatype>video</mediatype>
                  <trackindex>1</trackindex>
                </sourcetrack>
                <multiclip id="mcs-605">
                  <name>MCS-605</name>
                  <masterclipid>clip-master</masterclipid>
                  <collapsed>false</collapsed>
                  <angle>
                    <activevideoangle>false</activevideoangle>
                    <activeaudioangle>false</activeaudioangle>
                    <clip id="clip-1"/>
                  </angle>
                  <angle>
                    <activevideoangle>false</activevideoangle>
                    <activeaudioangle>false</activeaudioangle>
                    <clip id="clip-2"/>
                  </angle>
                  <angle>
                    <activevideoangle>false</activevideoangle>
                    <activeaudioangle>false</activeaudioangle>
                    <clip id="clip-3"/>
                  </angle>
                  <angle>
                    <activevideoangle>true</activevideoangle>
                    <activeaudioangle>true</activeaudioangle>
                    <clip id="clip-4"/>
                  </angle>
                  <angle>
                    <activevideoangle>false</activevideoangle>
                    <activeaudioangle>false</activeaudioangle>
                    <clip id="clip-5"/>
                  </angle>
                  <angle>
                    <activevideoangle>false</activevideoangle>
                    <activeaudioangle>false</activeaudioangle>
                    <clip id="clip-6"/>
                  </angle>
                  <angle>
                    <activevideoangle>false</activevideoangle>
                    <activeaudioangle>false</activeaudioangle>
                    <clip id="clip-7"/>
                  </angle>
                  <masterclipid>clip-master</masterclipid>
                </multiclip>
              </clipitem>
              <clipitem id="cs-606">
                <duration>74</duration>
                <rate>
                  <ntsc>false</ntsc>
                  <timebase>25</timebase>
                </rate>
                <in>74267</in>
                <out>74340</out>
                <start>74267</start>
                <end>74340</end>
                <file id="src-3"/>
                <sourcetrack>
                  <mediatype>video</mediatype>
                  <trackindex>1</trackindex>
                </sourcetrack>
                <multiclip id="mcs-606">
                  <name>MCS-606</name>
                  <masterclipid>clip-master</masterclipid>
                  <collapsed>false</collapsed>
                  <angle>
                    <activevideoangle>false</activevideoangle>
                    <activeaudioangle>false</activeaudioangle>
                    <clip id="clip-1"/>
                  </angle>
                  <angle>
                    <activevideoangle>false</activevideoangle>
                    <activeaudioangle>false</activeaudioangle>
                    <clip id="clip-2"/>
                  </angle>
                  <angle>
                    <activevideoangle>true</activevideoangle>
                    <activeaudioangle>true</activeaudioangle>
                    <clip id="clip-3"/>
                  </angle>
                  <angle>
                    <activevideoangle>false</activevideoangle>
                    <activeaudioangle>false</activeaudioangle>
                    <clip id="clip-4"/>
                  </angle>
                  <angle>
                    <activevideoangle>false</activevideoangle>
                    <activeaudioangle>false</activeaudioangle>
                    <clip id="clip-5"/>
                  </angle>
                  <angle>
                    <activevideoangle>false</activevideoangle>
                    <activeaudioangle>false</activeaudioangle>
                    <clip id="clip-6"/>
                  </angle>
                  <angle>
                    <activevideoangle>false</activevideoangle>
                    <activeaudioangle>false</activeaudioangle>
                    <clip id="clip-7"/>
                  </angle>
                  <masterclipid>clip-master</masterclipid>
                </multiclip>
              </clipitem>
              <clipitem id="cs-607">
                <duration>72</duration>
                <rate>
                  <ntsc>false</ntsc>
                  <timebase>25</timebase>
                </rate>
                <in>74340</in>
                <out>74411</out>
                <start>74340</start>
                <end>74411</end>
                <file id="src-6"/>
                <sourcetrack>
                  <mediatype>video</mediatype>
                  <trackindex>1</trackindex>
                </sourcetrack>
                <multiclip id="mcs-607">
                  <name>MCS-607</name>
                  <masterclipid>clip-master</masterclipid>
                  <collapsed>false</collapsed>
                  <angle>
                    <activevideoangle>false</activevideoangle>
                    <activeaudioangle>false</activeaudioangle>
                    <clip id="clip-1"/>
                  </angle>
                  <angle>
                    <activevideoangle>false</activevideoangle>
                    <activeaudioangle>false</activeaudioangle>
                    <clip id="clip-2"/>
                  </angle>
                  <angle>
                    <activevideoangle>false</activevideoangle>
                    <activeaudioangle>false</activeaudioangle>
                    <clip id="clip-3"/>
                  </angle>
                  <angle>
                    <activevideoangle>false</activevideoangle>
                    <activeaudioangle>false</activeaudioangle>
                    <clip id="clip-4"/>
                  </angle>
                  <angle>
                    <activevideoangle>false</activevideoangle>
                    <activeaudioangle>false</activeaudioangle>
                    <clip id="clip-5"/>
                  </angle>
                  <angle>
                    <activevideoangle>true</activevideoangle>
                    <activeaudioangle>true</activeaudioangle>
                    <clip id="clip-6"/>
                  </angle>
                  <angle>
                    <activevideoangle>false</activevideoangle>
                    <activeaudioangle>false</activeaudioangle>
                    <clip id="clip-7"/>
                  </angle>
                  <masterclipid>clip-master</masterclipid>
                </multiclip>
              </clipitem>
              <clipitem id="cs-608">
                <duration>142</duration>
                <rate>
                  <ntsc>false</ntsc>
                  <timebase>25</timebase>
                </rate>
                <in>74411</in>
                <out>74552</out>
                <start>74411</start>
                <end>74552</end>
                <file id="src-3"/>
                <sourcetrack>
                  <mediatype>video</mediatype>
                  <trackindex>1</trackindex>
                </sourcetrack>
                <multiclip id="mcs-608">
                  <name>MCS-608</name>
                  <masterclipid>clip-master</masterclipid>
                  <collapsed>false</collapsed>
                  <angle>
                    <activevideoangle>false</activevideoangle>
                    <activeaudioangle>false</activeaudioangle>
                    <clip id="clip-1"/>
                  </angle>
                  <angle>
                    <activevideoangle>false</activevideoangle>
                    <activeaudioangle>false</activeaudioangle>
                    <clip id="clip-2"/>
                  </angle>
                  <angle>
                    <activevideoangle>true</activevideoangle>
                    <activeaudioangle>true</activeaudioangle>
                    <clip id="clip-3"/>
                  </angle>
                  <angle>
                    <activevideoangle>false</activevideoangle>
                    <activeaudioangle>false</activeaudioangle>
                    <clip id="clip-4"/>
                  </angle>
                  <angle>
                    <activevideoangle>false</activevideoangle>
                    <activeaudioangle>false</activeaudioangle>
                    <clip id="clip-5"/>
                  </angle>
                  <angle>
                    <activevideoangle>false</activevideoangle>
                    <activeaudioangle>false</activeaudioangle>
                    <clip id="clip-6"/>
                  </angle>
                  <angle>
                    <activevideoangle>false</activevideoangle>
                    <activeaudioangle>false</activeaudioangle>
                    <clip id="clip-7"/>
                  </angle>
                  <masterclipid>clip-master</masterclipid>
                </multiclip>
              </clipitem>
              <clipitem id="cs-609">
                <duration>78</duration>
                <rate>
                  <ntsc>false</ntsc>
                  <timebase>25</timebase>
                </rate>
                <in>74552</in>
                <out>74629</out>
                <start>74552</start>
                <end>74629</end>
                <file id="src-2"/>
                <sourcetrack>
                  <mediatype>video</mediatype>
                  <trackindex>1</trackindex>
                </sourcetrack>
                <multiclip id="mcs-609">
                  <name>MCS-609</name>
                  <masterclipid>clip-master</masterclipid>
                  <collapsed>false</collapsed>
                  <angle>
                    <activevideoangle>false</activevideoangle>
                    <activeaudioangle>false</activeaudioangle>
                    <clip id="clip-1"/>
                  </angle>
                  <angle>
                    <activevideoangle>true</activevideoangle>
                    <activeaudioangle>true</activeaudioangle>
                    <clip id="clip-2"/>
                  </angle>
                  <angle>
                    <activevideoangle>false</activevideoangle>
                    <activeaudioangle>false</activeaudioangle>
                    <clip id="clip-3"/>
                  </angle>
                  <angle>
                    <activevideoangle>false</activevideoangle>
                    <activeaudioangle>false</activeaudioangle>
                    <clip id="clip-4"/>
                  </angle>
                  <angle>
                    <activevideoangle>false</activevideoangle>
                    <activeaudioangle>false</activeaudioangle>
                    <clip id="clip-5"/>
                  </angle>
                  <angle>
                    <activevideoangle>false</activevideoangle>
                    <activeaudioangle>false</activeaudioangle>
                    <clip id="clip-6"/>
                  </angle>
                  <angle>
                    <activevideoangle>false</activevideoangle>
                    <activeaudioangle>false</activeaudioangle>
                    <clip id="clip-7"/>
                  </angle>
                  <masterclipid>clip-master</masterclipid>
                </multiclip>
              </clipitem>
              <clipitem id="cs-610">
                <duration>51</duration>
                <rate>
                  <ntsc>false</ntsc>
                  <timebase>25</timebase>
                </rate>
                <in>74629</in>
                <out>74679</out>
                <start>74629</start>
                <end>74679</end>
                <file id="src-6"/>
                <sourcetrack>
                  <mediatype>video</mediatype>
                  <trackindex>1</trackindex>
                </sourcetrack>
                <multiclip id="mcs-610">
                  <name>MCS-610</name>
                  <masterclipid>clip-master</masterclipid>
                  <collapsed>false</collapsed>
                  <angle>
                    <activevideoangle>false</activevideoangle>
                    <activeaudioangle>false</activeaudioangle>
                    <clip id="clip-1"/>
                  </angle>
                  <angle>
                    <activevideoangle>false</activevideoangle>
                    <activeaudioangle>false</activeaudioangle>
                    <clip id="clip-2"/>
                  </angle>
                  <angle>
                    <activevideoangle>false</activevideoangle>
                    <activeaudioangle>false</activeaudioangle>
                    <clip id="clip-3"/>
                  </angle>
                  <angle>
                    <activevideoangle>false</activevideoangle>
                    <activeaudioangle>false</activeaudioangle>
                    <clip id="clip-4"/>
                  </angle>
                  <angle>
                    <activevideoangle>false</activevideoangle>
                    <activeaudioangle>false</activeaudioangle>
                    <clip id="clip-5"/>
                  </angle>
                  <angle>
                    <activevideoangle>true</activevideoangle>
                    <activeaudioangle>true</activeaudioangle>
                    <clip id="clip-6"/>
                  </angle>
                  <angle>
                    <activevideoangle>false</activevideoangle>
                    <activeaudioangle>false</activeaudioangle>
                    <clip id="clip-7"/>
                  </angle>
                  <masterclipid>clip-master</masterclipid>
                </multiclip>
              </clipitem>
              <clipitem id="cs-611">
                <duration>91</duration>
                <rate>
                  <ntsc>false</ntsc>
                  <timebase>25</timebase>
                </rate>
                <in>74679</in>
                <out>74769</out>
                <start>74679</start>
                <end>74769</end>
                <file id="src-3"/>
                <sourcetrack>
                  <mediatype>video</mediatype>
                  <trackindex>1</trackindex>
                </sourcetrack>
                <multiclip id="mcs-611">
                  <name>MCS-611</name>
                  <masterclipid>clip-master</masterclipid>
                  <collapsed>false</collapsed>
                  <angle>
                    <activevideoangle>false</activevideoangle>
                    <activeaudioangle>false</activeaudioangle>
                    <clip id="clip-1"/>
                  </angle>
                  <angle>
                    <activevideoangle>false</activevideoangle>
                    <activeaudioangle>false</activeaudioangle>
                    <clip id="clip-2"/>
                  </angle>
                  <angle>
                    <activevideoangle>true</activevideoangle>
                    <activeaudioangle>true</activeaudioangle>
                    <clip id="clip-3"/>
                  </angle>
                  <angle>
                    <activevideoangle>false</activevideoangle>
                    <activeaudioangle>false</activeaudioangle>
                    <clip id="clip-4"/>
                  </angle>
                  <angle>
                    <activevideoangle>false</activevideoangle>
                    <activeaudioangle>false</activeaudioangle>
                    <clip id="clip-5"/>
                  </angle>
                  <angle>
                    <activevideoangle>false</activevideoangle>
                    <activeaudioangle>false</activeaudioangle>
                    <clip id="clip-6"/>
                  </angle>
                  <angle>
                    <activevideoangle>false</activevideoangle>
                    <activeaudioangle>false</activeaudioangle>
                    <clip id="clip-7"/>
                  </angle>
                  <masterclipid>clip-master</masterclipid>
                </multiclip>
              </clipitem>
              <clipitem id="cs-612">
                <duration>137</duration>
                <rate>
                  <ntsc>false</ntsc>
                  <timebase>25</timebase>
                </rate>
                <in>74769</in>
                <out>74905</out>
                <start>74769</start>
                <end>74905</end>
                <file id="src-2"/>
                <sourcetrack>
                  <mediatype>video</mediatype>
                  <trackindex>1</trackindex>
                </sourcetrack>
                <multiclip id="mcs-612">
                  <name>MCS-612</name>
                  <masterclipid>clip-master</masterclipid>
                  <collapsed>false</collapsed>
                  <angle>
                    <activevideoangle>false</activevideoangle>
                    <activeaudioangle>false</activeaudioangle>
                    <clip id="clip-1"/>
                  </angle>
                  <angle>
                    <activevideoangle>true</activevideoangle>
                    <activeaudioangle>true</activeaudioangle>
                    <clip id="clip-2"/>
                  </angle>
                  <angle>
                    <activevideoangle>false</activevideoangle>
                    <activeaudioangle>false</activeaudioangle>
                    <clip id="clip-3"/>
                  </angle>
                  <angle>
                    <activevideoangle>false</activevideoangle>
                    <activeaudioangle>false</activeaudioangle>
                    <clip id="clip-4"/>
                  </angle>
                  <angle>
                    <activevideoangle>false</activevideoangle>
                    <activeaudioangle>false</activeaudioangle>
                    <clip id="clip-5"/>
                  </angle>
                  <angle>
                    <activevideoangle>false</activevideoangle>
                    <activeaudioangle>false</activeaudioangle>
                    <clip id="clip-6"/>
                  </angle>
                  <angle>
                    <activevideoangle>false</activevideoangle>
                    <activeaudioangle>false</activeaudioangle>
                    <clip id="clip-7"/>
                  </angle>
                  <masterclipid>clip-master</masterclipid>
                </multiclip>
              </clipitem>
              <clipitem id="cs-613">
                <duration>42</duration>
                <rate>
                  <ntsc>false</ntsc>
                  <timebase>25</timebase>
                </rate>
                <in>74905</in>
                <out>74946</out>
                <start>74905</start>
                <end>74946</end>
                <file id="src-6"/>
                <sourcetrack>
                  <mediatype>video</mediatype>
                  <trackindex>1</trackindex>
                </sourcetrack>
                <multiclip id="mcs-613">
                  <name>MCS-613</name>
                  <masterclipid>clip-master</masterclipid>
                  <collapsed>false</collapsed>
                  <angle>
                    <activevideoangle>false</activevideoangle>
                    <activeaudioangle>false</activeaudioangle>
                    <clip id="clip-1"/>
                  </angle>
                  <angle>
                    <activevideoangle>false</activevideoangle>
                    <activeaudioangle>false</activeaudioangle>
                    <clip id="clip-2"/>
                  </angle>
                  <angle>
                    <activevideoangle>false</activevideoangle>
                    <activeaudioangle>false</activeaudioangle>
                    <clip id="clip-3"/>
                  </angle>
                  <angle>
                    <activevideoangle>false</activevideoangle>
                    <activeaudioangle>false</activeaudioangle>
                    <clip id="clip-4"/>
                  </angle>
                  <angle>
                    <activevideoangle>false</activevideoangle>
                    <activeaudioangle>false</activeaudioangle>
                    <clip id="clip-5"/>
                  </angle>
                  <angle>
                    <activevideoangle>true</activevideoangle>
                    <activeaudioangle>true</activeaudioangle>
                    <clip id="clip-6"/>
                  </angle>
                  <angle>
                    <activevideoangle>false</activevideoangle>
                    <activeaudioangle>false</activeaudioangle>
                    <clip id="clip-7"/>
                  </angle>
                  <masterclipid>clip-master</masterclipid>
                </multiclip>
              </clipitem>
              <clipitem id="cs-614">
                <duration>57</duration>
                <rate>
                  <ntsc>false</ntsc>
                  <timebase>25</timebase>
                </rate>
                <in>74946</in>
                <out>75002</out>
                <start>74946</start>
                <end>75002</end>
                <file id="src-3"/>
                <sourcetrack>
                  <mediatype>video</mediatype>
                  <trackindex>1</trackindex>
                </sourcetrack>
                <multiclip id="mcs-614">
                  <name>MCS-614</name>
                  <masterclipid>clip-master</masterclipid>
                  <collapsed>false</collapsed>
                  <angle>
                    <activevideoangle>false</activevideoangle>
                    <activeaudioangle>false</activeaudioangle>
                    <clip id="clip-1"/>
                  </angle>
                  <angle>
                    <activevideoangle>false</activevideoangle>
                    <activeaudioangle>false</activeaudioangle>
                    <clip id="clip-2"/>
                  </angle>
                  <angle>
                    <activevideoangle>true</activevideoangle>
                    <activeaudioangle>true</activeaudioangle>
                    <clip id="clip-3"/>
                  </angle>
                  <angle>
                    <activevideoangle>false</activevideoangle>
                    <activeaudioangle>false</activeaudioangle>
                    <clip id="clip-4"/>
                  </angle>
                  <angle>
                    <activevideoangle>false</activevideoangle>
                    <activeaudioangle>false</activeaudioangle>
                    <clip id="clip-5"/>
                  </angle>
                  <angle>
                    <activevideoangle>false</activevideoangle>
                    <activeaudioangle>false</activeaudioangle>
                    <clip id="clip-6"/>
                  </angle>
                  <angle>
                    <activevideoangle>false</activevideoangle>
                    <activeaudioangle>false</activeaudioangle>
                    <clip id="clip-7"/>
                  </angle>
                  <masterclipid>clip-master</masterclipid>
                </multiclip>
              </clipitem>
              <clipitem id="cs-615">
                <duration>190</duration>
                <rate>
                  <ntsc>false</ntsc>
                  <timebase>25</timebase>
                </rate>
                <in>75002</in>
                <out>75191</out>
                <start>75002</start>
                <end>75191</end>
                <file id="src-2"/>
                <sourcetrack>
                  <mediatype>video</mediatype>
                  <trackindex>1</trackindex>
                </sourcetrack>
                <multiclip id="mcs-615">
                  <name>MCS-615</name>
                  <masterclipid>clip-master</masterclipid>
                  <collapsed>false</collapsed>
                  <angle>
                    <activevideoangle>false</activevideoangle>
                    <activeaudioangle>false</activeaudioangle>
                    <clip id="clip-1"/>
                  </angle>
                  <angle>
                    <activevideoangle>true</activevideoangle>
                    <activeaudioangle>true</activeaudioangle>
                    <clip id="clip-2"/>
                  </angle>
                  <angle>
                    <activevideoangle>false</activevideoangle>
                    <activeaudioangle>false</activeaudioangle>
                    <clip id="clip-3"/>
                  </angle>
                  <angle>
                    <activevideoangle>false</activevideoangle>
                    <activeaudioangle>false</activeaudioangle>
                    <clip id="clip-4"/>
                  </angle>
                  <angle>
                    <activevideoangle>false</activevideoangle>
                    <activeaudioangle>false</activeaudioangle>
                    <clip id="clip-5"/>
                  </angle>
                  <angle>
                    <activevideoangle>false</activevideoangle>
                    <activeaudioangle>false</activeaudioangle>
                    <clip id="clip-6"/>
                  </angle>
                  <angle>
                    <activevideoangle>false</activevideoangle>
                    <activeaudioangle>false</activeaudioangle>
                    <clip id="clip-7"/>
                  </angle>
                  <masterclipid>clip-master</masterclipid>
                </multiclip>
              </clipitem>
              <clipitem id="cs-616">
                <duration>108</duration>
                <rate>
                  <ntsc>false</ntsc>
                  <timebase>25</timebase>
                </rate>
                <in>75191</in>
                <out>75298</out>
                <start>75191</start>
                <end>75298</end>
                <file id="src-3"/>
                <sourcetrack>
                  <mediatype>video</mediatype>
                  <trackindex>1</trackindex>
                </sourcetrack>
                <multiclip id="mcs-616">
                  <name>MCS-616</name>
                  <masterclipid>clip-master</masterclipid>
                  <collapsed>false</collapsed>
                  <angle>
                    <activevideoangle>false</activevideoangle>
                    <activeaudioangle>false</activeaudioangle>
                    <clip id="clip-1"/>
                  </angle>
                  <angle>
                    <activevideoangle>false</activevideoangle>
                    <activeaudioangle>false</activeaudioangle>
                    <clip id="clip-2"/>
                  </angle>
                  <angle>
                    <activevideoangle>true</activevideoangle>
                    <activeaudioangle>true</activeaudioangle>
                    <clip id="clip-3"/>
                  </angle>
                  <angle>
                    <activevideoangle>false</activevideoangle>
                    <activeaudioangle>false</activeaudioangle>
                    <clip id="clip-4"/>
                  </angle>
                  <angle>
                    <activevideoangle>false</activevideoangle>
                    <activeaudioangle>false</activeaudioangle>
                    <clip id="clip-5"/>
                  </angle>
                  <angle>
                    <activevideoangle>false</activevideoangle>
                    <activeaudioangle>false</activeaudioangle>
                    <clip id="clip-6"/>
                  </angle>
                  <angle>
                    <activevideoangle>false</activevideoangle>
                    <activeaudioangle>false</activeaudioangle>
                    <clip id="clip-7"/>
                  </angle>
                  <masterclipid>clip-master</masterclipid>
                </multiclip>
              </clipitem>
              <clipitem id="cs-617">
                <duration>62</duration>
                <rate>
                  <ntsc>false</ntsc>
                  <timebase>25</timebase>
                </rate>
                <in>75298</in>
                <out>75359</out>
                <start>75298</start>
                <end>75359</end>
                <file id="src-6"/>
                <sourcetrack>
                  <mediatype>video</mediatype>
                  <trackindex>1</trackindex>
                </sourcetrack>
                <multiclip id="mcs-617">
                  <name>MCS-617</name>
                  <masterclipid>clip-master</masterclipid>
                  <collapsed>false</collapsed>
                  <angle>
                    <activevideoangle>false</activevideoangle>
                    <activeaudioangle>false</activeaudioangle>
                    <clip id="clip-1"/>
                  </angle>
                  <angle>
                    <activevideoangle>false</activevideoangle>
                    <activeaudioangle>false</activeaudioangle>
                    <clip id="clip-2"/>
                  </angle>
                  <angle>
                    <activevideoangle>false</activevideoangle>
                    <activeaudioangle>false</activeaudioangle>
                    <clip id="clip-3"/>
                  </angle>
                  <angle>
                    <activevideoangle>false</activevideoangle>
                    <activeaudioangle>false</activeaudioangle>
                    <clip id="clip-4"/>
                  </angle>
                  <angle>
                    <activevideoangle>false</activevideoangle>
                    <activeaudioangle>false</activeaudioangle>
                    <clip id="clip-5"/>
                  </angle>
                  <angle>
                    <activevideoangle>true</activevideoangle>
                    <activeaudioangle>true</activeaudioangle>
                    <clip id="clip-6"/>
                  </angle>
                  <angle>
                    <activevideoangle>false</activevideoangle>
                    <activeaudioangle>false</activeaudioangle>
                    <clip id="clip-7"/>
                  </angle>
                  <masterclipid>clip-master</masterclipid>
                </multiclip>
              </clipitem>
              <clipitem id="cs-618">
                <duration>54</duration>
                <rate>
                  <ntsc>false</ntsc>
                  <timebase>25</timebase>
                </rate>
                <in>75359</in>
                <out>75412</out>
                <start>75359</start>
                <end>75412</end>
                <file id="src-2"/>
                <sourcetrack>
                  <mediatype>video</mediatype>
                  <trackindex>1</trackindex>
                </sourcetrack>
                <multiclip id="mcs-618">
                  <name>MCS-618</name>
                  <masterclipid>clip-master</masterclipid>
                  <collapsed>false</collapsed>
                  <angle>
                    <activevideoangle>false</activevideoangle>
                    <activeaudioangle>false</activeaudioangle>
                    <clip id="clip-1"/>
                  </angle>
                  <angle>
                    <activevideoangle>true</activevideoangle>
                    <activeaudioangle>true</activeaudioangle>
                    <clip id="clip-2"/>
                  </angle>
                  <angle>
                    <activevideoangle>false</activevideoangle>
                    <activeaudioangle>false</activeaudioangle>
                    <clip id="clip-3"/>
                  </angle>
                  <angle>
                    <activevideoangle>false</activevideoangle>
                    <activeaudioangle>false</activeaudioangle>
                    <clip id="clip-4"/>
                  </angle>
                  <angle>
                    <activevideoangle>false</activevideoangle>
                    <activeaudioangle>false</activeaudioangle>
                    <clip id="clip-5"/>
                  </angle>
                  <angle>
                    <activevideoangle>false</activevideoangle>
                    <activeaudioangle>false</activeaudioangle>
                    <clip id="clip-6"/>
                  </angle>
                  <angle>
                    <activevideoangle>false</activevideoangle>
                    <activeaudioangle>false</activeaudioangle>
                    <clip id="clip-7"/>
                  </angle>
                  <masterclipid>clip-master</masterclipid>
                </multiclip>
              </clipitem>
              <clipitem id="cs-619">
                <duration>130</duration>
                <rate>
                  <ntsc>false</ntsc>
                  <timebase>25</timebase>
                </rate>
                <in>75412</in>
                <out>75541</out>
                <start>75412</start>
                <end>75541</end>
                <file id="src-3"/>
                <sourcetrack>
                  <mediatype>video</mediatype>
                  <trackindex>1</trackindex>
                </sourcetrack>
                <multiclip id="mcs-619">
                  <name>MCS-619</name>
                  <masterclipid>clip-master</masterclipid>
                  <collapsed>false</collapsed>
                  <angle>
                    <activevideoangle>false</activevideoangle>
                    <activeaudioangle>false</activeaudioangle>
                    <clip id="clip-1"/>
                  </angle>
                  <angle>
                    <activevideoangle>false</activevideoangle>
                    <activeaudioangle>false</activeaudioangle>
                    <clip id="clip-2"/>
                  </angle>
                  <angle>
                    <activevideoangle>true</activevideoangle>
                    <activeaudioangle>true</activeaudioangle>
                    <clip id="clip-3"/>
                  </angle>
                  <angle>
                    <activevideoangle>false</activevideoangle>
                    <activeaudioangle>false</activeaudioangle>
                    <clip id="clip-4"/>
                  </angle>
                  <angle>
                    <activevideoangle>false</activevideoangle>
                    <activeaudioangle>false</activeaudioangle>
                    <clip id="clip-5"/>
                  </angle>
                  <angle>
                    <activevideoangle>false</activevideoangle>
                    <activeaudioangle>false</activeaudioangle>
                    <clip id="clip-6"/>
                  </angle>
                  <angle>
                    <activevideoangle>false</activevideoangle>
                    <activeaudioangle>false</activeaudioangle>
                    <clip id="clip-7"/>
                  </angle>
                  <masterclipid>clip-master</masterclipid>
                </multiclip>
              </clipitem>
              <clipitem id="cs-620">
                <duration>95</duration>
                <rate>
                  <ntsc>false</ntsc>
                  <timebase>25</timebase>
                </rate>
                <in>75541</in>
                <out>75635</out>
                <start>75541</start>
                <end>75635</end>
                <file id="src-2"/>
                <sourcetrack>
                  <mediatype>video</mediatype>
                  <trackindex>1</trackindex>
                </sourcetrack>
                <multiclip id="mcs-620">
                  <name>MCS-620</name>
                  <masterclipid>clip-master</masterclipid>
                  <collapsed>false</collapsed>
                  <angle>
                    <activevideoangle>false</activevideoangle>
                    <activeaudioangle>false</activeaudioangle>
                    <clip id="clip-1"/>
                  </angle>
                  <angle>
                    <activevideoangle>true</activevideoangle>
                    <activeaudioangle>true</activeaudioangle>
                    <clip id="clip-2"/>
                  </angle>
                  <angle>
                    <activevideoangle>false</activevideoangle>
                    <activeaudioangle>false</activeaudioangle>
                    <clip id="clip-3"/>
                  </angle>
                  <angle>
                    <activevideoangle>false</activevideoangle>
                    <activeaudioangle>false</activeaudioangle>
                    <clip id="clip-4"/>
                  </angle>
                  <angle>
                    <activevideoangle>false</activevideoangle>
                    <activeaudioangle>false</activeaudioangle>
                    <clip id="clip-5"/>
                  </angle>
                  <angle>
                    <activevideoangle>false</activevideoangle>
                    <activeaudioangle>false</activeaudioangle>
                    <clip id="clip-6"/>
                  </angle>
                  <angle>
                    <activevideoangle>false</activevideoangle>
                    <activeaudioangle>false</activeaudioangle>
                    <clip id="clip-7"/>
                  </angle>
                  <masterclipid>clip-master</masterclipid>
                </multiclip>
              </clipitem>
              <clipitem id="cs-621">
                <duration>42</duration>
                <rate>
                  <ntsc>false</ntsc>
                  <timebase>25</timebase>
                </rate>
                <in>75635</in>
                <out>75676</out>
                <start>75635</start>
                <end>75676</end>
                <file id="src-6"/>
                <sourcetrack>
                  <mediatype>video</mediatype>
                  <trackindex>1</trackindex>
                </sourcetrack>
                <multiclip id="mcs-621">
                  <name>MCS-621</name>
                  <masterclipid>clip-master</masterclipid>
                  <collapsed>false</collapsed>
                  <angle>
                    <activevideoangle>false</activevideoangle>
                    <activeaudioangle>false</activeaudioangle>
                    <clip id="clip-1"/>
                  </angle>
                  <angle>
                    <activevideoangle>false</activevideoangle>
                    <activeaudioangle>false</activeaudioangle>
                    <clip id="clip-2"/>
                  </angle>
                  <angle>
                    <activevideoangle>false</activevideoangle>
                    <activeaudioangle>false</activeaudioangle>
                    <clip id="clip-3"/>
                  </angle>
                  <angle>
                    <activevideoangle>false</activevideoangle>
                    <activeaudioangle>false</activeaudioangle>
                    <clip id="clip-4"/>
                  </angle>
                  <angle>
                    <activevideoangle>false</activevideoangle>
                    <activeaudioangle>false</activeaudioangle>
                    <clip id="clip-5"/>
                  </angle>
                  <angle>
                    <activevideoangle>true</activevideoangle>
                    <activeaudioangle>true</activeaudioangle>
                    <clip id="clip-6"/>
                  </angle>
                  <angle>
                    <activevideoangle>false</activevideoangle>
                    <activeaudioangle>false</activeaudioangle>
                    <clip id="clip-7"/>
                  </angle>
                  <masterclipid>clip-master</masterclipid>
                </multiclip>
              </clipitem>
              <clipitem id="cs-622">
                <duration>73</duration>
                <rate>
                  <ntsc>false</ntsc>
                  <timebase>25</timebase>
                </rate>
                <in>75676</in>
                <out>75748</out>
                <start>75676</start>
                <end>75748</end>
                <file id="src-3"/>
                <sourcetrack>
                  <mediatype>video</mediatype>
                  <trackindex>1</trackindex>
                </sourcetrack>
                <multiclip id="mcs-622">
                  <name>MCS-622</name>
                  <masterclipid>clip-master</masterclipid>
                  <collapsed>false</collapsed>
                  <angle>
                    <activevideoangle>false</activevideoangle>
                    <activeaudioangle>false</activeaudioangle>
                    <clip id="clip-1"/>
                  </angle>
                  <angle>
                    <activevideoangle>false</activevideoangle>
                    <activeaudioangle>false</activeaudioangle>
                    <clip id="clip-2"/>
                  </angle>
                  <angle>
                    <activevideoangle>true</activevideoangle>
                    <activeaudioangle>true</activeaudioangle>
                    <clip id="clip-3"/>
                  </angle>
                  <angle>
                    <activevideoangle>false</activevideoangle>
                    <activeaudioangle>false</activeaudioangle>
                    <clip id="clip-4"/>
                  </angle>
                  <angle>
                    <activevideoangle>false</activevideoangle>
                    <activeaudioangle>false</activeaudioangle>
                    <clip id="clip-5"/>
                  </angle>
                  <angle>
                    <activevideoangle>false</activevideoangle>
                    <activeaudioangle>false</activeaudioangle>
                    <clip id="clip-6"/>
                  </angle>
                  <angle>
                    <activevideoangle>false</activevideoangle>
                    <activeaudioangle>false</activeaudioangle>
                    <clip id="clip-7"/>
                  </angle>
                  <masterclipid>clip-master</masterclipid>
                </multiclip>
              </clipitem>
              <clipitem id="cs-623">
                <duration>145</duration>
                <rate>
                  <ntsc>false</ntsc>
                  <timebase>25</timebase>
                </rate>
                <in>75748</in>
                <out>75892</out>
                <start>75748</start>
                <end>75892</end>
                <file id="src-2"/>
                <sourcetrack>
                  <mediatype>video</mediatype>
                  <trackindex>1</trackindex>
                </sourcetrack>
                <multiclip id="mcs-623">
                  <name>MCS-623</name>
                  <masterclipid>clip-master</masterclipid>
                  <collapsed>false</collapsed>
                  <angle>
                    <activevideoangle>false</activevideoangle>
                    <activeaudioangle>false</activeaudioangle>
                    <clip id="clip-1"/>
                  </angle>
                  <angle>
                    <activevideoangle>true</activevideoangle>
                    <activeaudioangle>true</activeaudioangle>
                    <clip id="clip-2"/>
                  </angle>
                  <angle>
                    <activevideoangle>false</activevideoangle>
                    <activeaudioangle>false</activeaudioangle>
                    <clip id="clip-3"/>
                  </angle>
                  <angle>
                    <activevideoangle>false</activevideoangle>
                    <activeaudioangle>false</activeaudioangle>
                    <clip id="clip-4"/>
                  </angle>
                  <angle>
                    <activevideoangle>false</activevideoangle>
                    <activeaudioangle>false</activeaudioangle>
                    <clip id="clip-5"/>
                  </angle>
                  <angle>
                    <activevideoangle>false</activevideoangle>
                    <activeaudioangle>false</activeaudioangle>
                    <clip id="clip-6"/>
                  </angle>
                  <angle>
                    <activevideoangle>false</activevideoangle>
                    <activeaudioangle>false</activeaudioangle>
                    <clip id="clip-7"/>
                  </angle>
                  <masterclipid>clip-master</masterclipid>
                </multiclip>
              </clipitem>
              <clipitem id="cs-624">
                <duration>310</duration>
                <rate>
                  <ntsc>false</ntsc>
                  <timebase>25</timebase>
                </rate>
                <in>75892</in>
                <out>76201</out>
                <start>75892</start>
                <end>76201</end>
                <file id="src-3"/>
                <sourcetrack>
                  <mediatype>video</mediatype>
                  <trackindex>1</trackindex>
                </sourcetrack>
                <multiclip id="mcs-624">
                  <name>MCS-624</name>
                  <masterclipid>clip-master</masterclipid>
                  <collapsed>false</collapsed>
                  <angle>
                    <activevideoangle>false</activevideoangle>
                    <activeaudioangle>false</activeaudioangle>
                    <clip id="clip-1"/>
                  </angle>
                  <angle>
                    <activevideoangle>false</activevideoangle>
                    <activeaudioangle>false</activeaudioangle>
                    <clip id="clip-2"/>
                  </angle>
                  <angle>
                    <activevideoangle>true</activevideoangle>
                    <activeaudioangle>true</activeaudioangle>
                    <clip id="clip-3"/>
                  </angle>
                  <angle>
                    <activevideoangle>false</activevideoangle>
                    <activeaudioangle>false</activeaudioangle>
                    <clip id="clip-4"/>
                  </angle>
                  <angle>
                    <activevideoangle>false</activevideoangle>
                    <activeaudioangle>false</activeaudioangle>
                    <clip id="clip-5"/>
                  </angle>
                  <angle>
                    <activevideoangle>false</activevideoangle>
                    <activeaudioangle>false</activeaudioangle>
                    <clip id="clip-6"/>
                  </angle>
                  <angle>
                    <activevideoangle>false</activevideoangle>
                    <activeaudioangle>false</activeaudioangle>
                    <clip id="clip-7"/>
                  </angle>
                  <masterclipid>clip-master</masterclipid>
                </multiclip>
              </clipitem>
              <clipitem id="cs-625">
                <duration>173</duration>
                <rate>
                  <ntsc>false</ntsc>
                  <timebase>25</timebase>
                </rate>
                <in>76201</in>
                <out>76373</out>
                <start>76201</start>
                <end>76373</end>
                <file id="src-2"/>
                <sourcetrack>
                  <mediatype>video</mediatype>
                  <trackindex>1</trackindex>
                </sourcetrack>
                <multiclip id="mcs-625">
                  <name>MCS-625</name>
                  <masterclipid>clip-master</masterclipid>
                  <collapsed>false</collapsed>
                  <angle>
                    <activevideoangle>false</activevideoangle>
                    <activeaudioangle>false</activeaudioangle>
                    <clip id="clip-1"/>
                  </angle>
                  <angle>
                    <activevideoangle>true</activevideoangle>
                    <activeaudioangle>true</activeaudioangle>
                    <clip id="clip-2"/>
                  </angle>
                  <angle>
                    <activevideoangle>false</activevideoangle>
                    <activeaudioangle>false</activeaudioangle>
                    <clip id="clip-3"/>
                  </angle>
                  <angle>
                    <activevideoangle>false</activevideoangle>
                    <activeaudioangle>false</activeaudioangle>
                    <clip id="clip-4"/>
                  </angle>
                  <angle>
                    <activevideoangle>false</activevideoangle>
                    <activeaudioangle>false</activeaudioangle>
                    <clip id="clip-5"/>
                  </angle>
                  <angle>
                    <activevideoangle>false</activevideoangle>
                    <activeaudioangle>false</activeaudioangle>
                    <clip id="clip-6"/>
                  </angle>
                  <angle>
                    <activevideoangle>false</activevideoangle>
                    <activeaudioangle>false</activeaudioangle>
                    <clip id="clip-7"/>
                  </angle>
                  <masterclipid>clip-master</masterclipid>
                </multiclip>
              </clipitem>
              <clipitem id="cs-626">
                <duration>162</duration>
                <rate>
                  <ntsc>false</ntsc>
                  <timebase>25</timebase>
                </rate>
                <in>76373</in>
                <out>76534</out>
                <start>76373</start>
                <end>76534</end>
                <file id="src-4"/>
                <sourcetrack>
                  <mediatype>video</mediatype>
                  <trackindex>1</trackindex>
                </sourcetrack>
                <multiclip id="mcs-626">
                  <name>MCS-626</name>
                  <masterclipid>clip-master</masterclipid>
                  <collapsed>false</collapsed>
                  <angle>
                    <activevideoangle>false</activevideoangle>
                    <activeaudioangle>false</activeaudioangle>
                    <clip id="clip-1"/>
                  </angle>
                  <angle>
                    <activevideoangle>false</activevideoangle>
                    <activeaudioangle>false</activeaudioangle>
                    <clip id="clip-2"/>
                  </angle>
                  <angle>
                    <activevideoangle>false</activevideoangle>
                    <activeaudioangle>false</activeaudioangle>
                    <clip id="clip-3"/>
                  </angle>
                  <angle>
                    <activevideoangle>true</activevideoangle>
                    <activeaudioangle>true</activeaudioangle>
                    <clip id="clip-4"/>
                  </angle>
                  <angle>
                    <activevideoangle>false</activevideoangle>
                    <activeaudioangle>false</activeaudioangle>
                    <clip id="clip-5"/>
                  </angle>
                  <angle>
                    <activevideoangle>false</activevideoangle>
                    <activeaudioangle>false</activeaudioangle>
                    <clip id="clip-6"/>
                  </angle>
                  <angle>
                    <activevideoangle>false</activevideoangle>
                    <activeaudioangle>false</activeaudioangle>
                    <clip id="clip-7"/>
                  </angle>
                  <masterclipid>clip-master</masterclipid>
                </multiclip>
              </clipitem>
              <clipitem id="cs-627">
                <duration>94</duration>
                <rate>
                  <ntsc>false</ntsc>
                  <timebase>25</timebase>
                </rate>
                <in>76534</in>
                <out>76627</out>
                <start>76534</start>
                <end>76627</end>
                <file id="src-3"/>
                <sourcetrack>
                  <mediatype>video</mediatype>
                  <trackindex>1</trackindex>
                </sourcetrack>
                <multiclip id="mcs-627">
                  <name>MCS-627</name>
                  <masterclipid>clip-master</masterclipid>
                  <collapsed>false</collapsed>
                  <angle>
                    <activevideoangle>false</activevideoangle>
                    <activeaudioangle>false</activeaudioangle>
                    <clip id="clip-1"/>
                  </angle>
                  <angle>
                    <activevideoangle>false</activevideoangle>
                    <activeaudioangle>false</activeaudioangle>
                    <clip id="clip-2"/>
                  </angle>
                  <angle>
                    <activevideoangle>true</activevideoangle>
                    <activeaudioangle>true</activeaudioangle>
                    <clip id="clip-3"/>
                  </angle>
                  <angle>
                    <activevideoangle>false</activevideoangle>
                    <activeaudioangle>false</activeaudioangle>
                    <clip id="clip-4"/>
                  </angle>
                  <angle>
                    <activevideoangle>false</activevideoangle>
                    <activeaudioangle>false</activeaudioangle>
                    <clip id="clip-5"/>
                  </angle>
                  <angle>
                    <activevideoangle>false</activevideoangle>
                    <activeaudioangle>false</activeaudioangle>
                    <clip id="clip-6"/>
                  </angle>
                  <angle>
                    <activevideoangle>false</activevideoangle>
                    <activeaudioangle>false</activeaudioangle>
                    <clip id="clip-7"/>
                  </angle>
                  <masterclipid>clip-master</masterclipid>
                </multiclip>
              </clipitem>
              <clipitem id="cs-628">
                <duration>1225</duration>
                <rate>
                  <ntsc>false</ntsc>
                  <timebase>25</timebase>
                </rate>
                <in>76627</in>
                <out>77851</out>
                <start>76627</start>
                <end>77851</end>
                <file id="src-2"/>
                <sourcetrack>
                  <mediatype>video</mediatype>
                  <trackindex>1</trackindex>
                </sourcetrack>
                <multiclip id="mcs-628">
                  <name>MCS-628</name>
                  <masterclipid>clip-master</masterclipid>
                  <collapsed>false</collapsed>
                  <angle>
                    <activevideoangle>false</activevideoangle>
                    <activeaudioangle>false</activeaudioangle>
                    <clip id="clip-1"/>
                  </angle>
                  <angle>
                    <activevideoangle>true</activevideoangle>
                    <activeaudioangle>true</activeaudioangle>
                    <clip id="clip-2"/>
                  </angle>
                  <angle>
                    <activevideoangle>false</activevideoangle>
                    <activeaudioangle>false</activeaudioangle>
                    <clip id="clip-3"/>
                  </angle>
                  <angle>
                    <activevideoangle>false</activevideoangle>
                    <activeaudioangle>false</activeaudioangle>
                    <clip id="clip-4"/>
                  </angle>
                  <angle>
                    <activevideoangle>false</activevideoangle>
                    <activeaudioangle>false</activeaudioangle>
                    <clip id="clip-5"/>
                  </angle>
                  <angle>
                    <activevideoangle>false</activevideoangle>
                    <activeaudioangle>false</activeaudioangle>
                    <clip id="clip-6"/>
                  </angle>
                  <angle>
                    <activevideoangle>false</activevideoangle>
                    <activeaudioangle>false</activeaudioangle>
                    <clip id="clip-7"/>
                  </angle>
                  <masterclipid>clip-master</masterclipid>
                </multiclip>
              </clipitem>
              <clipitem id="cs-629">
                <duration>352</duration>
                <rate>
                  <ntsc>false</ntsc>
                  <timebase>25</timebase>
                </rate>
                <in>77851</in>
                <out>78202</out>
                <start>77851</start>
                <end>78202</end>
                <file id="src-1"/>
                <sourcetrack>
                  <mediatype>video</mediatype>
                  <trackindex>1</trackindex>
                </sourcetrack>
                <multiclip id="mcs-629">
                  <name>MCS-629</name>
                  <masterclipid>clip-master</masterclipid>
                  <collapsed>false</collapsed>
                  <angle>
                    <activevideoangle>true</activevideoangle>
                    <activeaudioangle>true</activeaudioangle>
                    <clip id="clip-1"/>
                  </angle>
                  <angle>
                    <activevideoangle>false</activevideoangle>
                    <activeaudioangle>false</activeaudioangle>
                    <clip id="clip-2"/>
                  </angle>
                  <angle>
                    <activevideoangle>false</activevideoangle>
                    <activeaudioangle>false</activeaudioangle>
                    <clip id="clip-3"/>
                  </angle>
                  <angle>
                    <activevideoangle>false</activevideoangle>
                    <activeaudioangle>false</activeaudioangle>
                    <clip id="clip-4"/>
                  </angle>
                  <angle>
                    <activevideoangle>false</activevideoangle>
                    <activeaudioangle>false</activeaudioangle>
                    <clip id="clip-5"/>
                  </angle>
                  <angle>
                    <activevideoangle>false</activevideoangle>
                    <activeaudioangle>false</activeaudioangle>
                    <clip id="clip-6"/>
                  </angle>
                  <angle>
                    <activevideoangle>false</activevideoangle>
                    <activeaudioangle>false</activeaudioangle>
                    <clip id="clip-7"/>
                  </angle>
                  <masterclipid>clip-master</masterclipid>
                </multiclip>
              </clipitem>
              <clipitem id="cs-630">
                <duration>121</duration>
                <rate>
                  <ntsc>false</ntsc>
                  <timebase>25</timebase>
                </rate>
                <in>78202</in>
                <out>78322</out>
                <start>78202</start>
                <end>78322</end>
                <file id="src-6"/>
                <sourcetrack>
                  <mediatype>video</mediatype>
                  <trackindex>1</trackindex>
                </sourcetrack>
                <multiclip id="mcs-630">
                  <name>MCS-630</name>
                  <masterclipid>clip-master</masterclipid>
                  <collapsed>false</collapsed>
                  <angle>
                    <activevideoangle>false</activevideoangle>
                    <activeaudioangle>false</activeaudioangle>
                    <clip id="clip-1"/>
                  </angle>
                  <angle>
                    <activevideoangle>false</activevideoangle>
                    <activeaudioangle>false</activeaudioangle>
                    <clip id="clip-2"/>
                  </angle>
                  <angle>
                    <activevideoangle>false</activevideoangle>
                    <activeaudioangle>false</activeaudioangle>
                    <clip id="clip-3"/>
                  </angle>
                  <angle>
                    <activevideoangle>false</activevideoangle>
                    <activeaudioangle>false</activeaudioangle>
                    <clip id="clip-4"/>
                  </angle>
                  <angle>
                    <activevideoangle>false</activevideoangle>
                    <activeaudioangle>false</activeaudioangle>
                    <clip id="clip-5"/>
                  </angle>
                  <angle>
                    <activevideoangle>true</activevideoangle>
                    <activeaudioangle>true</activeaudioangle>
                    <clip id="clip-6"/>
                  </angle>
                  <angle>
                    <activevideoangle>false</activevideoangle>
                    <activeaudioangle>false</activeaudioangle>
                    <clip id="clip-7"/>
                  </angle>
                  <masterclipid>clip-master</masterclipid>
                </multiclip>
              </clipitem>
              <clipitem id="cs-631">
                <duration>103</duration>
                <rate>
                  <ntsc>false</ntsc>
                  <timebase>25</timebase>
                </rate>
                <in>78322</in>
                <out>78424</out>
                <start>78322</start>
                <end>78424</end>
                <file id="src-3"/>
                <sourcetrack>
                  <mediatype>video</mediatype>
                  <trackindex>1</trackindex>
                </sourcetrack>
                <multiclip id="mcs-631">
                  <name>MCS-631</name>
                  <masterclipid>clip-master</masterclipid>
                  <collapsed>false</collapsed>
                  <angle>
                    <activevideoangle>false</activevideoangle>
                    <activeaudioangle>false</activeaudioangle>
                    <clip id="clip-1"/>
                  </angle>
                  <angle>
                    <activevideoangle>false</activevideoangle>
                    <activeaudioangle>false</activeaudioangle>
                    <clip id="clip-2"/>
                  </angle>
                  <angle>
                    <activevideoangle>true</activevideoangle>
                    <activeaudioangle>true</activeaudioangle>
                    <clip id="clip-3"/>
                  </angle>
                  <angle>
                    <activevideoangle>false</activevideoangle>
                    <activeaudioangle>false</activeaudioangle>
                    <clip id="clip-4"/>
                  </angle>
                  <angle>
                    <activevideoangle>false</activevideoangle>
                    <activeaudioangle>false</activeaudioangle>
                    <clip id="clip-5"/>
                  </angle>
                  <angle>
                    <activevideoangle>false</activevideoangle>
                    <activeaudioangle>false</activeaudioangle>
                    <clip id="clip-6"/>
                  </angle>
                  <angle>
                    <activevideoangle>false</activevideoangle>
                    <activeaudioangle>false</activeaudioangle>
                    <clip id="clip-7"/>
                  </angle>
                  <masterclipid>clip-master</masterclipid>
                </multiclip>
              </clipitem>
              <clipitem id="cs-632">
                <duration>62</duration>
                <rate>
                  <ntsc>false</ntsc>
                  <timebase>25</timebase>
                </rate>
                <in>78424</in>
                <out>78485</out>
                <start>78424</start>
                <end>78485</end>
                <file id="src-1"/>
                <sourcetrack>
                  <mediatype>video</mediatype>
                  <trackindex>1</trackindex>
                </sourcetrack>
                <multiclip id="mcs-632">
                  <name>MCS-632</name>
                  <masterclipid>clip-master</masterclipid>
                  <collapsed>false</collapsed>
                  <angle>
                    <activevideoangle>true</activevideoangle>
                    <activeaudioangle>true</activeaudioangle>
                    <clip id="clip-1"/>
                  </angle>
                  <angle>
                    <activevideoangle>false</activevideoangle>
                    <activeaudioangle>false</activeaudioangle>
                    <clip id="clip-2"/>
                  </angle>
                  <angle>
                    <activevideoangle>false</activevideoangle>
                    <activeaudioangle>false</activeaudioangle>
                    <clip id="clip-3"/>
                  </angle>
                  <angle>
                    <activevideoangle>false</activevideoangle>
                    <activeaudioangle>false</activeaudioangle>
                    <clip id="clip-4"/>
                  </angle>
                  <angle>
                    <activevideoangle>false</activevideoangle>
                    <activeaudioangle>false</activeaudioangle>
                    <clip id="clip-5"/>
                  </angle>
                  <angle>
                    <activevideoangle>false</activevideoangle>
                    <activeaudioangle>false</activeaudioangle>
                    <clip id="clip-6"/>
                  </angle>
                  <angle>
                    <activevideoangle>false</activevideoangle>
                    <activeaudioangle>false</activeaudioangle>
                    <clip id="clip-7"/>
                  </angle>
                  <masterclipid>clip-master</masterclipid>
                </multiclip>
              </clipitem>
              <clipitem id="cs-633">
                <duration>96</duration>
                <rate>
                  <ntsc>false</ntsc>
                  <timebase>25</timebase>
                </rate>
                <in>78485</in>
                <out>78580</out>
                <start>78485</start>
                <end>78580</end>
                <file id="src-4"/>
                <sourcetrack>
                  <mediatype>video</mediatype>
                  <trackindex>1</trackindex>
                </sourcetrack>
                <multiclip id="mcs-633">
                  <name>MCS-633</name>
                  <masterclipid>clip-master</masterclipid>
                  <collapsed>false</collapsed>
                  <angle>
                    <activevideoangle>false</activevideoangle>
                    <activeaudioangle>false</activeaudioangle>
                    <clip id="clip-1"/>
                  </angle>
                  <angle>
                    <activevideoangle>false</activevideoangle>
                    <activeaudioangle>false</activeaudioangle>
                    <clip id="clip-2"/>
                  </angle>
                  <angle>
                    <activevideoangle>false</activevideoangle>
                    <activeaudioangle>false</activeaudioangle>
                    <clip id="clip-3"/>
                  </angle>
                  <angle>
                    <activevideoangle>true</activevideoangle>
                    <activeaudioangle>true</activeaudioangle>
                    <clip id="clip-4"/>
                  </angle>
                  <angle>
                    <activevideoangle>false</activevideoangle>
                    <activeaudioangle>false</activeaudioangle>
                    <clip id="clip-5"/>
                  </angle>
                  <angle>
                    <activevideoangle>false</activevideoangle>
                    <activeaudioangle>false</activeaudioangle>
                    <clip id="clip-6"/>
                  </angle>
                  <angle>
                    <activevideoangle>false</activevideoangle>
                    <activeaudioangle>false</activeaudioangle>
                    <clip id="clip-7"/>
                  </angle>
                  <masterclipid>clip-master</masterclipid>
                </multiclip>
              </clipitem>
              <clipitem id="cs-634">
                <duration>76</duration>
                <rate>
                  <ntsc>false</ntsc>
                  <timebase>25</timebase>
                </rate>
                <in>78580</in>
                <out>78655</out>
                <start>78580</start>
                <end>78655</end>
                <file id="src-3"/>
                <sourcetrack>
                  <mediatype>video</mediatype>
                  <trackindex>1</trackindex>
                </sourcetrack>
                <multiclip id="mcs-634">
                  <name>MCS-634</name>
                  <masterclipid>clip-master</masterclipid>
                  <collapsed>false</collapsed>
                  <angle>
                    <activevideoangle>false</activevideoangle>
                    <activeaudioangle>false</activeaudioangle>
                    <clip id="clip-1"/>
                  </angle>
                  <angle>
                    <activevideoangle>false</activevideoangle>
                    <activeaudioangle>false</activeaudioangle>
                    <clip id="clip-2"/>
                  </angle>
                  <angle>
                    <activevideoangle>true</activevideoangle>
                    <activeaudioangle>true</activeaudioangle>
                    <clip id="clip-3"/>
                  </angle>
                  <angle>
                    <activevideoangle>false</activevideoangle>
                    <activeaudioangle>false</activeaudioangle>
                    <clip id="clip-4"/>
                  </angle>
                  <angle>
                    <activevideoangle>false</activevideoangle>
                    <activeaudioangle>false</activeaudioangle>
                    <clip id="clip-5"/>
                  </angle>
                  <angle>
                    <activevideoangle>false</activevideoangle>
                    <activeaudioangle>false</activeaudioangle>
                    <clip id="clip-6"/>
                  </angle>
                  <angle>
                    <activevideoangle>false</activevideoangle>
                    <activeaudioangle>false</activeaudioangle>
                    <clip id="clip-7"/>
                  </angle>
                  <masterclipid>clip-master</masterclipid>
                </multiclip>
              </clipitem>
              <clipitem id="cs-635">
                <duration>100</duration>
                <rate>
                  <ntsc>false</ntsc>
                  <timebase>25</timebase>
                </rate>
                <in>78655</in>
                <out>78754</out>
                <start>78655</start>
                <end>78754</end>
                <file id="src-6"/>
                <sourcetrack>
                  <mediatype>video</mediatype>
                  <trackindex>1</trackindex>
                </sourcetrack>
                <multiclip id="mcs-635">
                  <name>MCS-635</name>
                  <masterclipid>clip-master</masterclipid>
                  <collapsed>false</collapsed>
                  <angle>
                    <activevideoangle>false</activevideoangle>
                    <activeaudioangle>false</activeaudioangle>
                    <clip id="clip-1"/>
                  </angle>
                  <angle>
                    <activevideoangle>false</activevideoangle>
                    <activeaudioangle>false</activeaudioangle>
                    <clip id="clip-2"/>
                  </angle>
                  <angle>
                    <activevideoangle>false</activevideoangle>
                    <activeaudioangle>false</activeaudioangle>
                    <clip id="clip-3"/>
                  </angle>
                  <angle>
                    <activevideoangle>false</activevideoangle>
                    <activeaudioangle>false</activeaudioangle>
                    <clip id="clip-4"/>
                  </angle>
                  <angle>
                    <activevideoangle>false</activevideoangle>
                    <activeaudioangle>false</activeaudioangle>
                    <clip id="clip-5"/>
                  </angle>
                  <angle>
                    <activevideoangle>true</activevideoangle>
                    <activeaudioangle>true</activeaudioangle>
                    <clip id="clip-6"/>
                  </angle>
                  <angle>
                    <activevideoangle>false</activevideoangle>
                    <activeaudioangle>false</activeaudioangle>
                    <clip id="clip-7"/>
                  </angle>
                  <masterclipid>clip-master</masterclipid>
                </multiclip>
              </clipitem>
              <clipitem id="cs-636">
                <duration>144</duration>
                <rate>
                  <ntsc>false</ntsc>
                  <timebase>25</timebase>
                </rate>
                <in>78754</in>
                <out>78897</out>
                <start>78754</start>
                <end>78897</end>
                <file id="src-3"/>
                <sourcetrack>
                  <mediatype>video</mediatype>
                  <trackindex>1</trackindex>
                </sourcetrack>
                <multiclip id="mcs-636">
                  <name>MCS-636</name>
                  <masterclipid>clip-master</masterclipid>
                  <collapsed>false</collapsed>
                  <angle>
                    <activevideoangle>false</activevideoangle>
                    <activeaudioangle>false</activeaudioangle>
                    <clip id="clip-1"/>
                  </angle>
                  <angle>
                    <activevideoangle>false</activevideoangle>
                    <activeaudioangle>false</activeaudioangle>
                    <clip id="clip-2"/>
                  </angle>
                  <angle>
                    <activevideoangle>true</activevideoangle>
                    <activeaudioangle>true</activeaudioangle>
                    <clip id="clip-3"/>
                  </angle>
                  <angle>
                    <activevideoangle>false</activevideoangle>
                    <activeaudioangle>false</activeaudioangle>
                    <clip id="clip-4"/>
                  </angle>
                  <angle>
                    <activevideoangle>false</activevideoangle>
                    <activeaudioangle>false</activeaudioangle>
                    <clip id="clip-5"/>
                  </angle>
                  <angle>
                    <activevideoangle>false</activevideoangle>
                    <activeaudioangle>false</activeaudioangle>
                    <clip id="clip-6"/>
                  </angle>
                  <angle>
                    <activevideoangle>false</activevideoangle>
                    <activeaudioangle>false</activeaudioangle>
                    <clip id="clip-7"/>
                  </angle>
                  <masterclipid>clip-master</masterclipid>
                </multiclip>
              </clipitem>
              <clipitem id="cs-637">
                <duration>58</duration>
                <rate>
                  <ntsc>false</ntsc>
                  <timebase>25</timebase>
                </rate>
                <in>78897</in>
                <out>78954</out>
                <start>78897</start>
                <end>78954</end>
                <file id="src-6"/>
                <sourcetrack>
                  <mediatype>video</mediatype>
                  <trackindex>1</trackindex>
                </sourcetrack>
                <multiclip id="mcs-637">
                  <name>MCS-637</name>
                  <masterclipid>clip-master</masterclipid>
                  <collapsed>false</collapsed>
                  <angle>
                    <activevideoangle>false</activevideoangle>
                    <activeaudioangle>false</activeaudioangle>
                    <clip id="clip-1"/>
                  </angle>
                  <angle>
                    <activevideoangle>false</activevideoangle>
                    <activeaudioangle>false</activeaudioangle>
                    <clip id="clip-2"/>
                  </angle>
                  <angle>
                    <activevideoangle>false</activevideoangle>
                    <activeaudioangle>false</activeaudioangle>
                    <clip id="clip-3"/>
                  </angle>
                  <angle>
                    <activevideoangle>false</activevideoangle>
                    <activeaudioangle>false</activeaudioangle>
                    <clip id="clip-4"/>
                  </angle>
                  <angle>
                    <activevideoangle>false</activevideoangle>
                    <activeaudioangle>false</activeaudioangle>
                    <clip id="clip-5"/>
                  </angle>
                  <angle>
                    <activevideoangle>true</activevideoangle>
                    <activeaudioangle>true</activeaudioangle>
                    <clip id="clip-6"/>
                  </angle>
                  <angle>
                    <activevideoangle>false</activevideoangle>
                    <activeaudioangle>false</activeaudioangle>
                    <clip id="clip-7"/>
                  </angle>
                  <masterclipid>clip-master</masterclipid>
                </multiclip>
              </clipitem>
              <clipitem id="cs-638">
                <duration>119</duration>
                <rate>
                  <ntsc>false</ntsc>
                  <timebase>25</timebase>
                </rate>
                <in>78954</in>
                <out>79072</out>
                <start>78954</start>
                <end>79072</end>
                <file id="src-2"/>
                <sourcetrack>
                  <mediatype>video</mediatype>
                  <trackindex>1</trackindex>
                </sourcetrack>
                <multiclip id="mcs-638">
                  <name>MCS-638</name>
                  <masterclipid>clip-master</masterclipid>
                  <collapsed>false</collapsed>
                  <angle>
                    <activevideoangle>false</activevideoangle>
                    <activeaudioangle>false</activeaudioangle>
                    <clip id="clip-1"/>
                  </angle>
                  <angle>
                    <activevideoangle>true</activevideoangle>
                    <activeaudioangle>true</activeaudioangle>
                    <clip id="clip-2"/>
                  </angle>
                  <angle>
                    <activevideoangle>false</activevideoangle>
                    <activeaudioangle>false</activeaudioangle>
                    <clip id="clip-3"/>
                  </angle>
                  <angle>
                    <activevideoangle>false</activevideoangle>
                    <activeaudioangle>false</activeaudioangle>
                    <clip id="clip-4"/>
                  </angle>
                  <angle>
                    <activevideoangle>false</activevideoangle>
                    <activeaudioangle>false</activeaudioangle>
                    <clip id="clip-5"/>
                  </angle>
                  <angle>
                    <activevideoangle>false</activevideoangle>
                    <activeaudioangle>false</activeaudioangle>
                    <clip id="clip-6"/>
                  </angle>
                  <angle>
                    <activevideoangle>false</activevideoangle>
                    <activeaudioangle>false</activeaudioangle>
                    <clip id="clip-7"/>
                  </angle>
                  <masterclipid>clip-master</masterclipid>
                </multiclip>
              </clipitem>
              <clipitem id="cs-639">
                <duration>80</duration>
                <rate>
                  <ntsc>false</ntsc>
                  <timebase>25</timebase>
                </rate>
                <in>79072</in>
                <out>79151</out>
                <start>79072</start>
                <end>79151</end>
                <file id="src-3"/>
                <sourcetrack>
                  <mediatype>video</mediatype>
                  <trackindex>1</trackindex>
                </sourcetrack>
                <multiclip id="mcs-639">
                  <name>MCS-639</name>
                  <masterclipid>clip-master</masterclipid>
                  <collapsed>false</collapsed>
                  <angle>
                    <activevideoangle>false</activevideoangle>
                    <activeaudioangle>false</activeaudioangle>
                    <clip id="clip-1"/>
                  </angle>
                  <angle>
                    <activevideoangle>false</activevideoangle>
                    <activeaudioangle>false</activeaudioangle>
                    <clip id="clip-2"/>
                  </angle>
                  <angle>
                    <activevideoangle>true</activevideoangle>
                    <activeaudioangle>true</activeaudioangle>
                    <clip id="clip-3"/>
                  </angle>
                  <angle>
                    <activevideoangle>false</activevideoangle>
                    <activeaudioangle>false</activeaudioangle>
                    <clip id="clip-4"/>
                  </angle>
                  <angle>
                    <activevideoangle>false</activevideoangle>
                    <activeaudioangle>false</activeaudioangle>
                    <clip id="clip-5"/>
                  </angle>
                  <angle>
                    <activevideoangle>false</activevideoangle>
                    <activeaudioangle>false</activeaudioangle>
                    <clip id="clip-6"/>
                  </angle>
                  <angle>
                    <activevideoangle>false</activevideoangle>
                    <activeaudioangle>false</activeaudioangle>
                    <clip id="clip-7"/>
                  </angle>
                  <masterclipid>clip-master</masterclipid>
                </multiclip>
              </clipitem>
              <clipitem id="cs-640">
                <duration>116</duration>
                <rate>
                  <ntsc>false</ntsc>
                  <timebase>25</timebase>
                </rate>
                <in>79151</in>
                <out>79266</out>
                <start>79151</start>
                <end>79266</end>
                <file id="src-2"/>
                <sourcetrack>
                  <mediatype>video</mediatype>
                  <trackindex>1</trackindex>
                </sourcetrack>
                <multiclip id="mcs-640">
                  <name>MCS-640</name>
                  <masterclipid>clip-master</masterclipid>
                  <collapsed>false</collapsed>
                  <angle>
                    <activevideoangle>false</activevideoangle>
                    <activeaudioangle>false</activeaudioangle>
                    <clip id="clip-1"/>
                  </angle>
                  <angle>
                    <activevideoangle>true</activevideoangle>
                    <activeaudioangle>true</activeaudioangle>
                    <clip id="clip-2"/>
                  </angle>
                  <angle>
                    <activevideoangle>false</activevideoangle>
                    <activeaudioangle>false</activeaudioangle>
                    <clip id="clip-3"/>
                  </angle>
                  <angle>
                    <activevideoangle>false</activevideoangle>
                    <activeaudioangle>false</activeaudioangle>
                    <clip id="clip-4"/>
                  </angle>
                  <angle>
                    <activevideoangle>false</activevideoangle>
                    <activeaudioangle>false</activeaudioangle>
                    <clip id="clip-5"/>
                  </angle>
                  <angle>
                    <activevideoangle>false</activevideoangle>
                    <activeaudioangle>false</activeaudioangle>
                    <clip id="clip-6"/>
                  </angle>
                  <angle>
                    <activevideoangle>false</activevideoangle>
                    <activeaudioangle>false</activeaudioangle>
                    <clip id="clip-7"/>
                  </angle>
                  <masterclipid>clip-master</masterclipid>
                </multiclip>
              </clipitem>
              <clipitem id="cs-641">
                <duration>62</duration>
                <rate>
                  <ntsc>false</ntsc>
                  <timebase>25</timebase>
                </rate>
                <in>79266</in>
                <out>79327</out>
                <start>79266</start>
                <end>79327</end>
                <file id="src-6"/>
                <sourcetrack>
                  <mediatype>video</mediatype>
                  <trackindex>1</trackindex>
                </sourcetrack>
                <multiclip id="mcs-641">
                  <name>MCS-641</name>
                  <masterclipid>clip-master</masterclipid>
                  <collapsed>false</collapsed>
                  <angle>
                    <activevideoangle>false</activevideoangle>
                    <activeaudioangle>false</activeaudioangle>
                    <clip id="clip-1"/>
                  </angle>
                  <angle>
                    <activevideoangle>false</activevideoangle>
                    <activeaudioangle>false</activeaudioangle>
                    <clip id="clip-2"/>
                  </angle>
                  <angle>
                    <activevideoangle>false</activevideoangle>
                    <activeaudioangle>false</activeaudioangle>
                    <clip id="clip-3"/>
                  </angle>
                  <angle>
                    <activevideoangle>false</activevideoangle>
                    <activeaudioangle>false</activeaudioangle>
                    <clip id="clip-4"/>
                  </angle>
                  <angle>
                    <activevideoangle>false</activevideoangle>
                    <activeaudioangle>false</activeaudioangle>
                    <clip id="clip-5"/>
                  </angle>
                  <angle>
                    <activevideoangle>true</activevideoangle>
                    <activeaudioangle>true</activeaudioangle>
                    <clip id="clip-6"/>
                  </angle>
                  <angle>
                    <activevideoangle>false</activevideoangle>
                    <activeaudioangle>false</activeaudioangle>
                    <clip id="clip-7"/>
                  </angle>
                  <masterclipid>clip-master</masterclipid>
                </multiclip>
              </clipitem>
              <clipitem id="cs-642">
                <duration>214</duration>
                <rate>
                  <ntsc>false</ntsc>
                  <timebase>25</timebase>
                </rate>
                <in>79327</in>
                <out>79540</out>
                <start>79327</start>
                <end>79540</end>
                <file id="src-3"/>
                <sourcetrack>
                  <mediatype>video</mediatype>
                  <trackindex>1</trackindex>
                </sourcetrack>
                <multiclip id="mcs-642">
                  <name>MCS-642</name>
                  <masterclipid>clip-master</masterclipid>
                  <collapsed>false</collapsed>
                  <angle>
                    <activevideoangle>false</activevideoangle>
                    <activeaudioangle>false</activeaudioangle>
                    <clip id="clip-1"/>
                  </angle>
                  <angle>
                    <activevideoangle>false</activevideoangle>
                    <activeaudioangle>false</activeaudioangle>
                    <clip id="clip-2"/>
                  </angle>
                  <angle>
                    <activevideoangle>true</activevideoangle>
                    <activeaudioangle>true</activeaudioangle>
                    <clip id="clip-3"/>
                  </angle>
                  <angle>
                    <activevideoangle>false</activevideoangle>
                    <activeaudioangle>false</activeaudioangle>
                    <clip id="clip-4"/>
                  </angle>
                  <angle>
                    <activevideoangle>false</activevideoangle>
                    <activeaudioangle>false</activeaudioangle>
                    <clip id="clip-5"/>
                  </angle>
                  <angle>
                    <activevideoangle>false</activevideoangle>
                    <activeaudioangle>false</activeaudioangle>
                    <clip id="clip-6"/>
                  </angle>
                  <angle>
                    <activevideoangle>false</activevideoangle>
                    <activeaudioangle>false</activeaudioangle>
                    <clip id="clip-7"/>
                  </angle>
                  <masterclipid>clip-master</masterclipid>
                </multiclip>
              </clipitem>
              <clipitem id="cs-643">
                <duration>88</duration>
                <rate>
                  <ntsc>false</ntsc>
                  <timebase>25</timebase>
                </rate>
                <in>79540</in>
                <out>79627</out>
                <start>79540</start>
                <end>79627</end>
                <file id="src-2"/>
                <sourcetrack>
                  <mediatype>video</mediatype>
                  <trackindex>1</trackindex>
                </sourcetrack>
                <multiclip id="mcs-643">
                  <name>MCS-643</name>
                  <masterclipid>clip-master</masterclipid>
                  <collapsed>false</collapsed>
                  <angle>
                    <activevideoangle>false</activevideoangle>
                    <activeaudioangle>false</activeaudioangle>
                    <clip id="clip-1"/>
                  </angle>
                  <angle>
                    <activevideoangle>true</activevideoangle>
                    <activeaudioangle>true</activeaudioangle>
                    <clip id="clip-2"/>
                  </angle>
                  <angle>
                    <activevideoangle>false</activevideoangle>
                    <activeaudioangle>false</activeaudioangle>
                    <clip id="clip-3"/>
                  </angle>
                  <angle>
                    <activevideoangle>false</activevideoangle>
                    <activeaudioangle>false</activeaudioangle>
                    <clip id="clip-4"/>
                  </angle>
                  <angle>
                    <activevideoangle>false</activevideoangle>
                    <activeaudioangle>false</activeaudioangle>
                    <clip id="clip-5"/>
                  </angle>
                  <angle>
                    <activevideoangle>false</activevideoangle>
                    <activeaudioangle>false</activeaudioangle>
                    <clip id="clip-6"/>
                  </angle>
                  <angle>
                    <activevideoangle>false</activevideoangle>
                    <activeaudioangle>false</activeaudioangle>
                    <clip id="clip-7"/>
                  </angle>
                  <masterclipid>clip-master</masterclipid>
                </multiclip>
              </clipitem>
              <clipitem id="cs-644">
                <duration>152</duration>
                <rate>
                  <ntsc>false</ntsc>
                  <timebase>25</timebase>
                </rate>
                <in>79627</in>
                <out>79778</out>
                <start>79627</start>
                <end>79778</end>
                <file id="src-3"/>
                <sourcetrack>
                  <mediatype>video</mediatype>
                  <trackindex>1</trackindex>
                </sourcetrack>
                <multiclip id="mcs-644">
                  <name>MCS-644</name>
                  <masterclipid>clip-master</masterclipid>
                  <collapsed>false</collapsed>
                  <angle>
                    <activevideoangle>false</activevideoangle>
                    <activeaudioangle>false</activeaudioangle>
                    <clip id="clip-1"/>
                  </angle>
                  <angle>
                    <activevideoangle>false</activevideoangle>
                    <activeaudioangle>false</activeaudioangle>
                    <clip id="clip-2"/>
                  </angle>
                  <angle>
                    <activevideoangle>true</activevideoangle>
                    <activeaudioangle>true</activeaudioangle>
                    <clip id="clip-3"/>
                  </angle>
                  <angle>
                    <activevideoangle>false</activevideoangle>
                    <activeaudioangle>false</activeaudioangle>
                    <clip id="clip-4"/>
                  </angle>
                  <angle>
                    <activevideoangle>false</activevideoangle>
                    <activeaudioangle>false</activeaudioangle>
                    <clip id="clip-5"/>
                  </angle>
                  <angle>
                    <activevideoangle>false</activevideoangle>
                    <activeaudioangle>false</activeaudioangle>
                    <clip id="clip-6"/>
                  </angle>
                  <angle>
                    <activevideoangle>false</activevideoangle>
                    <activeaudioangle>false</activeaudioangle>
                    <clip id="clip-7"/>
                  </angle>
                  <masterclipid>clip-master</masterclipid>
                </multiclip>
              </clipitem>
              <clipitem id="cs-645">
                <duration>91</duration>
                <rate>
                  <ntsc>false</ntsc>
                  <timebase>25</timebase>
                </rate>
                <in>79778</in>
                <out>79868</out>
                <start>79778</start>
                <end>79868</end>
                <file id="src-4"/>
                <sourcetrack>
                  <mediatype>video</mediatype>
                  <trackindex>1</trackindex>
                </sourcetrack>
                <multiclip id="mcs-645">
                  <name>MCS-645</name>
                  <masterclipid>clip-master</masterclipid>
                  <collapsed>false</collapsed>
                  <angle>
                    <activevideoangle>false</activevideoangle>
                    <activeaudioangle>false</activeaudioangle>
                    <clip id="clip-1"/>
                  </angle>
                  <angle>
                    <activevideoangle>false</activevideoangle>
                    <activeaudioangle>false</activeaudioangle>
                    <clip id="clip-2"/>
                  </angle>
                  <angle>
                    <activevideoangle>false</activevideoangle>
                    <activeaudioangle>false</activeaudioangle>
                    <clip id="clip-3"/>
                  </angle>
                  <angle>
                    <activevideoangle>true</activevideoangle>
                    <activeaudioangle>true</activeaudioangle>
                    <clip id="clip-4"/>
                  </angle>
                  <angle>
                    <activevideoangle>false</activevideoangle>
                    <activeaudioangle>false</activeaudioangle>
                    <clip id="clip-5"/>
                  </angle>
                  <angle>
                    <activevideoangle>false</activevideoangle>
                    <activeaudioangle>false</activeaudioangle>
                    <clip id="clip-6"/>
                  </angle>
                  <angle>
                    <activevideoangle>false</activevideoangle>
                    <activeaudioangle>false</activeaudioangle>
                    <clip id="clip-7"/>
                  </angle>
                  <masterclipid>clip-master</masterclipid>
                </multiclip>
              </clipitem>
              <clipitem id="cs-646">
                <duration>154</duration>
                <rate>
                  <ntsc>false</ntsc>
                  <timebase>25</timebase>
                </rate>
                <in>79868</in>
                <out>80021</out>
                <start>79868</start>
                <end>80021</end>
                <file id="src-2"/>
                <sourcetrack>
                  <mediatype>video</mediatype>
                  <trackindex>1</trackindex>
                </sourcetrack>
                <multiclip id="mcs-646">
                  <name>MCS-646</name>
                  <masterclipid>clip-master</masterclipid>
                  <collapsed>false</collapsed>
                  <angle>
                    <activevideoangle>false</activevideoangle>
                    <activeaudioangle>false</activeaudioangle>
                    <clip id="clip-1"/>
                  </angle>
                  <angle>
                    <activevideoangle>true</activevideoangle>
                    <activeaudioangle>true</activeaudioangle>
                    <clip id="clip-2"/>
                  </angle>
                  <angle>
                    <activevideoangle>false</activevideoangle>
                    <activeaudioangle>false</activeaudioangle>
                    <clip id="clip-3"/>
                  </angle>
                  <angle>
                    <activevideoangle>false</activevideoangle>
                    <activeaudioangle>false</activeaudioangle>
                    <clip id="clip-4"/>
                  </angle>
                  <angle>
                    <activevideoangle>false</activevideoangle>
                    <activeaudioangle>false</activeaudioangle>
                    <clip id="clip-5"/>
                  </angle>
                  <angle>
                    <activevideoangle>false</activevideoangle>
                    <activeaudioangle>false</activeaudioangle>
                    <clip id="clip-6"/>
                  </angle>
                  <angle>
                    <activevideoangle>false</activevideoangle>
                    <activeaudioangle>false</activeaudioangle>
                    <clip id="clip-7"/>
                  </angle>
                  <masterclipid>clip-master</masterclipid>
                </multiclip>
              </clipitem>
              <clipitem id="cs-647">
                <duration>89</duration>
                <rate>
                  <ntsc>false</ntsc>
                  <timebase>25</timebase>
                </rate>
                <in>80021</in>
                <out>80109</out>
                <start>80021</start>
                <end>80109</end>
                <file id="src-4"/>
                <sourcetrack>
                  <mediatype>video</mediatype>
                  <trackindex>1</trackindex>
                </sourcetrack>
                <multiclip id="mcs-647">
                  <name>MCS-647</name>
                  <masterclipid>clip-master</masterclipid>
                  <collapsed>false</collapsed>
                  <angle>
                    <activevideoangle>false</activevideoangle>
                    <activeaudioangle>false</activeaudioangle>
                    <clip id="clip-1"/>
                  </angle>
                  <angle>
                    <activevideoangle>false</activevideoangle>
                    <activeaudioangle>false</activeaudioangle>
                    <clip id="clip-2"/>
                  </angle>
                  <angle>
                    <activevideoangle>false</activevideoangle>
                    <activeaudioangle>false</activeaudioangle>
                    <clip id="clip-3"/>
                  </angle>
                  <angle>
                    <activevideoangle>true</activevideoangle>
                    <activeaudioangle>true</activeaudioangle>
                    <clip id="clip-4"/>
                  </angle>
                  <angle>
                    <activevideoangle>false</activevideoangle>
                    <activeaudioangle>false</activeaudioangle>
                    <clip id="clip-5"/>
                  </angle>
                  <angle>
                    <activevideoangle>false</activevideoangle>
                    <activeaudioangle>false</activeaudioangle>
                    <clip id="clip-6"/>
                  </angle>
                  <angle>
                    <activevideoangle>false</activevideoangle>
                    <activeaudioangle>false</activeaudioangle>
                    <clip id="clip-7"/>
                  </angle>
                  <masterclipid>clip-master</masterclipid>
                </multiclip>
              </clipitem>
              <clipitem id="cs-648">
                <duration>84</duration>
                <rate>
                  <ntsc>false</ntsc>
                  <timebase>25</timebase>
                </rate>
                <in>80109</in>
                <out>80192</out>
                <start>80109</start>
                <end>80192</end>
                <file id="src-2"/>
                <sourcetrack>
                  <mediatype>video</mediatype>
                  <trackindex>1</trackindex>
                </sourcetrack>
                <multiclip id="mcs-648">
                  <name>MCS-648</name>
                  <masterclipid>clip-master</masterclipid>
                  <collapsed>false</collapsed>
                  <angle>
                    <activevideoangle>false</activevideoangle>
                    <activeaudioangle>false</activeaudioangle>
                    <clip id="clip-1"/>
                  </angle>
                  <angle>
                    <activevideoangle>true</activevideoangle>
                    <activeaudioangle>true</activeaudioangle>
                    <clip id="clip-2"/>
                  </angle>
                  <angle>
                    <activevideoangle>false</activevideoangle>
                    <activeaudioangle>false</activeaudioangle>
                    <clip id="clip-3"/>
                  </angle>
                  <angle>
                    <activevideoangle>false</activevideoangle>
                    <activeaudioangle>false</activeaudioangle>
                    <clip id="clip-4"/>
                  </angle>
                  <angle>
                    <activevideoangle>false</activevideoangle>
                    <activeaudioangle>false</activeaudioangle>
                    <clip id="clip-5"/>
                  </angle>
                  <angle>
                    <activevideoangle>false</activevideoangle>
                    <activeaudioangle>false</activeaudioangle>
                    <clip id="clip-6"/>
                  </angle>
                  <angle>
                    <activevideoangle>false</activevideoangle>
                    <activeaudioangle>false</activeaudioangle>
                    <clip id="clip-7"/>
                  </angle>
                  <masterclipid>clip-master</masterclipid>
                </multiclip>
              </clipitem>
              <clipitem id="cs-649">
                <duration>60</duration>
                <rate>
                  <ntsc>false</ntsc>
                  <timebase>25</timebase>
                </rate>
                <in>80192</in>
                <out>80251</out>
                <start>80192</start>
                <end>80251</end>
                <file id="src-6"/>
                <sourcetrack>
                  <mediatype>video</mediatype>
                  <trackindex>1</trackindex>
                </sourcetrack>
                <multiclip id="mcs-649">
                  <name>MCS-649</name>
                  <masterclipid>clip-master</masterclipid>
                  <collapsed>false</collapsed>
                  <angle>
                    <activevideoangle>false</activevideoangle>
                    <activeaudioangle>false</activeaudioangle>
                    <clip id="clip-1"/>
                  </angle>
                  <angle>
                    <activevideoangle>false</activevideoangle>
                    <activeaudioangle>false</activeaudioangle>
                    <clip id="clip-2"/>
                  </angle>
                  <angle>
                    <activevideoangle>false</activevideoangle>
                    <activeaudioangle>false</activeaudioangle>
                    <clip id="clip-3"/>
                  </angle>
                  <angle>
                    <activevideoangle>false</activevideoangle>
                    <activeaudioangle>false</activeaudioangle>
                    <clip id="clip-4"/>
                  </angle>
                  <angle>
                    <activevideoangle>false</activevideoangle>
                    <activeaudioangle>false</activeaudioangle>
                    <clip id="clip-5"/>
                  </angle>
                  <angle>
                    <activevideoangle>true</activevideoangle>
                    <activeaudioangle>true</activeaudioangle>
                    <clip id="clip-6"/>
                  </angle>
                  <angle>
                    <activevideoangle>false</activevideoangle>
                    <activeaudioangle>false</activeaudioangle>
                    <clip id="clip-7"/>
                  </angle>
                  <masterclipid>clip-master</masterclipid>
                </multiclip>
              </clipitem>
              <clipitem id="cs-650">
                <duration>129</duration>
                <rate>
                  <ntsc>false</ntsc>
                  <timebase>25</timebase>
                </rate>
                <in>80251</in>
                <out>80379</out>
                <start>80251</start>
                <end>80379</end>
                <file id="src-3"/>
                <sourcetrack>
                  <mediatype>video</mediatype>
                  <trackindex>1</trackindex>
                </sourcetrack>
                <multiclip id="mcs-650">
                  <name>MCS-650</name>
                  <masterclipid>clip-master</masterclipid>
                  <collapsed>false</collapsed>
                  <angle>
                    <activevideoangle>false</activevideoangle>
                    <activeaudioangle>false</activeaudioangle>
                    <clip id="clip-1"/>
                  </angle>
                  <angle>
                    <activevideoangle>false</activevideoangle>
                    <activeaudioangle>false</activeaudioangle>
                    <clip id="clip-2"/>
                  </angle>
                  <angle>
                    <activevideoangle>true</activevideoangle>
                    <activeaudioangle>true</activeaudioangle>
                    <clip id="clip-3"/>
                  </angle>
                  <angle>
                    <activevideoangle>false</activevideoangle>
                    <activeaudioangle>false</activeaudioangle>
                    <clip id="clip-4"/>
                  </angle>
                  <angle>
                    <activevideoangle>false</activevideoangle>
                    <activeaudioangle>false</activeaudioangle>
                    <clip id="clip-5"/>
                  </angle>
                  <angle>
                    <activevideoangle>false</activevideoangle>
                    <activeaudioangle>false</activeaudioangle>
                    <clip id="clip-6"/>
                  </angle>
                  <angle>
                    <activevideoangle>false</activevideoangle>
                    <activeaudioangle>false</activeaudioangle>
                    <clip id="clip-7"/>
                  </angle>
                  <masterclipid>clip-master</masterclipid>
                </multiclip>
              </clipitem>
              <clipitem id="cs-651">
                <duration>95</duration>
                <rate>
                  <ntsc>false</ntsc>
                  <timebase>25</timebase>
                </rate>
                <in>80379</in>
                <out>80473</out>
                <start>80379</start>
                <end>80473</end>
                <file id="src-4"/>
                <sourcetrack>
                  <mediatype>video</mediatype>
                  <trackindex>1</trackindex>
                </sourcetrack>
                <multiclip id="mcs-651">
                  <name>MCS-651</name>
                  <masterclipid>clip-master</masterclipid>
                  <collapsed>false</collapsed>
                  <angle>
                    <activevideoangle>false</activevideoangle>
                    <activeaudioangle>false</activeaudioangle>
                    <clip id="clip-1"/>
                  </angle>
                  <angle>
                    <activevideoangle>false</activevideoangle>
                    <activeaudioangle>false</activeaudioangle>
                    <clip id="clip-2"/>
                  </angle>
                  <angle>
                    <activevideoangle>false</activevideoangle>
                    <activeaudioangle>false</activeaudioangle>
                    <clip id="clip-3"/>
                  </angle>
                  <angle>
                    <activevideoangle>true</activevideoangle>
                    <activeaudioangle>true</activeaudioangle>
                    <clip id="clip-4"/>
                  </angle>
                  <angle>
                    <activevideoangle>false</activevideoangle>
                    <activeaudioangle>false</activeaudioangle>
                    <clip id="clip-5"/>
                  </angle>
                  <angle>
                    <activevideoangle>false</activevideoangle>
                    <activeaudioangle>false</activeaudioangle>
                    <clip id="clip-6"/>
                  </angle>
                  <angle>
                    <activevideoangle>false</activevideoangle>
                    <activeaudioangle>false</activeaudioangle>
                    <clip id="clip-7"/>
                  </angle>
                  <masterclipid>clip-master</masterclipid>
                </multiclip>
              </clipitem>
              <clipitem id="cs-652">
                <duration>139</duration>
                <rate>
                  <ntsc>false</ntsc>
                  <timebase>25</timebase>
                </rate>
                <in>80473</in>
                <out>80611</out>
                <start>80473</start>
                <end>80611</end>
                <file id="src-2"/>
                <sourcetrack>
                  <mediatype>video</mediatype>
                  <trackindex>1</trackindex>
                </sourcetrack>
                <multiclip id="mcs-652">
                  <name>MCS-652</name>
                  <masterclipid>clip-master</masterclipid>
                  <collapsed>false</collapsed>
                  <angle>
                    <activevideoangle>false</activevideoangle>
                    <activeaudioangle>false</activeaudioangle>
                    <clip id="clip-1"/>
                  </angle>
                  <angle>
                    <activevideoangle>true</activevideoangle>
                    <activeaudioangle>true</activeaudioangle>
                    <clip id="clip-2"/>
                  </angle>
                  <angle>
                    <activevideoangle>false</activevideoangle>
                    <activeaudioangle>false</activeaudioangle>
                    <clip id="clip-3"/>
                  </angle>
                  <angle>
                    <activevideoangle>false</activevideoangle>
                    <activeaudioangle>false</activeaudioangle>
                    <clip id="clip-4"/>
                  </angle>
                  <angle>
                    <activevideoangle>false</activevideoangle>
                    <activeaudioangle>false</activeaudioangle>
                    <clip id="clip-5"/>
                  </angle>
                  <angle>
                    <activevideoangle>false</activevideoangle>
                    <activeaudioangle>false</activeaudioangle>
                    <clip id="clip-6"/>
                  </angle>
                  <angle>
                    <activevideoangle>false</activevideoangle>
                    <activeaudioangle>false</activeaudioangle>
                    <clip id="clip-7"/>
                  </angle>
                  <masterclipid>clip-master</masterclipid>
                </multiclip>
              </clipitem>
              <clipitem id="cs-653">
                <duration>130</duration>
                <rate>
                  <ntsc>false</ntsc>
                  <timebase>25</timebase>
                </rate>
                <in>80611</in>
                <out>80740</out>
                <start>80611</start>
                <end>80740</end>
                <file id="src-3"/>
                <sourcetrack>
                  <mediatype>video</mediatype>
                  <trackindex>1</trackindex>
                </sourcetrack>
                <multiclip id="mcs-653">
                  <name>MCS-653</name>
                  <masterclipid>clip-master</masterclipid>
                  <collapsed>false</collapsed>
                  <angle>
                    <activevideoangle>false</activevideoangle>
                    <activeaudioangle>false</activeaudioangle>
                    <clip id="clip-1"/>
                  </angle>
                  <angle>
                    <activevideoangle>false</activevideoangle>
                    <activeaudioangle>false</activeaudioangle>
                    <clip id="clip-2"/>
                  </angle>
                  <angle>
                    <activevideoangle>true</activevideoangle>
                    <activeaudioangle>true</activeaudioangle>
                    <clip id="clip-3"/>
                  </angle>
                  <angle>
                    <activevideoangle>false</activevideoangle>
                    <activeaudioangle>false</activeaudioangle>
                    <clip id="clip-4"/>
                  </angle>
                  <angle>
                    <activevideoangle>false</activevideoangle>
                    <activeaudioangle>false</activeaudioangle>
                    <clip id="clip-5"/>
                  </angle>
                  <angle>
                    <activevideoangle>false</activevideoangle>
                    <activeaudioangle>false</activeaudioangle>
                    <clip id="clip-6"/>
                  </angle>
                  <angle>
                    <activevideoangle>false</activevideoangle>
                    <activeaudioangle>false</activeaudioangle>
                    <clip id="clip-7"/>
                  </angle>
                  <masterclipid>clip-master</masterclipid>
                </multiclip>
              </clipitem>
              <clipitem id="cs-654">
                <duration>81</duration>
                <rate>
                  <ntsc>false</ntsc>
                  <timebase>25</timebase>
                </rate>
                <in>80740</in>
                <out>80820</out>
                <start>80740</start>
                <end>80820</end>
                <file id="src-2"/>
                <sourcetrack>
                  <mediatype>video</mediatype>
                  <trackindex>1</trackindex>
                </sourcetrack>
                <multiclip id="mcs-654">
                  <name>MCS-654</name>
                  <masterclipid>clip-master</masterclipid>
                  <collapsed>false</collapsed>
                  <angle>
                    <activevideoangle>false</activevideoangle>
                    <activeaudioangle>false</activeaudioangle>
                    <clip id="clip-1"/>
                  </angle>
                  <angle>
                    <activevideoangle>true</activevideoangle>
                    <activeaudioangle>true</activeaudioangle>
                    <clip id="clip-2"/>
                  </angle>
                  <angle>
                    <activevideoangle>false</activevideoangle>
                    <activeaudioangle>false</activeaudioangle>
                    <clip id="clip-3"/>
                  </angle>
                  <angle>
                    <activevideoangle>false</activevideoangle>
                    <activeaudioangle>false</activeaudioangle>
                    <clip id="clip-4"/>
                  </angle>
                  <angle>
                    <activevideoangle>false</activevideoangle>
                    <activeaudioangle>false</activeaudioangle>
                    <clip id="clip-5"/>
                  </angle>
                  <angle>
                    <activevideoangle>false</activevideoangle>
                    <activeaudioangle>false</activeaudioangle>
                    <clip id="clip-6"/>
                  </angle>
                  <angle>
                    <activevideoangle>false</activevideoangle>
                    <activeaudioangle>false</activeaudioangle>
                    <clip id="clip-7"/>
                  </angle>
                  <masterclipid>clip-master</masterclipid>
                </multiclip>
              </clipitem>
              <clipitem id="cs-655">
                <duration>116</duration>
                <rate>
                  <ntsc>false</ntsc>
                  <timebase>25</timebase>
                </rate>
                <in>80820</in>
                <out>80935</out>
                <start>80820</start>
                <end>80935</end>
                <file id="src-3"/>
                <sourcetrack>
                  <mediatype>video</mediatype>
                  <trackindex>1</trackindex>
                </sourcetrack>
                <multiclip id="mcs-655">
                  <name>MCS-655</name>
                  <masterclipid>clip-master</masterclipid>
                  <collapsed>false</collapsed>
                  <angle>
                    <activevideoangle>false</activevideoangle>
                    <activeaudioangle>false</activeaudioangle>
                    <clip id="clip-1"/>
                  </angle>
                  <angle>
                    <activevideoangle>false</activevideoangle>
                    <activeaudioangle>false</activeaudioangle>
                    <clip id="clip-2"/>
                  </angle>
                  <angle>
                    <activevideoangle>true</activevideoangle>
                    <activeaudioangle>true</activeaudioangle>
                    <clip id="clip-3"/>
                  </angle>
                  <angle>
                    <activevideoangle>false</activevideoangle>
                    <activeaudioangle>false</activeaudioangle>
                    <clip id="clip-4"/>
                  </angle>
                  <angle>
                    <activevideoangle>false</activevideoangle>
                    <activeaudioangle>false</activeaudioangle>
                    <clip id="clip-5"/>
                  </angle>
                  <angle>
                    <activevideoangle>false</activevideoangle>
                    <activeaudioangle>false</activeaudioangle>
                    <clip id="clip-6"/>
                  </angle>
                  <angle>
                    <activevideoangle>false</activevideoangle>
                    <activeaudioangle>false</activeaudioangle>
                    <clip id="clip-7"/>
                  </angle>
                  <masterclipid>clip-master</masterclipid>
                </multiclip>
              </clipitem>
              <clipitem id="cs-656">
                <duration>49</duration>
                <rate>
                  <ntsc>false</ntsc>
                  <timebase>25</timebase>
                </rate>
                <in>80935</in>
                <out>80983</out>
                <start>80935</start>
                <end>80983</end>
                <file id="src-6"/>
                <sourcetrack>
                  <mediatype>video</mediatype>
                  <trackindex>1</trackindex>
                </sourcetrack>
                <multiclip id="mcs-656">
                  <name>MCS-656</name>
                  <masterclipid>clip-master</masterclipid>
                  <collapsed>false</collapsed>
                  <angle>
                    <activevideoangle>false</activevideoangle>
                    <activeaudioangle>false</activeaudioangle>
                    <clip id="clip-1"/>
                  </angle>
                  <angle>
                    <activevideoangle>false</activevideoangle>
                    <activeaudioangle>false</activeaudioangle>
                    <clip id="clip-2"/>
                  </angle>
                  <angle>
                    <activevideoangle>false</activevideoangle>
                    <activeaudioangle>false</activeaudioangle>
                    <clip id="clip-3"/>
                  </angle>
                  <angle>
                    <activevideoangle>false</activevideoangle>
                    <activeaudioangle>false</activeaudioangle>
                    <clip id="clip-4"/>
                  </angle>
                  <angle>
                    <activevideoangle>false</activevideoangle>
                    <activeaudioangle>false</activeaudioangle>
                    <clip id="clip-5"/>
                  </angle>
                  <angle>
                    <activevideoangle>true</activevideoangle>
                    <activeaudioangle>true</activeaudioangle>
                    <clip id="clip-6"/>
                  </angle>
                  <angle>
                    <activevideoangle>false</activevideoangle>
                    <activeaudioangle>false</activeaudioangle>
                    <clip id="clip-7"/>
                  </angle>
                  <masterclipid>clip-master</masterclipid>
                </multiclip>
              </clipitem>
              <clipitem id="cs-657">
                <duration>72</duration>
                <rate>
                  <ntsc>false</ntsc>
                  <timebase>25</timebase>
                </rate>
                <in>80983</in>
                <out>81054</out>
                <start>80983</start>
                <end>81054</end>
                <file id="src-1"/>
                <sourcetrack>
                  <mediatype>video</mediatype>
                  <trackindex>1</trackindex>
                </sourcetrack>
                <multiclip id="mcs-657">
                  <name>MCS-657</name>
                  <masterclipid>clip-master</masterclipid>
                  <collapsed>false</collapsed>
                  <angle>
                    <activevideoangle>true</activevideoangle>
                    <activeaudioangle>true</activeaudioangle>
                    <clip id="clip-1"/>
                  </angle>
                  <angle>
                    <activevideoangle>false</activevideoangle>
                    <activeaudioangle>false</activeaudioangle>
                    <clip id="clip-2"/>
                  </angle>
                  <angle>
                    <activevideoangle>false</activevideoangle>
                    <activeaudioangle>false</activeaudioangle>
                    <clip id="clip-3"/>
                  </angle>
                  <angle>
                    <activevideoangle>false</activevideoangle>
                    <activeaudioangle>false</activeaudioangle>
                    <clip id="clip-4"/>
                  </angle>
                  <angle>
                    <activevideoangle>false</activevideoangle>
                    <activeaudioangle>false</activeaudioangle>
                    <clip id="clip-5"/>
                  </angle>
                  <angle>
                    <activevideoangle>false</activevideoangle>
                    <activeaudioangle>false</activeaudioangle>
                    <clip id="clip-6"/>
                  </angle>
                  <angle>
                    <activevideoangle>false</activevideoangle>
                    <activeaudioangle>false</activeaudioangle>
                    <clip id="clip-7"/>
                  </angle>
                  <masterclipid>clip-master</masterclipid>
                </multiclip>
              </clipitem>
              <clipitem id="cs-658">
                <duration>54</duration>
                <rate>
                  <ntsc>false</ntsc>
                  <timebase>25</timebase>
                </rate>
                <in>81054</in>
                <out>81107</out>
                <start>81054</start>
                <end>81107</end>
                <file id="src-2"/>
                <sourcetrack>
                  <mediatype>video</mediatype>
                  <trackindex>1</trackindex>
                </sourcetrack>
                <multiclip id="mcs-658">
                  <name>MCS-658</name>
                  <masterclipid>clip-master</masterclipid>
                  <collapsed>false</collapsed>
                  <angle>
                    <activevideoangle>false</activevideoangle>
                    <activeaudioangle>false</activeaudioangle>
                    <clip id="clip-1"/>
                  </angle>
                  <angle>
                    <activevideoangle>true</activevideoangle>
                    <activeaudioangle>true</activeaudioangle>
                    <clip id="clip-2"/>
                  </angle>
                  <angle>
                    <activevideoangle>false</activevideoangle>
                    <activeaudioangle>false</activeaudioangle>
                    <clip id="clip-3"/>
                  </angle>
                  <angle>
                    <activevideoangle>false</activevideoangle>
                    <activeaudioangle>false</activeaudioangle>
                    <clip id="clip-4"/>
                  </angle>
                  <angle>
                    <activevideoangle>false</activevideoangle>
                    <activeaudioangle>false</activeaudioangle>
                    <clip id="clip-5"/>
                  </angle>
                  <angle>
                    <activevideoangle>false</activevideoangle>
                    <activeaudioangle>false</activeaudioangle>
                    <clip id="clip-6"/>
                  </angle>
                  <angle>
                    <activevideoangle>false</activevideoangle>
                    <activeaudioangle>false</activeaudioangle>
                    <clip id="clip-7"/>
                  </angle>
                  <masterclipid>clip-master</masterclipid>
                </multiclip>
              </clipitem>
              <clipitem id="cs-659">
                <duration>48</duration>
                <rate>
                  <ntsc>false</ntsc>
                  <timebase>25</timebase>
                </rate>
                <in>81107</in>
                <out>81154</out>
                <start>81107</start>
                <end>81154</end>
                <file id="src-6"/>
                <sourcetrack>
                  <mediatype>video</mediatype>
                  <trackindex>1</trackindex>
                </sourcetrack>
                <multiclip id="mcs-659">
                  <name>MCS-659</name>
                  <masterclipid>clip-master</masterclipid>
                  <collapsed>false</collapsed>
                  <angle>
                    <activevideoangle>false</activevideoangle>
                    <activeaudioangle>false</activeaudioangle>
                    <clip id="clip-1"/>
                  </angle>
                  <angle>
                    <activevideoangle>false</activevideoangle>
                    <activeaudioangle>false</activeaudioangle>
                    <clip id="clip-2"/>
                  </angle>
                  <angle>
                    <activevideoangle>false</activevideoangle>
                    <activeaudioangle>false</activeaudioangle>
                    <clip id="clip-3"/>
                  </angle>
                  <angle>
                    <activevideoangle>false</activevideoangle>
                    <activeaudioangle>false</activeaudioangle>
                    <clip id="clip-4"/>
                  </angle>
                  <angle>
                    <activevideoangle>false</activevideoangle>
                    <activeaudioangle>false</activeaudioangle>
                    <clip id="clip-5"/>
                  </angle>
                  <angle>
                    <activevideoangle>true</activevideoangle>
                    <activeaudioangle>true</activeaudioangle>
                    <clip id="clip-6"/>
                  </angle>
                  <angle>
                    <activevideoangle>false</activevideoangle>
                    <activeaudioangle>false</activeaudioangle>
                    <clip id="clip-7"/>
                  </angle>
                  <masterclipid>clip-master</masterclipid>
                </multiclip>
              </clipitem>
              <clipitem id="cs-660">
                <duration>58</duration>
                <rate>
                  <ntsc>false</ntsc>
                  <timebase>25</timebase>
                </rate>
                <in>81154</in>
                <out>81211</out>
                <start>81154</start>
                <end>81211</end>
                <file id="src-3"/>
                <sourcetrack>
                  <mediatype>video</mediatype>
                  <trackindex>1</trackindex>
                </sourcetrack>
                <multiclip id="mcs-660">
                  <name>MCS-660</name>
                  <masterclipid>clip-master</masterclipid>
                  <collapsed>false</collapsed>
                  <angle>
                    <activevideoangle>false</activevideoangle>
                    <activeaudioangle>false</activeaudioangle>
                    <clip id="clip-1"/>
                  </angle>
                  <angle>
                    <activevideoangle>false</activevideoangle>
                    <activeaudioangle>false</activeaudioangle>
                    <clip id="clip-2"/>
                  </angle>
                  <angle>
                    <activevideoangle>true</activevideoangle>
                    <activeaudioangle>true</activeaudioangle>
                    <clip id="clip-3"/>
                  </angle>
                  <angle>
                    <activevideoangle>false</activevideoangle>
                    <activeaudioangle>false</activeaudioangle>
                    <clip id="clip-4"/>
                  </angle>
                  <angle>
                    <activevideoangle>false</activevideoangle>
                    <activeaudioangle>false</activeaudioangle>
                    <clip id="clip-5"/>
                  </angle>
                  <angle>
                    <activevideoangle>false</activevideoangle>
                    <activeaudioangle>false</activeaudioangle>
                    <clip id="clip-6"/>
                  </angle>
                  <angle>
                    <activevideoangle>false</activevideoangle>
                    <activeaudioangle>false</activeaudioangle>
                    <clip id="clip-7"/>
                  </angle>
                  <masterclipid>clip-master</masterclipid>
                </multiclip>
              </clipitem>
              <clipitem id="cs-661">
                <duration>132</duration>
                <rate>
                  <ntsc>false</ntsc>
                  <timebase>25</timebase>
                </rate>
                <in>81211</in>
                <out>81342</out>
                <start>81211</start>
                <end>81342</end>
                <file id="src-4"/>
                <sourcetrack>
                  <mediatype>video</mediatype>
                  <trackindex>1</trackindex>
                </sourcetrack>
                <multiclip id="mcs-661">
                  <name>MCS-661</name>
                  <masterclipid>clip-master</masterclipid>
                  <collapsed>false</collapsed>
                  <angle>
                    <activevideoangle>false</activevideoangle>
                    <activeaudioangle>false</activeaudioangle>
                    <clip id="clip-1"/>
                  </angle>
                  <angle>
                    <activevideoangle>false</activevideoangle>
                    <activeaudioangle>false</activeaudioangle>
                    <clip id="clip-2"/>
                  </angle>
                  <angle>
                    <activevideoangle>false</activevideoangle>
                    <activeaudioangle>false</activeaudioangle>
                    <clip id="clip-3"/>
                  </angle>
                  <angle>
                    <activevideoangle>true</activevideoangle>
                    <activeaudioangle>true</activeaudioangle>
                    <clip id="clip-4"/>
                  </angle>
                  <angle>
                    <activevideoangle>false</activevideoangle>
                    <activeaudioangle>false</activeaudioangle>
                    <clip id="clip-5"/>
                  </angle>
                  <angle>
                    <activevideoangle>false</activevideoangle>
                    <activeaudioangle>false</activeaudioangle>
                    <clip id="clip-6"/>
                  </angle>
                  <angle>
                    <activevideoangle>false</activevideoangle>
                    <activeaudioangle>false</activeaudioangle>
                    <clip id="clip-7"/>
                  </angle>
                  <masterclipid>clip-master</masterclipid>
                </multiclip>
              </clipitem>
              <clipitem id="cs-662">
                <duration>93</duration>
                <rate>
                  <ntsc>false</ntsc>
                  <timebase>25</timebase>
                </rate>
                <in>81342</in>
                <out>81434</out>
                <start>81342</start>
                <end>81434</end>
                <file id="src-3"/>
                <sourcetrack>
                  <mediatype>video</mediatype>
                  <trackindex>1</trackindex>
                </sourcetrack>
                <multiclip id="mcs-662">
                  <name>MCS-662</name>
                  <masterclipid>clip-master</masterclipid>
                  <collapsed>false</collapsed>
                  <angle>
                    <activevideoangle>false</activevideoangle>
                    <activeaudioangle>false</activeaudioangle>
                    <clip id="clip-1"/>
                  </angle>
                  <angle>
                    <activevideoangle>false</activevideoangle>
                    <activeaudioangle>false</activeaudioangle>
                    <clip id="clip-2"/>
                  </angle>
                  <angle>
                    <activevideoangle>true</activevideoangle>
                    <activeaudioangle>true</activeaudioangle>
                    <clip id="clip-3"/>
                  </angle>
                  <angle>
                    <activevideoangle>false</activevideoangle>
                    <activeaudioangle>false</activeaudioangle>
                    <clip id="clip-4"/>
                  </angle>
                  <angle>
                    <activevideoangle>false</activevideoangle>
                    <activeaudioangle>false</activeaudioangle>
                    <clip id="clip-5"/>
                  </angle>
                  <angle>
                    <activevideoangle>false</activevideoangle>
                    <activeaudioangle>false</activeaudioangle>
                    <clip id="clip-6"/>
                  </angle>
                  <angle>
                    <activevideoangle>false</activevideoangle>
                    <activeaudioangle>false</activeaudioangle>
                    <clip id="clip-7"/>
                  </angle>
                  <masterclipid>clip-master</masterclipid>
                </multiclip>
              </clipitem>
              <clipitem id="cs-663">
                <duration>81</duration>
                <rate>
                  <ntsc>false</ntsc>
                  <timebase>25</timebase>
                </rate>
                <in>81434</in>
                <out>81514</out>
                <start>81434</start>
                <end>81514</end>
                <file id="src-2"/>
                <sourcetrack>
                  <mediatype>video</mediatype>
                  <trackindex>1</trackindex>
                </sourcetrack>
                <multiclip id="mcs-663">
                  <name>MCS-663</name>
                  <masterclipid>clip-master</masterclipid>
                  <collapsed>false</collapsed>
                  <angle>
                    <activevideoangle>false</activevideoangle>
                    <activeaudioangle>false</activeaudioangle>
                    <clip id="clip-1"/>
                  </angle>
                  <angle>
                    <activevideoangle>true</activevideoangle>
                    <activeaudioangle>true</activeaudioangle>
                    <clip id="clip-2"/>
                  </angle>
                  <angle>
                    <activevideoangle>false</activevideoangle>
                    <activeaudioangle>false</activeaudioangle>
                    <clip id="clip-3"/>
                  </angle>
                  <angle>
                    <activevideoangle>false</activevideoangle>
                    <activeaudioangle>false</activeaudioangle>
                    <clip id="clip-4"/>
                  </angle>
                  <angle>
                    <activevideoangle>false</activevideoangle>
                    <activeaudioangle>false</activeaudioangle>
                    <clip id="clip-5"/>
                  </angle>
                  <angle>
                    <activevideoangle>false</activevideoangle>
                    <activeaudioangle>false</activeaudioangle>
                    <clip id="clip-6"/>
                  </angle>
                  <angle>
                    <activevideoangle>false</activevideoangle>
                    <activeaudioangle>false</activeaudioangle>
                    <clip id="clip-7"/>
                  </angle>
                  <masterclipid>clip-master</masterclipid>
                </multiclip>
              </clipitem>
              <clipitem id="cs-664">
                <duration>46</duration>
                <rate>
                  <ntsc>false</ntsc>
                  <timebase>25</timebase>
                </rate>
                <in>81514</in>
                <out>81559</out>
                <start>81514</start>
                <end>81559</end>
                <file id="src-6"/>
                <sourcetrack>
                  <mediatype>video</mediatype>
                  <trackindex>1</trackindex>
                </sourcetrack>
                <multiclip id="mcs-664">
                  <name>MCS-664</name>
                  <masterclipid>clip-master</masterclipid>
                  <collapsed>false</collapsed>
                  <angle>
                    <activevideoangle>false</activevideoangle>
                    <activeaudioangle>false</activeaudioangle>
                    <clip id="clip-1"/>
                  </angle>
                  <angle>
                    <activevideoangle>false</activevideoangle>
                    <activeaudioangle>false</activeaudioangle>
                    <clip id="clip-2"/>
                  </angle>
                  <angle>
                    <activevideoangle>false</activevideoangle>
                    <activeaudioangle>false</activeaudioangle>
                    <clip id="clip-3"/>
                  </angle>
                  <angle>
                    <activevideoangle>false</activevideoangle>
                    <activeaudioangle>false</activeaudioangle>
                    <clip id="clip-4"/>
                  </angle>
                  <angle>
                    <activevideoangle>false</activevideoangle>
                    <activeaudioangle>false</activeaudioangle>
                    <clip id="clip-5"/>
                  </angle>
                  <angle>
                    <activevideoangle>true</activevideoangle>
                    <activeaudioangle>true</activeaudioangle>
                    <clip id="clip-6"/>
                  </angle>
                  <angle>
                    <activevideoangle>false</activevideoangle>
                    <activeaudioangle>false</activeaudioangle>
                    <clip id="clip-7"/>
                  </angle>
                  <masterclipid>clip-master</masterclipid>
                </multiclip>
              </clipitem>
              <clipitem id="cs-665">
                <duration>70</duration>
                <rate>
                  <ntsc>false</ntsc>
                  <timebase>25</timebase>
                </rate>
                <in>81559</in>
                <out>81628</out>
                <start>81559</start>
                <end>81628</end>
                <file id="src-3"/>
                <sourcetrack>
                  <mediatype>video</mediatype>
                  <trackindex>1</trackindex>
                </sourcetrack>
                <multiclip id="mcs-665">
                  <name>MCS-665</name>
                  <masterclipid>clip-master</masterclipid>
                  <collapsed>false</collapsed>
                  <angle>
                    <activevideoangle>false</activevideoangle>
                    <activeaudioangle>false</activeaudioangle>
                    <clip id="clip-1"/>
                  </angle>
                  <angle>
                    <activevideoangle>false</activevideoangle>
                    <activeaudioangle>false</activeaudioangle>
                    <clip id="clip-2"/>
                  </angle>
                  <angle>
                    <activevideoangle>true</activevideoangle>
                    <activeaudioangle>true</activeaudioangle>
                    <clip id="clip-3"/>
                  </angle>
                  <angle>
                    <activevideoangle>false</activevideoangle>
                    <activeaudioangle>false</activeaudioangle>
                    <clip id="clip-4"/>
                  </angle>
                  <angle>
                    <activevideoangle>false</activevideoangle>
                    <activeaudioangle>false</activeaudioangle>
                    <clip id="clip-5"/>
                  </angle>
                  <angle>
                    <activevideoangle>false</activevideoangle>
                    <activeaudioangle>false</activeaudioangle>
                    <clip id="clip-6"/>
                  </angle>
                  <angle>
                    <activevideoangle>false</activevideoangle>
                    <activeaudioangle>false</activeaudioangle>
                    <clip id="clip-7"/>
                  </angle>
                  <masterclipid>clip-master</masterclipid>
                </multiclip>
              </clipitem>
              <clipitem id="cs-666">
                <duration>67</duration>
                <rate>
                  <ntsc>false</ntsc>
                  <timebase>25</timebase>
                </rate>
                <in>81628</in>
                <out>81694</out>
                <start>81628</start>
                <end>81694</end>
                <file id="src-2"/>
                <sourcetrack>
                  <mediatype>video</mediatype>
                  <trackindex>1</trackindex>
                </sourcetrack>
                <multiclip id="mcs-666">
                  <name>MCS-666</name>
                  <masterclipid>clip-master</masterclipid>
                  <collapsed>false</collapsed>
                  <angle>
                    <activevideoangle>false</activevideoangle>
                    <activeaudioangle>false</activeaudioangle>
                    <clip id="clip-1"/>
                  </angle>
                  <angle>
                    <activevideoangle>true</activevideoangle>
                    <activeaudioangle>true</activeaudioangle>
                    <clip id="clip-2"/>
                  </angle>
                  <angle>
                    <activevideoangle>false</activevideoangle>
                    <activeaudioangle>false</activeaudioangle>
                    <clip id="clip-3"/>
                  </angle>
                  <angle>
                    <activevideoangle>false</activevideoangle>
                    <activeaudioangle>false</activeaudioangle>
                    <clip id="clip-4"/>
                  </angle>
                  <angle>
                    <activevideoangle>false</activevideoangle>
                    <activeaudioangle>false</activeaudioangle>
                    <clip id="clip-5"/>
                  </angle>
                  <angle>
                    <activevideoangle>false</activevideoangle>
                    <activeaudioangle>false</activeaudioangle>
                    <clip id="clip-6"/>
                  </angle>
                  <angle>
                    <activevideoangle>false</activevideoangle>
                    <activeaudioangle>false</activeaudioangle>
                    <clip id="clip-7"/>
                  </angle>
                  <masterclipid>clip-master</masterclipid>
                </multiclip>
              </clipitem>
              <clipitem id="cs-667">
                <duration>68</duration>
                <rate>
                  <ntsc>false</ntsc>
                  <timebase>25</timebase>
                </rate>
                <in>81694</in>
                <out>81761</out>
                <start>81694</start>
                <end>81761</end>
                <file id="src-1"/>
                <sourcetrack>
                  <mediatype>video</mediatype>
                  <trackindex>1</trackindex>
                </sourcetrack>
                <multiclip id="mcs-667">
                  <name>MCS-667</name>
                  <masterclipid>clip-master</masterclipid>
                  <collapsed>false</collapsed>
                  <angle>
                    <activevideoangle>true</activevideoangle>
                    <activeaudioangle>true</activeaudioangle>
                    <clip id="clip-1"/>
                  </angle>
                  <angle>
                    <activevideoangle>false</activevideoangle>
                    <activeaudioangle>false</activeaudioangle>
                    <clip id="clip-2"/>
                  </angle>
                  <angle>
                    <activevideoangle>false</activevideoangle>
                    <activeaudioangle>false</activeaudioangle>
                    <clip id="clip-3"/>
                  </angle>
                  <angle>
                    <activevideoangle>false</activevideoangle>
                    <activeaudioangle>false</activeaudioangle>
                    <clip id="clip-4"/>
                  </angle>
                  <angle>
                    <activevideoangle>false</activevideoangle>
                    <activeaudioangle>false</activeaudioangle>
                    <clip id="clip-5"/>
                  </angle>
                  <angle>
                    <activevideoangle>false</activevideoangle>
                    <activeaudioangle>false</activeaudioangle>
                    <clip id="clip-6"/>
                  </angle>
                  <angle>
                    <activevideoangle>false</activevideoangle>
                    <activeaudioangle>false</activeaudioangle>
                    <clip id="clip-7"/>
                  </angle>
                  <masterclipid>clip-master</masterclipid>
                </multiclip>
              </clipitem>
              <clipitem id="cs-668">
                <duration>113</duration>
                <rate>
                  <ntsc>false</ntsc>
                  <timebase>25</timebase>
                </rate>
                <in>81761</in>
                <out>81873</out>
                <start>81761</start>
                <end>81873</end>
                <file id="src-6"/>
                <sourcetrack>
                  <mediatype>video</mediatype>
                  <trackindex>1</trackindex>
                </sourcetrack>
                <multiclip id="mcs-668">
                  <name>MCS-668</name>
                  <masterclipid>clip-master</masterclipid>
                  <collapsed>false</collapsed>
                  <angle>
                    <activevideoangle>false</activevideoangle>
                    <activeaudioangle>false</activeaudioangle>
                    <clip id="clip-1"/>
                  </angle>
                  <angle>
                    <activevideoangle>false</activevideoangle>
                    <activeaudioangle>false</activeaudioangle>
                    <clip id="clip-2"/>
                  </angle>
                  <angle>
                    <activevideoangle>false</activevideoangle>
                    <activeaudioangle>false</activeaudioangle>
                    <clip id="clip-3"/>
                  </angle>
                  <angle>
                    <activevideoangle>false</activevideoangle>
                    <activeaudioangle>false</activeaudioangle>
                    <clip id="clip-4"/>
                  </angle>
                  <angle>
                    <activevideoangle>false</activevideoangle>
                    <activeaudioangle>false</activeaudioangle>
                    <clip id="clip-5"/>
                  </angle>
                  <angle>
                    <activevideoangle>true</activevideoangle>
                    <activeaudioangle>true</activeaudioangle>
                    <clip id="clip-6"/>
                  </angle>
                  <angle>
                    <activevideoangle>false</activevideoangle>
                    <activeaudioangle>false</activeaudioangle>
                    <clip id="clip-7"/>
                  </angle>
                  <masterclipid>clip-master</masterclipid>
                </multiclip>
              </clipitem>
              <clipitem id="cs-669">
                <duration>91</duration>
                <rate>
                  <ntsc>false</ntsc>
                  <timebase>25</timebase>
                </rate>
                <in>81873</in>
                <out>81963</out>
                <start>81873</start>
                <end>81963</end>
                <file id="src-3"/>
                <sourcetrack>
                  <mediatype>video</mediatype>
                  <trackindex>1</trackindex>
                </sourcetrack>
                <multiclip id="mcs-669">
                  <name>MCS-669</name>
                  <masterclipid>clip-master</masterclipid>
                  <collapsed>false</collapsed>
                  <angle>
                    <activevideoangle>false</activevideoangle>
                    <activeaudioangle>false</activeaudioangle>
                    <clip id="clip-1"/>
                  </angle>
                  <angle>
                    <activevideoangle>false</activevideoangle>
                    <activeaudioangle>false</activeaudioangle>
                    <clip id="clip-2"/>
                  </angle>
                  <angle>
                    <activevideoangle>true</activevideoangle>
                    <activeaudioangle>true</activeaudioangle>
                    <clip id="clip-3"/>
                  </angle>
                  <angle>
                    <activevideoangle>false</activevideoangle>
                    <activeaudioangle>false</activeaudioangle>
                    <clip id="clip-4"/>
                  </angle>
                  <angle>
                    <activevideoangle>false</activevideoangle>
                    <activeaudioangle>false</activeaudioangle>
                    <clip id="clip-5"/>
                  </angle>
                  <angle>
                    <activevideoangle>false</activevideoangle>
                    <activeaudioangle>false</activeaudioangle>
                    <clip id="clip-6"/>
                  </angle>
                  <angle>
                    <activevideoangle>false</activevideoangle>
                    <activeaudioangle>false</activeaudioangle>
                    <clip id="clip-7"/>
                  </angle>
                  <masterclipid>clip-master</masterclipid>
                </multiclip>
              </clipitem>
              <clipitem id="cs-670">
                <duration>88</duration>
                <rate>
                  <ntsc>false</ntsc>
                  <timebase>25</timebase>
                </rate>
                <in>81963</in>
                <out>82050</out>
                <start>81963</start>
                <end>82050</end>
                <file id="src-2"/>
                <sourcetrack>
                  <mediatype>video</mediatype>
                  <trackindex>1</trackindex>
                </sourcetrack>
                <multiclip id="mcs-670">
                  <name>MCS-670</name>
                  <masterclipid>clip-master</masterclipid>
                  <collapsed>false</collapsed>
                  <angle>
                    <activevideoangle>false</activevideoangle>
                    <activeaudioangle>false</activeaudioangle>
                    <clip id="clip-1"/>
                  </angle>
                  <angle>
                    <activevideoangle>true</activevideoangle>
                    <activeaudioangle>true</activeaudioangle>
                    <clip id="clip-2"/>
                  </angle>
                  <angle>
                    <activevideoangle>false</activevideoangle>
                    <activeaudioangle>false</activeaudioangle>
                    <clip id="clip-3"/>
                  </angle>
                  <angle>
                    <activevideoangle>false</activevideoangle>
                    <activeaudioangle>false</activeaudioangle>
                    <clip id="clip-4"/>
                  </angle>
                  <angle>
                    <activevideoangle>false</activevideoangle>
                    <activeaudioangle>false</activeaudioangle>
                    <clip id="clip-5"/>
                  </angle>
                  <angle>
                    <activevideoangle>false</activevideoangle>
                    <activeaudioangle>false</activeaudioangle>
                    <clip id="clip-6"/>
                  </angle>
                  <angle>
                    <activevideoangle>false</activevideoangle>
                    <activeaudioangle>false</activeaudioangle>
                    <clip id="clip-7"/>
                  </angle>
                  <masterclipid>clip-master</masterclipid>
                </multiclip>
              </clipitem>
              <clipitem id="cs-671">
                <duration>70</duration>
                <rate>
                  <ntsc>false</ntsc>
                  <timebase>25</timebase>
                </rate>
                <in>82050</in>
                <out>82119</out>
                <start>82050</start>
                <end>82119</end>
                <file id="src-3"/>
                <sourcetrack>
                  <mediatype>video</mediatype>
                  <trackindex>1</trackindex>
                </sourcetrack>
                <multiclip id="mcs-671">
                  <name>MCS-671</name>
                  <masterclipid>clip-master</masterclipid>
                  <collapsed>false</collapsed>
                  <angle>
                    <activevideoangle>false</activevideoangle>
                    <activeaudioangle>false</activeaudioangle>
                    <clip id="clip-1"/>
                  </angle>
                  <angle>
                    <activevideoangle>false</activevideoangle>
                    <activeaudioangle>false</activeaudioangle>
                    <clip id="clip-2"/>
                  </angle>
                  <angle>
                    <activevideoangle>true</activevideoangle>
                    <activeaudioangle>true</activeaudioangle>
                    <clip id="clip-3"/>
                  </angle>
                  <angle>
                    <activevideoangle>false</activevideoangle>
                    <activeaudioangle>false</activeaudioangle>
                    <clip id="clip-4"/>
                  </angle>
                  <angle>
                    <activevideoangle>false</activevideoangle>
                    <activeaudioangle>false</activeaudioangle>
                    <clip id="clip-5"/>
                  </angle>
                  <angle>
                    <activevideoangle>false</activevideoangle>
                    <activeaudioangle>false</activeaudioangle>
                    <clip id="clip-6"/>
                  </angle>
                  <angle>
                    <activevideoangle>false</activevideoangle>
                    <activeaudioangle>false</activeaudioangle>
                    <clip id="clip-7"/>
                  </angle>
                  <masterclipid>clip-master</masterclipid>
                </multiclip>
              </clipitem>
              <clipitem id="cs-672">
                <duration>302</duration>
                <rate>
                  <ntsc>false</ntsc>
                  <timebase>25</timebase>
                </rate>
                <in>82119</in>
                <out>82420</out>
                <start>82119</start>
                <end>82420</end>
                <file id="src-2"/>
                <sourcetrack>
                  <mediatype>video</mediatype>
                  <trackindex>1</trackindex>
                </sourcetrack>
                <multiclip id="mcs-672">
                  <name>MCS-672</name>
                  <masterclipid>clip-master</masterclipid>
                  <collapsed>false</collapsed>
                  <angle>
                    <activevideoangle>false</activevideoangle>
                    <activeaudioangle>false</activeaudioangle>
                    <clip id="clip-1"/>
                  </angle>
                  <angle>
                    <activevideoangle>true</activevideoangle>
                    <activeaudioangle>true</activeaudioangle>
                    <clip id="clip-2"/>
                  </angle>
                  <angle>
                    <activevideoangle>false</activevideoangle>
                    <activeaudioangle>false</activeaudioangle>
                    <clip id="clip-3"/>
                  </angle>
                  <angle>
                    <activevideoangle>false</activevideoangle>
                    <activeaudioangle>false</activeaudioangle>
                    <clip id="clip-4"/>
                  </angle>
                  <angle>
                    <activevideoangle>false</activevideoangle>
                    <activeaudioangle>false</activeaudioangle>
                    <clip id="clip-5"/>
                  </angle>
                  <angle>
                    <activevideoangle>false</activevideoangle>
                    <activeaudioangle>false</activeaudioangle>
                    <clip id="clip-6"/>
                  </angle>
                  <angle>
                    <activevideoangle>false</activevideoangle>
                    <activeaudioangle>false</activeaudioangle>
                    <clip id="clip-7"/>
                  </angle>
                  <masterclipid>clip-master</masterclipid>
                </multiclip>
              </clipitem>
              <clipitem id="cs-673">
                <duration>78</duration>
                <rate>
                  <ntsc>false</ntsc>
                  <timebase>25</timebase>
                </rate>
                <in>82420</in>
                <out>82497</out>
                <start>82420</start>
                <end>82497</end>
                <file id="src-3"/>
                <sourcetrack>
                  <mediatype>video</mediatype>
                  <trackindex>1</trackindex>
                </sourcetrack>
                <multiclip id="mcs-673">
                  <name>MCS-673</name>
                  <masterclipid>clip-master</masterclipid>
                  <collapsed>false</collapsed>
                  <angle>
                    <activevideoangle>false</activevideoangle>
                    <activeaudioangle>false</activeaudioangle>
                    <clip id="clip-1"/>
                  </angle>
                  <angle>
                    <activevideoangle>false</activevideoangle>
                    <activeaudioangle>false</activeaudioangle>
                    <clip id="clip-2"/>
                  </angle>
                  <angle>
                    <activevideoangle>true</activevideoangle>
                    <activeaudioangle>true</activeaudioangle>
                    <clip id="clip-3"/>
                  </angle>
                  <angle>
                    <activevideoangle>false</activevideoangle>
                    <activeaudioangle>false</activeaudioangle>
                    <clip id="clip-4"/>
                  </angle>
                  <angle>
                    <activevideoangle>false</activevideoangle>
                    <activeaudioangle>false</activeaudioangle>
                    <clip id="clip-5"/>
                  </angle>
                  <angle>
                    <activevideoangle>false</activevideoangle>
                    <activeaudioangle>false</activeaudioangle>
                    <clip id="clip-6"/>
                  </angle>
                  <angle>
                    <activevideoangle>false</activevideoangle>
                    <activeaudioangle>false</activeaudioangle>
                    <clip id="clip-7"/>
                  </angle>
                  <masterclipid>clip-master</masterclipid>
                </multiclip>
              </clipitem>
              <clipitem id="cs-674">
                <duration>90</duration>
                <rate>
                  <ntsc>false</ntsc>
                  <timebase>25</timebase>
                </rate>
                <in>82497</in>
                <out>82586</out>
                <start>82497</start>
                <end>82586</end>
                <file id="src-2"/>
                <sourcetrack>
                  <mediatype>video</mediatype>
                  <trackindex>1</trackindex>
                </sourcetrack>
                <multiclip id="mcs-674">
                  <name>MCS-674</name>
                  <masterclipid>clip-master</masterclipid>
                  <collapsed>false</collapsed>
                  <angle>
                    <activevideoangle>false</activevideoangle>
                    <activeaudioangle>false</activeaudioangle>
                    <clip id="clip-1"/>
                  </angle>
                  <angle>
                    <activevideoangle>true</activevideoangle>
                    <activeaudioangle>true</activeaudioangle>
                    <clip id="clip-2"/>
                  </angle>
                  <angle>
                    <activevideoangle>false</activevideoangle>
                    <activeaudioangle>false</activeaudioangle>
                    <clip id="clip-3"/>
                  </angle>
                  <angle>
                    <activevideoangle>false</activevideoangle>
                    <activeaudioangle>false</activeaudioangle>
                    <clip id="clip-4"/>
                  </angle>
                  <angle>
                    <activevideoangle>false</activevideoangle>
                    <activeaudioangle>false</activeaudioangle>
                    <clip id="clip-5"/>
                  </angle>
                  <angle>
                    <activevideoangle>false</activevideoangle>
                    <activeaudioangle>false</activeaudioangle>
                    <clip id="clip-6"/>
                  </angle>
                  <angle>
                    <activevideoangle>false</activevideoangle>
                    <activeaudioangle>false</activeaudioangle>
                    <clip id="clip-7"/>
                  </angle>
                  <masterclipid>clip-master</masterclipid>
                </multiclip>
              </clipitem>
              <clipitem id="cs-675">
                <duration>62</duration>
                <rate>
                  <ntsc>false</ntsc>
                  <timebase>25</timebase>
                </rate>
                <in>82586</in>
                <out>82647</out>
                <start>82586</start>
                <end>82647</end>
                <file id="src-6"/>
                <sourcetrack>
                  <mediatype>video</mediatype>
                  <trackindex>1</trackindex>
                </sourcetrack>
                <multiclip id="mcs-675">
                  <name>MCS-675</name>
                  <masterclipid>clip-master</masterclipid>
                  <collapsed>false</collapsed>
                  <angle>
                    <activevideoangle>false</activevideoangle>
                    <activeaudioangle>false</activeaudioangle>
                    <clip id="clip-1"/>
                  </angle>
                  <angle>
                    <activevideoangle>false</activevideoangle>
                    <activeaudioangle>false</activeaudioangle>
                    <clip id="clip-2"/>
                  </angle>
                  <angle>
                    <activevideoangle>false</activevideoangle>
                    <activeaudioangle>false</activeaudioangle>
                    <clip id="clip-3"/>
                  </angle>
                  <angle>
                    <activevideoangle>false</activevideoangle>
                    <activeaudioangle>false</activeaudioangle>
                    <clip id="clip-4"/>
                  </angle>
                  <angle>
                    <activevideoangle>false</activevideoangle>
                    <activeaudioangle>false</activeaudioangle>
                    <clip id="clip-5"/>
                  </angle>
                  <angle>
                    <activevideoangle>true</activevideoangle>
                    <activeaudioangle>true</activeaudioangle>
                    <clip id="clip-6"/>
                  </angle>
                  <angle>
                    <activevideoangle>false</activevideoangle>
                    <activeaudioangle>false</activeaudioangle>
                    <clip id="clip-7"/>
                  </angle>
                  <masterclipid>clip-master</masterclipid>
                </multiclip>
              </clipitem>
              <clipitem id="cs-676">
                <duration>95</duration>
                <rate>
                  <ntsc>false</ntsc>
                  <timebase>25</timebase>
                </rate>
                <in>82647</in>
                <out>82741</out>
                <start>82647</start>
                <end>82741</end>
                <file id="src-2"/>
                <sourcetrack>
                  <mediatype>video</mediatype>
                  <trackindex>1</trackindex>
                </sourcetrack>
                <multiclip id="mcs-676">
                  <name>MCS-676</name>
                  <masterclipid>clip-master</masterclipid>
                  <collapsed>false</collapsed>
                  <angle>
                    <activevideoangle>false</activevideoangle>
                    <activeaudioangle>false</activeaudioangle>
                    <clip id="clip-1"/>
                  </angle>
                  <angle>
                    <activevideoangle>true</activevideoangle>
                    <activeaudioangle>true</activeaudioangle>
                    <clip id="clip-2"/>
                  </angle>
                  <angle>
                    <activevideoangle>false</activevideoangle>
                    <activeaudioangle>false</activeaudioangle>
                    <clip id="clip-3"/>
                  </angle>
                  <angle>
                    <activevideoangle>false</activevideoangle>
                    <activeaudioangle>false</activeaudioangle>
                    <clip id="clip-4"/>
                  </angle>
                  <angle>
                    <activevideoangle>false</activevideoangle>
                    <activeaudioangle>false</activeaudioangle>
                    <clip id="clip-5"/>
                  </angle>
                  <angle>
                    <activevideoangle>false</activevideoangle>
                    <activeaudioangle>false</activeaudioangle>
                    <clip id="clip-6"/>
                  </angle>
                  <angle>
                    <activevideoangle>false</activevideoangle>
                    <activeaudioangle>false</activeaudioangle>
                    <clip id="clip-7"/>
                  </angle>
                  <masterclipid>clip-master</masterclipid>
                </multiclip>
              </clipitem>
              <clipitem id="cs-677">
                <duration>78</duration>
                <rate>
                  <ntsc>false</ntsc>
                  <timebase>25</timebase>
                </rate>
                <in>82741</in>
                <out>82818</out>
                <start>82741</start>
                <end>82818</end>
                <file id="src-3"/>
                <sourcetrack>
                  <mediatype>video</mediatype>
                  <trackindex>1</trackindex>
                </sourcetrack>
                <multiclip id="mcs-677">
                  <name>MCS-677</name>
                  <masterclipid>clip-master</masterclipid>
                  <collapsed>false</collapsed>
                  <angle>
                    <activevideoangle>false</activevideoangle>
                    <activeaudioangle>false</activeaudioangle>
                    <clip id="clip-1"/>
                  </angle>
                  <angle>
                    <activevideoangle>false</activevideoangle>
                    <activeaudioangle>false</activeaudioangle>
                    <clip id="clip-2"/>
                  </angle>
                  <angle>
                    <activevideoangle>true</activevideoangle>
                    <activeaudioangle>true</activeaudioangle>
                    <clip id="clip-3"/>
                  </angle>
                  <angle>
                    <activevideoangle>false</activevideoangle>
                    <activeaudioangle>false</activeaudioangle>
                    <clip id="clip-4"/>
                  </angle>
                  <angle>
                    <activevideoangle>false</activevideoangle>
                    <activeaudioangle>false</activeaudioangle>
                    <clip id="clip-5"/>
                  </angle>
                  <angle>
                    <activevideoangle>false</activevideoangle>
                    <activeaudioangle>false</activeaudioangle>
                    <clip id="clip-6"/>
                  </angle>
                  <angle>
                    <activevideoangle>false</activevideoangle>
                    <activeaudioangle>false</activeaudioangle>
                    <clip id="clip-7"/>
                  </angle>
                  <masterclipid>clip-master</masterclipid>
                </multiclip>
              </clipitem>
              <clipitem id="cs-678">
                <duration>63</duration>
                <rate>
                  <ntsc>false</ntsc>
                  <timebase>25</timebase>
                </rate>
                <in>82818</in>
                <out>82880</out>
                <start>82818</start>
                <end>82880</end>
                <file id="src-5"/>
                <sourcetrack>
                  <mediatype>video</mediatype>
                  <trackindex>1</trackindex>
                </sourcetrack>
                <multiclip id="mcs-678">
                  <name>MCS-678</name>
                  <masterclipid>clip-master</masterclipid>
                  <collapsed>false</collapsed>
                  <angle>
                    <activevideoangle>false</activevideoangle>
                    <activeaudioangle>false</activeaudioangle>
                    <clip id="clip-1"/>
                  </angle>
                  <angle>
                    <activevideoangle>false</activevideoangle>
                    <activeaudioangle>false</activeaudioangle>
                    <clip id="clip-2"/>
                  </angle>
                  <angle>
                    <activevideoangle>false</activevideoangle>
                    <activeaudioangle>false</activeaudioangle>
                    <clip id="clip-3"/>
                  </angle>
                  <angle>
                    <activevideoangle>false</activevideoangle>
                    <activeaudioangle>false</activeaudioangle>
                    <clip id="clip-4"/>
                  </angle>
                  <angle>
                    <activevideoangle>true</activevideoangle>
                    <activeaudioangle>true</activeaudioangle>
                    <clip id="clip-5"/>
                  </angle>
                  <angle>
                    <activevideoangle>false</activevideoangle>
                    <activeaudioangle>false</activeaudioangle>
                    <clip id="clip-6"/>
                  </angle>
                  <angle>
                    <activevideoangle>false</activevideoangle>
                    <activeaudioangle>false</activeaudioangle>
                    <clip id="clip-7"/>
                  </angle>
                  <masterclipid>clip-master</masterclipid>
                </multiclip>
              </clipitem>
              <clipitem id="cs-679">
                <duration>141</duration>
                <rate>
                  <ntsc>false</ntsc>
                  <timebase>25</timebase>
                </rate>
                <in>82880</in>
                <out>83020</out>
                <start>82880</start>
                <end>83020</end>
                <file id="src-2"/>
                <sourcetrack>
                  <mediatype>video</mediatype>
                  <trackindex>1</trackindex>
                </sourcetrack>
                <multiclip id="mcs-679">
                  <name>MCS-679</name>
                  <masterclipid>clip-master</masterclipid>
                  <collapsed>false</collapsed>
                  <angle>
                    <activevideoangle>false</activevideoangle>
                    <activeaudioangle>false</activeaudioangle>
                    <clip id="clip-1"/>
                  </angle>
                  <angle>
                    <activevideoangle>true</activevideoangle>
                    <activeaudioangle>true</activeaudioangle>
                    <clip id="clip-2"/>
                  </angle>
                  <angle>
                    <activevideoangle>false</activevideoangle>
                    <activeaudioangle>false</activeaudioangle>
                    <clip id="clip-3"/>
                  </angle>
                  <angle>
                    <activevideoangle>false</activevideoangle>
                    <activeaudioangle>false</activeaudioangle>
                    <clip id="clip-4"/>
                  </angle>
                  <angle>
                    <activevideoangle>false</activevideoangle>
                    <activeaudioangle>false</activeaudioangle>
                    <clip id="clip-5"/>
                  </angle>
                  <angle>
                    <activevideoangle>false</activevideoangle>
                    <activeaudioangle>false</activeaudioangle>
                    <clip id="clip-6"/>
                  </angle>
                  <angle>
                    <activevideoangle>false</activevideoangle>
                    <activeaudioangle>false</activeaudioangle>
                    <clip id="clip-7"/>
                  </angle>
                  <masterclipid>clip-master</masterclipid>
                </multiclip>
              </clipitem>
              <clipitem id="cs-680">
                <duration>56</duration>
                <rate>
                  <ntsc>false</ntsc>
                  <timebase>25</timebase>
                </rate>
                <in>83020</in>
                <out>83075</out>
                <start>83020</start>
                <end>83075</end>
                <file id="src-6"/>
                <sourcetrack>
                  <mediatype>video</mediatype>
                  <trackindex>1</trackindex>
                </sourcetrack>
                <multiclip id="mcs-680">
                  <name>MCS-680</name>
                  <masterclipid>clip-master</masterclipid>
                  <collapsed>false</collapsed>
                  <angle>
                    <activevideoangle>false</activevideoangle>
                    <activeaudioangle>false</activeaudioangle>
                    <clip id="clip-1"/>
                  </angle>
                  <angle>
                    <activevideoangle>false</activevideoangle>
                    <activeaudioangle>false</activeaudioangle>
                    <clip id="clip-2"/>
                  </angle>
                  <angle>
                    <activevideoangle>false</activevideoangle>
                    <activeaudioangle>false</activeaudioangle>
                    <clip id="clip-3"/>
                  </angle>
                  <angle>
                    <activevideoangle>false</activevideoangle>
                    <activeaudioangle>false</activeaudioangle>
                    <clip id="clip-4"/>
                  </angle>
                  <angle>
                    <activevideoangle>false</activevideoangle>
                    <activeaudioangle>false</activeaudioangle>
                    <clip id="clip-5"/>
                  </angle>
                  <angle>
                    <activevideoangle>true</activevideoangle>
                    <activeaudioangle>true</activeaudioangle>
                    <clip id="clip-6"/>
                  </angle>
                  <angle>
                    <activevideoangle>false</activevideoangle>
                    <activeaudioangle>false</activeaudioangle>
                    <clip id="clip-7"/>
                  </angle>
                  <masterclipid>clip-master</masterclipid>
                </multiclip>
              </clipitem>
              <clipitem id="cs-681">
                <duration>57</duration>
                <rate>
                  <ntsc>false</ntsc>
                  <timebase>25</timebase>
                </rate>
                <in>83075</in>
                <out>83131</out>
                <start>83075</start>
                <end>83131</end>
                <file id="src-3"/>
                <sourcetrack>
                  <mediatype>video</mediatype>
                  <trackindex>1</trackindex>
                </sourcetrack>
                <multiclip id="mcs-681">
                  <name>MCS-681</name>
                  <masterclipid>clip-master</masterclipid>
                  <collapsed>false</collapsed>
                  <angle>
                    <activevideoangle>false</activevideoangle>
                    <activeaudioangle>false</activeaudioangle>
                    <clip id="clip-1"/>
                  </angle>
                  <angle>
                    <activevideoangle>false</activevideoangle>
                    <activeaudioangle>false</activeaudioangle>
                    <clip id="clip-2"/>
                  </angle>
                  <angle>
                    <activevideoangle>true</activevideoangle>
                    <activeaudioangle>true</activeaudioangle>
                    <clip id="clip-3"/>
                  </angle>
                  <angle>
                    <activevideoangle>false</activevideoangle>
                    <activeaudioangle>false</activeaudioangle>
                    <clip id="clip-4"/>
                  </angle>
                  <angle>
                    <activevideoangle>false</activevideoangle>
                    <activeaudioangle>false</activeaudioangle>
                    <clip id="clip-5"/>
                  </angle>
                  <angle>
                    <activevideoangle>false</activevideoangle>
                    <activeaudioangle>false</activeaudioangle>
                    <clip id="clip-6"/>
                  </angle>
                  <angle>
                    <activevideoangle>false</activevideoangle>
                    <activeaudioangle>false</activeaudioangle>
                    <clip id="clip-7"/>
                  </angle>
                  <masterclipid>clip-master</masterclipid>
                </multiclip>
              </clipitem>
              <clipitem id="cs-682">
                <duration>67</duration>
                <rate>
                  <ntsc>false</ntsc>
                  <timebase>25</timebase>
                </rate>
                <in>83131</in>
                <out>83197</out>
                <start>83131</start>
                <end>83197</end>
                <file id="src-4"/>
                <sourcetrack>
                  <mediatype>video</mediatype>
                  <trackindex>1</trackindex>
                </sourcetrack>
                <multiclip id="mcs-682">
                  <name>MCS-682</name>
                  <masterclipid>clip-master</masterclipid>
                  <collapsed>false</collapsed>
                  <angle>
                    <activevideoangle>false</activevideoangle>
                    <activeaudioangle>false</activeaudioangle>
                    <clip id="clip-1"/>
                  </angle>
                  <angle>
                    <activevideoangle>false</activevideoangle>
                    <activeaudioangle>false</activeaudioangle>
                    <clip id="clip-2"/>
                  </angle>
                  <angle>
                    <activevideoangle>false</activevideoangle>
                    <activeaudioangle>false</activeaudioangle>
                    <clip id="clip-3"/>
                  </angle>
                  <angle>
                    <activevideoangle>true</activevideoangle>
                    <activeaudioangle>true</activeaudioangle>
                    <clip id="clip-4"/>
                  </angle>
                  <angle>
                    <activevideoangle>false</activevideoangle>
                    <activeaudioangle>false</activeaudioangle>
                    <clip id="clip-5"/>
                  </angle>
                  <angle>
                    <activevideoangle>false</activevideoangle>
                    <activeaudioangle>false</activeaudioangle>
                    <clip id="clip-6"/>
                  </angle>
                  <angle>
                    <activevideoangle>false</activevideoangle>
                    <activeaudioangle>false</activeaudioangle>
                    <clip id="clip-7"/>
                  </angle>
                  <masterclipid>clip-master</masterclipid>
                </multiclip>
              </clipitem>
              <clipitem id="cs-683">
                <duration>95</duration>
                <rate>
                  <ntsc>false</ntsc>
                  <timebase>25</timebase>
                </rate>
                <in>83197</in>
                <out>83291</out>
                <start>83197</start>
                <end>83291</end>
                <file id="src-2"/>
                <sourcetrack>
                  <mediatype>video</mediatype>
                  <trackindex>1</trackindex>
                </sourcetrack>
                <multiclip id="mcs-683">
                  <name>MCS-683</name>
                  <masterclipid>clip-master</masterclipid>
                  <collapsed>false</collapsed>
                  <angle>
                    <activevideoangle>false</activevideoangle>
                    <activeaudioangle>false</activeaudioangle>
                    <clip id="clip-1"/>
                  </angle>
                  <angle>
                    <activevideoangle>true</activevideoangle>
                    <activeaudioangle>true</activeaudioangle>
                    <clip id="clip-2"/>
                  </angle>
                  <angle>
                    <activevideoangle>false</activevideoangle>
                    <activeaudioangle>false</activeaudioangle>
                    <clip id="clip-3"/>
                  </angle>
                  <angle>
                    <activevideoangle>false</activevideoangle>
                    <activeaudioangle>false</activeaudioangle>
                    <clip id="clip-4"/>
                  </angle>
                  <angle>
                    <activevideoangle>false</activevideoangle>
                    <activeaudioangle>false</activeaudioangle>
                    <clip id="clip-5"/>
                  </angle>
                  <angle>
                    <activevideoangle>false</activevideoangle>
                    <activeaudioangle>false</activeaudioangle>
                    <clip id="clip-6"/>
                  </angle>
                  <angle>
                    <activevideoangle>false</activevideoangle>
                    <activeaudioangle>false</activeaudioangle>
                    <clip id="clip-7"/>
                  </angle>
                  <masterclipid>clip-master</masterclipid>
                </multiclip>
              </clipitem>
              <clipitem id="cs-684">
                <duration>40</duration>
                <rate>
                  <ntsc>false</ntsc>
                  <timebase>25</timebase>
                </rate>
                <in>83291</in>
                <out>83330</out>
                <start>83291</start>
                <end>83330</end>
                <file id="src-3"/>
                <sourcetrack>
                  <mediatype>video</mediatype>
                  <trackindex>1</trackindex>
                </sourcetrack>
                <multiclip id="mcs-684">
                  <name>MCS-684</name>
                  <masterclipid>clip-master</masterclipid>
                  <collapsed>false</collapsed>
                  <angle>
                    <activevideoangle>false</activevideoangle>
                    <activeaudioangle>false</activeaudioangle>
                    <clip id="clip-1"/>
                  </angle>
                  <angle>
                    <activevideoangle>false</activevideoangle>
                    <activeaudioangle>false</activeaudioangle>
                    <clip id="clip-2"/>
                  </angle>
                  <angle>
                    <activevideoangle>true</activevideoangle>
                    <activeaudioangle>true</activeaudioangle>
                    <clip id="clip-3"/>
                  </angle>
                  <angle>
                    <activevideoangle>false</activevideoangle>
                    <activeaudioangle>false</activeaudioangle>
                    <clip id="clip-4"/>
                  </angle>
                  <angle>
                    <activevideoangle>false</activevideoangle>
                    <activeaudioangle>false</activeaudioangle>
                    <clip id="clip-5"/>
                  </angle>
                  <angle>
                    <activevideoangle>false</activevideoangle>
                    <activeaudioangle>false</activeaudioangle>
                    <clip id="clip-6"/>
                  </angle>
                  <angle>
                    <activevideoangle>false</activevideoangle>
                    <activeaudioangle>false</activeaudioangle>
                    <clip id="clip-7"/>
                  </angle>
                  <masterclipid>clip-master</masterclipid>
                </multiclip>
              </clipitem>
              <clipitem id="cs-685">
                <duration>26</duration>
                <rate>
                  <ntsc>false</ntsc>
                  <timebase>25</timebase>
                </rate>
                <in>83330</in>
                <out>83355</out>
                <start>83330</start>
                <end>83355</end>
                <file id="src-6"/>
                <sourcetrack>
                  <mediatype>video</mediatype>
                  <trackindex>1</trackindex>
                </sourcetrack>
                <multiclip id="mcs-685">
                  <name>MCS-685</name>
                  <masterclipid>clip-master</masterclipid>
                  <collapsed>false</collapsed>
                  <angle>
                    <activevideoangle>false</activevideoangle>
                    <activeaudioangle>false</activeaudioangle>
                    <clip id="clip-1"/>
                  </angle>
                  <angle>
                    <activevideoangle>false</activevideoangle>
                    <activeaudioangle>false</activeaudioangle>
                    <clip id="clip-2"/>
                  </angle>
                  <angle>
                    <activevideoangle>false</activevideoangle>
                    <activeaudioangle>false</activeaudioangle>
                    <clip id="clip-3"/>
                  </angle>
                  <angle>
                    <activevideoangle>false</activevideoangle>
                    <activeaudioangle>false</activeaudioangle>
                    <clip id="clip-4"/>
                  </angle>
                  <angle>
                    <activevideoangle>false</activevideoangle>
                    <activeaudioangle>false</activeaudioangle>
                    <clip id="clip-5"/>
                  </angle>
                  <angle>
                    <activevideoangle>true</activevideoangle>
                    <activeaudioangle>true</activeaudioangle>
                    <clip id="clip-6"/>
                  </angle>
                  <angle>
                    <activevideoangle>false</activevideoangle>
                    <activeaudioangle>false</activeaudioangle>
                    <clip id="clip-7"/>
                  </angle>
                  <masterclipid>clip-master</masterclipid>
                </multiclip>
              </clipitem>
              <clipitem id="cs-686">
                <duration>95</duration>
                <rate>
                  <ntsc>false</ntsc>
                  <timebase>25</timebase>
                </rate>
                <in>83355</in>
                <out>83449</out>
                <start>83355</start>
                <end>83449</end>
                <file id="src-1"/>
                <sourcetrack>
                  <mediatype>video</mediatype>
                  <trackindex>1</trackindex>
                </sourcetrack>
                <multiclip id="mcs-686">
                  <name>MCS-686</name>
                  <masterclipid>clip-master</masterclipid>
                  <collapsed>false</collapsed>
                  <angle>
                    <activevideoangle>true</activevideoangle>
                    <activeaudioangle>true</activeaudioangle>
                    <clip id="clip-1"/>
                  </angle>
                  <angle>
                    <activevideoangle>false</activevideoangle>
                    <activeaudioangle>false</activeaudioangle>
                    <clip id="clip-2"/>
                  </angle>
                  <angle>
                    <activevideoangle>false</activevideoangle>
                    <activeaudioangle>false</activeaudioangle>
                    <clip id="clip-3"/>
                  </angle>
                  <angle>
                    <activevideoangle>false</activevideoangle>
                    <activeaudioangle>false</activeaudioangle>
                    <clip id="clip-4"/>
                  </angle>
                  <angle>
                    <activevideoangle>false</activevideoangle>
                    <activeaudioangle>false</activeaudioangle>
                    <clip id="clip-5"/>
                  </angle>
                  <angle>
                    <activevideoangle>false</activevideoangle>
                    <activeaudioangle>false</activeaudioangle>
                    <clip id="clip-6"/>
                  </angle>
                  <angle>
                    <activevideoangle>false</activevideoangle>
                    <activeaudioangle>false</activeaudioangle>
                    <clip id="clip-7"/>
                  </angle>
                  <masterclipid>clip-master</masterclipid>
                </multiclip>
              </clipitem>
              <clipitem id="cs-687">
                <duration>69</duration>
                <rate>
                  <ntsc>false</ntsc>
                  <timebase>25</timebase>
                </rate>
                <in>83449</in>
                <out>83517</out>
                <start>83449</start>
                <end>83517</end>
                <file id="src-6"/>
                <sourcetrack>
                  <mediatype>video</mediatype>
                  <trackindex>1</trackindex>
                </sourcetrack>
                <multiclip id="mcs-687">
                  <name>MCS-687</name>
                  <masterclipid>clip-master</masterclipid>
                  <collapsed>false</collapsed>
                  <angle>
                    <activevideoangle>false</activevideoangle>
                    <activeaudioangle>false</activeaudioangle>
                    <clip id="clip-1"/>
                  </angle>
                  <angle>
                    <activevideoangle>false</activevideoangle>
                    <activeaudioangle>false</activeaudioangle>
                    <clip id="clip-2"/>
                  </angle>
                  <angle>
                    <activevideoangle>false</activevideoangle>
                    <activeaudioangle>false</activeaudioangle>
                    <clip id="clip-3"/>
                  </angle>
                  <angle>
                    <activevideoangle>false</activevideoangle>
                    <activeaudioangle>false</activeaudioangle>
                    <clip id="clip-4"/>
                  </angle>
                  <angle>
                    <activevideoangle>false</activevideoangle>
                    <activeaudioangle>false</activeaudioangle>
                    <clip id="clip-5"/>
                  </angle>
                  <angle>
                    <activevideoangle>true</activevideoangle>
                    <activeaudioangle>true</activeaudioangle>
                    <clip id="clip-6"/>
                  </angle>
                  <angle>
                    <activevideoangle>false</activevideoangle>
                    <activeaudioangle>false</activeaudioangle>
                    <clip id="clip-7"/>
                  </angle>
                  <masterclipid>clip-master</masterclipid>
                </multiclip>
              </clipitem>
              <clipitem id="cs-688">
                <duration>26</duration>
                <rate>
                  <ntsc>false</ntsc>
                  <timebase>25</timebase>
                </rate>
                <in>83517</in>
                <out>83542</out>
                <start>83517</start>
                <end>83542</end>
                <file id="src-4"/>
                <sourcetrack>
                  <mediatype>video</mediatype>
                  <trackindex>1</trackindex>
                </sourcetrack>
                <multiclip id="mcs-688">
                  <name>MCS-688</name>
                  <masterclipid>clip-master</masterclipid>
                  <collapsed>false</collapsed>
                  <angle>
                    <activevideoangle>false</activevideoangle>
                    <activeaudioangle>false</activeaudioangle>
                    <clip id="clip-1"/>
                  </angle>
                  <angle>
                    <activevideoangle>false</activevideoangle>
                    <activeaudioangle>false</activeaudioangle>
                    <clip id="clip-2"/>
                  </angle>
                  <angle>
                    <activevideoangle>false</activevideoangle>
                    <activeaudioangle>false</activeaudioangle>
                    <clip id="clip-3"/>
                  </angle>
                  <angle>
                    <activevideoangle>true</activevideoangle>
                    <activeaudioangle>true</activeaudioangle>
                    <clip id="clip-4"/>
                  </angle>
                  <angle>
                    <activevideoangle>false</activevideoangle>
                    <activeaudioangle>false</activeaudioangle>
                    <clip id="clip-5"/>
                  </angle>
                  <angle>
                    <activevideoangle>false</activevideoangle>
                    <activeaudioangle>false</activeaudioangle>
                    <clip id="clip-6"/>
                  </angle>
                  <angle>
                    <activevideoangle>false</activevideoangle>
                    <activeaudioangle>false</activeaudioangle>
                    <clip id="clip-7"/>
                  </angle>
                  <masterclipid>clip-master</masterclipid>
                </multiclip>
              </clipitem>
              <clipitem id="cs-689">
                <duration>63</duration>
                <rate>
                  <ntsc>false</ntsc>
                  <timebase>25</timebase>
                </rate>
                <in>83542</in>
                <out>83604</out>
                <start>83542</start>
                <end>83604</end>
                <file id="src-1"/>
                <sourcetrack>
                  <mediatype>video</mediatype>
                  <trackindex>1</trackindex>
                </sourcetrack>
                <multiclip id="mcs-689">
                  <name>MCS-689</name>
                  <masterclipid>clip-master</masterclipid>
                  <collapsed>false</collapsed>
                  <angle>
                    <activevideoangle>true</activevideoangle>
                    <activeaudioangle>true</activeaudioangle>
                    <clip id="clip-1"/>
                  </angle>
                  <angle>
                    <activevideoangle>false</activevideoangle>
                    <activeaudioangle>false</activeaudioangle>
                    <clip id="clip-2"/>
                  </angle>
                  <angle>
                    <activevideoangle>false</activevideoangle>
                    <activeaudioangle>false</activeaudioangle>
                    <clip id="clip-3"/>
                  </angle>
                  <angle>
                    <activevideoangle>false</activevideoangle>
                    <activeaudioangle>false</activeaudioangle>
                    <clip id="clip-4"/>
                  </angle>
                  <angle>
                    <activevideoangle>false</activevideoangle>
                    <activeaudioangle>false</activeaudioangle>
                    <clip id="clip-5"/>
                  </angle>
                  <angle>
                    <activevideoangle>false</activevideoangle>
                    <activeaudioangle>false</activeaudioangle>
                    <clip id="clip-6"/>
                  </angle>
                  <angle>
                    <activevideoangle>false</activevideoangle>
                    <activeaudioangle>false</activeaudioangle>
                    <clip id="clip-7"/>
                  </angle>
                  <masterclipid>clip-master</masterclipid>
                </multiclip>
              </clipitem>
              <clipitem id="cs-690">
                <duration>110</duration>
                <rate>
                  <ntsc>false</ntsc>
                  <timebase>25</timebase>
                </rate>
                <in>83604</in>
                <out>83713</out>
                <start>83604</start>
                <end>83713</end>
                <file id="src-3"/>
                <sourcetrack>
                  <mediatype>video</mediatype>
                  <trackindex>1</trackindex>
                </sourcetrack>
                <multiclip id="mcs-690">
                  <name>MCS-690</name>
                  <masterclipid>clip-master</masterclipid>
                  <collapsed>false</collapsed>
                  <angle>
                    <activevideoangle>false</activevideoangle>
                    <activeaudioangle>false</activeaudioangle>
                    <clip id="clip-1"/>
                  </angle>
                  <angle>
                    <activevideoangle>false</activevideoangle>
                    <activeaudioangle>false</activeaudioangle>
                    <clip id="clip-2"/>
                  </angle>
                  <angle>
                    <activevideoangle>true</activevideoangle>
                    <activeaudioangle>true</activeaudioangle>
                    <clip id="clip-3"/>
                  </angle>
                  <angle>
                    <activevideoangle>false</activevideoangle>
                    <activeaudioangle>false</activeaudioangle>
                    <clip id="clip-4"/>
                  </angle>
                  <angle>
                    <activevideoangle>false</activevideoangle>
                    <activeaudioangle>false</activeaudioangle>
                    <clip id="clip-5"/>
                  </angle>
                  <angle>
                    <activevideoangle>false</activevideoangle>
                    <activeaudioangle>false</activeaudioangle>
                    <clip id="clip-6"/>
                  </angle>
                  <angle>
                    <activevideoangle>false</activevideoangle>
                    <activeaudioangle>false</activeaudioangle>
                    <clip id="clip-7"/>
                  </angle>
                  <masterclipid>clip-master</masterclipid>
                </multiclip>
              </clipitem>
              <clipitem id="cs-691">
                <duration>96</duration>
                <rate>
                  <ntsc>false</ntsc>
                  <timebase>25</timebase>
                </rate>
                <in>83713</in>
                <out>83808</out>
                <start>83713</start>
                <end>83808</end>
                <file id="src-1"/>
                <sourcetrack>
                  <mediatype>video</mediatype>
                  <trackindex>1</trackindex>
                </sourcetrack>
                <multiclip id="mcs-691">
                  <name>MCS-691</name>
                  <masterclipid>clip-master</masterclipid>
                  <collapsed>false</collapsed>
                  <angle>
                    <activevideoangle>true</activevideoangle>
                    <activeaudioangle>true</activeaudioangle>
                    <clip id="clip-1"/>
                  </angle>
                  <angle>
                    <activevideoangle>false</activevideoangle>
                    <activeaudioangle>false</activeaudioangle>
                    <clip id="clip-2"/>
                  </angle>
                  <angle>
                    <activevideoangle>false</activevideoangle>
                    <activeaudioangle>false</activeaudioangle>
                    <clip id="clip-3"/>
                  </angle>
                  <angle>
                    <activevideoangle>false</activevideoangle>
                    <activeaudioangle>false</activeaudioangle>
                    <clip id="clip-4"/>
                  </angle>
                  <angle>
                    <activevideoangle>false</activevideoangle>
                    <activeaudioangle>false</activeaudioangle>
                    <clip id="clip-5"/>
                  </angle>
                  <angle>
                    <activevideoangle>false</activevideoangle>
                    <activeaudioangle>false</activeaudioangle>
                    <clip id="clip-6"/>
                  </angle>
                  <angle>
                    <activevideoangle>false</activevideoangle>
                    <activeaudioangle>false</activeaudioangle>
                    <clip id="clip-7"/>
                  </angle>
                  <masterclipid>clip-master</masterclipid>
                </multiclip>
              </clipitem>
              <clipitem id="cs-692">
                <duration>180</duration>
                <rate>
                  <ntsc>false</ntsc>
                  <timebase>25</timebase>
                </rate>
                <in>83808</in>
                <out>83987</out>
                <start>83808</start>
                <end>83987</end>
                <file id="src-3"/>
                <sourcetrack>
                  <mediatype>video</mediatype>
                  <trackindex>1</trackindex>
                </sourcetrack>
                <multiclip id="mcs-692">
                  <name>MCS-692</name>
                  <masterclipid>clip-master</masterclipid>
                  <collapsed>false</collapsed>
                  <angle>
                    <activevideoangle>false</activevideoangle>
                    <activeaudioangle>false</activeaudioangle>
                    <clip id="clip-1"/>
                  </angle>
                  <angle>
                    <activevideoangle>false</activevideoangle>
                    <activeaudioangle>false</activeaudioangle>
                    <clip id="clip-2"/>
                  </angle>
                  <angle>
                    <activevideoangle>true</activevideoangle>
                    <activeaudioangle>true</activeaudioangle>
                    <clip id="clip-3"/>
                  </angle>
                  <angle>
                    <activevideoangle>false</activevideoangle>
                    <activeaudioangle>false</activeaudioangle>
                    <clip id="clip-4"/>
                  </angle>
                  <angle>
                    <activevideoangle>false</activevideoangle>
                    <activeaudioangle>false</activeaudioangle>
                    <clip id="clip-5"/>
                  </angle>
                  <angle>
                    <activevideoangle>false</activevideoangle>
                    <activeaudioangle>false</activeaudioangle>
                    <clip id="clip-6"/>
                  </angle>
                  <angle>
                    <activevideoangle>false</activevideoangle>
                    <activeaudioangle>false</activeaudioangle>
                    <clip id="clip-7"/>
                  </angle>
                  <masterclipid>clip-master</masterclipid>
                </multiclip>
              </clipitem>
              <clipitem id="cs-693">
                <duration>53</duration>
                <rate>
                  <ntsc>false</ntsc>
                  <timebase>25</timebase>
                </rate>
                <in>83987</in>
                <out>84039</out>
                <start>83987</start>
                <end>84039</end>
                <file id="src-2"/>
                <sourcetrack>
                  <mediatype>video</mediatype>
                  <trackindex>1</trackindex>
                </sourcetrack>
                <multiclip id="mcs-693">
                  <name>MCS-693</name>
                  <masterclipid>clip-master</masterclipid>
                  <collapsed>false</collapsed>
                  <angle>
                    <activevideoangle>false</activevideoangle>
                    <activeaudioangle>false</activeaudioangle>
                    <clip id="clip-1"/>
                  </angle>
                  <angle>
                    <activevideoangle>true</activevideoangle>
                    <activeaudioangle>true</activeaudioangle>
                    <clip id="clip-2"/>
                  </angle>
                  <angle>
                    <activevideoangle>false</activevideoangle>
                    <activeaudioangle>false</activeaudioangle>
                    <clip id="clip-3"/>
                  </angle>
                  <angle>
                    <activevideoangle>false</activevideoangle>
                    <activeaudioangle>false</activeaudioangle>
                    <clip id="clip-4"/>
                  </angle>
                  <angle>
                    <activevideoangle>false</activevideoangle>
                    <activeaudioangle>false</activeaudioangle>
                    <clip id="clip-5"/>
                  </angle>
                  <angle>
                    <activevideoangle>false</activevideoangle>
                    <activeaudioangle>false</activeaudioangle>
                    <clip id="clip-6"/>
                  </angle>
                  <angle>
                    <activevideoangle>false</activevideoangle>
                    <activeaudioangle>false</activeaudioangle>
                    <clip id="clip-7"/>
                  </angle>
                  <masterclipid>clip-master</masterclipid>
                </multiclip>
              </clipitem>
              <clipitem id="cs-694">
                <duration>45</duration>
                <rate>
                  <ntsc>false</ntsc>
                  <timebase>25</timebase>
                </rate>
                <in>84039</in>
                <out>84083</out>
                <start>84039</start>
                <end>84083</end>
                <file id="src-3"/>
                <sourcetrack>
                  <mediatype>video</mediatype>
                  <trackindex>1</trackindex>
                </sourcetrack>
                <multiclip id="mcs-694">
                  <name>MCS-694</name>
                  <masterclipid>clip-master</masterclipid>
                  <collapsed>false</collapsed>
                  <angle>
                    <activevideoangle>false</activevideoangle>
                    <activeaudioangle>false</activeaudioangle>
                    <clip id="clip-1"/>
                  </angle>
                  <angle>
                    <activevideoangle>false</activevideoangle>
                    <activeaudioangle>false</activeaudioangle>
                    <clip id="clip-2"/>
                  </angle>
                  <angle>
                    <activevideoangle>true</activevideoangle>
                    <activeaudioangle>true</activeaudioangle>
                    <clip id="clip-3"/>
                  </angle>
                  <angle>
                    <activevideoangle>false</activevideoangle>
                    <activeaudioangle>false</activeaudioangle>
                    <clip id="clip-4"/>
                  </angle>
                  <angle>
                    <activevideoangle>false</activevideoangle>
                    <activeaudioangle>false</activeaudioangle>
                    <clip id="clip-5"/>
                  </angle>
                  <angle>
                    <activevideoangle>false</activevideoangle>
                    <activeaudioangle>false</activeaudioangle>
                    <clip id="clip-6"/>
                  </angle>
                  <angle>
                    <activevideoangle>false</activevideoangle>
                    <activeaudioangle>false</activeaudioangle>
                    <clip id="clip-7"/>
                  </angle>
                  <masterclipid>clip-master</masterclipid>
                </multiclip>
              </clipitem>
              <clipitem id="cs-695">
                <duration>78</duration>
                <rate>
                  <ntsc>false</ntsc>
                  <timebase>25</timebase>
                </rate>
                <in>84083</in>
                <out>84160</out>
                <start>84083</start>
                <end>84160</end>
                <file id="src-6"/>
                <sourcetrack>
                  <mediatype>video</mediatype>
                  <trackindex>1</trackindex>
                </sourcetrack>
                <multiclip id="mcs-695">
                  <name>MCS-695</name>
                  <masterclipid>clip-master</masterclipid>
                  <collapsed>false</collapsed>
                  <angle>
                    <activevideoangle>false</activevideoangle>
                    <activeaudioangle>false</activeaudioangle>
                    <clip id="clip-1"/>
                  </angle>
                  <angle>
                    <activevideoangle>false</activevideoangle>
                    <activeaudioangle>false</activeaudioangle>
                    <clip id="clip-2"/>
                  </angle>
                  <angle>
                    <activevideoangle>false</activevideoangle>
                    <activeaudioangle>false</activeaudioangle>
                    <clip id="clip-3"/>
                  </angle>
                  <angle>
                    <activevideoangle>false</activevideoangle>
                    <activeaudioangle>false</activeaudioangle>
                    <clip id="clip-4"/>
                  </angle>
                  <angle>
                    <activevideoangle>false</activevideoangle>
                    <activeaudioangle>false</activeaudioangle>
                    <clip id="clip-5"/>
                  </angle>
                  <angle>
                    <activevideoangle>true</activevideoangle>
                    <activeaudioangle>true</activeaudioangle>
                    <clip id="clip-6"/>
                  </angle>
                  <angle>
                    <activevideoangle>false</activevideoangle>
                    <activeaudioangle>false</activeaudioangle>
                    <clip id="clip-7"/>
                  </angle>
                  <masterclipid>clip-master</masterclipid>
                </multiclip>
              </clipitem>
              <clipitem id="cs-696">
                <duration>69</duration>
                <rate>
                  <ntsc>false</ntsc>
                  <timebase>25</timebase>
                </rate>
                <in>84160</in>
                <out>84228</out>
                <start>84160</start>
                <end>84228</end>
                <file id="src-4"/>
                <sourcetrack>
                  <mediatype>video</mediatype>
                  <trackindex>1</trackindex>
                </sourcetrack>
                <multiclip id="mcs-696">
                  <name>MCS-696</name>
                  <masterclipid>clip-master</masterclipid>
                  <collapsed>false</collapsed>
                  <angle>
                    <activevideoangle>false</activevideoangle>
                    <activeaudioangle>false</activeaudioangle>
                    <clip id="clip-1"/>
                  </angle>
                  <angle>
                    <activevideoangle>false</activevideoangle>
                    <activeaudioangle>false</activeaudioangle>
                    <clip id="clip-2"/>
                  </angle>
                  <angle>
                    <activevideoangle>false</activevideoangle>
                    <activeaudioangle>false</activeaudioangle>
                    <clip id="clip-3"/>
                  </angle>
                  <angle>
                    <activevideoangle>true</activevideoangle>
                    <activeaudioangle>true</activeaudioangle>
                    <clip id="clip-4"/>
                  </angle>
                  <angle>
                    <activevideoangle>false</activevideoangle>
                    <activeaudioangle>false</activeaudioangle>
                    <clip id="clip-5"/>
                  </angle>
                  <angle>
                    <activevideoangle>false</activevideoangle>
                    <activeaudioangle>false</activeaudioangle>
                    <clip id="clip-6"/>
                  </angle>
                  <angle>
                    <activevideoangle>false</activevideoangle>
                    <activeaudioangle>false</activeaudioangle>
                    <clip id="clip-7"/>
                  </angle>
                  <masterclipid>clip-master</masterclipid>
                </multiclip>
              </clipitem>
              <clipitem id="cs-697">
                <duration>34</duration>
                <rate>
                  <ntsc>false</ntsc>
                  <timebase>25</timebase>
                </rate>
                <in>84228</in>
                <out>84261</out>
                <start>84228</start>
                <end>84261</end>
                <file id="src-3"/>
                <sourcetrack>
                  <mediatype>video</mediatype>
                  <trackindex>1</trackindex>
                </sourcetrack>
                <multiclip id="mcs-697">
                  <name>MCS-697</name>
                  <masterclipid>clip-master</masterclipid>
                  <collapsed>false</collapsed>
                  <angle>
                    <activevideoangle>false</activevideoangle>
                    <activeaudioangle>false</activeaudioangle>
                    <clip id="clip-1"/>
                  </angle>
                  <angle>
                    <activevideoangle>false</activevideoangle>
                    <activeaudioangle>false</activeaudioangle>
                    <clip id="clip-2"/>
                  </angle>
                  <angle>
                    <activevideoangle>true</activevideoangle>
                    <activeaudioangle>true</activeaudioangle>
                    <clip id="clip-3"/>
                  </angle>
                  <angle>
                    <activevideoangle>false</activevideoangle>
                    <activeaudioangle>false</activeaudioangle>
                    <clip id="clip-4"/>
                  </angle>
                  <angle>
                    <activevideoangle>false</activevideoangle>
                    <activeaudioangle>false</activeaudioangle>
                    <clip id="clip-5"/>
                  </angle>
                  <angle>
                    <activevideoangle>false</activevideoangle>
                    <activeaudioangle>false</activeaudioangle>
                    <clip id="clip-6"/>
                  </angle>
                  <angle>
                    <activevideoangle>false</activevideoangle>
                    <activeaudioangle>false</activeaudioangle>
                    <clip id="clip-7"/>
                  </angle>
                  <masterclipid>clip-master</masterclipid>
                </multiclip>
              </clipitem>
              <clipitem id="cs-698">
                <duration>80</duration>
                <rate>
                  <ntsc>false</ntsc>
                  <timebase>25</timebase>
                </rate>
                <in>84261</in>
                <out>84340</out>
                <start>84261</start>
                <end>84340</end>
                <file id="src-2"/>
                <sourcetrack>
                  <mediatype>video</mediatype>
                  <trackindex>1</trackindex>
                </sourcetrack>
                <multiclip id="mcs-698">
                  <name>MCS-698</name>
                  <masterclipid>clip-master</masterclipid>
                  <collapsed>false</collapsed>
                  <angle>
                    <activevideoangle>false</activevideoangle>
                    <activeaudioangle>false</activeaudioangle>
                    <clip id="clip-1"/>
                  </angle>
                  <angle>
                    <activevideoangle>true</activevideoangle>
                    <activeaudioangle>true</activeaudioangle>
                    <clip id="clip-2"/>
                  </angle>
                  <angle>
                    <activevideoangle>false</activevideoangle>
                    <activeaudioangle>false</activeaudioangle>
                    <clip id="clip-3"/>
                  </angle>
                  <angle>
                    <activevideoangle>false</activevideoangle>
                    <activeaudioangle>false</activeaudioangle>
                    <clip id="clip-4"/>
                  </angle>
                  <angle>
                    <activevideoangle>false</activevideoangle>
                    <activeaudioangle>false</activeaudioangle>
                    <clip id="clip-5"/>
                  </angle>
                  <angle>
                    <activevideoangle>false</activevideoangle>
                    <activeaudioangle>false</activeaudioangle>
                    <clip id="clip-6"/>
                  </angle>
                  <angle>
                    <activevideoangle>false</activevideoangle>
                    <activeaudioangle>false</activeaudioangle>
                    <clip id="clip-7"/>
                  </angle>
                  <masterclipid>clip-master</masterclipid>
                </multiclip>
              </clipitem>
              <clipitem id="cs-699">
                <duration>44</duration>
                <rate>
                  <ntsc>false</ntsc>
                  <timebase>25</timebase>
                </rate>
                <in>84340</in>
                <out>84383</out>
                <start>84340</start>
                <end>84383</end>
                <file id="src-4"/>
                <sourcetrack>
                  <mediatype>video</mediatype>
                  <trackindex>1</trackindex>
                </sourcetrack>
                <multiclip id="mcs-699">
                  <name>MCS-699</name>
                  <masterclipid>clip-master</masterclipid>
                  <collapsed>false</collapsed>
                  <angle>
                    <activevideoangle>false</activevideoangle>
                    <activeaudioangle>false</activeaudioangle>
                    <clip id="clip-1"/>
                  </angle>
                  <angle>
                    <activevideoangle>false</activevideoangle>
                    <activeaudioangle>false</activeaudioangle>
                    <clip id="clip-2"/>
                  </angle>
                  <angle>
                    <activevideoangle>false</activevideoangle>
                    <activeaudioangle>false</activeaudioangle>
                    <clip id="clip-3"/>
                  </angle>
                  <angle>
                    <activevideoangle>true</activevideoangle>
                    <activeaudioangle>true</activeaudioangle>
                    <clip id="clip-4"/>
                  </angle>
                  <angle>
                    <activevideoangle>false</activevideoangle>
                    <activeaudioangle>false</activeaudioangle>
                    <clip id="clip-5"/>
                  </angle>
                  <angle>
                    <activevideoangle>false</activevideoangle>
                    <activeaudioangle>false</activeaudioangle>
                    <clip id="clip-6"/>
                  </angle>
                  <angle>
                    <activevideoangle>false</activevideoangle>
                    <activeaudioangle>false</activeaudioangle>
                    <clip id="clip-7"/>
                  </angle>
                  <masterclipid>clip-master</masterclipid>
                </multiclip>
              </clipitem>
              <clipitem id="cs-700">
                <duration>49</duration>
                <rate>
                  <ntsc>false</ntsc>
                  <timebase>25</timebase>
                </rate>
                <in>84383</in>
                <out>84431</out>
                <start>84383</start>
                <end>84431</end>
                <file id="src-1"/>
                <sourcetrack>
                  <mediatype>video</mediatype>
                  <trackindex>1</trackindex>
                </sourcetrack>
                <multiclip id="mcs-700">
                  <name>MCS-700</name>
                  <masterclipid>clip-master</masterclipid>
                  <collapsed>false</collapsed>
                  <angle>
                    <activevideoangle>true</activevideoangle>
                    <activeaudioangle>true</activeaudioangle>
                    <clip id="clip-1"/>
                  </angle>
                  <angle>
                    <activevideoangle>false</activevideoangle>
                    <activeaudioangle>false</activeaudioangle>
                    <clip id="clip-2"/>
                  </angle>
                  <angle>
                    <activevideoangle>false</activevideoangle>
                    <activeaudioangle>false</activeaudioangle>
                    <clip id="clip-3"/>
                  </angle>
                  <angle>
                    <activevideoangle>false</activevideoangle>
                    <activeaudioangle>false</activeaudioangle>
                    <clip id="clip-4"/>
                  </angle>
                  <angle>
                    <activevideoangle>false</activevideoangle>
                    <activeaudioangle>false</activeaudioangle>
                    <clip id="clip-5"/>
                  </angle>
                  <angle>
                    <activevideoangle>false</activevideoangle>
                    <activeaudioangle>false</activeaudioangle>
                    <clip id="clip-6"/>
                  </angle>
                  <angle>
                    <activevideoangle>false</activevideoangle>
                    <activeaudioangle>false</activeaudioangle>
                    <clip id="clip-7"/>
                  </angle>
                  <masterclipid>clip-master</masterclipid>
                </multiclip>
              </clipitem>
              <clipitem id="cs-701">
                <duration>243</duration>
                <rate>
                  <ntsc>false</ntsc>
                  <timebase>25</timebase>
                </rate>
                <in>84431</in>
                <out>84673</out>
                <start>84431</start>
                <end>84673</end>
                <file id="src-3"/>
                <sourcetrack>
                  <mediatype>video</mediatype>
                  <trackindex>1</trackindex>
                </sourcetrack>
                <multiclip id="mcs-701">
                  <name>MCS-701</name>
                  <masterclipid>clip-master</masterclipid>
                  <collapsed>false</collapsed>
                  <angle>
                    <activevideoangle>false</activevideoangle>
                    <activeaudioangle>false</activeaudioangle>
                    <clip id="clip-1"/>
                  </angle>
                  <angle>
                    <activevideoangle>false</activevideoangle>
                    <activeaudioangle>false</activeaudioangle>
                    <clip id="clip-2"/>
                  </angle>
                  <angle>
                    <activevideoangle>true</activevideoangle>
                    <activeaudioangle>true</activeaudioangle>
                    <clip id="clip-3"/>
                  </angle>
                  <angle>
                    <activevideoangle>false</activevideoangle>
                    <activeaudioangle>false</activeaudioangle>
                    <clip id="clip-4"/>
                  </angle>
                  <angle>
                    <activevideoangle>false</activevideoangle>
                    <activeaudioangle>false</activeaudioangle>
                    <clip id="clip-5"/>
                  </angle>
                  <angle>
                    <activevideoangle>false</activevideoangle>
                    <activeaudioangle>false</activeaudioangle>
                    <clip id="clip-6"/>
                  </angle>
                  <angle>
                    <activevideoangle>false</activevideoangle>
                    <activeaudioangle>false</activeaudioangle>
                    <clip id="clip-7"/>
                  </angle>
                  <masterclipid>clip-master</masterclipid>
                </multiclip>
              </clipitem>
              <clipitem id="cs-702">
                <duration>118</duration>
                <rate>
                  <ntsc>false</ntsc>
                  <timebase>25</timebase>
                </rate>
                <in>84673</in>
                <out>84790</out>
                <start>84673</start>
                <end>84790</end>
                <file id="src-2"/>
                <sourcetrack>
                  <mediatype>video</mediatype>
                  <trackindex>1</trackindex>
                </sourcetrack>
                <multiclip id="mcs-702">
                  <name>MCS-702</name>
                  <masterclipid>clip-master</masterclipid>
                  <collapsed>false</collapsed>
                  <angle>
                    <activevideoangle>false</activevideoangle>
                    <activeaudioangle>false</activeaudioangle>
                    <clip id="clip-1"/>
                  </angle>
                  <angle>
                    <activevideoangle>true</activevideoangle>
                    <activeaudioangle>true</activeaudioangle>
                    <clip id="clip-2"/>
                  </angle>
                  <angle>
                    <activevideoangle>false</activevideoangle>
                    <activeaudioangle>false</activeaudioangle>
                    <clip id="clip-3"/>
                  </angle>
                  <angle>
                    <activevideoangle>false</activevideoangle>
                    <activeaudioangle>false</activeaudioangle>
                    <clip id="clip-4"/>
                  </angle>
                  <angle>
                    <activevideoangle>false</activevideoangle>
                    <activeaudioangle>false</activeaudioangle>
                    <clip id="clip-5"/>
                  </angle>
                  <angle>
                    <activevideoangle>false</activevideoangle>
                    <activeaudioangle>false</activeaudioangle>
                    <clip id="clip-6"/>
                  </angle>
                  <angle>
                    <activevideoangle>false</activevideoangle>
                    <activeaudioangle>false</activeaudioangle>
                    <clip id="clip-7"/>
                  </angle>
                  <masterclipid>clip-master</masterclipid>
                </multiclip>
              </clipitem>
              <clipitem id="cs-703">
                <duration>70</duration>
                <rate>
                  <ntsc>false</ntsc>
                  <timebase>25</timebase>
                </rate>
                <in>84790</in>
                <out>84859</out>
                <start>84790</start>
                <end>84859</end>
                <file id="src-1"/>
                <sourcetrack>
                  <mediatype>video</mediatype>
                  <trackindex>1</trackindex>
                </sourcetrack>
                <multiclip id="mcs-703">
                  <name>MCS-703</name>
                  <masterclipid>clip-master</masterclipid>
                  <collapsed>false</collapsed>
                  <angle>
                    <activevideoangle>true</activevideoangle>
                    <activeaudioangle>true</activeaudioangle>
                    <clip id="clip-1"/>
                  </angle>
                  <angle>
                    <activevideoangle>false</activevideoangle>
                    <activeaudioangle>false</activeaudioangle>
                    <clip id="clip-2"/>
                  </angle>
                  <angle>
                    <activevideoangle>false</activevideoangle>
                    <activeaudioangle>false</activeaudioangle>
                    <clip id="clip-3"/>
                  </angle>
                  <angle>
                    <activevideoangle>false</activevideoangle>
                    <activeaudioangle>false</activeaudioangle>
                    <clip id="clip-4"/>
                  </angle>
                  <angle>
                    <activevideoangle>false</activevideoangle>
                    <activeaudioangle>false</activeaudioangle>
                    <clip id="clip-5"/>
                  </angle>
                  <angle>
                    <activevideoangle>false</activevideoangle>
                    <activeaudioangle>false</activeaudioangle>
                    <clip id="clip-6"/>
                  </angle>
                  <angle>
                    <activevideoangle>false</activevideoangle>
                    <activeaudioangle>false</activeaudioangle>
                    <clip id="clip-7"/>
                  </angle>
                  <masterclipid>clip-master</masterclipid>
                </multiclip>
              </clipitem>
              <clipitem id="cs-704">
                <duration>73</duration>
                <rate>
                  <ntsc>false</ntsc>
                  <timebase>25</timebase>
                </rate>
                <in>84859</in>
                <out>84931</out>
                <start>84859</start>
                <end>84931</end>
                <file id="src-6"/>
                <sourcetrack>
                  <mediatype>video</mediatype>
                  <trackindex>1</trackindex>
                </sourcetrack>
                <multiclip id="mcs-704">
                  <name>MCS-704</name>
                  <masterclipid>clip-master</masterclipid>
                  <collapsed>false</collapsed>
                  <angle>
                    <activevideoangle>false</activevideoangle>
                    <activeaudioangle>false</activeaudioangle>
                    <clip id="clip-1"/>
                  </angle>
                  <angle>
                    <activevideoangle>false</activevideoangle>
                    <activeaudioangle>false</activeaudioangle>
                    <clip id="clip-2"/>
                  </angle>
                  <angle>
                    <activevideoangle>false</activevideoangle>
                    <activeaudioangle>false</activeaudioangle>
                    <clip id="clip-3"/>
                  </angle>
                  <angle>
                    <activevideoangle>false</activevideoangle>
                    <activeaudioangle>false</activeaudioangle>
                    <clip id="clip-4"/>
                  </angle>
                  <angle>
                    <activevideoangle>false</activevideoangle>
                    <activeaudioangle>false</activeaudioangle>
                    <clip id="clip-5"/>
                  </angle>
                  <angle>
                    <activevideoangle>true</activevideoangle>
                    <activeaudioangle>true</activeaudioangle>
                    <clip id="clip-6"/>
                  </angle>
                  <angle>
                    <activevideoangle>false</activevideoangle>
                    <activeaudioangle>false</activeaudioangle>
                    <clip id="clip-7"/>
                  </angle>
                  <masterclipid>clip-master</masterclipid>
                </multiclip>
              </clipitem>
              <clipitem id="cs-705">
                <duration>74</duration>
                <rate>
                  <ntsc>false</ntsc>
                  <timebase>25</timebase>
                </rate>
                <in>84931</in>
                <out>85004</out>
                <start>84931</start>
                <end>85004</end>
                <file id="src-3"/>
                <sourcetrack>
                  <mediatype>video</mediatype>
                  <trackindex>1</trackindex>
                </sourcetrack>
                <multiclip id="mcs-705">
                  <name>MCS-705</name>
                  <masterclipid>clip-master</masterclipid>
                  <collapsed>false</collapsed>
                  <angle>
                    <activevideoangle>false</activevideoangle>
                    <activeaudioangle>false</activeaudioangle>
                    <clip id="clip-1"/>
                  </angle>
                  <angle>
                    <activevideoangle>false</activevideoangle>
                    <activeaudioangle>false</activeaudioangle>
                    <clip id="clip-2"/>
                  </angle>
                  <angle>
                    <activevideoangle>true</activevideoangle>
                    <activeaudioangle>true</activeaudioangle>
                    <clip id="clip-3"/>
                  </angle>
                  <angle>
                    <activevideoangle>false</activevideoangle>
                    <activeaudioangle>false</activeaudioangle>
                    <clip id="clip-4"/>
                  </angle>
                  <angle>
                    <activevideoangle>false</activevideoangle>
                    <activeaudioangle>false</activeaudioangle>
                    <clip id="clip-5"/>
                  </angle>
                  <angle>
                    <activevideoangle>false</activevideoangle>
                    <activeaudioangle>false</activeaudioangle>
                    <clip id="clip-6"/>
                  </angle>
                  <angle>
                    <activevideoangle>false</activevideoangle>
                    <activeaudioangle>false</activeaudioangle>
                    <clip id="clip-7"/>
                  </angle>
                  <masterclipid>clip-master</masterclipid>
                </multiclip>
              </clipitem>
              <clipitem id="cs-706">
                <duration>69</duration>
                <rate>
                  <ntsc>false</ntsc>
                  <timebase>25</timebase>
                </rate>
                <in>85004</in>
                <out>85072</out>
                <start>85004</start>
                <end>85072</end>
                <file id="src-2"/>
                <sourcetrack>
                  <mediatype>video</mediatype>
                  <trackindex>1</trackindex>
                </sourcetrack>
                <multiclip id="mcs-706">
                  <name>MCS-706</name>
                  <masterclipid>clip-master</masterclipid>
                  <collapsed>false</collapsed>
                  <angle>
                    <activevideoangle>false</activevideoangle>
                    <activeaudioangle>false</activeaudioangle>
                    <clip id="clip-1"/>
                  </angle>
                  <angle>
                    <activevideoangle>true</activevideoangle>
                    <activeaudioangle>true</activeaudioangle>
                    <clip id="clip-2"/>
                  </angle>
                  <angle>
                    <activevideoangle>false</activevideoangle>
                    <activeaudioangle>false</activeaudioangle>
                    <clip id="clip-3"/>
                  </angle>
                  <angle>
                    <activevideoangle>false</activevideoangle>
                    <activeaudioangle>false</activeaudioangle>
                    <clip id="clip-4"/>
                  </angle>
                  <angle>
                    <activevideoangle>false</activevideoangle>
                    <activeaudioangle>false</activeaudioangle>
                    <clip id="clip-5"/>
                  </angle>
                  <angle>
                    <activevideoangle>false</activevideoangle>
                    <activeaudioangle>false</activeaudioangle>
                    <clip id="clip-6"/>
                  </angle>
                  <angle>
                    <activevideoangle>false</activevideoangle>
                    <activeaudioangle>false</activeaudioangle>
                    <clip id="clip-7"/>
                  </angle>
                  <masterclipid>clip-master</masterclipid>
                </multiclip>
              </clipitem>
              <clipitem id="cs-707">
                <duration>93</duration>
                <rate>
                  <ntsc>false</ntsc>
                  <timebase>25</timebase>
                </rate>
                <in>85072</in>
                <out>85164</out>
                <start>85072</start>
                <end>85164</end>
                <file id="src-3"/>
                <sourcetrack>
                  <mediatype>video</mediatype>
                  <trackindex>1</trackindex>
                </sourcetrack>
                <multiclip id="mcs-707">
                  <name>MCS-707</name>
                  <masterclipid>clip-master</masterclipid>
                  <collapsed>false</collapsed>
                  <angle>
                    <activevideoangle>false</activevideoangle>
                    <activeaudioangle>false</activeaudioangle>
                    <clip id="clip-1"/>
                  </angle>
                  <angle>
                    <activevideoangle>false</activevideoangle>
                    <activeaudioangle>false</activeaudioangle>
                    <clip id="clip-2"/>
                  </angle>
                  <angle>
                    <activevideoangle>true</activevideoangle>
                    <activeaudioangle>true</activeaudioangle>
                    <clip id="clip-3"/>
                  </angle>
                  <angle>
                    <activevideoangle>false</activevideoangle>
                    <activeaudioangle>false</activeaudioangle>
                    <clip id="clip-4"/>
                  </angle>
                  <angle>
                    <activevideoangle>false</activevideoangle>
                    <activeaudioangle>false</activeaudioangle>
                    <clip id="clip-5"/>
                  </angle>
                  <angle>
                    <activevideoangle>false</activevideoangle>
                    <activeaudioangle>false</activeaudioangle>
                    <clip id="clip-6"/>
                  </angle>
                  <angle>
                    <activevideoangle>false</activevideoangle>
                    <activeaudioangle>false</activeaudioangle>
                    <clip id="clip-7"/>
                  </angle>
                  <masterclipid>clip-master</masterclipid>
                </multiclip>
              </clipitem>
              <clipitem id="cs-708">
                <duration>76</duration>
                <rate>
                  <ntsc>false</ntsc>
                  <timebase>25</timebase>
                </rate>
                <in>85164</in>
                <out>85239</out>
                <start>85164</start>
                <end>85239</end>
                <file id="src-4"/>
                <sourcetrack>
                  <mediatype>video</mediatype>
                  <trackindex>1</trackindex>
                </sourcetrack>
                <multiclip id="mcs-708">
                  <name>MCS-708</name>
                  <masterclipid>clip-master</masterclipid>
                  <collapsed>false</collapsed>
                  <angle>
                    <activevideoangle>false</activevideoangle>
                    <activeaudioangle>false</activeaudioangle>
                    <clip id="clip-1"/>
                  </angle>
                  <angle>
                    <activevideoangle>false</activevideoangle>
                    <activeaudioangle>false</activeaudioangle>
                    <clip id="clip-2"/>
                  </angle>
                  <angle>
                    <activevideoangle>false</activevideoangle>
                    <activeaudioangle>false</activeaudioangle>
                    <clip id="clip-3"/>
                  </angle>
                  <angle>
                    <activevideoangle>true</activevideoangle>
                    <activeaudioangle>true</activeaudioangle>
                    <clip id="clip-4"/>
                  </angle>
                  <angle>
                    <activevideoangle>false</activevideoangle>
                    <activeaudioangle>false</activeaudioangle>
                    <clip id="clip-5"/>
                  </angle>
                  <angle>
                    <activevideoangle>false</activevideoangle>
                    <activeaudioangle>false</activeaudioangle>
                    <clip id="clip-6"/>
                  </angle>
                  <angle>
                    <activevideoangle>false</activevideoangle>
                    <activeaudioangle>false</activeaudioangle>
                    <clip id="clip-7"/>
                  </angle>
                  <masterclipid>clip-master</masterclipid>
                </multiclip>
              </clipitem>
              <clipitem id="cs-709">
                <duration>61</duration>
                <rate>
                  <ntsc>false</ntsc>
                  <timebase>25</timebase>
                </rate>
                <in>85239</in>
                <out>85299</out>
                <start>85239</start>
                <end>85299</end>
                <file id="src-6"/>
                <sourcetrack>
                  <mediatype>video</mediatype>
                  <trackindex>1</trackindex>
                </sourcetrack>
                <multiclip id="mcs-709">
                  <name>MCS-709</name>
                  <masterclipid>clip-master</masterclipid>
                  <collapsed>false</collapsed>
                  <angle>
                    <activevideoangle>false</activevideoangle>
                    <activeaudioangle>false</activeaudioangle>
                    <clip id="clip-1"/>
                  </angle>
                  <angle>
                    <activevideoangle>false</activevideoangle>
                    <activeaudioangle>false</activeaudioangle>
                    <clip id="clip-2"/>
                  </angle>
                  <angle>
                    <activevideoangle>false</activevideoangle>
                    <activeaudioangle>false</activeaudioangle>
                    <clip id="clip-3"/>
                  </angle>
                  <angle>
                    <activevideoangle>false</activevideoangle>
                    <activeaudioangle>false</activeaudioangle>
                    <clip id="clip-4"/>
                  </angle>
                  <angle>
                    <activevideoangle>false</activevideoangle>
                    <activeaudioangle>false</activeaudioangle>
                    <clip id="clip-5"/>
                  </angle>
                  <angle>
                    <activevideoangle>true</activevideoangle>
                    <activeaudioangle>true</activeaudioangle>
                    <clip id="clip-6"/>
                  </angle>
                  <angle>
                    <activevideoangle>false</activevideoangle>
                    <activeaudioangle>false</activeaudioangle>
                    <clip id="clip-7"/>
                  </angle>
                  <masterclipid>clip-master</masterclipid>
                </multiclip>
              </clipitem>
              <clipitem id="cs-710">
                <duration>161</duration>
                <rate>
                  <ntsc>false</ntsc>
                  <timebase>25</timebase>
                </rate>
                <in>85299</in>
                <out>85459</out>
                <start>85299</start>
                <end>85459</end>
                <file id="src-1"/>
                <sourcetrack>
                  <mediatype>video</mediatype>
                  <trackindex>1</trackindex>
                </sourcetrack>
                <multiclip id="mcs-710">
                  <name>MCS-710</name>
                  <masterclipid>clip-master</masterclipid>
                  <collapsed>false</collapsed>
                  <angle>
                    <activevideoangle>true</activevideoangle>
                    <activeaudioangle>true</activeaudioangle>
                    <clip id="clip-1"/>
                  </angle>
                  <angle>
                    <activevideoangle>false</activevideoangle>
                    <activeaudioangle>false</activeaudioangle>
                    <clip id="clip-2"/>
                  </angle>
                  <angle>
                    <activevideoangle>false</activevideoangle>
                    <activeaudioangle>false</activeaudioangle>
                    <clip id="clip-3"/>
                  </angle>
                  <angle>
                    <activevideoangle>false</activevideoangle>
                    <activeaudioangle>false</activeaudioangle>
                    <clip id="clip-4"/>
                  </angle>
                  <angle>
                    <activevideoangle>false</activevideoangle>
                    <activeaudioangle>false</activeaudioangle>
                    <clip id="clip-5"/>
                  </angle>
                  <angle>
                    <activevideoangle>false</activevideoangle>
                    <activeaudioangle>false</activeaudioangle>
                    <clip id="clip-6"/>
                  </angle>
                  <angle>
                    <activevideoangle>false</activevideoangle>
                    <activeaudioangle>false</activeaudioangle>
                    <clip id="clip-7"/>
                  </angle>
                  <masterclipid>clip-master</masterclipid>
                </multiclip>
              </clipitem>
              <clipitem id="cs-711">
                <duration>141</duration>
                <rate>
                  <ntsc>false</ntsc>
                  <timebase>25</timebase>
                </rate>
                <in>85459</in>
                <out>85599</out>
                <start>85459</start>
                <end>85599</end>
                <file id="src-2"/>
                <sourcetrack>
                  <mediatype>video</mediatype>
                  <trackindex>1</trackindex>
                </sourcetrack>
                <multiclip id="mcs-711">
                  <name>MCS-711</name>
                  <masterclipid>clip-master</masterclipid>
                  <collapsed>false</collapsed>
                  <angle>
                    <activevideoangle>false</activevideoangle>
                    <activeaudioangle>false</activeaudioangle>
                    <clip id="clip-1"/>
                  </angle>
                  <angle>
                    <activevideoangle>true</activevideoangle>
                    <activeaudioangle>true</activeaudioangle>
                    <clip id="clip-2"/>
                  </angle>
                  <angle>
                    <activevideoangle>false</activevideoangle>
                    <activeaudioangle>false</activeaudioangle>
                    <clip id="clip-3"/>
                  </angle>
                  <angle>
                    <activevideoangle>false</activevideoangle>
                    <activeaudioangle>false</activeaudioangle>
                    <clip id="clip-4"/>
                  </angle>
                  <angle>
                    <activevideoangle>false</activevideoangle>
                    <activeaudioangle>false</activeaudioangle>
                    <clip id="clip-5"/>
                  </angle>
                  <angle>
                    <activevideoangle>false</activevideoangle>
                    <activeaudioangle>false</activeaudioangle>
                    <clip id="clip-6"/>
                  </angle>
                  <angle>
                    <activevideoangle>false</activevideoangle>
                    <activeaudioangle>false</activeaudioangle>
                    <clip id="clip-7"/>
                  </angle>
                  <masterclipid>clip-master</masterclipid>
                </multiclip>
              </clipitem>
              <clipitem id="cs-712">
                <duration>334</duration>
                <rate>
                  <ntsc>false</ntsc>
                  <timebase>25</timebase>
                </rate>
                <in>85599</in>
                <out>85932</out>
                <start>85599</start>
                <end>85932</end>
                <file id="src-3"/>
                <sourcetrack>
                  <mediatype>video</mediatype>
                  <trackindex>1</trackindex>
                </sourcetrack>
                <multiclip id="mcs-712">
                  <name>MCS-712</name>
                  <masterclipid>clip-master</masterclipid>
                  <collapsed>false</collapsed>
                  <angle>
                    <activevideoangle>false</activevideoangle>
                    <activeaudioangle>false</activeaudioangle>
                    <clip id="clip-1"/>
                  </angle>
                  <angle>
                    <activevideoangle>false</activevideoangle>
                    <activeaudioangle>false</activeaudioangle>
                    <clip id="clip-2"/>
                  </angle>
                  <angle>
                    <activevideoangle>true</activevideoangle>
                    <activeaudioangle>true</activeaudioangle>
                    <clip id="clip-3"/>
                  </angle>
                  <angle>
                    <activevideoangle>false</activevideoangle>
                    <activeaudioangle>false</activeaudioangle>
                    <clip id="clip-4"/>
                  </angle>
                  <angle>
                    <activevideoangle>false</activevideoangle>
                    <activeaudioangle>false</activeaudioangle>
                    <clip id="clip-5"/>
                  </angle>
                  <angle>
                    <activevideoangle>false</activevideoangle>
                    <activeaudioangle>false</activeaudioangle>
                    <clip id="clip-6"/>
                  </angle>
                  <angle>
                    <activevideoangle>false</activevideoangle>
                    <activeaudioangle>false</activeaudioangle>
                    <clip id="clip-7"/>
                  </angle>
                  <masterclipid>clip-master</masterclipid>
                </multiclip>
              </clipitem>
              <clipitem id="cs-713">
                <duration>101</duration>
                <rate>
                  <ntsc>false</ntsc>
                  <timebase>25</timebase>
                </rate>
                <in>85932</in>
                <out>86032</out>
                <start>85932</start>
                <end>86032</end>
                <file id="src-1"/>
                <sourcetrack>
                  <mediatype>video</mediatype>
                  <trackindex>1</trackindex>
                </sourcetrack>
                <multiclip id="mcs-713">
                  <name>MCS-713</name>
                  <masterclipid>clip-master</masterclipid>
                  <collapsed>false</collapsed>
                  <angle>
                    <activevideoangle>true</activevideoangle>
                    <activeaudioangle>true</activeaudioangle>
                    <clip id="clip-1"/>
                  </angle>
                  <angle>
                    <activevideoangle>false</activevideoangle>
                    <activeaudioangle>false</activeaudioangle>
                    <clip id="clip-2"/>
                  </angle>
                  <angle>
                    <activevideoangle>false</activevideoangle>
                    <activeaudioangle>false</activeaudioangle>
                    <clip id="clip-3"/>
                  </angle>
                  <angle>
                    <activevideoangle>false</activevideoangle>
                    <activeaudioangle>false</activeaudioangle>
                    <clip id="clip-4"/>
                  </angle>
                  <angle>
                    <activevideoangle>false</activevideoangle>
                    <activeaudioangle>false</activeaudioangle>
                    <clip id="clip-5"/>
                  </angle>
                  <angle>
                    <activevideoangle>false</activevideoangle>
                    <activeaudioangle>false</activeaudioangle>
                    <clip id="clip-6"/>
                  </angle>
                  <angle>
                    <activevideoangle>false</activevideoangle>
                    <activeaudioangle>false</activeaudioangle>
                    <clip id="clip-7"/>
                  </angle>
                  <masterclipid>clip-master</masterclipid>
                </multiclip>
              </clipitem>
              <clipitem id="cs-714">
                <duration>132</duration>
                <rate>
                  <ntsc>false</ntsc>
                  <timebase>25</timebase>
                </rate>
                <in>86032</in>
                <out>86163</out>
                <start>86032</start>
                <end>86163</end>
                <file id="src-3"/>
                <sourcetrack>
                  <mediatype>video</mediatype>
                  <trackindex>1</trackindex>
                </sourcetrack>
                <multiclip id="mcs-714">
                  <name>MCS-714</name>
                  <masterclipid>clip-master</masterclipid>
                  <collapsed>false</collapsed>
                  <angle>
                    <activevideoangle>false</activevideoangle>
                    <activeaudioangle>false</activeaudioangle>
                    <clip id="clip-1"/>
                  </angle>
                  <angle>
                    <activevideoangle>false</activevideoangle>
                    <activeaudioangle>false</activeaudioangle>
                    <clip id="clip-2"/>
                  </angle>
                  <angle>
                    <activevideoangle>true</activevideoangle>
                    <activeaudioangle>true</activeaudioangle>
                    <clip id="clip-3"/>
                  </angle>
                  <angle>
                    <activevideoangle>false</activevideoangle>
                    <activeaudioangle>false</activeaudioangle>
                    <clip id="clip-4"/>
                  </angle>
                  <angle>
                    <activevideoangle>false</activevideoangle>
                    <activeaudioangle>false</activeaudioangle>
                    <clip id="clip-5"/>
                  </angle>
                  <angle>
                    <activevideoangle>false</activevideoangle>
                    <activeaudioangle>false</activeaudioangle>
                    <clip id="clip-6"/>
                  </angle>
                  <angle>
                    <activevideoangle>false</activevideoangle>
                    <activeaudioangle>false</activeaudioangle>
                    <clip id="clip-7"/>
                  </angle>
                  <masterclipid>clip-master</masterclipid>
                </multiclip>
              </clipitem>
              <clipitem id="cs-715">
                <duration>47</duration>
                <rate>
                  <ntsc>false</ntsc>
                  <timebase>25</timebase>
                </rate>
                <in>86163</in>
                <out>86209</out>
                <start>86163</start>
                <end>86209</end>
                <file id="src-1"/>
                <sourcetrack>
                  <mediatype>video</mediatype>
                  <trackindex>1</trackindex>
                </sourcetrack>
                <multiclip id="mcs-715">
                  <name>MCS-715</name>
                  <masterclipid>clip-master</masterclipid>
                  <collapsed>false</collapsed>
                  <angle>
                    <activevideoangle>true</activevideoangle>
                    <activeaudioangle>true</activeaudioangle>
                    <clip id="clip-1"/>
                  </angle>
                  <angle>
                    <activevideoangle>false</activevideoangle>
                    <activeaudioangle>false</activeaudioangle>
                    <clip id="clip-2"/>
                  </angle>
                  <angle>
                    <activevideoangle>false</activevideoangle>
                    <activeaudioangle>false</activeaudioangle>
                    <clip id="clip-3"/>
                  </angle>
                  <angle>
                    <activevideoangle>false</activevideoangle>
                    <activeaudioangle>false</activeaudioangle>
                    <clip id="clip-4"/>
                  </angle>
                  <angle>
                    <activevideoangle>false</activevideoangle>
                    <activeaudioangle>false</activeaudioangle>
                    <clip id="clip-5"/>
                  </angle>
                  <angle>
                    <activevideoangle>false</activevideoangle>
                    <activeaudioangle>false</activeaudioangle>
                    <clip id="clip-6"/>
                  </angle>
                  <angle>
                    <activevideoangle>false</activevideoangle>
                    <activeaudioangle>false</activeaudioangle>
                    <clip id="clip-7"/>
                  </angle>
                  <masterclipid>clip-master</masterclipid>
                </multiclip>
              </clipitem>
              <clipitem id="cs-716">
                <duration>144</duration>
                <rate>
                  <ntsc>false</ntsc>
                  <timebase>25</timebase>
                </rate>
                <in>86209</in>
                <out>86352</out>
                <start>86209</start>
                <end>86352</end>
                <file id="src-2"/>
                <sourcetrack>
                  <mediatype>video</mediatype>
                  <trackindex>1</trackindex>
                </sourcetrack>
                <multiclip id="mcs-716">
                  <name>MCS-716</name>
                  <masterclipid>clip-master</masterclipid>
                  <collapsed>false</collapsed>
                  <angle>
                    <activevideoangle>false</activevideoangle>
                    <activeaudioangle>false</activeaudioangle>
                    <clip id="clip-1"/>
                  </angle>
                  <angle>
                    <activevideoangle>true</activevideoangle>
                    <activeaudioangle>true</activeaudioangle>
                    <clip id="clip-2"/>
                  </angle>
                  <angle>
                    <activevideoangle>false</activevideoangle>
                    <activeaudioangle>false</activeaudioangle>
                    <clip id="clip-3"/>
                  </angle>
                  <angle>
                    <activevideoangle>false</activevideoangle>
                    <activeaudioangle>false</activeaudioangle>
                    <clip id="clip-4"/>
                  </angle>
                  <angle>
                    <activevideoangle>false</activevideoangle>
                    <activeaudioangle>false</activeaudioangle>
                    <clip id="clip-5"/>
                  </angle>
                  <angle>
                    <activevideoangle>false</activevideoangle>
                    <activeaudioangle>false</activeaudioangle>
                    <clip id="clip-6"/>
                  </angle>
                  <angle>
                    <activevideoangle>false</activevideoangle>
                    <activeaudioangle>false</activeaudioangle>
                    <clip id="clip-7"/>
                  </angle>
                  <masterclipid>clip-master</masterclipid>
                </multiclip>
              </clipitem>
              <clipitem id="cs-717">
                <duration>45</duration>
                <rate>
                  <ntsc>false</ntsc>
                  <timebase>25</timebase>
                </rate>
                <in>86352</in>
                <out>86396</out>
                <start>86352</start>
                <end>86396</end>
                <file id="src-1"/>
                <sourcetrack>
                  <mediatype>video</mediatype>
                  <trackindex>1</trackindex>
                </sourcetrack>
                <multiclip id="mcs-717">
                  <name>MCS-717</name>
                  <masterclipid>clip-master</masterclipid>
                  <collapsed>false</collapsed>
                  <angle>
                    <activevideoangle>true</activevideoangle>
                    <activeaudioangle>true</activeaudioangle>
                    <clip id="clip-1"/>
                  </angle>
                  <angle>
                    <activevideoangle>false</activevideoangle>
                    <activeaudioangle>false</activeaudioangle>
                    <clip id="clip-2"/>
                  </angle>
                  <angle>
                    <activevideoangle>false</activevideoangle>
                    <activeaudioangle>false</activeaudioangle>
                    <clip id="clip-3"/>
                  </angle>
                  <angle>
                    <activevideoangle>false</activevideoangle>
                    <activeaudioangle>false</activeaudioangle>
                    <clip id="clip-4"/>
                  </angle>
                  <angle>
                    <activevideoangle>false</activevideoangle>
                    <activeaudioangle>false</activeaudioangle>
                    <clip id="clip-5"/>
                  </angle>
                  <angle>
                    <activevideoangle>false</activevideoangle>
                    <activeaudioangle>false</activeaudioangle>
                    <clip id="clip-6"/>
                  </angle>
                  <angle>
                    <activevideoangle>false</activevideoangle>
                    <activeaudioangle>false</activeaudioangle>
                    <clip id="clip-7"/>
                  </angle>
                  <masterclipid>clip-master</masterclipid>
                </multiclip>
              </clipitem>
              <clipitem id="cs-718">
                <duration>88</duration>
                <rate>
                  <ntsc>false</ntsc>
                  <timebase>25</timebase>
                </rate>
                <in>86396</in>
                <out>86483</out>
                <start>86396</start>
                <end>86483</end>
                <file id="src-3"/>
                <sourcetrack>
                  <mediatype>video</mediatype>
                  <trackindex>1</trackindex>
                </sourcetrack>
                <multiclip id="mcs-718">
                  <name>MCS-718</name>
                  <masterclipid>clip-master</masterclipid>
                  <collapsed>false</collapsed>
                  <angle>
                    <activevideoangle>false</activevideoangle>
                    <activeaudioangle>false</activeaudioangle>
                    <clip id="clip-1"/>
                  </angle>
                  <angle>
                    <activevideoangle>false</activevideoangle>
                    <activeaudioangle>false</activeaudioangle>
                    <clip id="clip-2"/>
                  </angle>
                  <angle>
                    <activevideoangle>true</activevideoangle>
                    <activeaudioangle>true</activeaudioangle>
                    <clip id="clip-3"/>
                  </angle>
                  <angle>
                    <activevideoangle>false</activevideoangle>
                    <activeaudioangle>false</activeaudioangle>
                    <clip id="clip-4"/>
                  </angle>
                  <angle>
                    <activevideoangle>false</activevideoangle>
                    <activeaudioangle>false</activeaudioangle>
                    <clip id="clip-5"/>
                  </angle>
                  <angle>
                    <activevideoangle>false</activevideoangle>
                    <activeaudioangle>false</activeaudioangle>
                    <clip id="clip-6"/>
                  </angle>
                  <angle>
                    <activevideoangle>false</activevideoangle>
                    <activeaudioangle>false</activeaudioangle>
                    <clip id="clip-7"/>
                  </angle>
                  <masterclipid>clip-master</masterclipid>
                </multiclip>
              </clipitem>
              <clipitem id="cs-719">
                <duration>51</duration>
                <rate>
                  <ntsc>false</ntsc>
                  <timebase>25</timebase>
                </rate>
                <in>86483</in>
                <out>86533</out>
                <start>86483</start>
                <end>86533</end>
                <file id="src-2"/>
                <sourcetrack>
                  <mediatype>video</mediatype>
                  <trackindex>1</trackindex>
                </sourcetrack>
                <multiclip id="mcs-719">
                  <name>MCS-719</name>
                  <masterclipid>clip-master</masterclipid>
                  <collapsed>false</collapsed>
                  <angle>
                    <activevideoangle>false</activevideoangle>
                    <activeaudioangle>false</activeaudioangle>
                    <clip id="clip-1"/>
                  </angle>
                  <angle>
                    <activevideoangle>true</activevideoangle>
                    <activeaudioangle>true</activeaudioangle>
                    <clip id="clip-2"/>
                  </angle>
                  <angle>
                    <activevideoangle>false</activevideoangle>
                    <activeaudioangle>false</activeaudioangle>
                    <clip id="clip-3"/>
                  </angle>
                  <angle>
                    <activevideoangle>false</activevideoangle>
                    <activeaudioangle>false</activeaudioangle>
                    <clip id="clip-4"/>
                  </angle>
                  <angle>
                    <activevideoangle>false</activevideoangle>
                    <activeaudioangle>false</activeaudioangle>
                    <clip id="clip-5"/>
                  </angle>
                  <angle>
                    <activevideoangle>false</activevideoangle>
                    <activeaudioangle>false</activeaudioangle>
                    <clip id="clip-6"/>
                  </angle>
                  <angle>
                    <activevideoangle>false</activevideoangle>
                    <activeaudioangle>false</activeaudioangle>
                    <clip id="clip-7"/>
                  </angle>
                  <masterclipid>clip-master</masterclipid>
                </multiclip>
              </clipitem>
              <clipitem id="cs-720">
                <duration>66</duration>
                <rate>
                  <ntsc>false</ntsc>
                  <timebase>25</timebase>
                </rate>
                <in>86533</in>
                <out>86598</out>
                <start>86533</start>
                <end>86598</end>
                <file id="src-1"/>
                <sourcetrack>
                  <mediatype>video</mediatype>
                  <trackindex>1</trackindex>
                </sourcetrack>
                <multiclip id="mcs-720">
                  <name>MCS-720</name>
                  <masterclipid>clip-master</masterclipid>
                  <collapsed>false</collapsed>
                  <angle>
                    <activevideoangle>true</activevideoangle>
                    <activeaudioangle>true</activeaudioangle>
                    <clip id="clip-1"/>
                  </angle>
                  <angle>
                    <activevideoangle>false</activevideoangle>
                    <activeaudioangle>false</activeaudioangle>
                    <clip id="clip-2"/>
                  </angle>
                  <angle>
                    <activevideoangle>false</activevideoangle>
                    <activeaudioangle>false</activeaudioangle>
                    <clip id="clip-3"/>
                  </angle>
                  <angle>
                    <activevideoangle>false</activevideoangle>
                    <activeaudioangle>false</activeaudioangle>
                    <clip id="clip-4"/>
                  </angle>
                  <angle>
                    <activevideoangle>false</activevideoangle>
                    <activeaudioangle>false</activeaudioangle>
                    <clip id="clip-5"/>
                  </angle>
                  <angle>
                    <activevideoangle>false</activevideoangle>
                    <activeaudioangle>false</activeaudioangle>
                    <clip id="clip-6"/>
                  </angle>
                  <angle>
                    <activevideoangle>false</activevideoangle>
                    <activeaudioangle>false</activeaudioangle>
                    <clip id="clip-7"/>
                  </angle>
                  <masterclipid>clip-master</masterclipid>
                </multiclip>
              </clipitem>
              <clipitem id="cs-721">
                <duration>166</duration>
                <rate>
                  <ntsc>false</ntsc>
                  <timebase>25</timebase>
                </rate>
                <in>86598</in>
                <out>86763</out>
                <start>86598</start>
                <end>86763</end>
                <file id="src-2"/>
                <sourcetrack>
                  <mediatype>video</mediatype>
                  <trackindex>1</trackindex>
                </sourcetrack>
                <multiclip id="mcs-721">
                  <name>MCS-721</name>
                  <masterclipid>clip-master</masterclipid>
                  <collapsed>false</collapsed>
                  <angle>
                    <activevideoangle>false</activevideoangle>
                    <activeaudioangle>false</activeaudioangle>
                    <clip id="clip-1"/>
                  </angle>
                  <angle>
                    <activevideoangle>true</activevideoangle>
                    <activeaudioangle>true</activeaudioangle>
                    <clip id="clip-2"/>
                  </angle>
                  <angle>
                    <activevideoangle>false</activevideoangle>
                    <activeaudioangle>false</activeaudioangle>
                    <clip id="clip-3"/>
                  </angle>
                  <angle>
                    <activevideoangle>false</activevideoangle>
                    <activeaudioangle>false</activeaudioangle>
                    <clip id="clip-4"/>
                  </angle>
                  <angle>
                    <activevideoangle>false</activevideoangle>
                    <activeaudioangle>false</activeaudioangle>
                    <clip id="clip-5"/>
                  </angle>
                  <angle>
                    <activevideoangle>false</activevideoangle>
                    <activeaudioangle>false</activeaudioangle>
                    <clip id="clip-6"/>
                  </angle>
                  <angle>
                    <activevideoangle>false</activevideoangle>
                    <activeaudioangle>false</activeaudioangle>
                    <clip id="clip-7"/>
                  </angle>
                  <masterclipid>clip-master</masterclipid>
                </multiclip>
              </clipitem>
              <clipitem id="cs-722">
                <duration>77</duration>
                <rate>
                  <ntsc>false</ntsc>
                  <timebase>25</timebase>
                </rate>
                <in>86763</in>
                <out>86839</out>
                <start>86763</start>
                <end>86839</end>
                <file id="src-3"/>
                <sourcetrack>
                  <mediatype>video</mediatype>
                  <trackindex>1</trackindex>
                </sourcetrack>
                <multiclip id="mcs-722">
                  <name>MCS-722</name>
                  <masterclipid>clip-master</masterclipid>
                  <collapsed>false</collapsed>
                  <angle>
                    <activevideoangle>false</activevideoangle>
                    <activeaudioangle>false</activeaudioangle>
                    <clip id="clip-1"/>
                  </angle>
                  <angle>
                    <activevideoangle>false</activevideoangle>
                    <activeaudioangle>false</activeaudioangle>
                    <clip id="clip-2"/>
                  </angle>
                  <angle>
                    <activevideoangle>true</activevideoangle>
                    <activeaudioangle>true</activeaudioangle>
                    <clip id="clip-3"/>
                  </angle>
                  <angle>
                    <activevideoangle>false</activevideoangle>
                    <activeaudioangle>false</activeaudioangle>
                    <clip id="clip-4"/>
                  </angle>
                  <angle>
                    <activevideoangle>false</activevideoangle>
                    <activeaudioangle>false</activeaudioangle>
                    <clip id="clip-5"/>
                  </angle>
                  <angle>
                    <activevideoangle>false</activevideoangle>
                    <activeaudioangle>false</activeaudioangle>
                    <clip id="clip-6"/>
                  </angle>
                  <angle>
                    <activevideoangle>false</activevideoangle>
                    <activeaudioangle>false</activeaudioangle>
                    <clip id="clip-7"/>
                  </angle>
                  <masterclipid>clip-master</masterclipid>
                </multiclip>
              </clipitem>
              <clipitem id="cs-723">
                <duration>130</duration>
                <rate>
                  <ntsc>false</ntsc>
                  <timebase>25</timebase>
                </rate>
                <in>86839</in>
                <out>86968</out>
                <start>86839</start>
                <end>86968</end>
                <file id="src-1"/>
                <sourcetrack>
                  <mediatype>video</mediatype>
                  <trackindex>1</trackindex>
                </sourcetrack>
                <multiclip id="mcs-723">
                  <name>MCS-723</name>
                  <masterclipid>clip-master</masterclipid>
                  <collapsed>false</collapsed>
                  <angle>
                    <activevideoangle>true</activevideoangle>
                    <activeaudioangle>true</activeaudioangle>
                    <clip id="clip-1"/>
                  </angle>
                  <angle>
                    <activevideoangle>false</activevideoangle>
                    <activeaudioangle>false</activeaudioangle>
                    <clip id="clip-2"/>
                  </angle>
                  <angle>
                    <activevideoangle>false</activevideoangle>
                    <activeaudioangle>false</activeaudioangle>
                    <clip id="clip-3"/>
                  </angle>
                  <angle>
                    <activevideoangle>false</activevideoangle>
                    <activeaudioangle>false</activeaudioangle>
                    <clip id="clip-4"/>
                  </angle>
                  <angle>
                    <activevideoangle>false</activevideoangle>
                    <activeaudioangle>false</activeaudioangle>
                    <clip id="clip-5"/>
                  </angle>
                  <angle>
                    <activevideoangle>false</activevideoangle>
                    <activeaudioangle>false</activeaudioangle>
                    <clip id="clip-6"/>
                  </angle>
                  <angle>
                    <activevideoangle>false</activevideoangle>
                    <activeaudioangle>false</activeaudioangle>
                    <clip id="clip-7"/>
                  </angle>
                  <masterclipid>clip-master</masterclipid>
                </multiclip>
              </clipitem>
              <clipitem id="cs-724">
                <duration>83</duration>
                <rate>
                  <ntsc>false</ntsc>
                  <timebase>25</timebase>
                </rate>
                <in>86968</in>
                <out>87050</out>
                <start>86968</start>
                <end>87050</end>
                <file id="src-5"/>
                <sourcetrack>
                  <mediatype>video</mediatype>
                  <trackindex>1</trackindex>
                </sourcetrack>
                <multiclip id="mcs-724">
                  <name>MCS-724</name>
                  <masterclipid>clip-master</masterclipid>
                  <collapsed>false</collapsed>
                  <angle>
                    <activevideoangle>false</activevideoangle>
                    <activeaudioangle>false</activeaudioangle>
                    <clip id="clip-1"/>
                  </angle>
                  <angle>
                    <activevideoangle>false</activevideoangle>
                    <activeaudioangle>false</activeaudioangle>
                    <clip id="clip-2"/>
                  </angle>
                  <angle>
                    <activevideoangle>false</activevideoangle>
                    <activeaudioangle>false</activeaudioangle>
                    <clip id="clip-3"/>
                  </angle>
                  <angle>
                    <activevideoangle>false</activevideoangle>
                    <activeaudioangle>false</activeaudioangle>
                    <clip id="clip-4"/>
                  </angle>
                  <angle>
                    <activevideoangle>true</activevideoangle>
                    <activeaudioangle>true</activeaudioangle>
                    <clip id="clip-5"/>
                  </angle>
                  <angle>
                    <activevideoangle>false</activevideoangle>
                    <activeaudioangle>false</activeaudioangle>
                    <clip id="clip-6"/>
                  </angle>
                  <angle>
                    <activevideoangle>false</activevideoangle>
                    <activeaudioangle>false</activeaudioangle>
                    <clip id="clip-7"/>
                  </angle>
                  <masterclipid>clip-master</masterclipid>
                </multiclip>
              </clipitem>
              <clipitem id="cs-725">
                <duration>103</duration>
                <rate>
                  <ntsc>false</ntsc>
                  <timebase>25</timebase>
                </rate>
                <in>87050</in>
                <out>87152</out>
                <start>87050</start>
                <end>87152</end>
                <file id="src-3"/>
                <sourcetrack>
                  <mediatype>video</mediatype>
                  <trackindex>1</trackindex>
                </sourcetrack>
                <multiclip id="mcs-725">
                  <name>MCS-725</name>
                  <masterclipid>clip-master</masterclipid>
                  <collapsed>false</collapsed>
                  <angle>
                    <activevideoangle>false</activevideoangle>
                    <activeaudioangle>false</activeaudioangle>
                    <clip id="clip-1"/>
                  </angle>
                  <angle>
                    <activevideoangle>false</activevideoangle>
                    <activeaudioangle>false</activeaudioangle>
                    <clip id="clip-2"/>
                  </angle>
                  <angle>
                    <activevideoangle>true</activevideoangle>
                    <activeaudioangle>true</activeaudioangle>
                    <clip id="clip-3"/>
                  </angle>
                  <angle>
                    <activevideoangle>false</activevideoangle>
                    <activeaudioangle>false</activeaudioangle>
                    <clip id="clip-4"/>
                  </angle>
                  <angle>
                    <activevideoangle>false</activevideoangle>
                    <activeaudioangle>false</activeaudioangle>
                    <clip id="clip-5"/>
                  </angle>
                  <angle>
                    <activevideoangle>false</activevideoangle>
                    <activeaudioangle>false</activeaudioangle>
                    <clip id="clip-6"/>
                  </angle>
                  <angle>
                    <activevideoangle>false</activevideoangle>
                    <activeaudioangle>false</activeaudioangle>
                    <clip id="clip-7"/>
                  </angle>
                  <masterclipid>clip-master</masterclipid>
                </multiclip>
              </clipitem>
              <clipitem id="cs-726">
                <duration>110</duration>
                <rate>
                  <ntsc>false</ntsc>
                  <timebase>25</timebase>
                </rate>
                <in>87152</in>
                <out>87261</out>
                <start>87152</start>
                <end>87261</end>
                <file id="src-2"/>
                <sourcetrack>
                  <mediatype>video</mediatype>
                  <trackindex>1</trackindex>
                </sourcetrack>
                <multiclip id="mcs-726">
                  <name>MCS-726</name>
                  <masterclipid>clip-master</masterclipid>
                  <collapsed>false</collapsed>
                  <angle>
                    <activevideoangle>false</activevideoangle>
                    <activeaudioangle>false</activeaudioangle>
                    <clip id="clip-1"/>
                  </angle>
                  <angle>
                    <activevideoangle>true</activevideoangle>
                    <activeaudioangle>true</activeaudioangle>
                    <clip id="clip-2"/>
                  </angle>
                  <angle>
                    <activevideoangle>false</activevideoangle>
                    <activeaudioangle>false</activeaudioangle>
                    <clip id="clip-3"/>
                  </angle>
                  <angle>
                    <activevideoangle>false</activevideoangle>
                    <activeaudioangle>false</activeaudioangle>
                    <clip id="clip-4"/>
                  </angle>
                  <angle>
                    <activevideoangle>false</activevideoangle>
                    <activeaudioangle>false</activeaudioangle>
                    <clip id="clip-5"/>
                  </angle>
                  <angle>
                    <activevideoangle>false</activevideoangle>
                    <activeaudioangle>false</activeaudioangle>
                    <clip id="clip-6"/>
                  </angle>
                  <angle>
                    <activevideoangle>false</activevideoangle>
                    <activeaudioangle>false</activeaudioangle>
                    <clip id="clip-7"/>
                  </angle>
                  <masterclipid>clip-master</masterclipid>
                </multiclip>
              </clipitem>
              <clipitem id="cs-727">
                <duration>146</duration>
                <rate>
                  <ntsc>false</ntsc>
                  <timebase>25</timebase>
                </rate>
                <in>87261</in>
                <out>87406</out>
                <start>87261</start>
                <end>87406</end>
                <file id="src-3"/>
                <sourcetrack>
                  <mediatype>video</mediatype>
                  <trackindex>1</trackindex>
                </sourcetrack>
                <multiclip id="mcs-727">
                  <name>MCS-727</name>
                  <masterclipid>clip-master</masterclipid>
                  <collapsed>false</collapsed>
                  <angle>
                    <activevideoangle>false</activevideoangle>
                    <activeaudioangle>false</activeaudioangle>
                    <clip id="clip-1"/>
                  </angle>
                  <angle>
                    <activevideoangle>false</activevideoangle>
                    <activeaudioangle>false</activeaudioangle>
                    <clip id="clip-2"/>
                  </angle>
                  <angle>
                    <activevideoangle>true</activevideoangle>
                    <activeaudioangle>true</activeaudioangle>
                    <clip id="clip-3"/>
                  </angle>
                  <angle>
                    <activevideoangle>false</activevideoangle>
                    <activeaudioangle>false</activeaudioangle>
                    <clip id="clip-4"/>
                  </angle>
                  <angle>
                    <activevideoangle>false</activevideoangle>
                    <activeaudioangle>false</activeaudioangle>
                    <clip id="clip-5"/>
                  </angle>
                  <angle>
                    <activevideoangle>false</activevideoangle>
                    <activeaudioangle>false</activeaudioangle>
                    <clip id="clip-6"/>
                  </angle>
                  <angle>
                    <activevideoangle>false</activevideoangle>
                    <activeaudioangle>false</activeaudioangle>
                    <clip id="clip-7"/>
                  </angle>
                  <masterclipid>clip-master</masterclipid>
                </multiclip>
              </clipitem>
              <clipitem id="cs-728">
                <duration>52</duration>
                <rate>
                  <ntsc>false</ntsc>
                  <timebase>25</timebase>
                </rate>
                <in>87406</in>
                <out>87457</out>
                <start>87406</start>
                <end>87457</end>
                <file id="src-5"/>
                <sourcetrack>
                  <mediatype>video</mediatype>
                  <trackindex>1</trackindex>
                </sourcetrack>
                <multiclip id="mcs-728">
                  <name>MCS-728</name>
                  <masterclipid>clip-master</masterclipid>
                  <collapsed>false</collapsed>
                  <angle>
                    <activevideoangle>false</activevideoangle>
                    <activeaudioangle>false</activeaudioangle>
                    <clip id="clip-1"/>
                  </angle>
                  <angle>
                    <activevideoangle>false</activevideoangle>
                    <activeaudioangle>false</activeaudioangle>
                    <clip id="clip-2"/>
                  </angle>
                  <angle>
                    <activevideoangle>false</activevideoangle>
                    <activeaudioangle>false</activeaudioangle>
                    <clip id="clip-3"/>
                  </angle>
                  <angle>
                    <activevideoangle>false</activevideoangle>
                    <activeaudioangle>false</activeaudioangle>
                    <clip id="clip-4"/>
                  </angle>
                  <angle>
                    <activevideoangle>true</activevideoangle>
                    <activeaudioangle>true</activeaudioangle>
                    <clip id="clip-5"/>
                  </angle>
                  <angle>
                    <activevideoangle>false</activevideoangle>
                    <activeaudioangle>false</activeaudioangle>
                    <clip id="clip-6"/>
                  </angle>
                  <angle>
                    <activevideoangle>false</activevideoangle>
                    <activeaudioangle>false</activeaudioangle>
                    <clip id="clip-7"/>
                  </angle>
                  <masterclipid>clip-master</masterclipid>
                </multiclip>
              </clipitem>
              <clipitem id="cs-729">
                <duration>131</duration>
                <rate>
                  <ntsc>false</ntsc>
                  <timebase>25</timebase>
                </rate>
                <in>87457</in>
                <out>87587</out>
                <start>87457</start>
                <end>87587</end>
                <file id="src-6"/>
                <sourcetrack>
                  <mediatype>video</mediatype>
                  <trackindex>1</trackindex>
                </sourcetrack>
                <multiclip id="mcs-729">
                  <name>MCS-729</name>
                  <masterclipid>clip-master</masterclipid>
                  <collapsed>false</collapsed>
                  <angle>
                    <activevideoangle>false</activevideoangle>
                    <activeaudioangle>false</activeaudioangle>
                    <clip id="clip-1"/>
                  </angle>
                  <angle>
                    <activevideoangle>false</activevideoangle>
                    <activeaudioangle>false</activeaudioangle>
                    <clip id="clip-2"/>
                  </angle>
                  <angle>
                    <activevideoangle>false</activevideoangle>
                    <activeaudioangle>false</activeaudioangle>
                    <clip id="clip-3"/>
                  </angle>
                  <angle>
                    <activevideoangle>false</activevideoangle>
                    <activeaudioangle>false</activeaudioangle>
                    <clip id="clip-4"/>
                  </angle>
                  <angle>
                    <activevideoangle>false</activevideoangle>
                    <activeaudioangle>false</activeaudioangle>
                    <clip id="clip-5"/>
                  </angle>
                  <angle>
                    <activevideoangle>true</activevideoangle>
                    <activeaudioangle>true</activeaudioangle>
                    <clip id="clip-6"/>
                  </angle>
                  <angle>
                    <activevideoangle>false</activevideoangle>
                    <activeaudioangle>false</activeaudioangle>
                    <clip id="clip-7"/>
                  </angle>
                  <masterclipid>clip-master</masterclipid>
                </multiclip>
              </clipitem>
              <clipitem id="cs-730">
                <duration>106</duration>
                <rate>
                  <ntsc>false</ntsc>
                  <timebase>25</timebase>
                </rate>
                <in>87587</in>
                <out>87692</out>
                <start>87587</start>
                <end>87692</end>
                <file id="src-3"/>
                <sourcetrack>
                  <mediatype>video</mediatype>
                  <trackindex>1</trackindex>
                </sourcetrack>
                <multiclip id="mcs-730">
                  <name>MCS-730</name>
                  <masterclipid>clip-master</masterclipid>
                  <collapsed>false</collapsed>
                  <angle>
                    <activevideoangle>false</activevideoangle>
                    <activeaudioangle>false</activeaudioangle>
                    <clip id="clip-1"/>
                  </angle>
                  <angle>
                    <activevideoangle>false</activevideoangle>
                    <activeaudioangle>false</activeaudioangle>
                    <clip id="clip-2"/>
                  </angle>
                  <angle>
                    <activevideoangle>true</activevideoangle>
                    <activeaudioangle>true</activeaudioangle>
                    <clip id="clip-3"/>
                  </angle>
                  <angle>
                    <activevideoangle>false</activevideoangle>
                    <activeaudioangle>false</activeaudioangle>
                    <clip id="clip-4"/>
                  </angle>
                  <angle>
                    <activevideoangle>false</activevideoangle>
                    <activeaudioangle>false</activeaudioangle>
                    <clip id="clip-5"/>
                  </angle>
                  <angle>
                    <activevideoangle>false</activevideoangle>
                    <activeaudioangle>false</activeaudioangle>
                    <clip id="clip-6"/>
                  </angle>
                  <angle>
                    <activevideoangle>false</activevideoangle>
                    <activeaudioangle>false</activeaudioangle>
                    <clip id="clip-7"/>
                  </angle>
                  <masterclipid>clip-master</masterclipid>
                </multiclip>
              </clipitem>
              <clipitem id="cs-731">
                <duration>141</duration>
                <rate>
                  <ntsc>false</ntsc>
                  <timebase>25</timebase>
                </rate>
                <in>87692</in>
                <out>87832</out>
                <start>87692</start>
                <end>87832</end>
                <file id="src-2"/>
                <sourcetrack>
                  <mediatype>video</mediatype>
                  <trackindex>1</trackindex>
                </sourcetrack>
                <multiclip id="mcs-731">
                  <name>MCS-731</name>
                  <masterclipid>clip-master</masterclipid>
                  <collapsed>false</collapsed>
                  <angle>
                    <activevideoangle>false</activevideoangle>
                    <activeaudioangle>false</activeaudioangle>
                    <clip id="clip-1"/>
                  </angle>
                  <angle>
                    <activevideoangle>true</activevideoangle>
                    <activeaudioangle>true</activeaudioangle>
                    <clip id="clip-2"/>
                  </angle>
                  <angle>
                    <activevideoangle>false</activevideoangle>
                    <activeaudioangle>false</activeaudioangle>
                    <clip id="clip-3"/>
                  </angle>
                  <angle>
                    <activevideoangle>false</activevideoangle>
                    <activeaudioangle>false</activeaudioangle>
                    <clip id="clip-4"/>
                  </angle>
                  <angle>
                    <activevideoangle>false</activevideoangle>
                    <activeaudioangle>false</activeaudioangle>
                    <clip id="clip-5"/>
                  </angle>
                  <angle>
                    <activevideoangle>false</activevideoangle>
                    <activeaudioangle>false</activeaudioangle>
                    <clip id="clip-6"/>
                  </angle>
                  <angle>
                    <activevideoangle>false</activevideoangle>
                    <activeaudioangle>false</activeaudioangle>
                    <clip id="clip-7"/>
                  </angle>
                  <masterclipid>clip-master</masterclipid>
                </multiclip>
              </clipitem>
              <clipitem id="cs-732">
                <duration>130</duration>
                <rate>
                  <ntsc>false</ntsc>
                  <timebase>25</timebase>
                </rate>
                <in>87832</in>
                <out>87961</out>
                <start>87832</start>
                <end>87961</end>
                <file id="src-3"/>
                <sourcetrack>
                  <mediatype>video</mediatype>
                  <trackindex>1</trackindex>
                </sourcetrack>
                <multiclip id="mcs-732">
                  <name>MCS-732</name>
                  <masterclipid>clip-master</masterclipid>
                  <collapsed>false</collapsed>
                  <angle>
                    <activevideoangle>false</activevideoangle>
                    <activeaudioangle>false</activeaudioangle>
                    <clip id="clip-1"/>
                  </angle>
                  <angle>
                    <activevideoangle>false</activevideoangle>
                    <activeaudioangle>false</activeaudioangle>
                    <clip id="clip-2"/>
                  </angle>
                  <angle>
                    <activevideoangle>true</activevideoangle>
                    <activeaudioangle>true</activeaudioangle>
                    <clip id="clip-3"/>
                  </angle>
                  <angle>
                    <activevideoangle>false</activevideoangle>
                    <activeaudioangle>false</activeaudioangle>
                    <clip id="clip-4"/>
                  </angle>
                  <angle>
                    <activevideoangle>false</activevideoangle>
                    <activeaudioangle>false</activeaudioangle>
                    <clip id="clip-5"/>
                  </angle>
                  <angle>
                    <activevideoangle>false</activevideoangle>
                    <activeaudioangle>false</activeaudioangle>
                    <clip id="clip-6"/>
                  </angle>
                  <angle>
                    <activevideoangle>false</activevideoangle>
                    <activeaudioangle>false</activeaudioangle>
                    <clip id="clip-7"/>
                  </angle>
                  <masterclipid>clip-master</masterclipid>
                </multiclip>
              </clipitem>
              <clipitem id="cs-733">
                <duration>108</duration>
                <rate>
                  <ntsc>false</ntsc>
                  <timebase>25</timebase>
                </rate>
                <in>87961</in>
                <out>88068</out>
                <start>87961</start>
                <end>88068</end>
                <file id="src-6"/>
                <sourcetrack>
                  <mediatype>video</mediatype>
                  <trackindex>1</trackindex>
                </sourcetrack>
                <multiclip id="mcs-733">
                  <name>MCS-733</name>
                  <masterclipid>clip-master</masterclipid>
                  <collapsed>false</collapsed>
                  <angle>
                    <activevideoangle>false</activevideoangle>
                    <activeaudioangle>false</activeaudioangle>
                    <clip id="clip-1"/>
                  </angle>
                  <angle>
                    <activevideoangle>false</activevideoangle>
                    <activeaudioangle>false</activeaudioangle>
                    <clip id="clip-2"/>
                  </angle>
                  <angle>
                    <activevideoangle>false</activevideoangle>
                    <activeaudioangle>false</activeaudioangle>
                    <clip id="clip-3"/>
                  </angle>
                  <angle>
                    <activevideoangle>false</activevideoangle>
                    <activeaudioangle>false</activeaudioangle>
                    <clip id="clip-4"/>
                  </angle>
                  <angle>
                    <activevideoangle>false</activevideoangle>
                    <activeaudioangle>false</activeaudioangle>
                    <clip id="clip-5"/>
                  </angle>
                  <angle>
                    <activevideoangle>true</activevideoangle>
                    <activeaudioangle>true</activeaudioangle>
                    <clip id="clip-6"/>
                  </angle>
                  <angle>
                    <activevideoangle>false</activevideoangle>
                    <activeaudioangle>false</activeaudioangle>
                    <clip id="clip-7"/>
                  </angle>
                  <masterclipid>clip-master</masterclipid>
                </multiclip>
              </clipitem>
              <clipitem id="cs-734">
                <duration>48</duration>
                <rate>
                  <ntsc>false</ntsc>
                  <timebase>25</timebase>
                </rate>
                <in>88068</in>
                <out>88115</out>
                <start>88068</start>
                <end>88115</end>
                <file id="src-2"/>
                <sourcetrack>
                  <mediatype>video</mediatype>
                  <trackindex>1</trackindex>
                </sourcetrack>
                <multiclip id="mcs-734">
                  <name>MCS-734</name>
                  <masterclipid>clip-master</masterclipid>
                  <collapsed>false</collapsed>
                  <angle>
                    <activevideoangle>false</activevideoangle>
                    <activeaudioangle>false</activeaudioangle>
                    <clip id="clip-1"/>
                  </angle>
                  <angle>
                    <activevideoangle>true</activevideoangle>
                    <activeaudioangle>true</activeaudioangle>
                    <clip id="clip-2"/>
                  </angle>
                  <angle>
                    <activevideoangle>false</activevideoangle>
                    <activeaudioangle>false</activeaudioangle>
                    <clip id="clip-3"/>
                  </angle>
                  <angle>
                    <activevideoangle>false</activevideoangle>
                    <activeaudioangle>false</activeaudioangle>
                    <clip id="clip-4"/>
                  </angle>
                  <angle>
                    <activevideoangle>false</activevideoangle>
                    <activeaudioangle>false</activeaudioangle>
                    <clip id="clip-5"/>
                  </angle>
                  <angle>
                    <activevideoangle>false</activevideoangle>
                    <activeaudioangle>false</activeaudioangle>
                    <clip id="clip-6"/>
                  </angle>
                  <angle>
                    <activevideoangle>false</activevideoangle>
                    <activeaudioangle>false</activeaudioangle>
                    <clip id="clip-7"/>
                  </angle>
                  <masterclipid>clip-master</masterclipid>
                </multiclip>
              </clipitem>
              <clipitem id="cs-735">
                <duration>129</duration>
                <rate>
                  <ntsc>false</ntsc>
                  <timebase>25</timebase>
                </rate>
                <in>88115</in>
                <out>88243</out>
                <start>88115</start>
                <end>88243</end>
                <file id="src-3"/>
                <sourcetrack>
                  <mediatype>video</mediatype>
                  <trackindex>1</trackindex>
                </sourcetrack>
                <multiclip id="mcs-735">
                  <name>MCS-735</name>
                  <masterclipid>clip-master</masterclipid>
                  <collapsed>false</collapsed>
                  <angle>
                    <activevideoangle>false</activevideoangle>
                    <activeaudioangle>false</activeaudioangle>
                    <clip id="clip-1"/>
                  </angle>
                  <angle>
                    <activevideoangle>false</activevideoangle>
                    <activeaudioangle>false</activeaudioangle>
                    <clip id="clip-2"/>
                  </angle>
                  <angle>
                    <activevideoangle>true</activevideoangle>
                    <activeaudioangle>true</activeaudioangle>
                    <clip id="clip-3"/>
                  </angle>
                  <angle>
                    <activevideoangle>false</activevideoangle>
                    <activeaudioangle>false</activeaudioangle>
                    <clip id="clip-4"/>
                  </angle>
                  <angle>
                    <activevideoangle>false</activevideoangle>
                    <activeaudioangle>false</activeaudioangle>
                    <clip id="clip-5"/>
                  </angle>
                  <angle>
                    <activevideoangle>false</activevideoangle>
                    <activeaudioangle>false</activeaudioangle>
                    <clip id="clip-6"/>
                  </angle>
                  <angle>
                    <activevideoangle>false</activevideoangle>
                    <activeaudioangle>false</activeaudioangle>
                    <clip id="clip-7"/>
                  </angle>
                  <masterclipid>clip-master</masterclipid>
                </multiclip>
              </clipitem>
              <clipitem id="cs-736">
                <duration>67</duration>
                <rate>
                  <ntsc>false</ntsc>
                  <timebase>25</timebase>
                </rate>
                <in>88243</in>
                <out>88309</out>
                <start>88243</start>
                <end>88309</end>
                <file id="src-4"/>
                <sourcetrack>
                  <mediatype>video</mediatype>
                  <trackindex>1</trackindex>
                </sourcetrack>
                <multiclip id="mcs-736">
                  <name>MCS-736</name>
                  <masterclipid>clip-master</masterclipid>
                  <collapsed>false</collapsed>
                  <angle>
                    <activevideoangle>false</activevideoangle>
                    <activeaudioangle>false</activeaudioangle>
                    <clip id="clip-1"/>
                  </angle>
                  <angle>
                    <activevideoangle>false</activevideoangle>
                    <activeaudioangle>false</activeaudioangle>
                    <clip id="clip-2"/>
                  </angle>
                  <angle>
                    <activevideoangle>false</activevideoangle>
                    <activeaudioangle>false</activeaudioangle>
                    <clip id="clip-3"/>
                  </angle>
                  <angle>
                    <activevideoangle>true</activevideoangle>
                    <activeaudioangle>true</activeaudioangle>
                    <clip id="clip-4"/>
                  </angle>
                  <angle>
                    <activevideoangle>false</activevideoangle>
                    <activeaudioangle>false</activeaudioangle>
                    <clip id="clip-5"/>
                  </angle>
                  <angle>
                    <activevideoangle>false</activevideoangle>
                    <activeaudioangle>false</activeaudioangle>
                    <clip id="clip-6"/>
                  </angle>
                  <angle>
                    <activevideoangle>false</activevideoangle>
                    <activeaudioangle>false</activeaudioangle>
                    <clip id="clip-7"/>
                  </angle>
                  <masterclipid>clip-master</masterclipid>
                </multiclip>
              </clipitem>
              <clipitem id="cs-737">
                <duration>88</duration>
                <rate>
                  <ntsc>false</ntsc>
                  <timebase>25</timebase>
                </rate>
                <in>88309</in>
                <out>88396</out>
                <start>88309</start>
                <end>88396</end>
                <file id="src-2"/>
                <sourcetrack>
                  <mediatype>video</mediatype>
                  <trackindex>1</trackindex>
                </sourcetrack>
                <multiclip id="mcs-737">
                  <name>MCS-737</name>
                  <masterclipid>clip-master</masterclipid>
                  <collapsed>false</collapsed>
                  <angle>
                    <activevideoangle>false</activevideoangle>
                    <activeaudioangle>false</activeaudioangle>
                    <clip id="clip-1"/>
                  </angle>
                  <angle>
                    <activevideoangle>true</activevideoangle>
                    <activeaudioangle>true</activeaudioangle>
                    <clip id="clip-2"/>
                  </angle>
                  <angle>
                    <activevideoangle>false</activevideoangle>
                    <activeaudioangle>false</activeaudioangle>
                    <clip id="clip-3"/>
                  </angle>
                  <angle>
                    <activevideoangle>false</activevideoangle>
                    <activeaudioangle>false</activeaudioangle>
                    <clip id="clip-4"/>
                  </angle>
                  <angle>
                    <activevideoangle>false</activevideoangle>
                    <activeaudioangle>false</activeaudioangle>
                    <clip id="clip-5"/>
                  </angle>
                  <angle>
                    <activevideoangle>false</activevideoangle>
                    <activeaudioangle>false</activeaudioangle>
                    <clip id="clip-6"/>
                  </angle>
                  <angle>
                    <activevideoangle>false</activevideoangle>
                    <activeaudioangle>false</activeaudioangle>
                    <clip id="clip-7"/>
                  </angle>
                  <masterclipid>clip-master</masterclipid>
                </multiclip>
              </clipitem>
              <clipitem id="cs-738">
                <duration>103</duration>
                <rate>
                  <ntsc>false</ntsc>
                  <timebase>25</timebase>
                </rate>
                <in>88396</in>
                <out>88498</out>
                <start>88396</start>
                <end>88498</end>
                <file id="src-3"/>
                <sourcetrack>
                  <mediatype>video</mediatype>
                  <trackindex>1</trackindex>
                </sourcetrack>
                <multiclip id="mcs-738">
                  <name>MCS-738</name>
                  <masterclipid>clip-master</masterclipid>
                  <collapsed>false</collapsed>
                  <angle>
                    <activevideoangle>false</activevideoangle>
                    <activeaudioangle>false</activeaudioangle>
                    <clip id="clip-1"/>
                  </angle>
                  <angle>
                    <activevideoangle>false</activevideoangle>
                    <activeaudioangle>false</activeaudioangle>
                    <clip id="clip-2"/>
                  </angle>
                  <angle>
                    <activevideoangle>true</activevideoangle>
                    <activeaudioangle>true</activeaudioangle>
                    <clip id="clip-3"/>
                  </angle>
                  <angle>
                    <activevideoangle>false</activevideoangle>
                    <activeaudioangle>false</activeaudioangle>
                    <clip id="clip-4"/>
                  </angle>
                  <angle>
                    <activevideoangle>false</activevideoangle>
                    <activeaudioangle>false</activeaudioangle>
                    <clip id="clip-5"/>
                  </angle>
                  <angle>
                    <activevideoangle>false</activevideoangle>
                    <activeaudioangle>false</activeaudioangle>
                    <clip id="clip-6"/>
                  </angle>
                  <angle>
                    <activevideoangle>false</activevideoangle>
                    <activeaudioangle>false</activeaudioangle>
                    <clip id="clip-7"/>
                  </angle>
                  <masterclipid>clip-master</masterclipid>
                </multiclip>
              </clipitem>
              <clipitem id="cs-739">
                <duration>49</duration>
                <rate>
                  <ntsc>false</ntsc>
                  <timebase>25</timebase>
                </rate>
                <in>88498</in>
                <out>88546</out>
                <start>88498</start>
                <end>88546</end>
                <file id="src-6"/>
                <sourcetrack>
                  <mediatype>video</mediatype>
                  <trackindex>1</trackindex>
                </sourcetrack>
                <multiclip id="mcs-739">
                  <name>MCS-739</name>
                  <masterclipid>clip-master</masterclipid>
                  <collapsed>false</collapsed>
                  <angle>
                    <activevideoangle>false</activevideoangle>
                    <activeaudioangle>false</activeaudioangle>
                    <clip id="clip-1"/>
                  </angle>
                  <angle>
                    <activevideoangle>false</activevideoangle>
                    <activeaudioangle>false</activeaudioangle>
                    <clip id="clip-2"/>
                  </angle>
                  <angle>
                    <activevideoangle>false</activevideoangle>
                    <activeaudioangle>false</activeaudioangle>
                    <clip id="clip-3"/>
                  </angle>
                  <angle>
                    <activevideoangle>false</activevideoangle>
                    <activeaudioangle>false</activeaudioangle>
                    <clip id="clip-4"/>
                  </angle>
                  <angle>
                    <activevideoangle>false</activevideoangle>
                    <activeaudioangle>false</activeaudioangle>
                    <clip id="clip-5"/>
                  </angle>
                  <angle>
                    <activevideoangle>true</activevideoangle>
                    <activeaudioangle>true</activeaudioangle>
                    <clip id="clip-6"/>
                  </angle>
                  <angle>
                    <activevideoangle>false</activevideoangle>
                    <activeaudioangle>false</activeaudioangle>
                    <clip id="clip-7"/>
                  </angle>
                  <masterclipid>clip-master</masterclipid>
                </multiclip>
              </clipitem>
              <clipitem id="cs-740">
                <duration>50</duration>
                <rate>
                  <ntsc>false</ntsc>
                  <timebase>25</timebase>
                </rate>
                <in>88546</in>
                <out>88595</out>
                <start>88546</start>
                <end>88595</end>
                <file id="src-1"/>
                <sourcetrack>
                  <mediatype>video</mediatype>
                  <trackindex>1</trackindex>
                </sourcetrack>
                <multiclip id="mcs-740">
                  <name>MCS-740</name>
                  <masterclipid>clip-master</masterclipid>
                  <collapsed>false</collapsed>
                  <angle>
                    <activevideoangle>true</activevideoangle>
                    <activeaudioangle>true</activeaudioangle>
                    <clip id="clip-1"/>
                  </angle>
                  <angle>
                    <activevideoangle>false</activevideoangle>
                    <activeaudioangle>false</activeaudioangle>
                    <clip id="clip-2"/>
                  </angle>
                  <angle>
                    <activevideoangle>false</activevideoangle>
                    <activeaudioangle>false</activeaudioangle>
                    <clip id="clip-3"/>
                  </angle>
                  <angle>
                    <activevideoangle>false</activevideoangle>
                    <activeaudioangle>false</activeaudioangle>
                    <clip id="clip-4"/>
                  </angle>
                  <angle>
                    <activevideoangle>false</activevideoangle>
                    <activeaudioangle>false</activeaudioangle>
                    <clip id="clip-5"/>
                  </angle>
                  <angle>
                    <activevideoangle>false</activevideoangle>
                    <activeaudioangle>false</activeaudioangle>
                    <clip id="clip-6"/>
                  </angle>
                  <angle>
                    <activevideoangle>false</activevideoangle>
                    <activeaudioangle>false</activeaudioangle>
                    <clip id="clip-7"/>
                  </angle>
                  <masterclipid>clip-master</masterclipid>
                </multiclip>
              </clipitem>
              <clipitem id="cs-741">
                <duration>451</duration>
                <rate>
                  <ntsc>false</ntsc>
                  <timebase>25</timebase>
                </rate>
                <in>88595</in>
                <out>89045</out>
                <start>88595</start>
                <end>89045</end>
                <file id="src-3"/>
                <sourcetrack>
                  <mediatype>video</mediatype>
                  <trackindex>1</trackindex>
                </sourcetrack>
                <multiclip id="mcs-741">
                  <name>MCS-741</name>
                  <masterclipid>clip-master</masterclipid>
                  <collapsed>false</collapsed>
                  <angle>
                    <activevideoangle>false</activevideoangle>
                    <activeaudioangle>false</activeaudioangle>
                    <clip id="clip-1"/>
                  </angle>
                  <angle>
                    <activevideoangle>false</activevideoangle>
                    <activeaudioangle>false</activeaudioangle>
                    <clip id="clip-2"/>
                  </angle>
                  <angle>
                    <activevideoangle>true</activevideoangle>
                    <activeaudioangle>true</activeaudioangle>
                    <clip id="clip-3"/>
                  </angle>
                  <angle>
                    <activevideoangle>false</activevideoangle>
                    <activeaudioangle>false</activeaudioangle>
                    <clip id="clip-4"/>
                  </angle>
                  <angle>
                    <activevideoangle>false</activevideoangle>
                    <activeaudioangle>false</activeaudioangle>
                    <clip id="clip-5"/>
                  </angle>
                  <angle>
                    <activevideoangle>false</activevideoangle>
                    <activeaudioangle>false</activeaudioangle>
                    <clip id="clip-6"/>
                  </angle>
                  <angle>
                    <activevideoangle>false</activevideoangle>
                    <activeaudioangle>false</activeaudioangle>
                    <clip id="clip-7"/>
                  </angle>
                  <masterclipid>clip-master</masterclipid>
                </multiclip>
              </clipitem>
              <clipitem id="cs-742">
                <duration>244</duration>
                <rate>
                  <ntsc>false</ntsc>
                  <timebase>25</timebase>
                </rate>
                <in>89045</in>
                <out>89288</out>
                <start>89045</start>
                <end>89288</end>
                <file id="src-2"/>
                <sourcetrack>
                  <mediatype>video</mediatype>
                  <trackindex>1</trackindex>
                </sourcetrack>
                <multiclip id="mcs-742">
                  <name>MCS-742</name>
                  <masterclipid>clip-master</masterclipid>
                  <collapsed>false</collapsed>
                  <angle>
                    <activevideoangle>false</activevideoangle>
                    <activeaudioangle>false</activeaudioangle>
                    <clip id="clip-1"/>
                  </angle>
                  <angle>
                    <activevideoangle>true</activevideoangle>
                    <activeaudioangle>true</activeaudioangle>
                    <clip id="clip-2"/>
                  </angle>
                  <angle>
                    <activevideoangle>false</activevideoangle>
                    <activeaudioangle>false</activeaudioangle>
                    <clip id="clip-3"/>
                  </angle>
                  <angle>
                    <activevideoangle>false</activevideoangle>
                    <activeaudioangle>false</activeaudioangle>
                    <clip id="clip-4"/>
                  </angle>
                  <angle>
                    <activevideoangle>false</activevideoangle>
                    <activeaudioangle>false</activeaudioangle>
                    <clip id="clip-5"/>
                  </angle>
                  <angle>
                    <activevideoangle>false</activevideoangle>
                    <activeaudioangle>false</activeaudioangle>
                    <clip id="clip-6"/>
                  </angle>
                  <angle>
                    <activevideoangle>false</activevideoangle>
                    <activeaudioangle>false</activeaudioangle>
                    <clip id="clip-7"/>
                  </angle>
                  <masterclipid>clip-master</masterclipid>
                </multiclip>
              </clipitem>
              <clipitem id="cs-743">
                <duration>89</duration>
                <rate>
                  <ntsc>false</ntsc>
                  <timebase>25</timebase>
                </rate>
                <in>89288</in>
                <out>89376</out>
                <start>89288</start>
                <end>89376</end>
                <file id="src-6"/>
                <sourcetrack>
                  <mediatype>video</mediatype>
                  <trackindex>1</trackindex>
                </sourcetrack>
                <multiclip id="mcs-743">
                  <name>MCS-743</name>
                  <masterclipid>clip-master</masterclipid>
                  <collapsed>false</collapsed>
                  <angle>
                    <activevideoangle>false</activevideoangle>
                    <activeaudioangle>false</activeaudioangle>
                    <clip id="clip-1"/>
                  </angle>
                  <angle>
                    <activevideoangle>false</activevideoangle>
                    <activeaudioangle>false</activeaudioangle>
                    <clip id="clip-2"/>
                  </angle>
                  <angle>
                    <activevideoangle>false</activevideoangle>
                    <activeaudioangle>false</activeaudioangle>
                    <clip id="clip-3"/>
                  </angle>
                  <angle>
                    <activevideoangle>false</activevideoangle>
                    <activeaudioangle>false</activeaudioangle>
                    <clip id="clip-4"/>
                  </angle>
                  <angle>
                    <activevideoangle>false</activevideoangle>
                    <activeaudioangle>false</activeaudioangle>
                    <clip id="clip-5"/>
                  </angle>
                  <angle>
                    <activevideoangle>true</activevideoangle>
                    <activeaudioangle>true</activeaudioangle>
                    <clip id="clip-6"/>
                  </angle>
                  <angle>
                    <activevideoangle>false</activevideoangle>
                    <activeaudioangle>false</activeaudioangle>
                    <clip id="clip-7"/>
                  </angle>
                  <masterclipid>clip-master</masterclipid>
                </multiclip>
              </clipitem>
              <clipitem id="cs-744">
                <duration>82</duration>
                <rate>
                  <ntsc>false</ntsc>
                  <timebase>25</timebase>
                </rate>
                <in>89376</in>
                <out>89457</out>
                <start>89376</start>
                <end>89457</end>
                <file id="src-2"/>
                <sourcetrack>
                  <mediatype>video</mediatype>
                  <trackindex>1</trackindex>
                </sourcetrack>
                <multiclip id="mcs-744">
                  <name>MCS-744</name>
                  <masterclipid>clip-master</masterclipid>
                  <collapsed>false</collapsed>
                  <angle>
                    <activevideoangle>false</activevideoangle>
                    <activeaudioangle>false</activeaudioangle>
                    <clip id="clip-1"/>
                  </angle>
                  <angle>
                    <activevideoangle>true</activevideoangle>
                    <activeaudioangle>true</activeaudioangle>
                    <clip id="clip-2"/>
                  </angle>
                  <angle>
                    <activevideoangle>false</activevideoangle>
                    <activeaudioangle>false</activeaudioangle>
                    <clip id="clip-3"/>
                  </angle>
                  <angle>
                    <activevideoangle>false</activevideoangle>
                    <activeaudioangle>false</activeaudioangle>
                    <clip id="clip-4"/>
                  </angle>
                  <angle>
                    <activevideoangle>false</activevideoangle>
                    <activeaudioangle>false</activeaudioangle>
                    <clip id="clip-5"/>
                  </angle>
                  <angle>
                    <activevideoangle>false</activevideoangle>
                    <activeaudioangle>false</activeaudioangle>
                    <clip id="clip-6"/>
                  </angle>
                  <angle>
                    <activevideoangle>false</activevideoangle>
                    <activeaudioangle>false</activeaudioangle>
                    <clip id="clip-7"/>
                  </angle>
                  <masterclipid>clip-master</masterclipid>
                </multiclip>
              </clipitem>
              <clipitem id="cs-745">
                <duration>133</duration>
                <rate>
                  <ntsc>false</ntsc>
                  <timebase>25</timebase>
                </rate>
                <in>89457</in>
                <out>89589</out>
                <start>89457</start>
                <end>89589</end>
                <file id="src-3"/>
                <sourcetrack>
                  <mediatype>video</mediatype>
                  <trackindex>1</trackindex>
                </sourcetrack>
                <multiclip id="mcs-745">
                  <name>MCS-745</name>
                  <masterclipid>clip-master</masterclipid>
                  <collapsed>false</collapsed>
                  <angle>
                    <activevideoangle>false</activevideoangle>
                    <activeaudioangle>false</activeaudioangle>
                    <clip id="clip-1"/>
                  </angle>
                  <angle>
                    <activevideoangle>false</activevideoangle>
                    <activeaudioangle>false</activeaudioangle>
                    <clip id="clip-2"/>
                  </angle>
                  <angle>
                    <activevideoangle>true</activevideoangle>
                    <activeaudioangle>true</activeaudioangle>
                    <clip id="clip-3"/>
                  </angle>
                  <angle>
                    <activevideoangle>false</activevideoangle>
                    <activeaudioangle>false</activeaudioangle>
                    <clip id="clip-4"/>
                  </angle>
                  <angle>
                    <activevideoangle>false</activevideoangle>
                    <activeaudioangle>false</activeaudioangle>
                    <clip id="clip-5"/>
                  </angle>
                  <angle>
                    <activevideoangle>false</activevideoangle>
                    <activeaudioangle>false</activeaudioangle>
                    <clip id="clip-6"/>
                  </angle>
                  <angle>
                    <activevideoangle>false</activevideoangle>
                    <activeaudioangle>false</activeaudioangle>
                    <clip id="clip-7"/>
                  </angle>
                  <masterclipid>clip-master</masterclipid>
                </multiclip>
              </clipitem>
              <clipitem id="cs-746">
                <duration>73</duration>
                <rate>
                  <ntsc>false</ntsc>
                  <timebase>25</timebase>
                </rate>
                <in>89589</in>
                <out>89661</out>
                <start>89589</start>
                <end>89661</end>
                <file id="src-6"/>
                <sourcetrack>
                  <mediatype>video</mediatype>
                  <trackindex>1</trackindex>
                </sourcetrack>
                <multiclip id="mcs-746">
                  <name>MCS-746</name>
                  <masterclipid>clip-master</masterclipid>
                  <collapsed>false</collapsed>
                  <angle>
                    <activevideoangle>false</activevideoangle>
                    <activeaudioangle>false</activeaudioangle>
                    <clip id="clip-1"/>
                  </angle>
                  <angle>
                    <activevideoangle>false</activevideoangle>
                    <activeaudioangle>false</activeaudioangle>
                    <clip id="clip-2"/>
                  </angle>
                  <angle>
                    <activevideoangle>false</activevideoangle>
                    <activeaudioangle>false</activeaudioangle>
                    <clip id="clip-3"/>
                  </angle>
                  <angle>
                    <activevideoangle>false</activevideoangle>
                    <activeaudioangle>false</activeaudioangle>
                    <clip id="clip-4"/>
                  </angle>
                  <angle>
                    <activevideoangle>false</activevideoangle>
                    <activeaudioangle>false</activeaudioangle>
                    <clip id="clip-5"/>
                  </angle>
                  <angle>
                    <activevideoangle>true</activevideoangle>
                    <activeaudioangle>true</activeaudioangle>
                    <clip id="clip-6"/>
                  </angle>
                  <angle>
                    <activevideoangle>false</activevideoangle>
                    <activeaudioangle>false</activeaudioangle>
                    <clip id="clip-7"/>
                  </angle>
                  <masterclipid>clip-master</masterclipid>
                </multiclip>
              </clipitem>
              <clipitem id="cs-747">
                <duration>142</duration>
                <rate>
                  <ntsc>false</ntsc>
                  <timebase>25</timebase>
                </rate>
                <in>89661</in>
                <out>89802</out>
                <start>89661</start>
                <end>89802</end>
                <file id="src-3"/>
                <sourcetrack>
                  <mediatype>video</mediatype>
                  <trackindex>1</trackindex>
                </sourcetrack>
                <multiclip id="mcs-747">
                  <name>MCS-747</name>
                  <masterclipid>clip-master</masterclipid>
                  <collapsed>false</collapsed>
                  <angle>
                    <activevideoangle>false</activevideoangle>
                    <activeaudioangle>false</activeaudioangle>
                    <clip id="clip-1"/>
                  </angle>
                  <angle>
                    <activevideoangle>false</activevideoangle>
                    <activeaudioangle>false</activeaudioangle>
                    <clip id="clip-2"/>
                  </angle>
                  <angle>
                    <activevideoangle>true</activevideoangle>
                    <activeaudioangle>true</activeaudioangle>
                    <clip id="clip-3"/>
                  </angle>
                  <angle>
                    <activevideoangle>false</activevideoangle>
                    <activeaudioangle>false</activeaudioangle>
                    <clip id="clip-4"/>
                  </angle>
                  <angle>
                    <activevideoangle>false</activevideoangle>
                    <activeaudioangle>false</activeaudioangle>
                    <clip id="clip-5"/>
                  </angle>
                  <angle>
                    <activevideoangle>false</activevideoangle>
                    <activeaudioangle>false</activeaudioangle>
                    <clip id="clip-6"/>
                  </angle>
                  <angle>
                    <activevideoangle>false</activevideoangle>
                    <activeaudioangle>false</activeaudioangle>
                    <clip id="clip-7"/>
                  </angle>
                  <masterclipid>clip-master</masterclipid>
                </multiclip>
              </clipitem>
              <clipitem id="cs-748">
                <duration>63</duration>
                <rate>
                  <ntsc>false</ntsc>
                  <timebase>25</timebase>
                </rate>
                <in>89802</in>
                <out>89864</out>
                <start>89802</start>
                <end>89864</end>
                <file id="src-4"/>
                <sourcetrack>
                  <mediatype>video</mediatype>
                  <trackindex>1</trackindex>
                </sourcetrack>
                <multiclip id="mcs-748">
                  <name>MCS-748</name>
                  <masterclipid>clip-master</masterclipid>
                  <collapsed>false</collapsed>
                  <angle>
                    <activevideoangle>false</activevideoangle>
                    <activeaudioangle>false</activeaudioangle>
                    <clip id="clip-1"/>
                  </angle>
                  <angle>
                    <activevideoangle>false</activevideoangle>
                    <activeaudioangle>false</activeaudioangle>
                    <clip id="clip-2"/>
                  </angle>
                  <angle>
                    <activevideoangle>false</activevideoangle>
                    <activeaudioangle>false</activeaudioangle>
                    <clip id="clip-3"/>
                  </angle>
                  <angle>
                    <activevideoangle>true</activevideoangle>
                    <activeaudioangle>true</activeaudioangle>
                    <clip id="clip-4"/>
                  </angle>
                  <angle>
                    <activevideoangle>false</activevideoangle>
                    <activeaudioangle>false</activeaudioangle>
                    <clip id="clip-5"/>
                  </angle>
                  <angle>
                    <activevideoangle>false</activevideoangle>
                    <activeaudioangle>false</activeaudioangle>
                    <clip id="clip-6"/>
                  </angle>
                  <angle>
                    <activevideoangle>false</activevideoangle>
                    <activeaudioangle>false</activeaudioangle>
                    <clip id="clip-7"/>
                  </angle>
                  <masterclipid>clip-master</masterclipid>
                </multiclip>
              </clipitem>
              <clipitem id="cs-749">
                <duration>194</duration>
                <rate>
                  <ntsc>false</ntsc>
                  <timebase>25</timebase>
                </rate>
                <in>89864</in>
                <out>90057</out>
                <start>89864</start>
                <end>90057</end>
                <file id="src-2"/>
                <sourcetrack>
                  <mediatype>video</mediatype>
                  <trackindex>1</trackindex>
                </sourcetrack>
                <multiclip id="mcs-749">
                  <name>MCS-749</name>
                  <masterclipid>clip-master</masterclipid>
                  <collapsed>false</collapsed>
                  <angle>
                    <activevideoangle>false</activevideoangle>
                    <activeaudioangle>false</activeaudioangle>
                    <clip id="clip-1"/>
                  </angle>
                  <angle>
                    <activevideoangle>true</activevideoangle>
                    <activeaudioangle>true</activeaudioangle>
                    <clip id="clip-2"/>
                  </angle>
                  <angle>
                    <activevideoangle>false</activevideoangle>
                    <activeaudioangle>false</activeaudioangle>
                    <clip id="clip-3"/>
                  </angle>
                  <angle>
                    <activevideoangle>false</activevideoangle>
                    <activeaudioangle>false</activeaudioangle>
                    <clip id="clip-4"/>
                  </angle>
                  <angle>
                    <activevideoangle>false</activevideoangle>
                    <activeaudioangle>false</activeaudioangle>
                    <clip id="clip-5"/>
                  </angle>
                  <angle>
                    <activevideoangle>false</activevideoangle>
                    <activeaudioangle>false</activeaudioangle>
                    <clip id="clip-6"/>
                  </angle>
                  <angle>
                    <activevideoangle>false</activevideoangle>
                    <activeaudioangle>false</activeaudioangle>
                    <clip id="clip-7"/>
                  </angle>
                  <masterclipid>clip-master</masterclipid>
                </multiclip>
              </clipitem>
              <clipitem id="cs-750">
                <duration>70</duration>
                <rate>
                  <ntsc>false</ntsc>
                  <timebase>25</timebase>
                </rate>
                <in>90057</in>
                <out>90126</out>
                <start>90057</start>
                <end>90126</end>
                <file id="src-3"/>
                <sourcetrack>
                  <mediatype>video</mediatype>
                  <trackindex>1</trackindex>
                </sourcetrack>
                <multiclip id="mcs-750">
                  <name>MCS-750</name>
                  <masterclipid>clip-master</masterclipid>
                  <collapsed>false</collapsed>
                  <angle>
                    <activevideoangle>false</activevideoangle>
                    <activeaudioangle>false</activeaudioangle>
                    <clip id="clip-1"/>
                  </angle>
                  <angle>
                    <activevideoangle>false</activevideoangle>
                    <activeaudioangle>false</activeaudioangle>
                    <clip id="clip-2"/>
                  </angle>
                  <angle>
                    <activevideoangle>true</activevideoangle>
                    <activeaudioangle>true</activeaudioangle>
                    <clip id="clip-3"/>
                  </angle>
                  <angle>
                    <activevideoangle>false</activevideoangle>
                    <activeaudioangle>false</activeaudioangle>
                    <clip id="clip-4"/>
                  </angle>
                  <angle>
                    <activevideoangle>false</activevideoangle>
                    <activeaudioangle>false</activeaudioangle>
                    <clip id="clip-5"/>
                  </angle>
                  <angle>
                    <activevideoangle>false</activevideoangle>
                    <activeaudioangle>false</activeaudioangle>
                    <clip id="clip-6"/>
                  </angle>
                  <angle>
                    <activevideoangle>false</activevideoangle>
                    <activeaudioangle>false</activeaudioangle>
                    <clip id="clip-7"/>
                  </angle>
                  <masterclipid>clip-master</masterclipid>
                </multiclip>
              </clipitem>
              <clipitem id="cs-751">
                <duration>96</duration>
                <rate>
                  <ntsc>false</ntsc>
                  <timebase>25</timebase>
                </rate>
                <in>90126</in>
                <out>90221</out>
                <start>90126</start>
                <end>90221</end>
                <file id="src-6"/>
                <sourcetrack>
                  <mediatype>video</mediatype>
                  <trackindex>1</trackindex>
                </sourcetrack>
                <multiclip id="mcs-751">
                  <name>MCS-751</name>
                  <masterclipid>clip-master</masterclipid>
                  <collapsed>false</collapsed>
                  <angle>
                    <activevideoangle>false</activevideoangle>
                    <activeaudioangle>false</activeaudioangle>
                    <clip id="clip-1"/>
                  </angle>
                  <angle>
                    <activevideoangle>false</activevideoangle>
                    <activeaudioangle>false</activeaudioangle>
                    <clip id="clip-2"/>
                  </angle>
                  <angle>
                    <activevideoangle>false</activevideoangle>
                    <activeaudioangle>false</activeaudioangle>
                    <clip id="clip-3"/>
                  </angle>
                  <angle>
                    <activevideoangle>false</activevideoangle>
                    <activeaudioangle>false</activeaudioangle>
                    <clip id="clip-4"/>
                  </angle>
                  <angle>
                    <activevideoangle>false</activevideoangle>
                    <activeaudioangle>false</activeaudioangle>
                    <clip id="clip-5"/>
                  </angle>
                  <angle>
                    <activevideoangle>true</activevideoangle>
                    <activeaudioangle>true</activeaudioangle>
                    <clip id="clip-6"/>
                  </angle>
                  <angle>
                    <activevideoangle>false</activevideoangle>
                    <activeaudioangle>false</activeaudioangle>
                    <clip id="clip-7"/>
                  </angle>
                  <masterclipid>clip-master</masterclipid>
                </multiclip>
              </clipitem>
              <clipitem id="cs-752">
                <duration>171</duration>
                <rate>
                  <ntsc>false</ntsc>
                  <timebase>25</timebase>
                </rate>
                <in>90221</in>
                <out>90391</out>
                <start>90221</start>
                <end>90391</end>
                <file id="src-3"/>
                <sourcetrack>
                  <mediatype>video</mediatype>
                  <trackindex>1</trackindex>
                </sourcetrack>
                <multiclip id="mcs-752">
                  <name>MCS-752</name>
                  <masterclipid>clip-master</masterclipid>
                  <collapsed>false</collapsed>
                  <angle>
                    <activevideoangle>false</activevideoangle>
                    <activeaudioangle>false</activeaudioangle>
                    <clip id="clip-1"/>
                  </angle>
                  <angle>
                    <activevideoangle>false</activevideoangle>
                    <activeaudioangle>false</activeaudioangle>
                    <clip id="clip-2"/>
                  </angle>
                  <angle>
                    <activevideoangle>true</activevideoangle>
                    <activeaudioangle>true</activeaudioangle>
                    <clip id="clip-3"/>
                  </angle>
                  <angle>
                    <activevideoangle>false</activevideoangle>
                    <activeaudioangle>false</activeaudioangle>
                    <clip id="clip-4"/>
                  </angle>
                  <angle>
                    <activevideoangle>false</activevideoangle>
                    <activeaudioangle>false</activeaudioangle>
                    <clip id="clip-5"/>
                  </angle>
                  <angle>
                    <activevideoangle>false</activevideoangle>
                    <activeaudioangle>false</activeaudioangle>
                    <clip id="clip-6"/>
                  </angle>
                  <angle>
                    <activevideoangle>false</activevideoangle>
                    <activeaudioangle>false</activeaudioangle>
                    <clip id="clip-7"/>
                  </angle>
                  <masterclipid>clip-master</masterclipid>
                </multiclip>
              </clipitem>
              <clipitem id="cs-753">
                <duration>731</duration>
                <rate>
                  <ntsc>false</ntsc>
                  <timebase>25</timebase>
                </rate>
                <in>90391</in>
                <out>91121</out>
                <start>90391</start>
                <end>91121</end>
                <file id="src-2"/>
                <sourcetrack>
                  <mediatype>video</mediatype>
                  <trackindex>1</trackindex>
                </sourcetrack>
                <multiclip id="mcs-753">
                  <name>MCS-753</name>
                  <masterclipid>clip-master</masterclipid>
                  <collapsed>false</collapsed>
                  <angle>
                    <activevideoangle>false</activevideoangle>
                    <activeaudioangle>false</activeaudioangle>
                    <clip id="clip-1"/>
                  </angle>
                  <angle>
                    <activevideoangle>true</activevideoangle>
                    <activeaudioangle>true</activeaudioangle>
                    <clip id="clip-2"/>
                  </angle>
                  <angle>
                    <activevideoangle>false</activevideoangle>
                    <activeaudioangle>false</activeaudioangle>
                    <clip id="clip-3"/>
                  </angle>
                  <angle>
                    <activevideoangle>false</activevideoangle>
                    <activeaudioangle>false</activeaudioangle>
                    <clip id="clip-4"/>
                  </angle>
                  <angle>
                    <activevideoangle>false</activevideoangle>
                    <activeaudioangle>false</activeaudioangle>
                    <clip id="clip-5"/>
                  </angle>
                  <angle>
                    <activevideoangle>false</activevideoangle>
                    <activeaudioangle>false</activeaudioangle>
                    <clip id="clip-6"/>
                  </angle>
                  <angle>
                    <activevideoangle>false</activevideoangle>
                    <activeaudioangle>false</activeaudioangle>
                    <clip id="clip-7"/>
                  </angle>
                  <masterclipid>clip-master</masterclipid>
                </multiclip>
              </clipitem>
              <clipitem id="cs-754">
                <duration>104</duration>
                <rate>
                  <ntsc>false</ntsc>
                  <timebase>25</timebase>
                </rate>
                <in>91121</in>
                <out>91224</out>
                <start>91121</start>
                <end>91224</end>
                <file id="src-3"/>
                <sourcetrack>
                  <mediatype>video</mediatype>
                  <trackindex>1</trackindex>
                </sourcetrack>
                <multiclip id="mcs-754">
                  <name>MCS-754</name>
                  <masterclipid>clip-master</masterclipid>
                  <collapsed>false</collapsed>
                  <angle>
                    <activevideoangle>false</activevideoangle>
                    <activeaudioangle>false</activeaudioangle>
                    <clip id="clip-1"/>
                  </angle>
                  <angle>
                    <activevideoangle>false</activevideoangle>
                    <activeaudioangle>false</activeaudioangle>
                    <clip id="clip-2"/>
                  </angle>
                  <angle>
                    <activevideoangle>true</activevideoangle>
                    <activeaudioangle>true</activeaudioangle>
                    <clip id="clip-3"/>
                  </angle>
                  <angle>
                    <activevideoangle>false</activevideoangle>
                    <activeaudioangle>false</activeaudioangle>
                    <clip id="clip-4"/>
                  </angle>
                  <angle>
                    <activevideoangle>false</activevideoangle>
                    <activeaudioangle>false</activeaudioangle>
                    <clip id="clip-5"/>
                  </angle>
                  <angle>
                    <activevideoangle>false</activevideoangle>
                    <activeaudioangle>false</activeaudioangle>
                    <clip id="clip-6"/>
                  </angle>
                  <angle>
                    <activevideoangle>false</activevideoangle>
                    <activeaudioangle>false</activeaudioangle>
                    <clip id="clip-7"/>
                  </angle>
                  <masterclipid>clip-master</masterclipid>
                </multiclip>
              </clipitem>
              <clipitem id="cs-755">
                <duration>82</duration>
                <rate>
                  <ntsc>false</ntsc>
                  <timebase>25</timebase>
                </rate>
                <in>91224</in>
                <out>91305</out>
                <start>91224</start>
                <end>91305</end>
                <file id="src-6"/>
                <sourcetrack>
                  <mediatype>video</mediatype>
                  <trackindex>1</trackindex>
                </sourcetrack>
                <multiclip id="mcs-755">
                  <name>MCS-755</name>
                  <masterclipid>clip-master</masterclipid>
                  <collapsed>false</collapsed>
                  <angle>
                    <activevideoangle>false</activevideoangle>
                    <activeaudioangle>false</activeaudioangle>
                    <clip id="clip-1"/>
                  </angle>
                  <angle>
                    <activevideoangle>false</activevideoangle>
                    <activeaudioangle>false</activeaudioangle>
                    <clip id="clip-2"/>
                  </angle>
                  <angle>
                    <activevideoangle>false</activevideoangle>
                    <activeaudioangle>false</activeaudioangle>
                    <clip id="clip-3"/>
                  </angle>
                  <angle>
                    <activevideoangle>false</activevideoangle>
                    <activeaudioangle>false</activeaudioangle>
                    <clip id="clip-4"/>
                  </angle>
                  <angle>
                    <activevideoangle>false</activevideoangle>
                    <activeaudioangle>false</activeaudioangle>
                    <clip id="clip-5"/>
                  </angle>
                  <angle>
                    <activevideoangle>true</activevideoangle>
                    <activeaudioangle>true</activeaudioangle>
                    <clip id="clip-6"/>
                  </angle>
                  <angle>
                    <activevideoangle>false</activevideoangle>
                    <activeaudioangle>false</activeaudioangle>
                    <clip id="clip-7"/>
                  </angle>
                  <masterclipid>clip-master</masterclipid>
                </multiclip>
              </clipitem>
              <clipitem id="cs-756">
                <duration>138</duration>
                <rate>
                  <ntsc>false</ntsc>
                  <timebase>25</timebase>
                </rate>
                <in>91305</in>
                <out>91442</out>
                <start>91305</start>
                <end>91442</end>
                <file id="src-4"/>
                <sourcetrack>
                  <mediatype>video</mediatype>
                  <trackindex>1</trackindex>
                </sourcetrack>
                <multiclip id="mcs-756">
                  <name>MCS-756</name>
                  <masterclipid>clip-master</masterclipid>
                  <collapsed>false</collapsed>
                  <angle>
                    <activevideoangle>false</activevideoangle>
                    <activeaudioangle>false</activeaudioangle>
                    <clip id="clip-1"/>
                  </angle>
                  <angle>
                    <activevideoangle>false</activevideoangle>
                    <activeaudioangle>false</activeaudioangle>
                    <clip id="clip-2"/>
                  </angle>
                  <angle>
                    <activevideoangle>false</activevideoangle>
                    <activeaudioangle>false</activeaudioangle>
                    <clip id="clip-3"/>
                  </angle>
                  <angle>
                    <activevideoangle>true</activevideoangle>
                    <activeaudioangle>true</activeaudioangle>
                    <clip id="clip-4"/>
                  </angle>
                  <angle>
                    <activevideoangle>false</activevideoangle>
                    <activeaudioangle>false</activeaudioangle>
                    <clip id="clip-5"/>
                  </angle>
                  <angle>
                    <activevideoangle>false</activevideoangle>
                    <activeaudioangle>false</activeaudioangle>
                    <clip id="clip-6"/>
                  </angle>
                  <angle>
                    <activevideoangle>false</activevideoangle>
                    <activeaudioangle>false</activeaudioangle>
                    <clip id="clip-7"/>
                  </angle>
                  <masterclipid>clip-master</masterclipid>
                </multiclip>
              </clipitem>
              <clipitem id="cs-757">
                <duration>158</duration>
                <rate>
                  <ntsc>false</ntsc>
                  <timebase>25</timebase>
                </rate>
                <in>91442</in>
                <out>91599</out>
                <start>91442</start>
                <end>91599</end>
                <file id="src-3"/>
                <sourcetrack>
                  <mediatype>video</mediatype>
                  <trackindex>1</trackindex>
                </sourcetrack>
                <multiclip id="mcs-757">
                  <name>MCS-757</name>
                  <masterclipid>clip-master</masterclipid>
                  <collapsed>false</collapsed>
                  <angle>
                    <activevideoangle>false</activevideoangle>
                    <activeaudioangle>false</activeaudioangle>
                    <clip id="clip-1"/>
                  </angle>
                  <angle>
                    <activevideoangle>false</activevideoangle>
                    <activeaudioangle>false</activeaudioangle>
                    <clip id="clip-2"/>
                  </angle>
                  <angle>
                    <activevideoangle>true</activevideoangle>
                    <activeaudioangle>true</activeaudioangle>
                    <clip id="clip-3"/>
                  </angle>
                  <angle>
                    <activevideoangle>false</activevideoangle>
                    <activeaudioangle>false</activeaudioangle>
                    <clip id="clip-4"/>
                  </angle>
                  <angle>
                    <activevideoangle>false</activevideoangle>
                    <activeaudioangle>false</activeaudioangle>
                    <clip id="clip-5"/>
                  </angle>
                  <angle>
                    <activevideoangle>false</activevideoangle>
                    <activeaudioangle>false</activeaudioangle>
                    <clip id="clip-6"/>
                  </angle>
                  <angle>
                    <activevideoangle>false</activevideoangle>
                    <activeaudioangle>false</activeaudioangle>
                    <clip id="clip-7"/>
                  </angle>
                  <masterclipid>clip-master</masterclipid>
                </multiclip>
              </clipitem>
              <clipitem id="cs-758">
                <duration>88</duration>
                <rate>
                  <ntsc>false</ntsc>
                  <timebase>25</timebase>
                </rate>
                <in>91599</in>
                <out>91686</out>
                <start>91599</start>
                <end>91686</end>
                <file id="src-2"/>
                <sourcetrack>
                  <mediatype>video</mediatype>
                  <trackindex>1</trackindex>
                </sourcetrack>
                <multiclip id="mcs-758">
                  <name>MCS-758</name>
                  <masterclipid>clip-master</masterclipid>
                  <collapsed>false</collapsed>
                  <angle>
                    <activevideoangle>false</activevideoangle>
                    <activeaudioangle>false</activeaudioangle>
                    <clip id="clip-1"/>
                  </angle>
                  <angle>
                    <activevideoangle>true</activevideoangle>
                    <activeaudioangle>true</activeaudioangle>
                    <clip id="clip-2"/>
                  </angle>
                  <angle>
                    <activevideoangle>false</activevideoangle>
                    <activeaudioangle>false</activeaudioangle>
                    <clip id="clip-3"/>
                  </angle>
                  <angle>
                    <activevideoangle>false</activevideoangle>
                    <activeaudioangle>false</activeaudioangle>
                    <clip id="clip-4"/>
                  </angle>
                  <angle>
                    <activevideoangle>false</activevideoangle>
                    <activeaudioangle>false</activeaudioangle>
                    <clip id="clip-5"/>
                  </angle>
                  <angle>
                    <activevideoangle>false</activevideoangle>
                    <activeaudioangle>false</activeaudioangle>
                    <clip id="clip-6"/>
                  </angle>
                  <angle>
                    <activevideoangle>false</activevideoangle>
                    <activeaudioangle>false</activeaudioangle>
                    <clip id="clip-7"/>
                  </angle>
                  <masterclipid>clip-master</masterclipid>
                </multiclip>
              </clipitem>
              <clipitem id="cs-759">
                <duration>60</duration>
                <rate>
                  <ntsc>false</ntsc>
                  <timebase>25</timebase>
                </rate>
                <in>91686</in>
                <out>91745</out>
                <start>91686</start>
                <end>91745</end>
                <file id="src-4"/>
                <sourcetrack>
                  <mediatype>video</mediatype>
                  <trackindex>1</trackindex>
                </sourcetrack>
                <multiclip id="mcs-759">
                  <name>MCS-759</name>
                  <masterclipid>clip-master</masterclipid>
                  <collapsed>false</collapsed>
                  <angle>
                    <activevideoangle>false</activevideoangle>
                    <activeaudioangle>false</activeaudioangle>
                    <clip id="clip-1"/>
                  </angle>
                  <angle>
                    <activevideoangle>false</activevideoangle>
                    <activeaudioangle>false</activeaudioangle>
                    <clip id="clip-2"/>
                  </angle>
                  <angle>
                    <activevideoangle>false</activevideoangle>
                    <activeaudioangle>false</activeaudioangle>
                    <clip id="clip-3"/>
                  </angle>
                  <angle>
                    <activevideoangle>true</activevideoangle>
                    <activeaudioangle>true</activeaudioangle>
                    <clip id="clip-4"/>
                  </angle>
                  <angle>
                    <activevideoangle>false</activevideoangle>
                    <activeaudioangle>false</activeaudioangle>
                    <clip id="clip-5"/>
                  </angle>
                  <angle>
                    <activevideoangle>false</activevideoangle>
                    <activeaudioangle>false</activeaudioangle>
                    <clip id="clip-6"/>
                  </angle>
                  <angle>
                    <activevideoangle>false</activevideoangle>
                    <activeaudioangle>false</activeaudioangle>
                    <clip id="clip-7"/>
                  </angle>
                  <masterclipid>clip-master</masterclipid>
                </multiclip>
              </clipitem>
              <clipitem id="cs-760">
                <duration>24</duration>
                <rate>
                  <ntsc>false</ntsc>
                  <timebase>25</timebase>
                </rate>
                <in>91745</in>
                <out>91768</out>
                <start>91745</start>
                <end>91768</end>
                <file id="src-6"/>
                <sourcetrack>
                  <mediatype>video</mediatype>
                  <trackindex>1</trackindex>
                </sourcetrack>
                <multiclip id="mcs-760">
                  <name>MCS-760</name>
                  <masterclipid>clip-master</masterclipid>
                  <collapsed>false</collapsed>
                  <angle>
                    <activevideoangle>false</activevideoangle>
                    <activeaudioangle>false</activeaudioangle>
                    <clip id="clip-1"/>
                  </angle>
                  <angle>
                    <activevideoangle>false</activevideoangle>
                    <activeaudioangle>false</activeaudioangle>
                    <clip id="clip-2"/>
                  </angle>
                  <angle>
                    <activevideoangle>false</activevideoangle>
                    <activeaudioangle>false</activeaudioangle>
                    <clip id="clip-3"/>
                  </angle>
                  <angle>
                    <activevideoangle>false</activevideoangle>
                    <activeaudioangle>false</activeaudioangle>
                    <clip id="clip-4"/>
                  </angle>
                  <angle>
                    <activevideoangle>false</activevideoangle>
                    <activeaudioangle>false</activeaudioangle>
                    <clip id="clip-5"/>
                  </angle>
                  <angle>
                    <activevideoangle>true</activevideoangle>
                    <activeaudioangle>true</activeaudioangle>
                    <clip id="clip-6"/>
                  </angle>
                  <angle>
                    <activevideoangle>false</activevideoangle>
                    <activeaudioangle>false</activeaudioangle>
                    <clip id="clip-7"/>
                  </angle>
                  <masterclipid>clip-master</masterclipid>
                </multiclip>
              </clipitem>
              <clipitem id="cs-761">
                <duration>72</duration>
                <rate>
                  <ntsc>false</ntsc>
                  <timebase>25</timebase>
                </rate>
                <in>91768</in>
                <out>91839</out>
                <start>91768</start>
                <end>91839</end>
                <file id="src-1"/>
                <sourcetrack>
                  <mediatype>video</mediatype>
                  <trackindex>1</trackindex>
                </sourcetrack>
                <multiclip id="mcs-761">
                  <name>MCS-761</name>
                  <masterclipid>clip-master</masterclipid>
                  <collapsed>false</collapsed>
                  <angle>
                    <activevideoangle>true</activevideoangle>
                    <activeaudioangle>true</activeaudioangle>
                    <clip id="clip-1"/>
                  </angle>
                  <angle>
                    <activevideoangle>false</activevideoangle>
                    <activeaudioangle>false</activeaudioangle>
                    <clip id="clip-2"/>
                  </angle>
                  <angle>
                    <activevideoangle>false</activevideoangle>
                    <activeaudioangle>false</activeaudioangle>
                    <clip id="clip-3"/>
                  </angle>
                  <angle>
                    <activevideoangle>false</activevideoangle>
                    <activeaudioangle>false</activeaudioangle>
                    <clip id="clip-4"/>
                  </angle>
                  <angle>
                    <activevideoangle>false</activevideoangle>
                    <activeaudioangle>false</activeaudioangle>
                    <clip id="clip-5"/>
                  </angle>
                  <angle>
                    <activevideoangle>false</activevideoangle>
                    <activeaudioangle>false</activeaudioangle>
                    <clip id="clip-6"/>
                  </angle>
                  <angle>
                    <activevideoangle>false</activevideoangle>
                    <activeaudioangle>false</activeaudioangle>
                    <clip id="clip-7"/>
                  </angle>
                  <masterclipid>clip-master</masterclipid>
                </multiclip>
              </clipitem>
              <clipitem id="cs-762">
                <duration>105</duration>
                <rate>
                  <ntsc>false</ntsc>
                  <timebase>25</timebase>
                </rate>
                <in>91839</in>
                <out>91943</out>
                <start>91839</start>
                <end>91943</end>
                <file id="src-2"/>
                <sourcetrack>
                  <mediatype>video</mediatype>
                  <trackindex>1</trackindex>
                </sourcetrack>
                <multiclip id="mcs-762">
                  <name>MCS-762</name>
                  <masterclipid>clip-master</masterclipid>
                  <collapsed>false</collapsed>
                  <angle>
                    <activevideoangle>false</activevideoangle>
                    <activeaudioangle>false</activeaudioangle>
                    <clip id="clip-1"/>
                  </angle>
                  <angle>
                    <activevideoangle>true</activevideoangle>
                    <activeaudioangle>true</activeaudioangle>
                    <clip id="clip-2"/>
                  </angle>
                  <angle>
                    <activevideoangle>false</activevideoangle>
                    <activeaudioangle>false</activeaudioangle>
                    <clip id="clip-3"/>
                  </angle>
                  <angle>
                    <activevideoangle>false</activevideoangle>
                    <activeaudioangle>false</activeaudioangle>
                    <clip id="clip-4"/>
                  </angle>
                  <angle>
                    <activevideoangle>false</activevideoangle>
                    <activeaudioangle>false</activeaudioangle>
                    <clip id="clip-5"/>
                  </angle>
                  <angle>
                    <activevideoangle>false</activevideoangle>
                    <activeaudioangle>false</activeaudioangle>
                    <clip id="clip-6"/>
                  </angle>
                  <angle>
                    <activevideoangle>false</activevideoangle>
                    <activeaudioangle>false</activeaudioangle>
                    <clip id="clip-7"/>
                  </angle>
                  <masterclipid>clip-master</masterclipid>
                </multiclip>
              </clipitem>
              <clipitem id="cs-763">
                <duration>78</duration>
                <rate>
                  <ntsc>false</ntsc>
                  <timebase>25</timebase>
                </rate>
                <in>91943</in>
                <out>92020</out>
                <start>91943</start>
                <end>92020</end>
                <file id="src-4"/>
                <sourcetrack>
                  <mediatype>video</mediatype>
                  <trackindex>1</trackindex>
                </sourcetrack>
                <multiclip id="mcs-763">
                  <name>MCS-763</name>
                  <masterclipid>clip-master</masterclipid>
                  <collapsed>false</collapsed>
                  <angle>
                    <activevideoangle>false</activevideoangle>
                    <activeaudioangle>false</activeaudioangle>
                    <clip id="clip-1"/>
                  </angle>
                  <angle>
                    <activevideoangle>false</activevideoangle>
                    <activeaudioangle>false</activeaudioangle>
                    <clip id="clip-2"/>
                  </angle>
                  <angle>
                    <activevideoangle>false</activevideoangle>
                    <activeaudioangle>false</activeaudioangle>
                    <clip id="clip-3"/>
                  </angle>
                  <angle>
                    <activevideoangle>true</activevideoangle>
                    <activeaudioangle>true</activeaudioangle>
                    <clip id="clip-4"/>
                  </angle>
                  <angle>
                    <activevideoangle>false</activevideoangle>
                    <activeaudioangle>false</activeaudioangle>
                    <clip id="clip-5"/>
                  </angle>
                  <angle>
                    <activevideoangle>false</activevideoangle>
                    <activeaudioangle>false</activeaudioangle>
                    <clip id="clip-6"/>
                  </angle>
                  <angle>
                    <activevideoangle>false</activevideoangle>
                    <activeaudioangle>false</activeaudioangle>
                    <clip id="clip-7"/>
                  </angle>
                  <masterclipid>clip-master</masterclipid>
                </multiclip>
              </clipitem>
              <clipitem id="cs-764">
                <duration>236</duration>
                <rate>
                  <ntsc>false</ntsc>
                  <timebase>25</timebase>
                </rate>
                <in>92020</in>
                <out>92255</out>
                <start>92020</start>
                <end>92255</end>
                <file id="src-3"/>
                <sourcetrack>
                  <mediatype>video</mediatype>
                  <trackindex>1</trackindex>
                </sourcetrack>
                <multiclip id="mcs-764">
                  <name>MCS-764</name>
                  <masterclipid>clip-master</masterclipid>
                  <collapsed>false</collapsed>
                  <angle>
                    <activevideoangle>false</activevideoangle>
                    <activeaudioangle>false</activeaudioangle>
                    <clip id="clip-1"/>
                  </angle>
                  <angle>
                    <activevideoangle>false</activevideoangle>
                    <activeaudioangle>false</activeaudioangle>
                    <clip id="clip-2"/>
                  </angle>
                  <angle>
                    <activevideoangle>true</activevideoangle>
                    <activeaudioangle>true</activeaudioangle>
                    <clip id="clip-3"/>
                  </angle>
                  <angle>
                    <activevideoangle>false</activevideoangle>
                    <activeaudioangle>false</activeaudioangle>
                    <clip id="clip-4"/>
                  </angle>
                  <angle>
                    <activevideoangle>false</activevideoangle>
                    <activeaudioangle>false</activeaudioangle>
                    <clip id="clip-5"/>
                  </angle>
                  <angle>
                    <activevideoangle>false</activevideoangle>
                    <activeaudioangle>false</activeaudioangle>
                    <clip id="clip-6"/>
                  </angle>
                  <angle>
                    <activevideoangle>false</activevideoangle>
                    <activeaudioangle>false</activeaudioangle>
                    <clip id="clip-7"/>
                  </angle>
                  <masterclipid>clip-master</masterclipid>
                </multiclip>
              </clipitem>
              <clipitem id="cs-765">
                <duration>50</duration>
                <rate>
                  <ntsc>false</ntsc>
                  <timebase>25</timebase>
                </rate>
                <in>92255</in>
                <out>92304</out>
                <start>92255</start>
                <end>92304</end>
                <file id="src-2"/>
                <sourcetrack>
                  <mediatype>video</mediatype>
                  <trackindex>1</trackindex>
                </sourcetrack>
                <multiclip id="mcs-765">
                  <name>MCS-765</name>
                  <masterclipid>clip-master</masterclipid>
                  <collapsed>false</collapsed>
                  <angle>
                    <activevideoangle>false</activevideoangle>
                    <activeaudioangle>false</activeaudioangle>
                    <clip id="clip-1"/>
                  </angle>
                  <angle>
                    <activevideoangle>true</activevideoangle>
                    <activeaudioangle>true</activeaudioangle>
                    <clip id="clip-2"/>
                  </angle>
                  <angle>
                    <activevideoangle>false</activevideoangle>
                    <activeaudioangle>false</activeaudioangle>
                    <clip id="clip-3"/>
                  </angle>
                  <angle>
                    <activevideoangle>false</activevideoangle>
                    <activeaudioangle>false</activeaudioangle>
                    <clip id="clip-4"/>
                  </angle>
                  <angle>
                    <activevideoangle>false</activevideoangle>
                    <activeaudioangle>false</activeaudioangle>
                    <clip id="clip-5"/>
                  </angle>
                  <angle>
                    <activevideoangle>false</activevideoangle>
                    <activeaudioangle>false</activeaudioangle>
                    <clip id="clip-6"/>
                  </angle>
                  <angle>
                    <activevideoangle>false</activevideoangle>
                    <activeaudioangle>false</activeaudioangle>
                    <clip id="clip-7"/>
                  </angle>
                  <masterclipid>clip-master</masterclipid>
                </multiclip>
              </clipitem>
              <clipitem id="cs-766">
                <duration>185</duration>
                <rate>
                  <ntsc>false</ntsc>
                  <timebase>25</timebase>
                </rate>
                <in>92304</in>
                <out>92488</out>
                <start>92304</start>
                <end>92488</end>
                <file id="src-4"/>
                <sourcetrack>
                  <mediatype>video</mediatype>
                  <trackindex>1</trackindex>
                </sourcetrack>
                <multiclip id="mcs-766">
                  <name>MCS-766</name>
                  <masterclipid>clip-master</masterclipid>
                  <collapsed>false</collapsed>
                  <angle>
                    <activevideoangle>false</activevideoangle>
                    <activeaudioangle>false</activeaudioangle>
                    <clip id="clip-1"/>
                  </angle>
                  <angle>
                    <activevideoangle>false</activevideoangle>
                    <activeaudioangle>false</activeaudioangle>
                    <clip id="clip-2"/>
                  </angle>
                  <angle>
                    <activevideoangle>false</activevideoangle>
                    <activeaudioangle>false</activeaudioangle>
                    <clip id="clip-3"/>
                  </angle>
                  <angle>
                    <activevideoangle>true</activevideoangle>
                    <activeaudioangle>true</activeaudioangle>
                    <clip id="clip-4"/>
                  </angle>
                  <angle>
                    <activevideoangle>false</activevideoangle>
                    <activeaudioangle>false</activeaudioangle>
                    <clip id="clip-5"/>
                  </angle>
                  <angle>
                    <activevideoangle>false</activevideoangle>
                    <activeaudioangle>false</activeaudioangle>
                    <clip id="clip-6"/>
                  </angle>
                  <angle>
                    <activevideoangle>false</activevideoangle>
                    <activeaudioangle>false</activeaudioangle>
                    <clip id="clip-7"/>
                  </angle>
                  <masterclipid>clip-master</masterclipid>
                </multiclip>
              </clipitem>
              <clipitem id="cs-767">
                <duration>101</duration>
                <rate>
                  <ntsc>false</ntsc>
                  <timebase>25</timebase>
                </rate>
                <in>92488</in>
                <out>92588</out>
                <start>92488</start>
                <end>92588</end>
                <file id="src-3"/>
                <sourcetrack>
                  <mediatype>video</mediatype>
                  <trackindex>1</trackindex>
                </sourcetrack>
                <multiclip id="mcs-767">
                  <name>MCS-767</name>
                  <masterclipid>clip-master</masterclipid>
                  <collapsed>false</collapsed>
                  <angle>
                    <activevideoangle>false</activevideoangle>
                    <activeaudioangle>false</activeaudioangle>
                    <clip id="clip-1"/>
                  </angle>
                  <angle>
                    <activevideoangle>false</activevideoangle>
                    <activeaudioangle>false</activeaudioangle>
                    <clip id="clip-2"/>
                  </angle>
                  <angle>
                    <activevideoangle>true</activevideoangle>
                    <activeaudioangle>true</activeaudioangle>
                    <clip id="clip-3"/>
                  </angle>
                  <angle>
                    <activevideoangle>false</activevideoangle>
                    <activeaudioangle>false</activeaudioangle>
                    <clip id="clip-4"/>
                  </angle>
                  <angle>
                    <activevideoangle>false</activevideoangle>
                    <activeaudioangle>false</activeaudioangle>
                    <clip id="clip-5"/>
                  </angle>
                  <angle>
                    <activevideoangle>false</activevideoangle>
                    <activeaudioangle>false</activeaudioangle>
                    <clip id="clip-6"/>
                  </angle>
                  <angle>
                    <activevideoangle>false</activevideoangle>
                    <activeaudioangle>false</activeaudioangle>
                    <clip id="clip-7"/>
                  </angle>
                  <masterclipid>clip-master</masterclipid>
                </multiclip>
              </clipitem>
              <clipitem id="cs-768">
                <duration>85</duration>
                <rate>
                  <ntsc>false</ntsc>
                  <timebase>25</timebase>
                </rate>
                <in>92588</in>
                <out>92672</out>
                <start>92588</start>
                <end>92672</end>
                <file id="src-2"/>
                <sourcetrack>
                  <mediatype>video</mediatype>
                  <trackindex>1</trackindex>
                </sourcetrack>
                <multiclip id="mcs-768">
                  <name>MCS-768</name>
                  <masterclipid>clip-master</masterclipid>
                  <collapsed>false</collapsed>
                  <angle>
                    <activevideoangle>false</activevideoangle>
                    <activeaudioangle>false</activeaudioangle>
                    <clip id="clip-1"/>
                  </angle>
                  <angle>
                    <activevideoangle>true</activevideoangle>
                    <activeaudioangle>true</activeaudioangle>
                    <clip id="clip-2"/>
                  </angle>
                  <angle>
                    <activevideoangle>false</activevideoangle>
                    <activeaudioangle>false</activeaudioangle>
                    <clip id="clip-3"/>
                  </angle>
                  <angle>
                    <activevideoangle>false</activevideoangle>
                    <activeaudioangle>false</activeaudioangle>
                    <clip id="clip-4"/>
                  </angle>
                  <angle>
                    <activevideoangle>false</activevideoangle>
                    <activeaudioangle>false</activeaudioangle>
                    <clip id="clip-5"/>
                  </angle>
                  <angle>
                    <activevideoangle>false</activevideoangle>
                    <activeaudioangle>false</activeaudioangle>
                    <clip id="clip-6"/>
                  </angle>
                  <angle>
                    <activevideoangle>false</activevideoangle>
                    <activeaudioangle>false</activeaudioangle>
                    <clip id="clip-7"/>
                  </angle>
                  <masterclipid>clip-master</masterclipid>
                </multiclip>
              </clipitem>
              <clipitem id="cs-769">
                <duration>37</duration>
                <rate>
                  <ntsc>false</ntsc>
                  <timebase>25</timebase>
                </rate>
                <in>92672</in>
                <out>92708</out>
                <start>92672</start>
                <end>92708</end>
                <file id="src-6"/>
                <sourcetrack>
                  <mediatype>video</mediatype>
                  <trackindex>1</trackindex>
                </sourcetrack>
                <multiclip id="mcs-769">
                  <name>MCS-769</name>
                  <masterclipid>clip-master</masterclipid>
                  <collapsed>false</collapsed>
                  <angle>
                    <activevideoangle>false</activevideoangle>
                    <activeaudioangle>false</activeaudioangle>
                    <clip id="clip-1"/>
                  </angle>
                  <angle>
                    <activevideoangle>false</activevideoangle>
                    <activeaudioangle>false</activeaudioangle>
                    <clip id="clip-2"/>
                  </angle>
                  <angle>
                    <activevideoangle>false</activevideoangle>
                    <activeaudioangle>false</activeaudioangle>
                    <clip id="clip-3"/>
                  </angle>
                  <angle>
                    <activevideoangle>false</activevideoangle>
                    <activeaudioangle>false</activeaudioangle>
                    <clip id="clip-4"/>
                  </angle>
                  <angle>
                    <activevideoangle>false</activevideoangle>
                    <activeaudioangle>false</activeaudioangle>
                    <clip id="clip-5"/>
                  </angle>
                  <angle>
                    <activevideoangle>true</activevideoangle>
                    <activeaudioangle>true</activeaudioangle>
                    <clip id="clip-6"/>
                  </angle>
                  <angle>
                    <activevideoangle>false</activevideoangle>
                    <activeaudioangle>false</activeaudioangle>
                    <clip id="clip-7"/>
                  </angle>
                  <masterclipid>clip-master</masterclipid>
                </multiclip>
              </clipitem>
              <clipitem id="cs-770">
                <duration>102</duration>
                <rate>
                  <ntsc>false</ntsc>
                  <timebase>25</timebase>
                </rate>
                <in>92708</in>
                <out>92809</out>
                <start>92708</start>
                <end>92809</end>
                <file id="src-3"/>
                <sourcetrack>
                  <mediatype>video</mediatype>
                  <trackindex>1</trackindex>
                </sourcetrack>
                <multiclip id="mcs-770">
                  <name>MCS-770</name>
                  <masterclipid>clip-master</masterclipid>
                  <collapsed>false</collapsed>
                  <angle>
                    <activevideoangle>false</activevideoangle>
                    <activeaudioangle>false</activeaudioangle>
                    <clip id="clip-1"/>
                  </angle>
                  <angle>
                    <activevideoangle>false</activevideoangle>
                    <activeaudioangle>false</activeaudioangle>
                    <clip id="clip-2"/>
                  </angle>
                  <angle>
                    <activevideoangle>true</activevideoangle>
                    <activeaudioangle>true</activeaudioangle>
                    <clip id="clip-3"/>
                  </angle>
                  <angle>
                    <activevideoangle>false</activevideoangle>
                    <activeaudioangle>false</activeaudioangle>
                    <clip id="clip-4"/>
                  </angle>
                  <angle>
                    <activevideoangle>false</activevideoangle>
                    <activeaudioangle>false</activeaudioangle>
                    <clip id="clip-5"/>
                  </angle>
                  <angle>
                    <activevideoangle>false</activevideoangle>
                    <activeaudioangle>false</activeaudioangle>
                    <clip id="clip-6"/>
                  </angle>
                  <angle>
                    <activevideoangle>false</activevideoangle>
                    <activeaudioangle>false</activeaudioangle>
                    <clip id="clip-7"/>
                  </angle>
                  <masterclipid>clip-master</masterclipid>
                </multiclip>
              </clipitem>
              <clipitem id="cs-771">
                <duration>94</duration>
                <rate>
                  <ntsc>false</ntsc>
                  <timebase>25</timebase>
                </rate>
                <in>92809</in>
                <out>92902</out>
                <start>92809</start>
                <end>92902</end>
                <file id="src-4"/>
                <sourcetrack>
                  <mediatype>video</mediatype>
                  <trackindex>1</trackindex>
                </sourcetrack>
                <multiclip id="mcs-771">
                  <name>MCS-771</name>
                  <masterclipid>clip-master</masterclipid>
                  <collapsed>false</collapsed>
                  <angle>
                    <activevideoangle>false</activevideoangle>
                    <activeaudioangle>false</activeaudioangle>
                    <clip id="clip-1"/>
                  </angle>
                  <angle>
                    <activevideoangle>false</activevideoangle>
                    <activeaudioangle>false</activeaudioangle>
                    <clip id="clip-2"/>
                  </angle>
                  <angle>
                    <activevideoangle>false</activevideoangle>
                    <activeaudioangle>false</activeaudioangle>
                    <clip id="clip-3"/>
                  </angle>
                  <angle>
                    <activevideoangle>true</activevideoangle>
                    <activeaudioangle>true</activeaudioangle>
                    <clip id="clip-4"/>
                  </angle>
                  <angle>
                    <activevideoangle>false</activevideoangle>
                    <activeaudioangle>false</activeaudioangle>
                    <clip id="clip-5"/>
                  </angle>
                  <angle>
                    <activevideoangle>false</activevideoangle>
                    <activeaudioangle>false</activeaudioangle>
                    <clip id="clip-6"/>
                  </angle>
                  <angle>
                    <activevideoangle>false</activevideoangle>
                    <activeaudioangle>false</activeaudioangle>
                    <clip id="clip-7"/>
                  </angle>
                  <masterclipid>clip-master</masterclipid>
                </multiclip>
              </clipitem>
              <clipitem id="cs-772">
                <duration>164</duration>
                <rate>
                  <ntsc>false</ntsc>
                  <timebase>25</timebase>
                </rate>
                <in>92902</in>
                <out>93065</out>
                <start>92902</start>
                <end>93065</end>
                <file id="src-2"/>
                <sourcetrack>
                  <mediatype>video</mediatype>
                  <trackindex>1</trackindex>
                </sourcetrack>
                <multiclip id="mcs-772">
                  <name>MCS-772</name>
                  <masterclipid>clip-master</masterclipid>
                  <collapsed>false</collapsed>
                  <angle>
                    <activevideoangle>false</activevideoangle>
                    <activeaudioangle>false</activeaudioangle>
                    <clip id="clip-1"/>
                  </angle>
                  <angle>
                    <activevideoangle>true</activevideoangle>
                    <activeaudioangle>true</activeaudioangle>
                    <clip id="clip-2"/>
                  </angle>
                  <angle>
                    <activevideoangle>false</activevideoangle>
                    <activeaudioangle>false</activeaudioangle>
                    <clip id="clip-3"/>
                  </angle>
                  <angle>
                    <activevideoangle>false</activevideoangle>
                    <activeaudioangle>false</activeaudioangle>
                    <clip id="clip-4"/>
                  </angle>
                  <angle>
                    <activevideoangle>false</activevideoangle>
                    <activeaudioangle>false</activeaudioangle>
                    <clip id="clip-5"/>
                  </angle>
                  <angle>
                    <activevideoangle>false</activevideoangle>
                    <activeaudioangle>false</activeaudioangle>
                    <clip id="clip-6"/>
                  </angle>
                  <angle>
                    <activevideoangle>false</activevideoangle>
                    <activeaudioangle>false</activeaudioangle>
                    <clip id="clip-7"/>
                  </angle>
                  <masterclipid>clip-master</masterclipid>
                </multiclip>
              </clipitem>
              <clipitem id="cs-773">
                <duration>160</duration>
                <rate>
                  <ntsc>false</ntsc>
                  <timebase>25</timebase>
                </rate>
                <in>93065</in>
                <out>93224</out>
                <start>93065</start>
                <end>93224</end>
                <file id="src-3"/>
                <sourcetrack>
                  <mediatype>video</mediatype>
                  <trackindex>1</trackindex>
                </sourcetrack>
                <multiclip id="mcs-773">
                  <name>MCS-773</name>
                  <masterclipid>clip-master</masterclipid>
                  <collapsed>false</collapsed>
                  <angle>
                    <activevideoangle>false</activevideoangle>
                    <activeaudioangle>false</activeaudioangle>
                    <clip id="clip-1"/>
                  </angle>
                  <angle>
                    <activevideoangle>false</activevideoangle>
                    <activeaudioangle>false</activeaudioangle>
                    <clip id="clip-2"/>
                  </angle>
                  <angle>
                    <activevideoangle>true</activevideoangle>
                    <activeaudioangle>true</activeaudioangle>
                    <clip id="clip-3"/>
                  </angle>
                  <angle>
                    <activevideoangle>false</activevideoangle>
                    <activeaudioangle>false</activeaudioangle>
                    <clip id="clip-4"/>
                  </angle>
                  <angle>
                    <activevideoangle>false</activevideoangle>
                    <activeaudioangle>false</activeaudioangle>
                    <clip id="clip-5"/>
                  </angle>
                  <angle>
                    <activevideoangle>false</activevideoangle>
                    <activeaudioangle>false</activeaudioangle>
                    <clip id="clip-6"/>
                  </angle>
                  <angle>
                    <activevideoangle>false</activevideoangle>
                    <activeaudioangle>false</activeaudioangle>
                    <clip id="clip-7"/>
                  </angle>
                  <masterclipid>clip-master</masterclipid>
                </multiclip>
              </clipitem>
              <clipitem id="cs-774">
                <duration>78</duration>
                <rate>
                  <ntsc>false</ntsc>
                  <timebase>25</timebase>
                </rate>
                <in>93224</in>
                <out>93301</out>
                <start>93224</start>
                <end>93301</end>
                <file id="src-6"/>
                <sourcetrack>
                  <mediatype>video</mediatype>
                  <trackindex>1</trackindex>
                </sourcetrack>
                <multiclip id="mcs-774">
                  <name>MCS-774</name>
                  <masterclipid>clip-master</masterclipid>
                  <collapsed>false</collapsed>
                  <angle>
                    <activevideoangle>false</activevideoangle>
                    <activeaudioangle>false</activeaudioangle>
                    <clip id="clip-1"/>
                  </angle>
                  <angle>
                    <activevideoangle>false</activevideoangle>
                    <activeaudioangle>false</activeaudioangle>
                    <clip id="clip-2"/>
                  </angle>
                  <angle>
                    <activevideoangle>false</activevideoangle>
                    <activeaudioangle>false</activeaudioangle>
                    <clip id="clip-3"/>
                  </angle>
                  <angle>
                    <activevideoangle>false</activevideoangle>
                    <activeaudioangle>false</activeaudioangle>
                    <clip id="clip-4"/>
                  </angle>
                  <angle>
                    <activevideoangle>false</activevideoangle>
                    <activeaudioangle>false</activeaudioangle>
                    <clip id="clip-5"/>
                  </angle>
                  <angle>
                    <activevideoangle>true</activevideoangle>
                    <activeaudioangle>true</activeaudioangle>
                    <clip id="clip-6"/>
                  </angle>
                  <angle>
                    <activevideoangle>false</activevideoangle>
                    <activeaudioangle>false</activeaudioangle>
                    <clip id="clip-7"/>
                  </angle>
                  <masterclipid>clip-master</masterclipid>
                </multiclip>
              </clipitem>
              <clipitem id="cs-775">
                <duration>61</duration>
                <rate>
                  <ntsc>false</ntsc>
                  <timebase>25</timebase>
                </rate>
                <in>93301</in>
                <out>93361</out>
                <start>93301</start>
                <end>93361</end>
                <file id="src-2"/>
                <sourcetrack>
                  <mediatype>video</mediatype>
                  <trackindex>1</trackindex>
                </sourcetrack>
                <multiclip id="mcs-775">
                  <name>MCS-775</name>
                  <masterclipid>clip-master</masterclipid>
                  <collapsed>false</collapsed>
                  <angle>
                    <activevideoangle>false</activevideoangle>
                    <activeaudioangle>false</activeaudioangle>
                    <clip id="clip-1"/>
                  </angle>
                  <angle>
                    <activevideoangle>true</activevideoangle>
                    <activeaudioangle>true</activeaudioangle>
                    <clip id="clip-2"/>
                  </angle>
                  <angle>
                    <activevideoangle>false</activevideoangle>
                    <activeaudioangle>false</activeaudioangle>
                    <clip id="clip-3"/>
                  </angle>
                  <angle>
                    <activevideoangle>false</activevideoangle>
                    <activeaudioangle>false</activeaudioangle>
                    <clip id="clip-4"/>
                  </angle>
                  <angle>
                    <activevideoangle>false</activevideoangle>
                    <activeaudioangle>false</activeaudioangle>
                    <clip id="clip-5"/>
                  </angle>
                  <angle>
                    <activevideoangle>false</activevideoangle>
                    <activeaudioangle>false</activeaudioangle>
                    <clip id="clip-6"/>
                  </angle>
                  <angle>
                    <activevideoangle>false</activevideoangle>
                    <activeaudioangle>false</activeaudioangle>
                    <clip id="clip-7"/>
                  </angle>
                  <masterclipid>clip-master</masterclipid>
                </multiclip>
              </clipitem>
              <clipitem id="cs-776">
                <duration>142</duration>
                <rate>
                  <ntsc>false</ntsc>
                  <timebase>25</timebase>
                </rate>
                <in>93361</in>
                <out>93502</out>
                <start>93361</start>
                <end>93502</end>
                <file id="src-3"/>
                <sourcetrack>
                  <mediatype>video</mediatype>
                  <trackindex>1</trackindex>
                </sourcetrack>
                <multiclip id="mcs-776">
                  <name>MCS-776</name>
                  <masterclipid>clip-master</masterclipid>
                  <collapsed>false</collapsed>
                  <angle>
                    <activevideoangle>false</activevideoangle>
                    <activeaudioangle>false</activeaudioangle>
                    <clip id="clip-1"/>
                  </angle>
                  <angle>
                    <activevideoangle>false</activevideoangle>
                    <activeaudioangle>false</activeaudioangle>
                    <clip id="clip-2"/>
                  </angle>
                  <angle>
                    <activevideoangle>true</activevideoangle>
                    <activeaudioangle>true</activeaudioangle>
                    <clip id="clip-3"/>
                  </angle>
                  <angle>
                    <activevideoangle>false</activevideoangle>
                    <activeaudioangle>false</activeaudioangle>
                    <clip id="clip-4"/>
                  </angle>
                  <angle>
                    <activevideoangle>false</activevideoangle>
                    <activeaudioangle>false</activeaudioangle>
                    <clip id="clip-5"/>
                  </angle>
                  <angle>
                    <activevideoangle>false</activevideoangle>
                    <activeaudioangle>false</activeaudioangle>
                    <clip id="clip-6"/>
                  </angle>
                  <angle>
                    <activevideoangle>false</activevideoangle>
                    <activeaudioangle>false</activeaudioangle>
                    <clip id="clip-7"/>
                  </angle>
                  <masterclipid>clip-master</masterclipid>
                </multiclip>
              </clipitem>
              <clipitem id="cs-777">
                <duration>151</duration>
                <rate>
                  <ntsc>false</ntsc>
                  <timebase>25</timebase>
                </rate>
                <in>93502</in>
                <out>93652</out>
                <start>93502</start>
                <end>93652</end>
                <file id="src-2"/>
                <sourcetrack>
                  <mediatype>video</mediatype>
                  <trackindex>1</trackindex>
                </sourcetrack>
                <multiclip id="mcs-777">
                  <name>MCS-777</name>
                  <masterclipid>clip-master</masterclipid>
                  <collapsed>false</collapsed>
                  <angle>
                    <activevideoangle>false</activevideoangle>
                    <activeaudioangle>false</activeaudioangle>
                    <clip id="clip-1"/>
                  </angle>
                  <angle>
                    <activevideoangle>true</activevideoangle>
                    <activeaudioangle>true</activeaudioangle>
                    <clip id="clip-2"/>
                  </angle>
                  <angle>
                    <activevideoangle>false</activevideoangle>
                    <activeaudioangle>false</activeaudioangle>
                    <clip id="clip-3"/>
                  </angle>
                  <angle>
                    <activevideoangle>false</activevideoangle>
                    <activeaudioangle>false</activeaudioangle>
                    <clip id="clip-4"/>
                  </angle>
                  <angle>
                    <activevideoangle>false</activevideoangle>
                    <activeaudioangle>false</activeaudioangle>
                    <clip id="clip-5"/>
                  </angle>
                  <angle>
                    <activevideoangle>false</activevideoangle>
                    <activeaudioangle>false</activeaudioangle>
                    <clip id="clip-6"/>
                  </angle>
                  <angle>
                    <activevideoangle>false</activevideoangle>
                    <activeaudioangle>false</activeaudioangle>
                    <clip id="clip-7"/>
                  </angle>
                  <masterclipid>clip-master</masterclipid>
                </multiclip>
              </clipitem>
              <clipitem id="cs-778">
                <duration>117</duration>
                <rate>
                  <ntsc>false</ntsc>
                  <timebase>25</timebase>
                </rate>
                <in>93652</in>
                <out>93768</out>
                <start>93652</start>
                <end>93768</end>
                <file id="src-3"/>
                <sourcetrack>
                  <mediatype>video</mediatype>
                  <trackindex>1</trackindex>
                </sourcetrack>
                <multiclip id="mcs-778">
                  <name>MCS-778</name>
                  <masterclipid>clip-master</masterclipid>
                  <collapsed>false</collapsed>
                  <angle>
                    <activevideoangle>false</activevideoangle>
                    <activeaudioangle>false</activeaudioangle>
                    <clip id="clip-1"/>
                  </angle>
                  <angle>
                    <activevideoangle>false</activevideoangle>
                    <activeaudioangle>false</activeaudioangle>
                    <clip id="clip-2"/>
                  </angle>
                  <angle>
                    <activevideoangle>true</activevideoangle>
                    <activeaudioangle>true</activeaudioangle>
                    <clip id="clip-3"/>
                  </angle>
                  <angle>
                    <activevideoangle>false</activevideoangle>
                    <activeaudioangle>false</activeaudioangle>
                    <clip id="clip-4"/>
                  </angle>
                  <angle>
                    <activevideoangle>false</activevideoangle>
                    <activeaudioangle>false</activeaudioangle>
                    <clip id="clip-5"/>
                  </angle>
                  <angle>
                    <activevideoangle>false</activevideoangle>
                    <activeaudioangle>false</activeaudioangle>
                    <clip id="clip-6"/>
                  </angle>
                  <angle>
                    <activevideoangle>false</activevideoangle>
                    <activeaudioangle>false</activeaudioangle>
                    <clip id="clip-7"/>
                  </angle>
                  <masterclipid>clip-master</masterclipid>
                </multiclip>
              </clipitem>
              <clipitem id="cs-779">
                <duration>144</duration>
                <rate>
                  <ntsc>false</ntsc>
                  <timebase>25</timebase>
                </rate>
                <in>93768</in>
                <out>93911</out>
                <start>93768</start>
                <end>93911</end>
                <file id="src-2"/>
                <sourcetrack>
                  <mediatype>video</mediatype>
                  <trackindex>1</trackindex>
                </sourcetrack>
                <multiclip id="mcs-779">
                  <name>MCS-779</name>
                  <masterclipid>clip-master</masterclipid>
                  <collapsed>false</collapsed>
                  <angle>
                    <activevideoangle>false</activevideoangle>
                    <activeaudioangle>false</activeaudioangle>
                    <clip id="clip-1"/>
                  </angle>
                  <angle>
                    <activevideoangle>true</activevideoangle>
                    <activeaudioangle>true</activeaudioangle>
                    <clip id="clip-2"/>
                  </angle>
                  <angle>
                    <activevideoangle>false</activevideoangle>
                    <activeaudioangle>false</activeaudioangle>
                    <clip id="clip-3"/>
                  </angle>
                  <angle>
                    <activevideoangle>false</activevideoangle>
                    <activeaudioangle>false</activeaudioangle>
                    <clip id="clip-4"/>
                  </angle>
                  <angle>
                    <activevideoangle>false</activevideoangle>
                    <activeaudioangle>false</activeaudioangle>
                    <clip id="clip-5"/>
                  </angle>
                  <angle>
                    <activevideoangle>false</activevideoangle>
                    <activeaudioangle>false</activeaudioangle>
                    <clip id="clip-6"/>
                  </angle>
                  <angle>
                    <activevideoangle>false</activevideoangle>
                    <activeaudioangle>false</activeaudioangle>
                    <clip id="clip-7"/>
                  </angle>
                  <masterclipid>clip-master</masterclipid>
                </multiclip>
              </clipitem>
              <clipitem id="cs-780">
                <duration>196</duration>
                <rate>
                  <ntsc>false</ntsc>
                  <timebase>25</timebase>
                </rate>
                <in>93911</in>
                <out>94106</out>
                <start>93911</start>
                <end>94106</end>
                <file id="src-3"/>
                <sourcetrack>
                  <mediatype>video</mediatype>
                  <trackindex>1</trackindex>
                </sourcetrack>
                <multiclip id="mcs-780">
                  <name>MCS-780</name>
                  <masterclipid>clip-master</masterclipid>
                  <collapsed>false</collapsed>
                  <angle>
                    <activevideoangle>false</activevideoangle>
                    <activeaudioangle>false</activeaudioangle>
                    <clip id="clip-1"/>
                  </angle>
                  <angle>
                    <activevideoangle>false</activevideoangle>
                    <activeaudioangle>false</activeaudioangle>
                    <clip id="clip-2"/>
                  </angle>
                  <angle>
                    <activevideoangle>true</activevideoangle>
                    <activeaudioangle>true</activeaudioangle>
                    <clip id="clip-3"/>
                  </angle>
                  <angle>
                    <activevideoangle>false</activevideoangle>
                    <activeaudioangle>false</activeaudioangle>
                    <clip id="clip-4"/>
                  </angle>
                  <angle>
                    <activevideoangle>false</activevideoangle>
                    <activeaudioangle>false</activeaudioangle>
                    <clip id="clip-5"/>
                  </angle>
                  <angle>
                    <activevideoangle>false</activevideoangle>
                    <activeaudioangle>false</activeaudioangle>
                    <clip id="clip-6"/>
                  </angle>
                  <angle>
                    <activevideoangle>false</activevideoangle>
                    <activeaudioangle>false</activeaudioangle>
                    <clip id="clip-7"/>
                  </angle>
                  <masterclipid>clip-master</masterclipid>
                </multiclip>
              </clipitem>
              <clipitem id="cs-781">
                <duration>269</duration>
                <rate>
                  <ntsc>false</ntsc>
                  <timebase>25</timebase>
                </rate>
                <in>94106</in>
                <out>94374</out>
                <start>94106</start>
                <end>94374</end>
                <file id="src-2"/>
                <sourcetrack>
                  <mediatype>video</mediatype>
                  <trackindex>1</trackindex>
                </sourcetrack>
                <multiclip id="mcs-781">
                  <name>MCS-781</name>
                  <masterclipid>clip-master</masterclipid>
                  <collapsed>false</collapsed>
                  <angle>
                    <activevideoangle>false</activevideoangle>
                    <activeaudioangle>false</activeaudioangle>
                    <clip id="clip-1"/>
                  </angle>
                  <angle>
                    <activevideoangle>true</activevideoangle>
                    <activeaudioangle>true</activeaudioangle>
                    <clip id="clip-2"/>
                  </angle>
                  <angle>
                    <activevideoangle>false</activevideoangle>
                    <activeaudioangle>false</activeaudioangle>
                    <clip id="clip-3"/>
                  </angle>
                  <angle>
                    <activevideoangle>false</activevideoangle>
                    <activeaudioangle>false</activeaudioangle>
                    <clip id="clip-4"/>
                  </angle>
                  <angle>
                    <activevideoangle>false</activevideoangle>
                    <activeaudioangle>false</activeaudioangle>
                    <clip id="clip-5"/>
                  </angle>
                  <angle>
                    <activevideoangle>false</activevideoangle>
                    <activeaudioangle>false</activeaudioangle>
                    <clip id="clip-6"/>
                  </angle>
                  <angle>
                    <activevideoangle>false</activevideoangle>
                    <activeaudioangle>false</activeaudioangle>
                    <clip id="clip-7"/>
                  </angle>
                  <masterclipid>clip-master</masterclipid>
                </multiclip>
              </clipitem>
              <clipitem id="cs-782">
                <duration>86</duration>
                <rate>
                  <ntsc>false</ntsc>
                  <timebase>25</timebase>
                </rate>
                <in>94374</in>
                <out>94459</out>
                <start>94374</start>
                <end>94459</end>
                <file id="src-3"/>
                <sourcetrack>
                  <mediatype>video</mediatype>
                  <trackindex>1</trackindex>
                </sourcetrack>
                <multiclip id="mcs-782">
                  <name>MCS-782</name>
                  <masterclipid>clip-master</masterclipid>
                  <collapsed>false</collapsed>
                  <angle>
                    <activevideoangle>false</activevideoangle>
                    <activeaudioangle>false</activeaudioangle>
                    <clip id="clip-1"/>
                  </angle>
                  <angle>
                    <activevideoangle>false</activevideoangle>
                    <activeaudioangle>false</activeaudioangle>
                    <clip id="clip-2"/>
                  </angle>
                  <angle>
                    <activevideoangle>true</activevideoangle>
                    <activeaudioangle>true</activeaudioangle>
                    <clip id="clip-3"/>
                  </angle>
                  <angle>
                    <activevideoangle>false</activevideoangle>
                    <activeaudioangle>false</activeaudioangle>
                    <clip id="clip-4"/>
                  </angle>
                  <angle>
                    <activevideoangle>false</activevideoangle>
                    <activeaudioangle>false</activeaudioangle>
                    <clip id="clip-5"/>
                  </angle>
                  <angle>
                    <activevideoangle>false</activevideoangle>
                    <activeaudioangle>false</activeaudioangle>
                    <clip id="clip-6"/>
                  </angle>
                  <angle>
                    <activevideoangle>false</activevideoangle>
                    <activeaudioangle>false</activeaudioangle>
                    <clip id="clip-7"/>
                  </angle>
                  <masterclipid>clip-master</masterclipid>
                </multiclip>
              </clipitem>
              <clipitem id="cs-783">
                <duration>150</duration>
                <rate>
                  <ntsc>false</ntsc>
                  <timebase>25</timebase>
                </rate>
                <in>94459</in>
                <out>94608</out>
                <start>94459</start>
                <end>94608</end>
                <file id="src-4"/>
                <sourcetrack>
                  <mediatype>video</mediatype>
                  <trackindex>1</trackindex>
                </sourcetrack>
                <multiclip id="mcs-783">
                  <name>MCS-783</name>
                  <masterclipid>clip-master</masterclipid>
                  <collapsed>false</collapsed>
                  <angle>
                    <activevideoangle>false</activevideoangle>
                    <activeaudioangle>false</activeaudioangle>
                    <clip id="clip-1"/>
                  </angle>
                  <angle>
                    <activevideoangle>false</activevideoangle>
                    <activeaudioangle>false</activeaudioangle>
                    <clip id="clip-2"/>
                  </angle>
                  <angle>
                    <activevideoangle>false</activevideoangle>
                    <activeaudioangle>false</activeaudioangle>
                    <clip id="clip-3"/>
                  </angle>
                  <angle>
                    <activevideoangle>true</activevideoangle>
                    <activeaudioangle>true</activeaudioangle>
                    <clip id="clip-4"/>
                  </angle>
                  <angle>
                    <activevideoangle>false</activevideoangle>
                    <activeaudioangle>false</activeaudioangle>
                    <clip id="clip-5"/>
                  </angle>
                  <angle>
                    <activevideoangle>false</activevideoangle>
                    <activeaudioangle>false</activeaudioangle>
                    <clip id="clip-6"/>
                  </angle>
                  <angle>
                    <activevideoangle>false</activevideoangle>
                    <activeaudioangle>false</activeaudioangle>
                    <clip id="clip-7"/>
                  </angle>
                  <masterclipid>clip-master</masterclipid>
                </multiclip>
              </clipitem>
              <clipitem id="cs-784">
                <duration>91</duration>
                <rate>
                  <ntsc>false</ntsc>
                  <timebase>25</timebase>
                </rate>
                <in>94608</in>
                <out>94698</out>
                <start>94608</start>
                <end>94698</end>
                <file id="src-3"/>
                <sourcetrack>
                  <mediatype>video</mediatype>
                  <trackindex>1</trackindex>
                </sourcetrack>
                <multiclip id="mcs-784">
                  <name>MCS-784</name>
                  <masterclipid>clip-master</masterclipid>
                  <collapsed>false</collapsed>
                  <angle>
                    <activevideoangle>false</activevideoangle>
                    <activeaudioangle>false</activeaudioangle>
                    <clip id="clip-1"/>
                  </angle>
                  <angle>
                    <activevideoangle>false</activevideoangle>
                    <activeaudioangle>false</activeaudioangle>
                    <clip id="clip-2"/>
                  </angle>
                  <angle>
                    <activevideoangle>true</activevideoangle>
                    <activeaudioangle>true</activeaudioangle>
                    <clip id="clip-3"/>
                  </angle>
                  <angle>
                    <activevideoangle>false</activevideoangle>
                    <activeaudioangle>false</activeaudioangle>
                    <clip id="clip-4"/>
                  </angle>
                  <angle>
                    <activevideoangle>false</activevideoangle>
                    <activeaudioangle>false</activeaudioangle>
                    <clip id="clip-5"/>
                  </angle>
                  <angle>
                    <activevideoangle>false</activevideoangle>
                    <activeaudioangle>false</activeaudioangle>
                    <clip id="clip-6"/>
                  </angle>
                  <angle>
                    <activevideoangle>false</activevideoangle>
                    <activeaudioangle>false</activeaudioangle>
                    <clip id="clip-7"/>
                  </angle>
                  <masterclipid>clip-master</masterclipid>
                </multiclip>
              </clipitem>
              <clipitem id="cs-785">
                <duration>174</duration>
                <rate>
                  <ntsc>false</ntsc>
                  <timebase>25</timebase>
                </rate>
                <in>94698</in>
                <out>94871</out>
                <start>94698</start>
                <end>94871</end>
                <file id="src-2"/>
                <sourcetrack>
                  <mediatype>video</mediatype>
                  <trackindex>1</trackindex>
                </sourcetrack>
                <multiclip id="mcs-785">
                  <name>MCS-785</name>
                  <masterclipid>clip-master</masterclipid>
                  <collapsed>false</collapsed>
                  <angle>
                    <activevideoangle>false</activevideoangle>
                    <activeaudioangle>false</activeaudioangle>
                    <clip id="clip-1"/>
                  </angle>
                  <angle>
                    <activevideoangle>true</activevideoangle>
                    <activeaudioangle>true</activeaudioangle>
                    <clip id="clip-2"/>
                  </angle>
                  <angle>
                    <activevideoangle>false</activevideoangle>
                    <activeaudioangle>false</activeaudioangle>
                    <clip id="clip-3"/>
                  </angle>
                  <angle>
                    <activevideoangle>false</activevideoangle>
                    <activeaudioangle>false</activeaudioangle>
                    <clip id="clip-4"/>
                  </angle>
                  <angle>
                    <activevideoangle>false</activevideoangle>
                    <activeaudioangle>false</activeaudioangle>
                    <clip id="clip-5"/>
                  </angle>
                  <angle>
                    <activevideoangle>false</activevideoangle>
                    <activeaudioangle>false</activeaudioangle>
                    <clip id="clip-6"/>
                  </angle>
                  <angle>
                    <activevideoangle>false</activevideoangle>
                    <activeaudioangle>false</activeaudioangle>
                    <clip id="clip-7"/>
                  </angle>
                  <masterclipid>clip-master</masterclipid>
                </multiclip>
              </clipitem>
              <clipitem id="cs-786">
                <duration>149</duration>
                <rate>
                  <ntsc>false</ntsc>
                  <timebase>25</timebase>
                </rate>
                <in>94871</in>
                <out>95019</out>
                <start>94871</start>
                <end>95019</end>
                <file id="src-3"/>
                <sourcetrack>
                  <mediatype>video</mediatype>
                  <trackindex>1</trackindex>
                </sourcetrack>
                <multiclip id="mcs-786">
                  <name>MCS-786</name>
                  <masterclipid>clip-master</masterclipid>
                  <collapsed>false</collapsed>
                  <angle>
                    <activevideoangle>false</activevideoangle>
                    <activeaudioangle>false</activeaudioangle>
                    <clip id="clip-1"/>
                  </angle>
                  <angle>
                    <activevideoangle>false</activevideoangle>
                    <activeaudioangle>false</activeaudioangle>
                    <clip id="clip-2"/>
                  </angle>
                  <angle>
                    <activevideoangle>true</activevideoangle>
                    <activeaudioangle>true</activeaudioangle>
                    <clip id="clip-3"/>
                  </angle>
                  <angle>
                    <activevideoangle>false</activevideoangle>
                    <activeaudioangle>false</activeaudioangle>
                    <clip id="clip-4"/>
                  </angle>
                  <angle>
                    <activevideoangle>false</activevideoangle>
                    <activeaudioangle>false</activeaudioangle>
                    <clip id="clip-5"/>
                  </angle>
                  <angle>
                    <activevideoangle>false</activevideoangle>
                    <activeaudioangle>false</activeaudioangle>
                    <clip id="clip-6"/>
                  </angle>
                  <angle>
                    <activevideoangle>false</activevideoangle>
                    <activeaudioangle>false</activeaudioangle>
                    <clip id="clip-7"/>
                  </angle>
                  <masterclipid>clip-master</masterclipid>
                </multiclip>
              </clipitem>
              <clipitem id="cs-787">
                <duration>68</duration>
                <rate>
                  <ntsc>false</ntsc>
                  <timebase>25</timebase>
                </rate>
                <in>95019</in>
                <out>95086</out>
                <start>95019</start>
                <end>95086</end>
                <file id="src-6"/>
                <sourcetrack>
                  <mediatype>video</mediatype>
                  <trackindex>1</trackindex>
                </sourcetrack>
                <multiclip id="mcs-787">
                  <name>MCS-787</name>
                  <masterclipid>clip-master</masterclipid>
                  <collapsed>false</collapsed>
                  <angle>
                    <activevideoangle>false</activevideoangle>
                    <activeaudioangle>false</activeaudioangle>
                    <clip id="clip-1"/>
                  </angle>
                  <angle>
                    <activevideoangle>false</activevideoangle>
                    <activeaudioangle>false</activeaudioangle>
                    <clip id="clip-2"/>
                  </angle>
                  <angle>
                    <activevideoangle>false</activevideoangle>
                    <activeaudioangle>false</activeaudioangle>
                    <clip id="clip-3"/>
                  </angle>
                  <angle>
                    <activevideoangle>false</activevideoangle>
                    <activeaudioangle>false</activeaudioangle>
                    <clip id="clip-4"/>
                  </angle>
                  <angle>
                    <activevideoangle>false</activevideoangle>
                    <activeaudioangle>false</activeaudioangle>
                    <clip id="clip-5"/>
                  </angle>
                  <angle>
                    <activevideoangle>true</activevideoangle>
                    <activeaudioangle>true</activeaudioangle>
                    <clip id="clip-6"/>
                  </angle>
                  <angle>
                    <activevideoangle>false</activevideoangle>
                    <activeaudioangle>false</activeaudioangle>
                    <clip id="clip-7"/>
                  </angle>
                  <masterclipid>clip-master</masterclipid>
                </multiclip>
              </clipitem>
              <clipitem id="cs-788">
                <duration>95</duration>
                <rate>
                  <ntsc>false</ntsc>
                  <timebase>25</timebase>
                </rate>
                <in>95086</in>
                <out>95180</out>
                <start>95086</start>
                <end>95180</end>
                <file id="src-3"/>
                <sourcetrack>
                  <mediatype>video</mediatype>
                  <trackindex>1</trackindex>
                </sourcetrack>
                <multiclip id="mcs-788">
                  <name>MCS-788</name>
                  <masterclipid>clip-master</masterclipid>
                  <collapsed>false</collapsed>
                  <angle>
                    <activevideoangle>false</activevideoangle>
                    <activeaudioangle>false</activeaudioangle>
                    <clip id="clip-1"/>
                  </angle>
                  <angle>
                    <activevideoangle>false</activevideoangle>
                    <activeaudioangle>false</activeaudioangle>
                    <clip id="clip-2"/>
                  </angle>
                  <angle>
                    <activevideoangle>true</activevideoangle>
                    <activeaudioangle>true</activeaudioangle>
                    <clip id="clip-3"/>
                  </angle>
                  <angle>
                    <activevideoangle>false</activevideoangle>
                    <activeaudioangle>false</activeaudioangle>
                    <clip id="clip-4"/>
                  </angle>
                  <angle>
                    <activevideoangle>false</activevideoangle>
                    <activeaudioangle>false</activeaudioangle>
                    <clip id="clip-5"/>
                  </angle>
                  <angle>
                    <activevideoangle>false</activevideoangle>
                    <activeaudioangle>false</activeaudioangle>
                    <clip id="clip-6"/>
                  </angle>
                  <angle>
                    <activevideoangle>false</activevideoangle>
                    <activeaudioangle>false</activeaudioangle>
                    <clip id="clip-7"/>
                  </angle>
                  <masterclipid>clip-master</masterclipid>
                </multiclip>
              </clipitem>
              <clipitem id="cs-789">
                <duration>86</duration>
                <rate>
                  <ntsc>false</ntsc>
                  <timebase>25</timebase>
                </rate>
                <in>95180</in>
                <out>95265</out>
                <start>95180</start>
                <end>95265</end>
                <file id="src-2"/>
                <sourcetrack>
                  <mediatype>video</mediatype>
                  <trackindex>1</trackindex>
                </sourcetrack>
                <multiclip id="mcs-789">
                  <name>MCS-789</name>
                  <masterclipid>clip-master</masterclipid>
                  <collapsed>false</collapsed>
                  <angle>
                    <activevideoangle>false</activevideoangle>
                    <activeaudioangle>false</activeaudioangle>
                    <clip id="clip-1"/>
                  </angle>
                  <angle>
                    <activevideoangle>true</activevideoangle>
                    <activeaudioangle>true</activeaudioangle>
                    <clip id="clip-2"/>
                  </angle>
                  <angle>
                    <activevideoangle>false</activevideoangle>
                    <activeaudioangle>false</activeaudioangle>
                    <clip id="clip-3"/>
                  </angle>
                  <angle>
                    <activevideoangle>false</activevideoangle>
                    <activeaudioangle>false</activeaudioangle>
                    <clip id="clip-4"/>
                  </angle>
                  <angle>
                    <activevideoangle>false</activevideoangle>
                    <activeaudioangle>false</activeaudioangle>
                    <clip id="clip-5"/>
                  </angle>
                  <angle>
                    <activevideoangle>false</activevideoangle>
                    <activeaudioangle>false</activeaudioangle>
                    <clip id="clip-6"/>
                  </angle>
                  <angle>
                    <activevideoangle>false</activevideoangle>
                    <activeaudioangle>false</activeaudioangle>
                    <clip id="clip-7"/>
                  </angle>
                  <masterclipid>clip-master</masterclipid>
                </multiclip>
              </clipitem>
              <clipitem id="cs-790">
                <duration>45</duration>
                <rate>
                  <ntsc>false</ntsc>
                  <timebase>25</timebase>
                </rate>
                <in>95265</in>
                <out>95309</out>
                <start>95265</start>
                <end>95309</end>
                <file id="src-6"/>
                <sourcetrack>
                  <mediatype>video</mediatype>
                  <trackindex>1</trackindex>
                </sourcetrack>
                <multiclip id="mcs-790">
                  <name>MCS-790</name>
                  <masterclipid>clip-master</masterclipid>
                  <collapsed>false</collapsed>
                  <angle>
                    <activevideoangle>false</activevideoangle>
                    <activeaudioangle>false</activeaudioangle>
                    <clip id="clip-1"/>
                  </angle>
                  <angle>
                    <activevideoangle>false</activevideoangle>
                    <activeaudioangle>false</activeaudioangle>
                    <clip id="clip-2"/>
                  </angle>
                  <angle>
                    <activevideoangle>false</activevideoangle>
                    <activeaudioangle>false</activeaudioangle>
                    <clip id="clip-3"/>
                  </angle>
                  <angle>
                    <activevideoangle>false</activevideoangle>
                    <activeaudioangle>false</activeaudioangle>
                    <clip id="clip-4"/>
                  </angle>
                  <angle>
                    <activevideoangle>false</activevideoangle>
                    <activeaudioangle>false</activeaudioangle>
                    <clip id="clip-5"/>
                  </angle>
                  <angle>
                    <activevideoangle>true</activevideoangle>
                    <activeaudioangle>true</activeaudioangle>
                    <clip id="clip-6"/>
                  </angle>
                  <angle>
                    <activevideoangle>false</activevideoangle>
                    <activeaudioangle>false</activeaudioangle>
                    <clip id="clip-7"/>
                  </angle>
                  <masterclipid>clip-master</masterclipid>
                </multiclip>
              </clipitem>
              <clipitem id="cs-791">
                <duration>95</duration>
                <rate>
                  <ntsc>false</ntsc>
                  <timebase>25</timebase>
                </rate>
                <in>95309</in>
                <out>95403</out>
                <start>95309</start>
                <end>95403</end>
                <file id="src-3"/>
                <sourcetrack>
                  <mediatype>video</mediatype>
                  <trackindex>1</trackindex>
                </sourcetrack>
                <multiclip id="mcs-791">
                  <name>MCS-791</name>
                  <masterclipid>clip-master</masterclipid>
                  <collapsed>false</collapsed>
                  <angle>
                    <activevideoangle>false</activevideoangle>
                    <activeaudioangle>false</activeaudioangle>
                    <clip id="clip-1"/>
                  </angle>
                  <angle>
                    <activevideoangle>false</activevideoangle>
                    <activeaudioangle>false</activeaudioangle>
                    <clip id="clip-2"/>
                  </angle>
                  <angle>
                    <activevideoangle>true</activevideoangle>
                    <activeaudioangle>true</activeaudioangle>
                    <clip id="clip-3"/>
                  </angle>
                  <angle>
                    <activevideoangle>false</activevideoangle>
                    <activeaudioangle>false</activeaudioangle>
                    <clip id="clip-4"/>
                  </angle>
                  <angle>
                    <activevideoangle>false</activevideoangle>
                    <activeaudioangle>false</activeaudioangle>
                    <clip id="clip-5"/>
                  </angle>
                  <angle>
                    <activevideoangle>false</activevideoangle>
                    <activeaudioangle>false</activeaudioangle>
                    <clip id="clip-6"/>
                  </angle>
                  <angle>
                    <activevideoangle>false</activevideoangle>
                    <activeaudioangle>false</activeaudioangle>
                    <clip id="clip-7"/>
                  </angle>
                  <masterclipid>clip-master</masterclipid>
                </multiclip>
              </clipitem>
              <clipitem id="cs-792">
                <duration>328</duration>
                <rate>
                  <ntsc>false</ntsc>
                  <timebase>25</timebase>
                </rate>
                <in>95403</in>
                <out>95730</out>
                <start>95403</start>
                <end>95730</end>
                <file id="src-2"/>
                <sourcetrack>
                  <mediatype>video</mediatype>
                  <trackindex>1</trackindex>
                </sourcetrack>
                <multiclip id="mcs-792">
                  <name>MCS-792</name>
                  <masterclipid>clip-master</masterclipid>
                  <collapsed>false</collapsed>
                  <angle>
                    <activevideoangle>false</activevideoangle>
                    <activeaudioangle>false</activeaudioangle>
                    <clip id="clip-1"/>
                  </angle>
                  <angle>
                    <activevideoangle>true</activevideoangle>
                    <activeaudioangle>true</activeaudioangle>
                    <clip id="clip-2"/>
                  </angle>
                  <angle>
                    <activevideoangle>false</activevideoangle>
                    <activeaudioangle>false</activeaudioangle>
                    <clip id="clip-3"/>
                  </angle>
                  <angle>
                    <activevideoangle>false</activevideoangle>
                    <activeaudioangle>false</activeaudioangle>
                    <clip id="clip-4"/>
                  </angle>
                  <angle>
                    <activevideoangle>false</activevideoangle>
                    <activeaudioangle>false</activeaudioangle>
                    <clip id="clip-5"/>
                  </angle>
                  <angle>
                    <activevideoangle>false</activevideoangle>
                    <activeaudioangle>false</activeaudioangle>
                    <clip id="clip-6"/>
                  </angle>
                  <angle>
                    <activevideoangle>false</activevideoangle>
                    <activeaudioangle>false</activeaudioangle>
                    <clip id="clip-7"/>
                  </angle>
                  <masterclipid>clip-master</masterclipid>
                </multiclip>
              </clipitem>
              <clipitem id="cs-793">
                <duration>205</duration>
                <rate>
                  <ntsc>false</ntsc>
                  <timebase>25</timebase>
                </rate>
                <in>95730</in>
                <out>95934</out>
                <start>95730</start>
                <end>95934</end>
                <file id="src-1"/>
                <sourcetrack>
                  <mediatype>video</mediatype>
                  <trackindex>1</trackindex>
                </sourcetrack>
                <multiclip id="mcs-793">
                  <name>MCS-793</name>
                  <masterclipid>clip-master</masterclipid>
                  <collapsed>false</collapsed>
                  <angle>
                    <activevideoangle>true</activevideoangle>
                    <activeaudioangle>true</activeaudioangle>
                    <clip id="clip-1"/>
                  </angle>
                  <angle>
                    <activevideoangle>false</activevideoangle>
                    <activeaudioangle>false</activeaudioangle>
                    <clip id="clip-2"/>
                  </angle>
                  <angle>
                    <activevideoangle>false</activevideoangle>
                    <activeaudioangle>false</activeaudioangle>
                    <clip id="clip-3"/>
                  </angle>
                  <angle>
                    <activevideoangle>false</activevideoangle>
                    <activeaudioangle>false</activeaudioangle>
                    <clip id="clip-4"/>
                  </angle>
                  <angle>
                    <activevideoangle>false</activevideoangle>
                    <activeaudioangle>false</activeaudioangle>
                    <clip id="clip-5"/>
                  </angle>
                  <angle>
                    <activevideoangle>false</activevideoangle>
                    <activeaudioangle>false</activeaudioangle>
                    <clip id="clip-6"/>
                  </angle>
                  <angle>
                    <activevideoangle>false</activevideoangle>
                    <activeaudioangle>false</activeaudioangle>
                    <clip id="clip-7"/>
                  </angle>
                  <masterclipid>clip-master</masterclipid>
                </multiclip>
              </clipitem>
              <clipitem id="cs-794">
                <duration>118</duration>
                <rate>
                  <ntsc>false</ntsc>
                  <timebase>25</timebase>
                </rate>
                <in>95934</in>
                <out>96051</out>
                <start>95934</start>
                <end>96051</end>
                <file id="src-2"/>
                <sourcetrack>
                  <mediatype>video</mediatype>
                  <trackindex>1</trackindex>
                </sourcetrack>
                <multiclip id="mcs-794">
                  <name>MCS-794</name>
                  <masterclipid>clip-master</masterclipid>
                  <collapsed>false</collapsed>
                  <angle>
                    <activevideoangle>false</activevideoangle>
                    <activeaudioangle>false</activeaudioangle>
                    <clip id="clip-1"/>
                  </angle>
                  <angle>
                    <activevideoangle>true</activevideoangle>
                    <activeaudioangle>true</activeaudioangle>
                    <clip id="clip-2"/>
                  </angle>
                  <angle>
                    <activevideoangle>false</activevideoangle>
                    <activeaudioangle>false</activeaudioangle>
                    <clip id="clip-3"/>
                  </angle>
                  <angle>
                    <activevideoangle>false</activevideoangle>
                    <activeaudioangle>false</activeaudioangle>
                    <clip id="clip-4"/>
                  </angle>
                  <angle>
                    <activevideoangle>false</activevideoangle>
                    <activeaudioangle>false</activeaudioangle>
                    <clip id="clip-5"/>
                  </angle>
                  <angle>
                    <activevideoangle>false</activevideoangle>
                    <activeaudioangle>false</activeaudioangle>
                    <clip id="clip-6"/>
                  </angle>
                  <angle>
                    <activevideoangle>false</activevideoangle>
                    <activeaudioangle>false</activeaudioangle>
                    <clip id="clip-7"/>
                  </angle>
                  <masterclipid>clip-master</masterclipid>
                </multiclip>
              </clipitem>
              <clipitem id="cs-795">
                <duration>432</duration>
                <rate>
                  <ntsc>false</ntsc>
                  <timebase>25</timebase>
                </rate>
                <in>96051</in>
                <out>96482</out>
                <start>96051</start>
                <end>96482</end>
                <file id="src-3"/>
                <sourcetrack>
                  <mediatype>video</mediatype>
                  <trackindex>1</trackindex>
                </sourcetrack>
                <multiclip id="mcs-795">
                  <name>MCS-795</name>
                  <masterclipid>clip-master</masterclipid>
                  <collapsed>false</collapsed>
                  <angle>
                    <activevideoangle>false</activevideoangle>
                    <activeaudioangle>false</activeaudioangle>
                    <clip id="clip-1"/>
                  </angle>
                  <angle>
                    <activevideoangle>false</activevideoangle>
                    <activeaudioangle>false</activeaudioangle>
                    <clip id="clip-2"/>
                  </angle>
                  <angle>
                    <activevideoangle>true</activevideoangle>
                    <activeaudioangle>true</activeaudioangle>
                    <clip id="clip-3"/>
                  </angle>
                  <angle>
                    <activevideoangle>false</activevideoangle>
                    <activeaudioangle>false</activeaudioangle>
                    <clip id="clip-4"/>
                  </angle>
                  <angle>
                    <activevideoangle>false</activevideoangle>
                    <activeaudioangle>false</activeaudioangle>
                    <clip id="clip-5"/>
                  </angle>
                  <angle>
                    <activevideoangle>false</activevideoangle>
                    <activeaudioangle>false</activeaudioangle>
                    <clip id="clip-6"/>
                  </angle>
                  <angle>
                    <activevideoangle>false</activevideoangle>
                    <activeaudioangle>false</activeaudioangle>
                    <clip id="clip-7"/>
                  </angle>
                  <masterclipid>clip-master</masterclipid>
                </multiclip>
              </clipitem>
              <clipitem id="cs-796">
                <duration>105</duration>
                <rate>
                  <ntsc>false</ntsc>
                  <timebase>25</timebase>
                </rate>
                <in>96482</in>
                <out>96586</out>
                <start>96482</start>
                <end>96586</end>
                <file id="src-1"/>
                <sourcetrack>
                  <mediatype>video</mediatype>
                  <trackindex>1</trackindex>
                </sourcetrack>
                <multiclip id="mcs-796">
                  <name>MCS-796</name>
                  <masterclipid>clip-master</masterclipid>
                  <collapsed>false</collapsed>
                  <angle>
                    <activevideoangle>true</activevideoangle>
                    <activeaudioangle>true</activeaudioangle>
                    <clip id="clip-1"/>
                  </angle>
                  <angle>
                    <activevideoangle>false</activevideoangle>
                    <activeaudioangle>false</activeaudioangle>
                    <clip id="clip-2"/>
                  </angle>
                  <angle>
                    <activevideoangle>false</activevideoangle>
                    <activeaudioangle>false</activeaudioangle>
                    <clip id="clip-3"/>
                  </angle>
                  <angle>
                    <activevideoangle>false</activevideoangle>
                    <activeaudioangle>false</activeaudioangle>
                    <clip id="clip-4"/>
                  </angle>
                  <angle>
                    <activevideoangle>false</activevideoangle>
                    <activeaudioangle>false</activeaudioangle>
                    <clip id="clip-5"/>
                  </angle>
                  <angle>
                    <activevideoangle>false</activevideoangle>
                    <activeaudioangle>false</activeaudioangle>
                    <clip id="clip-6"/>
                  </angle>
                  <angle>
                    <activevideoangle>false</activevideoangle>
                    <activeaudioangle>false</activeaudioangle>
                    <clip id="clip-7"/>
                  </angle>
                  <masterclipid>clip-master</masterclipid>
                </multiclip>
              </clipitem>
              <clipitem id="cs-797">
                <duration>91</duration>
                <rate>
                  <ntsc>false</ntsc>
                  <timebase>25</timebase>
                </rate>
                <in>96586</in>
                <out>96676</out>
                <start>96586</start>
                <end>96676</end>
                <file id="src-4"/>
                <sourcetrack>
                  <mediatype>video</mediatype>
                  <trackindex>1</trackindex>
                </sourcetrack>
                <multiclip id="mcs-797">
                  <name>MCS-797</name>
                  <masterclipid>clip-master</masterclipid>
                  <collapsed>false</collapsed>
                  <angle>
                    <activevideoangle>false</activevideoangle>
                    <activeaudioangle>false</activeaudioangle>
                    <clip id="clip-1"/>
                  </angle>
                  <angle>
                    <activevideoangle>false</activevideoangle>
                    <activeaudioangle>false</activeaudioangle>
                    <clip id="clip-2"/>
                  </angle>
                  <angle>
                    <activevideoangle>false</activevideoangle>
                    <activeaudioangle>false</activeaudioangle>
                    <clip id="clip-3"/>
                  </angle>
                  <angle>
                    <activevideoangle>true</activevideoangle>
                    <activeaudioangle>true</activeaudioangle>
                    <clip id="clip-4"/>
                  </angle>
                  <angle>
                    <activevideoangle>false</activevideoangle>
                    <activeaudioangle>false</activeaudioangle>
                    <clip id="clip-5"/>
                  </angle>
                  <angle>
                    <activevideoangle>false</activevideoangle>
                    <activeaudioangle>false</activeaudioangle>
                    <clip id="clip-6"/>
                  </angle>
                  <angle>
                    <activevideoangle>false</activevideoangle>
                    <activeaudioangle>false</activeaudioangle>
                    <clip id="clip-7"/>
                  </angle>
                  <masterclipid>clip-master</masterclipid>
                </multiclip>
              </clipitem>
              <clipitem id="cs-798">
                <duration>43</duration>
                <rate>
                  <ntsc>false</ntsc>
                  <timebase>25</timebase>
                </rate>
                <in>96676</in>
                <out>96718</out>
                <start>96676</start>
                <end>96718</end>
                <file id="src-2"/>
                <sourcetrack>
                  <mediatype>video</mediatype>
                  <trackindex>1</trackindex>
                </sourcetrack>
                <multiclip id="mcs-798">
                  <name>MCS-798</name>
                  <masterclipid>clip-master</masterclipid>
                  <collapsed>false</collapsed>
                  <angle>
                    <activevideoangle>false</activevideoangle>
                    <activeaudioangle>false</activeaudioangle>
                    <clip id="clip-1"/>
                  </angle>
                  <angle>
                    <activevideoangle>true</activevideoangle>
                    <activeaudioangle>true</activeaudioangle>
                    <clip id="clip-2"/>
                  </angle>
                  <angle>
                    <activevideoangle>false</activevideoangle>
                    <activeaudioangle>false</activeaudioangle>
                    <clip id="clip-3"/>
                  </angle>
                  <angle>
                    <activevideoangle>false</activevideoangle>
                    <activeaudioangle>false</activeaudioangle>
                    <clip id="clip-4"/>
                  </angle>
                  <angle>
                    <activevideoangle>false</activevideoangle>
                    <activeaudioangle>false</activeaudioangle>
                    <clip id="clip-5"/>
                  </angle>
                  <angle>
                    <activevideoangle>false</activevideoangle>
                    <activeaudioangle>false</activeaudioangle>
                    <clip id="clip-6"/>
                  </angle>
                  <angle>
                    <activevideoangle>false</activevideoangle>
                    <activeaudioangle>false</activeaudioangle>
                    <clip id="clip-7"/>
                  </angle>
                  <masterclipid>clip-master</masterclipid>
                </multiclip>
              </clipitem>
            </track>
          </video>
          <audio>
            <track>
              <clipitem id="csa1">
                <duration>96719</duration>
                <in>0</in>
                <out>96718</out>
                <start>0</start>
                <end>96718</end>
                <file id="src-7"/>
                <sourcetrack>
                  <mediatype>audio</mediatype>
                  <trackindex>1</trackindex>
                </sourcetrack>
                <filter>
                  <effect>
                    <name>Audio Pan</name>
                    <effectid>audiopan</effectid>
                    <effectcategory>audiopan</effectcategory>
                    <effecttype>audiopan</effecttype>
                    <mediatype>audio</mediatype>
                    <parameter>
                      <name>Pan</name>
                      <parameterid>pan</parameterid>
                      <valuemin>-1</valuemin>
                      <valuemax>1</valuemax>
                      <value>-1</value>
                    </parameter>
                  </effect>
                </filter>
                <multiclip id="mcsa-1">
                  <name>MCS Audio 1</name>
                  <masterclipid>clip-master</masterclipid>
                  <collapsed>false</collapsed>
                  <angle>
                    <activevideoangle>false</activevideoangle>
                    <activeaudioangle>false</activeaudioangle>
                    <clip id="clip-1"/>
                  </angle>
                  <angle>
                    <activevideoangle>false</activevideoangle>
                    <activeaudioangle>false</activeaudioangle>
                    <clip id="clip-2"/>
                  </angle>
                  <angle>
                    <activevideoangle>false</activevideoangle>
                    <activeaudioangle>false</activeaudioangle>
                    <clip id="clip-3"/>
                  </angle>
                  <angle>
                    <activevideoangle>false</activevideoangle>
                    <activeaudioangle>false</activeaudioangle>
                    <clip id="clip-4"/>
                  </angle>
                  <angle>
                    <activevideoangle>false</activevideoangle>
                    <activeaudioangle>false</activeaudioangle>
                    <clip id="clip-5"/>
                  </angle>
                  <angle>
                    <activevideoangle>false</activevideoangle>
                    <activeaudioangle>false</activeaudioangle>
                    <clip id="clip-6"/>
                  </angle>
                  <angle>
                    <activevideoangle>true</activevideoangle>
                    <activeaudioangle>true</activeaudioangle>
                    <clip id="clip-7"/>
                  </angle>
                  <masterclipid>clip-master</masterclipid>
                </multiclip>
                <link>
                  <linkclipref>cs-0</linkclipref>
                  <mediatype>video</mediatype>
                  <trackindex>1</trackindex>
                  <clipindex>1</clipindex>
                </link>
                <link>
                  <linkclipref>csa1</linkclipref>
                  <mediatype>audio</mediatype>
                  <trackindex>1</trackindex>
                  <clipindex>1</clipindex>
                  <groupindex>1</groupindex>
                </link>
                <link>
                  <linkclipref>csa2</linkclipref>
                  <mediatype>audio</mediatype>
                  <trackindex>2</trackindex>
                  <clipindex>1</clipindex>
                  <groupindex>1</groupindex>
                </link>
              </clipitem>
            </track>
            <track>
              <clipitem id="csa2">
                <duration>96719</duration>
                <in>0</in>
                <out>96718</out>
                <start>0</start>
                <end>96718</end>
                <file id="src-7"/>
                <sourcetrack>
                  <mediatype>audio</mediatype>
                  <trackindex>2</trackindex>
                </sourcetrack>
                <filter>
                  <effect>
                    <name>Audio Pan</name>
                    <effectid>audiopan</effectid>
                    <effectcategory>audiopan</effectcategory>
                    <effecttype>audiopan</effecttype>
                    <mediatype>audio</mediatype>
                    <parameter>
                      <name>Pan</name>
                      <parameterid>pan</parameterid>
                      <valuemin>-1</valuemin>
                      <valuemax>1</valuemax>
                      <value>1</value>
                    </parameter>
                  </effect>
                </filter>
                <multiclip id="mcsa-2">
                  <name>MCS Audio 2</name>
                  <masterclipid>clip-master</masterclipid>
                  <collapsed>false</collapsed>
                  <angle>
                    <activevideoangle>false</activevideoangle>
                    <activeaudioangle>false</activeaudioangle>
                    <clip id="clip-1"/>
                  </angle>
                  <angle>
                    <activevideoangle>false</activevideoangle>
                    <activeaudioangle>false</activeaudioangle>
                    <clip id="clip-2"/>
                  </angle>
                  <angle>
                    <activevideoangle>false</activevideoangle>
                    <activeaudioangle>false</activeaudioangle>
                    <clip id="clip-3"/>
                  </angle>
                  <angle>
                    <activevideoangle>false</activevideoangle>
                    <activeaudioangle>false</activeaudioangle>
                    <clip id="clip-4"/>
                  </angle>
                  <angle>
                    <activevideoangle>false</activevideoangle>
                    <activeaudioangle>false</activeaudioangle>
                    <clip id="clip-5"/>
                  </angle>
                  <angle>
                    <activevideoangle>false</activevideoangle>
                    <activeaudioangle>false</activeaudioangle>
                    <clip id="clip-6"/>
                  </angle>
                  <angle>
                    <activevideoangle>true</activevideoangle>
                    <activeaudioangle>true</activeaudioangle>
                    <clip id="clip-7"/>
                  </angle>
                  <masterclipid>clip-master</masterclipid>
                </multiclip>
                <link>
                  <linkclipref>cs-0</linkclipref>
                  <mediatype>video</mediatype>
                  <trackindex>1</trackindex>
                  <clipindex>1</clipindex>
                </link>
                <link>
                  <linkclipref>csa1</linkclipref>
                  <mediatype>audio</mediatype>
                  <trackindex>1</trackindex>
                  <clipindex>1</clipindex>
                  <groupindex>1</groupindex>
                </link>
                <link>
                  <linkclipref>csa2</linkclipref>
                  <mediatype>audio</mediatype>
                  <trackindex>2</trackindex>
                  <clipindex>1</clipindex>
                  <groupindex>1</groupindex>
                </link>
              </clipitem>
            </track>
          </audio>
        </media>
      </sequence>
    </children>
  </project>
</xmeml>
